<?xml version="1.0" encoding="UTF-8" standalone="no"?>
<svg
   xmlns:dc="http://purl.org/dc/elements/1.1/"
   xmlns:cc="http://creativecommons.org/ns#"
   xmlns:rdf="http://www.w3.org/1999/02/22-rdf-syntax-ns#"
   xmlns:svg="http://www.w3.org/2000/svg"
   xmlns="http://www.w3.org/2000/svg"
   id="svg8"
   version="1.1"
   viewBox="0 0 14.552083 14.552084"
   height="55"
   width="55">
  <defs
     id="defs2" />
  <metadata
     id="metadata5">
    <rdf:RDF>
      <cc:Work
         rdf:about="">
        <dc:format>image/svg+xml</dc:format>
        <dc:type
           rdf:resource="http://purl.org/dc/dcmitype/StillImage" />
        <dc:title></dc:title>
      </cc:Work>
    </rdf:RDF>
  </metadata>
  <g
     transform="translate(0,-282.4479)"
     id="layer1">
    <path
       id="path54"
       d="m -43.661072,276.20413 c -0.05105,-0.006 -0.206164,-0.0238 -0.344712,-0.0398 -2.507033,-0.28848 -4.668541,-2.07116 -5.476483,-4.51667 -0.228028,-0.6902 -0.315914,-1.2613 -0.316096,-2.05404 -2e-4,-0.74106 0.0724,-1.25877 0.266388,-1.90038 0.706903,-2.33807 2.641347,-4.10559 5.023478,-4.58999 0.469866,-0.0956 0.748184,-0.12099 1.324718,-0.12113 0.741403,-2e-4 1.259353,0.0724 1.901262,0.26627 2.087995,0.6307 3.711231,2.21479 4.397225,4.29118 0.228028,0.6902 0.315914,1.2613 0.316095,2.05405 2.01e-4,0.74393 -0.07227,1.2583 -0.268766,1.90827 -0.748839,2.4771 -2.84443,4.27282 -5.431006,4.65386 -0.255668,0.0377 -1.201618,0.0705 -1.392103,0.0484 z m 1.856138,-6.6105 v -3.31299 h -1.378845 -1.378847 v 0.75536 0.75536 h 0.490551 0.490552 v 2.55763 2.55762 h 0.888294 0.888295 z"
       style="fill:#000000;stroke-width:0.02651006" />
    <path
       id="path56"
       d="m -17.864198,255.88791 c -0.05104,-0.006 -0.206164,-0.0238 -0.344711,-0.0398 -2.507033,-0.28848 -4.668541,-2.07116 -5.476483,-4.51667 -0.228029,-0.6902 -0.315915,-1.2613 -0.316096,-2.05404 -1.7e-4,-0.74106 0.0724,-1.25877 0.266388,-1.90038 0.706902,-2.33807 2.641346,-4.10559 5.023477,-4.58999 0.469867,-0.0956 0.748185,-0.12099 1.324718,-0.12113 0.741404,-2e-4 1.259353,0.0724 1.901263,0.26627 2.087995,0.6307 3.711232,2.21479 4.397224,4.29118 0.228029,0.6902 0.315915,1.2613 0.316097,2.05405 2e-4,0.74393 -0.07227,1.2583 -0.268766,1.90827 -0.74884,2.4771 -2.844431,4.27282 -5.431007,4.65386 -0.255669,0.0377 -1.201619,0.0705 -1.392104,0.0484 z m 2.943305,-3.99987 v -0.78187 h -0.914811 c -0.503146,0 -0.914811,-0.007 -0.914811,-0.0163 0,-0.009 0.06963,-0.0954 0.15473,-0.19215 0.0851,-0.0967 0.273801,-0.32491 0.419332,-0.50712 0.863924,-1.08169 1.123263,-1.63392 1.122793,-2.39086 -7.12e-4,-1.14004 -0.755549,-1.92843 -2.001792,-2.09075 -0.495594,-0.0645 -1.123043,0.0273 -1.532734,0.22445 -0.66732,0.32108 -1.050532,0.90021 -1.135633,1.71624 -0.01756,0.16841 -0.02434,0.32597 -0.01506,0.35015 0.01524,0.0397 0.100553,0.044 0.879486,0.044 h 0.862611 v -0.11446 c 0,-0.45142 0.330304,-0.7457 0.73529,-0.65511 0.300355,0.0672 0.447306,0.29497 0.426133,0.66055 -0.02948,0.50907 -0.418638,1.05625 -2.531919,3.56007 l -0.485642,0.5754 v 0.19984 0.19985 h 2.466012 2.466012 z"
       style="fill:#000000;stroke-width:0.02651006" />
    <path
       id="path58"
       d="m 6.7987496,296.33136 c -0.05104,-0.006 -0.206165,-0.0238 -0.344712,-0.0398 -2.507033,-0.28848 -4.668541,-2.07116 -5.47648259,-4.51666 -0.228028,-0.69021 -0.315914,-1.26131 -0.316096,-2.05405 -2e-4,-0.74106 0.0724,-1.25877 0.266388,-1.90038 0.70690259,-2.33807 2.64134659,-4.10559 5.02347759,-4.58999 0.469866,-0.0956 0.748184,-0.12099 1.324718,-0.12113 0.741403,-2e-4 1.259353,0.0724 1.901262,0.26627 2.0879964,0.6307 3.7112304,2.21479 4.3972244,4.29118 0.228029,0.6902 0.315915,1.2613 0.316095,2.05405 2.01e-4,0.74393 -0.07227,1.2583 -0.268766,1.90827 -0.748839,2.4771 -2.844429,4.27282 -5.4310054,4.65386 -0.255668,0.0377 -1.201618,0.0705 -1.392103,0.0484 z m 0.742455,-3.24519 c 1.157878,-0.1207 1.979705,-0.83253 2.161019,-1.87177 0.17923,-1.02731 -0.283243,-1.942 -1.179918,-2.33367 -0.109379,-0.0478 -0.219048,-0.087 -0.24371,-0.0872 -0.02466,-2e-4 -0.05186,-0.0117 -0.06044,-0.0256 -0.0086,-0.0139 0.277089,-0.49339 0.634826,-1.06556 l 0.650429,-1.04033 v -0.16702 -0.16702 l -2.260512,0.007 -2.260511,0.007 -0.007,0.74844 -0.007,0.74845 1.112052,0.007 1.112053,0.007 -0.541343,0.88788 -0.541343,0.88788 -2.01e-4,0.17689 -2e-4,0.1769 0.669535,0.009 0.669536,0.009 0.151786,0.0745 c 0.294117,0.14436 0.437251,0.40984 0.411901,0.76398 -0.0333,0.46517 -0.365424,0.7646 -0.81251,0.73252 -0.364511,-0.0262 -0.61716,-0.26803 -0.678964,-0.65 l -0.01823,-0.11264 h -0.846189 -0.84619 v 0.076 c 0,0.1526 0.08152,0.53742 0.158511,0.74829 0.296144,0.81107 1.027597,1.35475 1.954257,1.45256 0.293914,0.031 0.336562,0.0311 0.618407,0.002 z"
       style="fill:#000000;stroke-width:0.02651006" />
    <path
       id="path60"
       d="m 39.437193,266.89672 c -0.051,-0.006 -0.20617,-0.0238 -0.34471,-0.0398 -2.50704,-0.28848 -4.66855,-2.07116 -5.47649,-4.51666 -0.22803,-0.69021 -0.31591,-1.26131 -0.31609,-2.05405 -2e-4,-0.74106 0.0724,-1.25877 0.26638,-1.90038 0.70691,-2.33807 2.64135,-4.10559 5.02348,-4.58999 0.46987,-0.0956 0.74819,-0.12099 1.32472,-0.12113 0.7414,-2e-4 1.25935,0.0724 1.90126,0.26627 2.088,0.6307 3.71123,2.21479 4.39723,4.29118 0.22802,0.6902 0.31591,1.2613 0.31609,2.05405 2e-4,0.74393 -0.0723,1.2583 -0.26876,1.90827 -0.74884,2.4771 -2.84443,4.27282 -5.43101,4.65386 -0.25567,0.0377 -1.20162,0.0705 -1.3921,0.0484 z m 2.61898,-3.90048 0.007,-0.58972 h 0.29117 0.29117 v -0.7421 -0.74211 h -0.29168 -0.29167 v -0.72936 -0.72935 l -0.60278,0.007 -0.60278,0.007 -0.18983,0.71051 c -0.10441,0.39079 -0.19536,0.71605 -0.20212,0.7228 -0.007,0.007 -0.24417,0.009 -0.52757,0.005 l -0.51528,-0.007 0.81519,-1.96128 0.81519,-1.96129 -0.86554,-0.007 c -0.47604,-0.004 -0.87429,0.002 -0.885,0.0132 -0.0107,0.0111 -0.49175,1.15737 -1.06897,2.54719 -1.00944,2.43047 -1.04951,2.53342 -1.04951,2.69676 v 0.16983 h 1.59098 1.59097 v 0.59671 0.59671 l 0.8419,-0.007 0.84189,-0.007 z"
       style="fill:#000000;stroke-width:0.02651006" />
  </g>
</svg>
