<svg width="71" height="19" viewBox="0 0 71 19" fill="none" xmlns="http://www.w3.org/2000/svg">
<path d="M3.09375 10.4531L10.4297 13.418V15.7148L0.84375 11.2734V9.5625L10.4297 5.13281V7.42969L3.09375 10.4531ZM20.1445 18V0.9375H25.7227C27.5742 0.9375 28.9648 1.32031 29.8945 2.08594C30.832 2.85156 31.3008 3.98438 31.3008 5.48438C31.3008 6.28125 31.0742 6.98828 30.6211 7.60547C30.168 8.21484 29.5508 8.6875 28.7695 9.02344C29.6914 9.28125 30.418 9.77344 30.9492 10.5C31.4883 11.2188 31.7578 12.0781 31.7578 13.0781C31.7578 14.6094 31.2617 15.8125 30.2695 16.6875C29.2773 17.5625 27.875 18 26.0625 18H20.1445ZM22.3945 10.0195V16.1602H26.1094C27.1562 16.1602 27.9805 15.8906 28.582 15.3516C29.1914 14.8047 29.4961 14.0547 29.4961 13.1016C29.4961 11.0469 28.3789 10.0195 26.1445 10.0195H22.3945ZM22.3945 8.21484H25.793C26.7773 8.21484 27.5625 7.96875 28.1484 7.47656C28.7422 6.98438 29.0391 6.31641 29.0391 5.47266C29.0391 4.53516 28.7656 3.85547 28.2188 3.43359C27.6719 3.00391 26.8398 2.78906 25.7227 2.78906H22.3945V8.21484ZM42.5859 18C42.4609 17.75 42.3594 17.3047 42.2812 16.6641C41.2734 17.7109 40.0703 18.2344 38.6719 18.2344C37.4219 18.2344 36.3945 17.8828 35.5898 17.1797C34.793 16.4688 34.3945 15.5703 34.3945 14.4844C34.3945 13.1641 34.8945 12.1406 35.8945 11.4141C36.9023 10.6797 38.3164 10.3125 40.1367 10.3125H42.2461V9.31641C42.2461 8.55859 42.0195 7.95703 41.5664 7.51172C41.1133 7.05859 40.4453 6.83203 39.5625 6.83203C38.7891 6.83203 38.1406 7.02734 37.6172 7.41797C37.0938 7.80859 36.832 8.28125 36.832 8.83594H34.6523C34.6523 8.20312 34.875 7.59375 35.3203 7.00781C35.7734 6.41406 36.3828 5.94531 37.1484 5.60156C37.9219 5.25781 38.7695 5.08594 39.6914 5.08594C41.1523 5.08594 42.2969 5.45312 43.125 6.1875C43.9531 6.91406 44.3828 7.91797 44.4141 9.19922V15.0352C44.4141 16.1992 44.5625 17.125 44.8594 17.8125V18H42.5859ZM38.9883 16.3477C39.668 16.3477 40.3125 16.1719 40.9219 15.8203C41.5312 15.4688 41.9727 15.0117 42.2461 14.4492V11.8477H40.5469C37.8906 11.8477 36.5625 12.625 36.5625 14.1797C36.5625 14.8594 36.7891 15.3906 37.2422 15.7734C37.6953 16.1562 38.2773 16.3477 38.9883 16.3477ZM52.8984 16.4648C53.6719 16.4648 54.3477 16.2305 54.9258 15.7617C55.5039 15.293 55.8242 14.707 55.8867 14.0039H57.9375C57.8984 14.7305 57.6484 15.4219 57.1875 16.0781C56.7266 16.7344 56.1094 17.2578 55.3359 17.6484C54.5703 18.0391 53.7578 18.2344 52.8984 18.2344C51.1719 18.2344 49.7969 17.6602 48.7734 16.5117C47.7578 15.3555 47.25 13.7773 47.25 11.7773V11.4141C47.25 10.1797 47.4766 9.08203 47.9297 8.12109C48.3828 7.16016 49.0312 6.41406 49.875 5.88281C50.7266 5.35156 51.7305 5.08594 52.8867 5.08594C54.3086 5.08594 55.4883 5.51172 56.4258 6.36328C57.3711 7.21484 57.875 8.32031 57.9375 9.67969H55.8867C55.8242 8.85938 55.5117 8.1875 54.9492 7.66406C54.3945 7.13281 53.707 6.86719 52.8867 6.86719C51.7852 6.86719 50.9297 7.26562 50.3203 8.0625C49.7188 8.85156 49.418 9.99609 49.418 11.4961V11.9062C49.418 13.3672 49.7188 14.4922 50.3203 15.2812C50.9219 16.0703 51.7812 16.4648 52.8984 16.4648ZM63.9141 12.1289L62.5547 13.5469V18H60.3867V0H62.5547V10.8867L63.7148 9.49219L67.6641 5.32031H70.3008L65.3672 10.6172L70.875 18H68.332L63.9141 12.1289Z" fill="white"/>
</svg>
