<svg width="48" height="59" viewBox="0 0 48 59" fill="none" xmlns="http://www.w3.org/2000/svg">
<path d="M34.6155 58.7357C33.9752 58.5783 32.9919 58.3388 32.4303 58.2034C30.7973 57.8096 28.2334 57.1942 27.039 56.9092C26.4324 56.7645 25.8719 56.6171 25.7932 56.5816C25.5814 56.4861 25.4869 56.3351 25.4869 56.0919C25.4869 55.9508 25.5123 55.853 25.5686 55.7776C25.6568 55.6595 25.8722 55.5386 25.9943 55.5386C26.036 55.5386 26.6006 55.6667 27.2489 55.8234C27.8972 55.98 29.0893 56.2674 29.898 56.4621C34.5026 57.5707 35.4781 57.8018 35.4893 57.7868C35.4952 57.7789 35.5958 57.3485 35.7128 56.8304C35.8298 56.3122 35.9534 55.8456 35.9875 55.7935C36.0726 55.6631 36.2868 55.5389 36.4268 55.5387C36.7081 55.5382 36.9844 55.7973 36.9844 56.0612C36.9844 56.1291 36.8545 56.754 36.6957 57.4499C36.284 59.2541 36.4095 59.1766 34.6155 58.7357ZM5.58616 55.3892C5.51329 55.3532 5.4168 55.2638 5.37173 55.1907C5.28993 55.0578 5.28979 55.0125 5.28979 29.5112C5.28979 3.96982 5.2898 3.96484 5.37212 3.83118C5.4174 3.75765 5.51667 3.66786 5.59272 3.63165C5.71906 3.57148 7.30906 3.56582 24.0227 3.56596C42.0813 3.56607 42.3161 3.56711 42.445 3.64598C42.5168 3.6899 42.6043 3.77002 42.6396 3.82402C42.6977 3.91295 42.7037 6.33147 42.7035 29.5115C42.7035 52.6564 42.6972 55.1103 42.6394 55.1988C42.6043 55.2526 42.5168 55.3326 42.445 55.3765C42.3161 55.4553 42.0821 55.4563 24.0166 55.4556C7.33114 55.455 5.70697 55.449 5.58616 55.3892ZM41.6405 29.5112V4.67248L38.1178 4.6724C32.8253 4.67228 10.3127 4.67228 8.22031 4.67238L6.39256 4.67248V29.5112V54.35H24.0166H41.6405V29.5112ZM32.8796 54.1208C31.8793 53.9652 30.9793 53.5007 30.2606 52.7692C29.3579 51.8502 28.8931 50.7105 28.8912 49.4109C28.8878 47.0896 30.487 45.1578 32.7793 44.7144C33.1234 44.6479 34.0739 44.6473 34.4094 44.7136C35.8915 45.0058 37.1204 45.933 37.7838 47.2595C38.1011 47.894 38.2475 48.4764 38.2785 49.2266C38.3521 51.0116 37.4584 52.6422 35.902 53.5629C35.7448 53.6559 35.5334 53.7609 35.4323 53.7962C35.3312 53.8314 35.1934 53.8858 35.126 53.9169C34.7036 54.112 33.5155 54.2199 32.8796 54.121V54.1208ZM34.5338 52.9513C34.7022 52.9028 34.8797 52.861 34.9281 52.8585C34.9765 52.8559 35.0085 52.8415 34.9991 52.8264C34.9898 52.8113 35.0881 52.7472 35.2175 52.6841C36.0419 52.2819 36.7549 51.4051 37.0525 50.4273C37.1521 50.1002 37.1623 50.0059 37.1623 49.4109C37.1623 48.8161 37.1521 48.7216 37.0526 48.3949C36.3843 46.1997 34.0665 45.1437 32.0449 46.1136C29.8856 47.1495 29.3005 49.9575 30.8602 51.799C31.3926 52.4276 32.2381 52.9152 33.0072 53.0371C33.3893 53.0977 34.1797 53.0533 34.5338 52.9513ZM31.5511 50.8371C31.1403 50.553 31.2368 49.9707 31.7161 49.8412C31.8241 49.812 32.4894 49.8011 33.6882 49.809C35.3513 49.8198 35.5064 49.8268 35.6097 49.8948C35.9586 50.1243 35.9663 50.6174 35.6244 50.8267C35.4996 50.903 35.4058 50.9067 33.5728 50.9068C31.8298 50.9068 31.6427 50.9005 31.5511 50.8371H31.5511ZM31.5671 48.9019C31.3765 48.7852 31.3071 48.6606 31.3071 48.4347C31.3071 48.296 31.3339 48.1971 31.3949 48.1112C31.5617 47.8762 31.5828 47.8739 33.5801 47.8739C35.3229 47.8739 35.4142 47.8777 35.5752 47.9558C35.9499 48.1379 35.9809 48.6821 35.6288 48.8975C35.4983 48.9774 35.4274 48.9802 33.5943 48.9802C31.7966 48.9802 31.6883 48.9761 31.5671 48.9019ZM19.1254 52.9414C18.8761 52.848 18.7002 52.6853 18.5783 52.4353C18.4847 52.2432 18.4643 52.1481 18.4664 51.9124C18.4727 51.1849 18.9863 50.3441 19.6563 49.9643C19.7955 49.8854 19.9099 49.8115 19.9105 49.8001C19.9126 49.7636 19.5267 49.6005 19.2761 49.5321C18.95 49.443 17.0264 49.376 16.3245 49.4293C16.0462 49.4505 15.8096 49.4766 15.7989 49.4874C15.7881 49.4982 15.7065 49.7252 15.6176 49.9918C15.3151 50.8986 14.8386 51.7376 14.3644 52.1985C14.0278 52.5257 13.7939 52.6392 13.4098 52.6615C13.1276 52.6779 13.0679 52.6678 12.8695 52.5704C12.5832 52.4298 12.2773 52.0954 12.1769 51.813C11.9549 51.1891 12.2811 50.4676 13.1115 49.746C13.5054 49.4036 14.2809 48.8817 14.6807 48.6899L14.9721 48.5502L15.0733 48.2293C15.2774 47.5828 15.3487 46.8681 15.2394 46.5645C15.157 46.3357 15.0158 46.2582 14.69 46.2633C14.2179 46.2706 13.2455 46.6412 12.7533 47.0016C12.5089 47.1804 12.2773 47.2196 12.0834 47.1148C11.8184 46.9716 11.7126 46.6556 11.8441 46.4004C12.0315 46.0367 13.0189 45.5057 13.9504 45.2678C14.1654 45.2129 14.3991 45.1899 14.7451 45.1896C15.1994 45.189 15.2538 45.1978 15.4898 45.3072C16.2693 45.6685 16.5472 46.5483 16.2967 47.8621C16.2641 48.0333 16.2279 48.2033 16.2163 48.24C16.1972 48.3004 16.3109 48.3075 17.4306 48.3158C19.1194 48.3284 19.5427 48.3867 20.1832 48.6954C20.5568 48.8755 20.9226 49.1859 21.0811 49.4574C21.1627 49.597 21.2095 49.6365 21.2941 49.6368C21.4549 49.6374 21.7673 49.7296 22.1582 49.8913C22.9244 50.2083 24.076 50.5381 24.417 50.5381C24.5269 50.5381 24.6815 50.5689 24.7606 50.6065C25.1516 50.7928 25.1546 51.3848 24.7656 51.5867C24.5768 51.6847 24.1036 51.6403 23.4194 51.4606C23.1188 51.3816 22.8441 51.3095 22.8089 51.3003C22.6914 51.2694 22.06 51.04 21.7385 50.9112C21.5638 50.8413 21.4138 50.784 21.4051 50.784C21.3964 50.784 21.3765 50.8624 21.3609 50.9582C21.2747 51.486 20.8446 52.2492 20.4511 52.5725C20.0111 52.934 19.4916 53.0786 19.1254 52.9414H19.1254ZM19.808 51.6648C19.9796 51.4876 20.2716 50.9675 20.2254 50.9212C20.1902 50.8858 19.9196 51.1183 19.8067 51.2809C19.6777 51.4667 19.5296 51.8497 19.5867 51.8497C19.6099 51.8497 19.7095 51.7665 19.808 51.6648ZM13.5378 51.4825C13.5996 51.4383 13.742 51.2677 13.8542 51.1034C14.0818 50.7701 14.4162 50.1557 14.3588 50.1764C14.2554 50.2136 13.634 50.7435 13.4813 50.9246C13.2122 51.244 13.1529 51.4037 13.2624 51.5136C13.332 51.5835 13.4087 51.5748 13.5378 51.4825ZM9.00718 43.2821C8.92428 43.2626 8.80725 43.1855 8.72681 43.0975C8.59795 42.9563 8.58997 42.9313 8.60722 42.7225C8.62239 42.5392 8.64916 42.4753 8.75564 42.3684L8.88558 42.238L23.9578 42.2276C37.3969 42.2183 39.043 42.224 39.1504 42.2797C39.2166 42.3141 39.309 42.4174 39.3558 42.5094C39.5188 42.83 39.3558 43.1832 39.0007 43.2792C38.8062 43.3317 9.23083 43.3346 9.00718 43.2821V43.2821ZM8.85495 40.4972C8.51046 40.287 8.5116 39.7716 8.85696 39.5574L8.99533 39.4715H24.0007C38.7999 39.4715 39.0078 39.4727 39.1366 39.5515C39.5062 39.7775 39.5146 40.2426 39.1535 40.4846L39.0151 40.5774L24.0002 40.5768C9.21019 40.5763 8.98327 40.5754 8.85488 40.4969L8.85495 40.4972ZM8.90443 37.7927C8.8595 37.7741 8.77679 37.7092 8.72063 37.6485C8.63586 37.557 8.61852 37.4976 8.61852 37.2984C8.61852 37.0885 8.63363 37.0426 8.73911 36.9321C8.80543 36.8626 8.92621 36.7878 9.00751 36.7659C9.10222 36.7403 14.5048 36.726 24.0426 36.7261L38.93 36.7263L39.111 36.818C39.4201 36.9744 39.5144 37.3226 39.3259 37.6114C39.1708 37.8489 40.3515 37.8321 24.0084 37.8292C15.7461 37.8278 8.94936 37.8114 8.90443 37.7927V37.7927ZM8.90299 35.0448C8.8124 34.9998 8.70672 34.9093 8.66814 34.8437C8.51963 34.5914 8.62422 34.2162 8.88006 34.0834C8.98984 34.0264 10.5435 34.0199 24.0396 34.0199H39.0769L39.2321 34.1756C39.4999 34.4445 39.4765 34.8014 39.1766 35.0215L39.0613 35.1061L24.0645 35.1164C9.14351 35.1267 9.06686 35.1263 8.90299 35.0448V35.0448ZM9.01128 32.3389C8.56419 32.2343 8.45783 31.631 8.83853 31.3589L8.95778 31.2737H23.9941C37.0441 31.2737 39.0456 31.2816 39.1449 31.3331C39.3146 31.4212 39.4095 31.5929 39.4096 31.812C39.4096 32.0356 39.3243 32.1854 39.1384 32.2873C39.0125 32.3564 38.2789 32.3602 24.0777 32.3655C15.8671 32.3686 9.08723 32.3566 9.01128 32.3389ZM8.96558 29.5883C8.56487 29.4284 8.47716 28.883 8.81345 28.6423L8.94516 28.548L23.9552 28.5372C35.1411 28.5292 38.994 28.5384 39.0783 28.5733C39.2327 28.6372 39.3853 28.8287 39.417 28.9983C39.4515 29.1829 39.337 29.4185 39.1531 29.5414L39.0143 29.6342L24.041 29.6316C14.2214 29.6299 9.03255 29.615 8.96558 29.5883V29.5883ZM8.77098 26.7477C8.6273 26.6155 8.61842 26.5931 8.61842 26.3616C8.61842 26.156 8.63511 26.0979 8.72052 26.0063C8.77669 25.9461 8.85391 25.8798 8.89214 25.8592C8.93395 25.8365 14.9512 25.8217 23.9963 25.822C37.0317 25.8226 39.0461 25.8304 39.1451 25.8818C39.279 25.9513 39.3866 26.1028 39.4196 26.2684C39.4537 26.4395 39.3085 26.7437 39.1546 26.8236C39.0424 26.8818 37.5804 26.888 23.977 26.888H8.92354L8.77098 26.7477ZM8.98771 24.1529C8.52989 24.0362 8.45791 23.3587 8.88006 23.1396C8.98984 23.0826 10.5435 23.0761 24.0396 23.0761H39.0769L39.2321 23.2318C39.5084 23.5092 39.4748 23.875 39.1531 24.09L39.0143 24.1828L24.041 24.178C15.8057 24.1754 9.0317 24.1641 8.98771 24.1529V24.1529ZM8.94314 21.3791C8.87463 21.349 8.76895 21.2653 8.70829 21.1929C8.50675 20.9526 8.59513 20.5413 8.88006 20.3934C8.98984 20.3364 10.5413 20.3299 24.0171 20.3299C35.3064 20.3299 39.0539 20.3417 39.121 20.3773C39.2503 20.446 39.3429 20.564 39.3971 20.7286C39.4633 20.93 39.3815 21.1648 39.1954 21.3073L39.0532 21.4161L24.0605 21.4249C11.6536 21.4321 9.04621 21.4243 8.94314 21.3791V21.3791ZM8.85525 18.6101C8.49603 18.3903 8.52277 17.8296 8.90106 17.6495C9.02744 17.5893 10.3412 17.5836 24.0227 17.5839C38.7933 17.5842 39.0079 17.5854 39.1365 17.664C39.5063 17.8899 39.5146 18.355 39.1531 18.5973L39.0144 18.6904L24.0002 18.6902C9.181 18.6901 8.98431 18.6891 8.85525 18.6101L8.85525 18.6101ZM16.5421 15.6983C13.0305 15.6821 12.0708 15.6667 11.9986 15.6253C11.6902 15.4485 11.7094 14.89 12.0305 14.6996C12.1345 14.638 13.0976 14.6326 24.0023 14.6327C35.6919 14.6329 35.8629 14.6339 35.9918 14.7129C36.3077 14.9062 36.3333 15.3338 36.0448 15.5959C35.9555 15.6769 35.8798 15.678 28.4743 15.6983C24.3601 15.7095 18.9906 15.7095 16.5421 15.6983ZM8.65388 13.5325C8.34689 13.426 7.99919 13.2033 7.81173 12.9931C7.59622 12.7514 7.38623 12.3012 7.33368 11.9684C7.27949 11.6251 7.27934 8.47508 7.33356 8.09498C7.4374 7.36608 7.91535 6.77688 8.62178 6.50688L8.86352 6.41447L23.8327 6.40306C34.8213 6.39467 38.8759 6.40392 39.0804 6.43798C39.8412 6.56455 40.4938 7.18857 40.6547 7.9433C40.7266 8.28014 40.7173 11.8828 40.6439 12.1595C40.5604 12.4744 40.418 12.7361 40.1993 12.977C39.9465 13.2553 39.6862 13.426 39.3609 13.5269C39.1026 13.6069 38.9251 13.6079 23.9815 13.6065C9.61449 13.6054 8.85312 13.6016 8.65392 13.5325H8.65388ZM38.9357 12.4993C39.1814 12.4464 39.4197 12.2565 39.5209 12.0327C39.5908 11.8784 39.5965 11.727 39.5973 10.0192L39.5982 8.17256L39.4968 7.96982C39.3896 7.75551 39.2107 7.60646 38.9817 7.54053C38.893 7.51501 33.4864 7.50066 23.9729 7.50066H9.1027L8.88114 7.61337C8.71476 7.69802 8.62903 7.77632 8.53686 7.9278L8.41413 8.12951V10.0182V11.9069L8.52609 12.098C8.64354 12.2985 8.84572 12.4514 9.06184 12.5031C9.27112 12.5532 38.7027 12.5495 38.9356 12.4993L38.9357 12.4993ZM4.41165 51.4716C4.17188 51.4103 0.914441 50.6292 0.585605 50.5542C0.255801 50.4789 0.0824486 50.3503 0.0175088 50.1328C-0.0229081 49.9974 -0.00340339 49.8741 0.18395 49.0804C0.538418 47.5787 0.834931 46.3148 0.918974 45.9474C0.962809 45.7558 1.06164 45.3316 1.1386 45.0047C1.30329 44.3053 2.26363 40.2038 2.42943 39.4918C2.67397 38.4417 3.8292 33.5114 3.98939 32.8342C4.13579 32.2153 4.17529 32.1014 4.28503 31.9812C4.59617 31.6405 5.20739 31.8656 5.20795 32.3211C5.20818 32.4737 5.35829 31.8232 3.08455 41.5189C2.05124 45.9251 1.2195 49.5429 1.23625 49.5584C1.253 49.574 1.63429 49.6733 2.08357 49.7792C3.72195 50.1653 4.88681 50.4562 4.96701 50.4992C5.20003 50.6244 5.27811 51.0241 5.1162 51.2629C4.95723 51.4974 4.75133 51.5584 4.41165 51.4716ZM43.1313 27.1681C42.9709 27.079 42.8643 26.9525 42.8244 26.8038C42.7834 26.6509 42.8175 26.4863 43.4188 23.9369C43.5204 23.5063 43.7019 22.728 44.2742 20.2684C44.4421 19.547 44.6998 18.4496 44.847 17.8296C44.9941 17.2097 45.2798 15.9831 45.4817 15.1039C45.861 13.4528 46.4573 10.8913 46.6671 10.0116C46.8056 9.43114 46.806 9.42709 46.7273 9.42709C46.6945 9.42709 46.212 9.31623 45.6551 9.18074C45.0982 9.04524 44.3668 8.86925 44.0299 8.78964C43.1479 8.58127 43.127 8.57464 42.991 8.4598C42.6555 8.17653 42.8112 7.60053 43.2448 7.52069C43.4138 7.48957 47.6166 8.49424 47.7671 8.60171C47.9185 8.70989 48.02 8.92973 47.9967 9.09919C47.9858 9.17809 47.8942 9.5931 47.7932 10.0214C47.6921 10.4497 47.4421 11.5195 47.2377 12.3987C47.0333 13.2779 46.8108 14.2278 46.7432 14.5096C46.4998 15.5255 46.4824 15.5997 46.1334 17.1123C45.7789 18.6484 45.3793 20.3703 45.1109 21.5186C44.9344 22.2738 44.6337 23.5649 44.4427 24.3877C43.7858 27.2175 43.8452 27.0257 43.5877 27.1483C43.4247 27.2259 43.2493 27.2335 43.1313 27.1681ZM11.2988 3.41594C11.1299 3.32979 11.0082 3.13946 11.008 2.96123C11.0078 2.79308 11.5571 0.476389 11.6398 0.296729C11.7113 0.141224 11.9199 0.000219137 12.0786 5.08223e-08C12.1397 -8.64307e-05 12.6451 0.110209 13.2018 0.2451C14.1299 0.469966 17.1959 1.2081 17.9717 1.39344C18.9293 1.62221 20.3226 1.95854 21.4786 2.23997C22.417 2.46842 22.4785 2.50763 22.514 2.90019C22.5369 3.1534 22.5356 3.15743 22.3873 3.29778C22.3049 3.37576 22.1783 3.45034 22.1059 3.46349C22.0183 3.47943 21.6607 3.41229 21.035 3.26247C19.5624 2.90987 16.1799 2.09649 14.2826 1.63874C13.3319 1.40937 12.5439 1.23191 12.5315 1.24437C12.5191 1.25682 12.4093 1.68722 12.2877 2.20078C12.166 2.71434 12.0394 3.17598 12.0063 3.22663C11.8602 3.45032 11.5361 3.53705 11.2988 3.41594Z" fill="black"/>
</svg>
