<svg width="170" height="169" viewBox="0 0 170 169" fill="none" xmlns="http://www.w3.org/2000/svg">
<path d="M10.6825 168.61C9.22465 168.504 8.75168 168.361 7.26857 167.576C4.29157 166.002 1.9647 163.47 0.548737 160.264L0 159.021V84.2653V9.50961L0.822998 7.87492C3.15595 3.24105 6.63679 0.552202 10.7725 0.189232C11.7701 0.101732 29.0903 0.0232694 49.2618 0.0149994L85.9374 0L87.9081 0.96505C90.9827 2.47062 93.2261 4.71543 94.8218 7.88282L95.4862 9.20173L95.5099 84.4021L95.5336 159.602L94.7273 161.326C94.2839 162.275 93.9211 163.097 93.9211 163.154C93.9211 163.211 94.6351 163.294 95.5077 163.338C96.953 163.411 97.1533 163.477 97.7579 164.082C99.0918 165.416 98.6786 167.794 96.9905 168.5C96.3634 168.762 90.4007 168.799 54.3182 168.768C31.2493 168.749 11.6132 168.677 10.6825 168.61L10.6825 168.61ZM78.5849 163.095C82.3933 162.989 85.7075 162.803 86.1622 162.669C87.2828 162.338 88.5128 161.159 89.197 159.76L89.7739 158.581L89.9288 152.111C90.014 148.553 90.0905 143.285 90.0986 140.406L90.1135 135.17H47.7896H5.46577L5.53571 146.857L5.60565 158.545L6.10006 159.497C6.73191 160.713 7.6807 161.71 8.88443 162.423L9.83633 162.987L15.865 163.102C26.1346 163.298 71.447 163.293 78.5849 163.095V163.095ZM46.1144 160.128C42.6524 159.526 39.4273 157.063 37.7738 153.757C36.8502 151.911 36.5218 150.311 36.6416 148.24C36.8478 144.679 39.6844 140.829 43.4936 138.942C45.3257 138.034 45.3621 138.026 47.5792 138.031C50.249 138.037 51.5784 138.45 53.7977 139.964C57.4207 142.434 59.436 146.816 58.8167 150.877C58.5417 152.681 57.8863 154.122 56.6762 155.583C53.6701 159.214 49.9837 160.8 46.1144 160.128ZM50.5566 154.117C52.3643 153.189 53.314 151.44 53.2973 149.071C53.2733 145.67 51.5224 143.864 48.066 143.674C45.8974 143.555 44.7728 143.933 43.6747 145.148C42.5817 146.358 42.2334 147.294 42.2314 149.026C42.2284 151.523 43.4807 153.62 45.4004 154.333C46.533 154.754 49.5636 154.627 50.5566 154.117ZM90.1135 75.9407V22.6341H47.8067H5.49989V75.9407V129.247H47.8067H90.1135V75.9407ZM90.0554 13.8026C89.8717 9.24569 89.0782 7.49501 86.6291 6.24242L85.384 5.60562H48.7736C10.7672 5.60562 10.0689 5.62042 8.44211 6.46171C7.64426 6.8743 6.216 8.68956 5.90403 9.68751C5.76934 10.1184 5.61293 11.875 5.55646 13.591L5.45378 16.7112H47.8132H90.1727L90.0554 13.8026ZM34.7585 13.2737C33.9152 12.3828 33.6339 11.8149 33.6339 11.0031C33.6339 10.0843 34.1609 9.16244 34.9067 8.77677C36.7254 7.83629 47.427 7.81659 49.2328 8.75037C50.5089 9.41025 50.937 11.4291 50.0734 12.7136C49.3002 13.8636 48.813 13.936 41.7666 13.9492L35.4092 13.9612L34.7585 13.2737ZM54.5349 13.1491C53.7639 12.4299 53.6536 12.2062 53.5704 11.1924C53.4634 9.88745 53.8815 9.14491 55.0692 8.5307C56.0296 8.03409 59.1608 8.07755 60.2311 8.6024C61.1479 9.05193 61.9795 10.1835 61.9795 10.9815C61.9795 11.7887 61.2993 12.9389 60.4988 13.4853C59.886 13.9036 59.5354 13.9613 57.6035 13.9613H55.4055L54.5349 13.1491ZM105.247 167.911C104.826 167.419 104.425 166.791 104.356 166.513C104.208 165.926 104.628 164.954 105.452 163.975L106.034 163.283L112.762 163.346L119.49 163.41L120.139 164.033C121.196 165.046 121.382 166.524 120.604 167.722C119.952 168.727 119.373 168.804 112.454 168.804H106.012L105.247 167.911ZM128.879 168.655C128.17 168.518 127.166 167.404 127.012 166.584C126.845 165.693 127.399 164.475 128.258 163.847C128.82 163.435 129.186 163.406 134.604 163.343C141.492 163.262 141.994 163.317 142.931 164.254C143.536 164.859 143.632 165.098 143.632 166.005C143.632 166.762 143.504 167.218 143.173 167.638C142.306 168.74 141.849 168.807 135.336 168.775C132.045 168.76 129.14 168.705 128.879 168.655ZM150.767 168.387C149.546 167.416 149.217 165.87 149.969 164.637C150.634 163.547 151.231 163.372 154.737 163.244C158.202 163.118 159.079 162.906 160.858 161.765C161.715 161.214 162.137 161.083 163.051 161.083C164.088 161.083 164.244 161.15 164.907 161.873C165.833 162.884 165.887 163.926 165.075 165.122C164.216 166.389 163.1 167.169 160.872 168.061C159.476 168.62 159.16 168.659 155.372 168.754C151.471 168.85 151.335 168.84 150.767 168.387ZM148.079 162.923C147.649 162.687 147.138 162.133 146.848 161.59C146.379 160.71 146.356 160.485 146.422 157.381C146.478 154.749 146.565 153.968 146.863 153.419C147.34 152.541 148.219 152.093 149.463 152.093C150.328 152.093 150.552 152.195 151.272 152.914L152.093 153.735L152.092 157.409C152.092 160.678 152.046 161.158 151.679 161.759C150.847 163.123 149.334 163.613 148.079 162.923H148.079ZM165.517 155.869C165.164 155.776 164.593 155.406 164.248 155.046L163.622 154.393L163.56 147.669L163.499 140.946L164.348 140.179C165.483 139.154 166.038 139.041 167.195 139.601C168.938 140.445 168.91 140.309 168.91 147.805V154.411L168.257 155.065C167.514 155.807 166.459 156.117 165.517 155.869H165.517ZM147.781 145.94C146.745 145.125 146.544 144.41 146.358 140.885C146.167 137.277 146.303 132.485 146.625 131.426C146.738 131.054 147.161 130.459 147.565 130.104C148.464 129.315 149.708 129.231 150.784 129.887C152.027 130.646 152.093 131.061 152.093 138.189V144.606L151.405 145.257C151.027 145.615 150.51 146.014 150.256 146.145C149.525 146.519 148.399 146.426 147.781 145.94ZM164.412 132.754L163.622 132.029V125.297C163.622 117.952 163.626 117.927 164.851 117.179C166.049 116.449 166.98 116.663 168.434 118.002L169.016 118.538L169.004 124.792C168.99 131.727 168.916 132.223 167.768 132.995C166.645 133.75 165.401 133.661 164.412 132.754H164.412ZM147.589 123.123C147.176 122.761 146.766 122.125 146.611 121.608C146.263 120.446 146.245 110.766 146.588 109.257C147.154 106.771 149.248 106.115 151.222 107.804L152.093 108.55V114.992C152.093 121.991 152.033 122.419 150.927 123.289C150.02 124.002 148.504 123.926 147.589 123.123H147.589ZM164.87 110.456C163.419 109.402 163.493 109.849 163.56 102.493L163.622 95.7919L164.412 95.068C165.092 94.4446 165.349 94.3442 166.266 94.3442C167.182 94.3442 167.439 94.4446 168.12 95.068L168.91 95.7918L168.974 102.489C169.024 107.756 168.98 109.258 168.762 109.522C168.198 110.208 166.818 111.055 166.266 111.055C165.952 111.055 165.323 110.786 164.87 110.456H164.87ZM147.717 100.701C146.491 99.9529 146.487 99.9302 146.487 92.5567V85.7982L147.371 85.1763C147.96 84.7621 148.604 84.5209 149.298 84.4542C150.22 84.3656 150.418 84.4239 151.016 84.9598C151.43 85.33 151.768 85.8944 151.888 86.4116C151.995 86.877 152.085 89.956 152.088 93.2538C152.094 99.8198 152.057 100.034 150.815 100.767C150.018 101.238 148.547 101.207 147.717 100.701V100.701ZM165.274 88.4842C164.66 88.3662 163.451 87.0048 162.775 85.6713C161.558 83.2691 159.749 82.0216 156.958 81.6594C156.085 81.5462 152.834 81.4507 149.732 81.4471L144.092 81.4411L143.55 80.7969C142.336 79.3541 142.434 77.6885 143.799 76.5393C144.372 76.0573 144.71 75.976 146.697 75.8405C149.625 75.6409 157.047 75.9028 159.074 76.2772C161.403 76.7075 163.518 77.8297 165.192 79.5234C167.501 81.8587 168.991 84.8703 168.579 86.3646C168.367 87.1326 167.122 88.4217 166.593 88.4217C166.432 88.4217 166.174 88.4559 166.019 88.4977C165.864 88.5395 165.529 88.5337 165.274 88.4847V88.4842ZM100.909 81.2962C98.7647 81.206 98.3934 81.0407 97.8128 79.9179C97.1184 78.5751 97.7008 76.9513 99.1316 76.2411C99.8859 75.8666 100.394 75.8389 105.633 75.8862C108.759 75.9144 111.679 76.0353 112.122 76.1547C113.685 76.5755 114.562 78.3296 113.946 79.8034C113.351 81.2271 113.083 81.2932 107.708 81.3393C105.07 81.3619 102.01 81.3423 100.909 81.2962ZM122.765 81.266C121.92 81.1734 121.298 80.9749 120.99 80.7002C119.188 79.0921 120.123 76.4309 122.638 76.0098C123.19 75.9174 126.021 75.8409 128.93 75.8398C133.864 75.8378 134.283 75.8677 135.185 76.2838C136.233 76.7666 136.863 77.7239 136.862 78.8284C136.861 79.6331 136.144 80.7678 135.477 81.0214C134.825 81.2694 124.59 81.4663 122.765 81.266ZM144.88 58.3601C143.297 57.2411 127.463 41.2332 127.046 40.3296C126.54 39.2361 126.748 38.2066 127.656 37.2979C128.263 36.6915 128.502 36.5954 129.406 36.5954C130.239 36.5954 130.636 36.7281 131.349 37.2443C131.841 37.6011 134.783 40.4004 137.885 43.4648L143.526 49.0364L143.592 47.5226C143.628 46.6899 143.56 43.8193 143.441 41.1434C143.158 34.7827 142.637 32.6753 140.117 27.7018C138.737 24.9791 137.642 23.3829 135.647 21.1834C130.221 15.2037 124.069 12.2326 114.995 11.2102C111.288 10.7924 110.816 10.6021 110.145 9.25338C109.395 7.74691 110.473 5.91846 112.292 5.61123C113.295 5.4417 117.522 5.81375 119.718 6.2649C121.866 6.70621 125.472 7.88438 127.491 8.80442C135.521 12.4638 142.649 19.5975 145.991 27.3173C148.285 32.619 149.255 37.4978 149.487 44.9013L149.618 49.0824L155.245 43.512C161.692 37.1294 162.34 36.5954 163.637 36.5954C165.433 36.5954 166.646 38.4478 165.947 40.1225C165.563 41.0402 149.41 57.3767 147.879 58.3957C146.689 59.1876 146.039 59.1799 144.88 58.36L144.88 58.3601Z" fill="#95A1CC"/>
</svg>
