<svg width="86" height="127" viewBox="0 0 86 127" fill="none" xmlns="http://www.w3.org/2000/svg">
<path d="M8.992 24.192C7.808 24.192 6.848 23.8 6.112 23.016C5.376 22.232 5.008 21.208 5.008 19.944V19.392C5.008 19.232 5.088 19.152 5.248 19.152H6.424C6.584 19.152 6.664 19.232 6.664 19.392V19.872C6.664 20.72 6.88 21.408 7.312 21.936C7.744 22.448 8.304 22.704 8.992 22.704C9.664 22.704 10.224 22.456 10.672 21.96C11.12 21.464 11.344 20.808 11.344 19.992C11.344 19.448 11.232 18.984 11.008 18.6C10.8 18.2 10.52 17.856 10.168 17.568C9.832 17.264 9.264 16.808 8.464 16.2C7.664 15.608 7.032 15.104 6.568 14.688C6.104 14.256 5.72 13.744 5.416 13.152C5.128 12.56 4.984 11.864 4.984 11.064C4.984 9.81597 5.344 8.83197 6.064 8.11197C6.784 7.37597 7.72 7.00797 8.872 7.00797C10.088 7.00797 11.056 7.40797 11.776 8.20797C12.512 8.99197 12.88 10.04 12.88 11.352V11.952C12.88 12.112 12.8 12.192 12.64 12.192H11.44C11.28 12.192 11.2 12.112 11.2 11.952V11.328C11.2 10.48 10.984 9.79997 10.552 9.28797C10.136 8.75997 9.576 8.49597 8.872 8.49597C8.232 8.49597 7.704 8.72797 7.288 9.19197C6.872 9.63997 6.664 10.28 6.664 11.112C6.664 11.608 6.752 12.048 6.928 12.432C7.12 12.8 7.4 13.152 7.768 13.488C8.136 13.824 8.68 14.264 9.4 14.808C10.36 15.512 11.072 16.088 11.536 16.536C12.016 16.968 12.384 17.448 12.64 17.976C12.896 18.488 13.024 19.112 13.024 19.848C13.024 21.16 12.648 22.216 11.896 23.016C11.144 23.8 10.176 24.192 8.992 24.192ZM16.4804 9.64797C16.0804 9.64797 15.7524 9.51997 15.4964 9.26397C15.2564 9.00797 15.1364 8.68797 15.1364 8.30397C15.1364 7.90397 15.2564 7.58397 15.4964 7.34397C15.7524 7.08797 16.0804 6.95997 16.4804 6.95997C16.8644 6.95997 17.1764 7.08797 17.4164 7.34397C17.6724 7.58397 17.8004 7.90397 17.8004 8.30397C17.8004 8.68797 17.6724 9.00797 17.4164 9.26397C17.1764 9.51997 16.8644 9.64797 16.4804 9.64797ZM15.8804 24C15.7204 24 15.6404 23.92 15.6404 23.76V12.096C15.6404 11.936 15.7204 11.856 15.8804 11.856H17.1044C17.2644 11.856 17.3444 11.936 17.3444 12.096V23.76C17.3444 23.92 17.2644 24 17.1044 24H15.8804ZM25.9606 12.096C25.9606 11.936 26.0406 11.856 26.2006 11.856H27.4246C27.5846 11.856 27.6646 11.936 27.6646 12.096V23.76C27.6646 25.472 27.2646 26.768 26.4646 27.648C25.6806 28.544 24.3606 28.952 22.5046 28.872C22.3446 28.856 22.2646 28.768 22.2646 28.608V27.576C22.2646 27.416 22.3446 27.336 22.5046 27.336C23.7846 27.368 24.6806 27.072 25.1926 26.448C25.7046 25.84 25.9606 24.896 25.9606 23.616V22.896C25.9606 22.864 25.9446 22.84 25.9126 22.824C25.8966 22.808 25.8726 22.816 25.8406 22.848C25.5686 23.248 25.2166 23.552 24.7846 23.76C24.3686 23.968 23.9206 24.072 23.4406 24.072C22.4326 24.072 21.6326 23.736 21.0406 23.064C20.4646 22.392 20.1766 21.504 20.1766 20.4V15.336C20.1766 14.216 20.4646 13.328 21.0406 12.672C21.6326 12 22.4326 11.664 23.4406 11.664C23.9206 11.664 24.3686 11.768 24.7846 11.976C25.2166 12.168 25.5686 12.464 25.8406 12.864C25.8726 12.912 25.8966 12.936 25.9126 12.936C25.9446 12.92 25.9606 12.888 25.9606 12.84V12.096ZM23.9446 22.584C24.5366 22.584 25.0166 22.376 25.3846 21.96C25.7686 21.528 25.9606 20.976 25.9606 20.304V15.456C25.9606 14.768 25.7686 14.216 25.3846 13.8C25.0166 13.368 24.5366 13.152 23.9446 13.152C23.3366 13.152 22.8406 13.368 22.4566 13.8C22.0726 14.216 21.8806 14.768 21.8806 15.456V20.304C21.8806 20.976 22.0726 21.528 22.4566 21.96C22.8406 22.376 23.3366 22.584 23.9446 22.584ZM34.6746 11.688C35.6506 11.688 36.4026 12.024 36.9306 12.696C37.4746 13.368 37.7466 14.304 37.7466 15.504V23.76C37.7466 23.92 37.6666 24 37.5066 24H36.2826C36.1226 24 36.0426 23.92 36.0426 23.76V15.648C36.0426 14.864 35.8666 14.256 35.5146 13.824C35.1786 13.392 34.7066 13.176 34.0986 13.176C33.4586 13.176 32.9546 13.408 32.5866 13.872C32.2346 14.336 32.0586 14.968 32.0586 15.768V23.76C32.0586 23.92 31.9786 24 31.8186 24H30.5946C30.4346 24 30.3546 23.92 30.3546 23.76V12.096C30.3546 11.936 30.4346 11.856 30.5946 11.856H31.8186C31.9786 11.856 32.0586 11.936 32.0586 12.096V12.864C32.0586 12.896 32.0746 12.92 32.1066 12.936C32.1386 12.952 32.1626 12.936 32.1786 12.888C32.4666 12.488 32.8266 12.192 33.2586 12C33.7066 11.792 34.1786 11.688 34.6746 11.688ZM51.7632 7.43997C51.7632 7.27997 51.8432 7.19997 52.0032 7.19997H53.2272C53.3872 7.19997 53.4672 7.27997 53.4672 7.43997V23.76C53.4672 23.92 53.3872 24 53.2272 24H52.0032C51.8432 24 51.7632 23.92 51.7632 23.76V16.44C51.7632 16.376 51.7312 16.344 51.6672 16.344H47.3952C47.3312 16.344 47.2992 16.376 47.2992 16.44V23.76C47.2992 23.92 47.2192 24 47.0592 24H45.8352C45.6752 24 45.5952 23.92 45.5952 23.76V7.43997C45.5952 7.27997 45.6752 7.19997 45.8352 7.19997H47.0592C47.2192 7.19997 47.2992 7.27997 47.2992 7.43997V14.736C47.2992 14.8 47.3312 14.832 47.3952 14.832H51.6672C51.7312 14.832 51.7632 14.8 51.7632 14.736V7.43997ZM63.8995 18.336C63.8995 18.496 63.8195 18.576 63.6595 18.576H58.1875C58.1235 18.576 58.0915 18.608 58.0915 18.672V20.424C58.0915 21.096 58.2755 21.648 58.6435 22.08C59.0275 22.496 59.5235 22.704 60.1315 22.704C60.6435 22.704 61.0755 22.552 61.4275 22.248C61.7955 21.928 62.0355 21.52 62.1475 21.024C62.1955 20.88 62.2835 20.808 62.4115 20.808L63.6115 20.856C63.6755 20.856 63.7315 20.88 63.7795 20.928C63.8275 20.976 63.8435 21.04 63.8275 21.12C63.6995 22.064 63.3075 22.816 62.6515 23.376C62.0115 23.92 61.1715 24.192 60.1315 24.192C58.9955 24.192 58.0835 23.856 57.3955 23.184C56.7235 22.512 56.3875 21.624 56.3875 20.52V15.336C56.3875 14.248 56.7235 13.368 57.3955 12.696C58.0835 12.008 58.9955 11.664 60.1315 11.664C61.2835 11.664 62.1955 12.008 62.8675 12.696C63.5555 13.368 63.8995 14.248 63.8995 15.336V18.336ZM60.1315 13.152C59.5235 13.152 59.0275 13.368 58.6435 13.8C58.2755 14.216 58.0915 14.768 58.0915 15.456V17.064C58.0915 17.128 58.1235 17.16 58.1875 17.16H62.1235C62.1875 17.16 62.2195 17.128 62.2195 17.064V15.456C62.2195 14.768 62.0275 14.216 61.6435 13.8C61.2595 13.368 60.7555 13.152 60.1315 13.152ZM70.5289 11.736C70.9289 11.736 71.2729 11.824 71.5609 12C71.6729 12.064 71.7129 12.168 71.6809 12.312L71.3929 13.56C71.3769 13.704 71.2809 13.752 71.1049 13.704C70.9129 13.608 70.6729 13.56 70.3849 13.56C70.2569 13.56 70.1609 13.568 70.0969 13.584C69.5209 13.616 69.0489 13.92 68.6809 14.496C68.3129 15.056 68.1289 15.744 68.1289 16.56V23.76C68.1289 23.92 68.0489 24 67.8889 24H66.6649C66.5049 24 66.4249 23.92 66.4249 23.76V12.096C66.4249 11.936 66.5049 11.856 66.6649 11.856H67.8889C68.0489 11.856 68.1289 11.936 68.1289 12.096V13.536C68.1289 13.584 68.1369 13.608 68.1529 13.608C68.1849 13.608 68.2169 13.592 68.2489 13.56C68.7129 12.344 69.4729 11.736 70.5289 11.736ZM80.587 18.336C80.587 18.496 80.507 18.576 80.347 18.576H74.875C74.811 18.576 74.779 18.608 74.779 18.672V20.424C74.779 21.096 74.963 21.648 75.331 22.08C75.715 22.496 76.211 22.704 76.819 22.704C77.331 22.704 77.763 22.552 78.115 22.248C78.483 21.928 78.723 21.52 78.835 21.024C78.883 20.88 78.971 20.808 79.099 20.808L80.299 20.856C80.363 20.856 80.419 20.88 80.467 20.928C80.515 20.976 80.531 21.04 80.515 21.12C80.387 22.064 79.995 22.816 79.339 23.376C78.699 23.92 77.859 24.192 76.819 24.192C75.683 24.192 74.771 23.856 74.083 23.184C73.411 22.512 73.075 21.624 73.075 20.52V15.336C73.075 14.248 73.411 13.368 74.083 12.696C74.771 12.008 75.683 11.664 76.819 11.664C77.971 11.664 78.883 12.008 79.555 12.696C80.243 13.368 80.587 14.248 80.587 15.336V18.336ZM76.819 13.152C76.211 13.152 75.715 13.368 75.331 13.8C74.963 14.216 74.779 14.768 74.779 15.456V17.064C74.779 17.128 74.811 17.16 74.875 17.16H78.811C78.875 17.16 78.907 17.128 78.907 17.064V15.456C78.907 14.768 78.715 14.216 78.331 13.8C77.947 13.368 77.443 13.152 76.819 13.152Z" fill="black"/>
<path d="M1.49642 124.859L0 123.363V90.2642V57.1659L1.49642 55.6695L2.99283 54.1731H29.948H56.9032L58.4224 55.6922C59.8658 57.1357 59.934 57.3972 59.7908 60.9395L59.6401 64.6677H57.8483H56.0565L55.8006 61.5961L55.5446 58.5245H29.948H4.35142V90.2642V122.004L30.0623 122.137L55.7731 122.269L55.9148 114.714L56.0565 107.158H57.8483H59.6401L59.7808 115.167C59.921 123.147 59.9168 123.181 58.5834 124.765L57.2453 126.355H30.1191H2.99283L1.49642 124.859ZM8.80125 116.825C9.28051 115.003 16.6065 105.107 20.2217 101.399C23.2432 98.2992 24.1132 97.6873 25.4987 97.6873C27.758 97.6873 28.4444 99.4099 27.8002 103.463L27.3297 106.423L29.5347 106.093C32.0275 105.719 32.1508 105.951 30.9652 108.789C30.5391 109.808 30.2689 110.721 30.3648 110.817C30.4606 110.913 31.4973 110.171 32.6686 109.168C34.8697 107.284 35.8352 107.237 35.8352 109.014C35.8352 110.669 36.8098 112.021 38.0033 112.021C38.8253 112.021 38.9626 112.17 38.5348 112.598C37.599 113.534 35.3796 112.68 35.0196 111.246C34.6373 109.722 34.3057 109.677 32.7047 110.927C29.674 113.294 28.0167 112.579 29.1301 109.385C29.7976 107.47 29.6297 107.19 28.0521 107.586C27.2077 107.798 26.6204 108.602 25.968 110.439C24.7997 113.729 23.8759 114.673 22.3824 114.103C20.5133 113.39 21.0762 111.124 23.7617 108.55C25.5393 106.847 26.1241 105.868 26.3791 104.168C26.8133 101.272 26.5265 99.0993 25.6728 98.8187C24.6115 98.4698 18.09 105.485 13.6375 111.765C9.7365 117.268 8.28563 118.786 8.80125 116.825ZM24.4229 111.091C25.2544 109.053 24.5787 108.959 23.4033 110.948C22.3668 112.703 22.3003 113.205 23.1416 112.925C23.4808 112.812 24.0574 111.986 24.4229 111.091ZM42.4903 113.073C42.4903 111.539 46.4374 100.688 47.3141 99.8111C48.0088 99.1164 48.3502 99.1766 50.538 100.38C54.0696 102.322 53.885 103.195 48.6846 109.147C44.4628 113.979 42.4903 115.229 42.4903 113.073ZM52.7808 99.5999C49.456 97.9097 47.6075 96.0043 47.6218 94.2823C47.6302 93.2774 49.9381 89.3221 55.0446 81.5614C59.1205 75.367 62.524 70.0931 62.6079 69.8416C62.7751 69.3407 63.5821 69.7164 68.6858 72.6709L72.1004 74.6476L69.5237 79.3843C68.1065 81.9895 65.2532 87.5004 63.183 91.6308C58.395 101.184 57.3983 101.947 52.7808 99.5999ZM9.21477 72.6649C9.21477 71.2122 9.25448 71.1924 12.0303 71.2571C14.7446 71.3204 14.8459 71.3734 14.8459 72.7306C14.846 74.0957 14.7607 74.1384 12.0304 74.1384C9.26968 74.1384 9.21477 74.1097 9.21477 72.6649ZM17.9176 72.7306V71.3227H29.4361H40.9545V72.7306V74.1384H29.4361H17.9176V72.7306ZM67.7184 70.7013C65.9671 69.6632 64.4157 68.5051 64.2709 68.1276C63.8602 67.0574 73.9521 47.299 75.5523 46.0402C77.2862 44.6764 79.8146 44.6524 82.4076 45.9753C85 47.2978 86.0056 48.8005 86 51.3433C85.996 53.1384 85.1515 54.6452 79.4728 62.9897C74.6824 70.029 72.6784 72.5762 71.9264 72.5815C71.3633 72.5855 69.4697 71.7393 67.7184 70.7013ZM77.2709 58.978C81.8831 51.0839 82.3911 49.5447 80.6098 48.8611C80.1982 48.7031 79.5379 48.698 79.1425 48.8498C78.7472 49.0015 76.4435 52.5239 74.0232 56.6774C68.9679 65.353 68.5639 66.9713 71.453 66.9713C72.3937 66.9713 73.4435 65.529 77.2709 58.978V58.978ZM9.21477 65.6915C9.21477 64.4815 9.36835 64.4117 12.0304 64.4117C14.6924 64.4117 14.846 64.4815 14.846 65.6915C14.846 66.9015 14.6924 66.9713 12.0304 66.9713C9.36835 66.9713 9.21477 66.9015 9.21477 65.6915ZM17.9176 65.6915V64.4117H29.4361H40.9545V65.6915V66.9713H29.4361H17.9176V65.6915Z" fill="black"/>
</svg>
