<svg width="59" height="59" viewBox="0 0 59 59" fill="none" xmlns="http://www.w3.org/2000/svg">
<circle cx="29.5" cy="29.5" r="29.5" fill="#5075D6"/>
<path d="M38.8941 48.6755C38.073 48.5675 37.5333 48.4221 31.125 46.5826L24.9564 44.812L17.6655 44.4073C10.8664 44.0299 10.3667 43.992 10.2563 43.8461C10.1607 43.7197 10.1477 43.475 10.1888 42.5761C10.2168 41.9638 10.2609 41.2733 10.2868 41.0416L10.3338 40.6205L8.77946 40.1882C7.92456 39.9504 7.17407 39.7072 7.1117 39.6476C7.04933 39.5881 6.99907 39.4526 7.00001 39.3465C7.00095 39.2404 7.95483 35.8348 9.11974 31.7785L11.2378 24.4033L11.5613 18.8801C11.766 15.3848 11.9188 13.3159 11.9774 13.2454C12.1229 13.07 12.5301 13.1113 12.7338 13.3221C12.8338 13.4256 13.1641 13.7767 13.4678 14.1023C13.8958 14.5613 14.0295 14.6627 14.0624 14.5533C14.0857 14.4757 14.3658 13.503 14.6848 12.3917C15.0038 11.2804 15.3014 10.2876 15.3461 10.1856C15.4037 10.0542 15.4976 10 15.6677 10C15.7999 10 21.4125 11.5755 28.1403 13.5011C34.8681 15.4268 40.3845 16.9904 40.3991 16.9758C40.4136 16.9612 40.7816 15.7105 41.2168 14.1963C41.652 12.6821 42.0622 11.3811 42.1282 11.3052C42.4689 10.9138 44.9106 10.8953 46.6565 11.271C48.5997 11.6892 49.6063 12.1737 50.6088 13.1732C51.613 14.1746 52.0371 15.1422 51.942 16.2155C51.9051 16.6321 44.1138 44.0199 43.4575 46.0399C43.1942 46.8503 42.9207 47.3405 42.4935 47.7677C41.6808 48.5805 40.4779 48.8838 38.8941 48.6755ZM40.2402 44.5654C40.1349 44.4348 39.3264 43.5471 38.4437 42.5927L36.8387 40.8575L36.2994 40.8049C36.0028 40.7759 35.4261 40.7912 35.0179 40.8388C33.9942 40.9582 33.9253 40.9525 33.7839 40.7369C33.6695 40.5621 33.6858 40.4551 33.9882 39.3968C34.169 38.7642 34.3151 38.2095 34.3129 38.1641C34.3107 38.1186 34.0361 37.7892 33.7026 37.4321L33.0963 36.7827L32.47 37.329C31.8115 37.9033 31.6622 37.9614 31.4163 37.7388C31.1314 37.481 31.2274 37.2396 31.8451 36.6601C32.1639 36.361 32.4145 36.0909 32.4018 36.0599C32.3892 36.0289 32.1348 35.7374 31.8366 35.4122L31.2944 34.8208L30.6836 35.3584C30.0482 35.9176 29.8555 35.989 29.6019 35.7595C29.3222 35.5063 29.4158 35.2818 30.0377 34.7142C30.3604 34.4197 30.6109 34.1425 30.5944 34.0982C30.5779 34.054 30.3191 33.7585 30.0191 33.4416L29.4738 32.8655L28.9057 33.3872C28.3073 33.937 28.0178 34.0386 27.7663 33.7871C27.5086 33.5293 27.6096 33.2979 28.214 32.7621C28.5316 32.4806 28.7913 32.2126 28.7913 32.1665C28.7913 32.1205 28.5359 31.8207 28.2237 31.5004L27.6561 30.918L27.0826 31.4277C26.4645 31.9771 26.2037 32.0571 25.9491 31.7757C25.7219 31.5247 25.8426 31.286 26.4712 30.7428L27.0424 30.2492L26.7283 29.8768C26.5556 29.672 26.2877 29.3829 26.1329 29.2344L25.8515 28.9643L25.2916 29.4585C24.5857 30.0817 24.4475 30.1299 24.1984 29.8403C24.0937 29.7186 24.008 29.5679 24.008 29.5055C24.008 29.4019 24.4384 28.959 25.0212 28.4629L25.2509 28.2674L24.6501 27.6201L24.0492 26.9729L23.5544 27.4216C22.8752 28.0374 22.73 28.1074 22.4768 27.9415C22.1094 27.7007 22.2018 27.4251 22.8515 26.8241L23.431 26.2881L22.8465 25.6494L22.262 25.0107L21.6479 25.5463C21.0004 26.111 20.8567 26.1664 20.6126 25.9454C20.3183 25.6791 20.4209 25.4192 21.0419 24.8581L21.6204 24.3354L21.1072 23.7565C20.8249 23.4382 20.5462 23.1593 20.4878 23.1369C20.4294 23.1145 20.1345 23.3226 19.8324 23.5994C19.2615 24.1226 19.0528 24.1965 18.7982 23.9661C18.4807 23.6788 18.7066 23.2967 19.6331 22.5538L19.8355 22.3915L19.2725 21.7626C18.9629 21.4167 18.6849 21.1336 18.6547 21.1336C18.6245 21.1336 18.3489 21.3563 18.0423 21.6284C17.4614 22.1441 17.2011 22.2322 16.9626 21.9937C16.7036 21.7347 16.8053 21.5006 17.4103 20.9629C17.7278 20.6807 17.9858 20.4274 17.9837 20.4C17.9815 20.3726 17.7245 20.0747 17.4126 19.7381L16.8456 19.1262L16.2716 19.6351C15.67 20.1684 15.435 20.2478 15.1695 20.0075C14.9118 19.7743 14.9971 19.5792 15.6116 18.9967L16.2046 18.4346L14.4776 16.557C12.8986 14.8402 12.7483 14.699 12.7234 14.9083C12.6349 15.6516 11.0858 43.0387 11.13 43.0798C11.1683 43.1154 31.8376 44.3314 40.2402 44.7924L40.4317 44.8029L40.2402 44.5654ZM22.1524 38.566C19.5216 38.4138 17.2861 38.2698 17.1848 38.246C17.0733 38.2198 16.9789 38.1167 16.9459 37.9852C16.8934 37.7762 17.3727 28.7136 17.4567 28.3257C17.5012 28.1202 17.7706 27.9806 18.0046 28.0418C18.0854 28.0629 19.8125 29.8848 21.8426 32.0905C23.8727 34.2961 25.9698 36.5731 26.5028 37.1504C27.0357 37.7277 27.4718 38.2683 27.4718 38.3518C27.4718 38.553 27.3048 38.7567 27.1007 38.8042C27.01 38.8254 24.7832 38.7182 22.1524 38.566ZM23.1768 38.0068C23.2752 37.8882 23.9255 35.7024 23.9255 35.4902C23.9255 35.3119 23.6732 35.0713 23.4863 35.0713C23.3038 35.0713 23.0191 35.2917 23.0171 35.4346C23.0128 35.7389 22.8869 35.7436 21.9382 35.4753C21.421 35.3291 20.9662 35.182 20.9277 35.1486C20.8891 35.1151 20.9938 34.6128 21.1603 34.0322C21.493 32.872 21.4803 32.6489 21.0756 32.5473C20.7319 32.4611 20.5728 32.7091 20.2485 33.8364C20.0857 34.4022 19.9451 34.8726 19.9361 34.8818C19.9271 34.891 19.5615 34.7937 19.1236 34.6655C18.2528 34.4106 18.0298 34.4365 17.894 34.8079C17.7824 35.1134 18.0878 35.3384 18.9154 35.5607C19.4029 35.6916 19.637 35.7934 19.637 35.8744C19.637 35.9403 19.5782 36.1966 19.5063 36.4438C19.3867 36.8554 19.3869 36.9104 19.5083 37.0956C19.5812 37.2069 19.7166 37.298 19.8093 37.298C20.14 37.298 20.2756 37.1435 20.4229 36.5993C20.5031 36.3032 20.5943 36.0609 20.6256 36.0609C20.6998 36.0609 22.6225 36.6266 22.65 36.6566C22.6616 36.6692 22.5985 36.9144 22.5098 37.2017C22.3611 37.6828 22.3587 37.7395 22.4791 37.9233C22.6275 38.1497 23.0193 38.1966 23.1768 38.0068ZM47.1935 29.7931C51.4759 14.8768 51.2429 15.8541 50.7527 14.8638C49.9874 13.3174 48.0977 12.3184 45.2856 11.9735C44.5456 11.8827 42.9375 11.9083 42.8333 12.0125C42.7972 12.0485 35.0706 38.8655 34.8469 39.7309C34.8059 39.8897 34.8482 39.8963 35.9832 39.9083C37.5741 39.9252 39.1509 40.2518 40.5785 40.8602C41.4819 41.2451 42.7576 42.3261 43.1078 43.0035C43.1793 43.1417 43.2675 43.2228 43.3037 43.1835C43.34 43.1443 45.0904 37.1186 47.1935 29.7931ZM10.1365 38.3864C10.3352 38.1877 10.8479 36.3844 10.7729 36.1481C10.6642 35.8059 10.147 35.7636 9.97606 36.083C9.84911 36.3202 9.41059 37.8813 9.41059 38.096C9.41059 38.4876 9.85685 38.6661 10.1365 38.3864ZM33.6816 34.9682C33.8602 34.8352 38.5469 18.5354 38.4828 18.2701C38.4584 18.1694 38.3704 18.0505 38.2871 18.0059C38.0688 17.8891 17.3606 11.9793 17.1695 11.9793C17.0816 11.9793 16.9576 12.0314 16.8939 12.0951C16.8303 12.1588 16.5648 12.9589 16.3039 13.8731C15.8865 15.3361 15.8431 15.5555 15.9416 15.7039C16.0236 15.8273 16.4069 15.9729 17.3711 16.2466C18.0957 16.4524 18.6975 16.6275 18.7083 16.6358C18.7191 16.644 18.5985 17.1005 18.4402 17.6501C18.041 19.0367 18.0646 19.3193 18.5795 19.3193C18.8898 19.3193 18.993 19.1321 19.3077 17.9997C19.4526 17.4781 19.6005 17.0201 19.6362 16.9821C19.6992 16.915 21.5129 17.3812 21.6364 17.4961C21.67 17.5275 21.4567 18.3946 21.1621 19.4231C20.8676 20.4515 20.6267 21.4064 20.6267 21.5449C20.6267 21.8674 20.9271 22.0358 21.2443 21.8913C21.3998 21.8204 21.4831 21.6768 21.5886 21.2975C21.6755 20.9847 21.7645 20.8113 21.8258 20.8348C21.8798 20.8556 22.349 20.9914 22.8684 21.1368L23.8129 21.4012L23.4267 22.7646C23.2142 23.5144 23.0586 24.1976 23.0809 24.2828C23.1366 24.4957 23.2193 24.5302 24.6265 24.9272C25.3069 25.1191 25.8755 25.2869 25.8901 25.3C25.9046 25.3131 25.8397 25.5819 25.7457 25.8973C25.6518 26.2127 25.575 26.5662 25.575 26.6828C25.575 27.1264 26.1204 27.3276 26.3491 26.9685C26.4141 26.8664 26.5318 26.5417 26.6106 26.2468C26.6895 25.952 26.7816 25.6796 26.8152 25.6416C26.8761 25.5725 28.6909 26.0431 28.8163 26.1605C28.8527 26.1946 28.7109 26.8215 28.5013 27.5536C28.2916 28.2858 28.1419 28.9536 28.1686 29.0378C28.2332 29.2412 28.4147 29.3161 29.7116 29.6741C30.3168 29.8412 30.8535 30.0012 30.9044 30.0298C30.9687 30.0659 30.9112 30.3794 30.7152 31.0597C30.4525 31.9713 30.4422 32.051 30.5627 32.2349C30.7174 32.4709 31.0382 32.4951 31.2449 32.2863C31.3242 32.2061 31.4969 31.7422 31.6285 31.2554C31.7891 30.6618 31.9062 30.3704 31.9842 30.3704C32.0792 30.3704 33.8962 30.8624 33.9664 30.9071C33.9778 30.9143 33.7458 31.7519 33.451 32.7683C33.1561 33.7847 32.9149 34.6445 32.9149 34.6789C32.9149 34.7997 33.2464 35.0713 33.394 35.0713C33.476 35.0713 33.6055 35.0249 33.6816 34.9682ZM33.2035 29.7268C32.6592 29.5712 32.2032 29.4345 32.1902 29.423C32.1771 29.4114 32.303 28.9211 32.4699 28.3332L32.7734 27.2644L33.7719 27.5492C34.3211 27.7059 34.7862 27.8482 34.8053 27.8656C34.8434 27.9002 34.3325 29.7805 34.2465 29.922C34.2111 29.9803 33.8615 29.9148 33.2035 29.7268ZM30.2095 28.8483C29.6968 28.6978 29.2588 28.5562 29.2363 28.5336C29.197 28.4944 29.7421 26.5057 29.811 26.4368C29.8537 26.394 31.6957 26.9131 31.7892 26.9942C31.8277 27.0277 31.7974 27.2722 31.7218 27.5375C31.3557 28.8229 31.254 29.1329 31.2001 29.1277C31.168 29.1246 30.7222 28.9989 30.2095 28.8483ZM34.1107 26.6767C33.5664 26.5204 33.1057 26.3783 33.0869 26.3611C33.053 26.3299 33.1871 25.8039 33.4969 24.7524L33.6578 24.2065L34.6677 24.4945C35.2232 24.653 35.6887 24.7922 35.7022 24.8039C35.7229 24.8218 35.1418 26.9351 35.1109 26.9544C35.1051 26.9581 34.655 26.8331 34.1107 26.6767ZM31.4717 25.915C31.1995 25.8316 30.7684 25.704 30.5137 25.6314L30.0505 25.4993L30.3561 24.4505C30.5243 23.8736 30.6956 23.4053 30.7368 23.4099C31.1096 23.4514 32.7513 23.9823 32.7271 24.0535C32.7101 24.1032 32.5714 24.5799 32.4188 25.1129C32.2662 25.6458 32.102 26.0784 32.0539 26.0742C32.0058 26.0699 31.7438 25.9983 31.4717 25.915ZM28.0781 24.9535L27.0762 24.6619L27.2346 24.1142C27.3217 23.813 27.4556 23.3346 27.5321 23.0511C27.6086 22.7676 27.7099 22.5366 27.7571 22.5379C27.9781 22.5436 29.7387 23.1041 29.7306 23.1662C29.7019 23.3877 29.156 25.2562 29.1214 25.2511C29.0986 25.2478 28.6291 25.1139 28.0781 24.9535ZM24.9977 24.0802C24.5214 23.9411 24.1231 23.8219 24.1126 23.8153C24.1022 23.8087 24.2281 23.3325 24.3924 22.7571C24.5995 22.032 24.7282 21.7109 24.8115 21.7109C24.9293 21.7109 26.6389 22.1919 26.7391 22.2532C26.7671 22.2703 26.658 22.7491 26.4967 23.3172C26.1554 24.519 26.2811 24.455 24.9977 24.0802ZM34.8117 23.5854C34.3355 23.4463 33.9372 23.3271 33.9267 23.3205C33.9163 23.3139 34.0421 22.8377 34.2065 22.2623C34.4136 21.5372 34.5423 21.2161 34.6256 21.2161C34.7434 21.2161 36.453 21.6971 36.5532 21.7584C36.5812 21.7755 36.472 22.2543 36.3107 22.8223C35.9695 24.0241 36.0952 23.9601 34.8117 23.5854ZM31.9019 22.7466C31.4128 22.5973 30.9954 22.458 30.9743 22.4369C30.9448 22.4074 31.4887 20.4054 31.5455 20.3344C31.5668 20.3077 33.5137 20.8802 33.5603 20.9268C33.5843 20.9508 33.4761 21.4244 33.3198 21.979C33.1288 22.657 32.9956 22.9925 32.9134 23.0028C32.8462 23.0111 32.391 22.8959 31.9019 22.7466ZM28.9657 21.9112C28.4493 21.7585 28.0113 21.6181 27.9925 21.5993C27.9553 21.5622 28.5146 19.5685 28.5806 19.5025C28.6514 19.4317 30.6057 20.0163 30.6057 20.1082C30.6057 20.1924 30.5564 20.3725 30.1839 21.6491C30.0945 21.9552 29.9952 22.202 29.9631 22.1973C29.931 22.1927 29.4822 22.064 28.9657 21.9112ZM26.0079 21.0612C25.4523 20.9032 24.9977 20.7386 24.9977 20.6955C24.9977 20.6524 25.1309 20.1639 25.2938 19.6099L25.59 18.6025L26.5927 18.8886C27.1443 19.0459 27.6102 19.1878 27.6282 19.204C27.6628 19.2352 27.1507 21.1132 27.0671 21.2617C27.0352 21.3184 26.6677 21.2489 26.0079 21.0612ZM35.8426 20.5725C35.2983 20.4169 34.8379 20.2757 34.8194 20.2588C34.801 20.2419 34.8685 19.9401 34.9696 19.5881C35.0707 19.2361 35.2075 18.7584 35.2738 18.5265L35.3941 18.1049L36.4019 18.3923C36.9561 18.5504 37.4243 18.693 37.4423 18.7092C37.4768 18.7402 36.9652 20.6171 36.8812 20.7677C36.849 20.8255 36.4947 20.7589 35.8426 20.5725ZM22.9359 20.2041C22.4596 20.065 22.0546 19.939 22.0359 19.9242C21.9978 19.894 22.5164 17.9797 22.5987 17.8466C22.6322 17.7923 23.0021 17.8631 23.6303 18.0442C24.1689 18.1994 24.6249 18.3417 24.6437 18.3605C24.6715 18.3883 24.5138 18.9829 24.1214 20.3295C24.0669 20.5165 23.9709 20.5063 22.9359 20.2041ZM32.75 19.7092C32.2737 19.5702 31.8687 19.4442 31.85 19.4294C31.8119 19.3992 32.3305 17.4849 32.4127 17.3518C32.4463 17.2975 32.8161 17.3683 33.4444 17.5494C33.983 17.7046 34.439 17.8469 34.4578 17.8656C34.4856 17.8935 34.3279 18.4881 33.9355 19.8347C33.881 20.0216 33.785 20.0115 32.75 19.7092ZM29.8729 18.8598C29.3564 18.7071 28.9143 18.5626 28.8904 18.5386C28.8224 18.4706 29.3895 16.5019 29.4875 16.4658C29.5708 16.435 31.398 16.9502 31.4735 17.0257C31.5239 17.076 30.9238 19.1563 30.862 19.1459C30.8344 19.1412 30.3893 19.0125 29.8729 18.8598ZM26.7502 17.9794C26.2852 17.8415 25.9039 17.6876 25.9027 17.6374C25.8963 17.3588 26.4538 15.608 26.549 15.608C26.636 15.608 28.4514 16.1005 28.5217 16.1432C28.5322 16.1495 28.4063 16.6255 28.242 17.2009C27.8942 18.4184 28.0158 18.3549 26.7502 17.9794ZM23.8018 17.1344C23.3029 16.9854 22.8984 16.8316 22.903 16.7925C22.9118 16.7172 23.4497 14.7555 23.4704 14.723C23.4771 14.7126 23.9551 14.839 24.5327 15.0039C25.2313 15.2035 25.5699 15.3372 25.5445 15.4036C25.5234 15.4584 25.3854 15.9351 25.2376 16.4629C25.0363 17.182 24.9365 17.4203 24.839 17.4138C24.7675 17.4091 24.3008 17.2833 23.8018 17.1344ZM20.9153 16.293C20.371 16.1354 19.9187 15.9996 19.9102 15.9911C19.8899 15.9709 20.4733 13.9271 20.5115 13.8847C20.5369 13.8564 22.392 14.3512 22.5339 14.4241C22.5896 14.4526 22.0451 16.4392 21.9577 16.5267C21.9287 16.5558 21.4596 16.4506 20.9153 16.293ZM17.9464 15.4616C17.4021 15.3047 16.9452 15.1661 16.9311 15.1536C16.9103 15.135 17.0921 14.4644 17.4618 13.1958C17.5184 13.0015 17.6074 13.0102 18.6526 13.3113C19.2515 13.4839 19.5546 13.6104 19.5546 13.6877C19.5546 13.8431 19.0462 15.6359 18.9845 15.6981C18.9578 15.7249 18.4907 15.6185 17.9464 15.4616Z" fill="white"/>
</svg>
