<svg xmlns="http://www.w3.org/2000/svg" xmlns:xlink="http://www.w3.org/1999/xlink" viewBox="0 0 664 369" width="664" height="369"><path d="M 187.233,194.500 C 190.733,194.500 190.733,194.500 194.233,194.500" stroke-width="5.421" stroke="black" fill="none" stroke-linecap="round"></path><path d="M 194.233,194.500 C 204.777,193.637 204.733,194.500 215.233,194.500" stroke-width="2.914" stroke="black" fill="none" stroke-linecap="round"></path><path d="M 215.233,194.500 C 259.307,198.418 259.277,198.137 303.233,203.500" stroke-width="1.125" stroke="black" fill="none" stroke-linecap="round"></path><path d="M 303.233,203.500 C 319.649,206.717 319.807,205.418 336.233,208.500" stroke-width="1.518" stroke="black" fill="none" stroke-linecap="round"></path><path d="M 336.233,208.500 C 366.197,211.589 366.149,211.717 396.233,213.500" stroke-width="1.311" stroke="black" fill="none" stroke-linecap="round"></path><path d="M 396.233,213.500 C 421.244,215.103 421.197,215.089 446.233,215.500" stroke-width="1.347" stroke="black" fill="none" stroke-linecap="round"></path><path d="M 446.233,215.500 C 452.767,215.276 452.744,215.603 459.233,214.500" stroke-width="2.259" stroke="black" fill="none" stroke-linecap="round"></path><path d="M 459.233,214.500 C 465.682,214.672 465.267,213.776 471.233,212.500" stroke-width="2.792" stroke="black" fill="none" stroke-linecap="round"></path><path d="M 471.233,212.500 C 477.733,210.000 477.182,210.172 482.233,205.500" stroke-width="3.055" stroke="black" fill="none" stroke-linecap="round"></path><path d="M 482.233,205.500 C 485.692,199.973 486.733,201.000 489.233,194.500" stroke-width="3.144" stroke="black" fill="none" stroke-linecap="round"></path><path d="M 489.233,194.500 C 491.708,191.740 491.192,191.473 493.233,188.500" stroke-width="3.668" stroke="black" fill="none" stroke-linecap="round"></path><path d="M 493.233,188.500 C 494.758,182.760 495.708,183.240 497.233,177.500" stroke-width="3.426" stroke="black" fill="none" stroke-linecap="round"></path><path d="M 497.233,177.500 C 499.420,174.608 498.758,174.260 501.233,171.500" stroke-width="3.730" stroke="black" fill="none" stroke-linecap="round"></path><path d="M 501.233,171.500 C 502.644,168.452 502.920,168.608 504.233,165.500" stroke-width="3.890" stroke="black" fill="none" stroke-linecap="round"></path><path d="M 504.233,165.500 C 506.435,162.097 506.144,161.952 508.233,158.500" stroke-width="3.784" stroke="black" fill="none" stroke-linecap="round"></path><path d="M 508.233,158.500 C 511.088,155.424 509.435,156.097 510.233,153.500" stroke-width="4.600" stroke="black" fill="none" stroke-linecap="round"></path><path d="M 510.233,153.500 C 507.682,150.336 509.088,150.924 504.233,149.500" stroke-width="4.069" stroke="black" fill="none" stroke-linecap="round"></path><path d="M 504.233,149.500 C 490.778,146.445 491.182,146.336 477.233,145.500" stroke-width="2.513" stroke="black" fill="none" stroke-linecap="round"></path><path d="M 477.233,145.500 C 469.221,145.861 469.278,144.945 461.233,146.500" stroke-width="2.769" stroke="black" fill="none" stroke-linecap="round"></path><path d="M 461.233,146.500 C 456.607,146.471 456.721,146.861 452.233,147.500" stroke-width="3.298" stroke="black" fill="none" stroke-linecap="round"></path><path d="M 452.233,147.500 C 448.029,148.602 448.107,148.471 444.233,150.500" stroke-width="3.598" stroke="black" fill="none" stroke-linecap="round"></path><path d="M 444.233,150.500 C 440.867,152.086 441.029,152.102 438.233,154.500" stroke-width="3.837" stroke="black" fill="none" stroke-linecap="round"></path><path d="M 438.233,154.500 C 434.345,157.541 434.867,157.586 432.233,161.500" stroke-width="3.645" stroke="black" fill="none" stroke-linecap="round"></path><path d="M 432.233,161.500 C 430.233,165.517 430.345,165.041 430.233,169.500" stroke-width="3.791" stroke="black" fill="none" stroke-linecap="round"></path><path d="M 430.233,169.500 C 430.548,173.340 430.233,173.017 432.233,176.500" stroke-width="3.843" stroke="black" fill="none" stroke-linecap="round"></path><path d="M 432.233,176.500 C 435.112,180.598 434.548,180.840 438.233,184.500" stroke-width="3.627" stroke="black" fill="none" stroke-linecap="round"></path><path d="M 438.233,184.500 C 441.515,187.793 441.112,188.098 444.233,191.500" stroke-width="3.586" stroke="black" fill="none" stroke-linecap="round"></path><path d="M 444.233,191.500 C 446.807,195.456 447.015,195.293 449.233,199.500" stroke-width="3.608" stroke="black" fill="none" stroke-linecap="round"></path><path d="M 449.233,199.500 C 450.725,203.435 451.307,202.956 453.233,206.500" stroke-width="4.218" stroke="black" fill="none" stroke-linecap="round"></path></svg>