<svg xmlns="http://www.w3.org/2000/svg" xmlns:xlink="http://www.w3.org/1999/xlink" viewBox="0 0 354 117" width="354" height="117"><path d="M 146.578,19.000 C 141.078,19.000 141.078,19.000 135.578,19.000" stroke-width="3.426" stroke="black" fill="none" stroke-linecap="round"></path><path d="M 135.578,19.000 C 132.009,18.510 132.078,19.000 128.578,19.000" stroke-width="3.840" stroke="black" fill="none" stroke-linecap="round"></path><path d="M 128.578,19.000 C 125.052,19.915 125.009,19.510 121.578,21.000" stroke-width="3.858" stroke="black" fill="none" stroke-linecap="round"></path><path d="M 121.578,21.000 C 116.894,22.082 117.052,22.415 112.578,24.000" stroke-width="3.623" stroke="black" fill="none" stroke-linecap="round"></path><path d="M 112.578,24.000 C 108.078,26.500 107.894,26.082 103.578,29.000" stroke-width="3.480" stroke="black" fill="none" stroke-linecap="round"></path><path d="M 103.578,29.000 C 98.760,31.048 99.078,31.500 94.578,34.000" stroke-width="3.440" stroke="black" fill="none" stroke-linecap="round"></path><path d="M 94.578,34.000 C 90.153,37.127 90.260,37.048 86.578,41.000" stroke-width="3.455" stroke="black" fill="none" stroke-linecap="round"></path><path d="M 86.578,41.000 C 84.103,43.760 84.153,43.627 82.578,47.000" stroke-width="3.787" stroke="black" fill="none" stroke-linecap="round"></path><path d="M 82.578,47.000 C 79.709,52.347 80.103,52.260 78.578,58.000" stroke-width="3.456" stroke="black" fill="none" stroke-linecap="round"></path><path d="M 78.578,58.000 C 78.084,62.554 77.709,62.347 78.578,67.000" stroke-width="3.556" stroke="black" fill="none" stroke-linecap="round"></path><path d="M 78.578,67.000 C 78.333,72.183 79.084,71.554 80.578,76.000" stroke-width="3.619" stroke="black" fill="none" stroke-linecap="round"></path><path d="M 80.578,76.000 C 84.233,80.421 83.333,80.683 88.578,84.000" stroke-width="3.502" stroke="black" fill="none" stroke-linecap="round"></path><path d="M 88.578,84.000 C 92.629,88.063 92.733,87.421 97.578,90.000" stroke-width="3.399" stroke="black" fill="none" stroke-linecap="round"></path><path d="M 97.578,90.000 C 104.535,91.742 104.129,92.563 111.578,93.000" stroke-width="3.086" stroke="black" fill="none" stroke-linecap="round"></path><path d="M 111.578,93.000 C 118.540,94.531 118.535,94.242 125.578,95.000" stroke-width="3.075" stroke="black" fill="none" stroke-linecap="round"></path><path d="M 125.578,95.000 C 133.578,95.000 133.540,95.531 141.578,95.000" stroke-width="2.886" stroke="black" fill="none" stroke-linecap="round"></path><path d="M 141.578,95.000 C 149.304,96.488 149.078,95.000 156.578,95.000" stroke-width="2.957" stroke="black" fill="none" stroke-linecap="round"></path><path d="M 156.578,95.000 C 171.973,92.086 171.304,91.988 185.578,86.000" stroke-width="3.022" stroke="black" fill="none" stroke-linecap="round"></path><path d="M 185.578,86.000 C 190.903,82.656 190.973,83.586 194.578,78.000" stroke-width="3.151" stroke="black" fill="none" stroke-linecap="round"></path><path d="M 194.578,78.000 C 198.793,72.864 198.403,73.156 200.578,67.000" stroke-width="3.212" stroke="black" fill="none" stroke-linecap="round"></path><path d="M 200.578,67.000 C 201.317,61.010 202.293,61.364 201.578,55.000" stroke-width="3.210" stroke="black" fill="none" stroke-linecap="round"></path><path d="M 201.578,55.000 C 202.769,49.242 201.817,49.510 201.578,44.000" stroke-width="3.295" stroke="black" fill="none" stroke-linecap="round"></path><path d="M 201.578,44.000 C 200.973,36.788 200.269,38.242 196.578,33.000" stroke-width="3.231" stroke="black" fill="none" stroke-linecap="round"></path><path d="M 196.578,33.000 C 185.242,23.546 186.473,24.288 172.578,19.000" stroke-width="3.164" stroke="black" fill="none" stroke-linecap="round"></path><path d="M 172.578,19.000 C 165.078,19.000 165.742,16.546 157.578,19.000" stroke-width="3.039" stroke="black" fill="none" stroke-linecap="round"></path><path d="M 157.578,19.000 C 149.565,18.704 149.578,19.000 141.578,19.000" stroke-width="2.877" stroke="black" fill="none" stroke-linecap="round"></path><path d="M 141.578,19.000 C 135.885,18.673 136.065,19.204 130.578,20.000" stroke-width="3.230" stroke="black" fill="none" stroke-linecap="round"></path><path d="M 110.578,41.000 C 108.578,43.432 109.578,43.500 108.578,46.000" stroke-width="5.141" stroke="black" fill="none" stroke-linecap="round"></path><path d="M 108.578,46.000 C 109.368,50.068 108.578,49.932 110.578,54.000" stroke-width="4.675" stroke="black" fill="none" stroke-linecap="round"></path><path d="M 110.578,54.000 C 111.296,56.649 111.368,56.568 112.578,59.000" stroke-width="4.338" stroke="black" fill="none" stroke-linecap="round"></path><path d="M 112.578,59.000 C 114.483,62.067 114.296,62.149 116.578,65.000" stroke-width="4.005" stroke="black" fill="none" stroke-linecap="round"></path><path d="M 116.578,65.000 C 118.803,70.034 119.483,69.067 122.578,73.000" stroke-width="4.218" stroke="black" fill="none" stroke-linecap="round"></path><path d="M 122.578,73.000 C 126.466,75.119 125.803,75.534 130.578,76.000" stroke-width="4.371" stroke="black" fill="none" stroke-linecap="round"></path><path d="M 130.578,76.000 C 133.638,76.490 133.466,76.619 136.578,76.000" stroke-width="4.263" stroke="black" fill="none" stroke-linecap="round"></path><path d="M 136.578,76.000 C 143.061,75.452 142.638,74.990 148.578,73.000" stroke-width="4.141" stroke="black" fill="none" stroke-linecap="round"></path><path d="M 148.578,73.000 C 151.429,70.290 152.061,71.452 154.578,68.000" stroke-width="3.936" stroke="black" fill="none" stroke-linecap="round"></path><path d="M 154.578,68.000 C 157.294,66.777 156.929,66.290 159.578,65.000" stroke-width="4.109" stroke="black" fill="none" stroke-linecap="round"></path><path d="M 159.578,65.000 C 162.086,63.344 161.794,63.277 163.578,61.000" stroke-width="4.187" stroke="black" fill="none" stroke-linecap="round"></path><circle r="1.5" cx="130.578125" cy="33" fill="black"></circle><circle r="1.5" cx="161.578125" cy="37" fill="black"></circle><path d="M 249.578,47.000 C 248.146,49.625 249.078,49.500 248.578,52.000" stroke-width="5.288" stroke="black" fill="none" stroke-linecap="round"></path><path d="M 248.578,52.000 C 249.218,56.164 249.146,55.125 251.578,58.000" stroke-width="5.045" stroke="black" fill="none" stroke-linecap="round"></path><path d="M 251.578,58.000 C 254.556,58.768 253.718,59.664 257.578,59.000" stroke-width="5.046" stroke="black" fill="none" stroke-linecap="round"></path><path d="M 257.578,59.000 C 261.285,59.878 261.056,59.268 264.578,59.000" stroke-width="4.755" stroke="black" fill="none" stroke-linecap="round"></path><path d="M 264.578,59.000 C 268.578,57.000 268.785,57.878 272.578,55.000" stroke-width="4.520" stroke="black" fill="none" stroke-linecap="round"></path><path d="M 272.578,55.000 C 275.636,52.000 275.578,53.500 278.578,52.000" stroke-width="4.610" stroke="black" fill="none" stroke-linecap="round"></path><path d="M 278.578,52.000 C 281.318,53.192 281.136,52.000 283.578,55.000" stroke-width="5.130" stroke="black" fill="none" stroke-linecap="round"></path><path d="M 283.578,55.000 C 286.191,57.396 286.318,57.192 288.578,60.000" stroke-width="4.752" stroke="black" fill="none" stroke-linecap="round"></path><path d="M 288.578,60.000 C 291.822,63.325 291.691,63.396 294.578,67.000" stroke-width="4.518" stroke="black" fill="none" stroke-linecap="round"></path><path d="M 294.578,67.000 C 296.050,69.517 296.322,69.325 297.578,72.000" stroke-width="4.282" stroke="black" fill="none" stroke-linecap="round"></path><path d="M 297.578,72.000 C 300.754,75.744 300.050,76.017 302.578,80.000" stroke-width="4.325" stroke="black" fill="none" stroke-linecap="round"></path><path d="M 302.578,80.000 C 304.355,83.409 303.754,82.744 303.578,86.000" stroke-width="4.799" stroke="black" fill="none" stroke-linecap="round"></path><path d="M 303.578,86.000 C 301.983,89.563 302.855,88.409 299.578,90.000" stroke-width="5.299" stroke="black" fill="none" stroke-linecap="round"></path><path d="M 299.578,90.000 C 295.961,89.301 296.483,90.563 292.578,88.000" stroke-width="5.021" stroke="black" fill="none" stroke-linecap="round"></path><path d="M 292.578,88.000 C 289.629,86.387 289.461,86.801 286.578,85.000" stroke-width="4.773" stroke="black" fill="none" stroke-linecap="round"></path><path d="M 286.578,85.000 C 284.129,83.850 284.129,83.887 281.578,83.000" stroke-width="4.976" stroke="black" fill="none" stroke-linecap="round"></path><path d="M 281.578,83.000 C 278.078,82.000 278.129,81.850 274.578,81.000" stroke-width="4.938" stroke="black" fill="none" stroke-linecap="round"></path><path d="M 274.578,81.000 C 271.119,79.817 271.078,80.000 267.578,79.000" stroke-width="4.919" stroke="black" fill="none" stroke-linecap="round"></path><path d="M 267.578,79.000 C 264.602,78.216 264.619,78.317 261.578,78.000" stroke-width="4.815" stroke="black" fill="none" stroke-linecap="round"></path><path d="M 261.578,78.000 C 257.578,78.000 257.602,77.716 253.578,78.000" stroke-width="4.819" stroke="black" fill="none" stroke-linecap="round"></path><path d="M 253.578,78.000 C 249.185,79.607 250.578,78.000 247.578,78.000" stroke-width="4.960" stroke="black" fill="none" stroke-linecap="round"></path><path d="M 247.578,78.000 C 246.829,74.518 245.685,76.107 246.578,71.000" stroke-width="5.283" stroke="black" fill="none" stroke-linecap="round"></path><path d="M 291.578,70.000 C 288.833,67.356 288.578,68.000 285.578,66.000" stroke-width="5.463" stroke="black" fill="none" stroke-linecap="round"></path><path d="M 285.578,66.000 C 282.169,64.223 282.833,64.856 279.578,65.000" stroke-width="5.282" stroke="black" fill="none" stroke-linecap="round"></path><path d="M 279.578,65.000 C 277.883,67.463 277.169,65.723 275.578,69.000" stroke-width="5.343" stroke="black" fill="none" stroke-linecap="round"></path><path d="M 275.578,69.000 C 272.979,71.240 273.383,70.463 270.578,71.000" stroke-width="5.417" stroke="black" fill="none" stroke-linecap="round"></path><path d="M 270.578,71.000 C 267.590,67.329 267.979,70.740 265.578,68.000" stroke-width="5.349" stroke="black" fill="none" stroke-linecap="round"></path><path d="M 292.578,10.000 C 288.499,8.254 289.578,10.000 286.578,10.000" stroke-width="5.369" stroke="black" fill="none" stroke-linecap="round"></path><path d="M 286.578,10.000 C 283.638,14.849 282.999,13.254 281.578,20.000" stroke-width="4.468" stroke="black" fill="none" stroke-linecap="round"></path><path d="M 281.578,20.000 C 280.966,22.482 280.638,22.349 280.578,25.000" stroke-width="4.408" stroke="black" fill="none" stroke-linecap="round"></path><path d="M 280.578,25.000 C 279.578,29.018 279.966,28.982 279.578,33.000" stroke-width="4.467" stroke="black" fill="none" stroke-linecap="round"></path><path d="M 279.578,33.000 C 278.859,36.663 279.578,35.518 280.578,38.000" stroke-width="4.756" stroke="black" fill="none" stroke-linecap="round"></path><path d="M 280.578,38.000 C 284.606,40.221 283.359,40.163 288.578,40.000" stroke-width="4.554" stroke="black" fill="none" stroke-linecap="round"></path><path d="M 288.578,40.000 C 294.038,39.270 293.606,39.721 298.578,37.000" stroke-width="4.417" stroke="black" fill="none" stroke-linecap="round"></path><path d="M 298.578,37.000 C 300.855,35.216 301.038,35.770 302.578,33.000" stroke-width="4.278" stroke="black" fill="none" stroke-linecap="round"></path><path d="M 302.578,33.000 C 304.511,30.667 304.355,30.716 305.578,28.000" stroke-width="4.215" stroke="black" fill="none" stroke-linecap="round"></path><path d="M 305.578,28.000 C 306.348,25.527 306.511,25.667 306.578,23.000" stroke-width="4.366" stroke="black" fill="none" stroke-linecap="round"></path><path d="M 306.578,23.000 C 307.486,19.725 306.848,20.027 306.578,17.000" stroke-width="4.170" stroke="black" fill="none" stroke-linecap="round"></path><path d="M 306.578,17.000 C 305.411,12.652 305.486,13.725 302.578,11.000" stroke-width="4.473" stroke="black" fill="none" stroke-linecap="round"></path><path d="M 302.578,11.000 C 298.533,9.753 299.411,9.152 294.578,10.000" stroke-width="4.487" stroke="black" fill="none" stroke-linecap="round"></path><path d="M 258.578,9.000 C 255.328,11.250 255.578,11.500 252.578,14.000" stroke-width="5.303" stroke="black" fill="none" stroke-linecap="round"></path><path d="M 252.578,14.000 C 248.992,16.607 249.828,16.750 247.578,20.000" stroke-width="4.731" stroke="black" fill="none" stroke-linecap="round"></path><path d="M 247.578,20.000 C 247.578,23.000 246.492,22.607 247.578,26.000" stroke-width="4.751" stroke="black" fill="none" stroke-linecap="round"></path><path d="M 247.578,26.000 C 246.467,30.390 247.578,30.000 247.578,34.000" stroke-width="4.837" stroke="black" fill="none" stroke-linecap="round"></path><path d="M 247.578,34.000 C 249.014,37.462 248.467,36.890 251.578,39.000" stroke-width="4.174" stroke="black" fill="none" stroke-linecap="round"></path><path d="M 251.578,39.000 C 254.886,40.828 254.014,40.462 257.578,40.000" stroke-width="4.561" stroke="black" fill="none" stroke-linecap="round"></path><path d="M 257.578,40.000 C 261.598,37.980 261.386,38.828 264.578,35.000" stroke-width="4.529" stroke="black" fill="none" stroke-linecap="round"></path><path d="M 264.578,35.000 C 266.278,32.599 266.598,32.980 267.578,30.000" stroke-width="4.237" stroke="black" fill="none" stroke-linecap="round"></path><path d="M 267.578,30.000 C 268.930,27.594 268.778,27.599 269.578,25.000" stroke-width="4.301" stroke="black" fill="none" stroke-linecap="round"></path><path d="M 269.578,25.000 C 271.816,20.723 270.430,21.594 270.578,18.000" stroke-width="4.559" stroke="black" fill="none" stroke-linecap="round"></path><path d="M 270.578,18.000 C 267.914,14.890 269.316,15.223 264.578,14.000" stroke-width="4.786" stroke="black" fill="none" stroke-linecap="round"></path><path d="M 264.578,14.000 C 259.283,12.271 260.414,12.890 255.578,14.000" stroke-width="4.502" stroke="black" fill="none" stroke-linecap="round"></path><path d="M 286.578,28.000 C 286.326,33.561 286.078,30.500 285.578,33.000" stroke-width="5.484" stroke="black" fill="none" stroke-linecap="round"></path><path d="M 285.578,33.000 C 282.277,28.610 284.326,32.061 282.578,25.000" stroke-width="5.306" stroke="black" fill="none" stroke-linecap="round"></path><path d="M 282.578,25.000 C 285.263,20.737 282.777,22.610 286.578,21.000" stroke-width="5.226" stroke="black" fill="none" stroke-linecap="round"></path><path d="M 286.578,21.000 C 288.289,23.867 287.763,21.237 287.578,26.000" stroke-width="5.215" stroke="black" fill="none" stroke-linecap="round"></path><path d="M 253.578,25.000 C 250.367,26.633 251.578,27.000 249.578,29.000" stroke-width="5.457" stroke="black" fill="none" stroke-linecap="round"></path><path d="M 247.578,56.000 C 247.578,59.000 247.578,59.000 247.578,62.000" stroke-width="5.462" stroke="black" fill="none" stroke-linecap="round"></path><path d="M 247.578,62.000 C 248.143,65.609 247.578,65.500 247.578,69.000" stroke-width="5.158" stroke="black" fill="none" stroke-linecap="round"></path></svg>