<svg xmlns="http://www.w3.org/2000/svg" xmlns:xlink="http://www.w3.org/1999/xlink" viewBox="0 0 354 117" width="354" height="117"><path d="M 88.578,61.000 C 85.078,61.000 85.078,61.000 81.578,61.000" stroke-width="5.149" stroke="black" fill="none" stroke-linecap="round"></path><path d="M 81.578,61.000 C 76.067,61.249 76.078,61.000 70.578,61.000" stroke-width="4.485" stroke="black" fill="none" stroke-linecap="round"></path><path d="M 70.578,61.000 C 64.781,61.445 65.067,60.749 59.578,60.000" stroke-width="4.315" stroke="black" fill="none" stroke-linecap="round"></path><path d="M 59.578,60.000 C 56.175,57.799 55.781,58.945 52.578,56.000" stroke-width="4.457" stroke="black" fill="none" stroke-linecap="round"></path><path d="M 52.578,56.000 C 47.355,55.113 50.175,54.799 47.578,54.000" stroke-width="4.701" stroke="black" fill="none" stroke-linecap="round"></path><path d="M 47.578,54.000 C 50.527,52.387 47.855,52.613 53.578,51.000" stroke-width="5.110" stroke="black" fill="none" stroke-linecap="round"></path><path d="M 53.578,51.000 C 56.175,50.201 56.027,49.887 58.578,49.000" stroke-width="4.537" stroke="black" fill="none" stroke-linecap="round"></path><path d="M 58.578,49.000 C 62.313,47.333 62.175,47.201 65.578,45.000" stroke-width="4.007" stroke="black" fill="none" stroke-linecap="round"></path><path d="M 65.578,45.000 C 68.897,41.761 69.313,42.333 72.578,39.000" stroke-width="3.690" stroke="black" fill="none" stroke-linecap="round"></path><path d="M 72.578,39.000 C 77.078,36.000 76.897,35.761 81.578,33.000" stroke-width="3.450" stroke="black" fill="none" stroke-linecap="round"></path><path d="M 81.578,33.000 C 86.223,30.194 86.078,30.000 90.578,27.000" stroke-width="3.441" stroke="black" fill="none" stroke-linecap="round"></path><path d="M 90.578,27.000 C 93.429,24.290 93.723,24.694 96.578,22.000" stroke-width="3.720" stroke="black" fill="none" stroke-linecap="round"></path><path d="M 96.578,22.000 C 99.078,20.500 98.929,20.290 101.578,19.000" stroke-width="4.036" stroke="black" fill="none" stroke-linecap="round"></path><path d="M 101.578,19.000 C 106.578,14.915 104.078,17.500 106.578,16.000" stroke-width="4.096" stroke="black" fill="none" stroke-linecap="round"></path><path d="M 106.578,16.000 C 104.675,20.950 106.578,17.915 101.578,25.000" stroke-width="4.754" stroke="black" fill="none" stroke-linecap="round"></path><path d="M 101.578,25.000 C 97.461,28.889 98.175,29.450 93.578,33.000" stroke-width="3.629" stroke="black" fill="none" stroke-linecap="round"></path><path d="M 93.578,33.000 C 89.328,38.250 88.961,37.889 84.578,43.000" stroke-width="3.272" stroke="black" fill="none" stroke-linecap="round"></path><path d="M 84.578,43.000 C 79.566,47.487 79.828,47.750 74.578,52.000" stroke-width="3.179" stroke="black" fill="none" stroke-linecap="round"></path><path d="M 74.578,52.000 C 68.953,56.869 69.066,56.987 63.578,62.000" stroke-width="3.258" stroke="black" fill="none" stroke-linecap="round"></path><path d="M 63.578,62.000 C 58.203,67.631 57.953,67.369 52.578,73.000" stroke-width="3.027" stroke="black" fill="none" stroke-linecap="round"></path><path d="M 52.578,73.000 C 47.238,78.189 47.203,78.131 41.578,83.000" stroke-width="3.009" stroke="black" fill="none" stroke-linecap="round"></path><path d="M 41.578,83.000 C 37.078,86.500 37.238,86.689 32.578,90.000" stroke-width="3.197" stroke="black" fill="none" stroke-linecap="round"></path><path d="M 32.578,90.000 C 28.374,94.002 28.078,93.500 23.578,97.000" stroke-width="3.314" stroke="black" fill="none" stroke-linecap="round"></path><path d="M 23.578,97.000 C 20.093,98.536 20.374,99.002 16.578,100.000" stroke-width="3.694" stroke="black" fill="none" stroke-linecap="round"></path><path d="M 16.578,100.000 C 14.161,101.296 14.093,101.036 11.578,102.000" stroke-width="4.040" stroke="black" fill="none" stroke-linecap="round"></path><path d="M 11.578,102.000 C 8.599,102.748 8.661,102.796 5.578,103.000" stroke-width="4.153" stroke="black" fill="none" stroke-linecap="round"></path><path d="M 5.578,103.000 C 0.930,104.351 2.599,103.248 -0.422,103.000" stroke-width="4.587" stroke="black" fill="none" stroke-linecap="round"></path><path d="M -0.422,103.000 C -0.804,99.975 -1.570,101.851 0.578,98.000" stroke-width="4.989" stroke="black" fill="none" stroke-linecap="round"></path><path d="M 0.578,98.000 C 3.261,94.990 2.696,94.975 6.578,93.000" stroke-width="4.137" stroke="black" fill="none" stroke-linecap="round"></path><path d="M 6.578,93.000 C 11.129,91.108 10.761,90.490 15.578,89.000" stroke-width="3.655" stroke="black" fill="none" stroke-linecap="round"></path><path d="M 15.578,89.000 C 20.448,86.198 20.629,86.608 25.578,84.000" stroke-width="3.468" stroke="black" fill="none" stroke-linecap="round"></path><path d="M 25.578,84.000 C 31.072,81.982 30.948,81.698 36.578,80.000" stroke-width="3.311" stroke="black" fill="none" stroke-linecap="round"></path><path d="M 36.578,80.000 C 43.805,78.010 43.572,77.482 50.578,75.000" stroke-width="3.252" stroke="black" fill="none" stroke-linecap="round"></path><path d="M 50.578,75.000 C 57.138,71.607 57.305,72.010 63.578,68.000" stroke-width="3.016" stroke="black" fill="none" stroke-linecap="round"></path><path d="M 63.578,68.000 C 69.483,64.325 69.638,64.607 75.578,61.000" stroke-width="3.071" stroke="black" fill="none" stroke-linecap="round"></path><path d="M 75.578,61.000 C 80.485,58.292 80.483,58.325 85.578,56.000" stroke-width="3.235" stroke="black" fill="none" stroke-linecap="round"></path><path d="M 85.578,56.000 C 90.538,53.890 90.485,53.792 95.578,52.000" stroke-width="3.323" stroke="black" fill="none" stroke-linecap="round"></path><path d="M 95.578,52.000 C 98.716,51.301 98.538,50.890 101.578,50.000" stroke-width="3.789" stroke="black" fill="none" stroke-linecap="round"></path><path d="M 101.578,50.000 C 106.825,47.739 104.216,48.801 106.578,47.000" stroke-width="4.432" stroke="black" fill="none" stroke-linecap="round"></path><path d="M 106.578,47.000 C 103.367,46.239 106.325,46.239 100.578,47.000" stroke-width="5.054" stroke="black" fill="none" stroke-linecap="round"></path><path d="M 100.578,47.000 C 98.177,48.700 97.867,47.739 95.578,50.000" stroke-width="5.050" stroke="black" fill="none" stroke-linecap="round"></path><path d="M 95.578,50.000 C 92.790,50.525 93.177,51.200 90.578,52.000" stroke-width="5.381" stroke="black" fill="none" stroke-linecap="round"></path><path d="M 90.578,52.000 C 86.370,54.447 86.790,54.525 83.578,58.000" stroke-width="4.674" stroke="black" fill="none" stroke-linecap="round"></path><path d="M 83.578,58.000 C 80.974,61.811 80.870,61.447 79.578,66.000" stroke-width="4.517" stroke="black" fill="none" stroke-linecap="round"></path><path d="M 79.578,66.000 C 77.134,70.593 78.474,69.311 78.578,73.000" stroke-width="4.614" stroke="black" fill="none" stroke-linecap="round"></path><path d="M 78.578,73.000 C 81.942,75.161 80.134,75.593 85.578,76.000" stroke-width="4.780" stroke="black" fill="none" stroke-linecap="round"></path><path d="M 85.578,76.000 C 88.605,76.270 88.442,76.661 91.578,76.000" stroke-width="4.276" stroke="black" fill="none" stroke-linecap="round"></path><path d="M 91.578,76.000 C 94.345,76.116 94.105,75.770 96.578,75.000" stroke-width="4.269" stroke="black" fill="none" stroke-linecap="round"></path><path d="M 96.578,75.000 C 100.260,72.715 100.345,73.116 103.578,70.000" stroke-width="3.934" stroke="black" fill="none" stroke-linecap="round"></path><path d="M 103.578,70.000 C 105.578,68.000 105.760,68.215 107.578,66.000" stroke-width="4.087" stroke="black" fill="none" stroke-linecap="round"></path><path d="M 107.578,66.000 C 109.977,64.287 109.578,64.000 111.578,62.000" stroke-width="4.291" stroke="black" fill="none" stroke-linecap="round"></path><path d="M 111.578,62.000 C 113.442,59.125 113.477,59.287 114.578,56.000" stroke-width="4.553" stroke="black" fill="none" stroke-linecap="round"></path><path d="M 114.578,56.000 C 116.835,52.257 115.442,53.625 115.578,51.000" stroke-width="4.758" stroke="black" fill="none" stroke-linecap="round"></path><path d="M 115.578,51.000 C 112.064,50.000 113.835,49.257 108.578,50.000" stroke-width="4.867" stroke="black" fill="none" stroke-linecap="round"></path><path d="M 108.578,50.000 C 105.711,49.815 106.064,50.000 103.578,51.000" stroke-width="4.856" stroke="black" fill="none" stroke-linecap="round"></path><path d="M 103.578,51.000 C 101.115,52.695 101.211,52.315 99.578,55.000" stroke-width="4.833" stroke="black" fill="none" stroke-linecap="round"></path><path d="M 99.578,55.000 C 96.688,58.219 98.115,57.195 97.578,60.000" stroke-width="5.008" stroke="black" fill="none" stroke-linecap="round"></path><path d="M 97.578,60.000 C 100.366,62.622 98.688,62.219 103.578,63.000" stroke-width="5.175" stroke="black" fill="none" stroke-linecap="round"></path><path d="M 103.578,63.000 C 109.251,63.184 108.866,63.622 114.578,62.000" stroke-width="4.488" stroke="black" fill="none" stroke-linecap="round"></path><path d="M 114.578,62.000 C 118.090,60.526 118.251,61.184 121.578,59.000" stroke-width="4.099" stroke="black" fill="none" stroke-linecap="round"></path><path d="M 121.578,59.000 C 126.176,57.201 126.090,57.026 130.578,55.000" stroke-width="3.815" stroke="black" fill="none" stroke-linecap="round"></path><path d="M 130.578,55.000 C 140.434,50.552 140.176,50.201 149.578,45.000" stroke-width="2.776" stroke="black" fill="none" stroke-linecap="round"></path><path d="M 149.578,45.000 C 154.179,41.623 154.434,42.052 158.578,38.000" stroke-width="3.295" stroke="black" fill="none" stroke-linecap="round"></path><path d="M 158.578,38.000 C 162.831,34.747 162.679,34.623 166.578,31.000" stroke-width="3.409" stroke="black" fill="none" stroke-linecap="round"></path><path d="M 166.578,31.000 C 169.314,28.170 169.331,28.247 171.578,25.000" stroke-width="3.709" stroke="black" fill="none" stroke-linecap="round"></path><path d="M 171.578,25.000 C 174.106,21.017 174.314,21.170 176.578,17.000" stroke-width="3.645" stroke="black" fill="none" stroke-linecap="round"></path><path d="M 176.578,17.000 C 178.511,14.667 178.106,14.517 179.578,12.000" stroke-width="4.009" stroke="black" fill="none" stroke-linecap="round"></path><path d="M 179.578,12.000 C 181.289,9.133 180.511,9.667 180.578,7.000" stroke-width="4.185" stroke="black" fill="none" stroke-linecap="round"></path><path d="M 180.578,7.000 C 178.794,3.246 179.789,4.633 176.578,3.000" stroke-width="4.836" stroke="black" fill="none" stroke-linecap="round"></path><path d="M 176.578,3.000 C 173.903,4.257 174.294,2.746 171.578,6.000" stroke-width="4.313" stroke="black" fill="none" stroke-linecap="round"></path><path d="M 171.578,6.000 C 167.954,8.866 167.903,8.757 164.578,12.000" stroke-width="3.764" stroke="black" fill="none" stroke-linecap="round"></path><path d="M 164.578,12.000 C 161.195,15.625 160.954,15.366 157.578,19.000" stroke-width="3.668" stroke="black" fill="none" stroke-linecap="round"></path><path d="M 157.578,19.000 C 153.679,22.623 153.695,22.625 149.578,26.000" stroke-width="3.521" stroke="black" fill="none" stroke-linecap="round"></path><path d="M 149.578,26.000 C 145.053,29.468 145.179,29.623 140.578,33.000" stroke-width="3.352" stroke="black" fill="none" stroke-linecap="round"></path><path d="M 140.578,33.000 C 135.496,36.902 135.553,36.968 130.578,41.000" stroke-width="3.306" stroke="black" fill="none" stroke-linecap="round"></path><path d="M 130.578,41.000 C 126.325,44.253 126.496,44.402 122.578,48.000" stroke-width="3.357" stroke="black" fill="none" stroke-linecap="round"></path><path d="M 122.578,48.000 C 119.568,50.683 119.825,50.753 117.578,54.000" stroke-width="3.642" stroke="black" fill="none" stroke-linecap="round"></path><path d="M 117.578,54.000 C 114.821,58.339 115.068,58.183 113.578,63.000" stroke-width="4.099" stroke="black" fill="none" stroke-linecap="round"></path><path d="M 113.578,63.000 C 111.726,68.259 112.821,65.839 113.578,69.000" stroke-width="4.711" stroke="black" fill="none" stroke-linecap="round"></path><path d="M 113.578,69.000 C 119.149,69.067 116.726,70.259 123.578,67.000" stroke-width="4.836" stroke="black" fill="none" stroke-linecap="round"></path><path d="M 123.578,67.000 C 125.965,64.376 126.649,65.567 128.578,62.000" stroke-width="4.197" stroke="black" fill="none" stroke-linecap="round"></path><path d="M 128.578,62.000 C 131.485,59.379 131.465,59.376 134.578,57.000" stroke-width="3.951" stroke="black" fill="none" stroke-linecap="round"></path><path d="M 134.578,57.000 C 138.078,54.500 137.985,54.379 141.578,52.000" stroke-width="3.797" stroke="black" fill="none" stroke-linecap="round"></path><path d="M 141.578,52.000 C 148.123,46.090 145.078,49.500 148.578,47.000" stroke-width="4.221" stroke="black" fill="none" stroke-linecap="round"></path><path d="M 148.578,47.000 C 145.876,51.404 149.123,48.090 143.578,56.000" stroke-width="4.723" stroke="black" fill="none" stroke-linecap="round"></path><path d="M 143.578,56.000 C 142.498,58.471 142.376,58.404 141.578,61.000" stroke-width="4.351" stroke="black" fill="none" stroke-linecap="round"></path><path d="M 141.578,61.000 C 138.559,65.216 140.498,63.971 139.578,67.000" stroke-width="4.603" stroke="black" fill="none" stroke-linecap="round"></path><path d="M 139.578,67.000 C 142.833,68.686 140.559,68.716 145.578,68.000" stroke-width="4.891" stroke="black" fill="none" stroke-linecap="round"></path><path d="M 145.578,68.000 C 148.776,66.242 148.833,67.186 151.578,64.000" stroke-width="4.134" stroke="black" fill="none" stroke-linecap="round"></path><path d="M 151.578,64.000 C 153.467,61.876 153.776,62.242 155.578,60.000" stroke-width="4.235" stroke="black" fill="none" stroke-linecap="round"></path><path d="M 155.578,60.000 C 157.991,57.881 157.967,57.876 160.578,56.000" stroke-width="4.175" stroke="black" fill="none" stroke-linecap="round"></path><path d="M 160.578,56.000 C 166.578,51.342 163.491,53.881 166.578,52.000" stroke-width="4.457" stroke="black" fill="none" stroke-linecap="round"></path><path d="M 166.578,52.000 C 160.294,57.011 166.578,52.842 160.578,59.000" stroke-width="4.864" stroke="black" fill="none" stroke-linecap="round"></path><path d="M 160.578,59.000 C 164.187,59.565 160.794,60.511 167.578,59.000" stroke-width="5.086" stroke="black" fill="none" stroke-linecap="round"></path><path d="M 167.578,59.000 C 170.177,58.200 170.187,58.565 172.578,57.000" stroke-width="4.438" stroke="black" fill="none" stroke-linecap="round"></path><path d="M 172.578,57.000 C 177.368,53.161 175.177,55.700 177.578,54.000" stroke-width="4.848" stroke="black" fill="none" stroke-linecap="round"></path><path d="M 177.578,54.000 C 175.578,57.500 177.868,55.161 173.578,61.000" stroke-width="4.845" stroke="black" fill="none" stroke-linecap="round"></path><path d="M 173.578,61.000 C 168.000,67.211 171.578,64.500 169.578,68.000" stroke-width="4.613" stroke="black" fill="none" stroke-linecap="round"></path><path d="M 169.578,68.000 C 175.980,67.434 172.000,69.211 181.578,65.000" stroke-width="5.087" stroke="black" fill="none" stroke-linecap="round"></path><path d="M 181.578,65.000 C 187.346,61.867 187.480,62.434 192.578,58.000" stroke-width="3.511" stroke="black" fill="none" stroke-linecap="round"></path><path d="M 192.578,58.000 C 198.686,53.124 198.846,53.367 204.578,48.000" stroke-width="3.018" stroke="black" fill="none" stroke-linecap="round"></path><path d="M 204.578,48.000 C 210.330,43.248 210.186,43.124 215.578,38.000" stroke-width="3.113" stroke="black" fill="none" stroke-linecap="round"></path><path d="M 215.578,38.000 C 219.097,34.016 219.330,34.248 222.578,30.000" stroke-width="3.295" stroke="black" fill="none" stroke-linecap="round"></path><path d="M 222.578,30.000 C 225.911,26.734 225.597,26.516 228.578,23.000" stroke-width="3.482" stroke="black" fill="none" stroke-linecap="round"></path><path d="M 228.578,23.000 C 233.578,18.000 230.911,19.734 232.578,16.000" stroke-width="4.149" stroke="black" fill="none" stroke-linecap="round"></path><path d="M 232.578,16.000 C 228.350,14.420 231.578,14.000 224.578,15.000" stroke-width="4.801" stroke="black" fill="none" stroke-linecap="round"></path><path d="M 224.578,15.000 C 221.961,16.332 221.850,15.420 219.578,18.000" stroke-width="4.355" stroke="black" fill="none" stroke-linecap="round"></path><path d="M 219.578,18.000 C 217.078,20.000 216.961,19.832 214.578,22.000" stroke-width="4.163" stroke="black" fill="none" stroke-linecap="round"></path><path d="M 214.578,22.000 C 211.954,23.862 212.078,24.000 209.578,26.000" stroke-width="4.109" stroke="black" fill="none" stroke-linecap="round"></path><path d="M 209.578,26.000 C 206.954,28.387 206.954,28.362 204.578,31.000" stroke-width="4.013" stroke="black" fill="none" stroke-linecap="round"></path><path d="M 204.578,31.000 C 202.331,34.247 201.954,33.887 199.578,37.000" stroke-width="3.900" stroke="black" fill="none" stroke-linecap="round"></path><path d="M 199.578,37.000 C 195.130,40.125 195.831,40.747 191.578,44.000" stroke-width="4.162" stroke="black" fill="none" stroke-linecap="round"></path><path d="M 191.578,44.000 C 187.399,48.017 189.630,46.125 188.578,49.000" stroke-width="4.745" stroke="black" fill="none" stroke-linecap="round"></path><path d="M 188.578,49.000 C 193.142,49.522 190.399,50.517 197.578,49.000" stroke-width="4.651" stroke="black" fill="none" stroke-linecap="round"></path><path d="M 197.578,49.000 C 201.533,47.758 201.642,48.522 205.578,47.000" stroke-width="4.011" stroke="black" fill="none" stroke-linecap="round"></path><path d="M 205.578,47.000 C 209.563,46.251 209.533,46.258 213.578,46.000" stroke-width="3.818" stroke="black" fill="none" stroke-linecap="round"></path><path d="M 213.578,46.000 C 217.594,45.751 217.563,45.751 221.578,46.000" stroke-width="4.271" stroke="black" fill="none" stroke-linecap="round"></path><path d="M 221.578,46.000 C 228.438,44.340 225.594,46.251 229.578,47.000" stroke-width="4.443" stroke="black" fill="none" stroke-linecap="round"></path><path d="M 229.578,47.000 C 231.257,55.159 231.438,51.340 227.578,60.000" stroke-width="4.165" stroke="black" fill="none" stroke-linecap="round"></path><path d="M 227.578,60.000 C 219.401,66.516 221.757,67.659 210.578,72.000" stroke-width="2.709" stroke="black" fill="none" stroke-linecap="round"></path><path d="M 210.578,72.000 C 200.863,78.091 200.901,78.016 190.578,83.000" stroke-width="2.423" stroke="black" fill="none" stroke-linecap="round"></path><path d="M 190.578,83.000 C 178.813,88.667 178.863,88.591 166.578,93.000" stroke-width="2.336" stroke="black" fill="none" stroke-linecap="round"></path><path d="M 166.578,93.000 C 154.868,98.041 154.813,97.167 142.578,100.000" stroke-width="2.494" stroke="black" fill="none" stroke-linecap="round"></path><path d="M 142.578,100.000 C 120.100,102.499 120.368,103.541 97.578,104.000" stroke-width="1.738" stroke="black" fill="none" stroke-linecap="round"></path><path d="M 97.578,104.000 C 90.019,104.595 90.100,104.499 82.578,104.000" stroke-width="2.417" stroke="black" fill="none" stroke-linecap="round"></path><path d="M 82.578,104.000 C 76.845,104.370 77.519,103.595 72.578,102.000" stroke-width="3.050" stroke="black" fill="none" stroke-linecap="round"></path><path d="M 72.578,102.000 C 67.570,98.623 67.845,99.370 64.578,94.000" stroke-width="3.272" stroke="black" fill="none" stroke-linecap="round"></path><path d="M 64.578,94.000 C 62.162,89.669 62.070,90.123 61.578,85.000" stroke-width="3.502" stroke="black" fill="none" stroke-linecap="round"></path><path d="M 61.578,85.000 C 59.232,73.106 60.162,73.669 60.578,62.000" stroke-width="3.368" stroke="black" fill="none" stroke-linecap="round"></path><path d="M 60.578,62.000 C 62.202,56.369 61.232,56.606 65.578,52.000" stroke-width="3.386" stroke="black" fill="none" stroke-linecap="round"></path><path d="M 65.578,52.000 C 70.511,44.332 70.702,45.369 77.578,40.000" stroke-width="3.027" stroke="black" fill="none" stroke-linecap="round"></path><path d="M 77.578,40.000 C 86.849,35.675 86.011,34.832 96.578,33.000" stroke-width="2.808" stroke="black" fill="none" stroke-linecap="round"></path><path d="M 96.578,33.000 C 106.979,30.128 106.849,30.175 117.578,29.000" stroke-width="2.579" stroke="black" fill="none" stroke-linecap="round"></path><path d="M 117.578,29.000 C 130.574,28.265 130.479,27.628 143.578,28.000" stroke-width="2.319" stroke="black" fill="none" stroke-linecap="round"></path><path d="M 143.578,28.000 C 155.078,28.000 155.074,27.765 166.578,28.000" stroke-width="2.311" stroke="black" fill="none" stroke-linecap="round"></path><path d="M 166.578,28.000 C 177.578,28.000 177.578,28.000 188.578,28.000" stroke-width="2.461" stroke="black" fill="none" stroke-linecap="round"></path><path d="M 188.578,28.000 C 196.682,27.154 196.578,28.000 204.578,28.000" stroke-width="2.697" stroke="black" fill="none" stroke-linecap="round"></path><path d="M 204.578,28.000 C 210.801,28.961 210.682,28.654 216.578,31.000" stroke-width="3.065" stroke="black" fill="none" stroke-linecap="round"></path><path d="M 216.578,31.000 C 221.861,31.735 219.301,31.961 221.578,34.000" stroke-width="3.736" stroke="black" fill="none" stroke-linecap="round"></path><path d="M 221.578,34.000 C 220.137,42.739 220.861,39.735 214.578,47.000" stroke-width="3.840" stroke="black" fill="none" stroke-linecap="round"></path><path d="M 214.578,47.000 C 203.371,52.823 205.137,54.239 191.578,57.000" stroke-width="2.515" stroke="black" fill="none" stroke-linecap="round"></path><path d="M 191.578,57.000 C 179.235,61.215 179.371,61.323 166.578,64.000" stroke-width="2.244" stroke="black" fill="none" stroke-linecap="round"></path><path d="M 166.578,64.000 C 154.107,66.210 154.235,66.715 141.578,68.000" stroke-width="2.359" stroke="black" fill="none" stroke-linecap="round"></path><path d="M 141.578,68.000 C 133.101,69.391 133.107,69.210 124.578,70.000" stroke-width="2.653" stroke="black" fill="none" stroke-linecap="round"></path><path d="M 124.578,70.000 C 118.949,70.671 119.101,70.391 113.578,70.000" stroke-width="3.144" stroke="black" fill="none" stroke-linecap="round"></path><path d="M 113.578,70.000 C 109.665,69.957 110.949,69.671 108.578,68.000" stroke-width="3.821" stroke="black" fill="none" stroke-linecap="round"></path><path d="M 226.578,60.000 C 231.578,60.000 231.578,60.000 236.578,60.000" stroke-width="4.730" stroke="black" fill="none" stroke-linecap="round"></path><path d="M 236.578,60.000 C 241.578,60.000 241.578,60.000 246.578,60.000" stroke-width="3.830" stroke="black" fill="none" stroke-linecap="round"></path><path d="M 246.578,60.000 C 253.613,60.497 253.578,60.000 260.578,60.000" stroke-width="3.276" stroke="black" fill="none" stroke-linecap="round"></path><path d="M 260.578,60.000 C 267.658,59.384 267.613,59.497 274.578,58.000" stroke-width="3.129" stroke="black" fill="none" stroke-linecap="round"></path><path d="M 274.578,58.000 C 280.023,56.234 280.158,56.884 285.578,55.000" stroke-width="3.292" stroke="black" fill="none" stroke-linecap="round"></path><path d="M 285.578,55.000 C 289.092,54.581 289.023,54.234 292.578,54.000" stroke-width="3.741" stroke="black" fill="none" stroke-linecap="round"></path><path d="M 292.578,54.000 C 298.315,52.116 295.092,53.581 297.578,53.000" stroke-width="4.467" stroke="black" fill="none" stroke-linecap="round"></path><path d="M 297.578,53.000 C 292.327,56.201 295.815,55.116 287.578,60.000" stroke-width="4.208" stroke="black" fill="none" stroke-linecap="round"></path><path d="M 287.578,60.000 C 285.078,62.500 284.827,62.201 282.578,65.000" stroke-width="4.040" stroke="black" fill="none" stroke-linecap="round"></path><path d="M 282.578,65.000 C 276.974,68.877 280.578,67.000 278.578,69.000" stroke-width="4.558" stroke="black" fill="none" stroke-linecap="round"></path><path d="M 278.578,69.000 C 287.207,68.029 283.474,69.377 295.578,66.000" stroke-width="3.974" stroke="black" fill="none" stroke-linecap="round"></path><path d="M 295.578,66.000 C 303.439,62.915 303.707,64.029 311.578,61.000" stroke-width="3.099" stroke="black" fill="none" stroke-linecap="round"></path><path d="M 311.578,61.000 C 320.564,59.408 320.439,58.915 329.578,58.000" stroke-width="2.879" stroke="black" fill="none" stroke-linecap="round"></path><path d="M 329.578,58.000 C 336.550,56.611 336.564,56.908 343.578,56.000" stroke-width="3.010" stroke="black" fill="none" stroke-linecap="round"></path><path d="M 343.578,56.000 C 348.078,56.000 348.050,55.611 352.578,56.000" stroke-width="3.493" stroke="black" fill="none" stroke-linecap="round"></path><path d="M 352.578,56.000 C 359.675,55.687 355.578,56.000 358.578,56.000" stroke-width="4.279" stroke="black" fill="none" stroke-linecap="round"></path><path d="M 358.578,56.000 C 352.129,57.543 356.175,56.687 345.578,58.000" stroke-width="4.479" stroke="black" fill="none" stroke-linecap="round"></path><path d="M 345.578,58.000 C 330.582,58.711 330.629,59.043 315.578,59.000" stroke-width="2.354" stroke="black" fill="none" stroke-linecap="round"></path><path d="M 315.578,59.000 C 304.578,59.000 304.582,59.211 293.578,59.000" stroke-width="2.364" stroke="black" fill="none" stroke-linecap="round"></path><path d="M 293.578,59.000 C 283.078,59.000 283.078,59.000 272.578,59.000" stroke-width="2.618" stroke="black" fill="none" stroke-linecap="round"></path><path d="M 272.578,59.000 C 260.573,58.745 260.578,59.000 248.578,59.000" stroke-width="2.349" stroke="black" fill="none" stroke-linecap="round"></path><path d="M 248.578,59.000 C 236.932,58.452 237.073,59.245 225.578,60.000" stroke-width="2.319" stroke="black" fill="none" stroke-linecap="round"></path><path d="M 225.578,60.000 C 214.766,61.604 214.932,61.452 204.578,65.000" stroke-width="2.576" stroke="black" fill="none" stroke-linecap="round"></path></svg>