<svg xmlns="http://www.w3.org/2000/svg" xmlns:xlink="http://www.w3.org/1999/xlink" viewBox="0 0 354 117" width="354" height="117"><path d="M 93.578,17.000 C 91.203,15.350 91.078,16.000 88.578,15.000" stroke-width="4.651" stroke="black" fill="none" stroke-linecap="round"></path><path d="M 88.578,15.000 C 83.366,14.102 83.703,14.350 78.578,15.000" stroke-width="3.749" stroke="black" fill="none" stroke-linecap="round"></path><path d="M 78.578,15.000 C 75.386,16.183 75.366,15.602 72.578,18.000" stroke-width="3.897" stroke="black" fill="none" stroke-linecap="round"></path><path d="M 72.578,18.000 C 66.813,21.689 66.886,21.683 61.578,26.000" stroke-width="3.957" stroke="black" fill="none" stroke-linecap="round"></path><path d="M 61.578,26.000 C 58.348,28.793 58.313,28.689 55.578,32.000" stroke-width="3.756" stroke="black" fill="none" stroke-linecap="round"></path><path d="M 55.578,32.000 C 48.057,39.439 48.848,39.793 42.578,48.000" stroke-width="3.574" stroke="black" fill="none" stroke-linecap="round"></path><path d="M 42.578,48.000 C 40.441,52.397 40.057,51.939 39.578,57.000" stroke-width="4.096" stroke="black" fill="none" stroke-linecap="round"></path><path d="M 39.578,57.000 C 39.578,60.500 38.941,60.397 39.578,64.000" stroke-width="4.017" stroke="black" fill="none" stroke-linecap="round"></path><path d="M 39.578,64.000 C 39.020,68.091 39.578,68.000 39.578,72.000" stroke-width="3.881" stroke="black" fill="none" stroke-linecap="round"></path><path d="M 39.578,72.000 C 39.747,75.559 40.020,75.091 41.578,78.000" stroke-width="4.031" stroke="black" fill="none" stroke-linecap="round"></path><path d="M 41.578,78.000 C 44.844,81.333 44.247,81.559 48.578,84.000" stroke-width="3.696" stroke="black" fill="none" stroke-linecap="round"></path><path d="M 48.578,84.000 C 51.857,86.511 51.844,86.333 55.578,88.000" stroke-width="3.779" stroke="black" fill="none" stroke-linecap="round"></path><path d="M 55.578,88.000 C 61.884,91.142 61.857,90.511 68.578,92.000" stroke-width="3.516" stroke="black" fill="none" stroke-linecap="round"></path><path d="M 68.578,92.000 C 81.593,93.000 81.384,93.642 94.578,93.000" stroke-width="2.498" stroke="black" fill="none" stroke-linecap="round"></path><path d="M 94.578,93.000 C 99.905,93.558 99.593,93.000 104.578,92.000" stroke-width="3.144" stroke="black" fill="none" stroke-linecap="round"></path><path d="M 104.578,92.000 C 110.709,89.787 110.405,90.058 115.578,86.000" stroke-width="3.263" stroke="black" fill="none" stroke-linecap="round"></path><path d="M 115.578,86.000 C 119.846,82.471 119.709,82.787 122.578,78.000" stroke-width="3.283" stroke="black" fill="none" stroke-linecap="round"></path><path d="M 122.578,78.000 C 125.589,73.195 125.346,73.471 126.578,68.000" stroke-width="3.394" stroke="black" fill="none" stroke-linecap="round"></path><path d="M 126.578,68.000 C 126.578,62.500 127.589,62.695 126.578,57.000" stroke-width="3.409" stroke="black" fill="none" stroke-linecap="round"></path><path d="M 126.578,57.000 C 127.348,51.875 126.578,52.000 126.578,47.000" stroke-width="3.501" stroke="black" fill="none" stroke-linecap="round"></path><path d="M 126.578,47.000 C 125.772,42.113 125.848,42.375 123.578,38.000" stroke-width="3.577" stroke="black" fill="none" stroke-linecap="round"></path><path d="M 123.578,38.000 C 121.530,34.460 121.772,34.613 118.578,32.000" stroke-width="3.717" stroke="black" fill="none" stroke-linecap="round"></path><path d="M 118.578,32.000 C 115.325,29.071 115.530,29.460 111.578,28.000" stroke-width="3.733" stroke="black" fill="none" stroke-linecap="round"></path><path d="M 111.578,28.000 C 108.078,28.000 108.325,27.071 104.578,28.000" stroke-width="3.906" stroke="black" fill="none" stroke-linecap="round"></path><path d="M 104.578,28.000 C 98.972,26.536 99.578,28.000 94.578,28.000" stroke-width="3.644" stroke="black" fill="none" stroke-linecap="round"></path><path d="M 94.578,28.000 C 91.631,30.178 91.472,29.036 89.578,33.000" stroke-width="3.820" stroke="black" fill="none" stroke-linecap="round"></path><path d="M 87.578,76.000 C 91.389,81.647 91.578,81.500 95.578,87.000" stroke-width="4.754" stroke="black" fill="none" stroke-linecap="round"></path><path d="M 95.578,87.000 C 100.192,93.369 100.389,93.147 105.578,99.000" stroke-width="3.236" stroke="black" fill="none" stroke-linecap="round"></path><path d="M 105.578,99.000 C 111.421,104.683 111.192,104.869 117.578,110.000" stroke-width="2.909" stroke="black" fill="none" stroke-linecap="round"></path><path d="M 117.578,110.000 C 122.180,114.701 122.421,114.183 127.578,118.000" stroke-width="3.112" stroke="black" fill="none" stroke-linecap="round"></path><path d="M 127.578,118.000 C 131.466,120.119 131.180,120.201 135.578,121.000" stroke-width="3.481" stroke="black" fill="none" stroke-linecap="round"></path><path d="M 135.578,121.000 C 138.739,121.757 138.466,121.619 141.578,121.000" stroke-width="3.887" stroke="black" fill="none" stroke-linecap="round"></path><path d="M 211.578,26.000 C 211.185,31.178 210.578,31.000 209.578,36.000" stroke-width="4.625" stroke="black" fill="none" stroke-linecap="round"></path><path d="M 209.578,36.000 C 205.698,47.800 205.685,47.678 200.578,59.000" stroke-width="3.540" stroke="black" fill="none" stroke-linecap="round"></path><path d="M 200.578,59.000 C 196.549,64.761 197.698,65.300 193.578,71.000" stroke-width="3.823" stroke="black" fill="none" stroke-linecap="round"></path><path d="M 193.578,71.000 C 191.659,75.405 191.549,75.261 190.578,80.000" stroke-width="3.672" stroke="black" fill="none" stroke-linecap="round"></path><path d="M 190.578,80.000 C 189.865,83.987 189.659,83.905 189.578,88.000" stroke-width="3.771" stroke="black" fill="none" stroke-linecap="round"></path><path d="M 225.578,64.000 C 216.829,63.350 217.078,64.500 208.578,65.000" stroke-width="4.524" stroke="black" fill="none" stroke-linecap="round"></path><path d="M 208.578,65.000 C 202.178,67.800 201.829,66.350 195.578,70.000" stroke-width="3.416" stroke="black" fill="none" stroke-linecap="round"></path><path d="M 195.578,70.000 C 188.686,72.578 188.678,72.300 181.578,74.000" stroke-width="3.196" stroke="black" fill="none" stroke-linecap="round"></path><path d="M 181.578,74.000 C 176.088,74.710 176.186,75.078 170.578,75.000" stroke-width="3.343" stroke="black" fill="none" stroke-linecap="round"></path><path d="M 170.578,75.000 C 166.463,75.598 166.588,75.210 162.578,75.000" stroke-width="3.666" stroke="black" fill="none" stroke-linecap="round"></path><path d="M 162.578,75.000 C 158.324,75.051 159.963,74.598 157.578,73.000" stroke-width="4.401" stroke="black" fill="none" stroke-linecap="round"></path><path d="M 157.578,73.000 C 156.180,67.397 156.324,69.551 158.578,64.000" stroke-width="3.802" stroke="black" fill="none" stroke-linecap="round"></path><path d="M 238.578,25.000 C 237.634,29.513 237.578,29.500 236.578,34.000" stroke-width="4.681" stroke="black" fill="none" stroke-linecap="round"></path><path d="M 236.578,34.000 C 235.790,38.062 235.634,38.013 234.578,42.000" stroke-width="3.958" stroke="black" fill="none" stroke-linecap="round"></path><path d="M 234.578,42.000 C 231.789,51.080 231.790,51.062 228.578,60.000" stroke-width="3.679" stroke="black" fill="none" stroke-linecap="round"></path><path d="M 228.578,60.000 C 226.944,63.449 227.289,63.580 225.578,67.000" stroke-width="3.866" stroke="black" fill="none" stroke-linecap="round"></path><path d="M 225.578,67.000 C 222.276,72.132 224.444,69.949 223.578,73.000" stroke-width="4.427" stroke="black" fill="none" stroke-linecap="round"></path><path d="M 223.578,73.000 C 227.850,72.657 225.276,74.132 231.578,71.000" stroke-width="4.514" stroke="black" fill="none" stroke-linecap="round"></path><path d="M 231.578,71.000 C 236.473,67.808 236.850,68.657 241.578,65.000" stroke-width="3.620" stroke="black" fill="none" stroke-linecap="round"></path><path d="M 241.578,65.000 C 246.477,62.267 246.473,62.308 251.578,60.000" stroke-width="3.398" stroke="black" fill="none" stroke-linecap="round"></path><path d="M 251.578,60.000 C 255.431,57.691 255.477,58.267 259.578,57.000" stroke-width="3.633" stroke="black" fill="none" stroke-linecap="round"></path><path d="M 259.578,57.000 C 268.610,54.094 264.431,56.191 269.578,57.000" stroke-width="4.171" stroke="black" fill="none" stroke-linecap="round"></path><path d="M 269.578,57.000 C 268.170,65.072 271.110,61.594 264.578,72.000" stroke-width="3.933" stroke="black" fill="none" stroke-linecap="round"></path><path d="M 264.578,72.000 C 260.078,78.000 261.170,78.572 255.578,84.000" stroke-width="3.220" stroke="black" fill="none" stroke-linecap="round"></path><path d="M 255.578,84.000 C 252.178,87.775 252.578,88.000 249.578,92.000" stroke-width="3.439" stroke="black" fill="none" stroke-linecap="round"></path><path d="M 249.578,92.000 C 246.491,95.913 248.178,94.275 247.578,97.000" stroke-width="3.944" stroke="black" fill="none" stroke-linecap="round"></path><path d="M 277.578,87.000 C 284.069,87.750 284.078,87.500 290.578,88.000" stroke-width="4.377" stroke="black" fill="none" stroke-linecap="round"></path><path d="M 290.578,88.000 C 297.088,88.250 297.069,88.250 303.578,88.000" stroke-width="3.400" stroke="black" fill="none" stroke-linecap="round"></path><path d="M 303.578,88.000 C 310.579,89.181 310.088,87.750 316.578,87.000" stroke-width="3.245" stroke="black" fill="none" stroke-linecap="round"></path><path d="M 316.578,87.000 C 328.857,83.399 327.079,83.181 336.578,76.000" stroke-width="3.329" stroke="black" fill="none" stroke-linecap="round"></path><path d="M 336.578,76.000 C 339.616,70.094 340.857,71.899 340.578,64.000" stroke-width="3.813" stroke="black" fill="none" stroke-linecap="round"></path><path d="M 340.578,64.000 C 341.830,58.843 341.116,60.594 339.578,57.000" stroke-width="4.009" stroke="black" fill="none" stroke-linecap="round"></path><path d="M 339.578,57.000 C 334.497,54.202 336.330,54.343 329.578,55.000" stroke-width="3.589" stroke="black" fill="none" stroke-linecap="round"></path><path d="M 329.578,55.000 C 315.187,57.396 315.997,57.202 302.578,63.000" stroke-width="3.245" stroke="black" fill="none" stroke-linecap="round"></path><path d="M 302.578,63.000 C 297.388,66.428 297.187,65.396 293.578,71.000" stroke-width="3.278" stroke="black" fill="none" stroke-linecap="round"></path><path d="M 293.578,71.000 C 289.757,75.708 289.888,75.428 287.578,81.000" stroke-width="3.261" stroke="black" fill="none" stroke-linecap="round"></path><path d="M 287.578,81.000 C 286.829,84.482 286.257,84.208 286.578,88.000" stroke-width="3.729" stroke="black" fill="none" stroke-linecap="round"></path><path d="M 286.578,88.000 C 285.008,92.308 286.329,91.482 286.578,95.000" stroke-width="3.904" stroke="black" fill="none" stroke-linecap="round"></path><path d="M 286.578,95.000 C 289.603,98.807 288.508,98.308 293.578,100.000" stroke-width="3.784" stroke="black" fill="none" stroke-linecap="round"></path><path d="M 293.578,100.000 C 300.068,100.767 299.603,101.807 306.578,101.000" stroke-width="3.343" stroke="black" fill="none" stroke-linecap="round"></path><path d="M 306.578,101.000 C 314.078,101.000 314.068,101.267 321.578,101.000" stroke-width="3.086" stroke="black" fill="none" stroke-linecap="round"></path><path d="M 29.578,59.000 C 33.514,57.203 33.578,58.000 37.578,57.000" stroke-width="4.848" stroke="black" fill="none" stroke-linecap="round"></path><path d="M 37.578,57.000 C 43.584,57.438 43.514,56.703 49.578,58.000" stroke-width="3.643" stroke="black" fill="none" stroke-linecap="round"></path><path d="M 49.578,58.000 C 59.556,59.317 59.584,58.938 69.578,60.000" stroke-width="2.825" stroke="black" fill="none" stroke-linecap="round"></path><path d="M 69.578,60.000 C 81.572,60.803 81.556,60.817 93.578,61.000" stroke-width="2.460" stroke="black" fill="none" stroke-linecap="round"></path><path d="M 93.578,61.000 C 112.091,61.487 112.072,61.303 130.578,61.000" stroke-width="1.933" stroke="black" fill="none" stroke-linecap="round"></path><path d="M 130.578,61.000 C 150.147,60.787 150.091,60.487 169.578,59.000" stroke-width="1.768" stroke="black" fill="none" stroke-linecap="round"></path><path d="M 169.578,59.000 C 193.482,54.460 193.647,56.787 217.578,53.000" stroke-width="1.543" stroke="black" fill="none" stroke-linecap="round"></path><path d="M 217.578,53.000 C 243.125,51.939 242.982,51.460 268.578,53.000" stroke-width="1.445" stroke="black" fill="none" stroke-linecap="round"></path><path d="M 268.578,53.000 C 291.567,52.652 291.125,53.939 313.578,57.000" stroke-width="1.509" stroke="black" fill="none" stroke-linecap="round"></path><path d="M 313.578,57.000 C 332.057,61.873 332.067,60.652 349.578,69.000" stroke-width="1.664" stroke="black" fill="none" stroke-linecap="round"></path></svg>