<svg xmlns="http://www.w3.org/2000/svg" xmlns:xlink="http://www.w3.org/1999/xlink" viewBox="0 0 354 117" width="354" height="117"><path d="M 37.578,25.000 C 41.037,26.183 41.078,26.000 44.578,27.000" stroke-width="5.163" stroke="black" fill="none" stroke-linecap="round"></path><path d="M 44.578,27.000 C 47.555,27.784 47.537,27.683 50.578,28.000" stroke-width="4.404" stroke="black" fill="none" stroke-linecap="round"></path><path d="M 50.578,28.000 C 54.578,28.000 54.555,28.284 58.578,28.000" stroke-width="3.982" stroke="black" fill="none" stroke-linecap="round"></path><path d="M 58.578,28.000 C 62.578,28.000 62.578,28.000 66.578,28.000" stroke-width="3.920" stroke="black" fill="none" stroke-linecap="round"></path><path d="M 66.578,28.000 C 71.078,28.000 71.078,28.000 75.578,28.000" stroke-width="3.747" stroke="black" fill="none" stroke-linecap="round"></path><path d="M 75.578,28.000 C 79.078,28.000 79.078,28.000 82.578,28.000" stroke-width="3.910" stroke="black" fill="none" stroke-linecap="round"></path><path d="M 82.578,28.000 C 85.578,28.000 85.578,28.000 88.578,28.000" stroke-width="4.035" stroke="black" fill="none" stroke-linecap="round"></path><path d="M 69.578,26.000 C 70.429,28.465 70.078,28.500 70.578,31.000" stroke-width="5.091" stroke="black" fill="none" stroke-linecap="round"></path><path d="M 70.578,31.000 C 70.578,37.000 70.929,36.965 70.578,43.000" stroke-width="4.347" stroke="black" fill="none" stroke-linecap="round"></path><path d="M 70.578,43.000 C 70.578,47.000 70.578,47.000 70.578,51.000" stroke-width="3.911" stroke="black" fill="none" stroke-linecap="round"></path><path d="M 70.578,51.000 C 70.578,56.000 70.578,56.000 70.578,61.000" stroke-width="3.585" stroke="black" fill="none" stroke-linecap="round"></path><path d="M 70.578,61.000 C 70.895,68.020 70.578,68.000 70.578,75.000" stroke-width="3.833" stroke="black" fill="none" stroke-linecap="round"></path><path d="M 108.578,22.000 C 110.938,24.797 110.078,25.000 111.578,28.000" stroke-width="5.159" stroke="black" fill="none" stroke-linecap="round"></path><path d="M 111.578,28.000 C 111.578,32.500 112.438,32.297 111.578,37.000" stroke-width="4.025" stroke="black" fill="none" stroke-linecap="round"></path><path d="M 111.578,37.000 C 112.075,43.041 111.578,43.000 111.578,49.000" stroke-width="3.486" stroke="black" fill="none" stroke-linecap="round"></path><path d="M 111.578,49.000 C 110.480,54.986 111.075,55.041 109.578,61.000" stroke-width="3.277" stroke="black" fill="none" stroke-linecap="round"></path><path d="M 109.578,61.000 C 108.846,64.986 108.980,64.986 108.578,69.000" stroke-width="3.588" stroke="black" fill="none" stroke-linecap="round"></path><path d="M 108.578,69.000 C 108.867,72.529 108.346,72.486 108.578,76.000" stroke-width="3.857" stroke="black" fill="none" stroke-linecap="round"></path><path d="M 108.578,76.000 C 106.491,81.466 108.367,78.529 107.578,81.000" stroke-width="4.174" stroke="black" fill="none" stroke-linecap="round"></path><path d="M 107.578,81.000 C 111.733,77.141 109.991,79.966 115.578,73.000" stroke-width="4.693" stroke="black" fill="none" stroke-linecap="round"></path><path d="M 115.578,73.000 C 117.828,69.750 118.233,70.141 120.578,67.000" stroke-width="4.014" stroke="black" fill="none" stroke-linecap="round"></path><path d="M 120.578,67.000 C 123.323,64.072 123.328,64.250 126.578,62.000" stroke-width="3.847" stroke="black" fill="none" stroke-linecap="round"></path><path d="M 126.578,62.000 C 129.049,60.920 128.823,60.572 131.578,60.000" stroke-width="4.135" stroke="black" fill="none" stroke-linecap="round"></path><path d="M 131.578,60.000 C 135.418,57.190 134.549,58.920 137.578,58.000" stroke-width="4.513" stroke="black" fill="none" stroke-linecap="round"></path><path d="M 137.578,58.000 C 139.204,60.380 139.418,58.690 139.578,63.000" stroke-width="4.734" stroke="black" fill="none" stroke-linecap="round"></path><path d="M 139.578,63.000 C 139.578,67.500 140.204,67.380 139.578,72.000" stroke-width="4.549" stroke="black" fill="none" stroke-linecap="round"></path><path d="M 139.578,72.000 C 139.578,80.500 139.578,80.500 139.578,89.000" stroke-width="3.100" stroke="black" fill="none" stroke-linecap="round"></path><path d="M 159.578,82.000 C 164.173,82.587 164.078,82.000 168.578,82.000" stroke-width="4.996" stroke="black" fill="none" stroke-linecap="round"></path><path d="M 168.578,82.000 C 171.721,81.319 171.673,81.587 174.578,80.000" stroke-width="4.279" stroke="black" fill="none" stroke-linecap="round"></path><path d="M 174.578,80.000 C 178.192,78.177 178.221,78.319 181.578,76.000" stroke-width="3.995" stroke="black" fill="none" stroke-linecap="round"></path><path d="M 181.578,76.000 C 185.260,73.715 185.192,73.677 188.578,71.000" stroke-width="3.809" stroke="black" fill="none" stroke-linecap="round"></path><path d="M 188.578,71.000 C 190.855,69.216 190.760,69.215 192.578,67.000" stroke-width="4.088" stroke="black" fill="none" stroke-linecap="round"></path><path d="M 192.578,67.000 C 194.078,64.500 194.355,64.716 195.578,62.000" stroke-width="4.158" stroke="black" fill="none" stroke-linecap="round"></path><path d="M 195.578,62.000 C 199.758,57.983 197.078,59.500 198.578,57.000" stroke-width="4.647" stroke="black" fill="none" stroke-linecap="round"></path><path d="M 198.578,57.000 C 193.903,56.090 196.758,55.483 189.578,57.000" stroke-width="4.339" stroke="black" fill="none" stroke-linecap="round"></path><path d="M 189.578,57.000 C 184.379,58.599 184.403,58.090 179.578,61.000" stroke-width="3.605" stroke="black" fill="none" stroke-linecap="round"></path><path d="M 179.578,61.000 C 174.252,63.556 174.379,63.599 169.578,67.000" stroke-width="3.469" stroke="black" fill="none" stroke-linecap="round"></path><path d="M 169.578,67.000 C 164.675,70.630 164.752,70.556 160.578,75.000" stroke-width="3.283" stroke="black" fill="none" stroke-linecap="round"></path><path d="M 160.578,75.000 C 157.178,78.775 157.175,78.630 154.578,83.000" stroke-width="3.460" stroke="black" fill="none" stroke-linecap="round"></path><path d="M 154.578,83.000 C 152.724,85.369 153.178,85.275 152.578,88.000" stroke-width="3.991" stroke="black" fill="none" stroke-linecap="round"></path><path d="M 152.578,88.000 C 150.784,95.971 152.224,94.369 153.578,101.000" stroke-width="4.087" stroke="black" fill="none" stroke-linecap="round"></path><path d="M 153.578,101.000 C 157.861,104.014 155.784,104.971 162.578,106.000" stroke-width="3.660" stroke="black" fill="none" stroke-linecap="round"></path><path d="M 162.578,106.000 C 167.465,108.270 167.361,108.014 172.578,109.000" stroke-width="3.536" stroke="black" fill="none" stroke-linecap="round"></path><path d="M 172.578,109.000 C 178.078,109.000 177.965,109.770 183.578,109.000" stroke-width="3.450" stroke="black" fill="none" stroke-linecap="round"></path><path d="M 183.578,109.000 C 188.245,109.812 188.078,109.000 192.578,109.000" stroke-width="3.607" stroke="black" fill="none" stroke-linecap="round"></path><path d="M 192.578,109.000 C 196.898,108.457 196.245,108.312 199.578,106.000" stroke-width="3.797" stroke="black" fill="none" stroke-linecap="round"></path><path d="M 248.578,62.000 C 248.578,67.500 248.578,67.500 248.578,73.000" stroke-width="5.125" stroke="black" fill="none" stroke-linecap="round"></path><path d="M 248.578,73.000 C 248.578,78.000 248.578,78.000 248.578,83.000" stroke-width="3.835" stroke="black" fill="none" stroke-linecap="round"></path><path d="M 248.578,83.000 C 248.578,86.000 248.578,86.000 248.578,89.000" stroke-width="4.055" stroke="black" fill="none" stroke-linecap="round"></path><path d="M 248.578,89.000 C 248.578,95.000 248.578,92.000 248.578,95.000" stroke-width="4.524" stroke="black" fill="none" stroke-linecap="round"></path><path d="M 248.578,95.000 C 248.157,91.948 248.578,95.000 248.578,89.000" stroke-width="4.701" stroke="black" fill="none" stroke-linecap="round"></path><path d="M 248.578,89.000 C 249.139,84.838 249.157,84.948 250.578,81.000" stroke-width="4.022" stroke="black" fill="none" stroke-linecap="round"></path><path d="M 250.578,81.000 C 252.284,76.823 252.139,76.838 254.578,73.000" stroke-width="3.723" stroke="black" fill="none" stroke-linecap="round"></path><path d="M 254.578,73.000 C 256.998,69.440 256.784,69.323 259.578,66.000" stroke-width="3.731" stroke="black" fill="none" stroke-linecap="round"></path><path d="M 259.578,66.000 C 261.144,62.992 261.498,63.440 263.578,61.000" stroke-width="3.973" stroke="black" fill="none" stroke-linecap="round"></path><path d="M 263.578,61.000 C 268.694,55.823 266.644,58.492 270.578,57.000" stroke-width="4.341" stroke="black" fill="none" stroke-linecap="round"></path><path d="M 270.578,57.000 C 272.333,61.724 272.694,58.323 271.578,66.000" stroke-width="4.628" stroke="black" fill="none" stroke-linecap="round"></path><path d="M 271.578,66.000 C 267.311,73.466 270.833,70.224 267.578,74.000" stroke-width="4.484" stroke="black" fill="none" stroke-linecap="round"></path><path d="M 267.578,74.000 C 269.831,70.748 267.811,74.466 272.578,68.000" stroke-width="4.928" stroke="black" fill="none" stroke-linecap="round"></path><path d="M 272.578,68.000 C 274.961,65.832 274.831,65.748 277.578,64.000" stroke-width="4.307" stroke="black" fill="none" stroke-linecap="round"></path><path d="M 277.578,64.000 C 280.078,62.500 279.961,62.332 282.578,61.000" stroke-width="4.223" stroke="black" fill="none" stroke-linecap="round"></path><path d="M 282.578,61.000 C 284.867,58.739 285.078,59.500 287.578,58.000" stroke-width="4.199" stroke="black" fill="none" stroke-linecap="round"></path><path d="M 287.578,58.000 C 291.686,56.649 290.367,57.239 293.578,58.000" stroke-width="4.576" stroke="black" fill="none" stroke-linecap="round"></path><path d="M 293.578,58.000 C 295.267,60.659 295.186,59.149 294.578,63.000" stroke-width="4.779" stroke="black" fill="none" stroke-linecap="round"></path><path d="M 294.578,63.000 C 291.432,68.935 292.767,69.159 288.578,75.000" stroke-width="4.232" stroke="black" fill="none" stroke-linecap="round"></path><path d="M 288.578,75.000 C 287.578,77.500 287.432,77.435 286.578,80.000" stroke-width="4.260" stroke="black" fill="none" stroke-linecap="round"></path><path d="M 321.578,62.000 C 315.055,61.676 315.078,62.000 308.578,62.000" stroke-width="4.952" stroke="black" fill="none" stroke-linecap="round"></path><path d="M 308.578,62.000 C 304.948,62.037 305.055,62.176 301.578,63.000" stroke-width="4.223" stroke="black" fill="none" stroke-linecap="round"></path><path d="M 301.578,63.000 C 297.734,63.992 297.948,64.037 294.578,66.000" stroke-width="3.980" stroke="black" fill="none" stroke-linecap="round"></path><path d="M 294.578,66.000 C 292.037,67.629 292.234,67.492 290.578,70.000" stroke-width="4.146" stroke="black" fill="none" stroke-linecap="round"></path><path d="M 290.578,70.000 C 285.490,76.006 288.037,74.129 286.578,79.000" stroke-width="4.538" stroke="black" fill="none" stroke-linecap="round"></path><path d="M 286.578,79.000 C 290.565,81.000 287.490,81.506 294.578,81.000" stroke-width="4.492" stroke="black" fill="none" stroke-linecap="round"></path><path d="M 294.578,81.000 C 299.957,81.328 299.065,81.000 303.578,79.000" stroke-width="4.404" stroke="black" fill="none" stroke-linecap="round"></path><path d="M 303.578,79.000 C 307.438,70.670 306.957,76.828 308.578,72.000" stroke-width="4.424" stroke="black" fill="none" stroke-linecap="round"></path><path d="M 308.578,72.000 C 308.845,79.032 310.438,74.170 309.578,86.000" stroke-width="4.833" stroke="black" fill="none" stroke-linecap="round"></path><path d="M 320.578,64.000 C 320.578,68.000 320.578,68.000 320.578,72.000" stroke-width="5.191" stroke="black" fill="none" stroke-linecap="round"></path><path d="M 320.578,72.000 C 320.578,77.500 320.578,77.500 320.578,83.000" stroke-width="4.494" stroke="black" fill="none" stroke-linecap="round"></path><path d="M 320.578,83.000 C 319.251,90.204 320.578,87.000 320.578,91.000" stroke-width="4.553" stroke="black" fill="none" stroke-linecap="round"></path><path d="M 320.578,91.000 C 323.217,88.624 321.751,91.704 325.578,86.000" stroke-width="4.817" stroke="black" fill="none" stroke-linecap="round"></path><path d="M 325.578,86.000 C 327.578,83.500 327.717,83.624 329.578,81.000" stroke-width="4.329" stroke="black" fill="none" stroke-linecap="round"></path><path d="M 329.578,81.000 C 331.454,78.389 331.578,78.500 333.578,76.000" stroke-width="4.106" stroke="black" fill="none" stroke-linecap="round"></path><path d="M 333.578,76.000 C 335.423,73.824 335.454,73.889 337.578,72.000" stroke-width="4.141" stroke="black" fill="none" stroke-linecap="round"></path><path d="M 337.578,72.000 C 341.984,68.369 341.923,68.324 346.578,65.000" stroke-width="4.212" stroke="black" fill="none" stroke-linecap="round"></path><path d="M 346.578,65.000 C 351.196,59.618 349.484,62.869 352.578,61.000" stroke-width="4.470" stroke="black" fill="none" stroke-linecap="round"></path><path d="M 352.578,61.000 C 354.014,66.556 354.696,63.118 353.578,72.000" stroke-width="4.565" stroke="black" fill="none" stroke-linecap="round"></path><path d="M 353.578,72.000 C 352.444,79.095 353.014,79.056 350.578,86.000" stroke-width="3.317" stroke="black" fill="none" stroke-linecap="round"></path><path d="M 350.578,86.000 C 346.770,97.428 347.444,97.595 343.578,109.000" stroke-width="3.301" stroke="black" fill="none" stroke-linecap="round"></path></svg>