<svg xmlns="http://www.w3.org/2000/svg" xmlns:xlink="http://www.w3.org/1999/xlink" viewBox="0 0 500 95" width="500" height="95"><path d="M 106.000,61.000 C 102.028,59.422 102.000,59.500 98.000,58.000" stroke-width="4.842" stroke="black" fill="none" stroke-linecap="round"></path><path d="M 98.000,58.000 C 93.335,56.858 93.528,56.422 89.000,55.000" stroke-width="4.522" stroke="black" fill="none" stroke-linecap="round"></path><path d="M 89.000,55.000 C 86.638,53.199 86.335,53.858 84.000,52.000" stroke-width="4.283" stroke="black" fill="none" stroke-linecap="round"></path><path d="M 84.000,52.000 C 81.038,50.868 81.138,50.699 78.000,50.000" stroke-width="4.198" stroke="black" fill="none" stroke-linecap="round"></path><path d="M 78.000,50.000 C 69.784,49.730 74.038,48.868 70.000,48.000" stroke-width="4.405" stroke="black" fill="none" stroke-linecap="round"></path><path d="M 70.000,48.000 C 74.500,45.000 70.284,45.730 79.000,42.000" stroke-width="4.952" stroke="black" fill="none" stroke-linecap="round"></path><path d="M 79.000,42.000 C 83.500,39.000 83.500,39.000 88.000,36.000" stroke-width="3.715" stroke="black" fill="none" stroke-linecap="round"></path><path d="M 88.000,36.000 C 92.619,33.164 92.500,33.000 97.000,30.000" stroke-width="3.456" stroke="black" fill="none" stroke-linecap="round"></path><path d="M 97.000,30.000 C 101.500,26.500 101.619,26.664 106.000,23.000" stroke-width="3.447" stroke="black" fill="none" stroke-linecap="round"></path><path d="M 106.000,23.000 C 110.381,19.336 110.500,19.500 115.000,16.000" stroke-width="3.332" stroke="black" fill="none" stroke-linecap="round"></path><path d="M 115.000,16.000 C 119.416,12.865 119.381,12.836 124.000,10.000" stroke-width="3.405" stroke="black" fill="none" stroke-linecap="round"></path><path d="M 124.000,10.000 C 127.400,7.800 127.416,7.865 131.000,6.000" stroke-width="3.682" stroke="black" fill="none" stroke-linecap="round"></path><path d="M 131.000,6.000 C 137.784,1.919 134.400,4.300 138.000,3.000" stroke-width="4.277" stroke="black" fill="none" stroke-linecap="round"></path><path d="M 138.000,3.000 C 135.601,7.610 138.284,4.419 132.000,11.000" stroke-width="4.524" stroke="black" fill="none" stroke-linecap="round"></path><path d="M 132.000,11.000 C 126.353,14.811 127.101,15.610 121.000,19.000" stroke-width="3.444" stroke="black" fill="none" stroke-linecap="round"></path><path d="M 121.000,19.000 C 115.098,24.122 114.853,23.811 109.000,29.000" stroke-width="3.069" stroke="black" fill="none" stroke-linecap="round"></path><path d="M 109.000,29.000 C 102.500,34.000 102.598,34.122 96.000,39.000" stroke-width="2.859" stroke="black" fill="none" stroke-linecap="round"></path><path d="M 96.000,39.000 C 89.701,44.285 89.500,44.000 83.000,49.000" stroke-width="2.802" stroke="black" fill="none" stroke-linecap="round"></path><path d="M 83.000,49.000 C 76.257,53.968 76.201,53.785 69.000,58.000" stroke-width="2.830" stroke="black" fill="none" stroke-linecap="round"></path><path d="M 69.000,58.000 C 62.458,60.912 62.757,61.468 56.000,64.000" stroke-width="2.983" stroke="black" fill="none" stroke-linecap="round"></path><path d="M 56.000,64.000 C 51.139,66.836 50.958,66.412 46.000,69.000" stroke-width="3.205" stroke="black" fill="none" stroke-linecap="round"></path><path d="M 46.000,69.000 C 41.570,70.781 41.639,70.836 37.000,72.000" stroke-width="3.526" stroke="black" fill="none" stroke-linecap="round"></path><path d="M 37.000,72.000 C 33.992,72.456 34.070,72.781 31.000,73.000" stroke-width="3.893" stroke="black" fill="none" stroke-linecap="round"></path><path d="M 31.000,73.000 C 25.660,75.020 28.492,73.456 26.000,74.000" stroke-width="4.224" stroke="black" fill="none" stroke-linecap="round"></path><path d="M 26.000,74.000 C 29.044,69.826 26.660,72.020 33.000,67.000" stroke-width="4.755" stroke="black" fill="none" stroke-linecap="round"></path><path d="M 33.000,67.000 C 36.336,64.862 36.044,64.826 40.000,64.000" stroke-width="4.052" stroke="black" fill="none" stroke-linecap="round"></path><path d="M 40.000,64.000 C 44.989,63.278 44.836,62.862 50.000,63.000" stroke-width="3.676" stroke="black" fill="none" stroke-linecap="round"></path><path d="M 50.000,63.000 C 54.010,63.210 53.989,62.778 58.000,63.000" stroke-width="3.779" stroke="black" fill="none" stroke-linecap="round"></path><path d="M 58.000,63.000 C 63.500,62.500 63.510,62.710 69.000,62.000" stroke-width="3.513" stroke="black" fill="none" stroke-linecap="round"></path><path d="M 69.000,62.000 C 74.693,62.327 74.500,61.500 80.000,61.000" stroke-width="3.381" stroke="black" fill="none" stroke-linecap="round"></path><path d="M 80.000,61.000 C 86.621,58.774 86.693,59.327 93.000,56.000" stroke-width="3.382" stroke="black" fill="none" stroke-linecap="round"></path><path d="M 93.000,56.000 C 98.061,53.615 98.121,53.774 103.000,51.000" stroke-width="3.332" stroke="black" fill="none" stroke-linecap="round"></path><path d="M 103.000,51.000 C 106.357,48.681 106.561,49.115 110.000,47.000" stroke-width="3.656" stroke="black" fill="none" stroke-linecap="round"></path><path d="M 110.000,47.000 C 113.029,46.080 112.857,45.681 116.000,45.000" stroke-width="3.911" stroke="black" fill="none" stroke-linecap="round"></path><path d="M 116.000,45.000 C 121.425,43.000 118.529,44.080 121.000,43.000" stroke-width="4.115" stroke="black" fill="none" stroke-linecap="round"></path><path d="M 121.000,43.000 C 117.265,43.493 120.425,43.000 114.000,45.000" stroke-width="4.728" stroke="black" fill="none" stroke-linecap="round"></path><path d="M 114.000,45.000 C 110.964,46.948 110.765,46.493 108.000,49.000" stroke-width="4.099" stroke="black" fill="none" stroke-linecap="round"></path><path d="M 108.000,49.000 C 100.140,52.280 104.464,51.448 101.000,54.000" stroke-width="4.327" stroke="black" fill="none" stroke-linecap="round"></path><path d="M 101.000,54.000 C 106.542,57.000 102.140,56.280 112.000,57.000" stroke-width="4.666" stroke="black" fill="none" stroke-linecap="round"></path><path d="M 112.000,57.000 C 116.675,55.892 116.542,57.000 121.000,54.000" stroke-width="3.809" stroke="black" fill="none" stroke-linecap="round"></path><path d="M 121.000,54.000 C 124.403,51.799 124.675,52.392 128.000,50.000" stroke-width="3.761" stroke="black" fill="none" stroke-linecap="round"></path><path d="M 128.000,50.000 C 132.586,46.964 130.403,48.799 133.000,48.000" stroke-width="4.104" stroke="black" fill="none" stroke-linecap="round"></path><path d="M 133.000,48.000 C 131.198,51.406 133.586,49.464 130.000,55.000" stroke-width="4.789" stroke="black" fill="none" stroke-linecap="round"></path><path d="M 130.000,55.000 C 129.670,57.545 129.198,57.406 129.000,60.000" stroke-width="4.410" stroke="black" fill="none" stroke-linecap="round"></path><path d="M 129.000,60.000 C 125.556,64.762 128.170,63.045 127.000,66.000" stroke-width="4.623" stroke="black" fill="none" stroke-linecap="round"></path><path d="M 127.000,66.000 C 131.974,67.421 129.056,67.762 136.000,66.000" stroke-width="4.479" stroke="black" fill="none" stroke-linecap="round"></path><path d="M 136.000,66.000 C 140.000,63.000 140.474,64.421 144.000,60.000" stroke-width="3.838" stroke="black" fill="none" stroke-linecap="round"></path><path d="M 144.000,60.000 C 148.037,57.048 148.000,57.000 152.000,54.000" stroke-width="3.626" stroke="black" fill="none" stroke-linecap="round"></path><path d="M 152.000,54.000 C 154.413,51.881 154.537,52.048 157.000,50.000" stroke-width="3.891" stroke="black" fill="none" stroke-linecap="round"></path><path d="M 157.000,50.000 C 162.122,44.903 159.913,47.881 163.000,46.000" stroke-width="4.416" stroke="black" fill="none" stroke-linecap="round"></path><path d="M 163.000,46.000 C 162.298,50.588 164.122,47.403 161.000,55.000" stroke-width="4.623" stroke="black" fill="none" stroke-linecap="round"></path><path d="M 161.000,55.000 C 156.539,61.052 159.798,59.088 158.000,63.000" stroke-width="4.551" stroke="black" fill="none" stroke-linecap="round"></path><path d="M 158.000,63.000 C 162.850,64.221 159.539,65.052 167.000,63.000" stroke-width="4.700" stroke="black" fill="none" stroke-linecap="round"></path><path d="M 167.000,63.000 C 171.170,60.735 171.350,61.721 175.000,58.000" stroke-width="3.886" stroke="black" fill="none" stroke-linecap="round"></path><path d="M 175.000,58.000 C 177.907,55.379 178.170,55.735 181.000,53.000" stroke-width="3.864" stroke="black" fill="none" stroke-linecap="round"></path><path d="M 181.000,53.000 C 188.000,46.807 184.407,50.379 188.000,48.000" stroke-width="4.281" stroke="black" fill="none" stroke-linecap="round"></path><path d="M 188.000,48.000 C 184.262,53.365 188.000,49.807 181.000,59.000" stroke-width="4.650" stroke="black" fill="none" stroke-linecap="round"></path><path d="M 181.000,59.000 C 176.697,63.671 178.762,62.865 177.000,67.000" stroke-width="3.987" stroke="black" fill="none" stroke-linecap="round"></path><path d="M 177.000,67.000 C 179.482,70.210 177.197,69.171 182.000,70.000" stroke-width="4.669" stroke="black" fill="none" stroke-linecap="round"></path><path d="M 182.000,70.000 C 185.734,68.333 185.482,69.710 189.000,66.000" stroke-width="3.978" stroke="black" fill="none" stroke-linecap="round"></path><path d="M 189.000,66.000 C 195.459,60.000 192.734,63.333 196.000,60.000" stroke-width="4.315" stroke="black" fill="none" stroke-linecap="round"></path><path d="M 196.000,60.000 C 193.290,62.851 196.459,60.000 191.000,66.000" stroke-width="4.859" stroke="black" fill="none" stroke-linecap="round"></path><path d="M 191.000,66.000 C 189.300,68.401 189.290,68.351 188.000,71.000" stroke-width="4.319" stroke="black" fill="none" stroke-linecap="round"></path><path d="M 188.000,71.000 C 184.695,75.254 186.800,73.401 186.000,76.000" stroke-width="4.681" stroke="black" fill="none" stroke-linecap="round"></path><path d="M 186.000,76.000 C 190.848,76.530 188.195,77.254 195.000,75.000" stroke-width="4.491" stroke="black" fill="none" stroke-linecap="round"></path><path d="M 195.000,75.000 C 200.114,72.176 200.348,73.030 205.000,69.000" stroke-width="3.547" stroke="black" fill="none" stroke-linecap="round"></path><path d="M 205.000,69.000 C 210.121,65.659 210.114,65.676 215.000,62.000" stroke-width="3.290" stroke="black" fill="none" stroke-linecap="round"></path><path d="M 215.000,62.000 C 217.907,59.379 218.121,59.659 221.000,57.000" stroke-width="3.618" stroke="black" fill="none" stroke-linecap="round"></path><path d="M 221.000,57.000 C 227.309,50.098 224.407,54.379 228.000,52.000" stroke-width="4.187" stroke="black" fill="none" stroke-linecap="round"></path><path d="M 228.000,52.000 C 222.234,63.022 229.309,55.598 225.000,68.000" stroke-width="4.535" stroke="black" fill="none" stroke-linecap="round"></path><path d="M 225.000,68.000 C 231.921,71.216 227.234,72.022 238.000,70.000" stroke-width="4.503" stroke="black" fill="none" stroke-linecap="round"></path><path d="M 238.000,70.000 C 244.112,66.680 244.421,68.716 250.000,63.000" stroke-width="3.343" stroke="black" fill="none" stroke-linecap="round"></path><path d="M 250.000,63.000 C 256.095,59.134 256.112,59.180 262.000,55.000" stroke-width="3.064" stroke="black" fill="none" stroke-linecap="round"></path><path d="M 262.000,55.000 C 265.810,51.693 266.095,52.134 270.000,49.000" stroke-width="3.383" stroke="black" fill="none" stroke-linecap="round"></path><path d="M 270.000,49.000 C 275.413,44.631 272.810,47.193 276.000,46.000" stroke-width="3.983" stroke="black" fill="none" stroke-linecap="round"></path><path d="M 276.000,46.000 C 274.975,51.204 276.913,48.131 273.000,56.000" stroke-width="4.575" stroke="black" fill="none" stroke-linecap="round"></path><path d="M 273.000,56.000 C 270.681,59.357 271.475,59.704 269.000,63.000" stroke-width="4.069" stroke="black" fill="none" stroke-linecap="round"></path><path d="M 269.000,63.000 C 267.277,65.955 267.681,65.857 267.000,69.000" stroke-width="4.134" stroke="black" fill="none" stroke-linecap="round"></path><path d="M 267.000,69.000 C 266.044,73.581 266.777,71.455 268.000,74.000" stroke-width="4.637" stroke="black" fill="none" stroke-linecap="round"></path><path d="M 268.000,74.000 C 274.935,74.246 273.044,75.081 281.000,72.000" stroke-width="3.503" stroke="black" fill="none" stroke-linecap="round"></path><path d="M 281.000,72.000 C 287.942,67.894 288.435,69.246 295.000,64.000" stroke-width="3.048" stroke="black" fill="none" stroke-linecap="round"></path><path d="M 295.000,64.000 C 302.526,60.048 302.442,59.894 310.000,56.000" stroke-width="2.879" stroke="black" fill="none" stroke-linecap="round"></path><path d="M 310.000,56.000 C 314.402,53.299 314.526,53.548 319.000,51.000" stroke-width="3.289" stroke="black" fill="none" stroke-linecap="round"></path><path d="M 319.000,51.000 C 324.987,46.379 322.402,49.299 326.000,48.000" stroke-width="3.638" stroke="black" fill="none" stroke-linecap="round"></path><path d="M 326.000,48.000 C 325.211,53.549 327.487,50.379 324.000,59.000" stroke-width="4.298" stroke="black" fill="none" stroke-linecap="round"></path><path d="M 324.000,59.000 C 322.510,62.431 323.211,62.549 322.000,66.000" stroke-width="4.040" stroke="black" fill="none" stroke-linecap="round"></path><path d="M 322.000,66.000 C 319.941,71.559 321.510,69.431 322.000,73.000" stroke-width="4.442" stroke="black" fill="none" stroke-linecap="round"></path><path d="M 322.000,73.000 C 327.077,73.703 324.941,75.059 332.000,73.000" stroke-width="3.771" stroke="black" fill="none" stroke-linecap="round"></path><path d="M 332.000,73.000 C 341.297,71.901 341.077,71.703 350.000,69.000" stroke-width="2.878" stroke="black" fill="none" stroke-linecap="round"></path><path d="M 350.000,69.000 C 358.897,64.748 359.297,65.901 368.000,61.000" stroke-width="2.682" stroke="black" fill="none" stroke-linecap="round"></path><path d="M 368.000,61.000 C 376.049,58.124 375.897,57.748 384.000,55.000" stroke-width="2.821" stroke="black" fill="none" stroke-linecap="round"></path><path d="M 384.000,55.000 C 389.828,51.852 390.049,52.624 396.000,50.000" stroke-width="3.068" stroke="black" fill="none" stroke-linecap="round"></path><path d="M 396.000,50.000 C 399.986,49.268 399.828,48.852 404.000,49.000" stroke-width="3.510" stroke="black" fill="none" stroke-linecap="round"></path><path d="M 404.000,49.000 C 409.115,47.385 407.486,48.768 411.000,49.000" stroke-width="4.232" stroke="black" fill="none" stroke-linecap="round"></path><path d="M 411.000,49.000 C 411.661,52.136 412.615,50.385 411.000,55.000" stroke-width="4.180" stroke="black" fill="none" stroke-linecap="round"></path><path d="M 411.000,55.000 C 409.198,58.406 410.161,58.636 408.000,62.000" stroke-width="4.143" stroke="black" fill="none" stroke-linecap="round"></path><path d="M 408.000,62.000 C 407.000,64.492 407.198,64.406 407.000,67.000" stroke-width="4.270" stroke="black" fill="none" stroke-linecap="round"></path><path d="M 407.000,67.000 C 405.577,72.394 407.000,69.992 408.000,73.000" stroke-width="4.595" stroke="black" fill="none" stroke-linecap="round"></path><path d="M 408.000,73.000 C 417.854,74.111 415.577,74.894 427.000,72.000" stroke-width="3.039" stroke="black" fill="none" stroke-linecap="round"></path><path d="M 427.000,72.000 C 437.036,68.088 437.354,69.611 447.000,64.000" stroke-width="2.626" stroke="black" fill="none" stroke-linecap="round"></path><path d="M 447.000,64.000 C 456.451,59.879 456.536,60.088 466.000,56.000" stroke-width="2.567" stroke="black" fill="none" stroke-linecap="round"></path><path d="M 466.000,56.000 C 472.467,53.407 472.451,53.379 479.000,51.000" stroke-width="2.913" stroke="black" fill="none" stroke-linecap="round"></path><path d="M 479.000,51.000 C 484.560,47.901 481.967,49.907 485.000,49.000" stroke-width="3.653" stroke="black" fill="none" stroke-linecap="round"></path></svg>