<svg xmlns="http://www.w3.org/2000/svg" xmlns:xlink="http://www.w3.org/1999/xlink" viewBox="0 0 252 251" width="252" height="251"><path d="M 76.000,100.500 C 80.117,94.155 81.000,96.500 86.000,92.500" stroke-width="3.683" stroke="black" fill="none" stroke-linecap="round"></path><path d="M 86.000,92.500 C 97.478,89.746 96.117,89.655 108.000,91.500" stroke-width="2.724" stroke="black" fill="none" stroke-linecap="round"></path><path d="M 108.000,91.500 C 115.408,94.349 115.478,92.746 122.000,98.500" stroke-width="2.864" stroke="black" fill="none" stroke-linecap="round"></path><path d="M 122.000,98.500 C 128.786,103.174 128.908,102.849 135.000,108.500" stroke-width="2.803" stroke="black" fill="none" stroke-linecap="round"></path><path d="M 135.000,108.500 C 139.926,111.889 139.286,112.174 143.000,116.500" stroke-width="3.130" stroke="black" fill="none" stroke-linecap="round"></path><path d="M 143.000,116.500 C 146.054,121.297 145.926,120.889 147.000,126.500" stroke-width="3.343" stroke="black" fill="none" stroke-linecap="round"></path><path d="M 147.000,126.500 C 149.365,133.375 148.054,132.297 147.000,138.500" stroke-width="3.311" stroke="black" fill="none" stroke-linecap="round"></path><path d="M 147.000,138.500 C 141.497,146.003 143.365,146.375 135.000,152.500" stroke-width="3.487" stroke="black" fill="none" stroke-linecap="round"></path><path d="M 135.000,152.500 C 129.493,158.254 129.497,158.003 123.000,162.500" stroke-width="3.079" stroke="black" fill="none" stroke-linecap="round"></path><path d="M 123.000,162.500 C 116.348,167.239 116.493,166.754 109.000,169.500" stroke-width="2.972" stroke="black" fill="none" stroke-linecap="round"></path><path d="M 109.000,169.500 C 100.753,174.253 103.348,171.239 97.000,170.500" stroke-width="3.370" stroke="black" fill="none" stroke-linecap="round"></path><path d="M 97.000,170.500 C 85.099,156.397 86.253,159.753 80.000,140.500" stroke-width="2.146" stroke="black" fill="none" stroke-linecap="round"></path><path d="M 80.000,140.500 C 77.333,128.167 76.599,129.897 80.000,117.500" stroke-width="2.312" stroke="black" fill="none" stroke-linecap="round"></path><path d="M 80.000,117.500 C 83.066,109.411 81.833,110.167 89.000,104.500" stroke-width="2.703" stroke="black" fill="none" stroke-linecap="round"></path><path d="M 89.000,104.500 C 98.295,96.663 97.566,97.411 109.000,93.500" stroke-width="2.484" stroke="black" fill="none" stroke-linecap="round"></path><path d="M 109.000,93.500 C 120.979,92.001 120.295,90.163 133.000,91.500" stroke-width="2.373" stroke="black" fill="none" stroke-linecap="round"></path><path d="M 133.000,91.500 C 145.318,89.748 144.979,91.001 157.000,91.500" stroke-width="2.285" stroke="black" fill="none" stroke-linecap="round"></path><path d="M 157.000,91.500 C 165.530,93.603 165.318,92.748 173.000,97.500" stroke-width="2.626" stroke="black" fill="none" stroke-linecap="round"></path><path d="M 173.000,97.500 C 177.982,99.716 177.030,99.603 180.000,103.500" stroke-width="3.266" stroke="black" fill="none" stroke-linecap="round"></path><path d="M 180.000,103.500 C 182.545,108.483 181.982,107.216 181.000,112.500" stroke-width="3.488" stroke="black" fill="none" stroke-linecap="round"></path><path d="M 181.000,112.500 C 176.722,122.083 177.545,121.483 170.000,129.500" stroke-width="2.853" stroke="black" fill="none" stroke-linecap="round"></path><path d="M 170.000,129.500 C 161.386,137.536 162.222,138.083 152.000,144.500" stroke-width="2.493" stroke="black" fill="none" stroke-linecap="round"></path><path d="M 152.000,144.500 C 145.732,148.974 145.886,149.036 139.000,152.500" stroke-width="2.805" stroke="black" fill="none" stroke-linecap="round"></path><path d="M 139.000,152.500 C 132.441,158.094 135.232,154.474 131.000,155.500" stroke-width="3.402" stroke="black" fill="none" stroke-linecap="round"></path><path d="M 131.000,155.500 C 125.951,144.154 127.441,149.094 129.000,134.500" stroke-width="3.423" stroke="black" fill="none" stroke-linecap="round"></path><path d="M 129.000,134.500 C 136.940,114.946 134.951,115.654 149.000,98.500" stroke-width="1.878" stroke="black" fill="none" stroke-linecap="round"></path><path d="M 149.000,98.500 C 159.283,83.914 158.940,84.946 173.000,74.500" stroke-width="1.877" stroke="black" fill="none" stroke-linecap="round"></path><path d="M 173.000,74.500 C 186.108,67.552 184.783,66.414 200.000,63.500" stroke-width="2.009" stroke="black" fill="none" stroke-linecap="round"></path><path d="M 200.000,63.500 C 210.461,61.458 210.108,60.552 221.000,60.500" stroke-width="2.331" stroke="black" fill="none" stroke-linecap="round"></path><path d="M 221.000,60.500 C 228.049,58.461 226.961,59.958 233.000,60.500" stroke-width="2.975" stroke="black" fill="none" stroke-linecap="round"></path><path d="M 233.000,60.500 C 238.208,63.444 236.549,61.961 238.000,67.500" stroke-width="3.469" stroke="black" fill="none" stroke-linecap="round"></path><path d="M 238.000,67.500 C 236.708,84.280 237.208,82.944 231.000,99.500" stroke-width="2.286" stroke="black" fill="none" stroke-linecap="round"></path><path d="M 231.000,99.500 C 221.684,119.872 223.208,120.280 211.000,139.500" stroke-width="1.770" stroke="black" fill="none" stroke-linecap="round"></path><path d="M 211.000,139.500 C 199.942,159.277 200.184,159.372 188.000,178.500" stroke-width="1.599" stroke="black" fill="none" stroke-linecap="round"></path><path d="M 188.000,178.500 C 179.989,192.847 179.442,192.277 170.000,205.500" stroke-width="1.820" stroke="black" fill="none" stroke-linecap="round"></path></svg>