<svg xmlns="http://www.w3.org/2000/svg" xmlns:xlink="http://www.w3.org/1999/xlink" viewBox="0 0 354 117" width="354" height="117"><path d="M 75.578,71.000 C 72.578,69.500 72.578,69.500 69.578,68.000" stroke-width="5.114" stroke="black" fill="none" stroke-linecap="round"></path><path d="M 69.578,68.000 C 66.530,66.590 66.578,66.500 63.578,65.000" stroke-width="5.103" stroke="black" fill="none" stroke-linecap="round"></path><path d="M 63.578,65.000 C 59.810,63.351 60.030,63.090 56.578,61.000" stroke-width="4.938" stroke="black" fill="none" stroke-linecap="round"></path><path d="M 56.578,61.000 C 52.807,59.287 54.310,59.351 52.578,57.000" stroke-width="5.032" stroke="black" fill="none" stroke-linecap="round"></path><path d="M 52.578,57.000 C 53.221,53.143 52.307,54.287 55.578,51.000" stroke-width="5.287" stroke="black" fill="none" stroke-linecap="round"></path><path d="M 55.578,51.000 C 59.643,49.119 58.721,48.143 63.578,47.000" stroke-width="4.695" stroke="black" fill="none" stroke-linecap="round"></path><path d="M 63.578,47.000 C 66.078,45.500 66.143,45.619 68.578,44.000" stroke-width="4.329" stroke="black" fill="none" stroke-linecap="round"></path><path d="M 68.578,44.000 C 71.078,42.500 71.078,42.500 73.578,41.000" stroke-width="4.229" stroke="black" fill="none" stroke-linecap="round"></path><path d="M 73.578,41.000 C 75.976,39.301 76.078,39.500 78.578,38.000" stroke-width="4.201" stroke="black" fill="none" stroke-linecap="round"></path><path d="M 78.578,38.000 C 82.180,36.699 81.976,36.301 85.578,35.000" stroke-width="3.974" stroke="black" fill="none" stroke-linecap="round"></path><path d="M 85.578,35.000 C 88.119,33.565 88.180,33.699 90.578,32.000" stroke-width="4.122" stroke="black" fill="none" stroke-linecap="round"></path><path d="M 90.578,32.000 C 93.537,29.935 93.619,30.065 96.578,28.000" stroke-width="4.000" stroke="black" fill="none" stroke-linecap="round"></path><path d="M 96.578,28.000 C 99.195,26.668 99.037,26.435 101.578,25.000" stroke-width="4.130" stroke="black" fill="none" stroke-linecap="round"></path><path d="M 101.578,25.000 C 104.189,23.124 104.195,23.168 106.578,21.000" stroke-width="4.099" stroke="black" fill="none" stroke-linecap="round"></path><path d="M 106.578,21.000 C 108.467,18.876 108.689,19.124 110.578,17.000" stroke-width="4.089" stroke="black" fill="none" stroke-linecap="round"></path><path d="M 110.578,17.000 C 115.150,12.143 112.967,14.876 115.578,13.000" stroke-width="4.505" stroke="black" fill="none" stroke-linecap="round"></path><path d="M 115.578,13.000 C 114.479,17.198 116.150,14.143 112.578,21.000" stroke-width="4.993" stroke="black" fill="none" stroke-linecap="round"></path><path d="M 112.578,21.000 C 110.534,25.362 110.479,25.198 107.578,29.000" stroke-width="3.877" stroke="black" fill="none" stroke-linecap="round"></path><path d="M 107.578,29.000 C 103.689,33.117 104.034,33.362 99.578,37.000" stroke-width="3.513" stroke="black" fill="none" stroke-linecap="round"></path><path d="M 99.578,37.000 C 94.606,41.531 94.689,41.617 89.578,46.000" stroke-width="3.180" stroke="black" fill="none" stroke-linecap="round"></path><path d="M 89.578,46.000 C 85.767,49.742 85.606,49.531 81.578,53.000" stroke-width="3.372" stroke="black" fill="none" stroke-linecap="round"></path><path d="M 81.578,53.000 C 76.389,56.258 76.767,56.742 71.578,60.000" stroke-width="3.243" stroke="black" fill="none" stroke-linecap="round"></path><path d="M 71.578,60.000 C 67.724,63.684 67.389,63.258 63.578,67.000" stroke-width="3.392" stroke="black" fill="none" stroke-linecap="round"></path><path d="M 63.578,67.000 C 60.220,69.724 60.224,69.684 56.578,72.000" stroke-width="3.518" stroke="black" fill="none" stroke-linecap="round"></path><path d="M 56.578,72.000 C 52.065,74.476 52.220,74.724 47.578,77.000" stroke-width="3.560" stroke="black" fill="none" stroke-linecap="round"></path><path d="M 47.578,77.000 C 44.091,79.024 44.065,78.976 40.578,81.000" stroke-width="3.684" stroke="black" fill="none" stroke-linecap="round"></path><path d="M 40.578,81.000 C 36.264,83.950 36.091,83.524 31.578,86.000" stroke-width="3.705" stroke="black" fill="none" stroke-linecap="round"></path><path d="M 31.578,86.000 C 28.056,86.930 28.264,87.450 24.578,88.000" stroke-width="3.865" stroke="black" fill="none" stroke-linecap="round"></path><path d="M 24.578,88.000 C 21.440,88.699 21.556,88.930 18.578,90.000" stroke-width="3.980" stroke="black" fill="none" stroke-linecap="round"></path><path d="M 18.578,90.000 C 16.270,92.021 15.940,91.199 13.578,93.000" stroke-width="4.124" stroke="black" fill="none" stroke-linecap="round"></path><path d="M 13.578,93.000 C 10.570,93.456 10.770,94.021 7.578,94.000" stroke-width="4.090" stroke="black" fill="none" stroke-linecap="round"></path><path d="M 7.578,94.000 C 5.105,94.770 5.070,94.456 2.578,95.000" stroke-width="4.291" stroke="black" fill="none" stroke-linecap="round"></path><path d="M 2.578,95.000 C -0.449,95.270 -0.395,95.270 -3.422,95.000" stroke-width="4.623" stroke="black" fill="none" stroke-linecap="round"></path><path d="M -3.422,95.000 C -7.804,95.648 -5.949,94.770 -8.422,94.000" stroke-width="5.033" stroke="black" fill="none" stroke-linecap="round"></path><path d="M -8.422,94.000 C -8.485,89.750 -9.304,91.648 -6.422,87.000" stroke-width="4.746" stroke="black" fill="none" stroke-linecap="round"></path><path d="M -6.422,87.000 C -3.055,84.294 -3.985,83.750 0.578,82.000" stroke-width="3.990" stroke="black" fill="none" stroke-linecap="round"></path><path d="M 0.578,82.000 C 6.442,78.230 6.445,78.294 12.578,75.000" stroke-width="3.968" stroke="black" fill="none" stroke-linecap="round"></path><path d="M 12.578,75.000 C 15.948,73.037 15.942,73.230 19.578,72.000" stroke-width="3.909" stroke="black" fill="none" stroke-linecap="round"></path><path d="M 19.578,72.000 C 23.058,71.220 22.948,71.037 26.578,71.000" stroke-width="3.953" stroke="black" fill="none" stroke-linecap="round"></path><path d="M 26.578,71.000 C 31.078,71.000 31.058,70.720 35.578,71.000" stroke-width="3.636" stroke="black" fill="none" stroke-linecap="round"></path><path d="M 35.578,71.000 C 41.078,71.000 41.078,71.000 46.578,71.000" stroke-width="3.479" stroke="black" fill="none" stroke-linecap="round"></path><path d="M 46.578,71.000 C 52.089,71.249 52.078,71.000 57.578,71.000" stroke-width="3.434" stroke="black" fill="none" stroke-linecap="round"></path><path d="M 57.578,71.000 C 63.153,70.943 63.089,70.749 68.578,70.000" stroke-width="3.417" stroke="black" fill="none" stroke-linecap="round"></path><path d="M 68.578,70.000 C 74.669,68.798 74.653,68.943 80.578,67.000" stroke-width="3.303" stroke="black" fill="none" stroke-linecap="round"></path><path d="M 80.578,67.000 C 86.126,65.120 86.169,65.298 91.578,63.000" stroke-width="3.323" stroke="black" fill="none" stroke-linecap="round"></path><path d="M 91.578,63.000 C 95.122,61.595 95.126,61.620 98.578,60.000" stroke-width="3.650" stroke="black" fill="none" stroke-linecap="round"></path><path d="M 98.578,60.000 C 101.534,58.405 101.622,58.595 104.578,57.000" stroke-width="3.910" stroke="black" fill="none" stroke-linecap="round"></path><path d="M 104.578,57.000 C 110.979,55.198 108.034,55.405 111.578,54.000" stroke-width="4.366" stroke="black" fill="none" stroke-linecap="round"></path><path d="M 111.578,54.000 C 108.984,52.599 111.979,53.198 106.578,53.000" stroke-width="4.965" stroke="black" fill="none" stroke-linecap="round"></path><path d="M 106.578,53.000 C 103.093,54.536 102.984,53.599 99.578,56.000" stroke-width="4.682" stroke="black" fill="none" stroke-linecap="round"></path><path d="M 99.578,56.000 C 96.929,56.717 97.093,57.036 94.578,58.000" stroke-width="4.340" stroke="black" fill="none" stroke-linecap="round"></path><path d="M 94.578,58.000 C 91.380,59.758 91.429,59.717 88.578,62.000" stroke-width="4.059" stroke="black" fill="none" stroke-linecap="round"></path><path d="M 88.578,62.000 C 86.468,63.900 86.380,63.758 84.578,66.000" stroke-width="4.171" stroke="black" fill="none" stroke-linecap="round"></path><path d="M 84.578,66.000 C 79.578,69.252 81.968,68.900 79.578,72.000" stroke-width="4.428" stroke="black" fill="none" stroke-linecap="round"></path><path d="M 79.578,72.000 C 81.685,75.614 79.578,74.252 84.578,76.000" stroke-width="4.958" stroke="black" fill="none" stroke-linecap="round"></path><path d="M 84.578,76.000 C 89.783,75.598 89.185,76.614 94.578,74.000" stroke-width="4.452" stroke="black" fill="none" stroke-linecap="round"></path><path d="M 94.578,74.000 C 98.643,72.119 98.783,72.598 102.578,70.000" stroke-width="4.433" stroke="black" fill="none" stroke-linecap="round"></path><path d="M 102.578,70.000 C 107.578,66.548 105.143,68.619 107.578,67.000" stroke-width="4.840" stroke="black" fill="none" stroke-linecap="round"></path><path d="M 107.578,67.000 C 104.504,69.111 107.578,67.548 102.578,72.000" stroke-width="5.006" stroke="black" fill="none" stroke-linecap="round"></path><path d="M 102.578,72.000 C 99.871,75.485 100.504,75.111 99.578,79.000" stroke-width="4.936" stroke="black" fill="none" stroke-linecap="round"></path><path d="M 99.578,79.000 C 99.448,83.344 99.371,81.485 101.578,84.000" stroke-width="5.035" stroke="black" fill="none" stroke-linecap="round"></path><path d="M 101.578,84.000 C 107.376,84.445 105.948,85.344 112.578,83.000" stroke-width="4.431" stroke="black" fill="none" stroke-linecap="round"></path><path d="M 112.578,83.000 C 116.343,81.372 116.376,81.945 119.578,79.000" stroke-width="3.924" stroke="black" fill="none" stroke-linecap="round"></path><path d="M 119.578,79.000 C 123.685,75.615 123.843,75.872 127.578,72.000" stroke-width="3.526" stroke="black" fill="none" stroke-linecap="round"></path><path d="M 127.578,72.000 C 130.578,69.000 130.685,69.115 133.578,66.000" stroke-width="3.729" stroke="black" fill="none" stroke-linecap="round"></path><path d="M 133.578,66.000 C 135.467,63.876 135.578,64.000 137.578,62.000" stroke-width="4.165" stroke="black" fill="none" stroke-linecap="round"></path><path d="M 137.578,62.000 C 142.803,57.775 139.967,59.876 142.578,58.000" stroke-width="4.547" stroke="black" fill="none" stroke-linecap="round"></path><path d="M 142.578,58.000 C 139.478,60.390 142.303,58.275 136.578,63.000" stroke-width="4.747" stroke="black" fill="none" stroke-linecap="round"></path><path d="M 136.578,63.000 C 134.302,64.784 134.478,64.890 132.578,67.000" stroke-width="4.317" stroke="black" fill="none" stroke-linecap="round"></path><path d="M 132.578,67.000 C 131.078,69.500 130.802,69.284 129.578,72.000" stroke-width="4.226" stroke="black" fill="none" stroke-linecap="round"></path><path d="M 129.578,72.000 C 125.196,75.963 128.078,74.500 126.578,77.000" stroke-width="4.599" stroke="black" fill="none" stroke-linecap="round"></path><path d="M 126.578,77.000 C 132.105,78.000 129.196,78.963 137.578,78.000" stroke-width="4.913" stroke="black" fill="none" stroke-linecap="round"></path><path d="M 137.578,78.000 C 140.070,77.456 140.105,78.000 142.578,77.000" stroke-width="4.441" stroke="black" fill="none" stroke-linecap="round"></path><path d="M 142.578,77.000 C 145.725,76.951 145.570,76.456 148.578,76.000" stroke-width="4.228" stroke="black" fill="none" stroke-linecap="round"></path><path d="M 148.578,76.000 C 151.413,73.000 151.725,74.951 154.578,73.000" stroke-width="4.546" stroke="black" fill="none" stroke-linecap="round"></path><path d="M 154.578,73.000 C 160.926,76.942 160.413,73.000 166.578,76.000" stroke-width="4.955" stroke="black" fill="none" stroke-linecap="round"></path><path d="M 166.578,76.000 C 172.690,72.680 172.926,74.942 178.578,69.000" stroke-width="3.488" stroke="black" fill="none" stroke-linecap="round"></path><path d="M 178.578,69.000 C 184.382,64.662 184.690,65.180 190.578,61.000" stroke-width="3.100" stroke="black" fill="none" stroke-linecap="round"></path><path d="M 190.578,61.000 C 195.774,58.826 195.382,58.162 200.578,56.000" stroke-width="3.300" stroke="black" fill="none" stroke-linecap="round"></path><path d="M 200.578,56.000 C 203.888,53.153 204.274,53.826 207.578,51.000" stroke-width="3.543" stroke="black" fill="none" stroke-linecap="round"></path><path d="M 207.578,51.000 C 213.243,47.803 209.888,49.653 212.578,49.000" stroke-width="3.984" stroke="black" fill="none" stroke-linecap="round"></path><path d="M 212.578,49.000 C 207.827,54.751 210.743,52.303 202.578,60.000" stroke-width="4.498" stroke="black" fill="none" stroke-linecap="round"></path><path d="M 202.578,60.000 C 193.131,68.448 198.327,64.251 193.578,68.000" stroke-width="3.511" stroke="black" fill="none" stroke-linecap="round"></path><path d="M 193.578,68.000 C 198.924,62.822 194.131,67.448 204.578,58.000" stroke-width="3.806" stroke="black" fill="none" stroke-linecap="round"></path><path d="M 204.578,58.000 C 215.630,47.897 215.924,48.322 227.578,39.000" stroke-width="2.372" stroke="black" fill="none" stroke-linecap="round"></path><path d="M 227.578,39.000 C 239.370,30.666 239.130,30.397 251.578,23.000" stroke-width="2.220" stroke="black" fill="none" stroke-linecap="round"></path><path d="M 251.578,23.000 C 260.831,17.013 260.870,17.166 270.578,12.000" stroke-width="2.379" stroke="black" fill="none" stroke-linecap="round"></path><path d="M 270.578,12.000 C 278.383,7.927 278.331,8.013 286.578,5.000" stroke-width="2.588" stroke="black" fill="none" stroke-linecap="round"></path><path d="M 286.578,5.000 C 292.524,3.211 292.383,2.927 298.578,2.000" stroke-width="3.022" stroke="black" fill="none" stroke-linecap="round"></path><path d="M 298.578,2.000 C 302.564,1.268 302.524,1.211 306.578,1.000" stroke-width="3.537" stroke="black" fill="none" stroke-linecap="round"></path><path d="M 306.578,1.000 C 311.973,-0.605 310.064,0.768 313.578,1.000" stroke-width="4.243" stroke="black" fill="none" stroke-linecap="round"></path><path d="M 313.578,1.000 C 313.873,4.409 314.973,2.395 312.578,7.000" stroke-width="4.961" stroke="black" fill="none" stroke-linecap="round"></path><path d="M 312.578,7.000 C 310.656,9.082 311.373,9.409 308.578,11.000" stroke-width="4.418" stroke="black" fill="none" stroke-linecap="round"></path><path d="M 308.578,11.000 C 304.363,15.364 304.156,15.082 299.578,19.000" stroke-width="3.565" stroke="black" fill="none" stroke-linecap="round"></path><path d="M 299.578,19.000 C 291.755,24.776 291.863,24.864 283.578,30.000" stroke-width="2.851" stroke="black" fill="none" stroke-linecap="round"></path><path d="M 283.578,30.000 C 273.897,36.606 273.755,36.276 263.578,42.000" stroke-width="2.433" stroke="black" fill="none" stroke-linecap="round"></path><path d="M 263.578,42.000 C 251.863,48.222 251.897,48.106 239.578,53.000" stroke-width="2.207" stroke="black" fill="none" stroke-linecap="round"></path><path d="M 239.578,53.000 C 224.826,58.934 224.863,58.722 209.578,63.000" stroke-width="2.088" stroke="black" fill="none" stroke-linecap="round"></path><path d="M 209.578,63.000 C 194.702,66.914 194.826,66.934 179.578,69.000" stroke-width="1.976" stroke="black" fill="none" stroke-linecap="round"></path><path d="M 179.578,69.000 C 165.586,70.125 165.702,70.914 151.578,71.000" stroke-width="2.076" stroke="black" fill="none" stroke-linecap="round"></path><path d="M 151.578,71.000 C 141.531,71.067 141.586,71.625 131.578,72.000" stroke-width="2.406" stroke="black" fill="none" stroke-linecap="round"></path><path d="M 131.578,72.000 C 118.729,74.425 125.531,72.567 119.578,74.000" stroke-width="2.909" stroke="black" fill="none" stroke-linecap="round"></path><path d="M 119.578,74.000 C 127.695,72.389 120.729,73.425 135.578,70.000" stroke-width="3.873" stroke="black" fill="none" stroke-linecap="round"></path><path d="M 135.578,70.000 C 144.078,67.000 144.195,67.389 152.578,64.000" stroke-width="2.995" stroke="black" fill="none" stroke-linecap="round"></path><path d="M 152.578,64.000 C 160.859,60.121 161.078,61.000 169.578,58.000" stroke-width="2.741" stroke="black" fill="none" stroke-linecap="round"></path></svg>