<svg xmlns="http://www.w3.org/2000/svg" xmlns:xlink="http://www.w3.org/1999/xlink" viewBox="0 0 664 369" width="664" height="369"><path d="M 247.767,220.000 C 238.020,224.437 237.767,223.500 227.767,227.000" stroke-width="4.706" stroke="black" fill="none" stroke-linecap="round"></path><path d="M 227.767,227.000 C 209.884,231.370 210.020,231.437 191.767,234.000" stroke-width="2.190" stroke="black" fill="none" stroke-linecap="round"></path><path d="M 191.767,234.000 C 178.781,235.380 178.884,235.870 165.767,236.000" stroke-width="2.154" stroke="black" fill="none" stroke-linecap="round"></path><path d="M 165.767,236.000 C 157.576,237.301 157.781,236.380 149.767,236.000" stroke-width="2.576" stroke="black" fill="none" stroke-linecap="round"></path><path d="M 149.767,236.000 C 138.428,235.143 139.576,234.301 129.767,230.000" stroke-width="2.540" stroke="black" fill="none" stroke-linecap="round"></path><path d="M 129.767,230.000 C 123.035,224.025 122.428,225.643 117.767,217.000" stroke-width="2.630" stroke="black" fill="none" stroke-linecap="round"></path><path d="M 117.767,217.000 C 111.767,212.013 114.035,212.025 111.767,206.000" stroke-width="3.076" stroke="black" fill="none" stroke-linecap="round"></path><path d="M 111.767,206.000 C 111.922,186.190 111.767,188.013 117.767,169.000" stroke-width="1.947" stroke="black" fill="none" stroke-linecap="round"></path><path d="M 117.767,169.000 C 122.760,162.007 120.422,161.190 128.767,156.000" stroke-width="2.524" stroke="black" fill="none" stroke-linecap="round"></path><path d="M 128.767,156.000 C 137.363,146.283 137.760,147.007 147.767,139.000" stroke-width="2.326" stroke="black" fill="none" stroke-linecap="round"></path><path d="M 147.767,139.000 C 167.251,123.930 167.363,125.283 188.767,114.000" stroke-width="1.653" stroke="black" fill="none" stroke-linecap="round"></path><path d="M 188.767,114.000 C 200.669,110.551 199.751,108.930 212.767,109.000" stroke-width="1.963" stroke="black" fill="none" stroke-linecap="round"></path><path d="M 212.767,109.000 C 220.532,107.511 220.169,108.051 227.767,109.000" stroke-width="2.539" stroke="black" fill="none" stroke-linecap="round"></path><path d="M 227.767,109.000 C 238.055,111.194 237.532,111.011 246.767,116.000" stroke-width="2.559" stroke="black" fill="none" stroke-linecap="round"></path><path d="M 246.767,116.000 C 252.020,120.253 252.555,119.194 256.767,125.000" stroke-width="2.887" stroke="black" fill="none" stroke-linecap="round"></path><path d="M 256.767,125.000 C 261.100,127.833 260.020,128.253 262.767,132.000" stroke-width="3.424" stroke="black" fill="none" stroke-linecap="round"></path><path d="M 262.767,132.000 C 267.518,141.237 266.100,140.333 266.767,150.000" stroke-width="2.813" stroke="black" fill="none" stroke-linecap="round"></path><path d="M 266.767,150.000 C 264.279,159.104 266.018,158.737 259.767,167.000" stroke-width="2.673" stroke="black" fill="none" stroke-linecap="round"></path><path d="M 259.767,167.000 C 255.677,172.885 256.279,173.104 250.767,178.000" stroke-width="2.986" stroke="black" fill="none" stroke-linecap="round"></path><path d="M 250.767,178.000 C 243.864,185.743 243.677,185.385 235.767,192.000" stroke-width="2.601" stroke="black" fill="none" stroke-linecap="round"></path><path d="M 235.767,192.000 C 221.467,202.340 221.864,202.743 206.767,212.000" stroke-width="2.009" stroke="black" fill="none" stroke-linecap="round"></path><path d="M 206.767,212.000 C 203.913,213.951 203.967,213.840 200.767,215.000" stroke-width="3.068" stroke="black" fill="none" stroke-linecap="round"></path></svg>