<svg xmlns="http://www.w3.org/2000/svg" xmlns:xlink="http://www.w3.org/1999/xlink" viewBox="0 0 354 117" width="354" height="117"><path d="M 172.000,37.000 C 174.250,40.250 174.500,40.000 177.000,43.000" stroke-width="4.933" stroke="black" fill="none" stroke-linecap="round"></path><path d="M 177.000,43.000 C 179.613,46.194 179.750,45.750 183.000,48.000" stroke-width="3.999" stroke="black" fill="none" stroke-linecap="round"></path><path d="M 183.000,48.000 C 187.362,50.193 187.113,50.194 192.000,51.000" stroke-width="3.719" stroke="black" fill="none" stroke-linecap="round"></path><path d="M 192.000,51.000 C 198.991,51.740 198.862,52.193 206.000,52.000" stroke-width="3.182" stroke="black" fill="none" stroke-linecap="round"></path><path d="M 206.000,52.000 C 212.534,52.479 212.491,52.240 219.000,52.000" stroke-width="3.186" stroke="black" fill="none" stroke-linecap="round"></path><path d="M 219.000,52.000 C 226.043,51.242 226.034,51.479 233.000,50.000" stroke-width="3.104" stroke="black" fill="none" stroke-linecap="round"></path><path d="M 233.000,50.000 C 240.077,48.795 240.043,48.742 247.000,47.000" stroke-width="3.068" stroke="black" fill="none" stroke-linecap="round"></path><path d="M 247.000,47.000 C 253.363,44.276 253.577,45.295 260.000,43.000" stroke-width="3.108" stroke="black" fill="none" stroke-linecap="round"></path><path d="M 260.000,43.000 C 273.603,39.991 266.363,41.776 273.000,42.000" stroke-width="3.741" stroke="black" fill="none" stroke-linecap="round"></path><path d="M 273.000,42.000 C 265.397,48.298 272.103,44.991 257.000,53.000" stroke-width="3.922" stroke="black" fill="none" stroke-linecap="round"></path><path d="M 257.000,53.000 C 252.465,54.405 252.897,55.298 248.000,56.000" stroke-width="3.698" stroke="black" fill="none" stroke-linecap="round"></path><path d="M 248.000,56.000 C 241.369,57.898 245.465,56.905 243.000,58.000" stroke-width="4.082" stroke="black" fill="none" stroke-linecap="round"></path><path d="M 243.000,58.000 C 253.518,57.749 249.369,58.398 264.000,57.000" stroke-width="3.979" stroke="black" fill="none" stroke-linecap="round"></path><path d="M 264.000,57.000 C 274.480,55.569 274.518,56.249 285.000,55.000" stroke-width="2.748" stroke="black" fill="none" stroke-linecap="round"></path><path d="M 285.000,55.000 C 293.000,55.000 292.980,54.569 301.000,55.000" stroke-width="2.793" stroke="black" fill="none" stroke-linecap="round"></path><path d="M 301.000,55.000 C 306.500,55.000 306.500,55.000 312.000,55.000" stroke-width="3.248" stroke="black" fill="none" stroke-linecap="round"></path><path d="M 312.000,55.000 C 316.108,53.649 315.000,55.000 318.000,55.000" stroke-width="3.795" stroke="black" fill="none" stroke-linecap="round"></path><path d="M 318.000,55.000 C 319.657,57.637 319.608,56.149 319.000,60.000" stroke-width="4.153" stroke="black" fill="none" stroke-linecap="round"></path><path d="M 319.000,60.000 C 317.159,67.308 317.157,66.637 313.000,73.000" stroke-width="3.317" stroke="black" fill="none" stroke-linecap="round"></path></svg>