<svg xmlns="http://www.w3.org/2000/svg" xmlns:xlink="http://www.w3.org/1999/xlink" viewBox="0 0 500 320" width="500" height="320"><path d="M 95.000,277.000 C 92.212,274.602 92.000,275.500 89.000,274.000" stroke-width="4.597" stroke="black" fill="none" stroke-linecap="round"></path><path d="M 89.000,274.000 C 83.974,274.311 84.212,273.102 79.000,274.000" stroke-width="4.419" stroke="black" fill="none" stroke-linecap="round"></path><path d="M 79.000,274.000 C 76.000,273.500 75.974,273.811 73.000,273.000" stroke-width="4.222" stroke="black" fill="none" stroke-linecap="round"></path><path d="M 73.000,273.000 C 69.917,272.796 70.000,272.500 67.000,272.000" stroke-width="4.118" stroke="black" fill="none" stroke-linecap="round"></path><path d="M 67.000,272.000 C 64.551,270.850 64.417,271.296 62.000,270.000" stroke-width="4.225" stroke="black" fill="none" stroke-linecap="round"></path><path d="M 62.000,270.000 C 54.770,269.150 58.551,268.850 55.000,268.000" stroke-width="4.502" stroke="black" fill="none" stroke-linecap="round"></path><path d="M 55.000,268.000 C 59.019,266.548 55.270,266.650 63.000,265.000" stroke-width="5.015" stroke="black" fill="none" stroke-linecap="round"></path><path d="M 63.000,265.000 C 68.063,263.146 68.019,263.048 73.000,261.000" stroke-width="3.731" stroke="black" fill="none" stroke-linecap="round"></path><path d="M 73.000,261.000 C 79.708,258.388 79.563,258.146 86.000,255.000" stroke-width="3.291" stroke="black" fill="none" stroke-linecap="round"></path><path d="M 86.000,255.000 C 92.573,251.113 92.708,251.388 99.000,247.000" stroke-width="2.991" stroke="black" fill="none" stroke-linecap="round"></path><path d="M 99.000,247.000 C 105.000,243.000 105.073,243.113 111.000,239.000" stroke-width="3.303" stroke="black" fill="none" stroke-linecap="round"></path><path d="M 111.000,239.000 C 117.095,235.134 117.000,235.000 123.000,231.000" stroke-width="3.117" stroke="black" fill="none" stroke-linecap="round"></path><path d="M 123.000,231.000 C 126.848,227.768 127.095,228.134 131.000,225.000" stroke-width="3.350" stroke="black" fill="none" stroke-linecap="round"></path><path d="M 131.000,225.000 C 134.452,222.910 134.348,222.768 138.000,221.000" stroke-width="3.663" stroke="black" fill="none" stroke-linecap="round"></path><path d="M 138.000,221.000 C 143.595,216.785 140.952,219.410 144.000,218.000" stroke-width="4.331" stroke="black" fill="none" stroke-linecap="round"></path><path d="M 144.000,218.000 C 142.661,222.907 144.595,219.785 140.000,227.000" stroke-width="4.593" stroke="black" fill="none" stroke-linecap="round"></path><path d="M 140.000,227.000 C 135.786,232.759 136.161,232.907 131.000,238.000" stroke-width="3.330" stroke="black" fill="none" stroke-linecap="round"></path><path d="M 131.000,238.000 C 125.000,244.000 125.286,244.259 119.000,250.000" stroke-width="2.886" stroke="black" fill="none" stroke-linecap="round"></path><path d="M 119.000,250.000 C 112.506,257.606 112.000,257.000 105.000,264.000" stroke-width="2.615" stroke="black" fill="none" stroke-linecap="round"></path><path d="M 105.000,264.000 C 98.465,268.450 99.006,269.106 92.000,273.000" stroke-width="2.818" stroke="black" fill="none" stroke-linecap="round"></path><path d="M 92.000,273.000 C 85.190,278.289 84.965,277.950 78.000,283.000" stroke-width="2.802" stroke="black" fill="none" stroke-linecap="round"></path><path d="M 78.000,283.000 C 70.592,287.662 70.690,287.789 63.000,292.000" stroke-width="2.721" stroke="black" fill="none" stroke-linecap="round"></path><path d="M 63.000,292.000 C 56.649,295.820 56.592,295.662 50.000,299.000" stroke-width="2.861" stroke="black" fill="none" stroke-linecap="round"></path><path d="M 50.000,299.000 C 45.118,301.384 45.149,301.320 40.000,303.000" stroke-width="3.194" stroke="black" fill="none" stroke-linecap="round"></path><path d="M 40.000,303.000 C 35.528,304.151 35.618,304.384 31.000,305.000" stroke-width="3.498" stroke="black" fill="none" stroke-linecap="round"></path><path d="M 31.000,305.000 C 27.486,305.419 27.528,305.651 24.000,306.000" stroke-width="3.817" stroke="black" fill="none" stroke-linecap="round"></path><path d="M 24.000,306.000 C 18.644,307.890 21.486,306.419 19.000,307.000" stroke-width="4.487" stroke="black" fill="none" stroke-linecap="round"></path><path d="M 19.000,307.000 C 22.131,303.444 19.644,305.390 26.000,301.000" stroke-width="4.657" stroke="black" fill="none" stroke-linecap="round"></path><path d="M 26.000,301.000 C 31.833,297.609 31.631,297.444 38.000,295.000" stroke-width="3.483" stroke="black" fill="none" stroke-linecap="round"></path><path d="M 38.000,295.000 C 44.973,292.423 44.833,292.109 52.000,290.000" stroke-width="3.348" stroke="black" fill="none" stroke-linecap="round"></path><path d="M 52.000,290.000 C 59.431,287.271 59.473,287.423 67.000,285.000" stroke-width="3.032" stroke="black" fill="none" stroke-linecap="round"></path><path d="M 67.000,285.000 C 74.484,282.940 74.431,282.771 82.000,281.000" stroke-width="3.024" stroke="black" fill="none" stroke-linecap="round"></path><path d="M 82.000,281.000 C 90.039,279.143 89.984,278.940 98.000,277.000" stroke-width="2.961" stroke="black" fill="none" stroke-linecap="round"></path><path d="M 98.000,277.000 C 103.153,275.885 103.039,275.643 108.000,274.000" stroke-width="3.258" stroke="black" fill="none" stroke-linecap="round"></path><path d="M 108.000,274.000 C 112.065,272.119 112.153,272.385 116.000,270.000" stroke-width="3.546" stroke="black" fill="none" stroke-linecap="round"></path><path d="M 116.000,270.000 C 119.000,269.000 118.565,268.619 121.000,267.000" stroke-width="3.973" stroke="black" fill="none" stroke-linecap="round"></path><path d="M 121.000,267.000 C 125.614,262.587 123.000,265.000 124.000,262.000" stroke-width="4.669" stroke="black" fill="none" stroke-linecap="round"></path><path d="M 124.000,262.000 C 116.758,261.531 120.114,260.587 110.000,263.000" stroke-width="4.165" stroke="black" fill="none" stroke-linecap="round"></path><path d="M 110.000,263.000 C 105.183,264.490 105.258,264.031 101.000,267.000" stroke-width="3.924" stroke="black" fill="none" stroke-linecap="round"></path><path d="M 101.000,267.000 C 97.652,269.159 97.683,268.990 95.000,272.000" stroke-width="3.875" stroke="black" fill="none" stroke-linecap="round"></path><path d="M 95.000,272.000 C 87.000,278.101 90.652,276.659 87.000,282.000" stroke-width="4.020" stroke="black" fill="none" stroke-linecap="round"></path><path d="M 87.000,282.000 C 90.864,284.540 87.000,284.601 95.000,285.000" stroke-width="4.305" stroke="black" fill="none" stroke-linecap="round"></path><path d="M 95.000,285.000 C 100.434,285.787 99.864,285.540 105.000,284.000" stroke-width="3.793" stroke="black" fill="none" stroke-linecap="round"></path><path d="M 105.000,284.000 C 111.456,279.926 111.934,281.287 118.000,276.000" stroke-width="3.879" stroke="black" fill="none" stroke-linecap="round"></path><path d="M 118.000,276.000 C 123.972,271.229 121.456,273.926 125.000,272.000" stroke-width="4.324" stroke="black" fill="none" stroke-linecap="round"></path><path d="M 125.000,272.000 C 123.037,275.370 125.972,272.729 122.000,279.000" stroke-width="4.862" stroke="black" fill="none" stroke-linecap="round"></path><path d="M 122.000,279.000 C 119.365,284.131 121.037,282.370 121.000,286.000" stroke-width="4.699" stroke="black" fill="none" stroke-linecap="round"></path><path d="M 121.000,286.000 C 125.077,287.280 122.865,288.131 129.000,287.000" stroke-width="4.591" stroke="black" fill="none" stroke-linecap="round"></path><path d="M 129.000,287.000 C 132.196,286.402 132.077,286.780 135.000,285.000" stroke-width="4.236" stroke="black" fill="none" stroke-linecap="round"></path><path d="M 135.000,285.000 C 139.478,280.239 138.196,283.402 141.000,281.000" stroke-width="4.511" stroke="black" fill="none" stroke-linecap="round"></path><path d="M 141.000,281.000 C 138.947,286.358 142.478,281.739 141.000,288.000" stroke-width="5.006" stroke="black" fill="none" stroke-linecap="round"></path><path d="M 141.000,288.000 C 146.538,290.487 143.947,290.358 151.000,289.000" stroke-width="4.925" stroke="black" fill="none" stroke-linecap="round"></path><path d="M 151.000,289.000 C 156.560,285.080 157.038,286.987 162.000,281.000" stroke-width="3.435" stroke="black" fill="none" stroke-linecap="round"></path><path d="M 162.000,281.000 C 168.685,276.226 168.560,276.080 175.000,271.000" stroke-width="3.013" stroke="black" fill="none" stroke-linecap="round"></path><path d="M 175.000,271.000 C 182.733,263.667 183.185,264.226 191.000,257.000" stroke-width="2.568" stroke="black" fill="none" stroke-linecap="round"></path><path d="M 191.000,257.000 C 198.801,251.866 198.233,251.167 206.000,246.000" stroke-width="2.704" stroke="black" fill="none" stroke-linecap="round"></path><path d="M 206.000,246.000 C 211.989,240.488 212.301,240.866 218.000,235.000" stroke-width="2.820" stroke="black" fill="none" stroke-linecap="round"></path><path d="M 218.000,235.000 C 223.445,229.938 223.489,229.988 229.000,225.000" stroke-width="2.887" stroke="black" fill="none" stroke-linecap="round"></path><path d="M 229.000,225.000 C 232.325,221.757 232.445,221.938 236.000,219.000" stroke-width="3.423" stroke="black" fill="none" stroke-linecap="round"></path><path d="M 236.000,219.000 C 242.195,215.336 238.325,217.257 241.000,216.000" stroke-width="3.885" stroke="black" fill="none" stroke-linecap="round"></path><path d="M 241.000,216.000 C 233.695,219.536 237.695,217.836 227.000,224.000" stroke-width="4.300" stroke="black" fill="none" stroke-linecap="round"></path><path d="M 227.000,224.000 C 218.594,229.531 218.695,229.536 211.000,236.000" stroke-width="3.138" stroke="black" fill="none" stroke-linecap="round"></path><path d="M 211.000,236.000 C 205.251,241.271 205.094,241.031 200.000,247.000" stroke-width="2.932" stroke="black" fill="none" stroke-linecap="round"></path><path d="M 200.000,247.000 C 194.057,253.173 194.251,253.271 189.000,260.000" stroke-width="2.784" stroke="black" fill="none" stroke-linecap="round"></path><path d="M 189.000,260.000 C 179.701,268.317 184.057,266.673 180.000,274.000" stroke-width="3.432" stroke="black" fill="none" stroke-linecap="round"></path><path d="M 180.000,274.000 C 184.788,278.783 180.201,277.817 190.000,279.000" stroke-width="4.182" stroke="black" fill="none" stroke-linecap="round"></path><path d="M 190.000,279.000 C 197.020,277.068 196.788,279.283 204.000,275.000" stroke-width="3.232" stroke="black" fill="none" stroke-linecap="round"></path><path d="M 204.000,275.000 C 210.396,272.501 210.520,273.068 217.000,271.000" stroke-width="3.095" stroke="black" fill="none" stroke-linecap="round"></path><path d="M 217.000,271.000 C 221.489,270.301 221.396,270.001 226.000,270.000" stroke-width="3.427" stroke="black" fill="none" stroke-linecap="round"></path><path d="M 226.000,270.000 C 232.679,268.981 228.989,269.801 232.000,270.000" stroke-width="3.866" stroke="black" fill="none" stroke-linecap="round"></path><path d="M 232.000,270.000 C 227.081,273.142 230.679,271.981 222.000,276.000" stroke-width="4.293" stroke="black" fill="none" stroke-linecap="round"></path><path d="M 222.000,276.000 C 211.200,282.400 211.081,282.142 200.000,288.000" stroke-width="2.790" stroke="black" fill="none" stroke-linecap="round"></path><path d="M 200.000,288.000 C 188.313,294.321 188.200,293.900 176.000,299.000" stroke-width="2.287" stroke="black" fill="none" stroke-linecap="round"></path><path d="M 176.000,299.000 C 163.251,304.197 163.313,303.821 150.000,307.000" stroke-width="2.199" stroke="black" fill="none" stroke-linecap="round"></path><path d="M 150.000,307.000 C 137.042,309.233 137.251,309.697 124.000,310.000" stroke-width="2.263" stroke="black" fill="none" stroke-linecap="round"></path><path d="M 124.000,310.000 C 111.472,310.554 111.542,310.733 99.000,310.000" stroke-width="2.424" stroke="black" fill="none" stroke-linecap="round"></path><path d="M 99.000,310.000 C 88.702,310.218 88.972,309.554 79.000,308.000" stroke-width="2.472" stroke="black" fill="none" stroke-linecap="round"></path><path d="M 79.000,308.000 C 70.936,305.920 71.202,306.218 64.000,302.000" stroke-width="2.692" stroke="black" fill="none" stroke-linecap="round"></path><path d="M 64.000,302.000 C 59.575,298.873 59.436,299.420 56.000,295.000" stroke-width="3.188" stroke="black" fill="none" stroke-linecap="round"></path><path d="M 56.000,295.000 C 52.838,292.352 53.575,292.373 52.000,289.000" stroke-width="3.641" stroke="black" fill="none" stroke-linecap="round"></path><path d="M 52.000,289.000 C 50.020,283.180 50.838,284.352 52.000,279.000" stroke-width="3.571" stroke="black" fill="none" stroke-linecap="round"></path><path d="M 52.000,279.000 C 55.701,273.336 54.520,273.680 61.000,270.000" stroke-width="3.315" stroke="black" fill="none" stroke-linecap="round"></path><path d="M 61.000,270.000 C 69.633,264.810 69.201,264.836 79.000,262.000" stroke-width="2.785" stroke="black" fill="none" stroke-linecap="round"></path><path d="M 79.000,262.000 C 89.905,258.944 89.633,258.810 101.000,258.000" stroke-width="2.526" stroke="black" fill="none" stroke-linecap="round"></path><path d="M 101.000,258.000 C 113.500,258.000 113.405,256.944 126.000,258.000" stroke-width="2.346" stroke="black" fill="none" stroke-linecap="round"></path><path d="M 126.000,258.000 C 140.596,256.800 140.500,258.000 155.000,258.000" stroke-width="2.152" stroke="black" fill="none" stroke-linecap="round"></path><path d="M 155.000,258.000 C 170.469,260.709 170.596,259.300 186.000,263.000" stroke-width="2.026" stroke="black" fill="none" stroke-linecap="round"></path><path d="M 186.000,263.000 C 201.014,264.902 200.969,265.209 216.000,267.000" stroke-width="1.969" stroke="black" fill="none" stroke-linecap="round"></path><path d="M 216.000,267.000 C 225.957,268.914 226.014,268.402 236.000,270.000" stroke-width="2.354" stroke="black" fill="none" stroke-linecap="round"></path><path d="M 236.000,270.000 C 244.513,270.347 244.457,270.914 253.000,271.000" stroke-width="2.656" stroke="black" fill="none" stroke-linecap="round"></path><path d="M 253.000,271.000 C 263.634,270.229 257.513,271.347 262.000,272.000" stroke-width="3.248" stroke="black" fill="none" stroke-linecap="round"></path><path d="M 262.000,272.000 C 252.000,279.139 257.634,276.729 241.000,284.000" stroke-width="3.610" stroke="black" fill="none" stroke-linecap="round"></path><path d="M 241.000,284.000 C 230.038,287.627 230.500,288.639 219.000,291.000" stroke-width="2.656" stroke="black" fill="none" stroke-linecap="round"></path><path d="M 219.000,291.000 C 211.963,292.881 212.038,293.127 205.000,295.000" stroke-width="2.907" stroke="black" fill="none" stroke-linecap="round"></path><path d="M 205.000,295.000 C 194.461,299.539 200.463,296.381 196.000,298.000" stroke-width="3.318" stroke="black" fill="none" stroke-linecap="round"></path><path d="M 196.000,298.000 C 205.693,290.521 199.961,294.039 216.000,284.000" stroke-width="3.612" stroke="black" fill="none" stroke-linecap="round"></path><path d="M 216.000,284.000 C 230.093,274.710 230.193,275.021 245.000,267.000" stroke-width="2.205" stroke="black" fill="none" stroke-linecap="round"></path><path d="M 245.000,267.000 C 259.301,260.000 259.093,259.710 274.000,254.000" stroke-width="1.970" stroke="black" fill="none" stroke-linecap="round"></path><path d="M 274.000,254.000 C 283.819,249.777 283.801,250.000 294.000,247.000" stroke-width="2.265" stroke="black" fill="none" stroke-linecap="round"></path><path d="M 294.000,247.000 C 307.000,241.699 300.319,245.277 307.000,245.000" stroke-width="2.831" stroke="black" fill="none" stroke-linecap="round"></path><path d="M 307.000,245.000 C 301.601,256.372 307.000,251.199 294.000,266.000" stroke-width="3.411" stroke="black" fill="none" stroke-linecap="round"></path><path d="M 294.000,266.000 C 285.789,274.817 286.601,275.372 277.000,283.000" stroke-width="2.575" stroke="black" fill="none" stroke-linecap="round"></path><path d="M 277.000,283.000 C 270.873,287.861 271.289,288.317 265.000,293.000" stroke-width="2.815" stroke="black" fill="none" stroke-linecap="round"></path><path d="M 265.000,293.000 C 259.673,297.398 262.873,294.861 261.000,297.000" stroke-width="3.636" stroke="black" fill="none" stroke-linecap="round"></path><path d="M 261.000,297.000 C 268.068,293.631 264.673,295.898 275.000,290.000" stroke-width="3.707" stroke="black" fill="none" stroke-linecap="round"></path><path d="M 275.000,290.000 C 288.753,281.994 289.068,282.631 303.000,275.000" stroke-width="2.210" stroke="black" fill="none" stroke-linecap="round"></path><path d="M 303.000,275.000 C 316.368,268.680 316.253,268.494 330.000,263.000" stroke-width="2.153" stroke="black" fill="none" stroke-linecap="round"></path><path d="M 330.000,263.000 C 340.505,259.013 340.368,258.680 351.000,255.000" stroke-width="2.386" stroke="black" fill="none" stroke-linecap="round"></path><path d="M 351.000,255.000 C 357.412,252.196 357.505,252.513 364.000,250.000" stroke-width="2.789" stroke="black" fill="none" stroke-linecap="round"></path><path d="M 364.000,250.000 C 369.372,248.256 366.412,249.196 369.000,249.000" stroke-width="3.713" stroke="black" fill="none" stroke-linecap="round"></path><path d="M 369.000,249.000 C 365.374,251.337 368.372,250.256 362.000,254.000" stroke-width="4.207" stroke="black" fill="none" stroke-linecap="round"></path><path d="M 362.000,254.000 C 355.815,258.797 355.874,258.837 350.000,264.000" stroke-width="3.152" stroke="black" fill="none" stroke-linecap="round"></path><path d="M 350.000,264.000 C 346.147,267.224 346.315,267.297 343.000,271.000" stroke-width="3.424" stroke="black" fill="none" stroke-linecap="round"></path><path d="M 343.000,271.000 C 338.165,275.388 341.147,273.224 340.000,276.000" stroke-width="4.272" stroke="black" fill="none" stroke-linecap="round"></path><path d="M 340.000,276.000 C 349.358,278.033 345.665,277.888 358.000,276.000" stroke-width="2.988" stroke="black" fill="none" stroke-linecap="round"></path><path d="M 358.000,276.000 C 374.500,270.000 374.858,272.033 391.000,264.000" stroke-width="2.008" stroke="black" fill="none" stroke-linecap="round"></path><path d="M 391.000,264.000 C 407.081,256.525 407.500,258.000 424.000,252.000" stroke-width="1.985" stroke="black" fill="none" stroke-linecap="round"></path></svg>