<svg xmlns="http://www.w3.org/2000/svg" xmlns:xlink="http://www.w3.org/1999/xlink" viewBox="0 0 664 369" width="664" height="369"><path d="M 323.233,182.000 C 318.375,188.124 318.233,188.000 313.233,194.000" stroke-width="4.836" stroke="black" fill="none" stroke-linecap="round"></path><path d="M 313.233,194.000 C 308.572,200.958 307.875,200.124 302.233,206.000" stroke-width="3.272" stroke="black" fill="none" stroke-linecap="round"></path><path d="M 302.233,206.000 C 286.429,218.823 286.572,218.458 269.233,229.000" stroke-width="1.890" stroke="black" fill="none" stroke-linecap="round"></path><path d="M 269.233,229.000 C 261.513,233.210 261.929,233.323 253.233,235.000" stroke-width="2.450" stroke="black" fill="none" stroke-linecap="round"></path><path d="M 253.233,235.000 C 242.751,236.381 243.013,237.210 232.233,237.000" stroke-width="2.492" stroke="black" fill="none" stroke-linecap="round"></path><path d="M 232.233,237.000 C 225.593,237.867 225.751,237.381 219.233,237.000" stroke-width="2.891" stroke="black" fill="none" stroke-linecap="round"></path><path d="M 219.233,237.000 C 214.110,236.508 214.593,236.367 210.233,234.000" stroke-width="3.359" stroke="black" fill="none" stroke-linecap="round"></path><path d="M 210.233,234.000 C 205.969,230.234 205.610,231.008 202.233,226.000" stroke-width="3.372" stroke="black" fill="none" stroke-linecap="round"></path><path d="M 202.233,226.000 C 198.128,221.824 198.469,221.734 195.233,217.000" stroke-width="3.310" stroke="black" fill="none" stroke-linecap="round"></path><path d="M 195.233,217.000 C 192.598,213.754 193.628,214.324 193.233,211.000" stroke-width="4.198" stroke="black" fill="none" stroke-linecap="round"></path></svg>