<svg xmlns="http://www.w3.org/2000/svg" xmlns:xlink="http://www.w3.org/1999/xlink" viewBox="0 0 664 314" width="664" height="314"><path d="M 166.000,156.000 C 162.971,156.920 163.000,157.000 160.000,158.000" stroke-width="5.220" stroke="black" fill="none" stroke-linecap="round"></path><path d="M 160.000,158.000 C 157.597,159.317 157.471,158.920 155.000,160.000" stroke-width="4.518" stroke="black" fill="none" stroke-linecap="round"></path><path d="M 155.000,160.000 C 148.070,162.495 148.097,161.817 141.000,163.000" stroke-width="3.309" stroke="black" fill="none" stroke-linecap="round"></path><path d="M 141.000,163.000 C 133.941,162.905 134.070,163.495 127.000,162.000" stroke-width="3.146" stroke="black" fill="none" stroke-linecap="round"></path><path d="M 127.000,162.000 C 121.720,162.480 122.441,161.405 118.000,160.000" stroke-width="3.481" stroke="black" fill="none" stroke-linecap="round"></path><path d="M 118.000,160.000 C 108.877,154.042 109.720,154.480 103.000,146.000" stroke-width="3.472" stroke="black" fill="none" stroke-linecap="round"></path><path d="M 103.000,146.000 C 99.836,140.130 99.377,141.042 99.000,134.000" stroke-width="3.167" stroke="black" fill="none" stroke-linecap="round"></path><path d="M 99.000,134.000 C 97.929,128.488 98.336,129.130 100.000,124.000" stroke-width="3.363" stroke="black" fill="none" stroke-linecap="round"></path><path d="M 100.000,124.000 C 105.385,106.373 106.929,108.988 117.000,95.000" stroke-width="2.242" stroke="black" fill="none" stroke-linecap="round"></path><path d="M 117.000,95.000 C 131.184,82.190 129.385,82.873 148.000,77.000" stroke-width="1.862" stroke="black" fill="none" stroke-linecap="round"></path><path d="M 148.000,77.000 C 172.915,70.000 171.684,69.690 198.000,70.000" stroke-width="1.474" stroke="black" fill="none" stroke-linecap="round"></path><path d="M 198.000,70.000 C 237.013,70.773 236.415,70.000 275.000,77.000" stroke-width="1.125" stroke="black" fill="none" stroke-linecap="round"></path><path d="M 275.000,77.000 C 297.946,82.267 298.013,80.773 320.000,90.000" stroke-width="1.303" stroke="black" fill="none" stroke-linecap="round"></path><path d="M 320.000,90.000 C 335.919,97.189 336.446,95.767 352.000,104.000" stroke-width="1.596" stroke="black" fill="none" stroke-linecap="round"></path><path d="M 352.000,104.000 C 378.095,116.117 378.419,115.189 405.000,126.000" stroke-width="1.318" stroke="black" fill="none" stroke-linecap="round"></path><path d="M 405.000,126.000 C 427.571,132.791 427.095,134.117 450.000,140.000" stroke-width="1.392" stroke="black" fill="none" stroke-linecap="round"></path><path d="M 450.000,140.000 C 455.775,141.388 455.571,141.791 461.000,144.000" stroke-width="2.320" stroke="black" fill="none" stroke-linecap="round"></path><path d="M 461.000,144.000 C 479.705,153.659 479.775,153.388 498.000,164.000" stroke-width="1.721" stroke="black" fill="none" stroke-linecap="round"></path><path d="M 498.000,164.000 C 503.397,166.069 502.705,166.659 507.000,170.000" stroke-width="2.677" stroke="black" fill="none" stroke-linecap="round"></path><path d="M 507.000,170.000 C 515.631,178.049 514.397,178.069 520.000,188.000" stroke-width="2.444" stroke="black" fill="none" stroke-linecap="round"></path><path d="M 520.000,188.000 C 525.000,199.611 524.631,198.549 525.000,211.000" stroke-width="2.324" stroke="black" fill="none" stroke-linecap="round"></path><path d="M 525.000,211.000 C 523.602,219.538 525.000,219.111 520.000,227.000" stroke-width="2.658" stroke="black" fill="none" stroke-linecap="round"></path><path d="M 520.000,227.000 C 517.113,235.229 516.602,234.038 511.000,240.000" stroke-width="2.776" stroke="black" fill="none" stroke-linecap="round"></path><path d="M 511.000,240.000 C 495.523,250.583 496.613,251.229 479.000,259.000" stroke-width="1.916" stroke="black" fill="none" stroke-linecap="round"></path><path d="M 479.000,259.000 C 468.826,264.294 469.023,264.083 458.000,267.000" stroke-width="2.244" stroke="black" fill="none" stroke-linecap="round"></path><path d="M 458.000,267.000 C 446.537,268.901 446.826,269.794 435.000,270.000" stroke-width="2.337" stroke="black" fill="none" stroke-linecap="round"></path><path d="M 435.000,270.000 C 425.497,271.186 425.537,270.901 416.000,271.000" stroke-width="2.435" stroke="black" fill="none" stroke-linecap="round"></path><path d="M 416.000,271.000 C 399.891,270.885 399.997,270.686 384.000,269.000" stroke-width="2.012" stroke="black" fill="none" stroke-linecap="round"></path><path d="M 384.000,269.000 C 370.444,266.758 370.391,267.385 357.000,264.000" stroke-width="2.107" stroke="black" fill="none" stroke-linecap="round"></path><path d="M 357.000,264.000 C 350.777,263.039 350.944,262.758 345.000,261.000" stroke-width="2.798" stroke="black" fill="none" stroke-linecap="round"></path><path d="M 345.000,261.000 C 341.592,260.315 342.277,260.039 340.000,258.000" stroke-width="3.645" stroke="black" fill="none" stroke-linecap="round"></path><path d="M 340.000,258.000 C 334.402,251.967 336.092,252.315 334.000,245.000" stroke-width="3.210" stroke="black" fill="none" stroke-linecap="round"></path><path d="M 334.000,245.000 C 330.975,224.076 332.902,225.967 337.000,206.000" stroke-width="1.915" stroke="black" fill="none" stroke-linecap="round"></path><path d="M 337.000,206.000 C 346.178,184.508 343.975,185.076 360.000,167.000" stroke-width="1.633" stroke="black" fill="none" stroke-linecap="round"></path><path d="M 360.000,167.000 C 370.206,156.863 368.678,156.008 382.000,149.000" stroke-width="1.937" stroke="black" fill="none" stroke-linecap="round"></path><path d="M 382.000,149.000 C 401.707,129.233 403.206,134.863 426.000,123.000" stroke-width="1.581" stroke="black" fill="none" stroke-linecap="round"></path><path d="M 426.000,123.000 C 480.164,110.633 477.707,109.733 534.000,110.000" stroke-width="1.125" stroke="black" fill="none" stroke-linecap="round"></path><path d="M 534.000,110.000 C 565.845,112.578 565.164,109.633 596.000,121.000" stroke-width="1.125" stroke="black" fill="none" stroke-linecap="round"></path><path d="M 596.000,121.000 C 638.094,120.460 621.345,128.078 645.000,141.000" stroke-width="1.263" stroke="black" fill="none" stroke-linecap="round"></path><path d="M 645.000,141.000 C 648.210,195.770 657.594,178.460 635.000,237.000" stroke-width="2.122" stroke="black" fill="none" stroke-linecap="round"></path><path d="M 635.000,237.000 C 623.701,241.493 631.710,247.270 612.000,244.000" stroke-width="2.263" stroke="black" fill="none" stroke-linecap="round"></path><path d="M 612.000,244.000 C 602.376,244.383 602.701,245.993 593.000,246.000" stroke-width="2.466" stroke="black" fill="none" stroke-linecap="round"></path><path d="M 593.000,246.000 C 583.797,249.797 587.876,246.883 583.000,249.000" stroke-width="3.142" stroke="black" fill="none" stroke-linecap="round"></path><path d="M 583.000,249.000 C 586.034,245.203 582.297,248.297 590.000,243.000" stroke-width="4.305" stroke="black" fill="none" stroke-linecap="round"></path><path d="M 590.000,243.000 C 595.482,240.948 595.034,240.203 601.000,239.000" stroke-width="3.574" stroke="black" fill="none" stroke-linecap="round"></path><path d="M 601.000,239.000 C 603.955,237.830 603.982,237.948 607.000,237.000" stroke-width="3.882" stroke="black" fill="none" stroke-linecap="round"></path><path d="M 607.000,237.000 C 609.528,235.691 609.455,236.330 612.000,236.000" stroke-width="4.183" stroke="black" fill="none" stroke-linecap="round"></path><path d="M 612.000,236.000 C 617.793,236.856 617.528,236.691 623.000,239.000" stroke-width="4.580" stroke="black" fill="none" stroke-linecap="round"></path><path d="M 623.000,239.000 C 626.586,240.400 626.293,240.356 629.000,243.000" stroke-width="4.120" stroke="black" fill="none" stroke-linecap="round"></path><path d="M 629.000,243.000 C 633.611,247.505 633.086,247.400 636.000,253.000" stroke-width="3.422" stroke="black" fill="none" stroke-linecap="round"></path><path d="M 636.000,253.000 C 638.661,259.555 638.611,259.005 639.000,266.000" stroke-width="3.228" stroke="black" fill="none" stroke-linecap="round"></path><path d="M 639.000,266.000 C 638.894,269.589 639.161,269.055 637.000,272.000" stroke-width="3.751" stroke="black" fill="none" stroke-linecap="round"></path><path d="M 637.000,272.000 C 633.480,277.892 633.394,276.589 628.000,280.000" stroke-width="3.355" stroke="black" fill="none" stroke-linecap="round"></path><path d="M 628.000,280.000 C 613.151,284.576 613.980,285.392 598.000,287.000" stroke-width="2.276" stroke="black" fill="none" stroke-linecap="round"></path><path d="M 598.000,287.000 C 588.008,287.811 588.151,288.576 578.000,288.000" stroke-width="2.427" stroke="black" fill="none" stroke-linecap="round"></path><path d="M 578.000,288.000 C 561.480,288.549 561.508,288.311 545.000,288.000" stroke-width="2.042" stroke="black" fill="none" stroke-linecap="round"></path><path d="M 545.000,288.000 C 531.478,287.225 531.480,287.549 518.000,286.000" stroke-width="2.075" stroke="black" fill="none" stroke-linecap="round"></path><path d="M 518.000,286.000 C 509.519,284.681 509.478,285.225 501.000,284.000" stroke-width="2.487" stroke="black" fill="none" stroke-linecap="round"></path><path d="M 501.000,284.000 C 496.885,284.598 497.019,283.681 493.000,284.000" stroke-width="3.254" stroke="black" fill="none" stroke-linecap="round"></path><path d="M 493.000,284.000 C 487.885,284.185 490.385,283.598 488.000,282.000" stroke-width="4.220" stroke="black" fill="none" stroke-linecap="round"></path><path d="M 488.000,282.000 C 488.782,271.957 488.385,274.685 494.000,265.000" stroke-width="3.053" stroke="black" fill="none" stroke-linecap="round"></path><path d="M 494.000,265.000 C 502.390,256.590 500.782,255.957 512.000,250.000" stroke-width="2.537" stroke="black" fill="none" stroke-linecap="round"></path><path d="M 512.000,250.000 C 520.122,244.551 519.890,244.590 529.000,241.000" stroke-width="2.549" stroke="black" fill="none" stroke-linecap="round"></path><path d="M 529.000,241.000 C 537.868,237.826 537.622,237.551 547.000,236.000" stroke-width="2.639" stroke="black" fill="none" stroke-linecap="round"></path><path d="M 547.000,236.000 C 555.475,234.568 555.368,234.326 564.000,234.000" stroke-width="2.694" stroke="black" fill="none" stroke-linecap="round"></path><path d="M 564.000,234.000 C 570.564,233.415 570.475,233.568 577.000,234.000" stroke-width="3.021" stroke="black" fill="none" stroke-linecap="round"></path><path d="M 577.000,234.000 C 581.481,235.096 581.564,234.415 586.000,236.000" stroke-width="3.385" stroke="black" fill="none" stroke-linecap="round"></path><path d="M 586.000,236.000 C 593.617,236.138 588.981,236.596 592.000,237.000" stroke-width="3.882" stroke="black" fill="none" stroke-linecap="round"></path><path d="M 592.000,237.000 C 581.921,242.594 586.117,240.138 571.000,244.000" stroke-width="4.107" stroke="black" fill="none" stroke-linecap="round"></path><path d="M 571.000,244.000 C 530.958,246.525 531.421,249.094 491.000,250.000" stroke-width="1.217" stroke="black" fill="none" stroke-linecap="round"></path><path d="M 491.000,250.000 C 461.983,252.845 461.958,252.525 433.000,256.000" stroke-width="1.213" stroke="black" fill="none" stroke-linecap="round"></path><path d="M 433.000,256.000 C 388.513,261.118 388.483,260.845 344.000,266.000" stroke-width="1.125" stroke="black" fill="none" stroke-linecap="round"></path><path d="M 344.000,266.000 C 311.027,269.793 311.013,269.618 278.000,273.000" stroke-width="1.125" stroke="black" fill="none" stroke-linecap="round"></path><path d="M 278.000,273.000 C 259.514,276.437 259.527,274.793 241.000,276.000" stroke-width="1.444" stroke="black" fill="none" stroke-linecap="round"></path><path d="M 241.000,276.000 C 195.808,274.362 196.014,274.937 151.000,270.000" stroke-width="1.125" stroke="black" fill="none" stroke-linecap="round"></path><path d="M 151.000,270.000 C 139.497,267.515 139.308,268.862 128.000,265.000" stroke-width="1.682" stroke="black" fill="none" stroke-linecap="round"></path><path d="M 128.000,265.000 C 106.539,262.513 107.497,260.515 87.000,256.000" stroke-width="1.589" stroke="black" fill="none" stroke-linecap="round"></path><path d="M 87.000,256.000 C 80.899,252.962 81.039,254.013 77.000,248.000" stroke-width="2.489" stroke="black" fill="none" stroke-linecap="round"></path><path d="M 77.000,248.000 C 67.288,239.112 69.899,238.962 65.000,228.000" stroke-width="2.345" stroke="black" fill="none" stroke-linecap="round"></path><path d="M 65.000,228.000 C 58.177,203.213 60.288,205.112 63.000,180.000" stroke-width="1.597" stroke="black" fill="none" stroke-linecap="round"></path><path d="M 63.000,180.000 C 75.183,123.980 74.177,126.213 97.000,74.000" stroke-width="1.125" stroke="black" fill="none" stroke-linecap="round"></path><path d="M 97.000,74.000 C 107.544,64.046 102.683,60.980 118.000,54.000" stroke-width="1.482" stroke="black" fill="none" stroke-linecap="round"></path><path d="M 118.000,54.000 C 127.971,27.202 133.044,39.546 148.000,25.000" stroke-width="1.625" stroke="black" fill="none" stroke-linecap="round"></path><path d="M 148.000,25.000 C 275.145,20.162 268.971,11.702 400.000,23.000" stroke-width="1.251" stroke="black" fill="none" stroke-linecap="round"></path><path d="M 400.000,23.000 C 406.309,26.602 407.145,23.162 412.000,31.000" stroke-width="2.156" stroke="black" fill="none" stroke-linecap="round"></path><path d="M 412.000,31.000 C 419.234,34.143 417.309,35.102 422.000,40.000" stroke-width="2.762" stroke="black" fill="none" stroke-linecap="round"></path><path d="M 422.000,40.000 C 430.956,54.288 427.734,52.143 429.000,67.000" stroke-width="2.222" stroke="black" fill="none" stroke-linecap="round"></path><path d="M 429.000,67.000 C 424.255,81.879 426.956,80.288 414.000,92.000" stroke-width="2.169" stroke="black" fill="none" stroke-linecap="round"></path><path d="M 414.000,92.000 C 385.732,120.246 386.255,119.379 353.000,142.000" stroke-width="1.141" stroke="black" fill="none" stroke-linecap="round"></path><path d="M 353.000,142.000 C 304.059,172.590 305.232,173.746 253.000,199.000" stroke-width="1.125" stroke="black" fill="none" stroke-linecap="round"></path><path d="M 253.000,199.000 C 217.218,219.662 217.059,217.590 179.000,232.000" stroke-width="1.125" stroke="black" fill="none" stroke-linecap="round"></path><path d="M 179.000,232.000 C 152.625,237.659 153.718,240.162 126.000,240.000" stroke-width="1.202" stroke="black" fill="none" stroke-linecap="round"></path><path d="M 126.000,240.000 C 106.902,241.050 107.125,241.659 88.000,240.000" stroke-width="1.533" stroke="black" fill="none" stroke-linecap="round"></path><path d="M 88.000,240.000 C 79.351,239.940 79.902,239.550 72.000,237.000" stroke-width="2.238" stroke="black" fill="none" stroke-linecap="round"></path><path d="M 72.000,237.000 C 65.431,234.863 66.851,234.940 63.000,230.000" stroke-width="2.881" stroke="black" fill="none" stroke-linecap="round"></path><path d="M 63.000,230.000 C 53.531,217.840 57.931,219.863 57.000,207.000" stroke-width="2.484" stroke="black" fill="none" stroke-linecap="round"></path><path d="M 57.000,207.000 C 71.703,164.761 69.531,167.840 95.000,130.000" stroke-width="1.125" stroke="black" fill="none" stroke-linecap="round"></path><path d="M 95.000,130.000 C 107.069,120.813 103.203,117.761 120.000,113.000" stroke-width="1.646" stroke="black" fill="none" stroke-linecap="round"></path><path d="M 120.000,113.000 C 153.796,86.468 155.069,91.813 191.000,72.000" stroke-width="1.125" stroke="black" fill="none" stroke-linecap="round"></path><path d="M 191.000,72.000 C 209.835,69.547 207.796,65.468 228.000,71.000" stroke-width="1.461" stroke="black" fill="none" stroke-linecap="round"></path><path d="M 228.000,71.000 C 235.074,72.489 234.835,71.547 241.000,76.000" stroke-width="2.283" stroke="black" fill="none" stroke-linecap="round"></path><path d="M 241.000,76.000 C 248.805,80.805 248.574,80.489 255.000,87.000" stroke-width="2.536" stroke="black" fill="none" stroke-linecap="round"></path><path d="M 255.000,87.000 C 259.246,90.190 257.805,89.805 259.000,94.000" stroke-width="3.274" stroke="black" fill="none" stroke-linecap="round"></path><path d="M 259.000,94.000 C 259.055,107.683 258.246,105.690 253.000,118.000" stroke-width="2.583" stroke="black" fill="none" stroke-linecap="round"></path><path d="M 253.000,118.000 C 243.261,129.865 245.555,130.683 232.000,140.000" stroke-width="2.096" stroke="black" fill="none" stroke-linecap="round"></path><path d="M 232.000,140.000 C 222.270,146.716 223.261,147.865 213.000,154.000" stroke-width="2.271" stroke="black" fill="none" stroke-linecap="round"></path><path d="M 213.000,154.000 C 208.549,158.057 208.270,157.716 204.000,162.000" stroke-width="2.901" stroke="black" fill="none" stroke-linecap="round"></path></svg>