<svg xmlns="http://www.w3.org/2000/svg" xmlns:xlink="http://www.w3.org/1999/xlink" viewBox="0 0 354 117" width="354" height="117"><path d="M 188.578,19.000 C 185.578,19.000 185.578,19.000 182.578,19.000" stroke-width="4.251" stroke="black" fill="none" stroke-linecap="round"></path><path d="M 182.578,19.000 C 179.411,18.292 179.578,19.000 176.578,19.000" stroke-width="4.229" stroke="black" fill="none" stroke-linecap="round"></path><path d="M 176.578,19.000 C 173.657,20.681 173.411,19.792 170.578,22.000" stroke-width="4.090" stroke="black" fill="none" stroke-linecap="round"></path><path d="M 170.578,22.000 C 166.487,23.290 166.657,23.681 162.578,25.000" stroke-width="3.893" stroke="black" fill="none" stroke-linecap="round"></path><path d="M 162.578,25.000 C 158.355,26.639 158.487,26.790 154.578,29.000" stroke-width="3.746" stroke="black" fill="none" stroke-linecap="round"></path><path d="M 154.578,29.000 C 150.550,31.963 150.355,31.639 146.578,35.000" stroke-width="3.600" stroke="black" fill="none" stroke-linecap="round"></path><path d="M 146.578,35.000 C 141.860,38.253 142.050,38.463 137.578,42.000" stroke-width="3.373" stroke="black" fill="none" stroke-linecap="round"></path><path d="M 137.578,42.000 C 133.760,45.239 133.860,45.253 130.578,49.000" stroke-width="3.498" stroke="black" fill="none" stroke-linecap="round"></path><path d="M 130.578,49.000 C 127.653,51.623 128.260,51.739 126.578,55.000" stroke-width="3.845" stroke="black" fill="none" stroke-linecap="round"></path><path d="M 126.578,55.000 C 124.627,62.958 124.153,62.623 123.578,71.000" stroke-width="3.109" stroke="black" fill="none" stroke-linecap="round"></path><path d="M 123.578,71.000 C 122.049,75.133 123.127,74.458 123.578,78.000" stroke-width="3.631" stroke="black" fill="none" stroke-linecap="round"></path><path d="M 123.578,78.000 C 126.925,82.975 126.049,82.633 131.578,86.000" stroke-width="3.450" stroke="black" fill="none" stroke-linecap="round"></path><path d="M 131.578,86.000 C 137.352,89.324 136.925,89.475 143.578,91.000" stroke-width="3.467" stroke="black" fill="none" stroke-linecap="round"></path><path d="M 143.578,91.000 C 150.550,92.273 150.352,92.824 157.578,93.000" stroke-width="3.180" stroke="black" fill="none" stroke-linecap="round"></path><path d="M 157.578,93.000 C 165.070,93.758 165.050,93.773 172.578,94.000" stroke-width="3.041" stroke="black" fill="none" stroke-linecap="round"></path><path d="M 172.578,94.000 C 180.578,94.000 180.570,94.258 188.578,94.000" stroke-width="2.939" stroke="black" fill="none" stroke-linecap="round"></path><path d="M 188.578,94.000 C 196.711,95.015 196.578,94.000 204.578,94.000" stroke-width="2.910" stroke="black" fill="none" stroke-linecap="round"></path><path d="M 204.578,94.000 C 212.403,92.819 212.211,93.015 219.578,90.000" stroke-width="2.931" stroke="black" fill="none" stroke-linecap="round"></path><path d="M 219.578,90.000 C 226.097,86.535 226.403,87.319 232.578,83.000" stroke-width="2.986" stroke="black" fill="none" stroke-linecap="round"></path><path d="M 232.578,83.000 C 237.528,81.097 237.097,80.535 241.578,78.000" stroke-width="3.330" stroke="black" fill="none" stroke-linecap="round"></path><path d="M 241.578,78.000 C 245.886,74.261 246.028,74.597 249.578,70.000" stroke-width="3.363" stroke="black" fill="none" stroke-linecap="round"></path><path d="M 249.578,70.000 C 252.932,66.842 252.386,66.761 254.578,63.000" stroke-width="3.615" stroke="black" fill="none" stroke-linecap="round"></path><path d="M 254.578,63.000 C 255.578,59.500 255.932,59.842 255.578,56.000" stroke-width="3.811" stroke="black" fill="none" stroke-linecap="round"></path><path d="M 255.578,56.000 C 256.614,51.443 255.578,52.500 254.578,49.000" stroke-width="4.112" stroke="black" fill="none" stroke-linecap="round"></path><path d="M 254.578,49.000 C 250.466,45.173 251.614,45.443 245.578,44.000" stroke-width="3.666" stroke="black" fill="none" stroke-linecap="round"></path><path d="M 245.578,44.000 C 237.586,43.243 237.966,42.173 229.578,43.000" stroke-width="3.090" stroke="black" fill="none" stroke-linecap="round"></path><path d="M 229.578,43.000 C 221.046,42.487 221.086,42.743 212.578,43.000" stroke-width="2.949" stroke="black" fill="none" stroke-linecap="round"></path><path d="M 212.578,43.000 C 204.368,43.111 204.546,43.487 196.578,45.000" stroke-width="2.778" stroke="black" fill="none" stroke-linecap="round"></path><path d="M 196.578,45.000 C 187.569,47.004 187.868,47.111 179.578,51.000" stroke-width="2.744" stroke="black" fill="none" stroke-linecap="round"></path><path d="M 179.578,51.000 C 172.371,54.734 172.569,54.504 166.578,60.000" stroke-width="2.803" stroke="black" fill="none" stroke-linecap="round"></path><path d="M 166.578,60.000 C 160.914,64.935 161.371,64.734 157.578,71.000" stroke-width="2.981" stroke="black" fill="none" stroke-linecap="round"></path><path d="M 157.578,71.000 C 155.785,75.444 155.414,74.935 155.578,80.000" stroke-width="3.418" stroke="black" fill="none" stroke-linecap="round"></path><path d="M 155.578,80.000 C 153.803,87.703 155.285,86.444 156.578,93.000" stroke-width="3.307" stroke="black" fill="none" stroke-linecap="round"></path><path d="M 156.578,93.000 C 160.824,98.787 159.303,98.203 166.578,101.000" stroke-width="3.237" stroke="black" fill="none" stroke-linecap="round"></path></svg>