<svg xmlns="http://www.w3.org/2000/svg" xmlns:xlink="http://www.w3.org/1999/xlink" viewBox="0 0 600 369" width="600" height="369"><path d="M 85.000,270.500 C 89.504,270.345 89.500,270.500 94.000,270.500" stroke-width="4.767" stroke="black" fill="none" stroke-linecap="round"></path><path d="M 94.000,270.500 C 104.093,270.192 104.004,270.845 114.000,271.500" stroke-width="2.994" stroke="black" fill="none" stroke-linecap="round"></path><path d="M 114.000,271.500 C 130.569,274.162 130.593,273.692 147.000,277.500" stroke-width="2.127" stroke="black" fill="none" stroke-linecap="round"></path><path d="M 147.000,277.500 C 162.445,281.272 162.569,280.662 178.000,284.500" stroke-width="1.890" stroke="black" fill="none" stroke-linecap="round"></path><path d="M 178.000,284.500 C 188.937,287.005 188.945,286.772 200.000,288.500" stroke-width="2.188" stroke="black" fill="none" stroke-linecap="round"></path><path d="M 200.000,288.500 C 207.589,288.489 207.437,289.505 215.000,289.500" stroke-width="2.691" stroke="black" fill="none" stroke-linecap="round"></path><path d="M 215.000,289.500 C 221.564,289.322 218.589,289.989 222.000,291.500" stroke-width="3.526" stroke="black" fill="none" stroke-linecap="round"></path><path d="M 222.000,291.500 C 220.656,296.722 222.564,294.322 217.000,299.500" stroke-width="4.097" stroke="black" fill="none" stroke-linecap="round"></path><path d="M 217.000,299.500 C 207.108,305.205 208.156,306.222 197.000,310.500" stroke-width="2.742" stroke="black" fill="none" stroke-linecap="round"></path><path d="M 197.000,310.500 C 186.211,316.484 186.108,316.205 175.000,321.500" stroke-width="2.416" stroke="black" fill="none" stroke-linecap="round"></path><path d="M 175.000,321.500 C 167.070,324.707 167.211,324.984 159.000,327.500" stroke-width="2.676" stroke="black" fill="none" stroke-linecap="round"></path><path d="M 159.000,327.500 C 146.961,332.156 154.070,329.207 149.000,330.500" stroke-width="3.195" stroke="black" fill="none" stroke-linecap="round"></path><path d="M 149.000,330.500 C 161.436,321.401 154.961,325.656 175.000,314.500" stroke-width="3.380" stroke="black" fill="none" stroke-linecap="round"></path><path d="M 175.000,314.500 C 190.302,307.480 189.936,306.901 206.000,301.500" stroke-width="2.107" stroke="black" fill="none" stroke-linecap="round"></path><path d="M 206.000,301.500 C 221.810,295.357 221.802,295.480 238.000,290.500" stroke-width="1.943" stroke="black" fill="none" stroke-linecap="round"></path><path d="M 238.000,290.500 C 251.868,286.265 251.810,286.357 266.000,283.500" stroke-width="1.987" stroke="black" fill="none" stroke-linecap="round"></path><path d="M 266.000,283.500 C 275.004,282.538 274.868,281.765 284.000,281.500" stroke-width="2.451" stroke="black" fill="none" stroke-linecap="round"></path><path d="M 284.000,281.500 C 292.874,278.251 288.004,281.038 292.000,280.500" stroke-width="3.269" stroke="black" fill="none" stroke-linecap="round"></path><path d="M 292.000,280.500 C 284.793,290.246 289.374,287.251 277.000,299.500" stroke-width="3.585" stroke="black" fill="none" stroke-linecap="round"></path><path d="M 277.000,299.500 C 267.710,308.418 268.793,309.246 260.000,318.500" stroke-width="2.533" stroke="black" fill="none" stroke-linecap="round"></path><path d="M 260.000,318.500 C 255.180,325.836 254.710,325.418 251.000,333.500" stroke-width="2.696" stroke="black" fill="none" stroke-linecap="round"></path><path d="M 251.000,333.500 C 248.000,337.102 249.180,336.836 248.000,340.500" stroke-width="3.468" stroke="black" fill="none" stroke-linecap="round"></path><path d="M 248.000,340.500 C 248.362,345.720 248.000,343.102 251.000,345.500" stroke-width="3.902" stroke="black" fill="none" stroke-linecap="round"></path><path d="M 251.000,345.500 C 268.672,344.313 266.362,344.220 284.000,337.500" stroke-width="2.484" stroke="black" fill="none" stroke-linecap="round"></path><path d="M 284.000,337.500 C 303.813,325.983 304.672,328.313 323.000,313.500" stroke-width="1.723" stroke="black" fill="none" stroke-linecap="round"></path></svg>