<svg xmlns="http://www.w3.org/2000/svg" xmlns:xlink="http://www.w3.org/1999/xlink" viewBox="0 0 664 369" width="664" height="369"><path d="M 169.233,224.000 C 164.968,223.600 165.233,223.000 161.233,222.000" stroke-width="5.480" stroke="black" fill="none" stroke-linecap="round"></path><path d="M 161.233,222.000 C 158.274,219.935 157.968,220.600 155.233,218.000" stroke-width="5.063" stroke="black" fill="none" stroke-linecap="round"></path><path d="M 155.233,218.000 C 152.733,216.500 152.774,216.435 150.233,215.000" stroke-width="5.022" stroke="black" fill="none" stroke-linecap="round"></path><path d="M 150.233,215.000 C 147.833,213.300 147.733,213.500 145.233,212.000" stroke-width="5.009" stroke="black" fill="none" stroke-linecap="round"></path><path d="M 145.233,212.000 C 142.682,211.113 142.833,210.800 140.233,210.000" stroke-width="5.057" stroke="black" fill="none" stroke-linecap="round"></path><path d="M 140.233,210.000 C 137.176,208.605 137.182,208.613 134.233,207.000" stroke-width="4.971" stroke="black" fill="none" stroke-linecap="round"></path><path d="M 134.233,207.000 C 129.233,205.808 131.676,205.605 129.233,204.000" stroke-width="5.257" stroke="black" fill="none" stroke-linecap="round"></path><path d="M 129.233,204.000 C 131.195,200.519 129.233,201.808 134.233,199.000" stroke-width="5.406" stroke="black" fill="none" stroke-linecap="round"></path><path d="M 134.233,199.000 C 138.746,198.056 138.195,197.019 143.233,197.000" stroke-width="4.680" stroke="black" fill="none" stroke-linecap="round"></path><path d="M 143.233,197.000 C 147.301,196.210 147.246,196.056 151.233,195.000" stroke-width="4.553" stroke="black" fill="none" stroke-linecap="round"></path><path d="M 151.233,195.000 C 153.642,193.691 153.801,194.210 156.233,193.000" stroke-width="4.306" stroke="black" fill="none" stroke-linecap="round"></path><path d="M 156.233,193.000 C 161.367,192.431 161.142,191.691 166.233,191.000" stroke-width="4.278" stroke="black" fill="none" stroke-linecap="round"></path><path d="M 166.233,191.000 C 169.640,189.198 169.867,189.931 173.233,188.000" stroke-width="3.995" stroke="black" fill="none" stroke-linecap="round"></path><path d="M 173.233,188.000 C 175.858,187.864 175.640,187.198 178.233,187.000" stroke-width="4.181" stroke="black" fill="none" stroke-linecap="round"></path><path d="M 178.233,187.000 C 181.275,185.578 181.358,185.864 184.233,184.000" stroke-width="4.026" stroke="black" fill="none" stroke-linecap="round"></path><path d="M 184.233,184.000 C 188.823,181.646 188.775,181.578 193.233,179.000" stroke-width="3.645" stroke="black" fill="none" stroke-linecap="round"></path><path d="M 193.233,179.000 C 196.456,177.272 196.323,177.146 199.233,175.000" stroke-width="3.805" stroke="black" fill="none" stroke-linecap="round"></path><path d="M 199.233,175.000 C 201.526,172.256 201.956,172.772 204.233,170.000" stroke-width="3.921" stroke="black" fill="none" stroke-linecap="round"></path><path d="M 204.233,170.000 C 207.961,167.769 207.526,167.256 211.233,165.000" stroke-width="3.733" stroke="black" fill="none" stroke-linecap="round"></path><path d="M 211.233,165.000 C 214.384,162.135 214.461,162.269 217.233,159.000" stroke-width="4.240" stroke="black" fill="none" stroke-linecap="round"></path><path d="M 217.233,159.000 C 218.981,156.252 219.384,156.635 221.233,154.000" stroke-width="4.082" stroke="black" fill="none" stroke-linecap="round"></path><path d="M 221.233,154.000 C 224.233,151.500 223.981,151.252 227.233,149.000" stroke-width="4.414" stroke="black" fill="none" stroke-linecap="round"></path><path d="M 227.233,149.000 C 230.486,146.748 230.233,146.500 233.233,144.000" stroke-width="3.950" stroke="black" fill="none" stroke-linecap="round"></path><path d="M 233.233,144.000 C 235.058,141.343 235.486,141.748 237.233,139.000" stroke-width="4.044" stroke="black" fill="none" stroke-linecap="round"></path><path d="M 237.233,139.000 C 241.594,134.349 241.558,134.343 246.233,130.000" stroke-width="4.055" stroke="black" fill="none" stroke-linecap="round"></path><path d="M 246.233,130.000 C 249.586,126.806 249.594,126.849 253.233,124.000" stroke-width="4.526" stroke="black" fill="none" stroke-linecap="round"></path><path d="M 253.233,124.000 C 258.673,120.000 256.086,121.806 259.233,120.000" stroke-width="4.792" stroke="black" fill="none" stroke-linecap="round"></path><path d="M 259.233,120.000 C 257.233,122.000 259.673,120.000 255.233,124.000" stroke-width="5.243" stroke="black" fill="none" stroke-linecap="round"></path><path d="M 255.233,124.000 C 251.923,126.734 252.233,127.000 249.233,130.000" stroke-width="4.038" stroke="black" fill="none" stroke-linecap="round"></path><path d="M 249.233,130.000 C 245.063,135.384 244.923,135.234 241.233,141.000" stroke-width="3.284" stroke="black" fill="none" stroke-linecap="round"></path><path d="M 241.233,141.000 C 237.318,146.272 237.563,146.384 234.233,152.000" stroke-width="3.152" stroke="black" fill="none" stroke-linecap="round"></path><path d="M 234.233,152.000 C 231.190,159.745 230.318,159.272 227.233,167.000" stroke-width="2.802" stroke="black" fill="none" stroke-linecap="round"></path><path d="M 227.233,167.000 C 222.393,176.494 222.190,176.245 216.233,185.000" stroke-width="2.460" stroke="black" fill="none" stroke-linecap="round"></path><path d="M 216.233,185.000 C 211.110,190.392 211.893,190.994 206.233,196.000" stroke-width="2.815" stroke="black" fill="none" stroke-linecap="round"></path><path d="M 206.233,196.000 C 201.207,201.979 201.110,201.892 196.233,208.000" stroke-width="2.837" stroke="black" fill="none" stroke-linecap="round"></path><path d="M 196.233,208.000 C 192.236,213.998 191.707,213.479 187.233,219.000" stroke-width="2.992" stroke="black" fill="none" stroke-linecap="round"></path><path d="M 187.233,219.000 C 181.110,223.858 181.736,224.498 175.233,229.000" stroke-width="2.888" stroke="black" fill="none" stroke-linecap="round"></path><path d="M 175.233,229.000 C 168.984,234.249 169.110,234.358 163.233,240.000" stroke-width="2.878" stroke="black" fill="none" stroke-linecap="round"></path><path d="M 163.233,240.000 C 156.618,247.911 155.984,247.249 149.233,255.000" stroke-width="2.699" stroke="black" fill="none" stroke-linecap="round"></path><path d="M 149.233,255.000 C 143.647,259.399 144.118,259.911 138.233,264.000" stroke-width="2.944" stroke="black" fill="none" stroke-linecap="round"></path><path d="M 138.233,264.000 C 133.679,267.941 133.647,267.899 129.233,272.000" stroke-width="3.180" stroke="black" fill="none" stroke-linecap="round"></path><path d="M 129.233,272.000 C 122.275,278.545 122.179,278.441 115.233,285.000" stroke-width="2.788" stroke="black" fill="none" stroke-linecap="round"></path><path d="M 115.233,285.000 C 110.645,290.064 110.275,289.545 105.233,294.000" stroke-width="3.026" stroke="black" fill="none" stroke-linecap="round"></path><path d="M 105.233,294.000 C 99.432,297.900 99.645,298.064 93.233,301.000" stroke-width="3.074" stroke="black" fill="none" stroke-linecap="round"></path><path d="M 93.233,301.000 C 87.304,303.688 87.432,303.900 81.233,306.000" stroke-width="3.153" stroke="black" fill="none" stroke-linecap="round"></path><path d="M 81.233,306.000 C 76.828,308.081 76.804,307.688 72.233,309.000" stroke-width="3.916" stroke="black" fill="none" stroke-linecap="round"></path><path d="M 72.233,309.000 C 69.233,309.000 69.328,309.581 66.233,309.000" stroke-width="4.037" stroke="black" fill="none" stroke-linecap="round"></path><path d="M 66.233,309.000 C 62.733,309.000 62.733,309.000 59.233,309.000" stroke-width="4.441" stroke="black" fill="none" stroke-linecap="round"></path><path d="M 59.233,309.000 C 55.214,309.265 55.233,309.000 51.233,309.000" stroke-width="4.482" stroke="black" fill="none" stroke-linecap="round"></path><path d="M 51.233,309.000 C 46.803,309.977 47.714,308.765 44.233,308.000" stroke-width="4.586" stroke="black" fill="none" stroke-linecap="round"></path><path d="M 44.233,308.000 C 40.038,303.964 40.303,304.977 38.233,299.000" stroke-width="3.650" stroke="black" fill="none" stroke-linecap="round"></path><path d="M 38.233,299.000 C 36.756,292.536 36.038,292.964 36.233,286.000" stroke-width="3.237" stroke="black" fill="none" stroke-linecap="round"></path><path d="M 36.233,286.000 C 36.233,280.000 35.756,280.036 36.233,274.000" stroke-width="3.221" stroke="black" fill="none" stroke-linecap="round"></path><path d="M 36.233,274.000 C 36.009,269.490 36.233,269.500 36.233,265.000" stroke-width="3.477" stroke="black" fill="none" stroke-linecap="round"></path><path d="M 36.233,265.000 C 35.968,259.316 36.509,259.490 37.233,254.000" stroke-width="3.430" stroke="black" fill="none" stroke-linecap="round"></path><path d="M 37.233,254.000 C 38.625,248.637 38.468,248.816 41.233,244.000" stroke-width="3.439" stroke="black" fill="none" stroke-linecap="round"></path><path d="M 41.233,244.000 C 43.161,240.304 43.125,240.637 46.233,238.000" stroke-width="3.720" stroke="black" fill="none" stroke-linecap="round"></path><path d="M 46.233,238.000 C 51.592,234.708 51.161,234.304 57.233,232.000" stroke-width="3.305" stroke="black" fill="none" stroke-linecap="round"></path><path d="M 57.233,232.000 C 64.017,228.320 64.092,228.708 71.233,226.000" stroke-width="3.061" stroke="black" fill="none" stroke-linecap="round"></path><path d="M 71.233,226.000 C 78.182,224.175 78.017,223.820 85.233,223.000" stroke-width="3.056" stroke="black" fill="none" stroke-linecap="round"></path><path d="M 85.233,223.000 C 90.224,222.385 90.182,222.175 95.233,222.000" stroke-width="3.325" stroke="black" fill="none" stroke-linecap="round"></path><path d="M 95.233,222.000 C 103.257,221.748 103.224,221.385 111.233,221.000" stroke-width="3.012" stroke="black" fill="none" stroke-linecap="round"></path><path d="M 111.233,221.000 C 119.208,219.594 119.257,220.248 127.233,219.000" stroke-width="2.861" stroke="black" fill="none" stroke-linecap="round"></path><path d="M 127.233,219.000 C 132.745,219.249 132.708,218.594 138.233,219.000" stroke-width="3.228" stroke="black" fill="none" stroke-linecap="round"></path><path d="M 138.233,219.000 C 143.733,218.500 143.745,218.749 149.233,218.000" stroke-width="3.353" stroke="black" fill="none" stroke-linecap="round"></path><path d="M 149.233,218.000 C 160.220,216.711 160.233,217.000 171.233,216.000" stroke-width="2.662" stroke="black" fill="none" stroke-linecap="round"></path><path d="M 171.233,216.000 C 175.769,216.425 175.720,215.711 180.233,216.000" stroke-width="3.300" stroke="black" fill="none" stroke-linecap="round"></path><path d="M 180.233,216.000 C 186.260,215.138 186.269,215.425 192.233,214.000" stroke-width="3.226" stroke="black" fill="none" stroke-linecap="round"></path><path d="M 192.233,214.000 C 196.785,213.186 196.760,213.138 201.233,212.000" stroke-width="3.510" stroke="black" fill="none" stroke-linecap="round"></path><path d="M 201.233,212.000 C 204.256,211.063 204.285,211.186 207.233,210.000" stroke-width="3.859" stroke="black" fill="none" stroke-linecap="round"></path><path d="M 207.233,210.000 C 211.312,208.681 211.256,208.563 215.233,207.000" stroke-width="3.778" stroke="black" fill="none" stroke-linecap="round"></path><path d="M 215.233,207.000 C 218.342,205.687 218.312,205.681 221.233,204.000" stroke-width="4.364" stroke="black" fill="none" stroke-linecap="round"></path><path d="M 221.233,204.000 C 227.233,199.342 224.342,202.187 227.233,200.000" stroke-width="4.554" stroke="black" fill="none" stroke-linecap="round"></path><path d="M 227.233,200.000 C 224.376,203.632 227.233,200.842 221.233,207.000" stroke-width="5.139" stroke="black" fill="none" stroke-linecap="round"></path><path d="M 221.233,207.000 C 216.898,210.725 217.376,211.132 213.233,215.000" stroke-width="4.435" stroke="black" fill="none" stroke-linecap="round"></path><path d="M 213.233,215.000 C 211.122,217.931 210.898,217.725 209.233,221.000" stroke-width="4.543" stroke="black" fill="none" stroke-linecap="round"></path><path d="M 209.233,221.000 C 206.304,224.253 207.122,224.431 205.233,228.000" stroke-width="4.546" stroke="black" fill="none" stroke-linecap="round"></path><path d="M 205.233,228.000 C 204.668,231.609 204.304,231.253 205.233,235.000" stroke-width="4.628" stroke="black" fill="none" stroke-linecap="round"></path><path d="M 205.233,235.000 C 205.431,238.198 205.668,237.609 207.233,240.000" stroke-width="4.785" stroke="black" fill="none" stroke-linecap="round"></path><path d="M 207.233,240.000 C 210.483,242.750 209.931,242.698 214.233,244.000" stroke-width="4.062" stroke="black" fill="none" stroke-linecap="round"></path><path d="M 214.233,244.000 C 218.233,245.000 217.983,245.250 222.233,245.000" stroke-width="4.355" stroke="black" fill="none" stroke-linecap="round"></path><path d="M 222.233,245.000 C 226.463,245.257 226.233,245.000 230.233,244.000" stroke-width="4.469" stroke="black" fill="none" stroke-linecap="round"></path><path d="M 230.233,244.000 C 235.304,241.629 235.463,242.257 240.233,239.000" stroke-width="4.278" stroke="black" fill="none" stroke-linecap="round"></path><path d="M 240.233,239.000 C 242.750,237.528 242.804,237.629 245.233,236.000" stroke-width="4.258" stroke="black" fill="none" stroke-linecap="round"></path><path d="M 245.233,236.000 C 252.707,233.896 249.250,233.528 253.233,231.000" stroke-width="4.318" stroke="black" fill="none" stroke-linecap="round"></path><path d="M 253.233,231.000 C 250.748,226.757 253.707,228.396 247.233,225.000" stroke-width="4.983" stroke="black" fill="none" stroke-linecap="round"></path><path d="M 247.233,225.000 C 244.233,225.000 244.748,223.757 241.233,225.000" stroke-width="4.840" stroke="black" fill="none" stroke-linecap="round"></path><path d="M 241.233,225.000 C 238.220,224.787 238.233,225.000 235.233,225.000" stroke-width="4.767" stroke="black" fill="none" stroke-linecap="round"></path><path d="M 235.233,225.000 C 231.130,225.101 231.220,225.287 227.233,226.000" stroke-width="4.592" stroke="black" fill="none" stroke-linecap="round"></path><path d="M 227.233,226.000 C 224.154,226.320 224.630,226.601 222.233,228.000" stroke-width="4.746" stroke="black" fill="none" stroke-linecap="round"></path><path d="M 222.233,228.000 C 218.980,230.716 220.154,229.820 219.233,233.000" stroke-width="5.180" stroke="black" fill="none" stroke-linecap="round"></path><path d="M 219.233,233.000 C 220.873,235.584 219.480,235.216 223.233,237.000" stroke-width="4.925" stroke="black" fill="none" stroke-linecap="round"></path><path d="M 223.233,237.000 C 226.134,238.828 225.873,238.584 229.233,239.000" stroke-width="4.263" stroke="black" fill="none" stroke-linecap="round"></path><path d="M 229.233,239.000 C 235.381,239.219 235.134,239.328 241.233,238.000" stroke-width="4.138" stroke="black" fill="none" stroke-linecap="round"></path><path d="M 241.233,238.000 C 247.431,236.443 247.381,236.719 253.233,234.000" stroke-width="3.454" stroke="black" fill="none" stroke-linecap="round"></path><path d="M 253.233,234.000 C 256.632,231.801 256.931,232.443 260.233,230.000" stroke-width="3.649" stroke="black" fill="none" stroke-linecap="round"></path><path d="M 260.233,230.000 C 264.928,228.375 264.632,227.801 269.233,226.000" stroke-width="3.530" stroke="black" fill="none" stroke-linecap="round"></path><path d="M 269.233,226.000 C 279.494,220.381 279.428,220.375 289.233,214.000" stroke-width="2.559" stroke="black" fill="none" stroke-linecap="round"></path><path d="M 289.233,214.000 C 293.759,210.532 293.994,210.881 298.233,207.000" stroke-width="3.027" stroke="black" fill="none" stroke-linecap="round"></path><path d="M 298.233,207.000 C 303.133,202.869 303.259,203.032 308.233,199.000" stroke-width="3.094" stroke="black" fill="none" stroke-linecap="round"></path><path d="M 308.233,199.000 C 318.374,192.716 317.633,191.869 327.233,185.000" stroke-width="2.469" stroke="black" fill="none" stroke-linecap="round"></path><path d="M 327.233,185.000 C 333.912,179.002 333.874,179.216 339.233,172.000" stroke-width="2.716" stroke="black" fill="none" stroke-linecap="round"></path><path d="M 339.233,172.000 C 342.480,165.839 343.412,166.502 346.233,160.000" stroke-width="2.971" stroke="black" fill="none" stroke-linecap="round"></path><path d="M 346.233,160.000 C 351.509,151.833 351.480,151.839 357.233,144.000" stroke-width="2.656" stroke="black" fill="none" stroke-linecap="round"></path><path d="M 357.233,144.000 C 361.491,139.182 361.009,138.833 365.233,134.000" stroke-width="3.020" stroke="black" fill="none" stroke-linecap="round"></path><path d="M 365.233,134.000 C 367.498,129.830 367.991,130.182 370.233,126.000" stroke-width="3.365" stroke="black" fill="none" stroke-linecap="round"></path><path d="M 370.233,126.000 C 372.711,122.981 372.498,122.830 375.233,120.000" stroke-width="3.693" stroke="black" fill="none" stroke-linecap="round"></path><path d="M 375.233,120.000 C 378.477,116.675 378.211,116.481 381.233,113.000" stroke-width="4.177" stroke="black" fill="none" stroke-linecap="round"></path><path d="M 381.233,113.000 C 385.705,108.818 382.977,110.675 384.233,108.000" stroke-width="4.582" stroke="black" fill="none" stroke-linecap="round"></path><path d="M 384.233,108.000 C 377.964,106.754 381.205,106.318 372.233,108.000" stroke-width="4.914" stroke="black" fill="none" stroke-linecap="round"></path><path d="M 372.233,108.000 C 366.142,109.564 366.464,109.254 361.233,113.000" stroke-width="3.578" stroke="black" fill="none" stroke-linecap="round"></path><path d="M 361.233,113.000 C 351.844,121.136 351.142,120.064 342.233,129.000" stroke-width="2.563" stroke="black" fill="none" stroke-linecap="round"></path><path d="M 342.233,129.000 C 335.277,134.557 335.344,134.636 328.233,140.000" stroke-width="2.690" stroke="black" fill="none" stroke-linecap="round"></path><path d="M 328.233,140.000 C 323.752,142.481 324.277,143.057 320.233,146.000" stroke-width="3.187" stroke="black" fill="none" stroke-linecap="round"></path><path d="M 320.233,146.000 C 312.742,153.632 312.752,153.481 306.233,162.000" stroke-width="2.672" stroke="black" fill="none" stroke-linecap="round"></path><path d="M 306.233,162.000 C 302.786,167.534 302.242,167.132 299.233,173.000" stroke-width="3.060" stroke="black" fill="none" stroke-linecap="round"></path><path d="M 299.233,173.000 C 296.287,177.537 296.286,177.534 293.233,182.000" stroke-width="3.203" stroke="black" fill="none" stroke-linecap="round"></path><path d="M 293.233,182.000 C 289.365,186.781 289.787,187.037 286.233,192.000" stroke-width="3.194" stroke="black" fill="none" stroke-linecap="round"></path><path d="M 286.233,192.000 C 283.613,196.944 283.365,196.781 281.233,202.000" stroke-width="3.331" stroke="black" fill="none" stroke-linecap="round"></path><path d="M 281.233,202.000 C 279.760,205.511 279.613,205.444 278.233,209.000" stroke-width="3.700" stroke="black" fill="none" stroke-linecap="round"></path><path d="M 278.233,209.000 C 275.881,213.388 276.260,213.511 274.233,218.000" stroke-width="3.602" stroke="black" fill="none" stroke-linecap="round"></path><path d="M 274.233,218.000 C 274.097,220.625 273.381,220.388 273.233,223.000" stroke-width="4.042" stroke="black" fill="none" stroke-linecap="round"></path><path d="M 273.233,223.000 C 269.134,227.021 272.097,226.125 270.233,229.000" stroke-width="4.480" stroke="black" fill="none" stroke-linecap="round"></path><path d="M 270.233,229.000 C 274.163,231.374 271.634,231.521 278.233,232.000" stroke-width="5.069" stroke="black" fill="none" stroke-linecap="round"></path><path d="M 278.233,232.000 C 280.741,231.534 280.663,232.374 283.233,231.000" stroke-width="4.526" stroke="black" fill="none" stroke-linecap="round"></path><path d="M 283.233,231.000 C 287.892,230.447 287.741,230.034 292.233,229.000" stroke-width="3.810" stroke="black" fill="none" stroke-linecap="round"></path><path d="M 292.233,229.000 C 295.145,227.287 295.392,227.947 298.233,226.000" stroke-width="3.916" stroke="black" fill="none" stroke-linecap="round"></path><path d="M 298.233,226.000 C 301.521,225.550 301.145,224.787 304.233,224.000" stroke-width="3.996" stroke="black" fill="none" stroke-linecap="round"></path><path d="M 304.233,224.000 C 307.951,220.519 308.521,221.550 312.233,218.000" stroke-width="3.606" stroke="black" fill="none" stroke-linecap="round"></path><path d="M 312.233,218.000 C 316.666,215.827 316.451,215.519 321.233,214.000" stroke-width="3.575" stroke="black" fill="none" stroke-linecap="round"></path><path d="M 321.233,214.000 C 324.212,212.930 324.166,212.827 327.233,212.000" stroke-width="3.883" stroke="black" fill="none" stroke-linecap="round"></path><path d="M 327.233,212.000 C 330.670,210.548 330.712,210.930 334.233,210.000" stroke-width="3.922" stroke="black" fill="none" stroke-linecap="round"></path><path d="M 334.233,210.000 C 339.260,208.540 337.170,209.548 340.233,210.000" stroke-width="4.612" stroke="black" fill="none" stroke-linecap="round"></path><path d="M 340.233,210.000 C 339.942,213.438 341.260,211.540 338.233,216.000" stroke-width="4.872" stroke="black" fill="none" stroke-linecap="round"></path><path d="M 338.233,216.000 C 335.233,219.000 335.942,219.438 332.233,222.000" stroke-width="4.030" stroke="black" fill="none" stroke-linecap="round"></path><path d="M 332.233,222.000 C 325.543,227.142 328.733,225.500 325.233,229.000" stroke-width="4.213" stroke="black" fill="none" stroke-linecap="round"></path><path d="M 325.233,229.000 C 328.292,228.735 325.043,230.142 331.233,228.000" stroke-width="4.939" stroke="black" fill="none" stroke-linecap="round"></path><path d="M 331.233,228.000 C 334.284,227.134 334.292,227.235 337.233,226.000" stroke-width="4.267" stroke="black" fill="none" stroke-linecap="round"></path><path d="M 337.233,226.000 C 340.713,224.450 340.784,224.634 344.233,223.000" stroke-width="3.937" stroke="black" fill="none" stroke-linecap="round"></path><path d="M 344.233,223.000 C 349.121,220.598 349.213,220.950 354.233,219.000" stroke-width="3.516" stroke="black" fill="none" stroke-linecap="round"></path><path d="M 354.233,219.000 C 357.262,218.637 357.121,218.098 360.233,218.000" stroke-width="3.890" stroke="black" fill="none" stroke-linecap="round"></path><path d="M 360.233,218.000 C 367.499,214.776 364.262,217.137 368.233,216.000" stroke-width="4.280" stroke="black" fill="none" stroke-linecap="round"></path><path d="M 368.233,216.000 C 365.386,219.310 368.999,217.276 363.233,223.000" stroke-width="4.798" stroke="black" fill="none" stroke-linecap="round"></path><path d="M 363.233,223.000 C 360.026,226.994 361.886,225.310 361.233,228.000" stroke-width="4.984" stroke="black" fill="none" stroke-linecap="round"></path><path d="M 361.233,228.000 C 365.249,228.249 363.026,229.494 369.233,228.000" stroke-width="4.989" stroke="black" fill="none" stroke-linecap="round"></path><path d="M 369.233,228.000 C 373.233,227.500 373.249,227.749 377.233,227.000" stroke-width="4.044" stroke="black" fill="none" stroke-linecap="round"></path><path d="M 377.233,227.000 C 381.260,226.662 381.233,226.500 385.233,226.000" stroke-width="4.366" stroke="black" fill="none" stroke-linecap="round"></path><path d="M 385.233,226.000 C 390.367,225.431 390.260,225.162 395.233,224.000" stroke-width="5.108" stroke="black" fill="none" stroke-linecap="round"></path><path d="M 395.233,224.000 C 398.682,222.366 398.867,222.931 402.233,221.000" stroke-width="4.125" stroke="black" fill="none" stroke-linecap="round"></path><path d="M 402.233,221.000 C 405.258,220.071 405.182,219.866 408.233,219.000" stroke-width="4.059" stroke="black" fill="none" stroke-linecap="round"></path><path d="M 408.233,219.000 C 417.839,215.758 417.758,215.571 427.233,212.000" stroke-width="2.885" stroke="black" fill="none" stroke-linecap="round"></path><path d="M 427.233,212.000 C 432.943,209.886 432.839,209.758 438.233,207.000" stroke-width="3.102" stroke="black" fill="none" stroke-linecap="round"></path><path d="M 438.233,207.000 C 444.097,203.995 443.943,203.886 449.233,200.000" stroke-width="3.100" stroke="black" fill="none" stroke-linecap="round"></path><path d="M 449.233,200.000 C 462.588,190.347 462.097,189.995 474.233,179.000" stroke-width="2.173" stroke="black" fill="none" stroke-linecap="round"></path><path d="M 474.233,179.000 C 480.773,170.082 482.088,171.347 488.233,162.000" stroke-width="2.305" stroke="black" fill="none" stroke-linecap="round"></path><path d="M 488.233,162.000 C 499.812,151.518 498.773,150.582 510.233,140.000" stroke-width="2.073" stroke="black" fill="none" stroke-linecap="round"></path><path d="M 510.233,140.000 C 517.584,129.342 518.812,130.518 526.233,120.000" stroke-width="2.135" stroke="black" fill="none" stroke-linecap="round"></path><path d="M 526.233,120.000 C 530.782,116.561 530.084,115.842 535.233,113.000" stroke-width="2.781" stroke="black" fill="none" stroke-linecap="round"></path><path d="M 535.233,113.000 C 541.492,109.811 538.282,110.561 541.233,108.000" stroke-width="3.412" stroke="black" fill="none" stroke-linecap="round"></path><path d="M 541.233,108.000 C 537.671,105.339 540.992,106.311 534.233,106.000" stroke-width="4.572" stroke="black" fill="none" stroke-linecap="round"></path><path d="M 534.233,106.000 C 524.395,108.754 524.671,107.839 515.233,113.000" stroke-width="2.956" stroke="black" fill="none" stroke-linecap="round"></path><path d="M 515.233,113.000 C 504.223,118.982 503.895,118.254 493.233,125.000" stroke-width="2.376" stroke="black" fill="none" stroke-linecap="round"></path><path d="M 493.233,125.000 C 482.903,129.998 483.223,130.482 473.233,136.000" stroke-width="2.448" stroke="black" fill="none" stroke-linecap="round"></path><path d="M 473.233,136.000 C 468.733,139.500 468.403,138.998 464.233,143.000" stroke-width="2.979" stroke="black" fill="none" stroke-linecap="round"></path><path d="M 464.233,143.000 C 458.965,145.801 459.733,146.500 455.233,150.000" stroke-width="3.240" stroke="black" fill="none" stroke-linecap="round"></path><path d="M 455.233,150.000 C 450.945,155.125 450.965,154.801 448.233,161.000" stroke-width="3.140" stroke="black" fill="none" stroke-linecap="round"></path><path d="M 448.233,161.000 C 445.372,168.397 444.945,168.125 443.233,176.000" stroke-width="2.979" stroke="black" fill="none" stroke-linecap="round"></path><path d="M 443.233,176.000 C 441.157,184.483 440.872,184.397 439.233,193.000" stroke-width="2.770" stroke="black" fill="none" stroke-linecap="round"></path><path d="M 439.233,193.000 C 437.968,200.060 437.657,199.983 436.233,207.000" stroke-width="2.963" stroke="black" fill="none" stroke-linecap="round"></path><path d="M 436.233,207.000 C 434.883,212.051 434.968,212.060 433.233,217.000" stroke-width="3.310" stroke="black" fill="none" stroke-linecap="round"></path><path d="M 433.233,217.000 C 432.234,221.285 431.883,221.051 430.233,225.000" stroke-width="3.552" stroke="black" fill="none" stroke-linecap="round"></path><path d="M 430.233,225.000 C 425.955,228.887 428.734,227.785 426.233,230.000" stroke-width="4.454" stroke="black" fill="none" stroke-linecap="round"></path><path d="M 426.233,230.000 C 428.884,229.940 426.455,230.887 431.233,229.000" stroke-width="4.991" stroke="black" fill="none" stroke-linecap="round"></path><path d="M 431.233,229.000 C 436.483,226.903 436.384,226.940 441.233,224.000" stroke-width="4.385" stroke="black" fill="none" stroke-linecap="round"></path><path d="M 441.233,224.000 C 444.974,220.593 445.483,221.403 449.233,218.000" stroke-width="3.695" stroke="black" fill="none" stroke-linecap="round"></path><path d="M 449.233,218.000 C 456.546,213.603 456.474,213.593 464.233,210.000" stroke-width="3.030" stroke="black" fill="none" stroke-linecap="round"></path><path d="M 464.233,210.000 C 472.643,206.258 472.546,206.103 481.233,203.000" stroke-width="2.793" stroke="black" fill="none" stroke-linecap="round"></path><path d="M 481.233,203.000 C 487.126,200.527 487.143,200.758 493.233,199.000" stroke-width="3.082" stroke="black" fill="none" stroke-linecap="round"></path><path d="M 493.233,199.000 C 497.217,198.236 497.126,198.027 501.233,198.000" stroke-width="3.561" stroke="black" fill="none" stroke-linecap="round"></path><path d="M 501.233,198.000 C 508.436,195.124 505.717,197.736 510.233,198.000" stroke-width="3.588" stroke="black" fill="none" stroke-linecap="round"></path><path d="M 510.233,198.000 C 513.735,206.949 513.436,203.124 511.233,214.000" stroke-width="4.033" stroke="black" fill="none" stroke-linecap="round"></path><path d="M 511.233,214.000 C 505.662,221.870 508.235,222.449 499.233,229.000" stroke-width="2.946" stroke="black" fill="none" stroke-linecap="round"></path><path d="M 499.233,229.000 C 481.213,256.312 478.162,252.370 456.233,275.000" stroke-width="1.455" stroke="black" fill="none" stroke-linecap="round"></path><path d="M 456.233,275.000 C 410.359,302.714 413.713,306.812 364.233,330.000" stroke-width="1.125" stroke="black" fill="none" stroke-linecap="round"></path><path d="M 364.233,330.000 C 323.256,380.804 339.359,344.714 314.233,359.000" stroke-width="1.125" stroke="black" fill="none" stroke-linecap="round"></path><path d="M 314.233,359.000 C 295.031,164.647 263.256,235.804 244.233,40.000" stroke-width="1.929" stroke="black" fill="none" stroke-linecap="round"></path><path d="M 244.233,40.000 C 220.171,54.531 235.531,18.647 195.233,67.000" stroke-width="1.398" stroke="black" fill="none" stroke-linecap="round"></path><path d="M 195.233,67.000 C 188.853,69.505 189.171,70.031 182.233,71.000" stroke-width="2.280" stroke="black" fill="none" stroke-linecap="round"></path><path d="M 182.233,71.000 C 173.280,73.064 173.353,73.005 164.233,74.000" stroke-width="2.567" stroke="black" fill="none" stroke-linecap="round"></path><path d="M 164.233,74.000 C 158.733,74.000 158.780,74.564 153.233,74.000" stroke-width="3.107" stroke="black" fill="none" stroke-linecap="round"></path><path d="M 556.233,222.000 C 555.846,226.018 555.733,226.000 555.233,230.000" stroke-width="5.389" stroke="black" fill="none" stroke-linecap="round"></path><path d="M 555.233,230.000 C 552.361,234.064 554.846,232.518 554.233,235.000" stroke-width="5.017" stroke="black" fill="none" stroke-linecap="round"></path><path d="M 554.233,235.000 C 563.656,237.549 561.361,238.564 573.233,239.000" stroke-width="4.062" stroke="black" fill="none" stroke-linecap="round"></path><path d="M 573.233,239.000 C 580.264,239.226 580.156,240.049 587.233,240.000" stroke-width="3.386" stroke="black" fill="none" stroke-linecap="round"></path><path d="M 587.233,240.000 C 593.737,240.974 593.764,240.726 600.233,242.000" stroke-width="3.171" stroke="black" fill="none" stroke-linecap="round"></path><path d="M 600.233,242.000 C 603.275,242.317 603.237,242.474 606.233,243.000" stroke-width="3.830" stroke="black" fill="none" stroke-linecap="round"></path></svg>