<svg xmlns="http://www.w3.org/2000/svg" xmlns:xlink="http://www.w3.org/1999/xlink" viewBox="0 0 664 416" width="664" height="416"><path d="M 240.563,199.000 C 225.149,194.728 225.063,195.500 209.563,192.000" stroke-width="3.962" stroke="black" fill="none" stroke-linecap="round"></path><path d="M 209.563,192.000 C 205.063,192.000 205.149,191.228 200.563,192.000" stroke-width="3.759" stroke="black" fill="none" stroke-linecap="round"></path><path d="M 200.563,192.000 C 196.502,192.492 196.563,192.000 192.563,192.000" stroke-width="3.805" stroke="black" fill="none" stroke-linecap="round"></path><path d="M 192.563,192.000 C 188.515,191.163 188.502,191.492 184.563,190.000" stroke-width="3.793" stroke="black" fill="none" stroke-linecap="round"></path><path d="M 184.563,190.000 C 180.063,188.500 180.015,188.663 175.563,187.000" stroke-width="3.543" stroke="black" fill="none" stroke-linecap="round"></path><path d="M 175.563,187.000 C 170.879,185.918 171.063,185.500 166.563,184.000" stroke-width="3.640" stroke="black" fill="none" stroke-linecap="round"></path><path d="M 166.563,184.000 C 162.111,181.408 161.879,181.918 157.563,179.000" stroke-width="3.543" stroke="black" fill="none" stroke-linecap="round"></path><path d="M 157.563,179.000 C 153.663,176.757 153.611,176.908 149.563,175.000" stroke-width="4.100" stroke="black" fill="none" stroke-linecap="round"></path><path d="M 149.563,175.000 C 146.608,173.830 146.663,173.757 143.563,173.000" stroke-width="4.500" stroke="black" fill="none" stroke-linecap="round"></path><path d="M 143.563,173.000 C 137.445,172.419 141.108,172.330 138.563,172.000" stroke-width="4.907" stroke="black" fill="none" stroke-linecap="round"></path><path d="M 138.563,172.000 C 145.307,171.854 141.445,170.919 151.563,170.000" stroke-width="4.960" stroke="black" fill="none" stroke-linecap="round"></path><path d="M 151.563,170.000 C 158.760,167.401 158.807,167.854 165.563,164.000" stroke-width="3.373" stroke="black" fill="none" stroke-linecap="round"></path><path d="M 165.563,164.000 C 173.694,159.721 173.760,159.901 181.563,155.000" stroke-width="2.808" stroke="black" fill="none" stroke-linecap="round"></path><path d="M 181.563,155.000 C 190.889,148.705 191.194,149.221 200.563,143.000" stroke-width="2.463" stroke="black" fill="none" stroke-linecap="round"></path><path d="M 200.563,143.000 C 210.363,137.100 210.389,137.205 220.563,132.000" stroke-width="2.360" stroke="black" fill="none" stroke-linecap="round"></path><path d="M 220.563,132.000 C 230.580,127.538 230.363,127.100 240.563,123.000" stroke-width="2.426" stroke="black" fill="none" stroke-linecap="round"></path><path d="M 240.563,123.000 C 246.939,119.698 247.080,120.038 253.563,117.000" stroke-width="2.925" stroke="black" fill="none" stroke-linecap="round"></path><path d="M 253.563,117.000 C 260.467,114.183 260.439,114.198 267.563,112.000" stroke-width="2.919" stroke="black" fill="none" stroke-linecap="round"></path><path d="M 267.563,112.000 C 273.578,110.561 273.467,110.183 279.563,109.000" stroke-width="3.147" stroke="black" fill="none" stroke-linecap="round"></path><path d="M 279.563,109.000 C 285.104,107.638 285.078,107.561 290.563,106.000" stroke-width="3.242" stroke="black" fill="none" stroke-linecap="round"></path><path d="M 290.563,106.000 C 295.090,104.578 295.104,104.638 299.563,103.000" stroke-width="3.539" stroke="black" fill="none" stroke-linecap="round"></path><path d="M 299.563,103.000 C 304.006,102.189 303.590,101.578 307.563,100.000" stroke-width="3.628" stroke="black" fill="none" stroke-linecap="round"></path><path d="M 307.563,100.000 C 312.300,95.000 310.506,98.189 312.563,95.000" stroke-width="4.277" stroke="black" fill="none" stroke-linecap="round"></path><path d="M 312.563,95.000 C 310.598,97.529 312.800,95.000 308.563,100.000" stroke-width="4.735" stroke="black" fill="none" stroke-linecap="round"></path><path d="M 308.563,100.000 C 303.645,106.070 303.598,106.029 298.563,112.000" stroke-width="3.310" stroke="black" fill="none" stroke-linecap="round"></path><path d="M 298.563,112.000 C 288.598,123.531 288.645,123.570 278.563,135.000" stroke-width="2.282" stroke="black" fill="none" stroke-linecap="round"></path><path d="M 278.563,135.000 C 271.366,143.785 271.098,143.531 263.563,152.000" stroke-width="2.370" stroke="black" fill="none" stroke-linecap="round"></path><path d="M 263.563,152.000 C 252.063,163.500 252.366,163.785 240.563,175.000" stroke-width="2.101" stroke="black" fill="none" stroke-linecap="round"></path><path d="M 240.563,175.000 C 232.141,183.580 232.063,183.500 223.563,192.000" stroke-width="2.256" stroke="black" fill="none" stroke-linecap="round"></path><path d="M 223.563,192.000 C 205.750,210.798 205.141,210.080 186.563,228.000" stroke-width="2.369" stroke="black" fill="none" stroke-linecap="round"></path><path d="M 186.563,228.000 C 176.246,236.254 176.750,236.798 165.563,244.000" stroke-width="2.251" stroke="black" fill="none" stroke-linecap="round"></path><path d="M 165.563,244.000 C 156.139,250.615 156.246,250.754 146.563,257.000" stroke-width="2.346" stroke="black" fill="none" stroke-linecap="round"></path><path d="M 146.563,257.000 C 137.985,262.385 138.139,262.615 129.563,268.000" stroke-width="2.549" stroke="black" fill="none" stroke-linecap="round"></path><path d="M 129.563,268.000 C 123.285,272.863 122.985,272.385 116.563,277.000" stroke-width="2.845" stroke="black" fill="none" stroke-linecap="round"></path><path d="M 116.563,277.000 C 110.364,281.279 110.285,280.863 103.563,284.000" stroke-width="2.959" stroke="black" fill="none" stroke-linecap="round"></path><path d="M 103.563,284.000 C 97.598,285.659 97.864,286.279 91.563,287.000" stroke-width="3.161" stroke="black" fill="none" stroke-linecap="round"></path><path d="M 91.563,287.000 C 84.040,288.398 84.098,288.659 76.563,290.000" stroke-width="2.956" stroke="black" fill="none" stroke-linecap="round"></path><path d="M 76.563,290.000 C 70.133,291.949 70.040,291.398 63.563,293.000" stroke-width="3.090" stroke="black" fill="none" stroke-linecap="round"></path><path d="M 63.563,293.000 C 57.571,293.714 57.633,293.949 51.563,294.000" stroke-width="3.229" stroke="black" fill="none" stroke-linecap="round"></path><path d="M 51.563,294.000 C 47.063,294.000 47.071,294.214 42.563,294.000" stroke-width="3.531" stroke="black" fill="none" stroke-linecap="round"></path><path d="M 42.563,294.000 C 39.563,294.000 39.563,294.000 36.563,294.000" stroke-width="3.905" stroke="black" fill="none" stroke-linecap="round"></path><path d="M 36.563,294.000 C 31.763,295.800 33.563,294.000 30.563,294.000" stroke-width="4.466" stroke="black" fill="none" stroke-linecap="round"></path><path d="M 30.563,294.000 C 28.818,288.877 28.763,291.300 30.563,285.000" stroke-width="4.083" stroke="black" fill="none" stroke-linecap="round"></path><path d="M 30.563,285.000 C 34.050,278.288 33.318,278.877 39.563,274.000" stroke-width="3.376" stroke="black" fill="none" stroke-linecap="round"></path><path d="M 39.563,274.000 C 48.828,269.430 47.550,267.788 57.563,264.000" stroke-width="2.812" stroke="black" fill="none" stroke-linecap="round"></path><path d="M 57.563,264.000 C 66.576,256.633 67.328,257.930 76.563,251.000" stroke-width="2.438" stroke="black" fill="none" stroke-linecap="round"></path><path d="M 76.563,251.000 C 86.306,245.816 86.076,245.633 96.563,242.000" stroke-width="2.451" stroke="black" fill="none" stroke-linecap="round"></path><path d="M 96.563,242.000 C 108.213,238.938 107.806,237.816 119.563,235.000" stroke-width="2.365" stroke="black" fill="none" stroke-linecap="round"></path><path d="M 119.563,235.000 C 132.447,229.684 132.713,230.438 145.563,225.000" stroke-width="2.137" stroke="black" fill="none" stroke-linecap="round"></path><path d="M 145.563,225.000 C 174.859,215.764 174.447,214.684 203.563,205.000" stroke-width="2.043" stroke="black" fill="none" stroke-linecap="round"></path><path d="M 203.563,205.000 C 218.747,198.897 218.859,199.264 233.563,192.000" stroke-width="1.903" stroke="black" fill="none" stroke-linecap="round"></path><path d="M 233.563,192.000 C 247.399,184.648 247.747,185.397 261.563,178.000" stroke-width="1.956" stroke="black" fill="none" stroke-linecap="round"></path><path d="M 261.563,178.000 C 271.942,173.192 271.899,173.148 282.563,169.000" stroke-width="2.247" stroke="black" fill="none" stroke-linecap="round"></path><path d="M 282.563,169.000 C 291.238,166.428 290.942,165.692 299.563,163.000" stroke-width="2.565" stroke="black" fill="none" stroke-linecap="round"></path><path d="M 299.563,163.000 C 307.850,158.423 308.238,159.428 316.563,155.000" stroke-width="2.580" stroke="black" fill="none" stroke-linecap="round"></path><path d="M 316.563,155.000 C 322.095,153.608 321.850,152.923 327.563,152.000" stroke-width="3.036" stroke="black" fill="none" stroke-linecap="round"></path><path d="M 327.563,152.000 C 334.807,150.311 330.595,151.108 333.563,150.000" stroke-width="3.710" stroke="black" fill="none" stroke-linecap="round"></path><path d="M 333.563,150.000 C 326.563,150.000 330.807,149.311 319.563,150.000" stroke-width="4.424" stroke="black" fill="none" stroke-linecap="round"></path><path d="M 319.563,150.000 C 313.743,148.648 314.063,150.000 308.563,150.000" stroke-width="3.600" stroke="black" fill="none" stroke-linecap="round"></path><path d="M 308.563,150.000 C 302.018,152.205 302.243,151.648 296.563,156.000" stroke-width="3.268" stroke="black" fill="none" stroke-linecap="round"></path><path d="M 296.563,156.000 C 290.932,160.864 290.518,160.205 285.563,166.000" stroke-width="3.239" stroke="black" fill="none" stroke-linecap="round"></path><path d="M 285.563,166.000 C 279.136,171.630 279.432,171.864 273.563,178.000" stroke-width="3.148" stroke="black" fill="none" stroke-linecap="round"></path><path d="M 273.563,178.000 C 269.358,184.245 268.636,183.630 264.563,190.000" stroke-width="3.092" stroke="black" fill="none" stroke-linecap="round"></path><path d="M 264.563,190.000 C 258.366,195.502 259.358,196.245 253.563,202.000" stroke-width="2.936" stroke="black" fill="none" stroke-linecap="round"></path><path d="M 253.563,202.000 C 250.480,207.457 249.866,207.002 247.563,213.000" stroke-width="3.141" stroke="black" fill="none" stroke-linecap="round"></path><path d="M 247.563,213.000 C 244.684,216.793 245.480,216.957 243.563,221.000" stroke-width="3.504" stroke="black" fill="none" stroke-linecap="round"></path><path d="M 243.563,221.000 C 241.527,226.168 242.684,224.293 243.563,228.000" stroke-width="4.243" stroke="black" fill="none" stroke-linecap="round"></path><path d="M 243.563,228.000 C 248.498,229.651 246.527,230.668 253.563,230.000" stroke-width="4.281" stroke="black" fill="none" stroke-linecap="round"></path><path d="M 253.563,230.000 C 264.028,233.064 262.998,230.651 272.563,230.000" stroke-width="2.997" stroke="black" fill="none" stroke-linecap="round"></path><path d="M 272.563,230.000 C 282.334,222.648 283.528,226.064 292.563,216.000" stroke-width="2.413" stroke="black" fill="none" stroke-linecap="round"></path><path d="M 292.563,216.000 C 302.729,210.258 302.334,209.648 312.563,204.000" stroke-width="2.384" stroke="black" fill="none" stroke-linecap="round"></path><path d="M 312.563,204.000 C 319.243,199.740 319.229,199.758 325.563,195.000" stroke-width="2.732" stroke="black" fill="none" stroke-linecap="round"></path><path d="M 325.563,195.000 C 331.407,190.852 331.243,190.740 336.563,186.000" stroke-width="2.900" stroke="black" fill="none" stroke-linecap="round"></path><path d="M 336.563,186.000 C 339.958,182.762 339.907,182.852 342.563,179.000" stroke-width="3.386" stroke="black" fill="none" stroke-linecap="round"></path><path d="M 342.563,179.000 C 347.344,173.972 344.458,176.262 345.563,173.000" stroke-width="4.244" stroke="black" fill="none" stroke-linecap="round"></path><path d="M 345.563,173.000 C 338.563,173.000 341.844,170.972 331.563,173.000" stroke-width="4.033" stroke="black" fill="none" stroke-linecap="round"></path><path d="M 331.563,173.000 C 328.006,172.541 328.063,173.000 324.563,173.000" stroke-width="3.999" stroke="black" fill="none" stroke-linecap="round"></path><path d="M 324.563,173.000 C 319.814,172.764 320.506,173.541 316.563,175.000" stroke-width="3.899" stroke="black" fill="none" stroke-linecap="round"></path><path d="M 316.563,175.000 C 312.095,179.183 311.814,178.264 308.563,184.000" stroke-width="3.389" stroke="black" fill="none" stroke-linecap="round"></path><path d="M 308.563,184.000 C 306.699,186.875 306.595,186.683 305.563,190.000" stroke-width="3.816" stroke="black" fill="none" stroke-linecap="round"></path><path d="M 305.563,190.000 C 305.180,192.529 304.699,192.375 304.563,195.000" stroke-width="4.120" stroke="black" fill="none" stroke-linecap="round"></path><path d="M 304.563,195.000 C 303.111,198.437 303.680,198.529 302.563,202.000" stroke-width="4.450" stroke="black" fill="none" stroke-linecap="round"></path><path d="M 302.563,202.000 C 300.283,207.280 302.111,204.937 302.563,208.000" stroke-width="4.843" stroke="black" fill="none" stroke-linecap="round"></path><path d="M 302.563,208.000 C 312.388,209.736 309.783,210.280 321.563,208.000" stroke-width="3.842" stroke="black" fill="none" stroke-linecap="round"></path><path d="M 321.563,208.000 C 331.308,205.815 330.888,206.236 339.563,201.000" stroke-width="2.908" stroke="black" fill="none" stroke-linecap="round"></path><path d="M 339.563,201.000 C 348.471,193.880 349.308,195.315 357.563,187.000" stroke-width="2.469" stroke="black" fill="none" stroke-linecap="round"></path><path d="M 357.563,187.000 C 367.534,180.564 366.971,179.880 376.563,173.000" stroke-width="2.388" stroke="black" fill="none" stroke-linecap="round"></path><path d="M 376.563,173.000 C 385.321,164.233 386.034,165.064 394.563,156.000" stroke-width="2.958" stroke="black" fill="none" stroke-linecap="round"></path><path d="M 394.563,156.000 C 412.697,139.536 412.821,139.733 431.563,124.000" stroke-width="1.712" stroke="black" fill="none" stroke-linecap="round"></path><path d="M 431.563,124.000 C 438.682,119.160 438.197,118.536 445.563,114.000" stroke-width="2.307" stroke="black" fill="none" stroke-linecap="round"></path><path d="M 445.563,114.000 C 452.856,108.831 452.682,108.660 459.563,103.000" stroke-width="2.649" stroke="black" fill="none" stroke-linecap="round"></path><path d="M 459.563,103.000 C 464.649,98.958 464.356,98.831 468.563,94.000" stroke-width="2.913" stroke="black" fill="none" stroke-linecap="round"></path><path d="M 468.563,94.000 C 471.473,88.943 472.149,89.458 474.563,84.000" stroke-width="3.197" stroke="black" fill="none" stroke-linecap="round"></path><path d="M 474.563,84.000 C 477.051,81.239 476.473,80.943 478.563,78.000" stroke-width="3.645" stroke="black" fill="none" stroke-linecap="round"></path><path d="M 478.563,78.000 C 482.481,71.757 480.551,73.739 481.563,69.000" stroke-width="4.158" stroke="black" fill="none" stroke-linecap="round"></path><path d="M 481.563,69.000 C 477.938,67.416 480.981,67.257 475.563,69.000" stroke-width="4.714" stroke="black" fill="none" stroke-linecap="round"></path><path d="M 475.563,69.000 C 467.455,75.419 467.438,74.416 460.563,83.000" stroke-width="2.876" stroke="black" fill="none" stroke-linecap="round"></path><path d="M 460.563,83.000 C 442.624,103.147 442.455,102.919 425.563,124.000" stroke-width="2.379" stroke="black" fill="none" stroke-linecap="round"></path><path d="M 425.563,124.000 C 416.147,136.565 415.624,136.147 406.563,149.000" stroke-width="2.021" stroke="black" fill="none" stroke-linecap="round"></path><path d="M 406.563,149.000 C 398.120,160.994 397.647,160.565 388.563,172.000" stroke-width="2.055" stroke="black" fill="none" stroke-linecap="round"></path><path d="M 388.563,172.000 C 380.570,179.079 381.620,179.994 373.563,187.000" stroke-width="2.397" stroke="black" fill="none" stroke-linecap="round"></path><path d="M 373.563,187.000 C 369.088,192.230 369.070,192.079 365.563,198.000" stroke-width="2.814" stroke="black" fill="none" stroke-linecap="round"></path><path d="M 365.563,198.000 C 360.315,205.000 363.588,201.230 362.563,205.000" stroke-width="3.445" stroke="black" fill="none" stroke-linecap="round"></path><path d="M 362.563,205.000 C 372.990,202.436 368.815,205.000 382.563,198.000" stroke-width="3.769" stroke="black" fill="none" stroke-linecap="round"></path><path d="M 382.563,198.000 C 392.903,191.702 393.490,192.936 403.563,186.000" stroke-width="2.550" stroke="black" fill="none" stroke-linecap="round"></path><path d="M 403.563,186.000 C 414.846,180.989 414.403,180.202 425.563,175.000" stroke-width="2.369" stroke="black" fill="none" stroke-linecap="round"></path><path d="M 425.563,175.000 C 431.214,170.312 431.846,171.489 437.563,167.000" stroke-width="2.851" stroke="black" fill="none" stroke-linecap="round"></path><path d="M 437.563,167.000 C 446.353,161.619 442.714,164.312 448.563,163.000" stroke-width="3.171" stroke="black" fill="none" stroke-linecap="round"></path><path d="M 448.563,163.000 C 447.996,168.002 450.353,164.119 445.563,172.000" stroke-width="4.113" stroke="black" fill="none" stroke-linecap="round"></path><path d="M 445.563,172.000 C 440.394,179.294 440.996,179.502 434.563,186.000" stroke-width="3.051" stroke="black" fill="none" stroke-linecap="round"></path><path d="M 434.563,186.000 C 429.739,190.226 430.394,190.794 425.563,195.000" stroke-width="3.218" stroke="black" fill="none" stroke-linecap="round"></path><path d="M 425.563,195.000 C 418.074,202.000 422.739,198.226 420.563,202.000" stroke-width="3.514" stroke="black" fill="none" stroke-linecap="round"></path><path d="M 420.563,202.000 C 433.329,199.255 428.074,202.000 445.563,195.000" stroke-width="3.626" stroke="black" fill="none" stroke-linecap="round"></path><path d="M 445.563,195.000 C 456.242,190.874 456.329,191.255 466.563,186.000" stroke-width="2.671" stroke="black" fill="none" stroke-linecap="round"></path><path d="M 466.563,186.000 C 473.964,181.799 474.242,182.374 481.563,178.000" stroke-width="2.710" stroke="black" fill="none" stroke-linecap="round"></path><path d="M 481.563,178.000 C 486.909,174.995 486.964,175.299 492.563,173.000" stroke-width="3.138" stroke="black" fill="none" stroke-linecap="round"></path><path d="M 492.563,173.000 C 499.421,170.093 495.409,171.995 498.563,172.000" stroke-width="3.780" stroke="black" fill="none" stroke-linecap="round"></path><path d="M 498.563,172.000 C 491.640,182.973 494.921,180.093 483.563,193.000" stroke-width="3.731" stroke="black" fill="none" stroke-linecap="round"></path><path d="M 483.563,193.000 C 476.479,200.425 477.140,200.973 469.563,208.000" stroke-width="2.816" stroke="black" fill="none" stroke-linecap="round"></path><path d="M 469.563,208.000 C 465.628,211.708 465.979,211.925 462.563,216.000" stroke-width="3.188" stroke="black" fill="none" stroke-linecap="round"></path><path d="M 462.563,216.000 C 457.230,222.359 460.628,218.708 459.563,222.000" stroke-width="3.736" stroke="black" fill="none" stroke-linecap="round"></path><path d="M 459.563,222.000 C 474.392,217.784 470.230,220.359 488.563,212.000" stroke-width="3.595" stroke="black" fill="none" stroke-linecap="round"></path><path d="M 488.563,212.000 C 498.303,206.352 498.892,207.784 508.563,202.000" stroke-width="2.691" stroke="black" fill="none" stroke-linecap="round"></path><path d="M 508.563,202.000 C 515.000,199.767 514.803,199.352 521.563,198.000" stroke-width="3.031" stroke="black" fill="none" stroke-linecap="round"></path><path d="M 521.563,198.000 C 528.118,196.696 528.000,196.267 534.563,195.000" stroke-width="3.056" stroke="black" fill="none" stroke-linecap="round"></path><path d="M 534.563,195.000 C 537.483,193.513 537.618,194.196 540.563,193.000" stroke-width="3.679" stroke="black" fill="none" stroke-linecap="round"></path><path d="M 540.563,193.000 C 543.563,193.000 543.483,192.513 546.563,193.000" stroke-width="4.520" stroke="black" fill="none" stroke-linecap="round"></path><path d="M 546.563,193.000 C 549.563,193.000 549.563,193.000 552.563,193.000" stroke-width="4.947" stroke="black" fill="none" stroke-linecap="round"></path><path d="M 552.563,193.000 C 560.321,193.000 555.563,193.000 558.563,193.000" stroke-width="4.992" stroke="black" fill="none" stroke-linecap="round"></path><path d="M 558.563,193.000 C 547.049,192.582 551.821,193.000 535.563,193.000" stroke-width="4.794" stroke="black" fill="none" stroke-linecap="round"></path><path d="M 535.563,193.000 C 519.552,193.844 519.549,193.582 503.563,195.000" stroke-width="2.291" stroke="black" fill="none" stroke-linecap="round"></path><path d="M 503.563,195.000 C 477.928,195.856 478.052,196.844 452.563,199.000" stroke-width="1.743" stroke="black" fill="none" stroke-linecap="round"></path><path d="M 452.563,199.000 C 417.466,203.940 417.428,203.356 382.563,210.000" stroke-width="1.180" stroke="black" fill="none" stroke-linecap="round"></path><path d="M 382.563,210.000 C 345.571,217.045 345.466,216.440 308.563,224.000" stroke-width="1.125" stroke="black" fill="none" stroke-linecap="round"></path><path d="M 308.563,224.000 C 270.933,230.368 271.071,231.045 233.563,238.000" stroke-width="1.125" stroke="black" fill="none" stroke-linecap="round"></path><path d="M 233.563,238.000 C 200.184,246.103 199.933,244.868 166.563,253.000" stroke-width="1.125" stroke="black" fill="none" stroke-linecap="round"></path><path d="M 166.563,253.000 C 141.725,258.822 141.684,258.103 116.563,262.000" stroke-width="1.292" stroke="black" fill="none" stroke-linecap="round"></path><path d="M 116.563,262.000 C 94.056,263.416 94.225,264.822 71.563,265.000" stroke-width="1.456" stroke="black" fill="none" stroke-linecap="round"></path><path d="M 71.563,265.000 C 58.570,266.113 58.556,265.916 45.563,267.000" stroke-width="1.918" stroke="black" fill="none" stroke-linecap="round"></path><path d="M 45.563,267.000 C 36.117,265.935 36.570,267.613 27.563,268.000" stroke-width="2.422" stroke="black" fill="none" stroke-linecap="round"></path><path d="M 27.563,268.000 C 19.919,269.728 21.617,269.435 16.563,274.000" stroke-width="2.941" stroke="black" fill="none" stroke-linecap="round"></path><path d="M 16.563,274.000 C 18.081,278.711 14.419,276.728 16.563,282.000" stroke-width="3.509" stroke="black" fill="none" stroke-linecap="round"></path><path d="M 573.563,262.000 C 563.427,256.021 563.063,258.000 552.563,254.000" stroke-width="3.846" stroke="black" fill="none" stroke-linecap="round"></path><path d="M 552.563,254.000 C 541.563,254.000 541.927,252.021 530.563,254.000" stroke-width="2.751" stroke="black" fill="none" stroke-linecap="round"></path><path d="M 530.563,254.000 C 512.563,254.000 512.563,254.000 494.563,254.000" stroke-width="1.947" stroke="black" fill="none" stroke-linecap="round"></path><path d="M 494.563,254.000 C 473.063,254.000 473.063,254.000 451.563,254.000" stroke-width="1.686" stroke="black" fill="none" stroke-linecap="round"></path><path d="M 451.563,254.000 C 425.563,254.000 425.563,254.000 399.563,254.000" stroke-width="1.415" stroke="black" fill="none" stroke-linecap="round"></path><path d="M 399.563,254.000 C 367.063,254.000 367.063,254.000 334.563,254.000" stroke-width="1.188" stroke="black" fill="none" stroke-linecap="round"></path><path d="M 334.563,254.000 C 305.063,254.000 305.063,254.000 275.563,254.000" stroke-width="1.196" stroke="black" fill="none" stroke-linecap="round"></path><path d="M 275.563,254.000 C 244.063,254.000 244.063,254.000 212.563,254.000" stroke-width="1.156" stroke="black" fill="none" stroke-linecap="round"></path><path d="M 212.563,254.000 C 186.898,251.973 187.063,254.000 161.563,254.000" stroke-width="1.358" stroke="black" fill="none" stroke-linecap="round"></path><path d="M 161.563,254.000 C 136.125,254.906 136.898,255.973 112.563,262.000" stroke-width="1.411" stroke="black" fill="none" stroke-linecap="round"></path><path d="M 112.563,262.000 C 89.541,270.277 89.625,268.906 68.563,282.000" stroke-width="1.447" stroke="black" fill="none" stroke-linecap="round"></path><path d="M 68.563,282.000 C 56.417,290.813 55.541,289.277 44.563,300.000" stroke-width="1.814" stroke="black" fill="none" stroke-linecap="round"></path><path d="M 44.563,300.000 C 34.131,305.343 36.417,306.313 28.563,313.000" stroke-width="2.269" stroke="black" fill="none" stroke-linecap="round"></path><path d="M 592.563,276.000 C 585.537,277.390 585.563,277.500 578.563,279.000" stroke-width="3.539" stroke="black" fill="none" stroke-linecap="round"></path><path d="M 578.563,279.000 C 572.186,279.540 572.537,280.390 566.563,282.000" stroke-width="3.274" stroke="black" fill="none" stroke-linecap="round"></path><path d="M 566.563,282.000 C 557.115,288.871 556.186,286.540 546.563,293.000" stroke-width="2.610" stroke="black" fill="none" stroke-linecap="round"></path><path d="M 546.563,293.000 C 533.662,296.907 534.115,297.871 520.563,300.000" stroke-width="2.291" stroke="black" fill="none" stroke-linecap="round"></path><path d="M 520.563,300.000 C 497.830,306.975 497.662,305.407 474.563,310.000" stroke-width="1.667" stroke="black" fill="none" stroke-linecap="round"></path><path d="M 474.563,310.000 C 447.586,312.330 447.830,313.475 420.563,313.000" stroke-width="1.428" stroke="black" fill="none" stroke-linecap="round"></path><path d="M 420.563,313.000 C 387.063,313.000 387.086,313.830 353.563,313.000" stroke-width="1.169" stroke="black" fill="none" stroke-linecap="round"></path><path d="M 353.563,313.000 C 321.563,313.000 321.563,313.000 289.563,313.000" stroke-width="1.177" stroke="black" fill="none" stroke-linecap="round"></path><path d="M 289.563,313.000 C 258.560,312.723 258.563,313.000 227.563,313.000" stroke-width="1.200" stroke="black" fill="none" stroke-linecap="round"></path><path d="M 227.563,313.000 C 202.360,311.495 202.560,313.223 177.563,314.000" stroke-width="1.310" stroke="black" fill="none" stroke-linecap="round"></path><path d="M 177.563,314.000 C 152.914,317.825 152.860,316.495 128.563,323.000" stroke-width="1.392" stroke="black" fill="none" stroke-linecap="round"></path><path d="M 128.563,323.000 C 112.996,326.763 112.914,326.325 97.563,331.000" stroke-width="1.741" stroke="black" fill="none" stroke-linecap="round"></path><path d="M 97.563,331.000 C 87.124,333.105 87.496,333.763 77.563,337.000" stroke-width="2.178" stroke="black" fill="none" stroke-linecap="round"></path><path d="M 77.563,337.000 C 68.398,340.918 73.624,338.605 70.563,342.000" stroke-width="3.075" stroke="black" fill="none" stroke-linecap="round"></path><path d="M 70.563,342.000 C 82.501,342.330 76.398,344.918 93.563,345.000" stroke-width="3.203" stroke="black" fill="none" stroke-linecap="round"></path><path d="M 576.563,293.000 C 572.711,300.645 571.563,299.000 566.563,305.000" stroke-width="4.256" stroke="black" fill="none" stroke-linecap="round"></path><path d="M 566.563,305.000 C 559.787,308.602 560.711,309.145 552.563,310.000" stroke-width="3.292" stroke="black" fill="none" stroke-linecap="round"></path><path d="M 552.563,310.000 C 544.071,310.792 544.287,311.602 535.563,311.000" stroke-width="2.939" stroke="black" fill="none" stroke-linecap="round"></path><path d="M 535.563,311.000 C 523.563,311.000 523.571,311.292 511.563,311.000" stroke-width="2.486" stroke="black" fill="none" stroke-linecap="round"></path><path d="M 511.563,311.000 C 494.555,310.568 494.563,311.000 477.563,311.000" stroke-width="1.963" stroke="black" fill="none" stroke-linecap="round"></path><path d="M 477.563,311.000 C 435.315,310.233 435.555,312.068 393.563,314.000" stroke-width="1.710" stroke="black" fill="none" stroke-linecap="round"></path><path d="M 393.563,314.000 C 368.996,318.162 368.815,316.233 344.563,323.000" stroke-width="1.505" stroke="black" fill="none" stroke-linecap="round"></path><path d="M 344.563,323.000 C 318.528,328.344 318.496,328.162 292.563,334.000" stroke-width="1.356" stroke="black" fill="none" stroke-linecap="round"></path><path d="M 292.563,334.000 C 268.099,339.666 268.028,339.344 243.563,345.000" stroke-width="1.402" stroke="black" fill="none" stroke-linecap="round"></path><path d="M 243.563,345.000 C 222.230,350.860 222.099,349.666 200.563,354.000" stroke-width="1.470" stroke="black" fill="none" stroke-linecap="round"></path><path d="M 200.563,354.000 C 187.536,354.135 187.730,355.860 174.563,355.000" stroke-width="1.884" stroke="black" fill="none" stroke-linecap="round"></path><path d="M 174.563,355.000 C 160.672,354.445 165.036,355.635 155.563,357.000" stroke-width="2.811" stroke="black" fill="none" stroke-linecap="round"></path></svg>