<svg xmlns="http://www.w3.org/2000/svg" xmlns:xlink="http://www.w3.org/1999/xlink" viewBox="0 0 664 416" width="664" height="416"><path d="M 245.417,254.000 C 242.945,253.316 242.917,253.500 240.417,253.000" stroke-width="5.425" stroke="black" fill="none" stroke-linecap="round"></path><path d="M 240.417,253.000 C 230.879,252.262 230.945,251.816 221.417,251.000" stroke-width="3.046" stroke="black" fill="none" stroke-linecap="round"></path><path d="M 221.417,251.000 C 215.936,249.872 215.879,250.262 210.417,249.000" stroke-width="3.227" stroke="black" fill="none" stroke-linecap="round"></path><path d="M 210.417,249.000 C 206.372,248.761 206.436,248.372 202.417,248.000" stroke-width="3.661" stroke="black" fill="none" stroke-linecap="round"></path><path d="M 202.417,248.000 C 193.435,245.913 193.372,246.261 184.417,244.000" stroke-width="2.859" stroke="black" fill="none" stroke-linecap="round"></path><path d="M 184.417,244.000 C 176.889,242.624 176.935,242.413 169.417,241.000" stroke-width="2.984" stroke="black" fill="none" stroke-linecap="round"></path><path d="M 169.417,241.000 C 165.363,240.184 165.389,240.124 161.417,239.000" stroke-width="3.459" stroke="black" fill="none" stroke-linecap="round"></path><path d="M 161.417,239.000 C 155.298,237.287 155.363,237.184 149.417,235.000" stroke-width="3.230" stroke="black" fill="none" stroke-linecap="round"></path><path d="M 149.417,235.000 C 146.584,232.792 146.298,233.787 143.417,232.000" stroke-width="3.753" stroke="black" fill="none" stroke-linecap="round"></path><path d="M 143.417,232.000 C 137.659,232.967 140.584,231.292 137.417,232.000" stroke-width="4.405" stroke="black" fill="none" stroke-linecap="round"></path><path d="M 137.417,232.000 C 139.576,229.311 137.159,230.967 142.417,228.000" stroke-width="5.055" stroke="black" fill="none" stroke-linecap="round"></path><path d="M 142.417,228.000 C 146.496,227.265 146.076,226.311 150.417,226.000" stroke-width="4.033" stroke="black" fill="none" stroke-linecap="round"></path><path d="M 150.417,226.000 C 161.966,222.135 161.996,222.265 173.417,218.000" stroke-width="2.652" stroke="black" fill="none" stroke-linecap="round"></path><path d="M 173.417,218.000 C 180.077,215.863 179.966,215.635 186.417,213.000" stroke-width="2.945" stroke="black" fill="none" stroke-linecap="round"></path><path d="M 186.417,213.000 C 195.873,209.281 195.577,208.863 204.417,204.000" stroke-width="2.677" stroke="black" fill="none" stroke-linecap="round"></path><path d="M 204.417,204.000 C 223.011,191.637 223.373,192.281 241.417,179.000" stroke-width="1.647" stroke="black" fill="none" stroke-linecap="round"></path><path d="M 241.417,179.000 C 257.360,169.624 256.511,168.637 271.417,158.000" stroke-width="1.787" stroke="black" fill="none" stroke-linecap="round"></path><path d="M 271.417,158.000 C 282.417,147.000 283.360,148.124 293.417,136.000" stroke-width="1.923" stroke="black" fill="none" stroke-linecap="round"></path><path d="M 293.417,136.000 C 298.646,130.194 298.917,130.500 304.417,125.000" stroke-width="2.536" stroke="black" fill="none" stroke-linecap="round"></path><path d="M 304.417,125.000 C 308.942,121.532 308.646,121.194 313.417,118.000" stroke-width="3.065" stroke="black" fill="none" stroke-linecap="round"></path><path d="M 313.417,118.000 C 318.750,114.333 318.442,114.032 323.417,110.000" stroke-width="3.164" stroke="black" fill="none" stroke-linecap="round"></path><path d="M 323.417,110.000 C 325.266,107.365 325.750,107.833 327.417,105.000" stroke-width="3.828" stroke="black" fill="none" stroke-linecap="round"></path><path d="M 327.417,105.000 C 332.053,98.727 330.266,101.865 333.417,99.000" stroke-width="4.259" stroke="black" fill="none" stroke-linecap="round"></path><path d="M 333.417,99.000 C 333.605,102.698 334.553,99.227 332.417,106.000" stroke-width="5.077" stroke="black" fill="none" stroke-linecap="round"></path><path d="M 332.417,106.000 C 328.609,115.091 329.105,115.198 324.417,124.000" stroke-width="2.970" stroke="black" fill="none" stroke-linecap="round"></path><path d="M 324.417,124.000 C 320.672,132.143 320.609,132.091 316.417,140.000" stroke-width="2.743" stroke="black" fill="none" stroke-linecap="round"></path><path d="M 316.417,140.000 C 313.694,143.872 314.172,144.143 311.417,148.000" stroke-width="3.255" stroke="black" fill="none" stroke-linecap="round"></path><path d="M 311.417,148.000 C 304.995,158.127 305.694,158.372 300.417,169.000" stroke-width="2.420" stroke="black" fill="none" stroke-linecap="round"></path><path d="M 300.417,169.000 C 298.482,177.723 296.995,177.127 295.417,186.000" stroke-width="2.644" stroke="black" fill="none" stroke-linecap="round"></path><path d="M 295.417,186.000 C 292.862,190.973 293.482,191.223 290.417,196.000" stroke-width="3.128" stroke="black" fill="none" stroke-linecap="round"></path><path d="M 290.417,196.000 C 284.262,209.690 283.862,209.473 277.417,223.000" stroke-width="2.205" stroke="black" fill="none" stroke-linecap="round"></path><path d="M 277.417,223.000 C 275.312,227.315 275.262,227.190 272.417,231.000" stroke-width="2.995" stroke="black" fill="none" stroke-linecap="round"></path><path d="M 272.417,231.000 C 269.129,233.746 269.812,234.315 266.417,237.000" stroke-width="3.488" stroke="black" fill="none" stroke-linecap="round"></path><path d="M 266.417,237.000 C 259.354,245.952 259.129,245.746 252.417,255.000" stroke-width="2.650" stroke="black" fill="none" stroke-linecap="round"></path><path d="M 252.417,255.000 C 248.425,261.465 247.854,260.952 243.417,267.000" stroke-width="2.822" stroke="black" fill="none" stroke-linecap="round"></path><path d="M 243.417,267.000 C 237.958,271.064 238.925,271.965 233.417,276.000" stroke-width="2.982" stroke="black" fill="none" stroke-linecap="round"></path><path d="M 233.417,276.000 C 226.542,283.730 226.458,283.564 220.417,292.000" stroke-width="2.660" stroke="black" fill="none" stroke-linecap="round"></path><path d="M 220.417,292.000 C 217.273,297.767 216.542,297.230 213.417,303.000" stroke-width="2.895" stroke="black" fill="none" stroke-linecap="round"></path><path d="M 213.417,303.000 C 210.427,307.563 210.273,307.267 206.417,311.000" stroke-width="3.218" stroke="black" fill="none" stroke-linecap="round"></path><path d="M 206.417,311.000 C 198.870,315.388 199.927,316.563 192.417,321.000" stroke-width="2.845" stroke="black" fill="none" stroke-linecap="round"></path><path d="M 192.417,321.000 C 187.917,326.000 187.370,325.388 183.417,331.000" stroke-width="3.097" stroke="black" fill="none" stroke-linecap="round"></path><path d="M 183.417,331.000 C 179.164,336.253 178.917,336.000 174.417,341.000" stroke-width="3.068" stroke="black" fill="none" stroke-linecap="round"></path><path d="M 174.417,341.000 C 171.092,344.243 171.164,344.253 167.417,347.000" stroke-width="3.452" stroke="black" fill="none" stroke-linecap="round"></path><path d="M 167.417,347.000 C 164.948,348.554 165.092,348.743 162.417,350.000" stroke-width="3.936" stroke="black" fill="none" stroke-linecap="round"></path><path d="M 162.417,350.000 C 158.131,353.114 157.948,352.554 153.417,355.000" stroke-width="3.562" stroke="black" fill="none" stroke-linecap="round"></path><path d="M 153.417,355.000 C 150.271,355.001 150.631,356.114 147.417,356.000" stroke-width="3.950" stroke="black" fill="none" stroke-linecap="round"></path><path d="M 147.417,356.000 C 140.521,359.294 140.271,358.501 133.417,362.000" stroke-width="3.878" stroke="black" fill="none" stroke-linecap="round"></path><path d="M 133.417,362.000 C 129.982,363.332 130.021,363.294 126.417,364.000" stroke-width="3.920" stroke="black" fill="none" stroke-linecap="round"></path><path d="M 126.417,364.000 C 121.931,364.762 121.982,364.832 117.417,365.000" stroke-width="3.742" stroke="black" fill="none" stroke-linecap="round"></path><path d="M 117.417,365.000 C 112.417,365.000 112.431,365.262 107.417,365.000" stroke-width="3.599" stroke="black" fill="none" stroke-linecap="round"></path><path d="M 107.417,365.000 C 101.917,365.000 101.917,365.000 96.417,365.000" stroke-width="4.012" stroke="black" fill="none" stroke-linecap="round"></path><path d="M 96.417,365.000 C 91.391,365.311 91.417,365.000 86.417,365.000" stroke-width="3.610" stroke="black" fill="none" stroke-linecap="round"></path><path d="M 86.417,365.000 C 83.270,364.951 83.391,364.811 80.417,364.000" stroke-width="3.967" stroke="black" fill="none" stroke-linecap="round"></path><path d="M 80.417,364.000 C 77.005,363.071 77.270,362.951 74.417,361.000" stroke-width="4.013" stroke="black" fill="none" stroke-linecap="round"></path><path d="M 74.417,361.000 C 69.437,356.882 69.505,357.071 65.417,352.000" stroke-width="3.281" stroke="black" fill="none" stroke-linecap="round"></path><path d="M 65.417,352.000 C 62.754,348.091 62.437,348.382 60.417,344.000" stroke-width="3.557" stroke="black" fill="none" stroke-linecap="round"></path><path d="M 60.417,344.000 C 58.822,341.044 58.754,341.091 57.417,338.000" stroke-width="3.832" stroke="black" fill="none" stroke-linecap="round"></path><path d="M 57.417,338.000 C 55.682,334.585 55.822,334.544 54.417,331.000" stroke-width="3.869" stroke="black" fill="none" stroke-linecap="round"></path><path d="M 54.417,331.000 C 51.703,326.154 52.682,326.085 51.417,321.000" stroke-width="4.182" stroke="black" fill="none" stroke-linecap="round"></path><path d="M 51.417,321.000 C 51.245,307.893 50.703,308.154 52.417,295.000" stroke-width="2.427" stroke="black" fill="none" stroke-linecap="round"></path><path d="M 52.417,295.000 C 53.705,291.559 52.745,291.393 54.417,288.000" stroke-width="3.318" stroke="black" fill="none" stroke-linecap="round"></path><path d="M 54.417,288.000 C 54.479,283.909 55.205,284.059 55.417,280.000" stroke-width="3.696" stroke="black" fill="none" stroke-linecap="round"></path><path d="M 55.417,280.000 C 57.619,271.393 57.479,271.409 60.417,263.000" stroke-width="2.836" stroke="black" fill="none" stroke-linecap="round"></path><path d="M 60.417,263.000 C 61.630,259.350 61.619,259.393 63.417,256.000" stroke-width="3.497" stroke="black" fill="none" stroke-linecap="round"></path><path d="M 63.417,256.000 C 65.635,251.793 65.630,251.850 68.417,248.000" stroke-width="3.580" stroke="black" fill="none" stroke-linecap="round"></path><path d="M 68.417,248.000 C 71.171,244.246 71.135,244.293 74.417,241.000" stroke-width="3.572" stroke="black" fill="none" stroke-linecap="round"></path><path d="M 74.417,241.000 C 77.208,239.313 76.671,238.746 79.417,237.000" stroke-width="3.917" stroke="black" fill="none" stroke-linecap="round"></path><path d="M 79.417,237.000 C 97.814,216.901 98.208,217.313 116.417,197.000" stroke-width="2.816" stroke="black" fill="none" stroke-linecap="round"></path><path d="M 116.417,197.000 C 119.417,194.000 119.314,193.901 122.417,191.000" stroke-width="3.412" stroke="black" fill="none" stroke-linecap="round"></path><path d="M 122.417,191.000 C 138.364,173.805 138.917,174.500 155.417,158.000" stroke-width="2.768" stroke="black" fill="none" stroke-linecap="round"></path><path d="M 155.417,158.000 C 159.417,155.500 158.864,154.805 163.417,153.000" stroke-width="3.266" stroke="black" fill="none" stroke-linecap="round"></path><path d="M 163.417,153.000 C 171.173,147.548 171.417,148.000 179.417,143.000" stroke-width="2.884" stroke="black" fill="none" stroke-linecap="round"></path><path d="M 179.417,143.000 C 185.766,139.602 185.673,139.548 192.417,137.000" stroke-width="3.000" stroke="black" fill="none" stroke-linecap="round"></path><path d="M 192.417,137.000 C 197.290,134.789 197.266,135.102 202.417,134.000" stroke-width="3.272" stroke="black" fill="none" stroke-linecap="round"></path><path d="M 202.417,134.000 C 210.419,133.533 210.290,132.789 218.417,133.000" stroke-width="2.999" stroke="black" fill="none" stroke-linecap="round"></path><path d="M 218.417,133.000 C 225.407,132.242 225.419,132.533 232.417,132.000" stroke-width="2.997" stroke="black" fill="none" stroke-linecap="round"></path><path d="M 232.417,132.000 C 239.927,132.267 239.907,131.742 247.417,132.000" stroke-width="2.931" stroke="black" fill="none" stroke-linecap="round"></path><path d="M 247.417,132.000 C 253.941,131.720 253.927,131.767 260.417,131.000" stroke-width="3.155" stroke="black" fill="none" stroke-linecap="round"></path><path d="M 260.417,131.000 C 267.386,129.562 267.441,130.220 274.417,129.000" stroke-width="3.035" stroke="black" fill="none" stroke-linecap="round"></path><path d="M 274.417,129.000 C 279.917,129.000 279.886,128.562 285.417,129.000" stroke-width="3.291" stroke="black" fill="none" stroke-linecap="round"></path><path d="M 285.417,129.000 C 289.917,129.000 289.917,129.000 294.417,129.000" stroke-width="3.553" stroke="black" fill="none" stroke-linecap="round"></path><path d="M 294.417,129.000 C 298.917,129.000 298.917,129.000 303.417,129.000" stroke-width="3.586" stroke="black" fill="none" stroke-linecap="round"></path><path d="M 303.417,129.000 C 310.428,128.731 310.417,129.000 317.417,129.000" stroke-width="3.220" stroke="black" fill="none" stroke-linecap="round"></path><path d="M 317.417,129.000 C 323.438,129.310 323.428,129.231 329.417,130.000" stroke-width="3.821" stroke="black" fill="none" stroke-linecap="round"></path><path d="M 329.417,130.000 C 336.455,130.789 336.438,130.810 343.417,132.000" stroke-width="3.195" stroke="black" fill="none" stroke-linecap="round"></path><path d="M 343.417,132.000 C 347.906,133.050 347.955,132.789 352.417,134.000" stroke-width="3.448" stroke="black" fill="none" stroke-linecap="round"></path><path d="M 352.417,134.000 C 357.584,134.474 357.406,135.050 362.417,136.000" stroke-width="3.495" stroke="black" fill="none" stroke-linecap="round"></path><path d="M 362.417,136.000 C 366.805,138.301 367.084,137.474 371.417,140.000" stroke-width="4.042" stroke="black" fill="none" stroke-linecap="round"></path><path d="M 371.417,140.000 C 376.439,141.428 376.305,141.801 381.417,143.000" stroke-width="3.692" stroke="black" fill="none" stroke-linecap="round"></path><path d="M 381.417,143.000 C 386.406,143.708 385.939,144.428 390.417,146.000" stroke-width="3.634" stroke="black" fill="none" stroke-linecap="round"></path><path d="M 390.417,146.000 C 392.812,148.613 393.406,147.708 395.417,151.000" stroke-width="3.764" stroke="black" fill="none" stroke-linecap="round"></path><path d="M 395.417,151.000 C 399.331,153.633 398.812,154.113 402.417,157.000" stroke-width="3.681" stroke="black" fill="none" stroke-linecap="round"></path><path d="M 402.417,157.000 C 405.100,159.708 404.831,159.633 406.417,163.000" stroke-width="3.865" stroke="black" fill="none" stroke-linecap="round"></path><path d="M 406.417,163.000 C 408.218,167.441 408.100,167.208 408.417,172.000" stroke-width="3.762" stroke="black" fill="none" stroke-linecap="round"></path><path d="M 408.417,172.000 C 407.955,179.003 408.718,178.941 407.417,186.000" stroke-width="3.258" stroke="black" fill="none" stroke-linecap="round"></path><path d="M 407.417,186.000 C 407.563,192.107 406.955,192.003 406.417,198.000" stroke-width="3.282" stroke="black" fill="none" stroke-linecap="round"></path><path d="M 406.417,198.000 C 404.810,210.529 404.063,210.107 400.417,222.000" stroke-width="2.449" stroke="black" fill="none" stroke-linecap="round"></path><path d="M 400.417,222.000 C 394.496,233.542 395.810,234.029 388.417,245.000" stroke-width="2.289" stroke="black" fill="none" stroke-linecap="round"></path><path d="M 388.417,245.000 C 382.123,258.442 381.496,258.042 374.417,271.000" stroke-width="2.061" stroke="black" fill="none" stroke-linecap="round"></path><path d="M 374.417,271.000 C 368.729,280.713 368.623,280.442 361.417,289.000" stroke-width="2.259" stroke="black" fill="none" stroke-linecap="round"></path><path d="M 361.417,289.000 C 352.960,297.046 353.729,297.713 344.417,305.000" stroke-width="2.279" stroke="black" fill="none" stroke-linecap="round"></path><path d="M 344.417,305.000 C 338.973,311.252 338.460,310.546 332.417,316.000" stroke-width="2.713" stroke="black" fill="none" stroke-linecap="round"></path><path d="M 332.417,316.000 C 324.367,321.973 324.473,321.752 315.417,326.000" stroke-width="2.574" stroke="black" fill="none" stroke-linecap="round"></path><path d="M 315.417,326.000 C 304.064,330.506 304.367,330.973 292.417,334.000" stroke-width="2.324" stroke="black" fill="none" stroke-linecap="round"></path><path d="M 292.417,334.000 C 284.013,336.567 284.064,336.506 275.417,338.000" stroke-width="2.672" stroke="black" fill="none" stroke-linecap="round"></path><path d="M 275.417,338.000 C 265.935,340.000 266.013,339.567 256.417,340.000" stroke-width="2.595" stroke="black" fill="none" stroke-linecap="round"></path><path d="M 256.417,340.000 C 241.796,339.836 241.935,340.000 227.417,338.000" stroke-width="2.208" stroke="black" fill="none" stroke-linecap="round"></path><path d="M 227.417,338.000 C 218.391,336.112 218.296,336.836 209.417,334.000" stroke-width="2.530" stroke="black" fill="none" stroke-linecap="round"></path><path d="M 209.417,334.000 C 192.777,330.462 192.891,330.112 176.417,326.000" stroke-width="1.972" stroke="black" fill="none" stroke-linecap="round"></path><path d="M 176.417,326.000 C 170.718,324.447 170.777,324.462 165.417,322.000" stroke-width="2.760" stroke="black" fill="none" stroke-linecap="round"></path><path d="M 165.417,322.000 C 157.638,318.460 157.718,318.447 150.417,314.000" stroke-width="2.797" stroke="black" fill="none" stroke-linecap="round"></path><path d="M 150.417,314.000 C 140.828,307.623 140.638,307.960 131.417,301.000" stroke-width="2.499" stroke="black" fill="none" stroke-linecap="round"></path><path d="M 131.417,301.000 C 127.015,298.449 127.328,298.123 123.417,295.000" stroke-width="3.103" stroke="black" fill="none" stroke-linecap="round"></path><path d="M 123.417,295.000 C 113.638,287.678 115.015,286.949 107.417,278.000" stroke-width="2.551" stroke="black" fill="none" stroke-linecap="round"></path><path d="M 107.417,278.000 C 98.942,266.258 100.138,266.678 96.417,253.000" stroke-width="2.200" stroke="black" fill="none" stroke-linecap="round"></path><path d="M 96.417,253.000 C 91.417,223.283 90.942,224.258 91.417,194.000" stroke-width="1.440" stroke="black" fill="none" stroke-linecap="round"></path><path d="M 91.417,194.000 C 92.807,184.119 91.417,184.283 96.417,175.000" stroke-width="2.098" stroke="black" fill="none" stroke-linecap="round"></path><path d="M 96.417,175.000 C 109.414,134.339 111.807,136.119 129.417,98.000" stroke-width="1.125" stroke="black" fill="none" stroke-linecap="round"></path><path d="M 129.417,98.000 C 141.438,80.403 139.414,79.839 156.417,66.000" stroke-width="1.415" stroke="black" fill="none" stroke-linecap="round"></path><path d="M 156.417,66.000 C 167.450,54.035 167.438,55.403 181.417,48.000" stroke-width="1.780" stroke="black" fill="none" stroke-linecap="round"></path><path d="M 181.417,48.000 C 209.152,38.482 207.950,36.535 237.417,31.000" stroke-width="1.337" stroke="black" fill="none" stroke-linecap="round"></path><path d="M 237.417,31.000 C 260.305,25.354 260.152,24.982 283.417,21.000" stroke-width="1.442" stroke="black" fill="none" stroke-linecap="round"></path><path d="M 283.417,21.000 C 294.867,18.000 294.805,18.854 306.417,18.000" stroke-width="1.991" stroke="black" fill="none" stroke-linecap="round"></path><path d="M 306.417,18.000 C 330.042,18.434 329.867,18.000 353.417,21.000" stroke-width="1.613" stroke="black" fill="none" stroke-linecap="round"></path><path d="M 353.417,21.000 C 370.971,23.729 371.042,22.934 388.417,27.000" stroke-width="1.705" stroke="black" fill="none" stroke-linecap="round"></path><path d="M 388.417,27.000 C 394.898,28.583 394.971,28.229 401.417,30.000" stroke-width="2.474" stroke="black" fill="none" stroke-linecap="round"></path><path d="M 401.417,30.000 C 418.269,32.494 417.898,33.583 434.417,37.000" stroke-width="2.030" stroke="black" fill="none" stroke-linecap="round"></path><path d="M 434.417,37.000 C 439.784,38.912 439.769,38.494 444.417,42.000" stroke-width="2.861" stroke="black" fill="none" stroke-linecap="round"></path><path d="M 444.417,42.000 C 453.240,48.131 453.284,47.912 461.417,55.000" stroke-width="2.527" stroke="black" fill="none" stroke-linecap="round"></path><path d="M 461.417,55.000 C 465.784,58.686 465.740,58.631 469.417,63.000" stroke-width="3.068" stroke="black" fill="none" stroke-linecap="round"></path><path d="M 469.417,63.000 C 475.494,67.641 473.784,68.186 477.417,74.000" stroke-width="3.048" stroke="black" fill="none" stroke-linecap="round"></path><path d="M 477.417,74.000 C 482.710,90.156 481.994,89.141 482.417,106.000" stroke-width="2.106" stroke="black" fill="none" stroke-linecap="round"></path><path d="M 482.417,106.000 C 480.973,117.645 482.210,117.156 476.417,128.000" stroke-width="2.356" stroke="black" fill="none" stroke-linecap="round"></path><path d="M 476.417,128.000 C 469.725,142.892 469.973,142.645 460.417,156.000" stroke-width="1.990" stroke="black" fill="none" stroke-linecap="round"></path><path d="M 460.417,156.000 C 446.009,178.685 445.225,177.392 427.417,197.000" stroke-width="1.461" stroke="black" fill="none" stroke-linecap="round"></path><path d="M 427.417,197.000 C 410.730,209.947 412.509,211.685 393.417,222.000" stroke-width="1.650" stroke="black" fill="none" stroke-linecap="round"></path><path d="M 393.417,222.000 C 371.305,237.613 371.230,237.447 348.417,252.000" stroke-width="1.376" stroke="black" fill="none" stroke-linecap="round"></path><path d="M 348.417,252.000 C 319.172,271.549 318.805,270.613 288.417,288.000" stroke-width="1.128" stroke="black" fill="none" stroke-linecap="round"></path><path d="M 288.417,288.000 C 275.433,293.042 276.172,294.549 262.417,298.000" stroke-width="1.647" stroke="black" fill="none" stroke-linecap="round"></path><path d="M 262.417,298.000 C 244.203,305.950 243.933,305.042 225.417,312.000" stroke-width="1.724" stroke="black" fill="none" stroke-linecap="round"></path><path d="M 225.417,312.000 C 214.534,315.888 214.703,315.450 203.417,317.000" stroke-width="2.110" stroke="black" fill="none" stroke-linecap="round"></path><path d="M 203.417,317.000 C 194.161,317.692 194.534,317.888 185.417,316.000" stroke-width="2.458" stroke="black" fill="none" stroke-linecap="round"></path><path d="M 185.417,316.000 C 178.526,314.290 178.661,314.692 172.417,311.000" stroke-width="2.917" stroke="black" fill="none" stroke-linecap="round"></path><path d="M 172.417,311.000 C 156.304,306.146 159.026,303.790 146.417,295.000" stroke-width="2.152" stroke="black" fill="none" stroke-linecap="round"></path><path d="M 146.417,295.000 C 125.788,274.313 128.804,275.146 117.417,249.000" stroke-width="1.511" stroke="black" fill="none" stroke-linecap="round"></path><path d="M 117.417,249.000 C 107.995,208.733 104.788,210.813 104.417,168.000" stroke-width="1.125" stroke="black" fill="none" stroke-linecap="round"></path><path d="M 104.417,168.000 C 102.417,134.195 101.495,134.733 104.417,101.000" stroke-width="1.125" stroke="black" fill="none" stroke-linecap="round"></path><path d="M 104.417,101.000 C 105.403,92.297 104.917,92.695 109.417,85.000" stroke-width="1.956" stroke="black" fill="none" stroke-linecap="round"></path><path d="M 109.417,85.000 C 117.211,55.516 121.903,62.297 137.417,41.000" stroke-width="1.463" stroke="black" fill="none" stroke-linecap="round"></path><path d="M 137.417,41.000 C 174.144,23.193 168.711,18.516 212.417,11.000" stroke-width="1.125" stroke="black" fill="none" stroke-linecap="round"></path><path d="M 212.417,11.000 C 231.291,4.510 230.644,5.193 250.417,5.000" stroke-width="1.429" stroke="black" fill="none" stroke-linecap="round"></path><path d="M 250.417,5.000 C 309.669,8.194 309.291,6.510 368.417,15.000" stroke-width="1.125" stroke="black" fill="none" stroke-linecap="round"></path><path d="M 368.417,15.000 C 391.487,19.173 391.669,17.694 414.417,24.000" stroke-width="1.208" stroke="black" fill="none" stroke-linecap="round"></path><path d="M 414.417,24.000 C 429.977,25.843 429.487,27.173 444.417,31.000" stroke-width="1.633" stroke="black" fill="none" stroke-linecap="round"></path><path d="M 444.417,31.000 C 465.454,38.425 464.977,38.343 484.417,49.000" stroke-width="1.540" stroke="black" fill="none" stroke-linecap="round"></path><path d="M 484.417,49.000 C 490.891,54.050 491.454,52.925 496.417,60.000" stroke-width="2.316" stroke="black" fill="none" stroke-linecap="round"></path><path d="M 496.417,60.000 C 506.015,67.141 503.891,68.050 510.417,77.000" stroke-width="2.351" stroke="black" fill="none" stroke-linecap="round"></path><path d="M 510.417,77.000 C 520.430,96.261 518.515,95.141 521.417,116.000" stroke-width="1.763" stroke="black" fill="none" stroke-linecap="round"></path><path d="M 521.417,116.000 C 520.048,137.290 522.430,136.261 514.417,157.000" stroke-width="1.669" stroke="black" fill="none" stroke-linecap="round"></path><path d="M 514.417,157.000 C 510.474,164.873 512.048,165.290 505.417,172.000" stroke-width="2.314" stroke="black" fill="none" stroke-linecap="round"></path><path d="M 505.417,172.000 C 490.245,197.892 488.474,195.873 470.417,219.000" stroke-width="1.409" stroke="black" fill="none" stroke-linecap="round"></path><path d="M 470.417,219.000 C 457.783,229.962 459.245,230.892 443.417,238.000" stroke-width="1.768" stroke="black" fill="none" stroke-linecap="round"></path><path d="M 443.417,238.000 C 416.409,257.209 415.783,253.462 386.417,266.000" stroke-width="1.269" stroke="black" fill="none" stroke-linecap="round"></path><path d="M 386.417,266.000 C 356.552,272.686 358.409,274.209 327.417,272.000" stroke-width="1.216" stroke="black" fill="none" stroke-linecap="round"></path><path d="M 327.417,272.000 C 313.923,269.166 314.052,271.686 301.417,264.000" stroke-width="1.788" stroke="black" fill="none" stroke-linecap="round"></path><path d="M 301.417,264.000 C 290.756,259.421 290.923,259.666 281.417,253.000" stroke-width="2.177" stroke="black" fill="none" stroke-linecap="round"></path><path d="M 281.417,253.000 C 274.127,248.446 274.756,248.421 269.417,242.000" stroke-width="2.622" stroke="black" fill="none" stroke-linecap="round"></path><path d="M 269.417,242.000 C 263.683,234.852 264.627,235.446 262.417,227.000" stroke-width="2.720" stroke="black" fill="none" stroke-linecap="round"></path><path d="M 262.417,227.000 C 261.167,218.250 261.183,219.352 264.417,211.000" stroke-width="2.777" stroke="black" fill="none" stroke-linecap="round"></path><path d="M 264.417,211.000 C 274.211,188.161 274.167,189.250 288.417,169.000" stroke-width="1.705" stroke="black" fill="none" stroke-linecap="round"></path><path d="M 288.417,169.000 C 297.532,160.505 295.711,159.161 307.417,153.000" stroke-width="2.074" stroke="black" fill="none" stroke-linecap="round"></path><path d="M 307.417,153.000 C 323.921,138.809 324.532,140.005 342.417,128.000" stroke-width="1.712" stroke="black" fill="none" stroke-linecap="round"></path><path d="M 342.417,128.000 C 362.462,114.273 362.421,116.309 384.417,108.000" stroke-width="1.512" stroke="black" fill="none" stroke-linecap="round"></path><path d="M 384.417,108.000 C 402.304,104.230 400.962,103.273 419.417,106.000" stroke-width="1.726" stroke="black" fill="none" stroke-linecap="round"></path><path d="M 419.417,106.000 C 431.556,108.696 431.304,107.230 442.417,114.000" stroke-width="2.050" stroke="black" fill="none" stroke-linecap="round"></path><path d="M 442.417,114.000 C 452.680,120.148 453.056,119.196 462.417,127.000" stroke-width="2.192" stroke="black" fill="none" stroke-linecap="round"></path><path d="M 462.417,127.000 C 468.207,128.834 466.180,129.648 469.417,133.000" stroke-width="3.041" stroke="black" fill="none" stroke-linecap="round"></path><path d="M 469.417,133.000 C 473.699,146.301 472.707,144.334 471.417,158.000" stroke-width="2.459" stroke="black" fill="none" stroke-linecap="round"></path><path d="M 471.417,158.000 C 467.596,166.938 469.699,166.801 461.417,174.000" stroke-width="2.543" stroke="black" fill="none" stroke-linecap="round"></path><path d="M 461.417,174.000 C 447.018,191.963 446.596,190.938 429.417,206.000" stroke-width="1.743" stroke="black" fill="none" stroke-linecap="round"></path><path d="M 429.417,206.000 C 406.248,222.105 407.518,223.463 382.417,237.000" stroke-width="1.411" stroke="black" fill="none" stroke-linecap="round"></path><path d="M 382.417,237.000 C 377.986,239.172 378.248,239.605 373.417,241.000" stroke-width="2.444" stroke="black" fill="none" stroke-linecap="round"></path><path d="M 373.417,241.000 C 368.011,243.322 367.986,243.172 362.417,245.000" stroke-width="3.048" stroke="black" fill="none" stroke-linecap="round"></path></svg>