<svg xmlns="http://www.w3.org/2000/svg" xmlns:xlink="http://www.w3.org/1999/xlink" viewBox="0 0 664 314" width="664" height="314"><path d="M 166.000,225.000 C 161.460,225.446 161.500,225.000 157.000,225.000" stroke-width="5.205" stroke="black" fill="none" stroke-linecap="round"></path><path d="M 157.000,225.000 C 151.481,224.096 151.460,224.446 146.000,223.000" stroke-width="3.717" stroke="black" fill="none" stroke-linecap="round"></path><path d="M 146.000,223.000 C 133.899,220.894 133.981,220.596 122.000,218.000" stroke-width="2.526" stroke="black" fill="none" stroke-linecap="round"></path><path d="M 122.000,218.000 C 115.191,216.692 115.399,216.394 109.000,214.000" stroke-width="2.865" stroke="black" fill="none" stroke-linecap="round"></path><path d="M 109.000,214.000 C 103.788,211.315 103.691,211.692 99.000,208.000" stroke-width="3.180" stroke="black" fill="none" stroke-linecap="round"></path><path d="M 99.000,208.000 C 89.871,203.108 90.788,202.315 83.000,196.000" stroke-width="2.738" stroke="black" fill="none" stroke-linecap="round"></path><path d="M 83.000,196.000 C 76.073,187.269 75.371,188.108 70.000,178.000" stroke-width="2.459" stroke="black" fill="none" stroke-linecap="round"></path><path d="M 70.000,178.000 C 66.032,172.805 66.573,172.769 64.000,167.000" stroke-width="2.957" stroke="black" fill="none" stroke-linecap="round"></path><path d="M 64.000,167.000 C 62.536,162.413 62.532,162.805 63.000,158.000" stroke-width="3.422" stroke="black" fill="none" stroke-linecap="round"></path><path d="M 63.000,158.000 C 63.189,152.217 63.536,152.913 66.000,148.000" stroke-width="3.409" stroke="black" fill="none" stroke-linecap="round"></path><path d="M 66.000,148.000 C 70.680,141.405 70.189,141.717 77.000,137.000" stroke-width="2.999" stroke="black" fill="none" stroke-linecap="round"></path><path d="M 77.000,137.000 C 87.272,128.909 87.180,129.905 99.000,125.000" stroke-width="2.514" stroke="black" fill="none" stroke-linecap="round"></path><path d="M 99.000,125.000 C 113.428,121.656 112.772,120.409 128.000,120.000" stroke-width="2.116" stroke="black" fill="none" stroke-linecap="round"></path><path d="M 128.000,120.000 C 135.561,119.209 135.428,119.156 143.000,120.000" stroke-width="2.612" stroke="black" fill="none" stroke-linecap="round"></path><path d="M 143.000,120.000 C 159.389,121.283 159.061,121.709 175.000,125.000" stroke-width="2.099" stroke="black" fill="none" stroke-linecap="round"></path><path d="M 175.000,125.000 C 180.163,127.209 180.389,126.283 185.000,130.000" stroke-width="2.864" stroke="black" fill="none" stroke-linecap="round"></path><path d="M 185.000,130.000 C 193.362,134.545 193.163,134.709 201.000,140.000" stroke-width="2.660" stroke="black" fill="none" stroke-linecap="round"></path><path d="M 201.000,140.000 C 204.545,141.908 203.862,142.045 206.000,145.000" stroke-width="3.460" stroke="black" fill="none" stroke-linecap="round"></path><path d="M 206.000,145.000 C 210.751,151.455 208.545,150.408 209.000,157.000" stroke-width="3.315" stroke="black" fill="none" stroke-linecap="round"></path><path d="M 209.000,157.000 C 204.594,173.042 204.751,170.455 194.000,183.000" stroke-width="2.230" stroke="black" fill="none" stroke-linecap="round"></path><path d="M 194.000,183.000 C 176.836,194.126 179.594,196.542 159.000,204.000" stroke-width="1.793" stroke="black" fill="none" stroke-linecap="round"></path><path d="M 159.000,204.000 C 148.523,209.048 148.836,209.626 138.000,214.000" stroke-width="2.164" stroke="black" fill="none" stroke-linecap="round"></path><path d="M 138.000,214.000 C 123.244,221.820 123.023,221.048 108.000,228.000" stroke-width="1.979" stroke="black" fill="none" stroke-linecap="round"></path><path d="M 108.000,228.000 C 104.486,228.419 104.744,229.320 101.000,229.000" stroke-width="2.988" stroke="black" fill="none" stroke-linecap="round"></path><path d="M 101.000,229.000 C 95.554,231.190 98.486,229.419 96.000,230.000" stroke-width="4.087" stroke="black" fill="none" stroke-linecap="round"></path><path d="M 96.000,230.000 C 99.756,225.244 97.054,227.190 104.000,221.000" stroke-width="4.378" stroke="black" fill="none" stroke-linecap="round"></path><path d="M 306.000,176.000 C 309.925,174.562 310.000,175.000 314.000,174.000" stroke-width="5.173" stroke="black" fill="none" stroke-linecap="round"></path><path d="M 314.000,174.000 C 324.485,172.809 324.425,172.562 335.000,172.000" stroke-width="2.969" stroke="black" fill="none" stroke-linecap="round"></path><path d="M 335.000,172.000 C 350.520,171.248 350.485,170.809 366.000,170.000" stroke-width="2.141" stroke="black" fill="none" stroke-linecap="round"></path><path d="M 366.000,170.000 C 381.460,167.923 381.520,168.748 397.000,167.000" stroke-width="2.030" stroke="black" fill="none" stroke-linecap="round"></path><path d="M 397.000,167.000 C 431.989,165.148 431.960,164.923 467.000,164.000" stroke-width="1.224" stroke="black" fill="none" stroke-linecap="round"></path><path d="M 467.000,164.000 C 492.998,163.306 492.989,163.148 519.000,163.000" stroke-width="1.333" stroke="black" fill="none" stroke-linecap="round"></path><path d="M 519.000,163.000 C 535.504,162.750 535.498,162.806 552.000,163.000" stroke-width="1.692" stroke="black" fill="none" stroke-linecap="round"></path><path d="M 552.000,163.000 C 568.510,163.298 568.504,163.250 585.000,164.000" stroke-width="1.790" stroke="black" fill="none" stroke-linecap="round"></path><path d="M 585.000,164.000 C 591.995,164.650 592.010,164.298 599.000,165.000" stroke-width="2.533" stroke="black" fill="none" stroke-linecap="round"></path></svg>