<svg xmlns="http://www.w3.org/2000/svg" xmlns:xlink="http://www.w3.org/1999/xlink" viewBox="0 0 664 304" width="664" height="304"><path d="M 119.000,197.000 C 111.489,196.624 111.500,196.500 104.000,196.000" stroke-width="5.012" stroke="black" fill="none" stroke-linecap="round"></path><path d="M 104.000,196.000 C 99.453,195.795 99.489,195.624 95.000,195.000" stroke-width="3.926" stroke="black" fill="none" stroke-linecap="round"></path><path d="M 95.000,195.000 C 84.991,194.211 85.453,193.295 76.000,191.000" stroke-width="2.915" stroke="black" fill="none" stroke-linecap="round"></path><path d="M 76.000,191.000 C 71.011,188.565 70.991,189.211 67.000,185.000" stroke-width="3.262" stroke="black" fill="none" stroke-linecap="round"></path><path d="M 67.000,185.000 C 61.823,180.461 62.011,180.565 58.000,175.000" stroke-width="3.176" stroke="black" fill="none" stroke-linecap="round"></path><path d="M 58.000,175.000 C 54.330,170.321 54.823,170.461 53.000,165.000" stroke-width="3.376" stroke="black" fill="none" stroke-linecap="round"></path><path d="M 53.000,165.000 C 51.751,157.974 51.330,158.321 52.000,151.000" stroke-width="3.164" stroke="black" fill="none" stroke-linecap="round"></path><path d="M 52.000,151.000 C 52.113,143.741 52.251,143.974 54.000,137.000" stroke-width="3.098" stroke="black" fill="none" stroke-linecap="round"></path><path d="M 54.000,137.000 C 55.183,130.325 55.613,131.241 59.000,126.000" stroke-width="3.229" stroke="black" fill="none" stroke-linecap="round"></path><path d="M 59.000,126.000 C 63.801,122.599 62.683,121.825 69.000,120.000" stroke-width="3.303" stroke="black" fill="none" stroke-linecap="round"></path><path d="M 69.000,120.000 C 73.745,116.821 73.801,117.599 79.000,116.000" stroke-width="3.400" stroke="black" fill="none" stroke-linecap="round"></path><path d="M 79.000,116.000 C 90.044,114.687 89.745,114.321 101.000,115.000" stroke-width="2.529" stroke="black" fill="none" stroke-linecap="round"></path><path d="M 101.000,115.000 C 107.563,115.713 107.544,115.187 114.000,117.000" stroke-width="2.839" stroke="black" fill="none" stroke-linecap="round"></path><path d="M 114.000,117.000 C 117.882,117.246 117.563,117.713 121.000,119.000" stroke-width="3.529" stroke="black" fill="none" stroke-linecap="round"></path><path d="M 121.000,119.000 C 126.793,121.559 125.882,121.746 130.000,126.000" stroke-width="3.354" stroke="black" fill="none" stroke-linecap="round"></path><path d="M 130.000,126.000 C 133.343,131.309 133.293,130.559 134.000,137.000" stroke-width="3.338" stroke="black" fill="none" stroke-linecap="round"></path><path d="M 134.000,137.000 C 134.313,144.650 134.843,144.309 133.000,152.000" stroke-width="3.019" stroke="black" fill="none" stroke-linecap="round"></path><path d="M 133.000,152.000 C 131.383,158.645 131.813,158.650 129.000,165.000" stroke-width="3.092" stroke="black" fill="none" stroke-linecap="round"></path><path d="M 129.000,165.000 C 127.761,171.447 126.883,170.645 124.000,176.000" stroke-width="3.227" stroke="black" fill="none" stroke-linecap="round"></path><path d="M 124.000,176.000 C 117.646,183.106 118.261,182.947 110.000,188.000" stroke-width="2.838" stroke="black" fill="none" stroke-linecap="round"></path><path d="M 110.000,188.000 C 104.638,190.590 105.146,191.106 99.000,192.000" stroke-width="3.113" stroke="black" fill="none" stroke-linecap="round"></path><path d="M 99.000,192.000 C 94.215,194.099 94.638,193.090 90.000,193.000" stroke-width="3.528" stroke="black" fill="none" stroke-linecap="round"></path><path d="M 90.000,193.000 C 82.343,190.412 82.715,191.099 76.000,186.000" stroke-width="3.086" stroke="black" fill="none" stroke-linecap="round"></path><path d="M 76.000,186.000 C 70.754,182.005 70.843,182.412 67.000,177.000" stroke-width="3.119" stroke="black" fill="none" stroke-linecap="round"></path><path d="M 67.000,177.000 C 63.570,173.580 64.754,174.005 64.000,170.000" stroke-width="3.618" stroke="black" fill="none" stroke-linecap="round"></path><path d="M 64.000,170.000 C 65.909,160.455 65.070,161.080 70.000,152.000" stroke-width="2.817" stroke="black" fill="none" stroke-linecap="round"></path><path d="M 70.000,152.000 C 74.466,145.476 73.409,144.955 79.000,139.000" stroke-width="2.885" stroke="black" fill="none" stroke-linecap="round"></path><path d="M 79.000,139.000 C 80.611,134.505 81.466,135.476 84.000,132.000" stroke-width="3.432" stroke="black" fill="none" stroke-linecap="round"></path><path d="M 84.000,132.000 C 92.523,125.159 92.111,126.005 102.000,122.000" stroke-width="2.688" stroke="black" fill="none" stroke-linecap="round"></path><path d="M 102.000,122.000 C 108.136,121.162 107.523,120.159 114.000,122.000" stroke-width="3.036" stroke="black" fill="none" stroke-linecap="round"></path><path d="M 114.000,122.000 C 118.929,122.651 118.636,122.662 123.000,125.000" stroke-width="3.416" stroke="black" fill="none" stroke-linecap="round"></path><path d="M 123.000,125.000 C 131.643,130.810 131.929,130.151 140.000,137.000" stroke-width="2.673" stroke="black" fill="none" stroke-linecap="round"></path><path d="M 140.000,137.000 C 145.333,140.667 145.143,140.810 150.000,145.000" stroke-width="3.075" stroke="black" fill="none" stroke-linecap="round"></path><path d="M 150.000,145.000 C 152.048,147.463 152.333,147.167 154.000,150.000" stroke-width="3.719" stroke="black" fill="none" stroke-linecap="round"></path><path d="M 154.000,150.000 C 157.950,153.607 157.048,153.963 160.000,158.000" stroke-width="3.471" stroke="black" fill="none" stroke-linecap="round"></path><path d="M 160.000,158.000 C 161.217,161.528 161.450,161.107 161.000,165.000" stroke-width="3.850" stroke="black" fill="none" stroke-linecap="round"></path><path d="M 161.000,165.000 C 161.781,170.601 160.717,169.528 159.000,174.000" stroke-width="3.706" stroke="black" fill="none" stroke-linecap="round"></path><path d="M 159.000,174.000 C 151.571,181.643 152.781,181.601 143.000,187.000" stroke-width="2.807" stroke="black" fill="none" stroke-linecap="round"></path><path d="M 143.000,187.000 C 139.057,188.459 139.571,189.143 135.000,189.000" stroke-width="3.428" stroke="black" fill="none" stroke-linecap="round"></path><path d="M 135.000,189.000 C 131.378,189.676 131.557,189.459 128.000,189.000" stroke-width="3.799" stroke="black" fill="none" stroke-linecap="round"></path><path d="M 128.000,189.000 C 123.089,188.648 123.878,188.176 120.000,186.000" stroke-width="3.706" stroke="black" fill="none" stroke-linecap="round"></path><path d="M 120.000,186.000 C 115.559,181.936 116.089,182.648 114.000,177.000" stroke-width="3.454" stroke="black" fill="none" stroke-linecap="round"></path><path d="M 114.000,177.000 C 112.668,171.660 112.559,172.436 114.000,167.000" stroke-width="3.459" stroke="black" fill="none" stroke-linecap="round"></path><path d="M 114.000,167.000 C 116.538,161.193 115.668,161.160 120.000,156.000" stroke-width="3.358" stroke="black" fill="none" stroke-linecap="round"></path><path d="M 120.000,156.000 C 123.109,150.017 123.538,150.693 128.000,146.000" stroke-width="3.191" stroke="black" fill="none" stroke-linecap="round"></path><path d="M 128.000,146.000 C 137.657,138.746 137.109,138.517 148.000,133.000" stroke-width="2.475" stroke="black" fill="none" stroke-linecap="round"></path><path d="M 148.000,133.000 C 151.648,130.408 151.157,131.246 155.000,131.000" stroke-width="3.345" stroke="black" fill="none" stroke-linecap="round"></path><path d="M 155.000,131.000 C 162.104,132.050 160.148,131.908 165.000,136.000" stroke-width="3.902" stroke="black" fill="none" stroke-linecap="round"></path><path d="M 165.000,136.000 C 166.000,140.998 167.604,139.550 166.000,146.000" stroke-width="3.693" stroke="black" fill="none" stroke-linecap="round"></path><path d="M 166.000,146.000 C 166.214,151.659 166.000,151.498 165.000,157.000" stroke-width="3.490" stroke="black" fill="none" stroke-linecap="round"></path><path d="M 165.000,157.000 C 162.741,162.428 163.714,162.659 161.000,168.000" stroke-width="3.317" stroke="black" fill="none" stroke-linecap="round"></path></svg>