<svg xmlns="http://www.w3.org/2000/svg" xmlns:xlink="http://www.w3.org/1999/xlink" viewBox="0 0 664 416" width="664" height="416"><path d="M 161.563,204.000 C 153.057,201.517 153.063,201.500 144.563,199.000" stroke-width="4.558" stroke="black" fill="none" stroke-linecap="round"></path><path d="M 144.563,199.000 C 139.570,197.473 139.557,197.517 134.563,196.000" stroke-width="3.684" stroke="black" fill="none" stroke-linecap="round"></path><path d="M 134.563,196.000 C 130.884,195.424 131.070,194.973 127.563,194.000" stroke-width="3.809" stroke="black" fill="none" stroke-linecap="round"></path><path d="M 127.563,194.000 C 123.949,192.177 123.884,192.424 120.563,190.000" stroke-width="3.761" stroke="black" fill="none" stroke-linecap="round"></path><path d="M 120.563,190.000 C 117.176,187.323 116.949,187.677 113.563,185.000" stroke-width="3.743" stroke="black" fill="none" stroke-linecap="round"></path><path d="M 113.563,185.000 C 109.729,183.436 110.176,182.823 106.563,181.000" stroke-width="3.841" stroke="black" fill="none" stroke-linecap="round"></path><path d="M 106.563,181.000 C 99.903,177.638 103.229,178.436 100.563,175.000" stroke-width="4.264" stroke="black" fill="none" stroke-linecap="round"></path><path d="M 100.563,175.000 C 105.106,172.064 101.403,171.638 109.563,169.000" stroke-width="4.878" stroke="black" fill="none" stroke-linecap="round"></path><path d="M 109.563,169.000 C 113.063,166.500 113.106,166.564 116.563,164.000" stroke-width="3.955" stroke="black" fill="none" stroke-linecap="round"></path><path d="M 116.563,164.000 C 123.515,158.933 123.563,159.000 130.563,154.000" stroke-width="2.993" stroke="black" fill="none" stroke-linecap="round"></path><path d="M 130.563,154.000 C 138.694,148.683 138.515,148.433 146.563,143.000" stroke-width="2.842" stroke="black" fill="none" stroke-linecap="round"></path><path d="M 146.563,143.000 C 156.361,135.216 156.694,135.683 166.563,128.000" stroke-width="2.421" stroke="black" fill="none" stroke-linecap="round"></path><path d="M 166.563,128.000 C 176.976,120.867 176.861,120.716 187.563,114.000" stroke-width="2.309" stroke="black" fill="none" stroke-linecap="round"></path><path d="M 187.563,114.000 C 195.536,108.957 195.476,108.867 203.563,104.000" stroke-width="2.493" stroke="black" fill="none" stroke-linecap="round"></path><path d="M 203.563,104.000 C 212.519,98.426 212.536,98.457 221.563,93.000" stroke-width="2.505" stroke="black" fill="none" stroke-linecap="round"></path><path d="M 221.563,93.000 C 227.748,89.779 227.519,89.426 233.563,86.000" stroke-width="2.939" stroke="black" fill="none" stroke-linecap="round"></path><path d="M 233.563,86.000 C 237.373,82.693 237.748,83.279 241.563,80.000" stroke-width="3.336" stroke="black" fill="none" stroke-linecap="round"></path><path d="M 241.563,80.000 C 248.292,75.687 244.373,78.193 247.563,77.000" stroke-width="3.752" stroke="black" fill="none" stroke-linecap="round"></path><path d="M 247.563,77.000 C 242.101,83.036 245.792,80.187 236.563,89.000" stroke-width="4.359" stroke="black" fill="none" stroke-linecap="round"></path><path d="M 236.563,89.000 C 228.713,96.697 229.101,97.036 221.563,105.000" stroke-width="2.748" stroke="black" fill="none" stroke-linecap="round"></path><path d="M 221.563,105.000 C 213.162,114.704 213.213,114.697 205.563,125.000" stroke-width="2.435" stroke="black" fill="none" stroke-linecap="round"></path><path d="M 205.563,125.000 C 198.504,136.328 197.662,135.704 190.563,147.000" stroke-width="2.260" stroke="black" fill="none" stroke-linecap="round"></path><path d="M 190.563,147.000 C 181.784,157.287 182.504,157.828 173.563,168.000" stroke-width="2.140" stroke="black" fill="none" stroke-linecap="round"></path><path d="M 173.563,168.000 C 166.137,179.466 165.284,178.787 157.563,190.000" stroke-width="2.156" stroke="black" fill="none" stroke-linecap="round"></path><path d="M 157.563,190.000 C 148.561,201.001 148.637,200.966 138.563,211.000" stroke-width="2.067" stroke="black" fill="none" stroke-linecap="round"></path><path d="M 138.563,211.000 C 129.524,220.082 129.561,220.001 119.563,228.000" stroke-width="2.192" stroke="black" fill="none" stroke-linecap="round"></path><path d="M 119.563,228.000 C 110.028,235.761 110.024,235.582 99.563,242.000" stroke-width="2.273" stroke="black" fill="none" stroke-linecap="round"></path><path d="M 99.563,242.000 C 83.694,250.763 84.028,251.261 67.563,259.000" stroke-width="2.570" stroke="black" fill="none" stroke-linecap="round"></path><path d="M 67.563,259.000 C 60.019,262.410 60.194,262.763 52.563,266.000" stroke-width="2.760" stroke="black" fill="none" stroke-linecap="round"></path><path d="M 52.563,266.000 C 46.704,269.330 46.519,268.910 40.563,272.000" stroke-width="3.018" stroke="black" fill="none" stroke-linecap="round"></path><path d="M 40.563,272.000 C 34.993,273.828 35.204,274.330 29.563,276.000" stroke-width="3.176" stroke="black" fill="none" stroke-linecap="round"></path><path d="M 29.563,276.000 C 25.219,278.545 24.993,277.828 20.563,280.000" stroke-width="3.384" stroke="black" fill="none" stroke-linecap="round"></path><path d="M 20.563,280.000 C 14.733,282.952 17.219,281.045 13.563,281.000" stroke-width="3.730" stroke="black" fill="none" stroke-linecap="round"></path><path d="M 13.563,281.000 C 11.691,274.211 11.733,277.952 14.563,270.000" stroke-width="4.418" stroke="black" fill="none" stroke-linecap="round"></path><path d="M 14.563,270.000 C 21.412,264.296 19.191,263.211 28.563,259.000" stroke-width="3.099" stroke="black" fill="none" stroke-linecap="round"></path><path d="M 28.563,259.000 C 34.830,254.126 34.912,254.296 41.563,250.000" stroke-width="2.967" stroke="black" fill="none" stroke-linecap="round"></path><path d="M 41.563,250.000 C 50.498,244.881 50.330,244.626 59.563,240.000" stroke-width="2.718" stroke="black" fill="none" stroke-linecap="round"></path><path d="M 59.563,240.000 C 69.963,234.300 69.998,234.381 80.563,229.000" stroke-width="2.564" stroke="black" fill="none" stroke-linecap="round"></path><path d="M 80.563,229.000 C 90.996,223.855 90.963,223.800 101.563,219.000" stroke-width="2.302" stroke="black" fill="none" stroke-linecap="round"></path><path d="M 101.563,219.000 C 109.761,215.901 109.496,215.355 117.563,212.000" stroke-width="2.560" stroke="black" fill="none" stroke-linecap="round"></path><path d="M 117.563,212.000 C 126.271,206.356 126.761,207.401 135.563,202.000" stroke-width="2.489" stroke="black" fill="none" stroke-linecap="round"></path><path d="M 135.563,202.000 C 142.789,200.010 142.271,198.856 149.563,197.000" stroke-width="2.921" stroke="black" fill="none" stroke-linecap="round"></path><path d="M 149.563,197.000 C 155.913,193.180 156.289,194.010 162.563,190.000" stroke-width="2.924" stroke="black" fill="none" stroke-linecap="round"></path><path d="M 162.563,190.000 C 167.859,188.509 167.413,187.680 172.563,186.000" stroke-width="3.269" stroke="black" fill="none" stroke-linecap="round"></path><path d="M 172.563,186.000 C 178.188,182.000 175.359,184.509 177.563,182.000" stroke-width="3.839" stroke="black" fill="none" stroke-linecap="round"></path><path d="M 177.563,182.000 C 173.193,183.487 176.688,182.000 169.563,186.000" stroke-width="4.757" stroke="black" fill="none" stroke-linecap="round"></path><path d="M 169.563,186.000 C 167.063,188.500 166.693,187.987 164.563,191.000" stroke-width="4.124" stroke="black" fill="none" stroke-linecap="round"></path><path d="M 164.563,191.000 C 161.790,193.277 162.063,193.500 159.563,196.000" stroke-width="4.017" stroke="black" fill="none" stroke-linecap="round"></path><path d="M 159.563,196.000 C 157.498,198.959 157.290,198.777 155.563,202.000" stroke-width="4.168" stroke="black" fill="none" stroke-linecap="round"></path><path d="M 155.563,202.000 C 154.063,204.500 153.998,204.459 152.563,207.000" stroke-width="4.182" stroke="black" fill="none" stroke-linecap="round"></path><path d="M 152.563,207.000 C 150.862,209.401 151.063,209.500 149.563,212.000" stroke-width="4.187" stroke="black" fill="none" stroke-linecap="round"></path><path d="M 149.563,212.000 C 147.997,214.391 148.362,214.401 147.563,217.000" stroke-width="4.202" stroke="black" fill="none" stroke-linecap="round"></path><path d="M 147.563,217.000 C 145.813,222.250 146.997,220.391 147.563,224.000" stroke-width="4.500" stroke="black" fill="none" stroke-linecap="round"></path><path d="M 147.563,224.000 C 151.063,224.000 149.313,225.750 154.563,224.000" stroke-width="4.126" stroke="black" fill="none" stroke-linecap="round"></path><path d="M 154.563,224.000 C 160.604,224.497 160.563,224.000 166.563,224.000" stroke-width="3.509" stroke="black" fill="none" stroke-linecap="round"></path><path d="M 166.563,224.000 C 173.123,224.418 172.604,223.497 178.563,222.000" stroke-width="3.283" stroke="black" fill="none" stroke-linecap="round"></path><path d="M 178.563,222.000 C 186.404,217.440 186.623,218.418 193.563,212.000" stroke-width="2.875" stroke="black" fill="none" stroke-linecap="round"></path><path d="M 193.563,212.000 C 198.813,207.750 198.904,207.940 203.563,203.000" stroke-width="3.056" stroke="black" fill="none" stroke-linecap="round"></path><path d="M 203.563,203.000 C 208.260,198.163 208.313,198.250 212.563,193.000" stroke-width="3.056" stroke="black" fill="none" stroke-linecap="round"></path><path d="M 212.563,193.000 C 215.657,189.067 215.760,189.163 218.563,185.000" stroke-width="3.380" stroke="black" fill="none" stroke-linecap="round"></path><path d="M 218.563,185.000 C 223.312,178.438 220.657,182.067 222.563,179.000" stroke-width="3.760" stroke="black" fill="none" stroke-linecap="round"></path><path d="M 222.563,179.000 C 217.863,183.049 221.312,179.938 214.563,188.000" stroke-width="4.413" stroke="black" fill="none" stroke-linecap="round"></path><path d="M 214.563,188.000 C 212.437,192.448 211.863,192.049 210.563,197.000" stroke-width="3.780" stroke="black" fill="none" stroke-linecap="round"></path><path d="M 210.563,197.000 C 209.096,201.013 208.937,200.948 207.563,205.000" stroke-width="3.755" stroke="black" fill="none" stroke-linecap="round"></path><path d="M 207.563,205.000 C 204.792,208.459 206.596,207.513 205.563,210.000" stroke-width="4.061" stroke="black" fill="none" stroke-linecap="round"></path><path d="M 205.563,210.000 C 208.575,212.193 206.292,211.459 210.563,211.000" stroke-width="4.701" stroke="black" fill="none" stroke-linecap="round"></path><path d="M 210.563,211.000 C 215.315,205.723 216.075,207.693 220.563,201.000" stroke-width="3.353" stroke="black" fill="none" stroke-linecap="round"></path><path d="M 220.563,201.000 C 225.412,196.795 225.315,196.723 230.563,193.000" stroke-width="3.250" stroke="black" fill="none" stroke-linecap="round"></path><path d="M 230.563,193.000 C 235.207,190.194 234.912,189.795 239.563,187.000" stroke-width="3.430" stroke="black" fill="none" stroke-linecap="round"></path><path d="M 239.563,187.000 C 242.540,184.473 242.707,184.694 245.563,182.000" stroke-width="3.761" stroke="black" fill="none" stroke-linecap="round"></path><path d="M 245.563,182.000 C 250.563,176.788 248.040,179.973 250.563,178.000" stroke-width="4.365" stroke="black" fill="none" stroke-linecap="round"></path><path d="M 250.563,178.000 C 248.370,183.665 250.563,180.288 245.563,189.000" stroke-width="4.164" stroke="black" fill="none" stroke-linecap="round"></path><path d="M 245.563,189.000 C 242.764,192.841 243.370,193.165 240.563,197.000" stroke-width="3.821" stroke="black" fill="none" stroke-linecap="round"></path><path d="M 240.563,197.000 C 238.108,201.364 238.264,201.341 236.563,206.000" stroke-width="3.902" stroke="black" fill="none" stroke-linecap="round"></path><path d="M 236.563,206.000 C 233.546,210.992 235.608,208.864 235.563,212.000" stroke-width="4.022" stroke="black" fill="none" stroke-linecap="round"></path><path d="M 235.563,212.000 C 243.546,214.559 240.546,214.492 250.563,213.000" stroke-width="4.242" stroke="black" fill="none" stroke-linecap="round"></path><path d="M 250.563,213.000 C 256.563,209.500 257.046,211.559 262.563,206.000" stroke-width="3.369" stroke="black" fill="none" stroke-linecap="round"></path><path d="M 262.563,206.000 C 268.366,202.098 268.563,202.500 274.563,199.000" stroke-width="3.173" stroke="black" fill="none" stroke-linecap="round"></path><path d="M 274.563,199.000 C 279.701,197.288 279.366,196.598 284.563,195.000" stroke-width="3.357" stroke="black" fill="none" stroke-linecap="round"></path><path d="M 284.563,195.000 C 289.689,190.197 288.201,193.288 291.563,191.000" stroke-width="3.617" stroke="black" fill="none" stroke-linecap="round"></path><path d="M 291.563,191.000 C 292.798,194.912 293.189,191.697 291.563,198.000" stroke-width="4.516" stroke="black" fill="none" stroke-linecap="round"></path><path d="M 291.563,198.000 C 288.468,201.933 289.798,202.412 285.563,206.000" stroke-width="3.722" stroke="black" fill="none" stroke-linecap="round"></path><path d="M 285.563,206.000 C 283.161,208.804 283.468,208.933 281.563,212.000" stroke-width="3.879" stroke="black" fill="none" stroke-linecap="round"></path><path d="M 281.563,212.000 C 278.536,216.460 280.161,214.804 279.563,218.000" stroke-width="4.417" stroke="black" fill="none" stroke-linecap="round"></path><path d="M 279.563,218.000 C 282.841,218.972 280.536,219.460 285.563,218.000" stroke-width="4.651" stroke="black" fill="none" stroke-linecap="round"></path><path d="M 285.563,218.000 C 289.733,215.735 289.841,216.472 293.563,213.000" stroke-width="3.876" stroke="black" fill="none" stroke-linecap="round"></path><path d="M 293.563,213.000 C 299.800,208.000 296.733,210.735 299.563,208.000" stroke-width="3.909" stroke="black" fill="none" stroke-linecap="round"></path><path d="M 299.563,208.000 C 295.716,210.134 299.300,208.000 292.563,213.000" stroke-width="4.671" stroke="black" fill="none" stroke-linecap="round"></path><path d="M 292.563,213.000 C 290.394,215.383 290.216,215.134 288.563,218.000" stroke-width="4.245" stroke="black" fill="none" stroke-linecap="round"></path><path d="M 288.563,218.000 C 283.663,223.543 286.894,220.383 285.563,223.000" stroke-width="4.606" stroke="black" fill="none" stroke-linecap="round"></path><path d="M 285.563,223.000 C 298.804,219.335 294.163,220.543 309.563,212.000" stroke-width="3.459" stroke="black" fill="none" stroke-linecap="round"></path><path d="M 309.563,212.000 C 319.708,202.649 320.804,204.335 329.563,193.000" stroke-width="2.421" stroke="black" fill="none" stroke-linecap="round"></path><path d="M 329.563,193.000 C 343.563,179.000 343.708,179.149 357.563,165.000" stroke-width="1.797" stroke="black" fill="none" stroke-linecap="round"></path><path d="M 357.563,165.000 C 385.063,137.500 385.063,137.500 412.563,110.000" stroke-width="1.710" stroke="black" fill="none" stroke-linecap="round"></path><path d="M 412.563,110.000 C 424.864,98.284 424.563,98.000 436.563,86.000" stroke-width="1.774" stroke="black" fill="none" stroke-linecap="round"></path><path d="M 436.563,86.000 C 445.017,77.357 444.864,77.284 452.563,68.000" stroke-width="2.216" stroke="black" fill="none" stroke-linecap="round"></path><path d="M 452.563,68.000 C 457.098,61.524 457.517,61.857 461.563,55.000" stroke-width="2.709" stroke="black" fill="none" stroke-linecap="round"></path><path d="M 461.563,55.000 C 467.757,49.244 463.598,52.024 465.563,49.000" stroke-width="3.390" stroke="black" fill="none" stroke-linecap="round"></path><path d="M 465.563,49.000 C 453.422,48.414 458.757,48.244 443.563,53.000" stroke-width="3.738" stroke="black" fill="none" stroke-linecap="round"></path><path d="M 443.563,53.000 C 432.679,60.535 431.922,58.414 422.563,69.000" stroke-width="2.439" stroke="black" fill="none" stroke-linecap="round"></path><path d="M 422.563,69.000 C 408.077,80.996 408.179,81.035 394.563,94.000" stroke-width="1.854" stroke="black" fill="none" stroke-linecap="round"></path><path d="M 394.563,94.000 C 381.635,106.616 381.577,106.496 369.563,120.000" stroke-width="1.817" stroke="black" fill="none" stroke-linecap="round"></path><path d="M 369.563,120.000 C 358.681,132.203 358.635,132.116 348.563,145.000" stroke-width="1.892" stroke="black" fill="none" stroke-linecap="round"></path><path d="M 348.563,145.000 C 341.338,153.577 341.681,153.703 335.563,163.000" stroke-width="2.244" stroke="black" fill="none" stroke-linecap="round"></path><path d="M 335.563,163.000 C 331.802,169.283 331.838,169.077 329.563,176.000" stroke-width="2.755" stroke="black" fill="none" stroke-linecap="round"></path><path d="M 329.563,176.000 C 327.063,181.000 328.302,179.783 328.563,184.000" stroke-width="3.331" stroke="black" fill="none" stroke-linecap="round"></path><path d="M 328.563,184.000 C 331.876,188.321 330.063,187.000 335.563,188.000" stroke-width="4.067" stroke="black" fill="none" stroke-linecap="round"></path><path d="M 335.563,188.000 C 343.965,185.866 343.376,187.321 351.563,182.000" stroke-width="3.020" stroke="black" fill="none" stroke-linecap="round"></path><path d="M 351.563,182.000 C 371.660,169.634 372.465,171.366 392.563,159.000" stroke-width="2.558" stroke="black" fill="none" stroke-linecap="round"></path><path d="M 392.563,159.000 C 400.291,154.838 400.160,155.134 408.563,153.000" stroke-width="2.608" stroke="black" fill="none" stroke-linecap="round"></path><path d="M 408.563,153.000 C 422.923,146.642 418.291,150.838 428.563,151.000" stroke-width="3.194" stroke="black" fill="none" stroke-linecap="round"></path><path d="M 428.563,151.000 C 434.765,161.936 433.923,155.142 430.563,170.000" stroke-width="3.417" stroke="black" fill="none" stroke-linecap="round"></path><path d="M 430.563,170.000 C 414.331,199.232 416.265,197.436 391.563,222.000" stroke-width="2.221" stroke="black" fill="none" stroke-linecap="round"></path><path d="M 391.563,222.000 C 364.966,245.838 366.831,246.732 335.563,265.000" stroke-width="1.902" stroke="black" fill="none" stroke-linecap="round"></path><path d="M 335.563,265.000 C 319.712,274.532 320.466,274.838 302.563,280.000" stroke-width="2.411" stroke="black" fill="none" stroke-linecap="round"></path><path d="M 302.563,280.000 C 284.709,284.581 285.212,285.532 266.563,287.000" stroke-width="1.933" stroke="black" fill="none" stroke-linecap="round"></path><path d="M 266.563,287.000 C 247.092,289.268 247.209,289.581 227.563,290.000" stroke-width="1.818" stroke="black" fill="none" stroke-linecap="round"></path><path d="M 227.563,290.000 C 207.024,291.023 207.092,290.768 186.563,290.000" stroke-width="1.696" stroke="black" fill="none" stroke-linecap="round"></path><path d="M 186.563,290.000 C 146.081,290.940 147.024,288.023 107.563,284.000" stroke-width="1.178" stroke="black" fill="none" stroke-linecap="round"></path><path d="M 107.563,284.000 C 90.883,278.228 90.581,280.940 75.563,270.000" stroke-width="1.575" stroke="black" fill="none" stroke-linecap="round"></path><path d="M 75.563,270.000 C 62.173,264.624 63.883,263.728 53.563,255.000" stroke-width="1.961" stroke="black" fill="none" stroke-linecap="round"></path><path d="M 53.563,255.000 C 44.878,244.158 45.173,245.624 41.563,232.000" stroke-width="2.140" stroke="black" fill="none" stroke-linecap="round"></path><path d="M 41.563,232.000 C 39.114,220.997 38.878,222.158 41.563,211.000" stroke-width="2.337" stroke="black" fill="none" stroke-linecap="round"></path><path d="M 41.563,211.000 C 43.842,193.988 45.114,196.497 53.563,183.000" stroke-width="2.102" stroke="black" fill="none" stroke-linecap="round"></path><path d="M 53.563,183.000 C 69.530,169.245 66.842,167.988 87.563,159.000" stroke-width="1.749" stroke="black" fill="none" stroke-linecap="round"></path><path d="M 87.563,159.000 C 113.680,143.705 113.530,144.245 141.563,133.000" stroke-width="1.361" stroke="black" fill="none" stroke-linecap="round"></path><path d="M 141.563,133.000 C 170.232,123.148 169.680,122.205 199.563,116.000" stroke-width="1.270" stroke="black" fill="none" stroke-linecap="round"></path><path d="M 199.563,116.000 C 229.824,108.283 229.732,108.648 260.563,104.000" stroke-width="1.226" stroke="black" fill="none" stroke-linecap="round"></path><path d="M 260.563,104.000 C 291.017,100.594 290.824,99.783 321.563,99.000" stroke-width="1.183" stroke="black" fill="none" stroke-linecap="round"></path><path d="M 321.563,99.000 C 348.561,98.284 348.517,97.594 375.563,98.000" stroke-width="1.253" stroke="black" fill="none" stroke-linecap="round"></path><path d="M 375.563,98.000 C 396.089,97.370 396.061,97.784 416.563,98.000" stroke-width="1.506" stroke="black" fill="none" stroke-linecap="round"></path><path d="M 416.563,98.000 C 429.462,96.878 428.589,98.370 440.563,100.000" stroke-width="1.957" stroke="black" fill="none" stroke-linecap="round"></path><path d="M 440.563,100.000 C 448.385,102.562 445.462,101.378 448.563,107.000" stroke-width="2.813" stroke="black" fill="none" stroke-linecap="round"></path><path d="M 448.563,107.000 C 447.959,118.158 448.885,115.062 441.563,125.000" stroke-width="2.622" stroke="black" fill="none" stroke-linecap="round"></path><path d="M 441.563,125.000 C 424.106,139.754 426.459,141.158 405.563,153.000" stroke-width="1.685" stroke="black" fill="none" stroke-linecap="round"></path><path d="M 405.563,153.000 C 381.821,169.405 382.106,169.754 357.563,185.000" stroke-width="1.331" stroke="black" fill="none" stroke-linecap="round"></path><path d="M 357.563,185.000 C 339.986,196.765 339.821,196.405 321.563,207.000" stroke-width="1.518" stroke="black" fill="none" stroke-linecap="round"></path><path d="M 321.563,207.000 C 304.109,217.456 303.986,216.765 285.563,225.000" stroke-width="1.575" stroke="black" fill="none" stroke-linecap="round"></path></svg>