<svg xmlns="http://www.w3.org/2000/svg" xmlns:xlink="http://www.w3.org/1999/xlink" viewBox="0 0 641 416" width="641" height="416"><path d="M 161.000,212.000 C 159.052,208.964 159.000,209.000 157.000,206.000" stroke-width="5.386" stroke="black" fill="none" stroke-linecap="round"></path><path d="M 157.000,206.000 C 154.079,202.743 154.552,202.464 152.000,199.000" stroke-width="4.113" stroke="black" fill="none" stroke-linecap="round"></path><path d="M 152.000,199.000 C 150.154,193.047 149.079,193.743 147.000,188.000" stroke-width="3.499" stroke="black" fill="none" stroke-linecap="round"></path><path d="M 147.000,188.000 C 142.548,185.740 145.154,185.047 142.000,183.000" stroke-width="4.207" stroke="black" fill="none" stroke-linecap="round"></path><path d="M 142.000,183.000 C 142.841,179.679 141.548,180.740 145.000,178.000" stroke-width="5.008" stroke="black" fill="none" stroke-linecap="round"></path><path d="M 145.000,178.000 C 147.891,176.518 147.341,176.179 151.000,176.000" stroke-width="4.282" stroke="black" fill="none" stroke-linecap="round"></path><path d="M 151.000,176.000 C 163.140,175.185 162.891,174.018 175.000,173.000" stroke-width="2.691" stroke="black" fill="none" stroke-linecap="round"></path><path d="M 175.000,173.000 C 182.296,171.761 182.140,171.685 189.000,169.000" stroke-width="2.864" stroke="black" fill="none" stroke-linecap="round"></path><path d="M 189.000,169.000 C 199.717,165.113 199.296,164.761 209.000,159.000" stroke-width="2.545" stroke="black" fill="none" stroke-linecap="round"></path><path d="M 209.000,159.000 C 219.323,150.266 220.217,151.613 230.000,142.000" stroke-width="2.272" stroke="black" fill="none" stroke-linecap="round"></path><path d="M 230.000,142.000 C 234.890,138.333 234.823,138.266 240.000,135.000" stroke-width="2.846" stroke="black" fill="none" stroke-linecap="round"></path><path d="M 240.000,135.000 C 246.379,130.783 246.390,130.833 253.000,127.000" stroke-width="2.982" stroke="black" fill="none" stroke-linecap="round"></path><path d="M 253.000,127.000 C 256.860,124.592 256.879,124.783 261.000,123.000" stroke-width="3.394" stroke="black" fill="none" stroke-linecap="round"></path><path d="M 261.000,123.000 C 263.473,122.230 263.360,122.092 266.000,122.000" stroke-width="3.961" stroke="black" fill="none" stroke-linecap="round"></path><path d="M 266.000,122.000 C 269.000,122.000 268.973,121.730 272.000,122.000" stroke-width="4.096" stroke="black" fill="none" stroke-linecap="round"></path><path d="M 272.000,122.000 C 277.264,120.554 275.500,122.000 279.000,122.000" stroke-width="4.656" stroke="black" fill="none" stroke-linecap="round"></path><path d="M 279.000,122.000 C 279.129,124.743 280.264,123.054 278.000,127.000" stroke-width="5.068" stroke="black" fill="none" stroke-linecap="round"></path><path d="M 278.000,127.000 C 274.153,134.973 274.129,134.743 269.000,142.000" stroke-width="3.128" stroke="black" fill="none" stroke-linecap="round"></path><path d="M 269.000,142.000 C 262.791,149.771 263.153,149.973 256.000,157.000" stroke-width="2.735" stroke="black" fill="none" stroke-linecap="round"></path><path d="M 256.000,157.000 C 246.665,165.685 247.291,166.271 238.000,175.000" stroke-width="2.314" stroke="black" fill="none" stroke-linecap="round"></path><path d="M 238.000,175.000 C 227.742,188.258 226.665,187.185 216.000,200.000" stroke-width="2.009" stroke="black" fill="none" stroke-linecap="round"></path><path d="M 216.000,200.000 C 205.878,207.356 207.242,208.758 197.000,216.000" stroke-width="2.141" stroke="black" fill="none" stroke-linecap="round"></path><path d="M 197.000,216.000 C 187.996,227.004 186.878,225.856 178.000,237.000" stroke-width="2.119" stroke="black" fill="none" stroke-linecap="round"></path><path d="M 178.000,237.000 C 170.414,244.550 170.496,244.504 162.000,251.000" stroke-width="2.372" stroke="black" fill="none" stroke-linecap="round"></path><path d="M 162.000,251.000 C 155.225,255.916 155.414,256.050 148.000,260.000" stroke-width="2.629" stroke="black" fill="none" stroke-linecap="round"></path><path d="M 148.000,260.000 C 143.500,262.000 143.725,262.416 139.000,264.000" stroke-width="3.173" stroke="black" fill="none" stroke-linecap="round"></path><path d="M 139.000,264.000 C 134.455,265.904 134.500,266.000 130.000,268.000" stroke-width="3.383" stroke="black" fill="none" stroke-linecap="round"></path><path d="M 130.000,268.000 C 125.592,269.434 125.955,269.904 122.000,272.000" stroke-width="3.537" stroke="black" fill="none" stroke-linecap="round"></path><path d="M 122.000,272.000 C 118.513,274.649 118.592,274.434 116.000,278.000" stroke-width="3.685" stroke="black" fill="none" stroke-linecap="round"></path><path d="M 116.000,278.000 C 114.687,281.108 114.013,280.649 113.000,284.000" stroke-width="3.824" stroke="black" fill="none" stroke-linecap="round"></path><path d="M 113.000,284.000 C 111.119,287.087 111.187,287.108 109.000,290.000" stroke-width="3.911" stroke="black" fill="none" stroke-linecap="round"></path><path d="M 109.000,290.000 C 107.342,292.853 107.119,292.587 105.000,295.000" stroke-width="4.453" stroke="black" fill="none" stroke-linecap="round"></path><path d="M 105.000,295.000 C 101.190,298.307 101.342,298.353 97.000,301.000" stroke-width="4.398" stroke="black" fill="none" stroke-linecap="round"></path><path d="M 97.000,301.000 C 93.810,302.193 94.190,302.807 91.000,304.000" stroke-width="4.136" stroke="black" fill="none" stroke-linecap="round"></path><path d="M 91.000,304.000 C 86.832,306.807 86.810,306.693 83.000,310.000" stroke-width="4.261" stroke="black" fill="none" stroke-linecap="round"></path><path d="M 83.000,310.000 C 81.305,312.463 80.832,311.807 79.000,314.000" stroke-width="4.233" stroke="black" fill="none" stroke-linecap="round"></path><path d="M 79.000,314.000 C 73.404,317.430 76.805,315.463 74.000,316.000" stroke-width="4.791" stroke="black" fill="none" stroke-linecap="round"></path><path d="M 74.000,316.000 C 77.914,307.809 75.904,311.430 84.000,302.000" stroke-width="4.825" stroke="black" fill="none" stroke-linecap="round"></path><path d="M 84.000,302.000 C 90.044,298.573 88.914,297.309 96.000,295.000" stroke-width="3.394" stroke="black" fill="none" stroke-linecap="round"></path><path d="M 96.000,295.000 C 99.943,292.404 100.044,292.573 104.000,290.000" stroke-width="3.435" stroke="black" fill="none" stroke-linecap="round"></path><path d="M 104.000,290.000 C 113.379,284.276 113.443,284.404 123.000,279.000" stroke-width="2.685" stroke="black" fill="none" stroke-linecap="round"></path><path d="M 123.000,279.000 C 128.891,275.749 128.879,275.776 135.000,273.000" stroke-width="2.936" stroke="black" fill="none" stroke-linecap="round"></path><path d="M 135.000,273.000 C 139.075,271.682 138.891,271.249 143.000,270.000" stroke-width="3.412" stroke="black" fill="none" stroke-linecap="round"></path><path d="M 143.000,270.000 C 153.006,265.513 153.075,265.682 163.000,261.000" stroke-width="2.682" stroke="black" fill="none" stroke-linecap="round"></path><path d="M 163.000,261.000 C 168.604,258.698 168.506,258.513 174.000,256.000" stroke-width="3.028" stroke="black" fill="none" stroke-linecap="round"></path><path d="M 174.000,256.000 C 176.487,254.478 176.604,254.698 179.000,253.000" stroke-width="3.756" stroke="black" fill="none" stroke-linecap="round"></path><path d="M 179.000,253.000 C 184.969,249.446 184.987,249.478 191.000,246.000" stroke-width="3.201" stroke="black" fill="none" stroke-linecap="round"></path><path d="M 191.000,246.000 C 195.316,243.082 195.469,243.446 200.000,241.000" stroke-width="3.407" stroke="black" fill="none" stroke-linecap="round"></path><path d="M 200.000,241.000 C 204.584,239.717 204.316,239.082 209.000,238.000" stroke-width="3.493" stroke="black" fill="none" stroke-linecap="round"></path><path d="M 209.000,238.000 C 213.374,235.633 213.584,236.217 218.000,234.000" stroke-width="3.541" stroke="black" fill="none" stroke-linecap="round"></path><path d="M 218.000,234.000 C 221.925,232.562 221.874,232.633 226.000,232.000" stroke-width="3.659" stroke="black" fill="none" stroke-linecap="round"></path><path d="M 226.000,232.000 C 236.505,231.049 236.425,230.562 247.000,230.000" stroke-width="2.699" stroke="black" fill="none" stroke-linecap="round"></path><path d="M 247.000,230.000 C 251.497,229.474 251.505,229.549 256.000,229.000" stroke-width="3.268" stroke="black" fill="none" stroke-linecap="round"></path><path d="M 256.000,229.000 C 261.011,228.587 260.997,228.474 266.000,228.000" stroke-width="3.397" stroke="black" fill="none" stroke-linecap="round"></path><path d="M 266.000,228.000 C 269.496,227.467 269.511,227.587 273.000,227.000" stroke-width="3.735" stroke="black" fill="none" stroke-linecap="round"></path><path d="M 273.000,227.000 C 284.504,225.533 284.496,225.467 296.000,224.000" stroke-width="2.596" stroke="black" fill="none" stroke-linecap="round"></path><path d="M 296.000,224.000 C 299.500,223.500 299.504,223.533 303.000,223.000" stroke-width="3.390" stroke="black" fill="none" stroke-linecap="round"></path><path d="M 303.000,223.000 C 309.972,221.611 310.000,222.000 317.000,221.000" stroke-width="3.160" stroke="black" fill="none" stroke-linecap="round"></path><path d="M 317.000,221.000 C 321.516,221.264 321.472,220.611 326.000,221.000" stroke-width="3.505" stroke="black" fill="none" stroke-linecap="round"></path><path d="M 326.000,221.000 C 329.997,220.471 330.016,220.764 334.000,220.000" stroke-width="3.667" stroke="black" fill="none" stroke-linecap="round"></path><path d="M 334.000,220.000 C 338.503,219.529 338.497,219.471 343.000,219.000" stroke-width="3.614" stroke="black" fill="none" stroke-linecap="round"></path><path d="M 343.000,219.000 C 346.984,218.251 347.003,218.529 351.000,218.000" stroke-width="3.702" stroke="black" fill="none" stroke-linecap="round"></path><path d="M 351.000,218.000 C 355.073,218.524 354.984,217.751 359.000,218.000" stroke-width="3.735" stroke="black" fill="none" stroke-linecap="round"></path><path d="M 359.000,218.000 C 362.668,217.388 362.573,217.524 366.000,216.000" stroke-width="3.875" stroke="black" fill="none" stroke-linecap="round"></path></svg>