<svg xmlns="http://www.w3.org/2000/svg" xmlns:xlink="http://www.w3.org/1999/xlink" viewBox="0 0 664 416" width="664" height="416"><path d="M 59.563,266.000 C 63.373,260.353 63.563,260.500 67.563,255.000" stroke-width="4.422" stroke="black" fill="none" stroke-linecap="round"></path><path d="M 67.563,255.000 C 72.563,249.000 72.373,248.853 77.563,243.000" stroke-width="3.187" stroke="black" fill="none" stroke-linecap="round"></path><path d="M 77.563,243.000 C 82.638,237.061 82.563,237.000 87.563,231.000" stroke-width="3.004" stroke="black" fill="none" stroke-linecap="round"></path><path d="M 87.563,231.000 C 96.304,221.512 95.638,221.061 103.563,211.000" stroke-width="2.361" stroke="black" fill="none" stroke-linecap="round"></path><path d="M 103.563,211.000 C 110.360,200.165 110.804,200.512 116.563,189.000" stroke-width="2.280" stroke="black" fill="none" stroke-linecap="round"></path><path d="M 116.563,189.000 C 122.970,177.694 122.860,177.665 128.563,166.000" stroke-width="2.243" stroke="black" fill="none" stroke-linecap="round"></path><path d="M 128.563,166.000 C 133.417,154.434 133.970,154.694 138.563,143.000" stroke-width="2.263" stroke="black" fill="none" stroke-linecap="round"></path><path d="M 138.563,143.000 C 142.697,134.560 142.417,134.434 146.563,126.000" stroke-width="2.535" stroke="black" fill="none" stroke-linecap="round"></path><path d="M 146.563,126.000 C 149.690,119.052 149.697,119.060 152.563,112.000" stroke-width="2.822" stroke="black" fill="none" stroke-linecap="round"></path><path d="M 152.563,112.000 C 155.183,105.543 155.190,105.552 157.563,99.000" stroke-width="3.006" stroke="black" fill="none" stroke-linecap="round"></path><path d="M 157.563,99.000 C 158.670,94.325 159.183,94.543 160.563,90.000" stroke-width="3.405" stroke="black" fill="none" stroke-linecap="round"></path><path d="M 160.563,90.000 C 163.508,82.156 162.170,86.325 164.563,83.000" stroke-width="3.682" stroke="black" fill="none" stroke-linecap="round"></path><path d="M 164.563,83.000 C 166.415,88.672 166.008,84.156 165.563,94.000" stroke-width="4.534" stroke="black" fill="none" stroke-linecap="round"></path><path d="M 165.563,94.000 C 162.913,100.950 164.415,101.172 160.563,108.000" stroke-width="3.266" stroke="black" fill="none" stroke-linecap="round"></path><path d="M 160.563,108.000 C 157.636,117.524 157.413,117.450 154.563,127.000" stroke-width="2.761" stroke="black" fill="none" stroke-linecap="round"></path><path d="M 154.563,127.000 C 151.198,135.894 151.636,136.024 148.563,145.000" stroke-width="2.688" stroke="black" fill="none" stroke-linecap="round"></path><path d="M 148.563,145.000 C 146.186,155.032 145.698,154.894 143.563,165.000" stroke-width="2.642" stroke="black" fill="none" stroke-linecap="round"></path><path d="M 143.563,165.000 C 140.340,173.860 141.186,174.032 138.563,183.000" stroke-width="2.668" stroke="black" fill="none" stroke-linecap="round"></path><path d="M 138.563,183.000 C 137.463,191.990 136.840,191.860 136.563,201.000" stroke-width="2.707" stroke="black" fill="none" stroke-linecap="round"></path><path d="M 136.563,201.000 C 135.849,206.991 135.963,206.990 135.563,213.000" stroke-width="3.092" stroke="black" fill="none" stroke-linecap="round"></path><path d="M 135.563,213.000 C 135.563,217.500 135.349,217.491 135.563,222.000" stroke-width="3.431" stroke="black" fill="none" stroke-linecap="round"></path><path d="M 135.563,222.000 C 135.563,226.500 135.563,226.500 135.563,231.000" stroke-width="3.600" stroke="black" fill="none" stroke-linecap="round"></path><path d="M 135.563,231.000 C 135.035,234.101 135.563,234.000 135.563,237.000" stroke-width="4.340" stroke="black" fill="none" stroke-linecap="round"></path><path d="M 135.563,237.000 C 135.649,240.512 136.035,239.601 137.563,242.000" stroke-width="5.149" stroke="black" fill="none" stroke-linecap="round"></path><path d="M 137.563,242.000 C 141.297,244.502 140.149,244.012 144.563,244.000" stroke-width="5.428" stroke="black" fill="none" stroke-linecap="round"></path><path d="M 144.563,244.000 C 147.710,242.194 147.797,243.502 150.563,240.000" stroke-width="4.301" stroke="black" fill="none" stroke-linecap="round"></path><path d="M 150.563,240.000 C 154.079,237.019 154.210,237.194 157.563,234.000" stroke-width="3.975" stroke="black" fill="none" stroke-linecap="round"></path><path d="M 157.563,234.000 C 161.813,230.750 161.579,230.519 165.563,227.000" stroke-width="3.539" stroke="black" fill="none" stroke-linecap="round"></path><path d="M 165.563,227.000 C 168.811,222.752 169.313,223.250 172.563,219.000" stroke-width="3.484" stroke="black" fill="none" stroke-linecap="round"></path><path d="M 172.563,219.000 C 177.813,214.749 177.311,214.252 182.563,210.000" stroke-width="3.236" stroke="black" fill="none" stroke-linecap="round"></path><path d="M 182.563,210.000 C 186.446,205.391 186.813,205.749 190.563,201.000" stroke-width="3.275" stroke="black" fill="none" stroke-linecap="round"></path><path d="M 190.563,201.000 C 194.197,197.624 193.946,197.391 197.563,194.000" stroke-width="3.466" stroke="black" fill="none" stroke-linecap="round"></path><path d="M 197.563,194.000 C 200.438,190.385 200.697,190.624 203.563,187.000" stroke-width="3.591" stroke="black" fill="none" stroke-linecap="round"></path><path d="M 203.563,187.000 C 209.142,179.949 206.438,183.885 209.563,181.000" stroke-width="4.183" stroke="black" fill="none" stroke-linecap="round"></path><path d="M 209.563,181.000 C 208.156,186.813 210.142,182.449 205.563,192.000" stroke-width="4.536" stroke="black" fill="none" stroke-linecap="round"></path><path d="M 205.563,192.000 C 202.769,195.323 203.656,195.813 200.563,199.000" stroke-width="3.944" stroke="black" fill="none" stroke-linecap="round"></path><path d="M 200.563,199.000 C 198.435,202.943 198.269,202.823 196.563,207.000" stroke-width="3.703" stroke="black" fill="none" stroke-linecap="round"></path><path d="M 196.563,207.000 C 193.813,211.250 195.435,209.443 194.563,212.000" stroke-width="4.120" stroke="black" fill="none" stroke-linecap="round"></path><path d="M 194.563,212.000 C 197.350,211.475 195.313,212.750 199.563,210.000" stroke-width="4.879" stroke="black" fill="none" stroke-linecap="round"></path><path d="M 199.563,210.000 C 203.022,206.951 203.350,207.475 206.563,204.000" stroke-width="3.881" stroke="black" fill="none" stroke-linecap="round"></path><path d="M 206.563,204.000 C 208.946,201.832 209.022,201.951 211.563,200.000" stroke-width="4.139" stroke="black" fill="none" stroke-linecap="round"></path><path d="M 211.563,200.000 C 215.426,196.091 213.946,198.332 216.563,197.000" stroke-width="4.582" stroke="black" fill="none" stroke-linecap="round"></path><path d="M 216.563,197.000 C 217.441,200.707 217.926,198.091 216.563,204.000" stroke-width="4.768" stroke="black" fill="none" stroke-linecap="round"></path><path d="M 216.563,204.000 C 214.216,207.865 215.441,208.207 212.563,212.000" stroke-width="3.892" stroke="black" fill="none" stroke-linecap="round"></path><path d="M 212.563,212.000 C 211.111,215.437 211.216,215.365 210.563,219.000" stroke-width="3.971" stroke="black" fill="none" stroke-linecap="round"></path><path d="M 210.563,219.000 C 208.471,225.123 210.111,221.937 210.563,225.000" stroke-width="4.492" stroke="black" fill="none" stroke-linecap="round"></path><path d="M 210.563,225.000 C 219.642,222.435 216.971,224.623 227.563,218.000" stroke-width="3.806" stroke="black" fill="none" stroke-linecap="round"></path><path d="M 227.563,218.000 C 231.546,214.481 232.142,215.435 235.563,211.000" stroke-width="3.497" stroke="black" fill="none" stroke-linecap="round"></path><path d="M 235.563,211.000 C 239.022,207.951 239.046,207.981 242.563,205.000" stroke-width="3.650" stroke="black" fill="none" stroke-linecap="round"></path><path d="M 242.563,205.000 C 244.946,202.832 245.022,202.951 247.563,201.000" stroke-width="3.945" stroke="black" fill="none" stroke-linecap="round"></path><path d="M 247.563,201.000 C 252.563,196.086 249.946,199.332 252.563,198.000" stroke-width="4.481" stroke="black" fill="none" stroke-linecap="round"></path><path d="M 252.563,198.000 C 250.744,208.748 252.563,205.086 247.563,219.000" stroke-width="4.331" stroke="black" fill="none" stroke-linecap="round"></path><path d="M 247.563,219.000 C 245.563,223.000 246.244,223.248 243.563,227.000" stroke-width="3.858" stroke="black" fill="none" stroke-linecap="round"></path><path d="M 243.563,227.000 C 240.051,230.442 242.063,230.000 240.563,233.000" stroke-width="3.878" stroke="black" fill="none" stroke-linecap="round"></path><path d="M 240.563,233.000 C 242.796,236.497 241.051,235.442 245.563,237.000" stroke-width="4.767" stroke="black" fill="none" stroke-linecap="round"></path><path d="M 245.563,237.000 C 248.744,236.409 248.296,237.497 251.563,235.000" stroke-width="4.227" stroke="black" fill="none" stroke-linecap="round"></path><path d="M 251.563,235.000 C 259.241,229.661 259.744,230.909 267.563,226.000" stroke-width="3.808" stroke="black" fill="none" stroke-linecap="round"></path><path d="M 267.563,226.000 C 272.127,225.232 271.741,224.161 276.563,224.000" stroke-width="3.637" stroke="black" fill="none" stroke-linecap="round"></path><path d="M 276.563,224.000 C 280.993,222.219 281.127,222.732 285.563,221.000" stroke-width="3.670" stroke="black" fill="none" stroke-linecap="round"></path><path d="M 285.563,221.000 C 288.563,220.500 288.493,220.219 291.563,220.000" stroke-width="4.028" stroke="black" fill="none" stroke-linecap="round"></path><path d="M 291.563,220.000 C 294.972,218.223 294.563,219.500 297.563,219.000" stroke-width="4.061" stroke="black" fill="none" stroke-linecap="round"></path><path d="M 297.563,219.000 C 300.734,220.515 299.972,219.723 301.563,223.000" stroke-width="4.785" stroke="black" fill="none" stroke-linecap="round"></path><path d="M 301.563,223.000 C 299.445,229.118 302.734,226.515 301.563,231.000" stroke-width="4.602" stroke="black" fill="none" stroke-linecap="round"></path><path d="M 301.563,231.000 C 306.118,231.556 303.945,233.118 310.563,231.000" stroke-width="4.696" stroke="black" fill="none" stroke-linecap="round"></path><path d="M 310.563,231.000 C 318.296,230.271 318.118,230.056 325.563,228.000" stroke-width="3.400" stroke="black" fill="none" stroke-linecap="round"></path><path d="M 325.563,228.000 C 333.979,224.282 334.296,225.271 342.563,221.000" stroke-width="2.812" stroke="black" fill="none" stroke-linecap="round"></path><path d="M 342.563,221.000 C 350.924,217.508 350.979,217.782 359.563,215.000" stroke-width="2.811" stroke="black" fill="none" stroke-linecap="round"></path><path d="M 359.563,215.000 C 371.563,209.500 366.424,213.008 373.563,212.000" stroke-width="3.563" stroke="black" fill="none" stroke-linecap="round"></path><path d="M 373.563,212.000 C 371.293,218.974 375.563,214.500 367.563,225.000" stroke-width="4.069" stroke="black" fill="none" stroke-linecap="round"></path><path d="M 367.563,225.000 C 363.791,228.802 364.793,229.474 360.563,233.000" stroke-width="3.623" stroke="black" fill="none" stroke-linecap="round"></path><path d="M 360.563,233.000 C 355.574,237.372 358.791,235.302 357.563,238.000" stroke-width="3.959" stroke="black" fill="none" stroke-linecap="round"></path><path d="M 357.563,238.000 C 368.944,240.950 365.074,240.372 379.563,239.000" stroke-width="3.886" stroke="black" fill="none" stroke-linecap="round"></path><path d="M 379.563,239.000 C 393.182,234.302 393.444,236.450 406.563,229.000" stroke-width="2.496" stroke="black" fill="none" stroke-linecap="round"></path><path d="M 406.563,229.000 C 419.173,222.304 419.682,223.802 432.563,218.000" stroke-width="2.154" stroke="black" fill="none" stroke-linecap="round"></path><path d="M 432.563,218.000 C 447.548,214.432 447.173,213.304 462.563,211.000" stroke-width="2.632" stroke="black" fill="none" stroke-linecap="round"></path><path d="M 462.563,211.000 C 467.923,208.438 465.048,210.432 467.563,210.000" stroke-width="3.881" stroke="black" fill="none" stroke-linecap="round"></path><path d="M 467.563,210.000 C 464.309,217.513 466.423,214.938 459.563,224.000" stroke-width="3.193" stroke="black" fill="none" stroke-linecap="round"></path><path d="M 459.563,224.000 C 447.594,237.043 449.309,238.013 437.563,251.000" stroke-width="2.859" stroke="black" fill="none" stroke-linecap="round"></path><path d="M 437.563,251.000 C 435.086,254.687 436.094,253.043 436.563,256.000" stroke-width="3.717" stroke="black" fill="none" stroke-linecap="round"></path><path d="M 436.563,256.000 C 441.678,260.099 439.586,258.687 446.563,259.000" stroke-width="4.109" stroke="black" fill="none" stroke-linecap="round"></path><path d="M 446.563,259.000 C 461.897,253.732 461.678,255.599 476.563,247.000" stroke-width="2.304" stroke="black" fill="none" stroke-linecap="round"></path><path d="M 476.563,247.000 C 491.698,238.154 492.397,239.732 507.563,231.000" stroke-width="2.017" stroke="black" fill="none" stroke-linecap="round"></path><path d="M 507.563,231.000 C 517.607,227.620 517.198,226.654 527.563,224.000" stroke-width="2.335" stroke="black" fill="none" stroke-linecap="round"></path><path d="M 527.563,224.000 C 533.974,221.196 534.107,221.620 540.563,219.000" stroke-width="2.818" stroke="black" fill="none" stroke-linecap="round"></path><path d="M 540.563,219.000 C 545.143,216.324 542.974,218.196 545.563,218.000" stroke-width="3.728" stroke="black" fill="none" stroke-linecap="round"></path><path d="M 545.563,218.000 C 544.738,224.533 546.643,222.324 543.563,231.000" stroke-width="4.196" stroke="black" fill="none" stroke-linecap="round"></path><path d="M 543.563,231.000 C 542.618,235.513 542.738,235.533 541.563,240.000" stroke-width="3.796" stroke="black" fill="none" stroke-linecap="round"></path><path d="M 541.563,240.000 C 537.308,245.919 540.618,244.013 539.563,248.000" stroke-width="3.737" stroke="black" fill="none" stroke-linecap="round"></path><path d="M 539.563,248.000 C 546.954,252.000 543.808,251.919 554.563,252.000" stroke-width="3.798" stroke="black" fill="none" stroke-linecap="round"></path><path d="M 554.563,252.000 C 568.140,251.911 567.454,252.000 580.563,248.000" stroke-width="2.451" stroke="black" fill="none" stroke-linecap="round"></path><path d="M 580.563,248.000 C 594.702,241.783 595.140,243.411 608.563,235.000" stroke-width="2.115" stroke="black" fill="none" stroke-linecap="round"></path><path d="M 608.563,235.000 C 617.908,229.672 618.202,230.283 627.563,225.000" stroke-width="2.457" stroke="black" fill="none" stroke-linecap="round"></path><path d="M 627.563,225.000 C 633.419,222.048 633.408,222.172 639.563,220.000" stroke-width="2.877" stroke="black" fill="none" stroke-linecap="round"></path><path d="M 639.563,220.000 C 644.076,219.056 643.919,218.548 648.563,218.000" stroke-width="3.328" stroke="black" fill="none" stroke-linecap="round"></path><path d="M 648.563,218.000 C 652.517,216.758 652.576,217.056 656.563,216.000" stroke-width="3.637" stroke="black" fill="none" stroke-linecap="round"></path><path d="M 656.563,216.000 C 660.713,216.100 660.517,215.258 664.563,215.000" stroke-width="3.709" stroke="black" fill="none" stroke-linecap="round"></path><path d="M 244.563,134.000 C 238.447,127.957 238.063,128.500 231.563,123.000" stroke-width="3.588" stroke="black" fill="none" stroke-linecap="round"></path><path d="M 231.563,123.000 C 225.764,119.101 225.947,118.957 219.563,116.000" stroke-width="3.228" stroke="black" fill="none" stroke-linecap="round"></path><path d="M 219.563,116.000 C 212.727,112.542 212.764,112.601 205.563,110.000" stroke-width="2.978" stroke="black" fill="none" stroke-linecap="round"></path><path d="M 205.563,110.000 C 197.261,106.305 197.227,107.042 188.563,105.000" stroke-width="2.755" stroke="black" fill="none" stroke-linecap="round"></path><path d="M 188.563,105.000 C 177.068,104.230 177.261,103.305 165.563,104.000" stroke-width="2.425" stroke="black" fill="none" stroke-linecap="round"></path><path d="M 165.563,104.000 C 151.779,102.042 152.068,103.730 138.563,104.000" stroke-width="2.243" stroke="black" fill="none" stroke-linecap="round"></path><path d="M 138.563,104.000 C 123.823,105.535 124.779,106.042 111.563,112.000" stroke-width="2.154" stroke="black" fill="none" stroke-linecap="round"></path><path d="M 111.563,112.000 C 96.093,120.970 96.323,120.035 83.563,133.000" stroke-width="1.923" stroke="black" fill="none" stroke-linecap="round"></path><path d="M 83.563,133.000 C 70.628,145.300 71.093,144.970 61.563,160.000" stroke-width="1.756" stroke="black" fill="none" stroke-linecap="round"></path><path d="M 61.563,160.000 C 52.068,175.905 52.128,175.300 46.563,193.000" stroke-width="1.784" stroke="black" fill="none" stroke-linecap="round"></path><path d="M 46.563,193.000 C 43.331,205.931 42.568,205.405 42.563,219.000" stroke-width="2.011" stroke="black" fill="none" stroke-linecap="round"></path><path d="M 42.563,219.000 C 38.210,234.025 41.831,231.431 43.563,244.000" stroke-width="2.136" stroke="black" fill="none" stroke-linecap="round"></path><path d="M 43.563,244.000 C 52.029,259.202 49.210,254.525 64.563,260.000" stroke-width="2.235" stroke="black" fill="none" stroke-linecap="round"></path><path d="M 64.563,260.000 C 111.428,262.548 107.029,262.702 153.563,251.000" stroke-width="1.649" stroke="black" fill="none" stroke-linecap="round"></path><path d="M 153.563,251.000 C 177.525,238.375 178.928,244.048 199.563,223.000" stroke-width="1.379" stroke="black" fill="none" stroke-linecap="round"></path><path d="M 199.563,223.000 C 221.543,209.020 220.525,208.375 239.563,191.000" stroke-width="1.436" stroke="black" fill="none" stroke-linecap="round"></path><path d="M 239.563,191.000 C 264.036,168.619 261.543,169.020 279.563,143.000" stroke-width="1.779" stroke="black" fill="none" stroke-linecap="round"></path><path d="M 279.563,143.000 C 284.334,131.298 284.036,135.619 279.563,125.000" stroke-width="2.354" stroke="black" fill="none" stroke-linecap="round"></path><path d="M 279.563,125.000 C 268.396,113.015 271.834,114.798 254.563,110.000" stroke-width="2.025" stroke="black" fill="none" stroke-linecap="round"></path><path d="M 254.563,110.000 C 227.692,104.671 229.396,104.515 201.563,108.000" stroke-width="1.564" stroke="black" fill="none" stroke-linecap="round"></path><path d="M 201.563,108.000 C 146.134,112.143 149.192,114.671 97.563,130.000" stroke-width="1.418" stroke="black" fill="none" stroke-linecap="round"></path></svg>