<svg xmlns="http://www.w3.org/2000/svg" xmlns:xlink="http://www.w3.org/1999/xlink" viewBox="0 0 664 327" width="664" height="327"><path d="M 202.000,232.000 C 198.634,230.069 198.500,230.500 195.000,229.000" stroke-width="4.752" stroke="black" fill="none" stroke-linecap="round"></path><path d="M 195.000,229.000 C 189.956,228.189 190.134,227.569 185.000,227.000" stroke-width="3.813" stroke="black" fill="none" stroke-linecap="round"></path><path d="M 185.000,227.000 C 177.558,224.718 177.456,225.189 170.000,223.000" stroke-width="3.088" stroke="black" fill="none" stroke-linecap="round"></path><path d="M 170.000,223.000 C 165.877,223.817 166.558,222.218 163.000,222.000" stroke-width="3.658" stroke="black" fill="none" stroke-linecap="round"></path><path d="M 163.000,222.000 C 155.223,217.598 156.377,217.817 151.000,211.000" stroke-width="3.002" stroke="black" fill="none" stroke-linecap="round"></path><path d="M 151.000,211.000 C 146.553,203.925 147.223,205.098 147.000,197.000" stroke-width="3.022" stroke="black" fill="none" stroke-linecap="round"></path><path d="M 147.000,197.000 C 147.766,187.092 147.553,188.425 153.000,180.000" stroke-width="2.748" stroke="black" fill="none" stroke-linecap="round"></path><path d="M 153.000,180.000 C 163.853,165.143 163.266,166.092 178.000,155.000" stroke-width="2.031" stroke="black" fill="none" stroke-linecap="round"></path><path d="M 178.000,155.000 C 191.137,145.402 190.353,146.143 206.000,142.000" stroke-width="1.893" stroke="black" fill="none" stroke-linecap="round"></path><path d="M 206.000,142.000 C 233.487,136.000 232.637,135.902 261.000,136.000" stroke-width="1.454" stroke="black" fill="none" stroke-linecap="round"></path><path d="M 261.000,136.000 C 291.496,137.019 290.987,136.000 321.000,142.000" stroke-width="1.250" stroke="black" fill="none" stroke-linecap="round"></path><path d="M 321.000,142.000 C 329.540,145.405 329.996,143.519 338.000,149.000" stroke-width="1.971" stroke="black" fill="none" stroke-linecap="round"></path><path d="M 338.000,149.000 C 349.738,153.563 349.540,153.905 361.000,159.000" stroke-width="2.173" stroke="black" fill="none" stroke-linecap="round"></path><path d="M 361.000,159.000 C 367.184,159.783 364.238,160.563 367.000,163.000" stroke-width="3.452" stroke="black" fill="none" stroke-linecap="round"></path><path d="M 367.000,163.000 C 366.604,180.508 366.184,177.283 359.000,194.000" stroke-width="2.172" stroke="black" fill="none" stroke-linecap="round"></path><path d="M 359.000,194.000 C 348.162,206.687 351.104,208.008 336.000,218.000" stroke-width="1.919" stroke="black" fill="none" stroke-linecap="round"></path><path d="M 336.000,218.000 C 306.870,249.393 305.162,246.687 273.000,274.000" stroke-width="1.125" stroke="black" fill="none" stroke-linecap="round"></path><path d="M 273.000,274.000 C 246.750,290.884 248.370,291.893 219.000,303.000" stroke-width="1.149" stroke="black" fill="none" stroke-linecap="round"></path><path d="M 219.000,303.000 C 210.514,304.716 211.250,306.384 202.000,305.000" stroke-width="1.928" stroke="black" fill="none" stroke-linecap="round"></path><path d="M 202.000,305.000 C 195.000,306.000 195.514,305.216 189.000,304.000" stroke-width="2.663" stroke="black" fill="none" stroke-linecap="round"></path><path d="M 189.000,304.000 C 181.807,301.822 183.000,302.000 178.000,297.000" stroke-width="2.954" stroke="black" fill="none" stroke-linecap="round"></path><path d="M 178.000,297.000 C 173.121,290.715 174.307,292.322 174.000,285.000" stroke-width="3.139" stroke="black" fill="none" stroke-linecap="round"></path><path d="M 174.000,285.000 C 175.456,275.363 175.121,277.715 182.000,271.000" stroke-width="2.958" stroke="black" fill="none" stroke-linecap="round"></path><path d="M 182.000,271.000 C 211.486,252.216 209.956,252.363 243.000,239.000" stroke-width="1.370" stroke="black" fill="none" stroke-linecap="round"></path><path d="M 243.000,239.000 C 258.853,233.025 257.986,232.716 275.000,232.000" stroke-width="1.625" stroke="black" fill="none" stroke-linecap="round"></path><path d="M 275.000,232.000 C 290.632,232.680 290.353,231.025 306.000,235.000" stroke-width="1.814" stroke="black" fill="none" stroke-linecap="round"></path><path d="M 306.000,235.000 C 317.062,237.265 317.132,236.680 328.000,240.000" stroke-width="2.149" stroke="black" fill="none" stroke-linecap="round"></path><path d="M 328.000,240.000 C 333.133,241.146 333.062,241.265 338.000,243.000" stroke-width="2.897" stroke="black" fill="none" stroke-linecap="round"></path><path d="M 338.000,243.000 C 343.534,245.428 343.633,245.146 349.000,248.000" stroke-width="3.160" stroke="black" fill="none" stroke-linecap="round"></path><path d="M 349.000,248.000 C 352.000,249.500 352.034,249.428 355.000,251.000" stroke-width="3.725" stroke="black" fill="none" stroke-linecap="round"></path></svg>