<svg xmlns="http://www.w3.org/2000/svg" xmlns:xlink="http://www.w3.org/1999/xlink" viewBox="0 0 664 416" width="664" height="416"><path d="M 556.563,182.000 C 552.071,186.970 551.563,186.000 546.563,190.000" stroke-width="4.551" stroke="black" fill="none" stroke-linecap="round"></path><path d="M 546.563,190.000 C 541.653,193.283 542.071,192.470 536.563,193.000" stroke-width="3.682" stroke="black" fill="none" stroke-linecap="round"></path><path d="M 536.563,193.000 C 521.438,194.101 523.653,192.283 510.563,188.000" stroke-width="3.302" stroke="black" fill="none" stroke-linecap="round"></path><path d="M 510.563,188.000 C 501.716,179.846 500.938,182.601 495.563,170.000" stroke-width="3.349" stroke="black" fill="none" stroke-linecap="round"></path><path d="M 495.563,170.000 C 489.568,159.215 489.216,159.846 485.563,148.000" stroke-width="2.488" stroke="black" fill="none" stroke-linecap="round"></path><path d="M 485.563,148.000 C 484.007,144.138 484.568,145.215 485.563,142.000" stroke-width="3.517" stroke="black" fill="none" stroke-linecap="round"></path><path d="M 485.563,142.000 C 489.122,137.965 488.007,138.638 493.563,137.000" stroke-width="3.587" stroke="black" fill="none" stroke-linecap="round"></path><path d="M 493.563,137.000 C 501.887,134.689 500.622,135.465 508.563,137.000" stroke-width="3.207" stroke="black" fill="none" stroke-linecap="round"></path><path d="M 508.563,137.000 C 515.922,140.218 514.887,139.189 519.563,146.000" stroke-width="3.105" stroke="black" fill="none" stroke-linecap="round"></path><path d="M 519.563,146.000 C 524.139,154.744 524.422,153.718 525.563,164.000" stroke-width="2.713" stroke="black" fill="none" stroke-linecap="round"></path><path d="M 525.563,164.000 C 528.422,175.197 527.139,174.244 525.563,185.000" stroke-width="2.510" stroke="black" fill="none" stroke-linecap="round"></path><path d="M 525.563,185.000 C 518.734,198.593 521.422,199.197 511.563,212.000" stroke-width="2.257" stroke="black" fill="none" stroke-linecap="round"></path><path d="M 511.563,212.000 C 507.629,220.401 507.234,220.093 502.563,228.000" stroke-width="2.499" stroke="black" fill="none" stroke-linecap="round"></path><path d="M 502.563,228.000 C 498.074,236.913 499.629,232.401 495.563,236.000" stroke-width="3.056" stroke="black" fill="none" stroke-linecap="round"></path><path d="M 495.563,236.000 C 491.563,230.205 492.574,234.913 491.563,224.000" stroke-width="3.719" stroke="black" fill="none" stroke-linecap="round"></path><path d="M 491.563,224.000 C 491.584,206.482 491.563,207.205 495.563,190.000" stroke-width="2.044" stroke="black" fill="none" stroke-linecap="round"></path><path d="M 495.563,190.000 C 498.295,176.383 498.584,177.482 505.563,166.000" stroke-width="2.112" stroke="black" fill="none" stroke-linecap="round"></path><path d="M 505.563,166.000 C 513.116,154.440 512.295,156.383 523.563,150.000" stroke-width="2.204" stroke="black" fill="none" stroke-linecap="round"></path></svg>