<svg xmlns="http://www.w3.org/2000/svg" xmlns:xlink="http://www.w3.org/1999/xlink" viewBox="0 0 664 336" width="664" height="336"><path d="M 80.000,73.000 C 84.487,72.000 84.500,72.500 89.000,72.000" stroke-width="5.125" stroke="black" fill="none" stroke-linecap="round"></path><path d="M 89.000,72.000 C 97.496,72.646 97.487,72.000 106.000,73.000" stroke-width="4.437" stroke="black" fill="none" stroke-linecap="round"></path><path d="M 106.000,73.000 C 109.500,73.000 109.496,73.146 113.000,73.000" stroke-width="4.057" stroke="black" fill="none" stroke-linecap="round"></path><path d="M 106.000,77.000 C 107.294,81.584 106.500,81.500 107.000,86.000" stroke-width="5.290" stroke="black" fill="none" stroke-linecap="round"></path><path d="M 107.000,86.000 C 106.000,89.000 106.794,89.084 105.000,92.000" stroke-width="4.396" stroke="black" fill="none" stroke-linecap="round"></path><path d="M 105.000,92.000 C 103.442,94.909 104.000,95.000 103.000,98.000" stroke-width="4.134" stroke="black" fill="none" stroke-linecap="round"></path><path d="M 103.000,98.000 C 103.000,102.000 102.442,101.909 103.000,106.000" stroke-width="3.913" stroke="black" fill="none" stroke-linecap="round"></path><path d="M 103.000,106.000 C 103.000,109.000 103.000,109.000 103.000,112.000" stroke-width="4.036" stroke="black" fill="none" stroke-linecap="round"></path><path d="M 131.000,134.000 C 127.014,133.268 127.000,133.500 123.000,133.000" stroke-width="5.194" stroke="black" fill="none" stroke-linecap="round"></path><path d="M 123.000,133.000 C 119.500,133.000 119.514,132.768 116.000,133.000" stroke-width="4.226" stroke="black" fill="none" stroke-linecap="round"></path><path d="M 116.000,133.000 C 112.500,133.000 112.500,133.000 109.000,133.000" stroke-width="4.054" stroke="black" fill="none" stroke-linecap="round"></path><path d="M 109.000,133.000 C 103.500,133.000 103.500,133.000 98.000,133.000" stroke-width="3.585" stroke="black" fill="none" stroke-linecap="round"></path><path d="M 98.000,133.000 C 95.000,133.000 95.000,133.000 92.000,133.000" stroke-width="3.925" stroke="black" fill="none" stroke-linecap="round"></path><path d="M 250.000,103.000 C 244.037,101.549 244.000,102.000 238.000,101.000" stroke-width="4.055" stroke="black" fill="none" stroke-linecap="round"></path><path d="M 238.000,101.000 C 232.083,98.958 233.037,100.549 228.000,101.000" stroke-width="4.235" stroke="black" fill="none" stroke-linecap="round"></path><path d="M 228.000,101.000 C 223.455,105.163 223.083,103.458 220.000,110.000" stroke-width="4.178" stroke="black" fill="none" stroke-linecap="round"></path><path d="M 220.000,110.000 C 218.350,112.375 218.455,112.163 218.000,115.000" stroke-width="4.243" stroke="black" fill="none" stroke-linecap="round"></path><path d="M 218.000,115.000 C 215.466,121.775 217.350,119.875 218.000,125.000" stroke-width="4.294" stroke="black" fill="none" stroke-linecap="round"></path><path d="M 218.000,125.000 C 224.124,129.813 220.966,128.775 229.000,129.000" stroke-width="4.476" stroke="black" fill="none" stroke-linecap="round"></path><path d="M 229.000,129.000 C 232.747,125.718 233.124,128.313 236.000,122.000" stroke-width="3.789" stroke="black" fill="none" stroke-linecap="round"></path><path d="M 236.000,122.000 C 239.612,117.584 239.747,117.718 243.000,113.000" stroke-width="3.421" stroke="black" fill="none" stroke-linecap="round"></path><path d="M 243.000,113.000 C 247.899,105.923 248.112,106.084 253.000,99.000" stroke-width="3.635" stroke="black" fill="none" stroke-linecap="round"></path><path d="M 253.000,99.000 C 255.608,94.000 254.899,96.423 257.000,94.000" stroke-width="4.327" stroke="black" fill="none" stroke-linecap="round"></path><path d="M 257.000,94.000 C 257.805,96.470 258.108,94.000 258.000,99.000" stroke-width="4.695" stroke="black" fill="none" stroke-linecap="round"></path><path d="M 258.000,99.000 C 258.000,103.000 258.305,102.970 258.000,107.000" stroke-width="4.104" stroke="black" fill="none" stroke-linecap="round"></path><path d="M 258.000,107.000 C 258.000,111.000 258.000,111.000 258.000,115.000" stroke-width="4.043" stroke="black" fill="none" stroke-linecap="round"></path><path d="M 285.000,101.000 C 285.910,105.752 285.000,105.500 285.000,110.000" stroke-width="5.292" stroke="black" fill="none" stroke-linecap="round"></path><path d="M 285.000,110.000 C 283.500,112.500 284.410,112.752 282.000,115.000" stroke-width="4.516" stroke="black" fill="none" stroke-linecap="round"></path><path d="M 282.000,115.000 C 277.849,120.895 280.500,117.500 279.000,120.000" stroke-width="4.712" stroke="black" fill="none" stroke-linecap="round"></path><path d="M 279.000,120.000 C 285.103,114.100 282.349,117.395 291.000,108.000" stroke-width="4.052" stroke="black" fill="none" stroke-linecap="round"></path><path d="M 291.000,108.000 C 299.453,98.954 299.603,99.100 308.000,90.000" stroke-width="3.426" stroke="black" fill="none" stroke-linecap="round"></path><path d="M 308.000,90.000 C 310.124,85.765 309.953,87.954 312.000,86.000" stroke-width="3.862" stroke="black" fill="none" stroke-linecap="round"></path><path d="M 312.000,86.000 C 316.454,88.278 314.124,86.265 316.000,91.000" stroke-width="4.586" stroke="black" fill="none" stroke-linecap="round"></path><path d="M 316.000,91.000 C 312.300,97.401 314.954,97.278 309.000,104.000" stroke-width="3.425" stroke="black" fill="none" stroke-linecap="round"></path><path d="M 309.000,104.000 C 306.572,109.534 306.300,109.401 304.000,115.000" stroke-width="3.268" stroke="black" fill="none" stroke-linecap="round"></path><path d="M 304.000,115.000 C 302.605,118.058 302.572,118.034 301.000,121.000" stroke-width="4.140" stroke="black" fill="none" stroke-linecap="round"></path><path d="M 301.000,121.000 C 297.127,126.873 299.605,123.558 298.000,126.000" stroke-width="4.174" stroke="black" fill="none" stroke-linecap="round"></path><path d="M 298.000,126.000 C 302.590,120.571 300.127,123.873 307.000,115.000" stroke-width="4.027" stroke="black" fill="none" stroke-linecap="round"></path><path d="M 307.000,115.000 C 311.396,107.899 312.090,108.571 317.000,102.000" stroke-width="3.135" stroke="black" fill="none" stroke-linecap="round"></path><path d="M 317.000,102.000 C 321.440,98.420 320.896,97.899 326.000,95.000" stroke-width="3.392" stroke="black" fill="none" stroke-linecap="round"></path><path d="M 326.000,95.000 C 329.424,92.384 329.440,92.420 333.000,90.000" stroke-width="3.625" stroke="black" fill="none" stroke-linecap="round"></path><path d="M 333.000,90.000 C 337.119,85.386 335.424,88.384 338.000,87.000" stroke-width="3.960" stroke="black" fill="none" stroke-linecap="round"></path><path d="M 338.000,87.000 C 339.762,94.144 340.119,90.886 339.000,101.000" stroke-width="4.404" stroke="black" fill="none" stroke-linecap="round"></path><path d="M 339.000,101.000 C 336.904,107.472 338.262,107.644 335.000,114.000" stroke-width="3.489" stroke="black" fill="none" stroke-linecap="round"></path><path d="M 335.000,114.000 C 332.983,119.431 333.404,119.472 332.000,125.000" stroke-width="3.343" stroke="black" fill="none" stroke-linecap="round"></path><path d="M 332.000,125.000 C 332.000,128.000 331.483,127.931 332.000,131.000" stroke-width="3.834" stroke="black" fill="none" stroke-linecap="round"></path><path d="M 332.000,131.000 C 333.148,134.475 332.000,134.000 332.000,137.000" stroke-width="4.010" stroke="black" fill="none" stroke-linecap="round"></path><path d="M 91.000,183.000 C 89.938,187.429 89.000,186.500 87.000,190.000" stroke-width="5.316" stroke="black" fill="none" stroke-linecap="round"></path><path d="M 87.000,190.000 C 80.980,193.466 81.938,194.429 75.000,197.000" stroke-width="3.539" stroke="black" fill="none" stroke-linecap="round"></path><path d="M 75.000,197.000 C 69.943,199.910 69.980,199.966 65.000,203.000" stroke-width="3.395" stroke="black" fill="none" stroke-linecap="round"></path><path d="M 65.000,203.000 C 61.331,204.410 61.943,204.910 59.000,207.000" stroke-width="3.765" stroke="black" fill="none" stroke-linecap="round"></path><path d="M 59.000,207.000 C 54.865,211.410 56.831,209.410 56.000,213.000" stroke-width="4.386" stroke="black" fill="none" stroke-linecap="round"></path><path d="M 56.000,213.000 C 59.981,213.713 57.365,214.910 64.000,214.000" stroke-width="3.913" stroke="black" fill="none" stroke-linecap="round"></path><path d="M 64.000,214.000 C 73.994,214.722 73.981,214.713 84.000,215.000" stroke-width="2.876" stroke="black" fill="none" stroke-linecap="round"></path><path d="M 84.000,215.000 C 92.104,214.154 91.994,215.222 100.000,215.000" stroke-width="2.891" stroke="black" fill="none" stroke-linecap="round"></path><path d="M 100.000,215.000 C 106.000,216.500 106.104,215.654 112.000,218.000" stroke-width="3.137" stroke="black" fill="none" stroke-linecap="round"></path><path d="M 112.000,218.000 C 116.068,218.790 116.000,219.000 120.000,220.000" stroke-width="3.566" stroke="black" fill="none" stroke-linecap="round"></path><path d="M 120.000,220.000 C 123.994,219.988 122.568,220.790 125.000,222.000" stroke-width="3.993" stroke="black" fill="none" stroke-linecap="round"></path><path d="M 125.000,222.000 C 127.233,227.564 126.494,224.988 125.000,230.000" stroke-width="4.369" stroke="black" fill="none" stroke-linecap="round"></path><path d="M 125.000,230.000 C 119.413,231.786 121.733,233.564 114.000,234.000" stroke-width="3.519" stroke="black" fill="none" stroke-linecap="round"></path><path d="M 114.000,234.000 C 108.618,236.801 108.413,236.286 103.000,239.000" stroke-width="3.354" stroke="black" fill="none" stroke-linecap="round"></path><path d="M 103.000,239.000 C 96.839,240.611 97.118,241.301 91.000,243.000" stroke-width="3.202" stroke="black" fill="none" stroke-linecap="round"></path><path d="M 91.000,243.000 C 86.180,245.986 85.839,245.111 81.000,248.000" stroke-width="3.278" stroke="black" fill="none" stroke-linecap="round"></path><path d="M 81.000,248.000 C 76.808,248.536 77.180,249.486 73.000,250.000" stroke-width="3.619" stroke="black" fill="none" stroke-linecap="round"></path><path d="M 176.000,156.000 C 177.868,159.912 177.000,160.000 178.000,164.000" stroke-width="4.742" stroke="black" fill="none" stroke-linecap="round"></path><path d="M 178.000,164.000 C 179.616,175.931 178.368,175.412 177.000,187.000" stroke-width="3.643" stroke="black" fill="none" stroke-linecap="round"></path><path d="M 177.000,187.000 C 171.710,203.343 173.116,203.431 165.000,219.000" stroke-width="2.979" stroke="black" fill="none" stroke-linecap="round"></path><path d="M 165.000,219.000 C 161.722,223.858 162.710,224.343 159.000,229.000" stroke-width="3.166" stroke="black" fill="none" stroke-linecap="round"></path><path d="M 159.000,229.000 C 157.198,232.406 157.222,232.358 156.000,236.000" stroke-width="4.034" stroke="black" fill="none" stroke-linecap="round"></path><path d="M 156.000,236.000 C 153.838,240.806 155.198,238.406 155.000,241.000" stroke-width="4.193" stroke="black" fill="none" stroke-linecap="round"></path><path d="M 214.000,193.000 C 211.090,194.421 211.000,194.000 208.000,195.000" stroke-width="5.261" stroke="black" fill="none" stroke-linecap="round"></path><path d="M 208.000,195.000 C 203.000,195.500 203.090,195.921 198.000,196.000" stroke-width="4.044" stroke="black" fill="none" stroke-linecap="round"></path><path d="M 198.000,196.000 C 188.013,197.166 188.000,197.000 178.000,198.000" stroke-width="2.892" stroke="black" fill="none" stroke-linecap="round"></path><path d="M 178.000,198.000 C 170.008,198.757 170.013,198.666 162.000,199.000" stroke-width="2.894" stroke="black" fill="none" stroke-linecap="round"></path><path d="M 162.000,199.000 C 153.500,199.000 153.508,199.257 145.000,199.000" stroke-width="2.837" stroke="black" fill="none" stroke-linecap="round"></path><path d="M 145.000,199.000 C 140.500,199.000 140.500,199.000 136.000,199.000" stroke-width="3.420" stroke="black" fill="none" stroke-linecap="round"></path><path d="M 221.000,208.000 C 224.717,215.302 223.500,215.500 226.000,223.000" stroke-width="4.828" stroke="black" fill="none" stroke-linecap="round"></path><path d="M 226.000,223.000 C 226.000,230.500 227.217,230.302 226.000,238.000" stroke-width="3.374" stroke="black" fill="none" stroke-linecap="round"></path><path d="M 226.000,238.000 C 226.703,245.614 226.000,245.500 226.000,253.000" stroke-width="3.030" stroke="black" fill="none" stroke-linecap="round"></path><path d="M 226.000,253.000 C 225.941,256.816 225.703,256.114 224.000,259.000" stroke-width="3.707" stroke="black" fill="none" stroke-linecap="round"></path><circle r="1.5" cx="249" cy="163" fill="black"></circle><path d="M 288.000,174.000 C 287.390,177.487 287.500,177.500 287.000,181.000" stroke-width="5.238" stroke="black" fill="none" stroke-linecap="round"></path><path d="M 287.000,181.000 C 287.234,186.653 286.390,186.487 286.000,192.000" stroke-width="3.737" stroke="black" fill="none" stroke-linecap="round"></path><path d="M 286.000,192.000 C 283.500,199.500 284.234,199.653 281.000,207.000" stroke-width="3.184" stroke="black" fill="none" stroke-linecap="round"></path><path d="M 281.000,207.000 C 278.975,214.697 278.500,214.500 276.000,222.000" stroke-width="2.927" stroke="black" fill="none" stroke-linecap="round"></path><path d="M 276.000,222.000 C 272.894,227.949 273.475,228.197 270.000,234.000" stroke-width="3.128" stroke="black" fill="none" stroke-linecap="round"></path><path d="M 270.000,234.000 C 267.479,239.491 267.394,239.449 265.000,245.000" stroke-width="3.238" stroke="black" fill="none" stroke-linecap="round"></path><path d="M 265.000,245.000 C 262.455,249.343 262.979,249.491 261.000,254.000" stroke-width="3.458" stroke="black" fill="none" stroke-linecap="round"></path><path d="M 261.000,254.000 C 260.792,257.569 259.955,257.343 260.000,261.000" stroke-width="3.803" stroke="black" fill="none" stroke-linecap="round"></path><path d="M 343.000,148.000 C 341.904,152.481 342.000,152.500 341.000,157.000" stroke-width="4.705" stroke="black" fill="none" stroke-linecap="round"></path><path d="M 341.000,157.000 C 340.408,162.604 339.904,162.481 339.000,168.000" stroke-width="3.703" stroke="black" fill="none" stroke-linecap="round"></path><path d="M 339.000,168.000 C 337.485,174.201 337.408,174.104 335.000,180.000" stroke-width="3.291" stroke="black" fill="none" stroke-linecap="round"></path><path d="M 335.000,180.000 C 331.090,188.046 331.485,188.201 327.000,196.000" stroke-width="2.886" stroke="black" fill="none" stroke-linecap="round"></path><path d="M 327.000,196.000 C 321.916,205.457 322.090,205.546 317.000,215.000" stroke-width="2.593" stroke="black" fill="none" stroke-linecap="round"></path><path d="M 317.000,215.000 C 313.258,221.891 313.416,221.957 310.000,229.000" stroke-width="2.871" stroke="black" fill="none" stroke-linecap="round"></path><path d="M 310.000,229.000 C 307.890,233.960 307.758,233.891 306.000,239.000" stroke-width="3.249" stroke="black" fill="none" stroke-linecap="round"></path><path d="M 306.000,239.000 C 303.472,242.361 304.890,241.960 304.000,245.000" stroke-width="3.801" stroke="black" fill="none" stroke-linecap="round"></path><path d="M 420.000,196.000 C 420.192,202.540 420.500,202.500 421.000,209.000" stroke-width="4.959" stroke="black" fill="none" stroke-linecap="round"></path><path d="M 421.000,209.000 C 422.385,214.465 421.692,214.540 423.000,220.000" stroke-width="3.601" stroke="black" fill="none" stroke-linecap="round"></path><path d="M 423.000,220.000 C 423.000,223.500 423.385,223.465 423.000,227.000" stroke-width="3.814" stroke="black" fill="none" stroke-linecap="round"></path><path d="M 423.000,227.000 C 421.307,235.677 423.000,231.000 423.000,235.000" stroke-width="4.287" stroke="black" fill="none" stroke-linecap="round"></path><path d="M 423.000,235.000 C 428.000,229.000 426.307,233.677 433.000,223.000" stroke-width="4.286" stroke="black" fill="none" stroke-linecap="round"></path><path d="M 433.000,223.000 C 435.376,219.887 435.500,220.000 438.000,217.000" stroke-width="4.025" stroke="black" fill="none" stroke-linecap="round"></path><path d="M 438.000,217.000 C 441.305,210.870 440.376,214.387 443.000,212.000" stroke-width="3.937" stroke="black" fill="none" stroke-linecap="round"></path><path d="M 443.000,212.000 C 446.065,217.389 445.805,213.870 447.000,223.000" stroke-width="4.490" stroke="black" fill="none" stroke-linecap="round"></path><path d="M 447.000,223.000 C 446.207,226.479 447.565,226.389 446.000,230.000" stroke-width="4.061" stroke="black" fill="none" stroke-linecap="round"></path><path d="M 446.000,230.000 C 443.989,240.201 445.707,234.979 446.000,240.000" stroke-width="4.257" stroke="black" fill="none" stroke-linecap="round"></path><path d="M 446.000,240.000 C 452.575,235.278 448.989,239.701 456.000,229.000" stroke-width="4.298" stroke="black" fill="none" stroke-linecap="round"></path><path d="M 456.000,229.000 C 456.382,223.317 458.575,224.278 458.000,218.000" stroke-width="3.739" stroke="black" fill="none" stroke-linecap="round"></path><path d="M 458.000,218.000 C 460.645,212.054 459.882,211.817 463.000,206.000" stroke-width="3.335" stroke="black" fill="none" stroke-linecap="round"></path><path d="M 463.000,206.000 C 463.699,202.862 464.145,203.054 465.000,200.000" stroke-width="3.836" stroke="black" fill="none" stroke-linecap="round"></path><path d="M 465.000,200.000 C 466.000,197.000 466.199,197.362 468.000,195.000" stroke-width="4.076" stroke="black" fill="none" stroke-linecap="round"></path><path d="M 508.000,218.000 C 500.467,215.323 501.000,217.500 494.000,217.000" stroke-width="4.617" stroke="black" fill="none" stroke-linecap="round"></path><path d="M 494.000,217.000 C 486.562,220.092 486.967,218.823 481.000,225.000" stroke-width="4.049" stroke="black" fill="none" stroke-linecap="round"></path><path d="M 481.000,225.000 C 479.031,228.518 478.062,227.592 477.000,232.000" stroke-width="3.883" stroke="black" fill="none" stroke-linecap="round"></path><path d="M 477.000,232.000 C 474.260,234.401 475.531,234.518 474.000,237.000" stroke-width="4.048" stroke="black" fill="none" stroke-linecap="round"></path><path d="M 474.000,237.000 C 473.972,241.447 473.760,239.401 476.000,242.000" stroke-width="4.718" stroke="black" fill="none" stroke-linecap="round"></path><path d="M 476.000,242.000 C 480.972,241.859 479.472,242.947 485.000,240.000" stroke-width="4.509" stroke="black" fill="none" stroke-linecap="round"></path><path d="M 485.000,240.000 C 487.409,238.315 487.472,238.859 489.000,236.000" stroke-width="4.256" stroke="black" fill="none" stroke-linecap="round"></path><path d="M 489.000,236.000 C 493.047,230.233 492.909,230.315 496.000,224.000" stroke-width="4.357" stroke="black" fill="none" stroke-linecap="round"></path><path d="M 496.000,224.000 C 499.096,218.919 497.547,220.733 498.000,217.000" stroke-width="4.530" stroke="black" fill="none" stroke-linecap="round"></path><path d="M 524.000,207.000 C 523.232,209.978 523.500,210.000 523.000,213.000" stroke-width="5.058" stroke="black" fill="none" stroke-linecap="round"></path><path d="M 523.000,213.000 C 523.000,216.500 522.732,216.478 523.000,220.000" stroke-width="4.758" stroke="black" fill="none" stroke-linecap="round"></path><path d="M 523.000,220.000 C 523.238,225.011 523.000,225.000 523.000,230.000" stroke-width="4.417" stroke="black" fill="none" stroke-linecap="round"></path><path d="M 523.000,230.000 C 521.682,239.410 522.738,235.511 522.000,241.000" stroke-width="4.296" stroke="black" fill="none" stroke-linecap="round"></path><path d="M 522.000,241.000 C 522.434,237.685 522.182,241.910 524.000,235.000" stroke-width="4.951" stroke="black" fill="none" stroke-linecap="round"></path><path d="M 524.000,235.000 C 526.500,232.000 525.934,231.685 529.000,229.000" stroke-width="4.069" stroke="black" fill="none" stroke-linecap="round"></path><path d="M 529.000,229.000 C 531.376,225.887 531.500,226.000 534.000,223.000" stroke-width="3.862" stroke="black" fill="none" stroke-linecap="round"></path><path d="M 534.000,223.000 C 536.308,220.278 536.376,220.387 539.000,218.000" stroke-width="3.889" stroke="black" fill="none" stroke-linecap="round"></path><path d="M 539.000,218.000 C 542.695,214.318 542.808,214.778 547.000,212.000" stroke-width="4.179" stroke="black" fill="none" stroke-linecap="round"></path><path d="M 547.000,212.000 C 550.754,209.576 549.195,210.818 552.000,211.000" stroke-width="4.786" stroke="black" fill="none" stroke-linecap="round"></path><path d="M 582.000,143.000 C 580.531,147.954 581.000,148.000 580.000,153.000" stroke-width="5.180" stroke="black" fill="none" stroke-linecap="round"></path><path d="M 580.000,153.000 C 580.579,157.561 579.531,157.454 580.000,162.000" stroke-width="4.144" stroke="black" fill="none" stroke-linecap="round"></path><path d="M 580.000,162.000 C 578.736,169.058 579.079,169.061 577.000,176.000" stroke-width="3.315" stroke="black" fill="none" stroke-linecap="round"></path><path d="M 577.000,176.000 C 574.199,184.928 574.736,185.058 572.000,194.000" stroke-width="2.776" stroke="black" fill="none" stroke-linecap="round"></path><path d="M 572.000,194.000 C 570.550,201.510 570.199,201.428 569.000,209.000" stroke-width="2.903" stroke="black" fill="none" stroke-linecap="round"></path><path d="M 569.000,209.000 C 567.225,215.955 567.550,216.010 566.000,223.000" stroke-width="2.949" stroke="black" fill="none" stroke-linecap="round"></path><path d="M 566.000,223.000 C 565.529,227.503 565.225,227.455 565.000,232.000" stroke-width="3.419" stroke="black" fill="none" stroke-linecap="round"></path><path d="M 565.000,232.000 C 564.899,236.103 564.529,236.003 564.000,240.000" stroke-width="3.687" stroke="black" fill="none" stroke-linecap="round"></path><path d="M 563.000,228.000 C 565.851,225.290 566.000,225.500 569.000,223.000" stroke-width="5.182" stroke="black" fill="none" stroke-linecap="round"></path><path d="M 569.000,223.000 C 571.716,221.777 571.351,221.290 574.000,220.000" stroke-width="4.491" stroke="black" fill="none" stroke-linecap="round"></path><path d="M 574.000,220.000 C 575.593,217.416 576.216,218.277 578.000,216.000" stroke-width="4.298" stroke="black" fill="none" stroke-linecap="round"></path><path d="M 578.000,216.000 C 584.531,213.064 584.093,212.416 591.000,210.000" stroke-width="4.054" stroke="black" fill="none" stroke-linecap="round"></path><path d="M 591.000,210.000 C 594.000,208.500 594.031,208.564 597.000,207.000" stroke-width="4.470" stroke="black" fill="none" stroke-linecap="round"></path><path d="M 575.000,215.000 C 577.508,216.656 577.000,217.000 579.000,219.000" stroke-width="5.307" stroke="black" fill="none" stroke-linecap="round"></path><path d="M 579.000,219.000 C 580.869,222.381 581.008,222.156 582.000,226.000" stroke-width="4.224" stroke="black" fill="none" stroke-linecap="round"></path><path d="M 582.000,226.000 C 583.200,230.465 583.369,230.381 584.000,235.000" stroke-width="3.743" stroke="black" fill="none" stroke-linecap="round"></path><path d="M 584.000,235.000 C 584.159,239.077 584.700,238.965 585.000,243.000" stroke-width="3.793" stroke="black" fill="none" stroke-linecap="round"></path><path d="M 585.000,243.000 C 586.170,245.955 585.659,246.077 587.000,249.000" stroke-width="4.003" stroke="black" fill="none" stroke-linecap="round"></path><path d="M 618.000,225.000 C 615.804,227.783 616.500,228.000 615.000,231.000" stroke-width="5.240" stroke="black" fill="none" stroke-linecap="round"></path><path d="M 615.000,231.000 C 614.382,238.090 613.304,237.783 613.000,245.000" stroke-width="4.255" stroke="black" fill="none" stroke-linecap="round"></path><path d="M 613.000,245.000 C 611.765,247.942 612.382,248.090 611.000,251.000" stroke-width="4.145" stroke="black" fill="none" stroke-linecap="round"></path><circle r="1.5" cx="633" cy="184" fill="black"></circle><path d="M 631.000,243.000 C 633.187,238.751 633.500,239.000 636.000,235.000" stroke-width="4.980" stroke="black" fill="none" stroke-linecap="round"></path><path d="M 636.000,235.000 C 638.215,233.182 637.687,232.751 640.000,231.000" stroke-width="4.423" stroke="black" fill="none" stroke-linecap="round"></path><path d="M 640.000,231.000 C 642.878,224.000 642.715,227.682 645.000,224.000" stroke-width="4.469" stroke="black" fill="none" stroke-linecap="round"></path><path d="M 645.000,224.000 C 647.268,227.342 646.878,224.000 648.000,231.000" stroke-width="4.930" stroke="black" fill="none" stroke-linecap="round"></path><path d="M 648.000,231.000 C 648.000,235.000 648.768,234.842 648.000,239.000" stroke-width="4.040" stroke="black" fill="none" stroke-linecap="round"></path><path d="M 648.000,239.000 C 648.000,242.500 648.000,242.500 648.000,246.000" stroke-width="4.001" stroke="black" fill="none" stroke-linecap="round"></path><path d="M 648.000,246.000 C 648.000,249.000 648.000,249.000 648.000,252.000" stroke-width="4.063" stroke="black" fill="none" stroke-linecap="round"></path><path d="M 648.000,252.000 C 648.270,255.027 648.000,255.000 648.000,258.000" stroke-width="4.083" stroke="black" fill="none" stroke-linecap="round"></path><path d="M 648.000,258.000 C 646.650,263.699 647.770,260.527 647.000,263.000" stroke-width="4.736" stroke="black" fill="none" stroke-linecap="round"></path><path d="M 647.000,263.000 C 648.500,258.500 647.650,261.699 650.000,254.000" stroke-width="4.760" stroke="black" fill="none" stroke-linecap="round"></path><path d="M 650.000,254.000 C 650.937,250.978 651.000,251.000 652.000,248.000" stroke-width="4.226" stroke="black" fill="none" stroke-linecap="round"></path><path d="M 652.000,248.000 C 653.467,243.987 653.437,243.978 655.000,240.000" stroke-width="4.411" stroke="black" fill="none" stroke-linecap="round"></path><path d="M 655.000,240.000 C 656.352,234.568 655.967,237.487 657.000,235.000" stroke-width="4.864" stroke="black" fill="none" stroke-linecap="round"></path><path d="M 657.000,235.000 C 657.730,238.484 657.852,235.568 658.000,242.000" stroke-width="5.237" stroke="black" fill="none" stroke-linecap="round"></path><path d="M 658.000,242.000 C 658.487,245.079 658.230,244.984 658.000,248.000" stroke-width="4.378" stroke="black" fill="none" stroke-linecap="round"></path><path d="M 658.000,248.000 C 657.350,251.151 657.487,251.079 656.000,254.000" stroke-width="4.130" stroke="black" fill="none" stroke-linecap="round"></path><path d="M 656.000,254.000 C 652.695,260.617 652.850,260.651 649.000,267.000" stroke-width="4.007" stroke="black" fill="none" stroke-linecap="round"></path><path d="M 649.000,267.000 C 647.242,270.198 647.195,270.117 645.000,273.000" stroke-width="3.915" stroke="black" fill="none" stroke-linecap="round"></path><path d="M 645.000,273.000 C 643.286,275.367 643.242,275.198 641.000,277.000" stroke-width="4.081" stroke="black" fill="none" stroke-linecap="round"></path><path d="M 641.000,277.000 C 636.131,280.264 636.286,280.367 631.000,283.000" stroke-width="4.155" stroke="black" fill="none" stroke-linecap="round"></path><path d="M 631.000,283.000 C 628.401,283.800 628.631,284.264 626.000,285.000" stroke-width="4.236" stroke="black" fill="none" stroke-linecap="round"></path><path d="M 626.000,285.000 C 623.565,286.619 623.401,286.300 621.000,288.000" stroke-width="4.203" stroke="black" fill="none" stroke-linecap="round"></path><path d="M 621.000,288.000 C 617.092,290.210 617.065,290.119 613.000,292.000" stroke-width="3.768" stroke="black" fill="none" stroke-linecap="round"></path><path d="M 613.000,292.000 C 609.088,293.798 609.092,293.710 605.000,295.000" stroke-width="3.751" stroke="black" fill="none" stroke-linecap="round"></path><path d="M 605.000,295.000 C 600.560,296.544 600.588,296.298 596.000,297.000" stroke-width="3.820" stroke="black" fill="none" stroke-linecap="round"></path><path d="M 596.000,297.000 C 590.500,297.000 590.560,297.544 585.000,297.000" stroke-width="3.527" stroke="black" fill="none" stroke-linecap="round"></path><path d="M 585.000,297.000 C 579.000,297.000 579.000,297.000 573.000,297.000" stroke-width="3.363" stroke="black" fill="none" stroke-linecap="round"></path><path d="M 573.000,297.000 C 568.807,297.816 569.000,297.000 565.000,297.000" stroke-width="3.674" stroke="black" fill="none" stroke-linecap="round"></path><path d="M 565.000,297.000 C 562.125,295.136 561.807,296.316 559.000,294.000" stroke-width="3.918" stroke="black" fill="none" stroke-linecap="round"></path><path d="M 559.000,294.000 C 556.137,294.246 556.625,293.136 554.000,293.000" stroke-width="4.155" stroke="black" fill="none" stroke-linecap="round"></path><path d="M 554.000,293.000 C 550.868,289.417 550.137,290.746 547.000,287.000" stroke-width="4.301" stroke="black" fill="none" stroke-linecap="round"></path></svg>