<svg xmlns="http://www.w3.org/2000/svg" xmlns:xlink="http://www.w3.org/1999/xlink" viewBox="0 0 464 392" width="464" height="392"><path d="M 243.000,228.000 C 236.699,232.256 236.500,230.500 230.000,233.000" stroke-width="4.803" stroke="black" fill="none" stroke-linecap="round"></path><path d="M 230.000,233.000 C 222.492,233.405 223.199,233.756 216.000,231.000" stroke-width="3.287" stroke="black" fill="none" stroke-linecap="round"></path><path d="M 216.000,231.000 C 209.284,227.300 208.992,228.405 203.000,223.000" stroke-width="2.990" stroke="black" fill="none" stroke-linecap="round"></path><path d="M 203.000,223.000 C 199.965,220.541 199.784,220.800 197.000,218.000" stroke-width="3.587" stroke="black" fill="none" stroke-linecap="round"></path><path d="M 197.000,218.000 C 189.685,215.625 192.965,214.541 189.000,211.000" stroke-width="3.498" stroke="black" fill="none" stroke-linecap="round"></path><path d="M 189.000,211.000 C 188.593,199.813 187.685,202.125 193.000,191.000" stroke-width="2.711" stroke="black" fill="none" stroke-linecap="round"></path><path d="M 193.000,191.000 C 197.927,179.990 197.593,181.813 207.000,175.000" stroke-width="2.617" stroke="black" fill="none" stroke-linecap="round"></path><path d="M 207.000,175.000 C 229.656,164.888 227.927,163.490 253.000,158.000" stroke-width="1.548" stroke="black" fill="none" stroke-linecap="round"></path><path d="M 253.000,158.000 C 260.501,156.830 260.156,155.888 268.000,157.000" stroke-width="2.335" stroke="black" fill="none" stroke-linecap="round"></path><path d="M 268.000,157.000 C 282.605,157.401 282.501,157.330 297.000,159.000" stroke-width="2.147" stroke="black" fill="none" stroke-linecap="round"></path><path d="M 297.000,159.000 C 300.735,159.493 300.605,159.401 304.000,161.000" stroke-width="3.117" stroke="black" fill="none" stroke-linecap="round"></path><path d="M 304.000,161.000 C 308.500,161.885 307.235,162.493 310.000,165.000" stroke-width="3.657" stroke="black" fill="none" stroke-linecap="round"></path><path d="M 310.000,165.000 C 317.172,176.280 315.000,175.385 317.000,188.000" stroke-width="2.615" stroke="black" fill="none" stroke-linecap="round"></path><path d="M 317.000,188.000 C 313.829,210.711 316.672,210.280 309.000,233.000" stroke-width="1.682" stroke="black" fill="none" stroke-linecap="round"></path><path d="M 309.000,233.000 C 307.266,240.875 307.329,240.711 304.000,248.000" stroke-width="2.389" stroke="black" fill="none" stroke-linecap="round"></path><path d="M 304.000,248.000 C 301.194,252.645 301.766,252.875 298.000,257.000" stroke-width="3.038" stroke="black" fill="none" stroke-linecap="round"></path><path d="M 298.000,257.000 C 291.450,262.828 295.694,260.145 293.000,263.000" stroke-width="3.944" stroke="black" fill="none" stroke-linecap="round"></path><path d="M 293.000,263.000 C 299.755,259.449 295.950,263.328 307.000,258.000" stroke-width="3.897" stroke="black" fill="none" stroke-linecap="round"></path><path d="M 307.000,258.000 C 319.994,255.723 319.755,255.449 333.000,255.000" stroke-width="2.682" stroke="black" fill="none" stroke-linecap="round"></path><path d="M 333.000,255.000 C 338.342,254.544 337.994,254.723 343.000,256.000" stroke-width="3.227" stroke="black" fill="none" stroke-linecap="round"></path><path d="M 343.000,256.000 C 346.208,257.732 346.342,257.044 349.000,260.000" stroke-width="4.236" stroke="black" fill="none" stroke-linecap="round"></path><path d="M 349.000,260.000 C 352.935,266.641 354.208,264.232 359.000,269.000" stroke-width="4.090" stroke="black" fill="none" stroke-linecap="round"></path><path d="M 359.000,269.000 C 371.912,273.199 370.935,273.641 385.000,274.000" stroke-width="2.554" stroke="black" fill="none" stroke-linecap="round"></path><path d="M 385.000,274.000 C 396.484,272.640 396.412,274.699 408.000,272.000" stroke-width="2.373" stroke="black" fill="none" stroke-linecap="round"></path><path d="M 408.000,272.000 C 414.500,272.000 414.484,271.640 421.000,272.000" stroke-width="2.890" stroke="black" fill="none" stroke-linecap="round"></path><path d="M 421.000,272.000 C 427.766,270.139 424.000,272.000 427.000,272.000" stroke-width="3.996" stroke="black" fill="none" stroke-linecap="round"></path></svg>