<svg xmlns="http://www.w3.org/2000/svg" xmlns:xlink="http://www.w3.org/1999/xlink" viewBox="0 0 641 416" width="641" height="416"><path d="M 198.000,207.000 C 201.986,206.268 202.000,206.500 206.000,206.000" stroke-width="5.110" stroke="black" fill="none" stroke-linecap="round"></path><path d="M 206.000,206.000 C 209.500,206.000 209.486,205.768 213.000,206.000" stroke-width="4.266" stroke="black" fill="none" stroke-linecap="round"></path><path d="M 213.000,206.000 C 219.599,205.147 219.500,206.000 226.000,206.000" stroke-width="3.449" stroke="black" fill="none" stroke-linecap="round"></path><path d="M 226.000,206.000 C 234.551,207.810 234.599,207.147 243.000,210.000" stroke-width="2.880" stroke="black" fill="none" stroke-linecap="round"></path><path d="M 243.000,210.000 C 248.334,210.790 248.051,211.310 253.000,213.000" stroke-width="3.228" stroke="black" fill="none" stroke-linecap="round"></path><path d="M 253.000,213.000 C 260.092,214.389 257.834,215.290 262.000,219.000" stroke-width="3.317" stroke="black" fill="none" stroke-linecap="round"></path><path d="M 262.000,219.000 C 264.653,230.539 266.092,228.889 265.000,242.000" stroke-width="2.599" stroke="black" fill="none" stroke-linecap="round"></path><path d="M 265.000,242.000 C 264.941,247.390 265.153,247.039 263.000,252.000" stroke-width="3.133" stroke="black" fill="none" stroke-linecap="round"></path><path d="M 263.000,252.000 C 259.777,256.371 260.941,256.890 257.000,261.000" stroke-width="3.286" stroke="black" fill="none" stroke-linecap="round"></path><path d="M 257.000,261.000 C 252.757,266.379 255.277,263.871 254.000,267.000" stroke-width="4.296" stroke="black" fill="none" stroke-linecap="round"></path><path d="M 254.000,267.000 C 258.551,265.639 255.757,267.879 263.000,264.000" stroke-width="3.792" stroke="black" fill="none" stroke-linecap="round"></path><path d="M 263.000,264.000 C 267.907,261.742 268.051,262.139 273.000,260.000" stroke-width="3.541" stroke="black" fill="none" stroke-linecap="round"></path><path d="M 273.000,260.000 C 286.849,254.538 286.907,255.242 301.000,251.000" stroke-width="2.284" stroke="black" fill="none" stroke-linecap="round"></path><path d="M 301.000,251.000 C 305.000,251.000 304.849,250.038 309.000,251.000" stroke-width="3.144" stroke="black" fill="none" stroke-linecap="round"></path><path d="M 309.000,251.000 C 312.101,250.473 312.000,251.000 315.000,251.000" stroke-width="3.791" stroke="black" fill="none" stroke-linecap="round"></path><path d="M 315.000,251.000 C 318.787,250.877 317.601,251.473 320.000,253.000" stroke-width="4.479" stroke="black" fill="none" stroke-linecap="round"></path><path d="M 320.000,253.000 C 321.143,259.120 322.787,257.877 323.000,265.000" stroke-width="4.175" stroke="black" fill="none" stroke-linecap="round"></path><path d="M 323.000,265.000 C 323.964,268.833 324.143,268.620 326.000,272.000" stroke-width="3.913" stroke="black" fill="none" stroke-linecap="round"></path><path d="M 326.000,272.000 C 328.230,276.487 328.464,275.833 332.000,279.000" stroke-width="3.666" stroke="black" fill="none" stroke-linecap="round"></path><path d="M 332.000,279.000 C 340.651,284.494 340.230,284.487 350.000,288.000" stroke-width="2.828" stroke="black" fill="none" stroke-linecap="round"></path><path d="M 350.000,288.000 C 356.981,289.596 356.651,290.494 364.000,291.000" stroke-width="2.982" stroke="black" fill="none" stroke-linecap="round"></path><path d="M 364.000,291.000 C 369.519,291.904 369.481,292.096 375.000,293.000" stroke-width="3.259" stroke="black" fill="none" stroke-linecap="round"></path><path d="M 375.000,293.000 C 379.493,294.034 379.519,293.904 384.000,295.000" stroke-width="3.568" stroke="black" fill="none" stroke-linecap="round"></path><path d="M 384.000,295.000 C 386.594,295.198 386.493,295.534 389.000,296.000" stroke-width="4.515" stroke="black" fill="none" stroke-linecap="round"></path><path d="M 389.000,296.000 C 392.407,297.750 392.594,297.198 396.000,299.000" stroke-width="4.495" stroke="black" fill="none" stroke-linecap="round"></path><path d="M 396.000,299.000 C 403.896,301.909 403.907,301.750 412.000,304.000" stroke-width="3.186" stroke="black" fill="none" stroke-linecap="round"></path><path d="M 412.000,304.000 C 419.417,306.590 419.396,305.909 427.000,307.000" stroke-width="3.025" stroke="black" fill="none" stroke-linecap="round"></path><path d="M 427.000,307.000 C 438.128,307.318 437.917,307.590 449.000,306.000" stroke-width="2.599" stroke="black" fill="none" stroke-linecap="round"></path><path d="M 449.000,306.000 C 454.487,304.451 454.628,305.318 460.000,303.000" stroke-width="3.043" stroke="black" fill="none" stroke-linecap="round"></path><path d="M 460.000,303.000 C 464.162,302.439 463.987,301.951 468.000,301.000" stroke-width="3.949" stroke="black" fill="none" stroke-linecap="round"></path><path d="M 468.000,301.000 C 472.125,299.215 472.162,299.439 476.000,297.000" stroke-width="4.646" stroke="black" fill="none" stroke-linecap="round"></path><path d="M 476.000,297.000 C 479.492,295.508 479.125,295.215 482.000,293.000" stroke-width="4.019" stroke="black" fill="none" stroke-linecap="round"></path><path d="M 482.000,293.000 C 485.311,289.861 484.992,290.008 487.000,286.000" stroke-width="3.759" stroke="black" fill="none" stroke-linecap="round"></path><path d="M 487.000,286.000 C 489.000,281.419 488.811,281.861 489.000,277.000" stroke-width="4.393" stroke="black" fill="none" stroke-linecap="round"></path><path d="M 489.000,277.000 C 487.810,274.565 489.000,274.419 487.000,272.000" stroke-width="4.900" stroke="black" fill="none" stroke-linecap="round"></path><path d="M 487.000,272.000 C 486.542,264.241 484.810,265.065 483.000,258.000" stroke-width="4.157" stroke="black" fill="none" stroke-linecap="round"></path><path d="M 483.000,258.000 C 476.207,244.709 476.042,245.741 466.000,235.000" stroke-width="2.386" stroke="black" fill="none" stroke-linecap="round"></path><path d="M 466.000,235.000 C 454.000,227.000 455.707,225.209 442.000,219.000" stroke-width="2.107" stroke="black" fill="none" stroke-linecap="round"></path><path d="M 442.000,219.000 C 432.669,213.455 433.000,213.000 424.000,207.000" stroke-width="2.402" stroke="black" fill="none" stroke-linecap="round"></path><path d="M 424.000,207.000 C 410.735,193.561 409.169,195.955 395.000,184.000" stroke-width="1.861" stroke="black" fill="none" stroke-linecap="round"></path><path d="M 395.000,184.000 C 370.744,169.777 371.235,169.561 345.000,159.000" stroke-width="1.388" stroke="black" fill="none" stroke-linecap="round"></path><path d="M 345.000,159.000 C 306.139,142.173 306.244,142.777 266.000,130.000" stroke-width="1.125" stroke="black" fill="none" stroke-linecap="round"></path><path d="M 266.000,130.000 C 244.612,125.039 245.139,123.673 223.000,122.000" stroke-width="1.330" stroke="black" fill="none" stroke-linecap="round"></path><path d="M 223.000,122.000 C 212.466,121.910 212.612,120.539 202.000,121.000" stroke-width="1.985" stroke="black" fill="none" stroke-linecap="round"></path><path d="M 202.000,121.000 C 189.517,119.211 189.466,119.910 177.000,118.000" stroke-width="2.121" stroke="black" fill="none" stroke-linecap="round"></path><path d="M 177.000,118.000 C 172.973,116.027 174.017,117.711 171.000,118.000" stroke-width="3.228" stroke="black" fill="none" stroke-linecap="round"></path><path d="M 171.000,118.000 C 161.142,126.816 162.973,126.027 157.000,138.000" stroke-width="3.202" stroke="black" fill="none" stroke-linecap="round"></path><path d="M 157.000,138.000 C 152.711,154.887 151.142,153.816 151.000,172.000" stroke-width="2.055" stroke="black" fill="none" stroke-linecap="round"></path><path d="M 151.000,172.000 C 151.228,185.004 149.711,184.887 151.000,198.000" stroke-width="2.170" stroke="black" fill="none" stroke-linecap="round"></path><path d="M 151.000,198.000 C 150.397,213.498 150.728,213.504 150.000,229.000" stroke-width="1.984" stroke="black" fill="none" stroke-linecap="round"></path><path d="M 150.000,229.000 C 149.485,233.051 149.897,232.998 150.000,237.000" stroke-width="2.960" stroke="black" fill="none" stroke-linecap="round"></path><path d="M 150.000,237.000 C 148.717,246.289 150.985,244.551 153.000,252.000" stroke-width="3.549" stroke="black" fill="none" stroke-linecap="round"></path><path d="M 153.000,252.000 C 161.264,259.889 159.217,260.289 171.000,265.000" stroke-width="2.620" stroke="black" fill="none" stroke-linecap="round"></path><path d="M 171.000,265.000 C 181.503,272.138 181.264,270.389 193.000,273.000" stroke-width="2.309" stroke="black" fill="none" stroke-linecap="round"></path><path d="M 193.000,273.000 C 222.830,275.988 221.503,275.138 251.000,271.000" stroke-width="1.472" stroke="black" fill="none" stroke-linecap="round"></path><path d="M 251.000,271.000 C 270.092,263.717 270.830,267.488 289.000,256.000" stroke-width="1.548" stroke="black" fill="none" stroke-linecap="round"></path><path d="M 289.000,256.000 C 295.191,254.572 294.592,253.717 300.000,251.000" stroke-width="2.459" stroke="black" fill="none" stroke-linecap="round"></path><path d="M 300.000,251.000 C 312.770,241.230 312.691,241.572 324.000,230.000" stroke-width="2.022" stroke="black" fill="none" stroke-linecap="round"></path><path d="M 324.000,230.000 C 329.365,222.888 330.270,223.730 335.000,216.000" stroke-width="2.481" stroke="black" fill="none" stroke-linecap="round"></path><path d="M 335.000,216.000 C 338.872,212.265 338.365,211.888 342.000,208.000" stroke-width="3.048" stroke="black" fill="none" stroke-linecap="round"></path><path d="M 342.000,208.000 C 347.004,202.757 344.372,204.765 346.000,201.000" stroke-width="3.548" stroke="black" fill="none" stroke-linecap="round"></path><path d="M 346.000,201.000 C 341.917,200.381 345.004,199.257 338.000,201.000" stroke-width="4.539" stroke="black" fill="none" stroke-linecap="round"></path><path d="M 338.000,201.000 C 332.434,202.302 332.417,201.881 327.000,204.000" stroke-width="3.581" stroke="black" fill="none" stroke-linecap="round"></path></svg>