<svg xmlns="http://www.w3.org/2000/svg" xmlns:xlink="http://www.w3.org/1999/xlink" viewBox="0 0 664 327" width="664" height="327"><path d="M 303.000,219.000 C 292.678,223.254 292.500,222.500 282.000,226.000" stroke-width="3.709" stroke="black" fill="none" stroke-linecap="round"></path><path d="M 282.000,226.000 C 275.042,227.586 275.178,227.754 268.000,228.000" stroke-width="3.238" stroke="black" fill="none" stroke-linecap="round"></path><path d="M 268.000,228.000 C 257.993,228.256 258.042,228.586 248.000,228.000" stroke-width="2.751" stroke="black" fill="none" stroke-linecap="round"></path><path d="M 248.000,228.000 C 238.025,229.006 238.493,227.756 229.000,227.000" stroke-width="2.621" stroke="black" fill="none" stroke-linecap="round"></path><path d="M 229.000,227.000 C 224.187,225.364 224.525,226.006 221.000,222.000" stroke-width="3.247" stroke="black" fill="none" stroke-linecap="round"></path><path d="M 221.000,222.000 C 215.045,215.468 215.187,215.864 211.000,208.000" stroke-width="2.917" stroke="black" fill="none" stroke-linecap="round"></path><path d="M 211.000,208.000 C 207.344,202.814 208.545,203.468 208.000,198.000" stroke-width="3.242" stroke="black" fill="none" stroke-linecap="round"></path><path d="M 208.000,198.000 C 208.947,190.155 208.844,191.814 214.000,186.000" stroke-width="3.173" stroke="black" fill="none" stroke-linecap="round"></path><path d="M 214.000,186.000 C 231.985,169.821 231.447,171.655 253.000,161.000" stroke-width="1.792" stroke="black" fill="none" stroke-linecap="round"></path><path d="M 253.000,161.000 C 273.875,154.347 272.485,152.821 295.000,152.000" stroke-width="1.745" stroke="black" fill="none" stroke-linecap="round"></path><path d="M 295.000,152.000 C 305.645,152.188 305.375,150.847 316.000,154.000" stroke-width="2.121" stroke="black" fill="none" stroke-linecap="round"></path><path d="M 316.000,154.000 C 325.671,155.974 325.645,155.688 335.000,159.000" stroke-width="2.388" stroke="black" fill="none" stroke-linecap="round"></path><path d="M 335.000,159.000 C 344.663,161.484 344.171,161.974 353.000,166.000" stroke-width="2.498" stroke="black" fill="none" stroke-linecap="round"></path><path d="M 353.000,166.000 C 358.385,168.065 356.663,167.984 359.000,172.000" stroke-width="3.261" stroke="black" fill="none" stroke-linecap="round"></path><path d="M 359.000,172.000 C 362.275,186.511 360.885,184.065 358.000,198.000" stroke-width="2.388" stroke="black" fill="none" stroke-linecap="round"></path><path d="M 358.000,198.000 C 350.640,206.632 354.275,208.011 343.000,215.000" stroke-width="2.509" stroke="black" fill="none" stroke-linecap="round"></path><path d="M 343.000,215.000 C 340.441,218.542 340.140,218.132 337.000,221.000" stroke-width="3.181" stroke="black" fill="none" stroke-linecap="round"></path><path d="M 337.000,221.000 C 322.552,230.584 322.941,231.042 308.000,240.000" stroke-width="2.116" stroke="black" fill="none" stroke-linecap="round"></path><path d="M 308.000,240.000 C 301.948,244.169 305.552,241.584 303.000,243.000" stroke-width="3.470" stroke="black" fill="none" stroke-linecap="round"></path><path d="M 303.000,243.000 C 308.665,234.168 306.448,239.169 317.000,230.000" stroke-width="3.561" stroke="black" fill="none" stroke-linecap="round"></path><path d="M 317.000,230.000 C 331.735,223.694 330.665,223.168 347.000,221.000" stroke-width="2.211" stroke="black" fill="none" stroke-linecap="round"></path><path d="M 347.000,221.000 C 357.512,220.692 357.235,219.194 368.000,221.000" stroke-width="2.416" stroke="black" fill="none" stroke-linecap="round"></path><path d="M 368.000,221.000 C 374.603,220.990 374.512,221.192 381.000,222.000" stroke-width="2.857" stroke="black" fill="none" stroke-linecap="round"></path><path d="M 381.000,222.000 C 384.051,222.866 384.103,222.490 387.000,224.000" stroke-width="3.627" stroke="black" fill="none" stroke-linecap="round"></path><path d="M 387.000,224.000 C 390.313,227.000 390.551,225.366 394.000,227.000" stroke-width="4.462" stroke="black" fill="none" stroke-linecap="round"></path><path d="M 394.000,227.000 C 403.776,226.537 403.313,227.000 413.000,224.000" stroke-width="2.930" stroke="black" fill="none" stroke-linecap="round"></path><path d="M 413.000,224.000 C 423.571,220.172 423.776,221.037 434.000,216.000" stroke-width="2.490" stroke="black" fill="none" stroke-linecap="round"></path><path d="M 434.000,216.000 C 438.338,213.554 438.571,214.172 443.000,212.000" stroke-width="3.110" stroke="black" fill="none" stroke-linecap="round"></path><path d="M 443.000,212.000 C 453.343,207.881 453.338,208.554 464.000,206.000" stroke-width="2.559" stroke="black" fill="none" stroke-linecap="round"></path><path d="M 464.000,206.000 C 470.609,205.327 470.343,204.881 477.000,206.000" stroke-width="2.969" stroke="black" fill="none" stroke-linecap="round"></path><path d="M 477.000,206.000 C 480.438,208.854 480.109,206.327 483.000,208.000" stroke-width="3.679" stroke="black" fill="none" stroke-linecap="round"></path><path d="M 483.000,208.000 C 485.906,204.901 486.438,206.854 489.000,202.000" stroke-width="4.611" stroke="black" fill="none" stroke-linecap="round"></path><path d="M 489.000,202.000 C 493.087,196.025 493.906,197.401 499.000,193.000" stroke-width="3.400" stroke="black" fill="none" stroke-linecap="round"></path><path d="M 499.000,193.000 C 515.321,185.560 514.587,185.025 532.000,180.000" stroke-width="2.047" stroke="black" fill="none" stroke-linecap="round"></path></svg>