<svg xmlns="http://www.w3.org/2000/svg" xmlns:xlink="http://www.w3.org/1999/xlink" viewBox="0 0 664 416" width="664" height="416"><path d="M 283.417,249.000 C 278.731,248.523 278.917,248.000 274.417,247.000" stroke-width="5.190" stroke="black" fill="none" stroke-linecap="round"></path><path d="M 274.417,247.000 C 270.417,245.000 270.231,245.523 266.417,243.000" stroke-width="4.037" stroke="black" fill="none" stroke-linecap="round"></path><path d="M 266.417,243.000 C 260.541,239.722 260.417,240.000 254.417,237.000" stroke-width="3.367" stroke="black" fill="none" stroke-linecap="round"></path><path d="M 254.417,237.000 C 246.988,233.804 247.041,233.722 239.417,231.000" stroke-width="3.014" stroke="black" fill="none" stroke-linecap="round"></path><path d="M 239.417,231.000 C 233.484,228.770 233.488,228.804 227.417,227.000" stroke-width="3.159" stroke="black" fill="none" stroke-linecap="round"></path><path d="M 227.417,227.000 C 221.210,226.086 221.484,225.270 215.417,224.000" stroke-width="3.226" stroke="black" fill="none" stroke-linecap="round"></path><path d="M 215.417,224.000 C 208.812,221.198 208.710,221.586 202.417,218.000" stroke-width="3.041" stroke="black" fill="none" stroke-linecap="round"></path><path d="M 202.417,218.000 C 199.917,216.500 199.812,216.698 197.417,215.000" stroke-width="3.725" stroke="black" fill="none" stroke-linecap="round"></path><path d="M 197.417,215.000 C 194.917,213.500 194.917,213.500 192.417,212.000" stroke-width="3.995" stroke="black" fill="none" stroke-linecap="round"></path><path d="M 192.417,212.000 C 186.549,210.983 189.917,210.500 187.417,209.000" stroke-width="4.169" stroke="black" fill="none" stroke-linecap="round"></path><path d="M 187.417,209.000 C 192.136,200.550 190.049,202.983 199.417,196.000" stroke-width="4.788" stroke="black" fill="none" stroke-linecap="round"></path><path d="M 199.417,196.000 C 209.450,192.588 208.136,190.550 219.417,189.000" stroke-width="2.842" stroke="black" fill="none" stroke-linecap="round"></path><path d="M 219.417,189.000 C 221.911,187.985 221.950,188.088 224.417,187.000" stroke-width="3.711" stroke="black" fill="none" stroke-linecap="round"></path><path d="M 224.417,187.000 C 236.077,182.860 235.911,182.485 247.417,178.000" stroke-width="2.590" stroke="black" fill="none" stroke-linecap="round"></path><path d="M 247.417,178.000 C 254.054,175.919 253.577,175.360 259.417,172.000" stroke-width="2.954" stroke="black" fill="none" stroke-linecap="round"></path><path d="M 259.417,172.000 C 266.009,164.983 267.054,166.419 273.417,159.000" stroke-width="2.733" stroke="black" fill="none" stroke-linecap="round"></path><path d="M 273.417,159.000 C 279.304,154.820 279.009,154.483 285.417,151.000" stroke-width="2.943" stroke="black" fill="none" stroke-linecap="round"></path><path d="M 285.417,151.000 C 291.430,147.522 291.304,147.320 297.417,144.000" stroke-width="2.990" stroke="black" fill="none" stroke-linecap="round"></path><path d="M 297.417,144.000 C 300.048,142.692 299.930,142.522 302.417,141.000" stroke-width="3.739" stroke="black" fill="none" stroke-linecap="round"></path><path d="M 302.417,141.000 C 306.993,137.594 307.048,137.692 311.417,134.000" stroke-width="4.058" stroke="black" fill="none" stroke-linecap="round"></path><path d="M 311.417,134.000 C 314.876,130.951 314.993,131.094 318.417,128.000" stroke-width="4.248" stroke="black" fill="none" stroke-linecap="round"></path><path d="M 318.417,128.000 C 323.612,123.219 320.876,125.951 323.417,124.000" stroke-width="4.562" stroke="black" fill="none" stroke-linecap="round"></path><path d="M 323.417,124.000 C 320.127,127.812 323.112,125.219 317.417,132.000" stroke-width="4.925" stroke="black" fill="none" stroke-linecap="round"></path><path d="M 317.417,132.000 C 314.673,136.375 314.627,136.312 312.417,141.000" stroke-width="3.767" stroke="black" fill="none" stroke-linecap="round"></path><path d="M 312.417,141.000 C 304.889,156.987 304.673,156.875 297.417,173.000" stroke-width="2.088" stroke="black" fill="none" stroke-linecap="round"></path><path d="M 297.417,173.000 C 294.324,179.458 294.389,179.487 291.417,186.000" stroke-width="2.681" stroke="black" fill="none" stroke-linecap="round"></path><path d="M 291.417,186.000 C 284.509,202.042 284.324,201.958 277.417,218.000" stroke-width="2.032" stroke="black" fill="none" stroke-linecap="round"></path><path d="M 277.417,218.000 C 274.465,224.523 274.509,224.542 271.417,231.000" stroke-width="2.559" stroke="black" fill="none" stroke-linecap="round"></path><path d="M 271.417,231.000 C 267.031,241.894 266.465,241.523 261.417,252.000" stroke-width="2.366" stroke="black" fill="none" stroke-linecap="round"></path><path d="M 261.417,252.000 C 259.279,255.358 259.531,255.394 256.417,258.000" stroke-width="3.243" stroke="black" fill="none" stroke-linecap="round"></path><path d="M 256.417,258.000 C 245.508,266.581 246.279,267.358 235.417,276.000" stroke-width="2.384" stroke="black" fill="none" stroke-linecap="round"></path><path d="M 235.417,276.000 C 231.069,281.145 230.508,280.581 226.417,286.000" stroke-width="2.818" stroke="black" fill="none" stroke-linecap="round"></path><path d="M 226.417,286.000 C 219.840,293.505 219.569,293.145 212.417,300.000" stroke-width="2.661" stroke="black" fill="none" stroke-linecap="round"></path><path d="M 212.417,300.000 C 207.259,303.297 207.840,304.005 202.417,307.000" stroke-width="3.062" stroke="black" fill="none" stroke-linecap="round"></path><path d="M 202.417,307.000 C 198.749,309.819 198.759,309.797 195.417,313.000" stroke-width="3.449" stroke="black" fill="none" stroke-linecap="round"></path><path d="M 195.417,313.000 C 188.338,320.993 187.749,320.319 180.417,328.000" stroke-width="2.727" stroke="black" fill="none" stroke-linecap="round"></path><path d="M 180.417,328.000 C 175.217,332.520 175.338,332.493 169.417,336.000" stroke-width="2.814" stroke="black" fill="none" stroke-linecap="round"></path><path d="M 169.417,336.000 C 164.968,338.126 165.217,338.520 160.417,340.000" stroke-width="3.250" stroke="black" fill="none" stroke-linecap="round"></path><path d="M 160.417,340.000 C 156.520,341.906 156.468,341.626 152.417,343.000" stroke-width="3.531" stroke="black" fill="none" stroke-linecap="round"></path><path d="M 152.417,343.000 C 148.911,343.462 149.020,343.906 145.417,344.000" stroke-width="3.782" stroke="black" fill="none" stroke-linecap="round"></path><path d="M 145.417,344.000 C 142.427,344.570 142.411,344.462 139.417,345.000" stroke-width="3.983" stroke="black" fill="none" stroke-linecap="round"></path><path d="M 139.417,345.000 C 135.430,345.713 135.427,345.570 131.417,346.000" stroke-width="3.864" stroke="black" fill="none" stroke-linecap="round"></path><path d="M 131.417,346.000 C 128.417,346.000 128.430,346.213 125.417,346.000" stroke-width="4.065" stroke="black" fill="none" stroke-linecap="round"></path><path d="M 125.417,346.000 C 121.098,347.052 121.417,346.000 117.417,346.000" stroke-width="4.378" stroke="black" fill="none" stroke-linecap="round"></path><path d="M 117.417,346.000 C 113.389,344.883 114.098,345.052 111.417,342.000" stroke-width="4.118" stroke="black" fill="none" stroke-linecap="round"></path><path d="M 111.417,342.000 C 107.865,334.524 106.889,335.383 104.417,327.000" stroke-width="3.067" stroke="black" fill="none" stroke-linecap="round"></path><path d="M 104.417,327.000 C 100.947,322.770 102.365,322.524 100.417,318.000" stroke-width="3.871" stroke="black" fill="none" stroke-linecap="round"></path><path d="M 100.417,318.000 C 99.948,308.815 99.447,309.270 101.417,300.000" stroke-width="2.923" stroke="black" fill="none" stroke-linecap="round"></path><path d="M 101.417,300.000 C 103.232,293.930 102.448,293.815 105.417,288.000" stroke-width="3.072" stroke="black" fill="none" stroke-linecap="round"></path><path d="M 105.417,288.000 C 105.947,283.823 106.732,284.430 108.417,281.000" stroke-width="3.599" stroke="black" fill="none" stroke-linecap="round"></path><path d="M 108.417,281.000 C 116.957,271.934 116.447,271.823 126.417,264.000" stroke-width="2.570" stroke="black" fill="none" stroke-linecap="round"></path><path d="M 126.417,264.000 C 132.840,259.384 132.457,258.934 139.417,255.000" stroke-width="2.746" stroke="black" fill="none" stroke-linecap="round"></path><path d="M 139.417,255.000 C 144.404,250.374 144.840,251.384 150.417,248.000" stroke-width="3.088" stroke="black" fill="none" stroke-linecap="round"></path><path d="M 150.417,248.000 C 163.757,243.152 163.404,242.874 177.417,240.000" stroke-width="2.270" stroke="black" fill="none" stroke-linecap="round"></path><path d="M 177.417,240.000 C 183.449,239.770 183.257,238.652 189.417,239.000" stroke-width="2.900" stroke="black" fill="none" stroke-linecap="round"></path><path d="M 189.417,239.000 C 198.865,237.005 198.949,237.770 208.417,236.000" stroke-width="2.771" stroke="black" fill="none" stroke-linecap="round"></path><path d="M 208.417,236.000 C 217.939,235.768 217.865,235.005 227.417,235.000" stroke-width="2.627" stroke="black" fill="none" stroke-linecap="round"></path><path d="M 227.417,235.000 C 236.407,233.901 236.439,234.268 245.417,233.000" stroke-width="2.635" stroke="black" fill="none" stroke-linecap="round"></path><path d="M 245.417,233.000 C 251.454,232.795 251.407,232.401 257.417,232.000" stroke-width="3.063" stroke="black" fill="none" stroke-linecap="round"></path><path d="M 257.417,232.000 C 266.501,230.891 266.454,230.795 275.417,229.000" stroke-width="2.809" stroke="black" fill="none" stroke-linecap="round"></path><path d="M 275.417,229.000 C 282.999,227.258 283.001,227.391 290.417,225.000" stroke-width="2.841" stroke="black" fill="none" stroke-linecap="round"></path><path d="M 290.417,225.000 C 294.502,223.702 294.499,223.758 298.417,222.000" stroke-width="3.373" stroke="black" fill="none" stroke-linecap="round"></path><path d="M 298.417,222.000 C 305.956,218.581 306.002,218.702 313.417,215.000" stroke-width="2.923" stroke="black" fill="none" stroke-linecap="round"></path><path d="M 313.417,215.000 C 318.466,212.593 318.456,212.581 323.417,210.000" stroke-width="3.285" stroke="black" fill="none" stroke-linecap="round"></path><path d="M 323.417,210.000 C 328.940,207.042 328.966,207.093 334.417,204.000" stroke-width="3.193" stroke="black" fill="none" stroke-linecap="round"></path><path d="M 334.417,204.000 C 337.917,202.000 337.940,202.042 341.417,200.000" stroke-width="4.034" stroke="black" fill="none" stroke-linecap="round"></path><path d="M 341.417,200.000 C 344.917,198.000 344.917,198.000 348.417,196.000" stroke-width="4.363" stroke="black" fill="none" stroke-linecap="round"></path></svg>