<svg xmlns="http://www.w3.org/2000/svg" xmlns:xlink="http://www.w3.org/1999/xlink" viewBox="0 0 664 416" width="664" height="416"><path d="M 220.417,277.000 C 216.976,275.712 216.917,276.000 213.417,275.000" stroke-width="5.284" stroke="black" fill="none" stroke-linecap="round"></path><path d="M 213.417,275.000 C 209.266,275.100 209.476,274.212 205.417,274.000" stroke-width="4.163" stroke="black" fill="none" stroke-linecap="round"></path><path d="M 205.417,274.000 C 197.760,273.156 198.766,272.100 192.417,269.000" stroke-width="3.415" stroke="black" fill="none" stroke-linecap="round"></path><path d="M 192.417,269.000 C 185.479,260.945 184.260,262.656 178.417,253.000" stroke-width="2.648" stroke="black" fill="none" stroke-linecap="round"></path><path d="M 178.417,253.000 C 172.388,248.217 173.479,247.445 168.417,242.000" stroke-width="2.770" stroke="black" fill="none" stroke-linecap="round"></path><path d="M 168.417,242.000 C 161.068,229.809 160.888,230.217 155.417,217.000" stroke-width="2.278" stroke="black" fill="none" stroke-linecap="round"></path><path d="M 155.417,217.000 C 153.683,212.535 153.568,212.809 153.417,208.000" stroke-width="3.090" stroke="black" fill="none" stroke-linecap="round"></path><path d="M 153.417,208.000 C 152.264,203.147 153.183,204.035 154.417,200.000" stroke-width="3.564" stroke="black" fill="none" stroke-linecap="round"></path><path d="M 154.417,200.000 C 159.064,192.134 158.764,193.647 166.417,189.000" stroke-width="2.983" stroke="black" fill="none" stroke-linecap="round"></path><path d="M 166.417,189.000 C 190.610,178.542 189.564,179.134 215.417,174.000" stroke-width="1.604" stroke="black" fill="none" stroke-linecap="round"></path><path d="M 215.417,174.000 C 226.435,174.823 226.110,172.042 237.417,176.000" stroke-width="2.069" stroke="black" fill="none" stroke-linecap="round"></path><path d="M 237.417,176.000 C 254.553,177.189 254.435,177.823 271.417,180.000" stroke-width="1.923" stroke="black" fill="none" stroke-linecap="round"></path><path d="M 271.417,180.000 C 287.518,183.114 287.553,182.689 303.417,187.000" stroke-width="1.922" stroke="black" fill="none" stroke-linecap="round"></path><path d="M 303.417,187.000 C 309.903,189.046 310.018,188.614 316.417,191.000" stroke-width="2.589" stroke="black" fill="none" stroke-linecap="round"></path><path d="M 316.417,191.000 C 320.804,190.694 319.903,192.046 323.417,193.000" stroke-width="3.406" stroke="black" fill="none" stroke-linecap="round"></path><path d="M 323.417,193.000 C 331.273,198.616 329.304,198.194 333.417,206.000" stroke-width="3.007" stroke="black" fill="none" stroke-linecap="round"></path><path d="M 333.417,206.000 C 334.733,215.508 335.773,214.116 332.417,224.000" stroke-width="2.807" stroke="black" fill="none" stroke-linecap="round"></path><path d="M 332.417,224.000 C 329.117,231.949 330.233,232.008 324.417,239.000" stroke-width="2.811" stroke="black" fill="none" stroke-linecap="round"></path><path d="M 324.417,239.000 C 316.699,249.746 317.117,249.949 308.417,260.000" stroke-width="2.221" stroke="black" fill="none" stroke-linecap="round"></path><path d="M 308.417,260.000 C 301.240,265.871 306.199,262.746 303.417,265.000" stroke-width="3.504" stroke="black" fill="none" stroke-linecap="round"></path><path d="M 303.417,265.000 C 318.011,256.573 313.740,260.871 333.417,250.000" stroke-width="2.971" stroke="black" fill="none" stroke-linecap="round"></path><path d="M 333.417,250.000 C 355.231,238.910 355.511,240.573 378.417,233.000" stroke-width="1.668" stroke="black" fill="none" stroke-linecap="round"></path><path d="M 378.417,233.000 C 406.810,227.406 406.231,225.910 435.417,224.000" stroke-width="1.376" stroke="black" fill="none" stroke-linecap="round"></path><path d="M 435.417,224.000 C 448.922,223.000 448.810,222.406 462.417,223.000" stroke-width="1.810" stroke="black" fill="none" stroke-linecap="round"></path><path d="M 462.417,223.000 C 470.988,222.946 470.922,223.000 479.417,224.000" stroke-width="2.366" stroke="black" fill="none" stroke-linecap="round"></path><path d="M 479.417,224.000 C 487.213,224.708 486.988,224.946 494.417,227.000" stroke-width="2.701" stroke="black" fill="none" stroke-linecap="round"></path><path d="M 494.417,227.000 C 498.073,228.771 498.213,228.208 501.417,231.000" stroke-width="3.395" stroke="black" fill="none" stroke-linecap="round"></path><path d="M 501.417,231.000 C 503.577,233.967 504.073,232.771 506.417,235.000" stroke-width="4.220" stroke="black" fill="none" stroke-linecap="round"></path><path d="M 506.417,235.000 C 509.529,235.619 509.077,235.967 512.417,235.000" stroke-width="4.569" stroke="black" fill="none" stroke-linecap="round"></path></svg>