<svg xmlns="http://www.w3.org/2000/svg" xmlns:xlink="http://www.w3.org/1999/xlink" viewBox="0 0 464 392" width="464" height="392"><path d="M 285.000,227.000 C 279.672,230.015 279.500,229.500 274.000,232.000" stroke-width="5.099" stroke="black" fill="none" stroke-linecap="round"></path><path d="M 274.000,232.000 C 269.427,232.735 269.672,233.515 265.000,234.000" stroke-width="3.988" stroke="black" fill="none" stroke-linecap="round"></path><path d="M 265.000,234.000 C 259.180,236.934 258.927,235.735 253.000,238.000" stroke-width="3.421" stroke="black" fill="none" stroke-linecap="round"></path><path d="M 253.000,238.000 C 244.504,238.630 244.680,239.434 236.000,239.000" stroke-width="2.902" stroke="black" fill="none" stroke-linecap="round"></path><path d="M 236.000,239.000 C 232.921,239.487 233.004,239.130 230.000,239.000" stroke-width="3.713" stroke="black" fill="none" stroke-linecap="round"></path><path d="M 230.000,239.000 C 226.851,238.342 226.921,238.487 224.000,237.000" stroke-width="4.017" stroke="black" fill="none" stroke-linecap="round"></path><path d="M 224.000,237.000 C 218.193,234.462 218.351,234.342 213.000,231.000" stroke-width="3.438" stroke="black" fill="none" stroke-linecap="round"></path><path d="M 213.000,231.000 C 207.942,227.070 207.693,227.462 203.000,223.000" stroke-width="3.274" stroke="black" fill="none" stroke-linecap="round"></path><path d="M 203.000,223.000 C 198.764,220.636 199.442,220.070 196.000,217.000" stroke-width="3.475" stroke="black" fill="none" stroke-linecap="round"></path><path d="M 196.000,217.000 C 188.837,207.997 189.264,208.136 184.000,198.000" stroke-width="2.665" stroke="black" fill="none" stroke-linecap="round"></path><path d="M 184.000,198.000 C 181.794,192.087 181.337,192.497 181.000,186.000" stroke-width="3.001" stroke="black" fill="none" stroke-linecap="round"></path><path d="M 181.000,186.000 C 179.652,180.281 180.294,180.587 181.000,175.000" stroke-width="3.279" stroke="black" fill="none" stroke-linecap="round"></path><path d="M 181.000,175.000 C 182.770,153.260 185.652,156.781 193.000,139.000" stroke-width="2.715" stroke="black" fill="none" stroke-linecap="round"></path><path d="M 193.000,139.000 C 203.100,132.815 199.270,130.260 214.000,129.000" stroke-width="2.468" stroke="black" fill="none" stroke-linecap="round"></path><path d="M 214.000,129.000 C 223.403,126.066 223.100,125.815 233.000,125.000" stroke-width="2.519" stroke="black" fill="none" stroke-linecap="round"></path><path d="M 233.000,125.000 C 241.565,124.256 241.403,124.066 250.000,125.000" stroke-width="2.717" stroke="black" fill="none" stroke-linecap="round"></path><path d="M 250.000,125.000 C 258.463,126.780 258.565,125.756 267.000,128.000" stroke-width="2.768" stroke="black" fill="none" stroke-linecap="round"></path><path d="M 267.000,128.000 C 272.550,128.182 272.463,128.780 278.000,129.000" stroke-width="3.138" stroke="black" fill="none" stroke-linecap="round"></path><path d="M 278.000,129.000 C 282.799,129.270 282.550,129.682 287.000,131.000" stroke-width="3.524" stroke="black" fill="none" stroke-linecap="round"></path><path d="M 287.000,131.000 C 291.730,132.730 291.299,132.770 295.000,136.000" stroke-width="3.589" stroke="black" fill="none" stroke-linecap="round"></path><path d="M 295.000,136.000 C 299.651,140.520 299.230,140.230 302.000,146.000" stroke-width="3.301" stroke="black" fill="none" stroke-linecap="round"></path><path d="M 302.000,146.000 C 303.385,151.465 304.151,151.020 304.000,157.000" stroke-width="3.308" stroke="black" fill="none" stroke-linecap="round"></path><path d="M 304.000,157.000 C 304.000,160.500 304.385,160.465 304.000,164.000" stroke-width="3.710" stroke="black" fill="none" stroke-linecap="round"></path><path d="M 304.000,164.000 C 302.544,168.603 304.000,168.000 304.000,172.000" stroke-width="4.455" stroke="black" fill="none" stroke-linecap="round"></path><path d="M 304.000,172.000 C 306.865,175.150 305.544,175.603 310.000,178.000" stroke-width="4.505" stroke="black" fill="none" stroke-linecap="round"></path><path d="M 310.000,178.000 C 313.227,179.439 312.365,180.150 315.000,182.000" stroke-width="4.152" stroke="black" fill="none" stroke-linecap="round"></path><path d="M 315.000,182.000 C 317.455,186.364 317.727,185.939 319.000,191.000" stroke-width="4.277" stroke="black" fill="none" stroke-linecap="round"></path><path d="M 319.000,191.000 C 319.471,194.005 319.955,193.864 320.000,197.000" stroke-width="4.134" stroke="black" fill="none" stroke-linecap="round"></path><path d="M 320.000,197.000 C 320.534,202.626 320.971,202.505 322.000,208.000" stroke-width="4.224" stroke="black" fill="none" stroke-linecap="round"></path><path d="M 322.000,208.000 C 323.631,213.671 323.534,213.626 326.000,219.000" stroke-width="3.618" stroke="black" fill="none" stroke-linecap="round"></path><path d="M 326.000,219.000 C 328.090,222.452 327.631,222.671 330.000,226.000" stroke-width="3.754" stroke="black" fill="none" stroke-linecap="round"></path><path d="M 330.000,226.000 C 331.193,229.190 331.590,228.952 333.000,232.000" stroke-width="3.898" stroke="black" fill="none" stroke-linecap="round"></path><path d="M 333.000,232.000 C 335.190,236.882 335.693,236.190 339.000,240.000" stroke-width="3.642" stroke="black" fill="none" stroke-linecap="round"></path><path d="M 339.000,240.000 C 346.912,245.147 346.190,245.882 355.000,250.000" stroke-width="2.899" stroke="black" fill="none" stroke-linecap="round"></path><path d="M 355.000,250.000 C 361.715,254.638 361.912,254.147 369.000,258.000" stroke-width="2.830" stroke="black" fill="none" stroke-linecap="round"></path><path d="M 369.000,258.000 C 374.896,261.469 374.715,260.638 381.000,262.000" stroke-width="3.096" stroke="black" fill="none" stroke-linecap="round"></path><path d="M 381.000,262.000 C 388.156,263.549 386.396,262.469 392.000,260.000" stroke-width="3.813" stroke="black" fill="none" stroke-linecap="round"></path><path d="M 392.000,260.000 C 400.869,249.678 401.156,251.549 407.000,238.000" stroke-width="2.438" stroke="black" fill="none" stroke-linecap="round"></path><path d="M 407.000,238.000 C 410.364,229.106 411.369,229.678 413.000,220.000" stroke-width="2.588" stroke="black" fill="none" stroke-linecap="round"></path><path d="M 413.000,220.000 C 415.424,209.980 415.864,210.106 418.000,200.000" stroke-width="2.496" stroke="black" fill="none" stroke-linecap="round"></path><path d="M 418.000,200.000 C 419.618,194.528 419.424,194.480 421.000,189.000" stroke-width="3.048" stroke="black" fill="none" stroke-linecap="round"></path><path d="M 421.000,189.000 C 421.747,182.734 421.618,186.528 422.000,184.000" stroke-width="4.120" stroke="black" fill="none" stroke-linecap="round"></path><path d="M 422.000,184.000 C 423.467,191.526 422.747,187.734 423.000,199.000" stroke-width="4.300" stroke="black" fill="none" stroke-linecap="round"></path><path d="M 423.000,199.000 C 421.062,215.508 421.967,215.526 419.000,232.000" stroke-width="2.209" stroke="black" fill="none" stroke-linecap="round"></path><path d="M 419.000,232.000 C 417.359,239.457 418.062,239.508 417.000,247.000" stroke-width="2.695" stroke="black" fill="none" stroke-linecap="round"></path><path d="M 417.000,247.000 C 416.374,260.539 416.359,260.457 417.000,274.000" stroke-width="2.243" stroke="black" fill="none" stroke-linecap="round"></path><path d="M 417.000,274.000 C 417.483,282.109 417.374,282.039 419.000,290.000" stroke-width="2.658" stroke="black" fill="none" stroke-linecap="round"></path><path d="M 419.000,290.000 C 420.735,294.940 419.983,295.109 422.000,300.000" stroke-width="3.187" stroke="black" fill="none" stroke-linecap="round"></path><path d="M 422.000,300.000 C 423.943,306.953 423.735,306.940 425.000,314.000" stroke-width="3.092" stroke="black" fill="none" stroke-linecap="round"></path><path d="M 425.000,314.000 C 425.000,317.000 425.443,316.953 425.000,320.000" stroke-width="3.730" stroke="black" fill="none" stroke-linecap="round"></path><path d="M 425.000,320.000 C 424.473,323.101 425.000,323.000 425.000,326.000" stroke-width="4.801" stroke="black" fill="none" stroke-linecap="round"></path><path d="M 425.000,326.000 C 426.000,328.500 425.473,328.601 427.000,331.000" stroke-width="4.811" stroke="black" fill="none" stroke-linecap="round"></path></svg>