<svg xmlns="http://www.w3.org/2000/svg" xmlns:xlink="http://www.w3.org/1999/xlink" viewBox="0 0 367 392" width="367" height="392"><path d="M 258.000,167.000 C 255.656,169.229 255.500,169.000 253.000,171.000" stroke-width="5.381" stroke="black" fill="none" stroke-linecap="round"></path><path d="M 253.000,171.000 C 249.406,172.849 249.656,173.229 246.000,175.000" stroke-width="4.180" stroke="black" fill="none" stroke-linecap="round"></path><path d="M 246.000,175.000 C 240.172,179.297 239.906,178.849 234.000,183.000" stroke-width="3.243" stroke="black" fill="none" stroke-linecap="round"></path><path d="M 234.000,183.000 C 230.132,185.310 230.172,185.297 226.000,187.000" stroke-width="3.541" stroke="black" fill="none" stroke-linecap="round"></path><path d="M 226.000,187.000 C 218.985,189.460 219.132,189.810 212.000,192.000" stroke-width="3.079" stroke="black" fill="none" stroke-linecap="round"></path><path d="M 212.000,192.000 C 208.103,193.860 207.985,193.460 204.000,195.000" stroke-width="3.468" stroke="black" fill="none" stroke-linecap="round"></path><path d="M 204.000,195.000 C 198.826,195.492 199.103,196.360 194.000,197.000" stroke-width="3.501" stroke="black" fill="none" stroke-linecap="round"></path><path d="M 194.000,197.000 C 187.544,199.316 190.826,197.992 188.000,200.000" stroke-width="4.248" stroke="black" fill="none" stroke-linecap="round"></path><path d="M 188.000,200.000 C 192.073,199.411 188.544,200.816 196.000,200.000" stroke-width="4.895" stroke="black" fill="none" stroke-linecap="round"></path><path d="M 196.000,200.000 C 202.315,200.789 202.073,200.911 208.000,203.000" stroke-width="3.547" stroke="black" fill="none" stroke-linecap="round"></path><path d="M 208.000,203.000 C 211.087,204.881 211.315,204.289 214.000,207.000" stroke-width="3.772" stroke="black" fill="none" stroke-linecap="round"></path><path d="M 214.000,207.000 C 216.853,208.658 216.587,208.881 219.000,211.000" stroke-width="3.940" stroke="black" fill="none" stroke-linecap="round"></path><path d="M 219.000,211.000 C 221.952,215.037 222.353,214.658 225.000,219.000" stroke-width="3.593" stroke="black" fill="none" stroke-linecap="round"></path><path d="M 225.000,219.000 C 227.119,221.413 226.952,221.537 229.000,224.000" stroke-width="3.880" stroke="black" fill="none" stroke-linecap="round"></path><path d="M 229.000,224.000 C 230.777,227.171 231.119,226.913 233.000,230.000" stroke-width="3.878" stroke="black" fill="none" stroke-linecap="round"></path><path d="M 233.000,230.000 C 236.771,233.802 236.277,234.171 240.000,238.000" stroke-width="3.515" stroke="black" fill="none" stroke-linecap="round"></path><path d="M 240.000,238.000 C 241.384,240.576 241.771,240.302 243.000,243.000" stroke-width="3.919" stroke="black" fill="none" stroke-linecap="round"></path><path d="M 243.000,243.000 C 245.256,246.707 245.384,246.576 248.000,250.000" stroke-width="4.284" stroke="black" fill="none" stroke-linecap="round"></path><path d="M 248.000,250.000 C 250.772,252.277 250.256,252.707 253.000,255.000" stroke-width="4.538" stroke="black" fill="none" stroke-linecap="round"></path><path d="M 253.000,255.000 C 255.600,257.734 255.272,257.777 257.000,261.000" stroke-width="4.575" stroke="black" fill="none" stroke-linecap="round"></path><path d="M 257.000,261.000 C 258.492,264.939 258.600,264.734 259.000,269.000" stroke-width="4.865" stroke="black" fill="none" stroke-linecap="round"></path><path d="M 259.000,269.000 C 258.442,273.091 259.492,272.939 259.000,277.000" stroke-width="4.844" stroke="black" fill="none" stroke-linecap="round"></path><path d="M 259.000,277.000 C 258.652,281.555 259.442,280.091 261.000,283.000" stroke-width="5.120" stroke="black" fill="none" stroke-linecap="round"></path><path d="M 261.000,283.000 C 266.480,284.128 265.152,285.555 272.000,285.000" stroke-width="3.704" stroke="black" fill="none" stroke-linecap="round"></path><path d="M 272.000,285.000 C 276.143,284.972 275.980,285.628 280.000,286.000" stroke-width="3.729" stroke="black" fill="none" stroke-linecap="round"></path><path d="M 280.000,286.000 C 284.012,286.827 283.643,286.972 287.000,289.000" stroke-width="4.281" stroke="black" fill="none" stroke-linecap="round"></path><path d="M 287.000,289.000 C 289.608,291.217 289.512,290.827 291.000,294.000" stroke-width="4.934" stroke="black" fill="none" stroke-linecap="round"></path><path d="M 86.000,127.000 C 87.193,130.190 87.500,130.000 89.000,133.000" stroke-width="5.320" stroke="black" fill="none" stroke-linecap="round"></path><path d="M 89.000,133.000 C 92.043,136.968 91.693,137.190 95.000,141.000" stroke-width="4.576" stroke="black" fill="none" stroke-linecap="round"></path><path d="M 95.000,141.000 C 97.615,144.422 97.543,144.468 100.000,148.000" stroke-width="3.892" stroke="black" fill="none" stroke-linecap="round"></path><path d="M 100.000,148.000 C 104.236,155.194 104.615,154.922 109.000,162.000" stroke-width="3.093" stroke="black" fill="none" stroke-linecap="round"></path><path d="M 109.000,162.000 C 111.390,165.100 111.236,165.194 114.000,168.000" stroke-width="3.589" stroke="black" fill="none" stroke-linecap="round"></path><path d="M 114.000,168.000 C 116.099,169.909 115.890,170.100 118.000,172.000" stroke-width="4.009" stroke="black" fill="none" stroke-linecap="round"></path><path d="M 118.000,172.000 C 120.901,175.591 121.099,175.409 124.000,179.000" stroke-width="4.291" stroke="black" fill="none" stroke-linecap="round"></path><path d="M 124.000,179.000 C 126.463,180.695 125.901,181.091 128.000,183.000" stroke-width="4.983" stroke="black" fill="none" stroke-linecap="round"></path><path d="M 128.000,183.000 C 129.477,185.383 129.463,185.195 130.000,188.000" stroke-width="5.129" stroke="black" fill="none" stroke-linecap="round"></path><path d="M 130.000,188.000 C 131.758,193.202 130.977,192.883 131.000,198.000" stroke-width="5.250" stroke="black" fill="none" stroke-linecap="round"></path><path d="M 131.000,198.000 C 129.743,203.010 130.258,202.702 127.000,207.000" stroke-width="3.942" stroke="black" fill="none" stroke-linecap="round"></path><path d="M 127.000,207.000 C 123.624,210.634 124.243,211.010 120.000,214.000" stroke-width="3.663" stroke="black" fill="none" stroke-linecap="round"></path><path d="M 120.000,214.000 C 116.332,216.819 116.624,217.134 113.000,220.000" stroke-width="3.652" stroke="black" fill="none" stroke-linecap="round"></path><path d="M 113.000,220.000 C 104.954,227.052 105.332,227.319 98.000,235.000" stroke-width="2.831" stroke="black" fill="none" stroke-linecap="round"></path><path d="M 98.000,235.000 C 94.777,239.371 94.454,239.052 92.000,244.000" stroke-width="3.179" stroke="black" fill="none" stroke-linecap="round"></path><path d="M 92.000,244.000 C 90.723,247.129 90.277,246.871 89.000,250.000" stroke-width="3.690" stroke="black" fill="none" stroke-linecap="round"></path><path d="M 89.000,250.000 C 85.505,254.240 86.223,254.629 83.000,259.000" stroke-width="3.450" stroke="black" fill="none" stroke-linecap="round"></path><path d="M 83.000,259.000 C 80.917,263.968 80.505,263.740 79.000,269.000" stroke-width="3.498" stroke="black" fill="none" stroke-linecap="round"></path><path d="M 79.000,269.000 C 76.480,274.375 76.917,274.468 75.000,280.000" stroke-width="3.380" stroke="black" fill="none" stroke-linecap="round"></path><path d="M 75.000,280.000 C 74.251,283.984 73.980,283.875 74.000,288.000" stroke-width="3.624" stroke="black" fill="none" stroke-linecap="round"></path></svg>