<svg xmlns="http://www.w3.org/2000/svg" xmlns:xlink="http://www.w3.org/1999/xlink" viewBox="0 0 664 327" width="664" height="327"><path d="M 182.000,264.000 C 178.500,264.000 178.500,264.000 175.000,264.000" stroke-width="4.916" stroke="black" fill="none" stroke-linecap="round"></path><path d="M 175.000,264.000 C 167.459,264.533 167.500,264.000 160.000,264.000" stroke-width="4.102" stroke="black" fill="none" stroke-linecap="round"></path><path d="M 160.000,264.000 C 153.372,263.529 153.459,263.533 147.000,262.000" stroke-width="3.335" stroke="black" fill="none" stroke-linecap="round"></path><path d="M 147.000,262.000 C 140.279,261.167 140.872,260.529 135.000,258.000" stroke-width="3.257" stroke="black" fill="none" stroke-linecap="round"></path><path d="M 135.000,258.000 C 130.134,254.558 130.279,255.167 127.000,250.000" stroke-width="3.284" stroke="black" fill="none" stroke-linecap="round"></path><path d="M 127.000,250.000 C 123.890,246.183 124.634,246.558 124.000,242.000" stroke-width="3.543" stroke="black" fill="none" stroke-linecap="round"></path><path d="M 124.000,242.000 C 123.954,226.316 124.390,227.183 128.000,212.000" stroke-width="2.322" stroke="black" fill="none" stroke-linecap="round"></path><path d="M 128.000,212.000 C 130.718,202.282 130.454,203.316 137.000,196.000" stroke-width="2.523" stroke="black" fill="none" stroke-linecap="round"></path><path d="M 137.000,196.000 C 145.383,189.243 144.218,188.782 155.000,185.000" stroke-width="2.514" stroke="black" fill="none" stroke-linecap="round"></path><path d="M 155.000,185.000 C 178.982,170.507 179.383,174.243 205.000,166.000" stroke-width="1.574" stroke="black" fill="none" stroke-linecap="round"></path><path d="M 205.000,166.000 C 244.121,160.010 242.482,159.507 282.000,163.000" stroke-width="1.180" stroke="black" fill="none" stroke-linecap="round"></path><path d="M 282.000,163.000 C 300.522,168.933 301.121,164.510 319.000,175.000" stroke-width="1.426" stroke="black" fill="none" stroke-linecap="round"></path><path d="M 319.000,175.000 C 335.055,178.198 334.022,179.933 349.000,185.000" stroke-width="1.807" stroke="black" fill="none" stroke-linecap="round"></path><path d="M 349.000,185.000 C 355.532,189.218 355.555,188.198 360.000,195.000" stroke-width="2.462" stroke="black" fill="none" stroke-linecap="round"></path><path d="M 360.000,195.000 C 366.211,200.883 364.032,200.218 366.000,207.000" stroke-width="2.903" stroke="black" fill="none" stroke-linecap="round"></path><path d="M 366.000,207.000 C 364.807,217.087 365.711,215.383 359.000,224.000" stroke-width="2.629" stroke="black" fill="none" stroke-linecap="round"></path><path d="M 359.000,224.000 C 343.316,243.021 343.807,242.087 324.000,257.000" stroke-width="1.632" stroke="black" fill="none" stroke-linecap="round"></path><path d="M 324.000,257.000 C 304.285,270.158 305.316,270.521 283.000,279.000" stroke-width="1.541" stroke="black" fill="none" stroke-linecap="round"></path><path d="M 283.000,279.000 C 271.049,281.809 271.785,283.658 259.000,284.000" stroke-width="1.962" stroke="black" fill="none" stroke-linecap="round"></path><path d="M 259.000,284.000 C 254.514,284.749 254.549,284.809 250.000,285.000" stroke-width="2.910" stroke="black" fill="none" stroke-linecap="round"></path><path d="M 250.000,285.000 C 240.729,288.524 245.514,285.249 241.000,285.000" stroke-width="3.408" stroke="black" fill="none" stroke-linecap="round"></path><path d="M 241.000,285.000 C 239.437,259.563 242.229,269.024 253.000,246.000" stroke-width="2.764" stroke="black" fill="none" stroke-linecap="round"></path><path d="M 253.000,246.000 C 285.166,223.286 278.937,220.063 320.000,206.000" stroke-width="1.243" stroke="black" fill="none" stroke-linecap="round"></path><path d="M 320.000,206.000 C 352.065,189.009 351.666,190.286 386.000,180.000" stroke-width="1.125" stroke="black" fill="none" stroke-linecap="round"></path><path d="M 386.000,180.000 C 409.720,175.642 408.565,174.009 433.000,176.000" stroke-width="1.305" stroke="black" fill="none" stroke-linecap="round"></path><path d="M 433.000,176.000 C 442.362,177.678 442.220,176.142 451.000,181.000" stroke-width="2.036" stroke="black" fill="none" stroke-linecap="round"></path><path d="M 451.000,181.000 C 455.444,182.991 455.362,182.678 459.000,186.000" stroke-width="2.897" stroke="black" fill="none" stroke-linecap="round"></path><path d="M 459.000,186.000 C 461.390,189.100 461.944,188.491 464.000,192.000" stroke-width="3.870" stroke="black" fill="none" stroke-linecap="round"></path><path d="M 464.000,192.000 C 465.545,194.700 465.890,194.100 468.000,196.000" stroke-width="4.479" stroke="black" fill="none" stroke-linecap="round"></path><path d="M 468.000,196.000 C 474.232,199.943 474.045,199.200 481.000,201.000" stroke-width="3.408" stroke="black" fill="none" stroke-linecap="round"></path><path d="M 481.000,201.000 C 490.534,201.541 490.232,202.443 500.000,201.000" stroke-width="2.776" stroke="black" fill="none" stroke-linecap="round"></path><path d="M 500.000,201.000 C 508.060,200.323 508.034,200.541 516.000,199.000" stroke-width="2.853" stroke="black" fill="none" stroke-linecap="round"></path></svg>