<svg xmlns="http://www.w3.org/2000/svg" xmlns:xlink="http://www.w3.org/1999/xlink" viewBox="0 0 477 416" width="477" height="416"><path d="M 259.000,282.000 C 235.812,281.952 237.500,278.500 216.000,275.000" stroke-width="4.576" stroke="black" fill="none" stroke-linecap="round"></path><path d="M 216.000,275.000 C 207.354,269.682 207.312,271.952 202.000,262.000" stroke-width="3.032" stroke="black" fill="none" stroke-linecap="round"></path><path d="M 202.000,262.000 C 194.476,252.544 195.854,253.182 193.000,242.000" stroke-width="2.538" stroke="black" fill="none" stroke-linecap="round"></path><path d="M 193.000,242.000 C 192.924,226.831 190.976,227.544 195.000,212.000" stroke-width="2.099" stroke="black" fill="none" stroke-linecap="round"></path><path d="M 195.000,212.000 C 195.462,200.774 196.424,201.831 200.000,192.000" stroke-width="2.391" stroke="black" fill="none" stroke-linecap="round"></path><path d="M 200.000,192.000 C 204.563,186.883 202.962,186.274 210.000,183.000" stroke-width="2.820" stroke="black" fill="none" stroke-linecap="round"></path><path d="M 210.000,183.000 C 215.031,178.613 215.063,179.383 221.000,177.000" stroke-width="3.150" stroke="black" fill="none" stroke-linecap="round"></path><path d="M 221.000,177.000 C 234.120,172.714 233.531,173.613 247.000,173.000" stroke-width="2.426" stroke="black" fill="none" stroke-linecap="round"></path><path d="M 247.000,173.000 C 256.723,174.908 256.620,173.214 266.000,178.000" stroke-width="2.551" stroke="black" fill="none" stroke-linecap="round"></path><path d="M 266.000,178.000 C 271.089,178.783 270.223,179.408 274.000,182.000" stroke-width="3.209" stroke="black" fill="none" stroke-linecap="round"></path><path d="M 274.000,182.000 C 281.547,189.896 280.589,189.283 285.000,199.000" stroke-width="2.731" stroke="black" fill="none" stroke-linecap="round"></path><path d="M 285.000,199.000 C 286.416,205.334 287.047,204.396 285.000,211.000" stroke-width="3.052" stroke="black" fill="none" stroke-linecap="round"></path><path d="M 285.000,211.000 C 282.088,217.045 283.416,217.334 279.000,223.000" stroke-width="3.057" stroke="black" fill="none" stroke-linecap="round"></path><path d="M 279.000,223.000 C 268.537,237.795 275.088,230.545 271.000,238.000" stroke-width="2.882" stroke="black" fill="none" stroke-linecap="round"></path><path d="M 271.000,238.000 C 280.281,229.505 274.537,238.295 291.000,224.000" stroke-width="3.651" stroke="black" fill="none" stroke-linecap="round"></path><path d="M 291.000,224.000 C 299.293,220.354 298.781,220.005 308.000,219.000" stroke-width="2.973" stroke="black" fill="none" stroke-linecap="round"></path><path d="M 308.000,219.000 C 322.028,217.411 321.793,216.854 336.000,217.000" stroke-width="2.254" stroke="black" fill="none" stroke-linecap="round"></path><path d="M 336.000,217.000 C 339.982,215.982 339.028,216.911 342.000,218.000" stroke-width="3.338" stroke="black" fill="none" stroke-linecap="round"></path><path d="M 342.000,218.000 C 349.095,224.866 347.982,223.982 352.000,233.000" stroke-width="3.516" stroke="black" fill="none" stroke-linecap="round"></path><path d="M 352.000,233.000 C 352.359,239.536 354.095,238.866 352.000,246.000" stroke-width="3.337" stroke="black" fill="none" stroke-linecap="round"></path><path d="M 352.000,246.000 C 349.631,249.327 351.859,248.536 351.000,251.000" stroke-width="4.270" stroke="black" fill="none" stroke-linecap="round"></path><path d="M 351.000,251.000 C 355.497,255.255 354.131,254.827 361.000,257.000" stroke-width="3.632" stroke="black" fill="none" stroke-linecap="round"></path><path d="M 361.000,257.000 C 376.400,261.018 375.997,261.755 392.000,264.000" stroke-width="2.202" stroke="black" fill="none" stroke-linecap="round"></path><path d="M 392.000,264.000 C 410.956,265.685 410.400,267.518 429.000,270.000" stroke-width="1.869" stroke="black" fill="none" stroke-linecap="round"></path><path d="M 429.000,270.000 C 433.850,272.036 433.956,271.185 438.000,275.000" stroke-width="2.739" stroke="black" fill="none" stroke-linecap="round"></path></svg>