<svg xmlns="http://www.w3.org/2000/svg" xmlns:xlink="http://www.w3.org/1999/xlink" viewBox="0 0 664 314" width="664" height="314"><path d="M 125.000,191.000 C 121.500,191.000 121.500,191.000 118.000,191.000" stroke-width="5.025" stroke="black" fill="none" stroke-linecap="round"></path><path d="M 118.000,191.000 C 114.931,191.517 115.000,191.000 112.000,191.000" stroke-width="4.385" stroke="black" fill="none" stroke-linecap="round"></path><path d="M 112.000,191.000 C 106.437,189.709 106.431,190.017 101.000,188.000" stroke-width="3.552" stroke="black" fill="none" stroke-linecap="round"></path><path d="M 101.000,188.000 C 88.558,184.903 88.937,184.209 77.000,180.000" stroke-width="2.537" stroke="black" fill="none" stroke-linecap="round"></path><path d="M 77.000,180.000 C 72.083,177.455 72.058,177.903 68.000,174.000" stroke-width="3.008" stroke="black" fill="none" stroke-linecap="round"></path><path d="M 68.000,174.000 C 65.194,171.931 65.583,171.955 64.000,169.000" stroke-width="3.725" stroke="black" fill="none" stroke-linecap="round"></path><path d="M 64.000,169.000 C 57.324,157.695 59.694,158.431 57.000,147.000" stroke-width="3.564" stroke="black" fill="none" stroke-linecap="round"></path><path d="M 57.000,147.000 C 57.620,138.840 56.824,141.195 63.000,136.000" stroke-width="3.330" stroke="black" fill="none" stroke-linecap="round"></path><path d="M 63.000,136.000 C 96.459,109.000 93.620,119.840 129.000,109.000" stroke-width="2.291" stroke="black" fill="none" stroke-linecap="round"></path><path d="M 129.000,109.000 C 163.563,116.147 156.959,109.000 184.000,136.000" stroke-width="2.554" stroke="black" fill="none" stroke-linecap="round"></path><path d="M 184.000,136.000 C 194.759,157.066 198.563,150.147 199.000,177.000" stroke-width="2.951" stroke="black" fill="none" stroke-linecap="round"></path><path d="M 199.000,177.000 C 196.439,179.951 199.759,180.566 194.000,183.000" stroke-width="3.486" stroke="black" fill="none" stroke-linecap="round"></path><path d="M 194.000,183.000 C 187.514,198.874 184.439,194.951 175.000,207.000" stroke-width="2.229" stroke="black" fill="none" stroke-linecap="round"></path><path d="M 175.000,207.000 C 146.240,221.121 149.014,223.874 117.000,233.000" stroke-width="2.115" stroke="black" fill="none" stroke-linecap="round"></path><path d="M 117.000,233.000 C 111.454,234.362 114.240,234.121 111.000,233.000" stroke-width="3.535" stroke="black" fill="none" stroke-linecap="round"></path><path d="M 111.000,233.000 C 111.850,228.685 110.454,231.362 115.000,227.000" stroke-width="3.768" stroke="black" fill="none" stroke-linecap="round"></path><path d="M 115.000,227.000 C 155.485,205.354 154.850,205.685 197.000,187.000" stroke-width="2.079" stroke="black" fill="none" stroke-linecap="round"></path><path d="M 197.000,187.000 C 203.443,185.257 202.985,184.354 210.000,185.000" stroke-width="2.695" stroke="black" fill="none" stroke-linecap="round"></path><path d="M 210.000,185.000 C 229.000,185.000 228.943,184.257 248.000,185.000" stroke-width="2.169" stroke="black" fill="none" stroke-linecap="round"></path><path d="M 248.000,185.000 C 253.500,185.000 253.500,185.000 259.000,185.000" stroke-width="2.913" stroke="black" fill="none" stroke-linecap="round"></path><path d="M 259.000,185.000 C 266.032,184.519 266.000,185.000 273.000,185.000" stroke-width="2.973" stroke="black" fill="none" stroke-linecap="round"></path><path d="M 273.000,185.000 C 280.497,186.021 280.532,185.519 288.000,187.000" stroke-width="3.031" stroke="black" fill="none" stroke-linecap="round"></path><path d="M 288.000,187.000 C 291.987,187.713 291.997,187.521 296.000,188.000" stroke-width="3.495" stroke="black" fill="none" stroke-linecap="round"></path><path d="M 296.000,188.000 C 299.019,187.702 298.987,188.213 302.000,188.000" stroke-width="3.934" stroke="black" fill="none" stroke-linecap="round"></path><path d="M 302.000,188.000 C 313.957,190.197 314.019,189.202 326.000,191.000" stroke-width="2.572" stroke="black" fill="none" stroke-linecap="round"></path><path d="M 326.000,191.000 C 336.500,191.000 336.457,191.697 347.000,191.000" stroke-width="3.098" stroke="black" fill="none" stroke-linecap="round"></path><path d="M 347.000,191.000 C 353.584,190.260 353.500,191.000 360.000,191.000" stroke-width="3.102" stroke="black" fill="none" stroke-linecap="round"></path><path d="M 360.000,191.000 C 367.218,191.109 366.584,191.760 373.000,194.000" stroke-width="3.137" stroke="black" fill="none" stroke-linecap="round"></path><path d="M 373.000,194.000 C 376.879,201.025 378.218,196.609 382.000,202.000" stroke-width="4.348" stroke="black" fill="none" stroke-linecap="round"></path><path d="M 382.000,202.000 C 387.946,199.816 387.379,203.025 394.000,198.000" stroke-width="4.921" stroke="black" fill="none" stroke-linecap="round"></path><path d="M 394.000,198.000 C 397.990,196.959 397.946,196.816 402.000,196.000" stroke-width="4.007" stroke="black" fill="none" stroke-linecap="round"></path><path d="M 402.000,196.000 C 420.880,190.884 420.990,191.459 440.000,187.000" stroke-width="2.061" stroke="black" fill="none" stroke-linecap="round"></path><path d="M 440.000,187.000 C 453.084,185.450 452.880,184.384 466.000,183.000" stroke-width="2.162" stroke="black" fill="none" stroke-linecap="round"></path><path d="M 466.000,183.000 C 481.925,179.102 482.084,179.950 498.000,176.000" stroke-width="1.931" stroke="black" fill="none" stroke-linecap="round"></path><path d="M 498.000,176.000 C 510.544,174.236 510.425,173.602 523.000,172.000" stroke-width="2.097" stroke="black" fill="none" stroke-linecap="round"></path><path d="M 523.000,172.000 C 530.005,170.521 530.044,170.736 537.000,169.000" stroke-width="2.640" stroke="black" fill="none" stroke-linecap="round"></path><path d="M 537.000,169.000 C 541.467,167.824 541.505,168.021 546.000,167.000" stroke-width="3.272" stroke="black" fill="none" stroke-linecap="round"></path><path d="M 546.000,167.000 C 552.495,165.964 552.467,165.824 559.000,165.000" stroke-width="3.141" stroke="black" fill="none" stroke-linecap="round"></path><path d="M 559.000,165.000 C 565.969,163.562 565.995,163.964 573.000,163.000" stroke-width="3.031" stroke="black" fill="none" stroke-linecap="round"></path><path d="M 573.000,163.000 C 578.500,163.000 578.469,162.562 584.000,163.000" stroke-width="3.290" stroke="black" fill="none" stroke-linecap="round"></path></svg>