<svg xmlns="http://www.w3.org/2000/svg" xmlns:xlink="http://www.w3.org/1999/xlink" viewBox="0 0 664 304" width="664" height="304"><path d="M 360.000,232.000 C 348.995,234.000 349.000,233.000 338.000,234.000" stroke-width="3.830" stroke="black" fill="none" stroke-linecap="round"></path><path d="M 338.000,234.000 C 327.521,234.874 327.995,234.000 318.000,232.000" stroke-width="2.858" stroke="black" fill="none" stroke-linecap="round"></path><path d="M 318.000,232.000 C 301.132,225.700 301.021,226.874 285.000,218.000" stroke-width="2.033" stroke="black" fill="none" stroke-linecap="round"></path><path d="M 285.000,218.000 C 278.747,215.381 279.132,215.200 274.000,211.000" stroke-width="2.722" stroke="black" fill="none" stroke-linecap="round"></path><path d="M 274.000,211.000 C 265.662,203.084 265.747,203.381 259.000,194.000" stroke-width="2.365" stroke="black" fill="none" stroke-linecap="round"></path><path d="M 259.000,194.000 C 254.887,187.737 254.662,188.084 252.000,181.000" stroke-width="2.830" stroke="black" fill="none" stroke-linecap="round"></path><path d="M 252.000,181.000 C 249.638,176.977 250.387,177.237 250.000,173.000" stroke-width="3.395" stroke="black" fill="none" stroke-linecap="round"></path><path d="M 250.000,173.000 C 251.246,165.714 250.638,165.977 254.000,159.000" stroke-width="3.131" stroke="black" fill="none" stroke-linecap="round"></path><path d="M 254.000,159.000 C 256.334,143.332 259.246,146.214 266.000,134.000" stroke-width="2.294" stroke="black" fill="none" stroke-linecap="round"></path><path d="M 266.000,134.000 C 287.346,115.420 285.334,115.332 312.000,103.000" stroke-width="1.566" stroke="black" fill="none" stroke-linecap="round"></path><path d="M 312.000,103.000 C 353.928,76.798 353.846,81.920 399.000,67.000" stroke-width="1.125" stroke="black" fill="none" stroke-linecap="round"></path><path d="M 399.000,67.000 C 436.780,63.192 434.428,59.298 473.000,68.000" stroke-width="1.125" stroke="black" fill="none" stroke-linecap="round"></path><path d="M 473.000,68.000 C 492.423,75.223 493.280,70.692 512.000,82.000" stroke-width="1.338" stroke="black" fill="none" stroke-linecap="round"></path><path d="M 512.000,82.000 C 531.371,88.960 531.423,88.723 551.000,95.000" stroke-width="1.496" stroke="black" fill="none" stroke-linecap="round"></path><path d="M 551.000,95.000 C 563.093,93.014 557.371,96.960 564.000,98.000" stroke-width="2.366" stroke="black" fill="none" stroke-linecap="round"></path><path d="M 564.000,98.000 C 566.025,116.209 566.093,109.514 557.000,128.000" stroke-width="2.747" stroke="black" fill="none" stroke-linecap="round"></path><path d="M 557.000,128.000 C 530.092,154.165 535.025,156.709 502.000,179.000" stroke-width="1.278" stroke="black" fill="none" stroke-linecap="round"></path><path d="M 502.000,179.000 C 461.120,215.290 461.092,215.165 419.000,250.000" stroke-width="1.125" stroke="black" fill="none" stroke-linecap="round"></path><path d="M 419.000,250.000 C 406.976,259.743 407.120,259.790 394.000,268.000" stroke-width="1.403" stroke="black" fill="none" stroke-linecap="round"></path><path d="M 394.000,268.000 C 379.292,283.301 379.476,277.243 364.000,285.000" stroke-width="1.693" stroke="black" fill="none" stroke-linecap="round"></path><path d="M 364.000,285.000 C 349.133,281.728 352.292,286.301 340.000,274.000" stroke-width="2.493" stroke="black" fill="none" stroke-linecap="round"></path><path d="M 340.000,274.000 C 335.448,267.750 336.133,270.728 338.000,263.000" stroke-width="3.061" stroke="black" fill="none" stroke-linecap="round"></path><path d="M 338.000,263.000 C 354.064,231.813 353.448,234.250 376.000,207.000" stroke-width="1.393" stroke="black" fill="none" stroke-linecap="round"></path><path d="M 376.000,207.000 C 386.847,199.015 384.564,197.313 399.000,194.000" stroke-width="1.834" stroke="black" fill="none" stroke-linecap="round"></path><path d="M 399.000,194.000 C 418.714,186.157 418.347,186.015 439.000,181.000" stroke-width="1.626" stroke="black" fill="none" stroke-linecap="round"></path><path d="M 439.000,181.000 C 448.528,179.395 448.214,178.657 458.000,179.000" stroke-width="2.267" stroke="black" fill="none" stroke-linecap="round"></path></svg>