<svg xmlns="http://www.w3.org/2000/svg" xmlns:xlink="http://www.w3.org/1999/xlink" viewBox="0 0 664 314" width="664" height="314"><path d="M 195.000,195.000 C 190.932,194.210 191.000,194.000 187.000,193.000" stroke-width="5.324" stroke="black" fill="none" stroke-linecap="round"></path><path d="M 187.000,193.000 C 184.401,192.200 184.432,192.210 182.000,191.000" stroke-width="4.491" stroke="black" fill="none" stroke-linecap="round"></path><path d="M 182.000,191.000 C 179.638,189.199 179.401,189.700 177.000,188.000" stroke-width="4.227" stroke="black" fill="none" stroke-linecap="round"></path><path d="M 177.000,188.000 C 173.899,187.243 174.138,186.699 171.000,186.000" stroke-width="4.088" stroke="black" fill="none" stroke-linecap="round"></path><path d="M 171.000,186.000 C 167.051,183.890 166.899,184.243 163.000,182.000" stroke-width="4.319" stroke="black" fill="none" stroke-linecap="round"></path><path d="M 163.000,182.000 C 159.614,180.112 159.551,180.390 156.000,179.000" stroke-width="4.005" stroke="black" fill="none" stroke-linecap="round"></path><path d="M 156.000,179.000 C 152.911,178.832 153.114,178.112 150.000,178.000" stroke-width="4.101" stroke="black" fill="none" stroke-linecap="round"></path><path d="M 150.000,178.000 C 146.104,176.094 145.911,176.832 142.000,175.000" stroke-width="3.844" stroke="black" fill="none" stroke-linecap="round"></path><path d="M 142.000,175.000 C 135.500,175.500 138.604,174.094 135.000,174.000" stroke-width="4.348" stroke="black" fill="none" stroke-linecap="round"></path><path d="M 135.000,174.000 C 137.111,170.926 134.500,172.500 140.000,169.000" stroke-width="5.084" stroke="black" fill="none" stroke-linecap="round"></path><path d="M 140.000,169.000 C 143.650,167.787 143.111,166.926 147.000,166.000" stroke-width="4.121" stroke="black" fill="none" stroke-linecap="round"></path><path d="M 147.000,166.000 C 150.989,163.483 151.150,163.787 155.000,161.000" stroke-width="3.695" stroke="black" fill="none" stroke-linecap="round"></path><path d="M 155.000,161.000 C 161.610,157.167 161.489,156.983 168.000,153.000" stroke-width="3.083" stroke="black" fill="none" stroke-linecap="round"></path><path d="M 168.000,153.000 C 172.760,149.097 173.110,149.667 178.000,146.000" stroke-width="3.158" stroke="black" fill="none" stroke-linecap="round"></path><path d="M 178.000,146.000 C 184.000,143.000 183.760,142.597 190.000,140.000" stroke-width="3.148" stroke="black" fill="none" stroke-linecap="round"></path><path d="M 190.000,140.000 C 193.000,138.500 193.000,138.500 196.000,137.000" stroke-width="3.678" stroke="black" fill="none" stroke-linecap="round"></path><path d="M 196.000,137.000 C 199.069,135.628 199.000,135.500 202.000,134.000" stroke-width="3.920" stroke="black" fill="none" stroke-linecap="round"></path><path d="M 202.000,134.000 C 207.969,130.446 208.069,130.628 214.000,127.000" stroke-width="3.236" stroke="black" fill="none" stroke-linecap="round"></path><path d="M 214.000,127.000 C 218.611,124.682 218.469,124.446 223.000,122.000" stroke-width="3.419" stroke="black" fill="none" stroke-linecap="round"></path><path d="M 223.000,122.000 C 227.619,119.164 227.611,119.182 232.000,116.000" stroke-width="3.375" stroke="black" fill="none" stroke-linecap="round"></path><path d="M 232.000,116.000 C 236.655,112.676 236.619,112.664 241.000,109.000" stroke-width="3.369" stroke="black" fill="none" stroke-linecap="round"></path><path d="M 241.000,109.000 C 243.889,104.333 243.155,107.176 245.000,105.000" stroke-width="3.884" stroke="black" fill="none" stroke-linecap="round"></path><path d="M 245.000,105.000 C 246.863,108.721 246.389,105.833 246.000,112.000" stroke-width="4.833" stroke="black" fill="none" stroke-linecap="round"></path><path d="M 246.000,112.000 C 243.438,118.271 244.363,118.221 240.000,124.000" stroke-width="3.512" stroke="black" fill="none" stroke-linecap="round"></path><path d="M 240.000,124.000 C 236.867,127.905 237.438,128.271 234.000,132.000" stroke-width="3.533" stroke="black" fill="none" stroke-linecap="round"></path><path d="M 234.000,132.000 C 226.467,142.978 226.367,142.905 219.000,154.000" stroke-width="2.401" stroke="black" fill="none" stroke-linecap="round"></path><path d="M 219.000,154.000 C 216.205,158.650 215.967,158.478 213.000,163.000" stroke-width="2.998" stroke="black" fill="none" stroke-linecap="round"></path><path d="M 213.000,163.000 C 208.544,167.683 209.205,168.150 205.000,173.000" stroke-width="3.142" stroke="black" fill="none" stroke-linecap="round"></path><path d="M 205.000,173.000 C 199.595,183.437 198.544,182.683 193.000,193.000" stroke-width="2.560" stroke="black" fill="none" stroke-linecap="round"></path><path d="M 193.000,193.000 C 189.366,197.891 189.595,197.937 185.000,202.000" stroke-width="3.032" stroke="black" fill="none" stroke-linecap="round"></path><path d="M 185.000,202.000 C 180.202,205.163 180.866,205.891 176.000,209.000" stroke-width="3.259" stroke="black" fill="none" stroke-linecap="round"></path><path d="M 176.000,209.000 C 169.241,216.259 168.702,215.663 162.000,223.000" stroke-width="2.699" stroke="black" fill="none" stroke-linecap="round"></path><path d="M 162.000,223.000 C 154.714,229.769 154.741,229.759 147.000,236.000" stroke-width="2.625" stroke="black" fill="none" stroke-linecap="round"></path><path d="M 147.000,236.000 C 141.778,240.444 141.714,240.269 136.000,244.000" stroke-width="2.956" stroke="black" fill="none" stroke-linecap="round"></path><path d="M 136.000,244.000 C 128.781,248.708 128.778,248.444 121.000,252.000" stroke-width="2.725" stroke="black" fill="none" stroke-linecap="round"></path><path d="M 121.000,252.000 C 115.431,253.285 115.781,254.208 110.000,255.000" stroke-width="3.145" stroke="black" fill="none" stroke-linecap="round"></path><path d="M 110.000,255.000 C 106.000,256.500 105.931,256.285 102.000,258.000" stroke-width="3.541" stroke="black" fill="none" stroke-linecap="round"></path><path d="M 102.000,258.000 C 97.921,259.319 98.000,259.500 94.000,261.000" stroke-width="3.628" stroke="black" fill="none" stroke-linecap="round"></path><path d="M 94.000,261.000 C 91.000,262.500 90.921,262.319 88.000,264.000" stroke-width="4.288" stroke="black" fill="none" stroke-linecap="round"></path><path d="M 88.000,264.000 C 85.193,266.316 85.000,265.500 82.000,267.000" stroke-width="4.535" stroke="black" fill="none" stroke-linecap="round"></path><path d="M 82.000,267.000 C 77.807,267.816 78.193,267.816 74.000,267.000" stroke-width="4.530" stroke="black" fill="none" stroke-linecap="round"></path><path d="M 74.000,267.000 C 70.708,265.934 70.807,266.316 68.000,264.000" stroke-width="4.630" stroke="black" fill="none" stroke-linecap="round"></path><path d="M 68.000,264.000 C 62.439,261.434 63.708,260.934 60.000,257.000" stroke-width="4.361" stroke="black" fill="none" stroke-linecap="round"></path><path d="M 60.000,257.000 C 57.822,250.577 56.939,251.434 57.000,244.000" stroke-width="3.438" stroke="black" fill="none" stroke-linecap="round"></path><path d="M 57.000,244.000 C 54.934,237.752 56.322,238.577 57.000,233.000" stroke-width="3.364" stroke="black" fill="none" stroke-linecap="round"></path><path d="M 57.000,233.000 C 61.403,226.247 59.934,226.252 67.000,221.000" stroke-width="3.645" stroke="black" fill="none" stroke-linecap="round"></path><path d="M 67.000,221.000 C 69.871,219.174 69.403,218.747 73.000,218.000" stroke-width="3.862" stroke="black" fill="none" stroke-linecap="round"></path><path d="M 73.000,218.000 C 77.899,216.055 77.871,216.174 83.000,215.000" stroke-width="3.530" stroke="black" fill="none" stroke-linecap="round"></path><path d="M 83.000,215.000 C 92.481,213.360 92.399,213.055 102.000,212.000" stroke-width="2.855" stroke="black" fill="none" stroke-linecap="round"></path><path d="M 102.000,212.000 C 106.514,211.598 106.481,211.360 111.000,211.000" stroke-width="3.381" stroke="black" fill="none" stroke-linecap="round"></path><path d="M 111.000,211.000 C 113.985,210.393 114.014,210.598 117.000,210.000" stroke-width="3.880" stroke="black" fill="none" stroke-linecap="round"></path><path d="M 117.000,210.000 C 125.524,209.169 125.485,208.893 134.000,208.000" stroke-width="2.986" stroke="black" fill="none" stroke-linecap="round"></path><path d="M 134.000,208.000 C 140.057,207.251 140.024,207.169 146.000,206.000" stroke-width="3.185" stroke="black" fill="none" stroke-linecap="round"></path><path d="M 146.000,206.000 C 149.548,205.151 149.557,205.251 153.000,204.000" stroke-width="3.677" stroke="black" fill="none" stroke-linecap="round"></path><path d="M 153.000,204.000 C 160.006,201.518 160.048,201.651 167.000,199.000" stroke-width="3.176" stroke="black" fill="none" stroke-linecap="round"></path><path d="M 167.000,199.000 C 172.509,197.023 172.506,197.018 178.000,195.000" stroke-width="3.226" stroke="black" fill="none" stroke-linecap="round"></path><path d="M 178.000,195.000 C 182.145,193.814 182.009,193.523 186.000,192.000" stroke-width="3.523" stroke="black" fill="none" stroke-linecap="round"></path><path d="M 186.000,192.000 C 190.451,189.408 190.645,189.814 195.000,187.000" stroke-width="3.509" stroke="black" fill="none" stroke-linecap="round"></path><path d="M 195.000,187.000 C 198.824,184.539 198.951,184.908 203.000,183.000" stroke-width="3.631" stroke="black" fill="none" stroke-linecap="round"></path><path d="M 203.000,183.000 C 208.413,181.016 208.324,181.039 214.000,180.000" stroke-width="3.381" stroke="black" fill="none" stroke-linecap="round"></path><path d="M 214.000,180.000 C 219.490,179.290 219.413,179.016 225.000,179.000" stroke-width="3.401" stroke="black" fill="none" stroke-linecap="round"></path><path d="M 225.000,179.000 C 229.115,179.598 228.990,178.790 233.000,179.000" stroke-width="4.133" stroke="black" fill="none" stroke-linecap="round"></path><path d="M 233.000,179.000 C 235.471,177.920 235.615,178.598 238.000,177.000" stroke-width="4.186" stroke="black" fill="none" stroke-linecap="round"></path><path d="M 238.000,177.000 C 245.025,174.121 240.971,175.920 244.000,175.000" stroke-width="4.561" stroke="black" fill="none" stroke-linecap="round"></path><path d="M 244.000,175.000 C 237.797,179.601 241.525,177.121 231.000,183.000" stroke-width="4.985" stroke="black" fill="none" stroke-linecap="round"></path><path d="M 231.000,183.000 C 224.491,185.476 224.797,186.101 218.000,188.000" stroke-width="3.489" stroke="black" fill="none" stroke-linecap="round"></path><path d="M 218.000,188.000 C 215.351,188.717 215.491,188.976 213.000,190.000" stroke-width="3.963" stroke="black" fill="none" stroke-linecap="round"></path><path d="M 213.000,190.000 C 209.802,191.758 209.851,191.717 207.000,194.000" stroke-width="4.399" stroke="black" fill="none" stroke-linecap="round"></path><path d="M 207.000,194.000 C 204.416,195.639 204.802,195.758 203.000,198.000" stroke-width="4.687" stroke="black" fill="none" stroke-linecap="round"></path><path d="M 203.000,198.000 C 201.475,200.915 201.416,200.639 201.000,204.000" stroke-width="4.260" stroke="black" fill="none" stroke-linecap="round"></path><path d="M 201.000,204.000 C 199.029,208.670 200.475,207.415 201.000,211.000" stroke-width="4.711" stroke="black" fill="none" stroke-linecap="round"></path><path d="M 201.000,211.000 C 206.136,215.215 204.529,215.170 212.000,217.000" stroke-width="4.248" stroke="black" fill="none" stroke-linecap="round"></path><path d="M 212.000,217.000 C 217.993,217.666 217.636,218.715 224.000,218.000" stroke-width="3.531" stroke="black" fill="none" stroke-linecap="round"></path><path d="M 224.000,218.000 C 227.021,218.248 226.993,218.166 230.000,218.000" stroke-width="3.947" stroke="black" fill="none" stroke-linecap="round"></path><path d="M 230.000,218.000 C 233.055,217.736 233.021,217.748 236.000,217.000" stroke-width="4.036" stroke="black" fill="none" stroke-linecap="round"></path><path d="M 236.000,217.000 C 240.945,215.264 241.055,215.736 246.000,214.000" stroke-width="3.691" stroke="black" fill="none" stroke-linecap="round"></path><path d="M 246.000,214.000 C 249.041,213.683 248.945,213.264 252.000,213.000" stroke-width="4.036" stroke="black" fill="none" stroke-linecap="round"></path><path d="M 252.000,213.000 C 255.956,212.775 255.541,212.183 259.000,211.000" stroke-width="3.915" stroke="black" fill="none" stroke-linecap="round"></path><path d="M 259.000,211.000 C 261.826,208.767 261.956,209.275 264.000,206.000" stroke-width="4.375" stroke="black" fill="none" stroke-linecap="round"></path><path d="M 264.000,206.000 C 269.074,201.629 267.326,201.767 270.000,197.000" stroke-width="3.608" stroke="black" fill="none" stroke-linecap="round"></path><path d="M 270.000,197.000 C 269.271,193.271 270.574,194.129 267.000,191.000" stroke-width="4.653" stroke="black" fill="none" stroke-linecap="round"></path><path d="M 267.000,191.000 C 263.678,188.576 264.271,188.271 260.000,187.000" stroke-width="3.974" stroke="black" fill="none" stroke-linecap="round"></path><path d="M 260.000,187.000 C 256.563,185.548 256.678,185.576 253.000,185.000" stroke-width="3.898" stroke="black" fill="none" stroke-linecap="round"></path><path d="M 253.000,185.000 C 250.000,185.000 250.063,184.548 247.000,185.000" stroke-width="3.981" stroke="black" fill="none" stroke-linecap="round"></path><path d="M 247.000,185.000 C 243.319,184.234 243.500,185.000 240.000,185.000" stroke-width="4.436" stroke="black" fill="none" stroke-linecap="round"></path><path d="M 240.000,185.000 C 236.713,186.101 236.819,185.734 234.000,188.000" stroke-width="4.600" stroke="black" fill="none" stroke-linecap="round"></path><path d="M 234.000,188.000 C 231.537,189.695 231.713,189.601 230.000,192.000" stroke-width="4.740" stroke="black" fill="none" stroke-linecap="round"></path><path d="M 230.000,192.000 C 228.235,194.417 228.537,194.195 228.000,197.000" stroke-width="4.807" stroke="black" fill="none" stroke-linecap="round"></path><path d="M 228.000,197.000 C 227.468,200.702 227.735,199.917 229.000,203.000" stroke-width="4.965" stroke="black" fill="none" stroke-linecap="round"></path><path d="M 229.000,203.000 C 231.289,205.261 230.468,205.202 234.000,206.000" stroke-width="4.287" stroke="black" fill="none" stroke-linecap="round"></path><path d="M 234.000,206.000 C 237.009,206.187 236.789,206.761 240.000,206.000" stroke-width="4.148" stroke="black" fill="none" stroke-linecap="round"></path><path d="M 240.000,206.000 C 245.307,206.482 245.009,205.687 250.000,205.000" stroke-width="3.637" stroke="black" fill="none" stroke-linecap="round"></path><path d="M 250.000,205.000 C 254.500,202.500 254.807,203.482 259.000,200.000" stroke-width="3.484" stroke="black" fill="none" stroke-linecap="round"></path><path d="M 259.000,200.000 C 263.787,197.931 263.500,197.500 268.000,195.000" stroke-width="3.441" stroke="black" fill="none" stroke-linecap="round"></path><path d="M 268.000,195.000 C 274.486,188.664 275.287,189.931 282.000,184.000" stroke-width="2.856" stroke="black" fill="none" stroke-linecap="round"></path><path d="M 282.000,184.000 C 289.466,180.424 288.986,179.664 297.000,177.000" stroke-width="2.792" stroke="black" fill="none" stroke-linecap="round"></path><path d="M 297.000,177.000 C 300.713,175.878 300.466,175.424 304.000,174.000" stroke-width="3.476" stroke="black" fill="none" stroke-linecap="round"></path><path d="M 304.000,174.000 C 307.973,172.027 307.713,171.878 311.000,169.000" stroke-width="3.653" stroke="black" fill="none" stroke-linecap="round"></path><path d="M 311.000,169.000 C 318.850,159.859 319.473,160.527 327.000,151.000" stroke-width="2.461" stroke="black" fill="none" stroke-linecap="round"></path><path d="M 327.000,151.000 C 330.609,147.603 330.350,147.359 334.000,144.000" stroke-width="3.093" stroke="black" fill="none" stroke-linecap="round"></path><path d="M 334.000,144.000 C 338.515,139.013 338.609,139.103 343.000,134.000" stroke-width="3.067" stroke="black" fill="none" stroke-linecap="round"></path><path d="M 343.000,134.000 C 347.874,130.049 347.015,129.513 351.000,125.000" stroke-width="3.221" stroke="black" fill="none" stroke-linecap="round"></path><path d="M 351.000,125.000 C 353.312,118.914 354.374,119.549 356.000,113.000" stroke-width="3.138" stroke="black" fill="none" stroke-linecap="round"></path><path d="M 356.000,113.000 C 358.621,108.056 358.312,107.914 361.000,103.000" stroke-width="3.257" stroke="black" fill="none" stroke-linecap="round"></path><path d="M 361.000,103.000 C 362.634,99.551 362.621,99.556 364.000,96.000" stroke-width="3.672" stroke="black" fill="none" stroke-linecap="round"></path><path d="M 364.000,96.000 C 367.059,90.212 365.134,93.051 366.000,90.000" stroke-width="4.361" stroke="black" fill="none" stroke-linecap="round"></path><path d="M 366.000,90.000 C 362.519,92.527 364.559,89.712 359.000,95.000" stroke-width="4.881" stroke="black" fill="none" stroke-linecap="round"></path><path d="M 359.000,95.000 C 343.614,105.040 344.019,105.527 329.000,116.000" stroke-width="2.482" stroke="black" fill="none" stroke-linecap="round"></path><path d="M 329.000,116.000 C 326.188,119.210 325.614,118.540 323.000,122.000" stroke-width="3.212" stroke="black" fill="none" stroke-linecap="round"></path><path d="M 323.000,122.000 C 317.503,125.497 318.188,126.210 313.000,130.000" stroke-width="3.264" stroke="black" fill="none" stroke-linecap="round"></path><path d="M 313.000,130.000 C 307.784,135.026 308.003,134.997 304.000,141.000" stroke-width="3.059" stroke="black" fill="none" stroke-linecap="round"></path><path d="M 304.000,141.000 C 298.650,150.343 298.284,150.026 294.000,160.000" stroke-width="2.634" stroke="black" fill="none" stroke-linecap="round"></path><path d="M 294.000,160.000 C 292.710,164.092 292.150,163.843 291.000,168.000" stroke-width="3.323" stroke="black" fill="none" stroke-linecap="round"></path><path d="M 291.000,168.000 C 288.657,171.858 289.210,172.092 287.000,176.000" stroke-width="3.569" stroke="black" fill="none" stroke-linecap="round"></path><path d="M 287.000,176.000 C 284.782,181.942 284.657,181.858 283.000,188.000" stroke-width="3.321" stroke="black" fill="none" stroke-linecap="round"></path><path d="M 283.000,188.000 C 282.670,190.545 282.282,190.442 282.000,193.000" stroke-width="3.967" stroke="black" fill="none" stroke-linecap="round"></path><path d="M 282.000,193.000 C 278.308,198.493 281.170,196.045 280.000,199.000" stroke-width="4.451" stroke="black" fill="none" stroke-linecap="round"></path><path d="M 280.000,199.000 C 286.168,198.011 283.308,199.993 292.000,196.000" stroke-width="4.943" stroke="black" fill="none" stroke-linecap="round"></path><path d="M 292.000,196.000 C 300.487,192.468 300.668,193.011 309.000,189.000" stroke-width="2.962" stroke="black" fill="none" stroke-linecap="round"></path><path d="M 309.000,189.000 C 313.968,186.917 313.987,186.968 319.000,185.000" stroke-width="3.283" stroke="black" fill="none" stroke-linecap="round"></path><path d="M 319.000,185.000 C 324.509,183.023 324.468,182.917 330.000,181.000" stroke-width="3.259" stroke="black" fill="none" stroke-linecap="round"></path><path d="M 330.000,181.000 C 333.929,179.253 334.009,179.523 338.000,178.000" stroke-width="3.534" stroke="black" fill="none" stroke-linecap="round"></path><path d="M 338.000,178.000 C 340.473,177.230 340.429,177.253 343.000,177.000" stroke-width="4.499" stroke="black" fill="none" stroke-linecap="round"></path><path d="M 343.000,177.000 C 347.107,175.296 345.973,176.730 349.000,177.000" stroke-width="4.678" stroke="black" fill="none" stroke-linecap="round"></path><path d="M 349.000,177.000 C 352.219,181.311 352.107,179.796 353.000,186.000" stroke-width="4.452" stroke="black" fill="none" stroke-linecap="round"></path><path d="M 353.000,186.000 C 350.315,192.754 353.719,190.311 352.000,195.000" stroke-width="3.813" stroke="black" fill="none" stroke-linecap="round"></path><path d="M 352.000,195.000 C 355.712,195.096 353.315,196.754 359.000,194.000" stroke-width="4.776" stroke="black" fill="none" stroke-linecap="round"></path><path d="M 359.000,194.000 C 361.401,192.300 361.712,193.096 364.000,191.000" stroke-width="4.779" stroke="black" fill="none" stroke-linecap="round"></path><path d="M 364.000,191.000 C 368.344,187.525 366.401,189.800 369.000,189.000" stroke-width="4.833" stroke="black" fill="none" stroke-linecap="round"></path><path d="M 369.000,189.000 C 368.000,194.519 370.344,192.025 368.000,200.000" stroke-width="4.863" stroke="black" fill="none" stroke-linecap="round"></path><path d="M 368.000,200.000 C 367.284,204.039 368.000,203.019 369.000,206.000" stroke-width="5.201" stroke="black" fill="none" stroke-linecap="round"></path><path d="M 369.000,206.000 C 371.915,207.525 370.784,208.039 375.000,208.000" stroke-width="4.837" stroke="black" fill="none" stroke-linecap="round"></path><path d="M 375.000,208.000 C 378.524,208.331 378.415,208.525 382.000,208.000" stroke-width="4.207" stroke="black" fill="none" stroke-linecap="round"></path><path d="M 382.000,208.000 C 389.143,207.558 389.024,207.331 396.000,206.000" stroke-width="4.015" stroke="black" fill="none" stroke-linecap="round"></path><path d="M 396.000,206.000 C 400.371,205.177 400.143,205.058 404.000,203.000" stroke-width="4.939" stroke="black" fill="none" stroke-linecap="round"></path><path d="M 404.000,203.000 C 409.882,198.333 410.371,199.177 416.000,194.000" stroke-width="3.313" stroke="black" fill="none" stroke-linecap="round"></path><path d="M 416.000,194.000 C 421.960,189.939 421.882,189.833 428.000,186.000" stroke-width="3.178" stroke="black" fill="none" stroke-linecap="round"></path><path d="M 428.000,186.000 C 434.207,183.288 433.460,182.439 439.000,179.000" stroke-width="3.122" stroke="black" fill="none" stroke-linecap="round"></path><path d="M 439.000,179.000 C 443.257,174.182 443.707,174.788 447.000,169.000" stroke-width="3.124" stroke="black" fill="none" stroke-linecap="round"></path><path d="M 447.000,169.000 C 449.174,164.767 449.757,165.182 452.000,161.000" stroke-width="3.454" stroke="black" fill="none" stroke-linecap="round"></path><path d="M 452.000,161.000 C 458.253,152.785 458.174,152.767 465.000,145.000" stroke-width="2.761" stroke="black" fill="none" stroke-linecap="round"></path><path d="M 465.000,145.000 C 471.413,137.916 471.253,137.785 478.000,131.000" stroke-width="2.620" stroke="black" fill="none" stroke-linecap="round"></path><path d="M 478.000,131.000 C 481.500,127.500 481.413,127.416 485.000,124.000" stroke-width="3.211" stroke="black" fill="none" stroke-linecap="round"></path><path d="M 485.000,124.000 C 488.246,121.213 488.000,121.000 491.000,118.000" stroke-width="3.523" stroke="black" fill="none" stroke-linecap="round"></path><path d="M 491.000,118.000 C 493.912,113.930 494.246,114.213 497.000,110.000" stroke-width="4.273" stroke="black" fill="none" stroke-linecap="round"></path><path d="M 497.000,110.000 C 499.694,107.145 499.412,106.930 502.000,104.000" stroke-width="3.971" stroke="black" fill="none" stroke-linecap="round"></path><path d="M 502.000,104.000 C 510.063,95.563 505.194,99.645 508.000,95.000" stroke-width="3.520" stroke="black" fill="none" stroke-linecap="round"></path><path d="M 508.000,95.000 C 499.235,97.397 504.563,94.063 491.000,101.000" stroke-width="4.324" stroke="black" fill="none" stroke-linecap="round"></path><path d="M 491.000,101.000 C 483.276,104.635 483.235,104.397 476.000,109.000" stroke-width="3.067" stroke="black" fill="none" stroke-linecap="round"></path><path d="M 476.000,109.000 C 470.150,111.642 470.776,112.135 466.000,116.000" stroke-width="3.153" stroke="black" fill="none" stroke-linecap="round"></path><path d="M 466.000,116.000 C 460.933,122.953 460.150,122.142 456.000,130.000" stroke-width="2.894" stroke="black" fill="none" stroke-linecap="round"></path><path d="M 456.000,130.000 C 453.598,132.804 453.933,132.953 452.000,136.000" stroke-width="3.519" stroke="black" fill="none" stroke-linecap="round"></path><path d="M 452.000,136.000 C 450.517,138.901 450.598,138.804 450.000,142.000" stroke-width="3.814" stroke="black" fill="none" stroke-linecap="round"></path><path d="M 450.000,142.000 C 449.522,148.002 449.017,147.901 449.000,154.000" stroke-width="3.434" stroke="black" fill="none" stroke-linecap="round"></path><path d="M 449.000,154.000 C 448.610,159.513 448.522,159.502 448.000,165.000" stroke-width="3.295" stroke="black" fill="none" stroke-linecap="round"></path><path d="M 448.000,165.000 C 447.963,168.630 447.610,168.513 447.000,172.000" stroke-width="3.783" stroke="black" fill="none" stroke-linecap="round"></path><path d="M 447.000,172.000 C 446.002,175.796 445.963,175.630 444.000,179.000" stroke-width="3.802" stroke="black" fill="none" stroke-linecap="round"></path><path d="M 444.000,179.000 C 440.858,183.846 441.002,183.796 437.000,188.000" stroke-width="4.080" stroke="black" fill="none" stroke-linecap="round"></path><path d="M 437.000,188.000 C 433.752,190.248 434.358,190.846 431.000,193.000" stroke-width="3.865" stroke="black" fill="none" stroke-linecap="round"></path><path d="M 431.000,193.000 C 427.757,196.325 427.752,196.248 425.000,200.000" stroke-width="4.241" stroke="black" fill="none" stroke-linecap="round"></path><path d="M 425.000,200.000 C 420.372,205.465 423.257,202.325 422.000,205.000" stroke-width="4.605" stroke="black" fill="none" stroke-linecap="round"></path><path d="M 422.000,205.000 C 430.514,200.526 427.372,203.465 439.000,196.000" stroke-width="4.835" stroke="black" fill="none" stroke-linecap="round"></path><path d="M 439.000,196.000 C 445.303,192.044 445.514,192.526 452.000,189.000" stroke-width="4.129" stroke="black" fill="none" stroke-linecap="round"></path><path d="M 452.000,189.000 C 456.500,187.500 456.303,187.044 461.000,186.000" stroke-width="3.692" stroke="black" fill="none" stroke-linecap="round"></path><path d="M 461.000,186.000 C 465.410,184.148 465.500,184.500 470.000,183.000" stroke-width="3.578" stroke="black" fill="none" stroke-linecap="round"></path><path d="M 470.000,183.000 C 475.506,182.030 475.410,181.648 481.000,181.000" stroke-width="3.387" stroke="black" fill="none" stroke-linecap="round"></path><path d="M 481.000,181.000 C 483.625,180.864 483.506,180.530 486.000,180.000" stroke-width="3.958" stroke="black" fill="none" stroke-linecap="round"></path><path d="M 486.000,180.000 C 488.883,177.240 489.125,178.864 492.000,177.000" stroke-width="4.448" stroke="black" fill="none" stroke-linecap="round"></path><path d="M 492.000,177.000 C 495.735,177.493 495.383,176.740 499.000,179.000" stroke-width="4.924" stroke="black" fill="none" stroke-linecap="round"></path><path d="M 499.000,179.000 C 504.558,179.906 502.235,180.493 505.000,183.000" stroke-width="4.705" stroke="black" fill="none" stroke-linecap="round"></path><path d="M 505.000,183.000 C 504.849,192.085 506.058,190.406 502.000,200.000" stroke-width="4.326" stroke="black" fill="none" stroke-linecap="round"></path><path d="M 502.000,200.000 C 499.597,204.583 500.349,204.585 496.000,208.000" stroke-width="3.682" stroke="black" fill="none" stroke-linecap="round"></path><path d="M 496.000,208.000 C 489.227,213.838 489.597,214.083 482.000,219.000" stroke-width="2.974" stroke="black" fill="none" stroke-linecap="round"></path><path d="M 482.000,219.000 C 478.597,221.201 478.727,221.338 475.000,223.000" stroke-width="3.558" stroke="black" fill="none" stroke-linecap="round"></path><path d="M 475.000,223.000 C 469.615,225.577 472.597,224.201 470.000,225.000" stroke-width="4.365" stroke="black" fill="none" stroke-linecap="round"></path><path d="M 470.000,225.000 C 473.685,222.730 470.615,224.077 477.000,220.000" stroke-width="4.433" stroke="black" fill="none" stroke-linecap="round"></path><path d="M 477.000,220.000 C 482.118,215.625 482.185,215.730 487.000,211.000" stroke-width="3.370" stroke="black" fill="none" stroke-linecap="round"></path><path d="M 487.000,211.000 C 490.927,205.750 491.618,206.625 496.000,202.000" stroke-width="3.261" stroke="black" fill="none" stroke-linecap="round"></path><path d="M 496.000,202.000 C 502.878,197.748 502.427,197.250 510.000,194.000" stroke-width="2.925" stroke="black" fill="none" stroke-linecap="round"></path><path d="M 510.000,194.000 C 515.651,190.480 512.378,192.748 515.000,192.000" stroke-width="3.753" stroke="black" fill="none" stroke-linecap="round"></path><path d="M 515.000,192.000 C 510.327,200.769 512.651,197.480 504.000,208.000" stroke-width="4.664" stroke="black" fill="none" stroke-linecap="round"></path><path d="M 504.000,208.000 C 499.722,213.282 499.827,212.769 494.000,216.000" stroke-width="3.540" stroke="black" fill="none" stroke-linecap="round"></path><path d="M 494.000,216.000 C 479.058,221.667 479.722,222.782 464.000,227.000" stroke-width="2.185" stroke="black" fill="none" stroke-linecap="round"></path><path d="M 464.000,227.000 C 455.074,230.238 455.058,230.167 446.000,233.000" stroke-width="2.496" stroke="black" fill="none" stroke-linecap="round"></path><path d="M 446.000,233.000 C 432.046,237.169 432.074,237.238 418.000,241.000" stroke-width="2.123" stroke="black" fill="none" stroke-linecap="round"></path><path d="M 418.000,241.000 C 399.176,246.963 399.046,246.169 380.000,251.000" stroke-width="1.750" stroke="black" fill="none" stroke-linecap="round"></path><path d="M 380.000,251.000 C 370.534,252.523 370.676,252.963 361.000,253.000" stroke-width="2.295" stroke="black" fill="none" stroke-linecap="round"></path><path d="M 361.000,253.000 C 340.458,254.835 340.534,254.023 320.000,254.000" stroke-width="1.742" stroke="black" fill="none" stroke-linecap="round"></path><path d="M 320.000,254.000 C 291.446,251.977 291.458,252.835 263.000,249.000" stroke-width="1.398" stroke="black" fill="none" stroke-linecap="round"></path><path d="M 263.000,249.000 C 248.338,247.816 248.446,247.477 234.000,245.000" stroke-width="1.764" stroke="black" fill="none" stroke-linecap="round"></path><path d="M 234.000,245.000 C 220.279,242.215 220.338,242.316 207.000,238.000" stroke-width="1.955" stroke="black" fill="none" stroke-linecap="round"></path><path d="M 207.000,238.000 C 184.676,237.018 188.779,232.215 171.000,225.000" stroke-width="1.792" stroke="black" fill="none" stroke-linecap="round"></path><path d="M 171.000,225.000 C 155.867,202.587 151.676,208.018 141.000,180.000" stroke-width="1.454" stroke="black" fill="none" stroke-linecap="round"></path><path d="M 141.000,180.000 C 128.448,163.846 129.867,163.087 119.000,146.000" stroke-width="1.549" stroke="black" fill="none" stroke-linecap="round"></path><path d="M 119.000,146.000 C 105.617,121.104 105.948,121.346 96.000,95.000" stroke-width="1.327" stroke="black" fill="none" stroke-linecap="round"></path><path d="M 96.000,95.000 C 92.961,82.553 91.617,83.104 91.000,70.000" stroke-width="1.862" stroke="black" fill="none" stroke-linecap="round"></path><path d="M 91.000,70.000 C 89.653,66.142 90.461,66.553 91.000,63.000" stroke-width="2.969" stroke="black" fill="none" stroke-linecap="round"></path><path d="M 91.000,63.000 C 95.073,50.833 95.653,52.142 103.000,42.000" stroke-width="2.418" stroke="black" fill="none" stroke-linecap="round"></path><path d="M 103.000,42.000 C 111.678,25.445 112.573,31.333 126.000,24.000" stroke-width="2.163" stroke="black" fill="none" stroke-linecap="round"></path><path d="M 126.000,24.000 C 289.382,3.450 280.178,8.445 440.000,8.000" stroke-width="1.491" stroke="black" fill="none" stroke-linecap="round"></path><path d="M 440.000,8.000 C 451.040,19.871 454.882,8.450 457.000,34.000" stroke-width="1.763" stroke="black" fill="none" stroke-linecap="round"></path><path d="M 457.000,34.000 C 463.556,52.864 464.540,51.871 467.000,72.000" stroke-width="1.766" stroke="black" fill="none" stroke-linecap="round"></path><path d="M 467.000,72.000 C 467.381,78.170 468.056,77.864 466.000,84.000" stroke-width="2.577" stroke="black" fill="none" stroke-linecap="round"></path><path d="M 466.000,84.000 C 465.057,99.023 462.881,97.170 458.000,110.000" stroke-width="2.273" stroke="black" fill="none" stroke-linecap="round"></path><path d="M 458.000,110.000 C 449.252,119.272 451.557,120.023 439.000,126.000" stroke-width="2.336" stroke="black" fill="none" stroke-linecap="round"></path><path d="M 439.000,126.000 C 432.773,129.482 433.252,129.772 426.000,131.000" stroke-width="2.818" stroke="black" fill="none" stroke-linecap="round"></path><path d="M 426.000,131.000 C 403.563,135.718 403.773,135.982 381.000,139.000" stroke-width="1.768" stroke="black" fill="none" stroke-linecap="round"></path><path d="M 381.000,139.000 C 375.971,139.414 376.063,139.718 371.000,139.000" stroke-width="2.723" stroke="black" fill="none" stroke-linecap="round"></path><path d="M 371.000,139.000 C 363.988,138.075 363.971,138.414 357.000,137.000" stroke-width="2.902" stroke="black" fill="none" stroke-linecap="round"></path><path d="M 357.000,137.000 C 351.030,135.635 350.988,136.075 345.000,135.000" stroke-width="3.101" stroke="black" fill="none" stroke-linecap="round"></path></svg>