<svg xmlns="http://www.w3.org/2000/svg" xmlns:xlink="http://www.w3.org/1999/xlink" viewBox="0 0 664 416" width="664" height="416"><path d="M 137.417,106.000 C 137.212,109.083 136.917,109.000 136.417,112.000" stroke-width="4.982" stroke="black" fill="none" stroke-linecap="round"></path><path d="M 136.417,112.000 C 135.322,114.465 135.712,114.583 134.417,117.000" stroke-width="4.463" stroke="black" fill="none" stroke-linecap="round"></path><path d="M 134.417,117.000 C 132.984,121.523 132.822,121.465 131.417,126.000" stroke-width="3.830" stroke="black" fill="none" stroke-linecap="round"></path><path d="M 131.417,126.000 C 126.862,141.961 125.984,141.523 120.417,157.000" stroke-width="2.180" stroke="black" fill="none" stroke-linecap="round"></path><path d="M 120.417,157.000 C 116.978,162.540 117.862,162.961 113.417,168.000" stroke-width="2.797" stroke="black" fill="none" stroke-linecap="round"></path><path d="M 113.417,168.000 C 101.511,185.248 101.978,185.540 90.417,203.000" stroke-width="1.794" stroke="black" fill="none" stroke-linecap="round"></path><path d="M 90.417,203.000 C 81.939,217.513 81.511,217.248 73.417,232.000" stroke-width="1.860" stroke="black" fill="none" stroke-linecap="round"></path><path d="M 73.417,232.000 C 67.150,243.152 66.939,243.013 60.417,254.000" stroke-width="2.115" stroke="black" fill="none" stroke-linecap="round"></path><path d="M 60.417,254.000 C 58.206,257.745 58.150,257.652 55.417,261.000" stroke-width="3.070" stroke="black" fill="none" stroke-linecap="round"></path><path d="M 55.417,261.000 C 51.756,264.357 52.206,264.745 48.417,268.000" stroke-width="3.286" stroke="black" fill="none" stroke-linecap="round"></path><path d="M 132.417,134.000 C 134.426,137.333 133.917,137.500 135.417,141.000" stroke-width="4.843" stroke="black" fill="none" stroke-linecap="round"></path><path d="M 135.417,141.000 C 138.822,156.023 139.426,155.833 142.417,171.000" stroke-width="2.428" stroke="black" fill="none" stroke-linecap="round"></path><path d="M 142.417,171.000 C 145.654,180.866 144.822,181.023 147.417,191.000" stroke-width="2.449" stroke="black" fill="none" stroke-linecap="round"></path><path d="M 147.417,191.000 C 148.147,204.136 149.654,203.866 150.417,217.000" stroke-width="2.280" stroke="black" fill="none" stroke-linecap="round"></path><path d="M 150.417,217.000 C 153.454,229.491 152.647,229.636 156.417,242.000" stroke-width="2.251" stroke="black" fill="none" stroke-linecap="round"></path><path d="M 156.417,242.000 C 157.420,248.678 157.954,248.491 159.417,255.000" stroke-width="2.766" stroke="black" fill="none" stroke-linecap="round"></path><path d="M 159.417,255.000 C 160.449,258.317 160.420,258.178 162.417,261.000" stroke-width="3.546" stroke="black" fill="none" stroke-linecap="round"></path><path d="M 162.417,261.000 C 166.310,265.600 165.949,265.817 170.417,270.000" stroke-width="3.304" stroke="black" fill="none" stroke-linecap="round"></path><path d="M 170.417,270.000 C 173.417,273.000 173.310,273.100 176.417,276.000" stroke-width="3.651" stroke="black" fill="none" stroke-linecap="round"></path><path d="M 176.417,276.000 C 178.526,277.900 178.417,278.000 180.417,280.000" stroke-width="3.990" stroke="black" fill="none" stroke-linecap="round"></path><path d="M 180.417,280.000 C 183.077,282.880 183.026,282.900 185.417,286.000" stroke-width="3.841" stroke="black" fill="none" stroke-linecap="round"></path><path d="M 196.417,124.000 C 190.570,119.746 190.417,120.000 184.417,116.000" stroke-width="4.815" stroke="black" fill="none" stroke-linecap="round"></path><path d="M 184.417,116.000 C 179.108,112.561 179.070,112.746 173.417,110.000" stroke-width="3.591" stroke="black" fill="none" stroke-linecap="round"></path><path d="M 173.417,110.000 C 169.092,107.267 169.108,108.061 164.417,107.000" stroke-width="3.604" stroke="black" fill="none" stroke-linecap="round"></path><path d="M 164.417,107.000 C 151.168,106.134 151.592,106.267 138.417,108.000" stroke-width="2.512" stroke="black" fill="none" stroke-linecap="round"></path><path d="M 138.417,108.000 C 130.893,110.430 130.668,109.134 123.417,113.000" stroke-width="2.781" stroke="black" fill="none" stroke-linecap="round"></path><path d="M 123.417,113.000 C 114.380,114.911 114.893,115.930 106.417,119.000" stroke-width="2.745" stroke="black" fill="none" stroke-linecap="round"></path><path d="M 106.417,119.000 C 94.507,123.657 95.880,124.411 86.417,132.000" stroke-width="2.449" stroke="black" fill="none" stroke-linecap="round"></path><path d="M 86.417,132.000 C 80.417,142.000 78.507,140.157 74.417,152.000" stroke-width="2.394" stroke="black" fill="none" stroke-linecap="round"></path><path d="M 74.417,152.000 C 69.541,159.301 69.917,159.500 65.417,167.000" stroke-width="2.592" stroke="black" fill="none" stroke-linecap="round"></path><path d="M 65.417,167.000 C 62.235,173.424 62.041,173.301 59.417,180.000" stroke-width="2.899" stroke="black" fill="none" stroke-linecap="round"></path><path d="M 59.417,180.000 C 57.619,183.912 57.735,183.924 56.417,188.000" stroke-width="3.397" stroke="black" fill="none" stroke-linecap="round"></path><path d="M 56.417,188.000 C 55.649,192.564 55.119,192.412 54.417,197.000" stroke-width="3.515" stroke="black" fill="none" stroke-linecap="round"></path><path d="M 54.417,197.000 C 50.977,201.602 53.149,201.564 51.417,206.000" stroke-width="4.090" stroke="black" fill="none" stroke-linecap="round"></path><path d="M 51.417,206.000 C 53.161,211.991 51.977,211.602 56.417,217.000" stroke-width="3.427" stroke="black" fill="none" stroke-linecap="round"></path><path d="M 56.417,217.000 C 59.693,222.366 59.661,221.991 64.417,226.000" stroke-width="3.272" stroke="black" fill="none" stroke-linecap="round"></path><path d="M 64.417,226.000 C 72.681,233.322 72.693,232.366 82.417,237.000" stroke-width="2.699" stroke="black" fill="none" stroke-linecap="round"></path><path d="M 82.417,237.000 C 95.762,241.197 95.181,241.822 109.417,243.000" stroke-width="2.219" stroke="black" fill="none" stroke-linecap="round"></path><path d="M 109.417,243.000 C 122.413,243.698 122.262,244.697 135.417,244.000" stroke-width="2.275" stroke="black" fill="none" stroke-linecap="round"></path><path d="M 135.417,244.000 C 144.010,244.978 143.913,244.198 152.417,244.000" stroke-width="2.626" stroke="black" fill="none" stroke-linecap="round"></path><path d="M 152.417,244.000 C 165.661,242.280 165.510,242.478 178.417,239.000" stroke-width="2.249" stroke="black" fill="none" stroke-linecap="round"></path><path d="M 178.417,239.000 C 183.540,237.908 183.161,237.780 187.417,235.000" stroke-width="3.031" stroke="black" fill="none" stroke-linecap="round"></path><path d="M 187.417,235.000 C 193.526,229.939 193.540,230.408 198.417,224.000" stroke-width="2.965" stroke="black" fill="none" stroke-linecap="round"></path><path d="M 198.417,224.000 C 199.827,220.952 200.526,221.439 201.417,218.000" stroke-width="3.640" stroke="black" fill="none" stroke-linecap="round"></path><path d="M 201.417,218.000 C 203.993,214.753 203.327,214.452 205.417,211.000" stroke-width="3.710" stroke="black" fill="none" stroke-linecap="round"></path><path d="M 205.417,211.000 C 209.295,200.098 209.493,200.253 212.417,189.000" stroke-width="2.598" stroke="black" fill="none" stroke-linecap="round"></path><path d="M 212.417,189.000 C 213.221,183.955 213.795,184.098 214.417,179.000" stroke-width="3.133" stroke="black" fill="none" stroke-linecap="round"></path><path d="M 214.417,179.000 C 218.136,169.694 216.721,169.455 219.417,160.000" stroke-width="2.747" stroke="black" fill="none" stroke-linecap="round"></path><path d="M 219.417,160.000 C 221.417,142.931 221.636,143.194 221.417,126.000" stroke-width="2.006" stroke="black" fill="none" stroke-linecap="round"></path><path d="M 221.417,126.000 C 221.086,120.770 221.417,120.931 219.417,116.000" stroke-width="2.868" stroke="black" fill="none" stroke-linecap="round"></path><path d="M 219.417,116.000 C 217.749,110.357 217.586,110.770 214.417,106.000" stroke-width="3.217" stroke="black" fill="none" stroke-linecap="round"></path><path d="M 214.417,106.000 C 211.110,101.011 211.249,101.857 206.417,99.000" stroke-width="3.384" stroke="black" fill="none" stroke-linecap="round"></path><path d="M 206.417,99.000 C 199.880,96.761 200.610,96.511 193.417,97.000" stroke-width="3.232" stroke="black" fill="none" stroke-linecap="round"></path><path d="M 193.417,97.000 C 186.229,97.886 186.380,97.261 179.417,100.000" stroke-width="3.043" stroke="black" fill="none" stroke-linecap="round"></path><path d="M 179.417,100.000 C 172.038,103.362 171.729,102.386 164.417,106.000" stroke-width="2.868" stroke="black" fill="none" stroke-linecap="round"></path><path d="M 164.417,106.000 C 158.998,107.937 159.038,107.862 153.417,109.000" stroke-width="3.200" stroke="black" fill="none" stroke-linecap="round"></path><path d="M 153.417,109.000 C 148.380,109.255 148.498,109.937 143.417,110.000" stroke-width="3.427" stroke="black" fill="none" stroke-linecap="round"></path><path d="M 143.417,110.000 C 138.457,111.407 138.380,110.755 133.417,112.000" stroke-width="3.489" stroke="black" fill="none" stroke-linecap="round"></path><path d="M 200.417,257.000 C 202.954,254.031 202.917,254.000 205.417,251.000" stroke-width="4.933" stroke="black" fill="none" stroke-linecap="round"></path><path d="M 205.417,251.000 C 209.318,245.919 209.454,246.031 213.417,241.000" stroke-width="3.511" stroke="black" fill="none" stroke-linecap="round"></path><path d="M 213.417,241.000 C 224.516,228.081 224.318,227.919 235.417,215.000" stroke-width="2.106" stroke="black" fill="none" stroke-linecap="round"></path><path d="M 235.417,215.000 C 239.056,209.651 239.516,210.081 243.417,205.000" stroke-width="2.773" stroke="black" fill="none" stroke-linecap="round"></path><path d="M 243.417,205.000 C 247.008,202.099 246.556,201.651 250.417,199.000" stroke-width="3.286" stroke="black" fill="none" stroke-linecap="round"></path><path d="M 250.417,199.000 C 252.306,196.876 252.508,197.099 254.417,195.000" stroke-width="3.889" stroke="black" fill="none" stroke-linecap="round"></path><path d="M 254.417,195.000 C 256.576,191.437 256.806,192.876 259.417,191.000" stroke-width="4.025" stroke="black" fill="none" stroke-linecap="round"></path><path d="M 259.417,191.000 C 266.187,189.501 263.076,190.437 267.417,193.000" stroke-width="4.346" stroke="black" fill="none" stroke-linecap="round"></path><path d="M 267.417,193.000 C 270.330,210.471 272.687,208.001 272.417,228.000" stroke-width="2.211" stroke="black" fill="none" stroke-linecap="round"></path><path d="M 272.417,228.000 C 272.417,231.500 272.830,231.471 272.417,235.000" stroke-width="3.179" stroke="black" fill="none" stroke-linecap="round"></path><path d="M 272.417,235.000 C 269.645,242.416 272.417,239.000 272.417,243.000" stroke-width="4.031" stroke="black" fill="none" stroke-linecap="round"></path><path d="M 272.417,243.000 C 282.412,242.377 279.145,244.416 291.417,239.000" stroke-width="4.029" stroke="black" fill="none" stroke-linecap="round"></path><path d="M 291.417,239.000 C 302.353,234.168 302.412,234.877 312.417,228.000" stroke-width="2.756" stroke="black" fill="none" stroke-linecap="round"></path><path d="M 312.417,228.000 C 317.396,223.974 317.853,224.668 322.417,220.000" stroke-width="3.004" stroke="black" fill="none" stroke-linecap="round"></path><path d="M 322.417,220.000 C 329.797,211.206 329.396,214.474 336.417,209.000" stroke-width="2.756" stroke="black" fill="none" stroke-linecap="round"></path><path d="M 336.417,209.000 C 339.135,211.179 338.797,208.206 340.417,214.000" stroke-width="4.109" stroke="black" fill="none" stroke-linecap="round"></path><path d="M 340.417,214.000 C 339.112,218.992 341.635,216.679 341.417,220.000" stroke-width="4.523" stroke="black" fill="none" stroke-linecap="round"></path><path d="M 341.417,220.000 C 349.283,222.321 347.112,222.492 356.417,221.000" stroke-width="3.324" stroke="black" fill="none" stroke-linecap="round"></path><path d="M 356.417,221.000 C 362.521,218.193 362.783,219.821 368.417,215.000" stroke-width="3.067" stroke="black" fill="none" stroke-linecap="round"></path><path d="M 368.417,215.000 C 374.437,211.534 374.521,211.693 380.417,208.000" stroke-width="3.028" stroke="black" fill="none" stroke-linecap="round"></path><path d="M 380.417,208.000 C 386.622,201.187 385.437,205.034 390.417,202.000" stroke-width="3.237" stroke="black" fill="none" stroke-linecap="round"></path><path d="M 390.417,202.000 C 394.417,206.326 393.622,202.687 394.417,211.000" stroke-width="4.130" stroke="black" fill="none" stroke-linecap="round"></path><path d="M 394.417,211.000 C 393.002,219.243 394.417,218.826 390.417,227.000" stroke-width="3.214" stroke="black" fill="none" stroke-linecap="round"></path><path d="M 390.417,227.000 C 388.812,229.442 389.502,229.743 387.417,232.000" stroke-width="3.839" stroke="black" fill="none" stroke-linecap="round"></path><path d="M 387.417,232.000 C 383.814,235.190 385.812,234.942 384.417,238.000" stroke-width="3.925" stroke="black" fill="none" stroke-linecap="round"></path><path d="M 384.417,238.000 C 386.162,244.335 385.314,242.190 390.417,246.000" stroke-width="4.191" stroke="black" fill="none" stroke-linecap="round"></path><path d="M 390.417,246.000 C 398.956,247.445 397.662,248.835 407.417,247.000" stroke-width="3.044" stroke="black" fill="none" stroke-linecap="round"></path><path d="M 407.417,247.000 C 417.904,245.402 417.956,246.445 428.417,244.000" stroke-width="2.644" stroke="black" fill="none" stroke-linecap="round"></path><path d="M 428.417,244.000 C 432.902,243.238 432.904,243.402 437.417,243.000" stroke-width="3.327" stroke="black" fill="none" stroke-linecap="round"></path><path d="M 437.417,243.000 C 442.431,242.738 442.402,242.738 447.417,243.000" stroke-width="3.420" stroke="black" fill="none" stroke-linecap="round"></path><path d="M 447.417,243.000 C 451.900,243.795 451.931,243.238 456.417,244.000" stroke-width="4.367" stroke="black" fill="none" stroke-linecap="round"></path><path d="M 456.417,244.000 C 462.968,244.624 462.900,244.295 469.417,244.000" stroke-width="3.398" stroke="black" fill="none" stroke-linecap="round"></path><path d="M 469.417,244.000 C 478.367,242.065 478.468,243.124 487.417,241.000" stroke-width="2.888" stroke="black" fill="none" stroke-linecap="round"></path><path d="M 487.417,241.000 C 495.457,240.853 495.367,240.065 503.417,240.000" stroke-width="2.893" stroke="black" fill="none" stroke-linecap="round"></path><path d="M 503.417,240.000 C 509.417,238.333 509.457,239.353 515.417,238.000" stroke-width="3.098" stroke="black" fill="none" stroke-linecap="round"></path><path d="M 515.417,238.000 C 518.506,238.168 518.417,237.833 521.417,239.000" stroke-width="4.364" stroke="black" fill="none" stroke-linecap="round"></path><path d="M 521.417,239.000 C 525.281,241.081 525.506,240.168 529.417,242.000" stroke-width="3.851" stroke="black" fill="none" stroke-linecap="round"></path><path d="M 529.417,242.000 C 534.407,242.687 534.281,243.081 539.417,243.000" stroke-width="3.565" stroke="black" fill="none" stroke-linecap="round"></path><path d="M 539.417,243.000 C 542.417,243.000 542.407,243.187 545.417,243.000" stroke-width="3.918" stroke="black" fill="none" stroke-linecap="round"></path><path d="M 545.417,243.000 C 548.917,243.000 548.917,243.000 552.417,243.000" stroke-width="4.397" stroke="black" fill="none" stroke-linecap="round"></path><path d="M 552.417,243.000 C 558.917,243.000 558.917,243.000 565.417,243.000" stroke-width="4.111" stroke="black" fill="none" stroke-linecap="round"></path><path d="M 565.417,243.000 C 570.935,242.711 570.917,243.000 576.417,243.000" stroke-width="3.598" stroke="black" fill="none" stroke-linecap="round"></path></svg>