<svg xmlns="http://www.w3.org/2000/svg" xmlns:xlink="http://www.w3.org/1999/xlink" viewBox="0 0 664 416" width="664" height="416"><path d="M 169.563,210.000 C 165.075,204.042 164.563,205.000 159.563,200.000" stroke-width="4.385" stroke="black" fill="none" stroke-linecap="round"></path><path d="M 159.563,200.000 C 157.076,199.419 157.575,198.542 154.563,199.000" stroke-width="4.344" stroke="black" fill="none" stroke-linecap="round"></path><path d="M 154.563,199.000 C 150.969,198.852 151.076,198.419 147.563,198.000" stroke-width="4.558" stroke="black" fill="none" stroke-linecap="round"></path><path d="M 147.563,198.000 C 144.858,197.378 144.969,197.352 142.563,196.000" stroke-width="4.354" stroke="black" fill="none" stroke-linecap="round"></path><path d="M 142.563,196.000 C 137.638,192.384 137.358,192.878 132.563,189.000" stroke-width="4.201" stroke="black" fill="none" stroke-linecap="round"></path><path d="M 132.563,189.000 C 129.822,187.808 130.138,187.384 127.563,186.000" stroke-width="4.192" stroke="black" fill="none" stroke-linecap="round"></path><path d="M 127.563,186.000 C 125.063,183.500 124.822,183.808 122.563,181.000" stroke-width="4.036" stroke="black" fill="none" stroke-linecap="round"></path><path d="M 122.563,181.000 C 120.663,178.890 120.563,179.000 118.563,177.000" stroke-width="4.163" stroke="black" fill="none" stroke-linecap="round"></path><path d="M 118.563,177.000 C 111.899,173.990 115.663,174.390 112.563,172.000" stroke-width="4.443" stroke="black" fill="none" stroke-linecap="round"></path><path d="M 112.563,172.000 C 117.072,170.021 113.399,169.490 121.563,168.000" stroke-width="4.958" stroke="black" fill="none" stroke-linecap="round"></path><path d="M 121.563,168.000 C 127.208,165.784 127.072,165.521 132.563,163.000" stroke-width="3.658" stroke="black" fill="none" stroke-linecap="round"></path><path d="M 132.563,163.000 C 139.563,159.000 139.708,159.284 146.563,155.000" stroke-width="3.082" stroke="black" fill="none" stroke-linecap="round"></path><path d="M 146.563,155.000 C 153.717,151.249 153.563,151.000 160.563,147.000" stroke-width="2.943" stroke="black" fill="none" stroke-linecap="round"></path><path d="M 160.563,147.000 C 168.293,142.312 168.217,142.249 175.563,137.000" stroke-width="2.660" stroke="black" fill="none" stroke-linecap="round"></path><path d="M 175.563,137.000 C 180.884,132.259 181.293,132.812 186.563,128.000" stroke-width="2.875" stroke="black" fill="none" stroke-linecap="round"></path><path d="M 186.563,128.000 C 190.991,124.887 190.884,124.759 195.563,122.000" stroke-width="3.414" stroke="black" fill="none" stroke-linecap="round"></path><path d="M 195.563,122.000 C 200.457,118.808 200.491,118.887 205.563,116.000" stroke-width="3.300" stroke="black" fill="none" stroke-linecap="round"></path><path d="M 205.563,116.000 C 210.624,113.615 210.457,113.308 215.563,111.000" stroke-width="3.365" stroke="black" fill="none" stroke-linecap="round"></path><path d="M 215.563,111.000 C 218.920,108.681 219.124,109.115 222.563,107.000" stroke-width="3.668" stroke="black" fill="none" stroke-linecap="round"></path><path d="M 222.563,107.000 C 227.782,104.220 225.420,105.681 228.563,105.000" stroke-width="3.915" stroke="black" fill="none" stroke-linecap="round"></path><path d="M 228.563,105.000 C 227.377,107.732 229.282,105.720 225.563,110.000" stroke-width="4.756" stroke="black" fill="none" stroke-linecap="round"></path><path d="M 225.563,110.000 C 220.867,114.835 221.377,115.232 216.563,120.000" stroke-width="3.565" stroke="black" fill="none" stroke-linecap="round"></path><path d="M 216.563,120.000 C 210.824,126.825 210.867,126.835 205.563,134.000" stroke-width="2.881" stroke="black" fill="none" stroke-linecap="round"></path><path d="M 205.563,134.000 C 200.245,142.131 199.824,141.825 194.563,150.000" stroke-width="2.756" stroke="black" fill="none" stroke-linecap="round"></path><path d="M 194.563,150.000 C 187.183,160.093 187.245,160.131 179.563,170.000" stroke-width="2.462" stroke="black" fill="none" stroke-linecap="round"></path><path d="M 179.563,170.000 C 172.590,179.969 172.183,179.593 164.563,189.000" stroke-width="2.361" stroke="black" fill="none" stroke-linecap="round"></path><path d="M 164.563,189.000 C 156.063,197.500 156.590,197.969 147.563,206.000" stroke-width="2.281" stroke="black" fill="none" stroke-linecap="round"></path><path d="M 147.563,206.000 C 140.811,213.269 140.563,213.000 133.563,220.000" stroke-width="2.494" stroke="black" fill="none" stroke-linecap="round"></path><path d="M 133.563,220.000 C 126.781,226.275 126.811,226.269 119.563,232.000" stroke-width="2.576" stroke="black" fill="none" stroke-linecap="round"></path><path d="M 119.563,232.000 C 112.291,237.848 112.281,237.775 104.563,243.000" stroke-width="2.594" stroke="black" fill="none" stroke-linecap="round"></path><path d="M 104.563,243.000 C 98.434,246.292 98.791,246.848 92.563,250.000" stroke-width="2.872" stroke="black" fill="none" stroke-linecap="round"></path><path d="M 92.563,250.000 C 79.812,258.921 79.434,258.292 66.563,267.000" stroke-width="2.890" stroke="black" fill="none" stroke-linecap="round"></path><path d="M 66.563,267.000 C 59.255,271.538 59.312,271.421 51.563,275.000" stroke-width="3.420" stroke="black" fill="none" stroke-linecap="round"></path><path d="M 51.563,275.000 C 47.711,277.149 49.255,276.038 46.563,276.000" stroke-width="4.008" stroke="black" fill="none" stroke-linecap="round"></path><path d="M 46.563,276.000 C 44.915,272.142 45.211,274.649 46.563,270.000" stroke-width="4.838" stroke="black" fill="none" stroke-linecap="round"></path><path d="M 46.563,270.000 C 51.485,266.385 49.915,265.642 56.563,263.000" stroke-width="3.554" stroke="black" fill="none" stroke-linecap="round"></path><path d="M 56.563,263.000 C 63.921,258.981 63.485,258.385 70.563,254.000" stroke-width="3.024" stroke="black" fill="none" stroke-linecap="round"></path><path d="M 70.563,254.000 C 77.461,247.877 77.921,248.481 84.563,242.000" stroke-width="2.788" stroke="black" fill="none" stroke-linecap="round"></path><path d="M 84.563,242.000 C 92.086,236.029 91.961,235.877 99.563,230.000" stroke-width="2.683" stroke="black" fill="none" stroke-linecap="round"></path><path d="M 99.563,230.000 C 107.622,223.572 107.586,223.529 115.563,217.000" stroke-width="2.522" stroke="black" fill="none" stroke-linecap="round"></path><path d="M 115.563,217.000 C 121.794,211.144 122.122,211.572 128.563,206.000" stroke-width="2.717" stroke="black" fill="none" stroke-linecap="round"></path><path d="M 128.563,206.000 C 134.523,201.939 134.294,201.644 140.563,198.000" stroke-width="2.989" stroke="black" fill="none" stroke-linecap="round"></path><path d="M 140.563,198.000 C 145.866,194.133 146.023,194.439 151.563,191.000" stroke-width="3.122" stroke="black" fill="none" stroke-linecap="round"></path><path d="M 151.563,191.000 C 156.025,188.911 155.866,188.633 160.563,187.000" stroke-width="3.366" stroke="black" fill="none" stroke-linecap="round"></path><path d="M 160.563,187.000 C 165.450,184.598 165.525,184.911 170.563,183.000" stroke-width="3.420" stroke="black" fill="none" stroke-linecap="round"></path><path d="M 170.563,183.000 C 173.557,182.462 173.450,182.098 176.563,182.000" stroke-width="3.896" stroke="black" fill="none" stroke-linecap="round"></path><path d="M 176.563,182.000 C 183.335,179.864 180.057,181.462 183.563,181.000" stroke-width="4.384" stroke="black" fill="none" stroke-linecap="round"></path><path d="M 183.563,181.000 C 180.426,183.876 183.835,182.364 177.563,187.000" stroke-width="4.960" stroke="black" fill="none" stroke-linecap="round"></path><path d="M 177.563,187.000 C 174.827,189.830 174.926,189.876 172.563,193.000" stroke-width="4.070" stroke="black" fill="none" stroke-linecap="round"></path><path d="M 172.563,193.000 C 169.900,196.909 169.827,196.830 167.563,201.000" stroke-width="3.797" stroke="black" fill="none" stroke-linecap="round"></path><path d="M 167.563,201.000 C 166.249,204.108 165.900,203.909 164.563,207.000" stroke-width="3.959" stroke="black" fill="none" stroke-linecap="round"></path><path d="M 164.563,207.000 C 161.654,209.725 162.749,210.108 160.563,213.000" stroke-width="3.846" stroke="black" fill="none" stroke-linecap="round"></path><path d="M 160.563,213.000 C 159.063,217.500 159.654,215.725 160.563,219.000" stroke-width="4.443" stroke="black" fill="none" stroke-linecap="round"></path><path d="M 160.563,219.000 C 163.563,219.000 162.063,220.500 166.563,219.000" stroke-width="4.628" stroke="black" fill="none" stroke-linecap="round"></path><path d="M 166.563,219.000 C 171.780,220.087 171.563,219.000 176.563,219.000" stroke-width="3.745" stroke="black" fill="none" stroke-linecap="round"></path><path d="M 176.563,219.000 C 182.602,216.591 182.780,217.587 188.563,214.000" stroke-width="3.336" stroke="black" fill="none" stroke-linecap="round"></path><path d="M 188.563,214.000 C 194.228,211.808 194.102,211.591 199.563,209.000" stroke-width="3.302" stroke="black" fill="none" stroke-linecap="round"></path><path d="M 199.563,209.000 C 203.733,206.735 203.728,206.808 207.563,204.000" stroke-width="3.565" stroke="black" fill="none" stroke-linecap="round"></path><path d="M 207.563,204.000 C 210.986,201.863 210.733,201.735 213.563,199.000" stroke-width="3.658" stroke="black" fill="none" stroke-linecap="round"></path><path d="M 213.563,199.000 C 217.852,194.921 215.486,196.863 216.563,194.000" stroke-width="4.519" stroke="black" fill="none" stroke-linecap="round"></path><path d="M 216.563,194.000 C 211.349,192.992 214.352,192.421 206.563,194.000" stroke-width="4.353" stroke="black" fill="none" stroke-linecap="round"></path><path d="M 206.563,194.000 C 201.137,194.976 201.849,194.992 197.563,198.000" stroke-width="4.338" stroke="black" fill="none" stroke-linecap="round"></path><path d="M 197.563,198.000 C 194.162,201.403 194.637,200.476 193.563,205.000" stroke-width="4.464" stroke="black" fill="none" stroke-linecap="round"></path><path d="M 193.563,205.000 C 193.560,208.799 193.162,207.403 195.563,210.000" stroke-width="5.141" stroke="black" fill="none" stroke-linecap="round"></path><path d="M 195.563,210.000 C 199.559,211.000 198.560,211.799 203.563,211.000" stroke-width="4.929" stroke="black" fill="none" stroke-linecap="round"></path><path d="M 203.563,211.000 C 208.392,211.564 208.059,211.000 212.563,210.000" stroke-width="3.910" stroke="black" fill="none" stroke-linecap="round"></path><path d="M 212.563,210.000 C 220.669,206.924 220.392,207.064 227.563,202.000" stroke-width="3.071" stroke="black" fill="none" stroke-linecap="round"></path><path d="M 227.563,202.000 C 244.979,188.982 245.169,189.424 261.563,175.000" stroke-width="2.624" stroke="black" fill="none" stroke-linecap="round"></path><path d="M 261.563,175.000 C 270.441,167.368 270.479,167.482 278.563,159.000" stroke-width="2.379" stroke="black" fill="none" stroke-linecap="round"></path><path d="M 278.563,159.000 C 286.563,150.000 286.941,150.368 294.563,141.000" stroke-width="2.398" stroke="black" fill="none" stroke-linecap="round"></path><path d="M 294.563,141.000 C 302.829,132.221 302.563,132.000 310.563,123.000" stroke-width="2.455" stroke="black" fill="none" stroke-linecap="round"></path><path d="M 310.563,123.000 C 315.473,116.429 315.829,116.721 320.563,110.000" stroke-width="2.613" stroke="black" fill="none" stroke-linecap="round"></path><path d="M 320.563,110.000 C 325.160,104.576 324.973,104.429 329.563,99.000" stroke-width="2.913" stroke="black" fill="none" stroke-linecap="round"></path><path d="M 329.563,99.000 C 332.869,95.190 332.660,95.076 335.563,91.000" stroke-width="3.276" stroke="black" fill="none" stroke-linecap="round"></path><path d="M 335.563,91.000 C 337.426,88.125 337.369,88.190 338.563,85.000" stroke-width="3.729" stroke="black" fill="none" stroke-linecap="round"></path><path d="M 338.563,85.000 C 340.711,81.149 339.426,82.625 339.563,80.000" stroke-width="4.462" stroke="black" fill="none" stroke-linecap="round"></path><path d="M 339.563,80.000 C 336.100,78.539 338.211,78.649 333.563,80.000" stroke-width="4.141" stroke="black" fill="none" stroke-linecap="round"></path><path d="M 333.563,80.000 C 319.392,88.681 319.600,88.039 306.563,99.000" stroke-width="3.215" stroke="black" fill="none" stroke-linecap="round"></path><path d="M 306.563,99.000 C 296.812,107.750 296.392,107.181 287.563,117.000" stroke-width="2.443" stroke="black" fill="none" stroke-linecap="round"></path><path d="M 287.563,117.000 C 279.691,125.625 279.312,125.250 271.563,134.000" stroke-width="2.332" stroke="black" fill="none" stroke-linecap="round"></path><path d="M 271.563,134.000 C 262.652,142.127 263.191,142.625 254.563,151.000" stroke-width="2.331" stroke="black" fill="none" stroke-linecap="round"></path><path d="M 254.563,151.000 C 247.506,159.454 247.152,159.127 240.563,168.000" stroke-width="2.467" stroke="black" fill="none" stroke-linecap="round"></path><path d="M 240.563,168.000 C 234.282,175.292 234.506,175.454 228.563,183.000" stroke-width="2.586" stroke="black" fill="none" stroke-linecap="round"></path><path d="M 228.563,183.000 C 223.173,191.079 222.782,190.792 217.563,199.000" stroke-width="2.554" stroke="black" fill="none" stroke-linecap="round"></path><path d="M 217.563,199.000 C 214.256,202.810 214.673,203.079 211.563,207.000" stroke-width="3.174" stroke="black" fill="none" stroke-linecap="round"></path><path d="M 211.563,207.000 C 210.167,210.058 209.756,209.810 208.563,213.000" stroke-width="3.730" stroke="black" fill="none" stroke-linecap="round"></path><path d="M 208.563,213.000 C 204.303,218.560 207.167,215.558 205.563,218.000" stroke-width="4.421" stroke="black" fill="none" stroke-linecap="round"></path><path d="M 205.563,218.000 C 211.073,212.708 208.803,216.560 217.563,209.000" stroke-width="4.277" stroke="black" fill="none" stroke-linecap="round"></path><path d="M 217.563,209.000 C 232.495,201.359 232.073,200.708 247.563,194.000" stroke-width="3.151" stroke="black" fill="none" stroke-linecap="round"></path><path d="M 247.563,194.000 C 254.105,191.088 253.995,190.859 260.563,188.000" stroke-width="3.082" stroke="black" fill="none" stroke-linecap="round"></path><path d="M 260.563,188.000 C 265.423,185.164 265.605,185.588 270.563,183.000" stroke-width="3.239" stroke="black" fill="none" stroke-linecap="round"></path><path d="M 270.563,183.000 C 280.209,178.060 274.923,181.164 279.563,180.000" stroke-width="3.582" stroke="black" fill="none" stroke-linecap="round"></path><path d="M 279.563,180.000 C 273.290,187.712 278.209,184.060 266.563,195.000" stroke-width="4.123" stroke="black" fill="none" stroke-linecap="round"></path><path d="M 266.563,195.000 C 261.063,200.500 261.290,200.712 255.563,206.000" stroke-width="3.281" stroke="black" fill="none" stroke-linecap="round"></path><path d="M 255.563,206.000 C 252.265,208.756 252.563,209.000 249.563,212.000" stroke-width="3.548" stroke="black" fill="none" stroke-linecap="round"></path><path d="M 249.563,212.000 C 243.758,217.850 247.265,214.756 245.563,218.000" stroke-width="3.820" stroke="black" fill="none" stroke-linecap="round"></path><path d="M 245.563,218.000 C 254.089,216.623 249.758,218.350 261.563,213.000" stroke-width="4.114" stroke="black" fill="none" stroke-linecap="round"></path><path d="M 261.563,213.000 C 270.450,208.019 270.589,208.623 278.563,202.000" stroke-width="2.894" stroke="black" fill="none" stroke-linecap="round"></path><path d="M 278.563,202.000 C 285.456,195.870 285.950,196.519 292.563,190.000" stroke-width="2.812" stroke="black" fill="none" stroke-linecap="round"></path><path d="M 292.563,190.000 C 297.080,186.522 296.956,186.370 301.563,183.000" stroke-width="3.179" stroke="black" fill="none" stroke-linecap="round"></path><path d="M 301.563,183.000 C 307.241,177.644 304.080,181.022 306.563,179.000" stroke-width="4.139" stroke="black" fill="none" stroke-linecap="round"></path><path d="M 306.563,179.000 C 301.721,186.122 304.741,182.644 296.563,193.000" stroke-width="3.948" stroke="black" fill="none" stroke-linecap="round"></path><path d="M 296.563,193.000 C 293.714,195.772 294.221,196.122 291.563,199.000" stroke-width="3.829" stroke="black" fill="none" stroke-linecap="round"></path><path d="M 291.563,199.000 C 287.161,203.999 289.714,201.772 288.563,205.000" stroke-width="4.053" stroke="black" fill="none" stroke-linecap="round"></path><path d="M 288.563,205.000 C 294.051,205.754 290.661,206.499 298.563,204.000" stroke-width="4.593" stroke="black" fill="none" stroke-linecap="round"></path><path d="M 298.563,204.000 C 302.446,200.830 303.051,202.254 306.563,198.000" stroke-width="3.738" stroke="black" fill="none" stroke-linecap="round"></path><path d="M 306.563,198.000 C 310.812,195.813 310.446,195.330 314.563,193.000" stroke-width="3.596" stroke="black" fill="none" stroke-linecap="round"></path><path d="M 314.563,193.000 C 318.846,187.726 316.812,191.313 318.563,189.000" stroke-width="4.083" stroke="black" fill="none" stroke-linecap="round"></path><path d="M 318.563,189.000 C 315.980,195.734 317.846,192.226 312.563,202.000" stroke-width="4.429" stroke="black" fill="none" stroke-linecap="round"></path><path d="M 312.563,202.000 C 309.203,206.305 309.980,206.734 306.563,211.000" stroke-width="3.685" stroke="black" fill="none" stroke-linecap="round"></path><path d="M 306.563,211.000 C 304.841,214.421 304.703,214.305 303.563,218.000" stroke-width="4.279" stroke="black" fill="none" stroke-linecap="round"></path><path d="M 303.563,218.000 C 300.156,223.828 302.341,221.421 301.563,225.000" stroke-width="3.981" stroke="black" fill="none" stroke-linecap="round"></path><path d="M 301.563,225.000 C 306.015,224.951 303.156,226.328 309.563,223.000" stroke-width="4.827" stroke="black" fill="none" stroke-linecap="round"></path><path d="M 309.563,223.000 C 315.633,218.591 316.015,219.451 321.563,214.000" stroke-width="3.374" stroke="black" fill="none" stroke-linecap="round"></path><path d="M 321.563,214.000 C 331.233,206.707 331.133,206.591 340.563,199.000" stroke-width="2.560" stroke="black" fill="none" stroke-linecap="round"></path><path d="M 340.563,199.000 C 354.282,187.748 354.233,187.707 367.563,176.000" stroke-width="1.932" stroke="black" fill="none" stroke-linecap="round"></path><path d="M 367.563,176.000 C 380.063,164.500 380.282,164.748 392.563,153.000" stroke-width="1.893" stroke="black" fill="none" stroke-linecap="round"></path><path d="M 392.563,153.000 C 405.567,141.996 405.063,141.500 417.563,130.000" stroke-width="1.828" stroke="black" fill="none" stroke-linecap="round"></path><path d="M 417.563,130.000 C 425.801,121.199 426.067,121.496 433.563,112.000" stroke-width="2.151" stroke="black" fill="none" stroke-linecap="round"></path><path d="M 433.563,112.000 C 439.507,105.302 439.301,105.199 444.563,98.000" stroke-width="2.536" stroke="black" fill="none" stroke-linecap="round"></path><path d="M 444.563,98.000 C 448.467,92.192 448.507,92.302 451.563,86.000" stroke-width="2.851" stroke="black" fill="none" stroke-linecap="round"></path><path d="M 451.563,86.000 C 453.394,82.089 453.467,82.192 454.563,78.000" stroke-width="3.422" stroke="black" fill="none" stroke-linecap="round"></path><path d="M 454.563,78.000 C 455.019,74.992 455.394,75.089 455.563,72.000" stroke-width="3.897" stroke="black" fill="none" stroke-linecap="round"></path><path d="M 455.563,72.000 C 458.009,67.904 456.019,69.492 456.563,67.000" stroke-width="4.188" stroke="black" fill="none" stroke-linecap="round"></path><path d="M 456.563,67.000 C 451.178,64.864 454.009,65.404 447.563,67.000" stroke-width="4.694" stroke="black" fill="none" stroke-linecap="round"></path><path d="M 447.563,67.000 C 440.840,73.290 440.178,71.364 434.563,80.000" stroke-width="3.097" stroke="black" fill="none" stroke-linecap="round"></path><path d="M 434.563,80.000 C 426.324,88.801 426.340,88.790 418.563,98.000" stroke-width="2.515" stroke="black" fill="none" stroke-linecap="round"></path><path d="M 418.563,98.000 C 412.903,104.879 412.824,104.801 407.563,112.000" stroke-width="2.616" stroke="black" fill="none" stroke-linecap="round"></path><path d="M 407.563,112.000 C 399.768,123.157 399.403,122.879 391.563,134.000" stroke-width="2.282" stroke="black" fill="none" stroke-linecap="round"></path><path d="M 391.563,134.000 C 385.531,141.475 385.768,141.657 379.563,149.000" stroke-width="2.467" stroke="black" fill="none" stroke-linecap="round"></path><path d="M 379.563,149.000 C 374.063,156.000 374.031,155.975 368.563,163.000" stroke-width="2.601" stroke="black" fill="none" stroke-linecap="round"></path><path d="M 368.563,163.000 C 363.123,170.049 363.063,170.000 357.563,177.000" stroke-width="2.644" stroke="black" fill="none" stroke-linecap="round"></path><path d="M 357.563,177.000 C 352.710,182.257 353.123,182.549 348.563,188.000" stroke-width="2.870" stroke="black" fill="none" stroke-linecap="round"></path><path d="M 348.563,188.000 C 346.473,191.452 346.210,191.257 344.563,195.000" stroke-width="3.472" stroke="black" fill="none" stroke-linecap="round"></path><path d="M 344.563,195.000 C 342.699,197.875 342.973,197.952 341.563,201.000" stroke-width="3.802" stroke="black" fill="none" stroke-linecap="round"></path><path d="M 341.563,201.000 C 339.527,204.136 340.699,203.375 340.563,206.000" stroke-width="4.504" stroke="black" fill="none" stroke-linecap="round"></path><path d="M 340.563,206.000 C 343.281,208.738 342.027,208.636 346.563,210.000" stroke-width="4.564" stroke="black" fill="none" stroke-linecap="round"></path><path d="M 346.563,210.000 C 350.055,210.562 349.781,211.238 353.563,211.000" stroke-width="4.133" stroke="black" fill="none" stroke-linecap="round"></path><path d="M 353.563,211.000 C 358.063,211.500 358.055,211.562 362.563,212.000" stroke-width="3.798" stroke="black" fill="none" stroke-linecap="round"></path><path d="M 362.563,212.000 C 367.189,211.971 367.063,212.500 371.563,213.000" stroke-width="3.707" stroke="black" fill="none" stroke-linecap="round"></path><path d="M 371.563,213.000 C 375.575,214.467 375.689,213.971 379.563,216.000" stroke-width="3.679" stroke="black" fill="none" stroke-linecap="round"></path><path d="M 379.563,216.000 C 382.953,216.160 382.075,216.967 384.563,218.000" stroke-width="4.075" stroke="black" fill="none" stroke-linecap="round"></path><path d="M 384.563,218.000 C 386.088,220.915 386.453,220.160 386.563,224.000" stroke-width="4.520" stroke="black" fill="none" stroke-linecap="round"></path><path d="M 386.563,224.000 C 387.952,228.022 387.088,227.415 386.563,231.000" stroke-width="4.131" stroke="black" fill="none" stroke-linecap="round"></path><path d="M 386.563,231.000 C 383.488,235.448 384.452,235.522 379.563,239.000" stroke-width="3.575" stroke="black" fill="none" stroke-linecap="round"></path><path d="M 379.563,239.000 C 373.012,245.180 372.988,244.948 365.563,250.000" stroke-width="2.883" stroke="black" fill="none" stroke-linecap="round"></path><path d="M 365.563,250.000 C 355.960,256.379 356.012,256.180 345.563,261.000" stroke-width="2.463" stroke="black" fill="none" stroke-linecap="round"></path><path d="M 345.563,261.000 C 333.274,266.187 333.460,266.379 320.563,270.000" stroke-width="2.269" stroke="black" fill="none" stroke-linecap="round"></path><path d="M 320.563,270.000 C 303.315,275.923 303.274,275.187 285.563,279.000" stroke-width="1.919" stroke="black" fill="none" stroke-linecap="round"></path><path d="M 285.563,279.000 C 265.602,281.534 265.815,282.423 245.563,283.000" stroke-width="1.628" stroke="black" fill="none" stroke-linecap="round"></path><path d="M 245.563,283.000 C 224.574,284.494 224.602,284.534 203.563,285.000" stroke-width="1.622" stroke="black" fill="none" stroke-linecap="round"></path><path d="M 203.563,285.000 C 183.034,285.758 183.074,285.494 162.563,285.000" stroke-width="1.641" stroke="black" fill="none" stroke-linecap="round"></path><path d="M 162.563,285.000 C 142.068,285.846 142.534,284.258 122.563,282.000" stroke-width="1.664" stroke="black" fill="none" stroke-linecap="round"></path><path d="M 122.563,282.000 C 105.964,278.489 106.568,278.846 91.563,271.000" stroke-width="1.879" stroke="black" fill="none" stroke-linecap="round"></path><path d="M 91.563,271.000 C 80.525,264.815 80.964,265.489 72.563,256.000" stroke-width="2.117" stroke="black" fill="none" stroke-linecap="round"></path><path d="M 72.563,256.000 C 66.176,248.646 66.525,249.315 63.563,240.000" stroke-width="2.497" stroke="black" fill="none" stroke-linecap="round"></path><path d="M 63.563,240.000 C 60.330,226.567 59.676,227.146 59.563,213.000" stroke-width="2.189" stroke="black" fill="none" stroke-linecap="round"></path><path d="M 59.563,213.000 C 57.361,199.349 58.830,200.067 60.563,187.000" stroke-width="2.212" stroke="black" fill="none" stroke-linecap="round"></path><path d="M 60.563,187.000 C 64.848,171.513 64.361,172.349 73.563,159.000" stroke-width="1.999" stroke="black" fill="none" stroke-linecap="round"></path><path d="M 73.563,159.000 C 85.062,143.211 84.348,143.513 99.563,131.000" stroke-width="1.804" stroke="black" fill="none" stroke-linecap="round"></path><path d="M 99.563,131.000 C 114.006,118.818 113.562,119.211 130.563,111.000" stroke-width="1.731" stroke="black" fill="none" stroke-linecap="round"></path><path d="M 130.563,111.000 C 150.644,102.447 150.006,101.818 171.563,97.000" stroke-width="1.626" stroke="black" fill="none" stroke-linecap="round"></path><path d="M 171.563,97.000 C 198.915,90.608 198.644,89.947 226.563,86.000" stroke-width="1.390" stroke="black" fill="none" stroke-linecap="round"></path><path d="M 226.563,86.000 C 252.959,81.280 252.915,81.608 279.563,79.000" stroke-width="1.409" stroke="black" fill="none" stroke-linecap="round"></path><path d="M 279.563,79.000 C 305.553,77.515 305.459,76.780 331.563,77.000" stroke-width="1.392" stroke="black" fill="none" stroke-linecap="round"></path><path d="M 331.563,77.000 C 356.095,76.166 356.053,76.515 380.563,77.000" stroke-width="1.431" stroke="black" fill="none" stroke-linecap="round"></path><path d="M 380.563,77.000 C 400.421,76.622 400.095,77.666 419.563,80.000" stroke-width="1.612" stroke="black" fill="none" stroke-linecap="round"></path><path d="M 419.563,80.000 C 434.619,83.241 434.421,82.622 448.563,89.000" stroke-width="1.877" stroke="black" fill="none" stroke-linecap="round"></path><path d="M 448.563,89.000 C 457.958,92.980 457.619,92.741 465.563,99.000" stroke-width="2.285" stroke="black" fill="none" stroke-linecap="round"></path><path d="M 465.563,99.000 C 472.757,103.134 469.958,102.480 472.563,108.000" stroke-width="2.903" stroke="black" fill="none" stroke-linecap="round"></path><path d="M 472.563,108.000 C 471.326,118.707 472.257,115.634 464.563,124.000" stroke-width="2.788" stroke="black" fill="none" stroke-linecap="round"></path><path d="M 464.563,124.000 C 446.042,135.026 448.326,136.707 426.563,144.000" stroke-width="1.767" stroke="black" fill="none" stroke-linecap="round"></path><path d="M 426.563,144.000 C 401.462,155.605 401.542,155.526 375.563,165.000" stroke-width="1.433" stroke="black" fill="none" stroke-linecap="round"></path><path d="M 375.563,165.000 C 350.268,173.730 350.462,174.105 324.563,181.000" stroke-width="1.422" stroke="black" fill="none" stroke-linecap="round"></path><path d="M 324.563,181.000 C 300.654,187.397 300.768,187.730 276.563,193.000" stroke-width="1.290" stroke="black" fill="none" stroke-linecap="round"></path><path d="M 276.563,193.000 C 257.611,197.248 257.654,197.397 238.563,201.000" stroke-width="1.517" stroke="black" fill="none" stroke-linecap="round"></path><path d="M 238.563,201.000 C 224.640,204.164 224.611,203.748 210.563,206.000" stroke-width="1.885" stroke="black" fill="none" stroke-linecap="round"></path><path d="M 210.563,206.000 C 199.045,209.161 201.640,207.164 192.563,207.000" stroke-width="2.407" stroke="black" fill="none" stroke-linecap="round"></path><path d="M 422.563,208.000 C 431.861,208.958 431.563,207.500 440.563,207.000" stroke-width="5.006" stroke="black" fill="none" stroke-linecap="round"></path><path d="M 440.563,207.000 C 451.737,203.428 451.861,204.458 462.563,199.000" stroke-width="2.811" stroke="black" fill="none" stroke-linecap="round"></path><path d="M 462.563,199.000 C 473.583,194.045 473.737,194.428 484.563,189.000" stroke-width="2.386" stroke="black" fill="none" stroke-linecap="round"></path><path d="M 484.563,189.000 C 491.947,185.222 492.083,185.545 499.563,182.000" stroke-width="2.639" stroke="black" fill="none" stroke-linecap="round"></path><path d="M 499.563,182.000 C 508.490,177.112 504.947,179.722 510.563,178.000" stroke-width="3.088" stroke="black" fill="none" stroke-linecap="round"></path><path d="M 510.563,178.000 C 509.233,182.032 511.990,178.612 506.563,185.000" stroke-width="4.138" stroke="black" fill="none" stroke-linecap="round"></path><path d="M 506.563,185.000 C 499.845,191.838 500.233,192.032 492.563,198.000" stroke-width="2.969" stroke="black" fill="none" stroke-linecap="round"></path><path d="M 492.563,198.000 C 486.152,202.068 486.845,202.838 480.563,207.000" stroke-width="2.983" stroke="black" fill="none" stroke-linecap="round"></path><path d="M 480.563,207.000 C 477.378,209.672 477.652,209.568 475.563,213.000" stroke-width="3.499" stroke="black" fill="none" stroke-linecap="round"></path><path d="M 475.563,213.000 C 472.547,217.562 474.378,215.172 474.563,218.000" stroke-width="4.040" stroke="black" fill="none" stroke-linecap="round"></path><path d="M 474.563,218.000 C 486.829,219.840 484.047,220.062 498.563,218.000" stroke-width="3.490" stroke="black" fill="none" stroke-linecap="round"></path><path d="M 498.563,218.000 C 512.025,213.868 512.329,215.840 525.563,210.000" stroke-width="2.329" stroke="black" fill="none" stroke-linecap="round"></path><path d="M 525.563,210.000 C 540.051,205.958 540.025,205.868 554.563,202.000" stroke-width="2.112" stroke="black" fill="none" stroke-linecap="round"></path><path d="M 554.563,202.000 C 567.428,197.815 567.551,198.458 580.563,195.000" stroke-width="2.157" stroke="black" fill="none" stroke-linecap="round"></path><path d="M 580.563,195.000 C 588.539,193.617 588.428,193.315 596.563,193.000" stroke-width="2.571" stroke="black" fill="none" stroke-linecap="round"></path><path d="M 596.563,193.000 C 601.580,192.723 601.539,192.617 606.563,193.000" stroke-width="3.181" stroke="black" fill="none" stroke-linecap="round"></path><path d="M 606.563,193.000 C 612.421,191.859 610.580,193.223 614.563,194.000" stroke-width="4.028" stroke="black" fill="none" stroke-linecap="round"></path><path d="M 614.563,194.000 C 614.345,197.512 616.421,195.859 614.563,201.000" stroke-width="3.947" stroke="black" fill="none" stroke-linecap="round"></path><path d="M 614.563,201.000 C 613.681,206.551 614.845,205.512 615.563,210.000" stroke-width="4.263" stroke="black" fill="none" stroke-linecap="round"></path><path d="M 615.563,210.000 C 617.937,211.650 616.681,212.051 620.563,212.000" stroke-width="4.269" stroke="black" fill="none" stroke-linecap="round"></path><path d="M 620.563,212.000 C 625.563,212.000 625.437,212.650 630.563,212.000" stroke-width="3.670" stroke="black" fill="none" stroke-linecap="round"></path><path d="M 630.563,212.000 C 634.563,212.000 634.563,212.000 638.563,212.000" stroke-width="3.777" stroke="black" fill="none" stroke-linecap="round"></path><path d="M 638.563,212.000 C 643.563,212.000 643.563,212.000 648.563,212.000" stroke-width="3.609" stroke="black" fill="none" stroke-linecap="round"></path><path d="M 648.563,212.000 C 654.991,212.000 651.563,212.000 654.563,212.000" stroke-width="4.369" stroke="black" fill="none" stroke-linecap="round"></path><path d="M 654.563,212.000 C 650.563,212.000 653.991,212.000 646.563,212.000" stroke-width="4.496" stroke="black" fill="none" stroke-linecap="round"></path><path d="M 646.563,212.000 C 637.563,212.000 637.563,212.000 628.563,212.000" stroke-width="3.097" stroke="black" fill="none" stroke-linecap="round"></path><path d="M 628.563,212.000 C 617.063,212.000 617.063,212.000 605.563,212.000" stroke-width="2.566" stroke="black" fill="none" stroke-linecap="round"></path><path d="M 605.563,212.000 C 591.060,211.787 591.063,212.000 576.563,212.000" stroke-width="2.204" stroke="black" fill="none" stroke-linecap="round"></path><path d="M 576.563,212.000 C 556.983,211.487 557.060,212.287 537.563,213.000" stroke-width="1.831" stroke="black" fill="none" stroke-linecap="round"></path><path d="M 537.563,213.000 C 518.606,215.884 518.483,214.487 499.563,218.000" stroke-width="1.705" stroke="black" fill="none" stroke-linecap="round"></path><path d="M 499.563,218.000 C 478.056,219.928 478.106,220.384 456.563,222.000" stroke-width="1.572" stroke="black" fill="none" stroke-linecap="round"></path><path d="M 456.563,222.000 C 436.552,223.896 436.556,223.928 416.563,226.000" stroke-width="1.640" stroke="black" fill="none" stroke-linecap="round"></path><path d="M 416.563,226.000 C 398.611,228.872 398.552,227.896 380.563,230.000" stroke-width="1.793" stroke="black" fill="none" stroke-linecap="round"></path><path d="M 380.563,230.000 C 366.563,230.000 366.611,230.872 352.563,230.000" stroke-width="1.963" stroke="black" fill="none" stroke-linecap="round"></path><path d="M 352.563,230.000 C 340.563,230.000 340.563,230.000 328.563,230.000" stroke-width="2.208" stroke="black" fill="none" stroke-linecap="round"></path><path d="M 328.563,230.000 C 320.063,230.000 320.063,230.000 311.563,230.000" stroke-width="2.547" stroke="black" fill="none" stroke-linecap="round"></path></svg>