<svg xmlns="http://www.w3.org/2000/svg" xmlns:xlink="http://www.w3.org/1999/xlink" viewBox="0 0 664 416" width="664" height="416"><path d="M 235.563,193.000 C 230.995,192.887 231.063,192.500 226.563,192.000" stroke-width="5.139" stroke="black" fill="none" stroke-linecap="round"></path><path d="M 226.563,192.000 C 215.991,189.761 215.995,189.887 205.563,187.000" stroke-width="3.852" stroke="black" fill="none" stroke-linecap="round"></path><path d="M 205.563,187.000 C 199.039,185.073 198.991,185.261 192.563,183.000" stroke-width="3.246" stroke="black" fill="none" stroke-linecap="round"></path><path d="M 192.563,183.000 C 186.653,180.661 186.539,181.073 180.563,179.000" stroke-width="3.231" stroke="black" fill="none" stroke-linecap="round"></path><path d="M 180.563,179.000 C 175.539,178.106 175.653,177.661 170.563,177.000" stroke-width="3.371" stroke="black" fill="none" stroke-linecap="round"></path><path d="M 170.563,177.000 C 166.579,175.927 166.539,176.106 162.563,175.000" stroke-width="3.652" stroke="black" fill="none" stroke-linecap="round"></path><path d="M 162.563,175.000 C 160.063,174.500 160.079,174.427 157.563,174.000" stroke-width="4.061" stroke="black" fill="none" stroke-linecap="round"></path><path d="M 157.563,174.000 C 152.206,174.246 155.063,173.500 152.563,173.000" stroke-width="4.244" stroke="black" fill="none" stroke-linecap="round"></path><path d="M 152.563,173.000 C 155.797,169.636 153.206,170.746 159.563,167.000" stroke-width="4.952" stroke="black" fill="none" stroke-linecap="round"></path><path d="M 159.563,167.000 C 166.144,163.126 165.797,162.636 172.563,159.000" stroke-width="3.292" stroke="black" fill="none" stroke-linecap="round"></path><path d="M 172.563,159.000 C 180.063,154.000 180.144,154.126 187.563,149.000" stroke-width="2.877" stroke="black" fill="none" stroke-linecap="round"></path><path d="M 187.563,149.000 C 196.381,142.708 196.563,143.000 205.563,137.000" stroke-width="2.584" stroke="black" fill="none" stroke-linecap="round"></path><path d="M 205.563,137.000 C 215.101,131.566 214.881,131.208 224.563,126.000" stroke-width="2.492" stroke="black" fill="none" stroke-linecap="round"></path><path d="M 224.563,126.000 C 231.930,121.265 232.101,121.566 239.563,117.000" stroke-width="2.682" stroke="black" fill="none" stroke-linecap="round"></path><path d="M 239.563,117.000 C 249.068,112.011 248.930,111.765 258.563,107.000" stroke-width="2.480" stroke="black" fill="none" stroke-linecap="round"></path><path d="M 258.563,107.000 C 266.870,102.090 267.068,102.511 275.563,98.000" stroke-width="2.531" stroke="black" fill="none" stroke-linecap="round"></path><path d="M 275.563,98.000 C 284.372,95.095 283.870,94.090 292.563,91.000" stroke-width="2.649" stroke="black" fill="none" stroke-linecap="round"></path><path d="M 292.563,91.000 C 297.910,87.230 298.372,88.095 303.563,84.000" stroke-width="2.949" stroke="black" fill="none" stroke-linecap="round"></path><path d="M 303.563,84.000 C 308.501,81.362 308.410,81.230 313.563,79.000" stroke-width="3.193" stroke="black" fill="none" stroke-linecap="round"></path><path d="M 313.563,79.000 C 319.552,75.791 316.001,77.862 318.563,77.000" stroke-width="3.842" stroke="black" fill="none" stroke-linecap="round"></path><path d="M 318.563,77.000 C 311.194,83.140 315.052,81.291 304.563,90.000" stroke-width="4.192" stroke="black" fill="none" stroke-linecap="round"></path><path d="M 304.563,90.000 C 297.056,98.494 296.694,98.140 289.563,107.000" stroke-width="2.763" stroke="black" fill="none" stroke-linecap="round"></path><path d="M 289.563,107.000 C 277.683,118.820 278.556,119.494 267.563,132.000" stroke-width="2.032" stroke="black" fill="none" stroke-linecap="round"></path><path d="M 267.563,132.000 C 257.504,147.816 256.183,146.820 246.563,163.000" stroke-width="1.831" stroke="black" fill="none" stroke-linecap="round"></path><path d="M 246.563,163.000 C 232.927,181.788 233.004,181.816 218.563,200.000" stroke-width="1.592" stroke="black" fill="none" stroke-linecap="round"></path><path d="M 218.563,200.000 C 204.688,217.105 204.927,217.288 190.563,234.000" stroke-width="1.574" stroke="black" fill="none" stroke-linecap="round"></path><path d="M 190.563,234.000 C 180.251,248.674 179.188,247.605 167.563,261.000" stroke-width="1.740" stroke="black" fill="none" stroke-linecap="round"></path><path d="M 167.563,261.000 C 144.768,282.422 145.251,282.674 120.563,302.000" stroke-width="1.880" stroke="black" fill="none" stroke-linecap="round"></path><path d="M 120.563,302.000 C 110.454,309.694 110.768,309.922 99.563,316.000" stroke-width="2.082" stroke="black" fill="none" stroke-linecap="round"></path><path d="M 99.563,316.000 C 91.114,320.113 91.454,320.694 82.563,324.000" stroke-width="2.510" stroke="black" fill="none" stroke-linecap="round"></path><path d="M 82.563,324.000 C 74.423,327.215 74.614,327.613 66.563,331.000" stroke-width="2.689" stroke="black" fill="none" stroke-linecap="round"></path><path d="M 66.563,331.000 C 61.367,334.968 60.923,333.715 55.563,337.000" stroke-width="2.999" stroke="black" fill="none" stroke-linecap="round"></path><path d="M 55.563,337.000 C 51.049,337.402 51.367,338.468 46.563,338.000" stroke-width="3.391" stroke="black" fill="none" stroke-linecap="round"></path><path d="M 46.563,338.000 C 41.050,339.974 43.549,338.402 40.563,339.000" stroke-width="4.240" stroke="black" fill="none" stroke-linecap="round"></path><path d="M 40.563,339.000 C 42.513,336.459 40.050,337.974 44.563,334.000" stroke-width="4.736" stroke="black" fill="none" stroke-linecap="round"></path><path d="M 44.563,334.000 C 49.658,327.116 50.013,327.459 55.563,321.000" stroke-width="3.201" stroke="black" fill="none" stroke-linecap="round"></path><path d="M 55.563,321.000 C 64.070,313.008 63.658,312.616 72.563,305.000" stroke-width="2.502" stroke="black" fill="none" stroke-linecap="round"></path><path d="M 72.563,305.000 C 81.340,296.252 81.570,296.508 90.563,288.000" stroke-width="2.406" stroke="black" fill="none" stroke-linecap="round"></path><path d="M 90.563,288.000 C 100.614,279.560 100.340,279.252 110.563,271.000" stroke-width="2.206" stroke="black" fill="none" stroke-linecap="round"></path><path d="M 110.563,271.000 C 121.348,260.038 122.114,261.060 133.563,251.000" stroke-width="2.068" stroke="black" fill="none" stroke-linecap="round"></path><path d="M 133.563,251.000 C 147.253,242.789 146.348,241.538 160.563,234.000" stroke-width="1.988" stroke="black" fill="none" stroke-linecap="round"></path><path d="M 160.563,234.000 C 173.195,224.417 173.753,225.289 186.563,216.000" stroke-width="1.918" stroke="black" fill="none" stroke-linecap="round"></path><path d="M 186.563,216.000 C 200.076,206.965 200.195,207.417 214.563,200.000" stroke-width="1.935" stroke="black" fill="none" stroke-linecap="round"></path><path d="M 214.563,200.000 C 226.479,195.265 226.076,194.465 238.563,191.000" stroke-width="2.141" stroke="black" fill="none" stroke-linecap="round"></path><path d="M 238.563,191.000 C 251.983,186.244 251.979,186.265 265.563,182.000" stroke-width="2.114" stroke="black" fill="none" stroke-linecap="round"></path><path d="M 265.563,182.000 C 276.216,179.449 275.983,178.744 286.563,176.000" stroke-width="2.346" stroke="black" fill="none" stroke-linecap="round"></path><path d="M 286.563,176.000 C 293.969,172.734 294.216,173.449 301.563,170.000" stroke-width="2.646" stroke="black" fill="none" stroke-linecap="round"></path><path d="M 301.563,170.000 C 306.779,169.014 306.469,168.234 311.563,167.000" stroke-width="3.182" stroke="black" fill="none" stroke-linecap="round"></path><path d="M 311.563,167.000 C 319.249,164.298 316.279,165.014 320.563,162.000" stroke-width="3.865" stroke="black" fill="none" stroke-linecap="round"></path><path d="M 320.563,162.000 C 318.127,159.730 321.249,160.798 315.563,160.000" stroke-width="4.641" stroke="black" fill="none" stroke-linecap="round"></path><path d="M 315.563,160.000 C 308.230,161.171 308.627,160.730 301.563,164.000" stroke-width="3.451" stroke="black" fill="none" stroke-linecap="round"></path><path d="M 301.563,164.000 C 291.534,168.181 291.730,168.171 282.563,174.000" stroke-width="2.643" stroke="black" fill="none" stroke-linecap="round"></path><path d="M 282.563,174.000 C 272.592,179.970 273.034,180.181 264.563,188.000" stroke-width="3.134" stroke="black" fill="none" stroke-linecap="round"></path><path d="M 264.563,188.000 C 249.443,204.035 249.092,203.470 235.563,221.000" stroke-width="1.846" stroke="black" fill="none" stroke-linecap="round"></path><path d="M 235.563,221.000 C 230.985,226.078 231.443,226.035 228.563,232.000" stroke-width="2.615" stroke="black" fill="none" stroke-linecap="round"></path><path d="M 228.563,232.000 C 227.177,237.465 226.485,237.078 226.563,243.000" stroke-width="3.115" stroke="black" fill="none" stroke-linecap="round"></path><path d="M 226.563,243.000 C 224.007,248.924 226.177,246.465 226.563,250.000" stroke-width="3.634" stroke="black" fill="none" stroke-linecap="round"></path><path d="M 226.563,250.000 C 236.161,251.855 233.507,252.924 245.563,251.000" stroke-width="3.559" stroke="black" fill="none" stroke-linecap="round"></path><path d="M 245.563,251.000 C 258.776,250.420 258.161,249.855 270.563,246.000" stroke-width="2.529" stroke="black" fill="none" stroke-linecap="round"></path><path d="M 270.563,246.000 C 282.686,240.416 282.776,241.420 293.563,233.000" stroke-width="2.291" stroke="black" fill="none" stroke-linecap="round"></path><path d="M 293.563,233.000 C 304.494,224.980 304.686,225.416 314.563,216.000" stroke-width="2.207" stroke="black" fill="none" stroke-linecap="round"></path><path d="M 314.563,216.000 C 323.556,208.759 322.994,208.480 330.563,200.000" stroke-width="2.347" stroke="black" fill="none" stroke-linecap="round"></path><path d="M 330.563,200.000 C 334.838,193.139 335.556,193.759 338.563,186.000" stroke-width="2.701" stroke="black" fill="none" stroke-linecap="round"></path><path d="M 338.563,186.000 C 341.107,181.657 340.838,181.639 342.563,177.000" stroke-width="3.204" stroke="black" fill="none" stroke-linecap="round"></path><path d="M 342.563,177.000 C 345.834,171.514 343.607,173.657 343.563,170.000" stroke-width="3.662" stroke="black" fill="none" stroke-linecap="round"></path><path d="M 343.563,170.000 C 334.649,165.045 338.334,166.514 327.563,167.000" stroke-width="4.050" stroke="black" fill="none" stroke-linecap="round"></path><path d="M 327.563,167.000 C 320.556,172.007 320.149,169.045 314.563,178.000" stroke-width="3.094" stroke="black" fill="none" stroke-linecap="round"></path><path d="M 314.563,178.000 C 310.160,182.724 310.056,182.507 306.563,188.000" stroke-width="3.052" stroke="black" fill="none" stroke-linecap="round"></path><path d="M 306.563,188.000 C 303.043,193.989 302.660,193.724 299.563,200.000" stroke-width="3.187" stroke="black" fill="none" stroke-linecap="round"></path><path d="M 299.563,200.000 C 297.244,203.357 297.543,203.489 295.563,207.000" stroke-width="3.503" stroke="black" fill="none" stroke-linecap="round"></path><path d="M 295.563,207.000 C 292.563,211.000 294.244,209.857 293.563,213.000" stroke-width="3.901" stroke="black" fill="none" stroke-linecap="round"></path><path d="M 293.563,213.000 C 296.541,215.000 294.563,215.000 299.563,215.000" stroke-width="4.696" stroke="black" fill="none" stroke-linecap="round"></path><path d="M 299.563,215.000 C 303.034,213.882 303.041,215.000 306.563,213.000" stroke-width="4.616" stroke="black" fill="none" stroke-linecap="round"></path><path d="M 306.563,213.000 C 309.958,210.797 309.034,212.382 311.563,212.000" stroke-width="4.941" stroke="black" fill="none" stroke-linecap="round"></path><path d="M 311.563,212.000 C 311.957,217.176 313.958,213.797 314.563,219.000" stroke-width="5.028" stroke="black" fill="none" stroke-linecap="round"></path><path d="M 314.563,219.000 C 318.103,219.407 316.957,220.676 321.563,219.000" stroke-width="4.301" stroke="black" fill="none" stroke-linecap="round"></path><path d="M 321.563,219.000 C 327.459,219.780 326.603,218.407 331.563,217.000" stroke-width="3.656" stroke="black" fill="none" stroke-linecap="round"></path><path d="M 331.563,217.000 C 342.678,208.109 342.959,209.280 352.563,198.000" stroke-width="2.417" stroke="black" fill="none" stroke-linecap="round"></path><path d="M 352.563,198.000 C 364.392,185.279 364.678,185.609 375.563,172.000" stroke-width="1.989" stroke="black" fill="none" stroke-linecap="round"></path><path d="M 375.563,172.000 C 390.996,153.835 390.892,153.779 405.563,135.000" stroke-width="1.549" stroke="black" fill="none" stroke-linecap="round"></path><path d="M 405.563,135.000 C 419.682,116.086 419.996,116.335 433.563,97.000" stroke-width="1.459" stroke="black" fill="none" stroke-linecap="round"></path><path d="M 433.563,97.000 C 443.460,82.925 443.682,83.086 453.563,69.000" stroke-width="1.718" stroke="black" fill="none" stroke-linecap="round"></path><path d="M 453.563,69.000 C 461.983,57.440 461.960,57.425 470.563,46.000" stroke-width="1.865" stroke="black" fill="none" stroke-linecap="round"></path><path d="M 470.563,46.000 C 475.030,38.902 475.483,39.440 480.563,33.000" stroke-width="2.422" stroke="black" fill="none" stroke-linecap="round"></path><path d="M 480.563,33.000 C 486.168,27.957 482.530,30.902 485.563,30.000" stroke-width="3.405" stroke="black" fill="none" stroke-linecap="round"></path><path d="M 485.563,30.000 C 480.981,46.099 482.168,41.457 472.563,60.000" stroke-width="3.041" stroke="black" fill="none" stroke-linecap="round"></path><path d="M 472.563,60.000 C 457.647,80.563 459.481,81.599 442.563,101.000" stroke-width="1.618" stroke="black" fill="none" stroke-linecap="round"></path><path d="M 442.563,101.000 C 426.450,122.417 426.647,122.563 410.563,144.000" stroke-width="1.376" stroke="black" fill="none" stroke-linecap="round"></path><path d="M 410.563,144.000 C 399.345,158.039 399.950,158.417 389.563,173.000" stroke-width="1.610" stroke="black" fill="none" stroke-linecap="round"></path><path d="M 389.563,173.000 C 382.842,184.383 382.345,184.039 376.563,196.000" stroke-width="1.937" stroke="black" fill="none" stroke-linecap="round"></path><path d="M 376.563,196.000 C 365.461,210.684 372.842,202.883 369.563,210.000" stroke-width="2.539" stroke="black" fill="none" stroke-linecap="round"></path><path d="M 369.563,210.000 C 389.614,202.770 380.461,208.184 406.563,191.000" stroke-width="2.889" stroke="black" fill="none" stroke-linecap="round"></path><path d="M 406.563,191.000 C 424.048,175.484 425.614,177.770 441.563,160.000" stroke-width="1.689" stroke="black" fill="none" stroke-linecap="round"></path><path d="M 441.563,160.000 C 458.776,145.233 458.548,144.984 475.563,130.000" stroke-width="1.577" stroke="black" fill="none" stroke-linecap="round"></path><path d="M 475.563,130.000 C 485.360,120.275 485.776,120.733 495.563,111.000" stroke-width="1.936" stroke="black" fill="none" stroke-linecap="round"></path><path d="M 495.563,111.000 C 510.868,95.020 501.860,105.275 508.563,100.000" stroke-width="2.475" stroke="black" fill="none" stroke-linecap="round"></path><path d="M 508.563,100.000 C 489.773,132.626 498.368,122.020 470.563,165.000" stroke-width="2.580" stroke="black" fill="none" stroke-linecap="round"></path><path d="M 470.563,165.000 C 461.878,177.642 462.773,178.126 454.563,191.000" stroke-width="2.154" stroke="black" fill="none" stroke-linecap="round"></path><path d="M 454.563,191.000 C 450.299,198.790 450.378,198.642 447.563,207.000" stroke-width="2.554" stroke="black" fill="none" stroke-linecap="round"></path><path d="M 447.563,207.000 C 444.422,214.221 446.299,210.790 446.563,215.000" stroke-width="3.323" stroke="black" fill="none" stroke-linecap="round"></path><path d="M 446.563,215.000 C 453.822,214.950 449.922,216.221 458.563,211.000" stroke-width="3.811" stroke="black" fill="none" stroke-linecap="round"></path><path d="M 458.563,211.000 C 470.714,198.136 471.822,199.950 482.563,185.000" stroke-width="2.164" stroke="black" fill="none" stroke-linecap="round"></path><path d="M 482.563,185.000 C 493.556,172.494 493.714,172.636 504.563,160.000" stroke-width="1.973" stroke="black" fill="none" stroke-linecap="round"></path><path d="M 504.563,160.000 C 511.891,151.339 512.056,151.494 519.563,143.000" stroke-width="2.260" stroke="black" fill="none" stroke-linecap="round"></path><path d="M 519.563,143.000 C 527.563,133.051 523.391,138.839 527.563,135.000" stroke-width="2.897" stroke="black" fill="none" stroke-linecap="round"></path><path d="M 527.563,135.000 C 524.320,144.882 527.563,138.551 519.563,154.000" stroke-width="3.580" stroke="black" fill="none" stroke-linecap="round"></path><path d="M 519.563,154.000 C 511.131,167.265 512.320,167.882 503.563,181.000" stroke-width="2.283" stroke="black" fill="none" stroke-linecap="round"></path><path d="M 503.563,181.000 C 497.796,191.878 497.631,191.765 492.563,203.000" stroke-width="2.294" stroke="black" fill="none" stroke-linecap="round"></path><path d="M 492.563,203.000 C 489.188,208.825 489.796,208.878 487.563,215.000" stroke-width="2.898" stroke="black" fill="none" stroke-linecap="round"></path><path d="M 487.563,215.000 C 485.761,219.748 486.688,218.325 487.563,222.000" stroke-width="3.541" stroke="black" fill="none" stroke-linecap="round"></path><path d="M 487.563,222.000 C 491.720,225.996 489.761,224.748 495.563,225.000" stroke-width="4.143" stroke="black" fill="none" stroke-linecap="round"></path><path d="M 495.563,225.000 C 505.028,219.932 505.220,222.496 514.563,215.000" stroke-width="2.748" stroke="black" fill="none" stroke-linecap="round"></path><path d="M 514.563,215.000 C 519.633,212.629 519.528,212.432 524.563,210.000" stroke-width="3.216" stroke="black" fill="none" stroke-linecap="round"></path><path d="M 524.563,210.000 C 530.329,205.468 527.133,208.629 529.563,207.000" stroke-width="3.801" stroke="black" fill="none" stroke-linecap="round"></path><path d="M 529.563,207.000 C 523.550,215.491 526.829,212.468 517.563,224.000" stroke-width="3.919" stroke="black" fill="none" stroke-linecap="round"></path><path d="M 517.563,224.000 C 513.527,228.730 514.050,228.991 510.563,234.000" stroke-width="3.444" stroke="black" fill="none" stroke-linecap="round"></path><path d="M 510.563,234.000 C 507.732,238.616 509.027,236.730 508.563,240.000" stroke-width="4.235" stroke="black" fill="none" stroke-linecap="round"></path><path d="M 508.563,240.000 C 511.399,240.236 509.232,241.116 513.563,239.000" stroke-width="4.674" stroke="black" fill="none" stroke-linecap="round"></path><path d="M 513.563,239.000 C 518.280,235.747 518.399,236.236 522.563,232.000" stroke-width="3.675" stroke="black" fill="none" stroke-linecap="round"></path><path d="M 522.563,232.000 C 526.171,228.603 526.280,228.747 529.563,225.000" stroke-width="3.533" stroke="black" fill="none" stroke-linecap="round"></path><path d="M 529.563,225.000 C 534.498,220.315 534.171,220.103 538.563,215.000" stroke-width="3.867" stroke="black" fill="none" stroke-linecap="round"></path><path d="M 538.563,215.000 C 540.190,211.235 540.998,211.815 542.563,208.000" stroke-width="3.777" stroke="black" fill="none" stroke-linecap="round"></path><path d="M 542.563,208.000 C 546.378,204.245 545.690,203.735 549.563,200.000" stroke-width="3.550" stroke="black" fill="none" stroke-linecap="round"></path><path d="M 549.563,200.000 C 554.957,191.926 555.378,192.245 560.563,184.000" stroke-width="2.778" stroke="black" fill="none" stroke-linecap="round"></path><path d="M 560.563,184.000 C 570.629,172.132 569.457,171.426 578.563,159.000" stroke-width="2.184" stroke="black" fill="none" stroke-linecap="round"></path><path d="M 578.563,159.000 C 584.794,147.796 585.129,148.132 589.563,136.000" stroke-width="2.230" stroke="black" fill="none" stroke-linecap="round"></path><path d="M 589.563,136.000 C 594.935,124.262 594.294,124.296 597.563,112.000" stroke-width="2.251" stroke="black" fill="none" stroke-linecap="round"></path><path d="M 597.563,112.000 C 597.982,102.995 599.435,103.262 598.563,94.000" stroke-width="2.566" stroke="black" fill="none" stroke-linecap="round"></path><path d="M 598.563,94.000 C 599.302,87.509 598.982,87.495 599.563,81.000" stroke-width="2.969" stroke="black" fill="none" stroke-linecap="round"></path><path d="M 599.563,81.000 C 599.563,75.000 599.802,75.009 599.563,69.000" stroke-width="3.137" stroke="black" fill="none" stroke-linecap="round"></path><path d="M 599.563,69.000 C 599.762,60.202 599.563,65.000 599.563,61.000" stroke-width="3.542" stroke="black" fill="none" stroke-linecap="round"></path><path d="M 599.563,61.000 C 600.205,67.252 599.262,62.202 598.563,73.000" stroke-width="4.313" stroke="black" fill="none" stroke-linecap="round"></path><path d="M 598.563,73.000 C 593.329,88.103 594.205,88.252 587.563,103.000" stroke-width="2.337" stroke="black" fill="none" stroke-linecap="round"></path><path d="M 587.563,103.000 C 580.494,118.788 581.329,119.103 574.563,135.000" stroke-width="1.978" stroke="black" fill="none" stroke-linecap="round"></path><path d="M 574.563,135.000 C 565.168,159.781 565.494,159.788 557.563,185.000" stroke-width="2.130" stroke="black" fill="none" stroke-linecap="round"></path><path d="M 557.563,185.000 C 556.215,191.473 555.668,191.281 555.563,198.000" stroke-width="2.721" stroke="black" fill="none" stroke-linecap="round"></path><path d="M 555.563,198.000 C 553.462,204.650 555.215,201.473 555.563,205.000" stroke-width="3.532" stroke="black" fill="none" stroke-linecap="round"></path><path d="M 555.563,205.000 C 561.889,203.094 559.462,205.650 567.563,200.000" stroke-width="4.282" stroke="black" fill="none" stroke-linecap="round"></path><path d="M 567.563,200.000 C 572.180,195.533 572.889,197.094 577.563,193.000" stroke-width="3.523" stroke="black" fill="none" stroke-linecap="round"></path><path d="M 577.563,193.000 C 584.851,189.406 580.680,191.533 584.563,192.000" stroke-width="3.826" stroke="black" fill="none" stroke-linecap="round"></path><path d="M 584.563,192.000 C 583.513,208.640 583.351,202.906 574.563,220.000" stroke-width="3.668" stroke="black" fill="none" stroke-linecap="round"></path><path d="M 574.563,220.000 C 555.469,241.606 557.513,241.640 532.563,258.000" stroke-width="1.546" stroke="black" fill="none" stroke-linecap="round"></path><path d="M 532.563,258.000 C 503.298,276.900 504.469,278.106 472.563,293.000" stroke-width="1.125" stroke="black" fill="none" stroke-linecap="round"></path><path d="M 472.563,293.000 C 440.350,310.439 440.298,309.900 406.563,324.000" stroke-width="1.125" stroke="black" fill="none" stroke-linecap="round"></path><path d="M 406.563,324.000 C 366.596,339.788 366.850,339.939 325.563,352.000" stroke-width="1.125" stroke="black" fill="none" stroke-linecap="round"></path><path d="M 325.563,352.000 C 282.634,366.392 282.596,364.788 238.563,374.000" stroke-width="1.125" stroke="black" fill="none" stroke-linecap="round"></path><path d="M 238.563,374.000 C 198.076,380.445 198.634,380.892 157.563,381.000" stroke-width="1.125" stroke="black" fill="none" stroke-linecap="round"></path><path d="M 157.563,381.000 C 123.005,384.524 125.076,381.445 92.563,376.000" stroke-width="1.134" stroke="black" fill="none" stroke-linecap="round"></path><path d="M 92.563,376.000 C 70.218,368.439 73.005,370.524 57.563,353.000" stroke-width="1.438" stroke="black" fill="none" stroke-linecap="round"></path><path d="M 57.563,353.000 C 45.793,334.812 45.218,337.939 42.563,315.000" stroke-width="1.536" stroke="black" fill="none" stroke-linecap="round"></path><path d="M 42.563,315.000 C 34.317,285.735 38.293,288.812 42.563,261.000" stroke-width="1.399" stroke="black" fill="none" stroke-linecap="round"></path><path d="M 42.563,261.000 C 58.444,222.827 54.817,224.235 83.563,192.000" stroke-width="1.125" stroke="black" fill="none" stroke-linecap="round"></path><path d="M 83.563,192.000 C 115.571,155.934 113.444,155.327 152.563,126.000" stroke-width="1.125" stroke="black" fill="none" stroke-linecap="round"></path><path d="M 152.563,126.000 C 191.882,93.587 191.571,94.434 235.563,69.000" stroke-width="1.125" stroke="black" fill="none" stroke-linecap="round"></path><path d="M 235.563,69.000 C 276.009,45.174 275.382,46.587 319.563,32.000" stroke-width="1.125" stroke="black" fill="none" stroke-linecap="round"></path><path d="M 319.563,32.000 C 358.372,23.510 357.009,20.674 397.563,20.000" stroke-width="1.125" stroke="black" fill="none" stroke-linecap="round"></path><path d="M 397.563,20.000 C 428.494,11.644 425.372,17.510 453.563,20.000" stroke-width="1.132" stroke="black" fill="none" stroke-linecap="round"></path><path d="M 453.563,20.000 C 490.965,31.873 476.494,27.644 493.563,52.000" stroke-width="1.716" stroke="black" fill="none" stroke-linecap="round"></path><path d="M 493.563,52.000 C 486.614,87.428 496.965,78.373 465.563,113.000" stroke-width="1.265" stroke="black" fill="none" stroke-linecap="round"></path><path d="M 465.563,113.000 C 410.007,179.890 412.114,177.928 344.563,233.000" stroke-width="1.125" stroke="black" fill="none" stroke-linecap="round"></path><path d="M 344.563,233.000 C 311.198,256.079 314.507,257.390 274.563,268.000" stroke-width="1.125" stroke="black" fill="none" stroke-linecap="round"></path><path d="M 274.563,268.000 C 244.738,280.093 248.198,276.579 218.563,274.000" stroke-width="1.564" stroke="black" fill="none" stroke-linecap="round"></path><path d="M 218.563,274.000 C 170.572,264.161 186.738,266.593 158.563,241.000" stroke-width="1.178" stroke="black" fill="none" stroke-linecap="round"></path><path d="M 158.563,241.000 C 166.656,216.416 149.572,223.661 176.563,193.000" stroke-width="1.813" stroke="black" fill="none" stroke-linecap="round"></path></svg>