<svg xmlns="http://www.w3.org/2000/svg" xmlns:xlink="http://www.w3.org/1999/xlink" viewBox="0 0 664 314" width="664" height="314"><path d="M 119.000,199.000 C 116.014,199.598 116.000,199.500 113.000,200.000" stroke-width="4.964" stroke="black" fill="none" stroke-linecap="round"></path><path d="M 113.000,200.000 C 108.503,201.000 108.514,200.598 104.000,201.000" stroke-width="3.981" stroke="black" fill="none" stroke-linecap="round"></path><path d="M 104.000,201.000 C 98.836,201.138 99.003,201.000 94.000,200.000" stroke-width="3.598" stroke="black" fill="none" stroke-linecap="round"></path><path d="M 94.000,200.000 C 90.400,198.700 90.336,199.138 87.000,197.000" stroke-width="3.794" stroke="black" fill="none" stroke-linecap="round"></path><path d="M 87.000,197.000 C 83.086,195.542 83.400,195.200 80.000,193.000" stroke-width="3.809" stroke="black" fill="none" stroke-linecap="round"></path><path d="M 80.000,193.000 C 73.402,189.004 74.586,188.542 70.000,183.000" stroke-width="3.260" stroke="black" fill="none" stroke-linecap="round"></path><path d="M 70.000,183.000 C 65.277,173.247 64.902,174.004 63.000,163.000" stroke-width="2.623" stroke="black" fill="none" stroke-linecap="round"></path><path d="M 63.000,163.000 C 61.372,154.853 61.277,155.247 62.000,147.000" stroke-width="2.751" stroke="black" fill="none" stroke-linecap="round"></path><path d="M 62.000,147.000 C 62.124,141.493 62.372,142.353 65.000,138.000" stroke-width="3.889" stroke="black" fill="none" stroke-linecap="round"></path><path d="M 65.000,138.000 C 70.560,134.080 69.124,132.993 76.000,130.000" stroke-width="3.321" stroke="black" fill="none" stroke-linecap="round"></path><path d="M 76.000,130.000 C 80.066,125.796 80.560,126.580 85.000,123.000" stroke-width="3.406" stroke="black" fill="none" stroke-linecap="round"></path><path d="M 85.000,123.000 C 95.152,116.729 95.066,117.296 106.000,113.000" stroke-width="2.542" stroke="black" fill="none" stroke-linecap="round"></path><path d="M 106.000,113.000 C 111.643,111.436 111.152,111.229 117.000,112.000" stroke-width="3.093" stroke="black" fill="none" stroke-linecap="round"></path><path d="M 117.000,112.000 C 121.294,112.941 121.143,112.436 125.000,115.000" stroke-width="3.473" stroke="black" fill="none" stroke-linecap="round"></path><path d="M 125.000,115.000 C 130.217,118.242 130.294,117.941 135.000,122.000" stroke-width="3.271" stroke="black" fill="none" stroke-linecap="round"></path><path d="M 135.000,122.000 C 137.000,124.000 137.217,123.742 139.000,126.000" stroke-width="3.882" stroke="black" fill="none" stroke-linecap="round"></path><path d="M 139.000,126.000 C 141.958,127.469 141.000,128.000 143.000,130.000" stroke-width="4.152" stroke="black" fill="none" stroke-linecap="round"></path><path d="M 143.000,130.000 C 145.453,136.435 145.458,135.969 146.000,143.000" stroke-width="3.397" stroke="black" fill="none" stroke-linecap="round"></path><path d="M 146.000,143.000 C 146.184,148.673 146.453,148.435 145.000,154.000" stroke-width="3.348" stroke="black" fill="none" stroke-linecap="round"></path><path d="M 145.000,154.000 C 143.278,157.421 144.184,157.673 142.000,161.000" stroke-width="3.707" stroke="black" fill="none" stroke-linecap="round"></path><path d="M 142.000,161.000 C 141.150,164.549 140.778,164.421 140.000,168.000" stroke-width="3.817" stroke="black" fill="none" stroke-linecap="round"></path><path d="M 140.000,168.000 C 137.188,173.357 138.150,173.549 136.000,179.000" stroke-width="4.067" stroke="black" fill="none" stroke-linecap="round"></path><path d="M 136.000,179.000 C 134.374,183.748 135.188,182.857 136.000,187.000" stroke-width="3.840" stroke="black" fill="none" stroke-linecap="round"></path><path d="M 136.000,187.000 C 138.831,191.809 137.874,190.748 143.000,193.000" stroke-width="4.434" stroke="black" fill="none" stroke-linecap="round"></path><path d="M 143.000,193.000 C 150.111,193.827 149.331,194.809 157.000,193.000" stroke-width="3.395" stroke="black" fill="none" stroke-linecap="round"></path><path d="M 157.000,193.000 C 162.494,191.477 162.611,192.327 168.000,190.000" stroke-width="3.317" stroke="black" fill="none" stroke-linecap="round"></path><path d="M 168.000,190.000 C 182.859,185.169 182.994,185.977 198.000,182.000" stroke-width="2.328" stroke="black" fill="none" stroke-linecap="round"></path><path d="M 198.000,182.000 C 204.505,181.565 204.359,180.669 211.000,181.000" stroke-width="2.819" stroke="black" fill="none" stroke-linecap="round"></path><path d="M 211.000,181.000 C 227.483,179.126 227.505,179.565 244.000,178.000" stroke-width="2.112" stroke="black" fill="none" stroke-linecap="round"></path><path d="M 244.000,178.000 C 249.500,178.000 249.483,177.626 255.000,178.000" stroke-width="2.841" stroke="black" fill="none" stroke-linecap="round"></path><path d="M 255.000,178.000 C 262.500,178.000 262.500,178.000 270.000,178.000" stroke-width="2.884" stroke="black" fill="none" stroke-linecap="round"></path><path d="M 270.000,178.000 C 278.000,178.000 278.000,178.000 286.000,178.000" stroke-width="2.949" stroke="black" fill="none" stroke-linecap="round"></path><path d="M 286.000,178.000 C 289.500,178.000 289.500,178.000 293.000,178.000" stroke-width="3.564" stroke="black" fill="none" stroke-linecap="round"></path><path d="M 293.000,178.000 C 298.280,175.720 296.000,178.000 299.000,178.000" stroke-width="4.324" stroke="black" fill="none" stroke-linecap="round"></path><path d="M 299.000,178.000 C 301.022,188.047 301.280,185.220 299.000,197.000" stroke-width="3.767" stroke="black" fill="none" stroke-linecap="round"></path><path d="M 299.000,197.000 C 295.522,203.013 297.522,203.547 292.000,209.000" stroke-width="3.332" stroke="black" fill="none" stroke-linecap="round"></path><path d="M 292.000,209.000 C 290.668,211.617 290.522,211.513 289.000,214.000" stroke-width="3.849" stroke="black" fill="none" stroke-linecap="round"></path><path d="M 289.000,214.000 C 285.835,216.217 287.168,216.617 285.000,219.000" stroke-width="4.414" stroke="black" fill="none" stroke-linecap="round"></path><path d="M 285.000,219.000 C 284.815,221.828 284.335,221.217 286.000,224.000" stroke-width="4.353" stroke="black" fill="none" stroke-linecap="round"></path><path d="M 286.000,224.000 C 287.542,228.439 287.815,227.328 291.000,230.000" stroke-width="3.991" stroke="black" fill="none" stroke-linecap="round"></path><path d="M 291.000,230.000 C 303.841,236.026 303.042,235.439 317.000,238.000" stroke-width="2.432" stroke="black" fill="none" stroke-linecap="round"></path><path d="M 317.000,238.000 C 324.187,237.793 323.841,239.026 331.000,236.000" stroke-width="2.846" stroke="black" fill="none" stroke-linecap="round"></path><path d="M 331.000,236.000 C 343.028,232.081 343.187,232.793 355.000,228.000" stroke-width="2.409" stroke="black" fill="none" stroke-linecap="round"></path><path d="M 355.000,228.000 C 365.023,224.563 365.028,224.581 375.000,221.000" stroke-width="2.475" stroke="black" fill="none" stroke-linecap="round"></path><path d="M 375.000,221.000 C 378.912,219.202 379.023,219.563 383.000,218.000" stroke-width="3.204" stroke="black" fill="none" stroke-linecap="round"></path><path d="M 383.000,218.000 C 389.590,214.795 387.412,216.702 392.000,216.000" stroke-width="3.502" stroke="black" fill="none" stroke-linecap="round"></path><path d="M 392.000,216.000 C 389.154,220.825 393.590,216.795 391.000,222.000" stroke-width="4.645" stroke="black" fill="none" stroke-linecap="round"></path><path d="M 391.000,222.000 C 397.364,224.225 394.654,224.325 403.000,223.000" stroke-width="4.554" stroke="black" fill="none" stroke-linecap="round"></path><path d="M 403.000,223.000 C 408.605,220.174 408.864,221.725 414.000,217.000" stroke-width="3.545" stroke="black" fill="none" stroke-linecap="round"></path><path d="M 414.000,217.000 C 417.352,215.384 417.105,215.174 420.000,213.000" stroke-width="3.772" stroke="black" fill="none" stroke-linecap="round"></path><path d="M 420.000,213.000 C 422.168,210.617 422.352,210.884 424.000,208.000" stroke-width="3.940" stroke="black" fill="none" stroke-linecap="round"></path><path d="M 424.000,208.000 C 426.021,205.692 425.668,205.617 427.000,203.000" stroke-width="4.719" stroke="black" fill="none" stroke-linecap="round"></path><path d="M 427.000,203.000 C 426.799,199.763 428.021,200.192 428.000,197.000" stroke-width="5.240" stroke="black" fill="none" stroke-linecap="round"></path><path d="M 428.000,197.000 C 433.010,188.705 431.799,188.263 437.000,180.000" stroke-width="3.101" stroke="black" fill="none" stroke-linecap="round"></path><path d="M 437.000,180.000 C 437.961,176.489 438.510,176.705 439.000,173.000" stroke-width="3.599" stroke="black" fill="none" stroke-linecap="round"></path><path d="M 439.000,173.000 C 446.422,153.275 444.961,152.989 451.000,133.000" stroke-width="1.947" stroke="black" fill="none" stroke-linecap="round"></path><path d="M 451.000,133.000 C 452.289,122.013 453.422,122.275 453.000,111.000" stroke-width="2.221" stroke="black" fill="none" stroke-linecap="round"></path><path d="M 453.000,111.000 C 454.307,106.138 453.289,106.513 453.000,102.000" stroke-width="3.073" stroke="black" fill="none" stroke-linecap="round"></path><path d="M 453.000,102.000 C 451.737,94.707 451.307,96.638 447.000,92.000" stroke-width="3.739" stroke="black" fill="none" stroke-linecap="round"></path><path d="M 447.000,92.000 C 436.177,87.677 437.737,86.707 425.000,86.000" stroke-width="2.691" stroke="black" fill="none" stroke-linecap="round"></path><path d="M 425.000,86.000 C 415.879,84.775 416.177,84.677 407.000,86.000" stroke-width="2.660" stroke="black" fill="none" stroke-linecap="round"></path><path d="M 407.000,86.000 C 386.040,87.377 386.879,88.775 367.000,94.000" stroke-width="1.866" stroke="black" fill="none" stroke-linecap="round"></path><path d="M 367.000,94.000 C 352.281,101.640 351.540,99.377 338.000,110.000" stroke-width="1.842" stroke="black" fill="none" stroke-linecap="round"></path><path d="M 338.000,110.000 C 329.856,112.216 331.781,113.640 326.000,118.000" stroke-width="2.545" stroke="black" fill="none" stroke-linecap="round"></path><path d="M 326.000,118.000 C 317.415,131.658 317.856,130.216 314.000,146.000" stroke-width="2.087" stroke="black" fill="none" stroke-linecap="round"></path><path d="M 314.000,146.000 C 312.605,154.153 312.415,152.658 316.000,160.000" stroke-width="2.690" stroke="black" fill="none" stroke-linecap="round"></path><path d="M 316.000,160.000 C 323.243,169.318 321.605,169.653 332.000,177.000" stroke-width="2.395" stroke="black" fill="none" stroke-linecap="round"></path><path d="M 332.000,177.000 C 350.590,197.152 351.743,194.318 373.000,210.000" stroke-width="1.517" stroke="black" fill="none" stroke-linecap="round"></path><path d="M 373.000,210.000 C 389.625,216.997 388.090,218.652 407.000,220.000" stroke-width="1.719" stroke="black" fill="none" stroke-linecap="round"></path><path d="M 407.000,220.000 C 430.472,223.477 430.125,223.997 454.000,224.000" stroke-width="1.502" stroke="black" fill="none" stroke-linecap="round"></path><path d="M 454.000,224.000 C 475.647,224.100 475.472,224.477 497.000,222.000" stroke-width="1.517" stroke="black" fill="none" stroke-linecap="round"></path><path d="M 497.000,222.000 C 506.396,221.148 506.147,221.100 515.000,218.000" stroke-width="2.148" stroke="black" fill="none" stroke-linecap="round"></path><path d="M 515.000,218.000 C 527.560,214.047 526.896,213.648 538.000,207.000" stroke-width="2.219" stroke="black" fill="none" stroke-linecap="round"></path><path d="M 538.000,207.000 C 548.203,200.161 547.560,200.547 555.000,191.000" stroke-width="2.323" stroke="black" fill="none" stroke-linecap="round"></path><path d="M 555.000,191.000 C 559.730,183.833 559.703,184.661 561.000,176.000" stroke-width="2.689" stroke="black" fill="none" stroke-linecap="round"></path><path d="M 561.000,176.000 C 563.734,164.024 562.730,165.333 561.000,154.000" stroke-width="2.519" stroke="black" fill="none" stroke-linecap="round"></path><path d="M 561.000,154.000 C 557.353,147.560 559.234,147.524 552.000,143.000" stroke-width="2.824" stroke="black" fill="none" stroke-linecap="round"></path><path d="M 552.000,143.000 C 544.006,134.838 543.853,136.060 534.000,131.000" stroke-width="2.507" stroke="black" fill="none" stroke-linecap="round"></path><path d="M 534.000,131.000 C 506.969,119.711 507.506,120.838 479.000,115.000" stroke-width="1.450" stroke="black" fill="none" stroke-linecap="round"></path><path d="M 479.000,115.000 C 458.839,113.323 459.469,111.711 439.000,115.000" stroke-width="1.557" stroke="black" fill="none" stroke-linecap="round"></path><path d="M 439.000,115.000 C 423.357,117.367 423.339,116.323 408.000,121.000" stroke-width="1.777" stroke="black" fill="none" stroke-linecap="round"></path><path d="M 408.000,121.000 C 376.807,128.346 376.857,128.367 346.000,137.000" stroke-width="1.264" stroke="black" fill="none" stroke-linecap="round"></path><path d="M 346.000,137.000 C 332.018,140.467 332.307,140.846 319.000,146.000" stroke-width="1.715" stroke="black" fill="none" stroke-linecap="round"></path><path d="M 319.000,146.000 C 310.532,148.198 312.018,148.967 306.000,154.000" stroke-width="2.470" stroke="black" fill="none" stroke-linecap="round"></path><path d="M 306.000,154.000 C 299.263,165.719 298.032,164.198 294.000,178.000" stroke-width="2.261" stroke="black" fill="none" stroke-linecap="round"></path><path d="M 294.000,178.000 C 291.223,183.421 291.763,183.219 291.000,189.000" stroke-width="2.843" stroke="black" fill="none" stroke-linecap="round"></path><path d="M 291.000,189.000 C 289.865,196.915 290.723,195.921 293.000,203.000" stroke-width="2.999" stroke="black" fill="none" stroke-linecap="round"></path><path d="M 293.000,203.000 C 298.665,214.999 298.365,213.415 308.000,222.000" stroke-width="2.423" stroke="black" fill="none" stroke-linecap="round"></path><path d="M 308.000,222.000 C 318.113,227.393 316.665,228.499 329.000,230.000" stroke-width="2.423" stroke="black" fill="none" stroke-linecap="round"></path><path d="M 329.000,230.000 C 353.797,237.923 353.613,235.893 379.000,239.000" stroke-width="1.554" stroke="black" fill="none" stroke-linecap="round"></path><path d="M 379.000,239.000 C 412.659,238.138 412.297,240.423 446.000,235.000" stroke-width="1.191" stroke="black" fill="none" stroke-linecap="round"></path><path d="M 446.000,235.000 C 455.431,234.213 455.159,234.138 464.000,231.000" stroke-width="1.956" stroke="black" fill="none" stroke-linecap="round"></path><path d="M 464.000,231.000 C 477.728,228.474 475.431,226.713 486.000,220.000" stroke-width="2.184" stroke="black" fill="none" stroke-linecap="round"></path><path d="M 486.000,220.000 C 499.077,205.739 498.228,207.474 505.000,189.000" stroke-width="1.836" stroke="black" fill="none" stroke-linecap="round"></path><path d="M 505.000,189.000 C 507.840,172.007 510.577,173.239 509.000,155.000" stroke-width="1.857" stroke="black" fill="none" stroke-linecap="round"></path><path d="M 509.000,155.000 C 509.342,149.794 509.340,150.007 508.000,145.000" stroke-width="2.746" stroke="black" fill="none" stroke-linecap="round"></path><path d="M 508.000,145.000 C 506.195,136.712 505.842,137.294 502.000,130.000" stroke-width="2.895" stroke="black" fill="none" stroke-linecap="round"></path><path d="M 502.000,130.000 C 498.687,123.175 498.695,124.712 493.000,121.000" stroke-width="3.058" stroke="black" fill="none" stroke-linecap="round"></path><path d="M 493.000,121.000 C 480.369,115.763 481.687,116.675 468.000,117.000" stroke-width="2.384" stroke="black" fill="none" stroke-linecap="round"></path><path d="M 468.000,117.000 C 445.287,121.749 445.369,119.263 423.000,128.000" stroke-width="1.753" stroke="black" fill="none" stroke-linecap="round"></path><path d="M 423.000,128.000 C 404.545,134.144 404.287,133.249 386.000,140.000" stroke-width="1.672" stroke="black" fill="none" stroke-linecap="round"></path><path d="M 386.000,140.000 C 366.079,144.922 366.545,146.144 347.000,152.000" stroke-width="1.660" stroke="black" fill="none" stroke-linecap="round"></path><path d="M 347.000,152.000 C 334.473,156.127 335.079,156.422 324.000,163.000" stroke-width="1.986" stroke="black" fill="none" stroke-linecap="round"></path><path d="M 324.000,163.000 C 318.518,167.372 318.473,166.627 315.000,173.000" stroke-width="2.674" stroke="black" fill="none" stroke-linecap="round"></path><path d="M 315.000,173.000 C 309.775,179.639 311.018,179.372 309.000,187.000" stroke-width="2.816" stroke="black" fill="none" stroke-linecap="round"></path><path d="M 309.000,187.000 C 308.081,199.647 307.775,198.639 311.000,211.000" stroke-width="2.455" stroke="black" fill="none" stroke-linecap="round"></path><path d="M 311.000,211.000 C 312.962,218.113 312.581,217.147 318.000,222.000" stroke-width="2.969" stroke="black" fill="none" stroke-linecap="round"></path><path d="M 318.000,222.000 C 331.094,232.322 330.462,231.613 346.000,238.000" stroke-width="2.100" stroke="black" fill="none" stroke-linecap="round"></path><path d="M 346.000,238.000 C 363.340,244.620 362.594,244.322 381.000,246.000" stroke-width="1.886" stroke="black" fill="none" stroke-linecap="round"></path><path d="M 381.000,246.000 C 395.834,246.220 395.340,247.120 410.000,243.000" stroke-width="1.960" stroke="black" fill="none" stroke-linecap="round"></path><path d="M 410.000,243.000 C 440.955,237.605 439.834,236.220 469.000,226.000" stroke-width="1.376" stroke="black" fill="none" stroke-linecap="round"></path><path d="M 469.000,226.000 C 484.616,218.146 484.455,219.605 497.000,207.000" stroke-width="1.651" stroke="black" fill="none" stroke-linecap="round"></path><path d="M 497.000,207.000 C 503.142,198.592 504.616,200.146 509.000,190.000" stroke-width="2.181" stroke="black" fill="none" stroke-linecap="round"></path></svg>