<svg xmlns="http://www.w3.org/2000/svg" xmlns:xlink="http://www.w3.org/1999/xlink" viewBox="0 0 664 416" width="664" height="416"><path d="M 214.563,156.000 C 219.981,161.950 220.563,161.000 226.563,166.000" stroke-width="4.122" stroke="black" fill="none" stroke-linecap="round"></path><path d="M 226.563,166.000 C 233.813,168.509 232.981,169.950 240.563,172.000" stroke-width="3.168" stroke="black" fill="none" stroke-linecap="round"></path><path d="M 240.563,172.000 C 248.036,176.545 248.313,176.009 255.563,181.000" stroke-width="2.815" stroke="black" fill="none" stroke-linecap="round"></path><path d="M 255.563,181.000 C 276.531,187.665 272.536,191.045 289.563,201.000" stroke-width="2.664" stroke="black" fill="none" stroke-linecap="round"></path><path d="M 289.563,201.000 C 301.833,213.984 298.031,209.665 298.563,225.000" stroke-width="2.997" stroke="black" fill="none" stroke-linecap="round"></path><path d="M 298.563,225.000 C 288.886,250.391 292.333,245.984 270.563,265.000" stroke-width="2.447" stroke="black" fill="none" stroke-linecap="round"></path><path d="M 270.563,265.000 C 248.122,277.319 251.886,279.891 224.563,284.000" stroke-width="2.330" stroke="black" fill="none" stroke-linecap="round"></path><path d="M 224.563,284.000 C 213.836,285.284 214.622,286.819 203.563,284.000" stroke-width="2.457" stroke="black" fill="none" stroke-linecap="round"></path><path d="M 203.563,284.000 C 196.654,283.580 197.836,283.284 192.563,280.000" stroke-width="3.054" stroke="black" fill="none" stroke-linecap="round"></path><path d="M 192.563,280.000 C 188.489,275.372 188.654,276.580 187.563,270.000" stroke-width="3.230" stroke="black" fill="none" stroke-linecap="round"></path><path d="M 187.563,270.000 C 183.030,258.292 185.989,260.872 187.563,251.000" stroke-width="2.926" stroke="black" fill="none" stroke-linecap="round"></path><path d="M 187.563,251.000 C 197.346,238.398 194.530,239.792 210.563,233.000" stroke-width="2.202" stroke="black" fill="none" stroke-linecap="round"></path><path d="M 210.563,233.000 C 234.271,225.470 232.846,223.898 258.563,222.000" stroke-width="1.715" stroke="black" fill="none" stroke-linecap="round"></path><path d="M 258.563,222.000 C 283.541,219.790 283.271,218.470 308.563,219.000" stroke-width="1.501" stroke="black" fill="none" stroke-linecap="round"></path><path d="M 308.563,219.000 C 331.082,218.401 331.041,218.290 353.563,219.000" stroke-width="1.483" stroke="black" fill="none" stroke-linecap="round"></path><path d="M 353.563,219.000 C 369.382,217.182 368.582,219.401 383.563,221.000" stroke-width="1.829" stroke="black" fill="none" stroke-linecap="round"></path><path d="M 383.563,221.000 C 396.002,225.248 395.382,224.182 405.563,233.000" stroke-width="2.015" stroke="black" fill="none" stroke-linecap="round"></path><path d="M 405.563,233.000 C 414.041,241.360 414.502,240.248 420.563,251.000" stroke-width="2.297" stroke="black" fill="none" stroke-linecap="round"></path><path d="M 420.563,251.000 C 423.781,259.529 425.541,258.360 428.563,267.000" stroke-width="2.537" stroke="black" fill="none" stroke-linecap="round"></path><path d="M 428.563,267.000 C 431.646,273.542 431.781,272.029 436.563,276.000" stroke-width="2.919" stroke="black" fill="none" stroke-linecap="round"></path><path d="M 436.563,276.000 C 443.303,279.350 440.646,278.042 446.563,276.000" stroke-width="3.279" stroke="black" fill="none" stroke-linecap="round"></path><path d="M 446.563,276.000 C 461.663,258.703 461.303,260.850 472.563,239.000" stroke-width="1.762" stroke="black" fill="none" stroke-linecap="round"></path><path d="M 472.563,239.000 C 486.228,210.781 487.663,211.703 498.563,182.000" stroke-width="1.327" stroke="black" fill="none" stroke-linecap="round"></path><path d="M 498.563,182.000 C 507.092,161.688 507.228,161.781 514.563,141.000" stroke-width="1.566" stroke="black" fill="none" stroke-linecap="round"></path><path d="M 514.563,141.000 C 518.290,124.934 520.092,125.688 524.563,110.000" stroke-width="1.803" stroke="black" fill="none" stroke-linecap="round"></path><path d="M 524.563,110.000 C 529.697,100.262 528.790,99.934 535.563,91.000" stroke-width="2.215" stroke="black" fill="none" stroke-linecap="round"></path><path d="M 535.563,91.000 C 539.641,85.555 539.197,85.262 543.563,80.000" stroke-width="2.735" stroke="black" fill="none" stroke-linecap="round"></path><path d="M 543.563,80.000 C 544.718,75.422 545.641,77.055 547.563,74.000" stroke-width="3.445" stroke="black" fill="none" stroke-linecap="round"></path><path d="M 547.563,74.000 C 552.487,72.078 550.718,72.422 555.563,74.000" stroke-width="3.748" stroke="black" fill="none" stroke-linecap="round"></path></svg>