<svg xmlns="http://www.w3.org/2000/svg" xmlns:xlink="http://www.w3.org/1999/xlink" viewBox="0 0 664 416" width="664" height="416"><path d="M 158.563,238.000 C 152.751,234.768 152.563,235.500 146.563,233.000" stroke-width="4.490" stroke="black" fill="none" stroke-linecap="round"></path><path d="M 146.563,233.000 C 141.975,232.929 142.251,231.768 137.563,232.000" stroke-width="3.883" stroke="black" fill="none" stroke-linecap="round"></path><path d="M 137.563,232.000 C 132.391,230.932 132.475,230.929 127.563,229.000" stroke-width="3.468" stroke="black" fill="none" stroke-linecap="round"></path><path d="M 127.563,229.000 C 122.444,226.712 122.391,226.932 117.563,224.000" stroke-width="3.415" stroke="black" fill="none" stroke-linecap="round"></path><path d="M 117.563,224.000 C 113.522,221.562 113.444,221.712 109.563,219.000" stroke-width="3.554" stroke="black" fill="none" stroke-linecap="round"></path><path d="M 109.563,219.000 C 105.386,215.270 105.022,216.062 100.563,213.000" stroke-width="3.413" stroke="black" fill="none" stroke-linecap="round"></path><path d="M 100.563,213.000 C 96.355,212.517 96.886,211.270 92.563,211.000" stroke-width="3.617" stroke="black" fill="none" stroke-linecap="round"></path><path d="M 92.563,211.000 C 84.624,208.877 88.855,209.517 85.563,207.000" stroke-width="4.189" stroke="black" fill="none" stroke-linecap="round"></path><path d="M 85.563,207.000 C 91.616,204.102 87.124,203.877 97.563,201.000" stroke-width="4.707" stroke="black" fill="none" stroke-linecap="round"></path><path d="M 97.563,201.000 C 103.193,198.222 103.116,198.102 108.563,195.000" stroke-width="3.501" stroke="black" fill="none" stroke-linecap="round"></path><path d="M 108.563,195.000 C 118.142,189.123 118.193,189.222 127.563,183.000" stroke-width="2.669" stroke="black" fill="none" stroke-linecap="round"></path><path d="M 127.563,183.000 C 138.026,175.945 138.142,176.123 148.563,169.000" stroke-width="2.487" stroke="black" fill="none" stroke-linecap="round"></path><path d="M 148.563,169.000 C 160.063,161.500 160.026,161.445 171.563,154.000" stroke-width="2.242" stroke="black" fill="none" stroke-linecap="round"></path><path d="M 171.563,154.000 C 183.022,146.437 183.063,146.500 194.563,139.000" stroke-width="2.177" stroke="black" fill="none" stroke-linecap="round"></path><path d="M 194.563,139.000 C 205.340,131.618 205.522,131.937 216.563,125.000" stroke-width="2.309" stroke="black" fill="none" stroke-linecap="round"></path><path d="M 216.563,125.000 C 224.912,120.186 224.840,120.118 233.563,116.000" stroke-width="2.475" stroke="black" fill="none" stroke-linecap="round"></path><path d="M 233.563,116.000 C 240.701,113.282 240.412,112.686 247.563,110.000" stroke-width="2.800" stroke="black" fill="none" stroke-linecap="round"></path><path d="M 247.563,110.000 C 252.094,107.554 252.201,107.782 256.563,105.000" stroke-width="3.258" stroke="black" fill="none" stroke-linecap="round"></path><path d="M 256.563,105.000 C 261.563,101.045 259.094,103.554 261.563,102.000" stroke-width="3.858" stroke="black" fill="none" stroke-linecap="round"></path><path d="M 261.563,102.000 C 259.433,106.268 261.563,103.545 256.563,110.000" stroke-width="4.319" stroke="black" fill="none" stroke-linecap="round"></path><path d="M 256.563,110.000 C 249.370,119.274 249.433,119.268 241.563,128.000" stroke-width="2.736" stroke="black" fill="none" stroke-linecap="round"></path><path d="M 241.563,128.000 C 232.419,138.362 232.370,138.274 222.563,148.000" stroke-width="2.294" stroke="black" fill="none" stroke-linecap="round"></path><path d="M 222.563,148.000 C 209.453,159.883 209.919,160.362 196.563,172.000" stroke-width="2.000" stroke="black" fill="none" stroke-linecap="round"></path><path d="M 196.563,172.000 C 184.703,183.651 184.453,183.383 172.563,195.000" stroke-width="1.931" stroke="black" fill="none" stroke-linecap="round"></path><path d="M 172.563,195.000 C 161.191,204.619 161.703,205.151 150.563,215.000" stroke-width="2.060" stroke="black" fill="none" stroke-linecap="round"></path><path d="M 150.563,215.000 C 139.642,225.628 139.691,225.619 129.563,237.000" stroke-width="2.030" stroke="black" fill="none" stroke-linecap="round"></path><path d="M 129.563,237.000 C 120.474,247.929 120.142,247.628 111.563,259.000" stroke-width="2.082" stroke="black" fill="none" stroke-linecap="round"></path><path d="M 111.563,259.000 C 104.499,268.888 103.974,268.429 96.563,278.000" stroke-width="2.189" stroke="black" fill="none" stroke-linecap="round"></path><path d="M 96.563,278.000 C 90.932,284.426 90.999,284.388 84.563,290.000" stroke-width="2.640" stroke="black" fill="none" stroke-linecap="round"></path><path d="M 84.563,290.000 C 78.663,294.642 78.932,294.926 72.563,299.000" stroke-width="2.874" stroke="black" fill="none" stroke-linecap="round"></path><path d="M 72.563,299.000 C 68.397,302.710 68.163,302.142 63.563,305.000" stroke-width="3.195" stroke="black" fill="none" stroke-linecap="round"></path><path d="M 63.563,305.000 C 58.433,306.174 58.897,307.210 53.563,308.000" stroke-width="3.393" stroke="black" fill="none" stroke-linecap="round"></path><path d="M 53.563,308.000 C 50.755,310.316 50.433,309.174 47.563,311.000" stroke-width="3.773" stroke="black" fill="none" stroke-linecap="round"></path><path d="M 47.563,311.000 C 40.843,312.793 43.755,311.816 39.563,311.000" stroke-width="4.271" stroke="black" fill="none" stroke-linecap="round"></path><path d="M 39.563,311.000 C 39.954,306.608 38.343,309.293 42.563,304.000" stroke-width="4.773" stroke="black" fill="none" stroke-linecap="round"></path><path d="M 42.563,304.000 C 49.306,298.596 48.454,298.108 56.563,294.000" stroke-width="3.192" stroke="black" fill="none" stroke-linecap="round"></path><path d="M 56.563,294.000 C 64.476,289.339 64.306,289.096 72.563,285.000" stroke-width="2.834" stroke="black" fill="none" stroke-linecap="round"></path><path d="M 72.563,285.000 C 85.176,278.709 84.976,278.339 97.563,272.000" stroke-width="2.411" stroke="black" fill="none" stroke-linecap="round"></path><path d="M 97.563,272.000 C 109.172,265.686 109.176,265.709 120.563,259.000" stroke-width="2.201" stroke="black" fill="none" stroke-linecap="round"></path><path d="M 120.563,259.000 C 132.286,252.343 132.172,252.186 143.563,245.000" stroke-width="2.184" stroke="black" fill="none" stroke-linecap="round"></path><path d="M 143.563,245.000 C 153.732,238.228 153.786,238.343 163.563,231.000" stroke-width="2.214" stroke="black" fill="none" stroke-linecap="round"></path><path d="M 163.563,231.000 C 170.476,225.386 170.732,225.728 177.563,220.000" stroke-width="2.510" stroke="black" fill="none" stroke-linecap="round"></path><path d="M 177.563,220.000 C 183.198,216.172 182.976,215.886 188.563,212.000" stroke-width="2.911" stroke="black" fill="none" stroke-linecap="round"></path><path d="M 188.563,212.000 C 192.317,209.246 192.198,209.172 195.563,206.000" stroke-width="3.390" stroke="black" fill="none" stroke-linecap="round"></path><path d="M 195.563,206.000 C 200.419,202.714 197.817,203.746 199.563,201.000" stroke-width="3.806" stroke="black" fill="none" stroke-linecap="round"></path><path d="M 199.563,201.000 C 195.739,198.334 198.419,198.714 191.563,198.000" stroke-width="4.436" stroke="black" fill="none" stroke-linecap="round"></path><path d="M 191.563,198.000 C 182.676,196.972 183.239,197.334 174.563,199.000" stroke-width="3.228" stroke="black" fill="none" stroke-linecap="round"></path><path d="M 174.563,199.000 C 166.896,202.187 166.676,200.972 159.563,206.000" stroke-width="2.889" stroke="black" fill="none" stroke-linecap="round"></path><path d="M 159.563,206.000 C 154.030,208.370 154.396,208.687 149.563,212.000" stroke-width="3.237" stroke="black" fill="none" stroke-linecap="round"></path><path d="M 149.563,212.000 C 146.323,215.319 146.030,214.870 143.563,219.000" stroke-width="3.514" stroke="black" fill="none" stroke-linecap="round"></path><path d="M 143.563,219.000 C 140.203,223.305 140.323,223.319 137.563,228.000" stroke-width="3.460" stroke="black" fill="none" stroke-linecap="round"></path><path d="M 137.563,228.000 C 135.402,231.364 135.703,231.305 134.563,235.000" stroke-width="3.831" stroke="black" fill="none" stroke-linecap="round"></path><path d="M 134.563,235.000 C 132.879,238.857 133.902,237.864 134.563,241.000" stroke-width="4.054" stroke="black" fill="none" stroke-linecap="round"></path><path d="M 134.563,241.000 C 139.380,247.098 138.379,245.857 145.563,249.000" stroke-width="4.004" stroke="black" fill="none" stroke-linecap="round"></path><path d="M 145.563,249.000 C 153.069,249.234 152.380,251.098 160.563,249.000" stroke-width="3.164" stroke="black" fill="none" stroke-linecap="round"></path><path d="M 160.563,249.000 C 169.685,250.548 169.069,248.734 177.563,248.000" stroke-width="2.908" stroke="black" fill="none" stroke-linecap="round"></path><path d="M 177.563,248.000 C 185.969,242.834 186.685,245.048 194.563,238.000" stroke-width="2.625" stroke="black" fill="none" stroke-linecap="round"></path><path d="M 194.563,238.000 C 202.611,234.740 201.969,233.834 209.563,230.000" stroke-width="2.753" stroke="black" fill="none" stroke-linecap="round"></path><path d="M 209.563,230.000 C 212.802,226.182 213.611,227.240 216.563,223.000" stroke-width="3.269" stroke="black" fill="none" stroke-linecap="round"></path><path d="M 216.563,223.000 C 222.563,220.356 219.302,220.682 222.563,219.000" stroke-width="3.718" stroke="black" fill="none" stroke-linecap="round"></path><path d="M 222.563,219.000 C 219.416,217.524 222.563,217.856 216.563,218.000" stroke-width="4.497" stroke="black" fill="none" stroke-linecap="round"></path><path d="M 216.563,218.000 C 213.471,219.338 213.416,218.524 210.563,221.000" stroke-width="4.162" stroke="black" fill="none" stroke-linecap="round"></path><path d="M 210.563,221.000 C 206.278,223.142 206.471,223.338 202.563,226.000" stroke-width="3.765" stroke="black" fill="none" stroke-linecap="round"></path><path d="M 202.563,226.000 C 199.549,228.162 199.778,228.142 197.563,231.000" stroke-width="3.952" stroke="black" fill="none" stroke-linecap="round"></path><path d="M 197.563,231.000 C 193.965,235.564 196.049,233.162 195.563,236.000" stroke-width="4.544" stroke="black" fill="none" stroke-linecap="round"></path><path d="M 195.563,236.000 C 202.745,236.727 199.465,237.064 208.563,234.000" stroke-width="4.139" stroke="black" fill="none" stroke-linecap="round"></path><path d="M 208.563,234.000 C 218.119,227.581 218.745,229.227 227.563,221.000" stroke-width="2.808" stroke="black" fill="none" stroke-linecap="round"></path><path d="M 227.563,221.000 C 234.491,215.896 234.619,216.081 241.563,211.000" stroke-width="3.001" stroke="black" fill="none" stroke-linecap="round"></path><path d="M 241.563,211.000 C 247.390,206.703 247.491,206.896 253.563,203.000" stroke-width="2.906" stroke="black" fill="none" stroke-linecap="round"></path><path d="M 253.563,203.000 C 257.563,201.000 257.390,200.703 261.563,199.000" stroke-width="3.411" stroke="black" fill="none" stroke-linecap="round"></path><path d="M 261.563,199.000 C 266.094,195.021 264.563,197.500 267.563,196.000" stroke-width="3.824" stroke="black" fill="none" stroke-linecap="round"></path><path d="M 267.563,196.000 C 268.943,199.931 269.094,197.021 267.563,203.000" stroke-width="4.361" stroke="black" fill="none" stroke-linecap="round"></path><path d="M 267.563,203.000 C 263.016,209.468 264.443,209.931 258.563,216.000" stroke-width="3.162" stroke="black" fill="none" stroke-linecap="round"></path><path d="M 258.563,216.000 C 255.563,220.500 255.516,220.468 252.563,225.000" stroke-width="3.446" stroke="black" fill="none" stroke-linecap="round"></path><path d="M 252.563,225.000 C 249.919,227.745 250.563,228.000 248.563,231.000" stroke-width="3.737" stroke="black" fill="none" stroke-linecap="round"></path><path d="M 248.563,231.000 C 245.729,235.667 247.419,233.745 247.563,237.000" stroke-width="3.968" stroke="black" fill="none" stroke-linecap="round"></path><path d="M 247.563,237.000 C 253.647,239.592 251.229,239.667 259.563,239.000" stroke-width="4.089" stroke="black" fill="none" stroke-linecap="round"></path><path d="M 259.563,239.000 C 268.823,237.220 268.647,238.092 277.563,234.000" stroke-width="2.989" stroke="black" fill="none" stroke-linecap="round"></path><path d="M 277.563,234.000 C 287.459,229.254 287.823,230.220 297.563,225.000" stroke-width="2.529" stroke="black" fill="none" stroke-linecap="round"></path><path d="M 297.563,225.000 C 306.622,221.642 306.459,221.254 315.563,218.000" stroke-width="2.601" stroke="black" fill="none" stroke-linecap="round"></path><path d="M 315.563,218.000 C 319.950,215.647 320.122,216.142 324.563,214.000" stroke-width="3.161" stroke="black" fill="none" stroke-linecap="round"></path><path d="M 324.563,214.000 C 330.332,211.461 326.950,213.147 329.563,213.000" stroke-width="3.928" stroke="black" fill="none" stroke-linecap="round"></path><path d="M 329.563,213.000 C 323.487,221.871 326.332,219.461 316.563,230.000" stroke-width="3.952" stroke="black" fill="none" stroke-linecap="round"></path><path d="M 316.563,230.000 C 310.453,234.314 311.987,235.371 306.563,240.000" stroke-width="3.291" stroke="black" fill="none" stroke-linecap="round"></path><path d="M 306.563,240.000 C 304.426,244.397 303.953,243.814 303.563,249.000" stroke-width="3.455" stroke="black" fill="none" stroke-linecap="round"></path><path d="M 303.563,249.000 C 300.762,255.300 302.926,252.397 303.563,256.000" stroke-width="3.809" stroke="black" fill="none" stroke-linecap="round"></path><path d="M 303.563,256.000 C 318.187,259.070 314.762,258.800 331.563,256.000" stroke-width="3.271" stroke="black" fill="none" stroke-linecap="round"></path><path d="M 331.563,256.000 C 347.975,248.786 348.687,252.070 364.563,242.000" stroke-width="2.090" stroke="black" fill="none" stroke-linecap="round"></path><path d="M 364.563,242.000 C 380.918,235.103 380.975,235.286 397.563,229.000" stroke-width="1.895" stroke="black" fill="none" stroke-linecap="round"></path><path d="M 397.563,229.000 C 411.063,224.500 410.918,224.103 424.563,220.000" stroke-width="2.036" stroke="black" fill="none" stroke-linecap="round"></path><path d="M 424.563,220.000 C 433.457,216.602 433.563,217.000 442.563,214.000" stroke-width="2.482" stroke="black" fill="none" stroke-linecap="round"></path><path d="M 442.563,214.000 C 453.242,209.960 447.457,212.602 452.563,212.000" stroke-width="3.125" stroke="black" fill="none" stroke-linecap="round"></path><path d="M 452.563,212.000 C 445.687,219.130 451.242,215.960 438.563,226.000" stroke-width="3.546" stroke="black" fill="none" stroke-linecap="round"></path><path d="M 438.563,226.000 C 430.803,231.868 431.687,232.630 424.563,239.000" stroke-width="2.796" stroke="black" fill="none" stroke-linecap="round"></path><path d="M 424.563,239.000 C 421.104,244.527 420.303,243.868 417.563,250.000" stroke-width="3.002" stroke="black" fill="none" stroke-linecap="round"></path><path d="M 417.563,250.000 C 411.800,254.558 415.604,253.027 413.563,256.000" stroke-width="3.608" stroke="black" fill="none" stroke-linecap="round"></path><path d="M 413.563,256.000 C 421.333,260.446 417.300,259.058 428.563,259.000" stroke-width="3.794" stroke="black" fill="none" stroke-linecap="round"></path><path d="M 428.563,259.000 C 443.950,253.835 443.833,255.946 458.563,247.000" stroke-width="2.272" stroke="black" fill="none" stroke-linecap="round"></path><path d="M 458.563,247.000 C 474.514,238.407 474.950,239.335 490.563,230.000" stroke-width="1.858" stroke="black" fill="none" stroke-linecap="round"></path><path d="M 490.563,230.000 C 505.704,221.181 506.014,221.907 521.563,214.000" stroke-width="1.794" stroke="black" fill="none" stroke-linecap="round"></path><path d="M 521.563,214.000 C 532.591,210.075 532.204,209.181 543.563,206.000" stroke-width="2.160" stroke="black" fill="none" stroke-linecap="round"></path><path d="M 543.563,206.000 C 555.891,198.987 550.091,203.575 556.563,201.000" stroke-width="2.737" stroke="black" fill="none" stroke-linecap="round"></path><path d="M 556.563,201.000 C 552.236,208.570 557.391,203.487 546.563,215.000" stroke-width="3.612" stroke="black" fill="none" stroke-linecap="round"></path><path d="M 546.563,215.000 C 536.091,224.578 537.236,225.570 526.563,235.000" stroke-width="2.339" stroke="black" fill="none" stroke-linecap="round"></path><path d="M 526.563,235.000 C 519.246,241.804 520.091,242.078 514.563,250.000" stroke-width="2.594" stroke="black" fill="none" stroke-linecap="round"></path><path d="M 514.563,250.000 C 511.625,256.359 511.246,255.804 510.563,263.000" stroke-width="2.944" stroke="black" fill="none" stroke-linecap="round"></path><path d="M 510.563,263.000 C 507.927,270.447 509.625,268.859 510.563,275.000" stroke-width="3.128" stroke="black" fill="none" stroke-linecap="round"></path><path d="M 510.563,275.000 C 515.367,280.888 513.427,279.947 521.563,282.000" stroke-width="3.167" stroke="black" fill="none" stroke-linecap="round"></path><path d="M 521.563,282.000 C 535.605,282.761 534.867,284.388 549.563,282.000" stroke-width="2.289" stroke="black" fill="none" stroke-linecap="round"></path><path d="M 549.563,282.000 C 563.557,282.251 563.105,281.261 576.563,279.000" stroke-width="2.201" stroke="black" fill="none" stroke-linecap="round"></path><path d="M 576.563,279.000 C 585.312,275.442 585.557,276.751 593.563,271.000" stroke-width="2.511" stroke="black" fill="none" stroke-linecap="round"></path><path d="M 593.563,271.000 C 598.014,267.924 598.312,268.442 602.563,265.000" stroke-width="3.138" stroke="black" fill="none" stroke-linecap="round"></path><path d="M 602.563,265.000 C 605.179,263.668 605.014,263.424 607.563,262.000" stroke-width="3.768" stroke="black" fill="none" stroke-linecap="round"></path><path d="M 607.563,262.000 C 613.880,258.823 610.179,260.168 612.563,258.000" stroke-width="4.382" stroke="black" fill="none" stroke-linecap="round"></path><path d="M 612.563,258.000 C 605.991,256.323 609.880,256.323 599.563,257.000" stroke-width="4.785" stroke="black" fill="none" stroke-linecap="round"></path><path d="M 599.563,257.000 C 587.141,259.971 586.991,258.323 574.563,262.000" stroke-width="2.594" stroke="black" fill="none" stroke-linecap="round"></path><path d="M 574.563,262.000 C 556.102,264.833 556.141,264.971 537.563,267.000" stroke-width="2.007" stroke="black" fill="none" stroke-linecap="round"></path><path d="M 537.563,267.000 C 517.611,269.707 517.602,269.333 497.563,271.000" stroke-width="1.862" stroke="black" fill="none" stroke-linecap="round"></path><path d="M 497.563,271.000 C 471.071,272.475 471.111,272.707 444.563,273.000" stroke-width="1.484" stroke="black" fill="none" stroke-linecap="round"></path><path d="M 444.563,273.000 C 420.563,273.000 420.571,273.475 396.563,273.000" stroke-width="1.429" stroke="black" fill="none" stroke-linecap="round"></path><path d="M 396.563,273.000 C 368.563,273.000 368.563,273.000 340.563,273.000" stroke-width="1.299" stroke="black" fill="none" stroke-linecap="round"></path><path d="M 340.563,273.000 C 310.054,272.488 310.063,273.000 279.563,273.000" stroke-width="1.205" stroke="black" fill="none" stroke-linecap="round"></path><path d="M 279.563,273.000 C 250.560,273.939 250.554,273.488 221.563,275.000" stroke-width="1.212" stroke="black" fill="none" stroke-linecap="round"></path><path d="M 221.563,275.000 C 168.492,279.000 168.560,276.939 115.563,279.000" stroke-width="1.296" stroke="black" fill="none" stroke-linecap="round"></path><path d="M 115.563,279.000 C 96.427,279.466 96.992,279.000 78.563,275.000" stroke-width="1.549" stroke="black" fill="none" stroke-linecap="round"></path><path d="M 78.563,275.000 C 63.341,267.680 62.427,270.966 47.563,262.000" stroke-width="1.773" stroke="black" fill="none" stroke-linecap="round"></path><path d="M 47.563,262.000 C 38.199,258.652 38.341,258.680 28.563,257.000" stroke-width="2.765" stroke="black" fill="none" stroke-linecap="round"></path><path d="M 305.563,80.000 C 309.323,73.717 308.563,73.500 311.563,67.000" stroke-width="3.682" stroke="black" fill="none" stroke-linecap="round"></path><path d="M 311.563,67.000 C 314.602,61.447 312.823,63.217 312.563,59.000" stroke-width="4.248" stroke="black" fill="none" stroke-linecap="round"></path><path d="M 312.563,59.000 C 307.311,55.590 309.602,55.447 301.563,55.000" stroke-width="3.495" stroke="black" fill="none" stroke-linecap="round"></path><path d="M 301.563,55.000 C 287.563,55.000 287.811,53.590 273.563,55.000" stroke-width="2.408" stroke="black" fill="none" stroke-linecap="round"></path><path d="M 273.563,55.000 C 254.441,53.490 254.563,55.000 235.563,55.000" stroke-width="1.836" stroke="black" fill="none" stroke-linecap="round"></path><path d="M 235.563,55.000 C 216.810,56.888 216.941,56.490 198.563,61.000" stroke-width="1.779" stroke="black" fill="none" stroke-linecap="round"></path><path d="M 198.563,61.000 C 181.159,64.898 181.310,64.888 164.563,71.000" stroke-width="1.810" stroke="black" fill="none" stroke-linecap="round"></path><path d="M 164.563,71.000 C 146.788,77.102 147.159,77.398 130.563,86.000" stroke-width="1.726" stroke="black" fill="none" stroke-linecap="round"></path><path d="M 130.563,86.000 C 115.678,94.407 115.788,94.102 102.563,105.000" stroke-width="1.832" stroke="black" fill="none" stroke-linecap="round"></path><path d="M 102.563,105.000 C 86.335,113.926 89.678,115.407 78.563,128.000" stroke-width="1.829" stroke="black" fill="none" stroke-linecap="round"></path><path d="M 78.563,128.000 C 69.654,149.652 67.835,147.426 65.563,172.000" stroke-width="2.191" stroke="black" fill="none" stroke-linecap="round"></path><path d="M 65.563,172.000 C 61.749,186.499 63.154,185.152 65.563,199.000" stroke-width="2.121" stroke="black" fill="none" stroke-linecap="round"></path><path d="M 65.563,199.000 C 74.632,214.961 70.749,215.999 83.563,231.000" stroke-width="1.814" stroke="black" fill="none" stroke-linecap="round"></path><path d="M 83.563,231.000 C 97.399,260.182 99.132,258.961 114.563,287.000" stroke-width="1.882" stroke="black" fill="none" stroke-linecap="round"></path><path d="M 114.563,287.000 C 121.801,298.086 121.399,297.682 131.563,306.000" stroke-width="2.074" stroke="black" fill="none" stroke-linecap="round"></path><path d="M 131.563,306.000 C 140.738,314.710 140.301,313.086 151.563,317.000" stroke-width="2.343" stroke="black" fill="none" stroke-linecap="round"></path><path d="M 151.563,317.000 C 168.060,320.352 166.738,320.210 183.563,317.000" stroke-width="1.994" stroke="black" fill="none" stroke-linecap="round"></path><path d="M 183.563,317.000 C 224.477,308.234 223.560,308.352 262.563,293.000" stroke-width="1.785" stroke="black" fill="none" stroke-linecap="round"></path><path d="M 262.563,293.000 C 283.835,282.151 284.477,284.234 303.563,269.000" stroke-width="1.456" stroke="black" fill="none" stroke-linecap="round"></path><path d="M 303.563,269.000 C 322.426,257.875 321.335,257.151 337.563,243.000" stroke-width="1.508" stroke="black" fill="none" stroke-linecap="round"></path><path d="M 337.563,243.000 C 353.002,229.121 351.426,229.375 361.563,212.000" stroke-width="1.591" stroke="black" fill="none" stroke-linecap="round"></path><path d="M 361.563,212.000 C 366.702,196.683 368.502,198.121 368.563,181.000" stroke-width="1.833" stroke="black" fill="none" stroke-linecap="round"></path><path d="M 368.563,181.000 C 372.372,165.996 370.202,167.183 368.563,153.000" stroke-width="2.076" stroke="black" fill="none" stroke-linecap="round"></path><path d="M 368.563,153.000 C 362.959,135.367 363.872,136.996 351.563,123.000" stroke-width="1.918" stroke="black" fill="none" stroke-linecap="round"></path><path d="M 351.563,123.000 C 337.778,110.108 339.459,109.867 321.563,102.000" stroke-width="1.768" stroke="black" fill="none" stroke-linecap="round"></path><path d="M 321.563,102.000 C 303.104,92.664 303.778,93.108 283.563,89.000" stroke-width="1.700" stroke="black" fill="none" stroke-linecap="round"></path><path d="M 283.563,89.000 C 262.548,86.750 263.104,85.164 241.563,87.000" stroke-width="1.593" stroke="black" fill="none" stroke-linecap="round"></path><path d="M 241.563,87.000 C 219.606,84.922 220.548,87.250 199.563,90.000" stroke-width="1.562" stroke="black" fill="none" stroke-linecap="round"></path><path d="M 199.563,90.000 C 181.537,95.767 182.106,94.422 166.563,106.000" stroke-width="1.662" stroke="black" fill="none" stroke-linecap="round"></path><path d="M 166.563,106.000 C 150.839,116.832 151.537,116.267 139.563,131.000" stroke-width="1.788" stroke="black" fill="none" stroke-linecap="round"></path></svg>