<svg xmlns="http://www.w3.org/2000/svg" xmlns:xlink="http://www.w3.org/1999/xlink" viewBox="0 0 252 251" width="252" height="251"><path d="M 117.000,140.500 C 113.067,138.952 113.000,139.500 109.000,138.500" stroke-width="3.983" stroke="black" fill="none" stroke-linecap="round"></path><path d="M 109.000,138.500 C 104.000,138.500 104.067,137.952 99.000,138.500" stroke-width="3.817" stroke="black" fill="none" stroke-linecap="round"></path><path d="M 99.000,138.500 C 93.000,138.500 93.000,138.500 87.000,138.500" stroke-width="3.438" stroke="black" fill="none" stroke-linecap="round"></path><path d="M 87.000,138.500 C 80.493,138.724 80.500,138.500 74.000,138.500" stroke-width="3.197" stroke="black" fill="none" stroke-linecap="round"></path><path d="M 74.000,138.500 C 65.993,138.092 65.993,138.224 58.000,137.500" stroke-width="2.916" stroke="black" fill="none" stroke-linecap="round"></path><path d="M 58.000,137.500 C 52.495,137.050 52.493,137.092 47.000,136.500" stroke-width="3.337" stroke="black" fill="none" stroke-linecap="round"></path><path d="M 47.000,136.500 C 42.478,136.140 42.495,136.050 38.000,135.500" stroke-width="3.563" stroke="black" fill="none" stroke-linecap="round"></path><path d="M 38.000,135.500 C 31.558,135.118 35.478,135.140 33.000,134.500" stroke-width="4.027" stroke="black" fill="none" stroke-linecap="round"></path><path d="M 33.000,134.500 C 42.482,131.930 38.558,132.118 52.000,129.500" stroke-width="3.632" stroke="black" fill="none" stroke-linecap="round"></path><path d="M 52.000,129.500 C 66.075,126.276 65.982,125.930 80.000,122.500" stroke-width="2.460" stroke="black" fill="none" stroke-linecap="round"></path><path d="M 80.000,122.500 C 95.700,118.600 95.575,118.276 111.000,113.500" stroke-width="2.010" stroke="black" fill="none" stroke-linecap="round"></path><path d="M 111.000,113.500 C 125.435,107.822 125.700,108.600 140.000,102.500" stroke-width="1.942" stroke="black" fill="none" stroke-linecap="round"></path><path d="M 140.000,102.500 C 151.374,98.077 151.435,98.322 163.000,94.500" stroke-width="2.187" stroke="black" fill="none" stroke-linecap="round"></path><path d="M 163.000,94.500 C 170.907,91.745 170.874,92.077 179.000,90.500" stroke-width="2.565" stroke="black" fill="none" stroke-linecap="round"></path><path d="M 179.000,90.500 C 184.733,88.976 183.907,89.745 189.000,90.500" stroke-width="3.179" stroke="black" fill="none" stroke-linecap="round"></path><path d="M 189.000,90.500 C 193.128,92.565 191.733,91.476 193.000,95.500" stroke-width="4.116" stroke="black" fill="none" stroke-linecap="round"></path><path d="M 193.000,95.500 C 193.202,105.944 192.628,104.065 188.000,113.500" stroke-width="2.993" stroke="black" fill="none" stroke-linecap="round"></path><path d="M 188.000,113.500 C 170.810,136.365 172.202,136.444 151.000,156.500" stroke-width="1.563" stroke="black" fill="none" stroke-linecap="round"></path><path d="M 151.000,156.500 C 139.486,166.703 140.310,167.365 127.000,175.500" stroke-width="1.894" stroke="black" fill="none" stroke-linecap="round"></path><path d="M 127.000,175.500 C 117.389,182.306 117.486,182.203 107.000,187.500" stroke-width="2.099" stroke="black" fill="none" stroke-linecap="round"></path><path d="M 107.000,187.500 C 99.038,190.606 99.389,191.306 91.000,193.500" stroke-width="2.676" stroke="black" fill="none" stroke-linecap="round"></path><path d="M 91.000,193.500 C 84.525,198.336 86.538,195.106 82.000,196.500" stroke-width="3.310" stroke="black" fill="none" stroke-linecap="round"></path><path d="M 82.000,196.500 C 77.991,190.290 79.025,194.336 80.000,185.500" stroke-width="3.906" stroke="black" fill="none" stroke-linecap="round"></path><path d="M 80.000,185.500 C 87.195,175.256 84.491,174.790 95.000,165.500" stroke-width="2.527" stroke="black" fill="none" stroke-linecap="round"></path><path d="M 95.000,165.500 C 102.754,154.746 103.195,155.256 112.000,145.500" stroke-width="2.297" stroke="black" fill="none" stroke-linecap="round"></path><path d="M 112.000,145.500 C 120.758,137.688 120.254,137.246 130.000,130.500" stroke-width="2.344" stroke="black" fill="none" stroke-linecap="round"></path><path d="M 130.000,130.500 C 138.558,123.270 138.758,123.688 148.000,117.500" stroke-width="2.352" stroke="black" fill="none" stroke-linecap="round"></path><path d="M 148.000,117.500 C 156.940,112.874 156.558,112.270 166.000,108.500" stroke-width="2.448" stroke="black" fill="none" stroke-linecap="round"></path><path d="M 166.000,108.500 C 171.466,105.921 171.440,105.874 177.000,103.500" stroke-width="2.933" stroke="black" fill="none" stroke-linecap="round"></path><path d="M 177.000,103.500 C 182.618,100.141 179.466,102.421 182.000,101.500" stroke-width="3.723" stroke="black" fill="none" stroke-linecap="round"></path><path d="M 182.000,101.500 C 177.852,108.816 180.118,105.641 172.000,114.500" stroke-width="3.747" stroke="black" fill="none" stroke-linecap="round"></path><path d="M 172.000,114.500 C 159.494,124.993 160.352,125.816 147.000,135.500" stroke-width="2.104" stroke="black" fill="none" stroke-linecap="round"></path><path d="M 147.000,135.500 C 137.364,143.345 137.494,143.493 128.000,151.500" stroke-width="2.173" stroke="black" fill="none" stroke-linecap="round"></path><path d="M 128.000,151.500 C 122.065,157.073 121.864,156.845 116.000,162.500" stroke-width="3.152" stroke="black" fill="none" stroke-linecap="round"></path><path d="M 116.000,162.500 C 106.971,169.813 112.565,165.573 109.000,168.500" stroke-width="3.483" stroke="black" fill="none" stroke-linecap="round"></path><path d="M 109.000,168.500 C 121.181,160.246 115.471,164.313 133.000,151.500" stroke-width="3.077" stroke="black" fill="none" stroke-linecap="round"></path><path d="M 133.000,151.500 C 145.814,141.246 146.181,141.746 159.000,131.500" stroke-width="2.096" stroke="black" fill="none" stroke-linecap="round"></path><path d="M 159.000,131.500 C 168.702,124.030 168.814,124.246 179.000,117.500" stroke-width="2.241" stroke="black" fill="none" stroke-linecap="round"></path><path d="M 216.000,187.500 C 211.373,187.529 211.500,187.000 207.000,186.500" stroke-width="4.097" stroke="black" fill="none" stroke-linecap="round"></path><path d="M 207.000,186.500 C 202.966,185.086 202.873,185.529 199.000,183.500" stroke-width="3.895" stroke="black" fill="none" stroke-linecap="round"></path><path d="M 199.000,183.500 C 190.594,179.752 190.466,180.086 182.000,176.500" stroke-width="2.903" stroke="black" fill="none" stroke-linecap="round"></path><path d="M 182.000,176.500 C 172.115,172.631 172.094,172.752 162.000,169.500" stroke-width="2.547" stroke="black" fill="none" stroke-linecap="round"></path><path d="M 162.000,169.500 C 151.000,166.500 151.115,166.131 140.000,163.500" stroke-width="2.444" stroke="black" fill="none" stroke-linecap="round"></path><path d="M 140.000,163.500 C 128.982,160.565 129.000,160.500 118.000,157.500" stroke-width="2.355" stroke="black" fill="none" stroke-linecap="round"></path><path d="M 118.000,157.500 C 107.288,155.101 107.482,154.565 97.000,151.500" stroke-width="2.429" stroke="black" fill="none" stroke-linecap="round"></path><path d="M 97.000,151.500 C 87.055,148.311 87.288,148.101 78.000,143.500" stroke-width="2.507" stroke="black" fill="none" stroke-linecap="round"></path><path d="M 78.000,143.500 C 70.500,140.000 71.055,139.811 65.000,134.500" stroke-width="2.724" stroke="black" fill="none" stroke-linecap="round"></path><path d="M 65.000,134.500 C 58.838,128.705 59.500,129.000 56.000,121.500" stroke-width="2.797" stroke="black" fill="none" stroke-linecap="round"></path><path d="M 56.000,121.500 C 52.294,111.488 52.338,112.205 52.000,101.500" stroke-width="2.625" stroke="black" fill="none" stroke-linecap="round"></path><path d="M 52.000,101.500 C 51.017,93.000 51.794,94.488 55.000,87.500" stroke-width="2.911" stroke="black" fill="none" stroke-linecap="round"></path><path d="M 55.000,87.500 C 62.603,77.168 61.517,78.500 73.000,72.500" stroke-width="2.441" stroke="black" fill="none" stroke-linecap="round"></path><path d="M 73.000,72.500 C 88.308,67.493 87.103,66.168 104.000,65.500" stroke-width="2.022" stroke="black" fill="none" stroke-linecap="round"></path><path d="M 104.000,65.500 C 120.001,64.500 119.808,63.493 136.000,64.500" stroke-width="1.916" stroke="black" fill="none" stroke-linecap="round"></path><path d="M 136.000,64.500 C 150.613,64.032 150.501,64.500 165.000,65.500" stroke-width="1.974" stroke="black" fill="none" stroke-linecap="round"></path><path d="M 165.000,65.500 C 175.705,65.838 175.113,66.532 185.000,69.500" stroke-width="2.298" stroke="black" fill="none" stroke-linecap="round"></path><path d="M 185.000,69.500 C 192.356,73.124 192.205,72.338 198.000,78.500" stroke-width="2.698" stroke="black" fill="none" stroke-linecap="round"></path><path d="M 198.000,78.500 C 204.162,83.297 202.856,83.124 206.000,89.500" stroke-width="2.983" stroke="black" fill="none" stroke-linecap="round"></path><path d="M 206.000,89.500 C 208.610,98.274 208.162,96.797 206.000,105.500" stroke-width="2.862" stroke="black" fill="none" stroke-linecap="round"></path><path d="M 206.000,105.500 C 201.876,117.848 202.110,116.274 193.000,125.500" stroke-width="3.132" stroke="black" fill="none" stroke-linecap="round"></path><path d="M 193.000,125.500 C 171.564,142.708 172.876,142.848 148.000,155.500" stroke-width="1.623" stroke="black" fill="none" stroke-linecap="round"></path><path d="M 148.000,155.500 C 135.761,160.785 136.564,161.708 123.000,163.500" stroke-width="1.994" stroke="black" fill="none" stroke-linecap="round"></path><path d="M 123.000,163.500 C 112.018,164.888 112.261,165.785 101.000,165.500" stroke-width="2.425" stroke="black" fill="none" stroke-linecap="round"></path><path d="M 101.000,165.500 C 93.253,167.489 94.018,165.888 87.000,165.500" stroke-width="2.852" stroke="black" fill="none" stroke-linecap="round"></path><path d="M 87.000,165.500 C 80.659,163.062 82.253,163.989 79.000,158.500" stroke-width="3.202" stroke="black" fill="none" stroke-linecap="round"></path><path d="M 79.000,158.500 C 76.893,150.454 76.659,152.062 79.000,143.500" stroke-width="3.049" stroke="black" fill="none" stroke-linecap="round"></path><path d="M 79.000,143.500 C 81.818,132.488 81.893,133.954 89.000,125.500" stroke-width="2.677" stroke="black" fill="none" stroke-linecap="round"></path><path d="M 89.000,125.500 C 101.931,115.505 100.318,114.488 116.000,107.500" stroke-width="1.977" stroke="black" fill="none" stroke-linecap="round"></path></svg>