<svg xmlns="http://www.w3.org/2000/svg" xmlns:xlink="http://www.w3.org/1999/xlink" viewBox="0 0 464 392" width="464" height="392"><path d="M 19.000,149.000 C 24.000,149.000 24.000,149.000 29.000,149.000" stroke-width="5.297" stroke="black" fill="none" stroke-linecap="round"></path><path d="M 29.000,149.000 C 32.019,149.284 32.000,149.000 35.000,149.000" stroke-width="4.925" stroke="black" fill="none" stroke-linecap="round"></path><path d="M 35.000,149.000 C 42.465,147.471 42.519,148.284 50.000,147.000" stroke-width="4.125" stroke="black" fill="none" stroke-linecap="round"></path><path d="M 50.000,147.000 C 58.536,147.605 58.465,146.471 67.000,147.000" stroke-width="4.244" stroke="black" fill="none" stroke-linecap="round"></path><path d="M 67.000,147.000 C 79.762,146.622 79.536,146.105 92.000,144.000" stroke-width="3.967" stroke="black" fill="none" stroke-linecap="round"></path><path d="M 92.000,144.000 C 100.489,140.969 100.762,142.122 109.000,138.000" stroke-width="4.125" stroke="black" fill="none" stroke-linecap="round"></path><path d="M 109.000,138.000 C 122.046,133.627 121.989,133.469 135.000,129.000" stroke-width="3.563" stroke="black" fill="none" stroke-linecap="round"></path><path d="M 135.000,129.000 C 143.186,126.397 143.046,126.127 151.000,123.000" stroke-width="3.820" stroke="black" fill="none" stroke-linecap="round"></path><path d="M 151.000,123.000 C 154.403,120.799 154.686,121.397 158.000,119.000" stroke-width="4.506" stroke="black" fill="none" stroke-linecap="round"></path><path d="M 158.000,119.000 C 160.526,118.060 160.403,117.799 163.000,117.000" stroke-width="4.294" stroke="black" fill="none" stroke-linecap="round"></path><path d="M 163.000,117.000 C 172.127,117.497 167.526,115.060 172.000,113.000" stroke-width="3.754" stroke="black" fill="none" stroke-linecap="round"></path><path d="M 172.000,113.000 C 168.311,78.441 171.127,81.997 161.000,46.000" stroke-width="4.299" stroke="black" fill="none" stroke-linecap="round"></path><path d="M 161.000,46.000 C 158.712,43.669 160.311,42.941 156.000,42.000" stroke-width="4.803" stroke="black" fill="none" stroke-linecap="round"></path><path d="M 156.000,42.000 C 152.000,40.000 152.212,39.669 148.000,38.000" stroke-width="3.899" stroke="black" fill="none" stroke-linecap="round"></path><path d="M 148.000,38.000 C 145.051,36.387 145.000,36.500 142.000,35.000" stroke-width="3.944" stroke="black" fill="none" stroke-linecap="round"></path><path d="M 142.000,35.000 C 139.529,33.920 139.551,33.887 137.000,33.000" stroke-width="4.168" stroke="black" fill="none" stroke-linecap="round"></path><path d="M 137.000,33.000 C 133.862,32.301 134.029,31.920 131.000,31.000" stroke-width="4.071" stroke="black" fill="none" stroke-linecap="round"></path><path d="M 131.000,31.000 C 128.500,29.500 128.362,29.801 126.000,28.000" stroke-width="4.529" stroke="black" fill="none" stroke-linecap="round"></path><path d="M 126.000,28.000 C 123.637,26.217 123.500,26.500 121.000,25.000" stroke-width="4.285" stroke="black" fill="none" stroke-linecap="round"></path><path d="M 121.000,25.000 C 116.987,23.533 117.137,23.217 113.000,22.000" stroke-width="4.430" stroke="black" fill="none" stroke-linecap="round"></path><path d="M 88.000,138.000 C 88.734,140.468 88.500,140.500 89.000,143.000" stroke-width="5.294" stroke="black" fill="none" stroke-linecap="round"></path><path d="M 89.000,143.000 C 90.738,150.067 89.734,149.968 90.000,157.000" stroke-width="4.243" stroke="black" fill="none" stroke-linecap="round"></path><path d="M 90.000,157.000 C 86.873,173.479 88.238,173.567 84.000,190.000" stroke-width="2.193" stroke="black" fill="none" stroke-linecap="round"></path><path d="M 84.000,190.000 C 82.791,196.474 82.873,196.479 82.000,203.000" stroke-width="2.797" stroke="black" fill="none" stroke-linecap="round"></path><path d="M 82.000,203.000 C 81.285,213.040 80.791,212.974 80.000,223.000" stroke-width="2.577" stroke="black" fill="none" stroke-linecap="round"></path><path d="M 80.000,223.000 C 78.919,228.487 79.285,228.540 78.000,234.000" stroke-width="3.051" stroke="black" fill="none" stroke-linecap="round"></path><path d="M 78.000,234.000 C 77.390,237.487 77.419,237.487 77.000,241.000" stroke-width="3.642" stroke="black" fill="none" stroke-linecap="round"></path><path d="M 77.000,241.000 C 76.424,246.494 76.390,246.487 76.000,252.000" stroke-width="3.476" stroke="black" fill="none" stroke-linecap="round"></path><path d="M 76.000,252.000 C 75.341,259.495 75.424,259.494 75.000,267.000" stroke-width="3.117" stroke="black" fill="none" stroke-linecap="round"></path><path d="M 75.000,267.000 C 75.249,270.518 74.841,270.495 75.000,274.000" stroke-width="4.047" stroke="black" fill="none" stroke-linecap="round"></path><path d="M 75.000,274.000 C 74.538,277.506 74.749,277.518 74.000,281.000" stroke-width="4.626" stroke="black" fill="none" stroke-linecap="round"></path><path d="M 74.000,281.000 C 73.252,283.979 73.538,284.006 73.000,287.000" stroke-width="4.226" stroke="black" fill="none" stroke-linecap="round"></path><path d="M 73.000,287.000 C 73.000,290.000 72.752,289.979 73.000,293.000" stroke-width="4.754" stroke="black" fill="none" stroke-linecap="round"></path><path d="M 73.000,293.000 C 73.000,297.500 73.000,297.500 73.000,302.000" stroke-width="5.118" stroke="black" fill="none" stroke-linecap="round"></path><path d="M 73.000,302.000 C 73.000,305.000 73.000,305.000 73.000,308.000" stroke-width="4.406" stroke="black" fill="none" stroke-linecap="round"></path><path d="M 173.000,293.000 C 168.504,292.466 168.500,292.500 164.000,292.000" stroke-width="4.097" stroke="black" fill="none" stroke-linecap="round"></path><path d="M 164.000,292.000 C 154.000,291.000 154.004,290.966 144.000,290.000" stroke-width="2.900" stroke="black" fill="none" stroke-linecap="round"></path><path d="M 144.000,290.000 C 139.013,289.323 139.000,289.500 134.000,289.000" stroke-width="3.317" stroke="black" fill="none" stroke-linecap="round"></path><path d="M 134.000,289.000 C 123.491,288.000 123.513,288.323 113.000,288.000" stroke-width="2.569" stroke="black" fill="none" stroke-linecap="round"></path><path d="M 113.000,288.000 C 106.947,288.150 106.991,288.000 101.000,289.000" stroke-width="3.082" stroke="black" fill="none" stroke-linecap="round"></path><path d="M 101.000,289.000 C 96.470,289.882 96.447,289.650 92.000,291.000" stroke-width="3.457" stroke="black" fill="none" stroke-linecap="round"></path><path d="M 92.000,291.000 C 88.530,292.118 88.470,291.882 85.000,293.000" stroke-width="3.733" stroke="black" fill="none" stroke-linecap="round"></path><path d="M 85.000,293.000 C 80.511,294.050 80.530,294.118 76.000,295.000" stroke-width="3.617" stroke="black" fill="none" stroke-linecap="round"></path><path d="M 76.000,295.000 C 70.941,295.765 71.011,296.050 66.000,297.000" stroke-width="3.598" stroke="black" fill="none" stroke-linecap="round"></path><path d="M 66.000,297.000 C 61.055,298.736 60.941,298.265 56.000,300.000" stroke-width="3.460" stroke="black" fill="none" stroke-linecap="round"></path><path d="M 56.000,300.000 C 52.853,300.049 53.055,300.736 50.000,301.000" stroke-width="3.869" stroke="black" fill="none" stroke-linecap="round"></path><path d="M 50.000,301.000 C 47.167,303.208 46.853,302.049 44.000,304.000" stroke-width="3.983" stroke="black" fill="none" stroke-linecap="round"></path><path d="M 44.000,304.000 C 41.000,304.000 41.167,304.708 38.000,304.000" stroke-width="4.664" stroke="black" fill="none" stroke-linecap="round"></path><path d="M 38.000,304.000 C 34.000,304.000 34.000,304.000 30.000,304.000" stroke-width="5.132" stroke="black" fill="none" stroke-linecap="round"></path><path d="M 30.000,304.000 C 26.500,304.000 26.500,304.000 23.000,304.000" stroke-width="4.213" stroke="black" fill="none" stroke-linecap="round"></path></svg>