<svg xmlns="http://www.w3.org/2000/svg" xmlns:xlink="http://www.w3.org/1999/xlink" viewBox="0 0 664 314" width="664" height="314"><path d="M 141.000,211.000 C 138.349,210.940 138.500,210.500 136.000,210.000" stroke-width="5.250" stroke="black" fill="none" stroke-linecap="round"></path><path d="M 136.000,210.000 C 131.000,207.500 130.849,207.940 126.000,205.000" stroke-width="3.796" stroke="black" fill="none" stroke-linecap="round"></path><path d="M 126.000,205.000 C 122.649,203.987 123.000,203.500 120.000,202.000" stroke-width="3.912" stroke="black" fill="none" stroke-linecap="round"></path><path d="M 120.000,202.000 C 117.252,198.710 116.649,199.487 114.000,196.000" stroke-width="3.743" stroke="black" fill="none" stroke-linecap="round"></path><path d="M 114.000,196.000 C 108.101,191.358 108.252,191.210 102.000,187.000" stroke-width="3.113" stroke="black" fill="none" stroke-linecap="round"></path><path d="M 102.000,187.000 C 97.540,183.938 97.601,183.858 93.000,181.000" stroke-width="3.333" stroke="black" fill="none" stroke-linecap="round"></path><path d="M 93.000,181.000 C 88.762,178.821 89.040,178.438 85.000,176.000" stroke-width="3.474" stroke="black" fill="none" stroke-linecap="round"></path><path d="M 85.000,176.000 C 80.916,172.590 80.762,172.821 77.000,169.000" stroke-width="3.518" stroke="black" fill="none" stroke-linecap="round"></path><path d="M 77.000,169.000 C 72.225,166.550 74.916,167.090 73.000,165.000" stroke-width="4.315" stroke="black" fill="none" stroke-linecap="round"></path><path d="M 73.000,165.000 C 76.724,162.151 74.225,162.550 81.000,161.000" stroke-width="4.847" stroke="black" fill="none" stroke-linecap="round"></path><path d="M 81.000,161.000 C 90.173,160.247 89.724,158.651 99.000,158.000" stroke-width="3.046" stroke="black" fill="none" stroke-linecap="round"></path><path d="M 99.000,158.000 C 117.495,152.483 117.673,153.247 136.000,147.000" stroke-width="2.042" stroke="black" fill="none" stroke-linecap="round"></path><path d="M 136.000,147.000 C 144.544,144.643 144.495,144.483 153.000,142.000" stroke-width="2.444" stroke="black" fill="none" stroke-linecap="round"></path><path d="M 153.000,142.000 C 169.743,139.383 168.544,137.143 184.000,132.000" stroke-width="2.059" stroke="black" fill="none" stroke-linecap="round"></path><path d="M 184.000,132.000 C 196.473,122.465 197.743,124.883 209.000,113.000" stroke-width="2.000" stroke="black" fill="none" stroke-linecap="round"></path><path d="M 209.000,113.000 C 218.474,104.579 218.973,105.465 229.000,98.000" stroke-width="2.133" stroke="black" fill="none" stroke-linecap="round"></path><path d="M 229.000,98.000 C 234.930,95.312 234.474,94.579 241.000,93.000" stroke-width="2.776" stroke="black" fill="none" stroke-linecap="round"></path><path d="M 241.000,93.000 C 245.364,90.662 245.430,91.312 250.000,90.000" stroke-width="3.265" stroke="black" fill="none" stroke-linecap="round"></path><path d="M 250.000,90.000 C 256.081,89.290 255.864,89.162 262.000,90.000" stroke-width="3.229" stroke="black" fill="none" stroke-linecap="round"></path><path d="M 262.000,90.000 C 269.086,90.339 268.581,90.790 275.000,93.000" stroke-width="3.114" stroke="black" fill="none" stroke-linecap="round"></path><path d="M 275.000,93.000 C 280.896,94.898 279.086,94.839 282.000,99.000" stroke-width="3.913" stroke="black" fill="none" stroke-linecap="round"></path><path d="M 282.000,99.000 C 285.691,110.464 284.396,107.898 282.000,119.000" stroke-width="2.878" stroke="black" fill="none" stroke-linecap="round"></path><path d="M 282.000,119.000 C 273.518,127.083 277.691,128.964 266.000,136.000" stroke-width="2.503" stroke="black" fill="none" stroke-linecap="round"></path><path d="M 266.000,136.000 C 253.231,153.625 252.018,152.583 239.000,170.000" stroke-width="1.718" stroke="black" fill="none" stroke-linecap="round"></path><path d="M 239.000,170.000 C 215.165,194.335 216.731,195.625 193.000,220.000" stroke-width="1.256" stroke="black" fill="none" stroke-linecap="round"></path><path d="M 193.000,220.000 C 188.702,229.101 186.665,227.335 182.000,236.000" stroke-width="1.978" stroke="black" fill="none" stroke-linecap="round"></path><path d="M 182.000,236.000 C 169.911,244.869 171.702,246.601 159.000,255.000" stroke-width="1.968" stroke="black" fill="none" stroke-linecap="round"></path><path d="M 159.000,255.000 C 150.381,266.061 148.911,264.369 140.000,275.000" stroke-width="2.088" stroke="black" fill="none" stroke-linecap="round"></path><path d="M 140.000,275.000 C 132.102,281.839 132.381,281.561 123.000,286.000" stroke-width="2.350" stroke="black" fill="none" stroke-linecap="round"></path><path d="M 123.000,286.000 C 114.025,288.593 114.602,289.839 105.000,291.000" stroke-width="2.516" stroke="black" fill="none" stroke-linecap="round"></path><path d="M 105.000,291.000 C 99.109,293.389 99.025,292.593 93.000,294.000" stroke-width="2.942" stroke="black" fill="none" stroke-linecap="round"></path><path d="M 93.000,294.000 C 83.982,294.333 84.109,294.889 75.000,294.000" stroke-width="2.792" stroke="black" fill="none" stroke-linecap="round"></path><path d="M 75.000,294.000 C 70.413,293.929 70.482,293.833 66.000,293.000" stroke-width="3.308" stroke="black" fill="none" stroke-linecap="round"></path><path d="M 66.000,293.000 C 60.217,292.811 60.913,291.929 56.000,290.000" stroke-width="3.430" stroke="black" fill="none" stroke-linecap="round"></path><path d="M 56.000,290.000 C 48.629,285.618 49.717,285.811 45.000,279.000" stroke-width="3.069" stroke="black" fill="none" stroke-linecap="round"></path><path d="M 45.000,279.000 C 40.495,269.166 40.129,270.118 39.000,259.000" stroke-width="2.666" stroke="black" fill="none" stroke-linecap="round"></path><path d="M 39.000,259.000 C 37.998,251.606 37.995,252.166 40.000,245.000" stroke-width="2.889" stroke="black" fill="none" stroke-linecap="round"></path><path d="M 40.000,245.000 C 42.640,234.115 42.998,235.106 49.000,226.000" stroke-width="2.552" stroke="black" fill="none" stroke-linecap="round"></path><path d="M 49.000,226.000 C 57.504,214.248 57.140,215.615 69.000,208.000" stroke-width="2.278" stroke="black" fill="none" stroke-linecap="round"></path><path d="M 69.000,208.000 C 81.794,203.488 80.504,201.748 95.000,201.000" stroke-width="2.148" stroke="black" fill="none" stroke-linecap="round"></path><path d="M 95.000,201.000 C 116.410,196.016 116.294,196.988 138.000,195.000" stroke-width="1.662" stroke="black" fill="none" stroke-linecap="round"></path><path d="M 138.000,195.000 C 159.086,195.228 158.910,194.016 180.000,197.000" stroke-width="1.582" stroke="black" fill="none" stroke-linecap="round"></path><path d="M 180.000,197.000 C 188.463,198.780 188.586,197.728 197.000,200.000" stroke-width="2.271" stroke="black" fill="none" stroke-linecap="round"></path><path d="M 197.000,200.000 C 202.525,200.294 202.463,200.780 208.000,201.000" stroke-width="2.964" stroke="black" fill="none" stroke-linecap="round"></path><path d="M 208.000,201.000 C 218.158,201.891 218.025,202.294 228.000,204.000" stroke-width="2.676" stroke="black" fill="none" stroke-linecap="round"></path><path d="M 228.000,204.000 C 232.393,204.836 232.158,204.891 236.000,207.000" stroke-width="3.300" stroke="black" fill="none" stroke-linecap="round"></path><path d="M 236.000,207.000 C 240.309,209.348 239.893,209.336 243.000,213.000" stroke-width="3.484" stroke="black" fill="none" stroke-linecap="round"></path><path d="M 243.000,213.000 C 247.167,219.272 247.309,218.848 250.000,226.000" stroke-width="3.073" stroke="black" fill="none" stroke-linecap="round"></path><path d="M 250.000,226.000 C 251.000,229.000 251.167,228.772 251.000,232.000" stroke-width="3.751" stroke="black" fill="none" stroke-linecap="round"></path><path d="M 251.000,232.000 C 251.557,235.509 251.000,235.000 250.000,238.000" stroke-width="4.057" stroke="black" fill="none" stroke-linecap="round"></path><path d="M 250.000,238.000 C 246.329,244.124 246.557,243.509 241.000,248.000" stroke-width="3.368" stroke="black" fill="none" stroke-linecap="round"></path><path d="M 241.000,248.000 C 234.663,251.462 235.329,252.124 228.000,254.000" stroke-width="3.078" stroke="black" fill="none" stroke-linecap="round"></path><path d="M 228.000,254.000 C 224.013,255.056 224.163,255.462 220.000,256.000" stroke-width="3.496" stroke="black" fill="none" stroke-linecap="round"></path><path d="M 220.000,256.000 C 215.547,257.432 215.513,257.056 211.000,258.000" stroke-width="3.600" stroke="black" fill="none" stroke-linecap="round"></path><path d="M 211.000,258.000 C 207.500,258.000 207.547,258.432 204.000,258.000" stroke-width="3.814" stroke="black" fill="none" stroke-linecap="round"></path><path d="M 204.000,258.000 C 198.225,259.716 200.500,258.000 197.000,258.000" stroke-width="4.357" stroke="black" fill="none" stroke-linecap="round"></path><path d="M 197.000,258.000 C 197.069,253.985 195.725,256.216 199.000,251.000" stroke-width="4.577" stroke="black" fill="none" stroke-linecap="round"></path></svg>