<svg xmlns="http://www.w3.org/2000/svg" xmlns:xlink="http://www.w3.org/1999/xlink" viewBox="0 0 664 313" width="664" height="313"><path d="M 127.000,188.000 C 122.897,187.899 123.000,187.500 119.000,187.000" stroke-width="5.188" stroke="black" fill="none" stroke-linecap="round"></path><path d="M 119.000,187.000 C 116.401,186.200 116.397,186.399 114.000,185.000" stroke-width="4.511" stroke="black" fill="none" stroke-linecap="round"></path><path d="M 114.000,185.000 C 111.692,182.979 111.401,183.700 109.000,182.000" stroke-width="4.178" stroke="black" fill="none" stroke-linecap="round"></path><path d="M 109.000,182.000 C 105.959,181.683 106.192,180.979 103.000,181.000" stroke-width="4.106" stroke="black" fill="none" stroke-linecap="round"></path><path d="M 103.000,181.000 C 99.541,179.817 99.459,180.183 96.000,179.000" stroke-width="3.935" stroke="black" fill="none" stroke-linecap="round"></path><path d="M 96.000,179.000 C 92.992,178.544 93.041,178.317 90.000,178.000" stroke-width="4.078" stroke="black" fill="none" stroke-linecap="round"></path><path d="M 90.000,178.000 C 85.000,177.730 87.492,177.544 85.000,177.000" stroke-width="4.746" stroke="black" fill="none" stroke-linecap="round"></path><path d="M 85.000,177.000 C 87.755,176.428 85.000,176.230 90.000,175.000" stroke-width="5.109" stroke="black" fill="none" stroke-linecap="round"></path><path d="M 90.000,175.000 C 92.951,172.439 93.255,172.928 96.000,170.000" stroke-width="4.100" stroke="black" fill="none" stroke-linecap="round"></path><path d="M 96.000,170.000 C 100.526,166.532 100.451,166.439 105.000,163.000" stroke-width="3.493" stroke="black" fill="none" stroke-linecap="round"></path><path d="M 105.000,163.000 C 109.980,158.974 110.026,159.032 115.000,155.000" stroke-width="3.226" stroke="black" fill="none" stroke-linecap="round"></path><path d="M 115.000,155.000 C 122.312,149.852 121.980,149.474 129.000,144.000" stroke-width="2.810" stroke="black" fill="none" stroke-linecap="round"></path><path d="M 129.000,144.000 C 133.662,138.610 134.312,139.352 139.000,134.000" stroke-width="2.931" stroke="black" fill="none" stroke-linecap="round"></path><path d="M 139.000,134.000 C 145.066,129.585 144.662,129.110 151.000,125.000" stroke-width="2.971" stroke="black" fill="none" stroke-linecap="round"></path><path d="M 151.000,125.000 C 155.915,120.888 156.066,121.085 161.000,117.000" stroke-width="3.077" stroke="black" fill="none" stroke-linecap="round"></path><path d="M 161.000,117.000 C 164.500,114.500 164.415,114.388 168.000,112.000" stroke-width="3.510" stroke="black" fill="none" stroke-linecap="round"></path><path d="M 168.000,112.000 C 171.593,109.621 171.500,109.500 175.000,107.000" stroke-width="3.664" stroke="black" fill="none" stroke-linecap="round"></path><path d="M 175.000,107.000 C 177.907,104.379 178.093,104.621 181.000,102.000" stroke-width="3.744" stroke="black" fill="none" stroke-linecap="round"></path><path d="M 181.000,102.000 C 186.997,96.247 184.407,99.379 188.000,97.000" stroke-width="4.219" stroke="black" fill="none" stroke-linecap="round"></path><path d="M 188.000,97.000 C 186.657,101.065 188.997,97.747 185.000,105.000" stroke-width="4.730" stroke="black" fill="none" stroke-linecap="round"></path><path d="M 185.000,105.000 C 182.701,110.599 182.657,110.565 180.000,116.000" stroke-width="3.548" stroke="black" fill="none" stroke-linecap="round"></path><path d="M 180.000,116.000 C 176.000,123.500 176.201,123.599 172.000,131.000" stroke-width="2.999" stroke="black" fill="none" stroke-linecap="round"></path><path d="M 172.000,131.000 C 168.336,138.698 168.000,138.500 164.000,146.000" stroke-width="2.924" stroke="black" fill="none" stroke-linecap="round"></path><path d="M 164.000,146.000 C 158.834,154.735 158.836,154.698 153.000,163.000" stroke-width="2.665" stroke="black" fill="none" stroke-linecap="round"></path><path d="M 153.000,163.000 C 146.914,171.851 146.834,171.735 140.000,180.000" stroke-width="2.478" stroke="black" fill="none" stroke-linecap="round"></path><path d="M 140.000,180.000 C 132.621,188.117 132.914,188.351 125.000,196.000" stroke-width="2.463" stroke="black" fill="none" stroke-linecap="round"></path><path d="M 125.000,196.000 C 118.462,203.533 118.121,203.117 111.000,210.000" stroke-width="2.498" stroke="black" fill="none" stroke-linecap="round"></path><path d="M 111.000,210.000 C 102.967,215.956 103.462,216.533 95.000,222.000" stroke-width="2.612" stroke="black" fill="none" stroke-linecap="round"></path><path d="M 95.000,222.000 C 88.876,227.600 88.467,226.956 82.000,232.000" stroke-width="2.783" stroke="black" fill="none" stroke-linecap="round"></path><path d="M 82.000,232.000 C 75.760,234.597 76.376,235.600 70.000,238.000" stroke-width="2.971" stroke="black" fill="none" stroke-linecap="round"></path><path d="M 70.000,238.000 C 65.194,241.826 64.760,241.097 60.000,245.000" stroke-width="3.177" stroke="black" fill="none" stroke-linecap="round"></path><path d="M 60.000,245.000 C 55.935,246.881 56.194,247.326 52.000,249.000" stroke-width="3.467" stroke="black" fill="none" stroke-linecap="round"></path><path d="M 52.000,249.000 C 49.383,250.332 49.435,250.381 47.000,252.000" stroke-width="4.304" stroke="black" fill="none" stroke-linecap="round"></path><path d="M 47.000,252.000 C 42.702,256.702 44.383,253.832 42.000,256.000" stroke-width="4.149" stroke="black" fill="none" stroke-linecap="round"></path><path d="M 42.000,256.000 C 42.014,251.868 41.202,255.202 44.000,249.000" stroke-width="4.812" stroke="black" fill="none" stroke-linecap="round"></path><path d="M 44.000,249.000 C 47.247,245.649 46.514,245.368 51.000,243.000" stroke-width="3.992" stroke="black" fill="none" stroke-linecap="round"></path><path d="M 51.000,243.000 C 55.980,239.966 55.747,239.649 61.000,237.000" stroke-width="3.623" stroke="black" fill="none" stroke-linecap="round"></path><path d="M 61.000,237.000 C 67.086,233.640 66.980,233.466 73.000,230.000" stroke-width="3.237" stroke="black" fill="none" stroke-linecap="round"></path><path d="M 73.000,230.000 C 79.867,225.280 80.086,225.640 87.000,221.000" stroke-width="2.950" stroke="black" fill="none" stroke-linecap="round"></path><path d="M 87.000,221.000 C 95.257,216.904 94.867,216.280 103.000,212.000" stroke-width="2.711" stroke="black" fill="none" stroke-linecap="round"></path><path d="M 103.000,212.000 C 109.810,206.711 110.257,207.404 117.000,202.000" stroke-width="2.711" stroke="black" fill="none" stroke-linecap="round"></path><path d="M 117.000,202.000 C 124.206,196.897 124.310,197.211 132.000,193.000" stroke-width="2.860" stroke="black" fill="none" stroke-linecap="round"></path><path d="M 132.000,193.000 C 138.590,190.712 138.206,189.897 145.000,188.000" stroke-width="3.018" stroke="black" fill="none" stroke-linecap="round"></path><path d="M 145.000,188.000 C 151.483,184.962 151.590,185.212 158.000,182.000" stroke-width="3.043" stroke="black" fill="none" stroke-linecap="round"></path><path d="M 158.000,182.000 C 162.539,180.082 162.483,179.962 167.000,178.000" stroke-width="3.388" stroke="black" fill="none" stroke-linecap="round"></path><path d="M 167.000,178.000 C 170.186,176.791 170.039,176.582 173.000,175.000" stroke-width="3.815" stroke="black" fill="none" stroke-linecap="round"></path><path d="M 173.000,175.000 C 178.258,172.033 175.686,173.291 178.000,171.000" stroke-width="4.415" stroke="black" fill="none" stroke-linecap="round"></path><path d="M 178.000,171.000 C 174.920,170.453 177.758,170.033 172.000,171.000" stroke-width="4.523" stroke="black" fill="none" stroke-linecap="round"></path><path d="M 172.000,171.000 C 166.541,171.610 166.920,171.953 162.000,174.000" stroke-width="3.742" stroke="black" fill="none" stroke-linecap="round"></path><path d="M 162.000,174.000 C 157.147,177.130 157.041,176.610 153.000,181.000" stroke-width="3.471" stroke="black" fill="none" stroke-linecap="round"></path><path d="M 153.000,181.000 C 149.598,184.221 149.647,184.130 147.000,188.000" stroke-width="3.642" stroke="black" fill="none" stroke-linecap="round"></path><path d="M 147.000,188.000 C 144.422,192.459 144.098,192.221 142.000,197.000" stroke-width="3.544" stroke="black" fill="none" stroke-linecap="round"></path><path d="M 142.000,197.000 C 140.387,199.949 140.422,199.959 139.000,203.000" stroke-width="3.873" stroke="black" fill="none" stroke-linecap="round"></path><path d="M 139.000,203.000 C 136.352,205.838 137.887,205.449 137.000,208.000" stroke-width="4.102" stroke="black" fill="none" stroke-linecap="round"></path><path d="M 137.000,208.000 C 138.895,212.837 137.852,210.838 142.000,213.000" stroke-width="4.662" stroke="black" fill="none" stroke-linecap="round"></path><path d="M 142.000,213.000 C 149.651,212.292 148.395,213.337 156.000,209.000" stroke-width="3.311" stroke="black" fill="none" stroke-linecap="round"></path><path d="M 156.000,209.000 C 162.806,204.349 163.151,205.292 169.000,199.000" stroke-width="2.919" stroke="black" fill="none" stroke-linecap="round"></path><path d="M 169.000,199.000 C 173.361,194.349 173.806,194.849 178.000,190.000" stroke-width="3.065" stroke="black" fill="none" stroke-linecap="round"></path><path d="M 178.000,190.000 C 181.459,186.951 181.361,186.849 185.000,184.000" stroke-width="3.451" stroke="black" fill="none" stroke-linecap="round"></path><path d="M 185.000,184.000 C 187.611,182.124 187.459,181.951 190.000,180.000" stroke-width="3.872" stroke="black" fill="none" stroke-linecap="round"></path><path d="M 190.000,180.000 C 194.903,174.968 192.111,178.124 194.000,176.000" stroke-width="4.466" stroke="black" fill="none" stroke-linecap="round"></path><path d="M 194.000,176.000 C 188.265,181.805 191.403,178.968 183.000,188.000" stroke-width="3.981" stroke="black" fill="none" stroke-linecap="round"></path><path d="M 183.000,188.000 C 180.048,192.037 179.765,191.805 177.000,196.000" stroke-width="3.603" stroke="black" fill="none" stroke-linecap="round"></path><path d="M 177.000,196.000 C 174.832,198.383 175.048,198.537 173.000,201.000" stroke-width="3.883" stroke="black" fill="none" stroke-linecap="round"></path><path d="M 173.000,201.000 C 168.542,204.866 171.332,203.383 170.000,206.000" stroke-width="4.048" stroke="black" fill="none" stroke-linecap="round"></path><path d="M 170.000,206.000 C 176.384,209.021 173.042,208.366 182.000,208.000" stroke-width="4.522" stroke="black" fill="none" stroke-linecap="round"></path><path d="M 182.000,208.000 C 187.403,205.516 187.384,207.021 192.000,202.000" stroke-width="3.684" stroke="black" fill="none" stroke-linecap="round"></path><path d="M 192.000,202.000 C 195.500,198.500 195.903,199.016 199.000,195.000" stroke-width="3.535" stroke="black" fill="none" stroke-linecap="round"></path><path d="M 199.000,195.000 C 202.000,192.000 202.000,192.000 205.000,189.000" stroke-width="3.684" stroke="black" fill="none" stroke-linecap="round"></path><path d="M 205.000,189.000 C 208.754,184.754 207.000,187.000 209.000,185.000" stroke-width="4.204" stroke="black" fill="none" stroke-linecap="round"></path><path d="M 209.000,185.000 C 207.395,187.442 209.254,185.254 206.000,190.000" stroke-width="4.886" stroke="black" fill="none" stroke-linecap="round"></path><path d="M 206.000,190.000 C 202.124,195.781 204.395,192.942 203.000,196.000" stroke-width="4.719" stroke="black" fill="none" stroke-linecap="round"></path><path d="M 203.000,196.000 C 206.560,193.580 204.124,196.281 210.000,191.000" stroke-width="5.213" stroke="black" fill="none" stroke-linecap="round"></path><path d="M 210.000,191.000 C 212.284,188.630 212.560,189.080 215.000,187.000" stroke-width="4.976" stroke="black" fill="none" stroke-linecap="round"></path><path d="M 215.000,187.000 C 217.775,186.483 217.284,185.630 220.000,185.000" stroke-width="5.201" stroke="black" fill="none" stroke-linecap="round"></path><path d="M 220.000,185.000 C 226.810,180.364 226.775,180.483 233.000,175.000" stroke-width="3.384" stroke="black" fill="none" stroke-linecap="round"></path><path d="M 233.000,175.000 C 241.878,167.368 241.810,167.364 250.000,159.000" stroke-width="2.534" stroke="black" fill="none" stroke-linecap="round"></path></svg>