<svg xmlns="http://www.w3.org/2000/svg" xmlns:xlink="http://www.w3.org/1999/xlink" viewBox="0 0 664 416" width="664" height="416"><path d="M 111.417,226.000 C 108.701,225.370 108.917,225.000 106.417,224.000" stroke-width="5.375" stroke="black" fill="none" stroke-linecap="round"></path><path d="M 106.417,224.000 C 104.157,221.599 103.701,222.370 101.417,220.000" stroke-width="4.347" stroke="black" fill="none" stroke-linecap="round"></path><path d="M 101.417,220.000 C 97.931,218.464 98.157,218.099 94.417,217.000" stroke-width="4.013" stroke="black" fill="none" stroke-linecap="round"></path><path d="M 94.417,217.000 C 91.955,215.896 91.931,215.964 89.417,215.000" stroke-width="4.148" stroke="black" fill="none" stroke-linecap="round"></path><path d="M 89.417,215.000 C 83.510,212.604 83.455,212.896 77.417,211.000" stroke-width="4.090" stroke="black" fill="none" stroke-linecap="round"></path><path d="M 77.417,211.000 C 73.823,210.852 74.010,210.104 70.417,210.000" stroke-width="4.455" stroke="black" fill="none" stroke-linecap="round"></path><path d="M 70.417,210.000 C 67.917,209.000 67.823,209.352 65.417,208.000" stroke-width="4.325" stroke="black" fill="none" stroke-linecap="round"></path><path d="M 65.417,208.000 C 62.866,207.113 62.917,207.000 60.417,206.000" stroke-width="4.670" stroke="black" fill="none" stroke-linecap="round"></path><path d="M 60.417,206.000 C 56.405,205.273 57.366,204.613 54.417,203.000" stroke-width="4.869" stroke="black" fill="none" stroke-linecap="round"></path><path d="M 54.417,203.000 C 52.950,200.333 52.905,201.273 53.417,198.000" stroke-width="5.291" stroke="black" fill="none" stroke-linecap="round"></path><path d="M 53.417,198.000 C 54.584,195.240 53.950,195.333 56.417,193.000" stroke-width="4.468" stroke="black" fill="none" stroke-linecap="round"></path><path d="M 56.417,193.000 C 59.083,189.593 59.084,189.740 62.417,187.000" stroke-width="3.882" stroke="black" fill="none" stroke-linecap="round"></path><path d="M 62.417,187.000 C 68.137,182.454 68.083,182.593 74.417,179.000" stroke-width="3.186" stroke="black" fill="none" stroke-linecap="round"></path><path d="M 74.417,179.000 C 78.621,177.898 78.137,176.954 82.417,176.000" stroke-width="3.508" stroke="black" fill="none" stroke-linecap="round"></path><path d="M 82.417,176.000 C 85.281,173.772 85.621,174.398 88.417,172.000" stroke-width="3.759" stroke="black" fill="none" stroke-linecap="round"></path><path d="M 88.417,172.000 C 96.884,167.437 96.781,167.272 105.417,163.000" stroke-width="2.898" stroke="black" fill="none" stroke-linecap="round"></path><path d="M 105.417,163.000 C 109.640,161.361 109.384,160.937 113.417,159.000" stroke-width="3.361" stroke="black" fill="none" stroke-linecap="round"></path><path d="M 113.417,159.000 C 117.445,156.037 117.640,156.361 121.417,153.000" stroke-width="3.431" stroke="black" fill="none" stroke-linecap="round"></path><path d="M 121.417,153.000 C 126.018,149.623 125.945,149.537 130.417,146.000" stroke-width="3.327" stroke="black" fill="none" stroke-linecap="round"></path><path d="M 130.417,146.000 C 134.381,142.459 134.518,142.623 138.417,139.000" stroke-width="3.364" stroke="black" fill="none" stroke-linecap="round"></path><path d="M 138.417,139.000 C 141.232,136.248 141.381,136.459 144.417,134.000" stroke-width="3.693" stroke="black" fill="none" stroke-linecap="round"></path><path d="M 144.417,134.000 C 150.052,130.689 149.732,130.248 155.417,127.000" stroke-width="3.256" stroke="black" fill="none" stroke-linecap="round"></path><path d="M 155.417,127.000 C 157.879,124.952 158.052,125.189 160.417,123.000" stroke-width="3.754" stroke="black" fill="none" stroke-linecap="round"></path><path d="M 160.417,123.000 C 164.759,120.353 164.379,119.952 168.417,117.000" stroke-width="4.150" stroke="black" fill="none" stroke-linecap="round"></path><path d="M 168.417,117.000 C 172.227,111.050 170.759,114.853 172.417,112.000" stroke-width="4.496" stroke="black" fill="none" stroke-linecap="round"></path><path d="M 172.417,112.000 C 171.705,117.424 172.727,113.550 169.417,122.000" stroke-width="4.932" stroke="black" fill="none" stroke-linecap="round"></path><path d="M 169.417,122.000 C 166.579,124.757 167.705,125.424 164.417,128.000" stroke-width="4.065" stroke="black" fill="none" stroke-linecap="round"></path><path d="M 164.417,128.000 C 158.046,138.583 157.579,138.257 151.417,149.000" stroke-width="2.638" stroke="black" fill="none" stroke-linecap="round"></path><path d="M 151.417,149.000 C 146.718,154.633 147.546,155.083 143.417,161.000" stroke-width="2.854" stroke="black" fill="none" stroke-linecap="round"></path><path d="M 143.417,161.000 C 140.316,168.461 139.718,168.133 137.417,176.000" stroke-width="2.815" stroke="black" fill="none" stroke-linecap="round"></path><path d="M 137.417,176.000 C 133.836,188.484 132.816,187.961 128.417,200.000" stroke-width="2.389" stroke="black" fill="none" stroke-linecap="round"></path><path d="M 128.417,200.000 C 124.882,204.976 125.836,205.484 121.417,210.000" stroke-width="2.946" stroke="black" fill="none" stroke-linecap="round"></path><path d="M 121.417,210.000 C 114.880,219.475 114.882,219.476 108.417,229.000" stroke-width="2.467" stroke="black" fill="none" stroke-linecap="round"></path><path d="M 108.417,229.000 C 105.557,233.603 105.380,233.475 102.417,238.000" stroke-width="3.075" stroke="black" fill="none" stroke-linecap="round"></path><path d="M 102.417,238.000 C 100.673,240.744 100.557,240.603 98.417,243.000" stroke-width="3.679" stroke="black" fill="none" stroke-linecap="round"></path><path d="M 98.417,243.000 C 93.948,247.035 94.173,247.244 89.417,251.000" stroke-width="3.400" stroke="black" fill="none" stroke-linecap="round"></path><path d="M 89.417,251.000 C 85.777,253.849 85.948,254.035 82.417,257.000" stroke-width="3.569" stroke="black" fill="none" stroke-linecap="round"></path><path d="M 82.417,257.000 C 77.669,261.276 77.777,261.349 73.417,266.000" stroke-width="3.315" stroke="black" fill="none" stroke-linecap="round"></path><path d="M 73.417,266.000 C 68.966,271.541 68.669,271.276 64.417,277.000" stroke-width="3.135" stroke="black" fill="none" stroke-linecap="round"></path><path d="M 64.417,277.000 C 61.529,280.604 61.466,280.541 58.417,284.000" stroke-width="3.939" stroke="black" fill="none" stroke-linecap="round"></path><path d="M 58.417,284.000 C 56.041,286.638 56.029,286.604 53.417,289.000" stroke-width="3.962" stroke="black" fill="none" stroke-linecap="round"></path><path d="M 53.417,289.000 C 51.129,291.331 51.041,291.138 48.417,293.000" stroke-width="4.048" stroke="black" fill="none" stroke-linecap="round"></path><path d="M 48.417,293.000 C 44.474,295.127 44.629,295.331 40.417,297.000" stroke-width="4.305" stroke="black" fill="none" stroke-linecap="round"></path><path d="M 40.417,297.000 C 36.078,300.875 37.974,298.127 35.417,299.000" stroke-width="4.812" stroke="black" fill="none" stroke-linecap="round"></path><path d="M 35.417,299.000 C 33.294,289.263 33.078,292.375 34.417,280.000" stroke-width="4.644" stroke="black" fill="none" stroke-linecap="round"></path><path d="M 34.417,280.000 C 36.139,272.556 35.294,272.763 39.417,266.000" stroke-width="3.282" stroke="black" fill="none" stroke-linecap="round"></path><path d="M 39.417,266.000 C 41.875,262.965 41.139,262.556 44.417,260.000" stroke-width="3.663" stroke="black" fill="none" stroke-linecap="round"></path><path d="M 44.417,260.000 C 47.352,255.387 47.875,255.965 51.417,252.000" stroke-width="3.519" stroke="black" fill="none" stroke-linecap="round"></path><path d="M 51.417,252.000 C 63.020,243.634 62.352,242.887 74.417,235.000" stroke-width="2.314" stroke="black" fill="none" stroke-linecap="round"></path><path d="M 74.417,235.000 C 79.270,230.804 79.520,231.134 84.417,227.000" stroke-width="2.875" stroke="black" fill="none" stroke-linecap="round"></path><path d="M 84.417,227.000 C 90.639,222.005 90.770,222.304 97.417,218.000" stroke-width="2.902" stroke="black" fill="none" stroke-linecap="round"></path><path d="M 97.417,218.000 C 101.879,215.911 101.639,215.505 106.417,214.000" stroke-width="3.285" stroke="black" fill="none" stroke-linecap="round"></path><path d="M 106.417,214.000 C 111.454,212.089 111.379,211.911 116.417,210.000" stroke-width="3.394" stroke="black" fill="none" stroke-linecap="round"></path><path d="M 116.417,210.000 C 120.832,207.783 120.954,208.089 125.417,206.000" stroke-width="3.455" stroke="black" fill="none" stroke-linecap="round"></path><path d="M 125.417,206.000 C 129.894,204.428 129.832,204.283 134.417,203.000" stroke-width="3.562" stroke="black" fill="none" stroke-linecap="round"></path><path d="M 134.417,203.000 C 139.466,201.650 139.394,201.428 144.417,200.000" stroke-width="3.508" stroke="black" fill="none" stroke-linecap="round"></path><path d="M 144.417,200.000 C 150.157,198.475 149.966,198.150 155.417,196.000" stroke-width="3.382" stroke="black" fill="none" stroke-linecap="round"></path><path d="M 155.417,196.000 C 158.503,194.119 158.657,194.475 161.417,192.000" stroke-width="4.161" stroke="black" fill="none" stroke-linecap="round"></path><path d="M 166.417,188.000 C 161.948,192.035 161.917,192.000 157.417,196.000" stroke-width="5.162" stroke="black" fill="none" stroke-linecap="round"></path><path d="M 157.417,196.000 C 154.124,199.282 153.948,199.035 150.417,202.000" stroke-width="3.999" stroke="black" fill="none" stroke-linecap="round"></path><path d="M 150.417,202.000 C 146.207,204.207 146.624,204.782 142.417,207.000" stroke-width="3.665" stroke="black" fill="none" stroke-linecap="round"></path><path d="M 142.417,207.000 C 136.400,211.016 136.707,211.207 131.417,216.000" stroke-width="3.156" stroke="black" fill="none" stroke-linecap="round"></path><path d="M 131.417,216.000 C 128.664,219.348 128.400,219.016 126.417,223.000" stroke-width="3.492" stroke="black" fill="none" stroke-linecap="round"></path><path d="M 126.417,223.000 C 124.616,225.883 124.664,225.848 123.417,229.000" stroke-width="3.809" stroke="black" fill="none" stroke-linecap="round"></path><path d="M 123.417,229.000 C 121.596,232.417 122.116,232.383 121.417,236.000" stroke-width="3.899" stroke="black" fill="none" stroke-linecap="round"></path><path d="M 121.417,236.000 C 120.228,243.372 121.096,242.417 122.417,249.000" stroke-width="4.014" stroke="black" fill="none" stroke-linecap="round"></path><path d="M 122.417,249.000 C 125.452,251.459 123.728,252.372 128.417,254.000" stroke-width="3.901" stroke="black" fill="none" stroke-linecap="round"></path><path d="M 128.417,254.000 C 131.971,258.192 132.452,257.459 136.417,261.000" stroke-width="3.582" stroke="black" fill="none" stroke-linecap="round"></path><path d="M 136.417,261.000 C 141.737,264.330 141.471,264.192 147.417,266.000" stroke-width="3.309" stroke="black" fill="none" stroke-linecap="round"></path><path d="M 147.417,266.000 C 150.496,266.487 150.237,266.830 153.417,266.000" stroke-width="3.820" stroke="black" fill="none" stroke-linecap="round"></path><path d="M 153.417,266.000 C 156.599,265.409 156.496,265.487 159.417,264.000" stroke-width="4.012" stroke="black" fill="none" stroke-linecap="round"></path><path d="M 159.417,264.000 C 166.627,260.321 166.599,260.409 173.417,256.000" stroke-width="3.080" stroke="black" fill="none" stroke-linecap="round"></path><path d="M 173.417,256.000 C 178.110,253.703 177.627,253.321 181.417,250.000" stroke-width="3.437" stroke="black" fill="none" stroke-linecap="round"></path><path d="M 181.417,250.000 C 190.150,239.160 190.610,239.703 198.417,228.000" stroke-width="3.190" stroke="black" fill="none" stroke-linecap="round"></path><path d="M 198.417,228.000 C 200.117,225.599 200.150,225.660 201.417,223.000" stroke-width="3.790" stroke="black" fill="none" stroke-linecap="round"></path><path d="M 201.417,223.000 C 202.215,220.403 202.617,220.599 203.417,218.000" stroke-width="4.115" stroke="black" fill="none" stroke-linecap="round"></path><path d="M 203.417,218.000 C 207.187,214.675 205.215,214.403 207.417,211.000" stroke-width="4.391" stroke="black" fill="none" stroke-linecap="round"></path><path d="M 207.417,211.000 C 206.805,205.881 207.687,206.675 204.417,202.000" stroke-width="4.354" stroke="black" fill="none" stroke-linecap="round"></path><path d="M 204.417,202.000 C 202.246,199.414 202.805,199.381 199.417,198.000" stroke-width="4.209" stroke="black" fill="none" stroke-linecap="round"></path><path d="M 199.417,198.000 C 194.109,194.911 194.246,195.414 188.417,194.000" stroke-width="3.487" stroke="black" fill="none" stroke-linecap="round"></path><path d="M 188.417,194.000 C 181.278,193.278 181.609,192.911 174.417,194.000" stroke-width="3.131" stroke="black" fill="none" stroke-linecap="round"></path><path d="M 174.417,194.000 C 171.819,194.799 171.778,194.278 169.417,196.000" stroke-width="3.851" stroke="black" fill="none" stroke-linecap="round"></path><path d="M 169.417,196.000 C 165.718,197.714 165.819,197.799 162.417,200.000" stroke-width="4.329" stroke="black" fill="none" stroke-linecap="round"></path><path d="M 162.417,200.000 C 158.113,201.890 159.218,202.214 156.417,205.000" stroke-width="4.691" stroke="black" fill="none" stroke-linecap="round"></path><path d="M 158.417,214.000 C 162.433,214.938 162.417,215.000 166.417,216.000" stroke-width="5.303" stroke="black" fill="none" stroke-linecap="round"></path><path d="M 166.417,216.000 C 169.841,217.404 169.933,216.938 173.417,218.000" stroke-width="4.268" stroke="black" fill="none" stroke-linecap="round"></path><path d="M 173.417,218.000 C 178.919,218.476 178.841,218.904 184.417,219.000" stroke-width="3.629" stroke="black" fill="none" stroke-linecap="round"></path><path d="M 184.417,219.000 C 189.404,220.000 189.419,219.476 194.417,220.000" stroke-width="3.505" stroke="black" fill="none" stroke-linecap="round"></path><path d="M 194.417,220.000 C 204.913,219.362 204.904,220.000 215.417,219.000" stroke-width="2.748" stroke="black" fill="none" stroke-linecap="round"></path><path d="M 215.417,219.000 C 219.528,219.686 219.413,218.862 223.417,219.000" stroke-width="3.422" stroke="black" fill="none" stroke-linecap="round"></path><path d="M 223.417,219.000 C 227.944,217.578 228.028,218.186 232.417,216.000" stroke-width="3.498" stroke="black" fill="none" stroke-linecap="round"></path><path d="M 232.417,216.000 C 236.889,215.283 236.444,214.578 240.417,213.000" stroke-width="3.614" stroke="black" fill="none" stroke-linecap="round"></path><path d="M 240.417,213.000 C 245.361,209.425 245.389,209.783 249.417,205.000" stroke-width="3.383" stroke="black" fill="none" stroke-linecap="round"></path><path d="M 249.417,205.000 C 256.066,197.114 256.361,197.425 262.417,189.000" stroke-width="2.747" stroke="black" fill="none" stroke-linecap="round"></path><path d="M 262.417,189.000 C 264.805,185.415 265.066,185.614 267.417,182.000" stroke-width="3.411" stroke="black" fill="none" stroke-linecap="round"></path><path d="M 267.417,182.000 C 271.824,177.283 271.305,176.915 275.417,172.000" stroke-width="3.205" stroke="black" fill="none" stroke-linecap="round"></path><path d="M 275.417,172.000 C 279.724,164.374 280.324,164.783 284.417,157.000" stroke-width="2.824" stroke="black" fill="none" stroke-linecap="round"></path><path d="M 284.417,157.000 C 286.969,153.536 286.724,153.374 289.417,150.000" stroke-width="3.360" stroke="black" fill="none" stroke-linecap="round"></path><path d="M 289.417,150.000 C 291.229,146.861 291.469,147.036 293.417,144.000" stroke-width="3.752" stroke="black" fill="none" stroke-linecap="round"></path><path d="M 293.417,144.000 C 298.499,138.877 297.729,138.361 302.417,133.000" stroke-width="3.175" stroke="black" fill="none" stroke-linecap="round"></path><path d="M 302.417,133.000 C 305.149,128.101 305.499,128.377 307.417,123.000" stroke-width="3.269" stroke="black" fill="none" stroke-linecap="round"></path><path d="M 307.417,123.000 C 309.248,119.089 309.149,119.101 310.417,115.000" stroke-width="3.538" stroke="black" fill="none" stroke-linecap="round"></path><path d="M 310.417,115.000 C 311.417,111.992 311.248,112.089 311.417,109.000" stroke-width="3.941" stroke="black" fill="none" stroke-linecap="round"></path><path d="M 311.417,109.000 C 311.979,105.562 311.417,106.492 310.417,104.000" stroke-width="4.836" stroke="black" fill="none" stroke-linecap="round"></path><path d="M 310.417,104.000 C 307.495,102.000 308.479,102.062 304.417,102.000" stroke-width="4.243" stroke="black" fill="none" stroke-linecap="round"></path><path d="M 304.417,102.000 C 298.180,102.271 298.495,102.000 292.417,104.000" stroke-width="3.519" stroke="black" fill="none" stroke-linecap="round"></path><path d="M 292.417,104.000 C 287.949,105.351 288.180,105.271 284.417,108.000" stroke-width="3.634" stroke="black" fill="none" stroke-linecap="round"></path><path d="M 284.417,108.000 C 280.184,111.789 279.949,111.351 276.417,116.000" stroke-width="3.390" stroke="black" fill="none" stroke-linecap="round"></path><path d="M 276.417,116.000 C 271.966,121.541 271.684,121.289 267.417,127.000" stroke-width="3.091" stroke="black" fill="none" stroke-linecap="round"></path><path d="M 267.417,127.000 C 264.214,130.342 264.466,130.541 261.417,134.000" stroke-width="3.460" stroke="black" fill="none" stroke-linecap="round"></path><path d="M 261.417,134.000 C 257.580,138.790 257.714,138.842 254.417,144.000" stroke-width="3.328" stroke="black" fill="none" stroke-linecap="round"></path><path d="M 254.417,144.000 C 248.867,152.758 249.080,152.790 244.417,162.000" stroke-width="2.668" stroke="black" fill="none" stroke-linecap="round"></path><path d="M 244.417,162.000 C 242.612,166.417 242.367,166.258 241.417,171.000" stroke-width="3.265" stroke="black" fill="none" stroke-linecap="round"></path><path d="M 241.417,171.000 C 239.777,177.973 239.612,177.917 238.417,185.000" stroke-width="3.114" stroke="black" fill="none" stroke-linecap="round"></path><path d="M 238.417,185.000 C 237.246,193.584 236.777,193.473 235.417,202.000" stroke-width="2.816" stroke="black" fill="none" stroke-linecap="round"></path><path d="M 235.417,202.000 C 234.247,204.955 234.746,205.084 233.417,208.000" stroke-width="3.569" stroke="black" fill="none" stroke-linecap="round"></path><path d="M 233.417,208.000 C 233.164,210.571 232.747,210.455 232.417,213.000" stroke-width="4.030" stroke="black" fill="none" stroke-linecap="round"></path><path d="M 232.417,213.000 C 230.669,216.929 231.164,217.071 229.417,221.000" stroke-width="3.825" stroke="black" fill="none" stroke-linecap="round"></path><path d="M 229.417,221.000 C 229.146,223.568 228.669,223.429 228.417,226.000" stroke-width="4.123" stroke="black" fill="none" stroke-linecap="round"></path><path d="M 228.417,226.000 C 227.267,228.449 227.646,228.568 226.417,231.000" stroke-width="4.183" stroke="black" fill="none" stroke-linecap="round"></path><path d="M 226.417,231.000 C 225.487,234.522 225.267,234.449 224.417,238.000" stroke-width="4.667" stroke="black" fill="none" stroke-linecap="round"></path><path d="M 224.417,238.000 C 223.346,240.978 223.487,241.022 222.417,244.000" stroke-width="4.203" stroke="black" fill="none" stroke-linecap="round"></path><path d="M 222.417,244.000 C 219.584,248.224 221.346,247.478 220.417,251.000" stroke-width="4.495" stroke="black" fill="none" stroke-linecap="round"></path><path d="M 220.417,251.000 C 222.917,254.000 221.084,253.224 225.417,254.000" stroke-width="5.101" stroke="black" fill="none" stroke-linecap="round"></path><path d="M 225.417,254.000 C 228.383,253.034 227.917,254.000 230.417,251.000" stroke-width="4.374" stroke="black" fill="none" stroke-linecap="round"></path><path d="M 230.417,251.000 C 234.362,245.955 234.883,246.534 238.417,241.000" stroke-width="3.487" stroke="black" fill="none" stroke-linecap="round"></path><path d="M 238.417,241.000 C 243.072,234.660 243.362,234.955 248.417,229.000" stroke-width="3.079" stroke="black" fill="none" stroke-linecap="round"></path><path d="M 248.417,229.000 C 251.960,226.050 251.572,225.660 255.417,223.000" stroke-width="3.406" stroke="black" fill="none" stroke-linecap="round"></path><path d="M 255.417,223.000 C 260.511,218.599 260.460,218.550 265.417,214.000" stroke-width="3.215" stroke="black" fill="none" stroke-linecap="round"></path><path d="M 265.417,214.000 C 268.714,211.244 268.511,211.099 271.417,208.000" stroke-width="3.573" stroke="black" fill="none" stroke-linecap="round"></path><path d="M 271.417,208.000 C 273.563,201.382 273.714,205.244 275.417,202.000" stroke-width="3.781" stroke="black" fill="none" stroke-linecap="round"></path><path d="M 275.417,202.000 C 279.663,206.227 278.063,202.882 280.417,211.000" stroke-width="4.558" stroke="black" fill="none" stroke-linecap="round"></path><path d="M 280.417,211.000 C 279.417,216.000 281.163,215.727 278.417,221.000" stroke-width="3.709" stroke="black" fill="none" stroke-linecap="round"></path><path d="M 278.417,221.000 C 277.417,226.000 277.417,226.000 276.417,231.000" stroke-width="3.572" stroke="black" fill="none" stroke-linecap="round"></path><path d="M 276.417,231.000 C 274.417,234.500 275.917,233.500 275.417,236.000" stroke-width="4.392" stroke="black" fill="none" stroke-linecap="round"></path><path d="M 275.417,236.000 C 278.034,237.627 276.417,237.500 280.417,237.000" stroke-width="4.874" stroke="black" fill="none" stroke-linecap="round"></path><path d="M 280.417,237.000 C 287.417,234.000 287.534,235.127 294.417,231.000" stroke-width="3.284" stroke="black" fill="none" stroke-linecap="round"></path><path d="M 294.417,231.000 C 298.018,229.699 297.917,229.500 301.417,228.000" stroke-width="3.636" stroke="black" fill="none" stroke-linecap="round"></path><path d="M 301.417,228.000 C 303.958,226.565 304.018,226.699 306.417,225.000" stroke-width="3.964" stroke="black" fill="none" stroke-linecap="round"></path><path d="M 306.417,225.000 C 309.348,222.889 309.458,223.065 312.417,221.000" stroke-width="3.903" stroke="black" fill="none" stroke-linecap="round"></path><path d="M 312.417,221.000 C 315.775,218.699 315.848,218.889 319.417,217.000" stroke-width="4.332" stroke="black" fill="none" stroke-linecap="round"></path><path d="M 319.417,217.000 C 323.367,214.270 323.275,215.199 327.417,214.000" stroke-width="4.463" stroke="black" fill="none" stroke-linecap="round"></path><path d="M 327.417,214.000 C 332.246,213.612 330.867,213.770 334.417,216.000" stroke-width="4.564" stroke="black" fill="none" stroke-linecap="round"></path><path d="M 334.417,216.000 C 336.647,220.381 337.246,219.112 337.417,225.000" stroke-width="3.852" stroke="black" fill="none" stroke-linecap="round"></path><path d="M 337.417,225.000 C 337.417,229.500 338.147,229.381 337.417,234.000" stroke-width="3.728" stroke="black" fill="none" stroke-linecap="round"></path><path d="M 337.417,234.000 C 335.970,239.264 337.417,237.500 337.417,241.000" stroke-width="3.904" stroke="black" fill="none" stroke-linecap="round"></path><path d="M 337.417,241.000 C 340.322,241.257 338.470,242.264 342.417,240.000" stroke-width="4.796" stroke="black" fill="none" stroke-linecap="round"></path><path d="M 342.417,240.000 C 344.917,237.500 345.322,238.257 347.417,235.000" stroke-width="4.132" stroke="black" fill="none" stroke-linecap="round"></path><path d="M 347.417,235.000 C 349.417,230.600 349.417,233.000 351.417,231.000" stroke-width="4.565" stroke="black" fill="none" stroke-linecap="round"></path><path d="M 351.417,231.000 C 355.125,233.562 354.417,231.600 357.417,237.000" stroke-width="4.940" stroke="black" fill="none" stroke-linecap="round"></path><path d="M 357.417,237.000 C 358.586,239.955 359.125,239.562 359.417,243.000" stroke-width="4.208" stroke="black" fill="none" stroke-linecap="round"></path><path d="M 359.417,243.000 C 358.669,247.650 360.086,245.455 360.417,248.000" stroke-width="4.652" stroke="black" fill="none" stroke-linecap="round"></path><path d="M 360.417,248.000 C 365.735,247.761 363.669,248.650 369.417,245.000" stroke-width="5.169" stroke="black" fill="none" stroke-linecap="round"></path><path d="M 369.417,245.000 C 375.434,239.406 375.735,240.261 380.417,233.000" stroke-width="3.315" stroke="black" fill="none" stroke-linecap="round"></path><path d="M 380.417,233.000 C 385.417,225.500 385.934,225.906 390.417,218.000" stroke-width="2.883" stroke="black" fill="none" stroke-linecap="round"></path><path d="M 390.417,218.000 C 396.290,208.912 396.417,209.000 402.417,200.000" stroke-width="2.520" stroke="black" fill="none" stroke-linecap="round"></path><path d="M 402.417,200.000 C 407.715,193.200 407.290,192.912 412.417,186.000" stroke-width="2.650" stroke="black" fill="none" stroke-linecap="round"></path><path d="M 412.417,186.000 C 424.511,169.042 423.715,168.700 434.417,151.000" stroke-width="1.851" stroke="black" fill="none" stroke-linecap="round"></path><path d="M 434.417,151.000 C 437.471,143.020 438.511,143.542 440.417,135.000" stroke-width="2.429" stroke="black" fill="none" stroke-linecap="round"></path><path d="M 440.417,135.000 C 446.868,118.648 446.471,118.520 452.417,102.000" stroke-width="1.919" stroke="black" fill="none" stroke-linecap="round"></path><path d="M 452.417,102.000 C 456.315,90.098 456.368,90.148 459.417,78.000" stroke-width="2.104" stroke="black" fill="none" stroke-linecap="round"></path><path d="M 459.417,78.000 C 460.986,70.513 461.315,70.598 462.417,63.000" stroke-width="2.639" stroke="black" fill="none" stroke-linecap="round"></path><path d="M 462.417,63.000 C 464.770,56.398 462.986,60.013 463.417,57.000" stroke-width="3.830" stroke="black" fill="none" stroke-linecap="round"></path><path d="M 463.417,57.000 C 457.916,61.601 460.270,58.398 453.417,67.000" stroke-width="4.845" stroke="black" fill="none" stroke-linecap="round"></path><path d="M 453.417,67.000 C 451.152,71.170 450.416,70.601 448.417,75.000" stroke-width="3.850" stroke="black" fill="none" stroke-linecap="round"></path><path d="M 448.417,75.000 C 445.829,77.930 446.152,78.170 443.417,81.000" stroke-width="3.853" stroke="black" fill="none" stroke-linecap="round"></path><path d="M 443.417,81.000 C 440.561,85.115 440.329,84.930 437.417,89.000" stroke-width="4.146" stroke="black" fill="none" stroke-linecap="round"></path><path d="M 437.417,89.000 C 431.246,95.058 432.061,95.615 426.417,102.000" stroke-width="3.111" stroke="black" fill="none" stroke-linecap="round"></path><path d="M 426.417,102.000 C 423.796,106.944 423.246,106.558 421.417,112.000" stroke-width="3.303" stroke="black" fill="none" stroke-linecap="round"></path><path d="M 421.417,112.000 C 419.617,115.399 419.796,115.444 418.417,119.000" stroke-width="3.643" stroke="black" fill="none" stroke-linecap="round"></path><path d="M 418.417,119.000 C 417.795,123.140 417.117,122.899 416.417,127.000" stroke-width="3.691" stroke="black" fill="none" stroke-linecap="round"></path><path d="M 416.417,127.000 C 414.822,129.956 415.295,130.140 413.417,133.000" stroke-width="3.924" stroke="black" fill="none" stroke-linecap="round"></path><path d="M 413.417,133.000 C 411.772,136.443 411.822,136.456 410.417,140.000" stroke-width="3.896" stroke="black" fill="none" stroke-linecap="round"></path><path d="M 410.417,140.000 C 408.173,147.109 407.772,146.943 405.417,154.000" stroke-width="3.223" stroke="black" fill="none" stroke-linecap="round"></path><path d="M 405.417,154.000 C 403.760,156.930 404.173,157.109 402.417,160.000" stroke-width="3.751" stroke="black" fill="none" stroke-linecap="round"></path><path d="M 402.417,160.000 C 400.573,165.070 400.260,164.930 398.417,170.000" stroke-width="4.060" stroke="black" fill="none" stroke-linecap="round"></path><path d="M 398.417,170.000 C 396.470,172.841 397.073,173.070 395.417,176.000" stroke-width="4.086" stroke="black" fill="none" stroke-linecap="round"></path><path d="M 395.417,176.000 C 394.396,180.495 393.970,180.341 393.417,185.000" stroke-width="3.710" stroke="black" fill="none" stroke-linecap="round"></path><path d="M 393.417,185.000 C 391.233,191.928 391.896,191.995 390.417,199.000" stroke-width="3.158" stroke="black" fill="none" stroke-linecap="round"></path><path d="M 390.417,199.000 C 391.127,205.081 389.733,204.928 390.417,211.000" stroke-width="3.815" stroke="black" fill="none" stroke-linecap="round"></path><path d="M 390.417,211.000 C 388.895,217.495 389.627,217.581 387.417,224.000" stroke-width="3.259" stroke="black" fill="none" stroke-linecap="round"></path><path d="M 387.417,224.000 C 386.320,228.481 386.395,228.495 385.417,233.000" stroke-width="3.521" stroke="black" fill="none" stroke-linecap="round"></path><path d="M 385.417,233.000 C 385.152,236.058 384.820,235.981 384.417,239.000" stroke-width="3.934" stroke="black" fill="none" stroke-linecap="round"></path><path d="M 384.417,239.000 C 383.480,242.022 383.652,242.058 382.417,245.000" stroke-width="4.049" stroke="black" fill="none" stroke-linecap="round"></path><path d="M 382.417,245.000 C 380.241,248.878 380.980,249.022 379.417,253.000" stroke-width="4.333" stroke="black" fill="none" stroke-linecap="round"></path><path d="M 379.417,253.000 C 379.706,256.529 378.741,256.378 379.417,260.000" stroke-width="4.544" stroke="black" fill="none" stroke-linecap="round"></path><path d="M 379.417,260.000 C 377.462,265.818 379.206,262.529 378.417,265.000" stroke-width="4.928" stroke="black" fill="none" stroke-linecap="round"></path><path d="M 378.417,265.000 C 382.517,259.571 380.962,262.818 386.417,254.000" stroke-width="5.163" stroke="black" fill="none" stroke-linecap="round"></path><path d="M 386.417,254.000 C 393.033,244.576 393.017,244.571 399.417,235.000" stroke-width="2.765" stroke="black" fill="none" stroke-linecap="round"></path><path d="M 399.417,235.000 C 401.866,230.967 402.033,231.076 404.417,227.000" stroke-width="3.265" stroke="black" fill="none" stroke-linecap="round"></path><path d="M 404.417,227.000 C 406.417,224.000 406.366,223.967 408.417,221.000" stroke-width="3.716" stroke="black" fill="none" stroke-linecap="round"></path><path d="M 408.417,221.000 C 412.283,214.905 412.417,215.000 416.417,209.000" stroke-width="3.218" stroke="black" fill="none" stroke-linecap="round"></path><path d="M 416.417,209.000 C 419.150,204.769 419.283,204.905 422.417,201.000" stroke-width="3.438" stroke="black" fill="none" stroke-linecap="round"></path><path d="M 422.417,201.000 C 425.514,196.984 425.650,197.269 429.417,194.000" stroke-width="3.464" stroke="black" fill="none" stroke-linecap="round"></path><path d="M 429.417,194.000 C 434.230,190.593 434.014,190.484 439.417,188.000" stroke-width="3.374" stroke="black" fill="none" stroke-linecap="round"></path><path d="M 439.417,188.000 C 442.348,186.236 442.230,186.593 445.417,186.000" stroke-width="3.851" stroke="black" fill="none" stroke-linecap="round"></path><path d="M 445.417,186.000 C 450.321,184.605 448.848,185.736 452.417,187.000" stroke-width="4.367" stroke="black" fill="none" stroke-linecap="round"></path><path d="M 452.417,187.000 C 456.957,194.269 457.321,192.605 459.417,202.000" stroke-width="3.941" stroke="black" fill="none" stroke-linecap="round"></path><path d="M 459.417,202.000 C 459.417,205.500 460.457,205.269 459.417,209.000" stroke-width="3.921" stroke="black" fill="none" stroke-linecap="round"></path><path d="M 459.417,209.000 C 459.642,216.007 459.417,216.000 459.417,223.000" stroke-width="3.228" stroke="black" fill="none" stroke-linecap="round"></path><path d="M 459.417,223.000 C 459.427,231.578 459.142,231.507 458.417,240.000" stroke-width="2.858" stroke="black" fill="none" stroke-linecap="round"></path><path d="M 458.417,240.000 C 457.153,243.948 457.927,244.078 456.417,248.000" stroke-width="3.451" stroke="black" fill="none" stroke-linecap="round"></path><path d="M 456.417,248.000 C 456.629,255.364 455.153,254.948 454.417,262.000" stroke-width="3.112" stroke="black" fill="none" stroke-linecap="round"></path><path d="M 454.417,262.000 C 450.578,271.892 451.129,271.864 445.417,281.000" stroke-width="2.602" stroke="black" fill="none" stroke-linecap="round"></path><path d="M 445.417,281.000 C 441.562,286.611 442.078,286.892 437.417,292.000" stroke-width="2.947" stroke="black" fill="none" stroke-linecap="round"></path><path d="M 437.417,292.000 C 432.516,300.648 431.562,299.611 425.417,307.000" stroke-width="2.726" stroke="black" fill="none" stroke-linecap="round"></path><path d="M 425.417,307.000 C 413.304,318.395 413.516,317.648 399.417,326.000" stroke-width="2.062" stroke="black" fill="none" stroke-linecap="round"></path><path d="M 399.417,326.000 C 391.478,328.290 392.304,329.895 383.417,330.000" stroke-width="2.560" stroke="black" fill="none" stroke-linecap="round"></path><path d="M 383.417,330.000 C 374.976,331.956 374.978,331.790 366.417,333.000" stroke-width="2.717" stroke="black" fill="none" stroke-linecap="round"></path><path d="M 366.417,333.000 C 354.434,334.414 354.476,334.456 342.417,335.000" stroke-width="2.432" stroke="black" fill="none" stroke-linecap="round"></path><path d="M 342.417,335.000 C 333.914,334.819 333.934,335.414 325.417,335.000" stroke-width="2.632" stroke="black" fill="none" stroke-linecap="round"></path><path d="M 325.417,335.000 C 310.421,335.769 310.414,335.319 295.417,336.000" stroke-width="2.119" stroke="black" fill="none" stroke-linecap="round"></path><path d="M 295.417,336.000 C 277.885,336.635 277.921,336.269 260.417,336.000" stroke-width="1.969" stroke="black" fill="none" stroke-linecap="round"></path><path d="M 260.417,336.000 C 250.291,335.795 250.385,335.635 240.417,334.000" stroke-width="2.309" stroke="black" fill="none" stroke-linecap="round"></path><path d="M 240.417,334.000 C 216.501,331.548 217.291,329.795 194.417,324.000" stroke-width="1.612" stroke="black" fill="none" stroke-linecap="round"></path><path d="M 194.417,324.000 C 177.474,316.225 177.001,318.048 161.417,307.000" stroke-width="1.806" stroke="black" fill="none" stroke-linecap="round"></path><path d="M 161.417,307.000 C 153.362,303.162 153.974,302.725 147.417,297.000" stroke-width="2.356" stroke="black" fill="none" stroke-linecap="round"></path><path d="M 147.417,297.000 C 124.761,274.920 125.862,274.662 106.417,250.000" stroke-width="1.357" stroke="black" fill="none" stroke-linecap="round"></path><path d="M 106.417,250.000 C 98.424,238.190 98.261,238.920 94.417,225.000" stroke-width="1.861" stroke="black" fill="none" stroke-linecap="round"></path><path d="M 94.417,225.000 C 88.306,198.024 86.424,198.690 82.417,171.000" stroke-width="1.397" stroke="black" fill="none" stroke-linecap="round"></path><path d="M 82.417,171.000 C 79.008,159.094 79.806,159.024 77.417,147.000" stroke-width="1.887" stroke="black" fill="none" stroke-linecap="round"></path><path d="M 77.417,147.000 C 76.279,139.826 76.508,140.094 77.417,133.000" stroke-width="2.591" stroke="black" fill="none" stroke-linecap="round"></path><path d="M 77.417,133.000 C 78.913,124.591 78.779,124.826 82.417,117.000" stroke-width="2.755" stroke="black" fill="none" stroke-linecap="round"></path><path d="M 82.417,117.000 C 92.930,91.274 93.913,92.091 107.417,68.000" stroke-width="1.512" stroke="black" fill="none" stroke-linecap="round"></path><path d="M 107.417,68.000 C 123.893,42.074 123.430,42.274 143.417,19.000" stroke-width="1.302" stroke="black" fill="none" stroke-linecap="round"></path><path d="M 143.417,19.000 C 150.334,3.218 151.393,9.574 162.417,3.000" stroke-width="1.825" stroke="black" fill="none" stroke-linecap="round"></path><path d="M 162.417,3.000 C 265.937,3.998 261.334,1.218 365.417,15.000" stroke-width="1.500" stroke="black" fill="none" stroke-linecap="round"></path><path d="M 365.417,15.000 C 372.290,21.153 374.437,15.998 379.417,27.000" stroke-width="2.177" stroke="black" fill="none" stroke-linecap="round"></path><path d="M 379.417,27.000 C 392.272,36.590 391.790,37.153 404.417,47.000" stroke-width="2.014" stroke="black" fill="none" stroke-linecap="round"></path><path d="M 404.417,47.000 C 415.410,53.561 413.272,54.590 421.417,63.000" stroke-width="2.251" stroke="black" fill="none" stroke-linecap="round"></path><path d="M 421.417,63.000 C 425.197,71.415 425.910,70.061 425.417,80.000" stroke-width="2.593" stroke="black" fill="none" stroke-linecap="round"></path><path d="M 425.417,80.000 C 426.395,91.938 425.697,90.915 422.417,102.000" stroke-width="2.422" stroke="black" fill="none" stroke-linecap="round"></path><path d="M 422.417,102.000 C 416.839,113.812 417.895,113.438 408.417,123.000" stroke-width="2.249" stroke="black" fill="none" stroke-linecap="round"></path><path d="M 408.417,123.000 C 399.808,131.872 400.339,131.812 389.417,138.000" stroke-width="2.299" stroke="black" fill="none" stroke-linecap="round"></path><path d="M 389.417,138.000 C 361.087,156.505 360.808,154.872 330.417,169.000" stroke-width="1.293" stroke="black" fill="none" stroke-linecap="round"></path><path d="M 330.417,169.000 C 306.148,177.272 307.087,178.505 281.417,182.000" stroke-width="1.374" stroke="black" fill="none" stroke-linecap="round"></path><path d="M 281.417,182.000 C 271.721,183.551 272.148,183.772 262.417,182.000" stroke-width="2.076" stroke="black" fill="none" stroke-linecap="round"></path><path d="M 262.417,182.000 C 244.379,178.654 244.721,179.051 227.417,173.000" stroke-width="1.874" stroke="black" fill="none" stroke-linecap="round"></path><path d="M 227.417,173.000 C 223.824,170.621 223.379,171.654 220.417,168.000" stroke-width="2.878" stroke="black" fill="none" stroke-linecap="round"></path><path d="M 220.417,168.000 C 216.518,166.153 217.324,165.621 214.417,163.000" stroke-width="3.455" stroke="black" fill="none" stroke-linecap="round"></path><path d="M 214.417,163.000 C 210.640,158.137 211.518,158.653 210.417,153.000" stroke-width="3.447" stroke="black" fill="none" stroke-linecap="round"></path><path d="M 210.417,153.000 C 210.756,145.914 210.140,146.637 213.417,140.000" stroke-width="3.235" stroke="black" fill="none" stroke-linecap="round"></path></svg>