<svg xmlns="http://www.w3.org/2000/svg" xmlns:xlink="http://www.w3.org/1999/xlink" viewBox="0 0 664 416" width="664" height="416"><path d="M 118.417,250.000 C 115.900,249.573 115.917,249.500 113.417,249.000" stroke-width="5.480" stroke="black" fill="none" stroke-linecap="round"></path><path d="M 113.417,249.000 C 109.151,248.600 109.400,248.073 105.417,247.000" stroke-width="4.234" stroke="black" fill="none" stroke-linecap="round"></path><path d="M 105.417,247.000 C 102.578,244.702 102.151,245.600 99.417,243.000" stroke-width="3.978" stroke="black" fill="none" stroke-linecap="round"></path><path d="M 99.417,243.000 C 95.815,241.699 96.078,241.202 92.417,240.000" stroke-width="4.391" stroke="black" fill="none" stroke-linecap="round"></path><path d="M 92.417,240.000 C 90.016,238.300 89.815,238.699 87.417,237.000" stroke-width="4.656" stroke="black" fill="none" stroke-linecap="round"></path><path d="M 87.417,237.000 C 82.897,236.680 85.016,235.800 82.417,235.000" stroke-width="5.113" stroke="black" fill="none" stroke-linecap="round"></path><path d="M 82.417,235.000 C 83.145,231.666 81.897,233.180 85.417,230.000" stroke-width="5.351" stroke="black" fill="none" stroke-linecap="round"></path><path d="M 85.417,230.000 C 91.230,226.560 90.645,226.166 97.417,224.000" stroke-width="3.511" stroke="black" fill="none" stroke-linecap="round"></path><path d="M 97.417,224.000 C 105.922,221.014 105.730,220.560 114.417,218.000" stroke-width="2.856" stroke="black" fill="none" stroke-linecap="round"></path><path d="M 114.417,218.000 C 121.619,215.974 121.422,215.514 128.417,213.000" stroke-width="2.898" stroke="black" fill="none" stroke-linecap="round"></path><path d="M 128.417,213.000 C 138.287,209.777 137.619,208.974 146.417,204.000" stroke-width="2.665" stroke="black" fill="none" stroke-linecap="round"></path><path d="M 146.417,204.000 C 156.225,194.776 157.287,196.277 166.417,186.000" stroke-width="2.241" stroke="black" fill="none" stroke-linecap="round"></path><path d="M 166.417,186.000 C 174.520,179.623 174.225,179.276 182.417,173.000" stroke-width="2.388" stroke="black" fill="none" stroke-linecap="round"></path><path d="M 182.417,173.000 C 190.914,167.399 190.020,166.623 197.417,160.000" stroke-width="2.529" stroke="black" fill="none" stroke-linecap="round"></path><path d="M 197.417,160.000 C 202.969,148.447 205.414,150.899 211.417,140.000" stroke-width="2.371" stroke="black" fill="none" stroke-linecap="round"></path><path d="M 211.417,140.000 C 218.863,135.407 217.469,133.947 226.417,131.000" stroke-width="2.525" stroke="black" fill="none" stroke-linecap="round"></path><path d="M 226.417,131.000 C 230.868,128.408 230.863,128.407 235.417,126.000" stroke-width="3.180" stroke="black" fill="none" stroke-linecap="round"></path><path d="M 235.417,126.000 C 239.482,124.119 239.368,123.908 243.417,122.000" stroke-width="3.468" stroke="black" fill="none" stroke-linecap="round"></path><path d="M 243.417,122.000 C 249.050,117.608 245.982,120.619 248.417,119.000" stroke-width="4.293" stroke="black" fill="none" stroke-linecap="round"></path><path d="M 248.417,119.000 C 243.829,126.325 246.550,123.108 238.417,133.000" stroke-width="4.835" stroke="black" fill="none" stroke-linecap="round"></path><path d="M 238.417,133.000 C 228.091,144.233 228.829,144.825 218.417,156.000" stroke-width="2.361" stroke="black" fill="none" stroke-linecap="round"></path><path d="M 218.417,156.000 C 209.996,167.062 209.591,166.733 201.417,178.000" stroke-width="2.198" stroke="black" fill="none" stroke-linecap="round"></path><path d="M 201.417,178.000 C 190.386,192.918 189.996,192.562 178.417,207.000" stroke-width="1.822" stroke="black" fill="none" stroke-linecap="round"></path><path d="M 178.417,207.000 C 172.178,211.878 173.386,212.918 167.417,218.000" stroke-width="2.438" stroke="black" fill="none" stroke-linecap="round"></path><path d="M 167.417,218.000 C 156.583,236.062 154.678,234.378 143.417,252.000" stroke-width="1.751" stroke="black" fill="none" stroke-linecap="round"></path><path d="M 143.417,252.000 C 136.056,257.627 137.583,259.062 129.417,264.000" stroke-width="2.277" stroke="black" fill="none" stroke-linecap="round"></path><path d="M 129.417,264.000 C 124.072,270.149 123.556,269.627 118.417,276.000" stroke-width="2.712" stroke="black" fill="none" stroke-linecap="round"></path><path d="M 118.417,276.000 C 109.879,285.551 109.572,285.149 100.417,294.000" stroke-width="2.309" stroke="black" fill="none" stroke-linecap="round"></path><path d="M 100.417,294.000 C 95.336,297.392 95.879,298.051 90.417,301.000" stroke-width="2.909" stroke="black" fill="none" stroke-linecap="round"></path><path d="M 90.417,301.000 C 88.133,303.370 87.836,302.892 85.417,305.000" stroke-width="3.644" stroke="black" fill="none" stroke-linecap="round"></path><path d="M 85.417,305.000 C 82.768,305.717 83.133,306.370 80.417,307.000" stroke-width="4.062" stroke="black" fill="none" stroke-linecap="round"></path><path d="M 80.417,307.000 C 77.525,309.187 77.268,308.717 74.417,311.000" stroke-width="4.435" stroke="black" fill="none" stroke-linecap="round"></path><path d="M 74.417,311.000 C 66.942,313.705 71.525,312.687 68.417,314.000" stroke-width="4.600" stroke="black" fill="none" stroke-linecap="round"></path><path d="M 68.417,314.000 C 76.509,314.186 71.942,314.705 84.417,313.000" stroke-width="5.138" stroke="black" fill="none" stroke-linecap="round"></path><path d="M 84.417,313.000 C 96.304,309.787 96.509,311.186 108.417,308.000" stroke-width="2.760" stroke="black" fill="none" stroke-linecap="round"></path><path d="M 108.417,308.000 C 126.985,306.513 126.804,305.287 145.417,304.000" stroke-width="1.978" stroke="black" fill="none" stroke-linecap="round"></path><path d="M 145.417,304.000 C 171.048,300.645 170.985,300.513 196.417,296.000" stroke-width="1.529" stroke="black" fill="none" stroke-linecap="round"></path><path d="M 196.417,296.000 C 206.461,293.667 206.548,294.145 216.417,291.000" stroke-width="2.079" stroke="black" fill="none" stroke-linecap="round"></path><path d="M 216.417,291.000 C 234.745,286.973 234.461,286.167 252.417,281.000" stroke-width="1.844" stroke="black" fill="none" stroke-linecap="round"></path><path d="M 252.417,281.000 C 269.804,273.693 270.245,274.973 287.417,267.000" stroke-width="1.723" stroke="black" fill="none" stroke-linecap="round"></path><path d="M 287.417,267.000 C 294.868,264.343 294.804,264.193 302.417,262.000" stroke-width="2.372" stroke="black" fill="none" stroke-linecap="round"></path><path d="M 302.417,262.000 C 309.494,260.245 309.368,259.843 316.417,258.000" stroke-width="2.746" stroke="black" fill="none" stroke-linecap="round"></path><path d="M 316.417,258.000 C 327.943,254.071 327.994,254.245 339.417,250.000" stroke-width="2.427" stroke="black" fill="none" stroke-linecap="round"></path><path d="M 339.417,250.000 C 343.417,248.500 343.443,248.571 347.417,247.000" stroke-width="3.180" stroke="black" fill="none" stroke-linecap="round"></path><path d="M 347.417,247.000 C 351.366,245.350 351.417,245.500 355.417,244.000" stroke-width="3.555" stroke="black" fill="none" stroke-linecap="round"></path><path d="M 355.417,244.000 C 361.932,242.048 361.866,241.850 368.417,240.000" stroke-width="3.242" stroke="black" fill="none" stroke-linecap="round"></path><path d="M 368.417,240.000 C 371.417,239.000 371.432,239.048 374.417,238.000" stroke-width="3.798" stroke="black" fill="none" stroke-linecap="round"></path><path d="M 374.417,238.000 C 377.338,236.513 377.417,237.000 380.417,236.000" stroke-width="4.400" stroke="black" fill="none" stroke-linecap="round"></path><path d="M 380.417,236.000 C 383.627,236.761 383.338,235.513 386.417,236.000" stroke-width="5.032" stroke="black" fill="none" stroke-linecap="round"></path><path d="M 386.417,236.000 C 388.917,234.500 389.127,235.261 391.417,233.000" stroke-width="4.853" stroke="black" fill="none" stroke-linecap="round"></path><path d="M 391.417,233.000 C 393.787,231.246 393.917,231.500 396.417,230.000" stroke-width="4.368" stroke="black" fill="none" stroke-linecap="round"></path><path d="M 396.417,230.000 C 403.297,226.670 403.287,226.746 410.417,224.000" stroke-width="3.209" stroke="black" fill="none" stroke-linecap="round"></path><path d="M 410.417,224.000 C 415.467,222.650 415.297,222.170 420.417,221.000" stroke-width="3.343" stroke="black" fill="none" stroke-linecap="round"></path><path d="M 420.417,221.000 C 424.289,219.065 424.467,219.650 428.417,218.000" stroke-width="3.563" stroke="black" fill="none" stroke-linecap="round"></path><path d="M 428.417,218.000 C 439.905,215.442 439.789,215.065 451.417,213.000" stroke-width="2.625" stroke="black" fill="none" stroke-linecap="round"></path><path d="M 451.417,213.000 C 456.459,212.180 456.405,211.942 461.417,211.000" stroke-width="3.144" stroke="black" fill="none" stroke-linecap="round"></path><path d="M 461.417,211.000 C 466.833,209.117 466.959,209.680 472.417,208.000" stroke-width="3.241" stroke="black" fill="none" stroke-linecap="round"></path><path d="M 472.417,208.000 C 484.381,205.719 484.333,205.617 496.417,204.000" stroke-width="2.462" stroke="black" fill="none" stroke-linecap="round"></path><path d="M 496.417,204.000 C 501.909,203.324 501.881,203.219 507.417,203.000" stroke-width="3.010" stroke="black" fill="none" stroke-linecap="round"></path><circle r="1.5" cx="513.4166870117188" cy="203" fill="black"></circle><path d="M 573.417,207.000 C 579.889,209.096 579.917,209.000 586.417,211.000" stroke-width="5.215" stroke="black" fill="none" stroke-linecap="round"></path><path d="M 586.417,211.000 C 592.043,212.131 591.889,212.596 597.417,214.000" stroke-width="3.695" stroke="black" fill="none" stroke-linecap="round"></path><path d="M 597.417,214.000 C 603.480,216.362 603.543,216.131 609.417,219.000" stroke-width="3.260" stroke="black" fill="none" stroke-linecap="round"></path><path d="M 609.417,219.000 C 612.338,220.681 612.480,220.362 615.417,222.000" stroke-width="3.722" stroke="black" fill="none" stroke-linecap="round"></path><path d="M 615.417,222.000 C 622.179,221.906 619.338,223.681 623.417,225.000" stroke-width="3.737" stroke="black" fill="none" stroke-linecap="round"></path><path d="M 623.417,225.000 C 623.467,231.435 625.179,229.406 621.417,237.000" stroke-width="4.555" stroke="black" fill="none" stroke-linecap="round"></path><path d="M 621.417,237.000 C 619.037,240.593 619.967,240.935 616.417,244.000" stroke-width="3.821" stroke="black" fill="none" stroke-linecap="round"></path><path d="M 616.417,244.000 C 614.442,247.882 614.037,247.093 611.417,250.000" stroke-width="3.844" stroke="black" fill="none" stroke-linecap="round"></path><path d="M 611.417,250.000 C 606.818,252.203 609.442,251.382 606.417,251.000" stroke-width="4.718" stroke="black" fill="none" stroke-linecap="round"></path><path d="M 606.417,251.000 C 608.029,247.545 605.818,249.203 609.417,244.000" stroke-width="4.044" stroke="black" fill="none" stroke-linecap="round"></path><path d="M 609.417,244.000 C 612.497,236.029 612.529,236.045 615.417,228.000" stroke-width="3.089" stroke="black" fill="none" stroke-linecap="round"></path><path d="M 615.417,228.000 C 615.591,224.490 616.497,225.029 617.417,222.000" stroke-width="3.693" stroke="black" fill="none" stroke-linecap="round"></path><circle r="1.5" cx="640.4166870117188" cy="220" fill="black"></circle><circle r="1.5" cx="640.4166870117188" cy="220" fill="black"></circle></svg>