<svg xmlns="http://www.w3.org/2000/svg" xmlns:xlink="http://www.w3.org/1999/xlink" viewBox="0 0 252 251" width="252" height="251"><path d="M 94.000,130.500 C 90.563,129.048 90.500,129.500 87.000,128.500" stroke-width="4.732" stroke="black" fill="none" stroke-linecap="round"></path><path d="M 87.000,128.500 C 83.969,128.849 84.063,128.048 81.000,128.500" stroke-width="4.751" stroke="black" fill="none" stroke-linecap="round"></path><path d="M 81.000,128.500 C 75.467,127.651 75.469,127.849 70.000,126.500" stroke-width="4.654" stroke="black" fill="none" stroke-linecap="round"></path><path d="M 70.000,126.500 C 65.559,126.279 65.967,125.651 62.000,124.500" stroke-width="4.564" stroke="black" fill="none" stroke-linecap="round"></path><path d="M 62.000,124.500 C 57.620,122.591 59.559,123.279 58.000,120.500" stroke-width="5.115" stroke="black" fill="none" stroke-linecap="round"></path><path d="M 58.000,120.500 C 60.752,116.748 58.620,117.091 64.000,113.500" stroke-width="4.590" stroke="black" fill="none" stroke-linecap="round"></path><path d="M 64.000,113.500 C 67.247,111.253 66.752,110.748 70.000,108.500" stroke-width="4.049" stroke="black" fill="none" stroke-linecap="round"></path><path d="M 70.000,108.500 C 73.140,104.119 73.747,104.753 77.000,100.500" stroke-width="3.556" stroke="black" fill="none" stroke-linecap="round"></path><path d="M 77.000,100.500 C 81.526,97.032 81.140,96.619 86.000,93.500" stroke-width="3.361" stroke="black" fill="none" stroke-linecap="round"></path><path d="M 86.000,93.500 C 90.850,89.295 91.026,89.532 96.000,85.500" stroke-width="3.192" stroke="black" fill="none" stroke-linecap="round"></path><path d="M 96.000,85.500 C 100.619,82.664 100.350,82.295 105.000,79.500" stroke-width="3.360" stroke="black" fill="none" stroke-linecap="round"></path><path d="M 105.000,79.500 C 109.406,75.869 109.619,76.164 114.000,72.500" stroke-width="3.307" stroke="black" fill="none" stroke-linecap="round"></path><path d="M 114.000,72.500 C 117.244,70.797 116.906,70.369 120.000,68.500" stroke-width="3.773" stroke="black" fill="none" stroke-linecap="round"></path><path d="M 120.000,68.500 C 125.559,61.619 123.244,65.797 126.000,62.500" stroke-width="4.301" stroke="black" fill="none" stroke-linecap="round"></path><path d="M 126.000,62.500 C 124.634,67.840 126.559,63.619 122.000,72.500" stroke-width="4.745" stroke="black" fill="none" stroke-linecap="round"></path><path d="M 122.000,72.500 C 117.325,78.886 118.134,79.340 113.000,85.500" stroke-width="3.296" stroke="black" fill="none" stroke-linecap="round"></path><path d="M 113.000,85.500 C 109.338,92.233 108.825,91.886 105.000,98.500" stroke-width="2.923" stroke="black" fill="none" stroke-linecap="round"></path><path d="M 105.000,98.500 C 100.035,105.027 100.338,105.233 95.000,111.500" stroke-width="2.937" stroke="black" fill="none" stroke-linecap="round"></path><path d="M 95.000,111.500 C 89.500,118.500 89.535,118.527 84.000,125.500" stroke-width="3.011" stroke="black" fill="none" stroke-linecap="round"></path><path d="M 84.000,125.500 C 79.019,132.979 78.500,132.500 73.000,139.500" stroke-width="2.758" stroke="black" fill="none" stroke-linecap="round"></path><path d="M 73.000,139.500 C 66.510,145.511 67.019,145.979 60.000,151.500" stroke-width="2.757" stroke="black" fill="none" stroke-linecap="round"></path><path d="M 60.000,151.500 C 54.245,157.296 54.010,157.011 48.000,162.500" stroke-width="2.837" stroke="black" fill="none" stroke-linecap="round"></path><path d="M 48.000,162.500 C 42.101,167.142 42.245,167.296 36.000,171.500" stroke-width="2.941" stroke="black" fill="none" stroke-linecap="round"></path><path d="M 36.000,171.500 C 31.611,174.682 31.601,174.642 27.000,177.500" stroke-width="3.272" stroke="black" fill="none" stroke-linecap="round"></path><path d="M 27.000,177.500 C 22.411,179.854 22.611,180.182 18.000,182.500" stroke-width="3.376" stroke="black" fill="none" stroke-linecap="round"></path><path d="M 18.000,182.500 C 15.149,184.783 14.911,184.354 12.000,186.500" stroke-width="3.758" stroke="black" fill="none" stroke-linecap="round"></path><path d="M 12.000,186.500 C 7.000,189.590 9.649,187.783 7.000,188.500" stroke-width="4.104" stroke="black" fill="none" stroke-linecap="round"></path><path d="M 7.000,188.500 C 8.642,183.649 7.000,186.590 12.000,180.500" stroke-width="4.761" stroke="black" fill="none" stroke-linecap="round"></path><path d="M 12.000,180.500 C 17.652,177.220 16.642,176.149 23.000,173.500" stroke-width="3.462" stroke="black" fill="none" stroke-linecap="round"></path><path d="M 23.000,173.500 C 29.000,169.000 29.152,169.220 35.000,164.500" stroke-width="3.116" stroke="black" fill="none" stroke-linecap="round"></path><path d="M 35.000,164.500 C 40.882,159.833 41.000,160.000 47.000,155.500" stroke-width="3.026" stroke="black" fill="none" stroke-linecap="round"></path><path d="M 47.000,155.500 C 53.118,151.667 52.882,151.333 59.000,147.500" stroke-width="3.236" stroke="black" fill="none" stroke-linecap="round"></path><path d="M 59.000,147.500 C 64.701,142.532 65.118,143.167 71.000,138.500" stroke-width="3.058" stroke="black" fill="none" stroke-linecap="round"></path><path d="M 71.000,138.500 C 77.500,135.000 77.201,134.532 84.000,131.500" stroke-width="3.025" stroke="black" fill="none" stroke-linecap="round"></path><path d="M 84.000,131.500 C 90.400,127.800 90.500,128.000 97.000,124.500" stroke-width="2.954" stroke="black" fill="none" stroke-linecap="round"></path><path d="M 97.000,124.500 C 103.601,121.699 103.400,121.300 110.000,118.500" stroke-width="3.023" stroke="black" fill="none" stroke-linecap="round"></path><path d="M 110.000,118.500 C 114.589,116.146 114.601,116.199 119.000,113.500" stroke-width="3.435" stroke="black" fill="none" stroke-linecap="round"></path><path d="M 119.000,113.500 C 122.087,111.619 122.089,111.646 125.000,109.500" stroke-width="3.780" stroke="black" fill="none" stroke-linecap="round"></path><path d="M 125.000,109.500 C 130.000,106.043 127.587,107.619 130.000,105.500" stroke-width="4.372" stroke="black" fill="none" stroke-linecap="round"></path><path d="M 130.000,105.500 C 127.401,106.300 130.000,105.043 125.000,107.500" stroke-width="4.964" stroke="black" fill="none" stroke-linecap="round"></path><path d="M 125.000,107.500 C 122.558,109.105 122.401,108.800 120.000,110.500" stroke-width="4.344" stroke="black" fill="none" stroke-linecap="round"></path><path d="M 120.000,110.500 C 116.738,111.605 117.058,112.105 114.000,113.500" stroke-width="4.122" stroke="black" fill="none" stroke-linecap="round"></path><path d="M 114.000,113.500 C 110.376,116.366 110.238,116.105 107.000,119.500" stroke-width="3.718" stroke="black" fill="none" stroke-linecap="round"></path><path d="M 107.000,119.500 C 103.182,122.739 103.376,122.866 100.000,126.500" stroke-width="3.545" stroke="black" fill="none" stroke-linecap="round"></path><path d="M 100.000,126.500 C 97.889,129.431 97.682,129.239 96.000,132.500" stroke-width="3.819" stroke="black" fill="none" stroke-linecap="round"></path><path d="M 96.000,132.500 C 93.799,135.903 93.889,135.931 92.000,139.500" stroke-width="3.763" stroke="black" fill="none" stroke-linecap="round"></path><path d="M 92.000,139.500 C 90.648,141.906 90.799,141.903 90.000,144.500" stroke-width="4.064" stroke="black" fill="none" stroke-linecap="round"></path><path d="M 90.000,144.500 C 87.246,149.746 89.148,147.906 89.000,151.500" stroke-width="4.446" stroke="black" fill="none" stroke-linecap="round"></path><path d="M 89.000,151.500 C 93.749,153.395 91.246,153.746 98.000,152.500" stroke-width="4.653" stroke="black" fill="none" stroke-linecap="round"></path><path d="M 98.000,152.500 C 103.249,150.403 103.249,151.395 108.000,147.500" stroke-width="3.693" stroke="black" fill="none" stroke-linecap="round"></path><path d="M 108.000,147.500 C 112.213,144.746 112.249,144.903 116.000,141.500" stroke-width="3.528" stroke="black" fill="none" stroke-linecap="round"></path><path d="M 116.000,141.500 C 119.000,138.500 119.213,138.746 122.000,135.500" stroke-width="3.630" stroke="black" fill="none" stroke-linecap="round"></path><path d="M 122.000,135.500 C 124.110,133.600 124.000,133.500 126.000,131.500" stroke-width="4.024" stroke="black" fill="none" stroke-linecap="round"></path><path d="M 126.000,131.500 C 128.848,128.728 128.610,128.600 131.000,125.500" stroke-width="3.850" stroke="black" fill="none" stroke-linecap="round"></path><path d="M 131.000,125.500 C 135.277,120.989 132.848,122.728 134.000,119.500" stroke-width="4.407" stroke="black" fill="none" stroke-linecap="round"></path><path d="M 134.000,119.500 C 129.001,117.577 132.277,117.489 125.000,118.500" stroke-width="4.771" stroke="black" fill="none" stroke-linecap="round"></path><path d="M 125.000,118.500 C 122.901,120.409 122.501,119.077 121.000,122.500" stroke-width="4.372" stroke="black" fill="none" stroke-linecap="round"></path><path d="M 121.000,122.500 C 117.525,125.712 117.901,125.909 115.000,129.500" stroke-width="4.389" stroke="black" fill="none" stroke-linecap="round"></path><path d="M 115.000,129.500 C 111.793,133.494 113.525,131.712 113.000,134.500" stroke-width="4.706" stroke="black" fill="none" stroke-linecap="round"></path><path d="M 113.000,134.500 C 117.807,136.296 114.793,135.994 121.000,134.500" stroke-width="5.084" stroke="black" fill="none" stroke-linecap="round"></path><path d="M 121.000,134.500 C 124.861,129.869 125.807,131.796 129.000,125.500" stroke-width="3.682" stroke="black" fill="none" stroke-linecap="round"></path><path d="M 129.000,125.500 C 134.262,120.737 133.861,120.369 139.000,115.500" stroke-width="3.857" stroke="black" fill="none" stroke-linecap="round"></path><path d="M 139.000,115.500 C 143.474,109.979 143.762,110.237 148.000,104.500" stroke-width="3.265" stroke="black" fill="none" stroke-linecap="round"></path><path d="M 148.000,104.500 C 152.752,98.273 152.974,98.479 158.000,92.500" stroke-width="3.083" stroke="black" fill="none" stroke-linecap="round"></path><path d="M 158.000,92.500 C 163.375,87.836 162.752,87.273 168.000,82.500" stroke-width="2.949" stroke="black" fill="none" stroke-linecap="round"></path><path d="M 168.000,82.500 C 175.838,72.363 176.375,72.836 184.000,62.500" stroke-width="2.417" stroke="black" fill="none" stroke-linecap="round"></path><path d="M 184.000,62.500 C 188.496,58.352 187.838,57.863 192.000,53.500" stroke-width="2.922" stroke="black" fill="none" stroke-linecap="round"></path><path d="M 192.000,53.500 C 194.832,49.146 194.996,49.352 197.000,44.500" stroke-width="3.306" stroke="black" fill="none" stroke-linecap="round"></path><path d="M 197.000,44.500 C 198.170,41.545 198.332,41.646 199.000,38.500" stroke-width="3.782" stroke="black" fill="none" stroke-linecap="round"></path><path d="M 199.000,38.500 C 201.264,34.554 199.670,36.045 200.000,33.500" stroke-width="4.496" stroke="black" fill="none" stroke-linecap="round"></path><path d="M 200.000,33.500 C 195.814,31.845 198.264,32.054 193.000,33.500" stroke-width="4.125" stroke="black" fill="none" stroke-linecap="round"></path><path d="M 193.000,33.500 C 187.141,37.806 187.314,36.845 183.000,43.500" stroke-width="3.256" stroke="black" fill="none" stroke-linecap="round"></path><path d="M 183.000,43.500 C 171.163,60.032 171.141,59.806 161.000,77.500" stroke-width="2.708" stroke="black" fill="none" stroke-linecap="round"></path><path d="M 161.000,77.500 C 156.299,88.153 155.163,87.532 151.000,98.500" stroke-width="2.466" stroke="black" fill="none" stroke-linecap="round"></path><path d="M 151.000,98.500 C 145.223,108.360 145.799,108.653 140.000,118.500" stroke-width="2.420" stroke="black" fill="none" stroke-linecap="round"></path><path d="M 140.000,118.500 C 136.602,124.849 136.723,124.860 134.000,131.500" stroke-width="2.831" stroke="black" fill="none" stroke-linecap="round"></path><path d="M 134.000,131.500 C 132.264,136.445 132.102,136.349 131.000,141.500" stroke-width="3.209" stroke="black" fill="none" stroke-linecap="round"></path><path d="M 131.000,141.500 C 128.508,148.370 130.264,144.445 130.000,147.500" stroke-width="4.152" stroke="black" fill="none" stroke-linecap="round"></path><path d="M 130.000,147.500 C 136.922,141.371 134.508,144.870 143.000,134.500" stroke-width="3.759" stroke="black" fill="none" stroke-linecap="round"></path><path d="M 143.000,134.500 C 147.479,127.522 148.422,128.371 153.000,121.500" stroke-width="3.413" stroke="black" fill="none" stroke-linecap="round"></path><path d="M 153.000,121.500 C 159.253,116.247 158.479,115.522 165.000,110.500" stroke-width="2.879" stroke="black" fill="none" stroke-linecap="round"></path><path d="M 165.000,110.500 C 168.256,106.244 168.753,106.747 172.000,102.500" stroke-width="3.263" stroke="black" fill="none" stroke-linecap="round"></path><path d="M 172.000,102.500 C 176.222,97.332 174.256,100.244 177.000,98.500" stroke-width="3.757" stroke="black" fill="none" stroke-linecap="round"></path><path d="M 177.000,98.500 C 177.620,103.843 178.222,100.332 176.000,108.500" stroke-width="4.351" stroke="black" fill="none" stroke-linecap="round"></path><path d="M 176.000,108.500 C 172.661,115.093 173.620,115.343 169.000,121.500" stroke-width="3.384" stroke="black" fill="none" stroke-linecap="round"></path><path d="M 169.000,121.500 C 166.228,125.362 166.661,125.593 164.000,129.500" stroke-width="3.491" stroke="black" fill="none" stroke-linecap="round"></path><path d="M 164.000,129.500 C 160.613,134.500 162.728,131.862 162.000,134.500" stroke-width="4.003" stroke="black" fill="none" stroke-linecap="round"></path><path d="M 162.000,134.500 C 167.945,132.717 165.113,134.500 173.000,129.500" stroke-width="4.322" stroke="black" fill="none" stroke-linecap="round"></path><path d="M 173.000,129.500 C 178.322,124.759 178.945,125.717 184.000,120.500" stroke-width="3.285" stroke="black" fill="none" stroke-linecap="round"></path><path d="M 184.000,120.500 C 188.371,117.277 188.322,117.259 193.000,114.500" stroke-width="3.335" stroke="black" fill="none" stroke-linecap="round"></path><path d="M 193.000,114.500 C 195.883,112.699 195.871,112.777 199.000,111.500" stroke-width="3.795" stroke="black" fill="none" stroke-linecap="round"></path><path d="M 199.000,111.500 C 204.663,107.940 202.383,110.199 206.000,109.500" stroke-width="4.345" stroke="black" fill="none" stroke-linecap="round"></path><path d="M 206.000,109.500 C 206.404,114.288 207.663,111.440 205.000,118.500" stroke-width="4.393" stroke="black" fill="none" stroke-linecap="round"></path><path d="M 205.000,118.500 C 202.298,122.904 203.404,123.288 200.000,127.500" stroke-width="3.666" stroke="black" fill="none" stroke-linecap="round"></path><path d="M 200.000,127.500 C 197.109,130.719 198.798,129.904 198.000,132.500" stroke-width="4.106" stroke="black" fill="none" stroke-linecap="round"></path><path d="M 198.000,132.500 C 201.058,135.500 199.109,134.719 204.000,135.500" stroke-width="4.759" stroke="black" fill="none" stroke-linecap="round"></path><path d="M 204.000,135.500 C 207.400,131.967 206.558,135.500 209.000,132.500" stroke-width="4.789" stroke="black" fill="none" stroke-linecap="round"></path><path d="M 209.000,132.500 C 208.344,137.500 210.400,132.967 210.000,137.500" stroke-width="5.005" stroke="black" fill="none" stroke-linecap="round"></path><path d="M 210.000,137.500 C 215.098,135.751 213.344,137.500 219.000,132.500" stroke-width="4.914" stroke="black" fill="none" stroke-linecap="round"></path><path d="M 219.000,132.500 C 223.520,127.518 224.098,128.251 228.000,122.500" stroke-width="3.521" stroke="black" fill="none" stroke-linecap="round"></path></svg>