<svg xmlns="http://www.w3.org/2000/svg" xmlns:xlink="http://www.w3.org/1999/xlink" viewBox="0 0 664 313" width="664" height="313"><path d="M 237.000,268.000 C 230.726,273.312 233.000,274.000 229.000,280.000" stroke-width="4.276" stroke="black" fill="none" stroke-linecap="round"></path><path d="M 229.000,280.000 C 229.000,289.500 226.726,288.812 229.000,299.000" stroke-width="2.921" stroke="black" fill="none" stroke-linecap="round"></path><path d="M 229.000,299.000 C 229.000,308.000 229.000,308.000 229.000,317.000" stroke-width="3.412" stroke="black" fill="none" stroke-linecap="round"></path><path d="M 229.000,317.000 C 229.000,324.000 229.000,324.000 229.000,331.000" stroke-width="3.113" stroke="black" fill="none" stroke-linecap="round"></path><path d="M 229.000,331.000 C 228.750,342.505 229.000,342.500 229.000,354.000" stroke-width="2.569" stroke="black" fill="none" stroke-linecap="round"></path><path d="M 229.000,354.000 C 228.043,365.749 229.250,365.505 230.000,377.000" stroke-width="2.441" stroke="black" fill="none" stroke-linecap="round"></path><path d="M 230.000,377.000 C 233.698,388.443 232.043,388.749 237.000,400.000" stroke-width="2.958" stroke="black" fill="none" stroke-linecap="round"></path><path d="M 237.000,400.000 C 239.827,413.221 240.698,412.943 244.000,426.000" stroke-width="2.364" stroke="black" fill="none" stroke-linecap="round"></path><path d="M 244.000,426.000 C 247.404,438.063 247.827,437.721 253.000,449.000" stroke-width="2.255" stroke="black" fill="none" stroke-linecap="round"></path><path d="M 253.000,449.000 C 258.074,460.194 258.404,459.563 266.000,469.000" stroke-width="2.367" stroke="black" fill="none" stroke-linecap="round"></path><path d="M 266.000,469.000 C 281.640,484.419 280.574,485.194 298.000,499.000" stroke-width="1.688" stroke="black" fill="none" stroke-linecap="round"></path><path d="M 298.000,499.000 C 304.909,504.620 304.640,504.919 312.000,510.000" stroke-width="2.312" stroke="black" fill="none" stroke-linecap="round"></path><path d="M 312.000,510.000 C 319.339,515.733 319.409,515.620 327.000,521.000" stroke-width="2.507" stroke="black" fill="none" stroke-linecap="round"></path><path d="M 327.000,521.000 C 335.416,526.635 335.339,526.733 344.000,532.000" stroke-width="2.490" stroke="black" fill="none" stroke-linecap="round"></path><path d="M 344.000,532.000 C 351.868,535.981 351.416,536.635 359.000,541.000" stroke-width="2.681" stroke="black" fill="none" stroke-linecap="round"></path><path d="M 359.000,541.000 C 365.238,545.739 365.368,545.481 371.000,551.000" stroke-width="2.852" stroke="black" fill="none" stroke-linecap="round"></path><path d="M 371.000,551.000 C 376.826,556.217 376.738,556.239 382.000,562.000" stroke-width="2.911" stroke="black" fill="none" stroke-linecap="round"></path><path d="M 382.000,562.000 C 384.647,566.342 385.326,565.717 388.000,570.000" stroke-width="3.326" stroke="black" fill="none" stroke-linecap="round"></path><path d="M 388.000,570.000 C 391.330,571.495 390.147,572.342 393.000,574.000" stroke-width="3.781" stroke="black" fill="none" stroke-linecap="round"></path><path d="M 393.000,574.000 C 393.453,581.463 394.330,575.995 394.000,579.000" stroke-width="4.625" stroke="black" fill="none" stroke-linecap="round"></path><path d="M 180.000,199.000 C 170.820,185.038 177.500,189.000 175.000,179.000" stroke-width="4.236" stroke="black" fill="none" stroke-linecap="round"></path><path d="M 175.000,179.000 C 186.404,175.577 179.820,172.038 198.000,173.000" stroke-width="2.708" stroke="black" fill="none" stroke-linecap="round"></path><path d="M 198.000,173.000 C 213.437,169.630 213.404,169.577 229.000,167.000" stroke-width="2.080" stroke="black" fill="none" stroke-linecap="round"></path><path d="M 229.000,167.000 C 248.916,163.201 248.937,163.630 269.000,161.000" stroke-width="2.348" stroke="black" fill="none" stroke-linecap="round"></path><path d="M 269.000,161.000 C 285.488,159.590 285.416,159.201 302.000,159.000" stroke-width="2.023" stroke="black" fill="none" stroke-linecap="round"></path><path d="M 302.000,159.000 C 313.500,159.000 313.488,158.590 325.000,159.000" stroke-width="2.267" stroke="black" fill="none" stroke-linecap="round"></path><path d="M 325.000,159.000 C 332.000,159.000 332.000,159.000 339.000,159.000" stroke-width="2.784" stroke="black" fill="none" stroke-linecap="round"></path><path d="M 339.000,159.000 C 345.975,156.525 343.500,159.000 348.000,159.000" stroke-width="3.259" stroke="black" fill="none" stroke-linecap="round"></path><path d="M 348.000,159.000 C 350.292,165.264 350.475,162.025 348.000,170.000" stroke-width="3.367" stroke="black" fill="none" stroke-linecap="round"></path><path d="M 348.000,170.000 C 341.562,180.988 342.792,180.764 333.000,190.000" stroke-width="2.451" stroke="black" fill="none" stroke-linecap="round"></path><path d="M 333.000,190.000 C 322.503,201.568 322.562,200.988 310.000,210.000" stroke-width="2.067" stroke="black" fill="none" stroke-linecap="round"></path><path d="M 310.000,210.000 C 300.198,215.052 301.003,216.068 290.000,219.000" stroke-width="2.325" stroke="black" fill="none" stroke-linecap="round"></path><path d="M 290.000,219.000 C 284.467,220.392 284.698,221.052 279.000,222.000" stroke-width="2.922" stroke="black" fill="none" stroke-linecap="round"></path><path d="M 279.000,222.000 C 271.365,225.560 275.967,222.892 273.000,224.000" stroke-width="3.658" stroke="black" fill="none" stroke-linecap="round"></path><path d="M 273.000,224.000 C 285.501,210.041 282.365,215.060 301.000,201.000" stroke-width="2.982" stroke="black" fill="none" stroke-linecap="round"></path><path d="M 301.000,201.000 C 322.289,189.334 321.501,189.041 345.000,182.000" stroke-width="1.673" stroke="black" fill="none" stroke-linecap="round"></path><path d="M 345.000,182.000 C 370.770,174.612 370.289,173.834 397.000,170.000" stroke-width="1.391" stroke="black" fill="none" stroke-linecap="round"></path><path d="M 397.000,170.000 C 416.489,167.888 416.270,166.612 436.000,166.000" stroke-width="1.595" stroke="black" fill="none" stroke-linecap="round"></path><path d="M 436.000,166.000 C 447.487,164.698 447.489,164.888 459.000,164.000" stroke-width="2.077" stroke="black" fill="none" stroke-linecap="round"></path><path d="M 459.000,164.000 C 464.000,164.000 463.987,163.698 469.000,164.000" stroke-width="2.923" stroke="black" fill="none" stroke-linecap="round"></path><path d="M 469.000,164.000 C 472.279,165.183 472.000,164.000 475.000,164.000" stroke-width="3.653" stroke="black" fill="none" stroke-linecap="round"></path><path d="M 475.000,164.000 C 495.318,154.497 495.279,155.183 515.000,144.000" stroke-width="3.210" stroke="black" fill="none" stroke-linecap="round"></path></svg>