<svg xmlns="http://www.w3.org/2000/svg" xmlns:xlink="http://www.w3.org/1999/xlink" viewBox="0 0 664 413" width="664" height="413"><path d="M 410.000,77.000 C 400.560,78.275 401.500,80.000 393.000,83.000" stroke-width="3.738" stroke="black" fill="none" stroke-linecap="round"></path><path d="M 393.000,83.000 C 377.901,95.563 376.560,93.275 362.000,107.000" stroke-width="1.962" stroke="black" fill="none" stroke-linecap="round"></path><path d="M 362.000,107.000 C 349.473,116.339 349.401,116.063 336.000,124.000" stroke-width="1.927" stroke="black" fill="none" stroke-linecap="round"></path><path d="M 336.000,124.000 C 323.795,130.882 323.973,130.839 311.000,136.000" stroke-width="2.070" stroke="black" fill="none" stroke-linecap="round"></path><path d="M 311.000,136.000 C 305.267,139.422 306.295,137.882 301.000,138.000" stroke-width="2.942" stroke="black" fill="none" stroke-linecap="round"></path><path d="M 301.000,138.000 C 292.196,134.504 296.267,136.422 293.000,130.000" stroke-width="3.716" stroke="black" fill="none" stroke-linecap="round"></path><path d="M 293.000,130.000 C 297.668,118.071 294.696,120.504 306.000,110.000" stroke-width="2.560" stroke="black" fill="none" stroke-linecap="round"></path><path d="M 306.000,110.000 C 314.489,101.415 313.668,102.571 325.000,99.000" stroke-width="2.485" stroke="black" fill="none" stroke-linecap="round"></path><path d="M 325.000,99.000 C 352.581,93.712 351.489,92.915 380.000,93.000" stroke-width="1.480" stroke="black" fill="none" stroke-linecap="round"></path><path d="M 380.000,93.000 C 391.650,93.442 391.081,92.712 402.000,97.000" stroke-width="2.038" stroke="black" fill="none" stroke-linecap="round"></path><path d="M 402.000,97.000 C 408.868,99.303 407.650,98.942 412.000,104.000" stroke-width="2.728" stroke="black" fill="none" stroke-linecap="round"></path><path d="M 412.000,104.000 C 416.173,110.344 414.868,108.303 414.000,115.000" stroke-width="3.208" stroke="black" fill="none" stroke-linecap="round"></path><path d="M 414.000,115.000 C 405.873,124.395 409.173,125.344 398.000,134.000" stroke-width="2.432" stroke="black" fill="none" stroke-linecap="round"></path><path d="M 398.000,134.000 C 382.154,156.030 380.873,154.895 364.000,176.000" stroke-width="1.554" stroke="black" fill="none" stroke-linecap="round"></path><path d="M 364.000,176.000 C 336.035,204.534 337.154,205.530 308.000,233.000" stroke-width="1.125" stroke="black" fill="none" stroke-linecap="round"></path><path d="M 308.000,233.000 C 303.500,237.500 303.535,237.534 299.000,242.000" stroke-width="2.003" stroke="black" fill="none" stroke-linecap="round"></path><path d="M 299.000,242.000 C 294.000,246.452 296.500,244.500 294.000,247.000" stroke-width="3.323" stroke="black" fill="none" stroke-linecap="round"></path><path d="M 294.000,247.000 C 296.737,245.834 294.000,247.452 299.000,244.000" stroke-width="3.885" stroke="black" fill="none" stroke-linecap="round"></path><path d="M 299.000,244.000 C 324.798,220.925 325.737,222.334 352.000,200.000" stroke-width="1.475" stroke="black" fill="none" stroke-linecap="round"></path><path d="M 352.000,200.000 C 357.688,196.020 357.298,195.925 364.000,194.000" stroke-width="2.314" stroke="black" fill="none" stroke-linecap="round"></path><path d="M 364.000,194.000 C 373.425,188.872 370.188,192.020 377.000,192.000" stroke-width="2.854" stroke="black" fill="none" stroke-linecap="round"></path><path d="M 377.000,192.000 C 381.847,200.445 381.425,195.872 380.000,208.000" stroke-width="3.437" stroke="black" fill="none" stroke-linecap="round"></path><path d="M 380.000,208.000 C 373.786,222.935 376.347,222.945 366.000,237.000" stroke-width="2.164" stroke="black" fill="none" stroke-linecap="round"></path><path d="M 366.000,237.000 C 357.565,250.541 358.286,250.935 349.000,264.000" stroke-width="2.013" stroke="black" fill="none" stroke-linecap="round"></path><path d="M 349.000,264.000 C 334.376,284.087 343.565,272.541 338.000,281.000" stroke-width="2.321" stroke="black" fill="none" stroke-linecap="round"></path></svg>