<svg xmlns="http://www.w3.org/2000/svg" xmlns:xlink="http://www.w3.org/1999/xlink" viewBox="0 0 462 126" width="462" height="126"><path d="M 73.000,67.000 C 69.116,65.029 69.000,65.500 65.000,64.000" stroke-width="4.924" stroke="black" fill="none" stroke-linecap="round"></path><path d="M 65.000,64.000 C 60.857,64.028 61.116,63.029 57.000,63.000" stroke-width="4.654" stroke="black" fill="none" stroke-linecap="round"></path><path d="M 57.000,63.000 C 53.398,61.699 53.357,62.028 50.000,60.000" stroke-width="4.613" stroke="black" fill="none" stroke-linecap="round"></path><path d="M 50.000,60.000 C 45.238,58.906 47.398,58.699 45.000,57.000" stroke-width="4.916" stroke="black" fill="none" stroke-linecap="round"></path><path d="M 45.000,57.000 C 46.599,54.081 44.738,54.906 49.000,52.000" stroke-width="5.230" stroke="black" fill="none" stroke-linecap="round"></path><path d="M 49.000,52.000 C 54.601,48.129 54.099,47.581 60.000,44.000" stroke-width="4.345" stroke="black" fill="none" stroke-linecap="round"></path><path d="M 60.000,44.000 C 62.765,41.157 63.101,41.629 66.000,39.000" stroke-width="3.933" stroke="black" fill="none" stroke-linecap="round"></path><path d="M 66.000,39.000 C 70.513,36.524 70.265,36.157 75.000,34.000" stroke-width="3.622" stroke="black" fill="none" stroke-linecap="round"></path><path d="M 75.000,34.000 C 78.500,32.000 78.513,32.024 82.000,30.000" stroke-width="3.704" stroke="black" fill="none" stroke-linecap="round"></path><path d="M 82.000,30.000 C 85.403,27.799 85.500,28.000 89.000,26.000" stroke-width="3.829" stroke="black" fill="none" stroke-linecap="round"></path><path d="M 89.000,26.000 C 91.500,25.000 91.403,24.799 94.000,24.000" stroke-width="4.200" stroke="black" fill="none" stroke-linecap="round"></path><path d="M 94.000,24.000 C 96.515,23.036 96.500,23.000 99.000,22.000" stroke-width="4.157" stroke="black" fill="none" stroke-linecap="round"></path><path d="M 99.000,22.000 C 106.223,18.553 102.515,20.536 106.000,19.000" stroke-width="4.420" stroke="black" fill="none" stroke-linecap="round"></path><path d="M 106.000,19.000 C 101.715,21.142 105.723,19.553 98.000,24.000" stroke-width="4.892" stroke="black" fill="none" stroke-linecap="round"></path><path d="M 98.000,24.000 C 95.500,26.500 95.215,26.142 93.000,29.000" stroke-width="4.210" stroke="black" fill="none" stroke-linecap="round"></path><path d="M 93.000,29.000 C 89.253,32.282 89.500,32.500 86.000,36.000" stroke-width="3.729" stroke="black" fill="none" stroke-linecap="round"></path><path d="M 86.000,36.000 C 82.420,40.440 82.253,40.282 79.000,45.000" stroke-width="3.577" stroke="black" fill="none" stroke-linecap="round"></path><path d="M 79.000,45.000 C 74.883,50.418 74.920,50.440 71.000,56.000" stroke-width="3.307" stroke="black" fill="none" stroke-linecap="round"></path><path d="M 71.000,56.000 C 67.167,62.118 66.883,61.918 63.000,68.000" stroke-width="3.055" stroke="black" fill="none" stroke-linecap="round"></path><path d="M 63.000,68.000 C 58.819,74.277 58.667,74.118 54.000,80.000" stroke-width="2.947" stroke="black" fill="none" stroke-linecap="round"></path><path d="M 54.000,80.000 C 50.745,83.790 50.819,83.777 47.000,87.000" stroke-width="3.348" stroke="black" fill="none" stroke-linecap="round"></path><path d="M 47.000,87.000 C 43.652,89.753 43.745,89.790 40.000,92.000" stroke-width="3.504" stroke="black" fill="none" stroke-linecap="round"></path><path d="M 40.000,92.000 C 37.088,93.713 37.152,93.753 34.000,95.000" stroke-width="3.813" stroke="black" fill="none" stroke-linecap="round"></path><path d="M 34.000,95.000 C 31.077,96.341 31.088,96.213 28.000,97.000" stroke-width="4.009" stroke="black" fill="none" stroke-linecap="round"></path><path d="M 28.000,97.000 C 22.565,99.425 24.077,97.841 20.000,98.000" stroke-width="4.371" stroke="black" fill="none" stroke-linecap="round"></path><path d="M 20.000,98.000 C 17.455,94.163 18.065,96.925 19.000,92.000" stroke-width="5.010" stroke="black" fill="none" stroke-linecap="round"></path><path d="M 19.000,92.000 C 24.391,87.838 22.455,87.163 30.000,84.000" stroke-width="4.244" stroke="black" fill="none" stroke-linecap="round"></path><path d="M 30.000,84.000 C 34.040,81.562 33.891,81.338 38.000,79.000" stroke-width="3.724" stroke="black" fill="none" stroke-linecap="round"></path><path d="M 38.000,79.000 C 42.329,75.705 42.540,76.062 47.000,73.000" stroke-width="3.459" stroke="black" fill="none" stroke-linecap="round"></path><path d="M 47.000,73.000 C 52.061,70.615 51.829,70.205 57.000,68.000" stroke-width="3.466" stroke="black" fill="none" stroke-linecap="round"></path><path d="M 57.000,68.000 C 60.361,65.712 60.561,66.115 64.000,64.000" stroke-width="3.791" stroke="black" fill="none" stroke-linecap="round"></path><path d="M 64.000,64.000 C 69.021,62.050 68.861,61.712 74.000,60.000" stroke-width="3.480" stroke="black" fill="none" stroke-linecap="round"></path><path d="M 74.000,60.000 C 77.544,58.595 77.521,58.550 81.000,57.000" stroke-width="3.754" stroke="black" fill="none" stroke-linecap="round"></path><path d="M 81.000,57.000 C 84.058,55.605 84.044,55.595 87.000,54.000" stroke-width="3.945" stroke="black" fill="none" stroke-linecap="round"></path><path d="M 87.000,54.000 C 89.716,52.777 89.558,52.605 92.000,51.000" stroke-width="4.068" stroke="black" fill="none" stroke-linecap="round"></path><path d="M 92.000,51.000 C 96.814,47.407 94.216,49.277 96.000,47.000" stroke-width="4.568" stroke="black" fill="none" stroke-linecap="round"></path><path d="M 96.000,47.000 C 91.659,47.311 94.814,46.407 88.000,49.000" stroke-width="4.839" stroke="black" fill="none" stroke-linecap="round"></path><path d="M 88.000,49.000 C 85.658,51.228 85.159,50.311 83.000,53.000" stroke-width="4.233" stroke="black" fill="none" stroke-linecap="round"></path><path d="M 83.000,53.000 C 77.139,55.157 78.158,56.228 73.000,59.000" stroke-width="4.179" stroke="black" fill="none" stroke-linecap="round"></path><path d="M 73.000,59.000 C 70.147,62.273 70.139,61.657 69.000,66.000" stroke-width="4.430" stroke="black" fill="none" stroke-linecap="round"></path><path d="M 69.000,66.000 C 67.584,69.875 68.147,68.773 69.000,72.000" stroke-width="4.670" stroke="black" fill="none" stroke-linecap="round"></path><path d="M 69.000,72.000 C 71.836,74.513 70.584,74.375 75.000,75.000" stroke-width="4.869" stroke="black" fill="none" stroke-linecap="round"></path><path d="M 75.000,75.000 C 79.000,75.500 78.336,75.513 82.000,74.000" stroke-width="4.205" stroke="black" fill="none" stroke-linecap="round"></path><path d="M 82.000,74.000 C 84.260,71.192 85.000,72.500 87.000,69.000" stroke-width="3.987" stroke="black" fill="none" stroke-linecap="round"></path><path d="M 87.000,69.000 C 89.500,67.500 89.260,67.192 92.000,66.000" stroke-width="4.126" stroke="black" fill="none" stroke-linecap="round"></path><path d="M 92.000,66.000 C 94.617,64.668 94.500,64.500 97.000,63.000" stroke-width="4.211" stroke="black" fill="none" stroke-linecap="round"></path><path d="M 97.000,63.000 C 102.258,60.033 99.617,61.168 102.000,59.000" stroke-width="4.533" stroke="black" fill="none" stroke-linecap="round"></path><path d="M 102.000,59.000 C 98.345,57.557 101.758,58.033 96.000,59.000" stroke-width="4.956" stroke="black" fill="none" stroke-linecap="round"></path><path d="M 96.000,59.000 C 91.821,62.611 91.845,61.557 89.000,67.000" stroke-width="4.510" stroke="black" fill="none" stroke-linecap="round"></path><path d="M 89.000,67.000 C 86.065,72.533 87.321,69.611 87.000,73.000" stroke-width="4.639" stroke="black" fill="none" stroke-linecap="round"></path><path d="M 87.000,73.000 C 90.223,71.272 88.065,73.533 93.000,69.000" stroke-width="5.005" stroke="black" fill="none" stroke-linecap="round"></path><path d="M 93.000,69.000 C 97.000,63.500 95.723,66.772 98.000,64.000" stroke-width="4.756" stroke="black" fill="none" stroke-linecap="round"></path><path d="M 98.000,64.000 C 95.500,69.000 99.000,64.500 97.000,71.000" stroke-width="5.091" stroke="black" fill="none" stroke-linecap="round"></path><path d="M 97.000,71.000 C 100.893,73.036 98.500,73.000 104.000,72.000" stroke-width="5.089" stroke="black" fill="none" stroke-linecap="round"></path><path d="M 104.000,72.000 C 108.054,69.069 108.393,70.536 112.000,66.000" stroke-width="3.897" stroke="black" fill="none" stroke-linecap="round"></path><path d="M 112.000,66.000 C 117.123,62.145 117.054,62.069 122.000,58.000" stroke-width="3.322" stroke="black" fill="none" stroke-linecap="round"></path><path d="M 122.000,58.000 C 127.111,53.617 127.123,53.645 132.000,49.000" stroke-width="3.350" stroke="black" fill="none" stroke-linecap="round"></path><path d="M 132.000,49.000 C 135.882,44.875 136.111,45.117 140.000,41.000" stroke-width="3.369" stroke="black" fill="none" stroke-linecap="round"></path><path d="M 140.000,41.000 C 144.590,37.095 144.382,36.875 149.000,33.000" stroke-width="3.256" stroke="black" fill="none" stroke-linecap="round"></path><path d="M 149.000,33.000 C 151.500,30.500 151.590,30.595 154.000,28.000" stroke-width="3.726" stroke="black" fill="none" stroke-linecap="round"></path><path d="M 154.000,28.000 C 156.277,26.216 156.000,26.000 158.000,24.000" stroke-width="4.017" stroke="black" fill="none" stroke-linecap="round"></path><path d="M 158.000,24.000 C 161.840,18.020 159.777,21.716 161.000,19.000" stroke-width="4.668" stroke="black" fill="none" stroke-linecap="round"></path><path d="M 161.000,19.000 C 156.425,24.945 158.840,21.520 152.000,31.000" stroke-width="4.830" stroke="black" fill="none" stroke-linecap="round"></path><path d="M 152.000,31.000 C 147.473,38.387 146.925,37.945 142.000,45.000" stroke-width="3.200" stroke="black" fill="none" stroke-linecap="round"></path><path d="M 142.000,45.000 C 135.097,52.594 135.473,52.887 128.000,60.000" stroke-width="2.715" stroke="black" fill="none" stroke-linecap="round"></path><path d="M 128.000,60.000 C 123.177,64.226 123.597,64.594 119.000,69.000" stroke-width="3.048" stroke="black" fill="none" stroke-linecap="round"></path><path d="M 119.000,69.000 C 116.715,72.682 116.177,72.226 114.000,76.000" stroke-width="3.498" stroke="black" fill="none" stroke-linecap="round"></path><path d="M 114.000,76.000 C 109.175,79.381 112.215,78.182 110.000,80.000" stroke-width="4.331" stroke="black" fill="none" stroke-linecap="round"></path><path d="M 110.000,80.000 C 114.229,80.257 111.175,80.881 118.000,79.000" stroke-width="4.669" stroke="black" fill="none" stroke-linecap="round"></path><path d="M 118.000,79.000 C 123.049,76.593 123.229,77.257 128.000,74.000" stroke-width="3.696" stroke="black" fill="none" stroke-linecap="round"></path><path d="M 128.000,74.000 C 133.681,71.292 133.549,71.093 139.000,68.000" stroke-width="3.363" stroke="black" fill="none" stroke-linecap="round"></path><path d="M 139.000,68.000 C 144.014,64.520 144.181,64.792 149.000,61.000" stroke-width="3.300" stroke="black" fill="none" stroke-linecap="round"></path><path d="M 149.000,61.000 C 152.500,58.500 152.514,58.520 156.000,56.000" stroke-width="3.593" stroke="black" fill="none" stroke-linecap="round"></path><path d="M 156.000,56.000 C 163.000,49.807 159.500,53.500 163.000,51.000" stroke-width="4.160" stroke="black" fill="none" stroke-linecap="round"></path><path d="M 163.000,51.000 C 159.808,56.728 163.000,52.807 156.000,62.000" stroke-width="4.313" stroke="black" fill="none" stroke-linecap="round"></path><path d="M 156.000,62.000 C 152.845,65.379 153.308,65.728 150.000,69.000" stroke-width="3.697" stroke="black" fill="none" stroke-linecap="round"></path><path d="M 150.000,69.000 C 143.890,75.334 147.345,72.379 145.000,76.000" stroke-width="4.218" stroke="black" fill="none" stroke-linecap="round"></path><path d="M 145.000,76.000 C 150.313,74.578 146.390,76.834 155.000,72.000" stroke-width="4.518" stroke="black" fill="none" stroke-linecap="round"></path><path d="M 155.000,72.000 C 159.886,68.324 160.313,69.078 165.000,65.000" stroke-width="3.499" stroke="black" fill="none" stroke-linecap="round"></path><path d="M 165.000,65.000 C 169.921,61.857 169.886,61.824 175.000,59.000" stroke-width="3.324" stroke="black" fill="none" stroke-linecap="round"></path><path d="M 175.000,59.000 C 177.912,57.287 177.921,57.357 181.000,56.000" stroke-width="3.791" stroke="black" fill="none" stroke-linecap="round"></path><path d="M 181.000,56.000 C 185.616,53.170 183.912,54.787 187.000,54.000" stroke-width="4.423" stroke="black" fill="none" stroke-linecap="round"></path><path d="M 187.000,54.000 C 187.185,56.828 188.116,54.670 186.000,59.000" stroke-width="4.715" stroke="black" fill="none" stroke-linecap="round"></path><path d="M 186.000,59.000 C 183.610,62.100 184.185,62.328 181.000,65.000" stroke-width="4.078" stroke="black" fill="none" stroke-linecap="round"></path><path d="M 181.000,65.000 C 178.723,66.784 179.110,67.100 177.000,69.000" stroke-width="4.177" stroke="black" fill="none" stroke-linecap="round"></path><path d="M 177.000,69.000 C 173.500,72.000 175.223,71.284 174.000,74.000" stroke-width="4.139" stroke="black" fill="none" stroke-linecap="round"></path><path d="M 174.000,74.000 C 176.368,77.310 174.500,76.000 179.000,77.000" stroke-width="4.748" stroke="black" fill="none" stroke-linecap="round"></path><path d="M 179.000,77.000 C 185.269,75.002 184.868,76.310 191.000,72.000" stroke-width="3.536" stroke="black" fill="none" stroke-linecap="round"></path><path d="M 191.000,72.000 C 195.347,68.737 195.769,69.502 200.000,66.000" stroke-width="3.467" stroke="black" fill="none" stroke-linecap="round"></path><path d="M 200.000,66.000 C 203.943,63.873 203.847,63.737 208.000,62.000" stroke-width="3.617" stroke="black" fill="none" stroke-linecap="round"></path><path d="M 208.000,62.000 C 212.586,58.964 210.443,60.873 213.000,60.000" stroke-width="4.012" stroke="black" fill="none" stroke-linecap="round"></path><path d="M 213.000,60.000 C 212.036,63.833 213.586,61.464 210.000,67.000" stroke-width="4.687" stroke="black" fill="none" stroke-linecap="round"></path><path d="M 210.000,67.000 C 206.718,70.293 207.536,70.833 204.000,74.000" stroke-width="3.907" stroke="black" fill="none" stroke-linecap="round"></path><path d="M 204.000,74.000 C 198.191,80.113 201.218,77.793 199.000,82.000" stroke-width="4.223" stroke="black" fill="none" stroke-linecap="round"></path><path d="M 199.000,82.000 C 203.228,82.161 199.691,83.613 207.000,81.000" stroke-width="4.814" stroke="black" fill="none" stroke-linecap="round"></path><path d="M 207.000,81.000 C 209.401,79.300 209.728,80.161 212.000,78.000" stroke-width="4.358" stroke="black" fill="none" stroke-linecap="round"></path><path d="M 212.000,78.000 C 214.551,77.113 214.401,76.800 217.000,76.000" stroke-width="4.202" stroke="black" fill="none" stroke-linecap="round"></path><path d="M 217.000,76.000 C 220.048,74.590 220.051,74.613 223.000,73.000" stroke-width="4.083" stroke="black" fill="none" stroke-linecap="round"></path><path d="M 223.000,73.000 C 226.613,71.177 226.548,71.090 230.000,69.000" stroke-width="3.892" stroke="black" fill="none" stroke-linecap="round"></path><path d="M 230.000,69.000 C 233.745,66.790 233.613,66.677 237.000,64.000" stroke-width="3.725" stroke="black" fill="none" stroke-linecap="round"></path><path d="M 237.000,64.000 C 240.716,60.695 240.745,60.790 244.000,57.000" stroke-width="3.604" stroke="black" fill="none" stroke-linecap="round"></path><path d="M 244.000,57.000 C 248.500,51.500 248.716,51.695 253.000,46.000" stroke-width="3.208" stroke="black" fill="none" stroke-linecap="round"></path><path d="M 253.000,46.000 C 257.781,40.708 257.500,40.500 262.000,35.000" stroke-width="3.106" stroke="black" fill="none" stroke-linecap="round"></path><path d="M 262.000,35.000 C 266.061,29.040 266.281,29.208 270.000,23.000" stroke-width="3.062" stroke="black" fill="none" stroke-linecap="round"></path><path d="M 270.000,23.000 C 273.385,17.422 273.561,17.540 277.000,12.000" stroke-width="3.088" stroke="black" fill="none" stroke-linecap="round"></path><path d="M 277.000,12.000 C 279.677,8.613 279.385,8.422 282.000,5.000" stroke-width="3.466" stroke="black" fill="none" stroke-linecap="round"></path><path d="M 282.000,5.000 C 287.325,-2.662 284.177,1.613 286.000,-2.000" stroke-width="4.173" stroke="black" fill="none" stroke-linecap="round"></path><path d="M 286.000,-2.000 C 280.000,3.500 283.325,-0.662 274.000,9.000" stroke-width="4.176" stroke="black" fill="none" stroke-linecap="round"></path><path d="M 274.000,9.000 C 267.870,14.365 268.000,14.500 262.000,20.000" stroke-width="3.097" stroke="black" fill="none" stroke-linecap="round"></path><path d="M 262.000,20.000 C 255.370,26.375 255.370,26.365 249.000,33.000" stroke-width="2.810" stroke="black" fill="none" stroke-linecap="round"></path><path d="M 249.000,33.000 C 243.091,39.588 242.870,39.375 237.000,46.000" stroke-width="2.829" stroke="black" fill="none" stroke-linecap="round"></path><path d="M 237.000,46.000 C 233.340,49.357 233.591,49.588 230.000,53.000" stroke-width="3.458" stroke="black" fill="none" stroke-linecap="round"></path><path d="M 230.000,53.000 C 224.621,57.483 227.840,55.357 226.000,58.000" stroke-width="3.875" stroke="black" fill="none" stroke-linecap="round"></path><path d="M 226.000,58.000 C 232.258,57.837 228.621,58.983 238.000,56.000" stroke-width="4.448" stroke="black" fill="none" stroke-linecap="round"></path><path d="M 238.000,56.000 C 244.437,52.854 244.758,53.837 251.000,50.000" stroke-width="3.370" stroke="black" fill="none" stroke-linecap="round"></path><path d="M 251.000,50.000 C 255.900,47.700 255.937,47.854 261.000,46.000" stroke-width="3.421" stroke="black" fill="none" stroke-linecap="round"></path><path d="M 261.000,46.000 C 266.507,44.526 266.400,44.200 272.000,43.000" stroke-width="3.383" stroke="black" fill="none" stroke-linecap="round"></path><path d="M 272.000,43.000 C 275.427,41.476 275.507,42.026 279.000,41.000" stroke-width="3.754" stroke="black" fill="none" stroke-linecap="round"></path><path d="M 279.000,41.000 C 287.000,39.078 282.927,40.476 287.000,41.000" stroke-width="4.280" stroke="black" fill="none" stroke-linecap="round"></path><path d="M 287.000,41.000 C 283.769,46.827 287.000,44.078 279.000,51.000" stroke-width="4.165" stroke="black" fill="none" stroke-linecap="round"></path><path d="M 279.000,51.000 C 270.992,56.488 271.769,57.327 263.000,62.000" stroke-width="2.878" stroke="black" fill="none" stroke-linecap="round"></path><path d="M 263.000,62.000 C 256.618,66.684 256.492,66.488 250.000,71.000" stroke-width="2.959" stroke="black" fill="none" stroke-linecap="round"></path><path d="M 250.000,71.000 C 244.791,73.706 245.118,74.184 240.000,77.000" stroke-width="3.213" stroke="black" fill="none" stroke-linecap="round"></path><path d="M 240.000,77.000 C 236.900,79.390 236.791,79.206 234.000,82.000" stroke-width="3.637" stroke="black" fill="none" stroke-linecap="round"></path><path d="M 234.000,82.000 C 228.503,85.728 231.900,83.890 230.000,86.000" stroke-width="4.404" stroke="black" fill="none" stroke-linecap="round"></path><path d="M 230.000,86.000 C 237.872,86.212 234.003,86.728 245.000,84.000" stroke-width="4.059" stroke="black" fill="none" stroke-linecap="round"></path><path d="M 245.000,84.000 C 252.234,80.903 252.372,81.712 259.000,77.000" stroke-width="3.196" stroke="black" fill="none" stroke-linecap="round"></path><path d="M 259.000,77.000 C 265.000,73.000 265.234,73.403 271.000,69.000" stroke-width="3.144" stroke="black" fill="none" stroke-linecap="round"></path><path d="M 271.000,69.000 C 275.500,66.000 275.500,66.000 280.000,63.000" stroke-width="3.344" stroke="black" fill="none" stroke-linecap="round"></path><path d="M 280.000,63.000 C 282.931,60.889 283.000,61.000 286.000,59.000" stroke-width="3.788" stroke="black" fill="none" stroke-linecap="round"></path><path d="M 286.000,59.000 C 293.654,55.218 289.431,56.889 293.000,55.000" stroke-width="3.754" stroke="black" fill="none" stroke-linecap="round"></path><path d="M 293.000,55.000 C 287.814,56.031 292.154,54.718 283.000,58.000" stroke-width="4.341" stroke="black" fill="none" stroke-linecap="round"></path><path d="M 283.000,58.000 C 277.133,61.301 276.814,60.531 271.000,64.000" stroke-width="3.357" stroke="black" fill="none" stroke-linecap="round"></path><path d="M 271.000,64.000 C 264.482,66.454 264.633,66.801 258.000,69.000" stroke-width="3.104" stroke="black" fill="none" stroke-linecap="round"></path><path d="M 258.000,69.000 C 250.739,72.732 250.482,71.954 243.000,75.000" stroke-width="2.884" stroke="black" fill="none" stroke-linecap="round"></path><path d="M 243.000,75.000 C 221.561,80.755 221.739,81.232 200.000,86.000" stroke-width="2.558" stroke="black" fill="none" stroke-linecap="round"></path><path d="M 200.000,86.000 C 184.681,90.573 184.561,89.755 169.000,93.000" stroke-width="2.793" stroke="black" fill="none" stroke-linecap="round"></path><path d="M 169.000,93.000 C 142.555,96.983 142.681,97.073 116.000,99.000" stroke-width="1.546" stroke="black" fill="none" stroke-linecap="round"></path><path d="M 116.000,99.000 C 102.995,99.255 103.055,99.983 90.000,99.000" stroke-width="2.046" stroke="black" fill="none" stroke-linecap="round"></path><path d="M 90.000,99.000 C 77.280,99.869 77.495,98.755 65.000,98.000" stroke-width="2.202" stroke="black" fill="none" stroke-linecap="round"></path><path d="M 65.000,98.000 C 54.310,95.535 54.280,96.369 44.000,92.000" stroke-width="2.378" stroke="black" fill="none" stroke-linecap="round"></path><path d="M 44.000,92.000 C 36.640,89.622 36.810,89.535 30.000,86.000" stroke-width="2.762" stroke="black" fill="none" stroke-linecap="round"></path><path d="M 30.000,86.000 C 25.063,83.675 25.640,83.622 22.000,80.000" stroke-width="3.217" stroke="black" fill="none" stroke-linecap="round"></path><path d="M 22.000,80.000 C 19.359,76.883 20.063,77.675 20.000,74.000" stroke-width="3.788" stroke="black" fill="none" stroke-linecap="round"></path><path d="M 20.000,74.000 C 21.389,66.611 21.359,67.883 26.000,62.000" stroke-width="3.313" stroke="black" fill="none" stroke-linecap="round"></path><path d="M 26.000,62.000 C 35.469,54.108 34.389,53.611 46.000,48.000" stroke-width="2.540" stroke="black" fill="none" stroke-linecap="round"></path><path d="M 46.000,48.000 C 60.558,39.434 60.469,39.608 76.000,33.000" stroke-width="1.986" stroke="black" fill="none" stroke-linecap="round"></path><path d="M 76.000,33.000 C 90.788,27.239 90.558,26.934 106.000,23.000" stroke-width="1.918" stroke="black" fill="none" stroke-linecap="round"></path><path d="M 106.000,23.000 C 121.312,18.172 121.288,18.739 137.000,16.000" stroke-width="2.045" stroke="black" fill="none" stroke-linecap="round"></path><path d="M 137.000,16.000 C 153.986,14.532 153.812,13.672 171.000,14.000" stroke-width="1.921" stroke="black" fill="none" stroke-linecap="round"></path><path d="M 171.000,14.000 C 186.028,13.413 185.986,13.532 201.000,14.000" stroke-width="1.999" stroke="black" fill="none" stroke-linecap="round"></path><path d="M 201.000,14.000 C 211.566,14.551 211.528,14.413 222.000,16.000" stroke-width="2.280" stroke="black" fill="none" stroke-linecap="round"></path><path d="M 222.000,16.000 C 229.864,16.621 229.566,17.051 237.000,19.000" stroke-width="2.667" stroke="black" fill="none" stroke-linecap="round"></path><path d="M 237.000,19.000 C 245.104,21.353 240.364,20.121 243.000,23.000" stroke-width="3.451" stroke="black" fill="none" stroke-linecap="round"></path><path d="M 243.000,23.000 C 229.056,31.503 233.604,30.353 214.000,37.000" stroke-width="3.005" stroke="black" fill="none" stroke-linecap="round"></path><path d="M 214.000,37.000 C 197.137,42.105 197.556,43.003 180.000,46.000" stroke-width="2.076" stroke="black" fill="none" stroke-linecap="round"></path><path d="M 180.000,46.000 C 163.991,48.954 164.137,49.605 148.000,52.000" stroke-width="1.971" stroke="black" fill="none" stroke-linecap="round"></path><path d="M 148.000,52.000 C 132.527,55.148 132.491,54.954 117.000,58.000" stroke-width="1.969" stroke="black" fill="none" stroke-linecap="round"></path><path d="M 117.000,58.000 C 108.016,59.613 108.027,59.648 99.000,61.000" stroke-width="2.388" stroke="black" fill="none" stroke-linecap="round"></path><path d="M 288.000,68.000 C 292.827,65.293 293.000,66.000 298.000,64.000" stroke-width="4.833" stroke="black" fill="none" stroke-linecap="round"></path><path d="M 298.000,64.000 C 302.993,63.417 302.827,62.793 308.000,63.000" stroke-width="3.845" stroke="black" fill="none" stroke-linecap="round"></path><path d="M 308.000,63.000 C 315.026,62.747 314.993,62.417 322.000,62.000" stroke-width="3.276" stroke="black" fill="none" stroke-linecap="round"></path><path d="M 322.000,62.000 C 329.038,61.211 329.026,61.247 336.000,60.000" stroke-width="3.130" stroke="black" fill="none" stroke-linecap="round"></path><path d="M 336.000,60.000 C 340.530,59.118 340.538,59.211 345.000,58.000" stroke-width="3.563" stroke="black" fill="none" stroke-linecap="round"></path><path d="M 345.000,58.000 C 352.735,55.265 348.530,57.118 352.000,56.000" stroke-width="3.770" stroke="black" fill="none" stroke-linecap="round"></path><path d="M 352.000,56.000 C 346.336,58.739 350.735,57.265 341.000,62.000" stroke-width="4.406" stroke="black" fill="none" stroke-linecap="round"></path><path d="M 341.000,62.000 C 336.980,64.020 337.336,64.239 334.000,67.000" stroke-width="3.968" stroke="black" fill="none" stroke-linecap="round"></path><path d="M 334.000,67.000 C 329.500,70.650 331.980,69.020 331.000,72.000" stroke-width="4.120" stroke="black" fill="none" stroke-linecap="round"></path><path d="M 331.000,72.000 C 337.569,76.735 334.500,75.150 344.000,76.000" stroke-width="4.339" stroke="black" fill="none" stroke-linecap="round"></path><path d="M 344.000,76.000 C 355.138,72.345 355.069,74.735 366.000,68.000" stroke-width="2.579" stroke="black" fill="none" stroke-linecap="round"></path><path d="M 366.000,68.000 C 377.462,62.910 377.638,63.345 389.000,58.000" stroke-width="2.294" stroke="black" fill="none" stroke-linecap="round"></path><path d="M 389.000,58.000 C 400.948,52.872 400.962,52.910 413.000,48.000" stroke-width="2.245" stroke="black" fill="none" stroke-linecap="round"></path><path d="M 413.000,48.000 C 424.355,43.076 424.448,43.372 436.000,39.000" stroke-width="2.278" stroke="black" fill="none" stroke-linecap="round"></path><path d="M 436.000,39.000 C 444.431,36.222 444.355,36.076 453.000,34.000" stroke-width="2.592" stroke="black" fill="none" stroke-linecap="round"></path><path d="M 453.000,34.000 C 457.989,32.940 457.931,32.722 463.000,32.000" stroke-width="3.176" stroke="black" fill="none" stroke-linecap="round"></path><path d="M 463.000,32.000 C 470.542,29.629 465.989,31.440 469.000,31.000" stroke-width="3.796" stroke="black" fill="none" stroke-linecap="round"></path><path d="M 469.000,31.000 C 457.866,41.275 461.542,37.629 445.000,48.000" stroke-width="3.687" stroke="black" fill="none" stroke-linecap="round"></path><path d="M 445.000,48.000 C 435.183,51.911 435.866,52.775 425.000,54.000" stroke-width="2.919" stroke="black" fill="none" stroke-linecap="round"></path><path d="M 425.000,54.000 C 415.523,55.303 415.683,55.911 406.000,56.000" stroke-width="2.661" stroke="black" fill="none" stroke-linecap="round"></path><path d="M 406.000,56.000 C 395.000,56.511 395.023,56.803 384.000,57.000" stroke-width="2.448" stroke="black" fill="none" stroke-linecap="round"></path><path d="M 384.000,57.000 C 372.492,57.343 372.500,57.511 361.000,58.000" stroke-width="2.407" stroke="black" fill="none" stroke-linecap="round"></path><path d="M 361.000,58.000 C 337.451,58.990 337.492,59.343 314.000,61.000" stroke-width="2.313" stroke="black" fill="none" stroke-linecap="round"></path><path d="M 314.000,61.000 C 302.359,61.778 302.451,61.990 291.000,64.000" stroke-width="2.359" stroke="black" fill="none" stroke-linecap="round"></path><path d="M 291.000,64.000 C 279.414,66.703 279.359,66.278 268.000,70.000" stroke-width="2.291" stroke="black" fill="none" stroke-linecap="round"></path></svg>