<svg xmlns="http://www.w3.org/2000/svg" xmlns:xlink="http://www.w3.org/1999/xlink" viewBox="0 0 664 416" width="664" height="416"><path d="M 194.000,244.000 C 194.445,240.266 195.000,240.500 196.000,237.000" stroke-width="5.333" stroke="black" fill="none" stroke-linecap="round"></path><path d="M 196.000,237.000 C 198.571,228.791 199.445,229.766 204.000,223.000" stroke-width="3.347" stroke="black" fill="none" stroke-linecap="round"></path><path d="M 204.000,223.000 C 213.410,211.115 213.571,212.791 226.000,205.000" stroke-width="2.223" stroke="black" fill="none" stroke-linecap="round"></path><path d="M 226.000,205.000 C 249.623,195.180 248.410,194.115 274.000,189.000" stroke-width="1.532" stroke="black" fill="none" stroke-linecap="round"></path><path d="M 274.000,189.000 C 285.479,187.000 285.123,186.180 297.000,187.000" stroke-width="2.000" stroke="black" fill="none" stroke-linecap="round"></path><path d="M 297.000,187.000 C 319.570,187.275 319.479,187.000 342.000,189.000" stroke-width="1.601" stroke="black" fill="none" stroke-linecap="round"></path><path d="M 342.000,189.000 C 353.108,188.077 352.070,189.775 362.000,192.000" stroke-width="2.131" stroke="black" fill="none" stroke-linecap="round"></path><path d="M 362.000,192.000 C 370.821,196.806 370.108,195.577 376.000,204.000" stroke-width="2.499" stroke="black" fill="none" stroke-linecap="round"></path><path d="M 376.000,204.000 C 380.239,210.550 379.821,209.306 380.000,217.000" stroke-width="2.855" stroke="black" fill="none" stroke-linecap="round"></path><path d="M 380.000,217.000 C 378.982,224.793 379.739,224.050 375.000,231.000" stroke-width="2.897" stroke="black" fill="none" stroke-linecap="round"></path><path d="M 375.000,231.000 C 362.262,252.354 361.982,251.293 346.000,270.000" stroke-width="1.650" stroke="black" fill="none" stroke-linecap="round"></path><path d="M 346.000,270.000 C 337.052,276.081 338.762,277.854 328.000,282.000" stroke-width="2.152" stroke="black" fill="none" stroke-linecap="round"></path><path d="M 328.000,282.000 C 318.321,287.763 324.052,284.581 320.000,287.000" stroke-width="3.004" stroke="black" fill="none" stroke-linecap="round"></path><path d="M 320.000,287.000 C 329.434,281.873 323.821,285.263 339.000,277.000" stroke-width="3.249" stroke="black" fill="none" stroke-linecap="round"></path><path d="M 339.000,277.000 C 381.993,253.911 382.434,254.873 426.000,233.000" stroke-width="1.125" stroke="black" fill="none" stroke-linecap="round"></path><path d="M 426.000,233.000 C 452.814,221.021 452.493,220.411 480.000,210.000" stroke-width="1.200" stroke="black" fill="none" stroke-linecap="round"></path><path d="M 480.000,210.000 C 489.900,206.174 489.814,206.021 500.000,203.000" stroke-width="1.888" stroke="black" fill="none" stroke-linecap="round"></path><path d="M 500.000,203.000 C 507.431,200.645 507.400,200.674 515.000,199.000" stroke-width="2.475" stroke="black" fill="none" stroke-linecap="round"></path><path d="M 515.000,199.000 C 519.004,198.000 518.931,198.145 523.000,198.000" stroke-width="3.243" stroke="black" fill="none" stroke-linecap="round"></path><path d="M 523.000,198.000 C 526.594,198.148 526.504,198.000 530.000,199.000" stroke-width="4.118" stroke="black" fill="none" stroke-linecap="round"></path><path d="M 530.000,199.000 C 532.474,200.069 532.594,199.648 535.000,201.000" stroke-width="4.181" stroke="black" fill="none" stroke-linecap="round"></path><path d="M 535.000,201.000 C 541.837,204.443 541.974,203.569 549.000,206.000" stroke-width="3.207" stroke="black" fill="none" stroke-linecap="round"></path><path d="M 549.000,206.000 C 553.508,206.204 553.337,206.943 558.000,206.000" stroke-width="3.472" stroke="black" fill="none" stroke-linecap="round"></path></svg>