<svg xmlns="http://www.w3.org/2000/svg" xmlns:xlink="http://www.w3.org/1999/xlink" viewBox="0 0 500 276" width="500" height="276"><path d="M 129.000,127.000 C 125.116,125.029 125.000,125.500 121.000,124.000" stroke-width="4.824" stroke="black" fill="none" stroke-linecap="round"></path><path d="M 121.000,124.000 C 116.982,123.613 117.116,123.029 113.000,123.000" stroke-width="4.626" stroke="black" fill="none" stroke-linecap="round"></path><path d="M 113.000,123.000 C 110.429,122.747 110.482,122.613 108.000,122.000" stroke-width="4.413" stroke="black" fill="none" stroke-linecap="round"></path><path d="M 108.000,122.000 C 103.965,120.586 103.929,120.747 100.000,119.000" stroke-width="4.451" stroke="black" fill="none" stroke-linecap="round"></path><path d="M 100.000,119.000 C 93.000,117.878 96.465,117.586 93.000,116.000" stroke-width="4.584" stroke="black" fill="none" stroke-linecap="round"></path><path d="M 93.000,116.000 C 96.500,113.500 93.000,113.878 100.000,111.000" stroke-width="5.058" stroke="black" fill="none" stroke-linecap="round"></path><path d="M 100.000,111.000 C 103.760,108.817 103.500,108.500 107.000,106.000" stroke-width="4.053" stroke="black" fill="none" stroke-linecap="round"></path><path d="M 107.000,106.000 C 115.084,98.586 115.260,98.817 123.000,91.000" stroke-width="3.557" stroke="black" fill="none" stroke-linecap="round"></path><path d="M 123.000,91.000 C 126.882,86.875 127.084,87.086 131.000,83.000" stroke-width="3.369" stroke="black" fill="none" stroke-linecap="round"></path><path d="M 131.000,83.000 C 135.451,78.943 135.382,78.875 140.000,75.000" stroke-width="3.315" stroke="black" fill="none" stroke-linecap="round"></path><path d="M 140.000,75.000 C 142.978,72.473 142.951,72.443 146.000,70.000" stroke-width="3.627" stroke="black" fill="none" stroke-linecap="round"></path><path d="M 146.000,70.000 C 148.284,67.630 148.478,67.973 151.000,66.000" stroke-width="3.937" stroke="black" fill="none" stroke-linecap="round"></path><path d="M 151.000,66.000 C 154.591,63.061 153.284,64.630 156.000,64.000" stroke-width="4.165" stroke="black" fill="none" stroke-linecap="round"></path><path d="M 156.000,64.000 C 157.946,67.352 157.591,65.061 157.000,70.000" stroke-width="4.809" stroke="black" fill="none" stroke-linecap="round"></path><path d="M 157.000,70.000 C 153.866,73.905 155.446,74.352 151.000,78.000" stroke-width="3.846" stroke="black" fill="none" stroke-linecap="round"></path><path d="M 151.000,78.000 C 147.167,84.118 146.866,83.905 143.000,90.000" stroke-width="3.246" stroke="black" fill="none" stroke-linecap="round"></path><path d="M 143.000,90.000 C 138.538,96.029 138.667,96.118 134.000,102.000" stroke-width="3.061" stroke="black" fill="none" stroke-linecap="round"></path><path d="M 134.000,102.000 C 129.270,108.727 129.038,108.529 124.000,115.000" stroke-width="2.920" stroke="black" fill="none" stroke-linecap="round"></path><path d="M 124.000,115.000 C 118.376,120.891 118.770,121.227 113.000,127.000" stroke-width="2.826" stroke="black" fill="none" stroke-linecap="round"></path><path d="M 113.000,127.000 C 107.655,133.638 107.376,133.391 102.000,140.000" stroke-width="2.815" stroke="black" fill="none" stroke-linecap="round"></path><path d="M 102.000,140.000 C 95.672,147.166 95.655,147.138 89.000,154.000" stroke-width="2.696" stroke="black" fill="none" stroke-linecap="round"></path><path d="M 89.000,154.000 C 75.496,168.565 75.172,168.166 61.000,182.000" stroke-width="2.597" stroke="black" fill="none" stroke-linecap="round"></path><path d="M 61.000,182.000 C 54.685,187.265 54.996,187.565 48.000,192.000" stroke-width="2.778" stroke="black" fill="none" stroke-linecap="round"></path><path d="M 48.000,192.000 C 42.739,195.979 42.685,195.765 37.000,199.000" stroke-width="3.050" stroke="black" fill="none" stroke-linecap="round"></path><path d="M 37.000,199.000 C 33.089,200.832 33.239,200.979 29.000,202.000" stroke-width="3.457" stroke="black" fill="none" stroke-linecap="round"></path><path d="M 29.000,202.000 C 26.006,202.538 26.089,202.832 23.000,203.000" stroke-width="3.948" stroke="black" fill="none" stroke-linecap="round"></path><path d="M 23.000,203.000 C 18.324,205.162 19.506,203.538 16.000,204.000" stroke-width="4.403" stroke="black" fill="none" stroke-linecap="round"></path><path d="M 16.000,204.000 C 14.777,201.455 14.324,203.162 15.000,199.000" stroke-width="4.721" stroke="black" fill="none" stroke-linecap="round"></path><path d="M 15.000,199.000 C 15.321,195.611 15.277,195.955 17.000,193.000" stroke-width="4.268" stroke="black" fill="none" stroke-linecap="round"></path><path d="M 17.000,193.000 C 20.245,188.755 19.821,188.611 24.000,185.000" stroke-width="3.669" stroke="black" fill="none" stroke-linecap="round"></path><path d="M 24.000,185.000 C 34.051,174.469 34.245,174.755 45.000,165.000" stroke-width="3.169" stroke="black" fill="none" stroke-linecap="round"></path><path d="M 45.000,165.000 C 52.726,158.597 52.551,158.469 61.000,153.000" stroke-width="2.736" stroke="black" fill="none" stroke-linecap="round"></path><path d="M 61.000,153.000 C 69.956,147.426 69.726,147.097 79.000,142.000" stroke-width="2.632" stroke="black" fill="none" stroke-linecap="round"></path><path d="M 79.000,142.000 C 87.454,136.920 87.456,136.926 96.000,132.000" stroke-width="2.612" stroke="black" fill="none" stroke-linecap="round"></path><path d="M 96.000,132.000 C 103.952,127.413 103.954,127.420 112.000,123.000" stroke-width="2.676" stroke="black" fill="none" stroke-linecap="round"></path><path d="M 112.000,123.000 C 119.352,118.692 119.452,118.913 127.000,115.000" stroke-width="2.712" stroke="black" fill="none" stroke-linecap="round"></path><path d="M 127.000,115.000 C 133.898,111.732 133.852,111.692 141.000,109.000" stroke-width="2.885" stroke="black" fill="none" stroke-linecap="round"></path><path d="M 141.000,109.000 C 147.027,107.078 146.898,106.732 153.000,105.000" stroke-width="3.115" stroke="black" fill="none" stroke-linecap="round"></path><path d="M 153.000,105.000 C 158.451,102.850 158.527,103.078 164.000,101.000" stroke-width="3.263" stroke="black" fill="none" stroke-linecap="round"></path><path d="M 164.000,101.000 C 167.522,100.070 167.451,99.850 171.000,99.000" stroke-width="3.663" stroke="black" fill="none" stroke-linecap="round"></path><path d="M 171.000,99.000 C 177.772,97.193 174.022,98.070 177.000,97.000" stroke-width="4.344" stroke="black" fill="none" stroke-linecap="round"></path><path d="M 177.000,97.000 C 171.929,97.130 175.772,96.693 167.000,98.000" stroke-width="4.863" stroke="black" fill="none" stroke-linecap="round"></path><path d="M 167.000,98.000 C 163.421,98.778 163.429,98.630 160.000,100.000" stroke-width="4.177" stroke="black" fill="none" stroke-linecap="round"></path><path d="M 160.000,100.000 C 156.500,101.500 156.421,101.278 153.000,103.000" stroke-width="3.914" stroke="black" fill="none" stroke-linecap="round"></path><path d="M 153.000,103.000 C 149.260,104.099 149.500,104.500 146.000,106.000" stroke-width="3.841" stroke="black" fill="none" stroke-linecap="round"></path><path d="M 146.000,106.000 C 143.250,107.750 143.260,107.599 141.000,110.000" stroke-width="3.963" stroke="black" fill="none" stroke-linecap="round"></path><path d="M 141.000,110.000 C 138.881,112.413 138.750,112.250 137.000,115.000" stroke-width="4.048" stroke="black" fill="none" stroke-linecap="round"></path><path d="M 137.000,115.000 C 134.400,117.734 134.881,117.913 133.000,121.000" stroke-width="3.979" stroke="black" fill="none" stroke-linecap="round"></path><path d="M 133.000,121.000 C 129.235,126.573 131.400,124.734 131.000,129.000" stroke-width="4.312" stroke="black" fill="none" stroke-linecap="round"></path><path d="M 131.000,129.000 C 136.153,132.269 133.235,132.073 141.000,132.000" stroke-width="4.666" stroke="black" fill="none" stroke-linecap="round"></path><path d="M 141.000,132.000 C 145.125,130.215 145.153,131.769 149.000,128.000" stroke-width="4.253" stroke="black" fill="none" stroke-linecap="round"></path><path d="M 149.000,128.000 C 152.120,126.160 152.125,126.215 155.000,124.000" stroke-width="3.983" stroke="black" fill="none" stroke-linecap="round"></path><path d="M 155.000,124.000 C 158.100,121.610 158.120,121.660 161.000,119.000" stroke-width="3.892" stroke="black" fill="none" stroke-linecap="round"></path><path d="M 161.000,119.000 C 163.508,117.344 163.100,117.110 165.000,115.000" stroke-width="4.073" stroke="black" fill="none" stroke-linecap="round"></path><path d="M 165.000,115.000 C 169.000,110.500 167.008,111.844 168.000,108.000" stroke-width="4.409" stroke="black" fill="none" stroke-linecap="round"></path><path d="M 168.000,108.000 C 163.988,104.457 167.000,105.500 161.000,105.000" stroke-width="4.887" stroke="black" fill="none" stroke-linecap="round"></path><path d="M 161.000,105.000 C 158.709,107.314 158.488,105.457 157.000,110.000" stroke-width="4.778" stroke="black" fill="none" stroke-linecap="round"></path><path d="M 157.000,110.000 C 153.228,113.941 155.209,112.814 154.000,116.000" stroke-width="4.904" stroke="black" fill="none" stroke-linecap="round"></path><path d="M 154.000,116.000 C 157.110,118.542 154.728,117.941 160.000,118.000" stroke-width="5.168" stroke="black" fill="none" stroke-linecap="round"></path><path d="M 160.000,118.000 C 164.944,115.379 165.110,117.042 170.000,113.000" stroke-width="4.500" stroke="black" fill="none" stroke-linecap="round"></path><path d="M 170.000,113.000 C 173.758,111.945 173.444,111.379 177.000,110.000" stroke-width="3.994" stroke="black" fill="none" stroke-linecap="round"></path><path d="M 177.000,110.000 C 181.231,107.266 181.258,107.445 185.000,104.000" stroke-width="3.606" stroke="black" fill="none" stroke-linecap="round"></path><path d="M 185.000,104.000 C 188.500,100.500 188.731,100.766 192.000,97.000" stroke-width="3.570" stroke="black" fill="none" stroke-linecap="round"></path><path d="M 192.000,97.000 C 196.475,93.406 196.000,93.000 200.000,89.000" stroke-width="3.373" stroke="black" fill="none" stroke-linecap="round"></path><path d="M 200.000,89.000 C 208.130,78.090 208.475,78.406 216.000,67.000" stroke-width="3.253" stroke="black" fill="none" stroke-linecap="round"></path><path d="M 216.000,67.000 C 218.936,62.456 219.130,62.590 222.000,58.000" stroke-width="3.324" stroke="black" fill="none" stroke-linecap="round"></path><path d="M 222.000,58.000 C 224.847,54.690 224.436,54.456 227.000,51.000" stroke-width="3.551" stroke="black" fill="none" stroke-linecap="round"></path><path d="M 227.000,51.000 C 230.081,47.297 228.347,48.690 229.000,46.000" stroke-width="3.987" stroke="black" fill="none" stroke-linecap="round"></path><path d="M 229.000,46.000 C 224.851,43.812 227.581,44.297 222.000,45.000" stroke-width="4.699" stroke="black" fill="none" stroke-linecap="round"></path><path d="M 222.000,45.000 C 219.500,48.000 218.851,46.312 217.000,51.000" stroke-width="4.015" stroke="black" fill="none" stroke-linecap="round"></path><path d="M 217.000,51.000 C 214.112,53.736 214.500,54.000 212.000,57.000" stroke-width="3.848" stroke="black" fill="none" stroke-linecap="round"></path><path d="M 212.000,57.000 C 208.634,62.326 208.612,62.236 206.000,68.000" stroke-width="3.335" stroke="black" fill="none" stroke-linecap="round"></path><path d="M 206.000,68.000 C 203.015,76.747 202.134,76.326 199.000,85.000" stroke-width="2.928" stroke="black" fill="none" stroke-linecap="round"></path><path d="M 199.000,85.000 C 193.829,95.197 194.015,95.247 188.000,105.000" stroke-width="2.473" stroke="black" fill="none" stroke-linecap="round"></path><path d="M 188.000,105.000 C 182.690,113.632 182.829,113.697 177.000,122.000" stroke-width="2.592" stroke="black" fill="none" stroke-linecap="round"></path><path d="M 177.000,122.000 C 170.707,127.950 174.190,126.132 171.000,130.000" stroke-width="3.145" stroke="black" fill="none" stroke-linecap="round"></path><path d="M 171.000,130.000 C 174.977,130.713 171.207,131.450 178.000,129.000" stroke-width="4.285" stroke="black" fill="none" stroke-linecap="round"></path><path d="M 178.000,129.000 C 189.959,121.548 189.977,122.213 201.000,113.000" stroke-width="3.464" stroke="black" fill="none" stroke-linecap="round"></path><path d="M 201.000,113.000 C 204.868,108.857 205.459,109.548 209.000,105.000" stroke-width="3.403" stroke="black" fill="none" stroke-linecap="round"></path><path d="M 209.000,105.000 C 212.615,102.124 212.368,101.857 216.000,99.000" stroke-width="3.517" stroke="black" fill="none" stroke-linecap="round"></path><path d="M 216.000,99.000 C 221.487,92.744 219.115,96.124 222.000,93.000" stroke-width="4.120" stroke="black" fill="none" stroke-linecap="round"></path><path d="M 222.000,93.000 C 220.177,96.613 222.487,93.244 218.000,100.000" stroke-width="4.593" stroke="black" fill="none" stroke-linecap="round"></path><path d="M 218.000,100.000 C 215.448,103.464 215.677,103.613 213.000,107.000" stroke-width="3.896" stroke="black" fill="none" stroke-linecap="round"></path><path d="M 213.000,107.000 C 210.598,109.804 210.948,109.964 209.000,113.000" stroke-width="3.933" stroke="black" fill="none" stroke-linecap="round"></path><path d="M 209.000,113.000 C 205.631,118.609 207.598,115.804 207.000,119.000" stroke-width="4.493" stroke="black" fill="none" stroke-linecap="round"></path><path d="M 207.000,119.000 C 211.817,117.510 209.131,119.609 216.000,115.000" stroke-width="4.590" stroke="black" fill="none" stroke-linecap="round"></path><path d="M 216.000,115.000 C 218.710,112.056 219.317,113.010 222.000,110.000" stroke-width="4.102" stroke="black" fill="none" stroke-linecap="round"></path><path d="M 222.000,110.000 C 230.333,104.167 226.710,107.056 232.000,105.000" stroke-width="4.458" stroke="black" fill="none" stroke-linecap="round"></path><path d="M 232.000,105.000 C 230.215,109.125 233.333,105.667 228.000,113.000" stroke-width="4.799" stroke="black" fill="none" stroke-linecap="round"></path><path d="M 228.000,113.000 C 225.717,115.851 226.215,116.125 224.000,119.000" stroke-width="4.670" stroke="black" fill="none" stroke-linecap="round"></path><path d="M 224.000,119.000 C 221.061,123.061 222.717,121.351 222.000,124.000" stroke-width="5.207" stroke="black" fill="none" stroke-linecap="round"></path><path d="M 222.000,124.000 C 225.483,124.510 223.061,125.061 228.000,123.000" stroke-width="4.878" stroke="black" fill="none" stroke-linecap="round"></path><path d="M 228.000,123.000 C 232.429,118.918 232.983,120.010 237.000,115.000" stroke-width="3.577" stroke="black" fill="none" stroke-linecap="round"></path><path d="M 237.000,115.000 C 243.373,110.392 242.929,109.918 249.000,105.000" stroke-width="3.032" stroke="black" fill="none" stroke-linecap="round"></path><path d="M 249.000,105.000 C 255.481,98.898 255.373,98.892 261.000,92.000" stroke-width="2.770" stroke="black" fill="none" stroke-linecap="round"></path><path d="M 261.000,92.000 C 271.204,78.644 271.481,78.898 281.000,65.000" stroke-width="2.811" stroke="black" fill="none" stroke-linecap="round"></path><path d="M 281.000,65.000 C 285.435,59.239 285.204,59.144 289.000,53.000" stroke-width="2.970" stroke="black" fill="none" stroke-linecap="round"></path><path d="M 289.000,53.000 C 291.173,48.567 291.435,48.739 293.000,44.000" stroke-width="3.311" stroke="black" fill="none" stroke-linecap="round"></path><path d="M 293.000,44.000 C 295.935,38.467 294.173,41.067 295.000,38.000" stroke-width="3.864" stroke="black" fill="none" stroke-linecap="round"></path><path d="M 295.000,38.000 C 291.522,39.478 293.935,37.467 289.000,42.000" stroke-width="4.694" stroke="black" fill="none" stroke-linecap="round"></path><path d="M 289.000,42.000 C 285.099,47.082 284.522,46.478 281.000,52.000" stroke-width="3.612" stroke="black" fill="none" stroke-linecap="round"></path><path d="M 281.000,52.000 C 274.877,58.898 275.099,59.082 269.000,66.000" stroke-width="2.920" stroke="black" fill="none" stroke-linecap="round"></path><path d="M 269.000,66.000 C 262.855,73.389 262.877,73.398 257.000,81.000" stroke-width="2.655" stroke="black" fill="none" stroke-linecap="round"></path><path d="M 257.000,81.000 C 252.767,86.349 252.855,86.389 249.000,92.000" stroke-width="2.914" stroke="black" fill="none" stroke-linecap="round"></path><path d="M 249.000,92.000 C 246.799,95.403 246.767,95.349 245.000,99.000" stroke-width="3.532" stroke="black" fill="none" stroke-linecap="round"></path><path d="M 245.000,99.000 C 242.760,101.599 243.799,101.403 243.000,104.000" stroke-width="4.019" stroke="black" fill="none" stroke-linecap="round"></path><path d="M 243.000,104.000 C 243.907,108.535 243.260,106.599 246.000,109.000" stroke-width="4.843" stroke="black" fill="none" stroke-linecap="round"></path><path d="M 246.000,109.000 C 248.836,106.974 248.407,109.535 252.000,106.000" stroke-width="4.786" stroke="black" fill="none" stroke-linecap="round"></path><path d="M 252.000,106.000 C 255.484,105.270 255.336,104.974 259.000,105.000" stroke-width="4.130" stroke="black" fill="none" stroke-linecap="round"></path><path d="M 259.000,105.000 C 262.000,105.000 261.984,104.770 265.000,105.000" stroke-width="4.103" stroke="black" fill="none" stroke-linecap="round"></path><path d="M 265.000,105.000 C 268.000,105.000 268.000,105.000 271.000,105.000" stroke-width="4.094" stroke="black" fill="none" stroke-linecap="round"></path><path d="M 271.000,105.000 C 277.955,102.785 276.000,105.000 281.000,105.000" stroke-width="4.248" stroke="black" fill="none" stroke-linecap="round"></path><path d="M 281.000,105.000 C 284.069,110.044 283.455,106.785 282.000,113.000" stroke-width="4.715" stroke="black" fill="none" stroke-linecap="round"></path><path d="M 282.000,113.000 C 274.904,119.580 277.069,120.044 267.000,125.000" stroke-width="3.042" stroke="black" fill="none" stroke-linecap="round"></path><path d="M 267.000,125.000 C 257.333,131.627 257.404,131.580 247.000,137.000" stroke-width="2.539" stroke="black" fill="none" stroke-linecap="round"></path><path d="M 247.000,137.000 C 232.352,144.917 232.333,144.627 217.000,151.000" stroke-width="2.062" stroke="black" fill="none" stroke-linecap="round"></path><path d="M 217.000,151.000 C 205.731,155.565 205.852,155.417 194.000,158.000" stroke-width="2.243" stroke="black" fill="none" stroke-linecap="round"></path><path d="M 194.000,158.000 C 179.067,161.012 179.231,161.065 164.000,162.000" stroke-width="2.026" stroke="black" fill="none" stroke-linecap="round"></path><path d="M 164.000,162.000 C 148.426,163.046 148.567,163.012 133.000,162.000" stroke-width="2.002" stroke="black" fill="none" stroke-linecap="round"></path><path d="M 133.000,162.000 C 118.944,160.324 118.926,161.046 105.000,158.000" stroke-width="2.078" stroke="black" fill="none" stroke-linecap="round"></path><path d="M 105.000,158.000 C 94.952,156.212 94.944,156.324 85.000,154.000" stroke-width="2.339" stroke="black" fill="none" stroke-linecap="round"></path><path d="M 85.000,154.000 C 76.615,152.929 76.952,152.212 69.000,150.000" stroke-width="2.678" stroke="black" fill="none" stroke-linecap="round"></path><path d="M 69.000,150.000 C 62.358,148.317 63.615,147.929 59.000,144.000" stroke-width="3.107" stroke="black" fill="none" stroke-linecap="round"></path><path d="M 59.000,144.000 C 55.386,138.180 55.358,139.317 55.000,132.000" stroke-width="3.189" stroke="black" fill="none" stroke-linecap="round"></path><path d="M 55.000,132.000 C 53.427,121.131 54.386,122.180 57.000,112.000" stroke-width="2.735" stroke="black" fill="none" stroke-linecap="round"></path><path d="M 57.000,112.000 C 63.242,97.509 62.427,98.131 73.000,86.000" stroke-width="2.185" stroke="black" fill="none" stroke-linecap="round"></path><path d="M 73.000,86.000 C 83.709,74.917 82.742,74.509 96.000,66.000" stroke-width="2.063" stroke="black" fill="none" stroke-linecap="round"></path><path d="M 96.000,66.000 C 109.356,56.202 109.209,56.417 124.000,49.000" stroke-width="2.064" stroke="black" fill="none" stroke-linecap="round"></path><path d="M 124.000,49.000 C 139.775,39.758 139.856,41.202 157.000,36.000" stroke-width="1.992" stroke="black" fill="none" stroke-linecap="round"></path><path d="M 157.000,36.000 C 195.394,26.716 194.775,27.758 234.000,25.000" stroke-width="1.136" stroke="black" fill="none" stroke-linecap="round"></path><path d="M 234.000,25.000 C 263.272,26.118 262.894,23.716 292.000,30.000" stroke-width="1.662" stroke="black" fill="none" stroke-linecap="round"></path><path d="M 292.000,30.000 C 300.496,31.589 300.272,31.118 308.000,35.000" stroke-width="2.297" stroke="black" fill="none" stroke-linecap="round"></path><path d="M 308.000,35.000 C 315.946,37.406 311.496,36.589 314.000,40.000" stroke-width="3.167" stroke="black" fill="none" stroke-linecap="round"></path><path d="M 314.000,40.000 C 301.133,56.687 303.946,53.406 284.000,67.000" stroke-width="2.693" stroke="black" fill="none" stroke-linecap="round"></path><path d="M 284.000,67.000 C 248.401,86.854 249.633,87.687 211.000,102.000" stroke-width="1.848" stroke="black" fill="none" stroke-linecap="round"></path><path d="M 211.000,102.000 C 187.219,110.531 187.901,111.354 163.000,116.000" stroke-width="2.104" stroke="black" fill="none" stroke-linecap="round"></path><path d="M 163.000,116.000 C 155.976,116.332 156.219,117.531 149.000,116.000" stroke-width="3.156" stroke="black" fill="none" stroke-linecap="round"></path><path d="M 307.000,120.000 C 315.511,120.283 315.500,120.000 324.000,120.000" stroke-width="4.827" stroke="black" fill="none" stroke-linecap="round"></path><path d="M 324.000,120.000 C 330.566,119.953 330.511,119.783 337.000,119.000" stroke-width="3.546" stroke="black" fill="none" stroke-linecap="round"></path><path d="M 337.000,119.000 C 344.060,117.735 344.066,117.953 351.000,116.000" stroke-width="3.246" stroke="black" fill="none" stroke-linecap="round"></path><path d="M 351.000,116.000 C 356.050,114.650 356.060,114.735 361.000,113.000" stroke-width="3.355" stroke="black" fill="none" stroke-linecap="round"></path><path d="M 361.000,113.000 C 366.740,111.475 366.550,111.150 372.000,109.000" stroke-width="3.392" stroke="black" fill="none" stroke-linecap="round"></path><path d="M 372.000,109.000 C 378.446,105.000 375.240,107.475 378.000,105.000" stroke-width="4.179" stroke="black" fill="none" stroke-linecap="round"></path><path d="M 378.000,105.000 C 373.592,106.434 377.446,105.000 370.000,109.000" stroke-width="4.349" stroke="black" fill="none" stroke-linecap="round"></path><path d="M 370.000,109.000 C 366.667,111.740 366.592,111.434 364.000,115.000" stroke-width="3.913" stroke="black" fill="none" stroke-linecap="round"></path><path d="M 364.000,115.000 C 359.215,119.490 362.167,117.240 361.000,120.000" stroke-width="4.508" stroke="black" fill="none" stroke-linecap="round"></path><path d="M 361.000,120.000 C 369.777,120.827 366.215,121.490 378.000,119.000" stroke-width="3.918" stroke="black" fill="none" stroke-linecap="round"></path><path d="M 378.000,119.000 C 387.377,115.113 387.777,116.827 397.000,112.000" stroke-width="2.933" stroke="black" fill="none" stroke-linecap="round"></path><path d="M 397.000,112.000 C 404.500,110.000 404.377,109.613 412.000,108.000" stroke-width="2.993" stroke="black" fill="none" stroke-linecap="round"></path><path d="M 412.000,108.000 C 419.471,105.882 419.500,106.000 427.000,104.000" stroke-width="3.012" stroke="black" fill="none" stroke-linecap="round"></path><path d="M 427.000,104.000 C 431.493,102.322 431.471,102.882 436.000,102.000" stroke-width="3.430" stroke="black" fill="none" stroke-linecap="round"></path><path d="M 436.000,102.000 C 440.793,101.550 438.493,101.822 441.000,103.000" stroke-width="4.327" stroke="black" fill="none" stroke-linecap="round"></path><path d="M 441.000,103.000 C 438.935,105.959 441.293,105.050 437.000,109.000" stroke-width="4.002" stroke="black" fill="none" stroke-linecap="round"></path><path d="M 437.000,109.000 C 434.489,111.308 435.435,111.459 434.000,114.000" stroke-width="4.086" stroke="black" fill="none" stroke-linecap="round"></path><path d="M 434.000,114.000 C 432.575,119.272 433.489,116.808 435.000,120.000" stroke-width="4.556" stroke="black" fill="none" stroke-linecap="round"></path><path d="M 435.000,120.000 C 444.659,121.229 442.575,122.272 454.000,120.000" stroke-width="3.036" stroke="black" fill="none" stroke-linecap="round"></path><path d="M 454.000,120.000 C 463.557,117.698 463.659,118.729 473.000,115.000" stroke-width="2.785" stroke="black" fill="none" stroke-linecap="round"></path><path d="M 473.000,115.000 C 481.051,112.650 481.057,112.698 489.000,110.000" stroke-width="2.758" stroke="black" fill="none" stroke-linecap="round"></path><path d="M 489.000,110.000 C 494.548,108.120 494.551,108.150 500.000,106.000" stroke-width="3.084" stroke="black" fill="none" stroke-linecap="round"></path><path d="M 500.000,106.000 C 503.485,104.464 503.548,104.620 507.000,103.000" stroke-width="3.559" stroke="black" fill="none" stroke-linecap="round"></path><path d="M 507.000,103.000 C 512.000,100.760 509.485,101.964 512.000,101.000" stroke-width="4.366" stroke="black" fill="none" stroke-linecap="round"></path><path d="M 512.000,101.000 C 509.538,102.566 512.000,101.260 507.000,104.000" stroke-width="4.633" stroke="black" fill="none" stroke-linecap="round"></path><path d="M 507.000,104.000 C 498.290,109.628 498.038,109.066 489.000,114.000" stroke-width="3.780" stroke="black" fill="none" stroke-linecap="round"></path><path d="M 489.000,114.000 C 481.230,117.834 481.290,117.628 473.000,120.000" stroke-width="3.106" stroke="black" fill="none" stroke-linecap="round"></path><path d="M 473.000,120.000 C 462.044,122.282 462.230,122.834 451.000,124.000" stroke-width="2.532" stroke="black" fill="none" stroke-linecap="round"></path><path d="M 451.000,124.000 C 439.523,125.696 439.544,125.782 428.000,127.000" stroke-width="2.423" stroke="black" fill="none" stroke-linecap="round"></path><path d="M 428.000,127.000 C 413.010,128.610 413.023,128.696 398.000,130.000" stroke-width="2.132" stroke="black" fill="none" stroke-linecap="round"></path><path d="M 398.000,130.000 C 386.024,131.445 386.010,131.110 374.000,132.000" stroke-width="2.210" stroke="black" fill="none" stroke-linecap="round"></path><path d="M 374.000,132.000 C 353.501,132.620 353.524,132.945 333.000,133.000" stroke-width="2.463" stroke="black" fill="none" stroke-linecap="round"></path><path d="M 333.000,133.000 C 326.266,133.989 326.501,133.120 320.000,133.000" stroke-width="2.879" stroke="black" fill="none" stroke-linecap="round"></path><path d="M 320.000,133.000 C 316.558,132.047 316.766,132.489 314.000,130.000" stroke-width="3.561" stroke="black" fill="none" stroke-linecap="round"></path></svg>