<svg xmlns="http://www.w3.org/2000/svg" xmlns:xlink="http://www.w3.org/1999/xlink" viewBox="0 0 462 126" width="462" height="126"><path d="M 88.000,62.000 C 85.090,60.579 85.000,61.000 82.000,60.000" stroke-width="5.261" stroke="black" fill="none" stroke-linecap="round"></path><path d="M 82.000,60.000 C 76.798,60.199 77.090,59.079 72.000,59.000" stroke-width="4.559" stroke="black" fill="none" stroke-linecap="round"></path><path d="M 72.000,59.000 C 68.952,57.590 68.798,58.199 66.000,56.000" stroke-width="4.226" stroke="black" fill="none" stroke-linecap="round"></path><path d="M 66.000,56.000 C 62.600,53.800 62.452,54.090 59.000,52.000" stroke-width="3.930" stroke="black" fill="none" stroke-linecap="round"></path><path d="M 59.000,52.000 C 55.515,50.464 55.600,50.300 52.000,49.000" stroke-width="3.898" stroke="black" fill="none" stroke-linecap="round"></path><path d="M 52.000,49.000 C 49.403,48.201 49.515,47.964 47.000,47.000" stroke-width="4.152" stroke="black" fill="none" stroke-linecap="round"></path><path d="M 47.000,47.000 C 40.557,45.229 43.403,45.201 40.000,43.000" stroke-width="4.403" stroke="black" fill="none" stroke-linecap="round"></path><path d="M 40.000,43.000 C 42.204,40.491 39.557,41.229 45.000,39.000" stroke-width="4.891" stroke="black" fill="none" stroke-linecap="round"></path><path d="M 45.000,39.000 C 50.093,37.208 49.704,36.491 55.000,35.000" stroke-width="3.779" stroke="black" fill="none" stroke-linecap="round"></path><path d="M 55.000,35.000 C 60.000,32.500 60.093,32.708 65.000,30.000" stroke-width="3.500" stroke="black" fill="none" stroke-linecap="round"></path><path d="M 65.000,30.000 C 72.347,27.050 72.000,26.500 79.000,23.000" stroke-width="3.301" stroke="black" fill="none" stroke-linecap="round"></path><path d="M 79.000,23.000 C 83.162,18.977 83.847,20.050 88.000,16.000" stroke-width="3.347" stroke="black" fill="none" stroke-linecap="round"></path><path d="M 88.000,16.000 C 96.404,11.298 96.162,10.977 105.000,7.000" stroke-width="2.750" stroke="black" fill="none" stroke-linecap="round"></path><path d="M 105.000,7.000 C 111.784,2.919 108.404,5.298 112.000,4.000" stroke-width="3.848" stroke="black" fill="none" stroke-linecap="round"></path><path d="M 112.000,4.000 C 108.866,7.905 112.284,5.419 106.000,12.000" stroke-width="4.514" stroke="black" fill="none" stroke-linecap="round"></path><path d="M 106.000,12.000 C 102.281,18.208 101.866,17.905 98.000,24.000" stroke-width="3.299" stroke="black" fill="none" stroke-linecap="round"></path><path d="M 98.000,24.000 C 93.661,29.640 93.781,29.708 89.000,35.000" stroke-width="3.131" stroke="black" fill="none" stroke-linecap="round"></path><path d="M 89.000,35.000 C 83.488,40.989 83.661,41.140 78.000,47.000" stroke-width="2.883" stroke="black" fill="none" stroke-linecap="round"></path><path d="M 78.000,47.000 C 73.368,52.888 72.988,52.489 68.000,58.000" stroke-width="3.115" stroke="black" fill="none" stroke-linecap="round"></path><path d="M 68.000,58.000 C 62.549,62.561 62.868,62.888 57.000,67.000" stroke-width="2.953" stroke="black" fill="none" stroke-linecap="round"></path><path d="M 57.000,67.000 C 52.619,70.664 52.549,70.561 48.000,74.000" stroke-width="3.231" stroke="black" fill="none" stroke-linecap="round"></path><path d="M 48.000,74.000 C 43.584,77.135 43.619,77.164 39.000,80.000" stroke-width="3.318" stroke="black" fill="none" stroke-linecap="round"></path><path d="M 39.000,80.000 C 35.597,82.201 35.584,82.135 32.000,84.000" stroke-width="3.773" stroke="black" fill="none" stroke-linecap="round"></path><path d="M 32.000,84.000 C 29.500,85.000 29.597,85.201 27.000,86.000" stroke-width="4.109" stroke="black" fill="none" stroke-linecap="round"></path><path d="M 27.000,86.000 C 22.228,88.685 24.500,87.000 22.000,88.000" stroke-width="4.592" stroke="black" fill="none" stroke-linecap="round"></path><path d="M 22.000,88.000 C 23.558,84.953 21.728,87.185 26.000,83.000" stroke-width="5.010" stroke="black" fill="none" stroke-linecap="round"></path><path d="M 26.000,83.000 C 29.048,81.590 28.558,80.953 32.000,80.000" stroke-width="4.228" stroke="black" fill="none" stroke-linecap="round"></path><path d="M 32.000,80.000 C 35.361,77.712 35.548,78.090 39.000,76.000" stroke-width="3.931" stroke="black" fill="none" stroke-linecap="round"></path><path d="M 39.000,76.000 C 44.052,74.121 43.861,73.712 49.000,72.000" stroke-width="3.633" stroke="black" fill="none" stroke-linecap="round"></path><path d="M 49.000,72.000 C 54.546,69.597 54.552,69.621 60.000,67.000" stroke-width="3.385" stroke="black" fill="none" stroke-linecap="round"></path><path d="M 60.000,67.000 C 65.000,64.500 65.046,64.597 70.000,62.000" stroke-width="3.391" stroke="black" fill="none" stroke-linecap="round"></path><path d="M 70.000,62.000 C 75.000,59.500 75.000,59.500 80.000,57.000" stroke-width="3.335" stroke="black" fill="none" stroke-linecap="round"></path><path d="M 80.000,57.000 C 84.000,55.000 84.000,55.000 88.000,53.000" stroke-width="3.573" stroke="black" fill="none" stroke-linecap="round"></path><path d="M 88.000,53.000 C 92.000,51.000 92.000,51.000 96.000,49.000" stroke-width="3.651" stroke="black" fill="none" stroke-linecap="round"></path><path d="M 96.000,49.000 C 98.949,47.387 99.000,47.500 102.000,46.000" stroke-width="3.911" stroke="black" fill="none" stroke-linecap="round"></path><path d="M 102.000,46.000 C 107.414,45.036 104.449,44.887 107.000,44.000" stroke-width="4.157" stroke="black" fill="none" stroke-linecap="round"></path><path d="M 107.000,44.000 C 103.449,40.770 106.414,42.536 100.000,41.000" stroke-width="4.794" stroke="black" fill="none" stroke-linecap="round"></path><path d="M 100.000,41.000 C 95.788,42.669 95.949,41.270 92.000,45.000" stroke-width="3.897" stroke="black" fill="none" stroke-linecap="round"></path><path d="M 92.000,45.000 C 89.603,47.141 89.288,46.669 87.000,49.000" stroke-width="3.980" stroke="black" fill="none" stroke-linecap="round"></path><path d="M 87.000,49.000 C 81.724,51.276 82.603,52.141 78.000,55.000" stroke-width="4.134" stroke="black" fill="none" stroke-linecap="round"></path><path d="M 78.000,55.000 C 74.919,58.325 75.224,57.776 74.000,62.000" stroke-width="4.397" stroke="black" fill="none" stroke-linecap="round"></path><path d="M 74.000,62.000 C 73.541,65.298 73.419,64.325 75.000,67.000" stroke-width="4.732" stroke="black" fill="none" stroke-linecap="round"></path><path d="M 75.000,67.000 C 77.364,68.707 76.541,68.798 80.000,69.000" stroke-width="4.400" stroke="black" fill="none" stroke-linecap="round"></path><path d="M 80.000,69.000 C 86.694,69.946 86.364,69.707 93.000,69.000" stroke-width="4.163" stroke="black" fill="none" stroke-linecap="round"></path><path d="M 93.000,69.000 C 96.661,67.798 96.694,68.446 100.000,66.000" stroke-width="3.910" stroke="black" fill="none" stroke-linecap="round"></path><path d="M 100.000,66.000 C 103.094,64.131 103.161,64.298 106.000,62.000" stroke-width="3.938" stroke="black" fill="none" stroke-linecap="round"></path><path d="M 106.000,62.000 C 114.017,57.293 110.594,58.631 115.000,55.000" stroke-width="4.105" stroke="black" fill="none" stroke-linecap="round"></path><path d="M 115.000,55.000 C 111.419,53.791 115.517,53.793 109.000,55.000" stroke-width="4.907" stroke="black" fill="none" stroke-linecap="round"></path><path d="M 109.000,55.000 C 106.630,57.284 106.419,56.291 105.000,60.000" stroke-width="4.768" stroke="black" fill="none" stroke-linecap="round"></path><path d="M 105.000,60.000 C 101.919,64.135 103.630,62.284 103.000,65.000" stroke-width="5.067" stroke="black" fill="none" stroke-linecap="round"></path><path d="M 103.000,65.000 C 106.551,64.739 104.419,66.135 110.000,64.000" stroke-width="4.969" stroke="black" fill="none" stroke-linecap="round"></path><path d="M 110.000,64.000 C 113.735,63.507 113.551,63.239 117.000,62.000" stroke-width="4.692" stroke="black" fill="none" stroke-linecap="round"></path><path d="M 117.000,62.000 C 119.967,59.950 120.235,60.507 123.000,58.000" stroke-width="4.639" stroke="black" fill="none" stroke-linecap="round"></path><path d="M 123.000,58.000 C 127.170,55.735 126.967,55.450 131.000,53.000" stroke-width="4.491" stroke="black" fill="none" stroke-linecap="round"></path><path d="M 131.000,53.000 C 133.907,50.379 134.170,50.735 137.000,48.000" stroke-width="3.968" stroke="black" fill="none" stroke-linecap="round"></path><path d="M 137.000,48.000 C 140.645,45.684 140.407,45.379 144.000,43.000" stroke-width="3.746" stroke="black" fill="none" stroke-linecap="round"></path><path d="M 144.000,43.000 C 148.075,39.583 148.145,39.684 152.000,36.000" stroke-width="4.108" stroke="black" fill="none" stroke-linecap="round"></path><path d="M 152.000,36.000 C 159.757,29.243 159.575,29.083 167.000,22.000" stroke-width="2.801" stroke="black" fill="none" stroke-linecap="round"></path><path d="M 167.000,22.000 C 169.390,18.900 169.757,19.243 172.000,16.000" stroke-width="3.463" stroke="black" fill="none" stroke-linecap="round"></path><path d="M 172.000,16.000 C 174.688,14.405 173.890,13.900 176.000,12.000" stroke-width="4.061" stroke="black" fill="none" stroke-linecap="round"></path><path d="M 176.000,12.000 C 179.275,6.784 177.688,8.905 178.000,5.000" stroke-width="4.460" stroke="black" fill="none" stroke-linecap="round"></path><path d="M 178.000,5.000 C 173.978,3.610 176.775,3.284 171.000,5.000" stroke-width="4.782" stroke="black" fill="none" stroke-linecap="round"></path><path d="M 171.000,5.000 C 167.000,8.500 166.478,7.110 163.000,12.000" stroke-width="3.774" stroke="black" fill="none" stroke-linecap="round"></path><path d="M 163.000,12.000 C 158.619,15.140 159.000,15.500 155.000,19.000" stroke-width="3.549" stroke="black" fill="none" stroke-linecap="round"></path><path d="M 155.000,19.000 C 151.500,23.500 151.119,23.140 148.000,28.000" stroke-width="3.360" stroke="black" fill="none" stroke-linecap="round"></path><path d="M 148.000,28.000 C 144.381,32.412 144.500,32.500 141.000,37.000" stroke-width="3.365" stroke="black" fill="none" stroke-linecap="round"></path><path d="M 141.000,37.000 C 137.446,41.963 137.381,41.912 134.000,47.000" stroke-width="3.241" stroke="black" fill="none" stroke-linecap="round"></path><path d="M 134.000,47.000 C 130.924,51.452 130.946,51.463 128.000,56.000" stroke-width="3.376" stroke="black" fill="none" stroke-linecap="round"></path><path d="M 128.000,56.000 C 123.715,60.266 126.424,58.452 125.000,61.000" stroke-width="3.906" stroke="black" fill="none" stroke-linecap="round"></path><path d="M 125.000,61.000 C 130.434,61.787 127.215,62.266 135.000,60.000" stroke-width="4.547" stroke="black" fill="none" stroke-linecap="round"></path><path d="M 135.000,60.000 C 141.431,55.882 141.934,57.287 148.000,52.000" stroke-width="3.310" stroke="black" fill="none" stroke-linecap="round"></path><path d="M 148.000,52.000 C 152.611,49.682 152.431,49.382 157.000,47.000" stroke-width="3.388" stroke="black" fill="none" stroke-linecap="round"></path><path d="M 157.000,47.000 C 161.305,43.641 161.611,44.182 166.000,41.000" stroke-width="3.366" stroke="black" fill="none" stroke-linecap="round"></path><path d="M 166.000,41.000 C 169.544,39.595 169.305,39.141 173.000,38.000" stroke-width="3.756" stroke="black" fill="none" stroke-linecap="round"></path><path d="M 173.000,38.000 C 179.193,34.033 176.044,36.595 179.000,35.000" stroke-width="4.355" stroke="black" fill="none" stroke-linecap="round"></path><path d="M 179.000,35.000 C 175.128,38.735 178.693,36.533 172.000,43.000" stroke-width="4.561" stroke="black" fill="none" stroke-linecap="round"></path><path d="M 172.000,43.000 C 170.031,46.518 169.628,46.235 168.000,50.000" stroke-width="4.012" stroke="black" fill="none" stroke-linecap="round"></path><path d="M 168.000,50.000 C 166.301,52.398 166.531,52.518 165.000,55.000" stroke-width="4.134" stroke="black" fill="none" stroke-linecap="round"></path><path d="M 165.000,55.000 C 161.166,59.776 163.301,58.398 162.000,62.000" stroke-width="4.447" stroke="black" fill="none" stroke-linecap="round"></path><path d="M 162.000,62.000 C 165.055,63.368 162.666,63.776 168.000,63.000" stroke-width="4.669" stroke="black" fill="none" stroke-linecap="round"></path><path d="M 168.000,63.000 C 173.276,62.126 173.055,62.368 178.000,60.000" stroke-width="3.833" stroke="black" fill="none" stroke-linecap="round"></path><path d="M 178.000,60.000 C 183.071,57.113 183.276,57.626 188.000,54.000" stroke-width="3.529" stroke="black" fill="none" stroke-linecap="round"></path><path d="M 188.000,54.000 C 192.371,50.777 192.571,51.113 197.000,48.000" stroke-width="3.465" stroke="black" fill="none" stroke-linecap="round"></path><path d="M 197.000,48.000 C 199.956,46.405 199.871,46.277 203.000,45.000" stroke-width="3.885" stroke="black" fill="none" stroke-linecap="round"></path><path d="M 203.000,45.000 C 210.525,40.775 206.456,43.405 210.000,42.000" stroke-width="4.341" stroke="black" fill="none" stroke-linecap="round"></path><path d="M 210.000,42.000 C 204.853,46.862 209.025,44.275 200.000,52.000" stroke-width="4.385" stroke="black" fill="none" stroke-linecap="round"></path><path d="M 200.000,52.000 C 196.432,55.943 196.353,55.862 193.000,60.000" stroke-width="3.694" stroke="black" fill="none" stroke-linecap="round"></path><path d="M 193.000,60.000 C 190.599,62.260 190.932,62.443 189.000,65.000" stroke-width="4.073" stroke="black" fill="none" stroke-linecap="round"></path><path d="M 189.000,65.000 C 184.065,70.945 187.099,68.260 186.000,72.000" stroke-width="3.939" stroke="black" fill="none" stroke-linecap="round"></path><path d="M 186.000,72.000 C 193.505,72.977 189.565,73.945 200.000,71.000" stroke-width="4.233" stroke="black" fill="none" stroke-linecap="round"></path><path d="M 200.000,71.000 C 204.429,67.887 205.005,69.477 209.000,65.000" stroke-width="3.578" stroke="black" fill="none" stroke-linecap="round"></path><path d="M 209.000,65.000 C 214.000,62.000 213.929,61.887 219.000,59.000" stroke-width="3.561" stroke="black" fill="none" stroke-linecap="round"></path><path d="M 219.000,59.000 C 224.338,54.985 221.500,57.500 224.000,56.000" stroke-width="3.978" stroke="black" fill="none" stroke-linecap="round"></path><path d="M 224.000,56.000 C 220.283,60.349 223.338,57.985 217.000,65.000" stroke-width="4.659" stroke="black" fill="none" stroke-linecap="round"></path><path d="M 217.000,65.000 C 210.188,71.390 214.283,68.849 212.000,73.000" stroke-width="4.497" stroke="black" fill="none" stroke-linecap="round"></path><path d="M 212.000,73.000 C 219.471,74.896 214.688,75.390 226.000,73.000" stroke-width="4.425" stroke="black" fill="none" stroke-linecap="round"></path><path d="M 226.000,73.000 C 234.653,68.769 234.971,70.396 243.000,64.000" stroke-width="2.925" stroke="black" fill="none" stroke-linecap="round"></path><path d="M 243.000,64.000 C 252.071,58.613 252.153,58.769 261.000,53.000" stroke-width="2.557" stroke="black" fill="none" stroke-linecap="round"></path><path d="M 261.000,53.000 C 269.493,47.489 269.571,47.613 278.000,42.000" stroke-width="2.764" stroke="black" fill="none" stroke-linecap="round"></path><path d="M 278.000,42.000 C 285.201,37.785 284.993,37.489 292.000,33.000" stroke-width="2.818" stroke="black" fill="none" stroke-linecap="round"></path><path d="M 292.000,33.000 C 298.372,27.821 298.701,28.285 305.000,23.000" stroke-width="2.849" stroke="black" fill="none" stroke-linecap="round"></path><path d="M 305.000,23.000 C 309.500,20.000 309.372,19.821 314.000,17.000" stroke-width="3.237" stroke="black" fill="none" stroke-linecap="round"></path><path d="M 314.000,17.000 C 321.000,12.333 317.000,15.000 320.000,13.000" stroke-width="3.660" stroke="black" fill="none" stroke-linecap="round"></path><path d="M 320.000,13.000 C 313.761,16.679 318.000,14.333 308.000,21.000" stroke-width="4.446" stroke="black" fill="none" stroke-linecap="round"></path><path d="M 308.000,21.000 C 301.762,25.739 301.761,25.679 296.000,31.000" stroke-width="3.191" stroke="black" fill="none" stroke-linecap="round"></path><path d="M 296.000,31.000 C 290.375,36.380 290.262,36.239 285.000,42.000" stroke-width="2.946" stroke="black" fill="none" stroke-linecap="round"></path><path d="M 285.000,42.000 C 279.488,47.989 279.375,47.880 274.000,54.000" stroke-width="3.004" stroke="black" fill="none" stroke-linecap="round"></path><path d="M 274.000,54.000 C 268.956,59.461 268.988,59.489 264.000,65.000" stroke-width="2.942" stroke="black" fill="none" stroke-linecap="round"></path><path d="M 264.000,65.000 C 260.316,68.855 260.456,68.961 257.000,73.000" stroke-width="3.378" stroke="black" fill="none" stroke-linecap="round"></path><path d="M 257.000,73.000 C 254.384,76.424 254.316,76.355 252.000,80.000" stroke-width="3.620" stroke="black" fill="none" stroke-linecap="round"></path><path d="M 252.000,80.000 C 250.300,82.401 250.384,82.424 249.000,85.000" stroke-width="3.958" stroke="black" fill="none" stroke-linecap="round"></path><path d="M 249.000,85.000 C 245.240,89.497 247.800,87.401 247.000,90.000" stroke-width="4.534" stroke="black" fill="none" stroke-linecap="round"></path><path d="M 247.000,90.000 C 255.139,90.310 252.240,91.497 263.000,89.000" stroke-width="4.011" stroke="black" fill="none" stroke-linecap="round"></path><path d="M 263.000,89.000 C 270.158,87.444 270.139,87.810 277.000,85.000" stroke-width="3.200" stroke="black" fill="none" stroke-linecap="round"></path><path d="M 277.000,85.000 C 284.000,82.000 284.158,82.444 291.000,79.000" stroke-width="3.033" stroke="black" fill="none" stroke-linecap="round"></path><path d="M 291.000,79.000 C 298.041,76.093 298.000,76.000 305.000,73.000" stroke-width="3.043" stroke="black" fill="none" stroke-linecap="round"></path><path d="M 305.000,73.000 C 311.349,69.602 311.541,70.093 318.000,67.000" stroke-width="2.990" stroke="black" fill="none" stroke-linecap="round"></path><path d="M 318.000,67.000 C 322.972,65.397 322.849,65.102 328.000,64.000" stroke-width="3.320" stroke="black" fill="none" stroke-linecap="round"></path><path d="M 328.000,64.000 C 332.038,63.132 331.972,62.897 336.000,62.000" stroke-width="3.531" stroke="black" fill="none" stroke-linecap="round"></path><path d="M 336.000,62.000 C 338.955,60.830 339.038,61.132 342.000,60.000" stroke-width="3.950" stroke="black" fill="none" stroke-linecap="round"></path><path d="M 342.000,60.000 C 347.741,57.766 344.455,59.330 347.000,59.000" stroke-width="4.207" stroke="black" fill="none" stroke-linecap="round"></path><path d="M 347.000,59.000 C 341.651,64.663 344.741,62.766 336.000,70.000" stroke-width="4.220" stroke="black" fill="none" stroke-linecap="round"></path><path d="M 336.000,70.000 C 332.409,72.901 332.651,73.163 329.000,76.000" stroke-width="3.742" stroke="black" fill="none" stroke-linecap="round"></path><path d="M 329.000,76.000 C 323.308,80.000 326.909,77.901 325.000,80.000" stroke-width="4.022" stroke="black" fill="none" stroke-linecap="round"></path><path d="M 325.000,80.000 C 334.867,79.119 330.808,80.000 344.000,76.000" stroke-width="4.088" stroke="black" fill="none" stroke-linecap="round"></path><path d="M 344.000,76.000 C 355.051,71.110 355.367,72.119 366.000,66.000" stroke-width="2.669" stroke="black" fill="none" stroke-linecap="round"></path><path d="M 366.000,66.000 C 377.449,60.390 377.551,60.610 389.000,55.000" stroke-width="2.361" stroke="black" fill="none" stroke-linecap="round"></path><path d="M 389.000,55.000 C 399.734,49.292 399.949,49.890 411.000,45.000" stroke-width="2.276" stroke="black" fill="none" stroke-linecap="round"></path><path d="M 411.000,45.000 C 420.952,41.826 420.734,41.292 431.000,39.000" stroke-width="2.388" stroke="black" fill="none" stroke-linecap="round"></path><path d="M 431.000,39.000 C 436.946,37.211 436.952,37.326 443.000,36.000" stroke-width="2.888" stroke="black" fill="none" stroke-linecap="round"></path><path d="M 443.000,36.000 C 449.885,33.885 446.946,35.211 451.000,35.000" stroke-width="3.557" stroke="black" fill="none" stroke-linecap="round"></path><path d="M 451.000,35.000 C 449.721,38.560 451.885,35.885 447.000,40.000" stroke-width="4.520" stroke="black" fill="none" stroke-linecap="round"></path><path d="M 447.000,40.000 C 440.474,41.919 441.221,43.060 434.000,44.000" stroke-width="3.372" stroke="black" fill="none" stroke-linecap="round"></path><path d="M 434.000,44.000 C 426.656,47.086 426.474,46.419 419.000,49.000" stroke-width="2.973" stroke="black" fill="none" stroke-linecap="round"></path><path d="M 419.000,49.000 C 406.579,51.978 406.656,52.086 394.000,54.000" stroke-width="2.427" stroke="black" fill="none" stroke-linecap="round"></path><path d="M 394.000,54.000 C 378.536,56.327 378.579,56.478 363.000,58.000" stroke-width="2.097" stroke="black" fill="none" stroke-linecap="round"></path><path d="M 363.000,58.000 C 346.032,60.054 346.036,59.827 329.000,61.000" stroke-width="2.084" stroke="black" fill="none" stroke-linecap="round"></path><path d="M 329.000,61.000 C 309.991,61.270 310.032,62.054 291.000,62.000" stroke-width="1.829" stroke="black" fill="none" stroke-linecap="round"></path><path d="M 291.000,62.000 C 271.001,63.012 270.991,62.770 251.000,64.000" stroke-width="1.719" stroke="black" fill="none" stroke-linecap="round"></path><path d="M 251.000,64.000 C 230.482,64.720 230.501,65.012 210.000,66.000" stroke-width="1.618" stroke="black" fill="none" stroke-linecap="round"></path><path d="M 210.000,66.000 C 190.497,67.461 190.482,67.220 171.000,69.000" stroke-width="1.628" stroke="black" fill="none" stroke-linecap="round"></path><path d="M 171.000,69.000 C 152.425,69.864 152.497,70.461 134.000,72.000" stroke-width="1.769" stroke="black" fill="none" stroke-linecap="round"></path><path d="M 134.000,72.000 C 117.989,74.430 117.925,73.864 102.000,77.000" stroke-width="1.883" stroke="black" fill="none" stroke-linecap="round"></path><path d="M 102.000,77.000 C 89.992,78.953 89.989,78.930 78.000,81.000" stroke-width="2.114" stroke="black" fill="none" stroke-linecap="round"></path><path d="M 78.000,81.000 C 69.506,82.533 69.492,82.453 61.000,84.000" stroke-width="2.546" stroke="black" fill="none" stroke-linecap="round"></path><path d="M 61.000,84.000 C 55.030,85.365 55.006,85.033 49.000,86.000" stroke-width="3.018" stroke="black" fill="none" stroke-linecap="round"></path><path d="M 49.000,86.000 C 45.482,85.751 45.530,86.365 42.000,86.000" stroke-width="3.635" stroke="black" fill="none" stroke-linecap="round"></path></svg>