<svg xmlns="http://www.w3.org/2000/svg" xmlns:xlink="http://www.w3.org/1999/xlink" viewBox="0 0 664 416" width="664" height="416"><path d="M 35.000,184.000 C 33.668,187.435 34.000,187.500 33.000,191.000" stroke-width="5.427" stroke="black" fill="none" stroke-linecap="round"></path><path d="M 33.000,191.000 C 32.251,195.486 32.168,195.435 32.000,200.000" stroke-width="4.065" stroke="black" fill="none" stroke-linecap="round"></path><path d="M 32.000,200.000 C 32.000,204.500 31.751,204.486 32.000,209.000" stroke-width="4.307" stroke="black" fill="none" stroke-linecap="round"></path><path d="M 29.000,195.000 C 34.007,195.200 34.000,195.000 39.000,195.000" stroke-width="5.373" stroke="black" fill="none" stroke-linecap="round"></path><path d="M 39.000,195.000 C 46.514,194.651 46.507,194.700 54.000,194.000" stroke-width="3.365" stroke="black" fill="none" stroke-linecap="round"></path><path d="M 54.000,194.000 C 57.984,193.236 58.014,193.651 62.000,193.000" stroke-width="3.668" stroke="black" fill="none" stroke-linecap="round"></path><path d="M 62.000,193.000 C 66.500,193.000 66.484,192.736 71.000,193.000" stroke-width="4.164" stroke="black" fill="none" stroke-linecap="round"></path><path d="M 75.000,162.000 C 75.602,167.584 75.000,167.500 75.000,173.000" stroke-width="5.211" stroke="black" fill="none" stroke-linecap="round"></path><path d="M 75.000,173.000 C 73.565,176.421 74.602,176.584 73.000,180.000" stroke-width="4.191" stroke="black" fill="none" stroke-linecap="round"></path><path d="M 73.000,180.000 C 72.703,186.029 72.065,185.921 72.000,192.000" stroke-width="3.519" stroke="black" fill="none" stroke-linecap="round"></path><path d="M 72.000,192.000 C 71.387,194.482 71.703,194.529 71.000,197.000" stroke-width="4.048" stroke="black" fill="none" stroke-linecap="round"></path><path d="M 71.000,197.000 C 70.570,201.010 70.387,200.982 70.000,205.000" stroke-width="4.350" stroke="black" fill="none" stroke-linecap="round"></path><path d="M 70.000,205.000 C 69.683,208.041 69.570,208.010 69.000,211.000" stroke-width="4.788" stroke="black" fill="none" stroke-linecap="round"></path><path d="M 69.000,211.000 C 67.882,214.471 68.183,214.541 67.000,218.000" stroke-width="4.661" stroke="black" fill="none" stroke-linecap="round"></path><path d="M 67.000,218.000 C 66.230,220.473 66.382,220.471 66.000,223.000" stroke-width="4.327" stroke="black" fill="none" stroke-linecap="round"></path><path d="M 127.000,195.000 C 124.460,198.975 124.500,199.000 122.000,203.000" stroke-width="5.447" stroke="black" fill="none" stroke-linecap="round"></path><path d="M 122.000,203.000 C 119.165,208.108 118.960,207.975 116.000,213.000" stroke-width="3.775" stroke="black" fill="none" stroke-linecap="round"></path><path d="M 116.000,213.000 C 113.448,216.464 113.665,216.608 111.000,220.000" stroke-width="3.693" stroke="black" fill="none" stroke-linecap="round"></path><path d="M 134.000,179.000 C 133.505,173.951 134.000,174.000 134.000,169.000" stroke-width="5.474" stroke="black" fill="none" stroke-linecap="round"></path><path d="M 134.000,169.000 C 134.541,163.864 134.505,163.951 136.000,159.000" stroke-width="3.938" stroke="black" fill="none" stroke-linecap="round"></path><path d="M 136.000,159.000 C 137.604,153.792 137.541,153.864 140.000,149.000" stroke-width="3.578" stroke="black" fill="none" stroke-linecap="round"></path><path d="M 347.000,120.000 C 344.117,118.199 344.000,118.500 341.000,117.000" stroke-width="5.346" stroke="black" fill="none" stroke-linecap="round"></path><path d="M 341.000,117.000 C 337.559,115.712 337.617,115.699 334.000,115.000" stroke-width="4.216" stroke="black" fill="none" stroke-linecap="round"></path><path d="M 334.000,115.000 C 330.017,114.000 330.059,114.212 326.000,114.000" stroke-width="3.927" stroke="black" fill="none" stroke-linecap="round"></path><path d="M 326.000,114.000 C 316.864,113.600 317.017,114.000 308.000,115.000" stroke-width="2.932" stroke="black" fill="none" stroke-linecap="round"></path><path d="M 308.000,115.000 C 297.842,116.993 297.864,116.600 288.000,120.000" stroke-width="2.583" stroke="black" fill="none" stroke-linecap="round"></path><path d="M 288.000,120.000 C 279.843,122.639 279.842,122.493 272.000,126.000" stroke-width="2.678" stroke="black" fill="none" stroke-linecap="round"></path><path d="M 272.000,126.000 C 265.666,128.459 265.843,128.639 260.000,132.000" stroke-width="2.988" stroke="black" fill="none" stroke-linecap="round"></path><path d="M 260.000,132.000 C 252.962,135.486 253.666,135.959 248.000,141.000" stroke-width="2.928" stroke="black" fill="none" stroke-linecap="round"></path><path d="M 248.000,141.000 C 239.458,150.930 239.462,150.486 233.000,162.000" stroke-width="2.268" stroke="black" fill="none" stroke-linecap="round"></path><path d="M 233.000,162.000 C 229.551,169.348 228.958,168.930 227.000,177.000" stroke-width="2.615" stroke="black" fill="none" stroke-linecap="round"></path><path d="M 227.000,177.000 C 224.021,185.907 224.051,185.848 222.000,195.000" stroke-width="2.660" stroke="black" fill="none" stroke-linecap="round"></path><path d="M 222.000,195.000 C 220.646,199.511 221.021,199.407 221.000,204.000" stroke-width="3.250" stroke="black" fill="none" stroke-linecap="round"></path><path d="M 221.000,204.000 C 222.596,218.574 222.146,218.511 225.000,233.000" stroke-width="2.250" stroke="black" fill="none" stroke-linecap="round"></path><path d="M 225.000,233.000 C 225.582,239.844 226.096,239.574 228.000,246.000" stroke-width="2.766" stroke="black" fill="none" stroke-linecap="round"></path><path d="M 228.000,246.000 C 231.556,253.778 231.082,253.844 236.000,261.000" stroke-width="2.674" stroke="black" fill="none" stroke-linecap="round"></path><path d="M 236.000,261.000 C 239.551,266.884 239.556,266.778 244.000,272.000" stroke-width="2.920" stroke="black" fill="none" stroke-linecap="round"></path><path d="M 244.000,272.000 C 249.316,278.920 249.551,278.384 256.000,284.000" stroke-width="2.846" stroke="black" fill="none" stroke-linecap="round"></path><path d="M 256.000,284.000 C 262.013,288.837 261.816,288.420 269.000,291.000" stroke-width="2.838" stroke="black" fill="none" stroke-linecap="round"></path><path d="M 269.000,291.000 C 283.355,295.202 283.013,295.337 298.000,297.000" stroke-width="2.172" stroke="black" fill="none" stroke-linecap="round"></path><path d="M 298.000,297.000 C 312.001,297.462 311.855,298.702 326.000,298.000" stroke-width="2.081" stroke="black" fill="none" stroke-linecap="round"></path><path d="M 326.000,298.000 C 337.996,299.000 338.001,298.462 350.000,299.000" stroke-width="2.196" stroke="black" fill="none" stroke-linecap="round"></path><path d="M 350.000,299.000 C 368.568,299.152 368.496,299.000 387.000,298.000" stroke-width="1.822" stroke="black" fill="none" stroke-linecap="round"></path><path d="M 387.000,298.000 C 392.815,297.994 392.568,297.652 398.000,296.000" stroke-width="2.696" stroke="black" fill="none" stroke-linecap="round"></path><path d="M 398.000,296.000 C 412.838,290.762 412.315,290.494 426.000,283.000" stroke-width="2.102" stroke="black" fill="none" stroke-linecap="round"></path><path d="M 426.000,283.000 C 431.546,278.050 432.338,279.262 437.000,273.000" stroke-width="2.561" stroke="black" fill="none" stroke-linecap="round"></path><path d="M 437.000,273.000 C 445.102,265.605 445.046,265.550 453.000,258.000" stroke-width="2.426" stroke="black" fill="none" stroke-linecap="round"></path><path d="M 453.000,258.000 C 459.136,253.022 458.602,252.605 464.000,247.000" stroke-width="2.812" stroke="black" fill="none" stroke-linecap="round"></path><path d="M 464.000,247.000 C 470.102,240.039 469.636,240.022 474.000,232.000" stroke-width="2.693" stroke="black" fill="none" stroke-linecap="round"></path><path d="M 474.000,232.000 C 477.875,223.207 478.102,223.539 480.000,214.000" stroke-width="2.668" stroke="black" fill="none" stroke-linecap="round"></path><path d="M 480.000,214.000 C 482.070,203.541 482.375,203.707 483.000,193.000" stroke-width="2.550" stroke="black" fill="none" stroke-linecap="round"></path><path d="M 483.000,193.000 C 483.000,186.500 483.570,186.541 483.000,180.000" stroke-width="2.914" stroke="black" fill="none" stroke-linecap="round"></path><path d="M 483.000,180.000 C 483.632,175.422 483.000,175.500 483.000,171.000" stroke-width="3.362" stroke="black" fill="none" stroke-linecap="round"></path><path d="M 483.000,171.000 C 482.488,164.530 482.132,164.922 480.000,159.000" stroke-width="3.287" stroke="black" fill="none" stroke-linecap="round"></path><path d="M 480.000,159.000 C 478.172,153.529 477.988,154.530 474.000,151.000" stroke-width="3.511" stroke="black" fill="none" stroke-linecap="round"></path><path d="M 474.000,151.000 C 460.854,143.988 461.672,143.529 447.000,139.000" stroke-width="2.198" stroke="black" fill="none" stroke-linecap="round"></path><path d="M 447.000,139.000 C 435.599,135.508 435.854,134.988 424.000,133.000" stroke-width="2.299" stroke="black" fill="none" stroke-linecap="round"></path><path d="M 424.000,133.000 C 417.009,131.935 417.099,131.508 410.000,131.000" stroke-width="2.740" stroke="black" fill="none" stroke-linecap="round"></path><path d="M 410.000,131.000 C 402.009,129.924 402.009,129.935 394.000,129.000" stroke-width="2.841" stroke="black" fill="none" stroke-linecap="round"></path><path d="M 394.000,129.000 C 389.006,128.000 389.009,128.424 384.000,128.000" stroke-width="3.339" stroke="black" fill="none" stroke-linecap="round"></path><path d="M 384.000,128.000 C 377.478,128.318 377.506,128.000 371.000,129.000" stroke-width="3.167" stroke="black" fill="none" stroke-linecap="round"></path><path d="M 371.000,129.000 C 368.004,129.526 367.978,129.318 365.000,130.000" stroke-width="3.753" stroke="black" fill="none" stroke-linecap="round"></path><path d="M 365.000,130.000 C 358.533,131.432 358.504,131.026 352.000,132.000" stroke-width="3.326" stroke="black" fill="none" stroke-linecap="round"></path><path d="M 281.000,193.000 C 281.536,197.192 282.000,197.000 283.000,201.000" stroke-width="5.063" stroke="black" fill="none" stroke-linecap="round"></path><path d="M 283.000,201.000 C 284.443,203.535 284.036,203.692 286.000,206.000" stroke-width="4.366" stroke="black" fill="none" stroke-linecap="round"></path><path d="M 286.000,206.000 C 290.315,213.129 290.443,213.035 295.000,220.000" stroke-width="3.100" stroke="black" fill="none" stroke-linecap="round"></path><path d="M 295.000,220.000 C 298.034,223.975 297.815,224.129 301.000,228.000" stroke-width="3.344" stroke="black" fill="none" stroke-linecap="round"></path><path d="M 301.000,228.000 C 304.530,233.934 305.034,233.475 309.000,239.000" stroke-width="3.188" stroke="black" fill="none" stroke-linecap="round"></path><path d="M 309.000,239.000 C 312.266,242.333 312.030,242.434 316.000,245.000" stroke-width="3.496" stroke="black" fill="none" stroke-linecap="round"></path><path d="M 316.000,245.000 C 319.361,247.288 319.266,247.333 323.000,249.000" stroke-width="3.714" stroke="black" fill="none" stroke-linecap="round"></path><path d="M 323.000,249.000 C 327.827,251.707 327.861,251.288 333.000,253.000" stroke-width="3.460" stroke="black" fill="none" stroke-linecap="round"></path><path d="M 333.000,253.000 C 337.990,254.000 337.827,254.207 343.000,254.000" stroke-width="3.457" stroke="black" fill="none" stroke-linecap="round"></path><path d="M 343.000,254.000 C 351.594,254.051 351.490,254.000 360.000,253.000" stroke-width="2.977" stroke="black" fill="none" stroke-linecap="round"></path><path d="M 360.000,253.000 C 363.550,252.150 363.594,252.551 367.000,251.000" stroke-width="3.591" stroke="black" fill="none" stroke-linecap="round"></path><path d="M 367.000,251.000 C 371.034,249.586 371.050,249.650 375.000,248.000" stroke-width="3.696" stroke="black" fill="none" stroke-linecap="round"></path><path d="M 375.000,248.000 C 385.989,243.473 386.034,243.586 397.000,239.000" stroke-width="2.634" stroke="black" fill="none" stroke-linecap="round"></path><path d="M 397.000,239.000 C 401.935,236.823 401.989,236.973 407.000,235.000" stroke-width="3.105" stroke="black" fill="none" stroke-linecap="round"></path><path d="M 407.000,235.000 C 414.576,232.700 414.435,232.323 422.000,230.000" stroke-width="2.969" stroke="black" fill="none" stroke-linecap="round"></path><path d="M 422.000,230.000 C 425.500,228.500 425.576,228.700 429.000,227.000" stroke-width="3.556" stroke="black" fill="none" stroke-linecap="round"></path><path d="M 429.000,227.000 C 433.399,226.601 432.500,225.500 436.000,224.000" stroke-width="3.731" stroke="black" fill="none" stroke-linecap="round"></path><path d="M 436.000,224.000 C 442.132,218.010 441.399,218.601 445.000,211.000" stroke-width="3.806" stroke="black" fill="none" stroke-linecap="round"></path><path d="M 445.000,211.000 C 445.000,206.500 446.632,207.010 445.000,202.000" stroke-width="3.715" stroke="black" fill="none" stroke-linecap="round"></path><path d="M 328.000,171.000 C 332.108,169.649 331.000,171.000 334.000,171.000" stroke-width="5.520" stroke="black" fill="none" stroke-linecap="round"></path><path d="M 334.000,171.000 C 335.933,174.134 335.608,172.149 335.000,176.000" stroke-width="5.355" stroke="black" fill="none" stroke-linecap="round"></path><path d="M 335.000,176.000 C 332.711,178.261 333.933,178.134 330.000,179.000" stroke-width="5.218" stroke="black" fill="none" stroke-linecap="round"></path><path d="M 388.000,181.000 C 385.754,176.929 387.000,177.000 386.000,173.000" stroke-width="5.437" stroke="black" fill="none" stroke-linecap="round"></path><path d="M 386.000,173.000 C 386.742,168.512 386.254,168.929 389.000,165.000" stroke-width="4.064" stroke="black" fill="none" stroke-linecap="round"></path><path d="M 389.000,165.000 C 392.150,159.285 391.242,161.512 395.000,159.000" stroke-width="4.378" stroke="black" fill="none" stroke-linecap="round"></path><path d="M 395.000,159.000 C 397.967,161.161 397.150,158.785 399.000,164.000" stroke-width="4.952" stroke="black" fill="none" stroke-linecap="round"></path><path d="M 399.000,164.000 C 399.708,167.167 399.967,166.661 399.000,170.000" stroke-width="4.831" stroke="black" fill="none" stroke-linecap="round"></path></svg>