<svg xmlns="http://www.w3.org/2000/svg" xmlns:xlink="http://www.w3.org/1999/xlink" viewBox="0 0 462 126" width="462" height="126"><path d="M 73.000,75.000 C 70.530,75.805 70.500,75.500 68.000,76.000" stroke-width="5.363" stroke="black" fill="none" stroke-linecap="round"></path><path d="M 68.000,76.000 C 63.989,76.222 64.030,76.305 60.000,76.000" stroke-width="4.728" stroke="black" fill="none" stroke-linecap="round"></path><path d="M 60.000,76.000 C 54.976,75.663 54.989,75.722 50.000,75.000" stroke-width="4.406" stroke="black" fill="none" stroke-linecap="round"></path><path d="M 50.000,75.000 C 47.406,74.802 47.476,74.663 45.000,74.000" stroke-width="4.307" stroke="black" fill="none" stroke-linecap="round"></path><path d="M 45.000,74.000 C 37.060,72.315 41.406,72.802 38.000,71.000" stroke-width="4.505" stroke="black" fill="none" stroke-linecap="round"></path><path d="M 38.000,71.000 C 43.870,68.393 39.560,68.815 50.000,67.000" stroke-width="4.890" stroke="black" fill="none" stroke-linecap="round"></path><path d="M 50.000,67.000 C 55.095,66.981 54.870,65.893 60.000,66.000" stroke-width="3.788" stroke="black" fill="none" stroke-linecap="round"></path><path d="M 60.000,66.000 C 65.000,64.500 65.095,64.981 70.000,63.000" stroke-width="3.626" stroke="black" fill="none" stroke-linecap="round"></path><path d="M 70.000,63.000 C 74.913,61.071 75.000,61.500 80.000,60.000" stroke-width="3.468" stroke="black" fill="none" stroke-linecap="round"></path><path d="M 80.000,60.000 C 84.551,59.785 84.413,59.071 89.000,59.000" stroke-width="3.814" stroke="black" fill="none" stroke-linecap="round"></path><path d="M 89.000,59.000 C 93.068,58.210 93.051,58.285 97.000,57.000" stroke-width="3.742" stroke="black" fill="none" stroke-linecap="round"></path><path d="M 97.000,57.000 C 102.925,54.075 99.568,56.210 102.000,55.000" stroke-width="4.098" stroke="black" fill="none" stroke-linecap="round"></path><path d="M 102.000,55.000 C 95.966,59.455 99.425,57.575 90.000,64.000" stroke-width="4.602" stroke="black" fill="none" stroke-linecap="round"></path><path d="M 90.000,64.000 C 85.797,67.971 85.466,67.455 81.000,71.000" stroke-width="3.662" stroke="black" fill="none" stroke-linecap="round"></path><path d="M 81.000,71.000 C 75.895,73.308 76.297,73.971 71.000,76.000" stroke-width="3.470" stroke="black" fill="none" stroke-linecap="round"></path><path d="M 71.000,76.000 C 66.016,79.027 65.895,78.808 61.000,82.000" stroke-width="3.250" stroke="black" fill="none" stroke-linecap="round"></path><path d="M 61.000,82.000 C 52.356,86.778 52.516,87.027 44.000,92.000" stroke-width="3.510" stroke="black" fill="none" stroke-linecap="round"></path><path d="M 44.000,92.000 C 40.576,94.616 40.356,94.278 37.000,97.000" stroke-width="3.612" stroke="black" fill="none" stroke-linecap="round"></path><path d="M 37.000,97.000 C 34.137,98.076 34.576,98.616 32.000,100.000" stroke-width="3.955" stroke="black" fill="none" stroke-linecap="round"></path><path d="M 32.000,100.000 C 26.270,105.027 29.137,102.576 27.000,106.000" stroke-width="4.353" stroke="black" fill="none" stroke-linecap="round"></path><path d="M 27.000,106.000 C 31.101,105.300 27.770,107.027 35.000,104.000" stroke-width="4.974" stroke="black" fill="none" stroke-linecap="round"></path><path d="M 35.000,104.000 C 38.598,102.701 38.601,102.800 42.000,101.000" stroke-width="4.158" stroke="black" fill="none" stroke-linecap="round"></path><path d="M 42.000,101.000 C 46.400,98.300 46.598,98.701 51.000,96.000" stroke-width="3.677" stroke="black" fill="none" stroke-linecap="round"></path><path d="M 51.000,96.000 C 55.462,93.911 55.400,93.800 60.000,92.000" stroke-width="3.595" stroke="black" fill="none" stroke-linecap="round"></path><path d="M 60.000,92.000 C 65.038,90.089 64.962,89.911 70.000,88.000" stroke-width="3.429" stroke="black" fill="none" stroke-linecap="round"></path><path d="M 70.000,88.000 C 74.489,85.974 74.538,86.089 79.000,84.000" stroke-width="3.521" stroke="black" fill="none" stroke-linecap="round"></path><path d="M 79.000,84.000 C 82.602,82.699 82.489,82.474 86.000,81.000" stroke-width="3.768" stroke="black" fill="none" stroke-linecap="round"></path><path d="M 86.000,81.000 C 88.435,79.381 88.602,79.699 91.000,78.000" stroke-width="4.009" stroke="black" fill="none" stroke-linecap="round"></path><path d="M 91.000,78.000 C 99.828,74.000 94.935,75.881 99.000,74.000" stroke-width="4.310" stroke="black" fill="none" stroke-linecap="round"></path><path d="M 99.000,74.000 C 92.585,75.208 97.828,74.000 87.000,78.000" stroke-width="4.689" stroke="black" fill="none" stroke-linecap="round"></path><path d="M 87.000,78.000 C 82.808,80.778 82.585,80.208 79.000,84.000" stroke-width="3.757" stroke="black" fill="none" stroke-linecap="round"></path><path d="M 79.000,84.000 C 76.103,86.196 76.308,86.278 74.000,89.000" stroke-width="3.950" stroke="black" fill="none" stroke-linecap="round"></path><path d="M 74.000,89.000 C 69.710,93.098 71.603,92.196 70.000,96.000" stroke-width="4.350" stroke="black" fill="none" stroke-linecap="round"></path><path d="M 70.000,96.000 C 72.238,98.448 70.210,98.098 75.000,99.000" stroke-width="4.642" stroke="black" fill="none" stroke-linecap="round"></path><path d="M 75.000,99.000 C 80.217,100.087 79.738,99.948 85.000,99.000" stroke-width="3.813" stroke="black" fill="none" stroke-linecap="round"></path><path d="M 85.000,99.000 C 91.040,96.591 91.217,97.587 97.000,94.000" stroke-width="3.352" stroke="black" fill="none" stroke-linecap="round"></path><path d="M 97.000,94.000 C 102.546,91.597 102.540,91.591 108.000,89.000" stroke-width="3.248" stroke="black" fill="none" stroke-linecap="round"></path><path d="M 108.000,89.000 C 113.000,86.500 113.046,86.597 118.000,84.000" stroke-width="3.292" stroke="black" fill="none" stroke-linecap="round"></path><path d="M 118.000,84.000 C 120.883,82.199 121.000,82.500 124.000,81.000" stroke-width="3.735" stroke="black" fill="none" stroke-linecap="round"></path><path d="M 124.000,81.000 C 130.327,77.654 127.383,79.699 131.000,79.000" stroke-width="4.321" stroke="black" fill="none" stroke-linecap="round"></path><path d="M 131.000,79.000 C 129.119,83.065 131.827,80.654 127.000,87.000" stroke-width="4.627" stroke="black" fill="none" stroke-linecap="round"></path><path d="M 127.000,87.000 C 125.500,89.500 125.619,89.565 124.000,92.000" stroke-width="4.262" stroke="black" fill="none" stroke-linecap="round"></path><path d="M 124.000,92.000 C 119.825,96.217 122.500,94.500 121.000,97.000" stroke-width="4.597" stroke="black" fill="none" stroke-linecap="round"></path><path d="M 121.000,97.000 C 125.712,97.305 122.825,98.217 130.000,96.000" stroke-width="4.467" stroke="black" fill="none" stroke-linecap="round"></path><path d="M 130.000,96.000 C 137.000,93.000 137.212,93.805 144.000,90.000" stroke-width="3.368" stroke="black" fill="none" stroke-linecap="round"></path><path d="M 144.000,90.000 C 151.000,87.000 151.000,87.000 158.000,84.000" stroke-width="3.012" stroke="black" fill="none" stroke-linecap="round"></path><path d="M 158.000,84.000 C 164.953,80.883 165.000,81.000 172.000,78.000" stroke-width="2.980" stroke="black" fill="none" stroke-linecap="round"></path><path d="M 172.000,78.000 C 175.929,76.253 175.953,76.383 180.000,75.000" stroke-width="3.558" stroke="black" fill="none" stroke-linecap="round"></path><path d="M 180.000,75.000 C 183.134,73.067 182.429,74.253 185.000,74.000" stroke-width="4.064" stroke="black" fill="none" stroke-linecap="round"></path><path d="M 185.000,74.000 C 188.224,76.541 187.134,75.067 188.000,79.000" stroke-width="4.700" stroke="black" fill="none" stroke-linecap="round"></path><path d="M 188.000,79.000 C 185.935,81.959 187.724,82.041 184.000,85.000" stroke-width="4.148" stroke="black" fill="none" stroke-linecap="round"></path><path d="M 184.000,85.000 C 182.199,87.362 182.435,87.459 181.000,90.000" stroke-width="4.176" stroke="black" fill="none" stroke-linecap="round"></path><path d="M 181.000,90.000 C 177.813,94.576 179.699,92.862 179.000,96.000" stroke-width="4.571" stroke="black" fill="none" stroke-linecap="round"></path><path d="M 179.000,96.000 C 182.581,96.622 180.313,97.576 186.000,96.000" stroke-width="4.193" stroke="black" fill="none" stroke-linecap="round"></path><path d="M 186.000,96.000 C 193.580,94.267 193.581,94.622 201.000,92.000" stroke-width="3.157" stroke="black" fill="none" stroke-linecap="round"></path><path d="M 201.000,92.000 C 211.451,88.345 211.580,88.767 222.000,85.000" stroke-width="2.621" stroke="black" fill="none" stroke-linecap="round"></path><path d="M 222.000,85.000 C 231.900,81.597 231.951,81.845 242.000,79.000" stroke-width="2.553" stroke="black" fill="none" stroke-linecap="round"></path><path d="M 242.000,79.000 C 249.446,77.119 249.400,77.097 257.000,76.000" stroke-width="2.770" stroke="black" fill="none" stroke-linecap="round"></path><path d="M 257.000,76.000 C 262.992,75.316 262.946,75.119 269.000,75.000" stroke-width="3.116" stroke="black" fill="none" stroke-linecap="round"></path><path d="M 269.000,75.000 C 272.681,74.234 272.492,74.816 276.000,75.000" stroke-width="3.634" stroke="black" fill="none" stroke-linecap="round"></path><path d="M 276.000,75.000 C 280.532,75.553 279.181,75.734 282.000,78.000" stroke-width="4.319" stroke="black" fill="none" stroke-linecap="round"></path><path d="M 282.000,78.000 C 282.289,81.529 283.532,80.553 282.000,85.000" stroke-width="4.127" stroke="black" fill="none" stroke-linecap="round"></path><path d="M 282.000,85.000 C 281.670,87.545 281.789,87.529 281.000,90.000" stroke-width="4.223" stroke="black" fill="none" stroke-linecap="round"></path><path d="M 281.000,90.000 C 277.357,94.905 280.170,93.045 279.000,96.000" stroke-width="4.559" stroke="black" fill="none" stroke-linecap="round"></path><path d="M 279.000,96.000 C 284.515,96.332 281.857,97.905 290.000,96.000" stroke-width="3.693" stroke="black" fill="none" stroke-linecap="round"></path><path d="M 290.000,96.000 C 301.098,95.659 301.015,95.332 312.000,94.000" stroke-width="2.649" stroke="black" fill="none" stroke-linecap="round"></path><path d="M 312.000,94.000 C 324.000,91.500 324.098,92.159 336.000,89.000" stroke-width="2.334" stroke="black" fill="none" stroke-linecap="round"></path><path d="M 336.000,89.000 C 347.971,86.353 348.000,86.500 360.000,84.000" stroke-width="2.254" stroke="black" fill="none" stroke-linecap="round"></path><path d="M 360.000,84.000 C 370.934,81.456 370.971,81.853 382.000,80.000" stroke-width="2.374" stroke="black" fill="none" stroke-linecap="round"></path><path d="M 382.000,80.000 C 389.992,79.250 389.934,78.956 398.000,79.000" stroke-width="2.663" stroke="black" fill="none" stroke-linecap="round"></path><path d="M 398.000,79.000 C 406.000,79.000 405.992,78.750 414.000,79.000" stroke-width="2.823" stroke="black" fill="none" stroke-linecap="round"></path><path d="M 414.000,79.000 C 419.500,79.000 419.500,79.000 425.000,79.000" stroke-width="3.213" stroke="black" fill="none" stroke-linecap="round"></path><path d="M 425.000,79.000 C 429.577,78.447 429.500,79.000 434.000,79.000" stroke-width="3.474" stroke="black" fill="none" stroke-linecap="round"></path><path d="M 434.000,79.000 C 442.046,79.954 437.577,79.447 441.000,81.000" stroke-width="4.197" stroke="black" fill="none" stroke-linecap="round"></path><path d="M 441.000,81.000 C 434.627,83.580 439.046,82.954 428.000,85.000" stroke-width="4.365" stroke="black" fill="none" stroke-linecap="round"></path><path d="M 428.000,85.000 C 420.498,85.987 420.627,86.580 413.000,87.000" stroke-width="3.290" stroke="black" fill="none" stroke-linecap="round"></path><path d="M 413.000,87.000 C 402.033,88.801 401.998,88.487 391.000,90.000" stroke-width="2.575" stroke="black" fill="none" stroke-linecap="round"></path><path d="M 391.000,90.000 C 379.010,91.142 379.033,91.301 367.000,92.000" stroke-width="2.335" stroke="black" fill="none" stroke-linecap="round"></path><path d="M 367.000,92.000 C 350.986,92.807 351.010,93.142 335.000,94.000" stroke-width="1.991" stroke="black" fill="none" stroke-linecap="round"></path><path d="M 335.000,94.000 C 317.508,95.599 317.486,95.307 300.000,97.000" stroke-width="1.824" stroke="black" fill="none" stroke-linecap="round"></path><path d="M 300.000,97.000 C 279.954,98.029 280.008,98.599 260.000,100.000" stroke-width="1.664" stroke="black" fill="none" stroke-linecap="round"></path><path d="M 260.000,100.000 C 239.500,102.500 239.454,102.029 219.000,105.000" stroke-width="1.598" stroke="black" fill="none" stroke-linecap="round"></path><path d="M 219.000,105.000 C 198.384,106.781 198.500,107.500 178.000,110.000" stroke-width="1.579" stroke="black" fill="none" stroke-linecap="round"></path><path d="M 178.000,110.000 C 160.270,112.614 160.384,112.781 143.000,117.000" stroke-width="1.689" stroke="black" fill="none" stroke-linecap="round"></path><path d="M 143.000,117.000 C 128.950,121.350 128.770,120.614 115.000,126.000" stroke-width="1.933" stroke="black" fill="none" stroke-linecap="round"></path></svg>