<svg xmlns="http://www.w3.org/2000/svg" xmlns:xlink="http://www.w3.org/1999/xlink" viewBox="0 0 664 416" width="664" height="416"><circle r="1.5" cx="468.5" cy="218" fill="black"></circle><path d="M 468.500,218.000 C 459.308,225.462 459.000,225.000 449.500,232.000" stroke-width="4.913" stroke="black" fill="none" stroke-linecap="round"></path><path d="M 449.500,232.000 C 439.724,238.423 439.808,238.462 429.500,244.000" stroke-width="2.725" stroke="black" fill="none" stroke-linecap="round"></path><path d="M 429.500,244.000 C 422.973,246.943 423.224,247.423 416.500,250.000" stroke-width="2.947" stroke="black" fill="none" stroke-linecap="round"></path><path d="M 416.500,250.000 C 404.748,255.045 404.973,255.443 393.500,261.000" stroke-width="2.356" stroke="black" fill="none" stroke-linecap="round"></path><path d="M 393.500,261.000 C 388.318,265.091 387.748,264.045 382.500,268.000" stroke-width="2.924" stroke="black" fill="none" stroke-linecap="round"></path><path d="M 382.500,268.000 C 368.219,275.112 368.318,275.091 353.500,281.000" stroke-width="2.109" stroke="black" fill="none" stroke-linecap="round"></path><path d="M 353.500,281.000 C 348.082,282.884 348.219,283.112 342.500,284.000" stroke-width="2.856" stroke="black" fill="none" stroke-linecap="round"></path><path d="M 342.500,284.000 C 333.057,286.225 333.082,285.884 323.500,287.000" stroke-width="2.700" stroke="black" fill="none" stroke-linecap="round"></path><path d="M 323.500,287.000 C 314.380,287.740 314.557,287.725 305.500,287.000" stroke-width="2.663" stroke="black" fill="none" stroke-linecap="round"></path><path d="M 305.500,287.000 C 301.870,286.975 302.380,286.740 299.500,285.000" stroke-width="3.529" stroke="black" fill="none" stroke-linecap="round"></path><path d="M 299.500,285.000 C 291.914,279.357 292.870,279.475 287.500,272.000" stroke-width="2.881" stroke="black" fill="none" stroke-linecap="round"></path><path d="M 287.500,272.000 C 283.788,265.983 284.414,266.857 284.500,260.000" stroke-width="3.079" stroke="black" fill="none" stroke-linecap="round"></path><path d="M 284.500,260.000 C 287.821,244.757 286.288,244.983 292.500,230.000" stroke-width="2.291" stroke="black" fill="none" stroke-linecap="round"></path><path d="M 292.500,230.000 C 292.634,222.097 294.321,224.257 297.500,219.000" stroke-width="2.908" stroke="black" fill="none" stroke-linecap="round"></path><path d="M 297.500,219.000 C 316.130,207.092 314.634,208.097 336.500,202.000" stroke-width="1.791" stroke="black" fill="none" stroke-linecap="round"></path><path d="M 336.500,202.000 C 358.973,199.386 358.130,196.592 381.500,198.000" stroke-width="1.554" stroke="black" fill="none" stroke-linecap="round"></path><path d="M 381.500,198.000 C 391.543,197.262 391.473,197.386 401.500,198.000" stroke-width="2.194" stroke="black" fill="none" stroke-linecap="round"></path><path d="M 401.500,198.000 C 418.733,199.019 418.543,199.262 435.500,202.000" stroke-width="1.896" stroke="black" fill="none" stroke-linecap="round"></path><path d="M 435.500,202.000 C 441.778,202.731 441.233,203.019 446.500,206.000" stroke-width="2.715" stroke="black" fill="none" stroke-linecap="round"></path><path d="M 446.500,206.000 C 455.081,212.230 454.778,211.731 461.500,220.000" stroke-width="2.535" stroke="black" fill="none" stroke-linecap="round"></path><path d="M 461.500,220.000 C 466.779,224.651 464.581,223.730 465.500,229.000" stroke-width="3.176" stroke="black" fill="none" stroke-linecap="round"></path><path d="M 465.500,229.000 C 461.598,244.203 461.779,241.651 451.500,254.000" stroke-width="2.333" stroke="black" fill="none" stroke-linecap="round"></path><path d="M 451.500,254.000 C 427.232,278.461 428.098,276.703 398.500,294.000" stroke-width="1.353" stroke="black" fill="none" stroke-linecap="round"></path><path d="M 398.500,294.000 C 376.240,301.650 378.232,304.961 353.500,307.000" stroke-width="1.407" stroke="black" fill="none" stroke-linecap="round"></path><path d="M 353.500,307.000 C 342.027,308.919 342.240,309.650 330.500,310.000" stroke-width="1.971" stroke="black" fill="none" stroke-linecap="round"></path><path d="M 330.500,310.000 C 325.980,310.280 326.027,310.419 321.500,310.000" stroke-width="2.919" stroke="black" fill="none" stroke-linecap="round"></path><path d="M 312.500,309.000 C 308.502,309.515 308.500,309.500 304.500,310.000" stroke-width="5.211" stroke="black" fill="none" stroke-linecap="round"></path><path d="M 304.500,310.000 C 292.025,311.778 292.002,311.515 279.500,313.000" stroke-width="2.647" stroke="black" fill="none" stroke-linecap="round"></path><path d="M 279.500,313.000 C 271.506,313.628 271.525,313.778 263.500,314.000" stroke-width="2.759" stroke="black" fill="none" stroke-linecap="round"></path><path d="M 263.500,314.000 C 250.003,314.662 250.006,314.628 236.500,315.000" stroke-width="2.320" stroke="black" fill="none" stroke-linecap="round"></path><path d="M 236.500,315.000 C 229.959,315.570 230.003,315.162 223.500,315.000" stroke-width="2.818" stroke="black" fill="none" stroke-linecap="round"></path><path d="M 223.500,315.000 C 212.837,314.193 212.959,314.070 202.500,312.000" stroke-width="2.589" stroke="black" fill="none" stroke-linecap="round"></path><path d="M 202.500,312.000 C 196.358,310.343 196.337,310.693 190.500,308.000" stroke-width="3.004" stroke="black" fill="none" stroke-linecap="round"></path><path d="M 190.500,308.000 C 185.881,306.817 186.358,306.343 182.500,304.000" stroke-width="3.451" stroke="black" fill="none" stroke-linecap="round"></path><path d="M 182.500,304.000 C 177.214,298.724 176.881,299.317 172.500,293.000" stroke-width="3.058" stroke="black" fill="none" stroke-linecap="round"></path><path d="M 172.500,293.000 C 169.043,290.472 170.214,290.224 168.500,287.000" stroke-width="3.632" stroke="black" fill="none" stroke-linecap="round"></path><path d="M 168.500,287.000 C 166.822,273.878 166.543,274.472 167.500,261.000" stroke-width="2.443" stroke="black" fill="none" stroke-linecap="round"></path><path d="M 167.500,261.000 C 167.481,254.283 167.822,254.878 170.500,249.000" stroke-width="2.960" stroke="black" fill="none" stroke-linecap="round"></path><path d="M 170.500,249.000 C 178.609,237.185 177.481,236.783 187.500,226.000" stroke-width="2.298" stroke="black" fill="none" stroke-linecap="round"></path><path d="M 187.500,226.000 C 194.336,217.846 194.109,217.685 201.500,210.000" stroke-width="2.435" stroke="black" fill="none" stroke-linecap="round"></path></svg>