<svg xmlns="http://www.w3.org/2000/svg" xmlns:xlink="http://www.w3.org/1999/xlink" viewBox="0 0 462 126" width="462" height="126"><path d="M 104.000,58.000 C 101.014,59.000 101.000,58.500 98.000,59.000" stroke-width="4.883" stroke="black" fill="none" stroke-linecap="round"></path><path d="M 98.000,59.000 C 93.435,58.832 93.514,59.000 89.000,58.000" stroke-width="4.787" stroke="black" fill="none" stroke-linecap="round"></path><path d="M 89.000,58.000 C 85.541,56.817 85.435,57.332 82.000,56.000" stroke-width="4.642" stroke="black" fill="none" stroke-linecap="round"></path><path d="M 82.000,56.000 C 76.207,56.657 79.041,55.317 76.000,55.000" stroke-width="4.701" stroke="black" fill="none" stroke-linecap="round"></path><path d="M 76.000,55.000 C 78.008,50.992 75.707,52.657 81.000,48.000" stroke-width="5.096" stroke="black" fill="none" stroke-linecap="round"></path><path d="M 81.000,48.000 C 84.000,46.000 83.508,45.492 87.000,44.000" stroke-width="4.235" stroke="black" fill="none" stroke-linecap="round"></path><path d="M 87.000,44.000 C 90.067,42.095 90.000,42.000 93.000,40.000" stroke-width="3.978" stroke="black" fill="none" stroke-linecap="round"></path><path d="M 93.000,40.000 C 96.933,36.905 97.067,37.095 101.000,34.000" stroke-width="3.602" stroke="black" fill="none" stroke-linecap="round"></path><path d="M 101.000,34.000 C 104.000,32.000 103.933,31.905 107.000,30.000" stroke-width="4.257" stroke="black" fill="none" stroke-linecap="round"></path><path d="M 107.000,30.000 C 109.959,27.935 110.000,28.000 113.000,26.000" stroke-width="4.037" stroke="black" fill="none" stroke-linecap="round"></path><path d="M 113.000,26.000 C 115.617,24.668 115.459,24.435 118.000,23.000" stroke-width="4.142" stroke="black" fill="none" stroke-linecap="round"></path><path d="M 118.000,23.000 C 120.383,20.832 120.617,21.168 123.000,19.000" stroke-width="4.103" stroke="black" fill="none" stroke-linecap="round"></path><path d="M 123.000,19.000 C 127.535,15.302 125.383,17.332 128.000,16.000" stroke-width="4.162" stroke="black" fill="none" stroke-linecap="round"></path><path d="M 128.000,16.000 C 127.047,19.394 128.535,16.802 125.000,22.000" stroke-width="4.793" stroke="black" fill="none" stroke-linecap="round"></path><path d="M 125.000,22.000 C 121.000,26.000 121.547,26.394 117.000,30.000" stroke-width="3.706" stroke="black" fill="none" stroke-linecap="round"></path><path d="M 117.000,30.000 C 111.500,35.500 111.500,35.500 106.000,41.000" stroke-width="3.132" stroke="black" fill="none" stroke-linecap="round"></path><path d="M 106.000,41.000 C 101.125,46.131 101.000,46.000 96.000,51.000" stroke-width="3.089" stroke="black" fill="none" stroke-linecap="round"></path><path d="M 96.000,51.000 C 90.875,55.369 91.125,55.631 86.000,60.000" stroke-width="3.124" stroke="black" fill="none" stroke-linecap="round"></path><path d="M 86.000,60.000 C 81.000,65.000 80.875,64.869 76.000,70.000" stroke-width="3.087" stroke="black" fill="none" stroke-linecap="round"></path><path d="M 76.000,70.000 C 70.631,75.638 70.500,75.500 65.000,81.000" stroke-width="2.980" stroke="black" fill="none" stroke-linecap="round"></path><path d="M 65.000,81.000 C 60.028,85.531 60.131,85.638 55.000,90.000" stroke-width="3.033" stroke="black" fill="none" stroke-linecap="round"></path><path d="M 55.000,90.000 C 51.265,93.872 51.028,93.531 47.000,97.000" stroke-width="3.320" stroke="black" fill="none" stroke-linecap="round"></path><path d="M 47.000,97.000 C 43.601,99.199 43.765,99.372 40.000,101.000" stroke-width="3.652" stroke="black" fill="none" stroke-linecap="round"></path><path d="M 40.000,101.000 C 35.657,103.545 35.601,103.199 31.000,105.000" stroke-width="3.588" stroke="black" fill="none" stroke-linecap="round"></path><path d="M 31.000,105.000 C 27.504,105.533 27.657,106.045 24.000,106.000" stroke-width="3.849" stroke="black" fill="none" stroke-linecap="round"></path><path d="M 24.000,106.000 C 18.998,108.199 20.004,106.533 16.000,107.000" stroke-width="4.312" stroke="black" fill="none" stroke-linecap="round"></path><path d="M 16.000,107.000 C 13.543,104.284 13.998,106.199 14.000,102.000" stroke-width="4.827" stroke="black" fill="none" stroke-linecap="round"></path><path d="M 14.000,102.000 C 15.648,99.116 14.543,99.284 18.000,97.000" stroke-width="4.283" stroke="black" fill="none" stroke-linecap="round"></path><path d="M 18.000,97.000 C 20.967,94.950 20.648,94.616 24.000,93.000" stroke-width="4.044" stroke="black" fill="none" stroke-linecap="round"></path><path d="M 24.000,93.000 C 27.936,90.391 27.967,90.450 32.000,88.000" stroke-width="3.676" stroke="black" fill="none" stroke-linecap="round"></path><path d="M 32.000,88.000 C 36.399,85.300 36.436,85.391 41.000,83.000" stroke-width="3.554" stroke="black" fill="none" stroke-linecap="round"></path><path d="M 41.000,83.000 C 46.551,80.606 46.399,80.300 52.000,78.000" stroke-width="3.363" stroke="black" fill="none" stroke-linecap="round"></path><path d="M 52.000,78.000 C 57.953,74.902 58.051,75.106 64.000,72.000" stroke-width="3.207" stroke="black" fill="none" stroke-linecap="round"></path><path d="M 64.000,72.000 C 70.483,68.962 70.453,68.902 77.000,66.000" stroke-width="3.098" stroke="black" fill="none" stroke-linecap="round"></path><path d="M 77.000,66.000 C 81.599,64.200 81.483,63.962 86.000,62.000" stroke-width="3.409" stroke="black" fill="none" stroke-linecap="round"></path><path d="M 86.000,62.000 C 91.401,58.800 91.599,59.200 97.000,56.000" stroke-width="3.227" stroke="black" fill="none" stroke-linecap="round"></path><path d="M 97.000,56.000 C 101.433,53.827 101.401,53.800 106.000,52.000" stroke-width="3.454" stroke="black" fill="none" stroke-linecap="round"></path><path d="M 106.000,52.000 C 109.029,51.080 108.933,50.827 112.000,50.000" stroke-width="3.882" stroke="black" fill="none" stroke-linecap="round"></path><path d="M 112.000,50.000 C 114.432,48.770 114.529,49.080 117.000,48.000" stroke-width="4.105" stroke="black" fill="none" stroke-linecap="round"></path><path d="M 117.000,48.000 C 122.581,47.000 119.432,47.270 122.000,47.000" stroke-width="4.763" stroke="black" fill="none" stroke-linecap="round"></path><path d="M 122.000,47.000 C 117.897,47.101 121.081,47.000 114.000,48.000" stroke-width="4.984" stroke="black" fill="none" stroke-linecap="round"></path><path d="M 114.000,48.000 C 111.401,48.800 111.397,48.601 109.000,50.000" stroke-width="4.415" stroke="black" fill="none" stroke-linecap="round"></path><path d="M 109.000,50.000 C 106.500,51.500 106.401,51.300 104.000,53.000" stroke-width="4.206" stroke="black" fill="none" stroke-linecap="round"></path><path d="M 104.000,53.000 C 101.137,54.076 101.500,54.500 99.000,56.000" stroke-width="4.606" stroke="black" fill="none" stroke-linecap="round"></path><path d="M 99.000,56.000 C 95.815,58.672 96.137,58.576 94.000,62.000" stroke-width="3.995" stroke="black" fill="none" stroke-linecap="round"></path><path d="M 94.000,62.000 C 91.884,65.438 92.815,64.172 93.000,67.000" stroke-width="4.605" stroke="black" fill="none" stroke-linecap="round"></path><path d="M 93.000,67.000 C 95.909,68.558 94.384,68.938 99.000,69.000" stroke-width="4.685" stroke="black" fill="none" stroke-linecap="round"></path><path d="M 99.000,69.000 C 103.000,69.000 102.909,69.558 107.000,69.000" stroke-width="3.989" stroke="black" fill="none" stroke-linecap="round"></path><path d="M 107.000,69.000 C 110.569,69.490 110.500,69.000 114.000,69.000" stroke-width="3.986" stroke="black" fill="none" stroke-linecap="round"></path><path d="M 114.000,69.000 C 117.733,68.524 117.569,68.490 121.000,67.000" stroke-width="3.952" stroke="black" fill="none" stroke-linecap="round"></path><path d="M 121.000,67.000 C 125.601,65.090 125.233,65.024 129.000,62.000" stroke-width="4.258" stroke="black" fill="none" stroke-linecap="round"></path><path d="M 129.000,62.000 C 132.867,58.735 131.101,60.090 132.000,57.000" stroke-width="4.611" stroke="black" fill="none" stroke-linecap="round"></path><path d="M 132.000,57.000 C 127.962,53.259 130.867,54.735 125.000,54.000" stroke-width="4.993" stroke="black" fill="none" stroke-linecap="round"></path><path d="M 125.000,54.000 C 122.290,56.851 121.962,54.759 120.000,60.000" stroke-width="4.653" stroke="black" fill="none" stroke-linecap="round"></path><path d="M 120.000,60.000 C 116.261,63.768 118.290,62.351 117.000,65.000" stroke-width="4.923" stroke="black" fill="none" stroke-linecap="round"></path><path d="M 117.000,65.000 C 120.021,65.248 117.761,66.268 123.000,65.000" stroke-width="5.044" stroke="black" fill="none" stroke-linecap="round"></path><path d="M 123.000,65.000 C 125.986,64.000 126.021,64.748 129.000,64.000" stroke-width="4.834" stroke="black" fill="none" stroke-linecap="round"></path><path d="M 129.000,64.000 C 133.897,66.026 133.486,64.000 138.000,65.000" stroke-width="5.194" stroke="black" fill="none" stroke-linecap="round"></path><path d="M 138.000,65.000 C 141.387,62.323 141.897,64.026 145.000,60.000" stroke-width="4.014" stroke="black" fill="none" stroke-linecap="round"></path><path d="M 145.000,60.000 C 148.734,58.333 148.387,57.823 152.000,56.000" stroke-width="3.818" stroke="black" fill="none" stroke-linecap="round"></path><path d="M 152.000,56.000 C 155.481,52.978 155.734,53.333 159.000,50.000" stroke-width="3.881" stroke="black" fill="none" stroke-linecap="round"></path><path d="M 159.000,50.000 C 162.000,47.500 161.981,47.478 165.000,45.000" stroke-width="3.810" stroke="black" fill="none" stroke-linecap="round"></path><path d="M 165.000,45.000 C 168.100,42.610 168.000,42.500 171.000,40.000" stroke-width="3.789" stroke="black" fill="none" stroke-linecap="round"></path><path d="M 171.000,40.000 C 172.889,37.876 173.100,38.110 175.000,36.000" stroke-width="4.081" stroke="black" fill="none" stroke-linecap="round"></path><path d="M 175.000,36.000 C 177.906,34.355 177.389,33.876 180.000,32.000" stroke-width="4.036" stroke="black" fill="none" stroke-linecap="round"></path><path d="M 180.000,32.000 C 181.619,29.565 181.906,29.855 183.000,27.000" stroke-width="4.142" stroke="black" fill="none" stroke-linecap="round"></path><path d="M 183.000,27.000 C 187.827,20.654 185.119,23.065 187.000,19.000" stroke-width="4.336" stroke="black" fill="none" stroke-linecap="round"></path><path d="M 187.000,19.000 C 182.959,19.028 186.327,17.654 180.000,21.000" stroke-width="4.990" stroke="black" fill="none" stroke-linecap="round"></path><path d="M 180.000,21.000 C 174.395,25.889 173.959,25.028 169.000,31.000" stroke-width="3.331" stroke="black" fill="none" stroke-linecap="round"></path><path d="M 169.000,31.000 C 164.735,34.766 164.895,34.889 161.000,39.000" stroke-width="3.363" stroke="black" fill="none" stroke-linecap="round"></path><path d="M 161.000,39.000 C 157.420,43.440 157.235,43.266 154.000,48.000" stroke-width="3.308" stroke="black" fill="none" stroke-linecap="round"></path><path d="M 154.000,48.000 C 151.384,51.424 151.420,51.440 149.000,55.000" stroke-width="3.546" stroke="black" fill="none" stroke-linecap="round"></path><path d="M 149.000,55.000 C 147.199,57.362 147.384,57.424 146.000,60.000" stroke-width="3.931" stroke="black" fill="none" stroke-linecap="round"></path><path d="M 146.000,60.000 C 142.455,65.034 144.699,62.862 144.000,66.000" stroke-width="4.452" stroke="black" fill="none" stroke-linecap="round"></path><path d="M 144.000,66.000 C 149.420,66.616 146.455,67.534 154.000,65.000" stroke-width="4.751" stroke="black" fill="none" stroke-linecap="round"></path><path d="M 154.000,65.000 C 157.387,62.323 157.920,63.616 161.000,60.000" stroke-width="3.929" stroke="black" fill="none" stroke-linecap="round"></path><path d="M 161.000,60.000 C 164.613,58.177 164.387,57.823 168.000,56.000" stroke-width="3.849" stroke="black" fill="none" stroke-linecap="round"></path><path d="M 168.000,56.000 C 171.464,53.448 171.613,53.677 175.000,51.000" stroke-width="3.865" stroke="black" fill="none" stroke-linecap="round"></path><path d="M 175.000,51.000 C 181.178,45.754 177.964,48.948 181.000,47.000" stroke-width="4.346" stroke="black" fill="none" stroke-linecap="round"></path><path d="M 181.000,47.000 C 177.689,52.635 180.678,49.254 174.000,58.000" stroke-width="4.426" stroke="black" fill="none" stroke-linecap="round"></path><path d="M 174.000,58.000 C 171.709,60.314 172.189,60.635 170.000,63.000" stroke-width="4.182" stroke="black" fill="none" stroke-linecap="round"></path><path d="M 170.000,63.000 C 165.121,68.711 168.209,65.814 167.000,69.000" stroke-width="4.531" stroke="black" fill="none" stroke-linecap="round"></path><path d="M 167.000,69.000 C 175.349,67.902 171.621,69.711 183.000,65.000" stroke-width="4.331" stroke="black" fill="none" stroke-linecap="round"></path><path d="M 183.000,65.000 C 189.651,61.752 189.849,62.402 196.000,58.000" stroke-width="3.313" stroke="black" fill="none" stroke-linecap="round"></path><path d="M 196.000,58.000 C 200.416,54.865 200.651,55.252 205.000,52.000" stroke-width="3.343" stroke="black" fill="none" stroke-linecap="round"></path><path d="M 205.000,52.000 C 208.403,49.799 208.416,49.865 212.000,48.000" stroke-width="3.660" stroke="black" fill="none" stroke-linecap="round"></path><path d="M 212.000,48.000 C 217.464,44.918 214.403,46.799 217.000,46.000" stroke-width="4.423" stroke="black" fill="none" stroke-linecap="round"></path><path d="M 217.000,46.000 C 213.246,50.754 215.964,48.418 209.000,55.000" stroke-width="4.207" stroke="black" fill="none" stroke-linecap="round"></path><path d="M 209.000,55.000 C 205.748,57.252 206.246,57.754 203.000,60.000" stroke-width="3.899" stroke="black" fill="none" stroke-linecap="round"></path><path d="M 203.000,60.000 C 200.509,62.233 200.748,62.252 199.000,65.000" stroke-width="4.028" stroke="black" fill="none" stroke-linecap="round"></path><path d="M 199.000,65.000 C 195.082,70.863 197.509,67.733 197.000,71.000" stroke-width="4.503" stroke="black" fill="none" stroke-linecap="round"></path><path d="M 197.000,71.000 C 205.475,69.494 202.082,71.363 213.000,66.000" stroke-width="3.962" stroke="black" fill="none" stroke-linecap="round"></path><path d="M 213.000,66.000 C 218.955,61.930 219.475,62.994 225.000,58.000" stroke-width="3.202" stroke="black" fill="none" stroke-linecap="round"></path><path d="M 225.000,58.000 C 228.983,55.472 228.955,55.430 233.000,53.000" stroke-width="3.482" stroke="black" fill="none" stroke-linecap="round"></path><path d="M 233.000,53.000 C 238.000,48.607 235.483,51.472 238.000,50.000" stroke-width="3.948" stroke="black" fill="none" stroke-linecap="round"></path><path d="M 238.000,50.000 C 236.123,56.378 238.000,53.107 233.000,62.000" stroke-width="4.423" stroke="black" fill="none" stroke-linecap="round"></path><path d="M 233.000,62.000 C 230.214,64.802 231.123,65.378 228.000,68.000" stroke-width="3.890" stroke="black" fill="none" stroke-linecap="round"></path><path d="M 228.000,68.000 C 223.694,72.550 225.714,71.302 224.000,75.000" stroke-width="4.359" stroke="black" fill="none" stroke-linecap="round"></path><path d="M 224.000,75.000 C 226.783,76.665 224.194,76.550 229.000,76.000" stroke-width="4.975" stroke="black" fill="none" stroke-linecap="round"></path><path d="M 229.000,76.000 C 231.500,74.000 231.783,75.165 234.000,72.000" stroke-width="4.966" stroke="black" fill="none" stroke-linecap="round"></path><path d="M 234.000,72.000 C 239.082,68.098 239.000,68.000 244.000,64.000" stroke-width="4.341" stroke="black" fill="none" stroke-linecap="round"></path><path d="M 244.000,64.000 C 248.381,60.860 248.082,60.598 252.000,57.000" stroke-width="3.620" stroke="black" fill="none" stroke-linecap="round"></path><path d="M 252.000,57.000 C 255.664,52.619 255.881,52.860 259.000,48.000" stroke-width="3.378" stroke="black" fill="none" stroke-linecap="round"></path><path d="M 259.000,48.000 C 262.135,43.584 262.164,43.619 265.000,39.000" stroke-width="3.420" stroke="black" fill="none" stroke-linecap="round"></path><path d="M 265.000,39.000 C 267.104,35.556 267.135,35.584 269.000,32.000" stroke-width="3.638" stroke="black" fill="none" stroke-linecap="round"></path><path d="M 269.000,32.000 C 271.127,28.057 271.104,28.056 273.000,24.000" stroke-width="3.721" stroke="black" fill="none" stroke-linecap="round"></path><path d="M 273.000,24.000 C 274.352,21.594 274.127,21.557 275.000,19.000" stroke-width="4.049" stroke="black" fill="none" stroke-linecap="round"></path><path d="M 275.000,19.000 C 277.994,11.003 275.852,15.594 276.000,12.000" stroke-width="4.441" stroke="black" fill="none" stroke-linecap="round"></path><path d="M 276.000,12.000 C 265.717,19.283 268.994,15.503 257.000,28.000" stroke-width="4.379" stroke="black" fill="none" stroke-linecap="round"></path><path d="M 257.000,28.000 C 253.208,32.819 252.717,32.283 250.000,38.000" stroke-width="3.473" stroke="black" fill="none" stroke-linecap="round"></path><path d="M 250.000,38.000 C 247.042,43.524 246.708,43.319 244.000,49.000" stroke-width="3.305" stroke="black" fill="none" stroke-linecap="round"></path><path d="M 244.000,49.000 C 241.400,52.268 242.042,52.524 240.000,56.000" stroke-width="3.731" stroke="black" fill="none" stroke-linecap="round"></path><path d="M 240.000,56.000 C 238.904,60.481 238.400,60.268 238.000,65.000" stroke-width="3.616" stroke="black" fill="none" stroke-linecap="round"></path><path d="M 238.000,65.000 C 237.216,67.976 237.404,67.981 237.000,71.000" stroke-width="3.926" stroke="black" fill="none" stroke-linecap="round"></path><path d="M 237.000,71.000 C 235.325,77.325 236.716,74.976 237.000,79.000" stroke-width="4.328" stroke="black" fill="none" stroke-linecap="round"></path><path d="M 237.000,79.000 C 240.288,78.550 238.325,80.325 243.000,77.000" stroke-width="4.991" stroke="black" fill="none" stroke-linecap="round"></path><path d="M 243.000,77.000 C 246.894,73.843 247.288,74.550 251.000,71.000" stroke-width="4.499" stroke="black" fill="none" stroke-linecap="round"></path><path d="M 251.000,71.000 C 253.760,69.833 253.394,69.343 256.000,68.000" stroke-width="4.277" stroke="black" fill="none" stroke-linecap="round"></path><path d="M 256.000,68.000 C 260.243,62.000 259.260,65.333 262.000,62.000" stroke-width="4.432" stroke="black" fill="none" stroke-linecap="round"></path><path d="M 262.000,62.000 C 260.682,65.892 263.243,62.000 262.000,68.000" stroke-width="5.054" stroke="black" fill="none" stroke-linecap="round"></path><path d="M 262.000,68.000 C 264.551,70.223 263.182,69.892 267.000,70.000" stroke-width="5.156" stroke="black" fill="none" stroke-linecap="round"></path><path d="M 267.000,70.000 C 270.000,68.500 270.051,69.723 273.000,67.000" stroke-width="4.315" stroke="black" fill="none" stroke-linecap="round"></path><path d="M 273.000,67.000 C 276.814,64.477 277.000,65.000 281.000,63.000" stroke-width="3.854" stroke="black" fill="none" stroke-linecap="round"></path><path d="M 281.000,63.000 C 287.442,59.579 285.314,61.477 290.000,61.000" stroke-width="4.237" stroke="black" fill="none" stroke-linecap="round"></path><path d="M 290.000,61.000 C 290.929,64.747 291.942,62.079 290.000,68.000" stroke-width="4.678" stroke="black" fill="none" stroke-linecap="round"></path><path d="M 290.000,68.000 C 284.406,74.004 288.929,71.747 286.000,75.000" stroke-width="4.585" stroke="black" fill="none" stroke-linecap="round"></path><path d="M 286.000,75.000 C 292.258,74.837 288.406,76.504 298.000,73.000" stroke-width="4.555" stroke="black" fill="none" stroke-linecap="round"></path><path d="M 298.000,73.000 C 304.542,70.088 304.758,70.837 311.000,67.000" stroke-width="3.315" stroke="black" fill="none" stroke-linecap="round"></path><path d="M 311.000,67.000 C 315.949,64.392 316.042,64.588 321.000,62.000" stroke-width="3.369" stroke="black" fill="none" stroke-linecap="round"></path><path d="M 321.000,62.000 C 325.474,59.940 325.449,59.892 330.000,58.000" stroke-width="3.447" stroke="black" fill="none" stroke-linecap="round"></path><path d="M 330.000,58.000 C 332.432,56.770 332.474,56.940 335.000,56.000" stroke-width="4.082" stroke="black" fill="none" stroke-linecap="round"></path><path d="M 335.000,56.000 C 340.528,53.680 337.432,55.270 340.000,55.000" stroke-width="4.592" stroke="black" fill="none" stroke-linecap="round"></path><path d="M 340.000,55.000 C 335.674,60.658 338.528,58.680 331.000,66.000" stroke-width="4.136" stroke="black" fill="none" stroke-linecap="round"></path><path d="M 331.000,66.000 C 328.362,68.376 328.674,68.658 326.000,71.000" stroke-width="4.020" stroke="black" fill="none" stroke-linecap="round"></path><path d="M 326.000,71.000 C 320.881,75.814 323.862,73.376 322.000,76.000" stroke-width="4.494" stroke="black" fill="none" stroke-linecap="round"></path><path d="M 322.000,76.000 C 327.333,74.593 323.881,76.314 332.000,72.000" stroke-width="4.564" stroke="black" fill="none" stroke-linecap="round"></path><path d="M 332.000,72.000 C 335.848,68.768 336.333,69.593 340.000,66.000" stroke-width="3.732" stroke="black" fill="none" stroke-linecap="round"></path><path d="M 340.000,66.000 C 343.500,64.000 343.348,63.768 347.000,62.000" stroke-width="3.738" stroke="black" fill="none" stroke-linecap="round"></path><path d="M 347.000,62.000 C 353.164,57.721 350.500,60.000 354.000,58.000" stroke-width="4.253" stroke="black" fill="none" stroke-linecap="round"></path><path d="M 354.000,58.000 C 352.258,60.742 354.664,58.221 350.000,63.000" stroke-width="4.564" stroke="black" fill="none" stroke-linecap="round"></path><path d="M 350.000,63.000 C 344.659,68.189 344.758,68.242 339.000,73.000" stroke-width="3.270" stroke="black" fill="none" stroke-linecap="round"></path><path d="M 339.000,73.000 C 334.483,76.478 334.659,76.689 330.000,80.000" stroke-width="3.337" stroke="black" fill="none" stroke-linecap="round"></path><path d="M 330.000,80.000 C 323.352,85.066 327.483,81.978 325.000,84.000" stroke-width="4.193" stroke="black" fill="none" stroke-linecap="round"></path><path d="M 325.000,84.000 C 336.137,76.694 331.852,79.566 347.000,69.000" stroke-width="3.408" stroke="black" fill="none" stroke-linecap="round"></path><path d="M 347.000,69.000 C 360.358,59.952 360.137,59.694 373.000,50.000" stroke-width="2.231" stroke="black" fill="none" stroke-linecap="round"></path><path d="M 373.000,50.000 C 383.961,41.482 383.858,41.452 394.000,32.000" stroke-width="2.167" stroke="black" fill="none" stroke-linecap="round"></path><path d="M 394.000,32.000 C 401.400,23.904 401.961,24.482 409.000,16.000" stroke-width="2.546" stroke="black" fill="none" stroke-linecap="round"></path><path d="M 409.000,16.000 C 414.168,11.154 413.900,10.904 419.000,6.000" stroke-width="2.839" stroke="black" fill="none" stroke-linecap="round"></path><path d="M 419.000,6.000 C 424.730,0.973 421.668,3.154 424.000,0.000" stroke-width="3.481" stroke="black" fill="none" stroke-linecap="round"></path><path d="M 424.000,0.000 C 419.599,0.115 423.230,-1.027 416.000,2.000" stroke-width="4.334" stroke="black" fill="none" stroke-linecap="round"></path><path d="M 416.000,2.000 C 409.259,6.185 409.099,5.615 403.000,11.000" stroke-width="3.232" stroke="black" fill="none" stroke-linecap="round"></path><path d="M 403.000,11.000 C 396.376,16.360 396.259,16.185 390.000,22.000" stroke-width="2.925" stroke="black" fill="none" stroke-linecap="round"></path><path d="M 390.000,22.000 C 383.624,28.140 383.376,27.860 377.000,34.000" stroke-width="2.805" stroke="black" fill="none" stroke-linecap="round"></path><path d="M 377.000,34.000 C 370.309,39.292 370.624,39.640 364.000,45.000" stroke-width="2.748" stroke="black" fill="none" stroke-linecap="round"></path><path d="M 364.000,45.000 C 359.629,48.711 359.809,48.792 356.000,53.000" stroke-width="3.160" stroke="black" fill="none" stroke-linecap="round"></path><path d="M 356.000,53.000 C 353.000,55.500 354.129,55.211 353.000,58.000" stroke-width="3.816" stroke="black" fill="none" stroke-linecap="round"></path><path d="M 353.000,58.000 C 353.449,62.490 353.000,60.500 356.000,63.000" stroke-width="4.456" stroke="black" fill="none" stroke-linecap="round"></path><path d="M 356.000,63.000 C 364.945,64.238 363.449,64.490 373.000,62.000" stroke-width="3.231" stroke="black" fill="none" stroke-linecap="round"></path><path d="M 373.000,62.000 C 382.600,57.700 382.945,59.238 392.000,53.000" stroke-width="2.694" stroke="black" fill="none" stroke-linecap="round"></path><path d="M 392.000,53.000 C 401.401,47.799 401.600,48.200 411.000,43.000" stroke-width="2.545" stroke="black" fill="none" stroke-linecap="round"></path><path d="M 411.000,43.000 C 417.424,39.818 417.401,39.799 424.000,37.000" stroke-width="2.881" stroke="black" fill="none" stroke-linecap="round"></path><path d="M 424.000,37.000 C 431.228,32.071 427.924,35.318 432.000,34.000" stroke-width="3.435" stroke="black" fill="none" stroke-linecap="round"></path><path d="M 432.000,34.000 C 431.330,41.227 433.228,37.071 428.000,47.000" stroke-width="3.935" stroke="black" fill="none" stroke-linecap="round"></path><path d="M 428.000,47.000 C 422.391,53.411 423.830,54.227 417.000,60.000" stroke-width="3.141" stroke="black" fill="none" stroke-linecap="round"></path><path d="M 417.000,60.000 C 413.308,64.369 413.391,64.411 410.000,69.000" stroke-width="3.240" stroke="black" fill="none" stroke-linecap="round"></path><path d="M 410.000,69.000 C 405.242,74.517 408.308,71.369 407.000,74.000" stroke-width="4.195" stroke="black" fill="none" stroke-linecap="round"></path><path d="M 407.000,74.000 C 417.223,69.403 413.742,72.017 427.000,64.000" stroke-width="3.568" stroke="black" fill="none" stroke-linecap="round"></path><path d="M 427.000,64.000 C 435.788,58.118 436.223,58.903 445.000,53.000" stroke-width="2.884" stroke="black" fill="none" stroke-linecap="round"></path><path d="M 445.000,53.000 C 453.744,47.830 453.788,48.118 463.000,44.000" stroke-width="2.720" stroke="black" fill="none" stroke-linecap="round"></path></svg>