<svg xmlns="http://www.w3.org/2000/svg" xmlns:xlink="http://www.w3.org/1999/xlink" viewBox="0 0 902 408" width="902" height="408"><path d="M 268.000,214.000 C 272.364,211.545 272.500,212.000 277.000,210.000" stroke-width="5.266" stroke="black" fill="none" stroke-linecap="round"></path><path d="M 277.000,210.000 C 280.102,209.899 279.864,209.045 283.000,209.000" stroke-width="4.426" stroke="black" fill="none" stroke-linecap="round"></path><path d="M 283.000,209.000 C 294.316,204.338 294.602,205.399 306.000,201.000" stroke-width="2.620" stroke="black" fill="none" stroke-linecap="round"></path><path d="M 306.000,201.000 C 315.454,198.753 315.316,198.338 325.000,197.000" stroke-width="2.564" stroke="black" fill="none" stroke-linecap="round"></path><path d="M 325.000,197.000 C 340.011,194.566 339.954,194.253 355.000,192.000" stroke-width="2.092" stroke="black" fill="none" stroke-linecap="round"></path><path d="M 355.000,192.000 C 395.311,183.086 395.511,185.066 436.000,178.000" stroke-width="1.125" stroke="black" fill="none" stroke-linecap="round"></path><path d="M 436.000,178.000 C 455.497,177.351 455.311,175.586 475.000,177.000" stroke-width="1.466" stroke="black" fill="none" stroke-linecap="round"></path><path d="M 475.000,177.000 C 511.022,175.429 510.997,176.351 547.000,176.000" stroke-width="1.125" stroke="black" fill="none" stroke-linecap="round"></path><path d="M 547.000,176.000 C 573.995,177.593 574.022,176.429 601.000,179.000" stroke-width="1.232" stroke="black" fill="none" stroke-linecap="round"></path><path d="M 601.000,179.000 C 622.006,179.895 621.995,180.093 643.000,181.000" stroke-width="1.480" stroke="black" fill="none" stroke-linecap="round"></path><path d="M 643.000,181.000 C 650.490,181.797 650.506,181.395 658.000,182.000" stroke-width="2.213" stroke="black" fill="none" stroke-linecap="round"></path><path d="M 658.000,182.000 C 669.027,182.378 668.990,182.297 680.000,182.000" stroke-width="2.320" stroke="black" fill="none" stroke-linecap="round"></path><path d="M 680.000,182.000 C 683.594,181.852 683.527,181.878 687.000,181.000" stroke-width="3.239" stroke="black" fill="none" stroke-linecap="round"></path><path d="M 687.000,181.000 C 691.800,177.999 689.594,180.352 692.000,179.000" stroke-width="3.899" stroke="black" fill="none" stroke-linecap="round"></path><path d="M 692.000,179.000 C 690.715,183.104 692.300,180.499 688.000,186.000" stroke-width="4.852" stroke="black" fill="none" stroke-linecap="round"></path><path d="M 688.000,186.000 C 682.276,190.252 683.215,191.104 677.000,195.000" stroke-width="3.369" stroke="black" fill="none" stroke-linecap="round"></path><path d="M 677.000,195.000 C 672.961,200.031 672.276,199.252 668.000,204.000" stroke-width="3.200" stroke="black" fill="none" stroke-linecap="round"></path><path d="M 668.000,204.000 C 650.360,218.021 650.461,218.031 632.000,231.000" stroke-width="1.826" stroke="black" fill="none" stroke-linecap="round"></path><path d="M 632.000,231.000 C 621.900,239.876 621.360,238.521 610.000,245.000" stroke-width="1.980" stroke="black" fill="none" stroke-linecap="round"></path><path d="M 610.000,245.000 C 585.402,254.880 585.900,255.376 560.000,262.000" stroke-width="1.456" stroke="black" fill="none" stroke-linecap="round"></path><path d="M 560.000,262.000 C 519.024,272.098 519.402,273.380 478.000,282.000" stroke-width="1.125" stroke="black" fill="none" stroke-linecap="round"></path><path d="M 478.000,282.000 C 446.432,289.230 446.524,289.598 415.000,297.000" stroke-width="1.125" stroke="black" fill="none" stroke-linecap="round"></path><path d="M 415.000,297.000 C 402.023,300.589 401.932,300.230 389.000,304.000" stroke-width="1.695" stroke="black" fill="none" stroke-linecap="round"></path><path d="M 389.000,304.000 C 381.036,306.174 381.023,306.089 373.000,308.000" stroke-width="2.327" stroke="black" fill="none" stroke-linecap="round"></path><path d="M 373.000,308.000 C 366.112,309.000 370.036,308.674 367.000,309.000" stroke-width="3.729" stroke="black" fill="none" stroke-linecap="round"></path><path d="M 367.000,309.000 C 372.513,308.610 368.612,309.000 378.000,308.000" stroke-width="4.590" stroke="black" fill="none" stroke-linecap="round"></path><path d="M 378.000,308.000 C 381.506,307.538 381.513,307.610 385.000,307.000" stroke-width="4.140" stroke="black" fill="none" stroke-linecap="round"></path><path d="M 385.000,307.000 C 388.298,307.351 388.006,306.538 391.000,306.000" stroke-width="4.095" stroke="black" fill="none" stroke-linecap="round"></path><path d="M 391.000,306.000 C 406.560,292.795 408.298,297.351 425.000,287.000" stroke-width="2.071" stroke="black" fill="none" stroke-linecap="round"></path><path d="M 425.000,287.000 C 477.398,269.323 476.560,270.795 531.000,262.000" stroke-width="1.125" stroke="black" fill="none" stroke-linecap="round"></path><path d="M 531.000,262.000 C 569.547,260.545 568.898,256.823 608.000,262.000" stroke-width="1.125" stroke="black" fill="none" stroke-linecap="round"></path><path d="M 608.000,262.000 C 662.430,262.236 662.047,264.045 716.000,269.000" stroke-width="1.125" stroke="black" fill="none" stroke-linecap="round"></path><path d="M 716.000,269.000 C 761.909,275.005 761.430,274.736 806.000,287.000" stroke-width="1.125" stroke="black" fill="none" stroke-linecap="round"></path><path d="M 806.000,287.000 C 828.974,296.563 829.909,293.505 852.000,306.000" stroke-width="1.139" stroke="black" fill="none" stroke-linecap="round"></path><path d="M 852.000,306.000 C 863.946,307.419 859.474,309.063 867.000,312.000" stroke-width="1.947" stroke="black" fill="none" stroke-linecap="round"></path><path d="M 867.000,312.000 C 865.283,317.389 868.946,314.919 862.000,321.000" stroke-width="3.353" stroke="black" fill="none" stroke-linecap="round"></path><path d="M 862.000,321.000 C 859.610,322.441 860.283,322.889 857.000,323.000" stroke-width="3.909" stroke="black" fill="none" stroke-linecap="round"></path><path d="M 857.000,323.000 C 852.513,324.000 852.610,323.941 848.000,324.000" stroke-width="4.682" stroke="black" fill="none" stroke-linecap="round"></path><path d="M 848.000,324.000 C 839.509,323.279 839.513,324.000 831.000,323.000" stroke-width="3.116" stroke="black" fill="none" stroke-linecap="round"></path><path d="M 831.000,323.000 C 809.002,322.411 809.009,322.279 787.000,322.000" stroke-width="1.776" stroke="black" fill="none" stroke-linecap="round"></path><path d="M 787.000,322.000 C 755.477,322.114 755.502,321.411 724.000,321.000" stroke-width="1.276" stroke="black" fill="none" stroke-linecap="round"></path><path d="M 724.000,321.000 C 698.977,319.784 698.977,320.114 674.000,318.000" stroke-width="1.377" stroke="black" fill="none" stroke-linecap="round"></path><path d="M 674.000,318.000 C 663.367,319.236 663.977,317.284 654.000,316.000" stroke-width="2.043" stroke="black" fill="none" stroke-linecap="round"></path><path d="M 654.000,316.000 C 635.280,309.130 635.867,309.736 619.000,299.000" stroke-width="1.683" stroke="black" fill="none" stroke-linecap="round"></path><path d="M 619.000,299.000 C 612.392,294.512 612.780,295.130 609.000,288.000" stroke-width="2.430" stroke="black" fill="none" stroke-linecap="round"></path><path d="M 609.000,288.000 C 596.620,270.483 599.892,270.512 594.000,251.000" stroke-width="1.909" stroke="black" fill="none" stroke-linecap="round"></path><path d="M 594.000,251.000 C 591.821,209.859 588.620,210.983 593.000,169.000" stroke-width="1.134" stroke="black" fill="none" stroke-linecap="round"></path><path d="M 593.000,169.000 C 594.086,157.760 593.321,157.859 597.000,147.000" stroke-width="1.809" stroke="black" fill="none" stroke-linecap="round"></path><path d="M 597.000,147.000 C 596.629,129.590 600.586,133.760 606.000,121.000" stroke-width="1.983" stroke="black" fill="none" stroke-linecap="round"></path><path d="M 606.000,121.000 C 624.678,107.234 620.629,107.590 645.000,103.000" stroke-width="1.640" stroke="black" fill="none" stroke-linecap="round"></path><path d="M 645.000,103.000 C 661.956,102.726 660.678,99.734 678.000,106.000" stroke-width="1.818" stroke="black" fill="none" stroke-linecap="round"></path><path d="M 678.000,106.000 C 686.677,108.340 686.456,107.726 694.000,113.000" stroke-width="2.351" stroke="black" fill="none" stroke-linecap="round"></path><path d="M 694.000,113.000 C 708.052,123.433 708.677,122.340 722.000,134.000" stroke-width="1.968" stroke="black" fill="none" stroke-linecap="round"></path><path d="M 722.000,134.000 C 724.906,135.645 724.552,135.933 727.000,138.000" stroke-width="3.061" stroke="black" fill="none" stroke-linecap="round"></path><path d="M 727.000,138.000 C 730.880,140.448 728.906,140.145 730.000,143.000" stroke-width="3.734" stroke="black" fill="none" stroke-linecap="round"></path><path d="M 730.000,143.000 C 725.950,157.283 725.880,154.948 717.000,167.000" stroke-width="2.398" stroke="black" fill="none" stroke-linecap="round"></path><path d="M 717.000,167.000 C 706.926,175.961 708.450,176.283 695.000,181.000" stroke-width="2.210" stroke="black" fill="none" stroke-linecap="round"></path><path d="M 695.000,181.000 C 670.942,190.708 671.426,190.961 646.000,197.000" stroke-width="1.513" stroke="black" fill="none" stroke-linecap="round"></path><path d="M 646.000,197.000 C 615.191,205.817 615.442,204.708 584.000,209.000" stroke-width="1.229" stroke="black" fill="none" stroke-linecap="round"></path><path d="M 584.000,209.000 C 565.883,208.825 566.191,210.817 548.000,207.000" stroke-width="1.581" stroke="black" fill="none" stroke-linecap="round"></path><path d="M 548.000,207.000 C 541.392,205.864 541.383,206.325 535.000,204.000" stroke-width="2.392" stroke="black" fill="none" stroke-linecap="round"></path><path d="M 535.000,204.000 C 525.912,204.780 529.392,202.364 524.000,200.000" stroke-width="2.934" stroke="black" fill="none" stroke-linecap="round"></path><path d="M 524.000,200.000 C 519.694,184.018 518.912,187.280 521.000,169.000" stroke-width="2.132" stroke="black" fill="none" stroke-linecap="round"></path><path d="M 521.000,169.000 C 522.215,159.653 521.694,161.018 528.000,154.000" stroke-width="2.589" stroke="black" fill="none" stroke-linecap="round"></path><path d="M 528.000,154.000 C 545.662,138.534 544.215,138.153 565.000,126.000" stroke-width="1.663" stroke="black" fill="none" stroke-linecap="round"></path><path d="M 565.000,126.000 C 573.210,121.397 572.662,121.034 582.000,119.000" stroke-width="2.315" stroke="black" fill="none" stroke-linecap="round"></path><path d="M 582.000,119.000 C 590.519,115.803 589.710,116.897 598.000,117.000" stroke-width="2.688" stroke="black" fill="none" stroke-linecap="round"></path><path d="M 598.000,117.000 C 604.544,118.906 603.019,117.803 607.000,123.000" stroke-width="3.069" stroke="black" fill="none" stroke-linecap="round"></path><path d="M 607.000,123.000 C 609.403,128.396 609.044,126.406 607.000,132.000" stroke-width="3.471" stroke="black" fill="none" stroke-linecap="round"></path><path d="M 607.000,132.000 C 596.783,150.192 596.403,147.896 581.000,162.000" stroke-width="1.994" stroke="black" fill="none" stroke-linecap="round"></path><path d="M 581.000,162.000 C 527.189,198.620 529.283,200.692 472.000,233.000" stroke-width="1.125" stroke="black" fill="none" stroke-linecap="round"></path><path d="M 472.000,233.000 C 435.887,256.355 435.689,255.620 398.000,276.000" stroke-width="1.125" stroke="black" fill="none" stroke-linecap="round"></path><path d="M 398.000,276.000 C 381.432,284.563 381.887,284.355 364.000,289.000" stroke-width="1.366" stroke="black" fill="none" stroke-linecap="round"></path><path d="M 364.000,289.000 C 352.147,292.744 353.932,291.563 343.000,290.000" stroke-width="1.970" stroke="black" fill="none" stroke-linecap="round"></path><path d="M 343.000,290.000 C 336.828,285.874 337.147,288.244 334.000,280.000" stroke-width="2.705" stroke="black" fill="none" stroke-linecap="round"></path><path d="M 334.000,280.000 C 329.861,271.629 330.328,272.374 330.000,263.000" stroke-width="2.694" stroke="black" fill="none" stroke-linecap="round"></path><path d="M 330.000,263.000 C 331.693,240.323 330.361,240.629 335.000,218.000" stroke-width="1.763" stroke="black" fill="none" stroke-linecap="round"></path><path d="M 335.000,218.000 C 335.675,213.068 335.693,213.323 338.000,209.000" stroke-width="2.747" stroke="black" fill="none" stroke-linecap="round"></path><path d="M 338.000,209.000 C 340.744,200.475 341.675,202.568 347.000,197.000" stroke-width="2.911" stroke="black" fill="none" stroke-linecap="round"></path><path d="M 347.000,197.000 C 360.804,189.000 358.744,190.475 374.000,189.000" stroke-width="2.240" stroke="black" fill="none" stroke-linecap="round"></path><path d="M 374.000,189.000 C 382.817,192.454 382.804,189.000 391.000,197.000" stroke-width="2.526" stroke="black" fill="none" stroke-linecap="round"></path><path d="M 391.000,197.000 C 398.278,198.859 396.317,199.954 401.000,204.000" stroke-width="3.007" stroke="black" fill="none" stroke-linecap="round"></path><path d="M 401.000,204.000 C 408.308,217.851 407.278,215.859 409.000,231.000" stroke-width="2.256" stroke="black" fill="none" stroke-linecap="round"></path><path d="M 409.000,231.000 C 407.017,237.285 409.308,236.851 403.000,242.000" stroke-width="2.864" stroke="black" fill="none" stroke-linecap="round"></path><path d="M 403.000,242.000 C 395.517,251.324 395.517,250.785 386.000,258.000" stroke-width="2.500" stroke="black" fill="none" stroke-linecap="round"></path><path d="M 386.000,258.000 C 361.980,276.592 362.017,274.824 336.000,289.000" stroke-width="1.481" stroke="black" fill="none" stroke-linecap="round"></path><path d="M 336.000,289.000 C 327.310,291.123 328.480,292.592 319.000,290.000" stroke-width="2.177" stroke="black" fill="none" stroke-linecap="round"></path><path d="M 319.000,290.000 C 307.302,289.680 308.810,288.623 299.000,284.000" stroke-width="2.409" stroke="black" fill="none" stroke-linecap="round"></path><path d="M 299.000,284.000 C 289.445,274.456 288.302,276.680 281.000,264.000" stroke-width="2.182" stroke="black" fill="none" stroke-linecap="round"></path><path d="M 281.000,264.000 C 268.525,248.327 268.445,248.456 257.000,232.000" stroke-width="1.803" stroke="black" fill="none" stroke-linecap="round"></path><path d="M 257.000,232.000 C 251.228,222.343 250.525,222.827 245.000,213.000" stroke-width="2.196" stroke="black" fill="none" stroke-linecap="round"></path><path d="M 245.000,213.000 C 241.367,209.369 242.228,208.843 239.000,205.000" stroke-width="2.951" stroke="black" fill="none" stroke-linecap="round"></path><path d="M 239.000,205.000 C 234.967,197.158 234.867,197.369 232.000,189.000" stroke-width="2.883" stroke="black" fill="none" stroke-linecap="round"></path><path d="M 232.000,189.000 C 230.788,182.575 230.967,186.158 231.000,183.000" stroke-width="3.626" stroke="black" fill="none" stroke-linecap="round"></path></svg>