<svg xmlns="http://www.w3.org/2000/svg" xmlns:xlink="http://www.w3.org/1999/xlink" viewBox="0 0 902 408" width="902" height="408"><path d="M 197.000,220.000 C 188.874,217.835 189.000,217.500 181.000,215.000" stroke-width="5.001" stroke="black" fill="none" stroke-linecap="round"></path><path d="M 181.000,215.000 C 176.361,213.275 176.374,213.335 172.000,211.000" stroke-width="3.831" stroke="black" fill="none" stroke-linecap="round"></path><path d="M 172.000,211.000 C 165.139,206.725 164.861,207.275 158.000,203.000" stroke-width="3.117" stroke="black" fill="none" stroke-linecap="round"></path><path d="M 158.000,203.000 C 153.511,200.974 153.639,200.725 149.000,199.000" stroke-width="3.416" stroke="black" fill="none" stroke-linecap="round"></path><path d="M 149.000,199.000 C 145.402,197.701 145.511,197.474 142.000,196.000" stroke-width="3.731" stroke="black" fill="none" stroke-linecap="round"></path><path d="M 142.000,196.000 C 137.182,193.952 137.402,193.701 133.000,191.000" stroke-width="4.104" stroke="black" fill="none" stroke-linecap="round"></path><path d="M 133.000,191.000 C 128.903,187.603 128.682,187.952 125.000,184.000" stroke-width="4.208" stroke="black" fill="none" stroke-linecap="round"></path><path d="M 125.000,184.000 C 122.740,181.192 122.403,181.603 120.000,179.000" stroke-width="4.040" stroke="black" fill="none" stroke-linecap="round"></path><path d="M 120.000,179.000 C 114.841,178.223 117.740,177.192 115.000,176.000" stroke-width="4.690" stroke="black" fill="none" stroke-linecap="round"></path><path d="M 115.000,176.000 C 116.545,169.031 115.341,171.223 121.000,165.000" stroke-width="5.064" stroke="black" fill="none" stroke-linecap="round"></path><path d="M 121.000,165.000 C 128.478,160.959 127.045,159.531 136.000,157.000" stroke-width="3.245" stroke="black" fill="none" stroke-linecap="round"></path><path d="M 136.000,157.000 C 147.781,151.495 147.478,150.959 159.000,145.000" stroke-width="2.235" stroke="black" fill="none" stroke-linecap="round"></path><path d="M 159.000,145.000 C 175.730,134.016 176.281,134.995 193.000,124.000" stroke-width="1.814" stroke="black" fill="none" stroke-linecap="round"></path><path d="M 193.000,124.000 C 200.901,119.791 200.730,119.516 209.000,116.000" stroke-width="2.377" stroke="black" fill="none" stroke-linecap="round"></path><path d="M 209.000,116.000 C 225.201,110.186 224.401,108.791 240.000,102.000" stroke-width="1.941" stroke="black" fill="none" stroke-linecap="round"></path><path d="M 240.000,102.000 C 247.769,95.670 248.701,97.186 256.000,90.000" stroke-width="2.247" stroke="black" fill="none" stroke-linecap="round"></path><path d="M 256.000,90.000 C 270.289,80.153 270.269,80.170 285.000,71.000" stroke-width="1.954" stroke="black" fill="none" stroke-linecap="round"></path><path d="M 285.000,71.000 C 293.345,66.993 292.789,66.153 301.000,62.000" stroke-width="2.377" stroke="black" fill="none" stroke-linecap="round"></path><path d="M 301.000,62.000 C 304.604,59.113 304.845,59.493 308.000,56.000" stroke-width="3.143" stroke="black" fill="none" stroke-linecap="round"></path><path d="M 308.000,56.000 C 312.738,51.000 310.604,53.613 313.000,51.000" stroke-width="3.681" stroke="black" fill="none" stroke-linecap="round"></path><path d="M 313.000,51.000 C 311.126,53.608 313.238,51.000 309.000,56.000" stroke-width="4.730" stroke="black" fill="none" stroke-linecap="round"></path><path d="M 309.000,56.000 C 302.705,62.244 303.126,62.608 297.000,69.000" stroke-width="3.072" stroke="black" fill="none" stroke-linecap="round"></path><path d="M 297.000,69.000 C 283.036,84.314 283.705,84.744 271.000,101.000" stroke-width="1.842" stroke="black" fill="none" stroke-linecap="round"></path><path d="M 271.000,101.000 C 261.961,115.476 261.036,114.814 253.000,130.000" stroke-width="1.809" stroke="black" fill="none" stroke-linecap="round"></path><path d="M 253.000,130.000 C 247.908,139.267 247.461,138.976 242.000,148.000" stroke-width="2.201" stroke="black" fill="none" stroke-linecap="round"></path><path d="M 242.000,148.000 C 224.628,173.091 224.908,173.267 207.000,198.000" stroke-width="1.360" stroke="black" fill="none" stroke-linecap="round"></path><path d="M 207.000,198.000 C 201.725,205.672 201.628,205.591 196.000,213.000" stroke-width="2.078" stroke="black" fill="none" stroke-linecap="round"></path><path d="M 196.000,213.000 C 176.315,237.356 176.725,237.672 157.000,262.000" stroke-width="1.323" stroke="black" fill="none" stroke-linecap="round"></path><path d="M 157.000,262.000 C 147.698,274.657 147.315,274.356 138.000,287.000" stroke-width="1.721" stroke="black" fill="none" stroke-linecap="round"></path><path d="M 138.000,287.000 C 131.267,295.742 131.198,295.657 124.000,304.000" stroke-width="2.127" stroke="black" fill="none" stroke-linecap="round"></path><path d="M 124.000,304.000 C 120.141,308.155 120.267,308.242 116.000,312.000" stroke-width="2.829" stroke="black" fill="none" stroke-linecap="round"></path><path d="M 116.000,312.000 C 112.965,314.459 113.141,314.655 110.000,317.000" stroke-width="3.434" stroke="black" fill="none" stroke-linecap="round"></path><path d="M 110.000,317.000 C 105.868,320.359 105.965,320.459 102.000,324.000" stroke-width="3.970" stroke="black" fill="none" stroke-linecap="round"></path><path d="M 102.000,324.000 C 97.177,328.226 97.368,328.359 93.000,333.000" stroke-width="3.344" stroke="black" fill="none" stroke-linecap="round"></path><path d="M 93.000,333.000 C 90.715,336.682 90.177,336.226 88.000,340.000" stroke-width="3.558" stroke="black" fill="none" stroke-linecap="round"></path><path d="M 88.000,340.000 C 85.890,341.900 86.215,342.182 84.000,344.000" stroke-width="3.956" stroke="black" fill="none" stroke-linecap="round"></path><path d="M 84.000,344.000 C 81.860,347.400 81.390,346.900 79.000,350.000" stroke-width="3.831" stroke="black" fill="none" stroke-linecap="round"></path><path d="M 79.000,350.000 C 75.802,351.758 76.360,352.400 73.000,354.000" stroke-width="4.364" stroke="black" fill="none" stroke-linecap="round"></path><path d="M 73.000,354.000 C 70.416,358.472 70.802,355.758 69.000,358.000" stroke-width="4.662" stroke="black" fill="none" stroke-linecap="round"></path><path d="M 69.000,358.000 C 66.134,354.846 67.416,357.472 67.000,352.000" stroke-width="5.157" stroke="black" fill="none" stroke-linecap="round"></path><path d="M 67.000,352.000 C 70.641,342.897 69.634,343.346 76.000,335.000" stroke-width="3.010" stroke="black" fill="none" stroke-linecap="round"></path><path d="M 76.000,335.000 C 81.214,329.684 80.141,328.897 86.000,324.000" stroke-width="3.004" stroke="black" fill="none" stroke-linecap="round"></path><path d="M 86.000,324.000 C 96.524,310.070 97.214,310.684 108.000,297.000" stroke-width="2.086" stroke="black" fill="none" stroke-linecap="round"></path><path d="M 108.000,297.000 C 114.910,289.908 114.524,289.570 122.000,283.000" stroke-width="2.368" stroke="black" fill="none" stroke-linecap="round"></path><path d="M 122.000,283.000 C 134.019,270.454 134.410,270.908 147.000,259.000" stroke-width="1.921" stroke="black" fill="none" stroke-linecap="round"></path><path d="M 147.000,259.000 C 159.207,247.195 159.519,247.954 173.000,238.000" stroke-width="1.850" stroke="black" fill="none" stroke-linecap="round"></path><path d="M 173.000,238.000 C 181.195,234.903 180.207,233.195 189.000,231.000" stroke-width="2.367" stroke="black" fill="none" stroke-linecap="round"></path><path d="M 189.000,231.000 C 205.213,222.856 205.195,222.903 221.000,214.000" stroke-width="1.993" stroke="black" fill="none" stroke-linecap="round"></path><path d="M 221.000,214.000 C 225.532,211.047 225.713,211.356 230.000,208.000" stroke-width="2.824" stroke="black" fill="none" stroke-linecap="round"></path><path d="M 230.000,208.000 C 236.198,202.968 236.532,203.547 243.000,199.000" stroke-width="2.828" stroke="black" fill="none" stroke-linecap="round"></path><path d="M 243.000,199.000 C 248.297,195.901 248.198,195.968 254.000,194.000" stroke-width="3.081" stroke="black" fill="none" stroke-linecap="round"></path><path d="M 254.000,194.000 C 260.489,192.447 260.297,191.901 267.000,191.000" stroke-width="3.072" stroke="black" fill="none" stroke-linecap="round"></path><path d="M 267.000,191.000 C 269.500,190.500 269.489,190.447 272.000,190.000" stroke-width="3.885" stroke="black" fill="none" stroke-linecap="round"></path><path d="M 272.000,190.000 C 274.568,189.730 274.500,189.500 277.000,189.000" stroke-width="4.527" stroke="black" fill="none" stroke-linecap="round"></path><path d="M 284.000,217.000 C 286.247,210.904 287.500,212.500 291.000,208.000" stroke-width="5.162" stroke="black" fill="none" stroke-linecap="round"></path><path d="M 291.000,208.000 C 305.007,199.798 304.247,199.904 320.000,195.000" stroke-width="2.327" stroke="black" fill="none" stroke-linecap="round"></path><path d="M 320.000,195.000 C 330.508,193.554 330.007,191.798 341.000,192.000" stroke-width="2.447" stroke="black" fill="none" stroke-linecap="round"></path><path d="M 341.000,192.000 C 357.386,188.264 357.508,189.554 374.000,187.000" stroke-width="2.035" stroke="black" fill="none" stroke-linecap="round"></path><path d="M 374.000,187.000 C 403.573,187.102 403.386,184.764 433.000,185.000" stroke-width="1.368" stroke="black" fill="none" stroke-linecap="round"></path><path d="M 433.000,185.000 C 473.470,180.661 473.573,182.102 514.000,177.000" stroke-width="1.125" stroke="black" fill="none" stroke-linecap="round"></path><path d="M 514.000,177.000 C 550.943,172.925 550.970,173.661 588.000,171.000" stroke-width="1.125" stroke="black" fill="none" stroke-linecap="round"></path><path d="M 588.000,171.000 C 627.995,169.750 627.943,168.925 668.000,169.000" stroke-width="1.125" stroke="black" fill="none" stroke-linecap="round"></path><path d="M 668.000,169.000 C 708.112,170.164 707.995,168.250 748.000,168.000" stroke-width="1.125" stroke="black" fill="none" stroke-linecap="round"></path><path d="M 748.000,168.000 C 772.701,166.142 772.612,166.664 797.000,162.000" stroke-width="1.193" stroke="black" fill="none" stroke-linecap="round"></path><path d="M 797.000,162.000 C 816.665,158.088 816.701,158.642 836.000,153.000" stroke-width="1.495" stroke="black" fill="none" stroke-linecap="round"></path><path d="M 836.000,153.000 C 844.915,149.692 845.165,150.588 854.000,147.000" stroke-width="2.115" stroke="black" fill="none" stroke-linecap="round"></path><path d="M 854.000,147.000 C 858.487,145.940 858.415,145.692 863.000,145.000" stroke-width="2.996" stroke="black" fill="none" stroke-linecap="round"></path><path d="M 863.000,145.000 C 870.449,142.985 870.487,143.440 878.000,142.000" stroke-width="2.911" stroke="black" fill="none" stroke-linecap="round"></path><path d="M 878.000,142.000 C 882.051,141.535 881.949,141.485 886.000,142.000" stroke-width="3.496" stroke="black" fill="none" stroke-linecap="round"></path></svg>