<svg xmlns="http://www.w3.org/2000/svg" xmlns:xlink="http://www.w3.org/1999/xlink" viewBox="0 0 664 416" width="664" height="416"><path d="M 145.000,243.000 C 139.467,240.521 142.500,240.000 140.000,237.000" stroke-width="5.396" stroke="black" fill="none" stroke-linecap="round"></path><path d="M 140.000,237.000 C 141.826,221.074 141.967,224.021 150.000,210.000" stroke-width="2.475" stroke="black" fill="none" stroke-linecap="round"></path><path d="M 150.000,210.000 C 159.610,200.695 157.326,200.074 171.000,195.000" stroke-width="2.240" stroke="black" fill="none" stroke-linecap="round"></path><path d="M 171.000,195.000 C 182.313,190.656 181.610,189.695 194.000,188.000" stroke-width="2.245" stroke="black" fill="none" stroke-linecap="round"></path><path d="M 194.000,188.000 C 204.478,186.315 204.313,185.656 215.000,185.000" stroke-width="2.471" stroke="black" fill="none" stroke-linecap="round"></path><path d="M 215.000,185.000 C 220.492,184.324 220.478,184.315 226.000,184.000" stroke-width="2.963" stroke="black" fill="none" stroke-linecap="round"></path><path d="M 226.000,184.000 C 232.198,181.727 228.992,183.824 232.000,184.000" stroke-width="3.709" stroke="black" fill="none" stroke-linecap="round"></path><path d="M 232.000,184.000 C 229.475,196.372 231.198,193.227 224.000,207.000" stroke-width="3.426" stroke="black" fill="none" stroke-linecap="round"></path><path d="M 224.000,207.000 C 219.631,212.125 220.975,212.872 215.000,217.000" stroke-width="3.090" stroke="black" fill="none" stroke-linecap="round"></path><path d="M 215.000,217.000 C 210.154,222.168 210.131,222.125 205.000,227.000" stroke-width="3.076" stroke="black" fill="none" stroke-linecap="round"></path><path d="M 205.000,227.000 C 196.578,231.895 202.154,229.668 199.000,232.000" stroke-width="4.004" stroke="black" fill="none" stroke-linecap="round"></path><path d="M 199.000,232.000 C 213.452,229.567 208.078,232.395 228.000,228.000" stroke-width="3.228" stroke="black" fill="none" stroke-linecap="round"></path><path d="M 228.000,228.000 C 245.986,226.287 245.952,226.067 264.000,225.000" stroke-width="2.007" stroke="black" fill="none" stroke-linecap="round"></path><path d="M 264.000,225.000 C 273.992,224.192 273.986,224.287 284.000,224.000" stroke-width="2.378" stroke="black" fill="none" stroke-linecap="round"></path><path d="M 284.000,224.000 C 300.015,223.637 299.992,223.692 316.000,224.000" stroke-width="2.119" stroke="black" fill="none" stroke-linecap="round"></path><path d="M 316.000,224.000 C 321.988,224.793 322.015,224.137 328.000,225.000" stroke-width="2.780" stroke="black" fill="none" stroke-linecap="round"></path><path d="M 328.000,225.000 C 336.500,225.000 336.488,225.293 345.000,225.000" stroke-width="2.803" stroke="black" fill="none" stroke-linecap="round"></path><path d="M 345.000,225.000 C 349.024,224.716 349.000,225.000 353.000,225.000" stroke-width="3.448" stroke="black" fill="none" stroke-linecap="round"></path><path d="M 353.000,225.000 C 356.205,224.925 356.024,225.216 359.000,226.000" stroke-width="3.818" stroke="black" fill="none" stroke-linecap="round"></path><path d="M 359.000,226.000 C 362.255,228.560 362.705,227.425 366.000,230.000" stroke-width="4.284" stroke="black" fill="none" stroke-linecap="round"></path><path d="M 366.000,230.000 C 375.268,234.784 375.255,233.560 385.000,236.000" stroke-width="2.862" stroke="black" fill="none" stroke-linecap="round"></path><path d="M 385.000,236.000 C 395.639,236.480 395.268,237.284 406.000,235.000" stroke-width="2.610" stroke="black" fill="none" stroke-linecap="round"></path><path d="M 406.000,235.000 C 416.510,232.543 416.639,233.480 427.000,230.000" stroke-width="2.516" stroke="black" fill="none" stroke-linecap="round"></path><path d="M 427.000,230.000 C 432.955,228.273 433.010,228.543 439.000,227.000" stroke-width="2.992" stroke="black" fill="none" stroke-linecap="round"></path><path d="M 439.000,227.000 C 442.664,225.487 442.455,226.273 446.000,226.000" stroke-width="3.575" stroke="black" fill="none" stroke-linecap="round"></path><path d="M 446.000,226.000 C 451.403,226.015 449.164,226.487 452.000,229.000" stroke-width="3.926" stroke="black" fill="none" stroke-linecap="round"></path><path d="M 452.000,229.000 C 454.838,243.387 454.403,241.015 452.000,256.000" stroke-width="2.434" stroke="black" fill="none" stroke-linecap="round"></path><path d="M 452.000,256.000 C 447.663,262.619 450.338,263.387 443.000,269.000" stroke-width="2.751" stroke="black" fill="none" stroke-linecap="round"></path></svg>