<svg xmlns="http://www.w3.org/2000/svg" xmlns:xlink="http://www.w3.org/1999/xlink" viewBox="0 0 462 186" width="462" height="186"><path d="M 88.000,102.000 C 85.086,107.086 87.500,105.500 87.000,109.000" stroke-width="5.349" stroke="black" fill="none" stroke-linecap="round"></path><path d="M 87.000,109.000 C 92.557,112.563 90.086,112.086 98.000,112.000" stroke-width="4.787" stroke="black" fill="none" stroke-linecap="round"></path><path d="M 98.000,112.000 C 107.102,109.278 107.057,111.063 116.000,106.000" stroke-width="3.552" stroke="black" fill="none" stroke-linecap="round"></path><path d="M 116.000,106.000 C 125.779,101.328 126.102,102.278 136.000,98.000" stroke-width="2.857" stroke="black" fill="none" stroke-linecap="round"></path><path d="M 136.000,98.000 C 147.758,93.205 147.279,94.328 159.000,92.000" stroke-width="3.107" stroke="black" fill="none" stroke-linecap="round"></path><path d="M 159.000,92.000 C 164.963,93.074 161.758,91.705 164.000,95.000" stroke-width="3.827" stroke="black" fill="none" stroke-linecap="round"></path><path d="M 164.000,95.000 C 157.500,101.500 160.963,101.074 151.000,108.000" stroke-width="2.814" stroke="black" fill="none" stroke-linecap="round"></path><path d="M 151.000,108.000 C 145.500,113.500 145.500,113.500 140.000,119.000" stroke-width="2.841" stroke="black" fill="none" stroke-linecap="round"></path><path d="M 140.000,119.000 C 131.799,124.725 137.000,122.000 134.000,125.000" stroke-width="3.423" stroke="black" fill="none" stroke-linecap="round"></path><path d="M 134.000,125.000 C 145.685,124.967 139.799,125.725 156.000,121.000" stroke-width="3.779" stroke="black" fill="none" stroke-linecap="round"></path><path d="M 156.000,121.000 C 170.751,112.491 171.685,114.967 186.000,105.000" stroke-width="2.136" stroke="black" fill="none" stroke-linecap="round"></path><path d="M 186.000,105.000 C 199.394,98.745 199.251,98.491 213.000,93.000" stroke-width="2.078" stroke="black" fill="none" stroke-linecap="round"></path><path d="M 213.000,93.000 C 221.776,88.545 221.894,89.245 231.000,86.000" stroke-width="2.387" stroke="black" fill="none" stroke-linecap="round"></path><path d="M 231.000,86.000 C 237.021,83.828 236.276,84.545 242.000,85.000" stroke-width="3.021" stroke="black" fill="none" stroke-linecap="round"></path><path d="M 242.000,85.000 C 247.651,86.683 245.521,85.828 248.000,90.000" stroke-width="3.935" stroke="black" fill="none" stroke-linecap="round"></path><path d="M 248.000,90.000 C 246.731,97.297 248.651,96.183 244.000,104.000" stroke-width="3.255" stroke="black" fill="none" stroke-linecap="round"></path><path d="M 244.000,104.000 C 240.044,110.303 241.231,110.797 237.000,117.000" stroke-width="3.017" stroke="black" fill="none" stroke-linecap="round"></path><path d="M 237.000,117.000 C 234.919,121.406 235.044,121.303 234.000,126.000" stroke-width="3.359" stroke="black" fill="none" stroke-linecap="round"></path><path d="M 234.000,126.000 C 231.909,130.606 233.419,128.906 234.000,132.000" stroke-width="3.840" stroke="black" fill="none" stroke-linecap="round"></path><path d="M 234.000,132.000 C 241.392,136.000 239.409,135.606 249.000,136.000" stroke-width="3.830" stroke="black" fill="none" stroke-linecap="round"></path><path d="M 249.000,136.000 C 262.336,135.333 261.892,136.000 275.000,132.000" stroke-width="2.529" stroke="black" fill="none" stroke-linecap="round"></path><path d="M 275.000,132.000 C 290.331,125.962 290.836,127.833 306.000,121.000" stroke-width="2.126" stroke="black" fill="none" stroke-linecap="round"></path><path d="M 306.000,121.000 C 320.598,117.321 320.331,116.462 335.000,113.000" stroke-width="2.162" stroke="black" fill="none" stroke-linecap="round"></path><path d="M 335.000,113.000 C 345.470,109.407 345.598,109.821 356.000,106.000" stroke-width="2.535" stroke="black" fill="none" stroke-linecap="round"></path><path d="M 356.000,106.000 C 362.436,103.727 362.470,103.907 369.000,102.000" stroke-width="2.869" stroke="black" fill="none" stroke-linecap="round"></path><path d="M 369.000,102.000 C 374.287,99.811 371.936,101.227 375.000,101.000" stroke-width="3.619" stroke="black" fill="none" stroke-linecap="round"></path><path d="M 375.000,101.000 C 374.162,104.477 375.787,102.311 372.000,107.000" stroke-width="4.284" stroke="black" fill="none" stroke-linecap="round"></path><path d="M 372.000,107.000 C 364.500,114.500 365.162,114.977 357.000,122.000" stroke-width="2.859" stroke="black" fill="none" stroke-linecap="round"></path><path d="M 357.000,122.000 C 349.500,129.500 349.500,129.500 342.000,137.000" stroke-width="2.600" stroke="black" fill="none" stroke-linecap="round"></path><path d="M 342.000,137.000 C 330.401,144.441 337.500,141.500 333.000,146.000" stroke-width="3.003" stroke="black" fill="none" stroke-linecap="round"></path><path d="M 333.000,146.000 C 345.399,148.320 337.901,148.941 357.000,146.000" stroke-width="3.535" stroke="black" fill="none" stroke-linecap="round"></path><path d="M 357.000,146.000 C 372.518,140.550 372.899,142.820 388.000,135.000" stroke-width="2.222" stroke="black" fill="none" stroke-linecap="round"></path><path d="M 388.000,135.000 C 398.877,130.608 399.018,131.050 410.000,127.000" stroke-width="2.265" stroke="black" fill="none" stroke-linecap="round"></path><path d="M 410.000,127.000 C 417.456,124.811 417.377,124.608 425.000,123.000" stroke-width="2.648" stroke="black" fill="none" stroke-linecap="round"></path><path d="M 425.000,123.000 C 429.960,121.593 429.956,121.811 435.000,121.000" stroke-width="3.201" stroke="black" fill="none" stroke-linecap="round"></path><path d="M 137.000,143.000 C 129.422,143.963 133.500,143.000 130.000,143.000" stroke-width="4.703" stroke="black" fill="none" stroke-linecap="round"></path><path d="M 130.000,143.000 C 134.921,140.333 130.922,141.463 140.000,138.000" stroke-width="4.738" stroke="black" fill="none" stroke-linecap="round"></path><path d="M 140.000,138.000 C 153.249,131.361 153.421,131.833 167.000,126.000" stroke-width="2.551" stroke="black" fill="none" stroke-linecap="round"></path><path d="M 167.000,126.000 C 182.791,119.783 182.749,119.861 199.000,115.000" stroke-width="1.979" stroke="black" fill="none" stroke-linecap="round"></path><path d="M 199.000,115.000 C 213.370,110.823 213.291,110.783 228.000,108.000" stroke-width="1.968" stroke="black" fill="none" stroke-linecap="round"></path><path d="M 228.000,108.000 C 250.516,101.742 241.870,105.323 256.000,104.000" stroke-width="2.629" stroke="black" fill="none" stroke-linecap="round"></path><path d="M 256.000,104.000 C 250.988,110.060 259.016,105.242 245.000,115.000" stroke-width="3.364" stroke="black" fill="none" stroke-linecap="round"></path><path d="M 245.000,115.000 C 230.750,126.347 230.988,126.560 216.000,137.000" stroke-width="2.212" stroke="black" fill="none" stroke-linecap="round"></path><path d="M 216.000,137.000 C 203.659,145.744 203.750,145.847 191.000,154.000" stroke-width="2.019" stroke="black" fill="none" stroke-linecap="round"></path><path d="M 191.000,154.000 C 169.537,167.927 180.659,160.744 170.000,167.000" stroke-width="2.842" stroke="black" fill="none" stroke-linecap="round"></path><path d="M 170.000,167.000 C 181.278,158.183 170.537,165.927 193.000,150.000" stroke-width="2.800" stroke="black" fill="none" stroke-linecap="round"></path><path d="M 193.000,150.000 C 207.407,138.978 207.778,139.683 223.000,130.000" stroke-width="2.018" stroke="black" fill="none" stroke-linecap="round"></path><path d="M 223.000,130.000 C 241.000,121.000 240.407,119.978 259.000,112.000" stroke-width="1.761" stroke="black" fill="none" stroke-linecap="round"></path><path d="M 259.000,112.000 C 274.778,103.510 275.000,104.000 291.000,96.000" stroke-width="1.796" stroke="black" fill="none" stroke-linecap="round"></path><path d="M 291.000,96.000 C 301.838,91.031 301.778,91.010 313.000,87.000" stroke-width="2.099" stroke="black" fill="none" stroke-linecap="round"></path><path d="M 313.000,87.000 C 319.918,84.416 319.838,84.531 327.000,83.000" stroke-width="2.628" stroke="black" fill="none" stroke-linecap="round"></path><path d="M 327.000,83.000 C 332.292,81.584 329.918,82.416 333.000,83.000" stroke-width="3.505" stroke="black" fill="none" stroke-linecap="round"></path><path d="M 333.000,83.000 C 332.277,86.560 333.792,84.584 330.000,89.000" stroke-width="3.900" stroke="black" fill="none" stroke-linecap="round"></path><path d="M 330.000,89.000 C 309.372,107.631 311.277,109.060 291.000,128.000" stroke-width="2.516" stroke="black" fill="none" stroke-linecap="round"></path><path d="M 291.000,128.000 C 286.531,133.672 286.372,133.131 284.000,140.000" stroke-width="2.895" stroke="black" fill="none" stroke-linecap="round"></path><path d="M 284.000,140.000 C 281.730,144.698 282.531,143.672 283.000,148.000" stroke-width="3.439" stroke="black" fill="none" stroke-linecap="round"></path><path d="M 283.000,148.000 C 285.313,152.524 284.230,151.198 289.000,153.000" stroke-width="3.671" stroke="black" fill="none" stroke-linecap="round"></path><path d="M 289.000,153.000 C 301.998,155.158 300.813,154.524 314.000,152.000" stroke-width="2.569" stroke="black" fill="none" stroke-linecap="round"></path><path d="M 314.000,152.000 C 349.538,141.282 349.498,142.658 384.000,128.000" stroke-width="1.922" stroke="black" fill="none" stroke-linecap="round"></path><path d="M 384.000,128.000 C 396.941,121.378 397.538,122.782 410.000,115.000" stroke-width="2.027" stroke="black" fill="none" stroke-linecap="round"></path><path d="M 410.000,115.000 C 418.461,110.914 418.441,110.878 427.000,107.000" stroke-width="2.439" stroke="black" fill="none" stroke-linecap="round"></path></svg>