<svg xmlns="http://www.w3.org/2000/svg" xmlns:xlink="http://www.w3.org/1999/xlink" viewBox="0 0 748 256" width="748" height="256"><path d="M 366.000,115.000 C 371.534,114.658 371.500,115.000 377.000,115.000" stroke-width="4.586" stroke="black" fill="none" stroke-linecap="round"></path><path d="M 377.000,115.000 C 379.642,115.057 379.534,115.158 382.000,116.000" stroke-width="4.402" stroke="black" fill="none" stroke-linecap="round"></path><path d="M 382.000,116.000 C 392.142,120.212 392.142,120.057 402.000,125.000" stroke-width="2.832" stroke="black" fill="none" stroke-linecap="round"></path><path d="M 402.000,125.000 C 409.554,128.905 409.642,128.712 417.000,133.000" stroke-width="2.758" stroke="black" fill="none" stroke-linecap="round"></path><path d="M 417.000,133.000 C 419.675,134.257 419.554,134.405 422.000,136.000" stroke-width="3.624" stroke="black" fill="none" stroke-linecap="round"></path><path d="M 422.000,136.000 C 427.498,137.815 425.675,138.757 429.000,142.000" stroke-width="3.640" stroke="black" fill="none" stroke-linecap="round"></path><path d="M 429.000,142.000 C 434.677,158.463 434.498,157.315 436.000,175.000" stroke-width="2.131" stroke="black" fill="none" stroke-linecap="round"></path><path d="M 436.000,175.000 C 435.866,183.900 436.677,183.463 433.000,192.000" stroke-width="2.503" stroke="black" fill="none" stroke-linecap="round"></path><path d="M 433.000,192.000 C 430.921,227.632 424.366,216.400 413.000,240.000" stroke-width="1.541" stroke="black" fill="none" stroke-linecap="round"></path><path d="M 413.000,240.000 C 376.504,247.907 395.421,252.132 362.000,241.000" stroke-width="2.456" stroke="black" fill="none" stroke-linecap="round"></path><path d="M 362.000,241.000 C 363.861,228.159 355.504,237.907 371.000,220.000" stroke-width="2.472" stroke="black" fill="none" stroke-linecap="round"></path><path d="M 371.000,220.000 C 380.002,213.443 377.861,212.159 390.000,209.000" stroke-width="2.337" stroke="black" fill="none" stroke-linecap="round"></path><path d="M 390.000,209.000 C 407.594,202.745 407.002,201.443 425.000,196.000" stroke-width="1.901" stroke="black" fill="none" stroke-linecap="round"></path><path d="M 425.000,196.000 C 447.425,186.801 447.594,187.245 470.000,178.000" stroke-width="1.517" stroke="black" fill="none" stroke-linecap="round"></path><path d="M 470.000,178.000 C 476.873,175.069 476.925,175.301 484.000,173.000" stroke-width="2.284" stroke="black" fill="none" stroke-linecap="round"></path><path d="M 484.000,173.000 C 492.514,171.057 492.373,170.569 501.000,169.000" stroke-width="2.656" stroke="black" fill="none" stroke-linecap="round"></path><path d="M 501.000,169.000 C 508.964,166.826 509.014,167.057 517.000,165.000" stroke-width="2.735" stroke="black" fill="none" stroke-linecap="round"></path><path d="M 517.000,165.000 C 520.053,164.737 519.964,164.326 523.000,164.000" stroke-width="3.588" stroke="black" fill="none" stroke-linecap="round"></path><path d="M 523.000,164.000 C 529.964,161.111 530.053,162.237 537.000,160.000" stroke-width="3.178" stroke="black" fill="none" stroke-linecap="round"></path><path d="M 537.000,160.000 C 539.492,160.544 539.464,159.611 542.000,161.000" stroke-width="4.433" stroke="black" fill="none" stroke-linecap="round"></path><path d="M 542.000,161.000 C 544.994,162.000 544.992,161.544 548.000,162.000" stroke-width="4.542" stroke="black" fill="none" stroke-linecap="round"></path><path d="M 548.000,162.000 C 552.046,162.846 551.494,162.000 555.000,161.000" stroke-width="4.128" stroke="black" fill="none" stroke-linecap="round"></path><path d="M 555.000,161.000 C 571.594,149.126 572.046,150.346 588.000,137.000" stroke-width="2.017" stroke="black" fill="none" stroke-linecap="round"></path><path d="M 588.000,137.000 C 594.527,132.035 594.594,132.126 601.000,127.000" stroke-width="2.495" stroke="black" fill="none" stroke-linecap="round"></path><path d="M 601.000,127.000 C 603.383,124.832 603.527,125.035 606.000,123.000" stroke-width="3.430" stroke="black" fill="none" stroke-linecap="round"></path><path d="M 606.000,123.000 C 608.553,121.583 608.383,121.332 611.000,120.000" stroke-width="3.928" stroke="black" fill="none" stroke-linecap="round"></path><path d="M 611.000,120.000 C 617.463,116.582 617.053,116.083 623.000,112.000" stroke-width="4.530" stroke="black" fill="none" stroke-linecap="round"></path><path d="M 623.000,112.000 C 631.080,103.433 631.963,104.582 640.000,96.000" stroke-width="2.686" stroke="black" fill="none" stroke-linecap="round"></path><path d="M 640.000,96.000 C 644.599,90.599 643.080,93.433 647.000,92.000" stroke-width="3.752" stroke="black" fill="none" stroke-linecap="round"></path><path d="M 647.000,92.000 C 651.542,97.279 650.599,94.099 652.000,103.000" stroke-width="3.415" stroke="black" fill="none" stroke-linecap="round"></path><path d="M 652.000,103.000 C 651.028,110.157 652.542,109.779 649.000,117.000" stroke-width="3.153" stroke="black" fill="none" stroke-linecap="round"></path><path d="M 649.000,117.000 C 646.538,123.515 647.028,123.657 644.000,130.000" stroke-width="3.110" stroke="black" fill="none" stroke-linecap="round"></path><path d="M 644.000,130.000 C 639.314,135.024 642.038,135.015 640.000,140.000" stroke-width="3.336" stroke="black" fill="none" stroke-linecap="round"></path><path d="M 640.000,140.000 C 642.745,150.344 641.314,149.524 648.000,159.000" stroke-width="3.395" stroke="black" fill="none" stroke-linecap="round"></path><path d="M 648.000,159.000 C 652.226,163.823 651.245,164.344 657.000,168.000" stroke-width="3.207" stroke="black" fill="none" stroke-linecap="round"></path><path d="M 280.000,119.000 C 277.000,119.000 277.000,119.000 274.000,119.000" stroke-width="5.330" stroke="black" fill="none" stroke-linecap="round"></path><path d="M 274.000,119.000 C 269.136,121.129 271.000,119.000 268.000,119.000" stroke-width="4.918" stroke="black" fill="none" stroke-linecap="round"></path><path d="M 268.000,119.000 C 265.243,111.314 265.136,113.629 266.000,104.000" stroke-width="4.482" stroke="black" fill="none" stroke-linecap="round"></path><path d="M 266.000,104.000 C 267.118,96.211 266.743,96.814 271.000,90.000" stroke-width="3.257" stroke="black" fill="none" stroke-linecap="round"></path><path d="M 271.000,90.000 C 277.046,79.164 277.118,80.211 286.000,72.000" stroke-width="2.508" stroke="black" fill="none" stroke-linecap="round"></path><path d="M 286.000,72.000 C 295.370,64.714 294.546,65.164 306.000,62.000" stroke-width="2.392" stroke="black" fill="none" stroke-linecap="round"></path><path d="M 306.000,62.000 C 319.602,59.242 318.870,58.714 333.000,60.000" stroke-width="2.288" stroke="black" fill="none" stroke-linecap="round"></path><path d="M 333.000,60.000 C 346.096,62.097 346.102,60.742 359.000,65.000" stroke-width="2.167" stroke="black" fill="none" stroke-linecap="round"></path><path d="M 359.000,65.000 C 366.140,66.614 366.096,66.597 373.000,69.000" stroke-width="2.707" stroke="black" fill="none" stroke-linecap="round"></path><path d="M 373.000,69.000 C 379.363,69.192 377.640,70.614 382.000,73.000" stroke-width="3.206" stroke="black" fill="none" stroke-linecap="round"></path><path d="M 382.000,73.000 C 388.685,83.755 388.363,82.192 391.000,95.000" stroke-width="2.482" stroke="black" fill="none" stroke-linecap="round"></path><path d="M 391.000,95.000 C 391.679,101.641 392.185,100.755 389.000,107.000" stroke-width="2.942" stroke="black" fill="none" stroke-linecap="round"></path><path d="M 389.000,107.000 C 379.915,122.287 381.179,122.641 370.000,137.000" stroke-width="2.056" stroke="black" fill="none" stroke-linecap="round"></path><path d="M 370.000,137.000 C 364.502,145.471 364.415,145.287 358.000,153.000" stroke-width="2.348" stroke="black" fill="none" stroke-linecap="round"></path><path d="M 358.000,153.000 C 354.541,156.049 355.002,156.471 351.000,159.000" stroke-width="3.087" stroke="black" fill="none" stroke-linecap="round"></path><path d="M 351.000,159.000 C 347.243,164.036 348.541,161.049 346.000,163.000" stroke-width="3.684" stroke="black" fill="none" stroke-linecap="round"></path><path d="M 346.000,163.000 C 343.127,157.871 344.243,161.536 345.000,154.000" stroke-width="4.351" stroke="black" fill="none" stroke-linecap="round"></path><path d="M 345.000,154.000 C 351.034,140.581 350.627,142.371 361.000,132.000" stroke-width="2.469" stroke="black" fill="none" stroke-linecap="round"></path><path d="M 361.000,132.000 C 370.770,126.836 369.034,125.081 381.000,123.000" stroke-width="2.401" stroke="black" fill="none" stroke-linecap="round"></path><path d="M 381.000,123.000 C 387.025,121.593 386.770,120.836 393.000,120.000" stroke-width="2.893" stroke="black" fill="none" stroke-linecap="round"></path><path d="M 393.000,120.000 C 401.932,117.176 402.025,117.593 411.000,115.000" stroke-width="2.678" stroke="black" fill="none" stroke-linecap="round"></path><path d="M 411.000,115.000 C 414.630,114.963 414.432,114.176 418.000,114.000" stroke-width="3.431" stroke="black" fill="none" stroke-linecap="round"></path><path d="M 418.000,114.000 C 421.485,112.464 421.630,112.963 425.000,111.000" stroke-width="3.736" stroke="black" fill="none" stroke-linecap="round"></path><path d="M 425.000,111.000 C 427.448,109.851 427.485,109.964 430.000,109.000" stroke-width="4.055" stroke="black" fill="none" stroke-linecap="round"></path><path d="M 430.000,109.000 C 434.873,106.394 434.948,107.351 440.000,106.000" stroke-width="3.638" stroke="black" fill="none" stroke-linecap="round"></path><path d="M 440.000,106.000 C 448.413,105.276 447.873,105.394 456.000,107.000" stroke-width="3.084" stroke="black" fill="none" stroke-linecap="round"></path><path d="M 456.000,107.000 C 460.213,107.985 459.413,107.776 462.000,111.000" stroke-width="3.600" stroke="black" fill="none" stroke-linecap="round"></path><path d="M 462.000,111.000 C 468.876,122.198 468.213,121.485 472.000,134.000" stroke-width="3.307" stroke="black" fill="none" stroke-linecap="round"></path><path d="M 472.000,134.000 C 472.244,139.712 473.376,139.198 471.000,145.000" stroke-width="3.378" stroke="black" fill="none" stroke-linecap="round"></path><path d="M 471.000,145.000 C 469.605,148.058 470.244,148.212 468.000,151.000" stroke-width="3.768" stroke="black" fill="none" stroke-linecap="round"></path><path d="M 468.000,151.000 C 464.018,157.473 466.605,153.558 465.000,156.000" stroke-width="4.410" stroke="black" fill="none" stroke-linecap="round"></path><path d="M 465.000,156.000 C 471.456,145.971 469.018,149.973 478.000,136.000" stroke-width="3.541" stroke="black" fill="none" stroke-linecap="round"></path><path d="M 478.000,136.000 C 481.644,129.732 481.956,129.971 486.000,124.000" stroke-width="3.112" stroke="black" fill="none" stroke-linecap="round"></path><path d="M 486.000,124.000 C 492.067,117.906 491.144,117.232 497.000,111.000" stroke-width="2.894" stroke="black" fill="none" stroke-linecap="round"></path><path d="M 497.000,111.000 C 501.500,103.500 502.067,103.906 506.000,96.000" stroke-width="2.808" stroke="black" fill="none" stroke-linecap="round"></path><path d="M 506.000,96.000 C 509.282,93.676 507.500,93.500 509.000,91.000" stroke-width="3.948" stroke="black" fill="none" stroke-linecap="round"></path><path d="M 509.000,91.000 C 507.260,83.519 508.282,84.176 504.000,77.000" stroke-width="4.385" stroke="black" fill="none" stroke-linecap="round"></path><path d="M 504.000,77.000 C 501.876,75.111 502.760,74.519 500.000,73.000" stroke-width="4.222" stroke="black" fill="none" stroke-linecap="round"></path><path d="M 500.000,73.000 C 496.823,70.964 497.876,70.611 496.000,68.000" stroke-width="4.568" stroke="black" fill="none" stroke-linecap="round"></path><path d="M 496.000,68.000 C 494.503,61.462 494.323,61.964 495.000,55.000" stroke-width="5.096" stroke="black" fill="none" stroke-linecap="round"></path><path d="M 495.000,55.000 C 496.581,41.899 496.003,41.962 499.000,29.000" stroke-width="3.501" stroke="black" fill="none" stroke-linecap="round"></path><path d="M 499.000,29.000 C 499.509,25.733 499.581,25.899 501.000,23.000" stroke-width="3.900" stroke="black" fill="none" stroke-linecap="round"></path><path d="M 501.000,23.000 C 502.591,20.064 502.509,20.233 505.000,18.000" stroke-width="3.981" stroke="black" fill="none" stroke-linecap="round"></path><path d="M 505.000,18.000 C 509.766,14.079 509.591,14.064 515.000,11.000" stroke-width="3.458" stroke="black" fill="none" stroke-linecap="round"></path><path d="M 515.000,11.000 C 518.396,9.201 518.266,9.079 522.000,8.000" stroke-width="3.698" stroke="black" fill="none" stroke-linecap="round"></path><path d="M 522.000,8.000 C 527.417,5.881 527.396,6.201 533.000,5.000" stroke-width="3.398" stroke="black" fill="none" stroke-linecap="round"></path><path d="M 533.000,5.000 C 537.091,4.442 536.917,4.381 541.000,5.000" stroke-width="3.637" stroke="black" fill="none" stroke-linecap="round"></path><path d="M 541.000,5.000 C 545.796,4.373 544.091,5.442 547.000,7.000" stroke-width="4.333" stroke="black" fill="none" stroke-linecap="round"></path><path d="M 547.000,7.000 C 552.000,18.099 551.296,16.373 552.000,29.000" stroke-width="2.709" stroke="black" fill="none" stroke-linecap="round"></path><path d="M 552.000,29.000 C 549.939,37.164 552.000,37.099 547.000,45.000" stroke-width="2.735" stroke="black" fill="none" stroke-linecap="round"></path><path d="M 547.000,45.000 C 543.240,52.900 543.939,53.164 540.000,61.000" stroke-width="2.703" stroke="black" fill="none" stroke-linecap="round"></path><path d="M 540.000,61.000 C 538.989,65.739 538.240,65.400 537.000,70.000" stroke-width="3.234" stroke="black" fill="none" stroke-linecap="round"></path><path d="M 537.000,70.000 C 534.691,72.830 535.489,73.239 533.000,76.000" stroke-width="4.062" stroke="black" fill="none" stroke-linecap="round"></path><path d="M 533.000,76.000 C 531.199,80.601 530.691,80.330 529.000,85.000" stroke-width="4.227" stroke="black" fill="none" stroke-linecap="round"></path></svg>