<svg xmlns="http://www.w3.org/2000/svg" xmlns:xlink="http://www.w3.org/1999/xlink" viewBox="0 0 264 256" width="264" height="256"><path d="M 119.000,56.000 C 120.650,58.375 120.000,58.500 121.000,61.000" stroke-width="5.078" stroke="black" fill="none" stroke-linecap="round"></path><path d="M 121.000,61.000 C 121.000,66.000 121.650,65.875 121.000,71.000" stroke-width="4.565" stroke="black" fill="none" stroke-linecap="round"></path><path d="M 121.000,71.000 C 121.249,75.016 121.000,75.000 121.000,79.000" stroke-width="3.962" stroke="black" fill="none" stroke-linecap="round"></path><path d="M 121.000,79.000 C 121.020,83.125 120.749,83.016 120.000,87.000" stroke-width="3.858" stroke="black" fill="none" stroke-linecap="round"></path><path d="M 120.000,87.000 C 118.214,92.587 118.520,92.625 116.000,98.000" stroke-width="3.410" stroke="black" fill="none" stroke-linecap="round"></path><path d="M 116.000,98.000 C 113.323,103.426 113.714,103.587 111.000,109.000" stroke-width="3.379" stroke="black" fill="none" stroke-linecap="round"></path><path d="M 111.000,109.000 C 108.774,115.621 108.323,115.426 106.000,122.000" stroke-width="3.110" stroke="black" fill="none" stroke-linecap="round"></path><path d="M 106.000,122.000 C 103.403,126.954 103.774,127.121 101.000,132.000" stroke-width="3.303" stroke="black" fill="none" stroke-linecap="round"></path><path d="M 101.000,132.000 C 98.799,137.657 98.403,137.454 96.000,143.000" stroke-width="3.234" stroke="black" fill="none" stroke-linecap="round"></path><path d="M 96.000,143.000 C 93.516,148.403 93.299,148.157 90.000,153.000" stroke-width="3.248" stroke="black" fill="none" stroke-linecap="round"></path><path d="M 90.000,153.000 C 86.823,156.894 87.016,156.903 83.000,160.000" stroke-width="3.403" stroke="black" fill="none" stroke-linecap="round"></path><path d="M 83.000,160.000 C 78.671,163.295 78.823,163.394 74.000,166.000" stroke-width="3.427" stroke="black" fill="none" stroke-linecap="round"></path><path d="M 74.000,166.000 C 69.171,168.932 69.171,168.795 64.000,171.000" stroke-width="3.345" stroke="black" fill="none" stroke-linecap="round"></path><path d="M 64.000,171.000 C 58.915,172.265 59.171,172.932 54.000,174.000" stroke-width="3.386" stroke="black" fill="none" stroke-linecap="round"></path><path d="M 54.000,174.000 C 50.500,175.500 50.415,175.265 47.000,177.000" stroke-width="3.673" stroke="black" fill="none" stroke-linecap="round"></path><path d="M 178.000,54.000 C 174.235,57.089 175.000,57.500 172.000,61.000" stroke-width="4.790" stroke="black" fill="none" stroke-linecap="round"></path><path d="M 172.000,61.000 C 170.630,64.429 170.235,64.089 170.000,68.000" stroke-width="4.212" stroke="black" fill="none" stroke-linecap="round"></path><path d="M 170.000,68.000 C 169.455,72.996 169.130,72.929 169.000,78.000" stroke-width="3.714" stroke="black" fill="none" stroke-linecap="round"></path><path d="M 169.000,78.000 C 168.223,83.988 168.455,83.996 168.000,90.000" stroke-width="3.346" stroke="black" fill="none" stroke-linecap="round"></path><path d="M 168.000,90.000 C 168.000,97.500 167.723,97.488 168.000,105.000" stroke-width="3.087" stroke="black" fill="none" stroke-linecap="round"></path><path d="M 168.000,105.000 C 168.000,111.500 168.000,111.500 168.000,118.000" stroke-width="3.099" stroke="black" fill="none" stroke-linecap="round"></path><path d="M 168.000,118.000 C 168.000,125.500 168.000,125.500 168.000,133.000" stroke-width="3.021" stroke="black" fill="none" stroke-linecap="round"></path><path d="M 168.000,133.000 C 168.000,140.500 168.000,140.500 168.000,148.000" stroke-width="2.998" stroke="black" fill="none" stroke-linecap="round"></path><path d="M 168.000,148.000 C 167.421,155.057 168.000,155.000 168.000,162.000" stroke-width="2.999" stroke="black" fill="none" stroke-linecap="round"></path><path d="M 168.000,162.000 C 168.541,167.136 168.421,167.057 170.000,172.000" stroke-width="3.343" stroke="black" fill="none" stroke-linecap="round"></path><path d="M 170.000,172.000 C 171.283,177.472 171.541,177.136 174.000,182.000" stroke-width="3.413" stroke="black" fill="none" stroke-linecap="round"></path><path d="M 174.000,182.000 C 176.130,185.013 175.783,184.972 179.000,187.000" stroke-width="3.786" stroke="black" fill="none" stroke-linecap="round"></path><path d="M 208.000,83.000 C 208.303,78.576 207.000,80.500 206.000,78.000" stroke-width="5.412" stroke="black" fill="none" stroke-linecap="round"></path><path d="M 206.000,78.000 C 197.000,78.000 198.303,76.076 188.000,78.000" stroke-width="4.451" stroke="black" fill="none" stroke-linecap="round"></path><path d="M 188.000,78.000 C 180.000,78.000 180.000,78.000 172.000,78.000" stroke-width="3.237" stroke="black" fill="none" stroke-linecap="round"></path><path d="M 172.000,78.000 C 163.479,78.446 163.500,78.000 155.000,78.000" stroke-width="2.928" stroke="black" fill="none" stroke-linecap="round"></path><path d="M 155.000,78.000 C 144.523,76.526 144.479,77.446 134.000,76.000" stroke-width="2.558" stroke="black" fill="none" stroke-linecap="round"></path><path d="M 134.000,76.000 C 124.449,75.229 124.523,75.526 115.000,76.000" stroke-width="2.680" stroke="black" fill="none" stroke-linecap="round"></path><path d="M 115.000,76.000 C 99.870,77.398 99.949,77.229 85.000,80.000" stroke-width="2.184" stroke="black" fill="none" stroke-linecap="round"></path><path d="M 85.000,80.000 C 80.055,81.736 79.870,80.898 75.000,83.000" stroke-width="2.956" stroke="black" fill="none" stroke-linecap="round"></path><path d="M 75.000,83.000 C 69.272,83.456 72.055,83.736 69.000,84.000" stroke-width="4.018" stroke="black" fill="none" stroke-linecap="round"></path><path d="M 198.000,112.000 C 193.819,108.268 193.500,109.500 189.000,107.000" stroke-width="4.505" stroke="black" fill="none" stroke-linecap="round"></path><path d="M 189.000,107.000 C 183.980,106.644 184.319,105.768 179.000,107.000" stroke-width="3.844" stroke="black" fill="none" stroke-linecap="round"></path><path d="M 179.000,107.000 C 169.906,107.441 169.980,107.644 161.000,109.000" stroke-width="2.912" stroke="black" fill="none" stroke-linecap="round"></path><path d="M 161.000,109.000 C 150.073,111.880 149.906,110.941 139.000,114.000" stroke-width="2.608" stroke="black" fill="none" stroke-linecap="round"></path><path d="M 139.000,114.000 C 126.530,116.210 126.573,116.380 114.000,118.000" stroke-width="2.354" stroke="black" fill="none" stroke-linecap="round"></path><path d="M 114.000,118.000 C 102.021,119.693 102.030,119.710 90.000,121.000" stroke-width="2.386" stroke="black" fill="none" stroke-linecap="round"></path><path d="M 90.000,121.000 C 79.010,122.131 79.021,122.193 68.000,123.000" stroke-width="2.428" stroke="black" fill="none" stroke-linecap="round"></path><path d="M 68.000,123.000 C 59.923,122.944 60.010,123.631 52.000,124.000" stroke-width="2.737" stroke="black" fill="none" stroke-linecap="round"></path><path d="M 202.000,55.000 C 199.792,57.833 200.500,58.000 199.000,61.000" stroke-width="5.327" stroke="black" fill="none" stroke-linecap="round"></path><path d="M 199.000,61.000 C 199.000,64.000 198.292,63.833 199.000,67.000" stroke-width="4.397" stroke="black" fill="none" stroke-linecap="round"></path><path d="M 199.000,67.000 C 196.952,72.212 199.000,70.000 199.000,73.000" stroke-width="4.630" stroke="black" fill="none" stroke-linecap="round"></path><path d="M 199.000,73.000 C 206.125,74.260 203.452,74.712 212.000,72.000" stroke-width="4.220" stroke="black" fill="none" stroke-linecap="round"></path><circle r="1.5" cx="236" cy="50" fill="black"></circle><path d="M 235.000,50.000 C 240.049,53.660 240.000,51.500 245.000,53.000" stroke-width="5.340" stroke="black" fill="none" stroke-linecap="round"></path></svg>