<svg xmlns="http://www.w3.org/2000/svg" xmlns:xlink="http://www.w3.org/1999/xlink" viewBox="0 0 264 256" width="264" height="256"><path d="M 68.000,88.250 C 74.168,83.434 74.000,83.250 80.000,78.250" stroke-width="5.381" stroke="black" fill="none" stroke-linecap="round"></path><path d="M 80.000,78.250 C 82.685,74.854 83.168,75.434 86.000,72.250" stroke-width="4.127" stroke="black" fill="none" stroke-linecap="round"></path><path d="M 86.000,72.250 C 89.881,69.538 89.685,69.354 94.000,67.250" stroke-width="3.757" stroke="black" fill="none" stroke-linecap="round"></path><path d="M 94.000,67.250 C 98.771,63.993 98.881,64.538 104.000,62.250" stroke-width="4.116" stroke="black" fill="none" stroke-linecap="round"></path><path d="M 104.000,62.250 C 107.984,61.501 107.771,60.993 112.000,61.250" stroke-width="3.901" stroke="black" fill="none" stroke-linecap="round"></path><path d="M 112.000,61.250 C 116.000,61.250 115.984,61.001 120.000,61.250" stroke-width="3.847" stroke="black" fill="none" stroke-linecap="round"></path><path d="M 120.000,61.250 C 123.000,61.250 123.000,61.250 126.000,61.250" stroke-width="4.059" stroke="black" fill="none" stroke-linecap="round"></path><path d="M 126.000,61.250 C 129.500,61.250 129.500,61.250 133.000,61.250" stroke-width="4.007" stroke="black" fill="none" stroke-linecap="round"></path><path d="M 133.000,61.250 C 138.609,60.421 138.500,61.250 144.000,61.250" stroke-width="4.153" stroke="black" fill="none" stroke-linecap="round"></path><path d="M 144.000,61.250 C 151.760,62.617 151.609,62.421 159.000,65.250" stroke-width="3.222" stroke="black" fill="none" stroke-linecap="round"></path><path d="M 159.000,65.250 C 162.698,66.964 162.760,66.617 166.000,69.250" stroke-width="3.568" stroke="black" fill="none" stroke-linecap="round"></path><path d="M 166.000,69.250 C 169.247,71.497 169.198,71.464 172.000,74.250" stroke-width="3.714" stroke="black" fill="none" stroke-linecap="round"></path><path d="M 172.000,74.250 C 175.250,78.500 175.747,77.997 179.000,82.250" stroke-width="3.533" stroke="black" fill="none" stroke-linecap="round"></path><path d="M 179.000,82.250 C 182.787,86.028 182.750,86.000 187.000,89.250" stroke-width="3.424" stroke="black" fill="none" stroke-linecap="round"></path><path d="M 187.000,89.250 C 191.500,92.250 191.287,92.528 196.000,95.250" stroke-width="3.434" stroke="black" fill="none" stroke-linecap="round"></path><path d="M 196.000,95.250 C 201.250,97.500 200.500,98.250 205.000,101.250" stroke-width="3.436" stroke="black" fill="none" stroke-linecap="round"></path><path d="M 205.000,101.250 C 208.502,105.481 208.750,105.000 211.000,110.250" stroke-width="3.437" stroke="black" fill="none" stroke-linecap="round"></path><path d="M 211.000,110.250 C 213.525,116.240 214.002,115.981 216.000,122.250" stroke-width="3.316" stroke="black" fill="none" stroke-linecap="round"></path><path d="M 216.000,122.250 C 217.230,124.682 217.025,124.740 218.000,127.250" stroke-width="3.894" stroke="black" fill="none" stroke-linecap="round"></path><path d="M 218.000,127.250 C 218.789,129.721 218.730,129.682 219.000,132.250" stroke-width="4.147" stroke="black" fill="none" stroke-linecap="round"></path><path d="M 219.000,132.250 C 218.429,135.826 219.289,135.721 219.000,139.250" stroke-width="4.032" stroke="black" fill="none" stroke-linecap="round"></path><path d="M 219.000,139.250 C 221.162,144.661 219.929,144.826 222.000,150.250" stroke-width="3.408" stroke="black" fill="none" stroke-linecap="round"></path><path d="M 222.000,150.250 C 222.000,154.750 222.662,154.661 222.000,159.250" stroke-width="3.592" stroke="black" fill="none" stroke-linecap="round"></path><path d="M 222.000,159.250 C 222.000,162.250 222.000,162.250 222.000,165.250" stroke-width="3.927" stroke="black" fill="none" stroke-linecap="round"></path><path d="M 222.000,165.250 C 223.627,169.694 222.000,168.750 222.000,172.250" stroke-width="4.574" stroke="black" fill="none" stroke-linecap="round"></path><path d="M 222.000,172.250 C 218.760,174.883 220.127,175.194 215.000,176.250" stroke-width="5.197" stroke="black" fill="none" stroke-linecap="round"></path><path d="M 215.000,176.250 C 207.418,177.992 207.760,178.883 200.000,180.250" stroke-width="3.381" stroke="black" fill="none" stroke-linecap="round"></path><path d="M 200.000,180.250 C 195.737,181.257 195.918,181.492 192.000,183.250" stroke-width="3.576" stroke="black" fill="none" stroke-linecap="round"></path><path d="M 192.000,183.250 C 188.743,186.154 188.237,185.257 185.000,188.250" stroke-width="3.686" stroke="black" fill="none" stroke-linecap="round"></path><path d="M 185.000,188.250 C 176.060,192.876 176.243,193.154 167.000,197.250" stroke-width="2.832" stroke="black" fill="none" stroke-linecap="round"></path><path d="M 167.000,197.250 C 161.633,200.104 161.560,199.876 156.000,202.250" stroke-width="3.136" stroke="black" fill="none" stroke-linecap="round"></path><path d="M 156.000,202.250 C 151.068,204.058 151.133,204.104 146.000,205.250" stroke-width="3.372" stroke="black" fill="none" stroke-linecap="round"></path><path d="M 146.000,205.250 C 142.516,205.980 142.568,206.058 139.000,206.250" stroke-width="3.813" stroke="black" fill="none" stroke-linecap="round"></path><path d="M 139.000,206.250 C 135.984,206.480 136.016,206.480 133.000,206.250" stroke-width="4.003" stroke="black" fill="none" stroke-linecap="round"></path><path d="M 133.000,206.250 C 129.213,206.535 129.484,205.980 126.000,205.250" stroke-width="3.931" stroke="black" fill="none" stroke-linecap="round"></path><path d="M 126.000,205.250 C 121.685,203.146 121.713,203.535 118.000,200.250" stroke-width="4.268" stroke="black" fill="none" stroke-linecap="round"></path><path d="M 118.000,200.250 C 114.703,197.494 114.685,197.646 112.000,194.250" stroke-width="3.835" stroke="black" fill="none" stroke-linecap="round"></path><path d="M 112.000,194.250 C 109.669,191.436 109.703,191.494 108.000,188.250" stroke-width="3.915" stroke="black" fill="none" stroke-linecap="round"></path><path d="M 108.000,188.250 C 103.769,181.002 104.169,180.936 101.000,173.250" stroke-width="3.767" stroke="black" fill="none" stroke-linecap="round"></path><path d="M 101.000,173.250 C 99.478,166.755 98.769,167.002 98.000,160.250" stroke-width="3.248" stroke="black" fill="none" stroke-linecap="round"></path><path d="M 98.000,160.250 C 96.904,155.769 96.978,155.755 96.000,151.250" stroke-width="3.518" stroke="black" fill="none" stroke-linecap="round"></path><path d="M 96.000,151.250 C 94.692,145.790 94.904,145.769 94.000,140.250" stroke-width="3.371" stroke="black" fill="none" stroke-linecap="round"></path><path d="M 94.000,140.250 C 93.310,133.757 93.192,133.790 93.000,127.250" stroke-width="3.237" stroke="black" fill="none" stroke-linecap="round"></path><path d="M 93.000,127.250 C 93.284,123.226 92.810,123.257 93.000,119.250" stroke-width="3.627" stroke="black" fill="none" stroke-linecap="round"></path><path d="M 93.000,119.250 C 92.735,116.192 92.784,116.226 92.000,113.250" stroke-width="3.973" stroke="black" fill="none" stroke-linecap="round"></path><path d="M 92.000,113.250 C 91.301,110.112 91.235,110.192 90.000,107.250" stroke-width="4.468" stroke="black" fill="none" stroke-linecap="round"></path><path d="M 90.000,107.250 C 88.833,104.490 88.801,104.612 87.000,102.250" stroke-width="5.067" stroke="black" fill="none" stroke-linecap="round"></path><path d="M 87.000,102.250 C 83.864,99.374 84.333,98.990 81.000,96.250" stroke-width="4.616" stroke="black" fill="none" stroke-linecap="round"></path><path d="M 81.000,96.250 C 77.909,88.635 78.364,93.374 76.000,90.250" stroke-width="4.788" stroke="black" fill="none" stroke-linecap="round"></path><path d="M 76.000,90.250 C 71.195,98.463 71.409,94.135 68.000,107.250" stroke-width="5.037" stroke="black" fill="none" stroke-linecap="round"></path><path d="M 68.000,107.250 C 66.081,115.272 65.195,114.963 64.000,123.250" stroke-width="3.282" stroke="black" fill="none" stroke-linecap="round"></path><path d="M 64.000,123.250 C 63.210,126.822 63.081,126.772 62.000,130.250" stroke-width="3.715" stroke="black" fill="none" stroke-linecap="round"></path><path d="M 62.000,130.250 C 60.396,135.458 60.210,135.322 58.000,140.250" stroke-width="3.461" stroke="black" fill="none" stroke-linecap="round"></path><path d="M 58.000,140.250 C 56.052,143.286 56.396,143.458 54.000,146.250" stroke-width="3.742" stroke="black" fill="none" stroke-linecap="round"></path><path d="M 54.000,146.250 C 51.500,149.750 51.552,149.786 49.000,153.250" stroke-width="3.737" stroke="black" fill="none" stroke-linecap="round"></path><path d="M 49.000,153.250 C 46.247,156.598 46.500,156.750 44.000,160.250" stroke-width="4.422" stroke="black" fill="none" stroke-linecap="round"></path><path d="M 44.000,160.250 C 41.792,163.083 42.247,163.098 41.000,166.250" stroke-width="4.579" stroke="black" fill="none" stroke-linecap="round"></path><path d="M 41.000,166.250 C 42.351,170.358 40.292,169.083 41.000,172.250" stroke-width="5.046" stroke="black" fill="none" stroke-linecap="round"></path><path d="M 41.000,172.250 C 37.762,174.532 39.851,173.858 36.000,173.250" stroke-width="5.087" stroke="black" fill="none" stroke-linecap="round"></path><path d="M 36.000,173.250 C 31.656,169.219 32.262,170.532 30.000,164.250" stroke-width="4.435" stroke="black" fill="none" stroke-linecap="round"></path><path d="M 30.000,164.250 C 29.261,158.260 28.156,158.719 29.000,152.250" stroke-width="3.500" stroke="black" fill="none" stroke-linecap="round"></path><path d="M 29.000,152.250 C 28.230,146.637 28.761,146.760 29.000,141.250" stroke-width="3.440" stroke="black" fill="none" stroke-linecap="round"></path><path d="M 29.000,141.250 C 31.194,136.352 29.730,136.137 32.000,131.250" stroke-width="3.471" stroke="black" fill="none" stroke-linecap="round"></path><path d="M 32.000,131.250 C 32.000,126.750 32.694,126.852 32.000,122.250" stroke-width="3.613" stroke="black" fill="none" stroke-linecap="round"></path><path d="M 32.000,122.250 C 31.789,116.743 32.000,116.750 32.000,111.250" stroke-width="4.268" stroke="black" fill="none" stroke-linecap="round"></path><path d="M 32.000,111.250 C 32.069,103.698 32.289,103.743 33.000,96.250" stroke-width="3.949" stroke="black" fill="none" stroke-linecap="round"></path><path d="M 33.000,96.250 C 34.170,87.666 34.069,87.698 36.000,79.250" stroke-width="2.988" stroke="black" fill="none" stroke-linecap="round"></path><path d="M 36.000,79.250 C 37.170,76.295 36.670,76.166 38.000,73.250" stroke-width="3.649" stroke="black" fill="none" stroke-linecap="round"></path><path d="M 38.000,73.250 C 38.253,70.679 38.670,70.795 39.000,68.250" stroke-width="4.415" stroke="black" fill="none" stroke-linecap="round"></path><path d="M 39.000,68.250 C 40.650,64.300 40.253,64.179 42.000,60.250" stroke-width="4.817" stroke="black" fill="none" stroke-linecap="round"></path><path d="M 42.000,60.250 C 43.118,56.779 43.150,56.800 44.000,53.250" stroke-width="4.669" stroke="black" fill="none" stroke-linecap="round"></path><path d="M 44.000,53.250 C 44.270,50.682 44.618,50.779 45.000,48.250" stroke-width="5.104" stroke="black" fill="none" stroke-linecap="round"></path><path d="M 45.000,48.250 C 45.268,43.250 45.770,45.682 47.000,43.250" stroke-width="4.928" stroke="black" fill="none" stroke-linecap="round"></path><path d="M 47.000,43.250 C 51.489,45.111 49.768,43.250 54.000,48.250" stroke-width="5.212" stroke="black" fill="none" stroke-linecap="round"></path><path d="M 54.000,48.250 C 54.466,50.757 55.489,50.111 55.000,53.250" stroke-width="4.559" stroke="black" fill="none" stroke-linecap="round"></path><path d="M 55.000,53.250 C 56.492,57.682 55.966,57.757 57.000,62.250" stroke-width="3.818" stroke="black" fill="none" stroke-linecap="round"></path><path d="M 57.000,62.250 C 57.625,71.247 57.992,71.182 58.000,80.250" stroke-width="2.985" stroke="black" fill="none" stroke-linecap="round"></path><path d="M 58.000,80.250 C 58.000,83.250 58.125,83.247 58.000,86.250" stroke-width="3.682" stroke="black" fill="none" stroke-linecap="round"></path><path d="M 58.000,86.250 C 56.430,90.558 58.000,89.750 58.000,93.250" stroke-width="4.463" stroke="black" fill="none" stroke-linecap="round"></path></svg>