<svg xmlns="http://www.w3.org/2000/svg" xmlns:xlink="http://www.w3.org/1999/xlink" viewBox="0 0 264 256" width="264" height="256"><path d="M 100.000,139.750 C 98.852,129.932 100.000,130.250 100.000,120.750" stroke-width="4.479" stroke="black" fill="none" stroke-linecap="round"></path><path d="M 100.000,120.750 C 101.384,118.174 100.352,117.932 103.000,115.750" stroke-width="4.272" stroke="black" fill="none" stroke-linecap="round"></path><path d="M 103.000,115.750 C 104.833,111.583 105.384,112.174 108.000,108.750" stroke-width="3.881" stroke="black" fill="none" stroke-linecap="round"></path><path d="M 108.000,108.750 C 114.507,102.859 114.333,103.083 122.000,98.750" stroke-width="2.980" stroke="black" fill="none" stroke-linecap="round"></path><path d="M 122.000,98.750 C 130.148,93.471 130.007,94.359 139.000,91.750" stroke-width="2.780" stroke="black" fill="none" stroke-linecap="round"></path><path d="M 139.000,91.750 C 148.591,90.895 148.148,89.971 158.000,91.750" stroke-width="2.692" stroke="black" fill="none" stroke-linecap="round"></path><path d="M 158.000,91.750 C 165.221,92.581 165.091,92.395 172.000,94.750" stroke-width="2.880" stroke="black" fill="none" stroke-linecap="round"></path><path d="M 172.000,94.750 C 177.855,96.663 177.721,96.581 183.000,99.750" stroke-width="3.154" stroke="black" fill="none" stroke-linecap="round"></path><path d="M 183.000,99.750 C 189.507,101.942 187.855,102.663 192.000,106.750" stroke-width="3.300" stroke="black" fill="none" stroke-linecap="round"></path><path d="M 192.000,106.750 C 195.929,116.750 196.507,115.442 197.000,126.750" stroke-width="2.730" stroke="black" fill="none" stroke-linecap="round"></path><path d="M 197.000,126.750 C 197.143,131.321 197.429,130.750 195.000,134.750" stroke-width="3.393" stroke="black" fill="none" stroke-linecap="round"></path><path d="M 195.000,134.750 C 188.564,142.804 189.643,143.321 182.000,150.750" stroke-width="2.605" stroke="black" fill="none" stroke-linecap="round"></path><path d="M 182.000,150.750 C 179.255,154.495 179.064,154.304 176.000,157.750" stroke-width="3.256" stroke="black" fill="none" stroke-linecap="round"></path><path d="M 176.000,157.750 C 169.473,164.902 169.255,164.495 162.000,170.750" stroke-width="2.868" stroke="black" fill="none" stroke-linecap="round"></path><path d="M 162.000,170.750 C 157.598,173.451 157.973,173.902 153.000,175.750" stroke-width="3.285" stroke="black" fill="none" stroke-linecap="round"></path><path d="M 153.000,175.750 C 148.940,179.655 149.598,177.451 146.000,178.750" stroke-width="3.636" stroke="black" fill="none" stroke-linecap="round"></path><path d="M 146.000,178.750 C 140.824,175.871 142.440,177.655 140.000,171.750" stroke-width="4.119" stroke="black" fill="none" stroke-linecap="round"></path><path d="M 140.000,171.750 C 139.812,164.829 138.824,165.871 142.000,158.750" stroke-width="3.406" stroke="black" fill="none" stroke-linecap="round"></path><path d="M 142.000,158.750 C 145.203,152.558 144.312,152.329 149.000,146.750" stroke-width="3.119" stroke="black" fill="none" stroke-linecap="round"></path><path d="M 149.000,146.750 C 154.430,139.985 153.703,139.558 159.000,132.750" stroke-width="2.886" stroke="black" fill="none" stroke-linecap="round"></path><path d="M 159.000,132.750 C 161.802,127.108 160.430,130.485 161.000,127.750" stroke-width="4.039" stroke="black" fill="none" stroke-linecap="round"></path><path d="M 161.000,127.750 C 158.648,133.705 159.302,129.108 154.000,136.750" stroke-width="4.392" stroke="black" fill="none" stroke-linecap="round"></path><path d="M 154.000,136.750 C 143.375,142.958 144.148,143.205 132.000,146.750" stroke-width="2.627" stroke="black" fill="none" stroke-linecap="round"></path><path d="M 132.000,146.750 C 123.548,148.800 123.875,149.458 115.000,149.750" stroke-width="2.740" stroke="black" fill="none" stroke-linecap="round"></path><path d="M 115.000,149.750 C 109.983,150.027 110.048,150.300 105.000,149.750" stroke-width="3.208" stroke="black" fill="none" stroke-linecap="round"></path><path d="M 105.000,149.750 C 99.136,151.598 100.983,149.527 97.000,148.750" stroke-width="3.610" stroke="black" fill="none" stroke-linecap="round"></path><path d="M 97.000,148.750 C 90.713,139.492 91.636,141.598 90.000,129.750" stroke-width="2.877" stroke="black" fill="none" stroke-linecap="round"></path><path d="M 90.000,129.750 C 91.079,118.462 89.213,118.992 94.000,107.750" stroke-width="3.195" stroke="black" fill="none" stroke-linecap="round"></path><path d="M 94.000,107.750 C 96.300,102.150 95.579,101.962 99.000,96.750" stroke-width="3.259" stroke="black" fill="none" stroke-linecap="round"></path><path d="M 99.000,96.750 C 101.543,90.935 101.800,91.150 105.000,85.750" stroke-width="3.185" stroke="black" fill="none" stroke-linecap="round"></path><path d="M 105.000,85.750 C 107.447,81.542 107.543,81.935 111.000,78.750" stroke-width="3.495" stroke="black" fill="none" stroke-linecap="round"></path><path d="M 111.000,78.750 C 114.865,76.404 114.447,76.042 119.000,74.750" stroke-width="3.573" stroke="black" fill="none" stroke-linecap="round"></path><path d="M 119.000,74.750 C 123.413,71.888 122.365,73.404 126.000,72.750" stroke-width="3.773" stroke="black" fill="none" stroke-linecap="round"></path><path d="M 126.000,72.750 C 129.548,75.834 127.913,73.388 128.000,77.750" stroke-width="4.482" stroke="black" fill="none" stroke-linecap="round"></path><path d="M 128.000,77.750 C 117.606,90.232 119.048,88.834 105.000,98.750" stroke-width="2.385" stroke="black" fill="none" stroke-linecap="round"></path><path d="M 105.000,98.750 C 98.099,101.459 99.106,102.732 91.000,102.750" stroke-width="2.802" stroke="black" fill="none" stroke-linecap="round"></path><path d="M 91.000,102.750 C 86.747,103.890 87.099,103.459 83.000,102.750" stroke-width="3.448" stroke="black" fill="none" stroke-linecap="round"></path><path d="M 83.000,102.750 C 73.630,101.112 75.247,100.390 68.000,95.750" stroke-width="3.006" stroke="black" fill="none" stroke-linecap="round"></path><path d="M 68.000,95.750 C 64.907,89.290 63.130,91.112 62.000,82.750" stroke-width="3.039" stroke="black" fill="none" stroke-linecap="round"></path><path d="M 62.000,82.750 C 60.000,80.351 60.907,80.290 60.000,77.750" stroke-width="3.808" stroke="black" fill="none" stroke-linecap="round"></path><path d="M 60.000,77.750 C 59.889,71.765 60.000,72.351 62.000,66.750" stroke-width="3.508" stroke="black" fill="none" stroke-linecap="round"></path><path d="M 62.000,66.750 C 64.663,62.458 63.889,62.265 68.000,58.750" stroke-width="3.475" stroke="black" fill="none" stroke-linecap="round"></path><path d="M 68.000,58.750 C 73.548,52.064 73.663,52.458 80.000,46.750" stroke-width="2.917" stroke="black" fill="none" stroke-linecap="round"></path><path d="M 80.000,46.750 C 84.697,43.233 82.048,45.064 85.000,44.750" stroke-width="4.039" stroke="black" fill="none" stroke-linecap="round"></path><path d="M 85.000,44.750 C 84.669,51.412 85.697,48.233 82.000,56.750" stroke-width="4.345" stroke="black" fill="none" stroke-linecap="round"></path><path d="M 190.000,44.000 C 196.115,39.203 196.500,40.500 203.000,37.000" stroke-width="5.386" stroke="black" fill="none" stroke-linecap="round"></path><path d="M 203.000,37.000 C 208.992,36.316 208.615,35.203 215.000,36.000" stroke-width="3.727" stroke="black" fill="none" stroke-linecap="round"></path><path d="M 215.000,36.000 C 219.934,34.163 218.492,35.816 222.000,36.000" stroke-width="4.307" stroke="black" fill="none" stroke-linecap="round"></path><path d="M 222.000,36.000 C 225.330,40.580 224.434,38.163 224.000,44.000" stroke-width="4.459" stroke="black" fill="none" stroke-linecap="round"></path><path d="M 224.000,44.000 C 219.554,49.050 221.830,49.580 215.000,54.000" stroke-width="3.374" stroke="black" fill="none" stroke-linecap="round"></path><path d="M 215.000,54.000 C 208.245,61.755 208.054,61.550 201.000,69.000" stroke-width="2.681" stroke="black" fill="none" stroke-linecap="round"></path><path d="M 201.000,69.000 C 197.855,72.628 197.745,72.255 194.000,75.000" stroke-width="3.291" stroke="black" fill="none" stroke-linecap="round"></path><path d="M 194.000,75.000 C 190.920,77.515 191.355,76.628 188.000,77.000" stroke-width="3.891" stroke="black" fill="none" stroke-linecap="round"></path><path d="M 188.000,77.000 C 181.219,75.516 182.420,76.015 177.000,72.000" stroke-width="4.047" stroke="black" fill="none" stroke-linecap="round"></path><path d="M 177.000,72.000 C 175.794,69.471 175.219,70.516 176.000,67.000" stroke-width="4.239" stroke="black" fill="none" stroke-linecap="round"></path><path d="M 176.000,67.000 C 175.937,62.750 176.294,63.471 178.000,60.000" stroke-width="3.971" stroke="black" fill="none" stroke-linecap="round"></path><path d="M 178.000,60.000 C 181.254,57.017 180.437,56.750 185.000,55.000" stroke-width="3.747" stroke="black" fill="none" stroke-linecap="round"></path><path d="M 185.000,55.000 C 189.576,51.813 187.754,53.517 191.000,53.000" stroke-width="4.379" stroke="black" fill="none" stroke-linecap="round"></path><path d="M 191.000,53.000 C 191.818,56.727 192.576,54.313 191.000,60.000" stroke-width="4.947" stroke="black" fill="none" stroke-linecap="round"></path></svg>