<svg xmlns="http://www.w3.org/2000/svg" xmlns:xlink="http://www.w3.org/1999/xlink" viewBox="0 0 344 92" width="344" height="92"><path d="M 42.000,64.000 C 47.007,64.208 47.000,64.000 52.000,64.000" stroke-width="5.151" stroke="black" fill="none" stroke-linecap="round"></path><path d="M 52.000,64.000 C 59.000,63.500 59.007,63.708 66.000,63.000" stroke-width="3.426" stroke="black" fill="none" stroke-linecap="round"></path><path d="M 66.000,63.000 C 73.050,62.869 73.000,62.500 80.000,62.000" stroke-width="3.177" stroke="black" fill="none" stroke-linecap="round"></path><path d="M 80.000,62.000 C 85.040,61.167 85.050,61.369 90.000,60.000" stroke-width="3.354" stroke="black" fill="none" stroke-linecap="round"></path><path d="M 90.000,60.000 C 93.459,58.817 93.540,59.167 97.000,58.000" stroke-width="3.743" stroke="black" fill="none" stroke-linecap="round"></path><path d="M 97.000,58.000 C 102.134,54.980 99.959,57.317 103.000,57.000" stroke-width="4.557" stroke="black" fill="none" stroke-linecap="round"></path><path d="M 103.000,57.000 C 103.573,64.552 105.134,61.980 103.000,72.000" stroke-width="4.051" stroke="black" fill="none" stroke-linecap="round"></path><path d="M 103.000,72.000 C 100.419,81.838 102.573,77.552 101.000,83.000" stroke-width="3.503" stroke="black" fill="none" stroke-linecap="round"></path><path d="M 101.000,83.000 C 102.823,79.387 101.419,83.838 105.000,76.000" stroke-width="4.352" stroke="black" fill="none" stroke-linecap="round"></path><path d="M 105.000,76.000 C 107.051,72.105 107.323,72.387 110.000,69.000" stroke-width="3.842" stroke="black" fill="none" stroke-linecap="round"></path><path d="M 110.000,69.000 C 117.253,62.747 116.551,62.105 124.000,56.000" stroke-width="2.921" stroke="black" fill="none" stroke-linecap="round"></path><path d="M 124.000,56.000 C 127.894,51.400 128.253,51.747 132.000,47.000" stroke-width="3.117" stroke="black" fill="none" stroke-linecap="round"></path><path d="M 132.000,47.000 C 134.865,43.850 134.894,43.900 138.000,41.000" stroke-width="3.536" stroke="black" fill="none" stroke-linecap="round"></path><path d="M 138.000,41.000 C 140.635,36.570 140.365,38.850 143.000,37.000" stroke-width="3.860" stroke="black" fill="none" stroke-linecap="round"></path><path d="M 143.000,37.000 C 147.356,39.438 146.135,37.570 149.000,43.000" stroke-width="4.657" stroke="black" fill="none" stroke-linecap="round"></path><path d="M 149.000,43.000 C 147.935,46.805 150.356,45.938 149.000,50.000" stroke-width="4.165" stroke="black" fill="none" stroke-linecap="round"></path><path d="M 149.000,50.000 C 150.266,56.023 150.435,54.305 154.000,58.000" stroke-width="4.546" stroke="black" fill="none" stroke-linecap="round"></path><path d="M 154.000,58.000 C 160.065,59.297 158.766,60.523 166.000,59.000" stroke-width="3.590" stroke="black" fill="none" stroke-linecap="round"></path><path d="M 166.000,59.000 C 170.244,58.633 170.065,58.797 174.000,57.000" stroke-width="3.674" stroke="black" fill="none" stroke-linecap="round"></path><path d="M 174.000,57.000 C 181.298,52.530 181.744,53.633 189.000,49.000" stroke-width="3.025" stroke="black" fill="none" stroke-linecap="round"></path><path d="M 189.000,49.000 C 193.406,46.919 193.298,47.030 198.000,46.000" stroke-width="3.412" stroke="black" fill="none" stroke-linecap="round"></path><path d="M 198.000,46.000 C 201.515,44.757 200.906,45.419 204.000,46.000" stroke-width="3.861" stroke="black" fill="none" stroke-linecap="round"></path><path d="M 204.000,46.000 C 208.456,48.397 207.515,47.757 210.000,52.000" stroke-width="4.288" stroke="black" fill="none" stroke-linecap="round"></path><path d="M 210.000,52.000 C 210.775,56.126 211.456,55.397 210.000,60.000" stroke-width="3.953" stroke="black" fill="none" stroke-linecap="round"></path><path d="M 210.000,60.000 C 206.000,66.142 208.775,66.126 206.000,72.000" stroke-width="3.348" stroke="black" fill="none" stroke-linecap="round"></path><path d="M 206.000,72.000 C 206.069,79.236 206.000,76.142 210.000,80.000" stroke-width="4.036" stroke="black" fill="none" stroke-linecap="round"></path><path d="M 210.000,80.000 C 226.047,80.040 224.069,82.736 242.000,79.000" stroke-width="2.380" stroke="black" fill="none" stroke-linecap="round"></path><path d="M 242.000,79.000 C 249.118,78.529 249.047,78.540 256.000,77.000" stroke-width="2.774" stroke="black" fill="none" stroke-linecap="round"></path><path d="M 256.000,77.000 C 264.431,71.119 262.618,75.529 269.000,73.000" stroke-width="2.955" stroke="black" fill="none" stroke-linecap="round"></path><path d="M 269.000,73.000 C 271.678,78.381 272.931,74.619 273.000,84.000" stroke-width="4.130" stroke="black" fill="none" stroke-linecap="round"></path><path d="M 273.000,84.000 C 271.394,89.599 273.678,86.881 273.000,90.000" stroke-width="4.521" stroke="black" fill="none" stroke-linecap="round"></path></svg>