<svg xmlns="http://www.w3.org/2000/svg" xmlns:xlink="http://www.w3.org/1999/xlink" viewBox="0 0 264 176" width="264" height="176"><path d="M 110.500,88.000 C 113.899,85.801 114.000,86.000 117.500,84.000" stroke-width="4.959" stroke="black" fill="none" stroke-linecap="round"></path><path d="M 117.500,84.000 C 121.903,81.751 121.899,81.801 126.500,80.000" stroke-width="3.750" stroke="black" fill="none" stroke-linecap="round"></path><path d="M 126.500,80.000 C 132.467,77.896 132.403,77.751 138.500,76.000" stroke-width="3.367" stroke="black" fill="none" stroke-linecap="round"></path><path d="M 138.500,76.000 C 149.819,71.526 149.967,72.396 161.500,69.000" stroke-width="2.497" stroke="black" fill="none" stroke-linecap="round"></path><path d="M 161.500,69.000 C 168.638,67.403 168.319,67.526 175.500,68.000" stroke-width="2.879" stroke="black" fill="none" stroke-linecap="round"></path><path d="M 175.500,68.000 C 180.165,69.142 180.138,68.403 184.500,71.000" stroke-width="3.306" stroke="black" fill="none" stroke-linecap="round"></path><path d="M 184.500,71.000 C 187.877,71.769 187.165,72.142 189.500,74.000" stroke-width="3.838" stroke="black" fill="none" stroke-linecap="round"></path><path d="M 189.500,74.000 C 192.626,77.837 191.877,77.269 192.500,82.000" stroke-width="3.717" stroke="black" fill="none" stroke-linecap="round"></path><path d="M 192.500,82.000 C 192.991,95.772 192.126,94.337 188.500,107.000" stroke-width="2.487" stroke="black" fill="none" stroke-linecap="round"></path><path d="M 188.500,107.000 C 184.298,113.135 185.991,113.272 178.500,117.000" stroke-width="2.816" stroke="black" fill="none" stroke-linecap="round"></path><path d="M 178.500,117.000 C 170.417,122.640 170.798,122.135 161.500,125.000" stroke-width="2.652" stroke="black" fill="none" stroke-linecap="round"></path><path d="M 161.500,125.000 C 152.797,126.889 153.417,127.140 144.500,126.000" stroke-width="2.703" stroke="black" fill="none" stroke-linecap="round"></path><path d="M 144.500,126.000 C 137.425,125.925 138.797,125.389 133.500,122.000" stroke-width="3.007" stroke="black" fill="none" stroke-linecap="round"></path><path d="M 133.500,122.000 C 124.758,113.595 126.425,114.925 122.500,104.000" stroke-width="2.575" stroke="black" fill="none" stroke-linecap="round"></path><path d="M 122.500,104.000 C 121.921,94.903 120.758,96.595 125.500,88.000" stroke-width="2.660" stroke="black" fill="none" stroke-linecap="round"></path><path d="M 125.500,88.000 C 130.620,82.069 128.921,81.403 136.500,77.000" stroke-width="2.791" stroke="black" fill="none" stroke-linecap="round"></path><path d="M 136.500,77.000 C 144.590,68.097 145.120,69.569 154.500,63.000" stroke-width="2.443" stroke="black" fill="none" stroke-linecap="round"></path><path d="M 154.500,63.000 C 163.106,59.336 162.090,59.097 171.500,59.000" stroke-width="2.666" stroke="black" fill="none" stroke-linecap="round"></path><path d="M 171.500,59.000 C 176.871,59.371 175.606,58.836 179.500,62.000" stroke-width="3.715" stroke="black" fill="none" stroke-linecap="round"></path><path d="M 179.500,62.000 C 180.248,64.979 181.371,63.871 180.500,68.000" stroke-width="4.004" stroke="black" fill="none" stroke-linecap="round"></path><path d="M 180.500,68.000 C 181.570,71.324 180.748,70.979 180.500,74.000" stroke-width="4.065" stroke="black" fill="none" stroke-linecap="round"></path><path d="M 180.500,74.000 C 177.277,78.371 178.570,78.824 174.500,83.000" stroke-width="3.541" stroke="black" fill="none" stroke-linecap="round"></path><path d="M 174.500,83.000 C 173.105,86.058 172.777,85.871 171.500,89.000" stroke-width="3.872" stroke="black" fill="none" stroke-linecap="round"></path><path d="M 171.500,89.000 C 169.404,91.288 170.105,91.558 168.500,94.000" stroke-width="4.088" stroke="black" fill="none" stroke-linecap="round"></path></svg>