<svg xmlns="http://www.w3.org/2000/svg" xmlns:xlink="http://www.w3.org/1999/xlink" viewBox="0 0 264 256" width="264" height="256"><path d="M 118.000,112.250 C 110.368,111.434 115.000,112.250 112.000,112.250" stroke-width="5.344" stroke="black" fill="none" stroke-linecap="round"></path><path d="M 112.000,112.250 C 122.853,116.747 118.368,115.434 134.000,120.250" stroke-width="3.682" stroke="black" fill="none" stroke-linecap="round"></path><path d="M 134.000,120.250 C 140.588,121.469 140.353,122.247 147.000,123.250" stroke-width="3.294" stroke="black" fill="none" stroke-linecap="round"></path><path d="M 147.000,123.250 C 150.820,122.975 149.588,123.969 152.000,125.250" stroke-width="3.922" stroke="black" fill="none" stroke-linecap="round"></path><path d="M 152.000,125.250 C 158.247,137.519 157.820,136.475 161.000,150.250" stroke-width="3.321" stroke="black" fill="none" stroke-linecap="round"></path><path d="M 161.000,150.250 C 161.424,156.426 162.247,156.019 160.000,162.250" stroke-width="3.355" stroke="black" fill="none" stroke-linecap="round"></path><path d="M 160.000,162.250 C 156.003,179.243 155.924,178.926 150.000,195.250" stroke-width="2.211" stroke="black" fill="none" stroke-linecap="round"></path><path d="M 150.000,195.250 C 147.980,199.270 148.503,199.243 145.000,202.250" stroke-width="3.058" stroke="black" fill="none" stroke-linecap="round"></path><path d="M 145.000,202.250 C 142.500,203.750 142.980,204.270 140.000,205.250" stroke-width="3.770" stroke="black" fill="none" stroke-linecap="round"></path><path d="M 140.000,205.250 C 135.313,210.234 137.500,206.750 135.000,208.250" stroke-width="4.411" stroke="black" fill="none" stroke-linecap="round"></path><path d="M 135.000,208.250 C 134.298,196.788 133.813,200.734 137.000,186.250" stroke-width="2.824" stroke="black" fill="none" stroke-linecap="round"></path><path d="M 137.000,186.250 C 140.359,177.371 139.298,177.288 145.000,169.250" stroke-width="2.654" stroke="black" fill="none" stroke-linecap="round"></path><path d="M 145.000,169.250 C 148.790,163.582 148.359,163.371 153.000,158.250" stroke-width="2.967" stroke="black" fill="none" stroke-linecap="round"></path><path d="M 153.000,158.250 C 155.869,153.463 156.290,154.082 160.000,150.250" stroke-width="3.296" stroke="black" fill="none" stroke-linecap="round"></path><path d="M 160.000,150.250 C 165.252,146.279 164.869,146.463 171.000,144.250" stroke-width="3.255" stroke="black" fill="none" stroke-linecap="round"></path><path d="M 171.000,144.250 C 174.875,142.834 173.752,143.279 177.000,144.250" stroke-width="4.180" stroke="black" fill="none" stroke-linecap="round"></path><path d="M 177.000,144.250 C 179.208,147.083 179.375,145.834 180.000,150.250" stroke-width="4.026" stroke="black" fill="none" stroke-linecap="round"></path><path d="M 180.000,150.250 C 180.708,153.417 180.708,153.083 180.000,156.250" stroke-width="4.117" stroke="black" fill="none" stroke-linecap="round"></path><path d="M 180.000,156.250 C 178.500,159.250 179.208,159.417 177.000,162.250" stroke-width="4.008" stroke="black" fill="none" stroke-linecap="round"></path><path d="M 177.000,162.250 C 174.242,166.026 175.000,166.250 173.000,170.250" stroke-width="3.719" stroke="black" fill="none" stroke-linecap="round"></path><path d="M 173.000,170.250 C 172.000,174.764 171.742,174.526 172.000,179.250" stroke-width="4.197" stroke="black" fill="none" stroke-linecap="round"></path><path d="M 172.000,179.250 C 171.150,183.631 172.000,182.264 173.000,185.250" stroke-width="4.609" stroke="black" fill="none" stroke-linecap="round"></path><path d="M 173.000,185.250 C 176.689,186.912 175.150,187.131 180.000,186.250" stroke-width="4.828" stroke="black" fill="none" stroke-linecap="round"></path><path d="M 180.000,186.250 C 190.092,184.342 184.189,185.412 188.000,182.250" stroke-width="3.904" stroke="black" fill="none" stroke-linecap="round"></path><path d="M 188.000,182.250 C 175.999,171.956 181.092,175.342 162.000,168.250" stroke-width="3.879" stroke="black" fill="none" stroke-linecap="round"></path><path d="M 162.000,168.250 C 140.948,166.679 141.999,162.956 120.000,164.250" stroke-width="1.958" stroke="black" fill="none" stroke-linecap="round"></path><path d="M 120.000,164.250 C 105.979,163.819 106.448,162.679 93.000,160.250" stroke-width="2.041" stroke="black" fill="none" stroke-linecap="round"></path><path d="M 93.000,160.250 C 85.448,157.987 85.979,158.319 80.000,153.250" stroke-width="2.635" stroke="black" fill="none" stroke-linecap="round"></path><path d="M 80.000,153.250 C 74.538,147.057 73.948,147.987 70.000,140.250" stroke-width="2.791" stroke="black" fill="none" stroke-linecap="round"></path><path d="M 70.000,140.250 C 63.890,133.810 65.538,133.557 62.000,126.250" stroke-width="2.798" stroke="black" fill="none" stroke-linecap="round"></path><path d="M 62.000,126.250 C 60.788,117.036 59.890,117.810 62.000,108.250" stroke-width="2.808" stroke="black" fill="none" stroke-linecap="round"></path><path d="M 62.000,108.250 C 62.549,101.791 62.788,102.536 66.000,97.250" stroke-width="3.103" stroke="black" fill="none" stroke-linecap="round"></path><path d="M 66.000,97.250 C 73.075,89.734 72.049,89.291 81.000,83.250" stroke-width="2.693" stroke="black" fill="none" stroke-linecap="round"></path><path d="M 81.000,83.250 C 89.184,75.158 89.575,76.234 99.000,70.250" stroke-width="2.510" stroke="black" fill="none" stroke-linecap="round"></path><path d="M 99.000,70.250 C 110.780,64.501 110.184,64.658 123.000,62.250" stroke-width="2.269" stroke="black" fill="none" stroke-linecap="round"></path><path d="M 123.000,62.250 C 130.106,62.216 129.780,61.001 137.000,63.250" stroke-width="2.782" stroke="black" fill="none" stroke-linecap="round"></path><path d="M 137.000,63.250 C 140.361,63.666 140.106,63.716 143.000,65.250" stroke-width="3.590" stroke="black" fill="none" stroke-linecap="round"></path><path d="M 143.000,65.250 C 146.394,66.673 145.361,66.666 147.000,69.250" stroke-width="3.968" stroke="black" fill="none" stroke-linecap="round"></path><path d="M 147.000,69.250 C 147.224,75.757 148.394,75.173 147.000,82.250" stroke-width="4.038" stroke="black" fill="none" stroke-linecap="round"></path><path d="M 147.000,82.250 C 145.725,90.285 146.724,90.257 146.000,98.250" stroke-width="3.164" stroke="black" fill="none" stroke-linecap="round"></path><path d="M 146.000,98.250 C 145.129,105.768 146.225,104.785 148.000,111.250" stroke-width="3.110" stroke="black" fill="none" stroke-linecap="round"></path><path d="M 148.000,111.250 C 152.309,115.497 150.629,116.268 157.000,119.250" stroke-width="3.236" stroke="black" fill="none" stroke-linecap="round"></path><path d="M 47.000,14.000 C 48.392,19.533 48.500,19.500 50.000,25.000" stroke-width="5.071" stroke="black" fill="none" stroke-linecap="round"></path><path d="M 50.000,25.000 C 51.525,27.915 50.892,28.033 52.000,31.000" stroke-width="4.296" stroke="black" fill="none" stroke-linecap="round"></path><path d="M 52.000,31.000 C 52.525,34.585 52.525,34.415 52.000,38.000" stroke-width="4.073" stroke="black" fill="none" stroke-linecap="round"></path><path d="M 52.000,38.000 C 50.830,40.955 51.525,41.085 50.000,44.000" stroke-width="4.520" stroke="black" fill="none" stroke-linecap="round"></path><path d="M 50.000,44.000 C 49.500,46.500 49.330,46.455 49.000,49.000" stroke-width="4.339" stroke="black" fill="none" stroke-linecap="round"></path><path d="M 49.000,49.000 C 46.644,53.225 48.500,51.500 48.000,54.000" stroke-width="4.854" stroke="black" fill="none" stroke-linecap="round"></path><path d="M 48.000,54.000 C 51.994,53.445 50.144,55.225 56.000,53.000" stroke-width="5.000" stroke="black" fill="none" stroke-linecap="round"></path><path d="M 56.000,53.000 C 61.056,52.824 60.994,52.445 66.000,52.000" stroke-width="3.938" stroke="black" fill="none" stroke-linecap="round"></path><path d="M 66.000,52.000 C 70.192,51.464 70.056,51.324 74.000,50.000" stroke-width="3.777" stroke="black" fill="none" stroke-linecap="round"></path><path d="M 74.000,50.000 C 76.645,48.713 76.692,48.964 79.000,47.000" stroke-width="4.012" stroke="black" fill="none" stroke-linecap="round"></path><path d="M 79.000,47.000 C 87.300,40.214 87.645,40.713 96.000,34.000" stroke-width="2.735" stroke="black" fill="none" stroke-linecap="round"></path><path d="M 96.000,34.000 C 101.276,30.030 101.300,30.214 107.000,27.000" stroke-width="3.034" stroke="black" fill="none" stroke-linecap="round"></path><path d="M 107.000,27.000 C 109.942,25.765 109.776,25.530 113.000,25.000" stroke-width="3.626" stroke="black" fill="none" stroke-linecap="round"></path><path d="M 113.000,25.000 C 116.058,23.755 115.942,24.265 119.000,24.000" stroke-width="3.929" stroke="black" fill="none" stroke-linecap="round"></path><path d="M 119.000,24.000 C 123.576,23.864 122.058,24.255 125.000,26.000" stroke-width="4.611" stroke="black" fill="none" stroke-linecap="round"></path><path d="M 125.000,26.000 C 125.268,29.522 126.576,28.364 125.000,33.000" stroke-width="4.099" stroke="black" fill="none" stroke-linecap="round"></path><path d="M 125.000,33.000 C 122.488,37.704 124.768,36.022 124.000,39.000" stroke-width="4.534" stroke="black" fill="none" stroke-linecap="round"></path><path d="M 124.000,39.000 C 128.000,39.000 125.988,40.704 132.000,39.000" stroke-width="4.917" stroke="black" fill="none" stroke-linecap="round"></path><path d="M 132.000,39.000 C 136.554,38.506 136.500,39.000 141.000,39.000" stroke-width="3.979" stroke="black" fill="none" stroke-linecap="round"></path><path d="M 141.000,39.000 C 145.493,40.034 145.554,39.506 150.000,41.000" stroke-width="3.619" stroke="black" fill="none" stroke-linecap="round"></path><path d="M 150.000,41.000 C 152.828,40.815 152.493,41.534 155.000,42.000" stroke-width="4.049" stroke="black" fill="none" stroke-linecap="round"></path><path d="M 155.000,42.000 C 159.089,43.688 158.328,43.815 161.000,47.000" stroke-width="3.911" stroke="black" fill="none" stroke-linecap="round"></path><path d="M 161.000,47.000 C 166.726,57.195 166.589,56.688 170.000,68.000" stroke-width="2.785" stroke="black" fill="none" stroke-linecap="round"></path><path d="M 170.000,68.000 C 170.684,73.992 171.726,73.695 171.000,80.000" stroke-width="3.122" stroke="black" fill="none" stroke-linecap="round"></path><path d="M 171.000,80.000 C 168.775,84.488 171.184,83.492 171.000,87.000" stroke-width="3.679" stroke="black" fill="none" stroke-linecap="round"></path></svg>