<svg xmlns="http://www.w3.org/2000/svg" xmlns:xlink="http://www.w3.org/1999/xlink" viewBox="0 0 264 256" width="264" height="256"><path d="M 93.500,89.250 C 96.830,90.847 96.500,91.250 99.500,93.250" stroke-width="5.396" stroke="black" fill="none" stroke-linecap="round"></path><path d="M 99.500,93.250 C 106.202,100.587 106.830,99.847 113.500,107.250" stroke-width="3.077" stroke="black" fill="none" stroke-linecap="round"></path><path d="M 113.500,107.250 C 118.613,110.147 117.702,111.087 122.500,114.250" stroke-width="3.219" stroke="black" fill="none" stroke-linecap="round"></path><path d="M 122.500,114.250 C 127.224,120.092 127.613,119.647 131.500,126.250" stroke-width="3.112" stroke="black" fill="none" stroke-linecap="round"></path><path d="M 131.500,126.250 C 138.418,139.222 139.724,138.092 147.500,150.250" stroke-width="2.246" stroke="black" fill="none" stroke-linecap="round"></path><path d="M 147.500,150.250 C 154.005,154.755 152.418,156.222 159.500,160.250" stroke-width="2.732" stroke="black" fill="none" stroke-linecap="round"></path><path d="M 159.500,160.250 C 163.897,164.984 164.005,164.755 167.500,170.250" stroke-width="2.995" stroke="black" fill="none" stroke-linecap="round"></path><path d="M 167.500,170.250 C 169.710,178.996 170.397,174.484 172.500,179.250" stroke-width="3.282" stroke="black" fill="none" stroke-linecap="round"></path><path d="M 172.500,179.250 C 174.811,174.505 175.210,179.496 178.500,171.250" stroke-width="4.329" stroke="black" fill="none" stroke-linecap="round"></path><path d="M 178.500,171.250 C 183.847,167.480 183.311,167.005 189.500,164.250" stroke-width="3.458" stroke="black" fill="none" stroke-linecap="round"></path><path d="M 189.500,164.250 C 194.251,160.908 194.347,161.480 199.500,159.250" stroke-width="3.412" stroke="black" fill="none" stroke-linecap="round"></path><path d="M 199.500,159.250 C 203.988,158.532 203.751,157.908 208.500,158.250" stroke-width="3.589" stroke="black" fill="none" stroke-linecap="round"></path><path d="M 208.500,158.250 C 212.181,157.484 211.988,158.032 215.500,158.250" stroke-width="3.900" stroke="black" fill="none" stroke-linecap="round"></path><path d="M 215.500,158.250 C 219.651,158.579 218.681,158.984 221.500,161.250" stroke-width="3.944" stroke="black" fill="none" stroke-linecap="round"></path><path d="M 221.500,161.250 C 228.914,172.403 228.651,171.579 233.500,184.250" stroke-width="2.561" stroke="black" fill="none" stroke-linecap="round"></path><path d="M 233.500,184.250 C 234.186,188.361 234.914,187.903 233.500,192.250" stroke-width="3.292" stroke="black" fill="none" stroke-linecap="round"></path><path d="M 233.500,192.250 C 232.052,196.768 232.686,196.861 230.500,201.250" stroke-width="3.508" stroke="black" fill="none" stroke-linecap="round"></path><path d="M 230.500,201.250 C 227.448,209.732 227.552,209.768 224.500,218.250" stroke-width="2.925" stroke="black" fill="none" stroke-linecap="round"></path><path d="M 224.500,218.250 C 223.164,222.812 222.948,222.732 221.500,227.250" stroke-width="3.373" stroke="black" fill="none" stroke-linecap="round"></path><path d="M 221.500,227.250 C 219.339,230.614 220.164,230.812 218.500,234.250" stroke-width="4.115" stroke="black" fill="none" stroke-linecap="round"></path><path d="M 218.500,234.250 C 216.543,240.099 217.839,237.114 218.500,240.250" stroke-width="4.796" stroke="black" fill="none" stroke-linecap="round"></path><path d="M 218.500,240.250 C 225.371,238.448 223.043,240.599 231.500,235.250" stroke-width="4.175" stroke="black" fill="none" stroke-linecap="round"></path><path d="M 231.500,235.250 C 236.355,231.524 236.871,232.448 241.500,228.250" stroke-width="3.501" stroke="black" fill="none" stroke-linecap="round"></path><path d="M 241.500,228.250 C 247.189,223.955 247.355,224.524 253.500,221.250" stroke-width="3.207" stroke="black" fill="none" stroke-linecap="round"></path><path d="M 253.500,221.250 C 262.653,215.588 257.689,219.455 262.500,219.250" stroke-width="3.549" stroke="black" fill="none" stroke-linecap="round"></path><path d="M 76.500,164.250 C 70.967,162.858 71.000,162.750 65.500,161.250" stroke-width="5.241" stroke="black" fill="none" stroke-linecap="round"></path><path d="M 65.500,161.250 C 62.212,160.800 62.467,160.358 59.500,159.250" stroke-width="4.331" stroke="black" fill="none" stroke-linecap="round"></path><path d="M 59.500,159.250 C 54.844,156.912 55.212,156.800 51.500,153.250" stroke-width="3.614" stroke="black" fill="none" stroke-linecap="round"></path><path d="M 51.500,153.250 C 45.369,144.427 44.344,145.412 38.500,136.250" stroke-width="2.675" stroke="black" fill="none" stroke-linecap="round"></path><path d="M 38.500,136.250 C 34.174,132.536 34.869,131.927 30.500,128.250" stroke-width="3.081" stroke="black" fill="none" stroke-linecap="round"></path><path d="M 30.500,128.250 C 24.973,122.091 25.174,122.036 20.500,115.250" stroke-width="2.983" stroke="black" fill="none" stroke-linecap="round"></path><path d="M 20.500,115.250 C 16.797,108.845 16.473,109.091 13.500,102.250" stroke-width="2.942" stroke="black" fill="none" stroke-linecap="round"></path><path d="M 13.500,102.250 C 9.833,97.944 12.297,99.845 11.500,97.250" stroke-width="4.170" stroke="black" fill="none" stroke-linecap="round"></path><path d="M 11.500,97.250 C 18.554,97.901 15.833,95.444 25.500,97.250" stroke-width="4.809" stroke="black" fill="none" stroke-linecap="round"></path><path d="M 25.500,97.250 C 34.595,96.209 34.554,96.401 43.500,94.250" stroke-width="3.121" stroke="black" fill="none" stroke-linecap="round"></path><path d="M 43.500,94.250 C 59.631,90.679 59.595,90.709 75.500,86.250" stroke-width="2.096" stroke="black" fill="none" stroke-linecap="round"></path><path d="M 75.500,86.250 C 81.180,84.644 81.131,84.679 86.500,82.250" stroke-width="2.831" stroke="black" fill="none" stroke-linecap="round"></path><path d="M 86.500,82.250 C 91.748,80.676 91.180,80.144 95.500,77.250" stroke-width="3.221" stroke="black" fill="none" stroke-linecap="round"></path><path d="M 95.500,77.250 C 102.552,69.295 103.248,70.176 109.500,61.250" stroke-width="2.679" stroke="black" fill="none" stroke-linecap="round"></path><path d="M 109.500,61.250 C 111.750,58.000 112.052,58.295 114.500,55.250" stroke-width="3.406" stroke="black" fill="none" stroke-linecap="round"></path><path d="M 114.500,55.250 C 117.272,52.402 117.250,52.500 120.500,50.250" stroke-width="3.659" stroke="black" fill="none" stroke-linecap="round"></path><path d="M 120.500,50.250 C 123.449,48.637 123.272,48.402 126.500,47.250" stroke-width="3.913" stroke="black" fill="none" stroke-linecap="round"></path><path d="M 126.500,47.250 C 130.982,43.868 128.949,46.137 131.500,45.250" stroke-width="4.516" stroke="black" fill="none" stroke-linecap="round"></path><path d="M 131.500,45.250 C 131.406,50.573 132.482,47.868 129.500,55.250" stroke-width="4.833" stroke="black" fill="none" stroke-linecap="round"></path><path d="M 129.500,55.250 C 125.743,64.248 125.906,64.073 120.500,72.250" stroke-width="3.055" stroke="black" fill="none" stroke-linecap="round"></path><path d="M 120.500,72.250 C 114.720,77.698 116.243,78.748 110.500,84.250" stroke-width="2.906" stroke="black" fill="none" stroke-linecap="round"></path><path d="M 110.500,84.250 C 98.325,109.095 95.720,107.198 82.500,131.250" stroke-width="1.592" stroke="black" fill="none" stroke-linecap="round"></path><path d="M 82.500,131.250 C 68.185,145.596 70.825,147.595 55.500,161.250" stroke-width="1.595" stroke="black" fill="none" stroke-linecap="round"></path><path d="M 55.500,161.250 C 46.070,175.698 44.685,174.596 35.500,189.250" stroke-width="1.724" stroke="black" fill="none" stroke-linecap="round"></path><path d="M 35.500,189.250 C 25.833,200.111 26.570,200.698 16.500,211.250" stroke-width="1.906" stroke="black" fill="none" stroke-linecap="round"></path><path d="M 16.500,211.250 C 9.573,218.133 10.333,218.611 4.500,226.250" stroke-width="2.267" stroke="black" fill="none" stroke-linecap="round"></path></svg>