<svg xmlns="http://www.w3.org/2000/svg" xmlns:xlink="http://www.w3.org/1999/xlink" viewBox="0 0 2656 1476" width="2656" height="1476"><path d="M 92.000,185.000 C 88.820,180.652 91.000,182.000 90.000,179.000" stroke-width="5.323" stroke="black" fill="none" stroke-linecap="round"></path><path d="M 90.000,179.000 C 93.710,179.234 91.320,177.152 97.000,178.000" stroke-width="4.241" stroke="black" fill="none" stroke-linecap="round"></path><path d="M 97.000,178.000 C 109.248,171.782 109.710,173.234 122.000,167.000" stroke-width="3.388" stroke="black" fill="none" stroke-linecap="round"></path><path d="M 122.000,167.000 C 129.367,163.985 129.248,164.282 137.000,163.000" stroke-width="3.178" stroke="black" fill="none" stroke-linecap="round"></path><path d="M 137.000,163.000 C 145.013,162.704 144.867,161.985 153.000,163.000" stroke-width="3.035" stroke="black" fill="none" stroke-linecap="round"></path><path d="M 153.000,163.000 C 159.159,161.962 158.513,163.204 164.000,164.000" stroke-width="3.234" stroke="black" fill="none" stroke-linecap="round"></path><path d="M 164.000,164.000 C 169.687,166.631 168.659,165.962 172.000,171.000" stroke-width="3.390" stroke="black" fill="none" stroke-linecap="round"></path><path d="M 172.000,171.000 C 173.208,176.015 174.187,175.131 173.000,181.000" stroke-width="3.435" stroke="black" fill="none" stroke-linecap="round"></path><path d="M 173.000,181.000 C 173.475,188.564 172.708,188.015 171.000,195.000" stroke-width="3.108" stroke="black" fill="none" stroke-linecap="round"></path><path d="M 171.000,195.000 C 167.544,201.446 168.475,201.564 163.000,207.000" stroke-width="3.062" stroke="black" fill="none" stroke-linecap="round"></path><path d="M 163.000,207.000 C 158.237,212.262 158.544,212.446 153.000,217.000" stroke-width="3.008" stroke="black" fill="none" stroke-linecap="round"></path><path d="M 153.000,217.000 C 147.435,221.423 147.737,221.762 142.000,226.000" stroke-width="3.047" stroke="black" fill="none" stroke-linecap="round"></path><path d="M 142.000,226.000 C 138.265,229.872 137.935,229.423 134.000,233.000" stroke-width="3.272" stroke="black" fill="none" stroke-linecap="round"></path><path d="M 134.000,233.000 C 130.643,235.319 130.765,235.372 127.000,237.000" stroke-width="3.635" stroke="black" fill="none" stroke-linecap="round"></path><path d="M 127.000,237.000 C 119.858,240.142 124.143,238.319 121.000,239.000" stroke-width="4.332" stroke="black" fill="none" stroke-linecap="round"></path><path d="M 121.000,239.000 C 127.699,231.795 124.358,235.642 136.000,228.000" stroke-width="3.759" stroke="black" fill="none" stroke-linecap="round"></path><path d="M 136.000,228.000 C 145.874,224.688 145.199,223.795 156.000,223.000" stroke-width="2.743" stroke="black" fill="none" stroke-linecap="round"></path><path d="M 156.000,223.000 C 163.992,222.243 163.874,221.688 172.000,222.000" stroke-width="2.789" stroke="black" fill="none" stroke-linecap="round"></path><path d="M 172.000,222.000 C 180.516,221.686 180.492,221.743 189.000,222.000" stroke-width="2.806" stroke="black" fill="none" stroke-linecap="round"></path><path d="M 189.000,222.000 C 194.266,221.580 194.016,222.186 199.000,223.000" stroke-width="3.324" stroke="black" fill="none" stroke-linecap="round"></path><path d="M 199.000,223.000 C 204.452,224.873 204.266,224.580 209.000,228.000" stroke-width="3.315" stroke="black" fill="none" stroke-linecap="round"></path><path d="M 209.000,228.000 C 212.436,230.667 212.452,230.373 215.000,234.000" stroke-width="3.559" stroke="black" fill="none" stroke-linecap="round"></path><path d="M 215.000,234.000 C 217.517,237.292 217.436,237.167 219.000,241.000" stroke-width="3.684" stroke="black" fill="none" stroke-linecap="round"></path><path d="M 219.000,241.000 C 220.000,245.000 220.517,244.792 221.000,249.000" stroke-width="3.756" stroke="black" fill="none" stroke-linecap="round"></path><path d="M 221.000,249.000 C 221.897,253.028 222.000,253.000 223.000,257.000" stroke-width="3.778" stroke="black" fill="none" stroke-linecap="round"></path><path d="M 223.000,257.000 C 223.874,262.276 224.397,262.028 226.000,267.000" stroke-width="4.091" stroke="black" fill="none" stroke-linecap="round"></path><path d="M 226.000,267.000 C 228.887,272.071 228.374,272.276 232.000,277.000" stroke-width="3.532" stroke="black" fill="none" stroke-linecap="round"></path><path d="M 232.000,277.000 C 234.936,281.544 234.887,281.571 238.000,286.000" stroke-width="3.465" stroke="black" fill="none" stroke-linecap="round"></path><path d="M 238.000,286.000 C 241.371,289.064 240.436,289.544 243.000,293.000" stroke-width="4.139" stroke="black" fill="none" stroke-linecap="round"></path><path d="M 243.000,293.000 C 247.127,303.867 247.371,303.564 250.000,315.000" stroke-width="2.733" stroke="black" fill="none" stroke-linecap="round"></path><path d="M 250.000,315.000 C 249.536,319.772 251.127,319.367 251.000,324.000" stroke-width="3.282" stroke="black" fill="none" stroke-linecap="round"></path><path d="M 251.000,324.000 C 254.384,332.855 254.036,332.772 259.000,341.000" stroke-width="2.763" stroke="black" fill="none" stroke-linecap="round"></path><path d="M 259.000,341.000 C 263.221,347.712 262.884,347.855 268.000,354.000" stroke-width="2.809" stroke="black" fill="none" stroke-linecap="round"></path><path d="M 268.000,354.000 C 272.275,360.847 272.721,360.212 278.000,366.000" stroke-width="2.948" stroke="black" fill="none" stroke-linecap="round"></path><path d="M 278.000,366.000 C 288.000,372.000 282.275,369.847 288.000,372.000" stroke-width="3.155" stroke="black" fill="none" stroke-linecap="round"></path><path d="M 38.000,51.000 C 41.000,51.500 41.000,51.500 44.000,52.000" stroke-width="5.214" stroke="black" fill="none" stroke-linecap="round"></path><path d="M 44.000,52.000 C 46.976,52.784 47.000,52.500 50.000,53.000" stroke-width="4.415" stroke="black" fill="none" stroke-linecap="round"></path><path d="M 50.000,53.000 C 54.000,53.000 53.976,53.284 58.000,53.000" stroke-width="3.985" stroke="black" fill="none" stroke-linecap="round"></path><path d="M 58.000,53.000 C 63.049,53.495 63.000,53.000 68.000,53.000" stroke-width="3.603" stroke="black" fill="none" stroke-linecap="round"></path><path d="M 68.000,53.000 C 72.956,51.560 73.049,52.495 78.000,51.000" stroke-width="3.484" stroke="black" fill="none" stroke-linecap="round"></path><path d="M 78.000,51.000 C 85.475,48.551 81.956,50.560 86.000,51.000" stroke-width="4.154" stroke="black" fill="none" stroke-linecap="round"></path><path d="M 86.000,51.000 C 84.844,58.850 86.975,55.551 81.000,65.000" stroke-width="3.957" stroke="black" fill="none" stroke-linecap="round"></path><path d="M 81.000,65.000 C 76.138,70.147 77.344,70.850 71.000,75.000" stroke-width="3.292" stroke="black" fill="none" stroke-linecap="round"></path><path d="M 71.000,75.000 C 67.171,78.723 67.138,78.647 63.000,82.000" stroke-width="3.408" stroke="black" fill="none" stroke-linecap="round"></path><path d="M 63.000,82.000 C 57.730,86.730 60.171,84.223 57.000,86.000" stroke-width="3.724" stroke="black" fill="none" stroke-linecap="round"></path><path d="M 57.000,86.000 C 57.268,81.444 56.230,85.230 60.000,79.000" stroke-width="4.457" stroke="black" fill="none" stroke-linecap="round"></path><path d="M 60.000,79.000 C 67.524,72.989 66.768,72.944 76.000,69.000" stroke-width="3.032" stroke="black" fill="none" stroke-linecap="round"></path><path d="M 76.000,69.000 C 84.833,65.292 84.524,64.989 94.000,63.000" stroke-width="2.760" stroke="black" fill="none" stroke-linecap="round"></path><path d="M 94.000,63.000 C 100.967,61.541 100.833,61.292 108.000,61.000" stroke-width="2.914" stroke="black" fill="none" stroke-linecap="round"></path><path d="M 108.000,61.000 C 114.000,61.000 113.967,60.541 120.000,61.000" stroke-width="3.118" stroke="black" fill="none" stroke-linecap="round"></path><path d="M 120.000,61.000 C 124.240,60.132 124.000,61.000 128.000,61.000" stroke-width="3.535" stroke="black" fill="none" stroke-linecap="round"></path><path d="M 128.000,61.000 C 132.226,61.523 130.740,61.632 133.000,64.000" stroke-width="3.927" stroke="black" fill="none" stroke-linecap="round"></path><path d="M 133.000,64.000 C 133.000,70.500 134.726,69.523 133.000,77.000" stroke-width="3.312" stroke="black" fill="none" stroke-linecap="round"></path><path d="M 133.000,77.000 C 133.230,83.008 133.000,83.000 133.000,89.000" stroke-width="3.356" stroke="black" fill="none" stroke-linecap="round"></path><path d="M 133.000,89.000 C 132.280,95.992 132.730,96.008 132.000,103.000" stroke-width="3.096" stroke="black" fill="none" stroke-linecap="round"></path><path d="M 132.000,103.000 C 131.263,108.599 131.780,108.492 132.000,114.000" stroke-width="3.313" stroke="black" fill="none" stroke-linecap="round"></path><path d="M 132.000,114.000 C 132.154,120.342 132.763,119.599 135.000,125.000" stroke-width="3.293" stroke="black" fill="none" stroke-linecap="round"></path><path d="M 135.000,125.000 C 138.307,129.989 137.654,129.342 143.000,132.000" stroke-width="3.409" stroke="black" fill="none" stroke-linecap="round"></path><path d="M 143.000,132.000 C 149.462,133.497 148.807,134.489 156.000,134.000" stroke-width="3.239" stroke="black" fill="none" stroke-linecap="round"></path><path d="M 156.000,134.000 C 162.720,135.358 162.462,134.497 169.000,134.000" stroke-width="3.779" stroke="black" fill="none" stroke-linecap="round"></path><path d="M 169.000,134.000 C 180.937,129.791 181.220,131.358 193.000,126.000" stroke-width="2.496" stroke="black" fill="none" stroke-linecap="round"></path><path d="M 193.000,126.000 C 198.457,124.320 198.437,124.291 204.000,123.000" stroke-width="3.048" stroke="black" fill="none" stroke-linecap="round"></path><path d="M 204.000,123.000 C 208.960,121.593 208.957,121.820 214.000,121.000" stroke-width="3.309" stroke="black" fill="none" stroke-linecap="round"></path><path d="M 214.000,121.000 C 217.569,120.510 217.460,120.593 221.000,121.000" stroke-width="3.755" stroke="black" fill="none" stroke-linecap="round"></path><path d="M 221.000,121.000 C 224.864,121.311 224.569,121.510 228.000,123.000" stroke-width="3.832" stroke="black" fill="none" stroke-linecap="round"></path><path d="M 228.000,123.000 C 231.250,125.250 231.364,124.811 234.000,128.000" stroke-width="3.848" stroke="black" fill="none" stroke-linecap="round"></path><path d="M 100.000,76.000 C 102.994,76.538 103.000,76.500 106.000,77.000" stroke-width="4.806" stroke="black" fill="none" stroke-linecap="round"></path><path d="M 106.000,77.000 C 109.492,77.562 109.494,77.538 113.000,78.000" stroke-width="4.191" stroke="black" fill="none" stroke-linecap="round"></path><path d="M 113.000,78.000 C 117.508,78.438 117.492,78.562 122.000,79.000" stroke-width="3.753" stroke="black" fill="none" stroke-linecap="round"></path><path d="M 122.000,79.000 C 125.500,79.500 125.508,79.438 129.000,80.000" stroke-width="3.948" stroke="black" fill="none" stroke-linecap="round"></path><path d="M 129.000,80.000 C 132.630,80.037 132.500,80.500 136.000,81.000" stroke-width="3.915" stroke="black" fill="none" stroke-linecap="round"></path><path d="M 136.000,81.000 C 139.926,81.872 139.630,82.037 143.000,84.000" stroke-width="3.842" stroke="black" fill="none" stroke-linecap="round"></path><path d="M 143.000,84.000 C 146.758,86.512 146.426,86.372 149.000,90.000" stroke-width="3.724" stroke="black" fill="none" stroke-linecap="round"></path><path d="M 149.000,90.000 C 151.208,93.843 151.258,93.512 152.000,98.000" stroke-width="3.684" stroke="black" fill="none" stroke-linecap="round"></path><path d="M 152.000,98.000 C 152.717,104.492 153.208,104.343 153.000,111.000" stroke-width="3.319" stroke="black" fill="none" stroke-linecap="round"></path><path d="M 153.000,111.000 C 153.000,116.000 153.217,115.992 153.000,121.000" stroke-width="3.472" stroke="black" fill="none" stroke-linecap="round"></path><path d="M 153.000,121.000 C 153.000,126.000 153.000,126.000 153.000,131.000" stroke-width="3.465" stroke="black" fill="none" stroke-linecap="round"></path><path d="M 153.000,131.000 C 152.282,134.647 153.000,134.500 153.000,138.000" stroke-width="3.767" stroke="black" fill="none" stroke-linecap="round"></path><path d="M 153.000,138.000 C 153.250,143.396 153.782,141.647 156.000,145.000" stroke-width="4.295" stroke="black" fill="none" stroke-linecap="round"></path><path d="M 156.000,145.000 C 160.500,145.000 159.250,146.896 165.000,145.000" stroke-width="3.844" stroke="black" fill="none" stroke-linecap="round"></path><path d="M 165.000,145.000 C 172.000,145.000 172.000,145.000 179.000,145.000" stroke-width="3.211" stroke="black" fill="none" stroke-linecap="round"></path><path d="M 179.000,145.000 C 184.500,145.000 184.500,145.000 190.000,145.000" stroke-width="3.296" stroke="black" fill="none" stroke-linecap="round"></path><path d="M 190.000,145.000 C 195.000,145.000 195.000,145.000 200.000,145.000" stroke-width="3.464" stroke="black" fill="none" stroke-linecap="round"></path><path d="M 200.000,145.000 C 203.859,143.878 203.500,145.000 207.000,145.000" stroke-width="3.767" stroke="black" fill="none" stroke-linecap="round"></path><path d="M 207.000,145.000 C 212.539,146.451 210.859,146.378 214.000,150.000" stroke-width="4.210" stroke="black" fill="none" stroke-linecap="round"></path><path d="M 214.000,150.000 C 214.167,156.003 216.039,154.951 214.000,162.000" stroke-width="3.460" stroke="black" fill="none" stroke-linecap="round"></path><path d="M 214.000,162.000 C 213.375,173.997 213.667,174.003 213.000,186.000" stroke-width="3.344" stroke="black" fill="none" stroke-linecap="round"></path><path d="M 213.000,186.000 C 213.000,190.000 212.875,189.997 213.000,194.000" stroke-width="3.667" stroke="black" fill="none" stroke-linecap="round"></path><path d="M 213.000,194.000 C 211.066,199.340 213.000,198.000 213.000,202.000" stroke-width="4.230" stroke="black" fill="none" stroke-linecap="round"></path><path d="M 213.000,202.000 C 216.878,204.176 215.066,204.840 221.000,205.000" stroke-width="4.394" stroke="black" fill="none" stroke-linecap="round"></path><path d="M 221.000,205.000 C 224.500,205.000 224.378,205.676 228.000,205.000" stroke-width="4.099" stroke="black" fill="none" stroke-linecap="round"></path><path d="M 228.000,205.000 C 231.518,204.751 231.500,205.000 235.000,205.000" stroke-width="4.018" stroke="black" fill="none" stroke-linecap="round"></path><path d="M 235.000,205.000 C 238.500,205.500 238.518,205.251 242.000,206.000" stroke-width="3.935" stroke="black" fill="none" stroke-linecap="round"></path><path d="M 242.000,206.000 C 245.506,206.462 245.500,206.500 249.000,207.000" stroke-width="3.961" stroke="black" fill="none" stroke-linecap="round"></path><path d="M 249.000,207.000 C 252.083,207.204 252.006,207.462 255.000,208.000" stroke-width="4.087" stroke="black" fill="none" stroke-linecap="round"></path><path d="M 255.000,208.000 C 258.075,208.268 257.583,208.704 260.000,210.000" stroke-width="4.171" stroke="black" fill="none" stroke-linecap="round"></path><path d="M 260.000,210.000 C 263.353,213.158 263.075,212.768 265.000,217.000" stroke-width="4.389" stroke="black" fill="none" stroke-linecap="round"></path><path d="M 265.000,217.000 C 265.462,220.506 266.353,220.158 266.000,224.000" stroke-width="4.036" stroke="black" fill="none" stroke-linecap="round"></path><path d="M 266.000,224.000 C 266.682,226.978 266.462,227.006 267.000,230.000" stroke-width="4.110" stroke="black" fill="none" stroke-linecap="round"></path><path d="M 267.000,230.000 C 267.037,236.583 267.682,236.478 268.000,243.000" stroke-width="4.055" stroke="black" fill="none" stroke-linecap="round"></path><path d="M 268.000,243.000 C 268.850,246.549 268.537,246.583 270.000,250.000" stroke-width="3.973" stroke="black" fill="none" stroke-linecap="round"></path></svg>