<svg xmlns="http://www.w3.org/2000/svg" xmlns:xlink="http://www.w3.org/1999/xlink" viewBox="0 0 264 256" width="264" height="256"><path d="M 83.000,152.000 C 78.953,151.163 79.000,151.000 75.000,150.000" stroke-width="5.312" stroke="black" fill="none" stroke-linecap="round"></path><path d="M 75.000,150.000 C 70.477,148.567 70.453,148.663 66.000,147.000" stroke-width="4.057" stroke="black" fill="none" stroke-linecap="round"></path><path d="M 66.000,147.000 C 60.452,145.120 60.477,145.067 55.000,143.000" stroke-width="3.779" stroke="black" fill="none" stroke-linecap="round"></path><path d="M 55.000,143.000 C 51.515,141.464 51.452,141.620 48.000,140.000" stroke-width="3.801" stroke="black" fill="none" stroke-linecap="round"></path><path d="M 48.000,140.000 C 42.293,139.060 45.515,138.964 43.000,138.000" stroke-width="4.119" stroke="black" fill="none" stroke-linecap="round"></path><path d="M 43.000,138.000 C 47.600,136.200 44.293,136.060 52.000,134.000" stroke-width="4.778" stroke="black" fill="none" stroke-linecap="round"></path><path d="M 52.000,134.000 C 56.441,131.388 56.600,131.700 61.000,129.000" stroke-width="3.808" stroke="black" fill="none" stroke-linecap="round"></path><path d="M 61.000,129.000 C 67.105,126.193 66.941,125.888 73.000,123.000" stroke-width="3.537" stroke="black" fill="none" stroke-linecap="round"></path><path d="M 73.000,123.000 C 78.804,119.098 79.105,119.693 85.000,116.000" stroke-width="3.151" stroke="black" fill="none" stroke-linecap="round"></path><path d="M 85.000,116.000 C 90.038,114.089 89.804,113.598 95.000,112.000" stroke-width="3.350" stroke="black" fill="none" stroke-linecap="round"></path><path d="M 95.000,112.000 C 99.433,109.827 99.538,110.089 104.000,108.000" stroke-width="3.495" stroke="black" fill="none" stroke-linecap="round"></path><path d="M 104.000,108.000 C 106.955,106.830 106.933,106.827 110.000,106.000" stroke-width="3.854" stroke="black" fill="none" stroke-linecap="round"></path><path d="M 110.000,106.000 C 115.641,104.199 112.455,105.330 115.000,105.000" stroke-width="4.133" stroke="black" fill="none" stroke-linecap="round"></path><path d="M 115.000,105.000 C 110.273,107.698 113.641,106.699 106.000,111.000" stroke-width="4.476" stroke="black" fill="none" stroke-linecap="round"></path><path d="M 106.000,111.000 C 99.005,115.995 99.273,116.198 93.000,122.000" stroke-width="3.163" stroke="black" fill="none" stroke-linecap="round"></path><path d="M 93.000,122.000 C 85.332,130.358 85.005,129.995 78.000,139.000" stroke-width="2.528" stroke="black" fill="none" stroke-linecap="round"></path><path d="M 78.000,139.000 C 71.367,146.896 71.332,146.858 65.000,155.000" stroke-width="2.478" stroke="black" fill="none" stroke-linecap="round"></path><path d="M 65.000,155.000 C 60.500,161.000 60.367,160.896 56.000,167.000" stroke-width="2.815" stroke="black" fill="none" stroke-linecap="round"></path><path d="M 56.000,167.000 C 51.585,173.066 51.500,173.000 47.000,179.000" stroke-width="2.934" stroke="black" fill="none" stroke-linecap="round"></path><path d="M 47.000,179.000 C 43.248,184.222 43.085,184.066 39.000,189.000" stroke-width="3.065" stroke="black" fill="none" stroke-linecap="round"></path><path d="M 39.000,189.000 C 35.362,193.456 35.248,193.222 31.000,197.000" stroke-width="3.277" stroke="black" fill="none" stroke-linecap="round"></path><path d="M 31.000,197.000 C 27.269,200.132 27.362,199.956 23.000,202.000" stroke-width="3.456" stroke="black" fill="none" stroke-linecap="round"></path><path d="M 23.000,202.000 C 19.028,203.137 19.269,203.632 15.000,204.000" stroke-width="3.631" stroke="black" fill="none" stroke-linecap="round"></path><path d="M 15.000,204.000 C 11.942,205.245 12.028,204.637 9.000,205.000" stroke-width="3.975" stroke="black" fill="none" stroke-linecap="round"></path><path d="M 9.000,205.000 C 4.540,205.053 5.942,204.745 3.000,203.000" stroke-width="4.483" stroke="black" fill="none" stroke-linecap="round"></path><path d="M 3.000,203.000 C 1.558,199.403 1.540,201.053 3.000,197.000" stroke-width="4.201" stroke="black" fill="none" stroke-linecap="round"></path><path d="M 3.000,197.000 C 7.017,191.900 6.058,191.903 12.000,188.000" stroke-width="3.460" stroke="black" fill="none" stroke-linecap="round"></path><path d="M 12.000,188.000 C 18.827,183.205 18.517,182.900 26.000,179.000" stroke-width="2.936" stroke="black" fill="none" stroke-linecap="round"></path><path d="M 26.000,179.000 C 33.548,175.087 33.327,174.705 41.000,171.000" stroke-width="2.848" stroke="black" fill="none" stroke-linecap="round"></path><path d="M 41.000,171.000 C 48.952,166.413 49.048,166.587 57.000,162.000" stroke-width="2.746" stroke="black" fill="none" stroke-linecap="round"></path><path d="M 57.000,162.000 C 64.558,158.106 64.452,157.913 72.000,154.000" stroke-width="2.733" stroke="black" fill="none" stroke-linecap="round"></path><path d="M 72.000,154.000 C 79.138,150.223 79.058,150.106 86.000,146.000" stroke-width="2.781" stroke="black" fill="none" stroke-linecap="round"></path><path d="M 86.000,146.000 C 92.049,142.071 92.138,142.223 98.000,138.000" stroke-width="2.959" stroke="black" fill="none" stroke-linecap="round"></path><path d="M 98.000,138.000 C 101.348,135.247 101.549,135.571 105.000,133.000" stroke-width="3.463" stroke="black" fill="none" stroke-linecap="round"></path><path d="M 105.000,133.000 C 111.240,130.240 107.848,131.247 111.000,130.000" stroke-width="4.244" stroke="black" fill="none" stroke-linecap="round"></path><path d="M 111.000,130.000 C 107.492,130.973 110.740,129.740 104.000,132.000" stroke-width="4.636" stroke="black" fill="none" stroke-linecap="round"></path><path d="M 104.000,132.000 C 98.867,133.146 98.992,133.473 94.000,135.000" stroke-width="3.883" stroke="black" fill="none" stroke-linecap="round"></path><path d="M 94.000,135.000 C 88.343,137.201 88.367,137.146 83.000,140.000" stroke-width="3.382" stroke="black" fill="none" stroke-linecap="round"></path><path d="M 83.000,140.000 C 77.492,142.407 77.843,142.701 73.000,146.000" stroke-width="3.291" stroke="black" fill="none" stroke-linecap="round"></path><path d="M 73.000,146.000 C 70.072,148.745 69.992,148.407 68.000,152.000" stroke-width="3.749" stroke="black" fill="none" stroke-linecap="round"></path><path d="M 68.000,152.000 C 66.473,154.399 66.572,154.245 66.000,157.000" stroke-width="4.100" stroke="black" fill="none" stroke-linecap="round"></path><path d="M 66.000,157.000 C 64.757,160.515 65.473,159.899 66.000,163.000" stroke-width="4.140" stroke="black" fill="none" stroke-linecap="round"></path><path d="M 66.000,163.000 C 68.438,167.356 67.757,166.515 72.000,169.000" stroke-width="4.369" stroke="black" fill="none" stroke-linecap="round"></path><path d="M 72.000,169.000 C 75.603,169.637 74.938,170.356 79.000,169.000" stroke-width="4.039" stroke="black" fill="none" stroke-linecap="round"></path><path d="M 79.000,169.000 C 83.739,168.019 83.603,168.137 88.000,166.000" stroke-width="3.784" stroke="black" fill="none" stroke-linecap="round"></path><path d="M 88.000,166.000 C 93.057,163.090 93.239,163.519 98.000,160.000" stroke-width="3.396" stroke="black" fill="none" stroke-linecap="round"></path><path d="M 98.000,160.000 C 100.839,157.702 101.057,158.090 104.000,156.000" stroke-width="3.719" stroke="black" fill="none" stroke-linecap="round"></path><path d="M 104.000,156.000 C 107.713,154.878 107.339,154.202 111.000,153.000" stroke-width="3.880" stroke="black" fill="none" stroke-linecap="round"></path><path d="M 111.000,153.000 C 118.259,149.295 114.713,150.878 118.000,148.000" stroke-width="4.251" stroke="black" fill="none" stroke-linecap="round"></path><path d="M 118.000,148.000 C 113.927,147.476 117.759,146.795 110.000,148.000" stroke-width="4.635" stroke="black" fill="none" stroke-linecap="round"></path><path d="M 110.000,148.000 C 106.002,148.153 106.427,148.476 103.000,150.000" stroke-width="4.175" stroke="black" fill="none" stroke-linecap="round"></path><path d="M 103.000,150.000 C 99.564,152.667 99.502,152.153 97.000,156.000" stroke-width="3.870" stroke="black" fill="none" stroke-linecap="round"></path><path d="M 97.000,156.000 C 93.846,159.194 94.564,159.167 93.000,163.000" stroke-width="3.778" stroke="black" fill="none" stroke-linecap="round"></path><path d="M 93.000,163.000 C 90.692,170.538 91.846,168.194 93.000,174.000" stroke-width="4.097" stroke="black" fill="none" stroke-linecap="round"></path><path d="M 93.000,174.000 C 97.035,175.233 94.692,176.538 101.000,175.000" stroke-width="4.366" stroke="black" fill="none" stroke-linecap="round"></path><path d="M 101.000,175.000 C 105.923,174.919 105.535,174.733 110.000,173.000" stroke-width="3.837" stroke="black" fill="none" stroke-linecap="round"></path><path d="M 110.000,173.000 C 114.070,170.088 114.423,170.919 118.000,167.000" stroke-width="3.625" stroke="black" fill="none" stroke-linecap="round"></path><path d="M 118.000,167.000 C 120.737,164.098 121.070,164.588 124.000,162.000" stroke-width="3.978" stroke="black" fill="none" stroke-linecap="round"></path><path d="M 124.000,162.000 C 128.065,160.119 127.737,159.598 132.000,158.000" stroke-width="3.769" stroke="black" fill="none" stroke-linecap="round"></path><path d="M 132.000,158.000 C 134.401,156.300 134.565,156.619 137.000,155.000" stroke-width="4.010" stroke="black" fill="none" stroke-linecap="round"></path><path d="M 137.000,155.000 C 139.805,154.463 139.401,153.800 142.000,153.000" stroke-width="4.147" stroke="black" fill="none" stroke-linecap="round"></path><path d="M 142.000,153.000 C 146.740,148.112 144.305,151.463 146.000,149.000" stroke-width="4.585" stroke="black" fill="none" stroke-linecap="round"></path><path d="M 146.000,149.000 C 140.904,153.594 144.240,151.112 137.000,159.000" stroke-width="4.654" stroke="black" fill="none" stroke-linecap="round"></path><path d="M 137.000,159.000 C 134.757,162.899 134.404,162.594 133.000,167.000" stroke-width="3.931" stroke="black" fill="none" stroke-linecap="round"></path><path d="M 133.000,167.000 C 130.220,172.220 131.757,169.899 131.000,173.000" stroke-width="4.466" stroke="black" fill="none" stroke-linecap="round"></path><path d="M 131.000,173.000 C 133.673,171.745 131.720,173.720 136.000,170.000" stroke-width="4.696" stroke="black" fill="none" stroke-linecap="round"></path><path d="M 136.000,170.000 C 141.144,164.982 141.673,165.745 147.000,161.000" stroke-width="3.420" stroke="black" fill="none" stroke-linecap="round"></path><path d="M 147.000,161.000 C 154.154,157.249 153.644,156.482 161.000,153.000" stroke-width="2.962" stroke="black" fill="none" stroke-linecap="round"></path><path d="M 161.000,153.000 C 168.461,147.940 168.654,148.249 176.000,143.000" stroke-width="2.733" stroke="black" fill="none" stroke-linecap="round"></path><path d="M 176.000,143.000 C 183.162,138.734 182.961,138.440 190.000,134.000" stroke-width="2.750" stroke="black" fill="none" stroke-linecap="round"></path><path d="M 190.000,134.000 C 196.148,129.682 196.162,129.734 202.000,125.000" stroke-width="2.965" stroke="black" fill="none" stroke-linecap="round"></path><path d="M 202.000,125.000 C 206.425,121.873 206.148,121.682 210.000,118.000" stroke-width="3.244" stroke="black" fill="none" stroke-linecap="round"></path><path d="M 210.000,118.000 C 212.536,115.222 212.425,115.373 214.000,112.000" stroke-width="3.708" stroke="black" fill="none" stroke-linecap="round"></path><path d="M 214.000,112.000 C 215.432,109.375 215.036,109.722 215.000,107.000" stroke-width="4.081" stroke="black" fill="none" stroke-linecap="round"></path><path d="M 215.000,107.000 C 214.447,102.468 214.432,103.875 212.000,101.000" stroke-width="4.494" stroke="black" fill="none" stroke-linecap="round"></path><path d="M 212.000,101.000 C 208.238,99.988 209.447,99.468 205.000,101.000" stroke-width="4.125" stroke="black" fill="none" stroke-linecap="round"></path><path d="M 205.000,101.000 C 200.002,102.840 200.238,102.488 196.000,106.000" stroke-width="3.607" stroke="black" fill="none" stroke-linecap="round"></path><path d="M 196.000,106.000 C 190.752,110.773 190.502,110.340 186.000,116.000" stroke-width="3.274" stroke="black" fill="none" stroke-linecap="round"></path><path d="M 186.000,116.000 C 180.721,121.788 180.752,121.773 176.000,128.000" stroke-width="3.027" stroke="black" fill="none" stroke-linecap="round"></path><path d="M 176.000,128.000 C 171.515,134.510 171.221,134.288 167.000,141.000" stroke-width="2.947" stroke="black" fill="none" stroke-linecap="round"></path><path d="M 167.000,141.000 C 163.446,145.963 163.515,146.010 160.000,151.000" stroke-width="3.169" stroke="black" fill="none" stroke-linecap="round"></path><path d="M 160.000,151.000 C 157.064,155.544 156.946,155.463 154.000,160.000" stroke-width="3.352" stroke="black" fill="none" stroke-linecap="round"></path><path d="M 154.000,160.000 C 151.153,163.310 151.564,163.544 149.000,167.000" stroke-width="3.561" stroke="black" fill="none" stroke-linecap="round"></path><path d="M 149.000,167.000 C 146.280,171.520 147.653,169.310 147.000,172.000" stroke-width="3.991" stroke="black" fill="none" stroke-linecap="round"></path><path d="M 147.000,172.000 C 149.716,170.794 147.780,172.520 152.000,169.000" stroke-width="4.611" stroke="black" fill="none" stroke-linecap="round"></path><path d="M 152.000,169.000 C 156.324,164.785 156.716,165.294 161.000,161.000" stroke-width="3.782" stroke="black" fill="none" stroke-linecap="round"></path><path d="M 161.000,161.000 C 166.698,156.011 166.824,156.285 173.000,152.000" stroke-width="3.121" stroke="black" fill="none" stroke-linecap="round"></path><path d="M 173.000,152.000 C 177.949,149.392 177.698,149.011 183.000,147.000" stroke-width="3.252" stroke="black" fill="none" stroke-linecap="round"></path><path d="M 183.000,147.000 C 187.324,144.169 187.449,144.892 192.000,143.000" stroke-width="3.511" stroke="black" fill="none" stroke-linecap="round"></path><path d="M 192.000,143.000 C 196.794,141.284 195.324,142.169 199.000,143.000" stroke-width="3.830" stroke="black" fill="none" stroke-linecap="round"></path><path d="M 199.000,143.000 C 202.364,147.272 201.294,144.784 201.000,150.000" stroke-width="4.511" stroke="black" fill="none" stroke-linecap="round"></path><path d="M 201.000,150.000 C 196.321,153.297 198.864,154.272 192.000,157.000" stroke-width="3.644" stroke="black" fill="none" stroke-linecap="round"></path><path d="M 192.000,157.000 C 188.987,159.130 189.321,159.297 187.000,162.000" stroke-width="3.820" stroke="black" fill="none" stroke-linecap="round"></path><path d="M 187.000,162.000 C 181.169,168.169 184.487,165.630 183.000,170.000" stroke-width="4.225" stroke="black" fill="none" stroke-linecap="round"></path><path d="M 183.000,170.000 C 189.774,172.153 185.669,172.669 196.000,171.000" stroke-width="4.088" stroke="black" fill="none" stroke-linecap="round"></path><path d="M 196.000,171.000 C 203.145,168.301 203.274,169.653 210.000,165.000" stroke-width="3.360" stroke="black" fill="none" stroke-linecap="round"></path><path d="M 210.000,165.000 C 216.303,161.044 216.645,161.801 223.000,158.000" stroke-width="3.107" stroke="black" fill="none" stroke-linecap="round"></path><path d="M 223.000,158.000 C 227.500,156.500 227.303,156.044 232.000,155.000" stroke-width="3.392" stroke="black" fill="none" stroke-linecap="round"></path><path d="M 232.000,155.000 C 236.555,151.374 235.000,154.000 238.000,153.000" stroke-width="3.858" stroke="black" fill="none" stroke-linecap="round"></path><path d="M 238.000,153.000 C 240.848,158.914 240.555,155.874 240.000,164.000" stroke-width="4.337" stroke="black" fill="none" stroke-linecap="round"></path><path d="M 240.000,164.000 C 237.448,167.464 239.348,167.914 235.000,171.000" stroke-width="3.838" stroke="black" fill="none" stroke-linecap="round"></path><path d="M 235.000,171.000 C 230.239,175.478 232.948,173.964 231.000,177.000" stroke-width="3.866" stroke="black" fill="none" stroke-linecap="round"></path><path d="M 231.000,177.000 C 234.896,178.307 231.739,178.478 238.000,177.000" stroke-width="4.666" stroke="black" fill="none" stroke-linecap="round"></path><path d="M 238.000,177.000 C 243.577,172.072 244.396,174.307 250.000,169.000" stroke-width="3.467" stroke="black" fill="none" stroke-linecap="round"></path><path d="M 250.000,169.000 C 255.417,166.881 255.077,166.572 261.000,166.000" stroke-width="3.396" stroke="black" fill="none" stroke-linecap="round"></path></svg>