<svg xmlns="http://www.w3.org/2000/svg" xmlns:xlink="http://www.w3.org/1999/xlink" viewBox="0 0 1430 526" width="1430" height="526"><path d="M 182.000,150.000 C 189.055,148.179 189.000,148.000 196.000,146.000" stroke-width="5.191" stroke="black" fill="none" stroke-linecap="round"></path><path d="M 196.000,146.000 C 214.794,140.743 214.555,140.179 233.000,134.000" stroke-width="2.063" stroke="black" fill="none" stroke-linecap="round"></path><path d="M 233.000,134.000 C 241.045,128.634 241.794,130.743 250.000,126.000" stroke-width="2.404" stroke="black" fill="none" stroke-linecap="round"></path><path d="M 250.000,126.000 C 266.909,120.179 266.545,121.134 284.000,119.000" stroke-width="1.926" stroke="black" fill="none" stroke-linecap="round"></path><path d="M 284.000,119.000 C 296.280,119.363 295.909,118.179 308.000,122.000" stroke-width="2.135" stroke="black" fill="none" stroke-linecap="round"></path><path d="M 308.000,122.000 C 316.910,123.685 316.280,123.863 324.000,128.000" stroke-width="2.513" stroke="black" fill="none" stroke-linecap="round"></path><path d="M 324.000,128.000 C 327.778,131.787 328.410,130.685 331.000,136.000" stroke-width="3.063" stroke="black" fill="none" stroke-linecap="round"></path><path d="M 331.000,136.000 C 335.268,140.052 334.278,140.287 337.000,145.000" stroke-width="3.262" stroke="black" fill="none" stroke-linecap="round"></path><path d="M 337.000,145.000 C 338.699,150.639 338.768,150.052 338.000,156.000" stroke-width="3.364" stroke="black" fill="none" stroke-linecap="round"></path><path d="M 338.000,156.000 C 336.396,162.182 337.199,162.139 334.000,168.000" stroke-width="3.139" stroke="black" fill="none" stroke-linecap="round"></path><path d="M 334.000,168.000 C 329.103,173.948 332.896,170.682 331.000,173.000" stroke-width="3.768" stroke="black" fill="none" stroke-linecap="round"></path><path d="M 331.000,173.000 C 344.846,162.577 342.103,167.448 360.000,155.000" stroke-width="3.374" stroke="black" fill="none" stroke-linecap="round"></path><path d="M 360.000,155.000 C 369.268,150.946 368.846,150.577 379.000,149.000" stroke-width="2.784" stroke="black" fill="none" stroke-linecap="round"></path><path d="M 379.000,149.000 C 394.476,146.764 394.268,145.946 410.000,145.000" stroke-width="2.169" stroke="black" fill="none" stroke-linecap="round"></path><path d="M 410.000,145.000 C 416.530,144.000 416.476,144.264 423.000,144.000" stroke-width="2.746" stroke="black" fill="none" stroke-linecap="round"></path><path d="M 423.000,144.000 C 427.475,142.811 425.530,144.000 428.000,145.000" stroke-width="4.059" stroke="black" fill="none" stroke-linecap="round"></path><path d="M 428.000,145.000 C 429.000,157.000 430.475,155.311 429.000,169.000" stroke-width="2.744" stroke="black" fill="none" stroke-linecap="round"></path><path d="M 429.000,169.000 C 428.240,180.494 429.000,180.500 428.000,192.000" stroke-width="2.422" stroke="black" fill="none" stroke-linecap="round"></path><path d="M 428.000,192.000 C 428.000,204.500 427.740,204.494 428.000,217.000" stroke-width="2.375" stroke="black" fill="none" stroke-linecap="round"></path><path d="M 428.000,217.000 C 427.716,221.024 428.000,221.000 428.000,225.000" stroke-width="3.233" stroke="black" fill="none" stroke-linecap="round"></path><path d="M 428.000,225.000 C 426.445,231.160 428.216,228.024 429.000,231.000" stroke-width="4.297" stroke="black" fill="none" stroke-linecap="round"></path><path d="M 429.000,231.000 C 444.383,226.436 442.445,230.160 460.000,223.000" stroke-width="2.256" stroke="black" fill="none" stroke-linecap="round"></path><path d="M 460.000,223.000 C 469.440,220.735 469.383,220.936 479.000,220.000" stroke-width="2.457" stroke="black" fill="none" stroke-linecap="round"></path><path d="M 479.000,220.000 C 489.103,219.267 488.940,219.235 499.000,220.000" stroke-width="2.545" stroke="black" fill="none" stroke-linecap="round"></path><path d="M 499.000,220.000 C 505.445,220.612 502.603,220.267 506.000,222.000" stroke-width="3.345" stroke="black" fill="none" stroke-linecap="round"></path><path d="M 506.000,222.000 C 503.795,224.365 506.445,223.112 501.000,225.000" stroke-width="4.268" stroke="black" fill="none" stroke-linecap="round"></path><path d="M 501.000,225.000 C 492.519,226.734 492.795,226.865 484.000,227.000" stroke-width="3.125" stroke="black" fill="none" stroke-linecap="round"></path><path d="M 484.000,227.000 C 476.489,226.624 476.519,227.234 469.000,226.000" stroke-width="3.026" stroke="black" fill="none" stroke-linecap="round"></path></svg>