<svg xmlns="http://www.w3.org/2000/svg" xmlns:xlink="http://www.w3.org/1999/xlink" viewBox="0 0 264 256" width="264" height="256"><path d="M 123.000,84.000 C 117.139,81.335 117.000,82.000 111.000,80.000" stroke-width="3.837" stroke="black" fill="none" stroke-linecap="round"></path><path d="M 111.000,80.000 C 105.405,78.682 105.639,78.835 100.000,79.000" stroke-width="4.134" stroke="black" fill="none" stroke-linecap="round"></path><path d="M 100.000,79.000 C 96.461,79.210 96.905,79.182 94.000,81.000" stroke-width="4.062" stroke="black" fill="none" stroke-linecap="round"></path><path d="M 94.000,81.000 C 91.340,83.880 90.961,83.210 89.000,87.000" stroke-width="3.860" stroke="black" fill="none" stroke-linecap="round"></path><path d="M 89.000,87.000 C 86.180,89.695 86.840,89.880 85.000,93.000" stroke-width="3.922" stroke="black" fill="none" stroke-linecap="round"></path><path d="M 85.000,93.000 C 84.742,97.045 83.680,96.695 84.000,101.000" stroke-width="3.734" stroke="black" fill="none" stroke-linecap="round"></path><path d="M 84.000,101.000 C 82.478,104.936 83.242,105.045 82.000,109.000" stroke-width="3.771" stroke="black" fill="none" stroke-linecap="round"></path><path d="M 82.000,109.000 C 81.531,113.546 81.478,113.436 82.000,118.000" stroke-width="4.203" stroke="black" fill="none" stroke-linecap="round"></path><path d="M 82.000,118.000 C 82.134,123.335 82.531,123.046 84.000,128.000" stroke-width="3.697" stroke="black" fill="none" stroke-linecap="round"></path><path d="M 84.000,128.000 C 86.169,133.718 86.134,133.335 90.000,138.000" stroke-width="3.375" stroke="black" fill="none" stroke-linecap="round"></path><path d="M 90.000,138.000 C 95.114,143.076 94.669,143.218 101.000,147.000" stroke-width="3.209" stroke="black" fill="none" stroke-linecap="round"></path><path d="M 101.000,147.000 C 107.104,151.622 107.114,151.076 114.000,154.000" stroke-width="3.067" stroke="black" fill="none" stroke-linecap="round"></path><path d="M 114.000,154.000 C 121.906,156.514 121.604,156.622 130.000,157.000" stroke-width="2.987" stroke="black" fill="none" stroke-linecap="round"></path><path d="M 130.000,157.000 C 147.566,159.397 146.906,158.014 164.000,157.000" stroke-width="2.111" stroke="black" fill="none" stroke-linecap="round"></path><path d="M 164.000,157.000 C 171.234,153.903 171.566,155.897 178.000,150.000" stroke-width="2.575" stroke="black" fill="none" stroke-linecap="round"></path><path d="M 178.000,150.000 C 184.367,146.447 184.234,146.403 190.000,142.000" stroke-width="2.886" stroke="black" fill="none" stroke-linecap="round"></path><path d="M 190.000,142.000 C 193.790,138.745 193.867,138.947 197.000,135.000" stroke-width="3.274" stroke="black" fill="none" stroke-linecap="round"></path><path d="M 197.000,135.000 C 200.116,131.767 199.790,131.745 202.000,128.000" stroke-width="3.584" stroke="black" fill="none" stroke-linecap="round"></path><path d="M 202.000,128.000 C 202.789,125.529 203.116,125.767 203.000,123.000" stroke-width="4.074" stroke="black" fill="none" stroke-linecap="round"></path><path d="M 203.000,123.000 C 204.331,119.043 203.289,119.529 203.000,116.000" stroke-width="4.057" stroke="black" fill="none" stroke-linecap="round"></path><path d="M 203.000,116.000 C 200.292,110.534 200.831,111.043 196.000,107.000" stroke-width="4.165" stroke="black" fill="none" stroke-linecap="round"></path><path d="M 196.000,107.000 C 191.051,104.392 191.792,103.534 186.000,102.000" stroke-width="3.528" stroke="black" fill="none" stroke-linecap="round"></path><path d="M 186.000,102.000 C 181.569,99.828 181.551,99.892 177.000,98.000" stroke-width="3.496" stroke="black" fill="none" stroke-linecap="round"></path><path d="M 177.000,98.000 C 171.626,95.534 171.569,95.828 166.000,94.000" stroke-width="3.379" stroke="black" fill="none" stroke-linecap="round"></path><path d="M 166.000,94.000 C 160.545,92.504 160.626,92.534 155.000,92.000" stroke-width="3.331" stroke="black" fill="none" stroke-linecap="round"></path><path d="M 155.000,92.000 C 149.500,92.000 149.545,91.504 144.000,92.000" stroke-width="3.390" stroke="black" fill="none" stroke-linecap="round"></path><path d="M 144.000,92.000 C 138.387,91.230 138.500,92.000 133.000,92.000" stroke-width="3.350" stroke="black" fill="none" stroke-linecap="round"></path><path d="M 133.000,92.000 C 127.666,92.790 127.887,92.730 123.000,95.000" stroke-width="3.443" stroke="black" fill="none" stroke-linecap="round"></path><path d="M 123.000,95.000 C 118.233,97.674 118.166,97.290 114.000,101.000" stroke-width="3.439" stroke="black" fill="none" stroke-linecap="round"></path><path d="M 114.000,101.000 C 111.500,103.500 111.233,103.174 109.000,106.000" stroke-width="3.750" stroke="black" fill="none" stroke-linecap="round"></path><path d="M 109.000,106.000 C 106.192,108.260 106.500,108.500 104.000,111.000" stroke-width="3.903" stroke="black" fill="none" stroke-linecap="round"></path><path d="M 104.000,111.000 C 101.839,113.272 102.192,113.260 101.000,116.000" stroke-width="4.054" stroke="black" fill="none" stroke-linecap="round"></path><path d="M 101.000,116.000 C 99.753,120.045 99.839,119.772 100.000,124.000" stroke-width="4.387" stroke="black" fill="none" stroke-linecap="round"></path><path d="M 100.000,124.000 C 100.029,128.550 100.253,128.045 102.000,132.000" stroke-width="4.466" stroke="black" fill="none" stroke-linecap="round"></path><path d="M 102.000,132.000 C 104.667,135.436 104.029,135.550 108.000,138.000" stroke-width="4.452" stroke="black" fill="none" stroke-linecap="round"></path><path d="M 108.000,138.000 C 111.357,140.319 111.167,140.436 115.000,142.000" stroke-width="4.481" stroke="black" fill="none" stroke-linecap="round"></path><path d="M 115.000,142.000 C 117.909,143.558 117.857,143.319 121.000,144.000" stroke-width="4.630" stroke="black" fill="none" stroke-linecap="round"></path><path d="M 121.000,144.000 C 125.083,144.619 124.909,144.558 129.000,144.000" stroke-width="4.626" stroke="black" fill="none" stroke-linecap="round"></path><path d="M 129.000,144.000 C 134.533,142.608 134.583,143.119 140.000,141.000" stroke-width="4.351" stroke="black" fill="none" stroke-linecap="round"></path><path d="M 140.000,141.000 C 143.110,140.265 143.033,140.108 146.000,139.000" stroke-width="4.217" stroke="black" fill="none" stroke-linecap="round"></path><path d="M 146.000,139.000 C 151.071,136.629 151.110,136.765 156.000,134.000" stroke-width="4.206" stroke="black" fill="none" stroke-linecap="round"></path><path d="M 156.000,134.000 C 158.617,132.668 158.571,132.629 161.000,131.000" stroke-width="4.194" stroke="black" fill="none" stroke-linecap="round"></path><path d="M 161.000,131.000 C 163.651,129.168 163.617,129.168 166.000,127.000" stroke-width="4.069" stroke="black" fill="none" stroke-linecap="round"></path><path d="M 166.000,127.000 C 170.143,123.132 170.151,123.168 174.000,119.000" stroke-width="4.195" stroke="black" fill="none" stroke-linecap="round"></path><path d="M 174.000,119.000 C 176.752,115.248 177.143,115.632 180.000,112.000" stroke-width="4.334" stroke="black" fill="none" stroke-linecap="round"></path><path d="M 180.000,112.000 C 183.252,109.748 182.752,109.248 186.000,107.000" stroke-width="4.482" stroke="black" fill="none" stroke-linecap="round"></path><path d="M 186.000,107.000 C 187.645,104.094 188.252,104.748 190.000,102.000" stroke-width="4.816" stroke="black" fill="none" stroke-linecap="round"></path><path d="M 190.000,102.000 C 192.500,100.500 192.145,100.094 195.000,99.000" stroke-width="5.057" stroke="black" fill="none" stroke-linecap="round"></path><path d="M 195.000,99.000 C 197.482,97.469 197.500,97.500 200.000,96.000" stroke-width="5.036" stroke="black" fill="none" stroke-linecap="round"></path><path d="M 200.000,96.000 C 203.487,93.976 203.482,93.969 207.000,92.000" stroke-width="4.683" stroke="black" fill="none" stroke-linecap="round"></path><path d="M 207.000,92.000 C 211.531,89.554 211.487,89.476 216.000,87.000" stroke-width="4.421" stroke="black" fill="none" stroke-linecap="round"></path><path d="M 216.000,87.000 C 218.500,85.500 218.531,85.554 221.000,84.000" stroke-width="4.256" stroke="black" fill="none" stroke-linecap="round"></path><path d="M 221.000,84.000 C 223.500,82.500 223.500,82.500 226.000,81.000" stroke-width="4.162" stroke="black" fill="none" stroke-linecap="round"></path><path d="M 226.000,81.000 C 228.517,79.528 228.500,79.500 231.000,78.000" stroke-width="4.134" stroke="black" fill="none" stroke-linecap="round"></path><path d="M 231.000,78.000 C 235.170,75.735 235.017,75.528 239.000,73.000" stroke-width="4.299" stroke="black" fill="none" stroke-linecap="round"></path><path d="M 239.000,73.000 C 241.851,70.290 242.170,70.735 245.000,68.000" stroke-width="4.488" stroke="black" fill="none" stroke-linecap="round"></path><path d="M 245.000,68.000 C 251.217,65.000 247.351,66.290 250.000,65.000" stroke-width="4.689" stroke="black" fill="none" stroke-linecap="round"></path><path d="M 250.000,65.000 C 243.257,65.824 247.217,65.000 237.000,68.000" stroke-width="5.011" stroke="black" fill="none" stroke-linecap="round"></path><path d="M 237.000,68.000 C 232.121,70.774 231.757,69.824 227.000,73.000" stroke-width="3.822" stroke="black" fill="none" stroke-linecap="round"></path><path d="M 227.000,73.000 C 220.410,75.288 220.621,75.774 214.000,78.000" stroke-width="3.140" stroke="black" fill="none" stroke-linecap="round"></path><path d="M 214.000,78.000 C 207.611,81.265 207.410,80.788 201.000,84.000" stroke-width="3.322" stroke="black" fill="none" stroke-linecap="round"></path><path d="M 201.000,84.000 C 192.963,86.903 193.111,87.265 185.000,90.000" stroke-width="2.876" stroke="black" fill="none" stroke-linecap="round"></path><path d="M 185.000,90.000 C 174.868,93.698 174.963,93.903 165.000,98.000" stroke-width="2.523" stroke="black" fill="none" stroke-linecap="round"></path><path d="M 165.000,98.000 C 155.495,102.490 155.368,102.198 146.000,107.000" stroke-width="2.517" stroke="black" fill="none" stroke-linecap="round"></path><path d="M 146.000,107.000 C 135.300,111.616 135.495,111.990 125.000,117.000" stroke-width="2.416" stroke="black" fill="none" stroke-linecap="round"></path><path d="M 125.000,117.000 C 113.129,122.918 113.300,123.116 102.000,130.000" stroke-width="2.202" stroke="black" fill="none" stroke-linecap="round"></path><path d="M 102.000,130.000 C 91.191,137.102 91.129,136.918 81.000,145.000" stroke-width="2.224" stroke="black" fill="none" stroke-linecap="round"></path><path d="M 81.000,145.000 C 71.520,153.024 71.191,152.602 62.000,161.000" stroke-width="2.267" stroke="black" fill="none" stroke-linecap="round"></path><path d="M 62.000,161.000 C 53.000,168.500 53.020,168.524 44.000,176.000" stroke-width="2.278" stroke="black" fill="none" stroke-linecap="round"></path><path d="M 44.000,176.000 C 38.070,181.086 38.000,181.000 32.000,186.000" stroke-width="2.648" stroke="black" fill="none" stroke-linecap="round"></path><path d="M 32.000,186.000 C 27.594,189.631 27.570,189.586 23.000,193.000" stroke-width="3.113" stroke="black" fill="none" stroke-linecap="round"></path></svg>