<svg xmlns="http://www.w3.org/2000/svg" xmlns:xlink="http://www.w3.org/1999/xlink" viewBox="0 0 264 256" width="264" height="256"><path d="M 150.500,153.750 C 152.266,159.195 152.000,159.250 153.500,164.750" stroke-width="4.974" stroke="black" fill="none" stroke-linecap="round"></path><path d="M 153.500,164.750 C 154.249,168.232 154.266,168.195 154.500,171.750" stroke-width="4.171" stroke="black" fill="none" stroke-linecap="round"></path><path d="M 154.500,171.750 C 156.029,175.883 154.749,175.232 154.500,178.750" stroke-width="4.039" stroke="black" fill="none" stroke-linecap="round"></path><path d="M 154.500,178.750 C 151.543,184.837 152.029,183.383 146.500,186.750" stroke-width="3.418" stroke="black" fill="none" stroke-linecap="round"></path><path d="M 146.500,186.750 C 135.159,191.838 137.043,190.337 125.500,189.750" stroke-width="2.651" stroke="black" fill="none" stroke-linecap="round"></path><path d="M 125.500,189.750 C 116.399,185.458 116.659,187.838 109.500,178.750" stroke-width="2.573" stroke="black" fill="none" stroke-linecap="round"></path><path d="M 109.500,178.750 C 98.172,167.618 98.399,167.958 89.500,154.750" stroke-width="2.066" stroke="black" fill="none" stroke-linecap="round"></path><path d="M 89.500,154.750 C 82.735,144.153 82.672,144.618 78.500,132.750" stroke-width="2.169" stroke="black" fill="none" stroke-linecap="round"></path><path d="M 78.500,132.750 C 72.767,123.931 76.235,126.653 76.500,119.750" stroke-width="3.202" stroke="black" fill="none" stroke-linecap="round"></path><path d="M 76.500,119.750 C 89.220,109.510 85.267,109.931 103.500,104.750" stroke-width="2.108" stroke="black" fill="none" stroke-linecap="round"></path><path d="M 103.500,104.750 C 113.995,104.026 113.220,101.510 124.500,103.750" stroke-width="2.267" stroke="black" fill="none" stroke-linecap="round"></path><path d="M 124.500,103.750 C 133.098,103.050 132.995,103.526 141.500,103.750" stroke-width="2.671" stroke="black" fill="none" stroke-linecap="round"></path><path d="M 141.500,103.750 C 144.971,104.868 145.098,104.050 148.500,105.750" stroke-width="3.448" stroke="black" fill="none" stroke-linecap="round"></path><path d="M 148.500,105.750 C 152.083,104.782 150.971,106.368 153.500,106.750" stroke-width="3.982" stroke="black" fill="none" stroke-linecap="round"></path><path d="M 153.500,106.750 C 164.082,117.937 161.083,117.282 166.500,130.750" stroke-width="3.337" stroke="black" fill="none" stroke-linecap="round"></path><path d="M 166.500,130.750 C 166.073,145.457 169.082,144.437 163.500,159.750" stroke-width="2.192" stroke="black" fill="none" stroke-linecap="round"></path><path d="M 163.500,159.750 C 161.259,170.601 161.573,170.457 157.500,180.750" stroke-width="2.374" stroke="black" fill="none" stroke-linecap="round"></path><path d="M 157.500,180.750 C 156.555,185.562 156.259,184.101 153.500,186.750" stroke-width="3.608" stroke="black" fill="none" stroke-linecap="round"></path><path d="M 153.500,186.750 C 143.622,192.156 147.555,189.062 139.500,187.750" stroke-width="3.157" stroke="black" fill="none" stroke-linecap="round"></path><path d="M 139.500,187.750 C 130.344,172.186 129.122,176.656 124.500,155.750" stroke-width="2.091" stroke="black" fill="none" stroke-linecap="round"></path><path d="M 124.500,155.750 C 123.500,149.238 122.344,149.686 123.500,142.750" stroke-width="2.752" stroke="black" fill="none" stroke-linecap="round"></path></svg>