<svg xmlns="http://www.w3.org/2000/svg" xmlns:xlink="http://www.w3.org/1999/xlink" viewBox="0 0 264 256" width="264" height="256"><path d="M 62.000,104.000 C 67.016,103.623 67.000,103.500 72.000,103.000" stroke-width="5.007" stroke="black" fill="none" stroke-linecap="round"></path><path d="M 72.000,103.000 C 75.011,102.560 75.016,102.623 78.000,102.000" stroke-width="4.417" stroke="black" fill="none" stroke-linecap="round"></path><path d="M 78.000,102.000 C 83.000,101.000 83.011,101.060 88.000,100.000" stroke-width="3.804" stroke="black" fill="none" stroke-linecap="round"></path><path d="M 88.000,100.000 C 92.963,98.755 93.000,99.000 98.000,98.000" stroke-width="3.598" stroke="black" fill="none" stroke-linecap="round"></path><path d="M 98.000,98.000 C 102.988,97.264 102.963,97.255 108.000,97.000" stroke-width="3.497" stroke="black" fill="none" stroke-linecap="round"></path><path d="M 108.000,97.000 C 112.500,97.000 112.488,96.764 117.000,97.000" stroke-width="3.568" stroke="black" fill="none" stroke-linecap="round"></path><path d="M 117.000,97.000 C 121.000,97.000 121.000,97.000 125.000,97.000" stroke-width="3.833" stroke="black" fill="none" stroke-linecap="round"></path><path d="M 125.000,97.000 C 129.030,96.695 129.000,97.000 133.000,97.000" stroke-width="3.774" stroke="black" fill="none" stroke-linecap="round"></path><path d="M 133.000,97.000 C 136.396,96.396 135.530,97.195 138.000,98.000" stroke-width="4.105" stroke="black" fill="none" stroke-linecap="round"></path><path d="M 138.000,98.000 C 140.218,101.353 140.396,100.396 141.000,105.000" stroke-width="4.403" stroke="black" fill="none" stroke-linecap="round"></path><path d="M 141.000,105.000 C 142.450,109.101 141.718,108.353 141.000,112.000" stroke-width="4.048" stroke="black" fill="none" stroke-linecap="round"></path><path d="M 141.000,112.000 C 137.731,115.766 138.950,116.101 134.000,119.000" stroke-width="3.629" stroke="black" fill="none" stroke-linecap="round"></path><path d="M 134.000,119.000 C 130.188,122.290 130.231,122.266 126.000,125.000" stroke-width="3.510" stroke="black" fill="none" stroke-linecap="round"></path><path d="M 126.000,125.000 C 121.598,127.701 121.688,127.790 117.000,130.000" stroke-width="3.558" stroke="black" fill="none" stroke-linecap="round"></path><path d="M 117.000,130.000 C 113.655,132.086 113.598,131.701 110.000,133.000" stroke-width="3.780" stroke="black" fill="none" stroke-linecap="round"></path><path d="M 110.000,133.000 C 105.513,133.735 105.655,134.086 101.000,134.000" stroke-width="3.702" stroke="black" fill="none" stroke-linecap="round"></path><path d="M 101.000,134.000 C 97.000,134.000 97.013,134.235 93.000,134.000" stroke-width="3.787" stroke="black" fill="none" stroke-linecap="round"></path><path d="M 93.000,134.000 C 87.386,136.169 89.000,134.000 85.000,134.000" stroke-width="4.260" stroke="black" fill="none" stroke-linecap="round"></path><path d="M 85.000,134.000 C 82.000,128.949 81.886,131.169 82.000,124.000" stroke-width="4.290" stroke="black" fill="none" stroke-linecap="round"></path><path d="M 82.000,124.000 C 82.747,119.567 82.000,119.949 85.000,116.000" stroke-width="3.834" stroke="black" fill="none" stroke-linecap="round"></path><path d="M 85.000,116.000 C 89.120,110.137 88.747,110.067 94.000,105.000" stroke-width="3.192" stroke="black" fill="none" stroke-linecap="round"></path><path d="M 94.000,105.000 C 98.877,100.355 98.620,100.137 104.000,96.000" stroke-width="3.310" stroke="black" fill="none" stroke-linecap="round"></path><path d="M 104.000,96.000 C 108.570,91.305 108.877,91.855 114.000,88.000" stroke-width="3.238" stroke="black" fill="none" stroke-linecap="round"></path><path d="M 114.000,88.000 C 120.448,84.883 120.070,84.305 127.000,82.000" stroke-width="2.977" stroke="black" fill="none" stroke-linecap="round"></path><path d="M 127.000,82.000 C 132.984,79.461 132.948,79.383 139.000,77.000" stroke-width="3.064" stroke="black" fill="none" stroke-linecap="round"></path><path d="M 139.000,77.000 C 143.816,74.234 143.984,74.961 149.000,73.000" stroke-width="3.369" stroke="black" fill="none" stroke-linecap="round"></path><path d="M 149.000,73.000 C 154.489,72.262 154.316,71.734 160.000,72.000" stroke-width="3.340" stroke="black" fill="none" stroke-linecap="round"></path><path d="M 160.000,72.000 C 165.000,72.000 164.989,71.762 170.000,72.000" stroke-width="3.479" stroke="black" fill="none" stroke-linecap="round"></path><path d="M 170.000,72.000 C 174.016,71.751 174.000,72.000 178.000,72.000" stroke-width="3.760" stroke="black" fill="none" stroke-linecap="round"></path><path d="M 178.000,72.000 C 182.305,71.680 182.016,72.251 186.000,73.000" stroke-width="3.799" stroke="black" fill="none" stroke-linecap="round"></path><path d="M 186.000,73.000 C 189.995,74.193 189.305,74.180 192.000,77.000" stroke-width="3.853" stroke="black" fill="none" stroke-linecap="round"></path><path d="M 192.000,77.000 C 194.852,81.836 194.995,81.193 196.000,87.000" stroke-width="4.095" stroke="black" fill="none" stroke-linecap="round"></path><path d="M 196.000,87.000 C 196.265,91.019 196.852,90.836 196.000,95.000" stroke-width="3.847" stroke="black" fill="none" stroke-linecap="round"></path><path d="M 196.000,95.000 C 196.168,98.729 195.765,98.519 195.000,102.000" stroke-width="3.934" stroke="black" fill="none" stroke-linecap="round"></path><path d="M 195.000,102.000 C 192.799,105.403 193.668,105.729 191.000,109.000" stroke-width="3.850" stroke="black" fill="none" stroke-linecap="round"></path><path d="M 191.000,109.000 C 189.920,111.471 189.799,111.403 189.000,114.000" stroke-width="4.136" stroke="black" fill="none" stroke-linecap="round"></path><path d="M 189.000,114.000 C 187.000,116.978 187.920,116.971 187.000,120.000" stroke-width="4.062" stroke="black" fill="none" stroke-linecap="round"></path><path d="M 187.000,120.000 C 186.717,124.971 187.000,123.478 189.000,127.000" stroke-width="4.413" stroke="black" fill="none" stroke-linecap="round"></path><path d="M 189.000,127.000 C 192.479,127.793 191.217,128.971 196.000,128.000" stroke-width="4.095" stroke="black" fill="none" stroke-linecap="round"></path><path d="M 196.000,128.000 C 201.049,128.495 200.979,128.293 206.000,128.000" stroke-width="3.630" stroke="black" fill="none" stroke-linecap="round"></path><path d="M 206.000,128.000 C 211.078,127.295 211.049,127.495 216.000,126.000" stroke-width="3.492" stroke="black" fill="none" stroke-linecap="round"></path><path d="M 216.000,126.000 C 220.675,124.892 220.578,124.795 225.000,123.000" stroke-width="3.574" stroke="black" fill="none" stroke-linecap="round"></path><path d="M 225.000,123.000 C 228.400,120.800 228.675,121.392 232.000,119.000" stroke-width="3.740" stroke="black" fill="none" stroke-linecap="round"></path><path d="M 232.000,119.000 C 235.485,117.464 235.400,117.300 239.000,116.000" stroke-width="3.840" stroke="black" fill="none" stroke-linecap="round"></path><path d="M 239.000,116.000 C 244.925,113.538 241.485,114.964 244.000,114.000" stroke-width="4.132" stroke="black" fill="none" stroke-linecap="round"></path><path d="M 244.000,114.000 C 238.243,116.037 241.925,115.038 233.000,119.000" stroke-width="4.527" stroke="black" fill="none" stroke-linecap="round"></path><path d="M 233.000,119.000 C 227.138,123.223 226.743,122.537 221.000,127.000" stroke-width="3.375" stroke="black" fill="none" stroke-linecap="round"></path><path d="M 221.000,127.000 C 214.047,131.085 214.138,131.223 207.000,135.000" stroke-width="3.018" stroke="black" fill="none" stroke-linecap="round"></path><path d="M 207.000,135.000 C 200.689,138.913 200.547,138.585 194.000,142.000" stroke-width="3.013" stroke="black" fill="none" stroke-linecap="round"></path><path d="M 194.000,142.000 C 187.444,144.364 187.689,144.913 181.000,147.000" stroke-width="3.068" stroke="black" fill="none" stroke-linecap="round"></path><path d="M 181.000,147.000 C 176.724,150.055 176.444,148.864 172.000,151.000" stroke-width="3.346" stroke="black" fill="none" stroke-linecap="round"></path><path d="M 172.000,151.000 C 166.500,151.000 166.724,152.055 161.000,151.000" stroke-width="3.337" stroke="black" fill="none" stroke-linecap="round"></path><path d="M 161.000,151.000 C 157.000,151.000 157.000,151.000 153.000,151.000" stroke-width="3.664" stroke="black" fill="none" stroke-linecap="round"></path><path d="M 153.000,151.000 C 148.297,151.955 148.500,151.000 144.000,151.000" stroke-width="3.674" stroke="black" fill="none" stroke-linecap="round"></path><path d="M 144.000,151.000 C 139.538,148.911 139.297,149.955 135.000,147.000" stroke-width="4.111" stroke="black" fill="none" stroke-linecap="round"></path><path d="M 135.000,147.000 C 130.000,145.000 130.038,144.911 125.000,143.000" stroke-width="3.620" stroke="black" fill="none" stroke-linecap="round"></path><path d="M 125.000,143.000 C 119.898,141.226 120.000,141.000 115.000,139.000" stroke-width="3.435" stroke="black" fill="none" stroke-linecap="round"></path><path d="M 115.000,139.000 C 109.000,136.000 108.898,136.226 103.000,133.000" stroke-width="3.226" stroke="black" fill="none" stroke-linecap="round"></path><path d="M 103.000,133.000 C 96.832,130.296 97.000,130.000 91.000,127.000" stroke-width="3.168" stroke="black" fill="none" stroke-linecap="round"></path><path d="M 91.000,127.000 C 85.423,123.615 85.332,123.796 80.000,120.000" stroke-width="3.179" stroke="black" fill="none" stroke-linecap="round"></path><path d="M 80.000,120.000 C 74.589,116.990 74.923,116.615 70.000,113.000" stroke-width="3.245" stroke="black" fill="none" stroke-linecap="round"></path><path d="M 70.000,113.000 C 61.866,107.299 63.089,106.990 57.000,100.000" stroke-width="2.845" stroke="black" fill="none" stroke-linecap="round"></path><path d="M 57.000,100.000 C 56.251,96.016 54.866,96.799 56.000,92.000" stroke-width="3.501" stroke="black" fill="none" stroke-linecap="round"></path><path d="M 56.000,92.000 C 54.263,87.281 55.751,88.016 56.000,84.000" stroke-width="3.617" stroke="black" fill="none" stroke-linecap="round"></path><path d="M 56.000,84.000 C 60.078,78.985 58.763,78.781 65.000,75.000" stroke-width="3.385" stroke="black" fill="none" stroke-linecap="round"></path><path d="M 65.000,75.000 C 70.525,70.006 70.578,70.485 77.000,67.000" stroke-width="3.138" stroke="black" fill="none" stroke-linecap="round"></path><path d="M 77.000,67.000 C 84.883,64.029 84.525,63.506 93.000,62.000" stroke-width="2.918" stroke="black" fill="none" stroke-linecap="round"></path><path d="M 93.000,62.000 C 100.927,59.873 100.883,60.029 109.000,59.000" stroke-width="2.826" stroke="black" fill="none" stroke-linecap="round"></path><path d="M 109.000,59.000 C 119.494,58.263 119.427,57.873 130.000,58.000" stroke-width="2.537" stroke="black" fill="none" stroke-linecap="round"></path><path d="M 130.000,58.000 C 139.509,57.721 139.494,57.763 149.000,58.000" stroke-width="2.619" stroke="black" fill="none" stroke-linecap="round"></path><path d="M 149.000,58.000 C 156.620,57.770 156.509,58.221 164.000,59.000" stroke-width="3.007" stroke="black" fill="none" stroke-linecap="round"></path><path d="M 164.000,59.000 C 171.733,60.384 171.620,60.270 179.000,63.000" stroke-width="2.899" stroke="black" fill="none" stroke-linecap="round"></path><path d="M 179.000,63.000 C 184.196,65.174 184.233,64.884 189.000,68.000" stroke-width="3.228" stroke="black" fill="none" stroke-linecap="round"></path><path d="M 189.000,68.000 C 193.232,69.925 192.696,70.174 196.000,73.000" stroke-width="3.567" stroke="black" fill="none" stroke-linecap="round"></path><path d="M 196.000,73.000 C 197.626,75.380 197.732,74.925 198.000,78.000" stroke-width="3.993" stroke="black" fill="none" stroke-linecap="round"></path><path d="M 198.000,78.000 C 200.132,83.511 198.626,82.380 198.000,87.000" stroke-width="3.710" stroke="black" fill="none" stroke-linecap="round"></path><path d="M 198.000,87.000 C 192.921,92.121 194.632,92.511 187.000,96.000" stroke-width="3.233" stroke="black" fill="none" stroke-linecap="round"></path><path d="M 187.000,96.000 C 178.200,101.400 178.421,101.621 169.000,106.000" stroke-width="2.718" stroke="black" fill="none" stroke-linecap="round"></path><path d="M 169.000,106.000 C 160.223,110.602 160.200,110.400 151.000,114.000" stroke-width="2.577" stroke="black" fill="none" stroke-linecap="round"></path><path d="M 151.000,114.000 C 141.117,117.471 141.223,117.602 131.000,120.000" stroke-width="2.596" stroke="black" fill="none" stroke-linecap="round"></path><path d="M 131.000,120.000 C 121.049,122.284 121.117,122.471 111.000,124.000" stroke-width="2.569" stroke="black" fill="none" stroke-linecap="round"></path><path d="M 111.000,124.000 C 100.546,126.145 100.549,125.784 90.000,127.000" stroke-width="2.462" stroke="black" fill="none" stroke-linecap="round"></path><path d="M 90.000,127.000 C 82.000,127.000 82.046,127.645 74.000,127.000" stroke-width="2.752" stroke="black" fill="none" stroke-linecap="round"></path><path d="M 74.000,127.000 C 66.500,127.000 66.500,127.000 59.000,127.000" stroke-width="2.856" stroke="black" fill="none" stroke-linecap="round"></path><path d="M 59.000,127.000 C 53.738,127.948 54.000,127.000 49.000,127.000" stroke-width="3.304" stroke="black" fill="none" stroke-linecap="round"></path><path d="M 49.000,127.000 C 45.600,126.134 46.238,126.448 44.000,124.000" stroke-width="3.837" stroke="black" fill="none" stroke-linecap="round"></path><path d="M 44.000,124.000 C 43.000,121.524 42.600,122.134 43.000,119.000" stroke-width="4.127" stroke="black" fill="none" stroke-linecap="round"></path><path d="M 43.000,119.000 C 41.782,113.235 43.000,114.024 44.000,109.000" stroke-width="3.632" stroke="black" fill="none" stroke-linecap="round"></path><path d="M 44.000,109.000 C 48.749,103.251 47.282,102.735 54.000,98.000" stroke-width="3.166" stroke="black" fill="none" stroke-linecap="round"></path><path d="M 54.000,98.000 C 59.549,91.903 59.749,92.251 66.000,87.000" stroke-width="2.892" stroke="black" fill="none" stroke-linecap="round"></path><path d="M 66.000,87.000 C 72.243,82.504 72.049,82.403 79.000,79.000" stroke-width="2.942" stroke="black" fill="none" stroke-linecap="round"></path><path d="M 79.000,79.000 C 85.791,75.307 85.743,75.504 93.000,73.000" stroke-width="2.959" stroke="black" fill="none" stroke-linecap="round"></path><path d="M 93.000,73.000 C 98.455,71.504 98.291,71.307 104.000,71.000" stroke-width="3.250" stroke="black" fill="none" stroke-linecap="round"></path><path d="M 104.000,71.000 C 109.522,70.696 109.455,70.504 115.000,71.000" stroke-width="3.308" stroke="black" fill="none" stroke-linecap="round"></path><path d="M 115.000,71.000 C 119.429,70.072 118.522,71.196 122.000,72.000" stroke-width="3.702" stroke="black" fill="none" stroke-linecap="round"></path><path d="M 122.000,72.000 C 125.846,75.614 125.429,74.572 127.000,80.000" stroke-width="3.586" stroke="black" fill="none" stroke-linecap="round"></path><path d="M 127.000,80.000 C 127.406,85.525 128.346,85.114 127.000,91.000" stroke-width="3.465" stroke="black" fill="none" stroke-linecap="round"></path><path d="M 127.000,91.000 C 127.903,99.743 126.406,99.025 125.000,107.000" stroke-width="2.972" stroke="black" fill="none" stroke-linecap="round"></path><path d="M 125.000,107.000 C 120.277,114.215 121.903,114.743 115.000,121.000" stroke-width="2.846" stroke="black" fill="none" stroke-linecap="round"></path><path d="M 115.000,121.000 C 109.736,127.717 109.777,127.715 104.000,134.000" stroke-width="2.821" stroke="black" fill="none" stroke-linecap="round"></path><path d="M 104.000,134.000 C 99.000,139.000 99.236,139.217 94.000,144.000" stroke-width="2.991" stroke="black" fill="none" stroke-linecap="round"></path><path d="M 94.000,144.000 C 89.664,147.725 90.000,148.000 86.000,152.000" stroke-width="3.198" stroke="black" fill="none" stroke-linecap="round"></path><path d="M 86.000,152.000 C 80.523,158.164 83.664,154.725 82.000,158.000" stroke-width="4.074" stroke="black" fill="none" stroke-linecap="round"></path><path d="M 82.000,158.000 C 88.774,154.943 85.023,157.664 95.000,151.000" stroke-width="3.914" stroke="black" fill="none" stroke-linecap="round"></path><path d="M 95.000,151.000 C 103.534,145.047 103.774,145.443 112.000,139.000" stroke-width="3.137" stroke="black" fill="none" stroke-linecap="round"></path><path d="M 112.000,139.000 C 120.732,132.090 121.034,132.547 130.000,126.000" stroke-width="2.614" stroke="black" fill="none" stroke-linecap="round"></path><path d="M 130.000,126.000 C 138.338,120.702 138.232,120.590 147.000,116.000" stroke-width="2.547" stroke="black" fill="none" stroke-linecap="round"></path><path d="M 147.000,116.000 C 155.943,111.382 155.838,111.202 165.000,107.000" stroke-width="2.567" stroke="black" fill="none" stroke-linecap="round"></path><path d="M 165.000,107.000 C 171.349,103.602 171.443,103.882 178.000,101.000" stroke-width="2.836" stroke="black" fill="none" stroke-linecap="round"></path><path d="M 178.000,101.000 C 182.992,99.473 182.849,99.102 188.000,98.000" stroke-width="3.211" stroke="black" fill="none" stroke-linecap="round"></path><path d="M 188.000,98.000 C 194.395,94.387 191.492,96.973 195.000,96.000" stroke-width="3.688" stroke="black" fill="none" stroke-linecap="round"></path><path d="M 195.000,96.000 C 193.906,101.545 195.895,98.387 191.000,106.000" stroke-width="4.257" stroke="black" fill="none" stroke-linecap="round"></path><path d="M 191.000,106.000 C 185.349,112.378 186.406,113.045 180.000,119.000" stroke-width="3.263" stroke="black" fill="none" stroke-linecap="round"></path><path d="M 180.000,119.000 C 174.535,125.197 174.849,125.378 170.000,132.000" stroke-width="2.972" stroke="black" fill="none" stroke-linecap="round"></path><path d="M 170.000,132.000 C 166.530,137.307 166.535,137.197 164.000,143.000" stroke-width="3.337" stroke="black" fill="none" stroke-linecap="round"></path><path d="M 164.000,143.000 C 161.076,146.998 162.530,146.307 162.000,150.000" stroke-width="3.737" stroke="black" fill="none" stroke-linecap="round"></path><path d="M 162.000,150.000 C 164.228,155.281 163.076,153.498 168.000,156.000" stroke-width="4.241" stroke="black" fill="none" stroke-linecap="round"></path><path d="M 168.000,156.000 C 175.831,156.172 174.728,157.281 183.000,154.000" stroke-width="3.196" stroke="black" fill="none" stroke-linecap="round"></path><path d="M 183.000,154.000 C 191.977,149.948 192.331,151.172 201.000,146.000" stroke-width="2.759" stroke="black" fill="none" stroke-linecap="round"></path><path d="M 201.000,146.000 C 207.971,142.929 207.977,142.948 215.000,140.000" stroke-width="2.844" stroke="black" fill="none" stroke-linecap="round"></path><path d="M 215.000,140.000 C 219.960,137.890 219.971,137.929 225.000,136.000" stroke-width="3.239" stroke="black" fill="none" stroke-linecap="round"></path><path d="M 225.000,136.000 C 231.429,132.429 227.960,134.890 231.000,134.000" stroke-width="3.756" stroke="black" fill="none" stroke-linecap="round"></path><path d="M 231.000,134.000 C 226.825,140.756 229.929,137.929 222.000,147.000" stroke-width="4.117" stroke="black" fill="none" stroke-linecap="round"></path><path d="M 222.000,147.000 C 217.791,151.334 218.325,151.756 214.000,156.000" stroke-width="3.503" stroke="black" fill="none" stroke-linecap="round"></path><path d="M 214.000,156.000 C 210.757,159.192 211.291,159.334 209.000,163.000" stroke-width="3.610" stroke="black" fill="none" stroke-linecap="round"></path><path d="M 209.000,163.000 C 205.818,168.770 207.757,165.692 208.000,169.000" stroke-width="4.339" stroke="black" fill="none" stroke-linecap="round"></path><path d="M 226.000,63.000 C 221.297,62.141 221.500,63.000 217.000,63.000" stroke-width="4.906" stroke="black" fill="none" stroke-linecap="round"></path><path d="M 217.000,63.000 C 214.039,64.582 213.797,63.641 211.000,66.000" stroke-width="4.311" stroke="black" fill="none" stroke-linecap="round"></path><path d="M 211.000,66.000 C 206.476,67.948 206.539,68.082 202.000,70.000" stroke-width="3.917" stroke="black" fill="none" stroke-linecap="round"></path><path d="M 202.000,70.000 C 194.511,73.523 194.476,73.448 187.000,77.000" stroke-width="3.231" stroke="black" fill="none" stroke-linecap="round"></path><path d="M 187.000,77.000 C 167.331,85.657 167.511,86.023 148.000,95.000" stroke-width="1.814" stroke="black" fill="none" stroke-linecap="round"></path><path d="M 148.000,95.000 C 137.552,100.601 137.331,100.157 127.000,106.000" stroke-width="2.109" stroke="black" fill="none" stroke-linecap="round"></path><path d="M 127.000,106.000 C 115.457,110.579 116.052,111.601 105.000,117.000" stroke-width="2.782" stroke="black" fill="none" stroke-linecap="round"></path><path d="M 105.000,117.000 C 87.177,128.574 86.957,128.079 70.000,141.000" stroke-width="1.842" stroke="black" fill="none" stroke-linecap="round"></path><path d="M 70.000,141.000 C 63.800,145.780 63.677,145.574 58.000,151.000" stroke-width="2.446" stroke="black" fill="none" stroke-linecap="round"></path><path d="M 58.000,151.000 C 53.832,154.849 53.800,154.780 50.000,159.000" stroke-width="3.031" stroke="black" fill="none" stroke-linecap="round"></path><path d="M 50.000,159.000 C 45.798,161.372 47.832,161.349 46.000,164.000" stroke-width="3.700" stroke="black" fill="none" stroke-linecap="round"></path><path d="M 46.000,164.000 C 47.139,170.456 46.298,167.872 51.000,172.000" stroke-width="4.199" stroke="black" fill="none" stroke-linecap="round"></path><path d="M 229.000,58.000 C 225.518,57.251 225.500,57.500 222.000,57.000" stroke-width="4.805" stroke="black" fill="none" stroke-linecap="round"></path><path d="M 222.000,57.000 C 218.500,57.000 218.518,56.751 215.000,57.000" stroke-width="4.144" stroke="black" fill="none" stroke-linecap="round"></path><path d="M 215.000,57.000 C 211.453,56.568 211.500,57.000 208.000,57.000" stroke-width="4.078" stroke="black" fill="none" stroke-linecap="round"></path><path d="M 208.000,57.000 C 203.520,58.096 203.453,57.568 199.000,59.000" stroke-width="3.708" stroke="black" fill="none" stroke-linecap="round"></path><path d="M 199.000,59.000 C 191.008,60.544 191.020,60.596 183.000,62.000" stroke-width="3.012" stroke="black" fill="none" stroke-linecap="round"></path><path d="M 183.000,62.000 C 174.480,63.396 174.508,63.544 166.000,65.000" stroke-width="3.017" stroke="black" fill="none" stroke-linecap="round"></path><path d="M 166.000,65.000 C 156.009,67.047 155.980,66.896 146.000,69.000" stroke-width="2.680" stroke="black" fill="none" stroke-linecap="round"></path><path d="M 146.000,69.000 C 135.471,70.858 135.509,71.047 125.000,73.000" stroke-width="2.545" stroke="black" fill="none" stroke-linecap="round"></path><path d="M 125.000,73.000 C 113.488,75.447 113.471,75.358 102.000,78.000" stroke-width="2.412" stroke="black" fill="none" stroke-linecap="round"></path><path d="M 102.000,78.000 C 90.712,79.604 90.988,80.447 80.000,83.000" stroke-width="2.357" stroke="black" fill="none" stroke-linecap="round"></path><path d="M 80.000,83.000 C 70.199,86.400 70.212,86.104 61.000,91.000" stroke-width="2.484" stroke="black" fill="none" stroke-linecap="round"></path><path d="M 61.000,91.000 C 52.137,95.479 52.199,95.400 44.000,101.000" stroke-width="2.509" stroke="black" fill="none" stroke-linecap="round"></path><path d="M 44.000,101.000 C 37.989,105.011 38.137,104.979 33.000,110.000" stroke-width="2.820" stroke="black" fill="none" stroke-linecap="round"></path><path d="M 33.000,110.000 C 29.176,113.648 29.489,113.511 27.000,118.000" stroke-width="3.289" stroke="black" fill="none" stroke-linecap="round"></path><path d="M 27.000,118.000 C 26.232,120.978 25.676,120.648 26.000,124.000" stroke-width="3.803" stroke="black" fill="none" stroke-linecap="round"></path><path d="M 26.000,124.000 C 24.430,128.308 25.732,127.478 26.000,131.000" stroke-width="3.928" stroke="black" fill="none" stroke-linecap="round"></path><path d="M 26.000,131.000 C 29.100,134.329 27.930,134.308 33.000,136.000" stroke-width="3.735" stroke="black" fill="none" stroke-linecap="round"></path><path d="M 33.000,136.000 C 39.884,138.535 39.600,138.829 47.000,140.000" stroke-width="3.274" stroke="black" fill="none" stroke-linecap="round"></path><path d="M 47.000,140.000 C 56.963,141.805 56.884,142.035 67.000,143.000" stroke-width="2.678" stroke="black" fill="none" stroke-linecap="round"></path><path d="M 67.000,143.000 C 77.976,144.521 77.963,144.305 89.000,145.000" stroke-width="2.512" stroke="black" fill="none" stroke-linecap="round"></path><path d="M 89.000,145.000 C 101.000,145.000 100.976,145.521 113.000,145.000" stroke-width="2.383" stroke="black" fill="none" stroke-linecap="round"></path><path d="M 113.000,145.000 C 125.120,146.212 125.000,145.000 137.000,145.000" stroke-width="2.288" stroke="black" fill="none" stroke-linecap="round"></path><path d="M 137.000,145.000 C 149.838,143.623 149.620,143.712 162.000,140.000" stroke-width="2.203" stroke="black" fill="none" stroke-linecap="round"></path><path d="M 162.000,140.000 C 173.179,135.895 173.338,136.623 184.000,131.000" stroke-width="2.353" stroke="black" fill="none" stroke-linecap="round"></path><path d="M 184.000,131.000 C 194.254,126.446 194.179,126.395 204.000,121.000" stroke-width="2.348" stroke="black" fill="none" stroke-linecap="round"></path><path d="M 204.000,121.000 C 211.287,116.882 211.254,116.946 218.000,112.000" stroke-width="2.674" stroke="black" fill="none" stroke-linecap="round"></path><path d="M 218.000,112.000 C 222.588,108.981 222.287,108.882 226.000,105.000" stroke-width="3.224" stroke="black" fill="none" stroke-linecap="round"></path><path d="M 226.000,105.000 C 230.427,101.416 228.588,101.981 230.000,98.000" stroke-width="3.617" stroke="black" fill="none" stroke-linecap="round"></path><path d="M 230.000,98.000 C 228.576,90.864 229.427,93.416 224.000,89.000" stroke-width="4.049" stroke="black" fill="none" stroke-linecap="round"></path><path d="M 224.000,89.000 C 213.528,87.421 215.076,85.364 203.000,87.000" stroke-width="2.758" stroke="black" fill="none" stroke-linecap="round"></path><path d="M 203.000,87.000 C 188.438,86.037 188.528,86.421 174.000,87.000" stroke-width="2.180" stroke="black" fill="none" stroke-linecap="round"></path><path d="M 174.000,87.000 C 158.390,88.355 158.438,88.037 143.000,91.000" stroke-width="1.979" stroke="black" fill="none" stroke-linecap="round"></path><path d="M 143.000,91.000 C 126.225,93.507 126.390,93.855 110.000,98.000" stroke-width="1.912" stroke="black" fill="none" stroke-linecap="round"></path><path d="M 110.000,98.000 C 93.368,102.111 93.725,102.507 78.000,109.000" stroke-width="1.890" stroke="black" fill="none" stroke-linecap="round"></path><path d="M 78.000,109.000 C 64.206,115.400 64.368,115.111 52.000,124.000" stroke-width="1.989" stroke="black" fill="none" stroke-linecap="round"></path><path d="M 52.000,124.000 C 41.585,130.845 42.206,130.900 34.000,140.000" stroke-width="2.214" stroke="black" fill="none" stroke-linecap="round"></path><path d="M 34.000,140.000 C 26.476,148.841 27.085,148.345 23.000,159.000" stroke-width="2.322" stroke="black" fill="none" stroke-linecap="round"></path><path d="M 23.000,159.000 C 20.107,168.776 19.976,167.841 21.000,178.000" stroke-width="2.486" stroke="black" fill="none" stroke-linecap="round"></path><path d="M 180.000,157.000 C 169.872,156.645 170.000,156.000 160.000,155.000" stroke-width="3.744" stroke="black" fill="none" stroke-linecap="round"></path><path d="M 160.000,155.000 C 154.994,153.520 154.872,154.145 150.000,152.000" stroke-width="3.664" stroke="black" fill="none" stroke-linecap="round"></path><path d="M 150.000,152.000 C 143.520,149.932 143.494,150.020 137.000,148.000" stroke-width="3.269" stroke="black" fill="none" stroke-linecap="round"></path><path d="M 137.000,148.000 C 130.033,145.876 130.020,145.932 123.000,144.000" stroke-width="3.098" stroke="black" fill="none" stroke-linecap="round"></path><path d="M 123.000,144.000 C 115.041,141.816 115.033,141.876 107.000,140.000" stroke-width="2.861" stroke="black" fill="none" stroke-linecap="round"></path><path d="M 107.000,140.000 C 99.354,139.029 99.541,138.316 92.000,137.000" stroke-width="3.035" stroke="black" fill="none" stroke-linecap="round"></path><path d="M 92.000,137.000 C 84.970,134.581 84.854,135.029 78.000,132.000" stroke-width="3.011" stroke="black" fill="none" stroke-linecap="round"></path><path d="M 78.000,132.000 C 71.485,129.538 71.470,129.581 65.000,127.000" stroke-width="3.008" stroke="black" fill="none" stroke-linecap="round"></path><path d="M 65.000,127.000 C 59.861,125.288 59.985,125.038 55.000,123.000" stroke-width="3.247" stroke="black" fill="none" stroke-linecap="round"></path><path d="M 55.000,123.000 C 51.597,120.799 51.361,121.288 48.000,119.000" stroke-width="3.577" stroke="black" fill="none" stroke-linecap="round"></path><path d="M 48.000,119.000 C 41.850,117.719 45.597,117.799 43.000,117.000" stroke-width="4.037" stroke="black" fill="none" stroke-linecap="round"></path><path d="M 43.000,117.000 C 49.440,115.171 45.850,115.219 56.000,114.000" stroke-width="4.550" stroke="black" fill="none" stroke-linecap="round"></path><path d="M 56.000,114.000 C 63.633,113.637 63.440,112.671 71.000,112.000" stroke-width="3.390" stroke="black" fill="none" stroke-linecap="round"></path><path d="M 71.000,112.000 C 81.623,109.379 81.633,109.637 92.000,106.000" stroke-width="2.682" stroke="black" fill="none" stroke-linecap="round"></path><path d="M 92.000,106.000 C 103.184,102.454 103.123,102.379 114.000,98.000" stroke-width="2.390" stroke="black" fill="none" stroke-linecap="round"></path><path d="M 114.000,98.000 C 128.411,91.293 128.684,91.954 143.000,85.000" stroke-width="2.282" stroke="black" fill="none" stroke-linecap="round"></path><path d="M 143.000,85.000 C 154.144,80.825 153.911,80.293 165.000,76.000" stroke-width="2.269" stroke="black" fill="none" stroke-linecap="round"></path><path d="M 165.000,76.000 C 176.398,70.274 176.644,70.825 188.000,65.000" stroke-width="2.310" stroke="black" fill="none" stroke-linecap="round"></path><path d="M 188.000,65.000 C 198.549,60.611 198.398,60.274 209.000,56.000" stroke-width="2.315" stroke="black" fill="none" stroke-linecap="round"></path><path d="M 209.000,56.000 C 215.437,52.854 215.549,53.111 222.000,50.000" stroke-width="2.787" stroke="black" fill="none" stroke-linecap="round"></path><path d="M 222.000,50.000 C 227.000,48.000 226.937,47.854 232.000,46.000" stroke-width="3.166" stroke="black" fill="none" stroke-linecap="round"></path><path d="M 232.000,46.000 C 237.000,43.543 234.500,45.000 237.000,44.000" stroke-width="3.830" stroke="black" fill="none" stroke-linecap="round"></path><path d="M 237.000,44.000 C 234.660,46.227 237.000,44.543 232.000,48.000" stroke-width="4.551" stroke="black" fill="none" stroke-linecap="round"></path><path d="M 232.000,48.000 C 225.612,52.193 225.660,52.227 219.000,56.000" stroke-width="3.380" stroke="black" fill="none" stroke-linecap="round"></path><path d="M 219.000,56.000 C 208.908,61.338 209.112,61.693 199.000,67.000" stroke-width="2.559" stroke="black" fill="none" stroke-linecap="round"></path><path d="M 199.000,67.000 C 187.794,73.171 187.908,73.338 177.000,80.000" stroke-width="2.390" stroke="black" fill="none" stroke-linecap="round"></path><path d="M 177.000,80.000 C 163.421,88.884 163.294,88.671 150.000,98.000" stroke-width="2.108" stroke="black" fill="none" stroke-linecap="round"></path><path d="M 150.000,98.000 C 136.930,106.901 136.921,106.884 124.000,116.000" stroke-width="1.951" stroke="black" fill="none" stroke-linecap="round"></path><path d="M 124.000,116.000 C 109.498,125.374 109.930,125.901 96.000,136.000" stroke-width="1.832" stroke="black" fill="none" stroke-linecap="round"></path><path d="M 96.000,136.000 C 86.271,144.258 85.998,143.874 77.000,153.000" stroke-width="2.106" stroke="black" fill="none" stroke-linecap="round"></path><path d="M 77.000,153.000 C 68.857,160.863 68.771,160.758 61.000,169.000" stroke-width="2.258" stroke="black" fill="none" stroke-linecap="round"></path><path d="M 61.000,169.000 C 54.750,175.292 54.857,175.363 49.000,182.000" stroke-width="2.532" stroke="black" fill="none" stroke-linecap="round"></path><path d="M 49.000,182.000 C 45.693,185.810 45.750,185.792 43.000,190.000" stroke-width="3.242" stroke="black" fill="none" stroke-linecap="round"></path></svg>