<svg xmlns="http://www.w3.org/2000/svg" xmlns:xlink="http://www.w3.org/1999/xlink" viewBox="0 0 164 56" width="164" height="56"><path d="M 27.000,41.750 C 25.616,39.175 25.500,39.250 24.000,36.750" stroke-width="5.355" stroke="black" fill="none" stroke-linecap="round"></path><path d="M 24.000,36.750 C 20.079,31.984 20.616,31.675 17.000,26.750" stroke-width="3.706" stroke="black" fill="none" stroke-linecap="round"></path><path d="M 17.000,26.750 C 15.278,23.329 15.079,23.484 14.000,19.750" stroke-width="3.779" stroke="black" fill="none" stroke-linecap="round"></path><path d="M 14.000,19.750 C 11.118,15.839 12.778,16.329 12.000,12.750" stroke-width="4.324" stroke="black" fill="none" stroke-linecap="round"></path><path d="M 12.000,12.750 C 14.305,8.125 13.118,8.839 18.000,5.750" stroke-width="4.375" stroke="black" fill="none" stroke-linecap="round"></path><path d="M 18.000,5.750 C 22.017,3.750 21.305,3.625 26.000,3.750" stroke-width="4.462" stroke="black" fill="none" stroke-linecap="round"></path><path d="M 26.000,3.750 C 29.824,4.069 29.517,3.750 33.000,5.750" stroke-width="4.563" stroke="black" fill="none" stroke-linecap="round"></path><path d="M 33.000,5.750 C 38.960,8.422 38.324,8.569 43.000,12.750" stroke-width="4.233" stroke="black" fill="none" stroke-linecap="round"></path><path d="M 43.000,12.750 C 45.110,16.699 45.960,15.922 47.000,20.750" stroke-width="3.775" stroke="black" fill="none" stroke-linecap="round"></path><path d="M 47.000,20.750 C 49.161,24.114 48.610,24.199 50.000,27.750" stroke-width="3.800" stroke="black" fill="none" stroke-linecap="round"></path><path d="M 50.000,27.750 C 48.757,33.750 50.661,30.614 50.000,33.750" stroke-width="4.425" stroke="black" fill="none" stroke-linecap="round"></path><path d="M 50.000,33.750 C 52.574,30.122 51.757,33.750 56.000,27.750" stroke-width="4.909" stroke="black" fill="none" stroke-linecap="round"></path><path d="M 56.000,27.750 C 59.551,26.360 59.074,25.622 63.000,24.750" stroke-width="4.085" stroke="black" fill="none" stroke-linecap="round"></path><path d="M 63.000,24.750 C 67.325,20.750 67.051,22.860 71.000,20.750" stroke-width="4.318" stroke="black" fill="none" stroke-linecap="round"></path><path d="M 71.000,20.750 C 72.491,23.978 73.325,20.750 75.000,24.750" stroke-width="5.031" stroke="black" fill="none" stroke-linecap="round"></path><path d="M 75.000,24.750 C 79.506,24.570 78.991,25.978 84.000,24.750" stroke-width="3.936" stroke="black" fill="none" stroke-linecap="round"></path><path d="M 84.000,24.750 C 92.091,24.718 92.006,25.070 100.000,25.750" stroke-width="3.144" stroke="black" fill="none" stroke-linecap="round"></path><path d="M 100.000,25.750 C 103.617,26.449 103.591,26.218 107.000,27.750" stroke-width="3.617" stroke="black" fill="none" stroke-linecap="round"></path><path d="M 107.000,27.750 C 110.228,28.902 110.117,28.949 113.000,30.750" stroke-width="3.853" stroke="black" fill="none" stroke-linecap="round"></path><path d="M 113.000,30.750 C 115.530,34.232 116.228,32.902 119.000,35.750" stroke-width="3.801" stroke="black" fill="none" stroke-linecap="round"></path><path d="M 119.000,35.750 C 124.059,37.997 123.530,37.732 129.000,37.750" stroke-width="4.588" stroke="black" fill="none" stroke-linecap="round"></path><path d="M 129.000,37.750 C 134.052,36.399 134.059,37.497 139.000,34.750" stroke-width="3.690" stroke="black" fill="none" stroke-linecap="round"></path><path d="M 139.000,34.750 C 143.250,32.000 141.552,33.899 144.000,32.750" stroke-width="4.424" stroke="black" fill="none" stroke-linecap="round"></path><path d="M 144.000,32.750 C 143.680,35.829 144.750,33.500 142.000,37.750" stroke-width="4.961" stroke="black" fill="none" stroke-linecap="round"></path><path d="M 142.000,37.750 C 139.125,38.802 140.180,39.829 137.000,40.750" stroke-width="4.833" stroke="black" fill="none" stroke-linecap="round"></path><path d="M 137.000,40.750 C 133.985,45.378 133.125,44.302 130.000,48.750" stroke-width="5.060" stroke="black" fill="none" stroke-linecap="round"></path><path d="M 130.000,48.750 C 127.290,51.394 127.485,50.878 124.000,51.750" stroke-width="4.295" stroke="black" fill="none" stroke-linecap="round"></path><path d="M 124.000,51.750 C 108.367,53.165 108.790,53.394 93.000,52.750" stroke-width="3.817" stroke="black" fill="none" stroke-linecap="round"></path><path d="M 93.000,52.750 C 89.971,51.830 89.867,52.665 87.000,50.750" stroke-width="3.964" stroke="black" fill="none" stroke-linecap="round"></path><path d="M 87.000,50.750 C 84.566,49.552 84.471,49.830 82.000,48.750" stroke-width="4.132" stroke="black" fill="none" stroke-linecap="round"></path><path d="M 82.000,48.750 C 76.555,46.984 76.566,47.052 71.000,45.750" stroke-width="3.625" stroke="black" fill="none" stroke-linecap="round"></path><path d="M 71.000,45.750 C 67.522,44.946 67.555,44.984 64.000,44.750" stroke-width="3.861" stroke="black" fill="none" stroke-linecap="round"></path><path d="M 64.000,44.750 C 58.473,44.428 58.522,44.446 53.000,44.750" stroke-width="3.476" stroke="black" fill="none" stroke-linecap="round"></path><path d="M 53.000,44.750 C 50.021,45.498 49.973,44.928 47.000,45.750" stroke-width="3.875" stroke="black" fill="none" stroke-linecap="round"></path></svg>