<svg xmlns="http://www.w3.org/2000/svg" xmlns:xlink="http://www.w3.org/1999/xlink" viewBox="0 0 641 195" width="641" height="195"><path d="M 185.500,208.000 C 188.325,203.211 189.000,204.000 192.500,200.000" stroke-width="4.639" stroke="black" fill="none" stroke-linecap="round"></path><path d="M 192.500,200.000 C 201.528,193.097 201.325,193.211 211.500,188.000" stroke-width="2.748" stroke="black" fill="none" stroke-linecap="round"></path><path d="M 211.500,188.000 C 223.898,180.401 224.028,181.597 237.500,177.000" stroke-width="2.271" stroke="black" fill="none" stroke-linecap="round"></path><path d="M 237.500,177.000 C 262.382,171.512 261.898,170.901 287.500,169.000" stroke-width="1.538" stroke="black" fill="none" stroke-linecap="round"></path><path d="M 287.500,169.000 C 302.659,167.709 302.382,167.512 317.500,169.000" stroke-width="1.855" stroke="black" fill="none" stroke-linecap="round"></path><path d="M 317.500,169.000 C 325.978,169.846 325.659,169.709 333.500,173.000" stroke-width="2.457" stroke="black" fill="none" stroke-linecap="round"></path><path d="M 333.500,173.000 C 341.624,176.761 341.478,176.346 348.500,182.000" stroke-width="2.614" stroke="black" fill="none" stroke-linecap="round"></path><path d="M 348.500,182.000 C 353.550,184.818 352.124,184.761 354.500,189.000" stroke-width="3.216" stroke="black" fill="none" stroke-linecap="round"></path><path d="M 354.500,189.000 C 355.535,196.818 356.050,195.818 353.500,204.000" stroke-width="2.988" stroke="black" fill="none" stroke-linecap="round"></path><path d="M 353.500,204.000 C 348.265,228.102 347.035,226.818 337.500,249.000" stroke-width="1.741" stroke="black" fill="none" stroke-linecap="round"></path><path d="M 337.500,249.000 C 328.215,259.274 331.265,261.102 319.500,270.000" stroke-width="1.953" stroke="black" fill="none" stroke-linecap="round"></path><path d="M 319.500,270.000 C 315.738,275.703 315.215,275.274 311.500,281.000" stroke-width="2.648" stroke="black" fill="none" stroke-linecap="round"></path><path d="M 311.500,281.000 C 306.861,284.787 309.738,283.203 307.500,285.000" stroke-width="3.860" stroke="black" fill="none" stroke-linecap="round"></path><path d="M 307.500,285.000 C 311.023,283.551 308.361,285.287 314.500,282.000" stroke-width="3.877" stroke="black" fill="none" stroke-linecap="round"></path><path d="M 314.500,282.000 C 343.318,268.560 343.523,269.051 372.500,256.000" stroke-width="1.436" stroke="black" fill="none" stroke-linecap="round"></path><path d="M 372.500,256.000 C 382.903,251.729 382.818,251.560 393.500,248.000" stroke-width="2.009" stroke="black" fill="none" stroke-linecap="round"></path><path d="M 393.500,248.000 C 409.834,241.902 409.903,242.229 426.500,237.000" stroke-width="1.837" stroke="black" fill="none" stroke-linecap="round"></path><path d="M 426.500,237.000 C 435.439,233.971 435.334,234.402 444.500,233.000" stroke-width="2.366" stroke="black" fill="none" stroke-linecap="round"></path><path d="M 444.500,233.000 C 449.636,232.919 449.439,232.471 454.500,234.000" stroke-width="3.079" stroke="black" fill="none" stroke-linecap="round"></path><path d="M 454.500,234.000 C 459.132,234.518 458.636,234.919 462.500,237.000" stroke-width="3.468" stroke="black" fill="none" stroke-linecap="round"></path><path d="M 462.500,237.000 C 469.673,241.389 468.632,241.518 473.500,248.000" stroke-width="3.013" stroke="black" fill="none" stroke-linecap="round"></path><path d="M 473.500,248.000 C 479.562,261.325 480.673,260.389 484.500,275.000" stroke-width="2.286" stroke="black" fill="none" stroke-linecap="round"></path><path d="M 484.500,275.000 C 484.523,279.894 486.062,279.325 486.500,284.000" stroke-width="3.054" stroke="black" fill="none" stroke-linecap="round"></path><path d="M 486.500,284.000 C 490.651,294.172 491.023,293.394 497.500,302.000" stroke-width="2.652" stroke="black" fill="none" stroke-linecap="round"></path><path d="M 497.500,302.000 C 505.152,310.501 504.651,310.172 514.500,316.000" stroke-width="2.446" stroke="black" fill="none" stroke-linecap="round"></path><path d="M 514.500,316.000 C 522.700,320.568 522.152,320.501 531.500,322.000" stroke-width="2.582" stroke="black" fill="none" stroke-linecap="round"></path><path d="M 234.000,16.000 C 238.723,20.538 238.000,21.000 242.000,26.000" stroke-width="4.047" stroke="black" fill="none" stroke-linecap="round"></path><path d="M 242.000,26.000 C 247.375,35.826 247.723,35.538 252.000,46.000" stroke-width="2.832" stroke="black" fill="none" stroke-linecap="round"></path><path d="M 252.000,46.000 C 260.799,63.171 259.875,63.326 267.000,81.000" stroke-width="1.964" stroke="black" fill="none" stroke-linecap="round"></path><path d="M 267.000,81.000 C 267.724,86.490 268.799,86.171 268.000,92.000" stroke-width="2.793" stroke="black" fill="none" stroke-linecap="round"></path><path d="M 268.000,92.000 C 268.000,96.500 268.224,96.490 268.000,101.000" stroke-width="3.359" stroke="black" fill="none" stroke-linecap="round"></path><path d="M 268.000,101.000 C 264.575,110.645 268.000,107.000 268.000,113.000" stroke-width="3.256" stroke="black" fill="none" stroke-linecap="round"></path><path d="M 268.000,113.000 C 276.194,113.651 272.575,116.145 284.000,112.000" stroke-width="4.052" stroke="black" fill="none" stroke-linecap="round"></path><path d="M 284.000,112.000 C 301.695,105.005 302.194,108.151 320.000,102.000" stroke-width="2.045" stroke="black" fill="none" stroke-linecap="round"></path><path d="M 320.000,102.000 C 335.515,101.000 335.195,99.505 351.000,101.000" stroke-width="1.952" stroke="black" fill="none" stroke-linecap="round"></path><path d="M 351.000,101.000 C 356.550,101.182 356.515,101.000 362.000,102.000" stroke-width="2.785" stroke="black" fill="none" stroke-linecap="round"></path><path d="M 362.000,102.000 C 368.578,100.833 366.550,102.682 371.000,104.000" stroke-width="3.746" stroke="black" fill="none" stroke-linecap="round"></path><path d="M 371.000,104.000 C 374.155,111.397 375.078,109.333 375.000,119.000" stroke-width="3.143" stroke="black" fill="none" stroke-linecap="round"></path><path d="M 375.000,119.000 C 375.925,125.386 375.655,124.897 374.000,131.000" stroke-width="3.246" stroke="black" fill="none" stroke-linecap="round"></path><path d="M 374.000,131.000 C 367.558,142.224 369.925,142.886 363.000,154.000" stroke-width="2.478" stroke="black" fill="none" stroke-linecap="round"></path><path d="M 363.000,154.000 C 361.250,158.250 361.558,157.724 362.000,162.000" stroke-width="3.245" stroke="black" fill="none" stroke-linecap="round"></path><path d="M 362.000,162.000 C 362.381,167.824 362.750,165.750 366.000,169.000" stroke-width="3.624" stroke="black" fill="none" stroke-linecap="round"></path><path d="M 366.000,169.000 C 384.085,175.689 382.381,174.324 402.000,175.000" stroke-width="2.108" stroke="black" fill="none" stroke-linecap="round"></path><path d="M 402.000,175.000 C 423.036,170.659 423.085,174.189 444.000,166.000" stroke-width="1.721" stroke="black" fill="none" stroke-linecap="round"></path><path d="M 444.000,166.000 C 454.395,162.818 454.536,163.659 465.000,161.000" stroke-width="2.189" stroke="black" fill="none" stroke-linecap="round"></path><path d="M 465.000,161.000 C 472.162,159.378 471.895,159.818 479.000,160.000" stroke-width="2.698" stroke="black" fill="none" stroke-linecap="round"></path><path d="M 479.000,160.000 C 484.040,160.251 483.162,160.378 487.000,163.000" stroke-width="3.354" stroke="black" fill="none" stroke-linecap="round"></path><path d="M 487.000,163.000 C 492.404,167.334 491.040,166.751 493.000,173.000" stroke-width="3.341" stroke="black" fill="none" stroke-linecap="round"></path><path d="M 493.000,173.000 C 496.139,197.083 495.404,195.834 493.000,220.000" stroke-width="1.725" stroke="black" fill="none" stroke-linecap="round"></path><path d="M 493.000,220.000 C 488.603,233.301 491.139,233.583 483.000,246.000" stroke-width="1.991" stroke="black" fill="none" stroke-linecap="round"></path><path d="M 483.000,246.000 C 480.978,250.426 481.103,250.301 478.000,254.000" stroke-width="2.905" stroke="black" fill="none" stroke-linecap="round"></path></svg>