<svg xmlns="http://www.w3.org/2000/svg" xmlns:xlink="http://www.w3.org/1999/xlink" viewBox="0 0 453 236" width="453" height="236"><path d="M 93.500,113.000 C 90.471,112.080 90.500,112.000 87.500,111.000" stroke-width="5.261" stroke="black" fill="none" stroke-linecap="round"></path><path d="M 87.500,111.000 C 84.784,110.370 84.971,110.080 82.500,109.000" stroke-width="4.652" stroke="black" fill="none" stroke-linecap="round"></path><path d="M 82.500,109.000 C 80.087,106.881 79.784,107.370 77.500,105.000" stroke-width="4.189" stroke="black" fill="none" stroke-linecap="round"></path><path d="M 77.500,105.000 C 74.302,103.242 74.587,102.881 71.500,101.000" stroke-width="4.018" stroke="black" fill="none" stroke-linecap="round"></path><path d="M 71.500,101.000 C 69.223,99.216 69.302,99.242 67.500,97.000" stroke-width="4.114" stroke="black" fill="none" stroke-linecap="round"></path><path d="M 67.500,97.000 C 65.895,94.558 65.723,94.716 64.500,92.000" stroke-width="4.166" stroke="black" fill="none" stroke-linecap="round"></path><path d="M 64.500,92.000 C 62.699,89.117 62.895,89.058 61.500,86.000" stroke-width="4.072" stroke="black" fill="none" stroke-linecap="round"></path><path d="M 61.500,86.000 C 58.702,81.926 60.199,82.617 59.500,79.000" stroke-width="4.433" stroke="black" fill="none" stroke-linecap="round"></path><path d="M 59.500,79.000 C 61.649,76.188 60.202,76.426 64.500,75.000" stroke-width="5.129" stroke="black" fill="none" stroke-linecap="round"></path><path d="M 64.500,75.000 C 68.153,75.057 67.649,73.688 71.500,74.000" stroke-width="4.314" stroke="black" fill="none" stroke-linecap="round"></path><path d="M 71.500,74.000 C 77.514,71.533 77.653,72.057 83.500,69.000" stroke-width="3.582" stroke="black" fill="none" stroke-linecap="round"></path><path d="M 83.500,69.000 C 90.512,66.028 90.514,66.033 97.500,63.000" stroke-width="3.128" stroke="black" fill="none" stroke-linecap="round"></path><path d="M 97.500,63.000 C 105.596,59.705 105.512,59.528 113.500,56.000" stroke-width="2.872" stroke="black" fill="none" stroke-linecap="round"></path><path d="M 113.500,56.000 C 121.500,52.000 121.596,52.205 129.500,48.000" stroke-width="2.779" stroke="black" fill="none" stroke-linecap="round"></path><path d="M 129.500,48.000 C 137.630,44.237 137.500,44.000 145.500,40.000" stroke-width="2.752" stroke="black" fill="none" stroke-linecap="round"></path><path d="M 145.500,40.000 C 150.301,36.599 150.630,37.237 155.500,34.000" stroke-width="3.137" stroke="black" fill="none" stroke-linecap="round"></path><path d="M 155.500,34.000 C 160.521,32.050 160.301,31.599 165.500,30.000" stroke-width="3.291" stroke="black" fill="none" stroke-linecap="round"></path><path d="M 165.500,30.000 C 168.870,28.037 169.021,28.550 172.500,27.000" stroke-width="3.685" stroke="black" fill="none" stroke-linecap="round"></path><path d="M 172.500,27.000 C 179.500,25.299 175.870,26.037 179.500,26.000" stroke-width="4.301" stroke="black" fill="none" stroke-linecap="round"></path><path d="M 179.500,26.000 C 175.757,27.647 179.500,26.799 172.500,30.000" stroke-width="4.753" stroke="black" fill="none" stroke-linecap="round"></path><path d="M 172.500,30.000 C 167.181,34.740 166.757,34.147 161.500,39.000" stroke-width="3.499" stroke="black" fill="none" stroke-linecap="round"></path><path d="M 161.500,39.000 C 154.759,43.185 155.181,43.740 148.500,48.000" stroke-width="3.187" stroke="black" fill="none" stroke-linecap="round"></path><path d="M 148.500,48.000 C 141.876,53.360 141.759,53.185 135.500,59.000" stroke-width="2.849" stroke="black" fill="none" stroke-linecap="round"></path><path d="M 135.500,59.000 C 128.885,64.881 128.876,64.860 122.500,71.000" stroke-width="2.784" stroke="black" fill="none" stroke-linecap="round"></path><path d="M 122.500,71.000 C 116.739,76.262 116.885,76.381 111.500,82.000" stroke-width="2.831" stroke="black" fill="none" stroke-linecap="round"></path><path d="M 111.500,82.000 C 106.378,87.902 106.239,87.762 101.500,94.000" stroke-width="2.842" stroke="black" fill="none" stroke-linecap="round"></path><path d="M 101.500,94.000 C 96.831,100.781 96.378,100.402 91.500,107.000" stroke-width="2.857" stroke="black" fill="none" stroke-linecap="round"></path><path d="M 91.500,107.000 C 84.870,114.884 84.831,114.781 77.500,122.000" stroke-width="2.570" stroke="black" fill="none" stroke-linecap="round"></path><path d="M 77.500,122.000 C 70.499,129.183 70.370,128.884 62.500,135.000" stroke-width="2.528" stroke="black" fill="none" stroke-linecap="round"></path><path d="M 62.500,135.000 C 53.505,140.509 53.999,141.183 44.500,146.000" stroke-width="3.122" stroke="black" fill="none" stroke-linecap="round"></path><path d="M 44.500,146.000 C 33.286,153.571 33.005,153.009 21.500,160.000" stroke-width="2.394" stroke="black" fill="none" stroke-linecap="round"></path><path d="M 21.500,160.000 C 16.430,161.843 16.786,162.571 11.500,164.000" stroke-width="3.043" stroke="black" fill="none" stroke-linecap="round"></path><path d="M 11.500,164.000 C 8.551,165.613 8.430,165.343 5.500,167.000" stroke-width="3.675" stroke="black" fill="none" stroke-linecap="round"></path><path d="M 5.500,167.000 C 0.980,169.720 3.051,168.113 0.500,169.000" stroke-width="4.073" stroke="black" fill="none" stroke-linecap="round"></path><path d="M 0.500,169.000 C 1.372,165.957 -0.020,168.220 3.500,164.000" stroke-width="4.816" stroke="black" fill="none" stroke-linecap="round"></path><path d="M 3.500,164.000 C 14.287,154.721 13.872,154.457 25.500,146.000" stroke-width="3.439" stroke="black" fill="none" stroke-linecap="round"></path><path d="M 25.500,146.000 C 32.300,140.702 32.287,140.721 39.500,136.000" stroke-width="2.894" stroke="black" fill="none" stroke-linecap="round"></path><path d="M 39.500,136.000 C 57.140,125.212 56.800,124.702 74.500,114.000" stroke-width="2.604" stroke="black" fill="none" stroke-linecap="round"></path><path d="M 74.500,114.000 C 80.865,109.293 81.140,109.712 87.500,105.000" stroke-width="2.814" stroke="black" fill="none" stroke-linecap="round"></path><path d="M 87.500,105.000 C 97.983,98.472 97.865,98.293 108.500,92.000" stroke-width="3.111" stroke="black" fill="none" stroke-linecap="round"></path><path d="M 108.500,92.000 C 110.808,89.979 110.983,90.472 113.500,89.000" stroke-width="3.756" stroke="black" fill="none" stroke-linecap="round"></path><path d="M 113.500,89.000 C 120.057,87.257 116.308,87.979 119.500,88.000" stroke-width="4.400" stroke="black" fill="none" stroke-linecap="round"></path><path d="M 119.500,88.000 C 115.019,90.535 118.557,89.257 110.500,93.000" stroke-width="4.593" stroke="black" fill="none" stroke-linecap="round"></path><path d="M 110.500,93.000 C 103.892,96.312 104.019,96.535 97.500,100.000" stroke-width="3.357" stroke="black" fill="none" stroke-linecap="round"></path><path d="M 97.500,100.000 C 90.989,103.983 90.892,103.812 84.500,108.000" stroke-width="3.072" stroke="black" fill="none" stroke-linecap="round"></path><path d="M 84.500,108.000 C 79.901,109.883 80.489,110.483 76.500,113.000" stroke-width="3.434" stroke="black" fill="none" stroke-linecap="round"></path><path d="M 76.500,113.000 C 73.856,115.745 73.901,115.383 72.500,119.000" stroke-width="3.822" stroke="black" fill="none" stroke-linecap="round"></path><path d="M 72.500,119.000 C 71.500,121.990 71.356,121.745 71.500,125.000" stroke-width="4.041" stroke="black" fill="none" stroke-linecap="round"></path><path d="M 71.500,125.000 C 70.250,130.750 71.500,128.990 72.500,133.000" stroke-width="4.365" stroke="black" fill="none" stroke-linecap="round"></path><path d="M 72.500,133.000 C 76.481,133.809 74.750,135.250 80.500,134.000" stroke-width="3.965" stroke="black" fill="none" stroke-linecap="round"></path><path d="M 80.500,134.000 C 87.314,135.428 86.981,134.309 93.500,134.000" stroke-width="3.387" stroke="black" fill="none" stroke-linecap="round"></path><path d="M 93.500,134.000 C 100.208,131.388 100.314,132.428 106.500,128.000" stroke-width="3.146" stroke="black" fill="none" stroke-linecap="round"></path><path d="M 106.500,128.000 C 112.981,123.968 113.208,124.388 119.500,120.000" stroke-width="2.954" stroke="black" fill="none" stroke-linecap="round"></path><path d="M 119.500,120.000 C 124.614,117.176 124.481,116.968 129.500,114.000" stroke-width="3.158" stroke="black" fill="none" stroke-linecap="round"></path><path d="M 129.500,114.000 C 134.751,110.799 134.614,110.676 139.500,107.000" stroke-width="3.181" stroke="black" fill="none" stroke-linecap="round"></path><path d="M 139.500,107.000 C 145.847,102.000 142.251,104.799 144.500,102.000" stroke-width="3.653" stroke="black" fill="none" stroke-linecap="round"></path><path d="M 144.500,102.000 C 137.400,103.514 141.847,102.000 131.500,107.000" stroke-width="4.287" stroke="black" fill="none" stroke-linecap="round"></path><path d="M 131.500,107.000 C 126.922,110.918 126.400,110.014 122.500,115.000" stroke-width="3.539" stroke="black" fill="none" stroke-linecap="round"></path><path d="M 122.500,115.000 C 120.037,116.695 120.422,116.918 118.500,119.000" stroke-width="3.990" stroke="black" fill="none" stroke-linecap="round"></path><path d="M 118.500,119.000 C 115.730,122.459 117.037,121.195 116.500,124.000" stroke-width="4.559" stroke="black" fill="none" stroke-linecap="round"></path><path d="M 116.500,124.000 C 119.058,125.431 117.230,125.459 121.500,125.000" stroke-width="4.774" stroke="black" fill="none" stroke-linecap="round"></path><path d="M 121.500,125.000 C 127.732,123.538 127.558,123.931 133.500,121.000" stroke-width="3.640" stroke="black" fill="none" stroke-linecap="round"></path><path d="M 133.500,121.000 C 140.151,117.752 140.232,118.038 146.500,114.000" stroke-width="3.237" stroke="black" fill="none" stroke-linecap="round"></path><path d="M 146.500,114.000 C 150.916,110.865 151.151,111.252 155.500,108.000" stroke-width="3.375" stroke="black" fill="none" stroke-linecap="round"></path><path d="M 155.500,108.000 C 159.069,106.111 158.916,105.865 162.500,104.000" stroke-width="3.672" stroke="black" fill="none" stroke-linecap="round"></path><path d="M 162.500,104.000 C 168.711,99.368 165.569,102.111 168.500,100.000" stroke-width="4.270" stroke="black" fill="none" stroke-linecap="round"></path><path d="M 168.500,100.000 C 164.682,103.239 168.211,100.868 161.500,107.000" stroke-width="4.310" stroke="black" fill="none" stroke-linecap="round"></path><path d="M 161.500,107.000 C 159.025,109.760 159.182,109.739 157.500,113.000" stroke-width="4.552" stroke="black" fill="none" stroke-linecap="round"></path><path d="M 157.500,113.000 C 153.500,118.829 155.025,118.260 153.500,124.000" stroke-width="3.554" stroke="black" fill="none" stroke-linecap="round"></path><path d="M 153.500,124.000 C 154.997,128.791 153.500,126.829 157.500,129.000" stroke-width="4.448" stroke="black" fill="none" stroke-linecap="round"></path><path d="M 157.500,129.000 C 161.807,127.462 160.997,129.291 165.500,125.000" stroke-width="3.825" stroke="black" fill="none" stroke-linecap="round"></path><path d="M 165.500,125.000 C 168.853,121.806 169.307,122.462 172.500,119.000" stroke-width="3.642" stroke="black" fill="none" stroke-linecap="round"></path><path d="M 172.500,119.000 C 175.351,116.717 175.353,116.806 178.500,115.000" stroke-width="3.804" stroke="black" fill="none" stroke-linecap="round"></path><path d="M 178.500,115.000 C 180.917,113.704 180.851,113.717 183.500,113.000" stroke-width="4.120" stroke="black" fill="none" stroke-linecap="round"></path><path d="M 183.500,113.000 C 187.596,110.912 186.417,112.204 189.500,112.000" stroke-width="4.581" stroke="black" fill="none" stroke-linecap="round"></path><path d="M 189.500,112.000 C 188.938,115.438 191.096,112.912 190.500,117.000" stroke-width="4.818" stroke="black" fill="none" stroke-linecap="round"></path><path d="M 190.500,117.000 C 193.482,119.189 192.438,118.938 196.500,119.000" stroke-width="4.765" stroke="black" fill="none" stroke-linecap="round"></path><path d="M 196.500,119.000 C 202.191,118.757 201.482,118.689 206.500,116.000" stroke-width="3.649" stroke="black" fill="none" stroke-linecap="round"></path><path d="M 206.500,116.000 C 214.633,110.113 214.691,110.757 221.500,103.000" stroke-width="2.841" stroke="black" fill="none" stroke-linecap="round"></path><path d="M 221.500,103.000 C 227.854,94.877 228.633,95.613 234.500,87.000" stroke-width="2.625" stroke="black" fill="none" stroke-linecap="round"></path><path d="M 234.500,87.000 C 241.251,78.767 241.354,78.877 248.500,71.000" stroke-width="2.536" stroke="black" fill="none" stroke-linecap="round"></path><path d="M 248.500,71.000 C 255.792,64.267 255.251,63.767 262.500,57.000" stroke-width="2.521" stroke="black" fill="none" stroke-linecap="round"></path><path d="M 262.500,57.000 C 267.135,50.647 267.792,51.267 272.500,45.000" stroke-width="2.795" stroke="black" fill="none" stroke-linecap="round"></path><path d="M 272.500,45.000 C 277.090,41.095 276.635,40.647 281.500,37.000" stroke-width="3.073" stroke="black" fill="none" stroke-linecap="round"></path><path d="M 281.500,37.000 C 287.787,32.551 284.090,34.595 286.500,32.000" stroke-width="3.609" stroke="black" fill="none" stroke-linecap="round"></path><path d="M 286.500,32.000 C 279.804,31.463 284.287,31.051 274.500,34.000" stroke-width="4.351" stroke="black" fill="none" stroke-linecap="round"></path><path d="M 274.500,34.000 C 268.763,38.238 268.304,36.963 263.500,43.000" stroke-width="3.290" stroke="black" fill="none" stroke-linecap="round"></path><path d="M 263.500,43.000 C 257.818,47.449 258.263,47.738 253.500,53.000" stroke-width="3.133" stroke="black" fill="none" stroke-linecap="round"></path><path d="M 253.500,53.000 C 247.706,61.323 247.318,60.949 242.500,70.000" stroke-width="2.648" stroke="black" fill="none" stroke-linecap="round"></path><path d="M 242.500,70.000 C 237.582,79.046 237.206,78.823 232.500,88.000" stroke-width="2.574" stroke="black" fill="none" stroke-linecap="round"></path><path d="M 232.500,88.000 C 226.631,97.308 227.082,97.546 221.500,107.000" stroke-width="2.363" stroke="black" fill="none" stroke-linecap="round"></path><path d="M 221.500,107.000 C 218.199,114.602 217.631,114.308 214.500,122.000" stroke-width="2.631" stroke="black" fill="none" stroke-linecap="round"></path><path d="M 214.500,122.000 C 211.668,126.354 212.199,126.602 209.500,131.000" stroke-width="3.426" stroke="black" fill="none" stroke-linecap="round"></path><path d="M 209.500,131.000 C 206.257,136.586 208.168,133.854 207.500,137.000" stroke-width="4.240" stroke="black" fill="none" stroke-linecap="round"></path><path d="M 207.500,137.000 C 211.629,135.233 209.257,137.586 215.500,133.000" stroke-width="4.535" stroke="black" fill="none" stroke-linecap="round"></path><path d="M 215.500,133.000 C 224.693,127.794 224.629,127.733 233.500,122.000" stroke-width="2.898" stroke="black" fill="none" stroke-linecap="round"></path><path d="M 233.500,122.000 C 243.528,115.039 243.693,115.294 253.500,108.000" stroke-width="2.393" stroke="black" fill="none" stroke-linecap="round"></path><path d="M 253.500,108.000 C 260.621,103.160 260.528,103.039 267.500,98.000" stroke-width="2.661" stroke="black" fill="none" stroke-linecap="round"></path><path d="M 267.500,98.000 C 272.382,93.839 272.621,94.160 277.500,90.000" stroke-width="2.969" stroke="black" fill="none" stroke-linecap="round"></path><path d="M 277.500,90.000 C 282.374,84.499 280.382,87.839 283.500,86.000" stroke-width="3.552" stroke="black" fill="none" stroke-linecap="round"></path><path d="M 283.500,86.000 C 285.547,92.604 285.374,88.499 283.500,98.000" stroke-width="4.177" stroke="black" fill="none" stroke-linecap="round"></path><path d="M 283.500,98.000 C 276.992,106.016 280.047,107.104 272.500,115.000" stroke-width="3.728" stroke="black" fill="none" stroke-linecap="round"></path><path d="M 272.500,115.000 C 267.500,123.425 268.992,122.016 267.500,130.000" stroke-width="3.119" stroke="black" fill="none" stroke-linecap="round"></path><path d="M 267.500,130.000 C 269.818,133.158 267.500,132.425 272.500,133.000" stroke-width="4.132" stroke="black" fill="none" stroke-linecap="round"></path><path d="M 272.500,133.000 C 278.959,131.891 278.318,132.658 284.500,129.000" stroke-width="3.385" stroke="black" fill="none" stroke-linecap="round"></path><path d="M 284.500,129.000 C 290.060,125.080 290.459,125.891 295.500,121.000" stroke-width="3.136" stroke="black" fill="none" stroke-linecap="round"></path><path d="M 295.500,121.000 C 301.732,115.602 302.060,116.080 308.500,111.000" stroke-width="3.104" stroke="black" fill="none" stroke-linecap="round"></path><path d="M 308.500,111.000 C 314.489,107.480 314.232,107.102 320.500,104.000" stroke-width="3.038" stroke="black" fill="none" stroke-linecap="round"></path><path d="M 320.500,104.000 C 327.500,98.411 323.989,101.980 327.500,100.000" stroke-width="3.544" stroke="black" fill="none" stroke-linecap="round"></path><path d="M 327.500,100.000 C 324.291,106.681 327.500,102.911 320.500,113.000" stroke-width="4.213" stroke="black" fill="none" stroke-linecap="round"></path><path d="M 320.500,113.000 C 317.653,116.310 318.291,116.681 315.500,120.000" stroke-width="3.809" stroke="black" fill="none" stroke-linecap="round"></path><path d="M 315.500,120.000 C 312.413,123.913 314.153,122.310 313.500,125.000" stroke-width="4.474" stroke="black" fill="none" stroke-linecap="round"></path><path d="M 313.500,125.000 C 317.047,125.471 314.913,126.413 320.500,125.000" stroke-width="4.066" stroke="black" fill="none" stroke-linecap="round"></path><path d="M 320.500,125.000 C 328.263,124.335 328.047,123.971 335.500,122.000" stroke-width="3.153" stroke="black" fill="none" stroke-linecap="round"></path><path d="M 335.500,122.000 C 343.542,118.594 343.763,119.335 351.500,115.000" stroke-width="2.938" stroke="black" fill="none" stroke-linecap="round"></path><path d="M 351.500,115.000 C 359.047,111.598 359.042,111.594 366.500,108.000" stroke-width="2.876" stroke="black" fill="none" stroke-linecap="round"></path><path d="M 366.500,108.000 C 373.357,104.175 373.547,104.598 380.500,101.000" stroke-width="2.913" stroke="black" fill="none" stroke-linecap="round"></path><path d="M 380.500,101.000 C 386.957,98.379 386.857,98.175 393.500,96.000" stroke-width="3.138" stroke="black" fill="none" stroke-linecap="round"></path><path d="M 393.500,96.000 C 397.916,94.146 397.957,94.379 402.500,93.000" stroke-width="3.454" stroke="black" fill="none" stroke-linecap="round"></path><path d="M 402.500,93.000 C 405.984,92.270 405.916,92.146 409.500,92.000" stroke-width="3.801" stroke="black" fill="none" stroke-linecap="round"></path><path d="M 409.500,92.000 C 415.705,90.973 412.484,91.770 415.500,92.000" stroke-width="4.425" stroke="black" fill="none" stroke-linecap="round"></path><path d="M 415.500,92.000 C 411.940,94.420 415.205,93.473 408.500,97.000" stroke-width="4.690" stroke="black" fill="none" stroke-linecap="round"></path><path d="M 408.500,97.000 C 405.594,98.645 405.940,98.920 403.500,101.000" stroke-width="4.705" stroke="black" fill="none" stroke-linecap="round"></path><path d="M 403.500,101.000 C 398.894,104.978 401.594,103.145 400.500,106.000" stroke-width="4.926" stroke="black" fill="none" stroke-linecap="round"></path><path d="M 400.500,106.000 C 407.579,108.277 404.394,108.478 414.500,108.000" stroke-width="4.835" stroke="black" fill="none" stroke-linecap="round"></path><path d="M 414.500,108.000 C 420.069,106.715 420.079,107.777 425.500,105.000" stroke-width="3.769" stroke="black" fill="none" stroke-linecap="round"></path><path d="M 425.500,105.000 C 429.535,103.586 429.569,103.715 433.500,102.000" stroke-width="3.697" stroke="black" fill="none" stroke-linecap="round"></path><path d="M 433.500,102.000 C 440.743,99.972 437.035,100.586 440.500,99.000" stroke-width="4.252" stroke="black" fill="none" stroke-linecap="round"></path><path d="M 440.500,99.000 C 436.509,97.862 440.243,97.972 432.500,98.000" stroke-width="4.418" stroke="black" fill="none" stroke-linecap="round"></path><path d="M 432.500,98.000 C 421.967,98.706 422.009,98.362 411.500,100.000" stroke-width="2.806" stroke="black" fill="none" stroke-linecap="round"></path><path d="M 411.500,100.000 C 377.634,105.961 377.467,104.206 343.500,109.000" stroke-width="2.104" stroke="black" fill="none" stroke-linecap="round"></path><path d="M 343.500,109.000 C 304.437,110.243 304.634,112.461 265.500,113.000" stroke-width="1.862" stroke="black" fill="none" stroke-linecap="round"></path><path d="M 265.500,113.000 C 247.959,114.689 247.937,114.243 230.500,117.000" stroke-width="1.840" stroke="black" fill="none" stroke-linecap="round"></path><path d="M 230.500,117.000 C 213.812,118.592 213.959,119.189 197.500,122.000" stroke-width="1.880" stroke="black" fill="none" stroke-linecap="round"></path><path d="M 197.500,122.000 C 180.260,125.732 180.312,125.592 163.500,131.000" stroke-width="1.794" stroke="black" fill="none" stroke-linecap="round"></path><path d="M 339.500,47.000 C 329.637,43.282 329.500,45.000 319.500,43.000" stroke-width="2.785" stroke="black" fill="none" stroke-linecap="round"></path><path d="M 319.500,43.000 C 293.321,42.590 293.637,42.282 267.500,45.000" stroke-width="1.631" stroke="black" fill="none" stroke-linecap="round"></path><path d="M 267.500,45.000 C 255.978,47.401 255.821,46.090 244.500,50.000" stroke-width="2.035" stroke="black" fill="none" stroke-linecap="round"></path><path d="M 244.500,50.000 C 228.963,51.846 229.478,53.401 214.500,57.000" stroke-width="2.600" stroke="black" fill="none" stroke-linecap="round"></path><path d="M 214.500,57.000 C 184.641,66.631 185.463,67.346 157.500,81.000" stroke-width="1.444" stroke="black" fill="none" stroke-linecap="round"></path><path d="M 157.500,81.000 C 142.625,90.516 142.141,89.131 129.500,102.000" stroke-width="1.742" stroke="black" fill="none" stroke-linecap="round"></path><path d="M 129.500,102.000 C 118.094,111.541 118.625,111.516 109.500,123.000" stroke-width="1.915" stroke="black" fill="none" stroke-linecap="round"></path><path d="M 109.500,123.000 C 104.460,130.158 104.594,129.541 102.500,138.000" stroke-width="2.486" stroke="black" fill="none" stroke-linecap="round"></path><path d="M 102.500,138.000 C 101.760,144.584 100.960,144.158 102.500,151.000" stroke-width="2.888" stroke="black" fill="none" stroke-linecap="round"></path><path d="M 102.500,151.000 C 102.122,158.595 103.260,157.584 105.500,164.000" stroke-width="3.011" stroke="black" fill="none" stroke-linecap="round"></path><path d="M 105.500,164.000 C 110.759,170.576 109.622,170.595 117.500,175.000" stroke-width="3.480" stroke="black" fill="none" stroke-linecap="round"></path><path d="M 117.500,175.000 C 126.948,181.717 126.759,181.076 137.500,185.000" stroke-width="2.671" stroke="black" fill="none" stroke-linecap="round"></path><path d="M 137.500,185.000 C 149.909,188.146 149.448,188.717 162.500,189.000" stroke-width="2.306" stroke="black" fill="none" stroke-linecap="round"></path><path d="M 162.500,189.000 C 179.788,191.212 179.409,190.146 196.500,189.000" stroke-width="2.042" stroke="black" fill="none" stroke-linecap="round"></path><path d="M 196.500,189.000 C 214.556,187.142 213.788,186.712 230.500,180.000" stroke-width="1.835" stroke="black" fill="none" stroke-linecap="round"></path><path d="M 230.500,180.000 C 264.016,166.302 262.556,165.642 292.500,146.000" stroke-width="1.287" stroke="black" fill="none" stroke-linecap="round"></path><path d="M 292.500,146.000 C 308.441,129.442 311.016,132.802 324.500,113.000" stroke-width="1.884" stroke="black" fill="none" stroke-linecap="round"></path><path d="M 324.500,113.000 C 329.228,107.686 329.441,107.942 334.500,103.000" stroke-width="2.967" stroke="black" fill="none" stroke-linecap="round"></path><circle r="1.5" cx="348.5" cy="228" fill="black"></circle><path d="M 98.500,145.000 C 95.267,141.884 95.000,142.500 91.500,140.000" stroke-width="4.658" stroke="black" fill="none" stroke-linecap="round"></path><path d="M 91.500,140.000 C 88.955,139.670 89.267,138.884 86.500,139.000" stroke-width="4.421" stroke="black" fill="none" stroke-linecap="round"></path><path d="M 86.500,139.000 C 83.500,138.000 83.455,138.170 80.500,137.000" stroke-width="4.191" stroke="black" fill="none" stroke-linecap="round"></path><path d="M 80.500,137.000 C 77.399,136.243 77.500,136.000 74.500,135.000" stroke-width="4.127" stroke="black" fill="none" stroke-linecap="round"></path><path d="M 74.500,135.000 C 70.640,132.592 70.399,133.243 66.500,131.000" stroke-width="4.368" stroke="black" fill="none" stroke-linecap="round"></path><path d="M 66.500,131.000 C 60.838,130.994 64.140,130.092 61.500,130.000" stroke-width="4.722" stroke="black" fill="none" stroke-linecap="round"></path><path d="M 61.500,130.000 C 66.000,127.500 62.838,127.994 70.500,125.000" stroke-width="5.001" stroke="black" fill="none" stroke-linecap="round"></path><path d="M 70.500,125.000 C 75.229,122.847 75.000,122.500 79.500,120.000" stroke-width="3.849" stroke="black" fill="none" stroke-linecap="round"></path><path d="M 79.500,120.000 C 83.864,116.311 84.229,116.847 88.500,113.000" stroke-width="3.498" stroke="black" fill="none" stroke-linecap="round"></path><path d="M 88.500,113.000 C 94.500,109.000 94.364,108.811 100.500,105.000" stroke-width="3.167" stroke="black" fill="none" stroke-linecap="round"></path><path d="M 100.500,105.000 C 105.000,102.000 105.000,102.000 109.500,99.000" stroke-width="3.402" stroke="black" fill="none" stroke-linecap="round"></path><path d="M 109.500,99.000 C 113.916,95.865 114.000,96.000 118.500,93.000" stroke-width="3.427" stroke="black" fill="none" stroke-linecap="round"></path><path d="M 118.500,93.000 C 121.903,90.799 121.916,90.865 125.500,89.000" stroke-width="3.690" stroke="black" fill="none" stroke-linecap="round"></path><path d="M 125.500,89.000 C 131.165,85.803 127.903,87.799 130.500,87.000" stroke-width="4.038" stroke="black" fill="none" stroke-linecap="round"></path><path d="M 130.500,87.000 C 125.631,92.625 128.665,90.303 120.500,98.000" stroke-width="4.513" stroke="black" fill="none" stroke-linecap="round"></path><path d="M 120.500,98.000 C 114.751,103.271 115.131,103.625 109.500,109.000" stroke-width="3.350" stroke="black" fill="none" stroke-linecap="round"></path><path d="M 109.500,109.000 C 103.977,115.480 103.751,115.271 98.500,122.000" stroke-width="2.887" stroke="black" fill="none" stroke-linecap="round"></path><path d="M 98.500,122.000 C 93.221,127.788 93.477,127.980 88.500,134.000" stroke-width="2.973" stroke="black" fill="none" stroke-linecap="round"></path><path d="M 88.500,134.000 C 84.396,140.815 83.721,140.288 79.500,147.000" stroke-width="2.871" stroke="black" fill="none" stroke-linecap="round"></path><path d="M 79.500,147.000 C 74.487,152.488 74.896,152.815 69.500,158.000" stroke-width="2.961" stroke="black" fill="none" stroke-linecap="round"></path><path d="M 69.500,158.000 C 65.568,163.656 64.987,162.988 60.500,168.000" stroke-width="3.027" stroke="black" fill="none" stroke-linecap="round"></path><path d="M 60.500,168.000 C 54.696,172.338 55.068,172.656 48.500,176.000" stroke-width="2.978" stroke="black" fill="none" stroke-linecap="round"></path><path d="M 48.500,176.000 C 43.446,178.397 43.696,178.838 38.500,181.000" stroke-width="3.204" stroke="black" fill="none" stroke-linecap="round"></path><path d="M 38.500,181.000 C 34.098,183.701 33.946,183.397 29.500,186.000" stroke-width="3.408" stroke="black" fill="none" stroke-linecap="round"></path><path d="M 29.500,186.000 C 26.015,187.536 26.098,187.701 22.500,189.000" stroke-width="3.728" stroke="black" fill="none" stroke-linecap="round"></path><path d="M 22.500,189.000 C 19.901,189.800 20.015,190.036 17.500,191.000" stroke-width="4.093" stroke="black" fill="none" stroke-linecap="round"></path><path d="M 17.500,191.000 C 15.167,192.933 14.901,192.300 12.500,194.000" stroke-width="4.114" stroke="black" fill="none" stroke-linecap="round"></path><path d="M 12.500,194.000 C 7.500,195.838 10.167,194.933 7.500,195.000" stroke-width="4.629" stroke="black" fill="none" stroke-linecap="round"></path><path d="M 7.500,195.000 C 9.916,192.412 7.500,193.838 12.500,190.000" stroke-width="4.921" stroke="black" fill="none" stroke-linecap="round"></path><path d="M 12.500,190.000 C 17.279,185.227 17.416,185.412 22.500,181.000" stroke-width="3.656" stroke="black" fill="none" stroke-linecap="round"></path><path d="M 22.500,181.000 C 27.846,176.770 27.779,176.727 33.500,173.000" stroke-width="3.267" stroke="black" fill="none" stroke-linecap="round"></path><path d="M 33.500,173.000 C 39.784,168.598 39.846,168.770 46.500,165.000" stroke-width="3.049" stroke="black" fill="none" stroke-linecap="round"></path><path d="M 46.500,165.000 C 54.100,161.700 53.784,161.098 61.500,158.000" stroke-width="2.844" stroke="black" fill="none" stroke-linecap="round"></path><path d="M 61.500,158.000 C 68.951,153.905 69.100,154.200 76.500,150.000" stroke-width="2.822" stroke="black" fill="none" stroke-linecap="round"></path><path d="M 76.500,150.000 C 83.613,146.708 83.451,146.405 90.500,143.000" stroke-width="2.837" stroke="black" fill="none" stroke-linecap="round"></path><path d="M 90.500,143.000 C 96.349,139.209 96.613,139.708 102.500,136.000" stroke-width="2.956" stroke="black" fill="none" stroke-linecap="round"></path><path d="M 102.500,136.000 C 108.046,133.597 107.849,133.209 113.500,131.000" stroke-width="3.181" stroke="black" fill="none" stroke-linecap="round"></path><path d="M 113.500,131.000 C 118.696,128.826 118.546,128.597 123.500,126.000" stroke-width="3.327" stroke="black" fill="none" stroke-linecap="round"></path><path d="M 123.500,126.000 C 126.964,123.448 127.196,123.826 130.500,121.000" stroke-width="3.648" stroke="black" fill="none" stroke-linecap="round"></path><path d="M 130.500,121.000 C 133.698,119.242 133.464,118.948 136.500,117.000" stroke-width="3.854" stroke="black" fill="none" stroke-linecap="round"></path><path d="M 136.500,117.000 C 141.297,113.199 138.698,115.242 140.500,113.000" stroke-width="4.060" stroke="black" fill="none" stroke-linecap="round"></path><path d="M 140.500,113.000 C 136.465,114.414 139.297,112.699 132.500,116.000" stroke-width="4.733" stroke="black" fill="none" stroke-linecap="round"></path><path d="M 132.500,116.000 C 128.900,117.300 128.965,117.414 125.500,119.000" stroke-width="4.158" stroke="black" fill="none" stroke-linecap="round"></path><path d="M 125.500,119.000 C 122.000,121.000 121.900,120.800 118.500,123.000" stroke-width="3.857" stroke="black" fill="none" stroke-linecap="round"></path><path d="M 118.500,123.000 C 114.766,124.667 115.000,125.000 111.500,127.000" stroke-width="3.774" stroke="black" fill="none" stroke-linecap="round"></path><path d="M 111.500,127.000 C 107.466,129.540 107.766,129.667 104.500,133.000" stroke-width="3.868" stroke="black" fill="none" stroke-linecap="round"></path><path d="M 104.500,133.000 C 101.595,136.809 101.466,136.540 99.500,141.000" stroke-width="3.689" stroke="black" fill="none" stroke-linecap="round"></path><path d="M 99.500,141.000 C 97.736,143.931 98.095,143.809 97.500,147.000" stroke-width="3.922" stroke="black" fill="none" stroke-linecap="round"></path><path d="M 97.500,147.000 C 96.757,151.676 97.236,150.431 98.500,154.000" stroke-width="4.378" stroke="black" fill="none" stroke-linecap="round"></path><path d="M 98.500,154.000 C 100.971,154.789 99.757,155.676 103.500,155.000" stroke-width="4.342" stroke="black" fill="none" stroke-linecap="round"></path><path d="M 103.500,155.000 C 107.103,155.637 106.971,155.289 110.500,155.000" stroke-width="4.033" stroke="black" fill="none" stroke-linecap="round"></path><path d="M 110.500,155.000 C 115.295,154.103 115.103,154.137 119.500,152.000" stroke-width="3.727" stroke="black" fill="none" stroke-linecap="round"></path><path d="M 119.500,152.000 C 124.213,149.278 124.295,149.603 128.500,146.000" stroke-width="3.459" stroke="black" fill="none" stroke-linecap="round"></path><path d="M 128.500,146.000 C 132.182,142.048 132.713,142.778 136.500,139.000" stroke-width="3.513" stroke="black" fill="none" stroke-linecap="round"></path><path d="M 136.500,139.000 C 141.492,137.083 140.682,136.048 145.500,134.000" stroke-width="3.449" stroke="black" fill="none" stroke-linecap="round"></path><path d="M 145.500,134.000 C 150.784,130.101 147.992,132.083 149.500,129.000" stroke-width="3.828" stroke="black" fill="none" stroke-linecap="round"></path><path d="M 149.500,129.000 C 143.421,126.524 147.284,127.101 138.500,128.000" stroke-width="4.465" stroke="black" fill="none" stroke-linecap="round"></path><path d="M 138.500,128.000 C 133.482,131.018 133.421,129.524 129.500,135.000" stroke-width="3.635" stroke="black" fill="none" stroke-linecap="round"></path><path d="M 129.500,135.000 C 127.217,137.851 126.982,137.518 125.500,141.000" stroke-width="3.850" stroke="black" fill="none" stroke-linecap="round"></path><path d="M 125.500,141.000 C 124.204,143.417 124.217,143.351 123.500,146.000" stroke-width="4.094" stroke="black" fill="none" stroke-linecap="round"></path><path d="M 123.500,146.000 C 121.723,149.409 122.704,148.917 122.500,152.000" stroke-width="4.171" stroke="black" fill="none" stroke-linecap="round"></path><path d="M 122.500,152.000 C 124.042,155.106 123.223,154.409 126.500,156.000" stroke-width="4.745" stroke="black" fill="none" stroke-linecap="round"></path><path d="M 126.500,156.000 C 130.359,157.122 129.542,157.106 133.500,156.000" stroke-width="4.130" stroke="black" fill="none" stroke-linecap="round"></path><path d="M 133.500,156.000 C 137.207,153.744 137.359,154.622 140.500,151.000" stroke-width="3.788" stroke="black" fill="none" stroke-linecap="round"></path><path d="M 140.500,151.000 C 143.308,148.740 143.207,148.744 145.500,146.000" stroke-width="3.915" stroke="black" fill="none" stroke-linecap="round"></path><path d="M 145.500,146.000 C 146.935,143.459 147.308,143.740 148.500,141.000" stroke-width="4.244" stroke="black" fill="none" stroke-linecap="round"></path><path d="M 148.500,141.000 C 149.910,137.331 150.435,137.959 152.500,135.000" stroke-width="4.514" stroke="black" fill="none" stroke-linecap="round"></path><path d="M 152.500,135.000 C 155.383,133.199 154.910,132.831 158.500,132.000" stroke-width="4.609" stroke="black" fill="none" stroke-linecap="round"></path><path d="M 158.500,132.000 C 162.158,131.407 161.883,130.699 165.500,130.000" stroke-width="4.118" stroke="black" fill="none" stroke-linecap="round"></path><path d="M 165.500,130.000 C 171.717,127.374 171.658,127.407 177.500,124.000" stroke-width="3.315" stroke="black" fill="none" stroke-linecap="round"></path><path d="M 177.500,124.000 C 183.708,120.281 183.717,120.374 189.500,116.000" stroke-width="3.057" stroke="black" fill="none" stroke-linecap="round"></path><path d="M 189.500,116.000 C 195.351,111.863 195.208,111.781 200.500,107.000" stroke-width="3.062" stroke="black" fill="none" stroke-linecap="round"></path><path d="M 200.500,107.000 C 204.123,103.101 204.351,103.363 207.500,99.000" stroke-width="3.278" stroke="black" fill="none" stroke-linecap="round"></path><path d="M 207.500,99.000 C 211.131,94.594 211.123,94.601 214.500,90.000" stroke-width="3.282" stroke="black" fill="none" stroke-linecap="round"></path><path d="M 214.500,90.000 C 219.870,83.041 216.631,87.094 218.500,84.000" stroke-width="3.723" stroke="black" fill="none" stroke-linecap="round"></path><path d="M 218.500,84.000 C 211.385,90.380 214.870,86.541 204.500,97.000" stroke-width="4.273" stroke="black" fill="none" stroke-linecap="round"></path><path d="M 204.500,97.000 C 198.341,102.851 198.385,102.880 192.500,109.000" stroke-width="3.136" stroke="black" fill="none" stroke-linecap="round"></path><path d="M 192.500,109.000 C 188.777,112.829 188.841,112.851 185.500,117.000" stroke-width="3.357" stroke="black" fill="none" stroke-linecap="round"></path><path d="M 185.500,117.000 C 183.217,119.851 183.277,119.829 181.500,123.000" stroke-width="3.751" stroke="black" fill="none" stroke-linecap="round"></path><path d="M 181.500,123.000 C 178.580,127.310 180.217,125.351 179.500,128.000" stroke-width="4.483" stroke="black" fill="none" stroke-linecap="round"></path><path d="M 179.500,128.000 C 182.770,127.536 180.580,128.810 185.500,126.000" stroke-width="4.596" stroke="black" fill="none" stroke-linecap="round"></path><path d="M 185.500,126.000 C 190.463,122.446 190.770,123.036 195.500,119.000" stroke-width="3.583" stroke="black" fill="none" stroke-linecap="round"></path><path d="M 195.500,119.000 C 199.847,115.737 199.963,115.946 204.500,113.000" stroke-width="3.421" stroke="black" fill="none" stroke-linecap="round"></path><path d="M 204.500,113.000 C 208.443,110.873 208.347,110.737 212.500,109.000" stroke-width="3.550" stroke="black" fill="none" stroke-linecap="round"></path><path d="M 212.500,109.000 C 216.973,105.286 214.943,107.873 217.500,107.000" stroke-width="3.987" stroke="black" fill="none" stroke-linecap="round"></path><path d="M 217.500,107.000 C 219.003,115.243 218.973,111.786 216.500,122.000" stroke-width="4.204" stroke="black" fill="none" stroke-linecap="round"></path><path d="M 216.500,122.000 C 211.480,127.699 214.003,128.743 207.500,134.000" stroke-width="3.339" stroke="black" fill="none" stroke-linecap="round"></path><path d="M 207.500,134.000 C 205.698,137.406 205.480,137.199 204.500,141.000" stroke-width="3.746" stroke="black" fill="none" stroke-linecap="round"></path><path d="M 204.500,141.000 C 201.765,145.333 203.698,143.406 203.500,146.000" stroke-width="4.135" stroke="black" fill="none" stroke-linecap="round"></path><path d="M 203.500,146.000 C 210.975,147.757 208.265,147.833 217.500,146.000" stroke-width="4.313" stroke="black" fill="none" stroke-linecap="round"></path><path d="M 217.500,146.000 C 223.387,142.292 223.975,144.257 229.500,139.000" stroke-width="3.311" stroke="black" fill="none" stroke-linecap="round"></path><path d="M 229.500,139.000 C 236.391,135.258 236.387,135.292 243.500,132.000" stroke-width="3.093" stroke="black" fill="none" stroke-linecap="round"></path><path d="M 243.500,132.000 C 248.369,129.509 248.391,129.758 253.500,128.000" stroke-width="3.277" stroke="black" fill="none" stroke-linecap="round"></path><path d="M 253.500,128.000 C 256.982,127.251 256.869,127.009 260.500,127.000" stroke-width="3.775" stroke="black" fill="none" stroke-linecap="round"></path><path d="M 260.500,127.000 C 265.867,125.133 263.982,126.751 267.500,127.000" stroke-width="4.342" stroke="black" fill="none" stroke-linecap="round"></path><path d="M 267.500,127.000 C 268.875,131.389 269.367,129.133 267.500,135.000" stroke-width="3.967" stroke="black" fill="none" stroke-linecap="round"></path><path d="M 267.500,135.000 C 263.283,141.379 264.875,141.889 259.500,148.000" stroke-width="3.137" stroke="black" fill="none" stroke-linecap="round"></path><path d="M 259.500,148.000 C 257.092,151.860 257.283,151.879 255.500,156.000" stroke-width="3.662" stroke="black" fill="none" stroke-linecap="round"></path><path d="M 255.500,156.000 C 253.384,159.438 254.592,158.360 254.500,161.000" stroke-width="4.103" stroke="black" fill="none" stroke-linecap="round"></path><path d="M 254.500,161.000 C 257.518,163.351 255.884,162.938 260.500,163.000" stroke-width="4.545" stroke="black" fill="none" stroke-linecap="round"></path><path d="M 260.500,163.000 C 266.348,161.688 266.018,162.351 271.500,159.000" stroke-width="3.552" stroke="black" fill="none" stroke-linecap="round"></path><path d="M 271.500,159.000 C 277.708,155.281 277.848,155.688 283.500,151.000" stroke-width="3.115" stroke="black" fill="none" stroke-linecap="round"></path><path d="M 283.500,151.000 C 288.701,146.059 289.208,146.781 294.500,142.000" stroke-width="3.018" stroke="black" fill="none" stroke-linecap="round"></path><path d="M 294.500,142.000 C 298.902,139.299 298.701,139.059 303.500,137.000" stroke-width="3.290" stroke="black" fill="none" stroke-linecap="round"></path><path d="M 303.500,137.000 C 306.906,135.198 306.902,135.299 310.500,134.000" stroke-width="3.685" stroke="black" fill="none" stroke-linecap="round"></path><path d="M 310.500,134.000 C 315.625,131.370 312.906,133.198 315.500,133.000" stroke-width="4.465" stroke="black" fill="none" stroke-linecap="round"></path><path d="M 315.500,133.000 C 312.500,140.000 315.125,137.870 309.500,147.000" stroke-width="4.042" stroke="black" fill="none" stroke-linecap="round"></path><path d="M 309.500,147.000 C 307.082,150.312 308.000,150.500 306.500,154.000" stroke-width="3.878" stroke="black" fill="none" stroke-linecap="round"></path><path d="M 306.500,154.000 C 304.100,162.400 305.582,159.812 306.500,166.000" stroke-width="4.090" stroke="black" fill="none" stroke-linecap="round"></path><path d="M 306.500,166.000 C 310.500,166.000 308.100,168.400 314.500,166.000" stroke-width="3.901" stroke="black" fill="none" stroke-linecap="round"></path><path d="M 314.500,166.000 C 321.342,167.540 321.000,166.000 327.500,166.000" stroke-width="3.373" stroke="black" fill="none" stroke-linecap="round"></path><path d="M 327.500,166.000 C 335.289,163.030 335.342,164.040 342.500,159.000" stroke-width="2.989" stroke="black" fill="none" stroke-linecap="round"></path><path d="M 342.500,159.000 C 352.241,153.349 352.289,153.530 361.500,147.000" stroke-width="2.503" stroke="black" fill="none" stroke-linecap="round"></path><path d="M 361.500,147.000 C 369.756,141.310 369.741,141.349 377.500,135.000" stroke-width="2.559" stroke="black" fill="none" stroke-linecap="round"></path><path d="M 377.500,135.000 C 383.105,130.111 383.256,130.310 388.500,125.000" stroke-width="2.799" stroke="black" fill="none" stroke-linecap="round"></path><path d="M 388.500,125.000 C 392.655,121.141 392.605,121.111 396.500,117.000" stroke-width="3.180" stroke="black" fill="none" stroke-linecap="round"></path><path d="M 396.500,117.000 C 399.210,114.149 399.155,114.141 401.500,111.000" stroke-width="3.624" stroke="black" fill="none" stroke-linecap="round"></path><path d="M 401.500,111.000 C 405.033,107.067 403.210,108.649 404.500,106.000" stroke-width="4.375" stroke="black" fill="none" stroke-linecap="round"></path><path d="M 404.500,106.000 C 401.819,106.006 404.033,105.067 399.500,107.000" stroke-width="4.961" stroke="black" fill="none" stroke-linecap="round"></path><path d="M 399.500,107.000 C 394.987,109.476 394.819,109.006 390.500,112.000" stroke-width="4.469" stroke="black" fill="none" stroke-linecap="round"></path><path d="M 390.500,112.000 C 386.874,113.800 386.987,113.976 383.500,116.000" stroke-width="3.991" stroke="black" fill="none" stroke-linecap="round"></path><path d="M 383.500,116.000 C 375.258,121.181 375.374,121.300 367.500,127.000" stroke-width="3.665" stroke="black" fill="none" stroke-linecap="round"></path><path d="M 367.500,127.000 C 361.717,132.283 361.258,131.681 355.500,137.000" stroke-width="3.119" stroke="black" fill="none" stroke-linecap="round"></path><path d="M 355.500,137.000 C 347.259,143.404 347.217,143.283 338.500,149.000" stroke-width="2.681" stroke="black" fill="none" stroke-linecap="round"></path><path d="M 338.500,149.000 C 329.255,154.997 329.259,154.904 319.500,160.000" stroke-width="2.577" stroke="black" fill="none" stroke-linecap="round"></path><path d="M 319.500,160.000 C 309.746,165.158 309.755,164.997 299.500,169.000" stroke-width="2.430" stroke="black" fill="none" stroke-linecap="round"></path><path d="M 299.500,169.000 C 289.537,172.132 289.746,172.658 279.500,175.000" stroke-width="2.549" stroke="black" fill="none" stroke-linecap="round"></path><path d="M 279.500,175.000 C 272.057,177.256 272.037,177.132 264.500,179.000" stroke-width="2.756" stroke="black" fill="none" stroke-linecap="round"></path><path d="M 264.500,179.000 C 259.013,180.081 259.057,180.256 253.500,181.000" stroke-width="3.122" stroke="black" fill="none" stroke-linecap="round"></path><path d="M 253.500,181.000 C 245.225,182.992 250.013,181.581 246.500,182.000" stroke-width="3.630" stroke="black" fill="none" stroke-linecap="round"></path><path d="M 246.500,182.000 C 254.549,178.096 249.725,179.492 262.500,174.000" stroke-width="3.974" stroke="black" fill="none" stroke-linecap="round"></path><path d="M 262.500,174.000 C 270.854,169.200 271.049,169.596 279.500,165.000" stroke-width="2.935" stroke="black" fill="none" stroke-linecap="round"></path><path d="M 279.500,165.000 C 288.411,160.787 288.354,160.700 297.500,157.000" stroke-width="2.632" stroke="black" fill="none" stroke-linecap="round"></path><path d="M 297.500,157.000 C 306.293,152.850 306.411,153.287 315.500,150.000" stroke-width="2.633" stroke="black" fill="none" stroke-linecap="round"></path><path d="M 315.500,150.000 C 327.433,146.640 327.293,146.350 339.500,144.000" stroke-width="3.015" stroke="black" fill="none" stroke-linecap="round"></path><path d="M 339.500,144.000 C 343.518,143.613 343.433,143.140 347.500,143.000" stroke-width="3.534" stroke="black" fill="none" stroke-linecap="round"></path><path d="M 347.500,143.000 C 352.500,141.757 350.018,142.613 352.500,142.000" stroke-width="4.386" stroke="black" fill="none" stroke-linecap="round"></path><path d="M 352.500,142.000 C 350.041,143.111 352.500,142.257 347.500,144.000" stroke-width="4.678" stroke="black" fill="none" stroke-linecap="round"></path><path d="M 347.500,144.000 C 340.020,146.561 340.041,146.611 332.500,149.000" stroke-width="3.357" stroke="black" fill="none" stroke-linecap="round"></path><path d="M 332.500,149.000 C 321.603,152.858 321.520,152.561 310.500,156.000" stroke-width="2.612" stroke="black" fill="none" stroke-linecap="round"></path><path d="M 310.500,156.000 C 294.936,159.767 295.103,160.358 279.500,164.000" stroke-width="2.111" stroke="black" fill="none" stroke-linecap="round"></path><path d="M 279.500,164.000 C 264.027,168.597 263.936,168.267 248.500,173.000" stroke-width="1.932" stroke="black" fill="none" stroke-linecap="round"></path><path d="M 248.500,173.000 C 230.604,178.410 230.527,178.097 212.500,183.000" stroke-width="1.808" stroke="black" fill="none" stroke-linecap="round"></path><path d="M 212.500,183.000 C 195.141,187.792 195.104,187.410 177.500,191.000" stroke-width="1.808" stroke="black" fill="none" stroke-linecap="round"></path><path d="M 177.500,191.000 C 162.052,193.611 162.141,193.792 146.500,195.000" stroke-width="1.874" stroke="black" fill="none" stroke-linecap="round"></path><path d="M 146.500,195.000 C 134.005,195.745 134.052,196.111 121.500,196.000" stroke-width="2.087" stroke="black" fill="none" stroke-linecap="round"></path><path d="M 121.500,196.000 C 109.151,198.210 109.505,196.245 97.500,196.000" stroke-width="2.199" stroke="black" fill="none" stroke-linecap="round"></path><path d="M 97.500,196.000 C 80.257,191.094 80.151,192.710 63.500,185.000" stroke-width="2.553" stroke="black" fill="none" stroke-linecap="round"></path><path d="M 63.500,185.000 C 58.269,182.861 58.257,183.094 53.500,180.000" stroke-width="3.088" stroke="black" fill="none" stroke-linecap="round"></path><path d="M 53.500,180.000 C 50.170,178.505 50.769,178.361 48.500,176.000" stroke-width="3.725" stroke="black" fill="none" stroke-linecap="round"></path><path d="M 48.500,176.000 C 46.964,173.412 47.170,174.005 47.500,171.000" stroke-width="4.127" stroke="black" fill="none" stroke-linecap="round"></path><path d="M 47.500,171.000 C 48.499,163.525 48.964,164.412 52.500,158.000" stroke-width="3.343" stroke="black" fill="none" stroke-linecap="round"></path><path d="M 52.500,158.000 C 60.033,149.471 58.999,149.025 68.500,142.000" stroke-width="2.563" stroke="black" fill="none" stroke-linecap="round"></path><path d="M 68.500,142.000 C 76.907,134.059 77.033,134.471 86.500,128.000" stroke-width="2.387" stroke="black" fill="none" stroke-linecap="round"></path><path d="M 86.500,128.000 C 95.987,121.504 95.907,122.059 106.500,118.000" stroke-width="2.471" stroke="black" fill="none" stroke-linecap="round"></path><path d="M 106.500,118.000 C 118.864,114.128 118.487,114.004 131.500,113.000" stroke-width="2.422" stroke="black" fill="none" stroke-linecap="round"></path><path d="M 131.500,113.000 C 147.000,113.000 146.864,111.628 162.500,113.000" stroke-width="2.043" stroke="black" fill="none" stroke-linecap="round"></path><path d="M 162.500,113.000 C 178.504,112.742 178.500,113.000 194.500,113.000" stroke-width="1.923" stroke="black" fill="none" stroke-linecap="round"></path><path d="M 194.500,113.000 C 209.511,113.275 209.504,113.242 224.500,114.000" stroke-width="1.946" stroke="black" fill="none" stroke-linecap="round"></path><path d="M 224.500,114.000 C 240.486,115.438 240.511,114.775 256.500,116.000" stroke-width="1.894" stroke="black" fill="none" stroke-linecap="round"></path><path d="M 256.500,116.000 C 269.000,116.000 268.986,116.438 281.500,116.000" stroke-width="2.095" stroke="black" fill="none" stroke-linecap="round"></path><path d="M 281.500,116.000 C 292.012,115.692 292.000,116.000 302.500,116.000" stroke-width="2.422" stroke="black" fill="none" stroke-linecap="round"></path><path d="M 302.500,116.000 C 309.083,116.037 309.012,116.192 315.500,117.000" stroke-width="2.860" stroke="black" fill="none" stroke-linecap="round"></path><path d="M 315.500,117.000 C 322.324,116.538 319.083,117.537 322.500,119.000" stroke-width="3.538" stroke="black" fill="none" stroke-linecap="round"></path><path d="M 322.500,119.000 C 321.677,127.151 322.824,123.538 316.500,131.000" stroke-width="3.825" stroke="black" fill="none" stroke-linecap="round"></path><path d="M 316.500,131.000 C 300.234,139.987 302.177,141.651 283.500,148.000" stroke-width="2.034" stroke="black" fill="none" stroke-linecap="round"></path><path d="M 283.500,148.000 C 265.057,158.068 264.734,156.987 245.500,165.000" stroke-width="1.734" stroke="black" fill="none" stroke-linecap="round"></path><path d="M 245.500,165.000 C 225.214,171.606 225.557,172.068 204.500,176.000" stroke-width="1.644" stroke="black" fill="none" stroke-linecap="round"></path><path d="M 204.500,176.000 C 192.036,178.105 192.214,178.606 179.500,179.000" stroke-width="1.989" stroke="black" fill="none" stroke-linecap="round"></path><path d="M 179.500,179.000 C 171.000,179.000 171.036,179.605 162.500,179.000" stroke-width="2.454" stroke="black" fill="none" stroke-linecap="round"></path></svg>