<svg xmlns="http://www.w3.org/2000/svg" xmlns:xlink="http://www.w3.org/1999/xlink" viewBox="0 0 2656 1476" width="2656" height="1476"><path d="M 105.000,213.500 C 103.387,205.857 104.500,206.000 104.000,198.500" stroke-width="4.088" stroke="black" fill="none" stroke-linecap="round"></path><path d="M 104.000,198.500 C 104.708,193.511 104.387,193.857 107.000,189.500" stroke-width="4.552" stroke="black" fill="none" stroke-linecap="round"></path><path d="M 107.000,189.500 C 109.500,187.000 108.708,186.511 112.000,184.500" stroke-width="4.130" stroke="black" fill="none" stroke-linecap="round"></path><path d="M 112.000,184.500 C 116.336,180.775 116.000,180.500 120.000,176.500" stroke-width="3.573" stroke="black" fill="none" stroke-linecap="round"></path><path d="M 120.000,176.500 C 121.806,173.353 122.336,173.775 124.000,170.500" stroke-width="3.728" stroke="black" fill="none" stroke-linecap="round"></path><path d="M 124.000,170.500 C 131.450,164.743 126.806,166.853 130.000,163.500" stroke-width="4.190" stroke="black" fill="none" stroke-linecap="round"></path><path d="M 130.000,163.500 C 123.472,163.753 127.950,161.743 117.000,164.500" stroke-width="4.547" stroke="black" fill="none" stroke-linecap="round"></path><path d="M 117.000,164.500 C 110.533,165.932 110.472,165.253 104.000,166.500" stroke-width="3.416" stroke="black" fill="none" stroke-linecap="round"></path><path d="M 104.000,166.500 C 99.000,166.500 99.033,166.932 94.000,166.500" stroke-width="3.448" stroke="black" fill="none" stroke-linecap="round"></path><path d="M 94.000,166.500 C 88.970,168.044 89.500,166.500 85.000,166.500" stroke-width="3.553" stroke="black" fill="none" stroke-linecap="round"></path><path d="M 85.000,166.500 C 80.147,163.370 79.970,164.544 76.000,159.500" stroke-width="3.361" stroke="black" fill="none" stroke-linecap="round"></path><path d="M 76.000,159.500 C 72.667,156.234 72.647,156.370 70.000,152.500" stroke-width="3.556" stroke="black" fill="none" stroke-linecap="round"></path><path d="M 70.000,152.500 C 67.608,149.175 67.667,149.234 66.000,145.500" stroke-width="3.683" stroke="black" fill="none" stroke-linecap="round"></path><path d="M 66.000,145.500 C 64.268,141.064 64.108,141.175 63.000,136.500" stroke-width="3.683" stroke="black" fill="none" stroke-linecap="round"></path><path d="M 63.000,136.500 C 61.535,132.051 61.768,132.064 61.000,127.500" stroke-width="3.658" stroke="black" fill="none" stroke-linecap="round"></path><path d="M 61.000,127.500 C 61.000,123.500 60.535,123.551 61.000,119.500" stroke-width="3.973" stroke="black" fill="none" stroke-linecap="round"></path><path d="M 61.000,119.500 C 62.446,114.236 61.000,116.000 61.000,112.500" stroke-width="4.418" stroke="black" fill="none" stroke-linecap="round"></path><path d="M 61.000,112.500 C 58.095,112.243 59.946,111.236 56.000,113.500" stroke-width="4.613" stroke="black" fill="none" stroke-linecap="round"></path><path d="M 56.000,113.500 C 53.500,116.000 53.095,115.243 51.000,118.500" stroke-width="4.145" stroke="black" fill="none" stroke-linecap="round"></path><path d="M 51.000,118.500 C 44.967,122.261 48.500,121.000 46.000,123.500" stroke-width="4.490" stroke="black" fill="none" stroke-linecap="round"></path><path d="M 46.000,123.500 C 50.988,124.166 47.467,125.261 56.000,124.500" stroke-width="4.613" stroke="black" fill="none" stroke-linecap="round"></path><path d="M 56.000,124.500 C 66.042,124.552 65.988,125.166 76.000,125.500" stroke-width="2.976" stroke="black" fill="none" stroke-linecap="round"></path><path d="M 76.000,125.500 C 87.178,126.181 87.042,126.552 98.000,128.500" stroke-width="2.978" stroke="black" fill="none" stroke-linecap="round"></path><path d="M 98.000,128.500 C 108.238,130.874 108.178,130.681 118.000,134.500" stroke-width="2.645" stroke="black" fill="none" stroke-linecap="round"></path><path d="M 118.000,134.500 C 125.840,137.408 125.738,137.374 133.000,141.500" stroke-width="2.785" stroke="black" fill="none" stroke-linecap="round"></path><path d="M 133.000,141.500 C 140.509,145.009 139.840,145.408 146.000,150.500" stroke-width="2.816" stroke="black" fill="none" stroke-linecap="round"></path><path d="M 146.000,150.500 C 151.475,155.936 151.009,155.509 154.000,162.500" stroke-width="2.971" stroke="black" fill="none" stroke-linecap="round"></path><path d="M 154.000,162.500 C 156.000,169.477 156.475,168.936 156.000,176.500" stroke-width="2.981" stroke="black" fill="none" stroke-linecap="round"></path><path d="M 156.000,176.500 C 156.421,187.332 156.000,186.977 154.000,197.500" stroke-width="2.635" stroke="black" fill="none" stroke-linecap="round"></path><path d="M 154.000,197.500 C 150.319,208.135 151.421,208.332 146.000,218.500" stroke-width="2.483" stroke="black" fill="none" stroke-linecap="round"></path><path d="M 146.000,218.500 C 142.066,225.835 142.819,226.135 139.000,233.500" stroke-width="2.827" stroke="black" fill="none" stroke-linecap="round"></path><path d="M 139.000,233.500 C 136.000,238.551 137.066,238.335 136.000,243.500" stroke-width="3.864" stroke="black" fill="none" stroke-linecap="round"></path><path d="M 136.000,243.500 C 135.705,251.029 136.000,247.551 139.000,251.500" stroke-width="3.779" stroke="black" fill="none" stroke-linecap="round"></path><path d="M 139.000,251.500 C 147.994,248.977 146.205,252.529 157.000,246.500" stroke-width="3.003" stroke="black" fill="none" stroke-linecap="round"></path><path d="M 157.000,246.500 C 167.928,243.206 167.994,243.477 179.000,240.500" stroke-width="2.556" stroke="black" fill="none" stroke-linecap="round"></path><path d="M 179.000,240.500 C 190.370,236.792 190.428,237.706 202.000,235.500" stroke-width="2.415" stroke="black" fill="none" stroke-linecap="round"></path><path d="M 202.000,235.500 C 213.302,233.639 212.870,234.292 224.000,235.500" stroke-width="2.594" stroke="black" fill="none" stroke-linecap="round"></path><path d="M 224.000,235.500 C 237.733,237.340 236.302,237.639 248.000,243.500" stroke-width="2.410" stroke="black" fill="none" stroke-linecap="round"></path><path d="M 248.000,243.500 C 252.735,248.019 252.733,246.340 254.000,253.500" stroke-width="2.944" stroke="black" fill="none" stroke-linecap="round"></path><path d="M 254.000,253.500 C 255.047,261.647 255.735,261.019 254.000,269.500" stroke-width="2.851" stroke="black" fill="none" stroke-linecap="round"></path><path d="M 254.000,269.500 C 252.119,276.537 253.047,276.647 250.000,283.500" stroke-width="2.916" stroke="black" fill="none" stroke-linecap="round"></path><path d="M 250.000,283.500 C 248.578,288.028 248.619,288.037 247.000,292.500" stroke-width="3.321" stroke="black" fill="none" stroke-linecap="round"></path></svg>