<svg xmlns="http://www.w3.org/2000/svg" xmlns:xlink="http://www.w3.org/1999/xlink" viewBox="0 0 809 405" width="809" height="405"><path d="M 348.000,263.000 C 341.399,262.253 345.000,261.500 342.000,260.000" stroke-width="5.384" stroke="black" fill="none" stroke-linecap="round"></path><path d="M 342.000,260.000 C 345.100,251.450 343.399,254.753 352.000,248.000" stroke-width="4.271" stroke="black" fill="none" stroke-linecap="round"></path><path d="M 352.000,248.000 C 400.030,223.636 399.100,224.450 450.000,206.000" stroke-width="1.125" stroke="black" fill="none" stroke-linecap="round"></path><path d="M 450.000,206.000 C 468.919,202.356 468.030,199.636 488.000,200.000" stroke-width="1.396" stroke="black" fill="none" stroke-linecap="round"></path><path d="M 488.000,200.000 C 509.471,197.560 509.419,197.356 531.000,196.000" stroke-width="1.481" stroke="black" fill="none" stroke-linecap="round"></path><path d="M 531.000,196.000 C 543.996,195.302 543.971,195.060 557.000,195.000" stroke-width="1.973" stroke="black" fill="none" stroke-linecap="round"></path><path d="M 557.000,195.000 C 565.686,193.853 565.496,194.802 574.000,195.000" stroke-width="2.494" stroke="black" fill="none" stroke-linecap="round"></path><path d="M 574.000,195.000 C 580.556,195.915 580.186,195.853 586.000,199.000" stroke-width="2.964" stroke="black" fill="none" stroke-linecap="round"></path><path d="M 586.000,199.000 C 596.230,204.230 595.556,204.415 604.000,212.000" stroke-width="2.510" stroke="black" fill="none" stroke-linecap="round"></path><path d="M 604.000,212.000 C 614.687,221.975 613.730,221.730 621.000,234.000" stroke-width="2.173" stroke="black" fill="none" stroke-linecap="round"></path><path d="M 621.000,234.000 C 628.544,244.153 625.187,241.975 625.000,252.000" stroke-width="2.516" stroke="black" fill="none" stroke-linecap="round"></path><path d="M 625.000,252.000 C 612.223,277.251 614.544,275.153 593.000,296.000" stroke-width="1.558" stroke="black" fill="none" stroke-linecap="round"></path><path d="M 593.000,296.000 C 569.950,316.508 571.723,316.751 544.000,331.000" stroke-width="1.225" stroke="black" fill="none" stroke-linecap="round"></path><path d="M 544.000,331.000 C 530.213,336.278 531.450,338.008 516.000,339.000" stroke-width="1.678" stroke="black" fill="none" stroke-linecap="round"></path><path d="M 516.000,339.000 C 505.952,341.377 506.713,340.778 497.000,340.000" stroke-width="2.337" stroke="black" fill="none" stroke-linecap="round"></path><path d="M 497.000,340.000 C 489.646,338.657 492.952,339.377 490.000,335.000" stroke-width="3.493" stroke="black" fill="none" stroke-linecap="round"></path><path d="M 490.000,335.000 C 490.537,318.288 491.146,323.157 500.000,309.000" stroke-width="2.414" stroke="black" fill="none" stroke-linecap="round"></path><path d="M 500.000,309.000 C 521.993,295.488 517.537,291.788 544.000,282.000" stroke-width="1.538" stroke="black" fill="none" stroke-linecap="round"></path><path d="M 544.000,282.000 C 552.599,275.700 552.993,276.488 562.000,271.000" stroke-width="2.068" stroke="black" fill="none" stroke-linecap="round"></path><path d="M 562.000,271.000 C 571.836,266.494 571.599,266.200 582.000,263.000" stroke-width="2.341" stroke="black" fill="none" stroke-linecap="round"></path><path d="M 582.000,263.000 C 589.788,257.473 587.836,260.994 594.000,260.000" stroke-width="2.914" stroke="black" fill="none" stroke-linecap="round"></path><path d="M 594.000,260.000 C 601.066,267.526 599.788,263.473 602.000,275.000" stroke-width="3.684" stroke="black" fill="none" stroke-linecap="round"></path><path d="M 602.000,275.000 C 601.061,281.157 602.566,279.526 597.000,284.000" stroke-width="3.497" stroke="black" fill="none" stroke-linecap="round"></path><path d="M 597.000,284.000 C 585.277,294.391 586.061,291.657 572.000,296.000" stroke-width="2.420" stroke="black" fill="none" stroke-linecap="round"></path><path d="M 572.000,296.000 C 551.036,295.710 552.277,298.391 531.000,292.000" stroke-width="1.818" stroke="black" fill="none" stroke-linecap="round"></path><path d="M 531.000,292.000 C 522.323,291.475 524.036,290.710 518.000,286.000" stroke-width="2.536" stroke="black" fill="none" stroke-linecap="round"></path><path d="M 518.000,286.000 C 497.594,261.940 499.823,262.975 486.000,235.000" stroke-width="1.463" stroke="black" fill="none" stroke-linecap="round"></path><path d="M 486.000,235.000 C 481.564,220.092 480.594,222.440 484.000,207.000" stroke-width="1.825" stroke="black" fill="none" stroke-linecap="round"></path><path d="M 484.000,207.000 C 486.128,195.800 485.564,198.592 494.000,192.000" stroke-width="2.331" stroke="black" fill="none" stroke-linecap="round"></path><path d="M 494.000,192.000 C 531.464,171.499 529.628,174.800 571.000,165.000" stroke-width="1.176" stroke="black" fill="none" stroke-linecap="round"></path><path d="M 571.000,165.000 C 605.755,164.479 604.464,159.499 640.000,168.000" stroke-width="1.130" stroke="black" fill="none" stroke-linecap="round"></path><path d="M 640.000,168.000 C 659.232,171.216 659.255,169.979 678.000,176.000" stroke-width="1.483" stroke="black" fill="none" stroke-linecap="round"></path><path d="M 678.000,176.000 C 684.983,177.691 684.732,177.716 691.000,181.000" stroke-width="2.299" stroke="black" fill="none" stroke-linecap="round"></path><path d="M 691.000,181.000 C 695.681,183.206 694.983,183.191 698.000,187.000" stroke-width="3.101" stroke="black" fill="none" stroke-linecap="round"></path><path d="M 698.000,187.000 C 704.345,193.694 701.181,192.206 702.000,199.000" stroke-width="3.719" stroke="black" fill="none" stroke-linecap="round"></path><path d="M 702.000,199.000 C 690.957,214.878 694.845,215.194 679.000,230.000" stroke-width="1.979" stroke="black" fill="none" stroke-linecap="round"></path><path d="M 679.000,230.000 C 673.742,236.258 673.957,236.378 668.000,242.000" stroke-width="2.573" stroke="black" fill="none" stroke-linecap="round"></path><path d="M 668.000,242.000 C 665.767,244.491 665.742,244.258 663.000,246.000" stroke-width="3.474" stroke="black" fill="none" stroke-linecap="round"></path><path d="M 663.000,246.000 C 658.828,249.828 660.267,247.491 657.000,248.000" stroke-width="3.889" stroke="black" fill="none" stroke-linecap="round"></path><path d="M 657.000,248.000 C 651.522,240.405 651.828,242.828 649.000,232.000" stroke-width="2.935" stroke="black" fill="none" stroke-linecap="round"></path><path d="M 649.000,232.000 C 647.710,224.950 647.022,225.405 648.000,218.000" stroke-width="3.036" stroke="black" fill="none" stroke-linecap="round"></path></svg>