<svg xmlns="http://www.w3.org/2000/svg" xmlns:xlink="http://www.w3.org/1999/xlink" viewBox="0 0 453 236" width="453" height="236"><path d="M 79.500,76.000 C 82.519,76.404 82.500,76.500 85.500,77.000" stroke-width="5.148" stroke="black" fill="none" stroke-linecap="round"></path><path d="M 85.500,77.000 C 90.056,77.788 90.019,77.904 94.500,79.000" stroke-width="4.058" stroke="black" fill="none" stroke-linecap="round"></path><path d="M 94.500,79.000 C 100.891,81.475 101.056,80.788 107.500,83.000" stroke-width="3.356" stroke="black" fill="none" stroke-linecap="round"></path><path d="M 107.500,83.000 C 114.033,83.824 113.891,84.475 120.500,85.000" stroke-width="3.163" stroke="black" fill="none" stroke-linecap="round"></path><path d="M 120.500,85.000 C 124.981,86.096 125.033,85.824 129.500,87.000" stroke-width="3.576" stroke="black" fill="none" stroke-linecap="round"></path><path d="M 129.500,87.000 C 133.742,86.047 132.481,87.596 135.500,88.000" stroke-width="3.955" stroke="black" fill="none" stroke-linecap="round"></path><path d="M 135.500,88.000 C 138.705,92.480 138.242,91.047 138.500,97.000" stroke-width="4.255" stroke="black" fill="none" stroke-linecap="round"></path><path d="M 138.500,97.000 C 137.412,103.933 138.205,103.480 134.500,110.000" stroke-width="3.395" stroke="black" fill="none" stroke-linecap="round"></path><path d="M 134.500,110.000 C 129.935,115.703 131.412,116.433 126.500,122.000" stroke-width="3.077" stroke="black" fill="none" stroke-linecap="round"></path><path d="M 126.500,122.000 C 124.361,126.949 123.935,126.703 122.500,132.000" stroke-width="3.374" stroke="black" fill="none" stroke-linecap="round"></path><path d="M 122.500,132.000 C 117.965,138.442 120.861,136.449 119.500,141.000" stroke-width="3.864" stroke="black" fill="none" stroke-linecap="round"></path><path d="M 119.500,141.000 C 124.329,143.216 120.965,143.442 128.500,142.000" stroke-width="4.251" stroke="black" fill="none" stroke-linecap="round"></path><path d="M 128.500,142.000 C 135.951,137.905 136.329,139.716 143.500,134.000" stroke-width="3.056" stroke="black" fill="none" stroke-linecap="round"></path><path d="M 143.500,134.000 C 150.563,130.619 150.451,130.405 157.500,127.000" stroke-width="2.966" stroke="black" fill="none" stroke-linecap="round"></path><path d="M 157.500,127.000 C 161.904,124.298 162.063,124.619 166.500,122.000" stroke-width="3.271" stroke="black" fill="none" stroke-linecap="round"></path><path d="M 166.500,122.000 C 169.576,119.145 168.904,120.798 171.500,120.000" stroke-width="3.913" stroke="black" fill="none" stroke-linecap="round"></path><path d="M 171.500,120.000 C 175.663,122.734 174.076,121.145 175.500,126.000" stroke-width="4.565" stroke="black" fill="none" stroke-linecap="round"></path><path d="M 175.500,126.000 C 171.995,132.826 175.163,132.734 170.500,140.000" stroke-width="3.345" stroke="black" fill="none" stroke-linecap="round"></path><path d="M 170.500,140.000 C 170.238,145.015 169.495,144.826 170.500,150.000" stroke-width="3.426" stroke="black" fill="none" stroke-linecap="round"></path><path d="M 170.500,150.000 C 168.661,156.350 170.738,154.515 171.500,159.000" stroke-width="3.540" stroke="black" fill="none" stroke-linecap="round"></path><path d="M 171.500,159.000 C 178.267,163.619 176.161,163.350 185.500,164.000" stroke-width="3.145" stroke="black" fill="none" stroke-linecap="round"></path><path d="M 185.500,164.000 C 197.993,164.348 197.267,164.619 209.500,161.000" stroke-width="2.451" stroke="black" fill="none" stroke-linecap="round"></path><path d="M 209.500,161.000 C 224.897,154.241 225.493,156.348 240.500,148.000" stroke-width="1.967" stroke="black" fill="none" stroke-linecap="round"></path><path d="M 240.500,148.000 C 252.328,142.969 252.397,143.241 264.500,139.000" stroke-width="2.153" stroke="black" fill="none" stroke-linecap="round"></path><path d="M 264.500,139.000 C 275.402,135.537 275.328,135.469 286.500,133.000" stroke-width="2.267" stroke="black" fill="none" stroke-linecap="round"></path><path d="M 286.500,133.000 C 292.967,131.568 292.902,131.537 299.500,131.000" stroke-width="2.785" stroke="black" fill="none" stroke-linecap="round"></path><path d="M 299.500,131.000 C 304.500,131.000 304.467,130.568 309.500,131.000" stroke-width="3.226" stroke="black" fill="none" stroke-linecap="round"></path><path d="M 309.500,131.000 C 314.505,128.760 312.500,131.000 315.500,131.000" stroke-width="3.786" stroke="black" fill="none" stroke-linecap="round"></path><path d="M 315.500,131.000 C 319.953,140.550 318.505,137.760 317.500,149.000" stroke-width="3.648" stroke="black" fill="none" stroke-linecap="round"></path><path d="M 317.500,149.000 C 306.897,170.789 310.953,171.550 297.500,193.000" stroke-width="2.571" stroke="black" fill="none" stroke-linecap="round"></path><path d="M 297.500,193.000 C 292.841,201.886 295.897,196.789 295.500,201.000" stroke-width="3.354" stroke="black" fill="none" stroke-linecap="round"></path><path d="M 295.500,201.000 C 310.252,192.905 306.341,197.386 324.500,184.000" stroke-width="3.030" stroke="black" fill="none" stroke-linecap="round"></path><path d="M 324.500,184.000 C 341.498,171.649 342.252,172.905 359.500,161.000" stroke-width="1.887" stroke="black" fill="none" stroke-linecap="round"></path><path d="M 359.500,161.000 C 377.197,150.865 376.998,150.649 395.500,142.000" stroke-width="1.666" stroke="black" fill="none" stroke-linecap="round"></path><path d="M 395.500,142.000 C 409.162,134.888 409.197,135.365 423.500,130.000" stroke-width="1.941" stroke="black" fill="none" stroke-linecap="round"></path><path d="M 423.500,130.000 C 431.462,128.096 431.162,127.388 439.500,127.000" stroke-width="2.512" stroke="black" fill="none" stroke-linecap="round"></path><path d="M 268.500,108.500 C 266.550,110.799 267.000,111.000 265.500,113.500" stroke-width="4.931" stroke="black" fill="none" stroke-linecap="round"></path><path d="M 265.500,113.500 C 263.926,120.156 263.050,119.799 261.500,126.500" stroke-width="3.436" stroke="black" fill="none" stroke-linecap="round"></path><path d="M 261.500,126.500 C 257.226,137.102 257.426,137.156 252.500,147.500" stroke-width="2.638" stroke="black" fill="none" stroke-linecap="round"></path><path d="M 252.500,147.500 C 247.410,159.217 247.226,159.102 241.500,170.500" stroke-width="2.468" stroke="black" fill="none" stroke-linecap="round"></path><path d="M 241.500,170.500 C 236.424,180.285 236.410,180.217 230.500,189.500" stroke-width="2.459" stroke="black" fill="none" stroke-linecap="round"></path><path d="M 230.500,189.500 C 220.301,199.673 227.424,194.285 223.500,198.500" stroke-width="3.074" stroke="black" fill="none" stroke-linecap="round"></path><path d="M 223.500,198.500 C 242.026,188.547 235.301,194.173 260.500,178.500" stroke-width="3.319" stroke="black" fill="none" stroke-linecap="round"></path><path d="M 260.500,178.500 C 270.554,173.095 270.526,173.047 280.500,167.500" stroke-width="3.323" stroke="black" fill="none" stroke-linecap="round"></path><path d="M 280.500,167.500 C 286.267,163.453 286.554,164.095 292.500,160.500" stroke-width="3.160" stroke="black" fill="none" stroke-linecap="round"></path><path d="M 292.500,160.500 C 297.390,157.093 295.767,158.953 299.500,158.500" stroke-width="3.623" stroke="black" fill="none" stroke-linecap="round"></path><path d="M 299.500,158.500 C 302.659,162.705 301.890,160.093 301.500,166.500" stroke-width="4.196" stroke="black" fill="none" stroke-linecap="round"></path><path d="M 301.500,166.500 C 295.300,180.647 297.159,180.705 288.500,194.500" stroke-width="2.293" stroke="black" fill="none" stroke-linecap="round"></path><path d="M 288.500,194.500 C 281.056,207.792 281.800,208.147 274.500,221.500" stroke-width="2.093" stroke="black" fill="none" stroke-linecap="round"></path><path d="M 274.500,221.500 C 270.115,230.860 270.056,230.792 266.500,240.500" stroke-width="2.482" stroke="black" fill="none" stroke-linecap="round"></path><path d="M 266.500,240.500 C 263.888,246.908 264.115,246.860 262.500,253.500" stroke-width="2.848" stroke="black" fill="none" stroke-linecap="round"></path><path d="M 262.500,253.500 C 260.505,258.336 261.888,256.408 262.500,259.500" stroke-width="3.654" stroke="black" fill="none" stroke-linecap="round"></path><path d="M 149.500,64.000 C 147.443,67.468 147.500,67.500 145.500,71.000" stroke-width="3.718" stroke="black" fill="none" stroke-linecap="round"></path><path d="M 145.500,71.000 C 142.066,77.536 141.943,77.468 138.500,84.000" stroke-width="3.125" stroke="black" fill="none" stroke-linecap="round"></path><path d="M 138.500,84.000 C 133.895,91.943 134.066,92.036 129.500,100.000" stroke-width="2.818" stroke="black" fill="none" stroke-linecap="round"></path><path d="M 129.500,100.000 C 124.799,108.401 124.895,108.443 120.500,117.000" stroke-width="2.748" stroke="black" fill="none" stroke-linecap="round"></path><path d="M 120.500,117.000 C 117.170,122.320 117.799,122.401 115.500,128.000" stroke-width="3.105" stroke="black" fill="none" stroke-linecap="round"></path><path d="M 115.500,128.000 C 113.675,132.358 114.670,130.820 115.500,134.000" stroke-width="3.774" stroke="black" fill="none" stroke-linecap="round"></path><path d="M 115.500,134.000 C 120.625,137.840 118.675,136.858 125.500,137.000" stroke-width="4.110" stroke="black" fill="none" stroke-linecap="round"></path><path d="M 125.500,137.000 C 135.013,133.032 135.125,135.340 144.500,129.000" stroke-width="2.871" stroke="black" fill="none" stroke-linecap="round"></path><path d="M 144.500,129.000 C 154.864,124.151 155.013,124.532 165.500,120.000" stroke-width="2.524" stroke="black" fill="none" stroke-linecap="round"></path><path d="M 165.500,120.000 C 175.584,116.719 175.364,116.151 185.500,113.000" stroke-width="2.565" stroke="black" fill="none" stroke-linecap="round"></path><path d="M 185.500,113.000 C 191.395,110.155 191.584,110.719 197.500,108.000" stroke-width="2.971" stroke="black" fill="none" stroke-linecap="round"></path><path d="M 197.500,108.000 C 202.856,106.110 199.895,107.155 202.500,107.000" stroke-width="4.097" stroke="black" fill="none" stroke-linecap="round"></path><path d="M 202.500,107.000 C 198.910,109.900 201.856,108.610 195.500,113.000" stroke-width="3.771" stroke="black" fill="none" stroke-linecap="round"></path><path d="M 195.500,113.000 C 187.626,119.636 187.910,119.900 180.500,127.000" stroke-width="2.750" stroke="black" fill="none" stroke-linecap="round"></path><path d="M 180.500,127.000 C 172.901,135.415 172.626,135.136 165.500,144.000" stroke-width="2.562" stroke="black" fill="none" stroke-linecap="round"></path><path d="M 165.500,144.000 C 160.047,149.704 160.401,149.915 155.500,156.000" stroke-width="2.810" stroke="black" fill="none" stroke-linecap="round"></path><path d="M 155.500,156.000 C 150.415,161.348 153.547,158.704 152.500,162.000" stroke-width="3.529" stroke="black" fill="none" stroke-linecap="round"></path><path d="M 152.500,162.000 C 162.934,164.734 158.415,163.848 171.500,161.000" stroke-width="3.680" stroke="black" fill="none" stroke-linecap="round"></path><path d="M 171.500,161.000 C 200.513,143.511 201.934,147.734 230.500,128.000" stroke-width="1.367" stroke="black" fill="none" stroke-linecap="round"></path><path d="M 230.500,128.000 C 244.122,120.878 244.013,121.011 258.500,116.000" stroke-width="1.803" stroke="black" fill="none" stroke-linecap="round"></path><path d="M 258.500,116.000 C 272.477,111.550 272.122,111.378 286.500,109.000" stroke-width="2.522" stroke="black" fill="none" stroke-linecap="round"></path><path d="M 286.500,109.000 C 290.966,108.219 288.977,108.550 291.500,110.000" stroke-width="3.824" stroke="black" fill="none" stroke-linecap="round"></path><path d="M 291.500,110.000 C 291.319,114.817 292.466,113.219 289.500,119.000" stroke-width="3.642" stroke="black" fill="none" stroke-linecap="round"></path><path d="M 289.500,119.000 C 285.500,126.000 286.319,126.317 281.500,133.000" stroke-width="3.256" stroke="black" fill="none" stroke-linecap="round"></path><path d="M 281.500,133.000 C 276.997,139.757 277.500,140.000 273.500,147.000" stroke-width="2.988" stroke="black" fill="none" stroke-linecap="round"></path><path d="M 273.500,147.000 C 269.688,154.344 269.997,154.257 267.500,162.000" stroke-width="2.853" stroke="black" fill="none" stroke-linecap="round"></path><path d="M 267.500,162.000 C 265.793,166.507 266.688,164.844 267.500,168.000" stroke-width="3.656" stroke="black" fill="none" stroke-linecap="round"></path><path d="M 267.500,168.000 C 271.773,170.242 269.793,170.007 275.500,169.000" stroke-width="3.715" stroke="black" fill="none" stroke-linecap="round"></path><path d="M 275.500,169.000 C 290.106,163.590 289.773,164.242 303.500,156.000" stroke-width="2.319" stroke="black" fill="none" stroke-linecap="round"></path><path d="M 303.500,156.000 C 319.167,144.953 320.106,146.590 335.500,135.000" stroke-width="1.873" stroke="black" fill="none" stroke-linecap="round"></path><path d="M 335.500,135.000 C 351.332,125.683 351.167,125.453 367.500,117.000" stroke-width="1.807" stroke="black" fill="none" stroke-linecap="round"></path><path d="M 367.500,117.000 C 378.341,111.150 378.332,111.183 389.500,106.000" stroke-width="2.076" stroke="black" fill="none" stroke-linecap="round"></path><path d="M 389.500,106.000 C 397.771,101.586 397.841,102.150 406.500,99.000" stroke-width="2.427" stroke="black" fill="none" stroke-linecap="round"></path><path d="M 406.500,99.000 C 411.516,98.000 411.271,97.586 416.500,98.000" stroke-width="3.066" stroke="black" fill="none" stroke-linecap="round"></path><path d="M 416.500,98.000 C 421.812,96.662 419.516,98.000 422.500,99.000" stroke-width="3.709" stroke="black" fill="none" stroke-linecap="round"></path></svg>