<svg xmlns="http://www.w3.org/2000/svg" xmlns:xlink="http://www.w3.org/1999/xlink" viewBox="0 0 453 236" width="453" height="236"><path d="M 79.500,76.000 C 82.519,76.404 82.500,76.500 85.500,77.000" stroke-width="5.148" stroke="black" fill="none" stroke-linecap="round"></path><path d="M 85.500,77.000 C 90.056,77.788 90.019,77.904 94.500,79.000" stroke-width="4.058" stroke="black" fill="none" stroke-linecap="round"></path><path d="M 94.500,79.000 C 100.891,81.475 101.056,80.788 107.500,83.000" stroke-width="3.356" stroke="black" fill="none" stroke-linecap="round"></path><path d="M 107.500,83.000 C 114.033,83.824 113.891,84.475 120.500,85.000" stroke-width="3.163" stroke="black" fill="none" stroke-linecap="round"></path><path d="M 120.500,85.000 C 124.981,86.096 125.033,85.824 129.500,87.000" stroke-width="3.576" stroke="black" fill="none" stroke-linecap="round"></path><path d="M 129.500,87.000 C 133.742,86.047 132.481,87.596 135.500,88.000" stroke-width="3.955" stroke="black" fill="none" stroke-linecap="round"></path><path d="M 135.500,88.000 C 138.705,92.480 138.242,91.047 138.500,97.000" stroke-width="4.255" stroke="black" fill="none" stroke-linecap="round"></path><path d="M 138.500,97.000 C 137.412,103.933 138.205,103.480 134.500,110.000" stroke-width="3.395" stroke="black" fill="none" stroke-linecap="round"></path><path d="M 134.500,110.000 C 129.935,115.703 131.412,116.433 126.500,122.000" stroke-width="3.077" stroke="black" fill="none" stroke-linecap="round"></path><path d="M 126.500,122.000 C 124.361,126.949 123.935,126.703 122.500,132.000" stroke-width="3.374" stroke="black" fill="none" stroke-linecap="round"></path><path d="M 122.500,132.000 C 117.965,138.442 120.861,136.449 119.500,141.000" stroke-width="3.864" stroke="black" fill="none" stroke-linecap="round"></path><path d="M 119.500,141.000 C 124.329,143.216 120.965,143.442 128.500,142.000" stroke-width="4.251" stroke="black" fill="none" stroke-linecap="round"></path><path d="M 128.500,142.000 C 135.951,137.905 136.329,139.716 143.500,134.000" stroke-width="3.056" stroke="black" fill="none" stroke-linecap="round"></path><path d="M 143.500,134.000 C 150.563,130.619 150.451,130.405 157.500,127.000" stroke-width="2.966" stroke="black" fill="none" stroke-linecap="round"></path><path d="M 157.500,127.000 C 161.904,124.298 162.063,124.619 166.500,122.000" stroke-width="3.271" stroke="black" fill="none" stroke-linecap="round"></path><path d="M 166.500,122.000 C 169.576,119.145 168.904,120.798 171.500,120.000" stroke-width="3.913" stroke="black" fill="none" stroke-linecap="round"></path><path d="M 171.500,120.000 C 175.663,122.734 174.076,121.145 175.500,126.000" stroke-width="4.565" stroke="black" fill="none" stroke-linecap="round"></path><path d="M 175.500,126.000 C 171.995,132.826 175.163,132.734 170.500,140.000" stroke-width="3.345" stroke="black" fill="none" stroke-linecap="round"></path><path d="M 170.500,140.000 C 170.238,145.015 169.495,144.826 170.500,150.000" stroke-width="3.426" stroke="black" fill="none" stroke-linecap="round"></path><path d="M 170.500,150.000 C 168.661,156.350 170.738,154.515 171.500,159.000" stroke-width="3.540" stroke="black" fill="none" stroke-linecap="round"></path><path d="M 171.500,159.000 C 178.267,163.619 176.161,163.350 185.500,164.000" stroke-width="3.145" stroke="black" fill="none" stroke-linecap="round"></path><path d="M 185.500,164.000 C 197.993,164.348 197.267,164.619 209.500,161.000" stroke-width="2.451" stroke="black" fill="none" stroke-linecap="round"></path><path d="M 209.500,161.000 C 224.897,154.241 225.493,156.348 240.500,148.000" stroke-width="1.967" stroke="black" fill="none" stroke-linecap="round"></path><path d="M 240.500,148.000 C 252.328,142.969 252.397,143.241 264.500,139.000" stroke-width="2.153" stroke="black" fill="none" stroke-linecap="round"></path><path d="M 264.500,139.000 C 275.402,135.537 275.328,135.469 286.500,133.000" stroke-width="2.267" stroke="black" fill="none" stroke-linecap="round"></path><path d="M 286.500,133.000 C 292.967,131.568 292.902,131.537 299.500,131.000" stroke-width="2.785" stroke="black" fill="none" stroke-linecap="round"></path><path d="M 299.500,131.000 C 304.500,131.000 304.467,130.568 309.500,131.000" stroke-width="3.226" stroke="black" fill="none" stroke-linecap="round"></path><path d="M 309.500,131.000 C 314.505,128.760 312.500,131.000 315.500,131.000" stroke-width="3.786" stroke="black" fill="none" stroke-linecap="round"></path><path d="M 315.500,131.000 C 319.953,140.550 318.505,137.760 317.500,149.000" stroke-width="3.648" stroke="black" fill="none" stroke-linecap="round"></path><path d="M 317.500,149.000 C 306.897,170.789 310.953,171.550 297.500,193.000" stroke-width="2.571" stroke="black" fill="none" stroke-linecap="round"></path><path d="M 297.500,193.000 C 292.841,201.886 295.897,196.789 295.500,201.000" stroke-width="3.354" stroke="black" fill="none" stroke-linecap="round"></path><path d="M 295.500,201.000 C 310.252,192.905 306.341,197.386 324.500,184.000" stroke-width="3.030" stroke="black" fill="none" stroke-linecap="round"></path><path d="M 324.500,184.000 C 341.498,171.649 342.252,172.905 359.500,161.000" stroke-width="1.887" stroke="black" fill="none" stroke-linecap="round"></path><path d="M 359.500,161.000 C 377.197,150.865 376.998,150.649 395.500,142.000" stroke-width="1.666" stroke="black" fill="none" stroke-linecap="round"></path><path d="M 395.500,142.000 C 409.162,134.888 409.197,135.365 423.500,130.000" stroke-width="1.941" stroke="black" fill="none" stroke-linecap="round"></path><path d="M 423.500,130.000 C 431.462,128.096 431.162,127.388 439.500,127.000" stroke-width="2.512" stroke="black" fill="none" stroke-linecap="round"></path><path d="M 268.500,108.500 C 266.550,110.799 267.000,111.000 265.500,113.500" stroke-width="4.931" stroke="black" fill="none" stroke-linecap="round"></path><path d="M 265.500,113.500 C 263.926,120.156 263.050,119.799 261.500,126.500" stroke-width="3.436" stroke="black" fill="none" stroke-linecap="round"></path><path d="M 261.500,126.500 C 257.226,137.102 257.426,137.156 252.500,147.500" stroke-width="2.638" stroke="black" fill="none" stroke-linecap="round"></path><path d="M 252.500,147.500 C 247.410,159.217 247.226,159.102 241.500,170.500" stroke-width="2.468" stroke="black" fill="none" stroke-linecap="round"></path><path d="M 241.500,170.500 C 236.424,180.285 236.410,180.217 230.500,189.500" stroke-width="2.459" stroke="black" fill="none" stroke-linecap="round"></path><path d="M 230.500,189.500 C 220.301,199.673 227.424,194.285 223.500,198.500" stroke-width="3.074" stroke="black" fill="none" stroke-linecap="round"></path><path d="M 223.500,198.500 C 242.026,188.547 235.301,194.173 260.500,178.500" stroke-width="3.319" stroke="black" fill="none" stroke-linecap="round"></path><path d="M 260.500,178.500 C 270.554,173.095 270.526,173.047 280.500,167.500" stroke-width="3.323" stroke="black" fill="none" stroke-linecap="round"></path><path d="M 280.500,167.500 C 286.267,163.453 286.554,164.095 292.500,160.500" stroke-width="3.160" stroke="black" fill="none" stroke-linecap="round"></path><path d="M 292.500,160.500 C 297.390,157.093 295.767,158.953 299.500,158.500" stroke-width="3.623" stroke="black" fill="none" stroke-linecap="round"></path><path d="M 299.500,158.500 C 302.659,162.705 301.890,160.093 301.500,166.500" stroke-width="4.196" stroke="black" fill="none" stroke-linecap="round"></path><path d="M 301.500,166.500 C 295.300,180.647 297.159,180.705 288.500,194.500" stroke-width="2.293" stroke="black" fill="none" stroke-linecap="round"></path><path d="M 288.500,194.500 C 281.056,207.792 281.800,208.147 274.500,221.500" stroke-width="2.093" stroke="black" fill="none" stroke-linecap="round"></path><path d="M 274.500,221.500 C 270.115,230.860 270.056,230.792 266.500,240.500" stroke-width="2.482" stroke="black" fill="none" stroke-linecap="round"></path><path d="M 266.500,240.500 C 263.888,246.908 264.115,246.860 262.500,253.500" stroke-width="2.848" stroke="black" fill="none" stroke-linecap="round"></path><path d="M 262.500,253.500 C 260.505,258.336 261.888,256.408 262.500,259.500" stroke-width="3.654" stroke="black" fill="none" stroke-linecap="round"></path><path d="M 149.500,64.000 C 147.443,67.468 147.500,67.500 145.500,71.000" stroke-width="3.718" stroke="black" fill="none" stroke-linecap="round"></path><path d="M 145.500,71.000 C 142.066,77.536 141.943,77.468 138.500,84.000" stroke-width="3.125" stroke="black" fill="none" stroke-linecap="round"></path><path d="M 138.500,84.000 C 133.895,91.943 134.066,92.036 129.500,100.000" stroke-width="2.818" stroke="black" fill="none" stroke-linecap="round"></path><path d="M 129.500,100.000 C 124.799,108.401 124.895,108.443 120.500,117.000" stroke-width="2.748" stroke="black" fill="none" stroke-linecap="round"></path><path d="M 120.500,117.000 C 117.170,122.320 117.799,122.401 115.500,128.000" stroke-width="3.105" stroke="black" fill="none" stroke-linecap="round"></path><path d="M 115.500,128.000 C 113.675,132.358 114.670,130.820 115.500,134.000" stroke-width="3.774" stroke="black" fill="none" stroke-linecap="round"></path><path d="M 115.500,134.000 C 120.625,137.840 118.675,136.858 125.500,137.000" stroke-width="4.110" stroke="black" fill="none" stroke-linecap="round"></path><path d="M 125.500,137.000 C 135.013,133.032 135.125,135.340 144.500,129.000" stroke-width="2.871" stroke="black" fill="none" stroke-linecap="round"></path><path d="M 144.500,129.000 C 154.864,124.151 155.013,124.532 165.500,120.000" stroke-width="2.524" stroke="black" fill="none" stroke-linecap="round"></path><path d="M 165.500,120.000 C 175.584,116.719 175.364,116.151 185.500,113.000" stroke-width="2.565" stroke="black" fill="none" stroke-linecap="round"></path><path d="M 185.500,113.000 C 191.395,110.155 191.584,110.719 197.500,108.000" stroke-width="2.971" stroke="black" fill="none" stroke-linecap="round"></path><path d="M 197.500,108.000 C 202.856,106.110 199.895,107.155 202.500,107.000" stroke-width="4.097" stroke="black" fill="none" stroke-linecap="round"></path><path d="M 202.500,107.000 C 198.910,109.900 201.856,108.610 195.500,113.000" stroke-width="3.771" stroke="black" fill="none" stroke-linecap="round"></path><path d="M 195.500,113.000 C 187.626,119.636 187.910,119.900 180.500,127.000" stroke-width="2.750" stroke="black" fill="none" stroke-linecap="round"></path><path d="M 180.500,127.000 C 172.901,135.415 172.626,135.136 165.500,144.000" stroke-width="2.562" stroke="black" fill="none" stroke-linecap="round"></path><path d="M 165.500,144.000 C 160.047,149.704 160.401,149.915 155.500,156.000" stroke-width="2.810" stroke="black" fill="none" stroke-linecap="round"></path><path d="M 155.500,156.000 C 150.415,161.348 153.547,158.704 152.500,162.000" stroke-width="3.529" stroke="black" fill="none" stroke-linecap="round"></path><path d="M 152.500,162.000 C 162.934,164.734 158.415,163.848 171.500,161.000" stroke-width="3.680" stroke="black" fill="none" stroke-linecap="round"></path><path d="M 171.500,161.000 C 200.513,143.511 201.934,147.734 230.500,128.000" stroke-width="1.367" stroke="black" fill="none" stroke-linecap="round"></path><path d="M 230.500,128.000 C 244.122,120.878 244.013,121.011 258.500,116.000" stroke-width="1.803" stroke="black" fill="none" stroke-linecap="round"></path><path d="M 258.500,116.000 C 272.477,111.550 272.122,111.378 286.500,109.000" stroke-width="2.522" stroke="black" fill="none" stroke-linecap="round"></path><path d="M 286.500,109.000 C 290.966,108.219 288.977,108.550 291.500,110.000" stroke-width="3.824" stroke="black" fill="none" stroke-linecap="round"></path><path d="M 291.500,110.000 C 291.319,114.817 292.466,113.219 289.500,119.000" stroke-width="3.642" stroke="black" fill="none" stroke-linecap="round"></path><path d="M 289.500,119.000 C 285.500,126.000 286.319,126.317 281.500,133.000" stroke-width="3.256" stroke="black" fill="none" stroke-linecap="round"></path><path d="M 281.500,133.000 C 276.997,139.757 277.500,140.000 273.500,147.000" stroke-width="2.988" stroke="black" fill="none" stroke-linecap="round"></path><path d="M 273.500,147.000 C 269.688,154.344 269.997,154.257 267.500,162.000" stroke-width="2.853" stroke="black" fill="none" stroke-linecap="round"></path><path d="M 267.500,162.000 C 265.793,166.507 266.688,164.844 267.500,168.000" stroke-width="3.656" stroke="black" fill="none" stroke-linecap="round"></path><path d="M 267.500,168.000 C 271.773,170.242 269.793,170.007 275.500,169.000" stroke-width="3.715" stroke="black" fill="none" stroke-linecap="round"></path><path d="M 275.500,169.000 C 290.106,163.590 289.773,164.242 303.500,156.000" stroke-width="2.319" stroke="black" fill="none" stroke-linecap="round"></path><path d="M 303.500,156.000 C 319.167,144.953 320.106,146.590 335.500,135.000" stroke-width="1.873" stroke="black" fill="none" stroke-linecap="round"></path><path d="M 335.500,135.000 C 351.332,125.683 351.167,125.453 367.500,117.000" stroke-width="1.807" stroke="black" fill="none" stroke-linecap="round"></path><path d="M 367.500,117.000 C 378.341,111.150 378.332,111.183 389.500,106.000" stroke-width="2.076" stroke="black" fill="none" stroke-linecap="round"></path><path d="M 389.500,106.000 C 397.771,101.586 397.841,102.150 406.500,99.000" stroke-width="2.427" stroke="black" fill="none" stroke-linecap="round"></path><path d="M 406.500,99.000 C 411.516,98.000 411.271,97.586 416.500,98.000" stroke-width="3.066" stroke="black" fill="none" stroke-linecap="round"></path><path d="M 416.500,98.000 C 421.812,96.662 419.516,98.000 422.500,99.000" stroke-width="3.709" stroke="black" fill="none" stroke-linecap="round"></path><path d="M 64.500,137.000 C 63.704,132.566 65.000,133.500 65.500,130.000" stroke-width="3.629" stroke="black" fill="none" stroke-linecap="round"></path><path d="M 65.500,130.000 C 68.301,127.889 67.204,127.566 71.500,127.000" stroke-width="3.983" stroke="black" fill="none" stroke-linecap="round"></path><path d="M 71.500,127.000 C 77.528,126.148 77.301,125.389 83.500,125.000" stroke-width="3.462" stroke="black" fill="none" stroke-linecap="round"></path><path d="M 83.500,125.000 C 90.436,123.104 90.528,123.648 97.500,122.000" stroke-width="3.166" stroke="black" fill="none" stroke-linecap="round"></path><path d="M 97.500,122.000 C 106.496,120.965 106.436,120.604 115.500,120.000" stroke-width="2.960" stroke="black" fill="none" stroke-linecap="round"></path><path d="M 115.500,120.000 C 120.664,118.431 120.496,119.465 125.500,119.000" stroke-width="3.387" stroke="black" fill="none" stroke-linecap="round"></path><path d="M 125.500,119.000 C 133.201,118.996 129.164,119.431 132.500,122.000" stroke-width="4.165" stroke="black" fill="none" stroke-linecap="round"></path><path d="M 132.500,122.000 C 125.170,135.342 129.701,133.996 118.500,149.000" stroke-width="2.309" stroke="black" fill="none" stroke-linecap="round"></path><path d="M 118.500,149.000 C 113.950,156.730 114.670,156.842 111.500,165.000" stroke-width="3.160" stroke="black" fill="none" stroke-linecap="round"></path><path d="M 111.500,165.000 C 110.806,170.491 109.950,170.230 110.500,176.000" stroke-width="3.331" stroke="black" fill="none" stroke-linecap="round"></path><path d="M 110.500,176.000 C 107.552,182.690 110.306,179.491 110.500,183.000" stroke-width="3.763" stroke="black" fill="none" stroke-linecap="round"></path><path d="M 110.500,183.000 C 130.898,185.695 126.552,184.690 148.500,180.000" stroke-width="1.997" stroke="black" fill="none" stroke-linecap="round"></path><path d="M 148.500,180.000 C 163.732,170.846 164.898,174.695 178.500,161.000" stroke-width="1.871" stroke="black" fill="none" stroke-linecap="round"></path><path d="M 178.500,161.000 C 190.316,152.224 190.732,152.846 202.500,144.000" stroke-width="2.094" stroke="black" fill="none" stroke-linecap="round"></path><path d="M 202.500,144.000 C 210.103,138.031 210.316,138.724 218.500,134.000" stroke-width="2.464" stroke="black" fill="none" stroke-linecap="round"></path><path d="M 218.500,134.000 C 223.594,130.959 222.603,132.031 227.500,132.000" stroke-width="3.146" stroke="black" fill="none" stroke-linecap="round"></path><path d="M 227.500,132.000 C 232.558,134.232 231.094,132.959 233.500,138.000" stroke-width="3.971" stroke="black" fill="none" stroke-linecap="round"></path><path d="M 233.500,138.000 C 233.604,145.103 235.058,144.232 232.500,152.000" stroke-width="3.303" stroke="black" fill="none" stroke-linecap="round"></path><path d="M 232.500,152.000 C 230.483,157.431 231.604,157.603 229.500,163.000" stroke-width="3.348" stroke="black" fill="none" stroke-linecap="round"></path><path d="M 229.500,163.000 C 229.230,166.027 228.983,165.931 229.500,169.000" stroke-width="3.876" stroke="black" fill="none" stroke-linecap="round"></path><path d="M 229.500,169.000 C 228.336,173.530 229.730,171.527 230.500,174.000" stroke-width="4.181" stroke="black" fill="none" stroke-linecap="round"></path><path d="M 230.500,174.000 C 241.873,176.237 239.836,176.030 252.500,174.000" stroke-width="2.723" stroke="black" fill="none" stroke-linecap="round"></path><path d="M 252.500,174.000 C 270.184,168.493 270.373,170.237 287.500,162.000" stroke-width="1.978" stroke="black" fill="none" stroke-linecap="round"></path><path d="M 287.500,162.000 C 305.947,154.367 306.184,154.993 324.500,147.000" stroke-width="1.759" stroke="black" fill="none" stroke-linecap="round"></path><path d="M 324.500,147.000 C 339.766,140.245 339.947,140.867 355.500,135.000" stroke-width="1.807" stroke="black" fill="none" stroke-linecap="round"></path><path d="M 355.500,135.000 C 363.971,132.854 363.766,132.245 372.500,131.000" stroke-width="2.346" stroke="black" fill="none" stroke-linecap="round"></path><path d="M 372.500,131.000 C 379.203,128.594 375.471,130.354 378.500,130.000" stroke-width="3.337" stroke="black" fill="none" stroke-linecap="round"></path><path d="M 378.500,130.000 C 372.886,135.390 376.703,133.594 367.500,141.000" stroke-width="3.686" stroke="black" fill="none" stroke-linecap="round"></path><path d="M 367.500,141.000 C 360.808,147.832 360.886,147.890 354.500,155.000" stroke-width="2.821" stroke="black" fill="none" stroke-linecap="round"></path><path d="M 105.500,169.000 C 102.790,166.149 103.000,166.000 100.500,163.000" stroke-width="2.377" stroke="black" fill="none" stroke-linecap="round"></path><path d="M 100.500,163.000 C 99.221,160.346 98.790,160.649 97.500,158.000" stroke-width="3.575" stroke="black" fill="none" stroke-linecap="round"></path><path d="M 97.500,158.000 C 93.848,152.659 93.721,152.846 89.500,148.000" stroke-width="3.247" stroke="black" fill="none" stroke-linecap="round"></path><path d="M 89.500,148.000 C 86.481,145.522 86.848,145.159 83.500,143.000" stroke-width="3.603" stroke="black" fill="none" stroke-linecap="round"></path><path d="M 83.500,143.000 C 79.935,140.073 79.981,140.022 76.500,137.000" stroke-width="3.634" stroke="black" fill="none" stroke-linecap="round"></path><path d="M 76.500,137.000 C 70.246,131.746 70.435,131.573 64.500,126.000" stroke-width="3.798" stroke="black" fill="none" stroke-linecap="round"></path><path d="M 64.500,126.000 C 57.550,121.137 61.246,122.746 58.500,119.000" stroke-width="4.179" stroke="black" fill="none" stroke-linecap="round"></path><path d="M 58.500,119.000 C 63.445,117.440 59.550,116.637 68.500,117.000" stroke-width="4.827" stroke="black" fill="none" stroke-linecap="round"></path><path d="M 68.500,117.000 C 75.109,117.882 74.945,116.440 81.500,117.000" stroke-width="3.476" stroke="black" fill="none" stroke-linecap="round"></path><path d="M 81.500,117.000 C 89.565,115.232 89.609,115.882 97.500,113.000" stroke-width="3.017" stroke="black" fill="none" stroke-linecap="round"></path><path d="M 97.500,113.000 C 105.577,110.724 105.565,110.732 113.500,108.000" stroke-width="2.823" stroke="black" fill="none" stroke-linecap="round"></path><path d="M 113.500,108.000 C 121.455,104.873 121.577,105.224 129.500,102.000" stroke-width="2.750" stroke="black" fill="none" stroke-linecap="round"></path><path d="M 129.500,102.000 C 135.446,99.816 135.455,99.873 141.500,98.000" stroke-width="3.066" stroke="black" fill="none" stroke-linecap="round"></path><path d="M 141.500,98.000 C 145.448,96.579 145.446,96.816 149.500,96.000" stroke-width="3.961" stroke="black" fill="none" stroke-linecap="round"></path><path d="M 149.500,96.000 C 153.081,94.791 152.448,95.579 155.500,96.000" stroke-width="4.097" stroke="black" fill="none" stroke-linecap="round"></path><path d="M 155.500,96.000 C 159.872,98.397 158.081,97.291 159.500,101.000" stroke-width="4.089" stroke="black" fill="none" stroke-linecap="round"></path><path d="M 159.500,101.000 C 157.173,106.111 158.872,105.397 153.500,110.000" stroke-width="3.669" stroke="black" fill="none" stroke-linecap="round"></path><path d="M 153.500,110.000 C 148.155,114.702 148.673,115.111 142.500,119.000" stroke-width="3.284" stroke="black" fill="none" stroke-linecap="round"></path><path d="M 142.500,119.000 C 135.436,123.913 135.655,124.202 128.500,129.000" stroke-width="2.926" stroke="black" fill="none" stroke-linecap="round"></path><path d="M 128.500,129.000 C 120.038,134.467 120.436,134.913 112.500,141.000" stroke-width="2.614" stroke="black" fill="none" stroke-linecap="round"></path><path d="M 112.500,141.000 C 105.375,147.879 105.038,147.467 98.500,155.000" stroke-width="2.603" stroke="black" fill="none" stroke-linecap="round"></path><path d="M 98.500,155.000 C 91.313,162.335 91.375,162.379 84.500,170.000" stroke-width="2.565" stroke="black" fill="none" stroke-linecap="round"></path><path d="M 84.500,170.000 C 79.500,176.000 79.313,175.835 74.500,182.000" stroke-width="2.756" stroke="black" fill="none" stroke-linecap="round"></path><path d="M 74.500,182.000 C 69.558,188.049 69.500,188.000 64.500,194.000" stroke-width="2.818" stroke="black" fill="none" stroke-linecap="round"></path><path d="M 64.500,194.000 C 61.115,198.107 61.058,198.049 57.500,202.000" stroke-width="3.239" stroke="black" fill="none" stroke-linecap="round"></path><path d="M 57.500,202.000 C 54.635,205.150 54.615,205.107 51.500,208.000" stroke-width="3.582" stroke="black" fill="none" stroke-linecap="round"></path><path d="M 51.500,208.000 C 49.117,210.168 49.135,210.150 46.500,212.000" stroke-width="3.876" stroke="black" fill="none" stroke-linecap="round"></path><path d="M 46.500,212.000 C 42.856,215.904 44.117,213.668 41.500,215.000" stroke-width="4.468" stroke="black" fill="none" stroke-linecap="round"></path><path d="M 41.500,215.000 C 39.799,211.271 39.856,213.904 40.500,208.000" stroke-width="4.992" stroke="black" fill="none" stroke-linecap="round"></path><path d="M 40.500,208.000 C 41.863,203.989 41.299,204.271 44.500,201.000" stroke-width="4.106" stroke="black" fill="none" stroke-linecap="round"></path><path d="M 44.500,201.000 C 49.828,195.799 49.363,195.489 55.500,191.000" stroke-width="3.264" stroke="black" fill="none" stroke-linecap="round"></path><path d="M 55.500,191.000 C 62.906,184.879 62.828,184.799 70.500,179.000" stroke-width="2.801" stroke="black" fill="none" stroke-linecap="round"></path><path d="M 70.500,179.000 C 78.192,172.538 78.406,172.879 86.500,167.000" stroke-width="2.646" stroke="black" fill="none" stroke-linecap="round"></path><path d="M 86.500,167.000 C 94.744,161.503 94.692,161.538 103.500,157.000" stroke-width="2.556" stroke="black" fill="none" stroke-linecap="round"></path><path d="M 103.500,157.000 C 112.378,152.698 112.244,152.503 121.500,149.000" stroke-width="2.532" stroke="black" fill="none" stroke-linecap="round"></path><path d="M 121.500,149.000 C 130.855,145.031 130.878,145.198 140.500,142.000" stroke-width="2.497" stroke="black" fill="none" stroke-linecap="round"></path><path d="M 140.500,142.000 C 148.500,140.000 148.355,139.531 156.500,138.000" stroke-width="2.682" stroke="black" fill="none" stroke-linecap="round"></path><path d="M 156.500,138.000 C 164.539,136.143 164.500,136.000 172.500,134.000" stroke-width="2.743" stroke="black" fill="none" stroke-linecap="round"></path><path d="M 172.500,134.000 C 177.585,132.735 177.539,132.643 182.500,131.000" stroke-width="3.309" stroke="black" fill="none" stroke-linecap="round"></path><path d="M 182.500,131.000 C 190.934,128.956 186.085,129.735 189.500,128.000" stroke-width="3.645" stroke="black" fill="none" stroke-linecap="round"></path><path d="M 189.500,128.000 C 181.340,124.477 186.434,125.956 173.500,125.000" stroke-width="4.203" stroke="black" fill="none" stroke-linecap="round"></path><path d="M 173.500,125.000 C 166.361,127.161 166.340,125.477 159.500,130.000" stroke-width="3.283" stroke="black" fill="none" stroke-linecap="round"></path><path d="M 159.500,130.000 C 151.730,133.011 151.861,133.161 144.500,137.000" stroke-width="2.967" stroke="black" fill="none" stroke-linecap="round"></path><path d="M 144.500,137.000 C 137.423,141.385 137.230,141.011 130.500,146.000" stroke-width="2.879" stroke="black" fill="none" stroke-linecap="round"></path><path d="M 130.500,146.000 C 124.032,150.547 123.923,150.385 117.500,155.000" stroke-width="2.959" stroke="black" fill="none" stroke-linecap="round"></path><path d="M 117.500,155.000 C 112.768,157.717 113.032,158.047 108.500,161.000" stroke-width="3.326" stroke="black" fill="none" stroke-linecap="round"></path><path d="M 108.500,161.000 C 105.815,162.633 106.268,162.717 104.500,165.000" stroke-width="3.867" stroke="black" fill="none" stroke-linecap="round"></path><path d="M 104.500,165.000 C 101.980,169.156 103.315,167.133 103.500,170.000" stroke-width="4.507" stroke="black" fill="none" stroke-linecap="round"></path><path d="M 103.500,170.000 C 108.506,170.192 106.480,171.656 113.500,170.000" stroke-width="3.785" stroke="black" fill="none" stroke-linecap="round"></path><path d="M 113.500,170.000 C 121.682,170.520 121.506,169.692 129.500,169.000" stroke-width="3.115" stroke="black" fill="none" stroke-linecap="round"></path><path d="M 129.500,169.000 C 139.570,166.213 139.682,167.020 149.500,163.000" stroke-width="2.852" stroke="black" fill="none" stroke-linecap="round"></path><path d="M 149.500,163.000 C 156.605,160.758 156.570,160.713 163.500,158.000" stroke-width="2.896" stroke="black" fill="none" stroke-linecap="round"></path><path d="M 163.500,158.000 C 169.102,155.699 169.105,155.758 174.500,153.000" stroke-width="3.160" stroke="black" fill="none" stroke-linecap="round"></path><path d="M 174.500,153.000 C 177.903,150.799 178.102,151.199 181.500,149.000" stroke-width="3.592" stroke="black" fill="none" stroke-linecap="round"></path><path d="M 181.500,149.000 C 187.677,146.176 183.903,147.799 186.500,147.000" stroke-width="4.403" stroke="black" fill="none" stroke-linecap="round"></path><path d="M 186.500,147.000 C 178.765,151.157 182.677,149.676 171.500,156.000" stroke-width="3.868" stroke="black" fill="none" stroke-linecap="round"></path><path d="M 171.500,156.000 C 166.877,159.352 166.765,159.157 162.500,163.000" stroke-width="3.440" stroke="black" fill="none" stroke-linecap="round"></path><path d="M 162.500,163.000 C 157.922,166.918 157.877,166.852 153.500,171.000" stroke-width="3.336" stroke="black" fill="none" stroke-linecap="round"></path><path d="M 153.500,171.000 C 148.844,173.688 151.422,172.918 149.500,175.000" stroke-width="3.909" stroke="black" fill="none" stroke-linecap="round"></path><path d="M 149.500,175.000 C 153.090,177.538 150.344,176.688 156.500,177.000" stroke-width="4.670" stroke="black" fill="none" stroke-linecap="round"></path><path d="M 156.500,177.000 C 162.758,174.996 162.590,176.038 168.500,172.000" stroke-width="3.523" stroke="black" fill="none" stroke-linecap="round"></path><path d="M 168.500,172.000 C 174.034,168.553 174.258,168.996 179.500,165.000" stroke-width="3.570" stroke="black" fill="none" stroke-linecap="round"></path><path d="M 179.500,165.000 C 183.766,161.582 184.034,162.053 188.500,159.000" stroke-width="3.476" stroke="black" fill="none" stroke-linecap="round"></path><path d="M 188.500,159.000 C 194.833,155.456 194.766,155.582 201.500,153.000" stroke-width="3.169" stroke="black" fill="none" stroke-linecap="round"></path><path d="M 201.500,153.000 C 204.496,152.474 204.333,151.956 207.500,152.000" stroke-width="4.119" stroke="black" fill="none" stroke-linecap="round"></path><path d="M 207.500,152.000 C 214.522,152.517 213.996,150.974 220.500,150.000" stroke-width="4.372" stroke="black" fill="none" stroke-linecap="round"></path><path d="M 220.500,150.000 C 233.335,143.542 233.522,144.517 245.500,136.000" stroke-width="2.483" stroke="black" fill="none" stroke-linecap="round"></path><path d="M 245.500,136.000 C 258.117,127.668 258.335,128.042 270.500,119.000" stroke-width="2.081" stroke="black" fill="none" stroke-linecap="round"></path><path d="M 270.500,119.000 C 282.779,109.673 283.117,110.168 295.500,101.000" stroke-width="2.024" stroke="black" fill="none" stroke-linecap="round"></path><path d="M 295.500,101.000 C 304.727,94.497 304.779,94.673 314.500,89.000" stroke-width="2.287" stroke="black" fill="none" stroke-linecap="round"></path><path d="M 314.500,89.000 C 320.960,84.453 320.727,85.497 327.500,83.000" stroke-width="2.725" stroke="black" fill="none" stroke-linecap="round"></path><path d="M 327.500,83.000 C 333.336,83.049 329.960,82.453 332.500,85.000" stroke-width="3.924" stroke="black" fill="none" stroke-linecap="round"></path><path d="M 332.500,85.000 C 325.987,94.894 328.836,93.549 318.500,104.000" stroke-width="2.601" stroke="black" fill="none" stroke-linecap="round"></path><path d="M 318.500,104.000 C 306.721,116.765 307.487,117.394 295.500,130.000" stroke-width="1.962" stroke="black" fill="none" stroke-linecap="round"></path><path d="M 295.500,130.000 C 285.983,139.108 287.221,139.765 279.500,150.000" stroke-width="2.714" stroke="black" fill="none" stroke-linecap="round"></path><path d="M 279.500,150.000 C 267.126,166.550 273.483,160.108 270.500,172.000" stroke-width="2.445" stroke="black" fill="none" stroke-linecap="round"></path><path d="M 270.500,172.000 C 282.036,173.817 273.626,177.050 292.500,171.000" stroke-width="3.029" stroke="black" fill="none" stroke-linecap="round"></path><path d="M 292.500,171.000 C 307.343,164.112 308.036,166.817 322.500,158.000" stroke-width="2.093" stroke="black" fill="none" stroke-linecap="round"></path></svg>