<svg xmlns="http://www.w3.org/2000/svg" xmlns:xlink="http://www.w3.org/1999/xlink" viewBox="0 0 926 488" width="926" height="488"><path d="M 120.000,299.000 C 116.253,296.253 116.500,296.000 113.000,293.000" stroke-width="5.397" stroke="black" fill="none" stroke-linecap="round"></path><path d="M 113.000,293.000 C 108.227,288.221 108.253,288.253 104.000,283.000" stroke-width="3.591" stroke="black" fill="none" stroke-linecap="round"></path><path d="M 104.000,283.000 C 99.767,277.651 99.727,277.721 96.000,272.000" stroke-width="3.251" stroke="black" fill="none" stroke-linecap="round"></path><path d="M 96.000,272.000 C 91.694,267.450 93.767,268.651 92.000,265.000" stroke-width="4.216" stroke="black" fill="none" stroke-linecap="round"></path><path d="M 92.000,265.000 C 94.528,264.618 92.194,263.450 97.000,264.000" stroke-width="5.073" stroke="black" fill="none" stroke-linecap="round"></path><path d="M 97.000,264.000 C 102.535,262.619 102.528,262.618 108.000,261.000" stroke-width="3.673" stroke="black" fill="none" stroke-linecap="round"></path><path d="M 108.000,261.000 C 115.973,258.408 116.035,258.619 124.000,256.000" stroke-width="3.105" stroke="black" fill="none" stroke-linecap="round"></path><path d="M 124.000,256.000 C 130.959,253.837 130.973,253.908 138.000,252.000" stroke-width="3.052" stroke="black" fill="none" stroke-linecap="round"></path><path d="M 138.000,252.000 C 142.500,251.000 142.459,250.837 147.000,250.000" stroke-width="3.396" stroke="black" fill="none" stroke-linecap="round"></path><path d="M 147.000,250.000 C 151.659,249.447 151.500,249.000 156.000,248.000" stroke-width="3.568" stroke="black" fill="none" stroke-linecap="round"></path><path d="M 156.000,248.000 C 159.591,247.208 159.159,246.947 162.000,245.000" stroke-width="3.882" stroke="black" fill="none" stroke-linecap="round"></path><path d="M 162.000,245.000 C 164.765,240.805 165.591,241.708 168.000,237.000" stroke-width="3.637" stroke="black" fill="none" stroke-linecap="round"></path><path d="M 168.000,237.000 C 173.395,230.900 173.265,230.805 179.000,225.000" stroke-width="3.067" stroke="black" fill="none" stroke-linecap="round"></path><path d="M 179.000,225.000 C 182.621,220.503 182.895,220.900 187.000,217.000" stroke-width="3.223" stroke="black" fill="none" stroke-linecap="round"></path><path d="M 187.000,217.000 C 190.613,215.177 190.121,214.503 194.000,213.000" stroke-width="3.568" stroke="black" fill="none" stroke-linecap="round"></path><path d="M 194.000,213.000 C 197.424,210.384 197.613,210.677 201.000,208.000" stroke-width="3.631" stroke="black" fill="none" stroke-linecap="round"></path><path d="M 201.000,208.000 C 203.363,206.217 203.424,206.384 206.000,205.000" stroke-width="4.004" stroke="black" fill="none" stroke-linecap="round"></path><path d="M 206.000,205.000 C 214.208,200.962 209.863,203.217 214.000,202.000" stroke-width="4.299" stroke="black" fill="none" stroke-linecap="round"></path><path d="M 214.000,202.000 C 209.657,206.190 213.708,203.462 205.000,210.000" stroke-width="4.919" stroke="black" fill="none" stroke-linecap="round"></path><path d="M 205.000,210.000 C 198.043,214.506 198.657,215.190 192.000,220.000" stroke-width="3.273" stroke="black" fill="none" stroke-linecap="round"></path><path d="M 192.000,220.000 C 187.625,225.118 187.043,224.506 183.000,230.000" stroke-width="3.118" stroke="black" fill="none" stroke-linecap="round"></path><path d="M 183.000,230.000 C 178.324,234.343 178.625,234.618 174.000,239.000" stroke-width="3.128" stroke="black" fill="none" stroke-linecap="round"></path><path d="M 174.000,239.000 C 172.035,241.529 171.824,241.343 170.000,244.000" stroke-width="3.742" stroke="black" fill="none" stroke-linecap="round"></path><path d="M 170.000,244.000 C 164.552,249.678 165.035,250.029 160.000,256.000" stroke-width="3.067" stroke="black" fill="none" stroke-linecap="round"></path><path d="M 160.000,256.000 C 156.229,262.656 155.552,262.178 152.000,269.000" stroke-width="2.866" stroke="black" fill="none" stroke-linecap="round"></path><path d="M 152.000,269.000 C 149.122,273.098 149.229,273.156 146.000,277.000" stroke-width="3.258" stroke="black" fill="none" stroke-linecap="round"></path><path d="M 146.000,277.000 C 142.951,280.459 143.122,280.598 140.000,284.000" stroke-width="3.521" stroke="black" fill="none" stroke-linecap="round"></path><path d="M 140.000,284.000 C 133.463,292.940 132.951,292.459 126.000,301.000" stroke-width="2.625" stroke="black" fill="none" stroke-linecap="round"></path><path d="M 126.000,301.000 C 120.744,306.300 120.963,306.440 115.000,311.000" stroke-width="2.877" stroke="black" fill="none" stroke-linecap="round"></path><path d="M 115.000,311.000 C 109.475,314.966 109.744,315.300 104.000,319.000" stroke-width="2.990" stroke="black" fill="none" stroke-linecap="round"></path><path d="M 104.000,319.000 C 99.740,321.700 99.975,321.966 96.000,325.000" stroke-width="3.356" stroke="black" fill="none" stroke-linecap="round"></path><path d="M 96.000,325.000 C 91.375,329.382 91.240,329.200 87.000,334.000" stroke-width="3.313" stroke="black" fill="none" stroke-linecap="round"></path><path d="M 87.000,334.000 C 82.643,339.136 82.375,338.882 78.000,344.000" stroke-width="3.190" stroke="black" fill="none" stroke-linecap="round"></path><path d="M 78.000,344.000 C 72.171,350.192 72.143,350.136 66.000,356.000" stroke-width="2.853" stroke="black" fill="none" stroke-linecap="round"></path><path d="M 66.000,356.000 C 63.617,358.168 63.671,358.192 61.000,360.000" stroke-width="3.617" stroke="black" fill="none" stroke-linecap="round"></path><path d="M 61.000,360.000 C 58.500,361.500 58.617,361.668 56.000,363.000" stroke-width="3.910" stroke="black" fill="none" stroke-linecap="round"></path><path d="M 56.000,363.000 C 51.000,366.000 51.000,366.000 46.000,369.000" stroke-width="3.490" stroke="black" fill="none" stroke-linecap="round"></path><path d="M 46.000,369.000 C 43.667,370.933 43.500,370.500 41.000,372.000" stroke-width="3.951" stroke="black" fill="none" stroke-linecap="round"></path><path d="M 41.000,372.000 C 38.500,372.500 38.667,372.933 36.000,373.000" stroke-width="4.207" stroke="black" fill="none" stroke-linecap="round"></path><path d="M 36.000,373.000 C 31.912,375.140 33.500,373.500 31.000,374.000" stroke-width="4.652" stroke="black" fill="none" stroke-linecap="round"></path><path d="M 31.000,374.000 C 30.443,370.491 29.912,372.640 32.000,368.000" stroke-width="5.091" stroke="black" fill="none" stroke-linecap="round"></path><path d="M 32.000,368.000 C 36.343,362.851 35.443,362.491 41.000,358.000" stroke-width="3.472" stroke="black" fill="none" stroke-linecap="round"></path><path d="M 41.000,358.000 C 47.779,349.577 48.343,350.351 56.000,343.000" stroke-width="2.661" stroke="black" fill="none" stroke-linecap="round"></path><path d="M 56.000,343.000 C 63.529,338.548 62.779,337.577 71.000,334.000" stroke-width="2.792" stroke="black" fill="none" stroke-linecap="round"></path><path d="M 71.000,334.000 C 74.863,331.256 75.029,331.548 79.000,329.000" stroke-width="3.276" stroke="black" fill="none" stroke-linecap="round"></path><path d="M 79.000,329.000 C 86.053,325.602 85.863,325.256 93.000,322.000" stroke-width="2.961" stroke="black" fill="none" stroke-linecap="round"></path><path d="M 93.000,322.000 C 99.519,318.535 99.553,318.602 106.000,315.000" stroke-width="2.995" stroke="black" fill="none" stroke-linecap="round"></path><path d="M 106.000,315.000 C 110.519,312.533 110.519,312.535 115.000,310.000" stroke-width="3.334" stroke="black" fill="none" stroke-linecap="round"></path><path d="M 115.000,310.000 C 121.889,305.793 122.019,306.033 129.000,302.000" stroke-width="3.008" stroke="black" fill="none" stroke-linecap="round"></path><path d="M 129.000,302.000 C 136.840,297.627 136.889,297.793 145.000,294.000" stroke-width="2.752" stroke="black" fill="none" stroke-linecap="round"></path><path d="M 145.000,294.000 C 150.568,292.173 150.340,291.627 156.000,290.000" stroke-width="3.134" stroke="black" fill="none" stroke-linecap="round"></path><path d="M 156.000,290.000 C 163.138,287.282 163.068,287.173 170.000,284.000" stroke-width="3.015" stroke="black" fill="none" stroke-linecap="round"></path><path d="M 170.000,284.000 C 174.779,281.902 174.638,281.782 179.000,279.000" stroke-width="3.341" stroke="black" fill="none" stroke-linecap="round"></path><path d="M 179.000,279.000 C 182.516,276.019 182.779,276.402 186.000,273.000" stroke-width="3.497" stroke="black" fill="none" stroke-linecap="round"></path><path d="M 186.000,273.000 C 190.256,269.744 190.016,269.519 194.000,266.000" stroke-width="3.414" stroke="black" fill="none" stroke-linecap="round"></path><path d="M 194.000,266.000 C 198.985,261.197 196.256,263.744 198.000,261.000" stroke-width="4.242" stroke="black" fill="none" stroke-linecap="round"></path><path d="M 198.000,261.000 C 193.511,263.026 196.485,260.697 189.000,265.000" stroke-width="4.914" stroke="black" fill="none" stroke-linecap="round"></path><path d="M 189.000,265.000 C 185.398,266.301 185.511,266.526 182.000,268.000" stroke-width="4.145" stroke="black" fill="none" stroke-linecap="round"></path><path d="M 182.000,268.000 C 179.518,269.531 179.398,269.301 177.000,271.000" stroke-width="4.175" stroke="black" fill="none" stroke-linecap="round"></path><path d="M 177.000,271.000 C 173.500,273.000 173.518,273.031 170.000,275.000" stroke-width="3.917" stroke="black" fill="none" stroke-linecap="round"></path><path d="M 170.000,275.000 C 166.302,276.714 166.500,277.000 163.000,279.000" stroke-width="3.792" stroke="black" fill="none" stroke-linecap="round"></path><path d="M 163.000,279.000 C 160.255,281.928 159.802,281.214 157.000,284.000" stroke-width="3.835" stroke="black" fill="none" stroke-linecap="round"></path><path d="M 157.000,284.000 C 153.750,284.250 154.755,285.428 152.000,286.000" stroke-width="4.497" stroke="black" fill="none" stroke-linecap="round"></path><path d="M 152.000,286.000 C 148.964,289.343 150.250,287.750 150.000,291.000" stroke-width="4.889" stroke="black" fill="none" stroke-linecap="round"></path><path d="M 150.000,291.000 C 153.364,293.161 151.464,293.343 157.000,294.000" stroke-width="4.140" stroke="black" fill="none" stroke-linecap="round"></path><path d="M 157.000,294.000 C 160.027,294.270 159.864,294.661 163.000,294.000" stroke-width="4.152" stroke="black" fill="none" stroke-linecap="round"></path><path d="M 163.000,294.000 C 165.529,293.618 165.527,293.770 168.000,293.000" stroke-width="4.231" stroke="black" fill="none" stroke-linecap="round"></path><path d="M 168.000,293.000 C 171.668,292.388 171.529,292.118 175.000,291.000" stroke-width="3.969" stroke="black" fill="none" stroke-linecap="round"></path><path d="M 175.000,291.000 C 177.541,289.565 177.668,289.888 180.000,288.000" stroke-width="4.075" stroke="black" fill="none" stroke-linecap="round"></path><path d="M 180.000,288.000 C 182.959,285.935 183.041,286.065 186.000,284.000" stroke-width="4.439" stroke="black" fill="none" stroke-linecap="round"></path><path d="M 186.000,284.000 C 188.500,282.500 188.459,282.435 191.000,281.000" stroke-width="4.658" stroke="black" fill="none" stroke-linecap="round"></path><path d="M 191.000,281.000 C 196.454,278.682 193.500,279.500 196.000,278.000" stroke-width="4.910" stroke="black" fill="none" stroke-linecap="round"></path><path d="M 196.000,278.000 C 192.415,277.475 195.454,277.182 189.000,278.000" stroke-width="5.084" stroke="black" fill="none" stroke-linecap="round"></path><path d="M 189.000,278.000 C 185.857,278.681 185.915,278.475 183.000,280.000" stroke-width="4.298" stroke="black" fill="none" stroke-linecap="round"></path><path d="M 183.000,280.000 C 179.302,281.714 179.357,281.681 176.000,284.000" stroke-width="4.469" stroke="black" fill="none" stroke-linecap="round"></path><path d="M 176.000,284.000 C 172.070,285.895 172.802,286.214 170.000,289.000" stroke-width="4.739" stroke="black" fill="none" stroke-linecap="round"></path><path d="M 170.000,289.000 C 166.112,293.940 168.070,291.895 168.000,296.000" stroke-width="4.840" stroke="black" fill="none" stroke-linecap="round"></path><path d="M 168.000,296.000 C 174.285,299.967 171.612,299.940 181.000,301.000" stroke-width="4.212" stroke="black" fill="none" stroke-linecap="round"></path><path d="M 181.000,301.000 C 187.657,301.208 187.285,301.967 194.000,300.000" stroke-width="3.435" stroke="black" fill="none" stroke-linecap="round"></path><path d="M 194.000,300.000 C 198.239,298.979 198.157,299.208 202.000,297.000" stroke-width="3.645" stroke="black" fill="none" stroke-linecap="round"></path><path d="M 202.000,297.000 C 207.576,293.616 207.739,293.979 213.000,290.000" stroke-width="3.245" stroke="black" fill="none" stroke-linecap="round"></path><path d="M 213.000,290.000 C 223.550,284.632 222.576,283.616 232.000,277.000" stroke-width="2.595" stroke="black" fill="none" stroke-linecap="round"></path><path d="M 232.000,277.000 C 238.038,269.530 239.050,270.632 244.000,262.000" stroke-width="2.568" stroke="black" fill="none" stroke-linecap="round"></path><path d="M 244.000,262.000 C 246.984,257.016 247.538,257.530 251.000,253.000" stroke-width="3.031" stroke="black" fill="none" stroke-linecap="round"></path><path d="M 251.000,253.000 C 260.510,245.490 259.484,244.516 269.000,237.000" stroke-width="2.435" stroke="black" fill="none" stroke-linecap="round"></path><path d="M 269.000,237.000 C 273.598,231.576 274.010,231.990 278.000,226.000" stroke-width="2.843" stroke="black" fill="none" stroke-linecap="round"></path><path d="M 278.000,226.000 C 281.043,222.032 281.098,222.076 284.000,218.000" stroke-width="3.250" stroke="black" fill="none" stroke-linecap="round"></path><path d="M 284.000,218.000 C 286.683,214.621 286.543,214.532 289.000,211.000" stroke-width="3.525" stroke="black" fill="none" stroke-linecap="round"></path><path d="M 289.000,211.000 C 294.914,202.219 294.683,202.121 300.000,193.000" stroke-width="2.677" stroke="black" fill="none" stroke-linecap="round"></path><path d="M 300.000,193.000 C 302.546,187.521 302.914,187.719 305.000,182.000" stroke-width="3.077" stroke="black" fill="none" stroke-linecap="round"></path><path d="M 305.000,182.000 C 309.833,175.917 306.546,178.521 308.000,175.000" stroke-width="3.601" stroke="black" fill="none" stroke-linecap="round"></path><path d="M 308.000,175.000 C 300.670,174.074 304.833,173.417 295.000,177.000" stroke-width="4.426" stroke="black" fill="none" stroke-linecap="round"></path><path d="M 295.000,177.000 C 286.063,184.083 285.170,182.074 277.000,191.000" stroke-width="2.784" stroke="black" fill="none" stroke-linecap="round"></path><path d="M 277.000,191.000 C 266.244,197.712 267.063,198.583 257.000,206.000" stroke-width="2.408" stroke="black" fill="none" stroke-linecap="round"></path><path d="M 257.000,206.000 C 252.331,211.369 251.744,210.712 248.000,217.000" stroke-width="2.781" stroke="black" fill="none" stroke-linecap="round"></path><path d="M 248.000,217.000 C 242.536,224.527 242.331,224.369 237.000,232.000" stroke-width="2.714" stroke="black" fill="none" stroke-linecap="round"></path><path d="M 237.000,232.000 C 232.585,238.066 232.536,238.027 228.000,244.000" stroke-width="2.844" stroke="black" fill="none" stroke-linecap="round"></path><path d="M 228.000,244.000 C 223.095,248.473 224.085,249.066 220.000,254.000" stroke-width="3.089" stroke="black" fill="none" stroke-linecap="round"></path><path d="M 220.000,254.000 C 216.715,261.399 216.095,260.973 214.000,269.000" stroke-width="2.943" stroke="black" fill="none" stroke-linecap="round"></path><path d="M 214.000,269.000 C 212.048,275.515 211.715,275.399 210.000,282.000" stroke-width="3.010" stroke="black" fill="none" stroke-linecap="round"></path><path d="M 210.000,282.000 C 208.930,284.978 209.048,285.015 208.000,288.000" stroke-width="3.659" stroke="black" fill="none" stroke-linecap="round"></path><path d="M 208.000,288.000 C 203.467,295.106 206.930,291.478 206.000,295.000" stroke-width="4.260" stroke="black" fill="none" stroke-linecap="round"></path><path d="M 206.000,295.000 C 219.144,291.398 215.467,294.606 232.000,287.000" stroke-width="3.768" stroke="black" fill="none" stroke-linecap="round"></path><path d="M 232.000,287.000 C 238.194,284.903 238.144,284.898 244.000,282.000" stroke-width="3.277" stroke="black" fill="none" stroke-linecap="round"></path><path d="M 244.000,282.000 C 253.981,276.465 254.194,276.903 264.000,271.000" stroke-width="2.610" stroke="black" fill="none" stroke-linecap="round"></path><path d="M 264.000,271.000 C 270.405,267.297 270.481,267.465 277.000,264.000" stroke-width="2.823" stroke="black" fill="none" stroke-linecap="round"></path><path d="M 277.000,264.000 C 280.459,261.230 279.405,262.797 282.000,262.000" stroke-width="3.984" stroke="black" fill="none" stroke-linecap="round"></path><path d="M 282.000,262.000 C 283.545,264.640 283.459,262.730 283.000,267.000" stroke-width="4.755" stroke="black" fill="none" stroke-linecap="round"></path><path d="M 283.000,267.000 C 281.119,271.065 282.045,271.140 279.000,275.000" stroke-width="3.952" stroke="black" fill="none" stroke-linecap="round"></path><path d="M 279.000,275.000 C 277.395,277.442 277.619,277.565 276.000,280.000" stroke-width="4.070" stroke="black" fill="none" stroke-linecap="round"></path><path d="M 276.000,280.000 C 271.019,285.151 274.395,282.942 273.000,286.000" stroke-width="4.647" stroke="black" fill="none" stroke-linecap="round"></path><path d="M 273.000,286.000 C 281.618,286.729 278.019,288.151 290.000,286.000" stroke-width="3.951" stroke="black" fill="none" stroke-linecap="round"></path><path d="M 290.000,286.000 C 292.936,284.766 293.118,285.729 296.000,284.000" stroke-width="4.054" stroke="black" fill="none" stroke-linecap="round"></path><path d="M 296.000,284.000 C 302.982,282.404 302.936,282.266 310.000,281.000" stroke-width="3.228" stroke="black" fill="none" stroke-linecap="round"></path><path d="M 310.000,281.000 C 313.321,279.269 312.982,280.404 316.000,280.000" stroke-width="3.818" stroke="black" fill="none" stroke-linecap="round"></path><path d="M 316.000,280.000 C 318.192,282.596 318.821,280.769 321.000,284.000" stroke-width="4.762" stroke="black" fill="none" stroke-linecap="round"></path><path d="M 321.000,284.000 C 324.419,285.579 324.192,285.596 328.000,286.000" stroke-width="4.653" stroke="black" fill="none" stroke-linecap="round"></path><path d="M 328.000,286.000 C 333.000,286.000 332.919,286.579 338.000,286.000" stroke-width="3.750" stroke="black" fill="none" stroke-linecap="round"></path><path d="M 338.000,286.000 C 342.051,285.535 342.000,286.000 346.000,286.000" stroke-width="4.278" stroke="black" fill="none" stroke-linecap="round"></path><path d="M 346.000,286.000 C 350.447,287.783 350.551,286.535 355.000,288.000" stroke-width="4.853" stroke="black" fill="none" stroke-linecap="round"></path><path d="M 355.000,288.000 C 361.037,287.795 360.947,288.283 367.000,287.000" stroke-width="3.495" stroke="black" fill="none" stroke-linecap="round"></path><path d="M 367.000,287.000 C 376.076,285.846 376.037,285.795 385.000,284.000" stroke-width="2.839" stroke="black" fill="none" stroke-linecap="round"></path><path d="M 385.000,284.000 C 390.528,282.596 390.576,282.846 396.000,281.000" stroke-width="3.137" stroke="black" fill="none" stroke-linecap="round"></path><path d="M 396.000,281.000 C 402.436,278.727 402.528,279.096 409.000,277.000" stroke-width="3.069" stroke="black" fill="none" stroke-linecap="round"></path><path d="M 409.000,277.000 C 413.605,274.605 411.936,276.227 415.000,276.000" stroke-width="3.749" stroke="black" fill="none" stroke-linecap="round"></path><path d="M 415.000,276.000 C 413.894,279.958 416.605,277.605 415.000,283.000" stroke-width="4.652" stroke="black" fill="none" stroke-linecap="round"></path><path d="M 415.000,283.000 C 416.443,286.521 415.894,285.458 419.000,287.000" stroke-width="5.029" stroke="black" fill="none" stroke-linecap="round"></path><path d="M 419.000,287.000 C 425.150,287.170 424.443,288.021 431.000,286.000" stroke-width="3.673" stroke="black" fill="none" stroke-linecap="round"></path><path d="M 431.000,286.000 C 435.079,284.681 435.150,285.170 439.000,283.000" stroke-width="3.669" stroke="black" fill="none" stroke-linecap="round"></path><path d="M 439.000,283.000 C 445.000,280.257 442.079,281.681 445.000,280.000" stroke-width="4.305" stroke="black" fill="none" stroke-linecap="round"></path><path d="M 445.000,280.000 C 442.089,281.345 445.000,279.757 439.000,282.000" stroke-width="4.963" stroke="black" fill="none" stroke-linecap="round"></path><path d="M 439.000,282.000 C 425.580,285.013 425.589,284.845 412.000,287.000" stroke-width="2.591" stroke="black" fill="none" stroke-linecap="round"></path><path d="M 412.000,287.000 C 384.547,290.939 384.580,291.013 357.000,294.000" stroke-width="1.428" stroke="black" fill="none" stroke-linecap="round"></path><path d="M 357.000,294.000 C 339.515,295.690 339.547,295.939 322.000,297.000" stroke-width="1.645" stroke="black" fill="none" stroke-linecap="round"></path><path d="M 322.000,297.000 C 286.014,299.749 286.015,299.690 250.000,302.000" stroke-width="1.197" stroke="black" fill="none" stroke-linecap="round"></path><path d="M 250.000,302.000 C 238.005,302.667 238.014,302.749 226.000,303.000" stroke-width="1.816" stroke="black" fill="none" stroke-linecap="round"></path><path d="M 226.000,303.000 C 202.000,304.000 202.005,303.667 178.000,304.000" stroke-width="1.560" stroke="black" fill="none" stroke-linecap="round"></path><path d="M 178.000,304.000 C 156.002,303.355 156.000,304.000 134.000,303.000" stroke-width="1.565" stroke="black" fill="none" stroke-linecap="round"></path><path d="M 134.000,303.000 C 125.000,303.000 125.002,302.855 116.000,303.000" stroke-width="2.192" stroke="black" fill="none" stroke-linecap="round"></path><path d="M 116.000,303.000 C 98.933,301.958 99.000,303.000 82.000,303.000" stroke-width="1.902" stroke="black" fill="none" stroke-linecap="round"></path><path d="M 82.000,303.000 C 66.488,304.915 66.433,303.958 51.000,307.000" stroke-width="1.904" stroke="black" fill="none" stroke-linecap="round"></path><path d="M 51.000,307.000 C 40.546,309.145 40.488,308.415 30.000,310.000" stroke-width="2.287" stroke="black" fill="none" stroke-linecap="round"></path><path d="M 30.000,310.000 C 14.738,317.012 22.046,310.645 14.000,310.000" stroke-width="2.631" stroke="black" fill="none" stroke-linecap="round"></path><path d="M 14.000,310.000 C -0.074,244.514 8.738,260.012 18.000,196.000" stroke-width="2.703" stroke="black" fill="none" stroke-linecap="round"></path><path d="M 18.000,196.000 C 42.354,172.485 28.426,168.014 71.000,157.000" stroke-width="1.394" stroke="black" fill="none" stroke-linecap="round"></path><path d="M 71.000,157.000 C 99.032,142.832 97.854,142.485 129.000,136.000" stroke-width="1.264" stroke="black" fill="none" stroke-linecap="round"></path><path d="M 129.000,136.000 C 196.433,124.064 195.532,120.832 264.000,113.000" stroke-width="1.125" stroke="black" fill="none" stroke-linecap="round"></path><path d="M 264.000,113.000 C 281.930,109.782 281.933,110.064 300.000,108.000" stroke-width="1.222" stroke="black" fill="none" stroke-linecap="round"></path><path d="M 300.000,108.000 C 317.488,106.233 317.430,106.282 335.000,106.000" stroke-width="1.596" stroke="black" fill="none" stroke-linecap="round"></path><path d="M 335.000,106.000 C 355.192,104.931 354.988,105.733 375.000,107.000" stroke-width="1.603" stroke="black" fill="none" stroke-linecap="round"></path><path d="M 375.000,107.000 C 388.698,109.342 388.692,108.431 402.000,113.000" stroke-width="1.899" stroke="black" fill="none" stroke-linecap="round"></path><path d="M 402.000,113.000 C 408.741,115.035 408.698,114.842 415.000,118.000" stroke-width="2.676" stroke="black" fill="none" stroke-linecap="round"></path><path d="M 415.000,118.000 C 419.686,118.824 418.241,119.535 421.000,122.000" stroke-width="3.417" stroke="black" fill="none" stroke-linecap="round"></path><path d="M 421.000,122.000 C 428.982,135.105 425.686,133.324 427.000,147.000" stroke-width="2.426" stroke="black" fill="none" stroke-linecap="round"></path><path d="M 427.000,147.000 C 420.316,161.981 424.482,162.105 412.000,176.000" stroke-width="2.053" stroke="black" fill="none" stroke-linecap="round"></path><path d="M 412.000,176.000 C 403.889,192.536 402.816,191.481 392.000,206.000" stroke-width="1.871" stroke="black" fill="none" stroke-linecap="round"></path><path d="M 392.000,206.000 C 362.698,240.818 362.389,239.536 329.000,270.000" stroke-width="1.125" stroke="black" fill="none" stroke-linecap="round"></path><path d="M 329.000,270.000 C 312.519,281.081 314.198,282.818 295.000,290.000" stroke-width="1.412" stroke="black" fill="none" stroke-linecap="round"></path><path d="M 295.000,290.000 C 284.875,295.825 285.019,295.081 274.000,298.000" stroke-width="1.994" stroke="black" fill="none" stroke-linecap="round"></path><path d="M 274.000,298.000 C 261.828,299.717 262.375,300.325 250.000,299.000" stroke-width="2.219" stroke="black" fill="none" stroke-linecap="round"></path><path d="M 250.000,299.000 C 245.465,297.595 245.328,298.717 241.000,296.000" stroke-width="3.039" stroke="black" fill="none" stroke-linecap="round"></path><path d="M 241.000,296.000 C 236.896,296.363 238.465,295.095 236.000,294.000" stroke-width="3.808" stroke="black" fill="none" stroke-linecap="round"></path><path d="M 236.000,294.000 C 228.259,279.478 231.396,281.863 230.000,267.000" stroke-width="2.390" stroke="black" fill="none" stroke-linecap="round"></path><path d="M 230.000,267.000 C 235.511,258.597 231.259,257.978 242.000,251.000" stroke-width="2.523" stroke="black" fill="none" stroke-linecap="round"></path><path d="M 242.000,251.000 C 254.166,232.040 256.011,234.597 271.000,219.000" stroke-width="1.726" stroke="black" fill="none" stroke-linecap="round"></path><path d="M 271.000,219.000 C 291.445,206.008 289.666,204.540 313.000,196.000" stroke-width="1.491" stroke="black" fill="none" stroke-linecap="round"></path><path d="M 313.000,196.000 C 319.918,193.885 319.445,193.008 327.000,193.000" stroke-width="2.355" stroke="black" fill="none" stroke-linecap="round"></path><path d="M 327.000,193.000 C 336.050,191.691 335.918,191.885 345.000,192.000" stroke-width="2.606" stroke="black" fill="none" stroke-linecap="round"></path><path d="M 345.000,192.000 C 350.688,192.438 350.550,192.191 356.000,194.000" stroke-width="3.111" stroke="black" fill="none" stroke-linecap="round"></path><path d="M 356.000,194.000 C 359.714,194.714 359.188,194.938 362.000,197.000" stroke-width="3.662" stroke="black" fill="none" stroke-linecap="round"></path><path d="M 362.000,197.000 C 366.199,200.513 365.214,200.214 367.000,205.000" stroke-width="3.575" stroke="black" fill="none" stroke-linecap="round"></path><path d="M 367.000,205.000 C 370.358,215.886 368.699,214.513 367.000,225.000" stroke-width="2.819" stroke="black" fill="none" stroke-linecap="round"></path><path d="M 367.000,225.000 C 357.942,244.598 359.858,244.386 346.000,262.000" stroke-width="1.844" stroke="black" fill="none" stroke-linecap="round"></path><path d="M 346.000,262.000 C 339.000,269.000 340.442,270.098 332.000,276.000" stroke-width="2.314" stroke="black" fill="none" stroke-linecap="round"></path><path d="M 332.000,276.000 C 322.739,281.086 327.500,280.500 323.000,285.000" stroke-width="2.832" stroke="black" fill="none" stroke-linecap="round"></path><path d="M 323.000,285.000 C 327.436,290.561 323.239,288.586 333.000,291.000" stroke-width="3.855" stroke="black" fill="none" stroke-linecap="round"></path><path d="M 333.000,291.000 C 347.016,289.636 346.436,292.061 361.000,288.000" stroke-width="2.449" stroke="black" fill="none" stroke-linecap="round"></path><path d="M 361.000,288.000 C 393.998,283.983 394.016,284.136 427.000,280.000" stroke-width="1.309" stroke="black" fill="none" stroke-linecap="round"></path><path d="M 427.000,280.000 C 452.158,277.822 451.998,276.983 477.000,274.000" stroke-width="1.384" stroke="black" fill="none" stroke-linecap="round"></path><path d="M 477.000,274.000 C 484.500,272.000 484.658,272.822 492.000,270.000" stroke-width="2.199" stroke="black" fill="none" stroke-linecap="round"></path><path d="M 492.000,270.000 C 499.552,268.172 499.500,268.000 507.000,266.000" stroke-width="2.670" stroke="black" fill="none" stroke-linecap="round"></path><path d="M 507.000,266.000 C 511.474,264.415 511.552,264.672 516.000,263.000" stroke-width="3.220" stroke="black" fill="none" stroke-linecap="round"></path><path d="M 516.000,263.000 C 519.500,262.000 519.474,261.915 523.000,261.000" stroke-width="4.242" stroke="black" fill="none" stroke-linecap="round"></path><path d="M 523.000,261.000 C 526.428,259.693 526.500,260.000 530.000,259.000" stroke-width="5.029" stroke="black" fill="none" stroke-linecap="round"></path><path d="M 530.000,259.000 C 559.772,250.996 559.928,253.193 590.000,248.000" stroke-width="1.519" stroke="black" fill="none" stroke-linecap="round"></path><path d="M 590.000,248.000 C 615.514,247.307 615.272,245.496 641.000,248.000" stroke-width="1.438" stroke="black" fill="none" stroke-linecap="round"></path><path d="M 641.000,248.000 C 689.043,249.252 689.014,249.307 737.000,252.000" stroke-width="1.125" stroke="black" fill="none" stroke-linecap="round"></path><path d="M 737.000,252.000 C 788.674,245.407 785.043,254.752 833.000,259.000" stroke-width="1.125" stroke="black" fill="none" stroke-linecap="round"></path><path d="M 833.000,259.000 C 898.420,287.115 863.674,268.407 887.000,298.000" stroke-width="1.994" stroke="black" fill="none" stroke-linecap="round"></path><path d="M 887.000,298.000 C 828.260,310.810 866.420,317.615 769.000,320.000" stroke-width="1.125" stroke="black" fill="none" stroke-linecap="round"></path><path d="M 769.000,320.000 C 734.560,324.235 734.760,325.310 700.000,327.000" stroke-width="1.125" stroke="black" fill="none" stroke-linecap="round"></path><path d="M 700.000,327.000 C 659.516,329.783 659.560,330.235 619.000,332.000" stroke-width="1.125" stroke="black" fill="none" stroke-linecap="round"></path><path d="M 619.000,332.000 C 558.995,334.912 559.016,335.283 499.000,338.000" stroke-width="1.125" stroke="black" fill="none" stroke-linecap="round"></path><path d="M 499.000,338.000 C 491.005,338.600 490.995,338.412 483.000,339.000" stroke-width="1.531" stroke="black" fill="none" stroke-linecap="round"></path><path d="M 483.000,339.000 C 471.003,339.636 471.005,339.600 459.000,340.000" stroke-width="2.015" stroke="black" fill="none" stroke-linecap="round"></path><path d="M 459.000,340.000 C 454.405,340.587 454.503,340.136 450.000,340.000" stroke-width="2.913" stroke="black" fill="none" stroke-linecap="round"></path><path d="M 450.000,340.000 C 446.485,339.739 446.905,339.587 444.000,338.000" stroke-width="3.991" stroke="black" fill="none" stroke-linecap="round"></path><path d="M 444.000,338.000 C 440.835,335.783 441.485,336.239 440.000,333.000" stroke-width="4.646" stroke="black" fill="none" stroke-linecap="round"></path><path d="M 440.000,333.000 C 439.576,329.959 439.335,330.783 441.000,328.000" stroke-width="4.788" stroke="black" fill="none" stroke-linecap="round"></path><path d="M 441.000,328.000 C 443.992,324.171 443.576,324.459 448.000,322.000" stroke-width="3.928" stroke="black" fill="none" stroke-linecap="round"></path><path d="M 448.000,322.000 C 456.574,318.663 455.992,317.671 465.000,315.000" stroke-width="2.981" stroke="black" fill="none" stroke-linecap="round"></path><path d="M 465.000,315.000 C 467.921,313.319 468.074,313.663 471.000,312.000" stroke-width="3.607" stroke="black" fill="none" stroke-linecap="round"></path><path d="M 471.000,312.000 C 474.897,310.140 474.921,310.319 479.000,309.000" stroke-width="3.649" stroke="black" fill="none" stroke-linecap="round"></path><path d="M 479.000,309.000 C 484.040,308.167 483.897,307.640 489.000,307.000" stroke-width="3.555" stroke="black" fill="none" stroke-linecap="round"></path><path d="M 489.000,307.000 C 492.658,306.407 492.540,306.167 496.000,305.000" stroke-width="3.815" stroke="black" fill="none" stroke-linecap="round"></path><path d="M 496.000,305.000 C 502.121,302.228 502.158,302.407 508.000,299.000" stroke-width="3.380" stroke="black" fill="none" stroke-linecap="round"></path><path d="M 508.000,299.000 C 526.813,286.208 527.621,288.228 547.000,277.000" stroke-width="1.849" stroke="black" fill="none" stroke-linecap="round"></path><path d="M 547.000,277.000 C 555.897,274.332 555.313,273.208 565.000,273.000" stroke-width="2.371" stroke="black" fill="none" stroke-linecap="round"></path><path d="M 565.000,273.000 C 576.488,271.720 576.397,271.332 588.000,271.000" stroke-width="2.381" stroke="black" fill="none" stroke-linecap="round"></path><path d="M 588.000,271.000 C 597.231,270.306 592.488,270.720 597.000,271.000" stroke-width="3.161" stroke="black" fill="none" stroke-linecap="round"></path><path d="M 597.000,271.000 C 591.890,272.189 596.731,271.806 587.000,274.000" stroke-width="4.076" stroke="black" fill="none" stroke-linecap="round"></path><path d="M 587.000,274.000 C 578.175,276.829 578.390,277.189 570.000,281.000" stroke-width="2.932" stroke="black" fill="none" stroke-linecap="round"></path><path d="M 570.000,281.000 C 554.164,290.327 553.675,289.329 538.000,299.000" stroke-width="1.952" stroke="black" fill="none" stroke-linecap="round"></path><path d="M 538.000,299.000 C 526.891,305.384 533.664,301.327 529.000,303.000" stroke-width="2.855" stroke="black" fill="none" stroke-linecap="round"></path><path d="M 529.000,303.000 C 541.977,283.040 538.391,292.384 561.000,273.000" stroke-width="2.990" stroke="black" fill="none" stroke-linecap="round"></path><path d="M 561.000,273.000 C 598.790,258.852 595.977,254.540 637.000,246.000" stroke-width="1.227" stroke="black" fill="none" stroke-linecap="round"></path><path d="M 637.000,246.000 C 653.805,240.046 653.790,240.352 671.000,236.000" stroke-width="1.551" stroke="black" fill="none" stroke-linecap="round"></path><path d="M 671.000,236.000 C 679.498,234.327 679.305,234.046 688.000,234.000" stroke-width="2.217" stroke="black" fill="none" stroke-linecap="round"></path><path d="M 688.000,234.000 C 694.031,232.488 692.498,233.827 697.000,235.000" stroke-width="3.029" stroke="black" fill="none" stroke-linecap="round"></path><path d="M 697.000,235.000 C 703.003,240.278 700.531,237.988 701.000,245.000" stroke-width="3.786" stroke="black" fill="none" stroke-linecap="round"></path><path d="M 701.000,245.000 C 686.322,274.010 689.003,273.278 669.000,301.000" stroke-width="1.480" stroke="black" fill="none" stroke-linecap="round"></path><path d="M 669.000,301.000 C 663.174,306.217 664.822,307.510 658.000,312.000" stroke-width="2.231" stroke="black" fill="none" stroke-linecap="round"></path><path d="M 658.000,312.000 C 648.615,320.188 654.674,315.717 652.000,320.000" stroke-width="2.970" stroke="black" fill="none" stroke-linecap="round"></path><path d="M 652.000,320.000 C 674.428,318.716 666.615,319.188 694.000,310.000" stroke-width="3.004" stroke="black" fill="none" stroke-linecap="round"></path><path d="M 694.000,310.000 C 736.810,286.137 738.428,290.216 780.000,263.000" stroke-width="1.125" stroke="black" fill="none" stroke-linecap="round"></path><path d="M 780.000,263.000 C 792.862,256.183 792.810,256.137 806.000,250.000" stroke-width="1.580" stroke="black" fill="none" stroke-linecap="round"></path><path d="M 806.000,250.000 C 815.314,244.811 809.862,248.183 814.000,247.000" stroke-width="2.678" stroke="black" fill="none" stroke-linecap="round"></path><path d="M 814.000,247.000 C 805.399,260.121 809.314,254.811 794.000,270.000" stroke-width="2.846" stroke="black" fill="none" stroke-linecap="round"></path></svg>