<svg xmlns="http://www.w3.org/2000/svg" xmlns:xlink="http://www.w3.org/1999/xlink" viewBox="0 0 965 726" width="965" height="726"><path d="M 247.500,412.000 C 243.787,408.715 243.500,409.500 239.500,407.000" stroke-width="4.919" stroke="black" fill="none" stroke-linecap="round"></path><path d="M 239.500,407.000 C 235.870,406.963 236.287,405.715 232.500,406.000" stroke-width="4.715" stroke="black" fill="none" stroke-linecap="round"></path><path d="M 232.500,406.000 C 228.902,404.701 228.870,404.963 225.500,403.000" stroke-width="4.101" stroke="black" fill="none" stroke-linecap="round"></path><path d="M 225.500,403.000 C 220.954,400.579 220.902,400.701 216.500,398.000" stroke-width="3.721" stroke="black" fill="none" stroke-linecap="round"></path><path d="M 216.500,398.000 C 211.657,394.701 211.454,395.079 206.500,392.000" stroke-width="3.553" stroke="black" fill="none" stroke-linecap="round"></path><path d="M 206.500,392.000 C 200.899,389.700 201.157,389.201 195.500,387.000" stroke-width="3.235" stroke="black" fill="none" stroke-linecap="round"></path><path d="M 195.500,387.000 C 191.049,384.408 190.899,384.700 186.500,382.000" stroke-width="3.364" stroke="black" fill="none" stroke-linecap="round"></path><path d="M 186.500,382.000 C 182.601,379.757 182.549,379.908 178.500,378.000" stroke-width="3.531" stroke="black" fill="none" stroke-linecap="round"></path><path d="M 178.500,378.000 C 171.860,377.759 175.601,376.757 172.500,376.000" stroke-width="4.020" stroke="black" fill="none" stroke-linecap="round"></path><path d="M 172.500,376.000 C 177.113,370.982 173.860,372.259 182.500,367.000" stroke-width="4.763" stroke="black" fill="none" stroke-linecap="round"></path><path d="M 182.500,367.000 C 189.285,363.411 188.613,362.482 195.500,359.000" stroke-width="3.413" stroke="black" fill="none" stroke-linecap="round"></path><path d="M 195.500,359.000 C 204.463,351.952 204.785,352.411 213.500,345.000" stroke-width="2.637" stroke="black" fill="none" stroke-linecap="round"></path><path d="M 213.500,345.000 C 224.067,337.086 223.963,336.952 234.500,329.000" stroke-width="2.318" stroke="black" fill="none" stroke-linecap="round"></path><path d="M 234.500,329.000 C 243.879,321.342 244.067,321.586 253.500,314.000" stroke-width="2.262" stroke="black" fill="none" stroke-linecap="round"></path><path d="M 253.500,314.000 C 263.217,307.276 262.879,306.842 272.500,300.000" stroke-width="2.269" stroke="black" fill="none" stroke-linecap="round"></path><path d="M 272.500,300.000 C 281.302,292.247 281.717,292.776 290.500,285.000" stroke-width="2.279" stroke="black" fill="none" stroke-linecap="round"></path><path d="M 290.500,285.000 C 297.810,279.218 297.802,279.247 305.500,274.000" stroke-width="2.495" stroke="black" fill="none" stroke-linecap="round"></path><path d="M 305.500,274.000 C 312.011,270.017 311.810,269.718 318.500,266.000" stroke-width="2.806" stroke="black" fill="none" stroke-linecap="round"></path><path d="M 318.500,266.000 C 323.392,260.044 322.511,263.517 326.500,261.000" stroke-width="3.329" stroke="black" fill="none" stroke-linecap="round"></path><path d="M 326.500,261.000 C 332.464,265.758 329.892,262.044 331.500,270.000" stroke-width="4.154" stroke="black" fill="none" stroke-linecap="round"></path><path d="M 331.500,270.000 C 326.456,276.467 329.964,276.758 321.500,283.000" stroke-width="3.157" stroke="black" fill="none" stroke-linecap="round"></path><path d="M 321.500,283.000 C 315.744,291.194 315.456,290.967 309.500,299.000" stroke-width="2.733" stroke="black" fill="none" stroke-linecap="round"></path><path d="M 309.500,299.000 C 301.693,308.669 301.744,308.694 293.500,318.000" stroke-width="2.340" stroke="black" fill="none" stroke-linecap="round"></path><path d="M 293.500,318.000 C 283.659,329.148 283.693,329.169 273.500,340.000" stroke-width="2.182" stroke="black" fill="none" stroke-linecap="round"></path><path d="M 273.500,340.000 C 261.510,352.510 261.659,352.648 249.500,365.000" stroke-width="1.882" stroke="black" fill="none" stroke-linecap="round"></path><path d="M 249.500,365.000 C 236.627,378.625 236.510,378.510 223.500,392.000" stroke-width="1.791" stroke="black" fill="none" stroke-linecap="round"></path><path d="M 223.500,392.000 C 210.250,405.760 210.127,405.625 196.500,419.000" stroke-width="1.698" stroke="black" fill="none" stroke-linecap="round"></path><path d="M 196.500,419.000 C 183.148,431.664 183.250,431.760 169.500,444.000" stroke-width="1.753" stroke="black" fill="none" stroke-linecap="round"></path><path d="M 169.500,444.000 C 157.031,455.035 157.148,455.164 144.500,466.000" stroke-width="1.902" stroke="black" fill="none" stroke-linecap="round"></path><path d="M 144.500,466.000 C 133.535,476.701 133.031,476.035 121.500,486.000" stroke-width="1.926" stroke="black" fill="none" stroke-linecap="round"></path><path d="M 121.500,486.000 C 111.282,493.474 111.535,493.701 100.500,500.000" stroke-width="2.151" stroke="black" fill="none" stroke-linecap="round"></path><path d="M 100.500,500.000 C 92.152,504.823 92.282,504.974 83.500,509.000" stroke-width="2.418" stroke="black" fill="none" stroke-linecap="round"></path><path d="M 83.500,509.000 C 77.704,512.308 77.652,511.823 71.500,514.000" stroke-width="2.860" stroke="black" fill="none" stroke-linecap="round"></path><path d="M 71.500,514.000 C 66.364,515.540 66.704,515.308 61.500,515.000" stroke-width="3.301" stroke="black" fill="none" stroke-linecap="round"></path><path d="M 61.500,515.000 C 55.815,514.830 57.364,514.540 53.500,512.000" stroke-width="4.023" stroke="black" fill="none" stroke-linecap="round"></path><path d="M 53.500,512.000 C 52.723,508.017 51.315,509.330 52.500,504.000" stroke-width="3.876" stroke="black" fill="none" stroke-linecap="round"></path><path d="M 52.500,504.000 C 51.136,498.678 52.223,499.017 52.500,494.000" stroke-width="3.636" stroke="black" fill="none" stroke-linecap="round"></path><path d="M 52.500,494.000 C 55.520,486.716 54.636,486.678 59.500,480.000" stroke-width="3.110" stroke="black" fill="none" stroke-linecap="round"></path><path d="M 59.500,480.000 C 63.394,472.994 63.520,473.216 68.500,467.000" stroke-width="2.908" stroke="black" fill="none" stroke-linecap="round"></path><path d="M 68.500,467.000 C 74.854,459.212 74.894,459.494 82.500,453.000" stroke-width="2.684" stroke="black" fill="none" stroke-linecap="round"></path><path d="M 82.500,453.000 C 91.016,446.107 90.854,446.212 100.500,441.000" stroke-width="2.592" stroke="black" fill="none" stroke-linecap="round"></path><path d="M 100.500,441.000 C 110.806,435.979 110.516,435.607 121.500,432.000" stroke-width="2.393" stroke="black" fill="none" stroke-linecap="round"></path><path d="M 121.500,432.000 C 132.576,428.724 132.306,427.979 143.500,425.000" stroke-width="2.329" stroke="black" fill="none" stroke-linecap="round"></path><path d="M 143.500,425.000 C 154.521,421.057 154.576,421.224 165.500,417.000" stroke-width="2.355" stroke="black" fill="none" stroke-linecap="round"></path><path d="M 165.500,417.000 C 177.775,413.130 177.521,412.557 189.500,408.000" stroke-width="2.276" stroke="black" fill="none" stroke-linecap="round"></path><path d="M 189.500,408.000 C 201.359,401.699 201.775,402.630 213.500,396.000" stroke-width="2.151" stroke="black" fill="none" stroke-linecap="round"></path><path d="M 213.500,396.000 C 226.087,390.689 225.859,390.199 238.500,385.000" stroke-width="2.156" stroke="black" fill="none" stroke-linecap="round"></path><path d="M 238.500,385.000 C 250.163,379.814 250.087,379.689 261.500,374.000" stroke-width="2.221" stroke="black" fill="none" stroke-linecap="round"></path><path d="M 261.500,374.000 C 269.211,368.848 269.663,369.814 277.500,365.000" stroke-width="2.486" stroke="black" fill="none" stroke-linecap="round"></path><path d="M 277.500,365.000 C 283.423,362.688 283.211,362.348 289.500,361.000" stroke-width="2.961" stroke="black" fill="none" stroke-linecap="round"></path><path d="M 289.500,361.000 C 295.228,360.000 292.423,360.188 295.500,360.000" stroke-width="3.662" stroke="black" fill="none" stroke-linecap="round"></path><path d="M 295.500,360.000 C 292.961,360.344 295.728,360.000 290.500,361.000" stroke-width="4.630" stroke="black" fill="none" stroke-linecap="round"></path><path d="M 290.500,361.000 C 285.367,362.146 285.461,362.344 280.500,364.000" stroke-width="3.882" stroke="black" fill="none" stroke-linecap="round"></path><path d="M 280.500,364.000 C 274.901,366.300 274.867,366.146 269.500,369.000" stroke-width="3.446" stroke="black" fill="none" stroke-linecap="round"></path><path d="M 269.500,369.000 C 263.007,372.514 262.901,372.300 256.500,376.000" stroke-width="3.064" stroke="black" fill="none" stroke-linecap="round"></path><path d="M 256.500,376.000 C 248.893,379.811 249.007,380.014 241.500,384.000" stroke-width="2.884" stroke="black" fill="none" stroke-linecap="round"></path><path d="M 241.500,384.000 C 233.813,388.218 233.893,388.311 226.500,393.000" stroke-width="2.805" stroke="black" fill="none" stroke-linecap="round"></path><path d="M 226.500,393.000 C 220.709,396.659 220.813,396.718 215.500,401.000" stroke-width="2.966" stroke="black" fill="none" stroke-linecap="round"></path><path d="M 215.500,401.000 C 211.647,404.224 211.709,404.159 208.500,408.000" stroke-width="3.355" stroke="black" fill="none" stroke-linecap="round"></path><path d="M 208.500,408.000 C 206.479,410.308 206.647,410.224 205.500,413.000" stroke-width="3.858" stroke="black" fill="none" stroke-linecap="round"></path><path d="M 205.500,413.000 C 203.439,416.878 204.479,415.808 204.500,419.000" stroke-width="4.455" stroke="black" fill="none" stroke-linecap="round"></path><path d="M 204.500,419.000 C 206.885,420.598 205.439,420.878 209.500,421.000" stroke-width="4.325" stroke="black" fill="none" stroke-linecap="round"></path><path d="M 209.500,421.000 C 213.500,421.000 213.385,421.598 217.500,421.000" stroke-width="3.906" stroke="black" fill="none" stroke-linecap="round"></path><path d="M 217.500,421.000 C 223.693,422.117 223.500,421.000 229.500,421.000" stroke-width="3.395" stroke="black" fill="none" stroke-linecap="round"></path><path d="M 229.500,421.000 C 236.727,419.010 236.693,419.617 243.500,416.000" stroke-width="3.045" stroke="black" fill="none" stroke-linecap="round"></path><path d="M 243.500,416.000 C 250.205,412.832 250.227,413.010 256.500,409.000" stroke-width="2.960" stroke="black" fill="none" stroke-linecap="round"></path><path d="M 256.500,409.000 C 261.806,405.865 261.705,405.832 266.500,402.000" stroke-width="3.224" stroke="black" fill="none" stroke-linecap="round"></path><path d="M 266.500,402.000 C 270.353,398.776 270.306,398.865 273.500,395.000" stroke-width="3.396" stroke="black" fill="none" stroke-linecap="round"></path><path d="M 273.500,395.000 C 276.278,392.668 275.353,392.776 276.500,390.000" stroke-width="3.914" stroke="black" fill="none" stroke-linecap="round"></path><path d="M 276.500,390.000 C 277.021,384.680 276.778,386.668 274.500,383.000" stroke-width="4.554" stroke="black" fill="none" stroke-linecap="round"></path><path d="M 274.500,383.000 C 269.484,382.000 271.021,380.680 264.500,382.000" stroke-width="4.403" stroke="black" fill="none" stroke-linecap="round"></path><path d="M 264.500,382.000 C 261.334,381.988 261.484,382.000 258.500,383.000" stroke-width="4.218" stroke="black" fill="none" stroke-linecap="round"></path><path d="M 258.500,383.000 C 254.092,384.434 254.334,384.488 250.500,387.000" stroke-width="3.772" stroke="black" fill="none" stroke-linecap="round"></path><path d="M 250.500,387.000 C 247.013,389.649 247.092,389.434 244.500,393.000" stroke-width="3.758" stroke="black" fill="none" stroke-linecap="round"></path><path d="M 244.500,393.000 C 242.474,395.836 242.513,395.649 241.500,399.000" stroke-width="3.947" stroke="black" fill="none" stroke-linecap="round"></path><path d="M 241.500,399.000 C 239.217,403.434 240.474,402.336 240.500,406.000" stroke-width="4.387" stroke="black" fill="none" stroke-linecap="round"></path><path d="M 240.500,406.000 C 243.321,408.092 241.717,408.434 246.500,409.000" stroke-width="4.773" stroke="black" fill="none" stroke-linecap="round"></path><path d="M 246.500,409.000 C 250.486,409.732 250.321,410.092 254.500,410.000" stroke-width="4.612" stroke="black" fill="none" stroke-linecap="round"></path><path d="M 254.500,410.000 C 258.305,411.065 257.986,410.232 261.500,410.000" stroke-width="4.154" stroke="black" fill="none" stroke-linecap="round"></path><path d="M 261.500,410.000 C 265.682,407.757 265.805,408.565 269.500,405.000" stroke-width="3.703" stroke="black" fill="none" stroke-linecap="round"></path><path d="M 269.500,405.000 C 274.657,401.183 274.682,401.257 279.500,397.000" stroke-width="3.342" stroke="black" fill="none" stroke-linecap="round"></path><path d="M 279.500,397.000 C 285.749,391.751 285.657,391.683 291.500,386.000" stroke-width="3.117" stroke="black" fill="none" stroke-linecap="round"></path><path d="M 291.500,386.000 C 298.750,377.750 299.249,378.251 306.500,370.000" stroke-width="2.556" stroke="black" fill="none" stroke-linecap="round"></path><path d="M 306.500,370.000 C 315.878,361.868 315.250,361.250 324.500,353.000" stroke-width="2.364" stroke="black" fill="none" stroke-linecap="round"></path><path d="M 324.500,353.000 C 332.855,343.366 333.378,343.868 341.500,334.000" stroke-width="2.224" stroke="black" fill="none" stroke-linecap="round"></path><path d="M 341.500,334.000 C 350.875,323.878 350.855,323.866 360.500,314.000" stroke-width="2.168" stroke="black" fill="none" stroke-linecap="round"></path><path d="M 360.500,314.000 C 370.432,304.892 369.875,304.378 379.500,295.000" stroke-width="2.059" stroke="black" fill="none" stroke-linecap="round"></path><path d="M 379.500,295.000 C 386.588,286.571 386.932,286.892 393.500,278.000" stroke-width="2.318" stroke="black" fill="none" stroke-linecap="round"></path><path d="M 393.500,278.000 C 399.161,271.119 399.088,271.071 404.500,264.000" stroke-width="2.603" stroke="black" fill="none" stroke-linecap="round"></path><path d="M 404.500,264.000 C 408.116,259.075 408.161,259.119 411.500,254.000" stroke-width="2.988" stroke="black" fill="none" stroke-linecap="round"></path><path d="M 411.500,254.000 C 415.339,249.210 413.116,251.575 414.500,249.000" stroke-width="3.738" stroke="black" fill="none" stroke-linecap="round"></path><path d="M 414.500,249.000 C 410.677,250.545 413.339,248.710 407.500,253.000" stroke-width="4.449" stroke="black" fill="none" stroke-linecap="round"></path><path d="M 407.500,253.000 C 400.035,259.541 399.677,259.045 392.500,266.000" stroke-width="2.888" stroke="black" fill="none" stroke-linecap="round"></path><path d="M 392.500,266.000 C 382.240,274.211 382.535,274.541 372.500,283.000" stroke-width="2.312" stroke="black" fill="none" stroke-linecap="round"></path><path d="M 372.500,283.000 C 361.629,292.636 361.740,292.711 351.500,303.000" stroke-width="2.084" stroke="black" fill="none" stroke-linecap="round"></path><path d="M 351.500,303.000 C 340.314,314.835 340.129,314.636 329.500,327.000" stroke-width="1.974" stroke="black" fill="none" stroke-linecap="round"></path><path d="M 329.500,327.000 C 320.408,337.422 320.314,337.335 311.500,348.000" stroke-width="2.034" stroke="black" fill="none" stroke-linecap="round"></path><path d="M 311.500,348.000 C 304.313,356.353 304.408,356.422 297.500,365.000" stroke-width="2.309" stroke="black" fill="none" stroke-linecap="round"></path><path d="M 297.500,365.000 C 291.452,372.965 291.313,372.853 285.500,381.000" stroke-width="2.595" stroke="black" fill="none" stroke-linecap="round"></path><path d="M 285.500,381.000 C 280.612,386.060 281.452,386.465 277.500,392.000" stroke-width="2.891" stroke="black" fill="none" stroke-linecap="round"></path><path d="M 277.500,392.000 C 275.692,396.932 275.112,396.560 274.500,402.000" stroke-width="3.283" stroke="black" fill="none" stroke-linecap="round"></path><path d="M 274.500,402.000 C 273.236,405.569 273.692,405.432 273.500,409.000" stroke-width="4.005" stroke="black" fill="none" stroke-linecap="round"></path><path d="M 273.500,409.000 C 273.364,413.576 273.736,412.069 275.500,415.000" stroke-width="4.508" stroke="black" fill="none" stroke-linecap="round"></path><path d="M 275.500,415.000 C 279.312,416.125 277.864,416.576 282.500,415.000" stroke-width="4.074" stroke="black" fill="none" stroke-linecap="round"></path><path d="M 282.500,415.000 C 287.798,412.420 287.812,413.125 292.500,409.000" stroke-width="3.528" stroke="black" fill="none" stroke-linecap="round"></path><path d="M 292.500,409.000 C 298.639,404.158 298.798,404.420 304.500,399.000" stroke-width="3.021" stroke="black" fill="none" stroke-linecap="round"></path><path d="M 304.500,399.000 C 311.120,393.125 311.139,393.158 317.500,387.000" stroke-width="2.890" stroke="black" fill="none" stroke-linecap="round"></path><path d="M 317.500,387.000 C 323.500,381.000 323.620,381.125 329.500,375.000" stroke-width="2.776" stroke="black" fill="none" stroke-linecap="round"></path><path d="M 329.500,375.000 C 333.843,370.324 334.000,370.500 338.500,366.000" stroke-width="3.120" stroke="black" fill="none" stroke-linecap="round"></path><path d="M 338.500,366.000 C 342.844,361.126 340.843,363.824 343.500,362.000" stroke-width="3.698" stroke="black" fill="none" stroke-linecap="round"></path><path d="M 343.500,362.000 C 343.451,366.453 344.344,363.126 341.500,370.000" stroke-width="4.313" stroke="black" fill="none" stroke-linecap="round"></path><path d="M 341.500,370.000 C 337.000,376.000 337.951,376.453 332.500,382.000" stroke-width="3.292" stroke="black" fill="none" stroke-linecap="round"></path><path d="M 332.500,382.000 C 328.121,388.095 328.000,388.000 323.500,394.000" stroke-width="3.010" stroke="black" fill="none" stroke-linecap="round"></path><path d="M 323.500,394.000 C 318.647,399.257 319.121,399.595 314.500,405.000" stroke-width="2.988" stroke="black" fill="none" stroke-linecap="round"></path><path d="M 314.500,405.000 C 309.102,412.350 312.147,408.257 310.500,412.000" stroke-width="3.564" stroke="black" fill="none" stroke-linecap="round"></path><path d="M 310.500,412.000 C 316.669,407.710 313.102,411.350 322.500,403.000" stroke-width="4.066" stroke="black" fill="none" stroke-linecap="round"></path><path d="M 322.500,403.000 C 329.624,397.139 329.669,397.210 336.500,391.000" stroke-width="2.927" stroke="black" fill="none" stroke-linecap="round"></path><path d="M 336.500,391.000 C 343.376,384.361 343.624,384.639 350.500,378.000" stroke-width="2.726" stroke="black" fill="none" stroke-linecap="round"></path><path d="M 350.500,378.000 C 357.368,371.835 357.376,371.861 364.500,366.000" stroke-width="2.646" stroke="black" fill="none" stroke-linecap="round"></path><path d="M 364.500,366.000 C 372.312,358.305 368.368,362.835 372.500,360.000" stroke-width="3.215" stroke="black" fill="none" stroke-linecap="round"></path><path d="M 372.500,360.000 C 369.529,367.805 372.812,362.805 365.500,375.000" stroke-width="4.123" stroke="black" fill="none" stroke-linecap="round"></path><path d="M 365.500,375.000 C 362.020,380.014 362.529,380.305 358.500,385.000" stroke-width="3.490" stroke="black" fill="none" stroke-linecap="round"></path><path d="M 358.500,385.000 C 352.467,392.000 356.020,388.514 353.500,392.000" stroke-width="3.606" stroke="black" fill="none" stroke-linecap="round"></path><path d="M 353.500,392.000 C 358.588,388.619 354.967,392.000 363.500,385.000" stroke-width="4.393" stroke="black" fill="none" stroke-linecap="round"></path><path d="M 363.500,385.000 C 368.218,381.747 368.088,381.619 372.500,378.000" stroke-width="3.621" stroke="black" fill="none" stroke-linecap="round"></path><path d="M 372.500,378.000 C 375.614,373.915 376.218,374.747 379.500,371.000" stroke-width="3.627" stroke="black" fill="none" stroke-linecap="round"></path><path d="M 379.500,371.000 C 384.138,367.733 381.614,369.415 384.500,369.000" stroke-width="4.015" stroke="black" fill="none" stroke-linecap="round"></path><path d="M 384.500,369.000 C 383.858,373.992 385.138,371.233 381.500,378.000" stroke-width="4.373" stroke="black" fill="none" stroke-linecap="round"></path><path d="M 381.500,378.000 C 377.849,381.878 378.858,382.492 374.500,386.000" stroke-width="3.627" stroke="black" fill="none" stroke-linecap="round"></path><path d="M 374.500,386.000 C 371.457,389.968 371.349,389.878 368.500,394.000" stroke-width="3.567" stroke="black" fill="none" stroke-linecap="round"></path><path d="M 368.500,394.000 C 365.384,397.233 365.957,397.468 363.500,401.000" stroke-width="3.630" stroke="black" fill="none" stroke-linecap="round"></path><path d="M 363.500,401.000 C 361.567,404.134 362.384,403.233 362.500,406.000" stroke-width="4.127" stroke="black" fill="none" stroke-linecap="round"></path><path d="M 362.500,406.000 C 365.175,409.581 363.567,408.134 367.500,409.000" stroke-width="4.835" stroke="black" fill="none" stroke-linecap="round"></path><path d="M 367.500,409.000 C 371.065,406.073 371.175,408.081 374.500,403.000" stroke-width="3.873" stroke="black" fill="none" stroke-linecap="round"></path><path d="M 374.500,403.000 C 380.646,397.652 380.565,397.573 386.500,392.000" stroke-width="3.180" stroke="black" fill="none" stroke-linecap="round"></path><path d="M 386.500,392.000 C 395.000,383.500 395.146,383.652 403.500,375.000" stroke-width="2.597" stroke="black" fill="none" stroke-linecap="round"></path><path d="M 403.500,375.000 C 413.000,365.500 413.000,365.500 422.500,356.000" stroke-width="2.290" stroke="black" fill="none" stroke-linecap="round"></path><path d="M 422.500,356.000 C 433.383,345.857 433.000,345.500 443.500,335.000" stroke-width="2.170" stroke="black" fill="none" stroke-linecap="round"></path><path d="M 443.500,335.000 C 453.539,323.534 453.883,323.857 463.500,312.000" stroke-width="2.112" stroke="black" fill="none" stroke-linecap="round"></path><path d="M 463.500,312.000 C 472.964,301.864 472.539,301.534 481.500,291.000" stroke-width="2.133" stroke="black" fill="none" stroke-linecap="round"></path><path d="M 481.500,291.000 C 489.101,280.570 489.464,280.864 496.500,270.000" stroke-width="2.202" stroke="black" fill="none" stroke-linecap="round"></path><path d="M 496.500,270.000 C 503.779,260.958 503.101,260.570 509.500,251.000" stroke-width="2.476" stroke="black" fill="none" stroke-linecap="round"></path><path d="M 509.500,251.000 C 516.949,237.193 517.279,237.458 523.500,223.000" stroke-width="2.045" stroke="black" fill="none" stroke-linecap="round"></path><path d="M 523.500,223.000 C 526.020,217.625 525.949,217.693 527.500,212.000" stroke-width="2.802" stroke="black" fill="none" stroke-linecap="round"></path><path d="M 527.500,212.000 C 529.615,207.344 528.520,208.125 528.500,204.000" stroke-width="3.399" stroke="black" fill="none" stroke-linecap="round"></path><path d="M 528.500,204.000 C 526.351,200.190 527.615,201.344 523.500,200.000" stroke-width="4.222" stroke="black" fill="none" stroke-linecap="round"></path><path d="M 523.500,200.000 C 517.838,200.289 518.851,199.690 513.500,203.000" stroke-width="3.614" stroke="black" fill="none" stroke-linecap="round"></path><path d="M 513.500,203.000 C 506.330,208.811 505.838,207.789 499.500,215.000" stroke-width="2.986" stroke="black" fill="none" stroke-linecap="round"></path><path d="M 499.500,215.000 C 490.366,223.362 490.330,223.311 481.500,232.000" stroke-width="2.462" stroke="black" fill="none" stroke-linecap="round"></path><path d="M 481.500,232.000 C 470.395,241.954 470.866,242.362 460.500,253.000" stroke-width="2.157" stroke="black" fill="none" stroke-linecap="round"></path><path d="M 460.500,253.000 C 449.152,266.231 448.895,265.954 438.500,280.000" stroke-width="1.871" stroke="black" fill="none" stroke-linecap="round"></path><path d="M 438.500,280.000 C 428.986,292.990 428.652,292.731 419.500,306.000" stroke-width="1.921" stroke="black" fill="none" stroke-linecap="round"></path><path d="M 419.500,306.000 C 411.354,316.897 411.486,316.990 403.500,328.000" stroke-width="2.085" stroke="black" fill="none" stroke-linecap="round"></path><path d="M 403.500,328.000 C 397.081,337.557 396.854,337.397 390.500,347.000" stroke-width="2.235" stroke="black" fill="none" stroke-linecap="round"></path><path d="M 390.500,347.000 C 385.268,353.848 385.581,354.057 380.500,361.000" stroke-width="2.600" stroke="black" fill="none" stroke-linecap="round"></path><path d="M 380.500,361.000 C 376.963,365.767 377.268,365.848 374.500,371.000" stroke-width="3.025" stroke="black" fill="none" stroke-linecap="round"></path><path d="M 374.500,371.000 C 373.382,374.471 372.963,374.267 372.500,378.000" stroke-width="3.611" stroke="black" fill="none" stroke-linecap="round"></path><path d="M 372.500,378.000 C 370.091,383.000 371.882,380.471 371.500,383.000" stroke-width="4.046" stroke="black" fill="none" stroke-linecap="round"></path><path d="M 371.500,383.000 C 376.737,380.899 374.591,383.000 381.500,378.000" stroke-width="4.824" stroke="black" fill="none" stroke-linecap="round"></path><path d="M 381.500,378.000 C 387.860,373.284 388.237,373.899 394.500,369.000" stroke-width="3.307" stroke="black" fill="none" stroke-linecap="round"></path><path d="M 394.500,369.000 C 403.288,363.118 403.360,363.284 412.500,358.000" stroke-width="2.706" stroke="black" fill="none" stroke-linecap="round"></path><path d="M 412.500,358.000 C 421.450,353.396 421.288,353.118 430.500,349.000" stroke-width="2.613" stroke="black" fill="none" stroke-linecap="round"></path><path d="M 430.500,349.000 C 438.812,344.530 438.950,344.896 447.500,341.000" stroke-width="2.654" stroke="black" fill="none" stroke-linecap="round"></path><path d="M 447.500,341.000 C 454.836,337.788 454.812,338.030 462.500,336.000" stroke-width="2.831" stroke="black" fill="none" stroke-linecap="round"></path><path d="M 462.500,336.000 C 469.968,334.519 469.836,334.288 477.500,334.000" stroke-width="2.931" stroke="black" fill="none" stroke-linecap="round"></path><path d="M 477.500,334.000 C 484.500,334.000 484.468,333.519 491.500,334.000" stroke-width="3.090" stroke="black" fill="none" stroke-linecap="round"></path><path d="M 491.500,334.000 C 498.014,333.718 498.000,334.000 504.500,334.000" stroke-width="3.158" stroke="black" fill="none" stroke-linecap="round"></path><path d="M 504.500,334.000 C 509.702,333.801 509.514,334.218 514.500,335.000" stroke-width="3.413" stroke="black" fill="none" stroke-linecap="round"></path><path d="M 514.500,335.000 C 518.511,335.727 517.702,335.801 520.500,338.000" stroke-width="3.825" stroke="black" fill="none" stroke-linecap="round"></path><path d="M 520.500,338.000 C 521.331,340.467 522.011,339.727 521.500,343.000" stroke-width="4.163" stroke="black" fill="none" stroke-linecap="round"></path><path d="M 521.500,343.000 C 524.128,348.965 521.831,347.967 521.500,353.000" stroke-width="3.817" stroke="black" fill="none" stroke-linecap="round"></path><path d="M 521.500,353.000 C 508.299,370.276 510.128,370.465 493.500,386.000" stroke-width="1.924" stroke="black" fill="none" stroke-linecap="round"></path><path d="M 493.500,386.000 C 483.922,395.517 484.299,395.776 473.500,404.000" stroke-width="2.095" stroke="black" fill="none" stroke-linecap="round"></path><path d="M 473.500,404.000 C 461.995,412.494 462.422,413.017 450.500,421.000" stroke-width="2.040" stroke="black" fill="none" stroke-linecap="round"></path><path d="M 450.500,421.000 C 437.631,431.985 436.995,430.994 423.500,441.000" stroke-width="1.933" stroke="black" fill="none" stroke-linecap="round"></path><path d="M 423.500,441.000 C 408.253,449.998 408.631,450.485 392.500,458.000" stroke-width="1.857" stroke="black" fill="none" stroke-linecap="round"></path><path d="M 392.500,458.000 C 376.802,466.228 376.753,465.998 360.500,473.000" stroke-width="1.783" stroke="black" fill="none" stroke-linecap="round"></path><path d="M 360.500,473.000 C 344.333,480.190 344.302,479.728 327.500,485.000" stroke-width="1.819" stroke="black" fill="none" stroke-linecap="round"></path><path d="M 327.500,485.000 C 312.630,488.983 312.833,489.190 297.500,491.000" stroke-width="1.948" stroke="black" fill="none" stroke-linecap="round"></path><path d="M 297.500,491.000 C 282.516,492.491 282.630,492.983 267.500,493.000" stroke-width="1.952" stroke="black" fill="none" stroke-linecap="round"></path><path d="M 267.500,493.000 C 252.822,494.562 253.016,493.491 238.500,493.000" stroke-width="2.039" stroke="black" fill="none" stroke-linecap="round"></path><path d="M 238.500,493.000 C 225.101,491.200 225.322,491.562 212.500,487.000" stroke-width="2.087" stroke="black" fill="none" stroke-linecap="round"></path><path d="M 212.500,487.000 C 199.641,482.200 199.601,482.700 187.500,476.000" stroke-width="2.136" stroke="black" fill="none" stroke-linecap="round"></path><path d="M 187.500,476.000 C 175.833,470.418 176.141,470.200 165.500,463.000" stroke-width="2.157" stroke="black" fill="none" stroke-linecap="round"></path><path d="M 165.500,463.000 C 156.061,456.343 156.333,456.418 148.500,448.000" stroke-width="2.379" stroke="black" fill="none" stroke-linecap="round"></path><path d="M 148.500,448.000 C 141.208,440.154 141.561,440.343 136.500,431.000" stroke-width="2.482" stroke="black" fill="none" stroke-linecap="round"></path><path d="M 136.500,431.000 C 132.248,422.237 132.208,422.654 130.500,413.000" stroke-width="2.603" stroke="black" fill="none" stroke-linecap="round"></path><path d="M 130.500,413.000 C 128.145,403.262 128.748,403.737 129.500,394.000" stroke-width="2.579" stroke="black" fill="none" stroke-linecap="round"></path><path d="M 129.500,394.000 C 131.072,382.022 131.145,382.762 136.500,372.000" stroke-width="2.379" stroke="black" fill="none" stroke-linecap="round"></path><path d="M 136.500,372.000 C 144.536,357.649 144.072,358.022 155.500,346.000" stroke-width="1.996" stroke="black" fill="none" stroke-linecap="round"></path><path d="M 155.500,346.000 C 169.017,332.157 168.536,332.149 184.500,321.000" stroke-width="1.802" stroke="black" fill="none" stroke-linecap="round"></path><path d="M 184.500,321.000 C 203.343,307.782 203.017,307.657 223.500,297.000" stroke-width="1.597" stroke="black" fill="none" stroke-linecap="round"></path><path d="M 223.500,297.000 C 246.736,285.397 246.343,284.782 270.500,275.000" stroke-width="1.445" stroke="black" fill="none" stroke-linecap="round"></path><path d="M 270.500,275.000 C 294.818,264.530 294.736,264.397 319.500,255.000" stroke-width="1.345" stroke="black" fill="none" stroke-linecap="round"></path><path d="M 319.500,255.000 C 345.101,244.219 345.318,245.030 371.500,236.000" stroke-width="1.369" stroke="black" fill="none" stroke-linecap="round"></path><path d="M 371.500,236.000 C 398.299,228.101 398.101,227.719 425.500,222.000" stroke-width="1.286" stroke="black" fill="none" stroke-linecap="round"></path><path d="M 425.500,222.000 C 451.794,215.205 451.799,216.101 478.500,212.000" stroke-width="1.287" stroke="black" fill="none" stroke-linecap="round"></path><path d="M 478.500,212.000 C 502.142,208.847 501.794,209.205 525.500,210.000" stroke-width="1.425" stroke="black" fill="none" stroke-linecap="round"></path><path d="M 525.500,210.000 C 543.301,210.804 542.642,210.847 559.500,216.000" stroke-width="1.701" stroke="black" fill="none" stroke-linecap="round"></path><path d="M 559.500,216.000 C 571.260,219.481 569.801,219.304 578.500,227.000" stroke-width="2.121" stroke="black" fill="none" stroke-linecap="round"></path><path d="M 578.500,227.000 C 584.273,234.654 584.260,232.981 585.500,243.000" stroke-width="2.540" stroke="black" fill="none" stroke-linecap="round"></path><path d="M 585.500,243.000 C 587.600,253.359 586.773,251.654 583.500,261.000" stroke-width="2.608" stroke="black" fill="none" stroke-linecap="round"></path><path d="M 583.500,261.000 C 574.459,273.479 576.600,273.859 563.500,284.000" stroke-width="2.162" stroke="black" fill="none" stroke-linecap="round"></path><path d="M 563.500,284.000 C 549.075,297.259 549.459,297.479 533.500,309.000" stroke-width="1.821" stroke="black" fill="none" stroke-linecap="round"></path><path d="M 533.500,309.000 C 516.888,322.563 516.575,321.759 498.500,333.000" stroke-width="1.667" stroke="black" fill="none" stroke-linecap="round"></path><path d="M 498.500,333.000 C 479.514,343.340 479.888,343.563 459.500,351.000" stroke-width="1.566" stroke="black" fill="none" stroke-linecap="round"></path><path d="M 459.500,351.000 C 438.828,358.852 439.014,358.840 417.500,364.000" stroke-width="1.568" stroke="black" fill="none" stroke-linecap="round"></path><path d="M 417.500,364.000 C 395.154,369.514 395.328,369.352 372.500,372.000" stroke-width="1.490" stroke="black" fill="none" stroke-linecap="round"></path><path d="M 372.500,372.000 C 353.840,374.369 354.154,374.014 335.500,373.000" stroke-width="1.676" stroke="black" fill="none" stroke-linecap="round"></path><path d="M 335.500,373.000 C 319.559,372.272 320.340,371.869 305.500,367.000" stroke-width="1.896" stroke="black" fill="none" stroke-linecap="round"></path><path d="M 305.500,367.000 C 294.780,362.560 295.559,363.272 287.500,355.000" stroke-width="2.218" stroke="black" fill="none" stroke-linecap="round"></path><path d="M 287.500,355.000 C 282.228,347.880 281.780,349.060 279.500,340.000" stroke-width="2.603" stroke="black" fill="none" stroke-linecap="round"></path><path d="M 279.500,340.000 C 278.730,334.512 277.728,334.880 278.500,329.000" stroke-width="3.164" stroke="black" fill="none" stroke-linecap="round"></path><path d="M 553.500,395.000 C 558.539,399.808 559.000,398.000 564.500,401.000" stroke-width="5.029" stroke="black" fill="none" stroke-linecap="round"></path><path d="M 564.500,401.000 C 574.151,402.275 573.539,402.808 583.500,401.000" stroke-width="3.013" stroke="black" fill="none" stroke-linecap="round"></path><path d="M 583.500,401.000 C 596.130,398.464 596.151,399.275 608.500,395.000" stroke-width="2.426" stroke="black" fill="none" stroke-linecap="round"></path><path d="M 608.500,395.000 C 620.973,390.915 621.130,391.464 633.500,387.000" stroke-width="2.271" stroke="black" fill="none" stroke-linecap="round"></path><path d="M 633.500,387.000 C 645.046,383.644 644.973,383.415 656.500,380.000" stroke-width="2.255" stroke="black" fill="none" stroke-linecap="round"></path><path d="M 656.500,380.000 C 666.972,376.414 667.046,376.644 677.500,373.000" stroke-width="2.436" stroke="black" fill="none" stroke-linecap="round"></path><path d="M 677.500,373.000 C 685.518,370.554 685.472,370.414 693.500,368.000" stroke-width="2.646" stroke="black" fill="none" stroke-linecap="round"></path><path d="M 693.500,368.000 C 703.931,365.358 698.018,366.554 702.500,365.000" stroke-width="3.254" stroke="black" fill="none" stroke-linecap="round"></path><path d="M 702.500,365.000 C 693.691,364.060 699.931,364.358 685.500,366.000" stroke-width="3.848" stroke="black" fill="none" stroke-linecap="round"></path><path d="M 685.500,366.000 C 675.109,370.310 674.691,368.560 664.500,374.000" stroke-width="2.725" stroke="black" fill="none" stroke-linecap="round"></path><path d="M 664.500,374.000 C 651.950,377.850 652.109,378.310 639.500,382.000" stroke-width="2.280" stroke="black" fill="none" stroke-linecap="round"></path><path d="M 639.500,382.000 C 626.376,386.171 626.450,386.350 613.500,391.000" stroke-width="2.186" stroke="black" fill="none" stroke-linecap="round"></path><path d="M 613.500,391.000 C 602.406,395.284 602.376,395.171 591.500,400.000" stroke-width="2.295" stroke="black" fill="none" stroke-linecap="round"></path><path d="M 591.500,400.000 C 584.128,403.822 583.906,403.284 576.500,407.000" stroke-width="2.657" stroke="black" fill="none" stroke-linecap="round"></path><path d="M 576.500,407.000 C 568.801,408.699 572.128,408.822 567.500,410.000" stroke-width="3.214" stroke="black" fill="none" stroke-linecap="round"></path><path d="M 567.500,410.000 C 570.004,411.312 566.801,410.699 572.500,411.000" stroke-width="4.376" stroke="black" fill="none" stroke-linecap="round"></path><path d="M 572.500,411.000 C 582.206,409.720 582.004,409.812 591.500,407.000" stroke-width="2.907" stroke="black" fill="none" stroke-linecap="round"></path><path d="M 591.500,407.000 C 602.521,403.057 602.706,403.720 613.500,399.000" stroke-width="2.506" stroke="black" fill="none" stroke-linecap="round"></path><path d="M 613.500,399.000 C 625.479,394.443 625.521,394.557 637.500,390.000" stroke-width="2.373" stroke="black" fill="none" stroke-linecap="round"></path><path d="M 637.500,390.000 C 648.484,385.955 648.479,385.943 659.500,382.000" stroke-width="2.368" stroke="black" fill="none" stroke-linecap="round"></path><path d="M 659.500,382.000 C 668.019,379.053 667.984,378.955 676.500,376.000" stroke-width="2.555" stroke="black" fill="none" stroke-linecap="round"></path><path d="M 676.500,376.000 C 686.041,371.879 680.519,374.553 684.500,373.000" stroke-width="3.285" stroke="black" fill="none" stroke-linecap="round"></path><path d="M 684.500,373.000 C 674.935,378.390 680.541,375.879 665.500,384.000" stroke-width="3.520" stroke="black" fill="none" stroke-linecap="round"></path><path d="M 665.500,384.000 C 656.076,388.913 656.435,389.390 647.500,395.000" stroke-width="2.747" stroke="black" fill="none" stroke-linecap="round"></path><path d="M 647.500,395.000 C 640.670,400.173 640.576,399.913 634.500,406.000" stroke-width="2.731" stroke="black" fill="none" stroke-linecap="round"></path><path d="M 634.500,406.000 C 628.132,410.436 631.670,408.673 629.500,412.000" stroke-width="3.431" stroke="black" fill="none" stroke-linecap="round"></path><path d="M 629.500,412.000 C 635.566,414.659 631.632,414.436 641.500,414.000" stroke-width="3.880" stroke="black" fill="none" stroke-linecap="round"></path><path d="M 641.500,414.000 C 653.882,412.135 653.566,412.659 665.500,408.000" stroke-width="2.612" stroke="black" fill="none" stroke-linecap="round"></path><path d="M 665.500,408.000 C 682.812,400.027 683.382,401.635 700.500,393.000" stroke-width="1.930" stroke="black" fill="none" stroke-linecap="round"></path><path d="M 700.500,393.000 C 719.376,385.640 719.312,385.527 738.500,379.000" stroke-width="1.786" stroke="black" fill="none" stroke-linecap="round"></path><path d="M 738.500,379.000 C 755.351,372.979 755.376,373.140 772.500,368.000" stroke-width="1.805" stroke="black" fill="none" stroke-linecap="round"></path><path d="M 772.500,368.000 C 786.349,363.516 786.351,363.979 800.500,361.000" stroke-width="1.992" stroke="black" fill="none" stroke-linecap="round"></path><path d="M 800.500,361.000 C 817.297,356.339 808.849,359.516 817.500,360.000" stroke-width="2.454" stroke="black" fill="none" stroke-linecap="round"></path><path d="M 817.500,360.000 C 810.126,370.112 817.797,365.339 801.500,379.000" stroke-width="3.215" stroke="black" fill="none" stroke-linecap="round"></path><path d="M 801.500,379.000 C 792.493,386.007 793.626,387.112 784.500,394.000" stroke-width="2.606" stroke="black" fill="none" stroke-linecap="round"></path><path d="M 784.500,394.000 C 772.860,402.018 778.993,399.507 774.500,406.000" stroke-width="2.770" stroke="black" fill="none" stroke-linecap="round"></path><path d="M 774.500,406.000 C 783.022,412.060 776.360,410.518 791.500,411.000" stroke-width="3.360" stroke="black" fill="none" stroke-linecap="round"></path><path d="M 791.500,411.000 C 810.990,404.968 811.022,408.560 830.500,399.000" stroke-width="1.951" stroke="black" fill="none" stroke-linecap="round"></path><path d="M 830.500,399.000 C 853.589,392.278 853.490,391.968 876.500,385.000" stroke-width="1.533" stroke="black" fill="none" stroke-linecap="round"></path><path d="M 876.500,385.000 C 895.872,378.082 896.089,378.778 915.500,372.000" stroke-width="1.610" stroke="black" fill="none" stroke-linecap="round"></path><path d="M 915.500,372.000 C 931.420,367.181 931.372,367.082 947.500,363.000" stroke-width="1.805" stroke="black" fill="none" stroke-linecap="round"></path><path d="M 947.500,363.000 C 956.491,360.958 956.420,360.681 965.500,359.000" stroke-width="2.304" stroke="black" fill="none" stroke-linecap="round"></path><path d="M 965.500,359.000 C 971.073,357.809 967.991,358.458 970.500,358.000" stroke-width="3.425" stroke="black" fill="none" stroke-linecap="round"></path><path d="M 970.500,358.000 C 966.452,358.829 969.573,358.309 962.500,360.000" stroke-width="4.229" stroke="black" fill="none" stroke-linecap="round"></path><path d="M 962.500,360.000 C 952.996,362.989 952.952,362.829 943.500,366.000" stroke-width="2.930" stroke="black" fill="none" stroke-linecap="round"></path><path d="M 943.500,366.000 C 932.679,370.205 932.496,369.489 921.500,373.000" stroke-width="2.526" stroke="black" fill="none" stroke-linecap="round"></path><path d="M 921.500,373.000 C 908.595,376.162 908.679,376.205 895.500,378.000" stroke-width="2.346" stroke="black" fill="none" stroke-linecap="round"></path><path d="M 895.500,378.000 C 880.027,379.858 880.095,380.162 864.500,381.000" stroke-width="2.082" stroke="black" fill="none" stroke-linecap="round"></path><path d="M 864.500,381.000 C 846.004,382.086 846.027,382.358 827.500,383.000" stroke-width="1.853" stroke="black" fill="none" stroke-linecap="round"></path><path d="M 827.500,383.000 C 805.512,384.516 805.504,384.086 783.500,385.000" stroke-width="1.643" stroke="black" fill="none" stroke-linecap="round"></path><path d="M 783.500,385.000 C 759.998,384.758 760.012,385.516 736.500,385.000" stroke-width="1.487" stroke="black" fill="none" stroke-linecap="round"></path><path d="M 736.500,385.000 C 711.503,385.752 711.498,385.258 686.500,386.000" stroke-width="1.488" stroke="black" fill="none" stroke-linecap="round"></path><path d="M 686.500,386.000 C 660.997,385.742 661.003,386.252 635.500,386.000" stroke-width="1.430" stroke="black" fill="none" stroke-linecap="round"></path><path d="M 635.500,386.000 C 611.454,385.684 611.497,386.242 587.500,387.000" stroke-width="1.501" stroke="black" fill="none" stroke-linecap="round"></path><path d="M 587.500,387.000 C 565.808,387.705 565.954,388.184 544.500,391.000" stroke-width="1.605" stroke="black" fill="none" stroke-linecap="round"></path><path d="M 544.500,391.000 C 517.438,396.228 517.308,395.205 490.500,402.000" stroke-width="1.488" stroke="black" fill="none" stroke-linecap="round"></path></svg>