<svg xmlns="http://www.w3.org/2000/svg" xmlns:xlink="http://www.w3.org/1999/xlink" viewBox="0 0 1460 576" width="1460" height="576"><path d="M 543.000,336.000 C 537.940,329.792 539.500,329.500 536.000,323.000" stroke-width="4.628" stroke="black" fill="none" stroke-linecap="round"></path><path d="M 536.000,323.000 C 535.614,318.742 534.940,319.292 537.000,315.000" stroke-width="4.028" stroke="black" fill="none" stroke-linecap="round"></path><path d="M 537.000,315.000 C 540.748,305.046 540.614,305.242 546.000,296.000" stroke-width="2.759" stroke="black" fill="none" stroke-linecap="round"></path><path d="M 546.000,296.000 C 549.138,288.474 549.748,289.546 555.000,284.000" stroke-width="2.916" stroke="black" fill="none" stroke-linecap="round"></path><path d="M 555.000,284.000 C 568.397,272.693 568.138,273.974 584.000,267.000" stroke-width="2.112" stroke="black" fill="none" stroke-linecap="round"></path><path d="M 584.000,267.000 C 606.370,260.339 605.397,259.193 629.000,257.000" stroke-width="2.298" stroke="black" fill="none" stroke-linecap="round"></path><path d="M 629.000,257.000 C 637.112,256.924 636.870,255.839 645.000,258.000" stroke-width="2.577" stroke="black" fill="none" stroke-linecap="round"></path><path d="M 645.000,258.000 C 650.698,257.100 648.112,258.424 651.000,260.000" stroke-width="3.483" stroke="black" fill="none" stroke-linecap="round"></path><path d="M 651.000,260.000 C 655.010,284.394 653.198,281.100 650.000,306.000" stroke-width="2.604" stroke="black" fill="none" stroke-linecap="round"></path><path d="M 650.000,306.000 C 643.343,318.184 647.010,318.894 635.000,329.000" stroke-width="2.269" stroke="black" fill="none" stroke-linecap="round"></path><path d="M 635.000,329.000 C 629.581,335.735 629.843,335.684 623.000,341.000" stroke-width="2.626" stroke="black" fill="none" stroke-linecap="round"></path><path d="M 623.000,341.000 C 609.351,349.866 617.081,345.735 610.000,349.000" stroke-width="3.375" stroke="black" fill="none" stroke-linecap="round"></path><path d="M 610.000,349.000 C 618.157,343.201 610.851,347.866 626.000,337.000" stroke-width="3.629" stroke="black" fill="none" stroke-linecap="round"></path><path d="M 626.000,337.000 C 637.578,322.711 639.657,326.201 653.000,315.000" stroke-width="2.092" stroke="black" fill="none" stroke-linecap="round"></path><path d="M 653.000,315.000 C 691.701,296.400 690.578,296.211 732.000,284.000" stroke-width="1.337" stroke="black" fill="none" stroke-linecap="round"></path><path d="M 732.000,284.000 C 751.054,279.316 750.201,278.400 770.000,279.000" stroke-width="1.969" stroke="black" fill="none" stroke-linecap="round"></path><path d="M 770.000,279.000 C 781.169,280.374 781.054,278.816 792.000,283.000" stroke-width="2.728" stroke="black" fill="none" stroke-linecap="round"></path><path d="M 792.000,283.000 C 797.512,284.967 797.669,284.374 803.000,287.000" stroke-width="3.680" stroke="black" fill="none" stroke-linecap="round"></path></svg>