<svg xmlns="http://www.w3.org/2000/svg" xmlns:xlink="http://www.w3.org/1999/xlink" viewBox="0 0 1460 576" width="1460" height="576"><path d="M 466.000,278.000 C 462.481,278.303 462.500,278.000 459.000,278.000" stroke-width="5.219" stroke="black" fill="none" stroke-linecap="round"></path><path d="M 459.000,278.000 C 450.987,277.089 450.981,277.303 443.000,276.000" stroke-width="3.334" stroke="black" fill="none" stroke-linecap="round"></path><path d="M 443.000,276.000 C 439.874,275.958 439.987,275.589 437.000,275.000" stroke-width="3.775" stroke="black" fill="none" stroke-linecap="round"></path><path d="M 437.000,275.000 C 428.067,271.317 427.874,271.958 419.000,268.000" stroke-width="2.896" stroke="black" fill="none" stroke-linecap="round"></path><path d="M 419.000,268.000 C 407.487,264.036 407.567,263.817 396.000,260.000" stroke-width="2.325" stroke="black" fill="none" stroke-linecap="round"></path><path d="M 396.000,260.000 C 389.009,257.474 388.987,257.536 382.000,255.000" stroke-width="2.709" stroke="black" fill="none" stroke-linecap="round"></path><path d="M 382.000,255.000 C 370.996,253.098 372.009,251.474 362.000,248.000" stroke-width="3.004" stroke="black" fill="none" stroke-linecap="round"></path><path d="M 362.000,248.000 C 356.126,243.600 355.996,244.598 352.000,238.000" stroke-width="3.050" stroke="black" fill="none" stroke-linecap="round"></path><path d="M 352.000,238.000 C 349.474,233.667 349.126,234.100 348.000,229.000" stroke-width="3.340" stroke="black" fill="none" stroke-linecap="round"></path><path d="M 348.000,229.000 C 345.323,223.909 346.474,224.167 346.000,219.000" stroke-width="3.512" stroke="black" fill="none" stroke-linecap="round"></path><path d="M 346.000,219.000 C 347.598,208.805 347.323,209.409 352.000,200.000" stroke-width="2.741" stroke="black" fill="none" stroke-linecap="round"></path><path d="M 352.000,200.000 C 355.322,188.231 356.598,190.805 364.000,183.000" stroke-width="2.527" stroke="black" fill="none" stroke-linecap="round"></path><path d="M 364.000,183.000 C 393.489,165.672 391.822,166.231 425.000,156.000" stroke-width="1.312" stroke="black" fill="none" stroke-linecap="round"></path><path d="M 425.000,156.000 C 444.942,151.866 443.989,150.172 465.000,152.000" stroke-width="1.545" stroke="black" fill="none" stroke-linecap="round"></path><path d="M 465.000,152.000 C 520.274,151.968 519.942,152.366 575.000,157.000" stroke-width="1.363" stroke="black" fill="none" stroke-linecap="round"></path><path d="M 575.000,157.000 C 607.695,160.471 607.274,159.968 639.000,168.000" stroke-width="1.177" stroke="black" fill="none" stroke-linecap="round"></path><path d="M 639.000,168.000 C 649.733,168.914 647.195,169.971 654.000,176.000" stroke-width="1.985" stroke="black" fill="none" stroke-linecap="round"></path><path d="M 654.000,176.000 C 682.966,214.326 676.233,212.914 692.000,256.000" stroke-width="1.667" stroke="black" fill="none" stroke-linecap="round"></path><path d="M 692.000,256.000 C 692.485,288.734 698.466,285.826 685.000,319.000" stroke-width="1.301" stroke="black" fill="none" stroke-linecap="round"></path><path d="M 685.000,319.000 C 678.245,334.765 680.985,335.234 669.000,349.000" stroke-width="1.614" stroke="black" fill="none" stroke-linecap="round"></path><path d="M 669.000,349.000 C 651.418,388.420 646.745,383.265 622.000,416.000" stroke-width="1.125" stroke="black" fill="none" stroke-linecap="round"></path><path d="M 622.000,416.000 C 575.528,454.957 579.418,455.920 525.000,484.000" stroke-width="1.188" stroke="black" fill="none" stroke-linecap="round"></path><path d="M 525.000,484.000 C 510.059,487.207 512.028,491.457 495.000,489.000" stroke-width="1.667" stroke="black" fill="none" stroke-linecap="round"></path><path d="M 495.000,489.000 C 486.279,492.992 489.059,489.707 483.000,489.000" stroke-width="2.550" stroke="black" fill="none" stroke-linecap="round"></path><path d="M 483.000,489.000 C 466.793,472.628 474.779,478.992 472.000,461.000" stroke-width="2.813" stroke="black" fill="none" stroke-linecap="round"></path><path d="M 472.000,461.000 C 489.308,436.989 481.793,439.128 513.000,422.000" stroke-width="1.550" stroke="black" fill="none" stroke-linecap="round"></path><path d="M 513.000,422.000 C 562.110,380.815 562.808,390.489 619.000,368.000" stroke-width="1.125" stroke="black" fill="none" stroke-linecap="round"></path><path d="M 619.000,368.000 C 712.654,357.512 708.610,347.815 806.000,356.000" stroke-width="1.125" stroke="black" fill="none" stroke-linecap="round"></path><path d="M 806.000,356.000 C 835.926,360.689 836.154,355.512 866.000,364.000" stroke-width="1.125" stroke="black" fill="none" stroke-linecap="round"></path><path d="M 866.000,364.000 C 890.611,365.387 890.426,366.689 915.000,368.000" stroke-width="1.704" stroke="black" fill="none" stroke-linecap="round"></path><path d="M 915.000,368.000 C 919.272,367.857 918.611,368.387 922.000,370.000" stroke-width="2.850" stroke="black" fill="none" stroke-linecap="round"></path><path d="M 922.000,370.000 C 931.229,374.383 926.272,373.357 929.000,379.000" stroke-width="3.875" stroke="black" fill="none" stroke-linecap="round"></path><path d="M 929.000,379.000 C 912.499,404.384 917.229,403.383 894.000,428.000" stroke-width="1.426" stroke="black" fill="none" stroke-linecap="round"></path><path d="M 894.000,428.000 C 888.100,433.617 888.999,434.384 882.000,439.000" stroke-width="2.202" stroke="black" fill="none" stroke-linecap="round"></path><path d="M 882.000,439.000 C 876.831,444.184 879.600,441.117 877.000,443.000" stroke-width="3.221" stroke="black" fill="none" stroke-linecap="round"></path><path d="M 877.000,443.000 C 878.574,436.299 877.331,440.684 883.000,432.000" stroke-width="4.057" stroke="black" fill="none" stroke-linecap="round"></path><path d="M 883.000,432.000 C 896.057,418.204 896.074,419.299 912.000,409.000" stroke-width="2.131" stroke="black" fill="none" stroke-linecap="round"></path><path d="M 912.000,409.000 C 945.894,392.278 944.557,390.204 980.000,376.000" stroke-width="1.172" stroke="black" fill="none" stroke-linecap="round"></path><path d="M 980.000,376.000 C 1011.620,360.078 1011.894,360.778 1044.000,346.000" stroke-width="1.125" stroke="black" fill="none" stroke-linecap="round"></path><path d="M 1044.000,346.000 C 1057.875,340.612 1057.620,340.078 1072.000,336.000" stroke-width="1.610" stroke="black" fill="none" stroke-linecap="round"></path><path d="M 1072.000,336.000 C 1082.409,332.353 1082.375,332.612 1093.000,330.000" stroke-width="2.510" stroke="black" fill="none" stroke-linecap="round"></path></svg>