<svg xmlns="http://www.w3.org/2000/svg" xmlns:xlink="http://www.w3.org/1999/xlink" viewBox="0 0 453 236" width="453" height="236"><path d="M 127.500,118.000 C 124.019,118.765 124.000,118.500 120.500,119.000" stroke-width="4.928" stroke="black" fill="none" stroke-linecap="round"></path><path d="M 120.500,119.000 C 116.439,119.492 116.519,119.265 112.500,119.000" stroke-width="4.678" stroke="black" fill="none" stroke-linecap="round"></path><path d="M 112.500,119.000 C 108.432,118.210 108.439,118.492 104.500,117.000" stroke-width="4.571" stroke="black" fill="none" stroke-linecap="round"></path><path d="M 104.500,117.000 C 102.068,115.790 101.932,116.210 99.500,115.000" stroke-width="4.311" stroke="black" fill="none" stroke-linecap="round"></path><path d="M 99.500,115.000 C 95.432,114.210 95.568,113.790 91.500,113.000" stroke-width="4.477" stroke="black" fill="none" stroke-linecap="round"></path><path d="M 91.500,113.000 C 85.920,111.967 88.932,112.210 86.500,111.000" stroke-width="4.722" stroke="black" fill="none" stroke-linecap="round"></path><path d="M 86.500,111.000 C 90.535,109.586 87.420,109.467 94.500,108.000" stroke-width="5.095" stroke="black" fill="none" stroke-linecap="round"></path><path d="M 94.500,108.000 C 98.098,106.701 98.035,106.586 101.500,105.000" stroke-width="4.123" stroke="black" fill="none" stroke-linecap="round"></path><path d="M 101.500,105.000 C 106.153,102.745 106.098,102.701 110.500,100.000" stroke-width="3.606" stroke="black" fill="none" stroke-linecap="round"></path><path d="M 110.500,100.000 C 115.588,96.619 115.653,96.745 120.500,93.000" stroke-width="3.424" stroke="black" fill="none" stroke-linecap="round"></path><path d="M 120.500,93.000 C 125.026,89.532 125.088,89.619 129.500,86.000" stroke-width="3.534" stroke="black" fill="none" stroke-linecap="round"></path><path d="M 129.500,86.000 C 134.474,81.968 134.526,82.032 139.500,78.000" stroke-width="3.299" stroke="black" fill="none" stroke-linecap="round"></path><path d="M 139.500,78.000 C 143.972,74.463 143.974,74.468 148.500,71.000" stroke-width="3.289" stroke="black" fill="none" stroke-linecap="round"></path><path d="M 148.500,71.000 C 152.312,67.710 152.472,67.963 156.500,65.000" stroke-width="3.408" stroke="black" fill="none" stroke-linecap="round"></path><path d="M 156.500,65.000 C 161.013,62.524 160.812,62.210 165.500,60.000" stroke-width="3.418" stroke="black" fill="none" stroke-linecap="round"></path><path d="M 165.500,60.000 C 168.857,57.681 169.013,58.024 172.500,56.000" stroke-width="3.637" stroke="black" fill="none" stroke-linecap="round"></path><path d="M 172.500,56.000 C 175.500,55.000 175.357,54.681 178.500,54.000" stroke-width="3.949" stroke="black" fill="none" stroke-linecap="round"></path><path d="M 178.500,54.000 C 186.261,51.000 183.000,52.500 187.500,51.000" stroke-width="4.234" stroke="black" fill="none" stroke-linecap="round"></path><path d="M 187.500,51.000 C 184.827,52.255 188.261,51.000 182.500,54.000" stroke-width="4.738" stroke="black" fill="none" stroke-linecap="round"></path><path d="M 182.500,54.000 C 177.000,58.500 176.827,58.255 171.500,63.000" stroke-width="3.352" stroke="black" fill="none" stroke-linecap="round"></path><path d="M 171.500,63.000 C 165.752,67.226 166.000,67.500 160.500,72.000" stroke-width="3.082" stroke="black" fill="none" stroke-linecap="round"></path><path d="M 160.500,72.000 C 155.000,77.500 154.752,77.226 149.500,83.000" stroke-width="2.979" stroke="black" fill="none" stroke-linecap="round"></path><path d="M 149.500,83.000 C 143.500,89.000 143.500,89.000 137.500,95.000" stroke-width="2.800" stroke="black" fill="none" stroke-linecap="round"></path><path d="M 137.500,95.000 C 131.500,101.000 131.500,101.000 125.500,107.000" stroke-width="2.810" stroke="black" fill="none" stroke-linecap="round"></path><path d="M 125.500,107.000 C 119.625,113.130 119.500,113.000 113.500,119.000" stroke-width="2.814" stroke="black" fill="none" stroke-linecap="round"></path><path d="M 113.500,119.000 C 107.511,124.512 107.625,124.630 101.500,130.000" stroke-width="2.796" stroke="black" fill="none" stroke-linecap="round"></path><path d="M 101.500,130.000 C 96.025,135.028 96.011,135.012 90.500,140.000" stroke-width="3.475" stroke="black" fill="none" stroke-linecap="round"></path><path d="M 90.500,140.000 C 86.123,144.148 86.025,144.028 81.500,148.000" stroke-width="3.285" stroke="black" fill="none" stroke-linecap="round"></path><path d="M 81.500,148.000 C 77.060,151.580 77.123,151.648 72.500,155.000" stroke-width="3.285" stroke="black" fill="none" stroke-linecap="round"></path><path d="M 72.500,155.000 C 69.177,157.794 69.060,157.580 65.500,160.000" stroke-width="3.587" stroke="black" fill="none" stroke-linecap="round"></path><path d="M 65.500,160.000 C 61.662,162.439 61.677,162.294 57.500,164.000" stroke-width="3.656" stroke="black" fill="none" stroke-linecap="round"></path><path d="M 57.500,164.000 C 53.462,164.868 53.662,165.439 49.500,166.000" stroke-width="3.695" stroke="black" fill="none" stroke-linecap="round"></path><path d="M 49.500,166.000 C 46.579,167.487 46.462,166.868 43.500,168.000" stroke-width="4.082" stroke="black" fill="none" stroke-linecap="round"></path><path d="M 43.500,168.000 C 40.500,168.000 40.579,168.487 37.500,168.000" stroke-width="4.088" stroke="black" fill="none" stroke-linecap="round"></path><path d="M 37.500,168.000 C 30.894,170.091 33.500,168.000 29.500,168.000" stroke-width="4.419" stroke="black" fill="none" stroke-linecap="round"></path><path d="M 29.500,168.000 C 29.410,162.948 27.894,165.591 31.500,159.000" stroke-width="4.423" stroke="black" fill="none" stroke-linecap="round"></path><path d="M 31.500,159.000 C 34.867,154.875 33.910,154.448 38.500,151.000" stroke-width="3.637" stroke="black" fill="none" stroke-linecap="round"></path><path d="M 38.500,151.000 C 42.266,146.735 42.367,146.875 46.500,143.000" stroke-width="4.007" stroke="black" fill="none" stroke-linecap="round"></path><path d="M 46.500,143.000 C 50.835,139.266 50.766,139.235 55.500,136.000" stroke-width="3.595" stroke="black" fill="none" stroke-linecap="round"></path><path d="M 55.500,136.000 C 60.685,131.907 60.835,132.266 66.500,129.000" stroke-width="3.355" stroke="black" fill="none" stroke-linecap="round"></path><path d="M 66.500,129.000 C 77.723,123.138 77.685,123.407 89.500,119.000" stroke-width="2.445" stroke="black" fill="none" stroke-linecap="round"></path><path d="M 89.500,119.000 C 96.512,117.553 96.223,116.638 103.500,116.000" stroke-width="2.790" stroke="black" fill="none" stroke-linecap="round"></path><path d="M 103.500,116.000 C 110.000,114.500 110.012,114.553 116.500,113.000" stroke-width="2.978" stroke="black" fill="none" stroke-linecap="round"></path><path d="M 116.500,113.000 C 122.971,111.360 123.000,111.500 129.500,110.000" stroke-width="3.040" stroke="black" fill="none" stroke-linecap="round"></path><path d="M 129.500,110.000 C 135.054,109.238 134.971,108.860 140.500,108.000" stroke-width="3.225" stroke="black" fill="none" stroke-linecap="round"></path><path d="M 140.500,108.000 C 145.957,106.320 146.054,106.738 151.500,105.000" stroke-width="3.266" stroke="black" fill="none" stroke-linecap="round"></path><path d="M 151.500,105.000 C 156.524,104.106 156.457,103.820 161.500,103.000" stroke-width="3.383" stroke="black" fill="none" stroke-linecap="round"></path><path d="M 161.500,103.000 C 165.571,102.228 165.524,102.106 169.500,101.000" stroke-width="3.656" stroke="black" fill="none" stroke-linecap="round"></path><path d="M 169.500,101.000 C 177.960,98.919 173.571,99.728 177.500,98.000" stroke-width="4.189" stroke="black" fill="none" stroke-linecap="round"></path><path d="M 177.500,98.000 C 172.489,97.000 176.960,96.919 167.500,97.000" stroke-width="4.737" stroke="black" fill="none" stroke-linecap="round"></path><path d="M 167.500,97.000 C 163.870,97.037 163.989,97.000 160.500,98.000" stroke-width="4.175" stroke="black" fill="none" stroke-linecap="round"></path><path d="M 160.500,98.000 C 156.949,99.390 156.870,99.037 153.500,101.000" stroke-width="3.967" stroke="black" fill="none" stroke-linecap="round"></path><path d="M 153.500,101.000 C 149.444,102.896 149.449,102.890 145.500,105.000" stroke-width="3.766" stroke="black" fill="none" stroke-linecap="round"></path><path d="M 145.500,105.000 C 141.802,106.714 141.944,106.896 138.500,109.000" stroke-width="3.801" stroke="black" fill="none" stroke-linecap="round"></path><path d="M 138.500,109.000 C 135.250,111.250 135.302,111.214 132.500,114.000" stroke-width="3.838" stroke="black" fill="none" stroke-linecap="round"></path><path d="M 132.500,114.000 C 129.790,116.851 129.750,116.750 127.500,120.000" stroke-width="3.849" stroke="black" fill="none" stroke-linecap="round"></path><path d="M 127.500,120.000 C 125.800,122.401 125.790,122.351 124.500,125.000" stroke-width="4.037" stroke="black" fill="none" stroke-linecap="round"></path><path d="M 124.500,125.000 C 121.373,128.309 123.300,127.401 122.500,130.000" stroke-width="4.237" stroke="black" fill="none" stroke-linecap="round"></path><path d="M 122.500,130.000 C 126.276,133.255 124.373,132.809 130.500,134.000" stroke-width="4.709" stroke="black" fill="none" stroke-linecap="round"></path><path d="M 130.500,134.000 C 135.189,134.198 134.776,134.755 139.500,133.000" stroke-width="3.930" stroke="black" fill="none" stroke-linecap="round"></path><path d="M 139.500,133.000 C 144.225,131.416 144.189,131.698 148.500,129.000" stroke-width="3.719" stroke="black" fill="none" stroke-linecap="round"></path><path d="M 148.500,129.000 C 155.783,124.851 155.725,124.916 162.500,120.000" stroke-width="3.759" stroke="black" fill="none" stroke-linecap="round"></path><path d="M 162.500,120.000 C 164.624,118.111 164.783,118.351 166.500,116.000" stroke-width="4.028" stroke="black" fill="none" stroke-linecap="round"></path><path d="M 166.500,116.000 C 169.096,113.808 168.624,113.611 170.500,111.000" stroke-width="4.021" stroke="black" fill="none" stroke-linecap="round"></path><path d="M 170.500,111.000 C 173.570,106.408 172.096,107.808 172.500,104.000" stroke-width="4.398" stroke="black" fill="none" stroke-linecap="round"></path><path d="M 172.500,104.000 C 169.500,101.800 171.570,101.908 166.500,102.000" stroke-width="4.619" stroke="black" fill="none" stroke-linecap="round"></path><path d="M 166.500,102.000 C 161.010,102.242 162.000,102.300 157.500,105.000" stroke-width="4.462" stroke="black" fill="none" stroke-linecap="round"></path><path d="M 157.500,105.000 C 154.215,108.713 154.010,107.742 152.500,113.000" stroke-width="4.400" stroke="black" fill="none" stroke-linecap="round"></path><path d="M 152.500,113.000 C 151.500,116.514 151.215,116.213 151.500,120.000" stroke-width="4.592" stroke="black" fill="none" stroke-linecap="round"></path><path d="M 151.500,120.000 C 150.692,124.096 151.500,122.514 152.500,125.000" stroke-width="4.957" stroke="black" fill="none" stroke-linecap="round"></path><path d="M 152.500,125.000 C 157.237,126.003 155.692,126.596 161.500,125.000" stroke-width="4.568" stroke="black" fill="none" stroke-linecap="round"></path><path d="M 161.500,125.000 C 165.500,123.000 165.737,124.003 169.500,121.000" stroke-width="3.912" stroke="black" fill="none" stroke-linecap="round"></path><path d="M 169.500,121.000 C 174.638,118.748 174.500,118.500 179.500,116.000" stroke-width="3.534" stroke="black" fill="none" stroke-linecap="round"></path><path d="M 179.500,116.000 C 186.000,112.000 186.138,112.248 192.500,108.000" stroke-width="3.048" stroke="black" fill="none" stroke-linecap="round"></path><path d="M 192.500,108.000 C 199.042,104.066 199.000,104.000 205.500,100.000" stroke-width="2.989" stroke="black" fill="none" stroke-linecap="round"></path><path d="M 205.500,100.000 C 212.577,95.615 212.542,95.566 219.500,91.000" stroke-width="2.823" stroke="black" fill="none" stroke-linecap="round"></path><path d="M 219.500,91.000 C 226.212,86.779 226.077,86.615 232.500,82.000" stroke-width="2.827" stroke="black" fill="none" stroke-linecap="round"></path><path d="M 232.500,82.000 C 238.727,77.248 238.712,77.279 244.500,72.000" stroke-width="2.899" stroke="black" fill="none" stroke-linecap="round"></path><path d="M 244.500,72.000 C 249.631,67.125 249.727,67.248 254.500,62.000" stroke-width="3.017" stroke="black" fill="none" stroke-linecap="round"></path><path d="M 254.500,62.000 C 259.437,57.332 259.131,57.125 263.500,52.000" stroke-width="3.044" stroke="black" fill="none" stroke-linecap="round"></path><path d="M 263.500,52.000 C 266.821,46.376 267.437,46.832 270.500,41.000" stroke-width="3.083" stroke="black" fill="none" stroke-linecap="round"></path><path d="M 270.500,41.000 C 273.657,37.106 273.321,36.876 276.500,33.000" stroke-width="3.338" stroke="black" fill="none" stroke-linecap="round"></path><path d="M 276.500,33.000 C 278.301,30.638 278.157,30.606 279.500,28.000" stroke-width="3.891" stroke="black" fill="none" stroke-linecap="round"></path><path d="M 279.500,28.000 C 282.330,23.384 280.801,25.138 281.500,22.000" stroke-width="4.451" stroke="black" fill="none" stroke-linecap="round"></path><path d="M 281.500,22.000 C 278.663,21.764 280.830,20.884 276.500,23.000" stroke-width="4.724" stroke="black" fill="none" stroke-linecap="round"></path><path d="M 276.500,23.000 C 271.825,26.293 271.663,25.764 267.500,30.000" stroke-width="3.808" stroke="black" fill="none" stroke-linecap="round"></path><path d="M 267.500,30.000 C 261.609,35.624 261.325,35.293 255.500,41.000" stroke-width="3.102" stroke="black" fill="none" stroke-linecap="round"></path><path d="M 255.500,41.000 C 248.838,46.318 249.109,46.624 242.500,52.000" stroke-width="2.828" stroke="black" fill="none" stroke-linecap="round"></path><path d="M 242.500,52.000 C 234.517,59.518 234.338,59.318 226.500,67.000" stroke-width="2.493" stroke="black" fill="none" stroke-linecap="round"></path><path d="M 226.500,67.000 C 219.390,73.386 219.517,73.518 212.500,80.000" stroke-width="2.542" stroke="black" fill="none" stroke-linecap="round"></path><path d="M 212.500,80.000 C 206.862,85.369 206.890,85.386 201.500,91.000" stroke-width="2.751" stroke="black" fill="none" stroke-linecap="round"></path><path d="M 201.500,91.000 C 196.454,95.589 196.862,95.869 192.500,101.000" stroke-width="2.958" stroke="black" fill="none" stroke-linecap="round"></path><path d="M 192.500,101.000 C 187.295,108.885 186.954,108.589 182.500,117.000" stroke-width="3.367" stroke="black" fill="none" stroke-linecap="round"></path><path d="M 182.500,117.000 C 180.549,119.853 180.795,119.885 179.500,123.000" stroke-width="3.763" stroke="black" fill="none" stroke-linecap="round"></path><path d="M 179.500,123.000 C 176.720,127.932 178.549,125.853 178.500,129.000" stroke-width="4.403" stroke="black" fill="none" stroke-linecap="round"></path><path d="M 178.500,129.000 C 184.701,130.963 181.720,130.932 189.500,129.000" stroke-width="4.295" stroke="black" fill="none" stroke-linecap="round"></path><path d="M 189.500,129.000 C 194.792,124.219 195.701,126.463 200.500,120.000" stroke-width="3.352" stroke="black" fill="none" stroke-linecap="round"></path><path d="M 200.500,120.000 C 206.427,115.887 206.292,115.719 212.500,112.000" stroke-width="3.130" stroke="black" fill="none" stroke-linecap="round"></path><path d="M 212.500,112.000 C 219.062,108.097 218.927,107.887 225.500,104.000" stroke-width="3.012" stroke="black" fill="none" stroke-linecap="round"></path><path d="M 225.500,104.000 C 230.044,101.064 230.062,101.097 234.500,98.000" stroke-width="3.298" stroke="black" fill="none" stroke-linecap="round"></path><path d="M 234.500,98.000 C 237.810,95.153 238.044,95.564 241.500,93.000" stroke-width="3.542" stroke="black" fill="none" stroke-linecap="round"></path><path d="M 241.500,93.000 C 245.561,90.061 243.810,91.653 246.500,91.000" stroke-width="4.091" stroke="black" fill="none" stroke-linecap="round"></path><path d="M 246.500,91.000 C 247.073,94.552 247.561,92.061 245.500,97.000" stroke-width="4.683" stroke="black" fill="none" stroke-linecap="round"></path><path d="M 245.500,97.000 C 241.500,101.000 242.573,101.552 237.500,105.000" stroke-width="3.749" stroke="black" fill="none" stroke-linecap="round"></path><path d="M 237.500,105.000 C 233.129,108.711 233.500,109.000 229.500,113.000" stroke-width="3.419" stroke="black" fill="none" stroke-linecap="round"></path><path d="M 229.500,113.000 C 227.567,115.333 227.629,115.211 226.500,118.000" stroke-width="3.883" stroke="black" fill="none" stroke-linecap="round"></path><path d="M 226.500,118.000 C 223.729,122.882 225.567,120.333 225.500,123.000" stroke-width="4.538" stroke="black" fill="none" stroke-linecap="round"></path><path d="M 225.500,123.000 C 233.970,122.116 231.229,123.382 241.500,119.000" stroke-width="3.985" stroke="black" fill="none" stroke-linecap="round"></path><path d="M 241.500,119.000 C 248.121,115.186 248.470,116.116 254.500,111.000" stroke-width="3.140" stroke="black" fill="none" stroke-linecap="round"></path><path d="M 254.500,111.000 C 263.925,104.383 264.121,104.686 273.500,98.000" stroke-width="3.287" stroke="black" fill="none" stroke-linecap="round"></path><path d="M 273.500,98.000 C 278.704,94.389 275.925,96.383 278.500,95.000" stroke-width="3.830" stroke="black" fill="none" stroke-linecap="round"></path><path d="M 278.500,95.000 C 275.385,97.893 278.204,95.889 272.500,101.000" stroke-width="4.586" stroke="black" fill="none" stroke-linecap="round"></path><path d="M 272.500,101.000 C 269.103,105.097 268.885,104.893 265.500,109.000" stroke-width="3.797" stroke="black" fill="none" stroke-linecap="round"></path><path d="M 265.500,109.000 C 262.487,111.162 263.103,111.597 260.500,114.000" stroke-width="3.918" stroke="black" fill="none" stroke-linecap="round"></path><path d="M 260.500,114.000 C 257.100,118.125 258.987,116.162 258.500,119.000" stroke-width="4.531" stroke="black" fill="none" stroke-linecap="round"></path><path d="M 258.500,119.000 C 263.936,120.441 261.100,120.625 268.500,119.000" stroke-width="4.400" stroke="black" fill="none" stroke-linecap="round"></path><path d="M 268.500,119.000 C 273.044,116.064 273.436,117.441 277.500,113.000" stroke-width="3.542" stroke="black" fill="none" stroke-linecap="round"></path><path d="M 277.500,113.000 C 280.924,110.384 281.044,110.564 284.500,108.000" stroke-width="3.622" stroke="black" fill="none" stroke-linecap="round"></path><path d="M 284.500,108.000 C 290.153,104.184 286.924,106.384 289.500,105.000" stroke-width="3.959" stroke="black" fill="none" stroke-linecap="round"></path><path d="M 289.500,105.000 C 284.882,108.875 288.153,106.684 280.500,113.000" stroke-width="4.471" stroke="black" fill="none" stroke-linecap="round"></path><path d="M 280.500,113.000 C 276.192,116.739 276.382,116.875 272.500,121.000" stroke-width="3.645" stroke="black" fill="none" stroke-linecap="round"></path><path d="M 272.500,121.000 C 269.776,124.358 269.692,124.239 267.500,128.000" stroke-width="3.708" stroke="black" fill="none" stroke-linecap="round"></path><path d="M 267.500,128.000 C 261.053,135.070 264.776,132.358 262.500,137.000" stroke-width="4.150" stroke="black" fill="none" stroke-linecap="round"></path><path d="M 262.500,137.000 C 268.766,138.254 264.053,139.070 273.500,136.000" stroke-width="4.650" stroke="black" fill="none" stroke-linecap="round"></path><path d="M 273.500,136.000 C 278.393,131.377 279.266,133.254 283.500,127.000" stroke-width="3.907" stroke="black" fill="none" stroke-linecap="round"></path><path d="M 283.500,127.000 C 296.177,116.701 295.893,116.377 308.500,106.000" stroke-width="2.342" stroke="black" fill="none" stroke-linecap="round"></path><path d="M 308.500,106.000 C 314.876,99.860 315.177,100.201 321.500,94.000" stroke-width="2.618" stroke="black" fill="none" stroke-linecap="round"></path><path d="M 321.500,94.000 C 328.239,88.760 327.876,88.360 334.500,83.000" stroke-width="2.749" stroke="black" fill="none" stroke-linecap="round"></path><path d="M 334.500,83.000 C 340.630,77.125 340.739,77.260 346.500,71.000" stroke-width="2.736" stroke="black" fill="none" stroke-linecap="round"></path><path d="M 346.500,71.000 C 352.055,65.050 352.130,65.125 357.500,59.000" stroke-width="2.831" stroke="black" fill="none" stroke-linecap="round"></path><path d="M 357.500,59.000 C 361.372,55.265 361.055,55.050 364.500,51.000" stroke-width="3.244" stroke="black" fill="none" stroke-linecap="round"></path><path d="M 364.500,51.000 C 366.469,47.482 366.872,47.765 368.500,44.000" stroke-width="3.624" stroke="black" fill="none" stroke-linecap="round"></path><path d="M 368.500,44.000 C 370.433,41.667 369.969,41.482 371.500,39.000" stroke-width="4.001" stroke="black" fill="none" stroke-linecap="round"></path><path d="M 371.500,39.000 C 373.649,35.149 372.433,36.667 372.500,34.000" stroke-width="4.585" stroke="black" fill="none" stroke-linecap="round"></path><path d="M 372.500,34.000 C 369.176,32.930 371.149,32.649 366.500,34.000" stroke-width="4.706" stroke="black" fill="none" stroke-linecap="round"></path><path d="M 366.500,34.000 C 361.899,36.858 361.676,35.930 357.500,40.000" stroke-width="3.672" stroke="black" fill="none" stroke-linecap="round"></path><path d="M 357.500,40.000 C 351.276,44.229 351.399,44.358 345.500,49.000" stroke-width="3.098" stroke="black" fill="none" stroke-linecap="round"></path><path d="M 345.500,49.000 C 339.870,53.864 339.776,53.729 334.500,59.000" stroke-width="2.968" stroke="black" fill="none" stroke-linecap="round"></path><path d="M 334.500,59.000 C 328.094,64.643 328.370,64.864 322.500,71.000" stroke-width="2.797" stroke="black" fill="none" stroke-linecap="round"></path><path d="M 322.500,71.000 C 317.745,77.705 317.094,77.143 312.500,84.000" stroke-width="2.783" stroke="black" fill="none" stroke-linecap="round"></path><path d="M 312.500,84.000 C 307.618,89.613 307.745,89.705 302.500,95.000" stroke-width="2.875" stroke="black" fill="none" stroke-linecap="round"></path><path d="M 302.500,95.000 C 297.859,99.368 298.118,99.613 293.500,104.000" stroke-width="3.106" stroke="black" fill="none" stroke-linecap="round"></path><path d="M 293.500,104.000 C 290.247,108.253 289.859,107.868 286.500,112.000" stroke-width="3.293" stroke="black" fill="none" stroke-linecap="round"></path><path d="M 286.500,112.000 C 283.250,114.250 283.747,114.753 280.500,117.000" stroke-width="3.667" stroke="black" fill="none" stroke-linecap="round"></path><path d="M 280.500,117.000 C 274.973,121.418 277.750,119.750 275.500,123.000" stroke-width="4.300" stroke="black" fill="none" stroke-linecap="round"></path><path d="M 275.500,123.000 C 279.227,123.963 275.973,124.418 282.500,123.000" stroke-width="4.692" stroke="black" fill="none" stroke-linecap="round"></path><path d="M 282.500,123.000 C 287.500,120.500 287.727,121.463 292.500,118.000" stroke-width="3.701" stroke="black" fill="none" stroke-linecap="round"></path><path d="M 292.500,118.000 C 298.605,115.193 298.500,115.000 304.500,112.000" stroke-width="3.227" stroke="black" fill="none" stroke-linecap="round"></path><path d="M 304.500,112.000 C 310.387,108.292 310.605,108.693 316.500,105.000" stroke-width="3.073" stroke="black" fill="none" stroke-linecap="round"></path><path d="M 316.500,105.000 C 323.553,101.602 323.387,101.292 330.500,98.000" stroke-width="3.028" stroke="black" fill="none" stroke-linecap="round"></path><path d="M 330.500,98.000 C 336.901,94.300 337.053,94.602 343.500,91.000" stroke-width="3.123" stroke="black" fill="none" stroke-linecap="round"></path><path d="M 343.500,91.000 C 348.913,88.286 348.901,88.300 354.500,86.000" stroke-width="3.237" stroke="black" fill="none" stroke-linecap="round"></path><path d="M 354.500,86.000 C 359.951,83.850 359.913,83.786 365.500,82.000" stroke-width="3.245" stroke="black" fill="none" stroke-linecap="round"></path><path d="M 365.500,82.000 C 368.927,80.476 368.951,80.850 372.500,80.000" stroke-width="3.656" stroke="black" fill="none" stroke-linecap="round"></path><path d="M 372.500,80.000 C 379.415,77.831 376.427,79.476 380.500,80.000" stroke-width="4.241" stroke="black" fill="none" stroke-linecap="round"></path><path d="M 380.500,80.000 C 380.388,85.874 381.915,82.831 377.500,90.000" stroke-width="4.285" stroke="black" fill="none" stroke-linecap="round"></path><path d="M 377.500,90.000 C 372.334,95.416 373.388,95.874 366.500,100.000" stroke-width="3.297" stroke="black" fill="none" stroke-linecap="round"></path><path d="M 366.500,100.000 C 358.190,106.289 358.334,106.416 349.500,112.000" stroke-width="2.651" stroke="black" fill="none" stroke-linecap="round"></path><path d="M 349.500,112.000 C 340.734,117.922 340.690,117.789 331.500,123.000" stroke-width="2.551" stroke="black" fill="none" stroke-linecap="round"></path><path d="M 331.500,123.000 C 320.348,128.214 320.734,128.922 309.500,134.000" stroke-width="2.308" stroke="black" fill="none" stroke-linecap="round"></path><path d="M 309.500,134.000 C 298.460,141.480 297.848,140.214 286.500,147.000" stroke-width="2.174" stroke="black" fill="none" stroke-linecap="round"></path><path d="M 286.500,147.000 C 272.102,152.785 272.460,153.480 257.500,158.000" stroke-width="2.043" stroke="black" fill="none" stroke-linecap="round"></path><path d="M 257.500,158.000 C 244.222,163.324 244.102,162.785 230.500,167.000" stroke-width="2.085" stroke="black" fill="none" stroke-linecap="round"></path><path d="M 230.500,167.000 C 216.084,170.486 216.222,170.824 201.500,173.000" stroke-width="2.061" stroke="black" fill="none" stroke-linecap="round"></path><path d="M 201.500,173.000 C 187.039,175.354 187.084,175.486 172.500,177.000" stroke-width="2.009" stroke="black" fill="none" stroke-linecap="round"></path><path d="M 172.500,177.000 C 160.522,178.519 160.539,178.354 148.500,179.000" stroke-width="2.169" stroke="black" fill="none" stroke-linecap="round"></path><path d="M 148.500,179.000 C 135.495,179.260 135.522,179.519 122.500,179.000" stroke-width="2.151" stroke="black" fill="none" stroke-linecap="round"></path><path d="M 122.500,179.000 C 110.370,179.448 110.495,178.760 98.500,178.000" stroke-width="2.274" stroke="black" fill="none" stroke-linecap="round"></path><path d="M 98.500,178.000 C 89.743,176.748 89.870,176.948 81.500,174.000" stroke-width="2.550" stroke="black" fill="none" stroke-linecap="round"></path><path d="M 81.500,174.000 C 74.093,172.121 74.743,171.748 68.500,168.000" stroke-width="2.883" stroke="black" fill="none" stroke-linecap="round"></path><path d="M 68.500,168.000 C 63.750,164.583 64.593,165.121 62.500,160.000" stroke-width="3.265" stroke="black" fill="none" stroke-linecap="round"></path><path d="M 62.500,160.000 C 61.489,152.876 60.750,153.583 62.500,146.000" stroke-width="3.137" stroke="black" fill="none" stroke-linecap="round"></path><path d="M 62.500,146.000 C 62.901,134.969 63.989,135.876 67.500,126.000" stroke-width="2.695" stroke="black" fill="none" stroke-linecap="round"></path><path d="M 67.500,126.000 C 73.766,115.311 72.901,115.469 82.500,107.000" stroke-width="2.358" stroke="black" fill="none" stroke-linecap="round"></path><path d="M 82.500,107.000 C 104.310,84.235 104.766,85.811 129.500,67.000" stroke-width="2.094" stroke="black" fill="none" stroke-linecap="round"></path><path d="M 129.500,67.000 C 143.779,60.398 142.310,58.235 158.500,55.000" stroke-width="2.063" stroke="black" fill="none" stroke-linecap="round"></path><path d="M 158.500,55.000 C 173.851,49.471 173.779,49.398 189.500,45.000" stroke-width="1.911" stroke="black" fill="none" stroke-linecap="round"></path><path d="M 189.500,45.000 C 201.845,41.025 201.851,41.471 214.500,39.000" stroke-width="2.077" stroke="black" fill="none" stroke-linecap="round"></path><path d="M 214.500,39.000 C 226.982,37.556 226.845,37.025 239.500,37.000" stroke-width="2.210" stroke="black" fill="none" stroke-linecap="round"></path><path d="M 239.500,37.000 C 249.512,36.697 249.482,36.556 259.500,37.000" stroke-width="2.405" stroke="black" fill="none" stroke-linecap="round"></path><path d="M 259.500,37.000 C 266.408,36.259 266.012,37.197 272.500,38.000" stroke-width="2.852" stroke="black" fill="none" stroke-linecap="round"></path><path d="M 272.500,38.000 C 276.926,40.022 276.908,39.259 280.500,43.000" stroke-width="3.348" stroke="black" fill="none" stroke-linecap="round"></path><path d="M 280.500,43.000 C 283.611,45.110 282.926,45.022 284.500,48.000" stroke-width="3.833" stroke="black" fill="none" stroke-linecap="round"></path><path d="M 284.500,48.000 C 287.113,53.233 285.611,51.610 284.500,56.000" stroke-width="3.774" stroke="black" fill="none" stroke-linecap="round"></path><path d="M 284.500,56.000 C 268.334,71.182 270.113,71.233 250.500,84.000" stroke-width="2.808" stroke="black" fill="none" stroke-linecap="round"></path><path d="M 250.500,84.000 C 236.096,94.202 236.334,94.182 220.500,102.000" stroke-width="2.052" stroke="black" fill="none" stroke-linecap="round"></path><path d="M 220.500,102.000 C 205.480,107.950 206.096,109.202 190.500,114.000" stroke-width="1.916" stroke="black" fill="none" stroke-linecap="round"></path><path d="M 190.500,114.000 C 179.633,118.858 179.480,118.450 168.500,123.000" stroke-width="2.146" stroke="black" fill="none" stroke-linecap="round"></path><path d="M 168.500,123.000 C 158.220,127.618 158.133,126.858 147.500,130.000" stroke-width="2.292" stroke="black" fill="none" stroke-linecap="round"></path><path d="M 147.500,130.000 C 140.007,130.700 140.220,131.618 132.500,131.000" stroke-width="2.737" stroke="black" fill="none" stroke-linecap="round"></path><path d="M 132.500,131.000 C 127.479,131.293 127.507,131.200 122.500,131.000" stroke-width="3.207" stroke="black" fill="none" stroke-linecap="round"></path><path d="M 336.500,138.000 C 338.966,138.842 339.000,138.500 341.500,139.000" stroke-width="5.203" stroke="black" fill="none" stroke-linecap="round"></path><path d="M 341.500,139.000 C 347.000,139.000 346.966,139.342 352.500,139.000" stroke-width="3.874" stroke="black" fill="none" stroke-linecap="round"></path><path d="M 352.500,139.000 C 360.611,139.956 360.500,139.000 368.500,139.000" stroke-width="3.135" stroke="black" fill="none" stroke-linecap="round"></path><path d="M 368.500,139.000 C 377.112,137.396 377.111,137.956 385.500,135.000" stroke-width="2.809" stroke="black" fill="none" stroke-linecap="round"></path><path d="M 385.500,135.000 C 394.641,132.360 394.612,132.396 403.500,129.000" stroke-width="2.702" stroke="black" fill="none" stroke-linecap="round"></path><path d="M 403.500,129.000 C 408.920,126.297 409.141,126.860 414.500,124.000" stroke-width="3.219" stroke="black" fill="none" stroke-linecap="round"></path><path d="M 414.500,124.000 C 422.286,121.154 417.420,122.797 420.500,122.000" stroke-width="3.789" stroke="black" fill="none" stroke-linecap="round"></path><path d="M 420.500,122.000 C 407.668,126.916 412.786,125.654 395.500,133.000" stroke-width="3.718" stroke="black" fill="none" stroke-linecap="round"></path><path d="M 395.500,133.000 C 391.309,134.910 391.668,134.916 388.500,138.000" stroke-width="3.730" stroke="black" fill="none" stroke-linecap="round"></path><path d="M 388.500,138.000 C 383.985,142.864 386.309,140.410 385.500,144.000" stroke-width="4.345" stroke="black" fill="none" stroke-linecap="round"></path><path d="M 385.500,144.000 C 391.210,145.245 387.985,145.864 396.500,144.000" stroke-width="3.584" stroke="black" fill="none" stroke-linecap="round"></path><path d="M 396.500,144.000 C 408.207,140.517 408.210,141.245 419.500,136.000" stroke-width="2.588" stroke="black" fill="none" stroke-linecap="round"></path><path d="M 419.500,136.000 C 430.537,131.080 430.707,131.517 441.500,126.000" stroke-width="2.508" stroke="black" fill="none" stroke-linecap="round"></path><path d="M 441.500,126.000 C 450.912,121.298 451.037,121.580 460.500,117.000" stroke-width="2.513" stroke="black" fill="none" stroke-linecap="round"></path><path d="M 460.500,117.000 C 472.511,112.536 465.412,114.798 470.500,113.000" stroke-width="3.053" stroke="black" fill="none" stroke-linecap="round"></path><path d="M 470.500,113.000 C 458.874,116.128 466.011,114.036 447.500,120.000" stroke-width="3.731" stroke="black" fill="none" stroke-linecap="round"></path><path d="M 447.500,120.000 C 435.691,125.090 435.374,124.128 423.500,129.000" stroke-width="2.617" stroke="black" fill="none" stroke-linecap="round"></path><path d="M 423.500,129.000 C 409.101,133.414 409.191,133.590 394.500,137.000" stroke-width="2.177" stroke="black" fill="none" stroke-linecap="round"></path><path d="M 394.500,137.000 C 380.547,140.241 380.601,140.414 366.500,143.000" stroke-width="2.119" stroke="black" fill="none" stroke-linecap="round"></path><path d="M 366.500,143.000 C 352.453,145.259 352.547,145.741 338.500,148.000" stroke-width="2.052" stroke="black" fill="none" stroke-linecap="round"></path><path d="M 338.500,148.000 C 324.517,151.080 324.453,150.759 310.500,154.000" stroke-width="2.027" stroke="black" fill="none" stroke-linecap="round"></path><path d="M 310.500,154.000 C 300.399,155.592 300.517,156.080 290.500,158.000" stroke-width="2.320" stroke="black" fill="none" stroke-linecap="round"></path><path d="M 290.500,158.000 C 281.979,160.431 281.899,160.092 273.500,163.000" stroke-width="2.554" stroke="black" fill="none" stroke-linecap="round"></path></svg>