<svg xmlns="http://www.w3.org/2000/svg" xmlns:xlink="http://www.w3.org/1999/xlink" viewBox="0 0 453 236" width="453" height="236"><path d="M 142.500,118.000 C 139.558,116.765 139.500,117.000 136.500,116.000" stroke-width="5.141" stroke="black" fill="none" stroke-linecap="round"></path><path d="M 136.500,116.000 C 133.411,115.832 133.558,115.265 130.500,115.000" stroke-width="4.844" stroke="black" fill="none" stroke-linecap="round"></path><path d="M 130.500,115.000 C 126.550,113.350 126.411,113.832 122.500,112.000" stroke-width="4.594" stroke="black" fill="none" stroke-linecap="round"></path><path d="M 122.500,112.000 C 118.949,111.150 119.050,110.850 115.500,110.000" stroke-width="4.604" stroke="black" fill="none" stroke-linecap="round"></path><path d="M 115.500,110.000 C 110.296,109.428 112.949,109.150 110.500,108.000" stroke-width="4.919" stroke="black" fill="none" stroke-linecap="round"></path><path d="M 110.500,108.000 C 113.380,105.340 110.796,105.928 116.500,103.000" stroke-width="5.218" stroke="black" fill="none" stroke-linecap="round"></path><path d="M 116.500,103.000 C 119.463,100.943 119.380,100.840 122.500,99.000" stroke-width="5.003" stroke="black" fill="none" stroke-linecap="round"></path><path d="M 122.500,99.000 C 131.899,92.829 131.963,92.943 141.500,87.000" stroke-width="2.784" stroke="black" fill="none" stroke-linecap="round"></path><path d="M 141.500,87.000 C 146.235,84.843 145.899,84.329 150.500,82.000" stroke-width="3.251" stroke="black" fill="none" stroke-linecap="round"></path><path d="M 150.500,82.000 C 153.302,79.214 153.735,79.843 156.500,77.000" stroke-width="3.651" stroke="black" fill="none" stroke-linecap="round"></path><path d="M 156.500,77.000 C 160.018,75.031 159.802,74.714 163.500,73.000" stroke-width="3.713" stroke="black" fill="none" stroke-linecap="round"></path><path d="M 163.500,73.000 C 166.017,71.528 166.018,71.531 168.500,70.000" stroke-width="4.033" stroke="black" fill="none" stroke-linecap="round"></path><path d="M 168.500,70.000 C 176.282,63.910 172.517,67.528 176.500,65.000" stroke-width="4.266" stroke="black" fill="none" stroke-linecap="round"></path><path d="M 176.500,65.000 C 173.196,70.149 176.782,66.410 169.500,75.000" stroke-width="4.756" stroke="black" fill="none" stroke-linecap="round"></path><path d="M 169.500,75.000 C 165.026,80.521 165.196,80.649 160.500,86.000" stroke-width="3.355" stroke="black" fill="none" stroke-linecap="round"></path><path d="M 160.500,86.000 C 155.407,91.925 155.526,92.021 150.500,98.000" stroke-width="3.047" stroke="black" fill="none" stroke-linecap="round"></path><path d="M 150.500,98.000 C 145.197,105.163 144.907,104.925 139.500,112.000" stroke-width="2.831" stroke="black" fill="none" stroke-linecap="round"></path><path d="M 139.500,112.000 C 132.579,120.071 132.697,120.163 125.500,128.000" stroke-width="2.590" stroke="black" fill="none" stroke-linecap="round"></path><path d="M 125.500,128.000 C 120.365,134.380 120.079,134.071 114.500,140.000" stroke-width="2.782" stroke="black" fill="none" stroke-linecap="round"></path><path d="M 114.500,140.000 C 108.122,145.651 108.365,145.880 101.500,151.000" stroke-width="2.857" stroke="black" fill="none" stroke-linecap="round"></path><path d="M 101.500,151.000 C 94.929,155.910 95.122,156.151 88.500,161.000" stroke-width="2.801" stroke="black" fill="none" stroke-linecap="round"></path><path d="M 88.500,161.000 C 83.178,165.741 82.929,165.410 77.500,170.000" stroke-width="2.980" stroke="black" fill="none" stroke-linecap="round"></path><path d="M 77.500,170.000 C 73.133,173.220 73.178,173.241 68.500,176.000" stroke-width="3.234" stroke="black" fill="none" stroke-linecap="round"></path><path d="M 68.500,176.000 C 63.099,179.200 63.133,179.220 57.500,182.000" stroke-width="3.178" stroke="black" fill="none" stroke-linecap="round"></path><path d="M 57.500,182.000 C 53.011,184.026 53.099,184.200 48.500,186.000" stroke-width="3.437" stroke="black" fill="none" stroke-linecap="round"></path><path d="M 48.500,186.000 C 45.079,187.722 45.011,187.526 41.500,189.000" stroke-width="3.691" stroke="black" fill="none" stroke-linecap="round"></path><path d="M 41.500,189.000 C 38.029,190.118 38.079,190.222 34.500,191.000" stroke-width="3.812" stroke="black" fill="none" stroke-linecap="round"></path><path d="M 34.500,191.000 C 32.029,191.789 32.029,191.618 29.500,192.000" stroke-width="4.158" stroke="black" fill="none" stroke-linecap="round"></path><path d="M 29.500,192.000 C 23.941,194.059 26.029,192.289 22.500,192.000" stroke-width="4.500" stroke="black" fill="none" stroke-linecap="round"></path><path d="M 22.500,192.000 C 21.214,186.631 20.441,189.059 22.500,182.000" stroke-width="4.619" stroke="black" fill="none" stroke-linecap="round"></path><path d="M 22.500,182.000 C 24.572,177.660 23.714,177.631 27.500,174.000" stroke-width="3.869" stroke="black" fill="none" stroke-linecap="round"></path><path d="M 27.500,174.000 C 31.000,170.500 30.572,170.160 34.500,167.000" stroke-width="3.644" stroke="black" fill="none" stroke-linecap="round"></path><path d="M 34.500,167.000 C 38.104,162.517 38.500,163.000 42.500,159.000" stroke-width="3.392" stroke="black" fill="none" stroke-linecap="round"></path><path d="M 42.500,159.000 C 48.388,154.820 48.104,154.517 54.500,151.000" stroke-width="3.396" stroke="black" fill="none" stroke-linecap="round"></path><path d="M 54.500,151.000 C 60.299,147.101 60.388,147.320 66.500,144.000" stroke-width="3.117" stroke="black" fill="none" stroke-linecap="round"></path><path d="M 66.500,144.000 C 73.500,141.000 73.299,140.601 80.500,138.000" stroke-width="3.010" stroke="black" fill="none" stroke-linecap="round"></path><path d="M 80.500,138.000 C 87.500,135.000 87.500,135.000 94.500,132.000" stroke-width="2.919" stroke="black" fill="none" stroke-linecap="round"></path><path d="M 94.500,132.000 C 101.385,128.699 101.500,129.000 108.500,126.000" stroke-width="3.007" stroke="black" fill="none" stroke-linecap="round"></path><path d="M 108.500,126.000 C 115.974,123.419 115.885,123.199 123.500,121.000" stroke-width="2.942" stroke="black" fill="none" stroke-linecap="round"></path><path d="M 123.500,121.000 C 130.000,119.000 129.974,118.919 136.500,117.000" stroke-width="3.068" stroke="black" fill="none" stroke-linecap="round"></path><path d="M 136.500,117.000 C 143.020,115.062 143.000,115.000 149.500,113.000" stroke-width="3.048" stroke="black" fill="none" stroke-linecap="round"></path><path d="M 149.500,113.000 C 153.977,111.428 154.020,111.562 158.500,110.000" stroke-width="3.421" stroke="black" fill="none" stroke-linecap="round"></path><path d="M 158.500,110.000 C 163.688,108.925 163.477,108.428 168.500,107.000" stroke-width="3.409" stroke="black" fill="none" stroke-linecap="round"></path><path d="M 168.500,107.000 C 170.942,105.395 171.188,105.925 173.500,104.000" stroke-width="3.920" stroke="black" fill="none" stroke-linecap="round"></path><path d="M 173.500,104.000 C 180.141,101.641 176.442,102.395 179.500,101.000" stroke-width="4.461" stroke="black" fill="none" stroke-linecap="round"></path><path d="M 179.500,101.000 C 174.590,99.831 178.641,100.141 170.500,101.000" stroke-width="5.031" stroke="black" fill="none" stroke-linecap="round"></path><path d="M 170.500,101.000 C 168.000,103.000 167.590,101.831 165.500,105.000" stroke-width="4.276" stroke="black" fill="none" stroke-linecap="round"></path><path d="M 165.500,105.000 C 162.908,106.893 163.000,107.000 160.500,109.000" stroke-width="4.141" stroke="black" fill="none" stroke-linecap="round"></path><path d="M 160.500,109.000 C 154.746,113.754 154.908,113.893 149.500,119.000" stroke-width="3.979" stroke="black" fill="none" stroke-linecap="round"></path><path d="M 149.500,119.000 C 146.025,122.212 146.246,122.254 143.500,126.000" stroke-width="4.243" stroke="black" fill="none" stroke-linecap="round"></path><path d="M 143.500,126.000 C 140.561,129.591 142.025,128.212 141.500,131.000" stroke-width="4.789" stroke="black" fill="none" stroke-linecap="round"></path><path d="M 141.500,131.000 C 144.505,132.176 142.561,132.591 147.500,132.000" stroke-width="4.761" stroke="black" fill="none" stroke-linecap="round"></path><path d="M 147.500,132.000 C 153.333,131.824 153.005,131.676 158.500,130.000" stroke-width="4.355" stroke="black" fill="none" stroke-linecap="round"></path><path d="M 158.500,130.000 C 161.671,128.223 161.833,128.824 164.500,126.000" stroke-width="4.157" stroke="black" fill="none" stroke-linecap="round"></path><path d="M 164.500,126.000 C 168.751,122.749 168.671,122.723 172.500,119.000" stroke-width="4.203" stroke="black" fill="none" stroke-linecap="round"></path><path d="M 172.500,119.000 C 178.500,115.086 175.751,115.749 178.500,112.000" stroke-width="4.337" stroke="black" fill="none" stroke-linecap="round"></path><path d="M 178.500,112.000 C 175.696,108.533 178.500,109.586 172.500,108.000" stroke-width="4.993" stroke="black" fill="none" stroke-linecap="round"></path><path d="M 172.500,108.000 C 169.139,108.416 169.696,107.533 166.500,110.000" stroke-width="5.001" stroke="black" fill="none" stroke-linecap="round"></path><path d="M 166.500,110.000 C 162.028,112.584 164.139,111.416 162.500,114.000" stroke-width="5.186" stroke="black" fill="none" stroke-linecap="round"></path><path d="M 162.500,114.000 C 165.401,115.828 163.028,115.584 168.500,116.000" stroke-width="5.387" stroke="black" fill="none" stroke-linecap="round"></path><path d="M 168.500,116.000 C 174.724,116.375 174.401,116.328 180.500,115.000" stroke-width="4.460" stroke="black" fill="none" stroke-linecap="round"></path><path d="M 180.500,115.000 C 185.211,113.383 185.224,113.875 189.500,111.000" stroke-width="3.903" stroke="black" fill="none" stroke-linecap="round"></path><path d="M 189.500,111.000 C 194.128,108.179 194.211,108.383 198.500,105.000" stroke-width="3.565" stroke="black" fill="none" stroke-linecap="round"></path><path d="M 198.500,105.000 C 204.888,99.849 205.128,100.179 211.500,95.000" stroke-width="2.975" stroke="black" fill="none" stroke-linecap="round"></path><path d="M 211.500,95.000 C 220.488,89.598 219.888,88.849 228.500,83.000" stroke-width="2.648" stroke="black" fill="none" stroke-linecap="round"></path><path d="M 228.500,83.000 C 237.007,75.008 237.488,75.598 245.500,67.000" stroke-width="2.385" stroke="black" fill="none" stroke-linecap="round"></path><path d="M 245.500,67.000 C 254.493,58.492 254.507,58.508 263.500,50.000" stroke-width="2.258" stroke="black" fill="none" stroke-linecap="round"></path><path d="M 263.500,50.000 C 272.251,42.249 271.993,41.992 280.500,34.000" stroke-width="2.279" stroke="black" fill="none" stroke-linecap="round"></path><path d="M 280.500,34.000 C 287.252,26.248 287.751,26.749 294.500,19.000" stroke-width="2.406" stroke="black" fill="none" stroke-linecap="round"></path><path d="M 294.500,19.000 C 299.618,14.625 299.252,14.248 304.500,10.000" stroke-width="2.827" stroke="black" fill="none" stroke-linecap="round"></path><path d="M 367.500,51.000 C 365.878,46.126 365.000,48.000 362.500,45.000" stroke-width="4.315" stroke="black" fill="none" stroke-linecap="round"></path><path d="M 362.500,45.000 C 356.000,45.000 356.878,43.126 349.500,45.000" stroke-width="4.163" stroke="black" fill="none" stroke-linecap="round"></path><path d="M 349.500,45.000 C 344.867,44.127 345.000,45.000 340.500,45.000" stroke-width="3.811" stroke="black" fill="none" stroke-linecap="round"></path><path d="M 340.500,45.000 C 332.263,46.895 332.367,46.627 324.500,50.000" stroke-width="2.998" stroke="black" fill="none" stroke-linecap="round"></path><path d="M 324.500,50.000 C 314.794,54.108 314.763,53.895 305.500,59.000" stroke-width="2.577" stroke="black" fill="none" stroke-linecap="round"></path><path d="M 305.500,59.000 C 295.391,63.650 295.794,64.108 286.500,70.000" stroke-width="2.547" stroke="black" fill="none" stroke-linecap="round"></path><path d="M 286.500,70.000 C 278.133,76.621 277.891,76.150 270.500,84.000" stroke-width="2.453" stroke="black" fill="none" stroke-linecap="round"></path><path d="M 270.500,84.000 C 262.456,90.775 263.133,91.121 256.500,99.000" stroke-width="2.519" stroke="black" fill="none" stroke-linecap="round"></path><path d="M 256.500,99.000 C 252.100,105.674 251.956,105.275 249.500,113.000" stroke-width="2.738" stroke="black" fill="none" stroke-linecap="round"></path><path d="M 249.500,113.000 C 246.610,121.397 246.600,121.174 245.500,130.000" stroke-width="2.704" stroke="black" fill="none" stroke-linecap="round"></path><path d="M 245.500,130.000 C 244.944,137.050 244.610,136.897 245.500,144.000" stroke-width="2.960" stroke="black" fill="none" stroke-linecap="round"></path><path d="M 245.500,144.000 C 245.169,150.106 245.944,149.550 247.500,155.000" stroke-width="3.386" stroke="black" fill="none" stroke-linecap="round"></path><path d="M 247.500,155.000 C 250.793,160.788 250.169,160.606 255.500,165.000" stroke-width="3.198" stroke="black" fill="none" stroke-linecap="round"></path><path d="M 255.500,165.000 C 260.566,169.489 260.293,169.288 266.500,172.000" stroke-width="3.128" stroke="black" fill="none" stroke-linecap="round"></path><path d="M 266.500,172.000 C 273.867,175.015 273.566,174.989 281.500,176.000" stroke-width="2.932" stroke="black" fill="none" stroke-linecap="round"></path><path d="M 281.500,176.000 C 289.500,176.000 289.367,177.015 297.500,176.000" stroke-width="2.847" stroke="black" fill="none" stroke-linecap="round"></path><path d="M 297.500,176.000 C 306.593,176.938 306.500,176.000 315.500,176.000" stroke-width="2.766" stroke="black" fill="none" stroke-linecap="round"></path><path d="M 315.500,176.000 C 325.835,175.052 325.593,174.938 335.500,172.000" stroke-width="2.554" stroke="black" fill="none" stroke-linecap="round"></path><path d="M 335.500,172.000 C 344.817,168.597 344.835,169.052 353.500,164.000" stroke-width="2.531" stroke="black" fill="none" stroke-linecap="round"></path><path d="M 353.500,164.000 C 361.841,159.471 361.817,159.597 369.500,154.000" stroke-width="2.566" stroke="black" fill="none" stroke-linecap="round"></path><path d="M 369.500,154.000 C 375.869,149.386 375.841,149.471 381.500,144.000" stroke-width="2.811" stroke="black" fill="none" stroke-linecap="round"></path><path d="M 381.500,144.000 C 387.427,138.341 387.369,138.386 392.500,132.000" stroke-width="2.795" stroke="black" fill="none" stroke-linecap="round"></path><path d="M 392.500,132.000 C 398.351,126.085 397.427,125.841 401.500,119.000" stroke-width="2.819" stroke="black" fill="none" stroke-linecap="round"></path><path d="M 401.500,119.000 C 403.714,112.076 404.351,112.585 404.500,105.000" stroke-width="2.922" stroke="black" fill="none" stroke-linecap="round"></path><path d="M 404.500,105.000 C 405.976,98.151 405.214,98.576 404.500,92.000" stroke-width="3.047" stroke="black" fill="none" stroke-linecap="round"></path><path d="M 404.500,92.000 C 402.436,85.325 402.976,85.651 398.500,80.000" stroke-width="3.114" stroke="black" fill="none" stroke-linecap="round"></path><path d="M 398.500,80.000 C 393.451,73.959 393.936,73.825 387.500,69.000" stroke-width="2.988" stroke="black" fill="none" stroke-linecap="round"></path><path d="M 387.500,69.000 C 381.222,64.137 381.451,63.959 374.500,60.000" stroke-width="2.875" stroke="black" fill="none" stroke-linecap="round"></path><path d="M 374.500,60.000 C 368.271,55.821 368.222,56.137 361.500,53.000" stroke-width="2.968" stroke="black" fill="none" stroke-linecap="round"></path><path d="M 361.500,53.000 C 356.103,50.731 356.271,50.821 350.500,50.000" stroke-width="3.237" stroke="black" fill="none" stroke-linecap="round"></path><path d="M 350.500,50.000 C 344.229,48.678 344.603,49.231 338.500,50.000" stroke-width="3.279" stroke="black" fill="none" stroke-linecap="round"></path><path d="M 297.500,91.000 C 295.290,95.928 295.500,96.000 293.500,101.000" stroke-width="4.988" stroke="black" fill="none" stroke-linecap="round"></path><path d="M 293.500,101.000 C 292.212,104.441 292.290,104.428 291.500,108.000" stroke-width="4.146" stroke="black" fill="none" stroke-linecap="round"></path><path d="M 291.500,108.000 C 290.768,111.986 290.712,111.941 290.500,116.000" stroke-width="3.853" stroke="black" fill="none" stroke-linecap="round"></path><path d="M 290.500,116.000 C 290.500,119.500 290.268,119.486 290.500,123.000" stroke-width="3.944" stroke="black" fill="none" stroke-linecap="round"></path><path d="M 290.500,123.000 C 288.448,128.922 290.500,127.500 290.500,132.000" stroke-width="4.265" stroke="black" fill="none" stroke-linecap="round"></path><path d="M 290.500,132.000 C 294.378,134.176 292.448,134.922 298.500,135.000" stroke-width="4.424" stroke="black" fill="none" stroke-linecap="round"></path><path d="M 298.500,135.000 C 302.000,135.000 301.878,135.676 305.500,135.000" stroke-width="4.107" stroke="black" fill="none" stroke-linecap="round"></path><path d="M 305.500,135.000 C 309.658,135.768 309.500,135.000 313.500,135.000" stroke-width="3.905" stroke="black" fill="none" stroke-linecap="round"></path><path d="M 313.500,135.000 C 317.051,133.610 317.158,134.268 320.500,132.000" stroke-width="3.891" stroke="black" fill="none" stroke-linecap="round"></path><path d="M 320.500,132.000 C 324.625,130.215 324.551,130.110 328.500,128.000" stroke-width="3.688" stroke="black" fill="none" stroke-linecap="round"></path><path d="M 328.500,128.000 C 331.587,126.119 331.625,126.215 334.500,124.000" stroke-width="3.867" stroke="black" fill="none" stroke-linecap="round"></path><path d="M 334.500,124.000 C 337.111,122.124 337.087,122.119 339.500,120.000" stroke-width="4.018" stroke="black" fill="none" stroke-linecap="round"></path><path d="M 339.500,120.000 C 341.851,118.268 341.611,118.124 343.500,116.000" stroke-width="4.113" stroke="black" fill="none" stroke-linecap="round"></path><path d="M 343.500,116.000 C 345.969,112.675 345.851,112.768 347.500,109.000" stroke-width="4.390" stroke="black" fill="none" stroke-linecap="round"></path><path d="M 330.500,71.000 C 330.764,75.516 330.500,75.500 330.500,80.000" stroke-width="5.106" stroke="black" fill="none" stroke-linecap="round"></path></svg>