<svg xmlns="http://www.w3.org/2000/svg" xmlns:xlink="http://www.w3.org/1999/xlink" viewBox="0 0 453 236" width="453" height="236"><path d="M 49.500,168.000 C 52.509,164.783 52.000,164.500 54.500,161.000" stroke-width="5.240" stroke="black" fill="none" stroke-linecap="round"></path><path d="M 54.500,161.000 C 57.301,155.109 57.509,155.283 59.500,149.000" stroke-width="3.865" stroke="black" fill="none" stroke-linecap="round"></path><path d="M 59.500,149.000 C 60.863,142.233 61.801,142.609 63.500,136.000" stroke-width="3.315" stroke="black" fill="none" stroke-linecap="round"></path><path d="M 63.500,136.000 C 66.812,129.392 66.363,129.233 70.500,123.000" stroke-width="3.096" stroke="black" fill="none" stroke-linecap="round"></path><path d="M 70.500,123.000 C 74.207,116.297 74.312,116.392 78.500,110.000" stroke-width="3.002" stroke="black" fill="none" stroke-linecap="round"></path><path d="M 78.500,110.000 C 81.500,105.000 81.707,105.297 85.500,101.000" stroke-width="3.194" stroke="black" fill="none" stroke-linecap="round"></path><path d="M 85.500,101.000 C 89.676,96.894 89.500,97.000 94.500,94.000" stroke-width="3.313" stroke="black" fill="none" stroke-linecap="round"></path><path d="M 94.500,94.000 C 98.746,90.421 97.176,92.394 100.500,92.000" stroke-width="3.827" stroke="black" fill="none" stroke-linecap="round"></path><path d="M 100.500,92.000 C 104.500,97.450 103.746,94.921 104.500,103.000" stroke-width="4.311" stroke="black" fill="none" stroke-linecap="round"></path><path d="M 104.500,103.000 C 102.859,109.632 104.500,109.450 100.500,116.000" stroke-width="3.335" stroke="black" fill="none" stroke-linecap="round"></path><path d="M 100.500,116.000 C 97.373,122.948 97.859,123.132 94.500,130.000" stroke-width="3.069" stroke="black" fill="none" stroke-linecap="round"></path><path d="M 94.500,130.000 C 91.521,136.361 91.873,136.448 89.500,143.000" stroke-width="3.085" stroke="black" fill="none" stroke-linecap="round"></path><path d="M 89.500,143.000 C 88.667,148.040 88.021,147.861 87.500,153.000" stroke-width="3.322" stroke="black" fill="none" stroke-linecap="round"></path><path d="M 87.500,153.000 C 86.382,156.471 86.667,156.540 85.500,160.000" stroke-width="3.731" stroke="black" fill="none" stroke-linecap="round"></path><path d="M 85.500,160.000 C 83.206,165.995 84.882,162.471 84.500,165.000" stroke-width="4.474" stroke="black" fill="none" stroke-linecap="round"></path><path d="M 84.500,165.000 C 91.831,157.781 89.706,160.995 98.500,150.000" stroke-width="3.686" stroke="black" fill="none" stroke-linecap="round"></path><path d="M 98.500,150.000 C 103.111,143.159 103.831,143.781 108.500,137.000" stroke-width="2.999" stroke="black" fill="none" stroke-linecap="round"></path><path d="M 108.500,137.000 C 114.153,131.644 113.611,131.159 119.500,126.000" stroke-width="2.956" stroke="black" fill="none" stroke-linecap="round"></path><path d="M 119.500,126.000 C 123.041,122.035 123.153,122.144 126.500,118.000" stroke-width="3.240" stroke="black" fill="none" stroke-linecap="round"></path><path d="M 126.500,118.000 C 128.750,114.750 129.041,115.035 131.500,112.000" stroke-width="3.647" stroke="black" fill="none" stroke-linecap="round"></path><path d="M 131.500,112.000 C 135.803,106.717 134.250,109.250 137.500,107.000" stroke-width="4.234" stroke="black" fill="none" stroke-linecap="round"></path><path d="M 137.500,107.000 C 138.216,110.138 138.803,107.217 137.500,113.000" stroke-width="4.720" stroke="black" fill="none" stroke-linecap="round"></path><path d="M 137.500,113.000 C 135.199,117.903 136.216,118.138 133.500,123.000" stroke-width="3.868" stroke="black" fill="none" stroke-linecap="round"></path><path d="M 133.500,123.000 C 132.427,126.984 132.199,126.903 131.500,131.000" stroke-width="3.757" stroke="black" fill="none" stroke-linecap="round"></path><path d="M 131.500,131.000 C 129.384,134.438 130.927,133.484 130.500,136.000" stroke-width="4.099" stroke="black" fill="none" stroke-linecap="round"></path><path d="M 130.500,136.000 C 134.010,139.162 131.884,137.938 136.500,138.000" stroke-width="4.680" stroke="black" fill="none" stroke-linecap="round"></path><path d="M 136.500,138.000 C 140.861,133.349 141.510,135.662 145.500,129.000" stroke-width="3.550" stroke="black" fill="none" stroke-linecap="round"></path><path d="M 145.500,129.000 C 148.667,125.464 148.861,125.849 152.500,123.000" stroke-width="3.617" stroke="black" fill="none" stroke-linecap="round"></path><path d="M 152.500,123.000 C 158.911,117.792 155.667,120.964 159.500,120.000" stroke-width="4.411" stroke="black" fill="none" stroke-linecap="round"></path><path d="M 159.500,120.000 C 158.836,129.240 160.911,125.292 156.500,138.000" stroke-width="3.886" stroke="black" fill="none" stroke-linecap="round"></path><path d="M 156.500,138.000 C 153.961,143.984 154.836,144.240 151.500,150.000" stroke-width="3.303" stroke="black" fill="none" stroke-linecap="round"></path><path d="M 151.500,150.000 C 149.199,154.903 149.461,154.984 147.500,160.000" stroke-width="3.400" stroke="black" fill="none" stroke-linecap="round"></path><path d="M 147.500,160.000 C 146.427,163.984 146.199,163.903 145.500,168.000" stroke-width="3.708" stroke="black" fill="none" stroke-linecap="round"></path><path d="M 145.500,168.000 C 145.000,170.500 144.927,170.484 144.500,173.000" stroke-width="4.121" stroke="black" fill="none" stroke-linecap="round"></path><path d="M 144.500,173.000 C 143.711,175.471 144.000,175.500 143.500,178.000" stroke-width="4.221" stroke="black" fill="none" stroke-linecap="round"></path><path d="M 204.500,130.000 C 202.482,135.494 202.500,135.500 200.500,141.000" stroke-width="4.968" stroke="black" fill="none" stroke-linecap="round"></path><path d="M 200.500,141.000 C 198.354,148.151 197.982,147.994 195.500,155.000" stroke-width="3.544" stroke="black" fill="none" stroke-linecap="round"></path><path d="M 195.500,155.000 C 192.879,159.944 193.354,160.151 190.500,165.000" stroke-width="3.437" stroke="black" fill="none" stroke-linecap="round"></path><path d="M 190.500,165.000 C 189.765,169.168 188.879,168.444 187.500,172.000" stroke-width="3.782" stroke="black" fill="none" stroke-linecap="round"></path><circle r="1.5" cx="213.5" cy="96" fill="black"></circle><path d="M 257.500,84.000 C 254.361,89.428 254.500,89.500 251.500,95.000" stroke-width="4.352" stroke="black" fill="none" stroke-linecap="round"></path><path d="M 251.500,95.000 C 245.000,108.000 244.861,107.928 238.500,121.000" stroke-width="3.336" stroke="black" fill="none" stroke-linecap="round"></path><path d="M 238.500,121.000 C 234.876,127.941 235.000,128.000 231.500,135.000" stroke-width="3.100" stroke="black" fill="none" stroke-linecap="round"></path><path d="M 231.500,135.000 C 229.374,139.448 229.376,139.441 227.500,144.000" stroke-width="3.358" stroke="black" fill="none" stroke-linecap="round"></path><path d="M 227.500,144.000 C 226.086,148.035 225.874,147.948 224.500,152.000" stroke-width="3.619" stroke="black" fill="none" stroke-linecap="round"></path><path d="M 224.500,152.000 C 222.866,155.449 223.086,155.535 221.500,159.000" stroke-width="3.801" stroke="black" fill="none" stroke-linecap="round"></path><path d="M 223.500,134.000 C 228.897,136.269 229.000,135.500 234.500,137.000" stroke-width="5.077" stroke="black" fill="none" stroke-linecap="round"></path><path d="M 234.500,137.000 C 240.678,138.012 240.397,137.769 246.500,137.000" stroke-width="3.685" stroke="black" fill="none" stroke-linecap="round"></path><path d="M 246.500,137.000 C 252.032,135.083 252.178,136.012 257.500,133.000" stroke-width="3.430" stroke="black" fill="none" stroke-linecap="round"></path><path d="M 257.500,133.000 C 262.639,131.288 262.532,131.083 267.500,129.000" stroke-width="3.382" stroke="black" fill="none" stroke-linecap="round"></path><path d="M 267.500,129.000 C 271.435,127.508 271.139,127.288 274.500,125.000" stroke-width="3.625" stroke="black" fill="none" stroke-linecap="round"></path><path d="M 230.500,147.000 C 232.500,149.000 232.500,149.000 234.500,151.000" stroke-width="5.357" stroke="black" fill="none" stroke-linecap="round"></path><path d="M 234.500,151.000 C 237.000,153.500 237.000,153.500 239.500,156.000" stroke-width="4.247" stroke="black" fill="none" stroke-linecap="round"></path><path d="M 239.500,156.000 C 242.000,158.500 242.000,158.500 244.500,161.000" stroke-width="4.099" stroke="black" fill="none" stroke-linecap="round"></path><path d="M 244.500,161.000 C 247.000,163.500 247.000,163.500 249.500,166.000" stroke-width="3.958" stroke="black" fill="none" stroke-linecap="round"></path><path d="M 249.500,166.000 C 251.610,167.900 251.500,168.000 253.500,170.000" stroke-width="4.138" stroke="black" fill="none" stroke-linecap="round"></path><path d="M 270.500,151.000 C 272.707,153.559 273.000,152.500 275.500,154.000" stroke-width="5.288" stroke="black" fill="none" stroke-linecap="round"></path><path d="M 275.500,154.000 C 282.577,154.629 282.207,155.059 289.500,154.000" stroke-width="3.598" stroke="black" fill="none" stroke-linecap="round"></path><path d="M 289.500,154.000 C 293.517,153.062 293.577,153.629 297.500,152.000" stroke-width="3.776" stroke="black" fill="none" stroke-linecap="round"></path><path d="M 297.500,152.000 C 301.291,151.604 301.017,151.062 304.500,150.000" stroke-width="3.888" stroke="black" fill="none" stroke-linecap="round"></path><path d="M 304.500,150.000 C 308.355,147.883 308.291,148.104 311.500,145.000" stroke-width="3.724" stroke="black" fill="none" stroke-linecap="round"></path><path d="M 311.500,145.000 C 315.462,142.529 314.355,142.383 316.500,139.000" stroke-width="3.814" stroke="black" fill="none" stroke-linecap="round"></path><path d="M 316.500,139.000 C 316.500,133.500 317.962,134.029 316.500,128.000" stroke-width="3.526" stroke="black" fill="none" stroke-linecap="round"></path><path d="M 316.500,128.000 C 318.078,123.156 316.500,124.000 316.500,120.000" stroke-width="3.730" stroke="black" fill="none" stroke-linecap="round"></path><path d="M 316.500,120.000 C 313.852,116.838 315.078,117.156 310.500,116.000" stroke-width="3.832" stroke="black" fill="none" stroke-linecap="round"></path><path d="M 310.500,116.000 C 305.198,114.719 305.852,114.838 300.500,116.000" stroke-width="3.565" stroke="black" fill="none" stroke-linecap="round"></path><path d="M 300.500,116.000 C 293.825,118.064 294.198,117.719 288.500,122.000" stroke-width="3.259" stroke="black" fill="none" stroke-linecap="round"></path><path d="M 288.500,122.000 C 282.003,126.809 282.325,126.564 277.500,133.000" stroke-width="2.963" stroke="black" fill="none" stroke-linecap="round"></path><path d="M 277.500,133.000 C 274.558,138.340 274.003,137.809 272.500,144.000" stroke-width="3.183" stroke="black" fill="none" stroke-linecap="round"></path><path d="M 272.500,144.000 C 270.381,149.417 270.558,149.340 269.500,155.000" stroke-width="3.253" stroke="black" fill="none" stroke-linecap="round"></path><path d="M 269.500,155.000 C 268.114,159.437 268.881,158.917 269.500,163.000" stroke-width="3.753" stroke="black" fill="none" stroke-linecap="round"></path><path d="M 269.500,163.000 C 272.115,169.242 271.614,168.437 276.500,173.000" stroke-width="4.036" stroke="black" fill="none" stroke-linecap="round"></path><path d="M 276.500,173.000 C 279.923,174.553 279.115,175.242 283.500,175.000" stroke-width="3.915" stroke="black" fill="none" stroke-linecap="round"></path><path d="M 283.500,175.000 C 288.040,175.446 287.923,175.553 292.500,175.000" stroke-width="3.689" stroke="black" fill="none" stroke-linecap="round"></path><path d="M 292.500,175.000 C 298.183,174.595 298.040,174.446 303.500,173.000" stroke-width="3.416" stroke="black" fill="none" stroke-linecap="round"></path><path d="M 303.500,173.000 C 308.039,171.082 308.183,171.595 312.500,169.000" stroke-width="3.517" stroke="black" fill="none" stroke-linecap="round"></path><path d="M 312.500,169.000 C 315.321,166.908 315.539,167.582 318.500,166.000" stroke-width="3.818" stroke="black" fill="none" stroke-linecap="round"></path><path d="M 372.500,90.000 C 371.701,93.981 372.000,94.000 371.500,98.000" stroke-width="4.863" stroke="black" fill="none" stroke-linecap="round"></path><path d="M 371.500,98.000 C 371.278,104.007 371.201,103.981 371.500,110.000" stroke-width="3.650" stroke="black" fill="none" stroke-linecap="round"></path><path d="M 371.500,110.000 C 371.983,117.501 371.778,117.507 372.500,125.000" stroke-width="3.158" stroke="black" fill="none" stroke-linecap="round"></path><path d="M 372.500,125.000 C 373.195,131.993 372.983,132.001 373.500,139.000" stroke-width="3.104" stroke="black" fill="none" stroke-linecap="round"></path><path d="M 373.500,139.000 C 373.500,143.500 373.695,143.493 373.500,148.000" stroke-width="3.484" stroke="black" fill="none" stroke-linecap="round"></path><path d="M 373.500,148.000 C 372.168,156.036 373.500,151.500 373.500,155.000" stroke-width="4.221" stroke="black" fill="none" stroke-linecap="round"></path><path d="M 373.500,155.000 C 378.175,148.105 376.668,152.536 382.500,141.000" stroke-width="4.205" stroke="black" fill="none" stroke-linecap="round"></path><path d="M 382.500,141.000 C 384.921,136.454 385.175,136.605 387.500,132.000" stroke-width="3.688" stroke="black" fill="none" stroke-linecap="round"></path><path d="M 387.500,132.000 C 390.076,126.669 390.421,126.954 393.500,122.000" stroke-width="3.373" stroke="black" fill="none" stroke-linecap="round"></path><path d="M 393.500,122.000 C 395.597,118.848 395.576,119.169 398.500,117.000" stroke-width="3.813" stroke="black" fill="none" stroke-linecap="round"></path><path d="M 398.500,117.000 C 403.405,113.357 401.097,115.348 404.500,115.000" stroke-width="4.406" stroke="black" fill="none" stroke-linecap="round"></path><path d="M 404.500,115.000 C 405.511,120.695 406.405,117.857 404.500,126.000" stroke-width="4.317" stroke="black" fill="none" stroke-linecap="round"></path><path d="M 404.500,126.000 C 402.452,130.981 403.511,131.195 400.500,136.000" stroke-width="3.601" stroke="black" fill="none" stroke-linecap="round"></path><path d="M 400.500,136.000 C 398.753,139.929 398.952,139.981 397.500,144.000" stroke-width="3.647" stroke="black" fill="none" stroke-linecap="round"></path><path d="M 397.500,144.000 C 396.956,146.492 396.753,146.429 396.500,149.000" stroke-width="4.098" stroke="black" fill="none" stroke-linecap="round"></path><path d="M 396.500,149.000 C 394.575,154.769 395.956,151.992 395.500,155.000" stroke-width="4.547" stroke="black" fill="none" stroke-linecap="round"></path><path d="M 395.500,155.000 C 398.476,152.867 396.575,155.269 400.500,150.000" stroke-width="4.606" stroke="black" fill="none" stroke-linecap="round"></path><path d="M 400.500,150.000 C 404.127,144.071 404.476,144.367 407.500,138.000" stroke-width="3.433" stroke="black" fill="none" stroke-linecap="round"></path><path d="M 407.500,138.000 C 411.971,130.719 411.627,130.571 415.500,123.000" stroke-width="2.834" stroke="black" fill="none" stroke-linecap="round"></path><path d="M 415.500,123.000 C 419.751,113.092 419.971,113.219 423.500,103.000" stroke-width="2.514" stroke="black" fill="none" stroke-linecap="round"></path><path d="M 423.500,103.000 C 426.000,95.500 426.251,95.592 428.500,88.000" stroke-width="2.781" stroke="black" fill="none" stroke-linecap="round"></path><path d="M 428.500,88.000 C 430.596,82.030 430.500,82.000 432.500,76.000" stroke-width="3.127" stroke="black" fill="none" stroke-linecap="round"></path><path d="M 432.500,76.000 C 433.350,72.449 433.596,72.530 434.500,69.000" stroke-width="3.610" stroke="black" fill="none" stroke-linecap="round"></path><path d="M 346.500,158.000 C 350.777,157.267 350.000,158.500 353.500,159.000" stroke-width="5.289" stroke="black" fill="none" stroke-linecap="round"></path></svg>