<svg xmlns="http://www.w3.org/2000/svg" xmlns:xlink="http://www.w3.org/1999/xlink" viewBox="0 0 1460 576" width="1460" height="576"><path d="M 373.000,343.000 C 369.540,341.833 369.500,342.000 366.000,341.000" stroke-width="5.314" stroke="black" fill="none" stroke-linecap="round"></path><path d="M 366.000,341.000 C 360.205,341.560 361.040,339.833 356.000,339.000" stroke-width="4.582" stroke="black" fill="none" stroke-linecap="round"></path><path d="M 356.000,339.000 C 349.371,333.135 348.705,334.560 343.000,327.000" stroke-width="3.897" stroke="black" fill="none" stroke-linecap="round"></path><path d="M 343.000,327.000 C 336.164,319.823 335.871,320.135 329.000,313.000" stroke-width="2.956" stroke="black" fill="none" stroke-linecap="round"></path><path d="M 329.000,313.000 C 325.255,310.255 325.664,309.823 322.000,307.000" stroke-width="3.408" stroke="black" fill="none" stroke-linecap="round"></path><path d="M 322.000,307.000 C 315.065,299.437 314.755,299.755 308.000,292.000" stroke-width="3.450" stroke="black" fill="none" stroke-linecap="round"></path><path d="M 308.000,292.000 C 304.987,289.870 305.565,289.437 303.000,287.000" stroke-width="3.842" stroke="black" fill="none" stroke-linecap="round"></path><path d="M 303.000,287.000 C 301.263,282.847 300.487,283.370 299.000,279.000" stroke-width="3.731" stroke="black" fill="none" stroke-linecap="round"></path><path d="M 299.000,279.000 C 296.239,274.319 296.263,274.347 293.000,270.000" stroke-width="4.050" stroke="black" fill="none" stroke-linecap="round"></path><path d="M 293.000,270.000 C 289.806,266.647 290.239,266.319 287.000,263.000" stroke-width="3.701" stroke="black" fill="none" stroke-linecap="round"></path><path d="M 287.000,263.000 C 284.854,260.089 284.806,260.147 283.000,257.000" stroke-width="3.823" stroke="black" fill="none" stroke-linecap="round"></path><path d="M 283.000,257.000 C 280.298,252.596 280.354,252.589 278.000,248.000" stroke-width="4.137" stroke="black" fill="none" stroke-linecap="round"></path><path d="M 278.000,248.000 C 274.298,244.216 276.798,245.596 276.000,243.000" stroke-width="4.615" stroke="black" fill="none" stroke-linecap="round"></path><path d="M 276.000,243.000 C 284.018,240.554 281.298,239.216 292.000,238.000" stroke-width="5.097" stroke="black" fill="none" stroke-linecap="round"></path><path d="M 292.000,238.000 C 296.500,236.500 296.518,236.554 301.000,235.000" stroke-width="3.957" stroke="black" fill="none" stroke-linecap="round"></path><path d="M 301.000,235.000 C 308.573,232.701 308.500,232.500 316.000,230.000" stroke-width="3.164" stroke="black" fill="none" stroke-linecap="round"></path><path d="M 316.000,230.000 C 325.007,226.519 325.073,226.701 334.000,223.000" stroke-width="2.773" stroke="black" fill="none" stroke-linecap="round"></path><path d="M 334.000,223.000 C 336.853,222.582 336.507,222.019 339.000,221.000" stroke-width="3.643" stroke="black" fill="none" stroke-linecap="round"></path><path d="M 339.000,221.000 C 346.062,215.071 346.353,215.582 353.000,209.000" stroke-width="2.855" stroke="black" fill="none" stroke-linecap="round"></path><path d="M 353.000,209.000 C 358.000,204.500 358.062,204.571 363.000,200.000" stroke-width="3.049" stroke="black" fill="none" stroke-linecap="round"></path><path d="M 363.000,200.000 C 367.668,195.063 368.000,195.500 373.000,191.000" stroke-width="3.054" stroke="black" fill="none" stroke-linecap="round"></path><path d="M 373.000,191.000 C 378.411,187.354 378.168,187.063 384.000,184.000" stroke-width="3.143" stroke="black" fill="none" stroke-linecap="round"></path><path d="M 384.000,184.000 C 396.000,177.000 395.911,176.854 408.000,170.000" stroke-width="2.748" stroke="black" fill="none" stroke-linecap="round"></path><path d="M 408.000,170.000 C 414.013,166.522 414.000,166.500 420.000,163.000" stroke-width="2.927" stroke="black" fill="none" stroke-linecap="round"></path><path d="M 420.000,163.000 C 422.617,161.668 422.513,161.522 425.000,160.000" stroke-width="3.742" stroke="black" fill="none" stroke-linecap="round"></path><path d="M 425.000,160.000 C 430.820,154.770 427.617,158.168 430.000,156.000" stroke-width="4.357" stroke="black" fill="none" stroke-linecap="round"></path><path d="M 430.000,156.000 C 424.391,162.411 427.820,159.270 419.000,169.000" stroke-width="4.885" stroke="black" fill="none" stroke-linecap="round"></path><path d="M 419.000,169.000 C 415.250,173.320 415.391,173.411 412.000,178.000" stroke-width="3.713" stroke="black" fill="none" stroke-linecap="round"></path><path d="M 412.000,178.000 C 401.915,190.969 402.750,191.320 394.000,205.000" stroke-width="2.108" stroke="black" fill="none" stroke-linecap="round"></path><path d="M 394.000,205.000 C 392.442,211.177 390.915,210.469 390.000,217.000" stroke-width="2.783" stroke="black" fill="none" stroke-linecap="round"></path><path d="M 390.000,217.000 C 385.883,226.700 385.942,226.677 381.000,236.000" stroke-width="2.590" stroke="black" fill="none" stroke-linecap="round"></path><path d="M 381.000,236.000 C 375.260,246.658 375.383,246.700 369.000,257.000" stroke-width="2.396" stroke="black" fill="none" stroke-linecap="round"></path><path d="M 369.000,257.000 C 363.096,265.264 363.760,265.658 358.000,274.000" stroke-width="2.513" stroke="black" fill="none" stroke-linecap="round"></path><path d="M 358.000,274.000 C 353.586,283.859 352.596,283.264 348.000,293.000" stroke-width="2.494" stroke="black" fill="none" stroke-linecap="round"></path><path d="M 348.000,293.000 C 342.268,301.699 342.586,301.859 336.000,310.000" stroke-width="2.518" stroke="black" fill="none" stroke-linecap="round"></path><path d="M 336.000,310.000 C 323.834,326.278 323.768,326.199 311.000,342.000" stroke-width="2.460" stroke="black" fill="none" stroke-linecap="round"></path><path d="M 311.000,342.000 C 303.465,350.469 303.834,350.778 296.000,359.000" stroke-width="2.425" stroke="black" fill="none" stroke-linecap="round"></path><path d="M 296.000,359.000 C 289.535,366.531 289.465,366.469 283.000,374.000" stroke-width="2.484" stroke="black" fill="none" stroke-linecap="round"></path><path d="M 283.000,374.000 C 279.825,379.479 279.035,378.531 275.000,383.000" stroke-width="3.000" stroke="black" fill="none" stroke-linecap="round"></path><path d="M 275.000,383.000 C 260.494,391.990 261.325,392.979 246.000,401.000" stroke-width="2.862" stroke="black" fill="none" stroke-linecap="round"></path><path d="M 246.000,401.000 C 241.818,403.243 241.994,403.490 238.000,406.000" stroke-width="3.352" stroke="black" fill="none" stroke-linecap="round"></path><path d="M 238.000,406.000 C 233.092,410.120 232.818,409.743 228.000,414.000" stroke-width="3.189" stroke="black" fill="none" stroke-linecap="round"></path><path d="M 228.000,414.000 C 223.094,419.122 222.592,418.120 217.000,422.000" stroke-width="3.084" stroke="black" fill="none" stroke-linecap="round"></path><path d="M 217.000,422.000 C 204.715,427.468 205.094,427.622 192.000,431.000" stroke-width="3.106" stroke="black" fill="none" stroke-linecap="round"></path><path d="M 192.000,431.000 C 186.510,431.724 186.715,432.468 181.000,432.000" stroke-width="3.313" stroke="black" fill="none" stroke-linecap="round"></path><path d="M 181.000,432.000 C 176.500,432.000 176.510,432.224 172.000,432.000" stroke-width="3.607" stroke="black" fill="none" stroke-linecap="round"></path><path d="M 172.000,432.000 C 163.867,432.908 164.000,432.000 156.000,432.000" stroke-width="3.706" stroke="black" fill="none" stroke-linecap="round"></path><path d="M 156.000,432.000 C 149.908,432.040 150.867,431.408 146.000,429.000" stroke-width="4.105" stroke="black" fill="none" stroke-linecap="round"></path><path d="M 146.000,429.000 C 141.480,423.800 140.908,425.040 138.000,418.000" stroke-width="3.366" stroke="black" fill="none" stroke-linecap="round"></path><path d="M 138.000,418.000 C 135.874,413.552 135.480,413.800 134.000,409.000" stroke-width="3.446" stroke="black" fill="none" stroke-linecap="round"></path><path d="M 134.000,409.000 C 131.568,405.169 132.374,405.052 131.000,401.000" stroke-width="3.649" stroke="black" fill="none" stroke-linecap="round"></path><path d="M 131.000,401.000 C 129.154,393.564 130.068,394.169 131.000,387.000" stroke-width="3.854" stroke="black" fill="none" stroke-linecap="round"></path><path d="M 131.000,387.000 C 135.096,377.757 133.654,377.564 140.000,369.000" stroke-width="2.860" stroke="black" fill="none" stroke-linecap="round"></path><path d="M 140.000,369.000 C 141.311,364.050 142.096,365.257 145.000,362.000" stroke-width="3.421" stroke="black" fill="none" stroke-linecap="round"></path><path d="M 145.000,362.000 C 164.757,352.377 163.811,351.550 185.000,344.000" stroke-width="2.649" stroke="black" fill="none" stroke-linecap="round"></path><path d="M 185.000,344.000 C 193.881,340.565 193.757,340.377 203.000,338.000" stroke-width="2.655" stroke="black" fill="none" stroke-linecap="round"></path><path d="M 203.000,338.000 C 210.189,337.140 209.881,336.065 217.000,335.000" stroke-width="2.922" stroke="black" fill="none" stroke-linecap="round"></path><path d="M 217.000,335.000 C 227.421,330.778 227.689,331.640 238.000,327.000" stroke-width="2.554" stroke="black" fill="none" stroke-linecap="round"></path><path d="M 238.000,327.000 C 248.444,323.318 248.421,323.278 259.000,320.000" stroke-width="3.073" stroke="black" fill="none" stroke-linecap="round"></path><path d="M 259.000,320.000 C 265.885,317.368 265.944,317.818 273.000,316.000" stroke-width="2.982" stroke="black" fill="none" stroke-linecap="round"></path><path d="M 273.000,316.000 C 279.093,316.027 278.885,314.868 285.000,315.000" stroke-width="3.193" stroke="black" fill="none" stroke-linecap="round"></path><path d="M 285.000,315.000 C 290.553,313.676 290.593,314.027 296.000,312.000" stroke-width="3.313" stroke="black" fill="none" stroke-linecap="round"></path><path d="M 296.000,312.000 C 303.615,309.801 303.553,309.676 311.000,307.000" stroke-width="2.959" stroke="black" fill="none" stroke-linecap="round"></path><path d="M 311.000,307.000 C 318.207,304.396 318.115,304.301 325.000,301.000" stroke-width="2.964" stroke="black" fill="none" stroke-linecap="round"></path><path d="M 325.000,301.000 C 329.033,298.550 329.207,298.896 333.000,296.000" stroke-width="3.393" stroke="black" fill="none" stroke-linecap="round"></path><path d="M 333.000,296.000 C 336.094,294.131 336.033,294.050 339.000,292.000" stroke-width="3.718" stroke="black" fill="none" stroke-linecap="round"></path><path d="M 339.000,292.000 C 343.349,288.283 343.594,288.631 348.000,285.000" stroke-width="3.465" stroke="black" fill="none" stroke-linecap="round"></path><path d="M 348.000,285.000 C 352.000,282.500 351.849,282.283 356.000,280.000" stroke-width="3.570" stroke="black" fill="none" stroke-linecap="round"></path><path d="M 356.000,280.000 C 359.798,277.101 360.000,277.500 364.000,275.000" stroke-width="3.548" stroke="black" fill="none" stroke-linecap="round"></path><path d="M 364.000,275.000 C 368.903,272.699 368.798,272.601 374.000,271.000" stroke-width="3.474" stroke="black" fill="none" stroke-linecap="round"></path><path d="M 374.000,271.000 C 378.068,270.210 377.903,269.699 382.000,269.000" stroke-width="4.134" stroke="black" fill="none" stroke-linecap="round"></path><path d="M 382.000,269.000 C 387.580,266.807 384.568,268.210 387.000,267.000" stroke-width="4.230" stroke="black" fill="none" stroke-linecap="round"></path><path d="M 387.000,267.000 C 383.051,268.650 386.080,267.307 379.000,270.000" stroke-width="4.929" stroke="black" fill="none" stroke-linecap="round"></path><path d="M 379.000,270.000 C 372.126,271.243 372.551,272.150 366.000,274.000" stroke-width="3.510" stroke="black" fill="none" stroke-linecap="round"></path><path d="M 366.000,274.000 C 362.010,275.990 362.126,275.743 359.000,279.000" stroke-width="3.665" stroke="black" fill="none" stroke-linecap="round"></path><path d="M 359.000,279.000 C 354.714,283.066 355.010,282.990 352.000,288.000" stroke-width="3.390" stroke="black" fill="none" stroke-linecap="round"></path><path d="M 352.000,288.000 C 349.308,293.330 349.214,293.066 348.000,299.000" stroke-width="3.225" stroke="black" fill="none" stroke-linecap="round"></path><path d="M 348.000,299.000 C 346.000,306.532 346.308,306.330 346.000,314.000" stroke-width="3.828" stroke="black" fill="none" stroke-linecap="round"></path><path d="M 346.000,314.000 C 346.894,319.024 346.000,319.032 348.000,324.000" stroke-width="4.183" stroke="black" fill="none" stroke-linecap="round"></path><path d="M 348.000,324.000 C 347.312,329.312 348.894,328.024 350.000,332.000" stroke-width="4.418" stroke="black" fill="none" stroke-linecap="round"></path><path d="M 350.000,332.000 C 356.190,336.730 354.812,336.812 363.000,339.000" stroke-width="4.004" stroke="black" fill="none" stroke-linecap="round"></path><path d="M 363.000,339.000 C 367.024,339.284 366.690,340.230 371.000,339.000" stroke-width="3.877" stroke="black" fill="none" stroke-linecap="round"></path><path d="M 371.000,339.000 C 374.077,338.812 374.024,338.784 377.000,338.000" stroke-width="4.014" stroke="black" fill="none" stroke-linecap="round"></path><path d="M 377.000,338.000 C 383.345,336.678 383.077,336.312 389.000,334.000" stroke-width="4.074" stroke="black" fill="none" stroke-linecap="round"></path><path d="M 389.000,334.000 C 392.585,331.612 392.845,332.178 396.000,329.000" stroke-width="3.774" stroke="black" fill="none" stroke-linecap="round"></path><path d="M 396.000,329.000 C 401.145,325.162 401.085,325.112 406.000,321.000" stroke-width="3.359" stroke="black" fill="none" stroke-linecap="round"></path><path d="M 406.000,321.000 C 408.090,319.084 408.145,319.162 410.000,317.000" stroke-width="3.919" stroke="black" fill="none" stroke-linecap="round"></path><path d="M 410.000,317.000 C 414.329,313.451 413.590,313.084 417.000,309.000" stroke-width="4.148" stroke="black" fill="none" stroke-linecap="round"></path><path d="M 417.000,309.000 C 418.452,305.563 418.829,305.951 419.000,302.000" stroke-width="4.784" stroke="black" fill="none" stroke-linecap="round"></path><path d="M 419.000,302.000 C 419.452,298.937 419.452,299.063 419.000,296.000" stroke-width="4.277" stroke="black" fill="none" stroke-linecap="round"></path><path d="M 419.000,296.000 C 418.388,292.332 418.452,292.437 417.000,289.000" stroke-width="4.034" stroke="black" fill="none" stroke-linecap="round"></path><path d="M 417.000,289.000 C 415.948,286.125 415.888,286.332 414.000,284.000" stroke-width="4.141" stroke="black" fill="none" stroke-linecap="round"></path><path d="M 414.000,284.000 C 410.314,279.987 410.448,280.125 406.000,277.000" stroke-width="4.198" stroke="black" fill="none" stroke-linecap="round"></path><path d="M 406.000,277.000 C 403.620,275.374 403.814,275.487 401.000,275.000" stroke-width="4.249" stroke="black" fill="none" stroke-linecap="round"></path><path d="M 401.000,275.000 C 396.500,275.000 396.620,274.374 392.000,275.000" stroke-width="4.347" stroke="black" fill="none" stroke-linecap="round"></path><path d="M 392.000,275.000 C 387.927,274.476 388.000,275.000 384.000,275.000" stroke-width="3.968" stroke="black" fill="none" stroke-linecap="round"></path><path d="M 384.000,275.000 C 380.383,275.699 380.427,275.476 377.000,277.000" stroke-width="4.362" stroke="black" fill="none" stroke-linecap="round"></path><path d="M 377.000,277.000 C 373.558,277.953 373.883,278.199 371.000,280.000" stroke-width="4.756" stroke="black" fill="none" stroke-linecap="round"></path><path d="M 371.000,280.000 C 368.599,282.260 368.558,281.953 367.000,285.000" stroke-width="4.155" stroke="black" fill="none" stroke-linecap="round"></path><path d="M 367.000,285.000 C 365.198,288.406 365.099,288.260 364.000,292.000" stroke-width="3.908" stroke="black" fill="none" stroke-linecap="round"></path><path d="M 364.000,292.000 C 363.211,294.471 363.198,294.406 363.000,297.000" stroke-width="4.229" stroke="black" fill="none" stroke-linecap="round"></path><path d="M 363.000,297.000 C 362.282,300.647 362.711,300.471 363.000,304.000" stroke-width="4.525" stroke="black" fill="none" stroke-linecap="round"></path><path d="M 363.000,304.000 C 363.597,308.197 363.782,307.647 366.000,311.000" stroke-width="4.760" stroke="black" fill="none" stroke-linecap="round"></path><path d="M 366.000,311.000 C 370.679,314.297 369.597,315.197 375.000,318.000" stroke-width="4.339" stroke="black" fill="none" stroke-linecap="round"></path><path d="M 375.000,318.000 C 377.178,320.947 377.679,320.297 380.000,323.000" stroke-width="4.076" stroke="black" fill="none" stroke-linecap="round"></path><path d="M 380.000,323.000 C 382.851,324.889 382.678,324.947 386.000,326.000" stroke-width="3.996" stroke="black" fill="none" stroke-linecap="round"></path><path d="M 386.000,326.000 C 391.417,328.119 391.351,327.889 397.000,329.000" stroke-width="3.534" stroke="black" fill="none" stroke-linecap="round"></path><path d="M 397.000,329.000 C 401.000,329.000 400.917,329.619 405.000,329.000" stroke-width="3.733" stroke="black" fill="none" stroke-linecap="round"></path><path d="M 405.000,329.000 C 408.557,329.459 408.500,329.000 412.000,329.000" stroke-width="3.905" stroke="black" fill="none" stroke-linecap="round"></path><path d="M 412.000,329.000 C 416.208,328.517 416.057,328.459 420.000,327.000" stroke-width="3.768" stroke="black" fill="none" stroke-linecap="round"></path><path d="M 420.000,327.000 C 423.434,324.877 423.708,325.517 427.000,323.000" stroke-width="3.749" stroke="black" fill="none" stroke-linecap="round"></path><path d="M 427.000,323.000 C 433.096,320.179 432.934,319.877 439.000,317.000" stroke-width="3.364" stroke="black" fill="none" stroke-linecap="round"></path><path d="M 439.000,317.000 C 446.090,313.146 446.096,313.179 453.000,309.000" stroke-width="2.950" stroke="black" fill="none" stroke-linecap="round"></path><path d="M 453.000,309.000 C 456.244,307.297 456.090,307.146 459.000,305.000" stroke-width="3.543" stroke="black" fill="none" stroke-linecap="round"></path><path d="M 459.000,305.000 C 461.812,301.790 462.244,302.297 465.000,299.000" stroke-width="3.734" stroke="black" fill="none" stroke-linecap="round"></path><path d="M 465.000,299.000 C 470.031,295.038 469.812,294.790 475.000,291.000" stroke-width="3.350" stroke="black" fill="none" stroke-linecap="round"></path><path d="M 475.000,291.000 C 478.019,288.522 478.031,288.538 481.000,286.000" stroke-width="3.640" stroke="black" fill="none" stroke-linecap="round"></path><path d="M 481.000,286.000 C 484.930,283.412 484.519,283.022 488.000,280.000" stroke-width="3.645" stroke="black" fill="none" stroke-linecap="round"></path><path d="M 488.000,280.000 C 494.011,273.337 493.930,273.412 499.000,266.000" stroke-width="2.897" stroke="black" fill="none" stroke-linecap="round"></path><path d="M 499.000,266.000 C 501.826,260.395 502.511,260.837 505.000,255.000" stroke-width="3.128" stroke="black" fill="none" stroke-linecap="round"></path><path d="M 505.000,255.000 C 506.840,251.880 506.826,251.895 509.000,249.000" stroke-width="3.661" stroke="black" fill="none" stroke-linecap="round"></path><path d="M 509.000,249.000 C 511.561,246.049 511.340,245.880 514.000,243.000" stroke-width="3.743" stroke="black" fill="none" stroke-linecap="round"></path><path d="M 514.000,243.000 C 517.406,238.423 517.561,238.549 521.000,234.000" stroke-width="4.293" stroke="black" fill="none" stroke-linecap="round"></path><path d="M 521.000,234.000 C 524.407,230.790 523.906,230.423 527.000,227.000" stroke-width="3.819" stroke="black" fill="none" stroke-linecap="round"></path><path d="M 527.000,227.000 C 530.554,221.031 530.907,221.290 534.000,215.000" stroke-width="3.282" stroke="black" fill="none" stroke-linecap="round"></path><path d="M 534.000,215.000 C 538.071,210.646 536.554,210.531 539.000,206.000" stroke-width="3.379" stroke="black" fill="none" stroke-linecap="round"></path><path d="M 539.000,206.000 C 539.373,201.095 539.571,203.146 537.000,200.000" stroke-width="4.585" stroke="black" fill="none" stroke-linecap="round"></path><path d="M 537.000,200.000 C 531.318,199.114 532.873,198.095 526.000,200.000" stroke-width="3.698" stroke="black" fill="none" stroke-linecap="round"></path><path d="M 526.000,200.000 C 522.230,201.026 522.318,200.614 519.000,203.000" stroke-width="3.776" stroke="black" fill="none" stroke-linecap="round"></path><path d="M 519.000,203.000 C 513.082,206.553 513.230,206.526 508.000,211.000" stroke-width="3.295" stroke="black" fill="none" stroke-linecap="round"></path><path d="M 508.000,211.000 C 505.624,214.113 505.082,213.553 503.000,217.000" stroke-width="3.620" stroke="black" fill="none" stroke-linecap="round"></path><path d="M 503.000,217.000 C 500.500,219.500 500.624,219.613 498.000,222.000" stroke-width="3.812" stroke="black" fill="none" stroke-linecap="round"></path><path d="M 498.000,222.000 C 495.876,223.889 496.000,224.000 494.000,226.000" stroke-width="4.089" stroke="black" fill="none" stroke-linecap="round"></path><path d="M 494.000,226.000 C 492.096,228.582 491.876,228.389 490.000,231.000" stroke-width="4.087" stroke="black" fill="none" stroke-linecap="round"></path><path d="M 490.000,231.000 C 484.992,235.611 485.596,236.082 481.000,241.000" stroke-width="3.375" stroke="black" fill="none" stroke-linecap="round"></path><path d="M 481.000,241.000 C 475.258,249.362 474.992,249.111 470.000,258.000" stroke-width="3.050" stroke="black" fill="none" stroke-linecap="round"></path><path d="M 470.000,258.000 C 468.899,261.287 468.258,260.862 467.000,264.000" stroke-width="3.715" stroke="black" fill="none" stroke-linecap="round"></path><path d="M 467.000,264.000 C 464.785,265.818 465.399,266.287 463.000,268.000" stroke-width="4.013" stroke="black" fill="none" stroke-linecap="round"></path><path d="M 463.000,268.000 C 460.384,271.424 460.285,271.318 458.000,275.000" stroke-width="3.758" stroke="black" fill="none" stroke-linecap="round"></path><path d="M 458.000,275.000 C 456.500,277.500 456.384,277.424 455.000,280.000" stroke-width="4.049" stroke="black" fill="none" stroke-linecap="round"></path><path d="M 455.000,280.000 C 450.758,287.680 450.500,287.500 446.000,295.000" stroke-width="3.781" stroke="black" fill="none" stroke-linecap="round"></path><path d="M 446.000,295.000 C 443.892,297.419 444.258,297.680 442.000,300.000" stroke-width="3.989" stroke="black" fill="none" stroke-linecap="round"></path><path d="M 442.000,300.000 C 437.964,304.730 438.392,304.919 435.000,310.000" stroke-width="4.114" stroke="black" fill="none" stroke-linecap="round"></path><path d="M 435.000,310.000 C 434.080,313.029 433.464,312.730 433.000,316.000" stroke-width="4.056" stroke="black" fill="none" stroke-linecap="round"></path><path d="M 433.000,316.000 C 431.770,318.432 432.080,318.529 431.000,321.000" stroke-width="4.162" stroke="black" fill="none" stroke-linecap="round"></path><path d="M 431.000,321.000 C 430.730,323.568 430.270,323.432 430.000,326.000" stroke-width="4.234" stroke="black" fill="none" stroke-linecap="round"></path><path d="M 430.000,326.000 C 428.435,328.391 429.230,328.568 428.000,331.000" stroke-width="4.651" stroke="black" fill="none" stroke-linecap="round"></path><path d="M 428.000,331.000 C 428.565,334.609 427.435,334.391 428.000,338.000" stroke-width="5.165" stroke="black" fill="none" stroke-linecap="round"></path><path d="M 428.000,338.000 C 425.230,341.973 427.565,340.609 426.000,343.000" stroke-width="4.915" stroke="black" fill="none" stroke-linecap="round"></path><path d="M 426.000,343.000 C 428.828,343.185 426.730,343.973 431.000,342.000" stroke-width="5.338" stroke="black" fill="none" stroke-linecap="round"></path><path d="M 431.000,342.000 C 434.062,339.571 434.328,340.185 437.000,337.000" stroke-width="4.143" stroke="black" fill="none" stroke-linecap="round"></path><path d="M 437.000,337.000 C 441.956,332.450 442.062,332.571 447.000,328.000" stroke-width="3.317" stroke="black" fill="none" stroke-linecap="round"></path><path d="M 447.000,328.000 C 450.353,324.806 450.456,324.950 454.000,322.000" stroke-width="3.489" stroke="black" fill="none" stroke-linecap="round"></path><path d="M 454.000,322.000 C 457.120,320.160 456.853,319.806 460.000,318.000" stroke-width="3.799" stroke="black" fill="none" stroke-linecap="round"></path><path d="M 460.000,318.000 C 463.062,315.571 463.120,315.660 466.000,313.000" stroke-width="3.786" stroke="black" fill="none" stroke-linecap="round"></path><path d="M 466.000,313.000 C 471.094,308.599 471.062,308.571 476.000,304.000" stroke-width="3.695" stroke="black" fill="none" stroke-linecap="round"></path><path d="M 476.000,304.000 C 478.667,300.564 479.094,301.099 482.000,298.000" stroke-width="3.681" stroke="black" fill="none" stroke-linecap="round"></path><path d="M 482.000,298.000 C 485.400,294.257 485.167,295.564 489.000,294.000" stroke-width="4.231" stroke="black" fill="none" stroke-linecap="round"></path><path d="M 489.000,294.000 C 493.542,294.542 492.400,293.757 496.000,297.000" stroke-width="4.682" stroke="black" fill="none" stroke-linecap="round"></path><path d="M 496.000,297.000 C 497.421,299.910 498.042,299.042 498.000,303.000" stroke-width="4.150" stroke="black" fill="none" stroke-linecap="round"></path><path d="M 498.000,303.000 C 499.529,308.061 498.921,307.910 499.000,313.000" stroke-width="3.699" stroke="black" fill="none" stroke-linecap="round"></path><path d="M 499.000,313.000 C 497.392,322.116 498.029,322.061 495.000,331.000" stroke-width="3.003" stroke="black" fill="none" stroke-linecap="round"></path><path d="M 495.000,331.000 C 493.533,335.013 493.892,335.116 492.000,339.000" stroke-width="3.866" stroke="black" fill="none" stroke-linecap="round"></path><path d="M 492.000,339.000 C 488.937,343.362 491.033,341.513 490.000,344.000" stroke-width="4.521" stroke="black" fill="none" stroke-linecap="round"></path><path d="M 490.000,344.000 C 493.824,343.681 491.437,344.862 497.000,342.000" stroke-width="4.999" stroke="black" fill="none" stroke-linecap="round"></path><path d="M 497.000,342.000 C 502.014,338.520 502.324,339.181 507.000,335.000" stroke-width="3.579" stroke="black" fill="none" stroke-linecap="round"></path><path d="M 507.000,335.000 C 510.323,332.206 510.514,332.520 514.000,330.000" stroke-width="3.687" stroke="black" fill="none" stroke-linecap="round"></path><path d="M 514.000,330.000 C 518.056,328.104 517.823,327.706 522.000,326.000" stroke-width="3.631" stroke="black" fill="none" stroke-linecap="round"></path><path d="M 522.000,326.000 C 525.444,323.896 525.556,324.104 529.000,322.000" stroke-width="3.707" stroke="black" fill="none" stroke-linecap="round"></path><path d="M 529.000,322.000 C 532.943,318.624 532.944,319.896 537.000,318.000" stroke-width="4.247" stroke="black" fill="none" stroke-linecap="round"></path><path d="M 537.000,318.000 C 541.254,317.949 539.443,317.624 542.000,320.000" stroke-width="4.938" stroke="black" fill="none" stroke-linecap="round"></path><path d="M 542.000,320.000 C 539.462,325.410 543.254,323.449 541.000,329.000" stroke-width="4.559" stroke="black" fill="none" stroke-linecap="round"></path><path d="M 541.000,329.000 C 544.114,332.705 542.462,332.410 548.000,334.000" stroke-width="4.705" stroke="black" fill="none" stroke-linecap="round"></path><path d="M 548.000,334.000 C 552.073,334.524 551.614,335.205 556.000,334.000" stroke-width="3.993" stroke="black" fill="none" stroke-linecap="round"></path><path d="M 556.000,334.000 C 559.733,333.524 559.573,333.524 563.000,332.000" stroke-width="3.955" stroke="black" fill="none" stroke-linecap="round"></path><path d="M 563.000,332.000 C 566.744,328.824 567.233,330.024 571.000,327.000" stroke-width="4.258" stroke="black" fill="none" stroke-linecap="round"></path><path d="M 571.000,327.000 C 575.096,324.912 573.744,325.824 577.000,326.000" stroke-width="4.591" stroke="black" fill="none" stroke-linecap="round"></path><path d="M 577.000,326.000 C 576.314,329.946 578.596,326.912 578.000,331.000" stroke-width="5.112" stroke="black" fill="none" stroke-linecap="round"></path><path d="M 578.000,331.000 C 581.829,332.269 580.314,332.446 585.000,331.000" stroke-width="5.312" stroke="black" fill="none" stroke-linecap="round"></path><path d="M 585.000,331.000 C 593.937,325.880 594.329,327.269 603.000,321.000" stroke-width="3.015" stroke="black" fill="none" stroke-linecap="round"></path><path d="M 603.000,321.000 C 607.212,319.331 606.937,318.880 611.000,317.000" stroke-width="3.455" stroke="black" fill="none" stroke-linecap="round"></path><path d="M 611.000,317.000 C 613.903,315.407 613.712,315.331 616.000,313.000" stroke-width="3.830" stroke="black" fill="none" stroke-linecap="round"></path><path d="M 616.000,313.000 C 627.033,299.526 627.403,299.907 638.000,286.000" stroke-width="2.993" stroke="black" fill="none" stroke-linecap="round"></path><path d="M 638.000,286.000 C 641.946,280.955 642.033,281.026 646.000,276.000" stroke-width="3.193" stroke="black" fill="none" stroke-linecap="round"></path><path d="M 646.000,276.000 C 651.873,270.554 650.946,269.955 656.000,264.000" stroke-width="2.942" stroke="black" fill="none" stroke-linecap="round"></path><path d="M 656.000,264.000 C 660.601,256.797 660.373,257.054 663.000,249.000" stroke-width="2.816" stroke="black" fill="none" stroke-linecap="round"></path><path d="M 663.000,249.000 C 663.676,243.508 664.601,243.797 664.000,238.000" stroke-width="3.684" stroke="black" fill="none" stroke-linecap="round"></path><path d="M 664.000,238.000 C 664.000,235.000 664.176,235.008 664.000,232.000" stroke-width="4.389" stroke="black" fill="none" stroke-linecap="round"></path><path d="M 664.000,232.000 C 664.000,227.000 664.000,227.000 664.000,222.000" stroke-width="4.338" stroke="black" fill="none" stroke-linecap="round"></path><path d="M 664.000,222.000 C 662.694,217.872 664.000,218.500 664.000,215.000" stroke-width="4.084" stroke="black" fill="none" stroke-linecap="round"></path><path d="M 664.000,215.000 C 666.748,213.252 665.194,212.372 669.000,211.000" stroke-width="5.002" stroke="black" fill="none" stroke-linecap="round"></path><path d="M 669.000,211.000 C 671.459,207.965 671.748,208.252 674.000,205.000" stroke-width="4.079" stroke="black" fill="none" stroke-linecap="round"></path><path d="M 674.000,205.000 C 677.771,201.198 677.459,200.965 681.000,197.000" stroke-width="4.221" stroke="black" fill="none" stroke-linecap="round"></path><path d="M 681.000,197.000 C 682.801,194.638 682.771,194.698 684.000,192.000" stroke-width="4.598" stroke="black" fill="none" stroke-linecap="round"></path><path d="M 684.000,192.000 C 684.787,188.912 685.301,189.138 686.000,186.000" stroke-width="4.186" stroke="black" fill="none" stroke-linecap="round"></path><path d="M 686.000,186.000 C 689.787,181.311 687.287,182.912 689.000,180.000" stroke-width="4.706" stroke="black" fill="none" stroke-linecap="round"></path><path d="M 689.000,180.000 C 685.911,180.168 688.287,178.811 683.000,181.000" stroke-width="5.140" stroke="black" fill="none" stroke-linecap="round"></path><path d="M 683.000,181.000 C 678.737,182.007 678.911,182.168 675.000,184.000" stroke-width="4.076" stroke="black" fill="none" stroke-linecap="round"></path><path d="M 675.000,184.000 C 670.833,185.833 671.237,186.007 668.000,189.000" stroke-width="3.831" stroke="black" fill="none" stroke-linecap="round"></path><path d="M 668.000,189.000 C 662.972,195.980 662.333,195.333 658.000,203.000" stroke-width="2.971" stroke="black" fill="none" stroke-linecap="round"></path><path d="M 658.000,203.000 C 654.573,208.053 654.472,207.980 651.000,213.000" stroke-width="3.122" stroke="black" fill="none" stroke-linecap="round"></path><path d="M 651.000,213.000 C 648.037,217.028 648.073,217.053 645.000,221.000" stroke-width="3.404" stroke="black" fill="none" stroke-linecap="round"></path><path d="M 645.000,221.000 C 641.213,225.304 641.537,225.528 638.000,230.000" stroke-width="3.378" stroke="black" fill="none" stroke-linecap="round"></path><path d="M 638.000,230.000 C 634.808,234.895 634.713,234.804 632.000,240.000" stroke-width="3.349" stroke="black" fill="none" stroke-linecap="round"></path><path d="M 632.000,240.000 C 629.593,245.049 629.308,244.895 627.000,250.000" stroke-width="3.322" stroke="black" fill="none" stroke-linecap="round"></path><path d="M 627.000,250.000 C 623.089,255.152 624.093,255.549 621.000,261.000" stroke-width="3.539" stroke="black" fill="none" stroke-linecap="round"></path><path d="M 621.000,261.000 C 618.963,269.492 618.089,269.152 617.000,278.000" stroke-width="2.967" stroke="black" fill="none" stroke-linecap="round"></path><path d="M 617.000,278.000 C 615.904,282.481 615.963,282.492 615.000,287.000" stroke-width="3.364" stroke="black" fill="none" stroke-linecap="round"></path><path d="M 615.000,287.000 C 614.799,290.071 614.404,289.981 614.000,293.000" stroke-width="3.874" stroke="black" fill="none" stroke-linecap="round"></path><path d="M 614.000,293.000 C 612.147,301.275 611.799,301.071 609.000,309.000" stroke-width="3.772" stroke="black" fill="none" stroke-linecap="round"></path><path d="M 609.000,309.000 C 606.071,314.541 606.647,314.775 603.000,320.000" stroke-width="4.003" stroke="black" fill="none" stroke-linecap="round"></path><path d="M 603.000,320.000 C 601.067,322.333 601.571,322.541 600.000,325.000" stroke-width="4.530" stroke="black" fill="none" stroke-linecap="round"></path><path d="M 600.000,325.000 C 599.730,327.568 599.067,327.333 599.000,330.000" stroke-width="5.062" stroke="black" fill="none" stroke-linecap="round"></path><path d="M 599.000,330.000 C 597.770,332.432 598.230,332.568 597.000,335.000" stroke-width="5.302" stroke="black" fill="none" stroke-linecap="round"></path><path d="M 597.000,335.000 C 594.887,341.002 596.270,337.432 596.000,340.000" stroke-width="5.162" stroke="black" fill="none" stroke-linecap="round"></path><path d="M 596.000,340.000 C 601.931,333.287 599.887,336.502 607.000,326.000" stroke-width="5.133" stroke="black" fill="none" stroke-linecap="round"></path><path d="M 607.000,326.000 C 609.276,321.358 609.931,321.787 612.000,317.000" stroke-width="3.803" stroke="black" fill="none" stroke-linecap="round"></path><path d="M 612.000,317.000 C 614.256,313.293 614.276,313.358 617.000,310.000" stroke-width="3.700" stroke="black" fill="none" stroke-linecap="round"></path><path d="M 617.000,310.000 C 619.387,307.376 619.256,307.293 622.000,305.000" stroke-width="3.839" stroke="black" fill="none" stroke-linecap="round"></path><path d="M 622.000,305.000 C 625.019,302.522 624.887,302.376 628.000,300.000" stroke-width="3.850" stroke="black" fill="none" stroke-linecap="round"></path><path d="M 628.000,300.000 C 631.459,296.951 631.519,297.022 635.000,294.000" stroke-width="3.706" stroke="black" fill="none" stroke-linecap="round"></path><path d="M 635.000,294.000 C 637.557,292.068 637.459,291.951 640.000,290.000" stroke-width="3.918" stroke="black" fill="none" stroke-linecap="round"></path><path d="M 640.000,290.000 C 643.565,285.772 644.057,286.568 648.000,283.000" stroke-width="4.148" stroke="black" fill="none" stroke-linecap="round"></path><path d="M 648.000,283.000 C 652.079,280.000 651.565,280.772 656.000,280.000" stroke-width="4.367" stroke="black" fill="none" stroke-linecap="round"></path><path d="M 656.000,280.000 C 660.296,280.566 659.079,280.000 662.000,283.000" stroke-width="4.855" stroke="black" fill="none" stroke-linecap="round"></path><path d="M 662.000,283.000 C 662.749,286.482 663.796,285.566 663.000,290.000" stroke-width="4.145" stroke="black" fill="none" stroke-linecap="round"></path><path d="M 663.000,290.000 C 663.000,293.500 663.249,293.482 663.000,297.000" stroke-width="4.031" stroke="black" fill="none" stroke-linecap="round"></path><path d="M 663.000,297.000 C 663.321,306.016 663.000,306.000 663.000,315.000" stroke-width="2.951" stroke="black" fill="none" stroke-linecap="round"></path><path d="M 663.000,315.000 C 662.313,319.991 662.821,320.016 662.000,325.000" stroke-width="3.337" stroke="black" fill="none" stroke-linecap="round"></path><path d="M 662.000,325.000 C 662.371,328.031 661.813,327.991 662.000,331.000" stroke-width="3.872" stroke="black" fill="none" stroke-linecap="round"></path><path d="M 662.000,331.000 C 661.206,340.175 660.871,340.031 659.000,349.000" stroke-width="2.746" stroke="black" fill="none" stroke-linecap="round"></path><path d="M 659.000,349.000 C 656.211,358.080 656.706,358.175 653.000,367.000" stroke-width="3.201" stroke="black" fill="none" stroke-linecap="round"></path><path d="M 653.000,367.000 C 651.798,370.661 651.711,370.580 650.000,374.000" stroke-width="3.693" stroke="black" fill="none" stroke-linecap="round"></path><path d="M 650.000,374.000 C 648.194,377.147 648.298,377.161 646.000,380.000" stroke-width="4.294" stroke="black" fill="none" stroke-linecap="round"></path><path d="M 646.000,380.000 C 643.254,383.746 643.194,383.647 640.000,387.000" stroke-width="4.345" stroke="black" fill="none" stroke-linecap="round"></path><path d="M 640.000,387.000 C 634.688,392.222 634.754,392.246 629.000,397.000" stroke-width="5.086" stroke="black" fill="none" stroke-linecap="round"></path><path d="M 629.000,397.000 C 622.314,402.956 622.188,402.722 615.000,408.000" stroke-width="3.106" stroke="black" fill="none" stroke-linecap="round"></path><path d="M 615.000,408.000 C 607.592,412.662 607.814,412.956 600.000,417.000" stroke-width="2.731" stroke="black" fill="none" stroke-linecap="round"></path><path d="M 600.000,417.000 C 593.629,420.756 593.592,420.662 587.000,424.000" stroke-width="2.864" stroke="black" fill="none" stroke-linecap="round"></path><path d="M 587.000,424.000 C 570.166,432.415 570.129,432.256 553.000,440.000" stroke-width="1.983" stroke="black" fill="none" stroke-linecap="round"></path><path d="M 553.000,440.000 C 548.541,441.629 548.666,441.915 544.000,443.000" stroke-width="2.861" stroke="black" fill="none" stroke-linecap="round"></path><path d="M 544.000,443.000 C 522.271,450.742 522.041,449.629 500.000,456.000" stroke-width="2.269" stroke="black" fill="none" stroke-linecap="round"></path><path d="M 500.000,456.000 C 486.040,458.560 486.271,459.242 472.000,460.000" stroke-width="2.211" stroke="black" fill="none" stroke-linecap="round"></path><path d="M 472.000,460.000 C 466.500,460.000 466.540,460.560 461.000,460.000" stroke-width="2.893" stroke="black" fill="none" stroke-linecap="round"></path><path d="M 461.000,460.000 C 455.940,460.692 456.000,460.000 451.000,460.000" stroke-width="3.269" stroke="black" fill="none" stroke-linecap="round"></path><path d="M 451.000,460.000 C 430.106,459.079 430.940,457.192 411.000,453.000" stroke-width="2.773" stroke="black" fill="none" stroke-linecap="round"></path><path d="M 411.000,453.000 C 397.866,446.237 397.106,448.579 385.000,439.000" stroke-width="2.228" stroke="black" fill="none" stroke-linecap="round"></path><path d="M 385.000,439.000 C 374.341,431.816 373.866,432.737 363.000,426.000" stroke-width="2.184" stroke="black" fill="none" stroke-linecap="round"></path><path d="M 363.000,426.000 C 354.047,423.311 354.841,421.816 346.000,419.000" stroke-width="2.470" stroke="black" fill="none" stroke-linecap="round"></path><path d="M 346.000,419.000 C 338.640,416.533 340.047,415.811 335.000,411.000" stroke-width="2.895" stroke="black" fill="none" stroke-linecap="round"></path><path d="M 335.000,411.000 C 326.627,396.523 326.140,397.533 321.000,381.000" stroke-width="2.126" stroke="black" fill="none" stroke-linecap="round"></path><path d="M 321.000,381.000 C 309.112,356.671 312.127,356.523 306.000,331.000" stroke-width="1.489" stroke="black" fill="none" stroke-linecap="round"></path><path d="M 306.000,331.000 C 303.402,289.755 301.112,290.671 305.000,249.000" stroke-width="1.574" stroke="black" fill="none" stroke-linecap="round"></path><path d="M 305.000,249.000 C 307.582,239.019 305.402,238.755 310.000,229.000" stroke-width="2.146" stroke="black" fill="none" stroke-linecap="round"></path><path d="M 310.000,229.000 C 310.346,224.252 311.082,224.519 312.000,220.000" stroke-width="3.015" stroke="black" fill="none" stroke-linecap="round"></path><path d="M 312.000,220.000 C 313.903,215.098 313.846,215.252 317.000,211.000" stroke-width="3.341" stroke="black" fill="none" stroke-linecap="round"></path><path d="M 317.000,211.000 C 327.994,188.614 330.903,192.598 346.000,175.000" stroke-width="2.574" stroke="black" fill="none" stroke-linecap="round"></path><path d="M 346.000,175.000 C 372.209,161.338 368.994,157.614 399.000,149.000" stroke-width="1.428" stroke="black" fill="none" stroke-linecap="round"></path><path d="M 399.000,149.000 C 410.500,144.500 410.209,143.838 422.000,140.000" stroke-width="1.941" stroke="black" fill="none" stroke-linecap="round"></path><path d="M 422.000,140.000 C 444.368,128.883 445.000,131.000 468.000,122.000" stroke-width="1.561" stroke="black" fill="none" stroke-linecap="round"></path><path d="M 468.000,122.000 C 496.422,113.340 495.868,113.883 525.000,110.000" stroke-width="1.865" stroke="black" fill="none" stroke-linecap="round"></path><path d="M 525.000,110.000 C 535.502,109.913 534.922,108.840 545.000,113.000" stroke-width="2.307" stroke="black" fill="none" stroke-linecap="round"></path><path d="M 545.000,113.000 C 555.575,117.150 555.502,116.413 565.000,123.000" stroke-width="2.334" stroke="black" fill="none" stroke-linecap="round"></path><path d="M 565.000,123.000 C 570.314,126.277 570.075,126.150 574.000,131.000" stroke-width="2.974" stroke="black" fill="none" stroke-linecap="round"></path><path d="M 574.000,131.000 C 586.627,146.988 586.314,146.777 597.000,164.000" stroke-width="2.653" stroke="black" fill="none" stroke-linecap="round"></path><path d="M 597.000,164.000 C 598.359,167.939 599.127,167.488 599.000,172.000" stroke-width="3.357" stroke="black" fill="none" stroke-linecap="round"></path><path d="M 599.000,172.000 C 601.342,177.782 599.859,177.439 600.000,183.000" stroke-width="3.336" stroke="black" fill="none" stroke-linecap="round"></path><path d="M 600.000,183.000 C 596.789,196.332 596.842,195.282 590.000,207.000" stroke-width="2.400" stroke="black" fill="none" stroke-linecap="round"></path><path d="M 590.000,207.000 C 585.043,212.315 586.289,212.832 579.000,216.000" stroke-width="2.876" stroke="black" fill="none" stroke-linecap="round"></path><path d="M 579.000,216.000 C 564.699,225.641 564.543,224.815 549.000,232.000" stroke-width="2.094" stroke="black" fill="none" stroke-linecap="round"></path><path d="M 549.000,232.000 C 524.709,240.752 525.199,241.641 500.000,248.000" stroke-width="1.550" stroke="black" fill="none" stroke-linecap="round"></path><path d="M 500.000,248.000 C 487.136,251.774 487.209,251.752 474.000,254.000" stroke-width="1.903" stroke="black" fill="none" stroke-linecap="round"></path><path d="M 474.000,254.000 C 457.529,256.988 457.636,256.774 441.000,258.000" stroke-width="1.903" stroke="black" fill="none" stroke-linecap="round"></path><path d="M 441.000,258.000 C 432.888,258.076 433.029,258.488 425.000,257.000" stroke-width="2.458" stroke="black" fill="none" stroke-linecap="round"></path><path d="M 425.000,257.000 C 421.485,256.739 421.888,256.576 419.000,255.000" stroke-width="3.382" stroke="black" fill="none" stroke-linecap="round"></path><path d="M 669.000,337.000 C 672.668,336.388 672.500,336.000 676.000,335.000" stroke-width="5.191" stroke="black" fill="none" stroke-linecap="round"></path><path d="M 676.000,335.000 C 678.746,333.831 678.668,333.888 681.000,332.000" stroke-width="4.446" stroke="black" fill="none" stroke-linecap="round"></path><path d="M 681.000,332.000 C 686.140,326.528 686.746,327.331 692.000,322.000" stroke-width="3.252" stroke="black" fill="none" stroke-linecap="round"></path><path d="M 692.000,322.000 C 697.457,318.431 697.140,318.028 703.000,315.000" stroke-width="3.204" stroke="black" fill="none" stroke-linecap="round"></path><path d="M 703.000,315.000 C 708.566,312.752 707.957,311.931 713.000,309.000" stroke-width="3.238" stroke="black" fill="none" stroke-linecap="round"></path><path d="M 713.000,309.000 C 726.674,294.261 728.066,296.252 742.000,282.000" stroke-width="2.762" stroke="black" fill="none" stroke-linecap="round"></path><path d="M 742.000,282.000 C 747.601,279.700 746.674,278.261 753.000,277.000" stroke-width="3.110" stroke="black" fill="none" stroke-linecap="round"></path><path d="M 753.000,277.000 C 757.735,274.843 757.601,274.700 762.000,272.000" stroke-width="3.322" stroke="black" fill="none" stroke-linecap="round"></path><path d="M 762.000,272.000 C 764.951,269.439 765.235,269.843 768.000,267.000" stroke-width="3.678" stroke="black" fill="none" stroke-linecap="round"></path><path d="M 768.000,267.000 C 772.838,263.842 772.451,263.439 777.000,260.000" stroke-width="4.016" stroke="black" fill="none" stroke-linecap="round"></path><path d="M 777.000,260.000 C 781.000,255.000 779.338,257.842 781.000,255.000" stroke-width="4.493" stroke="black" fill="none" stroke-linecap="round"></path><path d="M 781.000,255.000 C 779.083,257.570 781.000,255.000 777.000,260.000" stroke-width="5.020" stroke="black" fill="none" stroke-linecap="round"></path><path d="M 777.000,260.000 C 772.899,264.413 773.083,264.570 769.000,269.000" stroke-width="3.672" stroke="black" fill="none" stroke-linecap="round"></path><path d="M 769.000,269.000 C 764.549,274.541 764.399,274.413 760.000,280.000" stroke-width="3.224" stroke="black" fill="none" stroke-linecap="round"></path><path d="M 760.000,280.000 C 754.378,286.400 754.549,286.541 749.000,293.000" stroke-width="2.858" stroke="black" fill="none" stroke-linecap="round"></path><path d="M 749.000,293.000 C 742.829,299.596 743.378,299.900 738.000,307.000" stroke-width="3.372" stroke="black" fill="none" stroke-linecap="round"></path><path d="M 738.000,307.000 C 734.544,311.374 735.329,311.096 734.000,316.000" stroke-width="4.009" stroke="black" fill="none" stroke-linecap="round"></path><path d="M 734.000,316.000 C 734.034,320.505 733.544,319.874 736.000,324.000" stroke-width="4.358" stroke="black" fill="none" stroke-linecap="round"></path><path d="M 736.000,324.000 C 739.385,328.107 738.534,328.505 743.000,332.000" stroke-width="3.689" stroke="black" fill="none" stroke-linecap="round"></path><path d="M 743.000,332.000 C 745.865,335.150 745.885,335.107 749.000,338.000" stroke-width="3.733" stroke="black" fill="none" stroke-linecap="round"></path><path d="M 749.000,338.000 C 751.260,340.401 751.365,340.150 754.000,342.000" stroke-width="3.928" stroke="black" fill="none" stroke-linecap="round"></path><path d="M 754.000,342.000 C 757.271,344.614 757.260,343.901 761.000,345.000" stroke-width="3.897" stroke="black" fill="none" stroke-linecap="round"></path><path d="M 761.000,345.000 C 772.807,347.912 771.771,346.114 783.000,345.000" stroke-width="2.605" stroke="black" fill="none" stroke-linecap="round"></path><path d="M 783.000,345.000 C 793.739,339.946 793.807,341.912 803.000,333.000" stroke-width="3.077" stroke="black" fill="none" stroke-linecap="round"></path><path d="M 803.000,333.000 C 808.851,326.841 809.739,327.946 815.000,321.000" stroke-width="2.825" stroke="black" fill="none" stroke-linecap="round"></path><path d="M 815.000,321.000 C 818.829,317.277 818.851,317.341 823.000,314.000" stroke-width="3.242" stroke="black" fill="none" stroke-linecap="round"></path><path d="M 823.000,314.000 C 826.378,312.435 825.829,311.777 829.000,310.000" stroke-width="3.662" stroke="black" fill="none" stroke-linecap="round"></path><path d="M 829.000,310.000 C 836.685,303.520 833.378,305.935 837.000,301.000" stroke-width="3.972" stroke="black" fill="none" stroke-linecap="round"></path><path d="M 837.000,301.000 C 833.306,300.843 837.185,299.520 830.000,302.000" stroke-width="4.743" stroke="black" fill="none" stroke-linecap="round"></path><path d="M 830.000,302.000 C 823.458,304.912 823.306,304.343 817.000,308.000" stroke-width="3.344" stroke="black" fill="none" stroke-linecap="round"></path><path d="M 817.000,308.000 C 811.822,310.187 811.958,310.412 807.000,313.000" stroke-width="3.321" stroke="black" fill="none" stroke-linecap="round"></path><path d="M 807.000,313.000 C 799.861,317.306 799.822,317.187 793.000,322.000" stroke-width="2.971" stroke="black" fill="none" stroke-linecap="round"></path><path d="M 793.000,322.000 C 788.250,323.750 790.361,323.806 788.000,326.000" stroke-width="4.018" stroke="black" fill="none" stroke-linecap="round"></path><path d="M 788.000,326.000 C 789.146,330.429 787.750,328.250 792.000,331.000" stroke-width="4.494" stroke="black" fill="none" stroke-linecap="round"></path><path d="M 792.000,331.000 C 800.217,331.557 799.146,332.429 808.000,330.000" stroke-width="3.241" stroke="black" fill="none" stroke-linecap="round"></path><path d="M 808.000,330.000 C 815.015,327.540 815.217,328.557 822.000,325.000" stroke-width="3.006" stroke="black" fill="none" stroke-linecap="round"></path><path d="M 822.000,325.000 C 826.092,323.710 826.015,323.540 830.000,322.000" stroke-width="3.440" stroke="black" fill="none" stroke-linecap="round"></path><path d="M 830.000,322.000 C 834.000,320.000 834.092,320.210 838.000,318.000" stroke-width="3.608" stroke="black" fill="none" stroke-linecap="round"></path><path d="M 838.000,318.000 C 840.833,315.792 841.000,316.500 844.000,315.000" stroke-width="4.345" stroke="black" fill="none" stroke-linecap="round"></path><path d="M 844.000,315.000 C 848.418,312.987 846.833,314.292 850.000,315.000" stroke-width="4.919" stroke="black" fill="none" stroke-linecap="round"></path><path d="M 850.000,315.000 C 853.219,321.875 853.918,319.987 855.000,329.000" stroke-width="4.141" stroke="black" fill="none" stroke-linecap="round"></path><path d="M 855.000,329.000 C 853.540,334.026 855.719,331.875 855.000,335.000" stroke-width="4.700" stroke="black" fill="none" stroke-linecap="round"></path><path d="M 855.000,335.000 C 857.955,333.830 856.540,336.026 861.000,333.000" stroke-width="5.225" stroke="black" fill="none" stroke-linecap="round"></path><path d="M 861.000,333.000 C 863.569,332.760 863.455,332.330 866.000,332.000" stroke-width="4.514" stroke="black" fill="none" stroke-linecap="round"></path><path d="M 866.000,332.000 C 879.634,327.860 879.569,327.760 893.000,323.000" stroke-width="2.426" stroke="black" fill="none" stroke-linecap="round"></path><path d="M 893.000,323.000 C 901.617,319.758 901.634,319.860 910.000,316.000" stroke-width="2.557" stroke="black" fill="none" stroke-linecap="round"></path><path d="M 910.000,316.000 C 916.000,313.000 916.117,313.258 922.000,310.000" stroke-width="2.941" stroke="black" fill="none" stroke-linecap="round"></path><path d="M 922.000,310.000 C 932.034,307.015 931.000,305.500 940.000,301.000" stroke-width="2.676" stroke="black" fill="none" stroke-linecap="round"></path><path d="M 940.000,301.000 C 956.089,287.580 956.534,288.515 971.000,273.000" stroke-width="2.330" stroke="black" fill="none" stroke-linecap="round"></path><path d="M 971.000,273.000 C 979.089,265.787 978.589,265.580 985.000,257.000" stroke-width="2.389" stroke="black" fill="none" stroke-linecap="round"></path><path d="M 985.000,257.000 C 996.354,237.410 997.589,238.287 1008.000,218.000" stroke-width="1.720" stroke="black" fill="none" stroke-linecap="round"></path><path d="M 1008.000,218.000 C 1011.447,212.466 1011.354,212.410 1015.000,207.000" stroke-width="2.498" stroke="black" fill="none" stroke-linecap="round"></path><path d="M 1015.000,207.000 C 1024.293,192.350 1024.447,192.466 1034.000,178.000" stroke-width="2.665" stroke="black" fill="none" stroke-linecap="round"></path><path d="M 1034.000,178.000 C 1039.566,173.940 1035.793,175.350 1038.000,173.000" stroke-width="3.839" stroke="black" fill="none" stroke-linecap="round"></path><path d="M 1038.000,173.000 C 1030.554,170.635 1034.566,170.940 1024.000,172.000" stroke-width="4.445" stroke="black" fill="none" stroke-linecap="round"></path><path d="M 1024.000,172.000 C 1018.483,174.318 1018.554,173.135 1014.000,178.000" stroke-width="3.538" stroke="black" fill="none" stroke-linecap="round"></path><path d="M 1014.000,178.000 C 1004.751,186.249 1004.483,185.818 996.000,195.000" stroke-width="2.489" stroke="black" fill="none" stroke-linecap="round"></path><path d="M 996.000,195.000 C 983.763,206.392 984.251,206.749 973.000,219.000" stroke-width="1.986" stroke="black" fill="none" stroke-linecap="round"></path><path d="M 973.000,219.000 C 967.377,227.801 966.263,226.892 961.000,236.000" stroke-width="2.287" stroke="black" fill="none" stroke-linecap="round"></path><path d="M 961.000,236.000 C 955.901,240.538 956.877,241.301 952.000,246.000" stroke-width="2.824" stroke="black" fill="none" stroke-linecap="round"></path><path d="M 952.000,246.000 C 940.603,261.494 940.901,261.538 931.000,278.000" stroke-width="1.957" stroke="black" fill="none" stroke-linecap="round"></path><path d="M 931.000,278.000 C 925.428,289.466 924.603,288.994 920.000,301.000" stroke-width="2.292" stroke="black" fill="none" stroke-linecap="round"></path><path d="M 920.000,301.000 C 917.963,306.757 917.428,306.466 915.000,312.000" stroke-width="2.863" stroke="black" fill="none" stroke-linecap="round"></path><path d="M 915.000,312.000 C 911.155,318.113 911.463,318.257 907.000,324.000" stroke-width="2.929" stroke="black" fill="none" stroke-linecap="round"></path><path d="M 907.000,324.000 C 905.124,326.611 905.155,326.613 903.000,329.000" stroke-width="3.972" stroke="black" fill="none" stroke-linecap="round"></path><path d="M 903.000,329.000 C 900.205,330.591 901.124,331.111 899.000,333.000" stroke-width="4.519" stroke="black" fill="none" stroke-linecap="round"></path><path d="M 899.000,333.000 C 896.035,338.244 897.705,335.591 898.000,339.000" stroke-width="4.662" stroke="black" fill="none" stroke-linecap="round"></path><path d="M 898.000,339.000 C 905.321,339.670 902.535,340.744 912.000,338.000" stroke-width="4.766" stroke="black" fill="none" stroke-linecap="round"></path><path d="M 912.000,338.000 C 917.029,335.557 917.321,336.670 922.000,333.000" stroke-width="3.714" stroke="black" fill="none" stroke-linecap="round"></path><path d="M 922.000,333.000 C 934.339,326.139 934.529,326.557 947.000,320.000" stroke-width="2.278" stroke="black" fill="none" stroke-linecap="round"></path><path d="M 947.000,320.000 C 950.972,318.422 950.839,318.139 955.000,317.000" stroke-width="3.100" stroke="black" fill="none" stroke-linecap="round"></path><path d="M 955.000,317.000 C 959.416,315.146 959.472,315.422 964.000,314.000" stroke-width="3.440" stroke="black" fill="none" stroke-linecap="round"></path><path d="M 964.000,314.000 C 968.293,311.647 967.416,313.146 971.000,313.000" stroke-width="4.114" stroke="black" fill="none" stroke-linecap="round"></path><path d="M 971.000,313.000 C 974.705,316.114 974.293,314.647 976.000,320.000" stroke-width="4.370" stroke="black" fill="none" stroke-linecap="round"></path><path d="M 976.000,320.000 C 973.909,325.677 977.205,323.614 976.000,328.000" stroke-width="4.479" stroke="black" fill="none" stroke-linecap="round"></path><path d="M 976.000,328.000 C 980.619,330.274 978.409,330.677 985.000,330.000" stroke-width="4.833" stroke="black" fill="none" stroke-linecap="round"></path><path d="M 985.000,330.000 C 988.465,328.414 988.619,329.774 992.000,327.000" stroke-width="4.128" stroke="black" fill="none" stroke-linecap="round"></path><path d="M 992.000,327.000 C 996.079,325.681 995.965,325.414 1000.000,324.000" stroke-width="3.851" stroke="black" fill="none" stroke-linecap="round"></path><path d="M 1000.000,324.000 C 1002.956,322.405 1003.079,322.681 1006.000,321.000" stroke-width="3.977" stroke="black" fill="none" stroke-linecap="round"></path><path d="M 1006.000,321.000 C 1010.012,317.457 1009.456,319.405 1013.000,318.000" stroke-width="3.859" stroke="black" fill="none" stroke-linecap="round"></path><path d="M 1013.000,318.000 C 1014.426,321.362 1015.512,318.457 1017.000,323.000" stroke-width="4.766" stroke="black" fill="none" stroke-linecap="round"></path><path d="M 1017.000,323.000 C 1020.429,324.790 1019.926,324.862 1024.000,325.000" stroke-width="4.977" stroke="black" fill="none" stroke-linecap="round"></path><path d="M 1024.000,325.000 C 1029.136,325.081 1028.929,325.290 1034.000,324.000" stroke-width="3.872" stroke="black" fill="none" stroke-linecap="round"></path><path d="M 1034.000,324.000 C 1037.949,322.350 1038.136,323.081 1042.000,321.000" stroke-width="3.781" stroke="black" fill="none" stroke-linecap="round"></path><path d="M 1042.000,321.000 C 1047.188,318.000 1046.949,319.350 1052.000,318.000" stroke-width="3.569" stroke="black" fill="none" stroke-linecap="round"></path><path d="M 1052.000,318.000 C 1056.535,318.907 1054.688,318.000 1057.000,321.000" stroke-width="4.556" stroke="black" fill="none" stroke-linecap="round"></path><path d="M 1057.000,321.000 C 1055.387,323.949 1057.535,323.407 1054.000,327.000" stroke-width="4.177" stroke="black" fill="none" stroke-linecap="round"></path><path d="M 1054.000,327.000 C 1050.873,331.812 1052.887,329.449 1052.000,332.000" stroke-width="4.630" stroke="black" fill="none" stroke-linecap="round"></path><path d="M 1052.000,332.000 C 1056.135,330.238 1053.873,332.312 1060.000,328.000" stroke-width="4.931" stroke="black" fill="none" stroke-linecap="round"></path><path d="M 1060.000,328.000 C 1065.388,324.301 1065.635,324.738 1071.000,321.000" stroke-width="4.265" stroke="black" fill="none" stroke-linecap="round"></path><path d="M 1071.000,321.000 C 1073.799,318.915 1073.888,319.301 1077.000,318.000" stroke-width="3.993" stroke="black" fill="none" stroke-linecap="round"></path><path d="M 1077.000,318.000 C 1084.480,316.393 1084.299,315.915 1092.000,315.000" stroke-width="3.210" stroke="black" fill="none" stroke-linecap="round"></path><path d="M 1092.000,315.000 C 1097.966,313.724 1097.980,313.893 1104.000,313.000" stroke-width="3.258" stroke="black" fill="none" stroke-linecap="round"></path><path d="M 1104.000,313.000 C 1110.508,312.590 1110.466,312.224 1117.000,312.000" stroke-width="3.205" stroke="black" fill="none" stroke-linecap="round"></path><path d="M 1117.000,312.000 C 1121.540,311.743 1121.508,311.590 1126.000,311.000" stroke-width="4.486" stroke="black" fill="none" stroke-linecap="round"></path><path d="M 1126.000,311.000 C 1130.457,309.757 1130.540,310.243 1135.000,309.000" stroke-width="3.802" stroke="black" fill="none" stroke-linecap="round"></path><path d="M 1135.000,309.000 C 1142.467,307.670 1142.457,307.757 1150.000,307.000" stroke-width="3.183" stroke="black" fill="none" stroke-linecap="round"></path><path d="M 1150.000,307.000 C 1165.043,306.391 1164.967,305.670 1180.000,305.000" stroke-width="2.210" stroke="black" fill="none" stroke-linecap="round"></path><path d="M 1180.000,305.000 C 1186.465,303.676 1186.543,304.391 1193.000,303.000" stroke-width="2.759" stroke="black" fill="none" stroke-linecap="round"></path><path d="M 1193.000,303.000 C 1201.061,303.018 1200.965,302.176 1209.000,302.000" stroke-width="2.853" stroke="black" fill="none" stroke-linecap="round"></path><path d="M 1209.000,302.000 C 1220.465,299.748 1220.561,300.518 1232.000,298.000" stroke-width="3.000" stroke="black" fill="none" stroke-linecap="round"></path><path d="M 1232.000,298.000 C 1237.081,297.937 1236.965,297.248 1242.000,297.000" stroke-width="3.304" stroke="black" fill="none" stroke-linecap="round"></path><path d="M 1242.000,297.000 C 1247.411,294.838 1247.581,295.937 1253.000,294.000" stroke-width="3.348" stroke="black" fill="none" stroke-linecap="round"></path><path d="M 1253.000,294.000 C 1257.503,293.868 1257.411,293.338 1262.000,294.000" stroke-width="3.572" stroke="black" fill="none" stroke-linecap="round"></path><path d="M 1262.000,294.000 C 1274.539,294.169 1274.503,294.368 1287.000,295.000" stroke-width="3.271" stroke="black" fill="none" stroke-linecap="round"></path><path d="M 1287.000,295.000 C 1293.368,295.544 1289.539,295.169 1292.000,296.000" stroke-width="4.007" stroke="black" fill="none" stroke-linecap="round"></path><path d="M 1292.000,296.000 C 1283.567,298.000 1287.368,297.544 1275.000,299.000" stroke-width="4.725" stroke="black" fill="none" stroke-linecap="round"></path><path d="M 1275.000,299.000 C 1253.457,300.616 1253.567,301.500 1232.000,303.000" stroke-width="1.984" stroke="black" fill="none" stroke-linecap="round"></path><path d="M 1232.000,303.000 C 1212.773,304.440 1212.957,305.116 1194.000,308.000" stroke-width="1.743" stroke="black" fill="none" stroke-linecap="round"></path><path d="M 1194.000,308.000 C 1184.179,311.738 1183.773,309.940 1174.000,314.000" stroke-width="2.179" stroke="black" fill="none" stroke-linecap="round"></path><path d="M 1174.000,314.000 C 1152.531,318.172 1152.679,318.738 1131.000,322.000" stroke-width="1.717" stroke="black" fill="none" stroke-linecap="round"></path><path d="M 1131.000,322.000 C 1107.599,328.087 1107.531,326.172 1084.000,330.000" stroke-width="1.896" stroke="black" fill="none" stroke-linecap="round"></path><path d="M 1084.000,330.000 C 1070.385,329.716 1070.599,331.087 1057.000,328.000" stroke-width="2.080" stroke="black" fill="none" stroke-linecap="round"></path><path d="M 1057.000,328.000 C 1050.994,326.526 1050.885,327.216 1045.000,325.000" stroke-width="2.740" stroke="black" fill="none" stroke-linecap="round"></path><path d="M 1045.000,325.000 C 1023.680,318.625 1023.494,319.526 1002.000,314.000" stroke-width="2.492" stroke="black" fill="none" stroke-linecap="round"></path><path d="M 1002.000,314.000 C 986.079,310.489 986.180,310.625 970.000,309.000" stroke-width="2.075" stroke="black" fill="none" stroke-linecap="round"></path><path d="M 970.000,309.000 C 959.000,309.000 959.079,307.989 948.000,309.000" stroke-width="2.325" stroke="black" fill="none" stroke-linecap="round"></path><path d="M 948.000,309.000 C 906.500,309.000 906.500,309.000 865.000,309.000" stroke-width="1.765" stroke="black" fill="none" stroke-linecap="round"></path><path d="M 865.000,309.000 C 856.985,309.420 857.000,309.000 849.000,309.000" stroke-width="2.469" stroke="black" fill="none" stroke-linecap="round"></path><path d="M 849.000,309.000 C 828.395,308.303 828.485,307.920 808.000,306.000" stroke-width="1.768" stroke="black" fill="none" stroke-linecap="round"></path><path d="M 808.000,306.000 C 797.541,303.757 797.395,304.803 787.000,302.000" stroke-width="2.172" stroke="black" fill="none" stroke-linecap="round"></path><path d="M 787.000,302.000 C 776.448,300.791 776.541,300.257 766.000,299.000" stroke-width="2.444" stroke="black" fill="none" stroke-linecap="round"></path><path d="M 766.000,299.000 C 758.910,297.854 758.948,297.791 752.000,296.000" stroke-width="2.789" stroke="black" fill="none" stroke-linecap="round"></path><path d="M 752.000,296.000 C 738.304,292.543 738.410,292.354 725.000,288.000" stroke-width="2.282" stroke="black" fill="none" stroke-linecap="round"></path><path d="M 725.000,288.000 C 718.030,284.929 717.804,285.543 711.000,282.000" stroke-width="2.722" stroke="black" fill="none" stroke-linecap="round"></path><path d="M 711.000,282.000 C 700.270,276.675 700.030,277.429 689.000,273.000" stroke-width="2.384" stroke="black" fill="none" stroke-linecap="round"></path><path d="M 689.000,273.000 C 677.181,268.740 677.270,269.175 665.000,267.000" stroke-width="2.259" stroke="black" fill="none" stroke-linecap="round"></path><path d="M 665.000,267.000 C 652.213,263.938 652.681,265.240 640.000,266.000" stroke-width="2.271" stroke="black" fill="none" stroke-linecap="round"></path><path d="M 640.000,266.000 C 613.923,272.729 613.713,270.438 588.000,280.000" stroke-width="2.176" stroke="black" fill="none" stroke-linecap="round"></path><path d="M 588.000,280.000 C 573.009,284.529 572.923,284.229 558.000,289.000" stroke-width="2.034" stroke="black" fill="none" stroke-linecap="round"></path><path d="M 558.000,289.000 C 549.674,292.265 549.509,291.529 541.000,294.000" stroke-width="2.490" stroke="black" fill="none" stroke-linecap="round"></path><path d="M 541.000,294.000 C 519.557,298.206 519.674,298.265 498.000,301.000" stroke-width="2.473" stroke="black" fill="none" stroke-linecap="round"></path><path d="M 498.000,301.000 C 492.500,301.000 492.557,301.706 487.000,301.000" stroke-width="3.018" stroke="black" fill="none" stroke-linecap="round"></path></svg>