<svg xmlns="http://www.w3.org/2000/svg" xmlns:xlink="http://www.w3.org/1999/xlink" viewBox="0 0 453 236" width="453" height="236"><path d="M 156.500,123.000 C 152.019,121.904 152.000,122.000 147.500,121.000" stroke-width="4.656" stroke="black" fill="none" stroke-linecap="round"></path><path d="M 147.500,121.000 C 144.245,121.144 144.519,120.404 141.500,120.000" stroke-width="4.750" stroke="black" fill="none" stroke-linecap="round"></path><path d="M 141.500,120.000 C 138.649,117.717 138.245,118.644 135.500,116.000" stroke-width="4.656" stroke="black" fill="none" stroke-linecap="round"></path><path d="M 135.500,116.000 C 133.000,115.000 133.149,114.717 130.500,114.000" stroke-width="4.794" stroke="black" fill="none" stroke-linecap="round"></path><path d="M 130.500,114.000 C 126.250,113.750 128.000,113.000 125.500,112.000" stroke-width="4.823" stroke="black" fill="none" stroke-linecap="round"></path><path d="M 125.500,112.000 C 125.450,108.503 124.750,110.250 127.500,107.000" stroke-width="5.233" stroke="black" fill="none" stroke-linecap="round"></path><path d="M 127.500,107.000 C 134.037,104.078 132.950,103.003 140.500,101.000" stroke-width="4.298" stroke="black" fill="none" stroke-linecap="round"></path><path d="M 140.500,101.000 C 144.500,99.000 144.537,99.078 148.500,97.000" stroke-width="3.850" stroke="black" fill="none" stroke-linecap="round"></path><path d="M 148.500,97.000 C 153.500,94.500 153.500,94.500 158.500,92.000" stroke-width="3.519" stroke="black" fill="none" stroke-linecap="round"></path><path d="M 158.500,92.000 C 163.605,89.692 163.500,89.500 168.500,87.000" stroke-width="3.430" stroke="black" fill="none" stroke-linecap="round"></path><path d="M 168.500,87.000 C 173.395,83.808 173.605,84.192 178.500,81.000" stroke-width="3.305" stroke="black" fill="none" stroke-linecap="round"></path><path d="M 178.500,81.000 C 183.554,78.603 183.395,78.308 188.500,76.000" stroke-width="3.366" stroke="black" fill="none" stroke-linecap="round"></path><path d="M 188.500,76.000 C 193.013,73.524 193.054,73.603 197.500,71.000" stroke-width="3.405" stroke="black" fill="none" stroke-linecap="round"></path><path d="M 197.500,71.000 C 200.859,68.699 201.013,69.024 204.500,67.000" stroke-width="3.633" stroke="black" fill="none" stroke-linecap="round"></path><path d="M 204.500,67.000 C 208.637,65.783 208.359,65.199 212.500,64.000" stroke-width="3.657" stroke="black" fill="none" stroke-linecap="round"></path><path d="M 212.500,64.000 C 214.901,62.300 215.137,62.783 217.500,61.000" stroke-width="4.013" stroke="black" fill="none" stroke-linecap="round"></path><path d="M 217.500,61.000 C 222.714,58.572 219.901,59.800 222.500,59.000" stroke-width="4.580" stroke="black" fill="none" stroke-linecap="round"></path><path d="M 222.500,59.000 C 219.127,60.575 222.214,59.572 216.500,63.000" stroke-width="4.802" stroke="black" fill="none" stroke-linecap="round"></path><path d="M 216.500,63.000 C 213.133,67.125 212.627,66.575 209.500,71.000" stroke-width="3.777" stroke="black" fill="none" stroke-linecap="round"></path><path d="M 209.500,71.000 C 205.600,75.105 205.633,75.125 201.500,79.000" stroke-width="3.646" stroke="black" fill="none" stroke-linecap="round"></path><path d="M 201.500,79.000 C 195.114,84.131 195.600,84.605 189.500,90.000" stroke-width="3.132" stroke="black" fill="none" stroke-linecap="round"></path><path d="M 189.500,90.000 C 184.772,96.249 184.114,95.631 179.500,102.000" stroke-width="2.989" stroke="black" fill="none" stroke-linecap="round"></path><path d="M 179.500,102.000 C 173.500,108.000 173.772,108.249 167.500,114.000" stroke-width="2.865" stroke="black" fill="none" stroke-linecap="round"></path><path d="M 167.500,114.000 C 161.739,120.260 161.500,120.000 155.500,126.000" stroke-width="2.886" stroke="black" fill="none" stroke-linecap="round"></path><path d="M 155.500,126.000 C 149.020,131.523 149.239,131.760 142.500,137.000" stroke-width="2.832" stroke="black" fill="none" stroke-linecap="round"></path><path d="M 142.500,137.000 C 136.622,142.154 136.520,142.023 130.500,147.000" stroke-width="2.901" stroke="black" fill="none" stroke-linecap="round"></path><path d="M 130.500,147.000 C 124.689,151.780 124.622,151.654 118.500,156.000" stroke-width="2.903" stroke="black" fill="none" stroke-linecap="round"></path><path d="M 118.500,156.000 C 113.481,158.968 113.689,159.280 108.500,162.000" stroke-width="3.193" stroke="black" fill="none" stroke-linecap="round"></path><path d="M 108.500,162.000 C 101.938,165.903 101.981,165.968 95.500,170.000" stroke-width="3.238" stroke="black" fill="none" stroke-linecap="round"></path><path d="M 95.500,170.000 C 91.223,173.402 90.938,172.903 86.500,176.000" stroke-width="3.426" stroke="black" fill="none" stroke-linecap="round"></path><path d="M 86.500,176.000 C 81.131,178.834 81.223,178.902 75.500,181.000" stroke-width="3.268" stroke="black" fill="none" stroke-linecap="round"></path><path d="M 75.500,181.000 C 68.058,183.700 68.131,183.834 60.500,186.000" stroke-width="3.072" stroke="black" fill="none" stroke-linecap="round"></path><path d="M 60.500,186.000 C 56.552,187.421 56.558,187.200 52.500,188.000" stroke-width="3.493" stroke="black" fill="none" stroke-linecap="round"></path><path d="M 52.500,188.000 C 49.500,188.000 49.552,188.421 46.500,188.000" stroke-width="3.891" stroke="black" fill="none" stroke-linecap="round"></path><path d="M 46.500,188.000 C 41.133,189.867 43.000,188.000 39.500,188.000" stroke-width="4.430" stroke="black" fill="none" stroke-linecap="round"></path><path d="M 39.500,188.000 C 38.902,183.885 37.633,185.867 39.500,180.000" stroke-width="4.479" stroke="black" fill="none" stroke-linecap="round"></path><path d="M 39.500,180.000 C 39.868,177.041 39.902,177.385 41.500,175.000" stroke-width="4.373" stroke="black" fill="none" stroke-linecap="round"></path><path d="M 41.500,175.000 C 44.500,172.500 43.868,172.041 47.500,170.000" stroke-width="3.997" stroke="black" fill="none" stroke-linecap="round"></path><path d="M 47.500,170.000 C 50.355,167.306 50.500,167.500 53.500,165.000" stroke-width="3.896" stroke="black" fill="none" stroke-linecap="round"></path><path d="M 53.500,165.000 C 58.000,162.000 57.855,161.806 62.500,159.000" stroke-width="3.672" stroke="black" fill="none" stroke-linecap="round"></path><path d="M 62.500,159.000 C 66.904,155.845 67.000,156.000 71.500,153.000" stroke-width="3.505" stroke="black" fill="none" stroke-linecap="round"></path><path d="M 71.500,153.000 C 77.453,149.418 77.404,149.345 83.500,146.000" stroke-width="3.208" stroke="black" fill="none" stroke-linecap="round"></path><path d="M 83.500,146.000 C 89.062,143.108 88.953,142.918 94.500,140.000" stroke-width="3.170" stroke="black" fill="none" stroke-linecap="round"></path><path d="M 94.500,140.000 C 99.260,136.495 99.562,137.108 104.500,134.000" stroke-width="3.228" stroke="black" fill="none" stroke-linecap="round"></path><path d="M 104.500,134.000 C 109.928,131.773 109.760,131.495 115.500,130.000" stroke-width="3.242" stroke="black" fill="none" stroke-linecap="round"></path><path d="M 115.500,130.000 C 120.946,128.262 120.928,128.273 126.500,127.000" stroke-width="3.329" stroke="black" fill="none" stroke-linecap="round"></path><path d="M 126.500,127.000 C 132.000,126.000 131.946,125.762 137.500,125.000" stroke-width="3.316" stroke="black" fill="none" stroke-linecap="round"></path><path d="M 137.500,125.000 C 142.967,123.755 143.000,124.000 148.500,123.000" stroke-width="3.313" stroke="black" fill="none" stroke-linecap="round"></path><path d="M 148.500,123.000 C 154.102,123.028 153.967,122.255 159.500,122.000" stroke-width="3.380" stroke="black" fill="none" stroke-linecap="round"></path><path d="M 159.500,122.000 C 164.441,120.265 164.602,121.028 169.500,119.000" stroke-width="3.397" stroke="black" fill="none" stroke-linecap="round"></path><path d="M 169.500,119.000 C 174.540,118.167 174.441,117.765 179.500,117.000" stroke-width="3.424" stroke="black" fill="none" stroke-linecap="round"></path><path d="M 179.500,117.000 C 183.117,116.301 183.040,116.167 186.500,115.000" stroke-width="3.722" stroke="black" fill="none" stroke-linecap="round"></path><path d="M 186.500,115.000 C 189.500,113.500 189.617,113.801 192.500,112.000" stroke-width="3.888" stroke="black" fill="none" stroke-linecap="round"></path><path d="M 180.500,88.000 C 178.102,90.788 179.000,91.000 177.500,94.000" stroke-width="4.976" stroke="black" fill="none" stroke-linecap="round"></path><path d="M 177.500,94.000 C 177.500,99.000 176.602,98.788 177.500,104.000" stroke-width="3.939" stroke="black" fill="none" stroke-linecap="round"></path><path d="M 177.500,104.000 C 177.500,109.000 177.500,109.000 177.500,114.000" stroke-width="3.592" stroke="black" fill="none" stroke-linecap="round"></path><path d="M 177.500,114.000 C 177.500,119.500 177.500,119.500 177.500,125.000" stroke-width="3.407" stroke="black" fill="none" stroke-linecap="round"></path><path d="M 177.500,125.000 C 177.268,128.514 177.500,128.500 177.500,132.000" stroke-width="3.746" stroke="black" fill="none" stroke-linecap="round"></path><path d="M 177.500,132.000 C 177.659,136.077 177.768,136.014 178.500,140.000" stroke-width="3.742" stroke="black" fill="none" stroke-linecap="round"></path><path d="M 178.500,140.000 C 179.199,143.138 179.159,143.077 180.500,146.000" stroke-width="3.985" stroke="black" fill="none" stroke-linecap="round"></path><path d="M 180.500,146.000 C 181.480,148.980 181.699,148.638 183.500,151.000" stroke-width="4.080" stroke="black" fill="none" stroke-linecap="round"></path><path d="M 183.500,151.000 C 186.641,154.622 186.480,153.980 190.500,156.000" stroke-width="4.358" stroke="black" fill="none" stroke-linecap="round"></path><path d="M 190.500,156.000 C 194.619,157.601 193.641,157.122 197.500,156.000" stroke-width="4.090" stroke="black" fill="none" stroke-linecap="round"></path><path d="M 197.500,156.000 C 203.921,151.773 203.619,152.601 208.500,146.000" stroke-width="3.191" stroke="black" fill="none" stroke-linecap="round"></path><path d="M 208.500,146.000 C 215.171,136.859 215.421,137.273 220.500,127.000" stroke-width="3.325" stroke="black" fill="none" stroke-linecap="round"></path><path d="M 220.500,127.000 C 224.670,118.072 225.171,118.359 228.500,109.000" stroke-width="2.787" stroke="black" fill="none" stroke-linecap="round"></path><path d="M 228.500,109.000 C 233.761,95.392 234.170,95.572 239.500,82.000" stroke-width="2.179" stroke="black" fill="none" stroke-linecap="round"></path><path d="M 239.500,82.000 C 241.285,77.875 241.261,77.892 243.500,74.000" stroke-width="3.147" stroke="black" fill="none" stroke-linecap="round"></path><path d="M 243.500,74.000 C 246.610,67.333 245.285,70.875 247.500,68.000" stroke-width="4.062" stroke="black" fill="none" stroke-linecap="round"></path><path d="M 247.500,68.000 C 248.443,72.663 248.610,68.833 247.500,77.000" stroke-width="4.221" stroke="black" fill="none" stroke-linecap="round"></path><path d="M 247.500,77.000 C 245.059,84.022 245.943,84.163 242.500,91.000" stroke-width="3.214" stroke="black" fill="none" stroke-linecap="round"></path><path d="M 242.500,91.000 C 238.232,98.688 239.559,99.022 236.500,107.000" stroke-width="2.851" stroke="black" fill="none" stroke-linecap="round"></path><path d="M 236.500,107.000 C 232.854,123.084 233.232,122.688 232.500,139.000" stroke-width="2.904" stroke="black" fill="none" stroke-linecap="round"></path><path d="M 232.500,139.000 C 232.595,146.190 232.354,145.584 235.500,152.000" stroke-width="3.173" stroke="black" fill="none" stroke-linecap="round"></path><path d="M 235.500,152.000 C 239.391,158.192 238.595,158.190 244.500,163.000" stroke-width="3.096" stroke="black" fill="none" stroke-linecap="round"></path><path d="M 313.500,62.000 C 305.102,60.112 306.000,62.500 298.500,63.000" stroke-width="4.047" stroke="black" fill="none" stroke-linecap="round"></path><path d="M 298.500,63.000 C 289.607,69.051 289.102,67.112 281.500,76.000" stroke-width="3.696" stroke="black" fill="none" stroke-linecap="round"></path><path d="M 281.500,76.000 C 275.782,81.296 275.607,81.051 270.500,87.000" stroke-width="3.062" stroke="black" fill="none" stroke-linecap="round"></path><path d="M 270.500,87.000 C 263.199,94.756 263.282,94.796 256.500,103.000" stroke-width="2.645" stroke="black" fill="none" stroke-linecap="round"></path><path d="M 256.500,103.000 C 250.544,111.033 250.199,110.756 244.500,119.000" stroke-width="2.542" stroke="black" fill="none" stroke-linecap="round"></path><path d="M 244.500,119.000 C 239.235,125.315 239.544,125.533 234.500,132.000" stroke-width="2.702" stroke="black" fill="none" stroke-linecap="round"></path><path d="M 234.500,132.000 C 230.981,137.488 230.735,137.315 227.500,143.000" stroke-width="3.022" stroke="black" fill="none" stroke-linecap="round"></path><path d="M 227.500,143.000 C 224.972,146.983 224.981,146.988 222.500,151.000" stroke-width="3.366" stroke="black" fill="none" stroke-linecap="round"></path><path d="M 222.500,151.000 C 219.314,156.744 220.972,153.483 219.500,156.000" stroke-width="3.902" stroke="black" fill="none" stroke-linecap="round"></path><path d="M 296.500,53.000 C 298.725,56.868 298.000,57.000 299.500,61.000" stroke-width="5.055" stroke="black" fill="none" stroke-linecap="round"></path><path d="M 299.500,61.000 C 299.035,65.051 300.225,64.868 299.500,69.000" stroke-width="4.126" stroke="black" fill="none" stroke-linecap="round"></path><path d="M 299.500,69.000 C 300.500,73.500 300.035,73.551 301.500,78.000" stroke-width="3.779" stroke="black" fill="none" stroke-linecap="round"></path><path d="M 301.500,78.000 C 302.818,82.450 302.500,82.500 303.500,87.000" stroke-width="3.629" stroke="black" fill="none" stroke-linecap="round"></path><path d="M 303.500,87.000 C 303.755,92.533 304.318,92.450 304.500,98.000" stroke-width="3.413" stroke="black" fill="none" stroke-linecap="round"></path><path d="M 304.500,98.000 C 305.262,103.554 305.255,103.533 306.500,109.000" stroke-width="3.399" stroke="black" fill="none" stroke-linecap="round"></path><path d="M 306.500,109.000 C 307.605,114.631 307.762,114.554 309.500,120.000" stroke-width="3.318" stroke="black" fill="none" stroke-linecap="round"></path><path d="M 309.500,120.000 C 313.559,131.707 313.605,131.631 318.500,143.000" stroke-width="3.304" stroke="black" fill="none" stroke-linecap="round"></path><path d="M 318.500,143.000 C 321.078,147.459 320.559,147.707 323.500,152.000" stroke-width="3.441" stroke="black" fill="none" stroke-linecap="round"></path><path d="M 323.500,152.000 C 325.301,158.240 325.078,154.959 326.500,158.000" stroke-width="3.835" stroke="black" fill="none" stroke-linecap="round"></path><path d="M 326.500,158.000 C 328.228,154.541 327.801,157.740 328.500,151.000" stroke-width="4.682" stroke="black" fill="none" stroke-linecap="round"></path><path d="M 328.500,151.000 C 329.132,146.904 328.728,148.041 327.500,145.000" stroke-width="4.744" stroke="black" fill="none" stroke-linecap="round"></path><path d="M 327.500,145.000 C 325.032,144.181 326.132,143.404 322.500,144.000" stroke-width="4.846" stroke="black" fill="none" stroke-linecap="round"></path><path d="M 322.500,144.000 C 318.000,144.000 318.032,143.681 313.500,144.000" stroke-width="4.540" stroke="black" fill="none" stroke-linecap="round"></path><path d="M 313.500,144.000 C 309.986,144.232 310.000,144.000 306.500,144.000" stroke-width="4.136" stroke="black" fill="none" stroke-linecap="round"></path><path d="M 306.500,144.000 C 302.508,143.422 302.486,143.732 298.500,143.000" stroke-width="3.906" stroke="black" fill="none" stroke-linecap="round"></path><path d="M 298.500,143.000 C 292.998,142.524 293.008,142.422 287.500,142.000" stroke-width="3.545" stroke="black" fill="none" stroke-linecap="round"></path><path d="M 287.500,142.000 C 282.513,141.239 282.498,141.524 277.500,141.000" stroke-width="3.481" stroke="black" fill="none" stroke-linecap="round"></path><path d="M 277.500,141.000 C 271.982,141.289 272.013,140.739 266.500,141.000" stroke-width="3.435" stroke="black" fill="none" stroke-linecap="round"></path><path d="M 266.500,141.000 C 262.513,140.287 262.482,140.789 258.500,140.000" stroke-width="3.643" stroke="black" fill="none" stroke-linecap="round"></path><path d="M 258.500,140.000 C 255.473,140.270 255.513,139.787 252.500,140.000" stroke-width="3.989" stroke="black" fill="none" stroke-linecap="round"></path><path d="M 371.500,59.000 C 368.681,56.734 368.500,57.500 365.500,56.000" stroke-width="4.043" stroke="black" fill="none" stroke-linecap="round"></path><path d="M 365.500,56.000 C 362.000,56.000 362.181,55.234 358.500,56.000" stroke-width="4.048" stroke="black" fill="none" stroke-linecap="round"></path><path d="M 358.500,56.000 C 353.500,56.000 353.500,56.000 348.500,56.000" stroke-width="3.787" stroke="black" fill="none" stroke-linecap="round"></path><path d="M 348.500,56.000 C 342.000,56.000 342.000,56.000 335.500,56.000" stroke-width="3.407" stroke="black" fill="none" stroke-linecap="round"></path><path d="M 335.500,56.000 C 317.291,54.383 317.500,56.000 299.500,56.000" stroke-width="2.030" stroke="black" fill="none" stroke-linecap="round"></path><path d="M 299.500,56.000 C 289.953,58.334 289.791,56.883 280.500,61.000" stroke-width="2.924" stroke="black" fill="none" stroke-linecap="round"></path><path d="M 280.500,61.000 C 270.146,63.141 270.453,63.834 260.500,67.000" stroke-width="2.568" stroke="black" fill="none" stroke-linecap="round"></path><path d="M 260.500,67.000 C 252.707,70.527 252.646,70.141 245.500,75.000" stroke-width="2.677" stroke="black" fill="none" stroke-linecap="round"></path><path d="M 245.500,75.000 C 237.798,79.250 238.207,79.527 231.500,85.000" stroke-width="2.759" stroke="black" fill="none" stroke-linecap="round"></path><path d="M 231.500,85.000 C 225.906,89.870 226.298,89.750 222.500,96.000" stroke-width="2.965" stroke="black" fill="none" stroke-linecap="round"></path><path d="M 222.500,96.000 C 218.018,103.800 218.406,103.370 216.500,112.000" stroke-width="2.909" stroke="black" fill="none" stroke-linecap="round"></path><path d="M 216.500,112.000 C 215.462,118.159 215.518,117.300 217.500,123.000" stroke-width="3.242" stroke="black" fill="none" stroke-linecap="round"></path><path d="M 217.500,123.000 C 220.649,127.363 219.462,127.659 224.500,131.000" stroke-width="3.337" stroke="black" fill="none" stroke-linecap="round"></path><path d="M 224.500,131.000 C 230.000,135.500 229.649,135.863 235.500,140.000" stroke-width="3.078" stroke="black" fill="none" stroke-linecap="round"></path><path d="M 235.500,140.000 C 240.584,145.142 241.000,144.500 246.500,149.000" stroke-width="3.068" stroke="black" fill="none" stroke-linecap="round"></path><path d="M 246.500,149.000 C 252.283,152.567 252.084,152.642 258.500,155.000" stroke-width="3.121" stroke="black" fill="none" stroke-linecap="round"></path><path d="M 258.500,155.000 C 263.893,157.137 263.783,157.067 269.500,158.000" stroke-width="3.234" stroke="black" fill="none" stroke-linecap="round"></path><path d="M 269.500,158.000 C 276.991,158.758 276.893,159.137 284.500,159.000" stroke-width="3.218" stroke="black" fill="none" stroke-linecap="round"></path><path d="M 284.500,159.000 C 292.621,159.985 292.491,159.258 300.500,159.000" stroke-width="2.923" stroke="black" fill="none" stroke-linecap="round"></path><path d="M 300.500,159.000 C 308.825,157.878 308.621,157.985 316.500,155.000" stroke-width="2.814" stroke="black" fill="none" stroke-linecap="round"></path><path d="M 316.500,155.000 C 324.553,151.102 324.825,151.878 332.500,147.000" stroke-width="2.701" stroke="black" fill="none" stroke-linecap="round"></path><path d="M 332.500,147.000 C 340.293,143.473 340.053,143.102 347.500,139.000" stroke-width="2.719" stroke="black" fill="none" stroke-linecap="round"></path><path d="M 347.500,139.000 C 355.062,134.633 354.793,134.473 361.500,129.000" stroke-width="2.772" stroke="black" fill="none" stroke-linecap="round"></path><path d="M 361.500,129.000 C 367.453,124.166 367.062,124.133 371.500,118.000" stroke-width="2.871" stroke="black" fill="none" stroke-linecap="round"></path><path d="M 371.500,118.000 C 378.286,107.885 377.953,108.166 382.500,97.000" stroke-width="3.193" stroke="black" fill="none" stroke-linecap="round"></path><path d="M 382.500,97.000 C 383.500,92.000 384.286,92.385 383.500,87.000" stroke-width="3.372" stroke="black" fill="none" stroke-linecap="round"></path><path d="M 383.500,87.000 C 384.985,80.935 383.500,82.000 382.500,77.000" stroke-width="3.430" stroke="black" fill="none" stroke-linecap="round"></path><path d="M 382.500,77.000 C 377.976,70.618 378.985,71.435 371.500,68.000" stroke-width="3.789" stroke="black" fill="none" stroke-linecap="round"></path><path d="M 371.500,68.000 C 353.760,61.095 354.476,61.118 335.500,58.000" stroke-width="2.096" stroke="black" fill="none" stroke-linecap="round"></path><path d="M 335.500,58.000 C 323.995,57.750 324.260,56.095 312.500,58.000" stroke-width="2.294" stroke="black" fill="none" stroke-linecap="round"></path><path d="M 312.500,58.000 C 300.734,57.003 300.995,58.250 289.500,59.000" stroke-width="2.413" stroke="black" fill="none" stroke-linecap="round"></path><path d="M 289.500,59.000 C 278.098,61.584 278.234,61.003 267.500,66.000" stroke-width="2.394" stroke="black" fill="none" stroke-linecap="round"></path><path d="M 267.500,66.000 C 260.235,69.596 260.098,69.084 253.500,74.000" stroke-width="2.665" stroke="black" fill="none" stroke-linecap="round"></path><path d="M 253.500,74.000 C 247.074,78.045 247.235,78.096 241.500,83.000" stroke-width="2.828" stroke="black" fill="none" stroke-linecap="round"></path><path d="M 241.500,83.000 C 237.609,86.084 238.074,86.045 235.500,90.000" stroke-width="3.308" stroke="black" fill="none" stroke-linecap="round"></path><path d="M 235.500,90.000 C 234.272,93.041 234.109,92.584 234.500,96.000" stroke-width="3.851" stroke="black" fill="none" stroke-linecap="round"></path><path d="M 234.500,96.000 C 234.394,100.262 234.772,99.541 236.500,103.000" stroke-width="3.862" stroke="black" fill="none" stroke-linecap="round"></path><path d="M 365.500,120.000 C 362.500,122.363 364.000,122.500 362.500,125.000" stroke-width="5.006" stroke="black" fill="none" stroke-linecap="round"></path><path d="M 362.500,125.000 C 362.914,130.127 362.500,128.863 365.500,133.000" stroke-width="3.987" stroke="black" fill="none" stroke-linecap="round"></path><path d="M 365.500,133.000 C 368.386,134.539 367.414,135.127 371.500,135.000" stroke-width="4.065" stroke="black" fill="none" stroke-linecap="round"></path><path d="M 371.500,135.000 C 382.111,137.725 381.886,136.539 392.500,137.000" stroke-width="3.600" stroke="black" fill="none" stroke-linecap="round"></path><path d="M 392.500,137.000 C 404.206,135.904 403.611,136.225 414.500,132.000" stroke-width="3.444" stroke="black" fill="none" stroke-linecap="round"></path><path d="M 414.500,132.000 C 418.414,129.367 418.706,130.404 421.500,126.000" stroke-width="3.633" stroke="black" fill="none" stroke-linecap="round"></path><path d="M 421.500,126.000 C 424.320,123.305 423.914,123.367 425.500,120.000" stroke-width="3.849" stroke="black" fill="none" stroke-linecap="round"></path><path d="M 425.500,120.000 C 427.865,115.002 426.820,116.305 426.500,112.000" stroke-width="4.312" stroke="black" fill="none" stroke-linecap="round"></path><path d="M 426.500,112.000 C 423.693,109.684 425.365,109.502 420.500,109.000" stroke-width="4.062" stroke="black" fill="none" stroke-linecap="round"></path><path d="M 420.500,109.000 C 416.357,108.188 416.693,108.184 412.500,109.000" stroke-width="3.838" stroke="black" fill="none" stroke-linecap="round"></path><path d="M 412.500,109.000 C 406.566,110.214 406.857,110.188 401.500,113.000" stroke-width="3.527" stroke="black" fill="none" stroke-linecap="round"></path><path d="M 401.500,113.000 C 396.662,116.158 396.566,115.714 392.500,120.000" stroke-width="3.413" stroke="black" fill="none" stroke-linecap="round"></path><path d="M 392.500,120.000 C 390.130,122.284 390.162,122.158 388.500,125.000" stroke-width="3.858" stroke="black" fill="none" stroke-linecap="round"></path><path d="M 388.500,125.000 C 386.973,127.399 387.130,127.284 386.500,130.000" stroke-width="4.097" stroke="black" fill="none" stroke-linecap="round"></path><path d="M 386.500,130.000 C 384.754,134.079 385.973,132.899 386.500,136.000" stroke-width="4.139" stroke="black" fill="none" stroke-linecap="round"></path></svg>