<svg xmlns="http://www.w3.org/2000/svg" xmlns:xlink="http://www.w3.org/1999/xlink" viewBox="0 0 692 576" width="692" height="576"><path d="M 436.000,307.000 C 428.134,310.524 428.000,310.000 420.000,313.000" stroke-width="4.278" stroke="black" fill="none" stroke-linecap="round"></path><path d="M 420.000,313.000 C 416.521,313.707 416.634,314.024 413.000,314.000" stroke-width="4.007" stroke="black" fill="none" stroke-linecap="round"></path><path d="M 413.000,314.000 C 404.505,314.595 404.521,314.707 396.000,315.000" stroke-width="3.087" stroke="black" fill="none" stroke-linecap="round"></path><path d="M 396.000,315.000 C 383.499,315.479 383.505,315.595 371.000,316.000" stroke-width="2.470" stroke="black" fill="none" stroke-linecap="round"></path><path d="M 371.000,316.000 C 359.505,316.744 359.499,316.479 348.000,317.000" stroke-width="2.413" stroke="black" fill="none" stroke-linecap="round"></path><path d="M 348.000,317.000 C 336.770,318.305 337.005,317.244 326.000,317.000" stroke-width="2.382" stroke="black" fill="none" stroke-linecap="round"></path><path d="M 326.000,317.000 C 319.929,315.957 320.270,316.305 315.000,313.000" stroke-width="2.929" stroke="black" fill="none" stroke-linecap="round"></path><path d="M 315.000,313.000 C 309.715,309.643 309.929,309.957 306.000,305.000" stroke-width="3.224" stroke="black" fill="none" stroke-linecap="round"></path><path d="M 306.000,305.000 C 299.000,299.409 301.715,299.643 299.000,293.000" stroke-width="3.072" stroke="black" fill="none" stroke-linecap="round"></path><path d="M 299.000,293.000 C 301.331,280.987 299.000,281.909 306.000,270.000" stroke-width="2.575" stroke="black" fill="none" stroke-linecap="round"></path><path d="M 306.000,270.000 C 310.013,260.698 309.831,260.987 316.000,253.000" stroke-width="2.702" stroke="black" fill="none" stroke-linecap="round"></path><path d="M 316.000,253.000 C 320.483,246.334 320.513,247.198 327.000,243.000" stroke-width="2.904" stroke="black" fill="none" stroke-linecap="round"></path><path d="M 327.000,243.000 C 342.683,235.799 341.983,235.334 359.000,231.000" stroke-width="2.026" stroke="black" fill="none" stroke-linecap="round"></path><path d="M 359.000,231.000 C 368.522,228.000 368.183,228.299 378.000,228.000" stroke-width="2.419" stroke="black" fill="none" stroke-linecap="round"></path><path d="M 378.000,228.000 C 386.147,228.964 386.022,228.000 394.000,231.000" stroke-width="2.720" stroke="black" fill="none" stroke-linecap="round"></path><path d="M 394.000,231.000 C 400.980,231.172 399.647,232.464 405.000,235.000" stroke-width="3.070" stroke="black" fill="none" stroke-linecap="round"></path><path d="M 405.000,235.000 C 411.854,242.349 411.480,241.172 415.000,251.000" stroke-width="2.711" stroke="black" fill="none" stroke-linecap="round"></path><path d="M 415.000,251.000 C 418.272,259.658 417.854,258.849 417.000,268.000" stroke-width="2.775" stroke="black" fill="none" stroke-linecap="round"></path><path d="M 417.000,268.000 C 413.722,290.144 413.772,289.158 406.000,310.000" stroke-width="1.817" stroke="black" fill="none" stroke-linecap="round"></path><path d="M 406.000,310.000 C 401.416,316.391 403.222,317.144 396.000,322.000" stroke-width="2.476" stroke="black" fill="none" stroke-linecap="round"></path><path d="M 396.000,322.000 C 387.771,331.468 387.416,330.891 378.000,339.000" stroke-width="2.343" stroke="black" fill="none" stroke-linecap="round"></path><path d="M 378.000,339.000 C 363.798,350.926 363.771,349.968 348.000,359.000" stroke-width="1.813" stroke="black" fill="none" stroke-linecap="round"></path><path d="M 348.000,359.000 C 340.300,362.304 341.298,362.426 333.000,362.000" stroke-width="2.488" stroke="black" fill="none" stroke-linecap="round"></path><path d="M 333.000,362.000 C 327.465,361.300 328.300,361.804 324.000,358.000" stroke-width="3.109" stroke="black" fill="none" stroke-linecap="round"></path><path d="M 324.000,358.000 C 317.152,350.485 316.965,351.300 312.000,342.000" stroke-width="2.585" stroke="black" fill="none" stroke-linecap="round"></path><path d="M 312.000,342.000 C 307.787,336.298 308.652,336.485 307.000,330.000" stroke-width="2.927" stroke="black" fill="none" stroke-linecap="round"></path><path d="M 307.000,330.000 C 305.698,319.497 305.787,320.298 308.000,310.000" stroke-width="2.737" stroke="black" fill="none" stroke-linecap="round"></path><path d="M 308.000,310.000 C 310.814,303.017 309.698,302.997 315.000,297.000" stroke-width="2.866" stroke="black" fill="none" stroke-linecap="round"></path><path d="M 315.000,297.000 C 319.141,291.627 318.814,291.517 324.000,287.000" stroke-width="2.996" stroke="black" fill="none" stroke-linecap="round"></path><path d="M 324.000,287.000 C 329.671,281.520 329.641,281.627 336.000,277.000" stroke-width="3.007" stroke="black" fill="none" stroke-linecap="round"></path><path d="M 336.000,277.000 C 341.975,270.185 340.171,274.020 345.000,272.000" stroke-width="3.338" stroke="black" fill="none" stroke-linecap="round"></path><path d="M 345.000,272.000 C 353.110,279.299 349.475,274.685 351.000,286.000" stroke-width="3.953" stroke="black" fill="none" stroke-linecap="round"></path><path d="M 351.000,286.000 C 340.173,306.449 344.610,306.299 328.000,326.000" stroke-width="1.926" stroke="black" fill="none" stroke-linecap="round"></path><path d="M 328.000,326.000 C 322.942,332.456 323.673,332.949 318.000,339.000" stroke-width="2.402" stroke="black" fill="none" stroke-linecap="round"></path><path d="M 318.000,339.000 C 305.800,358.350 304.442,356.956 291.000,375.000" stroke-width="1.669" stroke="black" fill="none" stroke-linecap="round"></path><path d="M 291.000,375.000 C 284.737,379.899 285.800,380.850 278.000,384.000" stroke-width="2.418" stroke="black" fill="none" stroke-linecap="round"></path><path d="M 278.000,384.000 C 273.293,387.371 273.237,386.899 268.000,389.000" stroke-width="2.981" stroke="black" fill="none" stroke-linecap="round"></path><path d="M 268.000,389.000 C 260.038,390.904 260.293,391.371 252.000,392.000" stroke-width="2.843" stroke="black" fill="none" stroke-linecap="round"></path><path d="M 252.000,392.000 C 249.000,392.000 249.038,392.404 246.000,392.000" stroke-width="3.651" stroke="black" fill="none" stroke-linecap="round"></path><path d="M 246.000,392.000 C 240.976,393.913 242.000,392.000 238.000,392.000" stroke-width="4.239" stroke="black" fill="none" stroke-linecap="round"></path><path d="M 238.000,392.000 C 233.733,388.008 233.976,389.413 232.000,383.000" stroke-width="4.237" stroke="black" fill="none" stroke-linecap="round"></path><path d="M 232.000,383.000 C 230.807,374.431 229.233,375.008 229.000,366.000" stroke-width="3.109" stroke="black" fill="none" stroke-linecap="round"></path><path d="M 229.000,366.000 C 227.526,360.493 227.807,360.431 226.000,355.000" stroke-width="3.285" stroke="black" fill="none" stroke-linecap="round"></path><path d="M 226.000,355.000 C 222.987,342.325 222.526,342.493 219.000,330.000" stroke-width="2.464" stroke="black" fill="none" stroke-linecap="round"></path><path d="M 219.000,330.000 C 216.940,325.526 217.487,325.325 215.000,321.000" stroke-width="3.142" stroke="black" fill="none" stroke-linecap="round"></path><path d="M 215.000,321.000 C 212.647,318.474 213.940,318.526 213.000,316.000" stroke-width="4.382" stroke="black" fill="none" stroke-linecap="round"></path><path d="M 213.000,316.000 C 213.613,310.175 213.647,311.474 217.000,307.000" stroke-width="4.347" stroke="black" fill="none" stroke-linecap="round"></path><path d="M 217.000,307.000 C 222.621,301.172 221.613,302.675 229.000,301.000" stroke-width="3.358" stroke="black" fill="none" stroke-linecap="round"></path><path d="M 229.000,301.000 C 243.416,299.920 241.121,300.672 254.000,306.000" stroke-width="2.497" stroke="black" fill="none" stroke-linecap="round"></path><path d="M 254.000,306.000 C 267.137,315.591 266.916,313.420 276.000,328.000" stroke-width="2.055" stroke="black" fill="none" stroke-linecap="round"></path><path d="M 276.000,328.000 C 280.506,337.836 282.137,336.591 284.000,348.000" stroke-width="2.283" stroke="black" fill="none" stroke-linecap="round"></path><path d="M 284.000,348.000 C 287.178,353.945 286.006,353.836 287.000,360.000" stroke-width="2.841" stroke="black" fill="none" stroke-linecap="round"></path><path d="M 287.000,360.000 C 285.692,371.231 286.678,370.945 283.000,382.000" stroke-width="2.540" stroke="black" fill="none" stroke-linecap="round"></path><path d="M 283.000,382.000 C 282.245,385.595 282.192,385.231 280.000,388.000" stroke-width="3.393" stroke="black" fill="none" stroke-linecap="round"></path><path d="M 280.000,388.000 C 275.006,393.304 275.245,393.095 269.000,397.000" stroke-width="3.023" stroke="black" fill="none" stroke-linecap="round"></path><path d="M 269.000,397.000 C 261.652,400.882 262.006,401.304 254.000,404.000" stroke-width="2.837" stroke="black" fill="none" stroke-linecap="round"></path><path d="M 254.000,404.000 C 248.073,407.422 248.152,406.382 242.000,408.000" stroke-width="3.044" stroke="black" fill="none" stroke-linecap="round"></path><path d="M 242.000,408.000 C 237.412,407.298 237.573,408.422 233.000,406.000" stroke-width="3.442" stroke="black" fill="none" stroke-linecap="round"></path><path d="M 233.000,406.000 C 227.986,405.820 228.912,404.798 225.000,403.000" stroke-width="3.597" stroke="black" fill="none" stroke-linecap="round"></path><path d="M 225.000,403.000 C 217.312,396.861 218.986,397.320 215.000,389.000" stroke-width="2.996" stroke="black" fill="none" stroke-linecap="round"></path><path d="M 215.000,389.000 C 213.000,378.333 212.312,379.861 215.000,369.000" stroke-width="2.631" stroke="black" fill="none" stroke-linecap="round"></path><path d="M 215.000,369.000 C 216.694,363.303 216.000,364.333 221.000,361.000" stroke-width="3.208" stroke="black" fill="none" stroke-linecap="round"></path><path d="M 221.000,361.000 C 238.992,351.386 238.194,351.803 258.000,346.000" stroke-width="1.821" stroke="black" fill="none" stroke-linecap="round"></path><path d="M 258.000,346.000 C 269.524,343.470 268.992,342.886 281.000,344.000" stroke-width="2.182" stroke="black" fill="none" stroke-linecap="round"></path><path d="M 281.000,344.000 C 301.972,346.754 302.024,344.970 323.000,349.000" stroke-width="1.750" stroke="black" fill="none" stroke-linecap="round"></path><path d="M 323.000,349.000 C 353.501,351.988 353.472,352.254 384.000,355.000" stroke-width="1.294" stroke="black" fill="none" stroke-linecap="round"></path><path d="M 384.000,355.000 C 394.014,355.870 394.001,355.988 404.000,357.000" stroke-width="1.987" stroke="black" fill="none" stroke-linecap="round"></path><path d="M 404.000,357.000 C 420.504,358.970 420.514,358.870 437.000,361.000" stroke-width="1.928" stroke="black" fill="none" stroke-linecap="round"></path><path d="M 437.000,361.000 C 452.962,363.605 453.004,362.970 469.000,365.000" stroke-width="1.937" stroke="black" fill="none" stroke-linecap="round"></path><path d="M 469.000,365.000 C 476.087,365.768 475.962,365.605 483.000,365.000" stroke-width="2.576" stroke="black" fill="none" stroke-linecap="round"></path><path d="M 483.000,365.000 C 489.469,363.351 489.587,364.268 496.000,362.000" stroke-width="2.954" stroke="black" fill="none" stroke-linecap="round"></path><path d="M 496.000,362.000 C 504.078,360.800 503.969,360.351 512.000,359.000" stroke-width="2.897" stroke="black" fill="none" stroke-linecap="round"></path><path d="M 512.000,359.000 C 514.955,357.830 515.078,358.300 518.000,357.000" stroke-width="3.646" stroke="black" fill="none" stroke-linecap="round"></path></svg>