<svg xmlns="http://www.w3.org/2000/svg" xmlns:xlink="http://www.w3.org/1999/xlink" viewBox="0 0 467 366" width="467" height="366"><path d="M 130.000,241.750 C 124.318,242.636 124.500,241.750 119.000,241.750" stroke-width="5.398" stroke="black" fill="none" stroke-linecap="round"></path><path d="M 119.000,241.750 C 115.398,240.449 115.318,241.136 112.000,238.750" stroke-width="4.180" stroke="black" fill="none" stroke-linecap="round"></path><path d="M 112.000,238.750 C 109.424,237.366 109.398,237.449 107.000,235.750" stroke-width="4.186" stroke="black" fill="none" stroke-linecap="round"></path><path d="M 107.000,235.750 C 103.318,233.465 103.424,233.366 100.000,230.750" stroke-width="4.375" stroke="black" fill="none" stroke-linecap="round"></path><path d="M 100.000,230.750 C 98.100,228.640 97.818,228.965 96.000,226.750" stroke-width="4.815" stroke="black" fill="none" stroke-linecap="round"></path><path d="M 96.000,226.750 C 93.000,224.250 93.100,224.140 90.000,221.750" stroke-width="4.859" stroke="black" fill="none" stroke-linecap="round"></path><path d="M 90.000,221.750 C 85.582,219.914 87.000,219.250 84.000,216.750" stroke-width="4.863" stroke="black" fill="none" stroke-linecap="round"></path><path d="M 84.000,216.750 C 82.694,212.622 82.582,213.914 84.000,209.750" stroke-width="5.269" stroke="black" fill="none" stroke-linecap="round"></path><path d="M 84.000,209.750 C 86.483,207.728 85.194,207.122 89.000,205.750" stroke-width="4.326" stroke="black" fill="none" stroke-linecap="round"></path><path d="M 89.000,205.750 C 93.500,202.250 93.483,202.228 98.000,198.750" stroke-width="3.540" stroke="black" fill="none" stroke-linecap="round"></path><path d="M 98.000,198.750 C 102.265,194.907 102.500,195.250 107.000,191.750" stroke-width="3.357" stroke="black" fill="none" stroke-linecap="round"></path><path d="M 107.000,191.750 C 114.565,187.353 114.265,186.907 122.000,182.750" stroke-width="2.858" stroke="black" fill="none" stroke-linecap="round"></path><path d="M 122.000,182.750 C 125.067,180.845 125.065,180.853 128.000,178.750" stroke-width="3.503" stroke="black" fill="none" stroke-linecap="round"></path><path d="M 128.000,178.750 C 131.783,175.413 132.067,175.845 136.000,172.750" stroke-width="3.474" stroke="black" fill="none" stroke-linecap="round"></path><path d="M 136.000,172.750 C 141.484,169.720 141.283,169.413 147.000,166.750" stroke-width="3.305" stroke="black" fill="none" stroke-linecap="round"></path><path d="M 147.000,166.750 C 154.868,163.289 154.484,162.720 162.000,158.750" stroke-width="2.944" stroke="black" fill="none" stroke-linecap="round"></path><path d="M 162.000,158.750 C 165.748,156.002 165.868,156.289 169.000,152.750" stroke-width="3.403" stroke="black" fill="none" stroke-linecap="round"></path><path d="M 169.000,152.750 C 172.918,148.172 173.248,148.502 177.000,143.750" stroke-width="3.325" stroke="black" fill="none" stroke-linecap="round"></path><path d="M 177.000,143.750 C 179.000,141.750 178.918,141.672 181.000,139.750" stroke-width="3.866" stroke="black" fill="none" stroke-linecap="round"></path><path d="M 181.000,139.750 C 182.784,137.473 183.000,137.750 185.000,135.750" stroke-width="4.064" stroke="black" fill="none" stroke-linecap="round"></path><path d="M 185.000,135.750 C 190.000,131.448 187.284,133.973 190.000,132.750" stroke-width="4.150" stroke="black" fill="none" stroke-linecap="round"></path><path d="M 190.000,132.750 C 187.700,138.351 190.000,135.448 185.000,143.750" stroke-width="4.815" stroke="black" fill="none" stroke-linecap="round"></path><path d="M 185.000,143.750 C 182.790,148.438 182.700,148.351 180.000,152.750" stroke-width="3.815" stroke="black" fill="none" stroke-linecap="round"></path><path d="M 180.000,152.750 C 176.768,156.598 177.290,156.938 174.000,160.750" stroke-width="3.619" stroke="black" fill="none" stroke-linecap="round"></path><path d="M 174.000,160.750 C 172.101,164.311 171.768,164.098 170.000,167.750" stroke-width="3.703" stroke="black" fill="none" stroke-linecap="round"></path><path d="M 170.000,167.750 C 165.992,172.979 166.601,173.311 163.000,178.750" stroke-width="3.323" stroke="black" fill="none" stroke-linecap="round"></path><path d="M 163.000,178.750 C 160.133,187.119 158.992,186.479 156.000,194.750" stroke-width="2.853" stroke="black" fill="none" stroke-linecap="round"></path><path d="M 156.000,194.750 C 152.728,198.567 153.633,199.119 150.000,202.750" stroke-width="3.302" stroke="black" fill="none" stroke-linecap="round"></path><path d="M 150.000,202.750 C 145.449,210.220 145.228,210.067 141.000,217.750" stroke-width="2.846" stroke="black" fill="none" stroke-linecap="round"></path><path d="M 141.000,217.750 C 139.229,221.406 138.949,221.220 137.000,224.750" stroke-width="3.462" stroke="black" fill="none" stroke-linecap="round"></path><path d="M 137.000,224.750 C 135.150,227.385 135.229,227.406 133.000,229.750" stroke-width="3.876" stroke="black" fill="none" stroke-linecap="round"></path><path d="M 133.000,229.750 C 130.432,233.327 130.150,232.885 127.000,235.750" stroke-width="3.789" stroke="black" fill="none" stroke-linecap="round"></path><path d="M 127.000,235.750 C 121.459,238.679 121.932,239.327 116.000,241.750" stroke-width="3.321" stroke="black" fill="none" stroke-linecap="round"></path><path d="M 116.000,241.750 C 113.224,242.897 113.459,243.179 111.000,244.750" stroke-width="3.884" stroke="black" fill="none" stroke-linecap="round"></path><path d="M 111.000,244.750 C 107.159,247.959 107.224,247.897 104.000,251.750" stroke-width="3.648" stroke="black" fill="none" stroke-linecap="round"></path><path d="M 104.000,251.750 C 100.447,257.668 99.659,256.959 96.000,262.750" stroke-width="3.200" stroke="black" fill="none" stroke-linecap="round"></path><path d="M 96.000,262.750 C 92.887,265.126 93.447,265.668 90.000,267.750" stroke-width="3.632" stroke="black" fill="none" stroke-linecap="round"></path><path d="M 90.000,267.750 C 87.679,270.453 87.387,270.126 85.000,272.750" stroke-width="3.864" stroke="black" fill="none" stroke-linecap="round"></path><path d="M 85.000,272.750 C 80.631,276.442 80.679,276.453 76.000,279.750" stroke-width="3.439" stroke="black" fill="none" stroke-linecap="round"></path><path d="M 76.000,279.750 C 73.500,281.250 73.631,281.442 71.000,282.750" stroke-width="3.891" stroke="black" fill="none" stroke-linecap="round"></path><path d="M 71.000,282.750 C 66.000,285.750 66.000,285.750 61.000,288.750" stroke-width="4.094" stroke="black" fill="none" stroke-linecap="round"></path><path d="M 61.000,288.750 C 58.571,290.379 58.500,290.250 56.000,291.750" stroke-width="4.114" stroke="black" fill="none" stroke-linecap="round"></path><path d="M 56.000,291.750 C 51.000,294.250 51.071,294.379 46.000,296.750" stroke-width="4.152" stroke="black" fill="none" stroke-linecap="round"></path><path d="M 46.000,296.750 C 43.051,298.363 43.000,298.250 40.000,299.750" stroke-width="4.520" stroke="black" fill="none" stroke-linecap="round"></path><path d="M 40.000,299.750 C 36.750,302.500 37.551,300.863 35.000,301.750" stroke-width="4.890" stroke="black" fill="none" stroke-linecap="round"></path><path d="M 35.000,301.750 C 32.572,299.101 33.250,301.000 33.000,296.750" stroke-width="5.129" stroke="black" fill="none" stroke-linecap="round"></path><path d="M 33.000,296.750 C 34.586,293.383 33.572,293.601 37.000,290.750" stroke-width="4.184" stroke="black" fill="none" stroke-linecap="round"></path><path d="M 37.000,290.750 C 40.845,288.090 40.086,287.383 44.000,284.750" stroke-width="3.793" stroke="black" fill="none" stroke-linecap="round"></path><path d="M 44.000,284.750 C 49.163,278.876 49.345,279.090 54.000,272.750" stroke-width="3.146" stroke="black" fill="none" stroke-linecap="round"></path><path d="M 54.000,272.750 C 56.093,268.881 56.663,269.376 59.000,265.750" stroke-width="3.536" stroke="black" fill="none" stroke-linecap="round"></path><path d="M 59.000,265.750 C 62.579,261.623 62.593,261.881 67.000,258.750" stroke-width="3.362" stroke="black" fill="none" stroke-linecap="round"></path><path d="M 67.000,258.750 C 73.000,255.750 72.579,255.123 79.000,252.750" stroke-width="3.206" stroke="black" fill="none" stroke-linecap="round"></path><path d="M 79.000,252.750 C 81.903,251.025 82.000,251.250 85.000,249.750" stroke-width="3.744" stroke="black" fill="none" stroke-linecap="round"></path><path d="M 85.000,249.750 C 90.406,247.428 90.403,247.525 96.000,245.750" stroke-width="4.021" stroke="black" fill="none" stroke-linecap="round"></path><path d="M 96.000,245.750 C 100.545,244.922 100.406,244.428 105.000,243.750" stroke-width="3.752" stroke="black" fill="none" stroke-linecap="round"></path><path d="M 105.000,243.750 C 110.133,242.604 110.045,242.422 115.000,240.750" stroke-width="3.501" stroke="black" fill="none" stroke-linecap="round"></path><path d="M 115.000,240.750 C 120.604,238.448 120.633,238.604 126.000,235.750" stroke-width="3.349" stroke="black" fill="none" stroke-linecap="round"></path><path d="M 126.000,235.750 C 128.617,234.418 128.604,234.448 131.000,232.750" stroke-width="3.896" stroke="black" fill="none" stroke-linecap="round"></path><path d="M 131.000,232.750 C 133.624,230.888 133.617,230.918 136.000,228.750" stroke-width="3.928" stroke="black" fill="none" stroke-linecap="round"></path><path d="M 136.000,228.750 C 138.500,226.250 138.624,226.388 141.000,223.750" stroke-width="3.909" stroke="black" fill="none" stroke-linecap="round"></path><path d="M 141.000,223.750 C 142.695,221.346 143.000,221.750 145.000,219.750" stroke-width="4.079" stroke="black" fill="none" stroke-linecap="round"></path><path d="M 145.000,219.750 C 149.404,217.048 149.195,216.846 154.000,214.750" stroke-width="4.223" stroke="black" fill="none" stroke-linecap="round"></path><path d="M 154.000,214.750 C 159.715,211.750 156.404,213.548 159.000,212.750" stroke-width="4.634" stroke="black" fill="none" stroke-linecap="round"></path><path d="M 159.000,212.750 C 153.916,217.162 157.215,215.250 149.000,221.750" stroke-width="5.014" stroke="black" fill="none" stroke-linecap="round"></path><path d="M 149.000,221.750 C 146.103,223.946 146.416,224.162 144.000,226.750" stroke-width="4.179" stroke="black" fill="none" stroke-linecap="round"></path><path d="M 144.000,226.750 C 142.031,230.268 141.603,229.946 140.000,233.750" stroke-width="4.430" stroke="black" fill="none" stroke-linecap="round"></path><path d="M 140.000,233.750 C 136.548,236.490 138.531,236.268 137.000,238.750" stroke-width="4.838" stroke="black" fill="none" stroke-linecap="round"></path><path d="M 137.000,238.750 C 138.893,242.714 137.548,241.490 142.000,243.750" stroke-width="5.025" stroke="black" fill="none" stroke-linecap="round"></path><path d="M 142.000,243.750 C 147.000,243.750 146.393,245.214 152.000,243.750" stroke-width="4.507" stroke="black" fill="none" stroke-linecap="round"></path><path d="M 152.000,243.750 C 155.079,244.237 155.000,243.750 158.000,243.750" stroke-width="4.208" stroke="black" fill="none" stroke-linecap="round"></path><path d="M 158.000,243.750 C 161.267,243.241 161.079,243.237 164.000,241.750" stroke-width="4.538" stroke="black" fill="none" stroke-linecap="round"></path><path d="M 164.000,241.750 C 166.884,240.102 166.767,240.241 169.000,237.750" stroke-width="4.658" stroke="black" fill="none" stroke-linecap="round"></path><path d="M 169.000,237.750 C 171.283,234.899 171.384,235.102 173.000,231.750" stroke-width="4.629" stroke="black" fill="none" stroke-linecap="round"></path><path d="M 173.000,231.750 C 174.527,229.351 174.283,229.399 175.000,226.750" stroke-width="4.772" stroke="black" fill="none" stroke-linecap="round"></path><path d="M 175.000,226.750 C 176.303,223.140 175.527,223.851 175.000,220.750" stroke-width="4.937" stroke="black" fill="none" stroke-linecap="round"></path><path d="M 175.000,220.750 C 172.364,217.561 173.303,217.640 169.000,215.750" stroke-width="4.677" stroke="black" fill="none" stroke-linecap="round"></path><path d="M 169.000,215.750 C 165.569,214.260 165.864,214.061 162.000,213.750" stroke-width="4.629" stroke="black" fill="none" stroke-linecap="round"></path><path d="M 162.000,213.750 C 157.692,212.180 158.569,213.260 155.000,213.750" stroke-width="4.838" stroke="black" fill="none" stroke-linecap="round"></path><path d="M 155.000,213.750 C 151.473,216.921 151.692,215.680 150.000,220.750" stroke-width="4.811" stroke="black" fill="none" stroke-linecap="round"></path><path d="M 150.000,220.750 C 149.092,224.025 148.973,223.421 150.000,226.750" stroke-width="4.790" stroke="black" fill="none" stroke-linecap="round"></path><path d="M 150.000,226.750 C 151.254,230.690 151.092,230.025 154.000,232.750" stroke-width="4.667" stroke="black" fill="none" stroke-linecap="round"></path><path d="M 154.000,232.750 C 157.911,235.166 157.254,235.190 162.000,235.750" stroke-width="4.526" stroke="black" fill="none" stroke-linecap="round"></path><path d="M 162.000,235.750 C 165.258,235.950 164.911,236.166 168.000,234.750" stroke-width="4.251" stroke="black" fill="none" stroke-linecap="round"></path><path d="M 168.000,234.750 C 173.251,232.114 173.258,232.450 178.000,228.750" stroke-width="4.184" stroke="black" fill="none" stroke-linecap="round"></path><path d="M 178.000,228.750 C 184.846,223.038 185.251,223.614 192.000,217.750" stroke-width="3.063" stroke="black" fill="none" stroke-linecap="round"></path><path d="M 192.000,217.750 C 196.389,214.568 196.346,214.538 201.000,211.750" stroke-width="3.316" stroke="black" fill="none" stroke-linecap="round"></path><path d="M 201.000,211.750 C 206.082,209.976 205.389,209.068 210.000,206.750" stroke-width="3.390" stroke="black" fill="none" stroke-linecap="round"></path><path d="M 210.000,206.750 C 214.148,202.373 214.582,202.976 218.000,197.750" stroke-width="3.321" stroke="black" fill="none" stroke-linecap="round"></path><path d="M 218.000,197.750 C 221.206,192.990 221.648,193.373 225.000,188.750" stroke-width="3.353" stroke="black" fill="none" stroke-linecap="round"></path><path d="M 225.000,188.750 C 230.000,183.750 229.706,183.490 235.000,178.750" stroke-width="3.150" stroke="black" fill="none" stroke-linecap="round"></path><path d="M 235.000,178.750 C 238.246,175.963 238.000,175.750 241.000,172.750" stroke-width="3.501" stroke="black" fill="none" stroke-linecap="round"></path><path d="M 241.000,172.750 C 244.279,168.935 244.246,168.963 247.000,164.750" stroke-width="3.529" stroke="black" fill="none" stroke-linecap="round"></path><path d="M 247.000,164.750 C 250.799,158.906 250.779,158.935 254.000,152.750" stroke-width="3.214" stroke="black" fill="none" stroke-linecap="round"></path><path d="M 254.000,152.750 C 257.093,146.290 257.299,146.406 260.000,139.750" stroke-width="3.038" stroke="black" fill="none" stroke-linecap="round"></path><path d="M 260.000,139.750 C 261.000,137.250 261.093,137.290 262.000,134.750" stroke-width="3.808" stroke="black" fill="none" stroke-linecap="round"></path><path d="M 262.000,134.750 C 265.502,129.374 263.000,132.250 264.000,129.750" stroke-width="4.759" stroke="black" fill="none" stroke-linecap="round"></path><path d="M 264.000,129.750 C 256.427,133.000 259.502,130.874 250.000,137.750" stroke-width="4.393" stroke="black" fill="none" stroke-linecap="round"></path><path d="M 250.000,137.750 C 245.359,142.118 244.927,141.500 241.000,146.750" stroke-width="3.428" stroke="black" fill="none" stroke-linecap="round"></path><path d="M 241.000,146.750 C 237.517,150.765 237.359,150.618 234.000,154.750" stroke-width="3.394" stroke="black" fill="none" stroke-linecap="round"></path><path d="M 234.000,154.750 C 229.824,159.106 230.017,159.265 226.000,163.750" stroke-width="3.322" stroke="black" fill="none" stroke-linecap="round"></path><path d="M 226.000,163.750 C 222.562,167.479 222.824,167.606 220.000,171.750" stroke-width="3.419" stroke="black" fill="none" stroke-linecap="round"></path><path d="M 220.000,171.750 C 217.296,177.918 216.562,177.479 214.000,183.750" stroke-width="3.222" stroke="black" fill="none" stroke-linecap="round"></path><path d="M 214.000,183.750 C 210.541,189.277 210.796,189.418 207.000,194.750" stroke-width="3.195" stroke="black" fill="none" stroke-linecap="round"></path><path d="M 207.000,194.750 C 205.160,197.870 205.041,197.777 203.000,200.750" stroke-width="3.729" stroke="black" fill="none" stroke-linecap="round"></path><path d="M 203.000,200.750 C 200.265,203.580 200.660,203.870 198.000,206.750" stroke-width="3.764" stroke="black" fill="none" stroke-linecap="round"></path><path d="M 198.000,206.750 C 195.338,210.659 195.265,210.580 193.000,214.750" stroke-width="3.603" stroke="black" fill="none" stroke-linecap="round"></path><path d="M 193.000,214.750 C 191.053,217.591 191.338,217.659 190.000,220.750" stroke-width="3.894" stroke="black" fill="none" stroke-linecap="round"></path><path d="M 190.000,220.750 C 187.151,225.788 188.553,225.091 188.000,229.750" stroke-width="4.233" stroke="black" fill="none" stroke-linecap="round"></path><path d="M 188.000,229.750 C 189.893,233.714 188.651,232.788 193.000,234.750" stroke-width="4.928" stroke="black" fill="none" stroke-linecap="round"></path><path d="M 193.000,234.750 C 198.026,235.061 197.393,236.214 203.000,234.750" stroke-width="4.746" stroke="black" fill="none" stroke-linecap="round"></path><path d="M 203.000,234.750 C 206.147,234.701 206.026,234.561 209.000,233.750" stroke-width="4.256" stroke="black" fill="none" stroke-linecap="round"></path><path d="M 209.000,233.750 C 212.143,232.496 212.147,232.701 215.000,230.750" stroke-width="4.098" stroke="black" fill="none" stroke-linecap="round"></path><path d="M 215.000,230.750 C 220.947,226.667 221.143,226.996 227.000,222.750" stroke-width="3.298" stroke="black" fill="none" stroke-linecap="round"></path><path d="M 227.000,222.750 C 229.435,221.131 229.447,221.167 232.000,219.750" stroke-width="3.835" stroke="black" fill="none" stroke-linecap="round"></path><path d="M 232.000,219.750 C 235.949,217.640 235.935,217.631 240.000,215.750" stroke-width="3.729" stroke="black" fill="none" stroke-linecap="round"></path><path d="M 240.000,215.750 C 243.406,213.948 243.449,214.140 247.000,212.750" stroke-width="4.264" stroke="black" fill="none" stroke-linecap="round"></path><path d="M 247.000,212.750 C 250.246,210.522 249.406,211.948 252.000,211.750" stroke-width="4.672" stroke="black" fill="none" stroke-linecap="round"></path><path d="M 252.000,211.750 C 256.032,215.392 255.246,214.022 257.000,219.750" stroke-width="4.703" stroke="black" fill="none" stroke-linecap="round"></path><path d="M 257.000,219.750 C 256.663,224.774 258.032,224.392 256.000,229.750" stroke-width="3.754" stroke="black" fill="none" stroke-linecap="round"></path><path d="M 256.000,229.750 C 255.933,232.417 255.663,232.274 255.000,234.750" stroke-width="4.098" stroke="black" fill="none" stroke-linecap="round"></path><path d="M 255.000,234.750 C 251.280,239.030 253.933,237.417 252.000,239.750" stroke-width="4.707" stroke="black" fill="none" stroke-linecap="round"></path><path d="M 252.000,239.750 C 255.138,239.051 252.780,240.530 258.000,237.750" stroke-width="5.068" stroke="black" fill="none" stroke-linecap="round"></path><path d="M 258.000,237.750 C 260.435,236.131 260.638,236.551 263.000,234.750" stroke-width="4.367" stroke="black" fill="none" stroke-linecap="round"></path><path d="M 263.000,234.750 C 267.107,232.940 266.935,232.631 271.000,230.750" stroke-width="3.740" stroke="black" fill="none" stroke-linecap="round"></path><path d="M 271.000,230.750 C 274.862,227.978 275.107,228.440 279.000,225.750" stroke-width="4.181" stroke="black" fill="none" stroke-linecap="round"></path><path d="M 279.000,225.750 C 282.250,223.000 281.362,224.478 284.000,223.750" stroke-width="4.200" stroke="black" fill="none" stroke-linecap="round"></path><path d="M 284.000,223.750 C 285.210,226.182 285.750,224.500 286.000,228.750" stroke-width="5.045" stroke="black" fill="none" stroke-linecap="round"></path><path d="M 286.000,228.750 C 287.459,232.693 287.210,232.682 288.000,236.750" stroke-width="4.094" stroke="black" fill="none" stroke-linecap="round"></path><path d="M 288.000,236.750 C 286.232,243.554 288.459,240.193 288.000,243.750" stroke-width="4.462" stroke="black" fill="none" stroke-linecap="round"></path><path d="M 288.000,243.750 C 292.865,241.196 290.732,244.054 297.000,237.750" stroke-width="4.976" stroke="black" fill="none" stroke-linecap="round"></path><path d="M 297.000,237.750 C 301.500,233.250 301.865,233.696 306.000,228.750" stroke-width="3.524" stroke="black" fill="none" stroke-linecap="round"></path><path d="M 306.000,228.750 C 308.740,225.417 309.000,225.750 312.000,222.750" stroke-width="3.629" stroke="black" fill="none" stroke-linecap="round"></path><path d="M 312.000,222.750 C 314.649,221.460 314.240,220.917 317.000,219.750" stroke-width="3.961" stroke="black" fill="none" stroke-linecap="round"></path><path d="M 317.000,219.750 C 320.019,217.272 320.149,217.460 323.000,214.750" stroke-width="3.886" stroke="black" fill="none" stroke-linecap="round"></path><path d="M 323.000,214.750 C 327.083,212.281 326.519,211.772 330.000,208.750" stroke-width="4.248" stroke="black" fill="none" stroke-linecap="round"></path><path d="M 330.000,208.750 C 336.012,200.259 336.583,200.781 342.000,191.750" stroke-width="2.802" stroke="black" fill="none" stroke-linecap="round"></path><path d="M 342.000,191.750 C 345.616,186.827 345.512,186.759 349.000,181.750" stroke-width="3.117" stroke="black" fill="none" stroke-linecap="round"></path><path d="M 349.000,181.750 C 351.283,177.599 351.616,177.827 354.000,173.750" stroke-width="3.451" stroke="black" fill="none" stroke-linecap="round"></path><path d="M 354.000,173.750 C 358.168,169.660 357.283,169.099 361.000,164.750" stroke-width="3.392" stroke="black" fill="none" stroke-linecap="round"></path><path d="M 361.000,164.750 C 365.730,156.469 365.668,156.660 369.000,147.750" stroke-width="2.854" stroke="black" fill="none" stroke-linecap="round"></path><path d="M 369.000,147.750 C 369.308,144.212 370.230,144.469 370.000,140.750" stroke-width="3.514" stroke="black" fill="none" stroke-linecap="round"></path><path d="M 370.000,140.750 C 370.837,136.703 370.808,136.712 372.000,132.750" stroke-width="4.151" stroke="black" fill="none" stroke-linecap="round"></path><path d="M 372.000,132.750 C 374.137,128.353 373.337,128.203 375.000,123.750" stroke-width="4.301" stroke="black" fill="none" stroke-linecap="round"></path><path d="M 375.000,123.750 C 376.576,118.063 375.637,120.353 375.000,116.750" stroke-width="4.074" stroke="black" fill="none" stroke-linecap="round"></path><path d="M 375.000,116.750 C 371.862,117.449 373.576,115.563 369.000,118.750" stroke-width="4.995" stroke="black" fill="none" stroke-linecap="round"></path><path d="M 369.000,118.750 C 366.026,119.724 366.362,119.949 364.000,121.750" stroke-width="4.402" stroke="black" fill="none" stroke-linecap="round"></path><path d="M 364.000,121.750 C 361.122,125.848 360.526,125.224 358.000,129.750" stroke-width="3.629" stroke="black" fill="none" stroke-linecap="round"></path><path d="M 358.000,129.750 C 354.951,133.209 355.122,133.348 352.000,136.750" stroke-width="4.116" stroke="black" fill="none" stroke-linecap="round"></path><path d="M 352.000,136.750 C 350.000,139.250 349.951,139.209 348.000,141.750" stroke-width="4.179" stroke="black" fill="none" stroke-linecap="round"></path><path d="M 348.000,141.750 C 346.027,144.272 346.000,144.250 344.000,146.750" stroke-width="4.010" stroke="black" fill="none" stroke-linecap="round"></path><path d="M 344.000,146.750 C 341.412,149.680 341.527,149.772 339.000,152.750" stroke-width="3.846" stroke="black" fill="none" stroke-linecap="round"></path><path d="M 339.000,152.750 C 335.600,156.525 335.912,156.680 333.000,160.750" stroke-width="3.628" stroke="black" fill="none" stroke-linecap="round"></path><path d="M 333.000,160.750 C 332.200,163.349 331.600,163.025 331.000,165.750" stroke-width="4.056" stroke="black" fill="none" stroke-linecap="round"></path><path d="M 331.000,165.750 C 329.500,168.250 329.700,168.349 328.000,170.750" stroke-width="4.537" stroke="black" fill="none" stroke-linecap="round"></path><path d="M 328.000,170.750 C 326.469,173.232 326.500,173.250 325.000,175.750" stroke-width="4.239" stroke="black" fill="none" stroke-linecap="round"></path><path d="M 325.000,175.750 C 322.681,179.107 322.969,179.232 321.000,182.750" stroke-width="4.467" stroke="black" fill="none" stroke-linecap="round"></path><path d="M 321.000,182.750 C 320.213,185.838 319.681,185.607 319.000,188.750" stroke-width="4.153" stroke="black" fill="none" stroke-linecap="round"></path><path d="M 319.000,188.750 C 317.287,191.662 317.713,191.838 316.000,194.750" stroke-width="4.018" stroke="black" fill="none" stroke-linecap="round"></path><path d="M 316.000,194.750 C 314.723,197.679 314.787,197.662 314.000,200.750" stroke-width="4.075" stroke="black" fill="none" stroke-linecap="round"></path><path d="M 314.000,200.750 C 313.151,206.283 312.723,206.179 312.000,211.750" stroke-width="3.573" stroke="black" fill="none" stroke-linecap="round"></path><path d="M 312.000,211.750 C 311.132,215.788 311.151,215.783 310.000,219.750" stroke-width="4.175" stroke="black" fill="none" stroke-linecap="round"></path><path d="M 310.000,219.750 C 309.134,222.801 309.132,222.788 308.000,225.750" stroke-width="4.122" stroke="black" fill="none" stroke-linecap="round"></path><path d="M 308.000,225.750 C 306.878,229.463 306.634,229.301 305.000,232.750" stroke-width="4.426" stroke="black" fill="none" stroke-linecap="round"></path><path d="M 305.000,232.750 C 302.384,236.174 302.878,236.463 300.000,239.750" stroke-width="3.859" stroke="black" fill="none" stroke-linecap="round"></path><path d="M 300.000,239.750 C 298.300,242.151 298.384,242.174 297.000,244.750" stroke-width="4.160" stroke="black" fill="none" stroke-linecap="round"></path><path d="M 297.000,244.750 C 296.000,247.250 295.800,247.151 295.000,249.750" stroke-width="4.238" stroke="black" fill="none" stroke-linecap="round"></path><path d="M 295.000,249.750 C 291.679,255.278 294.000,252.250 293.000,254.750" stroke-width="4.652" stroke="black" fill="none" stroke-linecap="round"></path><path d="M 293.000,254.750 C 299.393,250.656 296.679,253.278 305.000,245.750" stroke-width="5.023" stroke="black" fill="none" stroke-linecap="round"></path><path d="M 305.000,245.750 C 306.748,243.002 307.393,243.656 309.000,240.750" stroke-width="4.274" stroke="black" fill="none" stroke-linecap="round"></path><path d="M 309.000,240.750 C 311.838,238.033 311.748,238.002 315.000,235.750" stroke-width="3.971" stroke="black" fill="none" stroke-linecap="round"></path><path d="M 315.000,235.750 C 320.783,231.349 320.838,231.533 327.000,227.750" stroke-width="3.273" stroke="black" fill="none" stroke-linecap="round"></path><path d="M 327.000,227.750 C 330.602,226.449 330.283,225.849 334.000,224.750" stroke-width="3.678" stroke="black" fill="none" stroke-linecap="round"></path><path d="M 334.000,224.750 C 336.541,223.315 336.602,223.449 339.000,221.750" stroke-width="4.021" stroke="black" fill="none" stroke-linecap="round"></path><path d="M 339.000,221.750 C 341.892,219.563 342.041,219.815 345.000,217.750" stroke-width="3.919" stroke="black" fill="none" stroke-linecap="round"></path><path d="M 345.000,217.750 C 348.974,213.535 347.892,216.063 351.000,214.750" stroke-width="4.434" stroke="black" fill="none" stroke-linecap="round"></path><path d="M 351.000,214.750 C 354.391,219.183 353.974,216.535 355.000,223.750" stroke-width="4.884" stroke="black" fill="none" stroke-linecap="round"></path><path d="M 355.000,223.750 C 353.708,226.681 355.391,226.683 353.000,229.750" stroke-width="4.307" stroke="black" fill="none" stroke-linecap="round"></path><path d="M 353.000,229.750 C 350.328,236.123 352.208,233.181 352.000,236.750" stroke-width="4.015" stroke="black" fill="none" stroke-linecap="round"></path><path d="M 352.000,236.750 C 356.601,234.949 354.328,237.623 361.000,232.750" stroke-width="4.755" stroke="black" fill="none" stroke-linecap="round"></path><path d="M 361.000,232.750 C 364.698,231.036 364.601,230.949 368.000,228.750" stroke-width="3.996" stroke="black" fill="none" stroke-linecap="round"></path><path d="M 368.000,228.750 C 370.851,226.040 371.198,226.536 374.000,223.750" stroke-width="3.896" stroke="black" fill="none" stroke-linecap="round"></path><path d="M 374.000,223.750 C 376.649,222.460 376.351,222.040 379.000,220.750" stroke-width="4.052" stroke="black" fill="none" stroke-linecap="round"></path><path d="M 379.000,220.750 C 381.745,216.638 382.149,218.460 385.000,215.750" stroke-width="4.370" stroke="black" fill="none" stroke-linecap="round"></path><path d="M 385.000,215.750 C 387.385,217.348 387.245,215.138 390.000,217.750" stroke-width="5.094" stroke="black" fill="none" stroke-linecap="round"></path><path d="M 390.000,217.750 C 394.030,217.445 393.885,218.348 398.000,217.750" stroke-width="4.920" stroke="black" fill="none" stroke-linecap="round"></path><path d="M 398.000,217.750 C 401.298,217.291 400.530,217.945 403.000,218.750" stroke-width="5.131" stroke="black" fill="none" stroke-linecap="round"></path><path d="M 403.000,218.750 C 404.598,221.135 404.798,220.291 405.000,223.750" stroke-width="5.390" stroke="black" fill="none" stroke-linecap="round"></path><path d="M 405.000,223.750 C 405.944,227.973 405.598,227.635 405.000,231.750" stroke-width="4.735" stroke="black" fill="none" stroke-linecap="round"></path><path d="M 405.000,231.750 C 403.119,235.815 403.944,235.973 401.000,239.750" stroke-width="3.885" stroke="black" fill="none" stroke-linecap="round"></path><path d="M 401.000,239.750 C 399.771,242.448 399.619,242.315 398.000,244.750" stroke-width="4.093" stroke="black" fill="none" stroke-linecap="round"></path><path d="M 398.000,244.750 C 394.590,248.834 394.771,248.948 391.000,252.750" stroke-width="4.205" stroke="black" fill="none" stroke-linecap="round"></path><path d="M 391.000,252.750 C 389.325,255.200 389.090,254.834 387.000,256.750" stroke-width="4.170" stroke="black" fill="none" stroke-linecap="round"></path><path d="M 387.000,256.750 C 383.132,259.060 383.325,259.200 379.000,260.750" stroke-width="3.760" stroke="black" fill="none" stroke-linecap="round"></path><path d="M 379.000,260.750 C 372.074,263.486 372.132,263.560 365.000,265.750" stroke-width="3.126" stroke="black" fill="none" stroke-linecap="round"></path><path d="M 365.000,265.750 C 359.447,267.074 359.574,267.486 354.000,268.750" stroke-width="3.235" stroke="black" fill="none" stroke-linecap="round"></path><path d="M 354.000,268.750 C 346.569,271.479 346.447,271.074 339.000,273.750" stroke-width="3.004" stroke="black" fill="none" stroke-linecap="round"></path><path d="M 339.000,273.750 C 331.448,275.578 331.569,275.979 324.000,277.750" stroke-width="2.898" stroke="black" fill="none" stroke-linecap="round"></path><path d="M 324.000,277.750 C 319.609,279.702 319.448,279.078 315.000,280.750" stroke-width="3.362" stroke="black" fill="none" stroke-linecap="round"></path><path d="M 315.000,280.750 C 308.541,282.283 308.609,282.202 302.000,282.750" stroke-width="3.165" stroke="black" fill="none" stroke-linecap="round"></path><path d="M 302.000,282.750 C 294.488,282.473 294.541,283.283 287.000,282.750" stroke-width="2.977" stroke="black" fill="none" stroke-linecap="round"></path><path d="M 287.000,282.750 C 280.994,283.188 280.988,282.973 275.000,283.750" stroke-width="3.191" stroke="black" fill="none" stroke-linecap="round"></path><path d="M 275.000,283.750 C 264.978,284.562 264.994,284.688 255.000,285.750" stroke-width="2.735" stroke="black" fill="none" stroke-linecap="round"></path><path d="M 255.000,285.750 C 244.048,287.961 243.978,287.062 233.000,288.750" stroke-width="2.458" stroke="black" fill="none" stroke-linecap="round"></path><path d="M 233.000,288.750 C 223.000,288.750 223.048,289.461 213.000,288.750" stroke-width="2.599" stroke="black" fill="none" stroke-linecap="round"></path><path d="M 213.000,288.750 C 207.000,288.750 207.000,288.750 201.000,288.750" stroke-width="3.001" stroke="black" fill="none" stroke-linecap="round"></path><path d="M 201.000,288.750 C 187.000,288.750 187.000,288.750 173.000,288.750" stroke-width="2.329" stroke="black" fill="none" stroke-linecap="round"></path><path d="M 173.000,288.750 C 166.500,288.750 166.500,288.750 160.000,288.750" stroke-width="2.822" stroke="black" fill="none" stroke-linecap="round"></path><path d="M 160.000,288.750 C 150.000,288.750 150.000,288.750 140.000,288.750" stroke-width="2.710" stroke="black" fill="none" stroke-linecap="round"></path><path d="M 140.000,288.750 C 132.463,289.265 132.500,288.750 125.000,288.750" stroke-width="2.842" stroke="black" fill="none" stroke-linecap="round"></path><path d="M 125.000,288.750 C 117.671,288.803 117.963,288.265 111.000,286.750" stroke-width="2.998" stroke="black" fill="none" stroke-linecap="round"></path><path d="M 111.000,286.750 C 104.760,284.163 104.671,284.803 99.000,280.750" stroke-width="3.041" stroke="black" fill="none" stroke-linecap="round"></path><path d="M 99.000,280.750 C 90.273,277.023 91.260,276.163 84.000,270.750" stroke-width="2.816" stroke="black" fill="none" stroke-linecap="round"></path><path d="M 84.000,270.750 C 76.947,262.095 76.273,263.023 71.000,252.750" stroke-width="2.541" stroke="black" fill="none" stroke-linecap="round"></path><path d="M 71.000,252.750 C 66.883,245.311 66.447,245.595 63.000,237.750" stroke-width="2.778" stroke="black" fill="none" stroke-linecap="round"></path><path d="M 63.000,237.750 C 55.391,227.378 57.383,226.811 52.000,215.750" stroke-width="2.424" stroke="black" fill="none" stroke-linecap="round"></path><path d="M 52.000,215.750 C 47.752,202.481 48.391,203.378 49.000,189.750" stroke-width="2.274" stroke="black" fill="none" stroke-linecap="round"></path><path d="M 49.000,189.750 C 51.615,176.641 50.252,176.981 57.000,164.750" stroke-width="2.230" stroke="black" fill="none" stroke-linecap="round"></path><path d="M 57.000,164.750 C 61.391,147.217 63.615,150.141 73.000,136.750" stroke-width="2.020" stroke="black" fill="none" stroke-linecap="round"></path><path d="M 73.000,136.750 C 94.651,121.556 91.891,119.717 118.000,109.750" stroke-width="1.522" stroke="black" fill="none" stroke-linecap="round"></path><path d="M 118.000,109.750 C 139.212,98.005 139.151,99.056 162.000,91.750" stroke-width="1.397" stroke="black" fill="none" stroke-linecap="round"></path><path d="M 162.000,91.750 C 190.882,85.766 190.212,84.005 220.000,81.750" stroke-width="1.255" stroke="black" fill="none" stroke-linecap="round"></path><path d="M 220.000,81.750 C 234.478,80.109 234.382,79.766 249.000,79.750" stroke-width="1.735" stroke="black" fill="none" stroke-linecap="round"></path><path d="M 249.000,79.750 C 275.183,77.742 274.978,79.109 301.000,79.750" stroke-width="1.425" stroke="black" fill="none" stroke-linecap="round"></path><path d="M 301.000,79.750 C 320.224,82.417 320.183,81.242 339.000,86.750" stroke-width="1.574" stroke="black" fill="none" stroke-linecap="round"></path><path d="M 339.000,86.750 C 346.243,88.698 346.224,88.417 353.000,91.750" stroke-width="2.322" stroke="black" fill="none" stroke-linecap="round"></path><path d="M 353.000,91.750 C 361.506,96.238 361.743,95.698 370.000,100.750" stroke-width="2.535" stroke="black" fill="none" stroke-linecap="round"></path><path d="M 370.000,100.750 C 378.148,103.954 377.506,104.738 385.000,108.750" stroke-width="2.723" stroke="black" fill="none" stroke-linecap="round"></path><path d="M 385.000,108.750 C 388.452,111.267 388.148,110.954 390.000,114.750" stroke-width="3.427" stroke="black" fill="none" stroke-linecap="round"></path><path d="M 390.000,114.750 C 393.781,120.894 392.452,120.267 393.000,126.750" stroke-width="3.305" stroke="black" fill="none" stroke-linecap="round"></path><path d="M 393.000,126.750 C 391.815,137.540 391.781,135.894 386.000,144.750" stroke-width="2.737" stroke="black" fill="none" stroke-linecap="round"></path><path d="M 386.000,144.750 C 377.376,151.821 379.315,153.040 368.000,157.750" stroke-width="2.521" stroke="black" fill="none" stroke-linecap="round"></path><path d="M 368.000,157.750 C 343.935,174.783 343.376,173.321 318.000,187.750" stroke-width="1.435" stroke="black" fill="none" stroke-linecap="round"></path><path d="M 318.000,187.750 C 303.520,195.267 303.935,194.783 288.000,197.750" stroke-width="1.811" stroke="black" fill="none" stroke-linecap="round"></path><path d="M 288.000,197.750 C 252.951,203.058 253.520,203.267 218.000,203.750" stroke-width="1.243" stroke="black" fill="none" stroke-linecap="round"></path><path d="M 218.000,203.750 C 202.076,203.279 202.451,204.058 187.000,199.750" stroke-width="1.600" stroke="black" fill="none" stroke-linecap="round"></path><path d="M 187.000,199.750 C 178.529,197.085 178.576,197.779 171.000,192.750" stroke-width="2.274" stroke="black" fill="none" stroke-linecap="round"></path><path d="M 171.000,192.750 C 162.592,186.608 162.029,187.585 154.000,180.750" stroke-width="2.447" stroke="black" fill="none" stroke-linecap="round"></path><path d="M 154.000,180.750 C 150.232,179.968 151.592,179.108 149.000,177.750" stroke-width="3.451" stroke="black" fill="none" stroke-linecap="round"></path><path d="M 149.000,177.750 C 147.584,173.875 147.732,175.468 149.000,171.750" stroke-width="4.583" stroke="black" fill="none" stroke-linecap="round"></path><path d="M 149.000,171.750 C 151.833,169.542 150.584,169.375 155.000,168.750" stroke-width="4.184" stroke="black" fill="none" stroke-linecap="round"></path><path d="M 314.000,281.750 C 308.481,283.184 308.500,283.250 303.000,284.750" stroke-width="3.828" stroke="black" fill="none" stroke-linecap="round"></path><path d="M 303.000,284.750 C 290.818,287.721 290.981,288.184 279.000,291.750" stroke-width="2.517" stroke="black" fill="none" stroke-linecap="round"></path><path d="M 279.000,291.750 C 269.189,296.354 268.818,295.221 259.000,299.750" stroke-width="2.492" stroke="black" fill="none" stroke-linecap="round"></path><path d="M 259.000,299.750 C 252.536,301.443 252.689,301.854 246.000,302.750" stroke-width="2.920" stroke="black" fill="none" stroke-linecap="round"></path><path d="M 246.000,302.750 C 242.271,304.451 242.536,303.443 239.000,303.750" stroke-width="3.585" stroke="black" fill="none" stroke-linecap="round"></path><path d="M 239.000,303.750 C 232.971,302.663 235.271,302.951 232.000,299.750" stroke-width="4.382" stroke="black" fill="none" stroke-linecap="round"></path><path d="M 232.000,299.750 C 232.082,294.668 230.971,296.663 235.000,291.750" stroke-width="3.856" stroke="black" fill="none" stroke-linecap="round"></path><path d="M 235.000,291.750 C 243.773,284.901 242.582,284.168 253.000,278.750" stroke-width="2.741" stroke="black" fill="none" stroke-linecap="round"></path><path d="M 253.000,278.750 C 258.500,273.847 258.773,274.901 265.000,271.750" stroke-width="2.925" stroke="black" fill="none" stroke-linecap="round"></path><path d="M 265.000,271.750 C 274.593,269.126 274.000,268.847 284.000,268.750" stroke-width="2.778" stroke="black" fill="none" stroke-linecap="round"></path><path d="M 284.000,268.750 C 287.778,268.687 287.093,268.626 290.000,270.750" stroke-width="3.551" stroke="black" fill="none" stroke-linecap="round"></path><path d="M 290.000,270.750 C 295.875,275.640 294.778,275.187 298.000,281.750" stroke-width="3.865" stroke="black" fill="none" stroke-linecap="round"></path><path d="M 298.000,281.750 C 298.000,287.750 299.875,287.140 298.000,293.750" stroke-width="3.385" stroke="black" fill="none" stroke-linecap="round"></path><path d="M 298.000,293.750 C 298.000,297.750 298.000,297.750 298.000,301.750" stroke-width="3.682" stroke="black" fill="none" stroke-linecap="round"></path><path d="M 298.000,301.750 C 296.510,306.012 298.000,304.750 298.000,307.750" stroke-width="4.362" stroke="black" fill="none" stroke-linecap="round"></path><path d="M 298.000,307.750 C 301.092,309.428 299.510,309.512 304.000,308.750" stroke-width="4.250" stroke="black" fill="none" stroke-linecap="round"></path><path d="M 304.000,308.750 C 316.278,305.439 316.092,305.928 328.000,300.750" stroke-width="2.552" stroke="black" fill="none" stroke-linecap="round"></path><path d="M 328.000,300.750 C 338.312,295.284 338.778,296.439 349.000,290.750" stroke-width="2.426" stroke="black" fill="none" stroke-linecap="round"></path><path d="M 349.000,290.750 C 355.038,288.854 354.812,288.284 361.000,286.750" stroke-width="2.980" stroke="black" fill="none" stroke-linecap="round"></path><path d="M 361.000,286.750 C 365.382,283.205 363.538,285.854 366.000,284.750" stroke-width="3.745" stroke="black" fill="none" stroke-linecap="round"></path><path d="M 366.000,284.750 C 366.434,291.012 367.382,288.205 365.000,296.750" stroke-width="4.264" stroke="black" fill="none" stroke-linecap="round"></path><path d="M 365.000,296.750 C 357.925,304.849 363.934,301.012 361.000,304.750" stroke-width="3.783" stroke="black" fill="none" stroke-linecap="round"></path><path d="M 361.000,304.750 C 379.235,302.136 373.425,304.349 396.000,295.750" stroke-width="3.405" stroke="black" fill="none" stroke-linecap="round"></path><path d="M 396.000,295.750 C 409.964,288.181 410.735,290.136 424.000,280.750" stroke-width="2.247" stroke="black" fill="none" stroke-linecap="round"></path><path d="M 424.000,280.750 C 430.927,276.823 426.964,279.181 430.000,277.750" stroke-width="3.257" stroke="black" fill="none" stroke-linecap="round"></path><path d="M 430.000,277.750 C 423.777,281.993 427.927,279.823 418.000,286.750" stroke-width="4.192" stroke="black" fill="none" stroke-linecap="round"></path><path d="M 418.000,286.750 C 415.500,289.250 415.277,288.993 413.000,291.750" stroke-width="3.927" stroke="black" fill="none" stroke-linecap="round"></path></svg>