<svg xmlns="http://www.w3.org/2000/svg" xmlns:xlink="http://www.w3.org/1999/xlink" viewBox="0 0 1460 576" width="1460" height="576"><path d="M 883.000,346.000 C 879.604,343.802 879.500,344.000 876.000,342.000" stroke-width="5.216" stroke="black" fill="none" stroke-linecap="round"></path><path d="M 876.000,342.000 C 864.463,336.576 864.604,336.302 853.000,331.000" stroke-width="2.630" stroke="black" fill="none" stroke-linecap="round"></path><path d="M 853.000,331.000 C 845.664,328.072 845.963,327.576 839.000,324.000" stroke-width="2.776" stroke="black" fill="none" stroke-linecap="round"></path><path d="M 839.000,324.000 C 826.820,317.813 827.664,317.072 817.000,309.000" stroke-width="2.340" stroke="black" fill="none" stroke-linecap="round"></path><path d="M 817.000,309.000 C 804.059,301.014 807.320,300.313 800.000,289.000" stroke-width="2.189" stroke="black" fill="none" stroke-linecap="round"></path><path d="M 800.000,289.000 C 794.130,261.836 791.559,264.014 792.000,235.000" stroke-width="2.017" stroke="black" fill="none" stroke-linecap="round"></path><path d="M 792.000,235.000 C 791.896,229.437 791.630,230.336 795.000,226.000" stroke-width="2.882" stroke="black" fill="none" stroke-linecap="round"></path><path d="M 795.000,226.000 C 806.121,212.563 805.896,213.937 820.000,204.000" stroke-width="2.117" stroke="black" fill="none" stroke-linecap="round"></path><path d="M 820.000,204.000 C 830.692,198.280 829.621,198.063 842.000,197.000" stroke-width="2.244" stroke="black" fill="none" stroke-linecap="round"></path><path d="M 842.000,197.000 C 857.672,196.334 857.192,195.280 873.000,198.000" stroke-width="2.061" stroke="black" fill="none" stroke-linecap="round"></path><path d="M 873.000,198.000 C 880.555,199.810 880.672,198.834 888.000,202.000" stroke-width="2.607" stroke="black" fill="none" stroke-linecap="round"></path><path d="M 888.000,202.000 C 898.146,203.707 897.555,204.810 907.000,208.000" stroke-width="2.535" stroke="black" fill="none" stroke-linecap="round"></path><path d="M 907.000,208.000 C 916.951,210.802 914.646,211.707 921.000,218.000" stroke-width="2.712" stroke="black" fill="none" stroke-linecap="round"></path><path d="M 921.000,218.000 C 931.178,236.951 930.451,234.802 934.000,256.000" stroke-width="2.163" stroke="black" fill="none" stroke-linecap="round"></path><path d="M 934.000,256.000 C 932.959,264.665 935.178,263.951 929.000,272.000" stroke-width="2.592" stroke="black" fill="none" stroke-linecap="round"></path><path d="M 929.000,272.000 C 917.889,298.914 915.959,296.165 900.000,319.000" stroke-width="1.552" stroke="black" fill="none" stroke-linecap="round"></path><path d="M 900.000,319.000 C 886.852,329.306 889.389,330.914 872.000,336.000" stroke-width="1.793" stroke="black" fill="none" stroke-linecap="round"></path><path d="M 872.000,336.000 C 850.741,349.658 851.352,345.306 829.000,351.000" stroke-width="1.600" stroke="black" fill="none" stroke-linecap="round"></path><path d="M 829.000,351.000 C 808.494,348.738 810.241,352.158 791.000,341.000" stroke-width="2.152" stroke="black" fill="none" stroke-linecap="round"></path><path d="M 791.000,341.000 C 781.451,336.055 782.494,337.238 777.000,328.000" stroke-width="2.368" stroke="black" fill="none" stroke-linecap="round"></path><path d="M 777.000,328.000 C 771.473,315.665 770.951,317.055 770.000,303.000" stroke-width="2.267" stroke="black" fill="none" stroke-linecap="round"></path><path d="M 770.000,303.000 C 768.975,293.402 768.973,294.165 772.000,285.000" stroke-width="2.568" stroke="black" fill="none" stroke-linecap="round"></path><path d="M 772.000,285.000 C 777.900,267.385 777.975,268.402 788.000,253.000" stroke-width="2.687" stroke="black" fill="none" stroke-linecap="round"></path><path d="M 788.000,253.000 C 796.510,245.511 794.400,243.885 805.000,238.000" stroke-width="2.487" stroke="black" fill="none" stroke-linecap="round"></path><path d="M 805.000,238.000 C 809.099,233.369 809.510,234.011 814.000,230.000" stroke-width="2.952" stroke="black" fill="none" stroke-linecap="round"></path></svg>