<svg xmlns="http://www.w3.org/2000/svg" xmlns:xlink="http://www.w3.org/1999/xlink" viewBox="0 0 453 236" width="453" height="236"><path d="M 117.500,134.000 C 113.949,133.150 114.000,133.000 110.500,132.000" stroke-width="4.910" stroke="black" fill="none" stroke-linecap="round"></path><path d="M 110.500,132.000 C 108.000,131.000 107.949,131.150 105.500,130.000" stroke-width="4.709" stroke="black" fill="none" stroke-linecap="round"></path><path d="M 105.500,130.000 C 102.784,129.370 103.000,129.000 100.500,128.000" stroke-width="4.394" stroke="black" fill="none" stroke-linecap="round"></path><path d="M 100.500,128.000 C 98.206,125.691 97.784,126.370 95.500,124.000" stroke-width="4.174" stroke="black" fill="none" stroke-linecap="round"></path><path d="M 95.500,124.000 C 89.920,121.138 90.206,120.691 84.500,118.000" stroke-width="3.404" stroke="black" fill="none" stroke-linecap="round"></path><path d="M 84.500,118.000 C 77.750,115.813 80.420,115.638 76.500,113.000" stroke-width="4.107" stroke="black" fill="none" stroke-linecap="round"></path><path d="M 76.500,113.000 C 78.232,110.649 75.750,111.313 80.500,109.000" stroke-width="4.957" stroke="black" fill="none" stroke-linecap="round"></path><path d="M 80.500,109.000 C 84.152,107.232 83.732,106.649 87.500,105.000" stroke-width="4.038" stroke="black" fill="none" stroke-linecap="round"></path><path d="M 87.500,105.000 C 91.417,101.882 91.652,102.232 95.500,99.000" stroke-width="3.784" stroke="black" fill="none" stroke-linecap="round"></path><path d="M 95.500,99.000 C 100.213,96.278 99.917,95.882 104.500,93.000" stroke-width="3.591" stroke="black" fill="none" stroke-linecap="round"></path><path d="M 104.500,93.000 C 108.399,89.377 108.713,89.778 112.500,86.000" stroke-width="3.499" stroke="black" fill="none" stroke-linecap="round"></path><path d="M 112.500,86.000 C 117.101,82.623 116.899,82.377 121.500,79.000" stroke-width="3.405" stroke="black" fill="none" stroke-linecap="round"></path><path d="M 121.500,79.000 C 125.465,75.459 125.601,75.623 129.500,72.000" stroke-width="3.387" stroke="black" fill="none" stroke-linecap="round"></path><path d="M 129.500,72.000 C 132.302,69.214 132.465,69.459 135.500,67.000" stroke-width="3.653" stroke="black" fill="none" stroke-linecap="round"></path><path d="M 135.500,67.000 C 139.069,65.111 138.802,64.714 142.500,63.000" stroke-width="3.714" stroke="black" fill="none" stroke-linecap="round"></path><path d="M 142.500,63.000 C 145.536,61.052 145.569,61.111 148.500,59.000" stroke-width="3.827" stroke="black" fill="none" stroke-linecap="round"></path><path d="M 148.500,59.000 C 155.864,52.724 152.036,56.552 155.500,54.000" stroke-width="4.250" stroke="black" fill="none" stroke-linecap="round"></path><path d="M 155.500,54.000 C 151.271,60.224 154.864,56.224 146.500,66.000" stroke-width="4.684" stroke="black" fill="none" stroke-linecap="round"></path><path d="M 146.500,66.000 C 141.500,71.500 141.771,71.724 136.500,77.000" stroke-width="3.363" stroke="black" fill="none" stroke-linecap="round"></path><path d="M 136.500,77.000 C 131.631,82.625 131.500,82.500 126.500,88.000" stroke-width="3.037" stroke="black" fill="none" stroke-linecap="round"></path><path d="M 126.500,88.000 C 121.000,93.500 121.131,93.625 115.500,99.000" stroke-width="2.905" stroke="black" fill="none" stroke-linecap="round"></path><path d="M 115.500,99.000 C 109.875,104.380 110.000,104.500 104.500,110.000" stroke-width="2.868" stroke="black" fill="none" stroke-linecap="round"></path><path d="M 104.500,110.000 C 99.125,116.120 98.875,115.880 93.500,122.000" stroke-width="2.872" stroke="black" fill="none" stroke-linecap="round"></path><path d="M 93.500,122.000 C 88.000,127.500 88.125,127.620 82.500,133.000" stroke-width="2.858" stroke="black" fill="none" stroke-linecap="round"></path><path d="M 82.500,133.000 C 76.500,139.000 76.500,139.000 70.500,145.000" stroke-width="2.828" stroke="black" fill="none" stroke-linecap="round"></path><path d="M 70.500,145.000 C 64.630,151.136 64.500,151.000 58.500,157.000" stroke-width="2.927" stroke="black" fill="none" stroke-linecap="round"></path><path d="M 58.500,157.000 C 53.039,162.044 53.130,162.136 47.500,167.000" stroke-width="2.978" stroke="black" fill="none" stroke-linecap="round"></path><path d="M 47.500,167.000 C 43.738,170.821 43.539,170.544 39.500,174.000" stroke-width="3.248" stroke="black" fill="none" stroke-linecap="round"></path><path d="M 39.500,174.000 C 35.544,176.574 35.738,176.821 31.500,179.000" stroke-width="3.498" stroke="black" fill="none" stroke-linecap="round"></path><path d="M 31.500,179.000 C 28.097,181.201 28.044,181.074 24.500,183.000" stroke-width="3.664" stroke="black" fill="none" stroke-linecap="round"></path><path d="M 24.500,183.000 C 22.101,184.527 22.097,184.201 19.500,185.000" stroke-width="4.029" stroke="black" fill="none" stroke-linecap="round"></path><path d="M 19.500,185.000 C 14.885,186.615 16.601,185.527 13.500,185.000" stroke-width="4.676" stroke="black" fill="none" stroke-linecap="round"></path><path d="M 13.500,185.000 C 12.455,181.134 11.885,183.115 13.500,178.000" stroke-width="5.009" stroke="black" fill="none" stroke-linecap="round"></path><path d="M 13.500,178.000 C 15.246,175.254 14.455,175.134 17.500,173.000" stroke-width="4.461" stroke="black" fill="none" stroke-linecap="round"></path><path d="M 17.500,173.000 C 21.016,170.019 20.746,169.754 24.500,167.000" stroke-width="3.967" stroke="black" fill="none" stroke-linecap="round"></path><path d="M 24.500,167.000 C 28.399,163.377 28.516,163.519 32.500,160.000" stroke-width="3.469" stroke="black" fill="none" stroke-linecap="round"></path><path d="M 32.500,160.000 C 36.912,156.381 36.899,156.377 41.500,153.000" stroke-width="3.338" stroke="black" fill="none" stroke-linecap="round"></path><path d="M 41.500,153.000 C 46.319,149.208 46.412,149.381 51.500,146.000" stroke-width="3.293" stroke="black" fill="none" stroke-linecap="round"></path><path d="M 51.500,146.000 C 56.991,142.984 56.819,142.708 62.500,140.000" stroke-width="3.195" stroke="black" fill="none" stroke-linecap="round"></path><path d="M 62.500,140.000 C 68.956,136.414 68.991,136.484 75.500,133.000" stroke-width="3.174" stroke="black" fill="none" stroke-linecap="round"></path><path d="M 75.500,133.000 C 80.414,130.312 80.456,130.414 85.500,128.000" stroke-width="3.324" stroke="black" fill="none" stroke-linecap="round"></path><path d="M 85.500,128.000 C 91.449,125.368 91.414,125.312 97.500,123.000" stroke-width="3.227" stroke="black" fill="none" stroke-linecap="round"></path><path d="M 97.500,123.000 C 103.032,121.083 102.949,120.868 108.500,119.000" stroke-width="3.242" stroke="black" fill="none" stroke-linecap="round"></path><path d="M 108.500,119.000 C 113.500,117.000 113.532,117.083 118.500,115.000" stroke-width="3.380" stroke="black" fill="none" stroke-linecap="round"></path><path d="M 118.500,115.000 C 123.538,113.089 123.500,113.000 128.500,111.000" stroke-width="3.476" stroke="black" fill="none" stroke-linecap="round"></path><path d="M 128.500,111.000 C 133.101,109.199 133.038,109.089 137.500,107.000" stroke-width="3.480" stroke="black" fill="none" stroke-linecap="round"></path><path d="M 137.500,107.000 C 141.018,105.031 141.101,105.199 144.500,103.000" stroke-width="3.708" stroke="black" fill="none" stroke-linecap="round"></path><path d="M 144.500,103.000 C 147.117,101.668 147.018,101.531 149.500,100.000" stroke-width="3.989" stroke="black" fill="none" stroke-linecap="round"></path><path d="M 149.500,100.000 C 156.159,95.872 152.117,98.168 154.500,96.000" stroke-width="4.468" stroke="black" fill="none" stroke-linecap="round"></path><path d="M 154.500,96.000 C 145.230,97.799 149.659,96.372 136.500,101.000" stroke-width="4.634" stroke="black" fill="none" stroke-linecap="round"></path><path d="M 136.500,101.000 C 130.371,103.771 130.230,103.299 124.500,107.000" stroke-width="3.480" stroke="black" fill="none" stroke-linecap="round"></path><path d="M 124.500,107.000 C 120.040,108.966 120.371,109.271 116.500,112.000" stroke-width="3.712" stroke="black" fill="none" stroke-linecap="round"></path><path d="M 116.500,112.000 C 113.624,115.615 113.040,114.966 110.500,119.000" stroke-width="3.611" stroke="black" fill="none" stroke-linecap="round"></path><path d="M 110.500,119.000 C 107.231,121.772 107.624,122.115 104.500,125.000" stroke-width="3.709" stroke="black" fill="none" stroke-linecap="round"></path><path d="M 104.500,125.000 C 98.549,129.622 101.731,128.272 99.500,132.000" stroke-width="4.188" stroke="black" fill="none" stroke-linecap="round"></path><path d="M 99.500,132.000 C 103.895,134.488 100.549,134.622 108.500,135.000" stroke-width="4.685" stroke="black" fill="none" stroke-linecap="round"></path><path d="M 108.500,135.000 C 113.161,135.142 112.895,135.488 117.500,134.000" stroke-width="3.983" stroke="black" fill="none" stroke-linecap="round"></path><path d="M 117.500,134.000 C 122.702,132.399 122.661,132.642 127.500,130.000" stroke-width="3.589" stroke="black" fill="none" stroke-linecap="round"></path><path d="M 127.500,130.000 C 131.577,127.615 131.702,127.899 135.500,125.000" stroke-width="3.554" stroke="black" fill="none" stroke-linecap="round"></path><path d="M 135.500,125.000 C 139.355,122.883 139.077,122.615 142.500,120.000" stroke-width="3.771" stroke="black" fill="none" stroke-linecap="round"></path><path d="M 142.500,120.000 C 145.000,117.000 145.355,117.383 147.500,114.000" stroke-width="4.189" stroke="black" fill="none" stroke-linecap="round"></path><path d="M 147.500,114.000 C 152.776,110.210 150.000,111.000 152.500,108.000" stroke-width="3.949" stroke="black" fill="none" stroke-linecap="round"></path><path d="M 152.500,108.000 C 149.185,105.329 152.276,106.210 146.500,106.000" stroke-width="4.762" stroke="black" fill="none" stroke-linecap="round"></path><path d="M 146.500,106.000 C 143.248,108.252 143.185,106.829 140.500,111.000" stroke-width="4.629" stroke="black" fill="none" stroke-linecap="round"></path><path d="M 140.500,111.000 C 138.624,113.611 138.248,113.252 136.500,116.000" stroke-width="4.686" stroke="black" fill="none" stroke-linecap="round"></path><path d="M 136.500,116.000 C 134.285,117.818 134.624,118.111 132.500,120.000" stroke-width="4.350" stroke="black" fill="none" stroke-linecap="round"></path><path d="M 132.500,120.000 C 127.219,124.191 129.785,123.318 127.500,127.000" stroke-width="4.447" stroke="black" fill="none" stroke-linecap="round"></path><path d="M 127.500,127.000 C 130.500,130.375 127.719,129.191 133.500,130.000" stroke-width="4.996" stroke="black" fill="none" stroke-linecap="round"></path><path d="M 133.500,130.000 C 138.638,127.748 138.500,129.375 143.500,125.000" stroke-width="3.820" stroke="black" fill="none" stroke-linecap="round"></path><path d="M 143.500,125.000 C 150.154,121.230 150.138,121.248 156.500,117.000" stroke-width="3.108" stroke="black" fill="none" stroke-linecap="round"></path><path d="M 156.500,117.000 C 162.031,113.042 162.154,113.230 167.500,109.000" stroke-width="3.120" stroke="black" fill="none" stroke-linecap="round"></path><path d="M 167.500,109.000 C 173.595,104.621 173.531,104.542 179.500,100.000" stroke-width="3.027" stroke="black" fill="none" stroke-linecap="round"></path><path d="M 179.500,100.000 C 184.879,95.343 185.095,95.621 190.500,91.000" stroke-width="3.052" stroke="black" fill="none" stroke-linecap="round"></path><path d="M 190.500,91.000 C 196.244,87.300 195.879,86.843 201.500,83.000" stroke-width="3.157" stroke="black" fill="none" stroke-linecap="round"></path><path d="M 201.500,83.000 C 207.119,78.125 207.244,78.300 212.500,73.000" stroke-width="3.046" stroke="black" fill="none" stroke-linecap="round"></path><path d="M 212.500,73.000 C 217.148,67.588 217.619,68.125 222.500,63.000" stroke-width="3.063" stroke="black" fill="none" stroke-linecap="round"></path><path d="M 222.500,63.000 C 228.168,59.210 227.648,58.588 233.500,55.000" stroke-width="3.106" stroke="black" fill="none" stroke-linecap="round"></path><path d="M 233.500,55.000 C 237.750,51.750 237.668,51.710 241.500,48.000" stroke-width="3.293" stroke="black" fill="none" stroke-linecap="round"></path><path d="M 241.500,48.000 C 244.910,43.916 245.250,44.250 248.500,40.000" stroke-width="3.409" stroke="black" fill="none" stroke-linecap="round"></path><path d="M 248.500,40.000 C 250.500,38.000 250.410,37.916 252.500,36.000" stroke-width="3.899" stroke="black" fill="none" stroke-linecap="round"></path><path d="M 252.500,36.000 C 258.847,31.000 255.000,33.500 257.500,31.000" stroke-width="4.385" stroke="black" fill="none" stroke-linecap="round"></path><path d="M 257.500,31.000 C 250.540,32.645 254.847,31.000 244.500,36.000" stroke-width="4.661" stroke="black" fill="none" stroke-linecap="round"></path><path d="M 244.500,36.000 C 237.485,40.979 237.040,40.145 230.500,46.000" stroke-width="3.177" stroke="black" fill="none" stroke-linecap="round"></path><path d="M 230.500,46.000 C 221.286,52.222 221.485,52.479 212.500,59.000" stroke-width="2.622" stroke="black" fill="none" stroke-linecap="round"></path><path d="M 212.500,59.000 C 203.959,65.951 203.786,65.722 195.500,73.000" stroke-width="2.500" stroke="black" fill="none" stroke-linecap="round"></path><path d="M 195.500,73.000 C 188.771,78.251 188.959,78.451 182.500,84.000" stroke-width="2.653" stroke="black" fill="none" stroke-linecap="round"></path><path d="M 182.500,84.000 C 176.694,89.229 176.771,89.251 171.500,95.000" stroke-width="2.846" stroke="black" fill="none" stroke-linecap="round"></path><path d="M 171.500,95.000 C 167.920,99.440 167.694,99.229 164.500,104.000" stroke-width="3.192" stroke="black" fill="none" stroke-linecap="round"></path><path d="M 164.500,104.000 C 161.507,107.237 161.920,107.440 159.500,111.000" stroke-width="3.504" stroke="black" fill="none" stroke-linecap="round"></path><path d="M 159.500,111.000 C 158.283,115.137 157.507,114.737 156.500,119.000" stroke-width="3.668" stroke="black" fill="none" stroke-linecap="round"></path><path d="M 156.500,119.000 C 154.339,121.272 155.283,121.637 153.500,124.000" stroke-width="4.056" stroke="black" fill="none" stroke-linecap="round"></path><path d="M 153.500,124.000 C 150.542,131.608 152.339,127.772 152.500,132.000" stroke-width="4.370" stroke="black" fill="none" stroke-linecap="round"></path><path d="M 152.500,132.000 C 158.217,129.337 155.542,132.608 163.500,126.000" stroke-width="4.781" stroke="black" fill="none" stroke-linecap="round"></path><path d="M 163.500,126.000 C 167.345,122.770 167.717,123.337 171.500,120.000" stroke-width="3.774" stroke="black" fill="none" stroke-linecap="round"></path><path d="M 171.500,120.000 C 176.571,117.113 176.345,116.770 181.500,114.000" stroke-width="3.457" stroke="black" fill="none" stroke-linecap="round"></path><path d="M 181.500,114.000 C 186.000,111.000 186.071,111.113 190.500,108.000" stroke-width="3.590" stroke="black" fill="none" stroke-linecap="round"></path><path d="M 190.500,108.000 C 195.000,105.000 195.000,105.000 199.500,102.000" stroke-width="3.423" stroke="black" fill="none" stroke-linecap="round"></path><path d="M 199.500,102.000 C 202.245,99.356 202.500,100.000 205.500,98.000" stroke-width="3.775" stroke="black" fill="none" stroke-linecap="round"></path><path d="M 205.500,98.000 C 210.439,95.939 208.245,96.856 211.500,97.000" stroke-width="4.421" stroke="black" fill="none" stroke-linecap="round"></path><path d="M 211.500,97.000 C 211.112,99.904 212.439,97.939 209.500,102.000" stroke-width="4.704" stroke="black" fill="none" stroke-linecap="round"></path><path d="M 209.500,102.000 C 205.345,105.859 206.112,106.404 201.500,110.000" stroke-width="3.620" stroke="black" fill="none" stroke-linecap="round"></path><path d="M 201.500,110.000 C 198.765,112.830 198.845,112.859 196.500,116.000" stroke-width="3.731" stroke="black" fill="none" stroke-linecap="round"></path><path d="M 196.500,116.000 C 193.713,119.850 193.765,119.830 191.500,124.000" stroke-width="3.651" stroke="black" fill="none" stroke-linecap="round"></path><path d="M 191.500,124.000 C 187.463,129.444 189.713,127.350 188.500,131.000" stroke-width="4.293" stroke="black" fill="none" stroke-linecap="round"></path><path d="M 188.500,131.000 C 192.540,131.714 189.463,132.444 195.500,130.000" stroke-width="4.407" stroke="black" fill="none" stroke-linecap="round"></path><path d="M 195.500,130.000 C 201.500,125.000 202.040,126.214 207.500,120.000" stroke-width="3.259" stroke="black" fill="none" stroke-linecap="round"></path><path d="M 207.500,120.000 C 213.430,114.914 213.500,115.000 219.500,110.000" stroke-width="3.023" stroke="black" fill="none" stroke-linecap="round"></path><path d="M 219.500,110.000 C 224.049,106.561 223.930,106.414 228.500,103.000" stroke-width="3.256" stroke="black" fill="none" stroke-linecap="round"></path><path d="M 228.500,103.000 C 231.351,100.290 231.549,100.561 234.500,98.000" stroke-width="3.696" stroke="black" fill="none" stroke-linecap="round"></path><path d="M 234.500,98.000 C 239.887,94.419 236.851,96.290 239.500,95.000" stroke-width="4.406" stroke="black" fill="none" stroke-linecap="round"></path><path d="M 239.500,95.000 C 235.630,97.647 238.887,95.919 232.500,101.000" stroke-width="4.309" stroke="black" fill="none" stroke-linecap="round"></path><path d="M 232.500,101.000 C 229.280,105.747 228.630,105.147 225.500,110.000" stroke-width="3.664" stroke="black" fill="none" stroke-linecap="round"></path><path d="M 225.500,110.000 C 220.700,114.240 221.280,114.747 216.500,119.000" stroke-width="3.275" stroke="black" fill="none" stroke-linecap="round"></path><path d="M 216.500,119.000 C 213.343,122.894 213.200,122.740 210.500,127.000" stroke-width="3.507" stroke="black" fill="none" stroke-linecap="round"></path><path d="M 210.500,127.000 C 206.039,132.398 208.843,129.394 207.500,132.000" stroke-width="4.029" stroke="black" fill="none" stroke-linecap="round"></path><path d="M 207.500,132.000 C 214.897,128.571 211.539,130.898 221.500,124.000" stroke-width="4.361" stroke="black" fill="none" stroke-linecap="round"></path><path d="M 221.500,124.000 C 227.455,118.946 227.897,119.571 233.500,114.000" stroke-width="3.251" stroke="black" fill="none" stroke-linecap="round"></path><path d="M 233.500,114.000 C 238.558,110.070 238.455,109.946 243.500,106.000" stroke-width="3.221" stroke="black" fill="none" stroke-linecap="round"></path><path d="M 243.500,106.000 C 247.115,103.124 247.058,103.070 250.500,100.000" stroke-width="3.508" stroke="black" fill="none" stroke-linecap="round"></path><path d="M 250.500,100.000 C 257.100,93.400 253.615,97.124 256.500,94.000" stroke-width="4.133" stroke="black" fill="none" stroke-linecap="round"></path><path d="M 256.500,94.000 C 252.000,98.500 255.600,94.900 247.500,103.000" stroke-width="4.291" stroke="black" fill="none" stroke-linecap="round"></path><path d="M 247.500,103.000 C 243.357,106.868 243.500,107.000 239.500,111.000" stroke-width="3.608" stroke="black" fill="none" stroke-linecap="round"></path><path d="M 239.500,111.000 C 236.043,114.185 236.357,114.368 233.500,118.000" stroke-width="3.635" stroke="black" fill="none" stroke-linecap="round"></path><path d="M 233.500,118.000 C 230.298,123.405 230.043,123.185 227.500,129.000" stroke-width="3.934" stroke="black" fill="none" stroke-linecap="round"></path><path d="M 227.500,129.000 C 224.340,133.613 226.298,131.405 225.500,134.000" stroke-width="4.670" stroke="black" fill="none" stroke-linecap="round"></path><path d="M 225.500,134.000 C 229.814,133.073 227.340,134.613 233.500,131.000" stroke-width="5.020" stroke="black" fill="none" stroke-linecap="round"></path><path d="M 233.500,131.000 C 237.663,128.198 237.814,128.573 241.500,125.000" stroke-width="4.005" stroke="black" fill="none" stroke-linecap="round"></path><path d="M 241.500,125.000 C 246.512,120.513 246.663,120.698 251.500,116.000" stroke-width="3.420" stroke="black" fill="none" stroke-linecap="round"></path><path d="M 251.500,116.000 C 257.130,111.136 257.012,111.013 262.500,106.000" stroke-width="3.530" stroke="black" fill="none" stroke-linecap="round"></path><path d="M 262.500,106.000 C 268.380,99.875 268.630,100.136 274.500,94.000" stroke-width="3.060" stroke="black" fill="none" stroke-linecap="round"></path><path d="M 274.500,94.000 C 281.000,88.000 280.880,87.875 287.500,82.000" stroke-width="2.777" stroke="black" fill="none" stroke-linecap="round"></path><path d="M 287.500,82.000 C 294.392,76.373 294.000,76.000 300.500,70.000" stroke-width="2.763" stroke="black" fill="none" stroke-linecap="round"></path><path d="M 300.500,70.000 C 305.442,63.951 305.892,64.373 310.500,58.000" stroke-width="2.879" stroke="black" fill="none" stroke-linecap="round"></path><path d="M 310.500,58.000 C 314.182,54.148 313.942,53.951 317.500,50.000" stroke-width="3.392" stroke="black" fill="none" stroke-linecap="round"></path><path d="M 317.500,50.000 C 322.180,44.121 322.182,44.148 326.500,38.000" stroke-width="3.359" stroke="black" fill="none" stroke-linecap="round"></path><path d="M 326.500,38.000 C 330.339,34.889 328.180,35.621 329.500,33.000" stroke-width="3.859" stroke="black" fill="none" stroke-linecap="round"></path><path d="M 329.500,33.000 C 326.143,29.560 328.339,30.389 322.500,29.000" stroke-width="4.670" stroke="black" fill="none" stroke-linecap="round"></path><path d="M 322.500,29.000 C 319.267,29.524 319.643,28.560 316.500,31.000" stroke-width="4.204" stroke="black" fill="none" stroke-linecap="round"></path><path d="M 316.500,31.000 C 311.822,33.759 311.767,33.524 307.500,37.000" stroke-width="3.572" stroke="black" fill="none" stroke-linecap="round"></path><path d="M 307.500,37.000 C 301.494,41.006 301.822,41.259 296.500,46.000" stroke-width="3.135" stroke="black" fill="none" stroke-linecap="round"></path><path d="M 296.500,46.000 C 293.032,50.526 292.494,50.006 289.500,55.000" stroke-width="3.294" stroke="black" fill="none" stroke-linecap="round"></path><path d="M 289.500,55.000 C 284.970,59.661 285.532,60.026 281.500,65.000" stroke-width="3.233" stroke="black" fill="none" stroke-linecap="round"></path><path d="M 281.500,65.000 C 279.192,70.105 278.470,69.661 276.500,75.000" stroke-width="3.344" stroke="black" fill="none" stroke-linecap="round"></path><path d="M 276.500,75.000 C 273.211,79.850 273.692,80.105 270.500,85.000" stroke-width="3.280" stroke="black" fill="none" stroke-linecap="round"></path><path d="M 270.500,85.000 C 268.883,89.711 268.211,89.350 266.500,94.000" stroke-width="3.472" stroke="black" fill="none" stroke-linecap="round"></path><path d="M 266.500,94.000 C 263.618,98.583 263.883,98.711 260.500,103.000" stroke-width="3.448" stroke="black" fill="none" stroke-linecap="round"></path><path d="M 260.500,103.000 C 257.500,107.000 257.618,107.083 254.500,111.000" stroke-width="3.611" stroke="black" fill="none" stroke-linecap="round"></path><path d="M 254.500,111.000 C 251.588,115.070 251.500,115.000 248.500,119.000" stroke-width="3.663" stroke="black" fill="none" stroke-linecap="round"></path><path d="M 248.500,119.000 C 245.973,121.978 246.088,122.070 243.500,125.000" stroke-width="3.841" stroke="black" fill="none" stroke-linecap="round"></path><path d="M 243.500,125.000 C 241.420,127.440 241.473,127.478 239.500,130.000" stroke-width="4.052" stroke="black" fill="none" stroke-linecap="round"></path><path d="M 239.500,130.000 C 233.133,136.805 236.920,133.440 234.500,137.000" stroke-width="4.426" stroke="black" fill="none" stroke-linecap="round"></path><path d="M 234.500,137.000 C 240.605,134.193 236.633,137.305 246.500,131.000" stroke-width="4.613" stroke="black" fill="none" stroke-linecap="round"></path><path d="M 246.500,131.000 C 252.405,127.325 252.605,127.693 258.500,124.000" stroke-width="3.361" stroke="black" fill="none" stroke-linecap="round"></path><path d="M 258.500,124.000 C 263.454,121.403 263.405,121.325 268.500,119.000" stroke-width="3.436" stroke="black" fill="none" stroke-linecap="round"></path><path d="M 268.500,119.000 C 273.854,116.080 273.954,116.403 279.500,114.000" stroke-width="3.331" stroke="black" fill="none" stroke-linecap="round"></path><path d="M 279.500,114.000 C 283.448,112.579 283.354,112.580 287.500,112.000" stroke-width="3.724" stroke="black" fill="none" stroke-linecap="round"></path><path d="M 287.500,112.000 C 290.500,112.000 290.448,111.579 293.500,112.000" stroke-width="3.974" stroke="black" fill="none" stroke-linecap="round"></path><path d="M 293.500,112.000 C 300.308,110.519 296.500,112.000 299.500,112.000" stroke-width="4.493" stroke="black" fill="none" stroke-linecap="round"></path><path d="M 299.500,112.000 C 294.100,118.316 297.308,116.019 287.500,123.000" stroke-width="3.929" stroke="black" fill="none" stroke-linecap="round"></path><path d="M 287.500,123.000 C 278.016,128.528 278.600,129.316 268.500,134.000" stroke-width="2.766" stroke="black" fill="none" stroke-linecap="round"></path><path d="M 268.500,134.000 C 258.302,140.599 258.016,140.028 247.500,146.000" stroke-width="2.439" stroke="black" fill="none" stroke-linecap="round"></path><path d="M 247.500,146.000 C 235.310,152.342 235.302,152.099 222.500,157.000" stroke-width="2.175" stroke="black" fill="none" stroke-linecap="round"></path><path d="M 222.500,157.000 C 207.645,162.073 207.810,162.342 192.500,166.000" stroke-width="1.976" stroke="black" fill="none" stroke-linecap="round"></path><path d="M 192.500,166.000 C 180.614,169.304 180.645,169.073 168.500,171.000" stroke-width="2.142" stroke="black" fill="none" stroke-linecap="round"></path><path d="M 168.500,171.000 C 155.518,172.479 155.614,172.804 142.500,173.000" stroke-width="2.140" stroke="black" fill="none" stroke-linecap="round"></path><path d="M 142.500,173.000 C 130.385,174.106 130.518,173.479 118.500,173.000" stroke-width="2.216" stroke="black" fill="none" stroke-linecap="round"></path><path d="M 118.500,173.000 C 108.635,172.045 108.885,172.106 99.500,169.000" stroke-width="2.488" stroke="black" fill="none" stroke-linecap="round"></path><path d="M 99.500,169.000 C 92.266,165.903 92.135,166.545 85.500,162.000" stroke-width="3.269" stroke="black" fill="none" stroke-linecap="round"></path><path d="M 85.500,162.000 C 78.950,158.632 79.266,158.403 73.500,154.000" stroke-width="3.108" stroke="black" fill="none" stroke-linecap="round"></path><path d="M 73.500,154.000 C 68.409,150.146 68.950,150.132 65.500,145.000" stroke-width="3.235" stroke="black" fill="none" stroke-linecap="round"></path><path d="M 65.500,145.000 C 61.712,138.271 61.909,138.646 60.500,131.000" stroke-width="3.067" stroke="black" fill="none" stroke-linecap="round"></path><path d="M 60.500,131.000 C 57.842,116.828 58.212,117.271 58.500,103.000" stroke-width="2.338" stroke="black" fill="none" stroke-linecap="round"></path><path d="M 58.500,103.000 C 59.384,95.472 58.842,95.828 62.500,89.000" stroke-width="2.829" stroke="black" fill="none" stroke-linecap="round"></path><path d="M 62.500,89.000 C 66.204,81.777 65.884,81.972 71.500,76.000" stroke-width="2.829" stroke="black" fill="none" stroke-linecap="round"></path><path d="M 71.500,76.000 C 77.340,69.475 77.204,69.777 84.500,65.000" stroke-width="2.872" stroke="black" fill="none" stroke-linecap="round"></path><path d="M 84.500,65.000 C 93.690,59.679 93.340,59.475 103.500,56.000" stroke-width="2.548" stroke="black" fill="none" stroke-linecap="round"></path><path d="M 103.500,56.000 C 113.899,52.591 113.690,52.179 124.500,50.000" stroke-width="2.543" stroke="black" fill="none" stroke-linecap="round"></path><path d="M 124.500,50.000 C 136.409,46.935 136.399,47.091 148.500,45.000" stroke-width="2.532" stroke="black" fill="none" stroke-linecap="round"></path><path d="M 148.500,45.000 C 161.480,43.302 161.409,42.935 174.500,42.000" stroke-width="2.301" stroke="black" fill="none" stroke-linecap="round"></path><path d="M 174.500,42.000 C 186.498,40.980 186.480,40.802 198.500,40.000" stroke-width="2.320" stroke="black" fill="none" stroke-linecap="round"></path><path d="M 198.500,40.000 C 210.980,38.511 210.998,38.980 223.500,38.000" stroke-width="2.228" stroke="black" fill="none" stroke-linecap="round"></path><path d="M 223.500,38.000 C 235.500,38.000 235.480,37.511 247.500,38.000" stroke-width="2.300" stroke="black" fill="none" stroke-linecap="round"></path><path d="M 247.500,38.000 C 258.543,37.391 258.500,38.000 269.500,38.000" stroke-width="2.404" stroke="black" fill="none" stroke-linecap="round"></path><path d="M 269.500,38.000 C 276.721,38.232 276.543,38.391 283.500,40.000" stroke-width="2.835" stroke="black" fill="none" stroke-linecap="round"></path><path d="M 283.500,40.000 C 288.925,40.935 288.221,41.232 292.500,44.000" stroke-width="3.307" stroke="black" fill="none" stroke-linecap="round"></path><path d="M 292.500,44.000 C 297.743,48.117 295.925,46.935 297.500,52.000" stroke-width="4.021" stroke="black" fill="none" stroke-linecap="round"></path><path d="M 297.500,52.000 C 295.253,56.810 297.243,56.117 291.500,60.000" stroke-width="3.673" stroke="black" fill="none" stroke-linecap="round"></path><path d="M 291.500,60.000 C 284.754,64.946 285.253,65.310 277.500,69.000" stroke-width="2.980" stroke="black" fill="none" stroke-linecap="round"></path><path d="M 277.500,69.000 C 267.802,74.729 267.754,74.446 257.500,79.000" stroke-width="2.506" stroke="black" fill="none" stroke-linecap="round"></path><path d="M 257.500,79.000 C 247.109,82.866 247.302,83.229 236.500,86.000" stroke-width="2.570" stroke="black" fill="none" stroke-linecap="round"></path><path d="M 236.500,86.000 C 225.069,89.292 225.109,89.366 213.500,92.000" stroke-width="2.409" stroke="black" fill="none" stroke-linecap="round"></path><path d="M 213.500,92.000 C 201.609,95.184 201.569,94.792 189.500,97.000" stroke-width="2.390" stroke="black" fill="none" stroke-linecap="round"></path><path d="M 189.500,97.000 C 171.529,99.528 171.609,99.684 153.500,101.000" stroke-width="2.152" stroke="black" fill="none" stroke-linecap="round"></path><path d="M 153.500,101.000 C 146.977,101.324 147.029,101.528 140.500,101.000" stroke-width="2.740" stroke="black" fill="none" stroke-linecap="round"></path><path d="M 140.500,101.000 C 135.907,101.926 136.977,100.824 133.500,100.000" stroke-width="3.461" stroke="black" fill="none" stroke-linecap="round"></path><path d="M 133.500,100.000 C 131.114,96.682 130.907,97.926 130.500,93.000" stroke-width="4.211" stroke="black" fill="none" stroke-linecap="round"></path><path d="M 130.500,93.000 C 128.841,86.977 129.614,87.682 130.500,82.000" stroke-width="3.680" stroke="black" fill="none" stroke-linecap="round"></path><path d="M 315.500,126.000 C 323.205,125.189 323.000,124.500 330.500,123.000" stroke-width="4.850" stroke="black" fill="none" stroke-linecap="round"></path><path d="M 330.500,123.000 C 338.059,120.142 338.205,120.689 345.500,117.000" stroke-width="3.356" stroke="black" fill="none" stroke-linecap="round"></path><path d="M 345.500,117.000 C 360.564,110.638 360.559,110.642 375.500,104.000" stroke-width="2.966" stroke="black" fill="none" stroke-linecap="round"></path><path d="M 375.500,104.000 C 382.462,99.763 378.564,102.638 381.500,101.000" stroke-width="3.640" stroke="black" fill="none" stroke-linecap="round"></path><path d="M 381.500,101.000 C 375.246,107.292 378.962,104.263 368.500,113.000" stroke-width="4.172" stroke="black" fill="none" stroke-linecap="round"></path><path d="M 368.500,113.000 C 361.989,117.986 362.246,118.292 355.500,123.000" stroke-width="3.228" stroke="black" fill="none" stroke-linecap="round"></path><path d="M 355.500,123.000 C 351.222,126.852 350.989,126.486 346.500,130.000" stroke-width="3.267" stroke="black" fill="none" stroke-linecap="round"></path><path d="M 346.500,130.000 C 341.043,131.101 343.722,131.852 340.500,133.000" stroke-width="3.876" stroke="black" fill="none" stroke-linecap="round"></path><path d="M 340.500,133.000 C 341.921,136.871 340.043,134.601 344.500,137.000" stroke-width="4.637" stroke="black" fill="none" stroke-linecap="round"></path><path d="M 344.500,137.000 C 352.558,135.765 351.921,137.371 360.500,134.000" stroke-width="3.167" stroke="black" fill="none" stroke-linecap="round"></path><path d="M 360.500,134.000 C 370.596,131.830 370.558,131.765 380.500,129.000" stroke-width="2.702" stroke="black" fill="none" stroke-linecap="round"></path><path d="M 380.500,129.000 C 387.913,126.203 388.096,126.830 395.500,124.000" stroke-width="2.847" stroke="black" fill="none" stroke-linecap="round"></path><path d="M 395.500,124.000 C 403.454,121.788 403.413,121.703 411.500,120.000" stroke-width="2.793" stroke="black" fill="none" stroke-linecap="round"></path><path d="M 411.500,120.000 C 417.049,119.211 416.954,118.788 422.500,118.000" stroke-width="3.188" stroke="black" fill="none" stroke-linecap="round"></path><path d="M 422.500,118.000 C 425.937,116.548 426.049,117.211 429.500,116.000" stroke-width="3.678" stroke="black" fill="none" stroke-linecap="round"></path><path d="M 429.500,116.000 C 435.500,115.752 432.437,115.548 435.500,116.000" stroke-width="4.387" stroke="black" fill="none" stroke-linecap="round"></path><path d="M 435.500,116.000 C 432.514,116.598 435.500,116.252 429.500,117.000" stroke-width="4.895" stroke="black" fill="none" stroke-linecap="round"></path><path d="M 429.500,117.000 C 425.017,117.804 425.014,117.598 420.500,118.000" stroke-width="3.904" stroke="black" fill="none" stroke-linecap="round"></path><path d="M 420.500,118.000 C 413.500,118.000 413.517,118.304 406.500,118.000" stroke-width="3.292" stroke="black" fill="none" stroke-linecap="round"></path><path d="M 406.500,118.000 C 399.000,118.000 399.000,118.000 391.500,118.000" stroke-width="3.073" stroke="black" fill="none" stroke-linecap="round"></path><path d="M 391.500,118.000 C 381.500,118.000 381.500,118.000 371.500,118.000" stroke-width="2.714" stroke="black" fill="none" stroke-linecap="round"></path><path d="M 371.500,118.000 C 360.378,116.818 360.500,118.000 349.500,118.000" stroke-width="2.462" stroke="black" fill="none" stroke-linecap="round"></path><path d="M 349.500,118.000 C 337.399,120.086 337.378,119.318 325.500,123.000" stroke-width="2.289" stroke="black" fill="none" stroke-linecap="round"></path><path d="M 325.500,123.000 C 312.952,126.338 312.899,126.086 300.500,130.000" stroke-width="2.186" stroke="black" fill="none" stroke-linecap="round"></path><path d="M 300.500,130.000 C 287.630,134.483 287.452,133.838 274.500,138.000" stroke-width="2.273" stroke="black" fill="none" stroke-linecap="round"></path><path d="M 274.500,138.000 C 259.617,142.148 259.630,141.983 244.500,145.000" stroke-width="2.075" stroke="black" fill="none" stroke-linecap="round"></path><path d="M 244.500,145.000 C 233.053,147.160 233.117,147.148 221.500,148.000" stroke-width="2.225" stroke="black" fill="none" stroke-linecap="round"></path><path d="M 221.500,148.000 C 205.503,148.719 205.553,149.160 189.500,149.000" stroke-width="1.967" stroke="black" fill="none" stroke-linecap="round"></path><path d="M 189.500,149.000 C 177.000,149.000 177.003,149.219 164.500,149.000" stroke-width="2.121" stroke="black" fill="none" stroke-linecap="round"></path><path d="M 164.500,149.000 C 151.500,149.000 151.500,149.000 138.500,149.000" stroke-width="2.192" stroke="black" fill="none" stroke-linecap="round"></path><path d="M 138.500,149.000 C 126.373,147.763 126.500,149.000 114.500,149.000" stroke-width="2.478" stroke="black" fill="none" stroke-linecap="round"></path><path d="M 114.500,149.000 C 102.399,151.086 102.373,150.263 90.500,154.000" stroke-width="2.293" stroke="black" fill="none" stroke-linecap="round"></path></svg>