<svg xmlns="http://www.w3.org/2000/svg" xmlns:xlink="http://www.w3.org/1999/xlink" viewBox="0 0 453 236" width="453" height="236"><path d="M 127.500,176.000 C 124.524,175.216 124.500,175.500 121.500,175.000" stroke-width="4.999" stroke="black" fill="none" stroke-linecap="round"></path><path d="M 121.500,175.000 C 117.500,175.000 117.524,174.716 113.500,175.000" stroke-width="4.731" stroke="black" fill="none" stroke-linecap="round"></path><path d="M 113.500,175.000 C 109.000,175.000 109.000,175.000 104.500,175.000" stroke-width="4.509" stroke="black" fill="none" stroke-linecap="round"></path><path d="M 104.500,175.000 C 101.457,175.394 101.500,175.000 98.500,175.000" stroke-width="4.208" stroke="black" fill="none" stroke-linecap="round"></path><path d="M 98.500,175.000 C 93.919,174.263 93.957,174.394 89.500,173.000" stroke-width="4.338" stroke="black" fill="none" stroke-linecap="round"></path><path d="M 89.500,173.000 C 83.710,172.264 86.919,172.263 84.500,171.000" stroke-width="4.831" stroke="black" fill="none" stroke-linecap="round"></path><path d="M 84.500,171.000 C 89.525,168.040 86.210,168.264 94.500,165.000" stroke-width="5.012" stroke="black" fill="none" stroke-linecap="round"></path><path d="M 94.500,165.000 C 98.609,162.662 98.525,162.540 102.500,160.000" stroke-width="3.947" stroke="black" fill="none" stroke-linecap="round"></path><path d="M 102.500,160.000 C 108.221,156.273 108.109,156.162 113.500,152.000" stroke-width="3.729" stroke="black" fill="none" stroke-linecap="round"></path><path d="M 113.500,152.000 C 118.512,147.513 118.721,147.773 123.500,143.000" stroke-width="3.601" stroke="black" fill="none" stroke-linecap="round"></path><path d="M 123.500,143.000 C 128.736,137.683 129.012,138.013 134.500,133.000" stroke-width="3.220" stroke="black" fill="none" stroke-linecap="round"></path><path d="M 134.500,133.000 C 145.063,125.080 144.736,124.683 155.500,117.000" stroke-width="2.364" stroke="black" fill="none" stroke-linecap="round"></path><path d="M 155.500,117.000 C 160.234,112.603 160.563,113.080 165.500,109.000" stroke-width="2.850" stroke="black" fill="none" stroke-linecap="round"></path><path d="M 165.500,109.000 C 169.951,106.408 169.734,106.103 174.500,104.000" stroke-width="3.323" stroke="black" fill="none" stroke-linecap="round"></path><path d="M 174.500,104.000 C 178.500,102.000 178.451,101.908 182.500,100.000" stroke-width="3.569" stroke="black" fill="none" stroke-linecap="round"></path><path d="M 182.500,100.000 C 190.083,94.542 186.500,98.000 190.500,96.000" stroke-width="4.161" stroke="black" fill="none" stroke-linecap="round"></path><path d="M 190.500,96.000 C 187.754,101.654 191.083,98.042 184.500,107.000" stroke-width="4.535" stroke="black" fill="none" stroke-linecap="round"></path><path d="M 184.500,107.000 C 181.017,113.408 180.754,113.154 176.500,119.000" stroke-width="3.303" stroke="black" fill="none" stroke-linecap="round"></path><path d="M 176.500,119.000 C 169.861,125.876 170.517,126.408 163.500,133.000" stroke-width="2.816" stroke="black" fill="none" stroke-linecap="round"></path><path d="M 163.500,133.000 C 157.769,140.249 157.361,139.876 151.500,147.000" stroke-width="2.733" stroke="black" fill="none" stroke-linecap="round"></path><path d="M 151.500,147.000 C 144.625,154.130 144.769,154.249 137.500,161.000" stroke-width="2.637" stroke="black" fill="none" stroke-linecap="round"></path><path d="M 137.500,161.000 C 130.764,167.812 130.625,167.630 123.500,174.000" stroke-width="2.645" stroke="black" fill="none" stroke-linecap="round"></path><path d="M 123.500,174.000 C 117.089,179.120 117.264,179.312 110.500,184.000" stroke-width="2.794" stroke="black" fill="none" stroke-linecap="round"></path><path d="M 110.500,184.000 C 103.500,189.000 103.589,189.120 96.500,194.000" stroke-width="2.735" stroke="black" fill="none" stroke-linecap="round"></path><path d="M 96.500,194.000 C 89.653,199.231 89.500,199.000 82.500,204.000" stroke-width="2.718" stroke="black" fill="none" stroke-linecap="round"></path><path d="M 82.500,204.000 C 76.208,208.388 76.153,208.231 69.500,212.000" stroke-width="2.938" stroke="black" fill="none" stroke-linecap="round"></path><path d="M 69.500,212.000 C 63.008,215.017 63.208,215.388 56.500,218.000" stroke-width="3.018" stroke="black" fill="none" stroke-linecap="round"></path><path d="M 56.500,218.000 C 51.133,220.854 51.008,220.517 45.500,223.000" stroke-width="3.146" stroke="black" fill="none" stroke-linecap="round"></path><path d="M 45.500,223.000 C 40.508,224.527 40.633,224.854 35.500,226.000" stroke-width="3.376" stroke="black" fill="none" stroke-linecap="round"></path><path d="M 35.500,226.000 C 32.063,227.452 32.008,227.027 28.500,228.000" stroke-width="3.705" stroke="black" fill="none" stroke-linecap="round"></path><path d="M 28.500,228.000 C 25.161,228.967 25.563,228.452 22.500,228.000" stroke-width="3.967" stroke="black" fill="none" stroke-linecap="round"></path><path d="M 22.500,228.000 C 18.255,226.515 19.661,226.967 17.500,224.000" stroke-width="4.622" stroke="black" fill="none" stroke-linecap="round"></path><path d="M 17.500,224.000 C 17.746,220.534 16.755,221.515 19.500,218.000" stroke-width="4.244" stroke="black" fill="none" stroke-linecap="round"></path><path d="M 19.500,218.000 C 22.782,214.253 22.246,214.034 26.500,211.000" stroke-width="3.794" stroke="black" fill="none" stroke-linecap="round"></path><path d="M 26.500,211.000 C 30.881,207.336 30.782,207.253 35.500,204.000" stroke-width="3.485" stroke="black" fill="none" stroke-linecap="round"></path><path d="M 35.500,204.000 C 39.731,200.498 39.881,200.836 44.500,198.000" stroke-width="3.394" stroke="black" fill="none" stroke-linecap="round"></path><path d="M 44.500,198.000 C 50.465,195.414 50.231,194.998 56.500,193.000" stroke-width="3.185" stroke="black" fill="none" stroke-linecap="round"></path><path d="M 56.500,193.000 C 62.902,190.199 62.965,190.414 69.500,188.000" stroke-width="3.119" stroke="black" fill="none" stroke-linecap="round"></path><path d="M 69.500,188.000 C 75.010,186.537 74.902,186.199 80.500,185.000" stroke-width="3.339" stroke="black" fill="none" stroke-linecap="round"></path><path d="M 80.500,185.000 C 87.500,183.000 87.510,183.037 94.500,181.000" stroke-width="3.117" stroke="black" fill="none" stroke-linecap="round"></path><path d="M 94.500,181.000 C 101.500,179.000 101.500,179.000 108.500,177.000" stroke-width="3.055" stroke="black" fill="none" stroke-linecap="round"></path><path d="M 108.500,177.000 C 115.602,175.299 115.500,175.000 122.500,173.000" stroke-width="3.093" stroke="black" fill="none" stroke-linecap="round"></path><path d="M 122.500,173.000 C 127.441,170.840 127.602,171.299 132.500,169.000" stroke-width="3.277" stroke="black" fill="none" stroke-linecap="round"></path><path d="M 132.500,169.000 C 138.427,166.735 138.441,166.840 144.500,165.000" stroke-width="3.240" stroke="black" fill="none" stroke-linecap="round"></path><path d="M 144.500,165.000 C 149.088,164.298 148.927,163.735 153.500,163.000" stroke-width="3.463" stroke="black" fill="none" stroke-linecap="round"></path><path d="M 153.500,163.000 C 157.513,161.533 157.588,161.798 161.500,160.000" stroke-width="3.655" stroke="black" fill="none" stroke-linecap="round"></path><path d="M 161.500,160.000 C 166.500,159.200 164.013,159.033 166.500,158.000" stroke-width="4.066" stroke="black" fill="none" stroke-linecap="round"></path><path d="M 166.500,158.000 C 164.099,155.260 166.500,156.700 161.500,155.000" stroke-width="4.861" stroke="black" fill="none" stroke-linecap="round"></path><path d="M 161.500,155.000 C 158.903,155.799 159.099,154.760 156.500,157.000" stroke-width="4.477" stroke="black" fill="none" stroke-linecap="round"></path><path d="M 156.500,157.000 C 152.931,158.889 152.903,158.799 149.500,161.000" stroke-width="3.992" stroke="black" fill="none" stroke-linecap="round"></path><path d="M 149.500,161.000 C 146.500,163.000 146.431,162.889 143.500,165.000" stroke-width="3.911" stroke="black" fill="none" stroke-linecap="round"></path><path d="M 143.500,165.000 C 140.148,166.616 140.500,167.000 137.500,169.000" stroke-width="3.938" stroke="black" fill="none" stroke-linecap="round"></path><path d="M 137.500,169.000 C 135.271,171.344 135.148,171.116 133.500,174.000" stroke-width="4.040" stroke="black" fill="none" stroke-linecap="round"></path><path d="M 133.500,174.000 C 128.193,178.821 131.271,177.344 129.500,181.000" stroke-width="4.398" stroke="black" fill="none" stroke-linecap="round"></path><path d="M 129.500,181.000 C 134.704,184.282 131.193,183.821 139.500,184.000" stroke-width="4.735" stroke="black" fill="none" stroke-linecap="round"></path><path d="M 139.500,184.000 C 143.084,182.135 143.204,183.782 146.500,180.000" stroke-width="4.051" stroke="black" fill="none" stroke-linecap="round"></path><path d="M 146.500,180.000 C 151.145,177.194 151.084,177.135 155.500,174.000" stroke-width="3.538" stroke="black" fill="none" stroke-linecap="round"></path><path d="M 155.500,174.000 C 158.478,171.473 158.645,171.694 161.500,169.000" stroke-width="3.754" stroke="black" fill="none" stroke-linecap="round"></path><path d="M 161.500,169.000 C 164.022,167.027 163.978,166.973 166.500,165.000" stroke-width="3.980" stroke="black" fill="none" stroke-linecap="round"></path><path d="M 166.500,165.000 C 172.204,162.072 169.522,162.527 172.500,160.000" stroke-width="4.378" stroke="black" fill="none" stroke-linecap="round"></path><path d="M 172.500,160.000 C 169.425,157.038 172.704,158.572 167.500,158.000" stroke-width="4.930" stroke="black" fill="none" stroke-linecap="round"></path><path d="M 167.500,158.000 C 164.396,161.209 164.425,159.538 162.500,165.000" stroke-width="4.593" stroke="black" fill="none" stroke-linecap="round"></path><path d="M 162.500,165.000 C 161.130,168.429 160.896,168.209 160.500,172.000" stroke-width="4.211" stroke="black" fill="none" stroke-linecap="round"></path><path d="M 160.500,172.000 C 159.813,176.991 159.630,176.929 159.500,182.000" stroke-width="4.281" stroke="black" fill="none" stroke-linecap="round"></path><path d="M 159.500,182.000 C 157.796,187.621 159.313,184.991 159.500,188.000" stroke-width="4.619" stroke="black" fill="none" stroke-linecap="round"></path><path d="M 159.500,188.000 C 164.282,186.481 162.296,188.621 168.500,184.000" stroke-width="4.733" stroke="black" fill="none" stroke-linecap="round"></path><path d="M 168.500,184.000 C 172.622,181.151 172.782,181.481 176.500,178.000" stroke-width="3.765" stroke="black" fill="none" stroke-linecap="round"></path><path d="M 176.500,178.000 C 180.625,174.633 180.622,174.651 184.500,171.000" stroke-width="3.487" stroke="black" fill="none" stroke-linecap="round"></path><path d="M 184.500,171.000 C 188.500,167.000 188.625,167.133 192.500,163.000" stroke-width="3.409" stroke="black" fill="none" stroke-linecap="round"></path><path d="M 192.500,163.000 C 197.762,158.237 197.500,158.000 202.500,153.000" stroke-width="3.329" stroke="black" fill="none" stroke-linecap="round"></path><path d="M 202.500,153.000 C 207.121,147.595 207.262,147.737 211.500,142.000" stroke-width="3.197" stroke="black" fill="none" stroke-linecap="round"></path><path d="M 211.500,142.000 C 215.962,135.971 216.121,136.095 220.500,130.000" stroke-width="2.985" stroke="black" fill="none" stroke-linecap="round"></path><path d="M 220.500,130.000 C 225.349,123.378 225.462,123.471 230.500,117.000" stroke-width="3.009" stroke="black" fill="none" stroke-linecap="round"></path><path d="M 230.500,117.000 C 236.151,110.622 235.849,110.378 241.500,104.000" stroke-width="2.804" stroke="black" fill="none" stroke-linecap="round"></path><path d="M 241.500,104.000 C 246.410,97.429 246.651,97.622 251.500,91.000" stroke-width="2.786" stroke="black" fill="none" stroke-linecap="round"></path><path d="M 251.500,91.000 C 255.951,85.459 255.910,85.429 260.500,80.000" stroke-width="2.975" stroke="black" fill="none" stroke-linecap="round"></path><path d="M 260.500,80.000 C 263.743,76.675 263.451,76.459 266.500,73.000" stroke-width="3.415" stroke="black" fill="none" stroke-linecap="round"></path><path d="M 266.500,73.000 C 271.127,67.750 268.243,70.675 269.500,68.000" stroke-width="3.881" stroke="black" fill="none" stroke-linecap="round"></path><path d="M 269.500,68.000 C 260.890,70.513 264.627,68.750 253.500,75.000" stroke-width="4.270" stroke="black" fill="none" stroke-linecap="round"></path><path d="M 253.500,75.000 C 247.002,79.498 246.890,79.013 241.500,85.000" stroke-width="3.163" stroke="black" fill="none" stroke-linecap="round"></path><path d="M 241.500,85.000 C 235.723,91.285 235.502,90.998 230.500,98.000" stroke-width="2.907" stroke="black" fill="none" stroke-linecap="round"></path><path d="M 230.500,98.000 C 225.052,104.717 225.223,104.785 220.500,112.000" stroke-width="2.767" stroke="black" fill="none" stroke-linecap="round"></path><path d="M 220.500,112.000 C 215.329,120.910 215.052,120.717 210.500,130.000" stroke-width="2.607" stroke="black" fill="none" stroke-linecap="round"></path><path d="M 210.500,130.000 C 206.758,136.891 206.829,136.910 203.500,144.000" stroke-width="2.768" stroke="black" fill="none" stroke-linecap="round"></path><path d="M 203.500,144.000 C 201.685,149.083 201.258,148.891 199.500,154.000" stroke-width="3.209" stroke="black" fill="none" stroke-linecap="round"></path><path d="M 199.500,154.000 C 197.257,157.899 197.685,158.083 195.500,162.000" stroke-width="3.528" stroke="black" fill="none" stroke-linecap="round"></path><path d="M 195.500,162.000 C 194.580,165.029 194.257,164.899 193.500,168.000" stroke-width="3.910" stroke="black" fill="none" stroke-linecap="round"></path><path d="M 193.500,168.000 C 190.419,172.135 192.580,170.529 191.500,173.000" stroke-width="4.156" stroke="black" fill="none" stroke-linecap="round"></path><path d="M 191.500,173.000 C 195.476,173.601 192.919,174.135 198.500,172.000" stroke-width="4.767" stroke="black" fill="none" stroke-linecap="round"></path><path d="M 198.500,172.000 C 203.623,168.145 203.976,169.101 208.500,164.000" stroke-width="3.557" stroke="black" fill="none" stroke-linecap="round"></path><path d="M 208.500,164.000 C 213.603,159.609 213.623,159.645 218.500,155.000" stroke-width="3.255" stroke="black" fill="none" stroke-linecap="round"></path><path d="M 218.500,155.000 C 221.857,151.340 222.103,151.609 225.500,148.000" stroke-width="3.508" stroke="black" fill="none" stroke-linecap="round"></path><path d="M 225.500,148.000 C 228.111,146.124 227.857,145.840 230.500,144.000" stroke-width="3.894" stroke="black" fill="none" stroke-linecap="round"></path><path d="M 230.500,144.000 C 234.500,139.765 232.611,142.124 234.500,140.000" stroke-width="4.500" stroke="black" fill="none" stroke-linecap="round"></path><path d="M 234.500,140.000 C 232.420,142.440 234.500,140.265 230.500,145.000" stroke-width="4.661" stroke="black" fill="none" stroke-linecap="round"></path><path d="M 230.500,145.000 C 227.747,148.348 227.920,148.440 225.500,152.000" stroke-width="4.028" stroke="black" fill="none" stroke-linecap="round"></path><path d="M 225.500,152.000 C 223.636,154.875 223.747,154.848 222.500,158.000" stroke-width="4.077" stroke="black" fill="none" stroke-linecap="round"></path><path d="M 222.500,158.000 C 221.956,160.492 221.636,160.375 221.500,163.000" stroke-width="4.249" stroke="black" fill="none" stroke-linecap="round"></path><path d="M 221.500,163.000 C 218.738,168.295 220.956,165.992 220.500,169.000" stroke-width="4.602" stroke="black" fill="none" stroke-linecap="round"></path><path d="M 220.500,169.000 C 226.294,168.822 223.738,170.295 231.500,167.000" stroke-width="4.337" stroke="black" fill="none" stroke-linecap="round"></path><path d="M 231.500,167.000 C 236.087,164.648 236.294,165.322 240.500,162.000" stroke-width="3.831" stroke="black" fill="none" stroke-linecap="round"></path><path d="M 240.500,162.000 C 248.443,156.904 248.587,157.148 256.500,152.000" stroke-width="2.861" stroke="black" fill="none" stroke-linecap="round"></path><path d="M 256.500,152.000 C 262.967,147.734 259.943,149.904 263.500,148.000" stroke-width="3.900" stroke="black" fill="none" stroke-linecap="round"></path><path d="M 263.500,148.000 C 260.728,150.277 263.967,148.234 258.500,153.000" stroke-width="4.559" stroke="black" fill="none" stroke-linecap="round"></path><path d="M 258.500,153.000 C 256.102,155.796 256.228,155.777 254.500,159.000" stroke-width="4.292" stroke="black" fill="none" stroke-linecap="round"></path><path d="M 254.500,159.000 C 249.632,165.132 252.602,162.796 251.500,167.000" stroke-width="4.414" stroke="black" fill="none" stroke-linecap="round"></path><path d="M 251.500,167.000 C 257.951,168.979 254.132,169.632 263.500,168.000" stroke-width="4.641" stroke="black" fill="none" stroke-linecap="round"></path><path d="M 263.500,168.000 C 265.883,165.832 266.451,167.479 268.500,164.000" stroke-width="4.186" stroke="black" fill="none" stroke-linecap="round"></path><path d="M 268.500,164.000 C 271.117,162.668 270.883,162.332 273.500,161.000" stroke-width="4.141" stroke="black" fill="none" stroke-linecap="round"></path><path d="M 273.500,161.000 C 278.715,156.570 276.117,159.168 278.500,157.000" stroke-width="4.509" stroke="black" fill="none" stroke-linecap="round"></path><path d="M 278.500,157.000 C 275.500,160.000 278.215,157.570 272.500,163.000" stroke-width="4.695" stroke="black" fill="none" stroke-linecap="round"></path><path d="M 272.500,163.000 C 270.285,164.818 270.500,165.000 268.500,167.000" stroke-width="4.304" stroke="black" fill="none" stroke-linecap="round"></path><path d="M 268.500,167.000 C 262.439,173.788 265.785,170.318 263.500,174.000" stroke-width="4.639" stroke="black" fill="none" stroke-linecap="round"></path><path d="M 263.500,174.000 C 269.210,171.813 264.939,174.288 273.500,168.000" stroke-width="4.850" stroke="black" fill="none" stroke-linecap="round"></path><path d="M 273.500,168.000 C 277.585,163.066 278.210,163.813 281.500,158.000" stroke-width="3.571" stroke="black" fill="none" stroke-linecap="round"></path><path d="M 281.500,158.000 C 285.927,151.944 286.085,152.066 290.500,146.000" stroke-width="3.142" stroke="black" fill="none" stroke-linecap="round"></path><path d="M 290.500,146.000 C 296.308,139.223 295.927,138.944 301.500,132.000" stroke-width="2.790" stroke="black" fill="none" stroke-linecap="round"></path><path d="M 301.500,132.000 C 307.942,123.263 307.808,123.223 313.500,114.000" stroke-width="2.728" stroke="black" fill="none" stroke-linecap="round"></path><path d="M 313.500,114.000 C 317.974,105.486 318.442,105.763 322.500,97.000" stroke-width="2.604" stroke="black" fill="none" stroke-linecap="round"></path><path d="M 322.500,97.000 C 326.301,90.645 325.974,90.486 329.500,84.000" stroke-width="2.876" stroke="black" fill="none" stroke-linecap="round"></path><path d="M 329.500,84.000 C 332.328,76.920 332.801,77.145 335.500,70.000" stroke-width="2.880" stroke="black" fill="none" stroke-linecap="round"></path><path d="M 335.500,70.000 C 337.764,64.863 337.828,64.920 340.500,60.000" stroke-width="3.221" stroke="black" fill="none" stroke-linecap="round"></path><path d="M 340.500,60.000 C 344.752,54.252 342.264,56.863 344.500,54.000" stroke-width="3.654" stroke="black" fill="none" stroke-linecap="round"></path><path d="M 344.500,54.000 C 341.931,56.434 344.252,53.752 339.500,59.000" stroke-width="4.548" stroke="black" fill="none" stroke-linecap="round"></path><path d="M 339.500,59.000 C 332.632,65.689 332.931,65.934 326.500,73.000" stroke-width="2.950" stroke="black" fill="none" stroke-linecap="round"></path><path d="M 326.500,73.000 C 319.838,81.381 319.632,81.189 313.500,90.000" stroke-width="2.612" stroke="black" fill="none" stroke-linecap="round"></path><path d="M 313.500,90.000 C 307.029,98.204 307.338,98.381 301.500,107.000" stroke-width="2.663" stroke="black" fill="none" stroke-linecap="round"></path><path d="M 301.500,107.000 C 296.329,115.910 296.029,115.704 291.500,125.000" stroke-width="2.578" stroke="black" fill="none" stroke-linecap="round"></path><path d="M 291.500,125.000 C 287.886,131.946 287.829,131.910 284.500,139.000" stroke-width="2.758" stroke="black" fill="none" stroke-linecap="round"></path><path d="M 284.500,139.000 C 282.086,144.541 281.886,144.446 279.500,150.000" stroke-width="3.380" stroke="black" fill="none" stroke-linecap="round"></path><path d="M 279.500,150.000 C 277.257,153.899 277.586,154.041 275.500,158.000" stroke-width="3.536" stroke="black" fill="none" stroke-linecap="round"></path><path d="M 275.500,158.000 C 274.580,161.029 274.257,160.899 273.500,164.000" stroke-width="3.989" stroke="black" fill="none" stroke-linecap="round"></path><path d="M 273.500,164.000 C 270.609,168.555 272.580,166.529 271.500,169.000" stroke-width="4.570" stroke="black" fill="none" stroke-linecap="round"></path><path d="M 271.500,169.000 C 274.541,167.578 272.609,169.555 277.500,166.000" stroke-width="4.844" stroke="black" fill="none" stroke-linecap="round"></path><path d="M 277.500,166.000 C 281.951,163.408 282.041,163.578 286.500,161.000" stroke-width="3.753" stroke="black" fill="none" stroke-linecap="round"></path><path d="M 286.500,161.000 C 290.455,158.904 290.451,158.908 294.500,157.000" stroke-width="3.756" stroke="black" fill="none" stroke-linecap="round"></path><path d="M 294.500,157.000 C 298.900,154.725 298.955,154.904 303.500,153.000" stroke-width="3.671" stroke="black" fill="none" stroke-linecap="round"></path><path d="M 303.500,153.000 C 306.980,151.926 306.900,151.725 310.500,151.000" stroke-width="3.939" stroke="black" fill="none" stroke-linecap="round"></path><path d="M 310.500,151.000 C 316.433,148.958 316.480,149.426 322.500,148.000" stroke-width="3.435" stroke="black" fill="none" stroke-linecap="round"></path><path d="M 322.500,148.000 C 327.510,146.259 325.933,147.458 329.500,148.000" stroke-width="4.198" stroke="black" fill="none" stroke-linecap="round"></path><path d="M 329.500,148.000 C 331.846,152.115 331.510,149.759 330.500,155.000" stroke-width="4.524" stroke="black" fill="none" stroke-linecap="round"></path><path d="M 330.500,155.000 C 326.903,159.478 328.346,159.615 322.500,163.000" stroke-width="3.587" stroke="black" fill="none" stroke-linecap="round"></path><path d="M 322.500,163.000 C 314.252,169.390 314.403,169.478 305.500,175.000" stroke-width="2.775" stroke="black" fill="none" stroke-linecap="round"></path><path d="M 305.500,175.000 C 294.606,181.685 294.752,181.890 283.500,188.000" stroke-width="2.318" stroke="black" fill="none" stroke-linecap="round"></path><path d="M 283.500,188.000 C 269.392,196.820 269.106,196.185 254.500,204.000" stroke-width="1.955" stroke="black" fill="none" stroke-linecap="round"></path><path d="M 254.500,204.000 C 241.163,209.940 241.392,210.320 227.500,215.000" stroke-width="2.219" stroke="black" fill="none" stroke-linecap="round"></path><path d="M 227.500,215.000 C 214.205,220.288 214.163,219.940 200.500,224.000" stroke-width="2.137" stroke="black" fill="none" stroke-linecap="round"></path><path d="M 200.500,224.000 C 190.085,226.709 190.205,226.788 179.500,228.000" stroke-width="2.373" stroke="black" fill="none" stroke-linecap="round"></path><path d="M 179.500,228.000 C 169.506,228.743 169.585,229.209 159.500,229.000" stroke-width="2.516" stroke="black" fill="none" stroke-linecap="round"></path><path d="M 159.500,229.000 C 149.841,230.132 150.006,229.243 140.500,229.000" stroke-width="2.555" stroke="black" fill="none" stroke-linecap="round"></path><path d="M 140.500,229.000 C 133.031,228.014 133.341,228.132 126.500,225.000" stroke-width="2.816" stroke="black" fill="none" stroke-linecap="round"></path><path d="M 126.500,225.000 C 119.646,221.889 120.031,222.014 114.500,217.000" stroke-width="2.971" stroke="black" fill="none" stroke-linecap="round"></path><path d="M 114.500,217.000 C 109.823,211.880 109.646,212.389 106.500,206.000" stroke-width="3.019" stroke="black" fill="none" stroke-linecap="round"></path><path d="M 106.500,206.000 C 102.750,200.250 103.323,200.380 101.500,194.000" stroke-width="3.135" stroke="black" fill="none" stroke-linecap="round"></path><path d="M 101.500,194.000 C 101.500,187.500 100.250,187.750 101.500,181.000" stroke-width="3.172" stroke="black" fill="none" stroke-linecap="round"></path><path d="M 101.500,181.000 C 100.212,173.301 101.500,173.500 101.500,166.000" stroke-width="2.979" stroke="black" fill="none" stroke-linecap="round"></path><path d="M 101.500,166.000 C 103.371,155.986 103.212,156.301 107.500,147.000" stroke-width="2.695" stroke="black" fill="none" stroke-linecap="round"></path><path d="M 107.500,147.000 C 112.092,137.307 111.871,137.486 118.500,129.000" stroke-width="2.501" stroke="black" fill="none" stroke-linecap="round"></path><path d="M 118.500,129.000 C 125.475,119.264 125.592,119.807 134.500,112.000" stroke-width="2.408" stroke="black" fill="none" stroke-linecap="round"></path><path d="M 134.500,112.000 C 146.384,102.810 145.975,102.764 159.500,96.000" stroke-width="2.201" stroke="black" fill="none" stroke-linecap="round"></path><path d="M 159.500,96.000 C 172.728,89.682 172.384,89.310 186.500,85.000" stroke-width="2.051" stroke="black" fill="none" stroke-linecap="round"></path><path d="M 186.500,85.000 C 197.895,81.532 197.728,81.182 209.500,79.000" stroke-width="2.249" stroke="black" fill="none" stroke-linecap="round"></path><path d="M 209.500,79.000 C 225.435,75.582 225.395,75.532 241.500,73.000" stroke-width="1.957" stroke="black" fill="none" stroke-linecap="round"></path><path d="M 241.500,73.000 C 253.456,70.964 253.435,71.082 265.500,70.000" stroke-width="2.199" stroke="black" fill="none" stroke-linecap="round"></path><path d="M 265.500,70.000 C 278.495,69.260 278.456,68.964 291.500,69.000" stroke-width="2.269" stroke="black" fill="none" stroke-linecap="round"></path><path d="M 291.500,69.000 C 303.583,68.106 303.495,68.760 315.500,69.000" stroke-width="2.256" stroke="black" fill="none" stroke-linecap="round"></path><path d="M 315.500,69.000 C 323.793,69.629 323.583,69.606 331.500,72.000" stroke-width="2.655" stroke="black" fill="none" stroke-linecap="round"></path><path d="M 331.500,72.000 C 336.906,73.937 336.793,73.629 341.500,77.000" stroke-width="3.083" stroke="black" fill="none" stroke-linecap="round"></path><path d="M 341.500,77.000 C 345.464,78.893 344.406,78.937 346.500,82.000" stroke-width="3.656" stroke="black" fill="none" stroke-linecap="round"></path><path d="M 346.500,82.000 C 349.406,88.513 347.964,86.393 346.500,92.000" stroke-width="3.518" stroke="black" fill="none" stroke-linecap="round"></path><path d="M 346.500,92.000 C 336.807,99.479 339.406,100.513 326.500,106.000" stroke-width="2.642" stroke="black" fill="none" stroke-linecap="round"></path><path d="M 326.500,106.000 C 312.438,115.385 312.307,114.979 297.500,123.000" stroke-width="2.126" stroke="black" fill="none" stroke-linecap="round"></path><path d="M 297.500,123.000 C 286.668,127.961 286.938,128.385 275.500,132.000" stroke-width="2.275" stroke="black" fill="none" stroke-linecap="round"></path><path d="M 275.500,132.000 C 263.182,136.703 263.168,136.461 250.500,140.000" stroke-width="2.172" stroke="black" fill="none" stroke-linecap="round"></path><path d="M 250.500,140.000 C 238.140,143.618 238.182,143.203 225.500,145.000" stroke-width="2.567" stroke="black" fill="none" stroke-linecap="round"></path><path d="M 225.500,145.000 C 206.005,146.204 206.140,147.118 186.500,147.000" stroke-width="1.835" stroke="black" fill="none" stroke-linecap="round"></path><path d="M 186.500,147.000 C 178.453,149.821 181.505,147.204 176.500,147.000" stroke-width="2.734" stroke="black" fill="none" stroke-linecap="round"></path><path d="M 353.500,172.000 C 356.607,168.336 357.000,169.000 360.500,166.000" stroke-width="5.200" stroke="black" fill="none" stroke-linecap="round"></path><path d="M 360.500,166.000 C 364.508,164.521 364.107,163.836 368.500,163.000" stroke-width="4.023" stroke="black" fill="none" stroke-linecap="round"></path><path d="M 368.500,163.000 C 375.015,160.538 375.008,160.521 381.500,158.000" stroke-width="3.322" stroke="black" fill="none" stroke-linecap="round"></path><path d="M 381.500,158.000 C 386.639,156.288 386.515,156.038 391.500,154.000" stroke-width="3.458" stroke="black" fill="none" stroke-linecap="round"></path><path d="M 391.500,154.000 C 394.903,151.799 395.139,152.288 398.500,150.000" stroke-width="3.651" stroke="black" fill="none" stroke-linecap="round"></path><path d="M 398.500,150.000 C 404.760,147.055 400.903,148.799 403.500,148.000" stroke-width="4.101" stroke="black" fill="none" stroke-linecap="round"></path><path d="M 403.500,148.000 C 395.084,153.635 398.760,151.555 386.500,159.000" stroke-width="4.308" stroke="black" fill="none" stroke-linecap="round"></path><path d="M 386.500,159.000 C 379.251,163.991 379.084,163.635 371.500,168.000" stroke-width="3.359" stroke="black" fill="none" stroke-linecap="round"></path><path d="M 371.500,168.000 C 364.586,171.227 364.751,171.491 357.500,174.000" stroke-width="3.074" stroke="black" fill="none" stroke-linecap="round"></path><path d="M 357.500,174.000 C 353.053,175.699 353.086,175.727 348.500,177.000" stroke-width="3.431" stroke="black" fill="none" stroke-linecap="round"></path><path d="M 348.500,177.000 C 342.478,178.292 346.053,177.699 343.500,178.000" stroke-width="3.975" stroke="black" fill="none" stroke-linecap="round"></path><path d="M 343.500,178.000 C 349.556,176.698 345.978,177.292 355.500,175.000" stroke-width="4.271" stroke="black" fill="none" stroke-linecap="round"></path><path d="M 355.500,175.000 C 363.500,172.500 363.556,172.698 371.500,170.000" stroke-width="3.151" stroke="black" fill="none" stroke-linecap="round"></path><path d="M 371.500,170.000 C 379.435,167.268 379.500,167.500 387.500,165.000" stroke-width="2.921" stroke="black" fill="none" stroke-linecap="round"></path><path d="M 387.500,165.000 C 395.539,163.143 395.435,162.768 403.500,161.000" stroke-width="2.875" stroke="black" fill="none" stroke-linecap="round"></path><path d="M 403.500,161.000 C 408.422,159.129 408.539,159.643 413.500,158.000" stroke-width="3.322" stroke="black" fill="none" stroke-linecap="round"></path><path d="M 413.500,158.000 C 417.518,157.613 417.422,157.129 421.500,157.000" stroke-width="3.604" stroke="black" fill="none" stroke-linecap="round"></path><path d="M 421.500,157.000 C 427.541,156.000 424.018,156.613 426.500,156.000" stroke-width="4.082" stroke="black" fill="none" stroke-linecap="round"></path><path d="M 426.500,156.000 C 420.439,156.086 424.041,156.000 414.500,157.000" stroke-width="4.539" stroke="black" fill="none" stroke-linecap="round"></path><path d="M 414.500,157.000 C 407.560,158.861 407.439,158.086 400.500,160.000" stroke-width="3.312" stroke="black" fill="none" stroke-linecap="round"></path><path d="M 400.500,160.000 C 392.003,161.028 392.060,161.361 383.500,162.000" stroke-width="2.872" stroke="black" fill="none" stroke-linecap="round"></path><path d="M 383.500,162.000 C 374.534,163.479 374.503,163.028 365.500,164.000" stroke-width="2.824" stroke="black" fill="none" stroke-linecap="round"></path><path d="M 365.500,164.000 C 348.497,164.414 348.534,164.979 331.500,165.000" stroke-width="2.786" stroke="black" fill="none" stroke-linecap="round"></path><path d="M 331.500,165.000 C 319.350,164.606 319.497,165.414 307.500,166.000" stroke-width="3.149" stroke="black" fill="none" stroke-linecap="round"></path><path d="M 307.500,166.000 C 302.367,167.146 302.350,166.606 297.500,169.000" stroke-width="3.323" stroke="black" fill="none" stroke-linecap="round"></path></svg>