<svg xmlns="http://www.w3.org/2000/svg" xmlns:xlink="http://www.w3.org/1999/xlink" viewBox="0 0 1460 576" width="1460" height="576"><path d="M 594.000,221.000 C 586.726,225.138 586.500,224.500 579.000,228.000" stroke-width="3.684" stroke="black" fill="none" stroke-linecap="round"></path><path d="M 579.000,228.000 C 573.122,230.490 573.226,230.138 567.000,231.000" stroke-width="3.739" stroke="black" fill="none" stroke-linecap="round"></path><path d="M 567.000,231.000 C 554.893,231.767 555.122,231.990 543.000,231.000" stroke-width="3.038" stroke="black" fill="none" stroke-linecap="round"></path><path d="M 543.000,231.000 C 536.898,232.248 539.393,230.767 536.000,229.000" stroke-width="3.574" stroke="black" fill="none" stroke-linecap="round"></path><path d="M 536.000,229.000 C 518.192,197.743 530.398,208.748 530.000,184.000" stroke-width="2.521" stroke="black" fill="none" stroke-linecap="round"></path><path d="M 530.000,184.000 C 562.010,161.536 548.692,162.243 597.000,158.000" stroke-width="1.880" stroke="black" fill="none" stroke-linecap="round"></path><path d="M 597.000,158.000 C 658.280,156.993 656.010,152.036 718.000,165.000" stroke-width="1.125" stroke="black" fill="none" stroke-linecap="round"></path><path d="M 718.000,165.000 C 748.345,170.329 747.780,168.993 776.000,182.000" stroke-width="1.167" stroke="black" fill="none" stroke-linecap="round"></path><path d="M 776.000,182.000 C 804.328,193.403 802.845,193.329 827.000,211.000" stroke-width="1.621" stroke="black" fill="none" stroke-linecap="round"></path><path d="M 827.000,211.000 C 841.850,221.581 837.828,219.403 843.000,234.000" stroke-width="1.987" stroke="black" fill="none" stroke-linecap="round"></path><path d="M 843.000,234.000 C 843.955,255.817 844.350,248.581 832.000,265.000" stroke-width="2.454" stroke="black" fill="none" stroke-linecap="round"></path></svg>