<svg xmlns="http://www.w3.org/2000/svg" xmlns:xlink="http://www.w3.org/1999/xlink" viewBox="0 0 1460 576" width="1460" height="576"><path d="M 743.000,325.000 C 741.945,322.521 742.000,322.500 741.000,320.000" stroke-width="5.482" stroke="black" fill="none" stroke-linecap="round"></path><path d="M 741.000,320.000 C 737.113,310.623 737.445,310.521 734.000,301.000" stroke-width="3.054" stroke="black" fill="none" stroke-linecap="round"></path><path d="M 734.000,301.000 C 731.386,293.624 731.613,293.623 730.000,286.000" stroke-width="2.974" stroke="black" fill="none" stroke-linecap="round"></path><path d="M 730.000,286.000 C 728.070,271.490 727.386,271.624 726.000,257.000" stroke-width="2.275" stroke="black" fill="none" stroke-linecap="round"></path><path d="M 726.000,257.000 C 725.081,250.487 725.070,250.490 724.000,244.000" stroke-width="2.880" stroke="black" fill="none" stroke-linecap="round"></path><path d="M 724.000,244.000 C 723.661,235.162 722.581,235.487 721.000,227.000" stroke-width="2.689" stroke="black" fill="none" stroke-linecap="round"></path><path d="M 721.000,227.000 C 716.699,211.299 716.161,212.162 709.000,198.000" stroke-width="2.698" stroke="black" fill="none" stroke-linecap="round"></path><path d="M 709.000,198.000 C 704.266,193.157 705.699,192.299 699.000,189.000" stroke-width="3.043" stroke="black" fill="none" stroke-linecap="round"></path><path d="M 699.000,189.000 C 694.500,186.000 694.766,185.657 690.000,183.000" stroke-width="3.197" stroke="black" fill="none" stroke-linecap="round"></path><path d="M 690.000,183.000 C 685.653,179.737 685.500,180.000 681.000,177.000" stroke-width="3.878" stroke="black" fill="none" stroke-linecap="round"></path><path d="M 681.000,177.000 C 676.951,172.768 677.153,174.737 673.000,173.000" stroke-width="4.264" stroke="black" fill="none" stroke-linecap="round"></path><path d="M 673.000,173.000 C 667.123,174.357 668.451,173.268 664.000,178.000" stroke-width="5.010" stroke="black" fill="none" stroke-linecap="round"></path><path d="M 664.000,178.000 C 662.213,182.418 661.123,181.357 661.000,187.000" stroke-width="3.874" stroke="black" fill="none" stroke-linecap="round"></path><path d="M 661.000,187.000 C 658.185,199.548 657.713,199.418 655.000,212.000" stroke-width="2.564" stroke="black" fill="none" stroke-linecap="round"></path><path d="M 655.000,212.000 C 652.653,221.045 652.685,221.048 650.000,230.000" stroke-width="2.586" stroke="black" fill="none" stroke-linecap="round"></path><path d="M 650.000,230.000 C 645.675,248.446 644.653,248.045 639.000,266.000" stroke-width="2.644" stroke="black" fill="none" stroke-linecap="round"></path><path d="M 639.000,266.000 C 631.136,283.565 632.175,283.946 623.000,301.000" stroke-width="1.924" stroke="black" fill="none" stroke-linecap="round"></path><path d="M 623.000,301.000 C 620.770,306.153 620.636,306.065 618.000,311.000" stroke-width="2.723" stroke="black" fill="none" stroke-linecap="round"></path><path d="M 618.000,311.000 C 614.389,316.432 614.770,316.653 611.000,322.000" stroke-width="3.030" stroke="black" fill="none" stroke-linecap="round"></path><path d="M 611.000,322.000 C 608.639,330.355 607.389,327.932 604.000,334.000" stroke-width="3.645" stroke="black" fill="none" stroke-linecap="round"></path><path d="M 604.000,334.000 C 600.258,334.275 601.639,335.855 597.000,333.000" stroke-width="4.743" stroke="black" fill="none" stroke-linecap="round"></path><path d="M 597.000,333.000 C 589.000,329.000 588.758,329.775 581.000,325.000" stroke-width="3.060" stroke="black" fill="none" stroke-linecap="round"></path><path d="M 581.000,325.000 C 577.612,324.062 578.000,323.500 575.000,322.000" stroke-width="3.682" stroke="black" fill="none" stroke-linecap="round"></path><path d="M 575.000,322.000 C 568.404,316.099 568.112,316.562 562.000,310.000" stroke-width="2.911" stroke="black" fill="none" stroke-linecap="round"></path><path d="M 562.000,310.000 C 558.132,305.857 557.904,306.099 554.000,302.000" stroke-width="3.170" stroke="black" fill="none" stroke-linecap="round"></path><path d="M 554.000,302.000 C 550.354,299.157 550.632,298.857 547.000,296.000" stroke-width="3.439" stroke="black" fill="none" stroke-linecap="round"></path><path d="M 547.000,296.000 C 541.556,291.385 541.854,291.157 537.000,286.000" stroke-width="3.172" stroke="black" fill="none" stroke-linecap="round"></path><path d="M 537.000,286.000 C 530.047,278.516 530.556,278.385 525.000,270.000" stroke-width="2.737" stroke="black" fill="none" stroke-linecap="round"></path><path d="M 525.000,270.000 C 523.697,264.056 522.047,265.016 521.000,259.000" stroke-width="3.127" stroke="black" fill="none" stroke-linecap="round"></path><path d="M 521.000,259.000 C 519.268,256.649 519.697,256.556 517.000,255.000" stroke-width="4.168" stroke="black" fill="none" stroke-linecap="round"></path><path d="M 517.000,255.000 C 513.747,252.071 513.768,252.649 510.000,251.000" stroke-width="4.619" stroke="black" fill="none" stroke-linecap="round"></path><path d="M 510.000,251.000 C 506.098,249.724 506.747,250.071 503.000,251.000" stroke-width="4.156" stroke="black" fill="none" stroke-linecap="round"></path><path d="M 503.000,251.000 C 497.725,254.150 497.598,253.224 493.000,258.000" stroke-width="3.430" stroke="black" fill="none" stroke-linecap="round"></path><path d="M 493.000,258.000 C 484.652,265.679 484.225,265.150 476.000,273.000" stroke-width="2.646" stroke="black" fill="none" stroke-linecap="round"></path><path d="M 476.000,273.000 C 465.480,282.677 465.152,282.179 454.000,291.000" stroke-width="2.899" stroke="black" fill="none" stroke-linecap="round"></path><path d="M 454.000,291.000 C 445.365,297.317 445.480,297.177 436.000,302.000" stroke-width="2.615" stroke="black" fill="none" stroke-linecap="round"></path><path d="M 436.000,302.000 C 431.132,304.172 431.365,304.317 426.000,305.000" stroke-width="3.169" stroke="black" fill="none" stroke-linecap="round"></path><path d="M 426.000,305.000 C 415.458,307.000 415.632,306.672 405.000,307.000" stroke-width="3.348" stroke="black" fill="none" stroke-linecap="round"></path><path d="M 405.000,307.000 C 399.399,306.350 399.458,307.000 394.000,305.000" stroke-width="3.432" stroke="black" fill="none" stroke-linecap="round"></path><path d="M 394.000,305.000 C 391.500,304.000 391.399,304.350 389.000,303.000" stroke-width="3.941" stroke="black" fill="none" stroke-linecap="round"></path><path d="M 389.000,303.000 C 386.220,302.480 386.500,302.000 384.000,301.000" stroke-width="4.125" stroke="black" fill="none" stroke-linecap="round"></path><path d="M 384.000,301.000 C 379.150,296.795 378.720,297.480 374.000,293.000" stroke-width="3.369" stroke="black" fill="none" stroke-linecap="round"></path><path d="M 374.000,293.000 C 369.555,289.915 369.650,289.795 365.000,287.000" stroke-width="3.469" stroke="black" fill="none" stroke-linecap="round"></path><path d="M 365.000,287.000 C 357.396,281.198 357.055,281.915 349.000,277.000" stroke-width="2.865" stroke="black" fill="none" stroke-linecap="round"></path><path d="M 349.000,277.000 C 341.162,273.448 341.396,273.198 333.000,271.000" stroke-width="2.762" stroke="black" fill="none" stroke-linecap="round"></path><path d="M 333.000,271.000 C 326.057,269.176 326.162,268.948 319.000,268.000" stroke-width="2.960" stroke="black" fill="none" stroke-linecap="round"></path><path d="M 319.000,268.000 C 308.031,266.193 308.057,266.176 297.000,265.000" stroke-width="2.509" stroke="black" fill="none" stroke-linecap="round"></path><path d="M 297.000,265.000 C 289.511,264.156 289.531,264.193 282.000,264.000" stroke-width="2.771" stroke="black" fill="none" stroke-linecap="round"></path><path d="M 282.000,264.000 C 265.500,264.000 265.511,263.656 249.000,264.000" stroke-width="2.829" stroke="black" fill="none" stroke-linecap="round"></path><path d="M 249.000,264.000 C 239.000,264.000 239.000,264.000 229.000,264.000" stroke-width="2.653" stroke="black" fill="none" stroke-linecap="round"></path><path d="M 229.000,264.000 C 219.933,263.234 220.000,264.000 211.000,264.000" stroke-width="2.649" stroke="black" fill="none" stroke-linecap="round"></path><path d="M 211.000,264.000 C 202.497,265.483 202.433,264.734 194.000,267.000" stroke-width="2.747" stroke="black" fill="none" stroke-linecap="round"></path><path d="M 194.000,267.000 C 188.531,268.349 188.497,267.983 183.000,269.000" stroke-width="3.642" stroke="black" fill="none" stroke-linecap="round"></path></svg>