<svg xmlns="http://www.w3.org/2000/svg" xmlns:xlink="http://www.w3.org/1999/xlink" viewBox="0 0 453 236" width="453" height="236"><path d="M 127.500,52.000 C 122.955,50.613 123.000,51.500 118.500,51.000" stroke-width="4.762" stroke="black" fill="none" stroke-linecap="round"></path><path d="M 118.500,51.000 C 111.313,51.926 111.455,51.613 104.500,54.000" stroke-width="3.422" stroke="black" fill="none" stroke-linecap="round"></path><path d="M 104.500,54.000 C 99.850,55.711 99.813,55.426 95.500,58.000" stroke-width="3.464" stroke="black" fill="none" stroke-linecap="round"></path><path d="M 95.500,58.000 C 90.232,60.620 90.350,60.711 85.500,64.000" stroke-width="3.373" stroke="black" fill="none" stroke-linecap="round"></path><path d="M 85.500,64.000 C 79.494,68.006 79.732,68.120 74.500,73.000" stroke-width="3.150" stroke="black" fill="none" stroke-linecap="round"></path><path d="M 74.500,73.000 C 71.032,77.526 70.494,77.006 67.500,82.000" stroke-width="3.299" stroke="black" fill="none" stroke-linecap="round"></path><path d="M 67.500,82.000 C 63.103,86.734 63.532,87.026 59.500,92.000" stroke-width="3.235" stroke="black" fill="none" stroke-linecap="round"></path><path d="M 59.500,92.000 C 56.686,96.355 56.603,96.234 54.500,101.000" stroke-width="3.364" stroke="black" fill="none" stroke-linecap="round"></path><path d="M 54.500,101.000 C 52.772,104.929 52.686,104.855 51.500,109.000" stroke-width="3.667" stroke="black" fill="none" stroke-linecap="round"></path><path d="M 51.500,109.000 C 50.008,112.939 50.272,112.929 49.500,117.000" stroke-width="3.751" stroke="black" fill="none" stroke-linecap="round"></path><path d="M 49.500,117.000 C 49.500,121.000 49.008,120.939 49.500,125.000" stroke-width="3.802" stroke="black" fill="none" stroke-linecap="round"></path><path d="M 49.500,125.000 C 48.295,129.386 49.500,129.000 49.500,133.000" stroke-width="3.766" stroke="black" fill="none" stroke-linecap="round"></path><path d="M 49.500,133.000 C 51.957,136.532 50.795,136.886 54.500,140.000" stroke-width="3.744" stroke="black" fill="none" stroke-linecap="round"></path><path d="M 54.500,140.000 C 57.378,144.098 57.457,144.032 60.500,148.000" stroke-width="3.542" stroke="black" fill="none" stroke-linecap="round"></path><path d="M 60.500,148.000 C 63.142,151.882 63.378,151.598 66.500,155.000" stroke-width="3.615" stroke="black" fill="none" stroke-linecap="round"></path><path d="M 66.500,155.000 C 70.500,158.000 70.142,158.382 74.500,161.000" stroke-width="3.506" stroke="black" fill="none" stroke-linecap="round"></path><path d="M 74.500,161.000 C 78.218,164.481 78.500,164.000 82.500,167.000" stroke-width="3.475" stroke="black" fill="none" stroke-linecap="round"></path><path d="M 82.500,167.000 C 86.811,169.698 86.718,169.481 91.500,171.000" stroke-width="3.535" stroke="black" fill="none" stroke-linecap="round"></path><path d="M 91.500,171.000 C 95.985,171.762 95.811,172.198 100.500,172.000" stroke-width="3.678" stroke="black" fill="none" stroke-linecap="round"></path><path d="M 100.500,172.000 C 105.500,172.000 105.485,172.262 110.500,172.000" stroke-width="3.581" stroke="black" fill="none" stroke-linecap="round"></path><path d="M 110.500,172.000 C 115.685,172.963 115.500,172.000 120.500,172.000" stroke-width="3.553" stroke="black" fill="none" stroke-linecap="round"></path><path d="M 120.500,172.000 C 125.813,170.578 125.685,170.963 130.500,168.000" stroke-width="3.417" stroke="black" fill="none" stroke-linecap="round"></path><path d="M 130.500,168.000 C 135.969,165.027 135.813,165.078 140.500,161.000" stroke-width="3.371" stroke="black" fill="none" stroke-linecap="round"></path><path d="M 140.500,161.000 C 144.776,156.718 144.969,157.027 148.500,152.000" stroke-width="3.316" stroke="black" fill="none" stroke-linecap="round"></path><path d="M 148.500,152.000 C 152.292,147.181 152.276,147.218 155.500,142.000" stroke-width="3.341" stroke="black" fill="none" stroke-linecap="round"></path><path d="M 155.500,142.000 C 159.144,136.759 158.792,136.681 161.500,131.000" stroke-width="3.268" stroke="black" fill="none" stroke-linecap="round"></path><path d="M 161.500,131.000 C 163.437,125.581 163.644,125.759 164.500,120.000" stroke-width="3.337" stroke="black" fill="none" stroke-linecap="round"></path><path d="M 164.500,120.000 C 165.222,115.011 165.437,115.081 165.500,110.000" stroke-width="3.419" stroke="black" fill="none" stroke-linecap="round"></path><path d="M 165.500,110.000 C 165.500,106.000 165.722,106.011 165.500,102.000" stroke-width="3.693" stroke="black" fill="none" stroke-linecap="round"></path><path d="M 165.500,102.000 C 166.268,97.842 165.500,98.000 165.500,94.000" stroke-width="3.915" stroke="black" fill="none" stroke-linecap="round"></path><path d="M 165.500,94.000 C 164.775,89.975 164.768,90.342 162.500,87.000" stroke-width="4.127" stroke="black" fill="none" stroke-linecap="round"></path><path d="M 162.500,87.000 C 157.654,81.832 158.275,81.475 152.500,77.000" stroke-width="3.326" stroke="black" fill="none" stroke-linecap="round"></path><path d="M 152.500,77.000 C 149.864,73.811 149.654,74.332 146.500,72.000" stroke-width="3.631" stroke="black" fill="none" stroke-linecap="round"></path><path d="M 146.500,72.000 C 143.017,70.938 143.364,70.311 139.500,70.000" stroke-width="3.841" stroke="black" fill="none" stroke-linecap="round"></path><path d="M 139.500,70.000 C 135.570,68.428 135.517,68.938 131.500,68.000" stroke-width="3.750" stroke="black" fill="none" stroke-linecap="round"></path><path d="M 131.500,68.000 C 126.000,68.000 126.070,67.428 120.500,68.000" stroke-width="3.509" stroke="black" fill="none" stroke-linecap="round"></path><path d="M 120.500,68.000 C 116.943,67.541 117.000,68.000 113.500,68.000" stroke-width="3.829" stroke="black" fill="none" stroke-linecap="round"></path><path d="M 113.500,68.000 C 109.462,68.868 109.443,68.541 105.500,70.000" stroke-width="3.746" stroke="black" fill="none" stroke-linecap="round"></path><path d="M 105.500,70.000 C 102.233,70.509 102.462,70.868 99.500,72.000" stroke-width="3.941" stroke="black" fill="none" stroke-linecap="round"></path><path d="M 99.500,72.000 C 97.000,74.000 96.733,73.509 94.500,76.000" stroke-width="4.042" stroke="black" fill="none" stroke-linecap="round"></path><path d="M 52.500,77.000 C 53.614,81.980 53.500,82.000 54.500,87.000" stroke-width="4.376" stroke="black" fill="none" stroke-linecap="round"></path><path d="M 54.500,87.000 C 54.537,90.630 55.114,90.480 55.500,94.000" stroke-width="4.085" stroke="black" fill="none" stroke-linecap="round"></path><path d="M 55.500,94.000 C 56.599,97.740 56.537,97.630 58.500,101.000" stroke-width="3.889" stroke="black" fill="none" stroke-linecap="round"></path><path d="M 58.500,101.000 C 60.500,103.500 60.099,103.740 62.500,106.000" stroke-width="3.978" stroke="black" fill="none" stroke-linecap="round"></path><path d="M 62.500,106.000 C 64.248,108.748 64.500,108.500 66.500,111.000" stroke-width="4.053" stroke="black" fill="none" stroke-linecap="round"></path><path d="M 66.500,111.000 C 69.183,114.010 69.248,113.748 72.500,116.000" stroke-width="3.912" stroke="black" fill="none" stroke-linecap="round"></path><path d="M 72.500,116.000 C 76.888,118.301 76.683,118.510 81.500,120.000" stroke-width="3.536" stroke="black" fill="none" stroke-linecap="round"></path><path d="M 81.500,120.000 C 86.481,121.566 86.388,121.801 91.500,123.000" stroke-width="3.500" stroke="black" fill="none" stroke-linecap="round"></path><path d="M 91.500,123.000 C 96.889,125.327 96.981,124.566 102.500,126.000" stroke-width="3.406" stroke="black" fill="none" stroke-linecap="round"></path><path d="M 102.500,126.000 C 109.500,126.000 109.389,126.827 116.500,126.000" stroke-width="3.174" stroke="black" fill="none" stroke-linecap="round"></path><path d="M 116.500,126.000 C 122.009,126.229 122.000,126.000 127.500,126.000" stroke-width="3.339" stroke="black" fill="none" stroke-linecap="round"></path><path d="M 127.500,126.000 C 134.192,126.402 134.009,125.729 140.500,125.000" stroke-width="3.229" stroke="black" fill="none" stroke-linecap="round"></path><path d="M 140.500,125.000 C 147.565,122.667 147.692,123.402 154.500,120.000" stroke-width="3.124" stroke="black" fill="none" stroke-linecap="round"></path><path d="M 154.500,120.000 C 160.827,118.094 160.565,117.667 166.500,115.000" stroke-width="3.168" stroke="black" fill="none" stroke-linecap="round"></path><path d="M 166.500,115.000 C 172.111,112.158 171.827,112.094 176.500,108.000" stroke-width="3.184" stroke="black" fill="none" stroke-linecap="round"></path><path d="M 176.500,108.000 C 181.802,102.973 181.611,103.158 185.500,97.000" stroke-width="3.099" stroke="black" fill="none" stroke-linecap="round"></path><path d="M 185.500,97.000 C 187.959,92.136 188.302,92.473 189.500,87.000" stroke-width="3.278" stroke="black" fill="none" stroke-linecap="round"></path><path d="M 189.500,87.000 C 190.907,82.040 190.959,82.136 191.500,77.000" stroke-width="3.441" stroke="black" fill="none" stroke-linecap="round"></path><path d="M 191.500,77.000 C 192.331,73.324 191.907,73.540 191.500,70.000" stroke-width="3.804" stroke="black" fill="none" stroke-linecap="round"></path><path d="M 191.500,70.000 C 190.465,64.294 190.331,65.324 187.500,61.000" stroke-width="4.196" stroke="black" fill="none" stroke-linecap="round"></path><path d="M 117.500,41.000 C 117.500,46.000 117.500,46.000 117.500,51.000" stroke-width="4.395" stroke="black" fill="none" stroke-linecap="round"></path><path d="M 117.500,51.000 C 117.500,56.500 117.500,56.500 117.500,62.000" stroke-width="3.660" stroke="black" fill="none" stroke-linecap="round"></path><path d="M 117.500,62.000 C 117.500,69.500 117.500,69.500 117.500,77.000" stroke-width="3.162" stroke="black" fill="none" stroke-linecap="round"></path><path d="M 117.500,77.000 C 117.500,87.500 117.500,87.500 117.500,98.000" stroke-width="2.744" stroke="black" fill="none" stroke-linecap="round"></path><path d="M 117.500,98.000 C 117.500,106.500 117.500,106.500 117.500,115.000" stroke-width="2.732" stroke="black" fill="none" stroke-linecap="round"></path><path d="M 117.500,115.000 C 117.500,123.500 117.500,123.500 117.500,132.000" stroke-width="2.729" stroke="black" fill="none" stroke-linecap="round"></path><path d="M 117.500,132.000 C 117.500,140.500 117.500,140.500 117.500,149.000" stroke-width="2.728" stroke="black" fill="none" stroke-linecap="round"></path><path d="M 117.500,149.000 C 117.500,156.000 117.500,156.000 117.500,163.000" stroke-width="2.913" stroke="black" fill="none" stroke-linecap="round"></path><path d="M 117.500,163.000 C 117.500,168.000 117.500,168.000 117.500,173.000" stroke-width="3.372" stroke="black" fill="none" stroke-linecap="round"></path><path d="M 117.500,173.000 C 117.500,177.000 117.500,177.000 117.500,181.000" stroke-width="3.628" stroke="black" fill="none" stroke-linecap="round"></path><path d="M 223.500,117.000 C 217.312,116.082 217.500,117.000 211.500,117.000" stroke-width="3.417" stroke="black" fill="none" stroke-linecap="round"></path><path d="M 211.500,117.000 C 207.956,118.405 207.812,117.582 204.500,120.000" stroke-width="3.731" stroke="black" fill="none" stroke-linecap="round"></path><path d="M 204.500,120.000 C 200.902,120.739 201.456,121.405 198.500,123.000" stroke-width="3.891" stroke="black" fill="none" stroke-linecap="round"></path><path d="M 198.500,123.000 C 192.252,129.031 192.402,128.739 187.500,136.000" stroke-width="3.790" stroke="black" fill="none" stroke-linecap="round"></path><path d="M 187.500,136.000 C 184.974,140.333 184.752,140.031 183.500,145.000" stroke-width="3.569" stroke="black" fill="none" stroke-linecap="round"></path><path d="M 183.500,145.000 C 182.093,149.960 181.974,149.833 181.500,155.000" stroke-width="3.474" stroke="black" fill="none" stroke-linecap="round"></path><path d="M 181.500,155.000 C 181.153,158.527 181.093,158.460 181.500,162.000" stroke-width="4.243" stroke="black" fill="none" stroke-linecap="round"></path><path d="M 181.500,162.000 C 180.851,169.702 182.153,168.527 183.500,175.000" stroke-width="3.431" stroke="black" fill="none" stroke-linecap="round"></path><path d="M 183.500,175.000 C 186.333,177.208 184.851,177.702 189.500,178.000" stroke-width="3.909" stroke="black" fill="none" stroke-linecap="round"></path><path d="M 189.500,178.000 C 192.594,178.581 192.333,178.708 195.500,178.000" stroke-width="4.035" stroke="black" fill="none" stroke-linecap="round"></path><path d="M 195.500,178.000 C 200.492,177.358 200.094,177.081 204.500,175.000" stroke-width="3.728" stroke="black" fill="none" stroke-linecap="round"></path><path d="M 204.500,175.000 C 208.881,171.860 208.992,172.358 212.500,168.000" stroke-width="3.537" stroke="black" fill="none" stroke-linecap="round"></path><path d="M 212.500,168.000 C 216.164,163.619 216.381,163.860 219.500,159.000" stroke-width="3.416" stroke="black" fill="none" stroke-linecap="round"></path><path d="M 219.500,159.000 C 222.723,154.629 222.664,154.619 225.500,150.000" stroke-width="3.431" stroke="black" fill="none" stroke-linecap="round"></path><path d="M 225.500,150.000 C 227.364,147.125 227.223,147.129 228.500,144.000" stroke-width="3.832" stroke="black" fill="none" stroke-linecap="round"></path><path d="M 228.500,144.000 C 229.500,141.518 229.364,141.625 229.500,139.000" stroke-width="4.166" stroke="black" fill="none" stroke-linecap="round"></path><path d="M 229.500,139.000 C 230.928,133.208 229.500,135.018 228.500,131.000" stroke-width="4.442" stroke="black" fill="none" stroke-linecap="round"></path><path d="M 228.500,131.000 C 223.540,129.593 225.428,128.208 218.500,129.000" stroke-width="4.340" stroke="black" fill="none" stroke-linecap="round"></path><path d="M 218.500,129.000 C 214.971,128.711 215.040,128.593 211.500,129.000" stroke-width="4.562" stroke="black" fill="none" stroke-linecap="round"></path><path d="M 164.500,152.000 C 170.491,152.714 170.500,152.500 176.500,153.000" stroke-width="4.799" stroke="black" fill="none" stroke-linecap="round"></path><path d="M 176.500,153.000 C 181.000,153.000 180.991,153.214 185.500,153.000" stroke-width="4.013" stroke="black" fill="none" stroke-linecap="round"></path><path d="M 185.500,153.000 C 191.500,153.000 191.500,153.000 197.500,153.000" stroke-width="3.418" stroke="black" fill="none" stroke-linecap="round"></path><path d="M 197.500,153.000 C 203.039,153.475 203.000,153.000 208.500,153.000" stroke-width="3.358" stroke="black" fill="none" stroke-linecap="round"></path><path d="M 208.500,153.000 C 214.639,152.529 214.539,152.475 220.500,151.000" stroke-width="3.243" stroke="black" fill="none" stroke-linecap="round"></path><path d="M 220.500,151.000 C 226.048,149.120 226.139,149.529 231.500,147.000" stroke-width="3.304" stroke="black" fill="none" stroke-linecap="round"></path><path d="M 231.500,147.000 C 235.044,145.595 235.048,145.620 238.500,144.000" stroke-width="3.690" stroke="black" fill="none" stroke-linecap="round"></path><path d="M 238.500,144.000 C 241.449,142.387 241.544,142.595 244.500,141.000" stroke-width="3.877" stroke="black" fill="none" stroke-linecap="round"></path><path d="M 244.500,141.000 C 249.055,138.109 246.949,139.887 249.500,139.000" stroke-width="4.183" stroke="black" fill="none" stroke-linecap="round"></path><path d="M 259.500,172.000 C 263.932,171.568 263.000,170.500 266.500,169.000" stroke-width="5.232" stroke="black" fill="none" stroke-linecap="round"></path><path d="M 266.500,169.000 C 270.037,164.233 270.432,165.068 272.500,159.000" stroke-width="4.403" stroke="black" fill="none" stroke-linecap="round"></path><path d="M 272.500,159.000 C 273.667,155.540 274.037,155.733 274.500,152.000" stroke-width="4.162" stroke="black" fill="none" stroke-linecap="round"></path><path d="M 274.500,152.000 C 275.995,147.049 275.667,147.040 276.500,142.000" stroke-width="3.688" stroke="black" fill="none" stroke-linecap="round"></path><path d="M 276.500,142.000 C 276.500,137.000 276.995,137.049 276.500,132.000" stroke-width="3.526" stroke="black" fill="none" stroke-linecap="round"></path><path d="M 276.500,132.000 C 276.500,127.000 276.500,127.000 276.500,122.000" stroke-width="3.481" stroke="black" fill="none" stroke-linecap="round"></path><path d="M 276.500,122.000 C 276.705,118.490 276.500,118.500 276.500,115.000" stroke-width="3.819" stroke="black" fill="none" stroke-linecap="round"></path><path d="M 276.500,115.000 C 275.500,106.659 276.205,109.990 275.500,105.000" stroke-width="4.131" stroke="black" fill="none" stroke-linecap="round"></path><path d="M 275.500,105.000 C 275.830,107.545 275.500,104.159 276.500,110.000" stroke-width="4.969" stroke="black" fill="none" stroke-linecap="round"></path><path d="M 276.500,110.000 C 277.792,112.931 277.330,113.045 278.500,116.000" stroke-width="4.327" stroke="black" fill="none" stroke-linecap="round"></path><path d="M 278.500,116.000 C 279.293,119.479 279.292,119.431 279.500,123.000" stroke-width="4.073" stroke="black" fill="none" stroke-linecap="round"></path><path d="M 279.500,123.000 C 279.500,128.000 279.793,127.979 279.500,133.000" stroke-width="3.686" stroke="black" fill="none" stroke-linecap="round"></path><path d="M 279.500,133.000 C 279.500,137.000 279.500,137.000 279.500,141.000" stroke-width="3.782" stroke="black" fill="none" stroke-linecap="round"></path><path d="M 279.500,141.000 C 279.730,144.016 279.500,144.000 279.500,147.000" stroke-width="4.037" stroke="black" fill="none" stroke-linecap="round"></path><path d="M 279.500,147.000 C 278.913,150.489 279.230,150.516 278.500,154.000" stroke-width="3.941" stroke="black" fill="none" stroke-linecap="round"></path><path d="M 278.500,154.000 C 277.813,158.991 277.913,158.989 277.500,164.000" stroke-width="4.232" stroke="black" fill="none" stroke-linecap="round"></path><path d="M 297.500,174.000 C 302.095,174.587 302.000,174.000 306.500,174.000" stroke-width="5.194" stroke="black" fill="none" stroke-linecap="round"></path><path d="M 306.500,174.000 C 309.696,173.402 309.595,173.587 312.500,172.000" stroke-width="4.426" stroke="black" fill="none" stroke-linecap="round"></path><path d="M 312.500,172.000 C 315.620,170.160 315.696,170.402 318.500,168.000" stroke-width="4.027" stroke="black" fill="none" stroke-linecap="round"></path><path d="M 318.500,168.000 C 321.750,165.750 321.620,165.660 324.500,163.000" stroke-width="3.954" stroke="black" fill="none" stroke-linecap="round"></path><path d="M 324.500,163.000 C 327.476,160.312 327.250,160.250 329.500,157.000" stroke-width="3.932" stroke="black" fill="none" stroke-linecap="round"></path><path d="M 329.500,157.000 C 336.379,149.393 332.976,151.312 335.500,145.000" stroke-width="4.002" stroke="black" fill="none" stroke-linecap="round"></path><path d="M 335.500,145.000 C 331.000,142.300 334.879,141.893 326.500,142.000" stroke-width="4.629" stroke="black" fill="none" stroke-linecap="round"></path><path d="M 326.500,142.000 C 323.412,142.787 323.500,141.800 320.500,144.000" stroke-width="4.194" stroke="black" fill="none" stroke-linecap="round"></path><path d="M 320.500,144.000 C 317.314,145.209 317.412,145.287 314.500,147.000" stroke-width="4.080" stroke="black" fill="none" stroke-linecap="round"></path><path d="M 314.500,147.000 C 311.594,148.645 311.814,148.709 309.500,151.000" stroke-width="4.036" stroke="black" fill="none" stroke-linecap="round"></path><path d="M 309.500,151.000 C 308.000,153.500 307.594,153.145 306.500,156.000" stroke-width="4.183" stroke="black" fill="none" stroke-linecap="round"></path><path d="M 306.500,156.000 C 304.182,158.273 305.000,158.500 303.500,161.000" stroke-width="4.187" stroke="black" fill="none" stroke-linecap="round"></path><path d="M 303.500,161.000 C 302.087,165.457 302.682,164.273 303.500,168.000" stroke-width="4.494" stroke="black" fill="none" stroke-linecap="round"></path><path d="M 303.500,168.000 C 305.906,169.352 304.587,169.957 308.500,170.000" stroke-width="4.728" stroke="black" fill="none" stroke-linecap="round"></path><path d="M 308.500,170.000 C 311.982,170.749 311.906,170.852 315.500,171.000" stroke-width="4.117" stroke="black" fill="none" stroke-linecap="round"></path><path d="M 315.500,171.000 C 319.000,171.000 318.982,171.249 322.500,171.000" stroke-width="4.023" stroke="black" fill="none" stroke-linecap="round"></path><path d="M 322.500,171.000 C 326.022,171.268 326.000,171.000 329.500,171.000" stroke-width="3.996" stroke="black" fill="none" stroke-linecap="round"></path><path d="M 329.500,171.000 C 332.508,170.544 332.522,170.768 335.500,170.000" stroke-width="4.051" stroke="black" fill="none" stroke-linecap="round"></path><path d="M 335.500,170.000 C 337.973,169.230 338.008,169.544 340.500,169.000" stroke-width="4.312" stroke="black" fill="none" stroke-linecap="round"></path><path d="M 340.500,169.000 C 345.839,167.458 343.473,168.730 346.500,169.000" stroke-width="4.616" stroke="black" fill="none" stroke-linecap="round"></path><path d="M 346.500,169.000 C 345.200,172.600 347.339,170.958 343.500,176.000" stroke-width="4.917" stroke="black" fill="none" stroke-linecap="round"></path><path d="M 343.500,176.000 C 337.805,181.117 341.700,179.600 339.500,183.000" stroke-width="4.633" stroke="black" fill="none" stroke-linecap="round"></path><path d="M 339.500,183.000 C 346.137,186.277 342.305,186.117 352.500,186.000" stroke-width="4.673" stroke="black" fill="none" stroke-linecap="round"></path><path d="M 352.500,186.000 C 357.552,184.121 357.637,185.777 362.500,182.000" stroke-width="3.739" stroke="black" fill="none" stroke-linecap="round"></path><path d="M 362.500,182.000 C 368.157,179.799 368.052,179.621 373.500,177.000" stroke-width="3.348" stroke="black" fill="none" stroke-linecap="round"></path><path d="M 373.500,177.000 C 378.557,174.090 378.657,174.299 383.500,171.000" stroke-width="3.340" stroke="black" fill="none" stroke-linecap="round"></path><path d="M 383.500,171.000 C 386.351,168.717 386.557,169.090 389.500,167.000" stroke-width="3.745" stroke="black" fill="none" stroke-linecap="round"></path><path d="M 389.500,167.000 C 395.372,165.523 391.851,165.717 394.500,165.000" stroke-width="4.058" stroke="black" fill="none" stroke-linecap="round"></path><path d="M 394.500,165.000 C 389.298,163.242 392.872,164.023 384.500,164.000" stroke-width="4.601" stroke="black" fill="none" stroke-linecap="round"></path><path d="M 384.500,164.000 C 380.069,166.172 379.798,164.742 375.500,168.000" stroke-width="3.821" stroke="black" fill="none" stroke-linecap="round"></path><path d="M 375.500,168.000 C 370.000,170.000 370.069,170.172 364.500,172.000" stroke-width="3.401" stroke="black" fill="none" stroke-linecap="round"></path><path d="M 364.500,172.000 C 358.991,173.977 359.000,174.000 353.500,176.000" stroke-width="3.352" stroke="black" fill="none" stroke-linecap="round"></path><path d="M 353.500,176.000 C 349.487,177.467 349.491,177.477 345.500,179.000" stroke-width="3.566" stroke="black" fill="none" stroke-linecap="round"></path><path d="M 345.500,179.000 C 339.763,180.263 342.987,179.967 340.500,181.000" stroke-width="4.033" stroke="black" fill="none" stroke-linecap="round"></path><path d="M 340.500,181.000 C 344.962,183.000 341.763,182.263 349.500,183.000" stroke-width="4.601" stroke="black" fill="none" stroke-linecap="round"></path><path d="M 349.500,183.000 C 356.726,182.824 356.462,183.000 363.500,181.000" stroke-width="3.479" stroke="black" fill="none" stroke-linecap="round"></path><path d="M 363.500,181.000 C 369.827,179.094 369.726,179.324 375.500,176.000" stroke-width="3.270" stroke="black" fill="none" stroke-linecap="round"></path><path d="M 375.500,176.000 C 380.281,172.132 380.827,173.094 385.500,169.000" stroke-width="3.214" stroke="black" fill="none" stroke-linecap="round"></path><path d="M 385.500,169.000 C 390.561,166.615 390.281,166.132 395.500,164.000" stroke-width="3.281" stroke="black" fill="none" stroke-linecap="round"></path><path d="M 395.500,164.000 C 398.903,161.799 399.061,162.115 402.500,160.000" stroke-width="3.722" stroke="black" fill="none" stroke-linecap="round"></path><path d="M 402.500,160.000 C 404.917,158.235 404.903,158.799 407.500,158.000" stroke-width="4.091" stroke="black" fill="none" stroke-linecap="round"></path><path d="M 407.500,158.000 C 410.479,158.748 410.417,157.735 413.500,159.000" stroke-width="4.860" stroke="black" fill="none" stroke-linecap="round"></path><path d="M 413.500,159.000 C 416.779,159.972 416.479,159.248 419.500,159.000" stroke-width="4.393" stroke="black" fill="none" stroke-linecap="round"></path><path d="M 418.500,172.000 C 414.047,170.568 414.000,171.000 409.500,170.000" stroke-width="5.277" stroke="black" fill="none" stroke-linecap="round"></path><path d="M 409.500,170.000 C 406.000,170.000 406.047,169.568 402.500,170.000" stroke-width="4.300" stroke="black" fill="none" stroke-linecap="round"></path><path d="M 402.500,170.000 C 398.000,170.000 398.000,170.000 393.500,170.000" stroke-width="3.845" stroke="black" fill="none" stroke-linecap="round"></path><path d="M 393.500,170.000 C 387.500,170.000 387.500,170.000 381.500,170.000" stroke-width="3.503" stroke="black" fill="none" stroke-linecap="round"></path><path d="M 381.500,170.000 C 374.992,170.232 375.000,170.000 368.500,170.000" stroke-width="3.214" stroke="black" fill="none" stroke-linecap="round"></path><path d="M 368.500,170.000 C 360.857,170.409 360.992,169.732 353.500,169.000" stroke-width="3.108" stroke="black" fill="none" stroke-linecap="round"></path><path d="M 353.500,169.000 C 337.500,165.000 337.357,165.909 321.500,161.000" stroke-width="2.163" stroke="black" fill="none" stroke-linecap="round"></path><path d="M 321.500,161.000 C 301.586,155.610 301.500,156.000 281.500,151.000" stroke-width="2.465" stroke="black" fill="none" stroke-linecap="round"></path><path d="M 281.500,151.000 C 271.008,148.955 271.086,148.610 260.500,147.000" stroke-width="2.484" stroke="black" fill="none" stroke-linecap="round"></path><path d="M 260.500,147.000 C 249.462,145.192 249.508,144.955 238.500,143.000" stroke-width="2.501" stroke="black" fill="none" stroke-linecap="round"></path><path d="M 238.500,143.000 C 227.070,140.125 226.962,140.692 215.500,138.000" stroke-width="2.339" stroke="black" fill="none" stroke-linecap="round"></path><path d="M 215.500,138.000 C 202.554,135.536 202.570,135.625 189.500,134.000" stroke-width="2.246" stroke="black" fill="none" stroke-linecap="round"></path><path d="M 189.500,134.000 C 177.016,132.736 177.054,132.536 164.500,132.000" stroke-width="2.207" stroke="black" fill="none" stroke-linecap="round"></path><path d="M 164.500,132.000 C 151.505,131.250 151.516,131.236 138.500,131.000" stroke-width="2.161" stroke="black" fill="none" stroke-linecap="round"></path><path d="M 138.500,131.000 C 125.495,130.755 125.505,130.750 112.500,131.000" stroke-width="2.205" stroke="black" fill="none" stroke-linecap="round"></path><path d="M 112.500,131.000 C 99.004,131.730 98.995,131.255 85.500,132.000" stroke-width="2.125" stroke="black" fill="none" stroke-linecap="round"></path><path d="M 85.500,132.000 C 73.994,131.739 74.004,132.230 62.500,132.000" stroke-width="2.304" stroke="black" fill="none" stroke-linecap="round"></path><path d="M 62.500,132.000 C 51.867,131.599 51.994,132.239 41.500,133.000" stroke-width="2.500" stroke="black" fill="none" stroke-linecap="round"></path><path d="M 41.500,133.000 C 33.405,134.675 33.367,134.099 25.500,137.000" stroke-width="2.683" stroke="black" fill="none" stroke-linecap="round"></path></svg>