<svg xmlns="http://www.w3.org/2000/svg" xmlns:xlink="http://www.w3.org/1999/xlink" viewBox="0 0 1460 576" width="1460" height="576"><path d="M 651.000,315.000 C 645.560,317.000 645.500,316.000 640.000,317.000" stroke-width="4.924" stroke="black" fill="none" stroke-linecap="round"></path><path d="M 640.000,317.000 C 623.150,317.512 623.560,317.000 607.000,315.000" stroke-width="2.260" stroke="black" fill="none" stroke-linecap="round"></path><path d="M 607.000,315.000 C 600.295,313.600 600.650,314.012 595.000,310.000" stroke-width="2.791" stroke="black" fill="none" stroke-linecap="round"></path><path d="M 595.000,310.000 C 588.250,304.250 587.795,305.100 582.000,298.000" stroke-width="2.823" stroke="black" fill="none" stroke-linecap="round"></path><path d="M 582.000,298.000 C 572.791,293.093 575.750,291.750 570.000,285.000" stroke-width="2.715" stroke="black" fill="none" stroke-linecap="round"></path><path d="M 570.000,285.000 C 552.926,257.543 562.791,264.093 562.000,240.000" stroke-width="2.545" stroke="black" fill="none" stroke-linecap="round"></path><path d="M 562.000,240.000 C 587.111,216.338 575.426,214.043 615.000,198.000" stroke-width="1.913" stroke="black" fill="none" stroke-linecap="round"></path><path d="M 615.000,198.000 C 624.679,192.938 623.611,192.338 635.000,192.000" stroke-width="2.349" stroke="black" fill="none" stroke-linecap="round"></path><path d="M 635.000,192.000 C 663.522,190.468 663.179,189.438 692.000,191.000" stroke-width="1.438" stroke="black" fill="none" stroke-linecap="round"></path><path d="M 692.000,191.000 C 717.275,191.003 717.022,191.468 742.000,194.000" stroke-width="1.916" stroke="black" fill="none" stroke-linecap="round"></path><path d="M 742.000,194.000 C 750.777,195.039 750.275,195.003 758.000,199.000" stroke-width="2.477" stroke="black" fill="none" stroke-linecap="round"></path><path d="M 758.000,199.000 C 766.095,204.424 766.277,203.539 773.000,211.000" stroke-width="2.532" stroke="black" fill="none" stroke-linecap="round"></path><path d="M 773.000,211.000 C 777.544,214.339 776.595,214.424 779.000,219.000" stroke-width="3.163" stroke="black" fill="none" stroke-linecap="round"></path><path d="M 779.000,219.000 C 784.749,231.281 782.544,230.339 783.000,243.000" stroke-width="2.516" stroke="black" fill="none" stroke-linecap="round"></path><path d="M 783.000,243.000 C 778.437,265.589 779.749,264.781 769.000,286.000" stroke-width="1.680" stroke="black" fill="none" stroke-linecap="round"></path><path d="M 769.000,286.000 C 756.348,312.296 756.937,312.089 740.000,336.000" stroke-width="1.377" stroke="black" fill="none" stroke-linecap="round"></path><path d="M 740.000,336.000 C 725.242,355.196 726.348,355.796 709.000,373.000" stroke-width="1.438" stroke="black" fill="none" stroke-linecap="round"></path><path d="M 709.000,373.000 C 698.409,382.907 699.242,383.696 688.000,393.000" stroke-width="1.790" stroke="black" fill="none" stroke-linecap="round"></path><path d="M 688.000,393.000 C 682.230,399.249 681.909,398.907 676.000,405.000" stroke-width="2.402" stroke="black" fill="none" stroke-linecap="round"></path><path d="M 676.000,405.000 C 668.890,410.876 669.230,411.249 662.000,417.000" stroke-width="2.602" stroke="black" fill="none" stroke-linecap="round"></path><path d="M 662.000,417.000 C 656.210,424.028 655.390,422.876 649.000,429.000" stroke-width="2.650" stroke="black" fill="none" stroke-linecap="round"></path><path d="M 649.000,429.000 C 641.501,434.763 641.710,434.028 633.000,437.000" stroke-width="2.713" stroke="black" fill="none" stroke-linecap="round"></path><path d="M 633.000,437.000 C 621.413,441.461 622.501,439.763 611.000,439.000" stroke-width="2.521" stroke="black" fill="none" stroke-linecap="round"></path><path d="M 611.000,439.000 C 593.915,432.488 593.913,434.961 578.000,424.000" stroke-width="1.965" stroke="black" fill="none" stroke-linecap="round"></path><path d="M 578.000,424.000 C 571.852,419.682 571.415,420.488 566.000,415.000" stroke-width="2.540" stroke="black" fill="none" stroke-linecap="round"></path><path d="M 566.000,415.000 C 562.016,411.481 561.852,411.682 558.000,408.000" stroke-width="3.121" stroke="black" fill="none" stroke-linecap="round"></path><path d="M 558.000,408.000 C 553.264,405.679 554.516,404.981 551.000,402.000" stroke-width="3.422" stroke="black" fill="none" stroke-linecap="round"></path></svg>