<svg xmlns="http://www.w3.org/2000/svg" xmlns:xlink="http://www.w3.org/1999/xlink" viewBox="0 0 692 576" width="692" height="576"><path d="M 165.000,356.000 C 162.529,354.920 162.500,355.000 160.000,354.000" stroke-width="5.482" stroke="black" fill="none" stroke-linecap="round"></path><path d="M 160.000,354.000 C 156.978,353.063 157.029,352.920 154.000,352.000" stroke-width="4.379" stroke="black" fill="none" stroke-linecap="round"></path><path d="M 154.000,352.000 C 150.122,349.824 149.978,350.563 146.000,349.000" stroke-width="3.968" stroke="black" fill="none" stroke-linecap="round"></path><path d="M 146.000,349.000 C 142.500,349.000 142.622,348.324 139.000,349.000" stroke-width="4.431" stroke="black" fill="none" stroke-linecap="round"></path><path d="M 139.000,349.000 C 134.810,349.896 135.000,349.000 131.000,349.000" stroke-width="4.498" stroke="black" fill="none" stroke-linecap="round"></path><path d="M 131.000,349.000 C 126.526,346.940 126.310,347.896 122.000,345.000" stroke-width="4.358" stroke="black" fill="none" stroke-linecap="round"></path><path d="M 122.000,345.000 C 119.529,343.920 119.526,343.940 117.000,343.000" stroke-width="4.252" stroke="black" fill="none" stroke-linecap="round"></path><path d="M 117.000,343.000 C 114.000,342.000 114.029,341.920 111.000,341.000" stroke-width="4.584" stroke="black" fill="none" stroke-linecap="round"></path><path d="M 111.000,341.000 C 106.274,341.039 108.000,340.000 105.000,339.000" stroke-width="4.863" stroke="black" fill="none" stroke-linecap="round"></path><path d="M 105.000,339.000 C 104.410,335.385 103.774,337.039 106.000,333.000" stroke-width="5.244" stroke="black" fill="none" stroke-linecap="round"></path><path d="M 106.000,333.000 C 109.353,329.806 108.410,329.385 113.000,327.000" stroke-width="4.014" stroke="black" fill="none" stroke-linecap="round"></path><path d="M 113.000,327.000 C 116.078,325.110 115.853,324.806 119.000,323.000" stroke-width="3.917" stroke="black" fill="none" stroke-linecap="round"></path><path d="M 119.000,323.000 C 124.861,318.297 125.078,318.610 131.000,314.000" stroke-width="3.148" stroke="black" fill="none" stroke-linecap="round"></path><path d="M 131.000,314.000 C 134.881,311.288 134.861,311.297 139.000,309.000" stroke-width="3.509" stroke="black" fill="none" stroke-linecap="round"></path><path d="M 139.000,309.000 C 144.249,306.903 143.881,306.288 149.000,304.000" stroke-width="3.578" stroke="black" fill="none" stroke-linecap="round"></path><path d="M 149.000,304.000 C 153.268,301.317 153.249,301.403 157.000,298.000" stroke-width="3.496" stroke="black" fill="none" stroke-linecap="round"></path><path d="M 157.000,298.000 C 166.007,288.381 166.768,289.317 176.000,280.000" stroke-width="2.416" stroke="black" fill="none" stroke-linecap="round"></path><path d="M 176.000,280.000 C 182.000,276.000 181.507,275.381 188.000,272.000" stroke-width="2.772" stroke="black" fill="none" stroke-linecap="round"></path><path d="M 188.000,272.000 C 194.422,268.515 194.000,268.000 200.000,264.000" stroke-width="2.900" stroke="black" fill="none" stroke-linecap="round"></path><path d="M 200.000,264.000 C 204.632,259.625 204.922,260.015 209.000,255.000" stroke-width="3.059" stroke="black" fill="none" stroke-linecap="round"></path><path d="M 209.000,255.000 C 216.743,246.000 213.132,250.625 217.000,246.000" stroke-width="3.476" stroke="black" fill="none" stroke-linecap="round"></path><path d="M 217.000,246.000 C 213.463,250.472 217.243,246.000 210.000,255.000" stroke-width="4.533" stroke="black" fill="none" stroke-linecap="round"></path><path d="M 210.000,255.000 C 206.672,258.781 206.963,258.972 204.000,263.000" stroke-width="3.726" stroke="black" fill="none" stroke-linecap="round"></path><path d="M 204.000,263.000 C 197.767,274.172 197.172,273.781 191.000,285.000" stroke-width="2.963" stroke="black" fill="none" stroke-linecap="round"></path><path d="M 191.000,285.000 C 187.512,290.009 187.767,290.172 184.000,295.000" stroke-width="3.059" stroke="black" fill="none" stroke-linecap="round"></path><path d="M 184.000,295.000 C 177.315,303.078 178.012,303.509 172.000,312.000" stroke-width="2.602" stroke="black" fill="none" stroke-linecap="round"></path><path d="M 172.000,312.000 C 165.027,327.682 163.315,326.578 156.000,342.000" stroke-width="2.046" stroke="black" fill="none" stroke-linecap="round"></path><path d="M 156.000,342.000 C 149.492,349.993 150.527,350.682 143.000,358.000" stroke-width="2.318" stroke="black" fill="none" stroke-linecap="round"></path><path d="M 143.000,358.000 C 134.837,368.803 134.492,368.493 126.000,379.000" stroke-width="2.500" stroke="black" fill="none" stroke-linecap="round"></path><path d="M 126.000,379.000 C 122.039,384.221 121.837,383.803 117.000,388.000" stroke-width="2.857" stroke="black" fill="none" stroke-linecap="round"></path><path d="M 117.000,388.000 C 111.466,390.939 112.039,391.721 106.000,394.000" stroke-width="3.113" stroke="black" fill="none" stroke-linecap="round"></path><path d="M 106.000,394.000 C 98.131,396.984 98.966,397.939 92.000,402.000" stroke-width="2.820" stroke="black" fill="none" stroke-linecap="round"></path><path d="M 92.000,402.000 C 88.070,407.058 87.131,405.984 84.000,412.000" stroke-width="3.081" stroke="black" fill="none" stroke-linecap="round"></path><path d="M 84.000,412.000 C 81.000,415.500 81.070,415.558 78.000,419.000" stroke-width="3.407" stroke="black" fill="none" stroke-linecap="round"></path><path d="M 78.000,419.000 C 75.253,422.747 75.000,422.500 72.000,426.000" stroke-width="3.572" stroke="black" fill="none" stroke-linecap="round"></path><path d="M 72.000,426.000 C 67.208,430.768 67.253,430.747 62.000,435.000" stroke-width="3.194" stroke="black" fill="none" stroke-linecap="round"></path><path d="M 62.000,435.000 C 58.712,436.649 59.208,437.268 56.000,439.000" stroke-width="3.644" stroke="black" fill="none" stroke-linecap="round"></path><path d="M 56.000,439.000 C 52.010,444.326 51.212,443.149 47.000,448.000" stroke-width="3.947" stroke="black" fill="none" stroke-linecap="round"></path><path d="M 47.000,448.000 C 42.540,451.026 44.510,449.826 41.000,450.000" stroke-width="4.704" stroke="black" fill="none" stroke-linecap="round"></path><path d="M 41.000,450.000 C 39.871,446.681 39.540,449.026 41.000,444.000" stroke-width="4.308" stroke="black" fill="none" stroke-linecap="round"></path><path d="M 41.000,444.000 C 44.368,437.021 43.871,437.181 49.000,431.000" stroke-width="3.197" stroke="black" fill="none" stroke-linecap="round"></path><path d="M 49.000,431.000 C 54.893,424.397 54.368,424.021 61.000,418.000" stroke-width="2.810" stroke="black" fill="none" stroke-linecap="round"></path><path d="M 61.000,418.000 C 65.108,413.048 65.393,413.397 70.000,409.000" stroke-width="2.969" stroke="black" fill="none" stroke-linecap="round"></path><path d="M 70.000,409.000 C 79.659,400.987 79.608,401.048 90.000,394.000" stroke-width="2.569" stroke="black" fill="none" stroke-linecap="round"></path><path d="M 90.000,394.000 C 98.908,389.580 98.159,388.487 107.000,384.000" stroke-width="2.593" stroke="black" fill="none" stroke-linecap="round"></path><path d="M 107.000,384.000 C 112.536,378.356 113.408,379.580 119.000,374.000" stroke-width="2.765" stroke="black" fill="none" stroke-linecap="round"></path><path d="M 119.000,374.000 C 135.904,363.337 135.536,362.856 153.000,353.000" stroke-width="1.903" stroke="black" fill="none" stroke-linecap="round"></path><path d="M 153.000,353.000 C 157.638,350.726 157.404,350.337 162.000,348.000" stroke-width="2.831" stroke="black" fill="none" stroke-linecap="round"></path><path d="M 162.000,348.000 C 169.832,343.438 169.638,343.226 177.000,338.000" stroke-width="2.759" stroke="black" fill="none" stroke-linecap="round"></path><path d="M 177.000,338.000 C 184.133,332.144 184.332,332.438 191.000,326.000" stroke-width="2.655" stroke="black" fill="none" stroke-linecap="round"></path><path d="M 191.000,326.000 C 193.410,323.405 193.633,323.644 196.000,321.000" stroke-width="3.458" stroke="black" fill="none" stroke-linecap="round"></path><path d="M 196.000,321.000 C 200.284,316.706 200.410,316.905 205.000,313.000" stroke-width="3.897" stroke="black" fill="none" stroke-linecap="round"></path><path d="M 205.000,313.000 C 210.723,309.638 207.284,311.206 210.000,310.000" stroke-width="4.476" stroke="black" fill="none" stroke-linecap="round"></path><path d="M 210.000,310.000 C 205.347,312.255 208.723,310.638 201.000,315.000" stroke-width="4.963" stroke="black" fill="none" stroke-linecap="round"></path><path d="M 201.000,315.000 C 195.966,318.453 195.847,318.255 191.000,322.000" stroke-width="3.574" stroke="black" fill="none" stroke-linecap="round"></path><path d="M 191.000,322.000 C 185.297,325.762 185.466,325.953 180.000,330.000" stroke-width="3.307" stroke="black" fill="none" stroke-linecap="round"></path><path d="M 180.000,330.000 C 178.091,332.099 177.797,331.762 176.000,334.000" stroke-width="3.897" stroke="black" fill="none" stroke-linecap="round"></path><path d="M 176.000,334.000 C 172.063,336.631 172.591,337.099 169.000,340.000" stroke-width="4.234" stroke="black" fill="none" stroke-linecap="round"></path><path d="M 169.000,340.000 C 165.500,343.000 167.063,342.131 166.000,345.000" stroke-width="4.602" stroke="black" fill="none" stroke-linecap="round"></path><path d="M 166.000,345.000 C 168.213,347.536 166.500,347.000 171.000,348.000" stroke-width="4.754" stroke="black" fill="none" stroke-linecap="round"></path><path d="M 171.000,348.000 C 177.538,348.497 177.213,349.036 184.000,348.000" stroke-width="3.667" stroke="black" fill="none" stroke-linecap="round"></path><path d="M 184.000,348.000 C 190.864,347.938 190.538,347.497 197.000,346.000" stroke-width="3.241" stroke="black" fill="none" stroke-linecap="round"></path><path d="M 197.000,346.000 C 200.067,344.095 200.364,344.938 203.000,342.000" stroke-width="3.706" stroke="black" fill="none" stroke-linecap="round"></path><path d="M 203.000,342.000 C 207.231,339.266 207.067,339.095 211.000,336.000" stroke-width="3.590" stroke="black" fill="none" stroke-linecap="round"></path><path d="M 211.000,336.000 C 214.790,332.745 214.731,332.766 218.000,329.000" stroke-width="3.565" stroke="black" fill="none" stroke-linecap="round"></path><path d="M 218.000,329.000 C 223.241,325.379 220.790,325.745 223.000,322.000" stroke-width="3.682" stroke="black" fill="none" stroke-linecap="round"></path><path d="M 223.000,322.000 C 220.748,316.874 222.741,318.379 217.000,315.000" stroke-width="4.593" stroke="black" fill="none" stroke-linecap="round"></path><path d="M 217.000,315.000 C 212.777,314.056 213.748,313.374 209.000,315.000" stroke-width="4.527" stroke="black" fill="none" stroke-linecap="round"></path><path d="M 209.000,315.000 C 204.305,316.167 204.777,316.056 201.000,319.000" stroke-width="4.714" stroke="black" fill="none" stroke-linecap="round"></path><path d="M 201.000,319.000 C 197.768,322.848 197.305,322.167 195.000,327.000" stroke-width="3.888" stroke="black" fill="none" stroke-linecap="round"></path><path d="M 195.000,327.000 C 192.147,330.273 192.768,330.348 191.000,334.000" stroke-width="4.310" stroke="black" fill="none" stroke-linecap="round"></path><path d="M 191.000,334.000 C 190.752,337.021 190.147,336.773 191.000,340.000" stroke-width="4.629" stroke="black" fill="none" stroke-linecap="round"></path><path d="M 191.000,340.000 C 190.336,343.860 191.252,343.021 192.000,346.000" stroke-width="4.713" stroke="black" fill="none" stroke-linecap="round"></path><path d="M 192.000,346.000 C 194.807,348.316 193.836,348.360 198.000,349.000" stroke-width="4.686" stroke="black" fill="none" stroke-linecap="round"></path><path d="M 198.000,349.000 C 202.024,349.284 201.807,349.816 206.000,349.000" stroke-width="4.048" stroke="black" fill="none" stroke-linecap="round"></path><path d="M 206.000,349.000 C 209.083,348.796 209.024,348.784 212.000,348.000" stroke-width="4.067" stroke="black" fill="none" stroke-linecap="round"></path><path d="M 212.000,348.000 C 214.731,347.418 214.583,347.296 217.000,346.000" stroke-width="4.208" stroke="black" fill="none" stroke-linecap="round"></path><path d="M 217.000,346.000 C 222.791,342.341 222.731,342.418 228.000,338.000" stroke-width="3.317" stroke="black" fill="none" stroke-linecap="round"></path><path d="M 228.000,338.000 C 231.634,334.624 231.791,334.841 235.000,331.000" stroke-width="3.426" stroke="black" fill="none" stroke-linecap="round"></path><path d="M 235.000,331.000 C 238.094,327.577 238.134,327.624 241.000,324.000" stroke-width="3.525" stroke="black" fill="none" stroke-linecap="round"></path><path d="M 241.000,324.000 C 244.000,319.000 244.594,319.577 248.000,315.000" stroke-width="3.353" stroke="black" fill="none" stroke-linecap="round"></path><path d="M 248.000,315.000 C 252.472,311.463 252.000,311.000 257.000,308.000" stroke-width="3.553" stroke="black" fill="none" stroke-linecap="round"></path><path d="M 257.000,308.000 C 261.385,305.425 260.972,304.963 265.000,302.000" stroke-width="3.426" stroke="black" fill="none" stroke-linecap="round"></path><path d="M 265.000,302.000 C 270.573,296.065 270.885,296.425 276.000,290.000" stroke-width="3.020" stroke="black" fill="none" stroke-linecap="round"></path><path d="M 276.000,290.000 C 278.866,286.376 279.073,286.565 282.000,283.000" stroke-width="3.478" stroke="black" fill="none" stroke-linecap="round"></path><path d="M 282.000,283.000 C 285.391,279.384 285.366,279.376 289.000,276.000" stroke-width="3.476" stroke="black" fill="none" stroke-linecap="round"></path><path d="M 289.000,276.000 C 294.342,272.725 293.391,271.884 298.000,268.000" stroke-width="3.285" stroke="black" fill="none" stroke-linecap="round"></path><path d="M 298.000,268.000 C 305.954,256.743 306.342,257.225 313.000,245.000" stroke-width="2.329" stroke="black" fill="none" stroke-linecap="round"></path><path d="M 313.000,245.000 C 314.213,241.350 314.954,241.743 316.000,238.000" stroke-width="3.200" stroke="black" fill="none" stroke-linecap="round"></path><path d="M 316.000,238.000 C 322.907,230.954 318.213,233.850 321.000,230.000" stroke-width="3.430" stroke="black" fill="none" stroke-linecap="round"></path><path d="M 321.000,230.000 C 312.714,229.923 317.907,228.454 306.000,233.000" stroke-width="4.369" stroke="black" fill="none" stroke-linecap="round"></path><path d="M 306.000,233.000 C 301.119,236.638 300.714,235.423 297.000,241.000" stroke-width="3.487" stroke="black" fill="none" stroke-linecap="round"></path><path d="M 297.000,241.000 C 293.165,246.141 292.619,245.638 289.000,251.000" stroke-width="3.287" stroke="black" fill="none" stroke-linecap="round"></path><path d="M 289.000,251.000 C 284.102,256.598 284.165,256.641 279.000,262.000" stroke-width="3.081" stroke="black" fill="none" stroke-linecap="round"></path><path d="M 279.000,262.000 C 275.270,265.294 275.602,265.598 272.000,269.000" stroke-width="3.347" stroke="black" fill="none" stroke-linecap="round"></path><path d="M 272.000,269.000 C 267.243,273.528 267.770,273.794 264.000,279.000" stroke-width="3.304" stroke="black" fill="none" stroke-linecap="round"></path><path d="M 264.000,279.000 C 259.655,287.362 259.243,287.028 256.000,296.000" stroke-width="2.767" stroke="black" fill="none" stroke-linecap="round"></path><path d="M 256.000,296.000 C 254.500,300.500 254.155,300.362 253.000,305.000" stroke-width="3.261" stroke="black" fill="none" stroke-linecap="round"></path><path d="M 253.000,305.000 C 251.415,309.474 251.500,309.500 250.000,314.000" stroke-width="3.446" stroke="black" fill="none" stroke-linecap="round"></path><path d="M 250.000,314.000 C 247.167,319.889 248.915,317.474 248.000,321.000" stroke-width="3.729" stroke="black" fill="none" stroke-linecap="round"></path><path d="M 248.000,321.000 C 250.576,319.616 248.667,321.889 253.000,318.000" stroke-width="4.629" stroke="black" fill="none" stroke-linecap="round"></path><path d="M 253.000,318.000 C 256.456,315.436 256.576,315.616 260.000,313.000" stroke-width="4.119" stroke="black" fill="none" stroke-linecap="round"></path><path d="M 260.000,313.000 C 266.314,305.433 264.456,309.936 269.000,307.000" stroke-width="3.554" stroke="black" fill="none" stroke-linecap="round"></path><path d="M 269.000,307.000 C 270.693,313.464 272.314,308.933 272.000,320.000" stroke-width="4.460" stroke="black" fill="none" stroke-linecap="round"></path><path d="M 272.000,320.000 C 271.119,324.850 272.693,323.464 273.000,327.000" stroke-width="4.579" stroke="black" fill="none" stroke-linecap="round"></path><path d="M 273.000,327.000 C 276.028,328.212 274.619,328.850 279.000,328.000" stroke-width="4.265" stroke="black" fill="none" stroke-linecap="round"></path><path d="M 279.000,328.000 C 283.047,327.163 283.028,327.712 287.000,326.000" stroke-width="3.862" stroke="black" fill="none" stroke-linecap="round"></path><path d="M 287.000,326.000 C 291.458,324.362 291.547,324.663 296.000,323.000" stroke-width="3.682" stroke="black" fill="none" stroke-linecap="round"></path><path d="M 296.000,323.000 C 301.431,320.983 301.458,321.362 307.000,320.000" stroke-width="3.394" stroke="black" fill="none" stroke-linecap="round"></path><path d="M 307.000,320.000 C 311.193,318.419 309.931,319.483 313.000,320.000" stroke-width="4.259" stroke="black" fill="none" stroke-linecap="round"></path><path d="M 313.000,320.000 C 315.230,323.550 315.193,321.919 315.000,327.000" stroke-width="4.498" stroke="black" fill="none" stroke-linecap="round"></path><path d="M 315.000,327.000 C 313.898,331.204 314.730,331.050 312.000,335.000" stroke-width="3.942" stroke="black" fill="none" stroke-linecap="round"></path><path d="M 312.000,335.000 C 309.935,337.959 310.398,338.204 308.000,341.000" stroke-width="3.841" stroke="black" fill="none" stroke-linecap="round"></path><path d="M 308.000,341.000 C 303.528,345.182 306.435,343.459 305.000,346.000" stroke-width="4.594" stroke="black" fill="none" stroke-linecap="round"></path><path d="M 305.000,346.000 C 311.178,347.012 308.028,347.682 317.000,346.000" stroke-width="4.303" stroke="black" fill="none" stroke-linecap="round"></path><path d="M 317.000,346.000 C 322.494,343.982 322.678,345.012 328.000,342.000" stroke-width="3.506" stroke="black" fill="none" stroke-linecap="round"></path><path d="M 328.000,342.000 C 334.985,339.455 334.994,339.482 342.000,337.000" stroke-width="3.136" stroke="black" fill="none" stroke-linecap="round"></path><path d="M 342.000,337.000 C 345.029,336.080 344.985,335.955 348.000,335.000" stroke-width="3.714" stroke="black" fill="none" stroke-linecap="round"></path><path d="M 348.000,335.000 C 350.367,333.310 350.529,334.080 353.000,333.000" stroke-width="4.087" stroke="black" fill="none" stroke-linecap="round"></path><path d="M 353.000,333.000 C 359.000,333.000 358.867,332.310 365.000,333.000" stroke-width="4.934" stroke="black" fill="none" stroke-linecap="round"></path><path d="M 365.000,333.000 C 370.500,333.000 370.500,333.000 376.000,333.000" stroke-width="3.763" stroke="black" fill="none" stroke-linecap="round"></path><path d="M 376.000,333.000 C 383.000,333.000 383.000,333.000 390.000,333.000" stroke-width="3.194" stroke="black" fill="none" stroke-linecap="round"></path><path d="M 390.000,333.000 C 401.040,333.743 401.000,333.000 412.000,333.000" stroke-width="2.568" stroke="black" fill="none" stroke-linecap="round"></path><path d="M 412.000,333.000 C 430.581,331.456 430.540,331.743 449.000,329.000" stroke-width="2.384" stroke="black" fill="none" stroke-linecap="round"></path><path d="M 449.000,329.000 C 452.948,327.579 453.081,328.456 457.000,327.000" stroke-width="3.181" stroke="black" fill="none" stroke-linecap="round"></path><path d="M 457.000,327.000 C 462.758,326.033 459.948,326.579 463.000,327.000" stroke-width="4.154" stroke="black" fill="none" stroke-linecap="round"></path><path d="M 463.000,327.000 C 457.036,330.614 463.258,328.033 458.000,331.000" stroke-width="4.742" stroke="black" fill="none" stroke-linecap="round"></path><path d="M 458.000,331.000 C 463.368,331.007 459.536,331.614 468.000,329.000" stroke-width="4.818" stroke="black" fill="none" stroke-linecap="round"></path><path d="M 468.000,329.000 C 477.941,323.388 478.368,324.507 488.000,318.000" stroke-width="2.826" stroke="black" fill="none" stroke-linecap="round"></path><path d="M 488.000,318.000 C 491.943,315.873 491.941,315.888 496.000,314.000" stroke-width="3.378" stroke="black" fill="none" stroke-linecap="round"></path><path d="M 496.000,314.000 C 501.376,310.498 498.443,312.873 501.000,312.000" stroke-width="4.270" stroke="black" fill="none" stroke-linecap="round"></path><path d="M 501.000,312.000 C 496.967,318.981 499.876,316.498 493.000,326.000" stroke-width="4.228" stroke="black" fill="none" stroke-linecap="round"></path><path d="M 493.000,326.000 C 490.524,330.513 490.467,330.481 488.000,335.000" stroke-width="3.693" stroke="black" fill="none" stroke-linecap="round"></path><path d="M 488.000,335.000 C 483.212,339.635 486.024,338.513 484.000,342.000" stroke-width="4.252" stroke="black" fill="none" stroke-linecap="round"></path><path d="M 484.000,342.000 C 487.508,344.205 484.712,344.135 491.000,344.000" stroke-width="3.974" stroke="black" fill="none" stroke-linecap="round"></path><path d="M 491.000,344.000 C 496.328,343.243 496.008,343.705 501.000,341.000" stroke-width="3.557" stroke="black" fill="none" stroke-linecap="round"></path><path d="M 501.000,341.000 C 508.426,336.370 508.828,337.243 516.000,332.000" stroke-width="2.969" stroke="black" fill="none" stroke-linecap="round"></path><path d="M 516.000,332.000 C 521.351,328.658 521.426,328.870 527.000,326.000" stroke-width="3.152" stroke="black" fill="none" stroke-linecap="round"></path><path d="M 527.000,326.000 C 529.915,324.475 529.851,324.658 533.000,324.000" stroke-width="3.720" stroke="black" fill="none" stroke-linecap="round"></path><path d="M 533.000,324.000 C 536.500,324.000 536.415,323.475 540.000,324.000" stroke-width="4.688" stroke="black" fill="none" stroke-linecap="round"></path><path d="M 540.000,324.000 C 543.647,324.718 543.500,324.000 547.000,324.000" stroke-width="4.849" stroke="black" fill="none" stroke-linecap="round"></path><path d="M 547.000,324.000 C 550.386,322.112 550.647,323.218 554.000,321.000" stroke-width="4.631" stroke="black" fill="none" stroke-linecap="round"></path><path d="M 554.000,321.000 C 557.000,320.500 556.886,320.112 560.000,320.000" stroke-width="4.228" stroke="black" fill="none" stroke-linecap="round"></path><path d="M 560.000,320.000 C 562.978,319.232 563.000,319.500 566.000,319.000" stroke-width="4.168" stroke="black" fill="none" stroke-linecap="round"></path><path d="M 566.000,319.000 C 569.514,319.232 569.478,318.732 573.000,319.000" stroke-width="3.986" stroke="black" fill="none" stroke-linecap="round"></path><path d="M 573.000,319.000 C 576.984,318.251 577.014,318.732 581.000,318.000" stroke-width="4.363" stroke="black" fill="none" stroke-linecap="round"></path><path d="M 581.000,318.000 C 585.000,318.000 584.984,317.751 589.000,318.000" stroke-width="3.915" stroke="black" fill="none" stroke-linecap="round"></path><path d="M 589.000,318.000 C 592.500,318.000 592.500,318.000 596.000,318.000" stroke-width="3.914" stroke="black" fill="none" stroke-linecap="round"></path><path d="M 596.000,318.000 C 599.522,317.732 599.500,318.000 603.000,318.000" stroke-width="3.963" stroke="black" fill="none" stroke-linecap="round"></path><path d="M 603.000,318.000 C 609.890,317.665 606.022,318.232 609.000,319.000" stroke-width="4.041" stroke="black" fill="none" stroke-linecap="round"></path><path d="M 609.000,319.000 C 603.560,324.163 606.890,322.165 597.000,327.000" stroke-width="4.670" stroke="black" fill="none" stroke-linecap="round"></path><path d="M 597.000,327.000 C 584.450,330.850 585.060,332.163 572.000,335.000" stroke-width="2.626" stroke="black" fill="none" stroke-linecap="round"></path><path d="M 572.000,335.000 C 553.310,342.636 552.950,341.350 534.000,348.000" stroke-width="1.815" stroke="black" fill="none" stroke-linecap="round"></path><path d="M 534.000,348.000 C 517.182,352.852 517.310,352.636 500.000,355.000" stroke-width="1.786" stroke="black" fill="none" stroke-linecap="round"></path><path d="M 500.000,355.000 C 477.030,357.275 477.182,357.852 454.000,358.000" stroke-width="1.636" stroke="black" fill="none" stroke-linecap="round"></path><path d="M 454.000,358.000 C 413.499,359.000 413.530,359.275 373.000,359.000" stroke-width="1.125" stroke="black" fill="none" stroke-linecap="round"></path><path d="M 373.000,359.000 C 340.502,358.288 340.499,359.000 308.000,358.000" stroke-width="1.169" stroke="black" fill="none" stroke-linecap="round"></path><path d="M 308.000,358.000 C 283.998,358.282 284.002,357.788 260.000,358.000" stroke-width="1.365" stroke="black" fill="none" stroke-linecap="round"></path><path d="M 260.000,358.000 C 198.985,357.470 198.998,357.282 138.000,356.000" stroke-width="1.125" stroke="black" fill="none" stroke-linecap="round"></path><path d="M 138.000,356.000 C 115.988,355.205 115.985,355.470 94.000,354.000" stroke-width="1.198" stroke="black" fill="none" stroke-linecap="round"></path><path d="M 94.000,354.000 C 76.692,359.587 79.488,353.205 65.000,352.000" stroke-width="1.664" stroke="black" fill="none" stroke-linecap="round"></path><path d="M 65.000,352.000 C 5.845,314.107 29.692,329.087 0.000,293.000" stroke-width="2.699" stroke="black" fill="none" stroke-linecap="round"></path><path d="M 0.000,293.000 C 23.549,290.350 -3.155,281.607 47.000,287.000" stroke-width="1.717" stroke="black" fill="none" stroke-linecap="round"></path><path d="M 47.000,287.000 C 96.816,278.044 97.049,279.850 147.000,272.000" stroke-width="1.125" stroke="black" fill="none" stroke-linecap="round"></path><path d="M 147.000,272.000 C 234.208,264.615 233.816,261.544 321.000,254.000" stroke-width="1.125" stroke="black" fill="none" stroke-linecap="round"></path><path d="M 321.000,254.000 C 372.941,245.592 373.208,247.615 425.000,238.000" stroke-width="1.125" stroke="black" fill="none" stroke-linecap="round"></path><path d="M 425.000,238.000 C 468.921,231.343 468.941,231.592 513.000,226.000" stroke-width="1.125" stroke="black" fill="none" stroke-linecap="round"></path><path d="M 513.000,226.000 C 551.477,221.750 551.421,221.343 590.000,218.000" stroke-width="1.125" stroke="black" fill="none" stroke-linecap="round"></path><path d="M 590.000,218.000 C 607.982,216.060 607.977,216.250 626.000,215.000" stroke-width="1.427" stroke="black" fill="none" stroke-linecap="round"></path><path d="M 626.000,215.000 C 633.552,214.427 633.482,214.560 641.000,215.000" stroke-width="2.216" stroke="black" fill="none" stroke-linecap="round"></path><path d="M 641.000,215.000 C 647.399,214.700 646.552,215.427 652.000,217.000" stroke-width="2.927" stroke="black" fill="none" stroke-linecap="round"></path><path d="M 652.000,217.000 C 656.769,219.922 654.399,218.200 655.000,222.000" stroke-width="4.017" stroke="black" fill="none" stroke-linecap="round"></path><path d="M 655.000,222.000 C 635.956,246.715 636.769,243.422 612.000,264.000" stroke-width="1.565" stroke="black" fill="none" stroke-linecap="round"></path><path d="M 612.000,264.000 C 593.874,271.209 596.456,275.215 576.000,279.000" stroke-width="1.614" stroke="black" fill="none" stroke-linecap="round"></path><path d="M 576.000,279.000 C 554.908,288.301 554.874,288.209 534.000,298.000" stroke-width="1.590" stroke="black" fill="none" stroke-linecap="round"></path><path d="M 534.000,298.000 C 506.917,312.333 506.408,310.801 479.000,324.000" stroke-width="1.318" stroke="black" fill="none" stroke-linecap="round"></path><path d="M 479.000,324.000 C 472.920,324.655 473.417,326.333 467.000,326.000" stroke-width="2.267" stroke="black" fill="none" stroke-linecap="round"></path><path d="M 467.000,326.000 C 462.088,328.102 461.920,327.155 457.000,329.000" stroke-width="2.959" stroke="black" fill="none" stroke-linecap="round"></path><path d="M 457.000,329.000 C 450.000,330.712 453.588,329.602 450.000,329.000" stroke-width="3.952" stroke="black" fill="none" stroke-linecap="round"></path><path d="M 450.000,329.000 C 452.498,323.438 450.000,326.212 457.000,320.000" stroke-width="4.131" stroke="black" fill="none" stroke-linecap="round"></path><path d="M 457.000,320.000 C 480.199,301.800 479.998,302.438 505.000,287.000" stroke-width="1.604" stroke="black" fill="none" stroke-linecap="round"></path><path d="M 505.000,287.000 C 511.890,284.471 511.199,283.300 519.000,283.000" stroke-width="2.354" stroke="black" fill="none" stroke-linecap="round"></path><path d="M 519.000,283.000 C 526.503,282.022 526.390,281.471 534.000,281.000" stroke-width="2.758" stroke="black" fill="none" stroke-linecap="round"></path><path d="M 534.000,281.000 C 543.404,278.430 537.503,280.522 541.000,280.000" stroke-width="3.509" stroke="black" fill="none" stroke-linecap="round"></path><path d="M 541.000,280.000 C 512.945,296.408 518.904,294.430 485.000,313.000" stroke-width="2.667" stroke="black" fill="none" stroke-linecap="round"></path><path d="M 485.000,313.000 C 465.996,327.022 464.945,324.908 445.000,337.000" stroke-width="1.729" stroke="black" fill="none" stroke-linecap="round"></path><path d="M 445.000,337.000 C 414.785,349.805 415.496,351.022 384.000,361.000" stroke-width="1.286" stroke="black" fill="none" stroke-linecap="round"></path><path d="M 384.000,361.000 C 365.109,367.480 365.285,367.805 346.000,373.000" stroke-width="1.498" stroke="black" fill="none" stroke-linecap="round"></path><path d="M 346.000,373.000 C 341.851,375.188 342.609,373.980 339.000,374.000" stroke-width="2.656" stroke="black" fill="none" stroke-linecap="round"></path><path d="M 339.000,374.000 C 332.048,370.715 335.851,372.688 334.000,368.000" stroke-width="3.760" stroke="black" fill="none" stroke-linecap="round"></path><path d="M 334.000,368.000 C 347.812,354.792 343.548,354.715 362.000,342.000" stroke-width="2.066" stroke="black" fill="none" stroke-linecap="round"></path><path d="M 362.000,342.000 C 376.979,325.264 378.312,327.292 395.000,313.000" stroke-width="1.636" stroke="black" fill="none" stroke-linecap="round"></path><path d="M 395.000,313.000 C 414.637,303.251 412.979,300.764 434.000,293.000" stroke-width="1.591" stroke="black" fill="none" stroke-linecap="round"></path><path d="M 434.000,293.000 C 440.013,289.522 440.137,289.751 446.000,286.000" stroke-width="2.411" stroke="black" fill="none" stroke-linecap="round"></path><path d="M 446.000,286.000 C 453.226,282.011 448.513,284.522 451.000,283.000" stroke-width="3.692" stroke="black" fill="none" stroke-linecap="round"></path><path d="M 451.000,283.000 C 421.479,296.455 426.226,294.011 392.000,310.000" stroke-width="2.220" stroke="black" fill="none" stroke-linecap="round"></path><path d="M 392.000,310.000 C 366.270,322.741 365.979,321.955 340.000,334.000" stroke-width="1.418" stroke="black" fill="none" stroke-linecap="round"></path><path d="M 340.000,334.000 C 334.593,336.514 334.770,336.241 329.000,337.000" stroke-width="2.411" stroke="black" fill="none" stroke-linecap="round"></path><path d="M 329.000,337.000 C 322.018,338.618 323.093,337.514 317.000,336.000" stroke-width="2.967" stroke="black" fill="none" stroke-linecap="round"></path><path d="M 317.000,336.000 C 308.476,331.753 310.518,332.618 306.000,325.000" stroke-width="2.820" stroke="black" fill="none" stroke-linecap="round"></path><path d="M 306.000,325.000 C 303.911,315.117 302.976,316.753 306.000,306.000" stroke-width="2.761" stroke="black" fill="none" stroke-linecap="round"></path><path d="M 306.000,306.000 C 308.049,289.083 309.411,291.117 317.000,277.000" stroke-width="2.173" stroke="black" fill="none" stroke-linecap="round"></path><path d="M 317.000,277.000 C 330.640,263.171 328.049,262.083 346.000,252.000" stroke-width="1.785" stroke="black" fill="none" stroke-linecap="round"></path></svg>