<svg xmlns="http://www.w3.org/2000/svg" xmlns:xlink="http://www.w3.org/1999/xlink" viewBox="0 0 1460 576" width="1460" height="576"><path d="M 425.000,347.000 C 418.599,343.300 418.500,343.500 412.000,340.000" stroke-width="5.107" stroke="black" fill="none" stroke-linecap="round"></path><path d="M 412.000,340.000 C 406.521,337.454 406.599,337.300 401.000,335.000" stroke-width="3.608" stroke="black" fill="none" stroke-linecap="round"></path><path d="M 401.000,335.000 C 397.485,333.534 397.521,333.454 394.000,332.000" stroke-width="3.748" stroke="black" fill="none" stroke-linecap="round"></path><path d="M 394.000,332.000 C 385.112,327.712 384.985,328.034 376.000,324.000" stroke-width="2.796" stroke="black" fill="none" stroke-linecap="round"></path><path d="M 376.000,324.000 C 371.393,322.757 371.612,322.212 367.000,321.000" stroke-width="3.320" stroke="black" fill="none" stroke-linecap="round"></path><path d="M 367.000,321.000 C 363.810,319.807 363.893,319.757 361.000,318.000" stroke-width="3.789" stroke="black" fill="none" stroke-linecap="round"></path><path d="M 361.000,318.000 C 356.902,315.122 356.810,315.307 353.000,312.000" stroke-width="3.612" stroke="black" fill="none" stroke-linecap="round"></path><path d="M 353.000,312.000 C 349.558,308.930 349.402,309.122 346.000,306.000" stroke-width="3.582" stroke="black" fill="none" stroke-linecap="round"></path><path d="M 346.000,306.000 C 341.216,301.682 341.058,301.930 336.000,298.000" stroke-width="3.249" stroke="black" fill="none" stroke-linecap="round"></path><path d="M 336.000,298.000 C 332.678,295.576 332.716,295.682 329.000,294.000" stroke-width="3.578" stroke="black" fill="none" stroke-linecap="round"></path><path d="M 329.000,294.000 C 321.610,293.754 325.678,292.576 322.000,292.000" stroke-width="4.256" stroke="black" fill="none" stroke-linecap="round"></path><path d="M 322.000,292.000 C 326.067,287.611 322.610,289.254 331.000,285.000" stroke-width="4.972" stroke="black" fill="none" stroke-linecap="round"></path><path d="M 331.000,285.000 C 335.176,284.496 334.567,283.111 339.000,283.000" stroke-width="4.017" stroke="black" fill="none" stroke-linecap="round"></path><path d="M 339.000,283.000 C 346.599,279.701 346.676,279.996 354.000,276.000" stroke-width="3.122" stroke="black" fill="none" stroke-linecap="round"></path><path d="M 354.000,276.000 C 366.623,269.726 366.599,269.701 379.000,263.000" stroke-width="2.274" stroke="black" fill="none" stroke-linecap="round"></path><path d="M 379.000,263.000 C 389.040,256.003 389.623,257.226 400.000,251.000" stroke-width="2.307" stroke="black" fill="none" stroke-linecap="round"></path><path d="M 400.000,251.000 C 412.617,246.805 412.040,245.503 425.000,242.000" stroke-width="2.334" stroke="black" fill="none" stroke-linecap="round"></path><path d="M 425.000,242.000 C 446.946,235.192 446.117,233.805 467.000,225.000" stroke-width="1.869" stroke="black" fill="none" stroke-linecap="round"></path><path d="M 467.000,225.000 C 476.125,217.430 477.446,219.692 486.000,211.000" stroke-width="2.185" stroke="black" fill="none" stroke-linecap="round"></path><path d="M 486.000,211.000 C 499.098,205.424 497.625,203.430 510.000,197.000" stroke-width="2.031" stroke="black" fill="none" stroke-linecap="round"></path><path d="M 510.000,197.000 C 519.545,186.475 521.098,188.424 530.000,177.000" stroke-width="2.662" stroke="black" fill="none" stroke-linecap="round"></path><path d="M 530.000,177.000 C 536.043,172.555 535.545,171.975 542.000,168.000" stroke-width="2.826" stroke="black" fill="none" stroke-linecap="round"></path><path d="M 542.000,168.000 C 548.159,162.725 544.543,166.055 547.000,164.000" stroke-width="3.947" stroke="black" fill="none" stroke-linecap="round"></path><path d="M 547.000,164.000 C 539.409,171.411 543.159,168.225 532.000,179.000" stroke-width="4.480" stroke="black" fill="none" stroke-linecap="round"></path><path d="M 532.000,179.000 C 518.330,191.908 518.909,192.411 506.000,206.000" stroke-width="2.071" stroke="black" fill="none" stroke-linecap="round"></path><path d="M 506.000,206.000 C 489.268,223.293 490.330,223.908 476.000,243.000" stroke-width="1.670" stroke="black" fill="none" stroke-linecap="round"></path><path d="M 476.000,243.000 C 457.546,275.333 455.268,273.793 438.000,307.000" stroke-width="1.133" stroke="black" fill="none" stroke-linecap="round"></path><path d="M 438.000,307.000 C 393.226,379.974 393.046,379.833 347.000,452.000" stroke-width="1.125" stroke="black" fill="none" stroke-linecap="round"></path><path d="M 347.000,452.000 C 328.595,480.422 328.726,480.474 309.000,508.000" stroke-width="1.125" stroke="black" fill="none" stroke-linecap="round"></path><path d="M 309.000,508.000 C 294.843,555.512 288.095,537.422 266.000,566.000" stroke-width="1.125" stroke="black" fill="none" stroke-linecap="round"></path><path d="M 266.000,566.000 C 207.373,565.385 234.343,577.512 188.000,552.000" stroke-width="2.255" stroke="black" fill="none" stroke-linecap="round"></path><path d="M 188.000,552.000 C 198.988,539.474 179.873,546.385 211.000,528.000" stroke-width="1.997" stroke="black" fill="none" stroke-linecap="round"></path><path d="M 211.000,528.000 C 231.718,506.381 232.488,507.474 255.000,488.000" stroke-width="1.408" stroke="black" fill="none" stroke-linecap="round"></path><path d="M 255.000,488.000 C 280.360,470.292 279.218,468.881 306.000,453.000" stroke-width="1.222" stroke="black" fill="none" stroke-linecap="round"></path><path d="M 306.000,453.000 C 346.430,428.874 344.860,426.792 384.000,401.000" stroke-width="1.382" stroke="black" fill="none" stroke-linecap="round"></path><path d="M 384.000,401.000 C 406.888,380.868 408.430,382.874 430.000,361.000" stroke-width="1.311" stroke="black" fill="none" stroke-linecap="round"></path><path d="M 430.000,361.000 C 435.690,356.720 435.388,356.368 441.000,352.000" stroke-width="2.186" stroke="black" fill="none" stroke-linecap="round"></path><path d="M 441.000,352.000 C 457.810,336.280 458.190,336.720 475.000,321.000" stroke-width="2.270" stroke="black" fill="none" stroke-linecap="round"></path><path d="M 475.000,321.000 C 480.290,316.207 480.310,316.280 486.000,312.000" stroke-width="2.860" stroke="black" fill="none" stroke-linecap="round"></path><path d="M 486.000,312.000 C 489.975,309.460 489.790,309.207 494.000,307.000" stroke-width="3.351" stroke="black" fill="none" stroke-linecap="round"></path><path d="M 494.000,307.000 C 498.813,303.593 498.975,303.960 504.000,301.000" stroke-width="3.218" stroke="black" fill="none" stroke-linecap="round"></path><path d="M 504.000,301.000 C 506.909,299.442 506.813,299.593 510.000,299.000" stroke-width="3.788" stroke="black" fill="none" stroke-linecap="round"></path><path d="M 510.000,299.000 C 518.000,297.853 513.909,298.442 518.000,299.000" stroke-width="4.260" stroke="black" fill="none" stroke-linecap="round"></path><path d="M 518.000,299.000 C 514.191,301.905 518.000,300.353 510.000,304.000" stroke-width="4.991" stroke="black" fill="none" stroke-linecap="round"></path><path d="M 510.000,304.000 C 506.819,304.591 507.191,305.405 504.000,306.000" stroke-width="4.332" stroke="black" fill="none" stroke-linecap="round"></path><path d="M 504.000,306.000 C 495.657,309.975 495.819,310.091 488.000,315.000" stroke-width="2.972" stroke="black" fill="none" stroke-linecap="round"></path><path d="M 488.000,315.000 C 480.000,321.000 479.657,320.475 472.000,327.000" stroke-width="2.625" stroke="black" fill="none" stroke-linecap="round"></path><path d="M 472.000,327.000 C 467.853,329.817 468.000,330.000 464.000,333.000" stroke-width="3.206" stroke="black" fill="none" stroke-linecap="round"></path><path d="M 464.000,333.000 C 456.288,339.272 456.353,339.317 449.000,346.000" stroke-width="2.685" stroke="black" fill="none" stroke-linecap="round"></path><path d="M 449.000,346.000 C 443.091,351.145 443.288,351.272 438.000,357.000" stroke-width="2.800" stroke="black" fill="none" stroke-linecap="round"></path><path d="M 438.000,357.000 C 428.281,363.485 433.091,362.645 429.000,369.000" stroke-width="3.160" stroke="black" fill="none" stroke-linecap="round"></path><path d="M 429.000,369.000 C 433.737,378.662 429.781,374.985 441.000,380.000" stroke-width="3.585" stroke="black" fill="none" stroke-linecap="round"></path><path d="M 441.000,380.000 C 454.256,379.059 452.737,382.162 467.000,376.000" stroke-width="2.496" stroke="black" fill="none" stroke-linecap="round"></path><path d="M 467.000,376.000 C 479.377,372.925 479.256,373.059 491.000,368.000" stroke-width="2.265" stroke="black" fill="none" stroke-linecap="round"></path><path d="M 491.000,368.000 C 508.471,359.440 508.877,360.425 526.000,351.000" stroke-width="1.846" stroke="black" fill="none" stroke-linecap="round"></path><path d="M 526.000,351.000 C 535.529,346.560 535.471,346.440 545.000,342.000" stroke-width="2.712" stroke="black" fill="none" stroke-linecap="round"></path><path d="M 545.000,342.000 C 549.212,340.331 549.029,340.060 553.000,338.000" stroke-width="3.327" stroke="black" fill="none" stroke-linecap="round"></path><path d="M 553.000,338.000 C 557.512,333.512 555.712,336.331 558.000,334.000" stroke-width="4.201" stroke="black" fill="none" stroke-linecap="round"></path><path d="M 558.000,334.000 C 556.500,337.000 558.512,334.512 555.000,340.000" stroke-width="4.889" stroke="black" fill="none" stroke-linecap="round"></path><path d="M 555.000,340.000 C 550.009,344.382 553.500,343.000 552.000,346.000" stroke-width="4.982" stroke="black" fill="none" stroke-linecap="round"></path><path d="M 552.000,346.000 C 561.166,351.628 558.009,350.882 571.000,353.000" stroke-width="2.923" stroke="black" fill="none" stroke-linecap="round"></path><path d="M 571.000,353.000 C 583.031,352.921 582.666,354.628 595.000,352.000" stroke-width="2.482" stroke="black" fill="none" stroke-linecap="round"></path><path d="M 595.000,352.000 C 609.013,350.614 609.031,350.921 623.000,349.000" stroke-width="2.154" stroke="black" fill="none" stroke-linecap="round"></path><path d="M 623.000,349.000 C 634.995,347.455 635.013,347.614 647.000,346.000" stroke-width="2.320" stroke="black" fill="none" stroke-linecap="round"></path><path d="M 647.000,346.000 C 651.489,345.301 651.495,345.455 656.000,345.000" stroke-width="3.085" stroke="black" fill="none" stroke-linecap="round"></path><path d="M 656.000,345.000 C 662.912,343.567 658.989,344.801 662.000,345.000" stroke-width="4.081" stroke="black" fill="none" stroke-linecap="round"></path><path d="M 662.000,345.000 C 655.998,351.201 659.412,349.067 649.000,356.000" stroke-width="4.175" stroke="black" fill="none" stroke-linecap="round"></path><path d="M 649.000,356.000 C 638.386,363.307 638.498,363.201 627.000,369.000" stroke-width="2.531" stroke="black" fill="none" stroke-linecap="round"></path><path d="M 627.000,369.000 C 619.121,372.390 619.386,372.807 611.000,375.000" stroke-width="2.661" stroke="black" fill="none" stroke-linecap="round"></path><path d="M 611.000,375.000 C 598.390,379.424 605.121,376.890 599.000,378.000" stroke-width="3.051" stroke="black" fill="none" stroke-linecap="round"></path><path d="M 599.000,378.000 C 605.967,372.059 599.890,375.924 614.000,368.000" stroke-width="4.320" stroke="black" fill="none" stroke-linecap="round"></path><path d="M 614.000,368.000 C 652.172,342.990 653.467,348.059 694.000,330.000" stroke-width="1.133" stroke="black" fill="none" stroke-linecap="round"></path><path d="M 694.000,330.000 C 734.333,322.186 732.672,317.990 775.000,318.000" stroke-width="1.125" stroke="black" fill="none" stroke-linecap="round"></path><path d="M 775.000,318.000 C 802.494,316.688 802.333,315.186 830.000,316.000" stroke-width="1.179" stroke="black" fill="none" stroke-linecap="round"></path><path d="M 830.000,316.000 C 842.500,316.000 842.494,315.688 855.000,316.000" stroke-width="1.744" stroke="black" fill="none" stroke-linecap="round"></path><path d="M 855.000,316.000 C 859.532,315.681 859.500,316.000 864.000,316.000" stroke-width="2.729" stroke="black" fill="none" stroke-linecap="round"></path><path d="M 864.000,316.000 C 868.405,315.066 866.532,316.181 869.000,317.000" stroke-width="3.914" stroke="black" fill="none" stroke-linecap="round"></path><path d="M 869.000,317.000 C 869.715,323.364 870.405,321.566 868.000,329.000" stroke-width="4.139" stroke="black" fill="none" stroke-linecap="round"></path><path d="M 868.000,329.000 C 865.071,334.541 866.215,334.864 862.000,340.000" stroke-width="3.464" stroke="black" fill="none" stroke-linecap="round"></path><path d="M 862.000,340.000 C 859.533,342.333 860.571,342.541 859.000,345.000" stroke-width="4.279" stroke="black" fill="none" stroke-linecap="round"></path></svg>