<svg xmlns="http://www.w3.org/2000/svg" xmlns:xlink="http://www.w3.org/1999/xlink" viewBox="0 0 374 282" width="374" height="282"><path d="M 184.000,134.250 C 186.307,141.874 185.000,141.750 186.000,149.250" stroke-width="4.703" stroke="black" fill="none" stroke-linecap="round"></path><path d="M 186.000,149.250 C 185.182,154.084 185.807,153.874 183.000,158.250" stroke-width="3.816" stroke="black" fill="none" stroke-linecap="round"></path><path d="M 183.000,158.250 C 180.053,165.197 179.682,164.584 175.000,170.250" stroke-width="3.240" stroke="black" fill="none" stroke-linecap="round"></path><path d="M 175.000,170.250 C 163.895,182.012 164.053,181.197 151.000,190.250" stroke-width="2.174" stroke="black" fill="none" stroke-linecap="round"></path><path d="M 151.000,190.250 C 144.944,193.675 145.895,193.512 139.000,193.250" stroke-width="2.788" stroke="black" fill="none" stroke-linecap="round"></path><path d="M 139.000,193.250 C 128.890,193.620 130.944,192.675 123.000,188.250" stroke-width="2.759" stroke="black" fill="none" stroke-linecap="round"></path><path d="M 123.000,188.250 C 110.120,176.824 111.890,178.120 105.000,162.250" stroke-width="2.087" stroke="black" fill="none" stroke-linecap="round"></path><path d="M 105.000,162.250 C 100.056,138.261 97.120,139.824 97.000,114.250" stroke-width="1.602" stroke="black" fill="none" stroke-linecap="round"></path><path d="M 97.000,114.250 C 95.652,109.745 96.556,110.761 98.000,107.250" stroke-width="2.727" stroke="black" fill="none" stroke-linecap="round"></path><path d="M 98.000,107.250 C 112.056,91.450 111.652,92.745 129.000,80.250" stroke-width="1.804" stroke="black" fill="none" stroke-linecap="round"></path><path d="M 129.000,80.250 C 142.528,72.619 141.556,71.950 157.000,68.250" stroke-width="1.947" stroke="black" fill="none" stroke-linecap="round"></path><path d="M 157.000,68.250 C 169.480,63.876 169.028,64.619 182.000,64.250" stroke-width="2.156" stroke="black" fill="none" stroke-linecap="round"></path><path d="M 182.000,64.250 C 203.548,65.751 202.980,64.876 224.000,70.250" stroke-width="1.685" stroke="black" fill="none" stroke-linecap="round"></path><path d="M 224.000,70.250 C 228.460,72.216 228.548,71.251 232.000,75.250" stroke-width="2.660" stroke="black" fill="none" stroke-linecap="round"></path><path d="M 232.000,75.250 C 235.536,78.417 235.460,78.216 238.000,82.250" stroke-width="3.282" stroke="black" fill="none" stroke-linecap="round"></path><path d="M 238.000,82.250 C 241.773,85.770 240.036,85.417 241.000,89.250" stroke-width="3.682" stroke="black" fill="none" stroke-linecap="round"></path><path d="M 241.000,89.250 C 238.444,100.591 238.773,99.270 232.000,109.250" stroke-width="2.797" stroke="black" fill="none" stroke-linecap="round"></path><path d="M 232.000,109.250 C 221.842,122.553 222.444,122.091 209.000,132.250" stroke-width="2.128" stroke="black" fill="none" stroke-linecap="round"></path><path d="M 209.000,132.250 C 196.396,140.190 197.342,141.053 183.000,146.250" stroke-width="1.959" stroke="black" fill="none" stroke-linecap="round"></path><path d="M 183.000,146.250 C 174.947,148.601 175.396,149.690 167.000,151.250" stroke-width="2.542" stroke="black" fill="none" stroke-linecap="round"></path><path d="M 167.000,151.250 C 160.931,152.047 164.447,152.101 162.000,153.250" stroke-width="3.517" stroke="black" fill="none" stroke-linecap="round"></path></svg>