<svg xmlns="http://www.w3.org/2000/svg" xmlns:xlink="http://www.w3.org/1999/xlink" viewBox="0 0 492 236" width="492" height="236"><path d="M 150.000,104.000 C 146.675,101.648 146.500,102.500 143.000,101.000" stroke-width="5.041" stroke="black" fill="none" stroke-linecap="round"></path><path d="M 143.000,101.000 C 137.974,101.311 138.175,100.148 133.000,101.000" stroke-width="4.487" stroke="black" fill="none" stroke-linecap="round"></path><path d="M 133.000,101.000 C 129.972,100.637 129.974,100.811 127.000,100.000" stroke-width="4.240" stroke="black" fill="none" stroke-linecap="round"></path><path d="M 127.000,100.000 C 123.038,98.808 122.972,99.137 119.000,98.000" stroke-width="4.419" stroke="black" fill="none" stroke-linecap="round"></path><path d="M 119.000,98.000 C 115.406,97.896 115.538,97.308 112.000,97.000" stroke-width="4.146" stroke="black" fill="none" stroke-linecap="round"></path><path d="M 112.000,97.000 C 106.054,94.816 105.906,95.396 100.000,93.000" stroke-width="3.388" stroke="black" fill="none" stroke-linecap="round"></path><path d="M 100.000,93.000 C 92.927,91.927 96.054,91.816 92.000,91.000" stroke-width="4.097" stroke="black" fill="none" stroke-linecap="round"></path><path d="M 92.000,91.000 C 94.486,90.419 91.427,90.427 97.000,90.000" stroke-width="4.870" stroke="black" fill="none" stroke-linecap="round"></path><path d="M 97.000,90.000 C 100.594,89.896 100.486,89.419 104.000,89.000" stroke-width="4.205" stroke="black" fill="none" stroke-linecap="round"></path><path d="M 104.000,89.000 C 110.051,87.142 110.094,87.396 116.000,85.000" stroke-width="3.531" stroke="black" fill="none" stroke-linecap="round"></path><path d="M 116.000,85.000 C 122.715,82.977 122.551,82.642 129.000,80.000" stroke-width="3.147" stroke="black" fill="none" stroke-linecap="round"></path><path d="M 129.000,80.000 C 141.467,73.436 141.715,73.977 154.000,67.000" stroke-width="3.125" stroke="black" fill="none" stroke-linecap="round"></path><path d="M 154.000,67.000 C 160.000,64.000 159.967,63.936 166.000,61.000" stroke-width="3.079" stroke="black" fill="none" stroke-linecap="round"></path><path d="M 166.000,61.000 C 171.054,58.603 171.000,58.500 176.000,56.000" stroke-width="3.238" stroke="black" fill="none" stroke-linecap="round"></path><path d="M 176.000,56.000 C 180.402,53.299 180.554,53.603 185.000,51.000" stroke-width="3.596" stroke="black" fill="none" stroke-linecap="round"></path><path d="M 185.000,51.000 C 188.551,49.610 188.402,49.299 192.000,48.000" stroke-width="3.793" stroke="black" fill="none" stroke-linecap="round"></path><path d="M 192.000,48.000 C 200.213,43.148 196.051,46.110 200.000,44.000" stroke-width="4.232" stroke="black" fill="none" stroke-linecap="round"></path><path d="M 200.000,44.000 C 195.676,48.215 199.713,45.148 191.000,52.000" stroke-width="4.672" stroke="black" fill="none" stroke-linecap="round"></path><path d="M 191.000,52.000 C 184.971,56.462 185.176,56.715 179.000,61.000" stroke-width="3.350" stroke="black" fill="none" stroke-linecap="round"></path><path d="M 179.000,61.000 C 172.378,65.849 172.471,65.962 166.000,71.000" stroke-width="3.055" stroke="black" fill="none" stroke-linecap="round"></path><path d="M 166.000,71.000 C 159.600,76.622 159.378,76.349 153.000,82.000" stroke-width="2.879" stroke="black" fill="none" stroke-linecap="round"></path><path d="M 153.000,82.000 C 146.000,87.500 146.100,87.622 139.000,93.000" stroke-width="2.724" stroke="black" fill="none" stroke-linecap="round"></path><path d="M 139.000,93.000 C 132.236,98.831 132.000,98.500 125.000,104.000" stroke-width="2.681" stroke="black" fill="none" stroke-linecap="round"></path><path d="M 125.000,104.000 C 117.965,108.446 118.236,108.831 111.000,113.000" stroke-width="2.734" stroke="black" fill="none" stroke-linecap="round"></path><path d="M 111.000,113.000 C 105.297,117.526 104.965,116.946 99.000,121.000" stroke-width="3.485" stroke="black" fill="none" stroke-linecap="round"></path><path d="M 99.000,121.000 C 90.539,125.086 90.797,125.526 82.000,129.000" stroke-width="2.804" stroke="black" fill="none" stroke-linecap="round"></path><path d="M 82.000,129.000 C 78.614,130.888 78.539,130.586 75.000,132.000" stroke-width="3.482" stroke="black" fill="none" stroke-linecap="round"></path><path d="M 75.000,132.000 C 72.021,132.748 72.114,132.888 69.000,133.000" stroke-width="3.958" stroke="black" fill="none" stroke-linecap="round"></path><path d="M 69.000,133.000 C 62.341,134.153 66.021,133.248 63.000,133.000" stroke-width="4.548" stroke="black" fill="none" stroke-linecap="round"></path><path d="M 63.000,133.000 C 67.742,129.044 64.341,130.653 73.000,126.000" stroke-width="4.887" stroke="black" fill="none" stroke-linecap="round"></path><path d="M 73.000,126.000 C 77.598,124.201 77.242,123.544 82.000,122.000" stroke-width="3.877" stroke="black" fill="none" stroke-linecap="round"></path><path d="M 82.000,122.000 C 88.311,118.087 88.598,118.701 95.000,115.000" stroke-width="3.227" stroke="black" fill="none" stroke-linecap="round"></path><path d="M 95.000,115.000 C 101.603,112.742 101.311,112.087 108.000,110.000" stroke-width="3.131" stroke="black" fill="none" stroke-linecap="round"></path><path d="M 108.000,110.000 C 115.409,106.289 115.603,106.742 123.000,103.000" stroke-width="2.988" stroke="black" fill="none" stroke-linecap="round"></path><path d="M 123.000,103.000 C 130.500,100.000 130.409,99.789 138.000,97.000" stroke-width="2.853" stroke="black" fill="none" stroke-linecap="round"></path><path d="M 138.000,97.000 C 145.399,93.715 145.500,94.000 153.000,91.000" stroke-width="2.981" stroke="black" fill="none" stroke-linecap="round"></path><path d="M 153.000,91.000 C 159.414,88.647 159.399,88.715 166.000,87.000" stroke-width="3.022" stroke="black" fill="none" stroke-linecap="round"></path><path d="M 166.000,87.000 C 171.533,86.151 171.414,85.647 177.000,85.000" stroke-width="3.273" stroke="black" fill="none" stroke-linecap="round"></path><path d="M 177.000,85.000 C 180.972,83.863 181.033,84.151 185.000,83.000" stroke-width="3.617" stroke="black" fill="none" stroke-linecap="round"></path><path d="M 185.000,83.000 C 187.979,82.252 187.972,82.363 191.000,82.000" stroke-width="3.878" stroke="black" fill="none" stroke-linecap="round"></path><path d="M 191.000,82.000 C 194.013,82.213 193.979,81.752 197.000,82.000" stroke-width="4.025" stroke="black" fill="none" stroke-linecap="round"></path><path d="M 197.000,82.000 C 201.077,81.841 201.013,81.713 205.000,81.000" stroke-width="4.359" stroke="black" fill="none" stroke-linecap="round"></path><path d="M 205.000,81.000 C 208.196,80.402 208.077,80.341 211.000,79.000" stroke-width="4.590" stroke="black" fill="none" stroke-linecap="round"></path><path d="M 211.000,79.000 C 213.892,76.813 214.196,77.402 217.000,75.000" stroke-width="4.608" stroke="black" fill="none" stroke-linecap="round"></path><path d="M 217.000,75.000 C 223.000,72.524 219.892,73.313 223.000,72.000" stroke-width="4.849" stroke="black" fill="none" stroke-linecap="round"></path><path d="M 223.000,72.000 C 220.000,72.500 223.000,71.524 217.000,73.000" stroke-width="5.277" stroke="black" fill="none" stroke-linecap="round"></path><path d="M 217.000,73.000 C 213.742,72.800 214.000,73.500 211.000,74.000" stroke-width="4.994" stroke="black" fill="none" stroke-linecap="round"></path><path d="M 211.000,74.000 C 206.000,77.000 205.742,76.300 201.000,80.000" stroke-width="4.425" stroke="black" fill="none" stroke-linecap="round"></path><path d="M 201.000,80.000 C 198.284,81.223 198.500,81.500 196.000,83.000" stroke-width="4.257" stroke="black" fill="none" stroke-linecap="round"></path><path d="M 196.000,83.000 C 193.687,84.751 193.784,84.723 192.000,87.000" stroke-width="4.231" stroke="black" fill="none" stroke-linecap="round"></path><path d="M 192.000,87.000 C 189.095,90.809 189.187,90.751 187.000,95.000" stroke-width="4.331" stroke="black" fill="none" stroke-linecap="round"></path><path d="M 187.000,95.000 C 183.631,99.045 185.595,97.809 185.000,101.000" stroke-width="4.596" stroke="black" fill="none" stroke-linecap="round"></path><path d="M 185.000,101.000 C 189.298,103.763 187.131,104.045 194.000,105.000" stroke-width="4.814" stroke="black" fill="none" stroke-linecap="round"></path><path d="M 194.000,105.000 C 198.985,105.791 198.798,106.263 204.000,106.000" stroke-width="3.841" stroke="black" fill="none" stroke-linecap="round"></path><path d="M 204.000,106.000 C 211.000,106.000 210.985,106.291 218.000,106.000" stroke-width="3.278" stroke="black" fill="none" stroke-linecap="round"></path><path d="M 218.000,106.000 C 225.059,106.672 225.000,106.000 232.000,106.000" stroke-width="3.300" stroke="black" fill="none" stroke-linecap="round"></path><path d="M 232.000,106.000 C 240.520,104.604 240.559,105.172 249.000,103.000" stroke-width="3.045" stroke="black" fill="none" stroke-linecap="round"></path><path d="M 249.000,103.000 C 259.000,101.000 259.020,101.104 269.000,99.000" stroke-width="2.686" stroke="black" fill="none" stroke-linecap="round"></path><path d="M 269.000,99.000 C 278.940,96.638 279.000,97.000 289.000,95.000" stroke-width="2.652" stroke="black" fill="none" stroke-linecap="round"></path><path d="M 289.000,95.000 C 300.494,93.456 300.440,93.138 312.000,92.000" stroke-width="2.455" stroke="black" fill="none" stroke-linecap="round"></path><path d="M 312.000,92.000 C 340.074,88.989 339.994,88.456 368.000,85.000" stroke-width="1.516" stroke="black" fill="none" stroke-linecap="round"></path><path d="M 368.000,85.000 C 381.954,82.203 382.074,82.989 396.000,80.000" stroke-width="1.885" stroke="black" fill="none" stroke-linecap="round"></path><path d="M 396.000,80.000 C 407.531,78.708 407.454,78.203 419.000,77.000" stroke-width="2.155" stroke="black" fill="none" stroke-linecap="round"></path><path d="M 419.000,77.000 C 431.017,75.097 431.031,75.208 443.000,73.000" stroke-width="2.208" stroke="black" fill="none" stroke-linecap="round"></path><path d="M 443.000,73.000 C 450.957,71.192 451.017,71.597 459.000,70.000" stroke-width="2.635" stroke="black" fill="none" stroke-linecap="round"></path><path d="M 459.000,70.000 C 464.513,69.610 464.457,69.192 470.000,69.000" stroke-width="3.085" stroke="black" fill="none" stroke-linecap="round"></path><path d="M 470.000,69.000 C 476.730,68.270 473.513,68.610 477.000,68.000" stroke-width="3.614" stroke="black" fill="none" stroke-linecap="round"></path><path d="M 477.000,68.000 C 473.948,68.421 477.230,67.770 471.000,68.000" stroke-width="4.654" stroke="black" fill="none" stroke-linecap="round"></path></svg>