<svg xmlns="http://www.w3.org/2000/svg" xmlns:xlink="http://www.w3.org/1999/xlink" viewBox="0 0 453 236" width="453" height="236"><path d="M 156.500,123.000 C 152.019,121.904 152.000,122.000 147.500,121.000" stroke-width="4.656" stroke="black" fill="none" stroke-linecap="round"></path><path d="M 147.500,121.000 C 144.245,121.144 144.519,120.404 141.500,120.000" stroke-width="4.750" stroke="black" fill="none" stroke-linecap="round"></path><path d="M 141.500,120.000 C 138.649,117.717 138.245,118.644 135.500,116.000" stroke-width="4.656" stroke="black" fill="none" stroke-linecap="round"></path><path d="M 135.500,116.000 C 133.000,115.000 133.149,114.717 130.500,114.000" stroke-width="4.794" stroke="black" fill="none" stroke-linecap="round"></path><path d="M 130.500,114.000 C 126.250,113.750 128.000,113.000 125.500,112.000" stroke-width="4.823" stroke="black" fill="none" stroke-linecap="round"></path><path d="M 125.500,112.000 C 125.450,108.503 124.750,110.250 127.500,107.000" stroke-width="5.233" stroke="black" fill="none" stroke-linecap="round"></path><path d="M 127.500,107.000 C 134.037,104.078 132.950,103.003 140.500,101.000" stroke-width="4.298" stroke="black" fill="none" stroke-linecap="round"></path><path d="M 140.500,101.000 C 144.500,99.000 144.537,99.078 148.500,97.000" stroke-width="3.850" stroke="black" fill="none" stroke-linecap="round"></path><path d="M 148.500,97.000 C 153.500,94.500 153.500,94.500 158.500,92.000" stroke-width="3.519" stroke="black" fill="none" stroke-linecap="round"></path><path d="M 158.500,92.000 C 163.605,89.692 163.500,89.500 168.500,87.000" stroke-width="3.430" stroke="black" fill="none" stroke-linecap="round"></path><path d="M 168.500,87.000 C 173.395,83.808 173.605,84.192 178.500,81.000" stroke-width="3.305" stroke="black" fill="none" stroke-linecap="round"></path><path d="M 178.500,81.000 C 183.554,78.603 183.395,78.308 188.500,76.000" stroke-width="3.366" stroke="black" fill="none" stroke-linecap="round"></path><path d="M 188.500,76.000 C 193.013,73.524 193.054,73.603 197.500,71.000" stroke-width="3.405" stroke="black" fill="none" stroke-linecap="round"></path><path d="M 197.500,71.000 C 200.859,68.699 201.013,69.024 204.500,67.000" stroke-width="3.633" stroke="black" fill="none" stroke-linecap="round"></path><path d="M 204.500,67.000 C 208.637,65.783 208.359,65.199 212.500,64.000" stroke-width="3.657" stroke="black" fill="none" stroke-linecap="round"></path><path d="M 212.500,64.000 C 214.901,62.300 215.137,62.783 217.500,61.000" stroke-width="4.013" stroke="black" fill="none" stroke-linecap="round"></path><path d="M 217.500,61.000 C 222.714,58.572 219.901,59.800 222.500,59.000" stroke-width="4.580" stroke="black" fill="none" stroke-linecap="round"></path><path d="M 222.500,59.000 C 219.127,60.575 222.214,59.572 216.500,63.000" stroke-width="4.802" stroke="black" fill="none" stroke-linecap="round"></path><path d="M 216.500,63.000 C 213.133,67.125 212.627,66.575 209.500,71.000" stroke-width="3.777" stroke="black" fill="none" stroke-linecap="round"></path><path d="M 209.500,71.000 C 205.600,75.105 205.633,75.125 201.500,79.000" stroke-width="3.646" stroke="black" fill="none" stroke-linecap="round"></path><path d="M 201.500,79.000 C 195.114,84.131 195.600,84.605 189.500,90.000" stroke-width="3.132" stroke="black" fill="none" stroke-linecap="round"></path><path d="M 189.500,90.000 C 184.772,96.249 184.114,95.631 179.500,102.000" stroke-width="2.989" stroke="black" fill="none" stroke-linecap="round"></path><path d="M 179.500,102.000 C 173.500,108.000 173.772,108.249 167.500,114.000" stroke-width="2.865" stroke="black" fill="none" stroke-linecap="round"></path><path d="M 167.500,114.000 C 161.739,120.260 161.500,120.000 155.500,126.000" stroke-width="2.886" stroke="black" fill="none" stroke-linecap="round"></path><path d="M 155.500,126.000 C 149.020,131.523 149.239,131.760 142.500,137.000" stroke-width="2.832" stroke="black" fill="none" stroke-linecap="round"></path><path d="M 142.500,137.000 C 136.622,142.154 136.520,142.023 130.500,147.000" stroke-width="2.901" stroke="black" fill="none" stroke-linecap="round"></path><path d="M 130.500,147.000 C 124.689,151.780 124.622,151.654 118.500,156.000" stroke-width="2.903" stroke="black" fill="none" stroke-linecap="round"></path><path d="M 118.500,156.000 C 113.481,158.968 113.689,159.280 108.500,162.000" stroke-width="3.193" stroke="black" fill="none" stroke-linecap="round"></path><path d="M 108.500,162.000 C 101.938,165.903 101.981,165.968 95.500,170.000" stroke-width="3.238" stroke="black" fill="none" stroke-linecap="round"></path><path d="M 95.500,170.000 C 91.223,173.402 90.938,172.903 86.500,176.000" stroke-width="3.426" stroke="black" fill="none" stroke-linecap="round"></path><path d="M 86.500,176.000 C 81.131,178.834 81.223,178.902 75.500,181.000" stroke-width="3.268" stroke="black" fill="none" stroke-linecap="round"></path><path d="M 75.500,181.000 C 68.058,183.700 68.131,183.834 60.500,186.000" stroke-width="3.072" stroke="black" fill="none" stroke-linecap="round"></path><path d="M 60.500,186.000 C 56.552,187.421 56.558,187.200 52.500,188.000" stroke-width="3.493" stroke="black" fill="none" stroke-linecap="round"></path><path d="M 52.500,188.000 C 49.500,188.000 49.552,188.421 46.500,188.000" stroke-width="3.891" stroke="black" fill="none" stroke-linecap="round"></path><path d="M 46.500,188.000 C 41.133,189.867 43.000,188.000 39.500,188.000" stroke-width="4.430" stroke="black" fill="none" stroke-linecap="round"></path><path d="M 39.500,188.000 C 38.902,183.885 37.633,185.867 39.500,180.000" stroke-width="4.479" stroke="black" fill="none" stroke-linecap="round"></path><path d="M 39.500,180.000 C 39.868,177.041 39.902,177.385 41.500,175.000" stroke-width="4.373" stroke="black" fill="none" stroke-linecap="round"></path><path d="M 41.500,175.000 C 44.500,172.500 43.868,172.041 47.500,170.000" stroke-width="3.997" stroke="black" fill="none" stroke-linecap="round"></path><path d="M 47.500,170.000 C 50.355,167.306 50.500,167.500 53.500,165.000" stroke-width="3.896" stroke="black" fill="none" stroke-linecap="round"></path><path d="M 53.500,165.000 C 58.000,162.000 57.855,161.806 62.500,159.000" stroke-width="3.672" stroke="black" fill="none" stroke-linecap="round"></path><path d="M 62.500,159.000 C 66.904,155.845 67.000,156.000 71.500,153.000" stroke-width="3.505" stroke="black" fill="none" stroke-linecap="round"></path><path d="M 71.500,153.000 C 77.453,149.418 77.404,149.345 83.500,146.000" stroke-width="3.208" stroke="black" fill="none" stroke-linecap="round"></path><path d="M 83.500,146.000 C 89.062,143.108 88.953,142.918 94.500,140.000" stroke-width="3.170" stroke="black" fill="none" stroke-linecap="round"></path><path d="M 94.500,140.000 C 99.260,136.495 99.562,137.108 104.500,134.000" stroke-width="3.228" stroke="black" fill="none" stroke-linecap="round"></path><path d="M 104.500,134.000 C 109.928,131.773 109.760,131.495 115.500,130.000" stroke-width="3.242" stroke="black" fill="none" stroke-linecap="round"></path><path d="M 115.500,130.000 C 120.946,128.262 120.928,128.273 126.500,127.000" stroke-width="3.329" stroke="black" fill="none" stroke-linecap="round"></path><path d="M 126.500,127.000 C 132.000,126.000 131.946,125.762 137.500,125.000" stroke-width="3.316" stroke="black" fill="none" stroke-linecap="round"></path><path d="M 137.500,125.000 C 142.967,123.755 143.000,124.000 148.500,123.000" stroke-width="3.313" stroke="black" fill="none" stroke-linecap="round"></path><path d="M 148.500,123.000 C 154.102,123.028 153.967,122.255 159.500,122.000" stroke-width="3.380" stroke="black" fill="none" stroke-linecap="round"></path><path d="M 159.500,122.000 C 164.441,120.265 164.602,121.028 169.500,119.000" stroke-width="3.397" stroke="black" fill="none" stroke-linecap="round"></path><path d="M 169.500,119.000 C 174.540,118.167 174.441,117.765 179.500,117.000" stroke-width="3.424" stroke="black" fill="none" stroke-linecap="round"></path><path d="M 179.500,117.000 C 183.117,116.301 183.040,116.167 186.500,115.000" stroke-width="3.722" stroke="black" fill="none" stroke-linecap="round"></path><path d="M 186.500,115.000 C 189.500,113.500 189.617,113.801 192.500,112.000" stroke-width="3.888" stroke="black" fill="none" stroke-linecap="round"></path></svg>