<svg xmlns="http://www.w3.org/2000/svg" xmlns:xlink="http://www.w3.org/1999/xlink" viewBox="0 0 453 236" width="453" height="236"><path d="M 250.500,32.000 C 248.038,31.115 248.000,31.500 245.500,31.000" stroke-width="4.413" stroke="black" fill="none" stroke-linecap="round"></path><path d="M 245.500,31.000 C 236.938,30.375 237.038,30.615 228.500,31.000" stroke-width="3.226" stroke="black" fill="none" stroke-linecap="round"></path><path d="M 228.500,31.000 C 223.410,31.661 223.438,31.375 218.500,33.000" stroke-width="3.424" stroke="black" fill="none" stroke-linecap="round"></path><path d="M 218.500,33.000 C 212.476,34.931 212.410,34.661 206.500,37.000" stroke-width="3.282" stroke="black" fill="none" stroke-linecap="round"></path><path d="M 206.500,37.000 C 199.320,39.077 199.476,39.431 192.500,42.000" stroke-width="3.017" stroke="black" fill="none" stroke-linecap="round"></path><path d="M 192.500,42.000 C 185.547,45.598 185.320,45.077 178.500,49.000" stroke-width="3.011" stroke="black" fill="none" stroke-linecap="round"></path><path d="M 178.500,49.000 C 170.784,52.098 171.047,52.598 163.500,56.000" stroke-width="2.834" stroke="black" fill="none" stroke-linecap="round"></path><path d="M 163.500,56.000 C 156.886,59.825 156.784,59.598 150.500,64.000" stroke-width="2.865" stroke="black" fill="none" stroke-linecap="round"></path><path d="M 150.500,64.000 C 143.427,67.846 143.886,68.325 137.500,73.000" stroke-width="2.899" stroke="black" fill="none" stroke-linecap="round"></path><path d="M 137.500,73.000 C 132.487,78.488 131.927,77.846 127.500,84.000" stroke-width="2.970" stroke="black" fill="none" stroke-linecap="round"></path><path d="M 127.500,84.000 C 122.323,88.539 122.987,88.988 118.500,94.000" stroke-width="3.087" stroke="black" fill="none" stroke-linecap="round"></path><path d="M 118.500,94.000 C 115.698,98.870 115.323,98.539 113.500,104.000" stroke-width="3.241" stroke="black" fill="none" stroke-linecap="round"></path><path d="M 113.500,104.000 C 111.034,109.374 111.198,109.370 109.500,115.000" stroke-width="3.246" stroke="black" fill="none" stroke-linecap="round"></path><path d="M 109.500,115.000 C 108.004,120.455 108.034,120.374 107.500,126.000" stroke-width="3.348" stroke="black" fill="none" stroke-linecap="round"></path><path d="M 107.500,126.000 C 107.500,131.500 107.004,131.455 107.500,137.000" stroke-width="3.395" stroke="black" fill="none" stroke-linecap="round"></path><path d="M 107.500,137.000 C 106.537,142.185 107.500,142.000 107.500,147.000" stroke-width="3.496" stroke="black" fill="none" stroke-linecap="round"></path><path d="M 107.500,147.000 C 108.574,152.611 108.537,152.185 111.500,157.000" stroke-width="3.459" stroke="black" fill="none" stroke-linecap="round"></path><path d="M 111.500,157.000 C 115.382,161.125 114.574,161.611 119.500,165.000" stroke-width="3.401" stroke="black" fill="none" stroke-linecap="round"></path><path d="M 119.500,165.000 C 123.599,169.570 123.882,169.125 128.500,173.000" stroke-width="3.265" stroke="black" fill="none" stroke-linecap="round"></path><path d="M 128.500,173.000 C 133.900,176.200 133.599,176.570 139.500,179.000" stroke-width="3.187" stroke="black" fill="none" stroke-linecap="round"></path><path d="M 139.500,179.000 C 145.877,182.302 145.900,182.200 152.500,185.000" stroke-width="3.031" stroke="black" fill="none" stroke-linecap="round"></path><path d="M 152.500,185.000 C 159.354,188.029 159.377,187.802 166.500,190.000" stroke-width="2.949" stroke="black" fill="none" stroke-linecap="round"></path><path d="M 166.500,190.000 C 174.055,191.263 173.854,192.029 181.500,193.000" stroke-width="2.897" stroke="black" fill="none" stroke-linecap="round"></path><path d="M 181.500,193.000 C 188.880,195.730 189.055,194.763 196.500,197.000" stroke-width="2.927" stroke="black" fill="none" stroke-linecap="round"></path><path d="M 196.500,197.000 C 203.992,197.750 203.880,198.230 211.500,198.000" stroke-width="2.968" stroke="black" fill="none" stroke-linecap="round"></path><path d="M 211.500,198.000 C 219.033,198.498 218.992,198.250 226.500,198.000" stroke-width="2.922" stroke="black" fill="none" stroke-linecap="round"></path><path d="M 226.500,198.000 C 234.210,197.823 234.033,197.498 241.500,196.000" stroke-width="2.900" stroke="black" fill="none" stroke-linecap="round"></path><path d="M 241.500,196.000 C 248.143,193.825 248.210,194.323 254.500,191.000" stroke-width="2.974" stroke="black" fill="none" stroke-linecap="round"></path><path d="M 254.500,191.000 C 261.665,187.797 261.643,187.825 268.500,184.000" stroke-width="2.942" stroke="black" fill="none" stroke-linecap="round"></path><path d="M 268.500,184.000 C 275.451,180.597 275.165,180.297 281.500,176.000" stroke-width="2.897" stroke="black" fill="none" stroke-linecap="round"></path><path d="M 281.500,176.000 C 288.402,171.287 287.951,171.097 293.500,165.000" stroke-width="2.820" stroke="black" fill="none" stroke-linecap="round"></path><path d="M 293.500,165.000 C 303.677,152.604 303.402,152.787 311.500,139.000" stroke-width="2.885" stroke="black" fill="none" stroke-linecap="round"></path><path d="M 311.500,139.000 C 314.236,132.074 315.177,132.604 316.500,125.000" stroke-width="2.907" stroke="black" fill="none" stroke-linecap="round"></path><path d="M 316.500,125.000 C 318.799,119.607 318.236,119.574 319.500,114.000" stroke-width="3.214" stroke="black" fill="none" stroke-linecap="round"></path><path d="M 319.500,114.000 C 319.500,107.500 320.299,107.607 319.500,101.000" stroke-width="3.195" stroke="black" fill="none" stroke-linecap="round"></path><path d="M 319.500,101.000 C 320.270,95.387 319.500,95.500 319.500,90.000" stroke-width="3.291" stroke="black" fill="none" stroke-linecap="round"></path><path d="M 319.500,90.000 C 318.723,84.669 318.770,84.887 316.500,80.000" stroke-width="3.424" stroke="black" fill="none" stroke-linecap="round"></path><path d="M 316.500,80.000 C 313.115,74.423 313.723,74.169 309.500,69.000" stroke-width="3.190" stroke="black" fill="none" stroke-linecap="round"></path><path d="M 309.500,69.000 C 306.438,63.633 306.115,63.923 302.500,59.000" stroke-width="3.248" stroke="black" fill="none" stroke-linecap="round"></path><path d="M 302.500,59.000 C 297.737,53.738 297.938,53.633 292.500,49.000" stroke-width="3.122" stroke="black" fill="none" stroke-linecap="round"></path><path d="M 292.500,49.000 C 287.478,43.736 287.237,44.238 281.500,40.000" stroke-width="3.188" stroke="black" fill="none" stroke-linecap="round"></path><path d="M 281.500,40.000 C 275.206,36.414 275.478,36.236 268.500,34.000" stroke-width="3.031" stroke="black" fill="none" stroke-linecap="round"></path><path d="M 268.500,34.000 C 262.598,31.704 262.706,31.914 256.500,31.000" stroke-width="3.185" stroke="black" fill="none" stroke-linecap="round"></path><path d="M 256.500,31.000 C 249.450,30.444 249.598,30.204 242.500,31.000" stroke-width="3.053" stroke="black" fill="none" stroke-linecap="round"></path><path d="M 242.500,31.000 C 236.687,31.114 236.950,31.444 231.500,33.000" stroke-width="3.461" stroke="black" fill="none" stroke-linecap="round"></path><path d="M 231.500,33.000 C 226.043,36.083 225.687,35.114 220.500,39.000" stroke-width="3.302" stroke="black" fill="none" stroke-linecap="round"></path><path d="M 154.500,115.000 C 156.766,117.246 156.000,117.500 157.500,120.000" stroke-width="5.184" stroke="black" fill="none" stroke-linecap="round"></path><path d="M 157.500,120.000 C 157.877,125.016 158.766,124.746 158.500,130.000" stroke-width="4.607" stroke="black" fill="none" stroke-linecap="round"></path><path d="M 158.500,130.000 C 158.765,133.058 158.877,133.016 159.500,136.000" stroke-width="4.272" stroke="black" fill="none" stroke-linecap="round"></path><path d="M 159.500,136.000 C 160.420,139.029 160.265,139.058 161.500,142.000" stroke-width="4.150" stroke="black" fill="none" stroke-linecap="round"></path><path d="M 161.500,142.000 C 162.300,144.599 162.420,144.529 163.500,147.000" stroke-width="4.234" stroke="black" fill="none" stroke-linecap="round"></path><path d="M 163.500,147.000 C 164.269,150.327 164.800,149.599 166.500,152.000" stroke-width="4.202" stroke="black" fill="none" stroke-linecap="round"></path><path d="M 166.500,152.000 C 170.888,154.353 170.269,154.827 175.500,156.000" stroke-width="4.292" stroke="black" fill="none" stroke-linecap="round"></path><path d="M 175.500,156.000 C 177.970,156.805 177.888,156.853 180.500,157.000" stroke-width="4.317" stroke="black" fill="none" stroke-linecap="round"></path><path d="M 180.500,157.000 C 184.500,157.000 184.470,157.305 188.500,157.000" stroke-width="3.904" stroke="black" fill="none" stroke-linecap="round"></path><path d="M 188.500,157.000 C 192.088,157.602 192.000,157.000 195.500,157.000" stroke-width="3.910" stroke="black" fill="none" stroke-linecap="round"></path><path d="M 195.500,157.000 C 200.441,155.265 200.588,156.102 205.500,154.000" stroke-width="3.541" stroke="black" fill="none" stroke-linecap="round"></path><path d="M 205.500,154.000 C 210.730,153.670 210.441,152.765 215.500,152.000" stroke-width="3.524" stroke="black" fill="none" stroke-linecap="round"></path><path d="M 215.500,152.000 C 220.554,149.603 220.730,150.170 225.500,147.000" stroke-width="3.372" stroke="black" fill="none" stroke-linecap="round"></path><path d="M 225.500,147.000 C 230.450,145.097 230.054,144.603 234.500,142.000" stroke-width="3.407" stroke="black" fill="none" stroke-linecap="round"></path><path d="M 234.500,142.000 C 238.633,138.125 238.950,138.597 242.500,134.000" stroke-width="3.328" stroke="black" fill="none" stroke-linecap="round"></path><path d="M 242.500,134.000 C 246.184,130.145 246.133,130.125 249.500,126.000" stroke-width="3.767" stroke="black" fill="none" stroke-linecap="round"></path><path d="M 249.500,126.000 C 252.052,122.536 252.184,122.645 254.500,119.000" stroke-width="3.690" stroke="black" fill="none" stroke-linecap="round"></path><path d="M 254.500,119.000 C 256.550,116.033 256.552,116.036 258.500,113.000" stroke-width="3.868" stroke="black" fill="none" stroke-linecap="round"></path><path d="M 205.500,68.000 C 203.314,72.389 204.000,72.500 202.500,77.000" stroke-width="4.683" stroke="black" fill="none" stroke-linecap="round"></path><path d="M 202.500,77.000 C 202.765,81.019 201.814,80.889 202.500,85.000" stroke-width="4.573" stroke="black" fill="none" stroke-linecap="round"></path><path d="M 250.500,66.000 C 248.324,69.878 249.000,70.000 247.500,74.000" stroke-width="4.909" stroke="black" fill="none" stroke-linecap="round"></path><path d="M 247.500,74.000 C 248.429,77.747 246.824,77.378 247.500,81.000" stroke-width="4.274" stroke="black" fill="none" stroke-linecap="round"></path><path d="M 247.500,81.000 C 245.410,84.452 246.429,84.747 243.500,88.000" stroke-width="3.994" stroke="black" fill="none" stroke-linecap="round"></path></svg>