<svg xmlns="http://www.w3.org/2000/svg" xmlns:xlink="http://www.w3.org/1999/xlink" viewBox="0 0 692 576" width="692" height="576"><path d="M 407.000,147.000 C 402.215,143.987 402.000,144.500 397.000,142.000" stroke-width="5.184" stroke="black" fill="none" stroke-linecap="round"></path><path d="M 397.000,142.000 C 381.179,135.884 381.215,135.987 365.000,131.000" stroke-width="2.245" stroke="black" fill="none" stroke-linecap="round"></path><path d="M 365.000,131.000 C 354.592,128.055 354.679,127.884 344.000,126.000" stroke-width="2.455" stroke="black" fill="none" stroke-linecap="round"></path><path d="M 344.000,126.000 C 321.122,120.964 321.092,121.555 298.000,118.000" stroke-width="1.640" stroke="black" fill="none" stroke-linecap="round"></path><path d="M 298.000,118.000 C 282.004,116.308 282.122,115.964 266.000,116.000" stroke-width="1.796" stroke="black" fill="none" stroke-linecap="round"></path><path d="M 266.000,116.000 C 255.767,115.047 256.004,115.808 246.000,117.000" stroke-width="2.283" stroke="black" fill="none" stroke-linecap="round"></path><path d="M 246.000,117.000 C 225.637,121.454 225.767,121.047 206.000,128.000" stroke-width="1.729" stroke="black" fill="none" stroke-linecap="round"></path><path d="M 206.000,128.000 C 192.787,133.052 192.637,132.454 180.000,139.000" stroke-width="1.982" stroke="black" fill="none" stroke-linecap="round"></path><path d="M 180.000,139.000 C 170.255,141.996 171.287,143.052 163.000,148.000" stroke-width="2.400" stroke="black" fill="none" stroke-linecap="round"></path><path d="M 163.000,148.000 C 156.309,155.036 155.755,153.996 151.000,163.000" stroke-width="2.564" stroke="black" fill="none" stroke-linecap="round"></path><path d="M 151.000,163.000 C 144.634,171.437 145.309,171.536 141.000,181.000" stroke-width="2.425" stroke="black" fill="none" stroke-linecap="round"></path><path d="M 141.000,181.000 C 136.282,196.944 135.134,196.437 132.000,213.000" stroke-width="2.035" stroke="black" fill="none" stroke-linecap="round"></path><path d="M 132.000,213.000 C 129.763,219.387 130.282,219.444 129.000,226.000" stroke-width="2.746" stroke="black" fill="none" stroke-linecap="round"></path><path d="M 129.000,226.000 C 127.219,245.489 126.763,245.387 126.000,265.000" stroke-width="1.859" stroke="black" fill="none" stroke-linecap="round"></path><path d="M 126.000,265.000 C 125.561,269.526 125.719,269.489 126.000,274.000" stroke-width="2.843" stroke="black" fill="none" stroke-linecap="round"></path><path d="M 126.000,274.000 C 126.324,295.627 128.061,295.026 131.000,316.000" stroke-width="1.853" stroke="black" fill="none" stroke-linecap="round"></path><path d="M 131.000,316.000 C 134.051,326.426 133.324,326.127 140.000,335.000" stroke-width="2.223" stroke="black" fill="none" stroke-linecap="round"></path><path d="M 140.000,335.000 C 150.049,353.637 151.051,350.926 165.000,365.000" stroke-width="1.834" stroke="black" fill="none" stroke-linecap="round"></path><path d="M 165.000,365.000 C 177.235,370.031 175.049,372.637 190.000,373.000" stroke-width="2.083" stroke="black" fill="none" stroke-linecap="round"></path><path d="M 190.000,373.000 C 220.201,382.332 220.235,380.031 251.000,385.000" stroke-width="1.382" stroke="black" fill="none" stroke-linecap="round"></path><path d="M 251.000,385.000 C 284.246,386.899 283.701,387.832 317.000,384.000" stroke-width="1.213" stroke="black" fill="none" stroke-linecap="round"></path><path d="M 317.000,384.000 C 340.567,379.815 340.746,381.899 364.000,375.000" stroke-width="1.344" stroke="black" fill="none" stroke-linecap="round"></path><path d="M 364.000,375.000 C 377.179,372.663 377.067,372.315 390.000,369.000" stroke-width="1.842" stroke="black" fill="none" stroke-linecap="round"></path><path d="M 390.000,369.000 C 419.394,361.096 419.179,360.663 448.000,351.000" stroke-width="1.316" stroke="black" fill="none" stroke-linecap="round"></path><path d="M 448.000,351.000 C 469.995,341.988 470.394,343.096 492.000,333.000" stroke-width="1.468" stroke="black" fill="none" stroke-linecap="round"></path><path d="M 492.000,333.000 C 505.491,327.477 505.495,327.488 519.000,322.000" stroke-width="1.844" stroke="black" fill="none" stroke-linecap="round"></path><path d="M 519.000,322.000 C 524.208,320.396 523.991,319.977 529.000,318.000" stroke-width="2.696" stroke="black" fill="none" stroke-linecap="round"></path><path d="M 529.000,318.000 C 533.399,317.095 532.208,316.396 535.000,314.000" stroke-width="3.427" stroke="black" fill="none" stroke-linecap="round"></path><path d="M 535.000,314.000 C 544.310,301.881 540.899,302.595 544.000,289.000" stroke-width="2.460" stroke="black" fill="none" stroke-linecap="round"></path><path d="M 544.000,289.000 C 542.004,258.655 543.310,260.381 533.000,231.000" stroke-width="1.417" stroke="black" fill="none" stroke-linecap="round"></path><path d="M 533.000,231.000 C 524.704,216.872 528.004,215.655 516.000,203.000" stroke-width="1.736" stroke="black" fill="none" stroke-linecap="round"></path><path d="M 516.000,203.000 C 508.482,191.511 508.704,191.372 501.000,180.000" stroke-width="2.007" stroke="black" fill="none" stroke-linecap="round"></path><path d="M 501.000,180.000 C 495.489,171.507 495.482,171.511 490.000,163.000" stroke-width="2.369" stroke="black" fill="none" stroke-linecap="round"></path><path d="M 490.000,163.000 C 486.100,155.517 485.489,156.007 481.000,149.000" stroke-width="2.628" stroke="black" fill="none" stroke-linecap="round"></path><path d="M 481.000,149.000 C 477.018,143.860 477.100,144.017 472.000,140.000" stroke-width="2.962" stroke="black" fill="none" stroke-linecap="round"></path><path d="M 472.000,140.000 C 464.269,132.847 464.018,133.860 455.000,129.000" stroke-width="2.674" stroke="black" fill="none" stroke-linecap="round"></path><path d="M 455.000,129.000 C 437.369,121.674 437.769,121.847 419.000,118.000" stroke-width="1.952" stroke="black" fill="none" stroke-linecap="round"></path><path d="M 419.000,118.000 C 399.522,114.250 399.869,114.174 380.000,114.000" stroke-width="1.770" stroke="black" fill="none" stroke-linecap="round"></path><path d="M 380.000,114.000 C 360.492,115.402 360.522,113.750 341.000,117.000" stroke-width="1.672" stroke="black" fill="none" stroke-linecap="round"></path><path d="M 341.000,117.000 C 329.865,117.302 329.992,117.902 319.000,119.000" stroke-width="2.190" stroke="black" fill="none" stroke-linecap="round"></path><path d="M 319.000,119.000 C 313.937,120.307 313.865,119.802 309.000,122.000" stroke-width="2.960" stroke="black" fill="none" stroke-linecap="round"></path><path d="M 309.000,122.000 C 294.628,123.826 296.437,126.307 284.000,131.000" stroke-width="2.312" stroke="black" fill="none" stroke-linecap="round"></path><path d="M 284.000,131.000 C 276.118,139.715 274.628,137.326 269.000,149.000" stroke-width="2.349" stroke="black" fill="none" stroke-linecap="round"></path><path d="M 269.000,149.000 C 263.727,154.377 264.618,154.715 261.000,161.000" stroke-width="2.745" stroke="black" fill="none" stroke-linecap="round"></path><path d="M 261.000,161.000 C 254.380,180.462 253.227,179.877 248.000,200.000" stroke-width="1.870" stroke="black" fill="none" stroke-linecap="round"></path><path d="M 248.000,200.000 C 245.931,204.878 246.380,204.962 245.000,210.000" stroke-width="2.732" stroke="black" fill="none" stroke-linecap="round"></path><path d="M 245.000,210.000 C 243.125,221.465 242.931,221.378 242.000,233.000" stroke-width="2.534" stroke="black" fill="none" stroke-linecap="round"></path><path d="M 242.000,233.000 C 240.770,242.014 241.125,241.965 241.000,251.000" stroke-width="2.668" stroke="black" fill="none" stroke-linecap="round"></path><path d="M 241.000,251.000 C 241.377,261.614 241.270,261.514 243.000,272.000" stroke-width="2.494" stroke="black" fill="none" stroke-linecap="round"></path><path d="M 243.000,272.000 C 243.856,277.793 243.877,277.614 246.000,283.000" stroke-width="2.999" stroke="black" fill="none" stroke-linecap="round"></path><path d="M 246.000,283.000 C 247.101,287.343 247.356,286.293 250.000,289.000" stroke-width="3.564" stroke="black" fill="none" stroke-linecap="round"></path><path d="M 200.000,223.000 C 200.951,227.013 201.000,227.000 202.000,231.000" stroke-width="4.534" stroke="black" fill="none" stroke-linecap="round"></path><path d="M 202.000,231.000 C 203.264,236.574 203.451,236.513 205.000,242.000" stroke-width="3.649" stroke="black" fill="none" stroke-linecap="round"></path><path d="M 205.000,242.000 C 206.516,249.529 207.264,249.074 210.000,256.000" stroke-width="3.170" stroke="black" fill="none" stroke-linecap="round"></path><path d="M 210.000,256.000 C 214.792,261.799 213.516,262.529 219.000,268.000" stroke-width="3.040" stroke="black" fill="none" stroke-linecap="round"></path><path d="M 219.000,268.000 C 223.064,276.745 224.292,275.799 229.000,284.000" stroke-width="2.704" stroke="black" fill="none" stroke-linecap="round"></path><path d="M 229.000,284.000 C 236.431,294.122 236.564,293.245 246.000,301.000" stroke-width="2.431" stroke="black" fill="none" stroke-linecap="round"></path><path d="M 246.000,301.000 C 253.393,304.301 252.431,305.622 261.000,307.000" stroke-width="2.731" stroke="black" fill="none" stroke-linecap="round"></path><path d="M 261.000,307.000 C 268.787,310.598 268.893,309.801 277.000,312.000" stroke-width="2.742" stroke="black" fill="none" stroke-linecap="round"></path><path d="M 277.000,312.000 C 289.559,314.498 289.287,314.098 302.000,314.000" stroke-width="2.263" stroke="black" fill="none" stroke-linecap="round"></path><path d="M 302.000,314.000 C 314.549,312.264 314.559,313.498 327.000,310.000" stroke-width="2.203" stroke="black" fill="none" stroke-linecap="round"></path><path d="M 327.000,310.000 C 336.737,308.819 336.549,308.264 346.000,306.000" stroke-width="2.429" stroke="black" fill="none" stroke-linecap="round"></path><path d="M 346.000,306.000 C 359.780,301.619 359.737,301.819 373.000,296.000" stroke-width="2.119" stroke="black" fill="none" stroke-linecap="round"></path><path d="M 373.000,296.000 C 379.844,293.001 379.780,293.119 386.000,289.000" stroke-width="2.626" stroke="black" fill="none" stroke-linecap="round"></path><path d="M 386.000,289.000 C 389.225,285.626 389.844,286.501 393.000,283.000" stroke-width="3.222" stroke="black" fill="none" stroke-linecap="round"></path><path d="M 393.000,283.000 C 400.724,277.456 400.725,277.626 409.000,273.000" stroke-width="2.745" stroke="black" fill="none" stroke-linecap="round"></path><path d="M 409.000,273.000 C 414.000,271.000 413.724,270.456 419.000,269.000" stroke-width="3.199" stroke="black" fill="none" stroke-linecap="round"></path><path d="M 419.000,269.000 C 421.716,268.370 421.500,268.000 424.000,267.000" stroke-width="3.881" stroke="black" fill="none" stroke-linecap="round"></path><path d="M 424.000,267.000 C 426.635,265.150 426.716,265.370 429.000,263.000" stroke-width="4.022" stroke="black" fill="none" stroke-linecap="round"></path><path d="M 429.000,263.000 C 432.487,260.351 432.135,260.150 435.000,257.000" stroke-width="3.829" stroke="black" fill="none" stroke-linecap="round"></path><path d="M 435.000,257.000 C 437.149,254.192 436.987,254.351 438.000,251.000" stroke-width="3.922" stroke="black" fill="none" stroke-linecap="round"></path><path d="M 438.000,251.000 C 439.000,246.486 439.149,246.692 439.000,242.000" stroke-width="3.742" stroke="black" fill="none" stroke-linecap="round"></path><path d="M 350.000,214.000 C 346.746,216.983 346.500,216.500 343.000,219.000" stroke-width="5.009" stroke="black" fill="none" stroke-linecap="round"></path><path d="M 343.000,219.000 C 340.084,220.794 340.246,220.483 337.000,221.000" stroke-width="4.282" stroke="black" fill="none" stroke-linecap="round"></path><path d="M 337.000,221.000 C 331.418,222.278 332.584,221.294 328.000,220.000" stroke-width="4.353" stroke="black" fill="none" stroke-linecap="round"></path><path d="M 328.000,220.000 C 324.116,215.838 323.918,217.278 322.000,211.000" stroke-width="3.604" stroke="black" fill="none" stroke-linecap="round"></path><path d="M 322.000,211.000 C 320.736,207.431 320.616,207.838 321.000,204.000" stroke-width="3.854" stroke="black" fill="none" stroke-linecap="round"></path><path d="M 321.000,204.000 C 321.595,200.809 321.236,200.931 323.000,198.000" stroke-width="3.925" stroke="black" fill="none" stroke-linecap="round"></path><path d="M 323.000,198.000 C 328.000,193.183 325.095,193.809 328.000,190.000" stroke-width="4.210" stroke="black" fill="none" stroke-linecap="round"></path><path d="M 328.000,190.000 C 323.188,189.879 328.000,188.183 323.000,188.000" stroke-width="4.961" stroke="black" fill="none" stroke-linecap="round"></path><path d="M 323.000,188.000 C 323.686,182.485 322.688,184.879 327.000,180.000" stroke-width="4.956" stroke="black" fill="none" stroke-linecap="round"></path><path d="M 327.000,180.000 C 332.896,177.357 331.686,176.485 339.000,176.000" stroke-width="3.529" stroke="black" fill="none" stroke-linecap="round"></path><path d="M 339.000,176.000 C 344.862,173.937 341.896,175.357 345.000,176.000" stroke-width="4.457" stroke="black" fill="none" stroke-linecap="round"></path><path d="M 345.000,176.000 C 343.132,183.797 345.362,181.437 340.000,191.000" stroke-width="4.006" stroke="black" fill="none" stroke-linecap="round"></path><path d="M 340.000,191.000 C 337.550,195.033 338.132,195.297 335.000,199.000" stroke-width="3.726" stroke="black" fill="none" stroke-linecap="round"></path><path d="M 335.000,199.000 C 331.879,204.707 333.050,202.033 331.000,205.000" stroke-width="4.479" stroke="black" fill="none" stroke-linecap="round"></path><path d="M 331.000,205.000 C 332.350,199.301 330.379,205.207 332.000,200.000" stroke-width="4.932" stroke="black" fill="none" stroke-linecap="round"></path><path d="M 332.000,200.000 C 331.774,205.672 331.350,201.301 329.000,209.000" stroke-width="5.017" stroke="black" fill="none" stroke-linecap="round"></path><path d="M 329.000,209.000 C 324.398,213.308 326.774,211.672 322.000,212.000" stroke-width="4.107" stroke="black" fill="none" stroke-linecap="round"></path><path d="M 322.000,212.000 C 317.766,207.449 318.898,210.308 318.000,203.000" stroke-width="4.262" stroke="black" fill="none" stroke-linecap="round"></path><path d="M 318.000,203.000 C 319.630,197.333 318.266,197.949 323.000,193.000" stroke-width="3.477" stroke="black" fill="none" stroke-linecap="round"></path><path d="M 323.000,193.000 C 326.994,187.670 326.630,188.333 332.000,185.000" stroke-width="3.883" stroke="black" fill="none" stroke-linecap="round"></path><path d="M 332.000,185.000 C 336.262,183.510 334.494,183.670 338.000,185.000" stroke-width="4.458" stroke="black" fill="none" stroke-linecap="round"></path><path d="M 338.000,185.000 C 339.656,188.112 339.762,186.510 339.000,191.000" stroke-width="4.232" stroke="black" fill="none" stroke-linecap="round"></path><path d="M 339.000,191.000 C 336.775,199.451 337.156,199.112 333.000,207.000" stroke-width="3.121" stroke="black" fill="none" stroke-linecap="round"></path><path d="M 333.000,207.000 C 330.855,210.383 331.275,210.451 328.000,213.000" stroke-width="3.555" stroke="black" fill="none" stroke-linecap="round"></path><path d="M 328.000,213.000 C 320.329,219.342 324.855,215.883 321.000,218.000" stroke-width="4.127" stroke="black" fill="none" stroke-linecap="round"></path><path d="M 321.000,218.000 C 326.173,211.170 322.329,215.342 332.000,205.000" stroke-width="4.175" stroke="black" fill="none" stroke-linecap="round"></path><path d="M 332.000,205.000 C 336.895,199.724 334.673,202.170 338.000,200.000" stroke-width="3.945" stroke="black" fill="none" stroke-linecap="round"></path><path d="M 338.000,200.000 C 335.170,204.616 338.895,200.224 336.000,206.000" stroke-width="4.760" stroke="black" fill="none" stroke-linecap="round"></path></svg>