<svg xmlns="http://www.w3.org/2000/svg" xmlns:xlink="http://www.w3.org/1999/xlink" viewBox="0 0 453 236" width="453" height="236"><path d="M 142.500,130.000 C 139.588,128.287 139.500,128.500 136.500,127.000" stroke-width="4.671" stroke="black" fill="none" stroke-linecap="round"></path><path d="M 136.500,127.000 C 133.399,126.243 133.588,125.787 130.500,125.000" stroke-width="4.763" stroke="black" fill="none" stroke-linecap="round"></path><path d="M 130.500,125.000 C 126.557,122.873 126.399,123.243 122.500,121.000" stroke-width="4.500" stroke="black" fill="none" stroke-linecap="round"></path><path d="M 122.500,121.000 C 119.903,120.201 120.057,119.873 117.500,119.000" stroke-width="4.338" stroke="black" fill="none" stroke-linecap="round"></path><path d="M 117.500,119.000 C 113.931,117.111 113.903,117.201 110.500,115.000" stroke-width="4.464" stroke="black" fill="none" stroke-linecap="round"></path><path d="M 110.500,115.000 C 107.148,113.384 107.431,113.111 104.500,111.000" stroke-width="4.552" stroke="black" fill="none" stroke-linecap="round"></path><path d="M 104.500,111.000 C 100.030,108.116 102.148,108.884 100.500,106.000" stroke-width="4.646" stroke="black" fill="none" stroke-linecap="round"></path><path d="M 100.500,106.000 C 103.296,103.602 101.030,103.616 106.500,102.000" stroke-width="5.145" stroke="black" fill="none" stroke-linecap="round"></path><path d="M 106.500,102.000 C 110.552,100.626 110.296,100.102 114.500,99.000" stroke-width="4.135" stroke="black" fill="none" stroke-linecap="round"></path><path d="M 114.500,99.000 C 119.000,97.000 119.052,97.126 123.500,95.000" stroke-width="3.655" stroke="black" fill="none" stroke-linecap="round"></path><path d="M 123.500,95.000 C 128.099,93.200 128.000,93.000 132.500,91.000" stroke-width="3.532" stroke="black" fill="none" stroke-linecap="round"></path><path d="M 132.500,91.000 C 138.062,88.108 138.099,88.200 143.500,85.000" stroke-width="3.259" stroke="black" fill="none" stroke-linecap="round"></path><path d="M 143.500,85.000 C 148.338,81.693 148.562,82.108 153.500,79.000" stroke-width="3.255" stroke="black" fill="none" stroke-linecap="round"></path><path d="M 153.500,79.000 C 160.162,76.307 159.838,75.693 166.500,73.000" stroke-width="3.111" stroke="black" fill="none" stroke-linecap="round"></path><path d="M 166.500,73.000 C 171.395,69.808 171.662,70.307 176.500,67.000" stroke-width="3.265" stroke="black" fill="none" stroke-linecap="round"></path><path d="M 176.500,67.000 C 181.500,64.500 181.395,64.308 186.500,62.000" stroke-width="3.297" stroke="black" fill="none" stroke-linecap="round"></path><path d="M 186.500,62.000 C 191.420,59.328 191.500,59.500 196.500,57.000" stroke-width="3.901" stroke="black" fill="none" stroke-linecap="round"></path><path d="M 196.500,57.000 C 203.434,53.826 203.420,53.828 210.500,51.000" stroke-width="3.196" stroke="black" fill="none" stroke-linecap="round"></path><path d="M 210.500,51.000 C 217.118,47.764 213.434,49.826 216.500,49.000" stroke-width="4.142" stroke="black" fill="none" stroke-linecap="round"></path><path d="M 216.500,49.000 C 211.631,54.139 215.118,51.764 206.500,59.000" stroke-width="4.465" stroke="black" fill="none" stroke-linecap="round"></path><path d="M 206.500,59.000 C 201.975,62.972 202.131,63.139 197.500,67.000" stroke-width="3.638" stroke="black" fill="none" stroke-linecap="round"></path><path d="M 197.500,67.000 C 191.881,71.875 191.975,71.972 186.500,77.000" stroke-width="3.100" stroke="black" fill="none" stroke-linecap="round"></path><path d="M 186.500,77.000 C 181.609,82.113 181.381,81.875 176.500,87.000" stroke-width="3.079" stroke="black" fill="none" stroke-linecap="round"></path><path d="M 176.500,87.000 C 169.880,92.875 170.109,93.113 163.500,99.000" stroke-width="2.846" stroke="black" fill="none" stroke-linecap="round"></path><path d="M 163.500,99.000 C 157.739,105.260 157.380,104.875 151.500,111.000" stroke-width="2.764" stroke="black" fill="none" stroke-linecap="round"></path><path d="M 151.500,111.000 C 145.215,116.777 145.239,116.760 138.500,122.000" stroke-width="2.796" stroke="black" fill="none" stroke-linecap="round"></path><path d="M 138.500,122.000 C 131.599,127.143 131.715,127.277 124.500,132.000" stroke-width="2.736" stroke="black" fill="none" stroke-linecap="round"></path><path d="M 124.500,132.000 C 112.649,140.238 112.599,140.143 100.500,148.000" stroke-width="2.944" stroke="black" fill="none" stroke-linecap="round"></path><path d="M 100.500,148.000 C 94.500,151.500 94.649,151.738 88.500,155.000" stroke-width="3.048" stroke="black" fill="none" stroke-linecap="round"></path><path d="M 88.500,155.000 C 82.456,158.427 82.500,158.500 76.500,162.000" stroke-width="3.022" stroke="black" fill="none" stroke-linecap="round"></path><path d="M 76.500,162.000 C 72.544,164.574 72.456,164.427 68.500,167.000" stroke-width="3.416" stroke="black" fill="none" stroke-linecap="round"></path><path d="M 68.500,167.000 C 65.143,169.319 65.044,169.074 61.500,171.000" stroke-width="3.686" stroke="black" fill="none" stroke-linecap="round"></path><path d="M 61.500,171.000 C 58.471,171.920 58.643,172.319 55.500,173.000" stroke-width="3.966" stroke="black" fill="none" stroke-linecap="round"></path><path d="M 55.500,173.000 C 53.115,174.598 52.971,173.920 50.500,175.000" stroke-width="4.175" stroke="black" fill="none" stroke-linecap="round"></path><path d="M 50.500,175.000 C 46.342,175.768 46.615,175.598 42.500,175.000" stroke-width="4.397" stroke="black" fill="none" stroke-linecap="round"></path><path d="M 42.500,175.000 C 38.158,174.393 38.842,174.268 35.500,172.000" stroke-width="4.750" stroke="black" fill="none" stroke-linecap="round"></path><path d="M 35.500,172.000 C 32.698,169.174 33.158,169.893 32.500,166.000" stroke-width="4.886" stroke="black" fill="none" stroke-linecap="round"></path><path d="M 32.500,166.000 C 32.518,160.530 32.198,161.174 34.500,156.000" stroke-width="4.481" stroke="black" fill="none" stroke-linecap="round"></path><path d="M 34.500,156.000 C 36.864,152.876 36.018,152.530 39.500,150.000" stroke-width="3.966" stroke="black" fill="none" stroke-linecap="round"></path><path d="M 39.500,150.000 C 42.300,146.773 42.364,146.876 45.500,144.000" stroke-width="3.758" stroke="black" fill="none" stroke-linecap="round"></path><path d="M 45.500,144.000 C 49.671,139.951 49.800,140.273 54.500,137.000" stroke-width="3.414" stroke="black" fill="none" stroke-linecap="round"></path><path d="M 54.500,137.000 C 58.888,134.699 58.671,134.451 63.500,133.000" stroke-width="3.461" stroke="black" fill="none" stroke-linecap="round"></path><path d="M 63.500,133.000 C 68.523,131.572 68.388,131.199 73.500,130.000" stroke-width="3.478" stroke="black" fill="none" stroke-linecap="round"></path><path d="M 73.500,130.000 C 77.887,127.971 78.023,128.572 82.500,127.000" stroke-width="3.515" stroke="black" fill="none" stroke-linecap="round"></path><path d="M 82.500,127.000 C 87.537,126.745 87.387,125.971 92.500,126.000" stroke-width="3.529" stroke="black" fill="none" stroke-linecap="round"></path><path d="M 92.500,126.000 C 97.459,124.720 97.537,125.245 102.500,124.000" stroke-width="3.463" stroke="black" fill="none" stroke-linecap="round"></path><path d="M 102.500,124.000 C 108.041,123.780 107.959,123.220 113.500,123.000" stroke-width="3.425" stroke="black" fill="none" stroke-linecap="round"></path><path d="M 113.500,123.000 C 118.463,121.755 118.541,122.280 123.500,121.000" stroke-width="3.488" stroke="black" fill="none" stroke-linecap="round"></path><path d="M 123.500,121.000 C 128.496,120.455 128.463,120.255 133.500,120.000" stroke-width="3.465" stroke="black" fill="none" stroke-linecap="round"></path><path d="M 133.500,120.000 C 139.544,119.812 139.496,119.455 145.500,119.000" stroke-width="3.282" stroke="black" fill="none" stroke-linecap="round"></path><path d="M 145.500,119.000 C 150.463,117.755 150.544,118.312 155.500,117.000" stroke-width="3.492" stroke="black" fill="none" stroke-linecap="round"></path><path d="M 155.500,117.000 C 160.636,117.081 160.463,116.255 165.500,116.000" stroke-width="3.522" stroke="black" fill="none" stroke-linecap="round"></path><path d="M 165.500,116.000 C 169.411,114.168 169.636,115.081 173.500,113.000" stroke-width="3.622" stroke="black" fill="none" stroke-linecap="round"></path><path d="M 173.500,113.000 C 176.583,112.796 176.411,112.168 179.500,112.000" stroke-width="3.972" stroke="black" fill="none" stroke-linecap="round"></path><path d="M 179.500,112.000 C 182.000,111.000 182.083,111.296 184.500,110.000" stroke-width="4.177" stroke="black" fill="none" stroke-linecap="round"></path><path d="M 184.500,110.000 C 190.103,108.402 187.000,109.000 189.500,108.000" stroke-width="4.630" stroke="black" fill="none" stroke-linecap="round"></path><path d="M 189.500,108.000 C 185.368,107.275 188.603,107.402 181.500,108.000" stroke-width="5.053" stroke="black" fill="none" stroke-linecap="round"></path><path d="M 181.500,108.000 C 177.359,109.199 177.368,108.775 173.500,111.000" stroke-width="4.629" stroke="black" fill="none" stroke-linecap="round"></path><path d="M 173.500,111.000 C 169.931,112.889 169.859,112.699 166.500,115.000" stroke-width="4.571" stroke="black" fill="none" stroke-linecap="round"></path><path d="M 166.500,115.000 C 160.765,116.881 163.431,116.889 160.500,119.000" stroke-width="4.585" stroke="black" fill="none" stroke-linecap="round"></path><path d="M 160.500,119.000 C 162.610,122.111 160.265,120.881 165.500,123.000" stroke-width="5.107" stroke="black" fill="none" stroke-linecap="round"></path><path d="M 165.500,123.000 C 169.500,123.000 169.110,124.111 173.500,123.000" stroke-width="4.924" stroke="black" fill="none" stroke-linecap="round"></path><path d="M 173.500,123.000 C 179.270,124.148 176.500,123.000 179.500,123.000" stroke-width="4.977" stroke="black" fill="none" stroke-linecap="round"></path><path d="M 179.500,123.000 C 177.405,119.743 179.770,121.648 174.500,118.000" stroke-width="5.289" stroke="black" fill="none" stroke-linecap="round"></path><path d="M 174.500,118.000 C 170.230,116.027 172.405,116.743 169.500,117.000" stroke-width="5.158" stroke="black" fill="none" stroke-linecap="round"></path><path d="M 169.500,117.000 C 169.488,120.994 168.730,118.027 171.500,122.000" stroke-width="5.392" stroke="black" fill="none" stroke-linecap="round"></path><path d="M 171.500,122.000 C 175.500,122.000 174.488,123.494 179.500,122.000" stroke-width="4.190" stroke="black" fill="none" stroke-linecap="round"></path><path d="M 179.500,122.000 C 183.000,122.000 183.000,122.000 186.500,122.000" stroke-width="3.992" stroke="black" fill="none" stroke-linecap="round"></path><path d="M 186.500,122.000 C 190.018,122.249 190.000,122.000 193.500,122.000" stroke-width="3.936" stroke="black" fill="none" stroke-linecap="round"></path><path d="M 193.500,122.000 C 197.051,121.739 197.018,121.749 200.500,121.000" stroke-width="3.962" stroke="black" fill="none" stroke-linecap="round"></path><path d="M 200.500,121.000 C 204.079,120.222 204.051,120.239 207.500,119.000" stroke-width="4.143" stroke="black" fill="none" stroke-linecap="round"></path><path d="M 207.500,119.000 C 211.100,117.700 211.079,117.722 214.500,116.000" stroke-width="3.905" stroke="black" fill="none" stroke-linecap="round"></path><path d="M 214.500,116.000 C 218.000,114.000 218.100,114.200 221.500,112.000" stroke-width="3.788" stroke="black" fill="none" stroke-linecap="round"></path><path d="M 221.500,112.000 C 225.084,110.135 225.000,110.000 228.500,108.000" stroke-width="3.807" stroke="black" fill="none" stroke-linecap="round"></path><path d="M 228.500,108.000 C 233.323,105.394 233.084,105.135 237.500,102.000" stroke-width="3.541" stroke="black" fill="none" stroke-linecap="round"></path><path d="M 237.500,102.000 C 241.000,98.500 241.323,98.894 244.500,95.000" stroke-width="3.551" stroke="black" fill="none" stroke-linecap="round"></path><path d="M 244.500,95.000 C 247.883,91.375 248.000,91.500 251.500,88.000" stroke-width="3.497" stroke="black" fill="none" stroke-linecap="round"></path><path d="M 251.500,88.000 C 255.753,84.747 255.383,84.375 259.500,81.000" stroke-width="3.472" stroke="black" fill="none" stroke-linecap="round"></path><path d="M 259.500,81.000 C 261.978,77.981 262.253,78.247 264.500,75.000" stroke-width="3.682" stroke="black" fill="none" stroke-linecap="round"></path><path d="M 264.500,75.000 C 267.655,71.621 267.478,71.481 270.500,68.000" stroke-width="3.602" stroke="black" fill="none" stroke-linecap="round"></path><path d="M 270.500,68.000 C 273.000,64.500 273.155,64.621 275.500,61.000" stroke-width="3.694" stroke="black" fill="none" stroke-linecap="round"></path><path d="M 275.500,61.000 C 278.116,57.576 278.000,57.500 280.500,54.000" stroke-width="3.723" stroke="black" fill="none" stroke-linecap="round"></path><path d="M 280.500,54.000 C 282.199,51.602 282.116,51.576 283.500,49.000" stroke-width="3.994" stroke="black" fill="none" stroke-linecap="round"></path><path d="M 283.500,49.000 C 288.132,43.224 285.199,45.602 286.500,42.000" stroke-width="4.381" stroke="black" fill="none" stroke-linecap="round"></path><path d="M 286.500,42.000 C 280.545,41.166 284.132,40.224 275.500,43.000" stroke-width="4.664" stroke="black" fill="none" stroke-linecap="round"></path><path d="M 275.500,43.000 C 269.763,46.172 269.545,45.166 264.500,50.000" stroke-width="3.519" stroke="black" fill="none" stroke-linecap="round"></path><path d="M 264.500,50.000 C 258.860,54.339 258.763,54.172 253.500,59.000" stroke-width="3.187" stroke="black" fill="none" stroke-linecap="round"></path><path d="M 253.500,59.000 C 247.490,64.489 247.360,64.339 241.500,70.000" stroke-width="3.020" stroke="black" fill="none" stroke-linecap="round"></path><path d="M 241.500,70.000 C 234.750,75.750 234.990,75.989 228.500,82.000" stroke-width="2.767" stroke="black" fill="none" stroke-linecap="round"></path><path d="M 228.500,82.000 C 222.839,87.860 222.750,87.750 217.500,94.000" stroke-width="2.782" stroke="black" fill="none" stroke-linecap="round"></path><path d="M 217.500,94.000 C 213.077,99.565 212.839,99.360 208.500,105.000" stroke-width="2.973" stroke="black" fill="none" stroke-linecap="round"></path><path d="M 208.500,105.000 C 204.722,108.787 205.077,109.065 201.500,113.000" stroke-width="3.299" stroke="black" fill="none" stroke-linecap="round"></path><path d="M 201.500,113.000 C 198.365,117.416 198.222,117.287 195.500,122.000" stroke-width="3.395" stroke="black" fill="none" stroke-linecap="round"></path><path d="M 195.500,122.000 C 193.574,125.544 193.365,125.416 191.500,129.000" stroke-width="3.629" stroke="black" fill="none" stroke-linecap="round"></path><path d="M 191.500,129.000 C 185.005,136.146 189.074,133.044 186.500,137.000" stroke-width="4.139" stroke="black" fill="none" stroke-linecap="round"></path><path d="M 186.500,137.000 C 192.661,135.389 188.505,138.146 198.500,133.000" stroke-width="4.627" stroke="black" fill="none" stroke-linecap="round"></path><path d="M 198.500,133.000 C 203.554,130.603 203.661,130.889 208.500,128.000" stroke-width="3.620" stroke="black" fill="none" stroke-linecap="round"></path><path d="M 208.500,128.000 C 212.951,125.408 213.054,125.603 217.500,123.000" stroke-width="3.480" stroke="black" fill="none" stroke-linecap="round"></path><path d="M 217.500,123.000 C 221.500,121.000 221.451,120.908 225.500,119.000" stroke-width="3.569" stroke="black" fill="none" stroke-linecap="round"></path><path d="M 225.500,119.000 C 228.412,117.287 228.500,117.500 231.500,116.000" stroke-width="3.923" stroke="black" fill="none" stroke-linecap="round"></path><path d="M 231.500,116.000 C 237.319,112.555 234.412,114.787 237.500,114.000" stroke-width="4.045" stroke="black" fill="none" stroke-linecap="round"></path><path d="M 237.500,114.000 C 235.403,119.249 237.819,116.555 232.500,124.000" stroke-width="4.643" stroke="black" fill="none" stroke-linecap="round"></path><path d="M 232.500,124.000 C 225.946,129.509 229.903,128.249 226.500,132.000" stroke-width="4.452" stroke="black" fill="none" stroke-linecap="round"></path><path d="M 226.500,132.000 C 230.750,133.750 226.946,134.009 234.500,133.000" stroke-width="4.830" stroke="black" fill="none" stroke-linecap="round"></path><path d="M 234.500,133.000 C 238.018,131.031 238.250,132.250 241.500,129.000" stroke-width="4.012" stroke="black" fill="none" stroke-linecap="round"></path><path d="M 241.500,129.000 C 244.000,127.500 244.018,127.531 246.500,126.000" stroke-width="4.134" stroke="black" fill="none" stroke-linecap="round"></path><path d="M 246.500,126.000 C 251.246,122.746 249.000,124.500 251.500,123.000" stroke-width="4.126" stroke="black" fill="none" stroke-linecap="round"></path><path d="M 251.500,123.000 C 246.539,126.039 251.746,123.246 247.500,127.000" stroke-width="4.922" stroke="black" fill="none" stroke-linecap="round"></path><path d="M 247.500,127.000 C 252.268,128.794 249.039,128.539 256.500,128.000" stroke-width="4.939" stroke="black" fill="none" stroke-linecap="round"></path><path d="M 256.500,128.000 C 260.000,126.000 260.268,127.294 263.500,124.000" stroke-width="4.034" stroke="black" fill="none" stroke-linecap="round"></path><path d="M 263.500,124.000 C 266.944,121.896 267.000,122.000 270.500,120.000" stroke-width="3.879" stroke="black" fill="none" stroke-linecap="round"></path><path d="M 270.500,120.000 C 279.150,116.000 274.444,117.896 278.500,116.000" stroke-width="4.246" stroke="black" fill="none" stroke-linecap="round"></path><path d="M 278.500,116.000 C 272.697,117.401 277.650,116.000 267.500,120.000" stroke-width="4.612" stroke="black" fill="none" stroke-linecap="round"></path><path d="M 267.500,120.000 C 262.897,122.859 262.697,122.401 258.500,126.000" stroke-width="3.784" stroke="black" fill="none" stroke-linecap="round"></path><path d="M 258.500,126.000 C 255.889,127.876 255.897,127.859 253.500,130.000" stroke-width="3.990" stroke="black" fill="none" stroke-linecap="round"></path><path d="M 253.500,130.000 C 251.223,131.784 251.389,131.876 249.500,134.000" stroke-width="4.149" stroke="black" fill="none" stroke-linecap="round"></path><path d="M 249.500,134.000 C 245.967,137.400 247.723,136.284 246.500,139.000" stroke-width="4.733" stroke="black" fill="none" stroke-linecap="round"></path><path d="M 246.500,139.000 C 249.028,140.309 246.967,140.400 251.500,140.000" stroke-width="4.981" stroke="black" fill="none" stroke-linecap="round"></path><path d="M 251.500,140.000 C 257.104,138.799 257.028,139.309 262.500,137.000" stroke-width="4.392" stroke="black" fill="none" stroke-linecap="round"></path><path d="M 262.500,137.000 C 266.142,135.778 266.104,135.799 269.500,134.000" stroke-width="4.024" stroke="black" fill="none" stroke-linecap="round"></path><path d="M 269.500,134.000 C 274.614,131.176 274.642,131.278 279.500,128.000" stroke-width="3.517" stroke="black" fill="none" stroke-linecap="round"></path><path d="M 279.500,128.000 C 284.565,124.589 284.614,124.676 289.500,121.000" stroke-width="3.343" stroke="black" fill="none" stroke-linecap="round"></path><path d="M 289.500,121.000 C 295.529,116.538 295.565,116.589 301.500,112.000" stroke-width="2.953" stroke="black" fill="none" stroke-linecap="round"></path><path d="M 301.500,112.000 C 308.166,107.203 308.029,107.038 314.500,102.000" stroke-width="2.828" stroke="black" fill="none" stroke-linecap="round"></path><path d="M 314.500,102.000 C 322.232,95.749 322.166,95.703 329.500,89.000" stroke-width="2.661" stroke="black" fill="none" stroke-linecap="round"></path><path d="M 329.500,89.000 C 336.125,82.620 336.232,82.749 342.500,76.000" stroke-width="2.630" stroke="black" fill="none" stroke-linecap="round"></path><path d="M 342.500,76.000 C 349.470,69.392 349.125,69.120 355.500,62.000" stroke-width="2.643" stroke="black" fill="none" stroke-linecap="round"></path><path d="M 355.500,62.000 C 364.680,50.127 364.970,50.392 373.500,38.000" stroke-width="2.848" stroke="black" fill="none" stroke-linecap="round"></path><path d="M 373.500,38.000 C 376.859,33.695 376.680,33.627 379.500,29.000" stroke-width="3.186" stroke="black" fill="none" stroke-linecap="round"></path><path d="M 379.500,29.000 C 381.463,25.630 381.359,25.695 382.500,22.000" stroke-width="3.645" stroke="black" fill="none" stroke-linecap="round"></path><path d="M 382.500,22.000 C 384.844,17.150 383.463,18.630 383.500,15.000" stroke-width="4.312" stroke="black" fill="none" stroke-linecap="round"></path><path d="M 383.500,15.000 C 380.364,13.427 382.344,13.150 377.500,14.000" stroke-width="4.594" stroke="black" fill="none" stroke-linecap="round"></path><path d="M 377.500,14.000 C 372.722,15.505 372.864,14.927 368.500,18.000" stroke-width="3.878" stroke="black" fill="none" stroke-linecap="round"></path><path d="M 368.500,18.000 C 361.416,21.788 361.722,22.005 355.500,27.000" stroke-width="3.922" stroke="black" fill="none" stroke-linecap="round"></path><path d="M 355.500,27.000 C 340.748,40.752 340.416,40.288 326.500,55.000" stroke-width="1.944" stroke="black" fill="none" stroke-linecap="round"></path><path d="M 326.500,55.000 C 319.347,62.363 319.248,62.252 312.500,70.000" stroke-width="2.331" stroke="black" fill="none" stroke-linecap="round"></path><path d="M 312.500,70.000 C 306.590,77.079 306.347,76.863 300.500,84.000" stroke-width="2.577" stroke="black" fill="none" stroke-linecap="round"></path><path d="M 300.500,84.000 C 295.618,89.613 295.590,89.579 290.500,95.000" stroke-width="2.860" stroke="black" fill="none" stroke-linecap="round"></path><path d="M 290.500,95.000 C 285.677,99.226 286.118,99.613 281.500,104.000" stroke-width="3.101" stroke="black" fill="none" stroke-linecap="round"></path><path d="M 281.500,104.000 C 279.000,107.500 278.677,107.226 276.500,111.000" stroke-width="3.519" stroke="black" fill="none" stroke-linecap="round"></path><path d="M 276.500,111.000 C 272.756,114.233 274.000,114.500 271.500,118.000" stroke-width="4.130" stroke="black" fill="none" stroke-linecap="round"></path><path d="M 271.500,118.000 C 272.270,120.473 270.756,120.233 272.500,123.000" stroke-width="4.983" stroke="black" fill="none" stroke-linecap="round"></path><path d="M 272.500,123.000 C 273.027,126.101 272.770,125.973 272.500,129.000" stroke-width="5.167" stroke="black" fill="none" stroke-linecap="round"></path><path d="M 272.500,129.000 C 269.437,133.362 272.027,131.601 270.500,134.000" stroke-width="5.195" stroke="black" fill="none" stroke-linecap="round"></path><path d="M 270.500,134.000 C 274.117,133.301 271.937,134.862 277.500,132.000" stroke-width="5.359" stroke="black" fill="none" stroke-linecap="round"></path><path d="M 277.500,132.000 C 280.591,130.662 280.617,130.801 283.500,129.000" stroke-width="4.357" stroke="black" fill="none" stroke-linecap="round"></path><path d="M 283.500,129.000 C 287.341,126.202 287.591,126.662 291.500,124.000" stroke-width="3.811" stroke="black" fill="none" stroke-linecap="round"></path><path d="M 291.500,124.000 C 295.851,121.550 295.841,121.702 300.500,120.000" stroke-width="3.575" stroke="black" fill="none" stroke-linecap="round"></path><path d="M 300.500,120.000 C 305.045,119.172 304.851,118.550 309.500,118.000" stroke-width="3.570" stroke="black" fill="none" stroke-linecap="round"></path><path d="M 309.500,118.000 C 314.455,116.328 314.545,116.672 319.500,115.000" stroke-width="3.452" stroke="black" fill="none" stroke-linecap="round"></path><path d="M 319.500,115.000 C 323.972,113.849 323.955,113.828 328.500,113.000" stroke-width="3.586" stroke="black" fill="none" stroke-linecap="round"></path><path d="M 328.500,113.000 C 331.984,112.270 331.972,112.349 335.500,112.000" stroke-width="3.848" stroke="black" fill="none" stroke-linecap="round"></path><path d="M 335.500,112.000 C 338.513,111.787 338.484,111.770 341.500,112.000" stroke-width="4.015" stroke="black" fill="none" stroke-linecap="round"></path><path d="M 341.500,112.000 C 346.743,111.162 345.513,112.287 349.500,113.000" stroke-width="4.389" stroke="black" fill="none" stroke-linecap="round"></path><path d="M 349.500,113.000 C 350.706,115.529 351.243,114.162 350.500,118.000" stroke-width="4.703" stroke="black" fill="none" stroke-linecap="round"></path><path d="M 350.500,118.000 C 350.458,122.063 350.206,121.529 348.500,125.000" stroke-width="4.084" stroke="black" fill="none" stroke-linecap="round"></path><path d="M 348.500,125.000 C 344.700,129.220 345.458,129.563 340.500,133.000" stroke-width="3.562" stroke="black" fill="none" stroke-linecap="round"></path><path d="M 340.500,133.000 C 334.742,138.319 334.700,138.220 328.500,143.000" stroke-width="3.029" stroke="black" fill="none" stroke-linecap="round"></path><path d="M 328.500,143.000 C 320.789,148.977 320.742,148.819 312.500,154.000" stroke-width="2.670" stroke="black" fill="none" stroke-linecap="round"></path><path d="M 312.500,154.000 C 304.146,158.800 304.289,158.977 295.500,163.000" stroke-width="2.588" stroke="black" fill="none" stroke-linecap="round"></path><path d="M 295.500,163.000 C 286.682,167.469 286.646,167.300 277.500,171.000" stroke-width="2.656" stroke="black" fill="none" stroke-linecap="round"></path><path d="M 277.500,171.000 C 267.148,175.029 267.182,174.969 256.500,178.000" stroke-width="2.442" stroke="black" fill="none" stroke-linecap="round"></path><path d="M 256.500,178.000 C 245.549,180.740 245.648,181.029 234.500,183.000" stroke-width="2.424" stroke="black" fill="none" stroke-linecap="round"></path><path d="M 234.500,183.000 C 223.586,185.768 223.549,185.240 212.500,187.000" stroke-width="2.428" stroke="black" fill="none" stroke-linecap="round"></path><path d="M 212.500,187.000 C 201.005,187.739 201.086,188.268 189.500,188.000" stroke-width="2.456" stroke="black" fill="none" stroke-linecap="round"></path><path d="M 189.500,188.000 C 178.975,188.511 179.005,188.239 168.500,188.000" stroke-width="2.439" stroke="black" fill="none" stroke-linecap="round"></path><path d="M 168.500,188.000 C 158.256,188.142 158.475,187.511 148.500,186.000" stroke-width="2.477" stroke="black" fill="none" stroke-linecap="round"></path><path d="M 148.500,186.000 C 137.914,182.738 137.756,183.642 127.500,179.000" stroke-width="2.654" stroke="black" fill="none" stroke-linecap="round"></path><path d="M 127.500,179.000 C 118.445,175.634 118.414,175.738 109.500,172.000" stroke-width="2.579" stroke="black" fill="none" stroke-linecap="round"></path><path d="M 109.500,172.000 C 102.161,169.608 102.445,169.134 95.500,166.000" stroke-width="2.784" stroke="black" fill="none" stroke-linecap="round"></path><path d="M 95.500,166.000 C 89.895,163.136 90.161,163.108 85.500,159.000" stroke-width="3.057" stroke="black" fill="none" stroke-linecap="round"></path><path d="M 85.500,159.000 C 81.653,154.729 81.395,155.136 78.500,150.000" stroke-width="3.213" stroke="black" fill="none" stroke-linecap="round"></path><path d="M 78.500,150.000 C 74.709,145.835 75.653,145.729 73.500,141.000" stroke-width="3.357" stroke="black" fill="none" stroke-linecap="round"></path><path d="M 73.500,141.000 C 72.399,135.321 72.209,135.835 73.500,130.000" stroke-width="3.397" stroke="black" fill="none" stroke-linecap="round"></path><path d="M 73.500,130.000 C 74.958,120.175 75.399,120.821 79.500,112.000" stroke-width="2.844" stroke="black" fill="none" stroke-linecap="round"></path><path d="M 79.500,112.000 C 85.391,101.871 84.958,102.175 93.500,94.000" stroke-width="2.455" stroke="black" fill="none" stroke-linecap="round"></path><path d="M 93.500,94.000 C 102.988,85.710 102.391,85.371 113.500,79.000" stroke-width="2.267" stroke="black" fill="none" stroke-linecap="round"></path><path d="M 113.500,79.000 C 126.456,70.295 126.488,70.710 140.500,64.000" stroke-width="2.071" stroke="black" fill="none" stroke-linecap="round"></path><path d="M 140.500,64.000 C 155.733,57.577 155.456,57.295 171.500,53.000" stroke-width="1.960" stroke="black" fill="none" stroke-linecap="round"></path><path d="M 171.500,53.000 C 186.843,48.525 186.733,48.577 202.500,46.000" stroke-width="1.960" stroke="black" fill="none" stroke-linecap="round"></path><path d="M 202.500,46.000 C 217.963,43.740 217.843,43.525 233.500,43.000" stroke-width="1.978" stroke="black" fill="none" stroke-linecap="round"></path><path d="M 233.500,43.000 C 249.504,42.742 249.463,42.240 265.500,43.000" stroke-width="1.960" stroke="black" fill="none" stroke-linecap="round"></path><path d="M 265.500,43.000 C 280.869,41.516 280.504,43.242 295.500,44.000" stroke-width="2.011" stroke="black" fill="none" stroke-linecap="round"></path><path d="M 295.500,44.000 C 307.292,47.308 307.369,46.016 318.500,52.000" stroke-width="2.213" stroke="black" fill="none" stroke-linecap="round"></path><path d="M 318.500,52.000 C 329.133,56.039 328.792,56.308 338.500,62.000" stroke-width="2.305" stroke="black" fill="none" stroke-linecap="round"></path><path d="M 338.500,62.000 C 345.675,66.884 345.633,66.539 351.500,73.000" stroke-width="2.583" stroke="black" fill="none" stroke-linecap="round"></path><path d="M 351.500,73.000 C 356.659,77.477 355.675,77.384 358.500,83.000" stroke-width="3.031" stroke="black" fill="none" stroke-linecap="round"></path><path d="M 358.500,83.000 C 361.116,89.703 360.159,87.977 358.500,94.000" stroke-width="3.236" stroke="black" fill="none" stroke-linecap="round"></path><path d="M 358.500,94.000 C 352.572,101.870 354.116,101.203 344.500,106.000" stroke-width="2.840" stroke="black" fill="none" stroke-linecap="round"></path><path d="M 344.500,106.000 C 330.308,112.178 331.072,112.870 315.500,116.000" stroke-width="2.200" stroke="black" fill="none" stroke-linecap="round"></path><path d="M 315.500,116.000 C 299.122,120.015 299.308,120.178 282.500,122.000" stroke-width="1.917" stroke="black" fill="none" stroke-linecap="round"></path><path d="M 282.500,122.000 C 265.514,123.476 265.622,124.015 248.500,124.000" stroke-width="1.832" stroke="black" fill="none" stroke-linecap="round"></path><path d="M 248.500,124.000 C 232.996,124.254 233.014,124.476 217.500,124.000" stroke-width="1.990" stroke="black" fill="none" stroke-linecap="round"></path><path d="M 217.500,124.000 C 202.377,124.518 202.496,123.754 187.500,123.000" stroke-width="1.966" stroke="black" fill="none" stroke-linecap="round"></path><path d="M 187.500,123.000 C 177.968,121.138 177.877,122.018 168.500,119.000" stroke-width="2.336" stroke="black" fill="none" stroke-linecap="round"></path><path d="M 168.500,119.000 C 162.185,118.211 162.468,117.638 156.500,116.000" stroke-width="2.955" stroke="black" fill="none" stroke-linecap="round"></path></svg>