<svg xmlns="http://www.w3.org/2000/svg" xmlns:xlink="http://www.w3.org/1999/xlink" viewBox="0 0 420 363" width="420" height="363"><path d="M 161.000,187.750 C 165.076,183.884 165.500,184.750 170.000,181.750" stroke-width="4.783" stroke="black" fill="none" stroke-linecap="round"></path><path d="M 170.000,181.750 C 180.290,176.955 180.076,177.384 191.000,174.750" stroke-width="2.864" stroke="black" fill="none" stroke-linecap="round"></path><path d="M 191.000,174.750 C 197.726,173.419 197.290,173.455 204.000,174.750" stroke-width="3.027" stroke="black" fill="none" stroke-linecap="round"></path><path d="M 204.000,174.750 C 214.221,177.766 214.226,176.919 224.000,181.750" stroke-width="2.702" stroke="black" fill="none" stroke-linecap="round"></path><path d="M 224.000,181.750 C 229.071,182.443 227.721,183.266 231.000,185.750" stroke-width="3.396" stroke="black" fill="none" stroke-linecap="round"></path><path d="M 231.000,185.750 C 237.005,195.805 236.071,194.443 238.000,205.750" stroke-width="2.648" stroke="black" fill="none" stroke-linecap="round"></path><path d="M 238.000,205.750 C 237.369,211.786 238.505,210.805 234.000,215.750" stroke-width="3.110" stroke="black" fill="none" stroke-linecap="round"></path><path d="M 234.000,215.750 C 227.873,221.376 228.869,221.786 221.000,225.750" stroke-width="2.933" stroke="black" fill="none" stroke-linecap="round"></path><path d="M 221.000,225.750 C 216.687,228.324 216.873,228.376 212.000,229.750" stroke-width="3.346" stroke="black" fill="none" stroke-linecap="round"></path><path d="M 212.000,229.750 C 205.018,232.048 205.187,231.824 198.000,232.750" stroke-width="3.073" stroke="black" fill="none" stroke-linecap="round"></path><path d="M 198.000,232.750 C 194.543,233.137 195.018,233.048 192.000,231.750" stroke-width="3.751" stroke="black" fill="none" stroke-linecap="round"></path><path d="M 192.000,231.750 C 187.092,230.071 189.043,230.137 187.000,226.750" stroke-width="3.948" stroke="black" fill="none" stroke-linecap="round"></path><path d="M 187.000,226.750 C 186.896,210.301 186.592,212.071 191.000,195.750" stroke-width="2.255" stroke="black" fill="none" stroke-linecap="round"></path><path d="M 191.000,195.750 C 193.838,190.987 192.396,190.801 198.000,187.750" stroke-width="2.940" stroke="black" fill="none" stroke-linecap="round"></path><path d="M 198.000,187.750 C 207.364,179.584 207.338,180.487 218.000,174.750" stroke-width="2.427" stroke="black" fill="none" stroke-linecap="round"></path><path d="M 218.000,174.750 C 224.563,172.750 223.864,172.084 231.000,172.750" stroke-width="2.950" stroke="black" fill="none" stroke-linecap="round"></path><path d="M 231.000,172.750 C 234.735,173.243 234.563,172.750 238.000,174.750" stroke-width="3.537" stroke="black" fill="none" stroke-linecap="round"></path><path d="M 238.000,174.750 C 242.219,175.782 241.235,176.243 244.000,178.750" stroke-width="3.816" stroke="black" fill="none" stroke-linecap="round"></path><path d="M 244.000,178.750 C 249.105,186.471 248.219,185.782 250.000,194.750" stroke-width="3.047" stroke="black" fill="none" stroke-linecap="round"></path><path d="M 250.000,194.750 C 251.127,205.818 251.105,204.971 248.000,215.750" stroke-width="2.584" stroke="black" fill="none" stroke-linecap="round"></path><path d="M 248.000,215.750 C 240.772,232.389 242.627,232.818 233.000,248.750" stroke-width="1.977" stroke="black" fill="none" stroke-linecap="round"></path><path d="M 233.000,248.750 C 231.229,252.406 231.272,252.389 229.000,255.750" stroke-width="2.951" stroke="black" fill="none" stroke-linecap="round"></path><path d="M 229.000,255.750 C 224.509,262.345 227.229,258.406 225.000,260.750" stroke-width="3.996" stroke="black" fill="none" stroke-linecap="round"></path><path d="M 225.000,260.750 C 227.804,250.869 226.509,255.845 233.000,242.750" stroke-width="2.979" stroke="black" fill="none" stroke-linecap="round"></path><path d="M 233.000,242.750 C 236.510,238.557 235.804,238.369 241.000,235.750" stroke-width="3.248" stroke="black" fill="none" stroke-linecap="round"></path><path d="M 241.000,235.750 C 256.668,225.916 256.510,226.057 273.000,217.750" stroke-width="1.991" stroke="black" fill="none" stroke-linecap="round"></path><path d="M 273.000,217.750 C 276.976,215.750 276.668,215.916 281.000,215.750" stroke-width="2.980" stroke="black" fill="none" stroke-linecap="round"></path><path d="M 281.000,215.750 C 286.498,215.820 285.976,215.750 291.000,217.750" stroke-width="3.285" stroke="black" fill="none" stroke-linecap="round"></path><path d="M 291.000,217.750 C 294.315,219.123 293.498,218.820 295.000,221.750" stroke-width="3.923" stroke="black" fill="none" stroke-linecap="round"></path><path d="M 295.000,221.750 C 297.933,231.418 297.315,230.623 297.000,240.750" stroke-width="2.935" stroke="black" fill="none" stroke-linecap="round"></path><path d="M 297.000,240.750 C 295.116,251.804 295.933,251.418 291.000,261.750" stroke-width="2.522" stroke="black" fill="none" stroke-linecap="round"></path><path d="M 291.000,261.750 C 288.353,266.092 289.116,266.304 285.000,269.750" stroke-width="3.200" stroke="black" fill="none" stroke-linecap="round"></path><path d="M 285.000,269.750 C 282.877,272.643 282.853,272.092 280.000,273.750" stroke-width="3.731" stroke="black" fill="none" stroke-linecap="round"></path><path d="M 280.000,273.750 C 274.203,277.553 276.377,275.143 272.000,274.750" stroke-width="3.738" stroke="black" fill="none" stroke-linecap="round"></path><path d="M 272.000,274.750 C 262.237,260.882 263.203,263.553 258.000,245.750" stroke-width="2.340" stroke="black" fill="none" stroke-linecap="round"></path><path d="M 258.000,245.750 C 254.693,234.230 255.237,235.882 258.000,224.750" stroke-width="2.404" stroke="black" fill="none" stroke-linecap="round"></path><path d="M 258.000,224.750 C 263.208,211.035 262.193,212.730 273.000,202.750" stroke-width="2.191" stroke="black" fill="none" stroke-linecap="round"></path><path d="M 273.000,202.750 C 284.478,193.503 282.708,194.535 297.000,191.750" stroke-width="2.200" stroke="black" fill="none" stroke-linecap="round"></path><path d="M 297.000,191.750 C 310.908,191.518 309.478,190.003 323.000,195.750" stroke-width="2.206" stroke="black" fill="none" stroke-linecap="round"></path><path d="M 323.000,195.750 C 330.084,200.638 330.908,198.518 337.000,205.750" stroke-width="2.536" stroke="black" fill="none" stroke-linecap="round"></path><path d="M 337.000,205.750 C 342.554,208.386 341.584,209.138 346.000,212.750" stroke-width="3.110" stroke="black" fill="none" stroke-linecap="round"></path><path d="M 346.000,212.750 C 350.758,218.335 350.054,217.886 352.000,224.750" stroke-width="3.074" stroke="black" fill="none" stroke-linecap="round"></path><path d="M 352.000,224.750 C 354.624,235.091 353.758,233.835 352.000,243.750" stroke-width="2.704" stroke="black" fill="none" stroke-linecap="round"></path><path d="M 352.000,243.750 C 347.021,250.765 349.624,251.591 342.000,257.750" stroke-width="2.822" stroke="black" fill="none" stroke-linecap="round"></path><path d="M 342.000,257.750 C 337.516,269.199 335.521,266.765 329.000,275.750" stroke-width="2.543" stroke="black" fill="none" stroke-linecap="round"></path><path d="M 329.000,275.750 C 315.793,286.067 318.016,284.199 303.000,287.750" stroke-width="2.271" stroke="black" fill="none" stroke-linecap="round"></path><path d="M 303.000,287.750 C 295.922,285.482 296.793,288.567 291.000,280.750" stroke-width="2.791" stroke="black" fill="none" stroke-linecap="round"></path><path d="M 291.000,280.750 C 281.026,273.102 282.922,272.982 277.000,262.750" stroke-width="2.443" stroke="black" fill="none" stroke-linecap="round"></path><path d="M 277.000,262.750 C 271.254,244.299 270.526,246.102 270.000,226.750" stroke-width="1.939" stroke="black" fill="none" stroke-linecap="round"></path><path d="M 270.000,226.750 C 271.074,222.701 269.754,223.299 274.000,220.750" stroke-width="2.983" stroke="black" fill="none" stroke-linecap="round"></path><path d="M 274.000,220.750 C 283.474,213.520 283.074,214.701 294.000,210.750" stroke-width="2.507" stroke="black" fill="none" stroke-linecap="round"></path><path d="M 294.000,210.750 C 303.367,209.369 302.474,208.520 312.000,210.750" stroke-width="2.660" stroke="black" fill="none" stroke-linecap="round"></path></svg>