<svg xmlns="http://www.w3.org/2000/svg" xmlns:xlink="http://www.w3.org/1999/xlink" viewBox="0 0 453 236" width="453" height="236"><path d="M 120.500,169.000 C 117.457,169.394 117.500,169.000 114.500,169.000" stroke-width="5.394" stroke="black" fill="none" stroke-linecap="round"></path><path d="M 114.500,169.000 C 109.793,168.582 109.957,168.394 105.500,167.000" stroke-width="4.738" stroke="black" fill="none" stroke-linecap="round"></path><path d="M 105.500,167.000 C 100.381,164.712 100.293,165.082 95.500,162.000" stroke-width="3.709" stroke="black" fill="none" stroke-linecap="round"></path><path d="M 95.500,162.000 C 91.517,159.472 91.381,159.712 87.500,157.000" stroke-width="4.151" stroke="black" fill="none" stroke-linecap="round"></path><path d="M 87.500,157.000 C 82.710,156.098 85.017,155.472 82.500,154.000" stroke-width="4.572" stroke="black" fill="none" stroke-linecap="round"></path><path d="M 82.500,154.000 C 83.861,149.903 82.210,151.098 86.500,147.000" stroke-width="5.116" stroke="black" fill="none" stroke-linecap="round"></path><path d="M 86.500,147.000 C 89.594,145.131 88.861,144.403 92.500,143.000" stroke-width="4.240" stroke="black" fill="none" stroke-linecap="round"></path><path d="M 92.500,143.000 C 97.049,139.561 97.094,139.631 101.500,136.000" stroke-width="3.649" stroke="black" fill="none" stroke-linecap="round"></path><path d="M 101.500,136.000 C 106.879,131.343 107.049,131.561 112.500,127.000" stroke-width="3.081" stroke="black" fill="none" stroke-linecap="round"></path><path d="M 112.500,127.000 C 118.121,123.157 117.879,122.843 123.500,119.000" stroke-width="3.112" stroke="black" fill="none" stroke-linecap="round"></path><path d="M 123.500,119.000 C 128.822,114.259 129.121,114.657 134.500,110.000" stroke-width="3.017" stroke="black" fill="none" stroke-linecap="round"></path><path d="M 134.500,110.000 C 139.000,107.000 138.822,106.759 143.500,104.000" stroke-width="3.300" stroke="black" fill="none" stroke-linecap="round"></path><path d="M 143.500,104.000 C 148.145,101.194 148.000,101.000 152.500,98.000" stroke-width="3.395" stroke="black" fill="none" stroke-linecap="round"></path><path d="M 152.500,98.000 C 155.351,95.290 155.645,95.694 158.500,93.000" stroke-width="3.656" stroke="black" fill="none" stroke-linecap="round"></path><path d="M 158.500,93.000 C 161.000,91.500 160.851,91.290 163.500,90.000" stroke-width="3.970" stroke="black" fill="none" stroke-linecap="round"></path><path d="M 163.500,90.000 C 165.833,88.067 166.000,88.500 168.500,87.000" stroke-width="4.076" stroke="black" fill="none" stroke-linecap="round"></path><path d="M 168.500,87.000 C 173.339,84.554 170.833,86.067 173.500,86.000" stroke-width="4.756" stroke="black" fill="none" stroke-linecap="round"></path><path d="M 173.500,86.000 C 172.479,91.646 173.839,89.054 169.500,96.000" stroke-width="4.688" stroke="black" fill="none" stroke-linecap="round"></path><path d="M 169.500,96.000 C 164.609,100.166 165.979,101.146 160.500,105.000" stroke-width="3.479" stroke="black" fill="none" stroke-linecap="round"></path><path d="M 160.500,105.000 C 156.542,110.531 156.109,110.166 152.500,116.000" stroke-width="3.160" stroke="black" fill="none" stroke-linecap="round"></path><path d="M 152.500,116.000 C 148.073,122.056 148.042,122.031 143.500,128.000" stroke-width="3.038" stroke="black" fill="none" stroke-linecap="round"></path><path d="M 143.500,128.000 C 138.061,135.049 138.073,135.056 132.500,142.000" stroke-width="2.829" stroke="black" fill="none" stroke-linecap="round"></path><path d="M 132.500,142.000 C 126.247,150.215 126.061,150.049 119.500,158.000" stroke-width="2.559" stroke="black" fill="none" stroke-linecap="round"></path><path d="M 119.500,158.000 C 113.366,165.379 113.247,165.215 106.500,172.000" stroke-width="2.562" stroke="black" fill="none" stroke-linecap="round"></path><path d="M 106.500,172.000 C 99.166,178.703 99.366,178.879 91.500,185.000" stroke-width="2.585" stroke="black" fill="none" stroke-linecap="round"></path><path d="M 91.500,185.000 C 85.000,190.000 85.166,190.203 78.500,195.000" stroke-width="3.104" stroke="black" fill="none" stroke-linecap="round"></path><path d="M 78.500,195.000 C 72.341,200.527 72.000,200.000 65.500,205.000" stroke-width="3.044" stroke="black" fill="none" stroke-linecap="round"></path><path d="M 65.500,205.000 C 58.925,208.368 59.341,209.027 52.500,212.000" stroke-width="3.076" stroke="black" fill="none" stroke-linecap="round"></path><path d="M 52.500,212.000 C 47.657,215.299 47.425,214.868 42.500,218.000" stroke-width="3.254" stroke="black" fill="none" stroke-linecap="round"></path><path d="M 42.500,218.000 C 36.899,220.300 37.157,220.799 31.500,223.000" stroke-width="3.278" stroke="black" fill="none" stroke-linecap="round"></path><path d="M 31.500,223.000 C 27.232,226.028 26.899,225.300 22.500,228.000" stroke-width="3.482" stroke="black" fill="none" stroke-linecap="round"></path><path d="M 22.500,228.000 C 15.061,230.732 15.232,231.028 7.500,233.000" stroke-width="2.998" stroke="black" fill="none" stroke-linecap="round"></path><path d="M 7.500,233.000 C 4.932,234.243 5.061,233.732 2.500,234.000" stroke-width="3.877" stroke="black" fill="none" stroke-linecap="round"></path><path d="M 2.500,234.000 C -2.300,233.802 -0.068,233.743 -2.500,232.000" stroke-width="4.663" stroke="black" fill="none" stroke-linecap="round"></path><path d="M -2.500,232.000 C -1.088,228.019 -2.800,229.302 1.500,225.000" stroke-width="4.035" stroke="black" fill="none" stroke-linecap="round"></path><path d="M 1.500,225.000 C 5.257,221.182 4.912,221.019 9.500,218.000" stroke-width="3.615" stroke="black" fill="none" stroke-linecap="round"></path><path d="M 9.500,218.000 C 15.460,213.939 15.257,213.682 21.500,210.000" stroke-width="3.195" stroke="black" fill="none" stroke-linecap="round"></path><path d="M 21.500,210.000 C 26.911,206.353 26.960,206.439 32.500,203.000" stroke-width="3.127" stroke="black" fill="none" stroke-linecap="round"></path><path d="M 32.500,203.000 C 39.396,198.806 39.411,198.853 46.500,195.000" stroke-width="2.892" stroke="black" fill="none" stroke-linecap="round"></path><path d="M 46.500,195.000 C 53.604,191.694 53.396,191.306 60.500,188.000" stroke-width="2.917" stroke="black" fill="none" stroke-linecap="round"></path><path d="M 60.500,188.000 C 67.500,184.000 67.604,184.194 74.500,180.000" stroke-width="2.896" stroke="black" fill="none" stroke-linecap="round"></path><path d="M 74.500,180.000 C 81.349,175.708 81.500,176.000 88.500,172.000" stroke-width="2.829" stroke="black" fill="none" stroke-linecap="round"></path><path d="M 88.500,172.000 C 94.922,168.819 94.849,168.708 101.500,166.000" stroke-width="3.171" stroke="black" fill="none" stroke-linecap="round"></path><path d="M 101.500,166.000 C 109.019,163.048 108.922,162.819 116.500,160.000" stroke-width="3.024" stroke="black" fill="none" stroke-linecap="round"></path><path d="M 116.500,160.000 C 122.484,157.461 122.519,157.548 128.500,155.000" stroke-width="3.189" stroke="black" fill="none" stroke-linecap="round"></path><path d="M 128.500,155.000 C 133.583,153.185 133.484,152.961 138.500,151.000" stroke-width="3.308" stroke="black" fill="none" stroke-linecap="round"></path><path d="M 138.500,151.000 C 142.399,148.757 142.583,149.185 146.500,147.000" stroke-width="3.611" stroke="black" fill="none" stroke-linecap="round"></path><path d="M 146.500,147.000 C 149.638,146.301 149.399,145.757 152.500,145.000" stroke-width="3.980" stroke="black" fill="none" stroke-linecap="round"></path><path d="M 152.500,145.000 C 158.132,142.632 155.138,143.801 157.500,142.000" stroke-width="4.494" stroke="black" fill="none" stroke-linecap="round"></path><path d="M 157.500,142.000 C 153.385,141.402 156.632,141.132 149.500,142.000" stroke-width="4.762" stroke="black" fill="none" stroke-linecap="round"></path><path d="M 149.500,142.000 C 146.903,142.799 146.885,142.402 144.500,144.000" stroke-width="4.408" stroke="black" fill="none" stroke-linecap="round"></path><path d="M 144.500,144.000 C 140.848,145.768 140.903,145.799 137.500,148.000" stroke-width="4.028" stroke="black" fill="none" stroke-linecap="round"></path><path d="M 137.500,148.000 C 133.472,150.963 133.348,150.768 129.500,154.000" stroke-width="3.675" stroke="black" fill="none" stroke-linecap="round"></path><path d="M 129.500,154.000 C 124.821,157.297 124.972,157.463 120.500,161.000" stroke-width="3.393" stroke="black" fill="none" stroke-linecap="round"></path><path d="M 120.500,161.000 C 117.862,163.376 117.821,163.297 115.500,166.000" stroke-width="3.893" stroke="black" fill="none" stroke-linecap="round"></path><path d="M 115.500,166.000 C 113.332,168.383 113.362,168.376 111.500,171.000" stroke-width="3.979" stroke="black" fill="none" stroke-linecap="round"></path><path d="M 111.500,171.000 C 109.895,173.442 109.832,173.383 108.500,176.000" stroke-width="4.078" stroke="black" fill="none" stroke-linecap="round"></path><path d="M 108.500,176.000 C 104.526,180.296 106.895,178.942 105.500,182.000" stroke-width="4.463" stroke="black" fill="none" stroke-linecap="round"></path><path d="M 105.500,182.000 C 108.981,182.765 106.526,183.796 112.500,183.000" stroke-width="4.770" stroke="black" fill="none" stroke-linecap="round"></path><path d="M 112.500,183.000 C 116.783,184.093 116.481,183.265 120.500,183.000" stroke-width="4.007" stroke="black" fill="none" stroke-linecap="round"></path><path d="M 120.500,183.000 C 125.046,180.579 125.283,181.593 129.500,178.000" stroke-width="3.579" stroke="black" fill="none" stroke-linecap="round"></path><path d="M 129.500,178.000 C 134.655,175.230 134.546,175.079 139.500,172.000" stroke-width="3.406" stroke="black" fill="none" stroke-linecap="round"></path><path d="M 139.500,172.000 C 143.692,169.222 143.655,169.230 147.500,166.000" stroke-width="3.445" stroke="black" fill="none" stroke-linecap="round"></path><path d="M 147.500,166.000 C 150.299,163.751 150.192,163.722 152.500,161.000" stroke-width="4.238" stroke="black" fill="none" stroke-linecap="round"></path><path d="M 152.500,161.000 C 157.153,156.364 156.299,156.251 159.500,151.000" stroke-width="4.120" stroke="black" fill="none" stroke-linecap="round"></path><path d="M 159.500,151.000 C 161.107,146.148 160.653,148.364 159.500,145.000" stroke-width="4.548" stroke="black" fill="none" stroke-linecap="round"></path><path d="M 159.500,145.000 C 155.207,144.195 157.607,143.648 152.500,146.000" stroke-width="4.791" stroke="black" fill="none" stroke-linecap="round"></path><path d="M 152.500,146.000 C 149.517,149.254 149.207,148.195 147.500,153.000" stroke-width="4.594" stroke="black" fill="none" stroke-linecap="round"></path><path d="M 147.500,153.000 C 146.500,156.000 146.017,155.754 145.500,159.000" stroke-width="4.666" stroke="black" fill="none" stroke-linecap="round"></path><path d="M 145.500,159.000 C 142.313,163.576 144.500,162.000 143.500,165.000" stroke-width="4.890" stroke="black" fill="none" stroke-linecap="round"></path><path d="M 143.500,165.000 C 147.298,165.985 144.813,166.576 150.500,165.000" stroke-width="5.095" stroke="black" fill="none" stroke-linecap="round"></path><path d="M 150.500,165.000 C 153.363,162.764 153.798,163.985 156.500,161.000" stroke-width="4.337" stroke="black" fill="none" stroke-linecap="round"></path><path d="M 156.500,161.000 C 161.802,158.989 161.363,158.264 166.500,156.000" stroke-width="3.564" stroke="black" fill="none" stroke-linecap="round"></path><path d="M 166.500,156.000 C 172.469,151.458 172.802,151.989 178.500,147.000" stroke-width="3.141" stroke="black" fill="none" stroke-linecap="round"></path><path d="M 178.500,147.000 C 184.244,143.300 183.969,142.958 189.500,139.000" stroke-width="3.130" stroke="black" fill="none" stroke-linecap="round"></path><path d="M 189.500,139.000 C 195.250,134.250 195.244,134.300 200.500,129.000" stroke-width="3.038" stroke="black" fill="none" stroke-linecap="round"></path><path d="M 200.500,129.000 C 205.375,123.381 205.750,123.750 210.500,118.000" stroke-width="3.012" stroke="black" fill="none" stroke-linecap="round"></path><path d="M 210.500,118.000 C 215.777,113.248 215.375,112.881 220.500,108.000" stroke-width="2.994" stroke="black" fill="none" stroke-linecap="round"></path><path d="M 220.500,108.000 C 224.660,103.120 224.777,103.248 228.500,98.000" stroke-width="3.084" stroke="black" fill="none" stroke-linecap="round"></path><path d="M 228.500,98.000 C 231.724,92.782 232.160,93.120 235.500,88.000" stroke-width="3.215" stroke="black" fill="none" stroke-linecap="round"></path><path d="M 235.500,88.000 C 239.776,83.718 239.224,83.282 243.500,79.000" stroke-width="3.800" stroke="black" fill="none" stroke-linecap="round"></path><path d="M 243.500,79.000 C 247.115,74.077 247.276,74.218 250.500,69.000" stroke-width="3.416" stroke="black" fill="none" stroke-linecap="round"></path><path d="M 250.500,69.000 C 254.199,63.612 254.115,63.577 257.500,58.000" stroke-width="3.188" stroke="black" fill="none" stroke-linecap="round"></path><path d="M 257.500,58.000 C 261.843,52.384 259.199,55.112 260.500,52.000" stroke-width="4.273" stroke="black" fill="none" stroke-linecap="round"></path><path d="M 260.500,52.000 C 254.823,52.974 258.343,51.384 250.500,56.000" stroke-width="4.251" stroke="black" fill="none" stroke-linecap="round"></path><path d="M 250.500,56.000 C 245.500,61.000 244.823,59.974 240.500,66.000" stroke-width="3.279" stroke="black" fill="none" stroke-linecap="round"></path><path d="M 240.500,66.000 C 234.611,71.159 235.000,71.500 229.500,77.000" stroke-width="2.968" stroke="black" fill="none" stroke-linecap="round"></path><path d="M 229.500,77.000 C 224.380,83.411 224.111,83.159 219.500,90.000" stroke-width="2.951" stroke="black" fill="none" stroke-linecap="round"></path><path d="M 219.500,90.000 C 214.660,97.120 214.380,96.911 209.500,104.000" stroke-width="2.778" stroke="black" fill="none" stroke-linecap="round"></path><path d="M 209.500,104.000 C 204.000,111.000 204.160,111.120 198.500,118.000" stroke-width="2.813" stroke="black" fill="none" stroke-linecap="round"></path><path d="M 198.500,118.000 C 193.122,125.100 193.000,125.000 187.500,132.000" stroke-width="2.767" stroke="black" fill="none" stroke-linecap="round"></path><path d="M 187.500,132.000 C 181.951,138.459 182.122,138.600 176.500,145.000" stroke-width="2.797" stroke="black" fill="none" stroke-linecap="round"></path><path d="M 176.500,145.000 C 172.018,150.514 171.951,150.459 167.500,156.000" stroke-width="2.922" stroke="black" fill="none" stroke-linecap="round"></path><path d="M 167.500,156.000 C 164.790,158.851 165.018,159.014 162.500,162.000" stroke-width="3.518" stroke="black" fill="none" stroke-linecap="round"></path><path d="M 162.500,162.000 C 160.033,164.333 160.790,164.351 159.500,167.000" stroke-width="3.920" stroke="black" fill="none" stroke-linecap="round"></path><path d="M 159.500,167.000 C 158.646,171.691 159.033,169.333 160.500,172.000" stroke-width="4.749" stroke="black" fill="none" stroke-linecap="round"></path><path d="M 160.500,172.000 C 166.683,171.676 164.646,172.691 171.500,169.000" stroke-width="4.336" stroke="black" fill="none" stroke-linecap="round"></path><path d="M 171.500,169.000 C 174.876,165.366 175.683,166.676 178.500,162.000" stroke-width="3.695" stroke="black" fill="none" stroke-linecap="round"></path><path d="M 178.500,162.000 C 182.115,159.124 181.876,158.866 185.500,156.000" stroke-width="3.661" stroke="black" fill="none" stroke-linecap="round"></path><path d="M 185.500,156.000 C 188.500,153.000 188.615,153.124 191.500,150.000" stroke-width="3.671" stroke="black" fill="none" stroke-linecap="round"></path><path d="M 191.500,150.000 C 193.887,147.376 194.000,147.500 196.500,145.000" stroke-width="3.829" stroke="black" fill="none" stroke-linecap="round"></path><path d="M 196.500,145.000 C 201.465,139.482 199.387,142.376 202.500,140.000" stroke-width="4.306" stroke="black" fill="none" stroke-linecap="round"></path><path d="M 202.500,140.000 C 201.924,143.678 203.465,140.482 200.500,147.000" stroke-width="4.727" stroke="black" fill="none" stroke-linecap="round"></path><path d="M 200.500,147.000 C 198.396,150.444 198.924,150.678 196.500,154.000" stroke-width="4.050" stroke="black" fill="none" stroke-linecap="round"></path><path d="M 196.500,154.000 C 192.197,158.671 194.396,157.944 192.500,162.000" stroke-width="4.306" stroke="black" fill="none" stroke-linecap="round"></path><path d="M 192.500,162.000 C 195.106,165.552 192.697,164.171 197.500,165.000" stroke-width="4.779" stroke="black" fill="none" stroke-linecap="round"></path><path d="M 197.500,165.000 C 201.528,162.037 201.606,164.052 205.500,159.000" stroke-width="3.840" stroke="black" fill="none" stroke-linecap="round"></path><path d="M 205.500,159.000 C 209.972,155.463 210.028,155.537 214.500,152.000" stroke-width="3.496" stroke="black" fill="none" stroke-linecap="round"></path><path d="M 214.500,152.000 C 218.394,148.843 218.472,148.963 222.500,146.000" stroke-width="3.579" stroke="black" fill="none" stroke-linecap="round"></path><path d="M 222.500,146.000 C 226.596,142.096 224.894,144.343 227.500,143.000" stroke-width="3.985" stroke="black" fill="none" stroke-linecap="round"></path><path d="M 227.500,143.000 C 227.738,146.782 228.596,144.096 226.500,150.000" stroke-width="4.752" stroke="black" fill="none" stroke-linecap="round"></path><path d="M 226.500,150.000 C 224.217,152.851 225.238,153.282 222.500,156.000" stroke-width="4.160" stroke="black" fill="none" stroke-linecap="round"></path><path d="M 222.500,156.000 C 219.852,158.838 221.217,158.351 220.500,161.000" stroke-width="4.347" stroke="black" fill="none" stroke-linecap="round"></path><path d="M 220.500,161.000 C 222.575,165.791 221.352,163.838 225.500,166.000" stroke-width="4.738" stroke="black" fill="none" stroke-linecap="round"></path><path d="M 225.500,166.000 C 230.211,164.383 229.575,166.291 234.500,162.000" stroke-width="3.783" stroke="black" fill="none" stroke-linecap="round"></path><path d="M 234.500,162.000 C 239.213,159.278 239.211,159.383 243.500,156.000" stroke-width="3.534" stroke="black" fill="none" stroke-linecap="round"></path><path d="M 243.500,156.000 C 247.584,152.590 247.713,152.778 251.500,149.000" stroke-width="3.630" stroke="black" fill="none" stroke-linecap="round"></path><path d="M 251.500,149.000 C 255.972,145.472 253.584,147.090 255.500,145.000" stroke-width="4.024" stroke="black" fill="none" stroke-linecap="round"></path><path d="M 255.500,145.000 C 252.034,145.246 254.972,144.472 249.500,147.000" stroke-width="4.733" stroke="black" fill="none" stroke-linecap="round"></path><path d="M 249.500,147.000 C 245.682,150.239 245.534,149.746 242.500,154.000" stroke-width="3.842" stroke="black" fill="none" stroke-linecap="round"></path><path d="M 242.500,154.000 C 240.742,157.198 240.182,156.739 238.500,160.000" stroke-width="3.917" stroke="black" fill="none" stroke-linecap="round"></path><path d="M 238.500,160.000 C 235.992,161.656 236.742,162.198 234.500,164.000" stroke-width="4.125" stroke="black" fill="none" stroke-linecap="round"></path><path d="M 234.500,164.000 C 230.004,169.931 232.492,167.156 231.500,171.000" stroke-width="4.443" stroke="black" fill="none" stroke-linecap="round"></path><path d="M 231.500,171.000 C 236.753,170.675 233.504,172.431 241.500,169.000" stroke-width="4.970" stroke="black" fill="none" stroke-linecap="round"></path><path d="M 241.500,169.000 C 245.255,167.380 245.253,167.675 248.500,165.000" stroke-width="4.413" stroke="black" fill="none" stroke-linecap="round"></path><path d="M 248.500,165.000 C 259.858,155.810 260.255,156.380 271.500,147.000" stroke-width="2.462" stroke="black" fill="none" stroke-linecap="round"></path><path d="M 271.500,147.000 C 278.887,142.473 278.358,141.810 285.500,137.000" stroke-width="2.686" stroke="black" fill="none" stroke-linecap="round"></path><path d="M 285.500,137.000 C 292.991,129.991 293.387,130.473 300.500,123.000" stroke-width="2.589" stroke="black" fill="none" stroke-linecap="round"></path><path d="M 300.500,123.000 C 308.058,117.002 307.491,116.491 314.500,110.000" stroke-width="2.630" stroke="black" fill="none" stroke-linecap="round"></path><path d="M 314.500,110.000 C 319.234,104.162 319.558,104.502 323.500,98.000" stroke-width="2.816" stroke="black" fill="none" stroke-linecap="round"></path><path d="M 323.500,98.000 C 328.090,91.056 328.234,91.162 332.500,84.000" stroke-width="2.989" stroke="black" fill="none" stroke-linecap="round"></path><path d="M 332.500,84.000 C 335.903,79.194 335.590,79.056 338.500,74.000" stroke-width="3.169" stroke="black" fill="none" stroke-linecap="round"></path><path d="M 338.500,74.000 C 340.332,70.089 340.403,70.194 341.500,66.000" stroke-width="3.502" stroke="black" fill="none" stroke-linecap="round"></path><path d="M 341.500,66.000 C 341.956,62.992 342.332,63.089 342.500,60.000" stroke-width="3.885" stroke="black" fill="none" stroke-linecap="round"></path><path d="M 342.500,60.000 C 345.140,55.746 342.956,57.492 343.500,55.000" stroke-width="4.184" stroke="black" fill="none" stroke-linecap="round"></path><path d="M 343.500,55.000 C 336.586,52.551 339.640,53.246 331.500,55.000" stroke-width="4.598" stroke="black" fill="none" stroke-linecap="round"></path><path d="M 331.500,55.000 C 323.759,61.241 323.086,59.051 316.500,68.000" stroke-width="2.985" stroke="black" fill="none" stroke-linecap="round"></path><path d="M 316.500,68.000 C 309.114,74.652 309.259,74.741 302.500,82.000" stroke-width="2.704" stroke="black" fill="none" stroke-linecap="round"></path><path d="M 302.500,82.000 C 295.769,89.824 295.614,89.652 289.500,98.000" stroke-width="2.589" stroke="black" fill="none" stroke-linecap="round"></path><path d="M 289.500,98.000 C 284.383,104.919 284.269,104.824 279.500,112.000" stroke-width="2.673" stroke="black" fill="none" stroke-linecap="round"></path><path d="M 279.500,112.000 C 274.561,119.542 274.383,119.419 269.500,127.000" stroke-width="2.713" stroke="black" fill="none" stroke-linecap="round"></path><path d="M 269.500,127.000 C 265.094,133.568 265.061,133.542 260.500,140.000" stroke-width="2.793" stroke="black" fill="none" stroke-linecap="round"></path><path d="M 260.500,140.000 C 257.457,143.968 257.594,144.068 254.500,148.000" stroke-width="3.322" stroke="black" fill="none" stroke-linecap="round"></path><path d="M 254.500,148.000 C 251.884,151.424 251.957,151.468 249.500,155.000" stroke-width="3.601" stroke="black" fill="none" stroke-linecap="round"></path><path d="M 249.500,155.000 C 247.895,157.442 247.884,157.424 246.500,160.000" stroke-width="4.031" stroke="black" fill="none" stroke-linecap="round"></path><path d="M 246.500,160.000 C 242.429,165.571 244.895,162.942 243.500,166.000" stroke-width="4.461" stroke="black" fill="none" stroke-linecap="round"></path><path d="M 243.500,166.000 C 247.417,163.815 244.929,166.571 251.500,162.000" stroke-width="5.066" stroke="black" fill="none" stroke-linecap="round"></path><path d="M 251.500,162.000 C 256.460,159.890 256.417,159.815 261.500,158.000" stroke-width="4.434" stroke="black" fill="none" stroke-linecap="round"></path><path d="M 261.500,158.000 C 264.478,156.930 264.460,156.890 267.500,156.000" stroke-width="4.144" stroke="black" fill="none" stroke-linecap="round"></path><path d="M 267.500,156.000 C 270.983,154.938 270.978,154.930 274.500,154.000" stroke-width="3.998" stroke="black" fill="none" stroke-linecap="round"></path><path d="M 274.500,154.000 C 278.500,153.000 278.483,152.938 282.500,152.000" stroke-width="3.793" stroke="black" fill="none" stroke-linecap="round"></path><path d="M 282.500,152.000 C 286.500,151.000 286.500,151.000 290.500,150.000" stroke-width="3.736" stroke="black" fill="none" stroke-linecap="round"></path><path d="M 290.500,150.000 C 294.443,148.541 294.500,149.000 298.500,148.000" stroke-width="3.719" stroke="black" fill="none" stroke-linecap="round"></path><path d="M 298.500,148.000 C 302.000,148.000 301.943,147.541 305.500,148.000" stroke-width="3.901" stroke="black" fill="none" stroke-linecap="round"></path><path d="M 305.500,148.000 C 311.800,146.200 310.000,148.000 314.500,148.000" stroke-width="4.268" stroke="black" fill="none" stroke-linecap="round"></path><path d="M 314.500,148.000 C 316.055,151.862 316.300,149.200 314.500,154.000" stroke-width="4.776" stroke="black" fill="none" stroke-linecap="round"></path><path d="M 314.500,154.000 C 310.361,156.297 312.055,157.362 306.500,159.000" stroke-width="4.112" stroke="black" fill="none" stroke-linecap="round"></path><path d="M 306.500,159.000 C 300.662,163.734 300.361,163.297 294.500,168.000" stroke-width="3.184" stroke="black" fill="none" stroke-linecap="round"></path><path d="M 294.500,168.000 C 287.652,172.754 287.662,172.734 280.500,177.000" stroke-width="2.996" stroke="black" fill="none" stroke-linecap="round"></path><path d="M 280.500,177.000 C 271.603,182.196 271.652,182.254 262.500,187.000" stroke-width="2.599" stroke="black" fill="none" stroke-linecap="round"></path><path d="M 262.500,187.000 C 253.677,191.894 253.603,191.696 244.500,196.000" stroke-width="2.583" stroke="black" fill="none" stroke-linecap="round"></path><path d="M 244.500,196.000 C 234.679,200.524 234.677,200.394 224.500,204.000" stroke-width="2.511" stroke="black" fill="none" stroke-linecap="round"></path><path d="M 224.500,204.000 C 214.144,207.664 214.179,207.524 203.500,210.000" stroke-width="2.476" stroke="black" fill="none" stroke-linecap="round"></path><path d="M 203.500,210.000 C 193.531,211.746 193.644,212.164 183.500,213.000" stroke-width="2.482" stroke="black" fill="none" stroke-linecap="round"></path><path d="M 183.500,213.000 C 173.517,214.229 173.531,214.246 163.500,215.000" stroke-width="2.548" stroke="black" fill="none" stroke-linecap="round"></path><path d="M 163.500,215.000 C 154.007,215.756 154.017,215.729 144.500,216.000" stroke-width="2.622" stroke="black" fill="none" stroke-linecap="round"></path><path d="M 144.500,216.000 C 134.440,216.765 134.507,216.256 124.500,216.000" stroke-width="2.595" stroke="black" fill="none" stroke-linecap="round"></path><path d="M 124.500,216.000 C 114.830,215.195 114.940,215.265 105.500,213.000" stroke-width="2.626" stroke="black" fill="none" stroke-linecap="round"></path><path d="M 105.500,213.000 C 97.898,210.774 97.830,211.195 90.500,208.000" stroke-width="2.765" stroke="black" fill="none" stroke-linecap="round"></path><path d="M 90.500,208.000 C 81.872,204.781 81.898,204.774 73.500,201.000" stroke-width="2.777" stroke="black" fill="none" stroke-linecap="round"></path><path d="M 73.500,201.000 C 66.153,198.050 66.372,197.781 59.500,194.000" stroke-width="2.882" stroke="black" fill="none" stroke-linecap="round"></path><path d="M 59.500,194.000 C 54.800,190.727 54.653,191.050 50.500,187.000" stroke-width="3.205" stroke="black" fill="none" stroke-linecap="round"></path><path d="M 50.500,187.000 C 46.742,184.488 47.300,184.227 44.500,181.000" stroke-width="3.614" stroke="black" fill="none" stroke-linecap="round"></path><path d="M 44.500,181.000 C 42.156,177.153 42.242,177.488 41.500,173.000" stroke-width="3.942" stroke="black" fill="none" stroke-linecap="round"></path><path d="M 41.500,173.000 C 39.315,166.734 40.656,167.653 41.500,162.000" stroke-width="3.558" stroke="black" fill="none" stroke-linecap="round"></path><path d="M 41.500,162.000 C 46.304,153.280 45.315,153.734 53.500,147.000" stroke-width="2.928" stroke="black" fill="none" stroke-linecap="round"></path><path d="M 53.500,147.000 C 74.080,129.053 73.804,129.280 96.500,114.000" stroke-width="1.662" stroke="black" fill="none" stroke-linecap="round"></path><path d="M 96.500,114.000 C 109.497,105.794 109.080,105.553 123.500,100.000" stroke-width="1.941" stroke="black" fill="none" stroke-linecap="round"></path><path d="M 123.500,100.000 C 138.817,94.343 138.497,93.794 154.500,90.000" stroke-width="1.878" stroke="black" fill="none" stroke-linecap="round"></path><path d="M 154.500,90.000 C 171.386,85.423 171.317,85.343 188.500,82.000" stroke-width="1.852" stroke="black" fill="none" stroke-linecap="round"></path><path d="M 188.500,82.000 C 203.914,78.732 203.886,78.923 219.500,77.000" stroke-width="1.937" stroke="black" fill="none" stroke-linecap="round"></path><path d="M 219.500,77.000 C 235.487,75.572 235.414,75.232 251.500,75.000" stroke-width="1.891" stroke="black" fill="none" stroke-linecap="round"></path><path d="M 251.500,75.000 C 263.593,73.965 263.487,74.572 275.500,75.000" stroke-width="2.180" stroke="black" fill="none" stroke-linecap="round"></path><path d="M 275.500,75.000 C 286.760,76.097 286.593,75.965 297.500,79.000" stroke-width="2.234" stroke="black" fill="none" stroke-linecap="round"></path><path d="M 297.500,79.000 C 305.679,80.970 305.260,81.097 312.500,85.000" stroke-width="2.602" stroke="black" fill="none" stroke-linecap="round"></path><path d="M 312.500,85.000 C 316.674,88.044 316.679,87.470 319.500,92.000" stroke-width="3.157" stroke="black" fill="none" stroke-linecap="round"></path><path d="M 319.500,92.000 C 322.697,95.452 321.674,95.044 322.500,99.000" stroke-width="3.588" stroke="black" fill="none" stroke-linecap="round"></path><path d="M 322.500,99.000 C 322.231,105.760 322.197,104.452 318.500,110.000" stroke-width="3.460" stroke="black" fill="none" stroke-linecap="round"></path><path d="M 318.500,110.000 C 310.027,117.787 311.231,118.260 300.500,124.000" stroke-width="2.498" stroke="black" fill="none" stroke-linecap="round"></path><path d="M 300.500,124.000 C 286.943,132.910 287.027,132.787 272.500,140.000" stroke-width="2.081" stroke="black" fill="none" stroke-linecap="round"></path><path d="M 272.500,140.000 C 259.299,146.400 259.443,146.410 245.500,151.000" stroke-width="2.019" stroke="black" fill="none" stroke-linecap="round"></path><path d="M 245.500,151.000 C 232.178,155.467 232.299,155.400 218.500,158.000" stroke-width="2.095" stroke="black" fill="none" stroke-linecap="round"></path><path d="M 218.500,158.000 C 205.035,160.136 205.178,160.467 191.500,161.000" stroke-width="2.088" stroke="black" fill="none" stroke-linecap="round"></path><path d="M 191.500,161.000 C 181.500,161.000 181.535,161.636 171.500,161.000" stroke-width="2.360" stroke="black" fill="none" stroke-linecap="round"></path><path d="M 171.500,161.000 C 163.870,161.884 164.000,161.000 156.500,161.000" stroke-width="2.716" stroke="black" fill="none" stroke-linecap="round"></path><path d="M 156.500,161.000 C 151.312,159.925 151.370,160.384 146.500,158.000" stroke-width="3.163" stroke="black" fill="none" stroke-linecap="round"></path><path d="M 146.500,158.000 C 142.191,157.419 143.812,156.925 141.500,155.000" stroke-width="3.817" stroke="black" fill="none" stroke-linecap="round"></path><path d="M 141.500,155.000 C 139.078,147.719 140.191,150.419 142.500,144.000" stroke-width="4.087" stroke="black" fill="none" stroke-linecap="round"></path><path d="M 142.500,144.000 C 152.904,135.641 150.578,135.219 164.500,130.000" stroke-width="3.442" stroke="black" fill="none" stroke-linecap="round"></path><path d="M 164.500,130.000 C 171.970,127.882 171.404,126.641 179.500,126.000" stroke-width="3.009" stroke="black" fill="none" stroke-linecap="round"></path><path d="M 179.500,126.000 C 187.915,123.541 187.970,123.882 196.500,122.000" stroke-width="2.778" stroke="black" fill="none" stroke-linecap="round"></path><path d="M 196.500,122.000 C 207.455,120.004 207.415,120.041 218.500,119.000" stroke-width="3.163" stroke="black" fill="none" stroke-linecap="round"></path><path d="M 218.500,119.000 C 229.495,118.290 229.455,118.004 240.500,118.000" stroke-width="2.691" stroke="black" fill="none" stroke-linecap="round"></path><path d="M 240.500,118.000 C 248.500,118.000 248.495,117.790 256.500,118.000" stroke-width="2.833" stroke="black" fill="none" stroke-linecap="round"></path><path d="M 256.500,118.000 C 267.608,115.791 265.000,118.000 273.500,118.000" stroke-width="2.927" stroke="black" fill="none" stroke-linecap="round"></path><path d="M 273.500,118.000 C 274.528,122.128 275.608,118.791 272.500,124.000" stroke-width="4.023" stroke="black" fill="none" stroke-linecap="round"></path><path d="M 272.500,124.000 C 266.313,126.678 268.028,128.128 260.500,130.000" stroke-width="3.296" stroke="black" fill="none" stroke-linecap="round"></path><path d="M 260.500,130.000 C 256.129,133.223 255.813,132.678 251.500,136.000" stroke-width="3.338" stroke="black" fill="none" stroke-linecap="round"></path><path d="M 251.500,136.000 C 248.442,137.395 248.629,137.723 245.500,139.000" stroke-width="3.752" stroke="black" fill="none" stroke-linecap="round"></path><path d="M 245.500,139.000 C 239.120,142.000 242.942,140.395 240.500,142.000" stroke-width="4.430" stroke="black" fill="none" stroke-linecap="round"></path><path d="M 240.500,142.000 C 248.071,140.769 244.120,142.000 255.500,139.000" stroke-width="4.282" stroke="black" fill="none" stroke-linecap="round"></path><path d="M 255.500,139.000 C 258.529,138.080 258.571,138.269 261.500,137.000" stroke-width="4.103" stroke="black" fill="none" stroke-linecap="round"></path><path d="M 261.500,137.000 C 266.723,134.777 264.029,136.080 266.500,135.000" stroke-width="4.603" stroke="black" fill="none" stroke-linecap="round"></path><path d="M 266.500,135.000 C 260.260,136.801 266.223,135.277 260.500,138.000" stroke-width="4.944" stroke="black" fill="none" stroke-linecap="round"></path><path d="M 260.500,138.000 C 263.929,139.790 260.760,139.301 267.500,140.000" stroke-width="5.159" stroke="black" fill="none" stroke-linecap="round"></path><path d="M 267.500,140.000 C 272.556,139.824 272.429,140.290 277.500,139.000" stroke-width="3.904" stroke="black" fill="none" stroke-linecap="round"></path><path d="M 277.500,139.000 C 281.538,138.132 281.556,138.324 285.500,137.000" stroke-width="4.033" stroke="black" fill="none" stroke-linecap="round"></path><path d="M 285.500,137.000 C 288.421,135.513 288.538,136.132 291.500,135.000" stroke-width="4.032" stroke="black" fill="none" stroke-linecap="round"></path><path d="M 291.500,135.000 C 297.342,133.105 294.421,134.513 297.500,135.000" stroke-width="4.542" stroke="black" fill="none" stroke-linecap="round"></path><path d="M 297.500,135.000 C 294.975,140.990 297.842,139.105 292.500,147.000" stroke-width="4.366" stroke="black" fill="none" stroke-linecap="round"></path><path d="M 292.500,147.000 C 290.973,149.399 291.475,149.490 290.500,152.000" stroke-width="4.255" stroke="black" fill="none" stroke-linecap="round"></path><path d="M 290.500,152.000 C 288.625,156.875 289.973,154.899 290.500,158.000" stroke-width="4.636" stroke="black" fill="none" stroke-linecap="round"></path><path d="M 290.500,158.000 C 295.532,158.466 293.625,159.875 300.500,158.000" stroke-width="3.746" stroke="black" fill="none" stroke-linecap="round"></path><path d="M 300.500,158.000 C 311.731,157.520 311.532,156.966 322.500,155.000" stroke-width="2.724" stroke="black" fill="none" stroke-linecap="round"></path><path d="M 322.500,155.000 C 335.022,151.069 335.231,152.020 347.500,147.000" stroke-width="2.344" stroke="black" fill="none" stroke-linecap="round"></path><path d="M 347.500,147.000 C 357.915,143.208 358.022,143.569 368.500,140.000" stroke-width="2.466" stroke="black" fill="none" stroke-linecap="round"></path><path d="M 368.500,140.000 C 374.578,138.742 374.415,138.208 380.500,137.000" stroke-width="2.971" stroke="black" fill="none" stroke-linecap="round"></path><path d="M 380.500,137.000 C 386.246,133.757 383.078,136.242 385.500,135.000" stroke-width="3.741" stroke="black" fill="none" stroke-linecap="round"></path><path d="M 385.500,135.000 C 380.140,141.134 383.246,138.757 374.500,147.000" stroke-width="4.079" stroke="black" fill="none" stroke-linecap="round"></path><path d="M 374.500,147.000 C 367.021,153.590 367.640,154.134 360.500,161.000" stroke-width="2.916" stroke="black" fill="none" stroke-linecap="round"></path><path d="M 360.500,161.000 C 356.267,166.349 356.021,166.090 352.500,172.000" stroke-width="3.059" stroke="black" fill="none" stroke-linecap="round"></path><path d="M 352.500,172.000 C 348.221,175.935 350.267,175.349 348.500,179.000" stroke-width="3.506" stroke="black" fill="none" stroke-linecap="round"></path><path d="M 348.500,179.000 C 350.487,183.000 348.721,181.435 353.500,183.000" stroke-width="4.284" stroke="black" fill="none" stroke-linecap="round"></path><path d="M 353.500,183.000 C 365.412,182.375 364.487,183.000 376.500,179.000" stroke-width="2.659" stroke="black" fill="none" stroke-linecap="round"></path><path d="M 376.500,179.000 C 387.988,173.971 388.412,175.375 399.500,169.000" stroke-width="2.313" stroke="black" fill="none" stroke-linecap="round"></path><path d="M 399.500,169.000 C 410.167,164.844 409.988,164.471 420.500,160.000" stroke-width="2.316" stroke="black" fill="none" stroke-linecap="round"></path><path d="M 420.500,160.000 C 425.905,156.798 426.167,157.344 431.500,154.000" stroke-width="2.893" stroke="black" fill="none" stroke-linecap="round"></path><path d="M 431.500,154.000 C 437.627,151.249 433.905,152.798 436.500,152.000" stroke-width="3.737" stroke="black" fill="none" stroke-linecap="round"></path><path d="M 436.500,152.000 C 429.104,155.481 433.127,154.249 422.500,160.000" stroke-width="4.110" stroke="black" fill="none" stroke-linecap="round"></path><path d="M 422.500,160.000 C 419.487,162.162 419.604,161.981 417.500,165.000" stroke-width="3.961" stroke="black" fill="none" stroke-linecap="round"></path><path d="M 417.500,165.000 C 413.951,169.226 415.987,167.162 415.500,170.000" stroke-width="4.536" stroke="black" fill="none" stroke-linecap="round"></path><path d="M 415.500,170.000 C 421.504,170.176 418.951,171.726 427.500,170.000" stroke-width="3.522" stroke="black" fill="none" stroke-linecap="round"></path><path d="M 427.500,170.000 C 438.583,170.180 438.504,169.676 449.500,169.000" stroke-width="2.697" stroke="black" fill="none" stroke-linecap="round"></path><path d="M 449.500,169.000 C 457.013,167.560 457.083,168.180 464.500,166.000" stroke-width="2.876" stroke="black" fill="none" stroke-linecap="round"></path></svg>