<svg xmlns="http://www.w3.org/2000/svg" xmlns:xlink="http://www.w3.org/1999/xlink" viewBox="0 0 982 504" width="982" height="504"><path d="M 237.000,256.000 C 229.439,254.204 229.500,254.000 222.000,252.000" stroke-width="5.168" stroke="black" fill="none" stroke-linecap="round"></path><path d="M 222.000,252.000 C 215.941,250.160 215.939,250.204 210.000,248.000" stroke-width="3.635" stroke="black" fill="none" stroke-linecap="round"></path><path d="M 210.000,248.000 C 204.637,246.608 204.941,246.160 200.000,244.000" stroke-width="3.440" stroke="black" fill="none" stroke-linecap="round"></path><path d="M 200.000,244.000 C 196.965,241.541 196.637,242.108 194.000,239.000" stroke-width="3.671" stroke="black" fill="none" stroke-linecap="round"></path><path d="M 194.000,239.000 C 189.868,235.641 189.965,235.541 186.000,232.000" stroke-width="3.462" stroke="black" fill="none" stroke-linecap="round"></path><path d="M 186.000,232.000 C 181.898,226.979 181.368,227.641 177.000,223.000" stroke-width="3.225" stroke="black" fill="none" stroke-linecap="round"></path><path d="M 177.000,223.000 C 173.456,221.074 173.898,220.479 170.000,219.000" stroke-width="3.569" stroke="black" fill="none" stroke-linecap="round"></path><path d="M 170.000,219.000 C 166.017,216.472 165.956,216.574 162.000,214.000" stroke-width="3.653" stroke="black" fill="none" stroke-linecap="round"></path><path d="M 162.000,214.000 C 159.558,212.395 159.517,212.472 157.000,211.000" stroke-width="3.970" stroke="black" fill="none" stroke-linecap="round"></path><path d="M 157.000,211.000 C 154.000,209.500 154.058,209.395 151.000,208.000" stroke-width="4.014" stroke="black" fill="none" stroke-linecap="round"></path><path d="M 151.000,208.000 C 144.200,207.267 148.000,206.500 145.000,205.000" stroke-width="4.028" stroke="black" fill="none" stroke-linecap="round"></path><path d="M 145.000,205.000 C 149.899,196.720 147.200,198.767 157.000,191.000" stroke-width="4.785" stroke="black" fill="none" stroke-linecap="round"></path><path d="M 157.000,191.000 C 168.814,183.168 167.899,182.220 181.000,176.000" stroke-width="2.612" stroke="black" fill="none" stroke-linecap="round"></path><path d="M 181.000,176.000 C 185.917,173.324 185.814,173.168 191.000,171.000" stroke-width="3.065" stroke="black" fill="none" stroke-linecap="round"></path><path d="M 191.000,171.000 C 203.737,165.966 203.417,165.324 216.000,160.000" stroke-width="2.300" stroke="black" fill="none" stroke-linecap="round"></path><path d="M 216.000,160.000 C 222.552,157.256 222.237,156.966 228.000,153.000" stroke-width="2.850" stroke="black" fill="none" stroke-linecap="round"></path><path d="M 228.000,153.000 C 237.350,143.128 238.552,144.756 248.000,135.000" stroke-width="2.278" stroke="black" fill="none" stroke-linecap="round"></path><path d="M 248.000,135.000 C 256.928,129.376 256.350,128.628 266.000,124.000" stroke-width="2.380" stroke="black" fill="none" stroke-linecap="round"></path><path d="M 266.000,124.000 C 270.399,121.300 270.428,121.376 275.000,119.000" stroke-width="3.069" stroke="black" fill="none" stroke-linecap="round"></path><path d="M 275.000,119.000 C 280.491,116.479 280.399,116.300 286.000,114.000" stroke-width="3.163" stroke="black" fill="none" stroke-linecap="round"></path><path d="M 286.000,114.000 C 294.285,108.809 290.491,111.979 295.000,110.000" stroke-width="3.480" stroke="black" fill="none" stroke-linecap="round"></path><path d="M 295.000,110.000 C 291.587,114.257 295.785,111.309 289.000,119.000" stroke-width="4.592" stroke="black" fill="none" stroke-linecap="round"></path><path d="M 289.000,119.000 C 280.191,136.602 279.587,136.257 271.000,154.000" stroke-width="2.093" stroke="black" fill="none" stroke-linecap="round"></path><path d="M 271.000,154.000 C 265.823,162.905 266.191,163.102 261.000,172.000" stroke-width="2.389" stroke="black" fill="none" stroke-linecap="round"></path><path d="M 261.000,172.000 C 247.801,195.661 248.323,195.905 236.000,220.000" stroke-width="1.490" stroke="black" fill="none" stroke-linecap="round"></path><path d="M 236.000,220.000 C 226.109,246.421 223.801,245.161 213.000,271.000" stroke-width="1.314" stroke="black" fill="none" stroke-linecap="round"></path><path d="M 213.000,271.000 C 204.239,282.821 206.109,283.921 196.000,295.000" stroke-width="1.720" stroke="black" fill="none" stroke-linecap="round"></path><path d="M 196.000,295.000 C 182.501,317.771 181.239,316.821 167.000,339.000" stroke-width="1.461" stroke="black" fill="none" stroke-linecap="round"></path><path d="M 167.000,339.000 C 158.625,348.614 159.501,349.271 150.000,358.000" stroke-width="1.847" stroke="black" fill="none" stroke-linecap="round"></path><path d="M 150.000,358.000 C 142.016,367.565 141.625,367.114 133.000,376.000" stroke-width="2.136" stroke="black" fill="none" stroke-linecap="round"></path><path d="M 133.000,376.000 C 125.925,381.407 126.516,382.065 119.000,387.000" stroke-width="2.530" stroke="black" fill="none" stroke-linecap="round"></path><path d="M 119.000,387.000 C 112.742,391.717 112.925,391.907 107.000,397.000" stroke-width="2.743" stroke="black" fill="none" stroke-linecap="round"></path><path d="M 107.000,397.000 C 100.352,403.359 100.242,403.217 94.000,410.000" stroke-width="2.654" stroke="black" fill="none" stroke-linecap="round"></path><path d="M 94.000,410.000 C 89.989,415.565 89.352,414.859 85.000,420.000" stroke-width="2.977" stroke="black" fill="none" stroke-linecap="round"></path><path d="M 85.000,420.000 C 80.925,424.186 80.989,423.565 76.000,426.000" stroke-width="3.741" stroke="black" fill="none" stroke-linecap="round"></path><path d="M 76.000,426.000 C 70.836,427.569 71.425,427.686 66.000,427.000" stroke-width="3.536" stroke="black" fill="none" stroke-linecap="round"></path><path d="M 66.000,427.000 C 62.167,426.036 62.336,426.569 59.000,424.000" stroke-width="3.773" stroke="black" fill="none" stroke-linecap="round"></path><path d="M 59.000,424.000 C 55.130,421.353 55.167,421.536 52.000,418.000" stroke-width="3.628" stroke="black" fill="none" stroke-linecap="round"></path><path d="M 52.000,418.000 C 47.894,413.824 48.130,413.853 45.000,409.000" stroke-width="3.380" stroke="black" fill="none" stroke-linecap="round"></path><path d="M 45.000,409.000 C 42.839,406.055 43.394,406.324 43.000,403.000" stroke-width="3.892" stroke="black" fill="none" stroke-linecap="round"></path><path d="M 43.000,403.000 C 43.737,396.257 43.339,396.555 46.000,390.000" stroke-width="3.276" stroke="black" fill="none" stroke-linecap="round"></path><path d="M 46.000,390.000 C 52.069,372.522 52.237,372.757 60.000,356.000" stroke-width="2.061" stroke="black" fill="none" stroke-linecap="round"></path><path d="M 60.000,356.000 C 65.892,348.444 64.069,347.522 70.000,340.000" stroke-width="2.450" stroke="black" fill="none" stroke-linecap="round"></path><path d="M 70.000,340.000 C 72.700,328.764 74.892,329.944 78.000,319.000" stroke-width="2.372" stroke="black" fill="none" stroke-linecap="round"></path><path d="M 78.000,319.000 C 82.463,310.904 82.200,311.264 89.000,305.000" stroke-width="2.623" stroke="black" fill="none" stroke-linecap="round"></path><path d="M 89.000,305.000 C 99.013,298.018 97.963,296.904 109.000,291.000" stroke-width="2.333" stroke="black" fill="none" stroke-linecap="round"></path><path d="M 109.000,291.000 C 116.825,283.821 117.513,285.018 126.000,279.000" stroke-width="2.467" stroke="black" fill="none" stroke-linecap="round"></path><path d="M 126.000,279.000 C 146.426,267.634 146.325,268.321 168.000,260.000" stroke-width="1.714" stroke="black" fill="none" stroke-linecap="round"></path><path d="M 168.000,260.000 C 179.451,257.650 178.926,256.134 191.000,256.000" stroke-width="2.079" stroke="black" fill="none" stroke-linecap="round"></path><path d="M 191.000,256.000 C 200.506,255.055 200.451,254.650 210.000,254.000" stroke-width="2.396" stroke="black" fill="none" stroke-linecap="round"></path><path d="M 210.000,254.000 C 218.530,253.210 218.506,253.055 227.000,252.000" stroke-width="2.667" stroke="black" fill="none" stroke-linecap="round"></path><path d="M 227.000,252.000 C 236.440,251.853 236.030,250.710 245.000,249.000" stroke-width="2.699" stroke="black" fill="none" stroke-linecap="round"></path><path d="M 245.000,249.000 C 254.056,244.608 254.440,245.853 263.000,240.000" stroke-width="2.612" stroke="black" fill="none" stroke-linecap="round"></path><path d="M 263.000,240.000 C 270.465,235.932 270.556,236.108 278.000,232.000" stroke-width="2.691" stroke="black" fill="none" stroke-linecap="round"></path><path d="M 278.000,232.000 C 282.263,230.402 281.965,229.932 286.000,228.000" stroke-width="3.318" stroke="black" fill="none" stroke-linecap="round"></path><path d="M 286.000,228.000 C 288.880,225.340 289.263,225.902 292.000,223.000" stroke-width="3.676" stroke="black" fill="none" stroke-linecap="round"></path><path d="M 292.000,223.000 C 294.875,220.785 294.880,220.840 298.000,219.000" stroke-width="4.302" stroke="black" fill="none" stroke-linecap="round"></path><path d="M 298.000,219.000 C 301.943,216.873 301.875,216.785 306.000,215.000" stroke-width="3.792" stroke="black" fill="none" stroke-linecap="round"></path><path d="M 306.000,215.000 C 311.707,212.647 308.443,213.873 311.000,213.000" stroke-width="4.614" stroke="black" fill="none" stroke-linecap="round"></path><path d="M 311.000,213.000 C 306.049,214.301 309.707,213.647 302.000,217.000" stroke-width="4.969" stroke="black" fill="none" stroke-linecap="round"></path><path d="M 302.000,217.000 C 297.571,221.082 297.049,220.301 293.000,225.000" stroke-width="3.591" stroke="black" fill="none" stroke-linecap="round"></path><path d="M 293.000,225.000 C 287.000,230.000 287.071,230.082 281.000,235.000" stroke-width="3.035" stroke="black" fill="none" stroke-linecap="round"></path><path d="M 281.000,235.000 C 274.851,239.837 275.000,240.000 269.000,245.000" stroke-width="2.900" stroke="black" fill="none" stroke-linecap="round"></path><path d="M 269.000,245.000 C 266.613,247.624 266.351,247.337 264.000,250.000" stroke-width="3.576" stroke="black" fill="none" stroke-linecap="round"></path><path d="M 264.000,250.000 C 260.753,252.247 261.113,252.624 258.000,255.000" stroke-width="3.766" stroke="black" fill="none" stroke-linecap="round"></path><path d="M 258.000,255.000 C 254.432,258.943 254.253,258.747 251.000,263.000" stroke-width="3.487" stroke="black" fill="none" stroke-linecap="round"></path><path d="M 251.000,263.000 C 245.306,266.871 248.932,265.443 247.000,268.000" stroke-width="4.262" stroke="black" fill="none" stroke-linecap="round"></path><path d="M 247.000,268.000 C 255.143,271.827 251.306,270.871 263.000,271.000" stroke-width="3.931" stroke="black" fill="none" stroke-linecap="round"></path><path d="M 263.000,271.000 C 274.280,268.150 274.143,269.827 285.000,264.000" stroke-width="2.629" stroke="black" fill="none" stroke-linecap="round"></path><path d="M 285.000,264.000 C 289.399,261.300 289.780,262.150 294.000,259.000" stroke-width="3.139" stroke="black" fill="none" stroke-linecap="round"></path><path d="M 294.000,259.000 C 299.881,257.150 299.399,256.300 305.000,254.000" stroke-width="3.185" stroke="black" fill="none" stroke-linecap="round"></path><path d="M 305.000,254.000 C 313.361,249.323 312.881,249.150 320.000,243.000" stroke-width="2.818" stroke="black" fill="none" stroke-linecap="round"></path><path d="M 320.000,243.000 C 323.076,238.548 323.861,239.323 326.000,234.000" stroke-width="3.225" stroke="black" fill="none" stroke-linecap="round"></path><path d="M 326.000,234.000 C 327.700,231.599 327.576,231.548 329.000,229.000" stroke-width="3.805" stroke="black" fill="none" stroke-linecap="round"></path><path d="M 329.000,229.000 C 332.321,225.849 330.200,226.599 331.000,224.000" stroke-width="4.460" stroke="black" fill="none" stroke-linecap="round"></path><path d="M 331.000,224.000 C 325.453,218.549 327.321,218.849 319.000,215.000" stroke-width="4.081" stroke="black" fill="none" stroke-linecap="round"></path><path d="M 319.000,215.000 C 315.000,214.000 315.453,213.049 311.000,213.000" stroke-width="3.922" stroke="black" fill="none" stroke-linecap="round"></path><path d="M 311.000,213.000 C 307.067,211.452 307.000,212.000 303.000,211.000" stroke-width="3.713" stroke="black" fill="none" stroke-linecap="round"></path><path d="M 303.000,211.000 C 297.875,210.350 298.067,210.452 293.000,211.000" stroke-width="3.533" stroke="black" fill="none" stroke-linecap="round"></path><path d="M 293.000,211.000 C 289.975,211.233 290.375,211.350 288.000,213.000" stroke-width="4.020" stroke="black" fill="none" stroke-linecap="round"></path><path d="M 288.000,213.000 C 280.406,220.087 280.475,219.733 274.000,228.000" stroke-width="3.586" stroke="black" fill="none" stroke-linecap="round"></path><path d="M 274.000,228.000 C 272.136,230.875 271.906,230.587 271.000,234.000" stroke-width="3.888" stroke="black" fill="none" stroke-linecap="round"></path><path d="M 271.000,234.000 C 270.730,236.568 270.136,236.375 270.000,239.000" stroke-width="4.185" stroke="black" fill="none" stroke-linecap="round"></path><path d="M 270.000,239.000 C 268.000,241.432 269.230,241.568 268.000,244.000" stroke-width="4.245" stroke="black" fill="none" stroke-linecap="round"></path><path d="M 268.000,244.000 C 267.317,249.765 268.000,247.932 270.000,252.000" stroke-width="4.638" stroke="black" fill="none" stroke-linecap="round"></path><path d="M 270.000,252.000 C 274.991,253.046 273.317,254.765 280.000,254.000" stroke-width="3.791" stroke="black" fill="none" stroke-linecap="round"></path><path d="M 280.000,254.000 C 285.465,255.385 285.491,255.046 291.000,256.000" stroke-width="3.442" stroke="black" fill="none" stroke-linecap="round"></path><path d="M 291.000,256.000 C 294.500,256.000 294.465,256.385 298.000,256.000" stroke-width="3.804" stroke="black" fill="none" stroke-linecap="round"></path><path d="M 298.000,256.000 C 303.057,256.520 303.000,256.000 308.000,256.000" stroke-width="3.617" stroke="black" fill="none" stroke-linecap="round"></path><path d="M 308.000,256.000 C 312.462,254.789 312.557,255.520 317.000,254.000" stroke-width="3.583" stroke="black" fill="none" stroke-linecap="round"></path><path d="M 317.000,254.000 C 324.508,254.405 323.962,252.789 331.000,252.000" stroke-width="3.208" stroke="black" fill="none" stroke-linecap="round"></path><path d="M 331.000,252.000 C 337.716,248.320 338.008,249.405 344.000,244.000" stroke-width="3.033" stroke="black" fill="none" stroke-linecap="round"></path><path d="M 344.000,244.000 C 353.652,237.191 353.716,237.320 363.000,230.000" stroke-width="2.458" stroke="black" fill="none" stroke-linecap="round"></path><path d="M 363.000,230.000 C 366.615,227.124 366.652,227.191 370.000,224.000" stroke-width="3.185" stroke="black" fill="none" stroke-linecap="round"></path><path d="M 370.000,224.000 C 373.191,221.176 373.115,221.124 376.000,218.000" stroke-width="3.513" stroke="black" fill="none" stroke-linecap="round"></path><path d="M 376.000,218.000 C 384.887,208.297 384.691,208.176 393.000,198.000" stroke-width="2.488" stroke="black" fill="none" stroke-linecap="round"></path><path d="M 393.000,198.000 C 397.304,191.354 397.887,191.797 402.000,185.000" stroke-width="2.772" stroke="black" fill="none" stroke-linecap="round"></path><path d="M 402.000,185.000 C 407.444,180.785 405.804,179.854 410.000,175.000" stroke-width="3.063" stroke="black" fill="none" stroke-linecap="round"></path><path d="M 410.000,175.000 C 415.500,158.500 416.944,159.285 421.000,142.000" stroke-width="2.096" stroke="black" fill="none" stroke-linecap="round"></path><path d="M 421.000,142.000 C 422.361,137.449 422.500,137.500 424.000,133.000" stroke-width="2.930" stroke="black" fill="none" stroke-linecap="round"></path><path d="M 424.000,133.000 C 425.843,127.930 425.861,127.949 428.000,123.000" stroke-width="3.271" stroke="black" fill="none" stroke-linecap="round"></path><path d="M 428.000,123.000 C 429.395,119.942 429.343,119.930 431.000,117.000" stroke-width="3.809" stroke="black" fill="none" stroke-linecap="round"></path><path d="M 431.000,117.000 C 432.933,114.667 432.395,114.442 434.000,112.000" stroke-width="4.023" stroke="black" fill="none" stroke-linecap="round"></path><path d="M 434.000,112.000 C 436.116,107.670 434.933,109.667 435.000,107.000" stroke-width="4.570" stroke="black" fill="none" stroke-linecap="round"></path><path d="M 435.000,107.000 C 431.809,107.595 433.616,106.170 429.000,109.000" stroke-width="5.041" stroke="black" fill="none" stroke-linecap="round"></path><path d="M 429.000,109.000 C 425.011,111.517 424.809,111.095 421.000,114.000" stroke-width="3.886" stroke="black" fill="none" stroke-linecap="round"></path><path d="M 421.000,114.000 C 414.698,118.372 414.511,118.017 408.000,122.000" stroke-width="3.121" stroke="black" fill="none" stroke-linecap="round"></path><path d="M 408.000,122.000 C 402.198,123.968 402.698,124.872 397.000,127.000" stroke-width="3.236" stroke="black" fill="none" stroke-linecap="round"></path><path d="M 397.000,127.000 C 389.770,130.691 390.198,130.968 384.000,136.000" stroke-width="2.940" stroke="black" fill="none" stroke-linecap="round"></path><path d="M 384.000,136.000 C 378.503,143.497 377.270,142.191 372.000,150.000" stroke-width="2.703" stroke="black" fill="none" stroke-linecap="round"></path><path d="M 372.000,150.000 C 363.656,156.651 364.503,157.497 356.000,164.000" stroke-width="2.615" stroke="black" fill="none" stroke-linecap="round"></path><path d="M 356.000,164.000 C 350.357,168.274 351.156,168.651 347.000,174.000" stroke-width="2.909" stroke="black" fill="none" stroke-linecap="round"></path><path d="M 347.000,174.000 C 343.283,183.630 341.857,182.774 339.000,193.000" stroke-width="2.642" stroke="black" fill="none" stroke-linecap="round"></path><path d="M 339.000,193.000 C 334.388,200.742 335.283,201.130 331.000,209.000" stroke-width="2.652" stroke="black" fill="none" stroke-linecap="round"></path><path d="M 331.000,209.000 C 326.958,220.486 326.388,220.242 323.000,232.000" stroke-width="2.342" stroke="black" fill="none" stroke-linecap="round"></path><path d="M 323.000,232.000 C 321.500,236.500 321.458,236.486 320.000,241.000" stroke-width="3.064" stroke="black" fill="none" stroke-linecap="round"></path><path d="M 320.000,241.000 C 318.830,243.955 319.000,244.000 318.000,247.000" stroke-width="3.722" stroke="black" fill="none" stroke-linecap="round"></path><path d="M 318.000,247.000 C 315.884,251.330 317.330,249.455 317.000,252.000" stroke-width="4.587" stroke="black" fill="none" stroke-linecap="round"></path><path d="M 317.000,252.000 C 319.967,250.892 318.384,252.830 323.000,250.000" stroke-width="4.235" stroke="black" fill="none" stroke-linecap="round"></path><path d="M 323.000,250.000 C 328.470,248.383 328.467,248.392 334.000,247.000" stroke-width="3.587" stroke="black" fill="none" stroke-linecap="round"></path><path d="M 334.000,247.000 C 350.421,242.553 350.470,242.883 367.000,239.000" stroke-width="2.190" stroke="black" fill="none" stroke-linecap="round"></path><path d="M 367.000,239.000 C 371.483,238.196 371.421,238.053 376.000,238.000" stroke-width="3.051" stroke="black" fill="none" stroke-linecap="round"></path><path d="M 376.000,238.000 C 383.000,238.000 382.983,237.696 390.000,238.000" stroke-width="3.075" stroke="black" fill="none" stroke-linecap="round"></path><path d="M 390.000,238.000 C 395.000,238.000 395.000,238.000 400.000,238.000" stroke-width="3.833" stroke="black" fill="none" stroke-linecap="round"></path><path d="M 400.000,238.000 C 404.000,238.000 404.000,238.000 408.000,238.000" stroke-width="3.774" stroke="black" fill="none" stroke-linecap="round"></path><path d="M 408.000,238.000 C 415.094,236.177 411.000,238.000 414.000,238.000" stroke-width="4.563" stroke="black" fill="none" stroke-linecap="round"></path><path d="M 414.000,238.000 C 405.478,248.522 409.094,246.177 396.000,258.000" stroke-width="3.779" stroke="black" fill="none" stroke-linecap="round"></path><path d="M 396.000,258.000 C 391.832,260.807 392.478,261.522 388.000,264.000" stroke-width="3.610" stroke="black" fill="none" stroke-linecap="round"></path><path d="M 388.000,264.000 C 386.000,266.000 385.832,265.807 384.000,268.000" stroke-width="3.975" stroke="black" fill="none" stroke-linecap="round"></path><path d="M 384.000,268.000 C 378.056,273.189 381.500,270.500 379.000,273.000" stroke-width="4.429" stroke="black" fill="none" stroke-linecap="round"></path><path d="M 379.000,273.000 C 383.858,269.742 380.556,272.689 389.000,267.000" stroke-width="4.234" stroke="black" fill="none" stroke-linecap="round"></path><path d="M 389.000,267.000 C 398.888,261.759 398.858,261.742 409.000,257.000" stroke-width="2.786" stroke="black" fill="none" stroke-linecap="round"></path><path d="M 409.000,257.000 C 415.815,253.499 415.888,253.759 423.000,251.000" stroke-width="2.852" stroke="black" fill="none" stroke-linecap="round"></path><path d="M 423.000,251.000 C 439.015,246.048 438.815,245.499 455.000,241.000" stroke-width="2.039" stroke="black" fill="none" stroke-linecap="round"></path><path d="M 455.000,241.000 C 457.905,239.000 458.015,240.048 461.000,239.000" stroke-width="3.172" stroke="black" fill="none" stroke-linecap="round"></path><path d="M 461.000,239.000 C 468.475,240.373 468.405,239.000 476.000,241.000" stroke-width="4.448" stroke="black" fill="none" stroke-linecap="round"></path><path d="M 476.000,241.000 C 480.500,241.000 480.475,241.373 485.000,241.000" stroke-width="3.818" stroke="black" fill="none" stroke-linecap="round"></path><path d="M 485.000,241.000 C 496.019,240.533 496.000,241.000 507.000,241.000" stroke-width="2.747" stroke="black" fill="none" stroke-linecap="round"></path><path d="M 507.000,241.000 C 519.497,242.038 519.519,241.533 532.000,243.000" stroke-width="2.397" stroke="black" fill="none" stroke-linecap="round"></path><path d="M 532.000,243.000 C 539.321,242.330 538.997,243.538 546.000,244.000" stroke-width="2.838" stroke="black" fill="none" stroke-linecap="round"></path><path d="M 546.000,244.000 C 551.231,246.139 551.321,245.330 556.000,249.000" stroke-width="3.153" stroke="black" fill="none" stroke-linecap="round"></path><path d="M 556.000,249.000 C 558.906,250.645 558.731,250.639 561.000,253.000" stroke-width="3.712" stroke="black" fill="none" stroke-linecap="round"></path><path d="M 561.000,253.000 C 562.028,258.704 562.906,255.145 564.000,258.000" stroke-width="4.550" stroke="black" fill="none" stroke-linecap="round"></path><path d="M 564.000,258.000 C 569.073,252.445 569.028,256.204 575.000,248.000" stroke-width="4.029" stroke="black" fill="none" stroke-linecap="round"></path><path d="M 575.000,248.000 C 583.447,242.417 583.073,241.945 592.000,237.000" stroke-width="2.881" stroke="black" fill="none" stroke-linecap="round"></path><path d="M 592.000,237.000 C 598.324,232.683 598.447,232.917 605.000,229.000" stroke-width="2.879" stroke="black" fill="none" stroke-linecap="round"></path><path d="M 605.000,229.000 C 612.930,224.843 612.824,224.683 621.000,221.000" stroke-width="2.781" stroke="black" fill="none" stroke-linecap="round"></path><path d="M 621.000,221.000 C 623.500,220.000 623.430,219.843 626.000,219.000" stroke-width="3.680" stroke="black" fill="none" stroke-linecap="round"></path><path d="M 626.000,219.000 C 628.886,216.119 628.500,218.000 631.000,217.000" stroke-width="4.419" stroke="black" fill="none" stroke-linecap="round"></path><path d="M 631.000,217.000 C 635.937,219.686 634.886,218.619 638.000,224.000" stroke-width="4.375" stroke="black" fill="none" stroke-linecap="round"></path><path d="M 638.000,224.000 C 640.146,231.967 641.437,231.186 642.000,240.000" stroke-width="3.112" stroke="black" fill="none" stroke-linecap="round"></path><path d="M 642.000,240.000 C 641.336,246.271 643.146,244.967 644.000,250.000" stroke-width="3.384" stroke="black" fill="none" stroke-linecap="round"></path><path d="M 644.000,250.000 C 648.231,254.793 646.336,253.271 652.000,254.000" stroke-width="4.052" stroke="black" fill="none" stroke-linecap="round"></path><path d="M 652.000,254.000 C 657.814,250.367 657.731,252.793 663.000,246.000" stroke-width="3.355" stroke="black" fill="none" stroke-linecap="round"></path><path d="M 663.000,246.000 C 666.798,241.782 667.314,242.367 671.000,238.000" stroke-width="3.313" stroke="black" fill="none" stroke-linecap="round"></path><path d="M 671.000,238.000 C 681.212,227.283 681.798,228.282 693.000,219.000" stroke-width="2.267" stroke="black" fill="none" stroke-linecap="round"></path><path d="M 693.000,219.000 C 700.274,214.862 699.712,214.283 708.000,212.000" stroke-width="2.594" stroke="black" fill="none" stroke-linecap="round"></path><path d="M 708.000,212.000 C 713.896,209.407 713.774,209.862 720.000,209.000" stroke-width="2.973" stroke="black" fill="none" stroke-linecap="round"></path><path d="M 720.000,209.000 C 729.254,208.542 728.896,208.407 738.000,210.000" stroke-width="2.799" stroke="black" fill="none" stroke-linecap="round"></path><path d="M 738.000,210.000 C 741.287,211.101 741.254,210.542 744.000,213.000" stroke-width="3.481" stroke="black" fill="none" stroke-linecap="round"></path><path d="M 744.000,213.000 C 745.364,216.427 746.287,214.601 748.000,217.000" stroke-width="3.927" stroke="black" fill="none" stroke-linecap="round"></path><path d="M 748.000,217.000 C 757.589,218.724 756.864,218.927 767.000,218.000" stroke-width="4.029" stroke="black" fill="none" stroke-linecap="round"></path><path d="M 767.000,218.000 C 776.951,215.675 777.089,217.224 787.000,214.000" stroke-width="2.872" stroke="black" fill="none" stroke-linecap="round"></path><path d="M 787.000,214.000 C 797.000,212.276 791.951,213.175 797.000,213.000" stroke-width="3.257" stroke="black" fill="none" stroke-linecap="round"></path><path d="M 797.000,213.000 C 792.097,215.301 797.000,213.776 787.000,217.000" stroke-width="4.242" stroke="black" fill="none" stroke-linecap="round"></path><path d="M 787.000,217.000 C 783.028,218.137 783.097,218.301 779.000,219.000" stroke-width="3.857" stroke="black" fill="none" stroke-linecap="round"></path><path d="M 779.000,219.000 C 775.930,219.219 776.028,219.637 773.000,220.000" stroke-width="4.053" stroke="black" fill="none" stroke-linecap="round"></path><path d="M 773.000,220.000 C 768.624,222.037 768.430,221.219 764.000,223.000" stroke-width="3.608" stroke="black" fill="none" stroke-linecap="round"></path><path d="M 764.000,223.000 C 756.536,224.543 756.624,224.537 749.000,225.000" stroke-width="3.074" stroke="black" fill="none" stroke-linecap="round"></path><path d="M 749.000,225.000 C 739.983,224.514 740.036,225.543 731.000,225.000" stroke-width="2.826" stroke="black" fill="none" stroke-linecap="round"></path><path d="M 731.000,225.000 C 702.996,226.951 702.983,226.514 675.000,229.000" stroke-width="1.499" stroke="black" fill="none" stroke-linecap="round"></path><path d="M 675.000,229.000 C 641.444,230.909 641.496,231.451 608.000,234.000" stroke-width="1.267" stroke="black" fill="none" stroke-linecap="round"></path><path d="M 608.000,234.000 C 582.081,237.914 581.944,236.409 556.000,240.000" stroke-width="1.343" stroke="black" fill="none" stroke-linecap="round"></path><path d="M 556.000,240.000 C 506.939,242.360 507.081,243.914 458.000,246.000" stroke-width="1.125" stroke="black" fill="none" stroke-linecap="round"></path><path d="M 458.000,246.000 C 446.567,248.335 446.439,246.860 435.000,249.000" stroke-width="1.628" stroke="black" fill="none" stroke-linecap="round"></path><path d="M 435.000,249.000 C 402.994,251.000 403.067,250.835 371.000,251.000" stroke-width="1.240" stroke="black" fill="none" stroke-linecap="round"></path><path d="M 371.000,251.000 C 347.373,251.359 347.494,251.000 324.000,249.000" stroke-width="1.407" stroke="black" fill="none" stroke-linecap="round"></path><path d="M 324.000,249.000 C 291.194,250.154 292.873,245.859 262.000,240.000" stroke-width="1.256" stroke="black" fill="none" stroke-linecap="round"></path><path d="M 262.000,240.000 C 225.309,217.336 222.194,226.154 186.000,201.000" stroke-width="1.125" stroke="black" fill="none" stroke-linecap="round"></path><path d="M 186.000,201.000 C 147.566,185.454 148.309,185.336 108.000,176.000" stroke-width="1.125" stroke="black" fill="none" stroke-linecap="round"></path><path d="M 108.000,176.000 C 90.509,174.687 91.066,171.954 73.000,174.000" stroke-width="1.448" stroke="black" fill="none" stroke-linecap="round"></path><path d="M 73.000,174.000 C 64.919,173.340 65.009,173.687 57.000,174.000" stroke-width="2.153" stroke="black" fill="none" stroke-linecap="round"></path><path d="M 57.000,174.000 C 49.579,175.421 52.919,174.340 49.000,176.000" stroke-width="3.117" stroke="black" fill="none" stroke-linecap="round"></path><path d="M 49.000,176.000 C 52.000,176.000 48.579,176.421 55.000,176.000" stroke-width="4.372" stroke="black" fill="none" stroke-linecap="round"></path><path d="M 55.000,176.000 C 59.520,176.280 59.500,176.000 64.000,176.000" stroke-width="3.862" stroke="black" fill="none" stroke-linecap="round"></path><path d="M 64.000,176.000 C 67.506,175.538 67.520,175.780 71.000,175.000" stroke-width="3.939" stroke="black" fill="none" stroke-linecap="round"></path><path d="M 71.000,175.000 C 73.992,174.451 74.006,174.538 77.000,174.000" stroke-width="3.983" stroke="black" fill="none" stroke-linecap="round"></path><path d="M 77.000,174.000 C 83.979,172.810 83.992,172.951 91.000,172.000" stroke-width="3.361" stroke="black" fill="none" stroke-linecap="round"></path><path d="M 91.000,172.000 C 96.992,171.300 96.979,171.310 103.000,171.000" stroke-width="3.189" stroke="black" fill="none" stroke-linecap="round"></path><path d="M 216.000,186.000 C 225.399,182.618 225.500,183.000 235.000,180.000" stroke-width="4.398" stroke="black" fill="none" stroke-linecap="round"></path><path d="M 235.000,180.000 C 241.905,177.922 241.899,178.118 249.000,177.000" stroke-width="3.289" stroke="black" fill="none" stroke-linecap="round"></path><path d="M 249.000,177.000 C 291.878,170.141 291.905,171.422 335.000,167.000" stroke-width="1.177" stroke="black" fill="none" stroke-linecap="round"></path><path d="M 335.000,167.000 C 367.506,165.611 367.378,164.641 400.000,166.000" stroke-width="1.169" stroke="black" fill="none" stroke-linecap="round"></path><path d="M 400.000,166.000 C 451.027,166.889 451.006,166.611 502.000,169.000" stroke-width="1.125" stroke="black" fill="none" stroke-linecap="round"></path><path d="M 502.000,169.000 C 535.543,170.552 535.527,170.389 569.000,173.000" stroke-width="1.125" stroke="black" fill="none" stroke-linecap="round"></path><path d="M 569.000,173.000 C 576.464,174.543 576.543,173.552 584.000,175.000" stroke-width="1.860" stroke="black" fill="none" stroke-linecap="round"></path><path d="M 584.000,175.000 C 598.838,171.047 592.964,175.543 602.000,175.000" stroke-width="2.349" stroke="black" fill="none" stroke-linecap="round"></path><path d="M 602.000,175.000 C 599.708,182.922 604.838,178.547 596.000,190.000" stroke-width="3.544" stroke="black" fill="none" stroke-linecap="round"></path><path d="M 596.000,190.000 C 590.593,192.951 594.208,193.422 591.000,196.000" stroke-width="3.706" stroke="black" fill="none" stroke-linecap="round"></path><path d="M 591.000,196.000 C 593.313,202.545 591.593,200.451 598.000,205.000" stroke-width="4.004" stroke="black" fill="none" stroke-linecap="round"></path><path d="M 598.000,205.000 C 605.340,208.784 603.813,208.045 612.000,207.000" stroke-width="3.302" stroke="black" fill="none" stroke-linecap="round"></path><path d="M 612.000,207.000 C 633.221,198.963 633.340,201.284 654.000,190.000" stroke-width="1.828" stroke="black" fill="none" stroke-linecap="round"></path><path d="M 654.000,190.000 C 658.252,186.846 658.721,187.963 663.000,185.000" stroke-width="2.748" stroke="black" fill="none" stroke-linecap="round"></path><path d="M 663.000,185.000 C 667.619,182.403 667.252,183.346 672.000,183.000" stroke-width="3.225" stroke="black" fill="none" stroke-linecap="round"></path><path d="M 672.000,183.000 C 679.470,184.216 678.619,183.903 685.000,188.000" stroke-width="3.131" stroke="black" fill="none" stroke-linecap="round"></path><path d="M 685.000,188.000 C 688.043,191.968 688.970,190.716 691.000,196.000" stroke-width="3.407" stroke="black" fill="none" stroke-linecap="round"></path><path d="M 691.000,196.000 C 694.341,199.080 693.543,199.468 696.000,203.000" stroke-width="3.630" stroke="black" fill="none" stroke-linecap="round"></path><path d="M 696.000,203.000 C 700.067,212.336 699.841,212.080 702.000,222.000" stroke-width="2.762" stroke="black" fill="none" stroke-linecap="round"></path><path d="M 702.000,222.000 C 702.602,227.584 703.067,227.336 702.000,233.000" stroke-width="3.139" stroke="black" fill="none" stroke-linecap="round"></path><path d="M 702.000,233.000 C 701.324,236.617 701.602,236.584 700.000,240.000" stroke-width="3.659" stroke="black" fill="none" stroke-linecap="round"></path><path d="M 700.000,240.000 C 697.008,248.271 696.824,248.117 693.000,256.000" stroke-width="2.922" stroke="black" fill="none" stroke-linecap="round"></path><path d="M 693.000,256.000 C 689.752,261.684 690.008,261.771 686.000,267.000" stroke-width="3.100" stroke="black" fill="none" stroke-linecap="round"></path><path d="M 686.000,267.000 C 683.646,273.221 683.752,270.184 681.000,273.000" stroke-width="3.592" stroke="black" fill="none" stroke-linecap="round"></path><path d="M 681.000,273.000 C 674.296,270.441 677.646,272.721 674.000,266.000" stroke-width="4.077" stroke="black" fill="none" stroke-linecap="round"></path><path d="M 674.000,266.000 C 674.870,253.512 673.296,255.441 679.000,243.000" stroke-width="2.700" stroke="black" fill="none" stroke-linecap="round"></path><path d="M 679.000,243.000 C 681.878,240.342 680.370,239.512 685.000,238.000" stroke-width="4.188" stroke="black" fill="none" stroke-linecap="round"></path><path d="M 685.000,238.000 C 691.165,231.421 691.878,232.842 699.000,228.000" stroke-width="3.105" stroke="black" fill="none" stroke-linecap="round"></path><path d="M 699.000,228.000 C 727.024,215.845 726.665,215.921 756.000,207.000" stroke-width="1.442" stroke="black" fill="none" stroke-linecap="round"></path><path d="M 756.000,207.000 C 775.004,203.018 774.524,201.345 794.000,199.000" stroke-width="1.621" stroke="black" fill="none" stroke-linecap="round"></path><path d="M 794.000,199.000 C 800.948,197.209 801.004,197.518 808.000,196.000" stroke-width="2.376" stroke="black" fill="none" stroke-linecap="round"></path><path d="M 808.000,196.000 C 818.476,194.169 818.448,194.209 829.000,193.000" stroke-width="2.463" stroke="black" fill="none" stroke-linecap="round"></path><path d="M 829.000,193.000 C 832.426,191.971 831.976,192.669 835.000,193.000" stroke-width="3.414" stroke="black" fill="none" stroke-linecap="round"></path><path d="M 835.000,193.000 C 839.740,194.674 837.426,193.971 839.000,197.000" stroke-width="4.291" stroke="black" fill="none" stroke-linecap="round"></path><path d="M 839.000,197.000 C 834.448,206.746 836.240,205.674 828.000,215.000" stroke-width="2.790" stroke="black" fill="none" stroke-linecap="round"></path><path d="M 828.000,215.000 C 822.473,224.313 821.948,222.746 814.000,229.000" stroke-width="2.653" stroke="black" fill="none" stroke-linecap="round"></path><path d="M 814.000,229.000 C 797.676,235.997 798.973,237.313 781.000,241.000" stroke-width="1.958" stroke="black" fill="none" stroke-linecap="round"></path><path d="M 781.000,241.000 C 776.909,242.540 777.676,241.997 774.000,241.000" stroke-width="3.041" stroke="black" fill="none" stroke-linecap="round"></path><path d="M 774.000,241.000 C 767.521,237.559 768.409,238.040 764.000,232.000" stroke-width="2.988" stroke="black" fill="none" stroke-linecap="round"></path><path d="M 764.000,232.000 C 758.228,221.761 758.021,222.559 755.000,211.000" stroke-width="2.550" stroke="black" fill="none" stroke-linecap="round"></path><path d="M 755.000,211.000 C 754.131,206.347 753.728,206.761 755.000,202.000" stroke-width="3.247" stroke="black" fill="none" stroke-linecap="round"></path><path d="M 755.000,202.000 C 755.476,195.451 756.131,196.347 759.000,191.000" stroke-width="3.306" stroke="black" fill="none" stroke-linecap="round"></path></svg>