<svg xmlns="http://www.w3.org/2000/svg" xmlns:xlink="http://www.w3.org/1999/xlink" viewBox="0 0 692 576" width="692" height="576"><path d="M 224.000,313.000 C 220.471,313.289 220.500,313.000 217.000,313.000" stroke-width="5.372" stroke="black" fill="none" stroke-linecap="round"></path><path d="M 217.000,313.000 C 214.432,312.730 214.471,312.789 212.000,312.000" stroke-width="4.595" stroke="black" fill="none" stroke-linecap="round"></path><path d="M 212.000,312.000 C 209.500,311.000 209.432,311.230 207.000,310.000" stroke-width="4.318" stroke="black" fill="none" stroke-linecap="round"></path><path d="M 207.000,310.000 C 204.296,309.378 204.500,309.000 202.000,308.000" stroke-width="4.285" stroke="black" fill="none" stroke-linecap="round"></path><path d="M 202.000,308.000 C 197.075,304.384 196.796,304.878 192.000,301.000" stroke-width="4.134" stroke="black" fill="none" stroke-linecap="round"></path><path d="M 192.000,301.000 C 189.383,299.668 189.575,299.384 187.000,298.000" stroke-width="4.126" stroke="black" fill="none" stroke-linecap="round"></path><path d="M 187.000,298.000 C 184.656,295.771 184.383,296.168 182.000,294.000" stroke-width="4.098" stroke="black" fill="none" stroke-linecap="round"></path><path d="M 182.000,294.000 C 178.556,291.896 178.656,291.771 175.000,290.000" stroke-width="3.896" stroke="black" fill="none" stroke-linecap="round"></path><path d="M 175.000,290.000 C 170.823,288.294 171.056,287.896 167.000,286.000" stroke-width="4.252" stroke="black" fill="none" stroke-linecap="round"></path><path d="M 167.000,286.000 C 163.576,283.384 163.323,283.794 160.000,281.000" stroke-width="4.397" stroke="black" fill="none" stroke-linecap="round"></path><path d="M 160.000,281.000 C 155.210,280.098 157.576,279.384 155.000,278.000" stroke-width="4.827" stroke="black" fill="none" stroke-linecap="round"></path><path d="M 155.000,278.000 C 156.235,273.765 154.710,275.098 159.000,271.000" stroke-width="5.223" stroke="black" fill="none" stroke-linecap="round"></path><path d="M 159.000,271.000 C 163.033,268.550 162.235,267.765 167.000,266.000" stroke-width="3.918" stroke="black" fill="none" stroke-linecap="round"></path><path d="M 167.000,266.000 C 170.029,264.043 170.033,264.050 173.000,262.000" stroke-width="3.940" stroke="black" fill="none" stroke-linecap="round"></path><path d="M 173.000,262.000 C 178.306,258.865 178.029,258.543 183.000,255.000" stroke-width="3.384" stroke="black" fill="none" stroke-linecap="round"></path><path d="M 183.000,255.000 C 186.209,251.159 186.806,251.865 190.000,248.000" stroke-width="3.447" stroke="black" fill="none" stroke-linecap="round"></path><path d="M 190.000,248.000 C 195.379,243.823 195.209,243.659 201.000,240.000" stroke-width="3.152" stroke="black" fill="none" stroke-linecap="round"></path><path d="M 201.000,240.000 C 208.129,235.685 207.879,235.323 215.000,231.000" stroke-width="2.865" stroke="black" fill="none" stroke-linecap="round"></path><path d="M 215.000,231.000 C 219.097,228.122 219.129,228.185 223.000,225.000" stroke-width="3.258" stroke="black" fill="none" stroke-linecap="round"></path><path d="M 223.000,225.000 C 229.049,220.058 229.097,220.122 235.000,215.000" stroke-width="3.022" stroke="black" fill="none" stroke-linecap="round"></path><path d="M 235.000,215.000 C 239.117,211.625 239.049,211.558 243.000,208.000" stroke-width="3.264" stroke="black" fill="none" stroke-linecap="round"></path><path d="M 243.000,208.000 C 246.500,204.500 246.617,204.625 250.000,201.000" stroke-width="3.462" stroke="black" fill="none" stroke-linecap="round"></path><path d="M 250.000,201.000 C 252.722,198.692 252.500,198.500 255.000,196.000" stroke-width="3.758" stroke="black" fill="none" stroke-linecap="round"></path><path d="M 255.000,196.000 C 258.445,192.258 258.222,192.192 261.000,188.000" stroke-width="3.545" stroke="black" fill="none" stroke-linecap="round"></path><path d="M 261.000,188.000 C 264.470,181.000 262.945,184.758 264.000,181.000" stroke-width="4.190" stroke="black" fill="none" stroke-linecap="round"></path><path d="M 264.000,181.000 C 261.655,184.621 263.470,181.000 259.000,188.000" stroke-width="4.960" stroke="black" fill="none" stroke-linecap="round"></path><path d="M 259.000,188.000 C 255.589,191.203 256.155,191.621 253.000,195.000" stroke-width="3.897" stroke="black" fill="none" stroke-linecap="round"></path><path d="M 253.000,195.000 C 247.890,202.220 248.089,202.203 244.000,210.000" stroke-width="2.963" stroke="black" fill="none" stroke-linecap="round"></path><path d="M 244.000,210.000 C 242.802,214.625 241.890,214.220 241.000,219.000" stroke-width="3.339" stroke="black" fill="none" stroke-linecap="round"></path><path d="M 241.000,219.000 C 238.922,222.963 239.302,223.125 237.000,227.000" stroke-width="3.574" stroke="black" fill="none" stroke-linecap="round"></path><path d="M 237.000,227.000 C 233.962,233.483 233.922,233.463 231.000,240.000" stroke-width="3.128" stroke="black" fill="none" stroke-linecap="round"></path><path d="M 231.000,240.000 C 228.874,244.448 228.962,244.483 227.000,249.000" stroke-width="3.419" stroke="black" fill="none" stroke-linecap="round"></path><path d="M 227.000,249.000 C 225.682,253.076 225.374,252.948 224.000,257.000" stroke-width="3.640" stroke="black" fill="none" stroke-linecap="round"></path><path d="M 224.000,257.000 C 221.299,263.656 221.182,263.576 218.000,270.000" stroke-width="3.142" stroke="black" fill="none" stroke-linecap="round"></path><path d="M 218.000,270.000 C 214.418,275.953 214.799,276.156 211.000,282.000" stroke-width="3.109" stroke="black" fill="none" stroke-linecap="round"></path><path d="M 211.000,282.000 C 208.220,287.633 207.918,287.453 205.000,293.000" stroke-width="3.198" stroke="black" fill="none" stroke-linecap="round"></path><path d="M 205.000,293.000 C 202.141,297.603 202.220,297.633 199.000,302.000" stroke-width="3.362" stroke="black" fill="none" stroke-linecap="round"></path><path d="M 199.000,302.000 C 197.049,304.541 197.141,304.603 195.000,307.000" stroke-width="3.748" stroke="black" fill="none" stroke-linecap="round"></path><path d="M 195.000,307.000 C 191.855,310.384 192.049,310.541 189.000,314.000" stroke-width="3.677" stroke="black" fill="none" stroke-linecap="round"></path><path d="M 189.000,314.000 C 184.545,320.034 184.355,319.884 180.000,326.000" stroke-width="3.099" stroke="black" fill="none" stroke-linecap="round"></path><path d="M 180.000,326.000 C 176.703,330.679 176.545,330.534 173.000,335.000" stroke-width="3.226" stroke="black" fill="none" stroke-linecap="round"></path><path d="M 173.000,335.000 C 170.412,337.416 170.703,337.679 168.000,340.000" stroke-width="3.715" stroke="black" fill="none" stroke-linecap="round"></path><path d="M 168.000,340.000 C 163.270,344.815 163.412,344.916 159.000,350.000" stroke-width="3.293" stroke="black" fill="none" stroke-linecap="round"></path><path d="M 159.000,350.000 C 156.543,353.532 156.270,353.315 154.000,357.000" stroke-width="3.590" stroke="black" fill="none" stroke-linecap="round"></path><path d="M 154.000,357.000 C 151.217,361.180 151.043,361.032 148.000,365.000" stroke-width="3.437" stroke="black" fill="none" stroke-linecap="round"></path><path d="M 148.000,365.000 C 143.246,370.754 143.217,370.680 138.000,376.000" stroke-width="3.055" stroke="black" fill="none" stroke-linecap="round"></path><path d="M 138.000,376.000 C 134.762,379.395 134.746,379.254 131.000,382.000" stroke-width="3.447" stroke="black" fill="none" stroke-linecap="round"></path><path d="M 131.000,382.000 C 127.848,383.247 128.262,383.895 125.000,385.000" stroke-width="3.793" stroke="black" fill="none" stroke-linecap="round"></path><path d="M 125.000,385.000 C 121.355,387.316 121.348,387.247 118.000,390.000" stroke-width="3.752" stroke="black" fill="none" stroke-linecap="round"></path><path d="M 118.000,390.000 C 113.972,393.469 113.855,393.316 110.000,397.000" stroke-width="4.047" stroke="black" fill="none" stroke-linecap="round"></path><path d="M 110.000,397.000 C 105.208,401.768 104.972,401.469 100.000,406.000" stroke-width="3.298" stroke="black" fill="none" stroke-linecap="round"></path><path d="M 100.000,406.000 C 97.000,408.000 97.208,408.268 94.000,410.000" stroke-width="3.729" stroke="black" fill="none" stroke-linecap="round"></path><path d="M 94.000,410.000 C 91.196,412.402 91.000,412.000 88.000,414.000" stroke-width="3.777" stroke="black" fill="none" stroke-linecap="round"></path><path d="M 88.000,414.000 C 85.077,415.341 85.196,415.402 82.000,416.000" stroke-width="4.039" stroke="black" fill="none" stroke-linecap="round"></path><path d="M 82.000,416.000 C 78.013,416.713 78.077,416.841 74.000,417.000" stroke-width="4.382" stroke="black" fill="none" stroke-linecap="round"></path><path d="M 74.000,417.000 C 70.833,417.708 71.013,417.213 68.000,417.000" stroke-width="4.174" stroke="black" fill="none" stroke-linecap="round"></path><path d="M 68.000,417.000 C 64.409,416.208 64.833,416.208 62.000,414.000" stroke-width="4.528" stroke="black" fill="none" stroke-linecap="round"></path><path d="M 62.000,414.000 C 58.693,410.190 58.409,410.708 56.000,406.000" stroke-width="3.789" stroke="black" fill="none" stroke-linecap="round"></path><path d="M 56.000,406.000 C 54.287,403.088 54.193,403.190 53.000,400.000" stroke-width="3.909" stroke="black" fill="none" stroke-linecap="round"></path><path d="M 53.000,400.000 C 52.063,396.978 51.787,397.088 51.000,394.000" stroke-width="4.041" stroke="black" fill="none" stroke-linecap="round"></path><path d="M 51.000,394.000 C 49.226,390.085 49.563,389.978 48.000,386.000" stroke-width="3.710" stroke="black" fill="none" stroke-linecap="round"></path><path d="M 48.000,386.000 C 45.605,380.054 46.226,380.085 45.000,374.000" stroke-width="3.438" stroke="black" fill="none" stroke-linecap="round"></path><path d="M 45.000,374.000 C 44.343,369.521 44.605,370.054 46.000,366.000" stroke-width="3.694" stroke="black" fill="none" stroke-linecap="round"></path><path d="M 46.000,366.000 C 49.130,361.147 48.343,361.021 53.000,357.000" stroke-width="3.459" stroke="black" fill="none" stroke-linecap="round"></path><path d="M 53.000,357.000 C 56.402,353.878 56.130,353.647 60.000,351.000" stroke-width="3.588" stroke="black" fill="none" stroke-linecap="round"></path><path d="M 60.000,351.000 C 63.917,347.882 63.902,347.878 68.000,345.000" stroke-width="3.436" stroke="black" fill="none" stroke-linecap="round"></path><path d="M 68.000,345.000 C 72.231,341.498 72.417,341.882 77.000,339.000" stroke-width="3.437" stroke="black" fill="none" stroke-linecap="round"></path><path d="M 77.000,339.000 C 83.009,336.522 82.731,335.998 89.000,334.000" stroke-width="3.197" stroke="black" fill="none" stroke-linecap="round"></path><path d="M 89.000,334.000 C 92.386,332.112 92.509,332.522 96.000,331.000" stroke-width="3.649" stroke="black" fill="none" stroke-linecap="round"></path><path d="M 96.000,331.000 C 99.000,330.500 98.886,330.112 102.000,330.000" stroke-width="3.938" stroke="black" fill="none" stroke-linecap="round"></path><path d="M 102.000,330.000 C 107.969,328.754 108.000,329.000 114.000,328.000" stroke-width="3.452" stroke="black" fill="none" stroke-linecap="round"></path><path d="M 114.000,328.000 C 120.004,327.545 119.969,327.254 126.000,327.000" stroke-width="3.339" stroke="black" fill="none" stroke-linecap="round"></path><path d="M 126.000,327.000 C 131.019,326.650 131.004,326.545 136.000,326.000" stroke-width="3.419" stroke="black" fill="none" stroke-linecap="round"></path><path d="M 136.000,326.000 C 142.533,325.176 142.519,325.150 149.000,324.000" stroke-width="3.242" stroke="black" fill="none" stroke-linecap="round"></path><path d="M 149.000,324.000 C 153.564,323.232 153.533,323.176 158.000,322.000" stroke-width="3.515" stroke="black" fill="none" stroke-linecap="round"></path><path d="M 158.000,322.000 C 162.551,320.639 162.564,320.732 167.000,319.000" stroke-width="3.526" stroke="black" fill="none" stroke-linecap="round"></path><path d="M 167.000,319.000 C 172.139,317.288 172.051,317.139 177.000,315.000" stroke-width="3.468" stroke="black" fill="none" stroke-linecap="round"></path><path d="M 177.000,315.000 C 180.544,313.074 180.639,313.288 184.000,311.000" stroke-width="3.654" stroke="black" fill="none" stroke-linecap="round"></path><path d="M 184.000,311.000 C 188.076,308.616 188.044,308.574 192.000,306.000" stroke-width="3.572" stroke="black" fill="none" stroke-linecap="round"></path><path d="M 192.000,306.000 C 198.294,301.152 198.576,301.616 205.000,297.000" stroke-width="3.018" stroke="black" fill="none" stroke-linecap="round"></path><path d="M 205.000,297.000 C 209.065,295.119 208.794,294.652 213.000,293.000" stroke-width="3.500" stroke="black" fill="none" stroke-linecap="round"></path><path d="M 213.000,293.000 C 215.366,291.229 215.565,291.619 218.000,290.000" stroke-width="3.914" stroke="black" fill="none" stroke-linecap="round"></path><path d="M 218.000,290.000 C 223.021,288.050 222.866,287.729 228.000,286.000" stroke-width="3.510" stroke="black" fill="none" stroke-linecap="round"></path><path d="M 228.000,286.000 C 231.449,284.366 231.521,284.550 235.000,283.000" stroke-width="3.809" stroke="black" fill="none" stroke-linecap="round"></path><path d="M 235.000,283.000 C 238.029,282.080 237.949,281.866 241.000,281.000" stroke-width="3.962" stroke="black" fill="none" stroke-linecap="round"></path><path d="M 241.000,281.000 C 243.500,280.000 243.529,280.080 246.000,279.000" stroke-width="4.174" stroke="black" fill="none" stroke-linecap="round"></path><path d="M 246.000,279.000 C 248.599,278.200 248.500,278.000 251.000,277.000" stroke-width="4.768" stroke="black" fill="none" stroke-linecap="round"></path><path d="M 251.000,277.000 C 253.401,275.300 253.599,275.700 256.000,274.000" stroke-width="4.791" stroke="black" fill="none" stroke-linecap="round"></path><path d="M 256.000,274.000 C 261.000,272.257 258.401,272.800 261.000,272.000" stroke-width="4.808" stroke="black" fill="none" stroke-linecap="round"></path><path d="M 261.000,272.000 C 258.471,272.382 261.000,271.757 256.000,273.000" stroke-width="5.082" stroke="black" fill="none" stroke-linecap="round"></path><path d="M 256.000,273.000 C 252.342,273.593 252.471,273.882 249.000,275.000" stroke-width="4.224" stroke="black" fill="none" stroke-linecap="round"></path><path d="M 249.000,275.000 C 242.688,277.524 242.842,277.593 237.000,281.000" stroke-width="3.335" stroke="black" fill="none" stroke-linecap="round"></path><path d="M 237.000,281.000 C 233.900,283.390 233.688,283.024 231.000,286.000" stroke-width="3.635" stroke="black" fill="none" stroke-linecap="round"></path><path d="M 231.000,286.000 C 228.876,287.889 228.900,287.890 227.000,290.000" stroke-width="3.984" stroke="black" fill="none" stroke-linecap="round"></path><path d="M 227.000,290.000 C 224.881,292.413 224.876,292.389 223.000,295.000" stroke-width="4.055" stroke="black" fill="none" stroke-linecap="round"></path><path d="M 223.000,295.000 C 220.598,297.804 220.881,297.913 219.000,301.000" stroke-width="4.416" stroke="black" fill="none" stroke-linecap="round"></path><path d="M 219.000,301.000 C 216.811,303.982 217.598,303.804 217.000,307.000" stroke-width="4.139" stroke="black" fill="none" stroke-linecap="round"></path><path d="M 217.000,307.000 C 217.610,312.486 217.311,311.982 220.000,317.000" stroke-width="4.232" stroke="black" fill="none" stroke-linecap="round"></path><path d="M 220.000,317.000 C 222.752,320.752 222.110,320.986 226.000,324.000" stroke-width="3.745" stroke="black" fill="none" stroke-linecap="round"></path><path d="M 226.000,324.000 C 228.709,326.975 228.752,326.752 232.000,329.000" stroke-width="3.769" stroke="black" fill="none" stroke-linecap="round"></path><path d="M 232.000,329.000 C 235.313,331.631 235.209,330.975 239.000,332.000" stroke-width="3.849" stroke="black" fill="none" stroke-linecap="round"></path><path d="M 239.000,332.000 C 245.631,332.062 245.313,332.631 252.000,331.000" stroke-width="3.292" stroke="black" fill="none" stroke-linecap="round"></path><path d="M 252.000,331.000 C 254.690,330.347 254.631,330.562 257.000,329.000" stroke-width="3.884" stroke="black" fill="none" stroke-linecap="round"></path><path d="M 257.000,329.000 C 260.422,326.385 260.690,326.847 264.000,324.000" stroke-width="3.778" stroke="black" fill="none" stroke-linecap="round"></path><path d="M 264.000,324.000 C 269.684,320.752 269.422,320.385 275.000,317.000" stroke-width="3.341" stroke="black" fill="none" stroke-linecap="round"></path><path d="M 275.000,317.000 C 278.375,314.875 278.184,314.752 281.000,312.000" stroke-width="3.685" stroke="black" fill="none" stroke-linecap="round"></path><path d="M 281.000,312.000 C 290.078,303.754 288.875,303.375 296.000,294.000" stroke-width="3.768" stroke="black" fill="none" stroke-linecap="round"></path><path d="M 296.000,294.000 C 300.325,287.487 298.578,289.754 298.000,284.000" stroke-width="4.377" stroke="black" fill="none" stroke-linecap="round"></path><path d="M 298.000,284.000 C 291.333,279.000 294.325,278.487 284.000,276.000" stroke-width="3.968" stroke="black" fill="none" stroke-linecap="round"></path><path d="M 284.000,276.000 C 279.996,275.000 280.333,274.500 276.000,275.000" stroke-width="3.860" stroke="black" fill="none" stroke-linecap="round"></path><path d="M 276.000,275.000 C 272.462,275.308 272.496,275.000 269.000,276.000" stroke-width="3.834" stroke="black" fill="none" stroke-linecap="round"></path><path d="M 269.000,276.000 C 264.780,276.443 264.962,276.808 261.000,278.000" stroke-width="3.748" stroke="black" fill="none" stroke-linecap="round"></path><path d="M 261.000,278.000 C 256.265,280.157 256.280,279.943 252.000,283.000" stroke-width="3.514" stroke="black" fill="none" stroke-linecap="round"></path><path d="M 252.000,283.000 C 248.421,285.041 248.765,285.157 246.000,288.000" stroke-width="3.745" stroke="black" fill="none" stroke-linecap="round"></path><path d="M 246.000,288.000 C 244.405,290.956 243.921,290.541 243.000,294.000" stroke-width="3.843" stroke="black" fill="none" stroke-linecap="round"></path><path d="M 243.000,294.000 C 240.226,297.381 241.405,297.456 240.000,301.000" stroke-width="4.341" stroke="black" fill="none" stroke-linecap="round"></path><path d="M 240.000,301.000 C 240.882,305.530 239.726,305.381 242.000,310.000" stroke-width="4.337" stroke="black" fill="none" stroke-linecap="round"></path><path d="M 242.000,310.000 C 241.634,314.634 242.882,313.530 244.000,317.000" stroke-width="4.506" stroke="black" fill="none" stroke-linecap="round"></path><path d="M 244.000,317.000 C 248.794,320.373 247.634,320.634 254.000,322.000" stroke-width="4.288" stroke="black" fill="none" stroke-linecap="round"></path><path d="M 254.000,322.000 C 257.053,322.465 256.794,322.873 260.000,322.000" stroke-width="4.148" stroke="black" fill="none" stroke-linecap="round"></path><path d="M 260.000,322.000 C 266.563,320.733 266.553,320.965 273.000,319.000" stroke-width="3.396" stroke="black" fill="none" stroke-linecap="round"></path><path d="M 273.000,319.000 C 279.526,317.081 279.563,317.233 286.000,315.000" stroke-width="3.071" stroke="black" fill="none" stroke-linecap="round"></path><path d="M 286.000,315.000 C 293.534,312.597 293.526,312.581 301.000,310.000" stroke-width="2.898" stroke="black" fill="none" stroke-linecap="round"></path><path d="M 301.000,310.000 C 305.249,308.986 305.034,308.597 309.000,307.000" stroke-width="3.442" stroke="black" fill="none" stroke-linecap="round"></path><path d="M 309.000,307.000 C 313.627,304.180 313.749,304.486 318.000,301.000" stroke-width="3.439" stroke="black" fill="none" stroke-linecap="round"></path><path d="M 318.000,301.000 C 330.495,292.521 330.127,292.180 342.000,283.000" stroke-width="2.247" stroke="black" fill="none" stroke-linecap="round"></path><path d="M 342.000,283.000 C 345.632,280.519 344.995,280.521 347.000,277.000" stroke-width="3.206" stroke="black" fill="none" stroke-linecap="round"></path><path d="M 347.000,277.000 C 348.451,271.037 349.132,271.519 349.000,265.000" stroke-width="3.198" stroke="black" fill="none" stroke-linecap="round"></path><path d="M 349.000,265.000 C 349.000,260.000 349.451,260.037 349.000,255.000" stroke-width="3.378" stroke="black" fill="none" stroke-linecap="round"></path><path d="M 349.000,255.000 C 350.678,247.021 349.000,249.500 349.000,244.000" stroke-width="3.404" stroke="black" fill="none" stroke-linecap="round"></path><path d="M 349.000,244.000 C 343.254,247.243 348.178,242.521 344.000,246.000" stroke-width="4.665" stroke="black" fill="none" stroke-linecap="round"></path><path d="M 344.000,246.000 C 349.152,239.646 346.254,242.243 355.000,234.000" stroke-width="4.537" stroke="black" fill="none" stroke-linecap="round"></path><path d="M 355.000,234.000 C 363.539,225.392 363.652,225.646 373.000,218.000" stroke-width="2.726" stroke="black" fill="none" stroke-linecap="round"></path><path d="M 373.000,218.000 C 379.895,213.325 379.539,212.892 387.000,209.000" stroke-width="2.806" stroke="black" fill="none" stroke-linecap="round"></path><path d="M 387.000,209.000 C 392.079,207.268 391.395,206.325 396.000,204.000" stroke-width="3.260" stroke="black" fill="none" stroke-linecap="round"></path><path d="M 396.000,204.000 C 403.845,196.805 404.079,197.268 411.000,189.000" stroke-width="2.622" stroke="black" fill="none" stroke-linecap="round"></path><path d="M 411.000,189.000 C 414.537,184.528 414.845,184.805 418.000,180.000" stroke-width="3.053" stroke="black" fill="none" stroke-linecap="round"></path><path d="M 418.000,180.000 C 424.293,174.050 421.037,176.028 424.000,172.000" stroke-width="3.856" stroke="black" fill="none" stroke-linecap="round"></path><path d="M 424.000,172.000 C 419.850,171.066 423.793,170.550 417.000,173.000" stroke-width="4.794" stroke="black" fill="none" stroke-linecap="round"></path><path d="M 417.000,173.000 C 406.623,182.148 405.850,180.566 396.000,191.000" stroke-width="2.567" stroke="black" fill="none" stroke-linecap="round"></path><path d="M 396.000,191.000 C 388.183,196.646 388.623,197.148 381.000,203.000" stroke-width="2.560" stroke="black" fill="none" stroke-linecap="round"></path><path d="M 381.000,203.000 C 375.129,208.164 375.183,208.146 370.000,214.000" stroke-width="2.757" stroke="black" fill="none" stroke-linecap="round"></path><path d="M 370.000,214.000 C 360.921,224.937 360.629,224.664 352.000,236.000" stroke-width="2.266" stroke="black" fill="none" stroke-linecap="round"></path><path d="M 352.000,236.000 C 348.050,240.207 348.421,240.437 345.000,245.000" stroke-width="2.894" stroke="black" fill="none" stroke-linecap="round"></path><path d="M 345.000,245.000 C 340.769,251.203 341.050,251.207 338.000,258.000" stroke-width="2.975" stroke="black" fill="none" stroke-linecap="round"></path><path d="M 338.000,258.000 C 335.416,264.918 335.269,264.703 334.000,272.000" stroke-width="2.954" stroke="black" fill="none" stroke-linecap="round"></path><path d="M 334.000,272.000 C 333.730,275.027 333.416,274.918 334.000,278.000" stroke-width="3.705" stroke="black" fill="none" stroke-linecap="round"></path><path d="M 334.000,278.000 C 334.197,280.590 334.230,280.527 335.000,283.000" stroke-width="4.119" stroke="black" fill="none" stroke-linecap="round"></path><path d="M 335.000,283.000 C 336.950,288.021 336.697,288.090 339.000,293.000" stroke-width="3.558" stroke="black" fill="none" stroke-linecap="round"></path><path d="M 339.000,293.000 C 340.722,296.421 340.450,296.521 342.000,300.000" stroke-width="3.731" stroke="black" fill="none" stroke-linecap="round"></path><path d="M 342.000,300.000 C 343.579,303.419 343.222,303.421 344.000,307.000" stroke-width="3.874" stroke="black" fill="none" stroke-linecap="round"></path><path d="M 344.000,307.000 C 342.362,317.409 344.579,311.919 344.000,317.000" stroke-width="4.193" stroke="black" fill="none" stroke-linecap="round"></path><path d="M 344.000,317.000 C 348.508,311.286 346.362,316.409 352.000,305.000" stroke-width="4.924" stroke="black" fill="none" stroke-linecap="round"></path><path d="M 352.000,305.000 C 356.119,297.743 356.008,297.786 359.000,290.000" stroke-width="3.184" stroke="black" fill="none" stroke-linecap="round"></path><path d="M 359.000,290.000 C 361.321,274.801 364.119,276.243 368.000,262.000" stroke-width="2.235" stroke="black" fill="none" stroke-linecap="round"></path><path d="M 368.000,262.000 C 374.893,252.397 373.321,251.801 383.000,244.000" stroke-width="2.268" stroke="black" fill="none" stroke-linecap="round"></path><path d="M 383.000,244.000 C 389.301,238.242 388.893,237.897 396.000,233.000" stroke-width="2.622" stroke="black" fill="none" stroke-linecap="round"></path><path d="M 396.000,233.000 C 400.881,229.312 400.801,229.242 406.000,226.000" stroke-width="2.940" stroke="black" fill="none" stroke-linecap="round"></path><path d="M 406.000,226.000 C 409.656,222.000 409.381,223.812 413.000,222.000" stroke-width="3.458" stroke="black" fill="none" stroke-linecap="round"></path><path d="M 413.000,222.000 C 417.740,223.143 415.656,222.000 418.000,226.000" stroke-width="4.249" stroke="black" fill="none" stroke-linecap="round"></path><path d="M 418.000,226.000 C 417.305,235.200 418.740,234.143 415.000,244.000" stroke-width="3.043" stroke="black" fill="none" stroke-linecap="round"></path><path d="M 415.000,244.000 C 411.319,256.124 411.805,256.200 407.000,268.000" stroke-width="2.382" stroke="black" fill="none" stroke-linecap="round"></path><path d="M 407.000,268.000 C 405.309,272.670 405.319,272.624 403.000,277.000" stroke-width="3.101" stroke="black" fill="none" stroke-linecap="round"></path><path d="M 403.000,277.000 C 397.888,281.666 401.309,280.170 399.000,283.000" stroke-width="3.650" stroke="black" fill="none" stroke-linecap="round"></path><path d="M 399.000,283.000 C 403.888,284.480 400.388,284.666 408.000,283.000" stroke-width="4.467" stroke="black" fill="none" stroke-linecap="round"></path><path d="M 408.000,283.000 C 416.133,278.720 416.388,279.980 424.000,274.000" stroke-width="2.991" stroke="black" fill="none" stroke-linecap="round"></path><path d="M 424.000,274.000 C 430.873,269.276 431.133,269.720 438.000,265.000" stroke-width="2.823" stroke="black" fill="none" stroke-linecap="round"></path><path d="M 438.000,265.000 C 440.912,263.287 440.873,263.276 444.000,262.000" stroke-width="3.535" stroke="black" fill="none" stroke-linecap="round"></path><path d="M 444.000,262.000 C 448.394,258.394 446.912,260.787 450.000,260.000" stroke-width="4.289" stroke="black" fill="none" stroke-linecap="round"></path><path d="M 450.000,260.000 C 453.228,265.528 452.894,262.894 453.000,271.000" stroke-width="4.213" stroke="black" fill="none" stroke-linecap="round"></path><path d="M 453.000,271.000 C 450.868,277.463 452.728,277.528 449.000,284.000" stroke-width="3.387" stroke="black" fill="none" stroke-linecap="round"></path><path d="M 449.000,284.000 C 447.541,287.943 447.868,287.963 447.000,292.000" stroke-width="3.658" stroke="black" fill="none" stroke-linecap="round"></path><path d="M 447.000,292.000 C 446.751,295.518 446.541,295.443 447.000,299.000" stroke-width="3.833" stroke="black" fill="none" stroke-linecap="round"></path><path d="M 447.000,299.000 C 445.808,303.639 447.251,302.518 448.000,306.000" stroke-width="3.880" stroke="black" fill="none" stroke-linecap="round"></path><path d="M 448.000,306.000 C 453.582,311.047 452.308,310.639 460.000,313.000" stroke-width="3.295" stroke="black" fill="none" stroke-linecap="round"></path><path d="M 460.000,313.000 C 465.509,313.229 465.082,314.547 471.000,313.000" stroke-width="3.430" stroke="black" fill="none" stroke-linecap="round"></path><path d="M 471.000,313.000 C 477.655,313.269 477.509,312.729 484.000,312.000" stroke-width="3.192" stroke="black" fill="none" stroke-linecap="round"></path><path d="M 484.000,312.000 C 489.923,309.688 490.155,310.769 496.000,308.000" stroke-width="3.156" stroke="black" fill="none" stroke-linecap="round"></path><path d="M 496.000,308.000 C 499.592,305.905 498.923,307.188 502.000,307.000" stroke-width="4.136" stroke="black" fill="none" stroke-linecap="round"></path><path d="M 502.000,307.000 C 504.250,310.250 505.092,308.405 507.000,313.000" stroke-width="4.771" stroke="black" fill="none" stroke-linecap="round"></path><path d="M 507.000,313.000 C 509.378,316.886 509.750,315.750 513.000,318.000" stroke-width="4.031" stroke="black" fill="none" stroke-linecap="round"></path><path d="M 513.000,318.000 C 522.954,320.114 522.378,320.886 533.000,321.000" stroke-width="2.808" stroke="black" fill="none" stroke-linecap="round"></path><path d="M 533.000,321.000 C 540.066,321.603 539.954,321.614 547.000,321.000" stroke-width="2.940" stroke="black" fill="none" stroke-linecap="round"></path><path d="M 547.000,321.000 C 551.438,319.434 551.566,320.603 556.000,319.000" stroke-width="3.401" stroke="black" fill="none" stroke-linecap="round"></path><path d="M 556.000,319.000 C 562.000,319.000 561.938,318.434 568.000,319.000" stroke-width="3.328" stroke="black" fill="none" stroke-linecap="round"></path><path d="M 568.000,319.000 C 575.871,319.187 571.000,319.000 574.000,319.000" stroke-width="4.216" stroke="black" fill="none" stroke-linecap="round"></path><path d="M 574.000,319.000 C 561.023,317.543 565.871,318.187 548.000,317.000" stroke-width="4.632" stroke="black" fill="none" stroke-linecap="round"></path><path d="M 548.000,317.000 C 524.989,316.802 525.023,316.043 502.000,316.000" stroke-width="1.828" stroke="black" fill="none" stroke-linecap="round"></path><path d="M 502.000,316.000 C 482.003,314.926 481.989,315.302 462.000,314.000" stroke-width="1.666" stroke="black" fill="none" stroke-linecap="round"></path><path d="M 462.000,314.000 C 428.007,312.316 428.003,312.426 394.000,311.000" stroke-width="1.246" stroke="black" fill="none" stroke-linecap="round"></path><path d="M 394.000,311.000 C 350.494,309.652 350.507,309.316 307.000,308.000" stroke-width="1.125" stroke="black" fill="none" stroke-linecap="round"></path><path d="M 307.000,308.000 C 271.517,305.710 271.494,306.652 236.000,305.000" stroke-width="1.125" stroke="black" fill="none" stroke-linecap="round"></path><path d="M 236.000,305.000 C 196.489,304.303 196.517,304.210 157.000,305.000" stroke-width="1.125" stroke="black" fill="none" stroke-linecap="round"></path><path d="M 157.000,305.000 C 111.490,308.000 111.489,305.803 66.000,308.000" stroke-width="1.125" stroke="black" fill="none" stroke-linecap="round"></path><path d="M 66.000,308.000 C 31.532,313.564 33.990,308.000 2.000,305.000" stroke-width="1.125" stroke="black" fill="none" stroke-linecap="round"></path></svg>