<svg xmlns="http://www.w3.org/2000/svg" xmlns:xlink="http://www.w3.org/1999/xlink" viewBox="0 0 453 236" width="453" height="236"><path d="M 256.500,32.000 C 248.000,32.000 248.000,32.000 239.500,32.000" stroke-width="3.760" stroke="black" fill="none" stroke-linecap="round"></path><path d="M 239.500,32.000 C 234.960,31.554 235.000,32.000 230.500,32.000" stroke-width="3.753" stroke="black" fill="none" stroke-linecap="round"></path><path d="M 230.500,32.000 C 224.885,32.550 224.960,32.554 219.500,34.000" stroke-width="3.550" stroke="black" fill="none" stroke-linecap="round"></path><path d="M 219.500,34.000 C 211.728,35.868 211.885,36.050 204.500,39.000" stroke-width="3.080" stroke="black" fill="none" stroke-linecap="round"></path><path d="M 204.500,39.000 C 197.049,43.095 196.728,42.368 189.500,47.000" stroke-width="2.947" stroke="black" fill="none" stroke-linecap="round"></path><path d="M 189.500,47.000 C 182.199,49.981 182.549,50.595 175.500,54.000" stroke-width="2.990" stroke="black" fill="none" stroke-linecap="round"></path><path d="M 175.500,54.000 C 164.096,60.003 164.699,60.481 154.500,68.000" stroke-width="2.671" stroke="black" fill="none" stroke-linecap="round"></path><path d="M 154.500,68.000 C 149.424,73.114 149.096,72.503 145.500,79.000" stroke-width="2.879" stroke="black" fill="none" stroke-linecap="round"></path><path d="M 145.500,79.000 C 141.181,85.175 141.424,85.114 138.500,92.000" stroke-width="2.911" stroke="black" fill="none" stroke-linecap="round"></path><path d="M 138.500,92.000 C 135.730,99.375 135.681,99.175 134.500,107.000" stroke-width="2.872" stroke="black" fill="none" stroke-linecap="round"></path><path d="M 134.500,107.000 C 133.767,114.993 133.230,114.875 133.500,123.000" stroke-width="2.888" stroke="black" fill="none" stroke-linecap="round"></path><path d="M 133.500,123.000 C 132.063,130.295 133.267,129.993 133.500,137.000" stroke-width="2.965" stroke="black" fill="none" stroke-linecap="round"></path><path d="M 133.500,137.000 C 135.518,144.628 135.063,144.295 139.500,151.000" stroke-width="2.906" stroke="black" fill="none" stroke-linecap="round"></path><path d="M 139.500,151.000 C 143.289,156.802 143.018,156.628 148.500,161.000" stroke-width="3.009" stroke="black" fill="none" stroke-linecap="round"></path><path d="M 148.500,161.000 C 161.521,171.302 161.289,171.302 175.500,180.000" stroke-width="2.868" stroke="black" fill="none" stroke-linecap="round"></path><path d="M 175.500,180.000 C 184.235,185.140 184.021,185.302 193.500,189.000" stroke-width="2.716" stroke="black" fill="none" stroke-linecap="round"></path><path d="M 193.500,189.000 C 202.343,192.590 202.235,192.640 211.500,195.000" stroke-width="2.615" stroke="black" fill="none" stroke-linecap="round"></path><path d="M 211.500,195.000 C 221.411,197.707 221.343,197.590 231.500,199.000" stroke-width="2.630" stroke="black" fill="none" stroke-linecap="round"></path><path d="M 231.500,199.000 C 240.994,199.720 240.911,200.207 250.500,200.000" stroke-width="2.802" stroke="black" fill="none" stroke-linecap="round"></path><path d="M 250.500,200.000 C 258.165,201.146 257.994,200.220 265.500,200.000" stroke-width="2.872" stroke="black" fill="none" stroke-linecap="round"></path><path d="M 265.500,200.000 C 274.334,198.317 274.165,198.646 282.500,195.000" stroke-width="2.789" stroke="black" fill="none" stroke-linecap="round"></path><path d="M 282.500,195.000 C 290.220,191.368 290.334,191.817 297.500,187.000" stroke-width="2.745" stroke="black" fill="none" stroke-linecap="round"></path><path d="M 297.500,187.000 C 305.301,182.400 305.220,182.368 312.500,177.000" stroke-width="2.735" stroke="black" fill="none" stroke-linecap="round"></path><path d="M 312.500,177.000 C 319.124,171.640 319.301,171.900 325.500,166.000" stroke-width="2.787" stroke="black" fill="none" stroke-linecap="round"></path><path d="M 325.500,166.000 C 332.250,160.250 332.124,160.140 338.500,154.000" stroke-width="2.705" stroke="black" fill="none" stroke-linecap="round"></path><path d="M 338.500,154.000 C 344.727,148.531 344.250,148.250 349.500,142.000" stroke-width="2.821" stroke="black" fill="none" stroke-linecap="round"></path><path d="M 349.500,142.000 C 354.118,135.284 354.227,135.531 357.500,128.000" stroke-width="2.807" stroke="black" fill="none" stroke-linecap="round"></path><path d="M 357.500,128.000 C 361.166,121.202 360.618,121.284 362.500,114.000" stroke-width="2.882" stroke="black" fill="none" stroke-linecap="round"></path><path d="M 362.500,114.000 C 362.500,107.500 363.666,107.702 362.500,101.000" stroke-width="3.089" stroke="black" fill="none" stroke-linecap="round"></path><path d="M 362.500,101.000 C 363.630,93.782 362.500,94.000 362.500,87.000" stroke-width="3.026" stroke="black" fill="none" stroke-linecap="round"></path><path d="M 362.500,87.000 C 361.217,81.597 361.630,81.782 358.500,77.000" stroke-width="3.307" stroke="black" fill="none" stroke-linecap="round"></path><path d="M 358.500,77.000 C 354.508,70.535 354.717,70.597 349.500,65.000" stroke-width="3.014" stroke="black" fill="none" stroke-linecap="round"></path><path d="M 349.500,65.000 C 344.682,60.281 345.008,60.035 339.500,56.000" stroke-width="3.043" stroke="black" fill="none" stroke-linecap="round"></path><path d="M 339.500,56.000 C 333.341,50.473 333.182,50.781 326.500,46.000" stroke-width="2.915" stroke="black" fill="none" stroke-linecap="round"></path><path d="M 326.500,46.000 C 320.376,41.456 320.341,41.973 313.500,39.000" stroke-width="2.922" stroke="black" fill="none" stroke-linecap="round"></path><path d="M 313.500,39.000 C 306.074,36.757 306.376,36.456 298.500,36.000" stroke-width="2.949" stroke="black" fill="none" stroke-linecap="round"></path><path d="M 298.500,36.000 C 290.970,35.518 291.074,35.257 283.500,36.000" stroke-width="3.031" stroke="black" fill="none" stroke-linecap="round"></path><path d="M 283.500,36.000 C 275.280,36.122 275.470,36.518 267.500,38.000" stroke-width="2.867" stroke="black" fill="none" stroke-linecap="round"></path><path d="M 267.500,38.000 C 261.139,40.979 260.780,39.622 254.500,43.000" stroke-width="2.964" stroke="black" fill="none" stroke-linecap="round"></path><path d="M 254.500,43.000 C 249.333,43.474 249.639,44.479 244.500,45.000" stroke-width="3.279" stroke="black" fill="none" stroke-linecap="round"></path><path d="M 198.500,99.000 C 198.500,102.500 198.500,102.500 198.500,106.000" stroke-width="5.213" stroke="black" fill="none" stroke-linecap="round"></path><path d="M 198.500,106.000 C 198.500,109.500 198.500,109.500 198.500,113.000" stroke-width="4.389" stroke="black" fill="none" stroke-linecap="round"></path><path d="M 198.500,113.000 C 198.500,116.500 198.500,116.500 198.500,120.000" stroke-width="4.231" stroke="black" fill="none" stroke-linecap="round"></path><path d="M 198.500,120.000 C 198.240,126.012 198.500,126.000 198.500,132.000" stroke-width="3.531" stroke="black" fill="none" stroke-linecap="round"></path><path d="M 198.500,132.000 C 197.565,137.969 198.740,137.512 199.500,143.000" stroke-width="3.963" stroke="black" fill="none" stroke-linecap="round"></path><path d="M 199.500,143.000 C 203.213,151.158 202.565,150.969 208.500,158.000" stroke-width="3.785" stroke="black" fill="none" stroke-linecap="round"></path><path d="M 208.500,158.000 C 212.182,161.952 211.713,162.158 216.500,165.000" stroke-width="3.608" stroke="black" fill="none" stroke-linecap="round"></path><path d="M 216.500,165.000 C 220.816,167.918 220.682,167.952 225.500,170.000" stroke-width="3.681" stroke="black" fill="none" stroke-linecap="round"></path><path d="M 225.500,170.000 C 229.889,172.186 229.816,171.918 234.500,173.000" stroke-width="3.631" stroke="black" fill="none" stroke-linecap="round"></path><path d="M 234.500,173.000 C 238.500,173.000 238.389,173.686 242.500,173.000" stroke-width="3.714" stroke="black" fill="none" stroke-linecap="round"></path><path d="M 242.500,173.000 C 247.625,173.770 247.500,173.000 252.500,173.000" stroke-width="3.592" stroke="black" fill="none" stroke-linecap="round"></path><path d="M 252.500,173.000 C 257.346,172.187 257.125,172.270 261.500,170.000" stroke-width="3.549" stroke="black" fill="none" stroke-linecap="round"></path><path d="M 261.500,170.000 C 266.588,166.619 266.846,167.187 271.500,163.000" stroke-width="3.352" stroke="black" fill="none" stroke-linecap="round"></path><path d="M 271.500,163.000 C 276.101,159.623 276.088,159.619 280.500,156.000" stroke-width="3.304" stroke="black" fill="none" stroke-linecap="round"></path><path d="M 280.500,156.000 C 284.749,152.751 284.601,152.623 288.500,149.000" stroke-width="3.357" stroke="black" fill="none" stroke-linecap="round"></path><path d="M 288.500,149.000 C 292.776,144.718 292.749,144.751 296.500,140.000" stroke-width="3.312" stroke="black" fill="none" stroke-linecap="round"></path><path d="M 296.500,140.000 C 300.578,135.313 300.276,135.218 303.500,130.000" stroke-width="3.226" stroke="black" fill="none" stroke-linecap="round"></path><path d="M 303.500,130.000 C 305.710,125.072 306.078,125.313 307.500,120.000" stroke-width="3.320" stroke="black" fill="none" stroke-linecap="round"></path><path d="M 307.500,120.000 C 308.350,116.449 308.710,116.572 309.500,113.000" stroke-width="3.684" stroke="black" fill="none" stroke-linecap="round"></path><path d="M 246.500,76.000 C 245.090,78.905 245.500,79.000 244.500,82.000" stroke-width="5.077" stroke="black" fill="none" stroke-linecap="round"></path><path d="M 244.500,82.000 C 244.098,89.650 243.090,89.405 242.500,97.000" stroke-width="4.185" stroke="black" fill="none" stroke-linecap="round"></path><path d="M 242.500,97.000 C 238.874,102.182 241.598,101.150 239.500,105.000" stroke-width="4.398" stroke="black" fill="none" stroke-linecap="round"></path><path d="M 300.500,71.000 C 297.514,71.598 297.500,71.500 294.500,72.000" stroke-width="1.798" stroke="black" fill="none" stroke-linecap="round"></path><path d="M 294.500,72.000 C 289.601,71.536 290.014,72.598 285.500,73.000" stroke-width="3.082" stroke="black" fill="none" stroke-linecap="round"></path><path d="M 285.500,73.000 C 282.889,74.876 282.601,74.036 280.500,77.000" stroke-width="3.759" stroke="black" fill="none" stroke-linecap="round"></path><path d="M 280.500,77.000 C 278.258,78.802 278.389,78.876 276.500,81.000" stroke-width="4.028" stroke="black" fill="none" stroke-linecap="round"></path><path d="M 276.500,81.000 C 274.217,83.851 274.258,83.802 272.500,87.000" stroke-width="3.973" stroke="black" fill="none" stroke-linecap="round"></path><path d="M 272.500,87.000 C 270.973,89.399 271.217,89.351 270.500,92.000" stroke-width="4.216" stroke="black" fill="none" stroke-linecap="round"></path><path d="M 270.500,92.000 C 269.919,95.094 269.973,94.899 270.500,98.000" stroke-width="4.128" stroke="black" fill="none" stroke-linecap="round"></path><path d="M 270.500,98.000 C 270.943,103.307 271.419,102.594 273.500,107.000" stroke-width="4.294" stroke="black" fill="none" stroke-linecap="round"></path></svg>