<svg xmlns="http://www.w3.org/2000/svg" xmlns:xlink="http://www.w3.org/1999/xlink" viewBox="0 0 1460 576" width="1460" height="576"><path d="M 632.000,321.000 C 624.961,298.789 629.000,299.500 626.000,278.000" stroke-width="3.939" stroke="black" fill="none" stroke-linecap="round"></path><path d="M 626.000,278.000 C 629.909,269.145 626.461,268.789 635.000,261.000" stroke-width="2.929" stroke="black" fill="none" stroke-linecap="round"></path><path d="M 635.000,261.000 C 642.783,242.745 644.909,245.145 656.000,230.000" stroke-width="1.996" stroke="black" fill="none" stroke-linecap="round"></path><path d="M 656.000,230.000 C 672.452,216.405 670.783,215.745 691.000,207.000" stroke-width="1.720" stroke="black" fill="none" stroke-linecap="round"></path><path d="M 691.000,207.000 C 708.417,196.040 707.952,198.405 727.000,194.000" stroke-width="1.676" stroke="black" fill="none" stroke-linecap="round"></path><path d="M 727.000,194.000 C 750.216,195.047 749.417,191.540 773.000,198.000" stroke-width="2.094" stroke="black" fill="none" stroke-linecap="round"></path><path d="M 773.000,198.000 C 777.912,198.324 777.216,198.547 781.000,201.000" stroke-width="3.028" stroke="black" fill="none" stroke-linecap="round"></path><path d="M 781.000,201.000 C 788.138,205.341 785.412,204.824 788.000,211.000" stroke-width="3.140" stroke="black" fill="none" stroke-linecap="round"></path><path d="M 788.000,211.000 C 789.208,229.285 787.638,225.841 780.000,242.000" stroke-width="2.201" stroke="black" fill="none" stroke-linecap="round"></path><path d="M 780.000,242.000 C 743.954,286.666 747.208,287.285 704.000,327.000" stroke-width="1.501" stroke="black" fill="none" stroke-linecap="round"></path><path d="M 704.000,327.000 C 690.406,340.297 691.454,339.666 675.000,348.000" stroke-width="1.609" stroke="black" fill="none" stroke-linecap="round"></path><path d="M 675.000,348.000 C 663.068,352.423 669.406,350.797 662.000,348.000" stroke-width="2.790" stroke="black" fill="none" stroke-linecap="round"></path><path d="M 662.000,348.000 C 662.211,332.359 659.568,337.923 668.000,319.000" stroke-width="2.163" stroke="black" fill="none" stroke-linecap="round"></path><path d="M 668.000,319.000 C 674.031,299.137 675.211,302.359 688.000,288.000" stroke-width="1.875" stroke="black" fill="none" stroke-linecap="round"></path><path d="M 688.000,288.000 C 713.224,267.548 711.031,269.637 742.000,260.000" stroke-width="1.320" stroke="black" fill="none" stroke-linecap="round"></path><path d="M 742.000,260.000 C 776.203,256.000 774.224,251.548 810.000,256.000" stroke-width="1.684" stroke="black" fill="none" stroke-linecap="round"></path><path d="M 810.000,256.000 C 818.359,256.424 817.703,256.000 825.000,260.000" stroke-width="2.362" stroke="black" fill="none" stroke-linecap="round"></path><path d="M 825.000,260.000 C 832.331,263.885 831.359,263.424 836.000,270.000" stroke-width="2.776" stroke="black" fill="none" stroke-linecap="round"></path><path d="M 836.000,270.000 C 842.279,277.878 839.831,276.385 840.000,285.000" stroke-width="2.831" stroke="black" fill="none" stroke-linecap="round"></path><path d="M 840.000,285.000 C 828.508,316.606 830.279,315.378 812.000,345.000" stroke-width="2.083" stroke="black" fill="none" stroke-linecap="round"></path><path d="M 812.000,345.000 C 801.532,358.508 803.508,359.606 790.000,371.000" stroke-width="1.984" stroke="black" fill="none" stroke-linecap="round"></path><path d="M 790.000,371.000 C 783.452,378.101 783.532,378.008 776.000,384.000" stroke-width="2.357" stroke="black" fill="none" stroke-linecap="round"></path><path d="M 776.000,384.000 C 769.125,390.312 771.452,387.601 766.000,390.000" stroke-width="3.397" stroke="black" fill="none" stroke-linecap="round"></path><path d="M 766.000,390.000 C 764.185,385.782 764.125,389.812 766.000,383.000" stroke-width="4.220" stroke="black" fill="none" stroke-linecap="round"></path><path d="M 766.000,383.000 C 772.668,373.988 771.685,374.282 781.000,367.000" stroke-width="2.731" stroke="black" fill="none" stroke-linecap="round"></path><path d="M 781.000,367.000 C 788.621,361.287 788.168,360.988 797.000,357.000" stroke-width="2.624" stroke="black" fill="none" stroke-linecap="round"></path></svg>