<svg xmlns="http://www.w3.org/2000/svg" xmlns:xlink="http://www.w3.org/1999/xlink" viewBox="0 0 1134 254" width="1134" height="254"><path d="M 530.000,213.000 C 527.000,212.000 527.000,212.000 524.000,211.000" stroke-width="4.941" stroke="black" fill="none" stroke-linecap="round"></path><path d="M 524.000,211.000 C 519.465,209.595 519.500,209.500 515.000,208.000" stroke-width="3.928" stroke="black" fill="none" stroke-linecap="round"></path><path d="M 515.000,208.000 C 512.449,207.113 512.465,207.095 510.000,206.000" stroke-width="4.162" stroke="black" fill="none" stroke-linecap="round"></path><path d="M 510.000,206.000 C 506.810,204.807 506.949,204.613 504.000,203.000" stroke-width="4.021" stroke="black" fill="none" stroke-linecap="round"></path><path d="M 504.000,203.000 C 499.231,200.693 499.810,200.307 496.000,197.000" stroke-width="3.612" stroke="black" fill="none" stroke-linecap="round"></path><path d="M 496.000,197.000 C 492.134,192.335 492.231,192.693 490.000,187.000" stroke-width="3.415" stroke="black" fill="none" stroke-linecap="round"></path><path d="M 490.000,187.000 C 488.000,182.051 488.134,182.335 488.000,177.000" stroke-width="3.485" stroke="black" fill="none" stroke-linecap="round"></path><path d="M 488.000,177.000 C 488.461,166.386 488.000,166.551 490.000,156.000" stroke-width="3.169" stroke="black" fill="none" stroke-linecap="round"></path><path d="M 490.000,156.000 C 490.866,152.949 490.461,152.886 492.000,150.000" stroke-width="3.768" stroke="black" fill="none" stroke-linecap="round"></path><path d="M 492.000,150.000 C 492.964,146.167 493.366,146.449 495.000,143.000" stroke-width="3.849" stroke="black" fill="none" stroke-linecap="round"></path><path d="M 495.000,143.000 C 497.334,138.647 497.464,139.167 501.000,136.000" stroke-width="3.648" stroke="black" fill="none" stroke-linecap="round"></path><path d="M 501.000,136.000 C 506.727,132.182 506.334,132.147 513.000,130.000" stroke-width="3.280" stroke="black" fill="none" stroke-linecap="round"></path><path d="M 513.000,130.000 C 518.462,128.583 518.227,128.182 524.000,128.000" stroke-width="3.358" stroke="black" fill="none" stroke-linecap="round"></path><path d="M 524.000,128.000 C 528.016,127.751 527.962,127.583 532.000,128.000" stroke-width="3.623" stroke="black" fill="none" stroke-linecap="round"></path><path d="M 532.000,128.000 C 536.143,127.972 536.016,128.251 540.000,129.000" stroke-width="3.704" stroke="black" fill="none" stroke-linecap="round"></path><path d="M 540.000,129.000 C 544.150,129.577 543.643,129.972 547.000,132.000" stroke-width="3.829" stroke="black" fill="none" stroke-linecap="round"></path><path d="M 547.000,132.000 C 554.149,138.589 554.150,138.077 560.000,146.000" stroke-width="2.918" stroke="black" fill="none" stroke-linecap="round"></path><path d="M 560.000,146.000 C 561.190,148.435 561.649,148.089 562.000,151.000" stroke-width="3.716" stroke="black" fill="none" stroke-linecap="round"></path><path d="M 562.000,151.000 C 566.595,158.056 564.190,157.935 566.000,165.000" stroke-width="3.140" stroke="black" fill="none" stroke-linecap="round"></path><path d="M 566.000,165.000 C 563.435,176.021 565.095,175.556 559.000,186.000" stroke-width="2.550" stroke="black" fill="none" stroke-linecap="round"></path><path d="M 559.000,186.000 C 556.850,189.369 557.435,189.521 554.000,192.000" stroke-width="3.342" stroke="black" fill="none" stroke-linecap="round"></path><path d="M 554.000,192.000 C 550.282,195.481 550.350,195.369 546.000,198.000" stroke-width="3.425" stroke="black" fill="none" stroke-linecap="round"></path><path d="M 546.000,198.000 C 541.674,200.625 541.782,200.481 537.000,202.000" stroke-width="3.519" stroke="black" fill="none" stroke-linecap="round"></path><path d="M 537.000,202.000 C 533.013,202.713 533.174,203.125 529.000,203.000" stroke-width="3.616" stroke="black" fill="none" stroke-linecap="round"></path><path d="M 529.000,203.000 C 523.460,205.299 526.013,203.213 523.000,203.000" stroke-width="4.497" stroke="black" fill="none" stroke-linecap="round"></path><path d="M 523.000,203.000 C 522.536,192.548 521.460,195.299 525.000,183.000" stroke-width="3.746" stroke="black" fill="none" stroke-linecap="round"></path><path d="M 525.000,183.000 C 527.612,177.236 526.536,177.048 531.000,172.000" stroke-width="3.311" stroke="black" fill="none" stroke-linecap="round"></path><path d="M 531.000,172.000 C 533.621,169.093 533.112,168.736 536.000,166.000" stroke-width="3.626" stroke="black" fill="none" stroke-linecap="round"></path><path d="M 536.000,166.000 C 540.077,159.615 538.621,162.593 541.000,159.000" stroke-width="4.173" stroke="black" fill="none" stroke-linecap="round"></path><path d="M 541.000,159.000 C 540.370,161.716 541.577,158.615 539.000,164.000" stroke-width="4.932" stroke="black" fill="none" stroke-linecap="round"></path><path d="M 539.000,164.000 C 537.000,166.500 537.370,166.716 535.000,169.000" stroke-width="4.758" stroke="black" fill="none" stroke-linecap="round"></path><path d="M 535.000,169.000 C 531.348,174.341 531.000,174.000 527.000,179.000" stroke-width="4.725" stroke="black" fill="none" stroke-linecap="round"></path><path d="M 527.000,179.000 C 524.022,181.527 524.348,181.841 521.000,184.000" stroke-width="4.600" stroke="black" fill="none" stroke-linecap="round"></path><path d="M 521.000,184.000 C 518.767,186.491 518.522,186.027 516.000,188.000" stroke-width="5.088" stroke="black" fill="none" stroke-linecap="round"></path><path d="M 516.000,188.000 C 513.079,189.487 513.267,189.491 510.000,190.000" stroke-width="5.005" stroke="black" fill="none" stroke-linecap="round"></path><path d="M 510.000,190.000 C 507.000,190.000 507.079,190.487 504.000,190.000" stroke-width="4.831" stroke="black" fill="none" stroke-linecap="round"></path><path d="M 504.000,190.000 C 500.273,190.818 500.500,190.000 497.000,190.000" stroke-width="5.006" stroke="black" fill="none" stroke-linecap="round"></path><path d="M 497.000,190.000 C 494.599,188.300 494.273,189.318 492.000,187.000" stroke-width="5.028" stroke="black" fill="none" stroke-linecap="round"></path><path d="M 492.000,187.000 C 489.601,185.473 489.599,185.800 487.000,185.000" stroke-width="5.335" stroke="black" fill="none" stroke-linecap="round"></path><path d="M 487.000,185.000 C 483.979,184.752 484.101,184.473 481.000,185.000" stroke-width="5.367" stroke="black" fill="none" stroke-linecap="round"></path><path d="M 481.000,185.000 C 477.808,184.979 477.979,185.252 475.000,186.000" stroke-width="5.116" stroke="black" fill="none" stroke-linecap="round"></path><path d="M 475.000,186.000 C 472.667,187.933 472.308,186.979 470.000,189.000" stroke-width="5.229" stroke="black" fill="none" stroke-linecap="round"></path><path d="M 470.000,189.000 C 467.508,189.544 467.667,189.933 465.000,190.000" stroke-width="4.974" stroke="black" fill="none" stroke-linecap="round"></path><path d="M 465.000,190.000 C 461.744,189.824 462.008,190.544 459.000,191.000" stroke-width="4.995" stroke="black" fill="none" stroke-linecap="round"></path><path d="M 459.000,191.000 C 455.219,194.053 454.744,192.824 451.000,196.000" stroke-width="4.930" stroke="black" fill="none" stroke-linecap="round"></path><path d="M 451.000,196.000 C 448.217,195.892 448.719,197.053 446.000,197.000" stroke-width="5.051" stroke="black" fill="none" stroke-linecap="round"></path><path d="M 446.000,197.000 C 443.686,199.291 443.217,198.392 441.000,201.000" stroke-width="5.360" stroke="black" fill="none" stroke-linecap="round"></path><path d="M 441.000,201.000 C 438.125,202.864 438.186,202.791 435.000,204.000" stroke-width="4.861" stroke="black" fill="none" stroke-linecap="round"></path><path d="M 435.000,204.000 C 432.500,204.500 432.625,204.864 430.000,205.000" stroke-width="4.882" stroke="black" fill="none" stroke-linecap="round"></path><path d="M 430.000,205.000 C 425.051,206.519 425.000,206.000 420.000,207.000" stroke-width="3.771" stroke="black" fill="none" stroke-linecap="round"></path><path d="M 420.000,207.000 C 414.482,206.711 414.551,207.519 409.000,207.000" stroke-width="3.387" stroke="black" fill="none" stroke-linecap="round"></path><path d="M 409.000,207.000 C 405.008,207.578 404.982,207.211 401.000,208.000" stroke-width="3.676" stroke="black" fill="none" stroke-linecap="round"></path><path d="M 401.000,208.000 C 395.498,208.476 395.508,208.578 390.000,209.000" stroke-width="3.485" stroke="black" fill="none" stroke-linecap="round"></path><path d="M 390.000,209.000 C 385.012,209.749 384.998,209.476 380.000,210.000" stroke-width="3.520" stroke="black" fill="none" stroke-linecap="round"></path><path d="M 380.000,210.000 C 375.000,210.000 375.012,210.249 370.000,210.000" stroke-width="3.479" stroke="black" fill="none" stroke-linecap="round"></path><path d="M 370.000,210.000 C 365.380,210.626 365.500,210.000 361.000,210.000" stroke-width="3.616" stroke="black" fill="none" stroke-linecap="round"></path><path d="M 361.000,210.000 C 358.583,208.704 358.380,209.626 356.000,208.000" stroke-width="3.967" stroke="black" fill="none" stroke-linecap="round"></path><path d="M 356.000,208.000 C 352.959,207.683 353.083,207.204 350.000,207.000" stroke-width="4.088" stroke="black" fill="none" stroke-linecap="round"></path><path d="M 350.000,207.000 C 346.529,205.882 346.459,206.183 343.000,205.000" stroke-width="3.930" stroke="black" fill="none" stroke-linecap="round"></path><path d="M 343.000,205.000 C 340.406,204.802 340.529,204.382 338.000,204.000" stroke-width="4.159" stroke="black" fill="none" stroke-linecap="round"></path><path d="M 338.000,204.000 C 333.500,203.500 334.406,202.802 331.000,201.000" stroke-width="4.421" stroke="black" fill="none" stroke-linecap="round"></path><path d="M 331.000,201.000 C 326.953,197.140 328.500,198.500 328.000,194.000" stroke-width="4.725" stroke="black" fill="none" stroke-linecap="round"></path><path d="M 328.000,194.000 C 331.717,187.649 329.953,188.140 337.000,183.000" stroke-width="3.425" stroke="black" fill="none" stroke-linecap="round"></path><path d="M 337.000,183.000 C 343.972,175.234 344.217,176.649 353.000,172.000" stroke-width="2.754" stroke="black" fill="none" stroke-linecap="round"></path><path d="M 353.000,172.000 C 378.254,164.355 377.472,163.234 404.000,159.000" stroke-width="1.556" stroke="black" fill="none" stroke-linecap="round"></path><path d="M 404.000,159.000 C 441.085,152.952 440.754,151.355 478.000,146.000" stroke-width="1.153" stroke="black" fill="none" stroke-linecap="round"></path><path d="M 478.000,146.000 C 518.665,140.506 518.085,138.452 558.000,130.000" stroke-width="1.125" stroke="black" fill="none" stroke-linecap="round"></path><path d="M 558.000,130.000 C 598.206,115.501 599.165,119.006 639.000,103.000" stroke-width="1.125" stroke="black" fill="none" stroke-linecap="round"></path><path d="M 639.000,103.000 C 660.540,97.647 660.206,96.501 682.000,92.000" stroke-width="1.263" stroke="black" fill="none" stroke-linecap="round"></path><path d="M 682.000,92.000 C 688.887,89.513 689.040,90.147 696.000,88.000" stroke-width="2.105" stroke="black" fill="none" stroke-linecap="round"></path><path d="M 696.000,88.000 C 712.443,84.365 712.387,84.513 729.000,82.000" stroke-width="1.951" stroke="black" fill="none" stroke-linecap="round"></path><path d="M 729.000,82.000 C 733.540,81.554 733.443,81.365 738.000,82.000" stroke-width="2.872" stroke="black" fill="none" stroke-linecap="round"></path><path d="M 738.000,82.000 C 743.750,82.250 743.540,82.554 749.000,84.000" stroke-width="3.218" stroke="black" fill="none" stroke-linecap="round"></path><path d="M 749.000,84.000 C 754.231,86.139 754.250,85.750 759.000,89.000" stroke-width="3.339" stroke="black" fill="none" stroke-linecap="round"></path><path d="M 759.000,89.000 C 762.757,90.308 761.731,90.639 764.000,93.000" stroke-width="3.786" stroke="black" fill="none" stroke-linecap="round"></path><path d="M 764.000,93.000 C 767.004,98.260 765.757,96.808 765.000,102.000" stroke-width="3.648" stroke="black" fill="none" stroke-linecap="round"></path><path d="M 765.000,102.000 C 759.536,114.979 759.504,112.260 749.000,121.000" stroke-width="2.501" stroke="black" fill="none" stroke-linecap="round"></path><path d="M 749.000,121.000 C 719.311,136.072 721.036,136.979 688.000,146.000" stroke-width="1.321" stroke="black" fill="none" stroke-linecap="round"></path><path d="M 688.000,146.000 C 657.364,155.665 657.811,155.572 626.000,160.000" stroke-width="1.224" stroke="black" fill="none" stroke-linecap="round"></path><path d="M 626.000,160.000 C 595.406,163.000 595.864,164.165 565.000,163.000" stroke-width="1.184" stroke="black" fill="none" stroke-linecap="round"></path><path d="M 565.000,163.000 C 556.325,162.191 556.406,163.000 548.000,160.000" stroke-width="1.953" stroke="black" fill="none" stroke-linecap="round"></path><path d="M 548.000,160.000 C 537.434,156.683 537.325,157.191 527.000,153.000" stroke-width="2.320" stroke="black" fill="none" stroke-linecap="round"></path><path d="M 527.000,153.000 C 520.087,151.204 520.434,150.683 514.000,148.000" stroke-width="2.762" stroke="black" fill="none" stroke-linecap="round"></path><path d="M 514.000,148.000 C 509.748,146.337 510.587,146.204 508.000,143.000" stroke-width="3.403" stroke="black" fill="none" stroke-linecap="round"></path><path d="M 508.000,143.000 C 503.765,135.155 504.248,135.837 503.000,127.000" stroke-width="2.982" stroke="black" fill="none" stroke-linecap="round"></path><path d="M 503.000,127.000 C 501.409,117.733 502.265,119.155 505.000,111.000" stroke-width="2.972" stroke="black" fill="none" stroke-linecap="round"></path><path d="M 505.000,111.000 C 511.427,103.311 509.409,102.733 519.000,97.000" stroke-width="2.636" stroke="black" fill="none" stroke-linecap="round"></path><path d="M 519.000,97.000 C 526.561,90.716 526.427,90.811 535.000,86.000" stroke-width="2.569" stroke="black" fill="none" stroke-linecap="round"></path><path d="M 535.000,86.000 C 543.568,79.693 543.561,81.216 553.000,78.000" stroke-width="2.595" stroke="black" fill="none" stroke-linecap="round"></path><path d="M 553.000,78.000 C 563.823,77.434 563.068,76.193 574.000,79.000" stroke-width="2.538" stroke="black" fill="none" stroke-linecap="round"></path><path d="M 574.000,79.000 C 576.869,80.063 576.823,79.434 579.000,82.000" stroke-width="3.472" stroke="black" fill="none" stroke-linecap="round"></path><path d="M 579.000,82.000 C 583.882,85.089 582.369,85.063 585.000,89.000" stroke-width="4.089" stroke="black" fill="none" stroke-linecap="round"></path><path d="M 585.000,89.000 C 585.186,93.230 585.882,92.089 583.000,96.000" stroke-width="3.982" stroke="black" fill="none" stroke-linecap="round"></path><path d="M 583.000,96.000 C 577.026,102.677 577.686,102.730 570.000,108.000" stroke-width="3.037" stroke="black" fill="none" stroke-linecap="round"></path><path d="M 570.000,108.000 C 560.662,116.126 560.526,115.177 550.000,121.000" stroke-width="2.446" stroke="black" fill="none" stroke-linecap="round"></path><path d="M 550.000,121.000 C 542.559,123.093 543.162,124.126 535.000,124.000" stroke-width="2.785" stroke="black" fill="none" stroke-linecap="round"></path><path d="M 535.000,124.000 C 529.919,124.579 530.059,124.593 525.000,124.000" stroke-width="3.226" stroke="black" fill="none" stroke-linecap="round"></path></svg>