<svg xmlns="http://www.w3.org/2000/svg" xmlns:xlink="http://www.w3.org/1999/xlink" viewBox="0 0 453 236" width="453" height="236"><path d="M 131.500,149.000 C 127.921,148.222 128.000,148.000 124.500,147.000" stroke-width="5.330" stroke="black" fill="none" stroke-linecap="round"></path><path d="M 124.500,147.000 C 120.760,145.901 120.921,145.722 117.500,144.000" stroke-width="5.026" stroke="black" fill="none" stroke-linecap="round"></path><path d="M 117.500,144.000 C 112.957,142.512 114.760,142.401 112.500,140.000" stroke-width="5.097" stroke="black" fill="none" stroke-linecap="round"></path><path d="M 112.500,140.000 C 113.278,135.962 111.957,137.012 115.500,133.000" stroke-width="5.303" stroke="black" fill="none" stroke-linecap="round"></path><path d="M 115.500,133.000 C 118.430,130.412 117.778,129.962 121.500,128.000" stroke-width="4.255" stroke="black" fill="none" stroke-linecap="round"></path><path d="M 121.500,128.000 C 125.674,125.214 125.430,124.912 129.500,122.000" stroke-width="3.840" stroke="black" fill="none" stroke-linecap="round"></path><path d="M 129.500,122.000 C 138.010,114.511 138.174,114.714 146.500,107.000" stroke-width="2.639" stroke="black" fill="none" stroke-linecap="round"></path><path d="M 146.500,107.000 C 151.118,103.125 151.010,103.011 155.500,99.000" stroke-width="3.065" stroke="black" fill="none" stroke-linecap="round"></path><path d="M 155.500,99.000 C 159.368,94.857 159.618,95.125 163.500,91.000" stroke-width="3.755" stroke="black" fill="none" stroke-linecap="round"></path><path d="M 163.500,91.000 C 166.853,87.806 166.868,87.857 170.500,85.000" stroke-width="3.679" stroke="black" fill="none" stroke-linecap="round"></path><path d="M 170.500,85.000 C 173.536,83.052 173.353,82.806 176.500,81.000" stroke-width="3.864" stroke="black" fill="none" stroke-linecap="round"></path><path d="M 176.500,81.000 C 181.616,76.000 180.036,78.552 183.500,76.000" stroke-width="4.281" stroke="black" fill="none" stroke-linecap="round"></path><path d="M 183.500,76.000 C 183.736,78.837 184.616,76.000 182.500,81.000" stroke-width="4.832" stroke="black" fill="none" stroke-linecap="round"></path><path d="M 182.500,81.000 C 178.811,85.364 179.736,85.837 175.500,90.000" stroke-width="3.634" stroke="black" fill="none" stroke-linecap="round"></path><path d="M 175.500,90.000 C 171.387,95.927 171.311,95.864 167.500,102.000" stroke-width="3.260" stroke="black" fill="none" stroke-linecap="round"></path><path d="M 167.500,102.000 C 163.838,108.733 163.387,108.427 159.500,115.000" stroke-width="2.983" stroke="black" fill="none" stroke-linecap="round"></path><path d="M 159.500,115.000 C 154.770,121.727 154.838,121.733 149.500,128.000" stroke-width="2.955" stroke="black" fill="none" stroke-linecap="round"></path><path d="M 149.500,128.000 C 144.250,134.250 144.270,134.227 138.500,140.000" stroke-width="2.897" stroke="black" fill="none" stroke-linecap="round"></path><path d="M 138.500,140.000 C 132.010,146.011 132.250,146.250 125.500,152.000" stroke-width="2.797" stroke="black" fill="none" stroke-linecap="round"></path><path d="M 125.500,152.000 C 119.745,157.796 119.510,157.511 113.500,163.000" stroke-width="2.850" stroke="black" fill="none" stroke-linecap="round"></path><path d="M 113.500,163.000 C 107.500,167.500 107.745,167.796 101.500,172.000" stroke-width="2.887" stroke="black" fill="none" stroke-linecap="round"></path><path d="M 101.500,172.000 C 95.601,176.642 95.500,176.500 89.500,181.000" stroke-width="2.898" stroke="black" fill="none" stroke-linecap="round"></path><path d="M 89.500,181.000 C 85.171,184.295 85.101,184.142 80.500,187.000" stroke-width="3.347" stroke="black" fill="none" stroke-linecap="round"></path><path d="M 80.500,187.000 C 75.556,189.621 75.671,189.795 70.500,192.000" stroke-width="3.322" stroke="black" fill="none" stroke-linecap="round"></path><path d="M 70.500,192.000 C 67.035,193.586 67.056,193.621 63.500,195.000" stroke-width="3.650" stroke="black" fill="none" stroke-linecap="round"></path><path d="M 63.500,195.000 C 59.589,196.832 59.535,196.586 55.500,198.000" stroke-width="3.662" stroke="black" fill="none" stroke-linecap="round"></path><path d="M 55.500,198.000 C 52.492,198.456 52.589,198.832 49.500,199.000" stroke-width="3.986" stroke="black" fill="none" stroke-linecap="round"></path><path d="M 49.500,199.000 C 47.027,199.770 46.992,199.456 44.500,200.000" stroke-width="4.219" stroke="black" fill="none" stroke-linecap="round"></path><path d="M 44.500,200.000 C 39.648,201.607 41.527,200.270 38.500,200.000" stroke-width="4.597" stroke="black" fill="none" stroke-linecap="round"></path><path d="M 38.500,200.000 C 37.315,195.476 37.148,198.107 39.500,193.000" stroke-width="4.983" stroke="black" fill="none" stroke-linecap="round"></path><path d="M 39.500,193.000 C 46.305,187.692 44.815,186.976 53.500,183.000" stroke-width="3.220" stroke="black" fill="none" stroke-linecap="round"></path><path d="M 53.500,183.000 C 57.899,180.300 57.805,180.192 62.500,178.000" stroke-width="3.463" stroke="black" fill="none" stroke-linecap="round"></path><path d="M 62.500,178.000 C 68.000,175.500 67.899,175.300 73.500,173.000" stroke-width="3.338" stroke="black" fill="none" stroke-linecap="round"></path><path d="M 73.500,173.000 C 79.000,170.500 79.000,170.500 84.500,168.000" stroke-width="3.357" stroke="black" fill="none" stroke-linecap="round"></path><path d="M 84.500,168.000 C 89.882,165.199 90.000,165.500 95.500,163.000" stroke-width="3.184" stroke="black" fill="none" stroke-linecap="round"></path><path d="M 95.500,163.000 C 101.559,161.160 101.382,160.699 107.500,159.000" stroke-width="3.154" stroke="black" fill="none" stroke-linecap="round"></path><path d="M 107.500,159.000 C 112.449,156.861 112.559,157.160 117.500,155.000" stroke-width="3.297" stroke="black" fill="none" stroke-linecap="round"></path><path d="M 117.500,155.000 C 121.953,153.337 121.949,153.361 126.500,152.000" stroke-width="3.510" stroke="black" fill="none" stroke-linecap="round"></path><path d="M 126.500,152.000 C 130.472,150.863 130.453,150.837 134.500,150.000" stroke-width="3.649" stroke="black" fill="none" stroke-linecap="round"></path><path d="M 134.500,150.000 C 137.558,149.735 137.472,149.363 140.500,149.000" stroke-width="4.057" stroke="black" fill="none" stroke-linecap="round"></path><path d="M 140.500,149.000 C 143.478,147.930 143.558,148.235 146.500,147.000" stroke-width="4.087" stroke="black" fill="none" stroke-linecap="round"></path><path d="M 146.500,147.000 C 153.228,145.817 149.978,145.930 153.500,145.000" stroke-width="4.454" stroke="black" fill="none" stroke-linecap="round"></path><path d="M 153.500,145.000 C 150.295,143.355 153.728,144.317 147.500,144.000" stroke-width="5.014" stroke="black" fill="none" stroke-linecap="round"></path><path d="M 147.500,144.000 C 143.548,145.460 143.795,144.855 140.500,148.000" stroke-width="4.658" stroke="black" fill="none" stroke-linecap="round"></path><path d="M 140.500,148.000 C 137.840,150.880 137.548,150.460 135.500,154.000" stroke-width="4.616" stroke="black" fill="none" stroke-linecap="round"></path><path d="M 135.500,154.000 C 132.379,156.778 133.340,156.880 131.500,160.000" stroke-width="4.616" stroke="black" fill="none" stroke-linecap="round"></path><path d="M 131.500,160.000 C 130.692,164.096 130.879,162.278 132.500,165.000" stroke-width="5.024" stroke="black" fill="none" stroke-linecap="round"></path><path d="M 132.500,165.000 C 137.410,166.169 135.692,166.596 141.500,165.000" stroke-width="4.585" stroke="black" fill="none" stroke-linecap="round"></path><path d="M 141.500,165.000 C 143.983,162.978 144.410,164.169 146.500,161.000" stroke-width="4.224" stroke="black" fill="none" stroke-linecap="round"></path><path d="M 146.500,161.000 C 151.338,157.842 150.983,157.478 155.500,154.000" stroke-width="4.170" stroke="black" fill="none" stroke-linecap="round"></path><path d="M 155.500,154.000 C 159.772,150.901 157.838,151.842 159.500,149.000" stroke-width="4.534" stroke="black" fill="none" stroke-linecap="round"></path><path d="M 159.500,149.000 C 156.695,146.512 159.272,147.401 154.500,147.000" stroke-width="5.068" stroke="black" fill="none" stroke-linecap="round"></path><path d="M 154.500,147.000 C 152.037,148.695 152.195,147.512 150.500,151.000" stroke-width="5.043" stroke="black" fill="none" stroke-linecap="round"></path><path d="M 150.500,151.000 C 147.007,155.851 149.037,153.195 148.500,156.000" stroke-width="5.211" stroke="black" fill="none" stroke-linecap="round"></path><path d="M 148.500,156.000 C 155.056,155.085 152.007,156.351 160.500,152.000" stroke-width="4.987" stroke="black" fill="none" stroke-linecap="round"></path><path d="M 160.500,152.000 C 169.659,145.707 170.056,146.585 178.500,139.000" stroke-width="3.761" stroke="black" fill="none" stroke-linecap="round"></path><path d="M 178.500,139.000 C 184.211,134.733 184.159,134.707 189.500,130.000" stroke-width="3.177" stroke="black" fill="none" stroke-linecap="round"></path><path d="M 189.500,130.000 C 193.395,125.889 193.711,126.233 197.500,122.000" stroke-width="3.315" stroke="black" fill="none" stroke-linecap="round"></path><path d="M 197.500,122.000 C 203.388,117.368 202.895,116.889 208.500,112.000" stroke-width="3.025" stroke="black" fill="none" stroke-linecap="round"></path><path d="M 208.500,112.000 C 212.899,106.413 213.388,106.868 217.500,101.000" stroke-width="2.993" stroke="black" fill="none" stroke-linecap="round"></path><path d="M 217.500,101.000 C 221.517,96.515 221.399,96.413 225.500,92.000" stroke-width="3.141" stroke="black" fill="none" stroke-linecap="round"></path><path d="M 225.500,92.000 C 229.184,88.145 229.017,88.015 232.500,84.000" stroke-width="3.304" stroke="black" fill="none" stroke-linecap="round"></path><path d="M 232.500,84.000 C 234.920,80.440 235.184,80.645 237.500,77.000" stroke-width="3.640" stroke="black" fill="none" stroke-linecap="round"></path><path d="M 237.500,77.000 C 239.870,74.716 239.420,74.440 241.500,72.000" stroke-width="3.982" stroke="black" fill="none" stroke-linecap="round"></path><path d="M 241.500,72.000 C 244.250,68.750 242.870,69.716 243.500,67.000" stroke-width="4.138" stroke="black" fill="none" stroke-linecap="round"></path><path d="M 243.500,67.000 C 240.943,64.624 242.750,65.250 238.500,65.000" stroke-width="4.766" stroke="black" fill="none" stroke-linecap="round"></path><path d="M 238.500,65.000 C 234.347,66.737 234.443,65.624 230.500,69.000" stroke-width="3.892" stroke="black" fill="none" stroke-linecap="round"></path><path d="M 230.500,69.000 C 225.655,71.579 225.847,71.737 221.500,75.000" stroke-width="3.562" stroke="black" fill="none" stroke-linecap="round"></path><path d="M 221.500,75.000 C 217.267,78.789 217.155,78.579 213.500,83.000" stroke-width="3.431" stroke="black" fill="none" stroke-linecap="round"></path><path d="M 213.500,83.000 C 208.971,88.477 208.767,88.289 204.500,94.000" stroke-width="3.165" stroke="black" fill="none" stroke-linecap="round"></path><path d="M 204.500,94.000 C 200.415,98.934 200.471,98.977 196.500,104.000" stroke-width="3.195" stroke="black" fill="none" stroke-linecap="round"></path><path d="M 196.500,104.000 C 191.833,109.882 191.915,109.934 187.500,116.000" stroke-width="3.047" stroke="black" fill="none" stroke-linecap="round"></path><path d="M 187.500,116.000 C 183.689,122.136 183.333,121.882 179.500,128.000" stroke-width="3.045" stroke="black" fill="none" stroke-linecap="round"></path><path d="M 179.500,128.000 C 176.094,132.577 176.189,132.636 172.500,137.000" stroke-width="3.263" stroke="black" fill="none" stroke-linecap="round"></path><path d="M 172.500,137.000 C 169.451,140.459 169.594,140.577 166.500,144.000" stroke-width="3.523" stroke="black" fill="none" stroke-linecap="round"></path><path d="M 166.500,144.000 C 164.332,146.383 164.451,146.459 162.500,149.000" stroke-width="3.899" stroke="black" fill="none" stroke-linecap="round"></path><path d="M 162.500,149.000 C 160.800,151.401 160.832,151.383 159.500,154.000" stroke-width="4.053" stroke="black" fill="none" stroke-linecap="round"></path><path d="M 159.500,154.000 C 156.035,159.000 158.300,156.401 157.500,159.000" stroke-width="4.571" stroke="black" fill="none" stroke-linecap="round"></path><path d="M 157.500,159.000 C 164.234,157.510 161.035,159.000 169.500,154.000" stroke-width="4.761" stroke="black" fill="none" stroke-linecap="round"></path><path d="M 169.500,154.000 C 172.387,150.396 173.234,151.510 175.500,147.000" stroke-width="3.981" stroke="black" fill="none" stroke-linecap="round"></path><path d="M 175.500,147.000 C 177.808,144.278 177.887,144.396 180.500,142.000" stroke-width="3.925" stroke="black" fill="none" stroke-linecap="round"></path><path d="M 180.500,142.000 C 186.764,135.711 184.308,138.778 188.500,136.000" stroke-width="4.211" stroke="black" fill="none" stroke-linecap="round"></path><path d="M 188.500,136.000 C 187.775,139.600 189.764,136.211 186.500,143.000" stroke-width="4.775" stroke="black" fill="none" stroke-linecap="round"></path><path d="M 186.500,143.000 C 181.429,148.787 184.775,147.600 182.500,152.000" stroke-width="4.456" stroke="black" fill="none" stroke-linecap="round"></path><path d="M 182.500,152.000 C 186.698,155.475 183.429,154.787 190.500,155.000" stroke-width="4.822" stroke="black" fill="none" stroke-linecap="round"></path><path d="M 190.500,155.000 C 194.617,152.670 194.698,154.475 198.500,150.000" stroke-width="3.910" stroke="black" fill="none" stroke-linecap="round"></path><path d="M 198.500,150.000 C 202.312,146.710 202.617,147.170 206.500,144.000" stroke-width="3.750" stroke="black" fill="none" stroke-linecap="round"></path><path d="M 206.500,144.000 C 211.031,141.554 210.812,141.210 215.500,139.000" stroke-width="3.515" stroke="black" fill="none" stroke-linecap="round"></path><path d="M 215.500,139.000 C 219.833,135.111 218.031,137.554 220.500,136.000" stroke-width="3.919" stroke="black" fill="none" stroke-linecap="round"></path><path d="M 220.500,136.000 C 219.888,139.668 221.333,137.111 218.500,143.000" stroke-width="4.745" stroke="black" fill="none" stroke-linecap="round"></path><path d="M 218.500,143.000 C 214.338,147.419 217.388,145.668 215.500,148.000" stroke-width="4.785" stroke="black" fill="none" stroke-linecap="round"></path><path d="M 215.500,148.000 C 220.440,147.895 217.338,148.919 224.500,146.000" stroke-width="4.760" stroke="black" fill="none" stroke-linecap="round"></path><path d="M 224.500,146.000 C 227.600,143.610 227.940,144.395 230.500,141.000" stroke-width="4.141" stroke="black" fill="none" stroke-linecap="round"></path><path d="M 230.500,141.000 C 232.500,139.000 232.600,139.110 234.500,137.000" stroke-width="4.151" stroke="black" fill="none" stroke-linecap="round"></path><path d="M 234.500,137.000 C 239.329,132.503 236.500,135.000 238.500,133.000" stroke-width="4.586" stroke="black" fill="none" stroke-linecap="round"></path><path d="M 238.500,133.000 C 233.647,136.130 236.829,134.003 229.500,140.000" stroke-width="4.616" stroke="black" fill="none" stroke-linecap="round"></path><path d="M 229.500,140.000 C 226.306,143.353 226.147,143.130 223.500,147.000" stroke-width="3.892" stroke="black" fill="none" stroke-linecap="round"></path><path d="M 223.500,147.000 C 221.313,149.892 221.306,149.853 219.500,153.000" stroke-width="3.882" stroke="black" fill="none" stroke-linecap="round"></path><path d="M 219.500,153.000 C 215.043,158.636 217.813,155.892 216.500,159.000" stroke-width="4.405" stroke="black" fill="none" stroke-linecap="round"></path><path d="M 216.500,159.000 C 222.709,158.114 219.043,159.636 227.500,155.000" stroke-width="4.745" stroke="black" fill="none" stroke-linecap="round"></path><path d="M 227.500,155.000 C 232.000,150.500 232.709,151.614 236.500,146.000" stroke-width="3.561" stroke="black" fill="none" stroke-linecap="round"></path><path d="M 236.500,146.000 C 241.988,141.414 241.500,141.000 246.500,136.000" stroke-width="3.203" stroke="black" fill="none" stroke-linecap="round"></path><path d="M 246.500,136.000 C 251.455,128.967 251.988,129.414 256.500,122.000" stroke-width="2.907" stroke="black" fill="none" stroke-linecap="round"></path><path d="M 256.500,122.000 C 262.233,114.661 261.955,114.467 267.500,107.000" stroke-width="2.807" stroke="black" fill="none" stroke-linecap="round"></path><path d="M 267.500,107.000 C 272.402,98.038 273.233,98.661 278.500,90.000" stroke-width="2.572" stroke="black" fill="none" stroke-linecap="round"></path><path d="M 278.500,90.000 C 284.270,84.227 283.402,83.538 289.500,78.000" stroke-width="2.720" stroke="black" fill="none" stroke-linecap="round"></path><path d="M 289.500,78.000 C 294.255,71.295 294.770,71.727 299.500,65.000" stroke-width="2.872" stroke="black" fill="none" stroke-linecap="round"></path><path d="M 299.500,65.000 C 304.717,59.680 304.255,59.295 309.500,54.000" stroke-width="2.903" stroke="black" fill="none" stroke-linecap="round"></path><path d="M 309.500,54.000 C 312.595,50.067 312.717,50.180 315.500,46.000" stroke-width="3.273" stroke="black" fill="none" stroke-linecap="round"></path><path d="M 315.500,46.000 C 317.687,43.108 317.595,43.067 319.500,40.000" stroke-width="3.719" stroke="black" fill="none" stroke-linecap="round"></path><path d="M 319.500,40.000 C 323.777,35.064 321.187,37.108 322.500,34.000" stroke-width="4.367" stroke="black" fill="none" stroke-linecap="round"></path><path d="M 322.500,34.000 C 317.410,33.160 320.777,32.564 313.500,35.000" stroke-width="4.617" stroke="black" fill="none" stroke-linecap="round"></path><path d="M 313.500,35.000 C 309.383,38.375 308.910,37.160 305.500,42.000" stroke-width="3.860" stroke="black" fill="none" stroke-linecap="round"></path><path d="M 305.500,42.000 C 301.553,45.133 301.883,45.375 298.500,49.000" stroke-width="3.641" stroke="black" fill="none" stroke-linecap="round"></path><path d="M 298.500,49.000 C 294.320,54.888 294.053,54.633 290.500,61.000" stroke-width="3.135" stroke="black" fill="none" stroke-linecap="round"></path><path d="M 290.500,61.000 C 286.971,66.983 286.820,66.888 283.500,73.000" stroke-width="3.348" stroke="black" fill="none" stroke-linecap="round"></path><path d="M 283.500,73.000 C 279.415,79.953 279.471,79.983 275.500,87.000" stroke-width="3.011" stroke="black" fill="none" stroke-linecap="round"></path><path d="M 275.500,87.000 C 271.906,93.451 271.915,93.453 268.500,100.000" stroke-width="2.951" stroke="black" fill="none" stroke-linecap="round"></path><path d="M 268.500,100.000 C 265.394,105.949 265.406,105.951 262.500,112.000" stroke-width="3.083" stroke="black" fill="none" stroke-linecap="round"></path><path d="M 262.500,112.000 C 260.200,117.601 259.894,117.449 257.500,123.000" stroke-width="3.167" stroke="black" fill="none" stroke-linecap="round"></path><path d="M 257.500,123.000 C 254.799,127.402 255.200,127.601 252.500,132.000" stroke-width="3.342" stroke="black" fill="none" stroke-linecap="round"></path><path d="M 252.500,132.000 C 251.199,135.602 250.799,135.402 249.500,139.000" stroke-width="3.704" stroke="black" fill="none" stroke-linecap="round"></path><path d="M 249.500,139.000 C 247.699,141.362 248.199,141.602 246.500,144.000" stroke-width="3.987" stroke="black" fill="none" stroke-linecap="round"></path><path d="M 246.500,144.000 C 243.320,148.348 245.199,146.862 244.500,150.000" stroke-width="4.474" stroke="black" fill="none" stroke-linecap="round"></path><path d="M 244.500,150.000 C 248.094,151.284 245.820,151.848 251.500,151.000" stroke-width="4.945" stroke="black" fill="none" stroke-linecap="round"></path><path d="M 251.500,151.000 C 253.932,149.790 254.094,150.784 256.500,149.000" stroke-width="4.405" stroke="black" fill="none" stroke-linecap="round"></path><path d="M 256.500,149.000 C 264.086,145.343 260.432,147.790 264.500,147.000" stroke-width="4.471" stroke="black" fill="none" stroke-linecap="round"></path><path d="M 264.500,147.000 C 262.386,152.744 265.086,149.343 258.500,157.000" stroke-width="4.660" stroke="black" fill="none" stroke-linecap="round"></path><path d="M 258.500,157.000 C 251.199,163.744 251.886,164.244 243.500,170.000" stroke-width="2.914" stroke="black" fill="none" stroke-linecap="round"></path><path d="M 243.500,170.000 C 235.605,177.489 235.199,176.744 226.500,183.000" stroke-width="2.604" stroke="black" fill="none" stroke-linecap="round"></path><path d="M 226.500,183.000 C 216.361,188.905 216.605,188.989 205.500,193.000" stroke-width="2.439" stroke="black" fill="none" stroke-linecap="round"></path><path d="M 205.500,193.000 C 185.820,201.523 185.861,200.405 165.500,206.000" stroke-width="2.491" stroke="black" fill="none" stroke-linecap="round"></path><path d="M 165.500,206.000 C 155.972,206.512 156.320,208.023 146.500,206.000" stroke-width="2.658" stroke="black" fill="none" stroke-linecap="round"></path><path d="M 146.500,206.000 C 137.039,206.479 137.472,205.512 128.500,204.000" stroke-width="2.644" stroke="black" fill="none" stroke-linecap="round"></path><path d="M 128.500,204.000 C 121.385,201.359 121.539,201.979 115.500,197.000" stroke-width="2.890" stroke="black" fill="none" stroke-linecap="round"></path><path d="M 115.500,197.000 C 107.630,191.152 107.885,191.359 101.500,184.000" stroke-width="3.305" stroke="black" fill="none" stroke-linecap="round"></path><path d="M 101.500,184.000 C 98.444,180.249 98.630,180.652 97.500,176.000" stroke-width="3.563" stroke="black" fill="none" stroke-linecap="round"></path><path d="M 97.500,176.000 C 95.947,170.659 96.444,171.249 97.500,166.000" stroke-width="4.059" stroke="black" fill="none" stroke-linecap="round"></path><path d="M 97.500,166.000 C 100.839,151.078 101.947,152.659 109.500,140.000" stroke-width="2.451" stroke="black" fill="none" stroke-linecap="round"></path><path d="M 109.500,140.000 C 123.722,123.663 122.339,123.578 140.500,111.000" stroke-width="2.514" stroke="black" fill="none" stroke-linecap="round"></path><path d="M 140.500,111.000 C 151.237,104.897 150.222,103.663 162.500,100.000" stroke-width="2.298" stroke="black" fill="none" stroke-linecap="round"></path><path d="M 162.500,100.000 C 174.307,94.891 174.237,94.897 186.500,91.000" stroke-width="2.540" stroke="black" fill="none" stroke-linecap="round"></path><path d="M 186.500,91.000 C 197.846,87.185 197.807,87.391 209.500,85.000" stroke-width="2.340" stroke="black" fill="none" stroke-linecap="round"></path><path d="M 209.500,85.000 C 221.956,82.768 221.846,82.685 234.500,82.000" stroke-width="2.288" stroke="black" fill="none" stroke-linecap="round"></path><path d="M 234.500,82.000 C 246.500,82.000 246.456,81.268 258.500,82.000" stroke-width="2.261" stroke="black" fill="none" stroke-linecap="round"></path><path d="M 258.500,82.000 C 269.659,80.709 269.500,82.000 280.500,82.000" stroke-width="2.391" stroke="black" fill="none" stroke-linecap="round"></path><path d="M 280.500,82.000 C 290.763,83.754 290.659,83.209 300.500,87.000" stroke-width="2.438" stroke="black" fill="none" stroke-linecap="round"></path><path d="M 300.500,87.000 C 307.234,89.582 307.263,89.254 313.500,93.000" stroke-width="2.786" stroke="black" fill="none" stroke-linecap="round"></path><path d="M 313.500,93.000 C 318.417,95.545 318.234,95.582 322.500,99.000" stroke-width="3.162" stroke="black" fill="none" stroke-linecap="round"></path><path d="M 322.500,99.000 C 325.545,101.134 324.917,101.045 326.500,104.000" stroke-width="3.716" stroke="black" fill="none" stroke-linecap="round"></path><path d="M 326.500,104.000 C 328.040,108.091 327.545,107.134 326.500,111.000" stroke-width="3.852" stroke="black" fill="none" stroke-linecap="round"></path><path d="M 326.500,111.000 C 322.717,116.870 323.540,116.591 317.500,121.000" stroke-width="3.258" stroke="black" fill="none" stroke-linecap="round"></path><path d="M 317.500,121.000 C 310.343,126.191 310.717,126.370 302.500,130.000" stroke-width="2.902" stroke="black" fill="none" stroke-linecap="round"></path><path d="M 302.500,130.000 C 292.719,134.679 292.843,134.691 282.500,138.000" stroke-width="2.594" stroke="black" fill="none" stroke-linecap="round"></path><path d="M 282.500,138.000 C 272.604,141.029 272.719,141.179 262.500,143.000" stroke-width="2.497" stroke="black" fill="none" stroke-linecap="round"></path><path d="M 262.500,143.000 C 252.043,144.946 252.104,145.029 241.500,146.000" stroke-width="2.501" stroke="black" fill="none" stroke-linecap="round"></path><path d="M 241.500,146.000 C 232.006,146.712 232.043,146.946 222.500,147.000" stroke-width="2.606" stroke="black" fill="none" stroke-linecap="round"></path><path d="M 222.500,147.000 C 215.500,147.000 215.506,147.212 208.500,147.000" stroke-width="2.870" stroke="black" fill="none" stroke-linecap="round"></path><path d="M 208.500,147.000 C 203.880,147.626 204.000,147.000 199.500,147.000" stroke-width="3.434" stroke="black" fill="none" stroke-linecap="round"></path><path d="M 199.500,147.000 C 193.385,145.976 196.880,146.626 194.500,145.000" stroke-width="4.440" stroke="black" fill="none" stroke-linecap="round"></path><path d="M 194.500,145.000 C 201.034,142.586 197.385,142.476 207.500,140.000" stroke-width="3.402" stroke="black" fill="none" stroke-linecap="round"></path><path d="M 207.500,140.000 C 215.965,136.414 216.034,136.586 224.500,133.000" stroke-width="2.812" stroke="black" fill="none" stroke-linecap="round"></path><path d="M 224.500,133.000 C 233.293,128.790 233.465,129.414 242.500,126.000" stroke-width="2.684" stroke="black" fill="none" stroke-linecap="round"></path><path d="M 242.500,126.000 C 249.980,124.393 249.793,123.790 257.500,123.000" stroke-width="2.872" stroke="black" fill="none" stroke-linecap="round"></path><path d="M 257.500,123.000 C 263.467,121.603 263.480,121.893 269.500,121.000" stroke-width="3.091" stroke="black" fill="none" stroke-linecap="round"></path><path d="M 269.500,121.000 C 273.500,121.000 273.467,120.603 277.500,121.000" stroke-width="3.525" stroke="black" fill="none" stroke-linecap="round"></path><path d="M 277.500,121.000 C 282.764,119.554 281.000,121.000 284.500,121.000" stroke-width="4.223" stroke="black" fill="none" stroke-linecap="round"></path><path d="M 284.500,121.000 C 284.830,124.005 285.764,122.054 283.500,126.000" stroke-width="4.644" stroke="black" fill="none" stroke-linecap="round"></path><path d="M 283.500,126.000 C 281.240,128.401 281.830,128.505 278.500,130.000" stroke-width="4.286" stroke="black" fill="none" stroke-linecap="round"></path><path d="M 278.500,130.000 C 273.896,130.604 275.240,131.901 271.500,133.000" stroke-width="4.514" stroke="black" fill="none" stroke-linecap="round"></path><path d="M 271.500,133.000 C 271.900,136.134 269.896,134.604 270.500,138.000" stroke-width="5.152" stroke="black" fill="none" stroke-linecap="round"></path><path d="M 176.500,166.000 C 180.934,167.603 181.000,167.000 185.500,168.000" stroke-width="4.970" stroke="black" fill="none" stroke-linecap="round"></path><path d="M 185.500,168.000 C 192.500,168.000 192.434,168.603 199.500,168.000" stroke-width="3.405" stroke="black" fill="none" stroke-linecap="round"></path><path d="M 199.500,168.000 C 210.521,168.488 210.500,168.000 221.500,168.000" stroke-width="2.742" stroke="black" fill="none" stroke-linecap="round"></path><path d="M 221.500,168.000 C 233.020,167.196 233.021,167.488 244.500,166.000" stroke-width="2.419" stroke="black" fill="none" stroke-linecap="round"></path><path d="M 244.500,166.000 C 256.971,164.205 257.020,164.696 269.500,163.000" stroke-width="2.311" stroke="black" fill="none" stroke-linecap="round"></path><path d="M 269.500,163.000 C 283.001,162.019 282.971,161.705 296.500,161.000" stroke-width="2.210" stroke="black" fill="none" stroke-linecap="round"></path><path d="M 296.500,161.000 C 309.488,159.797 309.501,160.019 322.500,159.000" stroke-width="2.320" stroke="black" fill="none" stroke-linecap="round"></path><path d="M 322.500,159.000 C 333.995,158.261 333.988,158.297 345.500,158.000" stroke-width="2.311" stroke="black" fill="none" stroke-linecap="round"></path><path d="M 345.500,158.000 C 356.010,157.709 355.995,157.761 366.500,158.000" stroke-width="2.395" stroke="black" fill="none" stroke-linecap="round"></path><path d="M 366.500,158.000 C 374.008,158.401 374.010,158.209 381.500,159.000" stroke-width="2.727" stroke="black" fill="none" stroke-linecap="round"></path><path d="M 381.500,159.000 C 386.516,159.377 386.508,159.401 391.500,160.000" stroke-width="3.199" stroke="black" fill="none" stroke-linecap="round"></path><path d="M 391.500,160.000 C 394.508,160.456 394.516,160.377 397.500,161.000" stroke-width="3.842" stroke="black" fill="none" stroke-linecap="round"></path><path d="M 397.500,161.000 C 402.919,161.581 400.008,161.456 402.500,162.000" stroke-width="4.521" stroke="black" fill="none" stroke-linecap="round"></path></svg>