<svg xmlns="http://www.w3.org/2000/svg" xmlns:xlink="http://www.w3.org/1999/xlink" viewBox="0 0 453 236" width="453" height="236"><path d="M 141.500,138.000 C 138.584,136.617 138.500,137.000 135.500,136.000" stroke-width="5.333" stroke="black" fill="none" stroke-linecap="round"></path><path d="M 135.500,136.000 C 131.013,135.265 131.084,135.117 126.500,135.000" stroke-width="4.952" stroke="black" fill="none" stroke-linecap="round"></path><path d="M 126.500,135.000 C 122.476,135.284 122.513,134.765 118.500,135.000" stroke-width="4.666" stroke="black" fill="none" stroke-linecap="round"></path><path d="M 118.500,135.000 C 115.417,134.796 115.476,134.784 112.500,134.000" stroke-width="4.708" stroke="black" fill="none" stroke-linecap="round"></path><path d="M 112.500,134.000 C 108.250,133.750 109.917,133.296 107.500,132.000" stroke-width="5.096" stroke="black" fill="none" stroke-linecap="round"></path><path d="M 107.500,132.000 C 108.037,129.195 106.750,130.250 109.500,127.000" stroke-width="5.214" stroke="black" fill="none" stroke-linecap="round"></path><path d="M 109.500,127.000 C 111.500,125.000 111.037,124.695 113.500,123.000" stroke-width="4.523" stroke="black" fill="none" stroke-linecap="round"></path><path d="M 113.500,123.000 C 115.332,120.807 115.500,121.000 117.500,119.000" stroke-width="4.307" stroke="black" fill="none" stroke-linecap="round"></path><path d="M 117.500,119.000 C 121.598,116.122 121.332,115.807 125.500,113.000" stroke-width="3.678" stroke="black" fill="none" stroke-linecap="round"></path><path d="M 125.500,113.000 C 129.249,110.251 129.098,110.122 132.500,107.000" stroke-width="3.754" stroke="black" fill="none" stroke-linecap="round"></path><path d="M 132.500,107.000 C 135.875,102.883 136.249,103.251 139.500,99.000" stroke-width="3.484" stroke="black" fill="none" stroke-linecap="round"></path><path d="M 139.500,99.000 C 142.876,95.366 142.875,95.383 146.500,92.000" stroke-width="3.478" stroke="black" fill="none" stroke-linecap="round"></path><path d="M 146.500,92.000 C 150.115,89.124 149.876,88.866 153.500,86.000" stroke-width="3.541" stroke="black" fill="none" stroke-linecap="round"></path><path d="M 153.500,86.000 C 156.272,82.731 156.615,83.124 159.500,80.000" stroke-width="3.686" stroke="black" fill="none" stroke-linecap="round"></path><path d="M 159.500,80.000 C 162.924,77.384 162.772,77.231 166.500,75.000" stroke-width="3.667" stroke="black" fill="none" stroke-linecap="round"></path><path d="M 166.500,75.000 C 168.898,73.301 168.924,73.384 171.500,72.000" stroke-width="4.017" stroke="black" fill="none" stroke-linecap="round"></path><path d="M 171.500,72.000 C 178.095,67.582 174.898,70.301 178.500,69.000" stroke-width="4.405" stroke="black" fill="none" stroke-linecap="round"></path><path d="M 178.500,69.000 C 176.403,74.249 179.095,71.082 173.500,79.000" stroke-width="4.748" stroke="black" fill="none" stroke-linecap="round"></path><path d="M 173.500,79.000 C 170.537,83.028 170.903,83.249 167.500,87.000" stroke-width="3.768" stroke="black" fill="none" stroke-linecap="round"></path><path d="M 167.500,87.000 C 164.079,91.563 164.037,91.528 160.500,96.000" stroke-width="3.478" stroke="black" fill="none" stroke-linecap="round"></path><path d="M 160.500,96.000 C 151.500,107.000 151.579,107.063 142.500,118.000" stroke-width="3.177" stroke="black" fill="none" stroke-linecap="round"></path><path d="M 142.500,118.000 C 138.343,123.811 138.000,123.500 133.500,129.000" stroke-width="3.036" stroke="black" fill="none" stroke-linecap="round"></path><path d="M 133.500,129.000 C 124.162,138.671 124.343,138.811 114.500,148.000" stroke-width="3.109" stroke="black" fill="none" stroke-linecap="round"></path><path d="M 114.500,148.000 C 109.721,152.773 109.662,152.671 104.500,157.000" stroke-width="3.131" stroke="black" fill="none" stroke-linecap="round"></path><path d="M 104.500,157.000 C 99.189,161.290 99.221,161.273 93.500,165.000" stroke-width="3.127" stroke="black" fill="none" stroke-linecap="round"></path><path d="M 93.500,165.000 C 87.404,168.345 87.689,168.790 81.500,172.000" stroke-width="3.045" stroke="black" fill="none" stroke-linecap="round"></path><path d="M 81.500,172.000 C 77.171,175.295 76.904,174.845 72.500,178.000" stroke-width="3.256" stroke="black" fill="none" stroke-linecap="round"></path><path d="M 72.500,178.000 C 67.446,180.397 67.671,180.795 62.500,183.000" stroke-width="3.865" stroke="black" fill="none" stroke-linecap="round"></path><path d="M 62.500,183.000 C 58.049,185.592 57.946,185.397 53.500,188.000" stroke-width="3.604" stroke="black" fill="none" stroke-linecap="round"></path><path d="M 53.500,188.000 C 49.551,190.110 49.549,190.092 45.500,192.000" stroke-width="3.661" stroke="black" fill="none" stroke-linecap="round"></path><path d="M 45.500,192.000 C 42.051,193.634 42.051,193.610 38.500,195.000" stroke-width="3.815" stroke="black" fill="none" stroke-linecap="round"></path><path d="M 38.500,195.000 C 35.545,196.170 35.551,196.134 32.500,197.000" stroke-width="4.010" stroke="black" fill="none" stroke-linecap="round"></path><path d="M 32.500,197.000 C 30.000,197.500 30.045,197.670 27.500,198.000" stroke-width="4.227" stroke="black" fill="none" stroke-linecap="round"></path><path d="M 27.500,198.000 C 23.649,200.149 25.000,198.500 22.500,199.000" stroke-width="4.297" stroke="black" fill="none" stroke-linecap="round"></path><path d="M 22.500,199.000 C 21.027,195.455 21.149,197.649 22.500,193.000" stroke-width="4.773" stroke="black" fill="none" stroke-linecap="round"></path><path d="M 22.500,193.000 C 28.157,185.660 27.027,185.455 34.500,179.000" stroke-width="3.925" stroke="black" fill="none" stroke-linecap="round"></path><path d="M 34.500,179.000 C 38.500,175.500 38.157,175.160 42.500,172.000" stroke-width="3.645" stroke="black" fill="none" stroke-linecap="round"></path><path d="M 42.500,172.000 C 46.287,168.222 46.500,168.500 50.500,165.000" stroke-width="3.455" stroke="black" fill="none" stroke-linecap="round"></path><path d="M 50.500,165.000 C 54.777,161.598 54.787,161.722 59.500,159.000" stroke-width="3.443" stroke="black" fill="none" stroke-linecap="round"></path><path d="M 59.500,159.000 C 64.913,156.286 64.777,156.098 70.500,154.000" stroke-width="3.273" stroke="black" fill="none" stroke-linecap="round"></path><path d="M 70.500,154.000 C 76.032,152.083 75.913,151.786 81.500,150.000" stroke-width="3.461" stroke="black" fill="none" stroke-linecap="round"></path><path d="M 81.500,150.000 C 86.441,147.840 86.532,148.083 91.500,146.000" stroke-width="3.449" stroke="black" fill="none" stroke-linecap="round"></path><path d="M 91.500,146.000 C 97.433,143.770 97.441,143.840 103.500,142.000" stroke-width="3.228" stroke="black" fill="none" stroke-linecap="round"></path><path d="M 103.500,142.000 C 109.450,140.260 109.433,140.270 115.500,139.000" stroke-width="3.189" stroke="black" fill="none" stroke-linecap="round"></path><path d="M 115.500,139.000 C 121.639,138.529 121.450,137.760 127.500,137.000" stroke-width="3.251" stroke="black" fill="none" stroke-linecap="round"></path><path d="M 127.500,137.000 C 132.950,134.850 133.139,135.529 138.500,133.000" stroke-width="3.307" stroke="black" fill="none" stroke-linecap="round"></path><path d="M 138.500,133.000 C 143.653,131.885 143.450,131.350 148.500,130.000" stroke-width="3.374" stroke="black" fill="none" stroke-linecap="round"></path><path d="M 148.500,130.000 C 152.449,127.890 152.653,128.385 156.500,126.000" stroke-width="3.586" stroke="black" fill="none" stroke-linecap="round"></path><path d="M 156.500,126.000 C 160.102,124.699 159.949,124.390 163.500,123.000" stroke-width="3.790" stroke="black" fill="none" stroke-linecap="round"></path><path d="M 163.500,123.000 C 166.000,121.500 166.102,121.699 168.500,120.000" stroke-width="4.017" stroke="black" fill="none" stroke-linecap="round"></path><path d="M 168.500,120.000 C 173.954,117.682 171.000,118.500 173.500,117.000" stroke-width="4.681" stroke="black" fill="none" stroke-linecap="round"></path><path d="M 173.500,117.000 C 169.753,116.071 172.954,116.182 166.500,117.000" stroke-width="5.076" stroke="black" fill="none" stroke-linecap="round"></path><path d="M 166.500,117.000 C 162.696,118.603 162.753,118.071 159.500,121.000" stroke-width="4.674" stroke="black" fill="none" stroke-linecap="round"></path><path d="M 159.500,121.000 C 157.000,123.500 156.696,123.103 154.500,126.000" stroke-width="4.105" stroke="black" fill="none" stroke-linecap="round"></path><path d="M 154.500,126.000 C 152.000,128.500 152.000,128.500 149.500,131.000" stroke-width="3.960" stroke="black" fill="none" stroke-linecap="round"></path><path d="M 149.500,131.000 C 146.500,134.000 146.500,134.000 143.500,137.000" stroke-width="3.812" stroke="black" fill="none" stroke-linecap="round"></path><path d="M 143.500,137.000 C 140.500,140.000 140.500,140.000 137.500,143.000" stroke-width="3.716" stroke="black" fill="none" stroke-linecap="round"></path><path d="M 137.500,143.000 C 135.390,144.900 135.500,145.000 133.500,147.000" stroke-width="4.055" stroke="black" fill="none" stroke-linecap="round"></path><path d="M 133.500,147.000 C 127.994,150.722 130.890,149.900 128.500,153.000" stroke-width="4.388" stroke="black" fill="none" stroke-linecap="round"></path><path d="M 128.500,153.000 C 132.000,156.000 128.994,155.222 135.500,156.000" stroke-width="4.879" stroke="black" fill="none" stroke-linecap="round"></path><path d="M 135.500,156.000 C 139.100,154.700 139.000,156.000 142.500,153.000" stroke-width="4.138" stroke="black" fill="none" stroke-linecap="round"></path><path d="M 142.500,153.000 C 146.353,151.484 146.100,151.200 149.500,149.000" stroke-width="4.398" stroke="black" fill="none" stroke-linecap="round"></path><path d="M 149.500,149.000 C 155.563,143.566 155.853,143.984 161.500,138.000" stroke-width="3.207" stroke="black" fill="none" stroke-linecap="round"></path><path d="M 161.500,138.000 C 163.715,136.182 163.563,136.066 165.500,134.000" stroke-width="3.855" stroke="black" fill="none" stroke-linecap="round"></path><path d="M 165.500,134.000 C 171.030,129.652 168.215,130.682 170.500,127.000" stroke-width="4.278" stroke="black" fill="none" stroke-linecap="round"></path><path d="M 170.500,127.000 C 166.462,123.259 170.030,124.652 163.500,124.000" stroke-width="4.932" stroke="black" fill="none" stroke-linecap="round"></path><path d="M 163.500,124.000 C 160.714,126.802 160.462,124.759 158.500,130.000" stroke-width="4.676" stroke="black" fill="none" stroke-linecap="round"></path><path d="M 158.500,130.000 C 156.851,133.768 156.214,133.302 154.500,137.000" stroke-width="4.585" stroke="black" fill="none" stroke-linecap="round"></path><path d="M 154.500,137.000 C 149.324,139.992 152.851,139.268 150.500,141.000" stroke-width="4.749" stroke="black" fill="none" stroke-linecap="round"></path><path d="M 150.500,141.000 C 156.329,144.077 152.824,142.992 161.500,143.000" stroke-width="5.076" stroke="black" fill="none" stroke-linecap="round"></path><path d="M 161.500,143.000 C 168.151,139.752 168.329,141.577 174.500,136.000" stroke-width="4.180" stroke="black" fill="none" stroke-linecap="round"></path><path d="M 174.500,136.000 C 179.000,133.000 179.151,133.252 183.500,130.000" stroke-width="3.631" stroke="black" fill="none" stroke-linecap="round"></path><path d="M 183.500,130.000 C 188.037,127.054 188.000,127.000 192.500,124.000" stroke-width="3.494" stroke="black" fill="none" stroke-linecap="round"></path><path d="M 192.500,124.000 C 197.718,120.776 197.537,120.554 202.500,117.000" stroke-width="3.276" stroke="black" fill="none" stroke-linecap="round"></path><path d="M 202.500,117.000 C 207.249,113.251 207.218,113.276 211.500,109.000" stroke-width="3.341" stroke="black" fill="none" stroke-linecap="round"></path><path d="M 211.500,109.000 C 216.528,103.525 216.749,103.751 221.500,98.000" stroke-width="3.032" stroke="black" fill="none" stroke-linecap="round"></path><path d="M 221.500,98.000 C 225.596,93.583 225.528,93.525 229.500,89.000" stroke-width="3.154" stroke="black" fill="none" stroke-linecap="round"></path><path d="M 229.500,89.000 C 237.236,80.176 237.096,80.083 244.500,71.000" stroke-width="3.248" stroke="black" fill="none" stroke-linecap="round"></path><path d="M 244.500,71.000 C 246.687,68.108 246.736,68.176 248.500,65.000" stroke-width="4.098" stroke="black" fill="none" stroke-linecap="round"></path><path d="M 248.500,65.000 C 250.181,62.079 250.187,62.108 251.500,59.000" stroke-width="4.053" stroke="black" fill="none" stroke-linecap="round"></path><path d="M 251.500,59.000 C 255.580,52.620 253.181,55.079 254.500,51.000" stroke-width="4.335" stroke="black" fill="none" stroke-linecap="round"></path><path d="M 254.500,51.000 C 250.106,50.612 253.580,49.620 247.500,53.000" stroke-width="4.933" stroke="black" fill="none" stroke-linecap="round"></path><path d="M 247.500,53.000 C 238.613,62.703 238.106,61.612 230.500,73.000" stroke-width="2.650" stroke="black" fill="none" stroke-linecap="round"></path><path d="M 230.500,73.000 C 226.163,79.619 225.613,79.203 221.500,86.000" stroke-width="2.830" stroke="black" fill="none" stroke-linecap="round"></path><path d="M 221.500,86.000 C 216.651,92.622 216.663,92.619 211.500,99.000" stroke-width="2.853" stroke="black" fill="none" stroke-linecap="round"></path><path d="M 211.500,99.000 C 206.106,105.593 206.151,105.622 200.500,112.000" stroke-width="2.823" stroke="black" fill="none" stroke-linecap="round"></path><path d="M 200.500,112.000 C 195.602,117.598 195.606,117.593 190.500,123.000" stroke-width="2.887" stroke="black" fill="none" stroke-linecap="round"></path><path d="M 190.500,123.000 C 187.000,126.500 187.102,126.598 183.500,130.000" stroke-width="3.324" stroke="black" fill="none" stroke-linecap="round"></path><path d="M 183.500,130.000 C 180.642,132.215 181.000,132.500 178.500,135.000" stroke-width="3.753" stroke="black" fill="none" stroke-linecap="round"></path><path d="M 178.500,135.000 C 174.455,138.862 175.642,138.715 173.500,143.000" stroke-width="4.167" stroke="black" fill="none" stroke-linecap="round"></path><path d="M 173.500,143.000 C 173.868,148.000 172.955,145.362 175.500,148.000" stroke-width="4.921" stroke="black" fill="none" stroke-linecap="round"></path><path d="M 175.500,148.000 C 178.750,145.750 177.868,148.000 181.500,143.000" stroke-width="4.654" stroke="black" fill="none" stroke-linecap="round"></path><path d="M 181.500,143.000 C 183.640,139.600 184.250,140.250 186.500,137.000" stroke-width="4.064" stroke="black" fill="none" stroke-linecap="round"></path><path d="M 186.500,137.000 C 189.459,134.935 189.140,134.600 192.500,133.000" stroke-width="3.983" stroke="black" fill="none" stroke-linecap="round"></path><path d="M 192.500,133.000 C 195.117,131.668 194.959,131.435 197.500,130.000" stroke-width="4.125" stroke="black" fill="none" stroke-linecap="round"></path><path d="M 197.500,130.000 C 199.717,127.392 200.117,128.168 202.500,126.000" stroke-width="4.142" stroke="black" fill="none" stroke-linecap="round"></path><path d="M 202.500,126.000 C 206.656,123.480 204.717,124.892 207.500,125.000" stroke-width="4.615" stroke="black" fill="none" stroke-linecap="round"></path><path d="M 207.500,125.000 C 208.150,130.125 209.156,127.980 207.500,135.000" stroke-width="4.807" stroke="black" fill="none" stroke-linecap="round"></path><path d="M 207.500,135.000 C 206.536,137.515 207.150,137.625 205.500,140.000" stroke-width="4.372" stroke="black" fill="none" stroke-linecap="round"></path><path d="M 205.500,140.000 C 201.117,146.802 204.036,143.515 202.500,147.000" stroke-width="4.509" stroke="black" fill="none" stroke-linecap="round"></path><path d="M 202.500,147.000 C 207.696,144.287 204.617,147.302 212.500,141.000" stroke-width="4.717" stroke="black" fill="none" stroke-linecap="round"></path><path d="M 212.500,141.000 C 217.234,137.765 217.196,137.787 221.500,134.000" stroke-width="3.683" stroke="black" fill="none" stroke-linecap="round"></path><path d="M 221.500,134.000 C 225.349,129.832 225.734,130.265 229.500,126.000" stroke-width="3.403" stroke="black" fill="none" stroke-linecap="round"></path><path d="M 229.500,126.000 C 232.124,124.138 231.849,123.832 234.500,122.000" stroke-width="3.854" stroke="black" fill="none" stroke-linecap="round"></path><path d="M 234.500,122.000 C 238.708,116.736 237.124,119.638 239.500,117.000" stroke-width="4.383" stroke="black" fill="none" stroke-linecap="round"></path><path d="M 239.500,117.000 C 238.819,120.143 240.208,117.236 237.500,123.000" stroke-width="4.778" stroke="black" fill="none" stroke-linecap="round"></path><path d="M 237.500,123.000 C 235.410,126.452 235.819,126.643 233.500,130.000" stroke-width="4.001" stroke="black" fill="none" stroke-linecap="round"></path><path d="M 233.500,130.000 C 231.905,132.956 231.910,132.952 230.500,136.000" stroke-width="3.975" stroke="black" fill="none" stroke-linecap="round"></path><path d="M 230.500,136.000 C 226.383,142.553 228.905,139.456 227.500,143.000" stroke-width="4.576" stroke="black" fill="none" stroke-linecap="round"></path><path d="M 227.500,143.000 C 231.707,140.782 228.883,143.553 235.500,138.000" stroke-width="4.433" stroke="black" fill="none" stroke-linecap="round"></path><path d="M 235.500,138.000 C 239.124,135.134 239.207,135.282 242.500,132.000" stroke-width="3.852" stroke="black" fill="none" stroke-linecap="round"></path><path d="M 242.500,132.000 C 246.146,128.633 246.124,128.634 249.500,125.000" stroke-width="3.580" stroke="black" fill="none" stroke-linecap="round"></path><path d="M 249.500,125.000 C 251.752,121.748 252.146,122.133 254.500,119.000" stroke-width="4.191" stroke="black" fill="none" stroke-linecap="round"></path><path d="M 254.500,119.000 C 259.323,113.762 256.752,116.748 259.500,115.000" stroke-width="4.117" stroke="black" fill="none" stroke-linecap="round"></path><path d="M 259.500,115.000 C 257.555,120.521 259.823,117.262 255.500,126.000" stroke-width="4.667" stroke="black" fill="none" stroke-linecap="round"></path><path d="M 255.500,126.000 C 254.536,128.515 254.555,128.521 253.500,131.000" stroke-width="4.336" stroke="black" fill="none" stroke-linecap="round"></path><path d="M 253.500,131.000 C 249.286,136.057 252.036,134.515 250.500,138.000" stroke-width="4.515" stroke="black" fill="none" stroke-linecap="round"></path><path d="M 250.500,138.000 C 254.929,140.116 251.786,140.057 258.500,139.000" stroke-width="5.066" stroke="black" fill="none" stroke-linecap="round"></path><path d="M 258.500,139.000 C 262.680,136.217 262.929,137.616 266.500,133.000" stroke-width="3.825" stroke="black" fill="none" stroke-linecap="round"></path><path d="M 266.500,133.000 C 272.000,128.000 272.180,128.217 277.500,123.000" stroke-width="3.331" stroke="black" fill="none" stroke-linecap="round"></path><path d="M 277.500,123.000 C 283.143,118.150 283.000,118.000 288.500,113.000" stroke-width="3.152" stroke="black" fill="none" stroke-linecap="round"></path><path d="M 288.500,113.000 C 296.134,105.629 296.143,105.650 303.500,98.000" stroke-width="2.667" stroke="black" fill="none" stroke-linecap="round"></path><path d="M 303.500,98.000 C 309.991,90.991 310.134,91.129 316.500,84.000" stroke-width="2.594" stroke="black" fill="none" stroke-linecap="round"></path><path d="M 316.500,84.000 C 323.687,76.665 323.491,76.491 330.500,69.000" stroke-width="2.502" stroke="black" fill="none" stroke-linecap="round"></path><path d="M 330.500,69.000 C 335.526,63.021 335.687,63.165 340.500,57.000" stroke-width="2.838" stroke="black" fill="none" stroke-linecap="round"></path><path d="M 340.500,57.000 C 344.951,51.459 345.026,51.521 349.500,46.000" stroke-width="2.992" stroke="black" fill="none" stroke-linecap="round"></path><path d="M 349.500,46.000 C 352.743,42.675 352.451,42.459 355.500,39.000" stroke-width="3.422" stroke="black" fill="none" stroke-linecap="round"></path><path d="M 355.500,39.000 C 357.200,36.599 357.243,36.675 358.500,34.000" stroke-width="3.925" stroke="black" fill="none" stroke-linecap="round"></path><path d="M 358.500,34.000 C 361.581,30.297 359.700,31.599 360.500,29.000" stroke-width="4.533" stroke="black" fill="none" stroke-linecap="round"></path><path d="M 360.500,29.000 C 357.004,28.000 359.081,27.297 353.500,28.000" stroke-width="4.619" stroke="black" fill="none" stroke-linecap="round"></path><path d="M 353.500,28.000 C 349.271,27.743 349.504,28.000 345.500,29.000" stroke-width="4.026" stroke="black" fill="none" stroke-linecap="round"></path><path d="M 345.500,29.000 C 340.237,31.068 340.271,30.743 335.500,34.000" stroke-width="3.497" stroke="black" fill="none" stroke-linecap="round"></path><path d="M 335.500,34.000 C 329.648,37.588 329.737,37.568 324.500,42.000" stroke-width="3.341" stroke="black" fill="none" stroke-linecap="round"></path><path d="M 324.500,42.000 C 318.985,46.570 319.148,46.588 314.500,52.000" stroke-width="3.205" stroke="black" fill="none" stroke-linecap="round"></path><path d="M 314.500,52.000 C 310.000,58.500 309.485,58.070 305.500,65.000" stroke-width="2.996" stroke="black" fill="none" stroke-linecap="round"></path><path d="M 305.500,65.000 C 300.637,71.278 301.000,71.500 296.500,78.000" stroke-width="2.938" stroke="black" fill="none" stroke-linecap="round"></path><path d="M 296.500,78.000 C 292.728,84.365 292.637,84.278 289.500,91.000" stroke-width="3.225" stroke="black" fill="none" stroke-linecap="round"></path><path d="M 289.500,91.000 C 283.696,102.875 283.728,102.865 278.500,115.000" stroke-width="2.365" stroke="black" fill="none" stroke-linecap="round"></path><path d="M 278.500,115.000 C 276.725,120.597 276.196,120.375 274.500,126.000" stroke-width="2.968" stroke="black" fill="none" stroke-linecap="round"></path><path d="M 274.500,126.000 C 272.636,128.875 273.225,129.097 271.500,132.000" stroke-width="3.711" stroke="black" fill="none" stroke-linecap="round"></path><path d="M 271.500,132.000 C 268.960,137.257 270.636,134.375 270.500,137.000" stroke-width="4.083" stroke="black" fill="none" stroke-linecap="round"></path><path d="M 270.500,137.000 C 277.151,133.752 274.960,136.257 283.500,130.000" stroke-width="4.672" stroke="black" fill="none" stroke-linecap="round"></path><path d="M 283.500,130.000 C 288.000,127.000 288.151,127.252 292.500,124.000" stroke-width="3.734" stroke="black" fill="none" stroke-linecap="round"></path><path d="M 292.500,124.000 C 296.829,120.705 297.000,121.000 301.500,118.000" stroke-width="3.461" stroke="black" fill="none" stroke-linecap="round"></path><path d="M 301.500,118.000 C 306.320,115.014 306.329,115.205 311.500,113.000" stroke-width="3.413" stroke="black" fill="none" stroke-linecap="round"></path><path d="M 311.500,113.000 C 315.500,112.000 315.320,111.514 319.500,111.000" stroke-width="3.617" stroke="black" fill="none" stroke-linecap="round"></path><path d="M 319.500,111.000 C 323.448,109.579 323.500,110.000 327.500,109.000" stroke-width="3.782" stroke="black" fill="none" stroke-linecap="round"></path><path d="M 327.500,109.000 C 330.521,108.752 330.448,108.579 333.500,109.000" stroke-width="3.993" stroke="black" fill="none" stroke-linecap="round"></path><path d="M 333.500,109.000 C 338.898,107.744 336.521,109.252 339.500,110.000" stroke-width="4.494" stroke="black" fill="none" stroke-linecap="round"></path><path d="M 339.500,110.000 C 340.595,118.048 340.898,115.244 337.500,124.000" stroke-width="4.116" stroke="black" fill="none" stroke-linecap="round"></path><path d="M 337.500,124.000 C 332.197,129.710 334.095,130.548 326.500,135.000" stroke-width="3.141" stroke="black" fill="none" stroke-linecap="round"></path><path d="M 326.500,135.000 C 318.645,143.396 318.197,142.710 309.500,150.000" stroke-width="2.591" stroke="black" fill="none" stroke-linecap="round"></path><path d="M 309.500,150.000 C 300.302,156.099 300.645,156.396 290.500,161.000" stroke-width="2.700" stroke="black" fill="none" stroke-linecap="round"></path><path d="M 290.500,161.000 C 279.269,166.743 279.302,166.599 267.500,171.000" stroke-width="2.386" stroke="black" fill="none" stroke-linecap="round"></path><path d="M 267.500,171.000 C 255.617,174.971 255.769,175.243 243.500,178.000" stroke-width="2.249" stroke="black" fill="none" stroke-linecap="round"></path><path d="M 243.500,178.000 C 231.581,180.987 231.617,180.971 219.500,183.000" stroke-width="2.287" stroke="black" fill="none" stroke-linecap="round"></path><path d="M 219.500,183.000 C 207.546,185.231 207.581,184.987 195.500,186.000" stroke-width="2.365" stroke="black" fill="none" stroke-linecap="round"></path><path d="M 195.500,186.000 C 184.000,186.000 184.046,186.731 172.500,186.000" stroke-width="2.325" stroke="black" fill="none" stroke-linecap="round"></path><path d="M 172.500,186.000 C 161.913,186.969 162.000,186.000 151.500,186.000" stroke-width="2.456" stroke="black" fill="none" stroke-linecap="round"></path><path d="M 151.500,186.000 C 140.282,184.824 140.413,184.969 129.500,182.000" stroke-width="2.437" stroke="black" fill="none" stroke-linecap="round"></path><path d="M 129.500,182.000 C 119.210,179.161 119.282,179.324 109.500,175.000" stroke-width="2.425" stroke="black" fill="none" stroke-linecap="round"></path><path d="M 109.500,175.000 C 101.683,171.489 101.710,171.661 94.500,167.000" stroke-width="2.735" stroke="black" fill="none" stroke-linecap="round"></path><path d="M 94.500,167.000 C 89.647,163.870 89.683,163.989 85.500,160.000" stroke-width="3.148" stroke="black" fill="none" stroke-linecap="round"></path><path d="M 85.500,160.000 C 81.718,156.943 82.147,156.870 79.500,153.000" stroke-width="3.431" stroke="black" fill="none" stroke-linecap="round"></path><path d="M 79.500,153.000 C 77.106,148.645 77.218,148.943 76.500,144.000" stroke-width="3.555" stroke="black" fill="none" stroke-linecap="round"></path><path d="M 76.500,144.000 C 74.306,136.383 75.606,137.145 76.500,130.000" stroke-width="3.272" stroke="black" fill="none" stroke-linecap="round"></path><path d="M 76.500,130.000 C 80.947,120.191 79.806,120.383 87.500,112.000" stroke-width="2.630" stroke="black" fill="none" stroke-linecap="round"></path><path d="M 87.500,112.000 C 96.787,99.517 96.947,100.191 108.500,90.000" stroke-width="2.169" stroke="black" fill="none" stroke-linecap="round"></path><path d="M 108.500,90.000 C 121.289,80.105 120.787,80.017 135.500,73.000" stroke-width="1.957" stroke="black" fill="none" stroke-linecap="round"></path><path d="M 135.500,73.000 C 152.837,65.561 152.289,64.605 170.500,59.000" stroke-width="1.806" stroke="black" fill="none" stroke-linecap="round"></path><path d="M 170.500,59.000 C 187.753,52.144 187.837,52.561 205.500,47.000" stroke-width="1.920" stroke="black" fill="none" stroke-linecap="round"></path><path d="M 205.500,47.000 C 222.349,42.166 222.253,42.144 239.500,39.000" stroke-width="1.810" stroke="black" fill="none" stroke-linecap="round"></path><path d="M 239.500,39.000 C 254.948,36.389 254.849,36.166 270.500,35.000" stroke-width="1.927" stroke="black" fill="none" stroke-linecap="round"></path><path d="M 270.500,35.000 C 283.002,34.000 282.948,33.889 295.500,34.000" stroke-width="2.440" stroke="black" fill="none" stroke-linecap="round"></path><path d="M 295.500,34.000 C 306.429,32.762 306.002,34.000 316.500,35.000" stroke-width="2.492" stroke="black" fill="none" stroke-linecap="round"></path><path d="M 316.500,35.000 C 325.896,36.396 324.429,36.762 331.500,42.000" stroke-width="2.677" stroke="black" fill="none" stroke-linecap="round"></path><path d="M 331.500,42.000 C 339.848,51.350 339.396,49.896 343.500,62.000" stroke-width="2.455" stroke="black" fill="none" stroke-linecap="round"></path><path d="M 343.500,62.000 C 346.071,70.357 345.848,68.850 343.500,77.000" stroke-width="2.806" stroke="black" fill="none" stroke-linecap="round"></path><path d="M 343.500,77.000 C 338.305,85.741 340.071,85.857 331.500,93.000" stroke-width="2.760" stroke="black" fill="none" stroke-linecap="round"></path><path d="M 331.500,93.000 C 323.358,102.209 323.305,101.741 313.500,109.000" stroke-width="2.442" stroke="black" fill="none" stroke-linecap="round"></path><path d="M 313.500,109.000 C 300.590,117.885 300.858,117.709 286.500,124.000" stroke-width="2.051" stroke="black" fill="none" stroke-linecap="round"></path><path d="M 286.500,124.000 C 273.714,128.972 274.090,129.385 260.500,132.000" stroke-width="2.128" stroke="black" fill="none" stroke-linecap="round"></path><path d="M 260.500,132.000 C 249.552,134.263 249.714,134.472 238.500,135.000" stroke-width="2.224" stroke="black" fill="none" stroke-linecap="round"></path><path d="M 238.500,135.000 C 227.000,135.000 227.052,135.763 215.500,135.000" stroke-width="2.282" stroke="black" fill="none" stroke-linecap="round"></path><path d="M 215.500,135.000 C 206.814,136.147 207.000,135.000 198.500,135.000" stroke-width="2.804" stroke="black" fill="none" stroke-linecap="round"></path><path d="M 198.500,135.000 C 192.289,133.481 192.314,134.147 186.500,131.000" stroke-width="3.032" stroke="black" fill="none" stroke-linecap="round"></path><path d="M 350.500,146.000 C 354.364,143.919 354.500,144.500 358.500,143.000" stroke-width="5.123" stroke="black" fill="none" stroke-linecap="round"></path><path d="M 358.500,143.000 C 363.551,142.825 363.364,141.919 368.500,142.000" stroke-width="3.898" stroke="black" fill="none" stroke-linecap="round"></path><path d="M 368.500,142.000 C 375.492,140.460 375.551,140.825 382.500,139.000" stroke-width="3.266" stroke="black" fill="none" stroke-linecap="round"></path><path d="M 382.500,139.000 C 387.511,138.050 387.492,137.960 392.500,137.000" stroke-width="3.437" stroke="black" fill="none" stroke-linecap="round"></path><path d="M 392.500,137.000 C 397.081,136.263 397.011,136.050 401.500,135.000" stroke-width="3.581" stroke="black" fill="none" stroke-linecap="round"></path><path d="M 401.500,135.000 C 405.862,131.937 404.081,134.263 406.500,133.000" stroke-width="3.998" stroke="black" fill="none" stroke-linecap="round"></path><path d="M 406.500,133.000 C 406.243,136.862 407.362,134.437 404.500,140.000" stroke-width="4.686" stroke="black" fill="none" stroke-linecap="round"></path><path d="M 404.500,140.000 C 400.534,145.525 401.243,145.862 396.500,151.000" stroke-width="3.472" stroke="black" fill="none" stroke-linecap="round"></path><path d="M 396.500,151.000 C 393.548,155.037 393.534,155.025 390.500,159.000" stroke-width="3.520" stroke="black" fill="none" stroke-linecap="round"></path><path d="M 390.500,159.000 C 385.787,163.050 388.548,161.537 386.500,164.000" stroke-width="4.263" stroke="black" fill="none" stroke-linecap="round"></path><path d="M 386.500,164.000 C 390.272,164.370 387.287,165.050 393.500,163.000" stroke-width="4.498" stroke="black" fill="none" stroke-linecap="round"></path><path d="M 393.500,163.000 C 406.577,156.646 406.772,157.370 419.500,150.000" stroke-width="3.429" stroke="black" fill="none" stroke-linecap="round"></path><path d="M 419.500,150.000 C 423.855,147.186 424.077,147.646 428.500,145.000" stroke-width="3.425" stroke="black" fill="none" stroke-linecap="round"></path><path d="M 428.500,145.000 C 432.535,143.586 432.355,143.186 436.500,142.000" stroke-width="3.591" stroke="black" fill="none" stroke-linecap="round"></path><path d="M 436.500,142.000 C 443.500,139.519 440.035,140.586 443.500,139.000" stroke-width="4.281" stroke="black" fill="none" stroke-linecap="round"></path><path d="M 443.500,139.000 C 439.867,138.990 443.500,138.519 436.500,140.000" stroke-width="4.447" stroke="black" fill="none" stroke-linecap="round"></path><path d="M 436.500,140.000 C 429.948,142.373 429.867,141.990 423.500,145.000" stroke-width="3.532" stroke="black" fill="none" stroke-linecap="round"></path><path d="M 423.500,145.000 C 416.681,148.524 416.448,147.873 409.500,151.000" stroke-width="3.116" stroke="black" fill="none" stroke-linecap="round"></path><path d="M 409.500,151.000 C 402.103,153.528 402.181,153.524 394.500,155.000" stroke-width="2.991" stroke="black" fill="none" stroke-linecap="round"></path><path d="M 394.500,155.000 C 386.523,156.248 386.603,156.528 378.500,157.000" stroke-width="2.917" stroke="black" fill="none" stroke-linecap="round"></path><path d="M 378.500,157.000 C 370.508,157.750 370.523,157.748 362.500,158.000" stroke-width="2.841" stroke="black" fill="none" stroke-linecap="round"></path><path d="M 362.500,158.000 C 354.500,158.000 354.508,158.250 346.500,158.000" stroke-width="3.034" stroke="black" fill="none" stroke-linecap="round"></path><path d="M 346.500,158.000 C 338.500,158.000 338.500,158.000 330.500,158.000" stroke-width="2.995" stroke="black" fill="none" stroke-linecap="round"></path><path d="M 330.500,158.000 C 323.456,157.465 323.500,158.000 316.500,158.000" stroke-width="2.934" stroke="black" fill="none" stroke-linecap="round"></path></svg>