<svg xmlns="http://www.w3.org/2000/svg" xmlns:xlink="http://www.w3.org/1999/xlink" viewBox="0 0 1460 576" width="1460" height="576"><path d="M 679.000,328.000 C 681.851,325.717 682.000,326.000 685.000,324.000" stroke-width="4.052" stroke="black" fill="none" stroke-linecap="round"></path><path d="M 685.000,324.000 C 687.545,321.386 687.351,322.717 690.000,322.000" stroke-width="4.112" stroke="black" fill="none" stroke-linecap="round"></path><path d="M 690.000,322.000 C 698.612,324.293 697.545,323.886 705.000,329.000" stroke-width="3.066" stroke="black" fill="none" stroke-linecap="round"></path><path d="M 705.000,329.000 C 708.545,332.053 708.112,331.293 709.000,336.000" stroke-width="3.555" stroke="black" fill="none" stroke-linecap="round"></path><path d="M 709.000,336.000 C 712.541,359.041 711.545,358.053 711.000,381.000" stroke-width="1.857" stroke="black" fill="none" stroke-linecap="round"></path><path d="M 711.000,381.000 C 708.476,387.312 710.541,387.541 705.000,393.000" stroke-width="2.957" stroke="black" fill="none" stroke-linecap="round"></path><path d="M 705.000,393.000 C 700.000,399.238 702.976,396.312 700.000,399.000" stroke-width="3.929" stroke="black" fill="none" stroke-linecap="round"></path><path d="M 700.000,399.000 C 701.850,394.915 700.000,398.738 705.000,392.000" stroke-width="3.736" stroke="black" fill="none" stroke-linecap="round"></path><path d="M 705.000,392.000 C 733.377,359.765 735.350,363.915 767.000,337.000" stroke-width="1.177" stroke="black" fill="none" stroke-linecap="round"></path><path d="M 767.000,337.000 C 783.767,331.013 781.377,327.265 801.000,327.000" stroke-width="1.566" stroke="black" fill="none" stroke-linecap="round"></path><path d="M 801.000,327.000 C 820.480,323.383 820.267,322.513 840.000,320.000" stroke-width="1.602" stroke="black" fill="none" stroke-linecap="round"></path><path d="M 840.000,320.000 C 857.989,316.932 857.980,316.883 876.000,314.000" stroke-width="1.727" stroke="black" fill="none" stroke-linecap="round"></path><path d="M 876.000,314.000 C 879.989,314.797 879.489,313.432 883.000,313.000" stroke-width="2.987" stroke="black" fill="none" stroke-linecap="round"></path><path d="M 883.000,313.000 C 907.844,288.773 910.989,296.297 938.000,277.000" stroke-width="2.897" stroke="black" fill="none" stroke-linecap="round"></path><path d="M 938.000,277.000 C 983.460,266.322 980.844,260.273 1029.000,256.000" stroke-width="1.125" stroke="black" fill="none" stroke-linecap="round"></path><path d="M 1029.000,256.000 C 1058.250,248.038 1058.460,249.322 1088.000,243.000" stroke-width="1.172" stroke="black" fill="none" stroke-linecap="round"></path><path d="M 1088.000,243.000 C 1120.490,237.350 1120.250,237.538 1153.000,235.000" stroke-width="1.163" stroke="black" fill="none" stroke-linecap="round"></path></svg>