<svg xmlns="http://www.w3.org/2000/svg" xmlns:xlink="http://www.w3.org/1999/xlink" viewBox="0 0 1460 576" width="1460" height="576"><path d="M 712.000,425.000 C 707.884,424.971 708.000,424.500 704.000,424.000" stroke-width="5.488" stroke="black" fill="none" stroke-linecap="round"></path><path d="M 704.000,424.000 C 699.467,423.372 699.884,422.971 696.000,421.000" stroke-width="4.072" stroke="black" fill="none" stroke-linecap="round"></path><path d="M 696.000,421.000 C 688.480,417.379 689.967,416.872 685.000,411.000" stroke-width="3.258" stroke="black" fill="none" stroke-linecap="round"></path><path d="M 685.000,411.000 C 672.356,394.609 676.480,395.379 672.000,377.000" stroke-width="2.070" stroke="black" fill="none" stroke-linecap="round"></path><path d="M 672.000,377.000 C 667.769,340.076 671.356,345.109 683.000,312.000" stroke-width="1.330" stroke="black" fill="none" stroke-linecap="round"></path><path d="M 683.000,312.000 C 713.366,261.042 709.269,263.576 755.000,224.000" stroke-width="1.284" stroke="black" fill="none" stroke-linecap="round"></path><path d="M 755.000,224.000 C 785.284,201.876 781.366,200.542 819.000,191.000" stroke-width="1.130" stroke="black" fill="none" stroke-linecap="round"></path><path d="M 819.000,191.000 C 849.448,184.000 847.284,181.876 879.000,184.000" stroke-width="1.163" stroke="black" fill="none" stroke-linecap="round"></path><path d="M 879.000,184.000 C 891.864,183.484 888.448,184.000 897.000,191.000" stroke-width="1.878" stroke="black" fill="none" stroke-linecap="round"></path><path d="M 897.000,191.000 C 917.530,218.944 912.364,213.484 920.000,244.000" stroke-width="2.042" stroke="black" fill="none" stroke-linecap="round"></path><path d="M 920.000,244.000 C 913.136,254.196 921.030,254.444 904.000,262.000" stroke-width="2.284" stroke="black" fill="none" stroke-linecap="round"></path><path d="M 904.000,262.000 C 867.294,300.344 865.136,295.196 824.000,326.000" stroke-width="1.125" stroke="black" fill="none" stroke-linecap="round"></path><path d="M 824.000,326.000 C 796.710,335.976 799.794,340.344 769.000,342.000" stroke-width="1.183" stroke="black" fill="none" stroke-linecap="round"></path><path d="M 769.000,342.000 C 761.211,343.484 762.210,343.476 755.000,341.000" stroke-width="2.052" stroke="black" fill="none" stroke-linecap="round"></path><path d="M 755.000,341.000 C 743.452,338.250 748.711,338.484 744.000,332.000" stroke-width="2.711" stroke="black" fill="none" stroke-linecap="round"></path><path d="M 744.000,332.000 C 747.006,304.502 745.952,309.750 760.000,284.000" stroke-width="2.247" stroke="black" fill="none" stroke-linecap="round"></path><path d="M 760.000,284.000 C 773.592,271.095 769.506,269.002 789.000,261.000" stroke-width="1.891" stroke="black" fill="none" stroke-linecap="round"></path><path d="M 789.000,261.000 C 803.405,253.298 802.592,252.095 818.000,246.000" stroke-width="1.862" stroke="black" fill="none" stroke-linecap="round"></path><path d="M 818.000,246.000 C 823.026,241.205 821.405,244.298 825.000,243.000" stroke-width="2.957" stroke="black" fill="none" stroke-linecap="round"></path><path d="M 825.000,243.000 C 830.100,249.524 828.526,246.205 829.000,256.000" stroke-width="3.587" stroke="black" fill="none" stroke-linecap="round"></path><path d="M 829.000,256.000 C 824.433,276.886 825.600,276.024 816.000,296.000" stroke-width="1.938" stroke="black" fill="none" stroke-linecap="round"></path><path d="M 816.000,296.000 C 807.652,310.095 809.433,310.886 799.000,324.000" stroke-width="1.927" stroke="black" fill="none" stroke-linecap="round"></path><path d="M 799.000,324.000 C 794.810,336.233 793.652,332.595 788.000,341.000" stroke-width="2.285" stroke="black" fill="none" stroke-linecap="round"></path></svg>