<svg xmlns="http://www.w3.org/2000/svg" xmlns:xlink="http://www.w3.org/1999/xlink" viewBox="0 0 751 330" width="751" height="330"><path d="M 215.500,155.000 C 212.679,152.908 212.500,153.500 209.500,152.000" stroke-width="5.298" stroke="black" fill="none" stroke-linecap="round"></path><path d="M 209.500,152.000 C 205.384,151.971 205.679,150.908 201.500,151.000" stroke-width="4.820" stroke="black" fill="none" stroke-linecap="round"></path><path d="M 201.500,151.000 C 197.465,149.586 197.384,149.971 193.500,148.000" stroke-width="4.069" stroke="black" fill="none" stroke-linecap="round"></path><path d="M 193.500,148.000 C 190.000,146.500 189.965,146.586 186.500,145.000" stroke-width="3.938" stroke="black" fill="none" stroke-linecap="round"></path><path d="M 186.500,145.000 C 183.015,143.464 183.000,143.500 179.500,142.000" stroke-width="3.901" stroke="black" fill="none" stroke-linecap="round"></path><path d="M 179.500,142.000 C 177.068,140.790 177.015,140.964 174.500,140.000" stroke-width="4.191" stroke="black" fill="none" stroke-linecap="round"></path><path d="M 174.500,140.000 C 170.528,138.863 170.568,138.790 166.500,138.000" stroke-width="3.844" stroke="black" fill="none" stroke-linecap="round"></path><path d="M 166.500,138.000 C 160.500,138.144 163.528,137.363 160.500,137.000" stroke-width="4.436" stroke="black" fill="none" stroke-linecap="round"></path><path d="M 160.500,137.000 C 163.339,134.702 160.500,135.644 166.500,133.000" stroke-width="4.994" stroke="black" fill="none" stroke-linecap="round"></path><path d="M 166.500,133.000 C 170.181,131.844 169.839,131.202 173.500,130.000" stroke-width="4.266" stroke="black" fill="none" stroke-linecap="round"></path><path d="M 173.500,130.000 C 178.948,126.416 179.181,126.844 184.500,123.000" stroke-width="3.446" stroke="black" fill="none" stroke-linecap="round"></path><path d="M 184.500,123.000 C 192.229,118.847 191.948,118.416 199.500,114.000" stroke-width="3.122" stroke="black" fill="none" stroke-linecap="round"></path><path d="M 199.500,114.000 C 208.757,107.836 208.729,107.847 217.500,101.000" stroke-width="2.673" stroke="black" fill="none" stroke-linecap="round"></path><path d="M 217.500,101.000 C 235.777,85.711 236.257,86.336 254.500,71.000" stroke-width="1.708" stroke="black" fill="none" stroke-linecap="round"></path><path d="M 254.500,71.000 C 264.027,64.037 263.777,63.711 273.500,57.000" stroke-width="2.159" stroke="black" fill="none" stroke-linecap="round"></path><path d="M 273.500,57.000 C 281.276,50.671 281.527,51.037 289.500,45.000" stroke-width="2.440" stroke="black" fill="none" stroke-linecap="round"></path><path d="M 289.500,45.000 C 295.802,40.628 295.776,40.671 302.500,37.000" stroke-width="2.731" stroke="black" fill="none" stroke-linecap="round"></path><path d="M 302.500,37.000 C 307.920,34.297 307.802,34.128 313.500,32.000" stroke-width="3.046" stroke="black" fill="none" stroke-linecap="round"></path><path d="M 313.500,32.000 C 318.420,29.190 316.420,30.797 319.500,30.000" stroke-width="3.714" stroke="black" fill="none" stroke-linecap="round"></path><path d="M 319.500,30.000 C 319.240,33.011 320.420,30.690 317.500,35.000" stroke-width="4.613" stroke="black" fill="none" stroke-linecap="round"></path><path d="M 317.500,35.000 C 311.636,40.655 312.240,41.011 305.500,46.000" stroke-width="3.240" stroke="black" fill="none" stroke-linecap="round"></path><path d="M 305.500,46.000 C 295.727,53.695 296.136,54.155 286.500,62.000" stroke-width="2.572" stroke="black" fill="none" stroke-linecap="round"></path><path d="M 286.500,62.000 C 275.872,71.869 275.727,71.695 265.500,82.000" stroke-width="2.206" stroke="black" fill="none" stroke-linecap="round"></path><path d="M 265.500,82.000 C 254.375,92.878 254.372,92.869 243.500,104.000" stroke-width="1.990" stroke="black" fill="none" stroke-linecap="round"></path><path d="M 243.500,104.000 C 232.500,115.500 232.375,115.378 221.500,127.000" stroke-width="2.019" stroke="black" fill="none" stroke-linecap="round"></path><path d="M 221.500,127.000 C 210.619,138.616 210.500,138.500 199.500,150.000" stroke-width="1.976" stroke="black" fill="none" stroke-linecap="round"></path><path d="M 199.500,150.000 C 189.625,160.128 189.619,160.116 179.500,170.000" stroke-width="2.069" stroke="black" fill="none" stroke-linecap="round"></path><path d="M 179.500,170.000 C 169.655,179.669 169.625,179.628 159.500,189.000" stroke-width="2.121" stroke="black" fill="none" stroke-linecap="round"></path><path d="M 159.500,189.000 C 151.413,197.037 151.155,196.669 142.500,204.000" stroke-width="2.457" stroke="black" fill="none" stroke-linecap="round"></path><path d="M 142.500,204.000 C 135.197,209.327 135.413,209.537 127.500,214.000" stroke-width="2.586" stroke="black" fill="none" stroke-linecap="round"></path><path d="M 127.500,214.000 C 121.049,217.594 121.197,217.827 114.500,221.000" stroke-width="2.869" stroke="black" fill="none" stroke-linecap="round"></path><path d="M 114.500,221.000 C 108.817,224.894 108.549,224.094 102.500,227.000" stroke-width="3.056" stroke="black" fill="none" stroke-linecap="round"></path><path d="M 102.500,227.000 C 93.509,229.042 93.817,229.894 84.500,231.000" stroke-width="2.797" stroke="black" fill="none" stroke-linecap="round"></path><path d="M 84.500,231.000 C 79.073,233.281 82.009,231.542 79.500,232.000" stroke-width="3.717" stroke="black" fill="none" stroke-linecap="round"></path><path d="M 79.500,232.000 C 82.543,225.777 80.573,228.781 87.500,222.000" stroke-width="4.550" stroke="black" fill="none" stroke-linecap="round"></path><path d="M 87.500,222.000 C 93.968,218.928 93.043,217.777 100.500,216.000" stroke-width="3.388" stroke="black" fill="none" stroke-linecap="round"></path><path d="M 100.500,216.000 C 108.427,212.324 108.468,212.428 116.500,209.000" stroke-width="2.996" stroke="black" fill="none" stroke-linecap="round"></path><path d="M 116.500,209.000 C 125.695,205.939 125.427,205.324 134.500,202.000" stroke-width="2.793" stroke="black" fill="none" stroke-linecap="round"></path><path d="M 134.500,202.000 C 144.313,196.584 144.695,197.439 154.500,192.000" stroke-width="2.528" stroke="black" fill="none" stroke-linecap="round"></path><path d="M 154.500,192.000 C 164.741,188.523 164.313,187.584 174.500,184.000" stroke-width="2.495" stroke="black" fill="none" stroke-linecap="round"></path><path d="M 174.500,184.000 C 185.064,178.619 185.241,179.023 195.500,173.000" stroke-width="2.448" stroke="black" fill="none" stroke-linecap="round"></path><path d="M 195.500,173.000 C 204.562,168.108 204.564,168.119 213.500,163.000" stroke-width="2.568" stroke="black" fill="none" stroke-linecap="round"></path><path d="M 213.500,163.000 C 222.021,158.035 222.062,158.108 230.500,153.000" stroke-width="2.593" stroke="black" fill="none" stroke-linecap="round"></path><path d="M 230.500,153.000 C 238.085,148.634 238.021,148.535 245.500,144.000" stroke-width="2.716" stroke="black" fill="none" stroke-linecap="round"></path><path d="M 245.500,144.000 C 250.000,141.000 250.085,141.134 254.500,138.000" stroke-width="3.134" stroke="black" fill="none" stroke-linecap="round"></path><path d="M 254.500,138.000 C 260.500,135.598 257.500,136.000 260.500,134.000" stroke-width="3.664" stroke="black" fill="none" stroke-linecap="round"></path><path d="M 260.500,134.000 C 257.599,132.387 260.500,132.598 254.500,132.000" stroke-width="4.509" stroke="black" fill="none" stroke-linecap="round"></path><path d="M 254.500,132.000 C 249.160,130.668 249.599,131.387 244.500,132.000" stroke-width="3.785" stroke="black" fill="none" stroke-linecap="round"></path><path d="M 244.500,132.000 C 238.819,134.708 238.660,133.668 233.500,138.000" stroke-width="3.385" stroke="black" fill="none" stroke-linecap="round"></path><path d="M 233.500,138.000 C 228.500,141.500 228.319,141.208 223.500,145.000" stroke-width="3.247" stroke="black" fill="none" stroke-linecap="round"></path><path d="M 223.500,145.000 C 218.412,148.381 218.500,148.500 213.500,152.000" stroke-width="3.207" stroke="black" fill="none" stroke-linecap="round"></path><path d="M 213.500,152.000 C 208.331,154.896 208.912,155.381 204.500,159.000" stroke-width="3.369" stroke="black" fill="none" stroke-linecap="round"></path><path d="M 204.500,159.000 C 201.972,162.983 201.331,162.396 199.500,167.000" stroke-width="3.486" stroke="black" fill="none" stroke-linecap="round"></path><path d="M 199.500,167.000 C 197.182,169.273 197.972,169.483 196.500,172.000" stroke-width="3.950" stroke="black" fill="none" stroke-linecap="round"></path><path d="M 196.500,172.000 C 194.895,176.860 195.682,175.273 196.500,179.000" stroke-width="4.424" stroke="black" fill="none" stroke-linecap="round"></path><path d="M 196.500,179.000 C 199.475,179.798 197.895,180.860 202.500,180.000" stroke-width="4.223" stroke="black" fill="none" stroke-linecap="round"></path><path d="M 202.500,180.000 C 207.009,180.214 206.975,180.298 211.500,180.000" stroke-width="3.767" stroke="black" fill="none" stroke-linecap="round"></path><path d="M 211.500,180.000 C 217.760,180.497 217.509,179.714 223.500,179.000" stroke-width="3.359" stroke="black" fill="none" stroke-linecap="round"></path><path d="M 223.500,179.000 C 229.209,176.886 229.260,177.497 234.500,174.000" stroke-width="3.309" stroke="black" fill="none" stroke-linecap="round"></path><path d="M 234.500,174.000 C 240.034,170.553 240.209,170.886 245.500,167.000" stroke-width="3.159" stroke="black" fill="none" stroke-linecap="round"></path><path d="M 245.500,167.000 C 250.103,164.141 250.034,164.053 254.500,161.000" stroke-width="3.349" stroke="black" fill="none" stroke-linecap="round"></path><path d="M 254.500,161.000 C 259.500,155.788 257.103,159.141 259.500,157.000" stroke-width="3.790" stroke="black" fill="none" stroke-linecap="round"></path><path d="M 259.500,157.000 C 257.072,162.534 259.500,159.288 254.500,168.000" stroke-width="4.574" stroke="black" fill="none" stroke-linecap="round"></path><path d="M 254.500,168.000 C 252.787,170.912 253.072,171.034 251.500,174.000" stroke-width="4.230" stroke="black" fill="none" stroke-linecap="round"></path><path d="M 251.500,174.000 C 248.529,177.816 250.287,176.912 249.500,180.000" stroke-width="4.562" stroke="black" fill="none" stroke-linecap="round"></path><path d="M 249.500,180.000 C 252.333,182.208 250.529,182.316 255.500,183.000" stroke-width="4.939" stroke="black" fill="none" stroke-linecap="round"></path><path d="M 255.500,183.000 C 258.824,184.070 258.333,183.708 261.500,183.000" stroke-width="4.313" stroke="black" fill="none" stroke-linecap="round"></path><path d="M 261.500,183.000 C 266.070,180.101 266.324,181.070 270.500,177.000" stroke-width="3.595" stroke="black" fill="none" stroke-linecap="round"></path><path d="M 270.500,177.000 C 276.171,173.218 276.070,173.101 281.500,169.000" stroke-width="3.253" stroke="black" fill="none" stroke-linecap="round"></path><path d="M 281.500,169.000 C 287.673,163.057 288.171,163.718 294.500,158.000" stroke-width="2.864" stroke="black" fill="none" stroke-linecap="round"></path><path d="M 294.500,158.000 C 301.769,153.874 301.173,153.057 308.500,149.000" stroke-width="2.849" stroke="black" fill="none" stroke-linecap="round"></path><path d="M 308.500,149.000 C 316.263,143.303 316.269,143.374 323.500,137.000" stroke-width="2.700" stroke="black" fill="none" stroke-linecap="round"></path><path d="M 323.500,137.000 C 331.508,129.508 331.763,129.803 339.500,122.000" stroke-width="2.462" stroke="black" fill="none" stroke-linecap="round"></path><path d="M 339.500,122.000 C 348.250,114.250 348.008,114.008 356.500,106.000" stroke-width="2.397" stroke="black" fill="none" stroke-linecap="round"></path><path d="M 356.500,106.000 C 365.794,96.761 365.750,96.750 374.500,87.000" stroke-width="2.207" stroke="black" fill="none" stroke-linecap="round"></path><path d="M 374.500,87.000 C 381.856,77.876 382.294,78.261 389.500,69.000" stroke-width="2.368" stroke="black" fill="none" stroke-linecap="round"></path><path d="M 389.500,69.000 C 397.615,60.099 397.356,59.876 405.500,51.000" stroke-width="2.281" stroke="black" fill="none" stroke-linecap="round"></path><path d="M 405.500,51.000 C 410.442,44.951 410.615,45.099 415.500,39.000" stroke-width="2.700" stroke="black" fill="none" stroke-linecap="round"></path><path d="M 415.500,39.000 C 422.777,32.386 418.942,34.951 422.500,31.000" stroke-width="3.142" stroke="black" fill="none" stroke-linecap="round"></path><path d="M 422.500,31.000 C 417.919,31.558 422.277,29.886 414.500,34.000" stroke-width="4.228" stroke="black" fill="none" stroke-linecap="round"></path><path d="M 414.500,34.000 C 407.967,39.964 407.419,39.058 401.500,46.000" stroke-width="3.003" stroke="black" fill="none" stroke-linecap="round"></path><path d="M 401.500,46.000 C 392.963,53.961 392.967,53.964 384.500,62.000" stroke-width="2.530" stroke="black" fill="none" stroke-linecap="round"></path><path d="M 384.500,62.000 C 373.011,73.012 372.963,72.961 361.500,84.000" stroke-width="2.160" stroke="black" fill="none" stroke-linecap="round"></path><path d="M 361.500,84.000 C 350.602,93.617 351.011,94.012 340.500,104.000" stroke-width="2.102" stroke="black" fill="none" stroke-linecap="round"></path><path d="M 340.500,104.000 C 332.832,112.358 332.602,112.117 325.500,121.000" stroke-width="2.359" stroke="black" fill="none" stroke-linecap="round"></path><path d="M 325.500,121.000 C 318.905,128.925 318.832,128.858 312.500,137.000" stroke-width="2.427" stroke="black" fill="none" stroke-linecap="round"></path><path d="M 312.500,137.000 C 307.176,143.279 307.405,143.425 302.500,150.000" stroke-width="2.767" stroke="black" fill="none" stroke-linecap="round"></path><path d="M 302.500,150.000 C 299.357,154.921 299.176,154.779 296.500,160.000" stroke-width="3.142" stroke="black" fill="none" stroke-linecap="round"></path><path d="M 296.500,160.000 C 292.429,163.857 294.857,162.921 293.500,166.000" stroke-width="3.675" stroke="black" fill="none" stroke-linecap="round"></path><path d="M 293.500,166.000 C 297.543,170.417 294.929,168.857 301.500,170.000" stroke-width="4.486" stroke="black" fill="none" stroke-linecap="round"></path><path d="M 301.500,170.000 C 307.154,167.254 307.043,169.417 312.500,164.000" stroke-width="3.533" stroke="black" fill="none" stroke-linecap="round"></path><path d="M 312.500,164.000 C 318.388,159.820 318.654,160.254 324.500,156.000" stroke-width="3.110" stroke="black" fill="none" stroke-linecap="round"></path><path d="M 324.500,156.000 C 331.020,153.175 330.388,152.320 336.500,149.000" stroke-width="3.100" stroke="black" fill="none" stroke-linecap="round"></path><path d="M 336.500,149.000 C 340.852,144.338 341.520,145.175 345.500,140.000" stroke-width="3.181" stroke="black" fill="none" stroke-linecap="round"></path><path d="M 345.500,140.000 C 351.500,134.161 348.352,137.338 351.500,135.000" stroke-width="3.578" stroke="black" fill="none" stroke-linecap="round"></path><path d="M 351.500,135.000 C 348.447,139.466 351.500,136.161 345.500,144.000" stroke-width="4.379" stroke="black" fill="none" stroke-linecap="round"></path><path d="M 345.500,144.000 C 341.730,149.347 341.947,149.466 338.500,155.000" stroke-width="3.467" stroke="black" fill="none" stroke-linecap="round"></path><path d="M 338.500,155.000 C 336.000,160.000 335.730,159.847 333.500,165.000" stroke-width="3.415" stroke="black" fill="none" stroke-linecap="round"></path><path d="M 333.500,165.000 C 329.526,169.296 332.000,168.000 330.500,171.000" stroke-width="3.826" stroke="black" fill="none" stroke-linecap="round"></path><path d="M 330.500,171.000 C 334.540,173.402 331.526,172.796 337.500,172.000" stroke-width="4.592" stroke="black" fill="none" stroke-linecap="round"></path><path d="M 337.500,172.000 C 343.288,166.721 344.040,168.902 349.500,162.000" stroke-width="3.358" stroke="black" fill="none" stroke-linecap="round"></path><path d="M 349.500,162.000 C 356.181,157.740 355.788,157.221 362.500,153.000" stroke-width="3.035" stroke="black" fill="none" stroke-linecap="round"></path><path d="M 362.500,153.000 C 367.924,148.402 368.181,148.740 373.500,144.000" stroke-width="2.995" stroke="black" fill="none" stroke-linecap="round"></path><path d="M 373.500,144.000 C 380.393,137.723 377.424,140.902 381.500,138.000" stroke-width="3.358" stroke="black" fill="none" stroke-linecap="round"></path><path d="M 381.500,138.000 C 379.906,141.792 382.393,138.223 377.500,145.000" stroke-width="4.316" stroke="black" fill="none" stroke-linecap="round"></path><path d="M 377.500,145.000 C 373.188,149.259 373.906,149.792 369.500,154.000" stroke-width="3.545" stroke="black" fill="none" stroke-linecap="round"></path><path d="M 369.500,154.000 C 366.641,158.603 366.188,158.259 363.500,163.000" stroke-width="3.469" stroke="black" fill="none" stroke-linecap="round"></path><path d="M 363.500,163.000 C 357.966,168.279 361.641,165.603 359.500,168.000" stroke-width="3.835" stroke="black" fill="none" stroke-linecap="round"></path><path d="M 359.500,168.000 C 367.286,165.008 363.466,167.279 374.500,161.000" stroke-width="4.276" stroke="black" fill="none" stroke-linecap="round"></path><path d="M 374.500,161.000 C 380.542,157.062 380.786,157.508 386.500,153.000" stroke-width="3.331" stroke="black" fill="none" stroke-linecap="round"></path><path d="M 386.500,153.000 C 391.621,149.659 391.542,149.562 396.500,146.000" stroke-width="3.232" stroke="black" fill="none" stroke-linecap="round"></path><path d="M 396.500,146.000 C 403.032,139.936 399.621,143.659 402.500,141.000" stroke-width="3.644" stroke="black" fill="none" stroke-linecap="round"></path><path d="M 402.500,141.000 C 397.672,146.263 401.532,142.936 393.500,152.000" stroke-width="4.289" stroke="black" fill="none" stroke-linecap="round"></path><path d="M 393.500,152.000 C 389.931,157.457 389.672,157.263 386.500,163.000" stroke-width="3.450" stroke="black" fill="none" stroke-linecap="round"></path><path d="M 386.500,163.000 C 383.222,167.858 383.431,167.957 380.500,173.000" stroke-width="3.310" stroke="black" fill="none" stroke-linecap="round"></path><path d="M 380.500,173.000 C 378.612,176.386 378.722,176.358 377.500,180.000" stroke-width="3.692" stroke="black" fill="none" stroke-linecap="round"></path><path d="M 377.500,180.000 C 375.014,184.302 376.612,182.886 376.500,186.000" stroke-width="3.953" stroke="black" fill="none" stroke-linecap="round"></path><path d="M 376.500,186.000 C 380.772,188.828 378.514,188.302 384.500,188.000" stroke-width="4.536" stroke="black" fill="none" stroke-linecap="round"></path><path d="M 384.500,188.000 C 389.851,185.487 389.772,186.828 394.500,182.000" stroke-width="3.624" stroke="black" fill="none" stroke-linecap="round"></path><path d="M 394.500,182.000 C 401.548,176.055 401.851,176.487 408.500,170.000" stroke-width="2.922" stroke="black" fill="none" stroke-linecap="round"></path><path d="M 408.500,170.000 C 417.135,162.648 417.048,162.555 425.500,155.000" stroke-width="2.544" stroke="black" fill="none" stroke-linecap="round"></path><path d="M 425.500,155.000 C 434.628,146.632 434.635,146.648 443.500,138.000" stroke-width="2.361" stroke="black" fill="none" stroke-linecap="round"></path><path d="M 443.500,138.000 C 453.395,128.864 453.128,128.632 462.500,119.000" stroke-width="2.171" stroke="black" fill="none" stroke-linecap="round"></path><path d="M 462.500,119.000 C 471.149,109.123 471.395,109.364 479.500,99.000" stroke-width="2.142" stroke="black" fill="none" stroke-linecap="round"></path><path d="M 479.500,99.000 C 487.405,88.923 487.649,89.123 495.500,79.000" stroke-width="2.157" stroke="black" fill="none" stroke-linecap="round"></path><path d="M 495.500,79.000 C 503.435,70.325 502.905,69.923 510.500,61.000" stroke-width="2.398" stroke="black" fill="none" stroke-linecap="round"></path><path d="M 510.500,61.000 C 515.432,53.453 515.935,53.825 520.500,46.000" stroke-width="2.566" stroke="black" fill="none" stroke-linecap="round"></path><path d="M 520.500,46.000 C 524.273,41.163 523.932,40.953 527.500,36.000" stroke-width="3.024" stroke="black" fill="none" stroke-linecap="round"></path><path d="M 527.500,36.000 C 531.250,32.250 529.273,33.163 530.500,30.000" stroke-width="3.625" stroke="black" fill="none" stroke-linecap="round"></path><path d="M 530.500,30.000 C 527.310,26.398 529.750,27.750 524.500,27.000" stroke-width="4.508" stroke="black" fill="none" stroke-linecap="round"></path><path d="M 524.500,27.000 C 520.240,29.700 520.310,27.898 516.500,33.000" stroke-width="3.844" stroke="black" fill="none" stroke-linecap="round"></path><path d="M 516.500,33.000 C 511.777,37.295 511.740,37.200 507.500,42.000" stroke-width="3.317" stroke="black" fill="none" stroke-linecap="round"></path><path d="M 507.500,42.000 C 501.676,48.249 501.777,48.295 496.500,55.000" stroke-width="3.063" stroke="black" fill="none" stroke-linecap="round"></path><path d="M 496.500,55.000 C 490.632,63.596 490.176,63.249 484.500,72.000" stroke-width="2.603" stroke="black" fill="none" stroke-linecap="round"></path><path d="M 484.500,72.000 C 476.597,81.721 477.132,82.096 469.500,92.000" stroke-width="2.366" stroke="black" fill="none" stroke-linecap="round"></path><path d="M 469.500,92.000 C 462.205,102.825 462.097,102.721 455.500,114.000" stroke-width="2.262" stroke="black" fill="none" stroke-linecap="round"></path><path d="M 455.500,114.000 C 450.547,123.027 450.205,122.825 445.500,132.000" stroke-width="2.452" stroke="black" fill="none" stroke-linecap="round"></path><path d="M 445.500,132.000 C 441.338,138.914 441.547,139.027 437.500,146.000" stroke-width="2.741" stroke="black" fill="none" stroke-linecap="round"></path><path d="M 437.500,146.000 C 434.698,150.870 434.838,150.914 432.500,156.000" stroke-width="3.167" stroke="black" fill="none" stroke-linecap="round"></path><path d="M 432.500,156.000 C 427.591,164.577 430.198,161.370 428.500,167.000" stroke-width="3.540" stroke="black" fill="none" stroke-linecap="round"></path><path d="M 428.500,167.000 C 432.217,165.901 429.091,168.577 435.500,164.000" stroke-width="4.376" stroke="black" fill="none" stroke-linecap="round"></path><path d="M 435.500,164.000 C 441.362,159.777 441.717,160.401 447.500,156.000" stroke-width="3.277" stroke="black" fill="none" stroke-linecap="round"></path><path d="M 447.500,156.000 C 454.453,151.915 454.362,151.777 461.500,148.000" stroke-width="2.929" stroke="black" fill="none" stroke-linecap="round"></path><path d="M 461.500,148.000 C 467.703,143.769 467.953,144.415 474.500,141.000" stroke-width="3.040" stroke="black" fill="none" stroke-linecap="round"></path><path d="M 474.500,141.000 C 481.392,138.422 481.203,138.269 488.500,137.000" stroke-width="2.973" stroke="black" fill="none" stroke-linecap="round"></path><path d="M 488.500,137.000 C 493.991,136.306 493.892,135.922 499.500,136.000" stroke-width="3.213" stroke="black" fill="none" stroke-linecap="round"></path><path d="M 499.500,136.000 C 504.377,134.089 502.991,135.806 506.500,136.000" stroke-width="3.717" stroke="black" fill="none" stroke-linecap="round"></path><path d="M 506.500,136.000 C 510.947,141.278 509.377,138.589 509.500,145.000" stroke-width="4.169" stroke="black" fill="none" stroke-linecap="round"></path><path d="M 509.500,145.000 C 505.089,150.332 507.447,150.278 499.500,154.000" stroke-width="3.322" stroke="black" fill="none" stroke-linecap="round"></path><path d="M 499.500,154.000 C 488.786,160.592 489.089,160.832 477.500,166.000" stroke-width="2.511" stroke="black" fill="none" stroke-linecap="round"></path><path d="M 477.500,166.000 C 464.716,172.072 464.786,172.092 451.500,177.000" stroke-width="2.158" stroke="black" fill="none" stroke-linecap="round"></path><path d="M 451.500,177.000 C 435.158,183.028 435.216,183.072 418.500,188.000" stroke-width="1.984" stroke="black" fill="none" stroke-linecap="round"></path><path d="M 418.500,188.000 C 401.676,193.319 401.658,193.028 384.500,197.000" stroke-width="1.821" stroke="black" fill="none" stroke-linecap="round"></path><path d="M 384.500,197.000 C 366.568,200.491 366.676,200.819 348.500,203.000" stroke-width="1.797" stroke="black" fill="none" stroke-linecap="round"></path><path d="M 348.500,203.000 C 330.539,205.454 330.568,205.491 312.500,207.000" stroke-width="1.797" stroke="black" fill="none" stroke-linecap="round"></path><path d="M 312.500,207.000 C 295.514,208.468 295.539,208.454 278.500,209.000" stroke-width="1.798" stroke="black" fill="none" stroke-linecap="round"></path><path d="M 278.500,209.000 C 263.500,209.000 263.514,209.468 248.500,209.000" stroke-width="2.005" stroke="black" fill="none" stroke-linecap="round"></path><path d="M 248.500,209.000 C 235.437,209.844 235.500,209.000 222.500,209.000" stroke-width="2.100" stroke="black" fill="none" stroke-linecap="round"></path><path d="M 222.500,209.000 C 212.090,208.851 212.437,208.344 202.500,206.000" stroke-width="2.355" stroke="black" fill="none" stroke-linecap="round"></path><path d="M 202.500,206.000 C 193.621,202.641 193.590,203.351 185.500,198.000" stroke-width="2.568" stroke="black" fill="none" stroke-linecap="round"></path><path d="M 185.500,198.000 C 179.243,194.743 179.621,194.641 174.500,190.000" stroke-width="2.881" stroke="black" fill="none" stroke-linecap="round"></path><path d="M 174.500,190.000 C 169.600,185.512 170.243,185.743 167.500,180.000" stroke-width="3.146" stroke="black" fill="none" stroke-linecap="round"></path><path d="M 167.500,180.000 C 166.047,174.435 165.600,175.012 166.500,169.000" stroke-width="3.271" stroke="black" fill="none" stroke-linecap="round"></path><path d="M 166.500,169.000 C 165.863,161.273 167.047,162.435 169.500,156.000" stroke-width="3.186" stroke="black" fill="none" stroke-linecap="round"></path><path d="M 169.500,156.000 C 177.116,146.825 175.863,146.773 186.500,140.000" stroke-width="2.567" stroke="black" fill="none" stroke-linecap="round"></path><path d="M 186.500,140.000 C 199.494,131.003 199.116,130.825 213.500,124.000" stroke-width="2.182" stroke="black" fill="none" stroke-linecap="round"></path><path d="M 213.500,124.000 C 230.624,115.480 230.494,115.503 248.500,109.000" stroke-width="1.850" stroke="black" fill="none" stroke-linecap="round"></path><path d="M 248.500,109.000 C 270.775,101.175 270.624,100.980 293.500,95.000" stroke-width="1.583" stroke="black" fill="none" stroke-linecap="round"></path><path d="M 293.500,95.000 C 316.822,88.591 316.775,88.675 340.500,84.000" stroke-width="1.451" stroke="black" fill="none" stroke-linecap="round"></path><path d="M 340.500,84.000 C 365.867,78.764 365.822,79.091 391.500,76.000" stroke-width="1.365" stroke="black" fill="none" stroke-linecap="round"></path><path d="M 391.500,76.000 C 416.982,74.052 416.867,73.264 442.500,73.000" stroke-width="1.348" stroke="black" fill="none" stroke-linecap="round"></path><path d="M 442.500,73.000 C 465.501,72.000 465.482,72.052 488.500,72.000" stroke-width="1.463" stroke="black" fill="none" stroke-linecap="round"></path><path d="M 488.500,72.000 C 508.172,71.010 508.001,72.000 527.500,73.000" stroke-width="1.626" stroke="black" fill="none" stroke-linecap="round"></path><path d="M 527.500,73.000 C 542.587,74.362 542.172,74.510 556.500,79.000" stroke-width="1.854" stroke="black" fill="none" stroke-linecap="round"></path><path d="M 556.500,79.000 C 567.400,82.520 566.587,82.362 575.500,89.000" stroke-width="2.255" stroke="black" fill="none" stroke-linecap="round"></path><path d="M 575.500,89.000 C 581.055,93.663 579.900,92.520 581.500,99.000" stroke-width="2.872" stroke="black" fill="none" stroke-linecap="round"></path><path d="M 581.500,99.000 C 582.158,107.984 582.055,105.663 577.500,113.000" stroke-width="2.981" stroke="black" fill="none" stroke-linecap="round"></path><path d="M 577.500,113.000 C 567.041,121.016 569.158,121.984 555.500,127.000" stroke-width="2.404" stroke="black" fill="none" stroke-linecap="round"></path><path d="M 555.500,127.000 C 539.889,135.062 540.041,135.016 523.500,141.000" stroke-width="1.920" stroke="black" fill="none" stroke-linecap="round"></path><path d="M 523.500,141.000 C 505.317,147.951 505.389,147.562 486.500,152.000" stroke-width="1.775" stroke="black" fill="none" stroke-linecap="round"></path><path d="M 486.500,152.000 C 465.607,156.302 465.817,156.451 444.500,158.000" stroke-width="1.656" stroke="black" fill="none" stroke-linecap="round"></path><path d="M 444.500,158.000 C 422.003,158.729 422.107,159.802 399.500,159.000" stroke-width="1.574" stroke="black" fill="none" stroke-linecap="round"></path><path d="M 399.500,159.000 C 380.362,160.572 380.503,159.229 361.500,159.000" stroke-width="1.638" stroke="black" fill="none" stroke-linecap="round"></path><path d="M 361.500,159.000 C 344.409,156.439 344.362,157.572 327.500,153.000" stroke-width="1.785" stroke="black" fill="none" stroke-linecap="round"></path><path d="M 327.500,153.000 C 314.642,151.047 314.909,150.439 302.500,147.000" stroke-width="2.080" stroke="black" fill="none" stroke-linecap="round"></path><path d="M 302.500,147.000 C 292.165,143.117 292.142,143.547 282.500,138.000" stroke-width="2.330" stroke="black" fill="none" stroke-linecap="round"></path><path d="M 282.500,138.000 C 274.859,134.253 275.165,134.117 268.500,129.000" stroke-width="2.613" stroke="black" fill="none" stroke-linecap="round"></path><path d="M 268.500,129.000 C 263.060,124.594 263.359,124.753 259.500,119.000" stroke-width="2.908" stroke="black" fill="none" stroke-linecap="round"></path><path d="M 259.500,119.000 C 256.642,113.119 256.060,113.594 254.500,107.000" stroke-width="3.042" stroke="black" fill="none" stroke-linecap="round"></path><path d="M 514.500,154.000 C 518.478,154.856 518.500,154.500 522.500,155.000" stroke-width="5.022" stroke="black" fill="none" stroke-linecap="round"></path><path d="M 522.500,155.000 C 532.500,155.000 532.478,155.356 542.500,155.000" stroke-width="3.101" stroke="black" fill="none" stroke-linecap="round"></path><path d="M 542.500,155.000 C 555.000,155.000 555.000,155.000 567.500,155.000" stroke-width="2.474" stroke="black" fill="none" stroke-linecap="round"></path><path d="M 567.500,155.000 C 583.020,155.534 583.000,155.000 598.500,155.000" stroke-width="2.054" stroke="black" fill="none" stroke-linecap="round"></path><path d="M 598.500,155.000 C 612.135,154.944 612.020,154.534 625.500,153.000" stroke-width="2.134" stroke="black" fill="none" stroke-linecap="round"></path><path d="M 625.500,153.000 C 639.481,149.910 639.635,150.944 653.500,147.000" stroke-width="2.107" stroke="black" fill="none" stroke-linecap="round"></path><path d="M 653.500,147.000 C 665.956,144.258 665.981,144.410 678.500,142.000" stroke-width="2.205" stroke="black" fill="none" stroke-linecap="round"></path><path d="M 678.500,142.000 C 690.939,139.427 690.956,139.758 703.500,138.000" stroke-width="2.186" stroke="black" fill="none" stroke-linecap="round"></path><path d="M 703.500,138.000 C 713.008,137.612 712.939,136.927 722.500,137.000" stroke-width="2.441" stroke="black" fill="none" stroke-linecap="round"></path><path d="M 722.500,137.000 C 728.599,136.983 728.508,136.612 734.500,136.000" stroke-width="2.933" stroke="black" fill="none" stroke-linecap="round"></path></svg>