<svg xmlns="http://www.w3.org/2000/svg" xmlns:xlink="http://www.w3.org/1999/xlink" viewBox="0 0 751 330" width="751" height="330"><path d="M 41.500,224.000 C 45.285,219.873 44.500,219.500 47.500,215.000" stroke-width="4.460" stroke="black" fill="none" stroke-linecap="round"></path><path d="M 47.500,215.000 C 49.141,208.368 50.285,208.873 51.500,202.000" stroke-width="4.189" stroke="black" fill="none" stroke-linecap="round"></path><path d="M 51.500,202.000 C 54.526,195.011 54.141,194.868 57.500,188.000" stroke-width="3.318" stroke="black" fill="none" stroke-linecap="round"></path><path d="M 57.500,188.000 C 61.468,178.487 61.526,178.511 65.500,169.000" stroke-width="2.734" stroke="black" fill="none" stroke-linecap="round"></path><path d="M 65.500,169.000 C 70.027,158.512 69.968,158.487 74.500,148.000" stroke-width="2.550" stroke="black" fill="none" stroke-linecap="round"></path><path d="M 74.500,148.000 C 79.633,134.835 80.027,135.012 85.500,122.000" stroke-width="2.228" stroke="black" fill="none" stroke-linecap="round"></path><path d="M 85.500,122.000 C 95.605,99.791 95.633,99.835 106.500,78.000" stroke-width="1.567" stroke="black" fill="none" stroke-linecap="round"></path><path d="M 106.500,78.000 C 109.292,71.410 109.605,71.791 113.500,66.000" stroke-width="2.359" stroke="black" fill="none" stroke-linecap="round"></path><path d="M 113.500,66.000 C 117.091,60.620 116.292,62.410 120.500,60.000" stroke-width="3.134" stroke="black" fill="none" stroke-linecap="round"></path><path d="M 120.500,60.000 C 123.894,61.423 122.591,59.620 124.500,64.000" stroke-width="4.269" stroke="black" fill="none" stroke-linecap="round"></path><path d="M 124.500,64.000 C 125.166,70.562 125.894,69.923 124.500,77.000" stroke-width="3.380" stroke="black" fill="none" stroke-linecap="round"></path><path d="M 124.500,77.000 C 123.220,85.047 123.666,85.062 121.500,93.000" stroke-width="3.070" stroke="black" fill="none" stroke-linecap="round"></path><path d="M 121.500,93.000 C 118.571,103.415 119.220,103.547 116.500,114.000" stroke-width="2.564" stroke="black" fill="none" stroke-linecap="round"></path><path d="M 116.500,114.000 C 114.221,126.462 114.071,126.415 112.500,139.000" stroke-width="2.401" stroke="black" fill="none" stroke-linecap="round"></path><path d="M 112.500,139.000 C 110.586,151.967 110.721,151.962 109.500,165.000" stroke-width="2.268" stroke="black" fill="none" stroke-linecap="round"></path><path d="M 109.500,165.000 C 108.756,175.994 108.586,175.967 108.500,187.000" stroke-width="2.393" stroke="black" fill="none" stroke-linecap="round"></path><path d="M 108.500,187.000 C 108.500,197.500 108.256,197.494 108.500,208.000" stroke-width="2.478" stroke="black" fill="none" stroke-linecap="round"></path><path d="M 108.500,208.000 C 108.500,218.000 108.500,218.000 108.500,228.000" stroke-width="2.493" stroke="black" fill="none" stroke-linecap="round"></path><path d="M 108.500,228.000 C 107.870,237.557 108.500,237.500 108.500,247.000" stroke-width="2.605" stroke="black" fill="none" stroke-linecap="round"></path><path d="M 108.500,247.000 C 109.808,258.462 108.870,252.557 110.500,258.000" stroke-width="3.111" stroke="black" fill="none" stroke-linecap="round"></path><path d="M 110.500,258.000 C 111.275,251.511 111.308,257.462 111.500,245.000" stroke-width="3.957" stroke="black" fill="none" stroke-linecap="round"></path><path d="M 111.500,245.000 C 111.500,237.000 111.775,237.011 111.500,229.000" stroke-width="3.151" stroke="black" fill="none" stroke-linecap="round"></path><path d="M 111.500,229.000 C 111.500,220.500 111.500,220.500 111.500,212.000" stroke-width="2.842" stroke="black" fill="none" stroke-linecap="round"></path><path d="M 111.500,212.000 C 111.500,202.500 111.500,202.500 111.500,193.000" stroke-width="2.709" stroke="black" fill="none" stroke-linecap="round"></path><path d="M 111.500,193.000 C 112.753,185.767 111.500,186.000 111.500,179.000" stroke-width="2.906" stroke="black" fill="none" stroke-linecap="round"></path><path d="M 111.500,179.000 C 110.279,171.669 110.253,172.267 106.500,166.000" stroke-width="3.034" stroke="black" fill="none" stroke-linecap="round"></path><path d="M 106.500,166.000 C 101.619,159.707 102.279,159.669 95.500,155.000" stroke-width="2.966" stroke="black" fill="none" stroke-linecap="round"></path><path d="M 95.500,155.000 C 88.199,150.124 88.619,149.707 80.500,146.000" stroke-width="2.828" stroke="black" fill="none" stroke-linecap="round"></path><path d="M 80.500,146.000 C 74.317,141.767 74.199,142.624 67.500,140.000" stroke-width="2.925" stroke="black" fill="none" stroke-linecap="round"></path><path d="M 67.500,140.000 C 60.372,138.264 60.817,138.267 53.500,139.000" stroke-width="3.033" stroke="black" fill="none" stroke-linecap="round"></path><path d="M 53.500,139.000 C 45.503,139.306 46.372,139.764 39.500,143.000" stroke-width="2.971" stroke="black" fill="none" stroke-linecap="round"></path><path d="M 39.500,143.000 C 32.628,148.334 32.503,147.306 27.500,155.000" stroke-width="2.860" stroke="black" fill="none" stroke-linecap="round"></path><path d="M 27.500,155.000 C 22.254,161.565 22.628,161.334 19.500,169.000" stroke-width="2.819" stroke="black" fill="none" stroke-linecap="round"></path><path d="M 19.500,169.000 C 18.023,175.464 17.254,175.065 17.500,182.000" stroke-width="3.057" stroke="black" fill="none" stroke-linecap="round"></path><path d="M 17.500,182.000 C 15.565,188.679 17.023,187.964 17.500,194.000" stroke-width="3.221" stroke="black" fill="none" stroke-linecap="round"></path><path d="M 17.500,194.000 C 20.543,200.223 19.565,199.679 25.500,204.000" stroke-width="3.212" stroke="black" fill="none" stroke-linecap="round"></path><path d="M 25.500,204.000 C 31.699,207.960 31.043,208.223 38.500,210.000" stroke-width="3.038" stroke="black" fill="none" stroke-linecap="round"></path><path d="M 38.500,210.000 C 46.941,212.172 46.699,212.460 55.500,213.000" stroke-width="2.919" stroke="black" fill="none" stroke-linecap="round"></path><path d="M 55.500,213.000 C 62.915,214.756 62.441,213.672 69.500,213.000" stroke-width="2.975" stroke="black" fill="none" stroke-linecap="round"></path><path d="M 69.500,213.000 C 77.982,209.761 77.915,210.756 85.500,205.000" stroke-width="2.807" stroke="black" fill="none" stroke-linecap="round"></path><path d="M 85.500,205.000 C 92.794,199.831 92.982,200.261 99.500,194.000" stroke-width="2.765" stroke="black" fill="none" stroke-linecap="round"></path><path d="M 99.500,194.000 C 104.300,189.760 104.294,189.831 108.500,185.000" stroke-width="3.013" stroke="black" fill="none" stroke-linecap="round"></path><path d="M 108.500,185.000 C 111.807,181.190 111.800,181.260 114.500,177.000" stroke-width="3.313" stroke="black" fill="none" stroke-linecap="round"></path><path d="M 114.500,177.000 C 116.257,170.379 116.307,174.190 117.500,171.000" stroke-width="3.787" stroke="black" fill="none" stroke-linecap="round"></path><path d="M 117.500,171.000 C 119.730,175.381 119.257,171.879 120.500,180.000" stroke-width="4.513" stroke="black" fill="none" stroke-linecap="round"></path><path d="M 120.500,180.000 C 119.545,184.703 121.230,184.381 120.500,189.000" stroke-width="3.950" stroke="black" fill="none" stroke-linecap="round"></path><path d="M 120.500,189.000 C 121.881,193.925 121.545,193.703 124.500,198.000" stroke-width="3.670" stroke="black" fill="none" stroke-linecap="round"></path><path d="M 124.500,198.000 C 126.463,201.598 126.381,200.925 129.500,203.000" stroke-width="3.829" stroke="black" fill="none" stroke-linecap="round"></path><path d="M 129.500,203.000 C 133.486,203.732 132.963,204.598 137.500,204.000" stroke-width="3.819" stroke="black" fill="none" stroke-linecap="round"></path><path d="M 137.500,204.000 C 141.262,205.012 140.986,204.232 144.500,204.000" stroke-width="3.884" stroke="black" fill="none" stroke-linecap="round"></path><path d="M 144.500,204.000 C 149.498,202.160 149.262,202.512 153.500,199.000" stroke-width="3.610" stroke="black" fill="none" stroke-linecap="round"></path><path d="M 153.500,199.000 C 158.639,194.131 158.998,194.660 163.500,189.000" stroke-width="3.149" stroke="black" fill="none" stroke-linecap="round"></path><path d="M 163.500,189.000 C 167.130,184.097 167.639,184.631 171.500,180.000" stroke-width="3.248" stroke="black" fill="none" stroke-linecap="round"></path><path d="M 171.500,180.000 C 175.160,176.315 175.130,176.597 179.500,174.000" stroke-width="3.448" stroke="black" fill="none" stroke-linecap="round"></path><path d="M 179.500,174.000 C 183.100,171.575 182.660,172.315 186.500,172.000" stroke-width="3.730" stroke="black" fill="none" stroke-linecap="round"></path><path d="M 186.500,172.000 C 192.506,172.734 191.100,172.575 195.500,176.000" stroke-width="4.169" stroke="black" fill="none" stroke-linecap="round"></path><path d="M 195.500,176.000 C 196.785,179.949 198.006,178.734 197.500,184.000" stroke-width="3.894" stroke="black" fill="none" stroke-linecap="round"></path><path d="M 197.500,184.000 C 197.757,188.540 198.285,188.449 198.500,193.000" stroke-width="3.678" stroke="black" fill="none" stroke-linecap="round"></path><path d="M 198.500,193.000 C 198.817,197.792 199.257,197.540 200.500,202.000" stroke-width="3.656" stroke="black" fill="none" stroke-linecap="round"></path><path d="M 200.500,202.000 C 202.012,207.171 201.817,205.292 204.500,208.000" stroke-width="4.279" stroke="black" fill="none" stroke-linecap="round"></path><path d="M 204.500,208.000 C 207.640,207.093 206.512,208.671 209.500,205.000" stroke-width="4.603" stroke="black" fill="none" stroke-linecap="round"></path><path d="M 209.500,205.000 C 210.910,201.952 211.640,202.593 212.500,199.000" stroke-width="4.237" stroke="black" fill="none" stroke-linecap="round"></path><path d="M 212.500,199.000 C 213.672,194.571 214.410,195.452 216.500,192.000" stroke-width="3.877" stroke="black" fill="none" stroke-linecap="round"></path><path d="M 216.500,192.000 C 220.703,187.695 219.172,189.571 223.500,189.000" stroke-width="4.321" stroke="black" fill="none" stroke-linecap="round"></path><path d="M 223.500,189.000 C 227.402,194.082 228.203,191.195 231.500,199.000" stroke-width="4.129" stroke="black" fill="none" stroke-linecap="round"></path><path d="M 231.500,199.000 C 234.627,203.425 234.902,203.082 238.500,207.000" stroke-width="3.574" stroke="black" fill="none" stroke-linecap="round"></path><path d="M 238.500,207.000 C 241.202,209.985 241.127,209.425 244.500,211.000" stroke-width="3.781" stroke="black" fill="none" stroke-linecap="round"></path><path d="M 244.500,211.000 C 248.085,211.525 247.702,211.985 251.500,211.000" stroke-width="3.921" stroke="black" fill="none" stroke-linecap="round"></path><path d="M 251.500,211.000 C 255.293,211.007 254.585,210.525 257.500,209.000" stroke-width="4.044" stroke="black" fill="none" stroke-linecap="round"></path><path d="M 257.500,209.000 C 259.938,204.960 260.793,206.007 262.500,201.000" stroke-width="3.736" stroke="black" fill="none" stroke-linecap="round"></path><path d="M 262.500,201.000 C 265.359,196.397 265.438,196.460 268.500,192.000" stroke-width="3.462" stroke="black" fill="none" stroke-linecap="round"></path><path d="M 268.500,192.000 C 269.995,188.670 270.359,189.397 272.500,187.000" stroke-width="3.876" stroke="black" fill="none" stroke-linecap="round"></path><path d="M 272.500,187.000 C 275.634,185.067 274.495,185.670 277.500,186.000" stroke-width="4.732" stroke="black" fill="none" stroke-linecap="round"></path><path d="M 277.500,186.000 C 278.723,188.716 279.634,187.067 280.500,191.000" stroke-width="4.338" stroke="black" fill="none" stroke-linecap="round"></path><path d="M 280.500,191.000 C 282.139,193.584 282.223,193.216 284.500,195.000" stroke-width="4.209" stroke="black" fill="none" stroke-linecap="round"></path><path d="M 284.500,195.000 C 287.415,196.525 287.139,196.584 290.500,197.000" stroke-width="4.132" stroke="black" fill="none" stroke-linecap="round"></path><path d="M 290.500,197.000 C 294.000,197.000 293.915,197.525 297.500,197.000" stroke-width="3.976" stroke="black" fill="none" stroke-linecap="round"></path><path d="M 297.500,197.000 C 301.944,198.333 301.500,197.000 305.500,197.000" stroke-width="3.869" stroke="black" fill="none" stroke-linecap="round"></path><path d="M 305.500,197.000 C 309.850,194.369 309.944,195.333 313.500,191.000" stroke-width="3.575" stroke="black" fill="none" stroke-linecap="round"></path><path d="M 313.500,191.000 C 316.475,188.291 316.350,188.369 318.500,185.000" stroke-width="3.766" stroke="black" fill="none" stroke-linecap="round"></path><path d="M 318.500,185.000 C 322.270,178.770 320.475,181.791 321.500,178.000" stroke-width="4.295" stroke="black" fill="none" stroke-linecap="round"></path><path d="M 321.500,178.000 C 317.366,179.201 320.770,177.270 315.500,182.000" stroke-width="4.852" stroke="black" fill="none" stroke-linecap="round"></path><path d="M 315.500,182.000 C 314.041,185.943 313.366,185.201 313.500,190.000" stroke-width="4.055" stroke="black" fill="none" stroke-linecap="round"></path><path d="M 313.500,190.000 C 311.968,194.447 313.041,193.443 313.500,197.000" stroke-width="4.005" stroke="black" fill="none" stroke-linecap="round"></path><path d="M 313.500,197.000 C 317.090,200.723 314.968,199.447 319.500,200.000" stroke-width="4.636" stroke="black" fill="none" stroke-linecap="round"></path><path d="M 319.500,200.000 C 321.565,197.041 322.090,199.223 323.500,194.000" stroke-width="4.133" stroke="black" fill="none" stroke-linecap="round"></path><path d="M 323.500,194.000 C 325.596,188.548 325.065,191.541 326.500,189.000" stroke-width="4.172" stroke="black" fill="none" stroke-linecap="round"></path><path d="M 326.500,189.000 C 325.423,193.923 327.596,189.548 327.500,196.000" stroke-width="4.886" stroke="black" fill="none" stroke-linecap="round"></path><path d="M 327.500,196.000 C 332.050,198.986 329.923,198.423 335.500,198.000" stroke-width="4.846" stroke="black" fill="none" stroke-linecap="round"></path><path d="M 335.500,198.000 C 338.973,195.369 339.050,196.986 341.500,192.000" stroke-width="3.963" stroke="black" fill="none" stroke-linecap="round"></path><path d="M 341.500,192.000 C 344.725,187.123 344.973,187.369 347.500,182.000" stroke-width="3.502" stroke="black" fill="none" stroke-linecap="round"></path><path d="M 347.500,182.000 C 350.905,174.951 351.225,175.123 354.500,168.000" stroke-width="3.080" stroke="black" fill="none" stroke-linecap="round"></path><path d="M 354.500,168.000 C 358.927,160.695 358.405,160.451 362.500,153.000" stroke-width="2.824" stroke="black" fill="none" stroke-linecap="round"></path><path d="M 362.500,153.000 C 365.700,146.686 365.427,146.695 367.500,140.000" stroke-width="3.006" stroke="black" fill="none" stroke-linecap="round"></path><path d="M 367.500,140.000 C 368.906,133.531 369.200,133.686 369.500,127.000" stroke-width="3.120" stroke="black" fill="none" stroke-linecap="round"></path><path d="M 369.500,127.000 C 370.087,122.405 369.906,122.531 369.500,118.000" stroke-width="3.491" stroke="black" fill="none" stroke-linecap="round"></path><path d="M 369.500,118.000 C 369.500,114.000 369.087,114.905 367.500,112.000" stroke-width="3.852" stroke="black" fill="none" stroke-linecap="round"></path><path d="M 367.500,112.000 C 364.591,110.442 365.500,110.000 361.500,110.000" stroke-width="3.976" stroke="black" fill="none" stroke-linecap="round"></path><path d="M 361.500,110.000 C 356.984,108.606 357.591,109.442 353.500,110.000" stroke-width="3.869" stroke="black" fill="none" stroke-linecap="round"></path><path d="M 353.500,110.000 C 349.147,112.334 349.484,111.606 346.500,116.000" stroke-width="3.711" stroke="black" fill="none" stroke-linecap="round"></path><path d="M 346.500,116.000 C 342.756,121.733 342.647,121.334 340.500,128.000" stroke-width="3.230" stroke="black" fill="none" stroke-linecap="round"></path><path d="M 340.500,128.000 C 338.440,134.417 338.256,134.233 337.500,141.000" stroke-width="3.230" stroke="black" fill="none" stroke-linecap="round"></path><path d="M 337.500,141.000 C 336.759,148.492 336.440,148.417 336.500,156.000" stroke-width="2.992" stroke="black" fill="none" stroke-linecap="round"></path><path d="M 336.500,156.000 C 335.921,163.057 336.259,162.992 336.500,170.000" stroke-width="3.056" stroke="black" fill="none" stroke-linecap="round"></path><path d="M 336.500,170.000 C 336.433,175.571 336.921,175.057 338.500,180.000" stroke-width="3.312" stroke="black" fill="none" stroke-linecap="round"></path><path d="M 338.500,180.000 C 340.485,183.744 339.933,183.071 343.500,185.000" stroke-width="3.789" stroke="black" fill="none" stroke-linecap="round"></path><path d="M 343.500,185.000 C 347.176,185.831 346.485,186.244 350.500,185.000" stroke-width="3.924" stroke="black" fill="none" stroke-linecap="round"></path><path d="M 350.500,185.000 C 355.805,184.043 355.176,183.831 359.500,181.000" stroke-width="3.663" stroke="black" fill="none" stroke-linecap="round"></path><path d="M 359.500,181.000 C 363.402,175.918 364.305,177.043 367.500,171.000" stroke-width="3.332" stroke="black" fill="none" stroke-linecap="round"></path><path d="M 367.500,171.000 C 371.068,167.057 370.902,166.918 374.500,163.000" stroke-width="3.421" stroke="black" fill="none" stroke-linecap="round"></path><path d="M 374.500,163.000 C 375.995,159.670 376.568,160.557 378.500,158.000" stroke-width="3.818" stroke="black" fill="none" stroke-linecap="round"></path><path d="M 378.500,158.000 C 380.973,157.230 380.495,156.670 383.500,157.000" stroke-width="4.745" stroke="black" fill="none" stroke-linecap="round"></path><path d="M 383.500,157.000 C 386.690,157.803 386.473,156.730 389.500,157.000" stroke-width="4.755" stroke="black" fill="none" stroke-linecap="round"></path><path d="M 389.500,157.000 C 393.723,155.361 393.690,155.803 397.500,153.000" stroke-width="3.890" stroke="black" fill="none" stroke-linecap="round"></path><path d="M 397.500,153.000 C 401.731,150.266 401.723,150.361 405.500,147.000" stroke-width="3.639" stroke="black" fill="none" stroke-linecap="round"></path><path d="M 405.500,147.000 C 409.000,143.500 409.231,143.766 412.500,140.000" stroke-width="3.523" stroke="black" fill="none" stroke-linecap="round"></path><path d="M 412.500,140.000 C 414.760,137.192 415.000,137.500 417.500,135.000" stroke-width="3.826" stroke="black" fill="none" stroke-linecap="round"></path><path d="M 417.500,135.000 C 421.634,130.614 419.760,133.192 422.500,132.000" stroke-width="4.473" stroke="black" fill="none" stroke-linecap="round"></path><path d="M 422.500,132.000 C 422.500,137.500 424.134,134.614 422.500,143.000" stroke-width="4.292" stroke="black" fill="none" stroke-linecap="round"></path><path d="M 422.500,143.000 C 422.500,150.500 422.500,150.500 422.500,158.000" stroke-width="3.215" stroke="black" fill="none" stroke-linecap="round"></path><path d="M 422.500,158.000 C 422.969,166.026 422.500,166.000 422.500,174.000" stroke-width="2.986" stroke="black" fill="none" stroke-linecap="round"></path><path d="M 422.500,174.000 C 421.911,183.064 421.969,183.026 420.500,192.000" stroke-width="2.734" stroke="black" fill="none" stroke-linecap="round"></path><path d="M 420.500,192.000 C 418.216,201.951 418.911,202.064 416.500,212.000" stroke-width="2.719" stroke="black" fill="none" stroke-linecap="round"></path><path d="M 416.500,212.000 C 415.197,222.533 414.716,222.451 413.500,233.000" stroke-width="2.501" stroke="black" fill="none" stroke-linecap="round"></path><path d="M 413.500,233.000 C 412.470,241.122 412.197,241.033 410.500,249.000" stroke-width="2.751" stroke="black" fill="none" stroke-linecap="round"></path><path d="M 410.500,249.000 C 409.488,255.689 408.970,255.122 406.500,261.000" stroke-width="3.013" stroke="black" fill="none" stroke-linecap="round"></path><path d="M 406.500,261.000 C 402.476,266.171 404.988,263.689 401.500,265.000" stroke-width="4.041" stroke="black" fill="none" stroke-linecap="round"></path><path d="M 401.500,265.000 C 401.328,259.995 399.976,263.171 401.500,255.000" stroke-width="3.678" stroke="black" fill="none" stroke-linecap="round"></path><path d="M 401.500,255.000 C 401.577,245.460 401.828,245.495 402.500,236.000" stroke-width="2.825" stroke="black" fill="none" stroke-linecap="round"></path><path d="M 402.500,236.000 C 403.717,224.954 403.577,224.960 405.500,214.000" stroke-width="2.543" stroke="black" fill="none" stroke-linecap="round"></path><path d="M 405.500,214.000 C 406.978,203.369 407.217,203.454 409.500,193.000" stroke-width="2.507" stroke="black" fill="none" stroke-linecap="round"></path><path d="M 409.500,193.000 C 412.016,185.005 411.478,184.869 414.500,177.000" stroke-width="2.726" stroke="black" fill="none" stroke-linecap="round"></path><path d="M 414.500,177.000 C 416.087,170.334 416.516,170.505 418.500,164.000" stroke-width="2.939" stroke="black" fill="none" stroke-linecap="round"></path><path d="M 418.500,164.000 C 420.098,159.737 420.087,159.834 422.500,156.000" stroke-width="3.425" stroke="black" fill="none" stroke-linecap="round"></path><path d="M 422.500,156.000 C 424.541,150.807 424.598,152.737 427.500,150.000" stroke-width="3.666" stroke="black" fill="none" stroke-linecap="round"></path><path d="M 427.500,150.000 C 432.248,150.317 430.041,149.307 433.500,153.000" stroke-width="4.332" stroke="black" fill="none" stroke-linecap="round"></path><path d="M 433.500,153.000 C 434.269,158.989 435.748,157.817 434.500,165.000" stroke-width="3.480" stroke="black" fill="none" stroke-linecap="round"></path><path d="M 434.500,165.000 C 434.500,172.000 434.769,171.989 434.500,179.000" stroke-width="3.194" stroke="black" fill="none" stroke-linecap="round"></path><path d="M 434.500,179.000 C 433.915,185.564 434.500,185.500 434.500,192.000" stroke-width="3.189" stroke="black" fill="none" stroke-linecap="round"></path><path d="M 434.500,192.000 C 433.651,198.389 434.915,196.564 436.500,201.000" stroke-width="3.446" stroke="black" fill="none" stroke-linecap="round"></path><path d="M 436.500,201.000 C 442.373,204.605 439.651,203.889 446.500,203.000" stroke-width="4.019" stroke="black" fill="none" stroke-linecap="round"></path><path d="M 446.500,203.000 C 450.899,198.801 451.373,201.105 454.500,194.000" stroke-width="3.481" stroke="black" fill="none" stroke-linecap="round"></path><path d="M 454.500,194.000 C 458.270,188.653 458.399,188.801 461.500,183.000" stroke-width="3.205" stroke="black" fill="none" stroke-linecap="round"></path><path d="M 461.500,183.000 C 464.108,178.051 464.270,178.153 466.500,173.000" stroke-width="3.334" stroke="black" fill="none" stroke-linecap="round"></path><path d="M 466.500,173.000 C 468.775,168.600 468.608,168.551 470.500,164.000" stroke-width="3.436" stroke="black" fill="none" stroke-linecap="round"></path><path d="M 470.500,164.000 C 471.050,156.586 471.775,160.600 472.500,157.000" stroke-width="3.773" stroke="black" fill="none" stroke-linecap="round"></path><path d="M 472.500,157.000 C 475.742,161.227 474.550,157.586 477.500,166.000" stroke-width="4.558" stroke="black" fill="none" stroke-linecap="round"></path><path d="M 477.500,166.000 C 478.205,171.078 479.242,170.727 479.500,176.000" stroke-width="3.775" stroke="black" fill="none" stroke-linecap="round"></path><path d="M 479.500,176.000 C 480.608,180.675 480.705,180.578 482.500,185.000" stroke-width="3.658" stroke="black" fill="none" stroke-linecap="round"></path><path d="M 482.500,185.000 C 483.992,188.935 484.108,188.675 486.500,192.000" stroke-width="3.715" stroke="black" fill="none" stroke-linecap="round"></path><path d="M 486.500,192.000 C 488.717,194.608 488.492,194.435 491.500,196.000" stroke-width="3.922" stroke="black" fill="none" stroke-linecap="round"></path><path d="M 491.500,196.000 C 494.000,197.000 493.717,197.108 496.500,197.000" stroke-width="4.298" stroke="black" fill="none" stroke-linecap="round"></path><path d="M 496.500,197.000 C 499.125,196.864 499.000,197.000 501.500,196.000" stroke-width="4.318" stroke="black" fill="none" stroke-linecap="round"></path><path d="M 501.500,196.000 C 504.421,194.319 504.625,194.864 507.500,193.000" stroke-width="4.064" stroke="black" fill="none" stroke-linecap="round"></path><path d="M 507.500,193.000 C 511.429,191.253 511.421,191.319 515.500,190.000" stroke-width="3.834" stroke="black" fill="none" stroke-linecap="round"></path><path d="M 515.500,190.000 C 518.175,189.969 517.929,189.253 520.500,189.000" stroke-width="4.082" stroke="black" fill="none" stroke-linecap="round"></path><path d="M 578.500,97.000 C 580.088,90.141 578.000,91.500 577.500,86.000" stroke-width="4.800" stroke="black" fill="none" stroke-linecap="round"></path><path d="M 577.500,86.000 C 573.302,82.334 575.088,82.141 568.500,81.000" stroke-width="4.737" stroke="black" fill="none" stroke-linecap="round"></path><path d="M 568.500,81.000 C 563.898,80.306 564.302,79.834 559.500,81.000" stroke-width="3.942" stroke="black" fill="none" stroke-linecap="round"></path><path d="M 559.500,81.000 C 553.947,81.459 554.398,81.806 549.500,84.000" stroke-width="3.611" stroke="black" fill="none" stroke-linecap="round"></path><path d="M 549.500,84.000 C 543.627,88.106 543.447,87.459 538.500,93.000" stroke-width="3.144" stroke="black" fill="none" stroke-linecap="round"></path><path d="M 538.500,93.000 C 532.537,98.637 532.627,98.606 527.500,105.000" stroke-width="3.008" stroke="black" fill="none" stroke-linecap="round"></path><path d="M 527.500,105.000 C 522.611,110.556 523.037,110.637 519.500,117.000" stroke-width="3.186" stroke="black" fill="none" stroke-linecap="round"></path><path d="M 519.500,117.000 C 515.675,125.302 515.611,125.056 513.500,134.000" stroke-width="2.852" stroke="black" fill="none" stroke-linecap="round"></path><path d="M 513.500,134.000 C 511.957,141.464 511.675,141.302 511.500,149.000" stroke-width="2.938" stroke="black" fill="none" stroke-linecap="round"></path><path d="M 511.500,149.000 C 508.480,158.884 510.957,157.964 511.500,167.000" stroke-width="2.791" stroke="black" fill="none" stroke-linecap="round"></path><path d="M 511.500,167.000 C 517.506,182.006 516.480,180.384 527.500,192.000" stroke-width="2.226" stroke="black" fill="none" stroke-linecap="round"></path><path d="M 527.500,192.000 C 534.298,195.666 532.506,197.006 541.500,197.000" stroke-width="2.668" stroke="black" fill="none" stroke-linecap="round"></path><path d="M 541.500,197.000 C 548.224,198.207 547.798,198.166 554.500,197.000" stroke-width="3.012" stroke="black" fill="none" stroke-linecap="round"></path><path d="M 554.500,197.000 C 561.359,195.193 561.224,195.707 567.500,192.000" stroke-width="3.067" stroke="black" fill="none" stroke-linecap="round"></path><path d="M 567.500,192.000 C 574.111,188.715 573.859,188.693 579.500,184.000" stroke-width="2.990" stroke="black" fill="none" stroke-linecap="round"></path><path d="M 579.500,184.000 C 585.768,177.729 586.111,178.215 591.500,171.000" stroke-width="2.823" stroke="black" fill="none" stroke-linecap="round"></path><path d="M 591.500,171.000 C 597.957,164.572 597.268,164.229 602.500,157.000" stroke-width="2.709" stroke="black" fill="none" stroke-linecap="round"></path><path d="M 602.500,157.000 C 606.848,149.252 606.957,149.572 609.500,141.000" stroke-width="2.754" stroke="black" fill="none" stroke-linecap="round"></path><path d="M 609.500,141.000 C 610.975,135.039 611.348,135.252 611.500,129.000" stroke-width="3.102" stroke="black" fill="none" stroke-linecap="round"></path><path d="M 611.500,129.000 C 612.270,123.387 611.975,123.539 611.500,118.000" stroke-width="3.260" stroke="black" fill="none" stroke-linecap="round"></path><path d="M 611.500,118.000 C 610.788,112.576 610.770,112.887 608.500,108.000" stroke-width="3.359" stroke="black" fill="none" stroke-linecap="round"></path><path d="M 608.500,108.000 C 606.110,104.900 606.788,104.576 603.500,102.000" stroke-width="3.735" stroke="black" fill="none" stroke-linecap="round"></path><path d="M 603.500,102.000 C 600.661,96.839 601.610,99.900 599.500,98.000" stroke-width="4.423" stroke="black" fill="none" stroke-linecap="round"></path><path d="M 599.500,98.000 C 597.574,103.414 597.161,100.339 596.500,109.000" stroke-width="4.250" stroke="black" fill="none" stroke-linecap="round"></path><path d="M 596.500,109.000 C 594.957,116.464 595.074,116.414 594.500,124.000" stroke-width="3.337" stroke="black" fill="none" stroke-linecap="round"></path><path d="M 594.500,124.000 C 594.500,133.000 593.957,132.964 594.500,142.000" stroke-width="2.822" stroke="black" fill="none" stroke-linecap="round"></path><path d="M 594.500,142.000 C 594.999,151.526 594.500,151.500 594.500,161.000" stroke-width="2.642" stroke="black" fill="none" stroke-linecap="round"></path><path d="M 594.500,161.000 C 593.450,170.495 593.999,170.526 592.500,180.000" stroke-width="2.647" stroke="black" fill="none" stroke-linecap="round"></path><path d="M 592.500,180.000 C 591.289,190.484 591.450,190.495 590.500,201.000" stroke-width="2.550" stroke="black" fill="none" stroke-linecap="round"></path><path d="M 590.500,201.000 C 589.807,210.495 589.789,210.484 589.500,220.000" stroke-width="2.622" stroke="black" fill="none" stroke-linecap="round"></path><path d="M 589.500,220.000 C 587.818,226.953 589.307,225.995 589.500,232.000" stroke-width="3.010" stroke="black" fill="none" stroke-linecap="round"></path><path d="M 589.500,232.000 C 592.834,236.363 590.318,234.453 594.500,235.000" stroke-width="4.064" stroke="black" fill="none" stroke-linecap="round"></path><path d="M 594.500,235.000 C 597.598,229.047 598.334,231.863 600.500,223.000" stroke-width="3.373" stroke="black" fill="none" stroke-linecap="round"></path><path d="M 600.500,223.000 C 603.749,216.603 603.598,216.547 606.500,210.000" stroke-width="3.079" stroke="black" fill="none" stroke-linecap="round"></path><path d="M 606.500,210.000 C 608.328,204.431 608.749,204.603 610.500,199.000" stroke-width="3.303" stroke="black" fill="none" stroke-linecap="round"></path><path d="M 610.500,199.000 C 612.560,194.526 612.328,194.431 614.500,190.000" stroke-width="3.426" stroke="black" fill="none" stroke-linecap="round"></path><path d="M 614.500,190.000 C 614.790,186.924 615.560,187.526 616.500,185.000" stroke-width="3.977" stroke="black" fill="none" stroke-linecap="round"></path><path d="M 616.500,185.000 C 619.459,181.276 618.790,182.424 622.500,181.000" stroke-width="4.612" stroke="black" fill="none" stroke-linecap="round"></path><path d="M 622.500,181.000 C 625.640,181.907 624.959,180.776 627.500,184.000" stroke-width="4.743" stroke="black" fill="none" stroke-linecap="round"></path><path d="M 627.500,184.000 C 629.095,186.956 629.640,186.407 630.500,190.000" stroke-width="4.169" stroke="black" fill="none" stroke-linecap="round"></path><path d="M 630.500,190.000 C 631.071,194.328 632.095,193.456 633.500,197.000" stroke-width="3.966" stroke="black" fill="none" stroke-linecap="round"></path><path d="M 633.500,197.000 C 637.018,200.710 636.071,199.828 640.500,201.000" stroke-width="4.339" stroke="black" fill="none" stroke-linecap="round"></path><path d="M 640.500,201.000 C 643.786,200.228 643.018,201.210 645.500,198.000" stroke-width="4.232" stroke="black" fill="none" stroke-linecap="round"></path><path d="M 645.500,198.000 C 647.897,192.946 648.786,193.728 650.500,188.000" stroke-width="3.543" stroke="black" fill="none" stroke-linecap="round"></path><path d="M 650.500,188.000 C 653.201,183.598 652.897,183.446 655.500,179.000" stroke-width="3.458" stroke="black" fill="none" stroke-linecap="round"></path><path d="M 655.500,179.000 C 656.879,171.392 657.201,175.598 658.500,172.000" stroke-width="3.746" stroke="black" fill="none" stroke-linecap="round"></path><path d="M 658.500,172.000 C 661.121,176.944 660.879,172.892 663.500,182.000" stroke-width="4.553" stroke="black" fill="none" stroke-linecap="round"></path><path d="M 663.500,182.000 C 664.107,186.342 665.121,185.444 666.500,189.000" stroke-width="4.007" stroke="black" fill="none" stroke-linecap="round"></path><path d="M 666.500,189.000 C 669.326,191.802 668.607,191.342 672.500,192.000" stroke-width="4.070" stroke="black" fill="none" stroke-linecap="round"></path><path d="M 672.500,192.000 C 678.432,192.441 677.326,192.302 682.500,190.000" stroke-width="4.205" stroke="black" fill="none" stroke-linecap="round"></path><path d="M 682.500,190.000 C 685.253,186.652 685.932,187.941 687.500,183.000" stroke-width="3.918" stroke="black" fill="none" stroke-linecap="round"></path><path d="M 687.500,183.000 C 689.113,180.051 689.253,180.152 690.500,177.000" stroke-width="3.998" stroke="black" fill="none" stroke-linecap="round"></path><path d="M 690.500,177.000 C 690.660,172.690 691.613,174.551 692.500,172.000" stroke-width="4.143" stroke="black" fill="none" stroke-linecap="round"></path><path d="M 692.500,172.000 C 695.410,173.807 694.660,171.190 698.500,174.000" stroke-width="4.879" stroke="black" fill="none" stroke-linecap="round"></path><path d="M 698.500,174.000 C 703.998,174.688 703.410,174.307 708.500,173.000" stroke-width="4.532" stroke="black" fill="none" stroke-linecap="round"></path><path d="M 708.500,173.000 C 711.478,170.473 711.998,171.688 714.500,168.000" stroke-width="4.035" stroke="black" fill="none" stroke-linecap="round"></path><path d="M 714.500,168.000 C 716.897,165.859 716.978,165.973 719.500,164.000" stroke-width="4.071" stroke="black" fill="none" stroke-linecap="round"></path><path d="M 719.500,164.000 C 723.743,160.379 723.897,160.859 728.500,158.000" stroke-width="4.206" stroke="black" fill="none" stroke-linecap="round"></path><path d="M 728.500,158.000 C 730.992,157.456 730.743,156.879 733.500,157.000" stroke-width="4.396" stroke="black" fill="none" stroke-linecap="round"></path><path d="M 733.500,157.000 C 736.476,156.216 736.492,156.456 739.500,156.000" stroke-width="4.216" stroke="black" fill="none" stroke-linecap="round"></path><path d="M 739.500,156.000 C 743.500,156.000 743.476,155.716 747.500,156.000" stroke-width="3.934" stroke="black" fill="none" stroke-linecap="round"></path><path d="M 747.500,156.000 C 751.524,155.716 751.500,156.000 755.500,156.000" stroke-width="3.857" stroke="black" fill="none" stroke-linecap="round"></path><path d="M 755.500,156.000 C 759.092,155.468 758.524,156.216 761.500,157.000" stroke-width="4.053" stroke="black" fill="none" stroke-linecap="round"></path></svg>