<svg xmlns="http://www.w3.org/2000/svg" xmlns:xlink="http://www.w3.org/1999/xlink" viewBox="0 0 1460 576" width="1460" height="576"><path d="M 666.000,272.000 C 663.617,269.832 663.500,270.000 661.000,268.000" stroke-width="5.381" stroke="black" fill="none" stroke-linecap="round"></path><path d="M 661.000,268.000 C 654.193,266.694 658.617,266.332 656.000,265.000" stroke-width="4.946" stroke="black" fill="none" stroke-linecap="round"></path><path d="M 656.000,265.000 C 673.258,249.407 670.193,251.694 693.000,238.000" stroke-width="1.922" stroke="black" fill="none" stroke-linecap="round"></path><path d="M 693.000,238.000 C 718.520,222.534 718.258,223.407 746.000,213.000" stroke-width="1.505" stroke="black" fill="none" stroke-linecap="round"></path><path d="M 746.000,213.000 C 768.448,207.980 767.520,205.534 791.000,204.000" stroke-width="1.969" stroke="black" fill="none" stroke-linecap="round"></path><path d="M 791.000,204.000 C 794.426,202.971 793.948,203.480 797.000,204.000" stroke-width="3.091" stroke="black" fill="none" stroke-linecap="round"></path><path d="M 797.000,204.000 C 800.605,205.335 799.426,204.971 801.000,208.000" stroke-width="3.837" stroke="black" fill="none" stroke-linecap="round"></path><path d="M 801.000,208.000 C 805.576,221.115 802.605,218.835 801.000,231.000" stroke-width="2.621" stroke="black" fill="none" stroke-linecap="round"></path><path d="M 801.000,231.000 C 788.643,246.617 793.076,248.115 776.000,262.000" stroke-width="1.885" stroke="black" fill="none" stroke-linecap="round"></path><path d="M 776.000,262.000 C 738.380,298.498 758.643,283.117 741.000,304.000" stroke-width="2.015" stroke="black" fill="none" stroke-linecap="round"></path><path d="M 741.000,304.000 C 764.528,295.227 743.380,308.998 786.000,283.000" stroke-width="2.550" stroke="black" fill="none" stroke-linecap="round"></path><path d="M 786.000,283.000 C 798.815,271.826 800.528,274.727 813.000,263.000" stroke-width="1.986" stroke="black" fill="none" stroke-linecap="round"></path><path d="M 813.000,263.000 C 832.508,250.777 821.315,257.826 831.000,255.000" stroke-width="2.333" stroke="black" fill="none" stroke-linecap="round"></path><path d="M 831.000,255.000 C 818.473,274.355 827.508,264.777 803.000,291.000" stroke-width="2.745" stroke="black" fill="none" stroke-linecap="round"></path><path d="M 803.000,291.000 C 783.233,307.767 785.473,309.855 765.000,326.000" stroke-width="1.573" stroke="black" fill="none" stroke-linecap="round"></path><path d="M 765.000,326.000 C 756.750,335.312 756.233,334.767 749.000,345.000" stroke-width="1.967" stroke="black" fill="none" stroke-linecap="round"></path></svg>