<svg xmlns="http://www.w3.org/2000/svg" xmlns:xlink="http://www.w3.org/1999/xlink" viewBox="0 0 1460 576" width="1460" height="576"><path d="M 733.000,408.000 C 723.950,407.926 724.000,407.500 715.000,407.000" stroke-width="4.890" stroke="black" fill="none" stroke-linecap="round"></path><path d="M 715.000,407.000 C 709.398,406.432 709.450,406.426 704.000,405.000" stroke-width="3.666" stroke="black" fill="none" stroke-linecap="round"></path><path d="M 704.000,405.000 C 684.467,400.891 684.898,399.932 666.000,394.000" stroke-width="2.017" stroke="black" fill="none" stroke-linecap="round"></path><path d="M 666.000,394.000 C 652.109,385.452 650.967,388.391 637.000,380.000" stroke-width="2.017" stroke="black" fill="none" stroke-linecap="round"></path><path d="M 637.000,380.000 C 602.587,370.479 603.609,367.952 569.000,359.000" stroke-width="1.818" stroke="black" fill="none" stroke-linecap="round"></path><path d="M 569.000,359.000 C 562.620,357.107 563.087,356.979 558.000,353.000" stroke-width="2.624" stroke="black" fill="none" stroke-linecap="round"></path><path d="M 558.000,353.000 C 549.012,344.726 549.120,345.107 542.000,335.000" stroke-width="2.347" stroke="black" fill="none" stroke-linecap="round"></path><path d="M 542.000,335.000 C 531.479,323.093 533.512,323.226 527.000,310.000" stroke-width="2.786" stroke="black" fill="none" stroke-linecap="round"></path><path d="M 527.000,310.000 C 525.879,302.507 524.979,304.093 529.000,297.000" stroke-width="3.045" stroke="black" fill="none" stroke-linecap="round"></path><path d="M 529.000,297.000 C 535.001,286.659 534.379,287.507 544.000,280.000" stroke-width="2.433" stroke="black" fill="none" stroke-linecap="round"></path><path d="M 544.000,280.000 C 559.988,266.200 560.001,268.159 579.000,260.000" stroke-width="1.842" stroke="black" fill="none" stroke-linecap="round"></path><path d="M 579.000,260.000 C 629.946,240.949 628.988,243.700 682.000,235.000" stroke-width="1.481" stroke="black" fill="none" stroke-linecap="round"></path><path d="M 682.000,235.000 C 718.566,234.232 717.446,230.949 754.000,240.000" stroke-width="1.169" stroke="black" fill="none" stroke-linecap="round"></path><path d="M 754.000,240.000 C 782.894,246.817 783.066,244.732 811.000,256.000" stroke-width="1.228" stroke="black" fill="none" stroke-linecap="round"></path><path d="M 811.000,256.000 C 833.335,263.766 833.394,263.317 855.000,273.000" stroke-width="1.400" stroke="black" fill="none" stroke-linecap="round"></path><path d="M 855.000,273.000 C 864.486,276.135 863.835,276.766 872.000,282.000" stroke-width="2.086" stroke="black" fill="none" stroke-linecap="round"></path><path d="M 872.000,282.000 C 885.353,292.391 884.986,292.135 896.000,305.000" stroke-width="1.898" stroke="black" fill="none" stroke-linecap="round"></path><path d="M 896.000,305.000 C 910.000,315.113 904.353,314.891 910.000,327.000" stroke-width="2.061" stroke="black" fill="none" stroke-linecap="round"></path><path d="M 910.000,327.000 C 911.071,354.361 910.000,347.613 896.000,370.000" stroke-width="2.270" stroke="black" fill="none" stroke-linecap="round"></path><path d="M 896.000,370.000 C 852.006,407.882 858.071,409.361 804.000,437.000" stroke-width="1.125" stroke="black" fill="none" stroke-linecap="round"></path><path d="M 804.000,437.000 C 789.270,442.568 791.006,444.882 774.000,444.000" stroke-width="1.447" stroke="black" fill="none" stroke-linecap="round"></path><path d="M 774.000,444.000 C 740.357,449.690 741.270,447.068 708.000,446.000" stroke-width="1.183" stroke="black" fill="none" stroke-linecap="round"></path><path d="M 708.000,446.000 C 682.491,441.191 683.357,443.190 660.000,431.000" stroke-width="1.796" stroke="black" fill="none" stroke-linecap="round"></path><path d="M 660.000,431.000 C 651.221,424.602 650.491,426.691 644.000,417.000" stroke-width="2.189" stroke="black" fill="none" stroke-linecap="round"></path><path d="M 644.000,417.000 C 640.119,414.082 641.721,414.602 641.000,411.000" stroke-width="3.220" stroke="black" fill="none" stroke-linecap="round"></path><path d="M 641.000,411.000 C 642.995,388.540 646.119,393.082 656.000,375.000" stroke-width="2.052" stroke="black" fill="none" stroke-linecap="round"></path><path d="M 656.000,375.000 C 682.524,349.754 679.495,350.540 714.000,335.000" stroke-width="1.865" stroke="black" fill="none" stroke-linecap="round"></path><path d="M 714.000,335.000 C 748.093,319.009 746.524,319.754 784.000,315.000" stroke-width="1.222" stroke="black" fill="none" stroke-linecap="round"></path><path d="M 784.000,315.000 C 852.112,310.675 851.093,307.509 920.000,312.000" stroke-width="1.125" stroke="black" fill="none" stroke-linecap="round"></path><path d="M 920.000,312.000 C 954.554,315.025 954.612,312.675 989.000,319.000" stroke-width="1.145" stroke="black" fill="none" stroke-linecap="round"></path><path d="M 989.000,319.000 C 1032.464,324.817 1032.554,324.025 1076.000,330.000" stroke-width="1.125" stroke="black" fill="none" stroke-linecap="round"></path><path d="M 1076.000,330.000 C 1095.566,331.465 1095.464,332.317 1115.000,334.000" stroke-width="1.366" stroke="black" fill="none" stroke-linecap="round"></path><path d="M 1115.000,334.000 C 1152.940,340.089 1153.066,338.965 1191.000,345.000" stroke-width="1.556" stroke="black" fill="none" stroke-linecap="round"></path><path d="M 1191.000,345.000 C 1202.010,342.406 1199.440,346.089 1208.000,346.000" stroke-width="2.299" stroke="black" fill="none" stroke-linecap="round"></path><path d="M 1208.000,346.000 C 1210.162,351.411 1212.010,348.406 1211.000,357.000" stroke-width="3.356" stroke="black" fill="none" stroke-linecap="round"></path><path d="M 1211.000,357.000 C 1212.485,361.968 1211.662,361.411 1211.000,366.000" stroke-width="3.575" stroke="black" fill="none" stroke-linecap="round"></path><path d="M 1211.000,366.000 C 1204.000,373.494 1208.985,371.468 1204.000,376.000" stroke-width="3.931" stroke="black" fill="none" stroke-linecap="round"></path><path d="M 1204.000,376.000 C 1207.399,374.386 1204.000,377.494 1211.000,374.000" stroke-width="4.875" stroke="black" fill="none" stroke-linecap="round"></path><path d="M 1211.000,374.000 C 1221.565,371.966 1221.399,372.886 1232.000,373.000" stroke-width="2.942" stroke="black" fill="none" stroke-linecap="round"></path><path d="M 1232.000,373.000 C 1277.122,378.268 1277.065,377.466 1322.000,385.000" stroke-width="1.125" stroke="black" fill="none" stroke-linecap="round"></path><path d="M 1322.000,385.000 C 1337.363,386.721 1337.122,387.268 1352.000,391.000" stroke-width="1.557" stroke="black" fill="none" stroke-linecap="round"></path><path d="M 1352.000,391.000 C 1370.066,396.618 1369.863,396.221 1387.000,404.000" stroke-width="1.780" stroke="black" fill="none" stroke-linecap="round"></path></svg>