<svg xmlns="http://www.w3.org/2000/svg" xmlns:xlink="http://www.w3.org/1999/xlink" viewBox="0 0 692 576" width="692" height="576"><path d="M 336.000,330.000 C 329.492,330.271 329.500,330.000 323.000,330.000" stroke-width="4.316" stroke="black" fill="none" stroke-linecap="round"></path><path d="M 323.000,330.000 C 305.204,330.458 305.492,329.271 288.000,328.000" stroke-width="2.143" stroke="black" fill="none" stroke-linecap="round"></path><path d="M 288.000,328.000 C 280.932,325.678 280.704,326.958 274.000,323.000" stroke-width="2.679" stroke="black" fill="none" stroke-linecap="round"></path><path d="M 274.000,323.000 C 256.898,319.794 258.932,317.178 244.000,311.000" stroke-width="2.114" stroke="black" fill="none" stroke-linecap="round"></path><path d="M 244.000,311.000 C 234.125,303.191 234.898,304.794 230.000,293.000" stroke-width="2.308" stroke="black" fill="none" stroke-linecap="round"></path><path d="M 230.000,293.000 C 224.978,280.728 225.625,282.191 227.000,269.000" stroke-width="2.318" stroke="black" fill="none" stroke-linecap="round"></path><path d="M 227.000,269.000 C 230.466,233.717 232.478,237.228 245.000,206.000" stroke-width="1.310" stroke="black" fill="none" stroke-linecap="round"></path><path d="M 245.000,206.000 C 256.195,194.282 251.966,192.717 270.000,187.000" stroke-width="1.673" stroke="black" fill="none" stroke-linecap="round"></path><path d="M 270.000,187.000 C 301.859,166.380 301.695,170.282 336.000,158.000" stroke-width="1.203" stroke="black" fill="none" stroke-linecap="round"></path><path d="M 336.000,158.000 C 358.311,157.129 356.859,152.880 380.000,160.000" stroke-width="1.474" stroke="black" fill="none" stroke-linecap="round"></path><path d="M 380.000,160.000 C 392.269,162.720 392.311,161.629 404.000,167.000" stroke-width="1.868" stroke="black" fill="none" stroke-linecap="round"></path><path d="M 404.000,167.000 C 430.764,174.326 429.269,176.220 454.000,187.000" stroke-width="1.521" stroke="black" fill="none" stroke-linecap="round"></path><path d="M 454.000,187.000 C 463.542,193.870 463.764,192.326 470.000,203.000" stroke-width="2.009" stroke="black" fill="none" stroke-linecap="round"></path><path d="M 470.000,203.000 C 479.822,214.758 478.042,214.370 483.000,228.000" stroke-width="2.029" stroke="black" fill="none" stroke-linecap="round"></path><path d="M 483.000,228.000 C 485.138,241.234 485.822,239.758 482.000,253.000" stroke-width="2.246" stroke="black" fill="none" stroke-linecap="round"></path><path d="M 482.000,253.000 C 478.967,265.033 479.138,263.734 471.000,273.000" stroke-width="2.296" stroke="black" fill="none" stroke-linecap="round"></path><path d="M 471.000,273.000 C 444.653,296.374 446.467,297.533 417.000,318.000" stroke-width="1.247" stroke="black" fill="none" stroke-linecap="round"></path><path d="M 417.000,318.000 C 406.195,328.682 405.653,326.874 393.000,334.000" stroke-width="1.736" stroke="black" fill="none" stroke-linecap="round"></path><path d="M 393.000,334.000 C 371.722,341.266 372.695,342.182 350.000,345.000" stroke-width="1.607" stroke="black" fill="none" stroke-linecap="round"></path><path d="M 350.000,345.000 C 339.494,345.256 339.722,346.766 329.000,345.000" stroke-width="2.151" stroke="black" fill="none" stroke-linecap="round"></path><path d="M 329.000,345.000 C 318.921,345.134 318.994,344.756 309.000,344.000" stroke-width="2.383" stroke="black" fill="none" stroke-linecap="round"></path><path d="M 309.000,344.000 C 301.448,342.719 301.421,343.134 294.000,341.000" stroke-width="2.760" stroke="black" fill="none" stroke-linecap="round"></path><path d="M 294.000,341.000 C 287.451,341.116 288.448,339.719 283.000,338.000" stroke-width="3.107" stroke="black" fill="none" stroke-linecap="round"></path><path d="M 283.000,338.000 C 276.350,333.267 277.451,334.116 274.000,327.000" stroke-width="3.077" stroke="black" fill="none" stroke-linecap="round"></path><path d="M 274.000,327.000 C 270.613,319.235 271.850,321.267 274.000,314.000" stroke-width="3.153" stroke="black" fill="none" stroke-linecap="round"></path><path d="M 274.000,314.000 C 287.852,291.691 287.113,293.735 307.000,276.000" stroke-width="1.701" stroke="black" fill="none" stroke-linecap="round"></path><path d="M 307.000,276.000 C 325.333,261.975 323.852,262.191 346.000,255.000" stroke-width="1.600" stroke="black" fill="none" stroke-linecap="round"></path><path d="M 346.000,255.000 C 366.437,250.685 365.333,248.475 387.000,249.000" stroke-width="1.625" stroke="black" fill="none" stroke-linecap="round"></path><path d="M 387.000,249.000 C 397.248,248.092 396.937,248.185 407.000,250.000" stroke-width="2.152" stroke="black" fill="none" stroke-linecap="round"></path><path d="M 407.000,250.000 C 421.765,251.068 420.248,252.592 433.000,258.000" stroke-width="2.160" stroke="black" fill="none" stroke-linecap="round"></path><path d="M 433.000,258.000 C 444.832,267.540 445.265,265.568 454.000,279.000" stroke-width="2.023" stroke="black" fill="none" stroke-linecap="round"></path><path d="M 454.000,279.000 C 460.015,285.516 458.832,285.040 461.000,293.000" stroke-width="2.582" stroke="black" fill="none" stroke-linecap="round"></path><path d="M 461.000,293.000 C 463.754,306.741 462.515,304.516 459.000,317.000" stroke-width="2.398" stroke="black" fill="none" stroke-linecap="round"></path><path d="M 459.000,317.000 C 451.368,326.544 454.254,327.241 442.000,334.000" stroke-width="2.405" stroke="black" fill="none" stroke-linecap="round"></path><path d="M 442.000,334.000 C 426.972,346.658 426.868,346.044 410.000,356.000" stroke-width="1.932" stroke="black" fill="none" stroke-linecap="round"></path><path d="M 410.000,356.000 C 372.810,378.990 372.472,376.658 333.000,394.000" stroke-width="1.125" stroke="black" fill="none" stroke-linecap="round"></path><path d="M 333.000,394.000 C 310.645,399.647 311.810,401.990 288.000,402.000" stroke-width="1.322" stroke="black" fill="none" stroke-linecap="round"></path><path d="M 288.000,402.000 C 271.951,402.694 272.145,403.647 256.000,402.000" stroke-width="1.666" stroke="black" fill="none" stroke-linecap="round"></path><path d="M 256.000,402.000 C 246.254,404.899 248.951,401.694 242.000,400.000" stroke-width="2.451" stroke="black" fill="none" stroke-linecap="round"></path><path d="M 242.000,400.000 C 225.446,383.570 229.754,385.899 223.000,364.000" stroke-width="1.835" stroke="black" fill="none" stroke-linecap="round"></path><path d="M 223.000,364.000 C 219.194,320.592 217.946,323.570 227.000,280.000" stroke-width="1.125" stroke="black" fill="none" stroke-linecap="round"></path><path d="M 227.000,280.000 C 232.501,252.944 231.694,255.592 248.000,234.000" stroke-width="1.265" stroke="black" fill="none" stroke-linecap="round"></path><path d="M 248.000,234.000 C 266.361,212.623 264.001,214.444 290.000,203.000" stroke-width="1.303" stroke="black" fill="none" stroke-linecap="round"></path><path d="M 290.000,203.000 C 325.193,191.465 322.861,189.623 361.000,188.000" stroke-width="1.125" stroke="black" fill="none" stroke-linecap="round"></path><path d="M 361.000,188.000 C 387.904,187.320 387.193,185.465 414.000,191.000" stroke-width="1.268" stroke="black" fill="none" stroke-linecap="round"></path><path d="M 414.000,191.000 C 427.402,193.358 426.904,192.820 439.000,199.000" stroke-width="1.843" stroke="black" fill="none" stroke-linecap="round"></path><path d="M 439.000,199.000 C 447.129,202.625 445.902,202.358 451.000,209.000" stroke-width="2.490" stroke="black" fill="none" stroke-linecap="round"></path><path d="M 451.000,209.000 C 458.235,218.538 455.629,216.625 456.000,227.000" stroke-width="2.563" stroke="black" fill="none" stroke-linecap="round"></path><path d="M 456.000,227.000 C 448.909,246.271 451.235,245.038 437.000,262.000" stroke-width="1.876" stroke="black" fill="none" stroke-linecap="round"></path><path d="M 437.000,262.000 C 420.797,280.370 422.409,281.271 403.000,297.000" stroke-width="1.559" stroke="black" fill="none" stroke-linecap="round"></path><path d="M 403.000,297.000 C 390.421,309.386 390.297,308.870 376.000,319.000" stroke-width="1.701" stroke="black" fill="none" stroke-linecap="round"></path><path d="M 376.000,319.000 C 361.738,329.171 361.921,328.386 346.000,335.000" stroke-width="1.819" stroke="black" fill="none" stroke-linecap="round"></path><path d="M 346.000,335.000 C 333.685,339.615 334.738,339.171 322.000,339.000" stroke-width="2.089" stroke="black" fill="none" stroke-linecap="round"></path><path d="M 322.000,339.000 C 313.606,337.806 314.685,338.615 308.000,333.000" stroke-width="2.587" stroke="black" fill="none" stroke-linecap="round"></path><path d="M 308.000,333.000 C 296.639,325.029 299.606,325.806 294.000,315.000" stroke-width="2.455" stroke="black" fill="none" stroke-linecap="round"></path><path d="M 294.000,315.000 C 293.893,304.200 291.639,306.029 298.000,295.000" stroke-width="2.526" stroke="black" fill="none" stroke-linecap="round"></path><path d="M 298.000,295.000 C 303.184,271.262 306.393,276.200 319.000,259.000" stroke-width="1.824" stroke="black" fill="none" stroke-linecap="round"></path><path d="M 319.000,259.000 C 351.646,238.181 347.684,236.762 387.000,226.000" stroke-width="1.140" stroke="black" fill="none" stroke-linecap="round"></path><path d="M 387.000,226.000 C 412.615,219.058 411.146,217.681 438.000,218.000" stroke-width="1.307" stroke="black" fill="none" stroke-linecap="round"></path><path d="M 438.000,218.000 C 448.579,220.221 448.615,217.558 459.000,223.000" stroke-width="1.953" stroke="black" fill="none" stroke-linecap="round"></path><path d="M 459.000,223.000 C 464.835,222.835 463.579,224.221 468.000,226.000" stroke-width="2.878" stroke="black" fill="none" stroke-linecap="round"></path><path d="M 468.000,226.000 C 475.413,232.840 473.835,231.835 477.000,241.000" stroke-width="2.742" stroke="black" fill="none" stroke-linecap="round"></path><path d="M 477.000,241.000 C 478.453,252.290 478.913,250.840 475.000,262.000" stroke-width="2.634" stroke="black" fill="none" stroke-linecap="round"></path><path d="M 475.000,262.000 C 468.616,274.394 470.453,274.790 461.000,286.000" stroke-width="2.200" stroke="black" fill="none" stroke-linecap="round"></path><path d="M 461.000,286.000 C 448.929,307.840 447.616,306.394 433.000,326.000" stroke-width="1.618" stroke="black" fill="none" stroke-linecap="round"></path><path d="M 433.000,326.000 C 422.830,336.024 423.929,336.340 411.000,343.000" stroke-width="1.948" stroke="black" fill="none" stroke-linecap="round"></path><path d="M 411.000,343.000 C 402.382,348.701 403.330,347.524 394.000,349.000" stroke-width="2.436" stroke="black" fill="none" stroke-linecap="round"></path><path d="M 394.000,349.000 C 387.821,347.403 388.382,349.201 383.000,344.000" stroke-width="2.976" stroke="black" fill="none" stroke-linecap="round"></path></svg>