<svg xmlns="http://www.w3.org/2000/svg" xmlns:xlink="http://www.w3.org/1999/xlink" viewBox="0 0 1460 576" width="1460" height="576"><path d="M 130.000,66.000 C 125.081,66.244 126.000,67.500 122.000,69.000" stroke-width="4.965" stroke="black" fill="none" stroke-linecap="round"></path><path d="M 122.000,69.000 C 115.567,75.498 115.581,74.744 111.000,83.000" stroke-width="4.029" stroke="black" fill="none" stroke-linecap="round"></path><path d="M 111.000,83.000 C 109.268,87.436 108.567,86.998 108.000,92.000" stroke-width="3.667" stroke="black" fill="none" stroke-linecap="round"></path><path d="M 108.000,92.000 C 106.800,96.465 106.768,96.436 106.000,101.000" stroke-width="3.598" stroke="black" fill="none" stroke-linecap="round"></path><path d="M 106.000,101.000 C 105.268,104.986 105.300,104.965 105.000,109.000" stroke-width="3.696" stroke="black" fill="none" stroke-linecap="round"></path><path d="M 105.000,109.000 C 105.000,112.500 104.768,112.486 105.000,116.000" stroke-width="3.893" stroke="black" fill="none" stroke-linecap="round"></path><path d="M 105.000,116.000 C 103.810,120.749 105.000,120.500 105.000,125.000" stroke-width="3.792" stroke="black" fill="none" stroke-linecap="round"></path><path d="M 105.000,125.000 C 106.624,134.600 107.310,133.249 112.000,141.000" stroke-width="3.712" stroke="black" fill="none" stroke-linecap="round"></path><path d="M 112.000,141.000 C 119.023,145.465 117.124,147.100 126.000,150.000" stroke-width="2.988" stroke="black" fill="none" stroke-linecap="round"></path><path d="M 126.000,150.000 C 129.120,151.840 129.023,151.965 132.000,154.000" stroke-width="3.602" stroke="black" fill="none" stroke-linecap="round"></path><path d="M 132.000,154.000 C 135.159,156.326 135.120,156.340 138.000,159.000" stroke-width="3.775" stroke="black" fill="none" stroke-linecap="round"></path><path d="M 138.000,159.000 C 142.608,165.909 143.659,164.326 149.000,170.000" stroke-width="3.147" stroke="black" fill="none" stroke-linecap="round"></path><path d="M 149.000,170.000 C 155.807,173.617 155.108,173.909 163.000,175.000" stroke-width="2.981" stroke="black" fill="none" stroke-linecap="round"></path><path d="M 163.000,175.000 C 169.106,175.931 168.807,176.117 175.000,175.000" stroke-width="3.293" stroke="black" fill="none" stroke-linecap="round"></path><path d="M 175.000,175.000 C 188.038,172.153 188.106,172.931 201.000,169.000" stroke-width="2.434" stroke="black" fill="none" stroke-linecap="round"></path><path d="M 201.000,169.000 C 206.541,167.638 206.538,167.653 212.000,166.000" stroke-width="3.020" stroke="black" fill="none" stroke-linecap="round"></path><path d="M 212.000,166.000 C 221.553,163.149 221.541,163.138 231.000,160.000" stroke-width="3.233" stroke="black" fill="none" stroke-linecap="round"></path><path d="M 231.000,160.000 C 233.599,159.200 233.553,159.149 236.000,158.000" stroke-width="3.896" stroke="black" fill="none" stroke-linecap="round"></path><path d="M 236.000,158.000 C 239.373,157.359 238.599,156.700 241.000,155.000" stroke-width="4.096" stroke="black" fill="none" stroke-linecap="round"></path><path d="M 241.000,155.000 C 251.534,142.718 249.373,142.859 256.000,129.000" stroke-width="3.217" stroke="black" fill="none" stroke-linecap="round"></path><path d="M 256.000,129.000 C 256.435,120.250 258.534,121.218 255.000,112.000" stroke-width="3.547" stroke="black" fill="none" stroke-linecap="round"></path><path d="M 255.000,112.000 C 253.319,109.079 254.435,108.750 252.000,106.000" stroke-width="3.915" stroke="black" fill="none" stroke-linecap="round"></path><path d="M 252.000,106.000 C 250.986,101.751 250.319,102.079 249.000,98.000" stroke-width="3.738" stroke="black" fill="none" stroke-linecap="round"></path><path d="M 249.000,98.000 C 246.859,92.656 246.486,93.251 243.000,89.000" stroke-width="3.523" stroke="black" fill="none" stroke-linecap="round"></path><path d="M 243.000,89.000 C 236.244,84.825 237.359,83.656 230.000,80.000" stroke-width="3.714" stroke="black" fill="none" stroke-linecap="round"></path><path d="M 230.000,80.000 C 225.500,76.000 225.244,76.325 221.000,72.000" stroke-width="3.409" stroke="black" fill="none" stroke-linecap="round"></path><path d="M 221.000,72.000 C 216.515,67.983 216.500,68.000 212.000,64.000" stroke-width="3.267" stroke="black" fill="none" stroke-linecap="round"></path><path d="M 212.000,64.000 C 208.492,59.642 208.015,60.483 204.000,57.000" stroke-width="3.345" stroke="black" fill="none" stroke-linecap="round"></path><path d="M 204.000,57.000 C 199.477,53.776 199.992,54.642 195.000,54.000" stroke-width="4.018" stroke="black" fill="none" stroke-linecap="round"></path><path d="M 195.000,54.000 C 189.550,56.150 189.477,54.276 184.000,58.000" stroke-width="3.571" stroke="black" fill="none" stroke-linecap="round"></path><path d="M 184.000,58.000 C 179.087,59.929 179.050,59.650 174.000,61.000" stroke-width="3.452" stroke="black" fill="none" stroke-linecap="round"></path><path d="M 174.000,61.000 C 169.515,61.774 169.587,61.929 165.000,62.000" stroke-width="3.549" stroke="black" fill="none" stroke-linecap="round"></path><path d="M 165.000,62.000 C 159.401,61.263 159.515,62.274 154.000,62.000" stroke-width="3.993" stroke="black" fill="none" stroke-linecap="round"></path><path d="M 154.000,62.000 C 148.123,62.759 148.401,62.763 143.000,65.000" stroke-width="4.165" stroke="black" fill="none" stroke-linecap="round"></path><path d="M 143.000,65.000 C 140.716,67.370 140.123,66.259 138.000,69.000" stroke-width="4.517" stroke="black" fill="none" stroke-linecap="round"></path><path d="M 161.000,84.000 C 161.010,88.237 160.000,87.500 159.000,91.000" stroke-width="5.314" stroke="black" fill="none" stroke-linecap="round"></path><path d="M 159.000,91.000 C 155.633,95.658 157.010,93.737 153.000,95.000" stroke-width="5.020" stroke="black" fill="none" stroke-linecap="round"></path><path d="M 153.000,95.000 C 149.254,91.863 149.633,94.158 147.000,88.000" stroke-width="3.973" stroke="black" fill="none" stroke-linecap="round"></path><path d="M 147.000,88.000 C 144.851,84.149 145.754,85.863 146.000,83.000" stroke-width="4.562" stroke="black" fill="none" stroke-linecap="round"></path><path d="M 186.000,86.000 C 186.581,88.486 186.500,88.500 187.000,91.000" stroke-width="5.336" stroke="black" fill="none" stroke-linecap="round"></path><path d="M 187.000,91.000 C 186.029,95.783 187.581,94.486 188.000,98.000" stroke-width="4.784" stroke="black" fill="none" stroke-linecap="round"></path><path d="M 188.000,98.000 C 191.579,100.244 190.029,100.283 195.000,100.000" stroke-width="5.096" stroke="black" fill="none" stroke-linecap="round"></path><path d="M 195.000,100.000 C 198.511,98.526 198.579,99.744 202.000,97.000" stroke-width="4.716" stroke="black" fill="none" stroke-linecap="round"></path><path d="M 202.000,97.000 C 206.416,94.783 206.511,95.026 211.000,93.000" stroke-width="4.441" stroke="black" fill="none" stroke-linecap="round"></path><path d="M 211.000,93.000 C 215.535,91.595 215.416,91.283 220.000,90.000" stroke-width="3.762" stroke="black" fill="none" stroke-linecap="round"></path><path d="M 141.000,125.000 C 141.031,127.675 141.500,127.500 142.000,130.000" stroke-width="5.464" stroke="black" fill="none" stroke-linecap="round"></path><path d="M 142.000,130.000 C 143.969,133.518 143.531,133.675 146.000,137.000" stroke-width="4.767" stroke="black" fill="none" stroke-linecap="round"></path><path d="M 146.000,137.000 C 147.094,139.855 147.469,139.518 149.000,142.000" stroke-width="4.791" stroke="black" fill="none" stroke-linecap="round"></path><path d="M 149.000,142.000 C 151.260,144.401 151.094,144.355 154.000,146.000" stroke-width="4.718" stroke="black" fill="none" stroke-linecap="round"></path><path d="M 154.000,146.000 C 157.364,148.161 157.260,147.901 161.000,149.000" stroke-width="4.044" stroke="black" fill="none" stroke-linecap="round"></path><path d="M 161.000,149.000 C 164.000,149.000 163.864,149.661 167.000,149.000" stroke-width="4.077" stroke="black" fill="none" stroke-linecap="round"></path><path d="M 167.000,149.000 C 170.000,149.000 170.000,149.000 173.000,149.000" stroke-width="4.133" stroke="black" fill="none" stroke-linecap="round"></path><path d="M 173.000,149.000 C 177.500,149.000 177.500,149.000 182.000,149.000" stroke-width="4.330" stroke="black" fill="none" stroke-linecap="round"></path><path d="M 182.000,149.000 C 185.547,149.432 185.500,149.000 189.000,149.000" stroke-width="4.526" stroke="black" fill="none" stroke-linecap="round"></path><path d="M 189.000,149.000 C 193.619,148.369 193.547,148.432 198.000,147.000" stroke-width="4.455" stroke="black" fill="none" stroke-linecap="round"></path><path d="M 198.000,147.000 C 201.544,145.595 201.619,145.869 205.000,144.000" stroke-width="3.984" stroke="black" fill="none" stroke-linecap="round"></path><path d="M 205.000,144.000 C 208.000,142.500 208.044,142.595 211.000,141.000" stroke-width="3.969" stroke="black" fill="none" stroke-linecap="round"></path><path d="M 211.000,141.000 C 215.370,139.513 215.000,139.000 219.000,137.000" stroke-width="4.296" stroke="black" fill="none" stroke-linecap="round"></path><path d="M 219.000,137.000 C 222.013,134.870 221.870,135.013 224.000,132.000" stroke-width="4.712" stroke="black" fill="none" stroke-linecap="round"></path><path d="M 224.000,132.000 C 225.881,127.935 226.513,128.370 228.000,124.000" stroke-width="4.486" stroke="black" fill="none" stroke-linecap="round"></path><path d="M 375.000,71.000 C 374.775,75.545 374.500,75.500 374.000,80.000" stroke-width="5.071" stroke="black" fill="none" stroke-linecap="round"></path><path d="M 374.000,80.000 C 372.610,87.025 372.775,87.045 371.000,94.000" stroke-width="3.390" stroke="black" fill="none" stroke-linecap="round"></path><path d="M 371.000,94.000 C 369.457,99.990 369.610,100.025 368.000,106.000" stroke-width="3.235" stroke="black" fill="none" stroke-linecap="round"></path><path d="M 368.000,106.000 C 365.563,116.515 365.457,116.490 363.000,127.000" stroke-width="2.665" stroke="black" fill="none" stroke-linecap="round"></path><path d="M 363.000,127.000 C 359.489,138.911 360.063,139.015 357.000,151.000" stroke-width="2.392" stroke="black" fill="none" stroke-linecap="round"></path><path d="M 357.000,151.000 C 356.295,155.990 355.989,155.911 356.000,161.000" stroke-width="3.048" stroke="black" fill="none" stroke-linecap="round"></path><path d="M 356.000,161.000 C 355.711,164.529 355.795,164.490 356.000,168.000" stroke-width="3.606" stroke="black" fill="none" stroke-linecap="round"></path><path d="M 356.000,168.000 C 355.550,172.793 356.211,170.529 357.000,173.000" stroke-width="4.419" stroke="black" fill="none" stroke-linecap="round"></path><path d="M 357.000,173.000 C 360.940,171.746 359.050,173.293 363.000,169.000" stroke-width="4.555" stroke="black" fill="none" stroke-linecap="round"></path><path d="M 352.000,120.000 C 348.091,122.662 348.000,122.500 344.000,125.000" stroke-width="5.494" stroke="black" fill="none" stroke-linecap="round"></path><path d="M 344.000,125.000 C 341.192,127.574 341.091,126.662 338.000,128.000" stroke-width="4.894" stroke="black" fill="none" stroke-linecap="round"></path><path d="M 338.000,128.000 C 333.449,127.785 333.692,128.574 329.000,127.000" stroke-width="4.811" stroke="black" fill="none" stroke-linecap="round"></path><path d="M 329.000,127.000 C 325.052,125.579 324.949,126.285 321.000,125.000" stroke-width="3.985" stroke="black" fill="none" stroke-linecap="round"></path><path d="M 321.000,125.000 C 314.009,125.330 318.052,124.579 315.000,125.000" stroke-width="4.665" stroke="black" fill="none" stroke-linecap="round"></path><path d="M 315.000,125.000 C 320.949,123.378 317.009,124.330 327.000,123.000" stroke-width="4.262" stroke="black" fill="none" stroke-linecap="round"></path><path d="M 327.000,123.000 C 337.007,123.256 336.949,122.378 347.000,123.000" stroke-width="2.930" stroke="black" fill="none" stroke-linecap="round"></path><path d="M 347.000,123.000 C 356.502,122.528 356.507,122.756 366.000,122.000" stroke-width="2.668" stroke="black" fill="none" stroke-linecap="round"></path><path d="M 366.000,122.000 C 374.509,120.625 374.502,121.528 383.000,121.000" stroke-width="2.766" stroke="black" fill="none" stroke-linecap="round"></path><path d="M 383.000,121.000 C 408.505,122.944 408.509,122.125 434.000,125.000" stroke-width="2.348" stroke="black" fill="none" stroke-linecap="round"></path><path d="M 434.000,125.000 C 439.622,124.992 439.505,125.444 445.000,126.000" stroke-width="2.958" stroke="black" fill="none" stroke-linecap="round"></path><path d="M 490.000,68.000 C 488.566,73.519 488.500,73.500 487.000,79.000" stroke-width="4.342" stroke="black" fill="none" stroke-linecap="round"></path><path d="M 487.000,79.000 C 485.500,84.000 485.566,84.019 484.000,89.000" stroke-width="3.640" stroke="black" fill="none" stroke-linecap="round"></path><path d="M 484.000,89.000 C 482.265,93.940 482.500,94.000 481.000,99.000" stroke-width="3.530" stroke="black" fill="none" stroke-linecap="round"></path><path d="M 481.000,99.000 C 479.686,106.044 479.265,105.940 478.000,113.000" stroke-width="3.117" stroke="black" fill="none" stroke-linecap="round"></path><path d="M 478.000,113.000 C 475.798,122.589 475.686,122.544 473.000,132.000" stroke-width="2.677" stroke="black" fill="none" stroke-linecap="round"></path><path d="M 473.000,132.000 C 470.558,141.224 470.298,141.089 467.000,150.000" stroke-width="2.664" stroke="black" fill="none" stroke-linecap="round"></path><path d="M 467.000,150.000 C 462.840,159.692 463.058,159.724 458.000,169.000" stroke-width="2.496" stroke="black" fill="none" stroke-linecap="round"></path><path d="M 458.000,169.000 C 455.717,171.851 456.340,172.192 454.000,175.000" stroke-width="3.326" stroke="black" fill="none" stroke-linecap="round"></path><path d="M 454.000,175.000 C 451.360,181.152 452.717,177.351 452.000,180.000" stroke-width="4.321" stroke="black" fill="none" stroke-linecap="round"></path><path d="M 452.000,180.000 C 455.370,172.930 453.860,176.652 459.000,166.000" stroke-width="3.926" stroke="black" fill="none" stroke-linecap="round"></path><path d="M 459.000,166.000 C 460.199,161.801 460.870,162.430 463.000,159.000" stroke-width="3.848" stroke="black" fill="none" stroke-linecap="round"></path><path d="M 463.000,159.000 C 469.542,154.054 468.699,153.301 476.000,149.000" stroke-width="3.101" stroke="black" fill="none" stroke-linecap="round"></path><path d="M 476.000,149.000 C 480.349,143.898 481.042,145.054 486.000,141.000" stroke-width="3.117" stroke="black" fill="none" stroke-linecap="round"></path><path d="M 486.000,141.000 C 500.170,133.340 499.849,133.898 515.000,129.000" stroke-width="2.980" stroke="black" fill="none" stroke-linecap="round"></path><path d="M 515.000,129.000 C 521.133,128.310 520.670,127.340 527.000,129.000" stroke-width="3.195" stroke="black" fill="none" stroke-linecap="round"></path><path d="M 527.000,129.000 C 530.076,129.290 529.633,129.310 532.000,131.000" stroke-width="3.843" stroke="black" fill="none" stroke-linecap="round"></path><path d="M 532.000,131.000 C 536.157,133.711 534.576,133.290 536.000,137.000" stroke-width="4.369" stroke="black" fill="none" stroke-linecap="round"></path><path d="M 536.000,137.000 C 533.980,144.715 535.657,144.211 531.000,152.000" stroke-width="3.984" stroke="black" fill="none" stroke-linecap="round"></path><path d="M 531.000,152.000 C 529.135,155.584 529.480,155.715 527.000,159.000" stroke-width="3.865" stroke="black" fill="none" stroke-linecap="round"></path><path d="M 527.000,159.000 C 523.524,163.267 524.135,163.584 521.000,168.000" stroke-width="3.494" stroke="black" fill="none" stroke-linecap="round"></path><path d="M 649.000,135.000 C 645.979,135.248 646.000,135.000 643.000,135.000" stroke-width="5.065" stroke="black" fill="none" stroke-linecap="round"></path><path d="M 643.000,135.000 C 640.000,134.500 639.979,134.748 637.000,134.000" stroke-width="4.329" stroke="black" fill="none" stroke-linecap="round"></path><path d="M 637.000,134.000 C 630.874,133.469 631.000,133.000 625.000,132.000" stroke-width="3.468" stroke="black" fill="none" stroke-linecap="round"></path><path d="M 625.000,132.000 C 620.808,130.904 620.874,130.969 617.000,129.000" stroke-width="3.656" stroke="black" fill="none" stroke-linecap="round"></path><path d="M 617.000,129.000 C 611.069,125.372 610.808,125.904 605.000,122.000" stroke-width="3.245" stroke="black" fill="none" stroke-linecap="round"></path><path d="M 605.000,122.000 C 602.193,119.684 602.069,120.372 599.000,119.000" stroke-width="4.115" stroke="black" fill="none" stroke-linecap="round"></path><path d="M 599.000,119.000 C 594.435,117.497 595.193,118.184 591.000,119.000" stroke-width="4.395" stroke="black" fill="none" stroke-linecap="round"></path><path d="M 591.000,119.000 C 586.049,121.842 586.435,120.997 583.000,126.000" stroke-width="4.296" stroke="black" fill="none" stroke-linecap="round"></path><path d="M 583.000,126.000 C 581.033,129.870 580.549,129.342 580.000,134.000" stroke-width="3.894" stroke="black" fill="none" stroke-linecap="round"></path><path d="M 580.000,134.000 C 578.040,141.942 578.033,141.870 577.000,150.000" stroke-width="3.119" stroke="black" fill="none" stroke-linecap="round"></path><path d="M 577.000,150.000 C 573.228,162.228 576.040,157.442 576.000,165.000" stroke-width="2.962" stroke="black" fill="none" stroke-linecap="round"></path><path d="M 576.000,165.000 C 582.032,163.312 578.228,167.228 587.000,160.000" stroke-width="4.019" stroke="black" fill="none" stroke-linecap="round"></path><path d="M 587.000,160.000 C 591.613,154.982 592.532,156.312 597.000,151.000" stroke-width="3.292" stroke="black" fill="none" stroke-linecap="round"></path><path d="M 597.000,151.000 C 603.243,146.504 603.113,146.482 610.000,143.000" stroke-width="3.055" stroke="black" fill="none" stroke-linecap="round"></path><path d="M 610.000,143.000 C 617.138,140.282 616.743,139.504 624.000,137.000" stroke-width="2.993" stroke="black" fill="none" stroke-linecap="round"></path><path d="M 624.000,137.000 C 628.589,134.646 628.638,134.782 633.000,132.000" stroke-width="3.281" stroke="black" fill="none" stroke-linecap="round"></path><path d="M 633.000,132.000 C 635.734,128.467 636.089,130.146 639.000,128.000" stroke-width="3.677" stroke="black" fill="none" stroke-linecap="round"></path><path d="M 639.000,128.000 C 644.412,127.240 642.734,127.467 647.000,130.000" stroke-width="4.647" stroke="black" fill="none" stroke-linecap="round"></path><path d="M 647.000,130.000 C 651.757,136.597 651.912,135.240 654.000,144.000" stroke-width="3.218" stroke="black" fill="none" stroke-linecap="round"></path><path d="M 654.000,144.000 C 655.900,153.469 656.757,153.097 657.000,163.000" stroke-width="2.723" stroke="black" fill="none" stroke-linecap="round"></path><path d="M 657.000,163.000 C 657.000,166.500 657.400,166.469 657.000,170.000" stroke-width="3.459" stroke="black" fill="none" stroke-linecap="round"></path><path d="M 657.000,170.000 C 655.638,173.729 657.000,173.000 657.000,176.000" stroke-width="4.423" stroke="black" fill="none" stroke-linecap="round"></path><path d="M 657.000,176.000 C 659.778,178.536 658.638,178.729 663.000,180.000" stroke-width="4.765" stroke="black" fill="none" stroke-linecap="round"></path><path d="M 702.000,148.000 C 702.380,151.023 702.500,151.000 703.000,154.000" stroke-width="5.381" stroke="black" fill="none" stroke-linecap="round"></path><path d="M 703.000,154.000 C 705.132,162.973 704.880,163.023 707.000,172.000" stroke-width="3.970" stroke="black" fill="none" stroke-linecap="round"></path><path d="M 707.000,172.000 C 708.349,177.469 708.132,177.473 709.000,183.000" stroke-width="3.548" stroke="black" fill="none" stroke-linecap="round"></path><path d="M 709.000,183.000 C 709.000,189.750 709.349,185.969 709.000,189.000" stroke-width="4.304" stroke="black" fill="none" stroke-linecap="round"></path><path d="M 709.000,189.000 C 709.208,183.993 709.000,187.750 709.000,179.000" stroke-width="3.678" stroke="black" fill="none" stroke-linecap="round"></path><path d="M 709.000,179.000 C 707.829,171.999 708.708,171.993 708.000,165.000" stroke-width="3.239" stroke="black" fill="none" stroke-linecap="round"></path><path d="M 708.000,165.000 C 707.384,151.082 708.329,151.499 710.000,138.000" stroke-width="2.338" stroke="black" fill="none" stroke-linecap="round"></path><path d="M 710.000,138.000 C 711.331,130.093 711.384,131.082 716.000,125.000" stroke-width="2.797" stroke="black" fill="none" stroke-linecap="round"></path><path d="M 716.000,125.000 C 723.963,119.445 722.331,118.093 732.000,114.000" stroke-width="2.675" stroke="black" fill="none" stroke-linecap="round"></path><path d="M 732.000,114.000 C 739.621,109.165 739.463,108.945 747.000,104.000" stroke-width="3.030" stroke="black" fill="none" stroke-linecap="round"></path><path d="M 747.000,104.000 C 749.217,101.392 749.621,102.165 752.000,100.000" stroke-width="3.699" stroke="black" fill="none" stroke-linecap="round"></path><path d="M 752.000,100.000 C 754.470,99.195 754.217,98.892 757.000,99.000" stroke-width="4.117" stroke="black" fill="none" stroke-linecap="round"></path><path d="M 757.000,99.000 C 761.565,97.497 760.970,98.695 765.000,99.000" stroke-width="3.853" stroke="black" fill="none" stroke-linecap="round"></path><path d="M 765.000,99.000 C 769.251,102.251 769.565,100.997 773.000,106.000" stroke-width="3.570" stroke="black" fill="none" stroke-linecap="round"></path><path d="M 773.000,106.000 C 777.180,108.841 776.251,109.251 779.000,113.000" stroke-width="3.624" stroke="black" fill="none" stroke-linecap="round"></path><path d="M 779.000,113.000 C 784.601,125.318 784.180,124.841 787.000,138.000" stroke-width="2.504" stroke="black" fill="none" stroke-linecap="round"></path><path d="M 787.000,138.000 C 786.935,144.079 788.101,143.818 786.000,150.000" stroke-width="3.008" stroke="black" fill="none" stroke-linecap="round"></path><path d="M 786.000,150.000 C 785.150,153.551 785.435,153.579 784.000,157.000" stroke-width="3.561" stroke="black" fill="none" stroke-linecap="round"></path><path d="M 784.000,157.000 C 783.553,159.865 783.150,159.551 782.000,162.000" stroke-width="3.991" stroke="black" fill="none" stroke-linecap="round"></path><path d="M 782.000,162.000 C 778.292,164.562 779.553,165.365 776.000,168.000" stroke-width="4.522" stroke="black" fill="none" stroke-linecap="round"></path><path d="M 776.000,168.000 C 774.000,171.029 774.292,170.562 774.000,174.000" stroke-width="4.856" stroke="black" fill="none" stroke-linecap="round"></path><path d="M 774.000,174.000 C 775.080,176.471 774.000,176.529 776.000,179.000" stroke-width="5.326" stroke="black" fill="none" stroke-linecap="round"></path><path d="M 776.000,179.000 C 777.235,181.942 777.080,181.971 778.000,185.000" stroke-width="4.454" stroke="black" fill="none" stroke-linecap="round"></path><path d="M 841.000,43.000 C 840.500,46.500 840.500,46.500 840.000,50.000" stroke-width="5.118" stroke="black" fill="none" stroke-linecap="round"></path><path d="M 840.000,50.000 C 839.438,53.492 839.500,53.500 839.000,57.000" stroke-width="4.201" stroke="black" fill="none" stroke-linecap="round"></path><path d="M 839.000,57.000 C 838.977,61.605 838.438,61.492 838.000,66.000" stroke-width="3.815" stroke="black" fill="none" stroke-linecap="round"></path><path d="M 838.000,66.000 C 836.621,70.543 836.977,70.605 835.000,75.000" stroke-width="3.612" stroke="black" fill="none" stroke-linecap="round"></path><path d="M 835.000,75.000 C 828.867,92.652 828.621,92.543 822.000,110.000" stroke-width="2.080" stroke="black" fill="none" stroke-linecap="round"></path><path d="M 822.000,110.000 C 818.716,116.380 819.367,116.652 816.000,123.000" stroke-width="2.631" stroke="black" fill="none" stroke-linecap="round"></path><path d="M 816.000,123.000 C 811.048,136.019 810.716,135.880 806.000,149.000" stroke-width="2.261" stroke="black" fill="none" stroke-linecap="round"></path><path d="M 806.000,149.000 C 803.768,153.918 804.048,154.019 802.000,159.000" stroke-width="2.976" stroke="black" fill="none" stroke-linecap="round"></path><path d="M 802.000,159.000 C 799.727,165.436 799.768,165.418 798.000,172.000" stroke-width="3.414" stroke="black" fill="none" stroke-linecap="round"></path><path d="M 798.000,172.000 C 797.252,174.979 797.227,174.936 797.000,178.000" stroke-width="3.851" stroke="black" fill="none" stroke-linecap="round"></path><path d="M 803.000,140.000 C 806.449,138.366 806.500,138.500 810.000,137.000" stroke-width="5.186" stroke="black" fill="none" stroke-linecap="round"></path><path d="M 810.000,137.000 C 812.969,135.898 812.949,135.866 816.000,135.000" stroke-width="4.320" stroke="black" fill="none" stroke-linecap="round"></path><path d="M 816.000,135.000 C 826.524,132.081 826.469,131.898 837.000,129.000" stroke-width="2.827" stroke="black" fill="none" stroke-linecap="round"></path><path d="M 837.000,129.000 C 843.423,126.705 843.524,127.081 850.000,125.000" stroke-width="2.973" stroke="black" fill="none" stroke-linecap="round"></path><path d="M 850.000,125.000 C 857.041,123.670 856.923,123.205 864.000,122.000" stroke-width="2.970" stroke="black" fill="none" stroke-linecap="round"></path><path d="M 864.000,122.000 C 869.472,120.382 869.541,120.670 875.000,119.000" stroke-width="3.183" stroke="black" fill="none" stroke-linecap="round"></path><path d="M 818.000,139.000 C 820.395,145.046 820.500,145.000 823.000,151.000" stroke-width="5.009" stroke="black" fill="none" stroke-linecap="round"></path><path d="M 823.000,151.000 C 827.227,161.136 827.395,161.046 832.000,171.000" stroke-width="2.818" stroke="black" fill="none" stroke-linecap="round"></path><path d="M 832.000,171.000 C 834.579,176.768 834.727,176.636 838.000,182.000" stroke-width="3.045" stroke="black" fill="none" stroke-linecap="round"></path><path d="M 838.000,182.000 C 843.775,189.317 843.079,189.768 849.000,197.000" stroke-width="2.720" stroke="black" fill="none" stroke-linecap="round"></path><path d="M 849.000,197.000 C 852.264,201.869 852.275,201.817 855.000,207.000" stroke-width="3.073" stroke="black" fill="none" stroke-linecap="round"></path><path d="M 855.000,207.000 C 855.537,209.805 856.264,209.369 857.000,212.000" stroke-width="3.856" stroke="black" fill="none" stroke-linecap="round"></path><path d="M 983.000,127.000 C 978.801,127.435 979.000,128.000 975.000,129.000" stroke-width="5.185" stroke="black" fill="none" stroke-linecap="round"></path><path d="M 975.000,129.000 C 962.021,135.047 961.801,134.435 949.000,141.000" stroke-width="2.469" stroke="black" fill="none" stroke-linecap="round"></path><path d="M 949.000,141.000 C 944.341,142.702 944.521,143.047 940.000,145.000" stroke-width="3.100" stroke="black" fill="none" stroke-linecap="round"></path><path d="M 940.000,145.000 C 936.198,147.901 935.841,147.202 932.000,150.000" stroke-width="3.491" stroke="black" fill="none" stroke-linecap="round"></path><path d="M 932.000,150.000 C 923.421,150.878 928.198,151.901 924.000,153.000" stroke-width="3.555" stroke="black" fill="none" stroke-linecap="round"></path><path d="M 924.000,153.000 C 928.821,158.528 924.921,156.378 935.000,161.000" stroke-width="4.363" stroke="black" fill="none" stroke-linecap="round"></path><path d="M 935.000,161.000 C 944.606,162.651 943.821,164.528 954.000,165.000" stroke-width="2.905" stroke="black" fill="none" stroke-linecap="round"></path><path d="M 954.000,165.000 C 957.006,165.272 956.606,165.651 959.000,167.000" stroke-width="3.743" stroke="black" fill="none" stroke-linecap="round"></path><path d="M 959.000,167.000 C 964.702,172.049 964.506,171.772 969.000,178.000" stroke-width="3.811" stroke="black" fill="none" stroke-linecap="round"></path><path d="M 969.000,178.000 C 972.312,181.407 971.202,181.049 972.000,185.000" stroke-width="3.811" stroke="black" fill="none" stroke-linecap="round"></path><path d="M 972.000,185.000 C 972.161,195.166 971.312,192.907 967.000,201.000" stroke-width="3.754" stroke="black" fill="none" stroke-linecap="round"></path><path d="M 967.000,201.000 C 958.511,207.542 960.661,208.166 949.000,211.000" stroke-width="2.816" stroke="black" fill="none" stroke-linecap="round"></path><path d="M 949.000,211.000 C 941.529,212.442 942.011,213.542 934.000,213.000" stroke-width="2.926" stroke="black" fill="none" stroke-linecap="round"></path><path d="M 934.000,213.000 C 927.991,213.240 928.029,213.442 922.000,213.000" stroke-width="3.122" stroke="black" fill="none" stroke-linecap="round"></path></svg>