<svg xmlns="http://www.w3.org/2000/svg" xmlns:xlink="http://www.w3.org/1999/xlink" viewBox="0 0 1460 576" width="1460" height="576"><path d="M 846.000,402.000 C 841.712,400.872 842.500,400.000 839.000,398.000" stroke-width="5.169" stroke="black" fill="none" stroke-linecap="round"></path><path d="M 839.000,398.000 C 831.610,392.066 833.212,391.872 829.000,384.000" stroke-width="3.242" stroke="black" fill="none" stroke-linecap="round"></path><path d="M 829.000,384.000 C 820.833,357.311 820.610,358.066 817.000,330.000" stroke-width="1.480" stroke="black" fill="none" stroke-linecap="round"></path><path d="M 817.000,330.000 C 812.672,299.891 812.833,300.311 813.000,270.000" stroke-width="1.258" stroke="black" fill="none" stroke-linecap="round"></path><path d="M 813.000,270.000 C 814.704,254.243 813.172,254.391 818.000,239.000" stroke-width="1.687" stroke="black" fill="none" stroke-linecap="round"></path><path d="M 818.000,239.000 C 818.082,234.459 818.704,235.743 821.000,233.000" stroke-width="2.821" stroke="black" fill="none" stroke-linecap="round"></path><path d="M 821.000,233.000 C 843.060,222.030 842.082,222.459 866.000,215.000" stroke-width="2.202" stroke="black" fill="none" stroke-linecap="round"></path><path d="M 866.000,215.000 C 874.513,214.000 874.060,212.530 883.000,214.000" stroke-width="2.595" stroke="black" fill="none" stroke-linecap="round"></path><path d="M 883.000,214.000 C 890.073,211.468 887.513,214.000 892.000,215.000" stroke-width="3.221" stroke="black" fill="none" stroke-linecap="round"></path><path d="M 892.000,215.000 C 905.987,232.168 899.073,227.968 901.000,247.000" stroke-width="2.948" stroke="black" fill="none" stroke-linecap="round"></path><path d="M 901.000,247.000 C 880.833,292.404 886.487,290.168 853.000,331.000" stroke-width="1.125" stroke="black" fill="none" stroke-linecap="round"></path><path d="M 853.000,331.000 C 840.273,342.177 843.333,344.404 826.000,351.000" stroke-width="1.501" stroke="black" fill="none" stroke-linecap="round"></path><path d="M 826.000,351.000 C 785.551,382.995 785.273,376.177 743.000,399.000" stroke-width="1.125" stroke="black" fill="none" stroke-linecap="round"></path><path d="M 743.000,399.000 C 729.360,396.944 731.051,403.495 717.000,392.000" stroke-width="1.619" stroke="black" fill="none" stroke-linecap="round"></path><path d="M 717.000,392.000 C 706.661,390.078 709.360,388.944 703.000,383.000" stroke-width="2.277" stroke="black" fill="none" stroke-linecap="round"></path><path d="M 703.000,383.000 C 691.022,358.134 691.661,361.078 687.000,334.000" stroke-width="1.578" stroke="black" fill="none" stroke-linecap="round"></path><path d="M 687.000,334.000 C 688.076,326.712 686.022,328.134 693.000,323.000" stroke-width="2.462" stroke="black" fill="none" stroke-linecap="round"></path><path d="M 693.000,323.000 C 719.563,297.141 720.576,302.212 752.000,285.000" stroke-width="1.316" stroke="black" fill="none" stroke-linecap="round"></path><path d="M 752.000,285.000 C 811.562,266.819 809.063,263.641 872.000,256.000" stroke-width="1.125" stroke="black" fill="none" stroke-linecap="round"></path><path d="M 872.000,256.000 C 893.018,255.604 892.562,252.319 914.000,256.000" stroke-width="1.236" stroke="black" fill="none" stroke-linecap="round"></path><path d="M 914.000,256.000 C 920.645,254.822 919.518,256.104 925.000,257.000" stroke-width="2.233" stroke="black" fill="none" stroke-linecap="round"></path><path d="M 925.000,257.000 C 930.499,261.266 927.645,258.322 928.000,263.000" stroke-width="3.489" stroke="black" fill="none" stroke-linecap="round"></path><path d="M 928.000,263.000 C 903.734,282.559 905.999,278.266 876.000,291.000" stroke-width="1.616" stroke="black" fill="none" stroke-linecap="round"></path><path d="M 876.000,291.000 C 844.475,296.519 846.234,300.059 813.000,298.000" stroke-width="1.292" stroke="black" fill="none" stroke-linecap="round"></path><path d="M 813.000,298.000 C 800.326,300.139 801.975,298.519 791.000,295.000" stroke-width="1.889" stroke="black" fill="none" stroke-linecap="round"></path><path d="M 791.000,295.000 C 775.603,284.485 775.826,286.639 764.000,271.000" stroke-width="1.826" stroke="black" fill="none" stroke-linecap="round"></path><path d="M 764.000,271.000 C 755.690,261.463 757.103,262.985 754.000,252.000" stroke-width="2.194" stroke="black" fill="none" stroke-linecap="round"></path><path d="M 754.000,252.000 C 754.161,243.054 753.190,247.463 759.000,243.000" stroke-width="2.971" stroke="black" fill="none" stroke-linecap="round"></path><path d="M 759.000,243.000 C 801.618,244.730 798.661,242.554 843.000,251.000" stroke-width="1.807" stroke="black" fill="none" stroke-linecap="round"></path><path d="M 843.000,251.000 C 852.016,252.764 851.118,252.230 858.000,258.000" stroke-width="2.469" stroke="black" fill="none" stroke-linecap="round"></path></svg>