<svg xmlns="http://www.w3.org/2000/svg" xmlns:xlink="http://www.w3.org/1999/xlink" viewBox="0 0 1460 576" width="1460" height="576"><path d="M 804.000,292.000 C 798.025,290.390 798.000,290.500 792.000,289.000" stroke-width="4.835" stroke="black" fill="none" stroke-linecap="round"></path><path d="M 792.000,289.000 C 785.096,286.852 785.025,287.390 778.000,286.000" stroke-width="3.433" stroke="black" fill="none" stroke-linecap="round"></path><path d="M 778.000,286.000 C 759.998,284.525 760.096,283.852 742.000,283.000" stroke-width="2.029" stroke="black" fill="none" stroke-linecap="round"></path><path d="M 742.000,283.000 C 730.475,282.241 730.498,282.025 719.000,281.000" stroke-width="2.213" stroke="black" fill="none" stroke-linecap="round"></path><path d="M 719.000,281.000 C 693.166,279.804 693.475,278.241 668.000,275.000" stroke-width="1.573" stroke="black" fill="none" stroke-linecap="round"></path><path d="M 668.000,275.000 C 638.863,265.430 638.166,269.304 609.000,260.000" stroke-width="1.268" stroke="black" fill="none" stroke-linecap="round"></path><path d="M 609.000,260.000 C 583.529,256.399 583.863,255.430 558.000,255.000" stroke-width="1.804" stroke="black" fill="none" stroke-linecap="round"></path><path d="M 558.000,255.000 C 547.003,255.645 547.029,254.399 536.000,256.000" stroke-width="2.257" stroke="black" fill="none" stroke-linecap="round"></path><path d="M 536.000,256.000 C 531.500,256.000 531.503,256.145 527.000,256.000" stroke-width="3.012" stroke="black" fill="none" stroke-linecap="round"></path><path d="M 527.000,256.000 C 524.000,256.000 524.000,256.000 521.000,256.000" stroke-width="3.766" stroke="black" fill="none" stroke-linecap="round"></path></svg>