<svg xmlns="http://www.w3.org/2000/svg" xmlns:xlink="http://www.w3.org/1999/xlink" viewBox="0 0 492 236" width="492" height="236"><path d="M 36.000,121.000 C 39.949,121.197 39.000,120.000 42.000,119.000" stroke-width="5.445" stroke="black" fill="none" stroke-linecap="round"></path><path d="M 42.000,119.000 C 46.217,112.621 46.949,113.697 50.000,106.000" stroke-width="4.643" stroke="black" fill="none" stroke-linecap="round"></path><path d="M 50.000,106.000 C 52.110,102.051 52.217,102.121 54.000,98.000" stroke-width="3.929" stroke="black" fill="none" stroke-linecap="round"></path><path d="M 54.000,98.000 C 55.122,94.287 55.610,94.551 57.000,91.000" stroke-width="3.846" stroke="black" fill="none" stroke-linecap="round"></path><path d="M 57.000,91.000 C 59.615,87.577 59.122,87.287 62.000,84.000" stroke-width="3.712" stroke="black" fill="none" stroke-linecap="round"></path><path d="M 62.000,84.000 C 64.385,79.923 64.615,80.077 67.000,76.000" stroke-width="3.645" stroke="black" fill="none" stroke-linecap="round"></path><path d="M 67.000,76.000 C 69.677,72.613 69.385,72.423 72.000,69.000" stroke-width="3.596" stroke="black" fill="none" stroke-linecap="round"></path><path d="M 72.000,69.000 C 73.889,65.431 74.177,65.613 76.000,62.000" stroke-width="3.747" stroke="black" fill="none" stroke-linecap="round"></path><path d="M 76.000,62.000 C 78.111,59.069 77.889,58.931 80.000,56.000" stroke-width="3.887" stroke="black" fill="none" stroke-linecap="round"></path><path d="M 80.000,56.000 C 81.889,52.431 82.111,52.569 84.000,49.000" stroke-width="3.783" stroke="black" fill="none" stroke-linecap="round"></path><path d="M 84.000,49.000 C 86.187,46.108 85.889,45.931 88.000,43.000" stroke-width="4.057" stroke="black" fill="none" stroke-linecap="round"></path><path d="M 88.000,43.000 C 89.500,40.000 89.687,40.108 91.000,37.000" stroke-width="3.991" stroke="black" fill="none" stroke-linecap="round"></path><path d="M 91.000,37.000 C 92.681,34.079 92.500,34.000 94.000,31.000" stroke-width="4.021" stroke="black" fill="none" stroke-linecap="round"></path><path d="M 94.000,31.000 C 95.747,27.071 95.681,27.079 97.000,23.000" stroke-width="4.358" stroke="black" fill="none" stroke-linecap="round"></path><path d="M 97.000,23.000 C 98.191,17.427 97.747,20.571 98.000,18.000" stroke-width="4.887" stroke="black" fill="none" stroke-linecap="round"></path><path d="M 98.000,18.000 C 97.062,22.017 97.691,18.927 96.000,26.000" stroke-width="5.102" stroke="black" fill="none" stroke-linecap="round"></path><path d="M 96.000,26.000 C 95.301,29.617 95.062,29.517 94.000,33.000" stroke-width="4.281" stroke="black" fill="none" stroke-linecap="round"></path><path d="M 94.000,33.000 C 92.174,35.871 92.801,36.117 91.000,39.000" stroke-width="4.054" stroke="black" fill="none" stroke-linecap="round"></path><path d="M 91.000,39.000 C 89.155,43.920 89.174,43.871 88.000,49.000" stroke-width="3.695" stroke="black" fill="none" stroke-linecap="round"></path><path d="M 88.000,49.000 C 86.925,54.988 86.655,54.920 86.000,61.000" stroke-width="3.601" stroke="black" fill="none" stroke-linecap="round"></path><path d="M 86.000,61.000 C 85.117,68.019 84.925,67.988 84.000,75.000" stroke-width="3.147" stroke="black" fill="none" stroke-linecap="round"></path><path d="M 84.000,75.000 C 82.482,80.453 83.117,80.519 82.000,86.000" stroke-width="3.315" stroke="black" fill="none" stroke-linecap="round"></path><path d="M 82.000,86.000 C 82.000,92.000 81.482,91.953 82.000,98.000" stroke-width="3.244" stroke="black" fill="none" stroke-linecap="round"></path><path d="M 82.000,98.000 C 82.000,103.500 82.000,103.500 82.000,109.000" stroke-width="3.362" stroke="black" fill="none" stroke-linecap="round"></path><path d="M 82.000,109.000 C 82.000,113.000 82.000,113.000 82.000,117.000" stroke-width="3.624" stroke="black" fill="none" stroke-linecap="round"></path><path d="M 82.000,117.000 C 81.695,121.030 82.000,121.000 82.000,125.000" stroke-width="3.711" stroke="black" fill="none" stroke-linecap="round"></path><path d="M 82.000,125.000 C 81.815,127.867 82.195,127.530 83.000,130.000" stroke-width="4.158" stroke="black" fill="none" stroke-linecap="round"></path><path d="M 83.000,130.000 C 84.802,132.242 84.315,132.367 87.000,134.000" stroke-width="4.201" stroke="black" fill="none" stroke-linecap="round"></path><path d="M 87.000,134.000 C 89.804,136.402 89.802,136.242 93.000,138.000" stroke-width="4.022" stroke="black" fill="none" stroke-linecap="round"></path><path d="M 93.000,138.000 C 96.051,138.866 95.804,139.402 99.000,140.000" stroke-width="4.076" stroke="black" fill="none" stroke-linecap="round"></path><path d="M 99.000,140.000 C 102.415,141.735 102.551,141.366 106.000,143.000" stroke-width="3.940" stroke="black" fill="none" stroke-linecap="round"></path><path d="M 106.000,143.000 C 110.905,144.981 110.915,144.735 116.000,146.000" stroke-width="3.549" stroke="black" fill="none" stroke-linecap="round"></path><path d="M 116.000,146.000 C 120.989,146.722 120.905,146.981 126.000,147.000" stroke-width="3.539" stroke="black" fill="none" stroke-linecap="round"></path><path d="M 126.000,147.000 C 130.000,147.000 129.989,147.222 134.000,147.000" stroke-width="3.684" stroke="black" fill="none" stroke-linecap="round"></path><path d="M 134.000,147.000 C 137.500,147.000 137.500,147.000 141.000,147.000" stroke-width="3.889" stroke="black" fill="none" stroke-linecap="round"></path><path d="M 141.000,147.000 C 144.393,148.086 144.000,147.000 147.000,147.000" stroke-width="3.978" stroke="black" fill="none" stroke-linecap="round"></path><path d="M 117.000,91.000 C 112.011,90.358 112.000,90.500 107.000,90.000" stroke-width="4.661" stroke="black" fill="none" stroke-linecap="round"></path><path d="M 107.000,90.000 C 98.005,89.311 98.011,89.358 89.000,89.000" stroke-width="3.190" stroke="black" fill="none" stroke-linecap="round"></path><path d="M 89.000,89.000 C 83.500,89.000 83.505,88.811 78.000,89.000" stroke-width="3.395" stroke="black" fill="none" stroke-linecap="round"></path><path d="M 78.000,89.000 C 70.989,88.731 71.000,89.000 64.000,89.000" stroke-width="3.172" stroke="black" fill="none" stroke-linecap="round"></path><path d="M 64.000,89.000 C 57.998,89.478 57.989,89.231 52.000,90.000" stroke-width="3.198" stroke="black" fill="none" stroke-linecap="round"></path><path d="M 52.000,90.000 C 46.467,90.255 46.498,90.478 41.000,91.000" stroke-width="3.343" stroke="black" fill="none" stroke-linecap="round"></path><path d="M 41.000,91.000 C 35.513,92.081 35.467,91.755 30.000,93.000" stroke-width="3.378" stroke="black" fill="none" stroke-linecap="round"></path><path d="M 30.000,93.000 C 26.486,93.419 26.513,93.581 23.000,94.000" stroke-width="3.728" stroke="black" fill="none" stroke-linecap="round"></path><path d="M 135.000,26.000 C 133.590,22.576 133.000,24.000 131.000,22.000" stroke-width="5.006" stroke="black" fill="none" stroke-linecap="round"></path><path d="M 131.000,22.000 C 123.775,20.527 124.590,20.576 117.000,22.000" stroke-width="3.486" stroke="black" fill="none" stroke-linecap="round"></path><path d="M 117.000,22.000 C 100.469,25.753 100.775,25.527 85.000,32.000" stroke-width="3.001" stroke="black" fill="none" stroke-linecap="round"></path><path d="M 85.000,32.000 C 74.874,37.283 74.469,36.253 65.000,43.000" stroke-width="2.554" stroke="black" fill="none" stroke-linecap="round"></path><path d="M 65.000,43.000 C 55.618,47.967 55.874,48.283 47.000,54.000" stroke-width="2.463" stroke="black" fill="none" stroke-linecap="round"></path><path d="M 47.000,54.000 C 40.631,58.614 40.618,58.467 35.000,64.000" stroke-width="2.719" stroke="black" fill="none" stroke-linecap="round"></path><path d="M 35.000,64.000 C 28.856,69.525 29.131,69.614 24.000,76.000" stroke-width="3.377" stroke="black" fill="none" stroke-linecap="round"></path><path d="M 24.000,76.000 C 19.551,81.624 19.856,81.525 17.000,88.000" stroke-width="3.175" stroke="black" fill="none" stroke-linecap="round"></path><path d="M 17.000,88.000 C 14.732,94.413 14.551,94.124 14.000,101.000" stroke-width="3.099" stroke="black" fill="none" stroke-linecap="round"></path><path d="M 14.000,101.000 C 13.082,108.113 13.232,107.913 14.000,115.000" stroke-width="3.144" stroke="black" fill="none" stroke-linecap="round"></path><path d="M 14.000,115.000 C 13.629,124.275 15.082,123.113 18.000,131.000" stroke-width="2.936" stroke="black" fill="none" stroke-linecap="round"></path><path d="M 18.000,131.000 C 27.846,144.489 26.629,144.275 40.000,155.000" stroke-width="2.151" stroke="black" fill="none" stroke-linecap="round"></path><path d="M 40.000,155.000 C 47.011,160.579 46.346,160.489 55.000,163.000" stroke-width="2.575" stroke="black" fill="none" stroke-linecap="round"></path><path d="M 55.000,163.000 C 63.971,164.525 63.511,165.579 73.000,165.000" stroke-width="2.619" stroke="black" fill="none" stroke-linecap="round"></path><path d="M 73.000,165.000 C 83.461,167.062 82.971,165.525 93.000,165.000" stroke-width="2.752" stroke="black" fill="none" stroke-linecap="round"></path><path d="M 93.000,165.000 C 102.008,161.844 101.961,163.062 110.000,157.000" stroke-width="2.695" stroke="black" fill="none" stroke-linecap="round"></path><path d="M 110.000,157.000 C 118.596,151.664 118.508,151.844 126.000,145.000" stroke-width="2.556" stroke="black" fill="none" stroke-linecap="round"></path><path d="M 126.000,145.000 C 133.749,138.075 133.596,138.164 140.000,130.000" stroke-width="2.551" stroke="black" fill="none" stroke-linecap="round"></path><path d="M 140.000,130.000 C 146.326,122.573 145.749,122.575 150.000,114.000" stroke-width="2.630" stroke="black" fill="none" stroke-linecap="round"></path><path d="M 150.000,114.000 C 153.270,104.639 153.826,105.073 155.000,95.000" stroke-width="2.556" stroke="black" fill="none" stroke-linecap="round"></path><path d="M 155.000,95.000 C 156.523,85.026 156.770,85.139 157.000,75.000" stroke-width="2.512" stroke="black" fill="none" stroke-linecap="round"></path><path d="M 157.000,75.000 C 158.997,63.557 157.523,64.026 157.000,53.000" stroke-width="2.525" stroke="black" fill="none" stroke-linecap="round"></path><path d="M 157.000,53.000 C 154.538,44.806 155.497,45.057 150.000,38.000" stroke-width="2.688" stroke="black" fill="none" stroke-linecap="round"></path><path d="M 150.000,38.000 C 145.595,30.312 145.538,31.306 139.000,26.000" stroke-width="2.815" stroke="black" fill="none" stroke-linecap="round"></path><path d="M 139.000,26.000 C 131.721,21.882 132.595,21.812 124.000,21.000" stroke-width="2.825" stroke="black" fill="none" stroke-linecap="round"></path><path d="M 124.000,21.000 C 112.951,18.557 114.221,19.882 104.000,22.000" stroke-width="2.651" stroke="black" fill="none" stroke-linecap="round"></path><path d="M 104.000,22.000 C 93.934,28.342 93.451,26.057 85.000,36.000" stroke-width="2.374" stroke="black" fill="none" stroke-linecap="round"></path><path d="M 85.000,36.000 C 76.691,43.718 76.434,43.342 69.000,52.000" stroke-width="2.343" stroke="black" fill="none" stroke-linecap="round"></path><path d="M 133.000,113.000 C 137.920,110.953 138.000,111.500 143.000,110.000" stroke-width="4.882" stroke="black" fill="none" stroke-linecap="round"></path><path d="M 143.000,110.000 C 146.125,110.719 145.920,109.453 149.000,110.000" stroke-width="4.987" stroke="black" fill="none" stroke-linecap="round"></path><path d="M 149.000,110.000 C 156.083,107.707 156.125,108.219 163.000,105.000" stroke-width="3.546" stroke="black" fill="none" stroke-linecap="round"></path><path d="M 163.000,105.000 C 167.489,102.974 167.583,103.207 172.000,101.000" stroke-width="3.557" stroke="black" fill="none" stroke-linecap="round"></path><path d="M 172.000,101.000 C 175.485,99.464 175.489,99.474 179.000,98.000" stroke-width="3.825" stroke="black" fill="none" stroke-linecap="round"></path><path d="M 179.000,98.000 C 184.352,95.119 181.485,96.964 184.000,96.000" stroke-width="4.086" stroke="black" fill="none" stroke-linecap="round"></path><path d="M 184.000,96.000 C 180.609,99.616 183.352,97.619 177.000,103.000" stroke-width="4.612" stroke="black" fill="none" stroke-linecap="round"></path><path d="M 177.000,103.000 C 172.410,106.905 172.609,107.116 168.000,111.000" stroke-width="3.602" stroke="black" fill="none" stroke-linecap="round"></path><path d="M 168.000,111.000 C 165.256,113.293 165.410,113.405 163.000,116.000" stroke-width="3.806" stroke="black" fill="none" stroke-linecap="round"></path><path d="M 163.000,116.000 C 157.226,120.935 160.256,119.293 158.000,123.000" stroke-width="4.243" stroke="black" fill="none" stroke-linecap="round"></path><path d="M 158.000,123.000 C 162.292,125.060 158.726,124.935 166.000,124.000" stroke-width="4.433" stroke="black" fill="none" stroke-linecap="round"></path><path d="M 166.000,124.000 C 172.608,120.688 172.792,122.060 179.000,117.000" stroke-width="3.331" stroke="black" fill="none" stroke-linecap="round"></path><path d="M 179.000,117.000 C 185.392,112.812 185.608,113.188 192.000,109.000" stroke-width="3.065" stroke="black" fill="none" stroke-linecap="round"></path><path d="M 192.000,109.000 C 198.461,105.425 198.392,105.312 205.000,102.000" stroke-width="3.083" stroke="black" fill="none" stroke-linecap="round"></path><path d="M 205.000,102.000 C 208.860,99.592 208.961,99.925 213.000,98.000" stroke-width="3.433" stroke="black" fill="none" stroke-linecap="round"></path><path d="M 213.000,98.000 C 218.281,95.594 215.360,97.092 218.000,97.000" stroke-width="4.013" stroke="black" fill="none" stroke-linecap="round"></path><path d="M 218.000,97.000 C 214.455,102.472 217.281,100.594 211.000,108.000" stroke-width="4.461" stroke="black" fill="none" stroke-linecap="round"></path><path d="M 211.000,108.000 C 209.301,110.398 209.455,110.472 208.000,113.000" stroke-width="4.219" stroke="black" fill="none" stroke-linecap="round"></path><path d="M 208.000,113.000 C 204.481,116.889 206.301,116.398 205.000,120.000" stroke-width="4.476" stroke="black" fill="none" stroke-linecap="round"></path><path d="M 205.000,120.000 C 206.893,123.964 205.481,122.889 210.000,125.000" stroke-width="4.601" stroke="black" fill="none" stroke-linecap="round"></path><path d="M 210.000,125.000 C 215.000,125.000 214.393,126.464 220.000,125.000" stroke-width="3.739" stroke="black" fill="none" stroke-linecap="round"></path><path d="M 220.000,125.000 C 226.103,125.769 226.000,125.000 232.000,125.000" stroke-width="3.419" stroke="black" fill="none" stroke-linecap="round"></path><path d="M 232.000,125.000 C 237.446,123.262 237.603,124.269 243.000,122.000" stroke-width="3.382" stroke="black" fill="none" stroke-linecap="round"></path><path d="M 243.000,122.000 C 248.506,121.030 248.446,120.762 254.000,120.000" stroke-width="3.390" stroke="black" fill="none" stroke-linecap="round"></path><path d="M 254.000,120.000 C 258.000,118.000 256.506,119.530 259.000,119.000" stroke-width="3.996" stroke="black" fill="none" stroke-linecap="round"></path><path d="M 259.000,119.000 C 259.424,122.041 260.000,120.000 258.000,124.000" stroke-width="4.782" stroke="black" fill="none" stroke-linecap="round"></path><path d="M 258.000,124.000 C 254.063,126.631 255.424,127.541 251.000,130.000" stroke-width="3.927" stroke="black" fill="none" stroke-linecap="round"></path><path d="M 251.000,130.000 C 249.668,132.617 249.063,132.131 248.000,135.000" stroke-width="4.062" stroke="black" fill="none" stroke-linecap="round"></path><path d="M 248.000,135.000 C 245.509,137.233 246.168,137.617 244.000,140.000" stroke-width="4.122" stroke="black" fill="none" stroke-linecap="round"></path><path d="M 244.000,140.000 C 240.974,144.460 242.509,142.733 242.000,146.000" stroke-width="4.552" stroke="black" fill="none" stroke-linecap="round"></path><path d="M 242.000,146.000 C 245.021,146.248 242.974,147.460 248.000,146.000" stroke-width="4.646" stroke="black" fill="none" stroke-linecap="round"></path><path d="M 248.000,146.000 C 251.205,146.075 251.021,145.748 254.000,145.000" stroke-width="4.231" stroke="black" fill="none" stroke-linecap="round"></path><path d="M 254.000,145.000 C 257.518,143.031 257.705,143.575 261.000,141.000" stroke-width="3.983" stroke="black" fill="none" stroke-linecap="round"></path><path d="M 261.000,141.000 C 263.649,139.710 263.518,139.531 266.000,138.000" stroke-width="4.165" stroke="black" fill="none" stroke-linecap="round"></path><path d="M 266.000,138.000 C 268.880,135.340 269.149,135.710 272.000,133.000" stroke-width="4.490" stroke="black" fill="none" stroke-linecap="round"></path><path d="M 272.000,133.000 C 275.171,131.223 274.880,130.840 278.000,129.000" stroke-width="5.068" stroke="black" fill="none" stroke-linecap="round"></path><path d="M 278.000,129.000 C 281.984,125.481 282.171,125.723 286.000,122.000" stroke-width="3.755" stroke="black" fill="none" stroke-linecap="round"></path><path d="M 286.000,122.000 C 289.500,119.000 289.484,118.981 293.000,116.000" stroke-width="3.679" stroke="black" fill="none" stroke-linecap="round"></path><path d="M 293.000,116.000 C 296.481,112.978 296.500,113.000 300.000,110.000" stroke-width="3.657" stroke="black" fill="none" stroke-linecap="round"></path><path d="M 300.000,110.000 C 304.965,104.482 302.981,107.478 306.000,105.000" stroke-width="4.254" stroke="black" fill="none" stroke-linecap="round"></path><path d="M 306.000,105.000 C 303.498,108.735 306.965,105.482 304.000,112.000" stroke-width="4.848" stroke="black" fill="none" stroke-linecap="round"></path><path d="M 304.000,112.000 C 305.156,116.578 304.498,115.235 308.000,118.000" stroke-width="4.886" stroke="black" fill="none" stroke-linecap="round"></path><path d="M 308.000,118.000 C 312.013,118.235 311.156,119.578 316.000,118.000" stroke-width="4.092" stroke="black" fill="none" stroke-linecap="round"></path><path d="M 316.000,118.000 C 320.689,118.198 320.513,117.735 325.000,117.000" stroke-width="3.729" stroke="black" fill="none" stroke-linecap="round"></path><path d="M 325.000,117.000 C 329.500,115.000 329.689,115.698 334.000,113.000" stroke-width="3.552" stroke="black" fill="none" stroke-linecap="round"></path><path d="M 334.000,113.000 C 338.351,110.550 338.500,111.000 343.000,109.000" stroke-width="3.658" stroke="black" fill="none" stroke-linecap="round"></path><path d="M 343.000,109.000 C 347.530,108.118 347.351,107.550 352.000,107.000" stroke-width="3.650" stroke="black" fill="none" stroke-linecap="round"></path><path d="M 352.000,107.000 C 355.441,105.712 355.530,106.118 359.000,105.000" stroke-width="3.847" stroke="black" fill="none" stroke-linecap="round"></path><path d="M 359.000,105.000 C 362.984,104.251 362.941,104.212 367.000,104.000" stroke-width="3.825" stroke="black" fill="none" stroke-linecap="round"></path><path d="M 367.000,104.000 C 371.000,104.000 370.984,103.751 375.000,104.000" stroke-width="3.772" stroke="black" fill="none" stroke-linecap="round"></path><path d="M 375.000,104.000 C 380.000,104.000 380.000,104.000 385.000,104.000" stroke-width="4.138" stroke="black" fill="none" stroke-linecap="round"></path><path d="M 385.000,104.000 C 388.514,103.768 388.500,104.000 392.000,104.000" stroke-width="4.029" stroke="black" fill="none" stroke-linecap="round"></path><path d="M 392.000,104.000 C 395.994,104.555 396.014,104.268 400.000,105.000" stroke-width="3.877" stroke="black" fill="none" stroke-linecap="round"></path><path d="M 400.000,105.000 C 404.986,105.782 404.994,105.555 410.000,106.000" stroke-width="3.572" stroke="black" fill="none" stroke-linecap="round"></path><path d="M 410.000,106.000 C 416.500,106.000 416.486,106.282 423.000,106.000" stroke-width="3.861" stroke="black" fill="none" stroke-linecap="round"></path><path d="M 423.000,106.000 C 430.053,106.695 430.000,106.000 437.000,106.000" stroke-width="3.345" stroke="black" fill="none" stroke-linecap="round"></path><path d="M 437.000,106.000 C 449.981,103.860 450.053,104.695 463.000,102.000" stroke-width="2.313" stroke="black" fill="none" stroke-linecap="round"></path><path d="M 463.000,102.000 C 467.508,101.562 467.481,101.360 472.000,101.000" stroke-width="3.190" stroke="black" fill="none" stroke-linecap="round"></path><path d="M 472.000,101.000 C 475.514,100.581 475.508,100.562 479.000,100.000" stroke-width="3.776" stroke="black" fill="none" stroke-linecap="round"></path><path d="M 479.000,100.000 C 481.492,99.456 481.514,99.581 484.000,99.000" stroke-width="4.146" stroke="black" fill="none" stroke-linecap="round"></path><path d="M 484.000,99.000 C 486.979,98.252 486.992,98.456 490.000,98.000" stroke-width="4.914" stroke="black" fill="none" stroke-linecap="round"></path><path d="M 490.000,98.000 C 496.197,96.817 492.979,97.752 496.000,98.000" stroke-width="4.820" stroke="black" fill="none" stroke-linecap="round"></path><path d="M 496.000,98.000 C 492.647,101.194 495.697,99.817 489.000,104.000" stroke-width="4.983" stroke="black" fill="none" stroke-linecap="round"></path><path d="M 489.000,104.000 C 486.235,106.507 486.147,106.194 483.000,108.000" stroke-width="4.212" stroke="black" fill="none" stroke-linecap="round"></path><path d="M 483.000,108.000 C 479.530,109.118 479.735,109.507 476.000,110.000" stroke-width="3.964" stroke="black" fill="none" stroke-linecap="round"></path><path d="M 476.000,110.000 C 471.551,111.465 471.530,111.118 467.000,112.000" stroke-width="3.737" stroke="black" fill="none" stroke-linecap="round"></path><path d="M 467.000,112.000 C 463.000,112.000 463.051,112.465 459.000,112.000" stroke-width="3.846" stroke="black" fill="none" stroke-linecap="round"></path><path d="M 459.000,112.000 C 452.000,112.000 452.000,112.000 445.000,112.000" stroke-width="3.279" stroke="black" fill="none" stroke-linecap="round"></path><path d="M 445.000,112.000 C 438.995,112.187 439.000,112.000 433.000,112.000" stroke-width="3.395" stroke="black" fill="none" stroke-linecap="round"></path><path d="M 433.000,112.000 C 423.007,111.238 422.995,111.687 413.000,111.000" stroke-width="2.782" stroke="black" fill="none" stroke-linecap="round"></path><path d="M 413.000,111.000 C 402.000,111.000 402.007,110.738 391.000,111.000" stroke-width="2.479" stroke="black" fill="none" stroke-linecap="round"></path><path d="M 391.000,111.000 C 378.000,111.000 378.000,111.000 365.000,111.000" stroke-width="2.234" stroke="black" fill="none" stroke-linecap="round"></path><path d="M 365.000,111.000 C 348.983,110.484 349.000,111.000 333.000,111.000" stroke-width="1.970" stroke="black" fill="none" stroke-linecap="round"></path><path d="M 333.000,111.000 C 317.951,111.505 317.983,111.484 303.000,113.000" stroke-width="2.013" stroke="black" fill="none" stroke-linecap="round"></path><path d="M 303.000,113.000 C 287.957,114.718 287.951,114.505 273.000,117.000" stroke-width="2.020" stroke="black" fill="none" stroke-linecap="round"></path><path d="M 273.000,117.000 C 258.543,119.782 258.457,119.218 244.000,122.000" stroke-width="2.099" stroke="black" fill="none" stroke-linecap="round"></path><path d="M 244.000,122.000 C 229.002,124.019 229.043,124.282 214.000,126.000" stroke-width="1.989" stroke="black" fill="none" stroke-linecap="round"></path><path d="M 214.000,126.000 C 202.448,127.179 202.502,127.519 191.000,129.000" stroke-width="2.195" stroke="black" fill="none" stroke-linecap="round"></path><path d="M 191.000,129.000 C 180.572,131.571 180.448,130.679 170.000,133.000" stroke-width="2.340" stroke="black" fill="none" stroke-linecap="round"></path><path d="M 170.000,133.000 C 162.007,133.733 162.072,134.071 154.000,134.000" stroke-width="2.650" stroke="black" fill="none" stroke-linecap="round"></path><path d="M 154.000,134.000 C 147.000,134.000 147.007,134.233 140.000,134.000" stroke-width="2.886" stroke="black" fill="none" stroke-linecap="round"></path><path d="M 140.000,134.000 C 134.500,134.000 134.500,134.000 129.000,134.000" stroke-width="3.237" stroke="black" fill="none" stroke-linecap="round"></path><path d="M 129.000,134.000 C 123.503,135.576 124.000,134.000 119.000,134.000" stroke-width="3.391" stroke="black" fill="none" stroke-linecap="round"></path></svg>