<svg xmlns="http://www.w3.org/2000/svg" xmlns:xlink="http://www.w3.org/1999/xlink" viewBox="0 0 1460 576" width="1460" height="576"><path d="M 562.000,193.000 C 570.009,188.516 570.000,188.500 578.000,184.000" stroke-width="4.575" stroke="black" fill="none" stroke-linecap="round"></path><path d="M 578.000,184.000 C 581.439,181.885 581.509,182.016 585.000,180.000" stroke-width="3.957" stroke="black" fill="none" stroke-linecap="round"></path><path d="M 585.000,180.000 C 589.648,176.417 589.939,177.385 595.000,175.000" stroke-width="3.482" stroke="black" fill="none" stroke-linecap="round"></path><path d="M 595.000,175.000 C 606.969,171.256 606.648,171.917 619.000,171.000" stroke-width="2.573" stroke="black" fill="none" stroke-linecap="round"></path><path d="M 619.000,171.000 C 630.645,171.784 630.469,170.756 642.000,174.000" stroke-width="3.068" stroke="black" fill="none" stroke-linecap="round"></path><path d="M 642.000,174.000 C 650.941,176.735 651.145,175.784 660.000,179.000" stroke-width="2.721" stroke="black" fill="none" stroke-linecap="round"></path><path d="M 660.000,179.000 C 670.973,181.625 670.941,181.735 682.000,184.000" stroke-width="2.501" stroke="black" fill="none" stroke-linecap="round"></path><path d="M 682.000,184.000 C 703.680,187.867 703.473,188.625 725.000,193.000" stroke-width="2.408" stroke="black" fill="none" stroke-linecap="round"></path><path d="M 725.000,193.000 C 730.671,194.631 730.680,194.367 736.000,197.000" stroke-width="3.031" stroke="black" fill="none" stroke-linecap="round"></path><path d="M 736.000,197.000 C 739.734,198.667 739.671,198.631 743.000,201.000" stroke-width="3.541" stroke="black" fill="none" stroke-linecap="round"></path><path d="M 743.000,201.000 C 747.066,203.532 746.734,203.667 750.000,207.000" stroke-width="3.560" stroke="black" fill="none" stroke-linecap="round"></path><path d="M 750.000,207.000 C 753.680,210.158 752.566,210.032 754.000,214.000" stroke-width="4.182" stroke="black" fill="none" stroke-linecap="round"></path><path d="M 754.000,214.000 C 754.384,222.896 754.680,222.158 752.000,231.000" stroke-width="3.179" stroke="black" fill="none" stroke-linecap="round"></path><path d="M 752.000,231.000 C 743.066,241.777 749.384,239.896 744.000,248.000" stroke-width="2.806" stroke="black" fill="none" stroke-linecap="round"></path><path d="M 744.000,248.000 C 749.457,249.696 744.566,251.777 755.000,251.000" stroke-width="4.200" stroke="black" fill="none" stroke-linecap="round"></path><path d="M 755.000,251.000 C 757.965,251.846 757.957,251.696 761.000,252.000" stroke-width="4.112" stroke="black" fill="none" stroke-linecap="round"></path><path d="M 761.000,252.000 C 787.500,253.000 787.465,253.346 814.000,254.000" stroke-width="1.640" stroke="black" fill="none" stroke-linecap="round"></path><path d="M 814.000,254.000 C 840.777,252.461 840.500,255.000 867.000,256.000" stroke-width="1.389" stroke="black" fill="none" stroke-linecap="round"></path><path d="M 867.000,256.000 C 922.235,264.908 922.277,263.461 977.000,276.000" stroke-width="1.125" stroke="black" fill="none" stroke-linecap="round"></path><path d="M 977.000,276.000 C 1001.055,281.785 1001.235,280.908 1025.000,288.000" stroke-width="1.151" stroke="black" fill="none" stroke-linecap="round"></path><path d="M 1025.000,288.000 C 1067.140,297.306 1066.555,298.785 1108.000,310.000" stroke-width="1.125" stroke="black" fill="none" stroke-linecap="round"></path><path d="M 1108.000,310.000 C 1117.742,315.578 1118.640,313.306 1128.000,320.000" stroke-width="1.660" stroke="black" fill="none" stroke-linecap="round"></path><path d="M 1128.000,320.000 C 1146.699,328.457 1146.742,328.078 1166.000,335.000" stroke-width="1.605" stroke="black" fill="none" stroke-linecap="round"></path><path d="M 1166.000,335.000 C 1176.385,338.484 1176.199,338.457 1187.000,340.000" stroke-width="2.171" stroke="black" fill="none" stroke-linecap="round"></path><path d="M 1187.000,340.000 C 1194.139,340.722 1193.885,340.984 1201.000,340.000" stroke-width="2.955" stroke="black" fill="none" stroke-linecap="round"></path></svg>