<svg xmlns="http://www.w3.org/2000/svg" xmlns:xlink="http://www.w3.org/1999/xlink" viewBox="0 0 1460 576" width="1460" height="576"><path d="M 457.000,343.000 C 453.619,341.131 453.500,341.500 450.000,340.000" stroke-width="5.205" stroke="black" fill="none" stroke-linecap="round"></path><path d="M 450.000,340.000 C 445.500,339.000 445.619,338.631 441.000,338.000" stroke-width="4.007" stroke="black" fill="none" stroke-linecap="round"></path><path d="M 441.000,338.000 C 436.481,337.082 436.500,337.000 432.000,336.000" stroke-width="3.690" stroke="black" fill="none" stroke-linecap="round"></path><path d="M 432.000,336.000 C 421.968,333.623 421.981,333.582 412.000,331.000" stroke-width="2.804" stroke="black" fill="none" stroke-linecap="round"></path><path d="M 412.000,331.000 C 402.109,330.185 402.968,328.623 394.000,326.000" stroke-width="2.654" stroke="black" fill="none" stroke-linecap="round"></path><path d="M 394.000,326.000 C 387.541,320.451 386.609,322.185 381.000,315.000" stroke-width="2.761" stroke="black" fill="none" stroke-linecap="round"></path><path d="M 381.000,315.000 C 362.307,301.680 363.541,300.451 346.000,286.000" stroke-width="2.259" stroke="black" fill="none" stroke-linecap="round"></path><path d="M 346.000,286.000 C 337.682,275.336 336.307,276.680 329.000,265.000" stroke-width="2.252" stroke="black" fill="none" stroke-linecap="round"></path><path d="M 329.000,265.000 C 323.722,261.479 327.182,262.836 325.000,261.000" stroke-width="3.315" stroke="black" fill="none" stroke-linecap="round"></path><path d="M 325.000,261.000 C 330.987,261.823 327.722,259.979 337.000,262.000" stroke-width="4.510" stroke="black" fill="none" stroke-linecap="round"></path><path d="M 337.000,262.000 C 348.046,262.854 347.987,262.323 359.000,262.000" stroke-width="2.841" stroke="black" fill="none" stroke-linecap="round"></path><path d="M 359.000,262.000 C 386.565,259.473 386.546,259.854 414.000,256.000" stroke-width="1.575" stroke="black" fill="none" stroke-linecap="round"></path><path d="M 414.000,256.000 C 425.978,253.861 426.065,254.473 438.000,252.000" stroke-width="1.935" stroke="black" fill="none" stroke-linecap="round"></path><path d="M 438.000,252.000 C 468.217,248.603 467.978,247.361 498.000,243.000" stroke-width="1.382" stroke="black" fill="none" stroke-linecap="round"></path><path d="M 498.000,243.000 C 519.701,241.202 518.717,239.103 539.000,233.000" stroke-width="1.537" stroke="black" fill="none" stroke-linecap="round"></path><path d="M 539.000,233.000 C 578.612,212.709 579.701,215.702 618.000,192.000" stroke-width="1.452" stroke="black" fill="none" stroke-linecap="round"></path><path d="M 618.000,192.000 C 627.210,187.337 627.112,187.209 636.000,182.000" stroke-width="2.075" stroke="black" fill="none" stroke-linecap="round"></path><path d="M 636.000,182.000 C 641.158,178.703 641.210,178.837 646.000,175.000" stroke-width="2.748" stroke="black" fill="none" stroke-linecap="round"></path><path d="M 646.000,175.000 C 653.787,168.410 649.658,172.203 653.000,169.000" stroke-width="3.275" stroke="black" fill="none" stroke-linecap="round"></path><path d="M 653.000,169.000 C 647.549,173.561 651.787,169.910 642.000,178.000" stroke-width="4.416" stroke="black" fill="none" stroke-linecap="round"></path><path d="M 642.000,178.000 C 637.023,180.977 637.549,181.561 633.000,185.000" stroke-width="3.625" stroke="black" fill="none" stroke-linecap="round"></path><path d="M 633.000,185.000 C 617.447,201.450 617.023,200.977 602.000,218.000" stroke-width="1.857" stroke="black" fill="none" stroke-linecap="round"></path><path d="M 602.000,218.000 C 588.594,230.745 589.447,231.450 577.000,245.000" stroke-width="1.748" stroke="black" fill="none" stroke-linecap="round"></path><path d="M 577.000,245.000 C 560.597,270.335 558.094,268.245 541.000,293.000" stroke-width="1.360" stroke="black" fill="none" stroke-linecap="round"></path><path d="M 541.000,293.000 C 505.494,340.101 503.097,336.835 462.000,378.000" stroke-width="1.210" stroke="black" fill="none" stroke-linecap="round"></path><path d="M 462.000,378.000 C 416.654,411.008 419.994,414.601 370.000,442.000" stroke-width="1.125" stroke="black" fill="none" stroke-linecap="round"></path><path d="M 370.000,442.000 C 346.252,456.934 346.654,457.508 322.000,471.000" stroke-width="1.125" stroke="black" fill="none" stroke-linecap="round"></path><path d="M 322.000,471.000 C 295.978,485.462 296.252,485.934 270.000,500.000" stroke-width="1.196" stroke="black" fill="none" stroke-linecap="round"></path><path d="M 270.000,500.000 C 240.992,515.205 241.478,515.962 213.000,532.000" stroke-width="1.646" stroke="black" fill="none" stroke-linecap="round"></path><path d="M 213.000,532.000 C 204.309,538.994 203.492,537.705 195.000,545.000" stroke-width="2.086" stroke="black" fill="none" stroke-linecap="round"></path><path d="M 195.000,545.000 C 188.857,549.378 188.809,548.994 182.000,552.000" stroke-width="2.657" stroke="black" fill="none" stroke-linecap="round"></path><path d="M 182.000,552.000 C 171.423,556.922 171.857,555.878 161.000,558.000" stroke-width="3.103" stroke="black" fill="none" stroke-linecap="round"></path><path d="M 161.000,558.000 C 156.430,557.286 156.923,558.422 153.000,555.000" stroke-width="3.962" stroke="black" fill="none" stroke-linecap="round"></path><path d="M 153.000,555.000 C 150.033,552.839 150.430,553.286 149.000,550.000" stroke-width="4.458" stroke="black" fill="none" stroke-linecap="round"></path><path d="M 149.000,550.000 C 147.872,546.708 148.033,547.339 149.000,544.000" stroke-width="4.243" stroke="black" fill="none" stroke-linecap="round"></path><path d="M 149.000,544.000 C 152.882,534.157 152.872,534.708 159.000,526.000" stroke-width="2.891" stroke="black" fill="none" stroke-linecap="round"></path><path d="M 159.000,526.000 C 165.309,518.212 164.882,518.157 173.000,512.000" stroke-width="2.680" stroke="black" fill="none" stroke-linecap="round"></path><path d="M 173.000,512.000 C 203.667,485.337 204.309,486.712 237.000,463.000" stroke-width="1.819" stroke="black" fill="none" stroke-linecap="round"></path><path d="M 237.000,463.000 C 253.803,455.585 252.167,452.837 270.000,447.000" stroke-width="1.842" stroke="black" fill="none" stroke-linecap="round"></path><path d="M 270.000,447.000 C 302.351,425.659 303.803,429.085 337.000,410.000" stroke-width="1.133" stroke="black" fill="none" stroke-linecap="round"></path><path d="M 337.000,410.000 C 356.296,407.254 354.351,402.159 374.000,400.000" stroke-width="1.493" stroke="black" fill="none" stroke-linecap="round"></path><path d="M 374.000,400.000 C 457.335,361.277 458.796,365.254 542.000,326.000" stroke-width="1.125" stroke="black" fill="none" stroke-linecap="round"></path><path d="M 542.000,326.000 C 566.281,318.720 565.335,316.277 590.000,310.000" stroke-width="1.250" stroke="black" fill="none" stroke-linecap="round"></path><path d="M 590.000,310.000 C 600.132,305.764 600.281,306.220 610.000,301.000" stroke-width="1.869" stroke="black" fill="none" stroke-linecap="round"></path><path d="M 610.000,301.000 C 614.400,298.300 614.632,298.764 619.000,296.000" stroke-width="2.808" stroke="black" fill="none" stroke-linecap="round"></path><path d="M 619.000,296.000 C 628.457,292.000 623.400,293.800 628.000,292.000" stroke-width="3.709" stroke="black" fill="none" stroke-linecap="round"></path><path d="M 628.000,292.000 C 622.320,293.606 627.457,292.000 617.000,296.000" stroke-width="4.683" stroke="black" fill="none" stroke-linecap="round"></path><path d="M 617.000,296.000 C 612.681,298.994 612.320,298.106 608.000,301.000" stroke-width="3.723" stroke="black" fill="none" stroke-linecap="round"></path><path d="M 608.000,301.000 C 605.388,301.147 605.681,301.994 603.000,302.000" stroke-width="4.087" stroke="black" fill="none" stroke-linecap="round"></path><path d="M 603.000,302.000 C 598.612,304.353 598.388,303.647 594.000,306.000" stroke-width="4.256" stroke="black" fill="none" stroke-linecap="round"></path><path d="M 594.000,306.000 C 591.428,306.241 591.612,306.853 589.000,307.000" stroke-width="4.263" stroke="black" fill="none" stroke-linecap="round"></path><path d="M 589.000,307.000 C 583.171,308.414 583.428,308.741 578.000,311.000" stroke-width="3.498" stroke="black" fill="none" stroke-linecap="round"></path><path d="M 578.000,311.000 C 575.349,312.832 575.171,312.414 573.000,315.000" stroke-width="3.890" stroke="black" fill="none" stroke-linecap="round"></path><path d="M 573.000,315.000 C 568.517,318.604 568.849,318.832 565.000,323.000" stroke-width="3.453" stroke="black" fill="none" stroke-linecap="round"></path><path d="M 565.000,323.000 C 560.849,328.906 560.517,328.604 557.000,335.000" stroke-width="3.091" stroke="black" fill="none" stroke-linecap="round"></path><path d="M 557.000,335.000 C 553.919,338.325 554.849,338.406 553.000,342.000" stroke-width="3.886" stroke="black" fill="none" stroke-linecap="round"></path><path d="M 553.000,342.000 C 552.219,345.516 552.419,344.325 554.000,347.000" stroke-width="4.185" stroke="black" fill="none" stroke-linecap="round"></path><path d="M 554.000,347.000 C 559.104,351.330 558.219,350.516 565.000,352.000" stroke-width="3.447" stroke="black" fill="none" stroke-linecap="round"></path><path d="M 565.000,352.000 C 581.824,354.534 581.104,353.830 598.000,352.000" stroke-width="2.207" stroke="black" fill="none" stroke-linecap="round"></path><path d="M 598.000,352.000 C 624.104,347.823 623.324,348.034 648.000,339.000" stroke-width="2.168" stroke="black" fill="none" stroke-linecap="round"></path><path d="M 648.000,339.000 C 655.500,333.500 656.604,335.823 663.000,328.000" stroke-width="2.555" stroke="black" fill="none" stroke-linecap="round"></path><path d="M 663.000,328.000 C 670.754,322.797 670.500,322.500 678.000,317.000" stroke-width="2.645" stroke="black" fill="none" stroke-linecap="round"></path><path d="M 678.000,317.000 C 684.581,313.264 680.754,314.797 683.000,312.000" stroke-width="3.780" stroke="black" fill="none" stroke-linecap="round"></path><path d="M 683.000,312.000 C 675.520,309.279 679.581,309.264 668.000,309.000" stroke-width="4.172" stroke="black" fill="none" stroke-linecap="round"></path><path d="M 668.000,309.000 C 661.773,309.224 662.020,308.779 656.000,311.000" stroke-width="3.437" stroke="black" fill="none" stroke-linecap="round"></path><path d="M 656.000,311.000 C 648.862,313.718 648.773,313.224 642.000,317.000" stroke-width="3.094" stroke="black" fill="none" stroke-linecap="round"></path><path d="M 642.000,317.000 C 636.814,318.731 637.362,319.218 633.000,322.000" stroke-width="3.369" stroke="black" fill="none" stroke-linecap="round"></path><path d="M 633.000,322.000 C 625.998,326.569 629.814,324.731 628.000,329.000" stroke-width="4.112" stroke="black" fill="none" stroke-linecap="round"></path><path d="M 628.000,329.000 C 636.881,338.190 632.998,335.069 647.000,339.000" stroke-width="3.623" stroke="black" fill="none" stroke-linecap="round"></path><path d="M 647.000,339.000 C 662.533,336.157 661.881,340.190 678.000,333.000" stroke-width="2.208" stroke="black" fill="none" stroke-linecap="round"></path><path d="M 678.000,333.000 C 687.172,331.608 687.033,331.157 696.000,329.000" stroke-width="2.530" stroke="black" fill="none" stroke-linecap="round"></path><path d="M 696.000,329.000 C 708.892,324.120 709.172,325.108 722.000,320.000" stroke-width="2.188" stroke="black" fill="none" stroke-linecap="round"></path><path d="M 722.000,320.000 C 726.559,319.225 726.392,318.620 731.000,318.000" stroke-width="3.039" stroke="black" fill="none" stroke-linecap="round"></path><path d="M 731.000,318.000 C 740.886,314.441 741.059,315.225 751.000,312.000" stroke-width="3.165" stroke="black" fill="none" stroke-linecap="round"></path><path d="M 751.000,312.000 C 755.495,311.000 755.386,310.941 760.000,311.000" stroke-width="3.548" stroke="black" fill="none" stroke-linecap="round"></path><path d="M 760.000,311.000 C 765.712,310.756 765.495,311.000 771.000,312.000" stroke-width="3.391" stroke="black" fill="none" stroke-linecap="round"></path><path d="M 771.000,312.000 C 774.250,313.109 774.212,312.756 777.000,315.000" stroke-width="3.772" stroke="black" fill="none" stroke-linecap="round"></path><path d="M 777.000,315.000 C 781.491,319.970 782.250,318.609 787.000,323.000" stroke-width="3.294" stroke="black" fill="none" stroke-linecap="round"></path><path d="M 787.000,323.000 C 791.857,326.337 791.491,325.470 797.000,326.000" stroke-width="4.522" stroke="black" fill="none" stroke-linecap="round"></path><path d="M 797.000,326.000 C 822.398,321.438 822.357,324.337 848.000,319.000" stroke-width="1.762" stroke="black" fill="none" stroke-linecap="round"></path><path d="M 848.000,319.000 C 874.977,316.665 874.898,316.438 902.000,316.000" stroke-width="1.398" stroke="black" fill="none" stroke-linecap="round"></path><path d="M 902.000,316.000 C 936.015,315.214 935.977,315.165 970.000,316.000" stroke-width="1.152" stroke="black" fill="none" stroke-linecap="round"></path><path d="M 970.000,316.000 C 1022.493,318.359 1022.515,317.214 1075.000,320.000" stroke-width="1.125" stroke="black" fill="none" stroke-linecap="round"></path><path d="M 1075.000,320.000 C 1086.516,320.450 1086.493,320.359 1098.000,320.000" stroke-width="1.530" stroke="black" fill="none" stroke-linecap="round"></path><path d="M 1098.000,320.000 C 1112.068,319.548 1112.016,319.450 1126.000,318.000" stroke-width="1.901" stroke="black" fill="none" stroke-linecap="round"></path><path d="M 1126.000,318.000 C 1134.517,316.591 1134.568,317.048 1143.000,315.000" stroke-width="2.601" stroke="black" fill="none" stroke-linecap="round"></path><path d="M 1143.000,315.000 C 1150.513,312.312 1150.517,313.591 1158.000,312.000" stroke-width="2.843" stroke="black" fill="none" stroke-linecap="round"></path><path d="M 1158.000,312.000 C 1162.619,312.631 1162.513,311.812 1167.000,314.000" stroke-width="3.362" stroke="black" fill="none" stroke-linecap="round"></path><path d="M 1167.000,314.000 C 1170.844,314.992 1170.619,315.131 1174.000,317.000" stroke-width="3.711" stroke="black" fill="none" stroke-linecap="round"></path></svg>