<svg xmlns="http://www.w3.org/2000/svg" xmlns:xlink="http://www.w3.org/1999/xlink" viewBox="0 0 453 236" width="453" height="236"><path d="M 85.500,71.000 C 81.542,77.810 82.000,78.000 78.500,85.000" stroke-width="3.497" stroke="black" fill="none" stroke-linecap="round"></path><path d="M 78.500,85.000 C 76.084,90.890 76.042,90.810 74.500,97.000" stroke-width="3.302" stroke="black" fill="none" stroke-linecap="round"></path><path d="M 74.500,97.000 C 73.184,104.541 72.584,104.390 71.500,112.000" stroke-width="3.056" stroke="black" fill="none" stroke-linecap="round"></path><path d="M 71.500,112.000 C 69.261,119.948 69.684,120.041 67.500,128.000" stroke-width="2.850" stroke="black" fill="none" stroke-linecap="round"></path><path d="M 67.500,128.000 C 66.472,136.113 65.761,135.948 64.500,144.000" stroke-width="3.457" stroke="black" fill="none" stroke-linecap="round"></path><path d="M 64.500,144.000 C 61.333,156.119 61.472,156.113 57.500,168.000" stroke-width="2.604" stroke="black" fill="none" stroke-linecap="round"></path><path d="M 116.500,133.000 C 114.021,130.685 114.000,132.000 111.500,131.000" stroke-width="5.078" stroke="black" fill="none" stroke-linecap="round"></path><path d="M 111.500,131.000 C 105.487,132.195 106.021,131.685 100.500,135.000" stroke-width="3.782" stroke="black" fill="none" stroke-linecap="round"></path><path d="M 100.500,135.000 C 98.000,137.500 97.487,136.695 95.500,140.000" stroke-width="3.913" stroke="black" fill="none" stroke-linecap="round"></path><path d="M 95.500,140.000 C 93.101,141.713 93.500,142.000 91.500,144.000" stroke-width="4.123" stroke="black" fill="none" stroke-linecap="round"></path><path d="M 91.500,144.000 C 89.699,146.883 89.601,146.713 88.500,150.000" stroke-width="3.955" stroke="black" fill="none" stroke-linecap="round"></path><path d="M 88.500,150.000 C 84.447,155.803 87.199,153.383 86.500,157.000" stroke-width="4.391" stroke="black" fill="none" stroke-linecap="round"></path><path d="M 86.500,157.000 C 94.012,158.692 90.447,159.303 100.500,157.000" stroke-width="4.212" stroke="black" fill="none" stroke-linecap="round"></path><path d="M 100.500,157.000 C 105.297,154.362 105.512,155.692 109.500,151.000" stroke-width="3.574" stroke="black" fill="none" stroke-linecap="round"></path><path d="M 109.500,151.000 C 112.650,148.135 112.797,148.362 115.500,145.000" stroke-width="3.645" stroke="black" fill="none" stroke-linecap="round"></path><path d="M 115.500,145.000 C 117.729,142.656 117.650,142.635 119.500,140.000" stroke-width="3.943" stroke="black" fill="none" stroke-linecap="round"></path><path d="M 119.500,140.000 C 122.496,132.749 121.729,136.656 123.500,133.000" stroke-width="4.330" stroke="black" fill="none" stroke-linecap="round"></path><path d="M 123.500,133.000 C 123.352,137.004 124.496,133.249 123.500,141.000" stroke-width="4.448" stroke="black" fill="none" stroke-linecap="round"></path><path d="M 123.500,141.000 C 123.422,150.569 123.852,150.504 124.500,160.000" stroke-width="3.020" stroke="black" fill="none" stroke-linecap="round"></path><path d="M 124.500,160.000 C 126.308,167.957 125.422,168.069 127.500,176.000" stroke-width="2.854" stroke="black" fill="none" stroke-linecap="round"></path><path d="M 127.500,176.000 C 127.890,181.513 128.308,181.457 128.500,187.000" stroke-width="3.221" stroke="black" fill="none" stroke-linecap="round"></path><path d="M 128.500,187.000 C 130.013,193.743 128.890,190.513 129.500,194.000" stroke-width="3.669" stroke="black" fill="none" stroke-linecap="round"></path><path d="M 183.500,139.000 C 180.175,136.648 180.000,137.500 176.500,136.000" stroke-width="5.005" stroke="black" fill="none" stroke-linecap="round"></path><path d="M 176.500,136.000 C 171.206,134.893 171.675,135.148 166.500,136.000" stroke-width="4.502" stroke="black" fill="none" stroke-linecap="round"></path><path d="M 166.500,136.000 C 162.802,137.714 162.706,136.893 159.500,140.000" stroke-width="4.052" stroke="black" fill="none" stroke-linecap="round"></path><path d="M 159.500,140.000 C 156.117,142.145 156.302,142.214 153.500,145.000" stroke-width="4.154" stroke="black" fill="none" stroke-linecap="round"></path><path d="M 153.500,145.000 C 148.500,148.707 150.617,148.145 148.500,152.000" stroke-width="3.851" stroke="black" fill="none" stroke-linecap="round"></path><path d="M 148.500,152.000 C 150.393,155.964 148.500,154.707 153.500,157.000" stroke-width="4.382" stroke="black" fill="none" stroke-linecap="round"></path><path d="M 153.500,157.000 C 158.500,157.000 157.893,158.464 163.500,157.000" stroke-width="3.694" stroke="black" fill="none" stroke-linecap="round"></path><path d="M 163.500,157.000 C 167.500,157.000 167.500,157.000 171.500,157.000" stroke-width="3.733" stroke="black" fill="none" stroke-linecap="round"></path><path d="M 171.500,157.000 C 174.500,157.000 174.500,157.000 177.500,157.000" stroke-width="4.020" stroke="black" fill="none" stroke-linecap="round"></path><path d="M 177.500,157.000 C 184.534,156.114 180.500,157.000 183.500,157.000" stroke-width="4.524" stroke="black" fill="none" stroke-linecap="round"></path><path d="M 183.500,157.000 C 177.000,160.000 181.034,159.114 170.500,163.000" stroke-width="4.113" stroke="black" fill="none" stroke-linecap="round"></path><path d="M 170.500,163.000 C 164.193,166.521 164.000,166.000 157.500,169.000" stroke-width="3.309" stroke="black" fill="none" stroke-linecap="round"></path><path d="M 157.500,169.000 C 150.463,170.881 150.693,171.521 143.500,173.000" stroke-width="3.109" stroke="black" fill="none" stroke-linecap="round"></path><path d="M 143.500,173.000 C 139.053,174.699 138.963,174.381 134.500,176.000" stroke-width="3.393" stroke="black" fill="none" stroke-linecap="round"></path><path d="M 220.500,67.000 C 218.845,69.894 219.500,70.000 218.500,73.000" stroke-width="5.121" stroke="black" fill="none" stroke-linecap="round"></path><path d="M 218.500,73.000 C 218.886,79.020 217.845,78.894 218.500,85.000" stroke-width="3.692" stroke="black" fill="none" stroke-linecap="round"></path><path d="M 218.500,85.000 C 218.507,94.718 217.886,94.520 216.500,104.000" stroke-width="2.822" stroke="black" fill="none" stroke-linecap="round"></path><path d="M 216.500,104.000 C 213.741,113.088 214.507,113.218 210.500,122.000" stroke-width="2.817" stroke="black" fill="none" stroke-linecap="round"></path><path d="M 210.500,122.000 C 207.822,129.645 207.741,129.588 204.500,137.000" stroke-width="2.804" stroke="black" fill="none" stroke-linecap="round"></path><path d="M 204.500,137.000 C 200.050,144.808 200.822,145.145 196.500,153.000" stroke-width="2.760" stroke="black" fill="none" stroke-linecap="round"></path><path d="M 196.500,153.000 C 193.850,159.951 193.550,159.808 191.500,167.000" stroke-width="3.071" stroke="black" fill="none" stroke-linecap="round"></path><path d="M 191.500,167.000 C 189.398,171.912 189.850,171.951 188.500,177.000" stroke-width="3.349" stroke="black" fill="none" stroke-linecap="round"></path><path d="M 231.500,137.000 C 229.475,133.352 229.000,134.500 226.500,132.000" stroke-width="5.056" stroke="black" fill="none" stroke-linecap="round"></path><path d="M 226.500,132.000 C 223.480,131.692 223.975,130.852 220.500,132.000" stroke-width="4.845" stroke="black" fill="none" stroke-linecap="round"></path><path d="M 220.500,132.000 C 208.971,133.313 208.980,133.192 197.500,135.000" stroke-width="2.884" stroke="black" fill="none" stroke-linecap="round"></path><path d="M 197.500,135.000 C 192.033,136.245 191.971,135.813 186.500,137.000" stroke-width="3.170" stroke="black" fill="none" stroke-linecap="round"></path><path d="M 186.500,137.000 C 180.905,137.046 181.033,137.745 175.500,138.000" stroke-width="3.854" stroke="black" fill="none" stroke-linecap="round"></path><path d="M 312.500,140.000 C 309.583,135.333 309.000,136.500 305.500,133.000" stroke-width="4.695" stroke="black" fill="none" stroke-linecap="round"></path><path d="M 305.500,133.000 C 302.020,132.220 302.583,131.333 298.500,132.000" stroke-width="4.526" stroke="black" fill="none" stroke-linecap="round"></path><path d="M 298.500,132.000 C 293.988,131.764 294.020,131.720 289.500,132.000" stroke-width="3.897" stroke="black" fill="none" stroke-linecap="round"></path><path d="M 289.500,132.000 C 284.193,131.518 284.488,132.264 279.500,133.000" stroke-width="3.636" stroke="black" fill="none" stroke-linecap="round"></path><path d="M 279.500,133.000 C 274.323,134.765 274.693,134.518 270.500,138.000" stroke-width="3.542" stroke="black" fill="none" stroke-linecap="round"></path><path d="M 270.500,138.000 C 267.856,140.745 267.823,140.265 266.500,144.000" stroke-width="3.770" stroke="black" fill="none" stroke-linecap="round"></path><path d="M 266.500,144.000 C 265.752,146.979 265.356,146.745 265.500,150.000" stroke-width="4.024" stroke="black" fill="none" stroke-linecap="round"></path><path d="M 265.500,150.000 C 263.312,154.663 265.252,152.979 265.500,156.000" stroke-width="4.263" stroke="black" fill="none" stroke-linecap="round"></path><path d="M 265.500,156.000 C 274.381,159.372 272.312,160.163 283.500,161.000" stroke-width="2.940" stroke="black" fill="none" stroke-linecap="round"></path><path d="M 283.500,161.000 C 289.229,162.759 288.381,161.872 293.500,161.000" stroke-width="3.337" stroke="black" fill="none" stroke-linecap="round"></path><path d="M 293.500,161.000 C 296.857,157.340 297.729,159.259 300.500,154.000" stroke-width="3.432" stroke="black" fill="none" stroke-linecap="round"></path><path d="M 300.500,154.000 C 303.384,152.352 302.857,151.840 305.500,150.000" stroke-width="3.940" stroke="black" fill="none" stroke-linecap="round"></path><path d="M 305.500,150.000 C 308.392,143.335 307.884,147.352 309.500,144.000" stroke-width="4.390" stroke="black" fill="none" stroke-linecap="round"></path><path d="M 309.500,144.000 C 311.185,148.661 310.892,144.835 310.500,153.000" stroke-width="4.634" stroke="black" fill="none" stroke-linecap="round"></path><path d="M 310.500,153.000 C 308.500,158.000 309.685,158.161 306.500,163.000" stroke-width="3.664" stroke="black" fill="none" stroke-linecap="round"></path><path d="M 306.500,163.000 C 304.198,170.867 303.500,170.500 300.500,178.000" stroke-width="3.742" stroke="black" fill="none" stroke-linecap="round"></path><path d="M 300.500,178.000 C 296.500,184.000 297.198,184.367 292.500,190.000" stroke-width="3.157" stroke="black" fill="none" stroke-linecap="round"></path><path d="M 292.500,190.000 C 289.921,194.845 289.500,194.500 286.500,199.000" stroke-width="3.398" stroke="black" fill="none" stroke-linecap="round"></path><path d="M 286.500,199.000 C 283.383,204.559 282.921,203.345 278.500,207.000" stroke-width="3.486" stroke="black" fill="none" stroke-linecap="round"></path><path d="M 278.500,207.000 C 270.599,209.800 271.383,210.559 262.500,211.000" stroke-width="3.019" stroke="black" fill="none" stroke-linecap="round"></path><path d="M 262.500,211.000 C 256.476,212.731 257.099,211.800 251.500,211.000" stroke-width="3.232" stroke="black" fill="none" stroke-linecap="round"></path><path d="M 251.500,211.000 C 245.545,206.930 244.976,208.731 239.500,203.000" stroke-width="3.098" stroke="black" fill="none" stroke-linecap="round"></path><path d="M 239.500,203.000 C 235.330,200.735 235.545,200.430 231.500,198.000" stroke-width="3.394" stroke="black" fill="none" stroke-linecap="round"></path><path d="M 231.500,198.000 C 226.080,195.610 228.330,195.735 225.500,193.000" stroke-width="4.112" stroke="black" fill="none" stroke-linecap="round"></path><path d="M 332.500,138.000 C 327.429,139.071 328.500,140.000 324.500,142.000" stroke-width="4.566" stroke="black" fill="none" stroke-linecap="round"></path><path d="M 324.500,142.000 C 322.975,144.915 322.429,144.071 322.500,148.000" stroke-width="4.229" stroke="black" fill="none" stroke-linecap="round"></path><path d="M 322.500,148.000 C 322.500,151.500 321.975,151.415 322.500,155.000" stroke-width="4.055" stroke="black" fill="none" stroke-linecap="round"></path><path d="M 322.500,155.000 C 321.824,158.622 322.500,158.500 322.500,162.000" stroke-width="3.955" stroke="black" fill="none" stroke-linecap="round"></path><path d="M 322.500,162.000 C 323.602,166.204 323.324,166.122 325.500,170.000" stroke-width="3.749" stroke="black" fill="none" stroke-linecap="round"></path><path d="M 325.500,170.000 C 327.258,173.198 327.102,173.204 329.500,176.000" stroke-width="3.838" stroke="black" fill="none" stroke-linecap="round"></path><path d="M 329.500,176.000 C 331.284,178.277 331.258,178.198 333.500,180.000" stroke-width="4.098" stroke="black" fill="none" stroke-linecap="round"></path><path d="M 333.500,180.000 C 335.746,182.838 335.784,181.777 338.500,183.000" stroke-width="4.161" stroke="black" fill="none" stroke-linecap="round"></path><path d="M 338.500,183.000 C 346.079,184.039 344.246,183.338 350.500,181.000" stroke-width="4.148" stroke="black" fill="none" stroke-linecap="round"></path><path d="M 350.500,181.000 C 352.626,176.552 354.079,178.539 354.500,172.000" stroke-width="3.658" stroke="black" fill="none" stroke-linecap="round"></path><path d="M 354.500,172.000 C 355.686,167.855 356.126,168.052 357.500,164.000" stroke-width="3.664" stroke="black" fill="none" stroke-linecap="round"></path><path d="M 357.500,164.000 C 361.162,156.338 359.686,159.355 362.500,155.000" stroke-width="4.079" stroke="black" fill="none" stroke-linecap="round"></path><path d="M 362.500,155.000 C 362.118,157.529 363.162,154.338 361.500,160.000" stroke-width="4.861" stroke="black" fill="none" stroke-linecap="round"></path><path d="M 361.500,160.000 C 360.168,163.435 360.618,163.529 359.500,167.000" stroke-width="4.176" stroke="black" fill="none" stroke-linecap="round"></path><path d="M 359.500,167.000 C 357.665,171.825 358.668,171.435 358.500,176.000" stroke-width="4.340" stroke="black" fill="none" stroke-linecap="round"></path><path d="M 358.500,176.000 C 359.618,180.448 359.165,179.325 362.500,182.000" stroke-width="4.719" stroke="black" fill="none" stroke-linecap="round"></path><path d="M 391.500,144.000 C 393.556,149.290 394.000,149.000 396.500,154.000" stroke-width="5.118" stroke="black" fill="none" stroke-linecap="round"></path><path d="M 396.500,154.000 C 399.235,156.830 398.556,157.290 401.500,160.000" stroke-width="4.163" stroke="black" fill="none" stroke-linecap="round"></path><path d="M 401.500,160.000 C 404.074,163.956 404.235,163.830 406.500,168.000" stroke-width="3.705" stroke="black" fill="none" stroke-linecap="round"></path><path d="M 406.500,168.000 C 407.839,172.097 408.574,171.456 410.500,175.000" stroke-width="3.782" stroke="black" fill="none" stroke-linecap="round"></path><path d="M 443.500,136.000 C 441.871,138.429 442.000,138.500 440.500,141.000" stroke-width="5.157" stroke="black" fill="none" stroke-linecap="round"></path><path d="M 440.500,141.000 C 438.471,146.282 437.871,145.929 435.500,151.000" stroke-width="3.781" stroke="black" fill="none" stroke-linecap="round"></path><path d="M 435.500,151.000 C 430.098,159.988 429.971,159.782 423.500,168.000" stroke-width="2.808" stroke="black" fill="none" stroke-linecap="round"></path><path d="M 423.500,168.000 C 415.871,176.883 416.098,176.988 407.500,185.000" stroke-width="2.487" stroke="black" fill="none" stroke-linecap="round"></path><path d="M 407.500,185.000 C 399.031,192.535 399.371,192.883 390.500,200.000" stroke-width="2.433" stroke="black" fill="none" stroke-linecap="round"></path><path d="M 390.500,200.000 C 382.933,206.425 383.031,206.535 375.500,213.000" stroke-width="2.487" stroke="black" fill="none" stroke-linecap="round"></path><path d="M 375.500,213.000 C 369.895,217.889 369.933,217.925 364.500,223.000" stroke-width="2.826" stroke="black" fill="none" stroke-linecap="round"></path><path d="M 364.500,223.000 C 360.500,227.000 360.395,226.889 356.500,231.000" stroke-width="3.190" stroke="black" fill="none" stroke-linecap="round"></path></svg>