<svg xmlns="http://www.w3.org/2000/svg" xmlns:xlink="http://www.w3.org/1999/xlink" viewBox="0 0 1460 576" width="1460" height="576"><path d="M 722.000,282.000 C 713.010,283.700 713.000,283.000 704.000,284.000" stroke-width="5.149" stroke="black" fill="none" stroke-linecap="round"></path><path d="M 704.000,284.000 C 697.331,285.181 698.010,284.200 692.000,283.000" stroke-width="3.692" stroke="black" fill="none" stroke-linecap="round"></path><path d="M 692.000,283.000 C 684.851,280.227 686.331,280.681 682.000,275.000" stroke-width="3.275" stroke="black" fill="none" stroke-linecap="round"></path><path d="M 682.000,275.000 C 675.436,264.930 678.851,269.227 680.000,261.000" stroke-width="3.129" stroke="black" fill="none" stroke-linecap="round"></path><path d="M 680.000,261.000 C 698.531,250.612 693.436,249.430 718.000,244.000" stroke-width="2.683" stroke="black" fill="none" stroke-linecap="round"></path><path d="M 718.000,244.000 C 725.583,242.470 725.031,241.612 733.000,243.000" stroke-width="2.831" stroke="black" fill="none" stroke-linecap="round"></path><path d="M 733.000,243.000 C 739.767,243.818 739.583,243.470 746.000,246.000" stroke-width="3.048" stroke="black" fill="none" stroke-linecap="round"></path><path d="M 746.000,246.000 C 752.073,246.394 749.767,247.318 753.000,250.000" stroke-width="3.502" stroke="black" fill="none" stroke-linecap="round"></path><path d="M 753.000,250.000 C 757.049,266.317 756.573,263.894 755.000,281.000" stroke-width="3.056" stroke="black" fill="none" stroke-linecap="round"></path><path d="M 755.000,281.000 C 751.544,287.446 754.049,287.817 747.000,293.000" stroke-width="3.102" stroke="black" fill="none" stroke-linecap="round"></path><path d="M 747.000,293.000 C 742.740,299.026 742.544,298.446 737.000,303.000" stroke-width="3.020" stroke="black" fill="none" stroke-linecap="round"></path><path d="M 737.000,303.000 C 729.171,308.276 729.740,308.026 721.000,311.000" stroke-width="2.755" stroke="black" fill="none" stroke-linecap="round"></path><path d="M 721.000,311.000 C 717.857,311.520 718.671,311.776 716.000,310.000" stroke-width="3.695" stroke="black" fill="none" stroke-linecap="round"></path><path d="M 716.000,310.000 C 710.513,306.618 712.357,307.020 710.000,302.000" stroke-width="3.586" stroke="black" fill="none" stroke-linecap="round"></path><path d="M 710.000,302.000 C 708.616,291.219 709.013,293.118 713.000,283.000" stroke-width="2.796" stroke="black" fill="none" stroke-linecap="round"></path><path d="M 713.000,283.000 C 720.912,266.582 720.616,268.719 734.000,257.000" stroke-width="2.099" stroke="black" fill="none" stroke-linecap="round"></path><path d="M 734.000,257.000 C 751.289,247.904 748.912,246.082 769.000,242.000" stroke-width="2.459" stroke="black" fill="none" stroke-linecap="round"></path><path d="M 769.000,242.000 C 773.524,240.815 772.289,240.904 776.000,243.000" stroke-width="3.317" stroke="black" fill="none" stroke-linecap="round"></path><path d="M 776.000,243.000 C 782.600,249.349 782.024,248.315 786.000,257.000" stroke-width="2.868" stroke="black" fill="none" stroke-linecap="round"></path><path d="M 786.000,257.000 C 790.213,263.931 788.600,262.849 788.000,270.000" stroke-width="3.074" stroke="black" fill="none" stroke-linecap="round"></path><path d="M 788.000,270.000 C 771.811,312.948 772.713,311.931 751.000,353.000" stroke-width="1.803" stroke="black" fill="none" stroke-linecap="round"></path><path d="M 751.000,353.000 C 744.847,364.876 745.311,363.948 735.000,372.000" stroke-width="2.116" stroke="black" fill="none" stroke-linecap="round"></path><path d="M 735.000,372.000 C 719.017,389.535 721.347,381.876 704.000,387.000" stroke-width="1.872" stroke="black" fill="none" stroke-linecap="round"></path><path d="M 704.000,387.000 C 676.698,376.714 680.517,383.035 658.000,359.000" stroke-width="2.076" stroke="black" fill="none" stroke-linecap="round"></path><path d="M 658.000,359.000 C 649.179,346.559 648.198,349.714 647.000,333.000" stroke-width="2.047" stroke="black" fill="none" stroke-linecap="round"></path><path d="M 647.000,333.000 C 642.835,315.771 644.679,318.559 649.000,303.000" stroke-width="2.036" stroke="black" fill="none" stroke-linecap="round"></path><path d="M 649.000,303.000 C 658.702,284.205 656.835,286.771 675.000,275.000" stroke-width="1.813" stroke="black" fill="none" stroke-linecap="round"></path><path d="M 675.000,275.000 C 715.057,252.835 712.702,253.705 757.000,242.000" stroke-width="1.578" stroke="black" fill="none" stroke-linecap="round"></path><path d="M 757.000,242.000 C 776.683,240.544 775.057,237.335 795.000,244.000" stroke-width="1.731" stroke="black" fill="none" stroke-linecap="round"></path><path d="M 795.000,244.000 C 803.018,247.213 803.183,245.544 810.000,252.000" stroke-width="2.326" stroke="black" fill="none" stroke-linecap="round"></path><path d="M 810.000,252.000 C 824.522,257.521 820.518,259.213 830.000,268.000" stroke-width="2.268" stroke="black" fill="none" stroke-linecap="round"></path><path d="M 830.000,268.000 C 838.698,284.603 836.022,279.521 833.000,296.000" stroke-width="2.779" stroke="black" fill="none" stroke-linecap="round"></path><path d="M 833.000,296.000 C 819.447,316.403 823.698,314.603 800.000,328.000" stroke-width="1.695" stroke="black" fill="none" stroke-linecap="round"></path><path d="M 800.000,328.000 C 763.807,356.743 764.947,348.903 724.000,361.000" stroke-width="1.125" stroke="black" fill="none" stroke-linecap="round"></path><path d="M 724.000,361.000 C 666.802,358.413 670.307,366.743 613.000,348.000" stroke-width="1.224" stroke="black" fill="none" stroke-linecap="round"></path><path d="M 613.000,348.000 C 603.600,344.357 604.802,346.413 600.000,337.000" stroke-width="2.023" stroke="black" fill="none" stroke-linecap="round"></path><path d="M 600.000,337.000 C 587.588,318.626 592.100,320.857 590.000,301.000" stroke-width="1.775" stroke="black" fill="none" stroke-linecap="round"></path><path d="M 590.000,301.000 C 589.506,258.036 594.088,271.126 613.000,242.000" stroke-width="1.321" stroke="black" fill="none" stroke-linecap="round"></path><path d="M 613.000,242.000 C 664.095,223.898 652.506,215.036 716.000,215.000" stroke-width="1.349" stroke="black" fill="none" stroke-linecap="round"></path><path d="M 716.000,215.000 C 734.710,215.561 734.095,211.898 753.000,218.000" stroke-width="1.657" stroke="black" fill="none" stroke-linecap="round"></path><path d="M 753.000,218.000 C 758.617,217.776 757.210,218.561 761.000,221.000" stroke-width="2.717" stroke="black" fill="none" stroke-linecap="round"></path><path d="M 761.000,221.000 C 771.426,231.731 767.117,229.276 770.000,241.000" stroke-width="2.466" stroke="black" fill="none" stroke-linecap="round"></path><path d="M 770.000,241.000 C 763.695,251.623 768.426,251.231 755.000,260.000" stroke-width="2.302" stroke="black" fill="none" stroke-linecap="round"></path><path d="M 755.000,260.000 C 727.273,300.265 722.695,291.123 688.000,320.000" stroke-width="1.125" stroke="black" fill="none" stroke-linecap="round"></path><path d="M 688.000,320.000 C 622.359,342.422 627.773,350.265 556.000,360.000" stroke-width="1.125" stroke="black" fill="none" stroke-linecap="round"></path><path d="M 556.000,360.000 C 546.390,361.174 546.859,362.422 537.000,360.000" stroke-width="1.401" stroke="black" fill="none" stroke-linecap="round"></path><path d="M 537.000,360.000 C 513.085,363.940 518.390,357.674 500.000,353.000" stroke-width="1.670" stroke="black" fill="none" stroke-linecap="round"></path><path d="M 500.000,353.000 C 477.963,332.341 482.585,338.440 476.000,309.000" stroke-width="1.441" stroke="black" fill="none" stroke-linecap="round"></path><path d="M 476.000,309.000 C 470.635,268.167 473.463,278.841 491.000,246.000" stroke-width="1.196" stroke="black" fill="none" stroke-linecap="round"></path><path d="M 491.000,246.000 C 537.688,210.706 527.135,206.667 589.000,186.000" stroke-width="1.256" stroke="black" fill="none" stroke-linecap="round"></path><path d="M 589.000,186.000 C 620.617,173.397 618.688,171.706 653.000,168.000" stroke-width="1.215" stroke="black" fill="none" stroke-linecap="round"></path><path d="M 653.000,168.000 C 669.337,166.841 668.617,165.397 685.000,170.000" stroke-width="1.650" stroke="black" fill="none" stroke-linecap="round"></path><path d="M 685.000,170.000 C 729.498,178.141 728.837,178.841 772.000,192.000" stroke-width="1.125" stroke="black" fill="none" stroke-linecap="round"></path><path d="M 772.000,192.000 C 797.875,202.751 798.498,200.641 823.000,215.000" stroke-width="1.162" stroke="black" fill="none" stroke-linecap="round"></path><path d="M 823.000,215.000 C 840.855,219.618 837.875,222.251 852.000,231.000" stroke-width="1.600" stroke="black" fill="none" stroke-linecap="round"></path><path d="M 852.000,231.000 C 873.991,247.182 864.355,243.618 870.000,263.000" stroke-width="1.722" stroke="black" fill="none" stroke-linecap="round"></path><path d="M 870.000,263.000 C 857.797,311.364 860.491,300.682 825.000,338.000" stroke-width="1.591" stroke="black" fill="none" stroke-linecap="round"></path><path d="M 825.000,338.000 C 759.715,383.012 767.297,384.864 689.000,410.000" stroke-width="1.125" stroke="black" fill="none" stroke-linecap="round"></path><path d="M 689.000,410.000 C 653.569,416.799 656.215,422.512 618.000,417.000" stroke-width="1.125" stroke="black" fill="none" stroke-linecap="round"></path><path d="M 618.000,417.000 C 564.935,414.827 565.069,417.299 512.000,411.000" stroke-width="1.125" stroke="black" fill="none" stroke-linecap="round"></path><path d="M 512.000,411.000 C 482.046,407.072 481.935,408.827 452.000,405.000" stroke-width="1.371" stroke="black" fill="none" stroke-linecap="round"></path><path d="M 452.000,405.000 C 438.443,405.689 438.546,404.072 425.000,405.000" stroke-width="1.849" stroke="black" fill="none" stroke-linecap="round"></path><path d="M 425.000,405.000 C 418.481,405.132 418.943,404.689 413.000,403.000" stroke-width="2.622" stroke="black" fill="none" stroke-linecap="round"></path><path d="M 413.000,403.000 C 405.700,401.334 409.481,401.632 407.000,398.000" stroke-width="3.378" stroke="black" fill="none" stroke-linecap="round"></path><path d="M 407.000,398.000 C 413.101,361.379 417.200,371.834 436.000,344.000" stroke-width="2.285" stroke="black" fill="none" stroke-linecap="round"></path><path d="M 436.000,344.000 C 476.292,322.334 469.101,318.879 519.000,313.000" stroke-width="1.125" stroke="black" fill="none" stroke-linecap="round"></path><path d="M 519.000,313.000 C 552.998,311.911 551.792,305.834 587.000,311.000" stroke-width="1.125" stroke="black" fill="none" stroke-linecap="round"></path><path d="M 587.000,311.000 C 609.140,312.071 608.998,310.411 631.000,310.000" stroke-width="1.344" stroke="black" fill="none" stroke-linecap="round"></path><path d="M 631.000,310.000 C 669.842,303.474 656.640,307.571 682.000,302.000" stroke-width="1.844" stroke="black" fill="none" stroke-linecap="round"></path><path d="M 682.000,302.000 C 672.877,303.518 686.342,301.474 664.000,306.000" stroke-width="3.011" stroke="black" fill="none" stroke-linecap="round"></path><path d="M 664.000,306.000 C 613.144,317.895 613.877,320.018 564.000,335.000" stroke-width="1.125" stroke="black" fill="none" stroke-linecap="round"></path><path d="M 564.000,335.000 C 423.856,396.682 420.644,384.895 279.000,440.000" stroke-width="1.125" stroke="black" fill="none" stroke-linecap="round"></path><path d="M 279.000,440.000 C 212.759,452.287 214.856,459.182 146.000,460.000" stroke-width="1.125" stroke="black" fill="none" stroke-linecap="round"></path><path d="M 146.000,460.000 C 50.007,493.364 87.259,466.787 28.000,469.000" stroke-width="1.125" stroke="black" fill="none" stroke-linecap="round"></path><path d="M 28.000,469.000 C 29.827,400.897 8.007,446.864 62.000,367.000" stroke-width="1.450" stroke="black" fill="none" stroke-linecap="round"></path><path d="M 62.000,367.000 C 100.599,355.896 85.827,341.897 140.000,351.000" stroke-width="1.125" stroke="black" fill="none" stroke-linecap="round"></path><path d="M 140.000,351.000 C 185.547,349.186 185.099,345.396 231.000,346.000" stroke-width="1.125" stroke="black" fill="none" stroke-linecap="round"></path><path d="M 231.000,346.000 C 292.432,339.913 292.547,341.686 354.000,336.000" stroke-width="1.125" stroke="black" fill="none" stroke-linecap="round"></path><path d="M 354.000,336.000 C 410.477,332.751 410.432,332.413 467.000,331.000" stroke-width="1.125" stroke="black" fill="none" stroke-linecap="round"></path><path d="M 467.000,331.000 C 523.507,328.741 523.477,329.251 580.000,329.000" stroke-width="1.125" stroke="black" fill="none" stroke-linecap="round"></path><path d="M 580.000,329.000 C 632.548,329.528 632.507,329.241 685.000,332.000" stroke-width="1.125" stroke="black" fill="none" stroke-linecap="round"></path><path d="M 685.000,332.000 C 728.002,334.977 728.048,334.028 771.000,338.000" stroke-width="1.125" stroke="black" fill="none" stroke-linecap="round"></path><path d="M 771.000,338.000 C 792.053,339.005 792.002,339.477 813.000,341.000" stroke-width="1.281" stroke="black" fill="none" stroke-linecap="round"></path><path d="M 813.000,341.000 C 823.577,342.139 823.553,342.005 834.000,344.000" stroke-width="1.946" stroke="black" fill="none" stroke-linecap="round"></path><path d="M 834.000,344.000 C 843.310,343.992 837.577,344.639 841.000,346.000" stroke-width="2.983" stroke="black" fill="none" stroke-linecap="round"></path><path d="M 841.000,346.000 C 818.092,372.697 820.310,363.992 788.000,384.000" stroke-width="2.603" stroke="black" fill="none" stroke-linecap="round"></path><path d="M 788.000,384.000 C 712.847,408.019 715.592,411.197 636.000,423.000" stroke-width="1.125" stroke="black" fill="none" stroke-linecap="round"></path><path d="M 636.000,423.000 C 573.680,433.044 574.347,435.019 511.000,438.000" stroke-width="1.125" stroke="black" fill="none" stroke-linecap="round"></path><path d="M 511.000,438.000 C 466.004,439.737 466.180,441.544 421.000,440.000" stroke-width="1.125" stroke="black" fill="none" stroke-linecap="round"></path><path d="M 421.000,440.000 C 380.463,440.190 380.504,440.237 340.000,439.000" stroke-width="1.125" stroke="black" fill="none" stroke-linecap="round"></path><path d="M 340.000,439.000 C 329.511,437.779 329.463,438.690 319.000,437.000" stroke-width="1.644" stroke="black" fill="none" stroke-linecap="round"></path><path d="M 319.000,437.000 C 311.636,439.163 316.011,436.779 313.000,437.000" stroke-width="2.850" stroke="black" fill="none" stroke-linecap="round"></path><path d="M 313.000,437.000 C 324.173,405.947 326.136,416.163 348.000,391.000" stroke-width="2.200" stroke="black" fill="none" stroke-linecap="round"></path><path d="M 348.000,391.000 C 411.897,365.417 404.673,355.447 474.000,336.000" stroke-width="1.125" stroke="black" fill="none" stroke-linecap="round"></path><path d="M 474.000,336.000 C 560.405,284.602 563.897,293.417 652.000,247.000" stroke-width="1.125" stroke="black" fill="none" stroke-linecap="round"></path><path d="M 652.000,247.000 C 706.149,235.128 702.905,226.102 759.000,219.000" stroke-width="1.125" stroke="black" fill="none" stroke-linecap="round"></path><path d="M 759.000,219.000 C 811.251,197.860 812.649,202.628 865.000,182.000" stroke-width="1.125" stroke="black" fill="none" stroke-linecap="round"></path><path d="M 865.000,182.000 C 903.429,172.176 902.751,170.860 942.000,165.000" stroke-width="1.125" stroke="black" fill="none" stroke-linecap="round"></path><path d="M 942.000,165.000 C 947.259,163.921 946.429,164.176 951.000,166.000" stroke-width="1.881" stroke="black" fill="none" stroke-linecap="round"></path><path d="M 951.000,166.000 C 958.911,169.555 956.259,168.921 960.000,175.000" stroke-width="2.652" stroke="black" fill="none" stroke-linecap="round"></path><path d="M 960.000,175.000 C 961.544,185.118 961.411,182.055 956.000,191.000" stroke-width="2.733" stroke="black" fill="none" stroke-linecap="round"></path><path d="M 956.000,191.000 C 921.072,231.970 920.544,228.618 878.000,262.000" stroke-width="1.125" stroke="black" fill="none" stroke-linecap="round"></path><path d="M 878.000,262.000 C 792.053,314.969 795.572,319.470 705.000,366.000" stroke-width="1.125" stroke="black" fill="none" stroke-linecap="round"></path><path d="M 705.000,366.000 C 676.649,384.710 676.053,382.969 646.000,398.000" stroke-width="1.125" stroke="black" fill="none" stroke-linecap="round"></path><path d="M 646.000,398.000 C 618.610,405.584 620.149,409.210 592.000,415.000" stroke-width="1.125" stroke="black" fill="none" stroke-linecap="round"></path><path d="M 592.000,415.000 C 576.434,422.188 586.110,417.084 581.000,421.000" stroke-width="2.021" stroke="black" fill="none" stroke-linecap="round"></path><path d="M 581.000,421.000 C 625.167,413.798 612.934,412.688 665.000,396.000" stroke-width="2.037" stroke="black" fill="none" stroke-linecap="round"></path><path d="M 665.000,396.000 C 738.495,351.535 742.667,361.298 816.000,316.000" stroke-width="1.125" stroke="black" fill="none" stroke-linecap="round"></path><path d="M 816.000,316.000 C 880.527,296.011 876.995,288.035 942.000,269.000" stroke-width="1.125" stroke="black" fill="none" stroke-linecap="round"></path><path d="M 942.000,269.000 C 1010.627,233.523 1012.527,238.011 1080.000,200.000" stroke-width="1.125" stroke="black" fill="none" stroke-linecap="round"></path><path d="M 1080.000,200.000 C 1089.718,193.636 1085.127,197.523 1091.000,197.000" stroke-width="1.345" stroke="black" fill="none" stroke-linecap="round"></path><path d="M 1091.000,197.000 C 1096.519,213.461 1093.718,204.136 1088.000,221.000" stroke-width="2.279" stroke="black" fill="none" stroke-linecap="round"></path><path d="M 1088.000,221.000 C 1043.341,244.002 1053.019,251.961 1004.000,274.000" stroke-width="1.125" stroke="black" fill="none" stroke-linecap="round"></path><path d="M 1004.000,274.000 C 969.017,312.636 963.341,305.002 928.000,343.000" stroke-width="1.125" stroke="black" fill="none" stroke-linecap="round"></path><path d="M 928.000,343.000 C 888.704,365.033 892.017,369.636 850.000,388.000" stroke-width="1.125" stroke="black" fill="none" stroke-linecap="round"></path><path d="M 850.000,388.000 C 843.575,392.617 843.204,392.033 837.000,397.000" stroke-width="1.719" stroke="black" fill="none" stroke-linecap="round"></path><path d="M 837.000,397.000 C 829.912,401.368 834.575,398.617 832.000,400.000" stroke-width="2.904" stroke="black" fill="none" stroke-linecap="round"></path><path d="M 832.000,400.000 C 862.167,377.071 858.912,382.368 895.000,359.000" stroke-width="2.411" stroke="black" fill="none" stroke-linecap="round"></path><path d="M 895.000,359.000 C 928.281,344.581 926.667,341.571 961.000,329.000" stroke-width="1.283" stroke="black" fill="none" stroke-linecap="round"></path><path d="M 961.000,329.000 C 980.070,317.541 980.781,319.581 1000.000,309.000" stroke-width="1.430" stroke="black" fill="none" stroke-linecap="round"></path></svg>