<svg xmlns="http://www.w3.org/2000/svg" xmlns:xlink="http://www.w3.org/1999/xlink" viewBox="0 0 1460 576" width="1460" height="576"><path d="M 507.000,178.000 C 509.395,176.302 509.500,176.500 512.000,175.000" stroke-width="5.116" stroke="black" fill="none" stroke-linecap="round"></path><path d="M 512.000,175.000 C 518.320,171.534 518.395,171.802 525.000,169.000" stroke-width="3.473" stroke="black" fill="none" stroke-linecap="round"></path><path d="M 525.000,169.000 C 532.871,165.971 532.820,166.034 541.000,164.000" stroke-width="2.998" stroke="black" fill="none" stroke-linecap="round"></path><path d="M 541.000,164.000 C 549.442,161.503 549.371,161.971 558.000,161.000" stroke-width="2.787" stroke="black" fill="none" stroke-linecap="round"></path><path d="M 558.000,161.000 C 567.475,158.675 566.442,160.503 575.000,162.000" stroke-width="2.803" stroke="black" fill="none" stroke-linecap="round"></path><path d="M 575.000,162.000 C 590.667,169.000 588.975,168.175 601.000,180.000" stroke-width="2.880" stroke="black" fill="none" stroke-linecap="round"></path><path d="M 601.000,180.000 C 604.166,187.358 606.167,185.500 606.000,195.000" stroke-width="2.844" stroke="black" fill="none" stroke-linecap="round"></path><path d="M 606.000,195.000 C 607.876,200.117 607.166,199.858 607.000,205.000" stroke-width="3.246" stroke="black" fill="none" stroke-linecap="round"></path><path d="M 607.000,205.000 C 603.607,219.760 604.376,219.617 599.000,234.000" stroke-width="3.058" stroke="black" fill="none" stroke-linecap="round"></path><path d="M 599.000,234.000 C 593.755,239.330 598.107,236.760 596.000,239.000" stroke-width="4.100" stroke="black" fill="none" stroke-linecap="round"></path><path d="M 596.000,239.000 C 614.304,232.936 610.755,236.830 633.000,229.000" stroke-width="3.390" stroke="black" fill="none" stroke-linecap="round"></path><path d="M 633.000,229.000 C 642.976,227.528 642.804,226.936 653.000,227.000" stroke-width="2.777" stroke="black" fill="none" stroke-linecap="round"></path><path d="M 653.000,227.000 C 662.000,227.000 661.976,226.528 671.000,227.000" stroke-width="2.746" stroke="black" fill="none" stroke-linecap="round"></path><path d="M 671.000,227.000 C 681.513,227.403 681.500,227.000 692.000,227.000" stroke-width="2.519" stroke="black" fill="none" stroke-linecap="round"></path><path d="M 692.000,227.000 C 707.490,225.705 707.513,226.403 723.000,225.000" stroke-width="2.772" stroke="black" fill="none" stroke-linecap="round"></path><path d="M 723.000,225.000 C 729.519,224.691 729.490,224.705 736.000,225.000" stroke-width="3.100" stroke="black" fill="none" stroke-linecap="round"></path><path d="M 736.000,225.000 C 740.228,224.839 740.019,225.191 744.000,226.000" stroke-width="3.522" stroke="black" fill="none" stroke-linecap="round"></path><path d="M 744.000,226.000 C 746.419,229.615 746.728,226.839 749.000,229.000" stroke-width="3.964" stroke="black" fill="none" stroke-linecap="round"></path><path d="M 749.000,229.000 C 756.208,222.034 756.919,227.115 765.000,221.000" stroke-width="4.778" stroke="black" fill="none" stroke-linecap="round"></path><path d="M 765.000,221.000 C 816.501,216.003 815.708,215.034 868.000,215.000" stroke-width="1.125" stroke="black" fill="none" stroke-linecap="round"></path><path d="M 868.000,215.000 C 893.471,217.279 893.501,214.503 919.000,218.000" stroke-width="1.221" stroke="black" fill="none" stroke-linecap="round"></path><path d="M 919.000,218.000 C 982.000,219.010 981.971,219.779 1045.000,220.000" stroke-width="1.125" stroke="black" fill="none" stroke-linecap="round"></path><path d="M 1045.000,220.000 C 1077.500,220.561 1077.500,220.510 1110.000,221.000" stroke-width="1.125" stroke="black" fill="none" stroke-linecap="round"></path><path d="M 1110.000,221.000 C 1114.500,221.000 1114.500,221.061 1119.000,221.000" stroke-width="2.054" stroke="black" fill="none" stroke-linecap="round"></path><path d="M 1119.000,221.000 C 1143.500,221.000 1143.500,221.000 1168.000,221.000" stroke-width="1.589" stroke="black" fill="none" stroke-linecap="round"></path><path d="M 1168.000,221.000 C 1183.500,221.000 1183.500,221.000 1199.000,221.000" stroke-width="1.851" stroke="black" fill="none" stroke-linecap="round"></path><path d="M 1199.000,221.000 C 1206.004,220.806 1206.000,221.000 1213.000,221.000" stroke-width="2.529" stroke="black" fill="none" stroke-linecap="round"></path><path d="M 1213.000,221.000 C 1224.074,220.943 1224.004,221.306 1235.000,222.000" stroke-width="2.474" stroke="black" fill="none" stroke-linecap="round"></path><path d="M 1235.000,222.000 C 1239.594,222.678 1239.574,222.443 1244.000,224.000" stroke-width="3.150" stroke="black" fill="none" stroke-linecap="round"></path><path d="M 1244.000,224.000 C 1249.482,226.052 1249.594,225.678 1255.000,228.000" stroke-width="3.567" stroke="black" fill="none" stroke-linecap="round"></path><path d="M 1255.000,228.000 C 1261.220,228.681 1257.982,229.052 1261.000,230.000" stroke-width="4.316" stroke="black" fill="none" stroke-linecap="round"></path><path d="M 1261.000,230.000 C 1257.843,232.940 1260.720,231.681 1254.000,234.000" stroke-width="4.909" stroke="black" fill="none" stroke-linecap="round"></path><path d="M 1254.000,234.000 C 1243.070,236.524 1243.343,236.940 1232.000,238.000" stroke-width="2.782" stroke="black" fill="none" stroke-linecap="round"></path><path d="M 1232.000,238.000 C 1220.520,239.322 1220.570,239.524 1209.000,240.000" stroke-width="2.428" stroke="black" fill="none" stroke-linecap="round"></path><path d="M 1209.000,240.000 C 1195.006,240.837 1195.020,240.822 1181.000,241.000" stroke-width="2.146" stroke="black" fill="none" stroke-linecap="round"></path><path d="M 1181.000,241.000 C 1152.000,241.000 1152.006,241.337 1123.000,241.000" stroke-width="1.398" stroke="black" fill="none" stroke-linecap="round"></path><path d="M 1123.000,241.000 C 1086.977,239.928 1087.000,241.000 1051.000,241.000" stroke-width="1.155" stroke="black" fill="none" stroke-linecap="round"></path><path d="M 1051.000,241.000 C 969.476,244.026 969.477,243.428 888.000,248.000" stroke-width="1.125" stroke="black" fill="none" stroke-linecap="round"></path><path d="M 888.000,248.000 C 846.485,250.271 846.476,250.026 805.000,253.000" stroke-width="1.125" stroke="black" fill="none" stroke-linecap="round"></path><path d="M 805.000,253.000 C 770.509,255.640 770.485,255.271 736.000,258.000" stroke-width="1.125" stroke="black" fill="none" stroke-linecap="round"></path><path d="M 736.000,258.000 C 711.769,257.693 712.009,259.640 688.000,261.000" stroke-width="1.302" stroke="black" fill="none" stroke-linecap="round"></path><path d="M 688.000,261.000 C 653.907,265.590 654.269,265.693 621.000,274.000" stroke-width="1.654" stroke="black" fill="none" stroke-linecap="round"></path><path d="M 621.000,274.000 C 609.591,279.227 608.907,277.090 598.000,284.000" stroke-width="1.996" stroke="black" fill="none" stroke-linecap="round"></path><path d="M 598.000,284.000 C 592.635,286.483 592.591,286.227 587.000,288.000" stroke-width="2.734" stroke="black" fill="none" stroke-linecap="round"></path><path d="M 587.000,288.000 C 579.542,289.923 579.635,289.983 572.000,291.000" stroke-width="3.446" stroke="black" fill="none" stroke-linecap="round"></path><path d="M 572.000,291.000 C 568.921,291.487 569.042,291.423 566.000,291.000" stroke-width="4.416" stroke="black" fill="none" stroke-linecap="round"></path><path d="M 566.000,291.000 C 563.022,289.930 562.921,290.487 560.000,289.000" stroke-width="5.054" stroke="black" fill="none" stroke-linecap="round"></path><path d="M 560.000,289.000 C 556.450,288.150 556.522,287.930 553.000,287.000" stroke-width="4.095" stroke="black" fill="none" stroke-linecap="round"></path><path d="M 553.000,287.000 C 549.132,284.775 548.950,285.650 545.000,284.000" stroke-width="3.786" stroke="black" fill="none" stroke-linecap="round"></path></svg>