<svg xmlns="http://www.w3.org/2000/svg" xmlns:xlink="http://www.w3.org/1999/xlink" viewBox="0 0 453 236" width="453" height="236"><path d="M 122.500,139.000 C 118.956,137.074 119.000,137.000 115.500,135.000" stroke-width="5.250" stroke="black" fill="none" stroke-linecap="round"></path><path d="M 115.500,135.000 C 111.372,132.681 111.456,132.574 107.500,130.000" stroke-width="4.688" stroke="black" fill="none" stroke-linecap="round"></path><path d="M 107.500,130.000 C 105.128,127.819 104.872,128.181 102.500,126.000" stroke-width="4.197" stroke="black" fill="none" stroke-linecap="round"></path><path d="M 102.500,126.000 C 98.544,123.426 98.628,123.319 94.500,121.000" stroke-width="4.299" stroke="black" fill="none" stroke-linecap="round"></path><path d="M 94.500,121.000 C 91.097,118.799 91.044,118.926 87.500,117.000" stroke-width="4.452" stroke="black" fill="none" stroke-linecap="round"></path><path d="M 87.500,117.000 C 82.500,116.000 85.097,115.799 82.500,115.000" stroke-width="4.872" stroke="black" fill="none" stroke-linecap="round"></path><path d="M 82.500,115.000 C 84.949,113.850 82.500,114.000 87.500,113.000" stroke-width="5.215" stroke="black" fill="none" stroke-linecap="round"></path><path d="M 87.500,113.000 C 91.079,112.222 90.949,111.850 94.500,111.000" stroke-width="4.191" stroke="black" fill="none" stroke-linecap="round"></path><path d="M 94.500,111.000 C 98.000,109.500 98.079,109.722 101.500,108.000" stroke-width="3.918" stroke="black" fill="none" stroke-linecap="round"></path><path d="M 101.500,108.000 C 105.011,106.526 105.000,106.500 108.500,105.000" stroke-width="4.353" stroke="black" fill="none" stroke-linecap="round"></path><path d="M 108.500,105.000 C 113.186,103.353 113.011,103.026 117.500,101.000" stroke-width="3.767" stroke="black" fill="none" stroke-linecap="round"></path><path d="M 117.500,101.000 C 123.988,96.980 124.186,97.353 130.500,93.000" stroke-width="3.166" stroke="black" fill="none" stroke-linecap="round"></path><path d="M 130.500,93.000 C 133.041,91.565 132.988,91.480 135.500,90.000" stroke-width="4.009" stroke="black" fill="none" stroke-linecap="round"></path><path d="M 135.500,90.000 C 138.567,88.095 138.541,88.065 141.500,86.000" stroke-width="3.967" stroke="black" fill="none" stroke-linecap="round"></path><path d="M 141.500,86.000 C 147.000,80.000 145.567,83.095 149.500,80.000" stroke-width="4.206" stroke="black" fill="none" stroke-linecap="round"></path><path d="M 149.500,80.000 C 150.353,83.227 151.000,80.000 149.500,86.000" stroke-width="4.967" stroke="black" fill="none" stroke-linecap="round"></path><path d="M 149.500,86.000 C 147.476,89.487 148.353,89.727 145.500,93.000" stroke-width="4.039" stroke="black" fill="none" stroke-linecap="round"></path><path d="M 145.500,93.000 C 143.079,97.546 142.976,97.487 140.500,102.000" stroke-width="3.587" stroke="black" fill="none" stroke-linecap="round"></path><path d="M 140.500,102.000 C 137.613,107.071 137.579,107.046 134.500,112.000" stroke-width="3.408" stroke="black" fill="none" stroke-linecap="round"></path><path d="M 134.500,112.000 C 131.812,116.741 131.613,116.571 128.500,121.000" stroke-width="3.371" stroke="black" fill="none" stroke-linecap="round"></path><path d="M 128.500,121.000 C 124.625,125.618 124.812,125.741 120.500,130.000" stroke-width="3.256" stroke="black" fill="none" stroke-linecap="round"></path><path d="M 120.500,130.000 C 116.625,134.133 116.625,134.118 112.500,138.000" stroke-width="3.283" stroke="black" fill="none" stroke-linecap="round"></path><path d="M 112.500,138.000 C 108.383,141.375 108.625,141.633 104.500,145.000" stroke-width="3.406" stroke="black" fill="none" stroke-linecap="round"></path><path d="M 104.500,145.000 C 101.000,148.500 100.883,148.375 97.500,152.000" stroke-width="3.454" stroke="black" fill="none" stroke-linecap="round"></path><path d="M 97.500,152.000 C 94.728,155.269 94.500,155.000 91.500,158.000" stroke-width="3.606" stroke="black" fill="none" stroke-linecap="round"></path><path d="M 91.500,158.000 C 87.907,160.379 88.228,160.769 84.500,163.000" stroke-width="3.642" stroke="black" fill="none" stroke-linecap="round"></path><path d="M 84.500,163.000 C 81.698,165.786 81.407,165.379 78.500,168.000" stroke-width="3.788" stroke="black" fill="none" stroke-linecap="round"></path><path d="M 78.500,168.000 C 75.056,170.104 75.198,170.286 71.500,172.000" stroke-width="3.807" stroke="black" fill="none" stroke-linecap="round"></path><path d="M 71.500,172.000 C 67.551,174.110 67.556,174.104 63.500,176.000" stroke-width="3.721" stroke="black" fill="none" stroke-linecap="round"></path><path d="M 63.500,176.000 C 60.079,177.722 60.051,177.610 56.500,179.000" stroke-width="3.834" stroke="black" fill="none" stroke-linecap="round"></path><path d="M 56.500,179.000 C 52.978,179.930 53.079,180.222 49.500,181.000" stroke-width="3.856" stroke="black" fill="none" stroke-linecap="round"></path><path d="M 49.500,181.000 C 46.558,182.235 46.478,181.930 43.500,183.000" stroke-width="4.024" stroke="black" fill="none" stroke-linecap="round"></path><path d="M 43.500,183.000 C 40.510,183.570 40.558,183.735 37.500,184.000" stroke-width="4.106" stroke="black" fill="none" stroke-linecap="round"></path><path d="M 37.500,184.000 C 32.127,186.576 33.510,184.570 29.500,185.000" stroke-width="4.388" stroke="black" fill="none" stroke-linecap="round"></path><path d="M 29.500,185.000 C 26.441,180.966 27.127,183.576 27.500,178.000" stroke-width="4.908" stroke="black" fill="none" stroke-linecap="round"></path><path d="M 27.500,178.000 C 30.876,174.366 28.941,173.966 34.500,171.000" stroke-width="3.876" stroke="black" fill="none" stroke-linecap="round"></path><path d="M 34.500,171.000 C 37.902,167.878 37.876,167.866 41.500,165.000" stroke-width="3.655" stroke="black" fill="none" stroke-linecap="round"></path><path d="M 41.500,165.000 C 45.417,161.882 45.402,161.878 49.500,159.000" stroke-width="3.518" stroke="black" fill="none" stroke-linecap="round"></path><path d="M 49.500,159.000 C 54.000,156.000 53.917,155.882 58.500,153.000" stroke-width="3.461" stroke="black" fill="none" stroke-linecap="round"></path><path d="M 58.500,153.000 C 62.777,149.598 63.000,150.000 67.500,147.000" stroke-width="3.387" stroke="black" fill="none" stroke-linecap="round"></path><path d="M 67.500,147.000 C 73.046,144.597 72.777,144.098 78.500,142.000" stroke-width="3.257" stroke="black" fill="none" stroke-linecap="round"></path><path d="M 78.500,142.000 C 83.370,139.198 83.546,139.597 88.500,137.000" stroke-width="3.295" stroke="black" fill="none" stroke-linecap="round"></path><path d="M 88.500,137.000 C 93.928,134.773 93.870,134.698 99.500,133.000" stroke-width="3.320" stroke="black" fill="none" stroke-linecap="round"></path><path d="M 99.500,133.000 C 105.000,131.500 104.928,131.273 110.500,130.000" stroke-width="3.353" stroke="black" fill="none" stroke-linecap="round"></path><path d="M 110.500,130.000 C 115.946,128.262 116.000,128.500 121.500,127.000" stroke-width="3.305" stroke="black" fill="none" stroke-linecap="round"></path><path d="M 121.500,127.000 C 127.009,126.046 126.946,125.762 132.500,125.000" stroke-width="3.309" stroke="black" fill="none" stroke-linecap="round"></path><path d="M 132.500,125.000 C 137.603,124.360 137.509,124.046 142.500,123.000" stroke-width="3.397" stroke="black" fill="none" stroke-linecap="round"></path><path d="M 142.500,123.000 C 146.535,121.586 146.603,121.860 150.500,120.000" stroke-width="3.632" stroke="black" fill="none" stroke-linecap="round"></path><path d="M 150.500,120.000 C 153.985,118.464 154.035,118.586 157.500,117.000" stroke-width="3.756" stroke="black" fill="none" stroke-linecap="round"></path><path d="M 157.500,117.000 C 160.099,116.200 159.985,115.964 162.500,115.000" stroke-width="4.103" stroke="black" fill="none" stroke-linecap="round"></path><path d="M 162.500,115.000 C 167.500,113.067 165.099,113.700 167.500,112.000" stroke-width="4.555" stroke="black" fill="none" stroke-linecap="round"></path><path d="M 167.500,112.000 C 164.942,110.569 167.500,111.067 162.500,111.000" stroke-width="5.047" stroke="black" fill="none" stroke-linecap="round"></path><path d="M 162.500,111.000 C 156.430,112.815 156.442,112.069 150.500,115.000" stroke-width="4.318" stroke="black" fill="none" stroke-linecap="round"></path><path d="M 150.500,115.000 C 146.900,116.300 146.930,116.315 143.500,118.000" stroke-width="4.005" stroke="black" fill="none" stroke-linecap="round"></path><path d="M 143.500,118.000 C 139.982,119.969 139.900,119.800 136.500,122.000" stroke-width="3.871" stroke="black" fill="none" stroke-linecap="round"></path><path d="M 136.500,122.000 C 133.883,123.332 133.982,123.469 131.500,125.000" stroke-width="4.088" stroke="black" fill="none" stroke-linecap="round"></path><path d="M 131.500,125.000 C 129.000,127.000 128.883,126.832 126.500,129.000" stroke-width="4.038" stroke="black" fill="none" stroke-linecap="round"></path><path d="M 126.500,129.000 C 123.978,130.973 124.000,131.000 121.500,133.000" stroke-width="4.072" stroke="black" fill="none" stroke-linecap="round"></path><path d="M 121.500,133.000 C 116.359,135.137 118.478,135.473 115.500,138.000" stroke-width="4.394" stroke="black" fill="none" stroke-linecap="round"></path><path d="M 115.500,138.000 C 116.192,141.741 114.859,140.137 118.500,143.000" stroke-width="4.909" stroke="black" fill="none" stroke-linecap="round"></path><path d="M 118.500,143.000 C 122.484,143.764 121.692,144.741 126.500,144.000" stroke-width="4.650" stroke="black" fill="none" stroke-linecap="round"></path><path d="M 126.500,144.000 C 131.237,145.003 130.984,144.264 135.500,144.000" stroke-width="4.486" stroke="black" fill="none" stroke-linecap="round"></path><path d="M 135.500,144.000 C 139.807,142.462 139.737,143.003 143.500,140.000" stroke-width="4.463" stroke="black" fill="none" stroke-linecap="round"></path><path d="M 143.500,140.000 C 148.090,137.615 147.307,137.462 150.500,134.000" stroke-width="4.660" stroke="black" fill="none" stroke-linecap="round"></path><path d="M 150.500,134.000 C 151.765,130.917 152.090,131.615 151.500,128.000" stroke-width="4.997" stroke="black" fill="none" stroke-linecap="round"></path><path d="M 151.500,128.000 C 151.457,124.087 151.265,125.417 149.500,123.000" stroke-width="5.196" stroke="black" fill="none" stroke-linecap="round"></path><path d="M 149.500,123.000 C 145.978,122.732 146.957,121.587 142.500,123.000" stroke-width="4.794" stroke="black" fill="none" stroke-linecap="round"></path><path d="M 142.500,123.000 C 138.010,122.238 139.478,123.232 136.500,124.000" stroke-width="4.961" stroke="black" fill="none" stroke-linecap="round"></path><path d="M 136.500,124.000 C 134.958,128.017 135.010,125.738 136.500,130.000" stroke-width="5.160" stroke="black" fill="none" stroke-linecap="round"></path><path d="M 136.500,130.000 C 139.853,132.218 138.458,132.517 143.500,133.000" stroke-width="4.962" stroke="black" fill="none" stroke-linecap="round"></path><path d="M 143.500,133.000 C 147.047,133.432 146.853,133.718 150.500,133.000" stroke-width="4.714" stroke="black" fill="none" stroke-linecap="round"></path><path d="M 150.500,133.000 C 155.081,132.263 155.047,132.432 159.500,131.000" stroke-width="4.508" stroke="black" fill="none" stroke-linecap="round"></path><path d="M 159.500,131.000 C 162.099,130.200 162.081,130.263 164.500,129.000" stroke-width="4.294" stroke="black" fill="none" stroke-linecap="round"></path><path d="M 164.500,129.000 C 167.041,127.565 167.099,127.700 169.500,126.000" stroke-width="4.220" stroke="black" fill="none" stroke-linecap="round"></path><path d="M 169.500,126.000 C 172.500,124.000 172.541,124.065 175.500,122.000" stroke-width="3.974" stroke="black" fill="none" stroke-linecap="round"></path><path d="M 175.500,122.000 C 178.860,120.400 178.500,120.000 181.500,118.000" stroke-width="3.957" stroke="black" fill="none" stroke-linecap="round"></path><path d="M 181.500,118.000 C 183.750,114.750 184.360,115.400 186.500,112.000" stroke-width="3.933" stroke="black" fill="none" stroke-linecap="round"></path><path d="M 186.500,112.000 C 189.750,109.750 189.250,109.250 192.500,107.000" stroke-width="3.825" stroke="black" fill="none" stroke-linecap="round"></path><path d="M 192.500,107.000 C 194.876,103.887 195.250,104.250 197.500,101.000" stroke-width="3.793" stroke="black" fill="none" stroke-linecap="round"></path><path d="M 197.500,101.000 C 200.000,98.500 199.876,98.387 202.500,96.000" stroke-width="3.868" stroke="black" fill="none" stroke-linecap="round"></path><path d="M 202.500,96.000 C 207.500,91.000 207.500,91.000 212.500,86.000" stroke-width="3.941" stroke="black" fill="none" stroke-linecap="round"></path><path d="M 212.500,86.000 C 215.727,83.200 215.500,83.000 218.500,80.000" stroke-width="3.751" stroke="black" fill="none" stroke-linecap="round"></path><path d="M 218.500,80.000 C 222.502,75.796 222.227,75.700 225.500,71.000" stroke-width="4.316" stroke="black" fill="none" stroke-linecap="round"></path><path d="M 225.500,71.000 C 229.719,65.707 227.502,67.796 228.500,64.000" stroke-width="4.005" stroke="black" fill="none" stroke-linecap="round"></path><path d="M 228.500,64.000 C 224.182,62.948 227.219,62.207 220.500,64.000" stroke-width="4.731" stroke="black" fill="none" stroke-linecap="round"></path><path d="M 220.500,64.000 C 217.256,65.703 217.182,64.948 214.500,68.000" stroke-width="4.156" stroke="black" fill="none" stroke-linecap="round"></path><path d="M 214.500,68.000 C 211.376,70.885 211.256,70.703 208.500,74.000" stroke-width="3.808" stroke="black" fill="none" stroke-linecap="round"></path><path d="M 208.500,74.000 C 205.519,77.516 205.376,77.385 202.500,81.000" stroke-width="3.694" stroke="black" fill="none" stroke-linecap="round"></path><path d="M 202.500,81.000 C 198.877,84.899 199.019,85.016 195.500,89.000" stroke-width="3.528" stroke="black" fill="none" stroke-linecap="round"></path><path d="M 195.500,89.000 C 192.391,93.866 191.877,93.399 188.500,98.000" stroke-width="3.566" stroke="black" fill="none" stroke-linecap="round"></path><path d="M 188.500,98.000 C 184.071,102.082 184.391,102.366 179.500,106.000" stroke-width="3.370" stroke="black" fill="none" stroke-linecap="round"></path><path d="M 179.500,106.000 C 173.451,110.942 173.571,111.082 167.500,116.000" stroke-width="2.985" stroke="black" fill="none" stroke-linecap="round"></path><path d="M 167.500,116.000 C 163.393,119.385 163.451,119.442 159.500,123.000" stroke-width="3.251" stroke="black" fill="none" stroke-linecap="round"></path><path d="M 159.500,123.000 C 156.385,125.893 156.393,125.885 153.500,129.000" stroke-width="3.537" stroke="black" fill="none" stroke-linecap="round"></path><path d="M 153.500,129.000 C 149.044,132.548 149.885,132.893 146.500,137.000" stroke-width="4.030" stroke="black" fill="none" stroke-linecap="round"></path><path d="M 146.500,137.000 C 143.843,142.448 145.044,139.548 145.500,143.000" stroke-width="4.508" stroke="black" fill="none" stroke-linecap="round"></path><path d="M 145.500,143.000 C 150.585,141.735 148.343,143.948 155.500,140.000" stroke-width="5.027" stroke="black" fill="none" stroke-linecap="round"></path><path d="M 155.500,140.000 C 159.213,138.878 159.085,138.735 162.500,137.000" stroke-width="4.169" stroke="black" fill="none" stroke-linecap="round"></path><path d="M 162.500,137.000 C 165.923,134.385 166.213,134.878 169.500,132.000" stroke-width="3.798" stroke="black" fill="none" stroke-linecap="round"></path><path d="M 169.500,132.000 C 173.341,129.202 173.423,129.385 177.500,127.000" stroke-width="3.613" stroke="black" fill="none" stroke-linecap="round"></path><path d="M 177.500,127.000 C 181.900,124.725 181.841,124.702 186.500,123.000" stroke-width="3.520" stroke="black" fill="none" stroke-linecap="round"></path><path d="M 186.500,123.000 C 189.970,121.882 189.900,121.725 193.500,121.000" stroke-width="4.258" stroke="black" fill="none" stroke-linecap="round"></path><path d="M 193.500,121.000 C 201.750,117.750 197.970,119.882 202.500,119.000" stroke-width="3.811" stroke="black" fill="none" stroke-linecap="round"></path><path d="M 202.500,119.000 C 199.613,122.604 203.250,120.250 196.500,126.000" stroke-width="4.569" stroke="black" fill="none" stroke-linecap="round"></path><path d="M 196.500,126.000 C 193.756,128.293 194.113,128.604 191.500,131.000" stroke-width="4.080" stroke="black" fill="none" stroke-linecap="round"></path><path d="M 191.500,131.000 C 185.526,136.051 188.756,134.293 186.500,138.000" stroke-width="4.375" stroke="black" fill="none" stroke-linecap="round"></path><path d="M 186.500,138.000 C 191.268,139.794 187.526,140.051 195.500,139.000" stroke-width="4.844" stroke="black" fill="none" stroke-linecap="round"></path><path d="M 195.500,139.000 C 199.069,137.111 199.268,138.294 202.500,135.000" stroke-width="4.075" stroke="black" fill="none" stroke-linecap="round"></path><path d="M 202.500,135.000 C 205.351,132.717 205.569,133.111 208.500,131.000" stroke-width="3.935" stroke="black" fill="none" stroke-linecap="round"></path><path d="M 208.500,131.000 C 211.099,130.200 210.851,129.717 213.500,129.000" stroke-width="4.165" stroke="black" fill="none" stroke-linecap="round"></path><path d="M 213.500,129.000 C 218.000,125.500 216.099,127.700 218.500,126.000" stroke-width="4.591" stroke="black" fill="none" stroke-linecap="round"></path><path d="M 218.500,126.000 C 214.967,129.400 219.000,126.500 215.500,131.000" stroke-width="5.050" stroke="black" fill="none" stroke-linecap="round"></path><path d="M 215.500,131.000 C 218.167,132.467 215.967,132.400 220.500,132.000" stroke-width="5.180" stroke="black" fill="none" stroke-linecap="round"></path><path d="M 220.500,132.000 C 225.724,128.776 223.167,131.467 225.500,129.000" stroke-width="5.087" stroke="black" fill="none" stroke-linecap="round"></path><path d="M 225.500,129.000 C 221.399,130.288 225.224,129.276 219.500,133.000" stroke-width="5.190" stroke="black" fill="none" stroke-linecap="round"></path><path d="M 219.500,133.000 C 219.044,136.008 217.899,135.288 218.500,139.000" stroke-width="5.171" stroke="black" fill="none" stroke-linecap="round"></path><path d="M 218.500,139.000 C 216.500,142.500 218.044,141.508 217.500,144.000" stroke-width="5.298" stroke="black" fill="none" stroke-linecap="round"></path><path d="M 217.500,144.000 C 220.140,145.545 218.500,145.500 222.500,145.000" stroke-width="5.336" stroke="black" fill="none" stroke-linecap="round"></path><path d="M 222.500,145.000 C 226.625,143.215 226.640,144.045 230.500,141.000" stroke-width="4.707" stroke="black" fill="none" stroke-linecap="round"></path><path d="M 230.500,141.000 C 233.500,139.000 233.625,139.215 236.500,137.000" stroke-width="4.094" stroke="black" fill="none" stroke-linecap="round"></path><path d="M 236.500,137.000 C 239.587,135.119 239.500,135.000 242.500,133.000" stroke-width="3.940" stroke="black" fill="none" stroke-linecap="round"></path><path d="M 242.500,133.000 C 245.022,131.027 245.087,131.119 247.500,129.000" stroke-width="3.994" stroke="black" fill="none" stroke-linecap="round"></path><path d="M 247.500,129.000 C 250.469,126.462 250.522,126.527 253.500,124.000" stroke-width="4.068" stroke="black" fill="none" stroke-linecap="round"></path><path d="M 253.500,124.000 C 258.645,120.162 258.469,119.962 263.500,116.000" stroke-width="4.080" stroke="black" fill="none" stroke-linecap="round"></path><path d="M 263.500,116.000 C 265.742,114.198 265.645,114.162 267.500,112.000" stroke-width="4.133" stroke="black" fill="none" stroke-linecap="round"></path><path d="M 267.500,112.000 C 269.228,108.777 269.742,109.198 271.500,106.000" stroke-width="3.951" stroke="black" fill="none" stroke-linecap="round"></path><path d="M 271.500,106.000 C 274.308,103.740 273.728,103.277 276.500,101.000" stroke-width="3.966" stroke="black" fill="none" stroke-linecap="round"></path><path d="M 276.500,101.000 C 278.200,98.599 278.308,98.740 279.500,96.000" stroke-width="4.119" stroke="black" fill="none" stroke-linecap="round"></path><path d="M 279.500,96.000 C 280.056,93.246 280.700,93.599 281.500,91.000" stroke-width="4.181" stroke="black" fill="none" stroke-linecap="round"></path><path d="M 281.500,91.000 C 284.978,86.483 284.556,86.246 288.500,82.000" stroke-width="4.244" stroke="black" fill="none" stroke-linecap="round"></path><path d="M 288.500,82.000 C 290.473,79.478 290.478,79.483 292.500,77.000" stroke-width="4.083" stroke="black" fill="none" stroke-linecap="round"></path><path d="M 292.500,77.000 C 294.876,73.887 294.973,73.978 297.500,71.000" stroke-width="3.866" stroke="black" fill="none" stroke-linecap="round"></path><path d="M 297.500,71.000 C 300.124,68.613 299.876,68.387 302.500,66.000" stroke-width="3.890" stroke="black" fill="none" stroke-linecap="round"></path><path d="M 302.500,66.000 C 305.235,63.170 305.124,63.113 307.500,60.000" stroke-width="3.812" stroke="black" fill="none" stroke-linecap="round"></path><path d="M 307.500,60.000 C 310.272,56.138 310.235,56.170 312.500,52.000" stroke-width="4.170" stroke="black" fill="none" stroke-linecap="round"></path><path d="M 312.500,52.000 C 315.462,47.000 313.772,49.638 314.500,47.000" stroke-width="4.760" stroke="black" fill="none" stroke-linecap="round"></path><path d="M 314.500,47.000 C 310.818,49.285 312.962,47.000 307.500,52.000" stroke-width="5.082" stroke="black" fill="none" stroke-linecap="round"></path><path d="M 307.500,52.000 C 305.223,53.784 305.318,53.785 303.500,56.000" stroke-width="4.447" stroke="black" fill="none" stroke-linecap="round"></path><path d="M 303.500,56.000 C 302.353,58.776 301.723,58.284 300.500,61.000" stroke-width="4.215" stroke="black" fill="none" stroke-linecap="round"></path><path d="M 300.500,61.000 C 297.124,64.634 297.353,64.776 293.500,68.000" stroke-width="3.730" stroke="black" fill="none" stroke-linecap="round"></path><path d="M 293.500,68.000 C 289.876,70.866 290.124,71.134 286.500,74.000" stroke-width="3.723" stroke="black" fill="none" stroke-linecap="round"></path><path d="M 286.500,74.000 C 283.133,77.646 282.876,77.366 279.500,81.000" stroke-width="3.751" stroke="black" fill="none" stroke-linecap="round"></path><path d="M 279.500,81.000 C 276.250,83.250 276.633,83.646 273.500,86.000" stroke-width="3.771" stroke="black" fill="none" stroke-linecap="round"></path><path d="M 273.500,86.000 C 271.000,89.000 270.750,88.750 268.500,92.000" stroke-width="3.777" stroke="black" fill="none" stroke-linecap="round"></path><path d="M 268.500,92.000 C 266.000,95.000 266.000,95.000 263.500,98.000" stroke-width="3.831" stroke="black" fill="none" stroke-linecap="round"></path><path d="M 263.500,98.000 C 260.973,100.978 261.000,101.000 258.500,104.000" stroke-width="3.847" stroke="black" fill="none" stroke-linecap="round"></path><path d="M 258.500,104.000 C 256.420,106.440 256.473,106.478 254.500,109.000" stroke-width="4.011" stroke="black" fill="none" stroke-linecap="round"></path><path d="M 254.500,109.000 C 252.080,112.560 251.920,112.440 249.500,116.000" stroke-width="3.814" stroke="black" fill="none" stroke-linecap="round"></path><path d="M 249.500,116.000 C 247.624,118.611 247.580,118.560 245.500,121.000" stroke-width="4.000" stroke="black" fill="none" stroke-linecap="round"></path><path d="M 245.500,121.000 C 243.285,122.818 243.624,123.111 241.500,125.000" stroke-width="4.152" stroke="black" fill="none" stroke-linecap="round"></path><path d="M 241.500,125.000 C 238.948,128.464 238.785,128.318 236.500,132.000" stroke-width="4.400" stroke="black" fill="none" stroke-linecap="round"></path><path d="M 236.500,132.000 C 234.313,134.892 234.448,134.964 232.500,138.000" stroke-width="4.532" stroke="black" fill="none" stroke-linecap="round"></path><path d="M 232.500,138.000 C 229.013,143.757 230.813,140.892 229.500,144.000" stroke-width="4.631" stroke="black" fill="none" stroke-linecap="round"></path><path d="M 229.500,144.000 C 232.000,141.500 230.013,144.257 234.500,139.000" stroke-width="5.137" stroke="black" fill="none" stroke-linecap="round"></path><path d="M 234.500,139.000 C 236.676,137.155 236.500,137.000 238.500,135.000" stroke-width="4.505" stroke="black" fill="none" stroke-linecap="round"></path><path d="M 238.500,135.000 C 241.824,130.345 242.176,130.655 245.500,126.000" stroke-width="4.318" stroke="black" fill="none" stroke-linecap="round"></path><path d="M 245.500,126.000 C 247.332,123.807 247.324,123.845 249.500,122.000" stroke-width="4.249" stroke="black" fill="none" stroke-linecap="round"></path><path d="M 249.500,122.000 C 253.160,118.315 253.332,118.807 257.500,116.000" stroke-width="4.317" stroke="black" fill="none" stroke-linecap="round"></path><path d="M 257.500,116.000 C 260.971,114.294 260.660,114.315 264.500,114.000" stroke-width="4.533" stroke="black" fill="none" stroke-linecap="round"></path><path d="M 264.500,114.000 C 269.318,113.366 266.971,113.794 269.500,115.000" stroke-width="5.068" stroke="black" fill="none" stroke-linecap="round"></path><path d="M 269.500,115.000 C 268.013,119.345 269.818,117.866 265.500,123.000" stroke-width="4.857" stroke="black" fill="none" stroke-linecap="round"></path><path d="M 265.500,123.000 C 261.981,126.984 262.513,127.345 258.500,131.000" stroke-width="4.442" stroke="black" fill="none" stroke-linecap="round"></path><path d="M 258.500,131.000 C 255.519,134.516 255.481,134.484 252.500,138.000" stroke-width="4.389" stroke="black" fill="none" stroke-linecap="round"></path><path d="M 252.500,138.000 C 248.932,141.943 249.019,142.016 245.500,146.000" stroke-width="4.271" stroke="black" fill="none" stroke-linecap="round"></path><path d="M 245.500,146.000 C 243.750,148.750 243.432,148.443 241.500,151.000" stroke-width="4.185" stroke="black" fill="none" stroke-linecap="round"></path><path d="M 241.500,151.000 C 239.000,153.000 239.250,153.250 236.500,155.000" stroke-width="4.066" stroke="black" fill="none" stroke-linecap="round"></path><path d="M 236.500,155.000 C 233.889,156.876 234.000,157.000 231.500,159.000" stroke-width="4.234" stroke="black" fill="none" stroke-linecap="round"></path><path d="M 231.500,159.000 C 229.698,161.242 229.389,160.876 227.500,163.000" stroke-width="4.225" stroke="black" fill="none" stroke-linecap="round"></path><path d="M 227.500,163.000 C 224.406,164.869 224.698,165.242 221.500,167.000" stroke-width="3.975" stroke="black" fill="none" stroke-linecap="round"></path><path d="M 221.500,167.000 C 217.222,170.852 216.906,170.369 212.500,174.000" stroke-width="4.117" stroke="black" fill="none" stroke-linecap="round"></path><path d="M 212.500,174.000 C 209.442,175.395 209.722,175.852 206.500,177.000" stroke-width="4.058" stroke="black" fill="none" stroke-linecap="round"></path><path d="M 206.500,177.000 C 204.102,178.699 203.942,178.395 201.500,180.000" stroke-width="4.190" stroke="black" fill="none" stroke-linecap="round"></path><path d="M 201.500,180.000 C 197.898,181.301 198.102,181.699 194.500,183.000" stroke-width="3.917" stroke="black" fill="none" stroke-linecap="round"></path><path d="M 194.500,183.000 C 192.138,184.801 191.898,184.301 189.500,186.000" stroke-width="4.103" stroke="black" fill="none" stroke-linecap="round"></path><path d="M 189.500,186.000 C 186.471,186.920 186.638,187.301 183.500,188.000" stroke-width="4.101" stroke="black" fill="none" stroke-linecap="round"></path><path d="M 183.500,188.000 C 180.949,188.887 180.971,188.920 178.500,190.000" stroke-width="4.219" stroke="black" fill="none" stroke-linecap="round"></path><path d="M 178.500,190.000 C 175.625,191.864 175.449,191.387 172.500,193.000" stroke-width="4.087" stroke="black" fill="none" stroke-linecap="round"></path><path d="M 172.500,193.000 C 169.955,193.330 170.125,193.864 167.500,194.000" stroke-width="4.211" stroke="black" fill="none" stroke-linecap="round"></path><path d="M 167.500,194.000 C 164.558,195.235 164.455,194.830 161.500,196.000" stroke-width="4.132" stroke="black" fill="none" stroke-linecap="round"></path><path d="M 161.500,196.000 C 158.506,196.538 158.558,196.735 155.500,197.000" stroke-width="4.092" stroke="black" fill="none" stroke-linecap="round"></path><path d="M 155.500,197.000 C 151.994,197.462 152.006,197.538 148.500,198.000" stroke-width="4.008" stroke="black" fill="none" stroke-linecap="round"></path><path d="M 148.500,198.000 C 145.521,198.748 145.494,198.462 142.500,199.000" stroke-width="4.055" stroke="black" fill="none" stroke-linecap="round"></path><path d="M 142.500,199.000 C 139.479,198.752 139.521,199.248 136.500,199.000" stroke-width="4.126" stroke="black" fill="none" stroke-linecap="round"></path><path d="M 136.500,199.000 C 133.521,199.748 133.479,199.252 130.500,200.000" stroke-width="4.138" stroke="black" fill="none" stroke-linecap="round"></path><path d="M 130.500,200.000 C 127.500,200.000 127.521,200.248 124.500,200.000" stroke-width="4.152" stroke="black" fill="none" stroke-linecap="round"></path><path d="M 124.500,200.000 C 121.463,200.370 121.500,200.000 118.500,200.000" stroke-width="4.109" stroke="black" fill="none" stroke-linecap="round"></path><path d="M 118.500,200.000 C 113.438,199.234 113.463,199.370 108.500,198.000" stroke-width="4.239" stroke="black" fill="none" stroke-linecap="round"></path><path d="M 108.500,198.000 C 105.362,197.301 105.438,197.234 102.500,196.000" stroke-width="4.091" stroke="black" fill="none" stroke-linecap="round"></path><path d="M 102.500,196.000 C 99.959,194.565 99.862,194.801 97.500,193.000" stroke-width="4.159" stroke="black" fill="none" stroke-linecap="round"></path><path d="M 97.500,193.000 C 94.277,191.272 94.459,191.065 91.500,189.000" stroke-width="3.958" stroke="black" fill="none" stroke-linecap="round"></path><path d="M 91.500,189.000 C 89.113,186.376 88.777,186.772 86.500,184.000" stroke-width="3.968" stroke="black" fill="none" stroke-linecap="round"></path><path d="M 86.500,184.000 C 83.500,181.500 83.613,181.376 80.500,179.000" stroke-width="3.834" stroke="black" fill="none" stroke-linecap="round"></path><path d="M 80.500,179.000 C 77.387,176.624 77.500,176.500 74.500,174.000" stroke-width="3.848" stroke="black" fill="none" stroke-linecap="round"></path><path d="M 74.500,174.000 C 72.000,171.500 71.887,171.624 69.500,169.000" stroke-width="3.885" stroke="black" fill="none" stroke-linecap="round"></path><path d="M 69.500,169.000 C 67.000,166.500 67.000,166.500 64.500,164.000" stroke-width="3.946" stroke="black" fill="none" stroke-linecap="round"></path><path d="M 64.500,164.000 C 62.223,162.216 62.500,162.000 60.500,160.000" stroke-width="4.090" stroke="black" fill="none" stroke-linecap="round"></path><path d="M 60.500,160.000 C 58.800,157.599 58.723,157.716 57.500,155.000" stroke-width="4.200" stroke="black" fill="none" stroke-linecap="round"></path><path d="M 57.500,155.000 C 56.204,152.583 56.300,152.599 55.500,150.000" stroke-width="4.206" stroke="black" fill="none" stroke-linecap="round"></path><path d="M 55.500,150.000 C 55.000,147.000 54.704,147.083 54.500,144.000" stroke-width="4.161" stroke="black" fill="none" stroke-linecap="round"></path><path d="M 54.500,144.000 C 53.716,141.024 54.000,141.000 53.500,138.000" stroke-width="4.148" stroke="black" fill="none" stroke-linecap="round"></path><path d="M 53.500,138.000 C 53.235,133.981 53.216,134.024 53.500,130.000" stroke-width="3.861" stroke="black" fill="none" stroke-linecap="round"></path><path d="M 53.500,130.000 C 53.594,126.396 53.735,126.481 54.500,123.000" stroke-width="3.939" stroke="black" fill="none" stroke-linecap="round"></path><path d="M 54.500,123.000 C 55.790,118.908 55.594,118.896 57.500,115.000" stroke-width="3.800" stroke="black" fill="none" stroke-linecap="round"></path><path d="M 57.500,115.000 C 59.408,110.951 59.290,110.908 61.500,107.000" stroke-width="3.664" stroke="black" fill="none" stroke-linecap="round"></path><path d="M 61.500,107.000 C 63.710,102.312 63.908,102.451 66.500,98.000" stroke-width="3.492" stroke="black" fill="none" stroke-linecap="round"></path><path d="M 66.500,98.000 C 69.216,93.753 69.210,93.812 72.500,90.000" stroke-width="3.470" stroke="black" fill="none" stroke-linecap="round"></path><path d="M 72.500,90.000 C 76.289,85.767 76.216,85.753 80.500,82.000" stroke-width="3.346" stroke="black" fill="none" stroke-linecap="round"></path><path d="M 80.500,82.000 C 86.106,77.623 85.789,77.267 91.500,73.000" stroke-width="3.143" stroke="black" fill="none" stroke-linecap="round"></path><path d="M 91.500,73.000 C 96.191,68.102 96.606,68.623 101.500,64.000" stroke-width="3.141" stroke="black" fill="none" stroke-linecap="round"></path><path d="M 101.500,64.000 C 107.266,59.597 107.191,59.602 113.500,56.000" stroke-width="3.072" stroke="black" fill="none" stroke-linecap="round"></path><path d="M 113.500,56.000 C 120.365,52.199 120.266,52.097 127.500,49.000" stroke-width="2.908" stroke="black" fill="none" stroke-linecap="round"></path><path d="M 127.500,49.000 C 134.869,45.623 134.865,45.699 142.500,43.000" stroke-width="2.891" stroke="black" fill="none" stroke-linecap="round"></path><path d="M 142.500,43.000 C 150.899,40.092 150.869,40.123 159.500,38.000" stroke-width="2.905" stroke="black" fill="none" stroke-linecap="round"></path><path d="M 159.500,38.000 C 169.431,35.549 169.399,35.592 179.500,34.000" stroke-width="2.588" stroke="black" fill="none" stroke-linecap="round"></path><path d="M 179.500,34.000 C 189.027,33.214 188.931,32.549 198.500,32.000" stroke-width="2.630" stroke="black" fill="none" stroke-linecap="round"></path><path d="M 198.500,32.000 C 208.473,30.286 208.527,30.714 218.500,29.000" stroke-width="2.527" stroke="black" fill="none" stroke-linecap="round"></path><path d="M 218.500,29.000 C 227.988,27.865 227.973,27.786 237.500,27.000" stroke-width="2.552" stroke="black" fill="none" stroke-linecap="round"></path><path d="M 237.500,27.000 C 244.505,26.560 244.488,26.365 251.500,26.000" stroke-width="2.901" stroke="black" fill="none" stroke-linecap="round"></path><path d="M 251.500,26.000 C 256.991,25.306 257.005,25.560 262.500,25.000" stroke-width="3.239" stroke="black" fill="none" stroke-linecap="round"></path><path d="M 262.500,25.000 C 267.105,23.324 265.991,24.806 269.500,25.000" stroke-width="3.727" stroke="black" fill="none" stroke-linecap="round"></path><path d="M 269.500,25.000 C 272.286,28.366 272.105,26.824 272.500,32.000" stroke-width="4.280" stroke="black" fill="none" stroke-linecap="round"></path><path d="M 272.500,32.000 C 273.145,37.931 272.786,36.866 270.500,42.000" stroke-width="3.715" stroke="black" fill="none" stroke-linecap="round"></path><path d="M 270.500,42.000 C 265.496,47.683 266.645,47.931 259.500,52.000" stroke-width="3.184" stroke="black" fill="none" stroke-linecap="round"></path><path d="M 259.500,52.000 C 252.908,56.950 252.996,56.683 245.500,60.000" stroke-width="2.906" stroke="black" fill="none" stroke-linecap="round"></path><path d="M 245.500,60.000 C 235.726,64.539 235.908,63.950 225.500,66.000" stroke-width="2.797" stroke="black" fill="none" stroke-linecap="round"></path><path d="M 225.500,66.000 C 214.500,66.000 214.726,67.539 203.500,66.000" stroke-width="2.482" stroke="black" fill="none" stroke-linecap="round"></path><path d="M 203.500,66.000 C 192.000,66.000 192.000,66.000 180.500,66.000" stroke-width="2.357" stroke="black" fill="none" stroke-linecap="round"></path><path d="M 180.500,66.000 C 168.500,66.000 168.500,66.000 156.500,66.000" stroke-width="2.340" stroke="black" fill="none" stroke-linecap="round"></path><path d="M 156.500,66.000 C 145.000,66.000 145.000,66.000 133.500,66.000" stroke-width="2.317" stroke="black" fill="none" stroke-linecap="round"></path><path d="M 273.500,142.000 C 276.508,141.544 276.500,141.500 279.500,141.000" stroke-width="5.302" stroke="black" fill="none" stroke-linecap="round"></path><path d="M 279.500,141.000 C 281.986,140.419 282.008,140.544 284.500,140.000" stroke-width="4.624" stroke="black" fill="none" stroke-linecap="round"></path><path d="M 284.500,140.000 C 288.069,139.792 287.986,139.419 291.500,139.000" stroke-width="4.148" stroke="black" fill="none" stroke-linecap="round"></path><path d="M 291.500,139.000 C 294.500,138.000 294.569,138.292 297.500,137.000" stroke-width="4.066" stroke="black" fill="none" stroke-linecap="round"></path><path d="M 297.500,137.000 C 303.442,134.782 303.500,135.000 309.500,133.000" stroke-width="4.089" stroke="black" fill="none" stroke-linecap="round"></path><path d="M 309.500,133.000 C 314.697,131.210 311.942,132.282 314.500,132.000" stroke-width="4.595" stroke="black" fill="none" stroke-linecap="round"></path><path d="M 314.500,132.000 C 311.400,134.390 314.197,133.210 308.500,137.000" stroke-width="4.798" stroke="black" fill="none" stroke-linecap="round"></path><path d="M 308.500,137.000 C 306.101,138.713 306.400,138.890 304.500,141.000" stroke-width="4.379" stroke="black" fill="none" stroke-linecap="round"></path><path d="M 304.500,141.000 C 300.713,145.164 302.601,143.713 301.500,147.000" stroke-width="4.565" stroke="black" fill="none" stroke-linecap="round"></path><path d="M 301.500,147.000 C 304.475,147.798 302.213,148.664 307.500,148.000" stroke-width="4.677" stroke="black" fill="none" stroke-linecap="round"></path><path d="M 307.500,148.000 C 312.046,148.469 311.975,148.298 316.500,148.000" stroke-width="4.514" stroke="black" fill="none" stroke-linecap="round"></path><path d="M 316.500,148.000 C 321.500,147.000 321.546,147.469 326.500,146.000" stroke-width="3.766" stroke="black" fill="none" stroke-linecap="round"></path><path d="M 326.500,146.000 C 331.674,145.508 331.500,145.000 336.500,144.000" stroke-width="3.587" stroke="black" fill="none" stroke-linecap="round"></path><path d="M 336.500,144.000 C 342.500,141.000 339.674,143.008 342.500,141.000" stroke-width="3.930" stroke="black" fill="none" stroke-linecap="round"></path><path d="M 342.500,141.000 C 335.318,143.156 342.500,141.000 336.500,144.000" stroke-width="4.743" stroke="black" fill="none" stroke-linecap="round"></path><path d="M 336.500,144.000 C 343.022,146.000 338.818,145.656 349.500,146.000" stroke-width="4.714" stroke="black" fill="none" stroke-linecap="round"></path><path d="M 349.500,146.000 C 354.500,145.000 354.522,146.000 359.500,144.000" stroke-width="3.867" stroke="black" fill="none" stroke-linecap="round"></path><path d="M 359.500,144.000 C 364.524,143.106 364.500,143.000 369.500,142.000" stroke-width="3.720" stroke="black" fill="none" stroke-linecap="round"></path><path d="M 369.500,142.000 C 373.500,141.000 373.524,141.106 377.500,140.000" stroke-width="3.714" stroke="black" fill="none" stroke-linecap="round"></path><path d="M 377.500,140.000 C 381.462,138.808 381.500,139.000 385.500,138.000" stroke-width="3.765" stroke="black" fill="none" stroke-linecap="round"></path><path d="M 385.500,138.000 C 389.000,137.500 388.962,137.308 392.500,137.000" stroke-width="3.908" stroke="black" fill="none" stroke-linecap="round"></path><path d="M 392.500,137.000 C 395.984,136.270 396.000,136.500 399.500,136.000" stroke-width="3.953" stroke="black" fill="none" stroke-linecap="round"></path><path d="M 399.500,136.000 C 402.500,136.000 402.484,135.770 405.500,136.000" stroke-width="4.094" stroke="black" fill="none" stroke-linecap="round"></path><path d="M 405.500,136.000 C 414.950,136.000 410.000,136.000 414.500,136.000" stroke-width="4.335" stroke="black" fill="none" stroke-linecap="round"></path><path d="M 414.500,136.000 C 409.000,136.000 413.950,136.000 403.500,136.000" stroke-width="4.918" stroke="black" fill="none" stroke-linecap="round"></path><path d="M 403.500,136.000 C 397.000,136.000 397.000,136.000 390.500,136.000" stroke-width="3.490" stroke="black" fill="none" stroke-linecap="round"></path><path d="M 390.500,136.000 C 382.500,136.000 382.500,136.000 374.500,136.000" stroke-width="3.053" stroke="black" fill="none" stroke-linecap="round"></path><path d="M 374.500,136.000 C 354.000,136.000 354.000,136.000 333.500,136.000" stroke-width="2.650" stroke="black" fill="none" stroke-linecap="round"></path><path d="M 333.500,136.000 C 323.000,136.000 323.000,136.000 312.500,136.000" stroke-width="3.156" stroke="black" fill="none" stroke-linecap="round"></path><path d="M 312.500,136.000 C 302.000,136.000 302.000,136.000 291.500,136.000" stroke-width="2.679" stroke="black" fill="none" stroke-linecap="round"></path><path d="M 291.500,136.000 C 281.500,136.000 281.500,136.000 271.500,136.000" stroke-width="2.612" stroke="black" fill="none" stroke-linecap="round"></path><path d="M 271.500,136.000 C 263.000,136.000 263.000,136.000 254.500,136.000" stroke-width="2.749" stroke="black" fill="none" stroke-linecap="round"></path><path d="M 254.500,136.000 C 246.490,135.734 246.500,136.000 238.500,136.000" stroke-width="2.793" stroke="black" fill="none" stroke-linecap="round"></path><path d="M 238.500,136.000 C 231.458,136.165 231.490,136.234 224.500,137.000" stroke-width="2.989" stroke="black" fill="none" stroke-linecap="round"></path><path d="M 224.500,137.000 C 218.946,137.762 218.958,137.665 213.500,139.000" stroke-width="3.261" stroke="black" fill="none" stroke-linecap="round"></path><path d="M 395.500,65.000 C 392.500,65.000 392.500,65.000 389.500,65.000" stroke-width="5.181" stroke="black" fill="none" stroke-linecap="round"></path><path d="M 389.500,65.000 C 385.385,64.402 385.500,65.000 381.500,65.000" stroke-width="4.705" stroke="black" fill="none" stroke-linecap="round"></path><path d="M 381.500,65.000 C 378.784,65.630 378.885,65.402 376.500,67.000" stroke-width="4.573" stroke="black" fill="none" stroke-linecap="round"></path><path d="M 376.500,67.000 C 373.327,68.488 373.784,68.630 371.500,71.000" stroke-width="4.221" stroke="black" fill="none" stroke-linecap="round"></path><path d="M 371.500,71.000 C 369.339,74.364 369.327,73.988 368.500,78.000" stroke-width="3.980" stroke="black" fill="none" stroke-linecap="round"></path><path d="M 368.500,78.000 C 367.953,81.080 367.839,80.864 368.500,84.000" stroke-width="4.057" stroke="black" fill="none" stroke-linecap="round"></path><path d="M 368.500,84.000 C 368.679,90.050 369.453,89.080 371.500,94.000" stroke-width="4.246" stroke="black" fill="none" stroke-linecap="round"></path><path d="M 371.500,94.000 C 374.900,96.200 373.679,97.050 378.500,98.000" stroke-width="3.879" stroke="black" fill="none" stroke-linecap="round"></path><path d="M 378.500,98.000 C 381.899,99.800 381.900,99.700 385.500,101.000" stroke-width="3.831" stroke="black" fill="none" stroke-linecap="round"></path><path d="M 385.500,101.000 C 389.467,103.000 389.399,102.300 393.500,103.000" stroke-width="3.747" stroke="black" fill="none" stroke-linecap="round"></path><path d="M 393.500,103.000 C 400.125,103.500 398.967,103.000 404.500,101.000" stroke-width="4.054" stroke="black" fill="none" stroke-linecap="round"></path><path d="M 404.500,101.000 C 406.257,98.107 407.125,99.500 407.500,95.000" stroke-width="4.040" stroke="black" fill="none" stroke-linecap="round"></path><path d="M 407.500,95.000 C 409.581,90.594 409.257,90.607 410.500,86.000" stroke-width="4.244" stroke="black" fill="none" stroke-linecap="round"></path><path d="M 410.500,86.000 C 412.364,81.694 411.081,83.094 410.500,80.000" stroke-width="4.578" stroke="black" fill="none" stroke-linecap="round"></path><path d="M 410.500,80.000 C 405.111,77.558 406.864,76.694 399.500,76.000" stroke-width="4.246" stroke="black" fill="none" stroke-linecap="round"></path><path d="M 399.500,76.000 C 396.016,75.270 396.111,75.058 392.500,75.000" stroke-width="4.051" stroke="black" fill="none" stroke-linecap="round"></path><path d="M 392.500,75.000 C 389.500,75.000 389.516,74.770 386.500,75.000" stroke-width="4.079" stroke="black" fill="none" stroke-linecap="round"></path></svg>