<svg xmlns="http://www.w3.org/2000/svg" xmlns:xlink="http://www.w3.org/1999/xlink" viewBox="0 0 692 576" width="692" height="576"><path d="M 386.000,295.000 C 375.233,300.256 375.000,299.500 364.000,304.000" stroke-width="3.574" stroke="black" fill="none" stroke-linecap="round"></path><path d="M 364.000,304.000 C 357.079,306.803 357.233,306.256 350.000,307.000" stroke-width="3.128" stroke="black" fill="none" stroke-linecap="round"></path><path d="M 350.000,307.000 C 338.865,306.698 339.079,307.303 328.000,305.000" stroke-width="2.739" stroke="black" fill="none" stroke-linecap="round"></path><path d="M 328.000,305.000 C 322.179,304.786 322.865,304.198 318.000,302.000" stroke-width="3.222" stroke="black" fill="none" stroke-linecap="round"></path><path d="M 318.000,302.000 C 311.992,298.432 313.179,298.786 310.000,293.000" stroke-width="3.213" stroke="black" fill="none" stroke-linecap="round"></path><path d="M 310.000,293.000 C 307.000,282.467 306.492,283.432 307.000,272.000" stroke-width="2.680" stroke="black" fill="none" stroke-linecap="round"></path><path d="M 307.000,272.000 C 305.835,262.545 307.000,263.967 310.000,256.000" stroke-width="2.755" stroke="black" fill="none" stroke-linecap="round"></path><path d="M 310.000,256.000 C 318.195,246.420 316.335,246.045 328.000,239.000" stroke-width="2.412" stroke="black" fill="none" stroke-linecap="round"></path><path d="M 328.000,239.000 C 336.469,229.805 336.695,232.420 347.000,228.000" stroke-width="2.383" stroke="black" fill="none" stroke-linecap="round"></path><path d="M 347.000,228.000 C 372.923,224.345 371.469,223.805 398.000,227.000" stroke-width="1.711" stroke="black" fill="none" stroke-linecap="round"></path><path d="M 398.000,227.000 C 415.006,231.979 415.423,228.845 432.000,237.000" stroke-width="1.788" stroke="black" fill="none" stroke-linecap="round"></path><path d="M 432.000,237.000 C 437.631,237.378 437.006,238.479 442.000,240.000" stroke-width="2.640" stroke="black" fill="none" stroke-linecap="round"></path><path d="M 442.000,240.000 C 449.075,243.393 447.631,243.378 452.000,249.000" stroke-width="2.971" stroke="black" fill="none" stroke-linecap="round"></path><path d="M 452.000,249.000 C 456.210,256.711 455.075,254.893 454.000,263.000" stroke-width="2.981" stroke="black" fill="none" stroke-linecap="round"></path><path d="M 454.000,263.000 C 448.040,275.766 449.710,275.211 439.000,286.000" stroke-width="2.347" stroke="black" fill="none" stroke-linecap="round"></path><path d="M 439.000,286.000 C 421.172,305.910 421.540,305.766 401.000,323.000" stroke-width="1.561" stroke="black" fill="none" stroke-linecap="round"></path><path d="M 401.000,323.000 C 384.912,336.678 385.172,336.410 367.000,347.000" stroke-width="1.610" stroke="black" fill="none" stroke-linecap="round"></path><path d="M 367.000,347.000 C 354.804,353.159 355.412,353.678 342.000,357.000" stroke-width="1.969" stroke="black" fill="none" stroke-linecap="round"></path><path d="M 342.000,357.000 C 333.957,360.623 334.804,359.159 327.000,359.000" stroke-width="2.535" stroke="black" fill="none" stroke-linecap="round"></path><path d="M 327.000,359.000 C 315.266,357.582 318.957,357.123 312.000,350.000" stroke-width="2.578" stroke="black" fill="none" stroke-linecap="round"></path><path d="M 312.000,350.000 C 297.785,321.040 301.266,325.082 299.000,294.000" stroke-width="1.511" stroke="black" fill="none" stroke-linecap="round"></path><path d="M 299.000,294.000 C 306.741,277.025 299.785,276.540 316.000,261.000" stroke-width="1.635" stroke="black" fill="none" stroke-linecap="round"></path><path d="M 316.000,261.000 C 318.996,253.170 319.741,254.525 325.000,249.000" stroke-width="2.355" stroke="black" fill="none" stroke-linecap="round"></path><path d="M 325.000,249.000 C 337.955,240.580 336.996,240.670 352.000,236.000" stroke-width="2.179" stroke="black" fill="none" stroke-linecap="round"></path><path d="M 352.000,236.000 C 361.538,234.000 360.955,233.080 371.000,234.000" stroke-width="2.435" stroke="black" fill="none" stroke-linecap="round"></path><path d="M 371.000,234.000 C 376.742,234.357 376.538,234.000 382.000,236.000" stroke-width="3.035" stroke="black" fill="none" stroke-linecap="round"></path><path d="M 382.000,236.000 C 386.235,236.449 384.742,236.857 387.000,239.000" stroke-width="3.760" stroke="black" fill="none" stroke-linecap="round"></path><path d="M 387.000,239.000 C 389.529,248.050 389.235,246.449 388.000,256.000" stroke-width="2.970" stroke="black" fill="none" stroke-linecap="round"></path><path d="M 388.000,256.000 C 385.926,261.376 387.029,261.050 382.000,265.000" stroke-width="3.283" stroke="black" fill="none" stroke-linecap="round"></path><path d="M 382.000,265.000 C 372.044,272.560 372.926,273.376 362.000,280.000" stroke-width="2.507" stroke="black" fill="none" stroke-linecap="round"></path><path d="M 362.000,280.000 C 358.746,282.983 358.544,282.560 355.000,285.000" stroke-width="3.257" stroke="black" fill="none" stroke-linecap="round"></path><path d="M 355.000,285.000 C 349.000,288.602 352.246,286.483 349.000,287.000" stroke-width="4.159" stroke="black" fill="none" stroke-linecap="round"></path></svg>