<svg xmlns="http://www.w3.org/2000/svg" xmlns:xlink="http://www.w3.org/1999/xlink" viewBox="0 0 1460 576" width="1460" height="576"><circle r="1.5" cx="280" cy="236" fill="black"></circle><path d="M 280.000,236.000 C 246.874,272.143 252.500,275.000 225.000,314.000" stroke-width="3.655" stroke="black" fill="none" stroke-linecap="round"></path><path d="M 225.000,314.000 C 211.721,352.413 206.374,349.643 199.000,391.000" stroke-width="1.192" stroke="black" fill="none" stroke-linecap="round"></path><path d="M 199.000,391.000 C 196.971,397.992 196.721,397.913 195.000,405.000" stroke-width="2.072" stroke="black" fill="none" stroke-linecap="round"></path><path d="M 195.000,405.000 C 193.223,414.297 192.471,413.992 190.000,423.000" stroke-width="2.463" stroke="black" fill="none" stroke-linecap="round"></path><path d="M 190.000,423.000 C 188.322,428.204 188.223,427.797 185.000,432.000" stroke-width="3.065" stroke="black" fill="none" stroke-linecap="round"></path><path d="M 185.000,432.000 C 180.483,435.478 181.322,436.204 176.000,439.000" stroke-width="3.769" stroke="black" fill="none" stroke-linecap="round"></path><path d="M 176.000,439.000 C 171.976,444.171 173.483,440.978 171.000,443.000" stroke-width="4.409" stroke="black" fill="none" stroke-linecap="round"></path><path d="M 257.000,184.000 C 258.026,187.493 258.000,187.500 259.000,191.000" stroke-width="5.171" stroke="black" fill="none" stroke-linecap="round"></path><path d="M 259.000,191.000 C 260.518,196.495 260.526,196.493 262.000,202.000" stroke-width="3.688" stroke="black" fill="none" stroke-linecap="round"></path><path d="M 262.000,202.000 C 264.839,209.340 264.018,209.495 266.000,217.000" stroke-width="3.131" stroke="black" fill="none" stroke-linecap="round"></path><path d="M 266.000,217.000 C 267.900,242.676 269.839,242.340 272.000,268.000" stroke-width="1.614" stroke="black" fill="none" stroke-linecap="round"></path><path d="M 272.000,268.000 C 277.831,294.938 276.400,295.176 283.000,322.000" stroke-width="1.401" stroke="black" fill="none" stroke-linecap="round"></path><path d="M 283.000,322.000 C 286.386,339.451 286.331,339.438 289.000,357.000" stroke-width="1.787" stroke="black" fill="none" stroke-linecap="round"></path><path d="M 289.000,357.000 C 289.401,363.010 289.886,362.951 290.000,369.000" stroke-width="2.949" stroke="black" fill="none" stroke-linecap="round"></path><path d="M 290.000,369.000 C 290.573,378.084 290.901,378.010 292.000,387.000" stroke-width="2.787" stroke="black" fill="none" stroke-linecap="round"></path><path d="M 292.000,387.000 C 293.490,390.431 292.573,390.584 294.000,394.000" stroke-width="3.504" stroke="black" fill="none" stroke-linecap="round"></path><path d="M 289.000,348.000 C 285.563,346.548 285.500,347.000 282.000,346.000" stroke-width="5.333" stroke="black" fill="none" stroke-linecap="round"></path><path d="M 282.000,346.000 C 279.000,346.000 279.063,345.548 276.000,346.000" stroke-width="4.398" stroke="black" fill="none" stroke-linecap="round"></path><path d="M 276.000,346.000 C 266.500,346.000 266.500,346.000 257.000,346.000" stroke-width="3.014" stroke="black" fill="none" stroke-linecap="round"></path><path d="M 257.000,346.000 C 248.500,346.000 248.500,346.000 240.000,346.000" stroke-width="2.808" stroke="black" fill="none" stroke-linecap="round"></path><path d="M 240.000,346.000 C 232.500,346.000 232.500,346.000 225.000,346.000" stroke-width="2.932" stroke="black" fill="none" stroke-linecap="round"></path><path d="M 225.000,346.000 C 208.483,345.625 208.500,346.000 192.000,346.000" stroke-width="2.068" stroke="black" fill="none" stroke-linecap="round"></path><path d="M 192.000,346.000 C 186.514,346.803 186.483,346.125 181.000,347.000" stroke-width="2.854" stroke="black" fill="none" stroke-linecap="round"></path><path d="M 322.000,314.000 C 322.700,321.493 322.500,321.500 323.000,329.000" stroke-width="4.985" stroke="black" fill="none" stroke-linecap="round"></path><path d="M 323.000,329.000 C 323.432,334.033 323.200,333.993 323.000,339.000" stroke-width="3.811" stroke="black" fill="none" stroke-linecap="round"></path><path d="M 323.000,339.000 C 322.134,345.523 322.432,345.533 321.000,352.000" stroke-width="3.274" stroke="black" fill="none" stroke-linecap="round"></path><path d="M 321.000,352.000 C 318.926,365.623 318.634,365.523 316.000,379.000" stroke-width="2.327" stroke="black" fill="none" stroke-linecap="round"></path><path d="M 316.000,379.000 C 313.033,384.484 315.426,381.623 314.000,384.000" stroke-width="3.416" stroke="black" fill="none" stroke-linecap="round"></path><path d="M 314.000,384.000 C 318.279,380.252 316.033,382.984 322.000,376.000" stroke-width="4.342" stroke="black" fill="none" stroke-linecap="round"></path><path d="M 322.000,376.000 C 328.295,367.823 328.779,368.252 335.000,360.000" stroke-width="2.826" stroke="black" fill="none" stroke-linecap="round"></path><path d="M 335.000,360.000 C 340.793,354.248 340.295,353.823 346.000,348.000" stroke-width="2.799" stroke="black" fill="none" stroke-linecap="round"></path><path d="M 346.000,348.000 C 353.102,339.076 353.293,339.248 360.000,330.000" stroke-width="2.445" stroke="black" fill="none" stroke-linecap="round"></path><path d="M 360.000,330.000 C 362.093,326.131 362.602,326.576 365.000,323.000" stroke-width="3.184" stroke="black" fill="none" stroke-linecap="round"></path><path d="M 365.000,323.000 C 368.943,319.432 368.593,319.131 373.000,316.000" stroke-width="3.865" stroke="black" fill="none" stroke-linecap="round"></path><path d="M 373.000,316.000 C 375.179,313.282 375.443,313.932 378.000,312.000" stroke-width="4.435" stroke="black" fill="none" stroke-linecap="round"></path><path d="M 378.000,312.000 C 380.984,311.000 380.679,310.782 384.000,311.000" stroke-width="4.177" stroke="black" fill="none" stroke-linecap="round"></path><path d="M 384.000,311.000 C 390.131,309.679 388.984,311.000 394.000,312.000" stroke-width="4.270" stroke="black" fill="none" stroke-linecap="round"></path><path d="M 394.000,312.000 C 398.108,315.539 397.631,314.179 399.000,320.000" stroke-width="4.749" stroke="black" fill="none" stroke-linecap="round"></path><path d="M 399.000,320.000 C 399.000,328.500 400.608,328.039 399.000,337.000" stroke-width="3.127" stroke="black" fill="none" stroke-linecap="round"></path><path d="M 399.000,337.000 C 399.000,342.000 399.000,342.000 399.000,347.000" stroke-width="3.406" stroke="black" fill="none" stroke-linecap="round"></path><path d="M 399.000,347.000 C 399.238,352.011 399.000,352.000 399.000,357.000" stroke-width="3.500" stroke="black" fill="none" stroke-linecap="round"></path><path d="M 399.000,357.000 C 399.279,362.672 398.738,362.511 398.000,368.000" stroke-width="3.436" stroke="black" fill="none" stroke-linecap="round"></path><path d="M 398.000,368.000 C 395.873,375.176 396.279,375.172 393.000,382.000" stroke-width="3.119" stroke="black" fill="none" stroke-linecap="round"></path><path d="M 393.000,382.000 C 390.698,388.628 391.873,384.676 390.000,387.000" stroke-width="4.143" stroke="black" fill="none" stroke-linecap="round"></path><path d="M 390.000,387.000 C 386.185,377.240 387.698,381.628 387.000,368.000" stroke-width="4.070" stroke="black" fill="none" stroke-linecap="round"></path><path d="M 387.000,368.000 C 389.082,360.010 387.685,360.240 393.000,353.000" stroke-width="3.160" stroke="black" fill="none" stroke-linecap="round"></path><path d="M 393.000,353.000 C 399.400,343.429 398.582,343.010 406.000,334.000" stroke-width="2.510" stroke="black" fill="none" stroke-linecap="round"></path><path d="M 406.000,334.000 C 409.659,328.209 409.900,328.429 414.000,323.000" stroke-width="2.911" stroke="black" fill="none" stroke-linecap="round"></path><path d="M 414.000,323.000 C 417.367,319.354 417.159,319.209 421.000,316.000" stroke-width="3.284" stroke="black" fill="none" stroke-linecap="round"></path><path d="M 421.000,316.000 C 423.663,312.963 423.867,313.354 427.000,311.000" stroke-width="3.663" stroke="black" fill="none" stroke-linecap="round"></path><path d="M 427.000,311.000 C 434.376,303.200 432.163,307.963 438.000,306.000" stroke-width="3.753" stroke="black" fill="none" stroke-linecap="round"></path><path d="M 438.000,306.000 C 446.143,316.571 445.376,311.700 449.000,328.000" stroke-width="3.782" stroke="black" fill="none" stroke-linecap="round"></path><path d="M 449.000,328.000 C 448.320,335.068 450.643,334.571 447.000,342.000" stroke-width="3.187" stroke="black" fill="none" stroke-linecap="round"></path><path d="M 447.000,342.000 C 445.761,345.449 446.320,345.568 445.000,349.000" stroke-width="3.678" stroke="black" fill="none" stroke-linecap="round"></path><path d="M 445.000,349.000 C 442.622,353.072 444.261,352.449 444.000,356.000" stroke-width="3.831" stroke="black" fill="none" stroke-linecap="round"></path><path d="M 444.000,356.000 C 448.004,361.591 446.622,361.572 453.000,366.000" stroke-width="4.245" stroke="black" fill="none" stroke-linecap="round"></path><path d="M 453.000,366.000 C 456.881,368.712 456.504,369.091 461.000,371.000" stroke-width="3.785" stroke="black" fill="none" stroke-linecap="round"></path><path d="M 461.000,371.000 C 467.168,372.487 465.881,373.712 471.000,376.000" stroke-width="3.502" stroke="black" fill="none" stroke-linecap="round"></path><path d="M 471.000,376.000 C 473.602,379.191 473.168,377.987 473.000,382.000" stroke-width="4.511" stroke="black" fill="none" stroke-linecap="round"></path><path d="M 473.000,382.000 C 469.468,385.597 472.102,386.191 468.000,390.000" stroke-width="3.846" stroke="black" fill="none" stroke-linecap="round"></path><path d="M 468.000,390.000 C 466.096,397.962 465.468,397.597 465.000,406.000" stroke-width="3.039" stroke="black" fill="none" stroke-linecap="round"></path><path d="M 465.000,406.000 C 464.730,411.730 464.596,408.962 465.000,412.000" stroke-width="3.744" stroke="black" fill="none" stroke-linecap="round"></path><path d="M 465.000,412.000 C 465.382,409.471 465.230,412.230 466.000,407.000" stroke-width="4.866" stroke="black" fill="none" stroke-linecap="round"></path><path d="M 466.000,407.000 C 467.183,403.541 466.882,403.471 468.000,400.000" stroke-width="4.888" stroke="black" fill="none" stroke-linecap="round"></path><path d="M 468.000,400.000 C 467.782,396.679 468.683,397.041 469.000,394.000" stroke-width="4.774" stroke="black" fill="none" stroke-linecap="round"></path><path d="M 469.000,394.000 C 470.591,391.064 470.282,391.179 473.000,389.000" stroke-width="5.139" stroke="black" fill="none" stroke-linecap="round"></path><path d="M 473.000,389.000 C 477.742,385.044 477.591,385.064 483.000,382.000" stroke-width="4.342" stroke="black" fill="none" stroke-linecap="round"></path><path d="M 483.000,382.000 C 487.925,380.619 487.242,379.544 492.000,378.000" stroke-width="4.335" stroke="black" fill="none" stroke-linecap="round"></path><path d="M 492.000,378.000 C 494.603,375.597 494.925,376.119 497.000,373.000" stroke-width="4.022" stroke="black" fill="none" stroke-linecap="round"></path><path d="M 497.000,373.000 C 500.635,369.112 500.603,369.097 504.000,365.000" stroke-width="3.612" stroke="black" fill="none" stroke-linecap="round"></path><path d="M 504.000,365.000 C 509.484,357.987 509.635,358.112 515.000,351.000" stroke-width="3.641" stroke="black" fill="none" stroke-linecap="round"></path><path d="M 515.000,351.000 C 517.198,348.643 516.984,348.487 519.000,346.000" stroke-width="3.897" stroke="black" fill="none" stroke-linecap="round"></path><path d="M 519.000,346.000 C 524.543,337.527 524.698,337.643 530.000,329.000" stroke-width="2.860" stroke="black" fill="none" stroke-linecap="round"></path><path d="M 530.000,329.000 C 532.798,325.159 532.543,325.027 535.000,321.000" stroke-width="3.351" stroke="black" fill="none" stroke-linecap="round"></path><path d="M 535.000,321.000 C 536.691,316.330 537.298,316.659 539.000,312.000" stroke-width="3.982" stroke="black" fill="none" stroke-linecap="round"></path><path d="M 539.000,312.000 C 544.257,307.257 540.691,308.830 543.000,306.000" stroke-width="4.593" stroke="black" fill="none" stroke-linecap="round"></path><path d="M 543.000,306.000 C 537.180,304.020 541.257,304.257 533.000,306.000" stroke-width="5.060" stroke="black" fill="none" stroke-linecap="round"></path><path d="M 533.000,306.000 C 528.169,310.206 527.680,308.520 524.000,315.000" stroke-width="3.611" stroke="black" fill="none" stroke-linecap="round"></path><path d="M 524.000,315.000 C 518.726,322.200 518.169,321.706 513.000,329.000" stroke-width="2.890" stroke="black" fill="none" stroke-linecap="round"></path><path d="M 513.000,329.000 C 510.500,331.500 510.726,331.700 508.000,334.000" stroke-width="3.935" stroke="black" fill="none" stroke-linecap="round"></path><path d="M 508.000,334.000 C 505.307,335.572 506.000,336.000 504.000,338.000" stroke-width="4.650" stroke="black" fill="none" stroke-linecap="round"></path><path d="M 504.000,338.000 C 501.662,342.364 501.807,342.072 501.000,347.000" stroke-width="3.870" stroke="black" fill="none" stroke-linecap="round"></path><path d="M 501.000,347.000 C 501.299,353.019 500.162,352.864 501.000,359.000" stroke-width="3.451" stroke="black" fill="none" stroke-linecap="round"></path><path d="M 501.000,359.000 C 500.287,362.987 500.799,363.019 500.000,367.000" stroke-width="3.648" stroke="black" fill="none" stroke-linecap="round"></path><path d="M 500.000,367.000 C 499.752,370.021 499.787,369.987 500.000,373.000" stroke-width="4.361" stroke="black" fill="none" stroke-linecap="round"></path><path d="M 500.000,373.000 C 499.015,377.195 500.252,376.021 501.000,379.000" stroke-width="4.792" stroke="black" fill="none" stroke-linecap="round"></path><path d="M 501.000,379.000 C 505.853,381.570 504.515,382.195 511.000,383.000" stroke-width="3.693" stroke="black" fill="none" stroke-linecap="round"></path><path d="M 511.000,383.000 C 514.987,383.713 514.853,384.070 519.000,384.000" stroke-width="3.726" stroke="black" fill="none" stroke-linecap="round"></path><path d="M 519.000,384.000 C 522.000,384.000 521.987,384.213 525.000,384.000" stroke-width="3.974" stroke="black" fill="none" stroke-linecap="round"></path><path d="M 525.000,384.000 C 529.016,384.249 529.000,384.000 533.000,384.000" stroke-width="4.328" stroke="black" fill="none" stroke-linecap="round"></path><path d="M 533.000,384.000 C 537.308,384.477 537.016,383.749 541.000,383.000" stroke-width="3.899" stroke="black" fill="none" stroke-linecap="round"></path><path d="M 541.000,383.000 C 550.865,380.037 549.808,379.477 558.000,374.000" stroke-width="2.922" stroke="black" fill="none" stroke-linecap="round"></path><path d="M 558.000,374.000 C 563.134,367.840 563.865,369.037 567.000,361.000" stroke-width="2.917" stroke="black" fill="none" stroke-linecap="round"></path><path d="M 567.000,361.000 C 569.707,356.173 569.634,356.340 571.000,351.000" stroke-width="3.215" stroke="black" fill="none" stroke-linecap="round"></path><path d="M 571.000,351.000 C 571.705,346.015 572.207,346.173 572.000,341.000" stroke-width="3.379" stroke="black" fill="none" stroke-linecap="round"></path><path d="M 572.000,341.000 C 572.613,329.002 572.705,329.015 573.000,317.000" stroke-width="2.570" stroke="black" fill="none" stroke-linecap="round"></path><path d="M 573.000,317.000 C 573.249,313.482 573.113,313.502 573.000,310.000" stroke-width="3.420" stroke="black" fill="none" stroke-linecap="round"></path><path d="M 573.000,310.000 C 573.926,305.407 572.749,306.482 572.000,303.000" stroke-width="4.187" stroke="black" fill="none" stroke-linecap="round"></path><path d="M 572.000,303.000 C 568.551,300.273 569.926,300.407 565.000,300.000" stroke-width="4.673" stroke="black" fill="none" stroke-linecap="round"></path><path d="M 565.000,300.000 C 560.142,299.374 562.051,299.773 559.000,302.000" stroke-width="4.977" stroke="black" fill="none" stroke-linecap="round"></path><path d="M 559.000,302.000 C 556.562,312.459 555.142,310.874 555.000,323.000" stroke-width="2.849" stroke="black" fill="none" stroke-linecap="round"></path><path d="M 555.000,323.000 C 555.000,326.000 554.562,325.959 555.000,329.000" stroke-width="3.654" stroke="black" fill="none" stroke-linecap="round"></path><path d="M 555.000,329.000 C 554.028,332.279 555.000,332.000 555.000,335.000" stroke-width="4.364" stroke="black" fill="none" stroke-linecap="round"></path><path d="M 555.000,335.000 C 556.966,339.460 556.528,339.279 560.000,343.000" stroke-width="4.371" stroke="black" fill="none" stroke-linecap="round"></path><path d="M 560.000,343.000 C 563.615,345.876 562.966,346.460 567.000,349.000" stroke-width="3.894" stroke="black" fill="none" stroke-linecap="round"></path><path d="M 567.000,349.000 C 569.906,352.099 570.115,351.876 573.000,355.000" stroke-width="3.739" stroke="black" fill="none" stroke-linecap="round"></path><path d="M 573.000,355.000 C 578.072,359.424 577.906,359.599 583.000,364.000" stroke-width="3.233" stroke="black" fill="none" stroke-linecap="round"></path><path d="M 583.000,364.000 C 584.900,366.110 585.072,365.924 587.000,368.000" stroke-width="4.203" stroke="black" fill="none" stroke-linecap="round"></path><path d="M 587.000,368.000 C 589.710,370.944 589.900,370.610 593.000,373.000" stroke-width="4.456" stroke="black" fill="none" stroke-linecap="round"></path><path d="M 593.000,373.000 C 598.138,375.252 597.710,375.944 603.000,378.000" stroke-width="3.717" stroke="black" fill="none" stroke-linecap="round"></path><path d="M 603.000,378.000 C 609.171,382.734 609.638,381.752 616.000,386.000" stroke-width="3.156" stroke="black" fill="none" stroke-linecap="round"></path><path d="M 616.000,386.000 C 620.920,388.047 620.671,388.234 626.000,389.000" stroke-width="3.880" stroke="black" fill="none" stroke-linecap="round"></path><path d="M 626.000,389.000 C 629.063,389.452 628.920,389.547 632.000,389.000" stroke-width="4.615" stroke="black" fill="none" stroke-linecap="round"></path><path d="M 632.000,389.000 C 635.460,387.833 635.563,388.452 639.000,387.000" stroke-width="4.120" stroke="black" fill="none" stroke-linecap="round"></path><path d="M 639.000,387.000 C 645.131,387.731 643.960,385.833 649.000,385.000" stroke-width="4.242" stroke="black" fill="none" stroke-linecap="round"></path><path d="M 649.000,385.000 C 653.704,380.454 653.631,381.731 656.000,375.000" stroke-width="4.146" stroke="black" fill="none" stroke-linecap="round"></path><path d="M 743.000,190.000 C 739.767,196.401 740.000,196.500 737.000,203.000" stroke-width="5.185" stroke="black" fill="none" stroke-linecap="round"></path><path d="M 737.000,203.000 C 733.013,211.831 733.267,211.901 730.000,221.000" stroke-width="3.089" stroke="black" fill="none" stroke-linecap="round"></path><path d="M 730.000,221.000 C 721.816,246.946 721.513,246.831 714.000,273.000" stroke-width="1.613" stroke="black" fill="none" stroke-linecap="round"></path><path d="M 714.000,273.000 C 710.532,281.809 711.316,281.946 709.000,291.000" stroke-width="2.236" stroke="black" fill="none" stroke-linecap="round"></path><path d="M 709.000,291.000 C 707.180,312.102 705.532,311.809 704.000,333.000" stroke-width="1.702" stroke="black" fill="none" stroke-linecap="round"></path><path d="M 704.000,333.000 C 701.209,358.490 700.180,358.102 695.000,383.000" stroke-width="2.031" stroke="black" fill="none" stroke-linecap="round"></path><path d="M 695.000,383.000 C 690.343,395.670 691.709,395.990 685.000,408.000" stroke-width="2.131" stroke="black" fill="none" stroke-linecap="round"></path><path d="M 685.000,408.000 C 683.777,410.716 683.843,410.670 682.000,413.000" stroke-width="3.248" stroke="black" fill="none" stroke-linecap="round"></path><path d="M 682.000,413.000 C 680.000,415.000 680.277,415.216 678.000,417.000" stroke-width="3.834" stroke="black" fill="none" stroke-linecap="round"></path><path d="M 678.000,417.000 C 673.225,421.000 676.000,419.000 674.000,421.000" stroke-width="4.476" stroke="black" fill="none" stroke-linecap="round"></path><path d="M 674.000,421.000 C 678.056,419.104 675.225,421.000 682.000,417.000" stroke-width="4.936" stroke="black" fill="none" stroke-linecap="round"></path><path d="M 682.000,417.000 C 685.544,415.074 685.556,415.104 689.000,413.000" stroke-width="4.094" stroke="black" fill="none" stroke-linecap="round"></path><path d="M 689.000,413.000 C 695.268,408.526 695.544,409.074 702.000,405.000" stroke-width="3.231" stroke="black" fill="none" stroke-linecap="round"></path><path d="M 702.000,405.000 C 705.961,403.389 705.768,403.026 710.000,402.000" stroke-width="3.524" stroke="black" fill="none" stroke-linecap="round"></path><path d="M 710.000,402.000 C 722.327,398.669 721.961,397.889 734.000,394.000" stroke-width="3.279" stroke="black" fill="none" stroke-linecap="round"></path><path d="M 734.000,394.000 C 737.875,392.834 737.327,392.669 740.000,390.000" stroke-width="3.762" stroke="black" fill="none" stroke-linecap="round"></path><path d="M 740.000,390.000 C 748.240,380.742 746.875,380.834 752.000,370.000" stroke-width="2.593" stroke="black" fill="none" stroke-linecap="round"></path><path d="M 752.000,370.000 C 752.948,359.995 755.240,360.742 754.000,350.000" stroke-width="3.165" stroke="black" fill="none" stroke-linecap="round"></path><path d="M 754.000,350.000 C 754.626,340.933 754.948,340.995 756.000,332.000" stroke-width="2.843" stroke="black" fill="none" stroke-linecap="round"></path><path d="M 756.000,332.000 C 756.951,327.987 756.626,327.933 758.000,324.000" stroke-width="3.444" stroke="black" fill="none" stroke-linecap="round"></path><path d="M 758.000,324.000 C 759.766,318.555 759.451,318.487 761.000,313.000" stroke-width="3.908" stroke="black" fill="none" stroke-linecap="round"></path><path d="M 761.000,313.000 C 762.184,309.492 761.766,309.555 762.000,306.000" stroke-width="4.040" stroke="black" fill="none" stroke-linecap="round"></path><path d="M 762.000,306.000 C 761.232,299.953 761.684,299.992 760.000,294.000" stroke-width="3.409" stroke="black" fill="none" stroke-linecap="round"></path><path d="M 760.000,294.000 C 756.920,285.644 758.232,285.453 756.000,277.000" stroke-width="2.871" stroke="black" fill="none" stroke-linecap="round"></path><path d="M 756.000,277.000 C 755.000,261.993 754.420,262.144 755.000,247.000" stroke-width="2.291" stroke="black" fill="none" stroke-linecap="round"></path><path d="M 755.000,247.000 C 754.944,238.923 755.000,238.993 756.000,231.000" stroke-width="2.683" stroke="black" fill="none" stroke-linecap="round"></path><path d="M 756.000,231.000 C 758.038,224.057 756.944,223.923 759.000,217.000" stroke-width="2.877" stroke="black" fill="none" stroke-linecap="round"></path><path d="M 759.000,217.000 C 759.000,213.000 759.538,213.057 759.000,209.000" stroke-width="3.437" stroke="black" fill="none" stroke-linecap="round"></path><path d="M 759.000,209.000 C 759.000,206.000 759.000,206.000 759.000,203.000" stroke-width="3.912" stroke="black" fill="none" stroke-linecap="round"></path><path d="M 759.000,203.000 C 760.169,198.288 759.000,198.500 759.000,194.000" stroke-width="3.688" stroke="black" fill="none" stroke-linecap="round"></path><path d="M 759.000,194.000 C 753.946,182.167 755.669,181.788 750.000,170.000" stroke-width="3.306" stroke="black" fill="none" stroke-linecap="round"></path><path d="M 750.000,170.000 C 750.894,157.865 747.946,163.667 747.000,157.000" stroke-width="3.196" stroke="black" fill="none" stroke-linecap="round"></path><path d="M 747.000,157.000 C 738.087,159.913 741.894,155.865 732.000,166.000" stroke-width="4.095" stroke="black" fill="none" stroke-linecap="round"></path><path d="M 732.000,166.000 C 720.034,177.835 720.587,177.413 712.000,192.000" stroke-width="2.208" stroke="black" fill="none" stroke-linecap="round"></path><path d="M 712.000,192.000 C 699.751,211.529 701.034,211.335 694.000,233.000" stroke-width="1.643" stroke="black" fill="none" stroke-linecap="round"></path><path d="M 694.000,233.000 C 685.024,268.314 684.751,267.529 682.000,304.000" stroke-width="1.199" stroke="black" fill="none" stroke-linecap="round"></path><path d="M 682.000,304.000 C 681.937,327.623 680.024,327.314 684.000,351.000" stroke-width="1.811" stroke="black" fill="none" stroke-linecap="round"></path><path d="M 684.000,351.000 C 686.608,361.424 684.937,361.623 688.000,372.000" stroke-width="2.191" stroke="black" fill="none" stroke-linecap="round"></path><path d="M 688.000,372.000 C 688.660,380.495 689.108,380.424 689.000,389.000" stroke-width="2.638" stroke="black" fill="none" stroke-linecap="round"></path><path d="M 689.000,389.000 C 689.000,393.000 689.160,392.995 689.000,397.000" stroke-width="3.370" stroke="black" fill="none" stroke-linecap="round"></path><path d="M 689.000,397.000 C 687.548,405.102 689.000,404.500 689.000,412.000" stroke-width="3.679" stroke="black" fill="none" stroke-linecap="round"></path><path d="M 689.000,412.000 C 690.503,416.000 689.548,414.602 693.000,416.000" stroke-width="4.555" stroke="black" fill="none" stroke-linecap="round"></path><path d="M 693.000,416.000 C 699.701,414.450 699.003,416.000 706.000,412.000" stroke-width="4.112" stroke="black" fill="none" stroke-linecap="round"></path><path d="M 706.000,412.000 C 709.577,411.471 708.701,410.950 711.000,409.000" stroke-width="4.207" stroke="black" fill="none" stroke-linecap="round"></path><path d="M 711.000,409.000 C 718.538,394.205 719.077,394.971 725.000,379.000" stroke-width="2.283" stroke="black" fill="none" stroke-linecap="round"></path><path d="M 725.000,379.000 C 726.808,374.068 727.038,374.205 728.000,369.000" stroke-width="3.009" stroke="black" fill="none" stroke-linecap="round"></path><path d="M 728.000,369.000 C 727.943,365.347 728.808,365.568 729.000,362.000" stroke-width="3.583" stroke="black" fill="none" stroke-linecap="round"></path><path d="M 729.000,362.000 C 730.594,355.393 730.943,355.847 734.000,350.000" stroke-width="3.355" stroke="black" fill="none" stroke-linecap="round"></path><path d="M 734.000,350.000 C 737.376,346.366 736.594,345.893 741.000,343.000" stroke-width="3.438" stroke="black" fill="none" stroke-linecap="round"></path><path d="M 741.000,343.000 C 744.238,339.605 744.376,339.866 748.000,337.000" stroke-width="3.582" stroke="black" fill="none" stroke-linecap="round"></path><path d="M 748.000,337.000 C 751.750,333.250 750.738,335.105 754.000,334.000" stroke-width="3.841" stroke="black" fill="none" stroke-linecap="round"></path><path d="M 754.000,334.000 C 756.432,336.875 756.250,334.750 757.000,340.000" stroke-width="4.907" stroke="black" fill="none" stroke-linecap="round"></path><path d="M 757.000,340.000 C 756.730,342.568 757.432,342.375 756.000,345.000" stroke-width="5.219" stroke="black" fill="none" stroke-linecap="round"></path><path d="M 756.000,345.000 C 754.704,347.417 755.230,347.568 754.000,350.000" stroke-width="4.468" stroke="black" fill="none" stroke-linecap="round"></path><path d="M 718.000,383.000 C 721.270,382.536 721.000,382.000 724.000,381.000" stroke-width="5.159" stroke="black" fill="none" stroke-linecap="round"></path><path d="M 724.000,381.000 C 730.712,378.931 729.270,378.036 734.000,374.000" stroke-width="4.374" stroke="black" fill="none" stroke-linecap="round"></path><path d="M 734.000,374.000 C 741.314,361.388 741.712,362.431 746.000,348.000" stroke-width="2.405" stroke="black" fill="none" stroke-linecap="round"></path><path d="M 746.000,348.000 C 747.345,341.037 748.314,341.388 748.000,334.000" stroke-width="2.835" stroke="black" fill="none" stroke-linecap="round"></path><path d="M 748.000,334.000 C 748.856,319.487 749.345,319.537 750.000,305.000" stroke-width="2.121" stroke="black" fill="none" stroke-linecap="round"></path><path d="M 750.000,305.000 C 750.225,300.455 750.356,300.487 751.000,296.000" stroke-width="2.974" stroke="black" fill="none" stroke-linecap="round"></path><path d="M 751.000,296.000 C 751.149,288.415 752.225,288.955 754.000,282.000" stroke-width="3.029" stroke="black" fill="none" stroke-linecap="round"></path><path d="M 754.000,282.000 C 757.227,273.985 757.149,274.915 763.000,269.000" stroke-width="2.886" stroke="black" fill="none" stroke-linecap="round"></path><path d="M 763.000,269.000 C 769.306,265.343 768.227,264.485 776.000,263.000" stroke-width="3.001" stroke="black" fill="none" stroke-linecap="round"></path><path d="M 776.000,263.000 C 779.484,262.270 779.306,261.843 783.000,262.000" stroke-width="3.621" stroke="black" fill="none" stroke-linecap="round"></path><path d="M 783.000,262.000 C 786.649,260.433 785.984,261.770 789.000,262.000" stroke-width="4.406" stroke="black" fill="none" stroke-linecap="round"></path><path d="M 789.000,262.000 C 795.337,267.708 795.649,266.433 801.000,274.000" stroke-width="3.898" stroke="black" fill="none" stroke-linecap="round"></path><path d="M 801.000,274.000 C 804.552,277.669 804.337,277.708 807.000,282.000" stroke-width="3.582" stroke="black" fill="none" stroke-linecap="round"></path><path d="M 807.000,282.000 C 812.021,289.086 811.052,289.169 814.000,297.000" stroke-width="3.036" stroke="black" fill="none" stroke-linecap="round"></path><path d="M 814.000,297.000 C 815.221,307.489 816.521,307.086 816.000,318.000" stroke-width="2.648" stroke="black" fill="none" stroke-linecap="round"></path><path d="M 816.000,318.000 C 816.000,321.000 816.221,320.989 816.000,324.000" stroke-width="3.841" stroke="black" fill="none" stroke-linecap="round"></path><path d="M 816.000,324.000 C 815.247,327.611 816.000,327.500 816.000,331.000" stroke-width="4.553" stroke="black" fill="none" stroke-linecap="round"></path><path d="M 816.000,331.000 C 819.187,340.953 818.247,341.111 822.000,351.000" stroke-width="2.914" stroke="black" fill="none" stroke-linecap="round"></path><path d="M 822.000,351.000 C 822.500,353.500 822.687,353.453 823.000,356.000" stroke-width="3.777" stroke="black" fill="none" stroke-linecap="round"></path><path d="M 823.000,356.000 C 822.541,360.270 823.500,358.500 824.000,361.000" stroke-width="4.694" stroke="black" fill="none" stroke-linecap="round"></path><path d="M 824.000,361.000 C 826.631,360.264 825.541,361.770 829.000,359.000" stroke-width="4.343" stroke="black" fill="none" stroke-linecap="round"></path><path d="M 829.000,359.000 C 833.885,355.790 834.131,356.264 839.000,353.000" stroke-width="3.518" stroke="black" fill="none" stroke-linecap="round"></path><path d="M 839.000,353.000 C 845.421,350.627 844.885,349.790 851.000,347.000" stroke-width="3.248" stroke="black" fill="none" stroke-linecap="round"></path><path d="M 851.000,347.000 C 856.225,344.288 855.421,344.127 859.000,340.000" stroke-width="4.111" stroke="black" fill="none" stroke-linecap="round"></path><path d="M 859.000,340.000 C 860.480,334.994 861.725,335.788 862.000,330.000" stroke-width="3.652" stroke="black" fill="none" stroke-linecap="round"></path><path d="M 862.000,330.000 C 863.768,323.418 863.980,323.494 866.000,317.000" stroke-width="3.201" stroke="black" fill="none" stroke-linecap="round"></path><path d="M 866.000,317.000 C 867.843,311.930 867.768,311.918 870.000,307.000" stroke-width="3.367" stroke="black" fill="none" stroke-linecap="round"></path><path d="M 870.000,307.000 C 870.755,303.405 871.343,303.930 873.000,301.000" stroke-width="4.158" stroke="black" fill="none" stroke-linecap="round"></path><path d="M 873.000,301.000 C 878.678,296.696 877.755,295.905 884.000,292.000" stroke-width="3.997" stroke="black" fill="none" stroke-linecap="round"></path><path d="M 884.000,292.000 C 886.893,288.885 887.178,289.196 890.000,286.000" stroke-width="3.822" stroke="black" fill="none" stroke-linecap="round"></path><path d="M 890.000,286.000 C 893.984,282.481 893.893,282.385 898.000,279.000" stroke-width="3.562" stroke="black" fill="none" stroke-linecap="round"></path><path d="M 898.000,279.000 C 901.325,275.757 901.484,275.981 905.000,273.000" stroke-width="4.108" stroke="black" fill="none" stroke-linecap="round"></path><path d="M 905.000,273.000 C 907.398,271.301 907.325,271.257 910.000,270.000" stroke-width="4.205" stroke="black" fill="none" stroke-linecap="round"></path><path d="M 910.000,270.000 C 913.406,267.599 913.398,268.301 917.000,267.000" stroke-width="4.649" stroke="black" fill="none" stroke-linecap="round"></path><path d="M 917.000,267.000 C 920.773,266.091 919.406,266.599 922.000,268.000" stroke-width="5.150" stroke="black" fill="none" stroke-linecap="round"></path><path d="M 922.000,268.000 C 924.273,274.436 925.273,273.091 926.000,281.000" stroke-width="3.543" stroke="black" fill="none" stroke-linecap="round"></path><path d="M 926.000,281.000 C 926.798,283.975 926.773,283.936 927.000,287.000" stroke-width="3.942" stroke="black" fill="none" stroke-linecap="round"></path><path d="M 927.000,287.000 C 927.000,291.500 927.298,291.475 927.000,296.000" stroke-width="4.283" stroke="black" fill="none" stroke-linecap="round"></path><path d="M 927.000,296.000 C 927.000,299.000 927.000,299.000 927.000,302.000" stroke-width="4.914" stroke="black" fill="none" stroke-linecap="round"></path><path d="M 927.000,302.000 C 927.766,305.681 927.000,305.500 927.000,309.000" stroke-width="5.033" stroke="black" fill="none" stroke-linecap="round"></path><path d="M 927.000,309.000 C 925.817,312.192 926.266,312.181 924.000,315.000" stroke-width="4.289" stroke="black" fill="none" stroke-linecap="round"></path><path d="M 924.000,315.000 C 919.620,320.269 920.317,320.692 916.000,326.000" stroke-width="4.070" stroke="black" fill="none" stroke-linecap="round"></path><path d="M 916.000,326.000 C 913.948,329.974 913.620,329.769 912.000,334.000" stroke-width="3.846" stroke="black" fill="none" stroke-linecap="round"></path><path d="M 912.000,334.000 C 906.968,345.766 906.448,345.474 901.000,357.000" stroke-width="2.416" stroke="black" fill="none" stroke-linecap="round"></path><path d="M 901.000,357.000 C 898.064,361.543 898.468,361.766 895.000,366.000" stroke-width="3.092" stroke="black" fill="none" stroke-linecap="round"></path><path d="M 895.000,366.000 C 887.806,378.133 887.064,377.543 879.000,389.000" stroke-width="2.409" stroke="black" fill="none" stroke-linecap="round"></path><path d="M 879.000,389.000 C 863.467,406.471 864.306,407.133 848.000,424.000" stroke-width="2.115" stroke="black" fill="none" stroke-linecap="round"></path><path d="M 848.000,424.000 C 841.396,432.380 840.967,431.971 834.000,440.000" stroke-width="2.370" stroke="black" fill="none" stroke-linecap="round"></path><path d="M 834.000,440.000 C 823.650,448.221 824.896,449.380 815.000,458.000" stroke-width="2.200" stroke="black" fill="none" stroke-linecap="round"></path><path d="M 815.000,458.000 C 802.982,476.463 800.650,474.221 788.000,492.000" stroke-width="1.728" stroke="black" fill="none" stroke-linecap="round"></path><path d="M 788.000,492.000 C 775.439,505.640 775.982,504.463 761.000,514.000" stroke-width="2.307" stroke="black" fill="none" stroke-linecap="round"></path><path d="M 761.000,514.000 C 754.697,516.262 756.439,516.640 750.000,514.000" stroke-width="3.025" stroke="black" fill="none" stroke-linecap="round"></path><path d="M 750.000,514.000 C 739.039,509.222 741.197,509.762 734.000,501.000" stroke-width="3.344" stroke="black" fill="none" stroke-linecap="round"></path><path d="M 734.000,501.000 C 730.428,491.960 729.539,493.722 731.000,483.000" stroke-width="2.808" stroke="black" fill="none" stroke-linecap="round"></path><path d="M 731.000,483.000 C 732.183,467.934 731.928,468.460 737.000,454.000" stroke-width="2.166" stroke="black" fill="none" stroke-linecap="round"></path><path d="M 737.000,454.000 C 742.912,424.712 746.183,427.434 759.000,402.000" stroke-width="1.479" stroke="black" fill="none" stroke-linecap="round"></path><path d="M 759.000,402.000 C 787.607,364.094 785.412,364.712 822.000,334.000" stroke-width="1.477" stroke="black" fill="none" stroke-linecap="round"></path><path d="M 822.000,334.000 C 838.098,324.994 835.607,322.094 855.000,318.000" stroke-width="1.678" stroke="black" fill="none" stroke-linecap="round"></path><path d="M 855.000,318.000 C 867.343,313.331 867.098,312.994 880.000,310.000" stroke-width="2.019" stroke="black" fill="none" stroke-linecap="round"></path><path d="M 880.000,310.000 C 886.458,308.623 886.343,308.331 893.000,308.000" stroke-width="2.664" stroke="black" fill="none" stroke-linecap="round"></path><path d="M 893.000,308.000 C 907.493,306.806 907.458,306.623 922.000,306.000" stroke-width="2.885" stroke="black" fill="none" stroke-linecap="round"></path><path d="M 922.000,306.000 C 925.529,305.711 925.493,305.806 929.000,306.000" stroke-width="3.575" stroke="black" fill="none" stroke-linecap="round"></path><path d="M 929.000,306.000 C 931.667,306.067 931.529,306.211 934.000,307.000" stroke-width="4.405" stroke="black" fill="none" stroke-linecap="round"></path><path d="M 934.000,307.000 C 936.289,309.261 936.667,308.067 939.000,310.000" stroke-width="4.675" stroke="black" fill="none" stroke-linecap="round"></path><path d="M 939.000,310.000 C 943.649,311.351 941.789,310.761 945.000,310.000" stroke-width="5.158" stroke="black" fill="none" stroke-linecap="round"></path><path d="M 945.000,310.000 C 944.195,307.530 946.149,308.851 944.000,305.000" stroke-width="5.450" stroke="black" fill="none" stroke-linecap="round"></path><path d="M 944.000,305.000 C 941.547,299.597 943.695,301.030 944.000,297.000" stroke-width="4.748" stroke="black" fill="none" stroke-linecap="round"></path><path d="M 944.000,297.000 C 952.516,292.027 950.047,290.597 961.000,287.000" stroke-width="2.932" stroke="black" fill="none" stroke-linecap="round"></path><path d="M 961.000,287.000 C 966.238,284.351 966.016,284.027 971.000,281.000" stroke-width="3.150" stroke="black" fill="none" stroke-linecap="round"></path><path d="M 971.000,281.000 C 979.208,274.064 979.738,274.851 988.000,268.000" stroke-width="2.590" stroke="black" fill="none" stroke-linecap="round"></path><path d="M 988.000,268.000 C 995.075,265.776 993.708,264.064 1000.000,261.000" stroke-width="2.871" stroke="black" fill="none" stroke-linecap="round"></path><path d="M 1000.000,261.000 C 1008.480,245.856 1011.575,249.776 1021.000,236.000" stroke-width="2.710" stroke="black" fill="none" stroke-linecap="round"></path><path d="M 1021.000,236.000 C 1033.676,228.071 1031.980,227.356 1047.000,224.000" stroke-width="2.248" stroke="black" fill="none" stroke-linecap="round"></path><path d="M 1047.000,224.000 C 1052.686,222.763 1051.676,222.571 1057.000,225.000" stroke-width="3.017" stroke="black" fill="none" stroke-linecap="round"></path><path d="M 1057.000,225.000 C 1066.524,230.524 1066.186,229.763 1074.000,238.000" stroke-width="2.562" stroke="black" fill="none" stroke-linecap="round"></path><path d="M 1074.000,238.000 C 1081.328,243.687 1079.524,243.524 1083.000,251.000" stroke-width="3.320" stroke="black" fill="none" stroke-linecap="round"></path><path d="M 1083.000,251.000 C 1083.632,262.226 1085.328,261.187 1082.000,273.000" stroke-width="2.660" stroke="black" fill="none" stroke-linecap="round"></path><path d="M 1082.000,273.000 C 1080.447,278.699 1081.132,278.726 1078.000,284.000" stroke-width="3.097" stroke="black" fill="none" stroke-linecap="round"></path><path d="M 1078.000,284.000 C 1073.051,291.104 1074.447,291.699 1070.000,299.000" stroke-width="2.892" stroke="black" fill="none" stroke-linecap="round"></path><path d="M 1070.000,299.000 C 1065.281,313.444 1064.551,313.104 1061.000,328.000" stroke-width="2.918" stroke="black" fill="none" stroke-linecap="round"></path><path d="M 1061.000,328.000 C 1058.846,334.049 1060.281,330.444 1060.000,333.000" stroke-width="4.067" stroke="black" fill="none" stroke-linecap="round"></path><path d="M 1060.000,333.000 C 1065.884,325.403 1064.346,329.049 1072.000,318.000" stroke-width="4.512" stroke="black" fill="none" stroke-linecap="round"></path><path d="M 1072.000,318.000 C 1075.375,313.883 1075.384,313.903 1079.000,310.000" stroke-width="3.721" stroke="black" fill="none" stroke-linecap="round"></path><path d="M 1079.000,310.000 C 1083.501,307.209 1082.375,306.383 1086.000,303.000" stroke-width="3.482" stroke="black" fill="none" stroke-linecap="round"></path><path d="M 1086.000,303.000 C 1092.813,290.793 1093.001,291.209 1098.000,278.000" stroke-width="2.346" stroke="black" fill="none" stroke-linecap="round"></path><path d="M 1098.000,278.000 C 1099.048,271.856 1100.313,272.293 1101.000,266.000" stroke-width="2.869" stroke="black" fill="none" stroke-linecap="round"></path><path d="M 1101.000,266.000 C 1103.301,256.293 1104.048,256.856 1108.000,248.000" stroke-width="2.700" stroke="black" fill="none" stroke-linecap="round"></path><path d="M 1108.000,248.000 C 1112.277,241.087 1111.801,241.293 1118.000,236.000" stroke-width="3.396" stroke="black" fill="none" stroke-linecap="round"></path><path d="M 1118.000,236.000 C 1121.860,232.955 1121.277,233.087 1126.000,232.000" stroke-width="3.594" stroke="black" fill="none" stroke-linecap="round"></path><path d="M 1126.000,232.000 C 1129.733,230.972 1128.360,231.455 1131.000,233.000" stroke-width="4.614" stroke="black" fill="none" stroke-linecap="round"></path><path d="M 1131.000,233.000 C 1137.486,244.051 1137.233,242.972 1141.000,256.000" stroke-width="3.555" stroke="black" fill="none" stroke-linecap="round"></path><path d="M 1141.000,256.000 C 1144.101,269.947 1144.986,269.551 1146.000,284.000" stroke-width="2.325" stroke="black" fill="none" stroke-linecap="round"></path><path d="M 1146.000,284.000 C 1146.000,288.500 1146.601,288.447 1146.000,293.000" stroke-width="3.131" stroke="black" fill="none" stroke-linecap="round"></path><path d="M 1146.000,293.000 C 1146.000,297.000 1146.000,297.000 1146.000,301.000" stroke-width="3.540" stroke="black" fill="none" stroke-linecap="round"></path><path d="M 1146.000,301.000 C 1146.000,304.500 1146.000,304.500 1146.000,308.000" stroke-width="4.413" stroke="black" fill="none" stroke-linecap="round"></path><path d="M 1146.000,308.000 C 1146.602,313.584 1146.000,313.500 1146.000,319.000" stroke-width="4.252" stroke="black" fill="none" stroke-linecap="round"></path><path d="M 1146.000,319.000 C 1144.548,322.437 1145.602,322.584 1144.000,326.000" stroke-width="3.974" stroke="black" fill="none" stroke-linecap="round"></path><path d="M 1144.000,326.000 C 1143.028,329.279 1143.548,328.937 1144.000,332.000" stroke-width="4.781" stroke="black" fill="none" stroke-linecap="round"></path><path d="M 1144.000,332.000 C 1145.754,337.079 1145.528,336.279 1149.000,340.000" stroke-width="5.073" stroke="black" fill="none" stroke-linecap="round"></path><path d="M 1149.000,340.000 C 1151.492,340.544 1150.754,341.579 1154.000,341.000" stroke-width="4.479" stroke="black" fill="none" stroke-linecap="round"></path><path d="M 1154.000,341.000 C 1157.113,342.541 1156.992,341.544 1160.000,342.000" stroke-width="4.189" stroke="black" fill="none" stroke-linecap="round"></path><path d="M 1160.000,342.000 C 1165.828,341.287 1165.113,341.041 1170.000,338.000" stroke-width="4.247" stroke="black" fill="none" stroke-linecap="round"></path><path d="M 1170.000,338.000 C 1180.337,325.266 1182.328,328.287 1193.000,316.000" stroke-width="2.336" stroke="black" fill="none" stroke-linecap="round"></path><path d="M 1193.000,316.000 C 1201.847,311.606 1200.837,310.266 1211.000,308.000" stroke-width="2.463" stroke="black" fill="none" stroke-linecap="round"></path><path d="M 1211.000,308.000 C 1218.302,304.585 1218.347,305.106 1226.000,303.000" stroke-width="2.762" stroke="black" fill="none" stroke-linecap="round"></path><path d="M 1226.000,303.000 C 1235.528,302.184 1235.302,301.085 1245.000,301.000" stroke-width="2.620" stroke="black" fill="none" stroke-linecap="round"></path><path d="M 1245.000,301.000 C 1247.780,301.175 1247.528,300.684 1250.000,300.000" stroke-width="3.620" stroke="black" fill="none" stroke-linecap="round"></path><path d="M 1250.000,300.000 C 1257.142,297.101 1256.280,296.675 1262.000,292.000" stroke-width="3.821" stroke="black" fill="none" stroke-linecap="round"></path><path d="M 1262.000,292.000 C 1266.402,285.716 1267.142,286.601 1270.000,279.000" stroke-width="3.178" stroke="black" fill="none" stroke-linecap="round"></path><path d="M 1270.000,279.000 C 1273.169,271.314 1273.902,271.716 1277.000,264.000" stroke-width="2.877" stroke="black" fill="none" stroke-linecap="round"></path><path d="M 1277.000,264.000 C 1278.140,259.838 1278.669,260.814 1281.000,258.000" stroke-width="3.908" stroke="black" fill="none" stroke-linecap="round"></path><path d="M 1281.000,258.000 C 1285.930,256.233 1285.140,255.338 1291.000,255.000" stroke-width="4.912" stroke="black" fill="none" stroke-linecap="round"></path><path d="M 1291.000,255.000 C 1304.405,251.492 1304.430,251.733 1318.000,249.000" stroke-width="2.577" stroke="black" fill="none" stroke-linecap="round"></path><path d="M 1318.000,249.000 C 1334.411,245.317 1334.405,245.992 1351.000,244.000" stroke-width="2.061" stroke="black" fill="none" stroke-linecap="round"></path><path d="M 1351.000,244.000 C 1366.000,244.000 1365.911,242.817 1381.000,244.000" stroke-width="2.042" stroke="black" fill="none" stroke-linecap="round"></path><path d="M 1381.000,244.000 C 1385.000,244.000 1385.000,244.000 1389.000,244.000" stroke-width="3.062" stroke="black" fill="none" stroke-linecap="round"></path><path d="M 1389.000,244.000 C 1392.027,243.730 1392.000,244.000 1395.000,244.000" stroke-width="4.029" stroke="black" fill="none" stroke-linecap="round"></path><path d="M 1395.000,244.000 C 1401.366,244.024 1397.527,244.230 1400.000,245.000" stroke-width="4.897" stroke="black" fill="none" stroke-linecap="round"></path><path d="M 1400.000,245.000 C 1391.034,251.382 1394.366,249.024 1381.000,254.000" stroke-width="4.163" stroke="black" fill="none" stroke-linecap="round"></path><path d="M 1381.000,254.000 C 1367.511,255.602 1368.034,257.382 1354.000,257.000" stroke-width="2.452" stroke="black" fill="none" stroke-linecap="round"></path><path d="M 1354.000,257.000 C 1338.522,258.765 1338.511,258.602 1323.000,260.000" stroke-width="2.106" stroke="black" fill="none" stroke-linecap="round"></path><path d="M 1323.000,260.000 C 1294.534,264.377 1294.522,262.265 1266.000,264.000" stroke-width="1.406" stroke="black" fill="none" stroke-linecap="round"></path><path d="M 1266.000,264.000 C 1180.991,260.710 1181.034,262.877 1096.000,257.000" stroke-width="1.125" stroke="black" fill="none" stroke-linecap="round"></path><path d="M 1096.000,257.000 C 1055.009,253.000 1054.991,255.210 1014.000,253.000" stroke-width="1.125" stroke="black" fill="none" stroke-linecap="round"></path><path d="M 1014.000,253.000 C 963.984,254.650 964.009,253.000 914.000,257.000" stroke-width="1.125" stroke="black" fill="none" stroke-linecap="round"></path><path d="M 914.000,257.000 C 847.007,260.650 846.984,260.150 780.000,264.000" stroke-width="1.125" stroke="black" fill="none" stroke-linecap="round"></path><path d="M 780.000,264.000 C 715.738,259.105 717.007,267.150 654.000,270.000" stroke-width="1.125" stroke="black" fill="none" stroke-linecap="round"></path><circle r="1.5" cx="491" cy="315" fill="black"></circle><path d="M 382.000,325.000 C 375.970,318.118 377.500,317.500 373.000,310.000" stroke-width="4.971" stroke="black" fill="none" stroke-linecap="round"></path><path d="M 373.000,310.000 C 368.715,297.146 368.470,297.618 367.000,284.000" stroke-width="2.549" stroke="black" fill="none" stroke-linecap="round"></path><path d="M 367.000,284.000 C 365.924,273.897 365.715,274.146 367.000,264.000" stroke-width="2.574" stroke="black" fill="none" stroke-linecap="round"></path><path d="M 367.000,264.000 C 368.798,250.808 368.424,250.897 372.000,238.000" stroke-width="2.300" stroke="black" fill="none" stroke-linecap="round"></path><path d="M 372.000,238.000 C 375.201,231.198 373.798,230.808 377.000,224.000" stroke-width="2.749" stroke="black" fill="none" stroke-linecap="round"></path><path d="M 377.000,224.000 C 383.232,205.149 381.701,205.198 385.000,186.000" stroke-width="1.931" stroke="black" fill="none" stroke-linecap="round"></path><path d="M 385.000,186.000 C 385.210,172.258 386.232,172.649 383.000,159.000" stroke-width="2.092" stroke="black" fill="none" stroke-linecap="round"></path><path d="M 383.000,159.000 C 384.078,148.217 381.710,151.258 378.000,144.000" stroke-width="2.607" stroke="black" fill="none" stroke-linecap="round"></path><path d="M 378.000,144.000 C 356.557,131.803 359.578,131.217 334.000,125.000" stroke-width="2.315" stroke="black" fill="none" stroke-linecap="round"></path><path d="M 334.000,125.000 C 324.494,124.717 325.057,122.303 315.000,125.000" stroke-width="2.544" stroke="black" fill="none" stroke-linecap="round"></path><path d="M 315.000,125.000 C 290.175,121.598 290.994,125.717 267.000,127.000" stroke-width="1.623" stroke="black" fill="none" stroke-linecap="round"></path><path d="M 267.000,127.000 C 221.520,136.240 223.675,137.098 182.000,156.000" stroke-width="1.567" stroke="black" fill="none" stroke-linecap="round"></path><path d="M 182.000,156.000 C 159.469,169.786 159.520,167.240 143.000,189.000" stroke-width="1.450" stroke="black" fill="none" stroke-linecap="round"></path><path d="M 143.000,189.000 C 119.000,215.908 120.469,215.286 104.000,247.000" stroke-width="1.143" stroke="black" fill="none" stroke-linecap="round"></path><path d="M 104.000,247.000 C 90.075,274.327 91.500,272.908 88.000,303.000" stroke-width="1.230" stroke="black" fill="none" stroke-linecap="round"></path><path d="M 88.000,303.000 C 85.172,351.813 84.575,350.327 93.000,399.000" stroke-width="1.368" stroke="black" fill="none" stroke-linecap="round"></path><path d="M 93.000,399.000 C 107.177,459.919 103.172,460.313 124.000,520.000" stroke-width="1.125" stroke="black" fill="none" stroke-linecap="round"></path><path d="M 124.000,520.000 C 121.745,545.405 128.177,534.919 135.000,549.000" stroke-width="1.372" stroke="black" fill="none" stroke-linecap="round"></path><path d="M 135.000,549.000 C 197.043,569.072 180.745,561.405 242.000,552.000" stroke-width="1.986" stroke="black" fill="none" stroke-linecap="round"></path><path d="M 242.000,552.000 C 265.588,518.696 276.043,539.072 293.000,489.000" stroke-width="1.196" stroke="black" fill="none" stroke-linecap="round"></path><path d="M 293.000,489.000 C 315.419,468.410 313.588,466.696 338.000,448.000" stroke-width="1.178" stroke="black" fill="none" stroke-linecap="round"></path><path d="M 338.000,448.000 C 367.723,421.743 367.419,421.410 397.000,395.000" stroke-width="1.125" stroke="black" fill="none" stroke-linecap="round"></path><path d="M 397.000,395.000 C 421.800,375.850 419.723,374.243 442.000,353.000" stroke-width="1.552" stroke="black" fill="none" stroke-linecap="round"></path></svg>