<svg xmlns="http://www.w3.org/2000/svg" xmlns:xlink="http://www.w3.org/1999/xlink" viewBox="0 0 1460 576" width="1460" height="576"><path d="M 437.000,155.000 C 434.369,150.650 434.000,151.000 431.000,147.000" stroke-width="5.288" stroke="black" fill="none" stroke-linecap="round"></path><path d="M 431.000,147.000 C 428.255,144.072 428.369,144.150 425.000,142.000" stroke-width="4.134" stroke="black" fill="none" stroke-linecap="round"></path><path d="M 425.000,142.000 C 422.551,140.850 422.755,140.572 420.000,140.000" stroke-width="4.186" stroke="black" fill="none" stroke-linecap="round"></path><path d="M 420.000,140.000 C 416.573,138.662 416.551,138.850 413.000,138.000" stroke-width="4.009" stroke="black" fill="none" stroke-linecap="round"></path><path d="M 413.000,138.000 C 403.039,135.972 403.073,136.162 393.000,135.000" stroke-width="2.805" stroke="black" fill="none" stroke-linecap="round"></path><path d="M 393.000,135.000 C 387.480,134.599 387.539,134.472 382.000,135.000" stroke-width="3.206" stroke="black" fill="none" stroke-linecap="round"></path><path d="M 382.000,135.000 C 366.919,136.037 366.980,136.099 352.000,138.000" stroke-width="2.879" stroke="black" fill="none" stroke-linecap="round"></path><path d="M 352.000,138.000 C 347.942,138.800 347.919,138.537 344.000,140.000" stroke-width="3.460" stroke="black" fill="none" stroke-linecap="round"></path><path d="M 344.000,140.000 C 336.443,142.342 336.442,142.300 329.000,145.000" stroke-width="2.993" stroke="black" fill="none" stroke-linecap="round"></path><path d="M 329.000,145.000 C 321.844,146.348 322.443,147.342 316.000,150.000" stroke-width="3.061" stroke="black" fill="none" stroke-linecap="round"></path><path d="M 316.000,150.000 C 306.713,157.793 305.844,156.348 297.000,165.000" stroke-width="3.188" stroke="black" fill="none" stroke-linecap="round"></path><path d="M 297.000,165.000 C 291.082,169.130 291.213,169.293 285.000,173.000" stroke-width="3.195" stroke="black" fill="none" stroke-linecap="round"></path><path d="M 285.000,173.000 C 279.732,175.620 280.082,176.130 275.000,179.000" stroke-width="3.293" stroke="black" fill="none" stroke-linecap="round"></path><path d="M 275.000,179.000 C 268.854,182.890 269.232,183.120 264.000,188.000" stroke-width="2.999" stroke="black" fill="none" stroke-linecap="round"></path><path d="M 264.000,188.000 C 259.620,193.269 259.354,192.890 256.000,199.000" stroke-width="3.140" stroke="black" fill="none" stroke-linecap="round"></path><path d="M 256.000,199.000 C 254.263,203.153 253.620,202.769 252.000,207.000" stroke-width="3.503" stroke="black" fill="none" stroke-linecap="round"></path><path d="M 252.000,207.000 C 247.970,211.009 249.263,211.653 246.000,216.000" stroke-width="3.335" stroke="black" fill="none" stroke-linecap="round"></path><path d="M 246.000,216.000 C 241.465,230.489 240.470,230.009 237.000,245.000" stroke-width="3.072" stroke="black" fill="none" stroke-linecap="round"></path><path d="M 237.000,245.000 C 235.019,249.905 235.465,249.989 234.000,255.000" stroke-width="3.350" stroke="black" fill="none" stroke-linecap="round"></path><path d="M 234.000,255.000 C 233.000,259.991 233.019,259.905 233.000,265.000" stroke-width="3.423" stroke="black" fill="none" stroke-linecap="round"></path><path d="M 233.000,265.000 C 232.871,273.097 233.000,272.991 234.000,281.000" stroke-width="3.035" stroke="black" fill="none" stroke-linecap="round"></path><path d="M 234.000,281.000 C 234.765,287.287 234.871,287.097 237.000,293.000" stroke-width="3.705" stroke="black" fill="none" stroke-linecap="round"></path><path d="M 237.000,293.000 C 240.324,298.352 239.265,298.787 243.000,304.000" stroke-width="3.365" stroke="black" fill="none" stroke-linecap="round"></path><path d="M 243.000,304.000 C 244.414,308.035 244.824,307.852 246.000,312.000" stroke-width="3.571" stroke="black" fill="none" stroke-linecap="round"></path><path d="M 246.000,312.000 C 246.380,316.380 247.414,315.535 249.000,319.000" stroke-width="3.785" stroke="black" fill="none" stroke-linecap="round"></path><path d="M 249.000,319.000 C 256.522,325.913 255.880,325.880 265.000,331.000" stroke-width="3.583" stroke="black" fill="none" stroke-linecap="round"></path><path d="M 265.000,331.000 C 269.422,332.795 269.022,333.413 274.000,334.000" stroke-width="3.602" stroke="black" fill="none" stroke-linecap="round"></path><path d="M 274.000,334.000 C 278.991,335.046 278.922,335.295 284.000,336.000" stroke-width="3.541" stroke="black" fill="none" stroke-linecap="round"></path><path d="M 284.000,336.000 C 289.471,337.187 289.491,337.046 295.000,338.000" stroke-width="3.377" stroke="black" fill="none" stroke-linecap="round"></path><path d="M 295.000,338.000 C 306.467,340.011 306.471,339.687 318.000,341.000" stroke-width="3.325" stroke="black" fill="none" stroke-linecap="round"></path><path d="M 318.000,341.000 C 324.000,341.000 323.967,341.511 330.000,341.000" stroke-width="3.306" stroke="black" fill="none" stroke-linecap="round"></path><path d="M 330.000,341.000 C 335.032,341.466 335.000,341.000 340.000,341.000" stroke-width="3.467" stroke="black" fill="none" stroke-linecap="round"></path><path d="M 340.000,341.000 C 351.062,339.823 351.032,339.966 362.000,338.000" stroke-width="3.393" stroke="black" fill="none" stroke-linecap="round"></path><path d="M 362.000,338.000 C 365.930,336.603 366.062,337.323 370.000,336.000" stroke-width="3.706" stroke="black" fill="none" stroke-linecap="round"></path><path d="M 370.000,336.000 C 379.506,335.055 379.430,334.603 389.000,334.000" stroke-width="2.825" stroke="black" fill="none" stroke-linecap="round"></path><path d="M 389.000,334.000 C 393.116,333.971 393.006,333.555 397.000,333.000" stroke-width="3.409" stroke="black" fill="none" stroke-linecap="round"></path><path d="M 397.000,333.000 C 401.121,331.778 401.116,331.971 405.000,330.000" stroke-width="3.683" stroke="black" fill="none" stroke-linecap="round"></path><path d="M 405.000,330.000 C 413.273,326.458 413.121,326.278 421.000,322.000" stroke-width="2.898" stroke="black" fill="none" stroke-linecap="round"></path><path d="M 421.000,322.000 C 426.186,318.744 426.273,318.958 431.000,315.000" stroke-width="3.151" stroke="black" fill="none" stroke-linecap="round"></path><path d="M 431.000,315.000 C 439.825,308.358 439.686,308.244 448.000,301.000" stroke-width="3.276" stroke="black" fill="none" stroke-linecap="round"></path><path d="M 448.000,301.000 C 454.783,294.758 454.825,294.858 461.000,288.000" stroke-width="2.914" stroke="black" fill="none" stroke-linecap="round"></path><path d="M 461.000,288.000 C 466.026,282.021 466.283,282.258 471.000,276.000" stroke-width="2.866" stroke="black" fill="none" stroke-linecap="round"></path><path d="M 471.000,276.000 C 474.717,269.649 475.526,270.521 480.000,265.000" stroke-width="2.944" stroke="black" fill="none" stroke-linecap="round"></path><path d="M 480.000,265.000 C 487.925,259.383 487.217,258.649 496.000,254.000" stroke-width="3.362" stroke="black" fill="none" stroke-linecap="round"></path><path d="M 496.000,254.000 C 498.362,252.199 498.425,252.383 501.000,251.000" stroke-width="3.937" stroke="black" fill="none" stroke-linecap="round"></path><path d="M 501.000,251.000 C 503.923,249.659 503.862,249.699 507.000,249.000" stroke-width="4.003" stroke="black" fill="none" stroke-linecap="round"></path><path d="M 507.000,249.000 C 511.078,247.564 510.923,248.159 515.000,248.000" stroke-width="3.815" stroke="black" fill="none" stroke-linecap="round"></path><path d="M 515.000,248.000 C 520.486,248.538 520.078,248.564 525.000,251.000" stroke-width="4.125" stroke="black" fill="none" stroke-linecap="round"></path><path d="M 525.000,251.000 C 530.962,255.551 531.486,254.538 537.000,260.000" stroke-width="3.324" stroke="black" fill="none" stroke-linecap="round"></path><path d="M 537.000,260.000 C 540.863,262.104 540.462,262.551 544.000,265.000" stroke-width="3.551" stroke="black" fill="none" stroke-linecap="round"></path><path d="M 544.000,265.000 C 547.145,268.384 547.363,268.104 550.000,272.000" stroke-width="3.563" stroke="black" fill="none" stroke-linecap="round"></path><path d="M 550.000,272.000 C 554.551,277.962 554.645,277.884 559.000,284.000" stroke-width="3.795" stroke="black" fill="none" stroke-linecap="round"></path><path d="M 559.000,284.000 C 560.900,288.138 561.551,287.462 564.000,291.000" stroke-width="4.255" stroke="black" fill="none" stroke-linecap="round"></path><path d="M 564.000,291.000 C 568.033,293.450 567.400,294.138 572.000,296.000" stroke-width="4.358" stroke="black" fill="none" stroke-linecap="round"></path><path d="M 572.000,296.000 C 575.735,297.323 575.033,297.950 578.000,300.000" stroke-width="4.010" stroke="black" fill="none" stroke-linecap="round"></path><path d="M 578.000,300.000 C 580.994,304.319 581.235,303.823 583.000,309.000" stroke-width="3.580" stroke="black" fill="none" stroke-linecap="round"></path><path d="M 583.000,309.000 C 582.352,313.382 583.994,311.319 584.000,314.000" stroke-width="4.072" stroke="black" fill="none" stroke-linecap="round"></path><path d="M 584.000,314.000 C 587.529,313.096 586.352,314.882 591.000,312.000" stroke-width="4.942" stroke="black" fill="none" stroke-linecap="round"></path><path d="M 591.000,312.000 C 606.378,306.579 606.529,307.096 622.000,302.000" stroke-width="2.361" stroke="black" fill="none" stroke-linecap="round"></path><path d="M 622.000,302.000 C 635.405,298.098 635.378,298.079 649.000,295.000" stroke-width="2.135" stroke="black" fill="none" stroke-linecap="round"></path><path d="M 649.000,295.000 C 675.052,289.729 674.905,289.098 701.000,284.000" stroke-width="1.474" stroke="black" fill="none" stroke-linecap="round"></path><path d="M 701.000,284.000 C 713.398,280.466 713.552,281.229 726.000,278.000" stroke-width="1.894" stroke="black" fill="none" stroke-linecap="round"></path><path d="M 726.000,278.000 C 736.542,276.743 736.398,275.966 747.000,275.000" stroke-width="2.283" stroke="black" fill="none" stroke-linecap="round"></path><path d="M 747.000,275.000 C 759.616,268.026 754.542,273.743 762.000,272.000" stroke-width="3.239" stroke="black" fill="none" stroke-linecap="round"></path><path d="M 762.000,272.000 C 760.584,283.513 765.616,278.026 759.000,295.000" stroke-width="3.654" stroke="black" fill="none" stroke-linecap="round"></path><path d="M 759.000,295.000 C 758.500,298.000 758.584,298.013 758.000,301.000" stroke-width="3.939" stroke="black" fill="none" stroke-linecap="round"></path><path d="M 758.000,301.000 C 755.187,305.517 757.500,304.000 757.000,307.000" stroke-width="4.654" stroke="black" fill="none" stroke-linecap="round"></path><path d="M 757.000,307.000 C 762.934,308.826 760.687,310.017 769.000,310.000" stroke-width="3.507" stroke="black" fill="none" stroke-linecap="round"></path><path d="M 769.000,310.000 C 778.536,311.301 778.434,311.826 788.000,313.000" stroke-width="2.781" stroke="black" fill="none" stroke-linecap="round"></path><path d="M 788.000,313.000 C 797.942,315.369 798.036,314.801 808.000,317.000" stroke-width="2.679" stroke="black" fill="none" stroke-linecap="round"></path><path d="M 808.000,317.000 C 816.477,318.756 816.442,318.369 825.000,319.000" stroke-width="2.706" stroke="black" fill="none" stroke-linecap="round"></path><path d="M 825.000,319.000 C 834.038,318.867 833.977,319.256 843.000,318.000" stroke-width="2.598" stroke="black" fill="none" stroke-linecap="round"></path><path d="M 843.000,318.000 C 849.635,317.516 849.538,317.367 856.000,316.000" stroke-width="2.974" stroke="black" fill="none" stroke-linecap="round"></path><path d="M 856.000,316.000 C 860.190,314.905 860.135,315.016 864.000,313.000" stroke-width="3.474" stroke="black" fill="none" stroke-linecap="round"></path><path d="M 864.000,313.000 C 870.896,308.806 871.190,309.405 878.000,305.000" stroke-width="2.974" stroke="black" fill="none" stroke-linecap="round"></path><path d="M 878.000,305.000 C 884.747,300.849 884.896,301.306 892.000,298.000" stroke-width="2.942" stroke="black" fill="none" stroke-linecap="round"></path><path d="M 892.000,298.000 C 898.918,295.416 898.747,295.349 906.000,294.000" stroke-width="2.944" stroke="black" fill="none" stroke-linecap="round"></path><path d="M 906.000,294.000 C 909.063,293.548 908.918,293.416 912.000,294.000" stroke-width="3.700" stroke="black" fill="none" stroke-linecap="round"></path><path d="M 912.000,294.000 C 915.417,296.119 915.563,294.548 919.000,296.000" stroke-width="4.307" stroke="black" fill="none" stroke-linecap="round"></path><path d="M 919.000,296.000 C 930.502,294.513 930.417,295.619 942.000,293.000" stroke-width="3.971" stroke="black" fill="none" stroke-linecap="round"></path><path d="M 942.000,293.000 C 949.551,292.304 949.502,292.013 957.000,291.000" stroke-width="3.218" stroke="black" fill="none" stroke-linecap="round"></path><path d="M 957.000,291.000 C 969.430,288.046 969.551,288.804 982.000,286.000" stroke-width="2.404" stroke="black" fill="none" stroke-linecap="round"></path><path d="M 982.000,286.000 C 991.044,285.311 990.930,284.546 1000.000,284.000" stroke-width="2.563" stroke="black" fill="none" stroke-linecap="round"></path><path d="M 1000.000,284.000 C 1011.448,281.400 1011.544,282.311 1023.000,280.000" stroke-width="3.082" stroke="black" fill="none" stroke-linecap="round"></path><path d="M 1023.000,280.000 C 1029.125,278.062 1027.948,279.400 1033.000,280.000" stroke-width="3.338" stroke="black" fill="none" stroke-linecap="round"></path><path d="M 1033.000,280.000 C 1035.750,283.250 1036.125,281.562 1037.000,287.000" stroke-width="4.086" stroke="black" fill="none" stroke-linecap="round"></path><path d="M 1037.000,287.000 C 1034.565,295.603 1038.250,290.750 1038.000,295.000" stroke-width="3.893" stroke="black" fill="none" stroke-linecap="round"></path><path d="M 1038.000,295.000 C 1066.003,286.010 1063.065,290.603 1094.000,277.000" stroke-width="4.393" stroke="black" fill="none" stroke-linecap="round"></path><path d="M 1094.000,277.000 C 1109.095,270.279 1109.503,272.010 1125.000,267.000" stroke-width="2.319" stroke="black" fill="none" stroke-linecap="round"></path><path d="M 1125.000,267.000 C 1157.923,260.462 1157.595,260.279 1191.000,257.000" stroke-width="1.347" stroke="black" fill="none" stroke-linecap="round"></path><path d="M 1191.000,257.000 C 1201.129,256.510 1200.923,255.962 1211.000,258.000" stroke-width="2.059" stroke="black" fill="none" stroke-linecap="round"></path><path d="M 1211.000,258.000 C 1227.371,262.490 1227.629,260.510 1244.000,265.000" stroke-width="1.878" stroke="black" fill="none" stroke-linecap="round"></path><path d="M 1244.000,265.000 C 1253.996,265.655 1253.871,266.490 1264.000,266.000" stroke-width="2.273" stroke="black" fill="none" stroke-linecap="round"></path><path d="M 1264.000,266.000 C 1268.500,266.000 1268.496,266.155 1273.000,266.000" stroke-width="3.103" stroke="black" fill="none" stroke-linecap="round"></path><path d="M 1273.000,266.000 C 1281.015,266.307 1281.000,266.000 1289.000,266.000" stroke-width="2.956" stroke="black" fill="none" stroke-linecap="round"></path><path d="M 1289.000,266.000 C 1293.986,265.218 1294.015,265.807 1299.000,265.000" stroke-width="3.289" stroke="black" fill="none" stroke-linecap="round"></path><path d="M 1299.000,265.000 C 1305.536,264.641 1305.486,264.718 1312.000,265.000" stroke-width="3.837" stroke="black" fill="none" stroke-linecap="round"></path><path d="M 1312.000,265.000 C 1314.473,265.770 1314.536,265.141 1317.000,266.000" stroke-width="4.167" stroke="black" fill="none" stroke-linecap="round"></path><path d="M 1317.000,266.000 C 1320.000,266.000 1319.973,266.270 1323.000,266.000" stroke-width="4.579" stroke="black" fill="none" stroke-linecap="round"></path><path d="M 1323.000,266.000 C 1326.000,266.000 1326.000,266.000 1329.000,266.000" stroke-width="4.881" stroke="black" fill="none" stroke-linecap="round"></path></svg>