<svg xmlns="http://www.w3.org/2000/svg" xmlns:xlink="http://www.w3.org/1999/xlink" viewBox="0 0 1460 576" width="1460" height="576"><path d="M 736.000,271.000 C 733.845,268.079 733.500,268.500 731.000,266.000" stroke-width="5.385" stroke="black" fill="none" stroke-linecap="round"></path><path d="M 731.000,266.000 C 721.509,256.648 720.845,258.579 710.000,252.000" stroke-width="2.740" stroke="black" fill="none" stroke-linecap="round"></path><path d="M 710.000,252.000 C 694.599,246.625 695.509,246.148 679.000,245.000" stroke-width="2.143" stroke="black" fill="none" stroke-linecap="round"></path><path d="M 679.000,245.000 C 669.967,244.275 670.599,244.125 662.000,247.000" stroke-width="2.460" stroke="black" fill="none" stroke-linecap="round"></path><path d="M 662.000,247.000 C 651.389,252.303 650.967,250.775 641.000,258.000" stroke-width="2.322" stroke="black" fill="none" stroke-linecap="round"></path><path d="M 641.000,258.000 C 635.791,260.706 635.889,260.803 631.000,264.000" stroke-width="2.904" stroke="black" fill="none" stroke-linecap="round"></path><path d="M 631.000,264.000 C 626.340,265.458 627.791,266.206 625.000,269.000" stroke-width="3.510" stroke="black" fill="none" stroke-linecap="round"></path><path d="M 625.000,269.000 C 615.952,286.673 619.340,283.958 617.000,301.000" stroke-width="2.991" stroke="black" fill="none" stroke-linecap="round"></path><path d="M 617.000,301.000 C 621.369,307.906 617.452,307.173 628.000,310.000" stroke-width="3.096" stroke="black" fill="none" stroke-linecap="round"></path><path d="M 628.000,310.000 C 650.817,316.392 649.869,316.906 674.000,319.000" stroke-width="1.772" stroke="black" fill="none" stroke-linecap="round"></path><path d="M 674.000,319.000 C 691.000,319.000 690.817,320.892 708.000,319.000" stroke-width="1.791" stroke="black" fill="none" stroke-linecap="round"></path><path d="M 708.000,319.000 C 737.641,321.025 737.500,319.000 767.000,319.000" stroke-width="1.382" stroke="black" fill="none" stroke-linecap="round"></path><path d="M 767.000,319.000 C 795.629,315.664 795.641,317.025 824.000,311.000" stroke-width="1.311" stroke="black" fill="none" stroke-linecap="round"></path><path d="M 824.000,311.000 C 832.646,310.461 832.129,309.664 840.000,307.000" stroke-width="2.076" stroke="black" fill="none" stroke-linecap="round"></path><path d="M 840.000,307.000 C 850.852,302.798 849.646,302.461 858.000,295.000" stroke-width="2.340" stroke="black" fill="none" stroke-linecap="round"></path><path d="M 858.000,295.000 C 868.907,284.046 867.352,284.798 873.000,271.000" stroke-width="2.175" stroke="black" fill="none" stroke-linecap="round"></path><path d="M 873.000,271.000 C 874.911,257.363 876.907,258.546 874.000,244.000" stroke-width="2.173" stroke="black" fill="none" stroke-linecap="round"></path><path d="M 874.000,244.000 C 873.672,234.626 873.411,235.363 870.000,227.000" stroke-width="2.653" stroke="black" fill="none" stroke-linecap="round"></path><path d="M 870.000,227.000 C 865.973,221.475 867.172,221.126 861.000,217.000" stroke-width="2.976" stroke="black" fill="none" stroke-linecap="round"></path><path d="M 861.000,217.000 C 856.595,210.064 855.973,212.475 850.000,209.000" stroke-width="3.021" stroke="black" fill="none" stroke-linecap="round"></path><path d="M 850.000,209.000 C 808.871,203.202 810.095,202.564 768.000,202.000" stroke-width="1.805" stroke="black" fill="none" stroke-linecap="round"></path><path d="M 768.000,202.000 C 757.578,202.730 757.871,201.702 748.000,206.000" stroke-width="2.273" stroke="black" fill="none" stroke-linecap="round"></path><path d="M 748.000,206.000 C 737.398,210.801 737.078,209.730 727.000,216.000" stroke-width="2.287" stroke="black" fill="none" stroke-linecap="round"></path><path d="M 727.000,216.000 C 722.002,217.840 722.398,218.301 718.000,221.000" stroke-width="3.021" stroke="black" fill="none" stroke-linecap="round"></path><path d="M 718.000,221.000 C 711.544,225.032 712.502,225.340 708.000,231.000" stroke-width="3.056" stroke="black" fill="none" stroke-linecap="round"></path><path d="M 708.000,231.000 C 703.544,242.018 702.044,241.032 699.000,253.000" stroke-width="2.454" stroke="black" fill="none" stroke-linecap="round"></path><path d="M 699.000,253.000 C 697.595,256.544 697.544,256.518 696.000,260.000" stroke-width="3.269" stroke="black" fill="none" stroke-linecap="round"></path><path d="M 696.000,260.000 C 694.121,262.860 694.595,263.044 693.000,266.000" stroke-width="3.726" stroke="black" fill="none" stroke-linecap="round"></path></svg>