<svg xmlns="http://www.w3.org/2000/svg" xmlns:xlink="http://www.w3.org/1999/xlink" viewBox="0 0 1460 576" width="1460" height="576"><path d="M 491.000,223.000 C 519.412,227.495 519.500,226.000 548.000,229.000" stroke-width="3.682" stroke="black" fill="none" stroke-linecap="round"></path><path d="M 548.000,229.000 C 586.007,229.197 585.912,230.995 624.000,230.000" stroke-width="1.367" stroke="black" fill="none" stroke-linecap="round"></path><path d="M 624.000,230.000 C 657.056,230.048 657.007,230.697 690.000,232.000" stroke-width="1.125" stroke="black" fill="none" stroke-linecap="round"></path><path d="M 690.000,232.000 C 724.727,233.240 724.556,234.048 759.000,238.000" stroke-width="1.125" stroke="black" fill="none" stroke-linecap="round"></path><path d="M 759.000,238.000 C 814.832,246.042 814.727,245.740 870.000,257.000" stroke-width="1.125" stroke="black" fill="none" stroke-linecap="round"></path><path d="M 870.000,257.000 C 887.169,263.459 887.832,260.542 905.000,267.000" stroke-width="1.291" stroke="black" fill="none" stroke-linecap="round"></path><path d="M 905.000,267.000 C 957.955,276.304 957.669,277.459 1011.000,285.000" stroke-width="1.333" stroke="black" fill="none" stroke-linecap="round"></path><path d="M 1011.000,285.000 C 1018.979,286.224 1018.955,286.304 1027.000,287.000" stroke-width="2.105" stroke="black" fill="none" stroke-linecap="round"></path><path d="M 1027.000,287.000 C 1034.533,287.253 1034.479,287.724 1042.000,288.000" stroke-width="2.737" stroke="black" fill="none" stroke-linecap="round"></path><path d="M 1042.000,288.000 C 1045.298,287.541 1044.533,288.253 1047.000,289.000" stroke-width="4.048" stroke="black" fill="none" stroke-linecap="round"></path><path d="M 1047.000,289.000 C 1049.545,291.638 1048.798,290.541 1049.000,294.000" stroke-width="4.798" stroke="black" fill="none" stroke-linecap="round"></path><path d="M 1049.000,294.000 C 1047.582,299.953 1048.045,298.138 1044.000,302.000" stroke-width="4.471" stroke="black" fill="none" stroke-linecap="round"></path><path d="M 1044.000,302.000 C 1039.475,302.407 1040.582,303.953 1035.000,302.000" stroke-width="4.414" stroke="black" fill="none" stroke-linecap="round"></path><path d="M 1035.000,302.000 C 1023.042,299.821 1022.975,300.907 1011.000,299.000" stroke-width="4.225" stroke="black" fill="none" stroke-linecap="round"></path></svg>