<svg xmlns="http://www.w3.org/2000/svg" xmlns:xlink="http://www.w3.org/1999/xlink" viewBox="0 0 692 576" width="692" height="576"><path d="M 195.000,344.000 C 191.449,343.739 191.500,343.500 188.000,343.000" stroke-width="5.367" stroke="black" fill="none" stroke-linecap="round"></path><path d="M 188.000,343.000 C 184.492,342.027 184.449,342.239 181.000,341.000" stroke-width="4.812" stroke="black" fill="none" stroke-linecap="round"></path><path d="M 181.000,341.000 C 175.915,339.735 175.992,339.527 171.000,338.000" stroke-width="4.445" stroke="black" fill="none" stroke-linecap="round"></path><path d="M 171.000,338.000 C 167.515,336.464 167.415,336.735 164.000,335.000" stroke-width="3.981" stroke="black" fill="none" stroke-linecap="round"></path><path d="M 164.000,335.000 C 161.529,333.920 161.515,333.964 159.000,333.000" stroke-width="4.180" stroke="black" fill="none" stroke-linecap="round"></path><path d="M 159.000,333.000 C 155.971,332.080 156.029,331.920 153.000,331.000" stroke-width="4.075" stroke="black" fill="none" stroke-linecap="round"></path><path d="M 153.000,331.000 C 147.536,330.700 150.471,330.080 148.000,329.000" stroke-width="4.566" stroke="black" fill="none" stroke-linecap="round"></path><path d="M 148.000,329.000 C 151.077,323.133 149.036,325.200 156.000,320.000" stroke-width="5.092" stroke="black" fill="none" stroke-linecap="round"></path><path d="M 156.000,320.000 C 163.109,317.756 162.077,316.133 170.000,315.000" stroke-width="3.345" stroke="black" fill="none" stroke-linecap="round"></path><path d="M 170.000,315.000 C 172.969,313.436 173.109,313.756 176.000,312.000" stroke-width="3.839" stroke="black" fill="none" stroke-linecap="round"></path><path d="M 176.000,312.000 C 182.670,309.315 182.469,308.936 189.000,306.000" stroke-width="3.185" stroke="black" fill="none" stroke-linecap="round"></path><path d="M 189.000,306.000 C 193.040,303.562 193.170,303.815 197.000,301.000" stroke-width="3.425" stroke="black" fill="none" stroke-linecap="round"></path><path d="M 197.000,301.000 C 201.797,298.362 201.540,298.062 206.000,295.000" stroke-width="3.434" stroke="black" fill="none" stroke-linecap="round"></path><path d="M 206.000,295.000 C 209.246,292.213 209.297,292.362 212.000,289.000" stroke-width="3.651" stroke="black" fill="none" stroke-linecap="round"></path><path d="M 212.000,289.000 C 214.485,284.515 215.246,285.213 218.000,281.000" stroke-width="3.516" stroke="black" fill="none" stroke-linecap="round"></path><path d="M 218.000,281.000 C 224.008,274.754 223.985,275.015 231.000,270.000" stroke-width="2.849" stroke="black" fill="none" stroke-linecap="round"></path><path d="M 231.000,270.000 C 236.898,266.774 236.508,266.254 243.000,264.000" stroke-width="3.049" stroke="black" fill="none" stroke-linecap="round"></path><path d="M 243.000,264.000 C 248.363,262.608 247.898,261.774 253.000,260.000" stroke-width="3.315" stroke="black" fill="none" stroke-linecap="round"></path><path d="M 253.000,260.000 C 255.978,257.473 256.363,258.108 259.000,255.000" stroke-width="3.627" stroke="black" fill="none" stroke-linecap="round"></path><path d="M 259.000,255.000 C 261.978,253.426 261.478,252.973 264.000,251.000" stroke-width="3.892" stroke="black" fill="none" stroke-linecap="round"></path><path d="M 264.000,251.000 C 269.000,243.262 266.978,247.426 269.000,243.000" stroke-width="3.638" stroke="black" fill="none" stroke-linecap="round"></path><path d="M 269.000,243.000 C 266.823,246.774 269.000,242.762 264.000,250.000" stroke-width="4.687" stroke="black" fill="none" stroke-linecap="round"></path><path d="M 264.000,250.000 C 259.315,254.326 259.823,254.774 255.000,259.000" stroke-width="3.479" stroke="black" fill="none" stroke-linecap="round"></path><path d="M 255.000,259.000 C 247.376,267.395 247.315,267.326 240.000,276.000" stroke-width="2.655" stroke="black" fill="none" stroke-linecap="round"></path><path d="M 240.000,276.000 C 235.500,281.500 235.376,281.395 231.000,287.000" stroke-width="2.874" stroke="black" fill="none" stroke-linecap="round"></path><path d="M 231.000,287.000 C 226.623,292.606 226.500,292.500 222.000,298.000" stroke-width="2.947" stroke="black" fill="none" stroke-linecap="round"></path><path d="M 222.000,298.000 C 217.617,303.111 217.623,303.106 213.000,308.000" stroke-width="3.022" stroke="black" fill="none" stroke-linecap="round"></path><path d="M 213.000,308.000 C 208.895,311.900 209.117,312.111 205.000,316.000" stroke-width="3.208" stroke="black" fill="none" stroke-linecap="round"></path><path d="M 205.000,316.000 C 199.566,322.063 199.395,321.900 194.000,328.000" stroke-width="2.902" stroke="black" fill="none" stroke-linecap="round"></path><path d="M 194.000,328.000 C 191.870,329.881 192.066,330.063 190.000,332.000" stroke-width="3.714" stroke="black" fill="none" stroke-linecap="round"></path><path d="M 190.000,332.000 C 184.451,338.459 184.370,338.381 179.000,345.000" stroke-width="3.031" stroke="black" fill="none" stroke-linecap="round"></path><path d="M 179.000,345.000 C 174.402,350.424 174.451,350.459 170.000,356.000" stroke-width="3.054" stroke="black" fill="none" stroke-linecap="round"></path><path d="M 170.000,356.000 C 167.300,360.260 166.902,359.924 164.000,364.000" stroke-width="3.380" stroke="black" fill="none" stroke-linecap="round"></path><path d="M 164.000,364.000 C 159.801,368.885 159.800,368.760 155.000,373.000" stroke-width="3.264" stroke="black" fill="none" stroke-linecap="round"></path><path d="M 155.000,373.000 C 152.571,374.629 152.801,374.885 150.000,376.000" stroke-width="3.821" stroke="black" fill="none" stroke-linecap="round"></path><path d="M 150.000,376.000 C 145.101,378.733 145.071,378.629 140.000,381.000" stroke-width="3.449" stroke="black" fill="none" stroke-linecap="round"></path><path d="M 140.000,381.000 C 135.802,382.099 136.101,382.733 132.000,384.000" stroke-width="3.599" stroke="black" fill="none" stroke-linecap="round"></path><path d="M 132.000,384.000 C 127.830,386.265 127.802,386.099 124.000,389.000" stroke-width="3.556" stroke="black" fill="none" stroke-linecap="round"></path><path d="M 124.000,389.000 C 121.228,391.848 120.830,391.265 118.000,394.000" stroke-width="4.213" stroke="black" fill="none" stroke-linecap="round"></path><path d="M 118.000,394.000 C 115.167,396.208 115.228,395.848 112.000,397.000" stroke-width="4.541" stroke="black" fill="none" stroke-linecap="round"></path><path d="M 112.000,397.000 C 109.000,397.000 109.167,397.708 106.000,397.000" stroke-width="4.707" stroke="black" fill="none" stroke-linecap="round"></path><path d="M 106.000,397.000 C 102.271,398.362 103.000,397.000 100.000,397.000" stroke-width="4.916" stroke="black" fill="none" stroke-linecap="round"></path><path d="M 100.000,397.000 C 96.467,394.266 97.271,395.362 96.000,391.000" stroke-width="5.184" stroke="black" fill="none" stroke-linecap="round"></path><path d="M 96.000,391.000 C 96.483,386.792 95.467,387.266 98.000,383.000" stroke-width="4.121" stroke="black" fill="none" stroke-linecap="round"></path><path d="M 98.000,383.000 C 99.296,378.898 99.483,379.292 102.000,376.000" stroke-width="3.847" stroke="black" fill="none" stroke-linecap="round"></path><path d="M 102.000,376.000 C 106.564,371.332 106.296,371.398 112.000,368.000" stroke-width="3.376" stroke="black" fill="none" stroke-linecap="round"></path><path d="M 112.000,368.000 C 122.524,362.546 122.064,361.832 133.000,357.000" stroke-width="2.585" stroke="black" fill="none" stroke-linecap="round"></path><path d="M 133.000,357.000 C 139.190,352.767 139.524,353.546 146.000,350.000" stroke-width="2.869" stroke="black" fill="none" stroke-linecap="round"></path><path d="M 146.000,350.000 C 155.553,347.149 155.190,346.267 165.000,344.000" stroke-width="2.604" stroke="black" fill="none" stroke-linecap="round"></path><path d="M 165.000,344.000 C 167.432,342.770 167.553,343.149 170.000,342.000" stroke-width="3.552" stroke="black" fill="none" stroke-linecap="round"></path><path d="M 170.000,342.000 C 172.516,341.573 172.432,341.270 175.000,341.000" stroke-width="4.061" stroke="black" fill="none" stroke-linecap="round"></path><path d="M 175.000,341.000 C 178.955,339.758 179.016,340.073 183.000,339.000" stroke-width="4.341" stroke="black" fill="none" stroke-linecap="round"></path><path d="M 183.000,339.000 C 187.174,339.125 186.955,338.258 191.000,338.000" stroke-width="3.902" stroke="black" fill="none" stroke-linecap="round"></path><path d="M 191.000,338.000 C 195.599,336.200 195.674,336.625 200.000,334.000" stroke-width="3.598" stroke="black" fill="none" stroke-linecap="round"></path><path d="M 200.000,334.000 C 205.524,331.042 205.599,331.200 211.000,328.000" stroke-width="3.276" stroke="black" fill="none" stroke-linecap="round"></path><path d="M 211.000,328.000 C 214.652,326.232 214.524,326.042 218.000,324.000" stroke-width="3.588" stroke="black" fill="none" stroke-linecap="round"></path><path d="M 218.000,324.000 C 221.845,320.770 222.152,321.232 226.000,318.000" stroke-width="3.555" stroke="black" fill="none" stroke-linecap="round"></path><path d="M 226.000,318.000 C 231.057,315.090 230.845,314.770 236.000,312.000" stroke-width="3.399" stroke="black" fill="none" stroke-linecap="round"></path><path d="M 236.000,312.000 C 238.804,309.598 239.057,310.090 242.000,308.000" stroke-width="3.767" stroke="black" fill="none" stroke-linecap="round"></path><path d="M 242.000,308.000 C 245.029,307.080 244.804,306.598 248.000,306.000" stroke-width="3.948" stroke="black" fill="none" stroke-linecap="round"></path><path d="M 248.000,306.000 C 253.813,303.512 250.529,305.080 253.000,304.000" stroke-width="4.677" stroke="black" fill="none" stroke-linecap="round"></path><path d="M 253.000,304.000 C 247.847,306.230 251.313,305.012 243.000,309.000" stroke-width="4.960" stroke="black" fill="none" stroke-linecap="round"></path><path d="M 243.000,309.000 C 237.187,312.110 237.347,312.230 232.000,316.000" stroke-width="3.567" stroke="black" fill="none" stroke-linecap="round"></path><path d="M 232.000,316.000 C 229.500,318.500 229.187,318.110 227.000,321.000" stroke-width="3.841" stroke="black" fill="none" stroke-linecap="round"></path><path d="M 227.000,321.000 C 225.287,323.399 225.000,323.000 223.000,325.000" stroke-width="4.056" stroke="black" fill="none" stroke-linecap="round"></path><path d="M 223.000,325.000 C 219.713,326.101 220.287,326.899 217.000,328.000" stroke-width="3.991" stroke="black" fill="none" stroke-linecap="round"></path><path d="M 217.000,328.000 C 214.723,329.784 214.713,329.601 213.000,332.000" stroke-width="4.512" stroke="black" fill="none" stroke-linecap="round"></path><path d="M 213.000,332.000 C 210.533,334.333 211.223,334.284 210.000,337.000" stroke-width="4.666" stroke="black" fill="none" stroke-linecap="round"></path><path d="M 210.000,337.000 C 209.252,340.602 209.533,339.333 211.000,342.000" stroke-width="4.808" stroke="black" fill="none" stroke-linecap="round"></path><path d="M 211.000,342.000 C 215.373,344.559 214.252,344.602 220.000,345.000" stroke-width="4.470" stroke="black" fill="none" stroke-linecap="round"></path><path d="M 220.000,345.000 C 226.044,344.812 225.873,345.559 232.000,344.000" stroke-width="3.506" stroke="black" fill="none" stroke-linecap="round"></path><path d="M 232.000,344.000 C 236.989,342.940 237.044,343.312 242.000,342.000" stroke-width="3.456" stroke="black" fill="none" stroke-linecap="round"></path><path d="M 242.000,342.000 C 245.041,341.683 244.989,341.440 248.000,341.000" stroke-width="3.910" stroke="black" fill="none" stroke-linecap="round"></path><path d="M 248.000,341.000 C 251.813,340.677 251.541,340.183 255.000,339.000" stroke-width="3.976" stroke="black" fill="none" stroke-linecap="round"></path><path d="M 255.000,339.000 C 261.685,335.724 261.313,335.677 267.000,331.000" stroke-width="3.907" stroke="black" fill="none" stroke-linecap="round"></path><path d="M 267.000,331.000 C 270.232,327.152 270.685,327.724 273.000,323.000" stroke-width="3.644" stroke="black" fill="none" stroke-linecap="round"></path><path d="M 273.000,323.000 C 275.469,319.675 275.232,319.652 277.000,316.000" stroke-width="3.711" stroke="black" fill="none" stroke-linecap="round"></path><path d="M 277.000,316.000 C 278.887,312.995 277.969,313.675 278.000,311.000" stroke-width="4.593" stroke="black" fill="none" stroke-linecap="round"></path><path d="M 278.000,311.000 C 275.943,307.736 276.887,308.495 273.000,307.000" stroke-width="4.658" stroke="black" fill="none" stroke-linecap="round"></path><path d="M 273.000,307.000 C 267.214,305.697 267.943,305.736 262.000,307.000" stroke-width="4.365" stroke="black" fill="none" stroke-linecap="round"></path><path d="M 262.000,307.000 C 255.182,309.467 255.214,308.697 249.000,313.000" stroke-width="3.284" stroke="black" fill="none" stroke-linecap="round"></path><path d="M 249.000,313.000 C 244.635,315.607 244.682,315.467 241.000,319.000" stroke-width="3.509" stroke="black" fill="none" stroke-linecap="round"></path><path d="M 241.000,319.000 C 237.590,323.084 237.135,322.607 234.000,327.000" stroke-width="3.418" stroke="black" fill="none" stroke-linecap="round"></path><path d="M 234.000,327.000 C 230.000,328.802 232.090,329.084 230.000,331.000" stroke-width="4.282" stroke="black" fill="none" stroke-linecap="round"></path><path d="M 230.000,331.000 C 230.934,335.709 230.000,333.802 234.000,337.000" stroke-width="4.814" stroke="black" fill="none" stroke-linecap="round"></path><path d="M 234.000,337.000 C 241.586,339.285 240.434,339.709 249.000,339.000" stroke-width="3.285" stroke="black" fill="none" stroke-linecap="round"></path><path d="M 249.000,339.000 C 254.756,338.170 254.586,338.785 260.000,336.000" stroke-width="3.342" stroke="black" fill="none" stroke-linecap="round"></path><path d="M 260.000,336.000 C 269.602,332.434 269.256,332.170 278.000,327.000" stroke-width="2.697" stroke="black" fill="none" stroke-linecap="round"></path><path d="M 278.000,327.000 C 285.925,320.405 286.602,321.434 294.000,314.000" stroke-width="2.587" stroke="black" fill="none" stroke-linecap="round"></path><path d="M 294.000,314.000 C 300.647,309.183 300.425,308.905 307.000,304.000" stroke-width="2.774" stroke="black" fill="none" stroke-linecap="round"></path><path d="M 307.000,304.000 C 320.002,294.026 319.647,293.683 332.000,283.000" stroke-width="2.120" stroke="black" fill="none" stroke-linecap="round"></path><path d="M 332.000,283.000 C 337.277,275.672 338.502,277.026 344.000,270.000" stroke-width="2.478" stroke="black" fill="none" stroke-linecap="round"></path><path d="M 344.000,270.000 C 354.751,263.895 353.277,262.172 364.000,256.000" stroke-width="2.357" stroke="black" fill="none" stroke-linecap="round"></path><path d="M 364.000,256.000 C 374.683,245.673 375.251,246.395 385.000,235.000" stroke-width="2.072" stroke="black" fill="none" stroke-linecap="round"></path><path d="M 385.000,235.000 C 388.751,230.249 389.183,230.673 393.000,226.000" stroke-width="2.798" stroke="black" fill="none" stroke-linecap="round"></path><path d="M 393.000,226.000 C 403.001,217.532 396.751,222.249 401.000,219.000" stroke-width="3.231" stroke="black" fill="none" stroke-linecap="round"></path><path d="M 401.000,219.000 C 389.625,228.165 395.501,223.032 378.000,237.000" stroke-width="4.063" stroke="black" fill="none" stroke-linecap="round"></path><path d="M 378.000,237.000 C 363.686,246.084 364.625,247.165 351.000,257.000" stroke-width="2.251" stroke="black" fill="none" stroke-linecap="round"></path><path d="M 351.000,257.000 C 343.136,265.632 342.186,264.584 335.000,274.000" stroke-width="2.276" stroke="black" fill="none" stroke-linecap="round"></path><path d="M 335.000,274.000 C 325.500,283.500 325.636,283.632 316.000,293.000" stroke-width="2.208" stroke="black" fill="none" stroke-linecap="round"></path><path d="M 316.000,293.000 C 312.619,295.682 313.000,296.000 310.000,299.000" stroke-width="3.101" stroke="black" fill="none" stroke-linecap="round"></path><path d="M 310.000,299.000 C 305.383,305.425 305.119,305.182 301.000,312.000" stroke-width="2.906" stroke="black" fill="none" stroke-linecap="round"></path><path d="M 301.000,312.000 C 297.266,315.532 299.383,314.425 298.000,317.000" stroke-width="3.662" stroke="black" fill="none" stroke-linecap="round"></path><path d="M 298.000,317.000 C 301.264,319.026 298.766,318.532 304.000,318.000" stroke-width="4.374" stroke="black" fill="none" stroke-linecap="round"></path><path d="M 304.000,318.000 C 312.857,312.719 313.264,314.526 322.000,308.000" stroke-width="2.831" stroke="black" fill="none" stroke-linecap="round"></path><path d="M 322.000,308.000 C 328.600,305.200 328.357,304.719 335.000,302.000" stroke-width="2.983" stroke="black" fill="none" stroke-linecap="round"></path><path d="M 335.000,302.000 C 340.451,298.907 340.600,299.200 346.000,296.000" stroke-width="3.157" stroke="black" fill="none" stroke-linecap="round"></path><path d="M 346.000,296.000 C 350.773,292.537 350.951,293.407 356.000,291.000" stroke-width="3.319" stroke="black" fill="none" stroke-linecap="round"></path><path d="M 356.000,291.000 C 360.272,289.636 359.273,290.037 363.000,291.000" stroke-width="4.116" stroke="black" fill="none" stroke-linecap="round"></path><path d="M 363.000,291.000 C 366.000,293.231 365.272,292.136 366.000,296.000" stroke-width="4.121" stroke="black" fill="none" stroke-linecap="round"></path><path d="M 366.000,296.000 C 365.287,304.225 366.000,303.731 363.000,312.000" stroke-width="3.160" stroke="black" fill="none" stroke-linecap="round"></path><path d="M 363.000,312.000 C 359.519,321.007 360.287,321.225 356.000,330.000" stroke-width="2.706" stroke="black" fill="none" stroke-linecap="round"></path><path d="M 356.000,330.000 C 352.521,334.178 355.019,332.507 354.000,335.000" stroke-width="3.892" stroke="black" fill="none" stroke-linecap="round"></path><path d="M 354.000,335.000 C 360.305,337.415 357.021,336.678 365.000,335.000" stroke-width="4.136" stroke="black" fill="none" stroke-linecap="round"></path><path d="M 365.000,335.000 C 376.585,325.373 377.805,328.415 389.000,317.000" stroke-width="2.400" stroke="black" fill="none" stroke-linecap="round"></path><path d="M 389.000,317.000 C 398.272,311.032 398.085,310.873 408.000,306.000" stroke-width="2.317" stroke="black" fill="none" stroke-linecap="round"></path><path d="M 408.000,306.000 C 412.825,303.090 412.772,303.532 418.000,302.000" stroke-width="2.961" stroke="black" fill="none" stroke-linecap="round"></path><path d="M 418.000,302.000 C 424.175,299.609 422.325,301.090 427.000,302.000" stroke-width="3.835" stroke="black" fill="none" stroke-linecap="round"></path><path d="M 427.000,302.000 C 430.564,307.330 430.675,305.109 431.000,313.000" stroke-width="4.541" stroke="black" fill="none" stroke-linecap="round"></path><path d="M 431.000,313.000 C 430.410,320.595 431.564,320.330 429.000,328.000" stroke-width="3.245" stroke="black" fill="none" stroke-linecap="round"></path><path d="M 429.000,328.000 C 427.830,330.955 428.410,331.095 427.000,334.000" stroke-width="3.799" stroke="black" fill="none" stroke-linecap="round"></path><path d="M 427.000,334.000 C 424.553,338.096 426.330,336.455 426.000,339.000" stroke-width="4.190" stroke="black" fill="none" stroke-linecap="round"></path><path d="M 426.000,339.000 C 430.619,339.730 428.553,340.596 435.000,339.000" stroke-width="4.578" stroke="black" fill="none" stroke-linecap="round"></path><path d="M 435.000,339.000 C 439.738,338.006 439.619,338.230 444.000,336.000" stroke-width="3.855" stroke="black" fill="none" stroke-linecap="round"></path><path d="M 444.000,336.000 C 447.802,333.099 448.238,334.006 452.000,331.000" stroke-width="3.686" stroke="black" fill="none" stroke-linecap="round"></path><path d="M 452.000,331.000 C 455.889,329.121 455.802,329.099 460.000,328.000" stroke-width="3.726" stroke="black" fill="none" stroke-linecap="round"></path><path d="M 460.000,328.000 C 466.944,326.129 466.889,326.121 474.000,325.000" stroke-width="3.161" stroke="black" fill="none" stroke-linecap="round"></path><path d="M 474.000,325.000 C 479.490,324.290 479.444,324.129 485.000,324.000" stroke-width="3.276" stroke="black" fill="none" stroke-linecap="round"></path><path d="M 485.000,324.000 C 489.007,324.190 488.990,323.790 493.000,324.000" stroke-width="3.594" stroke="black" fill="none" stroke-linecap="round"></path><path d="M 493.000,324.000 C 499.508,323.590 499.507,323.690 506.000,323.000" stroke-width="3.233" stroke="black" fill="none" stroke-linecap="round"></path><path d="M 506.000,323.000 C 510.610,322.941 510.508,322.590 515.000,322.000" stroke-width="3.573" stroke="black" fill="none" stroke-linecap="round"></path><path d="M 515.000,322.000 C 517.557,321.127 517.610,321.441 520.000,320.000" stroke-width="4.035" stroke="black" fill="none" stroke-linecap="round"></path><path d="M 520.000,320.000 C 523.949,317.890 524.057,318.127 528.000,316.000" stroke-width="4.911" stroke="black" fill="none" stroke-linecap="round"></path><path d="M 528.000,316.000 C 531.733,314.930 531.449,314.390 535.000,313.000" stroke-width="4.145" stroke="black" fill="none" stroke-linecap="round"></path><path d="M 535.000,313.000 C 541.897,306.683 542.733,308.430 550.000,303.000" stroke-width="3.041" stroke="black" fill="none" stroke-linecap="round"></path><path d="M 550.000,303.000 C 558.971,300.390 558.397,299.183 568.000,298.000" stroke-width="2.715" stroke="black" fill="none" stroke-linecap="round"></path><path d="M 568.000,298.000 C 575.931,295.614 575.971,295.890 584.000,294.000" stroke-width="2.811" stroke="black" fill="none" stroke-linecap="round"></path><path d="M 584.000,294.000 C 588.514,293.598 588.431,293.114 593.000,293.000" stroke-width="3.316" stroke="black" fill="none" stroke-linecap="round"></path><path d="M 593.000,293.000 C 598.781,290.905 596.014,292.598 599.000,292.000" stroke-width="3.854" stroke="black" fill="none" stroke-linecap="round"></path><path d="M 599.000,292.000 C 593.724,295.790 599.281,293.405 594.000,298.000" stroke-width="4.708" stroke="black" fill="none" stroke-linecap="round"></path><path d="M 594.000,298.000 C 596.888,299.689 594.224,299.790 600.000,300.000" stroke-width="4.896" stroke="black" fill="none" stroke-linecap="round"></path><path d="M 600.000,300.000 C 607.029,299.651 606.888,300.689 614.000,300.000" stroke-width="3.470" stroke="black" fill="none" stroke-linecap="round"></path><path d="M 614.000,300.000 C 616.976,300.784 617.029,300.151 620.000,301.000" stroke-width="3.774" stroke="black" fill="none" stroke-linecap="round"></path><path d="M 620.000,301.000 C 628.000,300.275 623.976,301.284 628.000,301.000" stroke-width="4.272" stroke="black" fill="none" stroke-linecap="round"></path><path d="M 628.000,301.000 C 624.136,303.081 628.000,301.775 620.000,304.000" stroke-width="4.849" stroke="black" fill="none" stroke-linecap="round"></path><path d="M 620.000,304.000 C 615.011,304.642 615.136,305.081 610.000,305.000" stroke-width="3.781" stroke="black" fill="none" stroke-linecap="round"></path><path d="M 610.000,305.000 C 601.007,305.750 601.011,305.642 592.000,306.000" stroke-width="2.978" stroke="black" fill="none" stroke-linecap="round"></path><path d="M 592.000,306.000 C 583.000,306.000 583.007,306.250 574.000,306.000" stroke-width="2.802" stroke="black" fill="none" stroke-linecap="round"></path><path d="M 574.000,306.000 C 566.998,306.149 567.000,306.000 560.000,306.000" stroke-width="2.994" stroke="black" fill="none" stroke-linecap="round"></path><path d="M 560.000,306.000 C 543.486,304.738 543.498,305.649 527.000,305.000" stroke-width="2.144" stroke="black" fill="none" stroke-linecap="round"></path><path d="M 527.000,305.000 C 511.966,305.639 511.986,305.238 497.000,307.000" stroke-width="2.007" stroke="black" fill="none" stroke-linecap="round"></path><path d="M 497.000,307.000 C 484.449,308.142 484.466,308.139 472.000,310.000" stroke-width="2.129" stroke="black" fill="none" stroke-linecap="round"></path><path d="M 472.000,310.000 C 450.990,313.442 450.949,313.142 430.000,317.000" stroke-width="1.676" stroke="black" fill="none" stroke-linecap="round"></path><path d="M 430.000,317.000 C 421.534,318.720 421.490,318.442 413.000,320.000" stroke-width="2.239" stroke="black" fill="none" stroke-linecap="round"></path><path d="M 413.000,320.000 C 401.461,321.263 401.534,321.720 390.000,323.000" stroke-width="2.279" stroke="black" fill="none" stroke-linecap="round"></path><path d="M 390.000,323.000 C 385.064,324.651 384.961,323.763 380.000,325.000" stroke-width="2.981" stroke="black" fill="none" stroke-linecap="round"></path><path d="M 380.000,325.000 C 370.399,325.723 370.564,325.651 361.000,325.000" stroke-width="2.682" stroke="black" fill="none" stroke-linecap="round"></path><path d="M 361.000,325.000 C 357.581,323.421 357.399,324.723 354.000,323.000" stroke-width="3.414" stroke="black" fill="none" stroke-linecap="round"></path><path d="M 354.000,323.000 C 349.000,323.000 349.081,322.421 344.000,323.000" stroke-width="3.387" stroke="black" fill="none" stroke-linecap="round"></path><path d="M 344.000,323.000 C 340.000,323.000 340.000,323.000 336.000,323.000" stroke-width="4.127" stroke="black" fill="none" stroke-linecap="round"></path></svg>