<svg xmlns="http://www.w3.org/2000/svg" xmlns:xlink="http://www.w3.org/1999/xlink" viewBox="0 0 453 236" width="453" height="236"><path d="M 118.500,143.000 C 116.103,141.601 116.000,142.000 113.500,141.000" stroke-width="1.179" stroke="black" fill="none" stroke-linecap="round"></path><path d="M 113.500,141.000 C 109.326,141.125 109.603,140.101 105.500,140.000" stroke-width="2.331" stroke="black" fill="none" stroke-linecap="round"></path><path d="M 105.500,140.000 C 101.026,137.940 100.826,138.625 96.500,136.000" stroke-width="3.470" stroke="black" fill="none" stroke-linecap="round"></path><path d="M 96.500,136.000 C 90.630,135.616 94.026,134.940 91.500,134.000" stroke-width="4.325" stroke="black" fill="none" stroke-linecap="round"></path><path d="M 91.500,134.000 C 97.305,128.265 94.130,129.116 103.500,123.000" stroke-width="4.851" stroke="black" fill="none" stroke-linecap="round"></path><path d="M 103.500,123.000 C 107.500,120.000 107.305,119.765 111.500,117.000" stroke-width="3.854" stroke="black" fill="none" stroke-linecap="round"></path><path d="M 111.500,117.000 C 117.622,112.654 117.500,112.500 123.500,108.000" stroke-width="3.135" stroke="black" fill="none" stroke-linecap="round"></path><path d="M 123.500,108.000 C 129.178,102.552 129.622,103.154 135.500,98.000" stroke-width="3.101" stroke="black" fill="none" stroke-linecap="round"></path><path d="M 135.500,98.000 C 141.956,93.926 141.678,93.552 148.500,90.000" stroke-width="3.061" stroke="black" fill="none" stroke-linecap="round"></path><path d="M 148.500,90.000 C 154.596,86.655 154.456,86.426 160.500,83.000" stroke-width="2.961" stroke="black" fill="none" stroke-linecap="round"></path><path d="M 160.500,83.000 C 164.916,79.865 165.096,80.155 169.500,77.000" stroke-width="3.227" stroke="black" fill="none" stroke-linecap="round"></path><path d="M 169.500,77.000 C 173.044,75.074 172.916,74.865 176.500,73.000" stroke-width="3.570" stroke="black" fill="none" stroke-linecap="round"></path><path d="M 176.500,73.000 C 184.274,67.094 180.544,70.574 184.500,68.000" stroke-width="4.097" stroke="black" fill="none" stroke-linecap="round"></path><path d="M 184.500,68.000 C 180.920,72.440 184.774,69.094 177.500,77.000" stroke-width="4.534" stroke="black" fill="none" stroke-linecap="round"></path><path d="M 177.500,77.000 C 173.431,82.451 173.420,82.440 169.500,88.000" stroke-width="3.446" stroke="black" fill="none" stroke-linecap="round"></path><path d="M 169.500,88.000 C 165.034,94.523 164.931,94.451 160.500,101.000" stroke-width="2.990" stroke="black" fill="none" stroke-linecap="round"></path><path d="M 160.500,101.000 C 154.841,109.757 154.534,109.523 148.500,118.000" stroke-width="2.652" stroke="black" fill="none" stroke-linecap="round"></path><path d="M 148.500,118.000 C 134.906,135.851 134.841,135.757 120.500,153.000" stroke-width="2.490" stroke="black" fill="none" stroke-linecap="round"></path><path d="M 120.500,153.000 C 114.003,161.053 113.906,160.851 106.500,168.000" stroke-width="2.531" stroke="black" fill="none" stroke-linecap="round"></path><path d="M 106.500,168.000 C 100.375,173.581 100.503,173.553 93.500,178.000" stroke-width="2.806" stroke="black" fill="none" stroke-linecap="round"></path><path d="M 93.500,178.000 C 86.236,182.532 86.375,182.581 78.500,186.000" stroke-width="2.966" stroke="black" fill="none" stroke-linecap="round"></path><path d="M 78.500,186.000 C 71.593,188.799 71.736,189.032 64.500,191.000" stroke-width="2.931" stroke="black" fill="none" stroke-linecap="round"></path><path d="M 64.500,191.000 C 57.030,193.118 57.093,193.299 49.500,195.000" stroke-width="2.877" stroke="black" fill="none" stroke-linecap="round"></path><path d="M 49.500,195.000 C 41.014,197.065 41.030,197.118 32.500,199.000" stroke-width="3.439" stroke="black" fill="none" stroke-linecap="round"></path><path d="M 32.500,199.000 C 27.205,201.326 30.014,199.565 27.500,200.000" stroke-width="4.319" stroke="black" fill="none" stroke-linecap="round"></path><path d="M 27.500,200.000 C 30.543,194.617 28.205,196.826 34.500,190.000" stroke-width="4.143" stroke="black" fill="none" stroke-linecap="round"></path><path d="M 34.500,190.000 C 39.443,183.795 39.543,184.117 45.500,179.000" stroke-width="3.218" stroke="black" fill="none" stroke-linecap="round"></path><path d="M 45.500,179.000 C 51.935,174.890 51.443,174.295 58.500,171.000" stroke-width="2.973" stroke="black" fill="none" stroke-linecap="round"></path><path d="M 58.500,171.000 C 65.301,166.600 65.435,166.890 72.500,163.000" stroke-width="2.912" stroke="black" fill="none" stroke-linecap="round"></path><path d="M 72.500,163.000 C 79.415,159.783 79.301,159.600 86.500,157.000" stroke-width="2.950" stroke="black" fill="none" stroke-linecap="round"></path><path d="M 86.500,157.000 C 93.500,154.500 93.415,154.283 100.500,152.000" stroke-width="2.926" stroke="black" fill="none" stroke-linecap="round"></path><path d="M 100.500,152.000 C 107.530,149.581 107.500,149.500 114.500,147.000" stroke-width="2.978" stroke="black" fill="none" stroke-linecap="round"></path><path d="M 114.500,147.000 C 121.000,144.500 121.030,144.581 127.500,142.000" stroke-width="3.057" stroke="black" fill="none" stroke-linecap="round"></path><path d="M 127.500,142.000 C 134.388,140.201 134.000,139.500 140.500,137.000" stroke-width="3.136" stroke="black" fill="none" stroke-linecap="round"></path><path d="M 140.500,137.000 C 144.468,133.957 144.888,134.701 148.500,131.000" stroke-width="3.357" stroke="black" fill="none" stroke-linecap="round"></path><path d="M 148.500,131.000 C 151.924,128.384 151.968,128.457 155.500,126.000" stroke-width="3.613" stroke="black" fill="none" stroke-linecap="round"></path><path d="M 155.500,126.000 C 161.537,123.691 157.924,124.384 160.500,123.000" stroke-width="3.997" stroke="black" fill="none" stroke-linecap="round"></path><path d="M 160.500,123.000 C 154.816,121.241 158.537,121.691 149.500,122.000" stroke-width="4.611" stroke="black" fill="none" stroke-linecap="round"></path><path d="M 149.500,122.000 C 144.301,123.599 144.316,122.741 139.500,126.000" stroke-width="3.659" stroke="black" fill="none" stroke-linecap="round"></path><path d="M 139.500,126.000 C 134.345,128.770 134.301,128.599 129.500,132.000" stroke-width="3.366" stroke="black" fill="none" stroke-linecap="round"></path><path d="M 129.500,132.000 C 125.287,134.754 125.345,134.770 121.500,138.000" stroke-width="3.537" stroke="black" fill="none" stroke-linecap="round"></path><path d="M 121.500,138.000 C 118.167,140.740 118.287,140.754 115.500,144.000" stroke-width="3.633" stroke="black" fill="none" stroke-linecap="round"></path><path d="M 115.500,144.000 C 113.612,146.332 113.667,146.240 112.500,149.000" stroke-width="4.005" stroke="black" fill="none" stroke-linecap="round"></path><path d="M 112.500,149.000 C 108.540,154.397 111.112,152.332 110.500,156.000" stroke-width="4.409" stroke="black" fill="none" stroke-linecap="round"></path><path d="M 110.500,156.000 C 116.967,157.432 114.040,158.897 123.500,158.000" stroke-width="4.180" stroke="black" fill="none" stroke-linecap="round"></path><path d="M 123.500,158.000 C 128.717,159.087 128.467,158.432 133.500,158.000" stroke-width="3.650" stroke="black" fill="none" stroke-linecap="round"></path><path d="M 133.500,158.000 C 139.540,155.591 139.717,156.587 145.500,153.000" stroke-width="3.313" stroke="black" fill="none" stroke-linecap="round"></path><path d="M 145.500,153.000 C 151.165,150.808 151.040,150.591 156.500,148.000" stroke-width="3.400" stroke="black" fill="none" stroke-linecap="round"></path><path d="M 156.500,148.000 C 160.785,145.858 160.665,145.808 164.500,143.000" stroke-width="3.496" stroke="black" fill="none" stroke-linecap="round"></path><path d="M 164.500,143.000 C 167.308,140.740 167.285,140.858 169.500,138.000" stroke-width="3.816" stroke="black" fill="none" stroke-linecap="round"></path><path d="M 169.500,138.000 C 173.972,133.818 171.308,135.740 172.500,133.000" stroke-width="4.444" stroke="black" fill="none" stroke-linecap="round"></path><path d="M 172.500,133.000 C 166.220,131.991 169.472,131.318 160.500,133.000" stroke-width="4.496" stroke="black" fill="none" stroke-linecap="round"></path><path d="M 160.500,133.000 C 158.000,134.500 157.720,133.491 155.500,136.000" stroke-width="4.276" stroke="black" fill="none" stroke-linecap="round"></path><path d="M 155.500,136.000 C 152.645,137.094 153.000,137.500 150.500,139.000" stroke-width="4.167" stroke="black" fill="none" stroke-linecap="round"></path><path d="M 150.500,139.000 C 148.271,141.344 148.145,141.094 146.500,144.000" stroke-width="4.061" stroke="black" fill="none" stroke-linecap="round"></path><path d="M 146.500,144.000 C 142.500,147.768 144.271,147.344 142.500,151.000" stroke-width="4.372" stroke="black" fill="none" stroke-linecap="round"></path><path d="M 142.500,151.000 C 144.074,154.029 142.500,153.268 146.500,155.000" stroke-width="4.920" stroke="black" fill="none" stroke-linecap="round"></path><path d="M 146.500,155.000 C 149.579,155.487 149.074,156.029 152.500,155.000" stroke-width="4.790" stroke="black" fill="none" stroke-linecap="round"></path><path d="M 152.500,155.000 C 155.733,154.476 155.579,154.487 158.500,153.000" stroke-width="4.724" stroke="black" fill="none" stroke-linecap="round"></path><path d="M 158.500,153.000 C 162.960,149.938 163.233,150.476 167.500,147.000" stroke-width="4.372" stroke="black" fill="none" stroke-linecap="round"></path><path d="M 167.500,147.000 C 171.436,144.391 171.460,144.438 175.500,142.000" stroke-width="3.753" stroke="black" fill="none" stroke-linecap="round"></path><path d="M 175.500,142.000 C 180.408,140.069 179.936,139.391 184.500,137.000" stroke-width="3.575" stroke="black" fill="none" stroke-linecap="round"></path><path d="M 184.500,137.000 C 189.892,131.876 190.408,132.569 195.500,127.000" stroke-width="3.153" stroke="black" fill="none" stroke-linecap="round"></path><path d="M 195.500,127.000 C 201.749,122.272 201.392,121.876 207.500,117.000" stroke-width="2.994" stroke="black" fill="none" stroke-linecap="round"></path><path d="M 207.500,117.000 C 213.500,111.000 213.749,111.272 219.500,105.000" stroke-width="2.804" stroke="black" fill="none" stroke-linecap="round"></path><path d="M 219.500,105.000 C 226.270,98.749 226.000,98.500 232.500,92.000" stroke-width="2.732" stroke="black" fill="none" stroke-linecap="round"></path><path d="M 232.500,92.000 C 238.087,85.572 238.270,85.749 243.500,79.000" stroke-width="3.372" stroke="black" fill="none" stroke-linecap="round"></path><path d="M 243.500,79.000 C 252.212,68.656 252.087,68.572 260.500,58.000" stroke-width="2.361" stroke="black" fill="none" stroke-linecap="round"></path><path d="M 260.500,58.000 C 266.138,51.702 262.712,55.156 264.500,52.000" stroke-width="3.251" stroke="black" fill="none" stroke-linecap="round"></path><path d="M 264.500,52.000 C 256.297,55.016 260.638,52.702 249.500,60.000" stroke-width="4.129" stroke="black" fill="none" stroke-linecap="round"></path><path d="M 249.500,60.000 C 241.750,66.750 241.297,66.016 234.500,74.000" stroke-width="2.879" stroke="black" fill="none" stroke-linecap="round"></path><path d="M 234.500,74.000 C 227.979,80.981 227.750,80.750 221.500,88.000" stroke-width="2.714" stroke="black" fill="none" stroke-linecap="round"></path><path d="M 221.500,88.000 C 215.876,93.891 215.979,93.981 210.500,100.000" stroke-width="2.824" stroke="black" fill="none" stroke-linecap="round"></path><path d="M 210.500,100.000 C 204.723,106.285 204.876,106.391 199.500,113.000" stroke-width="2.814" stroke="black" fill="none" stroke-linecap="round"></path><path d="M 199.500,113.000 C 194.396,119.928 194.223,119.785 189.500,127.000" stroke-width="2.801" stroke="black" fill="none" stroke-linecap="round"></path><path d="M 189.500,127.000 C 185.500,133.000 185.396,132.928 181.500,139.000" stroke-width="2.966" stroke="black" fill="none" stroke-linecap="round"></path><path d="M 181.500,139.000 C 178.424,143.452 178.500,143.500 175.500,148.000" stroke-width="3.229" stroke="black" fill="none" stroke-linecap="round"></path><path d="M 175.500,148.000 C 170.698,152.880 173.924,150.452 172.500,153.000" stroke-width="3.846" stroke="black" fill="none" stroke-linecap="round"></path><path d="M 172.500,153.000 C 181.991,152.151 178.198,153.380 190.500,149.000" stroke-width="4.225" stroke="black" fill="none" stroke-linecap="round"></path><path d="M 190.500,149.000 C 194.929,145.887 195.491,147.151 199.500,143.000" stroke-width="3.641" stroke="black" fill="none" stroke-linecap="round"></path><path d="M 199.500,143.000 C 204.557,140.090 204.429,139.887 209.500,137.000" stroke-width="3.422" stroke="black" fill="none" stroke-linecap="round"></path><path d="M 209.500,137.000 C 212.339,134.702 212.557,135.090 215.500,133.000" stroke-width="3.729" stroke="black" fill="none" stroke-linecap="round"></path><path d="M 215.500,133.000 C 222.673,128.445 218.839,131.202 222.500,130.000" stroke-width="4.489" stroke="black" fill="none" stroke-linecap="round"></path><path d="M 222.500,130.000 C 218.500,136.000 222.173,132.945 214.500,142.000" stroke-width="4.097" stroke="black" fill="none" stroke-linecap="round"></path><path d="M 214.500,142.000 C 211.993,144.765 212.500,145.000 210.500,148.000" stroke-width="3.993" stroke="black" fill="none" stroke-linecap="round"></path><path d="M 210.500,148.000 C 207.618,152.648 208.993,151.265 208.500,155.000" stroke-width="4.420" stroke="black" fill="none" stroke-linecap="round"></path><path d="M 208.500,155.000 C 211.090,156.482 209.118,156.648 213.500,156.000" stroke-width="4.727" stroke="black" fill="none" stroke-linecap="round"></path><path d="M 213.500,156.000 C 218.609,154.242 218.590,154.982 223.500,152.000" stroke-width="3.749" stroke="black" fill="none" stroke-linecap="round"></path><path d="M 223.500,152.000 C 230.500,148.500 230.609,148.742 237.500,145.000" stroke-width="3.134" stroke="black" fill="none" stroke-linecap="round"></path><path d="M 237.500,145.000 C 242.500,142.500 242.500,142.500 247.500,140.000" stroke-width="3.311" stroke="black" fill="none" stroke-linecap="round"></path><path d="M 247.500,140.000 C 251.565,138.119 251.500,138.000 255.500,136.000" stroke-width="3.514" stroke="black" fill="none" stroke-linecap="round"></path><path d="M 255.500,136.000 C 260.714,132.573 258.065,134.619 260.500,133.000" stroke-width="3.919" stroke="black" fill="none" stroke-linecap="round"></path><path d="M 260.500,133.000 C 257.367,135.354 260.214,133.573 254.500,138.000" stroke-width="4.636" stroke="black" fill="none" stroke-linecap="round"></path><path d="M 254.500,138.000 C 247.811,142.821 250.867,141.354 247.500,145.000" stroke-width="4.457" stroke="black" fill="none" stroke-linecap="round"></path><path d="M 247.500,145.000 C 250.739,145.920 247.311,146.321 253.500,145.000" stroke-width="4.816" stroke="black" fill="none" stroke-linecap="round"></path><path d="M 253.500,145.000 C 258.184,142.774 258.239,143.420 262.500,140.000" stroke-width="3.748" stroke="black" fill="none" stroke-linecap="round"></path><path d="M 262.500,140.000 C 264.814,137.709 265.184,138.274 267.500,136.000" stroke-width="3.978" stroke="black" fill="none" stroke-linecap="round"></path><path d="M 267.500,136.000 C 273.500,131.852 270.314,134.209 273.500,133.000" stroke-width="4.456" stroke="black" fill="none" stroke-linecap="round"></path><path d="M 273.500,133.000 C 270.946,137.865 273.500,134.852 267.500,142.000" stroke-width="4.344" stroke="black" fill="none" stroke-linecap="round"></path><path d="M 267.500,142.000 C 262.849,146.361 263.446,146.865 258.500,151.000" stroke-width="3.419" stroke="black" fill="none" stroke-linecap="round"></path><path d="M 258.500,151.000 C 255.451,154.459 255.349,154.361 252.500,158.000" stroke-width="3.710" stroke="black" fill="none" stroke-linecap="round"></path><path d="M 252.500,158.000 C 248.222,161.330 250.451,160.459 248.500,163.000" stroke-width="4.372" stroke="black" fill="none" stroke-linecap="round"></path><path d="M 248.500,163.000 C 251.251,164.843 248.722,164.330 253.500,164.000" stroke-width="4.710" stroke="black" fill="none" stroke-linecap="round"></path><path d="M 253.500,164.000 C 259.237,160.828 259.251,161.843 264.500,157.000" stroke-width="3.454" stroke="black" fill="none" stroke-linecap="round"></path><path d="M 264.500,157.000 C 270.041,152.549 270.237,152.828 275.500,148.000" stroke-width="3.107" stroke="black" fill="none" stroke-linecap="round"></path><path d="M 275.500,148.000 C 282.150,142.669 282.041,142.549 288.500,137.000" stroke-width="2.893" stroke="black" fill="none" stroke-linecap="round"></path><path d="M 288.500,137.000 C 296.116,130.120 296.150,130.169 303.500,123.000" stroke-width="2.579" stroke="black" fill="none" stroke-linecap="round"></path><path d="M 303.500,123.000 C 310.000,116.500 310.116,116.620 316.500,110.000" stroke-width="2.664" stroke="black" fill="none" stroke-linecap="round"></path><path d="M 316.500,110.000 C 323.586,103.989 323.000,103.500 329.500,97.000" stroke-width="2.631" stroke="black" fill="none" stroke-linecap="round"></path><path d="M 329.500,97.000 C 334.000,90.500 334.586,90.989 338.500,84.000" stroke-width="2.767" stroke="black" fill="none" stroke-linecap="round"></path><path d="M 338.500,84.000 C 343.261,77.662 343.000,77.500 347.500,71.000" stroke-width="2.868" stroke="black" fill="none" stroke-linecap="round"></path><path d="M 347.500,71.000 C 350.201,66.598 350.261,66.662 352.500,62.000" stroke-width="3.285" stroke="black" fill="none" stroke-linecap="round"></path><path d="M 352.500,62.000 C 353.905,58.456 354.201,58.598 355.500,55.000" stroke-width="3.636" stroke="black" fill="none" stroke-linecap="round"></path><path d="M 355.500,55.000 C 358.771,51.713 356.905,51.956 358.500,49.000" stroke-width="3.905" stroke="black" fill="none" stroke-linecap="round"></path><path d="M 358.500,49.000 C 356.500,44.455 358.271,46.713 354.500,45.000" stroke-width="4.729" stroke="black" fill="none" stroke-linecap="round"></path><path d="M 354.500,45.000 C 350.903,48.408 351.000,45.955 347.500,52.000" stroke-width="3.775" stroke="black" fill="none" stroke-linecap="round"></path><path d="M 347.500,52.000 C 341.730,57.773 341.903,57.908 336.500,64.000" stroke-width="3.026" stroke="black" fill="none" stroke-linecap="round"></path><path d="M 336.500,64.000 C 331.150,70.257 331.230,70.273 326.500,77.000" stroke-width="2.848" stroke="black" fill="none" stroke-linecap="round"></path><path d="M 326.500,77.000 C 321.614,85.074 321.150,84.757 316.500,93.000" stroke-width="2.656" stroke="black" fill="none" stroke-linecap="round"></path><path d="M 316.500,93.000 C 311.440,100.461 311.614,100.574 306.500,108.000" stroke-width="2.707" stroke="black" fill="none" stroke-linecap="round"></path><path d="M 306.500,108.000 C 302.401,115.294 301.940,114.961 297.500,122.000" stroke-width="2.742" stroke="black" fill="none" stroke-linecap="round"></path><path d="M 297.500,122.000 C 292.748,128.227 292.901,128.294 287.500,134.000" stroke-width="2.814" stroke="black" fill="none" stroke-linecap="round"></path><path d="M 287.500,134.000 C 282.638,139.147 282.748,139.227 277.500,144.000" stroke-width="3.041" stroke="black" fill="none" stroke-linecap="round"></path><path d="M 277.500,144.000 C 273.557,147.568 273.638,147.647 269.500,151.000" stroke-width="3.270" stroke="black" fill="none" stroke-linecap="round"></path><path d="M 269.500,151.000 C 263.040,155.000 267.057,153.068 264.500,155.000" stroke-width="3.802" stroke="black" fill="none" stroke-linecap="round"></path><path d="M 264.500,155.000 C 272.190,153.530 268.040,155.000 279.500,151.000" stroke-width="4.418" stroke="black" fill="none" stroke-linecap="round"></path><path d="M 279.500,151.000 C 284.884,148.184 285.190,149.030 290.500,146.000" stroke-width="3.336" stroke="black" fill="none" stroke-linecap="round"></path><path d="M 290.500,146.000 C 294.000,145.000 293.884,144.684 297.500,144.000" stroke-width="3.690" stroke="black" fill="none" stroke-linecap="round"></path><path d="M 297.500,144.000 C 304.500,141.525 301.000,143.000 304.500,142.000" stroke-width="4.331" stroke="black" fill="none" stroke-linecap="round"></path><path d="M 304.500,142.000 C 301.119,144.227 304.500,142.525 297.500,146.000" stroke-width="4.423" stroke="black" fill="none" stroke-linecap="round"></path><path d="M 297.500,146.000 C 277.331,158.233 276.619,156.227 255.500,166.000" stroke-width="2.720" stroke="black" fill="none" stroke-linecap="round"></path><path d="M 255.500,166.000 C 224.770,175.893 225.331,176.733 193.500,183.000" stroke-width="2.127" stroke="black" fill="none" stroke-linecap="round"></path><path d="M 193.500,183.000 C 180.542,185.233 180.770,185.893 167.500,186.000" stroke-width="2.188" stroke="black" fill="none" stroke-linecap="round"></path><path d="M 167.500,186.000 C 154.994,186.266 155.042,186.733 142.500,186.000" stroke-width="2.302" stroke="black" fill="none" stroke-linecap="round"></path><path d="M 142.500,186.000 C 130.892,187.598 131.494,185.766 120.500,185.000" stroke-width="2.404" stroke="black" fill="none" stroke-linecap="round"></path><path d="M 120.500,185.000 C 112.612,182.049 112.892,183.098 106.500,177.000" stroke-width="2.818" stroke="black" fill="none" stroke-linecap="round"></path><path d="M 106.500,177.000 C 100.489,172.227 101.112,172.549 97.500,166.000" stroke-width="2.986" stroke="black" fill="none" stroke-linecap="round"></path><path d="M 97.500,166.000 C 94.078,158.956 94.489,159.727 94.500,152.000" stroke-width="2.974" stroke="black" fill="none" stroke-linecap="round"></path><path d="M 94.500,152.000 C 94.939,141.437 95.078,142.456 99.500,133.000" stroke-width="2.645" stroke="black" fill="none" stroke-linecap="round"></path><path d="M 99.500,133.000 C 105.608,122.410 104.939,122.937 114.500,115.000" stroke-width="2.443" stroke="black" fill="none" stroke-linecap="round"></path><path d="M 114.500,115.000 C 127.082,104.488 126.608,104.910 141.500,98.000" stroke-width="2.018" stroke="black" fill="none" stroke-linecap="round"></path><path d="M 141.500,98.000 C 157.806,92.236 157.082,90.988 174.500,88.000" stroke-width="1.955" stroke="black" fill="none" stroke-linecap="round"></path><path d="M 174.500,88.000 C 191.382,83.769 191.306,83.736 208.500,81.000" stroke-width="1.880" stroke="black" fill="none" stroke-linecap="round"></path><path d="M 208.500,81.000 C 225.449,78.312 225.382,78.269 242.500,77.000" stroke-width="1.817" stroke="black" fill="none" stroke-linecap="round"></path><path d="M 242.500,77.000 C 257.997,76.287 257.949,75.812 273.500,76.000" stroke-width="1.984" stroke="black" fill="none" stroke-linecap="round"></path><path d="M 273.500,76.000 C 285.060,75.202 284.997,75.787 296.500,76.000" stroke-width="2.200" stroke="black" fill="none" stroke-linecap="round"></path><path d="M 296.500,76.000 C 306.881,76.295 306.560,76.702 316.500,79.000" stroke-width="2.446" stroke="black" fill="none" stroke-linecap="round"></path><path d="M 316.500,79.000 C 323.691,80.756 322.881,80.795 328.500,85.000" stroke-width="2.845" stroke="black" fill="none" stroke-linecap="round"></path><path d="M 328.500,85.000 C 332.654,89.134 332.191,88.256 333.500,94.000" stroke-width="3.226" stroke="black" fill="none" stroke-linecap="round"></path><path d="M 333.500,94.000 C 336.320,102.652 334.654,100.634 332.500,108.000" stroke-width="3.123" stroke="black" fill="none" stroke-linecap="round"></path><path d="M 332.500,108.000 C 321.275,119.537 323.820,120.152 308.500,129.000" stroke-width="2.134" stroke="black" fill="none" stroke-linecap="round"></path><path d="M 308.500,129.000 C 294.259,139.995 294.275,139.537 278.500,148.000" stroke-width="1.848" stroke="black" fill="none" stroke-linecap="round"></path><path d="M 278.500,148.000 C 262.510,156.482 262.759,155.995 245.500,161.000" stroke-width="1.777" stroke="black" fill="none" stroke-linecap="round"></path><path d="M 245.500,161.000 C 230.062,163.963 230.510,164.982 214.500,165.000" stroke-width="1.916" stroke="black" fill="none" stroke-linecap="round"></path><path d="M 214.500,165.000 C 199.971,165.591 200.062,165.963 185.500,165.000" stroke-width="1.974" stroke="black" fill="none" stroke-linecap="round"></path><path d="M 185.500,165.000 C 175.012,165.594 175.471,164.591 165.500,163.000" stroke-width="2.311" stroke="black" fill="none" stroke-linecap="round"></path><path d="M 165.500,163.000 C 158.386,160.251 158.512,161.094 152.500,156.000" stroke-width="3.102" stroke="black" fill="none" stroke-linecap="round"></path><path d="M 152.500,156.000 C 148.375,153.498 149.386,153.751 147.500,150.000" stroke-width="3.635" stroke="black" fill="none" stroke-linecap="round"></path><path d="M 147.500,150.000 C 145.694,143.683 146.375,145.498 148.500,140.000" stroke-width="3.507" stroke="black" fill="none" stroke-linecap="round"></path><path d="M 317.500,152.000 C 320.916,150.398 321.000,151.000 324.500,150.000" stroke-width="5.280" stroke="black" fill="none" stroke-linecap="round"></path><path d="M 324.500,150.000 C 330.000,150.000 329.916,149.398 335.500,150.000" stroke-width="3.820" stroke="black" fill="none" stroke-linecap="round"></path><path d="M 335.500,150.000 C 343.033,150.498 343.000,150.000 350.500,150.000" stroke-width="3.261" stroke="black" fill="none" stroke-linecap="round"></path><path d="M 350.500,150.000 C 358.110,149.529 358.033,149.498 365.500,148.000" stroke-width="3.056" stroke="black" fill="none" stroke-linecap="round"></path><path d="M 365.500,148.000 C 372.410,145.541 372.610,146.529 379.500,144.000" stroke-width="3.093" stroke="black" fill="none" stroke-linecap="round"></path><path d="M 379.500,144.000 C 383.989,143.301 383.910,143.041 388.500,143.000" stroke-width="3.562" stroke="black" fill="none" stroke-linecap="round"></path><path d="M 388.500,143.000 C 392.218,141.732 391.489,142.801 394.500,143.000" stroke-width="3.959" stroke="black" fill="none" stroke-linecap="round"></path><path d="M 394.500,143.000 C 398.560,145.590 396.718,144.232 397.500,148.000" stroke-width="4.513" stroke="black" fill="none" stroke-linecap="round"></path><path d="M 397.500,148.000 C 390.697,158.151 393.060,158.090 383.500,168.000" stroke-width="2.705" stroke="black" fill="none" stroke-linecap="round"></path><path d="M 383.500,168.000 C 377.010,172.510 381.197,171.151 378.500,174.000" stroke-width="3.377" stroke="black" fill="none" stroke-linecap="round"></path><path d="M 378.500,174.000 C 385.046,176.248 381.010,176.510 391.500,176.000" stroke-width="4.220" stroke="black" fill="none" stroke-linecap="round"></path><path d="M 391.500,176.000 C 398.049,174.683 398.046,175.748 404.500,173.000" stroke-width="3.341" stroke="black" fill="none" stroke-linecap="round"></path><path d="M 404.500,173.000 C 409.518,171.557 409.549,171.683 414.500,170.000" stroke-width="3.582" stroke="black" fill="none" stroke-linecap="round"></path><path d="M 414.500,170.000 C 417.588,169.213 417.518,169.057 420.500,168.000" stroke-width="3.929" stroke="black" fill="none" stroke-linecap="round"></path><path d="M 420.500,168.000 C 426.500,166.287 423.588,166.713 426.500,165.000" stroke-width="4.423" stroke="black" fill="none" stroke-linecap="round"></path><path d="M 426.500,165.000 C 423.609,163.444 426.500,163.787 420.500,163.000" stroke-width="4.642" stroke="black" fill="none" stroke-linecap="round"></path><path d="M 420.500,163.000 C 413.005,162.406 413.109,161.944 405.500,162.000" stroke-width="3.343" stroke="black" fill="none" stroke-linecap="round"></path><path d="M 405.500,162.000 C 394.506,161.245 394.505,161.406 383.500,161.000" stroke-width="2.664" stroke="black" fill="none" stroke-linecap="round"></path><path d="M 383.500,161.000 C 372.000,161.000 372.006,160.745 360.500,161.000" stroke-width="2.404" stroke="black" fill="none" stroke-linecap="round"></path><path d="M 360.500,161.000 C 347.930,160.044 348.000,161.000 335.500,161.000" stroke-width="2.254" stroke="black" fill="none" stroke-linecap="round"></path><path d="M 335.500,161.000 C 321.876,162.377 321.930,162.044 308.500,165.000" stroke-width="2.187" stroke="black" fill="none" stroke-linecap="round"></path><path d="M 308.500,165.000 C 296.500,168.000 296.376,167.377 284.500,171.000" stroke-width="2.311" stroke="black" fill="none" stroke-linecap="round"></path><path d="M 284.500,171.000 C 272.558,174.259 272.500,174.000 260.500,177.000" stroke-width="2.297" stroke="black" fill="none" stroke-linecap="round"></path><path d="M 260.500,177.000 C 250.598,179.990 250.558,179.259 240.500,181.000" stroke-width="2.417" stroke="black" fill="none" stroke-linecap="round"></path></svg>