<svg xmlns="http://www.w3.org/2000/svg" xmlns:xlink="http://www.w3.org/1999/xlink" viewBox="0 0 692 576" width="692" height="576"><path d="M 322.000,309.000 C 320.598,305.732 320.000,306.500 318.000,304.000" stroke-width="5.381" stroke="black" fill="none" stroke-linecap="round"></path><path d="M 318.000,304.000 C 312.690,300.970 313.098,300.732 307.000,299.000" stroke-width="3.647" stroke="black" fill="none" stroke-linecap="round"></path><path d="M 307.000,299.000 C 299.544,296.811 299.690,296.470 292.000,295.000" stroke-width="3.054" stroke="black" fill="none" stroke-linecap="round"></path><path d="M 292.000,295.000 C 287.046,293.696 287.044,293.811 282.000,293.000" stroke-width="3.363" stroke="black" fill="none" stroke-linecap="round"></path><path d="M 282.000,293.000 C 272.488,292.095 272.546,291.696 263.000,291.000" stroke-width="2.829" stroke="black" fill="none" stroke-linecap="round"></path><path d="M 263.000,291.000 C 259.519,290.235 259.488,290.595 256.000,290.000" stroke-width="3.543" stroke="black" fill="none" stroke-linecap="round"></path><path d="M 256.000,290.000 C 251.984,290.249 252.019,289.735 248.000,290.000" stroke-width="3.782" stroke="black" fill="none" stroke-linecap="round"></path><path d="M 248.000,290.000 C 244.016,289.251 243.984,289.749 240.000,289.000" stroke-width="3.695" stroke="black" fill="none" stroke-linecap="round"></path><path d="M 240.000,289.000 C 236.000,289.000 236.016,288.751 232.000,289.000" stroke-width="3.832" stroke="black" fill="none" stroke-linecap="round"></path><path d="M 232.000,289.000 C 226.000,289.000 226.000,289.000 220.000,289.000" stroke-width="3.500" stroke="black" fill="none" stroke-linecap="round"></path><path d="M 220.000,289.000 C 217.000,289.000 217.000,289.000 214.000,289.000" stroke-width="3.894" stroke="black" fill="none" stroke-linecap="round"></path><path d="M 214.000,289.000 C 206.638,289.136 211.000,289.000 208.000,289.000" stroke-width="4.475" stroke="black" fill="none" stroke-linecap="round"></path><path d="M 208.000,289.000 C 216.001,288.000 211.638,288.636 224.000,288.000" stroke-width="5.011" stroke="black" fill="none" stroke-linecap="round"></path><path d="M 224.000,288.000 C 231.594,287.788 231.501,288.000 239.000,289.000" stroke-width="3.397" stroke="black" fill="none" stroke-linecap="round"></path><path d="M 239.000,289.000 C 259.275,291.991 259.094,292.288 279.000,297.000" stroke-width="1.956" stroke="black" fill="none" stroke-linecap="round"></path><path d="M 279.000,297.000 C 290.198,302.210 290.775,299.991 302.000,305.000" stroke-width="2.241" stroke="black" fill="none" stroke-linecap="round"></path><path d="M 302.000,305.000 C 317.921,308.872 317.698,308.710 334.000,310.000" stroke-width="1.897" stroke="black" fill="none" stroke-linecap="round"></path><path d="M 334.000,310.000 C 346.538,309.935 346.421,310.872 359.000,309.000" stroke-width="2.147" stroke="black" fill="none" stroke-linecap="round"></path><path d="M 359.000,309.000 C 366.772,308.946 366.538,308.435 374.000,307.000" stroke-width="2.712" stroke="black" fill="none" stroke-linecap="round"></path><path d="M 374.000,307.000 C 379.398,304.241 379.772,305.446 385.000,302.000" stroke-width="3.039" stroke="black" fill="none" stroke-linecap="round"></path><path d="M 385.000,302.000 C 389.458,300.362 389.398,300.241 394.000,299.000" stroke-width="3.418" stroke="black" fill="none" stroke-linecap="round"></path><path d="M 394.000,299.000 C 399.435,297.172 399.458,297.362 405.000,296.000" stroke-width="3.323" stroke="black" fill="none" stroke-linecap="round"></path></svg>