<svg xmlns="http://www.w3.org/2000/svg" xmlns:xlink="http://www.w3.org/1999/xlink" viewBox="0 0 1460 576" width="1460" height="576"><path d="M 694.000,276.000 C 704.790,267.142 705.500,270.500 717.000,265.000" stroke-width="4.922" stroke="black" fill="none" stroke-linecap="round"></path><path d="M 717.000,265.000 C 734.199,264.007 733.290,262.142 751.000,266.000" stroke-width="2.222" stroke="black" fill="none" stroke-linecap="round"></path><path d="M 751.000,266.000 C 763.466,269.151 763.699,267.507 776.000,272.000" stroke-width="2.287" stroke="black" fill="none" stroke-linecap="round"></path><path d="M 776.000,272.000 C 785.407,274.704 785.466,274.151 795.000,276.000" stroke-width="2.459" stroke="black" fill="none" stroke-linecap="round"></path><path d="M 795.000,276.000 C 804.017,277.000 803.907,277.204 813.000,277.000" stroke-width="2.586" stroke="black" fill="none" stroke-linecap="round"></path><path d="M 813.000,277.000 C 818.330,278.185 817.017,277.000 821.000,276.000" stroke-width="3.716" stroke="black" fill="none" stroke-linecap="round"></path><path d="M 821.000,276.000 C 823.269,267.756 823.830,273.685 824.000,268.000" stroke-width="3.784" stroke="black" fill="none" stroke-linecap="round"></path><path d="M 824.000,268.000 C 824.842,272.621 824.769,268.256 824.000,277.000" stroke-width="4.815" stroke="black" fill="none" stroke-linecap="round"></path><path d="M 824.000,277.000 C 822.677,286.080 822.342,285.621 819.000,294.000" stroke-width="3.160" stroke="black" fill="none" stroke-linecap="round"></path><path d="M 819.000,294.000 C 814.953,299.466 816.177,300.080 811.000,305.000" stroke-width="3.075" stroke="black" fill="none" stroke-linecap="round"></path><path d="M 811.000,305.000 C 805.362,313.782 804.953,313.466 799.000,322.000" stroke-width="2.605" stroke="black" fill="none" stroke-linecap="round"></path><path d="M 799.000,322.000 C 793.484,329.516 793.362,329.282 787.000,336.000" stroke-width="2.611" stroke="black" fill="none" stroke-linecap="round"></path><path d="M 787.000,336.000 C 783.322,339.512 783.484,339.516 779.000,342.000" stroke-width="3.199" stroke="black" fill="none" stroke-linecap="round"></path><path d="M 779.000,342.000 C 766.887,349.630 766.822,349.012 754.000,355.000" stroke-width="3.082" stroke="black" fill="none" stroke-linecap="round"></path><path d="M 754.000,355.000 C 748.376,357.742 748.887,357.130 743.000,357.000" stroke-width="3.293" stroke="black" fill="none" stroke-linecap="round"></path><path d="M 743.000,357.000 C 731.339,357.483 733.876,355.742 725.000,351.000" stroke-width="2.754" stroke="black" fill="none" stroke-linecap="round"></path><path d="M 725.000,351.000 C 709.597,332.463 709.339,334.983 699.000,312.000" stroke-width="2.470" stroke="black" fill="none" stroke-linecap="round"></path><path d="M 699.000,312.000 C 696.000,303.461 695.097,304.463 696.000,295.000" stroke-width="2.686" stroke="black" fill="none" stroke-linecap="round"></path><path d="M 696.000,295.000 C 695.505,287.345 696.000,288.461 699.000,282.000" stroke-width="2.996" stroke="black" fill="none" stroke-linecap="round"></path><path d="M 699.000,282.000 C 704.805,273.797 704.005,274.345 713.000,269.000" stroke-width="2.610" stroke="black" fill="none" stroke-linecap="round"></path><path d="M 713.000,269.000 C 746.199,249.342 745.805,249.797 781.000,234.000" stroke-width="1.926" stroke="black" fill="none" stroke-linecap="round"></path><path d="M 781.000,234.000 C 793.359,230.264 792.699,228.842 806.000,228.000" stroke-width="2.135" stroke="black" fill="none" stroke-linecap="round"></path><path d="M 806.000,228.000 C 826.939,224.142 826.859,224.264 848.000,222.000" stroke-width="1.681" stroke="black" fill="none" stroke-linecap="round"></path><path d="M 848.000,222.000 C 857.106,219.369 856.439,221.142 865.000,222.000" stroke-width="2.340" stroke="black" fill="none" stroke-linecap="round"></path><path d="M 865.000,222.000 C 885.756,229.170 884.106,228.369 902.000,240.000" stroke-width="2.452" stroke="black" fill="none" stroke-linecap="round"></path><path d="M 902.000,240.000 C 905.875,244.491 905.256,242.170 904.000,248.000" stroke-width="3.324" stroke="black" fill="none" stroke-linecap="round"></path><path d="M 904.000,248.000 C 892.440,278.210 890.375,273.491 871.000,298.000" stroke-width="1.469" stroke="black" fill="none" stroke-linecap="round"></path><path d="M 871.000,298.000 C 842.014,315.024 846.940,320.210 813.000,332.000" stroke-width="1.218" stroke="black" fill="none" stroke-linecap="round"></path><path d="M 813.000,332.000 C 796.087,344.902 795.014,342.524 777.000,353.000" stroke-width="1.439" stroke="black" fill="none" stroke-linecap="round"></path><path d="M 777.000,353.000 C 746.016,368.446 746.587,365.902 714.000,374.000" stroke-width="1.377" stroke="black" fill="none" stroke-linecap="round"></path><path d="M 714.000,374.000 C 695.956,373.913 697.016,376.946 679.000,370.000" stroke-width="1.622" stroke="black" fill="none" stroke-linecap="round"></path><path d="M 679.000,370.000 C 669.637,367.303 669.956,367.913 662.000,362.000" stroke-width="2.238" stroke="black" fill="none" stroke-linecap="round"></path><path d="M 662.000,362.000 C 650.616,354.872 651.637,354.803 643.000,345.000" stroke-width="2.246" stroke="black" fill="none" stroke-linecap="round"></path><path d="M 643.000,345.000 C 635.225,336.232 637.116,337.372 635.000,327.000" stroke-width="2.486" stroke="black" fill="none" stroke-linecap="round"></path><path d="M 635.000,327.000 C 633.974,312.528 634.725,315.732 642.000,304.000" stroke-width="2.375" stroke="black" fill="none" stroke-linecap="round"></path><path d="M 642.000,304.000 C 676.301,268.457 673.974,270.028 715.000,242.000" stroke-width="1.445" stroke="black" fill="none" stroke-linecap="round"></path><path d="M 715.000,242.000 C 727.390,237.727 725.301,234.957 740.000,237.000" stroke-width="1.967" stroke="black" fill="none" stroke-linecap="round"></path><path d="M 740.000,237.000 C 753.794,236.599 753.390,236.227 767.000,239.000" stroke-width="2.051" stroke="black" fill="none" stroke-linecap="round"></path><path d="M 767.000,239.000 C 777.897,238.897 775.794,240.599 784.000,245.000" stroke-width="2.483" stroke="black" fill="none" stroke-linecap="round"></path><path d="M 784.000,245.000 C 798.609,260.875 797.897,258.897 807.000,279.000" stroke-width="2.500" stroke="black" fill="none" stroke-linecap="round"></path><path d="M 807.000,279.000 C 810.275,289.310 811.109,287.875 809.000,299.000" stroke-width="2.608" stroke="black" fill="none" stroke-linecap="round"></path><path d="M 809.000,299.000 C 807.189,308.943 807.775,308.310 802.000,317.000" stroke-width="2.626" stroke="black" fill="none" stroke-linecap="round"></path><path d="M 802.000,317.000 C 787.829,338.767 788.189,338.443 771.000,358.000" stroke-width="1.566" stroke="black" fill="none" stroke-linecap="round"></path><path d="M 771.000,358.000 C 762.417,366.094 763.329,366.767 753.000,373.000" stroke-width="2.051" stroke="black" fill="none" stroke-linecap="round"></path></svg>