<svg xmlns="http://www.w3.org/2000/svg" xmlns:xlink="http://www.w3.org/1999/xlink" viewBox="0 0 751 330" width="751" height="330"><path d="M 198.500,39.000 C 197.391,45.459 196.500,45.000 194.500,51.000" stroke-width="4.646" stroke="black" fill="none" stroke-linecap="round"></path><path d="M 194.500,51.000 C 190.400,56.429 191.391,56.959 186.500,62.000" stroke-width="3.465" stroke="black" fill="none" stroke-linecap="round"></path><path d="M 186.500,62.000 C 180.324,71.739 179.900,71.429 173.500,81.000" stroke-width="2.564" stroke="black" fill="none" stroke-linecap="round"></path><path d="M 173.500,81.000 C 166.089,90.571 166.324,90.739 158.500,100.000" stroke-width="2.327" stroke="black" fill="none" stroke-linecap="round"></path><path d="M 158.500,100.000 C 149.378,110.902 149.589,111.071 140.500,122.000" stroke-width="2.108" stroke="black" fill="none" stroke-linecap="round"></path><path d="M 140.500,122.000 C 131.302,133.350 131.378,133.402 122.500,145.000" stroke-width="2.081" stroke="black" fill="none" stroke-linecap="round"></path><path d="M 122.500,145.000 C 114.176,155.781 114.302,155.850 106.500,167.000" stroke-width="2.190" stroke="black" fill="none" stroke-linecap="round"></path><path d="M 106.500,167.000 C 100.941,174.711 101.176,174.781 96.500,183.000" stroke-width="2.450" stroke="black" fill="none" stroke-linecap="round"></path><path d="M 96.500,183.000 C 94.277,189.136 93.441,188.711 91.500,195.000" stroke-width="2.923" stroke="black" fill="none" stroke-linecap="round"></path><path d="M 91.500,195.000 C 88.925,201.715 89.777,198.636 87.500,202.000" stroke-width="3.451" stroke="black" fill="none" stroke-linecap="round"></path><path d="M 87.500,202.000 C 86.013,198.923 86.425,202.215 86.500,196.000" stroke-width="4.268" stroke="black" fill="none" stroke-linecap="round"></path><path d="M 198.500,38.000 C 201.900,34.467 201.000,36.500 203.500,35.000" stroke-width="5.208" stroke="black" fill="none" stroke-linecap="round"></path><path d="M 203.500,35.000 C 203.768,37.561 204.900,35.467 204.500,40.000" stroke-width="4.642" stroke="black" fill="none" stroke-linecap="round"></path><path d="M 204.500,40.000 C 207.879,47.298 206.768,47.561 209.500,55.000" stroke-width="3.281" stroke="black" fill="none" stroke-linecap="round"></path><path d="M 209.500,55.000 C 211.763,66.450 211.879,66.298 212.500,78.000" stroke-width="2.658" stroke="black" fill="none" stroke-linecap="round"></path><path d="M 212.500,78.000 C 212.500,90.000 213.263,89.950 212.500,102.000" stroke-width="2.421" stroke="black" fill="none" stroke-linecap="round"></path><path d="M 212.500,102.000 C 212.500,112.500 212.500,112.500 212.500,123.000" stroke-width="2.487" stroke="black" fill="none" stroke-linecap="round"></path><path d="M 212.500,123.000 C 212.217,131.511 212.500,131.500 212.500,140.000" stroke-width="2.892" stroke="black" fill="none" stroke-linecap="round"></path><path d="M 212.500,140.000 C 211.500,147.000 212.717,146.511 213.500,153.000" stroke-width="3.090" stroke="black" fill="none" stroke-linecap="round"></path><path d="M 213.500,153.000 C 216.601,158.801 215.500,159.000 220.500,164.000" stroke-width="3.097" stroke="black" fill="none" stroke-linecap="round"></path><path d="M 220.500,164.000 C 224.014,169.075 224.101,168.801 228.500,173.000" stroke-width="3.175" stroke="black" fill="none" stroke-linecap="round"></path><path d="M 228.500,173.000 C 232.393,175.690 232.014,176.075 236.500,178.000" stroke-width="3.472" stroke="black" fill="none" stroke-linecap="round"></path><path d="M 236.500,178.000 C 240.311,180.604 240.393,180.190 244.500,182.000" stroke-width="3.667" stroke="black" fill="none" stroke-linecap="round"></path><path d="M 245.500,135.000 C 237.119,130.796 237.000,132.000 228.500,129.000" stroke-width="4.276" stroke="black" fill="none" stroke-linecap="round"></path><path d="M 228.500,129.000 C 225.016,129.648 225.119,128.296 221.500,130.000" stroke-width="4.059" stroke="black" fill="none" stroke-linecap="round"></path><path d="M 221.500,130.000 C 215.011,130.797 215.016,130.648 208.500,131.000" stroke-width="3.466" stroke="black" fill="none" stroke-linecap="round"></path><path d="M 208.500,131.000 C 198.980,131.451 199.011,131.297 189.500,131.000" stroke-width="2.787" stroke="black" fill="none" stroke-linecap="round"></path><path d="M 189.500,131.000 C 177.783,131.160 177.980,130.451 166.500,129.000" stroke-width="2.493" stroke="black" fill="none" stroke-linecap="round"></path><path d="M 166.500,129.000 C 154.557,125.288 154.283,126.660 142.500,122.000" stroke-width="2.338" stroke="black" fill="none" stroke-linecap="round"></path><path d="M 142.500,122.000 C 132.631,118.643 132.557,119.288 122.500,117.000" stroke-width="2.421" stroke="black" fill="none" stroke-linecap="round"></path><path d="M 122.500,117.000 C 113.994,116.000 114.131,115.643 105.500,116.000" stroke-width="2.681" stroke="black" fill="none" stroke-linecap="round"></path><path d="M 105.500,116.000 C 99.041,115.250 99.494,116.000 93.500,117.000" stroke-width="3.030" stroke="black" fill="none" stroke-linecap="round"></path><path d="M 93.500,117.000 C 89.009,118.739 89.541,118.250 86.500,122.000" stroke-width="3.444" stroke="black" fill="none" stroke-linecap="round"></path><path d="M 86.500,122.000 C 84.381,125.888 84.009,125.239 83.500,130.000" stroke-width="3.648" stroke="black" fill="none" stroke-linecap="round"></path><path d="M 83.500,130.000 C 82.182,133.892 82.881,132.888 83.500,136.000" stroke-width="3.991" stroke="black" fill="none" stroke-linecap="round"></path><path d="M 83.500,136.000 C 85.949,137.150 84.682,137.892 88.500,138.000" stroke-width="4.222" stroke="black" fill="none" stroke-linecap="round"></path><path d="M 265.500,38.000 C 258.556,28.246 257.500,30.000 249.500,22.000" stroke-width="2.639" stroke="black" fill="none" stroke-linecap="round"></path><path d="M 249.500,22.000 C 243.171,18.861 244.056,18.246 236.500,18.000" stroke-width="2.961" stroke="black" fill="none" stroke-linecap="round"></path><path d="M 236.500,18.000 C 227.334,16.707 227.671,16.861 218.500,18.000" stroke-width="2.797" stroke="black" fill="none" stroke-linecap="round"></path><path d="M 218.500,18.000 C 206.320,19.333 206.834,19.707 195.500,24.000" stroke-width="2.401" stroke="black" fill="none" stroke-linecap="round"></path><path d="M 195.500,24.000 C 180.632,30.759 180.820,30.333 167.500,40.000" stroke-width="2.060" stroke="black" fill="none" stroke-linecap="round"></path><path d="M 167.500,40.000 C 153.757,50.223 153.632,49.759 141.500,62.000" stroke-width="1.978" stroke="black" fill="none" stroke-linecap="round"></path><path d="M 141.500,62.000 C 128.213,74.847 128.257,74.723 116.500,89.000" stroke-width="1.778" stroke="black" fill="none" stroke-linecap="round"></path><path d="M 116.500,89.000 C 104.124,103.928 104.213,103.847 93.500,120.000" stroke-width="1.685" stroke="black" fill="none" stroke-linecap="round"></path><path d="M 93.500,120.000 C 83.364,133.200 84.624,133.428 77.500,148.000" stroke-width="1.903" stroke="black" fill="none" stroke-linecap="round"></path><path d="M 77.500,148.000 C 73.620,160.398 72.864,159.700 72.500,173.000" stroke-width="2.082" stroke="black" fill="none" stroke-linecap="round"></path><path d="M 72.500,173.000 C 70.248,183.994 71.620,182.898 73.500,193.000" stroke-width="2.409" stroke="black" fill="none" stroke-linecap="round"></path><path d="M 73.500,193.000 C 77.807,203.065 76.748,201.994 85.500,209.000" stroke-width="2.472" stroke="black" fill="none" stroke-linecap="round"></path><path d="M 85.500,209.000 C 96.358,216.689 95.307,216.565 108.500,220.000" stroke-width="2.312" stroke="black" fill="none" stroke-linecap="round"></path><path d="M 108.500,220.000 C 124.433,223.069 123.858,224.189 140.500,224.000" stroke-width="1.980" stroke="black" fill="none" stroke-linecap="round"></path><path d="M 140.500,224.000 C 159.080,225.228 158.933,225.069 177.500,224.000" stroke-width="1.829" stroke="black" fill="none" stroke-linecap="round"></path><path d="M 177.500,224.000 C 196.908,223.271 196.580,222.728 215.500,219.000" stroke-width="1.757" stroke="black" fill="none" stroke-linecap="round"></path><path d="M 215.500,219.000 C 234.514,215.113 233.908,214.771 251.500,207.000" stroke-width="1.745" stroke="black" fill="none" stroke-linecap="round"></path><path d="M 251.500,207.000 C 269.016,199.212 268.014,199.113 282.500,187.000" stroke-width="1.714" stroke="black" fill="none" stroke-linecap="round"></path><path d="M 282.500,187.000 C 297.229,174.753 295.516,175.212 304.500,159.000" stroke-width="1.877" stroke="black" fill="none" stroke-linecap="round"></path><path d="M 304.500,159.000 C 310.984,140.698 312.229,142.253 312.500,122.000" stroke-width="1.728" stroke="black" fill="none" stroke-linecap="round"></path><path d="M 312.500,122.000 C 314.780,102.656 313.984,103.698 310.500,85.000" stroke-width="1.706" stroke="black" fill="none" stroke-linecap="round"></path><path d="M 310.500,85.000 C 304.855,69.646 306.780,69.656 296.500,56.000" stroke-width="1.816" stroke="black" fill="none" stroke-linecap="round"></path><path d="M 296.500,56.000 C 290.110,43.914 289.855,45.146 280.500,36.000" stroke-width="2.045" stroke="black" fill="none" stroke-linecap="round"></path><path d="M 280.500,36.000 C 271.952,30.075 273.110,29.914 262.500,28.000" stroke-width="2.408" stroke="black" fill="none" stroke-linecap="round"></path><path d="M 262.500,28.000 C 250.647,25.071 251.452,25.575 239.500,27.000" stroke-width="2.395" stroke="black" fill="none" stroke-linecap="round"></path><path d="M 239.500,27.000 C 223.986,30.016 224.647,29.571 210.500,37.000" stroke-width="2.048" stroke="black" fill="none" stroke-linecap="round"></path><path d="M 210.500,37.000 C 196.559,45.933 195.986,44.516 183.500,56.000" stroke-width="1.951" stroke="black" fill="none" stroke-linecap="round"></path><path d="M 183.500,56.000 C 172.532,64.510 172.559,64.433 162.500,74.000" stroke-width="2.080" stroke="black" fill="none" stroke-linecap="round"></path><path d="M 162.500,74.000 C 153.600,81.872 154.032,82.010 146.500,91.000" stroke-width="2.275" stroke="black" fill="none" stroke-linecap="round"></path><path d="M 272.500,164.000 C 267.887,166.517 270.000,167.000 267.500,170.000" stroke-width="5.071" stroke="black" fill="none" stroke-linecap="round"></path><path d="M 267.500,170.000 C 267.811,176.622 266.887,175.517 270.500,182.000" stroke-width="4.369" stroke="black" fill="none" stroke-linecap="round"></path><path d="M 270.500,182.000 C 273.070,187.668 272.811,186.622 277.500,190.000" stroke-width="3.691" stroke="black" fill="none" stroke-linecap="round"></path><path d="M 277.500,190.000 C 283.473,192.000 282.570,192.668 289.500,192.000" stroke-width="3.392" stroke="black" fill="none" stroke-linecap="round"></path><path d="M 289.500,192.000 C 299.467,193.474 298.473,192.000 307.500,190.000" stroke-width="2.895" stroke="black" fill="none" stroke-linecap="round"></path><path d="M 307.500,190.000 C 317.451,183.541 317.967,185.474 326.500,176.000" stroke-width="2.495" stroke="black" fill="none" stroke-linecap="round"></path><path d="M 326.500,176.000 C 335.534,168.497 335.451,168.541 343.500,160.000" stroke-width="2.406" stroke="black" fill="none" stroke-linecap="round"></path><path d="M 343.500,160.000 C 349.957,151.965 350.534,152.497 356.500,144.000" stroke-width="2.500" stroke="black" fill="none" stroke-linecap="round"></path><path d="M 356.500,144.000 C 361.155,137.660 361.457,137.965 366.500,132.000" stroke-width="2.673" stroke="black" fill="none" stroke-linecap="round"></path><path d="M 366.500,132.000 C 370.659,126.316 369.655,128.660 373.500,126.000" stroke-width="3.329" stroke="black" fill="none" stroke-linecap="round"></path><path d="M 373.500,126.000 C 376.386,128.636 375.159,125.816 375.500,131.000" stroke-width="4.258" stroke="black" fill="none" stroke-linecap="round"></path><path d="M 375.500,131.000 C 369.498,140.242 371.886,140.636 364.500,150.000" stroke-width="2.884" stroke="black" fill="none" stroke-linecap="round"></path><path d="M 364.500,150.000 C 359.545,161.021 358.998,160.742 354.500,172.000" stroke-width="2.467" stroke="black" fill="none" stroke-linecap="round"></path><path d="M 354.500,172.000 C 350.678,179.372 351.045,179.521 347.500,187.000" stroke-width="2.865" stroke="black" fill="none" stroke-linecap="round"></path><path d="M 347.500,187.000 C 343.648,192.307 345.678,191.372 344.500,196.000" stroke-width="3.349" stroke="black" fill="none" stroke-linecap="round"></path><path d="M 344.500,196.000 C 347.261,200.518 345.148,198.807 350.500,200.000" stroke-width="4.146" stroke="black" fill="none" stroke-linecap="round"></path><path d="M 350.500,200.000 C 360.346,196.688 359.761,198.518 369.500,192.000" stroke-width="2.800" stroke="black" fill="none" stroke-linecap="round"></path><path d="M 369.500,192.000 C 380.335,185.203 380.846,186.188 391.500,179.000" stroke-width="2.389" stroke="black" fill="none" stroke-linecap="round"></path><path d="M 391.500,179.000 C 402.846,172.678 402.835,172.703 414.500,167.000" stroke-width="2.273" stroke="black" fill="none" stroke-linecap="round"></path><path d="M 414.500,167.000 C 422.248,162.652 422.346,163.178 430.500,160.000" stroke-width="2.602" stroke="black" fill="none" stroke-linecap="round"></path><path d="M 430.500,160.000 C 437.477,156.744 436.248,158.152 442.500,158.000" stroke-width="2.991" stroke="black" fill="none" stroke-linecap="round"></path><path d="M 442.500,158.000 C 446.283,160.534 445.477,158.744 446.500,164.000" stroke-width="3.982" stroke="black" fill="none" stroke-linecap="round"></path><path d="M 446.500,164.000 C 445.554,177.005 447.283,176.534 444.500,190.000" stroke-width="2.631" stroke="black" fill="none" stroke-linecap="round"></path><path d="M 444.500,190.000 C 442.281,196.122 444.054,195.505 443.500,201.000" stroke-width="3.132" stroke="black" fill="none" stroke-linecap="round"></path><path d="M 443.500,201.000 C 445.301,205.040 444.281,204.122 448.500,206.000" stroke-width="3.633" stroke="black" fill="none" stroke-linecap="round"></path><path d="M 448.500,206.000 C 456.248,208.336 455.301,208.040 463.500,207.000" stroke-width="3.087" stroke="black" fill="none" stroke-linecap="round"></path><path d="M 463.500,207.000 C 475.441,204.008 475.248,204.836 486.500,199.000" stroke-width="2.564" stroke="black" fill="none" stroke-linecap="round"></path><path d="M 486.500,199.000 C 501.617,191.211 501.941,192.008 516.500,183.000" stroke-width="1.977" stroke="black" fill="none" stroke-linecap="round"></path><path d="M 516.500,183.000 C 530.204,174.423 530.617,175.211 544.500,167.000" stroke-width="2.003" stroke="black" fill="none" stroke-linecap="round"></path><path d="M 544.500,167.000 C 556.267,160.893 556.204,160.923 568.500,156.000" stroke-width="2.085" stroke="black" fill="none" stroke-linecap="round"></path><path d="M 568.500,156.000 C 576.349,152.509 576.267,152.893 584.500,151.000" stroke-width="2.508" stroke="black" fill="none" stroke-linecap="round"></path><path d="M 584.500,151.000 C 591.909,148.435 589.849,150.009 595.500,151.000" stroke-width="3.034" stroke="black" fill="none" stroke-linecap="round"></path><path d="M 595.500,151.000 C 597.859,155.874 598.909,153.435 598.500,161.000" stroke-width="3.824" stroke="black" fill="none" stroke-linecap="round"></path><path d="M 598.500,161.000 C 598.500,168.000 599.359,167.874 598.500,175.000" stroke-width="3.275" stroke="black" fill="none" stroke-linecap="round"></path><path d="M 598.500,175.000 C 597.038,181.029 598.500,180.500 598.500,186.000" stroke-width="3.315" stroke="black" fill="none" stroke-linecap="round"></path><path d="M 598.500,186.000 C 600.081,190.803 599.538,189.529 603.500,192.000" stroke-width="3.718" stroke="black" fill="none" stroke-linecap="round"></path><path d="M 603.500,192.000 C 611.057,193.588 610.081,194.303 618.500,193.000" stroke-width="3.173" stroke="black" fill="none" stroke-linecap="round"></path><path d="M 618.500,193.000 C 630.169,191.720 630.057,192.088 641.500,189.000" stroke-width="2.496" stroke="black" fill="none" stroke-linecap="round"></path><path d="M 641.500,189.000 C 654.962,184.868 655.169,185.720 668.500,181.000" stroke-width="2.218" stroke="black" fill="none" stroke-linecap="round"></path><path d="M 668.500,181.000 C 679.414,177.626 679.462,177.868 690.500,175.000" stroke-width="2.288" stroke="black" fill="none" stroke-linecap="round"></path><path d="M 690.500,175.000 C 698.450,172.966 698.414,173.126 706.500,172.000" stroke-width="2.617" stroke="black" fill="none" stroke-linecap="round"></path><path d="M 706.500,172.000 C 712.800,170.200 710.950,171.466 715.500,172.000" stroke-width="3.279" stroke="black" fill="none" stroke-linecap="round"></path><path d="M 715.500,172.000 C 717.165,175.780 717.300,173.200 715.500,178.000" stroke-width="4.279" stroke="black" fill="none" stroke-linecap="round"></path><path d="M 715.500,178.000 C 710.134,184.019 711.165,183.780 703.500,188.000" stroke-width="3.305" stroke="black" fill="none" stroke-linecap="round"></path><path d="M 703.500,188.000 C 694.881,193.254 695.134,193.019 685.500,196.000" stroke-width="2.846" stroke="black" fill="none" stroke-linecap="round"></path><path d="M 685.500,196.000 C 674.090,198.864 674.381,199.254 662.500,200.000" stroke-width="2.556" stroke="black" fill="none" stroke-linecap="round"></path><path d="M 662.500,200.000 C 648.475,201.451 648.590,201.364 634.500,201.000" stroke-width="2.403" stroke="black" fill="none" stroke-linecap="round"></path><path d="M 634.500,201.000 C 617.429,200.087 617.475,200.451 600.500,198.000" stroke-width="2.003" stroke="black" fill="none" stroke-linecap="round"></path><path d="M 600.500,198.000 C 581.065,194.502 580.929,195.587 561.500,192.000" stroke-width="1.721" stroke="black" fill="none" stroke-linecap="round"></path><path d="M 561.500,192.000 C 538.051,188.923 538.065,189.002 514.500,187.000" stroke-width="1.599" stroke="black" fill="none" stroke-linecap="round"></path><path d="M 514.500,187.000 C 464.535,182.742 464.551,182.923 414.500,180.000" stroke-width="1.125" stroke="black" fill="none" stroke-linecap="round"></path><path d="M 414.500,180.000 C 391.499,179.529 391.535,178.742 368.500,179.000" stroke-width="1.299" stroke="black" fill="none" stroke-linecap="round"></path><path d="M 368.500,179.000 C 348.003,178.260 347.999,178.529 327.500,178.000" stroke-width="1.483" stroke="black" fill="none" stroke-linecap="round"></path><path d="M 327.500,178.000 C 308.500,178.000 308.503,177.760 289.500,178.000" stroke-width="1.696" stroke="black" fill="none" stroke-linecap="round"></path><path d="M 289.500,178.000 C 281.000,178.000 281.000,178.000 272.500,178.000" stroke-width="2.388" stroke="black" fill="none" stroke-linecap="round"></path></svg>