<svg xmlns="http://www.w3.org/2000/svg" xmlns:xlink="http://www.w3.org/1999/xlink" viewBox="0 0 1460 576" width="1460" height="576"><path d="M 569.000,247.000 C 575.809,243.996 576.000,245.000 583.000,243.000" stroke-width="5.251" stroke="black" fill="none" stroke-linecap="round"></path><path d="M 583.000,243.000 C 608.470,240.155 608.309,239.496 634.000,238.000" stroke-width="1.724" stroke="black" fill="none" stroke-linecap="round"></path><path d="M 634.000,238.000 C 685.442,232.969 685.470,233.655 737.000,230.000" stroke-width="1.125" stroke="black" fill="none" stroke-linecap="round"></path><path d="M 737.000,230.000 C 780.989,228.105 780.942,227.469 825.000,227.000" stroke-width="1.125" stroke="black" fill="none" stroke-linecap="round"></path><path d="M 825.000,227.000 C 900.600,226.884 900.489,225.105 976.000,224.000" stroke-width="1.125" stroke="black" fill="none" stroke-linecap="round"></path><path d="M 976.000,224.000 C 992.107,222.595 992.100,223.384 1008.000,220.000" stroke-width="1.508" stroke="black" fill="none" stroke-linecap="round"></path><path d="M 1008.000,220.000 C 1016.530,218.118 1016.607,218.595 1025.000,216.000" stroke-width="2.216" stroke="black" fill="none" stroke-linecap="round"></path><path d="M 1025.000,216.000 C 1032.472,213.882 1032.530,214.118 1040.000,212.000" stroke-width="2.678" stroke="black" fill="none" stroke-linecap="round"></path><path d="M 1040.000,212.000 C 1043.298,210.027 1042.472,211.382 1045.000,211.000" stroke-width="3.652" stroke="black" fill="none" stroke-linecap="round"></path></svg>