<svg xmlns="http://www.w3.org/2000/svg" xmlns:xlink="http://www.w3.org/1999/xlink" viewBox="0 0 453 236" width="453" height="236"><path d="M 117.500,139.000 C 113.765,138.507 114.000,138.000 110.500,137.000" stroke-width="5.288" stroke="black" fill="none" stroke-linecap="round"></path><path d="M 110.500,137.000 C 107.569,134.889 107.265,135.507 104.500,133.000" stroke-width="4.868" stroke="black" fill="none" stroke-linecap="round"></path><path d="M 104.500,133.000 C 100.931,131.111 101.069,130.889 97.500,129.000" stroke-width="4.619" stroke="black" fill="none" stroke-linecap="round"></path><path d="M 97.500,129.000 C 94.380,127.160 94.431,127.111 91.500,125.000" stroke-width="4.617" stroke="black" fill="none" stroke-linecap="round"></path><path d="M 91.500,125.000 C 88.755,122.072 88.380,122.660 85.500,120.000" stroke-width="4.587" stroke="black" fill="none" stroke-linecap="round"></path><path d="M 85.500,120.000 C 79.955,119.272 83.255,118.572 80.500,118.000" stroke-width="4.992" stroke="black" fill="none" stroke-linecap="round"></path><path d="M 80.500,118.000 C 84.533,115.550 81.455,115.772 88.500,113.000" stroke-width="5.130" stroke="black" fill="none" stroke-linecap="round"></path><path d="M 88.500,113.000 C 91.330,110.691 91.533,111.050 94.500,109.000" stroke-width="4.242" stroke="black" fill="none" stroke-linecap="round"></path><path d="M 94.500,109.000 C 99.211,107.383 98.830,106.691 103.500,105.000" stroke-width="3.742" stroke="black" fill="none" stroke-linecap="round"></path><path d="M 103.500,105.000 C 107.929,101.887 108.211,102.383 112.500,99.000" stroke-width="3.762" stroke="black" fill="none" stroke-linecap="round"></path><path d="M 112.500,99.000 C 117.571,96.113 117.429,95.887 122.500,93.000" stroke-width="3.454" stroke="black" fill="none" stroke-linecap="round"></path><path d="M 122.500,93.000 C 127.000,90.000 127.071,90.113 131.500,87.000" stroke-width="3.385" stroke="black" fill="none" stroke-linecap="round"></path><path d="M 131.500,87.000 C 136.044,84.064 136.000,84.000 140.500,81.000" stroke-width="3.422" stroke="black" fill="none" stroke-linecap="round"></path><path d="M 140.500,81.000 C 144.000,78.500 144.044,78.564 147.500,76.000" stroke-width="3.584" stroke="black" fill="none" stroke-linecap="round"></path><path d="M 147.500,76.000 C 151.093,73.621 151.000,73.500 154.500,71.000" stroke-width="3.688" stroke="black" fill="none" stroke-linecap="round"></path><path d="M 154.500,71.000 C 157.535,68.541 157.593,68.621 160.500,66.000" stroke-width="3.803" stroke="black" fill="none" stroke-linecap="round"></path><path d="M 160.500,66.000 C 164.584,62.590 164.535,62.541 168.500,59.000" stroke-width="4.108" stroke="black" fill="none" stroke-linecap="round"></path><path d="M 168.500,59.000 C 172.880,54.430 170.584,57.090 172.500,55.000" stroke-width="4.721" stroke="black" fill="none" stroke-linecap="round"></path><path d="M 172.500,55.000 C 169.218,58.293 171.880,55.930 166.500,62.000" stroke-width="4.904" stroke="black" fill="none" stroke-linecap="round"></path><path d="M 166.500,62.000 C 163.713,65.850 163.718,65.793 161.500,70.000" stroke-width="3.926" stroke="black" fill="none" stroke-linecap="round"></path><path d="M 161.500,70.000 C 160.278,73.642 159.713,73.350 158.500,77.000" stroke-width="3.845" stroke="black" fill="none" stroke-linecap="round"></path><path d="M 158.500,77.000 C 155.613,82.071 155.778,82.142 152.500,87.000" stroke-width="3.474" stroke="black" fill="none" stroke-linecap="round"></path><path d="M 152.500,87.000 C 149.812,91.741 149.613,91.571 146.500,96.000" stroke-width="3.391" stroke="black" fill="none" stroke-linecap="round"></path><path d="M 146.500,96.000 C 142.625,100.618 142.812,100.741 138.500,105.000" stroke-width="3.321" stroke="black" fill="none" stroke-linecap="round"></path><path d="M 138.500,105.000 C 134.618,109.125 134.625,109.118 130.500,113.000" stroke-width="3.360" stroke="black" fill="none" stroke-linecap="round"></path><path d="M 130.500,113.000 C 125.749,116.751 126.118,117.125 121.500,121.000" stroke-width="3.367" stroke="black" fill="none" stroke-linecap="round"></path><path d="M 121.500,121.000 C 118.133,125.125 117.749,124.751 114.500,129.000" stroke-width="3.314" stroke="black" fill="none" stroke-linecap="round"></path><path d="M 114.500,129.000 C 110.734,133.265 110.633,133.125 106.500,137.000" stroke-width="3.301" stroke="black" fill="none" stroke-linecap="round"></path><path d="M 106.500,137.000 C 101.899,140.377 102.234,140.765 97.500,144.000" stroke-width="3.347" stroke="black" fill="none" stroke-linecap="round"></path><path d="M 97.500,144.000 C 93.500,147.500 93.399,147.377 89.500,151.000" stroke-width="3.426" stroke="black" fill="none" stroke-linecap="round"></path><path d="M 89.500,151.000 C 85.500,154.500 85.500,154.500 81.500,158.000" stroke-width="3.393" stroke="black" fill="none" stroke-linecap="round"></path><path d="M 81.500,158.000 C 77.622,161.651 77.500,161.500 73.500,165.000" stroke-width="3.384" stroke="black" fill="none" stroke-linecap="round"></path><path d="M 73.500,165.000 C 69.532,168.043 69.622,168.151 65.500,171.000" stroke-width="3.438" stroke="black" fill="none" stroke-linecap="round"></path><path d="M 65.500,171.000 C 61.968,173.457 62.032,173.543 58.500,176.000" stroke-width="3.589" stroke="black" fill="none" stroke-linecap="round"></path><path d="M 58.500,176.000 C 54.567,179.095 54.468,178.957 50.500,182.000" stroke-width="3.556" stroke="black" fill="none" stroke-linecap="round"></path><path d="M 50.500,182.000 C 47.500,184.000 47.567,184.095 44.500,186.000" stroke-width="3.775" stroke="black" fill="none" stroke-linecap="round"></path><path d="M 44.500,186.000 C 41.608,188.187 41.500,188.000 38.500,190.000" stroke-width="3.846" stroke="black" fill="none" stroke-linecap="round"></path><path d="M 38.500,190.000 C 35.551,191.613 35.608,191.687 32.500,193.000" stroke-width="3.975" stroke="black" fill="none" stroke-linecap="round"></path><path d="M 32.500,193.000 C 30.068,194.230 30.051,194.113 27.500,195.000" stroke-width="4.136" stroke="black" fill="none" stroke-linecap="round"></path><path d="M 27.500,195.000 C 25.027,195.770 25.068,195.730 22.500,196.000" stroke-width="4.268" stroke="black" fill="none" stroke-linecap="round"></path><path d="M 22.500,196.000 C 18.356,197.650 19.527,196.270 16.500,196.000" stroke-width="4.601" stroke="black" fill="none" stroke-linecap="round"></path><path d="M 16.500,196.000 C 14.381,192.112 13.856,193.650 13.500,188.000" stroke-width="4.760" stroke="black" fill="none" stroke-linecap="round"></path><path d="M 13.500,188.000 C 12.839,184.864 12.881,185.112 13.500,182.000" stroke-width="4.322" stroke="black" fill="none" stroke-linecap="round"></path><path d="M 13.500,182.000 C 14.464,178.167 14.339,178.364 16.500,175.000" stroke-width="3.951" stroke="black" fill="none" stroke-linecap="round"></path><path d="M 16.500,175.000 C 19.366,171.376 18.964,171.167 22.500,168.000" stroke-width="3.733" stroke="black" fill="none" stroke-linecap="round"></path><path d="M 22.500,168.000 C 25.867,164.354 25.866,164.376 29.500,161.000" stroke-width="3.607" stroke="black" fill="none" stroke-linecap="round"></path><path d="M 29.500,161.000 C 32.355,158.306 32.367,158.354 35.500,156.000" stroke-width="3.726" stroke="black" fill="none" stroke-linecap="round"></path><path d="M 35.500,156.000 C 39.789,152.617 39.855,152.806 44.500,150.000" stroke-width="3.519" stroke="black" fill="none" stroke-linecap="round"></path><path d="M 44.500,150.000 C 48.851,147.550 48.789,147.617 53.500,146.000" stroke-width="3.549" stroke="black" fill="none" stroke-linecap="round"></path><path d="M 53.500,146.000 C 58.064,145.232 57.851,144.550 62.500,144.000" stroke-width="3.617" stroke="black" fill="none" stroke-linecap="round"></path><path d="M 62.500,144.000 C 66.887,141.971 67.064,142.732 71.500,141.000" stroke-width="3.557" stroke="black" fill="none" stroke-linecap="round"></path><path d="M 71.500,141.000 C 76.500,140.500 76.387,139.971 81.500,140.000" stroke-width="3.542" stroke="black" fill="none" stroke-linecap="round"></path><path d="M 81.500,140.000 C 86.537,139.745 86.500,139.500 91.500,139.000" stroke-width="3.537" stroke="black" fill="none" stroke-linecap="round"></path><path d="M 91.500,139.000 C 96.611,138.397 96.537,138.245 101.500,137.000" stroke-width="3.522" stroke="black" fill="none" stroke-linecap="round"></path><path d="M 101.500,137.000 C 106.950,134.850 107.111,135.397 112.500,133.000" stroke-width="3.386" stroke="black" fill="none" stroke-linecap="round"></path><path d="M 112.500,133.000 C 117.550,131.650 117.450,131.350 122.500,130.000" stroke-width="3.455" stroke="black" fill="none" stroke-linecap="round"></path><path d="M 122.500,130.000 C 128.180,128.394 128.050,128.150 133.500,126.000" stroke-width="3.367" stroke="black" fill="none" stroke-linecap="round"></path><path d="M 133.500,126.000 C 137.951,123.408 138.180,123.894 142.500,121.000" stroke-width="3.461" stroke="black" fill="none" stroke-linecap="round"></path><path d="M 142.500,121.000 C 146.565,119.119 146.451,118.908 150.500,117.000" stroke-width="3.563" stroke="black" fill="none" stroke-linecap="round"></path><path d="M 150.500,117.000 C 152.942,115.395 153.065,115.619 155.500,114.000" stroke-width="3.979" stroke="black" fill="none" stroke-linecap="round"></path><path d="M 155.500,114.000 C 161.956,111.684 158.442,112.395 161.500,111.000" stroke-width="4.456" stroke="black" fill="none" stroke-linecap="round"></path><path d="M 161.500,111.000 C 157.288,109.967 160.956,110.184 153.500,111.000" stroke-width="4.939" stroke="black" fill="none" stroke-linecap="round"></path><path d="M 153.500,111.000 C 146.287,113.607 146.288,112.967 139.500,117.000" stroke-width="4.151" stroke="black" fill="none" stroke-linecap="round"></path><path d="M 139.500,117.000 C 136.500,119.000 136.287,118.607 133.500,121.000" stroke-width="4.055" stroke="black" fill="none" stroke-linecap="round"></path><path d="M 133.500,121.000 C 130.380,122.840 130.500,123.000 127.500,125.000" stroke-width="3.929" stroke="black" fill="none" stroke-linecap="round"></path><path d="M 127.500,125.000 C 124.387,127.376 124.380,127.340 121.500,130.000" stroke-width="3.876" stroke="black" fill="none" stroke-linecap="round"></path><path d="M 121.500,130.000 C 116.500,132.638 118.887,132.376 116.500,135.000" stroke-width="4.376" stroke="black" fill="none" stroke-linecap="round"></path><path d="M 116.500,135.000 C 118.572,138.219 116.500,137.138 121.500,139.000" stroke-width="4.970" stroke="black" fill="none" stroke-linecap="round"></path><path d="M 121.500,139.000 C 126.500,139.000 126.072,140.219 131.500,139.000" stroke-width="4.470" stroke="black" fill="none" stroke-linecap="round"></path><path d="M 131.500,139.000 C 134.521,139.248 134.500,139.000 137.500,139.000" stroke-width="4.291" stroke="black" fill="none" stroke-linecap="round"></path><path d="M 137.500,139.000 C 140.500,138.500 140.521,138.748 143.500,138.000" stroke-width="4.138" stroke="black" fill="none" stroke-linecap="round"></path><path d="M 143.500,138.000 C 146.614,137.888 146.500,137.500 149.500,137.000" stroke-width="4.141" stroke="black" fill="none" stroke-linecap="round"></path><path d="M 149.500,137.000 C 154.000,136.500 153.114,135.888 156.500,134.000" stroke-width="4.449" stroke="black" fill="none" stroke-linecap="round"></path><path d="M 156.500,134.000 C 158.718,130.647 159.000,131.500 159.500,127.000" stroke-width="4.752" stroke="black" fill="none" stroke-linecap="round"></path><path d="M 159.500,127.000 C 160.485,123.202 160.218,123.647 159.500,120.000" stroke-width="4.673" stroke="black" fill="none" stroke-linecap="round"></path><path d="M 159.500,120.000 C 158.307,115.943 158.485,116.702 155.500,114.000" stroke-width="4.615" stroke="black" fill="none" stroke-linecap="round"></path><path d="M 155.500,114.000 C 151.103,111.863 151.807,111.443 146.500,111.000" stroke-width="4.440" stroke="black" fill="none" stroke-linecap="round"></path><path d="M 146.500,111.000 C 142.773,110.182 143.103,110.363 139.500,111.000" stroke-width="4.595" stroke="black" fill="none" stroke-linecap="round"></path><path d="M 139.500,111.000 C 136.389,111.902 136.773,111.682 134.500,114.000" stroke-width="4.764" stroke="black" fill="none" stroke-linecap="round"></path><path d="M 134.500,114.000 C 131.925,117.295 131.889,116.902 130.500,121.000" stroke-width="4.610" stroke="black" fill="none" stroke-linecap="round"></path><path d="M 130.500,121.000 C 129.716,123.976 129.425,123.795 129.500,127.000" stroke-width="4.707" stroke="black" fill="none" stroke-linecap="round"></path><path d="M 129.500,127.000 C 127.868,132.008 129.216,130.976 129.500,135.000" stroke-width="4.815" stroke="black" fill="none" stroke-linecap="round"></path><path d="M 129.500,135.000 C 132.308,137.149 130.868,137.508 135.500,138.000" stroke-width="4.732" stroke="black" fill="none" stroke-linecap="round"></path><path d="M 135.500,138.000 C 139.988,138.718 139.808,139.149 144.500,139.000" stroke-width="4.505" stroke="black" fill="none" stroke-linecap="round"></path><path d="M 144.500,139.000 C 148.057,139.459 147.988,139.218 151.500,139.000" stroke-width="4.074" stroke="black" fill="none" stroke-linecap="round"></path><path d="M 151.500,139.000 C 155.597,138.301 155.557,138.459 159.500,137.000" stroke-width="3.813" stroke="black" fill="none" stroke-linecap="round"></path><path d="M 159.500,137.000 C 164.885,135.672 164.597,135.301 169.500,133.000" stroke-width="3.486" stroke="black" fill="none" stroke-linecap="round"></path><path d="M 169.500,133.000 C 173.767,129.155 174.385,130.172 178.500,126.000" stroke-width="3.402" stroke="black" fill="none" stroke-linecap="round"></path><path d="M 178.500,126.000 C 184.689,122.790 184.267,122.155 190.500,119.000" stroke-width="3.181" stroke="black" fill="none" stroke-linecap="round"></path><path d="M 190.500,119.000 C 196.244,115.300 196.189,115.290 201.500,111.000" stroke-width="3.142" stroke="black" fill="none" stroke-linecap="round"></path><path d="M 201.500,111.000 C 206.876,105.857 207.244,106.300 212.500,101.000" stroke-width="3.042" stroke="black" fill="none" stroke-linecap="round"></path><path d="M 212.500,101.000 C 218.124,96.643 217.876,96.357 223.500,92.000" stroke-width="2.997" stroke="black" fill="none" stroke-linecap="round"></path><path d="M 223.500,92.000 C 229.113,87.118 229.124,87.143 234.500,82.000" stroke-width="3.000" stroke="black" fill="none" stroke-linecap="round"></path><path d="M 234.500,82.000 C 239.280,77.747 239.113,77.618 243.500,73.000" stroke-width="3.148" stroke="black" fill="none" stroke-linecap="round"></path><path d="M 243.500,73.000 C 247.000,68.500 247.280,68.747 250.500,64.000" stroke-width="3.298" stroke="black" fill="none" stroke-linecap="round"></path><path d="M 250.500,64.000 C 254.037,59.528 254.000,59.500 257.500,55.000" stroke-width="3.289" stroke="black" fill="none" stroke-linecap="round"></path><path d="M 257.500,55.000 C 260.595,51.067 260.537,51.028 263.500,47.000" stroke-width="3.462" stroke="black" fill="none" stroke-linecap="round"></path><path d="M 263.500,47.000 C 265.381,43.913 265.595,44.067 267.500,41.000" stroke-width="3.789" stroke="black" fill="none" stroke-linecap="round"></path><path d="M 267.500,41.000 C 269.870,38.716 269.381,38.413 271.500,36.000" stroke-width="3.992" stroke="black" fill="none" stroke-linecap="round"></path><path d="M 271.500,36.000 C 274.420,32.610 272.870,33.716 273.500,31.000" stroke-width="4.184" stroke="black" fill="none" stroke-linecap="round"></path><path d="M 273.500,31.000 C 270.309,28.398 272.420,29.110 267.500,29.000" stroke-width="4.797" stroke="black" fill="none" stroke-linecap="round"></path><path d="M 267.500,29.000 C 263.234,31.145 263.309,29.898 259.500,34.000" stroke-width="3.965" stroke="black" fill="none" stroke-linecap="round"></path><path d="M 259.500,34.000 C 254.975,37.972 254.734,37.645 250.500,42.000" stroke-width="3.585" stroke="black" fill="none" stroke-linecap="round"></path><path d="M 250.500,42.000 C 244.881,46.875 244.975,46.972 239.500,52.000" stroke-width="3.155" stroke="black" fill="none" stroke-linecap="round"></path><path d="M 239.500,52.000 C 234.375,56.881 234.381,56.875 229.500,62.000" stroke-width="3.095" stroke="black" fill="none" stroke-linecap="round"></path><path d="M 229.500,62.000 C 224.750,67.750 224.375,67.381 219.500,73.000" stroke-width="3.029" stroke="black" fill="none" stroke-linecap="round"></path><path d="M 219.500,73.000 C 213.612,77.632 214.250,78.250 208.500,83.000" stroke-width="3.065" stroke="black" fill="none" stroke-linecap="round"></path><path d="M 208.500,83.000 C 204.000,88.500 203.612,88.132 199.500,94.000" stroke-width="3.064" stroke="black" fill="none" stroke-linecap="round"></path><path d="M 199.500,94.000 C 194.902,99.424 195.000,99.500 190.500,105.000" stroke-width="3.119" stroke="black" fill="none" stroke-linecap="round"></path><path d="M 190.500,105.000 C 187.500,109.000 187.402,108.924 184.500,113.000" stroke-width="3.403" stroke="black" fill="none" stroke-linecap="round"></path><path d="M 184.500,113.000 C 181.405,116.933 181.500,117.000 178.500,121.000" stroke-width="3.499" stroke="black" fill="none" stroke-linecap="round"></path><path d="M 178.500,121.000 C 176.500,124.000 176.405,123.933 174.500,127.000" stroke-width="3.756" stroke="black" fill="none" stroke-linecap="round"></path><path d="M 174.500,127.000 C 172.217,129.851 172.500,130.000 170.500,133.000" stroke-width="3.889" stroke="black" fill="none" stroke-linecap="round"></path><path d="M 170.500,133.000 C 169.467,135.487 169.217,135.351 168.500,138.000" stroke-width="4.149" stroke="black" fill="none" stroke-linecap="round"></path><path d="M 168.500,138.000 C 166.753,141.929 166.967,141.987 165.500,146.000" stroke-width="4.386" stroke="black" fill="none" stroke-linecap="round"></path><path d="M 165.500,146.000 C 163.264,150.382 164.753,148.429 164.500,151.000" stroke-width="4.715" stroke="black" fill="none" stroke-linecap="round"></path><path d="M 164.500,151.000 C 168.291,150.604 166.264,151.882 171.500,149.000" stroke-width="4.965" stroke="black" fill="none" stroke-linecap="round"></path><path d="M 171.500,149.000 C 175.129,146.668 175.291,147.104 178.500,144.000" stroke-width="4.195" stroke="black" fill="none" stroke-linecap="round"></path><path d="M 178.500,144.000 C 186.935,136.918 187.129,137.168 195.500,130.000" stroke-width="2.800" stroke="black" fill="none" stroke-linecap="round"></path><path d="M 195.500,130.000 C 199.940,126.420 199.935,126.418 204.500,123.000" stroke-width="3.174" stroke="black" fill="none" stroke-linecap="round"></path><path d="M 204.500,123.000 C 211.887,117.329 211.940,117.420 219.500,112.000" stroke-width="3.530" stroke="black" fill="none" stroke-linecap="round"></path><path d="M 219.500,112.000 C 221.942,110.395 221.887,110.329 224.500,109.000" stroke-width="3.967" stroke="black" fill="none" stroke-linecap="round"></path><path d="M 224.500,109.000 C 230.500,104.722 227.442,107.395 230.500,106.000" stroke-width="4.437" stroke="black" fill="none" stroke-linecap="round"></path><path d="M 230.500,106.000 C 227.676,111.114 230.500,108.222 224.500,116.000" stroke-width="4.763" stroke="black" fill="none" stroke-linecap="round"></path><path d="M 224.500,116.000 C 220.727,120.837 221.176,121.114 217.500,126.000" stroke-width="3.541" stroke="black" fill="none" stroke-linecap="round"></path><path d="M 217.500,126.000 C 213.285,131.595 215.727,128.837 214.500,132.000" stroke-width="4.279" stroke="black" fill="none" stroke-linecap="round"></path><path d="M 214.500,132.000 C 219.100,130.200 216.285,132.595 223.500,128.000" stroke-width="4.575" stroke="black" fill="none" stroke-linecap="round"></path><path d="M 223.500,128.000 C 228.142,125.724 228.100,125.700 232.500,123.000" stroke-width="3.768" stroke="black" fill="none" stroke-linecap="round"></path><path d="M 232.500,123.000 C 236.060,120.580 236.142,120.724 239.500,118.000" stroke-width="3.795" stroke="black" fill="none" stroke-linecap="round"></path><path d="M 239.500,118.000 C 241.814,115.709 242.060,116.080 244.500,114.000" stroke-width="3.994" stroke="black" fill="none" stroke-linecap="round"></path><path d="M 244.500,114.000 C 251.018,109.965 247.314,112.209 250.500,111.000" stroke-width="3.972" stroke="black" fill="none" stroke-linecap="round"></path><path d="M 250.500,111.000 C 245.677,115.226 249.518,112.965 241.500,120.000" stroke-width="4.637" stroke="black" fill="none" stroke-linecap="round"></path><path d="M 241.500,120.000 C 238.948,123.464 238.677,123.226 236.500,127.000" stroke-width="3.906" stroke="black" fill="none" stroke-linecap="round"></path><path d="M 236.500,127.000 C 231.739,131.478 234.448,129.964 232.500,133.000" stroke-width="4.377" stroke="black" fill="none" stroke-linecap="round"></path><path d="M 232.500,133.000 C 236.356,134.223 233.239,134.478 239.500,133.000" stroke-width="4.523" stroke="black" fill="none" stroke-linecap="round"></path><path d="M 239.500,133.000 C 245.165,129.734 245.356,130.723 250.500,126.000" stroke-width="3.494" stroke="black" fill="none" stroke-linecap="round"></path><path d="M 250.500,126.000 C 254.881,122.336 255.165,122.734 259.500,119.000" stroke-width="3.345" stroke="black" fill="none" stroke-linecap="round"></path><path d="M 259.500,119.000 C 264.103,116.141 263.881,115.836 268.500,113.000" stroke-width="3.461" stroke="black" fill="none" stroke-linecap="round"></path><path d="M 268.500,113.000 C 273.705,108.385 271.103,111.141 273.500,109.000" stroke-width="3.876" stroke="black" fill="none" stroke-linecap="round"></path><path d="M 273.500,109.000 C 270.306,112.353 273.205,109.885 267.500,116.000" stroke-width="4.688" stroke="black" fill="none" stroke-linecap="round"></path><path d="M 267.500,116.000 C 265.660,119.120 265.306,118.853 263.500,122.000" stroke-width="4.197" stroke="black" fill="none" stroke-linecap="round"></path><path d="M 263.500,122.000 C 260.790,124.851 261.160,125.120 258.500,128.000" stroke-width="3.896" stroke="black" fill="none" stroke-linecap="round"></path><path d="M 258.500,128.000 C 256.801,130.398 256.790,130.351 255.500,133.000" stroke-width="4.206" stroke="black" fill="none" stroke-linecap="round"></path><path d="M 255.500,133.000 C 253.698,136.406 253.801,136.398 252.500,140.000" stroke-width="4.437" stroke="black" fill="none" stroke-linecap="round"></path><path d="M 252.500,140.000 C 250.297,143.396 251.698,142.406 251.500,145.000" stroke-width="4.733" stroke="black" fill="none" stroke-linecap="round"></path><path d="M 251.500,145.000 C 254.949,147.727 253.297,147.396 258.500,148.000" stroke-width="5.063" stroke="black" fill="none" stroke-linecap="round"></path><path d="M 258.500,148.000 C 261.746,147.483 261.449,148.227 264.500,146.000" stroke-width="4.348" stroke="black" fill="none" stroke-linecap="round"></path><path d="M 264.500,146.000 C 267.956,143.436 268.246,143.983 271.500,141.000" stroke-width="3.900" stroke="black" fill="none" stroke-linecap="round"></path><path d="M 271.500,141.000 C 276.288,138.369 275.956,137.936 280.500,135.000" stroke-width="3.503" stroke="black" fill="none" stroke-linecap="round"></path><path d="M 280.500,135.000 C 285.876,129.857 286.288,130.369 291.500,125.000" stroke-width="3.196" stroke="black" fill="none" stroke-linecap="round"></path><path d="M 291.500,125.000 C 297.248,120.774 296.876,120.357 302.500,116.000" stroke-width="3.102" stroke="black" fill="none" stroke-linecap="round"></path><path d="M 302.500,116.000 C 308.000,110.500 308.248,110.774 313.500,105.000" stroke-width="2.923" stroke="black" fill="none" stroke-linecap="round"></path><path d="M 313.500,105.000 C 318.369,99.861 318.500,100.000 323.500,95.000" stroke-width="2.967" stroke="black" fill="none" stroke-linecap="round"></path><path d="M 323.500,95.000 C 328.391,91.366 327.869,90.861 332.500,87.000" stroke-width="3.285" stroke="black" fill="none" stroke-linecap="round"></path><path d="M 332.500,87.000 C 335.968,82.474 336.391,82.866 339.500,78.000" stroke-width="3.285" stroke="black" fill="none" stroke-linecap="round"></path><path d="M 339.500,78.000 C 343.705,73.150 343.468,72.974 347.500,68.000" stroke-width="3.171" stroke="black" fill="none" stroke-linecap="round"></path><path d="M 347.500,68.000 C 350.222,63.287 350.705,63.650 353.500,59.000" stroke-width="3.403" stroke="black" fill="none" stroke-linecap="round"></path><path d="M 353.500,59.000 C 357.400,55.292 356.722,54.787 360.500,51.000" stroke-width="3.387" stroke="black" fill="none" stroke-linecap="round"></path><path d="M 360.500,51.000 C 363.270,45.845 363.900,46.292 366.500,41.000" stroke-width="3.351" stroke="black" fill="none" stroke-linecap="round"></path><path d="M 366.500,41.000 C 369.732,37.152 369.270,36.845 372.500,33.000" stroke-width="3.428" stroke="black" fill="none" stroke-linecap="round"></path><path d="M 372.500,33.000 C 374.323,29.387 374.732,29.652 376.500,26.000" stroke-width="3.641" stroke="black" fill="none" stroke-linecap="round"></path><path d="M 376.500,26.000 C 379.253,22.652 378.823,22.387 381.500,19.000" stroke-width="3.706" stroke="black" fill="none" stroke-linecap="round"></path><path d="M 381.500,19.000 C 383.213,16.088 383.253,16.152 384.500,13.000" stroke-width="3.972" stroke="black" fill="none" stroke-linecap="round"></path><path d="M 384.500,13.000 C 388.102,7.000 385.713,10.088 386.500,7.000" stroke-width="4.468" stroke="black" fill="none" stroke-linecap="round"></path><path d="M 386.500,7.000 C 379.800,9.094 383.102,7.000 374.500,13.000" stroke-width="4.567" stroke="black" fill="none" stroke-linecap="round"></path><path d="M 374.500,13.000 C 370.923,16.935 370.300,16.094 367.500,21.000" stroke-width="4.366" stroke="black" fill="none" stroke-linecap="round"></path><path d="M 367.500,21.000 C 363.277,26.745 362.923,26.435 358.500,32.000" stroke-width="3.494" stroke="black" fill="none" stroke-linecap="round"></path><path d="M 358.500,32.000 C 347.922,42.927 348.277,43.245 337.500,54.000" stroke-width="2.378" stroke="black" fill="none" stroke-linecap="round"></path><path d="M 337.500,54.000 C 332.119,60.114 331.922,59.927 326.500,66.000" stroke-width="2.651" stroke="black" fill="none" stroke-linecap="round"></path><path d="M 326.500,66.000 C 321.206,70.740 321.619,71.114 316.500,76.000" stroke-width="2.877" stroke="black" fill="none" stroke-linecap="round"></path><path d="M 316.500,76.000 C 312.836,80.381 312.706,80.240 309.500,85.000" stroke-width="3.151" stroke="black" fill="none" stroke-linecap="round"></path><path d="M 309.500,85.000 C 306.205,89.329 306.336,89.381 303.500,94.000" stroke-width="3.396" stroke="black" fill="none" stroke-linecap="round"></path><path d="M 303.500,94.000 C 301.212,99.119 300.705,98.829 298.500,104.000" stroke-width="3.394" stroke="black" fill="none" stroke-linecap="round"></path><path d="M 298.500,104.000 C 296.170,108.117 296.212,108.119 293.500,112.000" stroke-width="3.494" stroke="black" fill="none" stroke-linecap="round"></path><path d="M 293.500,112.000 C 290.622,116.098 290.670,116.117 287.500,120.000" stroke-width="3.471" stroke="black" fill="none" stroke-linecap="round"></path><path d="M 287.500,120.000 C 284.306,123.353 284.622,123.598 281.500,127.000" stroke-width="3.539" stroke="black" fill="none" stroke-linecap="round"></path><path d="M 281.500,127.000 C 279.884,130.352 279.306,129.853 277.500,133.000" stroke-width="3.899" stroke="black" fill="none" stroke-linecap="round"></path><path d="M 277.500,133.000 C 274.750,134.750 275.384,135.352 272.500,137.000" stroke-width="4.028" stroke="black" fill="none" stroke-linecap="round"></path><path d="M 272.500,137.000 C 270.624,139.611 270.250,139.250 268.500,142.000" stroke-width="4.021" stroke="black" fill="none" stroke-linecap="round"></path><path d="M 268.500,142.000 C 266.037,143.695 266.624,144.111 264.500,146.000" stroke-width="4.159" stroke="black" fill="none" stroke-linecap="round"></path><path d="M 264.500,146.000 C 261.410,151.000 263.037,148.195 262.500,151.000" stroke-width="4.647" stroke="black" fill="none" stroke-linecap="round"></path><path d="M 262.500,151.000 C 266.617,148.670 264.410,151.000 270.500,146.000" stroke-width="4.927" stroke="black" fill="none" stroke-linecap="round"></path><path d="M 270.500,146.000 C 274.405,142.866 274.617,143.170 278.500,140.000" stroke-width="3.868" stroke="black" fill="none" stroke-linecap="round"></path><path d="M 278.500,140.000 C 284.460,135.939 284.405,135.866 290.500,132.000" stroke-width="3.314" stroke="black" fill="none" stroke-linecap="round"></path><path d="M 290.500,132.000 C 295.957,128.431 295.960,128.439 301.500,125.000" stroke-width="3.222" stroke="black" fill="none" stroke-linecap="round"></path><path d="M 301.500,125.000 C 306.301,121.599 306.457,121.931 311.500,119.000" stroke-width="3.182" stroke="black" fill="none" stroke-linecap="round"></path><path d="M 311.500,119.000 C 316.348,116.472 316.301,116.599 321.500,115.000" stroke-width="3.360" stroke="black" fill="none" stroke-linecap="round"></path><path d="M 321.500,115.000 C 326.965,113.615 326.848,113.472 332.500,113.000" stroke-width="3.383" stroke="black" fill="none" stroke-linecap="round"></path><path d="M 332.500,113.000 C 336.000,113.000 335.965,112.615 339.500,113.000" stroke-width="3.824" stroke="black" fill="none" stroke-linecap="round"></path><path d="M 339.500,113.000 C 342.727,112.147 342.500,113.000 345.500,113.000" stroke-width="4.007" stroke="black" fill="none" stroke-linecap="round"></path><path d="M 345.500,113.000 C 350.493,114.133 349.227,114.147 352.500,117.000" stroke-width="4.370" stroke="black" fill="none" stroke-linecap="round"></path><path d="M 352.500,117.000 C 353.303,120.190 353.993,119.133 352.500,123.000" stroke-width="4.219" stroke="black" fill="none" stroke-linecap="round"></path><path d="M 352.500,123.000 C 351.212,127.513 351.303,127.190 348.500,131.000" stroke-width="3.885" stroke="black" fill="none" stroke-linecap="round"></path><path d="M 348.500,131.000 C 344.013,136.636 344.212,136.513 338.500,141.000" stroke-width="3.277" stroke="black" fill="none" stroke-linecap="round"></path><path d="M 338.500,141.000 C 331.594,145.652 332.013,146.136 324.500,150.000" stroke-width="2.960" stroke="black" fill="none" stroke-linecap="round"></path><path d="M 324.500,150.000 C 316.213,155.402 316.094,155.152 307.500,160.000" stroke-width="2.701" stroke="black" fill="none" stroke-linecap="round"></path><path d="M 307.500,160.000 C 298.076,164.668 298.213,164.902 288.500,169.000" stroke-width="2.626" stroke="black" fill="none" stroke-linecap="round"></path><path d="M 288.500,169.000 C 277.122,174.302 277.076,174.168 265.500,179.000" stroke-width="2.305" stroke="black" fill="none" stroke-linecap="round"></path><path d="M 265.500,179.000 C 253.652,183.949 253.622,183.802 241.500,188.000" stroke-width="2.203" stroke="black" fill="none" stroke-linecap="round"></path><path d="M 241.500,188.000 C 226.645,193.073 226.652,192.949 211.500,197.000" stroke-width="2.041" stroke="black" fill="none" stroke-linecap="round"></path><path d="M 211.500,197.000 C 199.581,199.987 199.645,200.073 187.500,202.000" stroke-width="2.268" stroke="black" fill="none" stroke-linecap="round"></path><path d="M 187.500,202.000 C 175.547,204.247 175.581,203.987 163.500,205.000" stroke-width="2.305" stroke="black" fill="none" stroke-linecap="round"></path><path d="M 163.500,205.000 C 151.494,205.255 151.547,205.747 139.500,205.000" stroke-width="2.266" stroke="black" fill="none" stroke-linecap="round"></path><path d="M 139.500,205.000 C 127.790,205.796 127.994,204.755 116.500,204.000" stroke-width="2.294" stroke="black" fill="none" stroke-linecap="round"></path><path d="M 116.500,204.000 C 105.714,201.763 105.790,202.296 95.500,198.000" stroke-width="2.511" stroke="black" fill="none" stroke-linecap="round"></path><path d="M 95.500,198.000 C 86.956,194.091 86.714,194.763 78.500,190.000" stroke-width="2.501" stroke="black" fill="none" stroke-linecap="round"></path><path d="M 78.500,190.000 C 71.007,187.254 71.456,186.591 64.500,183.000" stroke-width="2.836" stroke="black" fill="none" stroke-linecap="round"></path><path d="M 64.500,183.000 C 57.845,178.613 58.007,178.754 52.500,173.000" stroke-width="2.957" stroke="black" fill="none" stroke-linecap="round"></path><path d="M 52.500,173.000 C 47.089,168.119 47.845,168.113 44.500,162.000" stroke-width="3.072" stroke="black" fill="none" stroke-linecap="round"></path><path d="M 44.500,162.000 C 41.048,154.527 41.589,155.119 41.500,147.000" stroke-width="3.152" stroke="black" fill="none" stroke-linecap="round"></path><path d="M 41.500,147.000 C 41.907,128.468 42.548,129.527 47.500,112.000" stroke-width="2.085" stroke="black" fill="none" stroke-linecap="round"></path><path d="M 47.500,112.000 C 52.402,102.044 50.907,101.968 59.500,94.000" stroke-width="2.291" stroke="black" fill="none" stroke-linecap="round"></path><path d="M 59.500,94.000 C 67.897,85.202 67.402,85.044 77.500,78.000" stroke-width="2.316" stroke="black" fill="none" stroke-linecap="round"></path><path d="M 77.500,78.000 C 87.816,69.617 87.897,70.202 99.500,64.000" stroke-width="2.189" stroke="black" fill="none" stroke-linecap="round"></path><path d="M 99.500,64.000 C 114.177,57.378 113.816,57.117 129.500,53.000" stroke-width="1.961" stroke="black" fill="none" stroke-linecap="round"></path><path d="M 129.500,53.000 C 145.944,49.212 145.677,48.378 162.500,46.000" stroke-width="1.907" stroke="black" fill="none" stroke-linecap="round"></path><path d="M 162.500,46.000 C 179.455,42.717 179.444,42.712 196.500,40.000" stroke-width="1.871" stroke="black" fill="none" stroke-linecap="round"></path><path d="M 196.500,40.000 C 213.886,36.163 213.955,37.217 231.500,35.000" stroke-width="1.786" stroke="black" fill="none" stroke-linecap="round"></path><path d="M 231.500,35.000 C 266.996,33.747 266.886,32.663 302.500,33.000" stroke-width="1.785" stroke="black" fill="none" stroke-linecap="round"></path><path d="M 302.500,33.000 C 314.853,30.903 314.496,32.747 326.500,33.000" stroke-width="2.136" stroke="black" fill="none" stroke-linecap="round"></path><path d="M 326.500,33.000 C 342.428,35.415 339.853,35.403 352.500,42.000" stroke-width="2.713" stroke="black" fill="none" stroke-linecap="round"></path><path d="M 352.500,42.000 C 354.837,47.143 355.428,43.915 352.500,50.000" stroke-width="3.364" stroke="black" fill="none" stroke-linecap="round"></path><path d="M 352.500,50.000 C 344.551,58.768 345.837,58.143 334.500,64.000" stroke-width="3.366" stroke="black" fill="none" stroke-linecap="round"></path><path d="M 334.500,64.000 C 307.717,78.281 308.051,77.768 279.500,88.000" stroke-width="1.470" stroke="black" fill="none" stroke-linecap="round"></path><path d="M 279.500,88.000 C 262.169,92.851 262.717,93.781 244.500,95.000" stroke-width="1.650" stroke="black" fill="none" stroke-linecap="round"></path><path d="M 244.500,95.000 C 225.013,96.506 225.169,97.351 205.500,97.000" stroke-width="2.205" stroke="black" fill="none" stroke-linecap="round"></path><path d="M 205.500,97.000 C 185.500,97.000 185.513,97.506 165.500,97.000" stroke-width="1.807" stroke="black" fill="none" stroke-linecap="round"></path><path d="M 165.500,97.000 C 146.996,97.264 147.000,97.000 128.500,97.000" stroke-width="1.782" stroke="black" fill="none" stroke-linecap="round"></path><path d="M 128.500,97.000 C 111.846,97.751 111.996,96.764 95.500,96.000" stroke-width="2.085" stroke="black" fill="none" stroke-linecap="round"></path><path d="M 338.500,159.000 C 341.484,160.000 341.500,159.500 344.500,160.000" stroke-width="5.129" stroke="black" fill="none" stroke-linecap="round"></path><path d="M 344.500,160.000 C 349.630,160.107 349.484,160.000 354.500,159.000" stroke-width="3.899" stroke="black" fill="none" stroke-linecap="round"></path><path d="M 354.500,159.000 C 360.602,157.268 360.630,157.607 366.500,155.000" stroke-width="3.401" stroke="black" fill="none" stroke-linecap="round"></path><path d="M 366.500,155.000 C 373.699,152.400 373.602,152.268 380.500,149.000" stroke-width="3.145" stroke="black" fill="none" stroke-linecap="round"></path><path d="M 380.500,149.000 C 387.257,144.487 387.699,145.400 394.500,141.000" stroke-width="2.897" stroke="black" fill="none" stroke-linecap="round"></path><path d="M 394.500,141.000 C 400.992,138.479 400.757,137.987 407.500,136.000" stroke-width="3.031" stroke="black" fill="none" stroke-linecap="round"></path><path d="M 407.500,136.000 C 412.231,132.406 411.492,134.479 415.500,133.000" stroke-width="3.450" stroke="black" fill="none" stroke-linecap="round"></path><path d="M 415.500,133.000 C 419.627,135.887 417.731,133.406 418.500,138.000" stroke-width="4.329" stroke="black" fill="none" stroke-linecap="round"></path><path d="M 418.500,138.000 C 413.159,143.189 415.627,143.387 407.500,148.000" stroke-width="3.372" stroke="black" fill="none" stroke-linecap="round"></path><path d="M 407.500,148.000 C 402.654,151.142 403.159,151.689 398.500,155.000" stroke-width="3.517" stroke="black" fill="none" stroke-linecap="round"></path><path d="M 398.500,155.000 C 395.311,157.636 395.654,157.642 393.500,161.000" stroke-width="3.746" stroke="black" fill="none" stroke-linecap="round"></path><path d="M 393.500,161.000 C 390.404,166.081 391.811,164.136 391.500,168.000" stroke-width="4.295" stroke="black" fill="none" stroke-linecap="round"></path><path d="M 391.500,168.000 C 394.500,168.000 392.404,169.581 397.500,168.000" stroke-width="4.198" stroke="black" fill="none" stroke-linecap="round"></path><path d="M 397.500,168.000 C 405.129,168.983 405.000,168.000 412.500,168.000" stroke-width="3.271" stroke="black" fill="none" stroke-linecap="round"></path><path d="M 412.500,168.000 C 420.005,166.018 420.129,166.983 427.500,164.000" stroke-width="2.968" stroke="black" fill="none" stroke-linecap="round"></path><path d="M 427.500,164.000 C 432.928,162.161 433.005,162.518 438.500,161.000" stroke-width="3.183" stroke="black" fill="none" stroke-linecap="round"></path><path d="M 438.500,161.000 C 449.549,159.976 444.928,159.661 451.500,159.000" stroke-width="3.706" stroke="black" fill="none" stroke-linecap="round"></path><path d="M 451.500,159.000 C 448.025,158.147 452.549,158.476 444.500,158.000" stroke-width="4.491" stroke="black" fill="none" stroke-linecap="round"></path><path d="M 444.500,158.000 C 436.000,158.000 436.025,157.647 427.500,158.000" stroke-width="3.168" stroke="black" fill="none" stroke-linecap="round"></path><path d="M 427.500,158.000 C 416.995,157.767 417.000,158.000 406.500,158.000" stroke-width="2.682" stroke="black" fill="none" stroke-linecap="round"></path><path d="M 406.500,158.000 C 394.501,158.520 394.495,158.267 382.500,159.000" stroke-width="2.363" stroke="black" fill="none" stroke-linecap="round"></path><path d="M 382.500,159.000 C 369.500,159.509 369.501,159.520 356.500,160.000" stroke-width="2.263" stroke="black" fill="none" stroke-linecap="round"></path><path d="M 356.500,160.000 C 342.984,160.222 343.000,160.509 329.500,161.000" stroke-width="2.141" stroke="black" fill="none" stroke-linecap="round"></path><path d="M 329.500,161.000 C 316.995,161.937 316.984,161.722 304.500,163.000" stroke-width="2.283" stroke="black" fill="none" stroke-linecap="round"></path><path d="M 304.500,163.000 C 293.365,163.238 293.495,163.937 282.500,165.000" stroke-width="2.338" stroke="black" fill="none" stroke-linecap="round"></path></svg>