<svg xmlns="http://www.w3.org/2000/svg" xmlns:xlink="http://www.w3.org/1999/xlink" viewBox="0 0 1460 576" width="1460" height="576"><path d="M 791.000,319.000 C 785.969,320.403 786.000,320.500 781.000,322.000" stroke-width="2.536" stroke="black" fill="none" stroke-linecap="round"></path><path d="M 781.000,322.000 C 772.286,326.312 771.969,324.903 763.000,328.000" stroke-width="2.562" stroke="black" fill="none" stroke-linecap="round"></path><path d="M 763.000,328.000 C 744.021,334.310 744.786,331.312 726.000,332.000" stroke-width="1.883" stroke="black" fill="none" stroke-linecap="round"></path><path d="M 726.000,332.000 C 702.631,328.775 705.021,329.310 685.000,318.000" stroke-width="2.158" stroke="black" fill="none" stroke-linecap="round"></path><path d="M 685.000,318.000 C 674.624,309.699 675.631,312.275 672.000,299.000" stroke-width="2.734" stroke="black" fill="none" stroke-linecap="round"></path><path d="M 672.000,299.000 C 666.494,280.082 668.124,283.199 672.000,265.000" stroke-width="2.345" stroke="black" fill="none" stroke-linecap="round"></path><path d="M 672.000,265.000 C 679.055,244.561 677.994,248.582 695.000,236.000" stroke-width="1.851" stroke="black" fill="none" stroke-linecap="round"></path><path d="M 695.000,236.000 C 756.882,201.775 753.555,204.561 821.000,185.000" stroke-width="1.125" stroke="black" fill="none" stroke-linecap="round"></path><path d="M 821.000,185.000 C 845.675,183.143 842.882,179.275 867.000,191.000" stroke-width="1.412" stroke="black" fill="none" stroke-linecap="round"></path><path d="M 867.000,191.000 C 892.608,204.141 893.175,200.643 916.000,220.000" stroke-width="1.283" stroke="black" fill="none" stroke-linecap="round"></path><path d="M 916.000,220.000 C 922.976,224.419 922.108,224.141 926.000,231.000" stroke-width="2.076" stroke="black" fill="none" stroke-linecap="round"></path><path d="M 926.000,231.000 C 936.720,245.164 931.476,242.919 933.000,257.000" stroke-width="2.291" stroke="black" fill="none" stroke-linecap="round"></path><path d="M 933.000,257.000 C 920.840,280.930 925.720,280.164 904.000,301.000" stroke-width="1.503" stroke="black" fill="none" stroke-linecap="round"></path><path d="M 904.000,301.000 C 886.238,328.659 884.340,324.430 860.000,344.000" stroke-width="1.488" stroke="black" fill="none" stroke-linecap="round"></path><path d="M 860.000,344.000 C 790.992,377.871 794.738,382.159 721.000,408.000" stroke-width="1.125" stroke="black" fill="none" stroke-linecap="round"></path><path d="M 721.000,408.000 C 714.852,409.732 715.492,410.371 709.000,409.000" stroke-width="1.580" stroke="black" fill="none" stroke-linecap="round"></path><path d="M 709.000,409.000 C 701.283,409.079 702.852,408.232 697.000,405.000" stroke-width="2.458" stroke="black" fill="none" stroke-linecap="round"></path></svg>