<svg xmlns="http://www.w3.org/2000/svg" xmlns:xlink="http://www.w3.org/1999/xlink" viewBox="0 0 692 576" width="692" height="576"><path d="M 351.000,317.000 C 342.247,321.681 342.000,321.000 333.000,325.000" stroke-width="4.127" stroke="black" fill="none" stroke-linecap="round"></path><path d="M 333.000,325.000 C 322.561,328.234 322.747,328.681 312.000,331.000" stroke-width="2.801" stroke="black" fill="none" stroke-linecap="round"></path><path d="M 312.000,331.000 C 301.629,334.601 301.561,333.734 291.000,336.000" stroke-width="2.503" stroke="black" fill="none" stroke-linecap="round"></path><path d="M 291.000,336.000 C 282.291,337.184 282.629,337.101 274.000,336.000" stroke-width="2.712" stroke="black" fill="none" stroke-linecap="round"></path><path d="M 274.000,336.000 C 266.757,336.160 268.291,335.184 263.000,332.000" stroke-width="3.165" stroke="black" fill="none" stroke-linecap="round"></path><path d="M 263.000,332.000 C 252.938,319.191 252.757,320.660 246.000,305.000" stroke-width="2.208" stroke="black" fill="none" stroke-linecap="round"></path><path d="M 246.000,305.000 C 240.630,296.070 241.938,296.691 241.000,287.000" stroke-width="2.466" stroke="black" fill="none" stroke-linecap="round"></path><path d="M 241.000,287.000 C 243.129,270.960 241.630,271.570 248.000,256.000" stroke-width="2.027" stroke="black" fill="none" stroke-linecap="round"></path><path d="M 248.000,256.000 C 249.262,247.507 250.129,249.460 255.000,244.000" stroke-width="2.673" stroke="black" fill="none" stroke-linecap="round"></path><path d="M 255.000,244.000 C 277.529,230.137 276.262,231.007 302.000,223.000" stroke-width="1.630" stroke="black" fill="none" stroke-linecap="round"></path><path d="M 302.000,223.000 C 326.472,216.897 325.529,216.137 351.000,216.000" stroke-width="1.391" stroke="black" fill="none" stroke-linecap="round"></path><path d="M 351.000,216.000 C 367.545,217.696 367.472,215.397 384.000,220.000" stroke-width="1.670" stroke="black" fill="none" stroke-linecap="round"></path><path d="M 384.000,220.000 C 392.673,220.918 392.545,221.196 401.000,223.000" stroke-width="2.362" stroke="black" fill="none" stroke-linecap="round"></path><path d="M 401.000,223.000 C 405.071,223.657 404.673,223.918 408.000,226.000" stroke-width="3.219" stroke="black" fill="none" stroke-linecap="round"></path><path d="M 408.000,226.000 C 416.536,231.312 415.071,231.657 421.000,239.000" stroke-width="2.839" stroke="black" fill="none" stroke-linecap="round"></path><path d="M 421.000,239.000 C 426.825,247.924 425.536,246.812 426.000,257.000" stroke-width="2.664" stroke="black" fill="none" stroke-linecap="round"></path><path d="M 426.000,257.000 C 421.310,281.244 423.825,280.924 415.000,305.000" stroke-width="1.673" stroke="black" fill="none" stroke-linecap="round"></path><path d="M 415.000,305.000 C 413.246,313.619 412.810,313.244 409.000,321.000" stroke-width="2.332" stroke="black" fill="none" stroke-linecap="round"></path><path d="M 409.000,321.000 C 392.845,351.150 392.246,350.119 373.000,378.000" stroke-width="1.286" stroke="black" fill="none" stroke-linecap="round"></path><path d="M 373.000,378.000 C 365.899,384.559 367.345,385.650 358.000,390.000" stroke-width="2.039" stroke="black" fill="none" stroke-linecap="round"></path><path d="M 358.000,390.000 C 343.879,401.695 343.399,400.059 328.000,409.000" stroke-width="1.826" stroke="black" fill="none" stroke-linecap="round"></path><path d="M 328.000,409.000 C 317.651,413.603 318.879,413.195 308.000,413.000" stroke-width="2.235" stroke="black" fill="none" stroke-linecap="round"></path><path d="M 308.000,413.000 C 301.219,411.112 301.651,412.603 296.000,407.000" stroke-width="2.846" stroke="black" fill="none" stroke-linecap="round"></path><path d="M 296.000,407.000 C 281.658,399.440 284.719,398.112 275.000,387.000" stroke-width="2.196" stroke="black" fill="none" stroke-linecap="round"></path><path d="M 275.000,387.000 C 264.823,361.855 262.658,363.940 258.000,336.000" stroke-width="1.528" stroke="black" fill="none" stroke-linecap="round"></path><path d="M 258.000,336.000 C 255.812,325.506 255.323,325.855 256.000,315.000" stroke-width="2.104" stroke="black" fill="none" stroke-linecap="round"></path><path d="M 256.000,315.000 C 252.821,295.791 256.312,297.506 259.000,280.000" stroke-width="1.851" stroke="black" fill="none" stroke-linecap="round"></path><path d="M 259.000,280.000 C 267.252,258.868 266.321,261.291 283.000,246.000" stroke-width="1.692" stroke="black" fill="none" stroke-linecap="round"></path><path d="M 283.000,246.000 C 310.805,226.457 308.252,225.368 341.000,213.000" stroke-width="1.218" stroke="black" fill="none" stroke-linecap="round"></path><path d="M 341.000,213.000 C 357.714,206.710 356.805,205.957 375.000,205.000" stroke-width="1.634" stroke="black" fill="none" stroke-linecap="round"></path><path d="M 375.000,205.000 C 403.731,202.297 403.214,202.210 432.000,204.000" stroke-width="1.331" stroke="black" fill="none" stroke-linecap="round"></path><path d="M 432.000,204.000 C 445.357,206.007 445.231,204.797 458.000,210.000" stroke-width="1.834" stroke="black" fill="none" stroke-linecap="round"></path><path d="M 458.000,210.000 C 466.213,210.850 464.357,212.007 470.000,216.000" stroke-width="2.549" stroke="black" fill="none" stroke-linecap="round"></path><path d="M 470.000,216.000 C 479.958,229.297 478.713,227.850 483.000,244.000" stroke-width="2.136" stroke="black" fill="none" stroke-linecap="round"></path><path d="M 483.000,244.000 C 484.261,259.304 485.958,258.297 482.000,274.000" stroke-width="2.063" stroke="black" fill="none" stroke-linecap="round"></path><path d="M 482.000,274.000 C 480.838,286.271 480.261,285.304 475.000,296.000" stroke-width="2.225" stroke="black" fill="none" stroke-linecap="round"></path><path d="M 475.000,296.000 C 464.970,311.528 465.838,311.271 452.000,324.000" stroke-width="1.848" stroke="black" fill="none" stroke-linecap="round"></path><path d="M 452.000,324.000 C 439.264,338.463 438.970,336.528 423.000,346.000" stroke-width="1.857" stroke="black" fill="none" stroke-linecap="round"></path><path d="M 423.000,346.000 C 396.966,356.666 398.264,357.463 370.000,362.000" stroke-width="1.396" stroke="black" fill="none" stroke-linecap="round"></path><path d="M 370.000,362.000 C 350.870,364.885 351.466,365.666 332.000,364.000" stroke-width="1.618" stroke="black" fill="none" stroke-linecap="round"></path><path d="M 332.000,364.000 C 317.167,364.956 318.870,363.385 306.000,359.000" stroke-width="1.939" stroke="black" fill="none" stroke-linecap="round"></path><path d="M 306.000,359.000 C 294.634,350.793 294.667,352.956 287.000,340.000" stroke-width="2.151" stroke="black" fill="none" stroke-linecap="round"></path><path d="M 287.000,340.000 C 279.174,329.738 280.134,330.293 277.000,318.000" stroke-width="2.268" stroke="black" fill="none" stroke-linecap="round"></path><path d="M 277.000,318.000 C 271.659,288.309 271.674,289.238 272.000,259.000" stroke-width="1.449" stroke="black" fill="none" stroke-linecap="round"></path><path d="M 272.000,259.000 C 271.024,243.361 272.159,245.309 278.000,232.000" stroke-width="1.873" stroke="black" fill="none" stroke-linecap="round"></path><path d="M 278.000,232.000 C 290.060,213.293 288.524,214.861 307.000,202.000" stroke-width="1.695" stroke="black" fill="none" stroke-linecap="round"></path><path d="M 307.000,202.000 C 324.841,191.972 323.060,191.293 344.000,188.000" stroke-width="1.692" stroke="black" fill="none" stroke-linecap="round"></path><path d="M 344.000,188.000 C 366.656,183.910 365.841,183.472 389.000,185.000" stroke-width="1.583" stroke="black" fill="none" stroke-linecap="round"></path><path d="M 389.000,185.000 C 407.987,186.996 407.656,185.910 426.000,192.000" stroke-width="1.596" stroke="black" fill="none" stroke-linecap="round"></path><path d="M 426.000,192.000 C 435.967,194.049 434.987,194.496 443.000,200.000" stroke-width="2.181" stroke="black" fill="none" stroke-linecap="round"></path><path d="M 443.000,200.000 C 456.081,211.304 455.467,210.549 465.000,225.000" stroke-width="1.977" stroke="black" fill="none" stroke-linecap="round"></path><path d="M 465.000,225.000 C 470.226,233.714 470.081,232.804 471.000,243.000" stroke-width="2.360" stroke="black" fill="none" stroke-linecap="round"></path><path d="M 471.000,243.000 C 473.672,259.229 472.226,257.714 469.000,273.000" stroke-width="2.060" stroke="black" fill="none" stroke-linecap="round"></path><path d="M 469.000,273.000 C 461.020,286.372 464.172,287.229 452.000,299.000" stroke-width="2.063" stroke="black" fill="none" stroke-linecap="round"></path><path d="M 452.000,299.000 C 445.871,313.991 443.520,310.872 434.000,322.000" stroke-width="2.067" stroke="black" fill="none" stroke-linecap="round"></path><path d="M 434.000,322.000 C 402.249,340.294 404.371,341.991 369.000,355.000" stroke-width="1.245" stroke="black" fill="none" stroke-linecap="round"></path><path d="M 369.000,355.000 C 349.821,363.479 350.249,363.294 330.000,368.000" stroke-width="1.501" stroke="black" fill="none" stroke-linecap="round"></path><path d="M 330.000,368.000 C 320.841,368.982 321.321,369.979 312.000,368.000" stroke-width="2.154" stroke="black" fill="none" stroke-linecap="round"></path><path d="M 312.000,368.000 C 307.261,366.989 307.341,367.482 303.000,365.000" stroke-width="2.963" stroke="black" fill="none" stroke-linecap="round"></path><path d="M 303.000,365.000 C 299.383,363.599 299.761,363.489 297.000,361.000" stroke-width="3.549" stroke="black" fill="none" stroke-linecap="round"></path><path d="M 297.000,361.000 C 293.154,357.386 293.883,357.599 292.000,353.000" stroke-width="3.647" stroke="black" fill="none" stroke-linecap="round"></path><path d="M 292.000,353.000 C 290.654,347.114 290.654,347.886 292.000,342.000" stroke-width="3.482" stroke="black" fill="none" stroke-linecap="round"></path><path d="M 292.000,342.000 C 293.883,337.401 293.154,337.614 297.000,334.000" stroke-width="3.521" stroke="black" fill="none" stroke-linecap="round"></path><circle r="1.5" cx="304" cy="330" fill="black"></circle><path d="M 187.000,306.000 C 191.000,305.000 191.000,305.000 195.000,304.000" stroke-width="4.848" stroke="black" fill="none" stroke-linecap="round"></path><path d="M 195.000,304.000 C 198.919,302.537 199.000,303.000 203.000,302.000" stroke-width="3.993" stroke="black" fill="none" stroke-linecap="round"></path><path d="M 203.000,302.000 C 218.041,300.847 217.919,300.037 233.000,299.000" stroke-width="2.304" stroke="black" fill="none" stroke-linecap="round"></path><path d="M 233.000,299.000 C 258.451,295.107 258.541,295.847 284.000,292.000" stroke-width="1.527" stroke="black" fill="none" stroke-linecap="round"></path><path d="M 284.000,292.000 C 332.809,288.474 332.451,286.107 381.000,281.000" stroke-width="1.125" stroke="black" fill="none" stroke-linecap="round"></path><path d="M 381.000,281.000 C 425.758,270.579 426.309,273.974 471.000,263.000" stroke-width="1.125" stroke="black" fill="none" stroke-linecap="round"></path><path d="M 471.000,263.000 C 524.350,253.961 524.258,254.079 578.000,248.000" stroke-width="1.125" stroke="black" fill="none" stroke-linecap="round"></path><path d="M 578.000,248.000 C 605.577,247.224 605.350,244.961 633.000,245.000" stroke-width="1.125" stroke="black" fill="none" stroke-linecap="round"></path><path d="M 633.000,245.000 C 642.460,242.987 642.577,244.224 652.000,242.000" stroke-width="1.796" stroke="black" fill="none" stroke-linecap="round"></path><path d="M 652.000,242.000 C 660.750,242.000 656.960,241.487 662.000,242.000" stroke-width="2.708" stroke="black" fill="none" stroke-linecap="round"></path><path d="M 662.000,242.000 C 658.864,241.339 662.750,242.000 656.000,242.000" stroke-width="4.050" stroke="black" fill="none" stroke-linecap="round"></path><path d="M 656.000,242.000 C 652.616,243.814 652.364,242.839 649.000,245.000" stroke-width="3.933" stroke="black" fill="none" stroke-linecap="round"></path><path d="M 649.000,245.000 C 622.279,254.488 622.116,253.814 595.000,262.000" stroke-width="1.560" stroke="black" fill="none" stroke-linecap="round"></path><path d="M 595.000,262.000 C 553.032,272.632 553.279,273.488 511.000,283.000" stroke-width="1.125" stroke="black" fill="none" stroke-linecap="round"></path><path d="M 511.000,283.000 C 477.330,288.826 478.032,291.132 445.000,299.000" stroke-width="1.125" stroke="black" fill="none" stroke-linecap="round"></path><path d="M 445.000,299.000 C 406.836,314.506 405.830,311.326 368.000,328.000" stroke-width="1.125" stroke="black" fill="none" stroke-linecap="round"></path><path d="M 368.000,328.000 C 347.700,334.825 347.836,335.006 327.000,340.000" stroke-width="1.293" stroke="black" fill="none" stroke-linecap="round"></path><path d="M 327.000,340.000 C 311.588,343.922 311.700,343.825 296.000,346.000" stroke-width="1.702" stroke="black" fill="none" stroke-linecap="round"></path><path d="M 296.000,346.000 C 288.965,346.497 289.088,346.922 282.000,346.000" stroke-width="2.480" stroke="black" fill="none" stroke-linecap="round"></path><path d="M 282.000,346.000 C 275.000,345.000 274.965,345.497 268.000,344.000" stroke-width="2.814" stroke="black" fill="none" stroke-linecap="round"></path><path d="M 268.000,344.000 C 260.640,345.523 264.500,343.500 261.000,343.000" stroke-width="3.880" stroke="black" fill="none" stroke-linecap="round"></path><path d="M 261.000,343.000 C 263.141,330.255 262.140,335.023 271.000,323.000" stroke-width="3.868" stroke="black" fill="none" stroke-linecap="round"></path><path d="M 271.000,323.000 C 284.620,312.902 282.641,312.255 300.000,307.000" stroke-width="2.250" stroke="black" fill="none" stroke-linecap="round"></path><path d="M 300.000,307.000 C 328.540,298.631 327.620,296.402 357.000,290.000" stroke-width="1.443" stroke="black" fill="none" stroke-linecap="round"></path><path d="M 357.000,290.000 C 389.517,280.054 389.540,280.131 422.000,270.000" stroke-width="1.125" stroke="black" fill="none" stroke-linecap="round"></path><path d="M 422.000,270.000 C 431.344,266.349 431.517,267.054 441.000,264.000" stroke-width="1.823" stroke="black" fill="none" stroke-linecap="round"></path><path d="M 441.000,264.000 C 455.960,258.236 449.844,261.849 459.000,261.000" stroke-width="2.367" stroke="black" fill="none" stroke-linecap="round"></path><path d="M 459.000,261.000 C 457.196,268.944 461.460,263.236 452.000,274.000" stroke-width="3.464" stroke="black" fill="none" stroke-linecap="round"></path><path d="M 452.000,274.000 C 435.058,283.435 438.696,286.944 422.000,297.000" stroke-width="1.980" stroke="black" fill="none" stroke-linecap="round"></path><path d="M 422.000,297.000 C 382.609,336.837 383.558,336.935 349.000,381.000" stroke-width="1.125" stroke="black" fill="none" stroke-linecap="round"></path><path d="M 349.000,381.000 C 324.741,418.341 322.109,416.337 301.000,456.000" stroke-width="1.125" stroke="black" fill="none" stroke-linecap="round"></path><path d="M 301.000,456.000 C 295.535,464.278 295.741,464.341 291.000,473.000" stroke-width="1.667" stroke="black" fill="none" stroke-linecap="round"></path><path d="M 291.000,473.000 C 288.217,476.885 289.035,476.778 288.000,481.000" stroke-width="2.725" stroke="black" fill="none" stroke-linecap="round"></path><path d="M 288.000,481.000 C 286.943,487.851 287.717,486.385 290.000,492.000" stroke-width="3.055" stroke="black" fill="none" stroke-linecap="round"></path><path d="M 290.000,492.000 C 295.703,496.565 293.943,497.351 302.000,500.000" stroke-width="2.987" stroke="black" fill="none" stroke-linecap="round"></path><path d="M 302.000,500.000 C 306.881,502.344 306.703,502.565 312.000,504.000" stroke-width="3.292" stroke="black" fill="none" stroke-linecap="round"></path><path d="M 312.000,504.000 C 324.216,506.949 323.881,507.844 336.000,511.000" stroke-width="2.439" stroke="black" fill="none" stroke-linecap="round"></path><path d="M 336.000,511.000 C 340.065,512.881 340.216,512.449 344.000,515.000" stroke-width="3.109" stroke="black" fill="none" stroke-linecap="round"></path><path d="M 344.000,515.000 C 349.518,520.521 346.565,516.381 349.000,518.000" stroke-width="3.755" stroke="black" fill="none" stroke-linecap="round"></path><path d="M 349.000,518.000 C 334.788,480.663 342.018,484.021 329.000,442.000" stroke-width="2.956" stroke="black" fill="none" stroke-linecap="round"></path><path d="M 329.000,442.000 C 326.514,396.499 322.288,397.163 324.000,351.000" stroke-width="1.125" stroke="black" fill="none" stroke-linecap="round"></path><path d="M 324.000,351.000 C 321.629,305.992 321.514,305.999 319.000,261.000" stroke-width="1.125" stroke="black" fill="none" stroke-linecap="round"></path><path d="M 319.000,261.000 C 316.829,229.010 317.129,228.992 315.000,197.000" stroke-width="1.125" stroke="black" fill="none" stroke-linecap="round"></path><path d="M 315.000,197.000 C 312.188,159.001 312.829,159.010 311.000,121.000" stroke-width="1.125" stroke="black" fill="none" stroke-linecap="round"></path><path d="M 311.000,121.000 C 311.066,110.965 310.688,111.001 312.000,101.000" stroke-width="1.750" stroke="black" fill="none" stroke-linecap="round"></path><path d="M 312.000,101.000 C 314.593,79.010 314.066,78.965 317.000,57.000" stroke-width="1.613" stroke="black" fill="none" stroke-linecap="round"></path><path d="M 317.000,57.000 C 318.188,47.015 318.093,47.010 319.000,37.000" stroke-width="2.142" stroke="black" fill="none" stroke-linecap="round"></path><path d="M 319.000,37.000 C 319.630,28.504 319.688,28.515 320.000,20.000" stroke-width="2.519" stroke="black" fill="none" stroke-linecap="round"></path><path d="M 320.000,20.000 C 320.000,12.800 320.130,17.004 320.000,14.000" stroke-width="3.757" stroke="black" fill="none" stroke-linecap="round"></path><path d="M 320.000,14.000 C 320.650,21.037 320.000,16.800 320.000,28.000" stroke-width="4.434" stroke="black" fill="none" stroke-linecap="round"></path><path d="M 320.000,28.000 C 316.629,58.516 317.150,58.537 313.000,89.000" stroke-width="1.493" stroke="black" fill="none" stroke-linecap="round"></path><path d="M 313.000,89.000 C 310.655,100.430 311.629,100.516 310.000,112.000" stroke-width="2.020" stroke="black" fill="none" stroke-linecap="round"></path><path d="M 310.000,112.000 C 308.297,153.494 307.655,153.430 307.000,195.000" stroke-width="1.125" stroke="black" fill="none" stroke-linecap="round"></path><path d="M 307.000,195.000 C 305.000,233.504 305.797,233.494 305.000,272.000" stroke-width="1.125" stroke="black" fill="none" stroke-linecap="round"></path><path d="M 305.000,272.000 C 305.112,302.058 305.000,302.004 307.000,332.000" stroke-width="1.125" stroke="black" fill="none" stroke-linecap="round"></path><path d="M 307.000,332.000 C 309.081,357.562 308.612,357.558 312.000,383.000" stroke-width="1.324" stroke="black" fill="none" stroke-linecap="round"></path><path d="M 312.000,383.000 C 313.304,387.954 312.581,388.062 314.000,393.000" stroke-width="2.349" stroke="black" fill="none" stroke-linecap="round"></path><path d="M 314.000,393.000 C 314.862,402.519 315.304,402.454 316.000,412.000" stroke-width="2.495" stroke="black" fill="none" stroke-linecap="round"></path><path d="M 316.000,412.000 C 316.748,414.979 316.362,415.019 317.000,418.000" stroke-width="3.425" stroke="black" fill="none" stroke-linecap="round"></path><path d="M 317.000,418.000 C 316.613,425.419 317.248,420.979 317.000,424.000" stroke-width="3.865" stroke="black" fill="none" stroke-linecap="round"></path><path d="M 317.000,424.000 C 318.274,415.456 318.113,419.919 320.000,407.000" stroke-width="4.305" stroke="black" fill="none" stroke-linecap="round"></path><path d="M 320.000,407.000 C 329.224,366.638 328.274,366.456 337.000,326.000" stroke-width="1.250" stroke="black" fill="none" stroke-linecap="round"></path><path d="M 337.000,326.000 C 344.536,285.580 344.724,285.638 351.000,245.000" stroke-width="1.125" stroke="black" fill="none" stroke-linecap="round"></path><path d="M 351.000,245.000 C 353.138,229.015 353.536,229.080 355.000,213.000" stroke-width="1.511" stroke="black" fill="none" stroke-linecap="round"></path><path d="M 355.000,213.000 C 356.260,202.260 355.638,207.515 356.000,202.000" stroke-width="2.446" stroke="black" fill="none" stroke-linecap="round"></path><path d="M 356.000,202.000 C 354.459,206.946 355.760,201.760 354.000,212.000" stroke-width="3.808" stroke="black" fill="none" stroke-linecap="round"></path><path d="M 354.000,212.000 C 353.925,218.001 353.459,217.946 354.000,224.000" stroke-width="3.372" stroke="black" fill="none" stroke-linecap="round"></path><path d="M 354.000,224.000 C 353.128,258.072 354.425,258.001 355.000,292.000" stroke-width="1.347" stroke="black" fill="none" stroke-linecap="round"></path><path d="M 355.000,292.000 C 356.022,330.888 357.128,330.572 362.000,369.000" stroke-width="1.125" stroke="black" fill="none" stroke-linecap="round"></path><path d="M 362.000,369.000 C 370.553,406.988 368.022,407.388 379.000,445.000" stroke-width="1.125" stroke="black" fill="none" stroke-linecap="round"></path><path d="M 379.000,445.000 C 382.939,460.930 382.553,460.988 386.000,477.000" stroke-width="1.515" stroke="black" fill="none" stroke-linecap="round"></path><path d="M 386.000,477.000 C 386.687,481.991 386.939,481.930 387.000,487.000" stroke-width="2.525" stroke="black" fill="none" stroke-linecap="round"></path><path d="M 387.000,487.000 C 387.423,494.268 387.187,489.991 387.000,493.000" stroke-width="3.868" stroke="black" fill="none" stroke-linecap="round"></path></svg>