<svg xmlns="http://www.w3.org/2000/svg" xmlns:xlink="http://www.w3.org/1999/xlink" viewBox="0 0 1844 815" width="1844" height="815"><path d="M 539.000,471.000 C 535.964,469.052 536.000,469.000 533.000,467.000" stroke-width="5.405" stroke="black" fill="none" stroke-linecap="round"></path><path d="M 533.000,467.000 C 529.440,464.580 529.464,464.552 526.000,462.000" stroke-width="4.686" stroke="black" fill="none" stroke-linecap="round"></path><path d="M 526.000,462.000 C 521.560,458.420 521.440,458.580 517.000,455.000" stroke-width="3.677" stroke="black" fill="none" stroke-linecap="round"></path><path d="M 517.000,455.000 C 513.379,452.655 513.560,452.420 510.000,450.000" stroke-width="3.718" stroke="black" fill="none" stroke-linecap="round"></path><path d="M 510.000,450.000 C 506.636,446.828 506.379,447.155 503.000,444.000" stroke-width="3.612" stroke="black" fill="none" stroke-linecap="round"></path><path d="M 503.000,444.000 C 497.582,439.883 497.636,439.828 492.000,436.000" stroke-width="3.257" stroke="black" fill="none" stroke-linecap="round"></path><path d="M 492.000,436.000 C 485.691,432.398 486.082,431.883 480.000,428.000" stroke-width="3.104" stroke="black" fill="none" stroke-linecap="round"></path><path d="M 480.000,428.000 C 475.028,423.469 474.691,423.898 470.000,419.000" stroke-width="3.070" stroke="black" fill="none" stroke-linecap="round"></path><path d="M 470.000,419.000 C 465.916,415.590 466.028,415.469 462.000,412.000" stroke-width="3.334" stroke="black" fill="none" stroke-linecap="round"></path><path d="M 462.000,412.000 C 457.381,409.649 459.916,410.090 458.000,408.000" stroke-width="3.909" stroke="black" fill="none" stroke-linecap="round"></path><path d="M 458.000,408.000 C 461.322,405.576 458.881,405.649 465.000,404.000" stroke-width="4.876" stroke="black" fill="none" stroke-linecap="round"></path><path d="M 465.000,404.000 C 468.533,403.109 468.322,402.576 472.000,402.000" stroke-width="4.402" stroke="black" fill="none" stroke-linecap="round"></path><path d="M 472.000,402.000 C 493.788,395.744 493.533,395.109 515.000,388.000" stroke-width="1.979" stroke="black" fill="none" stroke-linecap="round"></path><path d="M 515.000,388.000 C 525.086,383.682 525.288,384.244 535.000,379.000" stroke-width="2.291" stroke="black" fill="none" stroke-linecap="round"></path><path d="M 535.000,379.000 C 542.892,374.764 543.086,375.182 551.000,371.000" stroke-width="2.588" stroke="black" fill="none" stroke-linecap="round"></path><path d="M 551.000,371.000 C 557.549,369.374 556.892,368.264 563.000,366.000" stroke-width="2.980" stroke="black" fill="none" stroke-linecap="round"></path><path d="M 563.000,366.000 C 567.148,361.504 568.049,362.874 572.000,358.000" stroke-width="3.192" stroke="black" fill="none" stroke-linecap="round"></path><path d="M 572.000,358.000 C 576.474,355.452 576.148,355.004 581.000,353.000" stroke-width="3.350" stroke="black" fill="none" stroke-linecap="round"></path><path d="M 581.000,353.000 C 588.442,348.887 588.474,348.952 596.000,345.000" stroke-width="2.888" stroke="black" fill="none" stroke-linecap="round"></path><path d="M 596.000,345.000 C 606.103,340.196 605.942,339.887 616.000,335.000" stroke-width="2.612" stroke="black" fill="none" stroke-linecap="round"></path><path d="M 616.000,335.000 C 626.047,329.583 626.103,329.696 636.000,324.000" stroke-width="2.399" stroke="black" fill="none" stroke-linecap="round"></path><path d="M 636.000,324.000 C 647.091,318.813 646.547,318.083 657.000,312.000" stroke-width="2.344" stroke="black" fill="none" stroke-linecap="round"></path><path d="M 657.000,312.000 C 662.918,307.381 663.091,307.813 668.000,302.000" stroke-width="2.717" stroke="black" fill="none" stroke-linecap="round"></path><path d="M 668.000,302.000 C 673.052,294.948 671.418,298.381 674.000,294.000" stroke-width="3.246" stroke="black" fill="none" stroke-linecap="round"></path><path d="M 674.000,294.000 C 672.732,296.657 674.552,293.448 671.000,299.000" stroke-width="4.531" stroke="black" fill="none" stroke-linecap="round"></path><path d="M 671.000,299.000 C 655.685,319.644 655.732,319.657 640.000,340.000" stroke-width="2.432" stroke="black" fill="none" stroke-linecap="round"></path><path d="M 640.000,340.000 C 632.155,350.128 632.185,350.144 624.000,360.000" stroke-width="2.297" stroke="black" fill="none" stroke-linecap="round"></path><path d="M 624.000,360.000 C 612.424,372.558 613.155,373.128 602.000,386.000" stroke-width="1.983" stroke="black" fill="none" stroke-linecap="round"></path><path d="M 602.000,386.000 C 593.547,397.208 593.424,397.058 586.000,409.000" stroke-width="2.576" stroke="black" fill="none" stroke-linecap="round"></path><path d="M 586.000,409.000 C 578.074,422.544 577.547,422.208 570.000,436.000" stroke-width="2.062" stroke="black" fill="none" stroke-linecap="round"></path><path d="M 570.000,436.000 C 558.053,458.255 557.074,457.544 544.000,479.000" stroke-width="1.669" stroke="black" fill="none" stroke-linecap="round"></path><path d="M 544.000,479.000 C 536.104,488.589 537.053,489.255 528.000,498.000" stroke-width="2.058" stroke="black" fill="none" stroke-linecap="round"></path><path d="M 528.000,498.000 C 520.355,506.377 520.604,506.589 513.000,515.000" stroke-width="2.239" stroke="black" fill="none" stroke-linecap="round"></path><path d="M 513.000,515.000 C 506.860,524.378 505.855,523.377 499.000,532.000" stroke-width="2.383" stroke="black" fill="none" stroke-linecap="round"></path><path d="M 499.000,532.000 C 489.855,539.988 490.360,540.378 480.000,547.000" stroke-width="2.339" stroke="black" fill="none" stroke-linecap="round"></path><path d="M 480.000,547.000 C 464.046,558.940 463.855,558.488 447.000,569.000" stroke-width="1.842" stroke="black" fill="none" stroke-linecap="round"></path><path d="M 447.000,569.000 C 433.254,576.572 433.546,576.940 419.000,583.000" stroke-width="1.884" stroke="black" fill="none" stroke-linecap="round"></path><path d="M 419.000,583.000 C 407.650,587.936 407.754,588.072 396.000,592.000" stroke-width="2.102" stroke="black" fill="none" stroke-linecap="round"></path><path d="M 396.000,592.000 C 386.037,595.132 386.150,595.436 376.000,598.000" stroke-width="2.381" stroke="black" fill="none" stroke-linecap="round"></path><path d="M 376.000,598.000 C 368.615,600.687 368.537,600.132 361.000,602.000" stroke-width="2.747" stroke="black" fill="none" stroke-linecap="round"></path><path d="M 361.000,602.000 C 353.997,602.462 354.115,603.187 347.000,603.000" stroke-width="2.917" stroke="black" fill="none" stroke-linecap="round"></path><path d="M 347.000,603.000 C 341.012,603.777 340.997,603.462 335.000,604.000" stroke-width="3.170" stroke="black" fill="none" stroke-linecap="round"></path><path d="M 335.000,604.000 C 327.500,604.000 327.512,604.277 320.000,604.000" stroke-width="3.041" stroke="black" fill="none" stroke-linecap="round"></path><path d="M 320.000,604.000 C 310.970,604.513 311.000,604.000 302.000,604.000" stroke-width="2.818" stroke="black" fill="none" stroke-linecap="round"></path><path d="M 302.000,604.000 C 293.096,604.351 293.470,603.513 285.000,602.000" stroke-width="2.807" stroke="black" fill="none" stroke-linecap="round"></path><path d="M 285.000,602.000 C 277.947,598.602 277.596,599.851 271.000,595.000" stroke-width="2.832" stroke="black" fill="none" stroke-linecap="round"></path><path d="M 271.000,595.000 C 263.756,592.447 264.447,591.602 258.000,588.000" stroke-width="2.955" stroke="black" fill="none" stroke-linecap="round"></path><path d="M 258.000,588.000 C 253.232,583.208 252.756,583.947 249.000,578.000" stroke-width="3.025" stroke="black" fill="none" stroke-linecap="round"></path><path d="M 249.000,578.000 C 246.430,575.268 246.732,575.208 245.000,572.000" stroke-width="3.575" stroke="black" fill="none" stroke-linecap="round"></path><path d="M 245.000,572.000 C 243.265,567.059 242.930,567.268 242.000,562.000" stroke-width="3.511" stroke="black" fill="none" stroke-linecap="round"></path><path d="M 242.000,562.000 C 240.000,557.000 240.765,557.059 240.000,552.000" stroke-width="3.515" stroke="black" fill="none" stroke-linecap="round"></path><path d="M 240.000,552.000 C 240.396,546.812 240.000,547.000 242.000,542.000" stroke-width="3.515" stroke="black" fill="none" stroke-linecap="round"></path><path d="M 242.000,542.000 C 244.148,534.500 244.396,534.812 248.000,528.000" stroke-width="3.113" stroke="black" fill="none" stroke-linecap="round"></path><path d="M 248.000,528.000 C 252.492,521.032 252.148,521.000 258.000,515.000" stroke-width="2.870" stroke="black" fill="none" stroke-linecap="round"></path><path d="M 258.000,515.000 C 263.163,509.568 262.992,509.532 269.000,505.000" stroke-width="2.960" stroke="black" fill="none" stroke-linecap="round"></path><path d="M 269.000,505.000 C 274.560,500.101 274.663,500.568 281.000,497.000" stroke-width="2.959" stroke="black" fill="none" stroke-linecap="round"></path><path d="M 281.000,497.000 C 288.319,493.589 288.060,493.601 296.000,492.000" stroke-width="2.928" stroke="black" fill="none" stroke-linecap="round"></path><path d="M 296.000,492.000 C 303.023,491.722 302.819,490.589 310.000,491.000" stroke-width="3.033" stroke="black" fill="none" stroke-linecap="round"></path><path d="M 310.000,491.000 C 317.458,489.164 317.523,490.222 325.000,489.000" stroke-width="2.993" stroke="black" fill="none" stroke-linecap="round"></path><path d="M 325.000,489.000 C 340.496,489.754 340.458,488.664 356.000,490.000" stroke-width="2.146" stroke="black" fill="none" stroke-linecap="round"></path><path d="M 356.000,490.000 C 372.000,490.000 371.996,490.254 388.000,490.000" stroke-width="2.006" stroke="black" fill="none" stroke-linecap="round"></path><path d="M 388.000,490.000 C 402.500,490.000 402.500,490.000 417.000,490.000" stroke-width="2.002" stroke="black" fill="none" stroke-linecap="round"></path><path d="M 417.000,490.000 C 431.025,490.559 431.000,490.000 445.000,490.000" stroke-width="2.086" stroke="black" fill="none" stroke-linecap="round"></path><path d="M 445.000,490.000 C 456.089,489.559 456.025,489.559 467.000,488.000" stroke-width="2.326" stroke="black" fill="none" stroke-linecap="round"></path><path d="M 467.000,488.000 C 473.500,486.500 473.589,487.059 480.000,485.000" stroke-width="2.800" stroke="black" fill="none" stroke-linecap="round"></path><path d="M 480.000,485.000 C 486.593,483.831 486.500,483.500 493.000,482.000" stroke-width="3.037" stroke="black" fill="none" stroke-linecap="round"></path><path d="M 493.000,482.000 C 500.358,478.965 500.593,479.831 508.000,477.000" stroke-width="2.950" stroke="black" fill="none" stroke-linecap="round"></path><path d="M 508.000,477.000 C 518.087,475.371 517.858,474.465 528.000,473.000" stroke-width="2.664" stroke="black" fill="none" stroke-linecap="round"></path><path d="M 528.000,473.000 C 541.047,469.666 541.087,469.871 554.000,466.000" stroke-width="2.303" stroke="black" fill="none" stroke-linecap="round"></path><path d="M 554.000,466.000 C 567.441,461.784 567.547,462.166 581.000,458.000" stroke-width="2.111" stroke="black" fill="none" stroke-linecap="round"></path><path d="M 581.000,458.000 C 589.104,456.340 588.941,455.784 597.000,454.000" stroke-width="2.533" stroke="black" fill="none" stroke-linecap="round"></path><path d="M 597.000,454.000 C 602.428,451.741 602.604,452.340 608.000,450.000" stroke-width="3.043" stroke="black" fill="none" stroke-linecap="round"></path><path d="M 608.000,450.000 C 610.667,449.933 610.428,449.241 613.000,449.000" stroke-width="3.841" stroke="black" fill="none" stroke-linecap="round"></path><path d="M 613.000,449.000 C 615.335,447.142 615.667,447.933 618.000,446.000" stroke-width="4.034" stroke="black" fill="none" stroke-linecap="round"></path><path d="M 618.000,446.000 C 622.417,444.196 622.335,444.142 627.000,443.000" stroke-width="3.728" stroke="black" fill="none" stroke-linecap="round"></path><path d="M 627.000,443.000 C 634.060,441.735 633.917,441.196 641.000,440.000" stroke-width="3.229" stroke="black" fill="none" stroke-linecap="round"></path><path d="M 641.000,440.000 C 646.052,438.649 646.060,438.735 651.000,437.000" stroke-width="3.404" stroke="black" fill="none" stroke-linecap="round"></path><path d="M 651.000,437.000 C 657.248,435.139 653.552,436.149 656.000,435.000" stroke-width="3.930" stroke="black" fill="none" stroke-linecap="round"></path><path d="M 656.000,435.000 C 648.897,434.896 652.748,434.639 642.000,436.000" stroke-width="4.754" stroke="black" fill="none" stroke-linecap="round"></path><path d="M 642.000,436.000 C 636.283,436.933 636.397,436.896 631.000,439.000" stroke-width="3.690" stroke="black" fill="none" stroke-linecap="round"></path><path d="M 631.000,439.000 C 624.783,441.626 624.783,441.433 619.000,445.000" stroke-width="3.290" stroke="black" fill="none" stroke-linecap="round"></path><path d="M 619.000,445.000 C 613.094,449.151 612.783,448.626 607.000,453.000" stroke-width="3.113" stroke="black" fill="none" stroke-linecap="round"></path><path d="M 607.000,453.000 C 603.196,454.603 603.594,455.151 600.000,457.000" stroke-width="3.574" stroke="black" fill="none" stroke-linecap="round"></path><path d="M 600.000,457.000 C 597.256,459.293 597.196,459.103 595.000,462.000" stroke-width="4.254" stroke="black" fill="none" stroke-linecap="round"></path><path d="M 595.000,462.000 C 591.473,465.171 592.256,465.293 590.000,469.000" stroke-width="3.877" stroke="black" fill="none" stroke-linecap="round"></path><path d="M 590.000,469.000 C 589.770,472.016 588.973,471.671 590.000,475.000" stroke-width="4.358" stroke="black" fill="none" stroke-linecap="round"></path><path d="M 590.000,475.000 C 588.962,479.736 590.270,478.516 591.000,482.000" stroke-width="4.287" stroke="black" fill="none" stroke-linecap="round"></path><path d="M 591.000,482.000 C 594.911,483.832 593.462,484.736 599.000,485.000" stroke-width="4.636" stroke="black" fill="none" stroke-linecap="round"></path><path d="M 599.000,485.000 C 601.973,485.822 601.911,485.832 605.000,486.000" stroke-width="4.279" stroke="black" fill="none" stroke-linecap="round"></path><path d="M 605.000,486.000 C 610.500,486.000 610.473,486.322 616.000,486.000" stroke-width="3.635" stroke="black" fill="none" stroke-linecap="round"></path><path d="M 616.000,486.000 C 620.500,486.000 620.500,486.000 625.000,486.000" stroke-width="3.665" stroke="black" fill="none" stroke-linecap="round"></path><path d="M 625.000,486.000 C 629.386,487.275 629.000,486.000 633.000,486.000" stroke-width="3.905" stroke="black" fill="none" stroke-linecap="round"></path><path d="M 633.000,486.000 C 639.769,484.214 637.886,484.275 642.000,480.000" stroke-width="4.037" stroke="black" fill="none" stroke-linecap="round"></path><path d="M 642.000,480.000 C 642.544,474.440 644.269,475.714 642.000,469.000" stroke-width="4.163" stroke="black" fill="none" stroke-linecap="round"></path><path d="M 642.000,469.000 C 641.859,464.028 641.544,464.440 640.000,460.000" stroke-width="4.343" stroke="black" fill="none" stroke-linecap="round"></path><path d="M 640.000,460.000 C 638.485,456.828 638.859,457.528 636.000,456.000" stroke-width="4.817" stroke="black" fill="none" stroke-linecap="round"></path><path d="M 636.000,456.000 C 631.885,455.402 632.485,454.828 628.000,456.000" stroke-width="5.032" stroke="black" fill="none" stroke-linecap="round"></path><path d="M 628.000,456.000 C 624.781,456.219 625.385,456.402 623.000,458.000" stroke-width="4.426" stroke="black" fill="none" stroke-linecap="round"></path><path d="M 623.000,458.000 C 620.734,460.819 620.781,460.219 620.000,464.000" stroke-width="4.885" stroke="black" fill="none" stroke-linecap="round"></path><path d="M 620.000,464.000 C 618.430,468.308 619.234,467.319 620.000,471.000" stroke-width="4.729" stroke="black" fill="none" stroke-linecap="round"></path><path d="M 620.000,471.000 C 623.158,474.353 621.930,474.308 627.000,476.000" stroke-width="4.539" stroke="black" fill="none" stroke-linecap="round"></path><path d="M 627.000,476.000 C 630.477,476.824 630.158,477.353 634.000,477.000" stroke-width="4.073" stroke="black" fill="none" stroke-linecap="round"></path><path d="M 634.000,477.000 C 640.897,478.683 640.477,477.324 647.000,477.000" stroke-width="3.410" stroke="black" fill="none" stroke-linecap="round"></path><path d="M 647.000,477.000 C 654.855,472.678 655.397,474.683 663.000,469.000" stroke-width="2.912" stroke="black" fill="none" stroke-linecap="round"></path><path d="M 663.000,469.000 C 670.705,466.445 670.355,465.678 678.000,463.000" stroke-width="2.832" stroke="black" fill="none" stroke-linecap="round"></path><path d="M 678.000,463.000 C 688.286,457.054 688.705,457.945 699.000,452.000" stroke-width="2.476" stroke="black" fill="none" stroke-linecap="round"></path><path d="M 699.000,452.000 C 714.926,444.826 714.786,444.554 731.000,438.000" stroke-width="1.995" stroke="black" fill="none" stroke-linecap="round"></path><path d="M 731.000,438.000 C 752.089,430.713 751.426,429.326 772.000,421.000" stroke-width="1.667" stroke="black" fill="none" stroke-linecap="round"></path><path d="M 772.000,421.000 C 792.356,409.233 793.089,410.713 813.000,398.000" stroke-width="1.542" stroke="black" fill="none" stroke-linecap="round"></path><path d="M 813.000,398.000 C 827.193,392.074 826.356,390.733 840.000,384.000" stroke-width="1.800" stroke="black" fill="none" stroke-linecap="round"></path><path d="M 840.000,384.000 C 850.209,377.242 850.193,377.574 859.000,369.000" stroke-width="2.135" stroke="black" fill="none" stroke-linecap="round"></path><path d="M 859.000,369.000 C 865.774,361.721 866.209,362.242 872.000,354.000" stroke-width="2.438" stroke="black" fill="none" stroke-linecap="round"></path><path d="M 872.000,354.000 C 878.165,346.118 878.274,346.221 884.000,338.000" stroke-width="2.481" stroke="black" fill="none" stroke-linecap="round"></path><path d="M 884.000,338.000 C 889.262,329.825 889.665,330.118 895.000,322.000" stroke-width="2.581" stroke="black" fill="none" stroke-linecap="round"></path><path d="M 895.000,322.000 C 900.439,314.951 900.262,314.825 906.000,308.000" stroke-width="2.637" stroke="black" fill="none" stroke-linecap="round"></path><path d="M 906.000,308.000 C 913.388,300.418 912.439,299.951 919.000,292.000" stroke-width="2.570" stroke="black" fill="none" stroke-linecap="round"></path><path d="M 919.000,292.000 C 921.325,287.000 920.388,289.918 920.000,287.000" stroke-width="3.591" stroke="black" fill="none" stroke-linecap="round"></path><path d="M 920.000,287.000 C 915.455,289.421 917.325,287.000 911.000,292.000" stroke-width="4.579" stroke="black" fill="none" stroke-linecap="round"></path><path d="M 911.000,292.000 C 886.898,305.828 886.955,305.921 863.000,320.000" stroke-width="2.242" stroke="black" fill="none" stroke-linecap="round"></path><path d="M 863.000,320.000 C 843.929,331.384 843.898,331.328 825.000,343.000" stroke-width="1.714" stroke="black" fill="none" stroke-linecap="round"></path><path d="M 825.000,343.000 C 799.258,357.477 799.929,358.384 775.000,374.000" stroke-width="1.321" stroke="black" fill="none" stroke-linecap="round"></path><path d="M 775.000,374.000 C 765.209,381.683 764.758,380.977 756.000,390.000" stroke-width="1.875" stroke="black" fill="none" stroke-linecap="round"></path><path d="M 756.000,390.000 C 749.699,395.731 749.709,395.683 744.000,402.000" stroke-width="2.401" stroke="black" fill="none" stroke-linecap="round"></path><path d="M 744.000,402.000 C 739.795,406.850 739.699,406.731 736.000,412.000" stroke-width="2.914" stroke="black" fill="none" stroke-linecap="round"></path><path d="M 736.000,412.000 C 733.000,416.500 732.795,416.350 730.000,421.000" stroke-width="3.210" stroke="black" fill="none" stroke-linecap="round"></path><path d="M 730.000,421.000 C 726.818,425.389 727.000,425.500 724.000,430.000" stroke-width="3.366" stroke="black" fill="none" stroke-linecap="round"></path><path d="M 724.000,430.000 C 721.050,434.314 721.318,434.389 719.000,439.000" stroke-width="3.461" stroke="black" fill="none" stroke-linecap="round"></path><path d="M 719.000,439.000 C 717.817,442.459 717.550,442.314 717.000,446.000" stroke-width="3.782" stroke="black" fill="none" stroke-linecap="round"></path><path d="M 717.000,446.000 C 716.781,449.070 716.317,448.959 716.000,452.000" stroke-width="4.027" stroke="black" fill="none" stroke-linecap="round"></path><path d="M 716.000,452.000 C 714.337,456.453 714.781,456.570 713.000,461.000" stroke-width="3.667" stroke="black" fill="none" stroke-linecap="round"></path><path d="M 713.000,461.000 C 711.428,464.930 711.837,464.953 711.000,469.000" stroke-width="3.751" stroke="black" fill="none" stroke-linecap="round"></path><path d="M 711.000,469.000 C 707.355,480.000 710.428,474.430 711.000,480.000" stroke-width="4.066" stroke="black" fill="none" stroke-linecap="round"></path><path d="M 711.000,480.000 C 724.343,475.194 720.355,480.000 737.000,469.000" stroke-width="4.166" stroke="black" fill="none" stroke-linecap="round"></path><path d="M 737.000,469.000 C 747.245,462.502 747.843,463.694 758.000,457.000" stroke-width="2.600" stroke="black" fill="none" stroke-linecap="round"></path><path d="M 758.000,457.000 C 768.897,451.758 768.745,451.502 780.000,447.000" stroke-width="2.338" stroke="black" fill="none" stroke-linecap="round"></path><path d="M 780.000,447.000 C 789.897,442.705 789.897,442.758 800.000,439.000" stroke-width="2.436" stroke="black" fill="none" stroke-linecap="round"></path><path d="M 800.000,439.000 C 810.000,433.923 804.897,437.205 810.000,436.000" stroke-width="3.086" stroke="black" fill="none" stroke-linecap="round"></path><path d="M 810.000,436.000 C 795.452,448.826 810.000,439.423 800.000,450.000" stroke-width="4.165" stroke="black" fill="none" stroke-linecap="round"></path><path d="M 800.000,450.000 C 820.711,447.996 810.952,452.826 841.000,444.000" stroke-width="4.164" stroke="black" fill="none" stroke-linecap="round"></path><path d="M 841.000,444.000 C 853.478,440.415 853.711,441.496 866.000,437.000" stroke-width="3.287" stroke="black" fill="none" stroke-linecap="round"></path><path d="M 866.000,437.000 C 872.874,434.156 869.978,435.915 874.000,435.000" stroke-width="3.573" stroke="black" fill="none" stroke-linecap="round"></path><path d="M 874.000,435.000 C 868.165,439.476 874.874,435.656 870.000,440.000" stroke-width="4.601" stroke="black" fill="none" stroke-linecap="round"></path><path d="M 870.000,440.000 C 879.273,440.797 875.165,441.476 888.000,439.000" stroke-width="4.601" stroke="black" fill="none" stroke-linecap="round"></path><path d="M 888.000,439.000 C 895.859,435.505 896.273,437.297 904.000,433.000" stroke-width="3.100" stroke="black" fill="none" stroke-linecap="round"></path><path d="M 904.000,433.000 C 911.343,429.524 908.859,431.505 914.000,431.000" stroke-width="3.428" stroke="black" fill="none" stroke-linecap="round"></path><path d="M 914.000,431.000 C 913.906,434.604 915.843,432.024 913.000,438.000" stroke-width="4.528" stroke="black" fill="none" stroke-linecap="round"></path><path d="M 913.000,438.000 C 911.437,441.978 911.906,442.104 910.000,446.000" stroke-width="3.949" stroke="black" fill="none" stroke-linecap="round"></path><path d="M 910.000,446.000 C 909.301,449.138 908.937,448.978 908.000,452.000" stroke-width="4.053" stroke="black" fill="none" stroke-linecap="round"></path><path d="M 908.000,452.000 C 905.783,454.258 906.801,454.638 905.000,457.000" stroke-width="4.102" stroke="black" fill="none" stroke-linecap="round"></path><path d="M 905.000,457.000 C 901.016,465.574 903.783,461.258 904.000,466.000" stroke-width="3.790" stroke="black" fill="none" stroke-linecap="round"></path><path d="M 904.000,466.000 C 915.334,463.902 911.516,467.074 926.000,460.000" stroke-width="4.385" stroke="black" fill="none" stroke-linecap="round"></path><path d="M 926.000,460.000 C 935.368,455.198 935.834,456.402 945.000,451.000" stroke-width="2.884" stroke="black" fill="none" stroke-linecap="round"></path><path d="M 945.000,451.000 C 955.211,447.469 954.868,446.698 965.000,443.000" stroke-width="2.590" stroke="black" fill="none" stroke-linecap="round"></path><path d="M 965.000,443.000 C 978.000,436.500 978.211,436.969 991.000,430.000" stroke-width="2.207" stroke="black" fill="none" stroke-linecap="round"></path><path d="M 991.000,430.000 C 1002.719,425.664 1002.000,424.500 1013.000,419.000" stroke-width="2.271" stroke="black" fill="none" stroke-linecap="round"></path><path d="M 1013.000,419.000 C 1029.365,407.459 1029.719,408.164 1045.000,395.000" stroke-width="1.762" stroke="black" fill="none" stroke-linecap="round"></path><path d="M 1045.000,395.000 C 1060.500,380.860 1061.365,381.959 1077.000,368.000" stroke-width="1.612" stroke="black" fill="none" stroke-linecap="round"></path><path d="M 1077.000,368.000 C 1095.270,355.358 1094.500,354.360 1113.000,342.000" stroke-width="1.573" stroke="black" fill="none" stroke-linecap="round"></path><path d="M 1113.000,342.000 C 1132.459,328.561 1131.770,327.858 1150.000,313.000" stroke-width="1.517" stroke="black" fill="none" stroke-linecap="round"></path><path d="M 1150.000,313.000 C 1163.287,300.665 1163.459,301.061 1175.000,287.000" stroke-width="1.706" stroke="black" fill="none" stroke-linecap="round"></path><path d="M 1175.000,287.000 C 1184.786,276.263 1184.287,276.165 1192.000,264.000" stroke-width="1.962" stroke="black" fill="none" stroke-linecap="round"></path><path d="M 1192.000,264.000 C 1198.428,249.966 1199.786,250.763 1205.000,236.000" stroke-width="1.933" stroke="black" fill="none" stroke-linecap="round"></path><path d="M 1205.000,236.000 C 1211.013,224.719 1210.428,224.466 1216.000,213.000" stroke-width="2.144" stroke="black" fill="none" stroke-linecap="round"></path><path d="M 1216.000,213.000 C 1220.194,200.875 1221.013,201.219 1225.000,189.000" stroke-width="2.213" stroke="black" fill="none" stroke-linecap="round"></path><path d="M 1225.000,189.000 C 1229.405,180.150 1228.694,179.875 1233.000,171.000" stroke-width="2.420" stroke="black" fill="none" stroke-linecap="round"></path><path d="M 1233.000,171.000 C 1237.192,163.683 1234.905,166.150 1236.000,161.000" stroke-width="3.078" stroke="black" fill="none" stroke-linecap="round"></path><path d="M 1236.000,161.000 C 1232.193,160.531 1235.192,159.183 1229.000,162.000" stroke-width="4.346" stroke="black" fill="none" stroke-linecap="round"></path><path d="M 1229.000,162.000 C 1207.111,172.300 1207.193,172.031 1186.000,184.000" stroke-width="2.403" stroke="black" fill="none" stroke-linecap="round"></path><path d="M 1186.000,184.000 C 1165.466,195.187 1165.611,195.300 1146.000,208.000" stroke-width="1.572" stroke="black" fill="none" stroke-linecap="round"></path><path d="M 1146.000,208.000 C 1124.928,220.245 1125.966,221.187 1107.000,236.000" stroke-width="1.500" stroke="black" fill="none" stroke-linecap="round"></path><path d="M 1107.000,236.000 C 1092.964,250.554 1091.928,249.245 1080.000,266.000" stroke-width="1.613" stroke="black" fill="none" stroke-linecap="round"></path><path d="M 1080.000,266.000 C 1068.238,277.996 1069.464,278.554 1060.000,292.000" stroke-width="1.816" stroke="black" fill="none" stroke-linecap="round"></path><path d="M 1060.000,292.000 C 1055.374,304.660 1053.238,303.496 1050.000,317.000" stroke-width="2.004" stroke="black" fill="none" stroke-linecap="round"></path><path d="M 1050.000,317.000 C 1042.213,335.871 1041.874,335.660 1033.000,354.000" stroke-width="1.748" stroke="black" fill="none" stroke-linecap="round"></path><path d="M 1033.000,354.000 C 1026.243,366.148 1026.713,366.371 1019.000,378.000" stroke-width="2.002" stroke="black" fill="none" stroke-linecap="round"></path><path d="M 1019.000,378.000 C 1010.222,393.518 1009.743,393.148 1000.000,408.000" stroke-width="1.872" stroke="black" fill="none" stroke-linecap="round"></path><path d="M 1000.000,408.000 C 991.273,418.325 992.222,419.018 983.000,429.000" stroke-width="2.021" stroke="black" fill="none" stroke-linecap="round"></path><path d="M 983.000,429.000 C 976.125,438.595 975.773,438.325 969.000,448.000" stroke-width="2.191" stroke="black" fill="none" stroke-linecap="round"></path><path d="M 969.000,448.000 C 963.162,454.773 963.625,455.095 958.000,462.000" stroke-width="2.553" stroke="black" fill="none" stroke-linecap="round"></path><path d="M 958.000,462.000 C 953.700,466.302 955.662,465.273 954.000,469.000" stroke-width="3.323" stroke="black" fill="none" stroke-linecap="round"></path><path d="M 954.000,469.000 C 956.440,471.595 954.200,470.802 959.000,471.000" stroke-width="4.583" stroke="black" fill="none" stroke-linecap="round"></path><path d="M 959.000,471.000 C 977.874,464.553 977.940,466.595 997.000,459.000" stroke-width="2.522" stroke="black" fill="none" stroke-linecap="round"></path><path d="M 997.000,459.000 C 1009.069,456.254 1008.874,455.553 1021.000,453.000" stroke-width="2.356" stroke="black" fill="none" stroke-linecap="round"></path><path d="M 1021.000,453.000 C 1036.230,447.102 1036.569,448.754 1052.000,444.000" stroke-width="1.989" stroke="black" fill="none" stroke-linecap="round"></path><path d="M 1052.000,444.000 C 1066.964,441.778 1066.730,441.102 1082.000,441.000" stroke-width="1.962" stroke="black" fill="none" stroke-linecap="round"></path><path d="M 1082.000,441.000 C 1096.031,440.406 1095.964,440.278 1110.000,441.000" stroke-width="2.123" stroke="black" fill="none" stroke-linecap="round"></path><path d="M 1110.000,441.000 C 1122.047,439.707 1119.531,441.406 1129.000,443.000" stroke-width="2.414" stroke="black" fill="none" stroke-linecap="round"></path><path d="M 1129.000,443.000 C 1129.516,446.559 1131.547,444.207 1129.000,450.000" stroke-width="3.635" stroke="black" fill="none" stroke-linecap="round"></path><path d="M 1129.000,450.000 C 1128.924,457.153 1128.016,456.559 1126.000,463.000" stroke-width="3.282" stroke="black" fill="none" stroke-linecap="round"></path><path d="M 1126.000,463.000 C 1120.208,470.301 1121.924,471.153 1115.000,478.000" stroke-width="2.841" stroke="black" fill="none" stroke-linecap="round"></path><path d="M 1115.000,478.000 C 1109.634,487.954 1108.708,487.301 1103.000,497.000" stroke-width="2.535" stroke="black" fill="none" stroke-linecap="round"></path><path d="M 1103.000,497.000 C 1093.772,511.228 1093.134,510.454 1082.000,523.000" stroke-width="1.989" stroke="black" fill="none" stroke-linecap="round"></path><path d="M 1082.000,523.000 C 1062.807,539.283 1064.272,540.728 1044.000,556.000" stroke-width="1.554" stroke="black" fill="none" stroke-linecap="round"></path><path d="M 1044.000,556.000 C 1023.116,576.227 1022.307,575.283 1001.000,595.000" stroke-width="1.347" stroke="black" fill="none" stroke-linecap="round"></path><path d="M 1001.000,595.000 C 978.983,611.385 980.116,612.727 958.000,629.000" stroke-width="1.293" stroke="black" fill="none" stroke-linecap="round"></path><path d="M 958.000,629.000 C 940.125,647.461 938.483,645.385 920.000,663.000" stroke-width="1.370" stroke="black" fill="none" stroke-linecap="round"></path><path d="M 920.000,663.000 C 900.744,678.823 900.625,677.961 879.000,690.000" stroke-width="1.423" stroke="black" fill="none" stroke-linecap="round"></path><path d="M 879.000,690.000 C 847.322,709.167 847.244,706.323 813.000,718.000" stroke-width="1.125" stroke="black" fill="none" stroke-linecap="round"></path><path d="M 813.000,718.000 C 778.086,724.112 779.322,726.667 743.000,725.000" stroke-width="1.125" stroke="black" fill="none" stroke-linecap="round"></path><path d="M 743.000,725.000 C 698.859,725.409 699.086,726.112 655.000,722.000" stroke-width="1.125" stroke="black" fill="none" stroke-linecap="round"></path><path d="M 655.000,722.000 C 602.186,718.047 602.359,717.909 550.000,710.000" stroke-width="1.125" stroke="black" fill="none" stroke-linecap="round"></path><path d="M 550.000,710.000 C 494.355,703.685 495.186,701.547 441.000,689.000" stroke-width="1.125" stroke="black" fill="none" stroke-linecap="round"></path><path d="M 441.000,689.000 C 385.168,672.650 385.355,673.685 332.000,650.000" stroke-width="1.125" stroke="black" fill="none" stroke-linecap="round"></path><path d="M 332.000,650.000 C 272.956,625.519 273.668,625.150 218.000,594.000" stroke-width="1.125" stroke="black" fill="none" stroke-linecap="round"></path><path d="M 218.000,594.000 C 170.743,566.310 170.956,567.019 128.000,533.000" stroke-width="1.125" stroke="black" fill="none" stroke-linecap="round"></path><path d="M 128.000,533.000 C 96.972,509.398 98.243,509.810 73.000,481.000" stroke-width="1.125" stroke="black" fill="none" stroke-linecap="round"></path><path d="M 73.000,481.000 C 63.823,468.623 64.472,470.898 63.000,456.000" stroke-width="1.520" stroke="black" fill="none" stroke-linecap="round"></path><path d="M 63.000,456.000 C 63.657,443.743 62.323,445.623 70.000,435.000" stroke-width="2.067" stroke="black" fill="none" stroke-linecap="round"></path><path d="M 70.000,435.000 C 82.502,416.750 82.157,418.243 100.000,405.000" stroke-width="1.724" stroke="black" fill="none" stroke-linecap="round"></path><path d="M 100.000,405.000 C 151.753,370.501 151.002,370.750 207.000,343.000" stroke-width="1.125" stroke="black" fill="none" stroke-linecap="round"></path><path d="M 207.000,343.000 C 264.954,315.196 264.253,314.501 325.000,293.000" stroke-width="1.125" stroke="black" fill="none" stroke-linecap="round"></path><path d="M 325.000,293.000 C 393.756,267.910 393.454,267.696 464.000,248.000" stroke-width="1.125" stroke="black" fill="none" stroke-linecap="round"></path><path d="M 464.000,248.000 C 550.937,223.461 550.756,223.410 639.000,204.000" stroke-width="1.125" stroke="black" fill="none" stroke-linecap="round"></path><path d="M 639.000,204.000 C 731.971,182.527 731.937,183.461 826.000,168.000" stroke-width="1.125" stroke="black" fill="none" stroke-linecap="round"></path><path d="M 826.000,168.000 C 910.345,156.696 909.971,155.027 995.000,149.000" stroke-width="1.125" stroke="black" fill="none" stroke-linecap="round"></path><path d="M 995.000,149.000 C 1053.478,143.691 1053.345,143.696 1112.000,142.000" stroke-width="1.125" stroke="black" fill="none" stroke-linecap="round"></path><path d="M 1112.000,142.000 C 1140.695,140.438 1139.978,141.191 1168.000,144.000" stroke-width="1.125" stroke="black" fill="none" stroke-linecap="round"></path><path d="M 1168.000,144.000 C 1176.267,146.267 1175.195,144.938 1181.000,151.000" stroke-width="1.851" stroke="black" fill="none" stroke-linecap="round"></path><path d="M 1181.000,151.000 C 1181.864,154.474 1183.267,153.267 1182.000,158.000" stroke-width="2.928" stroke="black" fill="none" stroke-linecap="round"></path><path d="M 1182.000,158.000 C 1182.412,167.515 1182.364,167.474 1182.000,177.000" stroke-width="2.732" stroke="black" fill="none" stroke-linecap="round"></path><path d="M 1182.000,177.000 C 1184.349,191.348 1181.412,190.515 1180.000,204.000" stroke-width="2.248" stroke="black" fill="none" stroke-linecap="round"></path><path d="M 1180.000,204.000 C 1168.451,240.933 1167.849,239.348 1149.000,273.000" stroke-width="1.232" stroke="black" fill="none" stroke-linecap="round"></path><path d="M 1149.000,273.000 C 1131.194,303.530 1131.451,301.933 1106.000,326.000" stroke-width="1.153" stroke="black" fill="none" stroke-linecap="round"></path><path d="M 1106.000,326.000 C 1074.878,355.259 1075.694,353.030 1038.000,372.000" stroke-width="1.125" stroke="black" fill="none" stroke-linecap="round"></path><path d="M 1038.000,372.000 C 996.758,388.892 998.878,389.759 954.000,395.000" stroke-width="1.125" stroke="black" fill="none" stroke-linecap="round"></path><path d="M 954.000,395.000 C 911.603,399.582 912.758,400.892 870.000,396.000" stroke-width="1.125" stroke="black" fill="none" stroke-linecap="round"></path><path d="M 870.000,396.000 C 834.796,393.222 836.103,393.082 803.000,382.000" stroke-width="1.125" stroke="black" fill="none" stroke-linecap="round"></path><path d="M 803.000,382.000 C 784.711,371.989 783.796,375.222 768.000,360.000" stroke-width="1.370" stroke="black" fill="none" stroke-linecap="round"></path><path d="M 768.000,360.000 C 759.795,354.939 761.711,355.489 757.000,349.000" stroke-width="2.187" stroke="black" fill="none" stroke-linecap="round"></path><path d="M 1177.000,446.000 C 1180.916,447.562 1181.000,447.000 1185.000,448.000" stroke-width="3.083" stroke="black" fill="none" stroke-linecap="round"></path><path d="M 1185.000,448.000 C 1194.993,448.762 1194.916,449.062 1205.000,449.000" stroke-width="2.715" stroke="black" fill="none" stroke-linecap="round"></path><path d="M 1205.000,449.000 C 1216.074,449.930 1215.993,449.262 1227.000,449.000" stroke-width="2.463" stroke="black" fill="none" stroke-linecap="round"></path><path d="M 1227.000,449.000 C 1239.478,446.855 1239.574,447.930 1252.000,445.000" stroke-width="2.317" stroke="black" fill="none" stroke-linecap="round"></path><path d="M 1252.000,445.000 C 1266.451,442.531 1266.478,442.855 1281.000,441.000" stroke-width="2.136" stroke="black" fill="none" stroke-linecap="round"></path><path d="M 1281.000,441.000 C 1294.988,439.667 1294.951,439.531 1309.000,439.000" stroke-width="2.126" stroke="black" fill="none" stroke-linecap="round"></path><path d="M 1309.000,439.000 C 1321.909,437.363 1315.988,438.667 1323.000,439.000" stroke-width="2.799" stroke="black" fill="none" stroke-linecap="round"></path><path d="M 1323.000,439.000 C 1318.240,442.505 1323.909,440.363 1313.000,445.000" stroke-width="3.810" stroke="black" fill="none" stroke-linecap="round"></path><path d="M 1313.000,445.000 C 1301.393,446.166 1307.740,447.505 1302.000,449.000" stroke-width="3.399" stroke="black" fill="none" stroke-linecap="round"></path><path d="M 1302.000,449.000 C 1308.200,455.632 1302.893,453.166 1316.000,459.000" stroke-width="3.926" stroke="black" fill="none" stroke-linecap="round"></path><path d="M 1316.000,459.000 C 1330.871,463.981 1330.200,465.132 1346.000,468.000" stroke-width="2.250" stroke="black" fill="none" stroke-linecap="round"></path><path d="M 1346.000,468.000 C 1362.848,472.815 1362.871,472.481 1380.000,476.000" stroke-width="1.889" stroke="black" fill="none" stroke-linecap="round"></path><path d="M 1380.000,476.000 C 1397.963,478.814 1397.848,479.315 1416.000,481.000" stroke-width="1.820" stroke="black" fill="none" stroke-linecap="round"></path><path d="M 1416.000,481.000 C 1430.971,483.080 1430.963,482.814 1446.000,484.000" stroke-width="1.961" stroke="black" fill="none" stroke-linecap="round"></path><path d="M 1446.000,484.000 C 1455.511,484.297 1455.471,484.580 1465.000,484.000" stroke-width="2.352" stroke="black" fill="none" stroke-linecap="round"></path><path d="M 1465.000,484.000 C 1471.493,483.325 1471.511,483.797 1478.000,483.000" stroke-width="2.878" stroke="black" fill="none" stroke-linecap="round"></path><path d="M 1478.000,483.000 C 1481.510,483.205 1481.493,482.825 1485.000,483.000" stroke-width="3.572" stroke="black" fill="none" stroke-linecap="round"></path><path d="M 1485.000,483.000 C 1489.984,482.186 1490.010,482.705 1495.000,482.000" stroke-width="3.546" stroke="black" fill="none" stroke-linecap="round"></path><path d="M 1495.000,482.000 C 1503.500,482.000 1503.484,481.686 1512.000,482.000" stroke-width="2.930" stroke="black" fill="none" stroke-linecap="round"></path><path d="M 1512.000,482.000 C 1525.500,482.000 1525.500,482.000 1539.000,482.000" stroke-width="2.356" stroke="black" fill="none" stroke-linecap="round"></path><path d="M 1539.000,482.000 C 1560.500,482.000 1560.500,482.000 1582.000,482.000" stroke-width="1.765" stroke="black" fill="none" stroke-linecap="round"></path><path d="M 1582.000,482.000 C 1615.000,482.000 1615.000,482.000 1648.000,482.000" stroke-width="1.238" stroke="black" fill="none" stroke-linecap="round"></path><path d="M 1648.000,482.000 C 1673.530,482.688 1673.500,482.000 1699.000,482.000" stroke-width="1.351" stroke="black" fill="none" stroke-linecap="round"></path><path d="M 1699.000,482.000 C 1710.687,481.825 1710.530,481.688 1722.000,480.000" stroke-width="1.901" stroke="black" fill="none" stroke-linecap="round"></path><path d="M 1722.000,480.000 C 1725.857,478.013 1726.187,479.325 1730.000,477.000" stroke-width="3.406" stroke="black" fill="none" stroke-linecap="round"></path><path d="M 1730.000,477.000 C 1748.566,473.287 1748.357,472.513 1767.000,469.000" stroke-width="1.899" stroke="black" fill="none" stroke-linecap="round"></path><path d="M 1767.000,469.000 C 1791.294,461.738 1791.566,463.287 1816.000,457.000" stroke-width="1.874" stroke="black" fill="none" stroke-linecap="round"></path><path d="M 1816.000,457.000 C 1836.036,456.652 1827.794,454.738 1840.000,455.000" stroke-width="2.119" stroke="black" fill="none" stroke-linecap="round"></path><path d="M 1840.000,455.000 C 1834.107,452.394 1842.036,454.152 1828.000,452.000" stroke-width="3.514" stroke="black" fill="none" stroke-linecap="round"></path><path d="M 1828.000,452.000 C 1818.467,452.107 1818.607,451.394 1809.000,453.000" stroke-width="2.865" stroke="black" fill="none" stroke-linecap="round"></path><path d="M 1809.000,453.000 C 1791.881,454.468 1791.967,454.607 1775.000,457.000" stroke-width="2.084" stroke="black" fill="none" stroke-linecap="round"></path><path d="M 1775.000,457.000 C 1772.130,458.798 1771.881,457.468 1769.000,459.000" stroke-width="3.149" stroke="black" fill="none" stroke-linecap="round"></path><path d="M 1769.000,459.000 C 1756.500,459.000 1756.630,459.798 1744.000,459.000" stroke-width="3.213" stroke="black" fill="none" stroke-linecap="round"></path><path d="M 1744.000,459.000 C 1714.000,459.000 1714.000,459.000 1684.000,459.000" stroke-width="1.522" stroke="black" fill="none" stroke-linecap="round"></path><path d="M 1684.000,459.000 C 1640.459,457.699 1640.500,459.000 1597.000,459.000" stroke-width="1.125" stroke="black" fill="none" stroke-linecap="round"></path><path d="M 1597.000,459.000 C 1556.967,461.061 1556.959,460.199 1517.000,464.000" stroke-width="1.125" stroke="black" fill="none" stroke-linecap="round"></path><path d="M 1517.000,464.000 C 1489.037,467.331 1488.967,466.061 1461.000,469.000" stroke-width="1.181" stroke="black" fill="none" stroke-linecap="round"></path><path d="M 1461.000,469.000 C 1447.000,469.000 1447.037,469.831 1433.000,469.000" stroke-width="1.677" stroke="black" fill="none" stroke-linecap="round"></path><path d="M 1433.000,469.000 C 1423.341,470.132 1423.500,469.000 1414.000,469.000" stroke-width="2.260" stroke="black" fill="none" stroke-linecap="round"></path><path d="M 1414.000,469.000 C 1407.060,466.765 1406.841,468.132 1400.000,465.000" stroke-width="2.749" stroke="black" fill="none" stroke-linecap="round"></path><path d="M 1400.000,465.000 C 1391.098,462.300 1391.060,462.765 1382.000,461.000" stroke-width="2.713" stroke="black" fill="none" stroke-linecap="round"></path><path d="M 1382.000,461.000 C 1373.494,460.000 1373.598,459.800 1365.000,460.000" stroke-width="2.721" stroke="black" fill="none" stroke-linecap="round"></path><path d="M 1365.000,460.000 C 1358.971,460.297 1358.994,460.000 1353.000,461.000" stroke-width="3.098" stroke="black" fill="none" stroke-linecap="round"></path></svg>