<svg xmlns="http://www.w3.org/2000/svg" xmlns:xlink="http://www.w3.org/1999/xlink" viewBox="0 0 453 236" width="453" height="236"><path d="M 120.500,154.000 C 117.698,151.214 117.500,151.500 114.500,149.000" stroke-width="5.162" stroke="black" fill="none" stroke-linecap="round"></path><path d="M 114.500,149.000 C 111.205,146.425 111.198,146.714 107.500,145.000" stroke-width="4.696" stroke="black" fill="none" stroke-linecap="round"></path><path d="M 107.500,145.000 C 104.364,144.955 104.705,143.925 101.500,144.000" stroke-width="4.294" stroke="black" fill="none" stroke-linecap="round"></path><path d="M 101.500,144.000 C 97.136,141.545 96.864,142.455 92.500,140.000" stroke-width="4.321" stroke="black" fill="none" stroke-linecap="round"></path><path d="M 92.500,140.000 C 86.987,140.462 89.636,139.045 86.500,139.000" stroke-width="4.627" stroke="black" fill="none" stroke-linecap="round"></path><path d="M 86.500,139.000 C 88.030,135.976 85.987,137.462 90.500,134.000" stroke-width="5.124" stroke="black" fill="none" stroke-linecap="round"></path><path d="M 90.500,134.000 C 96.034,130.553 95.530,129.976 101.500,127.000" stroke-width="4.307" stroke="black" fill="none" stroke-linecap="round"></path><path d="M 101.500,127.000 C 106.070,124.101 106.034,124.053 110.500,121.000" stroke-width="3.594" stroke="black" fill="none" stroke-linecap="round"></path><path d="M 110.500,121.000 C 116.092,117.120 116.070,117.101 121.500,113.000" stroke-width="3.188" stroke="black" fill="none" stroke-linecap="round"></path><path d="M 121.500,113.000 C 126.523,109.029 126.592,109.120 131.500,105.000" stroke-width="3.143" stroke="black" fill="none" stroke-linecap="round"></path><path d="M 131.500,105.000 C 136.951,100.439 137.023,100.529 142.500,96.000" stroke-width="3.087" stroke="black" fill="none" stroke-linecap="round"></path><path d="M 142.500,96.000 C 147.077,92.594 146.951,92.439 151.500,89.000" stroke-width="3.278" stroke="black" fill="none" stroke-linecap="round"></path><path d="M 151.500,89.000 C 154.819,85.761 155.077,86.094 158.500,83.000" stroke-width="3.988" stroke="black" fill="none" stroke-linecap="round"></path><path d="M 158.500,83.000 C 167.500,75.920 162.819,79.761 167.500,77.000" stroke-width="3.524" stroke="black" fill="none" stroke-linecap="round"></path><path d="M 167.500,77.000 C 163.049,82.541 167.500,78.420 158.500,88.000" stroke-width="4.230" stroke="black" fill="none" stroke-linecap="round"></path><path d="M 158.500,88.000 C 153.289,94.766 153.049,94.541 147.500,101.000" stroke-width="3.125" stroke="black" fill="none" stroke-linecap="round"></path><path d="M 147.500,101.000 C 139.751,108.266 140.289,108.766 132.500,116.000" stroke-width="2.661" stroke="black" fill="none" stroke-linecap="round"></path><path d="M 132.500,116.000 C 125.249,124.734 124.751,124.266 117.500,133.000" stroke-width="2.539" stroke="black" fill="none" stroke-linecap="round"></path><path d="M 117.500,133.000 C 109.875,140.379 110.249,140.734 102.500,148.000" stroke-width="2.513" stroke="black" fill="none" stroke-linecap="round"></path><path d="M 102.500,148.000 C 95.477,156.506 94.875,155.879 87.500,164.000" stroke-width="2.529" stroke="black" fill="none" stroke-linecap="round"></path><path d="M 87.500,164.000 C 78.622,171.652 78.977,172.006 69.500,179.000" stroke-width="2.286" stroke="black" fill="none" stroke-linecap="round"></path><path d="M 69.500,179.000 C 60.884,186.565 60.622,186.152 51.500,193.000" stroke-width="2.419" stroke="black" fill="none" stroke-linecap="round"></path><path d="M 51.500,193.000 C 43.130,198.239 43.384,198.565 34.500,203.000" stroke-width="2.546" stroke="black" fill="none" stroke-linecap="round"></path><path d="M 34.500,203.000 C 28.651,206.364 28.630,206.239 22.500,209.000" stroke-width="2.828" stroke="black" fill="none" stroke-linecap="round"></path><path d="M 22.500,209.000 C 18.084,210.854 18.151,210.864 13.500,212.000" stroke-width="3.377" stroke="black" fill="none" stroke-linecap="round"></path><path d="M 13.500,212.000 C 9.066,214.283 10.084,212.854 6.500,213.000" stroke-width="3.728" stroke="black" fill="none" stroke-linecap="round"></path><path d="M 6.500,213.000 C 2.533,209.515 4.066,211.783 3.500,207.000" stroke-width="4.505" stroke="black" fill="none" stroke-linecap="round"></path><path d="M 3.500,207.000 C 7.332,203.290 5.033,203.015 11.500,200.000" stroke-width="3.937" stroke="black" fill="none" stroke-linecap="round"></path><path d="M 11.500,200.000 C 16.846,195.770 16.832,195.790 22.500,192.000" stroke-width="3.263" stroke="black" fill="none" stroke-linecap="round"></path><path d="M 22.500,192.000 C 28.814,187.666 28.846,187.770 35.500,184.000" stroke-width="3.048" stroke="black" fill="none" stroke-linecap="round"></path><path d="M 35.500,184.000 C 44.450,179.396 44.314,179.166 53.500,175.000" stroke-width="2.701" stroke="black" fill="none" stroke-linecap="round"></path><path d="M 53.500,175.000 C 62.224,171.414 61.950,170.896 70.500,167.000" stroke-width="2.620" stroke="black" fill="none" stroke-linecap="round"></path><path d="M 70.500,167.000 C 76.824,162.683 77.224,163.414 83.500,159.000" stroke-width="2.796" stroke="black" fill="none" stroke-linecap="round"></path><path d="M 83.500,159.000 C 91.500,155.000 91.324,154.683 99.500,151.000" stroke-width="2.696" stroke="black" fill="none" stroke-linecap="round"></path><path d="M 99.500,151.000 C 106.553,147.602 106.500,147.500 113.500,144.000" stroke-width="3.002" stroke="black" fill="none" stroke-linecap="round"></path><path d="M 113.500,144.000 C 119.961,140.425 120.053,140.602 126.500,137.000" stroke-width="3.008" stroke="black" fill="none" stroke-linecap="round"></path><path d="M 126.500,137.000 C 130.365,134.654 130.461,134.925 134.500,133.000" stroke-width="3.404" stroke="black" fill="none" stroke-linecap="round"></path><path d="M 134.500,133.000 C 138.117,132.301 137.865,131.654 141.500,131.000" stroke-width="3.715" stroke="black" fill="none" stroke-linecap="round"></path><path d="M 141.500,131.000 C 148.301,128.801 144.617,129.801 147.500,128.000" stroke-width="4.324" stroke="black" fill="none" stroke-linecap="round"></path><path d="M 147.500,128.000 C 142.216,126.168 146.301,126.801 137.500,127.000" stroke-width="4.778" stroke="black" fill="none" stroke-linecap="round"></path><path d="M 137.500,127.000 C 134.000,129.000 133.716,127.668 130.500,131.000" stroke-width="4.001" stroke="black" fill="none" stroke-linecap="round"></path><path d="M 130.500,131.000 C 126.982,132.969 127.000,133.000 123.500,135.000" stroke-width="3.869" stroke="black" fill="none" stroke-linecap="round"></path><path d="M 123.500,135.000 C 120.760,136.192 120.982,136.469 118.500,138.000" stroke-width="4.127" stroke="black" fill="none" stroke-linecap="round"></path><path d="M 118.500,138.000 C 116.000,140.500 115.760,140.192 113.500,143.000" stroke-width="3.966" stroke="black" fill="none" stroke-linecap="round"></path><path d="M 113.500,143.000 C 110.692,145.260 111.000,145.500 108.500,148.000" stroke-width="4.059" stroke="black" fill="none" stroke-linecap="round"></path><path d="M 108.500,148.000 C 106.567,150.333 106.692,150.260 105.500,153.000" stroke-width="4.149" stroke="black" fill="none" stroke-linecap="round"></path><path d="M 105.500,153.000 C 104.099,155.594 104.567,155.333 104.500,158.000" stroke-width="4.230" stroke="black" fill="none" stroke-linecap="round"></path><path d="M 104.500,158.000 C 104.998,162.776 105.099,161.594 107.500,165.000" stroke-width="4.479" stroke="black" fill="none" stroke-linecap="round"></path><path d="M 107.500,165.000 C 110.476,165.784 109.498,166.776 113.500,166.000" stroke-width="4.238" stroke="black" fill="none" stroke-linecap="round"></path><path d="M 113.500,166.000 C 117.516,166.249 117.476,166.284 121.500,166.000" stroke-width="3.940" stroke="black" fill="none" stroke-linecap="round"></path><path d="M 121.500,166.000 C 125.979,166.657 125.516,165.749 129.500,165.000" stroke-width="3.852" stroke="black" fill="none" stroke-linecap="round"></path><path d="M 129.500,165.000 C 134.077,161.594 134.479,162.657 138.500,158.000" stroke-width="3.499" stroke="black" fill="none" stroke-linecap="round"></path><path d="M 138.500,158.000 C 142.414,155.367 142.077,155.094 145.500,152.000" stroke-width="3.548" stroke="black" fill="none" stroke-linecap="round"></path><path d="M 145.500,152.000 C 147.565,149.041 147.914,149.367 149.500,146.000" stroke-width="3.820" stroke="black" fill="none" stroke-linecap="round"></path><path d="M 149.500,146.000 C 153.642,142.523 151.065,143.541 152.500,141.000" stroke-width="4.071" stroke="black" fill="none" stroke-linecap="round"></path><path d="M 152.500,141.000 C 147.835,138.000 150.642,138.523 143.500,138.000" stroke-width="4.629" stroke="black" fill="none" stroke-linecap="round"></path><path d="M 143.500,138.000 C 140.760,139.192 140.835,138.000 138.500,141.000" stroke-width="4.262" stroke="black" fill="none" stroke-linecap="round"></path><path d="M 138.500,141.000 C 135.692,143.260 135.760,143.192 133.500,146.000" stroke-width="4.055" stroke="black" fill="none" stroke-linecap="round"></path><path d="M 133.500,146.000 C 131.612,148.332 131.692,148.260 130.500,151.000" stroke-width="4.102" stroke="black" fill="none" stroke-linecap="round"></path><path d="M 130.500,151.000 C 127.430,155.592 129.112,154.332 128.500,158.000" stroke-width="4.427" stroke="black" fill="none" stroke-linecap="round"></path><path d="M 128.500,158.000 C 131.588,160.243 129.430,160.092 134.500,160.000" stroke-width="4.894" stroke="black" fill="none" stroke-linecap="round"></path><path d="M 134.500,160.000 C 138.916,156.208 137.588,159.743 140.500,157.000" stroke-width="4.755" stroke="black" fill="none" stroke-linecap="round"></path><path d="M 140.500,157.000 C 139.149,161.108 141.916,157.708 140.500,163.000" stroke-width="5.158" stroke="black" fill="none" stroke-linecap="round"></path><path d="M 140.500,163.000 C 143.053,164.350 141.649,164.608 145.500,164.000" stroke-width="4.955" stroke="black" fill="none" stroke-linecap="round"></path><path d="M 145.500,164.000 C 150.375,163.250 150.053,163.350 154.500,161.000" stroke-width="3.864" stroke="black" fill="none" stroke-linecap="round"></path><path d="M 154.500,161.000 C 161.206,156.775 161.375,157.250 167.500,152.000" stroke-width="3.146" stroke="black" fill="none" stroke-linecap="round"></path><path d="M 167.500,152.000 C 176.115,146.138 175.706,145.775 183.500,139.000" stroke-width="2.698" stroke="black" fill="none" stroke-linecap="round"></path><path d="M 183.500,139.000 C 190.483,130.985 191.115,131.638 197.500,123.000" stroke-width="2.494" stroke="black" fill="none" stroke-linecap="round"></path><path d="M 197.500,123.000 C 205.427,114.841 204.983,114.485 212.500,106.000" stroke-width="2.375" stroke="black" fill="none" stroke-linecap="round"></path><path d="M 212.500,106.000 C 218.636,96.712 219.427,97.341 225.500,88.000" stroke-width="2.420" stroke="black" fill="none" stroke-linecap="round"></path><path d="M 225.500,88.000 C 231.944,80.450 231.636,80.212 238.500,73.000" stroke-width="2.540" stroke="black" fill="none" stroke-linecap="round"></path><path d="M 238.500,73.000 C 243.104,68.090 242.944,67.950 247.500,63.000" stroke-width="2.880" stroke="black" fill="none" stroke-linecap="round"></path><path d="M 247.500,63.000 C 257.183,54.807 252.604,57.090 257.500,51.000" stroke-width="3.478" stroke="black" fill="none" stroke-linecap="round"></path><path d="M 257.500,51.000 C 252.164,48.754 257.683,48.807 248.500,51.000" stroke-width="4.273" stroke="black" fill="none" stroke-linecap="round"></path><path d="M 248.500,51.000 C 237.077,60.064 236.664,58.254 226.500,70.000" stroke-width="3.322" stroke="black" fill="none" stroke-linecap="round"></path><path d="M 226.500,70.000 C 220.548,75.636 220.577,75.564 215.500,82.000" stroke-width="3.164" stroke="black" fill="none" stroke-linecap="round"></path><path d="M 215.500,82.000 C 209.466,90.477 209.048,90.136 203.500,99.000" stroke-width="2.624" stroke="black" fill="none" stroke-linecap="round"></path><path d="M 203.500,99.000 C 199.050,105.535 198.966,105.477 194.500,112.000" stroke-width="2.764" stroke="black" fill="none" stroke-linecap="round"></path><path d="M 194.500,112.000 C 189.575,119.055 189.550,119.035 184.500,126.000" stroke-width="2.726" stroke="black" fill="none" stroke-linecap="round"></path><path d="M 184.500,126.000 C 180.045,132.034 180.075,132.055 175.500,138.000" stroke-width="2.848" stroke="black" fill="none" stroke-linecap="round"></path><path d="M 175.500,138.000 C 171.920,142.440 172.045,142.534 168.500,147.000" stroke-width="3.284" stroke="black" fill="none" stroke-linecap="round"></path><path d="M 168.500,147.000 C 166.215,150.682 165.920,150.440 163.500,154.000" stroke-width="3.537" stroke="black" fill="none" stroke-linecap="round"></path><path d="M 163.500,154.000 C 158.539,157.039 161.715,156.182 159.500,158.000" stroke-width="3.949" stroke="black" fill="none" stroke-linecap="round"></path><path d="M 159.500,158.000 C 164.516,160.328 161.039,159.539 168.500,159.000" stroke-width="4.592" stroke="black" fill="none" stroke-linecap="round"></path><path d="M 168.500,159.000 C 172.835,155.266 173.516,157.328 177.500,152.000" stroke-width="3.660" stroke="black" fill="none" stroke-linecap="round"></path><path d="M 177.500,152.000 C 183.267,148.856 182.835,148.266 188.500,145.000" stroke-width="3.249" stroke="black" fill="none" stroke-linecap="round"></path><path d="M 188.500,145.000 C 192.329,141.277 192.767,141.856 196.500,138.000" stroke-width="3.394" stroke="black" fill="none" stroke-linecap="round"></path><path d="M 196.500,138.000 C 199.304,135.598 199.329,135.777 202.500,134.000" stroke-width="3.765" stroke="black" fill="none" stroke-linecap="round"></path><path d="M 202.500,134.000 C 208.130,130.520 205.304,132.598 208.500,132.000" stroke-width="4.372" stroke="black" fill="none" stroke-linecap="round"></path><path d="M 208.500,132.000 C 207.172,137.385 209.130,134.520 204.500,142.000" stroke-width="4.279" stroke="black" fill="none" stroke-linecap="round"></path><path d="M 204.500,142.000 C 200.808,146.369 201.672,146.885 197.500,151.000" stroke-width="3.531" stroke="black" fill="none" stroke-linecap="round"></path><path d="M 197.500,151.000 C 195.699,153.362 195.808,153.369 194.500,156.000" stroke-width="3.967" stroke="black" fill="none" stroke-linecap="round"></path><path d="M 194.500,156.000 C 190.782,161.844 193.199,158.862 192.500,162.000" stroke-width="4.480" stroke="black" fill="none" stroke-linecap="round"></path><path d="M 192.500,162.000 C 199.608,160.535 196.282,162.344 205.500,157.000" stroke-width="4.099" stroke="black" fill="none" stroke-linecap="round"></path><path d="M 205.500,157.000 C 211.178,151.552 212.108,153.035 217.500,147.000" stroke-width="3.205" stroke="black" fill="none" stroke-linecap="round"></path><path d="M 217.500,147.000 C 223.981,142.968 223.678,142.552 230.500,139.000" stroke-width="2.969" stroke="black" fill="none" stroke-linecap="round"></path><path d="M 230.500,139.000 C 235.474,135.956 235.481,135.968 240.500,133.000" stroke-width="3.217" stroke="black" fill="none" stroke-linecap="round"></path><path d="M 240.500,133.000 C 247.296,127.774 243.974,130.956 247.500,129.000" stroke-width="3.566" stroke="black" fill="none" stroke-linecap="round"></path><path d="M 247.500,129.000 C 244.900,134.292 247.796,130.774 241.500,139.000" stroke-width="4.344" stroke="black" fill="none" stroke-linecap="round"></path><path d="M 241.500,139.000 C 237.932,142.943 238.400,143.292 234.500,147.000" stroke-width="3.686" stroke="black" fill="none" stroke-linecap="round"></path><path d="M 234.500,147.000 C 228.966,152.279 232.432,149.443 230.500,152.000" stroke-width="3.912" stroke="black" fill="none" stroke-linecap="round"></path><path d="M 230.500,152.000 C 238.599,149.436 234.466,151.279 245.500,145.000" stroke-width="4.313" stroke="black" fill="none" stroke-linecap="round"></path><path d="M 245.500,145.000 C 252.056,139.565 252.599,140.436 258.500,134.000" stroke-width="3.138" stroke="black" fill="none" stroke-linecap="round"></path><path d="M 258.500,134.000 C 262.809,129.753 263.056,130.065 267.500,126.000" stroke-width="3.188" stroke="black" fill="none" stroke-linecap="round"></path><path d="M 267.500,126.000 C 273.500,120.854 270.309,123.753 273.500,122.000" stroke-width="3.685" stroke="black" fill="none" stroke-linecap="round"></path><path d="M 273.500,122.000 C 270.944,127.326 273.500,123.854 267.500,132.000" stroke-width="4.395" stroke="black" fill="none" stroke-linecap="round"></path><path d="M 267.500,132.000 C 263.443,136.451 263.944,136.826 259.500,141.000" stroke-width="3.492" stroke="black" fill="none" stroke-linecap="round"></path><path d="M 259.500,141.000 C 256.714,143.802 256.943,143.951 254.500,147.000" stroke-width="3.738" stroke="black" fill="none" stroke-linecap="round"></path><path d="M 254.500,147.000 C 249.930,152.290 252.214,150.302 250.500,154.000" stroke-width="4.270" stroke="black" fill="none" stroke-linecap="round"></path><path d="M 250.500,154.000 C 253.500,153.500 250.930,155.290 256.500,153.000" stroke-width="4.940" stroke="black" fill="none" stroke-linecap="round"></path><path d="M 256.500,153.000 C 259.852,153.324 259.500,152.500 262.500,152.000" stroke-width="5.192" stroke="black" fill="none" stroke-linecap="round"></path><path d="M 262.500,152.000 C 266.680,149.217 266.852,149.824 270.500,146.000" stroke-width="3.915" stroke="black" fill="none" stroke-linecap="round"></path><path d="M 270.500,146.000 C 276.143,141.150 276.180,141.217 281.500,136.000" stroke-width="3.227" stroke="black" fill="none" stroke-linecap="round"></path><path d="M 281.500,136.000 C 289.125,128.621 289.143,128.650 296.500,121.000" stroke-width="2.615" stroke="black" fill="none" stroke-linecap="round"></path><path d="M 296.500,121.000 C 304.265,113.233 304.125,113.121 311.500,105.000" stroke-width="2.559" stroke="black" fill="none" stroke-linecap="round"></path><path d="M 311.500,105.000 C 319.116,96.938 318.765,96.733 325.500,88.000" stroke-width="2.421" stroke="black" fill="none" stroke-linecap="round"></path><path d="M 325.500,88.000 C 331.116,79.068 331.616,79.438 336.500,70.000" stroke-width="2.537" stroke="black" fill="none" stroke-linecap="round"></path><path d="M 336.500,70.000 C 340.900,63.199 340.616,63.068 344.500,56.000" stroke-width="2.717" stroke="black" fill="none" stroke-linecap="round"></path><path d="M 344.500,56.000 C 347.830,49.120 347.900,49.199 350.500,42.000" stroke-width="2.940" stroke="black" fill="none" stroke-linecap="round"></path><path d="M 350.500,42.000 C 352.156,37.039 352.330,37.120 353.500,32.000" stroke-width="3.301" stroke="black" fill="none" stroke-linecap="round"></path><path d="M 353.500,32.000 C 355.757,28.257 354.156,29.539 354.500,27.000" stroke-width="3.922" stroke="black" fill="none" stroke-linecap="round"></path><path d="M 354.500,27.000 C 350.385,24.654 352.757,25.257 347.500,26.000" stroke-width="4.671" stroke="black" fill="none" stroke-linecap="round"></path><path d="M 347.500,26.000 C 343.383,29.889 342.885,28.154 339.500,34.000" stroke-width="3.615" stroke="black" fill="none" stroke-linecap="round"></path><path d="M 339.500,34.000 C 334.755,38.799 334.883,38.889 330.500,44.000" stroke-width="3.204" stroke="black" fill="none" stroke-linecap="round"></path><path d="M 330.500,44.000 C 325.925,49.945 325.755,49.799 321.500,56.000" stroke-width="3.050" stroke="black" fill="none" stroke-linecap="round"></path><path d="M 321.500,56.000 C 316.211,62.810 316.425,62.945 311.500,70.000" stroke-width="2.926" stroke="black" fill="none" stroke-linecap="round"></path><path d="M 311.500,70.000 C 307.033,77.520 306.711,77.310 302.500,85.000" stroke-width="2.817" stroke="black" fill="none" stroke-linecap="round"></path><path d="M 302.500,85.000 C 297.012,94.007 297.033,94.020 291.500,103.000" stroke-width="2.761" stroke="black" fill="none" stroke-linecap="round"></path><path d="M 291.500,103.000 C 287.312,109.392 287.512,109.507 283.500,116.000" stroke-width="2.900" stroke="black" fill="none" stroke-linecap="round"></path><path d="M 283.500,116.000 C 280.161,122.593 279.812,122.392 276.500,129.000" stroke-width="2.976" stroke="black" fill="none" stroke-linecap="round"></path><path d="M 276.500,129.000 C 273.838,132.909 274.161,133.093 271.500,137.000" stroke-width="3.349" stroke="black" fill="none" stroke-linecap="round"></path><path d="M 271.500,137.000 C 267.071,143.317 269.838,139.909 268.500,143.000" stroke-width="3.800" stroke="black" fill="none" stroke-linecap="round"></path><path d="M 268.500,143.000 C 274.460,138.939 271.571,142.317 280.500,135.000" stroke-width="4.428" stroke="black" fill="none" stroke-linecap="round"></path><path d="M 280.500,135.000 C 285.742,131.004 285.960,131.439 291.500,128.000" stroke-width="3.477" stroke="black" fill="none" stroke-linecap="round"></path><path d="M 291.500,128.000 C 297.381,125.142 297.242,125.004 303.500,123.000" stroke-width="3.269" stroke="black" fill="none" stroke-linecap="round"></path><path d="M 303.500,123.000 C 307.448,121.579 307.381,121.642 311.500,121.000" stroke-width="3.660" stroke="black" fill="none" stroke-linecap="round"></path><path d="M 311.500,121.000 C 315.367,119.507 314.448,120.579 317.500,121.000" stroke-width="3.903" stroke="black" fill="none" stroke-linecap="round"></path><path d="M 317.500,121.000 C 322.437,124.815 320.367,123.007 321.500,128.000" stroke-width="4.509" stroke="black" fill="none" stroke-linecap="round"></path><path d="M 321.500,128.000 C 317.355,133.366 319.937,133.315 312.500,138.000" stroke-width="3.383" stroke="black" fill="none" stroke-linecap="round"></path><path d="M 312.500,138.000 C 306.303,143.898 306.355,143.866 299.500,149.000" stroke-width="2.894" stroke="black" fill="none" stroke-linecap="round"></path><path d="M 299.500,149.000 C 290.465,156.306 290.303,155.898 280.500,162.000" stroke-width="2.582" stroke="black" fill="none" stroke-linecap="round"></path><path d="M 280.500,162.000 C 269.230,168.037 269.465,168.306 257.500,173.000" stroke-width="2.453" stroke="black" fill="none" stroke-linecap="round"></path><path d="M 257.500,173.000 C 243.349,179.689 243.230,179.037 228.500,184.000" stroke-width="2.049" stroke="black" fill="none" stroke-linecap="round"></path><path d="M 228.500,184.000 C 212.152,188.515 212.349,188.689 195.500,191.000" stroke-width="1.875" stroke="black" fill="none" stroke-linecap="round"></path><path d="M 195.500,191.000 C 178.533,193.249 178.652,193.515 161.500,194.000" stroke-width="1.872" stroke="black" fill="none" stroke-linecap="round"></path><path d="M 161.500,194.000 C 144.298,195.809 144.533,194.749 127.500,194.000" stroke-width="1.821" stroke="black" fill="none" stroke-linecap="round"></path><path d="M 127.500,194.000 C 111.553,191.828 111.798,192.309 96.500,187.000" stroke-width="1.916" stroke="black" fill="none" stroke-linecap="round"></path><path d="M 96.500,187.000 C 84.352,183.657 85.053,183.328 74.500,177.000" stroke-width="2.184" stroke="black" fill="none" stroke-linecap="round"></path><path d="M 74.500,177.000 C 65.289,170.530 65.852,171.157 59.500,162.000" stroke-width="2.343" stroke="black" fill="none" stroke-linecap="round"></path><path d="M 59.500,162.000 C 55.714,155.619 55.789,156.530 55.500,149.000" stroke-width="2.840" stroke="black" fill="none" stroke-linecap="round"></path><path d="M 55.500,149.000 C 53.798,138.249 55.214,140.119 58.500,131.000" stroke-width="2.688" stroke="black" fill="none" stroke-linecap="round"></path><path d="M 58.500,131.000 C 68.282,120.578 65.798,119.749 79.500,112.000" stroke-width="2.256" stroke="black" fill="none" stroke-linecap="round"></path><path d="M 79.500,112.000 C 93.603,100.304 93.782,101.078 109.500,92.000" stroke-width="2.076" stroke="black" fill="none" stroke-linecap="round"></path><path d="M 109.500,92.000 C 127.637,83.447 127.103,82.804 146.500,77.000" stroke-width="1.782" stroke="black" fill="none" stroke-linecap="round"></path><path d="M 146.500,77.000 C 167.312,70.232 167.137,69.947 188.500,65.000" stroke-width="1.581" stroke="black" fill="none" stroke-linecap="round"></path><path d="M 188.500,65.000 C 207.897,60.398 207.812,60.232 227.500,57.000" stroke-width="1.603" stroke="black" fill="none" stroke-linecap="round"></path><path d="M 227.500,57.000 C 245.426,53.643 245.397,53.898 263.500,52.000" stroke-width="1.683" stroke="black" fill="none" stroke-linecap="round"></path><path d="M 263.500,52.000 C 278.497,51.306 278.426,50.643 293.500,51.000" stroke-width="1.865" stroke="black" fill="none" stroke-linecap="round"></path><path d="M 293.500,51.000 C 303.064,50.349 302.997,50.806 312.500,51.000" stroke-width="2.356" stroke="black" fill="none" stroke-linecap="round"></path><path d="M 312.500,51.000 C 318.579,50.587 317.564,51.349 322.500,53.000" stroke-width="3.064" stroke="black" fill="none" stroke-linecap="round"></path><path d="M 322.500,53.000 C 326.077,55.972 325.079,54.587 325.500,59.000" stroke-width="3.642" stroke="black" fill="none" stroke-linecap="round"></path><path d="M 325.500,59.000 C 323.868,67.939 324.077,66.472 318.500,74.000" stroke-width="2.980" stroke="black" fill="none" stroke-linecap="round"></path><path d="M 318.500,74.000 C 307.034,84.715 308.368,85.439 294.500,94.000" stroke-width="2.384" stroke="black" fill="none" stroke-linecap="round"></path><path d="M 294.500,94.000 C 280.060,104.965 280.034,104.715 264.500,114.000" stroke-width="1.945" stroke="black" fill="none" stroke-linecap="round"></path><path d="M 264.500,114.000 C 248.955,123.099 249.060,122.965 232.500,130.000" stroke-width="1.850" stroke="black" fill="none" stroke-linecap="round"></path><path d="M 232.500,130.000 C 217.634,135.460 217.955,136.099 202.500,140.000" stroke-width="1.822" stroke="black" fill="none" stroke-linecap="round"></path><path d="M 202.500,140.000 C 192.620,143.265 192.634,142.960 182.500,145.000" stroke-width="2.272" stroke="black" fill="none" stroke-linecap="round"></path><path d="M 182.500,145.000 C 175.006,145.674 175.120,146.265 167.500,146.000" stroke-width="2.678" stroke="black" fill="none" stroke-linecap="round"></path><path d="M 167.500,146.000 C 161.500,148.000 163.506,146.174 159.500,146.000" stroke-width="3.348" stroke="black" fill="none" stroke-linecap="round"></path><path d="M 355.500,138.000 C 348.500,139.500 352.000,139.500 348.500,141.000" stroke-width="5.017" stroke="black" fill="none" stroke-linecap="round"></path><path d="M 348.500,141.000 C 351.825,143.352 348.500,142.500 355.500,144.000" stroke-width="4.930" stroke="black" fill="none" stroke-linecap="round"></path><path d="M 355.500,144.000 C 360.573,144.643 360.325,144.852 365.500,144.000" stroke-width="3.869" stroke="black" fill="none" stroke-linecap="round"></path><path d="M 365.500,144.000 C 372.140,142.957 372.073,143.143 378.500,141.000" stroke-width="3.399" stroke="black" fill="none" stroke-linecap="round"></path><path d="M 378.500,141.000 C 384.900,138.200 385.140,138.957 391.500,136.000" stroke-width="3.115" stroke="black" fill="none" stroke-linecap="round"></path><path d="M 391.500,136.000 C 398.400,133.479 398.400,133.700 405.500,132.000" stroke-width="3.055" stroke="black" fill="none" stroke-linecap="round"></path><path d="M 405.500,132.000 C 410.490,131.295 410.400,130.979 415.500,131.000" stroke-width="3.423" stroke="black" fill="none" stroke-linecap="round"></path><path d="M 415.500,131.000 C 419.772,129.636 418.990,130.795 422.500,131.000" stroke-width="3.752" stroke="black" fill="none" stroke-linecap="round"></path><path d="M 422.500,131.000 C 423.667,133.760 424.772,132.136 425.500,136.000" stroke-width="4.580" stroke="black" fill="none" stroke-linecap="round"></path><path d="M 425.500,136.000 C 427.798,140.694 428.167,139.260 431.500,142.000" stroke-width="4.747" stroke="black" fill="none" stroke-linecap="round"></path><path d="M 431.500,142.000 C 437.045,142.496 436.298,143.694 442.500,142.000" stroke-width="3.729" stroke="black" fill="none" stroke-linecap="round"></path><path d="M 442.500,142.000 C 448.071,141.277 448.045,141.496 453.500,140.000" stroke-width="3.488" stroke="black" fill="none" stroke-linecap="round"></path><path d="M 453.500,140.000 C 459.940,138.659 456.571,139.277 459.500,138.000" stroke-width="3.851" stroke="black" fill="none" stroke-linecap="round"></path><path d="M 459.500,138.000 C 455.490,136.715 458.940,137.159 451.500,137.000" stroke-width="4.358" stroke="black" fill="none" stroke-linecap="round"></path><path d="M 451.500,137.000 C 441.466,138.299 441.490,137.715 431.500,140.000" stroke-width="2.930" stroke="black" fill="none" stroke-linecap="round"></path><path d="M 431.500,140.000 C 421.052,142.321 420.966,141.799 410.500,144.000" stroke-width="3.252" stroke="black" fill="none" stroke-linecap="round"></path><path d="M 410.500,144.000 C 399.043,145.996 399.052,145.821 387.500,147.000" stroke-width="2.587" stroke="black" fill="none" stroke-linecap="round"></path><path d="M 387.500,147.000 C 376.005,147.750 376.043,147.996 364.500,148.000" stroke-width="2.446" stroke="black" fill="none" stroke-linecap="round"></path><path d="M 364.500,148.000 C 353.000,148.000 353.005,148.250 341.500,148.000" stroke-width="2.347" stroke="black" fill="none" stroke-linecap="round"></path><path d="M 341.500,148.000 C 331.000,148.000 331.000,148.000 320.500,148.000" stroke-width="2.516" stroke="black" fill="none" stroke-linecap="round"></path><path d="M 320.500,148.000 C 312.662,146.383 313.000,148.000 305.500,148.000" stroke-width="2.829" stroke="black" fill="none" stroke-linecap="round"></path></svg>