<svg xmlns="http://www.w3.org/2000/svg" xmlns:xlink="http://www.w3.org/1999/xlink" viewBox="0 0 1460 576" width="1460" height="576"><path d="M 681.000,202.000 C 694.560,202.653 694.000,204.500 707.000,207.000" stroke-width="4.567" stroke="black" fill="none" stroke-linecap="round"></path><path d="M 707.000,207.000 C 736.388,217.369 736.060,217.153 764.000,231.000" stroke-width="1.556" stroke="black" fill="none" stroke-linecap="round"></path><path d="M 764.000,231.000 C 774.780,238.860 775.888,236.869 786.000,246.000" stroke-width="1.907" stroke="black" fill="none" stroke-linecap="round"></path><path d="M 786.000,246.000 C 792.261,248.019 791.280,249.360 797.000,252.000" stroke-width="2.714" stroke="black" fill="none" stroke-linecap="round"></path><path d="M 797.000,252.000 C 803.657,259.845 804.761,258.519 811.000,267.000" stroke-width="3.177" stroke="black" fill="none" stroke-linecap="round"></path><path d="M 811.000,267.000 C 822.461,280.093 823.157,278.845 836.000,290.000" stroke-width="2.882" stroke="black" fill="none" stroke-linecap="round"></path><path d="M 836.000,290.000 C 844.193,293.096 842.961,295.093 852.000,297.000" stroke-width="2.806" stroke="black" fill="none" stroke-linecap="round"></path><path d="M 852.000,297.000 C 876.811,310.405 877.193,309.596 902.000,323.000" stroke-width="2.285" stroke="black" fill="none" stroke-linecap="round"></path><path d="M 902.000,323.000 C 908.063,325.362 907.811,325.905 914.000,328.000" stroke-width="2.893" stroke="black" fill="none" stroke-linecap="round"></path></svg>