<svg xmlns="http://www.w3.org/2000/svg" xmlns:xlink="http://www.w3.org/1999/xlink" viewBox="0 0 1460 576" width="1460" height="576"><path d="M 533.000,353.000 C 525.983,352.676 526.000,352.500 519.000,352.000" stroke-width="4.981" stroke="black" fill="none" stroke-linecap="round"></path><path d="M 519.000,352.000 C 510.417,351.451 510.483,351.176 502.000,350.000" stroke-width="3.147" stroke="black" fill="none" stroke-linecap="round"></path><path d="M 502.000,350.000 C 495.228,350.109 495.917,348.951 490.000,347.000" stroke-width="3.222" stroke="black" fill="none" stroke-linecap="round"></path><path d="M 490.000,347.000 C 477.601,337.361 476.728,339.109 465.000,328.000" stroke-width="2.166" stroke="black" fill="none" stroke-linecap="round"></path><path d="M 465.000,328.000 C 460.029,324.457 460.101,324.361 455.000,321.000" stroke-width="2.838" stroke="black" fill="none" stroke-linecap="round"></path><path d="M 455.000,321.000 C 452.149,318.717 452.029,318.957 449.000,317.000" stroke-width="3.494" stroke="black" fill="none" stroke-linecap="round"></path><path d="M 449.000,317.000 C 443.187,316.138 446.649,315.717 444.000,315.000" stroke-width="4.312" stroke="black" fill="none" stroke-linecap="round"></path><path d="M 444.000,315.000 C 448.777,311.934 445.687,312.638 454.000,310.000" stroke-width="4.958" stroke="black" fill="none" stroke-linecap="round"></path><path d="M 454.000,310.000 C 463.066,308.734 462.277,306.934 471.000,305.000" stroke-width="3.178" stroke="black" fill="none" stroke-linecap="round"></path><path d="M 471.000,305.000 C 480.249,300.459 480.066,300.734 488.000,294.000" stroke-width="2.724" stroke="black" fill="none" stroke-linecap="round"></path><path d="M 488.000,294.000 C 505.469,281.134 504.249,280.459 519.000,265.000" stroke-width="1.834" stroke="black" fill="none" stroke-linecap="round"></path><path d="M 519.000,265.000 C 528.749,247.976 531.469,250.134 540.000,232.000" stroke-width="1.741" stroke="black" fill="none" stroke-linecap="round"></path><path d="M 540.000,232.000 C 553.744,212.307 553.749,212.476 569.000,194.000" stroke-width="2.120" stroke="black" fill="none" stroke-linecap="round"></path><path d="M 569.000,194.000 C 574.094,188.480 573.744,188.307 580.000,184.000" stroke-width="2.621" stroke="black" fill="none" stroke-linecap="round"></path><path d="M 580.000,184.000 C 589.855,179.014 588.594,177.480 598.000,172.000" stroke-width="2.456" stroke="black" fill="none" stroke-linecap="round"></path><path d="M 598.000,172.000 C 607.476,162.888 607.855,163.514 616.000,153.000" stroke-width="2.921" stroke="black" fill="none" stroke-linecap="round"></path><path d="M 616.000,153.000 C 623.282,144.410 619.976,148.388 623.000,143.000" stroke-width="3.159" stroke="black" fill="none" stroke-linecap="round"></path><path d="M 623.000,143.000 C 618.019,144.504 622.782,141.910 615.000,148.000" stroke-width="4.362" stroke="black" fill="none" stroke-linecap="round"></path><path d="M 615.000,148.000 C 609.803,156.710 608.519,155.504 604.000,165.000" stroke-width="2.768" stroke="black" fill="none" stroke-linecap="round"></path><path d="M 604.000,165.000 C 594.330,175.783 595.803,176.710 587.000,188.000" stroke-width="2.262" stroke="black" fill="none" stroke-linecap="round"></path><path d="M 587.000,188.000 C 577.068,203.233 577.830,203.283 571.000,220.000" stroke-width="1.805" stroke="black" fill="none" stroke-linecap="round"></path><path d="M 571.000,220.000 C 563.556,257.905 558.068,255.733 549.000,293.000" stroke-width="1.223" stroke="black" fill="none" stroke-linecap="round"></path><path d="M 549.000,293.000 C 524.522,345.049 527.056,345.905 498.000,396.000" stroke-width="1.245" stroke="black" fill="none" stroke-linecap="round"></path><path d="M 498.000,396.000 C 487.170,418.680 486.522,418.049 473.000,439.000" stroke-width="1.371" stroke="black" fill="none" stroke-linecap="round"></path><path d="M 473.000,439.000 C 460.221,456.779 460.670,456.680 445.000,472.000" stroke-width="1.515" stroke="black" fill="none" stroke-linecap="round"></path><path d="M 445.000,472.000 C 434.994,482.336 435.221,481.779 423.000,489.000" stroke-width="1.901" stroke="black" fill="none" stroke-linecap="round"></path><path d="M 423.000,489.000 C 411.522,493.066 412.494,494.836 400.000,497.000" stroke-width="2.120" stroke="black" fill="none" stroke-linecap="round"></path><path d="M 400.000,497.000 C 390.852,499.615 391.022,500.066 382.000,503.000" stroke-width="2.418" stroke="black" fill="none" stroke-linecap="round"></path><path d="M 382.000,503.000 C 373.949,506.387 373.852,506.115 366.000,510.000" stroke-width="2.602" stroke="black" fill="none" stroke-linecap="round"></path><path d="M 366.000,510.000 C 357.867,515.044 357.449,513.887 349.000,518.000" stroke-width="2.705" stroke="black" fill="none" stroke-linecap="round"></path><path d="M 349.000,518.000 C 336.245,523.660 336.867,522.044 324.000,524.000" stroke-width="3.009" stroke="black" fill="none" stroke-linecap="round"></path><path d="M 324.000,524.000 C 317.870,522.409 318.245,524.160 313.000,519.000" stroke-width="3.144" stroke="black" fill="none" stroke-linecap="round"></path><path d="M 313.000,519.000 C 306.254,515.795 307.870,515.409 304.000,510.000" stroke-width="3.248" stroke="black" fill="none" stroke-linecap="round"></path><path d="M 304.000,510.000 C 296.174,487.538 295.754,488.795 292.000,465.000" stroke-width="2.548" stroke="black" fill="none" stroke-linecap="round"></path><path d="M 292.000,465.000 C 292.233,460.241 291.174,460.538 294.000,456.000" stroke-width="3.186" stroke="black" fill="none" stroke-linecap="round"></path><path d="M 294.000,456.000 C 301.734,435.700 302.233,436.241 312.000,417.000" stroke-width="1.876" stroke="black" fill="none" stroke-linecap="round"></path><path d="M 312.000,417.000 C 315.563,409.337 315.734,410.200 322.000,405.000" stroke-width="2.508" stroke="black" fill="none" stroke-linecap="round"></path><path d="M 322.000,405.000 C 362.462,373.148 363.063,377.337 407.000,353.000" stroke-width="1.613" stroke="black" fill="none" stroke-linecap="round"></path><path d="M 407.000,353.000 C 427.447,349.841 425.462,344.648 448.000,348.000" stroke-width="1.632" stroke="black" fill="none" stroke-linecap="round"></path><path d="M 448.000,348.000 C 460.994,347.000 460.947,346.841 474.000,347.000" stroke-width="1.958" stroke="black" fill="none" stroke-linecap="round"></path><path d="M 474.000,347.000 C 507.071,346.520 506.994,347.000 540.000,348.000" stroke-width="1.926" stroke="black" fill="none" stroke-linecap="round"></path><path d="M 540.000,348.000 C 551.516,349.388 551.571,348.520 563.000,351.000" stroke-width="2.171" stroke="black" fill="none" stroke-linecap="round"></path><path d="M 563.000,351.000 C 580.013,353.415 580.016,353.388 597.000,356.000" stroke-width="1.887" stroke="black" fill="none" stroke-linecap="round"></path><path d="M 597.000,356.000 C 602.949,357.622 603.013,356.915 609.000,358.000" stroke-width="2.721" stroke="black" fill="none" stroke-linecap="round"></path><path d="M 609.000,358.000 C 619.152,358.788 618.949,358.622 629.000,358.000" stroke-width="3.225" stroke="black" fill="none" stroke-linecap="round"></path><path d="M 629.000,358.000 C 631.716,357.370 631.652,357.788 634.000,356.000" stroke-width="3.893" stroke="black" fill="none" stroke-linecap="round"></path><path d="M 634.000,356.000 C 637.299,354.658 636.716,354.370 639.000,352.000" stroke-width="4.026" stroke="black" fill="none" stroke-linecap="round"></path><path d="M 639.000,352.000 C 649.005,340.947 645.299,342.158 650.000,331.000" stroke-width="3.468" stroke="black" fill="none" stroke-linecap="round"></path><path d="M 650.000,331.000 C 646.817,325.296 650.505,325.947 642.000,322.000" stroke-width="3.901" stroke="black" fill="none" stroke-linecap="round"></path><path d="M 642.000,322.000 C 636.573,319.760 637.317,318.796 631.000,318.000" stroke-width="3.543" stroke="black" fill="none" stroke-linecap="round"></path><path d="M 631.000,318.000 C 627.009,316.962 627.073,316.760 623.000,316.000" stroke-width="3.603" stroke="black" fill="none" stroke-linecap="round"></path><path d="M 623.000,316.000 C 614.332,314.564 614.509,313.962 606.000,312.000" stroke-width="2.980" stroke="black" fill="none" stroke-linecap="round"></path><path d="M 606.000,312.000 C 595.147,307.520 594.832,308.564 584.000,304.000" stroke-width="3.218" stroke="black" fill="none" stroke-linecap="round"></path><path d="M 584.000,304.000 C 575.864,300.000 576.147,301.520 568.000,300.000" stroke-width="2.955" stroke="black" fill="none" stroke-linecap="round"></path><path d="M 568.000,300.000 C 562.687,301.422 562.864,300.000 558.000,304.000" stroke-width="3.229" stroke="black" fill="none" stroke-linecap="round"></path><path d="M 558.000,304.000 C 551.168,306.072 552.687,306.922 548.000,311.000" stroke-width="3.260" stroke="black" fill="none" stroke-linecap="round"></path><path d="M 548.000,311.000 C 542.768,321.273 542.168,320.072 540.000,332.000" stroke-width="3.320" stroke="black" fill="none" stroke-linecap="round"></path><path d="M 540.000,332.000 C 539.707,337.021 538.768,336.773 540.000,342.000" stroke-width="3.472" stroke="black" fill="none" stroke-linecap="round"></path><path d="M 540.000,342.000 C 540.145,345.579 540.207,345.521 541.000,349.000" stroke-width="3.762" stroke="black" fill="none" stroke-linecap="round"></path><path d="M 541.000,349.000 C 540.371,357.727 542.645,355.579 545.000,362.000" stroke-width="3.353" stroke="black" fill="none" stroke-linecap="round"></path><path d="M 545.000,362.000 C 556.284,372.054 553.371,369.727 567.000,373.000" stroke-width="3.261" stroke="black" fill="none" stroke-linecap="round"></path><path d="M 567.000,373.000 C 573.306,369.408 573.284,373.554 579.000,365.000" stroke-width="3.043" stroke="black" fill="none" stroke-linecap="round"></path><path d="M 579.000,365.000 C 590.302,358.509 588.806,357.408 598.000,349.000" stroke-width="2.470" stroke="black" fill="none" stroke-linecap="round"></path><path d="M 598.000,349.000 C 605.681,336.097 607.302,337.509 613.000,323.000" stroke-width="2.785" stroke="black" fill="none" stroke-linecap="round"></path><path d="M 613.000,323.000 C 614.669,318.788 615.181,319.097 617.000,315.000" stroke-width="3.360" stroke="black" fill="none" stroke-linecap="round"></path><path d="M 617.000,315.000 C 619.119,312.587 618.669,312.288 621.000,310.000" stroke-width="3.876" stroke="black" fill="none" stroke-linecap="round"></path><path d="M 621.000,310.000 C 622.840,306.880 623.119,307.087 625.000,304.000" stroke-width="3.822" stroke="black" fill="none" stroke-linecap="round"></path><path d="M 625.000,304.000 C 631.477,299.662 627.340,300.880 630.000,298.000" stroke-width="4.319" stroke="black" fill="none" stroke-linecap="round"></path><path d="M 630.000,298.000 C 623.455,294.761 627.477,295.162 617.000,295.000" stroke-width="4.120" stroke="black" fill="none" stroke-linecap="round"></path><path d="M 617.000,295.000 C 609.929,296.783 609.955,295.261 603.000,299.000" stroke-width="3.220" stroke="black" fill="none" stroke-linecap="round"></path><path d="M 603.000,299.000 C 596.601,299.654 597.429,300.783 592.000,303.000" stroke-width="3.240" stroke="black" fill="none" stroke-linecap="round"></path><path d="M 592.000,303.000 C 584.925,308.073 585.601,307.654 581.000,315.000" stroke-width="3.615" stroke="black" fill="none" stroke-linecap="round"></path><path d="M 581.000,315.000 C 578.325,324.134 576.425,323.073 575.000,333.000" stroke-width="2.817" stroke="black" fill="none" stroke-linecap="round"></path><path d="M 575.000,333.000 C 572.568,335.875 573.825,336.134 572.000,339.000" stroke-width="3.914" stroke="black" fill="none" stroke-linecap="round"></path><path d="M 572.000,339.000 C 571.281,342.663 571.568,341.375 573.000,344.000" stroke-width="4.795" stroke="black" fill="none" stroke-linecap="round"></path><path d="M 573.000,344.000 C 576.914,345.697 575.781,346.163 581.000,346.000" stroke-width="4.042" stroke="black" fill="none" stroke-linecap="round"></path><path d="M 581.000,346.000 C 590.601,346.723 590.414,346.697 600.000,346.000" stroke-width="2.887" stroke="black" fill="none" stroke-linecap="round"></path><path d="M 600.000,346.000 C 603.617,345.301 603.601,345.723 607.000,344.000" stroke-width="3.550" stroke="black" fill="none" stroke-linecap="round"></path><path d="M 607.000,344.000 C 610.032,342.562 610.117,342.801 613.000,341.000" stroke-width="3.875" stroke="black" fill="none" stroke-linecap="round"></path><path d="M 613.000,341.000 C 619.547,337.585 619.532,337.562 626.000,334.000" stroke-width="3.083" stroke="black" fill="none" stroke-linecap="round"></path><path d="M 626.000,334.000 C 633.088,330.147 633.047,330.085 640.000,326.000" stroke-width="2.943" stroke="black" fill="none" stroke-linecap="round"></path><path d="M 640.000,326.000 C 647.691,320.414 648.088,321.147 656.000,316.000" stroke-width="2.743" stroke="black" fill="none" stroke-linecap="round"></path><path d="M 656.000,316.000 C 664.004,312.510 663.691,311.914 672.000,309.000" stroke-width="2.705" stroke="black" fill="none" stroke-linecap="round"></path><path d="M 672.000,309.000 C 692.616,309.313 684.504,303.510 697.000,298.000" stroke-width="2.297" stroke="black" fill="none" stroke-linecap="round"></path><path d="M 697.000,298.000 C 701.116,263.548 708.116,269.313 703.000,229.000" stroke-width="1.937" stroke="black" fill="none" stroke-linecap="round"></path><path d="M 703.000,229.000 C 703.000,208.500 704.116,208.548 703.000,188.000" stroke-width="1.777" stroke="black" fill="none" stroke-linecap="round"></path><path d="M 703.000,188.000 C 699.503,165.429 703.000,167.000 703.000,146.000" stroke-width="1.665" stroke="black" fill="none" stroke-linecap="round"></path><path d="M 703.000,146.000 C 706.975,141.198 704.003,140.429 712.000,138.000" stroke-width="3.232" stroke="black" fill="none" stroke-linecap="round"></path><path d="M 712.000,138.000 C 718.185,133.978 717.975,134.198 725.000,132.000" stroke-width="3.043" stroke="black" fill="none" stroke-linecap="round"></path><path d="M 725.000,132.000 C 733.972,130.290 733.685,129.478 743.000,129.000" stroke-width="2.740" stroke="black" fill="none" stroke-linecap="round"></path><path d="M 743.000,129.000 C 748.059,128.859 747.972,128.290 753.000,128.000" stroke-width="3.204" stroke="black" fill="none" stroke-linecap="round"></path><path d="M 753.000,128.000 C 760.069,127.696 759.559,126.859 766.000,125.000" stroke-width="3.107" stroke="black" fill="none" stroke-linecap="round"></path><path d="M 766.000,125.000 C 771.726,122.554 771.069,122.696 775.000,118.000" stroke-width="3.229" stroke="black" fill="none" stroke-linecap="round"></path><path d="M 775.000,118.000 C 782.788,105.813 783.226,106.554 789.000,93.000" stroke-width="2.272" stroke="black" fill="none" stroke-linecap="round"></path><path d="M 789.000,93.000 C 790.421,89.052 790.788,89.313 791.000,85.000" stroke-width="3.119" stroke="black" fill="none" stroke-linecap="round"></path><path d="M 791.000,85.000 C 791.761,79.254 791.421,82.052 791.000,79.000" stroke-width="4.179" stroke="black" fill="none" stroke-linecap="round"></path><path d="M 791.000,79.000 C 789.545,81.528 790.261,78.754 788.000,84.000" stroke-width="4.684" stroke="black" fill="none" stroke-linecap="round"></path><path d="M 788.000,84.000 C 784.720,89.652 784.545,89.528 781.000,95.000" stroke-width="3.522" stroke="black" fill="none" stroke-linecap="round"></path><path d="M 781.000,95.000 C 776.790,101.252 776.720,101.152 772.000,107.000" stroke-width="3.131" stroke="black" fill="none" stroke-linecap="round"></path><path d="M 772.000,107.000 C 768.816,109.832 769.290,110.252 766.000,113.000" stroke-width="3.541" stroke="black" fill="none" stroke-linecap="round"></path><path d="M 766.000,113.000 C 761.019,119.016 760.816,118.832 756.000,125.000" stroke-width="3.024" stroke="black" fill="none" stroke-linecap="round"></path><path d="M 756.000,125.000 C 748.223,134.705 748.019,134.516 740.000,144.000" stroke-width="2.466" stroke="black" fill="none" stroke-linecap="round"></path><path d="M 740.000,144.000 C 736.500,147.500 736.723,147.705 733.000,151.000" stroke-width="3.095" stroke="black" fill="none" stroke-linecap="round"></path><path d="M 733.000,151.000 C 729.710,152.939 730.500,153.500 728.000,156.000" stroke-width="3.661" stroke="black" fill="none" stroke-linecap="round"></path><path d="M 728.000,156.000 C 719.719,170.023 720.210,169.939 714.000,185.000" stroke-width="2.727" stroke="black" fill="none" stroke-linecap="round"></path><path d="M 714.000,185.000 C 710.570,198.019 709.219,197.523 707.000,211.000" stroke-width="2.253" stroke="black" fill="none" stroke-linecap="round"></path><path d="M 707.000,211.000 C 705.190,218.065 705.070,218.019 703.000,225.000" stroke-width="2.746" stroke="black" fill="none" stroke-linecap="round"></path><path d="M 703.000,225.000 C 701.407,227.356 702.190,227.565 701.000,230.000" stroke-width="3.661" stroke="black" fill="none" stroke-linecap="round"></path><path d="M 701.000,230.000 C 699.584,240.480 699.407,240.356 699.000,251.000" stroke-width="3.497" stroke="black" fill="none" stroke-linecap="round"></path><path d="M 699.000,251.000 C 698.502,258.533 698.584,258.480 699.000,266.000" stroke-width="3.125" stroke="black" fill="none" stroke-linecap="round"></path><path d="M 699.000,266.000 C 700.749,273.475 699.502,273.533 701.000,281.000" stroke-width="3.019" stroke="black" fill="none" stroke-linecap="round"></path><path d="M 701.000,281.000 C 701.406,288.691 701.249,288.475 700.000,296.000" stroke-width="2.935" stroke="black" fill="none" stroke-linecap="round"></path><path d="M 700.000,296.000 C 699.178,302.550 698.906,301.691 696.000,307.000" stroke-width="3.693" stroke="black" fill="none" stroke-linecap="round"></path><path d="M 696.000,307.000 C 691.136,307.348 694.178,309.550 690.000,310.000" stroke-width="4.503" stroke="black" fill="none" stroke-linecap="round"></path><path d="M 690.000,310.000 C 690.572,315.570 688.136,314.348 690.000,321.000" stroke-width="5.037" stroke="black" fill="none" stroke-linecap="round"></path><path d="M 690.000,321.000 C 689.779,327.814 689.572,325.070 688.000,329.000" stroke-width="4.092" stroke="black" fill="none" stroke-linecap="round"></path><path d="M 688.000,329.000 C 683.574,327.558 686.779,329.814 684.000,325.000" stroke-width="4.727" stroke="black" fill="none" stroke-linecap="round"></path><path d="M 684.000,325.000 C 686.907,311.187 686.074,312.558 693.000,299.000" stroke-width="2.569" stroke="black" fill="none" stroke-linecap="round"></path><path d="M 693.000,299.000 C 700.182,289.123 698.407,288.187 707.000,279.000" stroke-width="2.381" stroke="black" fill="none" stroke-linecap="round"></path><path d="M 707.000,279.000 C 716.309,264.369 716.682,264.623 726.000,250.000" stroke-width="1.983" stroke="black" fill="none" stroke-linecap="round"></path><path d="M 726.000,250.000 C 729.953,242.047 730.809,242.869 736.000,236.000" stroke-width="2.442" stroke="black" fill="none" stroke-linecap="round"></path><path d="M 736.000,236.000 C 750.731,222.662 749.953,222.047 766.000,210.000" stroke-width="2.519" stroke="black" fill="none" stroke-linecap="round"></path><path d="M 766.000,210.000 C 771.041,205.109 771.231,205.662 777.000,202.000" stroke-width="2.914" stroke="black" fill="none" stroke-linecap="round"></path><path d="M 777.000,202.000 C 783.671,197.159 782.541,199.109 789.000,198.000" stroke-width="3.009" stroke="black" fill="none" stroke-linecap="round"></path><path d="M 789.000,198.000 C 795.336,200.232 793.171,198.659 796.000,205.000" stroke-width="3.371" stroke="black" fill="none" stroke-linecap="round"></path><path d="M 796.000,205.000 C 802.714,241.720 800.836,239.732 800.000,277.000" stroke-width="2.095" stroke="black" fill="none" stroke-linecap="round"></path><path d="M 800.000,277.000 C 794.343,293.143 798.714,293.720 788.000,309.000" stroke-width="1.931" stroke="black" fill="none" stroke-linecap="round"></path><path d="M 788.000,309.000 C 786.017,316.261 785.343,315.643 782.000,322.000" stroke-width="2.557" stroke="black" fill="none" stroke-linecap="round"></path><path d="M 782.000,322.000 C 776.282,329.285 779.017,326.261 774.000,329.000" stroke-width="3.082" stroke="black" fill="none" stroke-linecap="round"></path><path d="M 774.000,329.000 C 772.272,324.455 772.282,328.785 774.000,321.000" stroke-width="4.151" stroke="black" fill="none" stroke-linecap="round"></path><path d="M 774.000,321.000 C 779.206,309.256 779.272,310.455 788.000,301.000" stroke-width="2.587" stroke="black" fill="none" stroke-linecap="round"></path><path d="M 788.000,301.000 C 805.313,287.735 803.706,286.256 823.000,275.000" stroke-width="1.726" stroke="black" fill="none" stroke-linecap="round"></path><path d="M 823.000,275.000 C 830.359,269.775 830.313,269.735 838.000,265.000" stroke-width="2.324" stroke="black" fill="none" stroke-linecap="round"></path><path d="M 838.000,265.000 C 846.260,259.370 846.359,259.775 855.000,255.000" stroke-width="3.050" stroke="black" fill="none" stroke-linecap="round"></path><path d="M 855.000,255.000 C 858.293,252.537 857.260,253.870 860.000,254.000" stroke-width="4.141" stroke="black" fill="none" stroke-linecap="round"></path><path d="M 860.000,254.000 C 865.634,259.987 865.293,258.537 869.000,267.000" stroke-width="3.898" stroke="black" fill="none" stroke-linecap="round"></path><path d="M 869.000,267.000 C 871.259,272.888 871.634,272.487 872.000,279.000" stroke-width="3.425" stroke="black" fill="none" stroke-linecap="round"></path><path d="M 872.000,279.000 C 872.151,298.585 873.259,289.388 873.000,300.000" stroke-width="2.663" stroke="black" fill="none" stroke-linecap="round"></path><path d="M 873.000,300.000 C 872.379,291.207 873.651,301.085 875.000,284.000" stroke-width="3.607" stroke="black" fill="none" stroke-linecap="round"></path><path d="M 875.000,284.000 C 877.697,280.642 876.379,280.207 881.000,278.000" stroke-width="4.721" stroke="black" fill="none" stroke-linecap="round"></path><path d="M 881.000,278.000 C 887.884,272.829 887.697,272.642 895.000,268.000" stroke-width="3.185" stroke="black" fill="none" stroke-linecap="round"></path><path d="M 895.000,268.000 C 901.822,263.187 901.884,263.329 909.000,259.000" stroke-width="2.997" stroke="black" fill="none" stroke-linecap="round"></path><path d="M 909.000,259.000 C 913.681,254.380 913.822,256.187 919.000,254.000" stroke-width="3.210" stroke="black" fill="none" stroke-linecap="round"></path><path d="M 919.000,254.000 C 928.330,254.572 927.681,253.380 937.000,257.000" stroke-width="3.462" stroke="black" fill="none" stroke-linecap="round"></path><path d="M 937.000,257.000 C 941.097,258.339 940.830,258.072 944.000,261.000" stroke-width="4.185" stroke="black" fill="none" stroke-linecap="round"></path><path d="M 944.000,261.000 C 948.089,263.991 947.097,263.839 949.000,268.000" stroke-width="4.356" stroke="black" fill="none" stroke-linecap="round"></path><path d="M 949.000,268.000 C 949.852,275.614 950.589,274.991 949.000,283.000" stroke-width="3.226" stroke="black" fill="none" stroke-linecap="round"></path><path d="M 949.000,283.000 C 947.698,288.566 948.352,288.614 946.000,294.000" stroke-width="3.267" stroke="black" fill="none" stroke-linecap="round"></path><path d="M 946.000,294.000 C 942.440,298.858 945.198,296.566 944.000,299.000" stroke-width="4.359" stroke="black" fill="none" stroke-linecap="round"></path><path d="M 944.000,299.000 C 950.421,296.645 947.940,299.358 957.000,295.000" stroke-width="4.403" stroke="black" fill="none" stroke-linecap="round"></path><path d="M 957.000,295.000 C 960.506,294.538 960.421,294.145 964.000,294.000" stroke-width="4.093" stroke="black" fill="none" stroke-linecap="round"></path><path d="M 964.000,294.000 C 967.147,292.524 967.006,293.538 970.000,293.000" stroke-width="4.081" stroke="black" fill="none" stroke-linecap="round"></path><path d="M 970.000,293.000 C 973.000,294.500 973.147,293.524 976.000,296.000" stroke-width="4.666" stroke="black" fill="none" stroke-linecap="round"></path><path d="M 976.000,296.000 C 979.641,299.411 980.000,298.000 984.000,300.000" stroke-width="3.871" stroke="black" fill="none" stroke-linecap="round"></path><path d="M 984.000,300.000 C 998.697,302.564 998.141,301.911 1013.000,301.000" stroke-width="2.484" stroke="black" fill="none" stroke-linecap="round"></path><path d="M 1013.000,301.000 C 1030.720,297.767 1030.697,299.064 1048.000,293.000" stroke-width="1.968" stroke="black" fill="none" stroke-linecap="round"></path><path d="M 1048.000,293.000 C 1059.963,290.017 1059.720,289.767 1071.000,285.000" stroke-width="2.197" stroke="black" fill="none" stroke-linecap="round"></path><path d="M 1071.000,285.000 C 1081.114,278.184 1081.963,280.017 1092.000,273.000" stroke-width="2.227" stroke="black" fill="none" stroke-linecap="round"></path><path d="M 1092.000,273.000 C 1102.153,267.116 1102.114,268.184 1113.000,265.000" stroke-width="2.360" stroke="black" fill="none" stroke-linecap="round"></path><path d="M 1113.000,265.000 C 1123.498,262.889 1122.653,263.116 1133.000,265.000" stroke-width="2.456" stroke="black" fill="none" stroke-linecap="round"></path><path d="M 1133.000,265.000 C 1142.778,266.986 1141.498,266.889 1149.000,273.000" stroke-width="2.593" stroke="black" fill="none" stroke-linecap="round"></path><path d="M 1149.000,273.000 C 1157.801,282.657 1157.778,281.486 1163.000,294.000" stroke-width="2.353" stroke="black" fill="none" stroke-linecap="round"></path><path d="M 1163.000,294.000 C 1168.798,307.418 1168.801,306.657 1171.000,321.000" stroke-width="2.183" stroke="black" fill="none" stroke-linecap="round"></path><path d="M 1171.000,321.000 C 1170.795,326.289 1171.798,325.918 1169.000,331.000" stroke-width="2.931" stroke="black" fill="none" stroke-linecap="round"></path><path d="M 1169.000,331.000 C 1167.111,337.889 1166.795,336.789 1163.000,342.000" stroke-width="3.191" stroke="black" fill="none" stroke-linecap="round"></path><path d="M 1163.000,342.000 C 1159.225,344.896 1160.611,344.389 1156.000,344.000" stroke-width="3.586" stroke="black" fill="none" stroke-linecap="round"></path><path d="M 1156.000,344.000 C 1144.829,341.962 1150.225,342.396 1145.000,337.000" stroke-width="3.407" stroke="black" fill="none" stroke-linecap="round"></path><path d="M 1145.000,337.000 C 1148.186,322.806 1145.329,327.462 1157.000,315.000" stroke-width="3.194" stroke="black" fill="none" stroke-linecap="round"></path><path d="M 1157.000,315.000 C 1174.245,304.721 1165.686,307.306 1180.000,306.000" stroke-width="2.570" stroke="black" fill="none" stroke-linecap="round"></path><path d="M 1180.000,306.000 C 1180.212,314.671 1183.245,306.721 1175.000,319.000" stroke-width="3.625" stroke="black" fill="none" stroke-linecap="round"></path><path d="M 1175.000,319.000 C 1149.661,340.522 1150.712,339.171 1121.000,355.000" stroke-width="1.466" stroke="black" fill="none" stroke-linecap="round"></path><path d="M 1121.000,355.000 C 1098.723,359.425 1101.161,365.022 1078.000,368.000" stroke-width="1.520" stroke="black" fill="none" stroke-linecap="round"></path><path d="M 1078.000,368.000 C 1013.344,399.842 1011.723,395.425 947.000,427.000" stroke-width="1.125" stroke="black" fill="none" stroke-linecap="round"></path><path d="M 947.000,427.000 C 927.340,434.162 927.844,434.842 907.000,438.000" stroke-width="1.138" stroke="black" fill="none" stroke-linecap="round"></path><path d="M 907.000,438.000 C 874.024,442.682 874.340,444.162 841.000,447.000" stroke-width="1.178" stroke="black" fill="none" stroke-linecap="round"></path><path d="M 841.000,447.000 C 808.972,450.787 809.024,451.182 777.000,455.000" stroke-width="1.135" stroke="black" fill="none" stroke-linecap="round"></path><path d="M 777.000,455.000 C 744.724,463.195 744.472,459.287 712.000,464.000" stroke-width="1.125" stroke="black" fill="none" stroke-linecap="round"></path><path d="M 712.000,464.000 C 622.139,466.901 622.724,466.195 533.000,461.000" stroke-width="1.125" stroke="black" fill="none" stroke-linecap="round"></path><path d="M 533.000,461.000 C 477.022,460.518 478.639,457.401 425.000,445.000" stroke-width="1.125" stroke="black" fill="none" stroke-linecap="round"></path><path d="M 425.000,445.000 C 329.049,413.328 329.522,416.518 238.000,373.000" stroke-width="1.125" stroke="black" fill="none" stroke-linecap="round"></path><path d="M 238.000,373.000 C 220.129,362.458 219.549,364.828 206.000,348.000" stroke-width="1.125" stroke="black" fill="none" stroke-linecap="round"></path><path d="M 206.000,348.000 C 179.501,316.036 177.129,318.458 152.000,285.000" stroke-width="1.125" stroke="black" fill="none" stroke-linecap="round"></path><path d="M 152.000,285.000 C 142.773,277.958 144.501,276.536 136.000,269.000" stroke-width="1.604" stroke="black" fill="none" stroke-linecap="round"></path><path d="M 136.000,269.000 C 127.790,256.826 127.273,257.458 121.000,244.000" stroke-width="1.949" stroke="black" fill="none" stroke-linecap="round"></path><path d="M 121.000,244.000 C 119.247,239.571 118.790,239.826 118.000,235.000" stroke-width="2.875" stroke="black" fill="none" stroke-linecap="round"></path><path d="M 118.000,235.000 C 115.509,228.613 116.247,228.571 115.000,222.000" stroke-width="3.007" stroke="black" fill="none" stroke-linecap="round"></path><path d="M 115.000,222.000 C 114.223,208.952 114.009,209.113 115.000,196.000" stroke-width="2.412" stroke="black" fill="none" stroke-linecap="round"></path><path d="M 115.000,196.000 C 117.179,184.042 115.723,183.952 118.000,172.000" stroke-width="2.348" stroke="black" fill="none" stroke-linecap="round"></path><path d="M 118.000,172.000 C 115.944,161.596 118.679,162.042 118.000,152.000" stroke-width="2.452" stroke="black" fill="none" stroke-linecap="round"></path><path d="M 118.000,152.000 C 119.736,139.245 120.444,140.596 127.000,130.000" stroke-width="2.377" stroke="black" fill="none" stroke-linecap="round"></path><path d="M 127.000,130.000 C 143.301,72.924 152.736,97.245 184.000,68.000" stroke-width="1.153" stroke="black" fill="none" stroke-linecap="round"></path><path d="M 184.000,68.000 C 568.824,27.409 548.301,23.924 937.000,32.000" stroke-width="1.125" stroke="black" fill="none" stroke-linecap="round"></path><path d="M 937.000,32.000 C 964.669,52.758 969.824,32.409 986.000,78.000" stroke-width="1.125" stroke="black" fill="none" stroke-linecap="round"></path><path d="M 986.000,78.000 C 993.816,89.864 994.669,88.258 997.000,103.000" stroke-width="1.651" stroke="black" fill="none" stroke-linecap="round"></path><path d="M 997.000,103.000 C 1002.000,123.809 1001.816,122.864 1002.000,144.000" stroke-width="1.594" stroke="black" fill="none" stroke-linecap="round"></path><path d="M 1002.000,144.000 C 1000.230,150.843 1002.000,150.809 997.000,157.000" stroke-width="2.375" stroke="black" fill="none" stroke-linecap="round"></path><path d="M 997.000,157.000 C 988.217,185.068 984.230,181.343 970.000,205.000" stroke-width="1.584" stroke="black" fill="none" stroke-linecap="round"></path><path d="M 970.000,205.000 C 941.996,228.945 945.717,231.568 912.000,250.000" stroke-width="1.175" stroke="black" fill="none" stroke-linecap="round"></path><path d="M 912.000,250.000 C 891.969,273.912 889.996,265.445 866.000,278.000" stroke-width="1.252" stroke="black" fill="none" stroke-linecap="round"></path><path d="M 866.000,278.000 C 779.832,290.449 783.969,290.912 696.000,284.000" stroke-width="1.125" stroke="black" fill="none" stroke-linecap="round"></path><path d="M 696.000,284.000 C 649.999,273.714 649.832,280.449 606.000,258.000" stroke-width="1.125" stroke="black" fill="none" stroke-linecap="round"></path><path d="M 606.000,258.000 C 574.778,241.364 572.999,246.214 542.000,229.000" stroke-width="1.125" stroke="black" fill="none" stroke-linecap="round"></path><path d="M 542.000,229.000 C 517.026,221.904 517.778,219.864 492.000,215.000" stroke-width="1.199" stroke="black" fill="none" stroke-linecap="round"></path><path d="M 492.000,215.000 C 488.028,213.863 488.026,213.904 484.000,213.000" stroke-width="2.299" stroke="black" fill="none" stroke-linecap="round"></path><path d="M 484.000,213.000 C 477.826,213.739 481.028,212.363 478.000,212.000" stroke-width="3.599" stroke="black" fill="none" stroke-linecap="round"></path><path d="M 478.000,212.000 C 481.580,207.560 478.326,208.739 485.000,203.000" stroke-width="3.987" stroke="black" fill="none" stroke-linecap="round"></path><path d="M 485.000,203.000 C 489.150,197.599 489.080,197.560 493.000,192.000" stroke-width="3.342" stroke="black" fill="none" stroke-linecap="round"></path><path d="M 1159.000,301.000 C 1167.613,299.952 1167.500,301.000 1176.000,301.000" stroke-width="2.937" stroke="black" fill="none" stroke-linecap="round"></path><path d="M 1176.000,301.000 C 1187.488,303.558 1187.613,302.452 1199.000,306.000" stroke-width="2.441" stroke="black" fill="none" stroke-linecap="round"></path><path d="M 1199.000,306.000 C 1204.314,306.243 1203.988,307.058 1209.000,308.000" stroke-width="3.106" stroke="black" fill="none" stroke-linecap="round"></path><path d="M 1209.000,308.000 C 1214.005,309.263 1212.314,309.243 1215.000,312.000" stroke-width="4.041" stroke="black" fill="none" stroke-linecap="round"></path><path d="M 1215.000,312.000 C 1212.118,315.911 1216.005,314.763 1213.000,319.000" stroke-width="4.422" stroke="black" fill="none" stroke-linecap="round"></path><path d="M 1213.000,319.000 C 1214.862,324.716 1214.118,322.911 1219.000,326.000" stroke-width="4.656" stroke="black" fill="none" stroke-linecap="round"></path><path d="M 1219.000,326.000 C 1230.519,328.000 1229.362,329.216 1242.000,328.000" stroke-width="2.714" stroke="black" fill="none" stroke-linecap="round"></path><path d="M 1242.000,328.000 C 1250.130,327.574 1250.019,328.000 1258.000,326.000" stroke-width="2.833" stroke="black" fill="none" stroke-linecap="round"></path><path d="M 1258.000,326.000 C 1262.795,325.103 1262.630,325.074 1267.000,323.000" stroke-width="3.288" stroke="black" fill="none" stroke-linecap="round"></path><path d="M 1267.000,323.000 C 1271.532,320.047 1271.795,320.603 1276.000,317.000" stroke-width="3.899" stroke="black" fill="none" stroke-linecap="round"></path><path d="M 1276.000,317.000 C 1281.904,310.838 1282.532,312.547 1289.000,308.000" stroke-width="3.153" stroke="black" fill="none" stroke-linecap="round"></path><path d="M 1289.000,308.000 C 1295.150,306.415 1294.404,305.838 1301.000,307.000" stroke-width="3.250" stroke="black" fill="none" stroke-linecap="round"></path><path d="M 1301.000,307.000 C 1304.928,308.714 1305.150,307.415 1309.000,310.000" stroke-width="3.531" stroke="black" fill="none" stroke-linecap="round"></path><path d="M 1309.000,310.000 C 1324.261,317.526 1323.928,314.714 1339.000,319.000" stroke-width="3.086" stroke="black" fill="none" stroke-linecap="round"></path><path d="M 1339.000,319.000 C 1344.800,317.578 1344.261,319.526 1349.000,314.000" stroke-width="3.295" stroke="black" fill="none" stroke-linecap="round"></path><path d="M 1349.000,314.000 C 1356.837,304.215 1358.300,306.078 1366.000,296.000" stroke-width="2.521" stroke="black" fill="none" stroke-linecap="round"></path><path d="M 1366.000,296.000 C 1371.857,291.754 1371.337,291.215 1378.000,288.000" stroke-width="2.812" stroke="black" fill="none" stroke-linecap="round"></path><path d="M 1378.000,288.000 C 1380.860,285.224 1380.857,286.254 1384.000,285.000" stroke-width="3.568" stroke="black" fill="none" stroke-linecap="round"></path><path d="M 1384.000,285.000 C 1389.765,284.317 1387.860,284.724 1392.000,287.000" stroke-width="4.189" stroke="black" fill="none" stroke-linecap="round"></path><path d="M 1392.000,287.000 C 1393.771,291.956 1394.765,290.317 1394.000,297.000" stroke-width="3.631" stroke="black" fill="none" stroke-linecap="round"></path><path d="M 1394.000,297.000 C 1394.284,303.220 1394.271,302.956 1393.000,309.000" stroke-width="3.325" stroke="black" fill="none" stroke-linecap="round"></path><path d="M 1393.000,309.000 C 1389.307,314.769 1392.284,312.220 1390.000,315.000" stroke-width="4.180" stroke="black" fill="none" stroke-linecap="round"></path></svg>