<svg xmlns="http://www.w3.org/2000/svg" xmlns:xlink="http://www.w3.org/1999/xlink" viewBox="0 0 1460 576" width="1460" height="576"><path d="M 729.000,143.000 C 724.528,144.151 724.500,144.000 720.000,145.000" stroke-width="4.958" stroke="black" fill="none" stroke-linecap="round"></path><path d="M 720.000,145.000 C 716.500,145.500 716.528,145.651 713.000,146.000" stroke-width="4.225" stroke="black" fill="none" stroke-linecap="round"></path><path d="M 713.000,146.000 C 706.031,147.268 706.000,147.000 699.000,148.000" stroke-width="3.345" stroke="black" fill="none" stroke-linecap="round"></path><path d="M 699.000,148.000 C 681.632,147.728 682.031,149.768 665.000,151.000" stroke-width="2.085" stroke="black" fill="none" stroke-linecap="round"></path><path d="M 665.000,151.000 C 650.909,154.204 651.132,153.728 638.000,160.000" stroke-width="2.042" stroke="black" fill="none" stroke-linecap="round"></path><path d="M 638.000,160.000 C 626.333,165.528 626.409,165.204 616.000,173.000" stroke-width="2.181" stroke="black" fill="none" stroke-linecap="round"></path><path d="M 616.000,173.000 C 591.508,187.336 593.833,189.028 573.000,207.000" stroke-width="1.658" stroke="black" fill="none" stroke-linecap="round"></path><path d="M 573.000,207.000 C 561.225,223.341 559.508,221.336 552.000,241.000" stroke-width="1.719" stroke="black" fill="none" stroke-linecap="round"></path><path d="M 552.000,241.000 C 544.195,257.238 543.725,256.841 538.000,274.000" stroke-width="1.829" stroke="black" fill="none" stroke-linecap="round"></path><path d="M 538.000,274.000 C 535.522,280.389 535.695,280.238 535.000,287.000" stroke-width="2.549" stroke="black" fill="none" stroke-linecap="round"></path><path d="M 535.000,287.000 C 533.355,299.829 534.022,299.389 535.000,312.000" stroke-width="2.291" stroke="black" fill="none" stroke-linecap="round"></path><path d="M 535.000,312.000 C 535.843,319.204 535.855,318.329 540.000,324.000" stroke-width="2.805" stroke="black" fill="none" stroke-linecap="round"></path><path d="M 540.000,324.000 C 548.678,335.927 548.843,334.204 561.000,342.000" stroke-width="2.424" stroke="black" fill="none" stroke-linecap="round"></path><path d="M 561.000,342.000 C 619.488,371.137 618.678,370.427 680.000,393.000" stroke-width="1.302" stroke="black" fill="none" stroke-linecap="round"></path><path d="M 680.000,393.000 C 697.899,397.195 696.988,399.137 716.000,398.000" stroke-width="1.611" stroke="black" fill="none" stroke-linecap="round"></path><path d="M 716.000,398.000 C 743.067,398.399 742.899,399.195 770.000,397.000" stroke-width="1.416" stroke="black" fill="none" stroke-linecap="round"></path><path d="M 770.000,397.000 C 782.264,397.666 781.567,396.399 793.000,394.000" stroke-width="1.976" stroke="black" fill="none" stroke-linecap="round"></path><path d="M 793.000,394.000 C 803.992,390.709 802.764,390.666 811.000,383.000" stroke-width="2.271" stroke="black" fill="none" stroke-linecap="round"></path><path d="M 811.000,383.000 C 834.693,356.926 833.992,357.709 853.000,328.000" stroke-width="1.773" stroke="black" fill="none" stroke-linecap="round"></path><path d="M 853.000,328.000 C 856.358,315.742 859.693,317.426 861.000,304.000" stroke-width="2.088" stroke="black" fill="none" stroke-linecap="round"></path><path d="M 861.000,304.000 C 865.713,294.596 864.858,294.242 870.000,285.000" stroke-width="2.260" stroke="black" fill="none" stroke-linecap="round"></path><path d="M 870.000,285.000 C 876.000,271.000 876.213,271.096 882.000,257.000" stroke-width="2.024" stroke="black" fill="none" stroke-linecap="round"></path><path d="M 882.000,257.000 C 887.406,246.781 886.500,246.500 891.000,236.000" stroke-width="2.273" stroke="black" fill="none" stroke-linecap="round"></path><path d="M 891.000,236.000 C 894.000,228.551 893.406,228.781 894.000,221.000" stroke-width="2.664" stroke="black" fill="none" stroke-linecap="round"></path><path d="M 894.000,221.000 C 894.245,208.985 894.000,209.551 891.000,198.000" stroke-width="2.516" stroke="black" fill="none" stroke-linecap="round"></path><path d="M 891.000,198.000 C 887.899,186.124 887.745,186.985 881.000,177.000" stroke-width="2.355" stroke="black" fill="none" stroke-linecap="round"></path><path d="M 881.000,177.000 C 872.088,164.804 872.399,165.624 860.000,157.000" stroke-width="2.155" stroke="black" fill="none" stroke-linecap="round"></path><path d="M 860.000,157.000 C 832.445,135.730 832.588,139.304 802.000,126.000" stroke-width="1.654" stroke="black" fill="none" stroke-linecap="round"></path><path d="M 802.000,126.000 C 782.246,124.107 783.945,120.230 763.000,126.000" stroke-width="1.642" stroke="black" fill="none" stroke-linecap="round"></path><path d="M 763.000,126.000 C 751.703,128.222 751.746,127.107 741.000,132.000" stroke-width="2.109" stroke="black" fill="none" stroke-linecap="round"></path><path d="M 741.000,132.000 C 734.666,134.459 734.703,134.222 729.000,138.000" stroke-width="2.782" stroke="black" fill="none" stroke-linecap="round"></path><path d="M 729.000,138.000 C 723.121,142.680 722.666,141.959 717.000,147.000" stroke-width="3.462" stroke="black" fill="none" stroke-linecap="round"></path><path d="M 627.000,246.000 C 627.587,249.489 627.500,249.500 628.000,253.000" stroke-width="4.725" stroke="black" fill="none" stroke-linecap="round"></path><path d="M 628.000,253.000 C 628.833,257.983 628.587,257.989 629.000,263.000" stroke-width="3.824" stroke="black" fill="none" stroke-linecap="round"></path><path d="M 629.000,263.000 C 629.000,273.000 629.333,272.983 629.000,283.000" stroke-width="2.863" stroke="black" fill="none" stroke-linecap="round"></path><path d="M 629.000,283.000 C 628.462,287.057 629.000,287.000 629.000,291.000" stroke-width="3.431" stroke="black" fill="none" stroke-linecap="round"></path><path d="M 629.000,291.000 C 630.470,298.007 629.962,298.057 632.000,305.000" stroke-width="3.094" stroke="black" fill="none" stroke-linecap="round"></path><path d="M 632.000,305.000 C 631.869,315.328 633.970,314.007 636.000,323.000" stroke-width="2.806" stroke="black" fill="none" stroke-linecap="round"></path><path d="M 636.000,323.000 C 640.113,328.776 638.869,328.328 646.000,331.000" stroke-width="2.962" stroke="black" fill="none" stroke-linecap="round"></path><path d="M 646.000,331.000 C 663.357,337.625 662.613,337.276 681.000,340.000" stroke-width="2.549" stroke="black" fill="none" stroke-linecap="round"></path><path d="M 681.000,340.000 C 689.785,340.162 689.357,341.125 698.000,338.000" stroke-width="2.774" stroke="black" fill="none" stroke-linecap="round"></path><path d="M 698.000,338.000 C 710.149,336.491 708.785,335.162 719.000,330.000" stroke-width="2.518" stroke="black" fill="none" stroke-linecap="round"></path><path d="M 719.000,330.000 C 732.449,318.565 732.649,319.991 743.000,305.000" stroke-width="2.011" stroke="black" fill="none" stroke-linecap="round"></path><path d="M 743.000,305.000 C 749.248,295.367 749.949,296.065 754.000,285.000" stroke-width="2.217" stroke="black" fill="none" stroke-linecap="round"></path><path d="M 754.000,285.000 C 770.726,247.095 771.248,247.367 787.000,209.000" stroke-width="1.125" stroke="black" fill="none" stroke-linecap="round"></path><path d="M 787.000,209.000 C 792.144,195.339 792.726,195.595 798.000,182.000" stroke-width="1.642" stroke="black" fill="none" stroke-linecap="round"></path><path d="M 798.000,182.000 C 801.370,174.930 801.144,174.839 805.000,168.000" stroke-width="2.731" stroke="black" fill="none" stroke-linecap="round"></path><path d="M 805.000,168.000 C 808.201,164.729 806.870,164.430 809.000,161.000" stroke-width="3.791" stroke="black" fill="none" stroke-linecap="round"></path><path d="M 809.000,161.000 C 809.703,156.555 809.701,157.729 808.000,154.000" stroke-width="4.358" stroke="black" fill="none" stroke-linecap="round"></path><path d="M 808.000,154.000 C 805.568,152.770 806.703,152.055 803.000,152.000" stroke-width="4.252" stroke="black" fill="none" stroke-linecap="round"></path><path d="M 707.000,185.000 C 704.725,189.400 705.000,189.500 703.000,194.000" stroke-width="5.244" stroke="black" fill="none" stroke-linecap="round"></path><path d="M 703.000,194.000 C 702.275,197.600 701.725,197.400 701.000,201.000" stroke-width="4.197" stroke="black" fill="none" stroke-linecap="round"></path><path d="M 701.000,201.000 C 700.311,207.517 699.275,205.600 697.000,210.000" stroke-width="3.669" stroke="black" fill="none" stroke-linecap="round"></path><path d="M 697.000,210.000 C 690.642,212.111 694.311,212.017 689.000,210.000" stroke-width="4.415" stroke="black" fill="none" stroke-linecap="round"></path><path d="M 689.000,210.000 C 688.536,205.101 687.142,207.611 690.000,201.000" stroke-width="3.805" stroke="black" fill="none" stroke-linecap="round"></path><path d="M 690.000,201.000 C 691.342,197.701 691.036,198.101 694.000,196.000" stroke-width="3.997" stroke="black" fill="none" stroke-linecap="round"></path><path d="M 694.000,196.000 C 704.128,189.417 703.842,189.701 715.000,185.000" stroke-width="2.605" stroke="black" fill="none" stroke-linecap="round"></path><path d="M 715.000,185.000 C 720.475,183.829 720.128,182.917 726.000,183.000" stroke-width="3.062" stroke="black" fill="none" stroke-linecap="round"></path><path d="M 726.000,183.000 C 733.608,180.608 730.475,182.329 735.000,182.000" stroke-width="3.654" stroke="black" fill="none" stroke-linecap="round"></path><path d="M 735.000,182.000 C 733.576,185.710 736.108,183.108 731.000,188.000" stroke-width="4.604" stroke="black" fill="none" stroke-linecap="round"></path><path d="M 731.000,188.000 C 725.764,189.527 729.076,189.710 726.000,190.000" stroke-width="4.764" stroke="black" fill="none" stroke-linecap="round"></path><path d="M 726.000,190.000 C 730.017,188.458 726.264,190.527 732.000,190.000" stroke-width="4.956" stroke="black" fill="none" stroke-linecap="round"></path><path d="M 732.000,190.000 C 734.727,193.449 734.517,191.958 735.000,197.000" stroke-width="4.698" stroke="black" fill="none" stroke-linecap="round"></path><path d="M 735.000,197.000 C 734.584,200.361 735.227,199.949 733.000,203.000" stroke-width="4.263" stroke="black" fill="none" stroke-linecap="round"></path><path d="M 733.000,203.000 C 729.187,207.934 731.584,205.361 729.000,207.000" stroke-width="4.233" stroke="black" fill="none" stroke-linecap="round"></path><path d="M 729.000,207.000 C 729.807,202.072 728.687,205.434 732.000,198.000" stroke-width="4.537" stroke="black" fill="none" stroke-linecap="round"></path><path d="M 732.000,198.000 C 736.000,193.560 733.307,195.572 736.000,194.000" stroke-width="4.311" stroke="black" fill="none" stroke-linecap="round"></path><path d="M 752.000,167.000 C 752.205,170.510 752.000,170.500 752.000,174.000" stroke-width="5.194" stroke="black" fill="none" stroke-linecap="round"></path><path d="M 752.000,174.000 C 751.251,178.988 751.705,179.010 751.000,184.000" stroke-width="3.910" stroke="black" fill="none" stroke-linecap="round"></path><path d="M 751.000,184.000 C 750.191,189.147 750.751,188.988 751.000,194.000" stroke-width="3.519" stroke="black" fill="none" stroke-linecap="round"></path><path d="M 751.000,194.000 C 751.356,199.650 751.691,198.147 754.000,202.000" stroke-width="4.338" stroke="black" fill="none" stroke-linecap="round"></path><path d="M 754.000,202.000 C 757.515,203.243 755.856,203.650 760.000,202.000" stroke-width="4.210" stroke="black" fill="none" stroke-linecap="round"></path><path d="M 760.000,202.000 C 763.438,199.351 763.515,200.243 766.000,196.000" stroke-width="3.821" stroke="black" fill="none" stroke-linecap="round"></path><path d="M 766.000,196.000 C 770.617,190.958 769.938,190.851 773.000,185.000" stroke-width="3.351" stroke="black" fill="none" stroke-linecap="round"></path><path d="M 773.000,185.000 C 775.024,178.073 775.617,178.458 776.000,171.000" stroke-width="3.137" stroke="black" fill="none" stroke-linecap="round"></path><path d="M 776.000,171.000 C 776.700,163.507 777.024,163.573 777.000,156.000" stroke-width="2.967" stroke="black" fill="none" stroke-linecap="round"></path><path d="M 777.000,156.000 C 778.465,145.581 777.200,151.007 777.000,146.000" stroke-width="3.681" stroke="black" fill="none" stroke-linecap="round"></path><path d="M 777.000,146.000 C 772.926,151.782 774.965,146.581 770.000,158.000" stroke-width="4.543" stroke="black" fill="none" stroke-linecap="round"></path><path d="M 680.000,146.000 C 683.478,141.483 683.500,141.500 687.000,137.000" stroke-width="5.176" stroke="black" fill="none" stroke-linecap="round"></path><path d="M 687.000,137.000 C 688.892,134.409 688.978,134.483 691.000,132.000" stroke-width="4.246" stroke="black" fill="none" stroke-linecap="round"></path><path d="M 691.000,132.000 C 699.818,122.765 699.392,122.409 708.000,113.000" stroke-width="2.620" stroke="black" fill="none" stroke-linecap="round"></path><path d="M 708.000,113.000 C 714.547,103.600 715.318,104.265 722.000,95.000" stroke-width="2.402" stroke="black" fill="none" stroke-linecap="round"></path><path d="M 722.000,95.000 C 728.179,89.163 727.547,88.600 734.000,83.000" stroke-width="2.677" stroke="black" fill="none" stroke-linecap="round"></path><path d="M 734.000,83.000 C 736.660,80.120 736.679,80.163 739.000,77.000" stroke-width="3.405" stroke="black" fill="none" stroke-linecap="round"></path><path d="M 730.000,131.000 C 732.277,129.216 732.000,129.000 734.000,127.000" stroke-width="4.949" stroke="black" fill="none" stroke-linecap="round"></path><path d="M 734.000,127.000 C 735.384,124.425 735.777,124.716 737.000,122.000" stroke-width="4.391" stroke="black" fill="none" stroke-linecap="round"></path><path d="M 737.000,122.000 C 740.615,117.077 740.384,116.925 744.000,112.000" stroke-width="3.401" stroke="black" fill="none" stroke-linecap="round"></path><path d="M 744.000,112.000 C 746.899,105.979 747.615,106.577 751.000,101.000" stroke-width="3.184" stroke="black" fill="none" stroke-linecap="round"></path><path d="M 751.000,101.000 C 754.500,98.000 753.899,97.479 758.000,95.000" stroke-width="3.444" stroke="black" fill="none" stroke-linecap="round"></path><path d="M 788.000,109.000 C 791.359,106.699 791.500,107.000 795.000,105.000" stroke-width="5.221" stroke="black" fill="none" stroke-linecap="round"></path><path d="M 795.000,105.000 C 798.972,103.422 798.859,103.199 803.000,102.000" stroke-width="3.956" stroke="black" fill="none" stroke-linecap="round"></path><path d="M 803.000,102.000 C 807.851,101.252 807.472,100.422 812.000,99.000" stroke-width="3.649" stroke="black" fill="none" stroke-linecap="round"></path><path d="M 812.000,99.000 C 825.934,92.131 825.351,91.752 838.000,83.000" stroke-width="2.325" stroke="black" fill="none" stroke-linecap="round"></path><path d="M 838.000,83.000 C 843.594,77.082 844.434,78.131 849.000,71.000" stroke-width="2.683" stroke="black" fill="none" stroke-linecap="round"></path><path d="M 573.000,199.000 C 567.334,194.318 567.000,195.000 561.000,191.000" stroke-width="5.052" stroke="black" fill="none" stroke-linecap="round"></path><path d="M 561.000,191.000 C 556.523,189.428 556.834,188.818 552.000,188.000" stroke-width="3.948" stroke="black" fill="none" stroke-linecap="round"></path><path d="M 552.000,188.000 C 547.126,185.641 547.023,186.428 542.000,185.000" stroke-width="3.612" stroke="black" fill="none" stroke-linecap="round"></path><path d="M 542.000,185.000 C 534.983,184.696 535.126,184.141 528.000,185.000" stroke-width="3.161" stroke="black" fill="none" stroke-linecap="round"></path><path d="M 528.000,185.000 C 523.449,185.215 523.483,185.196 519.000,186.000" stroke-width="3.501" stroke="black" fill="none" stroke-linecap="round"></path><path d="M 519.000,186.000 C 514.535,185.980 514.949,186.715 511.000,188.000" stroke-width="3.646" stroke="black" fill="none" stroke-linecap="round"></path><path d="M 511.000,188.000 C 500.009,194.031 500.535,193.980 491.000,202.000" stroke-width="3.210" stroke="black" fill="none" stroke-linecap="round"></path><path d="M 491.000,202.000 C 487.833,206.396 487.009,205.531 485.000,211.000" stroke-width="3.417" stroke="black" fill="none" stroke-linecap="round"></path><path d="M 485.000,211.000 C 479.396,219.209 479.833,219.396 475.000,228.000" stroke-width="2.735" stroke="black" fill="none" stroke-linecap="round"></path><path d="M 475.000,228.000 C 472.263,234.417 471.896,234.209 470.000,241.000" stroke-width="2.920" stroke="black" fill="none" stroke-linecap="round"></path><path d="M 470.000,241.000 C 465.933,250.336 466.763,250.417 464.000,260.000" stroke-width="3.332" stroke="black" fill="none" stroke-linecap="round"></path><path d="M 464.000,260.000 C 463.436,265.547 462.933,265.336 464.000,271.000" stroke-width="3.390" stroke="black" fill="none" stroke-linecap="round"></path><path d="M 464.000,271.000 C 464.572,280.330 464.936,280.047 467.000,289.000" stroke-width="2.886" stroke="black" fill="none" stroke-linecap="round"></path><path d="M 467.000,289.000 C 468.250,293.083 468.072,292.830 471.000,296.000" stroke-width="3.387" stroke="black" fill="none" stroke-linecap="round"></path><path d="M 471.000,296.000 C 485.020,310.597 484.750,310.583 500.000,324.000" stroke-width="2.773" stroke="black" fill="none" stroke-linecap="round"></path><path d="M 500.000,324.000 C 504.371,327.223 504.020,327.597 509.000,330.000" stroke-width="3.253" stroke="black" fill="none" stroke-linecap="round"></path><path d="M 509.000,330.000 C 512.703,334.148 511.871,331.723 515.000,333.000" stroke-width="4.119" stroke="black" fill="none" stroke-linecap="round"></path><path d="M 515.000,333.000 C 518.476,328.733 518.703,331.148 521.000,324.000" stroke-width="4.471" stroke="black" fill="none" stroke-linecap="round"></path><path d="M 521.000,324.000 C 521.920,320.971 522.476,321.233 523.000,318.000" stroke-width="4.643" stroke="black" fill="none" stroke-linecap="round"></path><path d="M 875.000,166.000 C 877.354,162.867 877.500,163.000 880.000,160.000" stroke-width="5.140" stroke="black" fill="none" stroke-linecap="round"></path><path d="M 880.000,160.000 C 883.239,156.182 883.354,156.367 887.000,153.000" stroke-width="3.775" stroke="black" fill="none" stroke-linecap="round"></path><path d="M 887.000,153.000 C 889.967,150.950 889.739,150.682 893.000,149.000" stroke-width="3.895" stroke="black" fill="none" stroke-linecap="round"></path><path d="M 893.000,149.000 C 896.819,146.168 896.967,146.450 901.000,144.000" stroke-width="3.697" stroke="black" fill="none" stroke-linecap="round"></path><path d="M 901.000,144.000 C 910.311,139.009 910.319,139.168 920.000,135.000" stroke-width="2.782" stroke="black" fill="none" stroke-linecap="round"></path><path d="M 920.000,135.000 C 924.891,132.983 924.811,133.009 930.000,132.000" stroke-width="3.190" stroke="black" fill="none" stroke-linecap="round"></path><path d="M 930.000,132.000 C 937.976,130.617 937.891,130.483 946.000,130.000" stroke-width="2.972" stroke="black" fill="none" stroke-linecap="round"></path><path d="M 946.000,130.000 C 951.099,129.387 950.976,129.617 956.000,130.000" stroke-width="3.349" stroke="black" fill="none" stroke-linecap="round"></path><path d="M 956.000,130.000 C 959.776,129.924 959.099,130.387 962.000,132.000" stroke-width="3.799" stroke="black" fill="none" stroke-linecap="round"></path><path d="M 962.000,132.000 C 968.245,137.220 967.276,136.924 971.000,144.000" stroke-width="3.256" stroke="black" fill="none" stroke-linecap="round"></path><path d="M 971.000,144.000 C 974.341,153.893 974.745,153.220 975.000,164.000" stroke-width="2.963" stroke="black" fill="none" stroke-linecap="round"></path><path d="M 975.000,164.000 C 975.903,177.224 975.841,176.893 974.000,190.000" stroke-width="2.466" stroke="black" fill="none" stroke-linecap="round"></path><path d="M 974.000,190.000 C 971.874,200.830 972.403,200.724 968.000,211.000" stroke-width="2.404" stroke="black" fill="none" stroke-linecap="round"></path><path d="M 968.000,211.000 C 963.947,222.088 963.874,221.830 958.000,232.000" stroke-width="2.325" stroke="black" fill="none" stroke-linecap="round"></path><path d="M 958.000,232.000 C 952.443,238.956 953.447,239.588 947.000,246.000" stroke-width="3.119" stroke="black" fill="none" stroke-linecap="round"></path><path d="M 947.000,246.000 C 943.815,249.871 943.943,249.956 941.000,254.000" stroke-width="3.451" stroke="black" fill="none" stroke-linecap="round"></path><path d="M 941.000,254.000 C 936.913,261.333 936.315,260.871 932.000,268.000" stroke-width="3.001" stroke="black" fill="none" stroke-linecap="round"></path><path d="M 932.000,268.000 C 929.785,270.858 929.913,270.833 927.000,273.000" stroke-width="3.533" stroke="black" fill="none" stroke-linecap="round"></path><path d="M 927.000,273.000 C 923.299,276.230 923.285,275.858 919.000,278.000" stroke-width="3.592" stroke="black" fill="none" stroke-linecap="round"></path><path d="M 919.000,278.000 C 914.543,279.394 914.799,279.730 910.000,280.000" stroke-width="3.576" stroke="black" fill="none" stroke-linecap="round"></path><path d="M 910.000,280.000 C 906.973,280.270 907.043,280.394 904.000,280.000" stroke-width="4.342" stroke="black" fill="none" stroke-linecap="round"></path></svg>