<svg xmlns="http://www.w3.org/2000/svg" xmlns:xlink="http://www.w3.org/1999/xlink" viewBox="0 0 453 236" width="453" height="236"><path d="M 107.500,79.000 C 104.172,89.344 103.500,89.000 99.500,99.000" stroke-width="4.165" stroke="black" fill="none" stroke-linecap="round"></path><path d="M 99.500,99.000 C 96.061,104.540 96.672,104.844 92.500,110.000" stroke-width="3.489" stroke="black" fill="none" stroke-linecap="round"></path><path d="M 92.500,110.000 C 88.898,116.309 88.561,116.040 84.500,122.000" stroke-width="3.165" stroke="black" fill="none" stroke-linecap="round"></path><path d="M 84.500,122.000 C 79.969,126.972 80.398,127.309 75.500,132.000" stroke-width="3.386" stroke="black" fill="none" stroke-linecap="round"></path><path d="M 75.500,132.000 C 71.849,135.878 71.969,135.972 68.500,140.000" stroke-width="3.490" stroke="black" fill="none" stroke-linecap="round"></path><path d="M 68.500,140.000 C 65.193,143.810 65.349,143.878 62.500,148.000" stroke-width="3.526" stroke="black" fill="none" stroke-linecap="round"></path><path d="M 62.500,148.000 C 60.887,150.949 60.693,150.810 59.500,154.000" stroke-width="3.866" stroke="black" fill="none" stroke-linecap="round"></path><path d="M 59.500,154.000 C 58.270,156.432 58.387,156.449 57.500,159.000" stroke-width="4.100" stroke="black" fill="none" stroke-linecap="round"></path><path d="M 57.500,159.000 C 55.879,164.207 56.770,161.432 56.500,164.000" stroke-width="4.256" stroke="black" fill="none" stroke-linecap="round"></path><path d="M 56.500,164.000 C 58.736,161.137 57.379,163.707 60.500,158.000" stroke-width="4.869" stroke="black" fill="none" stroke-linecap="round"></path><path d="M 60.500,158.000 C 62.568,152.737 63.236,153.137 65.500,148.000" stroke-width="3.733" stroke="black" fill="none" stroke-linecap="round"></path><path d="M 105.500,93.000 C 108.444,96.777 107.500,97.000 109.500,101.000" stroke-width="5.085" stroke="black" fill="none" stroke-linecap="round"></path><path d="M 109.500,101.000 C 109.965,105.051 110.444,104.777 109.500,109.000" stroke-width="4.189" stroke="black" fill="none" stroke-linecap="round"></path><path d="M 109.500,109.000 C 108.450,113.489 108.965,113.551 107.500,118.000" stroke-width="3.794" stroke="black" fill="none" stroke-linecap="round"></path><path d="M 107.500,118.000 C 106.060,122.956 106.450,122.989 105.500,128.000" stroke-width="3.595" stroke="black" fill="none" stroke-linecap="round"></path><path d="M 105.500,128.000 C 105.500,132.000 105.060,131.956 105.500,136.000" stroke-width="3.702" stroke="black" fill="none" stroke-linecap="round"></path><path d="M 105.500,136.000 C 105.500,140.000 105.500,140.000 105.500,144.000" stroke-width="3.954" stroke="black" fill="none" stroke-linecap="round"></path><path d="M 105.500,144.000 C 105.216,148.024 105.500,148.000 105.500,152.000" stroke-width="3.863" stroke="black" fill="none" stroke-linecap="round"></path><path d="M 105.500,152.000 C 105.479,155.192 105.716,155.024 106.500,158.000" stroke-width="4.055" stroke="black" fill="none" stroke-linecap="round"></path><path d="M 106.500,158.000 C 107.884,160.576 107.479,160.692 109.500,163.000" stroke-width="4.147" stroke="black" fill="none" stroke-linecap="round"></path><path d="M 109.500,163.000 C 112.326,166.304 111.884,166.576 114.500,170.000" stroke-width="3.951" stroke="black" fill="none" stroke-linecap="round"></path><path d="M 112.500,144.000 C 108.738,140.994 108.500,141.500 104.500,139.000" stroke-width="5.309" stroke="black" fill="none" stroke-linecap="round"></path><path d="M 104.500,139.000 C 100.000,137.500 100.238,136.994 95.500,136.000" stroke-width="3.994" stroke="black" fill="none" stroke-linecap="round"></path><path d="M 95.500,136.000 C 90.972,134.578 91.000,134.500 86.500,133.000" stroke-width="3.717" stroke="black" fill="none" stroke-linecap="round"></path><path d="M 86.500,133.000 C 82.571,131.253 82.472,131.578 78.500,130.000" stroke-width="3.785" stroke="black" fill="none" stroke-linecap="round"></path><path d="M 78.500,130.000 C 76.000,129.500 76.071,129.253 73.500,129.000" stroke-width="4.109" stroke="black" fill="none" stroke-linecap="round"></path><path d="M 73.500,129.000 C 71.008,128.000 71.000,128.500 68.500,128.000" stroke-width="4.332" stroke="black" fill="none" stroke-linecap="round"></path><path d="M 72.500,164.000 C 75.508,164.456 75.500,164.500 78.500,165.000" stroke-width="5.139" stroke="black" fill="none" stroke-linecap="round"></path><path d="M 78.500,165.000 C 81.125,165.136 81.008,165.456 83.500,166.000" stroke-width="4.542" stroke="black" fill="none" stroke-linecap="round"></path><path d="M 83.500,166.000 C 86.421,167.681 86.625,167.136 89.500,169.000" stroke-width="4.222" stroke="black" fill="none" stroke-linecap="round"></path><path d="M 89.500,169.000 C 93.336,171.405 93.421,170.681 97.500,172.000" stroke-width="3.875" stroke="black" fill="none" stroke-linecap="round"></path><path d="M 97.500,172.000 C 104.000,172.000 103.836,172.905 110.500,172.000" stroke-width="3.484" stroke="black" fill="none" stroke-linecap="round"></path><path d="M 110.500,172.000 C 118.212,174.515 117.500,172.000 124.500,172.000" stroke-width="3.131" stroke="black" fill="none" stroke-linecap="round"></path><path d="M 124.500,172.000 C 138.766,165.388 138.212,166.515 150.500,156.000" stroke-width="2.185" stroke="black" fill="none" stroke-linecap="round"></path><path d="M 150.500,156.000 C 155.779,150.450 156.266,151.388 159.500,144.000" stroke-width="2.691" stroke="black" fill="none" stroke-linecap="round"></path><path d="M 159.500,144.000 C 163.678,137.286 163.279,137.450 165.500,130.000" stroke-width="2.822" stroke="black" fill="none" stroke-linecap="round"></path><path d="M 165.500,130.000 C 167.528,122.853 167.178,123.286 166.500,116.000" stroke-width="2.942" stroke="black" fill="none" stroke-linecap="round"></path><path d="M 166.500,116.000 C 165.204,101.726 164.528,102.853 159.500,90.000" stroke-width="3.049" stroke="black" fill="none" stroke-linecap="round"></path><path d="M 159.500,90.000 C 154.860,83.240 156.204,83.226 148.500,79.000" stroke-width="3.027" stroke="black" fill="none" stroke-linecap="round"></path><path d="M 148.500,79.000 C 140.908,73.549 141.360,74.240 132.500,72.000" stroke-width="3.455" stroke="black" fill="none" stroke-linecap="round"></path><path d="M 132.500,72.000 C 121.037,69.635 121.908,70.049 110.500,72.000" stroke-width="2.615" stroke="black" fill="none" stroke-linecap="round"></path><path d="M 110.500,72.000 C 95.892,75.612 96.537,75.135 83.500,83.000" stroke-width="2.210" stroke="black" fill="none" stroke-linecap="round"></path><path d="M 83.500,83.000 C 68.785,90.969 69.892,91.112 58.500,103.000" stroke-width="2.128" stroke="black" fill="none" stroke-linecap="round"></path><path d="M 58.500,103.000 C 41.868,123.021 42.285,121.969 30.500,145.000" stroke-width="1.575" stroke="black" fill="none" stroke-linecap="round"></path><path d="M 30.500,145.000 C 27.940,153.155 26.868,152.021 28.500,161.000" stroke-width="2.271" stroke="black" fill="none" stroke-linecap="round"></path><path d="M 28.500,161.000 C 28.220,169.128 28.940,167.155 32.500,173.000" stroke-width="2.817" stroke="black" fill="none" stroke-linecap="round"></path><path d="M 32.500,173.000 C 40.608,178.482 38.720,178.628 49.500,180.000" stroke-width="2.674" stroke="black" fill="none" stroke-linecap="round"></path><path d="M 49.500,180.000 C 61.662,181.421 61.108,181.982 73.500,180.000" stroke-width="2.484" stroke="black" fill="none" stroke-linecap="round"></path><path d="M 73.500,180.000 C 86.888,178.204 86.662,178.421 99.500,174.000" stroke-width="2.381" stroke="black" fill="none" stroke-linecap="round"></path><path d="M 99.500,174.000 C 115.387,168.296 115.388,168.704 130.500,161.000" stroke-width="2.125" stroke="black" fill="none" stroke-linecap="round"></path><path d="M 130.500,161.000 C 144.125,153.716 144.387,154.296 157.500,146.000" stroke-width="1.977" stroke="black" fill="none" stroke-linecap="round"></path><path d="M 157.500,146.000 C 170.801,139.560 170.125,138.716 182.500,131.000" stroke-width="1.988" stroke="black" fill="none" stroke-linecap="round"></path><path d="M 137.500,147.000 C 139.056,149.889 139.500,149.000 141.500,151.000" stroke-width="5.350" stroke="black" fill="none" stroke-linecap="round"></path><path d="M 141.500,151.000 C 144.981,151.765 144.556,152.389 148.500,152.000" stroke-width="4.845" stroke="black" fill="none" stroke-linecap="round"></path><path d="M 148.500,152.000 C 152.500,152.000 152.481,152.265 156.500,152.000" stroke-width="4.655" stroke="black" fill="none" stroke-linecap="round"></path><path d="M 156.500,152.000 C 159.527,152.270 159.500,152.000 162.500,152.000" stroke-width="4.245" stroke="black" fill="none" stroke-linecap="round"></path><path d="M 162.500,152.000 C 164.992,151.456 165.027,151.770 167.500,151.000" stroke-width="4.302" stroke="black" fill="none" stroke-linecap="round"></path><path d="M 167.500,151.000 C 170.500,150.500 170.492,150.456 173.500,150.000" stroke-width="4.310" stroke="black" fill="none" stroke-linecap="round"></path><path d="M 173.500,150.000 C 176.541,149.683 176.500,149.500 179.500,149.000" stroke-width="4.235" stroke="black" fill="none" stroke-linecap="round"></path><path d="M 179.500,149.000 C 183.022,148.070 183.041,148.183 186.500,147.000" stroke-width="4.023" stroke="black" fill="none" stroke-linecap="round"></path><path d="M 186.500,147.000 C 189.455,145.830 189.522,146.070 192.500,145.000" stroke-width="4.029" stroke="black" fill="none" stroke-linecap="round"></path><path d="M 192.500,145.000 C 198.453,142.412 194.955,144.330 197.500,144.000" stroke-width="4.192" stroke="black" fill="none" stroke-linecap="round"></path><path d="M 197.500,144.000 C 189.337,154.803 192.453,152.412 180.500,165.000" stroke-width="3.854" stroke="black" fill="none" stroke-linecap="round"></path><path d="M 180.500,165.000 C 175.615,169.199 176.337,169.803 171.500,174.000" stroke-width="3.319" stroke="black" fill="none" stroke-linecap="round"></path><path d="M 171.500,174.000 C 166.500,179.500 169.615,176.199 168.500,179.000" stroke-width="3.844" stroke="black" fill="none" stroke-linecap="round"></path><path d="M 168.500,179.000 C 182.648,174.705 178.500,176.500 195.500,168.000" stroke-width="3.673" stroke="black" fill="none" stroke-linecap="round"></path><path d="M 195.500,168.000 C 204.708,161.026 205.648,162.705 214.500,155.000" stroke-width="2.596" stroke="black" fill="none" stroke-linecap="round"></path><path d="M 214.500,155.000 C 224.304,149.098 224.208,149.026 234.500,144.000" stroke-width="2.456" stroke="black" fill="none" stroke-linecap="round"></path><path d="M 234.500,144.000 C 241.453,140.883 241.304,140.598 248.500,138.000" stroke-width="2.739" stroke="black" fill="none" stroke-linecap="round"></path><path d="M 248.500,138.000 C 256.500,133.326 252.453,136.383 256.500,135.000" stroke-width="3.373" stroke="black" fill="none" stroke-linecap="round"></path><path d="M 256.500,135.000 C 253.198,141.598 256.500,137.826 248.500,147.000" stroke-width="4.000" stroke="black" fill="none" stroke-linecap="round"></path><path d="M 248.500,147.000 C 242.249,152.251 243.198,153.098 236.500,158.000" stroke-width="3.139" stroke="black" fill="none" stroke-linecap="round"></path><path d="M 236.500,158.000 C 232.088,163.084 231.749,162.751 227.500,168.000" stroke-width="3.080" stroke="black" fill="none" stroke-linecap="round"></path><path d="M 227.500,168.000 C 224.243,170.095 225.088,170.584 222.500,173.000" stroke-width="3.762" stroke="black" fill="none" stroke-linecap="round"></path><path d="M 222.500,173.000 C 220.059,177.280 221.243,175.095 221.500,178.000" stroke-width="4.487" stroke="black" fill="none" stroke-linecap="round"></path><path d="M 221.500,178.000 C 226.147,178.136 224.059,179.280 230.500,177.000" stroke-width="3.821" stroke="black" fill="none" stroke-linecap="round"></path><path d="M 230.500,177.000 C 237.473,174.423 237.647,175.136 244.500,172.000" stroke-width="3.139" stroke="black" fill="none" stroke-linecap="round"></path><path d="M 244.500,172.000 C 251.947,169.324 251.973,169.423 259.500,167.000" stroke-width="2.915" stroke="black" fill="none" stroke-linecap="round"></path><path d="M 259.500,167.000 C 265.000,165.500 264.947,165.324 270.500,164.000" stroke-width="3.164" stroke="black" fill="none" stroke-linecap="round"></path><path d="M 270.500,164.000 C 275.972,162.382 276.000,162.500 281.500,161.000" stroke-width="3.303" stroke="black" fill="none" stroke-linecap="round"></path><path d="M 281.500,161.000 C 286.678,158.932 283.972,160.382 286.500,160.000" stroke-width="3.959" stroke="black" fill="none" stroke-linecap="round"></path><path d="M 286.500,160.000 C 282.964,163.167 286.178,161.932 280.500,167.000" stroke-width="4.590" stroke="black" fill="none" stroke-linecap="round"></path><path d="M 280.500,167.000 C 276.666,171.776 278.464,170.167 277.500,174.000" stroke-width="4.576" stroke="black" fill="none" stroke-linecap="round"></path><path d="M 277.500,174.000 C 280.483,175.126 278.166,175.776 283.500,175.000" stroke-width="4.214" stroke="black" fill="none" stroke-linecap="round"></path><path d="M 283.500,175.000 C 292.675,174.858 292.483,174.626 301.500,173.000" stroke-width="3.047" stroke="black" fill="none" stroke-linecap="round"></path><path d="M 301.500,173.000 C 311.383,169.529 311.675,170.858 321.500,167.000" stroke-width="2.661" stroke="black" fill="none" stroke-linecap="round"></path><path d="M 321.500,167.000 C 331.469,164.824 331.383,164.529 341.500,163.000" stroke-width="2.697" stroke="black" fill="none" stroke-linecap="round"></path><path d="M 341.500,163.000 C 347.969,161.594 347.969,161.824 354.500,161.000" stroke-width="3.012" stroke="black" fill="none" stroke-linecap="round"></path><path d="M 354.500,161.000 C 359.000,161.000 358.969,160.594 363.500,161.000" stroke-width="3.571" stroke="black" fill="none" stroke-linecap="round"></path><path d="M 363.500,161.000 C 367.632,160.275 367.500,161.000 371.500,161.000" stroke-width="4.191" stroke="black" fill="none" stroke-linecap="round"></path><path d="M 371.500,161.000 C 375.388,163.119 375.632,161.775 379.500,164.000" stroke-width="4.611" stroke="black" fill="none" stroke-linecap="round"></path><path d="M 379.500,164.000 C 382.500,164.000 382.388,164.619 385.500,164.000" stroke-width="4.234" stroke="black" fill="none" stroke-linecap="round"></path><path d="M 385.500,164.000 C 390.507,164.200 390.500,164.000 395.500,164.000" stroke-width="3.724" stroke="black" fill="none" stroke-linecap="round"></path><path d="M 395.500,164.000 C 403.033,163.800 403.007,163.700 410.500,163.000" stroke-width="3.106" stroke="black" fill="none" stroke-linecap="round"></path><path d="M 410.500,163.000 C 416.967,161.568 417.033,162.300 423.500,161.000" stroke-width="3.152" stroke="black" fill="none" stroke-linecap="round"></path><path d="M 423.500,161.000 C 428.500,161.000 428.467,160.568 433.500,161.000" stroke-width="3.415" stroke="black" fill="none" stroke-linecap="round"></path><path d="M 433.500,161.000 C 440.586,160.535 436.500,161.000 439.500,161.000" stroke-width="3.862" stroke="black" fill="none" stroke-linecap="round"></path><path d="M 439.500,161.000 C 433.106,163.434 437.086,162.035 426.500,164.000" stroke-width="4.684" stroke="black" fill="none" stroke-linecap="round"></path><path d="M 426.500,164.000 C 415.497,163.793 415.606,164.934 404.500,164.000" stroke-width="2.861" stroke="black" fill="none" stroke-linecap="round"></path><path d="M 404.500,164.000 C 388.986,164.226 388.997,164.293 373.500,165.000" stroke-width="2.191" stroke="black" fill="none" stroke-linecap="round"></path><path d="M 373.500,165.000 C 359.004,166.064 358.986,165.726 344.500,167.000" stroke-width="2.109" stroke="black" fill="none" stroke-linecap="round"></path><path d="M 344.500,167.000 C 328.016,168.514 328.004,168.064 311.500,169.000" stroke-width="1.966" stroke="black" fill="none" stroke-linecap="round"></path><path d="M 311.500,169.000 C 293.997,168.757 294.016,169.514 276.500,169.000" stroke-width="1.875" stroke="black" fill="none" stroke-linecap="round"></path><path d="M 276.500,169.000 C 257.992,169.289 257.997,169.257 239.500,170.000" stroke-width="1.801" stroke="black" fill="none" stroke-linecap="round"></path><path d="M 239.500,170.000 C 218.890,169.935 218.992,170.789 198.500,172.000" stroke-width="1.638" stroke="black" fill="none" stroke-linecap="round"></path><path d="M 198.500,172.000 C 179.411,174.516 179.390,173.935 160.500,178.000" stroke-width="1.744" stroke="black" fill="none" stroke-linecap="round"></path><path d="M 160.500,178.000 C 141.557,182.294 141.411,181.516 122.500,186.000" stroke-width="1.671" stroke="black" fill="none" stroke-linecap="round"></path></svg>