<svg xmlns="http://www.w3.org/2000/svg" xmlns:xlink="http://www.w3.org/1999/xlink" viewBox="0 0 1460 576" width="1460" height="576"><path d="M 386.000,351.000 C 382.000,350.000 382.000,350.000 378.000,349.000" stroke-width="5.371" stroke="black" fill="none" stroke-linecap="round"></path><path d="M 378.000,349.000 C 373.932,348.210 374.000,348.000 370.000,347.000" stroke-width="4.155" stroke="black" fill="none" stroke-linecap="round"></path><path d="M 370.000,347.000 C 367.551,345.850 367.432,346.210 365.000,345.000" stroke-width="4.236" stroke="black" fill="none" stroke-linecap="round"></path><path d="M 365.000,345.000 C 361.530,343.882 361.551,343.850 358.000,343.000" stroke-width="3.911" stroke="black" fill="none" stroke-linecap="round"></path><path d="M 358.000,343.000 C 353.268,342.600 353.530,341.882 349.000,341.000" stroke-width="4.257" stroke="black" fill="none" stroke-linecap="round"></path><path d="M 349.000,341.000 C 345.387,339.177 345.268,339.600 342.000,337.000" stroke-width="3.882" stroke="black" fill="none" stroke-linecap="round"></path><path d="M 342.000,337.000 C 338.536,334.448 338.387,334.677 335.000,332.000" stroke-width="3.778" stroke="black" fill="none" stroke-linecap="round"></path><path d="M 335.000,332.000 C 331.933,330.095 332.036,329.948 329.000,328.000" stroke-width="3.847" stroke="black" fill="none" stroke-linecap="round"></path><path d="M 329.000,328.000 C 324.930,325.088 324.933,325.095 321.000,322.000" stroke-width="3.569" stroke="black" fill="none" stroke-linecap="round"></path><path d="M 321.000,322.000 C 314.621,319.841 317.930,319.588 315.000,317.000" stroke-width="3.851" stroke="black" fill="none" stroke-linecap="round"></path><path d="M 315.000,317.000 C 317.854,310.356 315.621,312.341 323.000,307.000" stroke-width="4.773" stroke="black" fill="none" stroke-linecap="round"></path><path d="M 323.000,307.000 C 330.436,304.292 329.354,302.856 338.000,302.000" stroke-width="3.300" stroke="black" fill="none" stroke-linecap="round"></path><path d="M 338.000,302.000 C 347.238,300.164 346.936,299.292 356.000,297.000" stroke-width="2.840" stroke="black" fill="none" stroke-linecap="round"></path><path d="M 356.000,297.000 C 365.356,293.631 365.238,293.664 374.000,289.000" stroke-width="2.672" stroke="black" fill="none" stroke-linecap="round"></path><path d="M 374.000,289.000 C 379.042,285.559 379.356,286.131 384.000,282.000" stroke-width="2.959" stroke="black" fill="none" stroke-linecap="round"></path><path d="M 384.000,282.000 C 399.062,272.200 398.542,271.559 413.000,261.000" stroke-width="1.983" stroke="black" fill="none" stroke-linecap="round"></path><path d="M 413.000,261.000 C 426.500,249.000 427.062,249.700 440.000,237.000" stroke-width="2.451" stroke="black" fill="none" stroke-linecap="round"></path><path d="M 440.000,237.000 C 449.141,229.150 449.000,229.000 458.000,221.000" stroke-width="2.363" stroke="black" fill="none" stroke-linecap="round"></path><path d="M 458.000,221.000 C 461.369,217.362 461.641,217.650 465.000,214.000" stroke-width="3.088" stroke="black" fill="none" stroke-linecap="round"></path><path d="M 465.000,214.000 C 474.793,204.749 474.869,204.862 485.000,196.000" stroke-width="3.065" stroke="black" fill="none" stroke-linecap="round"></path><path d="M 485.000,196.000 C 488.894,192.843 488.793,192.749 493.000,190.000" stroke-width="3.384" stroke="black" fill="none" stroke-linecap="round"></path><path d="M 493.000,190.000 C 495.500,188.500 495.394,188.343 498.000,187.000" stroke-width="3.910" stroke="black" fill="none" stroke-linecap="round"></path><path d="M 498.000,187.000 C 503.552,183.448 500.500,185.500 503.000,184.000" stroke-width="4.101" stroke="black" fill="none" stroke-linecap="round"></path><path d="M 503.000,184.000 C 498.409,186.402 502.052,184.948 495.000,190.000" stroke-width="4.870" stroke="black" fill="none" stroke-linecap="round"></path><path d="M 495.000,190.000 C 489.662,196.267 489.409,195.902 485.000,203.000" stroke-width="3.189" stroke="black" fill="none" stroke-linecap="round"></path><path d="M 485.000,203.000 C 481.140,209.589 480.662,209.267 477.000,216.000" stroke-width="2.965" stroke="black" fill="none" stroke-linecap="round"></path><path d="M 477.000,216.000 C 466.150,233.989 465.640,233.589 454.000,251.000" stroke-width="1.879" stroke="black" fill="none" stroke-linecap="round"></path><path d="M 454.000,251.000 C 447.486,257.600 448.650,258.489 442.000,265.000" stroke-width="2.386" stroke="black" fill="none" stroke-linecap="round"></path><path d="M 442.000,265.000 C 427.965,288.233 425.986,286.600 411.000,309.000" stroke-width="1.552" stroke="black" fill="none" stroke-linecap="round"></path><path d="M 411.000,309.000 C 395.982,321.323 398.965,323.733 384.000,336.000" stroke-width="1.627" stroke="black" fill="none" stroke-linecap="round"></path><path d="M 384.000,336.000 C 378.459,347.660 375.982,345.823 371.000,358.000" stroke-width="2.016" stroke="black" fill="none" stroke-linecap="round"></path><path d="M 371.000,358.000 C 354.753,376.978 356.459,378.160 340.000,397.000" stroke-width="1.514" stroke="black" fill="none" stroke-linecap="round"></path><path d="M 340.000,397.000 C 335.097,406.419 333.753,405.478 329.000,415.000" stroke-width="2.096" stroke="black" fill="none" stroke-linecap="round"></path><path d="M 329.000,415.000 C 321.762,425.723 321.597,425.419 313.000,435.000" stroke-width="2.142" stroke="black" fill="none" stroke-linecap="round"></path><path d="M 313.000,435.000 C 304.558,443.759 304.762,443.723 295.000,451.000" stroke-width="2.269" stroke="black" fill="none" stroke-linecap="round"></path><path d="M 295.000,451.000 C 287.765,456.007 288.058,456.259 280.000,460.000" stroke-width="2.879" stroke="black" fill="none" stroke-linecap="round"></path><path d="M 280.000,460.000 C 269.616,463.849 270.265,465.007 260.000,469.000" stroke-width="2.505" stroke="black" fill="none" stroke-linecap="round"></path><path d="M 260.000,469.000 C 255.753,471.716 255.616,471.349 252.000,475.000" stroke-width="3.150" stroke="black" fill="none" stroke-linecap="round"></path><path d="M 252.000,475.000 C 248.488,479.595 247.753,478.716 244.000,483.000" stroke-width="3.250" stroke="black" fill="none" stroke-linecap="round"></path><path d="M 244.000,483.000 C 233.833,490.650 233.988,490.595 223.000,497.000" stroke-width="3.263" stroke="black" fill="none" stroke-linecap="round"></path><path d="M 223.000,497.000 C 219.104,498.906 219.333,499.150 215.000,500.000" stroke-width="3.585" stroke="black" fill="none" stroke-linecap="round"></path><path d="M 215.000,500.000 C 211.519,500.765 211.604,500.906 208.000,501.000" stroke-width="3.848" stroke="black" fill="none" stroke-linecap="round"></path><path d="M 208.000,501.000 C 203.333,502.389 204.019,501.265 200.000,501.000" stroke-width="4.490" stroke="black" fill="none" stroke-linecap="round"></path><path d="M 200.000,501.000 C 196.812,499.014 197.333,499.889 196.000,496.000" stroke-width="4.642" stroke="black" fill="none" stroke-linecap="round"></path><path d="M 196.000,496.000 C 191.877,485.111 193.312,486.014 193.000,475.000" stroke-width="3.749" stroke="black" fill="none" stroke-linecap="round"></path><path d="M 193.000,475.000 C 196.121,467.301 193.877,467.111 200.000,460.000" stroke-width="3.001" stroke="black" fill="none" stroke-linecap="round"></path><path d="M 200.000,460.000 C 204.627,451.238 204.621,451.301 210.000,443.000" stroke-width="2.712" stroke="black" fill="none" stroke-linecap="round"></path><path d="M 210.000,443.000 C 211.595,438.811 212.127,439.738 215.000,437.000" stroke-width="3.380" stroke="black" fill="none" stroke-linecap="round"></path><path d="M 215.000,437.000 C 235.981,427.458 235.095,426.311 257.000,418.000" stroke-width="2.618" stroke="black" fill="none" stroke-linecap="round"></path><path d="M 257.000,418.000 C 266.539,414.986 265.981,413.958 275.000,410.000" stroke-width="2.610" stroke="black" fill="none" stroke-linecap="round"></path><path d="M 275.000,410.000 C 293.943,397.409 294.539,398.486 313.000,385.000" stroke-width="2.227" stroke="black" fill="none" stroke-linecap="round"></path><path d="M 313.000,385.000 C 315.482,383.469 315.443,383.409 318.000,382.000" stroke-width="3.313" stroke="black" fill="none" stroke-linecap="round"></path><path d="M 318.000,382.000 C 321.897,380.539 321.482,379.969 325.000,378.000" stroke-width="3.601" stroke="black" fill="none" stroke-linecap="round"></path><path d="M 325.000,378.000 C 332.249,370.694 332.897,371.539 340.000,364.000" stroke-width="2.794" stroke="black" fill="none" stroke-linecap="round"></path><path d="M 340.000,364.000 C 343.282,361.153 343.249,361.194 347.000,359.000" stroke-width="3.298" stroke="black" fill="none" stroke-linecap="round"></path><path d="M 347.000,359.000 C 361.935,349.028 362.282,350.153 378.000,342.000" stroke-width="2.459" stroke="black" fill="none" stroke-linecap="round"></path><path d="M 378.000,342.000 C 386.691,340.529 385.935,338.528 395.000,338.000" stroke-width="2.672" stroke="black" fill="none" stroke-linecap="round"></path><path d="M 395.000,338.000 C 397.961,336.418 398.191,337.029 401.000,335.000" stroke-width="3.461" stroke="black" fill="none" stroke-linecap="round"></path><path d="M 401.000,335.000 C 406.209,334.033 405.461,332.918 410.000,331.000" stroke-width="3.582" stroke="black" fill="none" stroke-linecap="round"></path><path d="M 410.000,331.000 C 417.847,322.839 418.709,324.033 426.000,315.000" stroke-width="3.407" stroke="black" fill="none" stroke-linecap="round"></path><path d="M 426.000,315.000 C 430.918,310.404 430.847,310.339 436.000,306.000" stroke-width="3.153" stroke="black" fill="none" stroke-linecap="round"></path><path d="M 436.000,306.000 C 438.624,304.138 438.418,303.904 441.000,302.000" stroke-width="3.790" stroke="black" fill="none" stroke-linecap="round"></path><path d="M 441.000,302.000 C 443.215,299.142 443.624,299.638 446.000,297.000" stroke-width="4.343" stroke="black" fill="none" stroke-linecap="round"></path><path d="M 446.000,297.000 C 453.392,293.216 449.715,294.142 454.000,292.000" stroke-width="4.365" stroke="black" fill="none" stroke-linecap="round"></path><path d="M 454.000,292.000 C 450.935,292.217 454.392,291.216 448.000,293.000" stroke-width="4.995" stroke="black" fill="none" stroke-linecap="round"></path><path d="M 448.000,293.000 C 435.827,296.058 435.935,296.217 424.000,300.000" stroke-width="2.639" stroke="black" fill="none" stroke-linecap="round"></path><path d="M 424.000,300.000 C 420.810,301.193 420.827,301.058 418.000,303.000" stroke-width="3.445" stroke="black" fill="none" stroke-linecap="round"></path><path d="M 418.000,303.000 C 413.615,305.575 413.810,305.693 410.000,309.000" stroke-width="3.512" stroke="black" fill="none" stroke-linecap="round"></path><path d="M 410.000,309.000 C 404.154,314.742 404.115,314.575 399.000,321.000" stroke-width="2.972" stroke="black" fill="none" stroke-linecap="round"></path><path d="M 399.000,321.000 C 397.302,323.395 397.154,323.242 396.000,326.000" stroke-width="3.730" stroke="black" fill="none" stroke-linecap="round"></path><path d="M 396.000,326.000 C 391.599,332.283 392.802,332.395 390.000,339.000" stroke-width="3.692" stroke="black" fill="none" stroke-linecap="round"></path><path d="M 390.000,339.000 C 390.212,343.059 389.099,342.783 391.000,347.000" stroke-width="3.868" stroke="black" fill="none" stroke-linecap="round"></path><path d="M 391.000,347.000 C 391.404,350.808 391.712,350.559 393.000,354.000" stroke-width="3.811" stroke="black" fill="none" stroke-linecap="round"></path><path d="M 393.000,354.000 C 394.126,357.895 394.404,356.808 397.000,359.000" stroke-width="3.953" stroke="black" fill="none" stroke-linecap="round"></path><path d="M 397.000,359.000 C 408.039,363.336 407.126,362.895 419.000,364.000" stroke-width="3.504" stroke="black" fill="none" stroke-linecap="round"></path><path d="M 419.000,364.000 C 424.929,363.415 424.539,364.336 430.000,361.000" stroke-width="3.461" stroke="black" fill="none" stroke-linecap="round"></path><path d="M 430.000,361.000 C 435.600,358.106 435.429,358.415 440.000,354.000" stroke-width="3.267" stroke="black" fill="none" stroke-linecap="round"></path><path d="M 440.000,354.000 C 442.534,350.524 443.100,351.106 445.000,347.000" stroke-width="3.531" stroke="black" fill="none" stroke-linecap="round"></path><path d="M 445.000,347.000 C 449.848,340.706 449.534,340.524 454.000,334.000" stroke-width="3.742" stroke="black" fill="none" stroke-linecap="round"></path><path d="M 454.000,334.000 C 457.414,330.101 456.348,330.206 458.000,326.000" stroke-width="3.702" stroke="black" fill="none" stroke-linecap="round"></path><path d="M 458.000,326.000 C 458.694,320.539 458.414,323.101 456.000,320.000" stroke-width="4.520" stroke="black" fill="none" stroke-linecap="round"></path><path d="M 456.000,320.000 C 444.270,319.343 446.194,318.039 433.000,321.000" stroke-width="3.602" stroke="black" fill="none" stroke-linecap="round"></path><path d="M 433.000,321.000 C 427.260,322.525 427.270,321.843 422.000,325.000" stroke-width="3.408" stroke="black" fill="none" stroke-linecap="round"></path><path d="M 422.000,325.000 C 419.108,327.187 418.760,326.525 416.000,329.000" stroke-width="3.770" stroke="black" fill="none" stroke-linecap="round"></path><path d="M 416.000,329.000 C 412.407,329.860 413.108,330.687 410.000,332.000" stroke-width="3.951" stroke="black" fill="none" stroke-linecap="round"></path><path d="M 410.000,332.000 C 406.079,334.974 407.907,333.860 407.000,337.000" stroke-width="4.833" stroke="black" fill="none" stroke-linecap="round"></path><path d="M 407.000,337.000 C 410.526,341.421 408.579,340.474 415.000,343.000" stroke-width="4.730" stroke="black" fill="none" stroke-linecap="round"></path><path d="M 415.000,343.000 C 419.540,343.446 419.026,344.421 424.000,343.000" stroke-width="3.878" stroke="black" fill="none" stroke-linecap="round"></path><path d="M 424.000,343.000 C 429.647,342.487 429.540,342.446 435.000,341.000" stroke-width="3.463" stroke="black" fill="none" stroke-linecap="round"></path><path d="M 435.000,341.000 C 438.597,339.701 438.647,339.987 442.000,338.000" stroke-width="3.748" stroke="black" fill="none" stroke-linecap="round"></path><path d="M 442.000,338.000 C 448.722,334.863 448.597,334.701 455.000,331.000" stroke-width="3.132" stroke="black" fill="none" stroke-linecap="round"></path><path d="M 455.000,331.000 C 461.510,326.515 461.722,326.863 468.000,322.000" stroke-width="2.914" stroke="black" fill="none" stroke-linecap="round"></path><path d="M 468.000,322.000 C 473.158,318.703 473.010,318.515 478.000,315.000" stroke-width="3.102" stroke="black" fill="none" stroke-linecap="round"></path><path d="M 478.000,315.000 C 481.257,311.674 481.658,312.203 485.000,309.000" stroke-width="3.465" stroke="black" fill="none" stroke-linecap="round"></path><path d="M 485.000,309.000 C 492.129,304.685 491.757,304.174 499.000,300.000" stroke-width="2.864" stroke="black" fill="none" stroke-linecap="round"></path><path d="M 499.000,300.000 C 503.820,297.785 503.129,297.185 507.000,294.000" stroke-width="3.258" stroke="black" fill="none" stroke-linecap="round"></path><path d="M 507.000,294.000 C 513.705,284.628 514.320,285.285 520.000,275.000" stroke-width="2.597" stroke="black" fill="none" stroke-linecap="round"></path><path d="M 520.000,275.000 C 522.104,271.556 522.205,271.628 524.000,268.000" stroke-width="3.304" stroke="black" fill="none" stroke-linecap="round"></path><path d="M 524.000,268.000 C 525.728,263.845 526.104,264.056 528.000,260.000" stroke-width="3.511" stroke="black" fill="none" stroke-linecap="round"></path><path d="M 528.000,260.000 C 532.315,252.871 532.228,252.845 537.000,246.000" stroke-width="3.015" stroke="black" fill="none" stroke-linecap="round"></path><path d="M 537.000,246.000 C 539.597,241.630 539.815,241.871 543.000,238.000" stroke-width="3.314" stroke="black" fill="none" stroke-linecap="round"></path><path d="M 543.000,238.000 C 547.500,234.000 547.097,233.630 552.000,230.000" stroke-width="3.176" stroke="black" fill="none" stroke-linecap="round"></path><path d="M 552.000,230.000 C 557.049,226.478 556.500,226.000 561.000,222.000" stroke-width="3.199" stroke="black" fill="none" stroke-linecap="round"></path><path d="M 561.000,222.000 C 564.476,217.733 564.549,217.978 567.000,213.000" stroke-width="3.363" stroke="black" fill="none" stroke-linecap="round"></path><path d="M 567.000,213.000 C 569.780,209.341 568.476,210.233 569.000,207.000" stroke-width="3.804" stroke="black" fill="none" stroke-linecap="round"></path><path d="M 569.000,207.000 C 566.749,204.000 568.280,204.841 564.000,204.000" stroke-width="4.425" stroke="black" fill="none" stroke-linecap="round"></path><path d="M 564.000,204.000 C 556.750,204.750 557.249,204.000 550.000,207.000" stroke-width="3.366" stroke="black" fill="none" stroke-linecap="round"></path><path d="M 550.000,207.000 C 543.338,209.693 543.250,209.250 537.000,213.000" stroke-width="3.141" stroke="black" fill="none" stroke-linecap="round"></path><path d="M 537.000,213.000 C 531.847,215.769 531.838,215.693 527.000,219.000" stroke-width="3.219" stroke="black" fill="none" stroke-linecap="round"></path><path d="M 527.000,219.000 C 520.697,222.146 521.347,222.769 516.000,227.000" stroke-width="3.092" stroke="black" fill="none" stroke-linecap="round"></path><path d="M 516.000,227.000 C 506.608,238.591 505.697,237.646 497.000,250.000" stroke-width="2.205" stroke="black" fill="none" stroke-linecap="round"></path><path d="M 497.000,250.000 C 490.272,257.312 490.608,257.591 484.000,265.000" stroke-width="2.464" stroke="black" fill="none" stroke-linecap="round"></path><path d="M 484.000,265.000 C 474.965,276.473 474.772,276.312 466.000,288.000" stroke-width="2.113" stroke="black" fill="none" stroke-linecap="round"></path><path d="M 466.000,288.000 C 460.331,294.071 460.965,294.473 456.000,301.000" stroke-width="2.587" stroke="black" fill="none" stroke-linecap="round"></path><path d="M 456.000,301.000 C 450.549,310.295 450.331,310.071 446.000,320.000" stroke-width="2.455" stroke="black" fill="none" stroke-linecap="round"></path><path d="M 446.000,320.000 C 443.445,326.479 443.049,326.295 441.000,333.000" stroke-width="2.868" stroke="black" fill="none" stroke-linecap="round"></path><path d="M 441.000,333.000 C 438.131,338.347 438.945,338.479 437.000,344.000" stroke-width="3.178" stroke="black" fill="none" stroke-linecap="round"></path><path d="M 437.000,344.000 C 434.219,353.000 436.131,348.347 437.000,353.000" stroke-width="3.956" stroke="black" fill="none" stroke-linecap="round"></path><path d="M 437.000,353.000 C 446.415,349.196 443.219,353.000 455.000,344.000" stroke-width="4.384" stroke="black" fill="none" stroke-linecap="round"></path><path d="M 455.000,344.000 C 465.533,337.635 465.415,337.696 475.000,330.000" stroke-width="2.691" stroke="black" fill="none" stroke-linecap="round"></path><path d="M 475.000,330.000 C 480.241,324.211 481.033,325.135 486.000,319.000" stroke-width="2.859" stroke="black" fill="none" stroke-linecap="round"></path><path d="M 486.000,319.000 C 490.597,314.344 490.741,314.711 496.000,311.000" stroke-width="3.040" stroke="black" fill="none" stroke-linecap="round"></path><path d="M 496.000,311.000 C 501.420,308.297 501.097,307.844 507.000,306.000" stroke-width="3.209" stroke="black" fill="none" stroke-linecap="round"></path><path d="M 507.000,306.000 C 511.413,302.254 509.920,304.797 513.000,304.000" stroke-width="4.110" stroke="black" fill="none" stroke-linecap="round"></path><path d="M 513.000,304.000 C 515.909,310.454 516.413,307.754 517.000,317.000" stroke-width="4.475" stroke="black" fill="none" stroke-linecap="round"></path><path d="M 517.000,317.000 C 516.211,319.471 517.409,319.454 516.000,322.000" stroke-width="4.370" stroke="black" fill="none" stroke-linecap="round"></path><path d="M 516.000,322.000 C 513.682,327.510 515.711,325.471 516.000,329.000" stroke-width="4.742" stroke="black" fill="none" stroke-linecap="round"></path><path d="M 516.000,329.000 C 523.096,331.288 520.682,332.010 530.000,331.000" stroke-width="4.472" stroke="black" fill="none" stroke-linecap="round"></path><path d="M 530.000,331.000 C 535.050,329.650 535.096,330.788 540.000,328.000" stroke-width="3.732" stroke="black" fill="none" stroke-linecap="round"></path><path d="M 540.000,328.000 C 545.548,326.120 545.550,326.150 551.000,324.000" stroke-width="3.380" stroke="black" fill="none" stroke-linecap="round"></path><path d="M 551.000,324.000 C 554.421,322.278 554.548,322.620 558.000,321.000" stroke-width="3.671" stroke="black" fill="none" stroke-linecap="round"></path><path d="M 558.000,321.000 C 561.441,319.712 561.421,319.778 565.000,319.000" stroke-width="3.854" stroke="black" fill="none" stroke-linecap="round"></path><path d="M 565.000,319.000 C 571.851,316.162 568.941,318.212 573.000,318.000" stroke-width="4.330" stroke="black" fill="none" stroke-linecap="round"></path><path d="M 573.000,318.000 C 571.858,322.665 574.351,320.162 570.000,327.000" stroke-width="4.591" stroke="black" fill="none" stroke-linecap="round"></path><path d="M 570.000,327.000 C 568.500,329.500 568.858,329.665 567.000,332.000" stroke-width="4.302" stroke="black" fill="none" stroke-linecap="round"></path><path d="M 567.000,332.000 C 562.450,335.591 565.500,334.500 564.000,337.000" stroke-width="4.626" stroke="black" fill="none" stroke-linecap="round"></path><path d="M 564.000,337.000 C 570.884,340.645 567.950,340.591 578.000,342.000" stroke-width="4.636" stroke="black" fill="none" stroke-linecap="round"></path><path d="M 578.000,342.000 C 581.569,341.792 581.384,342.645 585.000,341.000" stroke-width="4.096" stroke="black" fill="none" stroke-linecap="round"></path><path d="M 585.000,341.000 C 588.504,340.872 588.069,340.292 591.000,339.000" stroke-width="4.499" stroke="black" fill="none" stroke-linecap="round"></path><path d="M 591.000,339.000 C 599.346,330.126 600.504,331.872 609.000,323.000" stroke-width="4.984" stroke="black" fill="none" stroke-linecap="round"></path><path d="M 609.000,323.000 C 621.401,316.055 620.346,314.626 633.000,308.000" stroke-width="2.552" stroke="black" fill="none" stroke-linecap="round"></path><path d="M 633.000,308.000 C 639.391,303.416 639.401,303.555 645.000,298.000" stroke-width="2.806" stroke="black" fill="none" stroke-linecap="round"></path><path d="M 645.000,298.000 C 653.561,289.057 653.891,289.416 662.000,280.000" stroke-width="2.359" stroke="black" fill="none" stroke-linecap="round"></path><path d="M 662.000,280.000 C 673.987,266.988 674.061,267.057 686.000,254.000" stroke-width="2.624" stroke="black" fill="none" stroke-linecap="round"></path><path d="M 686.000,254.000 C 692.123,246.602 692.487,246.988 699.000,240.000" stroke-width="2.581" stroke="black" fill="none" stroke-linecap="round"></path><path d="M 699.000,240.000 C 705.823,235.775 704.623,234.602 711.000,230.000" stroke-width="2.817" stroke="black" fill="none" stroke-linecap="round"></path><path d="M 711.000,230.000 C 718.759,220.986 718.823,221.275 725.000,211.000" stroke-width="2.477" stroke="black" fill="none" stroke-linecap="round"></path><path d="M 725.000,211.000 C 733.960,196.863 733.759,196.986 741.000,182.000" stroke-width="2.699" stroke="black" fill="none" stroke-linecap="round"></path><path d="M 741.000,182.000 C 741.737,177.419 742.960,177.863 743.000,173.000" stroke-width="3.341" stroke="black" fill="none" stroke-linecap="round"></path><path d="M 743.000,173.000 C 745.891,169.781 743.737,170.419 745.000,168.000" stroke-width="3.904" stroke="black" fill="none" stroke-linecap="round"></path><path d="M 745.000,168.000 C 741.738,164.368 743.891,165.781 739.000,165.000" stroke-width="4.833" stroke="black" fill="none" stroke-linecap="round"></path><path d="M 739.000,165.000 C 735.155,167.660 735.238,165.868 732.000,171.000" stroke-width="3.873" stroke="black" fill="none" stroke-linecap="round"></path><path d="M 732.000,171.000 C 727.301,177.275 726.655,176.660 722.000,183.000" stroke-width="3.162" stroke="black" fill="none" stroke-linecap="round"></path><path d="M 722.000,183.000 C 713.433,189.691 714.801,190.775 707.000,198.000" stroke-width="2.602" stroke="black" fill="none" stroke-linecap="round"></path><path d="M 707.000,198.000 C 702.586,206.050 701.433,205.191 698.000,214.000" stroke-width="2.614" stroke="black" fill="none" stroke-linecap="round"></path><path d="M 698.000,214.000 C 695.385,219.261 695.086,219.050 692.000,224.000" stroke-width="3.081" stroke="black" fill="none" stroke-linecap="round"></path><path d="M 692.000,224.000 C 682.186,236.281 682.885,236.761 673.000,249.000" stroke-width="2.339" stroke="black" fill="none" stroke-linecap="round"></path><path d="M 673.000,249.000 C 669.525,254.516 669.186,254.281 666.000,260.000" stroke-width="2.917" stroke="black" fill="none" stroke-linecap="round"></path><path d="M 666.000,260.000 C 659.728,268.101 660.525,268.516 655.000,277.000" stroke-width="2.663" stroke="black" fill="none" stroke-linecap="round"></path><path d="M 655.000,277.000 C 652.218,284.598 651.228,284.101 649.000,292.000" stroke-width="2.757" stroke="black" fill="none" stroke-linecap="round"></path><path d="M 649.000,292.000 C 647.402,296.263 647.218,296.098 645.000,300.000" stroke-width="3.389" stroke="black" fill="none" stroke-linecap="round"></path><path d="M 645.000,300.000 C 642.500,303.000 642.902,303.263 640.000,306.000" stroke-width="3.653" stroke="black" fill="none" stroke-linecap="round"></path><path d="M 640.000,306.000 C 637.636,309.124 637.500,309.000 635.000,312.000" stroke-width="3.792" stroke="black" fill="none" stroke-linecap="round"></path><path d="M 635.000,312.000 C 631.666,314.719 632.136,315.124 629.000,318.000" stroke-width="3.710" stroke="black" fill="none" stroke-linecap="round"></path><path d="M 629.000,318.000 C 625.520,323.014 625.166,322.719 622.000,328.000" stroke-width="3.452" stroke="black" fill="none" stroke-linecap="round"></path><path d="M 622.000,328.000 C 619.247,331.348 619.520,331.514 617.000,335.000" stroke-width="4.085" stroke="black" fill="none" stroke-linecap="round"></path><path d="M 617.000,335.000 C 612.264,341.976 615.247,337.848 614.000,341.000" stroke-width="4.496" stroke="black" fill="none" stroke-linecap="round"></path><path d="M 614.000,341.000 C 623.517,333.521 620.264,337.476 633.000,326.000" stroke-width="4.836" stroke="black" fill="none" stroke-linecap="round"></path><path d="M 633.000,326.000 C 637.508,321.231 638.017,322.021 643.000,318.000" stroke-width="3.495" stroke="black" fill="none" stroke-linecap="round"></path><path d="M 643.000,318.000 C 654.767,311.437 654.508,311.231 667.000,306.000" stroke-width="2.459" stroke="black" fill="none" stroke-linecap="round"></path><path d="M 667.000,306.000 C 672.970,303.904 672.767,303.437 679.000,302.000" stroke-width="2.846" stroke="black" fill="none" stroke-linecap="round"></path><path d="M 679.000,302.000 C 682.460,300.833 682.470,300.904 686.000,300.000" stroke-width="3.491" stroke="black" fill="none" stroke-linecap="round"></path><path d="M 686.000,300.000 C 691.501,296.715 690.960,298.833 696.000,298.000" stroke-width="3.508" stroke="black" fill="none" stroke-linecap="round"></path><path d="M 696.000,298.000 C 705.008,300.465 702.001,299.715 707.000,306.000" stroke-width="3.996" stroke="black" fill="none" stroke-linecap="round"></path><path d="M 707.000,306.000 C 707.325,314.863 709.508,312.965 705.000,323.000" stroke-width="3.079" stroke="black" fill="none" stroke-linecap="round"></path><path d="M 705.000,323.000 C 701.401,332.198 702.325,332.363 697.000,341.000" stroke-width="2.666" stroke="black" fill="none" stroke-linecap="round"></path><path d="M 697.000,341.000 C 692.526,353.098 691.401,352.198 685.000,363.000" stroke-width="2.379" stroke="black" fill="none" stroke-linecap="round"></path><path d="M 685.000,363.000 C 673.043,378.127 673.526,378.098 659.000,391.000" stroke-width="2.534" stroke="black" fill="none" stroke-linecap="round"></path><path d="M 659.000,391.000 C 642.535,405.279 643.043,405.627 625.000,418.000" stroke-width="1.784" stroke="black" fill="none" stroke-linecap="round"></path><path d="M 625.000,418.000 C 617.200,424.669 617.035,423.779 608.000,428.000" stroke-width="2.288" stroke="black" fill="none" stroke-linecap="round"></path><path d="M 608.000,428.000 C 587.776,435.334 588.200,435.169 567.000,439.000" stroke-width="1.766" stroke="black" fill="none" stroke-linecap="round"></path><path d="M 567.000,439.000 C 553.502,440.000 553.776,441.334 540.000,440.000" stroke-width="1.982" stroke="black" fill="none" stroke-linecap="round"></path><path d="M 540.000,440.000 C 522.462,440.151 522.502,440.000 505.000,439.000" stroke-width="1.879" stroke="black" fill="none" stroke-linecap="round"></path><path d="M 505.000,439.000 C 476.711,438.217 476.962,437.151 449.000,434.000" stroke-width="1.386" stroke="black" fill="none" stroke-linecap="round"></path><path d="M 449.000,434.000 C 430.487,430.996 430.711,431.217 413.000,425.000" stroke-width="1.633" stroke="black" fill="none" stroke-linecap="round"></path><path d="M 413.000,425.000 C 395.979,417.546 395.487,418.996 379.000,410.000" stroke-width="2.230" stroke="black" fill="none" stroke-linecap="round"></path><path d="M 379.000,410.000 C 368.994,405.513 368.979,405.546 359.000,401.000" stroke-width="2.384" stroke="black" fill="none" stroke-linecap="round"></path><path d="M 359.000,401.000 C 353.690,397.970 353.494,398.513 348.000,396.000" stroke-width="2.952" stroke="black" fill="none" stroke-linecap="round"></path><path d="M 348.000,396.000 C 340.497,394.011 340.690,393.470 333.000,392.000" stroke-width="2.944" stroke="black" fill="none" stroke-linecap="round"></path><path d="M 333.000,392.000 C 317.489,392.080 319.997,388.511 307.000,385.000" stroke-width="3.078" stroke="black" fill="none" stroke-linecap="round"></path><path d="M 307.000,385.000 C 296.148,376.433 297.489,378.580 293.000,365.000" stroke-width="2.428" stroke="black" fill="none" stroke-linecap="round"></path><path d="M 293.000,365.000 C 288.000,340.450 286.648,341.933 288.000,316.000" stroke-width="1.585" stroke="black" fill="none" stroke-linecap="round"></path><path d="M 288.000,316.000 C 290.625,298.517 288.000,298.450 293.000,281.000" stroke-width="1.746" stroke="black" fill="none" stroke-linecap="round"></path><path d="M 293.000,281.000 C 293.523,268.767 294.625,269.017 296.000,257.000" stroke-width="2.065" stroke="black" fill="none" stroke-linecap="round"></path><path d="M 296.000,257.000 C 297.784,249.661 297.523,249.767 301.000,243.000" stroke-width="2.642" stroke="black" fill="none" stroke-linecap="round"></path><path d="M 301.000,243.000 C 302.819,232.836 304.784,235.161 310.000,228.000" stroke-width="2.673" stroke="black" fill="none" stroke-linecap="round"></path><path d="M 310.000,228.000 C 376.283,180.024 376.319,183.336 448.000,144.000" stroke-width="1.233" stroke="black" fill="none" stroke-linecap="round"></path><path d="M 448.000,144.000 C 486.830,128.641 484.783,125.524 527.000,119.000" stroke-width="1.125" stroke="black" fill="none" stroke-linecap="round"></path><path d="M 527.000,119.000 C 562.435,113.045 561.830,110.641 598.000,108.000" stroke-width="1.125" stroke="black" fill="none" stroke-linecap="round"></path><path d="M 598.000,108.000 C 632.946,100.149 632.935,103.045 668.000,99.000" stroke-width="1.125" stroke="black" fill="none" stroke-linecap="round"></path><path d="M 668.000,99.000 C 694.175,100.531 693.946,98.149 720.000,104.000" stroke-width="1.223" stroke="black" fill="none" stroke-linecap="round"></path><path d="M 720.000,104.000 C 727.548,105.832 727.675,105.031 735.000,108.000" stroke-width="2.039" stroke="black" fill="none" stroke-linecap="round"></path><path d="M 735.000,108.000 C 759.785,108.664 755.048,113.832 775.000,120.000" stroke-width="2.356" stroke="black" fill="none" stroke-linecap="round"></path><path d="M 775.000,120.000 C 782.949,132.574 785.285,127.664 786.000,146.000" stroke-width="2.181" stroke="black" fill="none" stroke-linecap="round"></path><path d="M 786.000,146.000 C 788.789,156.131 787.949,154.574 785.000,164.000" stroke-width="2.486" stroke="black" fill="none" stroke-linecap="round"></path><path d="M 785.000,164.000 C 777.233,186.989 775.789,183.131 760.000,200.000" stroke-width="1.706" stroke="black" fill="none" stroke-linecap="round"></path><path d="M 760.000,200.000 C 701.031,249.107 701.733,243.989 634.000,278.000" stroke-width="1.187" stroke="black" fill="none" stroke-linecap="round"></path><path d="M 634.000,278.000 C 581.338,291.560 585.031,299.107 528.000,300.000" stroke-width="1.125" stroke="black" fill="none" stroke-linecap="round"></path><path d="M 528.000,300.000 C 502.019,302.142 502.338,304.060 476.000,303.000" stroke-width="1.176" stroke="black" fill="none" stroke-linecap="round"></path><path d="M 476.000,303.000 C 456.252,304.719 456.519,303.642 437.000,303.000" stroke-width="1.504" stroke="black" fill="none" stroke-linecap="round"></path><path d="M 437.000,303.000 C 428.307,300.991 428.252,302.219 420.000,298.000" stroke-width="2.166" stroke="black" fill="none" stroke-linecap="round"></path><path d="M 420.000,298.000 C 414.971,297.146 415.807,296.491 412.000,294.000" stroke-width="3.045" stroke="black" fill="none" stroke-linecap="round"></path><path d="M 412.000,294.000 C 406.985,287.246 406.471,288.146 403.000,280.000" stroke-width="2.837" stroke="black" fill="none" stroke-linecap="round"></path><path d="M 403.000,280.000 C 400.503,276.733 401.485,277.246 401.000,274.000" stroke-width="3.948" stroke="black" fill="none" stroke-linecap="round"></path><path d="M 738.000,327.000 C 740.955,328.170 741.000,328.000 744.000,329.000" stroke-width="5.440" stroke="black" fill="none" stroke-linecap="round"></path><path d="M 744.000,329.000 C 746.463,330.000 746.455,329.670 749.000,330.000" stroke-width="4.561" stroke="black" fill="none" stroke-linecap="round"></path><path d="M 749.000,330.000 C 759.237,330.914 758.963,330.000 769.000,329.000" stroke-width="2.969" stroke="black" fill="none" stroke-linecap="round"></path><path d="M 769.000,329.000 C 784.872,325.501 784.737,325.914 800.000,320.000" stroke-width="2.166" stroke="black" fill="none" stroke-linecap="round"></path><path d="M 800.000,320.000 C 811.983,314.462 812.372,315.501 824.000,309.000" stroke-width="2.135" stroke="black" fill="none" stroke-linecap="round"></path><path d="M 824.000,309.000 C 833.853,304.122 833.983,304.462 844.000,300.000" stroke-width="2.296" stroke="black" fill="none" stroke-linecap="round"></path><path d="M 844.000,300.000 C 849.893,297.527 849.853,297.622 856.000,296.000" stroke-width="2.876" stroke="black" fill="none" stroke-linecap="round"></path><path d="M 856.000,296.000 C 863.906,291.890 859.893,295.027 864.000,295.000" stroke-width="3.431" stroke="black" fill="none" stroke-linecap="round"></path><path d="M 864.000,295.000 C 862.407,312.778 864.406,308.390 857.000,329.000" stroke-width="2.689" stroke="black" fill="none" stroke-linecap="round"></path><path d="M 857.000,329.000 C 853.182,336.522 854.407,336.778 848.000,343.000" stroke-width="2.848" stroke="black" fill="none" stroke-linecap="round"></path><path d="M 848.000,343.000 C 838.406,353.418 839.182,354.022 829.000,364.000" stroke-width="2.222" stroke="black" fill="none" stroke-linecap="round"></path><path d="M 829.000,364.000 C 826.624,367.113 826.406,366.918 824.000,370.000" stroke-width="3.123" stroke="black" fill="none" stroke-linecap="round"></path><path d="M 824.000,370.000 C 818.423,375.577 821.624,372.613 819.000,375.000" stroke-width="4.046" stroke="black" fill="none" stroke-linecap="round"></path><path d="M 819.000,375.000 C 822.511,370.420 819.923,374.077 827.000,367.000" stroke-width="3.613" stroke="black" fill="none" stroke-linecap="round"></path><path d="M 827.000,367.000 C 843.925,354.892 843.511,354.420 861.000,343.000" stroke-width="1.883" stroke="black" fill="none" stroke-linecap="round"></path><path d="M 861.000,343.000 C 871.923,335.385 871.925,335.392 883.000,328.000" stroke-width="2.089" stroke="black" fill="none" stroke-linecap="round"></path><path d="M 883.000,328.000 C 898.695,316.942 898.923,317.385 915.000,307.000" stroke-width="2.425" stroke="black" fill="none" stroke-linecap="round"></path><path d="M 915.000,307.000 C 919.364,304.545 919.195,304.442 924.000,303.000" stroke-width="3.079" stroke="black" fill="none" stroke-linecap="round"></path><path d="M 924.000,303.000 C 927.041,301.772 926.864,302.045 930.000,302.000" stroke-width="4.096" stroke="black" fill="none" stroke-linecap="round"></path><path d="M 930.000,302.000 C 934.250,301.937 933.541,302.272 937.000,304.000" stroke-width="3.984" stroke="black" fill="none" stroke-linecap="round"></path><path d="M 937.000,304.000 C 940.094,307.187 940.250,306.437 942.000,311.000" stroke-width="3.750" stroke="black" fill="none" stroke-linecap="round"></path><path d="M 942.000,311.000 C 945.351,316.482 944.594,316.187 946.000,322.000" stroke-width="3.447" stroke="black" fill="none" stroke-linecap="round"></path><path d="M 946.000,322.000 C 942.099,327.561 946.351,324.982 944.000,328.000" stroke-width="4.249" stroke="black" fill="none" stroke-linecap="round"></path><path d="M 944.000,328.000 C 951.427,326.010 948.599,329.061 959.000,325.000" stroke-width="4.885" stroke="black" fill="none" stroke-linecap="round"></path><path d="M 959.000,325.000 C 973.971,323.156 973.927,323.010 989.000,322.000" stroke-width="2.379" stroke="black" fill="none" stroke-linecap="round"></path><path d="M 989.000,322.000 C 1025.963,318.074 1025.971,319.156 1063.000,317.000" stroke-width="1.209" stroke="black" fill="none" stroke-linecap="round"></path><path d="M 1063.000,317.000 C 1094.998,317.724 1094.963,316.074 1127.000,318.000" stroke-width="1.189" stroke="black" fill="none" stroke-linecap="round"></path><path d="M 1127.000,318.000 C 1153.008,318.351 1152.998,318.224 1179.000,318.000" stroke-width="1.320" stroke="black" fill="none" stroke-linecap="round"></path><path d="M 1179.000,318.000 C 1190.031,317.866 1190.008,317.851 1201.000,317.000" stroke-width="2.287" stroke="black" fill="none" stroke-linecap="round"></path><path d="M 1201.000,317.000 C 1209.023,316.140 1209.031,316.366 1217.000,315.000" stroke-width="2.676" stroke="black" fill="none" stroke-linecap="round"></path><path d="M 1217.000,315.000 C 1219.828,313.210 1219.523,314.640 1222.000,314.000" stroke-width="3.651" stroke="black" fill="none" stroke-linecap="round"></path><path d="M 1222.000,314.000 C 1227.419,315.710 1225.328,315.210 1228.000,319.000" stroke-width="4.408" stroke="black" fill="none" stroke-linecap="round"></path><path d="M 1228.000,319.000 C 1223.302,326.755 1228.919,324.210 1225.000,331.000" stroke-width="4.156" stroke="black" fill="none" stroke-linecap="round"></path><path d="M 1225.000,331.000 C 1229.359,333.828 1226.302,334.255 1234.000,334.000" stroke-width="4.747" stroke="black" fill="none" stroke-linecap="round"></path><path d="M 1234.000,334.000 C 1242.985,332.721 1242.859,334.328 1252.000,332.000" stroke-width="3.044" stroke="black" fill="none" stroke-linecap="round"></path><path d="M 1252.000,332.000 C 1259.438,332.000 1255.485,331.721 1259.000,332.000" stroke-width="4.010" stroke="black" fill="none" stroke-linecap="round"></path><path d="M 1259.000,332.000 C 1254.500,332.000 1258.438,332.000 1250.000,332.000" stroke-width="4.357" stroke="black" fill="none" stroke-linecap="round"></path><path d="M 1250.000,332.000 C 1245.975,331.576 1246.000,332.000 1242.000,332.000" stroke-width="3.913" stroke="black" fill="none" stroke-linecap="round"></path><path d="M 1242.000,332.000 C 1208.516,336.144 1208.475,335.576 1175.000,340.000" stroke-width="1.439" stroke="black" fill="none" stroke-linecap="round"></path><path d="M 1175.000,340.000 C 1152.091,343.860 1152.016,342.644 1129.000,345.000" stroke-width="1.443" stroke="black" fill="none" stroke-linecap="round"></path><path d="M 1129.000,345.000 C 1071.007,347.445 1071.091,347.860 1013.000,348.000" stroke-width="1.125" stroke="black" fill="none" stroke-linecap="round"></path><path d="M 1013.000,348.000 C 966.488,346.481 966.507,348.445 920.000,347.000" stroke-width="1.125" stroke="black" fill="none" stroke-linecap="round"></path><path d="M 920.000,347.000 C 876.799,346.340 876.988,347.481 834.000,350.000" stroke-width="1.125" stroke="black" fill="none" stroke-linecap="round"></path><path d="M 834.000,350.000 C 801.004,355.027 800.799,352.840 768.000,360.000" stroke-width="1.208" stroke="black" fill="none" stroke-linecap="round"></path><path d="M 768.000,360.000 C 764.516,360.730 764.504,360.527 761.000,361.000" stroke-width="2.355" stroke="black" fill="none" stroke-linecap="round"></path></svg>