<svg xmlns="http://www.w3.org/2000/svg" xmlns:xlink="http://www.w3.org/1999/xlink" viewBox="0 0 1460 576" width="1460" height="576"><path d="M 693.000,306.000 C 689.748,302.187 692.000,302.500 691.000,299.000" stroke-width="5.003" stroke="black" fill="none" stroke-linecap="round"></path><path d="M 691.000,299.000 C 695.232,286.490 695.248,288.187 704.000,278.000" stroke-width="2.738" stroke="black" fill="none" stroke-linecap="round"></path><path d="M 704.000,278.000 C 726.180,253.138 726.732,255.990 754.000,238.000" stroke-width="1.423" stroke="black" fill="none" stroke-linecap="round"></path><path d="M 754.000,238.000 C 796.298,218.681 794.180,216.138 840.000,204.000" stroke-width="1.484" stroke="black" fill="none" stroke-linecap="round"></path><path d="M 840.000,204.000 C 860.925,198.793 860.298,197.181 882.000,195.000" stroke-width="2.067" stroke="black" fill="none" stroke-linecap="round"></path><path d="M 882.000,195.000 C 889.116,191.526 885.925,194.293 890.000,195.000" stroke-width="3.047" stroke="black" fill="none" stroke-linecap="round"></path><path d="M 890.000,195.000 C 902.958,224.309 896.116,219.026 896.000,250.000" stroke-width="2.247" stroke="black" fill="none" stroke-linecap="round"></path><path d="M 896.000,250.000 C 875.641,296.203 883.458,296.309 851.000,339.000" stroke-width="1.125" stroke="black" fill="none" stroke-linecap="round"></path><path d="M 851.000,339.000 C 845.054,344.067 847.141,345.703 839.000,349.000" stroke-width="1.886" stroke="black" fill="none" stroke-linecap="round"></path><path d="M 839.000,349.000 C 832.462,358.692 831.554,355.067 824.000,361.000" stroke-width="2.310" stroke="black" fill="none" stroke-linecap="round"></path><path d="M 824.000,361.000 C 808.791,364.454 815.962,363.192 806.000,358.000" stroke-width="3.114" stroke="black" fill="none" stroke-linecap="round"></path><path d="M 806.000,358.000 C 804.119,339.875 800.791,345.954 808.000,324.000" stroke-width="2.059" stroke="black" fill="none" stroke-linecap="round"></path><path d="M 808.000,324.000 C 811.984,318.016 809.619,317.375 817.000,313.000" stroke-width="2.714" stroke="black" fill="none" stroke-linecap="round"></path><path d="M 817.000,313.000 C 830.938,298.404 830.984,299.016 846.000,286.000" stroke-width="2.602" stroke="black" fill="none" stroke-linecap="round"></path><path d="M 846.000,286.000 C 849.313,283.594 847.938,284.404 851.000,285.000" stroke-width="3.609" stroke="black" fill="none" stroke-linecap="round"></path><path d="M 851.000,285.000 C 858.764,290.461 855.313,288.594 858.000,296.000" stroke-width="3.895" stroke="black" fill="none" stroke-linecap="round"></path><path d="M 858.000,296.000 C 853.280,305.561 856.764,304.961 847.000,314.000" stroke-width="2.879" stroke="black" fill="none" stroke-linecap="round"></path><path d="M 847.000,314.000 C 839.362,330.649 837.280,327.061 826.000,339.000" stroke-width="2.138" stroke="black" fill="none" stroke-linecap="round"></path><path d="M 826.000,339.000 C 802.833,355.983 807.362,350.649 783.000,354.000" stroke-width="1.672" stroke="black" fill="none" stroke-linecap="round"></path><path d="M 783.000,354.000 C 765.914,346.055 767.833,352.483 756.000,332.000" stroke-width="1.789" stroke="black" fill="none" stroke-linecap="round"></path><path d="M 756.000,332.000 C 722.846,289.428 726.414,290.055 704.000,242.000" stroke-width="1.125" stroke="black" fill="none" stroke-linecap="round"></path><path d="M 704.000,242.000 C 687.166,204.852 692.846,213.928 696.000,181.000" stroke-width="1.125" stroke="black" fill="none" stroke-linecap="round"></path><path d="M 696.000,181.000 C 714.802,163.036 702.166,164.352 734.000,161.000" stroke-width="1.776" stroke="black" fill="none" stroke-linecap="round"></path><path d="M 734.000,161.000 C 748.838,166.238 747.802,159.536 762.000,174.000" stroke-width="1.875" stroke="black" fill="none" stroke-linecap="round"></path><path d="M 762.000,174.000 C 768.348,178.314 768.338,177.738 773.000,184.000" stroke-width="2.543" stroke="black" fill="none" stroke-linecap="round"></path><path d="M 773.000,184.000 C 780.800,189.764 777.348,189.314 780.000,196.000" stroke-width="2.853" stroke="black" fill="none" stroke-linecap="round"></path><path d="M 780.000,196.000 C 776.932,212.792 778.300,209.264 768.000,223.000" stroke-width="2.988" stroke="black" fill="none" stroke-linecap="round"></path></svg>