<svg xmlns="http://www.w3.org/2000/svg" xmlns:xlink="http://www.w3.org/1999/xlink" viewBox="0 0 1460 576" width="1460" height="576"><path d="M 675.000,163.000 C 684.479,156.677 685.000,159.000 695.000,155.000" stroke-width="4.947" stroke="black" fill="none" stroke-linecap="round"></path><path d="M 695.000,155.000 C 719.719,150.283 718.979,151.177 744.000,152.000" stroke-width="1.907" stroke="black" fill="none" stroke-linecap="round"></path><path d="M 744.000,152.000 C 769.707,154.837 769.219,153.783 794.000,162.000" stroke-width="1.474" stroke="black" fill="none" stroke-linecap="round"></path><path d="M 794.000,162.000 C 808.155,168.184 808.707,166.337 822.000,175.000" stroke-width="1.847" stroke="black" fill="none" stroke-linecap="round"></path><path d="M 822.000,175.000 C 843.501,181.601 840.655,184.184 859.000,194.000" stroke-width="2.277" stroke="black" fill="none" stroke-linecap="round"></path><path d="M 859.000,194.000 C 865.492,202.256 866.001,199.601 867.000,211.000" stroke-width="2.540" stroke="black" fill="none" stroke-linecap="round"></path><path d="M 867.000,211.000 C 866.487,217.372 867.992,216.756 864.000,223.000" stroke-width="3.002" stroke="black" fill="none" stroke-linecap="round"></path><path d="M 864.000,223.000 C 859.623,241.719 856.987,238.872 848.000,254.000" stroke-width="2.084" stroke="black" fill="none" stroke-linecap="round"></path><path d="M 848.000,254.000 C 830.256,267.810 833.123,269.719 811.000,279.000" stroke-width="1.565" stroke="black" fill="none" stroke-linecap="round"></path><path d="M 811.000,279.000 C 792.990,289.404 793.256,289.310 774.000,297.000" stroke-width="1.620" stroke="black" fill="none" stroke-linecap="round"></path><path d="M 774.000,297.000 C 764.668,302.766 765.490,300.404 756.000,301.000" stroke-width="2.162" stroke="black" fill="none" stroke-linecap="round"></path><path d="M 756.000,301.000 C 735.321,296.446 737.668,297.266 720.000,286.000" stroke-width="2.463" stroke="black" fill="none" stroke-linecap="round"></path><path d="M 720.000,286.000 C 712.696,278.886 713.321,281.446 712.000,271.000" stroke-width="2.698" stroke="black" fill="none" stroke-linecap="round"></path><path d="M 712.000,271.000 C 710.868,258.725 711.196,261.886 717.000,252.000" stroke-width="2.635" stroke="black" fill="none" stroke-linecap="round"></path><path d="M 717.000,252.000 C 729.314,243.043 726.368,241.725 743.000,237.000" stroke-width="2.183" stroke="black" fill="none" stroke-linecap="round"></path><path d="M 743.000,237.000 C 767.789,224.049 767.814,226.043 794.000,218.000" stroke-width="1.515" stroke="black" fill="none" stroke-linecap="round"></path><path d="M 794.000,218.000 C 814.167,215.292 813.289,213.549 834.000,216.000" stroke-width="1.577" stroke="black" fill="none" stroke-linecap="round"></path><path d="M 834.000,216.000 C 842.415,216.966 842.167,216.292 850.000,220.000" stroke-width="2.258" stroke="black" fill="none" stroke-linecap="round"></path><path d="M 850.000,220.000 C 859.831,221.856 857.415,222.966 864.000,228.000" stroke-width="3.143" stroke="black" fill="none" stroke-linecap="round"></path><path d="M 864.000,228.000 C 869.000,238.072 869.331,235.856 869.000,248.000" stroke-width="2.697" stroke="black" fill="none" stroke-linecap="round"></path><path d="M 869.000,248.000 C 869.225,257.649 869.000,256.072 864.000,264.000" stroke-width="2.732" stroke="black" fill="none" stroke-linecap="round"></path><path d="M 864.000,264.000 C 845.637,294.532 843.725,288.649 818.000,310.000" stroke-width="1.408" stroke="black" fill="none" stroke-linecap="round"></path><path d="M 818.000,310.000 C 774.368,328.513 778.637,332.032 730.000,339.000" stroke-width="1.478" stroke="black" fill="none" stroke-linecap="round"></path><path d="M 730.000,339.000 C 716.944,340.998 719.368,341.513 708.000,336.000" stroke-width="2.041" stroke="black" fill="none" stroke-linecap="round"></path><path d="M 708.000,336.000 C 700.762,328.631 699.944,331.498 696.000,320.000" stroke-width="2.342" stroke="black" fill="none" stroke-linecap="round"></path><path d="M 696.000,320.000 C 687.042,310.404 692.762,314.131 692.000,307.000" stroke-width="2.840" stroke="black" fill="none" stroke-linecap="round"></path><path d="M 692.000,307.000 C 725.521,281.313 720.542,287.404 763.000,274.000" stroke-width="1.904" stroke="black" fill="none" stroke-linecap="round"></path><path d="M 763.000,274.000 C 809.783,272.502 807.521,265.313 856.000,275.000" stroke-width="1.125" stroke="black" fill="none" stroke-linecap="round"></path><path d="M 856.000,275.000 C 865.073,277.283 865.283,275.502 874.000,280.000" stroke-width="1.818" stroke="black" fill="none" stroke-linecap="round"></path><path d="M 874.000,280.000 C 878.310,280.160 876.573,280.783 879.000,282.000" stroke-width="3.018" stroke="black" fill="none" stroke-linecap="round"></path><path d="M 879.000,282.000 C 879.655,286.595 879.810,284.160 877.000,288.000" stroke-width="4.049" stroke="black" fill="none" stroke-linecap="round"></path><path d="M 877.000,288.000 C 861.707,297.163 862.655,295.595 845.000,300.000" stroke-width="2.154" stroke="black" fill="none" stroke-linecap="round"></path><path d="M 845.000,300.000 C 807.663,307.515 808.707,306.163 771.000,306.000" stroke-width="1.239" stroke="black" fill="none" stroke-linecap="round"></path><path d="M 771.000,306.000 C 744.604,305.588 747.163,305.015 724.000,295.000" stroke-width="1.428" stroke="black" fill="none" stroke-linecap="round"></path><path d="M 724.000,295.000 C 709.468,282.818 708.604,287.088 699.000,269.000" stroke-width="2.106" stroke="black" fill="none" stroke-linecap="round"></path><path d="M 699.000,269.000 C 697.550,264.899 696.968,266.318 699.000,262.000" stroke-width="3.143" stroke="black" fill="none" stroke-linecap="round"></path><path d="M 699.000,262.000 C 701.461,256.678 701.050,257.899 706.000,255.000" stroke-width="3.421" stroke="black" fill="none" stroke-linecap="round"></path></svg>