<svg xmlns="http://www.w3.org/2000/svg" xmlns:xlink="http://www.w3.org/1999/xlink" viewBox="0 0 453 236" width="453" height="236"><path d="M 114.500,158.000 C 110.365,156.238 110.500,156.000 106.500,154.000" stroke-width="5.267" stroke="black" fill="none" stroke-linecap="round"></path><path d="M 106.500,154.000 C 101.028,150.455 100.865,150.738 95.500,147.000" stroke-width="4.703" stroke="black" fill="none" stroke-linecap="round"></path><path d="M 95.500,147.000 C 93.138,145.199 93.028,145.455 90.500,144.000" stroke-width="4.757" stroke="black" fill="none" stroke-linecap="round"></path><path d="M 90.500,144.000 C 87.471,143.080 87.638,142.699 84.500,142.000" stroke-width="4.762" stroke="black" fill="none" stroke-linecap="round"></path><path d="M 84.500,142.000 C 79.296,141.428 81.971,141.080 79.500,140.000" stroke-width="4.985" stroke="black" fill="none" stroke-linecap="round"></path><path d="M 79.500,140.000 C 82.272,137.152 79.796,137.928 85.500,135.000" stroke-width="5.181" stroke="black" fill="none" stroke-linecap="round"></path><path d="M 85.500,135.000 C 88.652,133.753 88.272,133.152 91.500,132.000" stroke-width="4.264" stroke="black" fill="none" stroke-linecap="round"></path><path d="M 91.500,132.000 C 94.956,129.436 95.152,129.753 98.500,127.000" stroke-width="3.879" stroke="black" fill="none" stroke-linecap="round"></path><path d="M 98.500,127.000 C 102.938,123.903 102.956,123.936 107.500,121.000" stroke-width="3.559" stroke="black" fill="none" stroke-linecap="round"></path><path d="M 107.500,121.000 C 113.956,116.926 113.938,116.903 120.500,113.000" stroke-width="3.293" stroke="black" fill="none" stroke-linecap="round"></path><path d="M 120.500,113.000 C 126.612,109.680 126.456,109.426 132.500,106.000" stroke-width="3.152" stroke="black" fill="none" stroke-linecap="round"></path><path d="M 132.500,106.000 C 138.500,102.000 138.612,102.180 144.500,98.000" stroke-width="3.014" stroke="black" fill="none" stroke-linecap="round"></path><path d="M 144.500,98.000 C 149.145,95.194 149.000,95.000 153.500,92.000" stroke-width="3.246" stroke="black" fill="none" stroke-linecap="round"></path><path d="M 153.500,92.000 C 156.407,89.379 156.645,89.694 159.500,87.000" stroke-width="3.649" stroke="black" fill="none" stroke-linecap="round"></path><path d="M 159.500,87.000 C 166.305,80.633 162.907,84.379 166.500,82.000" stroke-width="4.182" stroke="black" fill="none" stroke-linecap="round"></path><path d="M 166.500,82.000 C 163.796,88.168 166.805,84.133 160.500,94.000" stroke-width="4.618" stroke="black" fill="none" stroke-linecap="round"></path><path d="M 160.500,94.000 C 157.220,99.652 157.296,99.668 153.500,105.000" stroke-width="3.439" stroke="black" fill="none" stroke-linecap="round"></path><path d="M 153.500,105.000 C 149.183,111.146 149.220,111.152 144.500,117.000" stroke-width="3.045" stroke="black" fill="none" stroke-linecap="round"></path><path d="M 144.500,117.000 C 138.977,123.480 139.183,123.646 133.500,130.000" stroke-width="2.814" stroke="black" fill="none" stroke-linecap="round"></path><path d="M 133.500,130.000 C 128.642,136.124 128.477,135.980 123.500,142.000" stroke-width="2.949" stroke="black" fill="none" stroke-linecap="round"></path><path d="M 123.500,142.000 C 118.249,148.251 118.142,148.124 112.500,154.000" stroke-width="2.896" stroke="black" fill="none" stroke-linecap="round"></path><path d="M 112.500,154.000 C 107.039,159.044 107.249,159.251 101.500,164.000" stroke-width="2.969" stroke="black" fill="none" stroke-linecap="round"></path><path d="M 101.500,164.000 C 97.601,167.623 97.539,167.544 93.500,171.000" stroke-width="3.297" stroke="black" fill="none" stroke-linecap="round"></path><path d="M 93.500,171.000 C 89.229,174.847 89.101,174.623 84.500,178.000" stroke-width="3.346" stroke="black" fill="none" stroke-linecap="round"></path><path d="M 84.500,178.000 C 80.098,180.701 80.229,180.847 75.500,183.000" stroke-width="3.454" stroke="black" fill="none" stroke-linecap="round"></path><path d="M 75.500,183.000 C 71.989,184.474 72.098,184.701 68.500,186.000" stroke-width="3.697" stroke="black" fill="none" stroke-linecap="round"></path><path d="M 68.500,186.000 C 64.011,188.026 63.989,187.974 59.500,190.000" stroke-width="3.544" stroke="black" fill="none" stroke-linecap="round"></path><path d="M 59.500,190.000 C 56.000,191.500 56.011,191.526 52.500,193.000" stroke-width="3.727" stroke="black" fill="none" stroke-linecap="round"></path><path d="M 52.500,193.000 C 49.114,194.888 49.000,194.500 45.500,196.000" stroke-width="3.785" stroke="black" fill="none" stroke-linecap="round"></path><path d="M 45.500,196.000 C 42.500,196.500 42.614,196.888 39.500,197.000" stroke-width="3.984" stroke="black" fill="none" stroke-linecap="round"></path><path d="M 39.500,197.000 C 36.500,197.500 36.500,197.500 33.500,198.000" stroke-width="4.048" stroke="black" fill="none" stroke-linecap="round"></path><path d="M 33.500,198.000 C 27.744,199.731 30.500,198.500 27.500,199.000" stroke-width="4.528" stroke="black" fill="none" stroke-linecap="round"></path><path d="M 27.500,199.000 C 29.816,196.726 27.244,198.231 32.500,195.000" stroke-width="4.832" stroke="black" fill="none" stroke-linecap="round"></path><path d="M 32.500,195.000 C 37.000,192.500 36.816,192.226 41.500,190.000" stroke-width="3.818" stroke="black" fill="none" stroke-linecap="round"></path><path d="M 41.500,190.000 C 46.088,187.647 46.000,187.500 50.500,185.000" stroke-width="4.020" stroke="black" fill="none" stroke-linecap="round"></path><path d="M 50.500,185.000 C 55.819,181.181 56.088,181.647 61.500,178.000" stroke-width="3.395" stroke="black" fill="none" stroke-linecap="round"></path><path d="M 61.500,178.000 C 68.536,174.571 68.319,174.181 75.500,171.000" stroke-width="3.115" stroke="black" fill="none" stroke-linecap="round"></path><path d="M 75.500,171.000 C 88.123,164.719 88.036,164.571 100.500,158.000" stroke-width="2.579" stroke="black" fill="none" stroke-linecap="round"></path><path d="M 100.500,158.000 C 105.260,154.495 105.623,155.219 110.500,152.000" stroke-width="3.017" stroke="black" fill="none" stroke-linecap="round"></path><path d="M 110.500,152.000 C 116.171,150.369 115.760,149.495 121.500,148.000" stroke-width="3.230" stroke="black" fill="none" stroke-linecap="round"></path><path d="M 121.500,148.000 C 124.857,145.681 125.171,146.369 128.500,144.000" stroke-width="3.702" stroke="black" fill="none" stroke-linecap="round"></path><path d="M 128.500,144.000 C 131.529,143.080 131.357,142.681 134.500,142.000" stroke-width="3.927" stroke="black" fill="none" stroke-linecap="round"></path><path d="M 134.500,142.000 C 137.000,141.000 137.029,141.080 139.500,140.000" stroke-width="4.120" stroke="black" fill="none" stroke-linecap="round"></path><path d="M 139.500,140.000 C 144.500,138.000 142.000,139.000 144.500,138.000" stroke-width="4.609" stroke="black" fill="none" stroke-linecap="round"></path><path d="M 144.500,138.000 C 141.851,138.717 144.500,138.000 139.500,140.000" stroke-width="5.000" stroke="black" fill="none" stroke-linecap="round"></path><path d="M 139.500,140.000 C 136.277,141.728 136.351,141.717 133.500,144.000" stroke-width="4.475" stroke="black" fill="none" stroke-linecap="round"></path><path d="M 133.500,144.000 C 130.862,146.376 130.777,146.228 128.500,149.000" stroke-width="4.057" stroke="black" fill="none" stroke-linecap="round"></path><path d="M 128.500,149.000 C 126.624,151.611 126.362,151.376 124.500,154.000" stroke-width="4.077" stroke="black" fill="none" stroke-linecap="round"></path><path d="M 124.500,154.000 C 122.101,155.713 122.624,156.111 120.500,158.000" stroke-width="4.132" stroke="black" fill="none" stroke-linecap="round"></path><path d="M 120.500,158.000 C 118.699,160.883 118.601,160.713 117.500,164.000" stroke-width="4.062" stroke="black" fill="none" stroke-linecap="round"></path><path d="M 117.500,164.000 C 114.638,168.413 116.199,167.383 115.500,171.000" stroke-width="4.430" stroke="black" fill="none" stroke-linecap="round"></path><path d="M 115.500,171.000 C 117.899,172.527 116.138,172.913 120.500,173.000" stroke-width="4.851" stroke="black" fill="none" stroke-linecap="round"></path><path d="M 120.500,173.000 C 123.775,173.908 123.399,173.527 126.500,173.000" stroke-width="4.293" stroke="black" fill="none" stroke-linecap="round"></path><path d="M 126.500,173.000 C 129.431,170.889 129.775,171.908 132.500,169.000" stroke-width="4.047" stroke="black" fill="none" stroke-linecap="round"></path><path d="M 132.500,169.000 C 136.304,167.397 135.931,166.889 139.500,165.000" stroke-width="3.882" stroke="black" fill="none" stroke-linecap="round"></path><path d="M 139.500,165.000 C 142.513,162.870 142.304,162.897 144.500,160.000" stroke-width="3.990" stroke="black" fill="none" stroke-linecap="round"></path><path d="M 144.500,160.000 C 147.876,156.057 147.013,156.370 148.500,152.000" stroke-width="4.266" stroke="black" fill="none" stroke-linecap="round"></path><path d="M 148.500,152.000 C 148.159,146.816 148.876,149.557 146.500,147.000" stroke-width="4.876" stroke="black" fill="none" stroke-linecap="round"></path><path d="M 146.500,147.000 C 142.491,149.549 143.659,147.316 139.500,153.000" stroke-width="4.530" stroke="black" fill="none" stroke-linecap="round"></path><path d="M 139.500,153.000 C 136.424,157.452 135.991,157.049 133.500,162.000" stroke-width="4.343" stroke="black" fill="none" stroke-linecap="round"></path><path d="M 133.500,162.000 C 129.761,165.768 131.924,164.452 130.500,167.000" stroke-width="4.807" stroke="black" fill="none" stroke-linecap="round"></path><path d="M 130.500,167.000 C 133.711,167.761 131.261,168.268 136.500,167.000" stroke-width="4.956" stroke="black" fill="none" stroke-linecap="round"></path><path d="M 136.500,167.000 C 139.028,165.545 139.211,166.261 141.500,164.000" stroke-width="4.342" stroke="black" fill="none" stroke-linecap="round"></path><path d="M 141.500,164.000 C 151.059,158.091 151.028,158.045 160.500,152.000" stroke-width="3.626" stroke="black" fill="none" stroke-linecap="round"></path><path d="M 160.500,152.000 C 166.682,148.251 166.559,148.091 172.500,144.000" stroke-width="3.197" stroke="black" fill="none" stroke-linecap="round"></path><path d="M 172.500,144.000 C 180.003,139.049 179.682,138.751 186.500,133.000" stroke-width="2.869" stroke="black" fill="none" stroke-linecap="round"></path><path d="M 186.500,133.000 C 193.875,124.879 194.503,125.549 201.500,117.000" stroke-width="2.683" stroke="black" fill="none" stroke-linecap="round"></path><path d="M 201.500,117.000 C 209.125,109.621 208.875,109.379 216.500,102.000" stroke-width="2.554" stroke="black" fill="none" stroke-linecap="round"></path><path d="M 216.500,102.000 C 224.283,94.247 224.125,94.121 231.500,86.000" stroke-width="2.424" stroke="black" fill="none" stroke-linecap="round"></path><path d="M 231.500,86.000 C 238.526,78.364 238.283,78.247 244.500,70.000" stroke-width="2.448" stroke="black" fill="none" stroke-linecap="round"></path><path d="M 244.500,70.000 C 247.845,63.904 248.526,64.364 251.500,58.000" stroke-width="2.816" stroke="black" fill="none" stroke-linecap="round"></path><path d="M 251.500,58.000 C 254.976,53.733 254.345,53.404 257.500,49.000" stroke-width="3.224" stroke="black" fill="none" stroke-linecap="round"></path><path d="M 257.500,49.000 C 261.149,42.366 258.976,46.233 259.500,43.000" stroke-width="3.750" stroke="black" fill="none" stroke-linecap="round"></path><path d="M 259.500,43.000 C 251.364,47.780 254.649,44.866 244.500,54.000" stroke-width="4.219" stroke="black" fill="none" stroke-linecap="round"></path><path d="M 244.500,54.000 C 236.250,63.250 235.364,62.280 227.500,72.000" stroke-width="2.576" stroke="black" fill="none" stroke-linecap="round"></path><path d="M 227.500,72.000 C 218.108,80.123 218.750,80.750 209.500,89.000" stroke-width="2.369" stroke="black" fill="none" stroke-linecap="round"></path><path d="M 209.500,89.000 C 202.329,96.857 202.108,96.623 195.500,105.000" stroke-width="2.401" stroke="black" fill="none" stroke-linecap="round"></path><path d="M 195.500,105.000 C 189.013,112.166 189.329,112.357 183.500,120.000" stroke-width="2.564" stroke="black" fill="none" stroke-linecap="round"></path><path d="M 183.500,120.000 C 179.718,125.856 179.513,125.666 176.500,132.000" stroke-width="2.914" stroke="black" fill="none" stroke-linecap="round"></path><path d="M 176.500,132.000 C 174.582,136.539 174.218,136.356 172.500,141.000" stroke-width="3.339" stroke="black" fill="none" stroke-linecap="round"></path><path d="M 172.500,141.000 C 170.184,143.807 171.082,144.039 169.500,147.000" stroke-width="3.797" stroke="black" fill="none" stroke-linecap="round"></path><path d="M 169.500,147.000 C 167.028,153.669 168.684,150.807 169.500,155.000" stroke-width="4.297" stroke="black" fill="none" stroke-linecap="round"></path><path d="M 169.500,155.000 C 176.759,156.392 173.528,157.169 182.500,154.000" stroke-width="4.644" stroke="black" fill="none" stroke-linecap="round"></path><path d="M 182.500,154.000 C 187.905,149.379 188.759,151.392 193.500,145.000" stroke-width="3.338" stroke="black" fill="none" stroke-linecap="round"></path><path d="M 193.500,145.000 C 199.701,140.745 199.405,140.379 205.500,136.000" stroke-width="3.085" stroke="black" fill="none" stroke-linecap="round"></path><path d="M 205.500,136.000 C 211.512,128.450 210.701,131.745 215.500,127.000" stroke-width="3.710" stroke="black" fill="none" stroke-linecap="round"></path><path d="M 215.500,127.000 C 217.126,129.651 217.012,126.450 216.500,132.000" stroke-width="4.582" stroke="black" fill="none" stroke-linecap="round"></path><path d="M 216.500,132.000 C 213.792,136.907 215.126,137.151 211.500,142.000" stroke-width="3.680" stroke="black" fill="none" stroke-linecap="round"></path><path d="M 211.500,142.000 C 209.098,146.887 209.292,146.907 207.500,152.000" stroke-width="3.451" stroke="black" fill="none" stroke-linecap="round"></path><path d="M 207.500,152.000 C 205.575,155.457 206.598,154.887 206.500,158.000" stroke-width="3.908" stroke="black" fill="none" stroke-linecap="round"></path><path d="M 206.500,158.000 C 208.749,163.367 207.575,160.957 211.500,163.000" stroke-width="4.563" stroke="black" fill="none" stroke-linecap="round"></path><path d="M 211.500,163.000 C 216.649,159.696 216.249,162.367 221.500,156.000" stroke-width="3.702" stroke="black" fill="none" stroke-linecap="round"></path><path d="M 221.500,156.000 C 227.124,151.643 227.149,151.696 232.500,147.000" stroke-width="3.292" stroke="black" fill="none" stroke-linecap="round"></path><path d="M 232.500,147.000 C 237.928,141.917 238.124,142.143 243.500,137.000" stroke-width="3.019" stroke="black" fill="none" stroke-linecap="round"></path><path d="M 243.500,137.000 C 246.478,134.473 246.428,134.417 249.500,132.000" stroke-width="3.514" stroke="black" fill="none" stroke-linecap="round"></path><path d="M 249.500,132.000 C 253.844,127.126 251.978,129.973 254.500,128.000" stroke-width="3.852" stroke="black" fill="none" stroke-linecap="round"></path><path d="M 254.500,128.000 C 253.728,132.071 255.344,129.126 252.500,136.000" stroke-width="4.590" stroke="black" fill="none" stroke-linecap="round"></path><path d="M 252.500,136.000 C 247.419,142.297 251.228,140.071 249.500,144.000" stroke-width="4.504" stroke="black" fill="none" stroke-linecap="round"></path><path d="M 249.500,144.000 C 256.783,146.075 252.919,146.797 263.500,145.000" stroke-width="4.425" stroke="black" fill="none" stroke-linecap="round"></path><path d="M 263.500,145.000 C 269.046,142.597 269.283,144.075 274.500,140.000" stroke-width="3.563" stroke="black" fill="none" stroke-linecap="round"></path><path d="M 274.500,140.000 C 279.438,137.362 279.546,137.597 284.500,135.000" stroke-width="3.442" stroke="black" fill="none" stroke-linecap="round"></path><path d="M 284.500,135.000 C 287.890,132.080 286.938,133.862 289.500,133.000" stroke-width="3.945" stroke="black" fill="none" stroke-linecap="round"></path><path d="M 289.500,133.000 C 291.500,136.000 291.390,134.080 291.500,139.000" stroke-width="4.611" stroke="black" fill="none" stroke-linecap="round"></path><path d="M 291.500,139.000 C 290.430,141.978 291.500,142.000 289.500,145.000" stroke-width="4.241" stroke="black" fill="none" stroke-linecap="round"></path><path d="M 289.500,145.000 C 285.249,152.563 288.430,148.478 287.500,152.000" stroke-width="4.492" stroke="black" fill="none" stroke-linecap="round"></path><path d="M 287.500,152.000 C 298.847,146.529 295.249,150.063 309.500,140.000" stroke-width="4.230" stroke="black" fill="none" stroke-linecap="round"></path><path d="M 309.500,140.000 C 314.000,136.500 314.347,137.029 318.500,133.000" stroke-width="3.647" stroke="black" fill="none" stroke-linecap="round"></path><path d="M 318.500,133.000 C 322.940,129.420 323.000,129.500 327.500,126.000" stroke-width="3.385" stroke="black" fill="none" stroke-linecap="round"></path><path d="M 327.500,126.000 C 330.924,123.384 330.940,123.420 334.500,121.000" stroke-width="3.751" stroke="black" fill="none" stroke-linecap="round"></path><path d="M 334.500,121.000 C 336.862,119.199 336.924,119.384 339.500,118.000" stroke-width="3.956" stroke="black" fill="none" stroke-linecap="round"></path><path d="M 339.500,118.000 C 343.960,114.974 342.362,116.699 345.500,116.000" stroke-width="4.462" stroke="black" fill="none" stroke-linecap="round"></path><path d="M 345.500,116.000 C 346.943,119.655 346.960,116.974 345.500,122.000" stroke-width="4.818" stroke="black" fill="none" stroke-linecap="round"></path><path d="M 345.500,122.000 C 341.835,125.966 342.943,126.155 337.500,129.000" stroke-width="3.780" stroke="black" fill="none" stroke-linecap="round"></path><path d="M 337.500,129.000 C 331.704,132.898 331.835,132.966 325.500,136.000" stroke-width="3.207" stroke="black" fill="none" stroke-linecap="round"></path><path d="M 325.500,136.000 C 316.609,140.263 316.704,140.398 307.500,144.000" stroke-width="2.936" stroke="black" fill="none" stroke-linecap="round"></path><path d="M 307.500,144.000 C 297.011,148.029 297.109,148.263 286.500,152.000" stroke-width="2.491" stroke="black" fill="none" stroke-linecap="round"></path><path d="M 286.500,152.000 C 274.628,156.876 274.511,156.529 262.500,161.000" stroke-width="2.251" stroke="black" fill="none" stroke-linecap="round"></path><path d="M 262.500,161.000 C 249.644,165.541 249.628,165.376 236.500,169.000" stroke-width="2.189" stroke="black" fill="none" stroke-linecap="round"></path><path d="M 236.500,169.000 C 221.077,172.885 221.144,173.041 205.500,176.000" stroke-width="2.024" stroke="black" fill="none" stroke-linecap="round"></path><path d="M 205.500,176.000 C 191.077,179.110 191.077,178.885 176.500,181.000" stroke-width="1.994" stroke="black" fill="none" stroke-linecap="round"></path><path d="M 176.500,181.000 C 164.016,182.278 164.077,182.610 151.500,183.000" stroke-width="2.128" stroke="black" fill="none" stroke-linecap="round"></path><path d="M 151.500,183.000 C 137.996,184.198 138.016,183.778 124.500,184.000" stroke-width="2.103" stroke="black" fill="none" stroke-linecap="round"></path><path d="M 124.500,184.000 C 103.110,185.700 103.996,183.698 83.500,182.000" stroke-width="2.396" stroke="black" fill="none" stroke-linecap="round"></path><path d="M 83.500,182.000 C 75.877,179.350 76.610,180.700 71.500,174.000" stroke-width="2.764" stroke="black" fill="none" stroke-linecap="round"></path><path d="M 71.500,174.000 C 66.727,167.364 66.877,168.350 65.500,160.000" stroke-width="2.903" stroke="black" fill="none" stroke-linecap="round"></path><path d="M 65.500,160.000 C 62.292,148.322 63.727,149.364 65.500,138.000" stroke-width="3.243" stroke="black" fill="none" stroke-linecap="round"></path><path d="M 65.500,138.000 C 74.727,110.595 73.792,111.322 88.500,86.000" stroke-width="1.579" stroke="black" fill="none" stroke-linecap="round"></path><path d="M 88.500,86.000 C 96.889,73.359 95.727,73.095 107.500,63.000" stroke-width="1.830" stroke="black" fill="none" stroke-linecap="round"></path><path d="M 107.500,63.000 C 117.621,51.605 117.889,52.859 130.500,45.000" stroke-width="2.550" stroke="black" fill="none" stroke-linecap="round"></path><path d="M 130.500,45.000 C 157.636,32.876 156.621,31.605 185.500,23.000" stroke-width="1.423" stroke="black" fill="none" stroke-linecap="round"></path><path d="M 185.500,23.000 C 197.336,19.066 197.136,18.876 209.500,17.000" stroke-width="1.895" stroke="black" fill="none" stroke-linecap="round"></path><path d="M 209.500,17.000 C 223.968,14.872 223.836,14.566 238.500,14.000" stroke-width="1.963" stroke="black" fill="none" stroke-linecap="round"></path><path d="M 238.500,14.000 C 249.254,12.536 248.968,13.372 259.500,14.000" stroke-width="2.411" stroke="black" fill="none" stroke-linecap="round"></path><path d="M 259.500,14.000 C 267.423,15.133 266.754,15.036 273.500,19.000" stroke-width="2.743" stroke="black" fill="none" stroke-linecap="round"></path><path d="M 273.500,19.000 C 279.362,22.656 278.423,22.133 281.500,28.000" stroke-width="3.054" stroke="black" fill="none" stroke-linecap="round"></path><path d="M 281.500,28.000 C 284.158,36.100 284.362,35.156 283.500,44.000" stroke-width="2.873" stroke="black" fill="none" stroke-linecap="round"></path><path d="M 283.500,44.000 C 283.418,55.282 282.658,54.100 278.500,64.000" stroke-width="2.633" stroke="black" fill="none" stroke-linecap="round"></path><path d="M 278.500,64.000 C 271.076,74.701 272.418,74.782 261.500,83.000" stroke-width="2.353" stroke="black" fill="none" stroke-linecap="round"></path><path d="M 261.500,83.000 C 248.453,94.693 248.576,94.201 233.500,103.000" stroke-width="1.925" stroke="black" fill="none" stroke-linecap="round"></path><path d="M 233.500,103.000 C 216.394,111.609 216.953,112.193 198.500,118.000" stroke-width="1.840" stroke="black" fill="none" stroke-linecap="round"></path><path d="M 198.500,118.000 C 181.206,123.914 181.394,124.109 163.500,128.000" stroke-width="1.752" stroke="black" fill="none" stroke-linecap="round"></path><path d="M 163.500,128.000 C 148.583,131.292 148.706,131.414 133.500,133.000" stroke-width="1.879" stroke="black" fill="none" stroke-linecap="round"></path><path d="M 133.500,133.000 C 121.971,134.287 122.083,134.292 110.500,134.000" stroke-width="2.159" stroke="black" fill="none" stroke-linecap="round"></path></svg>