<svg xmlns="http://www.w3.org/2000/svg" xmlns:xlink="http://www.w3.org/1999/xlink" viewBox="0 0 1460 576" width="1460" height="576"><path d="M 419.000,144.000 C 418.097,158.007 418.000,158.000 417.000,172.000" stroke-width="5.150" stroke="black" fill="none" stroke-linecap="round"></path><path d="M 417.000,172.000 C 418.938,210.046 414.097,209.007 411.000,246.000" stroke-width="2.161" stroke="black" fill="none" stroke-linecap="round"></path><path d="M 411.000,246.000 C 399.576,287.133 401.938,287.046 383.000,326.000" stroke-width="1.125" stroke="black" fill="none" stroke-linecap="round"></path><path d="M 383.000,326.000 C 369.155,354.929 370.576,355.133 353.000,382.000" stroke-width="1.190" stroke="black" fill="none" stroke-linecap="round"></path><path d="M 353.000,382.000 C 349.397,384.886 350.655,385.929 346.000,388.000" stroke-width="2.252" stroke="black" fill="none" stroke-linecap="round"></path><path d="M 346.000,388.000 C 336.976,395.510 337.397,395.886 329.000,404.000" stroke-width="2.277" stroke="black" fill="none" stroke-linecap="round"></path><path d="M 329.000,404.000 C 322.112,412.595 321.476,412.010 315.000,421.000" stroke-width="2.339" stroke="black" fill="none" stroke-linecap="round"></path><path d="M 315.000,421.000 C 311.244,425.756 311.112,425.595 307.000,430.000" stroke-width="2.934" stroke="black" fill="none" stroke-linecap="round"></path><path d="M 440.000,132.000 C 439.413,136.595 440.000,136.500 440.000,141.000" stroke-width="3.879" stroke="black" fill="none" stroke-linecap="round"></path><path d="M 440.000,141.000 C 440.808,144.073 440.413,144.095 442.000,147.000" stroke-width="3.985" stroke="black" fill="none" stroke-linecap="round"></path><path d="M 442.000,147.000 C 446.247,157.614 446.308,157.573 451.000,168.000" stroke-width="2.649" stroke="black" fill="none" stroke-linecap="round"></path><path d="M 451.000,168.000 C 459.189,187.422 459.747,187.114 469.000,206.000" stroke-width="1.833" stroke="black" fill="none" stroke-linecap="round"></path><path d="M 469.000,206.000 C 484.468,231.034 482.689,231.922 498.000,257.000" stroke-width="1.291" stroke="black" fill="none" stroke-linecap="round"></path><path d="M 498.000,257.000 C 502.596,266.789 502.968,266.534 506.000,277.000" stroke-width="1.943" stroke="black" fill="none" stroke-linecap="round"></path><path d="M 506.000,277.000 C 512.629,303.522 514.596,302.789 522.000,329.000" stroke-width="1.425" stroke="black" fill="none" stroke-linecap="round"></path><path d="M 522.000,329.000 C 529.517,346.741 528.629,347.022 538.000,364.000" stroke-width="1.621" stroke="black" fill="none" stroke-linecap="round"></path><path d="M 538.000,364.000 C 544.907,375.814 544.017,376.241 551.000,388.000" stroke-width="2.245" stroke="black" fill="none" stroke-linecap="round"></path><path d="M 618.000,272.000 C 614.998,272.098 615.000,272.000 612.000,272.000" stroke-width="4.561" stroke="black" fill="none" stroke-linecap="round"></path><path d="M 612.000,272.000 C 584.451,271.763 584.498,271.098 557.000,270.000" stroke-width="1.686" stroke="black" fill="none" stroke-linecap="round"></path><path d="M 557.000,270.000 C 530.058,266.450 529.951,268.263 503.000,265.000" stroke-width="1.381" stroke="black" fill="none" stroke-linecap="round"></path><path d="M 503.000,265.000 C 473.952,263.342 474.058,263.450 445.000,264.000" stroke-width="1.261" stroke="black" fill="none" stroke-linecap="round"></path><path d="M 445.000,264.000 C 429.881,264.694 429.952,264.342 415.000,267.000" stroke-width="1.715" stroke="black" fill="none" stroke-linecap="round"></path><path d="M 415.000,267.000 C 394.555,271.574 394.381,270.194 374.000,275.000" stroke-width="2.189" stroke="black" fill="none" stroke-linecap="round"></path><path d="M 374.000,275.000 C 370.500,275.000 370.555,275.574 367.000,275.000" stroke-width="3.197" stroke="black" fill="none" stroke-linecap="round"></path><path d="M 733.000,313.000 C 724.948,320.248 724.500,319.500 716.000,326.000" stroke-width="3.709" stroke="black" fill="none" stroke-linecap="round"></path><path d="M 716.000,326.000 C 710.396,328.302 710.948,329.248 705.000,331.000" stroke-width="3.404" stroke="black" fill="none" stroke-linecap="round"></path><path d="M 705.000,331.000 C 697.874,335.447 702.396,332.302 700.000,334.000" stroke-width="4.275" stroke="black" fill="none" stroke-linecap="round"></path><path d="M 700.000,334.000 C 737.988,307.180 733.874,310.947 777.000,282.000" stroke-width="1.835" stroke="black" fill="none" stroke-linecap="round"></path><path d="M 777.000,282.000 C 792.643,270.674 792.988,271.680 810.000,263.000" stroke-width="1.712" stroke="black" fill="none" stroke-linecap="round"></path><path d="M 810.000,263.000 C 840.853,251.075 840.143,249.674 872.000,240.000" stroke-width="1.228" stroke="black" fill="none" stroke-linecap="round"></path><path d="M 872.000,240.000 C 885.598,232.935 885.853,235.075 900.000,231.000" stroke-width="1.712" stroke="black" fill="none" stroke-linecap="round"></path><path d="M 900.000,231.000 C 919.704,229.544 919.098,228.435 939.000,231.000" stroke-width="2.239" stroke="black" fill="none" stroke-linecap="round"></path><path d="M 939.000,231.000 C 946.325,232.269 946.204,231.544 953.000,235.000" stroke-width="2.739" stroke="black" fill="none" stroke-linecap="round"></path><path d="M 953.000,235.000 C 957.890,236.531 957.325,236.769 961.000,240.000" stroke-width="3.300" stroke="black" fill="none" stroke-linecap="round"></path><path d="M 961.000,240.000 C 976.207,250.233 970.890,251.031 979.000,264.000" stroke-width="2.299" stroke="black" fill="none" stroke-linecap="round"></path><path d="M 979.000,264.000 C 974.119,288.729 983.207,284.733 975.000,309.000" stroke-width="2.351" stroke="black" fill="none" stroke-linecap="round"></path><path d="M 975.000,309.000 C 977.987,310.274 975.119,311.729 981.000,310.000" stroke-width="3.894" stroke="black" fill="none" stroke-linecap="round"></path><path d="M 981.000,310.000 C 999.900,306.250 999.987,308.274 1019.000,305.000" stroke-width="2.002" stroke="black" fill="none" stroke-linecap="round"></path><path d="M 1019.000,305.000 C 1053.524,301.990 1053.400,302.750 1088.000,303.000" stroke-width="1.233" stroke="black" fill="none" stroke-linecap="round"></path><path d="M 1088.000,303.000 C 1173.287,304.851 1173.024,305.490 1258.000,312.000" stroke-width="1.125" stroke="black" fill="none" stroke-linecap="round"></path><path d="M 1258.000,312.000 C 1291.711,316.456 1291.787,314.851 1325.000,323.000" stroke-width="1.125" stroke="black" fill="none" stroke-linecap="round"></path><path d="M 1325.000,323.000 C 1350.296,328.041 1350.211,327.956 1375.000,335.000" stroke-width="1.197" stroke="black" fill="none" stroke-linecap="round"></path><path d="M 1375.000,335.000 C 1385.883,338.331 1385.796,338.041 1396.000,343.000" stroke-width="2.053" stroke="black" fill="none" stroke-linecap="round"></path><path d="M 1396.000,343.000 C 1401.468,345.596 1398.883,344.331 1401.000,347.000" stroke-width="3.409" stroke="black" fill="none" stroke-linecap="round"></path><path d="M 1401.000,347.000 C 1397.565,349.143 1400.468,348.596 1394.000,349.000" stroke-width="4.497" stroke="black" fill="none" stroke-linecap="round"></path><path d="M 1394.000,349.000 C 1385.094,346.587 1385.065,348.643 1376.000,346.000" stroke-width="3.002" stroke="black" fill="none" stroke-linecap="round"></path><path d="M 1376.000,346.000 C 1338.517,343.794 1338.594,343.587 1301.000,343.000" stroke-width="1.237" stroke="black" fill="none" stroke-linecap="round"></path><path d="M 1301.000,343.000 C 1243.979,343.395 1244.017,341.794 1187.000,342.000" stroke-width="1.125" stroke="black" fill="none" stroke-linecap="round"></path><path d="M 1187.000,342.000 C 1121.523,338.708 1121.479,340.395 1056.000,337.000" stroke-width="1.125" stroke="black" fill="none" stroke-linecap="round"></path><path d="M 1056.000,337.000 C 910.260,328.266 910.523,333.208 765.000,331.000" stroke-width="1.125" stroke="black" fill="none" stroke-linecap="round"></path><path d="M 765.000,331.000 C 698.032,338.326 697.760,332.266 631.000,345.000" stroke-width="1.125" stroke="black" fill="none" stroke-linecap="round"></path><path d="M 631.000,345.000 C 582.492,350.340 582.532,349.826 534.000,354.000" stroke-width="1.125" stroke="black" fill="none" stroke-linecap="round"></path><path d="M 534.000,354.000 C 529.308,354.149 529.492,354.340 525.000,353.000" stroke-width="1.866" stroke="black" fill="none" stroke-linecap="round"></path><path d="M 525.000,353.000 C 521.892,351.687 521.808,352.149 519.000,350.000" stroke-width="2.991" stroke="black" fill="none" stroke-linecap="round"></path></svg>