<svg xmlns="http://www.w3.org/2000/svg" xmlns:xlink="http://www.w3.org/1999/xlink" viewBox="0 0 1460 581" width="1460" height="581"><path d="M 536.000,290.500 C 528.541,292.246 528.500,291.750 521.000,293.000" stroke-width="4.586" stroke="black" fill="none" stroke-linecap="round"></path><path d="M 521.000,293.000 C 513.849,296.324 516.041,293.496 511.000,293.000" stroke-width="3.736" stroke="black" fill="none" stroke-linecap="round"></path><path d="M 511.000,293.000 C 503.931,281.041 503.349,284.074 500.000,268.500" stroke-width="3.300" stroke="black" fill="none" stroke-linecap="round"></path><path d="M 500.000,268.500 C 498.927,263.494 498.681,264.291 500.500,259.500" stroke-width="3.503" stroke="black" fill="none" stroke-linecap="round"></path><path d="M 500.500,259.500 C 502.459,254.425 502.177,255.244 506.500,252.000" stroke-width="3.566" stroke="black" fill="none" stroke-linecap="round"></path><path d="M 506.500,252.000 C 520.397,242.794 519.959,243.925 535.500,238.500" stroke-width="2.259" stroke="black" fill="none" stroke-linecap="round"></path><path d="M 535.500,238.500 C 546.536,236.973 545.897,235.544 557.500,237.500" stroke-width="2.390" stroke="black" fill="none" stroke-linecap="round"></path><path d="M 557.500,237.500 C 572.546,238.919 572.536,238.223 587.500,241.000" stroke-width="2.062" stroke="black" fill="none" stroke-linecap="round"></path><path d="M 587.500,241.000 C 601.336,242.827 601.296,242.919 615.000,245.500" stroke-width="2.110" stroke="black" fill="none" stroke-linecap="round"></path><path d="M 615.000,245.500 C 624.531,247.010 624.336,247.327 633.500,250.000" stroke-width="2.411" stroke="black" fill="none" stroke-linecap="round"></path><path d="M 633.500,250.000 C 638.181,251.667 638.031,251.510 642.000,254.500" stroke-width="3.132" stroke="black" fill="none" stroke-linecap="round"></path><path d="M 642.000,254.500 C 646.730,257.360 645.931,257.417 649.000,261.500" stroke-width="3.365" stroke="black" fill="none" stroke-linecap="round"></path><path d="M 649.000,261.500 C 651.400,266.062 650.980,265.110 650.500,270.000" stroke-width="3.659" stroke="black" fill="none" stroke-linecap="round"></path><path d="M 650.500,270.000 C 649.240,276.174 649.400,274.812 645.000,279.000" stroke-width="3.467" stroke="black" fill="none" stroke-linecap="round"></path><path d="M 645.000,279.000 C 632.238,285.705 633.490,286.674 619.000,291.000" stroke-width="2.378" stroke="black" fill="none" stroke-linecap="round"></path><path d="M 619.000,291.000 C 610.000,295.340 614.738,292.705 610.000,293.000" stroke-width="3.102" stroke="black" fill="none" stroke-linecap="round"></path><path d="M 610.000,293.000 C 613.234,283.967 610.000,288.340 619.000,277.000" stroke-width="3.748" stroke="black" fill="none" stroke-linecap="round"></path><path d="M 619.000,277.000 C 625.360,268.590 625.234,269.467 634.000,264.000" stroke-width="2.859" stroke="black" fill="none" stroke-linecap="round"></path><path d="M 634.000,264.000 C 650.037,255.810 649.360,255.840 667.000,251.500" stroke-width="1.985" stroke="black" fill="none" stroke-linecap="round"></path><path d="M 667.000,251.500 C 680.977,248.912 680.537,248.060 695.000,248.500" stroke-width="2.076" stroke="black" fill="none" stroke-linecap="round"></path><path d="M 695.000,248.500 C 706.805,247.672 706.477,248.162 718.000,250.000" stroke-width="2.285" stroke="black" fill="none" stroke-linecap="round"></path><path d="M 718.000,250.000 C 732.256,253.391 732.055,252.922 745.500,259.000" stroke-width="2.080" stroke="black" fill="none" stroke-linecap="round"></path><path d="M 745.500,259.000 C 753.118,263.313 753.506,262.391 760.500,268.000" stroke-width="2.521" stroke="black" fill="none" stroke-linecap="round"></path><path d="M 760.500,268.000 C 768.504,273.935 768.868,273.313 777.000,279.000" stroke-width="2.514" stroke="black" fill="none" stroke-linecap="round"></path><path d="M 777.000,279.000 C 781.771,281.207 781.504,281.685 786.500,283.500" stroke-width="3.160" stroke="black" fill="none" stroke-linecap="round"></path><path d="M 786.500,283.500 C 789.975,285.303 790.021,285.207 793.500,287.000" stroke-width="3.568" stroke="black" fill="none" stroke-linecap="round"></path><path d="M 793.500,287.000 C 796.702,290.773 796.725,288.553 800.000,290.000" stroke-width="3.833" stroke="black" fill="none" stroke-linecap="round"></path><path d="M 800.000,290.000 C 812.800,284.869 812.702,287.023 825.500,279.500" stroke-width="4.577" stroke="black" fill="none" stroke-linecap="round"></path><path d="M 825.500,279.500 C 842.481,268.253 843.550,271.869 861.500,264.000" stroke-width="1.941" stroke="black" fill="none" stroke-linecap="round"></path><path d="M 861.500,264.000 C 921.595,252.327 920.731,250.753 982.000,244.500" stroke-width="1.125" stroke="black" fill="none" stroke-linecap="round"></path><path d="M 982.000,244.500 C 997.003,244.289 996.845,242.577 1012.000,244.500" stroke-width="1.437" stroke="black" fill="none" stroke-linecap="round"></path><path d="M 1012.000,244.500 C 1032.559,244.186 1032.503,244.789 1053.000,245.500" stroke-width="1.533" stroke="black" fill="none" stroke-linecap="round"></path><path d="M 1053.000,245.500 C 1067.524,247.081 1067.559,246.436 1082.000,249.000" stroke-width="1.827" stroke="black" fill="none" stroke-linecap="round"></path><path d="M 1082.000,249.000 C 1088.254,249.976 1088.274,249.831 1094.500,251.000" stroke-width="2.659" stroke="black" fill="none" stroke-linecap="round"></path><path d="M 1094.500,251.000 C 1103.576,252.154 1103.504,252.476 1112.500,254.000" stroke-width="2.637" stroke="black" fill="none" stroke-linecap="round"></path><path d="M 1112.500,254.000 C 1118.154,255.081 1118.076,255.154 1123.500,257.000" stroke-width="3.059" stroke="black" fill="none" stroke-linecap="round"></path><path d="M 1123.500,257.000 C 1128.149,258.433 1127.904,258.581 1132.000,261.000" stroke-width="3.433" stroke="black" fill="none" stroke-linecap="round"></path><path d="M 1132.000,261.000 C 1136.882,263.285 1134.899,262.933 1137.000,266.000" stroke-width="4.359" stroke="black" fill="none" stroke-linecap="round"></path><path d="M 1137.000,266.000 C 1135.865,270.698 1137.132,269.035 1132.500,272.500" stroke-width="4.033" stroke="black" fill="none" stroke-linecap="round"></path><path d="M 1132.500,272.500 C 1121.096,278.077 1121.865,278.198 1109.000,281.000" stroke-width="2.462" stroke="black" fill="none" stroke-linecap="round"></path><path d="M 1109.000,281.000 C 1090.922,285.858 1091.096,285.327 1072.500,287.000" stroke-width="1.934" stroke="black" fill="none" stroke-linecap="round"></path><path d="M 1072.500,287.000 C 1026.250,288.857 1026.422,289.858 980.000,289.000" stroke-width="1.125" stroke="black" fill="none" stroke-linecap="round"></path><path d="M 980.000,289.000 C 945.254,287.901 945.250,289.107 910.500,287.500" stroke-width="1.125" stroke="black" fill="none" stroke-linecap="round"></path><path d="M 910.500,287.500 C 880.235,288.157 880.254,287.151 850.000,287.500" stroke-width="1.180" stroke="black" fill="none" stroke-linecap="round"></path><path d="M 850.000,287.500 C 822.744,285.580 822.735,286.907 795.500,285.000" stroke-width="1.245" stroke="black" fill="none" stroke-linecap="round"></path><path d="M 795.500,285.000 C 787.481,285.285 787.494,284.830 779.500,286.000" stroke-width="2.072" stroke="black" fill="none" stroke-linecap="round"></path><path d="M 779.500,286.000 C 770.599,286.346 770.731,286.785 762.000,288.000" stroke-width="2.511" stroke="black" fill="none" stroke-linecap="round"></path><path d="M 762.000,288.000 C 757.673,289.308 757.599,288.846 753.500,291.000" stroke-width="3.227" stroke="black" fill="none" stroke-linecap="round"></path><path d="M 753.500,291.000 C 748.398,293.051 748.423,293.058 743.500,295.500" stroke-width="3.304" stroke="black" fill="none" stroke-linecap="round"></path><path d="M 743.500,295.500 C 740.387,297.075 740.398,297.051 737.500,299.000" stroke-width="3.758" stroke="black" fill="none" stroke-linecap="round"></path><path d="M 737.500,299.000 C 731.973,304.110 731.387,303.075 725.500,307.500" stroke-width="3.138" stroke="black" fill="none" stroke-linecap="round"></path><path d="M 725.500,307.500 C 715.760,311.524 716.223,312.360 706.000,315.500" stroke-width="2.671" stroke="black" fill="none" stroke-linecap="round"></path><path d="M 706.000,315.500 C 702.344,317.307 702.260,317.024 698.500,318.500" stroke-width="3.338" stroke="black" fill="none" stroke-linecap="round"></path><path d="M 698.500,318.500 C 695.039,319.621 695.094,319.557 691.500,320.000" stroke-width="3.791" stroke="black" fill="none" stroke-linecap="round"></path></svg>