<svg xmlns="http://www.w3.org/2000/svg" xmlns:xlink="http://www.w3.org/1999/xlink" viewBox="0 0 1460 576" width="1460" height="576"><path d="M 704.000,145.000 C 705.685,148.430 705.500,148.500 707.000,152.000" stroke-width="5.029" stroke="black" fill="none" stroke-linecap="round"></path><path d="M 707.000,152.000 C 709.497,157.864 709.185,157.930 711.000,164.000" stroke-width="3.614" stroke="black" fill="none" stroke-linecap="round"></path><path d="M 711.000,164.000 C 714.193,182.702 715.497,182.364 719.000,201.000" stroke-width="1.993" stroke="black" fill="none" stroke-linecap="round"></path><path d="M 719.000,201.000 C 728.229,242.367 729.693,241.702 742.000,282.000" stroke-width="1.125" stroke="black" fill="none" stroke-linecap="round"></path><path d="M 742.000,282.000 C 749.316,301.600 748.729,301.367 760.000,319.000" stroke-width="1.382" stroke="black" fill="none" stroke-linecap="round"></path><path d="M 760.000,319.000 C 767.545,329.975 766.816,330.100 777.000,339.000" stroke-width="1.874" stroke="black" fill="none" stroke-linecap="round"></path><path d="M 777.000,339.000 C 789.796,351.090 789.545,350.975 804.000,361.000" stroke-width="1.800" stroke="black" fill="none" stroke-linecap="round"></path><path d="M 804.000,361.000 C 811.684,366.339 811.296,366.090 820.000,369.000" stroke-width="2.324" stroke="black" fill="none" stroke-linecap="round"></path><path d="M 820.000,369.000 C 824.619,369.730 824.184,370.339 829.000,369.000" stroke-width="3.047" stroke="black" fill="none" stroke-linecap="round"></path><path d="M 829.000,369.000 C 833.738,368.006 833.619,368.230 838.000,366.000" stroke-width="3.421" stroke="black" fill="none" stroke-linecap="round"></path><path d="M 838.000,366.000 C 842.207,363.782 842.238,364.006 846.000,361.000" stroke-width="3.502" stroke="black" fill="none" stroke-linecap="round"></path><path d="M 846.000,361.000 C 849.298,357.737 849.707,358.282 853.000,355.000" stroke-width="3.549" stroke="black" fill="none" stroke-linecap="round"></path><path d="M 853.000,355.000 C 860.740,349.028 860.798,349.237 869.000,344.000" stroke-width="2.975" stroke="black" fill="none" stroke-linecap="round"></path><path d="M 869.000,344.000 C 872.465,342.414 872.240,342.028 876.000,341.000" stroke-width="3.558" stroke="black" fill="none" stroke-linecap="round"></path><path d="M 876.000,341.000 C 879.912,339.202 879.965,339.414 884.000,338.000" stroke-width="3.634" stroke="black" fill="none" stroke-linecap="round"></path></svg>