<svg xmlns="http://www.w3.org/2000/svg" xmlns:xlink="http://www.w3.org/1999/xlink" viewBox="0 0 1460 576" width="1460" height="576"><path d="M 658.000,371.000 C 655.089,356.992 660.500,361.500 663.000,352.000" stroke-width="4.907" stroke="black" fill="none" stroke-linecap="round"></path><path d="M 663.000,352.000 C 711.544,327.980 706.589,324.492 761.000,306.000" stroke-width="1.125" stroke="black" fill="none" stroke-linecap="round"></path><path d="M 761.000,306.000 C 823.002,274.194 824.044,277.980 888.000,252.000" stroke-width="1.125" stroke="black" fill="none" stroke-linecap="round"></path><path d="M 888.000,252.000 C 926.745,241.988 925.502,239.194 966.000,236.000" stroke-width="1.125" stroke="black" fill="none" stroke-linecap="round"></path><path d="M 966.000,236.000 C 985.994,234.286 985.745,232.988 1006.000,234.000" stroke-width="1.307" stroke="black" fill="none" stroke-linecap="round"></path><path d="M 1006.000,234.000 C 1021.023,234.212 1020.994,233.786 1036.000,235.000" stroke-width="2.140" stroke="black" fill="none" stroke-linecap="round"></path><path d="M 1036.000,235.000 C 1044.295,232.850 1040.023,235.212 1044.000,236.000" stroke-width="3.055" stroke="black" fill="none" stroke-linecap="round"></path><path d="M 1044.000,236.000 C 1043.894,255.500 1042.795,248.850 1033.000,267.000" stroke-width="2.884" stroke="black" fill="none" stroke-linecap="round"></path><path d="M 1033.000,267.000 C 1003.467,290.941 1007.894,293.500 972.000,312.000" stroke-width="1.277" stroke="black" fill="none" stroke-linecap="round"></path><path d="M 972.000,312.000 C 938.252,334.888 938.467,334.441 903.000,354.000" stroke-width="1.125" stroke="black" fill="none" stroke-linecap="round"></path><path d="M 903.000,354.000 C 894.888,358.472 896.752,357.388 889.000,357.000" stroke-width="2.106" stroke="black" fill="none" stroke-linecap="round"></path><path d="M 889.000,357.000 C 883.938,353.688 884.888,355.972 883.000,349.000" stroke-width="2.976" stroke="black" fill="none" stroke-linecap="round"></path><path d="M 883.000,349.000 C 879.376,337.048 880.938,338.688 883.000,327.000" stroke-width="2.589" stroke="black" fill="none" stroke-linecap="round"></path><path d="M 883.000,327.000 C 894.197,307.605 890.376,306.548 905.000,288.000" stroke-width="1.699" stroke="black" fill="none" stroke-linecap="round"></path><path d="M 905.000,288.000 C 912.994,277.349 907.697,283.105 910.000,278.000" stroke-width="2.612" stroke="black" fill="none" stroke-linecap="round"></path><path d="M 910.000,278.000 C 896.202,285.899 901.494,279.849 882.000,293.000" stroke-width="3.352" stroke="black" fill="none" stroke-linecap="round"></path><path d="M 882.000,293.000 C 862.626,304.470 862.202,302.899 842.000,312.000" stroke-width="1.791" stroke="black" fill="none" stroke-linecap="round"></path><path d="M 842.000,312.000 C 830.548,314.556 831.126,315.970 819.000,316.000" stroke-width="2.161" stroke="black" fill="none" stroke-linecap="round"></path><path d="M 819.000,316.000 C 812.207,319.253 814.548,316.556 810.000,316.000" stroke-width="3.038" stroke="black" fill="none" stroke-linecap="round"></path><path d="M 810.000,316.000 C 798.541,300.548 802.707,305.253 800.000,288.000" stroke-width="2.982" stroke="black" fill="none" stroke-linecap="round"></path><path d="M 800.000,288.000 C 807.681,280.668 801.041,279.048 815.000,273.000" stroke-width="2.564" stroke="black" fill="none" stroke-linecap="round"></path><path d="M 815.000,273.000 C 818.395,266.289 818.181,269.668 821.000,266.000" stroke-width="3.237" stroke="black" fill="none" stroke-linecap="round"></path><path d="M 821.000,266.000 C 824.557,268.882 822.895,265.789 824.000,272.000" stroke-width="4.359" stroke="black" fill="none" stroke-linecap="round"></path><path d="M 824.000,272.000 C 820.241,283.095 822.057,282.882 816.000,294.000" stroke-width="2.743" stroke="black" fill="none" stroke-linecap="round"></path><path d="M 816.000,294.000 C 813.622,301.360 813.241,301.095 810.000,308.000" stroke-width="2.776" stroke="black" fill="none" stroke-linecap="round"></path><path d="M 810.000,308.000 C 806.905,311.933 807.622,312.360 804.000,316.000" stroke-width="3.315" stroke="black" fill="none" stroke-linecap="round"></path></svg>