<svg xmlns="http://www.w3.org/2000/svg" xmlns:xlink="http://www.w3.org/1999/xlink" viewBox="0 0 1460 576" width="1460" height="576"><path d="M 752.000,217.000 C 745.268,223.347 745.000,223.000 738.000,229.000" stroke-width="4.693" stroke="black" fill="none" stroke-linecap="round"></path><path d="M 738.000,229.000 C 731.972,234.340 731.768,233.847 725.000,238.000" stroke-width="3.212" stroke="black" fill="none" stroke-linecap="round"></path><path d="M 725.000,238.000 C 712.210,246.705 711.972,244.840 698.000,250.000" stroke-width="2.234" stroke="black" fill="none" stroke-linecap="round"></path><path d="M 698.000,250.000 C 676.983,252.715 677.710,254.705 656.000,254.000" stroke-width="1.704" stroke="black" fill="none" stroke-linecap="round"></path><path d="M 656.000,254.000 C 652.480,253.614 652.483,254.215 649.000,253.000" stroke-width="2.813" stroke="black" fill="none" stroke-linecap="round"></path><path d="M 649.000,253.000 C 642.312,254.312 643.980,252.114 639.000,251.000" stroke-width="3.221" stroke="black" fill="none" stroke-linecap="round"></path><path d="M 639.000,251.000 C 629.792,242.245 632.312,244.312 629.000,233.000" stroke-width="2.647" stroke="black" fill="none" stroke-linecap="round"></path><path d="M 629.000,233.000 C 630.669,223.330 628.292,224.745 636.000,216.000" stroke-width="2.686" stroke="black" fill="none" stroke-linecap="round"></path><path d="M 636.000,216.000 C 646.094,199.362 646.669,201.330 661.000,189.000" stroke-width="1.914" stroke="black" fill="none" stroke-linecap="round"></path><path d="M 661.000,189.000 C 687.948,167.091 687.094,170.862 718.000,159.000" stroke-width="1.279" stroke="black" fill="none" stroke-linecap="round"></path><path d="M 718.000,159.000 C 742.920,155.076 739.948,153.091 765.000,161.000" stroke-width="1.422" stroke="black" fill="none" stroke-linecap="round"></path><path d="M 765.000,161.000 C 782.851,170.476 783.920,166.076 800.000,181.000" stroke-width="1.541" stroke="black" fill="none" stroke-linecap="round"></path><path d="M 800.000,181.000 C 805.792,183.441 804.851,183.976 809.000,188.000" stroke-width="2.452" stroke="black" fill="none" stroke-linecap="round"></path><path d="M 809.000,188.000 C 816.160,197.490 815.292,196.941 819.000,208.000" stroke-width="2.377" stroke="black" fill="none" stroke-linecap="round"></path><path d="M 819.000,208.000 C 823.188,217.952 821.160,215.990 819.000,225.000" stroke-width="2.612" stroke="black" fill="none" stroke-linecap="round"></path><path d="M 819.000,225.000 C 798.954,251.389 802.688,252.452 778.000,277.000" stroke-width="1.381" stroke="black" fill="none" stroke-linecap="round"></path><path d="M 778.000,277.000 C 772.385,285.051 771.954,284.389 765.000,291.000" stroke-width="2.077" stroke="black" fill="none" stroke-linecap="round"></path><path d="M 765.000,291.000 C 753.877,299.213 754.385,299.551 742.000,306.000" stroke-width="2.073" stroke="black" fill="none" stroke-linecap="round"></path><path d="M 742.000,306.000 C 736.189,309.821 736.377,309.213 730.000,311.000" stroke-width="2.701" stroke="black" fill="none" stroke-linecap="round"></path><path d="M 730.000,311.000 C 720.817,312.385 725.689,311.821 721.000,310.000" stroke-width="3.708" stroke="black" fill="none" stroke-linecap="round"></path><path d="M 721.000,310.000 C 725.026,302.402 721.317,305.885 731.000,298.000" stroke-width="3.758" stroke="black" fill="none" stroke-linecap="round"></path></svg>