<svg xmlns="http://www.w3.org/2000/svg" xmlns:xlink="http://www.w3.org/1999/xlink" viewBox="0 0 1460 576" width="1460" height="576"><path d="M 725.000,344.000 C 714.996,344.204 715.000,344.000 705.000,344.000" stroke-width="3.835" stroke="black" fill="none" stroke-linecap="round"></path><path d="M 705.000,344.000 C 690.346,344.688 690.496,343.704 676.000,343.000" stroke-width="2.335" stroke="black" fill="none" stroke-linecap="round"></path><path d="M 676.000,343.000 C 664.627,341.542 664.846,341.688 654.000,338.000" stroke-width="2.334" stroke="black" fill="none" stroke-linecap="round"></path><path d="M 654.000,338.000 C 645.837,335.939 646.627,335.542 640.000,331.000" stroke-width="2.813" stroke="black" fill="none" stroke-linecap="round"></path><path d="M 640.000,331.000 C 630.237,324.745 632.837,324.939 628.000,316.000" stroke-width="3.295" stroke="black" fill="none" stroke-linecap="round"></path><path d="M 628.000,316.000 C 626.475,301.347 624.737,303.245 629.000,288.000" stroke-width="2.444" stroke="black" fill="none" stroke-linecap="round"></path><path d="M 629.000,288.000 C 630.474,281.716 629.975,282.847 635.000,279.000" stroke-width="3.064" stroke="black" fill="none" stroke-linecap="round"></path><path d="M 635.000,279.000 C 653.489,266.009 652.974,268.216 674.000,261.000" stroke-width="1.797" stroke="black" fill="none" stroke-linecap="round"></path><path d="M 674.000,261.000 C 697.645,257.113 696.489,255.509 721.000,258.000" stroke-width="1.621" stroke="black" fill="none" stroke-linecap="round"></path><path d="M 721.000,258.000 C 737.107,260.545 737.145,258.613 753.000,264.000" stroke-width="1.825" stroke="black" fill="none" stroke-linecap="round"></path><path d="M 753.000,264.000 C 760.491,265.071 760.107,265.545 767.000,268.000" stroke-width="2.487" stroke="black" fill="none" stroke-linecap="round"></path><path d="M 767.000,268.000 C 770.751,269.886 770.491,269.571 773.000,273.000" stroke-width="3.309" stroke="black" fill="none" stroke-linecap="round"></path><path d="M 773.000,273.000 C 778.871,279.229 777.251,278.886 780.000,286.000" stroke-width="3.094" stroke="black" fill="none" stroke-linecap="round"></path><path d="M 780.000,286.000 C 780.635,292.928 780.871,291.229 777.000,297.000" stroke-width="3.280" stroke="black" fill="none" stroke-linecap="round"></path><path d="M 777.000,297.000 C 766.408,306.102 768.135,306.928 755.000,314.000" stroke-width="2.314" stroke="black" fill="none" stroke-linecap="round"></path><path d="M 755.000,314.000 C 742.204,324.000 746.908,319.602 738.000,324.000" stroke-width="2.977" stroke="black" fill="none" stroke-linecap="round"></path><path d="M 738.000,324.000 C 738.039,317.278 735.704,324.000 742.000,314.000" stroke-width="3.779" stroke="black" fill="none" stroke-linecap="round"></path><path d="M 742.000,314.000 C 753.887,305.548 752.539,305.278 767.000,300.000" stroke-width="2.418" stroke="black" fill="none" stroke-linecap="round"></path><path d="M 767.000,300.000 C 780.133,293.642 779.887,294.548 794.000,292.000" stroke-width="2.139" stroke="black" fill="none" stroke-linecap="round"></path><path d="M 794.000,292.000 C 818.748,289.003 818.133,289.142 843.000,291.000" stroke-width="1.548" stroke="black" fill="none" stroke-linecap="round"></path><path d="M 843.000,291.000 C 864.489,293.025 861.248,292.503 879.000,299.000" stroke-width="2.207" stroke="black" fill="none" stroke-linecap="round"></path><path d="M 879.000,299.000 C 874.869,305.820 881.489,300.025 877.000,305.000" stroke-width="3.713" stroke="black" fill="none" stroke-linecap="round"></path><path d="M 877.000,305.000 C 889.459,292.253 887.869,300.820 905.000,289.000" stroke-width="4.474" stroke="black" fill="none" stroke-linecap="round"></path><path d="M 905.000,289.000 C 955.379,278.896 953.959,278.753 1006.000,278.000" stroke-width="1.740" stroke="black" fill="none" stroke-linecap="round"></path><path d="M 1006.000,278.000 C 1068.812,278.916 1068.379,276.896 1131.000,285.000" stroke-width="1.125" stroke="black" fill="none" stroke-linecap="round"></path><path d="M 1131.000,285.000 C 1160.404,291.067 1160.812,287.916 1190.000,296.000" stroke-width="1.125" stroke="black" fill="none" stroke-linecap="round"></path><path d="M 1190.000,296.000 C 1226.593,300.999 1226.404,302.067 1263.000,307.000" stroke-width="1.125" stroke="black" fill="none" stroke-linecap="round"></path><path d="M 1263.000,307.000 C 1272.040,308.837 1272.093,308.499 1281.000,311.000" stroke-width="1.840" stroke="black" fill="none" stroke-linecap="round"></path><path d="M 1281.000,311.000 C 1292.958,311.701 1286.540,312.337 1292.000,314.000" stroke-width="2.696" stroke="black" fill="none" stroke-linecap="round"></path><path d="M 1292.000,314.000 C 1284.882,321.540 1290.458,317.701 1276.000,323.000" stroke-width="3.910" stroke="black" fill="none" stroke-linecap="round"></path><path d="M 1276.000,323.000 C 1247.513,324.824 1248.382,327.540 1219.000,326.000" stroke-width="1.482" stroke="black" fill="none" stroke-linecap="round"></path><path d="M 1219.000,326.000 C 1199.005,326.894 1199.013,326.824 1179.000,327.000" stroke-width="1.614" stroke="black" fill="none" stroke-linecap="round"></path><path d="M 1179.000,327.000 C 1104.499,327.252 1104.505,327.394 1030.000,327.000" stroke-width="1.125" stroke="black" fill="none" stroke-linecap="round"></path><path d="M 1030.000,327.000 C 956.488,327.213 956.499,326.752 883.000,326.000" stroke-width="1.125" stroke="black" fill="none" stroke-linecap="round"></path><path d="M 883.000,326.000 C 805.007,323.479 804.988,324.713 727.000,322.000" stroke-width="1.125" stroke="black" fill="none" stroke-linecap="round"></path><path d="M 727.000,322.000 C 699.488,322.387 699.507,321.479 672.000,322.000" stroke-width="1.125" stroke="black" fill="none" stroke-linecap="round"></path><path d="M 672.000,322.000 C 664.008,321.236 663.988,321.887 656.000,321.000" stroke-width="1.955" stroke="black" fill="none" stroke-linecap="round"></path><path d="M 656.000,321.000 C 646.861,321.949 647.008,320.736 638.000,321.000" stroke-width="2.874" stroke="black" fill="none" stroke-linecap="round"></path><path d="M 638.000,321.000 C 632.871,319.826 632.861,320.449 628.000,318.000" stroke-width="3.322" stroke="black" fill="none" stroke-linecap="round"></path><path d="M 628.000,318.000 C 625.051,316.387 624.871,316.826 622.000,315.000" stroke-width="3.746" stroke="black" fill="none" stroke-linecap="round"></path><path d="M 622.000,315.000 C 619.529,313.920 619.551,313.887 617.000,313.000" stroke-width="4.058" stroke="black" fill="none" stroke-linecap="round"></path></svg>