<svg xmlns="http://www.w3.org/2000/svg" xmlns:xlink="http://www.w3.org/1999/xlink" viewBox="0 0 1460 576" width="1460" height="576"><path d="M 643.000,212.000 C 637.242,220.198 637.000,220.000 631.000,228.000" stroke-width="4.813" stroke="black" fill="none" stroke-linecap="round"></path><path d="M 631.000,228.000 C 625.781,231.747 627.242,232.698 623.000,237.000" stroke-width="3.703" stroke="black" fill="none" stroke-linecap="round"></path><path d="M 623.000,237.000 C 617.470,249.336 616.781,248.747 613.000,262.000" stroke-width="2.332" stroke="black" fill="none" stroke-linecap="round"></path><path d="M 613.000,262.000 C 610.772,266.445 611.470,266.336 611.000,271.000" stroke-width="3.119" stroke="black" fill="none" stroke-linecap="round"></path><path d="M 611.000,271.000 C 611.680,287.060 611.772,286.445 615.000,302.000" stroke-width="2.985" stroke="black" fill="none" stroke-linecap="round"></path><path d="M 615.000,302.000 C 616.159,306.729 615.680,305.060 619.000,307.000" stroke-width="3.679" stroke="black" fill="none" stroke-linecap="round"></path><path d="M 619.000,307.000 C 629.203,308.693 626.659,307.729 636.000,304.000" stroke-width="2.939" stroke="black" fill="none" stroke-linecap="round"></path><path d="M 636.000,304.000 C 650.091,292.300 650.203,294.193 661.000,278.000" stroke-width="2.038" stroke="black" fill="none" stroke-linecap="round"></path><path d="M 661.000,278.000 C 683.914,241.142 687.091,243.800 710.000,207.000" stroke-width="1.675" stroke="black" fill="none" stroke-linecap="round"></path><path d="M 710.000,207.000 C 718.952,197.253 717.914,196.642 729.000,189.000" stroke-width="2.020" stroke="black" fill="none" stroke-linecap="round"></path><path d="M 729.000,189.000 C 733.546,186.579 732.952,185.753 738.000,184.000" stroke-width="2.832" stroke="black" fill="none" stroke-linecap="round"></path><path d="M 738.000,184.000 C 748.854,180.775 743.046,181.079 748.000,178.000" stroke-width="3.167" stroke="black" fill="none" stroke-linecap="round"></path><path d="M 748.000,178.000 C 741.532,171.856 746.854,174.275 734.000,171.000" stroke-width="4.035" stroke="black" fill="none" stroke-linecap="round"></path><path d="M 734.000,171.000 C 718.331,169.646 719.532,169.356 704.000,173.000" stroke-width="2.387" stroke="black" fill="none" stroke-linecap="round"></path><path d="M 704.000,173.000 C 694.874,176.586 694.831,175.146 687.000,182.000" stroke-width="2.558" stroke="black" fill="none" stroke-linecap="round"></path><path d="M 687.000,182.000 C 678.501,187.651 678.874,187.586 672.000,195.000" stroke-width="2.584" stroke="black" fill="none" stroke-linecap="round"></path><path d="M 672.000,195.000 C 666.653,200.926 667.001,200.651 664.000,208.000" stroke-width="2.783" stroke="black" fill="none" stroke-linecap="round"></path><path d="M 664.000,208.000 C 658.209,221.399 659.153,220.926 657.000,235.000" stroke-width="2.291" stroke="black" fill="none" stroke-linecap="round"></path><path d="M 657.000,235.000 C 655.493,245.385 656.209,243.899 660.000,253.000" stroke-width="2.458" stroke="black" fill="none" stroke-linecap="round"></path><path d="M 660.000,253.000 C 671.095,271.082 669.993,269.885 686.000,284.000" stroke-width="1.843" stroke="black" fill="none" stroke-linecap="round"></path><path d="M 686.000,284.000 C 694.961,290.275 693.595,290.582 705.000,292.000" stroke-width="2.234" stroke="black" fill="none" stroke-linecap="round"></path><path d="M 705.000,292.000 C 727.781,296.932 726.961,295.775 750.000,295.000" stroke-width="1.641" stroke="black" fill="none" stroke-linecap="round"></path><path d="M 750.000,295.000 C 775.103,292.211 773.781,292.932 797.000,284.000" stroke-width="2.066" stroke="black" fill="none" stroke-linecap="round"></path><path d="M 797.000,284.000 C 800.964,278.407 803.103,281.711 806.000,274.000" stroke-width="2.757" stroke="black" fill="none" stroke-linecap="round"></path><path d="M 806.000,274.000 C 812.921,267.430 812.964,267.907 821.000,263.000" stroke-width="3.319" stroke="black" fill="none" stroke-linecap="round"></path><path d="M 821.000,263.000 C 828.822,259.337 828.421,258.930 837.000,257.000" stroke-width="2.804" stroke="black" fill="none" stroke-linecap="round"></path><path d="M 837.000,257.000 C 842.976,255.000 842.822,255.337 849.000,255.000" stroke-width="3.120" stroke="black" fill="none" stroke-linecap="round"></path><path d="M 849.000,255.000 C 857.515,255.893 857.476,255.000 866.000,257.000" stroke-width="2.950" stroke="black" fill="none" stroke-linecap="round"></path></svg>