<svg xmlns="http://www.w3.org/2000/svg" xmlns:xlink="http://www.w3.org/1999/xlink" viewBox="0 0 1460 576" width="1460" height="576"><path d="M 362.000,307.000 C 368.797,303.021 369.000,303.500 376.000,300.000" stroke-width="4.580" stroke="black" fill="none" stroke-linecap="round"></path><path d="M 376.000,300.000 C 384.433,296.798 384.297,296.521 393.000,294.000" stroke-width="3.106" stroke="black" fill="none" stroke-linecap="round"></path><path d="M 393.000,294.000 C 408.709,287.854 408.933,288.798 425.000,284.000" stroke-width="2.144" stroke="black" fill="none" stroke-linecap="round"></path><path d="M 425.000,284.000 C 455.393,277.167 455.209,276.854 486.000,272.000" stroke-width="1.337" stroke="black" fill="none" stroke-linecap="round"></path><path d="M 486.000,272.000 C 494.040,271.853 493.893,270.667 502.000,271.000" stroke-width="2.145" stroke="black" fill="none" stroke-linecap="round"></path><path d="M 502.000,271.000 C 507.992,269.316 508.040,270.353 514.000,269.000" stroke-width="3.029" stroke="black" fill="none" stroke-linecap="round"></path><path d="M 514.000,269.000 C 520.050,267.055 517.492,268.816 521.000,270.000" stroke-width="4.044" stroke="black" fill="none" stroke-linecap="round"></path><path d="M 521.000,270.000 C 524.000,285.109 525.050,282.555 524.000,300.000" stroke-width="2.309" stroke="black" fill="none" stroke-linecap="round"></path><path d="M 524.000,300.000 C 521.911,305.927 524.000,306.109 521.000,312.000" stroke-width="2.852" stroke="black" fill="none" stroke-linecap="round"></path><path d="M 521.000,312.000 C 518.765,317.249 520.411,315.927 521.000,320.000" stroke-width="3.427" stroke="black" fill="none" stroke-linecap="round"></path><path d="M 521.000,320.000 C 526.941,329.464 525.265,325.249 534.000,328.000" stroke-width="3.024" stroke="black" fill="none" stroke-linecap="round"></path><path d="M 534.000,328.000 C 569.973,318.391 567.941,320.964 603.000,303.000" stroke-width="1.998" stroke="black" fill="none" stroke-linecap="round"></path><path d="M 603.000,303.000 C 619.347,290.384 621.473,294.391 637.000,280.000" stroke-width="1.739" stroke="black" fill="none" stroke-linecap="round"></path><path d="M 637.000,280.000 C 653.317,269.484 653.347,270.384 671.000,263.000" stroke-width="1.687" stroke="black" fill="none" stroke-linecap="round"></path><path d="M 671.000,263.000 C 684.290,256.662 683.317,258.484 697.000,258.000" stroke-width="2.061" stroke="black" fill="none" stroke-linecap="round"></path><path d="M 697.000,258.000 C 714.321,260.993 712.790,259.662 728.000,269.000" stroke-width="2.538" stroke="black" fill="none" stroke-linecap="round"></path><path d="M 728.000,269.000 C 733.460,275.190 734.821,272.993 738.000,282.000" stroke-width="2.757" stroke="black" fill="none" stroke-linecap="round"></path><path d="M 738.000,282.000 C 743.618,290.235 743.460,290.190 748.000,299.000" stroke-width="2.586" stroke="black" fill="none" stroke-linecap="round"></path><path d="M 748.000,299.000 C 747.328,305.109 749.618,302.235 750.000,306.000" stroke-width="3.366" stroke="black" fill="none" stroke-linecap="round"></path><path d="M 750.000,306.000 C 756.665,305.700 754.828,307.609 763.000,304.000" stroke-width="4.527" stroke="black" fill="none" stroke-linecap="round"></path><path d="M 763.000,304.000 C 776.605,297.925 777.165,300.200 791.000,295.000" stroke-width="2.463" stroke="black" fill="none" stroke-linecap="round"></path><path d="M 791.000,295.000 C 870.075,273.704 870.105,278.925 950.000,266.000" stroke-width="1.125" stroke="black" fill="none" stroke-linecap="round"></path><path d="M 950.000,266.000 C 995.444,265.200 994.575,261.704 1040.000,271.000" stroke-width="1.125" stroke="black" fill="none" stroke-linecap="round"></path><path d="M 1040.000,271.000 C 1079.751,278.504 1079.944,276.200 1119.000,288.000" stroke-width="1.125" stroke="black" fill="none" stroke-linecap="round"></path><path d="M 1119.000,288.000 C 1141.374,295.134 1141.751,293.504 1164.000,301.000" stroke-width="1.501" stroke="black" fill="none" stroke-linecap="round"></path><path d="M 1164.000,301.000 C 1168.508,302.000 1168.374,302.134 1173.000,302.000" stroke-width="2.607" stroke="black" fill="none" stroke-linecap="round"></path><path d="M 1173.000,302.000 C 1176.630,301.963 1176.508,302.000 1180.000,301.000" stroke-width="3.353" stroke="black" fill="none" stroke-linecap="round"></path><path d="M 1180.000,301.000 C 1183.602,299.699 1183.630,299.963 1187.000,298.000" stroke-width="4.136" stroke="black" fill="none" stroke-linecap="round"></path><path d="M 1187.000,298.000 C 1192.454,295.682 1189.602,296.699 1192.000,295.000" stroke-width="4.580" stroke="black" fill="none" stroke-linecap="round"></path><path d="M 1192.000,295.000 C 1188.482,294.751 1191.454,294.182 1185.000,295.000" stroke-width="5.118" stroke="black" fill="none" stroke-linecap="round"></path><path d="M 1185.000,295.000 C 1181.515,295.630 1181.482,295.251 1178.000,296.000" stroke-width="4.259" stroke="black" fill="none" stroke-linecap="round"></path></svg>