<svg xmlns="http://www.w3.org/2000/svg" xmlns:xlink="http://www.w3.org/1999/xlink" viewBox="0 0 1460 576" width="1460" height="576"><path d="M 765.000,256.000 C 758.598,276.134 755.500,273.500 746.000,291.000" stroke-width="3.131" stroke="black" fill="none" stroke-linecap="round"></path><path d="M 746.000,291.000 C 732.008,305.624 733.598,305.634 715.000,315.000" stroke-width="1.971" stroke="black" fill="none" stroke-linecap="round"></path><path d="M 715.000,315.000 C 692.157,327.880 693.008,327.124 668.000,334.000" stroke-width="1.544" stroke="black" fill="none" stroke-linecap="round"></path><path d="M 668.000,334.000 C 653.972,334.399 654.657,337.380 640.000,334.000" stroke-width="2.155" stroke="black" fill="none" stroke-linecap="round"></path><path d="M 640.000,334.000 C 636.087,334.601 636.472,333.899 633.000,333.000" stroke-width="3.171" stroke="black" fill="none" stroke-linecap="round"></path><path d="M 633.000,333.000 C 619.133,329.613 622.587,327.601 613.000,320.000" stroke-width="2.472" stroke="black" fill="none" stroke-linecap="round"></path><path d="M 613.000,320.000 C 600.324,298.304 600.633,300.613 596.000,275.000" stroke-width="1.613" stroke="black" fill="none" stroke-linecap="round"></path><path d="M 596.000,275.000 C 594.547,248.826 591.324,249.804 595.000,223.000" stroke-width="1.493" stroke="black" fill="none" stroke-linecap="round"></path><path d="M 595.000,223.000 C 594.829,219.528 595.047,220.326 597.000,218.000" stroke-width="2.741" stroke="black" fill="none" stroke-linecap="round"></path><path d="M 597.000,218.000 C 621.414,195.303 621.829,200.528 649.000,185.000" stroke-width="1.343" stroke="black" fill="none" stroke-linecap="round"></path><path d="M 649.000,185.000 C 665.172,182.926 662.914,179.803 680.000,187.000" stroke-width="1.738" stroke="black" fill="none" stroke-linecap="round"></path><path d="M 680.000,187.000 C 710.571,197.248 710.672,195.426 740.000,210.000" stroke-width="1.255" stroke="black" fill="none" stroke-linecap="round"></path><path d="M 740.000,210.000 C 757.186,215.220 755.571,216.748 770.000,226.000" stroke-width="1.593" stroke="black" fill="none" stroke-linecap="round"></path><path d="M 770.000,226.000 C 790.394,242.690 788.686,241.720 803.000,263.000" stroke-width="1.847" stroke="black" fill="none" stroke-linecap="round"></path><path d="M 803.000,263.000 C 808.310,274.297 808.394,271.690 806.000,284.000" stroke-width="2.262" stroke="black" fill="none" stroke-linecap="round"></path><path d="M 806.000,284.000 C 801.262,295.926 803.310,295.297 793.000,305.000" stroke-width="2.284" stroke="black" fill="none" stroke-linecap="round"></path><path d="M 793.000,305.000 C 770.979,331.330 770.762,329.426 745.000,351.000" stroke-width="1.974" stroke="black" fill="none" stroke-linecap="round"></path><path d="M 745.000,351.000 C 734.175,355.629 735.979,357.830 723.000,358.000" stroke-width="2.193" stroke="black" fill="none" stroke-linecap="round"></path><path d="M 723.000,358.000 C 717.500,358.000 717.675,359.129 712.000,358.000" stroke-width="2.926" stroke="black" fill="none" stroke-linecap="round"></path><path d="M 712.000,358.000 C 707.136,360.129 709.000,358.000 706.000,358.000" stroke-width="3.691" stroke="black" fill="none" stroke-linecap="round"></path><path d="M 706.000,358.000 C 702.771,350.128 703.136,352.629 704.000,343.000" stroke-width="3.805" stroke="black" fill="none" stroke-linecap="round"></path><path d="M 704.000,343.000 C 706.761,335.500 705.271,335.628 711.000,329.000" stroke-width="3.146" stroke="black" fill="none" stroke-linecap="round"></path><path d="M 711.000,329.000 C 714.894,324.400 714.261,324.000 719.000,320.000" stroke-width="3.247" stroke="black" fill="none" stroke-linecap="round"></path><path d="M 719.000,320.000 C 721.756,316.703 721.894,316.900 725.000,314.000" stroke-width="3.536" stroke="black" fill="none" stroke-linecap="round"></path></svg>