<svg xmlns="http://www.w3.org/2000/svg" xmlns:xlink="http://www.w3.org/1999/xlink" viewBox="0 0 1460 581" width="1460" height="581"><path d="M 360.000,161.000 C 358.909,165.055 358.750,165.000 357.500,169.000" stroke-width="5.382" stroke="black" fill="none" stroke-linecap="round"></path><path d="M 357.500,169.000 C 355.539,175.749 355.159,175.555 352.500,182.000" stroke-width="3.544" stroke="black" fill="none" stroke-linecap="round"></path><path d="M 352.500,182.000 C 345.791,193.277 346.789,193.749 340.000,205.000" stroke-width="2.496" stroke="black" fill="none" stroke-linecap="round"></path><path d="M 340.000,205.000 C 336.424,214.476 335.541,214.027 332.000,223.500" stroke-width="2.491" stroke="black" fill="none" stroke-linecap="round"></path><path d="M 332.000,223.500 C 329.297,226.762 330.174,227.226 327.500,230.500" stroke-width="3.230" stroke="black" fill="none" stroke-linecap="round"></path><path d="M 327.500,230.500 C 323.475,239.989 323.047,239.762 319.500,249.500" stroke-width="2.779" stroke="black" fill="none" stroke-linecap="round"></path><path d="M 319.500,249.500 C 317.650,257.447 316.475,256.739 313.500,264.000" stroke-width="2.821" stroke="black" fill="none" stroke-linecap="round"></path><path d="M 313.500,264.000 C 306.786,271.580 308.150,272.447 300.500,279.500" stroke-width="2.639" stroke="black" fill="none" stroke-linecap="round"></path><path d="M 300.500,279.500 C 294.106,287.239 294.286,287.330 288.500,295.500" stroke-width="2.540" stroke="black" fill="none" stroke-linecap="round"></path><path d="M 288.500,295.500 C 285.409,301.815 284.606,301.239 281.500,307.500" stroke-width="2.905" stroke="black" fill="none" stroke-linecap="round"></path><path d="M 281.500,307.500 C 279.500,309.500 279.909,309.815 277.500,311.500" stroke-width="3.680" stroke="black" fill="none" stroke-linecap="round"></path><path d="M 361.000,153.500 C 361.744,156.724 361.500,156.750 362.000,160.000" stroke-width="4.479" stroke="black" fill="none" stroke-linecap="round"></path><path d="M 362.000,160.000 C 362.429,172.778 362.994,172.724 363.500,185.500" stroke-width="2.643" stroke="black" fill="none" stroke-linecap="round"></path><path d="M 363.500,185.500 C 364.049,196.632 364.429,196.528 366.000,207.500" stroke-width="2.500" stroke="black" fill="none" stroke-linecap="round"></path><path d="M 366.000,207.500 C 368.142,216.030 367.549,216.132 370.500,224.500" stroke-width="2.623" stroke="black" fill="none" stroke-linecap="round"></path><path d="M 370.500,224.500 C 374.783,240.315 374.892,240.280 379.500,256.000" stroke-width="2.089" stroke="black" fill="none" stroke-linecap="round"></path><path d="M 379.500,256.000 C 384.510,273.676 384.783,273.565 390.500,291.000" stroke-width="1.864" stroke="black" fill="none" stroke-linecap="round"></path><path d="M 390.500,291.000 C 394.512,300.153 393.760,300.426 398.000,309.500" stroke-width="2.269" stroke="black" fill="none" stroke-linecap="round"></path><path d="M 398.000,309.500 C 400.794,316.916 400.762,316.903 403.000,324.500" stroke-width="2.685" stroke="black" fill="none" stroke-linecap="round"></path><path d="M 403.000,324.500 C 404.977,330.694 404.794,330.666 406.000,337.000" stroke-width="3.028" stroke="black" fill="none" stroke-linecap="round"></path><path d="M 415.000,245.000 C 409.522,245.957 409.500,245.750 404.000,246.500" stroke-width="4.989" stroke="black" fill="none" stroke-linecap="round"></path><path d="M 404.000,246.500 C 394.267,247.682 394.272,247.457 384.500,248.000" stroke-width="2.970" stroke="black" fill="none" stroke-linecap="round"></path><path d="M 384.500,248.000 C 371.249,248.112 371.267,248.432 358.000,248.000" stroke-width="2.317" stroke="black" fill="none" stroke-linecap="round"></path><path d="M 358.000,248.000 C 341.744,247.943 341.749,247.862 325.500,247.500" stroke-width="2.089" stroke="black" fill="none" stroke-linecap="round"></path><path d="M 325.500,247.500 C 314.235,247.220 314.244,247.193 303.000,246.500" stroke-width="2.310" stroke="black" fill="none" stroke-linecap="round"></path><path d="M 303.000,246.500 C 294.761,245.506 294.735,245.970 286.500,245.000" stroke-width="2.610" stroke="black" fill="none" stroke-linecap="round"></path><path d="M 605.000,183.000 C 601.628,180.516 601.500,180.750 598.000,178.500" stroke-width="4.595" stroke="black" fill="none" stroke-linecap="round"></path><path d="M 598.000,178.500 C 594.905,176.548 594.878,176.766 591.500,175.500" stroke-width="4.130" stroke="black" fill="none" stroke-linecap="round"></path><path d="M 591.500,175.500 C 585.097,173.348 585.155,173.548 578.500,172.500" stroke-width="3.393" stroke="black" fill="none" stroke-linecap="round"></path><path d="M 578.500,172.500 C 567.441,170.585 567.597,171.098 556.500,171.000" stroke-width="2.672" stroke="black" fill="none" stroke-linecap="round"></path><path d="M 556.500,171.000 C 546.411,169.553 547.691,171.335 539.000,174.000" stroke-width="2.668" stroke="black" fill="none" stroke-linecap="round"></path><path d="M 539.000,174.000 C 521.621,188.403 520.161,185.303 504.000,202.500" stroke-width="1.763" stroke="black" fill="none" stroke-linecap="round"></path><path d="M 504.000,202.500 C 493.175,209.334 494.121,210.403 484.000,218.000" stroke-width="2.084" stroke="black" fill="none" stroke-linecap="round"></path><path d="M 484.000,218.000 C 467.179,235.930 466.175,234.834 450.000,253.500" stroke-width="1.537" stroke="black" fill="none" stroke-linecap="round"></path><path d="M 450.000,253.500 C 444.731,257.998 445.179,258.430 440.000,263.000" stroke-width="2.304" stroke="black" fill="none" stroke-linecap="round"></path><path d="M 440.000,263.000 C 435.088,266.824 435.981,267.248 432.500,272.000" stroke-width="2.937" stroke="black" fill="none" stroke-linecap="round"></path><path d="M 432.500,272.000 C 427.666,283.899 426.838,283.324 423.500,296.000" stroke-width="2.348" stroke="black" fill="none" stroke-linecap="round"></path><path d="M 423.500,296.000 C 421.924,299.211 422.416,299.149 422.000,302.500" stroke-width="3.288" stroke="black" fill="none" stroke-linecap="round"></path><path d="M 422.000,302.500 C 421.472,310.617 422.174,309.961 424.000,317.500" stroke-width="3.000" stroke="black" fill="none" stroke-linecap="round"></path><path d="M 424.000,317.500 C 426.197,323.798 425.972,322.867 431.000,327.000" stroke-width="3.217" stroke="black" fill="none" stroke-linecap="round"></path><path d="M 431.000,327.000 C 444.822,336.488 444.197,335.798 460.000,341.500" stroke-width="2.198" stroke="black" fill="none" stroke-linecap="round"></path><path d="M 460.000,341.500 C 471.974,343.267 471.322,345.238 484.000,344.500" stroke-width="2.166" stroke="black" fill="none" stroke-linecap="round"></path><path d="M 484.000,344.500 C 491.499,345.021 491.474,345.267 499.000,345.500" stroke-width="2.633" stroke="black" fill="none" stroke-linecap="round"></path><path d="M 499.000,345.500 C 503.247,345.848 503.249,345.771 507.500,346.000" stroke-width="3.283" stroke="black" fill="none" stroke-linecap="round"></path><path d="M 507.500,346.000 C 510.297,346.427 510.247,346.098 513.000,346.000" stroke-width="3.905" stroke="black" fill="none" stroke-linecap="round"></path><path d="M 513.000,346.000 C 520.038,345.288 519.797,344.927 526.500,343.000" stroke-width="3.165" stroke="black" fill="none" stroke-linecap="round"></path><path d="M 526.500,343.000 C 532.471,341.187 532.038,341.038 537.000,337.500" stroke-width="3.211" stroke="black" fill="none" stroke-linecap="round"></path><path d="M 537.000,337.500 C 542.015,330.965 543.221,332.437 548.000,325.500" stroke-width="2.903" stroke="black" fill="none" stroke-linecap="round"></path><path d="M 548.000,325.500 C 553.884,320.837 553.515,320.465 560.000,316.500" stroke-width="2.962" stroke="black" fill="none" stroke-linecap="round"></path><path d="M 560.000,316.500 C 567.915,311.469 567.634,311.087 575.500,306.000" stroke-width="2.816" stroke="black" fill="none" stroke-linecap="round"></path><path d="M 575.500,306.000 C 578.600,303.610 578.665,303.719 581.500,301.000" stroke-width="3.428" stroke="black" fill="none" stroke-linecap="round"></path><path d="M 581.500,301.000 C 587.144,295.879 583.600,299.110 585.500,297.000" stroke-width="3.947" stroke="black" fill="none" stroke-linecap="round"></path><path d="M 585.500,297.000 C 572.171,306.091 576.144,303.379 559.500,316.000" stroke-width="4.171" stroke="black" fill="none" stroke-linecap="round"></path><path d="M 559.500,316.000 C 552.801,321.549 552.671,321.341 546.500,327.500" stroke-width="3.018" stroke="black" fill="none" stroke-linecap="round"></path><path d="M 546.500,327.500 C 540.639,333.775 543.801,330.049 541.500,333.000" stroke-width="3.550" stroke="black" fill="none" stroke-linecap="round"></path><path d="M 541.500,333.000 C 545.569,326.732 543.139,331.525 551.500,323.000" stroke-width="4.084" stroke="black" fill="none" stroke-linecap="round"></path><path d="M 551.500,323.000 C 569.289,314.860 567.819,312.732 586.000,305.000" stroke-width="1.998" stroke="black" fill="none" stroke-linecap="round"></path><path d="M 586.000,305.000 C 593.465,298.809 594.289,300.110 601.500,293.500" stroke-width="2.354" stroke="black" fill="none" stroke-linecap="round"></path><path d="M 601.500,293.500 C 607.351,288.884 607.465,289.559 614.000,286.500" stroke-width="2.803" stroke="black" fill="none" stroke-linecap="round"></path><path d="M 614.000,286.500 C 621.079,284.000 620.601,284.134 628.000,284.000" stroke-width="2.923" stroke="black" fill="none" stroke-linecap="round"></path><path d="M 628.000,284.000 C 632.462,284.377 632.079,284.000 636.000,286.500" stroke-width="3.467" stroke="black" fill="none" stroke-linecap="round"></path><path d="M 636.000,286.500 C 642.210,291.014 642.462,290.377 648.000,296.000" stroke-width="3.030" stroke="black" fill="none" stroke-linecap="round"></path><path d="M 648.000,296.000 C 651.136,298.876 651.210,298.764 654.000,302.000" stroke-width="3.545" stroke="black" fill="none" stroke-linecap="round"></path><path d="M 654.000,302.000 C 656.577,304.939 656.636,304.876 659.000,308.000" stroke-width="3.706" stroke="black" fill="none" stroke-linecap="round"></path><path d="M 659.000,308.000 C 660.674,314.265 661.327,310.939 663.500,314.000" stroke-width="3.842" stroke="black" fill="none" stroke-linecap="round"></path><path d="M 663.500,314.000 C 669.537,310.652 668.674,313.515 675.000,306.500" stroke-width="4.742" stroke="black" fill="none" stroke-linecap="round"></path><path d="M 675.000,306.500 C 706.186,280.984 707.037,282.152 738.500,257.000" stroke-width="1.229" stroke="black" fill="none" stroke-linecap="round"></path><path d="M 738.500,257.000 C 759.889,233.456 762.436,239.234 787.500,223.000" stroke-width="1.201" stroke="black" fill="none" stroke-linecap="round"></path><path d="M 787.500,223.000 C 872.416,192.868 870.139,191.706 959.000,173.500" stroke-width="1.125" stroke="black" fill="none" stroke-linecap="round"></path><path d="M 959.000,173.500 C 987.327,171.101 986.416,167.368 1015.500,172.000" stroke-width="1.125" stroke="black" fill="none" stroke-linecap="round"></path><path d="M 1015.500,172.000 C 1034.505,172.964 1034.327,172.601 1053.000,176.500" stroke-width="1.340" stroke="black" fill="none" stroke-linecap="round"></path><path d="M 1053.000,176.500 C 1068.447,180.269 1068.505,179.464 1083.500,185.000" stroke-width="1.682" stroke="black" fill="none" stroke-linecap="round"></path><path d="M 1083.500,185.000 C 1086.170,185.784 1085.947,185.769 1088.000,187.500" stroke-width="2.917" stroke="black" fill="none" stroke-linecap="round"></path><path d="M 1088.000,187.500 C 1091.145,189.662 1090.170,189.534 1091.500,192.500" stroke-width="3.639" stroke="black" fill="none" stroke-linecap="round"></path><path d="M 1091.500,192.500 C 1092.888,199.083 1092.145,197.662 1090.000,203.500" stroke-width="3.410" stroke="black" fill="none" stroke-linecap="round"></path><path d="M 1090.000,203.500 C 1082.463,211.244 1084.388,212.083 1074.500,218.500" stroke-width="2.700" stroke="black" fill="none" stroke-linecap="round"></path><path d="M 1074.500,218.500 C 1070.821,221.048 1071.213,221.494 1067.500,224.000" stroke-width="3.326" stroke="black" fill="none" stroke-linecap="round"></path><path d="M 1067.500,224.000 C 1060.437,227.029 1064.071,227.048 1061.000,230.500" stroke-width="4.011" stroke="black" fill="none" stroke-linecap="round"></path><path d="M 1061.000,230.500 C 1064.115,239.108 1061.937,236.279 1070.500,242.500" stroke-width="3.892" stroke="black" fill="none" stroke-linecap="round"></path><path d="M 1070.500,242.500 C 1081.670,245.411 1080.115,247.608 1093.000,247.500" stroke-width="2.771" stroke="black" fill="none" stroke-linecap="round"></path><path d="M 1093.000,247.500 C 1117.025,251.360 1116.920,251.911 1141.000,255.500" stroke-width="1.636" stroke="black" fill="none" stroke-linecap="round"></path><path d="M 1141.000,255.500 C 1151.746,257.519 1151.775,257.360 1162.500,259.500" stroke-width="2.093" stroke="black" fill="none" stroke-linecap="round"></path><path d="M 1162.500,259.500 C 1180.154,263.517 1180.246,262.769 1198.000,266.000" stroke-width="1.880" stroke="black" fill="none" stroke-linecap="round"></path><path d="M 1198.000,266.000 C 1209.009,266.641 1208.904,267.517 1220.000,267.500" stroke-width="2.195" stroke="black" fill="none" stroke-linecap="round"></path><path d="M 1220.000,267.500 C 1224.990,268.196 1225.009,267.891 1230.000,268.500" stroke-width="2.988" stroke="black" fill="none" stroke-linecap="round"></path><path d="M 1230.000,268.500 C 1233.304,268.059 1233.240,268.696 1236.500,268.500" stroke-width="4.022" stroke="black" fill="none" stroke-linecap="round"></path><path d="M 1236.500,268.500 C 1240.941,268.721 1240.554,269.059 1244.500,270.500" stroke-width="4.675" stroke="black" fill="none" stroke-linecap="round"></path><path d="M 1244.500,270.500 C 1247.344,272.072 1246.941,271.721 1248.500,274.500" stroke-width="4.299" stroke="black" fill="none" stroke-linecap="round"></path><path d="M 1248.500,274.500 C 1246.944,280.082 1249.844,277.322 1249.500,281.000" stroke-width="4.126" stroke="black" fill="none" stroke-linecap="round"></path><path d="M 1249.500,281.000 C 1258.761,281.046 1256.694,283.582 1268.000,281.500" stroke-width="4.806" stroke="black" fill="none" stroke-linecap="round"></path><path d="M 1268.000,281.500 C 1274.123,281.263 1274.011,281.796 1280.000,282.500" stroke-width="3.565" stroke="black" fill="none" stroke-linecap="round"></path><path d="M 1280.000,282.500 C 1298.434,285.405 1297.873,286.263 1315.500,291.500" stroke-width="2.098" stroke="black" fill="none" stroke-linecap="round"></path><path d="M 1315.500,291.500 C 1322.388,295.547 1322.934,294.155 1329.000,300.000" stroke-width="2.554" stroke="black" fill="none" stroke-linecap="round"></path><path d="M 1329.000,300.000 C 1338.542,304.273 1334.638,303.797 1340.000,308.000" stroke-width="2.876" stroke="black" fill="none" stroke-linecap="round"></path><path d="M 1340.000,308.000 C 1337.110,311.688 1340.792,310.023 1333.500,311.500" stroke-width="4.206" stroke="black" fill="none" stroke-linecap="round"></path><path d="M 1333.500,311.500 C 1307.974,308.442 1308.360,310.188 1282.500,305.000" stroke-width="1.679" stroke="black" fill="none" stroke-linecap="round"></path><path d="M 1282.500,305.000 C 1261.861,301.006 1261.724,302.192 1241.000,299.000" stroke-width="1.589" stroke="black" fill="none" stroke-linecap="round"></path><path d="M 1241.000,299.000 C 1183.737,294.664 1183.861,293.506 1126.500,290.000" stroke-width="1.125" stroke="black" fill="none" stroke-linecap="round"></path><path d="M 1126.500,290.000 C 1082.590,284.613 1082.487,286.414 1038.500,282.500" stroke-width="1.125" stroke="black" fill="none" stroke-linecap="round"></path><path d="M 1038.500,282.500 C 967.757,279.380 967.840,279.113 897.000,279.000" stroke-width="1.125" stroke="black" fill="none" stroke-linecap="round"></path><path d="M 897.000,279.000 C 827.955,278.706 828.007,278.630 759.000,281.000" stroke-width="1.125" stroke="black" fill="none" stroke-linecap="round"></path><path d="M 759.000,281.000 C 700.256,284.363 700.205,282.956 641.500,287.500" stroke-width="1.125" stroke="black" fill="none" stroke-linecap="round"></path><path d="M 641.500,287.500 C 578.478,291.782 578.506,290.863 515.500,294.000" stroke-width="1.125" stroke="black" fill="none" stroke-linecap="round"></path><path d="M 515.500,294.000 C 507.429,293.728 507.478,294.282 499.500,292.500" stroke-width="1.378" stroke="black" fill="none" stroke-linecap="round"></path><path d="M 499.500,292.500 C 489.793,290.195 489.679,290.978 480.000,288.500" stroke-width="2.012" stroke="black" fill="none" stroke-linecap="round"></path></svg>