<svg xmlns="http://www.w3.org/2000/svg" xmlns:xlink="http://www.w3.org/1999/xlink" viewBox="0 0 1460 576" width="1460" height="576"><path d="M 697.000,401.000 C 692.300,395.396 694.500,395.000 692.000,389.000" stroke-width="4.994" stroke="black" fill="none" stroke-linecap="round"></path><path d="M 692.000,389.000 C 683.094,359.674 690.800,363.396 694.000,337.000" stroke-width="1.768" stroke="black" fill="none" stroke-linecap="round"></path><path d="M 694.000,337.000 C 726.452,280.189 721.094,280.674 768.000,231.000" stroke-width="1.125" stroke="black" fill="none" stroke-linecap="round"></path><path d="M 768.000,231.000 C 811.830,172.958 813.452,177.189 868.000,131.000" stroke-width="1.125" stroke="black" fill="none" stroke-linecap="round"></path><path d="M 868.000,131.000 C 940.919,83.877 936.330,79.958 1017.000,45.000" stroke-width="1.125" stroke="black" fill="none" stroke-linecap="round"></path><path d="M 1017.000,45.000 C 1033.454,40.421 1031.919,37.377 1050.000,38.000" stroke-width="1.286" stroke="black" fill="none" stroke-linecap="round"></path><path d="M 1050.000,38.000 C 1057.413,36.066 1053.954,37.421 1058.000,39.000" stroke-width="2.400" stroke="black" fill="none" stroke-linecap="round"></path><path d="M 1058.000,39.000 C 1060.259,51.314 1059.413,46.066 1054.000,58.000" stroke-width="3.120" stroke="black" fill="none" stroke-linecap="round"></path><path d="M 1054.000,58.000 C 1034.432,72.645 1038.259,74.814 1014.000,86.000" stroke-width="1.730" stroke="black" fill="none" stroke-linecap="round"></path><path d="M 1014.000,86.000 C 945.656,132.607 944.932,131.145 875.000,175.000" stroke-width="1.125" stroke="black" fill="none" stroke-linecap="round"></path><path d="M 875.000,175.000 C 854.260,184.021 855.656,186.607 834.000,194.000" stroke-width="1.125" stroke="black" fill="none" stroke-linecap="round"></path><path d="M 834.000,194.000 C 815.290,207.306 820.760,200.521 808.000,208.000" stroke-width="1.932" stroke="black" fill="none" stroke-linecap="round"></path><path d="M 808.000,208.000 C 807.352,198.929 804.790,208.306 813.000,196.000" stroke-width="2.626" stroke="black" fill="none" stroke-linecap="round"></path><path d="M 813.000,196.000 C 876.573,161.884 874.852,163.929 943.000,138.000" stroke-width="1.316" stroke="black" fill="none" stroke-linecap="round"></path><path d="M 943.000,138.000 C 967.027,134.262 965.573,129.884 991.000,132.000" stroke-width="1.372" stroke="black" fill="none" stroke-linecap="round"></path><path d="M 991.000,132.000 C 995.000,131.500 993.527,131.762 996.000,133.000" stroke-width="2.629" stroke="black" fill="none" stroke-linecap="round"></path><path d="M 996.000,133.000 C 997.390,137.246 997.000,134.500 995.000,138.000" stroke-width="3.888" stroke="black" fill="none" stroke-linecap="round"></path><path d="M 995.000,138.000 C 920.192,156.513 922.890,160.746 847.000,180.000" stroke-width="1.125" stroke="black" fill="none" stroke-linecap="round"></path><path d="M 847.000,180.000 C 787.083,202.231 786.192,199.513 727.000,224.000" stroke-width="1.125" stroke="black" fill="none" stroke-linecap="round"></path><path d="M 727.000,224.000 C 684.588,245.256 683.583,239.731 640.000,255.000" stroke-width="1.125" stroke="black" fill="none" stroke-linecap="round"></path><path d="M 640.000,255.000 C 606.788,259.836 609.088,261.756 576.000,257.000" stroke-width="1.356" stroke="black" fill="none" stroke-linecap="round"></path><path d="M 576.000,257.000 C 569.012,253.325 568.788,256.336 564.000,248.000" stroke-width="2.163" stroke="black" fill="none" stroke-linecap="round"></path><path d="M 564.000,248.000 C 558.981,244.077 561.012,244.825 560.000,240.000" stroke-width="3.043" stroke="black" fill="none" stroke-linecap="round"></path><path d="M 560.000,240.000 C 563.786,221.335 563.981,224.077 574.000,208.000" stroke-width="2.850" stroke="black" fill="none" stroke-linecap="round"></path><path d="M 574.000,208.000 C 583.863,197.668 581.786,197.835 596.000,193.000" stroke-width="2.289" stroke="black" fill="none" stroke-linecap="round"></path><path d="M 596.000,193.000 C 612.482,184.684 609.863,187.668 626.000,188.000" stroke-width="2.147" stroke="black" fill="none" stroke-linecap="round"></path><path d="M 626.000,188.000 C 639.960,195.514 638.982,191.184 649.000,206.000" stroke-width="2.672" stroke="black" fill="none" stroke-linecap="round"></path><path d="M 649.000,206.000 C 652.484,211.755 652.460,210.014 651.000,217.000" stroke-width="3.139" stroke="black" fill="none" stroke-linecap="round"></path><path d="M 651.000,217.000 C 643.915,238.687 644.984,238.255 634.000,259.000" stroke-width="1.747" stroke="black" fill="none" stroke-linecap="round"></path><path d="M 634.000,259.000 C 622.048,280.028 623.415,280.687 610.000,301.000" stroke-width="2.089" stroke="black" fill="none" stroke-linecap="round"></path></svg>