<svg xmlns="http://www.w3.org/2000/svg" xmlns:xlink="http://www.w3.org/1999/xlink" viewBox="0 0 452 236" width="452" height="236"><path d="M 117.000,98.000 C 114.583,96.704 114.500,97.000 112.000,96.000" stroke-width="4.958" stroke="black" fill="none" stroke-linecap="round"></path><path d="M 112.000,96.000 C 108.959,95.683 109.083,95.204 106.000,95.000" stroke-width="4.810" stroke="black" fill="none" stroke-linecap="round"></path><path d="M 106.000,95.000 C 102.500,94.000 102.459,94.183 99.000,93.000" stroke-width="4.685" stroke="black" fill="none" stroke-linecap="round"></path><path d="M 99.000,93.000 C 95.449,92.150 95.500,92.000 92.000,91.000" stroke-width="4.648" stroke="black" fill="none" stroke-linecap="round"></path><path d="M 92.000,91.000 C 86.210,90.264 89.449,90.150 87.000,89.000" stroke-width="5.029" stroke="black" fill="none" stroke-linecap="round"></path><path d="M 87.000,89.000 C 92.057,86.090 88.710,86.264 97.000,83.000" stroke-width="5.066" stroke="black" fill="none" stroke-linecap="round"></path><path d="M 97.000,83.000 C 100.094,81.131 100.057,81.090 103.000,79.000" stroke-width="4.229" stroke="black" fill="none" stroke-linecap="round"></path><path d="M 103.000,79.000 C 107.381,75.336 107.594,75.631 112.000,72.000" stroke-width="3.520" stroke="black" fill="none" stroke-linecap="round"></path><path d="M 112.000,72.000 C 116.741,69.312 116.381,68.836 121.000,66.000" stroke-width="3.404" stroke="black" fill="none" stroke-linecap="round"></path><path d="M 121.000,66.000 C 125.485,61.983 125.741,62.312 130.000,58.000" stroke-width="3.563" stroke="black" fill="none" stroke-linecap="round"></path><path d="M 130.000,58.000 C 133.878,54.349 133.985,54.483 138.000,51.000" stroke-width="3.433" stroke="black" fill="none" stroke-linecap="round"></path><path d="M 138.000,51.000 C 142.192,48.222 141.878,47.849 146.000,45.000" stroke-width="3.453" stroke="black" fill="none" stroke-linecap="round"></path><path d="M 146.000,45.000 C 148.293,42.256 148.692,42.722 151.000,40.000" stroke-width="3.755" stroke="black" fill="none" stroke-linecap="round"></path><path d="M 151.000,40.000 C 156.964,33.550 154.293,37.256 158.000,35.000" stroke-width="4.223" stroke="black" fill="none" stroke-linecap="round"></path><path d="M 158.000,35.000 C 158.436,41.641 159.464,37.050 156.000,47.000" stroke-width="4.674" stroke="black" fill="none" stroke-linecap="round"></path><path d="M 156.000,47.000 C 152.165,52.141 153.436,52.641 148.000,57.000" stroke-width="3.469" stroke="black" fill="none" stroke-linecap="round"></path><path d="M 148.000,57.000 C 143.131,62.625 143.165,62.641 138.000,68.000" stroke-width="3.062" stroke="black" fill="none" stroke-linecap="round"></path><path d="M 138.000,68.000 C 132.620,73.625 132.631,73.625 127.000,79.000" stroke-width="2.912" stroke="black" fill="none" stroke-linecap="round"></path><path d="M 127.000,79.000 C 120.839,84.332 121.120,84.625 115.000,90.000" stroke-width="3.543" stroke="black" fill="none" stroke-linecap="round"></path><path d="M 115.000,90.000 C 103.640,100.674 103.839,100.832 93.000,112.000" stroke-width="2.289" stroke="black" fill="none" stroke-linecap="round"></path><path d="M 93.000,112.000 C 89.000,118.000 88.140,117.174 84.000,123.000" stroke-width="2.781" stroke="black" fill="none" stroke-linecap="round"></path><path d="M 84.000,123.000 C 78.143,127.128 79.000,128.000 73.000,132.000" stroke-width="2.973" stroke="black" fill="none" stroke-linecap="round"></path><path d="M 73.000,132.000 C 69.469,137.027 68.643,136.128 65.000,141.000" stroke-width="3.190" stroke="black" fill="none" stroke-linecap="round"></path><path d="M 65.000,141.000 C 60.077,144.616 60.469,145.027 55.000,148.000" stroke-width="3.248" stroke="black" fill="none" stroke-linecap="round"></path><path d="M 55.000,148.000 C 51.150,150.787 51.077,150.616 47.000,153.000" stroke-width="3.498" stroke="black" fill="none" stroke-linecap="round"></path><path d="M 47.000,153.000 C 43.515,154.536 43.650,154.787 40.000,156.000" stroke-width="3.760" stroke="black" fill="none" stroke-linecap="round"></path><path d="M 40.000,156.000 C 37.601,157.527 37.515,157.036 35.000,158.000" stroke-width="4.063" stroke="black" fill="none" stroke-linecap="round"></path><path d="M 35.000,158.000 C 29.401,159.606 32.101,158.527 29.000,158.000" stroke-width="4.541" stroke="black" fill="none" stroke-linecap="round"></path><path d="M 29.000,158.000 C 29.982,153.177 28.401,155.606 33.000,150.000" stroke-width="4.634" stroke="black" fill="none" stroke-linecap="round"></path><path d="M 33.000,150.000 C 40.252,143.635 39.482,143.177 48.000,138.000" stroke-width="3.789" stroke="black" fill="none" stroke-linecap="round"></path><path d="M 48.000,138.000 C 51.584,136.135 51.252,135.635 55.000,134.000" stroke-width="4.290" stroke="black" fill="none" stroke-linecap="round"></path><path d="M 55.000,134.000 C 59.240,130.505 59.584,131.135 64.000,128.000" stroke-width="3.715" stroke="black" fill="none" stroke-linecap="round"></path><path d="M 64.000,128.000 C 69.088,126.202 68.740,125.505 74.000,124.000" stroke-width="3.521" stroke="black" fill="none" stroke-linecap="round"></path><path d="M 74.000,124.000 C 83.482,119.462 83.588,119.702 93.000,115.000" stroke-width="2.751" stroke="black" fill="none" stroke-linecap="round"></path><path d="M 93.000,115.000 C 99.600,112.200 99.482,111.962 106.000,109.000" stroke-width="2.900" stroke="black" fill="none" stroke-linecap="round"></path><path d="M 106.000,109.000 C 112.500,105.500 112.600,105.700 119.000,102.000" stroke-width="2.976" stroke="black" fill="none" stroke-linecap="round"></path><path d="M 119.000,102.000 C 125.560,98.607 125.500,98.500 132.000,95.000" stroke-width="2.940" stroke="black" fill="none" stroke-linecap="round"></path><path d="M 132.000,95.000 C 138.290,91.907 138.060,91.607 144.000,88.000" stroke-width="2.989" stroke="black" fill="none" stroke-linecap="round"></path><path d="M 144.000,88.000 C 147.459,84.951 147.790,85.407 151.000,82.000" stroke-width="3.421" stroke="black" fill="none" stroke-linecap="round"></path><path d="M 151.000,82.000 C 156.820,78.410 153.459,79.951 156.000,78.000" stroke-width="3.936" stroke="black" fill="none" stroke-linecap="round"></path><path d="M 156.000,78.000 C 151.251,78.299 154.820,77.410 147.000,80.000" stroke-width="4.747" stroke="black" fill="none" stroke-linecap="round"></path><path d="M 147.000,80.000 C 138.403,83.172 138.751,83.299 131.000,88.000" stroke-width="3.139" stroke="black" fill="none" stroke-linecap="round"></path><path d="M 131.000,88.000 C 127.500,91.500 126.903,90.672 124.000,95.000" stroke-width="3.511" stroke="black" fill="none" stroke-linecap="round"></path><path d="M 124.000,95.000 C 121.192,97.260 121.500,97.500 119.000,100.000" stroke-width="3.864" stroke="black" fill="none" stroke-linecap="round"></path><path d="M 119.000,100.000 C 117.300,102.401 117.192,102.260 116.000,105.000" stroke-width="4.042" stroke="black" fill="none" stroke-linecap="round"></path><path d="M 116.000,105.000 C 114.920,107.471 114.800,107.401 114.000,110.000" stroke-width="4.157" stroke="black" fill="none" stroke-linecap="round"></path><path d="M 114.000,110.000 C 110.866,113.958 112.920,112.971 112.000,116.000" stroke-width="4.550" stroke="black" fill="none" stroke-linecap="round"></path><path d="M 112.000,116.000 C 115.364,118.161 113.366,118.458 119.000,119.000" stroke-width="4.890" stroke="black" fill="none" stroke-linecap="round"></path><path d="M 119.000,119.000 C 122.275,119.908 121.864,119.661 125.000,119.000" stroke-width="4.353" stroke="black" fill="none" stroke-linecap="round"></path><path d="M 125.000,119.000 C 127.931,116.889 128.275,117.908 131.000,115.000" stroke-width="4.063" stroke="black" fill="none" stroke-linecap="round"></path><path d="M 131.000,115.000 C 134.804,113.397 134.431,112.889 138.000,111.000" stroke-width="3.831" stroke="black" fill="none" stroke-linecap="round"></path><path d="M 138.000,111.000 C 140.624,108.613 140.804,108.897 143.000,106.000" stroke-width="3.929" stroke="black" fill="none" stroke-linecap="round"></path><path d="M 143.000,106.000 C 148.000,101.513 145.624,103.113 148.000,100.000" stroke-width="4.360" stroke="black" fill="none" stroke-linecap="round"></path><path d="M 148.000,100.000 C 144.995,99.670 148.000,99.013 143.000,101.000" stroke-width="4.970" stroke="black" fill="none" stroke-linecap="round"></path><path d="M 143.000,101.000 C 138.115,104.672 140.495,102.670 139.000,106.000" stroke-width="4.974" stroke="black" fill="none" stroke-linecap="round"></path><path d="M 139.000,106.000 C 143.267,107.878 140.115,107.672 147.000,107.000" stroke-width="5.202" stroke="black" fill="none" stroke-linecap="round"></path><path d="M 147.000,107.000 C 151.546,104.579 151.767,105.878 156.000,102.000" stroke-width="3.884" stroke="black" fill="none" stroke-linecap="round"></path><path d="M 156.000,102.000 C 161.114,99.176 161.046,99.079 166.000,96.000" stroke-width="3.484" stroke="black" fill="none" stroke-linecap="round"></path><path d="M 166.000,96.000 C 171.149,92.696 171.114,92.676 176.000,89.000" stroke-width="3.273" stroke="black" fill="none" stroke-linecap="round"></path><path d="M 176.000,89.000 C 181.863,84.880 181.649,84.696 187.000,80.000" stroke-width="3.284" stroke="black" fill="none" stroke-linecap="round"></path><path d="M 187.000,80.000 C 191.252,74.748 191.863,75.380 196.000,70.000" stroke-width="3.182" stroke="black" fill="none" stroke-linecap="round"></path><path d="M 196.000,70.000 C 200.381,66.860 199.752,66.248 204.000,63.000" stroke-width="3.372" stroke="black" fill="none" stroke-linecap="round"></path><path d="M 204.000,63.000 C 207.406,58.423 207.881,58.860 211.000,54.000" stroke-width="3.517" stroke="black" fill="none" stroke-linecap="round"></path><path d="M 211.000,54.000 C 214.194,50.647 213.906,50.423 217.000,47.000" stroke-width="3.607" stroke="black" fill="none" stroke-linecap="round"></path><path d="M 217.000,47.000 C 219.111,44.069 219.194,44.147 221.000,41.000" stroke-width="3.840" stroke="black" fill="none" stroke-linecap="round"></path><path d="M 221.000,41.000 C 226.149,34.919 223.111,37.569 225.000,34.000" stroke-width="4.309" stroke="black" fill="none" stroke-linecap="round"></path><path d="M 225.000,34.000 C 219.877,34.492 223.649,32.919 216.000,37.000" stroke-width="4.730" stroke="black" fill="none" stroke-linecap="round"></path><path d="M 216.000,37.000 C 212.222,41.248 211.377,39.992 208.000,45.000" stroke-width="3.694" stroke="black" fill="none" stroke-linecap="round"></path><path d="M 208.000,45.000 C 202.741,48.711 203.222,49.248 198.000,53.000" stroke-width="3.340" stroke="black" fill="none" stroke-linecap="round"></path><path d="M 198.000,53.000 C 192.211,58.241 192.241,58.211 187.000,64.000" stroke-width="2.983" stroke="black" fill="none" stroke-linecap="round"></path><path d="M 187.000,64.000 C 182.840,68.880 182.711,68.741 179.000,74.000" stroke-width="3.137" stroke="black" fill="none" stroke-linecap="round"></path><path d="M 179.000,74.000 C 175.446,78.963 175.340,78.880 172.000,84.000" stroke-width="3.232" stroke="black" fill="none" stroke-linecap="round"></path><path d="M 172.000,84.000 C 168.777,88.371 168.946,88.463 166.000,93.000" stroke-width="3.373" stroke="black" fill="none" stroke-linecap="round"></path><path d="M 166.000,93.000 C 164.605,96.058 164.277,95.871 163.000,99.000" stroke-width="3.766" stroke="black" fill="none" stroke-linecap="round"></path><path d="M 163.000,99.000 C 161.067,101.333 161.605,101.558 160.000,104.000" stroke-width="4.218" stroke="black" fill="none" stroke-linecap="round"></path><path d="M 160.000,104.000 C 157.860,108.088 159.067,106.333 159.000,109.000" stroke-width="4.679" stroke="black" fill="none" stroke-linecap="round"></path><path d="M 159.000,109.000 C 162.308,109.243 160.360,110.088 165.000,108.000" stroke-width="4.678" stroke="black" fill="none" stroke-linecap="round"></path><path d="M 165.000,108.000 C 168.358,105.276 168.808,106.243 172.000,103.000" stroke-width="3.975" stroke="black" fill="none" stroke-linecap="round"></path><path d="M 172.000,103.000 C 176.459,100.422 176.358,100.276 181.000,98.000" stroke-width="3.633" stroke="black" fill="none" stroke-linecap="round"></path><path d="M 181.000,98.000 C 184.000,96.500 183.959,96.422 187.000,95.000" stroke-width="3.904" stroke="black" fill="none" stroke-linecap="round"></path><path d="M 187.000,95.000 C 189.949,93.387 190.000,93.500 193.000,92.000" stroke-width="3.994" stroke="black" fill="none" stroke-linecap="round"></path><path d="M 193.000,92.000 C 197.178,88.521 195.449,90.887 198.000,90.000" stroke-width="4.184" stroke="black" fill="none" stroke-linecap="round"></path><path d="M 198.000,90.000 C 199.055,95.724 199.678,93.021 198.000,101.000" stroke-width="4.624" stroke="black" fill="none" stroke-linecap="round"></path><path d="M 198.000,101.000 C 193.686,106.231 197.055,105.724 194.000,110.000" stroke-width="4.393" stroke="black" fill="none" stroke-linecap="round"></path><path d="M 194.000,110.000 C 196.631,113.677 194.186,112.231 199.000,113.000" stroke-width="4.832" stroke="black" fill="none" stroke-linecap="round"></path><path d="M 199.000,113.000 C 203.412,109.381 203.631,111.677 208.000,106.000" stroke-width="3.704" stroke="black" fill="none" stroke-linecap="round"></path><path d="M 208.000,106.000 C 213.000,102.500 212.912,102.381 218.000,99.000" stroke-width="3.329" stroke="black" fill="none" stroke-linecap="round"></path><path d="M 218.000,99.000 C 222.971,95.457 223.000,95.500 228.000,92.000" stroke-width="3.231" stroke="black" fill="none" stroke-linecap="round"></path><path d="M 228.000,92.000 C 230.839,89.702 230.971,89.957 234.000,88.000" stroke-width="3.658" stroke="black" fill="none" stroke-linecap="round"></path><path d="M 234.000,88.000 C 239.722,83.977 237.339,86.202 241.000,85.000" stroke-width="4.267" stroke="black" fill="none" stroke-linecap="round"></path><path d="M 241.000,85.000 C 240.507,88.735 242.222,85.977 239.000,92.000" stroke-width="4.690" stroke="black" fill="none" stroke-linecap="round"></path><path d="M 239.000,92.000 C 236.785,94.875 237.507,95.235 235.000,98.000" stroke-width="4.197" stroke="black" fill="none" stroke-linecap="round"></path><path d="M 235.000,98.000 C 230.697,102.671 232.785,101.875 231.000,106.000" stroke-width="4.334" stroke="black" fill="none" stroke-linecap="round"></path><path d="M 231.000,106.000 C 234.933,106.866 231.197,108.171 236.000,109.000" stroke-width="4.981" stroke="black" fill="none" stroke-linecap="round"></path><path d="M 236.000,109.000 C 233.631,114.152 236.933,110.866 235.000,114.000" stroke-width="5.205" stroke="black" fill="none" stroke-linecap="round"></path><path d="M 235.000,114.000 C 240.384,111.517 238.131,113.652 245.000,108.000" stroke-width="5.005" stroke="black" fill="none" stroke-linecap="round"></path><path d="M 245.000,108.000 C 250.500,103.000 250.884,103.517 256.000,98.000" stroke-width="3.333" stroke="black" fill="none" stroke-linecap="round"></path><path d="M 256.000,98.000 C 261.749,93.251 261.500,93.000 267.000,88.000" stroke-width="3.030" stroke="black" fill="none" stroke-linecap="round"></path><path d="M 267.000,88.000 C 272.489,81.990 272.749,82.251 278.000,76.000" stroke-width="2.857" stroke="black" fill="none" stroke-linecap="round"></path><path d="M 278.000,76.000 C 284.158,69.639 283.989,69.490 290.000,63.000" stroke-width="2.896" stroke="black" fill="none" stroke-linecap="round"></path><path d="M 290.000,63.000 C 295.086,57.070 295.158,57.139 300.000,51.000" stroke-width="2.921" stroke="black" fill="none" stroke-linecap="round"></path><path d="M 300.000,51.000 C 303.580,46.560 303.586,46.570 307.000,42.000" stroke-width="3.219" stroke="black" fill="none" stroke-linecap="round"></path><path d="M 307.000,42.000 C 309.677,38.613 309.580,38.560 312.000,35.000" stroke-width="3.460" stroke="black" fill="none" stroke-linecap="round"></path><path d="M 312.000,35.000 C 317.124,27.625 314.177,31.613 316.000,28.000" stroke-width="4.184" stroke="black" fill="none" stroke-linecap="round"></path><path d="M 316.000,28.000 C 310.492,32.035 314.124,28.625 306.000,37.000" stroke-width="4.612" stroke="black" fill="none" stroke-linecap="round"></path><path d="M 306.000,37.000 C 301.757,43.209 300.992,42.535 297.000,49.000" stroke-width="3.341" stroke="black" fill="none" stroke-linecap="round"></path><path d="M 297.000,49.000 C 289.892,56.909 290.257,57.209 283.000,65.000" stroke-width="2.634" stroke="black" fill="none" stroke-linecap="round"></path><path d="M 283.000,65.000 C 278.379,70.405 278.392,70.409 274.000,76.000" stroke-width="2.921" stroke="black" fill="none" stroke-linecap="round"></path><path d="M 274.000,76.000 C 269.745,82.201 269.379,81.905 265.000,88.000" stroke-width="2.968" stroke="black" fill="none" stroke-linecap="round"></path><path d="M 265.000,88.000 C 260.469,92.972 260.745,93.201 256.000,98.000" stroke-width="3.188" stroke="black" fill="none" stroke-linecap="round"></path><path d="M 256.000,98.000 C 252.432,101.943 252.469,101.972 249.000,106.000" stroke-width="3.320" stroke="black" fill="none" stroke-linecap="round"></path><path d="M 249.000,106.000 C 246.832,108.383 246.932,108.443 245.000,111.000" stroke-width="3.821" stroke="black" fill="none" stroke-linecap="round"></path><path d="M 245.000,111.000 C 240.629,115.486 243.332,113.383 242.000,116.000" stroke-width="4.592" stroke="black" fill="none" stroke-linecap="round"></path><path d="M 242.000,116.000 C 247.601,115.350 244.629,116.986 253.000,114.000" stroke-width="4.584" stroke="black" fill="none" stroke-linecap="round"></path><path d="M 253.000,114.000 C 255.432,112.770 255.601,113.350 258.000,112.000" stroke-width="4.314" stroke="black" fill="none" stroke-linecap="round"></path><path d="M 258.000,112.000 C 260.486,111.419 260.432,111.270 263.000,111.000" stroke-width="4.323" stroke="black" fill="none" stroke-linecap="round"></path><path d="M 263.000,111.000 C 268.241,108.492 266.486,110.419 270.000,110.000" stroke-width="4.535" stroke="black" fill="none" stroke-linecap="round"></path><path d="M 270.000,110.000 C 272.010,114.655 271.741,111.492 270.000,117.000" stroke-width="4.912" stroke="black" fill="none" stroke-linecap="round"></path><path d="M 270.000,117.000 C 264.280,121.102 266.010,121.655 258.000,124.000" stroke-width="3.482" stroke="black" fill="none" stroke-linecap="round"></path><path d="M 258.000,124.000 C 251.142,126.991 251.280,127.102 244.000,129.000" stroke-width="3.065" stroke="black" fill="none" stroke-linecap="round"></path><path d="M 244.000,129.000 C 235.120,131.914 235.142,131.491 226.000,133.000" stroke-width="2.734" stroke="black" fill="none" stroke-linecap="round"></path><path d="M 226.000,133.000 C 214.005,133.750 214.120,134.414 202.000,134.000" stroke-width="2.499" stroke="black" fill="none" stroke-linecap="round"></path><path d="M 202.000,134.000 C 189.984,134.499 190.005,134.250 178.000,134.000" stroke-width="2.436" stroke="black" fill="none" stroke-linecap="round"></path><path d="M 178.000,134.000 C 153.865,133.493 153.984,132.999 130.000,131.000" stroke-width="2.361" stroke="black" fill="none" stroke-linecap="round"></path><path d="M 130.000,131.000 C 120.429,129.286 120.365,129.993 111.000,127.000" stroke-width="2.484" stroke="black" fill="none" stroke-linecap="round"></path><path d="M 111.000,127.000 C 103.929,125.217 103.929,125.286 97.000,123.000" stroke-width="2.790" stroke="black" fill="none" stroke-linecap="round"></path><path d="M 97.000,123.000 C 91.123,121.696 91.429,121.217 86.000,119.000" stroke-width="3.148" stroke="black" fill="none" stroke-linecap="round"></path><path d="M 86.000,119.000 C 81.322,116.599 81.623,116.696 78.000,113.000" stroke-width="3.414" stroke="black" fill="none" stroke-linecap="round"></path><path d="M 78.000,113.000 C 74.766,109.828 75.322,110.099 74.000,106.000" stroke-width="3.636" stroke="black" fill="none" stroke-linecap="round"></path><path d="M 74.000,106.000 C 72.308,99.043 72.766,99.828 74.000,93.000" stroke-width="3.310" stroke="black" fill="none" stroke-linecap="round"></path><path d="M 74.000,93.000 C 76.178,85.822 75.808,86.543 81.000,81.000" stroke-width="3.095" stroke="black" fill="none" stroke-linecap="round"></path><path d="M 81.000,81.000 C 90.261,72.264 89.678,72.322 101.000,66.000" stroke-width="2.405" stroke="black" fill="none" stroke-linecap="round"></path><path d="M 101.000,66.000 C 114.497,58.076 114.261,58.264 129.000,53.000" stroke-width="2.044" stroke="black" fill="none" stroke-linecap="round"></path><path d="M 129.000,53.000 C 144.886,48.471 144.497,47.576 161.000,45.000" stroke-width="2.003" stroke="black" fill="none" stroke-linecap="round"></path><path d="M 161.000,45.000 C 177.459,41.757 177.386,41.471 194.000,39.000" stroke-width="2.025" stroke="black" fill="none" stroke-linecap="round"></path><path d="M 194.000,39.000 C 210.428,35.841 210.459,36.257 227.000,34.000" stroke-width="1.987" stroke="black" fill="none" stroke-linecap="round"></path><path d="M 227.000,34.000 C 241.986,32.589 241.928,32.341 257.000,32.000" stroke-width="2.018" stroke="black" fill="none" stroke-linecap="round"></path><path d="M 257.000,32.000 C 267.500,32.000 267.486,31.589 278.000,32.000" stroke-width="2.291" stroke="black" fill="none" stroke-linecap="round"></path><path d="M 278.000,32.000 C 285.756,30.793 285.500,32.000 293.000,32.000" stroke-width="2.688" stroke="black" fill="none" stroke-linecap="round"></path><path d="M 293.000,32.000 C 298.909,32.909 297.756,32.793 302.000,36.000" stroke-width="3.245" stroke="black" fill="none" stroke-linecap="round"></path><path d="M 302.000,36.000 C 304.804,39.763 303.909,37.909 303.000,42.000" stroke-width="4.181" stroke="black" fill="none" stroke-linecap="round"></path><path d="M 303.000,42.000 C 291.614,57.062 292.304,55.263 277.000,67.000" stroke-width="2.173" stroke="black" fill="none" stroke-linecap="round"></path><path d="M 277.000,67.000 C 265.283,72.491 266.614,74.062 253.000,76.000" stroke-width="2.222" stroke="black" fill="none" stroke-linecap="round"></path><path d="M 253.000,76.000 C 240.567,78.906 240.783,79.491 228.000,81.000" stroke-width="2.242" stroke="black" fill="none" stroke-linecap="round"></path><path d="M 228.000,81.000 C 216.508,82.562 216.567,82.906 205.000,84.000" stroke-width="2.336" stroke="black" fill="none" stroke-linecap="round"></path><path d="M 205.000,84.000 C 196.506,85.055 196.508,85.062 188.000,86.000" stroke-width="2.591" stroke="black" fill="none" stroke-linecap="round"></path><path d="M 188.000,86.000 C 182.984,86.377 183.006,86.555 178.000,87.000" stroke-width="3.187" stroke="black" fill="none" stroke-linecap="round"></path><path d="M 178.000,87.000 C 171.460,88.900 174.984,87.377 172.000,88.000" stroke-width="3.801" stroke="black" fill="none" stroke-linecap="round"></path><path d="M 300.000,113.000 C 301.453,109.679 302.000,111.000 304.000,109.000" stroke-width="5.022" stroke="black" fill="none" stroke-linecap="round"></path><path d="M 304.000,109.000 C 309.609,109.829 308.953,107.679 315.000,109.000" stroke-width="3.707" stroke="black" fill="none" stroke-linecap="round"></path><path d="M 315.000,109.000 C 322.394,106.479 322.609,107.829 330.000,105.000" stroke-width="3.135" stroke="black" fill="none" stroke-linecap="round"></path><path d="M 330.000,105.000 C 340.533,103.697 340.394,102.979 351.000,102.000" stroke-width="2.596" stroke="black" fill="none" stroke-linecap="round"></path><path d="M 351.000,102.000 C 359.000,100.500 359.033,100.697 367.000,99.000" stroke-width="2.837" stroke="black" fill="none" stroke-linecap="round"></path><path d="M 367.000,99.000 C 374.953,97.150 375.000,97.500 383.000,96.000" stroke-width="2.803" stroke="black" fill="none" stroke-linecap="round"></path><path d="M 383.000,96.000 C 388.991,95.286 388.953,95.150 395.000,95.000" stroke-width="3.611" stroke="black" fill="none" stroke-linecap="round"></path><path d="M 395.000,95.000 C 400.202,93.539 399.491,94.786 404.000,95.000" stroke-width="3.795" stroke="black" fill="none" stroke-linecap="round"></path><path d="M 404.000,95.000 C 408.372,97.397 406.702,96.039 408.000,100.000" stroke-width="3.994" stroke="black" fill="none" stroke-linecap="round"></path><path d="M 408.000,100.000 C 405.509,104.951 407.372,104.397 402.000,109.000" stroke-width="3.588" stroke="black" fill="none" stroke-linecap="round"></path><path d="M 402.000,109.000 C 398.409,111.901 399.009,112.451 395.000,115.000" stroke-width="3.679" stroke="black" fill="none" stroke-linecap="round"></path><path d="M 395.000,115.000 C 389.190,119.286 392.909,116.901 391.000,119.000" stroke-width="4.399" stroke="black" fill="none" stroke-linecap="round"></path><path d="M 391.000,119.000 C 402.601,115.800 398.690,117.786 414.000,112.000" stroke-width="3.563" stroke="black" fill="none" stroke-linecap="round"></path><path d="M 414.000,112.000 C 423.335,107.929 423.601,108.800 433.000,105.000" stroke-width="2.802" stroke="black" fill="none" stroke-linecap="round"></path><path d="M 433.000,105.000 C 439.971,103.339 439.835,102.929 447.000,102.000" stroke-width="2.973" stroke="black" fill="none" stroke-linecap="round"></path><path d="M 447.000,102.000 C 453.731,101.000 450.471,101.339 454.000,101.000" stroke-width="3.609" stroke="black" fill="none" stroke-linecap="round"></path><path d="M 454.000,101.000 C 450.992,101.456 454.231,101.000 448.000,102.000" stroke-width="4.490" stroke="black" fill="none" stroke-linecap="round"></path><path d="M 448.000,102.000 C 440.058,103.911 439.992,103.456 432.000,105.000" stroke-width="3.146" stroke="black" fill="none" stroke-linecap="round"></path><path d="M 432.000,105.000 C 421.504,106.045 421.558,106.411 411.000,107.000" stroke-width="2.672" stroke="black" fill="none" stroke-linecap="round"></path><path d="M 411.000,107.000 C 399.525,108.573 399.504,108.045 388.000,109.000" stroke-width="2.402" stroke="black" fill="none" stroke-linecap="round"></path><path d="M 388.000,109.000 C 372.500,109.000 372.525,109.573 357.000,109.000" stroke-width="2.100" stroke="black" fill="none" stroke-linecap="round"></path><path d="M 357.000,109.000 C 342.483,108.501 342.500,109.000 328.000,109.000" stroke-width="2.085" stroke="black" fill="none" stroke-linecap="round"></path><path d="M 328.000,109.000 C 313.357,109.029 313.483,109.501 299.000,111.000" stroke-width="2.078" stroke="black" fill="none" stroke-linecap="round"></path><path d="M 299.000,111.000 C 287.804,112.838 287.857,112.529 277.000,116.000" stroke-width="2.305" stroke="black" fill="none" stroke-linecap="round"></path><path d="M 277.000,116.000 C 267.596,119.801 267.304,118.838 258.000,123.000" stroke-width="2.482" stroke="black" fill="none" stroke-linecap="round"></path></svg>