<svg xmlns="http://www.w3.org/2000/svg" xmlns:xlink="http://www.w3.org/1999/xlink" viewBox="0 0 1460 581" width="1460" height="581"><path d="M 364.500,147.000 C 361.020,149.869 361.500,150.250 358.500,153.500" stroke-width="5.136" stroke="black" fill="none" stroke-linecap="round"></path><path d="M 358.500,153.500 C 325.525,198.088 327.020,198.869 296.500,245.000" stroke-width="1.125" stroke="black" fill="none" stroke-linecap="round"></path><path d="M 296.500,245.000 C 284.286,268.644 282.525,267.588 272.500,292.500" stroke-width="1.272" stroke="black" fill="none" stroke-linecap="round"></path><path d="M 272.500,292.500 C 242.625,352.577 242.786,352.644 213.500,413.000" stroke-width="1.125" stroke="black" fill="none" stroke-linecap="round"></path><path d="M 213.500,413.000 C 209.230,422.140 209.125,422.077 205.500,431.500" stroke-width="1.462" stroke="black" fill="none" stroke-linecap="round"></path><path d="M 205.500,431.500 C 197.753,456.518 195.980,455.390 187.000,479.500" stroke-width="1.370" stroke="black" fill="none" stroke-linecap="round"></path><path d="M 187.000,479.500 C 183.813,483.171 185.003,483.768 180.000,486.000" stroke-width="2.394" stroke="black" fill="none" stroke-linecap="round"></path><path d="M 180.000,486.000 C 176.006,489.170 176.063,488.921 171.500,491.000" stroke-width="3.063" stroke="black" fill="none" stroke-linecap="round"></path><path d="M 171.500,491.000 C 167.682,492.642 168.006,492.420 164.000,492.500" stroke-width="3.592" stroke="black" fill="none" stroke-linecap="round"></path><path d="M 164.000,492.500 C 160.313,492.603 161.182,492.392 158.500,490.500" stroke-width="3.945" stroke="black" fill="none" stroke-linecap="round"></path><path d="M 158.500,490.500 C 154.029,484.503 154.063,485.353 151.500,478.000" stroke-width="3.206" stroke="black" fill="none" stroke-linecap="round"></path><path d="M 324.500,194.000 C 327.078,198.282 326.250,198.500 328.000,203.000" stroke-width="4.204" stroke="black" fill="none" stroke-linecap="round"></path><path d="M 328.000,203.000 C 330.615,220.234 331.328,220.032 333.000,237.500" stroke-width="2.289" stroke="black" fill="none" stroke-linecap="round"></path><path d="M 333.000,237.500 C 336.333,258.192 335.865,258.234 338.500,279.000" stroke-width="1.780" stroke="black" fill="none" stroke-linecap="round"></path><path d="M 338.500,279.000 C 336.992,294.749 340.083,294.192 340.500,309.500" stroke-width="1.884" stroke="black" fill="none" stroke-linecap="round"></path><path d="M 340.500,309.500 C 347.113,336.371 346.742,335.749 358.000,361.000" stroke-width="1.467" stroke="black" fill="none" stroke-linecap="round"></path><path d="M 358.000,361.000 C 364.502,369.748 362.363,370.871 371.000,378.500" stroke-width="2.152" stroke="black" fill="none" stroke-linecap="round"></path><path d="M 371.000,378.500 C 376.271,386.703 376.752,386.248 382.500,394.000" stroke-width="2.359" stroke="black" fill="none" stroke-linecap="round"></path><path d="M 432.000,357.500 C 423.705,353.936 423.500,355.000 415.000,352.500" stroke-width="5.036" stroke="black" fill="none" stroke-linecap="round"></path><path d="M 415.000,352.500 C 399.294,350.298 399.455,349.936 383.500,349.500" stroke-width="2.406" stroke="black" fill="none" stroke-linecap="round"></path><path d="M 383.500,349.500 C 349.756,348.087 349.794,347.798 316.000,347.500" stroke-width="1.345" stroke="black" fill="none" stroke-linecap="round"></path><path d="M 316.000,347.500 C 292.247,347.765 292.256,347.087 268.500,347.500" stroke-width="1.438" stroke="black" fill="none" stroke-linecap="round"></path><path d="M 268.500,347.500 C 247.502,346.841 247.497,347.265 226.500,346.500" stroke-width="1.467" stroke="black" fill="none" stroke-linecap="round"></path><path d="M 226.500,346.500 C 216.750,346.500 216.752,346.341 207.000,346.500" stroke-width="2.156" stroke="black" fill="none" stroke-linecap="round"></path><path d="M 207.000,346.500 C 203.250,346.500 203.250,346.500 199.500,346.500" stroke-width="3.107" stroke="black" fill="none" stroke-linecap="round"></path><path d="M 390.000,208.500 C 386.800,207.100 386.750,207.250 383.500,206.000" stroke-width="4.737" stroke="black" fill="none" stroke-linecap="round"></path><path d="M 383.500,206.000 C 379.997,205.009 380.050,204.850 376.500,204.000" stroke-width="4.148" stroke="black" fill="none" stroke-linecap="round"></path><path d="M 376.500,204.000 C 367.236,200.049 366.997,201.259 357.500,198.500" stroke-width="2.928" stroke="black" fill="none" stroke-linecap="round"></path><path d="M 357.500,198.500 C 334.060,194.870 334.236,194.799 310.500,193.500" stroke-width="1.682" stroke="black" fill="none" stroke-linecap="round"></path><path d="M 310.500,193.500 C 290.697,190.892 291.060,192.370 271.500,193.500" stroke-width="1.700" stroke="black" fill="none" stroke-linecap="round"></path><path d="M 271.500,193.500 C 244.090,197.315 244.697,197.142 218.500,206.000" stroke-width="1.476" stroke="black" fill="none" stroke-linecap="round"></path><path d="M 218.500,206.000 C 203.352,213.064 202.840,211.315 189.000,221.500" stroke-width="1.704" stroke="black" fill="none" stroke-linecap="round"></path><path d="M 189.000,221.500 C 170.369,232.168 170.602,232.314 153.000,244.500" stroke-width="1.631" stroke="black" fill="none" stroke-linecap="round"></path><path d="M 153.000,244.500 C 144.567,249.613 145.369,249.918 139.000,257.000" stroke-width="2.318" stroke="black" fill="none" stroke-linecap="round"></path><path d="M 139.000,257.000 C 130.849,267.320 131.567,266.863 127.000,279.000" stroke-width="2.228" stroke="black" fill="none" stroke-linecap="round"></path><path d="M 127.000,279.000 C 124.762,289.981 123.599,289.320 124.500,301.000" stroke-width="2.374" stroke="black" fill="none" stroke-linecap="round"></path><path d="M 124.500,301.000 C 121.679,312.229 124.262,310.981 126.000,321.000" stroke-width="2.515" stroke="black" fill="none" stroke-linecap="round"></path><path d="M 126.000,321.000 C 140.135,346.627 138.429,346.229 158.000,369.000" stroke-width="1.501" stroke="black" fill="none" stroke-linecap="round"></path><path d="M 158.000,369.000 C 168.055,379.372 166.885,380.127 179.500,388.000" stroke-width="1.827" stroke="black" fill="none" stroke-linecap="round"></path><path d="M 179.500,388.000 C 214.982,419.870 216.805,416.122 255.500,442.500" stroke-width="1.125" stroke="black" fill="none" stroke-linecap="round"></path><path d="M 255.500,442.500 C 290.939,463.522 289.732,461.620 329.000,471.500" stroke-width="1.125" stroke="black" fill="none" stroke-linecap="round"></path><path d="M 329.000,471.500 C 365.178,474.528 363.689,478.772 401.000,473.000" stroke-width="1.125" stroke="black" fill="none" stroke-linecap="round"></path><path d="M 401.000,473.000 C 420.109,474.791 417.928,472.278 434.500,467.000" stroke-width="1.459" stroke="black" fill="none" stroke-linecap="round"></path><path d="M 434.500,467.000 C 451.686,452.693 453.359,456.791 467.500,437.000" stroke-width="1.523" stroke="black" fill="none" stroke-linecap="round"></path><path d="M 467.500,437.000 C 484.653,420.677 484.186,420.443 499.500,402.500" stroke-width="1.502" stroke="black" fill="none" stroke-linecap="round"></path><path d="M 499.500,402.500 C 510.695,387.294 511.403,387.927 521.000,371.500" stroke-width="1.619" stroke="black" fill="none" stroke-linecap="round"></path><path d="M 521.000,371.500 C 536.536,345.681 537.445,346.294 553.000,320.500" stroke-width="1.285" stroke="black" fill="none" stroke-linecap="round"></path><path d="M 553.000,320.500 C 559.813,314.344 557.786,313.181 563.500,306.500" stroke-width="2.058" stroke="black" fill="none" stroke-linecap="round"></path><path d="M 563.500,306.500 C 571.466,288.849 571.563,289.344 576.500,270.500" stroke-width="1.761" stroke="black" fill="none" stroke-linecap="round"></path><path d="M 576.500,270.500 C 579.000,260.288 579.216,260.599 579.000,250.000" stroke-width="2.242" stroke="black" fill="none" stroke-linecap="round"></path><path d="M 579.000,250.000 C 579.733,229.175 579.000,229.538 576.500,209.000" stroke-width="1.669" stroke="black" fill="none" stroke-linecap="round"></path><path d="M 576.500,209.000 C 572.739,189.938 573.483,190.175 566.500,172.000" stroke-width="1.660" stroke="black" fill="none" stroke-linecap="round"></path><path d="M 566.500,172.000 C 563.918,167.166 564.739,166.938 560.500,163.000" stroke-width="2.602" stroke="black" fill="none" stroke-linecap="round"></path><path d="M 560.500,163.000 C 556.517,155.508 555.918,157.416 550.500,152.500" stroke-width="2.837" stroke="black" fill="none" stroke-linecap="round"></path><path d="M 450.000,384.000 C 455.327,379.349 455.750,380.250 461.500,376.500" stroke-width="4.718" stroke="black" fill="none" stroke-linecap="round"></path><path d="M 461.500,376.500 C 468.526,373.089 468.327,373.349 476.000,372.000" stroke-width="3.343" stroke="black" fill="none" stroke-linecap="round"></path><path d="M 476.000,372.000 C 494.463,369.830 494.276,369.339 513.000,369.000" stroke-width="1.988" stroke="black" fill="none" stroke-linecap="round"></path><path d="M 513.000,369.000 C 561.494,367.270 561.463,366.830 610.000,366.000" stroke-width="1.125" stroke="black" fill="none" stroke-linecap="round"></path><path d="M 610.000,366.000 C 657.006,365.249 656.994,364.770 704.000,364.000" stroke-width="1.125" stroke="black" fill="none" stroke-linecap="round"></path><path d="M 704.000,364.000 C 760.613,364.024 760.506,362.499 817.000,360.500" stroke-width="1.125" stroke="black" fill="none" stroke-linecap="round"></path><path d="M 817.000,360.500 C 869.052,358.890 868.613,357.274 920.000,350.500" stroke-width="1.125" stroke="black" fill="none" stroke-linecap="round"></path><path d="M 920.000,350.500 C 973.286,338.403 973.802,341.640 1026.500,326.000" stroke-width="1.125" stroke="black" fill="none" stroke-linecap="round"></path><path d="M 1026.500,326.000 C 1039.665,322.357 1039.786,322.903 1053.000,319.500" stroke-width="1.342" stroke="black" fill="none" stroke-linecap="round"></path><path d="M 1053.000,319.500 C 1067.696,316.382 1067.665,316.357 1082.500,314.000" stroke-width="1.720" stroke="black" fill="none" stroke-linecap="round"></path><path d="M 1082.500,314.000 C 1089.487,313.001 1089.446,312.882 1096.500,312.500" stroke-width="2.449" stroke="black" fill="none" stroke-linecap="round"></path><path d="M 1096.500,312.500 C 1100.000,312.500 1099.987,312.251 1103.500,312.500" stroke-width="3.353" stroke="black" fill="none" stroke-linecap="round"></path><path d="M 1103.500,312.500 C 1107.000,312.500 1107.000,312.500 1110.500,312.500" stroke-width="3.726" stroke="black" fill="none" stroke-linecap="round"></path><path d="M 1110.500,312.500 C 1113.757,312.313 1113.750,312.500 1117.000,312.500" stroke-width="4.509" stroke="black" fill="none" stroke-linecap="round"></path><path d="M 1117.000,312.500 C 1127.006,312.325 1126.757,313.063 1136.500,314.000" stroke-width="2.915" stroke="black" fill="none" stroke-linecap="round"></path><path d="M 1136.500,314.000 C 1139.405,317.377 1139.756,314.575 1142.500,317.000" stroke-width="3.617" stroke="black" fill="none" stroke-linecap="round"></path><path d="M 1142.500,317.000 C 1149.718,314.161 1149.655,316.127 1157.000,311.500" stroke-width="4.653" stroke="black" fill="none" stroke-linecap="round"></path><path d="M 1157.000,311.500 C 1162.535,308.666 1162.718,309.411 1168.500,307.500" stroke-width="3.662" stroke="black" fill="none" stroke-linecap="round"></path><path d="M 1168.500,307.500 C 1206.090,296.279 1206.035,300.166 1244.000,294.500" stroke-width="1.247" stroke="black" fill="none" stroke-linecap="round"></path><path d="M 1244.000,294.500 C 1276.098,295.000 1275.340,293.029 1307.000,301.000" stroke-width="1.166" stroke="black" fill="none" stroke-linecap="round"></path><path d="M 1307.000,301.000 C 1327.603,306.462 1327.598,305.000 1347.000,314.500" stroke-width="1.448" stroke="black" fill="none" stroke-linecap="round"></path><path d="M 1347.000,314.500 C 1354.803,319.167 1355.353,317.962 1362.500,324.000" stroke-width="2.152" stroke="black" fill="none" stroke-linecap="round"></path><path d="M 1362.500,324.000 C 1370.692,327.626 1365.553,325.917 1368.500,328.000" stroke-width="3.158" stroke="black" fill="none" stroke-linecap="round"></path><path d="M 1368.500,328.000 C 1355.250,327.752 1360.442,329.376 1342.000,327.500" stroke-width="4.241" stroke="black" fill="none" stroke-linecap="round"></path><path d="M 1342.000,327.500 C 1315.752,326.790 1315.750,327.002 1289.500,326.500" stroke-width="1.657" stroke="black" fill="none" stroke-linecap="round"></path><path d="M 1289.500,326.500 C 1270.471,325.577 1270.502,326.290 1251.500,326.500" stroke-width="1.664" stroke="black" fill="none" stroke-linecap="round"></path><path d="M 1251.500,326.500 C 1188.275,331.025 1188.221,329.577 1125.000,334.500" stroke-width="1.125" stroke="black" fill="none" stroke-linecap="round"></path><path d="M 1125.000,334.500 C 1101.757,335.690 1101.775,335.775 1078.500,336.000" stroke-width="1.220" stroke="black" fill="none" stroke-linecap="round"></path><path d="M 1078.500,336.000 C 1045.494,335.499 1045.507,336.440 1012.500,336.000" stroke-width="1.132" stroke="black" fill="none" stroke-linecap="round"></path><path d="M 1012.500,336.000 C 963.140,335.884 963.244,336.749 914.000,338.500" stroke-width="1.125" stroke="black" fill="none" stroke-linecap="round"></path><path d="M 914.000,338.500 C 897.570,341.587 897.390,339.384 881.000,343.000" stroke-width="1.399" stroke="black" fill="none" stroke-linecap="round"></path><path d="M 881.000,343.000 C 865.252,343.611 865.320,344.337 849.500,344.000" stroke-width="1.755" stroke="black" fill="none" stroke-linecap="round"></path></svg>