<svg xmlns="http://www.w3.org/2000/svg" xmlns:xlink="http://www.w3.org/1999/xlink" viewBox="0 0 1460 576" width="1460" height="576"><path d="M 560.000,360.000 C 557.424,358.616 557.500,358.500 555.000,357.000" stroke-width="5.454" stroke="black" fill="none" stroke-linecap="round"></path><path d="M 555.000,357.000 C 550.862,355.100 551.424,354.616 548.000,352.000" stroke-width="4.741" stroke="black" fill="none" stroke-linecap="round"></path><path d="M 548.000,352.000 C 542.839,348.338 544.862,348.600 543.000,344.000" stroke-width="3.894" stroke="black" fill="none" stroke-linecap="round"></path><path d="M 543.000,344.000 C 545.049,333.980 543.339,334.838 549.000,325.000" stroke-width="2.805" stroke="black" fill="none" stroke-linecap="round"></path><path d="M 549.000,325.000 C 550.599,320.752 550.549,321.480 554.000,319.000" stroke-width="3.834" stroke="black" fill="none" stroke-linecap="round"></path><path d="M 554.000,319.000 C 567.810,312.854 567.099,312.252 582.000,308.000" stroke-width="2.365" stroke="black" fill="none" stroke-linecap="round"></path><path d="M 582.000,308.000 C 586.944,306.562 586.810,306.354 592.000,306.000" stroke-width="3.068" stroke="black" fill="none" stroke-linecap="round"></path><path d="M 592.000,306.000 C 600.505,305.000 600.444,305.062 609.000,305.000" stroke-width="2.883" stroke="black" fill="none" stroke-linecap="round"></path><path d="M 609.000,305.000 C 616.378,303.591 615.505,305.000 622.000,306.000" stroke-width="3.031" stroke="black" fill="none" stroke-linecap="round"></path><path d="M 622.000,306.000 C 627.895,309.025 626.878,308.091 630.000,314.000" stroke-width="3.361" stroke="black" fill="none" stroke-linecap="round"></path><path d="M 630.000,314.000 C 633.295,323.141 633.395,322.025 633.000,332.000" stroke-width="2.942" stroke="black" fill="none" stroke-linecap="round"></path><path d="M 633.000,332.000 C 631.695,338.340 632.795,338.141 629.000,344.000" stroke-width="3.079" stroke="black" fill="none" stroke-linecap="round"></path><path d="M 629.000,344.000 C 622.311,353.000 626.695,348.840 623.000,353.000" stroke-width="3.807" stroke="black" fill="none" stroke-linecap="round"></path><path d="M 623.000,353.000 C 627.970,348.912 623.811,353.000 632.000,344.000" stroke-width="4.003" stroke="black" fill="none" stroke-linecap="round"></path><path d="M 632.000,344.000 C 641.059,326.287 643.970,329.412 655.000,314.000" stroke-width="2.170" stroke="black" fill="none" stroke-linecap="round"></path><path d="M 655.000,314.000 C 672.192,301.404 670.559,300.287 691.000,292.000" stroke-width="1.693" stroke="black" fill="none" stroke-linecap="round"></path><path d="M 691.000,292.000 C 712.752,282.302 712.192,281.404 735.000,274.000" stroke-width="1.586" stroke="black" fill="none" stroke-linecap="round"></path><path d="M 735.000,274.000 C 746.317,269.272 746.252,269.802 758.000,267.000" stroke-width="1.998" stroke="black" fill="none" stroke-linecap="round"></path><path d="M 758.000,267.000 C 764.694,266.054 764.317,265.772 771.000,267.000" stroke-width="2.662" stroke="black" fill="none" stroke-linecap="round"></path><path d="M 771.000,267.000 C 774.511,268.474 774.694,267.554 778.000,270.000" stroke-width="3.414" stroke="black" fill="none" stroke-linecap="round"></path><path d="M 778.000,270.000 C 782.670,271.691 782.511,271.974 787.000,274.000" stroke-width="3.401" stroke="black" fill="none" stroke-linecap="round"></path><path d="M 787.000,274.000 C 789.654,276.731 790.170,275.691 793.000,278.000" stroke-width="3.767" stroke="black" fill="none" stroke-linecap="round"></path><path d="M 793.000,278.000 C 805.339,280.003 804.154,282.231 816.000,285.000" stroke-width="3.424" stroke="black" fill="none" stroke-linecap="round"></path><path d="M 816.000,285.000 C 822.058,288.021 821.339,287.503 825.000,293.000" stroke-width="3.271" stroke="black" fill="none" stroke-linecap="round"></path><path d="M 825.000,293.000 C 830.527,300.280 828.558,299.021 829.000,307.000" stroke-width="3.098" stroke="black" fill="none" stroke-linecap="round"></path><path d="M 829.000,307.000 C 816.955,326.050 825.527,322.280 815.000,337.000" stroke-width="2.889" stroke="black" fill="none" stroke-linecap="round"></path><path d="M 815.000,337.000 C 819.618,336.384 814.455,340.050 824.000,335.000" stroke-width="4.260" stroke="black" fill="none" stroke-linecap="round"></path><path d="M 824.000,335.000 C 828.773,332.267 829.118,333.384 834.000,331.000" stroke-width="3.654" stroke="black" fill="none" stroke-linecap="round"></path><path d="M 834.000,331.000 C 878.591,321.388 878.273,320.267 923.000,311.000" stroke-width="1.125" stroke="black" fill="none" stroke-linecap="round"></path><path d="M 923.000,311.000 C 963.545,297.497 964.091,301.388 1005.000,291.000" stroke-width="1.125" stroke="black" fill="none" stroke-linecap="round"></path><path d="M 1005.000,291.000 C 1031.123,288.753 1030.545,286.997 1057.000,290.000" stroke-width="1.199" stroke="black" fill="none" stroke-linecap="round"></path><path d="M 1057.000,290.000 C 1072.437,293.019 1072.623,290.753 1088.000,295.000" stroke-width="1.654" stroke="black" fill="none" stroke-linecap="round"></path><path d="M 1088.000,295.000 C 1099.998,296.027 1099.937,296.519 1112.000,297.000" stroke-width="2.074" stroke="black" fill="none" stroke-linecap="round"></path><path d="M 1112.000,297.000 C 1118.502,297.480 1118.498,297.527 1125.000,298.000" stroke-width="2.699" stroke="black" fill="none" stroke-linecap="round"></path><path d="M 1125.000,298.000 C 1133.829,294.820 1131.002,298.480 1137.000,299.000" stroke-width="3.037" stroke="black" fill="none" stroke-linecap="round"></path><path d="M 1137.000,299.000 C 1146.717,313.146 1144.829,309.320 1147.000,327.000" stroke-width="3.190" stroke="black" fill="none" stroke-linecap="round"></path><path d="M 1147.000,327.000 C 1142.975,337.739 1147.217,337.646 1138.000,348.000" stroke-width="2.524" stroke="black" fill="none" stroke-linecap="round"></path><path d="M 1138.000,348.000 C 1134.621,354.075 1134.975,354.239 1131.000,360.000" stroke-width="2.899" stroke="black" fill="none" stroke-linecap="round"></path><path d="M 1131.000,360.000 C 1125.367,365.837 1129.121,363.075 1127.000,366.000" stroke-width="3.932" stroke="black" fill="none" stroke-linecap="round"></path><path d="M 1127.000,366.000 C 1134.165,363.905 1130.367,366.337 1141.000,361.000" stroke-width="3.161" stroke="black" fill="none" stroke-linecap="round"></path><path d="M 1141.000,361.000 C 1154.011,355.024 1154.165,355.405 1167.000,349.000" stroke-width="2.262" stroke="black" fill="none" stroke-linecap="round"></path><path d="M 1167.000,349.000 C 1188.302,338.517 1188.511,339.024 1210.000,329.000" stroke-width="2.322" stroke="black" fill="none" stroke-linecap="round"></path><path d="M 1210.000,329.000 C 1217.026,326.569 1216.802,326.017 1224.000,324.000" stroke-width="2.806" stroke="black" fill="none" stroke-linecap="round"></path><path d="M 1224.000,324.000 C 1226.471,322.920 1226.526,323.069 1229.000,322.000" stroke-width="3.660" stroke="black" fill="none" stroke-linecap="round"></path><path d="M 1229.000,322.000 C 1231.985,320.952 1231.971,320.920 1235.000,320.000" stroke-width="4.100" stroke="black" fill="none" stroke-linecap="round"></path><path d="M 1235.000,320.000 C 1241.444,317.788 1241.485,317.952 1248.000,316.000" stroke-width="3.992" stroke="black" fill="none" stroke-linecap="round"></path><path d="M 1248.000,316.000 C 1252.473,314.000 1252.444,314.788 1257.000,314.000" stroke-width="3.744" stroke="black" fill="none" stroke-linecap="round"></path><path d="M 1257.000,314.000 C 1262.973,315.330 1262.973,314.000 1269.000,316.000" stroke-width="3.406" stroke="black" fill="none" stroke-linecap="round"></path><path d="M 1269.000,316.000 C 1275.730,315.453 1271.973,316.330 1275.000,316.000" stroke-width="4.240" stroke="black" fill="none" stroke-linecap="round"></path><path d="M 1275.000,316.000 C 1270.086,317.852 1273.730,316.953 1265.000,319.000" stroke-width="3.618" stroke="black" fill="none" stroke-linecap="round"></path><path d="M 1265.000,319.000 C 1254.597,321.659 1254.586,321.352 1244.000,323.000" stroke-width="2.748" stroke="black" fill="none" stroke-linecap="round"></path><path d="M 1244.000,323.000 C 1215.060,327.165 1215.097,326.659 1186.000,329.000" stroke-width="1.394" stroke="black" fill="none" stroke-linecap="round"></path><path d="M 1186.000,329.000 C 1167.423,329.987 1167.560,330.165 1149.000,329.000" stroke-width="2.068" stroke="black" fill="none" stroke-linecap="round"></path><path d="M 1149.000,329.000 C 1139.477,327.634 1139.423,328.487 1130.000,326.000" stroke-width="2.528" stroke="black" fill="none" stroke-linecap="round"></path><path d="M 1130.000,326.000 C 1110.591,321.910 1110.477,322.634 1091.000,319.000" stroke-width="1.814" stroke="black" fill="none" stroke-linecap="round"></path><path d="M 1091.000,319.000 C 1060.090,314.131 1060.091,314.410 1029.000,311.000" stroke-width="1.289" stroke="black" fill="none" stroke-linecap="round"></path><path d="M 1029.000,311.000 C 990.540,307.384 990.590,307.131 952.000,305.000" stroke-width="1.125" stroke="black" fill="none" stroke-linecap="round"></path><path d="M 952.000,305.000 C 893.527,301.251 893.540,301.384 835.000,299.000" stroke-width="1.125" stroke="black" fill="none" stroke-linecap="round"></path><path d="M 835.000,299.000 C 789.479,296.015 789.527,297.251 744.000,297.000" stroke-width="1.125" stroke="black" fill="none" stroke-linecap="round"></path><path d="M 744.000,297.000 C 650.309,296.174 650.979,299.015 558.000,305.000" stroke-width="1.125" stroke="black" fill="none" stroke-linecap="round"></path><path d="M 558.000,305.000 C 525.585,313.374 524.809,308.174 493.000,321.000" stroke-width="1.125" stroke="black" fill="none" stroke-linecap="round"></path><path d="M 493.000,321.000 C 478.656,325.116 478.585,324.374 464.000,327.000" stroke-width="1.603" stroke="black" fill="none" stroke-linecap="round"></path><path d="M 464.000,327.000 C 443.531,329.352 443.656,329.616 423.000,330.000" stroke-width="1.584" stroke="black" fill="none" stroke-linecap="round"></path><path d="M 423.000,330.000 C 395.978,329.350 396.031,330.852 369.000,330.000" stroke-width="1.410" stroke="black" fill="none" stroke-linecap="round"></path><path d="M 369.000,330.000 C 354.502,331.033 354.478,330.350 340.000,332.000" stroke-width="1.775" stroke="black" fill="none" stroke-linecap="round"></path><path d="M 340.000,332.000 C 324.508,333.262 324.502,333.033 309.000,334.000" stroke-width="1.869" stroke="black" fill="none" stroke-linecap="round"></path><path d="M 309.000,334.000 C 300.864,336.864 303.508,334.262 298.000,334.000" stroke-width="3.063" stroke="black" fill="none" stroke-linecap="round"></path></svg>