<svg xmlns="http://www.w3.org/2000/svg" xmlns:xlink="http://www.w3.org/1999/xlink" viewBox="0 0 1460 576" width="1460" height="576"><path d="M 477.000,327.000 C 470.006,327.682 470.000,327.500 463.000,328.000" stroke-width="4.785" stroke="black" fill="none" stroke-linecap="round"></path><path d="M 463.000,328.000 C 458.868,328.725 459.006,328.182 455.000,328.000" stroke-width="4.070" stroke="black" fill="none" stroke-linecap="round"></path><path d="M 455.000,328.000 C 448.503,328.341 450.868,327.225 447.000,325.000" stroke-width="3.779" stroke="black" fill="none" stroke-linecap="round"></path><path d="M 447.000,325.000 C 442.835,315.384 444.003,318.341 446.000,308.000" stroke-width="3.044" stroke="black" fill="none" stroke-linecap="round"></path><path d="M 446.000,308.000 C 453.738,293.829 451.835,294.384 465.000,283.000" stroke-width="2.208" stroke="black" fill="none" stroke-linecap="round"></path><path d="M 465.000,283.000 C 492.365,254.525 492.738,256.329 524.000,233.000" stroke-width="1.210" stroke="black" fill="none" stroke-linecap="round"></path><path d="M 524.000,233.000 C 542.055,220.989 540.865,221.525 562.000,217.000" stroke-width="1.443" stroke="black" fill="none" stroke-linecap="round"></path><path d="M 562.000,217.000 C 593.131,211.926 592.055,210.989 624.000,213.000" stroke-width="1.270" stroke="black" fill="none" stroke-linecap="round"></path><path d="M 624.000,213.000 C 650.930,215.363 650.631,213.926 677.000,221.000" stroke-width="1.328" stroke="black" fill="none" stroke-linecap="round"></path><path d="M 677.000,221.000 C 688.559,223.466 687.930,223.363 698.000,229.000" stroke-width="1.942" stroke="black" fill="none" stroke-linecap="round"></path><path d="M 698.000,229.000 C 703.547,232.822 703.059,231.966 706.000,238.000" stroke-width="2.684" stroke="black" fill="none" stroke-linecap="round"></path><path d="M 706.000,238.000 C 708.605,243.587 708.047,242.322 707.000,248.000" stroke-width="3.181" stroke="black" fill="none" stroke-linecap="round"></path><path d="M 707.000,248.000 C 703.288,254.712 704.605,254.587 698.000,260.000" stroke-width="3.101" stroke="black" fill="none" stroke-linecap="round"></path><path d="M 698.000,260.000 C 678.614,278.130 679.288,278.712 659.000,296.000" stroke-width="1.640" stroke="black" fill="none" stroke-linecap="round"></path><path d="M 659.000,296.000 C 651.170,301.141 656.114,298.630 653.000,301.000" stroke-width="2.717" stroke="black" fill="none" stroke-linecap="round"></path><path d="M 653.000,301.000 C 662.637,298.396 657.670,300.641 672.000,295.000" stroke-width="3.539" stroke="black" fill="none" stroke-linecap="round"></path><path d="M 672.000,295.000 C 707.178,277.534 708.137,281.896 744.000,268.000" stroke-width="1.239" stroke="black" fill="none" stroke-linecap="round"></path><path d="M 744.000,268.000 C 764.142,265.315 763.178,263.034 784.000,266.000" stroke-width="1.624" stroke="black" fill="none" stroke-linecap="round"></path><path d="M 784.000,266.000 C 793.355,266.882 793.142,266.315 802.000,270.000" stroke-width="2.209" stroke="black" fill="none" stroke-linecap="round"></path><path d="M 802.000,270.000 C 823.845,278.289 823.855,277.882 845.000,288.000" stroke-width="1.663" stroke="black" fill="none" stroke-linecap="round"></path><path d="M 845.000,288.000 C 854.183,292.710 854.345,292.289 863.000,298.000" stroke-width="2.195" stroke="black" fill="none" stroke-linecap="round"></path><path d="M 863.000,298.000 C 866.855,300.117 866.683,300.210 870.000,303.000" stroke-width="3.085" stroke="black" fill="none" stroke-linecap="round"></path><path d="M 870.000,303.000 C 874.740,305.880 872.855,305.617 875.000,309.000" stroke-width="3.982" stroke="black" fill="none" stroke-linecap="round"></path><path d="M 875.000,309.000 C 873.599,312.575 875.240,311.880 871.000,315.000" stroke-width="3.959" stroke="black" fill="none" stroke-linecap="round"></path><path d="M 871.000,315.000 C 859.492,321.475 866.099,319.575 860.000,323.000" stroke-width="3.336" stroke="black" fill="none" stroke-linecap="round"></path><path d="M 860.000,323.000 C 866.481,321.850 860.492,324.475 873.000,321.000" stroke-width="4.440" stroke="black" fill="none" stroke-linecap="round"></path><path d="M 873.000,321.000 C 878.025,320.704 877.981,320.350 883.000,320.000" stroke-width="3.765" stroke="black" fill="none" stroke-linecap="round"></path><path d="M 883.000,320.000 C 927.224,310.582 927.525,313.704 972.000,307.000" stroke-width="1.125" stroke="black" fill="none" stroke-linecap="round"></path><path d="M 972.000,307.000 C 1052.581,300.359 1052.224,300.582 1133.000,300.000" stroke-width="1.125" stroke="black" fill="none" stroke-linecap="round"></path><path d="M 1133.000,300.000 C 1164.497,303.032 1164.581,299.859 1196.000,306.000" stroke-width="1.125" stroke="black" fill="none" stroke-linecap="round"></path><path d="M 1196.000,306.000 C 1233.518,309.333 1233.497,309.532 1271.000,313.000" stroke-width="1.125" stroke="black" fill="none" stroke-linecap="round"></path><path d="M 1271.000,313.000 C 1279.560,313.639 1279.518,313.833 1288.000,315.000" stroke-width="1.760" stroke="black" fill="none" stroke-linecap="round"></path><path d="M 1288.000,315.000 C 1294.982,316.596 1295.060,316.139 1302.000,318.000" stroke-width="2.502" stroke="black" fill="none" stroke-linecap="round"></path><path d="M 1302.000,318.000 C 1304.994,318.538 1304.982,318.596 1308.000,319.000" stroke-width="3.392" stroke="black" fill="none" stroke-linecap="round"></path><path d="M 1308.000,319.000 C 1311.500,319.500 1311.494,319.538 1315.000,320.000" stroke-width="3.733" stroke="black" fill="none" stroke-linecap="round"></path><path d="M 1315.000,320.000 C 1323.462,320.561 1318.500,320.500 1322.000,321.000" stroke-width="3.898" stroke="black" fill="none" stroke-linecap="round"></path><path d="M 1322.000,321.000 C 1313.547,322.806 1318.462,322.061 1305.000,323.000" stroke-width="4.313" stroke="black" fill="none" stroke-linecap="round"></path><path d="M 1305.000,323.000 C 1269.498,322.752 1269.547,323.806 1234.000,323.000" stroke-width="1.401" stroke="black" fill="none" stroke-linecap="round"></path><path d="M 1234.000,323.000 C 1197.972,324.877 1197.998,323.252 1162.000,324.000" stroke-width="1.125" stroke="black" fill="none" stroke-linecap="round"></path><path d="M 1162.000,324.000 C 1116.031,320.678 1115.972,322.877 1070.000,319.000" stroke-width="1.125" stroke="black" fill="none" stroke-linecap="round"></path><path d="M 1070.000,319.000 C 1020.005,317.538 1020.031,317.178 970.000,317.000" stroke-width="1.125" stroke="black" fill="none" stroke-linecap="round"></path><path d="M 970.000,317.000 C 926.952,315.632 927.005,316.538 884.000,317.000" stroke-width="1.125" stroke="black" fill="none" stroke-linecap="round"></path><path d="M 884.000,317.000 C 848.502,319.523 848.452,318.132 813.000,322.000" stroke-width="1.125" stroke="black" fill="none" stroke-linecap="round"></path><path d="M 813.000,322.000 C 783.981,323.771 784.002,324.023 755.000,326.000" stroke-width="1.147" stroke="black" fill="none" stroke-linecap="round"></path><path d="M 755.000,326.000 C 745.017,327.229 744.981,326.771 735.000,328.000" stroke-width="1.876" stroke="black" fill="none" stroke-linecap="round"></path><path d="M 735.000,328.000 C 725.478,329.000 725.517,328.729 716.000,329.000" stroke-width="2.361" stroke="black" fill="none" stroke-linecap="round"></path><path d="M 716.000,329.000 C 712.445,328.766 712.478,329.000 709.000,328.000" stroke-width="3.262" stroke="black" fill="none" stroke-linecap="round"></path><path d="M 709.000,328.000 C 703.543,326.304 703.445,326.766 698.000,325.000" stroke-width="3.278" stroke="black" fill="none" stroke-linecap="round"></path><path d="M 698.000,325.000 C 694.992,324.544 695.043,324.304 692.000,324.000" stroke-width="3.798" stroke="black" fill="none" stroke-linecap="round"></path><path d="M 692.000,324.000 C 689.527,323.230 689.492,323.544 687.000,323.000" stroke-width="4.223" stroke="black" fill="none" stroke-linecap="round"></path></svg>