<svg xmlns="http://www.w3.org/2000/svg" xmlns:xlink="http://www.w3.org/1999/xlink" viewBox="0 0 1460 576" width="1460" height="576"><path d="M 411.000,144.000 C 411.762,148.485 411.500,148.500 412.000,153.000" stroke-width="5.277" stroke="black" fill="none" stroke-linecap="round"></path><path d="M 412.000,153.000 C 412.831,158.080 412.262,157.985 412.000,163.000" stroke-width="3.860" stroke="black" fill="none" stroke-linecap="round"></path><path d="M 412.000,163.000 C 405.830,196.570 406.331,196.580 399.000,230.000" stroke-width="1.425" stroke="black" fill="none" stroke-linecap="round"></path><path d="M 399.000,230.000 C 395.825,242.962 396.330,243.070 393.000,256.000" stroke-width="1.886" stroke="black" fill="none" stroke-linecap="round"></path><path d="M 393.000,256.000 C 389.034,272.931 389.325,272.962 386.000,290.000" stroke-width="1.750" stroke="black" fill="none" stroke-linecap="round"></path><path d="M 386.000,290.000 C 385.500,295.500 385.034,295.431 385.000,301.000" stroke-width="2.619" stroke="black" fill="none" stroke-linecap="round"></path><path d="M 385.000,301.000 C 384.251,306.489 384.500,306.500 384.000,312.000" stroke-width="3.492" stroke="black" fill="none" stroke-linecap="round"></path><path d="M 384.000,312.000 C 384.000,317.500 383.751,317.489 384.000,323.000" stroke-width="4.008" stroke="black" fill="none" stroke-linecap="round"></path><path d="M 384.000,323.000 C 383.716,330.432 384.000,327.000 384.000,331.000" stroke-width="4.358" stroke="black" fill="none" stroke-linecap="round"></path><path d="M 384.000,331.000 C 384.549,328.008 384.216,331.432 385.000,325.000" stroke-width="5.018" stroke="black" fill="none" stroke-linecap="round"></path><path d="M 385.000,325.000 C 386.190,318.021 386.049,318.008 387.000,311.000" stroke-width="3.475" stroke="black" fill="none" stroke-linecap="round"></path><path d="M 387.000,311.000 C 387.513,305.001 387.690,305.021 388.000,299.000" stroke-width="3.285" stroke="black" fill="none" stroke-linecap="round"></path><path d="M 386.000,169.000 C 388.994,168.462 389.000,168.500 392.000,168.000" stroke-width="5.298" stroke="black" fill="none" stroke-linecap="round"></path><path d="M 392.000,168.000 C 395.485,167.370 395.494,167.462 399.000,167.000" stroke-width="4.236" stroke="black" fill="none" stroke-linecap="round"></path><path d="M 399.000,167.000 C 404.989,166.240 404.985,166.370 411.000,166.000" stroke-width="3.461" stroke="black" fill="none" stroke-linecap="round"></path><path d="M 411.000,166.000 C 417.508,165.768 417.489,165.740 424.000,166.000" stroke-width="3.265" stroke="black" fill="none" stroke-linecap="round"></path><path d="M 424.000,166.000 C 431.609,165.944 431.508,166.268 439.000,167.000" stroke-width="3.064" stroke="black" fill="none" stroke-linecap="round"></path><path d="M 439.000,167.000 C 442.958,166.958 442.109,167.444 445.000,169.000" stroke-width="3.722" stroke="black" fill="none" stroke-linecap="round"></path><path d="M 445.000,169.000 C 448.942,172.704 447.458,171.458 448.000,176.000" stroke-width="4.464" stroke="black" fill="none" stroke-linecap="round"></path><path d="M 448.000,176.000 C 443.882,183.287 445.942,183.204 439.000,190.000" stroke-width="3.114" stroke="black" fill="none" stroke-linecap="round"></path><path d="M 439.000,190.000 C 435.566,194.059 435.882,194.287 432.000,198.000" stroke-width="3.349" stroke="black" fill="none" stroke-linecap="round"></path><path d="M 432.000,198.000 C 425.682,204.235 426.066,204.559 420.000,211.000" stroke-width="2.844" stroke="black" fill="none" stroke-linecap="round"></path><path d="M 420.000,211.000 C 415.720,217.191 415.182,216.735 411.000,223.000" stroke-width="2.943" stroke="black" fill="none" stroke-linecap="round"></path><path d="M 411.000,223.000 C 409.000,225.000 409.220,225.191 407.000,227.000" stroke-width="3.734" stroke="black" fill="none" stroke-linecap="round"></path><path d="M 407.000,227.000 C 404.889,230.074 404.500,229.500 402.000,232.000" stroke-width="3.849" stroke="black" fill="none" stroke-linecap="round"></path><path d="M 402.000,232.000 C 398.594,233.802 398.889,234.074 395.000,235.000" stroke-width="4.040" stroke="black" fill="none" stroke-linecap="round"></path><path d="M 395.000,235.000 C 392.493,235.466 392.594,235.802 390.000,236.000" stroke-width="4.274" stroke="black" fill="none" stroke-linecap="round"></path><path d="M 390.000,236.000 C 385.507,237.034 385.493,236.966 381.000,238.000" stroke-width="3.755" stroke="black" fill="none" stroke-linecap="round"></path><path d="M 381.000,238.000 C 378.522,238.640 378.507,238.534 376.000,239.000" stroke-width="4.098" stroke="black" fill="none" stroke-linecap="round"></path><path d="M 440.000,221.000 C 439.041,225.011 439.000,225.000 438.000,229.000" stroke-width="5.312" stroke="black" fill="none" stroke-linecap="round"></path><path d="M 438.000,229.000 C 436.042,236.512 436.041,236.511 434.000,244.000" stroke-width="3.315" stroke="black" fill="none" stroke-linecap="round"></path><path d="M 434.000,244.000 C 431.407,252.975 431.542,253.012 429.000,262.000" stroke-width="2.776" stroke="black" fill="none" stroke-linecap="round"></path><path d="M 429.000,262.000 C 427.443,267.986 427.407,267.975 426.000,274.000" stroke-width="3.095" stroke="black" fill="none" stroke-linecap="round"></path><path d="M 426.000,274.000 C 424.308,280.462 424.443,280.486 423.000,287.000" stroke-width="3.012" stroke="black" fill="none" stroke-linecap="round"></path><path d="M 423.000,287.000 C 421.670,292.973 421.808,292.962 421.000,299.000" stroke-width="3.138" stroke="black" fill="none" stroke-linecap="round"></path><path d="M 421.000,299.000 C 421.000,302.000 420.670,301.973 421.000,305.000" stroke-width="3.749" stroke="black" fill="none" stroke-linecap="round"></path><path d="M 421.000,305.000 C 421.000,308.000 421.000,308.000 421.000,311.000" stroke-width="4.344" stroke="black" fill="none" stroke-linecap="round"></path><path d="M 421.000,311.000 C 421.000,315.000 421.000,315.000 421.000,319.000" stroke-width="4.954" stroke="black" fill="none" stroke-linecap="round"></path><path d="M 421.000,319.000 C 421.000,322.000 421.000,322.000 421.000,325.000" stroke-width="5.152" stroke="black" fill="none" stroke-linecap="round"></path><path d="M 421.000,325.000 C 420.037,332.578 421.000,328.500 421.000,332.000" stroke-width="4.997" stroke="black" fill="none" stroke-linecap="round"></path><path d="M 421.000,332.000 C 423.264,326.863 422.537,331.078 426.000,322.000" stroke-width="5.018" stroke="black" fill="none" stroke-linecap="round"></path><path d="M 426.000,322.000 C 427.636,318.702 427.764,318.863 430.000,316.000" stroke-width="4.219" stroke="black" fill="none" stroke-linecap="round"></path><path d="M 430.000,316.000 C 435.157,311.146 434.636,310.702 440.000,306.000" stroke-width="3.344" stroke="black" fill="none" stroke-linecap="round"></path><path d="M 440.000,306.000 C 443.457,302.815 443.157,302.646 446.000,299.000" stroke-width="3.550" stroke="black" fill="none" stroke-linecap="round"></path><path d="M 446.000,299.000 C 448.213,292.869 449.457,293.815 452.000,288.000" stroke-width="3.264" stroke="black" fill="none" stroke-linecap="round"></path><path d="M 452.000,288.000 C 455.549,283.671 455.213,283.869 460.000,281.000" stroke-width="3.880" stroke="black" fill="none" stroke-linecap="round"></path><path d="M 460.000,281.000 C 463.449,279.254 463.049,279.171 467.000,279.000" stroke-width="4.311" stroke="black" fill="none" stroke-linecap="round"></path><path d="M 467.000,279.000 C 471.045,278.409 470.449,278.754 474.000,280.000" stroke-width="4.514" stroke="black" fill="none" stroke-linecap="round"></path><path d="M 474.000,280.000 C 477.487,282.649 477.545,281.909 480.000,286.000" stroke-width="3.893" stroke="black" fill="none" stroke-linecap="round"></path><path d="M 480.000,286.000 C 482.149,288.808 481.987,288.649 483.000,292.000" stroke-width="3.942" stroke="black" fill="none" stroke-linecap="round"></path><path d="M 483.000,292.000 C 484.277,296.565 484.149,296.308 484.000,301.000" stroke-width="3.748" stroke="black" fill="none" stroke-linecap="round"></path><path d="M 484.000,301.000 C 482.919,304.478 483.777,304.565 482.000,308.000" stroke-width="3.879" stroke="black" fill="none" stroke-linecap="round"></path><path d="M 482.000,308.000 C 479.466,315.934 479.919,315.978 478.000,324.000" stroke-width="3.701" stroke="black" fill="none" stroke-linecap="round"></path><path d="M 478.000,324.000 C 478.000,327.000 477.466,326.934 478.000,330.000" stroke-width="4.009" stroke="black" fill="none" stroke-linecap="round"></path><path d="M 553.000,323.000 C 550.456,319.626 550.000,320.500 547.000,318.000" stroke-width="5.261" stroke="black" fill="none" stroke-linecap="round"></path><path d="M 547.000,318.000 C 541.593,315.973 541.956,315.626 536.000,315.000" stroke-width="3.775" stroke="black" fill="none" stroke-linecap="round"></path><path d="M 536.000,315.000 C 529.971,314.000 530.093,313.973 524.000,314.000" stroke-width="3.424" stroke="black" fill="none" stroke-linecap="round"></path><path d="M 524.000,314.000 C 521.002,313.570 521.471,314.000 519.000,315.000" stroke-width="3.973" stroke="black" fill="none" stroke-linecap="round"></path><path d="M 519.000,315.000 C 513.651,318.888 514.002,318.570 510.000,324.000" stroke-width="3.473" stroke="black" fill="none" stroke-linecap="round"></path><path d="M 510.000,324.000 C 505.796,329.716 506.151,329.388 504.000,336.000" stroke-width="3.528" stroke="black" fill="none" stroke-linecap="round"></path><path d="M 504.000,336.000 C 503.478,340.564 502.796,340.216 504.000,345.000" stroke-width="3.681" stroke="black" fill="none" stroke-linecap="round"></path><path d="M 504.000,345.000 C 504.536,349.192 504.478,349.064 506.000,353.000" stroke-width="3.755" stroke="black" fill="none" stroke-linecap="round"></path><path d="M 506.000,353.000 C 507.000,356.000 507.036,355.692 509.000,358.000" stroke-width="4.048" stroke="black" fill="none" stroke-linecap="round"></path><path d="M 509.000,358.000 C 511.272,360.091 511.000,360.000 514.000,361.000" stroke-width="4.050" stroke="black" fill="none" stroke-linecap="round"></path><path d="M 514.000,361.000 C 519.134,363.286 518.772,362.591 524.000,363.000" stroke-width="3.717" stroke="black" fill="none" stroke-linecap="round"></path><path d="M 524.000,363.000 C 528.071,362.343 527.634,362.786 531.000,360.000" stroke-width="3.782" stroke="black" fill="none" stroke-linecap="round"></path><path d="M 531.000,360.000 C 537.500,353.500 538.071,354.343 544.000,347.000" stroke-width="3.662" stroke="black" fill="none" stroke-linecap="round"></path><path d="M 544.000,347.000 C 547.297,344.244 547.000,344.000 550.000,341.000" stroke-width="3.672" stroke="black" fill="none" stroke-linecap="round"></path><path d="M 550.000,341.000 C 553.243,338.282 552.297,338.244 554.000,335.000" stroke-width="4.285" stroke="black" fill="none" stroke-linecap="round"></path><path d="M 614.000,170.000 C 612.435,176.486 612.500,176.500 611.000,183.000" stroke-width="5.242" stroke="black" fill="none" stroke-linecap="round"></path><path d="M 611.000,183.000 C 605.791,205.956 605.935,205.986 601.000,229.000" stroke-width="1.825" stroke="black" fill="none" stroke-linecap="round"></path><path d="M 601.000,229.000 C 595.088,256.438 595.291,256.456 590.000,284.000" stroke-width="1.379" stroke="black" fill="none" stroke-linecap="round"></path><path d="M 590.000,284.000 C 589.435,288.994 589.088,288.938 589.000,294.000" stroke-width="2.407" stroke="black" fill="none" stroke-linecap="round"></path><path d="M 589.000,294.000 C 588.271,300.491 588.435,300.494 588.000,307.000" stroke-width="2.853" stroke="black" fill="none" stroke-linecap="round"></path><path d="M 588.000,307.000 C 587.456,317.456 587.771,312.491 588.000,318.000" stroke-width="3.225" stroke="black" fill="none" stroke-linecap="round"></path><path d="M 645.000,250.000 C 641.051,247.890 641.000,248.000 637.000,246.000" stroke-width="4.792" stroke="black" fill="none" stroke-linecap="round"></path><path d="M 637.000,246.000 C 633.716,243.697 633.551,244.390 630.000,243.000" stroke-width="4.119" stroke="black" fill="none" stroke-linecap="round"></path><path d="M 630.000,243.000 C 617.498,240.757 617.716,240.697 605.000,240.000" stroke-width="2.462" stroke="black" fill="none" stroke-linecap="round"></path><path d="M 605.000,240.000 C 600.919,240.096 600.998,239.757 597.000,241.000" stroke-width="3.275" stroke="black" fill="none" stroke-linecap="round"></path><path d="M 597.000,241.000 C 588.019,243.572 587.919,243.096 579.000,246.000" stroke-width="2.835" stroke="black" fill="none" stroke-linecap="round"></path><path d="M 579.000,246.000 C 575.057,247.459 575.019,247.072 571.000,248.000" stroke-width="3.397" stroke="black" fill="none" stroke-linecap="round"></path><path d="M 679.000,276.000 C 676.758,273.576 676.500,274.000 674.000,272.000" stroke-width="4.824" stroke="black" fill="none" stroke-linecap="round"></path><path d="M 674.000,272.000 C 669.741,269.185 669.758,269.576 665.000,268.000" stroke-width="3.865" stroke="black" fill="none" stroke-linecap="round"></path><path d="M 665.000,268.000 C 655.376,265.000 655.741,265.685 646.000,265.000" stroke-width="2.844" stroke="black" fill="none" stroke-linecap="round"></path><path d="M 646.000,265.000 C 641.393,266.243 641.376,265.000 637.000,268.000" stroke-width="3.384" stroke="black" fill="none" stroke-linecap="round"></path><path d="M 637.000,268.000 C 632.676,268.240 633.893,269.243 631.000,271.000" stroke-width="3.721" stroke="black" fill="none" stroke-linecap="round"></path><path d="M 631.000,271.000 C 623.636,283.108 624.176,282.240 620.000,296.000" stroke-width="3.278" stroke="black" fill="none" stroke-linecap="round"></path><path d="M 620.000,296.000 C 619.173,303.111 618.136,302.608 620.000,310.000" stroke-width="3.078" stroke="black" fill="none" stroke-linecap="round"></path><path d="M 620.000,310.000 C 621.200,315.600 620.673,315.611 623.000,321.000" stroke-width="3.275" stroke="black" fill="none" stroke-linecap="round"></path><path d="M 623.000,321.000 C 623.327,327.327 624.700,326.100 627.000,331.000" stroke-width="3.391" stroke="black" fill="none" stroke-linecap="round"></path><path d="M 627.000,331.000 C 636.381,341.350 635.327,339.327 647.000,345.000" stroke-width="3.279" stroke="black" fill="none" stroke-linecap="round"></path><path d="M 647.000,345.000 C 653.777,344.952 652.381,346.850 659.000,342.000" stroke-width="3.204" stroke="black" fill="none" stroke-linecap="round"></path><path d="M 659.000,342.000 C 664.749,337.251 665.277,338.452 670.000,332.000" stroke-width="3.059" stroke="black" fill="none" stroke-linecap="round"></path><path d="M 670.000,332.000 C 677.998,326.004 676.749,325.251 683.000,318.000" stroke-width="2.760" stroke="black" fill="none" stroke-linecap="round"></path><path d="M 683.000,318.000 C 689.108,305.046 690.498,306.004 695.000,292.000" stroke-width="2.931" stroke="black" fill="none" stroke-linecap="round"></path><path d="M 695.000,292.000 C 696.230,289.568 696.108,289.546 697.000,287.000" stroke-width="3.756" stroke="black" fill="none" stroke-linecap="round"></path><path d="M 697.000,287.000 C 698.711,284.133 697.730,284.568 698.000,282.000" stroke-width="4.614" stroke="black" fill="none" stroke-linecap="round"></path><path d="M 698.000,282.000 C 696.216,279.723 697.211,279.633 694.000,278.000" stroke-width="4.729" stroke="black" fill="none" stroke-linecap="round"></path><path d="M 694.000,278.000 C 691.638,275.240 691.716,276.223 689.000,275.000" stroke-width="4.780" stroke="black" fill="none" stroke-linecap="round"></path><path d="M 745.000,177.000 C 749.920,175.155 750.000,175.500 755.000,174.000" stroke-width="5.211" stroke="black" fill="none" stroke-linecap="round"></path><path d="M 755.000,174.000 C 760.986,172.902 760.920,172.655 767.000,172.000" stroke-width="3.689" stroke="black" fill="none" stroke-linecap="round"></path><path d="M 767.000,172.000 C 770.981,171.191 770.986,171.402 775.000,171.000" stroke-width="3.668" stroke="black" fill="none" stroke-linecap="round"></path><path d="M 775.000,171.000 C 781.500,171.000 781.481,170.691 788.000,171.000" stroke-width="3.318" stroke="black" fill="none" stroke-linecap="round"></path><path d="M 788.000,171.000 C 791.079,170.513 791.000,171.000 794.000,171.000" stroke-width="3.824" stroke="black" fill="none" stroke-linecap="round"></path><path d="M 794.000,171.000 C 797.670,171.093 797.079,171.513 800.000,173.000" stroke-width="4.013" stroke="black" fill="none" stroke-linecap="round"></path><path d="M 800.000,173.000 C 804.031,175.962 803.170,175.593 805.000,180.000" stroke-width="3.814" stroke="black" fill="none" stroke-linecap="round"></path><path d="M 805.000,180.000 C 807.633,189.369 807.031,188.462 806.000,198.000" stroke-width="2.913" stroke="black" fill="none" stroke-linecap="round"></path><path d="M 806.000,198.000 C 802.451,207.711 804.133,207.869 798.000,217.000" stroke-width="2.643" stroke="black" fill="none" stroke-linecap="round"></path><path d="M 798.000,217.000 C 790.897,231.724 790.951,231.711 783.000,246.000" stroke-width="2.033" stroke="black" fill="none" stroke-linecap="round"></path><path d="M 783.000,246.000 C 778.213,255.498 777.897,255.224 772.000,264.000" stroke-width="2.293" stroke="black" fill="none" stroke-linecap="round"></path><path d="M 772.000,264.000 C 759.338,281.976 759.213,281.498 745.000,298.000" stroke-width="2.265" stroke="black" fill="none" stroke-linecap="round"></path><path d="M 745.000,298.000 C 741.704,300.475 742.338,300.976 738.000,302.000" stroke-width="3.198" stroke="black" fill="none" stroke-linecap="round"></path><path d="M 738.000,302.000 C 732.982,303.443 733.204,303.975 728.000,305.000" stroke-width="3.340" stroke="black" fill="none" stroke-linecap="round"></path><path d="M 728.000,305.000 C 725.077,306.341 724.982,305.943 722.000,307.000" stroke-width="3.796" stroke="black" fill="none" stroke-linecap="round"></path><path d="M 722.000,307.000 C 713.367,308.000 718.077,307.841 714.000,308.000" stroke-width="4.292" stroke="black" fill="none" stroke-linecap="round"></path><path d="M 714.000,308.000 C 719.556,307.871 714.867,308.000 725.000,307.000" stroke-width="4.759" stroke="black" fill="none" stroke-linecap="round"></path><path d="M 725.000,307.000 C 731.997,305.486 732.056,305.871 739.000,304.000" stroke-width="3.421" stroke="black" fill="none" stroke-linecap="round"></path><path d="M 739.000,304.000 C 748.516,302.075 748.497,301.986 758.000,300.000" stroke-width="2.754" stroke="black" fill="none" stroke-linecap="round"></path><path d="M 758.000,300.000 C 764.454,298.277 764.516,298.575 771.000,297.000" stroke-width="2.966" stroke="black" fill="none" stroke-linecap="round"></path><path d="M 771.000,297.000 C 784.949,294.162 784.954,294.277 799.000,292.000" stroke-width="2.305" stroke="black" fill="none" stroke-linecap="round"></path><path d="M 799.000,292.000 C 810.981,290.202 810.949,290.162 823.000,289.000" stroke-width="2.818" stroke="black" fill="none" stroke-linecap="round"></path></svg>