<svg xmlns="http://www.w3.org/2000/svg" xmlns:xlink="http://www.w3.org/1999/xlink" viewBox="0 0 452 236" width="452" height="236"><path d="M 124.000,100.000 C 120.727,97.147 120.500,98.000 117.000,96.000" stroke-width="4.517" stroke="black" fill="none" stroke-linecap="round"></path><path d="M 117.000,96.000 C 113.864,96.661 114.227,95.147 111.000,96.000" stroke-width="4.726" stroke="black" fill="none" stroke-linecap="round"></path><path d="M 111.000,96.000 C 106.636,95.343 107.364,95.161 104.000,93.000" stroke-width="4.825" stroke="black" fill="none" stroke-linecap="round"></path><path d="M 104.000,93.000 C 100.873,89.691 102.136,91.343 102.000,88.000" stroke-width="5.209" stroke="black" fill="none" stroke-linecap="round"></path><path d="M 102.000,88.000 C 105.949,85.890 103.873,85.191 110.000,84.000" stroke-width="4.656" stroke="black" fill="none" stroke-linecap="round"></path><path d="M 110.000,84.000 C 113.661,82.798 113.449,82.390 117.000,81.000" stroke-width="4.030" stroke="black" fill="none" stroke-linecap="round"></path><path d="M 117.000,81.000 C 120.120,79.160 120.161,79.298 123.000,77.000" stroke-width="3.922" stroke="black" fill="none" stroke-linecap="round"></path><path d="M 123.000,77.000 C 126.100,74.610 126.120,74.660 129.000,72.000" stroke-width="3.874" stroke="black" fill="none" stroke-linecap="round"></path><path d="M 129.000,72.000 C 131.000,70.000 131.100,70.110 133.000,68.000" stroke-width="4.067" stroke="black" fill="none" stroke-linecap="round"></path><path d="M 133.000,68.000 C 134.802,65.758 135.000,66.000 137.000,64.000" stroke-width="4.173" stroke="black" fill="none" stroke-linecap="round"></path><path d="M 137.000,64.000 C 142.171,59.724 139.802,61.758 143.000,60.000" stroke-width="4.474" stroke="black" fill="none" stroke-linecap="round"></path><path d="M 143.000,60.000 C 141.710,62.649 143.671,60.224 140.000,65.000" stroke-width="5.004" stroke="black" fill="none" stroke-linecap="round"></path><path d="M 140.000,65.000 C 137.655,68.141 137.710,68.149 135.000,71.000" stroke-width="4.079" stroke="black" fill="none" stroke-linecap="round"></path><path d="M 135.000,71.000 C 130.867,74.875 131.155,75.141 127.000,79.000" stroke-width="3.561" stroke="black" fill="none" stroke-linecap="round"></path><path d="M 127.000,79.000 C 123.488,82.989 123.367,82.875 120.000,87.000" stroke-width="3.932" stroke="black" fill="none" stroke-linecap="round"></path><path d="M 120.000,87.000 C 113.672,94.660 113.488,94.489 107.000,102.000" stroke-width="2.816" stroke="black" fill="none" stroke-linecap="round"></path><path d="M 107.000,102.000 C 103.366,105.376 103.672,105.660 100.000,109.000" stroke-width="3.247" stroke="black" fill="none" stroke-linecap="round"></path><path d="M 100.000,109.000 C 97.000,112.500 96.866,112.376 94.000,116.000" stroke-width="3.974" stroke="black" fill="none" stroke-linecap="round"></path><path d="M 94.000,116.000 C 90.978,119.481 91.000,119.500 88.000,123.000" stroke-width="3.740" stroke="black" fill="none" stroke-linecap="round"></path><path d="M 88.000,123.000 C 85.926,126.464 85.478,125.981 83.000,129.000" stroke-width="3.819" stroke="black" fill="none" stroke-linecap="round"></path><path d="M 83.000,129.000 C 78.075,132.616 78.426,132.964 73.000,136.000" stroke-width="3.356" stroke="black" fill="none" stroke-linecap="round"></path><path d="M 73.000,136.000 C 70.665,137.858 70.575,137.616 68.000,139.000" stroke-width="3.935" stroke="black" fill="none" stroke-linecap="round"></path><path d="M 68.000,139.000 C 63.526,140.585 63.665,140.858 59.000,142.000" stroke-width="4.229" stroke="black" fill="none" stroke-linecap="round"></path><path d="M 59.000,142.000 C 55.529,143.118 55.526,143.085 52.000,144.000" stroke-width="4.488" stroke="black" fill="none" stroke-linecap="round"></path><path d="M 52.000,144.000 C 46.628,145.744 49.529,144.618 47.000,145.000" stroke-width="4.896" stroke="black" fill="none" stroke-linecap="round"></path><path d="M 47.000,145.000 C 50.532,142.543 47.628,143.744 54.000,140.000" stroke-width="4.838" stroke="black" fill="none" stroke-linecap="round"></path><path d="M 54.000,140.000 C 58.028,137.037 58.032,137.043 62.000,134.000" stroke-width="3.851" stroke="black" fill="none" stroke-linecap="round"></path><path d="M 62.000,134.000 C 66.500,130.500 66.528,130.537 71.000,127.000" stroke-width="3.436" stroke="black" fill="none" stroke-linecap="round"></path><path d="M 71.000,127.000 C 75.412,123.381 75.500,123.500 80.000,120.000" stroke-width="3.387" stroke="black" fill="none" stroke-linecap="round"></path><path d="M 80.000,120.000 C 84.958,116.438 84.912,116.381 90.000,113.000" stroke-width="3.362" stroke="black" fill="none" stroke-linecap="round"></path><path d="M 90.000,113.000 C 95.955,108.930 95.958,108.938 102.000,105.000" stroke-width="3.069" stroke="black" fill="none" stroke-linecap="round"></path><path d="M 102.000,105.000 C 105.762,101.994 105.955,102.430 110.000,100.000" stroke-width="3.433" stroke="black" fill="none" stroke-linecap="round"></path><path d="M 110.000,100.000 C 114.528,98.578 114.262,97.994 119.000,97.000" stroke-width="3.692" stroke="black" fill="none" stroke-linecap="round"></path><path d="M 119.000,97.000 C 123.035,95.586 123.028,95.578 127.000,94.000" stroke-width="3.674" stroke="black" fill="none" stroke-linecap="round"></path><path d="M 127.000,94.000 C 130.544,92.595 130.535,92.586 134.000,91.000" stroke-width="3.819" stroke="black" fill="none" stroke-linecap="round"></path><path d="M 134.000,91.000 C 137.108,89.687 137.044,89.595 140.000,88.000" stroke-width="3.919" stroke="black" fill="none" stroke-linecap="round"></path><path d="M 140.000,88.000 C 146.254,85.015 143.108,86.187 146.000,84.000" stroke-width="4.382" stroke="black" fill="none" stroke-linecap="round"></path><path d="M 146.000,84.000 C 142.471,83.711 145.754,83.015 139.000,84.000" stroke-width="4.904" stroke="black" fill="none" stroke-linecap="round"></path><path d="M 139.000,84.000 C 136.136,83.719 136.471,84.211 134.000,85.000" stroke-width="4.527" stroke="black" fill="none" stroke-linecap="round"></path><path d="M 134.000,85.000 C 128.855,88.838 128.636,88.219 124.000,93.000" stroke-width="4.209" stroke="black" fill="none" stroke-linecap="round"></path><path d="M 124.000,93.000 C 121.758,94.802 121.855,94.838 120.000,97.000" stroke-width="4.217" stroke="black" fill="none" stroke-linecap="round"></path><path d="M 120.000,97.000 C 117.464,99.778 117.758,99.802 116.000,103.000" stroke-width="4.489" stroke="black" fill="none" stroke-linecap="round"></path><path d="M 116.000,103.000 C 114.027,106.298 114.964,105.278 115.000,108.000" stroke-width="4.737" stroke="black" fill="none" stroke-linecap="round"></path><path d="M 115.000,108.000 C 117.375,109.650 116.027,109.798 120.000,110.000" stroke-width="4.845" stroke="black" fill="none" stroke-linecap="round"></path><path d="M 120.000,110.000 C 125.175,110.852 124.875,110.650 130.000,110.000" stroke-width="4.439" stroke="black" fill="none" stroke-linecap="round"></path><path d="M 130.000,110.000 C 133.791,108.975 133.675,109.352 137.000,107.000" stroke-width="4.036" stroke="black" fill="none" stroke-linecap="round"></path><path d="M 137.000,107.000 C 140.248,104.752 140.291,104.975 143.000,102.000" stroke-width="3.907" stroke="black" fill="none" stroke-linecap="round"></path><path d="M 143.000,102.000 C 146.746,98.863 146.248,98.752 149.000,95.000" stroke-width="4.218" stroke="black" fill="none" stroke-linecap="round"></path><path d="M 149.000,95.000 C 151.140,91.368 150.246,92.863 150.000,90.000" stroke-width="4.643" stroke="black" fill="none" stroke-linecap="round"></path><path d="M 150.000,90.000 C 146.278,87.757 148.640,88.368 144.000,89.000" stroke-width="4.995" stroke="black" fill="none" stroke-linecap="round"></path><path d="M 144.000,89.000 C 137.695,94.043 140.778,90.757 139.000,96.000" stroke-width="4.630" stroke="black" fill="none" stroke-linecap="round"></path><path d="M 139.000,96.000 C 144.848,98.814 140.695,98.543 150.000,98.000" stroke-width="4.967" stroke="black" fill="none" stroke-linecap="round"></path><path d="M 150.000,98.000 C 154.117,95.670 154.348,97.314 158.000,93.000" stroke-width="4.055" stroke="black" fill="none" stroke-linecap="round"></path><path d="M 158.000,93.000 C 162.122,90.151 162.117,90.170 166.000,87.000" stroke-width="3.620" stroke="black" fill="none" stroke-linecap="round"></path><path d="M 166.000,87.000 C 170.125,83.633 170.122,83.651 174.000,80.000" stroke-width="3.448" stroke="black" fill="none" stroke-linecap="round"></path><path d="M 174.000,80.000 C 178.133,76.125 178.125,76.133 182.000,72.000" stroke-width="3.398" stroke="black" fill="none" stroke-linecap="round"></path><path d="M 182.000,72.000 C 185.519,68.016 185.633,68.125 189.000,64.000" stroke-width="3.442" stroke="black" fill="none" stroke-linecap="round"></path><path d="M 189.000,64.000 C 192.049,60.541 192.019,60.516 195.000,57.000" stroke-width="3.677" stroke="black" fill="none" stroke-linecap="round"></path><path d="M 195.000,57.000 C 197.119,54.587 197.049,54.541 199.000,52.000" stroke-width="3.909" stroke="black" fill="none" stroke-linecap="round"></path><path d="M 199.000,52.000 C 201.111,49.069 201.119,49.087 203.000,46.000" stroke-width="3.887" stroke="black" fill="none" stroke-linecap="round"></path><path d="M 203.000,46.000 C 208.068,39.214 205.111,42.569 207.000,39.000" stroke-width="4.310" stroke="black" fill="none" stroke-linecap="round"></path><path d="M 207.000,39.000 C 202.381,41.836 205.568,38.714 198.000,45.000" stroke-width="4.656" stroke="black" fill="none" stroke-linecap="round"></path><path d="M 198.000,45.000 C 193.253,48.220 193.381,48.336 189.000,52.000" stroke-width="3.849" stroke="black" fill="none" stroke-linecap="round"></path><path d="M 189.000,52.000 C 184.382,56.387 184.253,56.220 180.000,61.000" stroke-width="3.318" stroke="black" fill="none" stroke-linecap="round"></path><path d="M 180.000,61.000 C 174.528,66.140 174.882,66.387 170.000,72.000" stroke-width="3.026" stroke="black" fill="none" stroke-linecap="round"></path><path d="M 170.000,72.000 C 166.553,77.534 166.028,77.140 163.000,83.000" stroke-width="3.187" stroke="black" fill="none" stroke-linecap="round"></path><path d="M 163.000,83.000 C 159.641,87.305 160.053,87.534 157.000,92.000" stroke-width="3.359" stroke="black" fill="none" stroke-linecap="round"></path><path d="M 157.000,92.000 C 155.464,95.485 155.141,95.305 154.000,99.000" stroke-width="3.710" stroke="black" fill="none" stroke-linecap="round"></path><path d="M 154.000,99.000 C 152.920,101.471 152.964,101.485 152.000,104.000" stroke-width="4.046" stroke="black" fill="none" stroke-linecap="round"></path><path d="M 152.000,104.000 C 148.724,109.362 150.920,106.971 150.000,110.000" stroke-width="4.523" stroke="black" fill="none" stroke-linecap="round"></path><path d="M 150.000,110.000 C 154.198,108.901 151.724,110.862 158.000,107.000" stroke-width="4.675" stroke="black" fill="none" stroke-linecap="round"></path><path d="M 158.000,107.000 C 162.033,104.550 162.198,104.901 166.000,102.000" stroke-width="3.881" stroke="black" fill="none" stroke-linecap="round"></path><path d="M 166.000,102.000 C 168.931,99.889 169.033,100.050 172.000,98.000" stroke-width="3.879" stroke="black" fill="none" stroke-linecap="round"></path><path d="M 172.000,98.000 C 175.400,95.800 175.431,95.889 179.000,94.000" stroke-width="3.781" stroke="black" fill="none" stroke-linecap="round"></path><path d="M 179.000,94.000 C 185.553,89.883 182.400,92.300 186.000,91.000" stroke-width="4.331" stroke="black" fill="none" stroke-linecap="round"></path><path d="M 186.000,91.000 C 180.188,96.835 186.553,92.383 181.000,99.000" stroke-width="4.815" stroke="black" fill="none" stroke-linecap="round"></path><path d="M 181.000,99.000 C 185.318,100.052 181.688,100.835 189.000,99.000" stroke-width="5.032" stroke="black" fill="none" stroke-linecap="round"></path><path d="M 189.000,99.000 C 192.147,97.194 192.318,98.052 195.000,95.000" stroke-width="4.222" stroke="black" fill="none" stroke-linecap="round"></path><path d="M 195.000,95.000 C 201.200,88.733 198.647,92.194 202.000,89.000" stroke-width="4.343" stroke="black" fill="none" stroke-linecap="round"></path><path d="M 202.000,89.000 C 200.286,92.698 202.700,89.233 198.000,96.000" stroke-width="4.867" stroke="black" fill="none" stroke-linecap="round"></path><path d="M 198.000,96.000 C 192.475,100.163 195.786,99.198 193.000,102.000" stroke-width="4.658" stroke="black" fill="none" stroke-linecap="round"></path><path d="M 193.000,102.000 C 196.842,103.902 193.475,103.663 200.000,103.000" stroke-width="4.936" stroke="black" fill="none" stroke-linecap="round"></path><path d="M 200.000,103.000 C 207.403,97.193 203.842,101.902 207.000,98.000" stroke-width="4.634" stroke="black" fill="none" stroke-linecap="round"></path><path d="M 207.000,98.000 C 197.722,105.057 206.403,99.193 198.000,107.000" stroke-width="4.870" stroke="black" fill="none" stroke-linecap="round"></path><path d="M 198.000,107.000 C 203.687,107.283 198.222,108.557 208.000,105.000" stroke-width="4.980" stroke="black" fill="none" stroke-linecap="round"></path><path d="M 208.000,105.000 C 211.865,101.806 212.187,102.783 215.000,98.000" stroke-width="3.889" stroke="black" fill="none" stroke-linecap="round"></path><path d="M 215.000,98.000 C 218.271,92.825 218.865,93.306 222.000,88.000" stroke-width="3.372" stroke="black" fill="none" stroke-linecap="round"></path><path d="M 222.000,88.000 C 227.154,82.122 226.771,81.825 232.000,76.000" stroke-width="2.986" stroke="black" fill="none" stroke-linecap="round"></path><path d="M 232.000,76.000 C 236.642,70.101 236.654,70.122 241.000,64.000" stroke-width="2.928" stroke="black" fill="none" stroke-linecap="round"></path><path d="M 241.000,64.000 C 243.836,59.381 244.142,59.601 247.000,55.000" stroke-width="3.315" stroke="black" fill="none" stroke-linecap="round"></path><path d="M 247.000,55.000 C 250.692,50.631 250.336,50.381 254.000,46.000" stroke-width="3.351" stroke="black" fill="none" stroke-linecap="round"></path><path d="M 254.000,46.000 C 255.500,43.500 255.692,43.631 257.000,41.000" stroke-width="3.896" stroke="black" fill="none" stroke-linecap="round"></path><path d="M 257.000,41.000 C 260.238,36.000 258.500,38.500 260.000,36.000" stroke-width="4.489" stroke="black" fill="none" stroke-linecap="round"></path><path d="M 260.000,36.000 C 258.160,38.643 259.738,36.000 256.000,41.000" stroke-width="4.833" stroke="black" fill="none" stroke-linecap="round"></path><path d="M 256.000,41.000 C 252.500,44.500 252.660,44.643 249.000,48.000" stroke-width="3.795" stroke="black" fill="none" stroke-linecap="round"></path><path d="M 249.000,48.000 C 245.375,51.383 245.500,51.500 242.000,55.000" stroke-width="3.565" stroke="black" fill="none" stroke-linecap="round"></path><path d="M 242.000,55.000 C 238.277,58.829 238.375,58.883 235.000,63.000" stroke-width="3.492" stroke="black" fill="none" stroke-linecap="round"></path><path d="M 235.000,63.000 C 232.950,65.967 232.777,65.829 231.000,69.000" stroke-width="3.800" stroke="black" fill="none" stroke-linecap="round"></path><path d="M 231.000,69.000 C 228.615,73.077 228.450,72.967 226.000,77.000" stroke-width="3.723" stroke="black" fill="none" stroke-linecap="round"></path><path d="M 226.000,77.000 C 223.122,80.287 223.615,80.577 221.000,84.000" stroke-width="3.677" stroke="black" fill="none" stroke-linecap="round"></path><path d="M 221.000,84.000 C 219.787,87.650 219.122,87.287 218.000,91.000" stroke-width="3.820" stroke="black" fill="none" stroke-linecap="round"></path><path d="M 218.000,91.000 C 214.947,94.781 215.787,95.150 213.000,99.000" stroke-width="4.210" stroke="black" fill="none" stroke-linecap="round"></path><path d="M 213.000,99.000 C 210.576,103.466 211.947,101.281 212.000,104.000" stroke-width="4.665" stroke="black" fill="none" stroke-linecap="round"></path><path d="M 212.000,104.000 C 216.619,103.369 214.576,104.966 221.000,102.000" stroke-width="4.811" stroke="black" fill="none" stroke-linecap="round"></path><path d="M 221.000,102.000 C 224.421,100.278 224.619,100.869 228.000,99.000" stroke-width="4.176" stroke="black" fill="none" stroke-linecap="round"></path><path d="M 228.000,99.000 C 231.471,97.882 231.421,97.778 235.000,97.000" stroke-width="4.007" stroke="black" fill="none" stroke-linecap="round"></path><path d="M 235.000,97.000 C 238.005,95.113 237.471,96.382 240.000,96.000" stroke-width="4.185" stroke="black" fill="none" stroke-linecap="round"></path><path d="M 240.000,96.000 C 245.000,98.833 242.505,97.113 244.000,101.000" stroke-width="4.729" stroke="black" fill="none" stroke-linecap="round"></path><path d="M 244.000,101.000 C 239.312,105.459 242.000,105.333 234.000,109.000" stroke-width="3.551" stroke="black" fill="none" stroke-linecap="round"></path><path d="M 234.000,109.000 C 227.241,113.483 227.312,113.459 220.000,117.000" stroke-width="2.991" stroke="black" fill="none" stroke-linecap="round"></path><path d="M 220.000,117.000 C 209.711,122.081 209.741,121.983 199.000,126.000" stroke-width="2.551" stroke="black" fill="none" stroke-linecap="round"></path><path d="M 199.000,126.000 C 189.117,129.471 189.211,129.581 179.000,132.000" stroke-width="2.473" stroke="black" fill="none" stroke-linecap="round"></path><path d="M 179.000,132.000 C 169.095,134.769 169.117,134.471 159.000,136.000" stroke-width="2.473" stroke="black" fill="none" stroke-linecap="round"></path><path d="M 159.000,136.000 C 148.506,136.750 148.595,137.269 138.000,137.000" stroke-width="2.443" stroke="black" fill="none" stroke-linecap="round"></path><path d="M 138.000,137.000 C 127.461,137.581 127.506,137.250 117.000,137.000" stroke-width="2.494" stroke="black" fill="none" stroke-linecap="round"></path><path d="M 117.000,137.000 C 109.156,137.120 109.461,136.581 102.000,135.000" stroke-width="2.862" stroke="black" fill="none" stroke-linecap="round"></path><path d="M 102.000,135.000 C 95.425,132.798 95.656,133.120 90.000,129.000" stroke-width="2.998" stroke="black" fill="none" stroke-linecap="round"></path><path d="M 90.000,129.000 C 85.351,125.468 85.425,125.798 82.000,121.000" stroke-width="3.200" stroke="black" fill="none" stroke-linecap="round"></path><path d="M 82.000,121.000 C 78.897,117.260 79.351,117.468 78.000,113.000" stroke-width="3.475" stroke="black" fill="none" stroke-linecap="round"></path><path d="M 78.000,113.000 C 76.613,107.238 76.897,107.760 78.000,102.000" stroke-width="3.964" stroke="black" fill="none" stroke-linecap="round"></path><path d="M 78.000,102.000 C 80.093,88.670 81.113,90.238 87.000,79.000" stroke-width="2.625" stroke="black" fill="none" stroke-linecap="round"></path><path d="M 87.000,79.000 C 94.334,71.815 92.593,71.170 103.000,67.000" stroke-width="2.597" stroke="black" fill="none" stroke-linecap="round"></path><path d="M 103.000,67.000 C 112.760,62.258 112.334,61.815 123.000,59.000" stroke-width="2.515" stroke="black" fill="none" stroke-linecap="round"></path><path d="M 123.000,59.000 C 134.852,55.187 134.760,55.258 147.000,53.000" stroke-width="2.411" stroke="black" fill="none" stroke-linecap="round"></path><path d="M 147.000,53.000 C 159.965,51.064 159.852,50.687 173.000,50.000" stroke-width="2.327" stroke="black" fill="none" stroke-linecap="round"></path><path d="M 173.000,50.000 C 184.495,49.268 184.465,49.064 196.000,49.000" stroke-width="2.370" stroke="black" fill="none" stroke-linecap="round"></path><path d="M 196.000,49.000 C 206.000,49.000 205.995,48.768 216.000,49.000" stroke-width="2.460" stroke="black" fill="none" stroke-linecap="round"></path><path d="M 216.000,49.000 C 223.500,49.000 223.500,49.000 231.000,49.000" stroke-width="2.901" stroke="black" fill="none" stroke-linecap="round"></path><path d="M 231.000,49.000 C 238.000,49.000 238.000,49.000 245.000,49.000" stroke-width="2.970" stroke="black" fill="none" stroke-linecap="round"></path><path d="M 245.000,49.000 C 250.009,47.772 249.500,49.000 254.000,49.000" stroke-width="3.432" stroke="black" fill="none" stroke-linecap="round"></path><path d="M 254.000,49.000 C 258.695,51.090 256.509,49.772 258.000,53.000" stroke-width="4.276" stroke="black" fill="none" stroke-linecap="round"></path><path d="M 258.000,53.000 C 254.604,57.460 256.695,56.590 250.000,60.000" stroke-width="3.785" stroke="black" fill="none" stroke-linecap="round"></path><path d="M 250.000,60.000 C 239.760,65.246 240.104,65.460 229.000,69.000" stroke-width="2.622" stroke="black" fill="none" stroke-linecap="round"></path><path d="M 229.000,69.000 C 218.059,72.235 218.260,72.746 207.000,75.000" stroke-width="2.464" stroke="black" fill="none" stroke-linecap="round"></path><path d="M 207.000,75.000 C 196.074,77.891 196.059,77.735 185.000,80.000" stroke-width="2.431" stroke="black" fill="none" stroke-linecap="round"></path><path d="M 185.000,80.000 C 175.038,81.853 175.074,81.891 165.000,83.000" stroke-width="2.580" stroke="black" fill="none" stroke-linecap="round"></path><path d="M 165.000,83.000 C 157.507,83.700 157.538,83.853 150.000,84.000" stroke-width="2.851" stroke="black" fill="none" stroke-linecap="round"></path><path d="M 150.000,84.000 C 144.967,84.331 145.007,84.200 140.000,84.000" stroke-width="3.252" stroke="black" fill="none" stroke-linecap="round"></path><path d="M 257.000,86.000 C 260.000,86.000 260.000,86.000 263.000,86.000" stroke-width="5.239" stroke="black" fill="none" stroke-linecap="round"></path><path d="M 263.000,86.000 C 267.500,86.000 267.500,86.000 272.000,86.000" stroke-width="4.039" stroke="black" fill="none" stroke-linecap="round"></path><path d="M 272.000,86.000 C 278.000,86.000 278.000,86.000 284.000,86.000" stroke-width="3.490" stroke="black" fill="none" stroke-linecap="round"></path><path d="M 284.000,86.000 C 289.500,86.000 289.500,86.000 295.000,86.000" stroke-width="3.491" stroke="black" fill="none" stroke-linecap="round"></path><path d="M 295.000,86.000 C 298.500,86.000 298.500,86.000 302.000,86.000" stroke-width="3.822" stroke="black" fill="none" stroke-linecap="round"></path><path d="M 302.000,86.000 C 307.469,84.031 305.500,86.000 309.000,86.000" stroke-width="4.375" stroke="black" fill="none" stroke-linecap="round"></path><path d="M 309.000,86.000 C 309.000,90.500 310.969,88.531 309.000,95.000" stroke-width="4.652" stroke="black" fill="none" stroke-linecap="round"></path><path d="M 309.000,95.000 C 307.293,99.507 309.000,98.000 309.000,101.000" stroke-width="4.727" stroke="black" fill="none" stroke-linecap="round"></path><path d="M 309.000,101.000 C 313.045,102.377 311.293,103.007 317.000,102.000" stroke-width="4.599" stroke="black" fill="none" stroke-linecap="round"></path><path d="M 317.000,102.000 C 323.529,100.618 323.545,101.377 330.000,99.000" stroke-width="3.721" stroke="black" fill="none" stroke-linecap="round"></path><path d="M 330.000,99.000 C 337.458,96.828 337.529,97.118 345.000,95.000" stroke-width="3.069" stroke="black" fill="none" stroke-linecap="round"></path><path d="M 345.000,95.000 C 353.898,92.071 353.958,92.828 363.000,91.000" stroke-width="2.735" stroke="black" fill="none" stroke-linecap="round"></path><path d="M 363.000,91.000 C 371.000,91.000 370.898,90.071 379.000,91.000" stroke-width="2.951" stroke="black" fill="none" stroke-linecap="round"></path><path d="M 379.000,91.000 C 385.000,91.000 385.000,91.000 391.000,91.000" stroke-width="3.325" stroke="black" fill="none" stroke-linecap="round"></path><path d="M 391.000,91.000 C 400.500,91.000 400.500,91.000 410.000,91.000" stroke-width="2.827" stroke="black" fill="none" stroke-linecap="round"></path><path d="M 410.000,91.000 C 413.585,90.475 413.500,91.000 417.000,91.000" stroke-width="3.548" stroke="black" fill="none" stroke-linecap="round"></path><path d="M 417.000,91.000 C 424.015,92.154 420.085,91.475 423.000,93.000" stroke-width="3.917" stroke="black" fill="none" stroke-linecap="round"></path><path d="M 423.000,93.000 C 417.077,94.915 421.015,94.654 411.000,96.000" stroke-width="4.559" stroke="black" fill="none" stroke-linecap="round"></path><path d="M 411.000,96.000 C 403.015,97.134 403.077,97.415 395.000,98.000" stroke-width="3.244" stroke="black" fill="none" stroke-linecap="round"></path><path d="M 395.000,98.000 C 384.520,99.299 384.515,99.134 374.000,100.000" stroke-width="2.625" stroke="black" fill="none" stroke-linecap="round"></path><path d="M 374.000,100.000 C 361.992,100.346 362.020,100.799 350.000,101.000" stroke-width="2.412" stroke="black" fill="none" stroke-linecap="round"></path><path d="M 350.000,101.000 C 334.499,101.984 334.492,101.846 319.000,103.000" stroke-width="2.100" stroke="black" fill="none" stroke-linecap="round"></path><path d="M 319.000,103.000 C 303.951,103.505 303.999,103.984 289.000,105.000" stroke-width="2.052" stroke="black" fill="none" stroke-linecap="round"></path><path d="M 289.000,105.000 C 273.856,106.249 273.951,106.505 259.000,109.000" stroke-width="1.976" stroke="black" fill="none" stroke-linecap="round"></path><path d="M 259.000,109.000 C 246.875,111.570 246.856,111.249 235.000,115.000" stroke-width="2.134" stroke="black" fill="none" stroke-linecap="round"></path><path d="M 235.000,115.000 C 224.434,118.317 224.375,118.070 214.000,122.000" stroke-width="2.287" stroke="black" fill="none" stroke-linecap="round"></path><path d="M 214.000,122.000 C 207.485,124.462 207.434,124.317 201.000,127.000" stroke-width="2.797" stroke="black" fill="none" stroke-linecap="round"></path></svg>