<svg xmlns="http://www.w3.org/2000/svg" xmlns:xlink="http://www.w3.org/1999/xlink" viewBox="0 0 1460 576" width="1460" height="576"><path d="M 636.000,294.000 C 637.783,296.363 637.500,296.500 639.000,299.000" stroke-width="5.288" stroke="black" fill="none" stroke-linecap="round"></path><path d="M 639.000,299.000 C 640.199,303.141 640.783,302.863 642.000,307.000" stroke-width="4.103" stroke="black" fill="none" stroke-linecap="round"></path><path d="M 642.000,307.000 C 642.693,312.071 643.699,310.641 646.000,314.000" stroke-width="3.842" stroke="black" fill="none" stroke-linecap="round"></path><path d="M 646.000,314.000 C 655.640,320.491 654.693,319.071 666.000,321.000" stroke-width="2.865" stroke="black" fill="none" stroke-linecap="round"></path><path d="M 666.000,321.000 C 686.871,320.792 686.140,321.991 707.000,317.000" stroke-width="1.884" stroke="black" fill="none" stroke-linecap="round"></path><path d="M 707.000,317.000 C 721.300,313.309 721.371,314.292 735.000,308.000" stroke-width="1.895" stroke="black" fill="none" stroke-linecap="round"></path><path d="M 735.000,308.000 C 760.686,296.061 761.300,297.809 787.000,286.000" stroke-width="1.437" stroke="black" fill="none" stroke-linecap="round"></path><path d="M 787.000,286.000 C 794.915,282.225 794.686,283.061 803.000,282.000" stroke-width="2.203" stroke="black" fill="none" stroke-linecap="round"></path><path d="M 803.000,282.000 C 815.000,279.872 812.915,281.725 823.000,285.000" stroke-width="2.334" stroke="black" fill="none" stroke-linecap="round"></path><path d="M 823.000,285.000 C 838.326,294.262 834.500,292.372 842.000,307.000" stroke-width="2.783" stroke="black" fill="none" stroke-linecap="round"></path><path d="M 842.000,307.000 C 842.367,323.170 845.826,320.262 838.000,337.000" stroke-width="2.265" stroke="black" fill="none" stroke-linecap="round"></path><path d="M 838.000,337.000 C 834.200,341.220 836.367,342.170 830.000,345.000" stroke-width="2.899" stroke="black" fill="none" stroke-linecap="round"></path><path d="M 830.000,345.000 C 823.851,349.837 824.200,350.220 818.000,355.000" stroke-width="2.862" stroke="black" fill="none" stroke-linecap="round"></path><path d="M 818.000,355.000 C 810.888,360.111 815.351,357.337 813.000,360.000" stroke-width="3.919" stroke="black" fill="none" stroke-linecap="round"></path><path d="M 813.000,360.000 C 825.134,357.461 820.388,359.611 837.000,354.000" stroke-width="3.430" stroke="black" fill="none" stroke-linecap="round"></path><path d="M 837.000,354.000 C 849.036,350.102 849.134,350.461 861.000,346.000" stroke-width="2.447" stroke="black" fill="none" stroke-linecap="round"></path><path d="M 861.000,346.000 C 866.569,344.172 866.536,344.102 872.000,342.000" stroke-width="3.005" stroke="black" fill="none" stroke-linecap="round"></path><path d="M 872.000,342.000 C 876.326,339.375 876.569,340.172 881.000,338.000" stroke-width="3.324" stroke="black" fill="none" stroke-linecap="round"></path><path d="M 881.000,338.000 C 886.512,334.895 884.826,336.875 889.000,337.000" stroke-width="4.080" stroke="black" fill="none" stroke-linecap="round"></path><path d="M 889.000,337.000 C 894.192,342.861 893.012,340.395 894.000,349.000" stroke-width="4.072" stroke="black" fill="none" stroke-linecap="round"></path><path d="M 894.000,349.000 C 892.268,359.610 893.692,358.861 888.000,369.000" stroke-width="2.920" stroke="black" fill="none" stroke-linecap="round"></path><path d="M 888.000,369.000 C 884.851,376.904 884.768,376.110 879.000,382.000" stroke-width="2.856" stroke="black" fill="none" stroke-linecap="round"></path><path d="M 879.000,382.000 C 867.967,388.950 869.351,390.404 857.000,396.000" stroke-width="2.313" stroke="black" fill="none" stroke-linecap="round"></path><path d="M 857.000,396.000 C 854.041,398.065 853.967,397.950 851.000,400.000" stroke-width="3.565" stroke="black" fill="none" stroke-linecap="round"></path><path d="M 851.000,400.000 C 848.490,401.484 848.541,401.565 846.000,403.000" stroke-width="4.482" stroke="black" fill="none" stroke-linecap="round"></path><path d="M 846.000,403.000 C 837.813,410.596 836.990,408.484 828.000,414.000" stroke-width="2.892" stroke="black" fill="none" stroke-linecap="round"></path><path d="M 828.000,414.000 C 812.640,418.462 813.313,419.096 797.000,420.000" stroke-width="2.111" stroke="black" fill="none" stroke-linecap="round"></path><path d="M 797.000,420.000 C 781.373,423.414 782.140,421.462 767.000,420.000" stroke-width="2.057" stroke="black" fill="none" stroke-linecap="round"></path><path d="M 767.000,420.000 C 742.191,409.957 741.373,413.914 717.000,401.000" stroke-width="2.119" stroke="black" fill="none" stroke-linecap="round"></path><path d="M 717.000,401.000 C 696.573,395.438 697.191,393.957 677.000,388.000" stroke-width="1.686" stroke="black" fill="none" stroke-linecap="round"></path><path d="M 677.000,388.000 C 671.040,386.040 671.573,385.938 667.000,382.000" stroke-width="2.579" stroke="black" fill="none" stroke-linecap="round"></path><path d="M 667.000,382.000 C 655.151,375.689 661.040,376.040 657.000,368.000" stroke-width="2.727" stroke="black" fill="none" stroke-linecap="round"></path><path d="M 657.000,368.000 C 665.481,329.931 664.651,336.189 686.000,303.000" stroke-width="1.989" stroke="black" fill="none" stroke-linecap="round"></path><path d="M 686.000,303.000 C 702.568,290.877 697.481,287.931 721.000,284.000" stroke-width="1.764" stroke="black" fill="none" stroke-linecap="round"></path><path d="M 721.000,284.000 C 737.053,276.913 736.068,278.377 753.000,278.000" stroke-width="1.877" stroke="black" fill="none" stroke-linecap="round"></path><path d="M 753.000,278.000 C 782.872,279.311 781.053,279.913 809.000,290.000" stroke-width="1.370" stroke="black" fill="none" stroke-linecap="round"></path><path d="M 809.000,290.000 C 836.966,305.495 837.872,301.811 863.000,323.000" stroke-width="1.718" stroke="black" fill="none" stroke-linecap="round"></path><path d="M 863.000,323.000 C 868.050,325.779 865.966,324.995 867.000,329.000" stroke-width="2.842" stroke="black" fill="none" stroke-linecap="round"></path><path d="M 867.000,329.000 C 862.143,352.746 860.550,348.779 848.000,369.000" stroke-width="1.805" stroke="black" fill="none" stroke-linecap="round"></path><path d="M 848.000,369.000 C 826.611,391.677 828.643,391.246 800.000,406.000" stroke-width="1.362" stroke="black" fill="none" stroke-linecap="round"></path><path d="M 800.000,406.000 C 667.932,475.000 669.611,476.177 534.000,538.000" stroke-width="1.125" stroke="black" fill="none" stroke-linecap="round"></path><path d="M 534.000,538.000 C 523.271,541.811 524.432,542.500 513.000,541.000" stroke-width="1.391" stroke="black" fill="none" stroke-linecap="round"></path><path d="M 513.000,541.000 C 495.443,543.398 504.271,540.311 496.000,535.000" stroke-width="2.118" stroke="black" fill="none" stroke-linecap="round"></path><path d="M 496.000,535.000 C 487.104,427.549 501.943,445.398 526.000,345.000" stroke-width="1.125" stroke="black" fill="none" stroke-linecap="round"></path><path d="M 526.000,345.000 C 574.299,281.033 556.604,280.049 635.000,240.000" stroke-width="1.125" stroke="black" fill="none" stroke-linecap="round"></path><path d="M 635.000,240.000 C 669.620,224.603 663.799,220.533 705.000,224.000" stroke-width="1.125" stroke="black" fill="none" stroke-linecap="round"></path><path d="M 705.000,224.000 C 759.938,226.526 757.620,223.103 811.000,237.000" stroke-width="1.171" stroke="black" fill="none" stroke-linecap="round"></path><path d="M 811.000,237.000 C 817.687,241.889 818.438,238.526 822.000,248.000" stroke-width="1.993" stroke="black" fill="none" stroke-linecap="round"></path><path d="M 822.000,248.000 C 825.686,252.926 823.687,250.389 823.000,254.000" stroke-width="3.130" stroke="black" fill="none" stroke-linecap="round"></path><path d="M 823.000,254.000 C 778.189,271.722 780.686,270.926 732.000,284.000" stroke-width="1.125" stroke="black" fill="none" stroke-linecap="round"></path><path d="M 732.000,284.000 C 698.448,291.540 699.189,292.722 665.000,296.000" stroke-width="1.521" stroke="black" fill="none" stroke-linecap="round"></path><path d="M 665.000,296.000 C 657.449,297.722 660.948,296.540 657.000,294.000" stroke-width="2.640" stroke="black" fill="none" stroke-linecap="round"></path><path d="M 657.000,294.000 C 648.241,262.140 653.949,268.722 658.000,238.000" stroke-width="1.484" stroke="black" fill="none" stroke-linecap="round"></path><path d="M 658.000,238.000 C 673.930,215.753 667.241,215.140 695.000,200.000" stroke-width="1.353" stroke="black" fill="none" stroke-linecap="round"></path><path d="M 695.000,200.000 C 728.007,172.404 727.430,175.753 765.000,158.000" stroke-width="1.125" stroke="black" fill="none" stroke-linecap="round"></path><path d="M 765.000,158.000 C 787.380,153.511 784.507,150.404 808.000,156.000" stroke-width="1.384" stroke="black" fill="none" stroke-linecap="round"></path><path d="M 808.000,156.000 C 816.497,159.524 816.380,157.011 823.000,165.000" stroke-width="2.095" stroke="black" fill="none" stroke-linecap="round"></path></svg>