<svg xmlns="http://www.w3.org/2000/svg" xmlns:xlink="http://www.w3.org/1999/xlink" viewBox="0 0 452 236" width="452" height="236"><path d="M 131.000,98.000 C 125.875,98.650 126.000,98.000 121.000,98.000" stroke-width="5.100" stroke="black" fill="none" stroke-linecap="round"></path><path d="M 121.000,98.000 C 118.568,96.790 118.375,97.650 116.000,96.000" stroke-width="4.535" stroke="black" fill="none" stroke-linecap="round"></path><path d="M 116.000,96.000 C 111.962,95.132 112.068,94.790 108.000,94.000" stroke-width="4.511" stroke="black" fill="none" stroke-linecap="round"></path><path d="M 108.000,94.000 C 101.599,93.405 104.962,93.132 102.000,92.000" stroke-width="4.831" stroke="black" fill="none" stroke-linecap="round"></path><path d="M 102.000,92.000 C 105.909,89.338 102.599,89.905 110.000,87.000" stroke-width="5.145" stroke="black" fill="none" stroke-linecap="round"></path><path d="M 110.000,87.000 C 113.048,85.590 112.909,85.338 116.000,84.000" stroke-width="4.257" stroke="black" fill="none" stroke-linecap="round"></path><path d="M 116.000,84.000 C 119.500,82.000 119.548,82.090 123.000,80.000" stroke-width="3.882" stroke="black" fill="none" stroke-linecap="round"></path><path d="M 123.000,80.000 C 126.613,78.177 126.500,78.000 130.000,76.000" stroke-width="3.782" stroke="black" fill="none" stroke-linecap="round"></path><path d="M 130.000,76.000 C 133.424,73.384 133.613,73.677 137.000,71.000" stroke-width="3.886" stroke="black" fill="none" stroke-linecap="round"></path><path d="M 137.000,71.000 C 139.716,69.777 139.424,69.384 142.000,68.000" stroke-width="4.093" stroke="black" fill="none" stroke-linecap="round"></path><path d="M 142.000,68.000 C 143.784,65.723 144.216,66.277 146.000,64.000" stroke-width="4.137" stroke="black" fill="none" stroke-linecap="round"></path><path d="M 146.000,64.000 C 151.469,59.905 148.284,62.223 151.000,61.000" stroke-width="4.581" stroke="black" fill="none" stroke-linecap="round"></path><path d="M 151.000,61.000 C 147.248,66.222 149.969,63.405 143.000,71.000" stroke-width="4.663" stroke="black" fill="none" stroke-linecap="round"></path><path d="M 143.000,71.000 C 139.000,75.000 139.248,75.222 135.000,79.000" stroke-width="3.745" stroke="black" fill="none" stroke-linecap="round"></path><path d="M 135.000,79.000 C 130.000,84.000 130.000,84.000 125.000,89.000" stroke-width="3.179" stroke="black" fill="none" stroke-linecap="round"></path><path d="M 125.000,89.000 C 120.119,94.125 120.000,94.000 115.000,99.000" stroke-width="3.041" stroke="black" fill="none" stroke-linecap="round"></path><path d="M 115.000,99.000 C 109.381,103.875 109.619,104.125 104.000,109.000" stroke-width="3.013" stroke="black" fill="none" stroke-linecap="round"></path><path d="M 104.000,109.000 C 99.260,114.294 98.881,113.875 94.000,119.000" stroke-width="3.053" stroke="black" fill="none" stroke-linecap="round"></path><path d="M 94.000,119.000 C 89.474,122.468 89.760,122.794 85.000,126.000" stroke-width="3.211" stroke="black" fill="none" stroke-linecap="round"></path><path d="M 85.000,126.000 C 80.118,130.161 79.974,129.968 75.000,134.000" stroke-width="3.150" stroke="black" fill="none" stroke-linecap="round"></path><path d="M 75.000,134.000 C 72.000,136.000 72.118,136.161 69.000,138.000" stroke-width="3.670" stroke="black" fill="none" stroke-linecap="round"></path><path d="M 69.000,138.000 C 66.196,140.402 66.000,140.000 63.000,142.000" stroke-width="3.813" stroke="black" fill="none" stroke-linecap="round"></path><path d="M 63.000,142.000 C 60.091,143.558 60.196,143.402 57.000,144.000" stroke-width="4.089" stroke="black" fill="none" stroke-linecap="round"></path><path d="M 57.000,144.000 C 52.333,145.389 53.091,144.558 49.000,144.000" stroke-width="4.404" stroke="black" fill="none" stroke-linecap="round"></path><path d="M 49.000,144.000 C 44.530,141.116 46.333,142.889 45.000,139.000" stroke-width="4.887" stroke="black" fill="none" stroke-linecap="round"></path><path d="M 45.000,139.000 C 47.830,136.691 45.530,136.616 51.000,135.000" stroke-width="4.243" stroke="black" fill="none" stroke-linecap="round"></path><path d="M 51.000,135.000 C 55.517,133.038 55.330,132.691 60.000,131.000" stroke-width="3.680" stroke="black" fill="none" stroke-linecap="round"></path><path d="M 60.000,131.000 C 66.600,128.200 66.517,128.038 73.000,125.000" stroke-width="3.151" stroke="black" fill="none" stroke-linecap="round"></path><path d="M 73.000,125.000 C 79.355,121.199 79.600,121.700 86.000,118.000" stroke-width="2.990" stroke="black" fill="none" stroke-linecap="round"></path><path d="M 86.000,118.000 C 93.199,115.400 92.855,114.699 100.000,112.000" stroke-width="2.974" stroke="black" fill="none" stroke-linecap="round"></path><path d="M 100.000,112.000 C 107.017,108.029 107.199,108.400 114.000,104.000" stroke-width="2.851" stroke="black" fill="none" stroke-linecap="round"></path><path d="M 114.000,104.000 C 119.905,100.325 120.017,100.529 126.000,97.000" stroke-width="3.018" stroke="black" fill="none" stroke-linecap="round"></path><path d="M 126.000,97.000 C 131.000,94.500 130.905,94.325 136.000,92.000" stroke-width="3.271" stroke="black" fill="none" stroke-linecap="round"></path><path d="M 136.000,92.000 C 138.956,90.405 139.000,90.500 142.000,89.000" stroke-width="3.770" stroke="black" fill="none" stroke-linecap="round"></path><path d="M 142.000,89.000 C 149.458,86.688 145.456,87.405 149.000,86.000" stroke-width="4.297" stroke="black" fill="none" stroke-linecap="round"></path><path d="M 149.000,86.000 C 144.465,85.575 148.458,85.188 140.000,86.000" stroke-width="4.734" stroke="black" fill="none" stroke-linecap="round"></path><path d="M 140.000,86.000 C 133.481,85.868 133.965,86.575 128.000,88.000" stroke-width="4.328" stroke="black" fill="none" stroke-linecap="round"></path><path d="M 128.000,88.000 C 124.887,90.376 124.481,89.368 122.000,93.000" stroke-width="3.929" stroke="black" fill="none" stroke-linecap="round"></path><path d="M 122.000,93.000 C 119.103,95.196 119.387,95.376 117.000,98.000" stroke-width="3.909" stroke="black" fill="none" stroke-linecap="round"></path><path d="M 117.000,98.000 C 114.425,101.295 114.603,101.196 113.000,105.000" stroke-width="4.335" stroke="black" fill="none" stroke-linecap="round"></path><path d="M 113.000,105.000 C 110.261,109.434 111.925,107.795 112.000,111.000" stroke-width="4.602" stroke="black" fill="none" stroke-linecap="round"></path><path d="M 112.000,111.000 C 117.445,113.383 115.261,113.934 123.000,114.000" stroke-width="4.751" stroke="black" fill="none" stroke-linecap="round"></path><path d="M 123.000,114.000 C 126.689,114.104 126.445,114.383 130.000,113.000" stroke-width="4.229" stroke="black" fill="none" stroke-linecap="round"></path><path d="M 130.000,113.000 C 134.125,111.215 134.189,111.604 138.000,109.000" stroke-width="3.774" stroke="black" fill="none" stroke-linecap="round"></path><path d="M 138.000,109.000 C 141.147,107.194 141.125,107.215 144.000,105.000" stroke-width="3.846" stroke="black" fill="none" stroke-linecap="round"></path><path d="M 144.000,105.000 C 151.000,101.464 147.647,102.194 151.000,99.000" stroke-width="4.216" stroke="black" fill="none" stroke-linecap="round"></path><path d="M 151.000,99.000 C 147.614,96.556 151.000,96.964 144.000,96.000" stroke-width="4.871" stroke="black" fill="none" stroke-linecap="round"></path><path d="M 144.000,96.000 C 140.591,95.705 141.114,95.556 138.000,97.000" stroke-width="4.769" stroke="black" fill="none" stroke-linecap="round"></path><path d="M 138.000,97.000 C 133.175,99.969 135.591,98.205 134.000,101.000" stroke-width="4.792" stroke="black" fill="none" stroke-linecap="round"></path><path d="M 134.000,101.000 C 138.314,102.922 135.175,102.469 142.000,102.000" stroke-width="5.086" stroke="black" fill="none" stroke-linecap="round"></path><path d="M 142.000,102.000 C 146.040,99.562 146.314,100.922 150.000,97.000" stroke-width="3.894" stroke="black" fill="none" stroke-linecap="round"></path><path d="M 150.000,97.000 C 154.601,94.142 154.540,94.062 159.000,91.000" stroke-width="3.672" stroke="black" fill="none" stroke-linecap="round"></path><path d="M 159.000,91.000 C 165.300,86.845 165.101,86.642 171.000,82.000" stroke-width="3.098" stroke="black" fill="none" stroke-linecap="round"></path><path d="M 171.000,82.000 C 175.000,78.000 175.300,78.345 179.000,74.000" stroke-width="3.233" stroke="black" fill="none" stroke-linecap="round"></path><path d="M 179.000,74.000 C 183.500,69.500 183.500,69.500 188.000,65.000" stroke-width="3.222" stroke="black" fill="none" stroke-linecap="round"></path><path d="M 188.000,65.000 C 192.155,61.141 192.000,61.000 196.000,57.000" stroke-width="3.329" stroke="black" fill="none" stroke-linecap="round"></path><path d="M 196.000,57.000 C 198.527,54.022 198.655,54.141 201.000,51.000" stroke-width="3.632" stroke="black" fill="none" stroke-linecap="round"></path><path d="M 201.000,51.000 C 203.080,48.560 203.027,48.522 205.000,46.000" stroke-width="3.938" stroke="black" fill="none" stroke-linecap="round"></path><path d="M 205.000,46.000 C 211.005,38.799 207.580,42.560 210.000,39.000" stroke-width="4.291" stroke="black" fill="none" stroke-linecap="round"></path><path d="M 210.000,39.000 C 204.877,42.855 208.505,39.299 200.000,47.000" stroke-width="4.544" stroke="black" fill="none" stroke-linecap="round"></path><path d="M 200.000,47.000 C 194.751,51.249 194.877,51.355 190.000,56.000" stroke-width="3.528" stroke="black" fill="none" stroke-linecap="round"></path><path d="M 190.000,56.000 C 185.125,61.619 184.751,61.249 180.000,67.000" stroke-width="3.076" stroke="black" fill="none" stroke-linecap="round"></path><path d="M 180.000,67.000 C 174.706,71.740 175.125,72.119 170.000,77.000" stroke-width="3.012" stroke="black" fill="none" stroke-linecap="round"></path><path d="M 170.000,77.000 C 166.500,81.500 166.206,81.240 163.000,86.000" stroke-width="3.500" stroke="black" fill="none" stroke-linecap="round"></path><path d="M 163.000,86.000 C 159.522,90.517 159.500,90.500 156.000,95.000" stroke-width="3.406" stroke="black" fill="none" stroke-linecap="round"></path><path d="M 156.000,95.000 C 153.832,97.383 154.022,97.517 152.000,100.000" stroke-width="3.812" stroke="black" fill="none" stroke-linecap="round"></path><path d="M 152.000,100.000 C 147.344,104.724 150.332,102.383 149.000,105.000" stroke-width="4.442" stroke="black" fill="none" stroke-linecap="round"></path><path d="M 149.000,105.000 C 156.778,104.311 153.344,105.724 164.000,102.000" stroke-width="4.347" stroke="black" fill="none" stroke-linecap="round"></path><path d="M 164.000,102.000 C 169.290,99.944 169.278,100.311 174.000,97.000" stroke-width="3.632" stroke="black" fill="none" stroke-linecap="round"></path><path d="M 174.000,97.000 C 176.745,94.072 177.290,94.944 180.000,92.000" stroke-width="3.679" stroke="black" fill="none" stroke-linecap="round"></path><path d="M 180.000,92.000 C 184.344,88.525 182.245,90.572 185.000,90.000" stroke-width="4.034" stroke="black" fill="none" stroke-linecap="round"></path><path d="M 185.000,90.000 C 185.008,95.622 186.344,93.025 184.000,101.000" stroke-width="4.639" stroke="black" fill="none" stroke-linecap="round"></path><path d="M 184.000,101.000 C 182.850,103.449 183.508,103.622 182.000,106.000" stroke-width="4.329" stroke="black" fill="none" stroke-linecap="round"></path><path d="M 182.000,106.000 C 178.732,111.478 180.850,109.449 180.000,113.000" stroke-width="4.553" stroke="black" fill="none" stroke-linecap="round"></path><path d="M 180.000,113.000 C 183.962,113.519 181.232,114.478 187.000,112.000" stroke-width="4.552" stroke="black" fill="none" stroke-linecap="round"></path><path d="M 187.000,112.000 C 190.238,108.605 190.962,110.019 194.000,106.000" stroke-width="3.878" stroke="black" fill="none" stroke-linecap="round"></path><path d="M 194.000,106.000 C 197.048,104.590 196.738,104.105 200.000,103.000" stroke-width="3.986" stroke="black" fill="none" stroke-linecap="round"></path><path d="M 200.000,103.000 C 205.501,98.700 203.548,101.090 207.000,99.000" stroke-width="4.379" stroke="black" fill="none" stroke-linecap="round"></path><path d="M 207.000,99.000 C 204.080,103.310 208.001,99.200 205.000,104.000" stroke-width="4.974" stroke="black" fill="none" stroke-linecap="round"></path><path d="M 205.000,104.000 C 211.000,100.983 206.080,104.810 211.000,102.000" stroke-width="5.224" stroke="black" fill="none" stroke-linecap="round"></path><path d="M 211.000,102.000 C 207.757,105.325 211.000,103.483 205.000,109.000" stroke-width="5.106" stroke="black" fill="none" stroke-linecap="round"></path><path d="M 205.000,109.000 C 200.670,113.834 203.257,111.325 202.000,114.000" stroke-width="4.873" stroke="black" fill="none" stroke-linecap="round"></path><path d="M 202.000,114.000 C 208.115,113.024 204.670,114.334 213.000,110.000" stroke-width="4.806" stroke="black" fill="none" stroke-linecap="round"></path><path d="M 213.000,110.000 C 218.023,105.525 218.615,106.524 223.000,101.000" stroke-width="3.504" stroke="black" fill="none" stroke-linecap="round"></path><path d="M 223.000,101.000 C 229.250,95.750 229.023,95.525 235.000,90.000" stroke-width="3.038" stroke="black" fill="none" stroke-linecap="round"></path><path d="M 235.000,90.000 C 240.750,83.250 241.250,83.750 247.000,77.000" stroke-width="2.772" stroke="black" fill="none" stroke-linecap="round"></path><path d="M 247.000,77.000 C 254.047,71.494 253.250,70.750 260.000,65.000" stroke-width="2.701" stroke="black" fill="none" stroke-linecap="round"></path><path d="M 260.000,65.000 C 264.500,59.000 265.047,59.494 269.000,53.000" stroke-width="2.896" stroke="black" fill="none" stroke-linecap="round"></path><path d="M 269.000,53.000 C 272.232,49.152 272.000,49.000 275.000,45.000" stroke-width="3.270" stroke="black" fill="none" stroke-linecap="round"></path><path d="M 275.000,45.000 C 277.469,41.675 277.232,41.652 279.000,38.000" stroke-width="3.634" stroke="black" fill="none" stroke-linecap="round"></path><path d="M 279.000,38.000 C 279.544,35.508 279.969,35.675 280.000,33.000" stroke-width="4.093" stroke="black" fill="none" stroke-linecap="round"></path><path d="M 280.000,33.000 C 282.332,27.666 280.544,30.008 281.000,27.000" stroke-width="4.704" stroke="black" fill="none" stroke-linecap="round"></path><path d="M 281.000,27.000 C 276.689,27.503 279.332,26.166 274.000,30.000" stroke-width="4.610" stroke="black" fill="none" stroke-linecap="round"></path><path d="M 274.000,30.000 C 270.729,35.175 269.689,34.003 267.000,40.000" stroke-width="3.515" stroke="black" fill="none" stroke-linecap="round"></path><path d="M 267.000,40.000 C 261.679,45.761 262.229,46.175 257.000,52.000" stroke-width="3.085" stroke="black" fill="none" stroke-linecap="round"></path><path d="M 257.000,52.000 C 253.062,58.042 252.679,57.761 249.000,64.000" stroke-width="2.995" stroke="black" fill="none" stroke-linecap="round"></path><path d="M 249.000,64.000 C 245.255,68.847 245.562,69.042 242.000,74.000" stroke-width="3.284" stroke="black" fill="none" stroke-linecap="round"></path><path d="M 242.000,74.000 C 239.186,78.355 239.255,78.347 237.000,83.000" stroke-width="3.380" stroke="black" fill="none" stroke-linecap="round"></path><path d="M 237.000,83.000 C 235.681,87.079 235.186,86.855 234.000,91.000" stroke-width="3.754" stroke="black" fill="none" stroke-linecap="round"></path><path d="M 234.000,91.000 C 232.387,93.949 232.681,94.079 231.000,97.000" stroke-width="3.898" stroke="black" fill="none" stroke-linecap="round"></path><path d="M 231.000,97.000 C 230.200,99.599 229.887,99.449 229.000,102.000" stroke-width="4.110" stroke="black" fill="none" stroke-linecap="round"></path><path d="M 229.000,102.000 C 225.480,106.220 227.700,104.599 226.000,107.000" stroke-width="4.557" stroke="black" fill="none" stroke-linecap="round"></path><path d="M 226.000,107.000 C 228.596,106.202 226.480,107.720 231.000,105.000" stroke-width="5.039" stroke="black" fill="none" stroke-linecap="round"></path><path d="M 231.000,105.000 C 235.283,101.986 235.596,102.702 240.000,100.000" stroke-width="3.919" stroke="black" fill="none" stroke-linecap="round"></path><path d="M 240.000,100.000 C 245.023,98.572 244.783,97.986 250.000,97.000" stroke-width="3.544" stroke="black" fill="none" stroke-linecap="round"></path><path d="M 250.000,97.000 C 254.458,95.362 254.523,95.572 259.000,94.000" stroke-width="3.590" stroke="black" fill="none" stroke-linecap="round"></path><path d="M 259.000,94.000 C 266.944,90.321 264.458,92.362 270.000,91.000" stroke-width="4.004" stroke="black" fill="none" stroke-linecap="round"></path><path d="M 270.000,91.000 C 269.956,94.305 271.444,91.321 268.000,96.000" stroke-width="4.681" stroke="black" fill="none" stroke-linecap="round"></path><path d="M 268.000,96.000 C 261.694,100.349 262.456,100.805 255.000,104.000" stroke-width="3.330" stroke="black" fill="none" stroke-linecap="round"></path><path d="M 255.000,104.000 C 245.216,109.486 245.194,109.349 235.000,114.000" stroke-width="2.574" stroke="black" fill="none" stroke-linecap="round"></path><path d="M 235.000,114.000 C 224.039,120.651 223.716,118.986 212.000,123.000" stroke-width="2.309" stroke="black" fill="none" stroke-linecap="round"></path><path d="M 212.000,123.000 C 182.569,127.674 183.039,128.651 153.000,130.000" stroke-width="2.148" stroke="black" fill="none" stroke-linecap="round"></path><path d="M 153.000,130.000 C 137.994,130.278 138.069,131.174 123.000,130.000" stroke-width="2.067" stroke="black" fill="none" stroke-linecap="round"></path><path d="M 123.000,130.000 C 110.934,130.137 110.994,129.778 99.000,129.000" stroke-width="2.191" stroke="black" fill="none" stroke-linecap="round"></path><path d="M 99.000,129.000 C 89.804,128.201 89.934,128.137 81.000,126.000" stroke-width="2.480" stroke="black" fill="none" stroke-linecap="round"></path><path d="M 81.000,126.000 C 75.528,124.717 75.804,124.701 71.000,122.000" stroke-width="3.038" stroke="black" fill="none" stroke-linecap="round"></path><path d="M 71.000,122.000 C 67.100,120.080 68.028,120.217 66.000,117.000" stroke-width="4.015" stroke="black" fill="none" stroke-linecap="round"></path><path d="M 66.000,117.000 C 64.433,112.073 64.600,113.080 66.000,108.000" stroke-width="3.715" stroke="black" fill="none" stroke-linecap="round"></path><path d="M 66.000,108.000 C 69.792,98.538 69.433,99.073 76.000,91.000" stroke-width="2.789" stroke="black" fill="none" stroke-linecap="round"></path><path d="M 76.000,91.000 C 84.011,81.166 83.792,81.538 94.000,74.000" stroke-width="2.480" stroke="black" fill="none" stroke-linecap="round"></path><path d="M 94.000,74.000 C 107.394,64.663 107.011,64.666 122.000,58.000" stroke-width="2.015" stroke="black" fill="none" stroke-linecap="round"></path><path d="M 122.000,58.000 C 136.192,51.822 135.894,51.663 151.000,48.000" stroke-width="2.009" stroke="black" fill="none" stroke-linecap="round"></path><path d="M 151.000,48.000 C 167.341,43.630 167.192,43.822 184.000,42.000" stroke-width="1.926" stroke="black" fill="none" stroke-linecap="round"></path><path d="M 184.000,42.000 C 213.491,40.135 213.341,39.130 243.000,39.000" stroke-width="1.403" stroke="black" fill="none" stroke-linecap="round"></path><path d="M 243.000,39.000 C 252.675,37.834 252.491,38.635 262.000,39.000" stroke-width="2.487" stroke="black" fill="none" stroke-linecap="round"></path><path d="M 262.000,39.000 C 271.052,39.381 268.675,39.834 275.000,43.000" stroke-width="2.850" stroke="black" fill="none" stroke-linecap="round"></path><path d="M 275.000,43.000 C 276.393,47.726 277.052,44.881 274.000,50.000" stroke-width="3.553" stroke="black" fill="none" stroke-linecap="round"></path><path d="M 274.000,50.000 C 264.674,56.295 266.393,57.226 255.000,62.000" stroke-width="2.606" stroke="black" fill="none" stroke-linecap="round"></path><path d="M 255.000,62.000 C 245.326,68.197 245.174,67.795 235.000,73.000" stroke-width="2.459" stroke="black" fill="none" stroke-linecap="round"></path><path d="M 235.000,73.000 C 223.679,78.024 223.826,78.197 212.000,82.000" stroke-width="2.280" stroke="black" fill="none" stroke-linecap="round"></path><path d="M 212.000,82.000 C 200.009,85.531 200.179,86.024 188.000,89.000" stroke-width="2.332" stroke="black" fill="none" stroke-linecap="round"></path><path d="M 188.000,89.000 C 177.570,92.282 177.509,92.031 167.000,95.000" stroke-width="2.364" stroke="black" fill="none" stroke-linecap="round"></path><path d="M 167.000,95.000 C 160.008,96.540 160.070,96.782 153.000,98.000" stroke-width="2.757" stroke="black" fill="none" stroke-linecap="round"></path><path d="M 284.000,97.000 C 286.236,94.691 286.500,95.500 289.000,94.000" stroke-width="5.297" stroke="black" fill="none" stroke-linecap="round"></path><path d="M 289.000,94.000 C 294.512,93.610 294.236,92.691 300.000,93.000" stroke-width="3.884" stroke="black" fill="none" stroke-linecap="round"></path><path d="M 300.000,93.000 C 308.004,92.032 308.012,92.110 316.000,91.000" stroke-width="3.057" stroke="black" fill="none" stroke-linecap="round"></path><path d="M 316.000,91.000 C 323.482,89.835 323.504,90.032 331.000,89.000" stroke-width="2.939" stroke="black" fill="none" stroke-linecap="round"></path><path d="M 331.000,89.000 C 337.007,88.571 336.982,88.335 343.000,88.000" stroke-width="3.228" stroke="black" fill="none" stroke-linecap="round"></path><path d="M 343.000,88.000 C 347.489,87.301 347.507,87.571 352.000,87.000" stroke-width="3.475" stroke="black" fill="none" stroke-linecap="round"></path><path d="M 352.000,87.000 C 357.339,85.458 354.989,86.801 358.000,87.000" stroke-width="4.284" stroke="black" fill="none" stroke-linecap="round"></path><path d="M 358.000,87.000 C 357.169,90.928 358.839,88.958 355.000,94.000" stroke-width="3.997" stroke="black" fill="none" stroke-linecap="round"></path><path d="M 355.000,94.000 C 350.270,98.815 351.169,99.428 346.000,104.000" stroke-width="3.356" stroke="black" fill="none" stroke-linecap="round"></path><path d="M 346.000,104.000 C 340.458,108.563 343.270,107.315 341.000,111.000" stroke-width="3.613" stroke="black" fill="none" stroke-linecap="round"></path><path d="M 341.000,111.000 C 344.663,113.954 341.458,113.063 348.000,113.000" stroke-width="4.356" stroke="black" fill="none" stroke-linecap="round"></path><path d="M 348.000,113.000 C 358.414,107.812 358.663,109.954 369.000,103.000" stroke-width="2.750" stroke="black" fill="none" stroke-linecap="round"></path><path d="M 369.000,103.000 C 380.301,97.480 380.414,97.812 392.000,93.000" stroke-width="2.397" stroke="black" fill="none" stroke-linecap="round"></path><path d="M 392.000,93.000 C 403.872,88.550 403.801,88.480 416.000,85.000" stroke-width="2.300" stroke="black" fill="none" stroke-linecap="round"></path><path d="M 416.000,85.000 C 424.405,82.185 424.372,82.550 433.000,81.000" stroke-width="2.613" stroke="black" fill="none" stroke-linecap="round"></path><path d="M 433.000,81.000 C 439.000,81.000 438.905,80.185 445.000,81.000" stroke-width="3.057" stroke="black" fill="none" stroke-linecap="round"></path><path d="M 445.000,81.000 C 453.463,80.069 448.500,81.000 452.000,81.000" stroke-width="4.029" stroke="black" fill="none" stroke-linecap="round"></path><path d="M 452.000,81.000 C 443.269,85.495 447.963,83.569 434.000,88.000" stroke-width="4.033" stroke="black" fill="none" stroke-linecap="round"></path><path d="M 434.000,88.000 C 424.524,89.671 424.769,90.495 415.000,91.000" stroke-width="2.944" stroke="black" fill="none" stroke-linecap="round"></path><path d="M 415.000,91.000 C 403.049,93.124 403.024,92.671 391.000,94.000" stroke-width="2.541" stroke="black" fill="none" stroke-linecap="round"></path><path d="M 391.000,94.000 C 375.500,94.508 375.549,95.124 360.000,95.000" stroke-width="2.067" stroke="black" fill="none" stroke-linecap="round"></path><path d="M 360.000,95.000 C 343.990,95.273 344.000,95.508 328.000,96.000" stroke-width="2.586" stroke="black" fill="none" stroke-linecap="round"></path><path d="M 328.000,96.000 C 310.760,95.303 310.990,96.773 294.000,98.000" stroke-width="2.042" stroke="black" fill="none" stroke-linecap="round"></path><path d="M 294.000,98.000 C 267.175,102.926 267.260,102.303 241.000,110.000" stroke-width="1.441" stroke="black" fill="none" stroke-linecap="round"></path><path d="M 241.000,110.000 C 230.566,114.185 230.175,112.926 220.000,118.000" stroke-width="2.084" stroke="black" fill="none" stroke-linecap="round"></path></svg>