<svg xmlns="http://www.w3.org/2000/svg" xmlns:xlink="http://www.w3.org/1999/xlink" viewBox="0 0 1460 581" width="1460" height="581"><path d="M 749.500,373.500 C 747.338,369.110 747.750,369.000 746.000,364.500" stroke-width="5.269" stroke="black" fill="none" stroke-linecap="round"></path><path d="M 746.000,364.500 C 744.482,361.219 745.088,361.360 745.000,358.000" stroke-width="4.300" stroke="black" fill="none" stroke-linecap="round"></path><path d="M 745.000,358.000 C 748.151,339.275 747.982,339.469 753.000,321.000" stroke-width="2.047" stroke="black" fill="none" stroke-linecap="round"></path><path d="M 753.000,321.000 C 759.586,302.963 757.901,302.525 764.500,284.500" stroke-width="1.814" stroke="black" fill="none" stroke-linecap="round"></path><path d="M 764.500,284.500 C 767.787,271.847 767.836,271.963 769.500,259.000" stroke-width="2.033" stroke="black" fill="none" stroke-linecap="round"></path><path d="M 769.500,259.000 C 770.641,249.234 770.787,249.347 770.500,239.500" stroke-width="2.410" stroke="black" fill="none" stroke-linecap="round"></path><path d="M 770.500,239.500 C 769.000,232.014 770.391,231.984 769.000,224.500" stroke-width="2.731" stroke="black" fill="none" stroke-linecap="round"></path><path d="M 769.000,224.500 C 768.168,212.159 769.000,212.514 770.500,200.500" stroke-width="2.373" stroke="black" fill="none" stroke-linecap="round"></path><path d="M 770.500,200.500 C 773.531,191.020 772.418,190.909 777.500,182.000" stroke-width="2.410" stroke="black" fill="none" stroke-linecap="round"></path><path d="M 777.500,182.000 C 783.643,174.144 779.031,178.520 781.500,175.500" stroke-width="3.244" stroke="black" fill="none" stroke-linecap="round"></path><path d="M 781.500,175.500 C 767.484,186.820 771.393,181.894 753.000,197.500" stroke-width="3.243" stroke="black" fill="none" stroke-linecap="round"></path><path d="M 753.000,197.500 C 742.500,204.750 742.734,205.070 732.000,212.000" stroke-width="2.407" stroke="black" fill="none" stroke-linecap="round"></path><path d="M 732.000,212.000 C 721.434,219.158 721.500,219.250 711.000,226.500" stroke-width="2.234" stroke="black" fill="none" stroke-linecap="round"></path><path d="M 711.000,226.500 C 708.050,228.821 707.934,228.658 705.000,231.000" stroke-width="3.189" stroke="black" fill="none" stroke-linecap="round"></path><path d="M 705.000,231.000 C 700.500,235.446 702.800,232.571 700.500,234.000" stroke-width="4.185" stroke="black" fill="none" stroke-linecap="round"></path><path d="M 700.500,234.000 C 701.353,226.361 700.500,230.196 705.000,220.500" stroke-width="4.003" stroke="black" fill="none" stroke-linecap="round"></path><path d="M 705.000,220.500 C 708.804,214.434 708.353,215.111 714.500,211.500" stroke-width="3.320" stroke="black" fill="none" stroke-linecap="round"></path><path d="M 714.500,211.500 C 726.164,205.719 725.304,205.934 738.000,203.500" stroke-width="2.522" stroke="black" fill="none" stroke-linecap="round"></path><path d="M 738.000,203.500 C 743.265,203.020 742.164,202.719 746.500,205.500" stroke-width="3.254" stroke="black" fill="none" stroke-linecap="round"></path><path d="M 746.500,205.500 C 751.947,209.570 750.765,208.770 753.000,215.000" stroke-width="3.266" stroke="black" fill="none" stroke-linecap="round"></path><path d="M 753.000,215.000 C 756.124,227.877 755.197,226.320 753.000,239.000" stroke-width="2.551" stroke="black" fill="none" stroke-linecap="round"></path><path d="M 753.000,239.000 C 747.634,249.906 749.874,250.127 740.500,259.500" stroke-width="2.332" stroke="black" fill="none" stroke-linecap="round"></path><path d="M 740.500,259.500 C 732.723,269.277 733.134,269.406 724.000,278.000" stroke-width="2.356" stroke="black" fill="none" stroke-linecap="round"></path><path d="M 724.000,278.000 C 720.821,281.226 720.973,281.027 717.000,283.000" stroke-width="3.138" stroke="black" fill="none" stroke-linecap="round"></path><path d="M 717.000,283.000 C 713.514,284.365 713.821,284.476 710.000,284.500" stroke-width="3.627" stroke="black" fill="none" stroke-linecap="round"></path><path d="M 710.000,284.500 C 706.036,281.690 707.014,284.615 704.000,283.500" stroke-width="4.498" stroke="black" fill="none" stroke-linecap="round"></path></svg>