<svg xmlns="http://www.w3.org/2000/svg" xmlns:xlink="http://www.w3.org/1999/xlink" viewBox="0 0 1460 576" width="1460" height="576"><path d="M 679.000,334.000 C 676.176,329.856 676.000,330.000 673.000,326.000" stroke-width="5.046" stroke="black" fill="none" stroke-linecap="round"></path><path d="M 673.000,326.000 C 669.703,320.634 669.176,321.356 665.000,317.000" stroke-width="3.603" stroke="black" fill="none" stroke-linecap="round"></path><path d="M 665.000,317.000 C 657.699,313.466 658.703,312.134 651.000,309.000" stroke-width="3.070" stroke="black" fill="none" stroke-linecap="round"></path><path d="M 651.000,309.000 C 638.376,302.376 639.699,301.466 629.000,293.000" stroke-width="2.305" stroke="black" fill="none" stroke-linecap="round"></path><path d="M 629.000,293.000 C 621.871,287.305 624.376,288.376 623.000,281.000" stroke-width="2.835" stroke="black" fill="none" stroke-linecap="round"></path><path d="M 623.000,281.000 C 627.859,250.506 627.871,253.805 641.000,226.000" stroke-width="2.230" stroke="black" fill="none" stroke-linecap="round"></path><path d="M 641.000,226.000 C 649.159,216.360 646.359,216.006 660.000,212.000" stroke-width="2.316" stroke="black" fill="none" stroke-linecap="round"></path><path d="M 660.000,212.000 C 696.297,192.393 695.159,197.860 733.000,189.000" stroke-width="1.177" stroke="black" fill="none" stroke-linecap="round"></path><path d="M 733.000,189.000 C 758.416,190.008 755.797,186.893 779.000,201.000" stroke-width="1.375" stroke="black" fill="none" stroke-linecap="round"></path><path d="M 779.000,201.000 C 810.552,220.143 809.916,217.508 836.000,244.000" stroke-width="1.656" stroke="black" fill="none" stroke-linecap="round"></path><path d="M 836.000,244.000 C 841.939,252.249 842.552,250.143 843.000,261.000" stroke-width="2.229" stroke="black" fill="none" stroke-linecap="round"></path><path d="M 843.000,261.000 C 844.589,270.822 843.939,268.749 840.000,277.000" stroke-width="2.593" stroke="black" fill="none" stroke-linecap="round"></path><path d="M 840.000,277.000 C 830.534,292.364 831.589,288.322 817.000,296.000" stroke-width="2.181" stroke="black" fill="none" stroke-linecap="round"></path><path d="M 817.000,296.000 C 790.213,302.088 797.034,301.364 773.000,295.000" stroke-width="2.364" stroke="black" fill="none" stroke-linecap="round"></path><path d="M 773.000,295.000 C 763.085,283.536 764.713,291.588 766.000,275.000" stroke-width="2.460" stroke="black" fill="none" stroke-linecap="round"></path><path d="M 766.000,275.000 C 773.891,260.363 770.085,263.036 787.000,254.000" stroke-width="2.095" stroke="black" fill="none" stroke-linecap="round"></path><path d="M 787.000,254.000 C 827.312,228.840 825.391,235.363 869.000,225.000" stroke-width="1.125" stroke="black" fill="none" stroke-linecap="round"></path><path d="M 869.000,225.000 C 905.141,229.554 903.312,221.840 939.000,240.000" stroke-width="1.476" stroke="black" fill="none" stroke-linecap="round"></path><path d="M 939.000,240.000 C 950.749,247.514 952.141,244.054 963.000,254.000" stroke-width="1.924" stroke="black" fill="none" stroke-linecap="round"></path><path d="M 963.000,254.000 C 973.953,255.523 967.749,256.514 973.000,258.000" stroke-width="2.746" stroke="black" fill="none" stroke-linecap="round"></path><path d="M 973.000,258.000 C 966.392,265.268 971.453,262.023 958.000,267.000" stroke-width="3.618" stroke="black" fill="none" stroke-linecap="round"></path></svg>