<svg xmlns="http://www.w3.org/2000/svg" xmlns:xlink="http://www.w3.org/1999/xlink" viewBox="0 0 1460 576" width="1460" height="576"><path d="M 436.000,147.000 C 436.293,152.021 436.000,152.000 436.000,157.000" stroke-width="5.100" stroke="black" fill="none" stroke-linecap="round"></path><path d="M 436.000,157.000 C 435.703,160.536 435.793,160.521 435.000,164.000" stroke-width="4.197" stroke="black" fill="none" stroke-linecap="round"></path><path d="M 435.000,164.000 C 429.165,195.152 428.703,195.036 422.000,226.000" stroke-width="1.452" stroke="black" fill="none" stroke-linecap="round"></path><path d="M 422.000,226.000 C 410.551,272.513 411.165,272.652 399.000,319.000" stroke-width="1.125" stroke="black" fill="none" stroke-linecap="round"></path><path d="M 399.000,319.000 C 390.102,355.027 390.051,355.013 381.000,391.000" stroke-width="1.125" stroke="black" fill="none" stroke-linecap="round"></path><path d="M 381.000,391.000 C 379.356,396.463 379.602,396.527 378.000,402.000" stroke-width="1.905" stroke="black" fill="none" stroke-linecap="round"></path><path d="M 378.000,402.000 C 373.636,421.035 373.356,420.963 369.000,440.000" stroke-width="1.812" stroke="black" fill="none" stroke-linecap="round"></path><path d="M 369.000,440.000 C 367.548,443.437 368.136,443.535 367.000,447.000" stroke-width="3.132" stroke="black" fill="none" stroke-linecap="round"></path><path d="M 396.000,203.000 C 399.367,201.106 399.500,201.500 403.000,200.000" stroke-width="5.338" stroke="black" fill="none" stroke-linecap="round"></path><path d="M 403.000,200.000 C 410.938,197.710 410.867,197.606 419.000,196.000" stroke-width="3.318" stroke="black" fill="none" stroke-linecap="round"></path><path d="M 419.000,196.000 C 427.410,193.134 427.438,194.210 436.000,193.000" stroke-width="2.931" stroke="black" fill="none" stroke-linecap="round"></path><path d="M 436.000,193.000 C 459.571,193.136 459.410,192.634 483.000,195.000" stroke-width="1.751" stroke="black" fill="none" stroke-linecap="round"></path><path d="M 483.000,195.000 C 503.749,196.239 503.571,196.636 524.000,200.000" stroke-width="1.621" stroke="black" fill="none" stroke-linecap="round"></path><path d="M 524.000,200.000 C 539.089,202.625 538.749,202.739 553.000,208.000" stroke-width="1.840" stroke="black" fill="none" stroke-linecap="round"></path><path d="M 553.000,208.000 C 561.700,211.300 561.089,211.125 568.000,217.000" stroke-width="2.361" stroke="black" fill="none" stroke-linecap="round"></path><path d="M 568.000,217.000 C 575.701,222.579 572.200,220.800 574.000,227.000" stroke-width="3.369" stroke="black" fill="none" stroke-linecap="round"></path><path d="M 574.000,227.000 C 566.903,236.075 570.701,235.579 558.000,243.000" stroke-width="2.638" stroke="black" fill="none" stroke-linecap="round"></path><path d="M 558.000,243.000 C 534.765,259.892 535.403,260.575 511.000,276.000" stroke-width="1.518" stroke="black" fill="none" stroke-linecap="round"></path><path d="M 511.000,276.000 C 488.829,289.057 489.765,290.392 468.000,304.000" stroke-width="1.387" stroke="black" fill="none" stroke-linecap="round"></path><path d="M 468.000,304.000 C 444.548,324.640 442.829,322.057 419.000,342.000" stroke-width="1.740" stroke="black" fill="none" stroke-linecap="round"></path><path d="M 419.000,342.000 C 404.960,351.390 405.548,351.140 390.000,357.000" stroke-width="1.866" stroke="black" fill="none" stroke-linecap="round"></path><path d="M 390.000,357.000 C 384.221,358.450 384.960,358.890 379.000,357.000" stroke-width="2.697" stroke="black" fill="none" stroke-linecap="round"></path><path d="M 379.000,357.000 C 366.226,352.521 366.221,353.450 354.000,347.000" stroke-width="2.992" stroke="black" fill="none" stroke-linecap="round"></path><path d="M 545.000,284.000 C 546.392,278.467 546.500,278.500 548.000,273.000" stroke-width="4.649" stroke="black" fill="none" stroke-linecap="round"></path><path d="M 548.000,273.000 C 548.658,269.851 548.892,269.967 550.000,267.000" stroke-width="4.142" stroke="black" fill="none" stroke-linecap="round"></path><path d="M 550.000,267.000 C 552.359,261.057 552.658,261.351 556.000,256.000" stroke-width="3.397" stroke="black" fill="none" stroke-linecap="round"></path><path d="M 556.000,256.000 C 562.612,249.441 561.359,248.557 568.000,242.000" stroke-width="2.939" stroke="black" fill="none" stroke-linecap="round"></path><path d="M 568.000,242.000 C 572.242,234.320 573.112,234.941 577.000,227.000" stroke-width="2.758" stroke="black" fill="none" stroke-linecap="round"></path><path d="M 577.000,227.000 C 580.875,220.252 578.742,224.320 581.000,222.000" stroke-width="3.533" stroke="black" fill="none" stroke-linecap="round"></path><path d="M 581.000,222.000 C 580.932,231.959 581.375,227.252 578.000,241.000" stroke-width="4.244" stroke="black" fill="none" stroke-linecap="round"></path><path d="M 578.000,241.000 C 573.292,249.901 574.932,250.459 569.000,259.000" stroke-width="2.762" stroke="black" fill="none" stroke-linecap="round"></path><path d="M 569.000,259.000 C 561.311,276.655 560.792,276.401 553.000,294.000" stroke-width="1.878" stroke="black" fill="none" stroke-linecap="round"></path><path d="M 553.000,294.000 C 548.877,300.211 549.811,300.655 546.000,307.000" stroke-width="2.549" stroke="black" fill="none" stroke-linecap="round"></path><path d="M 546.000,307.000 C 535.457,329.523 536.377,329.711 528.000,353.000" stroke-width="1.656" stroke="black" fill="none" stroke-linecap="round"></path><path d="M 528.000,353.000 C 524.168,372.676 521.957,372.023 519.000,392.000" stroke-width="1.671" stroke="black" fill="none" stroke-linecap="round"></path><path d="M 519.000,392.000 C 512.630,415.728 512.668,415.676 505.000,439.000" stroke-width="1.887" stroke="black" fill="none" stroke-linecap="round"></path><path d="M 505.000,439.000 C 502.282,446.138 502.630,446.228 499.000,453.000" stroke-width="2.532" stroke="black" fill="none" stroke-linecap="round"></path><path d="M 499.000,453.000 C 496.724,457.642 496.782,457.638 494.000,462.000" stroke-width="3.096" stroke="black" fill="none" stroke-linecap="round"></path><path d="M 494.000,462.000 C 487.648,470.720 491.724,465.642 489.000,469.000" stroke-width="3.517" stroke="black" fill="none" stroke-linecap="round"></path><path d="M 489.000,469.000 C 497.887,459.065 493.148,463.720 505.000,448.000" stroke-width="4.374" stroke="black" fill="none" stroke-linecap="round"></path><path d="M 505.000,448.000 C 510.381,437.436 511.387,438.065 516.000,427.000" stroke-width="2.728" stroke="black" fill="none" stroke-linecap="round"></path><path d="M 516.000,427.000 C 520.391,417.614 520.881,417.936 526.000,409.000" stroke-width="2.596" stroke="black" fill="none" stroke-linecap="round"></path><path d="M 526.000,409.000 C 533.998,395.624 534.391,396.114 544.000,384.000" stroke-width="2.085" stroke="black" fill="none" stroke-linecap="round"></path><path d="M 544.000,384.000 C 553.871,375.363 552.498,374.124 563.000,366.000" stroke-width="2.174" stroke="black" fill="none" stroke-linecap="round"></path><path d="M 563.000,366.000 C 572.034,353.922 573.371,355.363 583.000,344.000" stroke-width="2.026" stroke="black" fill="none" stroke-linecap="round"></path><path d="M 583.000,344.000 C 593.508,335.044 593.034,334.922 605.000,328.000" stroke-width="2.513" stroke="black" fill="none" stroke-linecap="round"></path><path d="M 605.000,328.000 C 609.535,325.319 609.008,325.544 614.000,325.000" stroke-width="3.192" stroke="black" fill="none" stroke-linecap="round"></path><path d="M 614.000,325.000 C 617.582,324.952 616.535,324.819 619.000,327.000" stroke-width="4.308" stroke="black" fill="none" stroke-linecap="round"></path><path d="M 619.000,327.000 C 621.692,332.330 622.082,331.452 623.000,338.000" stroke-width="3.636" stroke="black" fill="none" stroke-linecap="round"></path><path d="M 623.000,338.000 C 624.462,345.469 624.692,345.330 625.000,353.000" stroke-width="3.080" stroke="black" fill="none" stroke-linecap="round"></path><path d="M 625.000,353.000 C 625.330,359.511 625.462,359.469 625.000,366.000" stroke-width="3.096" stroke="black" fill="none" stroke-linecap="round"></path><path d="M 625.000,366.000 C 625.036,389.234 623.830,389.011 622.000,412.000" stroke-width="2.564" stroke="black" fill="none" stroke-linecap="round"></path><path d="M 622.000,412.000 C 618.794,426.584 620.036,426.734 615.000,441.000" stroke-width="2.112" stroke="black" fill="none" stroke-linecap="round"></path><path d="M 615.000,441.000 C 613.146,445.416 613.794,445.584 612.000,450.000" stroke-width="2.977" stroke="black" fill="none" stroke-linecap="round"></path><path d="M 766.000,360.000 C 763.518,359.387 763.500,359.500 761.000,359.000" stroke-width="4.989" stroke="black" fill="none" stroke-linecap="round"></path><path d="M 761.000,359.000 C 756.926,357.367 757.018,358.387 753.000,358.000" stroke-width="4.105" stroke="black" fill="none" stroke-linecap="round"></path><path d="M 753.000,358.000 C 741.034,359.797 741.426,359.867 730.000,364.000" stroke-width="2.692" stroke="black" fill="none" stroke-linecap="round"></path><path d="M 730.000,364.000 C 720.750,369.568 720.034,367.797 711.000,374.000" stroke-width="2.544" stroke="black" fill="none" stroke-linecap="round"></path><path d="M 711.000,374.000 C 704.115,376.892 704.250,377.068 697.000,379.000" stroke-width="2.847" stroke="black" fill="none" stroke-linecap="round"></path><path d="M 697.000,379.000 C 689.942,379.277 690.615,380.892 684.000,382.000" stroke-width="3.054" stroke="black" fill="none" stroke-linecap="round"></path><path d="M 684.000,382.000 C 676.033,384.211 677.942,384.777 673.000,390.000" stroke-width="3.629" stroke="black" fill="none" stroke-linecap="round"></path><path d="M 673.000,390.000 C 662.728,406.520 665.033,405.211 662.000,424.000" stroke-width="2.134" stroke="black" fill="none" stroke-linecap="round"></path><path d="M 662.000,424.000 C 663.775,455.456 660.728,454.520 669.000,486.000" stroke-width="1.278" stroke="black" fill="none" stroke-linecap="round"></path><path d="M 669.000,486.000 C 670.444,494.030 670.275,493.456 675.000,500.000" stroke-width="2.093" stroke="black" fill="none" stroke-linecap="round"></path><path d="M 675.000,500.000 C 685.653,513.149 684.944,513.030 698.000,524.000" stroke-width="1.957" stroke="black" fill="none" stroke-linecap="round"></path><path d="M 698.000,524.000 C 703.021,530.483 702.153,527.649 708.000,529.000" stroke-width="2.781" stroke="black" fill="none" stroke-linecap="round"></path><path d="M 708.000,529.000 C 729.896,523.216 726.521,523.483 745.000,510.000" stroke-width="2.397" stroke="black" fill="none" stroke-linecap="round"></path><path d="M 745.000,510.000 C 755.269,495.425 757.896,498.716 764.000,480.000" stroke-width="2.020" stroke="black" fill="none" stroke-linecap="round"></path><path d="M 764.000,480.000 C 768.523,467.893 770.269,468.925 775.000,457.000" stroke-width="2.176" stroke="black" fill="none" stroke-linecap="round"></path><path d="M 775.000,457.000 C 781.074,450.389 779.523,449.393 786.000,443.000" stroke-width="2.495" stroke="black" fill="none" stroke-linecap="round"></path><path d="M 786.000,443.000 C 791.780,433.636 792.074,433.889 797.000,424.000" stroke-width="2.407" stroke="black" fill="none" stroke-linecap="round"></path><path d="M 797.000,424.000 C 798.898,421.651 798.280,421.636 799.000,419.000" stroke-width="3.466" stroke="black" fill="none" stroke-linecap="round"></path><path d="M 799.000,419.000 C 802.232,406.909 799.398,408.651 798.000,398.000" stroke-width="3.473" stroke="black" fill="none" stroke-linecap="round"></path><path d="M 798.000,398.000 C 789.806,387.453 792.732,386.909 780.000,379.000" stroke-width="2.485" stroke="black" fill="none" stroke-linecap="round"></path><path d="M 780.000,379.000 C 774.931,374.812 775.306,374.953 769.000,373.000" stroke-width="2.968" stroke="black" fill="none" stroke-linecap="round"></path><path d="M 769.000,373.000 C 756.599,369.500 756.931,369.312 744.000,368.000" stroke-width="2.360" stroke="black" fill="none" stroke-linecap="round"></path><path d="M 744.000,368.000 C 735.438,367.375 735.599,367.000 727.000,368.000" stroke-width="2.659" stroke="black" fill="none" stroke-linecap="round"></path><path d="M 727.000,368.000 C 721.686,368.243 721.938,368.375 717.000,370.000" stroke-width="3.159" stroke="black" fill="none" stroke-linecap="round"></path><path d="M 717.000,370.000 C 713.640,371.600 713.686,371.243 711.000,374.000" stroke-width="3.630" stroke="black" fill="none" stroke-linecap="round"></path><path d="M 711.000,374.000 C 705.760,377.124 708.140,376.600 706.000,380.000" stroke-width="4.243" stroke="black" fill="none" stroke-linecap="round"></path><path d="M 886.000,237.000 C 886.000,241.000 886.000,241.000 886.000,245.000" stroke-width="5.026" stroke="black" fill="none" stroke-linecap="round"></path><path d="M 886.000,245.000 C 886.203,248.008 886.000,248.000 886.000,251.000" stroke-width="4.385" stroke="black" fill="none" stroke-linecap="round"></path><path d="M 886.000,251.000 C 885.015,277.616 884.203,277.508 882.000,304.000" stroke-width="1.649" stroke="black" fill="none" stroke-linecap="round"></path><path d="M 882.000,304.000 C 878.323,330.059 879.015,330.116 874.000,356.000" stroke-width="1.446" stroke="black" fill="none" stroke-linecap="round"></path><path d="M 874.000,356.000 C 872.068,362.926 872.823,363.059 871.000,370.000" stroke-width="2.256" stroke="black" fill="none" stroke-linecap="round"></path><path d="M 871.000,370.000 C 869.222,389.665 868.068,389.426 866.000,409.000" stroke-width="1.834" stroke="black" fill="none" stroke-linecap="round"></path><path d="M 866.000,409.000 C 864.558,413.520 865.222,413.665 863.000,418.000" stroke-width="2.797" stroke="black" fill="none" stroke-linecap="round"></path><path d="M 947.000,319.000 C 941.573,317.115 941.500,317.500 936.000,316.000" stroke-width="4.377" stroke="black" fill="none" stroke-linecap="round"></path><path d="M 936.000,316.000 C 931.506,314.780 931.573,315.115 927.000,315.000" stroke-width="3.796" stroke="black" fill="none" stroke-linecap="round"></path><path d="M 927.000,315.000 C 910.953,316.123 911.006,315.780 895.000,318.000" stroke-width="2.205" stroke="black" fill="none" stroke-linecap="round"></path><path d="M 895.000,318.000 C 885.531,319.729 885.453,319.123 876.000,321.000" stroke-width="2.492" stroke="black" fill="none" stroke-linecap="round"></path><path d="M 876.000,321.000 C 863.010,322.594 863.031,322.729 850.000,324.000" stroke-width="2.291" stroke="black" fill="none" stroke-linecap="round"></path><path d="M 850.000,324.000 C 844.488,324.390 844.510,324.594 839.000,325.000" stroke-width="2.930" stroke="black" fill="none" stroke-linecap="round"></path><path d="M 839.000,325.000 C 831.022,326.358 830.988,325.890 823.000,327.000" stroke-width="2.900" stroke="black" fill="none" stroke-linecap="round"></path><path d="M 823.000,327.000 C 818.500,327.000 818.522,327.358 814.000,327.000" stroke-width="3.305" stroke="black" fill="none" stroke-linecap="round"></path><path d="M 979.000,355.000 C 973.843,354.031 974.000,355.000 969.000,355.000" stroke-width="4.980" stroke="black" fill="none" stroke-linecap="round"></path><path d="M 969.000,355.000 C 960.574,355.891 961.343,356.531 954.000,360.000" stroke-width="3.250" stroke="black" fill="none" stroke-linecap="round"></path><path d="M 954.000,360.000 C 945.903,368.005 944.574,365.891 937.000,375.000" stroke-width="2.613" stroke="black" fill="none" stroke-linecap="round"></path><path d="M 937.000,375.000 C 923.777,383.186 924.903,384.505 912.000,393.000" stroke-width="2.152" stroke="black" fill="none" stroke-linecap="round"></path><path d="M 912.000,393.000 C 906.184,398.736 905.777,398.186 901.000,405.000" stroke-width="2.561" stroke="black" fill="none" stroke-linecap="round"></path><path d="M 901.000,405.000 C 894.524,413.519 894.184,413.236 888.000,422.000" stroke-width="2.451" stroke="black" fill="none" stroke-linecap="round"></path><path d="M 888.000,422.000 C 884.420,426.440 884.524,426.519 881.000,431.000" stroke-width="3.027" stroke="black" fill="none" stroke-linecap="round"></path><path d="M 881.000,431.000 C 876.698,433.984 878.420,434.440 876.000,438.000" stroke-width="3.443" stroke="black" fill="none" stroke-linecap="round"></path><path d="M 876.000,438.000 C 874.078,447.093 874.698,445.484 877.000,454.000" stroke-width="2.974" stroke="black" fill="none" stroke-linecap="round"></path><path d="M 877.000,454.000 C 880.466,461.892 879.578,460.093 887.000,464.000" stroke-width="2.982" stroke="black" fill="none" stroke-linecap="round"></path><path d="M 887.000,464.000 C 913.024,471.245 911.466,471.892 939.000,474.000" stroke-width="2.211" stroke="black" fill="none" stroke-linecap="round"></path><path d="M 939.000,474.000 C 947.409,475.091 946.024,474.745 953.000,471.000" stroke-width="2.692" stroke="black" fill="none" stroke-linecap="round"></path><path d="M 953.000,471.000 C 970.458,459.903 967.909,460.091 980.000,444.000" stroke-width="2.632" stroke="black" fill="none" stroke-linecap="round"></path><path d="M 980.000,444.000 C 986.480,425.109 989.958,427.403 992.000,406.000" stroke-width="1.886" stroke="black" fill="none" stroke-linecap="round"></path><path d="M 992.000,406.000 C 991.889,402.333 992.980,402.609 993.000,399.000" stroke-width="2.983" stroke="black" fill="none" stroke-linecap="round"></path><path d="M 993.000,399.000 C 996.380,390.448 995.889,390.333 1000.000,382.000" stroke-width="2.781" stroke="black" fill="none" stroke-linecap="round"></path><path d="M 1000.000,382.000 C 1003.285,376.716 1002.380,376.448 1005.000,371.000" stroke-width="3.599" stroke="black" fill="none" stroke-linecap="round"></path><path d="M 1005.000,371.000 C 1006.857,366.284 1006.285,366.716 1006.000,362.000" stroke-width="4.133" stroke="black" fill="none" stroke-linecap="round"></path><path d="M 1006.000,362.000 C 1003.902,356.277 1004.857,356.284 1001.000,351.000" stroke-width="3.503" stroke="black" fill="none" stroke-linecap="round"></path><path d="M 1001.000,351.000 C 999.400,344.892 998.402,346.277 995.000,342.000" stroke-width="3.399" stroke="black" fill="none" stroke-linecap="round"></path><path d="M 995.000,342.000 C 980.726,332.153 981.900,333.392 966.000,328.000" stroke-width="2.993" stroke="black" fill="none" stroke-linecap="round"></path><path d="M 966.000,328.000 C 960.660,328.807 961.226,326.653 956.000,331.000" stroke-width="3.321" stroke="black" fill="none" stroke-linecap="round"></path><path d="M 956.000,331.000 C 952.318,333.285 952.160,332.807 949.000,336.000" stroke-width="4.061" stroke="black" fill="none" stroke-linecap="round"></path><path d="M 1118.000,401.000 C 1113.102,406.598 1113.000,406.500 1108.000,412.000" stroke-width="5.030" stroke="black" fill="none" stroke-linecap="round"></path><path d="M 1108.000,412.000 C 1104.633,415.646 1104.602,415.598 1101.000,419.000" stroke-width="3.830" stroke="black" fill="none" stroke-linecap="round"></path><path d="M 1101.000,419.000 C 1097.900,421.390 1098.133,421.646 1095.000,424.000" stroke-width="3.847" stroke="black" fill="none" stroke-linecap="round"></path><path d="M 1095.000,424.000 C 1092.378,425.562 1092.900,425.890 1091.000,428.000" stroke-width="4.058" stroke="black" fill="none" stroke-linecap="round"></path><path d="M 1091.000,428.000 C 1086.266,437.401 1085.878,437.062 1082.000,447.000" stroke-width="2.763" stroke="black" fill="none" stroke-linecap="round"></path><path d="M 1082.000,447.000 C 1079.881,450.888 1080.266,450.901 1079.000,455.000" stroke-width="3.383" stroke="black" fill="none" stroke-linecap="round"></path><path d="M 1079.000,455.000 C 1077.040,459.530 1078.381,457.888 1079.000,461.000" stroke-width="4.216" stroke="black" fill="none" stroke-linecap="round"></path><path d="M 1079.000,461.000 C 1085.045,463.669 1083.040,464.030 1091.000,464.000" stroke-width="4.151" stroke="black" fill="none" stroke-linecap="round"></path><path d="M 1091.000,464.000 C 1094.466,463.754 1094.045,464.169 1097.000,462.000" stroke-width="4.115" stroke="black" fill="none" stroke-linecap="round"></path><path d="M 1097.000,462.000 C 1101.085,458.886 1100.966,459.254 1104.000,455.000" stroke-width="3.706" stroke="black" fill="none" stroke-linecap="round"></path><path d="M 1104.000,455.000 C 1105.080,452.529 1105.585,452.886 1106.000,450.000" stroke-width="4.044" stroke="black" fill="none" stroke-linecap="round"></path><path d="M 1106.000,450.000 C 1107.235,447.058 1107.080,447.029 1108.000,444.000" stroke-width="4.083" stroke="black" fill="none" stroke-linecap="round"></path><path d="M 1108.000,444.000 C 1108.570,441.010 1108.735,441.058 1109.000,438.000" stroke-width="4.078" stroke="black" fill="none" stroke-linecap="round"></path><path d="M 1109.000,438.000 C 1109.210,433.948 1109.570,434.010 1110.000,430.000" stroke-width="3.836" stroke="black" fill="none" stroke-linecap="round"></path><path d="M 1110.000,430.000 C 1110.753,420.993 1111.710,421.448 1114.000,413.000" stroke-width="3.751" stroke="black" fill="none" stroke-linecap="round"></path><path d="M 1114.000,413.000 C 1117.670,404.852 1117.253,404.993 1123.000,398.000" stroke-width="4.060" stroke="black" fill="none" stroke-linecap="round"></path><path d="M 1123.000,398.000 C 1129.766,392.649 1128.170,391.352 1135.000,386.000" stroke-width="3.027" stroke="black" fill="none" stroke-linecap="round"></path><path d="M 1135.000,386.000 C 1146.315,367.422 1148.266,369.149 1160.000,351.000" stroke-width="1.792" stroke="black" fill="none" stroke-linecap="round"></path><path d="M 1160.000,351.000 C 1167.998,345.002 1166.315,343.422 1175.000,338.000" stroke-width="2.287" stroke="black" fill="none" stroke-linecap="round"></path><path d="M 1175.000,338.000 C 1182.397,329.403 1182.998,330.002 1190.000,321.000" stroke-width="2.254" stroke="black" fill="none" stroke-linecap="round"></path><path d="M 1190.000,321.000 C 1191.350,317.318 1191.897,318.903 1194.000,317.000" stroke-width="3.371" stroke="black" fill="none" stroke-linecap="round"></path><path d="M 1194.000,317.000 C 1205.157,315.813 1203.850,315.818 1215.000,318.000" stroke-width="3.444" stroke="black" fill="none" stroke-linecap="round"></path><path d="M 1215.000,318.000 C 1218.148,320.338 1218.657,318.813 1221.000,323.000" stroke-width="3.618" stroke="black" fill="none" stroke-linecap="round"></path><path d="M 1123.000,259.000 C 1125.875,256.785 1126.000,257.000 1129.000,255.000" stroke-width="4.393" stroke="black" fill="none" stroke-linecap="round"></path><path d="M 1129.000,255.000 C 1132.855,252.658 1132.875,252.785 1137.000,251.000" stroke-width="3.873" stroke="black" fill="none" stroke-linecap="round"></path><path d="M 1137.000,251.000 C 1145.327,247.313 1145.355,247.658 1154.000,245.000" stroke-width="2.995" stroke="black" fill="none" stroke-linecap="round"></path><path d="M 1154.000,245.000 C 1160.445,243.279 1160.327,243.313 1167.000,243.000" stroke-width="3.059" stroke="black" fill="none" stroke-linecap="round"></path><path d="M 1167.000,243.000 C 1184.215,241.571 1183.945,242.279 1201.000,243.000" stroke-width="2.054" stroke="black" fill="none" stroke-linecap="round"></path><path d="M 1201.000,243.000 C 1207.759,244.352 1207.715,243.571 1214.000,247.000" stroke-width="2.657" stroke="black" fill="none" stroke-linecap="round"></path><path d="M 1214.000,247.000 C 1224.424,251.314 1224.259,251.352 1234.000,257.000" stroke-width="2.494" stroke="black" fill="none" stroke-linecap="round"></path><path d="M 1234.000,257.000 C 1240.252,261.210 1240.424,260.814 1246.000,266.000" stroke-width="2.709" stroke="black" fill="none" stroke-linecap="round"></path><path d="M 1246.000,266.000 C 1250.169,268.338 1249.252,268.710 1252.000,272.000" stroke-width="3.363" stroke="black" fill="none" stroke-linecap="round"></path><path d="M 1252.000,272.000 C 1256.825,278.526 1254.669,277.338 1255.000,284.000" stroke-width="3.343" stroke="black" fill="none" stroke-linecap="round"></path><path d="M 1255.000,284.000 C 1249.706,298.294 1250.825,296.526 1240.000,308.000" stroke-width="2.373" stroke="black" fill="none" stroke-linecap="round"></path><path d="M 1240.000,308.000 C 1228.877,313.069 1231.706,316.294 1219.000,320.000" stroke-width="2.337" stroke="black" fill="none" stroke-linecap="round"></path><path d="M 1219.000,320.000 C 1201.356,334.514 1200.377,333.069 1183.000,348.000" stroke-width="1.705" stroke="black" fill="none" stroke-linecap="round"></path><path d="M 1183.000,348.000 C 1176.702,352.358 1176.856,352.514 1170.000,356.000" stroke-width="2.341" stroke="black" fill="none" stroke-linecap="round"></path><path d="M 1170.000,356.000 C 1153.060,363.745 1153.702,364.858 1137.000,373.000" stroke-width="2.017" stroke="black" fill="none" stroke-linecap="round"></path><path d="M 1137.000,373.000 C 1124.414,382.220 1123.560,380.745 1111.000,390.000" stroke-width="2.144" stroke="black" fill="none" stroke-linecap="round"></path><path d="M 1111.000,390.000 C 1098.937,395.878 1099.414,396.720 1087.000,402.000" stroke-width="2.170" stroke="black" fill="none" stroke-linecap="round"></path><path d="M 1087.000,402.000 C 1079.446,405.905 1079.437,405.878 1072.000,410.000" stroke-width="2.532" stroke="black" fill="none" stroke-linecap="round"></path><path d="M 1072.000,410.000 C 1069.284,411.223 1069.446,411.405 1067.000,413.000" stroke-width="3.531" stroke="black" fill="none" stroke-linecap="round"></path><path d="M 1067.000,413.000 C 1065.000,415.000 1064.784,414.723 1063.000,417.000" stroke-width="4.334" stroke="black" fill="none" stroke-linecap="round"></path><path d="M 1063.000,417.000 C 1058.915,420.114 1059.500,420.500 1056.000,424.000" stroke-width="4.350" stroke="black" fill="none" stroke-linecap="round"></path><path d="M 1056.000,424.000 C 1052.964,427.343 1054.415,426.114 1054.000,429.000" stroke-width="4.853" stroke="black" fill="none" stroke-linecap="round"></path><path d="M 1054.000,429.000 C 1057.758,430.055 1055.464,431.343 1061.000,432.000" stroke-width="4.612" stroke="black" fill="none" stroke-linecap="round"></path><path d="M 1061.000,432.000 C 1065.797,434.305 1065.258,434.555 1069.000,438.000" stroke-width="4.401" stroke="black" fill="none" stroke-linecap="round"></path><path d="M 1069.000,438.000 C 1071.994,442.319 1072.297,441.805 1074.000,447.000" stroke-width="4.321" stroke="black" fill="none" stroke-linecap="round"></path><path d="M 1074.000,447.000 C 1074.500,449.500 1074.994,449.319 1075.000,452.000" stroke-width="4.841" stroke="black" fill="none" stroke-linecap="round"></path><path d="M 1075.000,452.000 C 1074.600,456.533 1075.500,454.500 1076.000,457.000" stroke-width="5.211" stroke="black" fill="none" stroke-linecap="round"></path><path d="M 1076.000,457.000 C 1078.361,455.231 1077.600,457.533 1081.000,454.000" stroke-width="4.498" stroke="black" fill="none" stroke-linecap="round"></path><path d="M 1081.000,454.000 C 1093.800,449.100 1093.361,448.231 1106.000,443.000" stroke-width="2.478" stroke="black" fill="none" stroke-linecap="round"></path><path d="M 1106.000,443.000 C 1116.814,435.018 1117.800,437.100 1129.000,430.000" stroke-width="2.217" stroke="black" fill="none" stroke-linecap="round"></path><path d="M 1129.000,430.000 C 1167.829,411.319 1167.814,414.018 1208.000,401.000" stroke-width="1.761" stroke="black" fill="none" stroke-linecap="round"></path><path d="M 1208.000,401.000 C 1223.034,401.045 1222.329,397.319 1238.000,402.000" stroke-width="1.893" stroke="black" fill="none" stroke-linecap="round"></path><path d="M 1238.000,402.000 C 1246.743,401.998 1246.534,402.545 1255.000,404.000" stroke-width="2.450" stroke="black" fill="none" stroke-linecap="round"></path><path d="M 1255.000,404.000 C 1262.838,407.552 1263.243,405.998 1271.000,410.000" stroke-width="2.633" stroke="black" fill="none" stroke-linecap="round"></path></svg>