<svg xmlns="http://www.w3.org/2000/svg" xmlns:xlink="http://www.w3.org/1999/xlink" viewBox="0 0 1460 581" width="1460" height="581"><path d="M 509.000,346.500 C 506.750,345.000 506.750,345.000 504.500,343.500" stroke-width="5.441" stroke="black" fill="none" stroke-linecap="round"></path><path d="M 504.500,343.500 C 500.918,340.715 500.750,341.000 497.000,338.500" stroke-width="4.072" stroke="black" fill="none" stroke-linecap="round"></path><path d="M 497.000,338.500 C 489.435,334.062 489.418,334.215 481.500,330.500" stroke-width="2.996" stroke="black" fill="none" stroke-linecap="round"></path><path d="M 481.500,330.500 C 476.939,329.165 477.185,328.562 472.500,327.500" stroke-width="3.401" stroke="black" fill="none" stroke-linecap="round"></path><path d="M 472.500,327.500 C 467.125,324.875 466.939,325.415 461.500,323.000" stroke-width="3.337" stroke="black" fill="none" stroke-linecap="round"></path><path d="M 461.500,323.000 C 455.672,321.745 455.875,321.125 450.000,320.000" stroke-width="3.260" stroke="black" fill="none" stroke-linecap="round"></path><path d="M 450.000,320.000 C 445.908,318.710 445.922,318.745 442.000,317.000" stroke-width="3.584" stroke="black" fill="none" stroke-linecap="round"></path><path d="M 442.000,317.000 C 438.101,314.757 437.908,315.210 434.000,313.000" stroke-width="3.655" stroke="black" fill="none" stroke-linecap="round"></path><path d="M 434.000,313.000 C 428.000,312.937 431.101,311.757 428.000,311.000" stroke-width="4.486" stroke="black" fill="none" stroke-linecap="round"></path><path d="M 428.000,311.000 C 430.247,306.190 428.000,307.937 434.000,303.000" stroke-width="5.011" stroke="black" fill="none" stroke-linecap="round"></path><path d="M 434.000,303.000 C 440.895,298.325 440.247,297.690 448.000,294.000" stroke-width="3.187" stroke="black" fill="none" stroke-linecap="round"></path><path d="M 448.000,294.000 C 452.362,291.218 452.395,291.325 457.000,289.000" stroke-width="3.348" stroke="black" fill="none" stroke-linecap="round"></path><path d="M 457.000,289.000 C 464.028,286.064 463.862,285.718 471.000,283.000" stroke-width="3.072" stroke="black" fill="none" stroke-linecap="round"></path><path d="M 471.000,283.000 C 480.937,279.519 480.528,278.814 490.000,274.500" stroke-width="2.604" stroke="black" fill="none" stroke-linecap="round"></path><path d="M 490.000,274.500 C 496.647,269.598 497.187,270.519 503.500,265.000" stroke-width="2.717" stroke="black" fill="none" stroke-linecap="round"></path><path d="M 503.500,265.000 C 516.520,256.530 516.397,256.348 529.500,248.000" stroke-width="2.099" stroke="black" fill="none" stroke-linecap="round"></path><path d="M 529.500,248.000 C 534.667,245.770 534.020,245.030 538.500,242.000" stroke-width="2.885" stroke="black" fill="none" stroke-linecap="round"></path><path d="M 538.500,242.000 C 549.407,230.133 549.917,230.770 560.000,218.000" stroke-width="2.088" stroke="black" fill="none" stroke-linecap="round"></path><path d="M 560.000,218.000 C 563.033,214.276 563.157,214.383 566.000,210.500" stroke-width="2.955" stroke="black" fill="none" stroke-linecap="round"></path><path d="M 566.000,210.500 C 568.609,207.330 568.533,207.276 571.000,204.000" stroke-width="3.496" stroke="black" fill="none" stroke-linecap="round"></path><path d="M 571.000,204.000 C 575.739,197.647 575.609,197.580 580.000,191.000" stroke-width="3.129" stroke="black" fill="none" stroke-linecap="round"></path><path d="M 580.000,191.000 C 581.407,187.509 581.989,187.897 583.500,184.500" stroke-width="3.601" stroke="black" fill="none" stroke-linecap="round"></path><path d="M 583.500,184.500 C 587.356,179.242 585.407,181.759 588.000,179.500" stroke-width="3.933" stroke="black" fill="none" stroke-linecap="round"></path><path d="M 588.000,179.500 C 587.229,182.595 588.606,179.742 586.000,185.500" stroke-width="4.828" stroke="black" fill="none" stroke-linecap="round"></path><path d="M 586.000,185.500 C 584.522,189.156 584.479,189.095 582.500,192.500" stroke-width="4.041" stroke="black" fill="none" stroke-linecap="round"></path><path d="M 582.500,192.500 C 577.204,199.433 578.022,199.906 573.000,207.000" stroke-width="2.998" stroke="black" fill="none" stroke-linecap="round"></path><path d="M 573.000,207.000 C 565.314,222.283 564.704,221.933 557.500,237.500" stroke-width="2.038" stroke="black" fill="none" stroke-linecap="round"></path><path d="M 557.500,237.500 C 550.019,249.581 551.064,250.033 544.500,262.500" stroke-width="2.038" stroke="black" fill="none" stroke-linecap="round"></path><path d="M 544.500,262.500 C 541.113,276.242 539.019,275.331 535.500,289.000" stroke-width="2.044" stroke="black" fill="none" stroke-linecap="round"></path><path d="M 535.500,289.000 C 529.369,300.970 530.113,301.242 522.500,312.500" stroke-width="2.083" stroke="black" fill="none" stroke-linecap="round"></path><path d="M 522.500,312.500 C 513.956,323.683 515.369,324.470 507.500,336.000" stroke-width="2.060" stroke="black" fill="none" stroke-linecap="round"></path><path d="M 507.500,336.000 C 499.827,355.863 497.706,354.683 490.000,374.500" stroke-width="1.725" stroke="black" fill="none" stroke-linecap="round"></path><path d="M 490.000,374.500 C 484.620,383.032 485.327,383.363 478.500,391.000" stroke-width="2.244" stroke="black" fill="none" stroke-linecap="round"></path><path d="M 478.500,391.000 C 471.031,400.026 471.370,400.282 463.500,409.000" stroke-width="2.328" stroke="black" fill="none" stroke-linecap="round"></path><path d="M 463.500,409.000 C 459.885,414.678 459.281,414.026 455.000,419.000" stroke-width="2.814" stroke="black" fill="none" stroke-linecap="round"></path><path d="M 455.000,419.000 C 446.786,426.428 446.885,426.178 437.500,432.000" stroke-width="2.496" stroke="black" fill="none" stroke-linecap="round"></path><path d="M 437.500,432.000 C 429.428,434.317 430.536,436.178 422.500,438.500" stroke-width="2.745" stroke="black" fill="none" stroke-linecap="round"></path><path d="M 422.500,438.500 C 416.537,443.016 416.178,442.317 411.000,448.000" stroke-width="2.859" stroke="black" fill="none" stroke-linecap="round"></path><path d="M 411.000,448.000 C 406.906,452.417 406.537,452.016 402.500,456.500" stroke-width="3.097" stroke="black" fill="none" stroke-linecap="round"></path><path d="M 402.500,456.500 C 396.810,462.185 396.656,461.917 390.500,467.000" stroke-width="2.896" stroke="black" fill="none" stroke-linecap="round"></path><path d="M 390.500,467.000 C 387.059,469.109 387.310,469.435 383.500,471.000" stroke-width="3.439" stroke="black" fill="none" stroke-linecap="round"></path><path d="M 383.500,471.000 C 379.106,473.492 379.059,473.359 374.500,475.500" stroke-width="3.505" stroke="black" fill="none" stroke-linecap="round"></path><path d="M 374.500,475.500 C 369.416,478.096 369.356,477.742 364.000,479.500" stroke-width="3.362" stroke="black" fill="none" stroke-linecap="round"></path><path d="M 364.000,479.500 C 355.781,481.240 355.916,481.596 347.500,482.500" stroke-width="2.906" stroke="black" fill="none" stroke-linecap="round"></path><path d="M 347.500,482.500 C 344.256,482.914 344.281,482.990 341.000,483.000" stroke-width="3.631" stroke="black" fill="none" stroke-linecap="round"></path><path d="M 341.000,483.000 C 334.714,483.434 334.756,483.164 328.500,483.000" stroke-width="3.911" stroke="black" fill="none" stroke-linecap="round"></path><path d="M 328.500,483.000 C 323.495,483.291 323.964,482.684 319.500,481.500" stroke-width="4.206" stroke="black" fill="none" stroke-linecap="round"></path><path d="M 319.500,481.500 C 316.256,479.401 316.245,480.041 314.000,476.500" stroke-width="3.943" stroke="black" fill="none" stroke-linecap="round"></path><path d="M 314.000,476.500 C 311.201,472.402 311.006,472.651 309.000,468.000" stroke-width="3.667" stroke="black" fill="none" stroke-linecap="round"></path><path d="M 309.000,468.000 C 306.300,462.327 306.201,462.402 304.000,456.500" stroke-width="3.292" stroke="black" fill="none" stroke-linecap="round"></path><path d="M 304.000,456.500 C 301.714,452.843 302.550,452.827 301.500,449.000" stroke-width="3.609" stroke="black" fill="none" stroke-linecap="round"></path><path d="M 301.500,449.000 C 301.254,443.431 301.214,443.843 303.000,438.500" stroke-width="3.506" stroke="black" fill="none" stroke-linecap="round"></path><path d="M 303.000,438.500 C 305.461,431.022 305.504,431.431 310.000,425.000" stroke-width="3.112" stroke="black" fill="none" stroke-linecap="round"></path><path d="M 310.000,425.000 C 317.711,414.264 317.711,414.772 327.500,406.000" stroke-width="2.439" stroke="black" fill="none" stroke-linecap="round"></path><path d="M 327.500,406.000 C 337.378,398.000 336.961,398.014 348.500,392.500" stroke-width="2.200" stroke="black" fill="none" stroke-linecap="round"></path><path d="M 348.500,392.500 C 360.487,387.075 360.128,386.750 373.000,383.500" stroke-width="2.213" stroke="black" fill="none" stroke-linecap="round"></path><path d="M 373.000,383.500 C 385.188,380.606 384.987,380.075 397.500,378.500" stroke-width="2.257" stroke="black" fill="none" stroke-linecap="round"></path><path d="M 397.500,378.500 C 404.245,377.699 404.188,377.356 411.000,377.000" stroke-width="2.755" stroke="black" fill="none" stroke-linecap="round"></path><path d="M 411.000,377.000 C 426.070,375.955 425.995,375.449 441.000,374.000" stroke-width="2.137" stroke="black" fill="none" stroke-linecap="round"></path><path d="M 441.000,374.000 C 447.036,372.908 447.070,373.205 453.000,371.500" stroke-width="2.821" stroke="black" fill="none" stroke-linecap="round"></path><path d="M 453.000,371.500 C 465.021,368.580 465.036,368.658 477.000,365.500" stroke-width="2.363" stroke="black" fill="none" stroke-linecap="round"></path><path d="M 477.000,365.500 C 482.686,364.525 482.521,364.080 488.000,362.500" stroke-width="2.940" stroke="black" fill="none" stroke-linecap="round"></path><path d="M 488.000,362.500 C 498.145,357.736 498.436,358.525 508.500,353.500" stroke-width="2.496" stroke="black" fill="none" stroke-linecap="round"></path><path d="M 508.500,353.500 C 515.106,351.947 514.645,350.986 521.000,349.000" stroke-width="2.925" stroke="black" fill="none" stroke-linecap="round"></path><path d="M 521.000,349.000 C 526.174,346.261 526.106,346.447 530.500,342.500" stroke-width="3.213" stroke="black" fill="none" stroke-linecap="round"></path><path d="M 530.500,342.500 C 536.880,335.311 537.674,336.261 544.000,329.000" stroke-width="2.797" stroke="black" fill="none" stroke-linecap="round"></path><path d="M 544.000,329.000 C 548.077,325.711 547.880,325.561 552.500,323.000" stroke-width="3.199" stroke="black" fill="none" stroke-linecap="round"></path><path d="M 552.500,323.000 C 559.227,319.773 555.827,320.961 559.500,319.500" stroke-width="3.629" stroke="black" fill="none" stroke-linecap="round"></path><path d="M 559.500,319.500 C 556.320,320.421 559.727,319.273 553.500,322.000" stroke-width="4.718" stroke="black" fill="none" stroke-linecap="round"></path><path d="M 553.500,322.000 C 550.054,324.002 550.070,323.921 547.000,326.500" stroke-width="4.008" stroke="black" fill="none" stroke-linecap="round"></path><path d="M 547.000,326.500 C 542.044,331.050 541.804,330.752 537.000,335.500" stroke-width="3.358" stroke="black" fill="none" stroke-linecap="round"></path><path d="M 537.000,335.500 C 533.666,338.719 533.544,338.550 530.000,341.500" stroke-width="3.503" stroke="black" fill="none" stroke-linecap="round"></path><path d="M 530.000,341.500 C 525.891,343.577 526.416,344.219 522.500,346.500" stroke-width="3.622" stroke="black" fill="none" stroke-linecap="round"></path><path d="M 522.500,346.500 C 514.755,350.486 518.641,349.827 515.500,354.000" stroke-width="4.085" stroke="black" fill="none" stroke-linecap="round"></path><path d="M 515.500,354.000 C 520.094,360.274 516.505,358.736 526.000,363.000" stroke-width="4.305" stroke="black" fill="none" stroke-linecap="round"></path><path d="M 526.000,363.000 C 530.503,363.112 529.844,364.774 535.000,363.000" stroke-width="3.846" stroke="black" fill="none" stroke-linecap="round"></path><path d="M 535.000,363.000 C 540.525,362.983 540.503,362.862 546.000,362.500" stroke-width="3.471" stroke="black" fill="none" stroke-linecap="round"></path><path d="M 546.000,362.500 C 549.040,362.173 549.025,362.233 552.000,361.500" stroke-width="3.873" stroke="black" fill="none" stroke-linecap="round"></path><path d="M 552.000,361.500 C 554.727,361.240 554.540,360.923 557.000,360.000" stroke-width="4.165" stroke="black" fill="none" stroke-linecap="round"></path><path d="M 557.000,360.000 C 563.299,356.804 562.977,356.740 568.500,352.500" stroke-width="4.028" stroke="black" fill="none" stroke-linecap="round"></path><path d="M 568.500,352.500 C 572.644,349.319 570.549,350.804 571.500,348.000" stroke-width="4.193" stroke="black" fill="none" stroke-linecap="round"></path><path d="M 571.500,348.000 C 566.770,345.477 569.394,345.569 562.000,345.000" stroke-width="4.847" stroke="black" fill="none" stroke-linecap="round"></path><path d="M 562.000,345.000 C 559.302,346.135 559.270,344.727 556.500,346.500" stroke-width="4.335" stroke="black" fill="none" stroke-linecap="round"></path><path d="M 556.500,346.500 C 550.622,345.766 553.552,346.885 550.500,346.500" stroke-width="4.624" stroke="black" fill="none" stroke-linecap="round"></path><path d="M 550.500,346.500 C 553.002,348.971 550.372,347.266 556.000,349.500" stroke-width="5.071" stroke="black" fill="none" stroke-linecap="round"></path><path d="M 556.000,349.500 C 561.890,350.520 561.502,350.471 567.500,349.500" stroke-width="3.734" stroke="black" fill="none" stroke-linecap="round"></path><path d="M 567.500,349.500 C 578.626,347.458 578.390,347.520 589.000,343.500" stroke-width="2.643" stroke="black" fill="none" stroke-linecap="round"></path><path d="M 589.000,343.500 C 597.656,339.915 597.626,340.208 605.500,335.000" stroke-width="2.616" stroke="black" fill="none" stroke-linecap="round"></path><path d="M 605.500,335.000 C 615.671,326.982 616.406,328.165 626.500,320.000" stroke-width="2.273" stroke="black" fill="none" stroke-linecap="round"></path><path d="M 626.500,320.000 C 635.898,316.466 634.671,314.732 643.500,310.500" stroke-width="2.507" stroke="black" fill="none" stroke-linecap="round"></path><path d="M 643.500,310.500 C 654.735,299.735 655.648,300.966 666.000,289.000" stroke-width="2.119" stroke="black" fill="none" stroke-linecap="round"></path><path d="M 666.000,289.000 C 676.321,279.815 675.985,279.485 686.000,270.000" stroke-width="2.081" stroke="black" fill="none" stroke-linecap="round"></path><path d="M 686.000,270.000 C 694.773,262.250 694.071,261.815 701.500,253.000" stroke-width="2.288" stroke="black" fill="none" stroke-linecap="round"></path><path d="M 701.500,253.000 C 707.576,242.139 708.773,243.000 714.000,231.500" stroke-width="2.227" stroke="black" fill="none" stroke-linecap="round"></path><path d="M 714.000,231.500 C 715.572,228.857 715.576,228.889 717.500,226.500" stroke-width="3.291" stroke="black" fill="none" stroke-linecap="round"></path><path d="M 717.500,226.500 C 723.266,222.894 720.072,223.357 723.000,220.500" stroke-width="3.586" stroke="black" fill="none" stroke-linecap="round"></path><path d="M 723.000,220.500 C 719.751,216.516 722.766,218.394 716.500,217.500" stroke-width="4.610" stroke="black" fill="none" stroke-linecap="round"></path><path d="M 716.500,217.500 C 700.033,223.609 700.751,222.266 685.000,232.000" stroke-width="2.178" stroke="black" fill="none" stroke-linecap="round"></path><path d="M 685.000,232.000 C 679.154,236.638 678.533,235.609 673.500,241.500" stroke-width="2.692" stroke="black" fill="none" stroke-linecap="round"></path><path d="M 673.500,241.500 C 666.829,247.594 666.654,247.388 660.000,253.500" stroke-width="2.657" stroke="black" fill="none" stroke-linecap="round"></path><path d="M 660.000,253.500 C 657.167,255.167 657.579,255.594 655.000,257.500" stroke-width="3.518" stroke="black" fill="none" stroke-linecap="round"></path><path d="M 655.000,257.500 C 650.014,261.915 650.667,262.167 647.000,267.500" stroke-width="3.295" stroke="black" fill="none" stroke-linecap="round"></path><path d="M 647.000,267.500 C 642.355,278.193 641.514,277.665 638.000,289.000" stroke-width="2.590" stroke="black" fill="none" stroke-linecap="round"></path><path d="M 638.000,289.000 C 635.258,294.848 635.605,294.943 633.500,301.000" stroke-width="2.942" stroke="black" fill="none" stroke-linecap="round"></path><path d="M 633.500,301.000 C 630.665,314.383 629.758,314.098 627.000,327.500" stroke-width="2.280" stroke="black" fill="none" stroke-linecap="round"></path><path d="M 627.000,327.500 C 625.573,331.281 625.915,331.383 624.000,335.000" stroke-width="3.173" stroke="black" fill="none" stroke-linecap="round"></path><path d="M 624.000,335.000 C 620.623,339.248 622.823,337.781 621.500,340.500" stroke-width="3.760" stroke="black" fill="none" stroke-linecap="round"></path><path d="M 621.500,340.500 C 624.756,341.122 622.373,341.748 627.500,340.000" stroke-width="4.682" stroke="black" fill="none" stroke-linecap="round"></path><path d="M 627.500,340.000 C 635.599,335.924 635.756,336.622 643.500,331.500" stroke-width="3.035" stroke="black" fill="none" stroke-linecap="round"></path><path d="M 643.500,331.500 C 648.004,328.756 648.099,328.924 652.500,326.000" stroke-width="3.275" stroke="black" fill="none" stroke-linecap="round"></path><path d="M 652.500,326.000 C 657.632,320.632 655.754,324.006 659.000,322.000" stroke-width="3.631" stroke="black" fill="none" stroke-linecap="round"></path><path d="M 659.000,322.000 C 659.990,327.550 660.882,323.882 659.000,332.500" stroke-width="4.402" stroke="black" fill="none" stroke-linecap="round"></path><path d="M 659.000,332.500 C 655.031,335.546 658.490,335.050 656.000,337.000" stroke-width="4.708" stroke="black" fill="none" stroke-linecap="round"></path><path d="M 656.000,337.000 C 659.825,340.000 657.531,339.296 664.000,340.000" stroke-width="4.517" stroke="black" fill="none" stroke-linecap="round"></path><path d="M 664.000,340.000 C 675.783,338.701 675.575,340.000 687.500,337.000" stroke-width="2.666" stroke="black" fill="none" stroke-linecap="round"></path><path d="M 687.500,337.000 C 691.294,336.427 691.283,336.451 695.000,335.500" stroke-width="3.373" stroke="black" fill="none" stroke-linecap="round"></path><path d="M 695.000,335.500 C 699.181,333.771 699.294,334.427 703.500,333.000" stroke-width="3.542" stroke="black" fill="none" stroke-linecap="round"></path><path d="M 703.500,333.000 C 706.379,332.371 706.181,332.521 709.000,333.000" stroke-width="4.630" stroke="black" fill="none" stroke-linecap="round"></path><path d="M 709.000,333.000 C 712.544,334.405 712.629,333.871 716.000,336.000" stroke-width="4.025" stroke="black" fill="none" stroke-linecap="round"></path><path d="M 716.000,336.000 C 718.856,337.912 719.044,337.405 722.000,339.000" stroke-width="3.982" stroke="black" fill="none" stroke-linecap="round"></path><path d="M 722.000,339.000 C 725.483,339.841 725.356,340.162 729.000,340.500" stroke-width="4.393" stroke="black" fill="none" stroke-linecap="round"></path><path d="M 729.000,340.500 C 733.500,341.250 733.483,341.341 738.000,342.000" stroke-width="5.053" stroke="black" fill="none" stroke-linecap="round"></path><path d="M 738.000,342.000 C 752.943,345.051 753.000,344.500 768.000,347.000" stroke-width="2.460" stroke="black" fill="none" stroke-linecap="round"></path><path d="M 768.000,347.000 C 774.261,347.787 774.193,347.801 780.500,347.500" stroke-width="2.910" stroke="black" fill="none" stroke-linecap="round"></path><path d="M 780.500,347.500 C 795.998,346.224 796.011,346.787 811.500,345.000" stroke-width="2.197" stroke="black" fill="none" stroke-linecap="round"></path><path d="M 811.500,345.000 C 815.114,345.347 814.998,344.724 818.500,344.500" stroke-width="3.169" stroke="black" fill="none" stroke-linecap="round"></path><path d="M 818.500,344.500 C 828.468,342.461 828.114,342.097 837.500,338.500" stroke-width="2.740" stroke="black" fill="none" stroke-linecap="round"></path><path d="M 837.500,338.500 C 842.921,335.977 842.718,336.211 847.000,332.000" stroke-width="3.092" stroke="black" fill="none" stroke-linecap="round"></path><path d="M 847.000,332.000 C 852.113,325.385 852.921,326.227 857.500,319.000" stroke-width="2.909" stroke="black" fill="none" stroke-linecap="round"></path><path d="M 857.500,319.000 C 865.887,309.616 865.613,309.385 874.000,300.000" stroke-width="2.362" stroke="black" fill="none" stroke-linecap="round"></path><path d="M 874.000,300.000 C 885.951,285.459 886.137,285.616 898.000,271.000" stroke-width="1.898" stroke="black" fill="none" stroke-linecap="round"></path><path d="M 898.000,271.000 C 907.332,260.068 907.201,259.959 916.500,249.000" stroke-width="1.976" stroke="black" fill="none" stroke-linecap="round"></path><path d="M 916.500,249.000 C 927.363,234.900 927.832,235.318 939.000,221.500" stroke-width="1.864" stroke="black" fill="none" stroke-linecap="round"></path><path d="M 939.000,221.500 C 944.345,216.339 943.863,215.900 949.500,211.000" stroke-width="2.495" stroke="black" fill="none" stroke-linecap="round"></path><path d="M 949.500,211.000 C 954.124,207.519 951.345,209.089 953.000,207.000" stroke-width="3.496" stroke="black" fill="none" stroke-linecap="round"></path><path d="M 953.000,207.000 C 947.163,205.447 950.874,206.019 943.000,208.000" stroke-width="4.535" stroke="black" fill="none" stroke-linecap="round"></path><path d="M 943.000,208.000 C 929.391,219.181 928.413,216.947 915.500,230.000" stroke-width="2.153" stroke="black" fill="none" stroke-linecap="round"></path><path d="M 915.500,230.000 C 902.942,238.880 903.391,239.431 891.000,248.500" stroke-width="1.990" stroke="black" fill="none" stroke-linecap="round"></path><path d="M 891.000,248.500 C 884.876,253.380 884.942,253.380 879.500,259.000" stroke-width="2.523" stroke="black" fill="none" stroke-linecap="round"></path><path d="M 879.500,259.000 C 869.050,271.290 868.376,270.630 858.000,283.000" stroke-width="2.087" stroke="black" fill="none" stroke-linecap="round"></path><path d="M 858.000,283.000 C 850.657,287.719 852.300,289.040 846.000,294.500" stroke-width="2.565" stroke="black" fill="none" stroke-linecap="round"></path><path d="M 846.000,294.500 C 837.711,309.479 836.407,308.469 829.500,324.500" stroke-width="2.032" stroke="black" fill="none" stroke-linecap="round"></path><path d="M 829.500,324.500 C 827.182,328.105 827.461,328.229 825.500,332.000" stroke-width="2.919" stroke="black" fill="none" stroke-linecap="round"></path><path d="M 825.500,332.000 C 822.908,339.316 822.432,339.105 820.000,346.500" stroke-width="2.875" stroke="black" fill="none" stroke-linecap="round"></path><path d="M 820.000,346.500 C 818.544,349.771 818.658,349.816 817.000,353.000" stroke-width="3.556" stroke="black" fill="none" stroke-linecap="round"></path><path d="M 817.000,353.000 C 813.904,358.681 815.794,355.521 814.500,358.000" stroke-width="4.338" stroke="black" fill="none" stroke-linecap="round"></path><path d="M 814.500,358.000 C 817.133,353.208 815.654,356.681 820.500,349.000" stroke-width="4.288" stroke="black" fill="none" stroke-linecap="round"></path><path d="M 820.500,349.000 C 824.048,344.253 824.133,344.458 828.500,340.500" stroke-width="3.506" stroke="black" fill="none" stroke-linecap="round"></path><path d="M 828.500,340.500 C 841.866,329.818 841.548,329.503 855.500,319.500" stroke-width="2.101" stroke="black" fill="none" stroke-linecap="round"></path><path d="M 855.500,319.500 C 860.085,315.249 860.366,315.818 865.500,312.500" stroke-width="2.804" stroke="black" fill="none" stroke-linecap="round"></path><path d="M 865.500,312.500 C 876.677,307.563 876.335,306.999 888.000,303.000" stroke-width="2.304" stroke="black" fill="none" stroke-linecap="round"></path><path d="M 888.000,303.000 C 893.367,300.502 893.427,300.813 899.000,299.000" stroke-width="2.938" stroke="black" fill="none" stroke-linecap="round"></path><path d="M 899.000,299.000 C 904.736,297.915 904.617,297.502 910.500,297.000" stroke-width="3.151" stroke="black" fill="none" stroke-linecap="round"></path><path d="M 910.500,297.000 C 920.468,295.075 920.486,295.415 930.500,294.000" stroke-width="2.653" stroke="black" fill="none" stroke-linecap="round"></path><path d="M 930.500,294.000 C 934.504,293.875 934.468,293.575 938.500,294.000" stroke-width="3.336" stroke="black" fill="none" stroke-linecap="round"></path><path d="M 938.500,294.000 C 943.741,292.159 942.504,294.125 946.500,294.500" stroke-width="3.662" stroke="black" fill="none" stroke-linecap="round"></path><path d="M 946.500,294.500 C 953.243,300.824 951.991,299.159 955.000,308.000" stroke-width="3.752" stroke="black" fill="none" stroke-linecap="round"></path><path d="M 955.000,308.000 C 954.768,313.960 956.243,313.074 952.500,319.000" stroke-width="3.423" stroke="black" fill="none" stroke-linecap="round"></path><path d="M 952.500,319.000 C 950.297,324.619 950.268,323.960 946.000,328.000" stroke-width="3.351" stroke="black" fill="none" stroke-linecap="round"></path><path d="M 946.000,328.000 C 933.723,335.121 935.047,336.619 922.000,343.000" stroke-width="2.374" stroke="black" fill="none" stroke-linecap="round"></path><path d="M 922.000,343.000 C 918.732,345.729 918.473,345.371 915.500,348.500" stroke-width="3.194" stroke="black" fill="none" stroke-linecap="round"></path><path d="M 915.500,348.500 C 911.656,351.649 911.732,351.729 908.000,355.000" stroke-width="3.436" stroke="black" fill="none" stroke-linecap="round"></path><path d="M 908.000,355.000 C 903.370,359.109 905.656,357.149 903.500,359.500" stroke-width="4.242" stroke="black" fill="none" stroke-linecap="round"></path><path d="M 903.500,359.500 C 906.038,358.061 903.620,359.859 908.500,356.500" stroke-width="4.805" stroke="black" fill="none" stroke-linecap="round"></path><path d="M 908.500,356.500 C 916.209,351.435 916.288,351.561 924.000,346.500" stroke-width="3.027" stroke="black" fill="none" stroke-linecap="round"></path><path d="M 924.000,346.500 C 931.233,341.972 931.209,341.935 938.500,337.500" stroke-width="2.807" stroke="black" fill="none" stroke-linecap="round"></path><path d="M 938.500,337.500 C 941.036,336.056 940.983,335.972 943.500,334.500" stroke-width="3.614" stroke="black" fill="none" stroke-linecap="round"></path><path d="M 943.500,334.500 C 945.551,332.550 945.786,333.056 948.000,331.500" stroke-width="4.048" stroke="black" fill="none" stroke-linecap="round"></path><path d="M 948.000,331.500 C 950.990,330.708 950.801,330.300 954.000,330.000" stroke-width="4.982" stroke="black" fill="none" stroke-linecap="round"></path><path d="M 954.000,330.000 C 963.817,327.999 963.740,327.708 973.500,325.500" stroke-width="3.234" stroke="black" fill="none" stroke-linecap="round"></path><path d="M 973.500,325.500 C 979.359,324.037 979.317,323.999 985.000,322.000" stroke-width="3.277" stroke="black" fill="none" stroke-linecap="round"></path><path d="M 985.000,322.000 C 988.175,320.301 988.359,320.787 991.500,319.000" stroke-width="3.681" stroke="black" fill="none" stroke-linecap="round"></path><path d="M 991.500,319.000 C 994.047,318.383 993.925,318.051 996.500,317.500" stroke-width="4.443" stroke="black" fill="none" stroke-linecap="round"></path><path d="M 996.500,317.500 C 1000.147,315.271 1000.297,316.133 1004.000,314.500" stroke-width="4.826" stroke="black" fill="none" stroke-linecap="round"></path><path d="M 1004.000,314.500 C 1008.411,313.428 1006.397,314.021 1009.000,315.000" stroke-width="5.022" stroke="black" fill="none" stroke-linecap="round"></path><path d="M 1009.000,315.000 C 1009.181,319.393 1009.911,317.428 1007.000,322.500" stroke-width="4.089" stroke="black" fill="none" stroke-linecap="round"></path><path d="M 1007.000,322.500 C 999.501,330.285 1000.931,331.143 992.500,338.500" stroke-width="2.810" stroke="black" fill="none" stroke-linecap="round"></path><path d="M 992.500,338.500 C 982.471,354.093 980.751,352.285 969.500,366.500" stroke-width="1.949" stroke="black" fill="none" stroke-linecap="round"></path><path d="M 969.500,366.500 C 958.265,374.902 959.471,376.093 946.500,382.500" stroke-width="2.068" stroke="black" fill="none" stroke-linecap="round"></path><path d="M 946.500,382.500 C 922.938,399.653 922.265,398.152 897.500,413.000" stroke-width="1.445" stroke="black" fill="none" stroke-linecap="round"></path><path d="M 897.500,413.000 C 882.127,421.385 882.438,420.903 865.500,425.000" stroke-width="1.673" stroke="black" fill="none" stroke-linecap="round"></path><path d="M 865.500,425.000 C 823.986,431.413 824.627,433.885 782.500,438.000" stroke-width="1.125" stroke="black" fill="none" stroke-linecap="round"></path><path d="M 782.500,438.000 C 734.328,446.279 734.236,445.663 686.000,453.500" stroke-width="1.125" stroke="black" fill="none" stroke-linecap="round"></path><path d="M 686.000,453.500 C 647.432,460.791 647.328,459.279 608.500,464.000" stroke-width="1.125" stroke="black" fill="none" stroke-linecap="round"></path><path d="M 608.500,464.000 C 555.910,470.111 556.432,468.291 504.000,468.500" stroke-width="1.125" stroke="black" fill="none" stroke-linecap="round"></path><path d="M 504.000,468.500 C 483.626,464.507 483.410,467.861 463.500,459.500" stroke-width="1.246" stroke="black" fill="none" stroke-linecap="round"></path><path d="M 463.500,459.500 C 431.376,453.981 432.376,451.757 401.500,443.000" stroke-width="1.157" stroke="black" fill="none" stroke-linecap="round"></path><path d="M 401.500,443.000 C 385.656,435.108 385.126,436.981 371.000,425.500" stroke-width="1.560" stroke="black" fill="none" stroke-linecap="round"></path><path d="M 371.000,425.500 C 361.797,421.079 363.156,420.358 356.500,413.500" stroke-width="2.200" stroke="black" fill="none" stroke-linecap="round"></path><path d="M 356.500,413.500 C 343.839,397.182 345.547,397.829 338.500,379.000" stroke-width="1.833" stroke="black" fill="none" stroke-linecap="round"></path><path d="M 338.500,379.000 C 335.794,364.513 334.589,365.682 338.000,350.500" stroke-width="1.961" stroke="black" fill="none" stroke-linecap="round"></path><path d="M 338.000,350.500 C 344.122,304.927 345.044,305.763 357.000,261.500" stroke-width="1.125" stroke="black" fill="none" stroke-linecap="round"></path><path d="M 357.000,261.500 C 366.802,232.286 365.622,232.427 381.000,205.500" stroke-width="1.149" stroke="black" fill="none" stroke-linecap="round"></path><path d="M 381.000,205.500 C 390.749,185.282 391.052,186.536 405.500,170.000" stroke-width="1.426" stroke="black" fill="none" stroke-linecap="round"></path><path d="M 405.500,170.000 C 419.038,154.716 418.499,156.532 436.500,148.000" stroke-width="1.586" stroke="black" fill="none" stroke-linecap="round"></path><path d="M 436.500,148.000 C 472.663,136.651 471.038,134.716 509.500,130.000" stroke-width="1.157" stroke="black" fill="none" stroke-linecap="round"></path><path d="M 509.500,130.000 C 527.007,128.202 526.663,126.901 544.500,128.500" stroke-width="1.524" stroke="black" fill="none" stroke-linecap="round"></path><path d="M 544.500,128.500 C 571.157,128.495 571.007,128.952 597.500,131.500" stroke-width="1.409" stroke="black" fill="none" stroke-linecap="round"></path><path d="M 597.500,131.500 C 637.051,136.010 636.907,135.995 676.000,143.500" stroke-width="1.125" stroke="black" fill="none" stroke-linecap="round"></path><path d="M 676.000,143.500 C 703.035,147.103 702.051,148.510 727.500,156.500" stroke-width="1.318" stroke="black" fill="none" stroke-linecap="round"></path><path d="M 727.500,156.500 C 739.640,164.302 740.785,161.603 751.500,172.500" stroke-width="1.735" stroke="black" fill="none" stroke-linecap="round"></path><path d="M 751.500,172.500 C 756.694,176.018 756.640,176.052 761.500,180.000" stroke-width="2.534" stroke="black" fill="none" stroke-linecap="round"></path><path d="M 761.500,180.000 C 765.764,183.116 765.444,183.268 769.000,187.000" stroke-width="3.145" stroke="black" fill="none" stroke-linecap="round"></path><path d="M 769.000,187.000 C 771.500,189.349 770.764,189.116 771.500,192.000" stroke-width="3.835" stroke="black" fill="none" stroke-linecap="round"></path><path d="M 771.500,192.000 C 772.847,199.274 771.500,197.349 769.000,203.000" stroke-width="3.506" stroke="black" fill="none" stroke-linecap="round"></path><path d="M 769.000,203.000 C 755.746,216.416 756.847,214.774 739.500,223.000" stroke-width="2.124" stroke="black" fill="none" stroke-linecap="round"></path><path d="M 739.500,223.000 C 716.228,230.204 717.496,231.916 692.500,234.000" stroke-width="1.615" stroke="black" fill="none" stroke-linecap="round"></path><path d="M 692.500,234.000 C 678.470,235.175 678.728,236.204 664.500,235.000" stroke-width="1.894" stroke="black" fill="none" stroke-linecap="round"></path><path d="M 664.500,235.000 C 658.479,234.379 658.470,234.925 652.500,233.500" stroke-width="2.653" stroke="black" fill="none" stroke-linecap="round"></path><path d="M 1087.500,375.500 C 1085.217,372.021 1085.250,372.000 1083.000,368.500" stroke-width="5.005" stroke="black" fill="none" stroke-linecap="round"></path><path d="M 1083.000,368.500 C 1080.963,365.272 1080.967,365.271 1079.000,362.000" stroke-width="4.162" stroke="black" fill="none" stroke-linecap="round"></path><path d="M 1079.000,362.000 C 1077.603,358.744 1077.213,359.022 1075.500,356.000" stroke-width="3.991" stroke="black" fill="none" stroke-linecap="round"></path><path d="M 1075.500,356.000 C 1071.875,351.083 1071.853,351.244 1067.500,347.000" stroke-width="3.475" stroke="black" fill="none" stroke-linecap="round"></path><path d="M 1067.500,347.000 C 1058.995,344.332 1064.375,344.083 1060.500,342.000" stroke-width="4.095" stroke="black" fill="none" stroke-linecap="round"></path><path d="M 1060.500,342.000 C 1068.138,333.814 1063.995,336.582 1077.500,331.500" stroke-width="3.662" stroke="black" fill="none" stroke-linecap="round"></path><path d="M 1077.500,331.500 C 1091.323,330.179 1090.388,328.314 1105.000,331.000" stroke-width="2.379" stroke="black" fill="none" stroke-linecap="round"></path><path d="M 1105.000,331.000 C 1116.235,332.855 1116.323,331.679 1127.500,334.500" stroke-width="2.397" stroke="black" fill="none" stroke-linecap="round"></path><path d="M 1127.500,334.500 C 1138.467,336.381 1138.485,336.105 1149.500,337.500" stroke-width="2.368" stroke="black" fill="none" stroke-linecap="round"></path><path d="M 1149.500,337.500 C 1155.794,337.379 1155.717,338.131 1162.000,338.000" stroke-width="2.870" stroke="black" fill="none" stroke-linecap="round"></path><path d="M 1162.000,338.000 C 1166.277,337.765 1165.794,338.379 1169.500,339.500" stroke-width="3.467" stroke="black" fill="none" stroke-linecap="round"></path><path d="M 1169.500,339.500 C 1171.635,343.143 1172.777,341.265 1175.000,345.000" stroke-width="4.334" stroke="black" fill="none" stroke-linecap="round"></path><path d="M 1175.000,345.000 C 1186.423,353.585 1186.135,351.143 1198.500,355.500" stroke-width="3.440" stroke="black" fill="none" stroke-linecap="round"></path><path d="M 1198.500,355.500 C 1207.358,353.905 1206.923,356.835 1216.000,351.500" stroke-width="2.915" stroke="black" fill="none" stroke-linecap="round"></path><path d="M 1216.000,351.500 C 1231.573,346.971 1231.608,347.155 1247.000,342.000" stroke-width="2.085" stroke="black" fill="none" stroke-linecap="round"></path><path d="M 1247.000,342.000 C 1254.067,339.666 1254.073,339.721 1261.000,337.000" stroke-width="2.605" stroke="black" fill="none" stroke-linecap="round"></path><path d="M 1261.000,337.000 C 1263.800,335.850 1263.817,335.916 1266.500,334.500" stroke-width="3.801" stroke="black" fill="none" stroke-linecap="round"></path><path d="M 1266.500,334.500 C 1269.404,331.672 1269.800,332.850 1273.000,331.000" stroke-width="4.858" stroke="black" fill="none" stroke-linecap="round"></path><path d="M 1273.000,331.000 C 1292.445,326.821 1292.154,327.422 1312.000,326.000" stroke-width="2.254" stroke="black" fill="none" stroke-linecap="round"></path><path d="M 1312.000,326.000 C 1328.272,326.740 1328.195,325.321 1344.500,328.000" stroke-width="1.958" stroke="black" fill="none" stroke-linecap="round"></path><path d="M 1344.500,328.000 C 1353.973,329.660 1354.022,328.740 1363.500,330.000" stroke-width="2.346" stroke="black" fill="none" stroke-linecap="round"></path><path d="M 1363.500,330.000 C 1375.013,329.992 1374.973,330.410 1386.500,329.500" stroke-width="2.377" stroke="black" fill="none" stroke-linecap="round"></path><path d="M 1386.500,329.500 C 1392.533,329.246 1392.513,329.242 1398.500,328.500" stroke-width="2.951" stroke="black" fill="none" stroke-linecap="round"></path><path d="M 1398.500,328.500 C 1402.467,327.390 1402.533,327.996 1406.500,327.000" stroke-width="3.455" stroke="black" fill="none" stroke-linecap="round"></path><path d="M 1406.500,327.000 C 1414.234,327.000 1410.217,326.640 1414.000,327.000" stroke-width="4.356" stroke="black" fill="none" stroke-linecap="round"></path><path d="M 1414.000,327.000 C 1409.749,327.077 1413.734,327.000 1405.500,327.000" stroke-width="4.880" stroke="black" fill="none" stroke-linecap="round"></path><path d="M 1405.500,327.000 C 1396.002,326.579 1395.999,326.827 1386.500,326.500" stroke-width="3.076" stroke="black" fill="none" stroke-linecap="round"></path><path d="M 1386.500,326.500 C 1365.748,326.329 1365.752,326.329 1345.000,326.500" stroke-width="1.836" stroke="black" fill="none" stroke-linecap="round"></path><path d="M 1345.000,326.500 C 1335.502,327.000 1335.498,326.579 1326.000,327.000" stroke-width="2.295" stroke="black" fill="none" stroke-linecap="round"></path><path d="M 1326.000,327.000 C 1299.233,327.324 1299.252,327.000 1272.500,326.500" stroke-width="1.490" stroke="black" fill="none" stroke-linecap="round"></path><path d="M 1272.500,326.500 C 1242.521,324.150 1242.483,325.574 1212.500,323.500" stroke-width="1.261" stroke="black" fill="none" stroke-linecap="round"></path><path d="M 1212.500,323.500 C 1173.246,323.174 1173.271,322.650 1134.000,323.500" stroke-width="1.125" stroke="black" fill="none" stroke-linecap="round"></path><path d="M 1134.000,323.500 C 1112.996,323.878 1112.996,323.674 1092.000,324.500" stroke-width="1.366" stroke="black" fill="none" stroke-linecap="round"></path><path d="M 1092.000,324.500 C 1079.253,325.130 1079.246,324.878 1066.500,325.500" stroke-width="1.843" stroke="black" fill="none" stroke-linecap="round"></path><path d="M 1066.500,325.500 C 1061.657,326.669 1062.003,325.630 1057.500,325.500" stroke-width="2.799" stroke="black" fill="none" stroke-linecap="round"></path></svg>