<svg xmlns="http://www.w3.org/2000/svg" xmlns:xlink="http://www.w3.org/1999/xlink" viewBox="0 0 1460 581" width="1460" height="581"><path d="M 575.500,177.000 C 572.567,183.436 572.250,183.250 569.000,189.500" stroke-width="4.930" stroke="black" fill="none" stroke-linecap="round"></path><path d="M 569.000,189.500 C 565.107,196.253 565.067,196.186 560.500,202.500" stroke-width="3.484" stroke="black" fill="none" stroke-linecap="round"></path><path d="M 560.500,202.500 C 545.408,220.046 546.857,221.003 532.500,239.000" stroke-width="1.689" stroke="black" fill="none" stroke-linecap="round"></path><path d="M 532.500,239.000 C 527.382,250.130 525.658,249.046 521.000,260.500" stroke-width="2.034" stroke="black" fill="none" stroke-linecap="round"></path><path d="M 521.000,260.500 C 510.817,275.796 511.382,276.130 500.500,291.000" stroke-width="1.793" stroke="black" fill="none" stroke-linecap="round"></path><path d="M 500.500,291.000 C 496.811,297.000 496.567,296.796 492.500,302.500" stroke-width="2.536" stroke="black" fill="none" stroke-linecap="round"></path><path d="M 492.500,302.500 C 489.240,305.990 489.561,306.250 486.000,309.500" stroke-width="3.154" stroke="black" fill="none" stroke-linecap="round"></path><path d="M 559.500,170.500 C 560.596,187.993 560.250,188.000 561.000,205.500" stroke-width="4.049" stroke="black" fill="none" stroke-linecap="round"></path><path d="M 561.000,205.500 C 560.930,220.500 561.346,220.493 561.000,235.500" stroke-width="2.392" stroke="black" fill="none" stroke-linecap="round"></path><path d="M 561.000,235.500 C 559.199,273.893 561.180,273.750 561.500,312.000" stroke-width="1.184" stroke="black" fill="none" stroke-linecap="round"></path><path d="M 561.500,312.000 C 563.537,340.488 563.199,340.143 569.000,368.000" stroke-width="1.223" stroke="black" fill="none" stroke-linecap="round"></path><path d="M 569.000,368.000 C 572.035,375.353 570.537,375.738 575.500,382.500" stroke-width="2.027" stroke="black" fill="none" stroke-linecap="round"></path><path d="M 575.500,382.500 C 580.591,391.607 580.035,391.853 585.000,401.000" stroke-width="2.355" stroke="black" fill="none" stroke-linecap="round"></path><path d="M 585.000,401.000 C 585.318,406.888 586.341,403.857 587.000,407.000" stroke-width="3.627" stroke="black" fill="none" stroke-linecap="round"></path><path d="M 638.000,206.500 C 633.422,203.401 633.250,203.750 628.500,201.000" stroke-width="4.379" stroke="black" fill="none" stroke-linecap="round"></path><path d="M 628.500,201.000 C 623.208,198.048 623.172,198.401 617.500,196.500" stroke-width="3.572" stroke="black" fill="none" stroke-linecap="round"></path><path d="M 617.500,196.500 C 608.355,193.821 608.458,194.048 599.000,193.000" stroke-width="2.888" stroke="black" fill="none" stroke-linecap="round"></path><path d="M 599.000,193.000 C 578.914,187.771 579.855,191.321 560.500,191.500" stroke-width="1.894" stroke="black" fill="none" stroke-linecap="round"></path><path d="M 560.500,191.500 C 539.274,198.541 539.414,195.771 520.000,209.000" stroke-width="1.651" stroke="black" fill="none" stroke-linecap="round"></path><path d="M 520.000,209.000 C 506.565,216.155 507.024,216.041 496.000,226.500" stroke-width="1.861" stroke="black" fill="none" stroke-linecap="round"></path><path d="M 496.000,226.500 C 471.695,252.741 470.565,251.405 448.000,279.500" stroke-width="1.188" stroke="black" fill="none" stroke-linecap="round"></path><path d="M 448.000,279.500 C 441.417,284.862 442.695,285.491 438.000,292.000" stroke-width="1.994" stroke="black" fill="none" stroke-linecap="round"></path><path d="M 438.000,292.000 C 431.159,309.102 430.167,308.362 425.500,326.500" stroke-width="1.941" stroke="black" fill="none" stroke-linecap="round"></path><path d="M 425.500,326.500 C 424.226,330.025 424.409,329.852 424.500,333.500" stroke-width="2.994" stroke="black" fill="none" stroke-linecap="round"></path><path d="M 424.500,333.500 C 424.330,340.082 424.976,339.525 427.000,345.500" stroke-width="3.181" stroke="black" fill="none" stroke-linecap="round"></path><path d="M 427.000,345.500 C 432.204,358.829 432.830,357.332 441.500,368.000" stroke-width="2.268" stroke="black" fill="none" stroke-linecap="round"></path><path d="M 441.500,368.000 C 451.516,378.072 450.704,377.079 464.000,382.000" stroke-width="2.219" stroke="black" fill="none" stroke-linecap="round"></path><path d="M 464.000,382.000 C 496.948,391.898 496.016,392.072 530.500,396.000" stroke-width="1.321" stroke="black" fill="none" stroke-linecap="round"></path><path d="M 530.500,396.000 C 554.749,398.413 554.198,398.898 578.500,396.000" stroke-width="1.379" stroke="black" fill="none" stroke-linecap="round"></path><path d="M 578.500,396.000 C 601.926,393.087 601.499,393.663 624.000,386.500" stroke-width="1.422" stroke="black" fill="none" stroke-linecap="round"></path><path d="M 624.000,386.500 C 634.317,384.213 632.926,383.837 640.500,377.500" stroke-width="2.076" stroke="black" fill="none" stroke-linecap="round"></path><path d="M 640.500,377.500 C 651.789,364.018 651.817,365.213 659.000,348.500" stroke-width="1.864" stroke="black" fill="none" stroke-linecap="round"></path><path d="M 659.000,348.500 C 671.212,320.922 671.539,321.518 680.000,292.500" stroke-width="1.332" stroke="black" fill="none" stroke-linecap="round"></path><path d="M 680.000,292.500 C 681.620,282.536 682.962,282.922 682.500,272.500" stroke-width="2.011" stroke="black" fill="none" stroke-linecap="round"></path><path d="M 682.500,272.500 C 685.000,253.962 684.120,254.036 685.000,235.500" stroke-width="1.720" stroke="black" fill="none" stroke-linecap="round"></path><path d="M 685.000,235.500 C 683.873,225.733 685.000,225.712 682.500,216.000" stroke-width="2.214" stroke="black" fill="none" stroke-linecap="round"></path><path d="M 682.500,216.000 C 681.816,205.955 681.123,206.233 679.500,196.500" stroke-width="2.419" stroke="black" fill="none" stroke-linecap="round"></path><path d="M 679.500,196.500 C 678.507,193.507 678.816,193.705 676.500,191.500" stroke-width="3.403" stroke="black" fill="none" stroke-linecap="round"></path><path d="M 676.500,191.500 C 673.884,189.510 674.257,189.257 671.000,188.000" stroke-width="3.798" stroke="black" fill="none" stroke-linecap="round"></path><path d="M 671.000,188.000 C 663.463,183.616 663.384,184.010 655.500,180.500" stroke-width="3.035" stroke="black" fill="none" stroke-linecap="round"></path><path d="M 655.500,180.500 C 651.682,180.004 651.963,179.116 648.000,179.000" stroke-width="3.536" stroke="black" fill="none" stroke-linecap="round"></path><path d="M 648.000,179.000 C 643.040,178.244 643.432,177.754 639.000,176.000" stroke-width="3.588" stroke="black" fill="none" stroke-linecap="round"></path><path d="M 607.000,294.500 C 613.778,294.956 613.750,294.500 620.500,294.500" stroke-width="4.373" stroke="black" fill="none" stroke-linecap="round"></path><path d="M 620.500,294.500 C 628.496,293.470 628.528,293.956 636.500,292.500" stroke-width="3.215" stroke="black" fill="none" stroke-linecap="round"></path><path d="M 636.500,292.500 C 644.983,291.335 644.996,291.470 653.500,290.500" stroke-width="2.850" stroke="black" fill="none" stroke-linecap="round"></path><path d="M 653.500,290.500 C 695.997,286.470 695.983,286.335 738.500,282.500" stroke-width="1.125" stroke="black" fill="none" stroke-linecap="round"></path><path d="M 738.500,282.500 C 786.979,277.764 786.997,277.970 835.500,273.500" stroke-width="1.125" stroke="black" fill="none" stroke-linecap="round"></path><path d="M 835.500,273.500 C 952.071,264.245 951.979,263.264 1068.500,253.500" stroke-width="1.125" stroke="black" fill="none" stroke-linecap="round"></path><path d="M 1068.500,253.500 C 1133.910,249.462 1133.571,247.495 1198.500,240.000" stroke-width="1.125" stroke="black" fill="none" stroke-linecap="round"></path><path d="M 1198.500,240.000 C 1251.364,229.992 1251.660,232.212 1304.000,219.000" stroke-width="1.125" stroke="black" fill="none" stroke-linecap="round"></path><path d="M 1304.000,219.000 C 1313.610,216.835 1313.614,216.992 1323.000,214.000" stroke-width="1.390" stroke="black" fill="none" stroke-linecap="round"></path><path d="M 1323.000,214.000 C 1326.750,212.500 1326.860,212.835 1330.500,211.000" stroke-width="2.481" stroke="black" fill="none" stroke-linecap="round"></path><path d="M 1330.500,211.000 C 1334.147,209.079 1334.250,209.500 1338.000,208.000" stroke-width="3.284" stroke="black" fill="none" stroke-linecap="round"></path><path d="M 1338.000,208.000 C 1340.496,207.703 1340.397,207.329 1343.000,207.500" stroke-width="3.884" stroke="black" fill="none" stroke-linecap="round"></path><path d="M 1343.000,207.500 C 1349.910,205.887 1349.746,206.953 1356.500,206.500" stroke-width="3.258" stroke="black" fill="none" stroke-linecap="round"></path><path d="M 1356.500,206.500 C 1360.803,207.434 1360.660,206.887 1364.500,209.500" stroke-width="3.583" stroke="black" fill="none" stroke-linecap="round"></path><path d="M 1364.500,209.500 C 1369.465,212.302 1369.303,212.184 1373.500,216.000" stroke-width="3.330" stroke="black" fill="none" stroke-linecap="round"></path><path d="M 1373.500,216.000 C 1377.644,220.236 1375.465,217.802 1376.500,220.500" stroke-width="4.257" stroke="black" fill="none" stroke-linecap="round"></path><path d="M 1376.500,220.500 C 1371.880,218.387 1374.394,220.986 1367.000,217.500" stroke-width="4.615" stroke="black" fill="none" stroke-linecap="round"></path><path d="M 1367.000,217.500 C 1358.018,216.296 1358.130,215.887 1349.000,215.500" stroke-width="3.105" stroke="black" fill="none" stroke-linecap="round"></path><path d="M 1349.000,215.500 C 1341.009,214.805 1341.018,214.796 1333.000,214.500" stroke-width="2.892" stroke="black" fill="none" stroke-linecap="round"></path><path d="M 1333.000,214.500 C 1314.740,214.257 1314.759,213.805 1296.500,213.500" stroke-width="2.018" stroke="black" fill="none" stroke-linecap="round"></path><path d="M 1296.500,213.500 C 1254.522,210.809 1254.490,211.757 1212.500,209.500" stroke-width="1.125" stroke="black" fill="none" stroke-linecap="round"></path><path d="M 1212.500,209.500 C 1165.892,204.146 1166.272,208.059 1120.000,208.000" stroke-width="1.125" stroke="black" fill="none" stroke-linecap="round"></path><path d="M 1120.000,208.000 C 1067.320,214.168 1067.642,212.396 1016.000,226.000" stroke-width="1.125" stroke="black" fill="none" stroke-linecap="round"></path><path d="M 1016.000,226.000 C 978.450,239.617 977.320,234.918 940.000,249.500" stroke-width="1.125" stroke="black" fill="none" stroke-linecap="round"></path><path d="M 940.000,249.500 C 915.815,254.497 916.200,255.617 891.500,258.000" stroke-width="1.214" stroke="black" fill="none" stroke-linecap="round"></path><path d="M 891.500,258.000 C 886.245,258.146 886.315,258.747 881.000,258.000" stroke-width="2.206" stroke="black" fill="none" stroke-linecap="round"></path></svg>