<svg xmlns="http://www.w3.org/2000/svg" xmlns:xlink="http://www.w3.org/1999/xlink" viewBox="0 0 1460 581" width="1460" height="581"><path d="M 196.500,148.500 C 210.593,140.048 211.250,142.750 226.000,137.000" stroke-width="4.195" stroke="black" fill="none" stroke-linecap="round"></path><path d="M 226.000,137.000 C 256.680,131.356 256.093,131.048 287.500,130.500" stroke-width="1.542" stroke="black" fill="none" stroke-linecap="round"></path><path d="M 287.500,130.500 C 320.308,128.140 319.680,129.606 352.000,133.500" stroke-width="1.263" stroke="black" fill="none" stroke-linecap="round"></path><path d="M 352.000,133.500 C 403.742,147.435 404.558,142.390 456.000,159.000" stroke-width="1.125" stroke="black" fill="none" stroke-linecap="round"></path><path d="M 456.000,159.000 C 495.753,165.371 495.242,167.685 535.000,174.000" stroke-width="1.125" stroke="black" fill="none" stroke-linecap="round"></path><path d="M 535.000,174.000 C 567.807,177.792 566.253,180.871 597.000,190.000" stroke-width="1.125" stroke="black" fill="none" stroke-linecap="round"></path><path d="M 597.000,190.000 C 620.670,205.576 622.807,200.792 645.000,220.000" stroke-width="1.149" stroke="black" fill="none" stroke-linecap="round"></path><path d="M 645.000,220.000 C 657.746,223.474 655.670,226.326 667.000,231.500" stroke-width="1.763" stroke="black" fill="none" stroke-linecap="round"></path><path d="M 667.000,231.500 C 685.207,249.523 685.996,247.974 701.500,269.000" stroke-width="1.447" stroke="black" fill="none" stroke-linecap="round"></path><path d="M 701.500,269.000 C 707.137,275.707 706.957,275.523 710.500,283.500" stroke-width="2.153" stroke="black" fill="none" stroke-linecap="round"></path><path d="M 710.500,283.500 C 716.667,299.886 717.387,299.457 722.000,316.500" stroke-width="1.867" stroke="black" fill="none" stroke-linecap="round"></path><path d="M 722.000,316.500 C 723.121,320.213 723.167,320.136 723.500,324.000" stroke-width="2.932" stroke="black" fill="none" stroke-linecap="round"></path><path d="M 723.500,324.000 C 723.500,327.750 723.871,327.713 723.500,331.500" stroke-width="3.550" stroke="black" fill="none" stroke-linecap="round"></path><path d="M 723.500,331.500 C 723.957,334.801 723.500,334.750 723.500,338.000" stroke-width="3.804" stroke="black" fill="none" stroke-linecap="round"></path><path d="M 723.500,338.000 C 722.333,343.520 722.707,343.551 721.000,349.000" stroke-width="3.436" stroke="black" fill="none" stroke-linecap="round"></path><path d="M 721.000,349.000 C 719.829,352.712 720.083,352.770 719.000,356.500" stroke-width="3.675" stroke="black" fill="none" stroke-linecap="round"></path></svg>