<svg xmlns="http://www.w3.org/2000/svg" xmlns:xlink="http://www.w3.org/1999/xlink" viewBox="0 0 1460 581" width="1460" height="581"><path d="M 212.500,157.000 C 219.269,155.014 219.250,156.250 226.000,155.500" stroke-width="4.877" stroke="black" fill="none" stroke-linecap="round"></path><path d="M 226.000,155.500 C 243.623,157.287 243.519,156.764 261.000,160.500" stroke-width="2.395" stroke="black" fill="none" stroke-linecap="round"></path><path d="M 261.000,160.500 C 303.897,165.700 303.123,168.287 345.000,177.500" stroke-width="1.125" stroke="black" fill="none" stroke-linecap="round"></path><path d="M 345.000,177.500 C 409.537,194.443 408.397,195.700 470.000,220.500" stroke-width="1.125" stroke="black" fill="none" stroke-linecap="round"></path><path d="M 470.000,220.500 C 512.156,244.889 514.537,239.693 555.000,268.000" stroke-width="1.125" stroke="black" fill="none" stroke-linecap="round"></path><path d="M 555.000,268.000 C 592.915,285.196 591.406,287.639 628.500,306.000" stroke-width="1.125" stroke="black" fill="none" stroke-linecap="round"></path><path d="M 628.500,306.000 C 640.247,315.856 641.665,313.696 652.500,325.000" stroke-width="1.403" stroke="black" fill="none" stroke-linecap="round"></path><path d="M 652.500,325.000 C 657.664,327.503 656.997,328.356 662.000,331.000" stroke-width="2.378" stroke="black" fill="none" stroke-linecap="round"></path><path d="M 662.000,331.000 C 665.550,333.897 665.414,333.753 668.000,337.500" stroke-width="3.171" stroke="black" fill="none" stroke-linecap="round"></path><path d="M 668.000,337.500 C 670.196,340.362 669.800,340.147 670.500,343.500" stroke-width="3.709" stroke="black" fill="none" stroke-linecap="round"></path><path d="M 670.500,343.500 C 671.079,348.659 670.946,348.112 669.500,353.000" stroke-width="3.633" stroke="black" fill="none" stroke-linecap="round"></path><path d="M 669.500,353.000 C 667.687,357.285 668.079,356.909 664.500,360.000" stroke-width="3.651" stroke="black" fill="none" stroke-linecap="round"></path><path d="M 664.500,360.000 C 654.360,365.544 660.937,363.035 656.000,364.500" stroke-width="3.553" stroke="black" fill="none" stroke-linecap="round"></path><path d="M 656.000,364.500 C 665.558,358.353 659.860,362.044 675.500,353.000" stroke-width="4.445" stroke="black" fill="none" stroke-linecap="round"></path><path d="M 675.500,353.000 C 678.645,351.426 678.558,351.353 682.000,350.500" stroke-width="4.117" stroke="black" fill="none" stroke-linecap="round"></path><path d="M 682.000,350.500 C 726.140,335.313 726.645,338.176 771.500,326.500" stroke-width="1.142" stroke="black" fill="none" stroke-linecap="round"></path><path d="M 771.500,326.500 C 814.118,319.700 813.640,318.313 857.000,316.500" stroke-width="1.125" stroke="black" fill="none" stroke-linecap="round"></path><path d="M 857.000,316.500 C 897.999,315.227 897.868,313.450 939.000,314.000" stroke-width="1.125" stroke="black" fill="none" stroke-linecap="round"></path><path d="M 939.000,314.000 C 956.497,313.313 956.499,313.477 974.000,313.000" stroke-width="1.410" stroke="black" fill="none" stroke-linecap="round"></path><path d="M 974.000,313.000 C 984.513,312.687 984.497,312.813 995.000,313.000" stroke-width="1.998" stroke="black" fill="none" stroke-linecap="round"></path><path d="M 995.000,313.000 C 1001.243,313.687 1001.263,313.187 1007.500,314.000" stroke-width="2.687" stroke="black" fill="none" stroke-linecap="round"></path><path d="M 1007.500,314.000 C 1016.391,312.817 1011.243,314.187 1015.000,314.000" stroke-width="3.396" stroke="black" fill="none" stroke-linecap="round"></path><path d="M 1015.000,314.000 C 1006.749,319.602 1011.391,317.067 997.500,322.500" stroke-width="4.081" stroke="black" fill="none" stroke-linecap="round"></path><path d="M 997.500,322.500 C 968.951,330.876 969.249,331.352 940.000,337.500" stroke-width="1.580" stroke="black" fill="none" stroke-linecap="round"></path><path d="M 940.000,337.500 C 909.852,344.274 909.951,344.376 879.500,349.500" stroke-width="1.259" stroke="black" fill="none" stroke-linecap="round"></path><path d="M 879.500,349.500 C 871.974,350.930 872.102,350.774 864.500,350.500" stroke-width="2.115" stroke="black" fill="none" stroke-linecap="round"></path><path d="M 864.500,350.500 C 850.128,349.457 850.224,349.680 836.000,347.000" stroke-width="2.043" stroke="black" fill="none" stroke-linecap="round"></path><path d="M 836.000,347.000 C 821.623,342.937 821.378,344.457 807.000,340.500" stroke-width="1.990" stroke="black" fill="none" stroke-linecap="round"></path><path d="M 807.000,340.500 C 797.458,340.097 797.623,338.937 788.000,339.000" stroke-width="2.457" stroke="black" fill="none" stroke-linecap="round"></path><path d="M 788.000,339.000 C 780.212,337.935 780.208,338.097 772.500,336.500" stroke-width="2.767" stroke="black" fill="none" stroke-linecap="round"></path><path d="M 772.500,336.500 C 769.454,335.899 769.462,335.935 766.500,335.000" stroke-width="3.559" stroke="black" fill="none" stroke-linecap="round"></path><path d="M 766.500,335.000 C 763.209,334.689 763.704,334.149 761.000,333.000" stroke-width="3.975" stroke="black" fill="none" stroke-linecap="round"></path><path d="M 761.000,333.000 C 758.433,330.992 758.959,331.439 758.000,328.500" stroke-width="4.133" stroke="black" fill="none" stroke-linecap="round"></path><path d="M 758.000,328.500 C 757.665,324.654 757.433,325.242 759.000,321.500" stroke-width="3.968" stroke="black" fill="none" stroke-linecap="round"></path><path d="M 759.000,321.500 C 760.488,317.187 760.415,318.154 763.500,315.500" stroke-width="3.922" stroke="black" fill="none" stroke-linecap="round"></path><path d="M 763.500,315.500 C 767.559,314.237 766.738,313.687 771.500,314.500" stroke-width="3.847" stroke="black" fill="none" stroke-linecap="round"></path><path d="M 771.500,314.500 C 778.244,316.884 775.059,314.737 778.500,316.500" stroke-width="3.860" stroke="black" fill="none" stroke-linecap="round"></path><path d="M 778.500,316.500 C 775.405,314.895 778.744,316.134 772.500,313.000" stroke-width="4.839" stroke="black" fill="none" stroke-linecap="round"></path><path d="M 772.500,313.000 C 770.137,310.263 769.655,311.145 767.000,309.000" stroke-width="4.233" stroke="black" fill="none" stroke-linecap="round"></path><path d="M 767.000,309.000 C 749.817,300.320 749.637,302.013 731.500,296.500" stroke-width="1.970" stroke="black" fill="none" stroke-linecap="round"></path><path d="M 731.500,296.500 C 702.554,292.388 703.067,290.570 673.500,289.500" stroke-width="1.420" stroke="black" fill="none" stroke-linecap="round"></path><path d="M 673.500,289.500 C 659.763,288.079 659.804,288.138 646.000,288.000" stroke-width="1.818" stroke="black" fill="none" stroke-linecap="round"></path><path d="M 646.000,288.000 C 615.995,288.306 616.013,287.829 586.000,289.000" stroke-width="1.322" stroke="black" fill="none" stroke-linecap="round"></path><path d="M 586.000,289.000 C 572.751,289.521 572.745,289.306 559.500,290.000" stroke-width="1.794" stroke="black" fill="none" stroke-linecap="round"></path><path d="M 559.500,290.000 C 552.002,290.350 552.001,290.271 544.500,290.500" stroke-width="2.448" stroke="black" fill="none" stroke-linecap="round"></path><path d="M 544.500,290.500 C 539.479,290.207 539.502,290.600 534.500,290.500" stroke-width="3.123" stroke="black" fill="none" stroke-linecap="round"></path><path d="M 534.500,290.500 C 531.016,291.160 530.979,290.707 527.500,291.500" stroke-width="3.630" stroke="black" fill="none" stroke-linecap="round"></path><path d="M 527.500,291.500 C 523.253,291.858 523.266,291.910 519.000,292.000" stroke-width="3.712" stroke="black" fill="none" stroke-linecap="round"></path><path d="M 519.000,292.000 C 511.208,292.646 515.753,292.108 512.500,292.000" stroke-width="4.352" stroke="black" fill="none" stroke-linecap="round"></path><path d="M 512.500,292.000 C 520.153,288.621 515.708,290.396 528.000,287.500" stroke-width="4.449" stroke="black" fill="none" stroke-linecap="round"></path></svg>