<svg xmlns="http://www.w3.org/2000/svg" xmlns:xlink="http://www.w3.org/1999/xlink" viewBox="0 0 1460 576" width="1460" height="576"><path d="M 444.000,169.000 C 452.315,165.711 452.500,167.000 461.000,165.000" stroke-width="4.308" stroke="black" fill="none" stroke-linecap="round"></path><path d="M 461.000,165.000 C 507.577,158.996 507.315,161.211 554.000,160.000" stroke-width="1.125" stroke="black" fill="none" stroke-linecap="round"></path><path d="M 554.000,160.000 C 602.195,155.773 600.077,160.996 646.000,169.000" stroke-width="1.125" stroke="black" fill="none" stroke-linecap="round"></path><path d="M 646.000,169.000 C 727.733,202.472 729.695,194.273 809.000,237.000" stroke-width="1.125" stroke="black" fill="none" stroke-linecap="round"></path><path d="M 809.000,237.000 C 825.260,241.971 824.233,243.472 839.000,251.000" stroke-width="1.125" stroke="black" fill="none" stroke-linecap="round"></path><path d="M 839.000,251.000 C 859.757,266.267 860.260,264.971 879.000,283.000" stroke-width="1.334" stroke="black" fill="none" stroke-linecap="round"></path><path d="M 879.000,283.000 C 882.179,286.876 882.757,286.267 885.000,291.000" stroke-width="2.341" stroke="black" fill="none" stroke-linecap="round"></path><path d="M 885.000,291.000 C 890.423,295.888 888.679,296.376 892.000,302.000" stroke-width="2.873" stroke="black" fill="none" stroke-linecap="round"></path><path d="M 892.000,302.000 C 893.774,312.319 894.423,311.388 893.000,322.000" stroke-width="2.600" stroke="black" fill="none" stroke-linecap="round"></path><path d="M 893.000,322.000 C 887.716,326.714 892.774,324.819 890.000,327.000" stroke-width="3.540" stroke="black" fill="none" stroke-linecap="round"></path><path d="M 890.000,327.000 C 907.629,327.762 903.716,328.714 925.000,326.000" stroke-width="3.374" stroke="black" fill="none" stroke-linecap="round"></path><path d="M 925.000,326.000 C 941.923,322.344 942.129,324.262 959.000,320.000" stroke-width="2.146" stroke="black" fill="none" stroke-linecap="round"></path><path d="M 959.000,320.000 C 967.694,317.784 967.423,318.844 976.000,319.000" stroke-width="2.571" stroke="black" fill="none" stroke-linecap="round"></path><path d="M 976.000,319.000 C 988.242,321.946 988.194,320.784 1000.000,326.000" stroke-width="2.296" stroke="black" fill="none" stroke-linecap="round"></path></svg>