<svg xmlns="http://www.w3.org/2000/svg" xmlns:xlink="http://www.w3.org/1999/xlink" viewBox="0 0 1460 576" width="1460" height="576"><path d="M 558.000,223.000 C 553.347,222.131 553.500,223.000 549.000,223.000" stroke-width="5.224" stroke="black" fill="none" stroke-linecap="round"></path><path d="M 549.000,223.000 C 543.514,225.039 543.347,224.131 538.000,227.000" stroke-width="3.664" stroke="black" fill="none" stroke-linecap="round"></path><path d="M 538.000,227.000 C 521.060,233.184 521.014,233.039 504.000,239.000" stroke-width="2.054" stroke="black" fill="none" stroke-linecap="round"></path><path d="M 504.000,239.000 C 498.841,240.064 499.060,240.684 494.000,242.000" stroke-width="2.918" stroke="black" fill="none" stroke-linecap="round"></path><path d="M 494.000,242.000 C 476.022,244.827 478.841,248.064 464.000,255.000" stroke-width="2.077" stroke="black" fill="none" stroke-linecap="round"></path><path d="M 464.000,255.000 C 449.541,269.032 450.022,266.827 442.000,286.000" stroke-width="2.426" stroke="black" fill="none" stroke-linecap="round"></path><path d="M 442.000,286.000 C 437.635,302.064 435.541,300.532 436.000,318.000" stroke-width="2.113" stroke="black" fill="none" stroke-linecap="round"></path><path d="M 436.000,318.000 C 435.640,322.345 435.635,321.564 438.000,325.000" stroke-width="3.128" stroke="black" fill="none" stroke-linecap="round"></path><path d="M 438.000,325.000 C 447.934,336.745 447.640,335.845 460.000,345.000" stroke-width="2.283" stroke="black" fill="none" stroke-linecap="round"></path><path d="M 460.000,345.000 C 467.756,348.939 466.934,349.745 476.000,351.000" stroke-width="2.625" stroke="black" fill="none" stroke-linecap="round"></path><path d="M 476.000,351.000 C 486.058,354.000 485.756,353.439 496.000,354.000" stroke-width="2.525" stroke="black" fill="none" stroke-linecap="round"></path><path d="M 496.000,354.000 C 502.920,353.432 502.558,354.000 509.000,351.000" stroke-width="2.933" stroke="black" fill="none" stroke-linecap="round"></path><path d="M 509.000,351.000 C 512.626,348.663 512.920,349.432 516.000,346.000" stroke-width="3.406" stroke="black" fill="none" stroke-linecap="round"></path><path d="M 516.000,346.000 C 522.214,341.235 522.126,341.163 528.000,336.000" stroke-width="3.059" stroke="black" fill="none" stroke-linecap="round"></path><path d="M 528.000,336.000 C 532.387,331.382 532.714,331.735 537.000,327.000" stroke-width="3.110" stroke="black" fill="none" stroke-linecap="round"></path><path d="M 537.000,327.000 C 541.968,320.903 542.387,321.882 548.000,317.000" stroke-width="3.611" stroke="black" fill="none" stroke-linecap="round"></path><path d="M 618.000,215.000 C 616.757,219.460 617.000,219.500 616.000,224.000" stroke-width="4.303" stroke="black" fill="none" stroke-linecap="round"></path><path d="M 616.000,224.000 C 615.977,228.605 615.257,228.460 615.000,233.000" stroke-width="3.779" stroke="black" fill="none" stroke-linecap="round"></path><path d="M 615.000,233.000 C 613.303,237.441 613.977,237.605 612.000,242.000" stroke-width="3.602" stroke="black" fill="none" stroke-linecap="round"></path><path d="M 612.000,242.000 C 609.155,251.422 609.303,251.441 607.000,261.000" stroke-width="2.774" stroke="black" fill="none" stroke-linecap="round"></path><path d="M 607.000,261.000 C 604.955,271.492 604.655,271.422 603.000,282.000" stroke-width="2.439" stroke="black" fill="none" stroke-linecap="round"></path><path d="M 603.000,282.000 C 600.809,292.968 600.955,292.992 599.000,304.000" stroke-width="2.432" stroke="black" fill="none" stroke-linecap="round"></path><path d="M 599.000,304.000 C 595.372,323.429 595.809,323.468 593.000,343.000" stroke-width="2.168" stroke="black" fill="none" stroke-linecap="round"></path><path d="M 593.000,343.000 C 591.819,356.493 591.372,356.429 591.000,370.000" stroke-width="2.222" stroke="black" fill="none" stroke-linecap="round"></path><path d="M 671.000,312.000 C 671.740,318.584 671.000,318.500 671.000,325.000" stroke-width="4.895" stroke="black" fill="none" stroke-linecap="round"></path><path d="M 671.000,325.000 C 669.051,331.430 670.240,331.584 668.000,338.000" stroke-width="3.454" stroke="black" fill="none" stroke-linecap="round"></path><path d="M 668.000,338.000 C 667.690,344.021 667.051,343.930 667.000,350.000" stroke-width="3.279" stroke="black" fill="none" stroke-linecap="round"></path><circle r="1.5" cx="688" cy="263" fill="black"></circle><path d="M 684.000,348.000 C 686.471,346.920 686.500,347.000 689.000,346.000" stroke-width="5.141" stroke="black" fill="none" stroke-linecap="round"></path><path d="M 689.000,346.000 C 691.972,344.908 691.971,344.920 695.000,344.000" stroke-width="4.310" stroke="black" fill="none" stroke-linecap="round"></path><path d="M 695.000,344.000 C 702.011,342.038 701.972,341.908 709.000,340.000" stroke-width="3.326" stroke="black" fill="none" stroke-linecap="round"></path><path d="M 709.000,340.000 C 714.000,338.500 714.011,338.538 719.000,337.000" stroke-width="3.380" stroke="black" fill="none" stroke-linecap="round"></path><path d="M 719.000,337.000 C 729.494,335.143 729.000,334.000 739.000,331.000" stroke-width="2.662" stroke="black" fill="none" stroke-linecap="round"></path><path d="M 739.000,331.000 C 748.984,326.131 748.994,326.643 758.000,320.000" stroke-width="2.514" stroke="black" fill="none" stroke-linecap="round"></path><path d="M 758.000,320.000 C 761.269,317.228 761.484,317.631 764.000,314.000" stroke-width="3.269" stroke="black" fill="none" stroke-linecap="round"></path><path d="M 764.000,314.000 C 767.116,310.767 766.769,310.728 769.000,307.000" stroke-width="4.037" stroke="black" fill="none" stroke-linecap="round"></path><path d="M 769.000,307.000 C 771.236,303.854 770.116,304.767 770.000,302.000" stroke-width="4.194" stroke="black" fill="none" stroke-linecap="round"></path><path d="M 770.000,302.000 C 765.933,297.611 767.236,297.854 761.000,295.000" stroke-width="4.185" stroke="black" fill="none" stroke-linecap="round"></path><path d="M 761.000,295.000 C 757.075,293.388 757.433,293.111 753.000,293.000" stroke-width="3.899" stroke="black" fill="none" stroke-linecap="round"></path><path d="M 753.000,293.000 C 746.464,292.641 746.575,292.388 740.000,293.000" stroke-width="3.306" stroke="black" fill="none" stroke-linecap="round"></path><path d="M 740.000,293.000 C 737.429,293.253 737.464,293.141 735.000,294.000" stroke-width="3.924" stroke="black" fill="none" stroke-linecap="round"></path><path d="M 735.000,294.000 C 730.125,294.210 730.929,295.253 727.000,297.000" stroke-width="3.740" stroke="black" fill="none" stroke-linecap="round"></path><path d="M 727.000,297.000 C 715.396,307.169 716.125,306.710 707.000,319.000" stroke-width="2.836" stroke="black" fill="none" stroke-linecap="round"></path><path d="M 707.000,319.000 C 704.711,323.659 704.396,322.669 705.000,328.000" stroke-width="3.359" stroke="black" fill="none" stroke-linecap="round"></path><path d="M 705.000,328.000 C 705.838,331.477 705.211,331.159 708.000,334.000" stroke-width="3.804" stroke="black" fill="none" stroke-linecap="round"></path><path d="M 708.000,334.000 C 714.911,342.318 714.838,341.977 723.000,349.000" stroke-width="3.530" stroke="black" fill="none" stroke-linecap="round"></path><path d="M 723.000,349.000 C 726.728,351.983 726.411,351.818 731.000,353.000" stroke-width="3.584" stroke="black" fill="none" stroke-linecap="round"></path><path d="M 731.000,353.000 C 737.633,354.579 737.228,354.483 744.000,354.000" stroke-width="3.908" stroke="black" fill="none" stroke-linecap="round"></path><path d="M 744.000,354.000 C 748.535,352.595 748.633,353.579 753.000,351.000" stroke-width="3.695" stroke="black" fill="none" stroke-linecap="round"></path><path d="M 753.000,351.000 C 755.500,350.000 755.535,350.095 758.000,349.000" stroke-width="4.040" stroke="black" fill="none" stroke-linecap="round"></path><path d="M 758.000,349.000 C 762.949,346.861 763.000,347.000 768.000,345.000" stroke-width="3.603" stroke="black" fill="none" stroke-linecap="round"></path><path d="M 768.000,345.000 C 772.397,342.863 772.449,343.361 777.000,342.000" stroke-width="4.158" stroke="black" fill="none" stroke-linecap="round"></path><path d="M 854.000,285.000 C 855.361,291.974 855.000,292.000 856.000,299.000" stroke-width="4.646" stroke="black" fill="none" stroke-linecap="round"></path><path d="M 856.000,299.000 C 856.465,303.051 856.361,302.974 856.000,307.000" stroke-width="4.039" stroke="black" fill="none" stroke-linecap="round"></path><path d="M 856.000,307.000 C 854.606,311.457 855.465,311.551 854.000,316.000" stroke-width="4.283" stroke="black" fill="none" stroke-linecap="round"></path><path d="M 854.000,316.000 C 854.000,319.000 853.606,318.957 854.000,322.000" stroke-width="4.775" stroke="black" fill="none" stroke-linecap="round"></path><path d="M 854.000,322.000 C 854.000,325.000 854.000,325.000 854.000,328.000" stroke-width="4.945" stroke="black" fill="none" stroke-linecap="round"></path><path d="M 854.000,328.000 C 854.000,335.000 854.000,335.000 854.000,342.000" stroke-width="4.875" stroke="black" fill="none" stroke-linecap="round"></path><path d="M 854.000,342.000 C 853.730,345.027 854.000,345.000 854.000,348.000" stroke-width="4.298" stroke="black" fill="none" stroke-linecap="round"></path><path d="M 854.000,348.000 C 854.330,353.223 854.230,350.527 855.000,353.000" stroke-width="4.991" stroke="black" fill="none" stroke-linecap="round"></path><path d="M 855.000,353.000 C 855.705,349.878 855.830,352.723 857.000,347.000" stroke-width="4.332" stroke="black" fill="none" stroke-linecap="round"></path><path d="M 857.000,347.000 C 860.500,340.000 860.205,339.878 864.000,333.000" stroke-width="3.170" stroke="black" fill="none" stroke-linecap="round"></path><path d="M 864.000,333.000 C 868.000,325.000 868.000,325.000 872.000,317.000" stroke-width="2.918" stroke="black" fill="none" stroke-linecap="round"></path><path d="M 872.000,317.000 C 875.390,309.942 875.500,310.000 879.000,303.000" stroke-width="2.800" stroke="black" fill="none" stroke-linecap="round"></path><path d="M 879.000,303.000 C 881.612,297.236 881.890,297.442 885.000,292.000" stroke-width="3.504" stroke="black" fill="none" stroke-linecap="round"></path><path d="M 885.000,292.000 C 887.145,288.617 887.112,288.736 890.000,286.000" stroke-width="3.742" stroke="black" fill="none" stroke-linecap="round"></path><path d="M 890.000,286.000 C 893.266,283.111 893.145,283.117 897.000,281.000" stroke-width="3.623" stroke="black" fill="none" stroke-linecap="round"></path><path d="M 897.000,281.000 C 904.873,276.694 904.766,276.611 913.000,273.000" stroke-width="2.887" stroke="black" fill="none" stroke-linecap="round"></path><path d="M 913.000,273.000 C 915.921,271.513 915.873,271.694 919.000,271.000" stroke-width="3.641" stroke="black" fill="none" stroke-linecap="round"></path><path d="M 919.000,271.000 C 922.581,269.791 921.921,270.513 925.000,271.000" stroke-width="4.358" stroke="black" fill="none" stroke-linecap="round"></path><path d="M 925.000,271.000 C 927.964,273.101 927.581,272.291 929.000,276.000" stroke-width="4.164" stroke="black" fill="none" stroke-linecap="round"></path><path d="M 929.000,276.000 C 930.752,280.571 930.464,280.101 930.000,285.000" stroke-width="3.860" stroke="black" fill="none" stroke-linecap="round"></path><path d="M 930.000,285.000 C 924.215,306.870 926.252,307.071 920.000,329.000" stroke-width="2.648" stroke="black" fill="none" stroke-linecap="round"></path><path d="M 920.000,329.000 C 918.635,338.481 918.215,338.370 918.000,348.000" stroke-width="2.648" stroke="black" fill="none" stroke-linecap="round"></path><path d="M 918.000,348.000 C 917.678,353.527 917.635,353.481 918.000,359.000" stroke-width="3.093" stroke="black" fill="none" stroke-linecap="round"></path><path d="M 1059.000,124.000 C 1059.000,127.000 1059.000,127.000 1059.000,130.000" stroke-width="5.374" stroke="black" fill="none" stroke-linecap="round"></path><path d="M 1059.000,130.000 C 1059.253,136.006 1059.000,136.000 1059.000,142.000" stroke-width="3.730" stroke="black" fill="none" stroke-linecap="round"></path><path d="M 1059.000,142.000 C 1057.734,171.514 1057.753,171.506 1056.000,201.000" stroke-width="1.439" stroke="black" fill="none" stroke-linecap="round"></path><path d="M 1056.000,201.000 C 1053.892,230.993 1054.234,231.014 1052.000,261.000" stroke-width="1.336" stroke="black" fill="none" stroke-linecap="round"></path><path d="M 1052.000,261.000 C 1051.242,286.587 1050.392,286.493 1049.000,312.000" stroke-width="1.294" stroke="black" fill="none" stroke-linecap="round"></path><path d="M 1049.000,312.000 C 1048.168,320.660 1048.242,320.587 1046.000,329.000" stroke-width="2.102" stroke="black" fill="none" stroke-linecap="round"></path><path d="M 1046.000,329.000 C 1041.441,345.676 1041.668,345.660 1036.000,362.000" stroke-width="2.314" stroke="black" fill="none" stroke-linecap="round"></path><path d="M 1036.000,362.000 C 1032.106,368.537 1034.941,365.176 1033.000,368.000" stroke-width="3.298" stroke="black" fill="none" stroke-linecap="round"></path><path d="M 1033.000,368.000 C 1037.294,363.716 1034.606,367.037 1041.000,359.000" stroke-width="4.464" stroke="black" fill="none" stroke-linecap="round"></path><path d="M 1118.000,256.000 C 1112.531,254.651 1112.500,255.000 1107.000,254.000" stroke-width="4.976" stroke="black" fill="none" stroke-linecap="round"></path><path d="M 1107.000,254.000 C 1103.989,253.779 1104.031,253.651 1101.000,254.000" stroke-width="4.322" stroke="black" fill="none" stroke-linecap="round"></path><path d="M 1101.000,254.000 C 1090.495,254.950 1090.489,254.779 1080.000,256.000" stroke-width="2.794" stroke="black" fill="none" stroke-linecap="round"></path><path d="M 1080.000,256.000 C 1065.546,258.617 1065.495,257.450 1051.000,259.000" stroke-width="2.246" stroke="black" fill="none" stroke-linecap="round"></path><path d="M 1051.000,259.000 C 1027.455,259.117 1027.546,259.617 1004.000,258.000" stroke-width="1.603" stroke="black" fill="none" stroke-linecap="round"></path><path d="M 1004.000,258.000 C 996.027,256.573 995.955,257.617 988.000,256.000" stroke-width="2.328" stroke="black" fill="none" stroke-linecap="round"></path></svg>