<svg xmlns="http://www.w3.org/2000/svg" xmlns:xlink="http://www.w3.org/1999/xlink" viewBox="0 0 1460 576" width="1460" height="576"><path d="M 314.000,339.000 C 310.880,337.160 311.000,337.000 308.000,335.000" stroke-width="5.413" stroke="black" fill="none" stroke-linecap="round"></path><path d="M 308.000,335.000 C 305.263,332.098 304.880,332.660 302.000,330.000" stroke-width="4.219" stroke="black" fill="none" stroke-linecap="round"></path><path d="M 302.000,330.000 C 298.140,327.592 298.263,327.598 294.000,326.000" stroke-width="3.772" stroke="black" fill="none" stroke-linecap="round"></path><path d="M 294.000,326.000 C 291.333,325.933 291.640,325.092 289.000,325.000" stroke-width="4.104" stroke="black" fill="none" stroke-linecap="round"></path><path d="M 289.000,325.000 C 286.602,323.301 286.333,323.933 284.000,322.000" stroke-width="4.163" stroke="black" fill="none" stroke-linecap="round"></path><path d="M 284.000,322.000 C 280.562,320.336 280.602,320.301 277.000,319.000" stroke-width="3.964" stroke="black" fill="none" stroke-linecap="round"></path><path d="M 277.000,319.000 C 272.594,316.919 272.562,317.336 268.000,316.000" stroke-width="4.127" stroke="black" fill="none" stroke-linecap="round"></path><path d="M 268.000,316.000 C 262.484,317.209 265.094,315.419 262.000,316.000" stroke-width="4.716" stroke="black" fill="none" stroke-linecap="round"></path><path d="M 262.000,316.000 C 263.648,313.116 261.484,314.709 266.000,311.000" stroke-width="5.233" stroke="black" fill="none" stroke-linecap="round"></path><path d="M 266.000,311.000 C 268.911,308.854 268.648,308.616 272.000,307.000" stroke-width="4.263" stroke="black" fill="none" stroke-linecap="round"></path><path d="M 272.000,307.000 C 276.569,304.618 276.411,304.354 281.000,302.000" stroke-width="4.258" stroke="black" fill="none" stroke-linecap="round"></path><path d="M 281.000,302.000 C 287.257,297.518 287.569,298.118 294.000,294.000" stroke-width="3.189" stroke="black" fill="none" stroke-linecap="round"></path><path d="M 294.000,294.000 C 299.021,292.050 298.757,291.518 304.000,290.000" stroke-width="3.859" stroke="black" fill="none" stroke-linecap="round"></path><path d="M 304.000,290.000 C 307.830,289.051 307.521,288.550 311.000,287.000" stroke-width="3.877" stroke="black" fill="none" stroke-linecap="round"></path><path d="M 311.000,287.000 C 315.846,282.779 316.330,283.551 321.000,279.000" stroke-width="3.998" stroke="black" fill="none" stroke-linecap="round"></path><path d="M 321.000,279.000 C 323.716,277.794 323.346,277.279 326.000,276.000" stroke-width="4.084" stroke="black" fill="none" stroke-linecap="round"></path><path d="M 326.000,276.000 C 330.600,272.106 330.716,272.294 335.000,268.000" stroke-width="3.430" stroke="black" fill="none" stroke-linecap="round"></path><path d="M 335.000,268.000 C 337.876,264.864 338.100,265.106 341.000,262.000" stroke-width="3.649" stroke="black" fill="none" stroke-linecap="round"></path><path d="M 341.000,262.000 C 344.133,259.646 343.876,259.364 347.000,257.000" stroke-width="3.790" stroke="black" fill="none" stroke-linecap="round"></path><path d="M 347.000,257.000 C 350.305,253.284 350.633,253.646 354.000,250.000" stroke-width="3.676" stroke="black" fill="none" stroke-linecap="round"></path><path d="M 354.000,250.000 C 359.737,245.762 359.305,245.284 365.000,241.000" stroke-width="3.851" stroke="black" fill="none" stroke-linecap="round"></path><path d="M 365.000,241.000 C 370.000,236.000 370.237,236.262 375.000,231.000" stroke-width="3.886" stroke="black" fill="none" stroke-linecap="round"></path><path d="M 375.000,231.000 C 377.399,229.287 377.000,229.000 379.000,227.000" stroke-width="4.071" stroke="black" fill="none" stroke-linecap="round"></path><path d="M 379.000,227.000 C 379.980,223.625 380.899,224.287 382.000,221.000" stroke-width="4.045" stroke="black" fill="none" stroke-linecap="round"></path><path d="M 382.000,221.000 C 389.000,214.000 384.980,217.125 389.000,214.000" stroke-width="4.195" stroke="black" fill="none" stroke-linecap="round"></path><path d="M 389.000,214.000 C 385.500,217.500 389.000,214.000 382.000,221.000" stroke-width="4.868" stroke="black" fill="none" stroke-linecap="round"></path><path d="M 382.000,221.000 C 379.000,224.000 379.000,224.000 376.000,227.000" stroke-width="4.029" stroke="black" fill="none" stroke-linecap="round"></path><path d="M 376.000,227.000 C 371.984,230.084 372.500,230.500 369.000,234.000" stroke-width="3.685" stroke="black" fill="none" stroke-linecap="round"></path><path d="M 369.000,234.000 C 363.965,240.731 363.984,240.584 360.000,248.000" stroke-width="3.723" stroke="black" fill="none" stroke-linecap="round"></path><path d="M 360.000,248.000 C 358.285,251.931 357.965,251.731 357.000,256.000" stroke-width="3.737" stroke="black" fill="none" stroke-linecap="round"></path><path d="M 357.000,256.000 C 355.889,261.649 355.285,261.431 354.000,267.000" stroke-width="3.470" stroke="black" fill="none" stroke-linecap="round"></path><path d="M 354.000,267.000 C 352.551,270.026 352.889,270.149 351.000,273.000" stroke-width="3.846" stroke="black" fill="none" stroke-linecap="round"></path><path d="M 351.000,273.000 C 346.739,281.637 346.551,281.526 342.000,290.000" stroke-width="2.913" stroke="black" fill="none" stroke-linecap="round"></path><path d="M 342.000,290.000 C 338.442,296.849 338.239,296.637 334.000,303.000" stroke-width="3.387" stroke="black" fill="none" stroke-linecap="round"></path><path d="M 334.000,303.000 C 331.417,305.421 331.942,305.849 329.000,308.000" stroke-width="3.777" stroke="black" fill="none" stroke-linecap="round"></path><path d="M 329.000,308.000 C 324.246,313.754 323.917,313.421 319.000,319.000" stroke-width="3.847" stroke="black" fill="none" stroke-linecap="round"></path><path d="M 319.000,319.000 C 315.070,321.588 315.746,322.254 312.000,325.000" stroke-width="3.705" stroke="black" fill="none" stroke-linecap="round"></path><path d="M 312.000,325.000 C 306.561,332.049 306.070,331.588 301.000,339.000" stroke-width="2.908" stroke="black" fill="none" stroke-linecap="round"></path><path d="M 301.000,339.000 C 298.557,342.049 298.561,342.049 296.000,345.000" stroke-width="3.468" stroke="black" fill="none" stroke-linecap="round"></path><path d="M 296.000,345.000 C 291.899,349.413 292.057,349.549 288.000,354.000" stroke-width="3.921" stroke="black" fill="none" stroke-linecap="round"></path><path d="M 288.000,354.000 C 283.379,359.405 283.399,359.413 279.000,365.000" stroke-width="3.279" stroke="black" fill="none" stroke-linecap="round"></path><path d="M 279.000,365.000 C 274.845,371.300 274.379,370.905 270.000,377.000" stroke-width="3.007" stroke="black" fill="none" stroke-linecap="round"></path><path d="M 270.000,377.000 C 266.300,381.345 266.345,381.300 262.000,385.000" stroke-width="3.257" stroke="black" fill="none" stroke-linecap="round"></path><path d="M 262.000,385.000 C 256.189,389.780 256.300,389.845 250.000,394.000" stroke-width="3.661" stroke="black" fill="none" stroke-linecap="round"></path><path d="M 250.000,394.000 C 245.240,397.477 245.189,397.280 240.000,400.000" stroke-width="3.428" stroke="black" fill="none" stroke-linecap="round"></path><path d="M 240.000,400.000 C 231.395,403.269 231.740,403.977 223.000,407.000" stroke-width="3.555" stroke="black" fill="none" stroke-linecap="round"></path><path d="M 223.000,407.000 C 218.086,409.688 217.895,409.269 213.000,412.000" stroke-width="3.381" stroke="black" fill="none" stroke-linecap="round"></path><path d="M 213.000,412.000 C 207.143,414.952 207.086,414.688 201.000,417.000" stroke-width="3.835" stroke="black" fill="none" stroke-linecap="round"></path><path d="M 201.000,417.000 C 196.507,418.678 196.643,418.452 192.000,419.000" stroke-width="4.230" stroke="black" fill="none" stroke-linecap="round"></path><path d="M 192.000,419.000 C 188.743,419.550 189.507,419.178 187.000,418.000" stroke-width="4.660" stroke="black" fill="none" stroke-linecap="round"></path><path d="M 187.000,418.000 C 184.576,414.678 184.243,415.550 183.000,411.000" stroke-width="4.035" stroke="black" fill="none" stroke-linecap="round"></path><path d="M 183.000,411.000 C 181.421,407.581 181.576,407.678 181.000,404.000" stroke-width="3.915" stroke="black" fill="none" stroke-linecap="round"></path><path d="M 181.000,404.000 C 179.942,398.836 180.421,399.081 181.000,394.000" stroke-width="3.646" stroke="black" fill="none" stroke-linecap="round"></path><path d="M 181.000,394.000 C 183.694,382.569 183.442,382.836 188.000,372.000" stroke-width="3.404" stroke="black" fill="none" stroke-linecap="round"></path><path d="M 188.000,372.000 C 189.658,369.147 189.194,369.069 192.000,367.000" stroke-width="3.811" stroke="black" fill="none" stroke-linecap="round"></path><path d="M 192.000,367.000 C 195.718,363.519 195.658,363.647 200.000,361.000" stroke-width="3.672" stroke="black" fill="none" stroke-linecap="round"></path><path d="M 200.000,361.000 C 204.290,358.367 204.218,358.519 209.000,357.000" stroke-width="3.537" stroke="black" fill="none" stroke-linecap="round"></path><path d="M 209.000,357.000 C 220.015,354.563 219.790,353.867 231.000,352.000" stroke-width="3.427" stroke="black" fill="none" stroke-linecap="round"></path><path d="M 231.000,352.000 C 234.936,350.650 235.015,351.063 239.000,350.000" stroke-width="3.717" stroke="black" fill="none" stroke-linecap="round"></path><path d="M 239.000,350.000 C 247.478,348.631 247.436,348.650 256.000,348.000" stroke-width="3.026" stroke="black" fill="none" stroke-linecap="round"></path><path d="M 256.000,348.000 C 261.000,348.000 260.978,347.631 266.000,348.000" stroke-width="3.318" stroke="black" fill="none" stroke-linecap="round"></path><path d="M 266.000,348.000 C 271.000,348.000 271.000,348.000 276.000,348.000" stroke-width="3.472" stroke="black" fill="none" stroke-linecap="round"></path><path d="M 276.000,348.000 C 279.063,348.452 279.000,348.000 282.000,348.000" stroke-width="3.883" stroke="black" fill="none" stroke-linecap="round"></path><path d="M 282.000,348.000 C 285.470,346.882 285.563,347.452 289.000,346.000" stroke-width="3.922" stroke="black" fill="none" stroke-linecap="round"></path><path d="M 289.000,346.000 C 293.659,345.447 293.470,344.882 298.000,344.000" stroke-width="3.668" stroke="black" fill="none" stroke-linecap="round"></path><path d="M 298.000,344.000 C 301.519,343.189 301.159,342.947 304.000,341.000" stroke-width="3.870" stroke="black" fill="none" stroke-linecap="round"></path><path d="M 304.000,341.000 C 309.594,335.082 310.019,335.689 315.000,329.000" stroke-width="3.797" stroke="black" fill="none" stroke-linecap="round"></path><path d="M 315.000,329.000 C 317.390,325.900 317.594,326.082 320.000,323.000" stroke-width="3.837" stroke="black" fill="none" stroke-linecap="round"></path><path d="M 320.000,323.000 C 321.820,320.795 321.890,320.900 324.000,319.000" stroke-width="4.098" stroke="black" fill="none" stroke-linecap="round"></path><path d="M 324.000,319.000 C 330.360,313.795 330.320,313.795 337.000,309.000" stroke-width="3.853" stroke="black" fill="none" stroke-linecap="round"></path><path d="M 337.000,309.000 C 342.000,305.548 339.360,307.295 342.000,306.000" stroke-width="4.082" stroke="black" fill="none" stroke-linecap="round"></path><path d="M 342.000,306.000 C 339.723,308.772 342.000,306.548 337.000,311.000" stroke-width="4.894" stroke="black" fill="none" stroke-linecap="round"></path><path d="M 337.000,311.000 C 334.000,313.000 334.223,313.272 331.000,315.000" stroke-width="4.192" stroke="black" fill="none" stroke-linecap="round"></path><path d="M 331.000,315.000 C 326.203,317.638 326.500,318.000 322.000,321.000" stroke-width="3.570" stroke="black" fill="none" stroke-linecap="round"></path><path d="M 322.000,321.000 C 319.000,324.000 318.703,323.638 316.000,327.000" stroke-width="3.643" stroke="black" fill="none" stroke-linecap="round"></path><path d="M 316.000,327.000 C 312.638,329.703 313.000,330.000 310.000,333.000" stroke-width="3.719" stroke="black" fill="none" stroke-linecap="round"></path><path d="M 310.000,333.000 C 304.657,337.732 306.638,337.203 304.000,342.000" stroke-width="4.267" stroke="black" fill="none" stroke-linecap="round"></path><path d="M 304.000,342.000 C 305.574,345.029 303.657,344.232 308.000,346.000" stroke-width="4.654" stroke="black" fill="none" stroke-linecap="round"></path><path d="M 308.000,346.000 C 311.082,346.584 310.574,347.029 314.000,346.000" stroke-width="4.295" stroke="black" fill="none" stroke-linecap="round"></path><path d="M 314.000,346.000 C 321.037,344.119 321.082,344.584 328.000,342.000" stroke-width="3.324" stroke="black" fill="none" stroke-linecap="round"></path><path d="M 328.000,342.000 C 332.625,340.802 332.537,340.619 337.000,339.000" stroke-width="3.519" stroke="black" fill="none" stroke-linecap="round"></path><path d="M 337.000,339.000 C 341.263,337.402 341.125,337.302 345.000,335.000" stroke-width="3.634" stroke="black" fill="none" stroke-linecap="round"></path><path d="M 345.000,335.000 C 347.745,332.072 348.263,332.902 351.000,330.000" stroke-width="4.229" stroke="black" fill="none" stroke-linecap="round"></path><path d="M 351.000,330.000 C 354.459,327.230 353.245,328.572 356.000,328.000" stroke-width="4.790" stroke="black" fill="none" stroke-linecap="round"></path><path d="M 356.000,328.000 C 355.199,331.919 357.459,328.730 357.000,333.000" stroke-width="5.245" stroke="black" fill="none" stroke-linecap="round"></path><path d="M 357.000,333.000 C 361.493,334.000 360.199,334.919 366.000,334.000" stroke-width="3.967" stroke="black" fill="none" stroke-linecap="round"></path><path d="M 366.000,334.000 C 372.026,333.717 371.993,334.000 378.000,333.000" stroke-width="3.470" stroke="black" fill="none" stroke-linecap="round"></path><path d="M 378.000,333.000 C 384.522,332.127 384.526,332.217 391.000,331.000" stroke-width="3.193" stroke="black" fill="none" stroke-linecap="round"></path><path d="M 391.000,331.000 C 395.960,329.593 396.022,330.127 401.000,329.000" stroke-width="3.412" stroke="black" fill="none" stroke-linecap="round"></path><path d="M 401.000,329.000 C 404.500,329.000 404.460,328.593 408.000,329.000" stroke-width="4.174" stroke="black" fill="none" stroke-linecap="round"></path><path d="M 408.000,329.000 C 411.211,328.239 411.000,329.000 414.000,329.000" stroke-width="4.553" stroke="black" fill="none" stroke-linecap="round"></path><path d="M 414.000,329.000 C 416.482,330.531 416.711,329.739 419.000,332.000" stroke-width="4.243" stroke="black" fill="none" stroke-linecap="round"></path><path d="M 419.000,332.000 C 422.569,333.889 422.482,334.031 426.000,336.000" stroke-width="3.878" stroke="black" fill="none" stroke-linecap="round"></path><path d="M 426.000,336.000 C 428.761,338.489 429.069,337.889 432.000,340.000" stroke-width="3.878" stroke="black" fill="none" stroke-linecap="round"></path><path d="M 432.000,340.000 C 436.992,343.943 436.261,341.989 441.000,343.000" stroke-width="3.740" stroke="black" fill="none" stroke-linecap="round"></path><path d="M 441.000,343.000 C 444.354,338.517 445.492,341.943 449.000,336.000" stroke-width="4.765" stroke="black" fill="none" stroke-linecap="round"></path><path d="M 449.000,336.000 C 468.379,324.694 468.354,325.517 489.000,317.000" stroke-width="1.880" stroke="black" fill="none" stroke-linecap="round"></path><path d="M 489.000,317.000 C 502.462,313.820 501.879,312.194 516.000,311.000" stroke-width="2.004" stroke="black" fill="none" stroke-linecap="round"></path><path d="M 516.000,311.000 C 550.203,301.658 550.462,303.820 585.000,297.000" stroke-width="1.267" stroke="black" fill="none" stroke-linecap="round"></path><path d="M 585.000,297.000 C 614.129,293.336 613.703,293.158 643.000,294.000" stroke-width="1.230" stroke="black" fill="none" stroke-linecap="round"></path><path d="M 643.000,294.000 C 657.487,296.581 657.629,294.336 672.000,299.000" stroke-width="1.674" stroke="black" fill="none" stroke-linecap="round"></path><path d="M 672.000,299.000 C 675.609,299.020 675.487,299.581 679.000,300.000" stroke-width="2.814" stroke="black" fill="none" stroke-linecap="round"></path></svg>