<svg xmlns="http://www.w3.org/2000/svg" xmlns:xlink="http://www.w3.org/1999/xlink" viewBox="0 0 452 236" width="452" height="236"><path d="M 75.000,57.000 C 78.147,55.524 78.000,56.500 81.000,56.000" stroke-width="5.071" stroke="black" fill="none" stroke-linecap="round"></path><path d="M 81.000,56.000 C 83.956,57.595 84.147,56.524 87.000,59.000" stroke-width="4.297" stroke="black" fill="none" stroke-linecap="round"></path><path d="M 87.000,59.000 C 90.381,60.869 90.456,60.595 94.000,62.000" stroke-width="4.000" stroke="black" fill="none" stroke-linecap="round"></path><path d="M 94.000,62.000 C 98.465,63.200 98.381,63.369 103.000,64.000" stroke-width="3.746" stroke="black" fill="none" stroke-linecap="round"></path><path d="M 103.000,64.000 C 106.987,64.713 106.965,64.700 111.000,65.000" stroke-width="3.794" stroke="black" fill="none" stroke-linecap="round"></path><path d="M 111.000,65.000 C 114.000,65.000 113.987,65.213 117.000,65.000" stroke-width="3.997" stroke="black" fill="none" stroke-linecap="round"></path><path d="M 117.000,65.000 C 120.000,65.000 120.000,65.000 123.000,65.000" stroke-width="4.062" stroke="black" fill="none" stroke-linecap="round"></path><path d="M 97.000,57.000 C 95.860,62.981 96.000,63.000 95.000,69.000" stroke-width="4.973" stroke="black" fill="none" stroke-linecap="round"></path><path d="M 95.000,69.000 C 94.809,73.553 94.360,73.481 94.000,78.000" stroke-width="3.983" stroke="black" fill="none" stroke-linecap="round"></path><path d="M 94.000,78.000 C 92.557,84.514 92.809,84.553 91.000,91.000" stroke-width="3.536" stroke="black" fill="none" stroke-linecap="round"></path><path d="M 91.000,91.000 C 88.731,96.905 89.557,97.014 88.000,103.000" stroke-width="3.335" stroke="black" fill="none" stroke-linecap="round"></path><path d="M 88.000,103.000 C 88.270,109.512 87.231,109.405 88.000,116.000" stroke-width="3.230" stroke="black" fill="none" stroke-linecap="round"></path><path d="M 88.000,116.000 C 87.290,121.490 87.770,121.512 87.000,127.000" stroke-width="3.354" stroke="black" fill="none" stroke-linecap="round"></path><path d="M 87.000,127.000 C 87.492,131.061 86.790,130.990 87.000,135.000" stroke-width="3.670" stroke="black" fill="none" stroke-linecap="round"></path><path d="M 87.000,135.000 C 86.210,139.068 86.492,139.061 85.000,143.000" stroke-width="3.642" stroke="black" fill="none" stroke-linecap="round"></path><path d="M 85.000,143.000 C 84.000,145.500 84.210,145.568 83.000,148.000" stroke-width="4.061" stroke="black" fill="none" stroke-linecap="round"></path><path d="M 102.000,162.000 C 99.601,160.473 99.500,161.000 97.000,160.000" stroke-width="5.325" stroke="black" fill="none" stroke-linecap="round"></path><path d="M 97.000,160.000 C 94.000,160.000 94.101,159.473 91.000,160.000" stroke-width="4.450" stroke="black" fill="none" stroke-linecap="round"></path><path d="M 91.000,160.000 C 87.500,160.000 87.500,160.000 84.000,160.000" stroke-width="4.114" stroke="black" fill="none" stroke-linecap="round"></path><path d="M 84.000,160.000 C 80.000,160.000 80.000,160.000 76.000,160.000" stroke-width="3.907" stroke="black" fill="none" stroke-linecap="round"></path><path d="M 76.000,160.000 C 73.000,160.000 73.000,160.000 70.000,160.000" stroke-width="4.120" stroke="black" fill="none" stroke-linecap="round"></path><path d="M 206.000,124.000 C 201.564,121.254 201.500,122.500 197.000,121.000" stroke-width="5.156" stroke="black" fill="none" stroke-linecap="round"></path><path d="M 197.000,121.000 C 192.341,121.553 192.564,120.754 188.000,123.000" stroke-width="4.059" stroke="black" fill="none" stroke-linecap="round"></path><path d="M 188.000,123.000 C 185.000,124.500 184.841,124.053 182.000,126.000" stroke-width="4.041" stroke="black" fill="none" stroke-linecap="round"></path><path d="M 182.000,126.000 C 175.392,127.582 179.000,127.500 176.000,129.000" stroke-width="4.480" stroke="black" fill="none" stroke-linecap="round"></path><path d="M 176.000,129.000 C 180.310,131.896 176.892,131.082 185.000,133.000" stroke-width="4.775" stroke="black" fill="none" stroke-linecap="round"></path><path d="M 185.000,133.000 C 189.000,133.000 188.810,133.896 193.000,133.000" stroke-width="4.068" stroke="black" fill="none" stroke-linecap="round"></path><path d="M 193.000,133.000 C 197.640,133.769 197.500,133.000 202.000,133.000" stroke-width="3.787" stroke="black" fill="none" stroke-linecap="round"></path><path d="M 202.000,133.000 C 206.343,132.090 206.140,132.269 210.000,130.000" stroke-width="3.806" stroke="black" fill="none" stroke-linecap="round"></path><path d="M 210.000,130.000 C 214.510,123.510 213.343,128.090 216.000,125.000" stroke-width="4.313" stroke="black" fill="none" stroke-linecap="round"></path><path d="M 216.000,125.000 C 217.313,131.476 218.510,127.510 218.000,138.000" stroke-width="4.704" stroke="black" fill="none" stroke-linecap="round"></path><path d="M 218.000,138.000 C 217.752,141.021 218.313,140.976 218.000,144.000" stroke-width="4.308" stroke="black" fill="none" stroke-linecap="round"></path><path d="M 241.000,117.000 C 241.713,120.987 241.500,121.000 242.000,125.000" stroke-width="4.782" stroke="black" fill="none" stroke-linecap="round"></path><path d="M 242.000,125.000 C 242.000,128.000 242.213,127.987 242.000,131.000" stroke-width="4.276" stroke="black" fill="none" stroke-linecap="round"></path><path d="M 242.000,131.000 C 240.971,134.426 242.000,134.000 242.000,137.000" stroke-width="4.618" stroke="black" fill="none" stroke-linecap="round"></path><path d="M 242.000,137.000 C 244.367,141.980 242.971,139.426 246.000,141.000" stroke-width="4.745" stroke="black" fill="none" stroke-linecap="round"></path><path d="M 246.000,141.000 C 248.633,135.714 249.367,138.980 252.000,131.000" stroke-width="4.386" stroke="black" fill="none" stroke-linecap="round"></path><path d="M 252.000,131.000 C 253.818,128.785 253.633,128.714 256.000,127.000" stroke-width="4.350" stroke="black" fill="none" stroke-linecap="round"></path><path d="M 256.000,127.000 C 260.008,121.728 259.318,124.285 263.000,122.000" stroke-width="4.446" stroke="black" fill="none" stroke-linecap="round"></path><path d="M 263.000,122.000 C 265.908,124.725 265.508,122.228 267.000,128.000" stroke-width="4.861" stroke="black" fill="none" stroke-linecap="round"></path><path d="M 267.000,128.000 C 265.296,133.621 267.908,130.725 267.000,134.000" stroke-width="4.790" stroke="black" fill="none" stroke-linecap="round"></path><path d="M 267.000,134.000 C 271.868,132.583 269.796,134.621 276.000,130.000" stroke-width="4.460" stroke="black" fill="none" stroke-linecap="round"></path><path d="M 276.000,130.000 C 279.459,126.951 279.868,127.583 283.000,124.000" stroke-width="3.796" stroke="black" fill="none" stroke-linecap="round"></path><path d="M 283.000,124.000 C 285.383,121.832 285.459,121.951 288.000,120.000" stroke-width="3.948" stroke="black" fill="none" stroke-linecap="round"></path><path d="M 288.000,120.000 C 290.332,118.112 290.383,118.332 293.000,117.000" stroke-width="4.069" stroke="black" fill="none" stroke-linecap="round"></path><path d="M 293.000,117.000 C 297.821,113.910 296.332,115.612 300.000,115.000" stroke-width="4.432" stroke="black" fill="none" stroke-linecap="round"></path><path d="M 300.000,115.000 C 300.784,117.976 301.821,115.910 301.000,121.000" stroke-width="4.664" stroke="black" fill="none" stroke-linecap="round"></path><path d="M 301.000,121.000 C 301.249,125.016 301.284,124.976 301.000,129.000" stroke-width="3.984" stroke="black" fill="none" stroke-linecap="round"></path><path d="M 301.000,129.000 C 300.971,133.116 300.749,133.016 300.000,137.000" stroke-width="3.914" stroke="black" fill="none" stroke-linecap="round"></path></svg>