<svg xmlns="http://www.w3.org/2000/svg" xmlns:xlink="http://www.w3.org/1999/xlink" viewBox="0 0 1460 581" width="1460" height="581"><path d="M 406.500,141.500 C 405.318,146.366 405.000,146.250 403.500,151.000" stroke-width="4.960" stroke="black" fill="none" stroke-linecap="round"></path><path d="M 403.500,151.000 C 397.883,166.288 397.568,166.116 391.000,181.000" stroke-width="2.583" stroke="black" fill="none" stroke-linecap="round"></path><path d="M 391.000,181.000 C 376.985,208.622 377.883,209.038 363.500,236.500" stroke-width="1.441" stroke="black" fill="none" stroke-linecap="round"></path><path d="M 363.500,236.500 C 350.936,262.365 350.985,262.372 339.000,288.500" stroke-width="1.282" stroke="black" fill="none" stroke-linecap="round"></path><path d="M 339.000,288.500 C 336.793,294.267 336.436,294.115 334.500,300.000" stroke-width="2.201" stroke="black" fill="none" stroke-linecap="round"></path><path d="M 334.500,300.000 C 330.274,310.510 330.293,310.517 326.000,321.000" stroke-width="2.344" stroke="black" fill="none" stroke-linecap="round"></path><path d="M 326.000,321.000 C 324.844,324.043 324.774,324.010 323.500,327.000" stroke-width="3.301" stroke="black" fill="none" stroke-linecap="round"></path><path d="M 405.000,150.000 C 406.014,152.438 405.750,152.500 406.500,155.000" stroke-width="4.312" stroke="black" fill="none" stroke-linecap="round"></path><path d="M 406.500,155.000 C 410.313,172.160 409.764,172.188 412.500,189.500" stroke-width="2.220" stroke="black" fill="none" stroke-linecap="round"></path><path d="M 412.500,189.500 C 413.223,199.993 413.813,199.910 413.500,210.500" stroke-width="2.419" stroke="black" fill="none" stroke-linecap="round"></path><path d="M 413.500,210.500 C 414.204,237.998 414.223,237.993 414.500,265.500" stroke-width="1.419" stroke="black" fill="none" stroke-linecap="round"></path><path d="M 414.500,265.500 C 414.500,284.500 414.704,284.498 414.500,303.500" stroke-width="1.584" stroke="black" fill="none" stroke-linecap="round"></path><path d="M 414.500,303.500 C 413.813,310.056 414.500,310.000 414.500,316.500" stroke-width="2.506" stroke="black" fill="none" stroke-linecap="round"></path><path d="M 414.500,316.500 C 416.489,328.752 415.813,328.806 418.500,341.000" stroke-width="2.348" stroke="black" fill="none" stroke-linecap="round"></path><path d="M 418.500,341.000 C 419.532,345.477 419.239,345.502 420.000,350.000" stroke-width="3.135" stroke="black" fill="none" stroke-linecap="round"></path><path d="M 466.000,222.500 C 459.550,224.909 459.500,224.750 453.000,227.000" stroke-width="4.992" stroke="black" fill="none" stroke-linecap="round"></path><path d="M 453.000,227.000 C 447.809,228.736 447.800,228.659 442.500,230.000" stroke-width="3.781" stroke="black" fill="none" stroke-linecap="round"></path><path d="M 442.500,230.000 C 432.083,232.720 432.059,232.486 421.500,234.500" stroke-width="2.697" stroke="black" fill="none" stroke-linecap="round"></path><path d="M 421.500,234.500 C 403.715,236.775 403.833,237.470 386.000,239.500" stroke-width="1.944" stroke="black" fill="none" stroke-linecap="round"></path><path d="M 386.000,239.500 C 371.156,241.569 371.215,241.775 356.500,244.500" stroke-width="2.009" stroke="black" fill="none" stroke-linecap="round"></path><path d="M 356.500,244.500 C 349.818,245.735 349.906,245.819 343.500,248.000" stroke-width="2.686" stroke="black" fill="none" stroke-linecap="round"></path><path d="M 343.500,248.000 C 336.779,251.069 336.568,250.485 330.000,254.000" stroke-width="2.849" stroke="black" fill="none" stroke-linecap="round"></path><path d="M 330.000,254.000 C 327.550,255.150 327.529,255.069 325.000,256.000" stroke-width="3.715" stroke="black" fill="none" stroke-linecap="round"></path><path d="M 492.500,95.500 C 481.154,95.876 482.250,98.250 472.000,101.000" stroke-width="3.528" stroke="black" fill="none" stroke-linecap="round"></path><path d="M 472.000,101.000 C 448.658,116.869 447.654,114.626 425.500,133.000" stroke-width="1.606" stroke="black" fill="none" stroke-linecap="round"></path><path d="M 425.500,133.000 C 411.519,141.090 412.408,142.119 399.500,151.500" stroke-width="1.788" stroke="black" fill="none" stroke-linecap="round"></path><path d="M 399.500,151.500 C 384.500,166.500 383.519,165.340 369.500,181.500" stroke-width="1.607" stroke="black" fill="none" stroke-linecap="round"></path><path d="M 369.500,181.500 C 359.014,190.620 359.750,191.250 350.000,201.000" stroke-width="1.949" stroke="black" fill="none" stroke-linecap="round"></path><path d="M 350.000,201.000 C 342.493,209.776 342.514,209.620 336.500,219.500" stroke-width="2.242" stroke="black" fill="none" stroke-linecap="round"></path><path d="M 336.500,219.500 C 328.616,231.211 329.243,231.276 323.500,244.000" stroke-width="2.110" stroke="black" fill="none" stroke-linecap="round"></path><path d="M 323.500,244.000 C 319.046,255.269 319.116,254.961 317.500,267.000" stroke-width="2.320" stroke="black" fill="none" stroke-linecap="round"></path><path d="M 317.500,267.000 C 315.185,287.791 314.796,287.519 315.000,308.500" stroke-width="1.733" stroke="black" fill="none" stroke-linecap="round"></path><path d="M 315.000,308.500 C 314.832,316.084 314.935,315.791 317.000,323.000" stroke-width="2.471" stroke="black" fill="none" stroke-linecap="round"></path><path d="M 317.000,323.000 C 319.955,333.391 320.082,332.834 325.500,342.000" stroke-width="2.511" stroke="black" fill="none" stroke-linecap="round"></path><path d="M 325.500,342.000 C 329.383,349.804 329.455,348.141 336.000,352.500" stroke-width="2.836" stroke="black" fill="none" stroke-linecap="round"></path><path d="M 336.000,352.500 C 351.124,358.770 349.633,358.054 366.000,358.500" stroke-width="2.202" stroke="black" fill="none" stroke-linecap="round"></path><path d="M 366.000,358.500 C 379.388,357.172 378.624,358.270 391.000,351.500" stroke-width="2.219" stroke="black" fill="none" stroke-linecap="round"></path><path d="M 391.000,351.500 C 432.506,328.045 433.638,330.672 474.500,305.500" stroke-width="1.125" stroke="black" fill="none" stroke-linecap="round"></path><path d="M 474.500,305.500 C 518.920,285.250 517.256,282.545 560.500,260.500" stroke-width="1.125" stroke="black" fill="none" stroke-linecap="round"></path><path d="M 560.500,260.500 C 580.628,245.666 581.920,247.750 600.500,230.500" stroke-width="1.142" stroke="black" fill="none" stroke-linecap="round"></path><path d="M 600.500,230.500 C 610.607,225.086 609.128,223.916 617.500,217.000" stroke-width="1.831" stroke="black" fill="none" stroke-linecap="round"></path><path d="M 617.500,217.000 C 622.345,208.655 623.607,209.836 626.500,200.000" stroke-width="2.331" stroke="black" fill="none" stroke-linecap="round"></path><path d="M 626.500,200.000 C 629.168,196.220 628.345,196.155 629.500,192.000" stroke-width="3.129" stroke="black" fill="none" stroke-linecap="round"></path><path d="M 629.500,192.000 C 631.819,173.330 630.918,173.970 630.000,155.500" stroke-width="1.983" stroke="black" fill="none" stroke-linecap="round"></path><path d="M 630.000,155.500 C 629.547,147.354 629.319,148.830 624.500,143.000" stroke-width="2.702" stroke="black" fill="none" stroke-linecap="round"></path><path d="M 624.500,143.000 C 603.571,121.986 604.047,125.354 579.000,111.500" stroke-width="1.502" stroke="black" fill="none" stroke-linecap="round"></path><path d="M 579.000,111.500 C 562.269,107.829 564.321,105.236 546.000,109.500" stroke-width="1.766" stroke="black" fill="none" stroke-linecap="round"></path><path d="M 546.000,109.500 C 525.804,113.583 525.769,111.579 506.000,119.000" stroke-width="1.728" stroke="black" fill="none" stroke-linecap="round"></path><path d="M 506.000,119.000 C 496.772,122.313 496.554,121.583 487.500,125.500" stroke-width="2.220" stroke="black" fill="none" stroke-linecap="round"></path><path d="M 487.500,125.500 C 480.625,127.431 480.772,127.813 474.000,130.000" stroke-width="2.793" stroke="black" fill="none" stroke-linecap="round"></path><path d="M 474.000,130.000 C 468.363,132.242 468.375,132.181 463.000,135.000" stroke-width="3.011" stroke="black" fill="none" stroke-linecap="round"></path><path d="M 463.000,135.000 C 459.648,136.853 459.613,136.742 456.500,139.000" stroke-width="3.941" stroke="black" fill="none" stroke-linecap="round"></path><path d="M 419.000,344.000 C 421.794,339.590 422.000,339.750 425.000,335.500" stroke-width="4.870" stroke="black" fill="none" stroke-linecap="round"></path><path d="M 425.000,335.500 C 429.402,330.623 429.044,330.340 433.500,325.500" stroke-width="3.471" stroke="black" fill="none" stroke-linecap="round"></path><path d="M 433.500,325.500 C 439.299,318.037 439.402,318.123 445.000,310.500" stroke-width="2.794" stroke="black" fill="none" stroke-linecap="round"></path><path d="M 445.000,310.500 C 452.656,297.131 454.049,298.537 463.000,286.500" stroke-width="2.215" stroke="black" fill="none" stroke-linecap="round"></path><path d="M 463.000,286.500 C 472.240,280.313 470.656,278.631 481.000,273.500" stroke-width="2.312" stroke="black" fill="none" stroke-linecap="round"></path><path d="M 481.000,273.500 C 495.765,259.041 496.990,261.063 512.500,248.000" stroke-width="1.756" stroke="black" fill="none" stroke-linecap="round"></path><path d="M 512.500,248.000 C 520.932,241.622 520.015,243.041 529.500,241.500" stroke-width="2.334" stroke="black" fill="none" stroke-linecap="round"></path><path d="M 529.500,241.500 C 539.590,242.782 538.432,241.372 547.500,247.500" stroke-width="2.552" stroke="black" fill="none" stroke-linecap="round"></path><path d="M 547.500,247.500 C 553.878,252.255 553.840,251.282 558.000,258.500" stroke-width="2.776" stroke="black" fill="none" stroke-linecap="round"></path><path d="M 558.000,258.500 C 563.849,265.123 562.128,264.755 564.000,272.500" stroke-width="2.907" stroke="black" fill="none" stroke-linecap="round"></path><path d="M 564.000,272.500 C 564.197,290.992 564.349,289.623 559.000,307.500" stroke-width="2.056" stroke="black" fill="none" stroke-linecap="round"></path><path d="M 559.000,307.500 C 552.583,316.765 555.697,317.992 547.000,326.500" stroke-width="2.246" stroke="black" fill="none" stroke-linecap="round"></path><path d="M 547.000,326.500 C 535.143,341.718 542.833,333.765 539.500,341.500" stroke-width="2.626" stroke="black" fill="none" stroke-linecap="round"></path><path d="M 539.500,341.500 C 558.223,333.188 550.143,340.968 577.000,325.000" stroke-width="2.936" stroke="black" fill="none" stroke-linecap="round"></path><path d="M 577.000,325.000 C 601.775,315.589 601.223,314.438 625.500,304.000" stroke-width="1.630" stroke="black" fill="none" stroke-linecap="round"></path><path d="M 625.500,304.000 C 655.344,287.695 656.025,289.089 685.500,272.000" stroke-width="1.194" stroke="black" fill="none" stroke-linecap="round"></path><path d="M 685.500,272.000 C 698.148,265.529 698.094,265.445 711.000,259.500" stroke-width="1.714" stroke="black" fill="none" stroke-linecap="round"></path><path d="M 711.000,259.500 C 718.420,256.032 718.398,256.029 726.000,253.000" stroke-width="2.344" stroke="black" fill="none" stroke-linecap="round"></path><path d="M 726.000,253.000 C 730.384,250.093 728.420,252.032 731.000,251.500" stroke-width="3.675" stroke="black" fill="none" stroke-linecap="round"></path><path d="M 731.000,251.500 C 730.707,256.359 732.134,254.093 729.500,261.000" stroke-width="4.237" stroke="black" fill="none" stroke-linecap="round"></path><path d="M 729.500,261.000 C 723.356,270.944 727.457,268.859 724.500,276.500" stroke-width="3.106" stroke="black" fill="none" stroke-linecap="round"></path><path d="M 724.500,276.500 C 728.703,277.785 725.106,279.444 733.000,278.000" stroke-width="4.413" stroke="black" fill="none" stroke-linecap="round"></path><path d="M 733.000,278.000 C 743.750,278.000 743.703,278.535 754.500,278.000" stroke-width="3.066" stroke="black" fill="none" stroke-linecap="round"></path><path d="M 754.500,278.000 C 781.267,277.303 781.250,278.000 808.000,278.000" stroke-width="1.566" stroke="black" fill="none" stroke-linecap="round"></path><path d="M 808.000,278.000 C 838.760,279.317 838.767,278.803 869.500,281.000" stroke-width="1.258" stroke="black" fill="none" stroke-linecap="round"></path><path d="M 869.500,281.000 C 907.408,281.836 907.260,283.067 945.000,285.500" stroke-width="1.125" stroke="black" fill="none" stroke-linecap="round"></path><path d="M 945.000,285.500 C 966.349,288.534 966.408,287.586 987.500,292.500" stroke-width="1.399" stroke="black" fill="none" stroke-linecap="round"></path><path d="M 987.500,292.500 C 994.245,294.268 994.349,293.784 1001.000,296.000" stroke-width="2.235" stroke="black" fill="none" stroke-linecap="round"></path><path d="M 1001.000,296.000 C 1003.982,296.829 1003.995,296.768 1007.000,297.500" stroke-width="3.290" stroke="black" fill="none" stroke-linecap="round"></path><path d="M 1007.000,297.500 C 1010.717,298.475 1010.732,298.329 1014.500,299.000" stroke-width="4.091" stroke="black" fill="none" stroke-linecap="round"></path><path d="M 1014.500,299.000 C 1019.734,299.771 1019.717,299.725 1025.000,300.000" stroke-width="3.636" stroke="black" fill="none" stroke-linecap="round"></path><path d="M 1025.000,300.000 C 1036.999,300.374 1036.984,300.521 1049.000,300.500" stroke-width="2.613" stroke="black" fill="none" stroke-linecap="round"></path><path d="M 1049.000,300.500 C 1060.907,302.028 1060.749,300.624 1072.500,300.500" stroke-width="2.431" stroke="black" fill="none" stroke-linecap="round"></path><path d="M 1072.500,300.500 C 1093.088,296.615 1093.157,297.778 1113.500,292.000" stroke-width="1.744" stroke="black" fill="none" stroke-linecap="round"></path><path d="M 1113.500,292.000 C 1121.804,289.935 1121.838,290.115 1130.000,287.500" stroke-width="2.328" stroke="black" fill="none" stroke-linecap="round"></path><path d="M 1130.000,287.500 C 1147.217,282.830 1147.054,282.435 1164.000,277.000" stroke-width="1.946" stroke="black" fill="none" stroke-linecap="round"></path><path d="M 1164.000,277.000 C 1170.677,273.827 1170.967,274.580 1177.500,271.000" stroke-width="2.586" stroke="black" fill="none" stroke-linecap="round"></path><path d="M 1177.500,271.000 C 1187.772,264.337 1188.177,266.577 1199.000,262.500" stroke-width="2.379" stroke="black" fill="none" stroke-linecap="round"></path><path d="M 1199.000,262.500 C 1215.992,260.037 1215.272,259.837 1232.500,262.000" stroke-width="2.017" stroke="black" fill="none" stroke-linecap="round"></path><path d="M 1232.500,262.000 C 1251.585,266.217 1251.742,264.287 1270.500,271.000" stroke-width="1.841" stroke="black" fill="none" stroke-linecap="round"></path><path d="M 1270.500,271.000 C 1273.124,272.790 1273.335,271.717 1276.000,273.000" stroke-width="3.224" stroke="black" fill="none" stroke-linecap="round"></path><path d="M 1276.000,273.000 C 1283.498,272.679 1283.374,273.540 1291.000,272.500" stroke-width="4.436" stroke="black" fill="none" stroke-linecap="round"></path><path d="M 1291.000,272.500 C 1325.553,270.470 1325.498,271.679 1360.000,271.000" stroke-width="1.434" stroke="black" fill="none" stroke-linecap="round"></path><path d="M 1360.000,271.000 C 1374.245,272.545 1374.303,271.220 1388.500,274.000" stroke-width="1.797" stroke="black" fill="none" stroke-linecap="round"></path><path d="M 1388.500,274.000 C 1436.068,276.329 1423.245,277.545 1458.000,281.000" stroke-width="1.246" stroke="black" fill="none" stroke-linecap="round"></path><path d="M 1458.000,281.000 C 1450.528,285.408 1463.068,282.079 1442.500,285.500" stroke-width="2.669" stroke="black" fill="none" stroke-linecap="round"></path><path d="M 1442.500,285.500 C 1384.987,282.669 1385.278,286.158 1327.500,282.500" stroke-width="1.125" stroke="black" fill="none" stroke-linecap="round"></path><path d="M 1327.500,282.500 C 1299.946,283.004 1299.987,282.419 1272.500,285.000" stroke-width="1.175" stroke="black" fill="none" stroke-linecap="round"></path><path d="M 1272.500,285.000 C 1245.007,287.822 1244.946,287.004 1217.500,290.500" stroke-width="1.275" stroke="black" fill="none" stroke-linecap="round"></path><path d="M 1217.500,290.500 C 1160.329,297.655 1160.257,296.072 1103.000,301.500" stroke-width="1.125" stroke="black" fill="none" stroke-linecap="round"></path><path d="M 1103.000,301.500 C 1078.101,303.751 1078.329,303.155 1053.500,301.500" stroke-width="1.129" stroke="black" fill="none" stroke-linecap="round"></path><path d="M 1053.500,301.500 C 999.082,293.485 998.851,296.501 944.500,287.000" stroke-width="1.125" stroke="black" fill="none" stroke-linecap="round"></path><path d="M 944.500,287.000 C 923.227,285.490 923.332,284.485 902.000,283.500" stroke-width="1.258" stroke="black" fill="none" stroke-linecap="round"></path><path d="M 902.000,283.500 C 883.152,282.085 883.227,281.740 864.500,279.500" stroke-width="1.524" stroke="black" fill="none" stroke-linecap="round"></path><path d="M 864.500,279.500 C 857.988,278.051 857.902,278.585 851.500,276.500" stroke-width="2.352" stroke="black" fill="none" stroke-linecap="round"></path><path d="M 851.500,276.500 C 846.542,275.008 846.488,275.301 841.500,274.000" stroke-width="3.054" stroke="black" fill="none" stroke-linecap="round"></path></svg>