<svg xmlns="http://www.w3.org/2000/svg" xmlns:xlink="http://www.w3.org/1999/xlink" viewBox="0 0 1460 576" width="1460" height="576"><path d="M 727.000,304.000 C 721.597,306.304 721.500,306.000 716.000,308.000" stroke-width="4.742" stroke="black" fill="none" stroke-linecap="round"></path><path d="M 716.000,308.000 C 705.145,311.654 705.097,311.304 694.000,314.000" stroke-width="2.896" stroke="black" fill="none" stroke-linecap="round"></path><path d="M 694.000,314.000 C 676.584,317.762 676.645,317.654 659.000,320.000" stroke-width="2.049" stroke="black" fill="none" stroke-linecap="round"></path><path d="M 659.000,320.000 C 648.921,321.567 649.084,321.262 639.000,321.000" stroke-width="2.396" stroke="black" fill="none" stroke-linecap="round"></path><path d="M 639.000,321.000 C 629.808,322.259 631.421,320.567 624.000,318.000" stroke-width="2.765" stroke="black" fill="none" stroke-linecap="round"></path><path d="M 624.000,318.000 C 616.016,308.822 614.808,311.259 609.000,299.000" stroke-width="2.374" stroke="black" fill="none" stroke-linecap="round"></path><path d="M 609.000,299.000 C 604.679,294.924 606.016,294.822 604.000,290.000" stroke-width="3.066" stroke="black" fill="none" stroke-linecap="round"></path><path d="M 604.000,290.000 C 602.384,279.301 602.679,280.424 605.000,270.000" stroke-width="2.645" stroke="black" fill="none" stroke-linecap="round"></path><path d="M 605.000,270.000 C 606.571,260.553 606.884,263.301 613.000,258.000" stroke-width="2.962" stroke="black" fill="none" stroke-linecap="round"></path><path d="M 613.000,258.000 C 642.584,246.499 640.571,247.053 673.000,243.000" stroke-width="1.474" stroke="black" fill="none" stroke-linecap="round"></path><path d="M 673.000,243.000 C 699.755,241.841 699.084,239.999 726.000,245.000" stroke-width="1.350" stroke="black" fill="none" stroke-linecap="round"></path><path d="M 726.000,245.000 C 753.664,249.925 753.755,248.341 781.000,256.000" stroke-width="1.277" stroke="black" fill="none" stroke-linecap="round"></path><path d="M 781.000,256.000 C 785.050,257.374 785.164,256.925 789.000,259.000" stroke-width="2.371" stroke="black" fill="none" stroke-linecap="round"></path><path d="M 789.000,259.000 C 810.899,267.328 810.550,267.874 832.000,277.000" stroke-width="1.689" stroke="black" fill="none" stroke-linecap="round"></path><path d="M 832.000,277.000 C 838.673,278.769 834.899,278.328 837.000,281.000" stroke-width="2.842" stroke="black" fill="none" stroke-linecap="round"></path><path d="M 837.000,281.000 C 823.364,300.503 825.173,296.769 805.000,313.000" stroke-width="2.463" stroke="black" fill="none" stroke-linecap="round"></path><path d="M 805.000,313.000 C 785.733,324.113 787.364,325.003 765.000,330.000" stroke-width="1.829" stroke="black" fill="none" stroke-linecap="round"></path><path d="M 765.000,330.000 C 744.461,334.923 745.233,335.613 724.000,336.000" stroke-width="1.637" stroke="black" fill="none" stroke-linecap="round"></path><path d="M 724.000,336.000 C 715.898,334.895 715.961,336.423 708.000,333.000" stroke-width="2.303" stroke="black" fill="none" stroke-linecap="round"></path><path d="M 708.000,333.000 C 701.671,333.287 703.398,331.895 699.000,330.000" stroke-width="3.085" stroke="black" fill="none" stroke-linecap="round"></path><path d="M 699.000,330.000 C 690.864,321.136 695.171,325.287 695.000,317.000" stroke-width="3.054" stroke="black" fill="none" stroke-linecap="round"></path><path d="M 695.000,317.000 C 714.359,300.667 709.864,302.136 737.000,292.000" stroke-width="1.784" stroke="black" fill="none" stroke-linecap="round"></path><path d="M 737.000,292.000 C 779.369,274.319 778.359,276.167 823.000,268.000" stroke-width="1.125" stroke="black" fill="none" stroke-linecap="round"></path><path d="M 823.000,268.000 C 852.866,267.040 851.869,263.819 882.000,271.000" stroke-width="1.172" stroke="black" fill="none" stroke-linecap="round"></path><path d="M 882.000,271.000 C 904.122,276.110 904.366,274.040 926.000,282.000" stroke-width="1.404" stroke="black" fill="none" stroke-linecap="round"></path><path d="M 926.000,282.000 C 930.604,282.649 930.122,283.110 934.000,285.000" stroke-width="2.496" stroke="black" fill="none" stroke-linecap="round"></path><path d="M 934.000,285.000 C 940.635,288.139 937.104,287.149 939.000,291.000" stroke-width="3.274" stroke="black" fill="none" stroke-linecap="round"></path><path d="M 939.000,291.000 C 929.981,304.084 932.635,302.139 918.000,313.000" stroke-width="2.279" stroke="black" fill="none" stroke-linecap="round"></path></svg>