<svg xmlns="http://www.w3.org/2000/svg" xmlns:xlink="http://www.w3.org/1999/xlink" viewBox="0 0 1460 576" width="1460" height="576"><path d="M 788.000,325.000 C 793.811,329.415 793.000,330.000 798.000,335.000" stroke-width="4.531" stroke="black" fill="none" stroke-linecap="round"></path><path d="M 798.000,335.000 C 801.356,339.702 801.311,339.415 803.000,345.000" stroke-width="3.732" stroke="black" fill="none" stroke-linecap="round"></path><path d="M 803.000,345.000 C 806.365,354.481 805.856,354.202 807.000,364.000" stroke-width="2.810" stroke="black" fill="none" stroke-linecap="round"></path><path d="M 807.000,364.000 C 807.818,370.250 807.365,369.481 805.000,375.000" stroke-width="3.325" stroke="black" fill="none" stroke-linecap="round"></path><path d="M 805.000,375.000 C 791.029,401.592 790.318,399.750 772.000,423.000" stroke-width="2.267" stroke="black" fill="none" stroke-linecap="round"></path><path d="M 772.000,423.000 C 761.581,432.656 763.029,433.092 749.000,438.000" stroke-width="2.184" stroke="black" fill="none" stroke-linecap="round"></path><path d="M 749.000,438.000 C 705.197,460.474 705.081,456.656 659.000,471.000" stroke-width="1.125" stroke="black" fill="none" stroke-linecap="round"></path><path d="M 659.000,471.000 C 624.406,478.063 626.197,478.474 591.000,474.000" stroke-width="1.125" stroke="black" fill="none" stroke-linecap="round"></path><path d="M 591.000,474.000 C 547.458,470.375 550.406,469.063 511.000,453.000" stroke-width="1.125" stroke="black" fill="none" stroke-linecap="round"></path><path d="M 511.000,453.000 C 476.765,439.711 483.458,439.875 463.000,413.000" stroke-width="1.125" stroke="black" fill="none" stroke-linecap="round"></path><path d="M 463.000,413.000 C 436.941,351.852 434.765,358.211 427.000,290.000" stroke-width="1.129" stroke="black" fill="none" stroke-linecap="round"></path><path d="M 427.000,290.000 C 423.605,262.793 423.441,267.852 436.000,245.000" stroke-width="1.414" stroke="black" fill="none" stroke-linecap="round"></path><path d="M 436.000,245.000 C 459.425,217.900 454.605,218.293 489.000,201.000" stroke-width="1.189" stroke="black" fill="none" stroke-linecap="round"></path><path d="M 489.000,201.000 C 530.754,174.913 529.425,177.900 576.000,165.000" stroke-width="1.125" stroke="black" fill="none" stroke-linecap="round"></path><path d="M 576.000,165.000 C 622.111,157.844 619.754,155.413 667.000,162.000" stroke-width="1.265" stroke="black" fill="none" stroke-linecap="round"></path><path d="M 667.000,162.000 C 703.768,168.001 703.111,165.344 738.000,180.000" stroke-width="1.125" stroke="black" fill="none" stroke-linecap="round"></path><path d="M 738.000,180.000 C 751.934,186.869 752.268,185.001 764.000,196.000" stroke-width="1.594" stroke="black" fill="none" stroke-linecap="round"></path></svg>