<svg xmlns="http://www.w3.org/2000/svg" xmlns:xlink="http://www.w3.org/1999/xlink" viewBox="0 0 1460 576" width="1460" height="576"><path d="M 672.000,269.000 C 692.772,264.140 692.500,267.500 713.000,266.000" stroke-width="4.725" stroke="black" fill="none" stroke-linecap="round"></path><path d="M 713.000,266.000 C 736.446,270.042 736.272,268.140 759.000,277.000" stroke-width="1.872" stroke="black" fill="none" stroke-linecap="round"></path><path d="M 759.000,277.000 C 782.944,286.156 783.446,284.542 807.000,295.000" stroke-width="1.515" stroke="black" fill="none" stroke-linecap="round"></path><path d="M 807.000,295.000 C 817.212,297.984 816.944,298.656 827.000,302.000" stroke-width="2.052" stroke="black" fill="none" stroke-linecap="round"></path><path d="M 827.000,302.000 C 837.379,305.253 836.712,305.984 846.000,311.000" stroke-width="2.303" stroke="black" fill="none" stroke-linecap="round"></path><path d="M 846.000,311.000 C 855.248,315.493 852.379,315.253 857.000,322.000" stroke-width="2.662" stroke="black" fill="none" stroke-linecap="round"></path><path d="M 857.000,322.000 C 856.265,330.174 858.748,328.493 853.000,337.000" stroke-width="3.402" stroke="black" fill="none" stroke-linecap="round"></path><path d="M 853.000,337.000 C 849.873,341.425 850.765,341.674 846.000,345.000" stroke-width="3.386" stroke="black" fill="none" stroke-linecap="round"></path><path d="M 846.000,345.000 C 837.307,348.724 843.373,347.425 840.000,349.000" stroke-width="3.762" stroke="black" fill="none" stroke-linecap="round"></path><path d="M 840.000,349.000 C 862.509,348.649 856.807,350.724 885.000,349.000" stroke-width="2.675" stroke="black" fill="none" stroke-linecap="round"></path><path d="M 885.000,349.000 C 894.703,348.103 894.509,349.149 904.000,350.000" stroke-width="2.660" stroke="black" fill="none" stroke-linecap="round"></path><path d="M 904.000,350.000 C 945.115,356.807 943.703,358.103 983.000,369.000" stroke-width="1.871" stroke="black" fill="none" stroke-linecap="round"></path><path d="M 983.000,369.000 C 989.033,373.083 988.615,370.807 991.000,378.000" stroke-width="3.028" stroke="black" fill="none" stroke-linecap="round"></path><path d="M 991.000,378.000 C 991.029,381.786 992.033,380.583 989.000,384.000" stroke-width="3.706" stroke="black" fill="none" stroke-linecap="round"></path><path d="M 989.000,384.000 C 985.177,388.730 985.529,387.786 980.000,390.000" stroke-width="3.514" stroke="black" fill="none" stroke-linecap="round"></path><path d="M 980.000,390.000 C 957.939,393.169 958.677,395.230 936.000,397.000" stroke-width="1.797" stroke="black" fill="none" stroke-linecap="round"></path><path d="M 936.000,397.000 C 926.108,397.877 926.439,398.669 917.000,401.000" stroke-width="2.307" stroke="black" fill="none" stroke-linecap="round"></path><path d="M 917.000,401.000 C 908.842,404.706 908.608,403.877 901.000,409.000" stroke-width="2.541" stroke="black" fill="none" stroke-linecap="round"></path><path d="M 901.000,409.000 C 888.753,418.233 887.842,416.206 875.000,424.000" stroke-width="2.163" stroke="black" fill="none" stroke-linecap="round"></path><path d="M 875.000,424.000 C 857.253,430.669 857.753,431.233 839.000,435.000" stroke-width="1.856" stroke="black" fill="none" stroke-linecap="round"></path><path d="M 839.000,435.000 C 827.568,437.707 827.753,437.669 816.000,438.000" stroke-width="2.144" stroke="black" fill="none" stroke-linecap="round"></path><path d="M 816.000,438.000 C 787.872,439.032 788.068,438.707 760.000,437.000" stroke-width="1.483" stroke="black" fill="none" stroke-linecap="round"></path><path d="M 760.000,437.000 C 739.054,436.746 739.872,435.532 720.000,431.000" stroke-width="1.606" stroke="black" fill="none" stroke-linecap="round"></path><path d="M 720.000,431.000 C 708.505,424.490 707.554,427.246 697.000,418.000" stroke-width="1.935" stroke="black" fill="none" stroke-linecap="round"></path><path d="M 697.000,418.000 C 689.009,413.485 689.005,413.490 681.000,409.000" stroke-width="2.416" stroke="black" fill="none" stroke-linecap="round"></path><path d="M 681.000,409.000 C 676.316,406.774 676.509,406.485 672.000,404.000" stroke-width="3.087" stroke="black" fill="none" stroke-linecap="round"></path><path d="M 672.000,404.000 C 666.024,402.317 669.316,402.274 667.000,400.000" stroke-width="4.069" stroke="black" fill="none" stroke-linecap="round"></path><path d="M 667.000,400.000 C 672.075,390.283 670.024,392.817 680.000,385.000" stroke-width="3.692" stroke="black" fill="none" stroke-linecap="round"></path><path d="M 680.000,385.000 C 688.388,381.722 687.075,380.283 697.000,380.000" stroke-width="2.911" stroke="black" fill="none" stroke-linecap="round"></path></svg>