<svg xmlns="http://www.w3.org/2000/svg" xmlns:xlink="http://www.w3.org/1999/xlink" viewBox="0 0 492 236" width="492" height="236"><path d="M 62.000,47.000 C 65.562,53.468 65.500,53.500 69.000,60.000" stroke-width="3.236" stroke="black" fill="none" stroke-linecap="round"></path><path d="M 69.000,60.000 C 70.395,63.058 70.562,62.968 72.000,66.000" stroke-width="3.830" stroke="black" fill="none" stroke-linecap="round"></path><path d="M 72.000,66.000 C 73.332,71.000 73.395,68.558 75.000,71.000" stroke-width="4.436" stroke="black" fill="none" stroke-linecap="round"></path><path d="M 96.000,43.000 C 95.036,45.515 95.000,45.500 94.000,48.000" stroke-width="5.162" stroke="black" fill="none" stroke-linecap="round"></path><path d="M 94.000,48.000 C 92.787,51.650 92.536,51.515 91.000,55.000" stroke-width="4.196" stroke="black" fill="none" stroke-linecap="round"></path><path d="M 91.000,55.000 C 88.460,58.975 88.787,59.150 86.000,63.000" stroke-width="3.774" stroke="black" fill="none" stroke-linecap="round"></path><path d="M 86.000,63.000 C 83.230,68.155 82.960,67.975 80.000,73.000" stroke-width="3.514" stroke="black" fill="none" stroke-linecap="round"></path><path d="M 80.000,73.000 C 76.768,76.848 77.230,77.155 74.000,81.000" stroke-width="3.477" stroke="black" fill="none" stroke-linecap="round"></path><path d="M 74.000,81.000 C 72.031,84.518 71.768,84.348 70.000,88.000" stroke-width="3.753" stroke="black" fill="none" stroke-linecap="round"></path><path d="M 70.000,88.000 C 68.500,90.500 68.531,90.518 67.000,93.000" stroke-width="4.239" stroke="black" fill="none" stroke-linecap="round"></path><path d="M 113.000,76.000 C 110.568,74.257 110.500,75.000 108.000,74.000" stroke-width="5.325" stroke="black" fill="none" stroke-linecap="round"></path><path d="M 108.000,74.000 C 105.278,73.964 105.568,73.757 103.000,75.000" stroke-width="4.629" stroke="black" fill="none" stroke-linecap="round"></path><path d="M 103.000,75.000 C 99.400,76.400 99.778,76.464 97.000,79.000" stroke-width="4.229" stroke="black" fill="none" stroke-linecap="round"></path><path d="M 97.000,79.000 C 92.905,83.101 93.400,82.900 91.000,88.000" stroke-width="3.578" stroke="black" fill="none" stroke-linecap="round"></path><path d="M 91.000,88.000 C 88.413,93.561 89.405,92.101 90.000,97.000" stroke-width="4.142" stroke="black" fill="none" stroke-linecap="round"></path><path d="M 90.000,97.000 C 93.253,99.929 91.413,100.061 97.000,101.000" stroke-width="4.400" stroke="black" fill="none" stroke-linecap="round"></path><path d="M 97.000,101.000 C 100.798,101.985 100.253,101.929 104.000,101.000" stroke-width="4.101" stroke="black" fill="none" stroke-linecap="round"></path><path d="M 104.000,101.000 C 107.087,99.119 107.298,99.985 110.000,97.000" stroke-width="3.994" stroke="black" fill="none" stroke-linecap="round"></path><path d="M 110.000,97.000 C 113.286,95.570 112.587,95.119 115.000,93.000" stroke-width="4.101" stroke="black" fill="none" stroke-linecap="round"></path><path d="M 115.000,93.000 C 118.613,88.067 117.286,89.570 118.000,85.000" stroke-width="4.351" stroke="black" fill="none" stroke-linecap="round"></path><path d="M 153.000,75.000 C 152.000,79.514 152.500,79.500 152.000,84.000" stroke-width="5.202" stroke="black" fill="none" stroke-linecap="round"></path><path d="M 152.000,84.000 C 151.979,87.192 152.000,87.014 153.000,90.000" stroke-width="4.461" stroke="black" fill="none" stroke-linecap="round"></path><path d="M 153.000,90.000 C 154.167,92.760 153.979,92.692 156.000,95.000" stroke-width="4.420" stroke="black" fill="none" stroke-linecap="round"></path><path d="M 156.000,95.000 C 158.502,99.924 158.667,98.260 162.000,101.000" stroke-width="3.930" stroke="black" fill="none" stroke-linecap="round"></path><path d="M 162.000,101.000 C 166.398,101.082 165.002,101.924 169.000,99.000" stroke-width="4.365" stroke="black" fill="none" stroke-linecap="round"></path><path d="M 169.000,99.000 C 170.422,95.959 171.398,97.082 172.000,93.000" stroke-width="4.175" stroke="black" fill="none" stroke-linecap="round"></path><path d="M 172.000,93.000 C 174.918,84.000 174.422,88.459 177.000,84.000" stroke-width="4.274" stroke="black" fill="none" stroke-linecap="round"></path><path d="M 177.000,84.000 C 179.186,88.389 178.918,84.000 180.000,93.000" stroke-width="4.878" stroke="black" fill="none" stroke-linecap="round"></path><path d="M 180.000,93.000 C 178.673,97.550 180.686,96.889 180.000,101.000" stroke-width="4.664" stroke="black" fill="none" stroke-linecap="round"></path><path d="M 180.000,101.000 C 182.162,104.013 181.173,104.050 185.000,106.000" stroke-width="4.158" stroke="black" fill="none" stroke-linecap="round"></path><path d="M 292.000,52.000 C 289.203,49.641 289.000,50.500 286.000,49.000" stroke-width="4.885" stroke="black" fill="none" stroke-linecap="round"></path><path d="M 286.000,49.000 C 281.272,47.850 281.703,48.141 277.000,49.000" stroke-width="3.908" stroke="black" fill="none" stroke-linecap="round"></path><path d="M 277.000,49.000 C 268.185,51.908 268.272,51.350 260.000,56.000" stroke-width="3.751" stroke="black" fill="none" stroke-linecap="round"></path><path d="M 260.000,56.000 C 254.984,58.396 255.185,58.408 251.000,62.000" stroke-width="3.466" stroke="black" fill="none" stroke-linecap="round"></path><path d="M 251.000,62.000 C 243.775,67.838 244.484,67.896 239.000,75.000" stroke-width="3.626" stroke="black" fill="none" stroke-linecap="round"></path><path d="M 239.000,75.000 C 237.541,78.943 236.775,78.338 237.000,83.000" stroke-width="3.738" stroke="black" fill="none" stroke-linecap="round"></path><path d="M 237.000,83.000 C 236.510,86.569 236.541,86.443 237.000,90.000" stroke-width="3.859" stroke="black" fill="none" stroke-linecap="round"></path><path d="M 237.000,90.000 C 236.990,94.237 237.510,93.569 239.000,97.000" stroke-width="3.960" stroke="black" fill="none" stroke-linecap="round"></path><path d="M 239.000,97.000 C 241.839,99.298 240.990,99.737 245.000,101.000" stroke-width="3.999" stroke="black" fill="none" stroke-linecap="round"></path><path d="M 245.000,101.000 C 248.485,102.536 248.339,102.798 252.000,104.000" stroke-width="3.966" stroke="black" fill="none" stroke-linecap="round"></path><path d="M 252.000,104.000 C 254.471,105.080 254.485,105.036 257.000,106.000" stroke-width="4.175" stroke="black" fill="none" stroke-linecap="round"></path><path d="M 257.000,106.000 C 259.897,107.635 259.971,107.080 263.000,108.000" stroke-width="4.122" stroke="black" fill="none" stroke-linecap="round"></path><path d="M 263.000,108.000 C 268.527,108.322 268.397,108.635 274.000,108.000" stroke-width="4.211" stroke="black" fill="none" stroke-linecap="round"></path><path d="M 274.000,108.000 C 277.409,108.295 277.027,107.822 280.000,107.000" stroke-width="4.115" stroke="black" fill="none" stroke-linecap="round"></path><path d="M 280.000,107.000 C 282.242,105.198 282.409,105.795 284.000,103.000" stroke-width="4.188" stroke="black" fill="none" stroke-linecap="round"></path><path d="M 326.000,89.000 C 321.390,87.686 321.500,88.500 317.000,88.000" stroke-width="5.024" stroke="black" fill="none" stroke-linecap="round"></path><path d="M 317.000,88.000 C 313.610,88.160 314.390,88.186 312.000,90.000" stroke-width="4.876" stroke="black" fill="none" stroke-linecap="round"></path><path d="M 312.000,90.000 C 308.724,94.086 310.110,92.160 310.000,96.000" stroke-width="4.766" stroke="black" fill="none" stroke-linecap="round"></path><path d="M 310.000,96.000 C 313.911,98.416 311.724,98.586 318.000,99.000" stroke-width="4.802" stroke="black" fill="none" stroke-linecap="round"></path><path d="M 318.000,99.000 C 321.192,99.021 320.911,99.416 324.000,98.000" stroke-width="4.321" stroke="black" fill="none" stroke-linecap="round"></path><path d="M 324.000,98.000 C 326.649,96.710 326.692,97.021 329.000,95.000" stroke-width="4.227" stroke="black" fill="none" stroke-linecap="round"></path><path d="M 329.000,95.000 C 333.436,88.632 332.149,92.710 335.000,90.000" stroke-width="4.429" stroke="black" fill="none" stroke-linecap="round"></path><path d="M 335.000,90.000 C 336.000,96.000 337.436,92.132 337.000,102.000" stroke-width="4.641" stroke="black" fill="none" stroke-linecap="round"></path><path d="M 337.000,102.000 C 337.456,105.008 337.500,105.000 338.000,108.000" stroke-width="4.281" stroke="black" fill="none" stroke-linecap="round"></path><path d="M 338.000,108.000 C 337.892,110.783 338.456,110.508 339.000,113.000" stroke-width="4.270" stroke="black" fill="none" stroke-linecap="round"></path><path d="M 365.000,90.000 C 368.053,93.781 367.500,94.000 370.000,98.000" stroke-width="5.175" stroke="black" fill="none" stroke-linecap="round"></path><path d="M 370.000,98.000 C 370.270,100.568 371.053,100.281 371.000,103.000" stroke-width="4.835" stroke="black" fill="none" stroke-linecap="round"></path><path d="M 371.000,103.000 C 371.136,107.586 371.770,105.568 373.000,108.000" stroke-width="4.427" stroke="black" fill="none" stroke-linecap="round"></path><path d="M 373.000,108.000 C 377.320,107.457 375.636,108.586 380.000,105.000" stroke-width="4.544" stroke="black" fill="none" stroke-linecap="round"></path><path d="M 380.000,105.000 C 382.142,100.715 383.320,101.957 385.000,97.000" stroke-width="3.853" stroke="black" fill="none" stroke-linecap="round"></path><path d="M 385.000,97.000 C 387.396,94.387 387.142,94.215 390.000,92.000" stroke-width="3.936" stroke="black" fill="none" stroke-linecap="round"></path><path d="M 390.000,92.000 C 393.353,88.806 393.396,88.887 397.000,86.000" stroke-width="3.608" stroke="black" fill="none" stroke-linecap="round"></path><path d="M 397.000,86.000 C 399.851,83.717 399.853,83.806 403.000,82.000" stroke-width="3.793" stroke="black" fill="none" stroke-linecap="round"></path><path d="M 403.000,82.000 C 405.471,80.920 405.351,80.717 408.000,80.000" stroke-width="4.074" stroke="black" fill="none" stroke-linecap="round"></path><path d="M 408.000,80.000 C 410.921,78.513 410.971,78.920 414.000,78.000" stroke-width="4.044" stroke="black" fill="none" stroke-linecap="round"></path><path d="M 414.000,78.000 C 418.800,76.200 416.921,77.513 420.000,78.000" stroke-width="4.520" stroke="black" fill="none" stroke-linecap="round"></path><path d="M 420.000,78.000 C 421.073,82.707 421.800,80.700 420.000,87.000" stroke-width="4.428" stroke="black" fill="none" stroke-linecap="round"></path><path d="M 420.000,87.000 C 416.543,94.372 418.073,94.707 414.000,102.000" stroke-width="4.032" stroke="black" fill="none" stroke-linecap="round"></path><path d="M 414.000,102.000 C 413.000,104.994 413.043,104.872 413.000,108.000" stroke-width="4.062" stroke="black" fill="none" stroke-linecap="round"></path></svg>