<svg xmlns="http://www.w3.org/2000/svg" xmlns:xlink="http://www.w3.org/1999/xlink" viewBox="0 0 540 330" width="540" height="330"><path d="M 166.000,180.000 C 161.842,180.768 162.000,180.000 158.000,180.000" stroke-width="4.990" stroke="black" fill="none" stroke-linecap="round"></path><path d="M 158.000,180.000 C 154.489,178.526 154.342,179.268 151.000,177.000" stroke-width="4.216" stroke="black" fill="none" stroke-linecap="round"></path><path d="M 151.000,177.000 C 146.538,174.911 146.489,175.026 142.000,173.000" stroke-width="3.735" stroke="black" fill="none" stroke-linecap="round"></path><path d="M 142.000,173.000 C 137.097,170.699 137.038,170.911 132.000,169.000" stroke-width="3.526" stroke="black" fill="none" stroke-linecap="round"></path><path d="M 132.000,169.000 C 127.962,168.132 128.097,167.699 124.000,167.000" stroke-width="3.654" stroke="black" fill="none" stroke-linecap="round"></path><path d="M 124.000,167.000 C 121.022,165.930 120.962,166.132 118.000,165.000" stroke-width="3.910" stroke="black" fill="none" stroke-linecap="round"></path><path d="M 118.000,165.000 C 114.541,163.817 114.522,163.930 111.000,163.000" stroke-width="3.879" stroke="black" fill="none" stroke-linecap="round"></path><path d="M 111.000,163.000 C 104.335,163.330 108.041,162.317 105.000,162.000" stroke-width="4.436" stroke="black" fill="none" stroke-linecap="round"></path><path d="M 105.000,162.000 C 110.000,158.500 106.335,159.330 115.000,155.000" stroke-width="4.874" stroke="black" fill="none" stroke-linecap="round"></path><path d="M 115.000,155.000 C 120.392,151.986 120.000,151.500 125.000,148.000" stroke-width="3.698" stroke="black" fill="none" stroke-linecap="round"></path><path d="M 125.000,148.000 C 138.506,135.507 138.892,135.986 152.000,123.000" stroke-width="2.868" stroke="black" fill="none" stroke-linecap="round"></path><path d="M 152.000,123.000 C 158.876,116.361 159.006,116.507 166.000,110.000" stroke-width="3.345" stroke="black" fill="none" stroke-linecap="round"></path><path d="M 166.000,110.000 C 172.918,103.902 172.876,103.861 180.000,98.000" stroke-width="2.927" stroke="black" fill="none" stroke-linecap="round"></path><path d="M 180.000,98.000 C 190.423,88.135 190.918,88.902 202.000,80.000" stroke-width="2.232" stroke="black" fill="none" stroke-linecap="round"></path><path d="M 202.000,80.000 C 209.267,75.314 208.923,75.135 217.000,72.000" stroke-width="3.115" stroke="black" fill="none" stroke-linecap="round"></path><path d="M 217.000,72.000 C 222.861,69.055 219.767,70.814 223.000,71.000" stroke-width="4.103" stroke="black" fill="none" stroke-linecap="round"></path><path d="M 223.000,71.000 C 221.218,78.821 223.361,76.055 218.000,86.000" stroke-width="3.860" stroke="black" fill="none" stroke-linecap="round"></path><path d="M 218.000,86.000 C 214.351,93.217 214.718,93.321 210.000,100.000" stroke-width="3.123" stroke="black" fill="none" stroke-linecap="round"></path><path d="M 210.000,100.000 C 197.369,119.761 197.351,119.717 184.000,139.000" stroke-width="2.551" stroke="black" fill="none" stroke-linecap="round"></path><path d="M 184.000,139.000 C 177.039,149.454 176.869,149.261 169.000,159.000" stroke-width="2.353" stroke="black" fill="none" stroke-linecap="round"></path><path d="M 169.000,159.000 C 160.492,167.993 161.039,168.454 152.000,177.000" stroke-width="2.250" stroke="black" fill="none" stroke-linecap="round"></path><path d="M 152.000,177.000 C 144.510,186.057 143.992,185.493 136.000,194.000" stroke-width="2.934" stroke="black" fill="none" stroke-linecap="round"></path><path d="M 136.000,194.000 C 129.228,199.811 129.510,200.057 122.000,205.000" stroke-width="2.738" stroke="black" fill="none" stroke-linecap="round"></path><path d="M 122.000,205.000 C 109.860,214.141 109.728,213.811 97.000,222.000" stroke-width="2.196" stroke="black" fill="none" stroke-linecap="round"></path><path d="M 97.000,222.000 C 91.459,224.414 91.860,225.141 86.000,227.000" stroke-width="2.817" stroke="black" fill="none" stroke-linecap="round"></path><path d="M 86.000,227.000 C 82.051,229.110 81.959,228.914 78.000,231.000" stroke-width="3.374" stroke="black" fill="none" stroke-linecap="round"></path><path d="M 78.000,231.000 C 74.456,232.405 74.551,232.610 71.000,234.000" stroke-width="3.668" stroke="black" fill="none" stroke-linecap="round"></path><path d="M 71.000,234.000 C 68.000,235.500 67.956,235.405 65.000,237.000" stroke-width="4.305" stroke="black" fill="none" stroke-linecap="round"></path><path d="M 65.000,237.000 C 59.678,241.595 61.000,239.000 57.000,241.000" stroke-width="3.852" stroke="black" fill="none" stroke-linecap="round"></path><path d="M 57.000,241.000 C 54.776,237.448 55.178,240.595 56.000,235.000" stroke-width="4.766" stroke="black" fill="none" stroke-linecap="round"></path><path d="M 56.000,235.000 C 59.682,230.643 58.276,230.448 64.000,227.000" stroke-width="3.631" stroke="black" fill="none" stroke-linecap="round"></path><path d="M 64.000,227.000 C 75.728,217.126 75.682,217.143 88.000,208.000" stroke-width="3.101" stroke="black" fill="none" stroke-linecap="round"></path><path d="M 88.000,208.000 C 95.500,203.000 95.228,202.626 103.000,198.000" stroke-width="3.482" stroke="black" fill="none" stroke-linecap="round"></path><path d="M 103.000,198.000 C 110.165,192.407 110.500,193.000 118.000,188.000" stroke-width="2.851" stroke="black" fill="none" stroke-linecap="round"></path><path d="M 118.000,188.000 C 126.496,183.992 126.165,183.407 135.000,180.000" stroke-width="2.723" stroke="black" fill="none" stroke-linecap="round"></path><path d="M 135.000,180.000 C 150.978,172.452 150.996,172.492 167.000,165.000" stroke-width="2.027" stroke="black" fill="none" stroke-linecap="round"></path><path d="M 167.000,165.000 C 172.435,162.343 172.478,162.452 178.000,160.000" stroke-width="2.809" stroke="black" fill="none" stroke-linecap="round"></path><path d="M 178.000,160.000 C 181.929,158.253 181.935,158.343 186.000,157.000" stroke-width="3.359" stroke="black" fill="none" stroke-linecap="round"></path><path d="M 186.000,157.000 C 191.223,156.670 188.429,156.253 191.000,156.000" stroke-width="3.983" stroke="black" fill="none" stroke-linecap="round"></path><path d="M 191.000,156.000 C 188.062,154.000 190.723,155.170 185.000,154.000" stroke-width="4.779" stroke="black" fill="none" stroke-linecap="round"></path><path d="M 185.000,154.000 C 179.675,154.182 180.062,154.000 175.000,156.000" stroke-width="3.819" stroke="black" fill="none" stroke-linecap="round"></path><path d="M 175.000,156.000 C 170.849,158.283 170.675,157.682 167.000,161.000" stroke-width="3.776" stroke="black" fill="none" stroke-linecap="round"></path><path d="M 167.000,161.000 C 162.423,164.406 162.349,164.283 158.000,168.000" stroke-width="3.480" stroke="black" fill="none" stroke-linecap="round"></path><path d="M 158.000,168.000 C 154.396,170.887 154.423,170.906 151.000,174.000" stroke-width="3.542" stroke="black" fill="none" stroke-linecap="round"></path><path d="M 151.000,174.000 C 148.192,176.260 148.396,176.387 146.000,179.000" stroke-width="3.833" stroke="black" fill="none" stroke-linecap="round"></path><path d="M 146.000,179.000 C 143.739,181.289 144.192,181.260 143.000,184.000" stroke-width="4.031" stroke="black" fill="none" stroke-linecap="round"></path><path d="M 143.000,184.000 C 141.059,188.941 142.239,186.789 143.000,190.000" stroke-width="4.541" stroke="black" fill="none" stroke-linecap="round"></path><path d="M 143.000,190.000 C 148.695,191.011 146.559,191.941 154.000,190.000" stroke-width="4.287" stroke="black" fill="none" stroke-linecap="round"></path><path d="M 154.000,190.000 C 159.199,188.401 159.195,189.011 164.000,186.000" stroke-width="3.659" stroke="black" fill="none" stroke-linecap="round"></path><path d="M 164.000,186.000 C 169.114,183.176 169.199,183.401 174.000,180.000" stroke-width="3.366" stroke="black" fill="none" stroke-linecap="round"></path><path d="M 174.000,180.000 C 179.251,176.799 179.114,176.676 184.000,173.000" stroke-width="3.241" stroke="black" fill="none" stroke-linecap="round"></path><path d="M 184.000,173.000 C 186.500,170.500 186.751,170.799 189.000,168.000" stroke-width="3.676" stroke="black" fill="none" stroke-linecap="round"></path><path d="M 189.000,168.000 C 194.033,164.000 191.000,166.000 193.000,164.000" stroke-width="3.999" stroke="black" fill="none" stroke-linecap="round"></path><path d="M 193.000,164.000 C 187.217,165.081 191.033,164.000 183.000,168.000" stroke-width="4.695" stroke="black" fill="none" stroke-linecap="round"></path><path d="M 183.000,168.000 C 181.469,170.482 180.717,169.581 180.000,173.000" stroke-width="4.328" stroke="black" fill="none" stroke-linecap="round"></path><path d="M 180.000,173.000 C 175.201,177.869 177.969,176.482 176.000,180.000" stroke-width="4.461" stroke="black" fill="none" stroke-linecap="round"></path><path d="M 176.000,180.000 C 179.787,181.857 176.701,181.869 183.000,181.000" stroke-width="4.937" stroke="black" fill="none" stroke-linecap="round"></path><path d="M 183.000,181.000 C 187.210,178.793 187.287,179.857 191.000,176.000" stroke-width="3.993" stroke="black" fill="none" stroke-linecap="round"></path><path d="M 191.000,176.000 C 196.640,171.661 196.710,171.793 202.000,167.000" stroke-width="3.294" stroke="black" fill="none" stroke-linecap="round"></path><path d="M 202.000,167.000 C 208.142,161.649 208.140,161.661 214.000,156.000" stroke-width="3.611" stroke="black" fill="none" stroke-linecap="round"></path><path d="M 214.000,156.000 C 222.437,148.404 222.142,148.149 230.000,140.000" stroke-width="2.607" stroke="black" fill="none" stroke-linecap="round"></path><path d="M 230.000,140.000 C 244.698,123.162 244.937,123.404 259.000,106.000" stroke-width="1.765" stroke="black" fill="none" stroke-linecap="round"></path><path d="M 259.000,106.000 C 264.439,98.951 264.698,99.162 270.000,92.000" stroke-width="2.354" stroke="black" fill="none" stroke-linecap="round"></path><path d="M 270.000,92.000 C 278.712,81.656 278.439,81.451 287.000,71.000" stroke-width="2.827" stroke="black" fill="none" stroke-linecap="round"></path><path d="M 287.000,71.000 C 291.915,67.060 289.212,68.156 291.000,65.000" stroke-width="3.529" stroke="black" fill="none" stroke-linecap="round"></path><path d="M 291.000,65.000 C 286.731,60.982 289.915,62.560 283.000,62.000" stroke-width="4.326" stroke="black" fill="none" stroke-linecap="round"></path><path d="M 283.000,62.000 C 275.059,65.373 275.731,63.982 269.000,71.000" stroke-width="3.238" stroke="black" fill="none" stroke-linecap="round"></path><path d="M 269.000,71.000 C 254.133,85.305 254.059,84.873 241.000,101.000" stroke-width="2.655" stroke="black" fill="none" stroke-linecap="round"></path><path d="M 241.000,101.000 C 233.877,110.126 233.633,109.805 228.000,120.000" stroke-width="2.521" stroke="black" fill="none" stroke-linecap="round"></path><path d="M 228.000,120.000 C 221.800,131.400 221.377,131.126 216.000,143.000" stroke-width="2.246" stroke="black" fill="none" stroke-linecap="round"></path><path d="M 216.000,143.000 C 210.341,154.427 210.300,154.400 205.000,166.000" stroke-width="2.824" stroke="black" fill="none" stroke-linecap="round"></path><path d="M 205.000,166.000 C 201.440,173.974 201.341,173.927 198.000,182.000" stroke-width="2.789" stroke="black" fill="none" stroke-linecap="round"></path><path d="M 198.000,182.000 C 195.355,187.946 195.440,187.974 193.000,194.000" stroke-width="3.002" stroke="black" fill="none" stroke-linecap="round"></path><path d="M 193.000,194.000 C 189.974,198.460 191.855,196.946 191.000,200.000" stroke-width="3.694" stroke="black" fill="none" stroke-linecap="round"></path><path d="M 191.000,200.000 C 194.711,201.616 191.974,201.460 197.000,200.000" stroke-width="4.417" stroke="black" fill="none" stroke-linecap="round"></path><path d="M 197.000,200.000 C 202.370,193.875 203.211,195.616 208.000,188.000" stroke-width="3.135" stroke="black" fill="none" stroke-linecap="round"></path><path d="M 208.000,188.000 C 213.896,181.893 213.870,181.875 220.000,176.000" stroke-width="2.840" stroke="black" fill="none" stroke-linecap="round"></path><path d="M 220.000,176.000 C 228.457,167.954 228.396,167.893 237.000,160.000" stroke-width="2.494" stroke="black" fill="none" stroke-linecap="round"></path><path d="M 237.000,160.000 C 242.843,154.317 242.957,154.454 249.000,149.000" stroke-width="2.693" stroke="black" fill="none" stroke-linecap="round"></path><path d="M 249.000,149.000 C 253.882,144.839 253.843,144.817 259.000,141.000" stroke-width="3.034" stroke="black" fill="none" stroke-linecap="round"></path><path d="M 259.000,141.000 C 264.708,135.100 261.882,138.839 265.000,137.000" stroke-width="3.579" stroke="black" fill="none" stroke-linecap="round"></path><path d="M 265.000,137.000 C 263.580,145.688 265.708,141.600 261.000,154.000" stroke-width="4.146" stroke="black" fill="none" stroke-linecap="round"></path><path d="M 261.000,154.000 C 258.414,159.966 259.080,160.188 256.000,166.000" stroke-width="3.488" stroke="black" fill="none" stroke-linecap="round"></path><path d="M 256.000,166.000 C 254.029,169.884 254.414,169.966 253.000,174.000" stroke-width="3.663" stroke="black" fill="none" stroke-linecap="round"></path><path d="M 253.000,174.000 C 250.575,180.005 252.029,177.884 252.000,182.000" stroke-width="4.224" stroke="black" fill="none" stroke-linecap="round"></path><path d="M 252.000,182.000 C 255.552,182.573 253.075,183.505 258.000,181.000" stroke-width="4.593" stroke="black" fill="none" stroke-linecap="round"></path><path d="M 258.000,181.000 C 261.859,176.845 262.552,178.073 266.000,173.000" stroke-width="3.669" stroke="black" fill="none" stroke-linecap="round"></path><path d="M 266.000,173.000 C 269.000,170.500 268.859,170.345 272.000,168.000" stroke-width="3.797" stroke="black" fill="none" stroke-linecap="round"></path><path d="M 272.000,168.000 C 275.000,165.500 275.000,165.500 278.000,163.000" stroke-width="3.837" stroke="black" fill="none" stroke-linecap="round"></path><path d="M 278.000,163.000 C 283.027,157.270 281.000,160.500 284.000,158.000" stroke-width="4.292" stroke="black" fill="none" stroke-linecap="round"></path><path d="M 284.000,158.000 C 283.517,162.208 285.027,158.770 282.000,166.000" stroke-width="4.671" stroke="black" fill="none" stroke-linecap="round"></path><path d="M 282.000,166.000 C 279.483,169.292 280.517,169.708 278.000,173.000" stroke-width="3.978" stroke="black" fill="none" stroke-linecap="round"></path><path d="M 278.000,173.000 C 275.093,177.975 276.483,176.792 276.000,181.000" stroke-width="4.363" stroke="black" fill="none" stroke-linecap="round"></path><path d="M 276.000,181.000 C 278.725,183.700 276.593,182.975 281.000,183.000" stroke-width="4.813" stroke="black" fill="none" stroke-linecap="round"></path><path d="M 281.000,183.000 C 287.162,177.000 285.225,181.700 289.000,177.000" stroke-width="4.498" stroke="black" fill="none" stroke-linecap="round"></path><path d="M 289.000,177.000 C 288.332,180.146 290.162,177.000 287.000,183.000" stroke-width="4.929" stroke="black" fill="none" stroke-linecap="round"></path><path d="M 287.000,183.000 C 284.298,187.404 284.832,187.646 282.000,192.000" stroke-width="3.836" stroke="black" fill="none" stroke-linecap="round"></path><path d="M 282.000,192.000 C 280.648,194.406 280.798,194.404 280.000,197.000" stroke-width="4.131" stroke="black" fill="none" stroke-linecap="round"></path><path d="M 280.000,197.000 C 277.500,202.000 279.148,200.406 279.000,204.000" stroke-width="4.470" stroke="black" fill="none" stroke-linecap="round"></path><path d="M 279.000,204.000 C 283.249,206.954 280.500,206.000 286.000,205.000" stroke-width="4.565" stroke="black" fill="none" stroke-linecap="round"></path><path d="M 286.000,205.000 C 302.707,192.160 302.249,193.454 317.000,177.000" stroke-width="2.876" stroke="black" fill="none" stroke-linecap="round"></path><path d="M 317.000,177.000 C 334.845,156.273 335.707,157.160 352.000,135.000" stroke-width="2.363" stroke="black" fill="none" stroke-linecap="round"></path><path d="M 352.000,135.000 C 359.737,125.168 359.845,125.273 367.000,115.000" stroke-width="2.243" stroke="black" fill="none" stroke-linecap="round"></path><path d="M 367.000,115.000 C 372.067,107.544 372.237,107.668 377.000,100.000" stroke-width="2.563" stroke="black" fill="none" stroke-linecap="round"></path><path d="M 377.000,100.000 C 380.519,94.512 380.567,94.544 384.000,89.000" stroke-width="2.916" stroke="black" fill="none" stroke-linecap="round"></path><path d="M 384.000,89.000 C 387.053,85.219 386.519,85.012 389.000,81.000" stroke-width="3.819" stroke="black" fill="none" stroke-linecap="round"></path><path d="M 389.000,81.000 C 391.517,76.152 390.053,78.719 390.000,76.000" stroke-width="4.121" stroke="black" fill="none" stroke-linecap="round"></path><path d="M 390.000,76.000 C 383.087,76.030 386.517,75.652 379.000,80.000" stroke-width="4.406" stroke="black" fill="none" stroke-linecap="round"></path><path d="M 379.000,80.000 C 366.413,94.576 365.587,93.030 355.000,110.000" stroke-width="3.074" stroke="black" fill="none" stroke-linecap="round"></path><path d="M 355.000,110.000 C 348.132,119.780 347.913,119.576 342.000,130.000" stroke-width="2.584" stroke="black" fill="none" stroke-linecap="round"></path><path d="M 342.000,130.000 C 336.304,139.897 336.132,139.780 331.000,150.000" stroke-width="2.392" stroke="black" fill="none" stroke-linecap="round"></path><path d="M 331.000,150.000 C 326.217,160.115 325.804,159.897 321.000,170.000" stroke-width="2.418" stroke="black" fill="none" stroke-linecap="round"></path><path d="M 321.000,170.000 C 316.678,178.106 316.717,178.115 312.000,186.000" stroke-width="2.556" stroke="black" fill="none" stroke-linecap="round"></path><path d="M 312.000,186.000 C 308.679,191.624 308.678,191.606 305.000,197.000" stroke-width="2.913" stroke="black" fill="none" stroke-linecap="round"></path><path d="M 305.000,197.000 C 302.193,201.168 302.179,201.124 299.000,205.000" stroke-width="3.277" stroke="black" fill="none" stroke-linecap="round"></path><path d="M 299.000,205.000 C 294.277,209.361 297.193,207.168 295.000,209.000" stroke-width="4.341" stroke="black" fill="none" stroke-linecap="round"></path><path d="M 295.000,209.000 C 299.195,206.235 296.277,208.361 303.000,203.000" stroke-width="3.749" stroke="black" fill="none" stroke-linecap="round"></path><path d="M 303.000,203.000 C 308.891,197.376 309.195,197.735 315.000,192.000" stroke-width="3.090" stroke="black" fill="none" stroke-linecap="round"></path><path d="M 315.000,192.000 C 321.518,186.521 321.391,186.376 328.000,181.000" stroke-width="2.889" stroke="black" fill="none" stroke-linecap="round"></path><path d="M 328.000,181.000 C 334.654,174.555 335.018,175.021 342.000,169.000" stroke-width="2.753" stroke="black" fill="none" stroke-linecap="round"></path><path d="M 342.000,169.000 C 355.009,158.610 355.154,159.055 369.000,150.000" stroke-width="2.823" stroke="black" fill="none" stroke-linecap="round"></path><path d="M 369.000,150.000 C 374.949,147.368 374.509,146.610 381.000,145.000" stroke-width="3.069" stroke="black" fill="none" stroke-linecap="round"></path><path d="M 381.000,145.000 C 386.368,142.252 386.449,142.868 392.000,141.000" stroke-width="3.248" stroke="black" fill="none" stroke-linecap="round"></path><path d="M 392.000,141.000 C 396.585,139.244 395.368,140.252 399.000,141.000" stroke-width="3.731" stroke="black" fill="none" stroke-linecap="round"></path><path d="M 399.000,141.000 C 404.170,145.322 402.085,143.244 403.000,149.000" stroke-width="4.394" stroke="black" fill="none" stroke-linecap="round"></path><path d="M 403.000,149.000 C 397.856,156.307 400.670,156.322 392.000,163.000" stroke-width="3.019" stroke="black" fill="none" stroke-linecap="round"></path><path d="M 392.000,163.000 C 384.185,172.757 383.856,172.307 375.000,181.000" stroke-width="2.402" stroke="black" fill="none" stroke-linecap="round"></path><path d="M 375.000,181.000 C 364.696,190.577 364.685,190.257 353.000,198.000" stroke-width="2.208" stroke="black" fill="none" stroke-linecap="round"></path><path d="M 353.000,198.000 C 338.615,207.494 338.696,207.077 323.000,214.000" stroke-width="1.964" stroke="black" fill="none" stroke-linecap="round"></path><path d="M 323.000,214.000 C 308.266,219.747 308.615,219.994 293.000,223.000" stroke-width="1.974" stroke="black" fill="none" stroke-linecap="round"></path><path d="M 293.000,223.000 C 277.553,225.636 277.766,226.247 262.000,227.000" stroke-width="1.925" stroke="black" fill="none" stroke-linecap="round"></path><path d="M 262.000,227.000 C 249.005,227.759 249.053,228.136 236.000,228.000" stroke-width="2.643" stroke="black" fill="none" stroke-linecap="round"></path><path d="M 236.000,228.000 C 221.980,228.518 222.005,228.259 208.000,228.000" stroke-width="2.194" stroke="black" fill="none" stroke-linecap="round"></path><path d="M 208.000,228.000 C 194.764,228.297 194.980,227.518 182.000,226.000" stroke-width="2.212" stroke="black" fill="none" stroke-linecap="round"></path><path d="M 182.000,226.000 C 169.756,223.180 169.764,223.797 158.000,219.000" stroke-width="2.257" stroke="black" fill="none" stroke-linecap="round"></path><path d="M 158.000,219.000 C 147.258,214.990 147.256,215.180 137.000,210.000" stroke-width="2.355" stroke="black" fill="none" stroke-linecap="round"></path><path d="M 137.000,210.000 C 128.483,206.238 128.758,205.990 121.000,201.000" stroke-width="2.534" stroke="black" fill="none" stroke-linecap="round"></path><path d="M 121.000,201.000 C 113.318,195.619 113.483,195.738 107.000,189.000" stroke-width="2.647" stroke="black" fill="none" stroke-linecap="round"></path><path d="M 107.000,189.000 C 102.014,184.537 102.818,184.619 100.000,179.000" stroke-width="3.005" stroke="black" fill="none" stroke-linecap="round"></path><path d="M 100.000,179.000 C 96.570,172.283 98.014,173.537 99.000,167.000" stroke-width="3.201" stroke="black" fill="none" stroke-linecap="round"></path><path d="M 99.000,167.000 C 106.111,142.835 108.070,147.283 123.000,129.000" stroke-width="1.828" stroke="black" fill="none" stroke-linecap="round"></path><path d="M 123.000,129.000 C 157.396,108.283 153.111,104.335 193.000,90.000" stroke-width="1.719" stroke="black" fill="none" stroke-linecap="round"></path><path d="M 193.000,90.000 C 212.953,79.443 212.896,79.783 234.000,72.000" stroke-width="1.545" stroke="black" fill="none" stroke-linecap="round"></path><path d="M 234.000,72.000 C 254.270,65.405 253.953,64.943 275.000,61.000" stroke-width="1.589" stroke="black" fill="none" stroke-linecap="round"></path><path d="M 275.000,61.000 C 294.403,56.729 294.270,56.905 314.000,55.000" stroke-width="1.661" stroke="black" fill="none" stroke-linecap="round"></path><path d="M 314.000,55.000 C 328.506,54.716 328.403,53.729 343.000,55.000" stroke-width="1.933" stroke="black" fill="none" stroke-linecap="round"></path><path d="M 343.000,55.000 C 354.883,53.155 354.006,55.216 365.000,56.000" stroke-width="2.218" stroke="black" fill="none" stroke-linecap="round"></path><path d="M 365.000,56.000 C 372.376,58.752 370.883,57.655 375.000,64.000" stroke-width="2.783" stroke="black" fill="none" stroke-linecap="round"></path><path d="M 375.000,64.000 C 377.162,71.259 377.876,69.752 376.000,78.000" stroke-width="3.507" stroke="black" fill="none" stroke-linecap="round"></path><path d="M 376.000,78.000 C 374.830,86.739 374.662,85.759 370.000,93.000" stroke-width="3.046" stroke="black" fill="none" stroke-linecap="round"></path><path d="M 370.000,93.000 C 360.367,104.085 361.330,104.239 349.000,113.000" stroke-width="2.230" stroke="black" fill="none" stroke-linecap="round"></path><path d="M 349.000,113.000 C 334.733,124.347 334.867,124.085 319.000,133.000" stroke-width="1.967" stroke="black" fill="none" stroke-linecap="round"></path><path d="M 319.000,133.000 C 304.331,140.372 304.733,140.847 289.000,146.000" stroke-width="1.937" stroke="black" fill="none" stroke-linecap="round"></path><path d="M 289.000,146.000 C 264.738,155.043 264.831,154.872 240.000,162.000" stroke-width="1.470" stroke="black" fill="none" stroke-linecap="round"></path><path d="M 240.000,162.000 C 232.521,163.316 232.738,164.043 225.000,164.000" stroke-width="2.309" stroke="black" fill="none" stroke-linecap="round"></path><path d="M 423.000,203.000 C 432.055,200.684 432.000,200.500 441.000,198.000" stroke-width="4.528" stroke="black" fill="none" stroke-linecap="round"></path><path d="M 441.000,198.000 C 452.029,194.590 452.055,194.684 463.000,191.000" stroke-width="2.780" stroke="black" fill="none" stroke-linecap="round"></path><path d="M 463.000,191.000 C 479.463,185.384 479.529,185.590 496.000,180.000" stroke-width="2.780" stroke="black" fill="none" stroke-linecap="round"></path><path d="M 496.000,180.000 C 501.188,178.925 500.963,178.384 506.000,177.000" stroke-width="3.239" stroke="black" fill="none" stroke-linecap="round"></path><path d="M 506.000,177.000 C 511.000,175.067 508.688,175.925 511.000,174.000" stroke-width="3.811" stroke="black" fill="none" stroke-linecap="round"></path><path d="M 511.000,174.000 C 508.530,172.815 511.000,173.067 506.000,173.000" stroke-width="4.703" stroke="black" fill="none" stroke-linecap="round"></path><path d="M 506.000,173.000 C 488.036,175.471 488.030,174.315 470.000,177.000" stroke-width="3.079" stroke="black" fill="none" stroke-linecap="round"></path><path d="M 470.000,177.000 C 458.501,177.521 458.536,177.971 447.000,178.000" stroke-width="2.624" stroke="black" fill="none" stroke-linecap="round"></path><path d="M 447.000,178.000 C 434.486,178.266 434.501,178.521 422.000,179.000" stroke-width="2.370" stroke="black" fill="none" stroke-linecap="round"></path><path d="M 422.000,179.000 C 408.889,179.134 408.986,179.766 396.000,181.000" stroke-width="2.203" stroke="black" fill="none" stroke-linecap="round"></path><path d="M 396.000,181.000 C 370.813,184.737 370.889,184.634 346.000,190.000" stroke-width="2.239" stroke="black" fill="none" stroke-linecap="round"></path><path d="M 346.000,190.000 C 338.074,192.773 337.813,191.737 330.000,195.000" stroke-width="2.624" stroke="black" fill="none" stroke-linecap="round"></path><path d="M 330.000,195.000 C 323.470,196.383 323.574,196.773 317.000,198.000" stroke-width="2.919" stroke="black" fill="none" stroke-linecap="round"></path></svg>