<svg xmlns="http://www.w3.org/2000/svg" xmlns:xlink="http://www.w3.org/1999/xlink" viewBox="0 0 1460 576" width="1460" height="576"><path d="M 721.000,270.000 C 709.005,272.523 709.000,272.500 697.000,275.000" stroke-width="4.436" stroke="black" fill="none" stroke-linecap="round"></path><path d="M 697.000,275.000 C 677.631,280.292 677.505,279.023 658.000,283.000" stroke-width="2.140" stroke="black" fill="none" stroke-linecap="round"></path><path d="M 658.000,283.000 C 648.431,283.786 648.631,284.292 639.000,283.000" stroke-width="2.477" stroke="black" fill="none" stroke-linecap="round"></path><path d="M 639.000,283.000 C 629.306,283.653 630.431,282.286 622.000,280.000" stroke-width="2.740" stroke="black" fill="none" stroke-linecap="round"></path><path d="M 622.000,280.000 C 615.907,275.813 616.306,277.153 613.000,270.000" stroke-width="3.008" stroke="black" fill="none" stroke-linecap="round"></path><path d="M 613.000,270.000 C 609.173,262.613 609.907,263.813 610.000,256.000" stroke-width="3.095" stroke="black" fill="none" stroke-linecap="round"></path><path d="M 610.000,256.000 C 611.428,249.545 610.673,250.613 616.000,246.000" stroke-width="3.260" stroke="black" fill="none" stroke-linecap="round"></path><path d="M 616.000,246.000 C 653.577,206.467 655.928,215.045 699.000,187.000" stroke-width="1.125" stroke="black" fill="none" stroke-linecap="round"></path><path d="M 699.000,187.000 C 737.950,178.140 734.077,171.967 777.000,177.000" stroke-width="1.125" stroke="black" fill="none" stroke-linecap="round"></path><path d="M 777.000,177.000 C 807.315,177.190 806.450,176.140 836.000,183.000" stroke-width="1.125" stroke="black" fill="none" stroke-linecap="round"></path><path d="M 836.000,183.000 C 846.350,187.390 846.815,185.190 856.000,193.000" stroke-width="1.747" stroke="black" fill="none" stroke-linecap="round"></path><path d="M 856.000,193.000 C 868.100,199.825 867.850,199.890 879.000,208.000" stroke-width="1.962" stroke="black" fill="none" stroke-linecap="round"></path><path d="M 879.000,208.000 C 884.531,210.360 882.100,210.325 884.000,214.000" stroke-width="2.989" stroke="black" fill="none" stroke-linecap="round"></path><path d="M 884.000,214.000 C 885.428,240.022 881.031,234.360 872.000,256.000" stroke-width="2.463" stroke="black" fill="none" stroke-linecap="round"></path><path d="M 872.000,256.000 C 839.154,283.009 845.928,287.022 805.000,308.000" stroke-width="1.153" stroke="black" fill="none" stroke-linecap="round"></path><path d="M 805.000,308.000 C 798.008,313.816 798.154,313.009 790.000,316.000" stroke-width="1.965" stroke="black" fill="none" stroke-linecap="round"></path><path d="M 790.000,316.000 C 776.371,321.114 781.508,318.316 772.000,317.000" stroke-width="2.914" stroke="black" fill="none" stroke-linecap="round"></path><path d="M 772.000,317.000 C 768.605,306.851 767.871,313.114 773.000,300.000" stroke-width="2.841" stroke="black" fill="none" stroke-linecap="round"></path><path d="M 773.000,300.000 C 786.980,278.913 785.605,280.351 806.000,264.000" stroke-width="1.640" stroke="black" fill="none" stroke-linecap="round"></path><path d="M 806.000,264.000 C 831.454,241.552 830.980,244.413 861.000,231.000" stroke-width="1.287" stroke="black" fill="none" stroke-linecap="round"></path><path d="M 861.000,231.000 C 890.011,224.000 887.454,221.552 918.000,224.000" stroke-width="1.243" stroke="black" fill="none" stroke-linecap="round"></path><path d="M 918.000,224.000 C 927.651,225.337 926.511,224.000 934.000,231.000" stroke-width="1.994" stroke="black" fill="none" stroke-linecap="round"></path><path d="M 934.000,231.000 C 951.753,242.159 946.151,241.837 955.000,257.000" stroke-width="2.494" stroke="black" fill="none" stroke-linecap="round"></path><path d="M 955.000,257.000 C 955.301,277.693 958.753,274.159 948.000,295.000" stroke-width="2.009" stroke="black" fill="none" stroke-linecap="round"></path><path d="M 948.000,295.000 C 939.002,308.925 941.801,309.693 928.000,321.000" stroke-width="1.946" stroke="black" fill="none" stroke-linecap="round"></path></svg>