<svg xmlns="http://www.w3.org/2000/svg" xmlns:xlink="http://www.w3.org/1999/xlink" viewBox="0 0 453 236" width="453" height="236"><path d="M 125.500,98.000 C 121.583,94.000 121.500,96.000 117.500,94.000" stroke-width="4.498" stroke="black" fill="none" stroke-linecap="round"></path><path d="M 117.500,94.000 C 112.080,95.306 112.583,94.000 107.500,98.000" stroke-width="4.379" stroke="black" fill="none" stroke-linecap="round"></path><path d="M 107.500,98.000 C 103.648,100.656 103.580,100.306 100.500,104.000" stroke-width="4.247" stroke="black" fill="none" stroke-linecap="round"></path><path d="M 100.500,104.000 C 95.137,109.049 95.648,109.156 91.500,115.000" stroke-width="3.343" stroke="black" fill="none" stroke-linecap="round"></path><path d="M 91.500,115.000 C 87.628,120.315 89.637,118.049 89.500,122.000" stroke-width="4.138" stroke="black" fill="none" stroke-linecap="round"></path><path d="M 89.500,122.000 C 95.481,123.140 92.628,124.815 101.500,124.000" stroke-width="4.118" stroke="black" fill="none" stroke-linecap="round"></path><path d="M 101.500,124.000 C 105.988,124.718 105.981,124.640 110.500,125.000" stroke-width="3.735" stroke="black" fill="none" stroke-linecap="round"></path><path d="M 110.500,125.000 C 114.029,124.711 113.988,125.218 117.500,125.000" stroke-width="3.950" stroke="black" fill="none" stroke-linecap="round"></path><path d="M 117.500,125.000 C 120.367,124.815 120.029,125.211 122.500,126.000" stroke-width="4.207" stroke="black" fill="none" stroke-linecap="round"></path><path d="M 122.500,126.000 C 127.240,127.928 124.867,127.315 126.500,130.000" stroke-width="4.620" stroke="black" fill="none" stroke-linecap="round"></path><path d="M 126.500,130.000 C 122.598,135.751 124.740,134.928 117.500,140.000" stroke-width="4.165" stroke="black" fill="none" stroke-linecap="round"></path><path d="M 117.500,140.000 C 112.889,142.318 113.598,143.251 108.500,145.000" stroke-width="3.616" stroke="black" fill="none" stroke-linecap="round"></path><path d="M 108.500,145.000 C 104.249,148.486 103.889,147.818 99.500,151.000" stroke-width="3.489" stroke="black" fill="none" stroke-linecap="round"></path><path d="M 99.500,151.000 C 95.363,152.217 95.749,152.986 91.500,154.000" stroke-width="3.663" stroke="black" fill="none" stroke-linecap="round"></path><path d="M 91.500,154.000 C 89.099,155.700 88.863,155.217 86.500,157.000" stroke-width="4.016" stroke="black" fill="none" stroke-linecap="round"></path><path d="M 141.500,127.000 C 143.547,131.920 143.000,132.000 144.500,137.000" stroke-width="5.064" stroke="black" fill="none" stroke-linecap="round"></path><path d="M 144.500,137.000 C 144.079,140.052 145.047,139.920 144.500,143.000" stroke-width="4.878" stroke="black" fill="none" stroke-linecap="round"></path><path d="M 144.500,143.000 C 144.294,147.967 145.079,147.052 146.500,151.000" stroke-width="4.060" stroke="black" fill="none" stroke-linecap="round"></path><path d="M 146.500,151.000 C 149.466,154.357 148.294,153.467 152.500,154.000" stroke-width="4.486" stroke="black" fill="none" stroke-linecap="round"></path><path d="M 152.500,154.000 C 158.453,152.154 157.966,153.357 163.500,149.000" stroke-width="4.246" stroke="black" fill="none" stroke-linecap="round"></path><path d="M 163.500,149.000 C 166.000,146.500 166.453,147.154 168.500,144.000" stroke-width="4.051" stroke="black" fill="none" stroke-linecap="round"></path><path d="M 168.500,144.000 C 170.284,141.723 170.500,142.000 172.500,140.000" stroke-width="4.168" stroke="black" fill="none" stroke-linecap="round"></path><path d="M 172.500,140.000 C 176.398,135.715 174.784,138.223 177.500,137.000" stroke-width="4.592" stroke="black" fill="none" stroke-linecap="round"></path><path d="M 177.500,137.000 C 178.261,141.987 179.398,139.215 178.500,147.000" stroke-width="4.645" stroke="black" fill="none" stroke-linecap="round"></path><path d="M 178.500,147.000 C 178.500,152.500 178.761,152.487 178.500,158.000" stroke-width="4.338" stroke="black" fill="none" stroke-linecap="round"></path><path d="M 178.500,158.000 C 176.738,163.770 178.500,162.500 178.500,167.000" stroke-width="4.395" stroke="black" fill="none" stroke-linecap="round"></path><path d="M 231.500,71.000 C 230.689,73.974 231.000,74.000 230.500,77.000" stroke-width="5.139" stroke="black" fill="none" stroke-linecap="round"></path><path d="M 230.500,77.000 C 230.500,82.000 230.189,81.974 230.500,87.000" stroke-width="3.837" stroke="black" fill="none" stroke-linecap="round"></path><path d="M 230.500,87.000 C 230.749,92.511 230.500,92.500 230.500,98.000" stroke-width="3.532" stroke="black" fill="none" stroke-linecap="round"></path><path d="M 230.500,98.000 C 230.528,103.602 230.249,103.511 229.500,109.000" stroke-width="3.445" stroke="black" fill="none" stroke-linecap="round"></path><path d="M 229.500,109.000 C 228.072,114.023 228.528,114.102 226.500,119.000" stroke-width="3.525" stroke="black" fill="none" stroke-linecap="round"></path><path d="M 226.500,119.000 C 225.489,123.739 225.072,123.523 223.500,128.000" stroke-width="3.584" stroke="black" fill="none" stroke-linecap="round"></path><path d="M 223.500,128.000 C 221.104,130.792 221.989,131.239 219.500,134.000" stroke-width="3.832" stroke="black" fill="none" stroke-linecap="round"></path><path d="M 219.500,134.000 C 217.009,138.869 217.104,138.792 215.500,144.000" stroke-width="3.901" stroke="black" fill="none" stroke-linecap="round"></path><path d="M 215.500,144.000 C 215.239,147.551 214.509,147.369 214.500,151.000" stroke-width="4.401" stroke="black" fill="none" stroke-linecap="round"></path><path d="M 214.500,151.000 C 213.570,154.522 213.739,154.551 212.500,158.000" stroke-width="4.544" stroke="black" fill="none" stroke-linecap="round"></path><path d="M 212.500,158.000 C 211.368,160.962 211.570,161.022 210.500,164.000" stroke-width="4.666" stroke="black" fill="none" stroke-linecap="round"></path><path d="M 210.500,164.000 C 209.427,167.984 209.368,167.962 208.500,172.000" stroke-width="4.529" stroke="black" fill="none" stroke-linecap="round"></path><path d="M 208.500,172.000 C 208.353,174.612 207.927,174.484 207.500,177.000" stroke-width="4.386" stroke="black" fill="none" stroke-linecap="round"></path><path d="M 207.500,177.000 C 205.440,181.474 205.853,181.612 203.500,186.000" stroke-width="4.369" stroke="black" fill="none" stroke-linecap="round"></path><path d="M 203.500,186.000 C 202.700,188.599 202.440,188.474 201.500,191.000" stroke-width="4.255" stroke="black" fill="none" stroke-linecap="round"></path><path d="M 201.500,191.000 C 199.801,193.398 200.200,193.599 198.500,196.000" stroke-width="4.162" stroke="black" fill="none" stroke-linecap="round"></path><path d="M 198.500,196.000 C 196.866,199.449 196.801,199.398 195.500,203.000" stroke-width="4.439" stroke="black" fill="none" stroke-linecap="round"></path><path d="M 195.500,203.000 C 193.975,209.237 194.366,205.949 193.500,209.000" stroke-width="4.903" stroke="black" fill="none" stroke-linecap="round"></path><path d="M 193.500,209.000 C 192.669,205.324 192.975,208.737 193.500,202.000" stroke-width="5.102" stroke="black" fill="none" stroke-linecap="round"></path><path d="M 193.500,202.000 C 195.636,197.556 194.669,197.324 197.500,193.000" stroke-width="3.848" stroke="black" fill="none" stroke-linecap="round"></path><path d="M 197.500,193.000 C 199.873,186.448 200.136,186.556 202.500,180.000" stroke-width="3.286" stroke="black" fill="none" stroke-linecap="round"></path><path d="M 202.500,180.000 C 205.100,172.801 205.373,172.948 208.500,166.000" stroke-width="3.056" stroke="black" fill="none" stroke-linecap="round"></path><path d="M 208.500,166.000 C 212.390,158.935 212.100,158.801 216.500,152.000" stroke-width="2.936" stroke="black" fill="none" stroke-linecap="round"></path><path d="M 216.500,152.000 C 220.213,145.305 220.390,145.435 224.500,139.000" stroke-width="2.895" stroke="black" fill="none" stroke-linecap="round"></path><path d="M 224.500,139.000 C 228.655,132.700 228.713,132.805 233.500,127.000" stroke-width="3.065" stroke="black" fill="none" stroke-linecap="round"></path><path d="M 233.500,127.000 C 237.500,123.000 237.155,122.700 241.500,119.000" stroke-width="3.277" stroke="black" fill="none" stroke-linecap="round"></path><path d="M 241.500,119.000 C 245.225,114.664 245.500,115.000 249.500,111.000" stroke-width="3.347" stroke="black" fill="none" stroke-linecap="round"></path><path d="M 249.500,111.000 C 252.245,108.356 252.225,108.664 255.500,107.000" stroke-width="3.747" stroke="black" fill="none" stroke-linecap="round"></path><path d="M 255.500,107.000 C 258.479,106.252 258.245,105.856 261.500,106.000" stroke-width="4.056" stroke="black" fill="none" stroke-linecap="round"></path><path d="M 261.500,106.000 C 265.517,104.458 264.479,105.752 267.500,106.000" stroke-width="4.080" stroke="black" fill="none" stroke-linecap="round"></path><path d="M 267.500,106.000 C 269.918,109.312 270.017,107.958 270.500,113.000" stroke-width="3.888" stroke="black" fill="none" stroke-linecap="round"></path><path d="M 270.500,113.000 C 270.500,119.000 271.418,118.812 270.500,125.000" stroke-width="3.455" stroke="black" fill="none" stroke-linecap="round"></path><path d="M 270.500,125.000 C 271.956,130.903 270.500,130.500 270.500,136.000" stroke-width="3.369" stroke="black" fill="none" stroke-linecap="round"></path><path d="M 270.500,136.000 C 268.190,141.572 268.956,141.403 264.500,146.000" stroke-width="3.346" stroke="black" fill="none" stroke-linecap="round"></path><path d="M 264.500,146.000 C 260.015,150.017 260.690,150.572 255.500,154.000" stroke-width="3.249" stroke="black" fill="none" stroke-linecap="round"></path><path d="M 255.500,154.000 C 252.041,158.477 251.515,157.517 247.500,161.000" stroke-width="3.339" stroke="black" fill="none" stroke-linecap="round"></path><path d="M 247.500,161.000 C 242.555,162.736 243.041,163.477 237.500,164.000" stroke-width="3.384" stroke="black" fill="none" stroke-linecap="round"></path><path d="M 237.500,164.000 C 233.908,166.095 234.555,164.736 231.500,165.000" stroke-width="3.882" stroke="black" fill="none" stroke-linecap="round"></path></svg>