<svg xmlns="http://www.w3.org/2000/svg" xmlns:xlink="http://www.w3.org/1999/xlink" viewBox="0 0 453 236" width="453" height="236"><path d="M 45.500,171.000 C 48.647,169.194 48.500,169.000 51.500,167.000" stroke-width="5.287" stroke="black" fill="none" stroke-linecap="round"></path><path d="M 51.500,167.000 C 54.879,163.845 55.147,164.194 58.500,161.000" stroke-width="4.949" stroke="black" fill="none" stroke-linecap="round"></path><path d="M 58.500,161.000 C 62.182,158.715 61.879,158.345 65.500,156.000" stroke-width="4.598" stroke="black" fill="none" stroke-linecap="round"></path><path d="M 65.500,156.000 C 67.284,153.723 67.682,154.215 69.500,152.000" stroke-width="4.279" stroke="black" fill="none" stroke-linecap="round"></path><path d="M 69.500,152.000 C 72.355,150.906 71.784,150.223 74.500,149.000" stroke-width="4.168" stroke="black" fill="none" stroke-linecap="round"></path><path d="M 74.500,149.000 C 76.668,146.617 76.855,146.906 78.500,144.000" stroke-width="4.061" stroke="black" fill="none" stroke-linecap="round"></path><path d="M 78.500,144.000 C 79.820,141.379 80.168,141.617 81.500,139.000" stroke-width="4.104" stroke="black" fill="none" stroke-linecap="round"></path><path d="M 81.500,139.000 C 86.051,133.038 85.820,132.879 90.500,127.000" stroke-width="3.935" stroke="black" fill="none" stroke-linecap="round"></path><path d="M 90.500,127.000 C 92.957,123.468 93.051,123.538 95.500,120.000" stroke-width="3.793" stroke="black" fill="none" stroke-linecap="round"></path><path d="M 95.500,120.000 C 98.807,116.190 98.457,115.968 101.500,112.000" stroke-width="3.613" stroke="black" fill="none" stroke-linecap="round"></path><path d="M 101.500,112.000 C 102.838,108.909 103.307,109.190 104.500,106.000" stroke-width="3.851" stroke="black" fill="none" stroke-linecap="round"></path><path d="M 104.500,106.000 C 107.074,102.044 106.838,101.909 109.500,98.000" stroke-width="3.627" stroke="black" fill="none" stroke-linecap="round"></path><path d="M 109.500,98.000 C 111.389,94.431 111.574,94.544 113.500,91.000" stroke-width="3.804" stroke="black" fill="none" stroke-linecap="round"></path><path d="M 113.500,91.000 C 115.565,88.041 115.389,87.931 117.500,85.000" stroke-width="3.950" stroke="black" fill="none" stroke-linecap="round"></path><path d="M 117.500,85.000 C 119.358,82.665 119.065,82.541 120.500,80.000" stroke-width="4.069" stroke="black" fill="none" stroke-linecap="round"></path><path d="M 120.500,80.000 C 121.922,75.472 122.358,75.665 123.500,71.000" stroke-width="4.330" stroke="black" fill="none" stroke-linecap="round"></path><path d="M 123.500,71.000 C 125.150,67.050 124.922,66.972 126.500,63.000" stroke-width="4.406" stroke="black" fill="none" stroke-linecap="round"></path><path d="M 126.500,63.000 C 127.952,59.563 127.650,59.550 128.500,56.000" stroke-width="4.578" stroke="black" fill="none" stroke-linecap="round"></path><path d="M 128.500,56.000 C 129.818,52.108 128.952,53.063 128.500,50.000" stroke-width="4.688" stroke="black" fill="none" stroke-linecap="round"></path><path d="M 128.500,50.000 C 125.518,46.991 127.318,48.108 123.500,48.000" stroke-width="5.146" stroke="black" fill="none" stroke-linecap="round"></path><path d="M 123.500,48.000 C 120.103,52.097 119.518,49.991 116.500,56.000" stroke-width="4.488" stroke="black" fill="none" stroke-linecap="round"></path><path d="M 116.500,56.000 C 114.000,58.500 114.103,58.597 111.500,61.000" stroke-width="4.060" stroke="black" fill="none" stroke-linecap="round"></path><path d="M 111.500,61.000 C 109.000,63.500 109.000,63.500 106.500,66.000" stroke-width="3.947" stroke="black" fill="none" stroke-linecap="round"></path><path d="M 106.500,66.000 C 103.728,68.277 104.000,68.500 101.500,71.000" stroke-width="3.965" stroke="black" fill="none" stroke-linecap="round"></path><path d="M 101.500,71.000 C 99.742,74.198 99.228,73.777 97.500,77.000" stroke-width="4.001" stroke="black" fill="none" stroke-linecap="round"></path><path d="M 97.500,77.000 C 95.223,78.784 95.742,79.198 93.500,81.000" stroke-width="4.152" stroke="black" fill="none" stroke-linecap="round"></path><path d="M 93.500,81.000 C 92.000,83.500 91.723,83.284 90.500,86.000" stroke-width="4.219" stroke="black" fill="none" stroke-linecap="round"></path><path d="M 90.500,86.000 C 88.895,88.442 89.000,88.500 87.500,91.000" stroke-width="4.151" stroke="black" fill="none" stroke-linecap="round"></path><path d="M 87.500,91.000 C 86.105,94.058 85.895,93.942 84.500,97.000" stroke-width="4.018" stroke="black" fill="none" stroke-linecap="round"></path><path d="M 84.500,97.000 C 83.000,99.500 83.105,99.558 81.500,102.000" stroke-width="4.091" stroke="black" fill="none" stroke-linecap="round"></path><path d="M 81.500,102.000 C 79.802,104.397 80.000,104.500 78.500,107.000" stroke-width="4.113" stroke="black" fill="none" stroke-linecap="round"></path><path d="M 78.500,107.000 C 76.582,111.539 76.302,111.397 74.500,116.000" stroke-width="4.264" stroke="black" fill="none" stroke-linecap="round"></path><path d="M 74.500,116.000 C 72.787,118.912 73.082,119.039 71.500,122.000" stroke-width="4.049" stroke="black" fill="none" stroke-linecap="round"></path><path d="M 71.500,122.000 C 70.580,125.029 70.287,124.912 69.500,128.000" stroke-width="4.084" stroke="black" fill="none" stroke-linecap="round"></path><path d="M 69.500,128.000 C 68.420,130.471 68.580,130.529 67.500,133.000" stroke-width="4.170" stroke="black" fill="none" stroke-linecap="round"></path><path d="M 67.500,133.000 C 66.801,136.138 66.420,135.971 65.500,139.000" stroke-width="4.165" stroke="black" fill="none" stroke-linecap="round"></path><path d="M 65.500,139.000 C 63.575,141.312 64.301,141.638 62.500,144.000" stroke-width="4.223" stroke="black" fill="none" stroke-linecap="round"></path><path d="M 62.500,144.000 C 60.692,148.932 60.575,148.812 59.500,154.000" stroke-width="4.236" stroke="black" fill="none" stroke-linecap="round"></path><path d="M 59.500,154.000 C 59.352,157.594 58.692,157.432 58.500,161.000" stroke-width="4.522" stroke="black" fill="none" stroke-linecap="round"></path><path d="M 58.500,161.000 C 57.420,163.471 57.852,163.594 56.500,166.000" stroke-width="4.891" stroke="black" fill="none" stroke-linecap="round"></path><path d="M 56.500,166.000 C 54.500,169.029 55.420,168.971 54.500,172.000" stroke-width="5.058" stroke="black" fill="none" stroke-linecap="round"></path><path d="M 54.500,172.000 C 54.608,175.818 54.500,174.529 56.500,177.000" stroke-width="5.281" stroke="black" fill="none" stroke-linecap="round"></path><path d="M 56.500,177.000 C 59.500,177.000 58.608,178.318 62.500,177.000" stroke-width="5.328" stroke="black" fill="none" stroke-linecap="round"></path><path d="M 62.500,177.000 C 65.839,177.967 65.500,177.000 68.500,177.000" stroke-width="5.273" stroke="black" fill="none" stroke-linecap="round"></path><path d="M 68.500,177.000 C 71.111,175.124 71.339,175.967 73.500,173.000" stroke-width="5.170" stroke="black" fill="none" stroke-linecap="round"></path><path d="M 73.500,173.000 C 75.389,170.876 75.611,171.124 77.500,169.000" stroke-width="5.237" stroke="black" fill="none" stroke-linecap="round"></path><path d="M 77.500,169.000 C 80.000,167.000 79.889,166.876 82.500,165.000" stroke-width="5.227" stroke="black" fill="none" stroke-linecap="round"></path><path d="M 82.500,165.000 C 84.883,162.832 85.000,163.000 87.500,161.000" stroke-width="5.162" stroke="black" fill="none" stroke-linecap="round"></path><path d="M 87.500,161.000 C 90.076,159.616 89.883,159.332 92.500,158.000" stroke-width="4.872" stroke="black" fill="none" stroke-linecap="round"></path><path d="M 92.500,158.000 C 96.032,155.543 96.076,155.616 99.500,153.000" stroke-width="4.578" stroke="black" fill="none" stroke-linecap="round"></path><path d="M 99.500,153.000 C 103.598,150.122 103.532,150.043 107.500,147.000" stroke-width="4.392" stroke="black" fill="none" stroke-linecap="round"></path><path d="M 107.500,147.000 C 110.853,143.806 111.098,144.122 114.500,141.000" stroke-width="4.374" stroke="black" fill="none" stroke-linecap="round"></path><path d="M 114.500,141.000 C 117.691,139.247 117.353,138.806 120.500,137.000" stroke-width="4.117" stroke="black" fill="none" stroke-linecap="round"></path><path d="M 120.500,137.000 C 125.435,133.378 125.191,133.247 129.500,129.000" stroke-width="4.120" stroke="black" fill="none" stroke-linecap="round"></path><path d="M 129.500,129.000 C 131.258,125.802 131.935,126.378 133.500,123.000" stroke-width="3.947" stroke="black" fill="none" stroke-linecap="round"></path><path d="M 133.500,123.000 C 135.610,121.100 135.258,120.802 137.500,119.000" stroke-width="4.135" stroke="black" fill="none" stroke-linecap="round"></path><path d="M 137.500,119.000 C 140.159,116.121 140.110,116.100 142.500,113.000" stroke-width="3.934" stroke="black" fill="none" stroke-linecap="round"></path><path d="M 142.500,113.000 C 145.892,107.919 146.159,108.121 149.500,103.000" stroke-width="4.030" stroke="black" fill="none" stroke-linecap="round"></path><path d="M 149.500,103.000 C 151.791,100.686 151.392,100.419 153.500,98.000" stroke-width="4.069" stroke="black" fill="none" stroke-linecap="round"></path><path d="M 153.500,98.000 C 154.895,94.942 155.291,95.186 156.500,92.000" stroke-width="4.044" stroke="black" fill="none" stroke-linecap="round"></path><path d="M 156.500,92.000 C 157.924,89.452 157.895,89.442 159.500,87.000" stroke-width="4.099" stroke="black" fill="none" stroke-linecap="round"></path><path d="M 159.500,87.000 C 162.763,82.653 162.424,82.452 165.500,78.000" stroke-width="4.194" stroke="black" fill="none" stroke-linecap="round"></path><path d="M 165.500,78.000 C 167.500,74.000 167.763,74.153 169.500,70.000" stroke-width="4.353" stroke="black" fill="none" stroke-linecap="round"></path><path d="M 169.500,70.000 C 171.364,67.125 171.000,67.000 172.500,64.000" stroke-width="4.761" stroke="black" fill="none" stroke-linecap="round"></path><path d="M 172.500,64.000 C 174.856,59.775 173.364,61.625 173.500,59.000" stroke-width="4.851" stroke="black" fill="none" stroke-linecap="round"></path><path d="M 173.500,59.000 C 169.123,58.607 171.356,57.775 165.500,60.000" stroke-width="5.045" stroke="black" fill="none" stroke-linecap="round"></path><path d="M 165.500,60.000 C 162.978,61.973 162.623,61.107 160.500,64.000" stroke-width="4.333" stroke="black" fill="none" stroke-linecap="round"></path><path d="M 160.500,64.000 C 157.376,66.364 157.478,66.473 154.500,69.000" stroke-width="3.986" stroke="black" fill="none" stroke-linecap="round"></path><path d="M 154.500,69.000 C 151.364,71.876 151.376,71.864 148.500,75.000" stroke-width="3.871" stroke="black" fill="none" stroke-linecap="round"></path><path d="M 148.500,75.000 C 146.022,78.019 145.864,77.876 143.500,81.000" stroke-width="3.859" stroke="black" fill="none" stroke-linecap="round"></path><path d="M 143.500,81.000 C 140.167,84.266 140.522,84.519 137.500,88.000" stroke-width="3.651" stroke="black" fill="none" stroke-linecap="round"></path><path d="M 137.500,88.000 C 135.883,91.766 135.167,91.266 133.500,95.000" stroke-width="3.765" stroke="black" fill="none" stroke-linecap="round"></path><path d="M 133.500,95.000 C 128.639,101.127 128.883,101.266 123.500,107.000" stroke-width="3.071" stroke="black" fill="none" stroke-linecap="round"></path><path d="M 123.500,107.000 C 121.133,108.714 121.639,109.127 119.500,111.000" stroke-width="3.794" stroke="black" fill="none" stroke-linecap="round"></path><path d="M 119.500,111.000 C 116.290,115.885 116.133,115.714 113.500,121.000" stroke-width="4.041" stroke="black" fill="none" stroke-linecap="round"></path><path d="M 113.500,121.000 C 110.500,127.000 110.290,126.885 107.500,133.000" stroke-width="4.036" stroke="black" fill="none" stroke-linecap="round"></path><path d="M 107.500,133.000 C 106.291,136.186 106.000,136.000 104.500,139.000" stroke-width="3.985" stroke="black" fill="none" stroke-linecap="round"></path><path d="M 104.500,139.000 C 102.478,141.483 102.791,141.686 100.500,144.000" stroke-width="4.055" stroke="black" fill="none" stroke-linecap="round"></path><path d="M 100.500,144.000 C 96.783,148.349 96.978,148.483 93.500,153.000" stroke-width="4.185" stroke="black" fill="none" stroke-linecap="round"></path><path d="M 93.500,153.000 C 90.713,156.850 90.783,156.849 88.500,161.000" stroke-width="4.335" stroke="black" fill="none" stroke-linecap="round"></path><path d="M 88.500,161.000 C 86.964,164.485 86.713,164.350 85.500,168.000" stroke-width="4.514" stroke="black" fill="none" stroke-linecap="round"></path><path d="M 85.500,168.000 C 83.260,173.000 84.464,170.485 83.500,173.000" stroke-width="4.966" stroke="black" fill="none" stroke-linecap="round"></path><path d="M 83.500,173.000 C 84.552,170.125 83.760,173.000 86.500,168.000" stroke-width="5.233" stroke="black" fill="none" stroke-linecap="round"></path><path d="M 86.500,168.000 C 90.443,164.432 90.052,164.125 94.500,161.000" stroke-width="4.531" stroke="black" fill="none" stroke-linecap="round"></path><path d="M 94.500,161.000 C 97.000,159.000 96.943,158.932 99.500,157.000" stroke-width="4.159" stroke="black" fill="none" stroke-linecap="round"></path><path d="M 99.500,157.000 C 102.000,155.000 102.000,155.000 104.500,153.000" stroke-width="4.108" stroke="black" fill="none" stroke-linecap="round"></path><path d="M 104.500,153.000 C 106.784,150.630 107.000,151.000 109.500,149.000" stroke-width="4.092" stroke="black" fill="none" stroke-linecap="round"></path><path d="M 109.500,149.000 C 112.015,148.036 111.784,147.630 114.500,147.000" stroke-width="4.216" stroke="black" fill="none" stroke-linecap="round"></path><path d="M 114.500,147.000 C 117.906,145.198 118.015,145.536 121.500,144.000" stroke-width="4.491" stroke="black" fill="none" stroke-linecap="round"></path><path d="M 121.500,144.000 C 125.446,141.736 123.906,143.198 126.500,143.000" stroke-width="4.903" stroke="black" fill="none" stroke-linecap="round"></path><path d="M 126.500,143.000 C 127.137,146.603 127.946,144.736 126.500,150.000" stroke-width="5.134" stroke="black" fill="none" stroke-linecap="round"></path><path d="M 126.500,150.000 C 125.000,154.500 125.637,154.603 123.500,159.000" stroke-width="4.843" stroke="black" fill="none" stroke-linecap="round"></path><path d="M 123.500,159.000 C 122.330,161.955 122.500,162.000 121.500,165.000" stroke-width="4.756" stroke="black" fill="none" stroke-linecap="round"></path><path d="M 121.500,165.000 C 120.730,167.473 120.830,167.455 120.500,170.000" stroke-width="4.837" stroke="black" fill="none" stroke-linecap="round"></path><path d="M 120.500,170.000 C 118.815,174.315 120.230,172.973 120.500,176.000" stroke-width="5.065" stroke="black" fill="none" stroke-linecap="round"></path><path d="M 120.500,176.000 C 124.448,177.421 122.815,178.315 128.500,178.000" stroke-width="5.194" stroke="black" fill="none" stroke-linecap="round"></path><path d="M 128.500,178.000 C 131.500,178.000 131.448,178.421 134.500,178.000" stroke-width="5.073" stroke="black" fill="none" stroke-linecap="round"></path><path d="M 134.500,178.000 C 138.109,178.565 138.000,178.000 141.500,178.000" stroke-width="5.087" stroke="black" fill="none" stroke-linecap="round"></path><path d="M 141.500,178.000 C 144.099,177.200 144.109,177.565 146.500,176.000" stroke-width="5.262" stroke="black" fill="none" stroke-linecap="round"></path><path d="M 146.500,176.000 C 149.216,174.777 149.099,174.700 151.500,173.000" stroke-width="5.305" stroke="black" fill="none" stroke-linecap="round"></path><path d="M 151.500,173.000 C 153.284,170.723 153.716,171.277 155.500,169.000" stroke-width="5.316" stroke="black" fill="none" stroke-linecap="round"></path><path d="M 155.500,169.000 C 158.216,167.777 157.784,167.223 160.500,166.000" stroke-width="5.315" stroke="black" fill="none" stroke-linecap="round"></path><path d="M 160.500,166.000 C 162.777,164.216 162.716,164.277 164.500,162.000" stroke-width="5.321" stroke="black" fill="none" stroke-linecap="round"></path><path d="M 164.500,162.000 C 166.200,159.599 166.277,159.716 167.500,157.000" stroke-width="5.319" stroke="black" fill="none" stroke-linecap="round"></path><path d="M 167.500,157.000 C 168.730,154.568 168.700,154.599 169.500,152.000" stroke-width="5.324" stroke="black" fill="none" stroke-linecap="round"></path><path d="M 169.500,152.000 C 171.764,148.054 170.230,149.568 170.500,147.000" stroke-width="5.468" stroke="black" fill="none" stroke-linecap="round"></path><path d="M 170.500,147.000 C 166.634,145.955 168.764,145.554 163.500,147.000" stroke-width="5.456" stroke="black" fill="none" stroke-linecap="round"></path><path d="M 163.500,147.000 C 160.889,148.876 160.634,147.955 158.500,151.000" stroke-width="5.127" stroke="black" fill="none" stroke-linecap="round"></path><path d="M 158.500,151.000 C 155.815,152.633 156.389,152.876 154.500,155.000" stroke-width="5.068" stroke="black" fill="none" stroke-linecap="round"></path><path d="M 154.500,155.000 C 154.170,157.545 153.315,157.133 153.500,160.000" stroke-width="5.093" stroke="black" fill="none" stroke-linecap="round"></path><path d="M 153.500,160.000 C 152.013,162.921 152.670,163.045 151.500,166.000" stroke-width="5.111" stroke="black" fill="none" stroke-linecap="round"></path><path d="M 151.500,166.000 C 150.471,169.426 151.013,168.921 151.500,172.000" stroke-width="5.202" stroke="black" fill="none" stroke-linecap="round"></path><path d="M 151.500,172.000 C 153.213,174.399 152.471,174.426 155.500,176.000" stroke-width="5.289" stroke="black" fill="none" stroke-linecap="round"></path><path d="M 155.500,176.000 C 158.333,178.208 158.213,177.899 161.500,179.000" stroke-width="5.233" stroke="black" fill="none" stroke-linecap="round"></path><path d="M 161.500,179.000 C 164.500,179.000 164.333,179.708 167.500,179.000" stroke-width="5.282" stroke="black" fill="none" stroke-linecap="round"></path><path d="M 167.500,179.000 C 170.500,179.000 170.500,179.000 173.500,179.000" stroke-width="5.385" stroke="black" fill="none" stroke-linecap="round"></path><path d="M 173.500,179.000 C 176.926,180.029 176.500,179.000 179.500,179.000" stroke-width="5.466" stroke="black" fill="none" stroke-linecap="round"></path><path d="M 224.500,175.000 C 227.558,176.245 227.500,175.500 230.500,176.000" stroke-width="5.437" stroke="black" fill="none" stroke-linecap="round"></path><path d="M 230.500,176.000 C 233.551,175.134 233.558,175.745 236.500,174.000" stroke-width="5.101" stroke="black" fill="none" stroke-linecap="round"></path><path d="M 236.500,174.000 C 240.240,172.901 240.051,172.634 243.500,171.000" stroke-width="4.184" stroke="black" fill="none" stroke-linecap="round"></path><path d="M 243.500,171.000 C 245.814,168.709 246.240,169.401 248.500,167.000" stroke-width="4.539" stroke="black" fill="none" stroke-linecap="round"></path><path d="M 248.500,167.000 C 251.608,165.687 251.314,165.209 254.500,164.000" stroke-width="4.633" stroke="black" fill="none" stroke-linecap="round"></path><path d="M 254.500,164.000 C 257.744,162.297 257.608,162.187 260.500,160.000" stroke-width="4.639" stroke="black" fill="none" stroke-linecap="round"></path><path d="M 260.500,160.000 C 263.385,156.876 263.744,157.297 266.500,154.000" stroke-width="4.560" stroke="black" fill="none" stroke-linecap="round"></path><path d="M 266.500,154.000 C 270.091,151.099 269.885,150.876 273.500,148.000" stroke-width="4.423" stroke="black" fill="none" stroke-linecap="round"></path><path d="M 273.500,148.000 C 275.416,145.910 275.591,146.099 277.500,144.000" stroke-width="4.232" stroke="black" fill="none" stroke-linecap="round"></path><path d="M 277.500,144.000 C 281.907,140.869 281.416,140.410 285.500,137.000" stroke-width="4.248" stroke="black" fill="none" stroke-linecap="round"></path><path d="M 285.500,137.000 C 288.000,133.500 288.407,133.869 290.500,130.000" stroke-width="4.414" stroke="black" fill="none" stroke-linecap="round"></path><path d="M 290.500,130.000 C 293.604,126.791 293.000,126.500 295.500,123.000" stroke-width="4.466" stroke="black" fill="none" stroke-linecap="round"></path><path d="M 295.500,123.000 C 296.618,119.529 297.104,119.791 297.500,116.000" stroke-width="4.528" stroke="black" fill="none" stroke-linecap="round"></path><path d="M 297.500,116.000 C 298.044,113.508 298.118,113.529 298.500,111.000" stroke-width="4.776" stroke="black" fill="none" stroke-linecap="round"></path><path d="M 298.500,111.000 C 299.248,108.021 299.044,108.008 299.500,105.000" stroke-width="4.933" stroke="black" fill="none" stroke-linecap="round"></path><path d="M 299.500,105.000 C 299.770,101.973 299.748,102.021 299.500,99.000" stroke-width="4.980" stroke="black" fill="none" stroke-linecap="round"></path><path d="M 299.500,99.000 C 299.830,95.995 299.270,96.473 298.500,94.000" stroke-width="5.085" stroke="black" fill="none" stroke-linecap="round"></path><path d="M 298.500,94.000 C 296.267,91.509 296.830,91.495 293.500,90.000" stroke-width="5.183" stroke="black" fill="none" stroke-linecap="round"></path><path d="M 293.500,90.000 C 290.579,88.513 290.767,88.509 287.500,88.000" stroke-width="5.204" stroke="black" fill="none" stroke-linecap="round"></path><path d="M 287.500,88.000 C 284.500,88.000 284.579,87.513 281.500,88.000" stroke-width="5.184" stroke="black" fill="none" stroke-linecap="round"></path><path d="M 281.500,88.000 C 277.943,87.541 278.000,88.000 274.500,88.000" stroke-width="5.115" stroke="black" fill="none" stroke-linecap="round"></path><path d="M 274.500,88.000 C 270.292,88.483 270.443,88.541 266.500,90.000" stroke-width="4.921" stroke="black" fill="none" stroke-linecap="round"></path><path d="M 266.500,90.000 C 262.802,91.714 262.792,91.483 259.500,94.000" stroke-width="4.634" stroke="black" fill="none" stroke-linecap="round"></path><path d="M 259.500,94.000 C 256.376,96.364 256.302,96.214 253.500,99.000" stroke-width="4.574" stroke="black" fill="none" stroke-linecap="round"></path><path d="M 253.500,99.000 C 250.624,102.136 250.376,101.864 247.500,105.000" stroke-width="4.504" stroke="black" fill="none" stroke-linecap="round"></path><path d="M 247.500,105.000 C 244.100,107.140 244.624,107.636 241.500,110.000" stroke-width="4.516" stroke="black" fill="none" stroke-linecap="round"></path><path d="M 241.500,110.000 C 239.742,113.198 239.100,112.640 237.500,116.000" stroke-width="4.586" stroke="black" fill="none" stroke-linecap="round"></path><path d="M 237.500,116.000 C 235.037,117.695 235.742,118.198 233.500,120.000" stroke-width="4.720" stroke="black" fill="none" stroke-linecap="round"></path><path d="M 233.500,120.000 C 232.270,122.432 232.037,122.195 231.500,125.000" stroke-width="4.814" stroke="black" fill="none" stroke-linecap="round"></path><path d="M 231.500,125.000 C 230.956,127.492 230.770,127.432 230.500,130.000" stroke-width="4.881" stroke="black" fill="none" stroke-linecap="round"></path><path d="M 230.500,130.000 C 230.000,133.000 229.956,132.992 229.500,136.000" stroke-width="4.772" stroke="black" fill="none" stroke-linecap="round"></path><path d="M 229.500,136.000 C 228.732,138.978 229.000,139.000 228.500,142.000" stroke-width="4.756" stroke="black" fill="none" stroke-linecap="round"></path><path d="M 228.500,142.000 C 228.251,145.518 228.232,145.478 228.500,149.000" stroke-width="4.879" stroke="black" fill="none" stroke-linecap="round"></path><path d="M 228.500,149.000 C 228.404,152.712 228.751,152.518 229.500,156.000" stroke-width="4.930" stroke="black" fill="none" stroke-linecap="round"></path><path d="M 229.500,156.000 C 230.500,159.000 230.404,158.712 232.500,161.000" stroke-width="5.012" stroke="black" fill="none" stroke-linecap="round"></path><path d="M 232.500,161.000 C 234.833,162.933 234.500,163.000 237.500,164.000" stroke-width="5.022" stroke="black" fill="none" stroke-linecap="round"></path><path d="M 237.500,164.000 C 239.970,164.805 239.833,164.933 242.500,165.000" stroke-width="5.080" stroke="black" fill="none" stroke-linecap="round"></path><path d="M 242.500,165.000 C 246.519,165.265 246.470,165.305 250.500,165.000" stroke-width="4.925" stroke="black" fill="none" stroke-linecap="round"></path><path d="M 250.500,165.000 C 254.212,165.096 254.019,164.765 257.500,164.000" stroke-width="5.028" stroke="black" fill="none" stroke-linecap="round"></path><path d="M 257.500,164.000 C 260.000,162.500 260.212,163.096 262.500,161.000" stroke-width="5.121" stroke="black" fill="none" stroke-linecap="round"></path><path d="M 262.500,161.000 C 265.355,159.906 265.000,159.500 267.500,158.000" stroke-width="5.154" stroke="black" fill="none" stroke-linecap="round"></path><path d="M 267.500,158.000 C 269.668,155.617 269.855,155.906 271.500,153.000" stroke-width="5.135" stroke="black" fill="none" stroke-linecap="round"></path><path d="M 271.500,153.000 C 272.723,150.284 273.168,150.617 274.500,148.000" stroke-width="5.372" stroke="black" fill="none" stroke-linecap="round"></path><path d="M 274.500,148.000 C 276.500,146.000 276.223,145.784 278.500,144.000" stroke-width="5.528" stroke="black" fill="none" stroke-linecap="round"></path><path d="M 278.500,144.000 C 280.500,142.000 280.500,142.000 282.500,140.000" stroke-width="5.555" stroke="black" fill="none" stroke-linecap="round"></path><path d="M 282.500,140.000 C 284.624,138.111 284.500,138.000 286.500,136.000" stroke-width="5.353" stroke="black" fill="none" stroke-linecap="round"></path><path d="M 286.500,136.000 C 288.870,133.716 288.624,133.611 290.500,131.000" stroke-width="5.091" stroke="black" fill="none" stroke-linecap="round"></path><path d="M 290.500,131.000 C 291.796,128.583 291.870,128.716 292.500,126.000" stroke-width="4.910" stroke="black" fill="none" stroke-linecap="round"></path><path d="M 292.500,126.000 C 293.000,123.000 293.296,123.083 293.500,120.000" stroke-width="4.812" stroke="black" fill="none" stroke-linecap="round"></path><path d="M 293.500,120.000 C 294.248,117.021 294.000,117.000 294.500,114.000" stroke-width="4.798" stroke="black" fill="none" stroke-linecap="round"></path><path d="M 294.500,114.000 C 294.500,111.000 294.748,111.021 294.500,108.000" stroke-width="4.755" stroke="black" fill="none" stroke-linecap="round"></path><path d="M 294.500,108.000 C 294.952,104.937 294.500,105.000 294.500,102.000" stroke-width="4.773" stroke="black" fill="none" stroke-linecap="round"></path><path d="M 294.500,102.000 C 294.189,98.136 293.952,98.437 292.500,95.000" stroke-width="4.674" stroke="black" fill="none" stroke-linecap="round"></path><path d="M 292.500,95.000 C 290.790,90.645 290.689,91.636 287.500,89.000" stroke-width="4.566" stroke="black" fill="none" stroke-linecap="round"></path><path d="M 287.500,89.000 C 281.667,86.392 282.790,86.645 276.500,87.000" stroke-width="4.755" stroke="black" fill="none" stroke-linecap="round"></path><path d="M 276.500,87.000 C 273.148,88.616 273.167,87.392 270.500,91.000" stroke-width="4.691" stroke="black" fill="none" stroke-linecap="round"></path><path d="M 270.500,91.000 C 267.892,93.217 268.148,93.116 266.500,96.000" stroke-width="4.705" stroke="black" fill="none" stroke-linecap="round"></path><path d="M 266.500,96.000 C 264.613,99.005 265.392,98.217 265.500,101.000" stroke-width="5.059" stroke="black" fill="none" stroke-linecap="round"></path><path d="M 265.500,101.000 C 267.883,103.168 266.613,103.505 270.500,105.000" stroke-width="5.102" stroke="black" fill="none" stroke-linecap="round"></path><path d="M 270.500,105.000 C 273.000,106.500 272.883,106.668 275.500,108.000" stroke-width="5.049" stroke="black" fill="none" stroke-linecap="round"></path><path d="M 275.500,108.000 C 277.808,110.021 278.000,109.500 280.500,111.000" stroke-width="5.141" stroke="black" fill="none" stroke-linecap="round"></path><path d="M 280.500,111.000 C 283.692,112.511 283.308,112.021 286.500,112.000" stroke-width="5.251" stroke="black" fill="none" stroke-linecap="round"></path><path d="M 286.500,112.000 C 289.900,111.134 289.192,111.511 291.500,109.000" stroke-width="5.296" stroke="black" fill="none" stroke-linecap="round"></path><path d="M 291.500,109.000 C 293.580,105.727 292.900,107.134 292.500,104.000" stroke-width="5.335" stroke="black" fill="none" stroke-linecap="round"></path><path d="M 292.500,104.000 C 289.667,101.792 291.080,101.727 286.500,101.000" stroke-width="5.178" stroke="black" fill="none" stroke-linecap="round"></path><path d="M 286.500,101.000 C 283.500,101.000 283.667,100.292 280.500,101.000" stroke-width="4.894" stroke="black" fill="none" stroke-linecap="round"></path><path d="M 280.500,101.000 C 277.000,101.000 277.000,101.000 273.500,101.000" stroke-width="4.695" stroke="black" fill="none" stroke-linecap="round"></path><path d="M 273.500,101.000 C 270.500,101.000 270.500,101.000 267.500,101.000" stroke-width="4.769" stroke="black" fill="none" stroke-linecap="round"></path><path d="M 267.500,101.000 C 263.971,100.711 264.000,101.000 260.500,101.000" stroke-width="4.884" stroke="black" fill="none" stroke-linecap="round"></path><path d="M 260.500,101.000 C 257.633,100.815 257.971,101.211 255.500,102.000" stroke-width="5.030" stroke="black" fill="none" stroke-linecap="round"></path><path d="M 255.500,102.000 C 253.500,104.000 253.133,103.315 251.500,106.000" stroke-width="5.312" stroke="black" fill="none" stroke-linecap="round"></path><path d="M 251.500,106.000 C 249.390,107.900 249.500,108.000 247.500,110.000" stroke-width="5.113" stroke="black" fill="none" stroke-linecap="round"></path><path d="M 247.500,110.000 C 244.840,112.880 244.890,112.900 242.500,116.000" stroke-width="4.917" stroke="black" fill="none" stroke-linecap="round"></path><path d="M 242.500,116.000 C 240.435,118.959 240.340,118.880 238.500,122.000" stroke-width="4.941" stroke="black" fill="none" stroke-linecap="round"></path><path d="M 238.500,122.000 C 236.895,124.442 236.935,124.459 235.500,127.000" stroke-width="4.811" stroke="black" fill="none" stroke-linecap="round"></path><path d="M 235.500,127.000 C 233.636,129.875 233.895,129.942 232.500,133.000" stroke-width="4.944" stroke="black" fill="none" stroke-linecap="round"></path><path d="M 232.500,133.000 C 231.730,135.473 231.636,135.375 231.500,138.000" stroke-width="5.143" stroke="black" fill="none" stroke-linecap="round"></path><path d="M 231.500,138.000 C 231.500,141.000 231.230,140.973 231.500,144.000" stroke-width="5.065" stroke="black" fill="none" stroke-linecap="round"></path><path d="M 231.500,144.000 C 231.500,147.000 231.500,147.000 231.500,150.000" stroke-width="5.035" stroke="black" fill="none" stroke-linecap="round"></path><path d="M 231.500,150.000 C 231.500,153.000 231.500,153.000 231.500,156.000" stroke-width="5.041" stroke="black" fill="none" stroke-linecap="round"></path><path d="M 231.500,156.000 C 231.230,159.027 231.500,159.000 231.500,162.000" stroke-width="5.020" stroke="black" fill="none" stroke-linecap="round"></path><path d="M 231.500,162.000 C 231.567,164.667 231.730,164.527 232.500,167.000" stroke-width="5.085" stroke="black" fill="none" stroke-linecap="round"></path><path d="M 232.500,167.000 C 233.421,170.180 233.567,169.667 235.500,172.000" stroke-width="5.231" stroke="black" fill="none" stroke-linecap="round"></path><path d="M 235.500,172.000 C 237.932,173.230 237.421,173.680 240.500,174.000" stroke-width="5.350" stroke="black" fill="none" stroke-linecap="round"></path><path d="M 240.500,174.000 C 242.973,174.770 242.932,174.730 245.500,175.000" stroke-width="5.425" stroke="black" fill="none" stroke-linecap="round"></path><path d="M 245.500,175.000 C 248.500,175.000 248.473,175.270 251.500,175.000" stroke-width="5.473" stroke="black" fill="none" stroke-linecap="round"></path><path d="M 251.500,175.000 C 254.500,175.000 254.500,175.000 257.500,175.000" stroke-width="5.513" stroke="black" fill="none" stroke-linecap="round"></path><path d="M 257.500,175.000 C 261.085,175.525 261.000,175.000 264.500,175.000" stroke-width="5.281" stroke="black" fill="none" stroke-linecap="round"></path><path d="M 264.500,175.000 C 267.551,174.134 267.585,174.525 270.500,173.000" stroke-width="5.076" stroke="black" fill="none" stroke-linecap="round"></path><path d="M 270.500,173.000 C 274.000,171.500 274.051,171.634 277.500,170.000" stroke-width="4.730" stroke="black" fill="none" stroke-linecap="round"></path><path d="M 277.500,170.000 C 281.195,168.859 281.000,168.500 284.500,167.000" stroke-width="4.598" stroke="black" fill="none" stroke-linecap="round"></path><path d="M 284.500,167.000 C 289.145,164.194 289.195,164.359 293.500,161.000" stroke-width="4.339" stroke="black" fill="none" stroke-linecap="round"></path><path d="M 293.500,161.000 C 296.613,158.624 296.645,158.694 299.500,156.000" stroke-width="3.988" stroke="black" fill="none" stroke-linecap="round"></path><path d="M 299.500,156.000 C 301.887,153.376 302.113,153.624 304.500,151.000" stroke-width="3.977" stroke="black" fill="none" stroke-linecap="round"></path><path d="M 304.500,151.000 C 307.500,148.500 307.387,148.376 310.500,146.000" stroke-width="3.837" stroke="black" fill="none" stroke-linecap="round"></path><path d="M 310.500,146.000 C 313.613,143.624 313.500,143.500 316.500,141.000" stroke-width="3.940" stroke="black" fill="none" stroke-linecap="round"></path><path d="M 316.500,141.000 C 319.124,138.613 319.113,138.624 321.500,136.000" stroke-width="3.913" stroke="black" fill="none" stroke-linecap="round"></path><path d="M 321.500,136.000 C 323.890,132.900 324.124,133.113 326.500,130.000" stroke-width="3.964" stroke="black" fill="none" stroke-linecap="round"></path><path d="M 326.500,130.000 C 328.610,128.100 328.390,127.900 330.500,126.000" stroke-width="4.140" stroke="black" fill="none" stroke-linecap="round"></path><path d="M 330.500,126.000 C 333.210,123.149 333.110,123.100 335.500,120.000" stroke-width="3.936" stroke="black" fill="none" stroke-linecap="round"></path><path d="M 335.500,120.000 C 337.119,117.565 337.210,117.649 338.500,115.000" stroke-width="4.065" stroke="black" fill="none" stroke-linecap="round"></path><path d="M 338.500,115.000 C 341.012,111.166 340.619,111.065 342.500,107.000" stroke-width="4.329" stroke="black" fill="none" stroke-linecap="round"></path><path d="M 342.500,107.000 C 344.986,102.698 343.512,104.166 343.500,101.000" stroke-width="4.630" stroke="black" fill="none" stroke-linecap="round"></path><path d="M 343.500,101.000 C 339.116,98.096 341.486,98.698 335.500,99.000" stroke-width="5.095" stroke="black" fill="none" stroke-linecap="round"></path><path d="M 335.500,99.000 C 331.606,102.157 331.116,100.096 327.500,105.000" stroke-width="4.547" stroke="black" fill="none" stroke-linecap="round"></path><path d="M 327.500,105.000 C 324.952,106.424 325.106,106.657 322.500,108.000" stroke-width="4.290" stroke="black" fill="none" stroke-linecap="round"></path><path d="M 322.500,108.000 C 317.535,110.470 317.952,110.924 313.500,114.000" stroke-width="4.252" stroke="black" fill="none" stroke-linecap="round"></path><path d="M 313.500,114.000 C 309.722,117.787 309.535,117.470 306.500,122.000" stroke-width="4.254" stroke="black" fill="none" stroke-linecap="round"></path><path d="M 306.500,122.000 C 303.641,126.603 303.222,126.287 300.500,131.000" stroke-width="4.242" stroke="black" fill="none" stroke-linecap="round"></path><path d="M 300.500,131.000 C 298.332,133.383 298.641,133.603 296.500,136.000" stroke-width="4.082" stroke="black" fill="none" stroke-linecap="round"></path><path d="M 296.500,136.000 C 294.895,138.442 294.832,138.383 293.500,141.000" stroke-width="4.156" stroke="black" fill="none" stroke-linecap="round"></path><path d="M 293.500,141.000 C 292.105,144.058 291.895,143.942 290.500,147.000" stroke-width="4.019" stroke="black" fill="none" stroke-linecap="round"></path><path d="M 290.500,147.000 C 288.881,149.435 289.105,149.558 287.500,152.000" stroke-width="4.177" stroke="black" fill="none" stroke-linecap="round"></path><path d="M 287.500,152.000 C 285.604,156.056 285.381,155.935 283.500,160.000" stroke-width="4.328" stroke="black" fill="none" stroke-linecap="round"></path><path d="M 283.500,160.000 C 281.031,163.325 281.604,163.556 279.500,167.000" stroke-width="4.461" stroke="black" fill="none" stroke-linecap="round"></path><path d="M 279.500,167.000 C 279.000,169.500 278.531,169.325 278.500,172.000" stroke-width="4.728" stroke="black" fill="none" stroke-linecap="round"></path><path d="M 278.500,172.000 C 276.500,175.500 278.000,174.500 277.500,177.000" stroke-width="5.123" stroke="black" fill="none" stroke-linecap="round"></path><path d="M 277.500,177.000 C 279.973,177.770 278.500,178.500 282.500,178.000" stroke-width="5.184" stroke="black" fill="none" stroke-linecap="round"></path><path d="M 282.500,178.000 C 285.500,178.000 285.473,178.270 288.500,178.000" stroke-width="5.178" stroke="black" fill="none" stroke-linecap="round"></path><path d="M 288.500,178.000 C 292.018,178.249 292.000,178.000 295.500,178.000" stroke-width="5.113" stroke="black" fill="none" stroke-linecap="round"></path><path d="M 295.500,178.000 C 299.094,177.852 299.018,177.749 302.500,177.000" stroke-width="5.090" stroke="black" fill="none" stroke-linecap="round"></path><path d="M 302.500,177.000 C 305.216,176.370 305.094,176.352 307.500,175.000" stroke-width="5.075" stroke="black" fill="none" stroke-linecap="round"></path><path d="M 307.500,175.000 C 310.111,173.124 310.216,173.370 312.500,171.000" stroke-width="5.013" stroke="black" fill="none" stroke-linecap="round"></path><path d="M 312.500,171.000 C 314.284,168.723 314.611,169.124 316.500,167.000" stroke-width="5.034" stroke="black" fill="none" stroke-linecap="round"></path><path d="M 316.500,167.000 C 319.216,165.777 318.784,165.223 321.500,164.000" stroke-width="5.193" stroke="black" fill="none" stroke-linecap="round"></path><path d="M 321.500,164.000 C 323.500,162.000 323.716,162.277 325.500,160.000" stroke-width="5.350" stroke="black" fill="none" stroke-linecap="round"></path><path d="M 325.500,160.000 C 329.982,157.205 327.500,158.000 329.500,156.000" stroke-width="5.488" stroke="black" fill="none" stroke-linecap="round"></path><path d="M 329.500,156.000 C 326.522,155.232 328.982,154.705 323.500,155.000" stroke-width="5.457" stroke="black" fill="none" stroke-linecap="round"></path><path d="M 323.500,155.000 C 320.000,155.000 320.022,154.732 316.500,155.000" stroke-width="5.192" stroke="black" fill="none" stroke-linecap="round"></path><path d="M 316.500,155.000 C 313.074,153.971 313.500,155.000 310.500,155.000" stroke-width="5.232" stroke="black" fill="none" stroke-linecap="round"></path><path d="M 310.500,155.000 C 308.037,156.695 308.074,155.971 306.500,159.000" stroke-width="5.201" stroke="black" fill="none" stroke-linecap="round"></path><path d="M 306.500,159.000 C 304.973,161.399 305.037,161.195 304.500,164.000" stroke-width="5.268" stroke="black" fill="none" stroke-linecap="round"></path><path d="M 304.500,164.000 C 303.149,168.108 303.973,166.899 304.500,170.000" stroke-width="5.319" stroke="black" fill="none" stroke-linecap="round"></path><path d="M 304.500,170.000 C 307.068,171.243 305.649,171.608 309.500,171.000" stroke-width="5.387" stroke="black" fill="none" stroke-linecap="round"></path><path d="M 309.500,171.000 C 312.000,170.000 312.068,170.743 314.500,169.000" stroke-width="5.004" stroke="black" fill="none" stroke-linecap="round"></path><path d="M 314.500,169.000 C 317.097,168.201 317.000,168.000 319.500,167.000" stroke-width="4.870" stroke="black" fill="none" stroke-linecap="round"></path><path d="M 319.500,167.000 C 323.113,165.177 323.097,165.201 326.500,163.000" stroke-width="4.879" stroke="black" fill="none" stroke-linecap="round"></path><path d="M 326.500,163.000 C 330.245,160.790 330.113,160.677 333.500,158.000" stroke-width="4.802" stroke="black" fill="none" stroke-linecap="round"></path><path d="M 333.500,158.000 C 336.857,154.340 337.245,154.790 340.500,151.000" stroke-width="4.481" stroke="black" fill="none" stroke-linecap="round"></path><path d="M 340.500,151.000 C 343.070,149.083 342.857,148.840 345.500,147.000" stroke-width="4.197" stroke="black" fill="none" stroke-linecap="round"></path><path d="M 345.500,147.000 C 350.078,143.082 350.070,143.083 354.500,139.000" stroke-width="4.119" stroke="black" fill="none" stroke-linecap="round"></path><path d="M 354.500,139.000 C 356.389,136.876 356.578,137.082 358.500,135.000" stroke-width="4.145" stroke="black" fill="none" stroke-linecap="round"></path><path d="M 358.500,135.000 C 361.250,133.250 360.889,132.876 363.500,131.000" stroke-width="4.103" stroke="black" fill="none" stroke-linecap="round"></path><path d="M 363.500,131.000 C 365.376,128.389 365.750,128.750 367.500,126.000" stroke-width="4.043" stroke="black" fill="none" stroke-linecap="round"></path><path d="M 367.500,126.000 C 369.624,124.111 369.376,123.889 371.500,122.000" stroke-width="4.121" stroke="black" fill="none" stroke-linecap="round"></path><path d="M 371.500,122.000 C 373.548,119.537 373.624,119.611 375.500,117.000" stroke-width="4.141" stroke="black" fill="none" stroke-linecap="round"></path><path d="M 375.500,117.000 C 378.657,113.106 378.548,113.037 381.500,109.000" stroke-width="4.262" stroke="black" fill="none" stroke-linecap="round"></path><path d="M 381.500,109.000 C 383.119,106.565 383.157,106.606 384.500,104.000" stroke-width="4.210" stroke="black" fill="none" stroke-linecap="round"></path><path d="M 384.500,104.000 C 386.381,99.935 386.619,100.065 388.500,96.000" stroke-width="4.359" stroke="black" fill="none" stroke-linecap="round"></path><path d="M 388.500,96.000 C 392.857,90.260 389.881,93.435 391.500,91.000" stroke-width="4.631" stroke="black" fill="none" stroke-linecap="round"></path><path d="M 391.500,91.000 C 384.388,96.365 387.357,93.260 377.500,102.000" stroke-width="4.996" stroke="black" fill="none" stroke-linecap="round"></path><path d="M 377.500,102.000 C 373.383,105.375 373.388,105.365 369.500,109.000" stroke-width="3.743" stroke="black" fill="none" stroke-linecap="round"></path><path d="M 369.500,109.000 C 366.000,112.500 365.883,112.375 362.500,116.000" stroke-width="3.609" stroke="black" fill="none" stroke-linecap="round"></path><path d="M 362.500,116.000 C 359.000,119.500 359.000,119.500 355.500,123.000" stroke-width="3.514" stroke="black" fill="none" stroke-linecap="round"></path><path d="M 355.500,123.000 C 352.364,125.876 352.500,126.000 349.500,129.000" stroke-width="3.725" stroke="black" fill="none" stroke-linecap="round"></path><path d="M 349.500,129.000 C 346.973,131.978 346.864,131.876 344.500,135.000" stroke-width="3.763" stroke="black" fill="none" stroke-linecap="round"></path><path d="M 344.500,135.000 C 342.638,137.624 342.473,137.478 340.500,140.000" stroke-width="4.130" stroke="black" fill="none" stroke-linecap="round"></path><path d="M 340.500,140.000 C 337.692,142.260 338.138,142.624 335.500,145.000" stroke-width="4.019" stroke="black" fill="none" stroke-linecap="round"></path><path d="M 335.500,145.000 C 334.028,147.517 333.692,147.260 332.500,150.000" stroke-width="4.091" stroke="black" fill="none" stroke-linecap="round"></path><path d="M 332.500,150.000 C 329.713,153.850 330.028,154.017 327.500,158.000" stroke-width="4.265" stroke="black" fill="none" stroke-linecap="round"></path><path d="M 327.500,158.000 C 325.866,161.449 325.713,161.350 324.500,165.000" stroke-width="4.491" stroke="black" fill="none" stroke-linecap="round"></path><path d="M 324.500,165.000 C 323.580,168.029 323.366,167.949 322.500,171.000" stroke-width="4.831" stroke="black" fill="none" stroke-linecap="round"></path><path d="M 322.500,171.000 C 320.757,173.432 321.580,173.529 320.500,176.000" stroke-width="4.995" stroke="black" fill="none" stroke-linecap="round"></path><path d="M 320.500,176.000 C 320.000,179.500 320.257,178.432 321.500,181.000" stroke-width="5.260" stroke="black" fill="none" stroke-linecap="round"></path><path d="M 321.500,181.000 C 323.971,181.789 323.000,182.500 326.500,182.000" stroke-width="5.150" stroke="black" fill="none" stroke-linecap="round"></path><path d="M 326.500,182.000 C 330.000,182.000 329.971,182.289 333.500,182.000" stroke-width="5.105" stroke="black" fill="none" stroke-linecap="round"></path><path d="M 333.500,182.000 C 336.500,182.000 336.500,182.000 339.500,182.000" stroke-width="5.061" stroke="black" fill="none" stroke-linecap="round"></path><path d="M 339.500,182.000 C 342.601,182.527 342.500,182.000 345.500,182.000" stroke-width="5.281" stroke="black" fill="none" stroke-linecap="round"></path><path d="M 345.500,182.000 C 347.932,180.770 348.101,181.527 350.500,180.000" stroke-width="5.347" stroke="black" fill="none" stroke-linecap="round"></path><path d="M 350.500,180.000 C 353.167,179.933 352.932,179.270 355.500,179.000" stroke-width="5.486" stroke="black" fill="none" stroke-linecap="round"></path><path d="M 355.500,179.000 C 358.000,177.500 358.167,177.933 360.500,176.000" stroke-width="5.479" stroke="black" fill="none" stroke-linecap="round"></path><path d="M 360.500,176.000 C 363.355,174.906 363.000,174.500 365.500,173.000" stroke-width="5.397" stroke="black" fill="none" stroke-linecap="round"></path><path d="M 365.500,173.000 C 367.250,170.250 367.855,170.906 369.500,168.000" stroke-width="5.270" stroke="black" fill="none" stroke-linecap="round"></path><path d="M 221.500,183.000 C 219.027,183.770 219.000,183.500 216.500,184.000" stroke-width="5.352" stroke="black" fill="none" stroke-linecap="round"></path><path d="M 216.500,184.000 C 213.399,183.473 213.527,184.270 210.500,184.000" stroke-width="4.955" stroke="black" fill="none" stroke-linecap="round"></path><path d="M 210.500,184.000 C 207.695,184.537 207.899,184.473 205.500,186.000" stroke-width="4.871" stroke="black" fill="none" stroke-linecap="round"></path><path d="M 205.500,186.000 C 203.258,187.802 203.195,187.537 201.500,190.000" stroke-width="4.837" stroke="black" fill="none" stroke-linecap="round"></path><path d="M 201.500,190.000 C 198.379,192.778 199.258,192.802 197.500,196.000" stroke-width="4.892" stroke="black" fill="none" stroke-linecap="round"></path><path d="M 197.500,196.000 C 197.000,199.500 196.879,198.278 198.500,201.000" stroke-width="5.084" stroke="black" fill="none" stroke-linecap="round"></path><path d="M 198.500,201.000 C 200.986,202.000 200.000,202.500 203.500,202.000" stroke-width="4.973" stroke="black" fill="none" stroke-linecap="round"></path><path d="M 203.500,202.000 C 207.287,202.285 206.986,202.000 210.500,201.000" stroke-width="4.691" stroke="black" fill="none" stroke-linecap="round"></path><path d="M 210.500,201.000 C 214.577,198.615 214.787,199.285 218.500,196.000" stroke-width="4.443" stroke="black" fill="none" stroke-linecap="round"></path><path d="M 218.500,196.000 C 222.093,193.621 222.077,193.615 225.500,191.000" stroke-width="4.456" stroke="black" fill="none" stroke-linecap="round"></path><path d="M 225.500,191.000 C 228.478,188.473 228.593,188.621 231.500,186.000" stroke-width="4.502" stroke="black" fill="none" stroke-linecap="round"></path><path d="M 231.500,186.000 C 235.685,181.728 233.978,183.973 236.500,182.000" stroke-width="4.676" stroke="black" fill="none" stroke-linecap="round"></path><path d="M 236.500,182.000 C 235.783,184.649 237.185,182.228 234.500,187.000" stroke-width="5.192" stroke="black" fill="none" stroke-linecap="round"></path><path d="M 234.500,187.000 C 232.552,190.036 232.783,190.149 230.500,193.000" stroke-width="4.775" stroke="black" fill="none" stroke-linecap="round"></path><path d="M 230.500,193.000 C 227.885,196.423 228.052,196.536 225.500,200.000" stroke-width="4.551" stroke="black" fill="none" stroke-linecap="round"></path><path d="M 225.500,200.000 C 223.235,204.170 222.885,203.923 220.500,208.000" stroke-width="4.447" stroke="black" fill="none" stroke-linecap="round"></path><path d="M 220.500,208.000 C 218.360,211.400 218.235,211.170 215.500,214.000" stroke-width="4.517" stroke="black" fill="none" stroke-linecap="round"></path><path d="M 215.500,214.000 C 212.541,216.065 212.860,216.400 209.500,218.000" stroke-width="4.781" stroke="black" fill="none" stroke-linecap="round"></path><path d="M 209.500,218.000 C 207.223,220.039 207.041,219.565 204.500,221.000" stroke-width="4.780" stroke="black" fill="none" stroke-linecap="round"></path><path d="M 204.500,221.000 C 198.480,222.426 198.723,223.039 192.500,224.000" stroke-width="4.600" stroke="black" fill="none" stroke-linecap="round"></path><path d="M 192.500,224.000 C 189.051,225.239 188.980,224.926 185.500,226.000" stroke-width="4.606" stroke="black" fill="none" stroke-linecap="round"></path><path d="M 185.500,226.000 C 182.016,226.730 182.051,226.739 178.500,227.000" stroke-width="4.657" stroke="black" fill="none" stroke-linecap="round"></path><path d="M 178.500,227.000 C 175.500,227.000 175.516,227.230 172.500,227.000" stroke-width="4.728" stroke="black" fill="none" stroke-linecap="round"></path><path d="M 172.500,227.000 C 169.074,228.029 169.500,227.000 166.500,227.000" stroke-width="4.938" stroke="black" fill="none" stroke-linecap="round"></path><path d="M 166.500,227.000 C 162.500,225.111 164.074,226.029 162.500,223.000" stroke-width="5.202" stroke="black" fill="none" stroke-linecap="round"></path><path d="M 162.500,223.000 C 164.056,219.901 162.500,220.611 166.500,218.000" stroke-width="5.213" stroke="black" fill="none" stroke-linecap="round"></path><path d="M 166.500,218.000 C 168.971,216.920 168.556,216.401 171.500,216.000" stroke-width="4.972" stroke="black" fill="none" stroke-linecap="round"></path><path d="M 171.500,216.000 C 174.455,214.830 174.471,214.920 177.500,214.000" stroke-width="4.979" stroke="black" fill="none" stroke-linecap="round"></path><path d="M 177.500,214.000 C 179.970,213.195 179.955,213.330 182.500,213.000" stroke-width="5.059" stroke="black" fill="none" stroke-linecap="round"></path><path d="M 182.500,213.000 C 186.500,213.000 186.470,212.695 190.500,213.000" stroke-width="4.910" stroke="black" fill="none" stroke-linecap="round"></path><path d="M 190.500,213.000 C 194.000,213.000 194.000,213.000 197.500,213.000" stroke-width="4.951" stroke="black" fill="none" stroke-linecap="round"></path><path d="M 197.500,213.000 C 200.500,213.000 200.500,213.000 203.500,213.000" stroke-width="4.993" stroke="black" fill="none" stroke-linecap="round"></path><path d="M 203.500,213.000 C 207.000,213.000 207.000,213.000 210.500,213.000" stroke-width="4.960" stroke="black" fill="none" stroke-linecap="round"></path><path d="M 210.500,213.000 C 214.000,213.000 214.000,213.000 217.500,213.000" stroke-width="4.950" stroke="black" fill="none" stroke-linecap="round"></path><path d="M 217.500,213.000 C 220.516,213.230 220.500,213.000 223.500,213.000" stroke-width="5.008" stroke="black" fill="none" stroke-linecap="round"></path><path d="M 223.500,213.000 C 227.006,212.538 227.016,212.730 230.500,212.000" stroke-width="5.073" stroke="black" fill="none" stroke-linecap="round"></path><path d="M 230.500,212.000 C 233.583,211.796 233.506,211.538 236.500,211.000" stroke-width="5.025" stroke="black" fill="none" stroke-linecap="round"></path><path d="M 236.500,211.000 C 239.000,210.000 239.083,210.296 241.500,209.000" stroke-width="5.147" stroke="black" fill="none" stroke-linecap="round"></path><path d="M 241.500,209.000 C 244.099,208.200 244.000,208.000 246.500,207.000" stroke-width="5.337" stroke="black" fill="none" stroke-linecap="round"></path><path d="M 246.500,207.000 C 249.117,205.668 249.099,205.700 251.500,204.000" stroke-width="5.374" stroke="black" fill="none" stroke-linecap="round"></path><path d="M 251.500,204.000 C 253.883,201.832 254.117,202.168 256.500,200.000" stroke-width="5.267" stroke="black" fill="none" stroke-linecap="round"></path><path d="M 256.500,200.000 C 259.117,198.668 258.883,198.332 261.500,197.000" stroke-width="5.198" stroke="black" fill="none" stroke-linecap="round"></path><path d="M 261.500,197.000 C 264.111,195.124 264.117,195.168 266.500,193.000" stroke-width="5.153" stroke="black" fill="none" stroke-linecap="round"></path><path d="M 266.500,193.000 C 269.988,188.744 268.611,191.124 270.500,189.000" stroke-width="5.232" stroke="black" fill="none" stroke-linecap="round"></path><path d="M 270.500,189.000 C 269.700,191.599 270.988,189.244 268.500,194.000" stroke-width="5.421" stroke="black" fill="none" stroke-linecap="round"></path><path d="M 268.500,194.000 C 266.567,196.333 267.200,196.599 265.500,199.000" stroke-width="5.242" stroke="black" fill="none" stroke-linecap="round"></path><path d="M 265.500,199.000 C 263.662,201.905 264.567,201.333 264.500,204.000" stroke-width="5.235" stroke="black" fill="none" stroke-linecap="round"></path><path d="M 264.500,204.000 C 266.662,207.013 265.662,206.905 269.500,209.000" stroke-width="5.312" stroke="black" fill="none" stroke-linecap="round"></path><path d="M 269.500,209.000 C 271.891,210.565 271.662,210.513 274.500,211.000" stroke-width="5.229" stroke="black" fill="none" stroke-linecap="round"></path><path d="M 274.500,211.000 C 278.000,211.000 277.891,211.565 281.500,211.000" stroke-width="5.133" stroke="black" fill="none" stroke-linecap="round"></path><path d="M 281.500,211.000 C 284.839,211.967 284.500,211.000 287.500,211.000" stroke-width="5.149" stroke="black" fill="none" stroke-linecap="round"></path><path d="M 287.500,211.000 C 290.250,209.250 290.339,209.967 292.500,207.000" stroke-width="5.197" stroke="black" fill="none" stroke-linecap="round"></path><path d="M 292.500,207.000 C 294.668,204.617 294.750,204.750 296.500,202.000" stroke-width="5.148" stroke="black" fill="none" stroke-linecap="round"></path><path d="M 296.500,202.000 C 297.723,199.284 298.168,199.617 299.500,197.000" stroke-width="5.171" stroke="black" fill="none" stroke-linecap="round"></path><path d="M 299.500,197.000 C 301.500,195.000 301.223,194.784 303.500,193.000" stroke-width="5.281" stroke="black" fill="none" stroke-linecap="round"></path><path d="M 303.500,193.000 C 306.529,188.515 305.500,191.000 307.500,189.000" stroke-width="5.446" stroke="black" fill="none" stroke-linecap="round"></path><path d="M 307.500,189.000 C 307.500,192.000 308.529,189.515 307.500,195.000" stroke-width="5.545" stroke="black" fill="none" stroke-linecap="round"></path><path d="M 307.500,195.000 C 306.084,198.875 307.500,198.000 307.500,201.000" stroke-width="5.541" stroke="black" fill="none" stroke-linecap="round"></path><path d="M 307.500,201.000 C 310.353,203.476 309.084,203.375 313.500,204.000" stroke-width="5.446" stroke="black" fill="none" stroke-linecap="round"></path><path d="M 313.500,204.000 C 316.692,204.021 316.353,204.476 319.500,203.000" stroke-width="5.343" stroke="black" fill="none" stroke-linecap="round"></path><path d="M 319.500,203.000 C 322.216,201.777 322.192,202.021 324.500,200.000" stroke-width="5.133" stroke="black" fill="none" stroke-linecap="round"></path><path d="M 324.500,200.000 C 326.284,197.723 326.716,198.277 328.500,196.000" stroke-width="5.104" stroke="black" fill="none" stroke-linecap="round"></path><path d="M 328.500,196.000 C 331.216,192.746 330.784,194.223 333.500,193.000" stroke-width="5.149" stroke="black" fill="none" stroke-linecap="round"></path><path d="M 333.500,193.000 C 335.195,195.463 335.716,193.246 337.500,197.000" stroke-width="5.407" stroke="black" fill="none" stroke-linecap="round"></path><path d="M 337.500,197.000 C 339.899,198.527 339.695,198.463 342.500,199.000" stroke-width="5.436" stroke="black" fill="none" stroke-linecap="round"></path><path d="M 342.500,199.000 C 345.500,199.000 345.399,199.527 348.500,199.000" stroke-width="5.304" stroke="black" fill="none" stroke-linecap="round"></path><path d="M 348.500,199.000 C 352.227,199.818 352.000,199.000 355.500,199.000" stroke-width="5.155" stroke="black" fill="none" stroke-linecap="round"></path><path d="M 355.500,199.000 C 358.149,197.710 358.227,198.318 360.500,196.000" stroke-width="4.887" stroke="black" fill="none" stroke-linecap="round"></path><path d="M 360.500,196.000 C 363.478,193.473 363.649,193.710 366.500,191.000" stroke-width="4.872" stroke="black" fill="none" stroke-linecap="round"></path><path d="M 366.500,191.000 C 369.000,189.000 368.978,188.973 371.500,187.000" stroke-width="4.951" stroke="black" fill="none" stroke-linecap="round"></path><path d="M 371.500,187.000 C 375.615,182.115 374.000,185.000 376.500,183.000" stroke-width="4.976" stroke="black" fill="none" stroke-linecap="round"></path><path d="M 376.500,183.000 C 376.661,187.228 377.615,184.115 375.500,191.000" stroke-width="5.326" stroke="black" fill="none" stroke-linecap="round"></path><path d="M 375.500,191.000 C 374.116,193.576 374.661,193.728 372.500,196.000" stroke-width="4.963" stroke="black" fill="none" stroke-linecap="round"></path><path d="M 372.500,196.000 C 370.000,199.500 370.116,199.576 367.500,203.000" stroke-width="4.580" stroke="black" fill="none" stroke-linecap="round"></path><path d="M 367.500,203.000 C 365.121,206.593 365.000,206.500 362.500,210.000" stroke-width="4.516" stroke="black" fill="none" stroke-linecap="round"></path><path d="M 362.500,210.000 C 360.136,213.124 360.121,213.093 357.500,216.000" stroke-width="4.520" stroke="black" fill="none" stroke-linecap="round"></path><path d="M 357.500,216.000 C 354.615,219.124 354.636,219.124 351.500,222.000" stroke-width="4.488" stroke="black" fill="none" stroke-linecap="round"></path><path d="M 351.500,222.000 C 348.175,225.243 348.115,225.124 344.500,228.000" stroke-width="4.424" stroke="black" fill="none" stroke-linecap="round"></path><path d="M 344.500,228.000 C 342.018,229.531 342.175,229.743 339.500,231.000" stroke-width="4.256" stroke="black" fill="none" stroke-linecap="round"></path><path d="M 339.500,231.000 C 336.048,233.090 336.018,233.031 332.500,235.000" stroke-width="3.938" stroke="black" fill="none" stroke-linecap="round"></path><path d="M 332.500,235.000 C 329.551,236.613 329.548,236.590 326.500,238.000" stroke-width="4.004" stroke="black" fill="none" stroke-linecap="round"></path><path d="M 326.500,238.000 C 324.029,239.080 324.051,239.113 321.500,240.000" stroke-width="4.145" stroke="black" fill="none" stroke-linecap="round"></path><path d="M 321.500,240.000 C 318.558,241.235 318.529,241.080 315.500,242.000" stroke-width="4.113" stroke="black" fill="none" stroke-linecap="round"></path><path d="M 315.500,242.000 C 312.521,242.748 312.558,242.735 309.500,243.000" stroke-width="4.216" stroke="black" fill="none" stroke-linecap="round"></path><path d="M 309.500,243.000 C 306.500,243.000 306.521,243.248 303.500,243.000" stroke-width="4.596" stroke="black" fill="none" stroke-linecap="round"></path><path d="M 303.500,243.000 C 297.954,244.362 300.500,243.000 297.500,243.000" stroke-width="4.979" stroke="black" fill="none" stroke-linecap="round"></path><path d="M 297.500,243.000 C 299.075,239.627 296.954,241.362 301.500,237.000" stroke-width="5.121" stroke="black" fill="none" stroke-linecap="round"></path><path d="M 301.500,237.000 C 305.235,233.128 305.075,233.127 309.500,230.000" stroke-width="4.529" stroke="black" fill="none" stroke-linecap="round"></path><path d="M 309.500,230.000 C 312.944,227.896 312.735,227.628 316.500,226.000" stroke-width="3.946" stroke="black" fill="none" stroke-linecap="round"></path><path d="M 316.500,226.000 C 320.549,224.092 320.444,223.896 324.500,222.000" stroke-width="3.812" stroke="black" fill="none" stroke-linecap="round"></path><path d="M 324.500,222.000 C 329.064,219.609 329.049,219.592 333.500,217.000" stroke-width="3.645" stroke="black" fill="none" stroke-linecap="round"></path><path d="M 333.500,217.000 C 337.540,214.562 337.564,214.609 341.500,212.000" stroke-width="3.626" stroke="black" fill="none" stroke-linecap="round"></path><path d="M 341.500,212.000 C 345.889,208.818 346.040,209.062 350.500,206.000" stroke-width="3.492" stroke="black" fill="none" stroke-linecap="round"></path><path d="M 350.500,206.000 C 354.857,203.199 354.889,203.318 359.500,201.000" stroke-width="3.500" stroke="black" fill="none" stroke-linecap="round"></path><path d="M 359.500,201.000 C 364.500,199.000 364.357,198.699 369.500,197.000" stroke-width="3.460" stroke="black" fill="none" stroke-linecap="round"></path><path d="M 369.500,197.000 C 374.403,194.699 374.500,195.000 379.500,193.000" stroke-width="3.448" stroke="black" fill="none" stroke-linecap="round"></path><path d="M 379.500,193.000 C 383.455,191.758 383.403,191.699 387.500,191.000" stroke-width="3.629" stroke="black" fill="none" stroke-linecap="round"></path><path d="M 387.500,191.000 C 391.577,190.841 391.455,190.258 395.500,190.000" stroke-width="3.804" stroke="black" fill="none" stroke-linecap="round"></path><path d="M 395.500,190.000 C 398.500,189.000 398.577,189.341 401.500,188.000" stroke-width="4.006" stroke="black" fill="none" stroke-linecap="round"></path></svg>