<svg xmlns="http://www.w3.org/2000/svg" xmlns:xlink="http://www.w3.org/1999/xlink" viewBox="0 0 492 236" width="492" height="236"><path d="M 53.000,164.000 C 55.000,158.500 55.000,158.500 57.000,153.000" stroke-width="5.242" stroke="black" fill="none" stroke-linecap="round"></path><path d="M 57.000,153.000 C 58.917,147.468 59.000,147.500 61.000,142.000" stroke-width="3.871" stroke="black" fill="none" stroke-linecap="round"></path><path d="M 61.000,142.000 C 62.348,136.640 62.917,136.968 65.000,132.000" stroke-width="3.670" stroke="black" fill="none" stroke-linecap="round"></path><path d="M 65.000,132.000 C 68.633,126.198 68.348,126.140 73.000,121.000" stroke-width="3.271" stroke="black" fill="none" stroke-linecap="round"></path><path d="M 73.000,121.000 C 79.259,113.741 79.133,113.698 86.000,107.000" stroke-width="2.741" stroke="black" fill="none" stroke-linecap="round"></path><path d="M 86.000,107.000 C 88.179,104.282 88.259,104.741 91.000,103.000" stroke-width="3.626" stroke="black" fill="none" stroke-linecap="round"></path><path d="M 91.000,103.000 C 95.991,100.150 93.679,101.782 97.000,102.000" stroke-width="4.332" stroke="black" fill="none" stroke-linecap="round"></path><path d="M 97.000,102.000 C 97.000,108.000 98.991,105.650 97.000,114.000" stroke-width="4.208" stroke="black" fill="none" stroke-linecap="round"></path><path d="M 97.000,114.000 C 97.000,118.000 97.000,118.000 97.000,122.000" stroke-width="3.932" stroke="black" fill="none" stroke-linecap="round"></path><path d="M 97.000,122.000 C 94.809,129.540 97.000,126.500 97.000,131.000" stroke-width="4.279" stroke="black" fill="none" stroke-linecap="round"></path><path d="M 97.000,131.000 C 102.227,130.594 99.309,132.540 106.000,128.000" stroke-width="4.574" stroke="black" fill="none" stroke-linecap="round"></path><path d="M 106.000,128.000 C 109.541,124.035 110.227,125.094 113.000,120.000" stroke-width="3.667" stroke="black" fill="none" stroke-linecap="round"></path><path d="M 113.000,120.000 C 115.364,116.876 115.541,117.035 118.000,114.000" stroke-width="3.745" stroke="black" fill="none" stroke-linecap="round"></path><path d="M 118.000,114.000 C 120.406,109.917 120.864,110.876 124.000,108.000" stroke-width="3.799" stroke="black" fill="none" stroke-linecap="round"></path><path d="M 124.000,108.000 C 129.527,104.842 127.906,105.917 133.000,106.000" stroke-width="4.217" stroke="black" fill="none" stroke-linecap="round"></path><path d="M 133.000,106.000 C 135.398,108.788 135.527,106.842 136.000,112.000" stroke-width="4.703" stroke="black" fill="none" stroke-linecap="round"></path><path d="M 136.000,112.000 C 132.859,121.504 136.898,116.788 136.000,122.000" stroke-width="4.692" stroke="black" fill="none" stroke-linecap="round"></path><path d="M 136.000,122.000 C 145.611,118.756 142.359,123.004 155.000,115.000" stroke-width="4.222" stroke="black" fill="none" stroke-linecap="round"></path><path d="M 155.000,115.000 C 157.833,112.792 158.111,113.756 161.000,112.000" stroke-width="4.038" stroke="black" fill="none" stroke-linecap="round"></path><path d="M 161.000,112.000 C 166.373,109.964 163.833,111.292 167.000,112.000" stroke-width="4.503" stroke="black" fill="none" stroke-linecap="round"></path><path d="M 167.000,112.000 C 166.854,118.744 168.373,116.464 165.000,125.000" stroke-width="4.205" stroke="black" fill="none" stroke-linecap="round"></path><path d="M 165.000,125.000 C 161.773,131.914 162.854,132.244 159.000,139.000" stroke-width="3.182" stroke="black" fill="none" stroke-linecap="round"></path><path d="M 159.000,139.000 C 157.500,143.500 157.273,143.414 156.000,148.000" stroke-width="3.517" stroke="black" fill="none" stroke-linecap="round"></path><path d="M 156.000,148.000 C 154.081,152.405 154.500,152.500 153.000,157.000" stroke-width="3.527" stroke="black" fill="none" stroke-linecap="round"></path><path d="M 153.000,157.000 C 152.570,161.010 152.081,160.905 152.000,165.000" stroke-width="3.724" stroke="black" fill="none" stroke-linecap="round"></path><path d="M 152.000,165.000 C 151.430,167.990 151.570,168.010 151.000,171.000" stroke-width="4.008" stroke="black" fill="none" stroke-linecap="round"></path><path d="M 151.000,171.000 C 150.000,175.000 150.430,174.990 150.000,179.000" stroke-width="4.370" stroke="black" fill="none" stroke-linecap="round"></path><path d="M 218.000,148.000 C 215.222,145.464 215.000,146.000 212.000,144.000" stroke-width="4.134" stroke="black" fill="none" stroke-linecap="round"></path><path d="M 212.000,144.000 C 209.527,143.230 209.722,142.964 207.000,143.000" stroke-width="4.225" stroke="black" fill="none" stroke-linecap="round"></path><path d="M 207.000,143.000 C 204.000,143.000 204.027,142.730 201.000,143.000" stroke-width="4.221" stroke="black" fill="none" stroke-linecap="round"></path><path d="M 201.000,143.000 C 197.864,142.339 198.000,143.000 195.000,143.000" stroke-width="4.129" stroke="black" fill="none" stroke-linecap="round"></path><path d="M 195.000,143.000 C 190.551,143.449 191.364,143.839 188.000,146.000" stroke-width="3.901" stroke="black" fill="none" stroke-linecap="round"></path><path d="M 188.000,146.000 C 185.300,150.400 184.551,149.449 183.000,155.000" stroke-width="4.143" stroke="black" fill="none" stroke-linecap="round"></path><path d="M 183.000,155.000 C 180.725,159.400 180.800,159.400 179.000,164.000" stroke-width="3.718" stroke="black" fill="none" stroke-linecap="round"></path><path d="M 179.000,164.000 C 177.548,167.437 177.725,167.400 177.000,171.000" stroke-width="3.820" stroke="black" fill="none" stroke-linecap="round"></path><path d="M 177.000,171.000 C 175.200,175.800 176.548,173.937 177.000,177.000" stroke-width="4.458" stroke="black" fill="none" stroke-linecap="round"></path><path d="M 177.000,177.000 C 181.913,178.362 179.700,178.800 186.000,177.000" stroke-width="3.821" stroke="black" fill="none" stroke-linecap="round"></path><path d="M 186.000,177.000 C 190.619,174.164 190.913,175.362 195.000,171.000" stroke-width="3.544" stroke="black" fill="none" stroke-linecap="round"></path><path d="M 195.000,171.000 C 199.623,167.648 199.619,167.664 204.000,164.000" stroke-width="3.524" stroke="black" fill="none" stroke-linecap="round"></path><path d="M 204.000,164.000 C 208.377,159.852 208.623,160.148 213.000,156.000" stroke-width="3.359" stroke="black" fill="none" stroke-linecap="round"></path><path d="M 213.000,156.000 C 219.667,147.600 217.377,152.352 222.000,149.000" stroke-width="3.364" stroke="black" fill="none" stroke-linecap="round"></path><path d="M 222.000,149.000 C 223.555,155.614 224.667,150.600 223.000,162.000" stroke-width="4.205" stroke="black" fill="none" stroke-linecap="round"></path><path d="M 223.000,162.000 C 221.264,166.945 222.555,167.114 220.000,172.000" stroke-width="3.674" stroke="black" fill="none" stroke-linecap="round"></path><path d="M 220.000,172.000 C 219.252,174.979 219.264,174.945 219.000,178.000" stroke-width="3.990" stroke="black" fill="none" stroke-linecap="round"></path><path d="M 219.000,178.000 C 217.510,182.759 218.752,180.979 219.000,184.000" stroke-width="4.513" stroke="black" fill="none" stroke-linecap="round"></path><path d="M 296.000,92.000 C 293.700,97.599 293.500,97.500 291.000,103.000" stroke-width="4.920" stroke="black" fill="none" stroke-linecap="round"></path><path d="M 291.000,103.000 C 287.463,109.481 287.700,109.599 284.000,116.000" stroke-width="3.478" stroke="black" fill="none" stroke-linecap="round"></path><path d="M 284.000,116.000 C 278.800,125.400 278.963,125.481 274.000,135.000" stroke-width="2.784" stroke="black" fill="none" stroke-linecap="round"></path><path d="M 274.000,135.000 C 270.200,143.600 269.800,143.400 266.000,152.000" stroke-width="2.705" stroke="black" fill="none" stroke-linecap="round"></path><path d="M 266.000,152.000 C 261.905,159.451 262.200,159.600 258.000,167.000" stroke-width="2.931" stroke="black" fill="none" stroke-linecap="round"></path><path d="M 258.000,167.000 C 254.376,173.941 254.405,173.951 251.000,181.000" stroke-width="2.929" stroke="black" fill="none" stroke-linecap="round"></path><path d="M 251.000,181.000 C 249.789,186.096 248.876,185.441 247.000,190.000" stroke-width="3.345" stroke="black" fill="none" stroke-linecap="round"></path><path d="M 314.000,121.000 C 309.246,119.842 309.500,121.000 305.000,121.000" stroke-width="4.906" stroke="black" fill="none" stroke-linecap="round"></path><path d="M 305.000,121.000 C 298.599,124.233 298.246,122.842 292.000,127.000" stroke-width="3.579" stroke="black" fill="none" stroke-linecap="round"></path><path d="M 292.000,127.000 C 283.084,130.730 283.099,130.733 274.000,134.000" stroke-width="3.045" stroke="black" fill="none" stroke-linecap="round"></path><path d="M 274.000,134.000 C 258.109,139.859 258.084,139.730 242.000,145.000" stroke-width="2.125" stroke="black" fill="none" stroke-linecap="round"></path><path d="M 242.000,145.000 C 234.529,147.118 234.609,147.359 227.000,149.000" stroke-width="2.637" stroke="black" fill="none" stroke-linecap="round"></path><path d="M 227.000,149.000 C 222.507,150.034 222.529,150.118 218.000,151.000" stroke-width="3.383" stroke="black" fill="none" stroke-linecap="round"></path><path d="M 360.000,89.000 C 361.749,93.676 360.000,93.000 360.000,97.000" stroke-width="5.315" stroke="black" fill="none" stroke-linecap="round"></path><path d="M 360.000,97.000 C 355.248,102.752 356.749,103.176 350.000,108.000" stroke-width="4.250" stroke="black" fill="none" stroke-linecap="round"></path><path d="M 350.000,108.000 C 346.292,111.900 346.248,111.752 342.000,115.000" stroke-width="3.601" stroke="black" fill="none" stroke-linecap="round"></path><path d="M 342.000,115.000 C 337.142,118.278 337.292,118.400 332.000,121.000" stroke-width="3.411" stroke="black" fill="none" stroke-linecap="round"></path><path d="M 332.000,121.000 C 328.287,122.122 328.642,122.778 325.000,124.000" stroke-width="3.682" stroke="black" fill="none" stroke-linecap="round"></path><path d="M 325.000,124.000 C 320.298,125.681 321.287,126.122 318.000,129.000" stroke-width="4.212" stroke="black" fill="none" stroke-linecap="round"></path><path d="M 318.000,129.000 C 316.508,132.939 315.798,132.181 316.000,137.000" stroke-width="4.428" stroke="black" fill="none" stroke-linecap="round"></path><path d="M 316.000,137.000 C 316.397,141.033 315.508,140.939 316.000,145.000" stroke-width="3.930" stroke="black" fill="none" stroke-linecap="round"></path><path d="M 316.000,145.000 C 316.289,151.468 315.397,151.033 314.000,157.000" stroke-width="3.450" stroke="black" fill="none" stroke-linecap="round"></path><path d="M 314.000,157.000 C 309.462,165.808 310.289,165.968 304.000,174.000" stroke-width="2.811" stroke="black" fill="none" stroke-linecap="round"></path><path d="M 304.000,174.000 C 298.417,182.349 298.462,182.308 292.000,190.000" stroke-width="2.707" stroke="black" fill="none" stroke-linecap="round"></path><path d="M 292.000,190.000 C 284.946,197.450 285.417,197.849 278.000,205.000" stroke-width="2.533" stroke="black" fill="none" stroke-linecap="round"></path><path d="M 278.000,205.000 C 273.429,209.938 273.446,209.950 269.000,215.000" stroke-width="2.977" stroke="black" fill="none" stroke-linecap="round"></path><path d="M 269.000,215.000 C 266.290,217.851 266.429,217.938 264.000,221.000" stroke-width="3.541" stroke="black" fill="none" stroke-linecap="round"></path><path d="M 377.000,132.000 C 374.022,132.768 374.000,132.500 371.000,133.000" stroke-width="4.806" stroke="black" fill="none" stroke-linecap="round"></path><path d="M 371.000,133.000 C 367.412,132.398 367.522,133.268 364.000,133.000" stroke-width="4.251" stroke="black" fill="none" stroke-linecap="round"></path><path d="M 364.000,133.000 C 359.080,134.828 358.912,133.898 354.000,136.000" stroke-width="3.620" stroke="black" fill="none" stroke-linecap="round"></path><path d="M 354.000,136.000 C 346.055,137.881 346.080,137.828 338.000,139.000" stroke-width="3.063" stroke="black" fill="none" stroke-linecap="round"></path><path d="M 338.000,139.000 C 328.000,140.000 328.055,140.381 318.000,141.000" stroke-width="2.706" stroke="black" fill="none" stroke-linecap="round"></path><path d="M 318.000,141.000 C 308.000,142.000 308.000,142.000 298.000,143.000" stroke-width="2.672" stroke="black" fill="none" stroke-linecap="round"></path><path d="M 298.000,143.000 C 287.928,143.540 288.000,144.000 278.000,145.000" stroke-width="2.544" stroke="black" fill="none" stroke-linecap="round"></path><path d="M 278.000,145.000 C 270.848,146.003 270.928,146.040 264.000,148.000" stroke-width="3.017" stroke="black" fill="none" stroke-linecap="round"></path><path d="M 264.000,148.000 C 258.857,149.699 258.848,149.503 254.000,152.000" stroke-width="3.438" stroke="black" fill="none" stroke-linecap="round"></path><path d="M 456.000,111.000 C 451.983,110.062 452.000,110.000 448.000,109.000" stroke-width="4.691" stroke="black" fill="none" stroke-linecap="round"></path><path d="M 448.000,109.000 C 444.565,107.668 444.483,108.062 441.000,107.000" stroke-width="4.189" stroke="black" fill="none" stroke-linecap="round"></path><path d="M 441.000,107.000 C 436.517,106.188 436.565,106.168 432.000,106.000" stroke-width="3.962" stroke="black" fill="none" stroke-linecap="round"></path><path d="M 432.000,106.000 C 423.949,103.562 424.517,105.688 417.000,106.000" stroke-width="3.156" stroke="black" fill="none" stroke-linecap="round"></path><path d="M 417.000,106.000 C 392.509,111.697 395.449,113.562 375.000,126.000" stroke-width="1.720" stroke="black" fill="none" stroke-linecap="round"></path><path d="M 375.000,126.000 C 357.409,143.678 357.009,140.697 346.000,164.000" stroke-width="2.133" stroke="black" fill="none" stroke-linecap="round"></path><path d="M 346.000,164.000 C 343.924,173.455 341.409,172.178 343.000,183.000" stroke-width="2.411" stroke="black" fill="none" stroke-linecap="round"></path><path d="M 343.000,183.000 C 340.364,190.447 342.424,188.955 343.000,195.000" stroke-width="2.922" stroke="black" fill="none" stroke-linecap="round"></path><path d="M 343.000,195.000 C 347.871,200.659 345.864,199.947 354.000,202.000" stroke-width="3.152" stroke="black" fill="none" stroke-linecap="round"></path><path d="M 354.000,202.000 C 364.505,202.239 363.871,204.159 375.000,202.000" stroke-width="2.741" stroke="black" fill="none" stroke-linecap="round"></path><path d="M 375.000,202.000 C 386.807,203.339 386.505,201.739 398.000,201.000" stroke-width="3.118" stroke="black" fill="none" stroke-linecap="round"></path><path d="M 398.000,201.000 C 420.439,195.565 420.307,196.339 442.000,188.000" stroke-width="1.732" stroke="black" fill="none" stroke-linecap="round"></path><path d="M 442.000,188.000 C 448.461,184.425 448.939,185.565 455.000,181.000" stroke-width="2.424" stroke="black" fill="none" stroke-linecap="round"></path><path d="M 455.000,181.000 C 461.006,180.240 458.961,178.925 463.000,177.000" stroke-width="3.225" stroke="black" fill="none" stroke-linecap="round"></path></svg>