<svg xmlns="http://www.w3.org/2000/svg" xmlns:xlink="http://www.w3.org/1999/xlink" viewBox="0 0 1460 576" width="1460" height="576"><path d="M 575.000,256.000 C 577.348,239.759 581.500,244.000 588.000,232.000" stroke-width="4.194" stroke="black" fill="none" stroke-linecap="round"></path><path d="M 588.000,232.000 C 620.854,211.194 617.848,210.259 656.000,197.000" stroke-width="1.380" stroke="black" fill="none" stroke-linecap="round"></path><path d="M 656.000,197.000 C 673.783,191.713 672.854,190.194 692.000,190.000" stroke-width="1.595" stroke="black" fill="none" stroke-linecap="round"></path><path d="M 692.000,190.000 C 732.603,186.000 732.283,186.213 773.000,186.000" stroke-width="1.125" stroke="black" fill="none" stroke-linecap="round"></path><path d="M 773.000,186.000 C 786.172,187.170 786.103,186.000 799.000,190.000" stroke-width="1.664" stroke="black" fill="none" stroke-linecap="round"></path><path d="M 799.000,190.000 C 822.979,191.322 820.172,194.670 841.000,201.000" stroke-width="2.112" stroke="black" fill="none" stroke-linecap="round"></path><path d="M 841.000,201.000 C 855.902,209.737 849.979,205.822 853.000,219.000" stroke-width="2.300" stroke="black" fill="none" stroke-linecap="round"></path><path d="M 853.000,219.000 C 843.075,261.791 842.902,251.237 815.000,284.000" stroke-width="1.914" stroke="black" fill="none" stroke-linecap="round"></path><path d="M 815.000,284.000 C 767.906,309.350 776.075,314.791 719.000,325.000" stroke-width="1.455" stroke="black" fill="none" stroke-linecap="round"></path><path d="M 719.000,325.000 C 704.467,324.827 705.406,329.350 690.000,324.000" stroke-width="1.842" stroke="black" fill="none" stroke-linecap="round"></path><path d="M 690.000,324.000 C 686.679,324.218 686.967,323.827 684.000,323.000" stroke-width="3.013" stroke="black" fill="none" stroke-linecap="round"></path><path d="M 684.000,323.000 C 679.870,321.783 681.179,321.718 679.000,319.000" stroke-width="3.692" stroke="black" fill="none" stroke-linecap="round"></path><path d="M 679.000,319.000 C 676.626,312.366 677.370,313.783 679.000,307.000" stroke-width="3.344" stroke="black" fill="none" stroke-linecap="round"></path><path d="M 679.000,307.000 C 687.960,284.784 688.126,286.366 702.000,267.000" stroke-width="1.812" stroke="black" fill="none" stroke-linecap="round"></path><path d="M 702.000,267.000 C 712.341,257.509 710.460,256.284 724.000,250.000" stroke-width="1.975" stroke="black" fill="none" stroke-linecap="round"></path><path d="M 724.000,250.000 C 741.339,236.100 741.841,238.509 761.000,229.000" stroke-width="1.753" stroke="black" fill="none" stroke-linecap="round"></path><path d="M 761.000,229.000 C 778.611,224.341 777.339,223.100 796.000,224.000" stroke-width="1.753" stroke="black" fill="none" stroke-linecap="round"></path><path d="M 796.000,224.000 C 804.531,224.799 804.111,223.841 812.000,228.000" stroke-width="2.402" stroke="black" fill="none" stroke-linecap="round"></path><path d="M 812.000,228.000 C 821.294,229.836 818.531,230.799 824.000,236.000" stroke-width="2.766" stroke="black" fill="none" stroke-linecap="round"></path><path d="M 824.000,236.000 C 830.699,253.266 830.294,250.336 830.000,269.000" stroke-width="2.812" stroke="black" fill="none" stroke-linecap="round"></path><path d="M 830.000,269.000 C 827.675,276.811 829.699,275.766 822.000,281.000" stroke-width="2.970" stroke="black" fill="none" stroke-linecap="round"></path><path d="M 822.000,281.000 C 806.131,293.509 806.675,292.311 788.000,300.000" stroke-width="1.893" stroke="black" fill="none" stroke-linecap="round"></path><path d="M 788.000,300.000 C 764.470,307.800 765.631,308.009 741.000,310.000" stroke-width="1.576" stroke="black" fill="none" stroke-linecap="round"></path><path d="M 741.000,310.000 C 732.336,308.547 732.470,310.800 724.000,306.000" stroke-width="2.259" stroke="black" fill="none" stroke-linecap="round"></path><path d="M 724.000,306.000 C 710.142,305.857 714.336,303.047 705.000,299.000" stroke-width="2.411" stroke="black" fill="none" stroke-linecap="round"></path><path d="M 705.000,299.000 C 701.905,287.852 699.642,291.857 703.000,278.000" stroke-width="3.045" stroke="black" fill="none" stroke-linecap="round"></path><path d="M 703.000,278.000 C 704.354,273.230 703.405,274.352 708.000,272.000" stroke-width="3.611" stroke="black" fill="none" stroke-linecap="round"></path><path d="M 708.000,272.000 C 745.491,258.851 744.354,259.730 783.000,251.000" stroke-width="2.491" stroke="black" fill="none" stroke-linecap="round"></path><path d="M 783.000,251.000 C 790.228,250.808 788.491,249.851 794.000,254.000" stroke-width="2.998" stroke="black" fill="none" stroke-linecap="round"></path><path d="M 794.000,254.000 C 796.885,258.164 796.728,256.308 796.000,262.000" stroke-width="3.464" stroke="black" fill="none" stroke-linecap="round"></path><path d="M 796.000,262.000 C 793.773,272.495 793.885,271.164 788.000,280.000" stroke-width="2.815" stroke="black" fill="none" stroke-linecap="round"></path><path d="M 788.000,280.000 C 782.469,285.014 783.773,285.495 776.000,288.000" stroke-width="2.971" stroke="black" fill="none" stroke-linecap="round"></path><path d="M 776.000,288.000 C 769.092,291.771 769.469,291.014 762.000,292.000" stroke-width="2.953" stroke="black" fill="none" stroke-linecap="round"></path><path d="M 762.000,292.000 C 752.551,292.322 753.592,292.271 745.000,289.000" stroke-width="2.895" stroke="black" fill="none" stroke-linecap="round"></path><path d="M 745.000,289.000 C 739.529,285.848 740.051,286.822 737.000,281.000" stroke-width="3.164" stroke="black" fill="none" stroke-linecap="round"></path><path d="M 737.000,281.000 C 733.335,273.380 733.529,274.348 733.000,266.000" stroke-width="3.004" stroke="black" fill="none" stroke-linecap="round"></path><path d="M 733.000,266.000 C 733.110,261.312 732.835,262.380 736.000,259.000" stroke-width="3.527" stroke="black" fill="none" stroke-linecap="round"></path><path d="M 736.000,259.000 C 748.548,248.114 748.110,249.312 763.000,242.000" stroke-width="2.257" stroke="black" fill="none" stroke-linecap="round"></path><path d="M 763.000,242.000 C 775.427,237.513 774.548,237.114 788.000,237.000" stroke-width="2.252" stroke="black" fill="none" stroke-linecap="round"></path><path d="M 788.000,237.000 C 800.260,237.462 799.927,236.513 812.000,240.000" stroke-width="2.243" stroke="black" fill="none" stroke-linecap="round"></path><path d="M 812.000,240.000 C 818.740,242.019 818.760,241.462 825.000,245.000" stroke-width="2.862" stroke="black" fill="none" stroke-linecap="round"></path><path d="M 825.000,245.000 C 833.223,245.696 829.240,247.019 833.000,250.000" stroke-width="3.304" stroke="black" fill="none" stroke-linecap="round"></path><path d="M 833.000,250.000 C 833.564,280.863 831.723,274.696 822.000,303.000" stroke-width="2.789" stroke="black" fill="none" stroke-linecap="round"></path><path d="M 822.000,303.000 C 810.611,311.640 816.064,314.363 798.000,317.000" stroke-width="2.232" stroke="black" fill="none" stroke-linecap="round"></path><path d="M 798.000,317.000 C 789.617,321.441 790.611,320.140 782.000,320.000" stroke-width="2.736" stroke="black" fill="none" stroke-linecap="round"></path><path d="M 782.000,320.000 C 769.635,317.340 771.117,317.941 761.000,310.000" stroke-width="2.473" stroke="black" fill="none" stroke-linecap="round"></path><path d="M 761.000,310.000 C 747.211,299.649 749.635,300.340 742.000,286.000" stroke-width="2.128" stroke="black" fill="none" stroke-linecap="round"></path><path d="M 742.000,286.000 C 736.216,269.055 736.711,272.149 740.000,255.000" stroke-width="2.029" stroke="black" fill="none" stroke-linecap="round"></path><path d="M 740.000,255.000 C 746.547,242.913 743.216,243.055 756.000,234.000" stroke-width="2.094" stroke="black" fill="none" stroke-linecap="round"></path><path d="M 756.000,234.000 C 764.714,226.114 764.047,226.413 775.000,222.000" stroke-width="2.260" stroke="black" fill="none" stroke-linecap="round"></path><path d="M 775.000,222.000 C 787.990,216.591 787.214,217.114 801.000,216.000" stroke-width="2.264" stroke="black" fill="none" stroke-linecap="round"></path><path d="M 801.000,216.000 C 810.424,216.937 809.990,215.591 819.000,220.000" stroke-width="2.498" stroke="black" fill="none" stroke-linecap="round"></path><path d="M 819.000,220.000 C 824.196,222.713 824.424,221.937 829.000,226.000" stroke-width="3.031" stroke="black" fill="none" stroke-linecap="round"></path><path d="M 829.000,226.000 C 835.067,228.391 833.696,229.213 838.000,233.000" stroke-width="3.204" stroke="black" fill="none" stroke-linecap="round"></path><path d="M 838.000,233.000 C 842.301,240.309 842.067,239.391 843.000,248.000" stroke-width="2.996" stroke="black" fill="none" stroke-linecap="round"></path></svg>