<svg xmlns="http://www.w3.org/2000/svg" xmlns:xlink="http://www.w3.org/1999/xlink" viewBox="0 0 453 236" width="453" height="236"><path d="M 110.500,85.000 C 107.411,85.168 107.500,85.500 104.500,86.000" stroke-width="5.341" stroke="black" fill="none" stroke-linecap="round"></path><path d="M 104.500,86.000 C 100.016,86.656 100.411,87.168 96.500,89.000" stroke-width="4.227" stroke="black" fill="none" stroke-linecap="round"></path><path d="M 96.500,89.000 C 88.130,95.133 88.016,94.656 80.500,102.000" stroke-width="2.811" stroke="black" fill="none" stroke-linecap="round"></path><path d="M 80.500,102.000 C 77.389,104.110 78.130,104.133 76.500,107.000" stroke-width="3.597" stroke="black" fill="none" stroke-linecap="round"></path><path d="M 76.500,107.000 C 74.825,112.208 75.389,110.610 76.500,115.000" stroke-width="4.201" stroke="black" fill="none" stroke-linecap="round"></path><path d="M 76.500,115.000 C 79.401,116.483 77.825,117.208 82.500,117.000" stroke-width="4.130" stroke="black" fill="none" stroke-linecap="round"></path><path d="M 82.500,117.000 C 88.537,117.222 88.401,117.983 94.500,118.000" stroke-width="3.506" stroke="black" fill="none" stroke-linecap="round"></path><path d="M 94.500,118.000 C 100.054,118.762 100.037,118.722 105.500,120.000" stroke-width="3.481" stroke="black" fill="none" stroke-linecap="round"></path><path d="M 105.500,120.000 C 111.293,120.856 111.054,121.262 116.500,123.000" stroke-width="3.400" stroke="black" fill="none" stroke-linecap="round"></path><path d="M 116.500,123.000 C 120.210,124.424 119.793,124.356 122.500,127.000" stroke-width="3.670" stroke="black" fill="none" stroke-linecap="round"></path><path d="M 122.500,127.000 C 124.065,129.391 124.210,128.924 124.500,132.000" stroke-width="4.031" stroke="black" fill="none" stroke-linecap="round"></path><path d="M 124.500,132.000 C 125.378,135.707 125.065,135.391 124.500,139.000" stroke-width="3.998" stroke="black" fill="none" stroke-linecap="round"></path><path d="M 124.500,139.000 C 123.475,143.826 123.378,143.207 120.500,147.000" stroke-width="3.774" stroke="black" fill="none" stroke-linecap="round"></path><path d="M 120.500,147.000 C 115.429,151.789 115.975,151.826 109.500,155.000" stroke-width="3.229" stroke="black" fill="none" stroke-linecap="round"></path><path d="M 109.500,155.000 C 103.077,157.723 103.429,158.289 96.500,160.000" stroke-width="3.132" stroke="black" fill="none" stroke-linecap="round"></path><path d="M 96.500,160.000 C 90.113,162.562 90.077,162.223 83.500,164.000" stroke-width="3.127" stroke="black" fill="none" stroke-linecap="round"></path><path d="M 83.500,164.000 C 78.494,164.445 78.613,165.062 73.500,165.000" stroke-width="3.450" stroke="black" fill="none" stroke-linecap="round"></path><path d="M 73.500,165.000 C 69.513,165.713 69.494,165.445 65.500,166.000" stroke-width="3.648" stroke="black" fill="none" stroke-linecap="round"></path><path d="M 65.500,166.000 C 61.307,167.581 62.513,166.213 59.500,166.000" stroke-width="3.990" stroke="black" fill="none" stroke-linecap="round"></path><path d="M 156.500,143.000 C 162.659,143.876 162.500,143.000 168.500,143.000" stroke-width="4.972" stroke="black" fill="none" stroke-linecap="round"></path><path d="M 168.500,143.000 C 172.704,141.898 172.659,142.376 176.500,140.000" stroke-width="4.043" stroke="black" fill="none" stroke-linecap="round"></path><path d="M 176.500,140.000 C 179.982,138.518 179.704,138.398 182.500,136.000" stroke-width="3.977" stroke="black" fill="none" stroke-linecap="round"></path><path d="M 182.500,136.000 C 191.208,129.562 186.482,132.018 189.500,127.000" stroke-width="4.117" stroke="black" fill="none" stroke-linecap="round"></path><path d="M 189.500,127.000 C 181.835,123.707 187.208,123.562 174.500,124.000" stroke-width="4.262" stroke="black" fill="none" stroke-linecap="round"></path><path d="M 174.500,124.000 C 169.301,125.599 169.335,124.207 164.500,128.000" stroke-width="3.589" stroke="black" fill="none" stroke-linecap="round"></path><path d="M 164.500,128.000 C 159.068,130.447 159.301,130.599 154.500,134.000" stroke-width="3.968" stroke="black" fill="none" stroke-linecap="round"></path><path d="M 154.500,134.000 C 150.164,137.725 150.068,137.447 146.500,142.000" stroke-width="3.535" stroke="black" fill="none" stroke-linecap="round"></path><path d="M 146.500,142.000 C 144.217,144.851 144.164,144.725 142.500,148.000" stroke-width="3.768" stroke="black" fill="none" stroke-linecap="round"></path><path d="M 142.500,148.000 C 140.973,150.399 141.217,150.351 140.500,153.000" stroke-width="4.107" stroke="black" fill="none" stroke-linecap="round"></path><path d="M 140.500,153.000 C 139.003,156.672 139.973,155.899 140.500,159.000" stroke-width="4.142" stroke="black" fill="none" stroke-linecap="round"></path><path d="M 140.500,159.000 C 144.049,165.183 143.503,163.672 149.500,167.000" stroke-width="4.150" stroke="black" fill="none" stroke-linecap="round"></path><path d="M 149.500,167.000 C 159.984,168.343 159.049,170.183 170.500,169.000" stroke-width="2.848" stroke="black" fill="none" stroke-linecap="round"></path><path d="M 170.500,169.000 C 176.000,169.000 175.984,169.343 181.500,169.000" stroke-width="3.223" stroke="black" fill="none" stroke-linecap="round"></path><path d="M 181.500,169.000 C 185.000,169.000 185.000,169.000 188.500,169.000" stroke-width="3.797" stroke="black" fill="none" stroke-linecap="round"></path><path d="M 188.500,169.000 C 194.362,170.527 192.500,169.000 196.500,169.000" stroke-width="4.263" stroke="black" fill="none" stroke-linecap="round"></path><path d="M 243.500,125.000 C 235.268,122.647 235.500,124.000 227.500,123.000" stroke-width="5.625" stroke="black" fill="none" stroke-linecap="round"></path><path d="M 227.500,123.000 C 223.557,123.503 224.268,123.147 221.500,126.000" stroke-width="4.555" stroke="black" fill="none" stroke-linecap="round"></path><path d="M 221.500,126.000 C 216.945,132.766 216.557,132.003 213.500,140.000" stroke-width="3.167" stroke="black" fill="none" stroke-linecap="round"></path><path d="M 213.500,140.000 C 212.438,143.483 211.945,143.266 211.500,147.000" stroke-width="3.626" stroke="black" fill="none" stroke-linecap="round"></path><path d="M 211.500,147.000 C 210.079,150.948 210.438,150.983 209.500,155.000" stroke-width="3.686" stroke="black" fill="none" stroke-linecap="round"></path><path d="M 209.500,155.000 C 208.697,158.190 209.079,157.948 209.500,161.000" stroke-width="3.960" stroke="black" fill="none" stroke-linecap="round"></path><path d="M 209.500,161.000 C 210.428,166.487 210.697,165.190 213.500,169.000" stroke-width="4.293" stroke="black" fill="none" stroke-linecap="round"></path><path d="M 213.500,169.000 C 216.981,169.765 215.928,170.987 220.500,170.000" stroke-width="4.011" stroke="black" fill="none" stroke-linecap="round"></path><path d="M 220.500,170.000 C 224.516,170.249 224.481,170.265 228.500,170.000" stroke-width="3.879" stroke="black" fill="none" stroke-linecap="round"></path><path d="M 228.500,170.000 C 232.577,169.841 232.516,169.749 236.500,169.000" stroke-width="3.834" stroke="black" fill="none" stroke-linecap="round"></path><path d="M 236.500,169.000 C 239.455,167.830 239.577,168.341 242.500,167.000" stroke-width="4.016" stroke="black" fill="none" stroke-linecap="round"></path><path d="M 295.500,129.000 C 291.482,129.387 291.500,129.500 287.500,130.000" stroke-width="5.126" stroke="black" fill="none" stroke-linecap="round"></path><path d="M 287.500,130.000 C 284.888,130.147 284.982,130.387 282.500,131.000" stroke-width="4.583" stroke="black" fill="none" stroke-linecap="round"></path><path d="M 282.500,131.000 C 277.900,132.800 277.888,132.647 273.500,135.000" stroke-width="3.817" stroke="black" fill="none" stroke-linecap="round"></path><path d="M 273.500,135.000 C 269.098,137.701 268.900,137.300 264.500,140.000" stroke-width="3.647" stroke="black" fill="none" stroke-linecap="round"></path><path d="M 264.500,140.000 C 259.582,140.117 261.098,141.701 257.500,143.000" stroke-width="3.971" stroke="black" fill="none" stroke-linecap="round"></path><path d="M 257.500,143.000 C 252.937,150.454 253.082,149.117 251.500,158.000" stroke-width="3.909" stroke="black" fill="none" stroke-linecap="round"></path><path d="M 251.500,158.000 C 251.408,162.140 250.937,160.954 253.500,164.000" stroke-width="3.994" stroke="black" fill="none" stroke-linecap="round"></path><path d="M 253.500,164.000 C 256.927,165.524 255.908,166.140 260.500,166.000" stroke-width="3.955" stroke="black" fill="none" stroke-linecap="round"></path><path d="M 260.500,166.000 C 264.500,166.000 264.427,166.524 268.500,166.000" stroke-width="3.863" stroke="black" fill="none" stroke-linecap="round"></path><path d="M 268.500,166.000 C 274.000,167.500 273.500,166.000 278.500,166.000" stroke-width="3.573" stroke="black" fill="none" stroke-linecap="round"></path><path d="M 278.500,166.000 C 282.850,163.369 283.000,164.500 286.500,160.000" stroke-width="3.551" stroke="black" fill="none" stroke-linecap="round"></path><path d="M 286.500,160.000 C 289.566,157.315 289.350,157.369 291.500,154.000" stroke-width="3.708" stroke="black" fill="none" stroke-linecap="round"></path><path d="M 291.500,154.000 C 293.058,151.091 293.066,151.315 293.500,148.000" stroke-width="3.929" stroke="black" fill="none" stroke-linecap="round"></path><path d="M 293.500,148.000 C 295.434,142.660 294.058,144.091 293.500,140.000" stroke-width="4.312" stroke="black" fill="none" stroke-linecap="round"></path><path d="M 293.500,140.000 C 289.632,137.775 291.434,137.160 285.500,137.000" stroke-width="4.401" stroke="black" fill="none" stroke-linecap="round"></path><path d="M 313.500,133.000 C 312.225,138.056 313.000,138.000 312.500,143.000" stroke-width="5.160" stroke="black" fill="none" stroke-linecap="round"></path><path d="M 312.500,143.000 C 313.692,146.962 312.725,147.056 314.500,151.000" stroke-width="4.227" stroke="black" fill="none" stroke-linecap="round"></path><path d="M 314.500,151.000 C 315.280,154.480 315.192,154.462 315.500,158.000" stroke-width="4.137" stroke="black" fill="none" stroke-linecap="round"></path><path d="M 315.500,158.000 C 313.904,164.447 315.780,162.480 315.500,167.000" stroke-width="3.746" stroke="black" fill="none" stroke-linecap="round"></path><path d="M 315.500,167.000 C 318.525,167.382 316.404,168.447 320.500,166.000" stroke-width="4.609" stroke="black" fill="none" stroke-linecap="round"></path><path d="M 320.500,166.000 C 323.000,163.000 323.525,163.882 325.500,160.000" stroke-width="3.995" stroke="black" fill="none" stroke-linecap="round"></path><path d="M 325.500,160.000 C 327.854,156.867 328.000,157.000 330.500,154.000" stroke-width="3.896" stroke="black" fill="none" stroke-linecap="round"></path><path d="M 330.500,154.000 C 333.650,150.080 333.854,150.367 337.500,147.000" stroke-width="3.591" stroke="black" fill="none" stroke-linecap="round"></path><path d="M 337.500,147.000 C 343.695,141.781 343.650,142.080 350.500,138.000" stroke-width="3.761" stroke="black" fill="none" stroke-linecap="round"></path><path d="M 350.500,138.000 C 353.505,136.113 352.695,136.781 355.500,137.000" stroke-width="4.101" stroke="black" fill="none" stroke-linecap="round"></path><path d="M 355.500,137.000 C 359.762,139.117 358.005,138.113 359.500,142.000" stroke-width="4.777" stroke="black" fill="none" stroke-linecap="round"></path><path d="M 359.500,142.000 C 356.448,150.482 358.762,150.117 353.500,159.000" stroke-width="3.206" stroke="black" fill="none" stroke-linecap="round"></path><path d="M 353.500,159.000 C 351.801,163.447 351.948,163.482 350.500,168.000" stroke-width="3.427" stroke="black" fill="none" stroke-linecap="round"></path><path d="M 350.500,168.000 C 350.000,170.500 349.801,170.447 349.500,173.000" stroke-width="4.011" stroke="black" fill="none" stroke-linecap="round"></path><path d="M 409.500,153.000 C 406.022,152.196 406.000,152.500 402.500,152.000" stroke-width="5.332" stroke="black" fill="none" stroke-linecap="round"></path><path d="M 402.500,152.000 C 396.931,151.348 397.022,151.696 391.500,152.000" stroke-width="3.828" stroke="black" fill="none" stroke-linecap="round"></path><path d="M 391.500,152.000 C 384.417,153.196 384.431,152.848 377.500,155.000" stroke-width="3.183" stroke="black" fill="none" stroke-linecap="round"></path><path d="M 377.500,155.000 C 372.965,156.405 372.917,156.196 368.500,158.000" stroke-width="3.419" stroke="black" fill="none" stroke-linecap="round"></path><path d="M 368.500,158.000 C 364.988,158.087 365.965,158.905 363.500,160.000" stroke-width="3.936" stroke="black" fill="none" stroke-linecap="round"></path><path d="M 363.500,160.000 C 361.500,163.551 361.488,162.587 361.500,167.000" stroke-width="4.367" stroke="black" fill="none" stroke-linecap="round"></path><path d="M 361.500,167.000 C 361.458,170.639 361.500,169.551 363.500,172.000" stroke-width="4.255" stroke="black" fill="none" stroke-linecap="round"></path><path d="M 363.500,172.000 C 368.398,174.028 367.458,174.639 373.500,175.000" stroke-width="3.847" stroke="black" fill="none" stroke-linecap="round"></path><path d="M 373.500,175.000 C 379.065,176.453 378.898,176.028 384.500,176.000" stroke-width="3.468" stroke="black" fill="none" stroke-linecap="round"></path><path d="M 384.500,176.000 C 392.061,176.311 391.065,175.453 397.500,173.000" stroke-width="3.240" stroke="black" fill="none" stroke-linecap="round"></path><path d="M 397.500,173.000 C 403.183,167.996 403.561,169.311 407.500,162.000" stroke-width="3.069" stroke="black" fill="none" stroke-linecap="round"></path><path d="M 407.500,162.000 C 412.347,155.357 412.183,155.496 415.500,148.000" stroke-width="2.939" stroke="black" fill="none" stroke-linecap="round"></path><path d="M 415.500,148.000 C 417.674,141.045 418.347,141.357 419.500,134.000" stroke-width="3.002" stroke="black" fill="none" stroke-linecap="round"></path><path d="M 419.500,134.000 C 421.406,127.565 421.174,127.545 422.500,121.000" stroke-width="3.047" stroke="black" fill="none" stroke-linecap="round"></path><path d="M 422.500,121.000 C 422.786,115.473 423.406,115.565 423.500,110.000" stroke-width="3.292" stroke="black" fill="none" stroke-linecap="round"></path><path d="M 423.500,110.000 C 424.308,103.962 424.286,103.973 425.500,98.000" stroke-width="3.283" stroke="black" fill="none" stroke-linecap="round"></path><path d="M 425.500,98.000 C 426.882,91.470 426.808,91.462 428.500,85.000" stroke-width="3.190" stroke="black" fill="none" stroke-linecap="round"></path><path d="M 428.500,85.000 C 430.238,79.554 429.882,79.470 431.500,74.000" stroke-width="3.312" stroke="black" fill="none" stroke-linecap="round"></path><path d="M 431.500,74.000 C 432.885,68.535 432.738,68.554 433.500,63.000" stroke-width="3.311" stroke="black" fill="none" stroke-linecap="round"></path><path d="M 433.500,63.000 C 435.337,57.148 433.885,59.535 433.500,56.000" stroke-width="3.755" stroke="black" fill="none" stroke-linecap="round"></path><path d="M 433.500,56.000 C 428.249,55.251 431.337,54.648 425.500,58.000" stroke-width="4.393" stroke="black" fill="none" stroke-linecap="round"></path><path d="M 425.500,58.000 C 419.406,66.169 418.749,64.751 414.500,75.000" stroke-width="2.933" stroke="black" fill="none" stroke-linecap="round"></path><path d="M 414.500,75.000 C 408.912,84.090 409.406,84.169 405.500,94.000" stroke-width="2.627" stroke="black" fill="none" stroke-linecap="round"></path><path d="M 405.500,94.000 C 398.149,114.748 398.412,114.590 393.500,136.000" stroke-width="2.479" stroke="black" fill="none" stroke-linecap="round"></path><path d="M 393.500,136.000 C 392.096,146.982 391.149,146.748 391.500,158.000" stroke-width="2.456" stroke="black" fill="none" stroke-linecap="round"></path><path d="M 391.500,158.000 C 391.033,165.527 391.096,165.482 391.500,173.000" stroke-width="2.806" stroke="black" fill="none" stroke-linecap="round"></path><path d="M 391.500,173.000 C 390.386,183.079 392.033,181.527 393.500,190.000" stroke-width="3.379" stroke="black" fill="none" stroke-linecap="round"></path><path d="M 86.500,201.000 C 90.934,202.603 91.000,202.000 95.500,203.000" stroke-width="3.276" stroke="black" fill="none" stroke-linecap="round"></path><path d="M 95.500,203.000 C 102.500,203.000 102.434,203.603 109.500,203.000" stroke-width="3.197" stroke="black" fill="none" stroke-linecap="round"></path><path d="M 109.500,203.000 C 118.543,203.655 118.500,203.000 127.500,203.000" stroke-width="2.857" stroke="black" fill="none" stroke-linecap="round"></path><path d="M 127.500,203.000 C 138.986,201.382 139.043,202.155 150.500,200.000" stroke-width="2.505" stroke="black" fill="none" stroke-linecap="round"></path><path d="M 150.500,200.000 C 163.979,198.276 163.986,198.382 177.500,197.000" stroke-width="2.257" stroke="black" fill="none" stroke-linecap="round"></path><path d="M 177.500,197.000 C 190.483,195.685 190.479,195.776 203.500,195.000" stroke-width="2.231" stroke="black" fill="none" stroke-linecap="round"></path><path d="M 203.500,195.000 C 219.000,194.500 218.983,194.185 234.500,194.000" stroke-width="2.259" stroke="black" fill="none" stroke-linecap="round"></path><path d="M 234.500,194.000 C 250.000,193.500 250.000,193.500 265.500,193.000" stroke-width="2.065" stroke="black" fill="none" stroke-linecap="round"></path><path d="M 265.500,193.000 C 296.495,191.681 296.500,192.000 327.500,191.000" stroke-width="1.382" stroke="black" fill="none" stroke-linecap="round"></path><path d="M 327.500,191.000 C 342.000,191.000 341.995,190.681 356.500,191.000" stroke-width="1.881" stroke="black" fill="none" stroke-linecap="round"></path><path d="M 356.500,191.000 C 367.574,190.160 367.500,191.000 378.500,191.000" stroke-width="2.198" stroke="black" fill="none" stroke-linecap="round"></path><path d="M 378.500,191.000 C 386.974,192.668 387.074,191.660 395.500,194.000" stroke-width="2.530" stroke="black" fill="none" stroke-linecap="round"></path><path d="M 395.500,194.000 C 402.992,195.062 402.974,195.168 410.500,196.000" stroke-width="2.827" stroke="black" fill="none" stroke-linecap="round"></path><path d="M 410.500,196.000 C 414.989,196.699 414.992,196.562 419.500,197.000" stroke-width="3.369" stroke="black" fill="none" stroke-linecap="round"></path><path d="M 419.500,197.000 C 425.731,197.000 422.489,197.199 425.500,197.000" stroke-width="4.235" stroke="black" fill="none" stroke-linecap="round"></path></svg>