<svg xmlns="http://www.w3.org/2000/svg" xmlns:xlink="http://www.w3.org/1999/xlink" viewBox="0 0 540 330" width="540" height="330"><path d="M 57.000,156.000 C 58.487,158.921 58.000,159.000 59.000,162.000" stroke-width="5.449" stroke="black" fill="none" stroke-linecap="round"></path><path d="M 59.000,162.000 C 59.000,165.000 59.487,164.921 59.000,168.000" stroke-width="4.979" stroke="black" fill="none" stroke-linecap="round"></path><path d="M 59.000,168.000 C 59.000,175.500 59.000,175.500 59.000,183.000" stroke-width="3.396" stroke="black" fill="none" stroke-linecap="round"></path><path d="M 59.000,183.000 C 59.230,186.016 59.000,186.000 59.000,189.000" stroke-width="3.967" stroke="black" fill="none" stroke-linecap="round"></path><path d="M 59.000,189.000 C 58.235,192.481 58.730,192.516 58.000,196.000" stroke-width="3.971" stroke="black" fill="none" stroke-linecap="round"></path><path d="M 58.000,196.000 C 57.508,204.000 57.735,199.981 58.000,204.000" stroke-width="4.345" stroke="black" fill="none" stroke-linecap="round"></path><path d="M 58.000,204.000 C 58.699,199.903 58.508,204.000 60.000,196.000" stroke-width="4.773" stroke="black" fill="none" stroke-linecap="round"></path><path d="M 60.000,196.000 C 61.699,190.857 61.699,190.903 64.000,186.000" stroke-width="3.689" stroke="black" fill="none" stroke-linecap="round"></path><path d="M 64.000,186.000 C 66.318,181.389 66.199,181.357 69.000,177.000" stroke-width="3.498" stroke="black" fill="none" stroke-linecap="round"></path><path d="M 69.000,177.000 C 71.385,171.976 71.818,172.389 75.000,168.000" stroke-width="3.456" stroke="black" fill="none" stroke-linecap="round"></path><path d="M 75.000,168.000 C 81.399,160.528 81.385,160.976 89.000,155.000" stroke-width="3.530" stroke="black" fill="none" stroke-linecap="round"></path><path d="M 89.000,155.000 C 92.929,153.253 92.399,152.528 97.000,152.000" stroke-width="3.677" stroke="black" fill="none" stroke-linecap="round"></path><path d="M 97.000,152.000 C 100.621,149.370 99.429,151.253 102.000,151.000" stroke-width="4.439" stroke="black" fill="none" stroke-linecap="round"></path><path d="M 102.000,151.000 C 106.114,157.771 106.121,155.870 108.000,165.000" stroke-width="4.009" stroke="black" fill="none" stroke-linecap="round"></path><path d="M 108.000,165.000 C 108.000,169.500 109.114,169.271 108.000,174.000" stroke-width="3.873" stroke="black" fill="none" stroke-linecap="round"></path><path d="M 108.000,174.000 C 108.000,178.500 108.000,178.500 108.000,183.000" stroke-width="3.678" stroke="black" fill="none" stroke-linecap="round"></path><path d="M 108.000,183.000 C 108.000,187.500 108.000,187.500 108.000,192.000" stroke-width="3.623" stroke="black" fill="none" stroke-linecap="round"></path><path d="M 146.000,167.000 C 147.243,171.550 148.000,170.500 150.000,174.000" stroke-width="5.216" stroke="black" fill="none" stroke-linecap="round"></path><path d="M 150.000,174.000 C 152.468,174.819 151.743,175.550 155.000,175.000" stroke-width="4.560" stroke="black" fill="none" stroke-linecap="round"></path><path d="M 155.000,175.000 C 159.531,175.406 159.468,175.319 164.000,175.000" stroke-width="3.905" stroke="black" fill="none" stroke-linecap="round"></path><path d="M 164.000,175.000 C 170.964,175.195 170.531,174.406 177.000,173.000" stroke-width="3.294" stroke="black" fill="none" stroke-linecap="round"></path><path d="M 177.000,173.000 C 181.823,170.394 181.964,171.195 186.000,167.000" stroke-width="3.445" stroke="black" fill="none" stroke-linecap="round"></path><path d="M 186.000,167.000 C 189.766,163.731 189.823,163.894 193.000,160.000" stroke-width="3.521" stroke="black" fill="none" stroke-linecap="round"></path><path d="M 193.000,160.000 C 196.550,156.288 196.266,156.231 199.000,152.000" stroke-width="3.479" stroke="black" fill="none" stroke-linecap="round"></path><path d="M 199.000,152.000 C 200.764,149.069 200.550,149.288 201.000,146.000" stroke-width="3.967" stroke="black" fill="none" stroke-linecap="round"></path><path d="M 201.000,146.000 C 202.348,140.370 201.264,142.569 200.000,139.000" stroke-width="3.920" stroke="black" fill="none" stroke-linecap="round"></path><path d="M 200.000,139.000 C 194.391,138.171 196.348,136.870 189.000,139.000" stroke-width="3.663" stroke="black" fill="none" stroke-linecap="round"></path><path d="M 189.000,139.000 C 180.754,139.507 181.391,140.171 174.000,143.000" stroke-width="3.246" stroke="black" fill="none" stroke-linecap="round"></path><path d="M 174.000,143.000 C 166.753,148.211 166.254,147.007 160.000,154.000" stroke-width="2.814" stroke="black" fill="none" stroke-linecap="round"></path><path d="M 160.000,154.000 C 152.586,160.115 152.753,160.211 146.000,167.000" stroke-width="2.634" stroke="black" fill="none" stroke-linecap="round"></path><path d="M 146.000,167.000 C 141.682,171.784 141.586,171.615 138.000,177.000" stroke-width="3.011" stroke="black" fill="none" stroke-linecap="round"></path><path d="M 138.000,177.000 C 135.147,180.273 135.682,180.284 134.000,184.000" stroke-width="3.487" stroke="black" fill="none" stroke-linecap="round"></path><path d="M 134.000,184.000 C 134.000,187.000 133.147,186.773 134.000,190.000" stroke-width="3.889" stroke="black" fill="none" stroke-linecap="round"></path><path d="M 134.000,190.000 C 131.908,195.098 134.000,193.500 134.000,197.000" stroke-width="3.955" stroke="black" fill="none" stroke-linecap="round"></path><path d="M 134.000,197.000 C 139.402,199.067 137.408,200.098 145.000,200.000" stroke-width="3.461" stroke="black" fill="none" stroke-linecap="round"></path><path d="M 145.000,200.000 C 151.490,200.759 151.402,201.067 158.000,201.000" stroke-width="3.262" stroke="black" fill="none" stroke-linecap="round"></path><path d="M 158.000,201.000 C 165.000,201.000 164.990,201.259 172.000,201.000" stroke-width="3.136" stroke="black" fill="none" stroke-linecap="round"></path><path d="M 172.000,201.000 C 178.000,201.000 178.000,201.000 184.000,201.000" stroke-width="3.190" stroke="black" fill="none" stroke-linecap="round"></path><path d="M 184.000,201.000 C 188.000,201.000 188.000,201.000 192.000,201.000" stroke-width="3.563" stroke="black" fill="none" stroke-linecap="round"></path><path d="M 211.000,154.000 C 211.640,156.477 211.500,156.500 212.000,159.000" stroke-width="5.130" stroke="black" fill="none" stroke-linecap="round"></path><path d="M 212.000,159.000 C 212.062,167.249 213.140,166.977 214.000,175.000" stroke-width="3.323" stroke="black" fill="none" stroke-linecap="round"></path><path d="M 214.000,175.000 C 215.462,181.854 215.562,181.249 219.000,187.000" stroke-width="3.812" stroke="black" fill="none" stroke-linecap="round"></path><path d="M 219.000,187.000 C 222.316,192.193 220.962,189.854 225.000,191.000" stroke-width="4.342" stroke="black" fill="none" stroke-linecap="round"></path><path d="M 225.000,191.000 C 231.920,185.684 231.316,188.193 237.000,179.000" stroke-width="3.911" stroke="black" fill="none" stroke-linecap="round"></path><path d="M 237.000,179.000 C 240.415,172.453 241.420,173.184 244.000,166.000" stroke-width="3.298" stroke="black" fill="none" stroke-linecap="round"></path><path d="M 244.000,166.000 C 249.034,151.506 247.915,158.953 252.000,152.000" stroke-width="3.596" stroke="black" fill="none" stroke-linecap="round"></path><path d="M 252.000,152.000 C 254.953,159.883 255.034,152.506 256.000,168.000" stroke-width="4.193" stroke="black" fill="none" stroke-linecap="round"></path><path d="M 256.000,168.000 C 256.000,175.500 256.953,175.383 256.000,183.000" stroke-width="3.337" stroke="black" fill="none" stroke-linecap="round"></path><path d="M 256.000,183.000 C 256.000,189.000 256.000,189.000 256.000,195.000" stroke-width="3.250" stroke="black" fill="none" stroke-linecap="round"></path><path d="M 256.000,195.000 C 253.279,204.007 256.000,201.000 256.000,207.000" stroke-width="3.817" stroke="black" fill="none" stroke-linecap="round"></path><path d="M 256.000,207.000 C 262.162,208.484 258.279,209.507 266.000,206.000" stroke-width="4.170" stroke="black" fill="none" stroke-linecap="round"></path><path d="M 266.000,206.000 C 269.676,201.114 270.662,202.984 273.000,196.000" stroke-width="3.500" stroke="black" fill="none" stroke-linecap="round"></path><path d="M 273.000,196.000 C 275.649,190.747 276.176,191.114 279.000,186.000" stroke-width="3.324" stroke="black" fill="none" stroke-linecap="round"></path><path d="M 279.000,186.000 C 282.172,182.636 281.649,182.247 285.000,179.000" stroke-width="4.008" stroke="black" fill="none" stroke-linecap="round"></path><path d="M 285.000,179.000 C 289.171,173.616 289.172,173.636 293.000,168.000" stroke-width="3.346" stroke="black" fill="none" stroke-linecap="round"></path><path d="M 293.000,168.000 C 296.101,162.199 296.671,162.616 300.000,157.000" stroke-width="3.231" stroke="black" fill="none" stroke-linecap="round"></path><path d="M 300.000,157.000 C 304.534,152.893 303.601,152.199 308.000,148.000" stroke-width="3.274" stroke="black" fill="none" stroke-linecap="round"></path><path d="M 429.000,101.000 C 424.661,98.243 424.500,99.000 420.000,97.000" stroke-width="4.283" stroke="black" fill="none" stroke-linecap="round"></path><path d="M 420.000,97.000 C 416.948,96.579 417.161,96.243 414.000,97.000" stroke-width="4.238" stroke="black" fill="none" stroke-linecap="round"></path><path d="M 414.000,97.000 C 409.586,97.113 409.948,97.579 406.000,99.000" stroke-width="3.855" stroke="black" fill="none" stroke-linecap="round"></path><path d="M 406.000,99.000 C 400.131,102.568 400.086,102.113 395.000,107.000" stroke-width="3.246" stroke="black" fill="none" stroke-linecap="round"></path><path d="M 395.000,107.000 C 389.251,112.271 389.131,112.068 384.000,118.000" stroke-width="2.960" stroke="black" fill="none" stroke-linecap="round"></path><path d="M 384.000,118.000 C 377.880,124.066 378.251,124.271 373.000,131.000" stroke-width="2.791" stroke="black" fill="none" stroke-linecap="round"></path><path d="M 373.000,131.000 C 368.398,137.718 368.380,137.566 365.000,145.000" stroke-width="2.858" stroke="black" fill="none" stroke-linecap="round"></path><path d="M 365.000,145.000 C 361.305,152.806 361.398,152.718 359.000,161.000" stroke-width="2.821" stroke="black" fill="none" stroke-linecap="round"></path><path d="M 359.000,161.000 C 356.834,168.938 356.805,168.806 356.000,177.000" stroke-width="2.798" stroke="black" fill="none" stroke-linecap="round"></path><path d="M 356.000,177.000 C 355.691,183.519 355.334,183.438 356.000,190.000" stroke-width="3.060" stroke="black" fill="none" stroke-linecap="round"></path><path d="M 356.000,190.000 C 355.367,194.501 356.191,194.019 357.000,198.000" stroke-width="3.506" stroke="black" fill="none" stroke-linecap="round"></path><path d="M 357.000,198.000 C 359.374,202.341 358.867,202.001 363.000,205.000" stroke-width="3.653" stroke="black" fill="none" stroke-linecap="round"></path><path d="M 363.000,205.000 C 367.311,207.698 366.874,207.841 372.000,209.000" stroke-width="3.589" stroke="black" fill="none" stroke-linecap="round"></path><path d="M 372.000,209.000 C 376.486,209.749 376.311,210.198 381.000,210.000" stroke-width="3.645" stroke="black" fill="none" stroke-linecap="round"></path><path d="M 381.000,210.000 C 385.500,210.000 385.486,210.249 390.000,210.000" stroke-width="3.613" stroke="black" fill="none" stroke-linecap="round"></path><path d="M 390.000,210.000 C 394.016,210.249 394.000,210.000 398.000,210.000" stroke-width="3.806" stroke="black" fill="none" stroke-linecap="round"></path><path d="M 398.000,210.000 C 402.250,210.250 402.016,209.749 406.000,209.000" stroke-width="3.760" stroke="black" fill="none" stroke-linecap="round"></path><path d="M 406.000,209.000 C 409.734,207.333 409.750,207.750 413.000,205.000" stroke-width="3.746" stroke="black" fill="none" stroke-linecap="round"></path><path d="M 430.000,175.000 C 428.755,180.467 429.000,180.500 428.000,186.000" stroke-width="4.913" stroke="black" fill="none" stroke-linecap="round"></path><path d="M 428.000,186.000 C 427.859,191.561 427.255,191.467 427.000,197.000" stroke-width="3.754" stroke="black" fill="none" stroke-linecap="round"></path><path d="M 427.000,197.000 C 426.000,201.000 426.359,201.061 425.000,205.000" stroke-width="3.778" stroke="black" fill="none" stroke-linecap="round"></path><path d="M 425.000,205.000 C 421.700,211.700 424.000,209.000 423.000,213.000" stroke-width="4.273" stroke="black" fill="none" stroke-linecap="round"></path><path d="M 423.000,213.000 C 426.844,212.008 424.200,214.200 430.000,210.000" stroke-width="5.023" stroke="black" fill="none" stroke-linecap="round"></path><path d="M 430.000,210.000 C 432.000,208.000 432.344,208.508 434.000,206.000" stroke-width="4.383" stroke="black" fill="none" stroke-linecap="round"></path><path d="M 434.000,206.000 C 437.500,202.500 437.500,202.500 441.000,199.000" stroke-width="4.344" stroke="black" fill="none" stroke-linecap="round"></path><path d="M 441.000,199.000 C 443.606,197.390 443.000,197.000 445.000,195.000" stroke-width="4.210" stroke="black" fill="none" stroke-linecap="round"></path><path d="M 445.000,195.000 C 446.971,191.116 447.106,191.390 448.000,187.000" stroke-width="4.406" stroke="black" fill="none" stroke-linecap="round"></path><path d="M 448.000,187.000 C 449.580,182.772 448.971,183.116 449.000,179.000" stroke-width="4.467" stroke="black" fill="none" stroke-linecap="round"></path><path d="M 449.000,179.000 C 448.359,174.983 448.580,176.272 446.000,174.000" stroke-width="4.865" stroke="black" fill="none" stroke-linecap="round"></path><path d="M 446.000,174.000 C 441.164,172.890 442.359,172.483 437.000,174.000" stroke-width="4.544" stroke="black" fill="none" stroke-linecap="round"></path><path d="M 437.000,174.000 C 433.500,175.500 433.664,174.890 431.000,178.000" stroke-width="4.161" stroke="black" fill="none" stroke-linecap="round"></path><path d="M 431.000,178.000 C 428.950,180.967 428.500,180.500 427.000,184.000" stroke-width="4.011" stroke="black" fill="none" stroke-linecap="round"></path><path d="M 427.000,184.000 C 424.099,187.802 424.450,187.967 422.000,192.000" stroke-width="3.668" stroke="black" fill="none" stroke-linecap="round"></path><path d="M 422.000,192.000 C 420.253,195.929 420.099,195.802 419.000,200.000" stroke-width="3.721" stroke="black" fill="none" stroke-linecap="round"></path><path d="M 419.000,200.000 C 418.211,202.471 418.253,202.429 418.000,205.000" stroke-width="4.125" stroke="black" fill="none" stroke-linecap="round"></path><path d="M 418.000,205.000 C 416.141,210.141 417.711,208.471 418.000,212.000" stroke-width="4.473" stroke="black" fill="none" stroke-linecap="round"></path><path d="M 418.000,212.000 C 421.987,212.713 420.141,214.141 426.000,213.000" stroke-width="4.524" stroke="black" fill="none" stroke-linecap="round"></path><path d="M 426.000,213.000 C 429.167,213.708 428.987,213.213 432.000,213.000" stroke-width="4.261" stroke="black" fill="none" stroke-linecap="round"></path><path d="M 432.000,213.000 C 435.322,211.947 435.167,212.208 438.000,210.000" stroke-width="4.099" stroke="black" fill="none" stroke-linecap="round"></path><path d="M 455.000,202.000 C 456.889,198.431 457.000,198.500 459.000,195.000" stroke-width="5.084" stroke="black" fill="none" stroke-linecap="round"></path><path d="M 459.000,195.000 C 460.703,191.756 460.889,191.931 463.000,189.000" stroke-width="4.233" stroke="black" fill="none" stroke-linecap="round"></path><path d="M 463.000,189.000 C 465.862,185.853 465.703,185.756 469.000,183.000" stroke-width="4.417" stroke="black" fill="none" stroke-linecap="round"></path><path d="M 469.000,183.000 C 476.480,175.226 476.862,175.853 485.000,169.000" stroke-width="2.874" stroke="black" fill="none" stroke-linecap="round"></path><path d="M 485.000,169.000 C 491.435,162.727 489.480,165.726 495.000,164.000" stroke-width="3.672" stroke="black" fill="none" stroke-linecap="round"></path><path d="M 495.000,164.000 C 499.879,169.021 498.435,165.227 499.000,174.000" stroke-width="4.303" stroke="black" fill="none" stroke-linecap="round"></path><path d="M 499.000,174.000 C 493.709,185.891 496.879,186.021 489.000,198.000" stroke-width="3.422" stroke="black" fill="none" stroke-linecap="round"></path><path d="M 489.000,198.000 C 486.735,203.927 486.709,203.891 485.000,210.000" stroke-width="3.338" stroke="black" fill="none" stroke-linecap="round"></path><path d="M 485.000,210.000 C 483.606,214.457 483.735,214.427 483.000,219.000" stroke-width="3.496" stroke="black" fill="none" stroke-linecap="round"></path><path d="M 483.000,219.000 C 483.000,222.000 482.606,221.957 483.000,225.000" stroke-width="3.934" stroke="black" fill="none" stroke-linecap="round"></path><path d="M 483.000,225.000 C 482.033,230.758 483.000,228.000 483.000,231.000" stroke-width="4.478" stroke="black" fill="none" stroke-linecap="round"></path><path d="M 530.000,105.000 C 527.528,108.301 528.500,108.500 527.000,112.000" stroke-width="5.232" stroke="black" fill="none" stroke-linecap="round"></path><path d="M 527.000,112.000 C 527.694,119.064 526.028,118.801 527.000,126.000" stroke-width="3.518" stroke="black" fill="none" stroke-linecap="round"></path><path d="M 527.000,126.000 C 525.689,134.040 526.194,134.064 524.000,142.000" stroke-width="3.713" stroke="black" fill="none" stroke-linecap="round"></path><path d="M 524.000,142.000 C 522.234,150.562 522.189,150.540 520.000,159.000" stroke-width="3.002" stroke="black" fill="none" stroke-linecap="round"></path><path d="M 520.000,159.000 C 517.147,167.413 517.734,167.562 515.000,176.000" stroke-width="2.824" stroke="black" fill="none" stroke-linecap="round"></path><path d="M 515.000,176.000 C 512.689,183.420 513.147,183.413 512.000,191.000" stroke-width="2.918" stroke="black" fill="none" stroke-linecap="round"></path><path d="M 512.000,191.000 C 512.000,200.000 511.189,199.920 512.000,209.000" stroke-width="2.723" stroke="black" fill="none" stroke-linecap="round"></path><path d="M 502.000,145.000 C 504.734,149.720 505.500,148.000 509.000,151.000" stroke-width="5.156" stroke="black" fill="none" stroke-linecap="round"></path><path d="M 509.000,151.000 C 520.492,152.562 519.734,154.220 532.000,154.000" stroke-width="3.738" stroke="black" fill="none" stroke-linecap="round"></path><path d="M 532.000,154.000 C 540.486,155.149 540.492,155.062 549.000,156.000" stroke-width="3.740" stroke="black" fill="none" stroke-linecap="round"></path><path d="M 549.000,156.000 C 555.541,156.167 555.486,156.649 562.000,157.000" stroke-width="3.332" stroke="black" fill="none" stroke-linecap="round"></path></svg>