<svg xmlns="http://www.w3.org/2000/svg" xmlns:xlink="http://www.w3.org/1999/xlink" viewBox="0 0 452 236" width="452" height="236"><path d="M 405.000,148.000 C 404.380,144.352 404.000,144.500 403.000,141.000" stroke-width="5.410" stroke="black" fill="none" stroke-linecap="round"></path><path d="M 403.000,141.000 C 400.500,136.000 400.880,135.852 398.000,131.000" stroke-width="4.598" stroke="black" fill="none" stroke-linecap="round"></path><path d="M 398.000,131.000 C 396.687,127.892 396.500,128.000 395.000,125.000" stroke-width="4.134" stroke="black" fill="none" stroke-linecap="round"></path><path d="M 395.000,125.000 C 392.935,122.041 393.187,121.892 391.000,119.000" stroke-width="3.951" stroke="black" fill="none" stroke-linecap="round"></path><path d="M 391.000,119.000 C 389.668,116.383 389.435,116.541 388.000,114.000" stroke-width="4.114" stroke="black" fill="none" stroke-linecap="round"></path><path d="M 388.000,114.000 C 386.124,111.389 386.168,111.383 384.000,109.000" stroke-width="4.094" stroke="black" fill="none" stroke-linecap="round"></path><path d="M 384.000,109.000 C 381.717,107.232 382.124,106.889 380.000,105.000" stroke-width="4.182" stroke="black" fill="none" stroke-linecap="round"></path><path d="M 380.000,105.000 C 377.118,100.417 376.717,100.732 374.000,96.000" stroke-width="4.197" stroke="black" fill="none" stroke-linecap="round"></path><path d="M 374.000,96.000 C 371.122,91.902 371.118,91.917 368.000,88.000" stroke-width="4.259" stroke="black" fill="none" stroke-linecap="round"></path><path d="M 368.000,88.000 C 365.134,84.376 365.122,84.402 362.000,81.000" stroke-width="4.392" stroke="black" fill="none" stroke-linecap="round"></path><path d="M 362.000,81.000 C 358.633,77.354 358.634,77.376 355.000,74.000" stroke-width="4.346" stroke="black" fill="none" stroke-linecap="round"></path><path d="M 355.000,74.000 C 351.938,71.571 352.133,71.354 349.000,69.000" stroke-width="4.536" stroke="black" fill="none" stroke-linecap="round"></path><path d="M 349.000,69.000 C 344.185,64.270 343.938,64.571 339.000,60.000" stroke-width="3.387" stroke="black" fill="none" stroke-linecap="round"></path><path d="M 339.000,60.000 C 335.407,57.621 335.685,57.270 332.000,55.000" stroke-width="3.572" stroke="black" fill="none" stroke-linecap="round"></path><path d="M 332.000,55.000 C 329.184,52.248 328.907,52.621 326.000,50.000" stroke-width="3.715" stroke="black" fill="none" stroke-linecap="round"></path><path d="M 326.000,50.000 C 320.561,46.399 320.684,46.248 315.000,43.000" stroke-width="3.996" stroke="black" fill="none" stroke-linecap="round"></path><path d="M 315.000,43.000 C 311.500,41.000 311.561,40.899 308.000,39.000" stroke-width="3.813" stroke="black" fill="none" stroke-linecap="round"></path><path d="M 308.000,39.000 C 304.600,36.800 304.500,37.000 301.000,35.000" stroke-width="3.815" stroke="black" fill="none" stroke-linecap="round"></path><path d="M 301.000,35.000 C 297.521,33.450 297.600,33.300 294.000,32.000" stroke-width="3.756" stroke="black" fill="none" stroke-linecap="round"></path><path d="M 294.000,32.000 C 289.072,29.790 289.021,29.950 284.000,28.000" stroke-width="3.638" stroke="black" fill="none" stroke-linecap="round"></path><path d="M 284.000,28.000 C 280.500,27.000 280.572,26.790 277.000,26.000" stroke-width="3.795" stroke="black" fill="none" stroke-linecap="round"></path><path d="M 277.000,26.000 C 273.530,24.882 273.500,25.000 270.000,24.000" stroke-width="3.894" stroke="black" fill="none" stroke-linecap="round"></path><path d="M 270.000,24.000 C 265.528,22.849 265.530,22.882 261.000,22.000" stroke-width="3.660" stroke="black" fill="none" stroke-linecap="round"></path><path d="M 261.000,22.000 C 257.504,21.467 257.528,21.349 254.000,21.000" stroke-width="3.826" stroke="black" fill="none" stroke-linecap="round"></path><path d="M 254.000,21.000 C 250.016,20.251 250.004,20.467 246.000,20.000" stroke-width="3.819" stroke="black" fill="none" stroke-linecap="round"></path><path d="M 246.000,20.000 C 242.000,20.000 242.016,19.751 238.000,20.000" stroke-width="3.770" stroke="black" fill="none" stroke-linecap="round"></path><path d="M 238.000,20.000 C 233.500,20.000 233.500,20.000 229.000,20.000" stroke-width="3.705" stroke="black" fill="none" stroke-linecap="round"></path><path d="M 229.000,20.000 C 224.000,20.000 224.000,20.000 219.000,20.000" stroke-width="3.589" stroke="black" fill="none" stroke-linecap="round"></path><path d="M 219.000,20.000 C 213.489,19.751 213.500,20.000 208.000,20.000" stroke-width="3.466" stroke="black" fill="none" stroke-linecap="round"></path><path d="M 208.000,20.000 C 202.413,20.016 202.489,20.251 197.000,21.000" stroke-width="3.368" stroke="black" fill="none" stroke-linecap="round"></path><path d="M 197.000,21.000 C 191.500,22.500 191.413,22.016 186.000,24.000" stroke-width="3.367" stroke="black" fill="none" stroke-linecap="round"></path><path d="M 186.000,24.000 C 180.516,25.561 180.500,25.500 175.000,27.000" stroke-width="3.309" stroke="black" fill="none" stroke-linecap="round"></path><path d="M 175.000,27.000 C 168.880,28.129 169.016,28.561 163.000,30.000" stroke-width="3.467" stroke="black" fill="none" stroke-linecap="round"></path><path d="M 163.000,30.000 C 158.100,32.300 157.880,31.629 153.000,34.000" stroke-width="3.393" stroke="black" fill="none" stroke-linecap="round"></path><path d="M 153.000,34.000 C 147.255,34.898 147.600,35.800 142.000,37.000" stroke-width="3.316" stroke="black" fill="none" stroke-linecap="round"></path><path d="M 142.000,37.000 C 137.554,39.603 137.255,38.898 133.000,42.000" stroke-width="3.495" stroke="black" fill="none" stroke-linecap="round"></path><path d="M 133.000,42.000 C 127.881,44.288 128.054,44.603 123.000,47.000" stroke-width="3.364" stroke="black" fill="none" stroke-linecap="round"></path><path d="M 123.000,47.000 C 118.923,49.385 118.881,49.288 115.000,52.000" stroke-width="3.538" stroke="black" fill="none" stroke-linecap="round"></path><path d="M 115.000,52.000 C 111.468,54.457 111.423,54.385 108.000,57.000" stroke-width="3.621" stroke="black" fill="none" stroke-linecap="round"></path><path d="M 108.000,57.000 C 104.000,60.000 103.968,59.957 100.000,63.000" stroke-width="3.565" stroke="black" fill="none" stroke-linecap="round"></path><path d="M 100.000,63.000 C 96.000,66.000 96.000,66.000 92.000,69.000" stroke-width="3.549" stroke="black" fill="none" stroke-linecap="round"></path><path d="M 92.000,69.000 C 87.878,71.849 88.000,72.000 84.000,75.000" stroke-width="3.487" stroke="black" fill="none" stroke-linecap="round"></path><path d="M 84.000,75.000 C 79.750,78.250 79.878,78.349 76.000,82.000" stroke-width="3.411" stroke="black" fill="none" stroke-linecap="round"></path><path d="M 76.000,82.000 C 72.349,85.878 72.250,85.750 69.000,90.000" stroke-width="3.446" stroke="black" fill="none" stroke-linecap="round"></path><path d="M 69.000,90.000 C 66.088,94.070 65.849,93.878 63.000,98.000" stroke-width="3.512" stroke="black" fill="none" stroke-linecap="round"></path><path d="M 63.000,98.000 C 60.500,101.000 60.588,101.070 58.000,104.000" stroke-width="3.745" stroke="black" fill="none" stroke-linecap="round"></path><path d="M 58.000,104.000 C 55.152,106.772 55.500,107.000 53.000,110.000" stroke-width="3.769" stroke="black" fill="none" stroke-linecap="round"></path><path d="M 53.000,110.000 C 51.605,113.058 51.152,112.772 50.000,116.000" stroke-width="3.993" stroke="black" fill="none" stroke-linecap="round"></path><path d="M 50.000,116.000 C 48.300,118.401 48.605,118.558 47.000,121.000" stroke-width="4.083" stroke="black" fill="none" stroke-linecap="round"></path><path d="M 47.000,121.000 C 45.770,123.432 45.800,123.401 45.000,126.000" stroke-width="4.213" stroke="black" fill="none" stroke-linecap="round"></path><path d="M 45.000,126.000 C 44.211,128.471 44.270,128.432 44.000,131.000" stroke-width="4.250" stroke="black" fill="none" stroke-linecap="round"></path><path d="M 44.000,131.000 C 44.000,134.500 43.711,134.471 44.000,138.000" stroke-width="4.008" stroke="black" fill="none" stroke-linecap="round"></path><path d="M 44.000,138.000 C 44.000,141.500 44.000,141.500 44.000,145.000" stroke-width="3.941" stroke="black" fill="none" stroke-linecap="round"></path><path d="M 44.000,145.000 C 44.000,148.500 44.000,148.500 44.000,152.000" stroke-width="3.971" stroke="black" fill="none" stroke-linecap="round"></path><path d="M 44.000,152.000 C 43.730,155.027 44.000,155.000 44.000,158.000" stroke-width="4.054" stroke="black" fill="none" stroke-linecap="round"></path><path d="M 44.000,158.000 C 44.544,160.492 44.230,160.527 45.000,163.000" stroke-width="4.200" stroke="black" fill="none" stroke-linecap="round"></path><path d="M 45.000,163.000 C 44.824,166.256 45.544,165.992 46.000,169.000" stroke-width="4.555" stroke="black" fill="none" stroke-linecap="round"></path><path d="M 378.000,51.000 C 380.500,49.000 380.500,49.000 383.000,47.000" stroke-width="5.032" stroke="black" fill="none" stroke-linecap="round"></path><path d="M 383.000,47.000 C 385.372,44.819 385.500,45.000 388.000,43.000" stroke-width="4.727" stroke="black" fill="none" stroke-linecap="round"></path><path d="M 388.000,43.000 C 392.077,40.615 391.872,40.319 396.000,38.000" stroke-width="3.892" stroke="black" fill="none" stroke-linecap="round"></path><path d="M 396.000,38.000 C 399.593,35.621 399.577,35.615 403.000,33.000" stroke-width="3.781" stroke="black" fill="none" stroke-linecap="round"></path><path d="M 403.000,33.000 C 406.113,30.624 406.093,30.621 409.000,28.000" stroke-width="3.780" stroke="black" fill="none" stroke-linecap="round"></path><path d="M 362.000,31.000 C 365.000,27.500 365.000,27.500 368.000,24.000" stroke-width="5.215" stroke="black" fill="none" stroke-linecap="round"></path><path d="M 368.000,24.000 C 371.049,20.541 371.000,20.500 374.000,17.000" stroke-width="4.009" stroke="black" fill="none" stroke-linecap="round"></path><path d="M 374.000,17.000 C 376.370,14.716 376.049,14.541 378.000,12.000" stroke-width="4.062" stroke="black" fill="none" stroke-linecap="round"></path><path d="M 378.000,12.000 C 380.000,9.500 379.370,9.716 380.000,7.000" stroke-width="4.207" stroke="black" fill="none" stroke-linecap="round"></path><path d="M 116.000,35.000 C 113.394,33.657 113.500,33.500 111.000,32.000" stroke-width="4.630" stroke="black" fill="none" stroke-linecap="round"></path><path d="M 111.000,32.000 C 106.930,29.088 106.894,29.157 103.000,26.000" stroke-width="4.428" stroke="black" fill="none" stroke-linecap="round"></path><path d="M 103.000,26.000 C 100.170,23.265 99.930,23.588 97.000,21.000" stroke-width="4.010" stroke="black" fill="none" stroke-linecap="round"></path><path d="M 97.000,21.000 C 92.923,18.615 93.170,18.265 89.000,16.000" stroke-width="3.727" stroke="black" fill="none" stroke-linecap="round"></path><path d="M 56.000,53.000 C 52.884,49.767 53.500,49.500 51.000,46.000" stroke-width="4.757" stroke="black" fill="none" stroke-linecap="round"></path><path d="M 177.000,54.000 C 173.450,54.850 173.500,55.000 170.000,56.000" stroke-width="4.527" stroke="black" fill="none" stroke-linecap="round"></path><path d="M 170.000,56.000 C 165.342,56.549 165.950,57.350 162.000,59.000" stroke-width="4.505" stroke="black" fill="none" stroke-linecap="round"></path><path d="M 162.000,59.000 C 157.987,62.686 157.842,62.049 155.000,67.000" stroke-width="4.327" stroke="black" fill="none" stroke-linecap="round"></path><path d="M 155.000,67.000 C 153.770,69.432 153.487,69.186 153.000,72.000" stroke-width="4.288" stroke="black" fill="none" stroke-linecap="round"></path><path d="M 153.000,72.000 C 152.181,74.468 152.270,74.432 152.000,77.000" stroke-width="4.315" stroke="black" fill="none" stroke-linecap="round"></path><path d="M 152.000,77.000 C 149.809,83.079 151.681,81.468 152.000,86.000" stroke-width="4.407" stroke="black" fill="none" stroke-linecap="round"></path><path d="M 152.000,86.000 C 156.389,88.186 154.309,89.079 161.000,89.000" stroke-width="4.401" stroke="black" fill="none" stroke-linecap="round"></path><path d="M 161.000,89.000 C 165.000,89.000 164.889,89.686 169.000,89.000" stroke-width="3.981" stroke="black" fill="none" stroke-linecap="round"></path><path d="M 169.000,89.000 C 172.027,89.270 172.000,89.000 175.000,89.000" stroke-width="4.057" stroke="black" fill="none" stroke-linecap="round"></path><path d="M 175.000,89.000 C 177.783,89.108 177.527,88.770 180.000,88.000" stroke-width="4.201" stroke="black" fill="none" stroke-linecap="round"></path><path d="M 180.000,88.000 C 182.611,86.124 182.783,86.608 185.000,84.000" stroke-width="4.071" stroke="black" fill="none" stroke-linecap="round"></path><path d="M 185.000,84.000 C 188.277,82.529 187.111,82.124 189.000,80.000" stroke-width="4.130" stroke="black" fill="none" stroke-linecap="round"></path><path d="M 189.000,80.000 C 189.852,74.825 190.277,75.529 189.000,70.000" stroke-width="4.259" stroke="black" fill="none" stroke-linecap="round"></path><path d="M 189.000,70.000 C 188.500,65.500 188.352,66.325 186.000,63.000" stroke-width="4.489" stroke="black" fill="none" stroke-linecap="round"></path><path d="M 186.000,63.000 C 182.643,60.972 183.500,60.500 179.000,60.000" stroke-width="4.563" stroke="black" fill="none" stroke-linecap="round"></path><path d="M 179.000,60.000 C 174.990,59.000 175.143,58.972 171.000,59.000" stroke-width="4.533" stroke="black" fill="none" stroke-linecap="round"></path><path d="M 171.000,59.000 C 167.140,58.336 167.990,59.000 165.000,60.000" stroke-width="4.683" stroke="black" fill="none" stroke-linecap="round"></path><path d="M 295.000,57.000 C 287.977,57.302 288.000,57.500 281.000,58.000" stroke-width="4.996" stroke="black" fill="none" stroke-linecap="round"></path><path d="M 281.000,58.000 C 277.959,58.317 277.977,58.302 275.000,59.000" stroke-width="4.366" stroke="black" fill="none" stroke-linecap="round"></path><path d="M 275.000,59.000 C 271.307,59.530 271.459,59.817 268.000,61.000" stroke-width="4.107" stroke="black" fill="none" stroke-linecap="round"></path><path d="M 268.000,61.000 C 261.376,62.916 262.307,63.530 257.000,67.000" stroke-width="4.109" stroke="black" fill="none" stroke-linecap="round"></path><path d="M 257.000,67.000 C 253.838,70.811 253.876,69.916 253.000,75.000" stroke-width="4.306" stroke="black" fill="none" stroke-linecap="round"></path><path d="M 253.000,75.000 C 252.297,79.445 252.338,78.311 254.000,82.000" stroke-width="4.529" stroke="black" fill="none" stroke-linecap="round"></path><path d="M 254.000,82.000 C 256.380,83.626 255.297,83.945 259.000,84.000" stroke-width="4.388" stroke="black" fill="none" stroke-linecap="round"></path><path d="M 259.000,84.000 C 263.500,84.000 263.380,84.626 268.000,84.000" stroke-width="4.410" stroke="black" fill="none" stroke-linecap="round"></path><path d="M 268.000,84.000 C 273.009,85.228 272.500,84.000 277.000,84.000" stroke-width="4.436" stroke="black" fill="none" stroke-linecap="round"></path><path d="M 277.000,84.000 C 279.277,82.216 279.509,83.228 281.000,80.000" stroke-width="4.236" stroke="black" fill="none" stroke-linecap="round"></path><path d="M 281.000,80.000 C 283.031,77.712 282.777,77.716 284.000,75.000" stroke-width="4.203" stroke="black" fill="none" stroke-linecap="round"></path><path d="M 284.000,75.000 C 285.394,70.543 285.531,70.712 286.000,66.000" stroke-width="4.374" stroke="black" fill="none" stroke-linecap="round"></path><path d="M 286.000,66.000 C 286.967,62.661 286.394,63.043 286.000,60.000" stroke-width="4.637" stroke="black" fill="none" stroke-linecap="round"></path><path d="M 286.000,60.000 C 284.656,56.328 284.967,57.161 282.000,55.000" stroke-width="4.719" stroke="black" fill="none" stroke-linecap="round"></path><path d="M 282.000,55.000 C 277.750,53.250 278.656,53.328 274.000,54.000" stroke-width="4.578" stroke="black" fill="none" stroke-linecap="round"></path><path d="M 261.000,114.000 C 263.808,117.343 262.500,117.500 264.000,121.000" stroke-width="5.242" stroke="black" fill="none" stroke-linecap="round"></path><path d="M 264.000,121.000 C 263.386,127.108 264.308,126.843 262.000,133.000" stroke-width="4.446" stroke="black" fill="none" stroke-linecap="round"></path><path d="M 262.000,133.000 C 260.920,135.471 261.386,135.608 260.000,138.000" stroke-width="4.277" stroke="black" fill="none" stroke-linecap="round"></path><path d="M 260.000,138.000 C 259.080,141.029 258.920,140.971 258.000,144.000" stroke-width="4.102" stroke="black" fill="none" stroke-linecap="round"></path><path d="M 258.000,144.000 C 257.000,146.500 257.080,146.529 256.000,149.000" stroke-width="4.176" stroke="black" fill="none" stroke-linecap="round"></path><path d="M 256.000,149.000 C 255.272,151.638 255.000,151.500 254.000,154.000" stroke-width="4.199" stroke="black" fill="none" stroke-linecap="round"></path><path d="M 254.000,154.000 C 251.426,157.956 251.772,158.138 249.000,162.000" stroke-width="4.358" stroke="black" fill="none" stroke-linecap="round"></path><path d="M 249.000,162.000 C 247.750,166.250 246.926,165.456 245.000,169.000" stroke-width="4.471" stroke="black" fill="none" stroke-linecap="round"></path><path d="M 245.000,169.000 C 241.705,171.575 242.250,171.750 238.000,173.000" stroke-width="4.716" stroke="black" fill="none" stroke-linecap="round"></path><path d="M 238.000,173.000 C 235.022,173.768 235.205,174.075 232.000,174.000" stroke-width="4.783" stroke="black" fill="none" stroke-linecap="round"></path><path d="M 232.000,174.000 C 228.490,174.205 228.522,174.268 225.000,174.000" stroke-width="4.682" stroke="black" fill="none" stroke-linecap="round"></path><path d="M 225.000,174.000 C 219.944,173.824 219.990,173.705 215.000,173.000" stroke-width="4.417" stroke="black" fill="none" stroke-linecap="round"></path><path d="M 215.000,173.000 C 210.932,172.210 210.944,172.324 207.000,171.000" stroke-width="4.456" stroke="black" fill="none" stroke-linecap="round"></path><path d="M 207.000,171.000 C 204.212,170.475 204.432,170.210 202.000,169.000" stroke-width="4.325" stroke="black" fill="none" stroke-linecap="round"></path><path d="M 202.000,169.000 C 198.063,166.369 198.212,166.475 195.000,163.000" stroke-width="4.375" stroke="black" fill="none" stroke-linecap="round"></path><path d="M 195.000,163.000 C 193.692,160.369 193.063,160.869 192.000,158.000" stroke-width="4.243" stroke="black" fill="none" stroke-linecap="round"></path><path d="M 192.000,158.000 C 187.858,153.859 188.692,153.369 185.000,149.000" stroke-width="4.243" stroke="black" fill="none" stroke-linecap="round"></path><path d="M 185.000,149.000 C 183.168,145.089 182.858,145.359 182.000,141.000" stroke-width="4.398" stroke="black" fill="none" stroke-linecap="round"></path><path d="M 182.000,141.000 C 180.513,134.026 181.168,138.089 181.000,135.000" stroke-width="4.653" stroke="black" fill="none" stroke-linecap="round"></path><path d="M 264.000,144.000 C 263.508,139.939 264.000,140.000 264.000,136.000" stroke-width="5.343" stroke="black" fill="none" stroke-linecap="round"></path><path d="M 264.000,136.000 C 264.790,131.932 264.508,131.939 266.000,128.000" stroke-width="4.744" stroke="black" fill="none" stroke-linecap="round"></path><path d="M 266.000,128.000 C 267.000,125.500 266.790,125.432 268.000,123.000" stroke-width="4.403" stroke="black" fill="none" stroke-linecap="round"></path><path d="M 268.000,123.000 C 268.800,120.401 269.000,120.500 270.000,118.000" stroke-width="4.310" stroke="black" fill="none" stroke-linecap="round"></path><path d="M 270.000,118.000 C 271.257,115.325 271.300,115.401 273.000,113.000" stroke-width="4.177" stroke="black" fill="none" stroke-linecap="round"></path><path d="M 273.000,113.000 C 275.633,109.086 275.757,109.325 279.000,106.000" stroke-width="4.348" stroke="black" fill="none" stroke-linecap="round"></path><path d="M 279.000,106.000 C 281.648,102.838 281.633,103.586 285.000,102.000" stroke-width="4.564" stroke="black" fill="none" stroke-linecap="round"></path><path d="M 285.000,102.000 C 290.000,102.000 289.648,100.838 295.000,102.000" stroke-width="4.410" stroke="black" fill="none" stroke-linecap="round"></path><path d="M 295.000,102.000 C 300.000,102.000 300.000,102.000 305.000,102.000" stroke-width="4.365" stroke="black" fill="none" stroke-linecap="round"></path><path d="M 305.000,102.000 C 309.291,100.522 308.500,102.000 312.000,102.000" stroke-width="4.571" stroke="black" fill="none" stroke-linecap="round"></path><path d="M 312.000,102.000 C 314.600,104.734 314.791,103.522 316.000,108.000" stroke-width="4.602" stroke="black" fill="none" stroke-linecap="round"></path><path d="M 316.000,108.000 C 317.572,111.930 317.600,111.734 318.000,116.000" stroke-width="4.549" stroke="black" fill="none" stroke-linecap="round"></path><path d="M 318.000,116.000 C 318.000,121.500 318.572,121.430 318.000,127.000" stroke-width="4.485" stroke="black" fill="none" stroke-linecap="round"></path><path d="M 318.000,127.000 C 318.000,130.500 318.000,130.500 318.000,134.000" stroke-width="4.609" stroke="black" fill="none" stroke-linecap="round"></path><path d="M 318.000,134.000 C 317.751,141.000 318.000,137.500 318.000,141.000" stroke-width="4.824" stroke="black" fill="none" stroke-linecap="round"></path><path d="M 318.000,141.000 C 317.715,137.213 318.251,141.000 319.000,134.000" stroke-width="5.270" stroke="black" fill="none" stroke-linecap="round"></path><path d="M 319.000,134.000 C 321.385,129.923 320.715,129.713 324.000,126.000" stroke-width="4.632" stroke="black" fill="none" stroke-linecap="round"></path><path d="M 324.000,126.000 C 326.117,122.145 326.385,122.423 329.000,119.000" stroke-width="4.491" stroke="black" fill="none" stroke-linecap="round"></path><path d="M 329.000,119.000 C 331.685,115.934 331.617,116.145 335.000,114.000" stroke-width="4.549" stroke="black" fill="none" stroke-linecap="round"></path><path d="M 335.000,114.000 C 337.955,112.830 337.685,112.434 341.000,112.000" stroke-width="4.668" stroke="black" fill="none" stroke-linecap="round"></path><path d="M 341.000,112.000 C 343.471,111.211 343.455,111.330 346.000,111.000" stroke-width="4.952" stroke="black" fill="none" stroke-linecap="round"></path><path d="M 346.000,111.000 C 349.500,111.000 349.471,110.711 353.000,111.000" stroke-width="4.948" stroke="black" fill="none" stroke-linecap="round"></path><path d="M 353.000,111.000 C 356.798,110.015 356.500,111.000 360.000,111.000" stroke-width="4.930" stroke="black" fill="none" stroke-linecap="round"></path><path d="M 360.000,111.000 C 363.223,112.728 363.298,112.015 366.000,115.000" stroke-width="4.911" stroke="black" fill="none" stroke-linecap="round"></path><path d="M 366.000,115.000 C 369.013,117.162 368.723,117.228 371.000,120.000" stroke-width="4.763" stroke="black" fill="none" stroke-linecap="round"></path><path d="M 371.000,120.000 C 372.296,122.417 372.513,122.162 373.000,125.000" stroke-width="4.814" stroke="black" fill="none" stroke-linecap="round"></path><path d="M 373.000,125.000 C 373.570,127.990 373.796,127.917 374.000,131.000" stroke-width="4.752" stroke="black" fill="none" stroke-linecap="round"></path><path d="M 374.000,131.000 C 374.732,134.986 374.570,134.990 375.000,139.000" stroke-width="4.607" stroke="black" fill="none" stroke-linecap="round"></path><path d="M 375.000,139.000 C 374.768,142.514 375.232,142.486 375.000,146.000" stroke-width="4.630" stroke="black" fill="none" stroke-linecap="round"></path><path d="M 375.000,146.000 C 375.732,149.986 375.268,150.014 376.000,154.000" stroke-width="4.553" stroke="black" fill="none" stroke-linecap="round"></path><path d="M 376.000,154.000 C 376.000,157.500 376.232,157.486 376.000,161.000" stroke-width="4.829" stroke="black" fill="none" stroke-linecap="round"></path><path d="M 376.000,161.000 C 376.270,164.027 376.000,164.000 376.000,167.000" stroke-width="5.058" stroke="black" fill="none" stroke-linecap="round"></path><path d="M 376.000,167.000 C 374.822,172.712 375.770,169.527 375.000,172.000" stroke-width="5.190" stroke="black" fill="none" stroke-linecap="round"></path><path d="M 375.000,172.000 C 375.469,167.288 375.322,170.712 377.000,163.000" stroke-width="5.232" stroke="black" fill="none" stroke-linecap="round"></path><path d="M 377.000,163.000 C 378.435,160.459 377.969,160.288 380.000,158.000" stroke-width="4.455" stroke="black" fill="none" stroke-linecap="round"></path><path d="M 380.000,158.000 C 381.777,154.829 381.935,154.959 384.000,152.000" stroke-width="4.089" stroke="black" fill="none" stroke-linecap="round"></path><path d="M 384.000,152.000 C 387.568,148.057 387.277,147.829 391.000,144.000" stroke-width="4.224" stroke="black" fill="none" stroke-linecap="round"></path><path d="M 391.000,144.000 C 392.495,140.670 393.068,141.557 395.000,139.000" stroke-width="4.554" stroke="black" fill="none" stroke-linecap="round"></path><path d="M 395.000,139.000 C 397.473,138.230 396.995,137.670 400.000,138.000" stroke-width="4.772" stroke="black" fill="none" stroke-linecap="round"></path><path d="M 400.000,138.000 C 403.211,137.239 402.973,137.730 406.000,138.000" stroke-width="5.026" stroke="black" fill="none" stroke-linecap="round"></path><path d="M 406.000,138.000 C 409.000,139.000 408.711,138.739 411.000,141.000" stroke-width="5.137" stroke="black" fill="none" stroke-linecap="round"></path><path d="M 411.000,141.000 C 413.261,143.289 413.000,143.000 414.000,146.000" stroke-width="5.159" stroke="black" fill="none" stroke-linecap="round"></path><path d="M 414.000,146.000 C 414.000,149.000 414.761,148.789 414.000,152.000" stroke-width="5.047" stroke="black" fill="none" stroke-linecap="round"></path><path d="M 414.000,152.000 C 414.000,155.000 414.000,155.000 414.000,158.000" stroke-width="4.887" stroke="black" fill="none" stroke-linecap="round"></path><path d="M 414.000,158.000 C 414.525,161.585 414.000,161.500 414.000,165.000" stroke-width="4.746" stroke="black" fill="none" stroke-linecap="round"></path><path d="M 414.000,165.000 C 413.652,168.403 413.525,168.085 412.000,171.000" stroke-width="4.728" stroke="black" fill="none" stroke-linecap="round"></path><path d="M 412.000,171.000 C 409.723,173.772 410.152,173.903 407.000,176.000" stroke-width="4.661" stroke="black" fill="none" stroke-linecap="round"></path><path d="M 407.000,176.000 C 404.069,178.111 404.223,178.272 401.000,180.000" stroke-width="4.611" stroke="black" fill="none" stroke-linecap="round"></path><path d="M 401.000,180.000 C 397.500,182.000 397.569,182.111 394.000,184.000" stroke-width="4.528" stroke="black" fill="none" stroke-linecap="round"></path><path d="M 394.000,184.000 C 390.643,186.319 390.500,186.000 387.000,188.000" stroke-width="4.503" stroke="black" fill="none" stroke-linecap="round"></path><path d="M 387.000,188.000 C 383.971,188.920 384.143,189.319 381.000,190.000" stroke-width="4.697" stroke="black" fill="none" stroke-linecap="round"></path><path d="M 381.000,190.000 C 376.865,193.081 378.471,190.920 376.000,192.000" stroke-width="4.793" stroke="black" fill="none" stroke-linecap="round"></path><path d="M 376.000,192.000 C 376.261,188.449 374.865,190.581 377.000,185.000" stroke-width="5.140" stroke="black" fill="none" stroke-linecap="round"></path><path d="M 377.000,185.000 C 378.183,181.541 377.761,181.449 379.000,178.000" stroke-width="4.774" stroke="black" fill="none" stroke-linecap="round"></path><path d="M 373.000,162.000 C 372.500,164.500 372.500,164.500 372.000,167.000" stroke-width="5.526" stroke="black" fill="none" stroke-linecap="round"></path><path d="M 372.000,167.000 C 371.730,169.568 371.500,169.500 371.000,172.000" stroke-width="5.066" stroke="black" fill="none" stroke-linecap="round"></path><path d="M 371.000,172.000 C 370.283,174.649 370.230,174.568 369.000,177.000" stroke-width="4.903" stroke="black" fill="none" stroke-linecap="round"></path><path d="M 369.000,177.000 C 367.675,180.811 367.283,180.149 365.000,183.000" stroke-width="4.912" stroke="black" fill="none" stroke-linecap="round"></path><path d="M 365.000,183.000 C 361.614,184.888 362.175,185.311 358.000,186.000" stroke-width="4.881" stroke="black" fill="none" stroke-linecap="round"></path><path d="M 358.000,186.000 C 355.022,186.768 355.114,186.888 352.000,187.000" stroke-width="4.966" stroke="black" fill="none" stroke-linecap="round"></path><path d="M 352.000,187.000 C 348.273,187.818 348.522,187.268 345.000,187.000" stroke-width="4.935" stroke="black" fill="none" stroke-linecap="round"></path><path d="M 345.000,187.000 C 342.500,185.500 342.273,186.318 340.000,184.000" stroke-width="4.810" stroke="black" fill="none" stroke-linecap="round"></path><path d="M 340.000,184.000 C 337.351,182.710 337.500,182.500 335.000,181.000" stroke-width="4.789" stroke="black" fill="none" stroke-linecap="round"></path><path d="M 335.000,181.000 C 332.093,178.379 331.851,178.710 329.000,176.000" stroke-width="4.637" stroke="black" fill="none" stroke-linecap="round"></path><path d="M 329.000,176.000 C 324.652,174.182 325.593,173.379 322.000,171.000" stroke-width="4.585" stroke="black" fill="none" stroke-linecap="round"></path><path d="M 322.000,171.000 C 320.198,167.594 319.652,168.182 319.000,164.000" stroke-width="4.575" stroke="black" fill="none" stroke-linecap="round"></path><path d="M 319.000,164.000 C 318.337,161.524 318.198,161.594 318.000,159.000" stroke-width="4.354" stroke="black" fill="none" stroke-linecap="round"></path><path d="M 318.000,159.000 C 317.663,153.976 317.337,154.024 317.000,149.000" stroke-width="4.324" stroke="black" fill="none" stroke-linecap="round"></path><path d="M 317.000,149.000 C 316.181,146.532 316.663,146.476 316.000,144.000" stroke-width="4.283" stroke="black" fill="none" stroke-linecap="round"></path><path d="M 316.000,144.000 C 316.000,139.500 315.681,139.532 316.000,135.000" stroke-width="4.397" stroke="black" fill="none" stroke-linecap="round"></path><path d="M 321.000,127.000 C 319.886,131.980 320.000,132.000 319.000,137.000" stroke-width="5.220" stroke="black" fill="none" stroke-linecap="round"></path><path d="M 319.000,137.000 C 319.026,140.664 318.386,140.480 318.000,144.000" stroke-width="4.279" stroke="black" fill="none" stroke-linecap="round"></path><path d="M 318.000,144.000 C 316.605,147.058 317.026,147.164 315.000,150.000" stroke-width="4.151" stroke="black" fill="none" stroke-linecap="round"></path><path d="M 315.000,150.000 C 313.657,152.606 313.605,152.558 312.000,155.000" stroke-width="4.177" stroke="black" fill="none" stroke-linecap="round"></path><path d="M 312.000,155.000 C 309.048,159.037 309.157,159.106 306.000,163.000" stroke-width="4.294" stroke="black" fill="none" stroke-linecap="round"></path><path d="M 306.000,163.000 C 304.355,165.906 304.048,165.537 302.000,168.000" stroke-width="4.593" stroke="black" fill="none" stroke-linecap="round"></path><path d="M 302.000,168.000 C 299.740,170.368 299.855,169.906 297.000,171.000" stroke-width="4.902" stroke="black" fill="none" stroke-linecap="round"></path><path d="M 297.000,171.000 C 292.909,171.558 293.240,171.868 289.000,171.000" stroke-width="4.883" stroke="black" fill="none" stroke-linecap="round"></path><path d="M 289.000,171.000 C 285.341,170.821 285.909,170.558 283.000,169.000" stroke-width="5.060" stroke="black" fill="none" stroke-linecap="round"></path><path d="M 283.000,169.000 C 281.112,166.668 280.841,167.321 280.000,164.000" stroke-width="4.876" stroke="black" fill="none" stroke-linecap="round"></path><path d="M 280.000,164.000 C 279.150,160.449 278.612,160.668 278.000,157.000" stroke-width="4.667" stroke="black" fill="none" stroke-linecap="round"></path><path d="M 278.000,157.000 C 276.648,154.594 277.150,154.449 276.000,152.000" stroke-width="4.426" stroke="black" fill="none" stroke-linecap="round"></path><path d="M 276.000,152.000 C 275.854,148.416 275.148,148.594 275.000,145.000" stroke-width="4.045" stroke="black" fill="none" stroke-linecap="round"></path><path d="M 275.000,145.000 C 273.858,140.335 273.854,140.416 272.000,136.000" stroke-width="4.304" stroke="black" fill="none" stroke-linecap="round"></path><path d="M 189.000,142.000 C 188.747,139.429 188.500,139.500 188.000,137.000" stroke-width="5.471" stroke="black" fill="none" stroke-linecap="round"></path><path d="M 188.000,137.000 C 186.681,132.921 186.747,132.929 185.000,129.000" stroke-width="4.976" stroke="black" fill="none" stroke-linecap="round"></path><path d="M 185.000,129.000 C 183.687,125.892 183.681,125.921 182.000,123.000" stroke-width="4.898" stroke="black" fill="none" stroke-linecap="round"></path><path d="M 182.000,123.000 C 180.384,119.648 180.187,119.892 178.000,117.000" stroke-width="4.919" stroke="black" fill="none" stroke-linecap="round"></path><path d="M 178.000,117.000 C 175.389,115.124 175.884,114.648 173.000,113.000" stroke-width="4.974" stroke="black" fill="none" stroke-linecap="round"></path><path d="M 173.000,113.000 C 171.426,109.971 170.889,111.124 169.000,109.000" stroke-width="5.036" stroke="black" fill="none" stroke-linecap="round"></path><path d="M 169.000,109.000 C 165.984,108.770 166.426,107.971 163.000,109.000" stroke-width="5.184" stroke="black" fill="none" stroke-linecap="round"></path><path d="M 163.000,109.000 C 159.149,108.688 159.484,109.270 156.000,110.000" stroke-width="5.116" stroke="black" fill="none" stroke-linecap="round"></path><path d="M 156.000,110.000 C 153.252,111.748 153.149,111.188 151.000,114.000" stroke-width="4.858" stroke="black" fill="none" stroke-linecap="round"></path><path d="M 151.000,114.000 C 147.806,116.613 148.252,116.748 146.000,120.000" stroke-width="4.674" stroke="black" fill="none" stroke-linecap="round"></path><path d="M 146.000,120.000 C 144.219,124.430 143.806,124.113 143.000,129.000" stroke-width="3.811" stroke="black" fill="none" stroke-linecap="round"></path><path d="M 143.000,129.000 C 142.683,132.041 142.219,131.930 142.000,135.000" stroke-width="4.037" stroke="black" fill="none" stroke-linecap="round"></path><path d="M 142.000,135.000 C 140.761,138.449 141.183,138.541 140.000,142.000" stroke-width="4.134" stroke="black" fill="none" stroke-linecap="round"></path><path d="M 140.000,142.000 C 139.538,145.506 139.261,145.449 139.000,149.000" stroke-width="4.020" stroke="black" fill="none" stroke-linecap="round"></path><path d="M 139.000,149.000 C 138.430,151.990 138.538,152.006 138.000,155.000" stroke-width="4.105" stroke="black" fill="none" stroke-linecap="round"></path><path d="M 138.000,155.000 C 137.287,158.987 137.430,158.990 137.000,163.000" stroke-width="3.898" stroke="black" fill="none" stroke-linecap="round"></path><path d="M 137.000,163.000 C 137.270,166.027 136.787,165.987 137.000,169.000" stroke-width="4.031" stroke="black" fill="none" stroke-linecap="round"></path><path d="M 137.000,169.000 C 136.230,171.473 136.770,171.527 136.000,174.000" stroke-width="4.192" stroke="black" fill="none" stroke-linecap="round"></path><path d="M 136.000,174.000 C 135.292,177.167 135.730,176.973 136.000,180.000" stroke-width="4.121" stroke="black" fill="none" stroke-linecap="round"></path><path d="M 136.000,180.000 C 136.684,183.941 136.792,183.167 139.000,186.000" stroke-width="4.494" stroke="black" fill="none" stroke-linecap="round"></path><path d="M 139.000,186.000 C 141.923,187.341 141.184,187.941 145.000,188.000" stroke-width="4.634" stroke="black" fill="none" stroke-linecap="round"></path><path d="M 145.000,188.000 C 148.987,188.713 148.923,188.841 153.000,189.000" stroke-width="4.534" stroke="black" fill="none" stroke-linecap="round"></path><path d="M 153.000,189.000 C 156.414,190.207 155.987,189.213 159.000,189.000" stroke-width="4.690" stroke="black" fill="none" stroke-linecap="round"></path><path d="M 159.000,189.000 C 163.655,185.676 163.914,186.707 168.000,182.000" stroke-width="4.368" stroke="black" fill="none" stroke-linecap="round"></path><path d="M 168.000,182.000 C 170.124,180.111 170.155,180.176 172.000,178.000" stroke-width="4.217" stroke="black" fill="none" stroke-linecap="round"></path><path d="M 172.000,178.000 C 174.119,175.587 174.124,175.611 176.000,173.000" stroke-width="4.124" stroke="black" fill="none" stroke-linecap="round"></path><path d="M 176.000,173.000 C 178.000,170.000 178.119,170.087 180.000,167.000" stroke-width="3.948" stroke="black" fill="none" stroke-linecap="round"></path><path d="M 180.000,167.000 C 182.111,164.069 182.000,164.000 184.000,161.000" stroke-width="3.898" stroke="black" fill="none" stroke-linecap="round"></path><path d="M 184.000,161.000 C 186.200,157.600 186.111,157.569 188.000,154.000" stroke-width="3.786" stroke="black" fill="none" stroke-linecap="round"></path><path d="M 188.000,154.000 C 189.634,150.551 189.700,150.600 191.000,147.000" stroke-width="3.804" stroke="black" fill="none" stroke-linecap="round"></path><path d="M 191.000,147.000 C 192.170,144.045 192.134,144.051 193.000,141.000" stroke-width="3.960" stroke="black" fill="none" stroke-linecap="round"></path><path d="M 193.000,141.000 C 193.819,138.532 193.670,138.545 194.000,136.000" stroke-width="4.210" stroke="black" fill="none" stroke-linecap="round"></path><path d="M 194.000,136.000 C 195.719,130.438 194.319,131.532 194.000,127.000" stroke-width="4.355" stroke="black" fill="none" stroke-linecap="round"></path><path d="M 146.000,142.000 C 144.478,138.064 145.000,138.000 144.000,134.000" stroke-width="5.312" stroke="black" fill="none" stroke-linecap="round"></path><path d="M 144.000,134.000 C 144.000,129.500 143.478,129.564 144.000,125.000" stroke-width="4.676" stroke="black" fill="none" stroke-linecap="round"></path><path d="M 144.000,125.000 C 144.289,121.471 144.000,121.500 144.000,118.000" stroke-width="4.668" stroke="black" fill="none" stroke-linecap="round"></path><path d="M 144.000,118.000 C 144.450,114.864 143.789,115.471 143.000,113.000" stroke-width="4.835" stroke="black" fill="none" stroke-linecap="round"></path><path d="M 143.000,113.000 C 140.336,109.890 140.950,110.364 137.000,109.000" stroke-width="4.883" stroke="black" fill="none" stroke-linecap="round"></path><path d="M 137.000,109.000 C 132.500,109.000 132.836,107.890 128.000,109.000" stroke-width="4.791" stroke="black" fill="none" stroke-linecap="round"></path><path d="M 128.000,109.000 C 123.939,108.508 124.000,109.000 120.000,109.000" stroke-width="4.673" stroke="black" fill="none" stroke-linecap="round"></path><path d="M 120.000,109.000 C 115.792,109.483 115.939,109.508 112.000,111.000" stroke-width="4.570" stroke="black" fill="none" stroke-linecap="round"></path><path d="M 112.000,111.000 C 108.048,112.460 108.292,112.483 105.000,115.000" stroke-width="4.516" stroke="black" fill="none" stroke-linecap="round"></path><path d="M 105.000,115.000 C 102.522,118.019 102.048,117.460 100.000,121.000" stroke-width="4.539" stroke="black" fill="none" stroke-linecap="round"></path><path d="M 100.000,121.000 C 96.372,124.145 97.022,124.519 94.000,128.000" stroke-width="4.438" stroke="black" fill="none" stroke-linecap="round"></path><path d="M 94.000,128.000 C 92.830,130.955 92.372,130.645 92.000,134.000" stroke-width="4.196" stroke="black" fill="none" stroke-linecap="round"></path><path d="M 92.000,134.000 C 91.230,136.473 91.330,136.455 91.000,139.000" stroke-width="4.244" stroke="black" fill="none" stroke-linecap="round"></path><path d="M 91.000,139.000 C 91.000,142.000 90.730,141.973 91.000,145.000" stroke-width="4.136" stroke="black" fill="none" stroke-linecap="round"></path><path d="M 91.000,145.000 C 91.000,149.500 91.000,149.500 91.000,154.000" stroke-width="4.330" stroke="black" fill="none" stroke-linecap="round"></path><path d="M 91.000,154.000 C 89.756,158.015 91.000,157.500 91.000,161.000" stroke-width="4.603" stroke="black" fill="none" stroke-linecap="round"></path><path d="M 91.000,161.000 C 93.387,163.624 92.256,164.015 96.000,166.000" stroke-width="4.623" stroke="black" fill="none" stroke-linecap="round"></path><path d="M 96.000,166.000 C 98.880,168.660 98.887,168.624 102.000,171.000" stroke-width="4.571" stroke="black" fill="none" stroke-linecap="round"></path><path d="M 102.000,171.000 C 104.851,173.283 104.880,173.160 108.000,175.000" stroke-width="4.585" stroke="black" fill="none" stroke-linecap="round"></path><path d="M 108.000,175.000 C 110.385,176.598 110.351,176.283 113.000,177.000" stroke-width="4.758" stroke="black" fill="none" stroke-linecap="round"></path><path d="M 113.000,177.000 C 117.073,177.524 116.885,177.598 121.000,177.000" stroke-width="4.839" stroke="black" fill="none" stroke-linecap="round"></path><path d="M 121.000,177.000 C 125.105,176.930 124.573,176.524 128.000,175.000" stroke-width="4.871" stroke="black" fill="none" stroke-linecap="round"></path><path d="M 128.000,175.000 C 130.848,172.228 131.105,172.930 133.000,169.000" stroke-width="4.621" stroke="black" fill="none" stroke-linecap="round"></path><path d="M 133.000,169.000 C 134.595,166.044 134.848,166.228 136.000,163.000" stroke-width="4.675" stroke="black" fill="none" stroke-linecap="round"></path><path d="M 136.000,163.000 C 137.963,159.630 137.595,159.544 139.000,156.000" stroke-width="4.601" stroke="black" fill="none" stroke-linecap="round"></path><path d="M 139.000,156.000 C 139.500,152.500 139.963,152.630 140.000,149.000" stroke-width="4.640" stroke="black" fill="none" stroke-linecap="round"></path><path d="M 140.000,149.000 C 140.749,145.518 140.500,145.500 141.000,142.000" stroke-width="4.617" stroke="black" fill="none" stroke-linecap="round"></path><path d="M 141.000,142.000 C 140.711,138.471 141.249,138.518 141.000,135.000" stroke-width="4.696" stroke="black" fill="none" stroke-linecap="round"></path><path d="M 91.000,149.000 C 90.613,144.982 90.500,145.000 90.000,141.000" stroke-width="5.282" stroke="black" fill="none" stroke-linecap="round"></path><path d="M 90.000,141.000 C 89.500,138.500 89.613,138.482 89.000,136.000" stroke-width="4.575" stroke="black" fill="none" stroke-linecap="round"></path><path d="M 89.000,136.000 C 88.908,133.360 88.500,133.500 88.000,131.000" stroke-width="4.354" stroke="black" fill="none" stroke-linecap="round"></path><path d="M 88.000,131.000 C 86.857,126.143 86.408,126.860 84.000,123.000" stroke-width="4.423" stroke="black" fill="none" stroke-linecap="round"></path><path d="M 84.000,123.000 C 81.203,120.641 81.857,120.643 78.000,120.000" stroke-width="4.580" stroke="black" fill="none" stroke-linecap="round"></path><path d="M 78.000,120.000 C 73.333,119.188 73.703,119.141 69.000,120.000" stroke-width="4.466" stroke="black" fill="none" stroke-linecap="round"></path><path d="M 69.000,120.000 C 65.156,120.992 65.333,120.688 62.000,123.000" stroke-width="4.539" stroke="black" fill="none" stroke-linecap="round"></path><path d="M 62.000,123.000 C 59.141,124.528 59.656,124.492 58.000,127.000" stroke-width="4.264" stroke="black" fill="none" stroke-linecap="round"></path><path d="M 58.000,127.000 C 56.966,131.493 56.141,131.028 56.000,136.000" stroke-width="4.335" stroke="black" fill="none" stroke-linecap="round"></path><path d="M 56.000,136.000 C 55.169,138.467 55.466,138.493 55.000,141.000" stroke-width="4.330" stroke="black" fill="none" stroke-linecap="round"></path><path d="M 55.000,141.000 C 55.000,146.000 54.669,145.967 55.000,151.000" stroke-width="4.299" stroke="black" fill="none" stroke-linecap="round"></path><path d="M 55.000,151.000 C 54.191,156.147 55.000,156.000 55.000,161.000" stroke-width="4.290" stroke="black" fill="none" stroke-linecap="round"></path><path d="M 55.000,161.000 C 56.199,165.141 55.691,165.147 58.000,169.000" stroke-width="4.432" stroke="black" fill="none" stroke-linecap="round"></path><path d="M 58.000,169.000 C 59.361,173.097 59.699,172.641 62.000,176.000" stroke-width="4.512" stroke="black" fill="none" stroke-linecap="round"></path><path d="M 62.000,176.000 C 64.734,178.600 64.361,178.597 68.000,180.000" stroke-width="4.601" stroke="black" fill="none" stroke-linecap="round"></path><path d="M 68.000,180.000 C 71.972,181.137 71.734,181.600 76.000,182.000" stroke-width="4.549" stroke="black" fill="none" stroke-linecap="round"></path><path d="M 76.000,182.000 C 78.978,182.768 78.972,182.637 82.000,183.000" stroke-width="4.688" stroke="black" fill="none" stroke-linecap="round"></path><path d="M 82.000,183.000 C 86.291,184.478 85.478,183.268 89.000,183.000" stroke-width="4.849" stroke="black" fill="none" stroke-linecap="round"></path><path d="M 89.000,183.000 C 91.738,180.282 91.791,181.478 93.000,177.000" stroke-width="4.734" stroke="black" fill="none" stroke-linecap="round"></path><path d="M 93.000,177.000 C 93.419,173.486 94.238,173.782 94.000,170.000" stroke-width="4.644" stroke="black" fill="none" stroke-linecap="round"></path><path d="M 94.000,170.000 C 95.000,167.514 94.419,167.486 95.000,165.000" stroke-width="4.815" stroke="black" fill="none" stroke-linecap="round"></path><path d="M 95.000,165.000 C 94.963,161.370 95.000,161.514 94.000,158.000" stroke-width="4.885" stroke="black" fill="none" stroke-linecap="round"></path><path d="M 94.000,158.000 C 93.458,153.458 92.963,154.370 91.000,151.000" stroke-width="4.679" stroke="black" fill="none" stroke-linecap="round"></path></svg>