<svg xmlns="http://www.w3.org/2000/svg" xmlns:xlink="http://www.w3.org/1999/xlink" viewBox="0 0 453 236" width="453" height="236"><path d="M 53.500,96.000 C 57.504,96.467 57.500,96.500 61.500,97.000" stroke-width="4.434" stroke="black" fill="none" stroke-linecap="round"></path><path d="M 61.500,97.000 C 65.036,97.307 65.004,97.467 68.500,98.000" stroke-width="4.235" stroke="black" fill="none" stroke-linecap="round"></path><path d="M 68.500,98.000 C 74.941,100.016 75.036,99.307 81.500,101.000" stroke-width="3.593" stroke="black" fill="none" stroke-linecap="round"></path><path d="M 81.500,101.000 C 85.000,101.000 84.941,101.516 88.500,101.000" stroke-width="3.901" stroke="black" fill="none" stroke-linecap="round"></path><path d="M 88.500,101.000 C 91.500,101.000 91.500,101.000 94.500,101.000" stroke-width="4.032" stroke="black" fill="none" stroke-linecap="round"></path><path d="M 78.500,95.000 C 79.248,97.979 79.000,98.000 79.500,101.000" stroke-width="5.158" stroke="black" fill="none" stroke-linecap="round"></path><path d="M 79.500,101.000 C 79.887,104.034 79.748,103.979 79.500,107.000" stroke-width="4.414" stroke="black" fill="none" stroke-linecap="round"></path><path d="M 79.500,107.000 C 78.369,115.588 78.387,115.534 76.500,124.000" stroke-width="3.883" stroke="black" fill="none" stroke-linecap="round"></path><path d="M 76.500,124.000 C 75.083,129.026 75.369,129.088 73.500,134.000" stroke-width="3.596" stroke="black" fill="none" stroke-linecap="round"></path><path d="M 73.500,134.000 C 71.027,139.893 71.583,140.026 69.500,146.000" stroke-width="3.913" stroke="black" fill="none" stroke-linecap="round"></path><path d="M 69.500,146.000 C 68.787,149.987 68.527,149.893 68.500,154.000" stroke-width="3.844" stroke="black" fill="none" stroke-linecap="round"></path><path d="M 68.500,154.000 C 68.500,157.000 68.287,156.987 68.500,160.000" stroke-width="4.058" stroke="black" fill="none" stroke-linecap="round"></path><path d="M 114.500,91.000 C 114.647,98.119 114.000,98.000 113.500,105.000" stroke-width="4.996" stroke="black" fill="none" stroke-linecap="round"></path><path d="M 113.500,105.000 C 112.301,110.112 112.647,110.119 110.500,115.000" stroke-width="3.896" stroke="black" fill="none" stroke-linecap="round"></path><path d="M 110.500,115.000 C 108.474,119.489 108.801,119.612 106.500,124.000" stroke-width="3.596" stroke="black" fill="none" stroke-linecap="round"></path><path d="M 106.500,124.000 C 104.964,127.485 104.974,127.489 103.500,131.000" stroke-width="3.794" stroke="black" fill="none" stroke-linecap="round"></path><path d="M 103.500,131.000 C 102.270,133.432 102.464,133.485 101.500,136.000" stroke-width="4.075" stroke="black" fill="none" stroke-linecap="round"></path><path d="M 101.500,136.000 C 99.076,140.466 100.770,138.432 100.500,141.000" stroke-width="4.602" stroke="black" fill="none" stroke-linecap="round"></path><path d="M 100.500,141.000 C 105.088,140.298 103.076,141.966 109.500,139.000" stroke-width="4.683" stroke="black" fill="none" stroke-linecap="round"></path><path d="M 109.500,139.000 C 113.513,137.533 113.588,137.798 117.500,136.000" stroke-width="3.983" stroke="black" fill="none" stroke-linecap="round"></path><path d="M 117.500,136.000 C 119.885,134.402 120.013,135.033 122.500,134.000" stroke-width="4.138" stroke="black" fill="none" stroke-linecap="round"></path><path d="M 122.500,134.000 C 127.752,132.473 126.385,133.402 130.500,134.000" stroke-width="4.421" stroke="black" fill="none" stroke-linecap="round"></path><path d="M 130.500,134.000 C 131.342,136.466 132.252,134.973 131.500,139.000" stroke-width="4.311" stroke="black" fill="none" stroke-linecap="round"></path><path d="M 131.500,139.000 C 131.774,144.515 131.842,144.466 131.500,150.000" stroke-width="3.642" stroke="black" fill="none" stroke-linecap="round"></path><path d="M 131.500,150.000 C 131.062,154.508 131.274,154.515 130.500,159.000" stroke-width="3.607" stroke="black" fill="none" stroke-linecap="round"></path><path d="M 130.500,159.000 C 130.081,162.514 130.062,162.508 129.500,166.000" stroke-width="3.808" stroke="black" fill="none" stroke-linecap="round"></path><path d="M 129.500,166.000 C 129.000,168.500 129.081,168.514 128.500,171.000" stroke-width="4.117" stroke="black" fill="none" stroke-linecap="round"></path><path d="M 159.500,144.000 C 159.098,148.514 159.000,148.500 158.500,153.000" stroke-width="5.111" stroke="black" fill="none" stroke-linecap="round"></path><path d="M 158.500,153.000 C 158.137,156.028 158.098,156.014 157.500,159.000" stroke-width="4.339" stroke="black" fill="none" stroke-linecap="round"></path><path d="M 157.500,159.000 C 156.258,162.955 156.637,163.028 155.500,167.000" stroke-width="3.880" stroke="black" fill="none" stroke-linecap="round"></path><path d="M 155.500,167.000 C 155.113,171.018 154.758,170.955 154.500,175.000" stroke-width="3.835" stroke="black" fill="none" stroke-linecap="round"></path><circle r="1.5" cx="169.5" cy="122" fill="black"></circle><path d="M 204.500,115.000 C 202.529,118.884 203.000,119.000 201.500,123.000" stroke-width="5.123" stroke="black" fill="none" stroke-linecap="round"></path><path d="M 201.500,123.000 C 201.371,127.078 200.529,126.884 200.500,131.000" stroke-width="4.132" stroke="black" fill="none" stroke-linecap="round"></path><path d="M 200.500,131.000 C 199.150,136.051 199.371,136.078 197.500,141.000" stroke-width="4.230" stroke="black" fill="none" stroke-linecap="round"></path><path d="M 197.500,141.000 C 195.753,144.929 196.150,145.051 194.500,149.000" stroke-width="3.930" stroke="black" fill="none" stroke-linecap="round"></path><path d="M 194.500,149.000 C 194.000,151.500 193.753,151.429 193.500,154.000" stroke-width="4.159" stroke="black" fill="none" stroke-linecap="round"></path><path d="M 193.500,154.000 C 193.000,156.500 193.000,156.500 192.500,159.000" stroke-width="4.233" stroke="black" fill="none" stroke-linecap="round"></path><path d="M 192.500,159.000 C 191.126,164.561 192.000,161.500 191.500,164.000" stroke-width="4.813" stroke="black" fill="none" stroke-linecap="round"></path><path d="M 191.500,164.000 C 193.063,160.022 192.126,163.061 194.500,156.000" stroke-width="4.586" stroke="black" fill="none" stroke-linecap="round"></path><path d="M 194.500,156.000 C 195.098,152.804 195.563,153.022 196.500,150.000" stroke-width="4.183" stroke="black" fill="none" stroke-linecap="round"></path><path d="M 196.500,150.000 C 198.381,146.913 198.098,146.804 200.500,144.000" stroke-width="4.017" stroke="black" fill="none" stroke-linecap="round"></path><path d="M 200.500,144.000 C 202.500,141.500 202.381,141.413 204.500,139.000" stroke-width="4.479" stroke="black" fill="none" stroke-linecap="round"></path><path d="M 204.500,139.000 C 206.153,136.134 206.500,136.500 208.500,134.000" stroke-width="4.285" stroke="black" fill="none" stroke-linecap="round"></path><path d="M 208.500,134.000 C 211.671,130.473 211.653,131.134 215.500,129.000" stroke-width="3.885" stroke="black" fill="none" stroke-linecap="round"></path><path d="M 264.500,132.000 C 261.578,129.860 261.500,131.000 258.500,130.000" stroke-width="4.922" stroke="black" fill="none" stroke-linecap="round"></path><path d="M 258.500,130.000 C 249.800,129.780 250.578,130.360 242.500,133.000" stroke-width="4.052" stroke="black" fill="none" stroke-linecap="round"></path><path d="M 242.500,133.000 C 232.750,138.250 232.800,137.280 224.500,145.000" stroke-width="3.571" stroke="black" fill="none" stroke-linecap="round"></path><path d="M 224.500,145.000 C 222.217,147.851 221.750,147.250 220.500,151.000" stroke-width="3.871" stroke="black" fill="none" stroke-linecap="round"></path><path d="M 220.500,151.000 C 217.835,153.673 219.217,153.351 218.500,156.000" stroke-width="4.499" stroke="black" fill="none" stroke-linecap="round"></path><path d="M 218.500,156.000 C 220.476,162.413 219.835,160.673 224.500,165.000" stroke-width="4.288" stroke="black" fill="none" stroke-linecap="round"></path><path d="M 224.500,165.000 C 228.516,165.249 227.476,166.913 232.500,165.000" stroke-width="4.005" stroke="black" fill="none" stroke-linecap="round"></path><path d="M 232.500,165.000 C 236.920,165.591 236.516,164.749 240.500,164.000" stroke-width="3.816" stroke="black" fill="none" stroke-linecap="round"></path><path d="M 240.500,164.000 C 246.105,161.136 245.920,161.591 250.500,157.000" stroke-width="3.479" stroke="black" fill="none" stroke-linecap="round"></path><path d="M 250.500,157.000 C 254.287,152.696 254.605,153.136 257.500,148.000" stroke-width="3.400" stroke="black" fill="none" stroke-linecap="round"></path><path d="M 257.500,148.000 C 261.316,143.338 260.787,143.196 263.500,138.000" stroke-width="3.296" stroke="black" fill="none" stroke-linecap="round"></path><path d="M 263.500,138.000 C 265.000,132.000 265.816,132.338 266.500,126.000" stroke-width="3.209" stroke="black" fill="none" stroke-linecap="round"></path><path d="M 266.500,126.000 C 268.000,120.000 268.000,120.000 269.500,114.000" stroke-width="3.242" stroke="black" fill="none" stroke-linecap="round"></path><path d="M 269.500,114.000 C 270.955,107.988 271.000,108.000 272.500,102.000" stroke-width="3.252" stroke="black" fill="none" stroke-linecap="round"></path><path d="M 272.500,102.000 C 274.518,92.318 274.955,92.488 277.500,83.000" stroke-width="3.439" stroke="black" fill="none" stroke-linecap="round"></path><path d="M 277.500,83.000 C 281.048,76.270 278.518,79.818 280.500,77.000" stroke-width="4.206" stroke="black" fill="none" stroke-linecap="round"></path><path d="M 280.500,77.000 C 277.590,82.056 279.548,78.270 274.500,87.000" stroke-width="4.471" stroke="black" fill="none" stroke-linecap="round"></path><path d="M 274.500,87.000 C 269.446,93.715 270.090,94.056 265.500,101.000" stroke-width="3.115" stroke="black" fill="none" stroke-linecap="round"></path><path d="M 265.500,101.000 C 262.797,105.812 262.946,105.715 261.500,111.000" stroke-width="3.284" stroke="black" fill="none" stroke-linecap="round"></path><path d="M 261.500,111.000 C 260.062,117.969 259.797,117.812 259.500,125.000" stroke-width="3.132" stroke="black" fill="none" stroke-linecap="round"></path><path d="M 259.500,125.000 C 259.500,130.500 259.062,130.469 259.500,136.000" stroke-width="3.325" stroke="black" fill="none" stroke-linecap="round"></path><path d="M 259.500,136.000 C 258.631,140.653 259.500,140.500 259.500,145.000" stroke-width="4.022" stroke="black" fill="none" stroke-linecap="round"></path><path d="M 259.500,145.000 C 260.695,151.013 260.631,150.653 263.500,156.000" stroke-width="3.512" stroke="black" fill="none" stroke-linecap="round"></path><path d="M 368.500,100.000 C 366.125,98.350 366.000,99.000 363.500,98.000" stroke-width="4.769" stroke="black" fill="none" stroke-linecap="round"></path><path d="M 363.500,98.000 C 358.479,97.707 358.625,97.350 353.500,98.000" stroke-width="4.465" stroke="black" fill="none" stroke-linecap="round"></path><path d="M 353.500,98.000 C 349.713,97.715 349.979,98.207 346.500,99.000" stroke-width="4.109" stroke="black" fill="none" stroke-linecap="round"></path><path d="M 346.500,99.000 C 342.424,101.384 342.213,100.715 338.500,104.000" stroke-width="3.627" stroke="black" fill="none" stroke-linecap="round"></path><path d="M 338.500,104.000 C 330.929,107.571 331.924,108.384 325.500,113.000" stroke-width="3.797" stroke="black" fill="none" stroke-linecap="round"></path><path d="M 325.500,113.000 C 322.815,116.793 322.429,116.071 321.500,121.000" stroke-width="3.663" stroke="black" fill="none" stroke-linecap="round"></path><path d="M 321.500,121.000 C 320.751,124.984 320.315,124.793 320.500,129.000" stroke-width="3.717" stroke="black" fill="none" stroke-linecap="round"></path><path d="M 320.500,129.000 C 319.942,133.091 320.251,132.984 320.500,137.000" stroke-width="3.993" stroke="black" fill="none" stroke-linecap="round"></path><path d="M 320.500,137.000 C 320.916,140.361 320.942,140.091 322.500,143.000" stroke-width="4.067" stroke="black" fill="none" stroke-linecap="round"></path><path d="M 322.500,143.000 C 324.195,145.463 323.916,145.361 326.500,147.000" stroke-width="4.129" stroke="black" fill="none" stroke-linecap="round"></path><path d="M 326.500,147.000 C 328.891,148.565 328.695,148.463 331.500,149.000" stroke-width="4.228" stroke="black" fill="none" stroke-linecap="round"></path><path d="M 331.500,149.000 C 335.085,149.525 334.891,149.565 338.500,149.000" stroke-width="4.002" stroke="black" fill="none" stroke-linecap="round"></path><path d="M 338.500,149.000 C 341.767,148.491 341.585,148.525 344.500,147.000" stroke-width="4.070" stroke="black" fill="none" stroke-linecap="round"></path><path d="M 344.500,147.000 C 347.111,145.124 347.267,145.491 349.500,143.000" stroke-width="4.033" stroke="black" fill="none" stroke-linecap="round"></path><path d="M 349.500,143.000 C 351.409,140.901 351.611,141.124 353.500,139.000" stroke-width="4.162" stroke="black" fill="none" stroke-linecap="round"></path><path d="M 353.500,139.000 C 360.219,135.806 356.909,135.901 360.500,133.000" stroke-width="4.324" stroke="black" fill="none" stroke-linecap="round"></path><path d="M 360.500,133.000 C 357.836,129.890 360.719,130.806 354.500,129.000" stroke-width="4.877" stroke="black" fill="none" stroke-linecap="round"></path><path d="M 354.500,129.000 C 350.000,129.000 350.336,127.890 345.500,129.000" stroke-width="4.548" stroke="black" fill="none" stroke-linecap="round"></path><path d="M 345.500,129.000 C 341.470,128.695 341.500,129.000 337.500,129.000" stroke-width="4.514" stroke="black" fill="none" stroke-linecap="round"></path><path d="M 337.500,129.000 C 332.088,129.382 334.970,129.195 332.500,130.000" stroke-width="4.784" stroke="black" fill="none" stroke-linecap="round"></path><path d="M 362.500,133.000 C 360.090,135.248 361.000,135.500 359.500,138.000" stroke-width="5.208" stroke="black" fill="none" stroke-linecap="round"></path><path d="M 359.500,138.000 C 359.181,142.532 358.590,142.248 359.500,147.000" stroke-width="4.630" stroke="black" fill="none" stroke-linecap="round"></path><path d="M 359.500,147.000 C 358.852,151.382 359.681,149.532 360.500,152.000" stroke-width="4.834" stroke="black" fill="none" stroke-linecap="round"></path><path d="M 360.500,152.000 C 364.890,152.135 362.852,152.882 367.500,150.000" stroke-width="4.878" stroke="black" fill="none" stroke-linecap="round"></path><path d="M 367.500,150.000 C 369.590,146.548 370.390,147.635 371.500,143.000" stroke-width="4.641" stroke="black" fill="none" stroke-linecap="round"></path><path d="M 371.500,143.000 C 373.744,136.055 373.090,140.048 374.500,137.000" stroke-width="4.665" stroke="black" fill="none" stroke-linecap="round"></path><path d="M 374.500,137.000 C 375.176,142.492 375.744,138.555 375.500,148.000" stroke-width="4.985" stroke="black" fill="none" stroke-linecap="round"></path><path d="M 375.500,148.000 C 374.182,151.892 375.676,150.992 375.500,154.000" stroke-width="4.825" stroke="black" fill="none" stroke-linecap="round"></path><path d="M 394.500,131.000 C 394.698,133.594 395.000,133.500 395.500,136.000" stroke-width="5.344" stroke="black" fill="none" stroke-linecap="round"></path><path d="M 395.500,136.000 C 396.525,139.791 396.698,139.594 398.500,143.000" stroke-width="5.021" stroke="black" fill="none" stroke-linecap="round"></path><path d="M 398.500,143.000 C 400.395,146.930 400.525,146.291 403.500,149.000" stroke-width="4.083" stroke="black" fill="none" stroke-linecap="round"></path><path d="M 425.500,133.000 C 422.387,135.376 422.500,135.500 419.500,138.000" stroke-width="5.331" stroke="black" fill="none" stroke-linecap="round"></path><path d="M 419.500,138.000 C 417.000,140.500 416.887,140.376 414.500,143.000" stroke-width="4.355" stroke="black" fill="none" stroke-linecap="round"></path><path d="M 414.500,143.000 C 411.575,146.078 411.500,146.000 408.500,149.000" stroke-width="3.968" stroke="black" fill="none" stroke-linecap="round"></path><path d="M 408.500,149.000 C 401.582,155.592 401.575,155.578 394.500,162.000" stroke-width="2.942" stroke="black" fill="none" stroke-linecap="round"></path><path d="M 394.500,162.000 C 390.909,164.901 391.082,165.092 387.500,168.000" stroke-width="3.301" stroke="black" fill="none" stroke-linecap="round"></path><path d="M 387.500,168.000 C 385.500,170.000 385.409,169.901 383.500,172.000" stroke-width="4.226" stroke="black" fill="none" stroke-linecap="round"></path></svg>