<svg xmlns="http://www.w3.org/2000/svg" xmlns:xlink="http://www.w3.org/1999/xlink" viewBox="0 0 1460 576" width="1460" height="576"><path d="M 649.000,285.000 C 653.925,282.532 653.500,282.000 658.000,279.000" stroke-width="5.090" stroke="black" fill="none" stroke-linecap="round"></path><path d="M 658.000,279.000 C 666.835,266.676 668.925,269.532 679.000,259.000" stroke-width="2.445" stroke="black" fill="none" stroke-linecap="round"></path><path d="M 679.000,259.000 C 708.919,237.854 708.835,240.176 742.000,226.000" stroke-width="1.303" stroke="black" fill="none" stroke-linecap="round"></path><path d="M 742.000,226.000 C 770.353,219.906 768.919,216.354 799.000,216.000" stroke-width="1.285" stroke="black" fill="none" stroke-linecap="round"></path><path d="M 799.000,216.000 C 825.520,212.151 825.353,212.406 852.000,211.000" stroke-width="1.295" stroke="black" fill="none" stroke-linecap="round"></path><path d="M 852.000,211.000 C 860.060,211.626 860.020,210.651 868.000,213.000" stroke-width="2.109" stroke="black" fill="none" stroke-linecap="round"></path><path d="M 868.000,213.000 C 886.858,214.529 886.060,216.126 904.000,220.000" stroke-width="1.812" stroke="black" fill="none" stroke-linecap="round"></path><path d="M 904.000,220.000 C 911.173,222.685 910.358,222.029 915.000,228.000" stroke-width="2.567" stroke="black" fill="none" stroke-linecap="round"></path><path d="M 915.000,228.000 C 921.231,236.282 920.173,235.185 922.000,245.000" stroke-width="2.660" stroke="black" fill="none" stroke-linecap="round"></path><path d="M 922.000,245.000 C 922.347,254.610 922.731,253.282 918.000,262.000" stroke-width="2.794" stroke="black" fill="none" stroke-linecap="round"></path><path d="M 918.000,262.000 C 908.787,283.260 907.347,280.110 892.000,296.000" stroke-width="1.834" stroke="black" fill="none" stroke-linecap="round"></path><path d="M 892.000,296.000 C 849.061,321.605 852.787,325.760 806.000,347.000" stroke-width="1.125" stroke="black" fill="none" stroke-linecap="round"></path><path d="M 806.000,347.000 C 791.600,358.630 790.561,356.105 775.000,365.000" stroke-width="1.415" stroke="black" fill="none" stroke-linecap="round"></path><path d="M 775.000,365.000 C 747.545,374.405 748.600,375.130 720.000,380.000" stroke-width="1.282" stroke="black" fill="none" stroke-linecap="round"></path><path d="M 720.000,380.000 C 714.903,380.168 715.545,380.905 711.000,378.000" stroke-width="2.325" stroke="black" fill="none" stroke-linecap="round"></path><path d="M 711.000,378.000 C 703.321,375.065 705.903,375.168 702.000,370.000" stroke-width="2.927" stroke="black" fill="none" stroke-linecap="round"></path><path d="M 702.000,370.000 C 700.786,361.130 700.321,363.565 705.000,355.000" stroke-width="2.891" stroke="black" fill="none" stroke-linecap="round"></path><path d="M 705.000,355.000 C 716.925,334.652 717.286,337.130 735.000,322.000" stroke-width="1.803" stroke="black" fill="none" stroke-linecap="round"></path><path d="M 735.000,322.000 C 778.802,292.883 776.925,292.652 825.000,271.000" stroke-width="1.125" stroke="black" fill="none" stroke-linecap="round"></path><path d="M 825.000,271.000 C 836.945,268.778 835.802,265.883 849.000,268.000" stroke-width="1.624" stroke="black" fill="none" stroke-linecap="round"></path><path d="M 849.000,268.000 C 868.116,266.580 867.945,266.778 887.000,267.000" stroke-width="1.653" stroke="black" fill="none" stroke-linecap="round"></path><path d="M 887.000,267.000 C 890.808,267.404 890.616,267.080 894.000,269.000" stroke-width="2.784" stroke="black" fill="none" stroke-linecap="round"></path><path d="M 894.000,269.000 C 901.111,271.135 896.808,270.404 899.000,273.000" stroke-width="3.901" stroke="black" fill="none" stroke-linecap="round"></path><path d="M 899.000,273.000 C 877.743,296.060 879.611,290.135 851.000,307.000" stroke-width="1.582" stroke="black" fill="none" stroke-linecap="round"></path><path d="M 851.000,307.000 C 809.203,318.059 811.743,323.060 767.000,327.000" stroke-width="1.125" stroke="black" fill="none" stroke-linecap="round"></path><path d="M 767.000,327.000 C 750.094,330.779 750.203,330.559 733.000,332.000" stroke-width="1.489" stroke="black" fill="none" stroke-linecap="round"></path><path d="M 733.000,332.000 C 714.938,332.747 715.094,333.279 697.000,332.000" stroke-width="1.696" stroke="black" fill="none" stroke-linecap="round"></path><path d="M 697.000,332.000 C 690.843,331.538 690.938,331.747 685.000,330.000" stroke-width="2.526" stroke="black" fill="none" stroke-linecap="round"></path><path d="M 685.000,330.000 C 680.825,329.311 681.343,329.038 678.000,327.000" stroke-width="3.345" stroke="black" fill="none" stroke-linecap="round"></path><path d="M 678.000,327.000 C 674.534,324.383 675.325,324.811 674.000,321.000" stroke-width="3.746" stroke="black" fill="none" stroke-linecap="round"></path><path d="M 674.000,321.000 C 672.726,313.684 673.034,314.883 675.000,308.000" stroke-width="3.269" stroke="black" fill="none" stroke-linecap="round"></path><path d="M 675.000,308.000 C 678.114,303.915 676.726,303.684 682.000,301.000" stroke-width="3.464" stroke="black" fill="none" stroke-linecap="round"></path></svg>