<svg xmlns="http://www.w3.org/2000/svg" xmlns:xlink="http://www.w3.org/1999/xlink" viewBox="0 0 621 330" width="621" height="330"><path d="M 80.500,99.000 C 78.239,101.289 79.000,101.500 77.500,104.000" stroke-width="4.909" stroke="black" fill="none" stroke-linecap="round"></path><path d="M 77.500,104.000 C 77.870,107.037 76.739,106.789 77.500,110.000" stroke-width="4.306" stroke="black" fill="none" stroke-linecap="round"></path><path d="M 77.500,110.000 C 76.630,115.029 76.870,115.037 75.500,120.000" stroke-width="4.321" stroke="black" fill="none" stroke-linecap="round"></path><path d="M 75.500,120.000 C 73.943,125.986 74.130,126.029 72.500,132.000" stroke-width="3.516" stroke="black" fill="none" stroke-linecap="round"></path><path d="M 72.500,132.000 C 71.057,138.514 70.943,138.486 69.500,145.000" stroke-width="3.311" stroke="black" fill="none" stroke-linecap="round"></path><path d="M 69.500,145.000 C 68.292,151.085 68.057,151.014 66.500,157.000" stroke-width="3.272" stroke="black" fill="none" stroke-linecap="round"></path><path d="M 66.500,157.000 C 63.220,167.584 63.292,167.585 59.500,178.000" stroke-width="2.575" stroke="black" fill="none" stroke-linecap="round"></path><path d="M 59.500,178.000 C 58.000,181.500 58.220,181.584 56.500,185.000" stroke-width="3.371" stroke="black" fill="none" stroke-linecap="round"></path><path d="M 56.500,185.000 C 54.056,191.722 55.000,188.500 53.500,192.000" stroke-width="4.114" stroke="black" fill="none" stroke-linecap="round"></path><path d="M 61.500,157.000 C 65.308,157.404 65.000,158.000 68.500,159.000" stroke-width="5.210" stroke="black" fill="none" stroke-linecap="round"></path><path d="M 68.500,159.000 C 70.814,161.291 71.308,160.404 73.500,163.000" stroke-width="4.369" stroke="black" fill="none" stroke-linecap="round"></path><path d="M 73.500,163.000 C 76.393,164.757 76.314,164.791 79.500,166.000" stroke-width="4.128" stroke="black" fill="none" stroke-linecap="round"></path><path d="M 79.500,166.000 C 83.953,167.663 83.893,167.757 88.500,169.000" stroke-width="3.691" stroke="black" fill="none" stroke-linecap="round"></path><path d="M 88.500,169.000 C 92.436,170.522 92.453,170.163 96.500,171.000" stroke-width="3.806" stroke="black" fill="none" stroke-linecap="round"></path><path d="M 96.500,171.000 C 101.000,171.000 100.936,171.522 105.500,171.000" stroke-width="3.715" stroke="black" fill="none" stroke-linecap="round"></path><path d="M 105.500,171.000 C 109.000,171.000 109.000,171.000 112.500,171.000" stroke-width="3.900" stroke="black" fill="none" stroke-linecap="round"></path><path d="M 112.500,171.000 C 115.500,171.000 115.500,171.000 118.500,171.000" stroke-width="4.077" stroke="black" fill="none" stroke-linecap="round"></path><path d="M 118.500,171.000 C 123.792,172.416 121.500,171.000 124.500,171.000" stroke-width="4.546" stroke="black" fill="none" stroke-linecap="round"></path><path d="M 132.500,116.000 C 132.471,120.116 132.000,120.000 131.500,124.000" stroke-width="5.141" stroke="black" fill="none" stroke-linecap="round"></path><path d="M 131.500,124.000 C 130.333,128.151 130.471,128.116 128.500,132.000" stroke-width="4.076" stroke="black" fill="none" stroke-linecap="round"></path><path d="M 128.500,132.000 C 125.000,138.500 125.333,138.651 121.500,145.000" stroke-width="3.267" stroke="black" fill="none" stroke-linecap="round"></path><path d="M 121.500,145.000 C 117.568,151.306 118.000,151.500 114.500,158.000" stroke-width="3.083" stroke="black" fill="none" stroke-linecap="round"></path><path d="M 114.500,158.000 C 112.202,163.409 112.068,163.306 110.500,169.000" stroke-width="3.253" stroke="black" fill="none" stroke-linecap="round"></path><path d="M 110.500,169.000 C 109.000,175.000 108.702,174.909 107.500,181.000" stroke-width="3.255" stroke="black" fill="none" stroke-linecap="round"></path><path d="M 107.500,181.000 C 106.000,187.000 106.000,187.000 104.500,193.000" stroke-width="3.197" stroke="black" fill="none" stroke-linecap="round"></path><path d="M 104.500,193.000 C 103.308,196.962 103.500,197.000 102.500,201.000" stroke-width="3.589" stroke="black" fill="none" stroke-linecap="round"></path><path d="M 102.500,201.000 C 102.292,204.569 101.808,204.462 101.500,208.000" stroke-width="3.802" stroke="black" fill="none" stroke-linecap="round"></path><path d="M 101.500,208.000 C 100.634,211.051 100.792,211.069 99.500,214.000" stroke-width="4.006" stroke="black" fill="none" stroke-linecap="round"></path><path d="M 158.500,177.000 C 158.789,182.518 158.500,182.500 158.500,188.000" stroke-width="4.985" stroke="black" fill="none" stroke-linecap="round"></path><path d="M 158.500,188.000 C 158.371,192.078 158.289,192.018 157.500,196.000" stroke-width="4.104" stroke="black" fill="none" stroke-linecap="round"></path><path d="M 157.500,196.000 C 155.973,200.992 156.371,201.078 154.500,206.000" stroke-width="3.588" stroke="black" fill="none" stroke-linecap="round"></path><path d="M 154.500,206.000 C 153.650,209.551 153.473,209.492 152.500,213.000" stroke-width="3.778" stroke="black" fill="none" stroke-linecap="round"></path><path d="M 152.500,213.000 C 151.500,215.500 151.650,215.551 150.500,218.000" stroke-width="4.069" stroke="black" fill="none" stroke-linecap="round"></path><circle r="1.5" cx="174.5" cy="151" fill="black"></circle><path d="M 244.500,169.000 C 244.500,173.500 244.500,173.500 244.500,178.000" stroke-width="4.876" stroke="black" fill="none" stroke-linecap="round"></path><path d="M 244.500,178.000 C 244.682,182.006 244.500,182.000 244.500,186.000" stroke-width="4.089" stroke="black" fill="none" stroke-linecap="round"></path><path d="M 244.500,186.000 C 243.818,192.994 244.182,193.006 243.500,200.000" stroke-width="3.988" stroke="black" fill="none" stroke-linecap="round"></path><path d="M 243.500,200.000 C 241.796,205.444 243.318,203.994 243.500,208.000" stroke-width="4.384" stroke="black" fill="none" stroke-linecap="round"></path><path d="M 243.500,208.000 C 247.064,209.974 244.796,209.944 249.500,209.000" stroke-width="4.618" stroke="black" fill="none" stroke-linecap="round"></path><path d="M 249.500,209.000 C 251.580,206.560 252.064,207.974 253.500,204.000" stroke-width="4.232" stroke="black" fill="none" stroke-linecap="round"></path><path d="M 253.500,204.000 C 256.598,200.804 256.080,200.560 258.500,197.000" stroke-width="3.871" stroke="black" fill="none" stroke-linecap="round"></path><path d="M 258.500,197.000 C 259.402,192.196 260.598,192.804 261.500,188.000" stroke-width="3.627" stroke="black" fill="none" stroke-linecap="round"></path><path d="M 261.500,188.000 C 263.785,184.318 263.402,184.196 266.500,181.000" stroke-width="3.750" stroke="black" fill="none" stroke-linecap="round"></path><path d="M 266.500,181.000 C 268.156,178.492 268.285,178.818 270.500,177.000" stroke-width="4.025" stroke="black" fill="none" stroke-linecap="round"></path><path d="M 270.500,177.000 C 275.144,172.822 273.656,174.992 277.500,174.000" stroke-width="4.392" stroke="black" fill="none" stroke-linecap="round"></path><path d="M 277.500,174.000 C 279.725,177.868 280.144,175.322 280.500,182.000" stroke-width="4.425" stroke="black" fill="none" stroke-linecap="round"></path><path d="M 280.500,182.000 C 280.749,186.016 281.225,185.868 280.500,190.000" stroke-width="4.040" stroke="black" fill="none" stroke-linecap="round"></path><path d="M 280.500,190.000 C 277.887,197.309 280.249,194.016 279.500,198.000" stroke-width="4.365" stroke="black" fill="none" stroke-linecap="round"></path><path d="M 279.500,198.000 C 283.617,195.670 281.387,198.809 287.500,193.000" stroke-width="4.746" stroke="black" fill="none" stroke-linecap="round"></path><path d="M 287.500,193.000 C 291.383,189.830 291.617,190.170 295.500,187.000" stroke-width="3.767" stroke="black" fill="none" stroke-linecap="round"></path><path d="M 295.500,187.000 C 299.500,184.500 299.383,184.330 303.500,182.000" stroke-width="3.661" stroke="black" fill="none" stroke-linecap="round"></path><path d="M 303.500,182.000 C 307.350,179.213 307.500,179.500 311.500,177.000" stroke-width="3.682" stroke="black" fill="none" stroke-linecap="round"></path><path d="M 311.500,177.000 C 314.886,175.112 314.850,175.213 318.500,174.000" stroke-width="3.822" stroke="black" fill="none" stroke-linecap="round"></path><path d="M 318.500,174.000 C 321.508,173.544 321.386,173.112 324.500,173.000" stroke-width="4.041" stroke="black" fill="none" stroke-linecap="round"></path><path d="M 324.500,173.000 C 328.868,170.421 327.008,172.544 329.500,172.000" stroke-width="4.237" stroke="black" fill="none" stroke-linecap="round"></path><path d="M 329.500,172.000 C 329.744,177.712 330.868,175.421 328.500,183.000" stroke-width="4.467" stroke="black" fill="none" stroke-linecap="round"></path><path d="M 328.500,183.000 C 327.090,186.048 327.744,186.212 325.500,189.000" stroke-width="4.154" stroke="black" fill="none" stroke-linecap="round"></path><path d="M 325.500,189.000 C 323.181,192.357 323.590,192.548 321.500,196.000" stroke-width="3.856" stroke="black" fill="none" stroke-linecap="round"></path><path d="M 321.500,196.000 C 320.580,199.029 320.181,198.857 319.500,202.000" stroke-width="4.023" stroke="black" fill="none" stroke-linecap="round"></path><path d="M 341.500,194.000 C 344.842,191.732 345.000,192.500 348.500,191.000" stroke-width="3.789" stroke="black" fill="none" stroke-linecap="round"></path><path d="M 348.500,191.000 C 352.551,191.465 352.342,190.232 356.500,191.000" stroke-width="3.762" stroke="black" fill="none" stroke-linecap="round"></path><path d="M 356.500,191.000 C 360.953,189.568 361.051,190.465 365.500,189.000" stroke-width="3.681" stroke="black" fill="none" stroke-linecap="round"></path><path d="M 365.500,189.000 C 369.057,189.459 368.953,188.568 372.500,189.000" stroke-width="3.888" stroke="black" fill="none" stroke-linecap="round"></path><path d="M 387.500,187.000 C 384.585,188.525 384.500,188.000 381.500,189.000" stroke-width="4.833" stroke="black" fill="none" stroke-linecap="round"></path><path d="M 381.500,189.000 C 377.931,188.510 378.085,189.525 374.500,189.000" stroke-width="4.912" stroke="black" fill="none" stroke-linecap="round"></path><path d="M 374.500,189.000 C 370.978,189.930 370.931,189.510 367.500,191.000" stroke-width="4.130" stroke="black" fill="none" stroke-linecap="round"></path><path d="M 367.500,191.000 C 364.449,191.866 364.478,191.930 361.500,193.000" stroke-width="4.109" stroke="black" fill="none" stroke-linecap="round"></path><path d="M 361.500,193.000 C 357.949,194.390 357.949,194.366 354.500,196.000" stroke-width="4.438" stroke="black" fill="none" stroke-linecap="round"></path><path d="M 354.500,196.000 C 350.201,197.533 350.449,197.890 346.500,200.000" stroke-width="3.883" stroke="black" fill="none" stroke-linecap="round"></path><path d="M 346.500,200.000 C 340.434,203.351 341.201,203.533 336.500,208.000" stroke-width="3.319" stroke="black" fill="none" stroke-linecap="round"></path><path d="M 336.500,208.000 C 333.985,211.990 334.934,209.851 335.500,213.000" stroke-width="4.261" stroke="black" fill="none" stroke-linecap="round"></path><path d="M 335.500,213.000 C 340.752,215.096 338.485,214.990 345.500,214.000" stroke-width="4.548" stroke="black" fill="none" stroke-linecap="round"></path><path d="M 345.500,214.000 C 353.553,210.612 353.752,212.096 361.500,207.000" stroke-width="3.988" stroke="black" fill="none" stroke-linecap="round"></path><path d="M 361.500,207.000 C 364.652,205.753 364.553,205.612 367.500,204.000" stroke-width="3.971" stroke="black" fill="none" stroke-linecap="round"></path><path d="M 367.500,204.000 C 375.178,200.807 371.152,201.753 374.500,199.000" stroke-width="4.284" stroke="black" fill="none" stroke-linecap="round"></path><path d="M 374.500,199.000 C 369.580,196.953 373.678,196.807 364.500,196.000" stroke-width="4.823" stroke="black" fill="none" stroke-linecap="round"></path><path d="M 364.500,196.000 C 361.447,195.535 361.580,195.453 358.500,196.000" stroke-width="4.286" stroke="black" fill="none" stroke-linecap="round"></path><path d="M 358.500,196.000 C 349.988,195.354 351.947,197.035 345.500,199.000" stroke-width="4.111" stroke="black" fill="none" stroke-linecap="round"></path><path d="M 395.500,195.000 C 396.667,198.460 396.500,198.500 397.500,202.000" stroke-width="5.178" stroke="black" fill="none" stroke-linecap="round"></path><path d="M 397.500,202.000 C 398.546,206.991 398.667,206.960 399.500,212.000" stroke-width="3.890" stroke="black" fill="none" stroke-linecap="round"></path><path d="M 399.500,212.000 C 400.885,217.465 400.546,217.491 401.500,223.000" stroke-width="3.466" stroke="black" fill="none" stroke-linecap="round"></path><path d="M 401.500,223.000 C 400.136,227.272 401.885,226.465 401.500,230.000" stroke-width="3.767" stroke="black" fill="none" stroke-linecap="round"></path><path d="M 401.500,230.000 C 403.898,233.000 402.636,232.272 406.500,233.000" stroke-width="4.410" stroke="black" fill="none" stroke-linecap="round"></path><path d="M 406.500,233.000 C 410.594,232.325 409.898,233.000 413.500,230.000" stroke-width="4.029" stroke="black" fill="none" stroke-linecap="round"></path><path d="M 413.500,230.000 C 417.743,225.696 418.094,226.325 421.500,221.000" stroke-width="3.418" stroke="black" fill="none" stroke-linecap="round"></path><path d="M 421.500,221.000 C 425.328,215.364 425.743,215.696 429.500,210.000" stroke-width="3.207" stroke="black" fill="none" stroke-linecap="round"></path><path d="M 429.500,210.000 C 432.250,206.250 432.328,206.364 435.500,203.000" stroke-width="3.503" stroke="black" fill="none" stroke-linecap="round"></path><path d="M 435.500,203.000 C 438.659,199.486 438.750,199.750 442.500,197.000" stroke-width="3.549" stroke="black" fill="none" stroke-linecap="round"></path><path d="M 442.500,197.000 C 450.800,189.876 447.159,193.986 452.500,192.000" stroke-width="4.002" stroke="black" fill="none" stroke-linecap="round"></path><path d="M 452.500,192.000 C 452.457,199.823 454.800,194.876 450.500,207.000" stroke-width="4.204" stroke="black" fill="none" stroke-linecap="round"></path><path d="M 450.500,207.000 C 448.611,210.569 449.457,210.823 446.500,214.000" stroke-width="3.924" stroke="black" fill="none" stroke-linecap="round"></path><path d="M 446.500,214.000 C 441.607,219.554 444.611,217.069 442.500,220.000" stroke-width="4.384" stroke="black" fill="none" stroke-linecap="round"></path><path d="M 442.500,220.000 C 446.706,218.348 443.607,220.554 450.500,216.000" stroke-width="4.432" stroke="black" fill="none" stroke-linecap="round"></path><path d="M 450.500,216.000 C 456.882,211.316 457.206,211.848 463.500,207.000" stroke-width="3.174" stroke="black" fill="none" stroke-linecap="round"></path><path d="M 463.500,207.000 C 468.136,203.099 468.382,203.816 473.500,201.000" stroke-width="3.286" stroke="black" fill="none" stroke-linecap="round"></path><path d="M 473.500,201.000 C 483.089,195.320 479.636,198.599 486.500,198.000" stroke-width="3.759" stroke="black" fill="none" stroke-linecap="round"></path><path d="M 486.500,198.000 C 488.122,205.162 490.089,200.820 487.500,212.000" stroke-width="4.342" stroke="black" fill="none" stroke-linecap="round"></path><path d="M 487.500,212.000 C 486.181,216.079 487.122,216.162 484.500,220.000" stroke-width="3.846" stroke="black" fill="none" stroke-linecap="round"></path><path d="M 484.500,220.000 C 482.636,222.875 483.181,223.079 481.500,226.000" stroke-width="3.975" stroke="black" fill="none" stroke-linecap="round"></path><path d="M 100.500,246.000 C 106.099,245.263 106.000,246.000 111.500,246.000" stroke-width="4.771" stroke="black" fill="none" stroke-linecap="round"></path><path d="M 111.500,246.000 C 116.939,247.764 117.099,246.763 122.500,249.000" stroke-width="3.693" stroke="black" fill="none" stroke-linecap="round"></path><path d="M 122.500,249.000 C 130.421,251.192 130.439,250.764 138.500,252.000" stroke-width="3.078" stroke="black" fill="none" stroke-linecap="round"></path><path d="M 138.500,252.000 C 150.494,252.769 150.421,253.192 162.500,253.000" stroke-width="2.514" stroke="black" fill="none" stroke-linecap="round"></path><path d="M 162.500,253.000 C 176.503,253.222 176.494,253.269 190.500,253.000" stroke-width="2.228" stroke="black" fill="none" stroke-linecap="round"></path><path d="M 190.500,253.000 C 208.002,252.555 208.003,252.722 225.500,252.000" stroke-width="1.940" stroke="black" fill="none" stroke-linecap="round"></path><path d="M 225.500,252.000 C 239.495,251.241 239.502,251.555 253.500,251.000" stroke-width="2.012" stroke="black" fill="none" stroke-linecap="round"></path><path d="M 253.500,251.000 C 268.500,251.000 268.495,250.741 283.500,251.000" stroke-width="2.028" stroke="black" fill="none" stroke-linecap="round"></path><path d="M 283.500,251.000 C 298.018,250.492 298.000,251.000 312.500,251.000" stroke-width="2.008" stroke="black" fill="none" stroke-linecap="round"></path><path d="M 312.500,251.000 C 326.522,251.752 326.518,251.492 340.500,253.000" stroke-width="2.086" stroke="black" fill="none" stroke-linecap="round"></path><path d="M 340.500,253.000 C 354.476,254.770 354.522,254.252 368.500,256.000" stroke-width="2.108" stroke="black" fill="none" stroke-linecap="round"></path><path d="M 368.500,256.000 C 382.987,257.249 382.976,257.270 397.500,258.000" stroke-width="2.029" stroke="black" fill="none" stroke-linecap="round"></path><path d="M 397.500,258.000 C 411.996,258.741 411.987,258.749 426.500,259.000" stroke-width="2.008" stroke="black" fill="none" stroke-linecap="round"></path><path d="M 426.500,259.000 C 440.000,259.000 439.996,259.241 453.500,259.000" stroke-width="2.121" stroke="black" fill="none" stroke-linecap="round"></path><path d="M 453.500,259.000 C 466.006,259.266 466.000,259.000 478.500,259.000" stroke-width="2.172" stroke="black" fill="none" stroke-linecap="round"></path><path d="M 478.500,259.000 C 489.505,258.594 489.506,258.766 500.500,258.000" stroke-width="2.305" stroke="black" fill="none" stroke-linecap="round"></path><path d="M 500.500,258.000 C 508.004,257.555 508.005,257.594 515.500,257.000" stroke-width="2.692" stroke="black" fill="none" stroke-linecap="round"></path><path d="M 515.500,257.000 C 521.510,256.599 521.504,256.555 527.500,256.000" stroke-width="3.086" stroke="black" fill="none" stroke-linecap="round"></path><path d="M 527.500,256.000 C 531.486,255.268 531.510,255.599 535.500,255.000" stroke-width="3.563" stroke="black" fill="none" stroke-linecap="round"></path><path d="M 169.500,37.000 C 173.566,39.532 173.000,40.000 176.500,43.000" stroke-width="5.087" stroke="black" fill="none" stroke-linecap="round"></path><path d="M 176.500,43.000 C 178.700,46.400 179.066,46.032 180.500,50.000" stroke-width="4.125" stroke="black" fill="none" stroke-linecap="round"></path><path d="M 180.500,50.000 C 181.905,53.544 182.200,53.400 183.500,57.000" stroke-width="3.900" stroke="black" fill="none" stroke-linecap="round"></path><path d="M 183.500,57.000 C 184.895,60.058 184.905,60.044 186.500,63.000" stroke-width="3.992" stroke="black" fill="none" stroke-linecap="round"></path><path d="M 186.500,63.000 C 187.341,66.321 187.895,65.558 189.500,68.000" stroke-width="4.083" stroke="black" fill="none" stroke-linecap="round"></path><path d="M 189.500,68.000 C 192.966,70.975 191.841,69.821 195.500,70.000" stroke-width="4.509" stroke="black" fill="none" stroke-linecap="round"></path><path d="M 195.500,70.000 C 199.428,66.840 199.466,68.475 202.500,63.000" stroke-width="4.401" stroke="black" fill="none" stroke-linecap="round"></path><path d="M 202.500,63.000 C 204.718,58.793 205.428,59.340 207.500,55.000" stroke-width="3.760" stroke="black" fill="none" stroke-linecap="round"></path><path d="M 207.500,55.000 C 210.387,51.396 210.218,51.293 213.500,48.000" stroke-width="3.680" stroke="black" fill="none" stroke-linecap="round"></path><path d="M 213.500,48.000 C 215.525,44.352 215.887,45.396 218.500,43.000" stroke-width="4.473" stroke="black" fill="none" stroke-linecap="round"></path><path d="M 218.500,43.000 C 222.923,41.226 221.025,41.852 224.500,43.000" stroke-width="4.247" stroke="black" fill="none" stroke-linecap="round"></path><path d="M 224.500,43.000 C 225.894,47.457 226.923,45.726 226.500,52.000" stroke-width="4.351" stroke="black" fill="none" stroke-linecap="round"></path><path d="M 226.500,52.000 C 225.881,55.112 226.894,54.957 226.500,58.000" stroke-width="4.214" stroke="black" fill="none" stroke-linecap="round"></path><path d="M 226.500,58.000 C 226.914,63.127 227.381,62.112 229.500,66.000" stroke-width="4.389" stroke="black" fill="none" stroke-linecap="round"></path><path d="M 229.500,66.000 C 232.478,68.000 231.414,68.127 235.500,68.000" stroke-width="4.600" stroke="black" fill="none" stroke-linecap="round"></path><path d="M 235.500,68.000 C 239.655,68.032 238.978,68.000 242.500,66.000" stroke-width="4.060" stroke="black" fill="none" stroke-linecap="round"></path><path d="M 242.500,66.000 C 245.983,61.985 246.655,63.032 249.500,58.000" stroke-width="3.559" stroke="black" fill="none" stroke-linecap="round"></path><path d="M 249.500,58.000 C 253.557,53.549 253.483,53.485 257.500,49.000" stroke-width="3.307" stroke="black" fill="none" stroke-linecap="round"></path><path d="M 257.500,49.000 C 259.890,45.900 260.057,46.049 262.500,43.000" stroke-width="3.672" stroke="black" fill="none" stroke-linecap="round"></path><path d="M 262.500,43.000 C 264.284,40.723 264.390,40.900 266.500,39.000" stroke-width="3.998" stroke="black" fill="none" stroke-linecap="round"></path><path d="M 266.500,39.000 C 270.879,34.964 268.784,37.223 271.500,36.000" stroke-width="4.528" stroke="black" fill="none" stroke-linecap="round"></path><path d="M 283.500,22.000 C 285.275,25.944 284.500,26.000 285.500,30.000" stroke-width="5.218" stroke="black" fill="none" stroke-linecap="round"></path><path d="M 285.500,30.000 C 285.757,35.180 285.775,34.944 284.500,40.000" stroke-width="3.977" stroke="black" fill="none" stroke-linecap="round"></path><path d="M 288.500,42.000 C 290.185,50.494 289.500,50.500 290.500,59.000" stroke-width="5.007" stroke="black" fill="none" stroke-linecap="round"></path><path d="M 290.500,59.000 C 290.699,64.202 290.685,63.994 289.500,69.000" stroke-width="3.877" stroke="black" fill="none" stroke-linecap="round"></path><path d="M 289.500,69.000 C 288.105,72.058 288.699,72.202 286.500,75.000" stroke-width="3.985" stroke="black" fill="none" stroke-linecap="round"></path><path d="M 286.500,75.000 C 285.000,77.500 285.105,77.558 283.500,80.000" stroke-width="4.080" stroke="black" fill="none" stroke-linecap="round"></path><path d="M 283.500,80.000 C 279.759,85.371 282.000,82.500 280.500,85.000" stroke-width="4.532" stroke="black" fill="none" stroke-linecap="round"></path><path d="M 280.500,85.000 C 284.000,81.500 281.759,84.371 287.500,78.000" stroke-width="4.743" stroke="black" fill="none" stroke-linecap="round"></path><path d="M 287.500,78.000 C 290.867,74.354 291.000,74.500 294.500,71.000" stroke-width="3.904" stroke="black" fill="none" stroke-linecap="round"></path><path d="M 294.500,71.000 C 297.351,68.290 297.367,68.354 300.500,66.000" stroke-width="3.816" stroke="black" fill="none" stroke-linecap="round"></path><path d="M 300.500,66.000 C 303.000,64.500 302.851,64.290 305.500,63.000" stroke-width="4.069" stroke="black" fill="none" stroke-linecap="round"></path><path d="M 305.500,63.000 C 307.808,60.979 308.000,61.500 310.500,60.000" stroke-width="4.542" stroke="black" fill="none" stroke-linecap="round"></path><path d="M 310.500,60.000 C 313.479,59.252 313.308,58.979 316.500,59.000" stroke-width="4.255" stroke="black" fill="none" stroke-linecap="round"></path><path d="M 316.500,59.000 C 322.398,56.664 319.479,58.752 322.500,59.000" stroke-width="4.758" stroke="black" fill="none" stroke-linecap="round"></path><path d="M 322.500,59.000 C 320.920,70.808 322.898,68.164 317.500,82.000" stroke-width="4.497" stroke="black" fill="none" stroke-linecap="round"></path><path d="M 317.500,82.000 C 314.698,88.605 315.420,88.808 311.500,95.000" stroke-width="4.155" stroke="black" fill="none" stroke-linecap="round"></path><path d="M 311.500,95.000 C 307.975,100.701 310.198,97.605 308.500,100.000" stroke-width="4.560" stroke="black" fill="none" stroke-linecap="round"></path><path d="M 373.500,77.000 C 370.062,74.000 370.000,75.500 366.500,74.000" stroke-width="5.329" stroke="black" fill="none" stroke-linecap="round"></path><path d="M 366.500,74.000 C 361.638,74.809 362.062,74.000 357.500,77.000" stroke-width="3.929" stroke="black" fill="none" stroke-linecap="round"></path><path d="M 357.500,77.000 C 353.430,79.912 353.138,79.309 349.500,83.000" stroke-width="3.590" stroke="black" fill="none" stroke-linecap="round"></path><path d="M 349.500,83.000 C 346.250,85.250 346.430,85.412 343.500,88.000" stroke-width="3.771" stroke="black" fill="none" stroke-linecap="round"></path><path d="M 343.500,88.000 C 337.416,92.265 340.750,90.750 338.500,94.000" stroke-width="4.283" stroke="black" fill="none" stroke-linecap="round"></path><path d="M 338.500,94.000 C 343.474,95.721 339.916,96.265 348.500,96.000" stroke-width="4.548" stroke="black" fill="none" stroke-linecap="round"></path><path d="M 348.500,96.000 C 352.707,96.185 352.474,96.221 356.500,95.000" stroke-width="4.009" stroke="black" fill="none" stroke-linecap="round"></path><path d="M 356.500,95.000 C 360.565,93.119 360.707,93.685 364.500,91.000" stroke-width="3.777" stroke="black" fill="none" stroke-linecap="round"></path><path d="M 364.500,91.000 C 367.000,89.500 367.065,89.619 369.500,88.000" stroke-width="4.013" stroke="black" fill="none" stroke-linecap="round"></path><path d="M 369.500,88.000 C 371.901,86.300 372.000,86.500 374.500,85.000" stroke-width="4.089" stroke="black" fill="none" stroke-linecap="round"></path><path d="M 374.500,85.000 C 378.413,81.913 376.901,83.800 379.500,83.000" stroke-width="4.722" stroke="black" fill="none" stroke-linecap="round"></path><path d="M 379.500,83.000 C 379.500,86.500 380.913,84.413 379.500,90.000" stroke-width="4.665" stroke="black" fill="none" stroke-linecap="round"></path><path d="M 379.500,90.000 C 379.500,93.500 379.500,93.500 379.500,97.000" stroke-width="4.167" stroke="black" fill="none" stroke-linecap="round"></path><path d="M 379.500,97.000 C 378.039,102.202 379.500,101.500 379.500,106.000" stroke-width="4.321" stroke="black" fill="none" stroke-linecap="round"></path><path d="M 379.500,106.000 C 381.788,110.000 380.539,108.702 384.500,110.000" stroke-width="4.759" stroke="black" fill="none" stroke-linecap="round"></path><path d="M 384.500,110.000 C 389.438,109.062 388.288,110.000 392.500,106.000" stroke-width="4.520" stroke="black" fill="none" stroke-linecap="round"></path><path d="M 448.500,41.000 C 445.699,45.357 446.000,45.500 443.500,50.000" stroke-width="5.126" stroke="black" fill="none" stroke-linecap="round"></path><path d="M 443.500,50.000 C 442.176,55.351 441.199,54.857 439.500,60.000" stroke-width="3.749" stroke="black" fill="none" stroke-linecap="round"></path><path d="M 439.500,60.000 C 431.492,71.224 432.676,71.851 424.500,83.000" stroke-width="3.310" stroke="black" fill="none" stroke-linecap="round"></path><path d="M 424.500,83.000 C 422.700,87.600 421.992,87.224 420.500,92.000" stroke-width="3.482" stroke="black" fill="none" stroke-linecap="round"></path><path d="M 420.500,92.000 C 417.443,96.280 418.200,96.600 415.500,101.000" stroke-width="3.440" stroke="black" fill="none" stroke-linecap="round"></path><path d="M 415.500,101.000 C 414.041,104.943 413.943,104.780 413.500,109.000" stroke-width="3.626" stroke="black" fill="none" stroke-linecap="round"></path><path d="M 413.500,109.000 C 412.394,112.958 413.041,112.443 413.500,116.000" stroke-width="3.870" stroke="black" fill="none" stroke-linecap="round"></path><path d="M 413.500,116.000 C 415.026,118.969 414.394,118.458 417.500,120.000" stroke-width="4.109" stroke="black" fill="none" stroke-linecap="round"></path><path d="M 454.500,84.000 C 450.928,80.006 450.500,81.500 446.500,79.000" stroke-width="5.244" stroke="black" fill="none" stroke-linecap="round"></path><path d="M 446.500,79.000 C 439.500,79.000 439.928,77.506 432.500,79.000" stroke-width="3.442" stroke="black" fill="none" stroke-linecap="round"></path><path d="M 432.500,79.000 C 425.489,78.731 425.500,79.000 418.500,79.000" stroke-width="3.120" stroke="black" fill="none" stroke-linecap="round"></path><path d="M 418.500,79.000 C 412.512,79.785 412.489,79.231 406.500,80.000" stroke-width="3.778" stroke="black" fill="none" stroke-linecap="round"></path><path d="M 406.500,80.000 C 398.500,80.000 398.512,80.285 390.500,80.000" stroke-width="3.116" stroke="black" fill="none" stroke-linecap="round"></path><path d="M 390.500,80.000 C 387.333,79.292 387.500,80.000 384.500,80.000" stroke-width="3.778" stroke="black" fill="none" stroke-linecap="round"></path><path d="M 246.500,108.000 C 250.353,111.224 250.000,111.500 253.500,115.000" stroke-width="5.060" stroke="black" fill="none" stroke-linecap="round"></path><path d="M 253.500,115.000 C 255.105,117.442 255.353,117.224 256.500,120.000" stroke-width="4.417" stroke="black" fill="none" stroke-linecap="round"></path><path d="M 256.500,120.000 C 257.895,123.058 258.105,122.942 259.500,126.000" stroke-width="4.141" stroke="black" fill="none" stroke-linecap="round"></path><path d="M 259.500,126.000 C 260.790,128.649 260.895,128.558 262.500,131.000" stroke-width="4.128" stroke="black" fill="none" stroke-linecap="round"></path><path d="M 262.500,131.000 C 264.390,135.303 264.790,134.149 267.500,137.000" stroke-width="4.396" stroke="black" fill="none" stroke-linecap="round"></path><path d="M 305.500,110.000 C 302.213,111.101 302.500,111.500 299.500,113.000" stroke-width="5.071" stroke="black" fill="none" stroke-linecap="round"></path><path d="M 299.500,113.000 C 297.307,114.832 297.213,114.601 295.500,117.000" stroke-width="4.444" stroke="black" fill="none" stroke-linecap="round"></path><path d="M 295.500,117.000 C 292.622,121.097 292.307,120.832 289.500,125.000" stroke-width="3.771" stroke="black" fill="none" stroke-linecap="round"></path><path d="M 289.500,125.000 C 284.523,131.020 284.622,131.097 279.500,137.000" stroke-width="3.072" stroke="black" fill="none" stroke-linecap="round"></path><path d="M 279.500,137.000 C 273.922,143.436 274.023,143.520 268.500,150.000" stroke-width="2.884" stroke="black" fill="none" stroke-linecap="round"></path><path d="M 268.500,150.000 C 264.570,155.058 264.422,154.936 260.500,160.000" stroke-width="3.104" stroke="black" fill="none" stroke-linecap="round"></path><path d="M 260.500,160.000 C 257.451,163.459 257.570,163.558 254.500,167.000" stroke-width="3.415" stroke="black" fill="none" stroke-linecap="round"></path><path d="M 254.500,167.000 C 252.624,169.611 252.451,169.459 250.500,172.000" stroke-width="3.815" stroke="black" fill="none" stroke-linecap="round"></path><path d="M 250.500,172.000 C 245.314,176.659 248.624,174.111 246.500,176.000" stroke-width="4.047" stroke="black" fill="none" stroke-linecap="round"></path><path d="M 336.500,125.000 C 332.925,125.135 333.500,126.000 330.500,127.000" stroke-width="4.807" stroke="black" fill="none" stroke-linecap="round"></path><path d="M 330.500,127.000 C 326.487,130.686 326.425,130.135 323.500,135.000" stroke-width="4.429" stroke="black" fill="none" stroke-linecap="round"></path><path d="M 323.500,135.000 C 322.204,137.417 321.987,137.186 321.500,140.000" stroke-width="4.272" stroke="black" fill="none" stroke-linecap="round"></path><path d="M 321.500,140.000 C 318.843,144.343 320.704,142.917 320.500,146.000" stroke-width="4.610" stroke="black" fill="none" stroke-linecap="round"></path><path d="M 320.500,146.000 C 325.924,149.572 323.343,148.843 330.500,149.000" stroke-width="4.773" stroke="black" fill="none" stroke-linecap="round"></path><path d="M 330.500,149.000 C 333.924,146.863 333.924,148.572 336.500,144.000" stroke-width="4.090" stroke="black" fill="none" stroke-linecap="round"></path><path d="M 336.500,144.000 C 337.884,141.424 338.424,141.863 339.500,139.000" stroke-width="4.113" stroke="black" fill="none" stroke-linecap="round"></path><path d="M 339.500,139.000 C 345.016,132.774 341.884,135.424 344.500,132.000" stroke-width="4.332" stroke="black" fill="none" stroke-linecap="round"></path><path d="M 370.500,135.000 C 372.171,137.371 371.500,137.500 372.500,140.000" stroke-width="5.352" stroke="black" fill="none" stroke-linecap="round"></path><path d="M 372.500,140.000 C 370.294,146.863 373.171,145.371 372.500,151.000" stroke-width="4.811" stroke="black" fill="none" stroke-linecap="round"></path><path d="M 372.500,151.000 C 376.625,155.000 374.294,154.363 380.500,155.000" stroke-width="4.910" stroke="black" fill="none" stroke-linecap="round"></path><path d="M 380.500,155.000 C 383.500,153.000 383.625,155.000 386.500,151.000" stroke-width="4.248" stroke="black" fill="none" stroke-linecap="round"></path><path d="M 386.500,151.000 C 389.578,149.110 389.500,149.000 392.500,147.000" stroke-width="3.982" stroke="black" fill="none" stroke-linecap="round"></path><path d="M 392.500,147.000 C 398.691,142.720 398.578,142.610 404.500,138.000" stroke-width="4.204" stroke="black" fill="none" stroke-linecap="round"></path><path d="M 404.500,138.000 C 407.970,132.198 406.691,136.220 408.500,134.000" stroke-width="4.605" stroke="black" fill="none" stroke-linecap="round"></path><path d="M 408.500,134.000 C 408.777,144.519 410.470,140.698 409.500,155.000" stroke-width="4.530" stroke="black" fill="none" stroke-linecap="round"></path><path d="M 409.500,155.000 C 408.045,161.215 409.777,159.019 410.500,163.000" stroke-width="4.524" stroke="black" fill="none" stroke-linecap="round"></path><path d="M 410.500,163.000 C 415.822,164.364 413.545,165.215 420.500,163.000" stroke-width="3.848" stroke="black" fill="none" stroke-linecap="round"></path><path d="M 420.500,163.000 C 428.195,160.503 427.822,160.864 434.500,156.000" stroke-width="3.085" stroke="black" fill="none" stroke-linecap="round"></path></svg>