<svg xmlns="http://www.w3.org/2000/svg" xmlns:xlink="http://www.w3.org/1999/xlink" viewBox="0 0 621 330" width="621" height="330"><path d="M 169.500,202.000 C 166.536,197.766 166.000,199.000 162.500,196.000" stroke-width="4.844" stroke="black" fill="none" stroke-linecap="round"></path><path d="M 162.500,196.000 C 157.986,195.598 158.536,194.266 153.500,195.000" stroke-width="4.612" stroke="black" fill="none" stroke-linecap="round"></path><path d="M 153.500,195.000 C 150.472,194.637 150.486,194.598 147.500,194.000" stroke-width="4.273" stroke="black" fill="none" stroke-linecap="round"></path><path d="M 147.500,194.000 C 143.538,192.808 143.472,193.137 139.500,192.000" stroke-width="3.921" stroke="black" fill="none" stroke-linecap="round"></path><path d="M 139.500,192.000 C 135.931,191.792 136.038,191.308 132.500,191.000" stroke-width="3.957" stroke="black" fill="none" stroke-linecap="round"></path><path d="M 132.500,191.000 C 129.558,189.765 129.431,190.292 126.500,189.000" stroke-width="4.009" stroke="black" fill="none" stroke-linecap="round"></path><path d="M 126.500,189.000 C 120.301,189.391 123.558,188.265 120.500,188.000" stroke-width="4.500" stroke="black" fill="none" stroke-linecap="round"></path><path d="M 120.500,188.000 C 123.842,184.797 120.801,185.891 127.500,182.000" stroke-width="4.952" stroke="black" fill="none" stroke-linecap="round"></path><path d="M 127.500,182.000 C 132.590,178.624 132.342,178.297 137.500,175.000" stroke-width="3.572" stroke="black" fill="none" stroke-linecap="round"></path><path d="M 137.500,175.000 C 153.424,162.896 153.590,163.124 169.500,151.000" stroke-width="2.916" stroke="black" fill="none" stroke-linecap="round"></path><path d="M 169.500,151.000 C 178.589,144.620 178.424,144.396 187.500,138.000" stroke-width="2.500" stroke="black" fill="none" stroke-linecap="round"></path><path d="M 187.500,138.000 C 195.940,131.420 196.089,131.620 204.500,125.000" stroke-width="2.434" stroke="black" fill="none" stroke-linecap="round"></path><path d="M 204.500,125.000 C 212.060,119.580 211.940,119.420 219.500,114.000" stroke-width="2.548" stroke="black" fill="none" stroke-linecap="round"></path><path d="M 219.500,114.000 C 225.907,108.873 226.060,109.080 232.500,104.000" stroke-width="2.761" stroke="black" fill="none" stroke-linecap="round"></path><path d="M 232.500,104.000 C 237.471,100.457 237.407,100.373 242.500,97.000" stroke-width="3.101" stroke="black" fill="none" stroke-linecap="round"></path><path d="M 242.500,97.000 C 245.278,94.464 245.471,94.957 248.500,93.000" stroke-width="3.607" stroke="black" fill="none" stroke-linecap="round"></path><path d="M 248.500,93.000 C 253.768,90.523 250.778,91.964 253.500,92.000" stroke-width="4.408" stroke="black" fill="none" stroke-linecap="round"></path><path d="M 253.500,92.000 C 250.445,98.302 252.768,96.023 246.500,104.000" stroke-width="4.083" stroke="black" fill="none" stroke-linecap="round"></path><path d="M 246.500,104.000 C 241.468,111.415 241.445,111.302 235.500,118.000" stroke-width="3.047" stroke="black" fill="none" stroke-linecap="round"></path><path d="M 235.500,118.000 C 226.622,127.125 226.968,127.415 217.500,136.000" stroke-width="2.376" stroke="black" fill="none" stroke-linecap="round"></path><path d="M 217.500,136.000 C 208.224,145.248 208.122,145.125 198.500,154.000" stroke-width="2.317" stroke="black" fill="none" stroke-linecap="round"></path><path d="M 198.500,154.000 C 188.000,163.000 188.224,163.248 177.500,172.000" stroke-width="2.191" stroke="black" fill="none" stroke-linecap="round"></path><path d="M 177.500,172.000 C 167.103,181.123 167.000,181.000 156.500,190.000" stroke-width="2.156" stroke="black" fill="none" stroke-linecap="round"></path><path d="M 156.500,190.000 C 145.500,199.000 145.603,199.123 134.500,208.000" stroke-width="2.063" stroke="black" fill="none" stroke-linecap="round"></path><path d="M 134.500,208.000 C 123.418,216.902 123.500,217.000 112.500,226.000" stroke-width="2.092" stroke="black" fill="none" stroke-linecap="round"></path><path d="M 112.500,226.000 C 102.605,234.627 102.418,234.402 92.500,243.000" stroke-width="2.119" stroke="black" fill="none" stroke-linecap="round"></path><path d="M 92.500,243.000 C 85.052,249.066 85.105,249.127 77.500,255.000" stroke-width="2.459" stroke="black" fill="none" stroke-linecap="round"></path><path d="M 77.500,255.000 C 71.221,260.324 71.052,260.066 64.500,265.000" stroke-width="2.728" stroke="black" fill="none" stroke-linecap="round"></path><path d="M 64.500,265.000 C 59.777,268.602 59.721,268.324 54.500,271.000" stroke-width="3.127" stroke="black" fill="none" stroke-linecap="round"></path><path d="M 54.500,271.000 C 45.268,276.661 48.777,273.602 42.500,275.000" stroke-width="3.688" stroke="black" fill="none" stroke-linecap="round"></path><path d="M 42.500,275.000 C 42.130,269.267 40.268,273.661 44.500,265.000" stroke-width="4.531" stroke="black" fill="none" stroke-linecap="round"></path><path d="M 44.500,265.000 C 48.400,260.895 47.130,260.267 52.500,257.000" stroke-width="3.589" stroke="black" fill="none" stroke-linecap="round"></path><path d="M 52.500,257.000 C 58.391,251.376 58.400,251.395 64.500,246.000" stroke-width="3.056" stroke="black" fill="none" stroke-linecap="round"></path><path d="M 64.500,246.000 C 70.522,239.812 70.891,240.376 77.500,235.000" stroke-width="2.880" stroke="black" fill="none" stroke-linecap="round"></path><path d="M 77.500,235.000 C 85.346,230.201 85.022,229.812 93.500,226.000" stroke-width="2.692" stroke="black" fill="none" stroke-linecap="round"></path><path d="M 93.500,226.000 C 101.957,221.905 101.846,221.701 110.500,218.000" stroke-width="2.678" stroke="black" fill="none" stroke-linecap="round"></path><path d="M 110.500,218.000 C 119.318,213.531 119.457,213.905 128.500,210.000" stroke-width="2.627" stroke="black" fill="none" stroke-linecap="round"></path><path d="M 128.500,210.000 C 138.925,206.254 138.818,206.031 149.500,203.000" stroke-width="2.496" stroke="black" fill="none" stroke-linecap="round"></path><path d="M 149.500,203.000 C 158.441,200.265 158.425,200.254 167.500,198.000" stroke-width="2.622" stroke="black" fill="none" stroke-linecap="round"></path><path d="M 167.500,198.000 C 176.526,196.111 176.441,195.765 185.500,194.000" stroke-width="2.616" stroke="black" fill="none" stroke-linecap="round"></path><path d="M 185.500,194.000 C 193.671,192.516 193.526,192.111 201.500,190.000" stroke-width="2.722" stroke="black" fill="none" stroke-linecap="round"></path><path d="M 201.500,190.000 C 207.466,187.414 207.671,188.016 213.500,185.000" stroke-width="3.032" stroke="black" fill="none" stroke-linecap="round"></path><path d="M 213.500,185.000 C 218.104,184.351 217.466,183.414 221.500,182.000" stroke-width="3.450" stroke="black" fill="none" stroke-linecap="round"></path><path d="M 221.500,182.000 C 226.783,177.697 224.604,179.851 226.500,176.000" stroke-width="4.332" stroke="black" fill="none" stroke-linecap="round"></path><path d="M 226.500,176.000 C 223.500,176.000 226.283,174.697 220.500,176.000" stroke-width="4.208" stroke="black" fill="none" stroke-linecap="round"></path><path d="M 220.500,176.000 C 216.484,175.751 216.500,176.000 212.500,176.000" stroke-width="3.877" stroke="black" fill="none" stroke-linecap="round"></path><path d="M 212.500,176.000 C 208.384,176.029 208.484,176.251 204.500,177.000" stroke-width="3.834" stroke="black" fill="none" stroke-linecap="round"></path><path d="M 204.500,177.000 C 200.448,178.374 200.384,178.029 196.500,180.000" stroke-width="3.770" stroke="black" fill="none" stroke-linecap="round"></path><path d="M 196.500,180.000 C 191.899,181.801 191.948,181.874 187.500,184.000" stroke-width="3.622" stroke="black" fill="none" stroke-linecap="round"></path><path d="M 187.500,184.000 C 183.844,185.771 183.899,185.801 180.500,188.000" stroke-width="3.704" stroke="black" fill="none" stroke-linecap="round"></path><path d="M 180.500,188.000 C 177.091,189.348 177.844,189.771 175.500,192.000" stroke-width="3.963" stroke="black" fill="none" stroke-linecap="round"></path><path d="M 175.500,192.000 C 171.789,197.509 172.591,196.848 171.500,203.000" stroke-width="4.094" stroke="black" fill="none" stroke-linecap="round"></path><path d="M 171.500,203.000 C 171.197,209.435 171.289,207.009 174.500,211.000" stroke-width="4.330" stroke="black" fill="none" stroke-linecap="round"></path><path d="M 174.500,211.000 C 182.611,212.584 180.697,213.935 190.500,212.000" stroke-width="3.962" stroke="black" fill="none" stroke-linecap="round"></path><path d="M 190.500,212.000 C 196.199,211.020 196.111,211.584 201.500,209.000" stroke-width="3.526" stroke="black" fill="none" stroke-linecap="round"></path><path d="M 201.500,209.000 C 206.619,206.712 206.699,207.020 211.500,204.000" stroke-width="3.432" stroke="black" fill="none" stroke-linecap="round"></path><path d="M 211.500,204.000 C 215.785,201.858 215.619,201.712 219.500,199.000" stroke-width="3.560" stroke="black" fill="none" stroke-linecap="round"></path><path d="M 219.500,199.000 C 222.000,196.500 222.285,196.858 224.500,194.000" stroke-width="3.839" stroke="black" fill="none" stroke-linecap="round"></path><path d="M 224.500,194.000 C 226.963,192.305 226.500,192.000 228.500,190.000" stroke-width="4.098" stroke="black" fill="none" stroke-linecap="round"></path><path d="M 228.500,190.000 C 231.810,185.936 229.963,187.805 230.500,185.000" stroke-width="4.575" stroke="black" fill="none" stroke-linecap="round"></path><path d="M 230.500,185.000 C 225.797,184.045 228.310,183.436 221.500,185.000" stroke-width="4.444" stroke="black" fill="none" stroke-linecap="round"></path><path d="M 221.500,185.000 C 216.236,186.064 216.797,186.045 212.500,189.000" stroke-width="4.386" stroke="black" fill="none" stroke-linecap="round"></path><path d="M 212.500,189.000 C 207.500,192.847 209.236,191.564 207.500,196.000" stroke-width="4.439" stroke="black" fill="none" stroke-linecap="round"></path><path d="M 207.500,196.000 C 209.679,199.799 207.500,198.347 212.500,200.000" stroke-width="4.960" stroke="black" fill="none" stroke-linecap="round"></path><path d="M 212.500,200.000 C 217.524,199.530 216.679,200.299 221.500,197.000" stroke-width="4.553" stroke="black" fill="none" stroke-linecap="round"></path><path d="M 221.500,197.000 C 239.753,185.444 239.524,185.530 256.500,172.000" stroke-width="2.050" stroke="black" fill="none" stroke-linecap="round"></path><path d="M 256.500,172.000 C 274.810,156.329 275.253,156.944 292.500,140.000" stroke-width="2.183" stroke="black" fill="none" stroke-linecap="round"></path><path d="M 292.500,140.000 C 300.643,132.137 300.810,132.329 308.500,124.000" stroke-width="2.439" stroke="black" fill="none" stroke-linecap="round"></path><path d="M 308.500,124.000 C 314.658,117.639 314.643,117.637 320.500,111.000" stroke-width="2.653" stroke="black" fill="none" stroke-linecap="round"></path><path d="M 320.500,111.000 C 325.442,104.951 325.658,105.139 330.500,99.000" stroke-width="2.785" stroke="black" fill="none" stroke-linecap="round"></path><path d="M 330.500,99.000 C 334.041,95.035 333.942,94.951 337.500,91.000" stroke-width="3.226" stroke="black" fill="none" stroke-linecap="round"></path><path d="M 337.500,91.000 C 340.685,88.328 340.041,88.035 342.500,85.000" stroke-width="3.595" stroke="black" fill="none" stroke-linecap="round"></path><path d="M 342.500,85.000 C 345.015,81.010 343.685,82.828 343.500,80.000" stroke-width="4.078" stroke="black" fill="none" stroke-linecap="round"></path><path d="M 343.500,80.000 C 337.540,76.475 340.515,78.010 333.500,79.000" stroke-width="4.463" stroke="black" fill="none" stroke-linecap="round"></path><path d="M 333.500,79.000 C 317.805,91.291 317.540,88.975 303.500,105.000" stroke-width="3.005" stroke="black" fill="none" stroke-linecap="round"></path><path d="M 303.500,105.000 C 294.358,114.876 293.805,114.291 285.500,125.000" stroke-width="2.306" stroke="black" fill="none" stroke-linecap="round"></path><path d="M 285.500,125.000 C 276.553,134.646 276.858,134.876 268.500,145.000" stroke-width="2.852" stroke="black" fill="none" stroke-linecap="round"></path><path d="M 268.500,145.000 C 255.518,161.679 255.553,161.646 243.500,179.000" stroke-width="1.857" stroke="black" fill="none" stroke-linecap="round"></path><path d="M 243.500,179.000 C 238.640,186.311 238.518,186.179 234.500,194.000" stroke-width="2.415" stroke="black" fill="none" stroke-linecap="round"></path><path d="M 234.500,194.000 C 231.843,199.435 231.640,199.311 229.500,205.000" stroke-width="2.918" stroke="black" fill="none" stroke-linecap="round"></path><path d="M 229.500,205.000 C 227.668,208.911 227.843,208.935 226.500,213.000" stroke-width="3.451" stroke="black" fill="none" stroke-linecap="round"></path><path d="M 226.500,213.000 C 224.226,219.182 225.668,215.911 225.500,219.000" stroke-width="4.255" stroke="black" fill="none" stroke-linecap="round"></path><path d="M 225.500,219.000 C 229.649,215.659 227.726,218.682 233.500,212.000" stroke-width="4.276" stroke="black" fill="none" stroke-linecap="round"></path><path d="M 233.500,212.000 C 239.380,205.875 239.649,206.159 245.500,200.000" stroke-width="3.062" stroke="black" fill="none" stroke-linecap="round"></path><path d="M 245.500,200.000 C 251.656,193.577 251.880,193.875 258.500,188.000" stroke-width="2.901" stroke="black" fill="none" stroke-linecap="round"></path><path d="M 258.500,188.000 C 265.389,182.835 265.156,182.577 272.500,178.000" stroke-width="2.765" stroke="black" fill="none" stroke-linecap="round"></path><path d="M 272.500,178.000 C 277.803,174.133 277.889,174.335 283.500,171.000" stroke-width="3.045" stroke="black" fill="none" stroke-linecap="round"></path><path d="M 283.500,171.000 C 287.900,168.725 287.803,168.633 292.500,167.000" stroke-width="3.338" stroke="black" fill="none" stroke-linecap="round"></path><path d="M 292.500,167.000 C 296.724,164.167 295.900,165.725 299.500,165.000" stroke-width="3.737" stroke="black" fill="none" stroke-linecap="round"></path><path d="M 299.500,165.000 C 303.455,167.613 301.724,165.667 302.500,170.000" stroke-width="4.561" stroke="black" fill="none" stroke-linecap="round"></path><path d="M 302.500,170.000 C 296.645,177.283 299.455,177.613 291.500,185.000" stroke-width="3.841" stroke="black" fill="none" stroke-linecap="round"></path><path d="M 291.500,185.000 C 289.887,187.949 289.645,187.783 288.500,191.000" stroke-width="3.926" stroke="black" fill="none" stroke-linecap="round"></path><path d="M 288.500,191.000 C 285.413,194.913 287.387,193.449 286.500,196.000" stroke-width="4.521" stroke="black" fill="none" stroke-linecap="round"></path><path d="M 286.500,196.000 C 290.463,197.446 287.913,197.413 293.500,196.000" stroke-width="4.181" stroke="black" fill="none" stroke-linecap="round"></path><path d="M 293.500,196.000 C 300.589,191.120 300.963,192.446 307.500,186.000" stroke-width="3.104" stroke="black" fill="none" stroke-linecap="round"></path><path d="M 307.500,186.000 C 313.940,180.920 314.089,181.120 320.500,176.000" stroke-width="2.931" stroke="black" fill="none" stroke-linecap="round"></path><path d="M 320.500,176.000 C 325.891,171.838 325.940,171.920 331.500,168.000" stroke-width="3.007" stroke="black" fill="none" stroke-linecap="round"></path><path d="M 331.500,168.000 C 335.533,165.550 335.391,165.338 339.500,163.000" stroke-width="3.410" stroke="black" fill="none" stroke-linecap="round"></path><path d="M 339.500,163.000 C 345.272,158.316 342.533,161.050 345.500,159.000" stroke-width="4.159" stroke="black" fill="none" stroke-linecap="round"></path><path d="M 345.500,159.000 C 343.417,162.875 345.772,159.816 340.500,166.000" stroke-width="4.366" stroke="black" fill="none" stroke-linecap="round"></path><path d="M 340.500,166.000 C 335.750,169.750 336.417,170.375 331.500,174.000" stroke-width="3.676" stroke="black" fill="none" stroke-linecap="round"></path><path d="M 331.500,174.000 C 327.595,178.590 327.250,178.250 323.500,183.000" stroke-width="3.337" stroke="black" fill="none" stroke-linecap="round"></path><path d="M 323.500,183.000 C 320.756,185.293 321.095,185.590 318.500,188.000" stroke-width="3.758" stroke="black" fill="none" stroke-linecap="round"></path><path d="M 318.500,188.000 C 314.096,191.424 315.756,191.293 313.500,195.000" stroke-width="4.206" stroke="black" fill="none" stroke-linecap="round"></path><path d="M 313.500,195.000 C 315.980,197.228 313.096,197.424 316.500,200.000" stroke-width="4.922" stroke="black" fill="none" stroke-linecap="round"></path><path d="M 316.500,200.000 C 316.158,205.534 317.480,205.228 316.500,211.000" stroke-width="4.712" stroke="black" fill="none" stroke-linecap="round"></path><path d="M 316.500,211.000 C 315.499,216.734 316.658,213.534 317.500,216.000" stroke-width="4.836" stroke="black" fill="none" stroke-linecap="round"></path><path d="M 317.500,216.000 C 333.250,209.662 330.499,211.234 346.500,200.000" stroke-width="3.696" stroke="black" fill="none" stroke-linecap="round"></path><path d="M 346.500,200.000 C 356.364,190.839 357.250,192.162 365.500,181.000" stroke-width="3.290" stroke="black" fill="none" stroke-linecap="round"></path><path d="M 365.500,181.000 C 375.205,169.231 375.864,169.839 385.500,158.000" stroke-width="2.279" stroke="black" fill="none" stroke-linecap="round"></path><path d="M 385.500,158.000 C 397.795,145.769 397.205,145.231 409.500,133.000" stroke-width="1.962" stroke="black" fill="none" stroke-linecap="round"></path><path d="M 409.500,133.000 C 419.426,121.435 419.795,121.769 429.500,110.000" stroke-width="1.998" stroke="black" fill="none" stroke-linecap="round"></path><path d="M 429.500,110.000 C 438.162,100.640 437.926,100.435 446.500,91.000" stroke-width="2.115" stroke="black" fill="none" stroke-linecap="round"></path><path d="M 446.500,91.000 C 454.000,82.000 454.162,82.140 461.500,73.000" stroke-width="2.284" stroke="black" fill="none" stroke-linecap="round"></path><path d="M 461.500,73.000 C 466.622,67.097 466.500,67.000 471.500,61.000" stroke-width="2.651" stroke="black" fill="none" stroke-linecap="round"></path><path d="M 471.500,61.000 C 474.900,57.225 474.622,57.097 477.500,53.000" stroke-width="3.217" stroke="black" fill="none" stroke-linecap="round"></path><path d="M 477.500,53.000 C 480.975,48.656 478.900,50.725 479.500,48.000" stroke-width="3.923" stroke="black" fill="none" stroke-linecap="round"></path><path d="M 479.500,48.000 C 472.891,45.968 476.475,46.656 468.500,49.000" stroke-width="4.100" stroke="black" fill="none" stroke-linecap="round"></path><path d="M 468.500,49.000 C 452.240,62.260 451.891,60.468 437.500,77.000" stroke-width="2.889" stroke="black" fill="none" stroke-linecap="round"></path><path d="M 437.500,77.000 C 428.326,87.356 427.740,86.760 419.500,98.000" stroke-width="2.255" stroke="black" fill="none" stroke-linecap="round"></path><path d="M 419.500,98.000 C 411.136,107.731 411.326,107.856 403.500,118.000" stroke-width="2.247" stroke="black" fill="none" stroke-linecap="round"></path><path d="M 403.500,118.000 C 396.450,127.169 396.636,127.231 390.500,137.000" stroke-width="2.901" stroke="black" fill="none" stroke-linecap="round"></path><path d="M 390.500,137.000 C 385.187,146.350 384.950,146.169 380.500,156.000" stroke-width="2.533" stroke="black" fill="none" stroke-linecap="round"></path><path d="M 380.500,156.000 C 377.113,164.051 376.687,163.850 373.500,172.000" stroke-width="2.697" stroke="black" fill="none" stroke-linecap="round"></path><path d="M 373.500,172.000 C 369.487,180.494 369.613,180.551 365.500,189.000" stroke-width="2.680" stroke="black" fill="none" stroke-linecap="round"></path><path d="M 365.500,189.000 C 362.873,197.054 361.987,196.494 358.500,204.000" stroke-width="2.739" stroke="black" fill="none" stroke-linecap="round"></path><path d="M 358.500,204.000 C 353.865,210.353 354.373,210.554 348.500,216.000" stroke-width="2.871" stroke="black" fill="none" stroke-linecap="round"></path><path d="M 348.500,216.000 C 344.377,220.557 344.365,220.353 339.500,224.000" stroke-width="3.203" stroke="black" fill="none" stroke-linecap="round"></path><path d="M 339.500,224.000 C 330.235,228.181 335.877,226.557 331.500,228.000" stroke-width="3.476" stroke="black" fill="none" stroke-linecap="round"></path><path d="M 331.500,228.000 C 339.235,226.097 333.735,227.681 346.500,223.000" stroke-width="3.673" stroke="black" fill="none" stroke-linecap="round"></path><path d="M 346.500,223.000 C 369.494,212.488 369.735,213.097 392.500,202.000" stroke-width="2.520" stroke="black" fill="none" stroke-linecap="round"></path><path d="M 392.500,202.000 C 403.511,197.024 403.494,196.988 414.500,192.000" stroke-width="2.436" stroke="black" fill="none" stroke-linecap="round"></path><path d="M 414.500,192.000 C 421.031,189.064 421.011,189.024 427.500,186.000" stroke-width="2.838" stroke="black" fill="none" stroke-linecap="round"></path><path d="M 427.500,186.000 C 433.954,183.454 430.531,184.564 433.500,183.000" stroke-width="3.581" stroke="black" fill="none" stroke-linecap="round"></path><path d="M 433.500,183.000 C 429.224,182.558 432.954,182.454 425.500,184.000" stroke-width="4.174" stroke="black" fill="none" stroke-linecap="round"></path><path d="M 425.500,184.000 C 413.859,189.221 413.724,188.558 402.500,195.000" stroke-width="2.611" stroke="black" fill="none" stroke-linecap="round"></path><path d="M 402.500,195.000 C 385.838,204.708 385.359,203.721 368.500,213.000" stroke-width="1.920" stroke="black" fill="none" stroke-linecap="round"></path><path d="M 368.500,213.000 C 351.248,221.138 351.338,221.208 333.500,228.000" stroke-width="1.787" stroke="black" fill="none" stroke-linecap="round"></path><path d="M 333.500,228.000 C 313.862,236.289 313.748,235.638 293.500,242.000" stroke-width="1.608" stroke="black" fill="none" stroke-linecap="round"></path><path d="M 293.500,242.000 C 272.709,247.970 272.862,247.789 251.500,251.000" stroke-width="2.136" stroke="black" fill="none" stroke-linecap="round"></path><path d="M 251.500,251.000 C 230.526,253.231 230.709,253.970 209.500,254.000" stroke-width="1.688" stroke="black" fill="none" stroke-linecap="round"></path><path d="M 209.500,254.000 C 189.188,256.395 189.526,254.731 169.500,254.000" stroke-width="1.681" stroke="black" fill="none" stroke-linecap="round"></path><path d="M 169.500,254.000 C 151.794,251.222 152.188,251.895 135.500,245.000" stroke-width="1.784" stroke="black" fill="none" stroke-linecap="round"></path><path d="M 135.500,245.000 C 120.890,242.276 124.294,240.722 114.500,233.000" stroke-width="2.080" stroke="black" fill="none" stroke-linecap="round"></path><path d="M 114.500,233.000 C 102.229,215.394 105.390,219.776 104.500,200.000" stroke-width="1.919" stroke="black" fill="none" stroke-linecap="round"></path><path d="M 104.500,200.000 C 110.903,182.988 106.729,184.894 123.500,172.000" stroke-width="1.838" stroke="black" fill="none" stroke-linecap="round"></path><path d="M 123.500,172.000 C 159.077,141.527 157.903,141.988 198.500,118.000" stroke-width="1.623" stroke="black" fill="none" stroke-linecap="round"></path><path d="M 198.500,118.000 C 222.319,105.823 221.077,104.527 247.500,98.000" stroke-width="1.387" stroke="black" fill="none" stroke-linecap="round"></path><path d="M 247.500,98.000 C 274.082,88.653 273.819,89.823 301.500,86.000" stroke-width="1.297" stroke="black" fill="none" stroke-linecap="round"></path><path d="M 301.500,86.000 C 352.190,81.882 351.582,81.153 402.500,83.000" stroke-width="1.378" stroke="black" fill="none" stroke-linecap="round"></path><path d="M 402.500,83.000 C 419.873,84.689 419.690,83.382 436.500,89.000" stroke-width="1.681" stroke="black" fill="none" stroke-linecap="round"></path><path d="M 436.500,89.000 C 447.199,91.869 446.873,91.689 456.500,97.000" stroke-width="2.126" stroke="black" fill="none" stroke-linecap="round"></path><path d="M 456.500,97.000 C 463.414,100.045 461.699,99.869 465.500,105.000" stroke-width="2.867" stroke="black" fill="none" stroke-linecap="round"></path><path d="M 465.500,105.000 C 468.322,112.627 467.414,109.545 464.500,116.000" stroke-width="3.226" stroke="black" fill="none" stroke-linecap="round"></path><path d="M 464.500,116.000 C 448.420,126.311 451.322,127.627 431.500,135.000" stroke-width="2.015" stroke="black" fill="none" stroke-linecap="round"></path><path d="M 431.500,135.000 C 411.507,145.790 411.420,145.311 390.500,154.000" stroke-width="1.601" stroke="black" fill="none" stroke-linecap="round"></path><path d="M 390.500,154.000 C 367.634,161.938 368.007,162.790 344.500,169.000" stroke-width="1.453" stroke="black" fill="none" stroke-linecap="round"></path><path d="M 344.500,169.000 C 320.289,177.259 320.134,176.438 295.500,183.000" stroke-width="1.421" stroke="black" fill="none" stroke-linecap="round"></path><path d="M 295.500,183.000 C 272.651,188.520 272.789,188.259 249.500,191.000" stroke-width="1.476" stroke="black" fill="none" stroke-linecap="round"></path><path d="M 249.500,191.000 C 230.502,191.672 230.651,193.020 211.500,192.000" stroke-width="1.604" stroke="black" fill="none" stroke-linecap="round"></path><path d="M 211.500,192.000 C 201.500,192.000 201.502,192.172 191.500,192.000" stroke-width="2.184" stroke="black" fill="none" stroke-linecap="round"></path><path d="M 191.500,192.000 C 182.514,193.295 188.000,192.000 184.500,192.000" stroke-width="3.162" stroke="black" fill="none" stroke-linecap="round"></path><path d="M 434.500,207.000 C 424.740,203.640 430.500,205.000 426.500,203.000" stroke-width="3.155" stroke="black" fill="none" stroke-linecap="round"></path><path d="M 426.500,203.000 C 436.000,203.000 430.240,201.640 445.500,203.000" stroke-width="3.925" stroke="black" fill="none" stroke-linecap="round"></path><path d="M 445.500,203.000 C 457.613,204.189 457.500,203.000 469.500,203.000" stroke-width="2.656" stroke="black" fill="none" stroke-linecap="round"></path><path d="M 469.500,203.000 C 482.660,201.145 482.613,201.689 495.500,198.000" stroke-width="2.319" stroke="black" fill="none" stroke-linecap="round"></path><path d="M 495.500,198.000 C 506.972,194.406 507.160,195.145 518.500,191.000" stroke-width="2.269" stroke="black" fill="none" stroke-linecap="round"></path><path d="M 518.500,191.000 C 528.979,187.923 528.972,187.906 539.500,185.000" stroke-width="2.344" stroke="black" fill="none" stroke-linecap="round"></path><path d="M 539.500,185.000 C 546.897,182.408 546.979,182.923 554.500,181.000" stroke-width="2.732" stroke="black" fill="none" stroke-linecap="round"></path><path d="M 554.500,181.000 C 560.492,180.300 560.397,179.908 566.500,180.000" stroke-width="3.050" stroke="black" fill="none" stroke-linecap="round"></path><path d="M 566.500,180.000 C 570.561,179.508 570.492,179.800 574.500,180.000" stroke-width="3.508" stroke="black" fill="none" stroke-linecap="round"></path><path d="M 574.500,180.000 C 579.092,179.955 578.561,180.508 582.500,182.000" stroke-width="3.648" stroke="black" fill="none" stroke-linecap="round"></path><path d="M 582.500,182.000 C 589.773,186.545 586.592,184.455 589.500,189.000" stroke-width="4.117" stroke="black" fill="none" stroke-linecap="round"></path><path d="M 589.500,189.000 C 585.555,191.442 589.273,191.045 581.500,191.000" stroke-width="4.682" stroke="black" fill="none" stroke-linecap="round"></path><path d="M 581.500,191.000 C 558.136,185.626 558.055,188.442 534.500,183.000" stroke-width="2.715" stroke="black" fill="none" stroke-linecap="round"></path><path d="M 534.500,183.000 C 517.504,182.243 517.636,181.126 500.500,182.000" stroke-width="2.127" stroke="black" fill="none" stroke-linecap="round"></path><path d="M 500.500,182.000 C 482.500,182.000 482.504,181.743 464.500,182.000" stroke-width="1.833" stroke="black" fill="none" stroke-linecap="round"></path><path d="M 464.500,182.000 C 443.950,180.990 444.000,182.000 423.500,182.000" stroke-width="1.700" stroke="black" fill="none" stroke-linecap="round"></path><path d="M 423.500,182.000 C 403.337,182.878 403.450,182.990 383.500,186.000" stroke-width="2.210" stroke="black" fill="none" stroke-linecap="round"></path><path d="M 383.500,186.000 C 348.941,190.640 349.337,191.378 315.500,199.000" stroke-width="1.304" stroke="black" fill="none" stroke-linecap="round"></path><path d="M 315.500,199.000 C 303.400,203.775 302.941,202.140 291.500,209.000" stroke-width="1.796" stroke="black" fill="none" stroke-linecap="round"></path></svg>