<svg xmlns="http://www.w3.org/2000/svg" xmlns:xlink="http://www.w3.org/1999/xlink" viewBox="0 0 1460 576" width="1460" height="576"><path d="M 777.000,252.000 C 780.087,253.881 780.000,254.000 783.000,256.000" stroke-width="5.058" stroke="black" fill="none" stroke-linecap="round"></path><path d="M 783.000,256.000 C 787.370,257.101 785.587,257.881 788.000,260.000" stroke-width="4.336" stroke="black" fill="none" stroke-linecap="round"></path><path d="M 788.000,260.000 C 792.068,271.041 789.870,268.601 788.000,279.000" stroke-width="3.006" stroke="black" fill="none" stroke-linecap="round"></path><path d="M 788.000,279.000 C 779.010,295.160 780.568,293.541 765.000,305.000" stroke-width="2.090" stroke="black" fill="none" stroke-linecap="round"></path><path d="M 765.000,305.000 C 735.151,322.906 737.010,324.660 704.000,338.000" stroke-width="1.239" stroke="black" fill="none" stroke-linecap="round"></path><path d="M 704.000,338.000 C 686.611,348.012 686.651,346.406 668.000,352.000" stroke-width="1.499" stroke="black" fill="none" stroke-linecap="round"></path><path d="M 668.000,352.000 C 649.792,357.075 651.611,355.512 634.000,353.000" stroke-width="1.743" stroke="black" fill="none" stroke-linecap="round"></path><path d="M 634.000,353.000 C 613.570,349.569 618.792,349.075 606.000,336.000" stroke-width="1.865" stroke="black" fill="none" stroke-linecap="round"></path><path d="M 606.000,336.000 C 584.938,297.874 587.070,302.069 581.000,258.000" stroke-width="1.130" stroke="black" fill="none" stroke-linecap="round"></path><path d="M 581.000,258.000 C 575.406,211.092 576.938,216.874 590.000,174.000" stroke-width="1.181" stroke="black" fill="none" stroke-linecap="round"></path><path d="M 590.000,174.000 C 606.417,150.287 599.406,150.092 629.000,136.000" stroke-width="1.287" stroke="black" fill="none" stroke-linecap="round"></path><path d="M 629.000,136.000 C 657.125,112.804 655.417,119.287 688.000,112.000" stroke-width="1.214" stroke="black" fill="none" stroke-linecap="round"></path><path d="M 688.000,112.000 C 755.661,117.690 753.125,110.304 821.000,131.000" stroke-width="1.139" stroke="black" fill="none" stroke-linecap="round"></path><path d="M 821.000,131.000 C 835.939,137.266 836.661,134.190 850.000,145.000" stroke-width="1.603" stroke="black" fill="none" stroke-linecap="round"></path><path d="M 850.000,145.000 C 856.389,148.146 855.939,148.266 861.000,153.000" stroke-width="2.432" stroke="black" fill="none" stroke-linecap="round"></path><path d="M 861.000,153.000 C 869.972,158.294 865.889,158.146 869.000,165.000" stroke-width="2.830" stroke="black" fill="none" stroke-linecap="round"></path><path d="M 869.000,165.000 C 866.952,198.198 864.972,192.794 851.000,222.000" stroke-width="2.160" stroke="black" fill="none" stroke-linecap="round"></path><path d="M 851.000,222.000 C 829.388,241.693 835.452,245.198 806.000,259.000" stroke-width="1.598" stroke="black" fill="none" stroke-linecap="round"></path><path d="M 806.000,259.000 C 779.940,280.324 779.388,278.693 751.000,296.000" stroke-width="1.208" stroke="black" fill="none" stroke-linecap="round"></path><path d="M 751.000,296.000 C 730.793,304.688 731.940,306.324 710.000,311.000" stroke-width="1.404" stroke="black" fill="none" stroke-linecap="round"></path><path d="M 710.000,311.000 C 702.528,312.421 702.793,313.188 695.000,313.000" stroke-width="2.228" stroke="black" fill="none" stroke-linecap="round"></path><path d="M 695.000,313.000 C 689.500,313.000 689.528,313.421 684.000,313.000" stroke-width="2.944" stroke="black" fill="none" stroke-linecap="round"></path><path d="M 684.000,313.000 C 677.677,315.708 680.500,313.000 677.000,313.000" stroke-width="3.944" stroke="black" fill="none" stroke-linecap="round"></path><path d="M 677.000,313.000 C 675.955,300.686 674.677,303.708 678.000,289.000" stroke-width="2.582" stroke="black" fill="none" stroke-linecap="round"></path><path d="M 678.000,289.000 C 679.934,280.489 679.455,280.686 684.000,273.000" stroke-width="2.677" stroke="black" fill="none" stroke-linecap="round"></path><path d="M 684.000,273.000 C 698.613,244.646 698.934,245.489 716.000,219.000" stroke-width="2.145" stroke="black" fill="none" stroke-linecap="round"></path><path d="M 716.000,219.000 C 719.497,214.985 718.613,215.146 724.000,214.000" stroke-width="3.035" stroke="black" fill="none" stroke-linecap="round"></path><path d="M 724.000,214.000 C 736.177,211.361 735.497,211.485 748.000,212.000" stroke-width="2.502" stroke="black" fill="none" stroke-linecap="round"></path><path d="M 748.000,212.000 C 755.077,212.910 754.677,212.361 761.000,216.000" stroke-width="2.856" stroke="black" fill="none" stroke-linecap="round"></path><path d="M 761.000,216.000 C 768.046,218.613 766.577,218.910 771.000,224.000" stroke-width="3.094" stroke="black" fill="none" stroke-linecap="round"></path><path d="M 771.000,224.000 C 778.851,235.424 776.546,234.113 778.000,247.000" stroke-width="2.580" stroke="black" fill="none" stroke-linecap="round"></path><path d="M 778.000,247.000 C 774.365,270.586 776.351,269.424 766.000,292.000" stroke-width="2.371" stroke="black" fill="none" stroke-linecap="round"></path><path d="M 766.000,292.000 C 759.535,301.524 761.865,302.586 753.000,311.000" stroke-width="2.325" stroke="black" fill="none" stroke-linecap="round"></path><path d="M 753.000,311.000 C 749.988,316.442 749.535,316.024 746.000,321.000" stroke-width="2.870" stroke="black" fill="none" stroke-linecap="round"></path></svg>