<svg xmlns="http://www.w3.org/2000/svg" xmlns:xlink="http://www.w3.org/1999/xlink" viewBox="0 0 452 236" width="452" height="236"><path d="M 57.000,51.000 C 58.527,53.399 58.000,53.500 59.000,56.000" stroke-width="5.238" stroke="black" fill="none" stroke-linecap="round"></path><path d="M 59.000,56.000 C 59.000,59.000 59.527,58.899 59.000,62.000" stroke-width="4.525" stroke="black" fill="none" stroke-linecap="round"></path><path d="M 59.000,62.000 C 59.000,66.000 59.000,66.000 59.000,70.000" stroke-width="4.011" stroke="black" fill="none" stroke-linecap="round"></path><path d="M 59.000,70.000 C 59.261,75.513 59.000,75.500 59.000,81.000" stroke-width="3.511" stroke="black" fill="none" stroke-linecap="round"></path><path d="M 59.000,81.000 C 58.476,85.998 58.761,86.013 58.000,91.000" stroke-width="3.472" stroke="black" fill="none" stroke-linecap="round"></path><path d="M 58.000,91.000 C 57.610,96.513 57.476,96.498 57.000,102.000" stroke-width="3.428" stroke="black" fill="none" stroke-linecap="round"></path><path d="M 57.000,102.000 C 56.467,105.496 56.610,105.513 56.000,109.000" stroke-width="3.834" stroke="black" fill="none" stroke-linecap="round"></path><path d="M 63.000,72.000 C 63.219,75.219 64.000,74.500 65.000,77.000" stroke-width="5.330" stroke="black" fill="none" stroke-linecap="round"></path><path d="M 65.000,77.000 C 67.836,79.026 67.219,79.219 71.000,80.000" stroke-width="4.871" stroke="black" fill="none" stroke-linecap="round"></path><path d="M 71.000,80.000 C 74.481,80.765 74.336,81.026 78.000,81.000" stroke-width="4.735" stroke="black" fill="none" stroke-linecap="round"></path><path d="M 78.000,81.000 C 82.000,81.000 81.981,81.265 86.000,81.000" stroke-width="4.607" stroke="black" fill="none" stroke-linecap="round"></path><path d="M 111.000,39.000 C 109.753,41.418 110.000,41.500 109.000,44.000" stroke-width="5.215" stroke="black" fill="none" stroke-linecap="round"></path><path d="M 109.000,44.000 C 106.859,53.607 106.253,53.418 104.000,63.000" stroke-width="3.939" stroke="black" fill="none" stroke-linecap="round"></path><path d="M 104.000,63.000 C 99.398,76.467 99.859,76.607 95.000,90.000" stroke-width="3.281" stroke="black" fill="none" stroke-linecap="round"></path><path d="M 95.000,90.000 C 92.954,96.486 92.898,96.467 91.000,103.000" stroke-width="3.784" stroke="black" fill="none" stroke-linecap="round"></path><path d="M 91.000,103.000 C 88.330,111.458 88.454,111.486 86.000,120.000" stroke-width="2.928" stroke="black" fill="none" stroke-linecap="round"></path><path d="M 132.000,88.000 C 131.467,91.496 131.500,91.500 131.000,95.000" stroke-width="5.196" stroke="black" fill="none" stroke-linecap="round"></path><path d="M 131.000,95.000 C 131.028,99.143 130.467,98.996 130.000,103.000" stroke-width="4.146" stroke="black" fill="none" stroke-linecap="round"></path><path d="M 130.000,103.000 C 128.798,106.661 129.028,106.643 127.000,110.000" stroke-width="4.009" stroke="black" fill="none" stroke-linecap="round"></path><path d="M 127.000,110.000 C 124.717,112.851 125.298,113.161 123.000,116.000" stroke-width="3.967" stroke="black" fill="none" stroke-linecap="round"></path><path d="M 123.000,116.000 C 122.802,119.198 121.717,118.351 121.000,121.000" stroke-width="4.133" stroke="black" fill="none" stroke-linecap="round"></path><circle r="1.5" cx="144" cy="43" fill="black"></circle><path d="M 202.000,98.000 C 204.359,100.797 203.500,101.000 205.000,104.000" stroke-width="5.306" stroke="black" fill="none" stroke-linecap="round"></path><path d="M 205.000,104.000 C 205.000,108.500 205.859,108.297 205.000,113.000" stroke-width="4.674" stroke="black" fill="none" stroke-linecap="round"></path><path d="M 205.000,113.000 C 203.178,120.000 205.000,116.500 205.000,120.000" stroke-width="4.651" stroke="black" fill="none" stroke-linecap="round"></path><path d="M 205.000,120.000 C 210.603,117.123 208.178,120.000 215.000,113.000" stroke-width="4.572" stroke="black" fill="none" stroke-linecap="round"></path><path d="M 215.000,113.000 C 217.849,108.878 218.603,109.623 221.000,105.000" stroke-width="3.913" stroke="black" fill="none" stroke-linecap="round"></path><path d="M 221.000,105.000 C 224.500,101.000 224.349,100.878 228.000,97.000" stroke-width="3.524" stroke="black" fill="none" stroke-linecap="round"></path><path d="M 228.000,97.000 C 231.127,92.575 231.500,93.000 235.000,89.000" stroke-width="3.422" stroke="black" fill="none" stroke-linecap="round"></path><path d="M 235.000,89.000 C 237.804,86.598 237.627,86.575 241.000,85.000" stroke-width="3.924" stroke="black" fill="none" stroke-linecap="round"></path><path d="M 241.000,85.000 C 245.762,81.556 243.804,83.598 247.000,83.000" stroke-width="4.449" stroke="black" fill="none" stroke-linecap="round"></path><path d="M 247.000,83.000 C 248.055,87.780 248.762,85.056 247.000,92.000" stroke-width="4.429" stroke="black" fill="none" stroke-linecap="round"></path><path d="M 247.000,92.000 C 245.111,95.569 246.055,95.780 243.000,99.000" stroke-width="3.923" stroke="black" fill="none" stroke-linecap="round"></path><path d="M 243.000,99.000 C 238.541,105.000 241.111,102.069 239.000,105.000" stroke-width="4.368" stroke="black" fill="none" stroke-linecap="round"></path><path d="M 239.000,105.000 C 241.893,101.885 239.541,105.000 245.000,99.000" stroke-width="4.638" stroke="black" fill="none" stroke-linecap="round"></path><path d="M 245.000,99.000 C 248.811,95.258 248.893,95.385 253.000,92.000" stroke-width="3.808" stroke="black" fill="none" stroke-linecap="round"></path><path d="M 253.000,92.000 C 257.971,88.457 257.811,88.258 263.000,85.000" stroke-width="3.354" stroke="black" fill="none" stroke-linecap="round"></path><path d="M 263.000,85.000 C 265.851,82.717 265.971,82.957 269.000,81.000" stroke-width="3.750" stroke="black" fill="none" stroke-linecap="round"></path><path d="M 269.000,81.000 C 272.219,78.109 271.351,79.717 274.000,79.000" stroke-width="4.101" stroke="black" fill="none" stroke-linecap="round"></path><path d="M 274.000,79.000 C 276.802,81.826 276.219,80.109 277.000,85.000" stroke-width="4.680" stroke="black" fill="none" stroke-linecap="round"></path><path d="M 277.000,85.000 C 276.431,90.134 277.302,89.826 275.000,95.000" stroke-width="3.799" stroke="black" fill="none" stroke-linecap="round"></path><path d="M 275.000,95.000 C 273.464,98.485 273.931,98.634 272.000,102.000" stroke-width="3.808" stroke="black" fill="none" stroke-linecap="round"></path><path d="M 272.000,102.000 C 270.790,104.432 270.964,104.485 270.000,107.000" stroke-width="4.080" stroke="black" fill="none" stroke-linecap="round"></path><path d="M 322.000,92.000 C 317.513,92.735 317.500,92.500 313.000,93.000" stroke-width="5.226" stroke="black" fill="none" stroke-linecap="round"></path><path d="M 313.000,93.000 C 308.987,92.765 309.013,93.235 305.000,93.000" stroke-width="4.160" stroke="black" fill="none" stroke-linecap="round"></path><path d="M 305.000,93.000 C 300.449,93.215 300.487,93.265 296.000,94.000" stroke-width="3.804" stroke="black" fill="none" stroke-linecap="round"></path><path d="M 296.000,94.000 C 291.792,94.483 291.949,94.715 288.000,96.000" stroke-width="3.842" stroke="black" fill="none" stroke-linecap="round"></path><path d="M 288.000,96.000 C 283.607,97.156 284.292,97.483 281.000,100.000" stroke-width="3.823" stroke="black" fill="none" stroke-linecap="round"></path><path d="M 281.000,100.000 C 276.528,104.223 278.107,103.156 277.000,108.000" stroke-width="4.226" stroke="black" fill="none" stroke-linecap="round"></path><path d="M 277.000,108.000 C 279.176,113.647 277.528,112.223 283.000,116.000" stroke-width="4.289" stroke="black" fill="none" stroke-linecap="round"></path><path d="M 283.000,116.000 C 286.500,116.000 285.676,117.647 290.000,116.000" stroke-width="4.071" stroke="black" fill="none" stroke-linecap="round"></path><path d="M 290.000,116.000 C 294.221,117.588 293.500,116.000 297.000,116.000" stroke-width="4.010" stroke="black" fill="none" stroke-linecap="round"></path><path d="M 297.000,116.000 C 301.598,112.504 301.221,113.588 304.000,108.000" stroke-width="4.178" stroke="black" fill="none" stroke-linecap="round"></path><path d="M 304.000,108.000 C 306.672,103.299 305.598,105.004 305.000,101.000" stroke-width="4.502" stroke="black" fill="none" stroke-linecap="round"></path><path d="M 330.000,97.000 C 331.301,102.575 330.500,102.500 331.000,108.000" stroke-width="5.140" stroke="black" fill="none" stroke-linecap="round"></path><path d="M 331.000,108.000 C 329.882,111.471 330.801,111.575 329.000,115.000" stroke-width="4.236" stroke="black" fill="none" stroke-linecap="round"></path><path d="M 329.000,115.000 C 326.980,120.340 328.382,117.471 328.000,120.000" stroke-width="4.338" stroke="black" fill="none" stroke-linecap="round"></path><path d="M 328.000,120.000 C 331.625,116.617 329.980,119.340 335.000,113.000" stroke-width="4.735" stroke="black" fill="none" stroke-linecap="round"></path><path d="M 335.000,113.000 C 338.336,108.847 338.625,109.117 342.000,105.000" stroke-width="3.765" stroke="black" fill="none" stroke-linecap="round"></path><path d="M 342.000,105.000 C 348.325,98.304 348.336,98.347 355.000,92.000" stroke-width="2.881" stroke="black" fill="none" stroke-linecap="round"></path><path d="M 355.000,92.000 C 358.832,86.832 357.325,89.804 360.000,88.000" stroke-width="3.630" stroke="black" fill="none" stroke-linecap="round"></path><path d="M 360.000,88.000 C 361.758,93.202 361.832,89.832 361.000,98.000" stroke-width="4.424" stroke="black" fill="none" stroke-linecap="round"></path><path d="M 361.000,98.000 C 355.978,105.978 360.258,102.702 357.000,107.000" stroke-width="4.359" stroke="black" fill="none" stroke-linecap="round"></path><path d="M 357.000,107.000 C 361.151,104.717 357.978,107.978 365.000,102.000" stroke-width="4.614" stroke="black" fill="none" stroke-linecap="round"></path><path d="M 365.000,102.000 C 369.440,98.420 369.651,98.717 374.000,95.000" stroke-width="3.595" stroke="black" fill="none" stroke-linecap="round"></path><path d="M 374.000,95.000 C 377.387,92.323 377.440,92.420 381.000,90.000" stroke-width="3.692" stroke="black" fill="none" stroke-linecap="round"></path><path d="M 381.000,90.000 C 386.000,85.000 384.387,87.823 388.000,86.000" stroke-width="4.235" stroke="black" fill="none" stroke-linecap="round"></path><path d="M 388.000,86.000 C 389.800,90.198 390.000,87.000 389.000,94.000" stroke-width="4.644" stroke="black" fill="none" stroke-linecap="round"></path><path d="M 389.000,94.000 C 386.278,99.408 387.800,99.698 384.000,105.000" stroke-width="3.604" stroke="black" fill="none" stroke-linecap="round"></path><path d="M 384.000,105.000 C 380.220,112.859 380.778,112.908 378.000,121.000" stroke-width="3.749" stroke="black" fill="none" stroke-linecap="round"></path><path d="M 420.000,130.000 C 414.498,130.476 414.500,130.500 409.000,131.000" stroke-width="4.296" stroke="black" fill="none" stroke-linecap="round"></path><path d="M 409.000,131.000 C 404.008,131.599 403.998,131.476 399.000,132.000" stroke-width="3.734" stroke="black" fill="none" stroke-linecap="round"></path><path d="M 399.000,132.000 C 391.510,132.797 391.508,132.599 384.000,133.000" stroke-width="3.297" stroke="black" fill="none" stroke-linecap="round"></path><path d="M 384.000,133.000 C 373.000,133.000 373.010,133.297 362.000,133.000" stroke-width="2.656" stroke="black" fill="none" stroke-linecap="round"></path><path d="M 362.000,133.000 C 349.000,133.000 349.000,133.000 336.000,133.000" stroke-width="2.338" stroke="black" fill="none" stroke-linecap="round"></path><path d="M 336.000,133.000 C 319.485,133.500 319.500,133.000 303.000,133.000" stroke-width="1.963" stroke="black" fill="none" stroke-linecap="round"></path><path d="M 303.000,133.000 C 286.512,131.718 286.485,132.500 270.000,131.000" stroke-width="1.977" stroke="black" fill="none" stroke-linecap="round"></path><path d="M 270.000,131.000 C 252.004,130.234 252.012,130.218 234.000,130.000" stroke-width="1.798" stroke="black" fill="none" stroke-linecap="round"></path><path d="M 234.000,130.000 C 213.497,129.741 213.504,129.734 193.000,130.000" stroke-width="1.639" stroke="black" fill="none" stroke-linecap="round"></path><path d="M 193.000,130.000 C 173.991,130.260 173.997,130.241 155.000,131.000" stroke-width="1.797" stroke="black" fill="none" stroke-linecap="round"></path><path d="M 155.000,131.000 C 135.512,132.480 135.491,131.760 116.000,133.000" stroke-width="1.680" stroke="black" fill="none" stroke-linecap="round"></path><path d="M 116.000,133.000 C 97.994,132.700 98.012,133.480 80.000,133.000" stroke-width="1.812" stroke="black" fill="none" stroke-linecap="round"></path><path d="M 80.000,133.000 C 67.970,133.124 67.994,133.200 56.000,134.000" stroke-width="2.147" stroke="black" fill="none" stroke-linecap="round"></path><path d="M 56.000,134.000 C 47.207,133.948 47.470,134.624 39.000,136.000" stroke-width="2.567" stroke="black" fill="none" stroke-linecap="round"></path><path d="M 39.000,136.000 C 32.947,137.702 33.207,137.448 28.000,141.000" stroke-width="2.983" stroke="black" fill="none" stroke-linecap="round"></path></svg>