<svg xmlns="http://www.w3.org/2000/svg" xmlns:xlink="http://www.w3.org/1999/xlink" viewBox="0 0 1460 535" width="1460" height="535"><path d="M 740.000,252.000 C 740.330,246.319 739.500,246.500 739.000,241.000" stroke-width="4.830" stroke="black" fill="none" stroke-linecap="round"></path><path d="M 739.000,241.000 C 736.876,232.050 736.830,232.319 733.000,224.000" stroke-width="3.213" stroke="black" fill="none" stroke-linecap="round"></path><path d="M 733.000,224.000 C 730.437,218.067 730.376,218.550 726.000,214.000" stroke-width="3.256" stroke="black" fill="none" stroke-linecap="round"></path><path d="M 726.000,214.000 C 718.426,205.770 718.437,207.067 709.000,202.000" stroke-width="2.711" stroke="black" fill="none" stroke-linecap="round"></path><path d="M 709.000,202.000 C 697.549,198.550 698.426,197.770 686.000,198.000" stroke-width="2.463" stroke="black" fill="none" stroke-linecap="round"></path><path d="M 686.000,198.000 C 676.481,198.851 676.549,197.550 667.000,200.000" stroke-width="2.533" stroke="black" fill="none" stroke-linecap="round"></path><path d="M 667.000,200.000 C 659.839,200.359 659.981,200.851 653.000,202.000" stroke-width="2.887" stroke="black" fill="none" stroke-linecap="round"></path><path d="M 653.000,202.000 C 646.798,203.001 647.339,203.359 642.000,206.000" stroke-width="3.131" stroke="black" fill="none" stroke-linecap="round"></path><path d="M 642.000,206.000 C 639.098,208.737 638.798,208.001 637.000,212.000" stroke-width="3.604" stroke="black" fill="none" stroke-linecap="round"></path><path d="M 637.000,212.000 C 632.234,216.172 634.598,215.737 633.000,220.000" stroke-width="3.607" stroke="black" fill="none" stroke-linecap="round"></path><path d="M 633.000,220.000 C 635.511,227.687 634.234,226.172 641.000,232.000" stroke-width="3.127" stroke="black" fill="none" stroke-linecap="round"></path><path d="M 641.000,232.000 C 650.404,238.909 649.511,238.687 661.000,242.000" stroke-width="2.667" stroke="black" fill="none" stroke-linecap="round"></path><path d="M 661.000,242.000 C 674.949,244.723 674.404,245.909 689.000,246.000" stroke-width="2.120" stroke="black" fill="none" stroke-linecap="round"></path><path d="M 689.000,246.000 C 697.031,246.556 696.949,246.723 705.000,246.000" stroke-width="2.656" stroke="black" fill="none" stroke-linecap="round"></path><path d="M 705.000,246.000 C 718.478,244.096 718.531,245.056 732.000,243.000" stroke-width="2.942" stroke="black" fill="none" stroke-linecap="round"></path><path d="M 732.000,243.000 C 737.067,242.452 736.978,242.596 742.000,243.000" stroke-width="3.338" stroke="black" fill="none" stroke-linecap="round"></path><path d="M 742.000,243.000 C 747.266,242.494 746.067,243.452 750.000,245.000" stroke-width="4.075" stroke="black" fill="none" stroke-linecap="round"></path><path d="M 750.000,245.000 C 753.406,249.250 753.266,247.994 754.000,254.000" stroke-width="3.701" stroke="black" fill="none" stroke-linecap="round"></path><path d="M 754.000,254.000 C 754.920,261.801 754.906,261.250 753.000,269.000" stroke-width="3.102" stroke="black" fill="none" stroke-linecap="round"></path><path d="M 753.000,269.000 C 748.050,284.252 748.920,284.301 742.000,299.000" stroke-width="2.197" stroke="black" fill="none" stroke-linecap="round"></path><path d="M 742.000,299.000 C 740.015,303.889 740.050,303.752 737.000,308.000" stroke-width="2.932" stroke="black" fill="none" stroke-linecap="round"></path><path d="M 737.000,308.000 C 734.000,311.000 734.515,311.389 731.000,314.000" stroke-width="3.462" stroke="black" fill="none" stroke-linecap="round"></path><path d="M 731.000,314.000 C 725.937,318.798 729.000,316.000 727.000,318.000" stroke-width="4.302" stroke="black" fill="none" stroke-linecap="round"></path><path d="M 727.000,318.000 C 733.020,313.023 729.937,315.798 739.000,308.000" stroke-width="4.005" stroke="black" fill="none" stroke-linecap="round"></path><path d="M 739.000,308.000 C 745.145,301.986 745.520,302.523 752.000,297.000" stroke-width="3.086" stroke="black" fill="none" stroke-linecap="round"></path><path d="M 752.000,297.000 C 756.319,294.006 756.145,293.986 761.000,292.000" stroke-width="3.257" stroke="black" fill="none" stroke-linecap="round"></path><path d="M 761.000,292.000 C 765.750,289.250 763.319,291.006 766.000,291.000" stroke-width="3.939" stroke="black" fill="none" stroke-linecap="round"></path><path d="M 766.000,291.000 C 765.620,298.925 766.750,296.250 763.000,306.000" stroke-width="3.845" stroke="black" fill="none" stroke-linecap="round"></path><path d="M 763.000,306.000 C 760.104,312.419 760.620,312.425 756.000,318.000" stroke-width="3.350" stroke="black" fill="none" stroke-linecap="round"></path><path d="M 756.000,318.000 C 747.414,329.410 747.604,329.419 738.000,340.000" stroke-width="2.369" stroke="black" fill="none" stroke-linecap="round"></path><path d="M 738.000,340.000 C 734.750,342.250 735.414,342.910 732.000,345.000" stroke-width="3.207" stroke="black" fill="none" stroke-linecap="round"></path><path d="M 732.000,345.000 C 725.712,351.000 729.250,347.750 727.000,351.000" stroke-width="4.056" stroke="black" fill="none" stroke-linecap="round"></path><path d="M 727.000,351.000 C 733.075,348.137 729.212,351.000 739.000,345.000" stroke-width="4.016" stroke="black" fill="none" stroke-linecap="round"></path><path d="M 739.000,345.000 C 744.723,341.638 741.575,343.637 744.000,342.000" stroke-width="4.522" stroke="black" fill="none" stroke-linecap="round"></path><path d="M 744.000,342.000 C 739.412,344.353 742.723,342.638 735.000,347.000" stroke-width="4.547" stroke="black" fill="none" stroke-linecap="round"></path><path d="M 735.000,347.000 C 729.561,350.601 729.412,350.353 724.000,354.000" stroke-width="3.498" stroke="black" fill="none" stroke-linecap="round"></path><path d="M 724.000,354.000 C 720.431,355.889 720.561,356.101 717.000,358.000" stroke-width="3.664" stroke="black" fill="none" stroke-linecap="round"></path><path d="M 717.000,358.000 C 709.130,363.637 713.931,359.889 711.000,362.000" stroke-width="4.282" stroke="black" fill="none" stroke-linecap="round"></path><path d="M 711.000,362.000 C 725.839,349.301 721.130,353.137 741.000,337.000" stroke-width="2.926" stroke="black" fill="none" stroke-linecap="round"></path><path d="M 741.000,337.000 C 752.009,327.223 752.339,327.801 764.000,319.000" stroke-width="2.202" stroke="black" fill="none" stroke-linecap="round"></path><path d="M 764.000,319.000 C 769.841,315.536 769.509,315.223 776.000,313.000" stroke-width="2.786" stroke="black" fill="none" stroke-linecap="round"></path><path d="M 776.000,313.000 C 782.341,310.444 778.341,312.036 781.000,312.000" stroke-width="3.969" stroke="black" fill="none" stroke-linecap="round"></path><path d="M 781.000,312.000 C 766.731,327.842 769.841,324.944 751.000,342.000" stroke-width="2.740" stroke="black" fill="none" stroke-linecap="round"></path><path d="M 751.000,342.000 C 740.197,348.639 741.731,350.342 731.000,357.000" stroke-width="2.334" stroke="black" fill="none" stroke-linecap="round"></path><path d="M 731.000,357.000 C 724.235,364.298 723.697,363.639 718.000,372.000" stroke-width="2.511" stroke="black" fill="none" stroke-linecap="round"></path><path d="M 718.000,372.000 C 712.556,378.321 715.735,374.798 714.000,378.000" stroke-width="3.688" stroke="black" fill="none" stroke-linecap="round"></path><path d="M 714.000,378.000 C 720.604,374.157 717.056,377.321 727.000,370.000" stroke-width="3.822" stroke="black" fill="none" stroke-linecap="round"></path><path d="M 727.000,370.000 C 732.808,365.000 730.604,367.657 734.000,365.000" stroke-width="3.706" stroke="black" fill="none" stroke-linecap="round"></path><path d="M 734.000,365.000 C 732.576,367.548 734.808,365.000 731.000,370.000" stroke-width="4.473" stroke="black" fill="none" stroke-linecap="round"></path><path d="M 731.000,370.000 C 727.780,374.367 728.076,374.548 725.000,379.000" stroke-width="3.628" stroke="black" fill="none" stroke-linecap="round"></path><path d="M 725.000,379.000 C 722.174,384.605 721.780,384.367 719.000,390.000" stroke-width="3.283" stroke="black" fill="none" stroke-linecap="round"></path><path d="M 719.000,390.000 C 713.050,395.861 717.174,393.105 715.000,396.000" stroke-width="3.678" stroke="black" fill="none" stroke-linecap="round"></path><path d="M 715.000,396.000 C 724.748,394.782 720.050,396.361 733.000,391.000" stroke-width="4.136" stroke="black" fill="none" stroke-linecap="round"></path><path d="M 733.000,391.000 C 740.990,385.459 736.748,389.282 739.000,385.000" stroke-width="3.803" stroke="black" fill="none" stroke-linecap="round"></path><path d="M 739.000,385.000 C 729.282,385.587 734.490,383.959 720.000,388.000" stroke-width="3.996" stroke="black" fill="none" stroke-linecap="round"></path><path d="M 720.000,388.000 C 704.570,393.234 704.282,392.087 689.000,398.000" stroke-width="2.283" stroke="black" fill="none" stroke-linecap="round"></path><path d="M 689.000,398.000 C 680.045,400.674 680.070,400.734 671.000,403.000" stroke-width="2.547" stroke="black" fill="none" stroke-linecap="round"></path><path d="M 671.000,403.000 C 662.559,405.511 662.545,405.174 654.000,407.000" stroke-width="2.702" stroke="black" fill="none" stroke-linecap="round"></path><path d="M 654.000,407.000 C 647.400,409.324 651.059,407.511 648.000,407.000" stroke-width="3.875" stroke="black" fill="none" stroke-linecap="round"></path><path d="M 648.000,407.000 C 652.312,389.725 651.400,393.824 662.000,376.000" stroke-width="2.144" stroke="black" fill="none" stroke-linecap="round"></path><path d="M 662.000,376.000 C 679.508,357.936 676.312,355.725 696.000,339.000" stroke-width="1.582" stroke="black" fill="none" stroke-linecap="round"></path><path d="M 696.000,339.000 C 705.724,326.253 706.508,326.936 716.000,314.000" stroke-width="1.823" stroke="black" fill="none" stroke-linecap="round"></path><path d="M 716.000,314.000 C 724.583,305.991 718.724,310.753 722.000,308.000" stroke-width="2.817" stroke="black" fill="none" stroke-linecap="round"></path><path d="M 722.000,308.000 C 695.759,327.639 702.083,323.491 671.000,349.000" stroke-width="2.518" stroke="black" fill="none" stroke-linecap="round"></path><path d="M 671.000,349.000 C 645.562,372.568 644.759,371.639 620.000,396.000" stroke-width="1.277" stroke="black" fill="none" stroke-linecap="round"></path><path d="M 620.000,396.000 C 603.745,411.297 603.562,411.068 587.000,426.000" stroke-width="1.416" stroke="black" fill="none" stroke-linecap="round"></path><path d="M 587.000,426.000 C 576.137,435.131 583.245,429.297 579.000,432.000" stroke-width="2.415" stroke="black" fill="none" stroke-linecap="round"></path><path d="M 579.000,432.000 C 619.343,386.859 613.637,394.131 662.000,344.000" stroke-width="1.778" stroke="black" fill="none" stroke-linecap="round"></path><path d="M 662.000,344.000 C 725.379,281.335 724.843,280.859 790.000,220.000" stroke-width="1.125" stroke="black" fill="none" stroke-linecap="round"></path><path d="M 790.000,220.000 C 814.483,197.981 813.879,197.335 839.000,176.000" stroke-width="1.125" stroke="black" fill="none" stroke-linecap="round"></path><path d="M 839.000,176.000 C 850.413,165.817 843.483,171.981 848.000,168.000" stroke-width="1.839" stroke="black" fill="none" stroke-linecap="round"></path><path d="M 848.000,168.000 C 834.062,182.824 839.913,175.317 818.000,195.000" stroke-width="2.274" stroke="black" fill="none" stroke-linecap="round"></path><path d="M 818.000,195.000 C 769.563,226.705 772.062,229.824 724.000,262.000" stroke-width="1.125" stroke="black" fill="none" stroke-linecap="round"></path><path d="M 724.000,262.000 C 701.112,284.911 698.563,281.705 676.000,305.000" stroke-width="1.125" stroke="black" fill="none" stroke-linecap="round"></path><path d="M 676.000,305.000 C 654.705,319.146 656.112,320.911 634.000,334.000" stroke-width="1.266" stroke="black" fill="none" stroke-linecap="round"></path><path d="M 634.000,334.000 C 628.620,339.751 631.705,335.646 630.000,338.000" stroke-width="2.467" stroke="black" fill="none" stroke-linecap="round"></path><path d="M 630.000,338.000 C 644.215,318.829 641.620,323.251 660.000,301.000" stroke-width="2.349" stroke="black" fill="none" stroke-linecap="round"></path><path d="M 660.000,301.000 C 741.579,210.570 740.715,209.829 823.000,120.000" stroke-width="1.125" stroke="black" fill="none" stroke-linecap="round"></path><path d="M 823.000,120.000 C 829.890,110.878 830.579,111.570 838.000,103.000" stroke-width="1.125" stroke="black" fill="none" stroke-linecap="round"></path><path d="M 838.000,103.000 C 863.184,79.760 847.390,93.878 858.000,86.000" stroke-width="1.675" stroke="black" fill="none" stroke-linecap="round"></path><path d="M 858.000,86.000 C 821.912,127.876 836.184,112.260 784.000,168.000" stroke-width="1.729" stroke="black" fill="none" stroke-linecap="round"></path><path d="M 784.000,168.000 C 761.767,191.346 761.912,191.376 738.000,213.000" stroke-width="1.252" stroke="black" fill="none" stroke-linecap="round"></path><path d="M 738.000,213.000 C 716.214,231.785 716.767,232.346 694.000,250.000" stroke-width="1.274" stroke="black" fill="none" stroke-linecap="round"></path><path d="M 694.000,250.000 C 687.302,255.537 691.214,252.285 688.000,254.000" stroke-width="2.583" stroke="black" fill="none" stroke-linecap="round"></path><path d="M 688.000,254.000 C 692.914,246.008 689.802,250.037 699.000,239.000" stroke-width="2.654" stroke="black" fill="none" stroke-linecap="round"></path><path d="M 699.000,239.000 C 709.327,226.798 709.414,227.008 721.000,216.000" stroke-width="2.126" stroke="black" fill="none" stroke-linecap="round"></path><path d="M 721.000,216.000 C 749.836,190.304 749.327,189.798 779.000,165.000" stroke-width="1.203" stroke="black" fill="none" stroke-linecap="round"></path><path d="M 779.000,165.000 C 783.750,160.609 783.836,160.804 789.000,157.000" stroke-width="2.113" stroke="black" fill="none" stroke-linecap="round"></path><path d="M 789.000,157.000 C 793.796,152.595 791.750,155.109 795.000,154.000" stroke-width="3.169" stroke="black" fill="none" stroke-linecap="round"></path><path d="M 795.000,154.000 C 795.770,159.125 796.796,156.095 795.000,164.000" stroke-width="4.107" stroke="black" fill="none" stroke-linecap="round"></path><path d="M 795.000,164.000 C 793.301,168.447 794.270,168.625 792.000,173.000" stroke-width="3.686" stroke="black" fill="none" stroke-linecap="round"></path><path d="M 792.000,173.000 C 792.053,175.719 791.301,175.447 791.000,178.000" stroke-width="4.074" stroke="black" fill="none" stroke-linecap="round"></path><path d="M 791.000,178.000 C 788.570,182.045 789.053,182.219 786.000,186.000" stroke-width="3.848" stroke="black" fill="none" stroke-linecap="round"></path><path d="M 786.000,186.000 C 781.939,191.960 782.070,192.045 778.000,198.000" stroke-width="3.179" stroke="black" fill="none" stroke-linecap="round"></path><path d="M 778.000,198.000 C 774.541,203.527 774.439,203.460 771.000,209.000" stroke-width="3.123" stroke="black" fill="none" stroke-linecap="round"></path><path d="M 771.000,209.000 C 765.030,215.131 769.041,212.027 767.000,215.000" stroke-width="3.659" stroke="black" fill="none" stroke-linecap="round"></path><path d="M 767.000,215.000 C 776.702,211.934 772.530,214.631 786.000,208.000" stroke-width="4.088" stroke="black" fill="none" stroke-linecap="round"></path><path d="M 786.000,208.000 C 794.791,202.209 789.702,206.434 793.000,204.000" stroke-width="3.838" stroke="black" fill="none" stroke-linecap="round"></path><path d="M 793.000,204.000 C 781.883,218.245 785.291,211.709 767.000,227.000" stroke-width="3.481" stroke="black" fill="none" stroke-linecap="round"></path><path d="M 767.000,227.000 C 711.343,254.358 713.883,258.245 657.000,284.000" stroke-width="1.125" stroke="black" fill="none" stroke-linecap="round"></path><path d="M 657.000,284.000 C 641.460,296.543 639.843,293.358 624.000,305.000" stroke-width="1.309" stroke="black" fill="none" stroke-linecap="round"></path><path d="M 624.000,305.000 C 608.589,310.365 609.460,312.043 593.000,315.000" stroke-width="1.648" stroke="black" fill="none" stroke-linecap="round"></path><path d="M 593.000,315.000 C 587.000,317.789 590.089,315.865 587.000,316.000" stroke-width="3.035" stroke="black" fill="none" stroke-linecap="round"></path><path d="M 587.000,316.000 C 588.145,308.141 587.000,311.789 593.000,303.000" stroke-width="3.103" stroke="black" fill="none" stroke-linecap="round"></path></svg>