<svg xmlns="http://www.w3.org/2000/svg" xmlns:xlink="http://www.w3.org/1999/xlink" viewBox="0 0 1460 576" width="1460" height="576"><path d="M 904.000,286.000 C 903.796,280.275 903.000,280.500 902.000,275.000" stroke-width="5.118" stroke="black" fill="none" stroke-linecap="round"></path><path d="M 902.000,275.000 C 898.162,255.227 895.796,256.775 888.000,239.000" stroke-width="2.068" stroke="black" fill="none" stroke-linecap="round"></path><path d="M 888.000,239.000 C 866.724,204.928 867.162,205.727 840.000,176.000" stroke-width="1.177" stroke="black" fill="none" stroke-linecap="round"></path><path d="M 840.000,176.000 C 817.265,152.526 818.224,152.428 791.000,134.000" stroke-width="1.135" stroke="black" fill="none" stroke-linecap="round"></path><path d="M 791.000,134.000 C 760.533,113.088 761.265,113.026 728.000,97.000" stroke-width="1.125" stroke="black" fill="none" stroke-linecap="round"></path><path d="M 728.000,97.000 C 714.437,89.882 715.033,90.588 700.000,89.000" stroke-width="1.627" stroke="black" fill="none" stroke-linecap="round"></path><path d="M 700.000,89.000 C 646.047,78.490 648.937,85.882 597.000,89.000" stroke-width="1.276" stroke="black" fill="none" stroke-linecap="round"></path><path d="M 597.000,89.000 C 556.814,107.299 555.047,97.990 518.000,128.000" stroke-width="1.125" stroke="black" fill="none" stroke-linecap="round"></path><path d="M 518.000,128.000 C 504.178,135.432 504.314,135.299 492.000,145.000" stroke-width="1.498" stroke="black" fill="none" stroke-linecap="round"></path><path d="M 492.000,145.000 C 475.736,157.501 476.178,157.432 462.000,172.000" stroke-width="2.136" stroke="black" fill="none" stroke-linecap="round"></path><path d="M 462.000,172.000 C 458.506,177.272 457.736,176.501 456.000,183.000" stroke-width="2.711" stroke="black" fill="none" stroke-linecap="round"></path><path d="M 456.000,183.000 C 449.539,192.969 451.506,193.272 448.000,204.000" stroke-width="2.440" stroke="black" fill="none" stroke-linecap="round"></path><path d="M 448.000,204.000 C 444.802,236.538 443.539,235.969 444.000,269.000" stroke-width="2.059" stroke="black" fill="none" stroke-linecap="round"></path><path d="M 444.000,269.000 C 444.600,277.065 443.802,277.038 446.000,285.000" stroke-width="2.620" stroke="black" fill="none" stroke-linecap="round"></path><path d="M 446.000,285.000 C 449.132,302.592 449.100,302.565 453.000,320.000" stroke-width="1.999" stroke="black" fill="none" stroke-linecap="round"></path><path d="M 453.000,320.000 C 454.500,325.000 454.132,325.092 456.000,330.000" stroke-width="2.850" stroke="black" fill="none" stroke-linecap="round"></path><path d="M 456.000,330.000 C 458.047,334.920 457.500,335.000 459.000,340.000" stroke-width="3.266" stroke="black" fill="none" stroke-linecap="round"></path><path d="M 459.000,340.000 C 457.500,344.500 459.547,342.920 459.000,346.000" stroke-width="4.319" stroke="black" fill="none" stroke-linecap="round"></path></svg>