<svg xmlns="http://www.w3.org/2000/svg" xmlns:xlink="http://www.w3.org/1999/xlink" viewBox="0 0 1460 576" width="1460" height="576"><path d="M 575.000,324.000 C 566.007,323.237 566.000,323.500 557.000,323.000" stroke-width="4.134" stroke="black" fill="none" stroke-linecap="round"></path><path d="M 557.000,323.000 C 546.978,323.475 547.007,322.737 537.000,323.000" stroke-width="2.912" stroke="black" fill="none" stroke-linecap="round"></path><path d="M 537.000,323.000 C 525.031,324.790 525.978,322.475 515.000,321.000" stroke-width="2.882" stroke="black" fill="none" stroke-linecap="round"></path><path d="M 515.000,321.000 C 501.741,315.069 502.531,316.290 492.000,306.000" stroke-width="2.816" stroke="black" fill="none" stroke-linecap="round"></path><path d="M 492.000,306.000 C 485.821,300.268 487.241,301.569 486.000,294.000" stroke-width="2.982" stroke="black" fill="none" stroke-linecap="round"></path><path d="M 486.000,294.000 C 483.694,277.244 486.321,282.768 493.000,271.000" stroke-width="2.494" stroke="black" fill="none" stroke-linecap="round"></path><path d="M 493.000,271.000 C 527.867,246.501 523.194,250.744 565.000,241.000" stroke-width="1.856" stroke="black" fill="none" stroke-linecap="round"></path><path d="M 565.000,241.000 C 597.746,242.267 595.367,236.501 628.000,251.000" stroke-width="1.328" stroke="black" fill="none" stroke-linecap="round"></path><path d="M 628.000,251.000 C 644.803,260.401 646.246,256.267 662.000,269.000" stroke-width="1.582" stroke="black" fill="none" stroke-linecap="round"></path><path d="M 662.000,269.000 C 674.409,271.967 672.803,274.401 684.000,279.000" stroke-width="2.037" stroke="black" fill="none" stroke-linecap="round"></path><path d="M 684.000,279.000 C 699.292,288.929 696.909,288.467 707.000,302.000" stroke-width="2.536" stroke="black" fill="none" stroke-linecap="round"></path><path d="M 707.000,302.000 C 709.559,310.663 710.792,308.429 707.000,318.000" stroke-width="2.779" stroke="black" fill="none" stroke-linecap="round"></path><path d="M 707.000,318.000 C 700.513,332.230 702.059,332.163 692.000,345.000" stroke-width="2.242" stroke="black" fill="none" stroke-linecap="round"></path><path d="M 692.000,345.000 C 687.432,352.081 687.513,351.730 681.000,357.000" stroke-width="2.543" stroke="black" fill="none" stroke-linecap="round"></path><path d="M 681.000,357.000 C 661.714,371.948 661.932,371.581 641.000,384.000" stroke-width="1.986" stroke="black" fill="none" stroke-linecap="round"></path><path d="M 641.000,384.000 C 633.601,386.927 634.214,387.948 626.000,389.000" stroke-width="2.510" stroke="black" fill="none" stroke-linecap="round"></path><path d="M 626.000,389.000 C 622.038,391.085 622.601,389.927 619.000,390.000" stroke-width="3.381" stroke="black" fill="none" stroke-linecap="round"></path><path d="M 619.000,390.000 C 611.515,388.204 615.038,388.585 612.000,384.000" stroke-width="3.510" stroke="black" fill="none" stroke-linecap="round"></path><path d="M 612.000,384.000 C 616.438,359.964 614.515,362.204 625.000,338.000" stroke-width="1.719" stroke="black" fill="none" stroke-linecap="round"></path><path d="M 625.000,338.000 C 629.421,330.977 627.938,330.464 635.000,325.000" stroke-width="2.387" stroke="black" fill="none" stroke-linecap="round"></path><path d="M 635.000,325.000 C 642.360,313.871 643.421,315.977 653.000,308.000" stroke-width="2.259" stroke="black" fill="none" stroke-linecap="round"></path><path d="M 653.000,308.000 C 673.375,292.477 671.360,297.871 693.000,293.000" stroke-width="1.754" stroke="black" fill="none" stroke-linecap="round"></path><path d="M 693.000,293.000 C 712.292,299.125 710.875,293.477 728.000,310.000" stroke-width="2.163" stroke="black" fill="none" stroke-linecap="round"></path><path d="M 728.000,310.000 C 737.297,318.889 738.292,317.125 745.000,329.000" stroke-width="2.223" stroke="black" fill="none" stroke-linecap="round"></path><path d="M 745.000,329.000 C 753.947,339.730 753.297,339.889 760.000,352.000" stroke-width="2.114" stroke="black" fill="none" stroke-linecap="round"></path><path d="M 760.000,352.000 C 772.267,377.640 772.447,377.230 782.000,404.000" stroke-width="2.087" stroke="black" fill="none" stroke-linecap="round"></path></svg>