<svg xmlns="http://www.w3.org/2000/svg" xmlns:xlink="http://www.w3.org/1999/xlink" viewBox="0 0 1460 576" width="1460" height="576"><path d="M 713.000,300.000 C 717.903,302.592 715.000,302.500 717.000,305.000" stroke-width="5.201" stroke="black" fill="none" stroke-linecap="round"></path><path d="M 717.000,305.000 C 713.141,312.092 714.903,310.592 707.000,316.000" stroke-width="3.437" stroke="black" fill="none" stroke-linecap="round"></path><path d="M 707.000,316.000 C 696.103,324.122 696.641,322.592 684.000,326.000" stroke-width="2.530" stroke="black" fill="none" stroke-linecap="round"></path><path d="M 684.000,326.000 C 666.137,327.352 667.103,328.622 649.000,325.000" stroke-width="2.061" stroke="black" fill="none" stroke-linecap="round"></path><path d="M 649.000,325.000 C 639.508,323.881 640.637,323.852 633.000,319.000" stroke-width="2.972" stroke="black" fill="none" stroke-linecap="round"></path><path d="M 633.000,319.000 C 625.984,313.694 627.508,314.881 625.000,307.000" stroke-width="2.963" stroke="black" fill="none" stroke-linecap="round"></path><path d="M 625.000,307.000 C 620.227,291.246 623.484,296.694 628.000,285.000" stroke-width="2.510" stroke="black" fill="none" stroke-linecap="round"></path><path d="M 628.000,285.000 C 653.220,267.556 648.227,268.746 681.000,262.000" stroke-width="2.165" stroke="black" fill="none" stroke-linecap="round"></path><path d="M 681.000,262.000 C 714.641,259.624 713.220,255.556 748.000,261.000" stroke-width="1.377" stroke="black" fill="none" stroke-linecap="round"></path><path d="M 748.000,261.000 C 763.056,263.220 763.141,261.624 778.000,266.000" stroke-width="1.810" stroke="black" fill="none" stroke-linecap="round"></path><path d="M 778.000,266.000 C 787.493,264.386 784.556,267.220 791.000,269.000" stroke-width="2.578" stroke="black" fill="none" stroke-linecap="round"></path><path d="M 791.000,269.000 C 798.680,280.679 796.993,276.886 797.000,291.000" stroke-width="3.334" stroke="black" fill="none" stroke-linecap="round"></path><path d="M 797.000,291.000 C 790.629,301.582 795.180,302.179 784.000,312.000" stroke-width="2.460" stroke="black" fill="none" stroke-linecap="round"></path><path d="M 784.000,312.000 C 776.842,323.748 776.629,323.582 769.000,335.000" stroke-width="2.235" stroke="black" fill="none" stroke-linecap="round"></path><path d="M 769.000,335.000 C 764.397,346.399 765.342,340.248 761.000,345.000" stroke-width="3.258" stroke="black" fill="none" stroke-linecap="round"></path><path d="M 761.000,345.000 C 754.771,336.929 755.897,342.899 752.000,328.000" stroke-width="3.485" stroke="black" fill="none" stroke-linecap="round"></path><path d="M 752.000,328.000 C 750.528,321.703 750.271,322.429 752.000,316.000" stroke-width="3.352" stroke="black" fill="none" stroke-linecap="round"></path><path d="M 752.000,316.000 C 754.094,305.178 754.528,306.203 760.000,297.000" stroke-width="2.741" stroke="black" fill="none" stroke-linecap="round"></path><path d="M 760.000,297.000 C 768.342,287.512 767.094,287.178 778.000,280.000" stroke-width="2.345" stroke="black" fill="none" stroke-linecap="round"></path><path d="M 778.000,280.000 C 782.259,276.862 781.842,277.012 787.000,276.000" stroke-width="3.082" stroke="black" fill="none" stroke-linecap="round"></path><path d="M 787.000,276.000 C 793.750,274.750 793.259,274.862 800.000,276.000" stroke-width="3.097" stroke="black" fill="none" stroke-linecap="round"></path><path d="M 800.000,276.000 C 808.178,276.373 806.250,277.250 812.000,281.000" stroke-width="3.101" stroke="black" fill="none" stroke-linecap="round"></path><path d="M 812.000,281.000 C 820.848,290.221 817.678,287.873 819.000,299.000" stroke-width="3.401" stroke="black" fill="none" stroke-linecap="round"></path><path d="M 819.000,299.000 C 809.699,318.603 814.848,318.721 800.000,338.000" stroke-width="1.951" stroke="black" fill="none" stroke-linecap="round"></path><path d="M 800.000,338.000 C 797.220,343.633 797.199,343.603 794.000,349.000" stroke-width="2.662" stroke="black" fill="none" stroke-linecap="round"></path><path d="M 794.000,349.000 C 790.492,353.225 791.220,353.633 788.000,358.000" stroke-width="3.206" stroke="black" fill="none" stroke-linecap="round"></path><path d="M 788.000,358.000 C 782.729,365.437 784.492,364.725 782.000,372.000" stroke-width="3.607" stroke="black" fill="none" stroke-linecap="round"></path><path d="M 782.000,372.000 C 783.429,375.714 781.729,374.437 786.000,376.000" stroke-width="4.016" stroke="black" fill="none" stroke-linecap="round"></path><path d="M 786.000,376.000 C 793.496,376.341 792.429,376.714 800.000,374.000" stroke-width="3.304" stroke="black" fill="none" stroke-linecap="round"></path></svg>