<svg xmlns="http://www.w3.org/2000/svg" xmlns:xlink="http://www.w3.org/1999/xlink" viewBox="0 0 1460 576" width="1460" height="576"><path d="M 756.000,233.000 C 759.547,236.642 758.500,237.000 761.000,241.000" stroke-width="4.980" stroke="black" fill="none" stroke-linecap="round"></path><path d="M 761.000,241.000 C 762.972,246.142 762.547,245.642 762.000,251.000" stroke-width="3.992" stroke="black" fill="none" stroke-linecap="round"></path><path d="M 762.000,251.000 C 761.817,268.824 758.972,266.142 753.000,281.000" stroke-width="2.256" stroke="black" fill="none" stroke-linecap="round"></path><path d="M 753.000,281.000 C 738.011,297.462 740.817,297.824 720.000,309.000" stroke-width="1.683" stroke="black" fill="none" stroke-linecap="round"></path><path d="M 720.000,309.000 C 704.787,317.962 706.011,317.962 689.000,322.000" stroke-width="2.329" stroke="black" fill="none" stroke-linecap="round"></path><path d="M 689.000,322.000 C 682.746,321.690 683.287,323.462 677.000,320.000" stroke-width="2.921" stroke="black" fill="none" stroke-linecap="round"></path><path d="M 677.000,320.000 C 672.691,319.419 674.246,319.190 672.000,317.000" stroke-width="3.670" stroke="black" fill="none" stroke-linecap="round"></path><path d="M 672.000,317.000 C 668.935,309.426 670.691,312.419 673.000,306.000" stroke-width="3.423" stroke="black" fill="none" stroke-linecap="round"></path><path d="M 673.000,306.000 C 705.421,276.290 703.935,279.926 742.000,258.000" stroke-width="1.924" stroke="black" fill="none" stroke-linecap="round"></path><path d="M 742.000,258.000 C 758.488,255.674 756.421,250.790 775.000,255.000" stroke-width="1.912" stroke="black" fill="none" stroke-linecap="round"></path><path d="M 775.000,255.000 C 783.034,255.241 782.988,254.674 791.000,256.000" stroke-width="2.463" stroke="black" fill="none" stroke-linecap="round"></path><path d="M 791.000,256.000 C 794.313,255.313 793.534,256.241 796.000,257.000" stroke-width="3.526" stroke="black" fill="none" stroke-linecap="round"></path><path d="M 796.000,257.000 C 801.500,262.000 800.313,261.313 803.000,268.000" stroke-width="3.887" stroke="black" fill="none" stroke-linecap="round"></path><path d="M 803.000,268.000 C 804.248,275.075 804.500,274.000 802.000,281.000" stroke-width="3.366" stroke="black" fill="none" stroke-linecap="round"></path><path d="M 802.000,281.000 C 797.298,289.208 798.748,289.575 792.000,297.000" stroke-width="2.843" stroke="black" fill="none" stroke-linecap="round"></path><path d="M 792.000,297.000 C 788.561,301.549 788.798,301.708 785.000,306.000" stroke-width="3.191" stroke="black" fill="none" stroke-linecap="round"></path><path d="M 785.000,306.000 C 778.523,311.446 782.561,309.049 780.000,312.000" stroke-width="4.034" stroke="black" fill="none" stroke-linecap="round"></path><path d="M 780.000,312.000 C 786.419,310.047 782.523,312.946 793.000,309.000" stroke-width="3.989" stroke="black" fill="none" stroke-linecap="round"></path><path d="M 793.000,309.000 C 808.558,305.336 808.419,306.547 824.000,305.000" stroke-width="2.334" stroke="black" fill="none" stroke-linecap="round"></path><path d="M 824.000,305.000 C 831.876,305.456 831.558,304.836 839.000,308.000" stroke-width="2.740" stroke="black" fill="none" stroke-linecap="round"></path><path d="M 839.000,308.000 C 846.217,310.594 845.876,310.456 852.000,315.000" stroke-width="2.867" stroke="black" fill="none" stroke-linecap="round"></path></svg>