<svg xmlns="http://www.w3.org/2000/svg" xmlns:xlink="http://www.w3.org/1999/xlink" viewBox="0 0 1460 576" width="1460" height="576"><path d="M 522.000,334.000 C 515.859,331.790 516.000,331.500 510.000,329.000" stroke-width="5.129" stroke="black" fill="none" stroke-linecap="round"></path><path d="M 510.000,329.000 C 505.446,326.593 505.359,326.790 501.000,324.000" stroke-width="3.871" stroke="black" fill="none" stroke-linecap="round"></path><path d="M 501.000,324.000 C 493.663,319.202 493.446,319.593 486.000,315.000" stroke-width="2.959" stroke="black" fill="none" stroke-linecap="round"></path><path d="M 486.000,315.000 C 478.000,311.000 478.163,310.702 470.000,307.000" stroke-width="2.740" stroke="black" fill="none" stroke-linecap="round"></path><path d="M 470.000,307.000 C 463.794,304.365 464.000,304.000 458.000,301.000" stroke-width="3.061" stroke="black" fill="none" stroke-linecap="round"></path><path d="M 458.000,301.000 C 448.755,294.463 448.294,295.365 439.000,289.000" stroke-width="3.227" stroke="black" fill="none" stroke-linecap="round"></path><path d="M 439.000,289.000 C 432.558,287.442 436.255,287.463 433.000,287.000" stroke-width="4.169" stroke="black" fill="none" stroke-linecap="round"></path><path d="M 433.000,287.000 C 437.011,287.257 433.558,286.442 441.000,287.000" stroke-width="4.904" stroke="black" fill="none" stroke-linecap="round"></path><path d="M 441.000,287.000 C 452.746,287.129 452.511,286.257 464.000,285.000" stroke-width="2.738" stroke="black" fill="none" stroke-linecap="round"></path><path d="M 464.000,285.000 C 471.055,282.646 471.246,283.629 478.000,280.000" stroke-width="2.969" stroke="black" fill="none" stroke-linecap="round"></path><path d="M 478.000,280.000 C 492.059,274.643 492.055,274.646 506.000,269.000" stroke-width="2.244" stroke="black" fill="none" stroke-linecap="round"></path><path d="M 506.000,269.000 C 513.629,267.070 513.059,266.143 520.000,263.000" stroke-width="2.655" stroke="black" fill="none" stroke-linecap="round"></path><path d="M 520.000,263.000 C 531.119,254.649 531.629,255.570 542.000,246.000" stroke-width="2.268" stroke="black" fill="none" stroke-linecap="round"></path><path d="M 542.000,246.000 C 550.642,239.164 550.619,239.149 559.000,232.000" stroke-width="2.336" stroke="black" fill="none" stroke-linecap="round"></path><path d="M 559.000,232.000 C 564.445,226.938 564.642,227.164 570.000,222.000" stroke-width="2.714" stroke="black" fill="none" stroke-linecap="round"></path><path d="M 570.000,222.000 C 573.481,218.978 573.445,218.938 577.000,216.000" stroke-width="3.306" stroke="black" fill="none" stroke-linecap="round"></path><path d="M 577.000,216.000 C 583.408,210.387 579.981,213.478 583.000,211.000" stroke-width="3.672" stroke="black" fill="none" stroke-linecap="round"></path><path d="M 583.000,211.000 C 578.695,214.722 582.408,211.887 575.000,219.000" stroke-width="4.619" stroke="black" fill="none" stroke-linecap="round"></path><path d="M 575.000,219.000 C 560.183,237.160 559.695,236.722 545.000,255.000" stroke-width="1.878" stroke="black" fill="none" stroke-linecap="round"></path><path d="M 545.000,255.000 C 538.996,259.784 540.183,260.660 535.000,266.000" stroke-width="2.545" stroke="black" fill="none" stroke-linecap="round"></path><path d="M 535.000,266.000 C 527.222,281.972 525.496,280.784 518.000,297.000" stroke-width="1.933" stroke="black" fill="none" stroke-linecap="round"></path><path d="M 518.000,297.000 C 512.351,303.065 513.722,303.972 508.000,310.000" stroke-width="2.502" stroke="black" fill="none" stroke-linecap="round"></path><path d="M 508.000,310.000 C 496.930,328.960 496.351,328.565 486.000,348.000" stroke-width="1.707" stroke="black" fill="none" stroke-linecap="round"></path><path d="M 486.000,348.000 C 482.549,356.725 481.430,355.960 477.000,364.000" stroke-width="2.301" stroke="black" fill="none" stroke-linecap="round"></path><path d="M 477.000,364.000 C 459.771,386.273 460.049,386.225 441.000,407.000" stroke-width="1.447" stroke="black" fill="none" stroke-linecap="round"></path><path d="M 441.000,407.000 C 435.814,413.283 435.771,412.773 429.000,417.000" stroke-width="2.168" stroke="black" fill="none" stroke-linecap="round"></path><path d="M 429.000,417.000 C 407.920,428.388 408.314,428.283 386.000,437.000" stroke-width="2.264" stroke="black" fill="none" stroke-linecap="round"></path><path d="M 386.000,437.000 C 379.510,438.070 379.920,439.388 373.000,439.000" stroke-width="2.831" stroke="black" fill="none" stroke-linecap="round"></path><path d="M 373.000,439.000 C 365.375,439.525 365.510,440.070 358.000,441.000" stroke-width="2.931" stroke="black" fill="none" stroke-linecap="round"></path><path d="M 358.000,441.000 C 355.566,442.198 355.375,441.525 353.000,443.000" stroke-width="3.722" stroke="black" fill="none" stroke-linecap="round"></path><path d="M 353.000,443.000 C 347.528,444.618 347.566,444.698 342.000,446.000" stroke-width="4.052" stroke="black" fill="none" stroke-linecap="round"></path><path d="M 342.000,446.000 C 337.954,448.789 339.528,446.618 337.000,447.000" stroke-width="4.241" stroke="black" fill="none" stroke-linecap="round"></path><path d="M 337.000,447.000 C 333.699,438.824 333.954,441.289 334.000,431.000" stroke-width="3.869" stroke="black" fill="none" stroke-linecap="round"></path><path d="M 334.000,431.000 C 335.382,425.675 334.199,425.824 338.000,421.000" stroke-width="3.561" stroke="black" fill="none" stroke-linecap="round"></path><path d="M 338.000,421.000 C 341.415,411.986 342.382,413.175 348.000,406.000" stroke-width="2.935" stroke="black" fill="none" stroke-linecap="round"></path><path d="M 348.000,406.000 C 363.516,390.858 363.415,391.986 382.000,381.000" stroke-width="1.802" stroke="black" fill="none" stroke-linecap="round"></path><path d="M 382.000,381.000 C 410.631,370.852 408.516,366.858 438.000,358.000" stroke-width="1.951" stroke="black" fill="none" stroke-linecap="round"></path><path d="M 438.000,358.000 C 467.331,342.164 468.131,343.852 497.000,327.000" stroke-width="1.305" stroke="black" fill="none" stroke-linecap="round"></path><path d="M 497.000,327.000 C 512.536,319.574 512.331,319.164 528.000,312.000" stroke-width="1.649" stroke="black" fill="none" stroke-linecap="round"></path><path d="M 528.000,312.000 C 537.456,308.272 537.036,307.574 546.000,303.000" stroke-width="2.160" stroke="black" fill="none" stroke-linecap="round"></path><path d="M 546.000,303.000 C 560.254,292.541 560.956,293.772 575.000,283.000" stroke-width="2.524" stroke="black" fill="none" stroke-linecap="round"></path><path d="M 575.000,283.000 C 577.500,282.000 577.254,281.541 580.000,281.000" stroke-width="3.565" stroke="black" fill="none" stroke-linecap="round"></path><path d="M 580.000,281.000 C 585.601,279.200 582.500,280.000 585.000,279.000" stroke-width="4.356" stroke="black" fill="none" stroke-linecap="round"></path><path d="M 585.000,279.000 C 580.740,278.640 584.101,278.700 577.000,280.000" stroke-width="5.002" stroke="black" fill="none" stroke-linecap="round"></path><path d="M 577.000,280.000 C 569.638,282.915 569.740,282.640 563.000,287.000" stroke-width="3.345" stroke="black" fill="none" stroke-linecap="round"></path><path d="M 563.000,287.000 C 557.195,291.787 556.638,290.915 551.000,296.000" stroke-width="3.087" stroke="black" fill="none" stroke-linecap="round"></path><path d="M 551.000,296.000 C 544.519,300.032 544.695,300.287 538.000,304.000" stroke-width="3.000" stroke="black" fill="none" stroke-linecap="round"></path><path d="M 538.000,304.000 C 532.791,306.706 533.019,307.032 528.000,310.000" stroke-width="3.173" stroke="black" fill="none" stroke-linecap="round"></path><path d="M 528.000,310.000 C 524.070,311.895 524.791,312.206 522.000,315.000" stroke-width="4.025" stroke="black" fill="none" stroke-linecap="round"></path><path d="M 522.000,315.000 C 519.167,319.224 520.070,317.895 520.000,322.000" stroke-width="4.416" stroke="black" fill="none" stroke-linecap="round"></path><path d="M 520.000,322.000 C 522.263,324.088 520.667,324.224 525.000,325.000" stroke-width="4.254" stroke="black" fill="none" stroke-linecap="round"></path><path d="M 525.000,325.000 C 531.441,327.016 531.263,327.088 538.000,328.000" stroke-width="3.348" stroke="black" fill="none" stroke-linecap="round"></path><path d="M 538.000,328.000 C 541.512,328.218 541.441,328.516 545.000,328.000" stroke-width="3.810" stroke="black" fill="none" stroke-linecap="round"></path><path d="M 545.000,328.000 C 549.527,327.688 549.512,327.718 554.000,327.000" stroke-width="3.655" stroke="black" fill="none" stroke-linecap="round"></path><path d="M 554.000,327.000 C 562.584,325.830 562.527,325.688 571.000,324.000" stroke-width="2.934" stroke="black" fill="none" stroke-linecap="round"></path><path d="M 571.000,324.000 C 573.921,322.513 574.084,323.330 577.000,322.000" stroke-width="3.663" stroke="black" fill="none" stroke-linecap="round"></path><path d="M 577.000,322.000 C 580.101,322.527 579.921,321.513 583.000,322.000" stroke-width="3.996" stroke="black" fill="none" stroke-linecap="round"></path><path d="M 583.000,322.000 C 585.649,321.283 585.601,321.527 588.000,320.000" stroke-width="4.142" stroke="black" fill="none" stroke-linecap="round"></path><path d="M 588.000,320.000 C 591.512,318.488 591.149,318.283 594.000,316.000" stroke-width="4.463" stroke="black" fill="none" stroke-linecap="round"></path><path d="M 594.000,316.000 C 596.806,313.712 596.012,313.988 597.000,311.000" stroke-width="4.267" stroke="black" fill="none" stroke-linecap="round"></path><path d="M 597.000,311.000 C 598.018,304.371 597.306,306.712 595.000,302.000" stroke-width="4.584" stroke="black" fill="none" stroke-linecap="round"></path><path d="M 595.000,302.000 C 589.031,300.251 591.018,298.871 583.000,300.000" stroke-width="3.585" stroke="black" fill="none" stroke-linecap="round"></path><path d="M 583.000,300.000 C 576.850,299.830 577.031,299.751 571.000,301.000" stroke-width="3.375" stroke="black" fill="none" stroke-linecap="round"></path><path d="M 571.000,301.000 C 566.948,302.374 566.850,301.830 563.000,304.000" stroke-width="3.574" stroke="black" fill="none" stroke-linecap="round"></path><path d="M 563.000,304.000 C 557.939,305.273 558.448,305.874 554.000,308.000" stroke-width="4.091" stroke="black" fill="none" stroke-linecap="round"></path><path d="M 554.000,308.000 C 550.664,310.123 551.439,309.773 550.000,313.000" stroke-width="4.679" stroke="black" fill="none" stroke-linecap="round"></path><path d="M 550.000,313.000 C 548.991,317.875 549.164,316.623 551.000,321.000" stroke-width="4.793" stroke="black" fill="none" stroke-linecap="round"></path><path d="M 551.000,321.000 C 554.455,325.636 553.491,324.875 559.000,327.000" stroke-width="4.450" stroke="black" fill="none" stroke-linecap="round"></path><path d="M 559.000,327.000 C 565.159,327.876 564.455,328.636 571.000,327.000" stroke-width="3.639" stroke="black" fill="none" stroke-linecap="round"></path><path d="M 571.000,327.000 C 575.579,326.463 575.159,326.376 579.000,324.000" stroke-width="3.658" stroke="black" fill="none" stroke-linecap="round"></path><path d="M 579.000,324.000 C 588.004,316.996 588.079,317.463 596.000,309.000" stroke-width="3.425" stroke="black" fill="none" stroke-linecap="round"></path><path d="M 596.000,309.000 C 601.633,301.644 602.504,302.496 608.000,295.000" stroke-width="2.882" stroke="black" fill="none" stroke-linecap="round"></path><path d="M 608.000,295.000 C 613.852,290.346 613.133,289.644 619.000,285.000" stroke-width="2.906" stroke="black" fill="none" stroke-linecap="round"></path><path d="M 619.000,285.000 C 625.994,276.006 626.852,276.846 634.000,268.000" stroke-width="2.601" stroke="black" fill="none" stroke-linecap="round"></path><path d="M 634.000,268.000 C 648.322,255.318 647.494,254.506 662.000,242.000" stroke-width="2.575" stroke="black" fill="none" stroke-linecap="round"></path><path d="M 662.000,242.000 C 667.165,236.641 667.322,236.818 672.000,231.000" stroke-width="2.859" stroke="black" fill="none" stroke-linecap="round"></path><path d="M 672.000,231.000 C 676.603,226.396 676.165,226.141 680.000,221.000" stroke-width="3.095" stroke="black" fill="none" stroke-linecap="round"></path><path d="M 680.000,221.000 C 684.703,212.594 685.103,212.896 689.000,204.000" stroke-width="3.427" stroke="black" fill="none" stroke-linecap="round"></path><path d="M 689.000,204.000 C 691.770,200.541 690.203,201.594 691.000,199.000" stroke-width="4.316" stroke="black" fill="none" stroke-linecap="round"></path><path d="M 691.000,199.000 C 688.374,197.406 690.270,197.541 686.000,198.000" stroke-width="4.912" stroke="black" fill="none" stroke-linecap="round"></path><path d="M 686.000,198.000 C 680.049,199.733 680.374,199.406 675.000,203.000" stroke-width="3.650" stroke="black" fill="none" stroke-linecap="round"></path><path d="M 675.000,203.000 C 663.300,211.252 663.049,210.733 652.000,220.000" stroke-width="2.331" stroke="black" fill="none" stroke-linecap="round"></path><path d="M 652.000,220.000 C 647.171,222.773 647.800,223.252 644.000,227.000" stroke-width="2.978" stroke="black" fill="none" stroke-linecap="round"></path><path d="M 644.000,227.000 C 633.088,243.560 632.171,242.773 622.000,260.000" stroke-width="2.700" stroke="black" fill="none" stroke-linecap="round"></path><path d="M 622.000,260.000 C 618.163,264.790 618.588,265.060 615.000,270.000" stroke-width="3.078" stroke="black" fill="none" stroke-linecap="round"></path><path d="M 615.000,270.000 C 609.712,278.853 609.663,278.790 605.000,288.000" stroke-width="2.617" stroke="black" fill="none" stroke-linecap="round"></path><path d="M 605.000,288.000 C 601.424,295.466 601.212,295.353 598.000,303.000" stroke-width="2.719" stroke="black" fill="none" stroke-linecap="round"></path><path d="M 598.000,303.000 C 596.610,306.551 596.424,306.466 595.000,310.000" stroke-width="3.479" stroke="black" fill="none" stroke-linecap="round"></path><path d="M 595.000,310.000 C 592.790,313.908 593.110,314.051 591.000,318.000" stroke-width="3.621" stroke="black" fill="none" stroke-linecap="round"></path><path d="M 591.000,318.000 C 586.812,325.287 589.290,321.908 588.000,326.000" stroke-width="3.706" stroke="black" fill="none" stroke-linecap="round"></path><path d="M 588.000,326.000 C 591.975,323.460 589.312,326.787 596.000,321.000" stroke-width="4.590" stroke="black" fill="none" stroke-linecap="round"></path><path d="M 596.000,321.000 C 600.895,317.808 600.975,317.960 606.000,315.000" stroke-width="3.634" stroke="black" fill="none" stroke-linecap="round"></path><path d="M 606.000,315.000 C 611.137,312.736 610.895,312.308 616.000,310.000" stroke-width="3.462" stroke="black" fill="none" stroke-linecap="round"></path><path d="M 616.000,310.000 C 619.171,308.223 619.137,308.236 622.000,306.000" stroke-width="3.790" stroke="black" fill="none" stroke-linecap="round"></path><path d="M 622.000,306.000 C 625.899,302.377 626.171,302.723 630.000,299.000" stroke-width="3.553" stroke="black" fill="none" stroke-linecap="round"></path><path d="M 630.000,299.000 C 634.176,294.986 634.399,295.377 639.000,292.000" stroke-width="3.421" stroke="black" fill="none" stroke-linecap="round"></path><path d="M 639.000,292.000 C 644.940,288.871 644.676,288.486 651.000,286.000" stroke-width="3.222" stroke="black" fill="none" stroke-linecap="round"></path><path d="M 651.000,286.000 C 655.602,281.692 654.440,284.371 658.000,283.000" stroke-width="3.659" stroke="black" fill="none" stroke-linecap="round"></path><path d="M 658.000,283.000 C 662.000,287.431 661.102,284.692 662.000,292.000" stroke-width="4.433" stroke="black" fill="none" stroke-linecap="round"></path><path d="M 662.000,292.000 C 660.336,297.660 662.000,297.431 658.000,303.000" stroke-width="3.532" stroke="black" fill="none" stroke-linecap="round"></path><path d="M 658.000,303.000 C 656.668,305.617 656.836,305.660 655.000,308.000" stroke-width="3.926" stroke="black" fill="none" stroke-linecap="round"></path><path d="M 655.000,308.000 C 650.728,311.099 653.168,310.617 651.000,313.000" stroke-width="4.429" stroke="black" fill="none" stroke-linecap="round"></path><path d="M 651.000,313.000 C 653.534,315.462 651.228,314.599 656.000,315.000" stroke-width="4.939" stroke="black" fill="none" stroke-linecap="round"></path><path d="M 656.000,315.000 C 661.744,312.957 661.534,313.962 667.000,310.000" stroke-width="3.654" stroke="black" fill="none" stroke-linecap="round"></path><path d="M 667.000,310.000 C 677.227,302.944 677.744,303.957 688.000,297.000" stroke-width="2.582" stroke="black" fill="none" stroke-linecap="round"></path><path d="M 688.000,297.000 C 692.141,295.801 691.727,294.944 696.000,294.000" stroke-width="3.256" stroke="black" fill="none" stroke-linecap="round"></path><path d="M 696.000,294.000 C 701.665,288.665 699.641,292.301 703.000,290.000" stroke-width="3.528" stroke="black" fill="none" stroke-linecap="round"></path><path d="M 703.000,290.000 C 702.977,295.117 704.665,291.665 702.000,300.000" stroke-width="4.438" stroke="black" fill="none" stroke-linecap="round"></path><path d="M 702.000,300.000 C 701.200,302.599 701.477,302.617 700.000,305.000" stroke-width="4.320" stroke="black" fill="none" stroke-linecap="round"></path><path d="M 700.000,305.000 C 695.139,308.511 698.700,307.599 697.000,310.000" stroke-width="4.632" stroke="black" fill="none" stroke-linecap="round"></path><path d="M 697.000,310.000 C 708.450,315.610 705.139,316.511 720.000,321.000" stroke-width="5.020" stroke="black" fill="none" stroke-linecap="round"></path><path d="M 720.000,321.000 C 723.406,322.802 723.450,322.610 727.000,324.000" stroke-width="4.108" stroke="black" fill="none" stroke-linecap="round"></path><path d="M 727.000,324.000 C 729.507,325.178 729.406,324.802 732.000,325.000" stroke-width="4.259" stroke="black" fill="none" stroke-linecap="round"></path><path d="M 732.000,325.000 C 737.203,325.350 736.507,324.678 741.000,323.000" stroke-width="4.354" stroke="black" fill="none" stroke-linecap="round"></path><path d="M 741.000,323.000 C 747.142,317.649 747.703,318.850 753.000,312.000" stroke-width="3.200" stroke="black" fill="none" stroke-linecap="round"></path><path d="M 753.000,312.000 C 760.858,303.851 761.142,304.149 769.000,296.000" stroke-width="2.605" stroke="black" fill="none" stroke-linecap="round"></path><path d="M 769.000,296.000 C 775.073,290.578 774.858,290.351 781.000,285.000" stroke-width="2.731" stroke="black" fill="none" stroke-linecap="round"></path><path d="M 781.000,285.000 C 800.392,266.382 800.573,266.578 820.000,248.000" stroke-width="2.320" stroke="black" fill="none" stroke-linecap="round"></path><path d="M 820.000,248.000 C 824.826,244.328 824.392,243.882 829.000,240.000" stroke-width="2.925" stroke="black" fill="none" stroke-linecap="round"></path><path d="M 829.000,240.000 C 838.220,230.184 838.326,230.328 847.000,220.000" stroke-width="2.292" stroke="black" fill="none" stroke-linecap="round"></path><path d="M 847.000,220.000 C 850.580,215.560 850.720,215.684 854.000,211.000" stroke-width="2.993" stroke="black" fill="none" stroke-linecap="round"></path><path d="M 854.000,211.000 C 863.395,200.930 858.080,205.560 862.000,200.000" stroke-width="3.602" stroke="black" fill="none" stroke-linecap="round"></path><path d="M 862.000,200.000 C 854.197,202.352 860.395,198.930 848.000,207.000" stroke-width="4.442" stroke="black" fill="none" stroke-linecap="round"></path><path d="M 848.000,207.000 C 839.324,215.871 838.197,214.352 830.000,224.000" stroke-width="2.600" stroke="black" fill="none" stroke-linecap="round"></path><path d="M 830.000,224.000 C 818.004,231.058 819.824,232.871 809.000,241.000" stroke-width="2.285" stroke="black" fill="none" stroke-linecap="round"></path><path d="M 809.000,241.000 C 795.366,258.901 794.004,257.558 782.000,277.000" stroke-width="1.651" stroke="black" fill="none" stroke-linecap="round"></path><path d="M 782.000,277.000 C 770.916,291.126 771.366,291.401 761.000,306.000" stroke-width="1.710" stroke="black" fill="none" stroke-linecap="round"></path><path d="M 761.000,306.000 C 756.793,314.180 755.916,313.626 752.000,322.000" stroke-width="2.303" stroke="black" fill="none" stroke-linecap="round"></path><path d="M 752.000,322.000 C 746.734,329.335 747.293,329.680 742.000,337.000" stroke-width="2.586" stroke="black" fill="none" stroke-linecap="round"></path><path d="M 742.000,337.000 C 736.963,346.856 736.234,346.335 731.000,356.000" stroke-width="2.742" stroke="black" fill="none" stroke-linecap="round"></path><path d="M 731.000,356.000 C 725.698,361.209 729.463,358.356 727.000,360.000" stroke-width="3.633" stroke="black" fill="none" stroke-linecap="round"></path><path d="M 727.000,360.000 C 734.975,349.962 732.698,354.709 745.000,343.000" stroke-width="4.132" stroke="black" fill="none" stroke-linecap="round"></path><path d="M 745.000,343.000 C 754.000,339.000 752.975,337.462 763.000,335.000" stroke-width="2.774" stroke="black" fill="none" stroke-linecap="round"></path><path d="M 763.000,335.000 C 767.450,332.883 767.500,333.000 772.000,331.000" stroke-width="3.182" stroke="black" fill="none" stroke-linecap="round"></path><path d="M 772.000,331.000 C 781.865,326.596 781.950,326.883 792.000,323.000" stroke-width="2.589" stroke="black" fill="none" stroke-linecap="round"></path><path d="M 792.000,323.000 C 797.533,321.608 797.365,321.096 803.000,320.000" stroke-width="3.088" stroke="black" fill="none" stroke-linecap="round"></path><path d="M 803.000,320.000 C 805.921,318.513 806.033,319.108 809.000,318.000" stroke-width="3.733" stroke="black" fill="none" stroke-linecap="round"></path><path d="M 809.000,318.000 C 814.158,316.315 811.921,317.513 815.000,318.000" stroke-width="4.551" stroke="black" fill="none" stroke-linecap="round"></path><path d="M 815.000,318.000 C 815.271,322.653 816.158,320.315 813.000,326.000" stroke-width="4.042" stroke="black" fill="none" stroke-linecap="round"></path><path d="M 813.000,326.000 C 805.160,336.632 805.771,336.653 796.000,346.000" stroke-width="2.483" stroke="black" fill="none" stroke-linecap="round"></path><path d="M 796.000,346.000 C 784.382,361.068 783.160,359.132 769.000,371.000" stroke-width="1.882" stroke="black" fill="none" stroke-linecap="round"></path><path d="M 769.000,371.000 C 719.621,400.671 720.882,402.068 669.000,428.000" stroke-width="1.125" stroke="black" fill="none" stroke-linecap="round"></path><path d="M 669.000,428.000 C 639.428,448.901 638.121,444.671 606.000,459.000" stroke-width="1.125" stroke="black" fill="none" stroke-linecap="round"></path><path d="M 606.000,459.000 C 520.542,483.369 521.928,484.401 434.000,499.000" stroke-width="1.125" stroke="black" fill="none" stroke-linecap="round"></path><path d="M 434.000,499.000 C 406.471,500.710 407.042,503.869 379.000,500.000" stroke-width="1.207" stroke="black" fill="none" stroke-linecap="round"></path><path d="M 379.000,500.000 C 348.106,500.613 348.471,499.210 318.000,496.000" stroke-width="1.219" stroke="black" fill="none" stroke-linecap="round"></path><path d="M 318.000,496.000 C 284.536,492.467 286.106,491.113 255.000,481.000" stroke-width="1.184" stroke="black" fill="none" stroke-linecap="round"></path><path d="M 255.000,481.000 C 240.469,474.869 242.036,475.967 233.000,463.000" stroke-width="1.630" stroke="black" fill="none" stroke-linecap="round"></path><path d="M 233.000,463.000 C 203.586,415.237 203.969,416.869 182.000,365.000" stroke-width="1.125" stroke="black" fill="none" stroke-linecap="round"></path><path d="M 182.000,365.000 C 173.559,349.139 176.086,351.237 178.000,335.000" stroke-width="1.439" stroke="black" fill="none" stroke-linecap="round"></path><path d="M 178.000,335.000 C 190.663,259.922 198.059,271.139 231.000,209.000" stroke-width="1.200" stroke="black" fill="none" stroke-linecap="round"></path><path d="M 231.000,209.000 C 272.668,177.885 261.163,170.922 319.000,157.000" stroke-width="1.125" stroke="black" fill="none" stroke-linecap="round"></path><path d="M 319.000,157.000 C 370.045,131.896 369.168,134.385 424.000,122.000" stroke-width="1.125" stroke="black" fill="none" stroke-linecap="round"></path><path d="M 424.000,122.000 C 486.476,110.435 484.545,110.896 548.000,115.000" stroke-width="1.125" stroke="black" fill="none" stroke-linecap="round"></path><path d="M 548.000,115.000 C 628.101,126.486 627.976,120.935 707.000,143.000" stroke-width="1.125" stroke="black" fill="none" stroke-linecap="round"></path><path d="M 707.000,143.000 C 734.998,151.505 735.601,148.986 763.000,160.000" stroke-width="1.125" stroke="black" fill="none" stroke-linecap="round"></path><path d="M 763.000,160.000 C 780.231,163.487 779.498,165.005 796.000,170.000" stroke-width="1.530" stroke="black" fill="none" stroke-linecap="round"></path><path d="M 796.000,170.000 C 803.846,173.130 803.231,172.987 809.000,179.000" stroke-width="2.327" stroke="black" fill="none" stroke-linecap="round"></path><path d="M 809.000,179.000 C 824.706,193.760 821.846,193.630 832.000,211.000" stroke-width="2.430" stroke="black" fill="none" stroke-linecap="round"></path><path d="M 832.000,211.000 C 835.642,222.676 835.706,219.760 831.000,231.000" stroke-width="2.535" stroke="black" fill="none" stroke-linecap="round"></path><path d="M 831.000,231.000 C 819.110,249.315 821.142,248.676 803.000,263.000" stroke-width="1.863" stroke="black" fill="none" stroke-linecap="round"></path><path d="M 803.000,263.000 C 774.942,297.015 772.610,288.815 738.000,310.000" stroke-width="1.125" stroke="black" fill="none" stroke-linecap="round"></path><path d="M 738.000,310.000 C 669.467,326.019 673.942,332.515 601.000,334.000" stroke-width="1.125" stroke="black" fill="none" stroke-linecap="round"></path><path d="M 601.000,334.000 C 587.916,331.870 587.967,335.519 575.000,329.000" stroke-width="1.648" stroke="black" fill="none" stroke-linecap="round"></path><path d="M 575.000,329.000 C 564.730,327.841 565.416,326.870 556.000,324.000" stroke-width="2.221" stroke="black" fill="none" stroke-linecap="round"></path><path d="M 556.000,324.000 C 552.731,321.228 552.230,322.341 550.000,318.000" stroke-width="3.109" stroke="black" fill="none" stroke-linecap="round"></path><path d="M 550.000,318.000 C 547.153,314.690 547.231,314.728 545.000,311.000" stroke-width="3.522" stroke="black" fill="none" stroke-linecap="round"></path><path d="M 892.000,352.000 C 898.342,340.008 900.500,343.500 909.000,335.000" stroke-width="4.778" stroke="black" fill="none" stroke-linecap="round"></path><path d="M 909.000,335.000 C 941.517,322.228 939.842,320.508 975.000,313.000" stroke-width="1.308" stroke="black" fill="none" stroke-linecap="round"></path><path d="M 975.000,313.000 C 1005.427,306.115 1005.017,304.728 1036.000,300.000" stroke-width="1.148" stroke="black" fill="none" stroke-linecap="round"></path><path d="M 1036.000,300.000 C 1047.971,297.813 1047.927,297.615 1060.000,296.000" stroke-width="1.739" stroke="black" fill="none" stroke-linecap="round"></path><path d="M 1060.000,296.000 C 1084.412,291.265 1084.471,292.313 1109.000,289.000" stroke-width="1.517" stroke="black" fill="none" stroke-linecap="round"></path><path d="M 1109.000,289.000 C 1122.500,289.000 1122.412,287.765 1136.000,289.000" stroke-width="1.924" stroke="black" fill="none" stroke-linecap="round"></path><path d="M 1136.000,289.000 C 1141.065,288.315 1141.000,289.000 1146.000,289.000" stroke-width="2.861" stroke="black" fill="none" stroke-linecap="round"></path><path d="M 1146.000,289.000 C 1159.085,291.175 1159.065,290.815 1172.000,294.000" stroke-width="2.728" stroke="black" fill="none" stroke-linecap="round"></path><path d="M 1172.000,294.000 C 1176.150,293.780 1175.085,294.675 1178.000,296.000" stroke-width="3.562" stroke="black" fill="none" stroke-linecap="round"></path><path d="M 1178.000,296.000 C 1183.976,301.883 1181.150,299.780 1182.000,306.000" stroke-width="4.012" stroke="black" fill="none" stroke-linecap="round"></path><path d="M 1182.000,306.000 C 1174.579,314.241 1177.976,314.383 1166.000,321.000" stroke-width="2.780" stroke="black" fill="none" stroke-linecap="round"></path><path d="M 1166.000,321.000 C 1158.080,327.687 1158.079,327.241 1149.000,332.000" stroke-width="2.627" stroke="black" fill="none" stroke-linecap="round"></path><path d="M 1149.000,332.000 C 1137.648,336.484 1138.080,337.187 1126.000,340.000" stroke-width="2.336" stroke="black" fill="none" stroke-linecap="round"></path><path d="M 1126.000,340.000 C 1110.913,343.739 1111.148,344.484 1096.000,348.000" stroke-width="2.729" stroke="black" fill="none" stroke-linecap="round"></path><path d="M 1096.000,348.000 C 1089.766,351.028 1093.413,348.739 1091.000,350.000" stroke-width="3.652" stroke="black" fill="none" stroke-linecap="round"></path><path d="M 1091.000,350.000 C 1098.739,342.630 1095.766,346.028 1108.000,338.000" stroke-width="3.870" stroke="black" fill="none" stroke-linecap="round"></path><path d="M 1108.000,338.000 C 1130.115,327.380 1129.739,327.130 1153.000,319.000" stroke-width="1.719" stroke="black" fill="none" stroke-linecap="round"></path><path d="M 1153.000,319.000 C 1165.942,315.264 1165.615,314.380 1179.000,312.000" stroke-width="2.016" stroke="black" fill="none" stroke-linecap="round"></path><path d="M 1179.000,312.000 C 1187.911,309.480 1187.942,309.764 1197.000,308.000" stroke-width="2.400" stroke="black" fill="none" stroke-linecap="round"></path><path d="M 1197.000,308.000 C 1209.480,306.174 1209.411,305.980 1222.000,305.000" stroke-width="2.927" stroke="black" fill="none" stroke-linecap="round"></path><path d="M 1222.000,305.000 C 1231.211,304.099 1225.480,304.674 1229.000,305.000" stroke-width="3.960" stroke="black" fill="none" stroke-linecap="round"></path><path d="M 1229.000,305.000 C 1212.355,311.868 1217.711,309.599 1195.000,316.000" stroke-width="3.662" stroke="black" fill="none" stroke-linecap="round"></path><path d="M 1195.000,316.000 C 1159.439,322.704 1159.855,324.368 1124.000,330.000" stroke-width="1.300" stroke="black" fill="none" stroke-linecap="round"></path><path d="M 1124.000,330.000 C 1074.923,342.942 1074.439,340.204 1025.000,351.000" stroke-width="1.125" stroke="black" fill="none" stroke-linecap="round"></path><path d="M 1025.000,351.000 C 932.170,365.079 932.423,365.942 839.000,376.000" stroke-width="1.125" stroke="black" fill="none" stroke-linecap="round"></path><path d="M 839.000,376.000 C 795.561,380.580 795.670,381.079 752.000,383.000" stroke-width="1.125" stroke="black" fill="none" stroke-linecap="round"></path><path d="M 752.000,383.000 C 705.421,386.904 705.561,385.580 659.000,386.000" stroke-width="1.125" stroke="black" fill="none" stroke-linecap="round"></path><path d="M 659.000,386.000 C 627.973,385.957 628.421,385.404 598.000,380.000" stroke-width="1.125" stroke="black" fill="none" stroke-linecap="round"></path><path d="M 598.000,380.000 C 548.063,366.735 547.473,369.957 498.000,354.000" stroke-width="1.125" stroke="black" fill="none" stroke-linecap="round"></path><path d="M 498.000,354.000 C 490.995,352.521 491.063,352.235 484.000,351.000" stroke-width="1.951" stroke="black" fill="none" stroke-linecap="round"></path><path d="M 484.000,351.000 C 479.543,349.606 479.495,350.021 475.000,349.000" stroke-width="2.892" stroke="black" fill="none" stroke-linecap="round"></path><path d="M 475.000,349.000 C 469.217,347.697 472.043,348.606 469.000,349.000" stroke-width="3.976" stroke="black" fill="none" stroke-linecap="round"></path><path d="M 469.000,349.000 C 470.962,352.722 468.717,350.697 474.000,355.000" stroke-width="4.575" stroke="black" fill="none" stroke-linecap="round"></path><path d="M 474.000,355.000 C 477.333,357.312 476.962,357.222 481.000,358.000" stroke-width="4.012" stroke="black" fill="none" stroke-linecap="round"></path><path d="M 481.000,358.000 C 485.500,358.000 485.333,358.812 490.000,358.000" stroke-width="3.772" stroke="black" fill="none" stroke-linecap="round"></path><path d="M 490.000,358.000 C 493.000,358.000 493.000,358.000 496.000,358.000" stroke-width="3.990" stroke="black" fill="none" stroke-linecap="round"></path></svg>