<svg xmlns="http://www.w3.org/2000/svg" xmlns:xlink="http://www.w3.org/1999/xlink" viewBox="0 0 453 236" width="453" height="236"><path d="M 102.500,91.000 C 103.500,88.518 103.000,88.500 103.500,86.000" stroke-width="4.335" stroke="black" fill="none" stroke-linecap="round"></path><path d="M 103.500,86.000 C 104.855,80.119 103.500,82.018 102.500,78.000" stroke-width="4.530" stroke="black" fill="none" stroke-linecap="round"></path><path d="M 102.500,78.000 C 97.960,76.752 99.855,75.619 93.500,77.000" stroke-width="3.892" stroke="black" fill="none" stroke-linecap="round"></path><path d="M 93.500,77.000 C 88.642,77.117 88.960,77.252 84.500,79.000" stroke-width="3.660" stroke="black" fill="none" stroke-linecap="round"></path><path d="M 84.500,79.000 C 77.797,82.707 77.642,82.117 71.500,87.000" stroke-width="3.076" stroke="black" fill="none" stroke-linecap="round"></path><path d="M 71.500,87.000 C 66.437,89.912 66.797,90.207 62.500,94.000" stroke-width="3.792" stroke="black" fill="none" stroke-linecap="round"></path><path d="M 62.500,94.000 C 52.416,103.132 53.437,103.412 45.500,114.000" stroke-width="2.453" stroke="black" fill="none" stroke-linecap="round"></path><path d="M 45.500,114.000 C 42.653,120.373 41.916,119.632 41.500,127.000" stroke-width="2.836" stroke="black" fill="none" stroke-linecap="round"></path><path d="M 41.500,127.000 C 39.672,132.500 40.653,131.873 41.500,137.000" stroke-width="3.296" stroke="black" fill="none" stroke-linecap="round"></path><path d="M 41.500,137.000 C 46.402,149.607 46.172,148.500 54.500,159.000" stroke-width="3.207" stroke="black" fill="none" stroke-linecap="round"></path><path d="M 54.500,159.000 C 60.349,162.791 58.902,164.107 66.500,166.000" stroke-width="3.128" stroke="black" fill="none" stroke-linecap="round"></path><path d="M 66.500,166.000 C 71.740,169.497 71.849,168.791 77.500,171.000" stroke-width="3.238" stroke="black" fill="none" stroke-linecap="round"></path><path d="M 77.500,171.000 C 83.491,171.727 83.240,172.497 89.500,172.000" stroke-width="3.218" stroke="black" fill="none" stroke-linecap="round"></path><path d="M 89.500,172.000 C 95.931,174.720 94.491,172.227 99.500,172.000" stroke-width="3.438" stroke="black" fill="none" stroke-linecap="round"></path><path d="M 99.500,172.000 C 106.676,164.605 106.431,166.720 110.500,156.000" stroke-width="3.510" stroke="black" fill="none" stroke-linecap="round"></path><path d="M 110.500,156.000 C 111.249,150.511 112.676,151.105 111.500,145.000" stroke-width="3.439" stroke="black" fill="none" stroke-linecap="round"></path><path d="M 111.500,145.000 C 111.500,139.500 111.749,139.511 111.500,134.000" stroke-width="3.969" stroke="black" fill="none" stroke-linecap="round"></path><path d="M 111.500,134.000 C 111.789,128.482 111.500,128.500 111.500,123.000" stroke-width="3.502" stroke="black" fill="none" stroke-linecap="round"></path><path d="M 111.500,123.000 C 111.070,118.990 111.289,118.982 110.500,115.000" stroke-width="3.761" stroke="black" fill="none" stroke-linecap="round"></path><path d="M 110.500,115.000 C 110.676,111.744 110.070,111.990 109.500,109.000" stroke-width="4.020" stroke="black" fill="none" stroke-linecap="round"></path><path d="M 109.500,109.000 C 107.617,102.134 107.676,104.744 104.500,101.000" stroke-width="3.880" stroke="black" fill="none" stroke-linecap="round"></path><path d="M 141.500,130.000 C 140.079,133.948 140.500,134.000 139.500,138.000" stroke-width="5.246" stroke="black" fill="none" stroke-linecap="round"></path><path d="M 139.500,138.000 C 139.500,141.000 139.079,140.948 139.500,144.000" stroke-width="4.380" stroke="black" fill="none" stroke-linecap="round"></path><path d="M 139.500,144.000 C 139.500,148.500 139.500,148.500 139.500,153.000" stroke-width="3.919" stroke="black" fill="none" stroke-linecap="round"></path><path d="M 139.500,153.000 C 139.987,156.079 139.500,156.000 139.500,159.000" stroke-width="4.083" stroke="black" fill="none" stroke-linecap="round"></path><path d="M 139.500,159.000 C 136.686,165.203 138.987,162.079 137.500,165.000" stroke-width="4.095" stroke="black" fill="none" stroke-linecap="round"></path><path d="M 137.500,165.000 C 141.120,161.895 138.686,164.703 143.500,158.000" stroke-width="4.559" stroke="black" fill="none" stroke-linecap="round"></path><path d="M 143.500,158.000 C 145.598,152.277 146.620,152.895 148.500,147.000" stroke-width="3.588" stroke="black" fill="none" stroke-linecap="round"></path><path d="M 148.500,147.000 C 151.079,142.155 151.098,142.277 154.500,138.000" stroke-width="3.422" stroke="black" fill="none" stroke-linecap="round"></path><path d="M 154.500,138.000 C 158.019,133.405 158.079,133.655 162.500,130.000" stroke-width="3.332" stroke="black" fill="none" stroke-linecap="round"></path><path d="M 162.500,130.000 C 170.737,123.953 170.519,123.905 179.500,119.000" stroke-width="3.438" stroke="black" fill="none" stroke-linecap="round"></path><path d="M 179.500,119.000 C 182.415,117.475 182.237,117.453 185.500,117.000" stroke-width="3.876" stroke="black" fill="none" stroke-linecap="round"></path><path d="M 185.500,117.000 C 191.059,114.941 188.915,116.475 192.500,117.000" stroke-width="4.396" stroke="black" fill="none" stroke-linecap="round"></path><path d="M 192.500,117.000 C 193.689,122.244 194.559,119.941 192.500,127.000" stroke-width="3.761" stroke="black" fill="none" stroke-linecap="round"></path><path d="M 192.500,127.000 C 189.500,134.000 190.689,134.244 186.500,141.000" stroke-width="3.231" stroke="black" fill="none" stroke-linecap="round"></path><path d="M 186.500,141.000 C 183.273,147.914 183.500,148.000 180.500,155.000" stroke-width="2.978" stroke="black" fill="none" stroke-linecap="round"></path><path d="M 180.500,155.000 C 178.363,159.397 178.773,159.414 177.500,164.000" stroke-width="3.394" stroke="black" fill="none" stroke-linecap="round"></path><path d="M 177.500,164.000 C 177.749,167.518 176.863,167.397 177.500,171.000" stroke-width="3.787" stroke="black" fill="none" stroke-linecap="round"></path><path d="M 215.500,152.000 C 224.024,154.000 224.000,153.000 232.500,154.000" stroke-width="4.501" stroke="black" fill="none" stroke-linecap="round"></path><path d="M 232.500,154.000 C 238.639,153.529 238.524,154.000 244.500,152.000" stroke-width="3.570" stroke="black" fill="none" stroke-linecap="round"></path><path d="M 244.500,152.000 C 250.240,150.505 250.139,150.529 255.500,148.000" stroke-width="3.339" stroke="black" fill="none" stroke-linecap="round"></path><path d="M 255.500,148.000 C 260.474,144.956 260.740,145.505 265.500,142.000" stroke-width="3.279" stroke="black" fill="none" stroke-linecap="round"></path><path d="M 265.500,142.000 C 269.602,140.704 268.974,139.956 272.500,138.000" stroke-width="3.681" stroke="black" fill="none" stroke-linecap="round"></path><path d="M 272.500,138.000 C 280.218,132.794 277.102,133.704 280.500,128.000" stroke-width="3.955" stroke="black" fill="none" stroke-linecap="round"></path><path d="M 280.500,128.000 C 277.873,122.392 280.718,124.294 273.500,121.000" stroke-width="4.228" stroke="black" fill="none" stroke-linecap="round"></path><path d="M 273.500,121.000 C 265.926,120.257 266.873,118.892 258.500,121.000" stroke-width="3.276" stroke="black" fill="none" stroke-linecap="round"></path><path d="M 258.500,121.000 C 250.575,121.380 250.926,121.757 243.500,124.000" stroke-width="3.049" stroke="black" fill="none" stroke-linecap="round"></path><path d="M 243.500,124.000 C 237.012,126.866 237.075,126.380 231.500,131.000" stroke-width="3.081" stroke="black" fill="none" stroke-linecap="round"></path><path d="M 231.500,131.000 C 226.199,134.180 227.012,134.366 223.500,139.000" stroke-width="3.228" stroke="black" fill="none" stroke-linecap="round"></path><path d="M 223.500,139.000 C 219.751,147.372 219.199,146.680 217.500,156.000" stroke-width="3.553" stroke="black" fill="none" stroke-linecap="round"></path><path d="M 217.500,156.000 C 216.138,159.729 216.751,158.872 217.500,162.000" stroke-width="3.913" stroke="black" fill="none" stroke-linecap="round"></path><path d="M 217.500,162.000 C 220.123,164.987 219.138,164.729 223.500,166.000" stroke-width="3.888" stroke="black" fill="none" stroke-linecap="round"></path><path d="M 223.500,166.000 C 230.462,167.531 230.123,167.987 237.500,168.000" stroke-width="3.277" stroke="black" fill="none" stroke-linecap="round"></path><path d="M 237.500,168.000 C 245.500,168.000 245.462,168.531 253.500,168.000" stroke-width="3.117" stroke="black" fill="none" stroke-linecap="round"></path><path d="M 253.500,168.000 C 262.071,168.766 262.000,168.000 270.500,168.000" stroke-width="2.834" stroke="black" fill="none" stroke-linecap="round"></path><path d="M 270.500,168.000 C 278.552,166.739 278.571,167.266 286.500,165.000" stroke-width="2.802" stroke="black" fill="none" stroke-linecap="round"></path><path d="M 286.500,165.000 C 294.780,163.757 294.552,163.239 302.500,161.000" stroke-width="2.839" stroke="black" fill="none" stroke-linecap="round"></path><path d="M 123.500,209.000 C 128.511,209.950 128.500,210.000 133.500,211.000" stroke-width="4.413" stroke="black" fill="none" stroke-linecap="round"></path><path d="M 133.500,211.000 C 137.936,212.585 138.011,211.950 142.500,213.000" stroke-width="3.956" stroke="black" fill="none" stroke-linecap="round"></path><path d="M 142.500,213.000 C 149.000,213.000 148.936,213.585 155.500,213.000" stroke-width="3.385" stroke="black" fill="none" stroke-linecap="round"></path><path d="M 155.500,213.000 C 163.549,213.663 163.500,213.000 171.500,213.000" stroke-width="3.028" stroke="black" fill="none" stroke-linecap="round"></path><path d="M 171.500,213.000 C 181.733,212.442 181.549,212.163 191.500,210.000" stroke-width="2.626" stroke="black" fill="none" stroke-linecap="round"></path><path d="M 191.500,210.000 C 201.428,206.279 201.733,207.442 211.500,203.000" stroke-width="2.596" stroke="black" fill="none" stroke-linecap="round"></path><path d="M 211.500,203.000 C 222.888,199.081 222.928,199.279 234.500,196.000" stroke-width="2.342" stroke="black" fill="none" stroke-linecap="round"></path><path d="M 234.500,196.000 C 247.400,192.472 247.388,192.581 260.500,190.000" stroke-width="2.233" stroke="black" fill="none" stroke-linecap="round"></path><path d="M 260.500,190.000 C 274.006,188.037 273.900,187.472 287.500,186.000" stroke-width="2.123" stroke="black" fill="none" stroke-linecap="round"></path><path d="M 287.500,186.000 C 300.560,184.329 300.506,184.037 313.500,182.000" stroke-width="2.234" stroke="black" fill="none" stroke-linecap="round"></path><path d="M 313.500,182.000 C 325.655,180.090 325.560,179.829 337.500,177.000" stroke-width="2.225" stroke="black" fill="none" stroke-linecap="round"></path><path d="M 337.500,177.000 C 348.670,173.962 348.655,174.090 359.500,170.000" stroke-width="2.279" stroke="black" fill="none" stroke-linecap="round"></path><path d="M 359.500,170.000 C 369.463,166.820 369.170,166.462 378.500,162.000" stroke-width="2.457" stroke="black" fill="none" stroke-linecap="round"></path><path d="M 378.500,162.000 C 384.434,158.470 384.463,158.820 389.500,154.000" stroke-width="2.889" stroke="black" fill="none" stroke-linecap="round"></path><path d="M 389.500,154.000 C 393.795,150.979 392.934,150.970 395.500,147.000" stroke-width="3.333" stroke="black" fill="none" stroke-linecap="round"></path><path d="M 395.500,147.000 C 397.931,141.216 396.795,143.979 395.500,140.000" stroke-width="4.152" stroke="black" fill="none" stroke-linecap="round"></path><path d="M 395.500,140.000 C 387.504,139.433 389.931,137.216 379.500,139.000" stroke-width="3.184" stroke="black" fill="none" stroke-linecap="round"></path><path d="M 379.500,139.000 C 369.006,138.239 369.004,138.433 358.500,138.000" stroke-width="2.684" stroke="black" fill="none" stroke-linecap="round"></path><path d="M 358.500,138.000 C 347.000,138.000 347.006,137.739 335.500,138.000" stroke-width="2.409" stroke="black" fill="none" stroke-linecap="round"></path><path d="M 335.500,138.000 C 322.500,138.000 322.500,138.000 309.500,138.000" stroke-width="2.276" stroke="black" fill="none" stroke-linecap="round"></path><path d="M 309.500,138.000 C 296.974,137.458 297.000,138.000 284.500,138.000" stroke-width="2.277" stroke="black" fill="none" stroke-linecap="round"></path><path d="M 284.500,138.000 C 273.726,137.955 273.974,138.458 263.500,140.000" stroke-width="2.435" stroke="black" fill="none" stroke-linecap="round"></path><path d="M 263.500,140.000 C 252.817,142.654 258.726,140.955 254.500,144.000" stroke-width="3.128" stroke="black" fill="none" stroke-linecap="round"></path><path d="M 254.500,144.000 C 263.989,148.216 257.817,146.654 273.500,148.000" stroke-width="3.735" stroke="black" fill="none" stroke-linecap="round"></path><path d="M 273.500,148.000 C 286.040,145.687 285.989,147.716 298.500,143.000" stroke-width="2.555" stroke="black" fill="none" stroke-linecap="round"></path><path d="M 298.500,143.000 C 311.365,139.145 311.540,140.187 324.500,137.000" stroke-width="2.225" stroke="black" fill="none" stroke-linecap="round"></path><path d="M 324.500,137.000 C 335.982,135.576 335.865,135.145 347.500,135.000" stroke-width="2.279" stroke="black" fill="none" stroke-linecap="round"></path><path d="M 347.500,135.000 C 356.000,135.000 355.982,134.576 364.500,135.000" stroke-width="2.628" stroke="black" fill="none" stroke-linecap="round"></path><path d="M 364.500,135.000 C 370.573,134.407 370.500,135.000 376.500,135.000" stroke-width="3.153" stroke="black" fill="none" stroke-linecap="round"></path><path d="M 376.500,135.000 C 380.772,135.343 380.573,135.407 384.500,137.000" stroke-width="3.572" stroke="black" fill="none" stroke-linecap="round"></path><path d="M 384.500,137.000 C 389.019,141.735 389.772,139.343 394.500,143.000" stroke-width="3.982" stroke="black" fill="none" stroke-linecap="round"></path><path d="M 394.500,143.000 C 402.688,144.389 402.019,144.735 410.500,143.000" stroke-width="3.844" stroke="black" fill="none" stroke-linecap="round"></path><path d="M 410.500,143.000 C 425.339,139.969 425.188,140.389 439.500,135.000" stroke-width="2.366" stroke="black" fill="none" stroke-linecap="round"></path><path d="M 439.500,135.000 C 454.068,130.082 453.839,129.969 467.500,123.000" stroke-width="2.165" stroke="black" fill="none" stroke-linecap="round"></path></svg>