<svg xmlns="http://www.w3.org/2000/svg" xmlns:xlink="http://www.w3.org/1999/xlink" viewBox="0 0 453 236" width="453" height="236"><path d="M 137.500,176.000 C 134.020,175.220 134.000,175.500 130.500,175.000" stroke-width="5.176" stroke="black" fill="none" stroke-linecap="round"></path><path d="M 130.500,175.000 C 125.980,175.280 126.020,174.720 121.500,175.000" stroke-width="4.664" stroke="black" fill="none" stroke-linecap="round"></path><path d="M 121.500,175.000 C 118.004,174.467 117.980,174.780 114.500,174.000" stroke-width="4.157" stroke="black" fill="none" stroke-linecap="round"></path><path d="M 114.500,174.000 C 110.514,173.268 110.504,173.467 106.500,173.000" stroke-width="3.912" stroke="black" fill="none" stroke-linecap="round"></path><path d="M 106.500,173.000 C 102.978,173.268 103.014,172.768 99.500,173.000" stroke-width="4.008" stroke="black" fill="none" stroke-linecap="round"></path><path d="M 99.500,173.000 C 96.495,172.529 96.478,172.768 93.500,172.000" stroke-width="4.055" stroke="black" fill="none" stroke-linecap="round"></path><path d="M 93.500,172.000 C 84.472,171.643 87.995,171.029 82.500,170.000" stroke-width="4.156" stroke="black" fill="none" stroke-linecap="round"></path><path d="M 82.500,170.000 C 84.835,168.142 81.472,169.143 87.500,167.000" stroke-width="4.930" stroke="black" fill="none" stroke-linecap="round"></path><path d="M 87.500,167.000 C 92.062,165.664 91.835,165.142 96.500,164.000" stroke-width="3.860" stroke="black" fill="none" stroke-linecap="round"></path><path d="M 96.500,164.000 C 100.021,162.546 100.062,162.664 103.500,161.000" stroke-width="3.877" stroke="black" fill="none" stroke-linecap="round"></path><path d="M 103.500,161.000 C 109.099,158.700 109.021,158.546 114.500,156.000" stroke-width="3.610" stroke="black" fill="none" stroke-linecap="round"></path><path d="M 114.500,156.000 C 121.000,152.500 121.099,152.700 127.500,149.000" stroke-width="3.168" stroke="black" fill="none" stroke-linecap="round"></path><path d="M 127.500,149.000 C 134.108,145.688 134.000,145.500 140.500,142.000" stroke-width="2.994" stroke="black" fill="none" stroke-linecap="round"></path><path d="M 140.500,142.000 C 147.073,138.113 147.108,138.188 153.500,134.000" stroke-width="2.912" stroke="black" fill="none" stroke-linecap="round"></path><path d="M 153.500,134.000 C 159.708,130.281 159.573,130.113 165.500,126.000" stroke-width="2.944" stroke="black" fill="none" stroke-linecap="round"></path><path d="M 165.500,126.000 C 170.790,121.207 171.208,121.781 176.500,117.000" stroke-width="2.968" stroke="black" fill="none" stroke-linecap="round"></path><path d="M 176.500,117.000 C 180.670,114.735 180.290,114.207 184.500,112.000" stroke-width="3.395" stroke="black" fill="none" stroke-linecap="round"></path><path d="M 184.500,112.000 C 187.351,109.290 187.670,109.735 190.500,107.000" stroke-width="3.655" stroke="black" fill="none" stroke-linecap="round"></path><path d="M 190.500,107.000 C 196.180,102.777 192.851,105.290 195.500,104.000" stroke-width="4.013" stroke="black" fill="none" stroke-linecap="round"></path><path d="M 195.500,104.000 C 190.346,109.878 193.680,107.277 185.500,116.000" stroke-width="4.634" stroke="black" fill="none" stroke-linecap="round"></path><path d="M 185.500,116.000 C 181.154,122.122 180.846,121.878 176.500,128.000" stroke-width="3.345" stroke="black" fill="none" stroke-linecap="round"></path><path d="M 176.500,128.000 C 171.642,134.124 171.654,134.122 166.500,140.000" stroke-width="2.979" stroke="black" fill="none" stroke-linecap="round"></path><path d="M 166.500,140.000 C 161.250,146.250 161.142,146.124 155.500,152.000" stroke-width="3.109" stroke="black" fill="none" stroke-linecap="round"></path><path d="M 155.500,152.000 C 149.841,157.927 149.750,157.750 143.500,163.000" stroke-width="2.809" stroke="black" fill="none" stroke-linecap="round"></path><path d="M 143.500,163.000 C 137.037,167.555 137.341,167.927 130.500,172.000" stroke-width="2.823" stroke="black" fill="none" stroke-linecap="round"></path><path d="M 130.500,172.000 C 124.582,176.130 124.537,176.055 118.500,180.000" stroke-width="2.916" stroke="black" fill="none" stroke-linecap="round"></path><path d="M 118.500,180.000 C 113.657,183.299 113.582,183.130 108.500,186.000" stroke-width="3.145" stroke="black" fill="none" stroke-linecap="round"></path><path d="M 108.500,186.000 C 103.106,188.758 103.157,188.799 97.500,191.000" stroke-width="3.186" stroke="black" fill="none" stroke-linecap="round"></path><path d="M 97.500,191.000 C 88.067,194.701 88.106,194.758 78.500,198.000" stroke-width="3.441" stroke="black" fill="none" stroke-linecap="round"></path><path d="M 78.500,198.000 C 73.415,199.265 73.567,199.701 68.500,201.000" stroke-width="3.472" stroke="black" fill="none" stroke-linecap="round"></path><path d="M 68.500,201.000 C 65.119,202.869 64.915,202.265 61.500,204.000" stroke-width="3.751" stroke="black" fill="none" stroke-linecap="round"></path><path d="M 61.500,204.000 C 56.948,204.814 57.119,205.369 52.500,206.000" stroke-width="3.621" stroke="black" fill="none" stroke-linecap="round"></path><path d="M 52.500,206.000 C 49.545,207.170 49.448,206.814 46.500,208.000" stroke-width="3.943" stroke="black" fill="none" stroke-linecap="round"></path><path d="M 46.500,208.000 C 41.500,209.987 44.045,208.670 41.500,209.000" stroke-width="4.204" stroke="black" fill="none" stroke-linecap="round"></path><path d="M 41.500,209.000 C 43.480,205.373 41.500,207.487 46.500,203.000" stroke-width="4.816" stroke="black" fill="none" stroke-linecap="round"></path><path d="M 46.500,203.000 C 50.794,200.046 50.480,199.873 55.500,198.000" stroke-width="3.815" stroke="black" fill="none" stroke-linecap="round"></path><path d="M 55.500,198.000 C 62.565,195.667 62.294,195.046 69.500,193.000" stroke-width="3.206" stroke="black" fill="none" stroke-linecap="round"></path><path d="M 69.500,193.000 C 75.435,190.333 75.565,190.667 81.500,188.000" stroke-width="3.069" stroke="black" fill="none" stroke-linecap="round"></path><path d="M 81.500,188.000 C 88.500,185.500 88.435,185.333 95.500,183.000" stroke-width="2.960" stroke="black" fill="none" stroke-linecap="round"></path><path d="M 95.500,183.000 C 102.450,180.350 102.500,180.500 109.500,178.000" stroke-width="2.929" stroke="black" fill="none" stroke-linecap="round"></path><path d="M 109.500,178.000 C 115.972,175.904 115.950,175.850 122.500,174.000" stroke-width="3.006" stroke="black" fill="none" stroke-linecap="round"></path><path d="M 122.500,174.000 C 128.031,172.608 127.972,172.404 133.500,171.000" stroke-width="3.250" stroke="black" fill="none" stroke-linecap="round"></path><path d="M 133.500,171.000 C 145.066,167.699 145.031,167.608 156.500,164.000" stroke-width="3.360" stroke="black" fill="none" stroke-linecap="round"></path><path d="M 156.500,164.000 C 162.021,162.055 162.066,162.199 167.500,160.000" stroke-width="3.281" stroke="black" fill="none" stroke-linecap="round"></path><path d="M 167.500,160.000 C 170.000,159.000 170.021,159.055 172.500,158.000" stroke-width="3.917" stroke="black" fill="none" stroke-linecap="round"></path><path d="M 172.500,158.000 C 178.249,156.374 175.000,157.000 177.500,156.000" stroke-width="4.491" stroke="black" fill="none" stroke-linecap="round"></path><path d="M 177.500,156.000 C 172.880,155.374 176.249,155.374 168.500,156.000" stroke-width="4.809" stroke="black" fill="none" stroke-linecap="round"></path><path d="M 168.500,156.000 C 165.903,156.799 165.880,156.374 163.500,158.000" stroke-width="4.420" stroke="black" fill="none" stroke-linecap="round"></path><path d="M 163.500,158.000 C 159.931,159.889 159.903,159.799 156.500,162.000" stroke-width="3.921" stroke="black" fill="none" stroke-linecap="round"></path><path d="M 156.500,162.000 C 153.625,164.215 153.431,163.889 150.500,166.000" stroke-width="3.987" stroke="black" fill="none" stroke-linecap="round"></path><path d="M 150.500,166.000 C 146.444,167.896 146.625,168.215 142.500,170.000" stroke-width="3.714" stroke="black" fill="none" stroke-linecap="round"></path><path d="M 142.500,170.000 C 138.732,171.649 138.944,171.896 135.500,174.000" stroke-width="3.732" stroke="black" fill="none" stroke-linecap="round"></path><path d="M 135.500,174.000 C 133.050,175.675 133.232,175.649 131.500,178.000" stroke-width="4.196" stroke="black" fill="none" stroke-linecap="round"></path><path d="M 131.500,178.000 C 128.393,181.834 129.050,181.675 127.500,186.000" stroke-width="4.334" stroke="black" fill="none" stroke-linecap="round"></path><path d="M 127.500,186.000 C 126.640,190.605 126.893,188.834 128.500,192.000" stroke-width="4.617" stroke="black" fill="none" stroke-linecap="round"></path><path d="M 128.500,192.000 C 132.000,192.000 130.640,193.605 135.500,192.000" stroke-width="4.155" stroke="black" fill="none" stroke-linecap="round"></path><path d="M 135.500,192.000 C 140.263,193.115 140.000,192.000 144.500,192.000" stroke-width="3.809" stroke="black" fill="none" stroke-linecap="round"></path><path d="M 144.500,192.000 C 149.797,189.971 149.763,190.615 154.500,187.000" stroke-width="3.508" stroke="black" fill="none" stroke-linecap="round"></path><path d="M 154.500,187.000 C 159.123,183.648 159.297,183.971 163.500,180.000" stroke-width="3.408" stroke="black" fill="none" stroke-linecap="round"></path><path d="M 163.500,180.000 C 167.834,175.791 168.123,176.148 172.500,172.000" stroke-width="3.267" stroke="black" fill="none" stroke-linecap="round"></path><path d="M 172.500,172.000 C 176.494,170.006 175.834,169.291 179.500,167.000" stroke-width="3.581" stroke="black" fill="none" stroke-linecap="round"></path><path d="M 179.500,167.000 C 186.287,161.362 182.994,163.506 185.500,159.000" stroke-width="4.085" stroke="black" fill="none" stroke-linecap="round"></path><path d="M 185.500,159.000 C 180.732,157.206 184.787,156.862 176.500,158.000" stroke-width="4.663" stroke="black" fill="none" stroke-linecap="round"></path><path d="M 176.500,158.000 C 172.802,159.714 172.732,158.706 169.500,162.000" stroke-width="4.035" stroke="black" fill="none" stroke-linecap="round"></path><path d="M 169.500,162.000 C 166.387,164.376 166.302,164.214 163.500,167.000" stroke-width="3.907" stroke="black" fill="none" stroke-linecap="round"></path><path d="M 163.500,167.000 C 160.536,169.150 160.887,169.376 158.500,172.000" stroke-width="3.953" stroke="black" fill="none" stroke-linecap="round"></path><path d="M 158.500,172.000 C 155.506,176.319 155.536,176.150 153.500,181.000" stroke-width="4.201" stroke="black" fill="none" stroke-linecap="round"></path><path d="M 153.500,181.000 C 150.860,185.254 152.506,183.319 152.500,186.000" stroke-width="4.662" stroke="black" fill="none" stroke-linecap="round"></path><path d="M 152.500,186.000 C 158.874,187.468 156.360,187.754 164.500,186.000" stroke-width="4.752" stroke="black" fill="none" stroke-linecap="round"></path><path d="M 164.500,186.000 C 170.090,183.156 170.374,184.468 175.500,180.000" stroke-width="3.580" stroke="black" fill="none" stroke-linecap="round"></path><path d="M 175.500,180.000 C 182.557,176.705 182.090,176.156 188.500,172.000" stroke-width="3.125" stroke="black" fill="none" stroke-linecap="round"></path><path d="M 188.500,172.000 C 193.796,166.282 194.557,167.205 199.500,161.000" stroke-width="2.991" stroke="black" fill="none" stroke-linecap="round"></path><path d="M 199.500,161.000 C 207.704,154.218 207.296,153.782 215.500,147.000" stroke-width="2.629" stroke="black" fill="none" stroke-linecap="round"></path><path d="M 215.500,147.000 C 220.771,141.251 221.204,141.718 226.500,136.000" stroke-width="2.982" stroke="black" fill="none" stroke-linecap="round"></path><path d="M 226.500,136.000 C 233.035,130.541 232.771,130.251 239.500,125.000" stroke-width="2.971" stroke="black" fill="none" stroke-linecap="round"></path><path d="M 239.500,125.000 C 250.871,115.870 250.535,115.541 261.500,106.000" stroke-width="2.282" stroke="black" fill="none" stroke-linecap="round"></path><path d="M 261.500,106.000 C 264.387,102.396 264.871,102.870 267.500,99.000" stroke-width="3.092" stroke="black" fill="none" stroke-linecap="round"></path><path d="M 267.500,99.000 C 270.513,96.838 269.887,96.396 272.500,94.000" stroke-width="3.660" stroke="black" fill="none" stroke-linecap="round"></path><path d="M 272.500,94.000 C 275.805,89.746 274.013,91.838 274.500,89.000" stroke-width="4.411" stroke="black" fill="none" stroke-linecap="round"></path><path d="M 274.500,89.000 C 269.413,88.044 272.305,87.746 265.500,90.000" stroke-width="4.370" stroke="black" fill="none" stroke-linecap="round"></path><path d="M 265.500,90.000 C 259.033,95.044 258.413,93.544 252.500,100.000" stroke-width="3.193" stroke="black" fill="none" stroke-linecap="round"></path><path d="M 252.500,100.000 C 244.151,105.583 244.533,106.044 236.500,112.000" stroke-width="2.862" stroke="black" fill="none" stroke-linecap="round"></path><path d="M 236.500,112.000 C 229.009,119.009 228.651,118.583 221.500,126.000" stroke-width="2.750" stroke="black" fill="none" stroke-linecap="round"></path><path d="M 221.500,126.000 C 214.530,132.533 214.509,132.509 207.500,139.000" stroke-width="2.678" stroke="black" fill="none" stroke-linecap="round"></path><path d="M 207.500,139.000 C 201.478,143.525 202.030,144.033 196.500,149.000" stroke-width="2.896" stroke="black" fill="none" stroke-linecap="round"></path><path d="M 196.500,149.000 C 191.797,154.861 191.478,154.525 187.500,161.000" stroke-width="2.901" stroke="black" fill="none" stroke-linecap="round"></path><path d="M 187.500,161.000 C 184.713,164.850 184.797,164.861 182.500,169.000" stroke-width="3.320" stroke="black" fill="none" stroke-linecap="round"></path><path d="M 182.500,169.000 C 180.282,172.353 180.713,172.350 179.500,176.000" stroke-width="3.649" stroke="black" fill="none" stroke-linecap="round"></path><path d="M 179.500,176.000 C 177.750,181.250 178.782,179.353 179.500,183.000" stroke-width="4.276" stroke="black" fill="none" stroke-linecap="round"></path><path d="M 179.500,183.000 C 183.047,183.432 181.250,184.750 186.500,183.000" stroke-width="4.525" stroke="black" fill="none" stroke-linecap="round"></path><path d="M 186.500,183.000 C 191.358,182.864 191.047,182.432 195.500,181.000" stroke-width="3.810" stroke="black" fill="none" stroke-linecap="round"></path><path d="M 195.500,181.000 C 201.237,177.828 201.358,178.364 206.500,174.000" stroke-width="3.349" stroke="black" fill="none" stroke-linecap="round"></path><path d="M 206.500,174.000 C 211.763,169.172 212.237,169.828 217.500,165.000" stroke-width="3.306" stroke="black" fill="none" stroke-linecap="round"></path><path d="M 217.500,165.000 C 223.267,161.856 222.763,161.172 228.500,158.000" stroke-width="3.159" stroke="black" fill="none" stroke-linecap="round"></path><path d="M 228.500,158.000 C 232.329,154.277 232.767,154.856 236.500,151.000" stroke-width="3.310" stroke="black" fill="none" stroke-linecap="round"></path><path d="M 236.500,151.000 C 243.042,146.096 239.329,148.777 242.500,147.000" stroke-width="3.812" stroke="black" fill="none" stroke-linecap="round"></path><path d="M 242.500,147.000 C 238.125,151.632 241.542,148.596 233.500,156.000" stroke-width="4.410" stroke="black" fill="none" stroke-linecap="round"></path><path d="M 233.500,156.000 C 228.900,159.894 229.125,160.132 224.500,164.000" stroke-width="3.495" stroke="black" fill="none" stroke-linecap="round"></path><path d="M 224.500,164.000 C 221.500,167.000 221.400,166.894 218.500,170.000" stroke-width="3.671" stroke="black" fill="none" stroke-linecap="round"></path><path d="M 218.500,170.000 C 212.812,174.438 215.500,173.000 212.500,176.000" stroke-width="4.199" stroke="black" fill="none" stroke-linecap="round"></path><path d="M 212.500,176.000 C 215.218,176.074 212.312,176.938 217.500,175.000" stroke-width="4.575" stroke="black" fill="none" stroke-linecap="round"></path><path d="M 217.500,175.000 C 223.500,171.500 223.718,172.074 229.500,168.000" stroke-width="3.428" stroke="black" fill="none" stroke-linecap="round"></path><path d="M 229.500,168.000 C 235.544,164.573 235.500,164.500 241.500,161.000" stroke-width="3.125" stroke="black" fill="none" stroke-linecap="round"></path><path d="M 241.500,161.000 C 245.309,158.095 245.544,158.573 249.500,156.000" stroke-width="3.543" stroke="black" fill="none" stroke-linecap="round"></path><path d="M 249.500,156.000 C 254.500,153.000 252.309,154.595 255.500,154.000" stroke-width="3.871" stroke="black" fill="none" stroke-linecap="round"></path><path d="M 255.500,154.000 C 255.084,157.361 256.500,155.000 253.500,160.000" stroke-width="4.730" stroke="black" fill="none" stroke-linecap="round"></path><path d="M 253.500,160.000 C 251.376,161.889 252.084,162.361 249.500,164.000" stroke-width="4.313" stroke="black" fill="none" stroke-linecap="round"></path><path d="M 249.500,164.000 C 244.027,168.509 247.376,166.389 245.500,169.000" stroke-width="4.584" stroke="black" fill="none" stroke-linecap="round"></path><path d="M 245.500,169.000 C 252.063,168.287 248.527,170.009 258.500,167.000" stroke-width="4.505" stroke="black" fill="none" stroke-linecap="round"></path><path d="M 258.500,167.000 C 265.703,163.984 262.063,166.287 265.500,165.000" stroke-width="4.610" stroke="black" fill="none" stroke-linecap="round"></path><path d="M 265.500,165.000 C 261.671,168.723 265.203,166.484 257.500,172.000" stroke-width="4.765" stroke="black" fill="none" stroke-linecap="round"></path><path d="M 257.500,172.000 C 250.852,175.784 254.671,174.223 251.500,176.000" stroke-width="4.641" stroke="black" fill="none" stroke-linecap="round"></path><path d="M 251.500,176.000 C 256.432,175.325 252.352,176.284 260.500,173.000" stroke-width="4.856" stroke="black" fill="none" stroke-linecap="round"></path><path d="M 260.500,173.000 C 266.896,168.957 266.932,169.325 272.500,164.000" stroke-width="3.301" stroke="black" fill="none" stroke-linecap="round"></path><path d="M 272.500,164.000 C 279.749,157.233 279.896,157.457 286.500,150.000" stroke-width="2.708" stroke="black" fill="none" stroke-linecap="round"></path><path d="M 286.500,150.000 C 293.646,142.123 293.749,142.233 300.500,134.000" stroke-width="2.496" stroke="black" fill="none" stroke-linecap="round"></path><path d="M 300.500,134.000 C 306.928,125.941 307.146,126.123 313.500,118.000" stroke-width="2.528" stroke="black" fill="none" stroke-linecap="round"></path><path d="M 313.500,118.000 C 319.068,111.556 318.928,111.441 324.500,105.000" stroke-width="2.719" stroke="black" fill="none" stroke-linecap="round"></path><path d="M 324.500,105.000 C 333.931,94.296 333.568,94.056 342.500,83.000" stroke-width="2.896" stroke="black" fill="none" stroke-linecap="round"></path><path d="M 342.500,83.000 C 347.980,77.480 344.931,79.796 346.500,76.000" stroke-width="3.484" stroke="black" fill="none" stroke-linecap="round"></path><path d="M 346.500,76.000 C 340.410,74.281 344.480,73.980 335.500,76.000" stroke-width="4.323" stroke="black" fill="none" stroke-linecap="round"></path><path d="M 335.500,76.000 C 330.877,79.352 330.410,77.781 326.500,83.000" stroke-width="3.606" stroke="black" fill="none" stroke-linecap="round"></path><path d="M 326.500,83.000 C 321.508,86.547 321.877,86.852 317.500,91.000" stroke-width="3.381" stroke="black" fill="none" stroke-linecap="round"></path><path d="M 317.500,91.000 C 312.833,96.882 312.508,96.547 308.500,103.000" stroke-width="3.211" stroke="black" fill="none" stroke-linecap="round"></path><path d="M 308.500,103.000 C 304.206,108.823 304.333,108.882 300.500,115.000" stroke-width="3.092" stroke="black" fill="none" stroke-linecap="round"></path><path d="M 300.500,115.000 C 297.188,121.608 296.706,121.323 293.500,128.000" stroke-width="3.143" stroke="black" fill="none" stroke-linecap="round"></path><path d="M 293.500,128.000 C 289.667,134.610 289.688,134.608 285.500,141.000" stroke-width="3.015" stroke="black" fill="none" stroke-linecap="round"></path><path d="M 285.500,141.000 C 281.579,145.766 282.167,146.110 278.500,151.000" stroke-width="3.136" stroke="black" fill="none" stroke-linecap="round"></path><path d="M 278.500,151.000 C 277.095,154.544 276.579,154.266 275.500,158.000" stroke-width="3.580" stroke="black" fill="none" stroke-linecap="round"></path><path d="M 275.500,158.000 C 270.811,163.324 274.095,161.044 272.500,164.000" stroke-width="4.296" stroke="black" fill="none" stroke-linecap="round"></path><path d="M 272.500,164.000 C 279.177,163.649 275.811,165.324 285.500,162.000" stroke-width="4.540" stroke="black" fill="none" stroke-linecap="round"></path><path d="M 285.500,162.000 C 290.468,159.917 290.677,160.649 295.500,158.000" stroke-width="3.712" stroke="black" fill="none" stroke-linecap="round"></path><path d="M 295.500,158.000 C 300.928,155.773 300.968,155.917 306.500,154.000" stroke-width="3.437" stroke="black" fill="none" stroke-linecap="round"></path><path d="M 306.500,154.000 C 311.935,152.172 311.928,152.273 317.500,151.000" stroke-width="3.388" stroke="black" fill="none" stroke-linecap="round"></path><path d="M 317.500,151.000 C 321.483,150.223 321.435,150.172 325.500,150.000" stroke-width="3.627" stroke="black" fill="none" stroke-linecap="round"></path><path d="M 325.500,150.000 C 333.695,147.293 330.483,149.723 335.500,150.000" stroke-width="4.064" stroke="black" fill="none" stroke-linecap="round"></path><path d="M 335.500,150.000 C 337.124,157.803 337.695,153.293 333.500,162.000" stroke-width="4.096" stroke="black" fill="none" stroke-linecap="round"></path><path d="M 333.500,162.000 C 325.129,167.232 327.624,168.803 316.500,172.000" stroke-width="2.768" stroke="black" fill="none" stroke-linecap="round"></path><path d="M 316.500,172.000 C 306.426,178.501 306.129,177.732 295.500,183.000" stroke-width="2.397" stroke="black" fill="none" stroke-linecap="round"></path><path d="M 295.500,183.000 C 280.792,189.177 280.926,189.001 265.500,193.000" stroke-width="2.018" stroke="black" fill="none" stroke-linecap="round"></path><path d="M 265.500,193.000 C 250.593,196.323 250.792,196.677 235.500,198.000" stroke-width="2.555" stroke="black" fill="none" stroke-linecap="round"></path><path d="M 235.500,198.000 C 219.014,199.476 219.093,199.823 202.500,200.000" stroke-width="2.067" stroke="black" fill="none" stroke-linecap="round"></path><path d="M 202.500,200.000 C 187.403,201.125 187.514,200.476 172.500,200.000" stroke-width="2.044" stroke="black" fill="none" stroke-linecap="round"></path><path d="M 172.500,200.000 C 160.896,198.477 160.903,199.125 149.500,196.000" stroke-width="2.262" stroke="black" fill="none" stroke-linecap="round"></path><path d="M 149.500,196.000 C 137.874,193.412 137.896,193.477 126.500,190.000" stroke-width="2.263" stroke="black" fill="none" stroke-linecap="round"></path><path d="M 126.500,190.000 C 117.797,187.479 117.874,187.412 109.500,184.000" stroke-width="2.517" stroke="black" fill="none" stroke-linecap="round"></path><path d="M 109.500,184.000 C 102.276,180.872 102.297,180.979 95.500,177.000" stroke-width="2.792" stroke="black" fill="none" stroke-linecap="round"></path><path d="M 95.500,177.000 C 91.653,174.866 91.776,174.872 88.500,172.000" stroke-width="3.347" stroke="black" fill="none" stroke-linecap="round"></path><path d="M 88.500,172.000 C 84.046,169.722 86.153,169.866 84.500,167.000" stroke-width="3.789" stroke="black" fill="none" stroke-linecap="round"></path><path d="M 84.500,167.000 C 86.440,159.060 85.546,160.722 91.500,154.000" stroke-width="3.881" stroke="black" fill="none" stroke-linecap="round"></path><path d="M 91.500,154.000 C 99.530,147.600 98.440,147.060 108.500,143.000" stroke-width="2.784" stroke="black" fill="none" stroke-linecap="round"></path><path d="M 108.500,143.000 C 119.243,137.752 119.030,137.600 130.500,134.000" stroke-width="2.398" stroke="black" fill="none" stroke-linecap="round"></path><path d="M 130.500,134.000 C 146.382,129.029 146.243,128.752 162.500,125.000" stroke-width="2.029" stroke="black" fill="none" stroke-linecap="round"></path><path d="M 162.500,125.000 C 178.451,121.260 178.382,121.029 194.500,118.000" stroke-width="1.953" stroke="black" fill="none" stroke-linecap="round"></path><path d="M 194.500,118.000 C 210.419,114.474 210.451,114.760 226.500,112.000" stroke-width="1.882" stroke="black" fill="none" stroke-linecap="round"></path><path d="M 226.500,112.000 C 242.979,109.807 242.919,109.474 259.500,108.000" stroke-width="1.897" stroke="black" fill="none" stroke-linecap="round"></path><path d="M 259.500,108.000 C 275.011,106.602 274.979,106.307 290.500,105.000" stroke-width="1.959" stroke="black" fill="none" stroke-linecap="round"></path><path d="M 290.500,105.000 C 303.972,103.151 304.011,103.602 317.500,102.000" stroke-width="2.099" stroke="black" fill="none" stroke-linecap="round"></path><path d="M 317.500,102.000 C 327.495,101.286 327.472,101.151 337.500,101.000" stroke-width="2.416" stroke="black" fill="none" stroke-linecap="round"></path><path d="M 337.500,101.000 C 345.000,101.000 344.995,100.786 352.500,101.000" stroke-width="2.838" stroke="black" fill="none" stroke-linecap="round"></path><path d="M 352.500,101.000 C 359.416,98.471 356.500,101.000 360.500,101.000" stroke-width="3.603" stroke="black" fill="none" stroke-linecap="round"></path><path d="M 360.500,101.000 C 362.692,109.876 362.416,105.471 358.500,115.000" stroke-width="3.148" stroke="black" fill="none" stroke-linecap="round"></path><path d="M 358.500,115.000 C 346.396,125.072 349.192,126.376 333.500,134.000" stroke-width="2.409" stroke="black" fill="none" stroke-linecap="round"></path><path d="M 333.500,134.000 C 320.698,143.901 320.396,143.072 306.500,151.000" stroke-width="2.072" stroke="black" fill="none" stroke-linecap="round"></path><path d="M 306.500,151.000 C 292.242,157.252 292.698,157.901 277.500,162.000" stroke-width="1.959" stroke="black" fill="none" stroke-linecap="round"></path><path d="M 277.500,162.000 C 262.707,167.116 262.742,166.752 247.500,170.000" stroke-width="1.981" stroke="black" fill="none" stroke-linecap="round"></path><path d="M 247.500,170.000 C 233.533,172.123 233.707,172.616 219.500,173.000" stroke-width="2.075" stroke="black" fill="none" stroke-linecap="round"></path><path d="M 219.500,173.000 C 209.449,173.622 209.533,173.623 199.500,173.000" stroke-width="2.407" stroke="black" fill="none" stroke-linecap="round"></path><path d="M 199.500,173.000 C 193.246,172.690 193.449,172.622 187.500,171.000" stroke-width="2.909" stroke="black" fill="none" stroke-linecap="round"></path><path d="M 187.500,171.000 C 181.770,169.898 184.746,170.190 182.500,168.000" stroke-width="3.700" stroke="black" fill="none" stroke-linecap="round"></path><path d="M 182.500,168.000 C 186.593,161.692 184.270,163.398 192.500,158.000" stroke-width="3.839" stroke="black" fill="none" stroke-linecap="round"></path><path d="M 333.500,164.000 C 339.490,163.250 339.500,163.500 345.500,163.000" stroke-width="4.754" stroke="black" fill="none" stroke-linecap="round"></path><path d="M 345.500,163.000 C 351.500,163.000 351.490,162.750 357.500,163.000" stroke-width="3.631" stroke="black" fill="none" stroke-linecap="round"></path><path d="M 357.500,163.000 C 364.500,163.000 364.500,163.000 371.500,163.000" stroke-width="3.291" stroke="black" fill="none" stroke-linecap="round"></path><path d="M 371.500,163.000 C 378.012,163.270 378.000,163.000 384.500,163.000" stroke-width="3.218" stroke="black" fill="none" stroke-linecap="round"></path><path d="M 384.500,163.000 C 390.005,162.550 390.012,162.770 395.500,162.000" stroke-width="3.294" stroke="black" fill="none" stroke-linecap="round"></path><path d="M 395.500,162.000 C 400.051,161.785 400.005,161.550 404.500,161.000" stroke-width="3.639" stroke="black" fill="none" stroke-linecap="round"></path><path d="M 404.500,161.000 C 413.740,159.177 408.551,160.285 412.500,159.000" stroke-width="3.944" stroke="black" fill="none" stroke-linecap="round"></path><path d="M 412.500,159.000 C 404.967,159.200 410.240,158.677 397.500,160.000" stroke-width="4.190" stroke="black" fill="none" stroke-linecap="round"></path><path d="M 397.500,160.000 C 390.964,160.803 390.967,160.700 384.500,162.000" stroke-width="3.421" stroke="black" fill="none" stroke-linecap="round"></path><path d="M 384.500,162.000 C 377.572,164.184 377.464,163.303 370.500,165.000" stroke-width="3.091" stroke="black" fill="none" stroke-linecap="round"></path><path d="M 370.500,165.000 C 364.490,164.750 364.572,165.684 358.500,165.000" stroke-width="3.176" stroke="black" fill="none" stroke-linecap="round"></path><path d="M 358.500,165.000 C 352.509,165.727 352.490,165.250 346.500,166.000" stroke-width="3.310" stroke="black" fill="none" stroke-linecap="round"></path><path d="M 346.500,166.000 C 341.500,166.000 341.509,166.227 336.500,166.000" stroke-width="3.518" stroke="black" fill="none" stroke-linecap="round"></path><path d="M 336.500,166.000 C 332.500,166.000 332.500,166.000 328.500,166.000" stroke-width="3.622" stroke="black" fill="none" stroke-linecap="round"></path><path d="M 328.500,166.000 C 323.880,165.374 324.000,166.000 319.500,166.000" stroke-width="4.163" stroke="black" fill="none" stroke-linecap="round"></path><path d="M 319.500,166.000 C 316.695,166.537 316.880,166.374 314.500,168.000" stroke-width="4.612" stroke="black" fill="none" stroke-linecap="round"></path><path d="M 314.500,168.000 C 312.655,170.176 312.195,169.537 310.500,172.000" stroke-width="4.283" stroke="black" fill="none" stroke-linecap="round"></path><path d="M 310.500,172.000 C 306.237,175.842 306.155,175.676 301.500,179.000" stroke-width="3.659" stroke="black" fill="none" stroke-linecap="round"></path><path d="M 301.500,179.000 C 283.500,190.000 292.737,184.842 283.500,190.000" stroke-width="2.699" stroke="black" fill="none" stroke-linecap="round"></path></svg>