<svg xmlns="http://www.w3.org/2000/svg" xmlns:xlink="http://www.w3.org/1999/xlink" viewBox="0 0 621 330" width="621" height="330"><path d="M 130.500,177.000 C 128.117,174.832 128.000,175.000 125.500,173.000" stroke-width="5.201" stroke="black" fill="none" stroke-linecap="round"></path><path d="M 125.500,173.000 C 123.137,171.217 123.117,171.332 120.500,170.000" stroke-width="4.930" stroke="black" fill="none" stroke-linecap="round"></path><path d="M 120.500,170.000 C 116.359,168.801 116.637,168.217 112.500,167.000" stroke-width="4.617" stroke="black" fill="none" stroke-linecap="round"></path><path d="M 112.500,167.000 C 109.100,164.800 108.859,165.301 105.500,163.000" stroke-width="4.549" stroke="black" fill="none" stroke-linecap="round"></path><path d="M 105.500,163.000 C 102.015,161.464 102.100,161.300 98.500,160.000" stroke-width="4.564" stroke="black" fill="none" stroke-linecap="round"></path><path d="M 98.500,160.000 C 93.728,159.599 96.015,158.964 93.500,158.000" stroke-width="4.764" stroke="black" fill="none" stroke-linecap="round"></path><path d="M 93.500,158.000 C 94.985,154.761 93.228,156.099 97.500,153.000" stroke-width="5.189" stroke="black" fill="none" stroke-linecap="round"></path><path d="M 97.500,153.000 C 100.522,152.063 99.985,151.261 103.500,151.000" stroke-width="4.321" stroke="black" fill="none" stroke-linecap="round"></path><path d="M 103.500,151.000 C 107.500,149.500 107.522,149.563 111.500,148.000" stroke-width="3.900" stroke="black" fill="none" stroke-linecap="round"></path><path d="M 111.500,148.000 C 115.592,146.710 115.500,146.500 119.500,145.000" stroke-width="3.789" stroke="black" fill="none" stroke-linecap="round"></path><path d="M 119.500,145.000 C 123.500,143.000 123.592,143.210 127.500,141.000" stroke-width="3.716" stroke="black" fill="none" stroke-linecap="round"></path><path d="M 127.500,141.000 C 132.749,138.903 132.500,138.500 137.500,136.000" stroke-width="3.423" stroke="black" fill="none" stroke-linecap="round"></path><path d="M 137.500,136.000 C 141.421,132.890 141.749,133.403 145.500,130.000" stroke-width="3.505" stroke="black" fill="none" stroke-linecap="round"></path><path d="M 145.500,130.000 C 153.424,124.384 153.421,124.390 161.500,119.000" stroke-width="3.530" stroke="black" fill="none" stroke-linecap="round"></path><path d="M 161.500,119.000 C 165.577,116.615 165.424,116.384 169.500,114.000" stroke-width="3.536" stroke="black" fill="none" stroke-linecap="round"></path><path d="M 169.500,114.000 C 173.121,111.655 173.077,111.615 176.500,109.000" stroke-width="3.621" stroke="black" fill="none" stroke-linecap="round"></path><path d="M 176.500,109.000 C 179.981,105.978 180.121,106.155 183.500,103.000" stroke-width="3.639" stroke="black" fill="none" stroke-linecap="round"></path><path d="M 183.500,103.000 C 186.600,100.610 186.481,100.478 189.500,98.000" stroke-width="3.833" stroke="black" fill="none" stroke-linecap="round"></path><path d="M 189.500,98.000 C 191.409,95.901 191.600,96.110 193.500,94.000" stroke-width="4.053" stroke="black" fill="none" stroke-linecap="round"></path><path d="M 193.500,94.000 C 199.342,88.000 196.909,90.901 200.500,88.000" stroke-width="4.268" stroke="black" fill="none" stroke-linecap="round"></path><path d="M 200.500,88.000 C 199.487,91.351 201.342,88.000 197.500,94.000" stroke-width="4.955" stroke="black" fill="none" stroke-linecap="round"></path><path d="M 197.500,94.000 C 194.027,96.631 194.987,97.351 191.500,100.000" stroke-width="4.047" stroke="black" fill="none" stroke-linecap="round"></path><path d="M 191.500,100.000 C 188.787,105.196 188.027,104.631 185.500,110.000" stroke-width="3.522" stroke="black" fill="none" stroke-linecap="round"></path><path d="M 185.500,110.000 C 181.920,114.440 182.287,114.696 178.500,119.000" stroke-width="3.412" stroke="black" fill="none" stroke-linecap="round"></path><path d="M 178.500,119.000 C 174.500,124.500 174.420,124.440 170.500,130.000" stroke-width="3.206" stroke="black" fill="none" stroke-linecap="round"></path><path d="M 170.500,130.000 C 166.431,135.451 166.500,135.500 162.500,141.000" stroke-width="3.088" stroke="black" fill="none" stroke-linecap="round"></path><path d="M 162.500,141.000 C 158.325,147.756 157.931,147.451 153.500,154.000" stroke-width="2.902" stroke="black" fill="none" stroke-linecap="round"></path><path d="M 153.500,154.000 C 149.377,158.396 149.825,158.756 145.500,163.000" stroke-width="3.165" stroke="black" fill="none" stroke-linecap="round"></path><path d="M 145.500,163.000 C 141.500,168.000 141.377,167.896 137.500,173.000" stroke-width="3.195" stroke="black" fill="none" stroke-linecap="round"></path><path d="M 137.500,173.000 C 133.881,178.362 133.500,178.000 129.500,183.000" stroke-width="3.204" stroke="black" fill="none" stroke-linecap="round"></path><path d="M 129.500,183.000 C 124.882,186.875 125.381,187.362 120.500,191.000" stroke-width="3.208" stroke="black" fill="none" stroke-linecap="round"></path><path d="M 120.500,191.000 C 116.611,195.117 116.382,194.875 112.500,199.000" stroke-width="3.268" stroke="black" fill="none" stroke-linecap="round"></path><path d="M 112.500,199.000 C 107.623,203.645 107.611,203.617 102.500,208.000" stroke-width="3.767" stroke="black" fill="none" stroke-linecap="round"></path><path d="M 102.500,208.000 C 97.500,212.000 97.623,212.145 92.500,216.000" stroke-width="3.358" stroke="black" fill="none" stroke-linecap="round"></path><path d="M 92.500,216.000 C 87.484,219.980 87.500,220.000 82.500,224.000" stroke-width="3.191" stroke="black" fill="none" stroke-linecap="round"></path><path d="M 82.500,224.000 C 72.327,232.967 71.984,232.480 61.500,241.000" stroke-width="2.402" stroke="black" fill="none" stroke-linecap="round"></path><path d="M 61.500,241.000 C 56.500,244.000 56.827,244.467 51.500,247.000" stroke-width="2.988" stroke="black" fill="none" stroke-linecap="round"></path><path d="M 51.500,247.000 C 46.694,250.403 46.500,250.000 41.500,253.000" stroke-width="3.224" stroke="black" fill="none" stroke-linecap="round"></path><path d="M 41.500,253.000 C 37.528,254.578 37.694,254.903 33.500,256.000" stroke-width="3.522" stroke="black" fill="none" stroke-linecap="round"></path><path d="M 33.500,256.000 C 29.047,257.663 29.028,257.578 24.500,259.000" stroke-width="3.583" stroke="black" fill="none" stroke-linecap="round"></path><path d="M 24.500,259.000 C 20.552,260.421 20.547,260.163 16.500,261.000" stroke-width="3.724" stroke="black" fill="none" stroke-linecap="round"></path><path d="M 16.500,261.000 C 13.500,261.000 13.552,261.421 10.500,261.000" stroke-width="3.973" stroke="black" fill="none" stroke-linecap="round"></path><path d="M 10.500,261.000 C 7.487,261.213 7.500,261.000 4.500,261.000" stroke-width="4.101" stroke="black" fill="none" stroke-linecap="round"></path><path d="M 4.500,261.000 C -0.973,262.297 0.487,260.713 -3.500,260.000" stroke-width="4.368" stroke="black" fill="none" stroke-linecap="round"></path><path d="M -3.500,260.000 C -5.637,255.603 -6.473,257.297 -6.500,251.000" stroke-width="4.369" stroke="black" fill="none" stroke-linecap="round"></path><path d="M -6.500,251.000 C -7.137,247.397 -7.137,247.603 -6.500,244.000" stroke-width="4.141" stroke="black" fill="none" stroke-linecap="round"></path><path d="M -6.500,244.000 C -5.771,239.087 -5.637,239.397 -3.500,235.000" stroke-width="3.755" stroke="black" fill="none" stroke-linecap="round"></path><path d="M -3.500,235.000 C -0.280,230.253 -0.771,230.087 3.500,226.000" stroke-width="3.413" stroke="black" fill="none" stroke-linecap="round"></path><path d="M 3.500,226.000 C 7.610,221.040 7.720,221.253 12.500,217.000" stroke-width="3.212" stroke="black" fill="none" stroke-linecap="round"></path><path d="M 12.500,217.000 C 19.080,211.314 19.110,211.540 26.500,207.000" stroke-width="2.909" stroke="black" fill="none" stroke-linecap="round"></path><path d="M 26.500,207.000 C 40.901,199.299 40.580,198.814 55.500,192.000" stroke-width="2.851" stroke="black" fill="none" stroke-linecap="round"></path><path d="M 55.500,192.000 C 62.909,188.289 62.901,188.299 70.500,185.000" stroke-width="3.424" stroke="black" fill="none" stroke-linecap="round"></path><path d="M 70.500,185.000 C 77.854,181.549 77.909,181.789 85.500,179.000" stroke-width="3.027" stroke="black" fill="none" stroke-linecap="round"></path><path d="M 85.500,179.000 C 91.435,177.166 91.354,177.049 97.500,176.000" stroke-width="3.127" stroke="black" fill="none" stroke-linecap="round"></path><path d="M 97.500,176.000 C 104.505,175.036 104.435,174.666 111.500,174.000" stroke-width="3.087" stroke="black" fill="none" stroke-linecap="round"></path><path d="M 111.500,174.000 C 118.028,173.156 118.005,173.036 124.500,172.000" stroke-width="3.146" stroke="black" fill="none" stroke-linecap="round"></path><path d="M 124.500,172.000 C 131.980,170.393 132.028,170.656 139.500,169.000" stroke-width="3.014" stroke="black" fill="none" stroke-linecap="round"></path><path d="M 139.500,169.000 C 145.617,168.471 145.480,167.893 151.500,167.000" stroke-width="3.195" stroke="black" fill="none" stroke-linecap="round"></path><path d="M 151.500,167.000 C 157.590,165.242 157.617,165.471 163.500,163.000" stroke-width="3.157" stroke="black" fill="none" stroke-linecap="round"></path><path d="M 163.500,163.000 C 172.325,160.087 172.090,159.742 180.500,156.000" stroke-width="2.824" stroke="black" fill="none" stroke-linecap="round"></path><path d="M 180.500,156.000 C 187.500,151.812 184.325,154.087 187.500,151.000" stroke-width="3.801" stroke="black" fill="none" stroke-linecap="round"></path><path d="M 187.500,151.000 C 183.660,151.315 187.500,150.312 180.500,153.000" stroke-width="4.825" stroke="black" fill="none" stroke-linecap="round"></path><path d="M 180.500,153.000 C 176.725,156.400 176.160,155.315 172.500,159.000" stroke-width="4.458" stroke="black" fill="none" stroke-linecap="round"></path><path d="M 172.500,159.000 C 169.901,159.800 170.225,160.400 167.500,161.000" stroke-width="4.702" stroke="black" fill="none" stroke-linecap="round"></path><path d="M 167.500,161.000 C 164.925,162.384 164.901,162.300 162.500,164.000" stroke-width="4.330" stroke="black" fill="none" stroke-linecap="round"></path><path d="M 162.500,164.000 C 156.663,166.837 157.425,167.384 152.500,171.000" stroke-width="4.195" stroke="black" fill="none" stroke-linecap="round"></path><path d="M 152.500,171.000 C 150.500,173.471 150.663,172.837 150.500,176.000" stroke-width="4.624" stroke="black" fill="none" stroke-linecap="round"></path><path d="M 150.500,176.000 C 150.302,180.461 150.500,178.971 152.500,182.000" stroke-width="4.898" stroke="black" fill="none" stroke-linecap="round"></path><path d="M 152.500,182.000 C 156.497,183.000 155.302,183.961 160.500,183.000" stroke-width="4.607" stroke="black" fill="none" stroke-linecap="round"></path><path d="M 160.500,183.000 C 165.536,183.734 164.997,183.000 169.500,182.000" stroke-width="4.449" stroke="black" fill="none" stroke-linecap="round"></path><path d="M 169.500,182.000 C 173.254,179.246 173.536,180.234 176.500,176.000" stroke-width="4.391" stroke="black" fill="none" stroke-linecap="round"></path><path d="M 176.500,176.000 C 179.108,173.783 178.754,173.746 180.500,171.000" stroke-width="4.625" stroke="black" fill="none" stroke-linecap="round"></path><path d="M 180.500,171.000 C 182.500,167.500 181.608,168.783 181.500,166.000" stroke-width="5.031" stroke="black" fill="none" stroke-linecap="round"></path><path d="M 181.500,166.000 C 179.030,165.195 180.500,164.500 176.500,165.000" stroke-width="4.932" stroke="black" fill="none" stroke-linecap="round"></path><path d="M 176.500,165.000 C 172.385,164.402 172.530,164.695 168.500,165.000" stroke-width="4.874" stroke="black" fill="none" stroke-linecap="round"></path><path d="M 168.500,165.000 C 165.662,165.487 165.885,165.402 163.500,167.000" stroke-width="4.436" stroke="black" fill="none" stroke-linecap="round"></path><path d="M 163.500,167.000 C 158.252,169.772 160.662,168.987 158.500,172.000" stroke-width="4.769" stroke="black" fill="none" stroke-linecap="round"></path><path d="M 158.500,172.000 C 161.225,174.908 158.752,174.272 164.500,176.000" stroke-width="5.047" stroke="black" fill="none" stroke-linecap="round"></path><path d="M 164.500,176.000 C 167.500,176.000 167.225,176.908 170.500,176.000" stroke-width="4.337" stroke="black" fill="none" stroke-linecap="round"></path><path d="M 170.500,176.000 C 174.018,176.249 174.000,176.000 177.500,176.000" stroke-width="4.545" stroke="black" fill="none" stroke-linecap="round"></path><path d="M 177.500,176.000 C 181.084,175.854 181.018,175.749 184.500,175.000" stroke-width="4.129" stroke="black" fill="none" stroke-linecap="round"></path><path d="M 184.500,175.000 C 189.492,174.456 189.084,173.854 193.500,172.000" stroke-width="3.752" stroke="black" fill="none" stroke-linecap="round"></path><path d="M 193.500,172.000 C 205.003,164.589 204.992,164.956 215.500,156.000" stroke-width="2.548" stroke="black" fill="none" stroke-linecap="round"></path><path d="M 215.500,156.000 C 221.000,150.500 221.503,151.089 226.500,145.000" stroke-width="2.753" stroke="black" fill="none" stroke-linecap="round"></path><path d="M 226.500,145.000 C 237.878,133.375 238.000,133.500 249.500,122.000" stroke-width="2.809" stroke="black" fill="none" stroke-linecap="round"></path><path d="M 249.500,122.000 C 261.568,110.570 261.378,110.375 273.500,99.000" stroke-width="2.774" stroke="black" fill="none" stroke-linecap="round"></path><path d="M 273.500,99.000 C 277.882,94.375 278.068,94.570 282.500,90.000" stroke-width="3.165" stroke="black" fill="none" stroke-linecap="round"></path><path d="M 282.500,90.000 C 287.899,85.871 287.382,85.375 292.500,81.000" stroke-width="3.088" stroke="black" fill="none" stroke-linecap="round"></path><path d="M 292.500,81.000 C 296.131,76.594 296.399,76.871 299.500,72.000" stroke-width="3.278" stroke="black" fill="none" stroke-linecap="round"></path><path d="M 299.500,72.000 C 301.565,69.041 301.631,69.094 303.500,66.000" stroke-width="3.676" stroke="black" fill="none" stroke-linecap="round"></path><path d="M 303.500,66.000 C 308.154,60.873 305.065,63.541 306.500,61.000" stroke-width="4.020" stroke="black" fill="none" stroke-linecap="round"></path><path d="M 306.500,61.000 C 297.667,62.545 301.654,61.373 290.500,67.000" stroke-width="4.534" stroke="black" fill="none" stroke-linecap="round"></path><path d="M 290.500,67.000 C 279.145,74.666 279.167,74.045 269.500,84.000" stroke-width="2.495" stroke="black" fill="none" stroke-linecap="round"></path><path d="M 269.500,84.000 C 264.462,90.471 263.645,89.666 259.500,97.000" stroke-width="2.793" stroke="black" fill="none" stroke-linecap="round"></path><path d="M 259.500,97.000 C 254.655,102.768 254.962,102.971 250.500,109.000" stroke-width="2.869" stroke="black" fill="none" stroke-linecap="round"></path><path d="M 250.500,109.000 C 246.178,116.613 245.655,116.268 241.500,124.000" stroke-width="2.801" stroke="black" fill="none" stroke-linecap="round"></path><path d="M 241.500,124.000 C 236.550,131.534 236.678,131.613 231.500,139.000" stroke-width="2.807" stroke="black" fill="none" stroke-linecap="round"></path><path d="M 231.500,139.000 C 225.216,148.657 225.050,148.534 218.500,158.000" stroke-width="2.501" stroke="black" fill="none" stroke-linecap="round"></path><path d="M 218.500,158.000 C 213.801,164.764 213.716,164.657 208.500,171.000" stroke-width="2.688" stroke="black" fill="none" stroke-linecap="round"></path><path d="M 208.500,171.000 C 204.647,174.224 205.301,174.764 201.500,178.000" stroke-width="3.195" stroke="black" fill="none" stroke-linecap="round"></path><path d="M 201.500,178.000 C 200.277,180.716 199.647,180.224 198.500,183.000" stroke-width="3.866" stroke="black" fill="none" stroke-linecap="round"></path><path d="M 198.500,183.000 C 193.343,187.434 196.777,185.216 194.500,187.000" stroke-width="4.463" stroke="black" fill="none" stroke-linecap="round"></path><path d="M 194.500,187.000 C 200.739,183.841 197.343,185.934 206.500,180.000" stroke-width="4.706" stroke="black" fill="none" stroke-linecap="round"></path><path d="M 206.500,180.000 C 209.748,177.752 209.739,177.841 212.500,175.000" stroke-width="4.017" stroke="black" fill="none" stroke-linecap="round"></path><path d="M 212.500,175.000 C 215.500,171.500 215.748,171.752 218.500,168.000" stroke-width="3.804" stroke="black" fill="none" stroke-linecap="round"></path><path d="M 218.500,168.000 C 221.500,164.500 221.500,164.500 224.500,161.000" stroke-width="3.636" stroke="black" fill="none" stroke-linecap="round"></path><path d="M 224.500,161.000 C 227.500,157.500 227.500,157.500 230.500,154.000" stroke-width="3.694" stroke="black" fill="none" stroke-linecap="round"></path><path d="M 230.500,154.000 C 233.401,150.409 233.500,150.500 236.500,147.000" stroke-width="3.661" stroke="black" fill="none" stroke-linecap="round"></path><path d="M 236.500,147.000 C 238.389,144.876 238.401,144.909 240.500,143.000" stroke-width="3.994" stroke="black" fill="none" stroke-linecap="round"></path><path d="M 240.500,143.000 C 245.303,138.015 242.889,140.876 245.500,139.000" stroke-width="4.470" stroke="black" fill="none" stroke-linecap="round"></path><path d="M 245.500,139.000 C 243.956,143.758 245.803,140.515 241.500,148.000" stroke-width="4.628" stroke="black" fill="none" stroke-linecap="round"></path><path d="M 241.500,148.000 C 238.159,153.121 238.456,153.258 234.500,158.000" stroke-width="3.519" stroke="black" fill="none" stroke-linecap="round"></path><path d="M 234.500,158.000 C 231.410,160.657 232.159,161.121 229.500,164.000" stroke-width="3.747" stroke="black" fill="none" stroke-linecap="round"></path><path d="M 229.500,164.000 C 225.660,168.919 227.410,167.657 226.500,172.000" stroke-width="4.224" stroke="black" fill="none" stroke-linecap="round"></path><path d="M 226.500,172.000 C 229.421,175.000 227.160,174.419 232.500,175.000" stroke-width="4.713" stroke="black" fill="none" stroke-linecap="round"></path><path d="M 232.500,175.000 C 236.592,173.710 236.421,175.000 240.500,172.000" stroke-width="3.990" stroke="black" fill="none" stroke-linecap="round"></path><path d="M 240.500,172.000 C 244.500,170.000 244.592,170.210 248.500,168.000" stroke-width="3.772" stroke="black" fill="none" stroke-linecap="round"></path><path d="M 248.500,168.000 C 252.500,166.000 252.500,166.000 256.500,164.000" stroke-width="3.711" stroke="black" fill="none" stroke-linecap="round"></path><path d="M 256.500,164.000 C 259.608,162.687 259.500,162.500 262.500,161.000" stroke-width="3.884" stroke="black" fill="none" stroke-linecap="round"></path><path d="M 262.500,161.000 C 268.919,156.581 265.608,159.187 268.500,157.000" stroke-width="4.369" stroke="black" fill="none" stroke-linecap="round"></path><path d="M 268.500,157.000 C 264.150,159.631 267.919,157.581 260.500,163.000" stroke-width="4.758" stroke="black" fill="none" stroke-linecap="round"></path><path d="M 260.500,163.000 C 254.430,168.358 257.650,165.631 255.500,169.000" stroke-width="4.590" stroke="black" fill="none" stroke-linecap="round"></path><path d="M 255.500,169.000 C 260.959,168.390 256.930,169.858 265.500,166.000" stroke-width="4.737" stroke="black" fill="none" stroke-linecap="round"></path><path d="M 265.500,166.000 C 269.940,162.420 270.459,163.390 274.500,159.000" stroke-width="3.810" stroke="black" fill="none" stroke-linecap="round"></path><path d="M 274.500,159.000 C 278.000,156.500 277.940,156.420 281.500,154.000" stroke-width="3.703" stroke="black" fill="none" stroke-linecap="round"></path><path d="M 281.500,154.000 C 287.976,148.738 285.000,151.500 288.500,149.000" stroke-width="4.203" stroke="black" fill="none" stroke-linecap="round"></path><path d="M 288.500,149.000 C 286.041,152.035 288.976,149.238 283.500,155.000" stroke-width="4.637" stroke="black" fill="none" stroke-linecap="round"></path><path d="M 283.500,155.000 C 276.779,162.326 277.041,162.535 270.500,170.000" stroke-width="3.788" stroke="black" fill="none" stroke-linecap="round"></path><path d="M 270.500,170.000 C 267.307,173.160 267.779,173.326 265.500,177.000" stroke-width="3.801" stroke="black" fill="none" stroke-linecap="round"></path><path d="M 265.500,177.000 C 262.811,182.018 263.307,181.660 262.500,187.000" stroke-width="4.099" stroke="black" fill="none" stroke-linecap="round"></path><path d="M 262.500,187.000 C 262.292,191.675 262.311,190.018 264.500,193.000" stroke-width="4.693" stroke="black" fill="none" stroke-linecap="round"></path><path d="M 264.500,193.000 C 268.519,193.265 267.292,194.675 272.500,193.000" stroke-width="4.576" stroke="black" fill="none" stroke-linecap="round"></path><path d="M 272.500,193.000 C 276.342,193.353 276.019,192.765 279.500,192.000" stroke-width="4.136" stroke="black" fill="none" stroke-linecap="round"></path><path d="M 279.500,192.000 C 283.060,189.580 283.342,190.353 286.500,187.000" stroke-width="3.847" stroke="black" fill="none" stroke-linecap="round"></path><path d="M 286.500,187.000 C 291.070,183.586 291.060,183.580 295.500,180.000" stroke-width="3.435" stroke="black" fill="none" stroke-linecap="round"></path><path d="M 295.500,180.000 C 301.402,174.878 301.570,175.086 307.500,170.000" stroke-width="3.127" stroke="black" fill="none" stroke-linecap="round"></path><path d="M 307.500,170.000 C 314.371,165.422 313.902,164.878 320.500,160.000" stroke-width="2.937" stroke="black" fill="none" stroke-linecap="round"></path><path d="M 320.500,160.000 C 327.249,153.732 327.371,153.922 333.500,147.000" stroke-width="2.769" stroke="black" fill="none" stroke-linecap="round"></path><path d="M 333.500,147.000 C 340.148,139.623 340.249,139.732 346.500,132.000" stroke-width="2.645" stroke="black" fill="none" stroke-linecap="round"></path><path d="M 346.500,132.000 C 352.621,124.594 352.648,124.623 358.500,117.000" stroke-width="2.582" stroke="black" fill="none" stroke-linecap="round"></path><path d="M 358.500,117.000 C 364.256,108.805 364.621,109.094 370.500,101.000" stroke-width="2.524" stroke="black" fill="none" stroke-linecap="round"></path><path d="M 370.500,101.000 C 376.623,94.102 376.256,93.805 382.500,87.000" stroke-width="2.644" stroke="black" fill="none" stroke-linecap="round"></path><path d="M 382.500,87.000 C 388.433,79.446 388.623,79.602 394.500,72.000" stroke-width="2.642" stroke="black" fill="none" stroke-linecap="round"></path><path d="M 394.500,72.000 C 399.729,66.175 399.433,65.946 404.500,60.000" stroke-width="2.782" stroke="black" fill="none" stroke-linecap="round"></path><path d="M 404.500,60.000 C 408.054,55.037 408.229,55.175 411.500,50.000" stroke-width="3.109" stroke="black" fill="none" stroke-linecap="round"></path><path d="M 411.500,50.000 C 414.336,45.381 414.554,45.537 417.500,41.000" stroke-width="3.332" stroke="black" fill="none" stroke-linecap="round"></path><path d="M 417.500,41.000 C 425.882,33.382 420.836,36.381 424.500,32.000" stroke-width="3.864" stroke="black" fill="none" stroke-linecap="round"></path><path d="M 424.500,32.000 C 417.211,31.925 422.882,30.382 411.500,35.000" stroke-width="4.408" stroke="black" fill="none" stroke-linecap="round"></path><path d="M 411.500,35.000 C 404.751,40.230 404.211,38.925 398.500,46.000" stroke-width="3.223" stroke="black" fill="none" stroke-linecap="round"></path><path d="M 398.500,46.000 C 391.306,51.931 391.751,52.230 385.500,59.000" stroke-width="2.840" stroke="black" fill="none" stroke-linecap="round"></path><path d="M 385.500,59.000 C 380.374,66.419 379.806,65.931 375.500,74.000" stroke-width="2.701" stroke="black" fill="none" stroke-linecap="round"></path><path d="M 375.500,74.000 C 371.203,80.335 371.374,80.419 367.500,87.000" stroke-width="2.880" stroke="black" fill="none" stroke-linecap="round"></path><path d="M 367.500,87.000 C 363.794,93.905 363.703,93.835 360.500,101.000" stroke-width="2.914" stroke="black" fill="none" stroke-linecap="round"></path><path d="M 360.500,101.000 C 357.528,108.012 357.294,107.905 354.500,115.000" stroke-width="2.891" stroke="black" fill="none" stroke-linecap="round"></path><path d="M 354.500,115.000 C 351.307,123.148 351.028,123.012 347.500,131.000" stroke-width="2.747" stroke="black" fill="none" stroke-linecap="round"></path><path d="M 347.500,131.000 C 343.105,139.557 343.307,139.648 338.500,148.000" stroke-width="2.670" stroke="black" fill="none" stroke-linecap="round"></path><path d="M 338.500,148.000 C 334.305,156.192 334.105,156.057 329.500,164.000" stroke-width="2.694" stroke="black" fill="none" stroke-linecap="round"></path><path d="M 329.500,164.000 C 325.622,168.796 326.305,169.192 322.500,174.000" stroke-width="3.076" stroke="black" fill="none" stroke-linecap="round"></path><path d="M 322.500,174.000 C 319.104,177.953 321.122,176.296 320.500,179.000" stroke-width="3.790" stroke="black" fill="none" stroke-linecap="round"></path><path d="M 320.500,179.000 C 325.673,180.724 323.104,180.953 330.500,180.000" stroke-width="4.625" stroke="black" fill="none" stroke-linecap="round"></path><path d="M 330.500,180.000 C 335.380,177.646 335.673,179.224 340.500,176.000" stroke-width="3.662" stroke="black" fill="none" stroke-linecap="round"></path><path d="M 340.500,176.000 C 349.535,173.615 349.380,173.146 358.500,171.000" stroke-width="3.640" stroke="black" fill="none" stroke-linecap="round"></path><path d="M 358.500,171.000 C 361.423,169.659 361.535,170.115 364.500,169.000" stroke-width="3.991" stroke="black" fill="none" stroke-linecap="round"></path><path d="M 364.500,169.000 C 371.325,167.119 368.423,168.159 372.500,168.000" stroke-width="4.364" stroke="black" fill="none" stroke-linecap="round"></path><path d="M 372.500,168.000 C 370.842,170.438 373.325,168.619 368.500,172.000" stroke-width="4.632" stroke="black" fill="none" stroke-linecap="round"></path><path d="M 368.500,172.000 C 358.672,178.304 358.842,178.438 348.500,184.000" stroke-width="2.778" stroke="black" fill="none" stroke-linecap="round"></path><path d="M 348.500,184.000 C 333.793,192.590 333.672,192.304 318.500,200.000" stroke-width="2.078" stroke="black" fill="none" stroke-linecap="round"></path><path d="M 318.500,200.000 C 285.569,216.972 285.293,216.090 251.500,231.000" stroke-width="1.855" stroke="black" fill="none" stroke-linecap="round"></path><path d="M 251.500,231.000 C 234.230,237.425 234.569,237.972 216.500,242.000" stroke-width="1.750" stroke="black" fill="none" stroke-linecap="round"></path><path d="M 216.500,242.000 C 203.095,245.238 203.230,245.425 189.500,247.000" stroke-width="1.963" stroke="black" fill="none" stroke-linecap="round"></path><path d="M 189.500,247.000 C 176.017,248.459 176.095,248.738 162.500,249.000" stroke-width="2.636" stroke="black" fill="none" stroke-linecap="round"></path><path d="M 162.500,249.000 C 150.994,249.261 151.017,249.459 139.500,249.000" stroke-width="2.517" stroke="black" fill="none" stroke-linecap="round"></path><path d="M 139.500,249.000 C 128.325,250.729 128.994,248.761 118.500,248.000" stroke-width="2.456" stroke="black" fill="none" stroke-linecap="round"></path><path d="M 118.500,248.000 C 110.431,244.258 110.325,245.729 103.500,239.000" stroke-width="2.669" stroke="black" fill="none" stroke-linecap="round"></path><path d="M 103.500,239.000 C 94.737,233.742 95.931,233.258 89.500,226.000" stroke-width="2.595" stroke="black" fill="none" stroke-linecap="round"></path><path d="M 89.500,226.000 C 83.165,215.925 83.237,216.742 80.500,205.000" stroke-width="2.455" stroke="black" fill="none" stroke-linecap="round"></path><path d="M 80.500,205.000 C 79.500,195.001 78.165,195.425 79.500,185.000" stroke-width="2.543" stroke="black" fill="none" stroke-linecap="round"></path><path d="M 79.500,185.000 C 77.666,173.393 79.500,174.001 80.500,163.000" stroke-width="2.478" stroke="black" fill="none" stroke-linecap="round"></path><path d="M 80.500,163.000 C 83.399,150.001 83.666,151.393 91.500,141.000" stroke-width="2.289" stroke="black" fill="none" stroke-linecap="round"></path><path d="M 91.500,141.000 C 111.111,119.003 110.399,120.001 134.500,103.000" stroke-width="1.533" stroke="black" fill="none" stroke-linecap="round"></path><path d="M 134.500,103.000 C 150.630,94.954 149.111,93.003 167.500,89.000" stroke-width="1.670" stroke="black" fill="none" stroke-linecap="round"></path><path d="M 167.500,89.000 C 184.805,83.178 184.630,82.954 202.500,79.000" stroke-width="1.753" stroke="black" fill="none" stroke-linecap="round"></path><path d="M 202.500,79.000 C 220.891,74.766 220.805,74.678 239.500,72.000" stroke-width="1.699" stroke="black" fill="none" stroke-linecap="round"></path><path d="M 239.500,72.000 C 257.950,69.253 257.891,69.266 276.500,68.000" stroke-width="1.744" stroke="black" fill="none" stroke-linecap="round"></path><path d="M 276.500,68.000 C 294.996,67.191 294.950,66.753 313.500,67.000" stroke-width="2.293" stroke="black" fill="none" stroke-linecap="round"></path><path d="M 313.500,67.000 C 343.776,64.851 343.496,66.691 373.500,67.000" stroke-width="1.385" stroke="black" fill="none" stroke-linecap="round"></path><path d="M 373.500,67.000 C 385.225,69.343 385.276,67.851 396.500,73.000" stroke-width="1.979" stroke="black" fill="none" stroke-linecap="round"></path><path d="M 396.500,73.000 C 405.183,74.215 403.725,75.343 410.500,79.000" stroke-width="2.999" stroke="black" fill="none" stroke-linecap="round"></path><path d="M 410.500,79.000 C 418.081,85.663 415.183,83.215 416.500,91.000" stroke-width="3.041" stroke="black" fill="none" stroke-linecap="round"></path><path d="M 416.500,91.000 C 410.674,99.958 414.081,99.163 402.500,106.000" stroke-width="2.679" stroke="black" fill="none" stroke-linecap="round"></path><path d="M 402.500,106.000 C 387.143,116.803 387.674,116.958 370.500,125.000" stroke-width="2.025" stroke="black" fill="none" stroke-linecap="round"></path><path d="M 370.500,125.000 C 353.445,133.440 353.643,133.303 335.500,139.000" stroke-width="1.823" stroke="black" fill="none" stroke-linecap="round"></path><path d="M 335.500,139.000 C 317.643,143.813 317.945,144.440 299.500,147.000" stroke-width="1.737" stroke="black" fill="none" stroke-linecap="round"></path><path d="M 299.500,147.000 C 280.570,150.266 280.643,150.313 261.500,152.000" stroke-width="1.680" stroke="black" fill="none" stroke-linecap="round"></path><path d="M 261.500,152.000 C 242.012,153.473 242.070,153.766 222.500,154.000" stroke-width="1.745" stroke="black" fill="none" stroke-linecap="round"></path><path d="M 222.500,154.000 C 205.000,154.000 205.012,154.473 187.500,154.000" stroke-width="1.759" stroke="black" fill="none" stroke-linecap="round"></path><path d="M 187.500,154.000 C 173.847,155.362 174.000,154.000 160.500,154.000" stroke-width="2.030" stroke="black" fill="none" stroke-linecap="round"></path><path d="M 160.500,154.000 C 149.320,152.091 149.347,152.862 138.500,149.000" stroke-width="2.234" stroke="black" fill="none" stroke-linecap="round"></path><path d="M 138.500,149.000 C 131.404,147.418 131.820,147.091 125.500,144.000" stroke-width="2.772" stroke="black" fill="none" stroke-linecap="round"></path><path d="M 125.500,144.000 C 121.144,141.698 121.904,141.918 119.500,138.000" stroke-width="3.348" stroke="black" fill="none" stroke-linecap="round"></path><path d="M 384.500,175.000 C 388.984,175.785 389.000,175.500 393.500,176.000" stroke-width="5.192" stroke="black" fill="none" stroke-linecap="round"></path><path d="M 393.500,176.000 C 399.559,176.637 399.484,176.285 405.500,176.000" stroke-width="3.703" stroke="black" fill="none" stroke-linecap="round"></path><path d="M 405.500,176.000 C 413.637,175.029 413.559,175.137 421.500,173.000" stroke-width="3.011" stroke="black" fill="none" stroke-linecap="round"></path><path d="M 421.500,173.000 C 428.931,170.271 429.137,171.029 436.500,168.000" stroke-width="2.943" stroke="black" fill="none" stroke-linecap="round"></path><path d="M 436.500,168.000 C 444.026,166.093 443.931,165.771 451.500,164.000" stroke-width="2.881" stroke="black" fill="none" stroke-linecap="round"></path><path d="M 451.500,164.000 C 456.552,162.649 456.526,162.593 461.500,161.000" stroke-width="3.228" stroke="black" fill="none" stroke-linecap="round"></path><path d="M 461.500,161.000 C 467.445,158.685 464.052,160.149 466.500,159.000" stroke-width="3.857" stroke="black" fill="none" stroke-linecap="round"></path><path d="M 466.500,159.000 C 460.720,160.390 464.445,159.685 455.500,163.000" stroke-width="4.300" stroke="black" fill="none" stroke-linecap="round"></path><path d="M 455.500,163.000 C 442.760,169.644 442.720,169.390 430.500,177.000" stroke-width="3.410" stroke="black" fill="none" stroke-linecap="round"></path><path d="M 430.500,177.000 C 427.170,178.495 427.760,178.644 425.500,181.000" stroke-width="3.814" stroke="black" fill="none" stroke-linecap="round"></path><path d="M 425.500,181.000 C 422.810,185.296 424.170,182.995 424.500,186.000" stroke-width="4.498" stroke="black" fill="none" stroke-linecap="round"></path><path d="M 424.500,186.000 C 431.210,187.295 428.810,187.796 437.500,186.000" stroke-width="3.493" stroke="black" fill="none" stroke-linecap="round"></path><path d="M 437.500,186.000 C 447.976,182.426 448.210,183.795 458.500,179.000" stroke-width="2.685" stroke="black" fill="none" stroke-linecap="round"></path><path d="M 458.500,179.000 C 469.414,175.203 469.476,175.426 480.500,172.000" stroke-width="2.468" stroke="black" fill="none" stroke-linecap="round"></path><path d="M 480.500,172.000 C 491.957,168.822 491.914,168.703 503.500,166.000" stroke-width="2.381" stroke="black" fill="none" stroke-linecap="round"></path><path d="M 503.500,166.000 C 514.463,163.323 514.457,163.322 525.500,161.000" stroke-width="2.348" stroke="black" fill="none" stroke-linecap="round"></path><path d="M 525.500,161.000 C 533.442,159.040 533.463,159.323 541.500,158.000" stroke-width="2.693" stroke="black" fill="none" stroke-linecap="round"></path><path d="M 541.500,158.000 C 548.993,157.289 548.942,157.040 556.500,157.000" stroke-width="2.835" stroke="black" fill="none" stroke-linecap="round"></path><path d="M 556.500,157.000 C 562.000,157.000 561.993,156.789 567.500,157.000" stroke-width="3.166" stroke="black" fill="none" stroke-linecap="round"></path><path d="M 567.500,157.000 C 572.000,157.000 572.000,157.000 576.500,157.000" stroke-width="3.508" stroke="black" fill="none" stroke-linecap="round"></path><path d="M 576.500,157.000 C 579.527,156.730 579.500,157.000 582.500,157.000" stroke-width="3.939" stroke="black" fill="none" stroke-linecap="round"></path><path d="M 582.500,157.000 C 585.045,157.330 585.027,157.230 587.500,158.000" stroke-width="4.203" stroke="black" fill="none" stroke-linecap="round"></path><path d="M 587.500,158.000 C 594.272,159.421 590.545,158.830 593.500,160.000" stroke-width="4.537" stroke="black" fill="none" stroke-linecap="round"></path><path d="M 593.500,160.000 C 588.488,160.401 592.272,160.921 583.500,161.000" stroke-width="4.924" stroke="black" fill="none" stroke-linecap="round"></path><path d="M 583.500,161.000 C 575.990,161.930 575.988,161.901 568.500,163.000" stroke-width="3.300" stroke="black" fill="none" stroke-linecap="round"></path><path d="M 568.500,163.000 C 547.998,165.986 547.990,165.930 527.500,169.000" stroke-width="2.691" stroke="black" fill="none" stroke-linecap="round"></path><path d="M 527.500,169.000 C 514.053,171.445 513.998,170.986 500.500,173.000" stroke-width="3.003" stroke="black" fill="none" stroke-linecap="round"></path><path d="M 500.500,173.000 C 483.535,175.045 483.553,174.945 466.500,176.000" stroke-width="2.109" stroke="black" fill="none" stroke-linecap="round"></path><path d="M 466.500,176.000 C 429.968,176.993 430.035,178.045 393.500,179.000" stroke-width="1.198" stroke="black" fill="none" stroke-linecap="round"></path><path d="M 393.500,179.000 C 375.437,179.950 375.468,179.993 357.500,182.000" stroke-width="1.564" stroke="black" fill="none" stroke-linecap="round"></path><path d="M 357.500,182.000 C 340.325,183.635 340.437,183.950 323.500,187.000" stroke-width="1.761" stroke="black" fill="none" stroke-linecap="round"></path><path d="M 323.500,187.000 C 307.962,190.858 307.825,190.135 292.500,195.000" stroke-width="1.890" stroke="black" fill="none" stroke-linecap="round"></path><path d="M 292.500,195.000 C 280.101,198.920 279.962,198.358 267.500,202.000" stroke-width="2.113" stroke="black" fill="none" stroke-linecap="round"></path></svg>