<svg xmlns="http://www.w3.org/2000/svg" xmlns:xlink="http://www.w3.org/1999/xlink" viewBox="0 0 621 330" width="621" height="330"><path d="M 126.500,211.000 C 123.903,210.201 124.000,210.000 121.500,209.000" stroke-width="5.419" stroke="black" fill="none" stroke-linecap="round"></path><path d="M 121.500,209.000 C 118.056,206.896 117.903,207.201 114.500,205.000" stroke-width="4.849" stroke="black" fill="none" stroke-linecap="round"></path><path d="M 114.500,205.000 C 110.545,202.904 110.556,202.896 106.500,201.000" stroke-width="4.545" stroke="black" fill="none" stroke-linecap="round"></path><path d="M 106.500,201.000 C 102.112,198.647 102.045,198.904 97.500,197.000" stroke-width="4.371" stroke="black" fill="none" stroke-linecap="round"></path><path d="M 97.500,197.000 C 94.932,196.730 95.112,196.147 92.500,196.000" stroke-width="4.340" stroke="black" fill="none" stroke-linecap="round"></path><path d="M 92.500,196.000 C 89.903,195.201 89.932,195.230 87.500,194.000" stroke-width="4.292" stroke="black" fill="none" stroke-linecap="round"></path><path d="M 87.500,194.000 C 83.844,192.229 83.903,192.201 80.500,190.000" stroke-width="4.467" stroke="black" fill="none" stroke-linecap="round"></path><path d="M 80.500,190.000 C 76.023,188.355 77.844,188.229 75.500,186.000" stroke-width="4.650" stroke="black" fill="none" stroke-linecap="round"></path><path d="M 75.500,186.000 C 76.366,182.600 75.023,183.855 78.500,181.000" stroke-width="5.118" stroke="black" fill="none" stroke-linecap="round"></path><path d="M 78.500,181.000 C 81.094,180.802 80.366,179.600 83.500,180.000" stroke-width="4.538" stroke="black" fill="none" stroke-linecap="round"></path><path d="M 83.500,180.000 C 86.899,178.200 87.094,178.802 90.500,177.000" stroke-width="4.060" stroke="black" fill="none" stroke-linecap="round"></path><path d="M 90.500,177.000 C 94.662,176.439 94.399,175.700 98.500,175.000" stroke-width="3.810" stroke="black" fill="none" stroke-linecap="round"></path><path d="M 98.500,175.000 C 102.417,172.815 102.662,173.439 106.500,171.000" stroke-width="3.773" stroke="black" fill="none" stroke-linecap="round"></path><path d="M 106.500,171.000 C 111.583,169.185 111.417,168.815 116.500,167.000" stroke-width="3.536" stroke="black" fill="none" stroke-linecap="round"></path><path d="M 116.500,167.000 C 120.459,164.914 120.583,165.185 124.500,163.000" stroke-width="3.586" stroke="black" fill="none" stroke-linecap="round"></path><path d="M 124.500,163.000 C 130.102,160.699 129.959,160.414 135.500,158.000" stroke-width="3.310" stroke="black" fill="none" stroke-linecap="round"></path><path d="M 135.500,158.000 C 138.944,155.896 139.102,156.199 142.500,154.000" stroke-width="3.693" stroke="black" fill="none" stroke-linecap="round"></path><path d="M 142.500,154.000 C 146.500,152.000 146.444,151.896 150.500,150.000" stroke-width="3.633" stroke="black" fill="none" stroke-linecap="round"></path><path d="M 150.500,150.000 C 154.556,148.104 154.500,148.000 158.500,146.000" stroke-width="3.670" stroke="black" fill="none" stroke-linecap="round"></path><path d="M 158.500,146.000 C 162.198,144.286 162.056,144.104 165.500,142.000" stroke-width="3.719" stroke="black" fill="none" stroke-linecap="round"></path><path d="M 165.500,142.000 C 168.272,139.152 168.698,139.786 171.500,137.000" stroke-width="3.813" stroke="black" fill="none" stroke-linecap="round"></path><path d="M 171.500,137.000 C 174.686,135.791 174.272,135.152 177.500,134.000" stroke-width="3.965" stroke="black" fill="none" stroke-linecap="round"></path><path d="M 177.500,134.000 C 180.111,132.124 180.186,132.291 182.500,130.000" stroke-width="4.049" stroke="black" fill="none" stroke-linecap="round"></path><path d="M 182.500,130.000 C 184.500,128.000 184.611,128.124 186.500,126.000" stroke-width="4.123" stroke="black" fill="none" stroke-linecap="round"></path><path d="M 186.500,126.000 C 191.611,120.296 189.500,123.000 192.500,120.000" stroke-width="4.363" stroke="black" fill="none" stroke-linecap="round"></path><path d="M 192.500,120.000 C 190.969,122.482 193.111,119.796 189.500,125.000" stroke-width="5.011" stroke="black" fill="none" stroke-linecap="round"></path><path d="M 189.500,125.000 C 187.574,128.544 187.469,128.482 185.500,132.000" stroke-width="4.166" stroke="black" fill="none" stroke-linecap="round"></path><path d="M 185.500,132.000 C 183.116,136.077 183.074,136.044 180.500,140.000" stroke-width="3.766" stroke="black" fill="none" stroke-linecap="round"></path><path d="M 180.500,140.000 C 177.000,145.000 177.116,145.077 173.500,150.000" stroke-width="3.344" stroke="black" fill="none" stroke-linecap="round"></path><path d="M 173.500,150.000 C 170.160,155.120 170.000,155.000 166.500,160.000" stroke-width="3.350" stroke="black" fill="none" stroke-linecap="round"></path><path d="M 166.500,160.000 C 162.645,165.123 162.660,165.120 158.500,170.000" stroke-width="3.189" stroke="black" fill="none" stroke-linecap="round"></path><path d="M 158.500,170.000 C 154.000,175.000 154.145,175.123 149.500,180.000" stroke-width="3.210" stroke="black" fill="none" stroke-linecap="round"></path><path d="M 149.500,180.000 C 145.117,185.111 145.000,185.000 140.500,190.000" stroke-width="3.161" stroke="black" fill="none" stroke-linecap="round"></path><path d="M 140.500,190.000 C 136.375,193.882 136.617,194.111 132.500,198.000" stroke-width="3.309" stroke="black" fill="none" stroke-linecap="round"></path><path d="M 132.500,198.000 C 128.625,202.618 128.375,202.382 124.500,207.000" stroke-width="3.239" stroke="black" fill="none" stroke-linecap="round"></path><path d="M 124.500,207.000 C 120.375,210.882 120.625,211.118 116.500,215.000" stroke-width="3.335" stroke="black" fill="none" stroke-linecap="round"></path><path d="M 116.500,215.000 C 112.500,219.500 112.375,219.382 108.500,224.000" stroke-width="3.246" stroke="black" fill="none" stroke-linecap="round"></path><path d="M 108.500,224.000 C 100.816,233.322 100.500,233.000 92.500,242.000" stroke-width="3.250" stroke="black" fill="none" stroke-linecap="round"></path><path d="M 92.500,242.000 C 88.876,244.866 89.316,245.322 85.500,248.000" stroke-width="3.518" stroke="black" fill="none" stroke-linecap="round"></path><path d="M 85.500,248.000 C 82.241,251.769 81.876,251.366 78.500,255.000" stroke-width="3.488" stroke="black" fill="none" stroke-linecap="round"></path><path d="M 78.500,255.000 C 71.212,261.300 71.241,261.269 63.500,267.000" stroke-width="3.535" stroke="black" fill="none" stroke-linecap="round"></path><path d="M 63.500,267.000 C 59.467,269.450 59.712,269.800 55.500,272.000" stroke-width="3.592" stroke="black" fill="none" stroke-linecap="round"></path><path d="M 55.500,272.000 C 52.661,274.298 52.467,273.950 49.500,276.000" stroke-width="3.787" stroke="black" fill="none" stroke-linecap="round"></path><path d="M 49.500,276.000 C 46.134,277.910 46.161,277.798 42.500,279.000" stroke-width="4.319" stroke="black" fill="none" stroke-linecap="round"></path><path d="M 42.500,279.000 C 36.025,280.626 36.134,280.910 29.500,282.000" stroke-width="3.495" stroke="black" fill="none" stroke-linecap="round"></path><path d="M 29.500,282.000 C 26.527,282.822 26.525,282.626 23.500,283.000" stroke-width="3.882" stroke="black" fill="none" stroke-linecap="round"></path><path d="M 23.500,283.000 C 17.916,283.602 18.027,283.322 12.500,283.000" stroke-width="4.112" stroke="black" fill="none" stroke-linecap="round"></path><path d="M 12.500,283.000 C 7.908,283.140 8.916,282.602 5.500,281.000" stroke-width="4.430" stroke="black" fill="none" stroke-linecap="round"></path><path d="M 5.500,281.000 C 3.500,278.071 3.408,279.140 3.500,275.000" stroke-width="4.629" stroke="black" fill="none" stroke-linecap="round"></path><path d="M 3.500,275.000 C 3.308,268.933 3.500,269.571 5.500,264.000" stroke-width="4.321" stroke="black" fill="none" stroke-linecap="round"></path><path d="M 5.500,264.000 C 8.357,260.368 7.308,259.933 11.500,257.000" stroke-width="3.933" stroke="black" fill="none" stroke-linecap="round"></path><path d="M 11.500,257.000 C 15.278,252.752 15.357,252.868 19.500,249.000" stroke-width="3.464" stroke="black" fill="none" stroke-linecap="round"></path><path d="M 19.500,249.000 C 24.297,244.716 24.278,244.752 29.500,241.000" stroke-width="3.877" stroke="black" fill="none" stroke-linecap="round"></path><path d="M 29.500,241.000 C 34.748,237.045 34.797,237.216 40.500,234.000" stroke-width="3.298" stroke="black" fill="none" stroke-linecap="round"></path><path d="M 40.500,234.000 C 51.684,227.595 51.748,228.045 63.500,223.000" stroke-width="2.487" stroke="black" fill="none" stroke-linecap="round"></path><path d="M 63.500,223.000 C 69.962,221.308 69.684,220.595 76.500,220.000" stroke-width="2.965" stroke="black" fill="none" stroke-linecap="round"></path><path d="M 76.500,220.000 C 82.488,218.925 82.462,218.808 88.500,218.000" stroke-width="3.123" stroke="black" fill="none" stroke-linecap="round"></path><path d="M 88.500,218.000 C 95.527,217.162 95.488,216.925 102.500,216.000" stroke-width="3.026" stroke="black" fill="none" stroke-linecap="round"></path><path d="M 102.500,216.000 C 110.622,214.970 110.527,214.662 118.500,213.000" stroke-width="2.975" stroke="black" fill="none" stroke-linecap="round"></path><path d="M 118.500,213.000 C 124.582,211.219 124.622,211.470 130.500,209.000" stroke-width="3.090" stroke="black" fill="none" stroke-linecap="round"></path><path d="M 130.500,209.000 C 136.418,206.281 136.582,206.719 142.500,204.000" stroke-width="3.099" stroke="black" fill="none" stroke-linecap="round"></path><path d="M 142.500,204.000 C 148.661,202.389 148.418,201.781 154.500,200.000" stroke-width="3.718" stroke="black" fill="none" stroke-linecap="round"></path><path d="M 154.500,200.000 C 159.399,197.267 159.661,197.889 164.500,195.000" stroke-width="3.424" stroke="black" fill="none" stroke-linecap="round"></path><path d="M 164.500,195.000 C 168.579,193.681 168.399,193.267 172.500,192.000" stroke-width="3.688" stroke="black" fill="none" stroke-linecap="round"></path><path d="M 172.500,192.000 C 175.412,190.287 175.579,190.681 178.500,189.000" stroke-width="3.877" stroke="black" fill="none" stroke-linecap="round"></path><path d="M 178.500,189.000 C 181.529,188.080 181.412,187.787 184.500,187.000" stroke-width="4.030" stroke="black" fill="none" stroke-linecap="round"></path><path d="M 184.500,187.000 C 190.475,185.000 187.029,186.080 189.500,185.000" stroke-width="4.196" stroke="black" fill="none" stroke-linecap="round"></path><path d="M 189.500,185.000 C 183.951,185.789 187.475,185.000 178.500,187.000" stroke-width="4.765" stroke="black" fill="none" stroke-linecap="round"></path><path d="M 178.500,187.000 C 174.865,187.654 174.951,187.789 171.500,189.000" stroke-width="4.098" stroke="black" fill="none" stroke-linecap="round"></path><path d="M 171.500,189.000 C 167.592,191.210 167.365,190.654 163.500,193.000" stroke-width="3.800" stroke="black" fill="none" stroke-linecap="round"></path><path d="M 163.500,193.000 C 159.261,194.021 159.592,194.710 155.500,196.000" stroke-width="4.262" stroke="black" fill="none" stroke-linecap="round"></path><path d="M 155.500,196.000 C 149.530,198.976 149.761,199.021 144.500,203.000" stroke-width="3.376" stroke="black" fill="none" stroke-linecap="round"></path><path d="M 144.500,203.000 C 141.991,205.204 142.030,204.976 140.500,208.000" stroke-width="3.882" stroke="black" fill="none" stroke-linecap="round"></path><path d="M 140.500,208.000 C 136.824,213.134 137.991,212.704 136.500,218.000" stroke-width="4.355" stroke="black" fill="none" stroke-linecap="round"></path><path d="M 136.500,218.000 C 137.172,221.504 136.324,220.634 139.500,223.000" stroke-width="4.658" stroke="black" fill="none" stroke-linecap="round"></path><path d="M 139.500,223.000 C 144.857,225.812 144.172,226.004 150.500,227.000" stroke-width="4.339" stroke="black" fill="none" stroke-linecap="round"></path><path d="M 150.500,227.000 C 154.500,227.000 154.357,227.812 158.500,227.000" stroke-width="3.909" stroke="black" fill="none" stroke-linecap="round"></path><path d="M 158.500,227.000 C 162.000,227.000 162.000,227.000 165.500,227.000" stroke-width="3.962" stroke="black" fill="none" stroke-linecap="round"></path><path d="M 165.500,227.000 C 169.227,227.818 169.000,227.000 172.500,227.000" stroke-width="3.872" stroke="black" fill="none" stroke-linecap="round"></path><path d="M 172.500,227.000 C 174.942,225.395 175.227,226.318 177.500,224.000" stroke-width="4.128" stroke="black" fill="none" stroke-linecap="round"></path><path d="M 177.500,224.000 C 180.822,222.947 180.442,222.395 183.500,221.000" stroke-width="4.011" stroke="black" fill="none" stroke-linecap="round"></path><path d="M 183.500,221.000 C 186.513,218.870 186.322,218.947 188.500,216.000" stroke-width="4.030" stroke="black" fill="none" stroke-linecap="round"></path><path d="M 188.500,216.000 C 191.607,212.166 191.013,212.370 192.500,208.000" stroke-width="4.299" stroke="black" fill="none" stroke-linecap="round"></path><path d="M 192.500,208.000 C 193.360,203.395 193.107,205.166 191.500,202.000" stroke-width="4.776" stroke="black" fill="none" stroke-linecap="round"></path><path d="M 191.500,202.000 C 188.000,202.000 189.360,200.395 184.500,202.000" stroke-width="4.681" stroke="black" fill="none" stroke-linecap="round"></path><path d="M 184.500,202.000 C 180.260,201.132 180.500,202.000 176.500,202.000" stroke-width="4.553" stroke="black" fill="none" stroke-linecap="round"></path><path d="M 176.500,202.000 C 173.724,203.147 173.760,202.632 171.500,205.000" stroke-width="4.291" stroke="black" fill="none" stroke-linecap="round"></path><path d="M 171.500,205.000 C 167.840,208.357 167.724,208.147 164.500,212.000" stroke-width="4.295" stroke="black" fill="none" stroke-linecap="round"></path><path d="M 164.500,212.000 C 161.043,214.284 162.340,214.357 160.500,217.000" stroke-width="4.620" stroke="black" fill="none" stroke-linecap="round"></path><path d="M 160.500,217.000 C 160.400,221.125 160.043,219.284 162.500,222.000" stroke-width="5.062" stroke="black" fill="none" stroke-linecap="round"></path><path d="M 162.500,222.000 C 167.521,222.293 166.400,223.625 172.500,222.000" stroke-width="4.516" stroke="black" fill="none" stroke-linecap="round"></path><path d="M 172.500,222.000 C 176.229,222.168 176.021,221.793 179.500,221.000" stroke-width="4.171" stroke="black" fill="none" stroke-linecap="round"></path><path d="M 179.500,221.000 C 182.944,218.896 183.229,219.668 186.500,217.000" stroke-width="3.916" stroke="black" fill="none" stroke-linecap="round"></path><path d="M 186.500,217.000 C 190.723,215.361 190.444,214.896 194.500,213.000" stroke-width="3.695" stroke="black" fill="none" stroke-linecap="round"></path><path d="M 194.500,213.000 C 198.417,209.882 198.723,210.361 202.500,207.000" stroke-width="3.528" stroke="black" fill="none" stroke-linecap="round"></path><path d="M 202.500,207.000 C 207.213,204.278 206.917,203.882 211.500,201.000" stroke-width="3.518" stroke="black" fill="none" stroke-linecap="round"></path><path d="M 211.500,201.000 C 215.500,197.500 215.713,197.778 219.500,194.000" stroke-width="3.478" stroke="black" fill="none" stroke-linecap="round"></path><path d="M 219.500,194.000 C 223.399,190.377 223.500,190.500 227.500,187.000" stroke-width="3.466" stroke="black" fill="none" stroke-linecap="round"></path><path d="M 227.500,187.000 C 232.200,183.727 231.899,183.377 236.500,180.000" stroke-width="3.396" stroke="black" fill="none" stroke-linecap="round"></path><path d="M 236.500,180.000 C 239.606,177.100 239.700,177.227 242.500,174.000" stroke-width="3.587" stroke="black" fill="none" stroke-linecap="round"></path><path d="M 242.500,174.000 C 246.648,169.623 246.606,169.600 250.500,165.000" stroke-width="3.314" stroke="black" fill="none" stroke-linecap="round"></path><path d="M 250.500,165.000 C 254.037,160.528 254.148,160.623 257.500,156.000" stroke-width="3.351" stroke="black" fill="none" stroke-linecap="round"></path><path d="M 257.500,156.000 C 260.543,152.032 260.537,152.028 263.500,148.000" stroke-width="3.482" stroke="black" fill="none" stroke-linecap="round"></path><path d="M 263.500,148.000 C 265.957,144.468 266.043,144.532 268.500,141.000" stroke-width="3.655" stroke="black" fill="none" stroke-linecap="round"></path><path d="M 268.500,141.000 C 271.670,137.117 271.457,136.968 274.500,133.000" stroke-width="3.575" stroke="black" fill="none" stroke-linecap="round"></path><path d="M 274.500,133.000 C 277.162,129.091 277.170,129.117 279.500,125.000" stroke-width="3.549" stroke="black" fill="none" stroke-linecap="round"></path><path d="M 279.500,125.000 C 280.895,121.942 281.162,122.091 282.500,119.000" stroke-width="3.875" stroke="black" fill="none" stroke-linecap="round"></path><path d="M 282.500,119.000 C 284.433,116.667 283.895,116.442 285.500,114.000" stroke-width="4.045" stroke="black" fill="none" stroke-linecap="round"></path><path d="M 285.500,114.000 C 286.000,111.500 286.433,111.667 286.500,109.000" stroke-width="4.197" stroke="black" fill="none" stroke-linecap="round"></path><path d="M 286.500,109.000 C 288.862,104.973 287.000,106.500 287.500,104.000" stroke-width="4.781" stroke="black" fill="none" stroke-linecap="round"></path><path d="M 287.500,104.000 C 283.042,102.735 285.362,102.473 279.500,104.000" stroke-width="4.601" stroke="black" fill="none" stroke-linecap="round"></path><path d="M 279.500,104.000 C 276.367,106.354 276.042,105.235 273.500,109.000" stroke-width="4.582" stroke="black" fill="none" stroke-linecap="round"></path><path d="M 273.500,109.000 C 269.770,112.294 269.867,112.354 266.500,116.000" stroke-width="3.811" stroke="black" fill="none" stroke-linecap="round"></path><path d="M 266.500,116.000 C 262.554,121.045 262.270,120.794 258.500,126.000" stroke-width="3.368" stroke="black" fill="none" stroke-linecap="round"></path><path d="M 258.500,126.000 C 253.470,131.975 253.554,132.045 248.500,138.000" stroke-width="3.050" stroke="black" fill="none" stroke-linecap="round"></path><path d="M 248.500,138.000 C 236.770,151.822 236.970,151.975 225.500,166.000" stroke-width="2.049" stroke="black" fill="none" stroke-linecap="round"></path><path d="M 225.500,166.000 C 221.269,171.347 221.270,171.322 217.500,177.000" stroke-width="2.700" stroke="black" fill="none" stroke-linecap="round"></path><path d="M 217.500,177.000 C 214.540,182.025 214.269,181.847 211.500,187.000" stroke-width="3.116" stroke="black" fill="none" stroke-linecap="round"></path><path d="M 211.500,187.000 C 208.891,190.936 209.040,191.025 206.500,195.000" stroke-width="3.451" stroke="black" fill="none" stroke-linecap="round"></path><path d="M 206.500,195.000 C 204.182,199.611 203.891,199.436 201.500,204.000" stroke-width="3.431" stroke="black" fill="none" stroke-linecap="round"></path><path d="M 201.500,204.000 C 198.564,208.544 198.682,208.611 195.500,213.000" stroke-width="3.488" stroke="black" fill="none" stroke-linecap="round"></path><path d="M 195.500,213.000 C 192.948,216.464 193.064,216.544 190.500,220.000" stroke-width="3.606" stroke="black" fill="none" stroke-linecap="round"></path><path d="M 190.500,220.000 C 188.313,222.892 188.448,222.964 186.500,226.000" stroke-width="3.840" stroke="black" fill="none" stroke-linecap="round"></path><path d="M 186.500,226.000 C 184.699,228.883 184.813,228.892 183.500,232.000" stroke-width="3.973" stroke="black" fill="none" stroke-linecap="round"></path><path d="M 183.500,232.000 C 179.956,237.014 182.199,235.383 181.500,239.000" stroke-width="4.397" stroke="black" fill="none" stroke-linecap="round"></path><path d="M 181.500,239.000 C 186.500,242.000 183.456,241.514 190.500,241.000" stroke-width="4.835" stroke="black" fill="none" stroke-linecap="round"></path><path d="M 190.500,241.000 C 194.115,238.124 194.500,240.000 197.500,235.000" stroke-width="3.937" stroke="black" fill="none" stroke-linecap="round"></path><path d="M 197.500,235.000 C 200.385,231.876 200.615,232.124 203.500,229.000" stroke-width="3.806" stroke="black" fill="none" stroke-linecap="round"></path><path d="M 203.500,229.000 C 207.115,226.124 206.885,225.876 210.500,223.000" stroke-width="3.637" stroke="black" fill="none" stroke-linecap="round"></path><path d="M 210.500,223.000 C 213.500,220.000 213.615,220.124 216.500,217.000" stroke-width="3.717" stroke="black" fill="none" stroke-linecap="round"></path><path d="M 216.500,217.000 C 221.190,211.602 221.500,212.000 226.500,207.000" stroke-width="3.915" stroke="black" fill="none" stroke-linecap="round"></path><path d="M 226.500,207.000 C 228.808,205.036 228.690,205.102 231.500,204.000" stroke-width="4.009" stroke="black" fill="none" stroke-linecap="round"></path><path d="M 231.500,204.000 C 236.466,200.736 235.308,202.536 239.500,202.000" stroke-width="4.341" stroke="black" fill="none" stroke-linecap="round"></path><path d="M 239.500,202.000 C 243.243,205.400 242.466,203.236 243.500,209.000" stroke-width="4.795" stroke="black" fill="none" stroke-linecap="round"></path><path d="M 243.500,209.000 C 242.378,212.713 243.743,212.400 240.500,216.000" stroke-width="4.119" stroke="black" fill="none" stroke-linecap="round"></path><path d="M 240.500,216.000 C 237.747,219.348 238.378,219.713 235.500,223.000" stroke-width="3.785" stroke="black" fill="none" stroke-linecap="round"></path><path d="M 235.500,223.000 C 234.105,226.058 233.747,225.848 232.500,229.000" stroke-width="4.381" stroke="black" fill="none" stroke-linecap="round"></path><path d="M 232.500,229.000 C 230.800,231.401 231.105,231.558 229.500,234.000" stroke-width="4.197" stroke="black" fill="none" stroke-linecap="round"></path><path d="M 229.500,234.000 C 226.780,238.520 228.300,236.401 227.500,239.000" stroke-width="4.625" stroke="black" fill="none" stroke-linecap="round"></path><path d="M 227.500,239.000 C 230.149,237.710 228.280,239.520 232.500,236.000" stroke-width="4.747" stroke="black" fill="none" stroke-linecap="round"></path><path d="M 232.500,236.000 C 235.600,233.610 235.649,233.710 238.500,231.000" stroke-width="4.085" stroke="black" fill="none" stroke-linecap="round"></path><path d="M 238.500,231.000 C 240.302,228.758 240.600,229.110 242.500,227.000" stroke-width="4.179" stroke="black" fill="none" stroke-linecap="round"></path><path d="M 242.500,227.000 C 245.698,225.242 245.302,224.758 248.500,223.000" stroke-width="4.016" stroke="black" fill="none" stroke-linecap="round"></path><path d="M 248.500,223.000 C 250.232,220.649 250.698,221.242 252.500,219.000" stroke-width="4.157" stroke="black" fill="none" stroke-linecap="round"></path><path d="M 252.500,219.000 C 255.720,215.945 255.732,216.649 259.500,215.000" stroke-width="4.387" stroke="black" fill="none" stroke-linecap="round"></path><path d="M 259.500,215.000 C 264.167,215.812 263.720,213.945 268.500,215.000" stroke-width="4.992" stroke="black" fill="none" stroke-linecap="round"></path><path d="M 268.500,215.000 C 272.161,213.798 272.167,214.312 275.500,212.000" stroke-width="4.102" stroke="black" fill="none" stroke-linecap="round"></path><path d="M 275.500,212.000 C 278.459,209.935 278.661,210.298 281.500,208.000" stroke-width="3.994" stroke="black" fill="none" stroke-linecap="round"></path><path d="M 281.500,208.000 C 284.041,206.565 283.959,206.435 286.500,205.000" stroke-width="4.128" stroke="black" fill="none" stroke-linecap="round"></path><path d="M 286.500,205.000 C 292.077,199.943 289.541,203.065 292.500,201.000" stroke-width="4.474" stroke="black" fill="none" stroke-linecap="round"></path><path d="M 292.500,201.000 C 290.809,205.670 293.077,202.443 288.500,210.000" stroke-width="4.848" stroke="black" fill="none" stroke-linecap="round"></path><path d="M 288.500,210.000 C 286.264,212.863 286.809,213.170 284.500,216.000" stroke-width="4.125" stroke="black" fill="none" stroke-linecap="round"></path><path d="M 284.500,216.000 C 281.443,220.819 281.764,220.863 279.500,226.000" stroke-width="4.178" stroke="black" fill="none" stroke-linecap="round"></path><path d="M 279.500,226.000 C 277.479,229.702 278.443,228.819 278.500,232.000" stroke-width="4.562" stroke="black" fill="none" stroke-linecap="round"></path><path d="M 278.500,232.000 C 280.929,235.343 279.479,234.202 283.500,235.000" stroke-width="5.093" stroke="black" fill="none" stroke-linecap="round"></path><path d="M 283.500,235.000 C 288.561,232.615 288.429,234.343 293.500,230.000" stroke-width="4.434" stroke="black" fill="none" stroke-linecap="round"></path><path d="M 293.500,230.000 C 297.084,228.135 297.061,228.115 300.500,226.000" stroke-width="3.982" stroke="black" fill="none" stroke-linecap="round"></path><path d="M 300.500,226.000 C 305.000,223.000 305.084,223.135 309.500,220.000" stroke-width="3.522" stroke="black" fill="none" stroke-linecap="round"></path><path d="M 309.500,220.000 C 314.241,217.312 314.000,217.000 318.500,214.000" stroke-width="3.516" stroke="black" fill="none" stroke-linecap="round"></path><path d="M 318.500,214.000 C 322.896,209.877 323.241,210.312 327.500,206.000" stroke-width="3.357" stroke="black" fill="none" stroke-linecap="round"></path><path d="M 327.500,206.000 C 332.623,202.145 332.396,201.877 337.500,198.000" stroke-width="3.251" stroke="black" fill="none" stroke-linecap="round"></path><path d="M 337.500,198.000 C 342.618,193.625 342.623,193.645 347.500,189.000" stroke-width="3.112" stroke="black" fill="none" stroke-linecap="round"></path><path d="M 347.500,189.000 C 352.132,184.625 352.118,184.625 356.500,180.000" stroke-width="3.184" stroke="black" fill="none" stroke-linecap="round"></path><path d="M 356.500,180.000 C 360.517,175.515 360.632,175.625 364.500,171.000" stroke-width="3.202" stroke="black" fill="none" stroke-linecap="round"></path><path d="M 364.500,171.000 C 368.184,167.145 368.017,167.015 371.500,163.000" stroke-width="3.379" stroke="black" fill="none" stroke-linecap="round"></path><path d="M 371.500,163.000 C 374.077,159.553 374.184,159.645 376.500,156.000" stroke-width="3.570" stroke="black" fill="none" stroke-linecap="round"></path><path d="M 376.500,156.000 C 381.763,148.652 381.577,148.553 386.500,141.000" stroke-width="3.617" stroke="black" fill="none" stroke-linecap="round"></path><path d="M 386.500,141.000 C 388.301,138.117 388.263,138.152 389.500,135.000" stroke-width="3.899" stroke="black" fill="none" stroke-linecap="round"></path><path d="M 389.500,135.000 C 390.618,131.529 390.801,131.617 391.500,128.000" stroke-width="3.876" stroke="black" fill="none" stroke-linecap="round"></path><path d="M 391.500,128.000 C 392.000,125.500 392.118,125.529 392.500,123.000" stroke-width="4.535" stroke="black" fill="none" stroke-linecap="round"></path><path d="M 392.500,123.000 C 394.640,118.912 393.000,120.500 393.500,118.000" stroke-width="4.387" stroke="black" fill="none" stroke-linecap="round"></path><path d="M 393.500,118.000 C 389.936,117.538 392.140,116.912 387.500,119.000" stroke-width="4.955" stroke="black" fill="none" stroke-linecap="round"></path><path d="M 387.500,119.000 C 385.527,121.522 384.936,120.538 383.500,124.000" stroke-width="4.259" stroke="black" fill="none" stroke-linecap="round"></path><path d="M 383.500,124.000 C 380.939,126.951 381.027,127.022 378.500,130.000" stroke-width="3.967" stroke="black" fill="none" stroke-linecap="round"></path><path d="M 378.500,130.000 C 375.032,134.526 374.939,134.451 371.500,139.000" stroke-width="3.527" stroke="black" fill="none" stroke-linecap="round"></path><path d="M 371.500,139.000 C 367.415,143.934 367.532,144.026 363.500,149.000" stroke-width="3.235" stroke="black" fill="none" stroke-linecap="round"></path><path d="M 363.500,149.000 C 359.045,155.034 358.915,154.934 354.500,161.000" stroke-width="3.058" stroke="black" fill="none" stroke-linecap="round"></path><path d="M 354.500,161.000 C 350.881,165.412 351.045,165.534 347.500,170.000" stroke-width="3.213" stroke="black" fill="none" stroke-linecap="round"></path><path d="M 347.500,170.000 C 343.884,174.923 343.881,174.912 340.500,180.000" stroke-width="3.309" stroke="black" fill="none" stroke-linecap="round"></path><path d="M 340.500,180.000 C 338.170,184.117 337.884,183.923 335.500,188.000" stroke-width="3.466" stroke="black" fill="none" stroke-linecap="round"></path><path d="M 335.500,188.000 C 332.097,191.751 332.670,192.117 329.500,196.000" stroke-width="3.463" stroke="black" fill="none" stroke-linecap="round"></path><path d="M 329.500,196.000 C 327.403,201.249 326.597,200.751 324.500,206.000" stroke-width="3.468" stroke="black" fill="none" stroke-linecap="round"></path><path d="M 324.500,206.000 C 321.569,210.054 321.903,210.249 318.500,214.000" stroke-width="3.463" stroke="black" fill="none" stroke-linecap="round"></path><path d="M 318.500,214.000 C 314.109,218.750 314.569,219.054 310.500,224.000" stroke-width="3.856" stroke="black" fill="none" stroke-linecap="round"></path><path d="M 310.500,224.000 C 306.713,228.164 308.609,226.750 307.500,230.000" stroke-width="4.379" stroke="black" fill="none" stroke-linecap="round"></path><path d="M 307.500,230.000 C 310.570,231.391 308.213,231.664 313.500,231.000" stroke-width="4.989" stroke="black" fill="none" stroke-linecap="round"></path><path d="M 313.500,231.000 C 318.000,229.500 318.070,230.391 322.500,228.000" stroke-width="4.538" stroke="black" fill="none" stroke-linecap="round"></path><path d="M 322.500,228.000 C 327.035,226.595 327.000,226.500 331.500,225.000" stroke-width="4.439" stroke="black" fill="none" stroke-linecap="round"></path><path d="M 331.500,225.000 C 334.000,224.000 334.035,224.095 336.500,223.000" stroke-width="4.275" stroke="black" fill="none" stroke-linecap="round"></path><path d="M 336.500,223.000 C 339.000,222.000 339.000,222.000 341.500,221.000" stroke-width="4.273" stroke="black" fill="none" stroke-linecap="round"></path><path d="M 341.500,221.000 C 343.897,219.601 344.000,220.000 346.500,219.000" stroke-width="4.272" stroke="black" fill="none" stroke-linecap="round"></path><path d="M 346.500,219.000 C 350.487,218.287 350.397,218.101 354.500,218.000" stroke-width="4.443" stroke="black" fill="none" stroke-linecap="round"></path><path d="M 354.500,218.000 C 360.142,216.211 357.487,217.787 360.500,218.000" stroke-width="4.660" stroke="black" fill="none" stroke-linecap="round"></path><path d="M 360.500,218.000 C 359.781,224.016 361.142,221.211 356.500,228.000" stroke-width="4.795" stroke="black" fill="none" stroke-linecap="round"></path><path d="M 356.500,228.000 C 351.435,231.411 352.781,232.516 346.500,235.000" stroke-width="3.618" stroke="black" fill="none" stroke-linecap="round"></path><path d="M 346.500,235.000 C 340.862,240.085 340.435,239.411 334.500,244.000" stroke-width="3.086" stroke="black" fill="none" stroke-linecap="round"></path><path d="M 334.500,244.000 C 327.500,247.500 327.862,248.085 320.500,251.000" stroke-width="2.974" stroke="black" fill="none" stroke-linecap="round"></path><path d="M 320.500,251.000 C 313.648,254.823 313.500,254.500 306.500,258.000" stroke-width="2.881" stroke="black" fill="none" stroke-linecap="round"></path><path d="M 306.500,258.000 C 291.216,265.107 291.148,264.823 275.500,271.000" stroke-width="2.814" stroke="black" fill="none" stroke-linecap="round"></path><path d="M 275.500,271.000 C 266.979,273.431 267.216,274.107 258.500,276.000" stroke-width="2.772" stroke="black" fill="none" stroke-linecap="round"></path><path d="M 258.500,276.000 C 250.664,279.268 250.479,278.431 242.500,281.000" stroke-width="3.380" stroke="black" fill="none" stroke-linecap="round"></path><path d="M 242.500,281.000 C 233.964,281.755 234.164,282.768 225.500,283.000" stroke-width="2.887" stroke="black" fill="none" stroke-linecap="round"></path><path d="M 225.500,283.000 C 217.055,284.963 216.964,284.255 208.500,286.000" stroke-width="2.819" stroke="black" fill="none" stroke-linecap="round"></path><path d="M 208.500,286.000 C 200.508,286.757 200.555,286.963 192.500,287.000" stroke-width="2.872" stroke="black" fill="none" stroke-linecap="round"></path><path d="M 192.500,287.000 C 184.000,287.000 184.008,287.257 175.500,287.000" stroke-width="2.830" stroke="black" fill="none" stroke-linecap="round"></path><path d="M 175.500,287.000 C 166.993,287.243 167.000,287.000 158.500,287.000" stroke-width="2.757" stroke="black" fill="none" stroke-linecap="round"></path><path d="M 158.500,287.000 C 149.407,287.204 149.493,286.743 140.500,286.000" stroke-width="2.738" stroke="black" fill="none" stroke-linecap="round"></path><path d="M 140.500,286.000 C 130.989,284.052 130.907,284.704 121.500,282.000" stroke-width="2.597" stroke="black" fill="none" stroke-linecap="round"></path><path d="M 121.500,282.000 C 112.349,280.528 112.489,280.052 103.500,278.000" stroke-width="2.667" stroke="black" fill="none" stroke-linecap="round"></path><path d="M 103.500,278.000 C 94.824,275.428 94.849,275.528 86.500,272.000" stroke-width="2.766" stroke="black" fill="none" stroke-linecap="round"></path><path d="M 86.500,272.000 C 77.244,269.219 77.824,268.428 69.500,264.000" stroke-width="2.699" stroke="black" fill="none" stroke-linecap="round"></path><path d="M 69.500,264.000 C 54.012,253.473 54.244,253.719 40.500,241.000" stroke-width="1.974" stroke="black" fill="none" stroke-linecap="round"></path><path d="M 40.500,241.000 C 34.585,235.003 34.512,235.473 30.500,228.000" stroke-width="2.475" stroke="black" fill="none" stroke-linecap="round"></path><path d="M 30.500,228.000 C 27.518,222.703 27.585,223.003 26.500,217.000" stroke-width="3.018" stroke="black" fill="none" stroke-linecap="round"></path><path d="M 26.500,217.000 C 25.251,208.478 25.018,208.703 25.500,200.000" stroke-width="2.807" stroke="black" fill="none" stroke-linecap="round"></path><path d="M 25.500,200.000 C 23.093,189.999 25.751,191.478 27.500,183.000" stroke-width="2.744" stroke="black" fill="none" stroke-linecap="round"></path><path d="M 27.500,183.000 C 41.648,162.365 40.093,162.999 59.500,146.000" stroke-width="2.422" stroke="black" fill="none" stroke-linecap="round"></path><path d="M 59.500,146.000 C 73.070,136.245 71.648,134.865 87.500,128.000" stroke-width="2.033" stroke="black" fill="none" stroke-linecap="round"></path><path d="M 87.500,128.000 C 101.149,120.186 101.070,120.245 115.500,114.000" stroke-width="1.940" stroke="black" fill="none" stroke-linecap="round"></path><path d="M 115.500,114.000 C 130.192,107.444 130.149,107.686 145.500,103.000" stroke-width="1.949" stroke="black" fill="none" stroke-linecap="round"></path><path d="M 145.500,103.000 C 161.369,98.730 161.192,98.444 177.500,96.000" stroke-width="1.930" stroke="black" fill="none" stroke-linecap="round"></path><path d="M 177.500,96.000 C 193.951,93.379 193.869,93.230 210.500,92.000" stroke-width="1.911" stroke="black" fill="none" stroke-linecap="round"></path><path d="M 210.500,92.000 C 223.995,91.237 223.951,90.879 237.500,91.000" stroke-width="2.034" stroke="black" fill="none" stroke-linecap="round"></path><path d="M 237.500,91.000 C 252.608,89.738 252.495,90.737 267.500,91.000" stroke-width="1.979" stroke="black" fill="none" stroke-linecap="round"></path><path d="M 267.500,91.000 C 282.172,92.756 282.108,92.238 296.500,96.000" stroke-width="2.035" stroke="black" fill="none" stroke-linecap="round"></path><path d="M 296.500,96.000 C 308.781,98.738 308.672,98.756 320.500,103.000" stroke-width="2.144" stroke="black" fill="none" stroke-linecap="round"></path><path d="M 320.500,103.000 C 330.998,106.655 330.781,106.738 340.500,112.000" stroke-width="2.404" stroke="black" fill="none" stroke-linecap="round"></path><path d="M 340.500,112.000 C 347.271,115.771 346.998,115.655 352.500,121.000" stroke-width="2.733" stroke="black" fill="none" stroke-linecap="round"></path><path d="M 352.500,121.000 C 356.679,125.143 356.271,124.771 358.500,130.000" stroke-width="3.236" stroke="black" fill="none" stroke-linecap="round"></path><path d="M 358.500,130.000 C 359.932,133.977 359.679,133.143 358.500,137.000" stroke-width="3.682" stroke="black" fill="none" stroke-linecap="round"></path><path d="M 358.500,137.000 C 355.224,144.349 355.432,143.477 349.500,149.000" stroke-width="3.167" stroke="black" fill="none" stroke-linecap="round"></path><path d="M 349.500,149.000 C 338.510,156.995 339.224,157.349 326.500,163.000" stroke-width="2.402" stroke="black" fill="none" stroke-linecap="round"></path><path d="M 326.500,163.000 C 310.681,172.137 310.510,170.995 293.500,177.000" stroke-width="1.893" stroke="black" fill="none" stroke-linecap="round"></path><path d="M 293.500,177.000 C 257.282,187.601 257.681,187.137 220.500,193.000" stroke-width="1.771" stroke="black" fill="none" stroke-linecap="round"></path><path d="M 220.500,193.000 C 202.500,193.000 202.782,195.601 184.500,193.000" stroke-width="1.743" stroke="black" fill="none" stroke-linecap="round"></path><path d="M 184.500,193.000 C 167.860,194.410 168.000,193.000 151.500,193.000" stroke-width="1.906" stroke="black" fill="none" stroke-linecap="round"></path><path d="M 151.500,193.000 C 136.846,194.600 138.860,191.910 126.500,188.000" stroke-width="2.134" stroke="black" fill="none" stroke-linecap="round"></path><path d="M 126.500,188.000 C 107.103,173.789 107.846,176.100 93.500,156.000" stroke-width="2.308" stroke="black" fill="none" stroke-linecap="round"></path><path d="M 370.500,227.000 C 373.836,224.862 374.000,225.500 377.500,224.000" stroke-width="5.205" stroke="black" fill="none" stroke-linecap="round"></path><path d="M 377.500,224.000 C 382.569,223.913 382.336,222.862 387.500,223.000" stroke-width="3.975" stroke="black" fill="none" stroke-linecap="round"></path><path d="M 387.500,223.000 C 396.112,221.396 396.069,221.413 404.500,219.000" stroke-width="3.051" stroke="black" fill="none" stroke-linecap="round"></path><path d="M 404.500,219.000 C 413.500,216.000 413.612,216.396 422.500,213.000" stroke-width="2.765" stroke="black" fill="none" stroke-linecap="round"></path><path d="M 422.500,213.000 C 431.399,209.642 431.500,210.000 440.500,207.000" stroke-width="2.628" stroke="black" fill="none" stroke-linecap="round"></path><path d="M 440.500,207.000 C 446.955,205.247 446.899,205.142 453.500,204.000" stroke-width="2.974" stroke="black" fill="none" stroke-linecap="round"></path><path d="M 453.500,204.000 C 461.809,200.837 457.455,203.247 461.500,203.000" stroke-width="3.517" stroke="black" fill="none" stroke-linecap="round"></path><path d="M 461.500,203.000 C 457.162,211.080 460.809,207.837 451.500,218.000" stroke-width="3.941" stroke="black" fill="none" stroke-linecap="round"></path><path d="M 451.500,218.000 C 447.416,221.410 448.162,222.080 443.500,225.000" stroke-width="3.649" stroke="black" fill="none" stroke-linecap="round"></path><path d="M 443.500,225.000 C 437.605,228.905 441.416,226.910 439.500,229.000" stroke-width="3.989" stroke="black" fill="none" stroke-linecap="round"></path><path d="M 439.500,229.000 C 451.881,229.021 447.605,229.405 463.500,226.000" stroke-width="3.830" stroke="black" fill="none" stroke-linecap="round"></path><path d="M 463.500,226.000 C 476.469,220.917 476.881,222.521 489.500,216.000" stroke-width="2.529" stroke="black" fill="none" stroke-linecap="round"></path><path d="M 489.500,216.000 C 502.710,209.978 502.969,210.917 516.500,206.000" stroke-width="2.141" stroke="black" fill="none" stroke-linecap="round"></path><path d="M 516.500,206.000 C 528.924,203.001 528.710,202.478 541.500,201.000" stroke-width="2.216" stroke="black" fill="none" stroke-linecap="round"></path><path d="M 541.500,201.000 C 550.990,199.892 550.924,199.501 560.500,199.000" stroke-width="2.502" stroke="black" fill="none" stroke-linecap="round"></path><path d="M 560.500,199.000 C 566.992,198.283 566.990,198.392 573.500,198.000" stroke-width="2.990" stroke="black" fill="none" stroke-linecap="round"></path><path d="M 573.500,198.000 C 578.500,198.000 578.492,197.783 583.500,198.000" stroke-width="3.305" stroke="black" fill="none" stroke-linecap="round"></path><path d="M 583.500,198.000 C 587.298,197.015 587.000,198.000 590.500,198.000" stroke-width="3.708" stroke="black" fill="none" stroke-linecap="round"></path><path d="M 590.500,198.000 C 594.978,199.209 593.798,199.015 596.500,202.000" stroke-width="4.315" stroke="black" fill="none" stroke-linecap="round"></path><path d="M 596.500,202.000 C 598.507,206.993 597.978,204.709 596.500,209.000" stroke-width="4.738" stroke="black" fill="none" stroke-linecap="round"></path><path d="M 596.500,209.000 C 591.608,211.234 593.507,211.993 586.500,212.000" stroke-width="4.700" stroke="black" fill="none" stroke-linecap="round"></path><path d="M 586.500,212.000 C 581.474,212.398 581.608,212.734 576.500,212.000" stroke-width="3.825" stroke="black" fill="none" stroke-linecap="round"></path><path d="M 576.500,212.000 C 568.880,211.596 568.974,211.398 561.500,210.000" stroke-width="3.188" stroke="black" fill="none" stroke-linecap="round"></path><path d="M 561.500,210.000 C 550.644,206.322 550.380,207.596 539.500,204.000" stroke-width="2.526" stroke="black" fill="none" stroke-linecap="round"></path><path d="M 539.500,204.000 C 526.564,201.452 526.644,201.322 513.500,200.000" stroke-width="2.295" stroke="black" fill="none" stroke-linecap="round"></path><path d="M 513.500,200.000 C 495.028,197.975 495.064,197.952 476.500,197.000" stroke-width="1.898" stroke="black" fill="none" stroke-linecap="round"></path><path d="M 476.500,197.000 C 457.003,196.244 457.028,195.975 437.500,196.000" stroke-width="1.760" stroke="black" fill="none" stroke-linecap="round"></path><path d="M 437.500,196.000 C 416.662,193.020 417.003,195.744 396.500,196.000" stroke-width="1.681" stroke="black" fill="none" stroke-linecap="round"></path><path d="M 396.500,196.000 C 359.433,204.224 359.162,201.520 322.500,213.000" stroke-width="1.125" stroke="black" fill="none" stroke-linecap="round"></path></svg>