<svg xmlns="http://www.w3.org/2000/svg" xmlns:xlink="http://www.w3.org/1999/xlink" viewBox="0 0 1460 576" width="1460" height="576"><path d="M 793.000,279.000 C 758.119,285.789 758.000,285.000 723.000,291.000" stroke-width="2.400" stroke="black" fill="none" stroke-linecap="round"></path><path d="M 723.000,291.000 C 680.609,297.527 680.619,297.289 638.000,302.000" stroke-width="1.140" stroke="black" fill="none" stroke-linecap="round"></path><path d="M 638.000,302.000 C 590.043,306.599 590.109,307.027 542.000,310.000" stroke-width="1.125" stroke="black" fill="none" stroke-linecap="round"></path><path d="M 542.000,310.000 C 477.026,314.501 477.043,314.599 412.000,318.000" stroke-width="1.125" stroke="black" fill="none" stroke-linecap="round"></path><path d="M 412.000,318.000 C 365.485,321.244 365.526,320.501 319.000,322.000" stroke-width="1.125" stroke="black" fill="none" stroke-linecap="round"></path><path d="M 319.000,322.000 C 303.796,321.947 303.985,322.244 289.000,320.000" stroke-width="1.685" stroke="black" fill="none" stroke-linecap="round"></path><path d="M 289.000,320.000 C 285.022,318.437 284.796,319.447 281.000,317.000" stroke-width="2.679" stroke="black" fill="none" stroke-linecap="round"></path><path d="M 281.000,317.000 C 276.352,317.317 278.022,315.937 275.000,315.000" stroke-width="3.831" stroke="black" fill="none" stroke-linecap="round"></path><path d="M 275.000,315.000 C 270.373,307.855 272.852,311.317 274.000,305.000" stroke-width="4.193" stroke="black" fill="none" stroke-linecap="round"></path><path d="M 274.000,305.000 C 296.667,288.476 293.873,289.355 322.000,278.000" stroke-width="1.602" stroke="black" fill="none" stroke-linecap="round"></path><path d="M 322.000,278.000 C 363.267,257.970 363.167,260.976 407.000,250.000" stroke-width="1.125" stroke="black" fill="none" stroke-linecap="round"></path><path d="M 407.000,250.000 C 471.842,233.467 470.267,238.470 536.000,239.000" stroke-width="1.125" stroke="black" fill="none" stroke-linecap="round"></path><path d="M 536.000,239.000 C 715.383,263.287 715.342,254.467 894.000,292.000" stroke-width="1.125" stroke="black" fill="none" stroke-linecap="round"></path><path d="M 894.000,292.000 C 954.720,302.998 954.883,301.787 1015.000,316.000" stroke-width="1.125" stroke="black" fill="none" stroke-linecap="round"></path><path d="M 1015.000,316.000 C 1056.156,327.795 1056.720,324.998 1098.000,336.000" stroke-width="1.125" stroke="black" fill="none" stroke-linecap="round"></path><path d="M 1098.000,336.000 C 1132.928,342.015 1132.656,342.795 1168.000,346.000" stroke-width="1.125" stroke="black" fill="none" stroke-linecap="round"></path><path d="M 1168.000,346.000 C 1177.000,346.000 1176.928,347.015 1186.000,346.000" stroke-width="1.754" stroke="black" fill="none" stroke-linecap="round"></path><path d="M 1186.000,346.000 C 1194.895,345.158 1189.500,346.000 1193.000,346.000" stroke-width="3.107" stroke="black" fill="none" stroke-linecap="round"></path><path d="M 1193.000,346.000 C 1180.655,350.537 1185.895,349.158 1168.000,354.000" stroke-width="2.961" stroke="black" fill="none" stroke-linecap="round"></path><path d="M 1168.000,354.000 C 1133.198,363.844 1133.155,363.537 1098.000,372.000" stroke-width="1.973" stroke="black" fill="none" stroke-linecap="round"></path><path d="M 1098.000,372.000 C 1051.080,382.392 1051.198,382.844 1004.000,392.000" stroke-width="1.125" stroke="black" fill="none" stroke-linecap="round"></path><path d="M 1004.000,392.000 C 953.374,404.445 953.080,402.392 902.000,412.000" stroke-width="1.125" stroke="black" fill="none" stroke-linecap="round"></path><path d="M 902.000,412.000 C 833.967,420.251 834.374,421.945 766.000,427.000" stroke-width="1.125" stroke="black" fill="none" stroke-linecap="round"></path><path d="M 766.000,427.000 C 763.412,426.804 763.467,427.251 761.000,426.000" stroke-width="1.688" stroke="black" fill="none" stroke-linecap="round"></path><path d="M 761.000,426.000 C 754.112,424.201 754.412,423.804 748.000,421.000" stroke-width="2.436" stroke="black" fill="none" stroke-linecap="round"></path><path d="M 748.000,421.000 C 740.638,419.469 743.612,418.701 740.000,415.000" stroke-width="3.117" stroke="black" fill="none" stroke-linecap="round"></path><path d="M 740.000,415.000 C 738.359,399.433 738.138,401.969 743.000,386.000" stroke-width="2.304" stroke="black" fill="none" stroke-linecap="round"></path><path d="M 743.000,386.000 C 745.174,364.792 747.859,371.933 759.000,360.000" stroke-width="2.032" stroke="black" fill="none" stroke-linecap="round"></path><path d="M 759.000,360.000 C 838.625,336.320 833.174,334.292 919.000,325.000" stroke-width="1.125" stroke="black" fill="none" stroke-linecap="round"></path><path d="M 919.000,325.000 C 945.630,326.517 945.125,321.320 972.000,330.000" stroke-width="1.191" stroke="black" fill="none" stroke-linecap="round"></path><path d="M 972.000,330.000 C 998.723,333.745 998.630,333.517 1025.000,339.000" stroke-width="1.259" stroke="black" fill="none" stroke-linecap="round"></path><path d="M 1025.000,339.000 C 1034.312,341.296 1028.723,339.745 1032.000,342.000" stroke-width="2.389" stroke="black" fill="none" stroke-linecap="round"></path><path d="M 1032.000,342.000 C 1017.091,345.034 1022.812,344.796 1002.000,346.000" stroke-width="3.088" stroke="black" fill="none" stroke-linecap="round"></path><path d="M 1002.000,346.000 C 954.473,347.488 954.591,349.034 907.000,350.000" stroke-width="1.125" stroke="black" fill="none" stroke-linecap="round"></path><path d="M 907.000,350.000 C 860.055,354.968 859.973,352.488 813.000,356.000" stroke-width="1.125" stroke="black" fill="none" stroke-linecap="round"></path><path d="M 813.000,356.000 C 745.860,357.116 746.055,357.468 679.000,355.000" stroke-width="1.125" stroke="black" fill="none" stroke-linecap="round"></path><path d="M 679.000,355.000 C 666.973,353.149 666.860,354.616 655.000,351.000" stroke-width="1.708" stroke="black" fill="none" stroke-linecap="round"></path><path d="M 655.000,351.000 C 647.240,350.172 647.473,349.649 640.000,348.000" stroke-width="2.386" stroke="black" fill="none" stroke-linecap="round"></path><path d="M 640.000,348.000 C 637.030,347.030 637.240,347.172 635.000,345.000" stroke-width="3.384" stroke="black" fill="none" stroke-linecap="round"></path><path d="M 635.000,345.000 C 631.970,339.970 631.030,341.030 628.000,336.000" stroke-width="3.905" stroke="black" fill="none" stroke-linecap="round"></path><path d="M 628.000,336.000 C 625.737,333.912 625.970,333.970 623.000,333.000" stroke-width="4.663" stroke="black" fill="none" stroke-linecap="round"></path><path d="M 623.000,333.000 C 616.553,331.035 616.737,330.912 610.000,330.000" stroke-width="3.339" stroke="black" fill="none" stroke-linecap="round"></path><path d="M 610.000,330.000 C 607.000,330.000 607.053,329.535 604.000,330.000" stroke-width="3.873" stroke="black" fill="none" stroke-linecap="round"></path></svg>