<svg xmlns="http://www.w3.org/2000/svg" xmlns:xlink="http://www.w3.org/1999/xlink" viewBox="0 0 692 576" width="692" height="576"><path d="M 383.000,308.000 C 366.756,315.078 366.500,313.500 350.000,319.000" stroke-width="4.001" stroke="black" fill="none" stroke-linecap="round"></path><path d="M 350.000,319.000 C 342.832,320.226 343.256,320.578 336.000,319.000" stroke-width="3.312" stroke="black" fill="none" stroke-linecap="round"></path><path d="M 336.000,319.000 C 322.210,317.872 323.332,316.726 311.000,312.000" stroke-width="2.398" stroke="black" fill="none" stroke-linecap="round"></path><path d="M 311.000,312.000 C 302.510,304.489 301.210,306.872 294.000,297.000" stroke-width="2.407" stroke="black" fill="none" stroke-linecap="round"></path><path d="M 294.000,297.000 C 288.542,294.391 290.010,293.489 286.000,290.000" stroke-width="3.014" stroke="black" fill="none" stroke-linecap="round"></path><path d="M 286.000,290.000 C 279.849,282.672 283.042,284.891 283.000,278.000" stroke-width="3.231" stroke="black" fill="none" stroke-linecap="round"></path><path d="M 283.000,278.000 C 296.252,257.415 294.349,261.172 315.000,247.000" stroke-width="1.774" stroke="black" fill="none" stroke-linecap="round"></path><path d="M 315.000,247.000 C 334.695,240.087 332.252,237.415 355.000,238.000" stroke-width="1.684" stroke="black" fill="none" stroke-linecap="round"></path><path d="M 355.000,238.000 C 388.644,234.729 388.195,234.587 422.000,236.000" stroke-width="1.214" stroke="black" fill="none" stroke-linecap="round"></path><path d="M 422.000,236.000 C 441.529,237.583 441.144,236.729 460.000,242.000" stroke-width="1.531" stroke="black" fill="none" stroke-linecap="round"></path><path d="M 460.000,242.000 C 464.444,243.991 464.529,243.083 468.000,247.000" stroke-width="2.539" stroke="black" fill="none" stroke-linecap="round"></path><path d="M 468.000,247.000 C 471.755,249.442 470.944,249.491 473.000,253.000" stroke-width="3.372" stroke="black" fill="none" stroke-linecap="round"></path><path d="M 473.000,253.000 C 477.626,261.048 475.255,259.442 475.000,267.000" stroke-width="3.092" stroke="black" fill="none" stroke-linecap="round"></path><path d="M 475.000,267.000 C 467.350,277.837 470.126,278.048 458.000,287.000" stroke-width="2.418" stroke="black" fill="none" stroke-linecap="round"></path><path d="M 458.000,287.000 C 443.498,304.633 442.350,302.337 425.000,316.000" stroke-width="1.694" stroke="black" fill="none" stroke-linecap="round"></path><path d="M 425.000,316.000 C 400.524,329.492 401.998,330.133 375.000,338.000" stroke-width="1.426" stroke="black" fill="none" stroke-linecap="round"></path><path d="M 375.000,338.000 C 367.000,338.000 367.524,340.492 359.000,338.000" stroke-width="2.212" stroke="black" fill="none" stroke-linecap="round"></path><path d="M 359.000,338.000 C 353.145,340.359 354.500,338.000 350.000,338.000" stroke-width="3.030" stroke="black" fill="none" stroke-linecap="round"></path><path d="M 350.000,338.000 C 343.952,332.425 345.145,334.359 343.000,326.000" stroke-width="3.075" stroke="black" fill="none" stroke-linecap="round"></path><path d="M 343.000,326.000 C 340.301,315.606 341.952,318.925 346.000,311.000" stroke-width="2.933" stroke="black" fill="none" stroke-linecap="round"></path><path d="M 346.000,311.000 C 379.796,286.382 376.801,286.106 416.000,267.000" stroke-width="1.253" stroke="black" fill="none" stroke-linecap="round"></path><path d="M 416.000,267.000 C 430.197,260.741 429.296,259.882 445.000,258.000" stroke-width="1.666" stroke="black" fill="none" stroke-linecap="round"></path><path d="M 445.000,258.000 C 458.926,254.499 457.197,255.741 470.000,257.000" stroke-width="2.004" stroke="black" fill="none" stroke-linecap="round"></path><path d="M 470.000,257.000 C 477.637,260.777 474.426,257.999 476.000,265.000" stroke-width="3.218" stroke="black" fill="none" stroke-linecap="round"></path><path d="M 476.000,265.000 C 463.547,285.529 468.137,285.277 451.000,306.000" stroke-width="1.757" stroke="black" fill="none" stroke-linecap="round"></path><path d="M 451.000,306.000 C 445.341,317.127 444.547,316.529 438.000,327.000" stroke-width="2.101" stroke="black" fill="none" stroke-linecap="round"></path><path d="M 438.000,327.000 C 429.835,335.859 430.841,336.627 422.000,345.000" stroke-width="2.200" stroke="black" fill="none" stroke-linecap="round"></path><path d="M 422.000,345.000 C 415.511,354.093 414.835,353.359 408.000,362.000" stroke-width="2.370" stroke="black" fill="none" stroke-linecap="round"></path><path d="M 408.000,362.000 C 404.134,366.458 406.011,364.093 403.000,365.000" stroke-width="3.662" stroke="black" fill="none" stroke-linecap="round"></path></svg>