<svg xmlns="http://www.w3.org/2000/svg" xmlns:xlink="http://www.w3.org/1999/xlink" viewBox="0 0 1460 576" width="1460" height="576"><path d="M 754.000,327.000 C 743.077,329.986 743.000,329.500 732.000,332.000" stroke-width="2.831" stroke="black" fill="none" stroke-linecap="round"></path><path d="M 732.000,332.000 C 726.505,333.145 726.577,332.986 721.000,333.000" stroke-width="3.213" stroke="black" fill="none" stroke-linecap="round"></path><path d="M 721.000,333.000 C 707.181,333.452 707.505,332.645 694.000,331.000" stroke-width="2.404" stroke="black" fill="none" stroke-linecap="round"></path><path d="M 694.000,331.000 C 684.176,330.353 685.681,329.452 678.000,325.000" stroke-width="2.671" stroke="black" fill="none" stroke-linecap="round"></path><path d="M 678.000,325.000 C 670.245,315.408 669.176,317.353 664.000,305.000" stroke-width="2.407" stroke="black" fill="none" stroke-linecap="round"></path><path d="M 664.000,305.000 C 661.430,300.147 661.245,300.408 660.000,295.000" stroke-width="2.955" stroke="black" fill="none" stroke-linecap="round"></path><path d="M 660.000,295.000 C 658.234,290.828 658.930,291.147 659.000,287.000" stroke-width="3.415" stroke="black" fill="none" stroke-linecap="round"></path><path d="M 659.000,287.000 C 658.595,277.948 660.234,280.828 664.000,275.000" stroke-width="3.252" stroke="black" fill="none" stroke-linecap="round"></path><path d="M 664.000,275.000 C 688.131,260.018 686.095,262.948 714.000,257.000" stroke-width="1.651" stroke="black" fill="none" stroke-linecap="round"></path><path d="M 714.000,257.000 C 750.722,252.157 748.131,253.018 784.000,261.000" stroke-width="1.264" stroke="black" fill="none" stroke-linecap="round"></path><path d="M 784.000,261.000 C 821.516,276.304 822.222,271.157 857.000,295.000" stroke-width="1.390" stroke="black" fill="none" stroke-linecap="round"></path><path d="M 857.000,295.000 C 868.127,301.456 868.016,300.804 877.000,310.000" stroke-width="1.911" stroke="black" fill="none" stroke-linecap="round"></path><path d="M 877.000,310.000 C 884.782,315.212 881.627,314.456 884.000,321.000" stroke-width="2.612" stroke="black" fill="none" stroke-linecap="round"></path><path d="M 884.000,321.000 C 882.004,337.514 882.282,333.712 872.000,347.000" stroke-width="2.879" stroke="black" fill="none" stroke-linecap="round"></path><path d="M 872.000,347.000 C 849.747,363.047 853.004,365.014 826.000,376.000" stroke-width="1.654" stroke="black" fill="none" stroke-linecap="round"></path><path d="M 826.000,376.000 C 816.366,381.656 816.747,381.047 806.000,383.000" stroke-width="2.170" stroke="black" fill="none" stroke-linecap="round"></path><path d="M 806.000,383.000 C 788.863,383.843 789.366,385.156 772.000,383.000" stroke-width="1.897" stroke="black" fill="none" stroke-linecap="round"></path><path d="M 772.000,383.000 C 768.562,382.708 768.863,382.843 766.000,381.000" stroke-width="3.014" stroke="black" fill="none" stroke-linecap="round"></path><path d="M 766.000,381.000 C 762.153,378.498 762.562,378.708 760.000,375.000" stroke-width="3.495" stroke="black" fill="none" stroke-linecap="round"></path><path d="M 760.000,375.000 C 755.527,369.721 758.153,371.998 758.000,368.000" stroke-width="3.747" stroke="black" fill="none" stroke-linecap="round"></path><path d="M 758.000,368.000 C 770.768,360.019 767.027,361.721 783.000,359.000" stroke-width="3.282" stroke="black" fill="none" stroke-linecap="round"></path></svg>