<svg xmlns="http://www.w3.org/2000/svg" xmlns:xlink="http://www.w3.org/1999/xlink" viewBox="0 0 1460 576" width="1460" height="576"><path d="M 725.000,286.000 C 715.587,289.750 715.500,289.500 706.000,293.000" stroke-width="4.778" stroke="black" fill="none" stroke-linecap="round"></path><path d="M 706.000,293.000 C 686.061,299.695 686.087,299.750 666.000,306.000" stroke-width="1.944" stroke="black" fill="none" stroke-linecap="round"></path><path d="M 666.000,306.000 C 651.334,312.774 651.061,310.695 636.000,315.000" stroke-width="1.914" stroke="black" fill="none" stroke-linecap="round"></path><path d="M 636.000,315.000 C 619.664,317.069 620.334,317.274 604.000,315.000" stroke-width="1.940" stroke="black" fill="none" stroke-linecap="round"></path><path d="M 604.000,315.000 C 591.469,314.500 593.164,313.569 583.000,308.000" stroke-width="2.267" stroke="black" fill="none" stroke-linecap="round"></path><path d="M 583.000,308.000 C 568.529,295.928 569.969,298.000 561.000,282.000" stroke-width="2.596" stroke="black" fill="none" stroke-linecap="round"></path><path d="M 561.000,282.000 C 559.471,274.937 558.529,277.428 563.000,271.000" stroke-width="3.107" stroke="black" fill="none" stroke-linecap="round"></path><path d="M 563.000,271.000 C 572.748,256.756 572.471,260.437 587.000,253.000" stroke-width="2.270" stroke="black" fill="none" stroke-linecap="round"></path><path d="M 587.000,253.000 C 649.207,239.012 646.748,237.256 711.000,232.000" stroke-width="1.368" stroke="black" fill="none" stroke-linecap="round"></path><path d="M 711.000,232.000 C 719.449,234.684 719.707,231.012 728.000,237.000" stroke-width="2.145" stroke="black" fill="none" stroke-linecap="round"></path><path d="M 728.000,237.000 C 743.651,240.557 743.449,241.184 759.000,245.000" stroke-width="2.005" stroke="black" fill="none" stroke-linecap="round"></path><path d="M 759.000,245.000 C 762.926,245.872 762.651,246.057 766.000,248.000" stroke-width="3.032" stroke="black" fill="none" stroke-linecap="round"></path><path d="M 766.000,248.000 C 770.081,250.300 769.426,250.372 772.000,254.000" stroke-width="3.503" stroke="black" fill="none" stroke-linecap="round"></path><path d="M 772.000,254.000 C 777.873,264.364 777.081,263.800 780.000,275.000" stroke-width="2.522" stroke="black" fill="none" stroke-linecap="round"></path><path d="M 780.000,275.000 C 779.172,279.545 780.873,279.364 778.000,284.000" stroke-width="3.173" stroke="black" fill="none" stroke-linecap="round"></path><path d="M 778.000,284.000 C 778.402,290.246 776.672,289.045 775.000,294.000" stroke-width="3.331" stroke="black" fill="none" stroke-linecap="round"></path><path d="M 775.000,294.000 C 762.746,306.701 763.902,306.246 749.000,316.000" stroke-width="2.948" stroke="black" fill="none" stroke-linecap="round"></path><path d="M 749.000,316.000 C 743.423,319.250 745.746,318.201 741.000,317.000" stroke-width="3.547" stroke="black" fill="none" stroke-linecap="round"></path><path d="M 741.000,317.000 C 731.155,308.508 736.423,312.750 735.000,303.000" stroke-width="3.728" stroke="black" fill="none" stroke-linecap="round"></path><path d="M 735.000,303.000 C 753.651,279.218 749.655,282.008 778.000,264.000" stroke-width="1.649" stroke="black" fill="none" stroke-linecap="round"></path><path d="M 778.000,264.000 C 815.364,242.586 813.651,241.718 855.000,228.000" stroke-width="1.125" stroke="black" fill="none" stroke-linecap="round"></path><path d="M 855.000,228.000 C 878.725,220.334 877.864,219.586 903.000,218.000" stroke-width="1.275" stroke="black" fill="none" stroke-linecap="round"></path><path d="M 903.000,218.000 C 931.000,218.000 930.725,215.334 959.000,218.000" stroke-width="1.299" stroke="black" fill="none" stroke-linecap="round"></path><path d="M 959.000,218.000 C 965.787,216.964 965.500,218.000 972.000,218.000" stroke-width="2.191" stroke="black" fill="none" stroke-linecap="round"></path><path d="M 972.000,218.000 C 975.800,218.601 974.787,218.464 977.000,221.000" stroke-width="3.529" stroke="black" fill="none" stroke-linecap="round"></path><path d="M 977.000,221.000 C 979.532,226.683 979.300,225.601 979.000,232.000" stroke-width="3.487" stroke="black" fill="none" stroke-linecap="round"></path><path d="M 979.000,232.000 C 977.108,236.550 978.532,236.683 975.000,241.000" stroke-width="3.539" stroke="black" fill="none" stroke-linecap="round"></path><path d="M 975.000,241.000 C 967.874,255.443 968.108,255.550 961.000,270.000" stroke-width="2.990" stroke="black" fill="none" stroke-linecap="round"></path><path d="M 961.000,270.000 C 960.173,274.012 959.374,273.443 958.000,277.000" stroke-width="3.605" stroke="black" fill="none" stroke-linecap="round"></path><path d="M 958.000,277.000 C 956.019,280.124 956.173,279.512 953.000,281.000" stroke-width="3.929" stroke="black" fill="none" stroke-linecap="round"></path><path d="M 953.000,281.000 C 940.052,286.509 940.519,284.624 927.000,286.000" stroke-width="2.378" stroke="black" fill="none" stroke-linecap="round"></path><path d="M 927.000,286.000 C 900.948,284.291 901.552,285.009 876.000,278.000" stroke-width="1.591" stroke="black" fill="none" stroke-linecap="round"></path><path d="M 876.000,278.000 C 844.216,266.762 843.448,269.791 812.000,257.000" stroke-width="1.195" stroke="black" fill="none" stroke-linecap="round"></path><path d="M 812.000,257.000 C 794.944,249.889 794.716,251.762 777.000,248.000" stroke-width="1.562" stroke="black" fill="none" stroke-linecap="round"></path><path d="M 777.000,248.000 C 642.601,234.903 642.944,233.889 508.000,225.000" stroke-width="1.125" stroke="black" fill="none" stroke-linecap="round"></path><path d="M 508.000,225.000 C 459.015,222.524 459.101,221.403 410.000,221.000" stroke-width="1.125" stroke="black" fill="none" stroke-linecap="round"></path><path d="M 410.000,221.000 C 362.479,218.686 362.515,219.524 315.000,219.000" stroke-width="1.125" stroke="black" fill="none" stroke-linecap="round"></path><path d="M 315.000,219.000 C 286.995,220.423 286.979,219.186 259.000,222.000" stroke-width="1.125" stroke="black" fill="none" stroke-linecap="round"></path><path d="M 259.000,222.000 C 251.506,222.674 251.495,222.423 244.000,223.000" stroke-width="1.986" stroke="black" fill="none" stroke-linecap="round"></path><path d="M 244.000,223.000 C 234.911,223.182 240.006,223.174 236.000,223.000" stroke-width="3.262" stroke="black" fill="none" stroke-linecap="round"></path><path d="M 236.000,223.000 C 243.018,222.665 237.911,222.682 250.000,222.000" stroke-width="4.187" stroke="black" fill="none" stroke-linecap="round"></path></svg>