<svg xmlns="http://www.w3.org/2000/svg" xmlns:xlink="http://www.w3.org/1999/xlink" viewBox="0 0 1460 576" width="1460" height="576"><path d="M 898.000,328.000 C 888.470,327.379 888.500,328.000 879.000,328.000" stroke-width="2.885" stroke="black" fill="none" stroke-linecap="round"></path><path d="M 879.000,328.000 C 857.967,329.681 857.970,329.379 837.000,332.000" stroke-width="1.861" stroke="black" fill="none" stroke-linecap="round"></path><path d="M 837.000,332.000 C 749.449,341.610 749.467,341.681 662.000,352.000" stroke-width="1.125" stroke="black" fill="none" stroke-linecap="round"></path><path d="M 662.000,352.000 C 648.598,354.963 648.449,353.610 635.000,356.000" stroke-width="1.323" stroke="black" fill="none" stroke-linecap="round"></path><path d="M 635.000,356.000 C 589.536,359.606 589.598,359.463 544.000,361.000" stroke-width="1.125" stroke="black" fill="none" stroke-linecap="round"></path><path d="M 544.000,361.000 C 491.425,362.813 491.536,362.606 439.000,362.000" stroke-width="1.125" stroke="black" fill="none" stroke-linecap="round"></path><path d="M 439.000,362.000 C 426.823,361.217 426.925,361.813 415.000,359.000" stroke-width="1.494" stroke="black" fill="none" stroke-linecap="round"></path><path d="M 415.000,359.000 C 405.264,358.552 410.823,358.217 407.000,356.000" stroke-width="2.789" stroke="black" fill="none" stroke-linecap="round"></path><path d="M 407.000,356.000 C 417.045,340.188 413.764,346.052 432.000,334.000" stroke-width="2.826" stroke="black" fill="none" stroke-linecap="round"></path><path d="M 432.000,334.000 C 462.500,323.375 460.545,322.188 494.000,320.000" stroke-width="1.437" stroke="black" fill="none" stroke-linecap="round"></path><path d="M 494.000,320.000 C 560.970,315.334 560.500,312.875 628.000,313.000" stroke-width="1.125" stroke="black" fill="none" stroke-linecap="round"></path><path d="M 628.000,313.000 C 661.506,312.647 661.470,311.834 695.000,313.000" stroke-width="1.125" stroke="black" fill="none" stroke-linecap="round"></path><path d="M 695.000,313.000 C 709.014,313.234 709.006,313.147 723.000,314.000" stroke-width="1.516" stroke="black" fill="none" stroke-linecap="round"></path><path d="M 723.000,314.000 C 745.485,315.799 745.514,315.234 768.000,317.000" stroke-width="1.533" stroke="black" fill="none" stroke-linecap="round"></path><path d="M 768.000,317.000 C 782.999,317.531 782.985,317.799 798.000,318.000" stroke-width="1.806" stroke="black" fill="none" stroke-linecap="round"></path><path d="M 798.000,318.000 C 814.999,318.575 814.999,318.531 832.000,319.000" stroke-width="2.206" stroke="black" fill="none" stroke-linecap="round"></path><path d="M 832.000,319.000 C 837.096,317.419 834.999,319.075 838.000,319.000" stroke-width="3.549" stroke="black" fill="none" stroke-linecap="round"></path><path d="M 838.000,319.000 C 838.619,323.634 839.096,320.919 836.000,326.000" stroke-width="3.765" stroke="black" fill="none" stroke-linecap="round"></path><path d="M 836.000,326.000 C 823.275,340.047 823.119,337.634 807.000,347.000" stroke-width="2.072" stroke="black" fill="none" stroke-linecap="round"></path><path d="M 807.000,347.000 C 770.608,361.608 771.775,362.047 733.000,370.000" stroke-width="1.195" stroke="black" fill="none" stroke-linecap="round"></path><path d="M 733.000,370.000 C 691.900,380.181 710.108,375.108 686.000,374.000" stroke-width="1.807" stroke="black" fill="none" stroke-linecap="round"></path><path d="M 686.000,374.000 C 696.050,356.608 681.400,369.181 712.000,348.000" stroke-width="2.618" stroke="black" fill="none" stroke-linecap="round"></path><path d="M 712.000,348.000 C 760.543,322.249 759.050,322.608 812.000,306.000" stroke-width="1.125" stroke="black" fill="none" stroke-linecap="round"></path><path d="M 812.000,306.000 C 856.936,296.666 855.543,292.249 902.000,288.000" stroke-width="1.125" stroke="black" fill="none" stroke-linecap="round"></path><path d="M 902.000,288.000 C 934.955,281.712 934.936,281.666 968.000,276.000" stroke-width="1.125" stroke="black" fill="none" stroke-linecap="round"></path><path d="M 968.000,276.000 C 975.503,275.022 975.455,274.712 983.000,274.000" stroke-width="1.892" stroke="black" fill="none" stroke-linecap="round"></path><path d="M 983.000,274.000 C 991.736,271.447 986.503,273.522 990.000,273.000" stroke-width="3.013" stroke="black" fill="none" stroke-linecap="round"></path><path d="M 990.000,273.000 C 978.107,284.022 982.236,279.947 964.000,291.000" stroke-width="3.286" stroke="black" fill="none" stroke-linecap="round"></path><path d="M 964.000,291.000 C 930.974,306.391 931.607,307.022 897.000,319.000" stroke-width="1.393" stroke="black" fill="none" stroke-linecap="round"></path><path d="M 897.000,319.000 C 882.318,324.994 882.474,324.391 867.000,327.000" stroke-width="1.763" stroke="black" fill="none" stroke-linecap="round"></path><path d="M 867.000,327.000 C 839.780,331.246 840.318,330.494 813.000,330.000" stroke-width="1.448" stroke="black" fill="none" stroke-linecap="round"></path><path d="M 813.000,330.000 C 796.807,327.215 796.780,329.246 781.000,323.000" stroke-width="1.750" stroke="black" fill="none" stroke-linecap="round"></path><path d="M 781.000,323.000 C 766.854,318.906 766.807,319.215 753.000,314.000" stroke-width="1.906" stroke="black" fill="none" stroke-linecap="round"></path><path d="M 753.000,314.000 C 743.067,309.818 742.854,310.406 733.000,306.000" stroke-width="2.225" stroke="black" fill="none" stroke-linecap="round"></path></svg>