<svg xmlns="http://www.w3.org/2000/svg" xmlns:xlink="http://www.w3.org/1999/xlink" viewBox="0 0 1460 576" width="1460" height="576"><path d="M 681.000,300.000 C 667.167,305.983 667.000,305.500 653.000,311.000" stroke-width="3.585" stroke="black" fill="none" stroke-linecap="round"></path><path d="M 653.000,311.000 C 643.150,314.658 643.167,314.483 633.000,317.000" stroke-width="2.770" stroke="black" fill="none" stroke-linecap="round"></path><path d="M 633.000,317.000 C 623.562,319.131 623.650,319.158 614.000,320.000" stroke-width="2.677" stroke="black" fill="none" stroke-linecap="round"></path><path d="M 614.000,320.000 C 601.503,320.662 601.562,321.131 589.000,321.000" stroke-width="2.320" stroke="black" fill="none" stroke-linecap="round"></path><path d="M 589.000,321.000 C 581.285,324.333 583.003,321.162 577.000,321.000" stroke-width="2.881" stroke="black" fill="none" stroke-linecap="round"></path><path d="M 577.000,321.000 C 558.999,310.775 567.785,313.833 562.000,300.000" stroke-width="3.068" stroke="black" fill="none" stroke-linecap="round"></path><path d="M 562.000,300.000 C 576.259,267.093 569.999,271.275 599.000,242.000" stroke-width="1.433" stroke="black" fill="none" stroke-linecap="round"></path><path d="M 599.000,242.000 C 620.553,216.472 619.759,219.093 649.000,204.000" stroke-width="1.216" stroke="black" fill="none" stroke-linecap="round"></path><path d="M 649.000,204.000 C 723.702,167.698 722.053,171.972 802.000,153.000" stroke-width="1.125" stroke="black" fill="none" stroke-linecap="round"></path><path d="M 802.000,153.000 C 864.180,150.373 862.202,141.698 926.000,152.000" stroke-width="1.125" stroke="black" fill="none" stroke-linecap="round"></path><path d="M 926.000,152.000 C 940.102,154.074 940.180,152.373 954.000,157.000" stroke-width="1.508" stroke="black" fill="none" stroke-linecap="round"></path><path d="M 954.000,157.000 C 962.330,155.825 959.102,158.074 964.000,160.000" stroke-width="2.502" stroke="black" fill="none" stroke-linecap="round"></path><path d="M 964.000,160.000 C 967.880,174.152 968.330,170.825 966.000,187.000" stroke-width="2.912" stroke="black" fill="none" stroke-linecap="round"></path><path d="M 966.000,187.000 C 963.745,195.484 964.880,194.652 958.000,201.000" stroke-width="2.894" stroke="black" fill="none" stroke-linecap="round"></path><path d="M 958.000,201.000 C 939.304,221.556 938.745,219.484 916.000,235.000" stroke-width="1.542" stroke="black" fill="none" stroke-linecap="round"></path><path d="M 916.000,235.000 C 846.348,271.250 848.304,274.056 776.000,306.000" stroke-width="1.125" stroke="black" fill="none" stroke-linecap="round"></path><path d="M 776.000,306.000 C 763.424,312.834 763.348,312.250 750.000,317.000" stroke-width="1.655" stroke="black" fill="none" stroke-linecap="round"></path><path d="M 750.000,317.000 C 734.059,321.042 734.424,321.834 718.000,324.000" stroke-width="1.784" stroke="black" fill="none" stroke-linecap="round"></path><path d="M 718.000,324.000 C 710.089,325.568 715.059,324.542 712.000,324.000" stroke-width="3.255" stroke="black" fill="none" stroke-linecap="round"></path><path d="M 712.000,324.000 C 732.887,304.964 729.589,309.568 757.000,292.000" stroke-width="1.548" stroke="black" fill="none" stroke-linecap="round"></path><path d="M 757.000,292.000 C 781.016,283.043 779.387,279.964 805.000,274.000" stroke-width="1.442" stroke="black" fill="none" stroke-linecap="round"></path><path d="M 805.000,274.000 C 811.402,271.199 811.516,271.543 818.000,269.000" stroke-width="2.268" stroke="black" fill="none" stroke-linecap="round"></path><path d="M 818.000,269.000 C 828.753,265.258 823.402,267.199 829.000,266.000" stroke-width="3.351" stroke="black" fill="none" stroke-linecap="round"></path><path d="M 829.000,266.000 C 824.391,269.812 829.253,266.758 819.000,272.000" stroke-width="3.533" stroke="black" fill="none" stroke-linecap="round"></path><path d="M 819.000,272.000 C 789.260,282.393 789.891,283.812 760.000,294.000" stroke-width="1.492" stroke="black" fill="none" stroke-linecap="round"></path><path d="M 760.000,294.000 C 728.262,305.589 728.760,306.393 698.000,320.000" stroke-width="1.179" stroke="black" fill="none" stroke-linecap="round"></path><path d="M 698.000,320.000 C 687.248,327.439 686.262,325.589 676.000,334.000" stroke-width="1.719" stroke="black" fill="none" stroke-linecap="round"></path><path d="M 676.000,334.000 C 669.068,337.652 669.248,337.939 662.000,341.000" stroke-width="2.418" stroke="black" fill="none" stroke-linecap="round"></path><path d="M 662.000,341.000 C 655.435,342.119 659.568,342.152 657.000,343.000" stroke-width="3.444" stroke="black" fill="none" stroke-linecap="round"></path><path d="M 657.000,343.000 C 667.166,350.000 663.435,346.619 678.000,350.000" stroke-width="3.418" stroke="black" fill="none" stroke-linecap="round"></path></svg>