<svg xmlns="http://www.w3.org/2000/svg" xmlns:xlink="http://www.w3.org/1999/xlink" viewBox="0 0 692 576" width="692" height="576"><path d="M 349.000,292.000 C 325.242,291.582 325.500,290.500 302.000,289.000" stroke-width="3.923" stroke="black" fill="none" stroke-linecap="round"></path><path d="M 302.000,289.000 C 298.457,287.596 298.242,288.582 295.000,286.000" stroke-width="3.844" stroke="black" fill="none" stroke-linecap="round"></path><path d="M 295.000,286.000 C 282.970,283.970 285.457,281.596 276.000,277.000" stroke-width="2.732" stroke="black" fill="none" stroke-linecap="round"></path><path d="M 276.000,277.000 C 270.486,268.321 269.470,270.470 268.000,259.000" stroke-width="2.642" stroke="black" fill="none" stroke-linecap="round"></path><path d="M 268.000,259.000 C 266.991,252.720 266.486,253.321 268.000,247.000" stroke-width="3.069" stroke="black" fill="none" stroke-linecap="round"></path><path d="M 268.000,247.000 C 268.879,243.970 268.491,244.220 271.000,242.000" stroke-width="3.809" stroke="black" fill="none" stroke-linecap="round"></path><path d="M 271.000,242.000 C 282.443,229.864 282.879,230.970 296.000,221.000" stroke-width="2.188" stroke="black" fill="none" stroke-linecap="round"></path><path d="M 296.000,221.000 C 308.422,209.041 308.443,212.864 323.000,208.000" stroke-width="2.022" stroke="black" fill="none" stroke-linecap="round"></path><path d="M 323.000,208.000 C 366.472,207.010 364.422,205.041 408.000,213.000" stroke-width="1.125" stroke="black" fill="none" stroke-linecap="round"></path><path d="M 408.000,213.000 C 417.317,218.379 418.472,214.510 427.000,223.000" stroke-width="1.785" stroke="black" fill="none" stroke-linecap="round"></path><path d="M 427.000,223.000 C 439.736,228.054 439.317,228.879 452.000,234.000" stroke-width="2.077" stroke="black" fill="none" stroke-linecap="round"></path><path d="M 452.000,234.000 C 457.822,235.110 456.236,236.054 460.000,239.000" stroke-width="2.959" stroke="black" fill="none" stroke-linecap="round"></path><path d="M 460.000,239.000 C 466.000,249.313 464.822,247.610 466.000,259.000" stroke-width="2.576" stroke="black" fill="none" stroke-linecap="round"></path><path d="M 466.000,259.000 C 464.532,265.826 466.000,264.813 460.000,270.000" stroke-width="3.006" stroke="black" fill="none" stroke-linecap="round"></path><path d="M 460.000,270.000 C 444.717,283.088 445.532,283.326 428.000,294.000" stroke-width="1.868" stroke="black" fill="none" stroke-linecap="round"></path><path d="M 428.000,294.000 C 409.268,312.365 408.717,306.588 388.000,317.000" stroke-width="1.553" stroke="black" fill="none" stroke-linecap="round"></path><path d="M 388.000,317.000 C 367.311,317.131 370.268,320.865 350.000,311.000" stroke-width="2.161" stroke="black" fill="none" stroke-linecap="round"></path><path d="M 350.000,311.000 C 344.370,305.931 343.311,308.631 340.000,300.000" stroke-width="2.639" stroke="black" fill="none" stroke-linecap="round"></path><path d="M 340.000,300.000 C 336.780,296.288 337.370,296.431 336.000,292.000" stroke-width="3.334" stroke="black" fill="none" stroke-linecap="round"></path><path d="M 336.000,292.000 C 334.130,284.411 334.780,285.288 336.000,278.000" stroke-width="3.093" stroke="black" fill="none" stroke-linecap="round"></path><path d="M 336.000,278.000 C 338.336,271.650 337.630,272.411 343.000,268.000" stroke-width="3.218" stroke="black" fill="none" stroke-linecap="round"></path><path d="M 343.000,268.000 C 350.751,263.299 349.836,262.650 359.000,260.000" stroke-width="2.868" stroke="black" fill="none" stroke-linecap="round"></path><path d="M 359.000,260.000 C 363.480,257.819 363.251,258.299 368.000,258.000" stroke-width="3.372" stroke="black" fill="none" stroke-linecap="round"></path><path d="M 368.000,258.000 C 376.658,258.127 375.980,258.319 384.000,261.000" stroke-width="3.007" stroke="black" fill="none" stroke-linecap="round"></path><path d="M 384.000,261.000 C 388.034,263.540 388.158,262.627 391.000,267.000" stroke-width="3.379" stroke="black" fill="none" stroke-linecap="round"></path><path d="M 391.000,267.000 C 393.798,270.841 394.034,270.540 396.000,275.000" stroke-width="3.489" stroke="black" fill="none" stroke-linecap="round"></path><path d="M 396.000,275.000 C 399.293,279.286 398.298,279.341 400.000,284.000" stroke-width="3.590" stroke="black" fill="none" stroke-linecap="round"></path></svg>