<svg xmlns="http://www.w3.org/2000/svg" xmlns:xlink="http://www.w3.org/1999/xlink" viewBox="0 0 1460 576" width="1460" height="576"><path d="M 710.000,352.000 C 706.913,351.857 707.000,351.500 704.000,351.000" stroke-width="5.167" stroke="black" fill="none" stroke-linecap="round"></path><path d="M 704.000,351.000 C 689.674,347.259 689.913,346.857 676.000,342.000" stroke-width="2.514" stroke="black" fill="none" stroke-linecap="round"></path><path d="M 676.000,342.000 C 670.493,339.012 670.174,339.759 665.000,336.000" stroke-width="2.930" stroke="black" fill="none" stroke-linecap="round"></path><path d="M 665.000,336.000 C 653.956,331.921 654.993,330.512 645.000,325.000" stroke-width="2.539" stroke="black" fill="none" stroke-linecap="round"></path><path d="M 645.000,325.000 C 631.052,314.658 631.956,314.921 621.000,302.000" stroke-width="2.718" stroke="black" fill="none" stroke-linecap="round"></path><path d="M 621.000,302.000 C 618.000,296.561 617.552,297.658 618.000,291.000" stroke-width="3.188" stroke="black" fill="none" stroke-linecap="round"></path><path d="M 618.000,291.000 C 616.835,281.545 618.000,283.061 621.000,275.000" stroke-width="2.961" stroke="black" fill="none" stroke-linecap="round"></path><path d="M 621.000,275.000 C 628.473,263.848 627.335,265.045 639.000,258.000" stroke-width="2.390" stroke="black" fill="none" stroke-linecap="round"></path><path d="M 639.000,258.000 C 652.168,250.748 650.973,251.348 666.000,250.000" stroke-width="2.249" stroke="black" fill="none" stroke-linecap="round"></path><path d="M 666.000,250.000 C 690.143,249.031 689.168,248.748 713.000,254.000" stroke-width="1.601" stroke="black" fill="none" stroke-linecap="round"></path><path d="M 713.000,254.000 C 735.568,261.815 736.143,259.031 758.000,270.000" stroke-width="1.558" stroke="black" fill="none" stroke-linecap="round"></path><path d="M 758.000,270.000 C 773.222,274.297 772.568,275.315 787.000,281.000" stroke-width="2.244" stroke="black" fill="none" stroke-linecap="round"></path><path d="M 787.000,281.000 C 793.061,283.475 791.722,283.297 795.000,288.000" stroke-width="2.976" stroke="black" fill="none" stroke-linecap="round"></path><path d="M 795.000,288.000 C 797.934,295.716 797.561,293.975 796.000,302.000" stroke-width="3.049" stroke="black" fill="none" stroke-linecap="round"></path><path d="M 796.000,302.000 C 793.025,309.640 793.934,308.716 787.000,314.000" stroke-width="2.945" stroke="black" fill="none" stroke-linecap="round"></path><path d="M 787.000,314.000 C 754.732,338.476 755.025,337.140 720.000,357.000" stroke-width="1.899" stroke="black" fill="none" stroke-linecap="round"></path><path d="M 720.000,357.000 C 708.568,360.134 709.732,362.476 697.000,362.000" stroke-width="2.247" stroke="black" fill="none" stroke-linecap="round"></path><path d="M 697.000,362.000 C 691.983,363.835 693.068,362.634 689.000,362.000" stroke-width="3.123" stroke="black" fill="none" stroke-linecap="round"></path><path d="M 689.000,362.000 C 682.084,357.831 685.483,359.835 684.000,354.000" stroke-width="3.403" stroke="black" fill="none" stroke-linecap="round"></path><path d="M 684.000,354.000 C 693.928,330.340 693.584,334.831 712.000,316.000" stroke-width="2.560" stroke="black" fill="none" stroke-linecap="round"></path><path d="M 712.000,316.000 C 742.995,295.200 739.928,293.840 776.000,281.000" stroke-width="1.289" stroke="black" fill="none" stroke-linecap="round"></path><path d="M 776.000,281.000 C 787.082,278.105 785.995,276.700 798.000,279.000" stroke-width="1.961" stroke="black" fill="none" stroke-linecap="round"></path><path d="M 798.000,279.000 C 817.950,281.237 817.582,280.605 837.000,286.000" stroke-width="2.318" stroke="black" fill="none" stroke-linecap="round"></path><path d="M 837.000,286.000 C 841.564,288.391 841.950,287.237 846.000,291.000" stroke-width="3.076" stroke="black" fill="none" stroke-linecap="round"></path><path d="M 846.000,291.000 C 850.117,293.330 850.064,293.391 854.000,296.000" stroke-width="3.386" stroke="black" fill="none" stroke-linecap="round"></path><path d="M 854.000,296.000 C 858.576,298.405 858.117,298.830 862.000,302.000" stroke-width="3.438" stroke="black" fill="none" stroke-linecap="round"></path><path d="M 862.000,302.000 C 869.326,308.714 868.576,308.905 874.000,317.000" stroke-width="3.546" stroke="black" fill="none" stroke-linecap="round"></path><path d="M 874.000,317.000 C 878.792,329.095 880.326,328.214 884.000,341.000" stroke-width="2.504" stroke="black" fill="none" stroke-linecap="round"></path><path d="M 884.000,341.000 C 885.025,345.826 885.792,345.095 888.000,349.000" stroke-width="3.187" stroke="black" fill="none" stroke-linecap="round"></path><path d="M 888.000,349.000 C 892.596,356.106 892.525,353.826 899.000,357.000" stroke-width="3.083" stroke="black" fill="none" stroke-linecap="round"></path><path d="M 899.000,357.000 C 915.878,358.320 914.096,359.106 931.000,355.000" stroke-width="2.978" stroke="black" fill="none" stroke-linecap="round"></path><path d="M 931.000,355.000 C 936.136,352.105 936.378,353.820 940.000,348.000" stroke-width="3.127" stroke="black" fill="none" stroke-linecap="round"></path></svg>