<svg xmlns="http://www.w3.org/2000/svg" xmlns:xlink="http://www.w3.org/1999/xlink" viewBox="0 0 1460 576" width="1460" height="576"><path d="M 745.000,307.000 C 742.484,307.427 742.500,307.500 740.000,308.000" stroke-width="4.735" stroke="black" fill="none" stroke-linecap="round"></path><path d="M 740.000,308.000 C 736.101,309.738 735.984,308.927 732.000,310.000" stroke-width="3.969" stroke="black" fill="none" stroke-linecap="round"></path><path d="M 732.000,310.000 C 712.492,311.000 712.601,311.238 693.000,311.000" stroke-width="2.059" stroke="black" fill="none" stroke-linecap="round"></path><path d="M 693.000,311.000 C 684.502,310.472 684.492,311.000 676.000,310.000" stroke-width="2.533" stroke="black" fill="none" stroke-linecap="round"></path><path d="M 676.000,310.000 C 666.455,309.915 666.502,309.472 657.000,309.000" stroke-width="2.558" stroke="black" fill="none" stroke-linecap="round"></path><path d="M 657.000,309.000 C 650.064,309.968 650.955,308.415 645.000,307.000" stroke-width="2.973" stroke="black" fill="none" stroke-linecap="round"></path><path d="M 645.000,307.000 C 635.191,300.326 635.564,301.468 628.000,292.000" stroke-width="2.490" stroke="black" fill="none" stroke-linecap="round"></path><path d="M 628.000,292.000 C 625.651,288.486 625.691,289.326 626.000,285.000" stroke-width="3.353" stroke="black" fill="none" stroke-linecap="round"></path><path d="M 626.000,285.000 C 626.916,278.005 626.651,278.486 630.000,272.000" stroke-width="3.128" stroke="black" fill="none" stroke-linecap="round"></path><path d="M 630.000,272.000 C 634.545,256.934 636.416,259.505 645.000,248.000" stroke-width="2.270" stroke="black" fill="none" stroke-linecap="round"></path><path d="M 645.000,248.000 C 663.508,231.748 662.045,233.434 685.000,225.000" stroke-width="1.564" stroke="black" fill="none" stroke-linecap="round"></path><path d="M 685.000,225.000 C 708.606,217.865 706.508,218.248 731.000,221.000" stroke-width="1.528" stroke="black" fill="none" stroke-linecap="round"></path><path d="M 731.000,221.000 C 760.484,226.943 758.606,224.865 785.000,239.000" stroke-width="1.715" stroke="black" fill="none" stroke-linecap="round"></path><path d="M 785.000,239.000 C 790.307,244.371 790.984,241.943 792.000,251.000" stroke-width="2.493" stroke="black" fill="none" stroke-linecap="round"></path><path d="M 792.000,251.000 C 797.705,269.070 796.307,267.871 797.000,286.000" stroke-width="1.924" stroke="black" fill="none" stroke-linecap="round"></path><path d="M 797.000,286.000 C 795.122,293.781 796.705,293.070 790.000,299.000" stroke-width="2.530" stroke="black" fill="none" stroke-linecap="round"></path><path d="M 790.000,299.000 C 768.804,322.532 768.622,320.781 744.000,340.000" stroke-width="2.134" stroke="black" fill="none" stroke-linecap="round"></path><path d="M 744.000,340.000 C 731.682,345.541 733.304,347.532 719.000,349.000" stroke-width="2.176" stroke="black" fill="none" stroke-linecap="round"></path><path d="M 719.000,349.000 C 714.124,351.187 715.182,350.041 711.000,349.000" stroke-width="3.117" stroke="black" fill="none" stroke-linecap="round"></path><path d="M 711.000,349.000 C 698.209,339.511 699.124,340.687 689.000,328.000" stroke-width="2.982" stroke="black" fill="none" stroke-linecap="round"></path><path d="M 689.000,328.000 C 686.487,323.449 686.209,324.511 687.000,319.000" stroke-width="3.418" stroke="black" fill="none" stroke-linecap="round"></path><path d="M 687.000,319.000 C 688.562,310.104 687.987,310.449 692.000,302.000" stroke-width="2.925" stroke="black" fill="none" stroke-linecap="round"></path><path d="M 692.000,302.000 C 703.355,287.884 695.562,293.604 701.000,286.000" stroke-width="3.376" stroke="black" fill="none" stroke-linecap="round"></path><path d="M 701.000,286.000 C 691.415,289.815 698.355,283.884 682.000,294.000" stroke-width="3.749" stroke="black" fill="none" stroke-linecap="round"></path><path d="M 682.000,294.000 C 678.169,296.388 677.915,295.815 674.000,298.000" stroke-width="3.704" stroke="black" fill="none" stroke-linecap="round"></path><path d="M 674.000,298.000 C 641.373,314.057 640.669,310.888 607.000,323.000" stroke-width="1.372" stroke="black" fill="none" stroke-linecap="round"></path><path d="M 607.000,323.000 C 579.094,328.014 579.873,330.057 551.000,330.000" stroke-width="1.322" stroke="black" fill="none" stroke-linecap="round"></path><path d="M 551.000,330.000 C 529.335,331.422 529.594,331.514 508.000,330.000" stroke-width="1.458" stroke="black" fill="none" stroke-linecap="round"></path><path d="M 508.000,330.000 C 499.091,329.173 499.335,329.422 491.000,326.000" stroke-width="2.279" stroke="black" fill="none" stroke-linecap="round"></path><path d="M 491.000,326.000 C 473.495,318.823 473.591,319.173 457.000,310.000" stroke-width="1.824" stroke="black" fill="none" stroke-linecap="round"></path><path d="M 457.000,310.000 C 452.560,306.420 451.995,307.323 448.000,303.000" stroke-width="2.685" stroke="black" fill="none" stroke-linecap="round"></path><path d="M 448.000,303.000 C 442.942,298.200 442.560,298.920 437.000,295.000" stroke-width="2.979" stroke="black" fill="none" stroke-linecap="round"></path><path d="M 437.000,295.000 C 429.583,291.757 429.942,291.200 422.000,289.000" stroke-width="2.912" stroke="black" fill="none" stroke-linecap="round"></path><path d="M 422.000,289.000 C 418.492,288.027 418.583,287.757 415.000,287.000" stroke-width="3.562" stroke="black" fill="none" stroke-linecap="round"></path><path d="M 415.000,287.000 C 410.032,285.388 409.992,285.527 405.000,284.000" stroke-width="3.387" stroke="black" fill="none" stroke-linecap="round"></path><path d="M 405.000,284.000 C 395.560,281.231 395.532,281.388 386.000,279.000" stroke-width="2.733" stroke="black" fill="none" stroke-linecap="round"></path><path d="M 386.000,279.000 C 380.548,277.462 380.560,277.731 375.000,277.000" stroke-width="3.164" stroke="black" fill="none" stroke-linecap="round"></path><path d="M 375.000,277.000 C 368.500,277.000 368.548,276.462 362.000,277.000" stroke-width="3.180" stroke="black" fill="none" stroke-linecap="round"></path><path d="M 362.000,277.000 C 354.500,277.000 354.500,277.000 347.000,277.000" stroke-width="3.043" stroke="black" fill="none" stroke-linecap="round"></path><path d="M 347.000,277.000 C 340.953,279.383 343.500,277.000 340.000,277.000" stroke-width="4.009" stroke="black" fill="none" stroke-linecap="round"></path><path d="M 340.000,277.000 C 336.998,267.526 337.953,271.883 341.000,262.000" stroke-width="3.163" stroke="black" fill="none" stroke-linecap="round"></path><path d="M 341.000,262.000 C 349.469,251.203 347.498,253.026 361.000,248.000" stroke-width="2.512" stroke="black" fill="none" stroke-linecap="round"></path><path d="M 361.000,248.000 C 395.787,238.891 394.469,238.703 431.000,237.000" stroke-width="1.258" stroke="black" fill="none" stroke-linecap="round"></path><path d="M 431.000,237.000 C 470.709,236.038 470.287,234.891 510.000,240.000" stroke-width="1.125" stroke="black" fill="none" stroke-linecap="round"></path><path d="M 510.000,240.000 C 590.534,245.358 589.709,248.038 669.000,261.000" stroke-width="1.125" stroke="black" fill="none" stroke-linecap="round"></path><path d="M 669.000,261.000 C 741.946,283.343 743.534,275.858 816.000,301.000" stroke-width="1.125" stroke="black" fill="none" stroke-linecap="round"></path><path d="M 816.000,301.000 C 882.647,316.602 882.446,316.843 950.000,328.000" stroke-width="1.125" stroke="black" fill="none" stroke-linecap="round"></path><path d="M 950.000,328.000 C 1012.813,338.779 1012.647,338.602 1076.000,345.000" stroke-width="1.125" stroke="black" fill="none" stroke-linecap="round"></path><path d="M 1076.000,345.000 C 1109.493,346.468 1109.313,348.279 1143.000,347.000" stroke-width="1.125" stroke="black" fill="none" stroke-linecap="round"></path><path d="M 1143.000,347.000 C 1172.500,347.000 1172.493,347.468 1202.000,347.000" stroke-width="1.125" stroke="black" fill="none" stroke-linecap="round"></path><path d="M 1202.000,347.000 C 1222.000,347.000 1222.000,347.000 1242.000,347.000" stroke-width="1.417" stroke="black" fill="none" stroke-linecap="round"></path><path d="M 1242.000,347.000 C 1246.507,345.293 1245.000,347.000 1248.000,347.000" stroke-width="2.631" stroke="black" fill="none" stroke-linecap="round"></path><path d="M 1248.000,347.000 C 1250.687,351.626 1250.007,349.293 1249.000,355.000" stroke-width="3.890" stroke="black" fill="none" stroke-linecap="round"></path><path d="M 1249.000,355.000 C 1244.813,365.939 1244.687,363.626 1236.000,371.000" stroke-width="2.763" stroke="black" fill="none" stroke-linecap="round"></path><path d="M 1236.000,371.000 C 1193.435,396.034 1194.313,394.939 1148.000,413.000" stroke-width="1.125" stroke="black" fill="none" stroke-linecap="round"></path><path d="M 1148.000,413.000 C 1113.330,423.413 1114.435,425.534 1078.000,430.000" stroke-width="1.125" stroke="black" fill="none" stroke-linecap="round"></path><path d="M 1078.000,430.000 C 1054.054,433.881 1054.330,434.413 1030.000,435.000" stroke-width="1.295" stroke="black" fill="none" stroke-linecap="round"></path><path d="M 1030.000,435.000 C 1010.782,436.466 1011.054,435.881 992.000,434.000" stroke-width="1.576" stroke="black" fill="none" stroke-linecap="round"></path><path d="M 992.000,434.000 C 961.349,428.615 961.282,429.966 931.000,422.000" stroke-width="1.299" stroke="black" fill="none" stroke-linecap="round"></path><path d="M 931.000,422.000 C 922.530,419.388 922.349,420.115 914.000,417.000" stroke-width="1.990" stroke="black" fill="none" stroke-linecap="round"></path><path d="M 914.000,417.000 C 908.859,417.339 910.030,415.888 906.000,415.000" stroke-width="2.980" stroke="black" fill="none" stroke-linecap="round"></path><path d="M 906.000,415.000 C 902.407,411.358 903.359,412.839 903.000,408.000" stroke-width="4.104" stroke="black" fill="none" stroke-linecap="round"></path><path d="M 903.000,408.000 C 906.264,403.131 903.907,402.858 909.000,398.000" stroke-width="3.469" stroke="black" fill="none" stroke-linecap="round"></path><path d="M 909.000,398.000 C 911.545,395.362 910.264,395.631 911.000,393.000" stroke-width="4.458" stroke="black" fill="none" stroke-linecap="round"></path><path d="M 911.000,393.000 C 909.919,386.874 910.045,388.862 906.000,385.000" stroke-width="3.772" stroke="black" fill="none" stroke-linecap="round"></path><path d="M 906.000,385.000 C 897.085,382.606 898.419,381.374 888.000,382.000" stroke-width="2.891" stroke="black" fill="none" stroke-linecap="round"></path><path d="M 888.000,382.000 C 867.003,381.288 867.085,380.606 846.000,381.000" stroke-width="1.802" stroke="black" fill="none" stroke-linecap="round"></path><path d="M 846.000,381.000 C 830.500,381.000 830.503,380.788 815.000,381.000" stroke-width="1.931" stroke="black" fill="none" stroke-linecap="round"></path><path d="M 815.000,381.000 C 808.928,381.684 809.000,381.000 803.000,381.000" stroke-width="2.720" stroke="black" fill="none" stroke-linecap="round"></path><path d="M 803.000,381.000 C 796.005,379.475 795.928,380.184 789.000,378.000" stroke-width="2.889" stroke="black" fill="none" stroke-linecap="round"></path><path d="M 789.000,378.000 C 786.137,378.246 786.505,377.475 784.000,377.000" stroke-width="3.765" stroke="black" fill="none" stroke-linecap="round"></path><path d="M 784.000,377.000 C 779.647,374.666 780.137,374.746 777.000,371.000" stroke-width="3.682" stroke="black" fill="none" stroke-linecap="round"></path><path d="M 777.000,371.000 C 773.749,365.109 773.147,365.666 771.000,359.000" stroke-width="3.288" stroke="black" fill="none" stroke-linecap="round"></path></svg>