<svg xmlns="http://www.w3.org/2000/svg" xmlns:xlink="http://www.w3.org/1999/xlink" viewBox="0 0 1460 576" width="1460" height="576"><path d="M 886.000,320.000 C 878.646,316.982 878.500,317.500 871.000,315.000" stroke-width="3.798" stroke="black" fill="none" stroke-linecap="round"></path><path d="M 871.000,315.000 C 851.741,308.889 851.646,309.982 832.000,306.000" stroke-width="2.014" stroke="black" fill="none" stroke-linecap="round"></path><path d="M 832.000,306.000 C 810.495,304.563 810.741,302.889 789.000,303.000" stroke-width="1.846" stroke="black" fill="none" stroke-linecap="round"></path><path d="M 789.000,303.000 C 782.853,303.254 782.995,302.563 777.000,302.000" stroke-width="2.666" stroke="black" fill="none" stroke-linecap="round"></path><path d="M 777.000,302.000 C 767.811,301.379 768.853,300.254 761.000,297.000" stroke-width="2.884" stroke="black" fill="none" stroke-linecap="round"></path><path d="M 761.000,297.000 C 753.299,291.165 753.811,292.379 749.000,284.000" stroke-width="3.364" stroke="black" fill="none" stroke-linecap="round"></path><path d="M 749.000,284.000 C 747.143,279.630 747.299,281.165 749.000,277.000" stroke-width="3.681" stroke="black" fill="none" stroke-linecap="round"></path><path d="M 749.000,277.000 C 754.202,270.708 753.143,271.130 761.000,267.000" stroke-width="2.980" stroke="black" fill="none" stroke-linecap="round"></path><path d="M 761.000,267.000 C 776.154,256.887 776.202,258.708 793.000,253.000" stroke-width="2.080" stroke="black" fill="none" stroke-linecap="round"></path><path d="M 793.000,253.000 C 822.739,244.199 821.654,246.387 852.000,246.000" stroke-width="1.421" stroke="black" fill="none" stroke-linecap="round"></path><path d="M 852.000,246.000 C 887.975,252.138 887.739,248.199 923.000,261.000" stroke-width="1.571" stroke="black" fill="none" stroke-linecap="round"></path><path d="M 923.000,261.000 C 931.164,262.204 929.475,262.638 935.000,267.000" stroke-width="2.418" stroke="black" fill="none" stroke-linecap="round"></path><path d="M 935.000,267.000 C 943.373,276.091 939.164,272.204 939.000,281.000" stroke-width="2.816" stroke="black" fill="none" stroke-linecap="round"></path><path d="M 939.000,281.000 C 912.788,301.909 918.873,303.591 886.000,322.000" stroke-width="1.386" stroke="black" fill="none" stroke-linecap="round"></path><path d="M 886.000,322.000 C 880.676,325.796 880.788,325.909 875.000,329.000" stroke-width="2.261" stroke="black" fill="none" stroke-linecap="round"></path><path d="M 875.000,329.000 C 820.781,367.104 818.676,360.796 762.000,392.000" stroke-width="1.125" stroke="black" fill="none" stroke-linecap="round"></path><path d="M 762.000,392.000 C 733.700,399.534 735.781,403.104 705.000,401.000" stroke-width="1.125" stroke="black" fill="none" stroke-linecap="round"></path><path d="M 705.000,401.000 C 664.806,401.679 665.200,403.034 625.000,399.000" stroke-width="1.125" stroke="black" fill="none" stroke-linecap="round"></path><path d="M 625.000,399.000 C 612.255,398.181 612.806,398.179 601.000,394.000" stroke-width="1.671" stroke="black" fill="none" stroke-linecap="round"></path><path d="M 601.000,394.000 C 594.976,390.593 594.755,391.681 590.000,386.000" stroke-width="2.478" stroke="black" fill="none" stroke-linecap="round"></path><path d="M 590.000,386.000 C 582.149,378.278 581.976,378.593 575.000,370.000" stroke-width="2.403" stroke="black" fill="none" stroke-linecap="round"></path><path d="M 575.000,370.000 C 571.890,367.336 572.649,367.278 571.000,364.000" stroke-width="3.311" stroke="black" fill="none" stroke-linecap="round"></path><path d="M 571.000,364.000 C 569.061,358.879 569.890,359.836 571.000,355.000" stroke-width="3.606" stroke="black" fill="none" stroke-linecap="round"></path><path d="M 571.000,355.000 C 575.680,341.145 576.561,343.879 586.000,334.000" stroke-width="2.371" stroke="black" fill="none" stroke-linecap="round"></path><path d="M 586.000,334.000 C 610.608,320.938 608.180,318.645 636.000,310.000" stroke-width="2.143" stroke="black" fill="none" stroke-linecap="round"></path><path d="M 636.000,310.000 C 651.219,304.252 643.108,306.938 651.000,306.000" stroke-width="2.596" stroke="black" fill="none" stroke-linecap="round"></path><path d="M 651.000,306.000 C 643.572,312.945 650.719,308.252 635.000,318.000" stroke-width="3.615" stroke="black" fill="none" stroke-linecap="round"></path><path d="M 635.000,318.000 C 623.808,324.277 624.072,324.445 612.000,329.000" stroke-width="2.465" stroke="black" fill="none" stroke-linecap="round"></path><path d="M 612.000,329.000 C 601.205,333.394 601.308,333.277 590.000,336.000" stroke-width="2.349" stroke="black" fill="none" stroke-linecap="round"></path><path d="M 590.000,336.000 C 578.428,341.933 579.705,338.394 569.000,339.000" stroke-width="2.454" stroke="black" fill="none" stroke-linecap="round"></path><path d="M 569.000,339.000 C 550.351,334.142 555.928,334.933 545.000,322.000" stroke-width="2.822" stroke="black" fill="none" stroke-linecap="round"></path><path d="M 545.000,322.000 C 541.045,300.529 537.351,304.642 543.000,280.000" stroke-width="1.857" stroke="black" fill="none" stroke-linecap="round"></path><path d="M 543.000,280.000 C 546.127,269.050 544.045,269.029 551.000,259.000" stroke-width="2.170" stroke="black" fill="none" stroke-linecap="round"></path><path d="M 551.000,259.000 C 553.281,251.214 554.127,252.550 559.000,247.000" stroke-width="2.668" stroke="black" fill="none" stroke-linecap="round"></path><path d="M 559.000,247.000 C 582.720,229.232 581.781,230.214 608.000,217.000" stroke-width="2.236" stroke="black" fill="none" stroke-linecap="round"></path><path d="M 608.000,217.000 C 614.913,215.361 613.720,214.232 621.000,217.000" stroke-width="2.827" stroke="black" fill="none" stroke-linecap="round"></path><path d="M 621.000,217.000 C 628.692,219.251 627.913,218.861 634.000,224.000" stroke-width="2.895" stroke="black" fill="none" stroke-linecap="round"></path><path d="M 634.000,224.000 C 638.799,228.367 638.192,227.751 640.000,234.000" stroke-width="3.190" stroke="black" fill="none" stroke-linecap="round"></path><path d="M 640.000,234.000 C 645.995,259.528 645.299,258.867 647.000,285.000" stroke-width="2.424" stroke="black" fill="none" stroke-linecap="round"></path><path d="M 647.000,285.000 C 643.987,297.419 647.495,297.528 643.000,310.000" stroke-width="2.363" stroke="black" fill="none" stroke-linecap="round"></path><path d="M 643.000,310.000 C 643.000,323.000 641.987,322.919 643.000,336.000" stroke-width="2.264" stroke="black" fill="none" stroke-linecap="round"></path></svg>