<svg xmlns="http://www.w3.org/2000/svg" xmlns:xlink="http://www.w3.org/1999/xlink" viewBox="0 0 1460 576" width="1460" height="576"><path d="M 727.000,358.000 C 722.049,356.505 722.000,357.000 717.000,356.000" stroke-width="3.631" stroke="black" fill="none" stroke-linecap="round"></path><path d="M 717.000,356.000 C 711.967,356.527 712.049,355.505 707.000,356.000" stroke-width="3.568" stroke="black" fill="none" stroke-linecap="round"></path><path d="M 707.000,356.000 C 678.888,353.146 678.967,353.027 651.000,349.000" stroke-width="1.544" stroke="black" fill="none" stroke-linecap="round"></path><path d="M 651.000,349.000 C 641.382,348.657 641.888,347.646 633.000,345.000" stroke-width="2.204" stroke="black" fill="none" stroke-linecap="round"></path><path d="M 633.000,345.000 C 614.135,335.579 613.882,336.657 596.000,325.000" stroke-width="1.759" stroke="black" fill="none" stroke-linecap="round"></path><path d="M 596.000,325.000 C 588.239,322.812 590.135,321.579 585.000,317.000" stroke-width="2.495" stroke="black" fill="none" stroke-linecap="round"></path><path d="M 585.000,317.000 C 572.418,290.725 571.239,292.312 562.000,264.000" stroke-width="1.553" stroke="black" fill="none" stroke-linecap="round"></path><path d="M 562.000,264.000 C 561.258,260.887 560.918,261.225 562.000,258.000" stroke-width="2.765" stroke="black" fill="none" stroke-linecap="round"></path><path d="M 562.000,258.000 C 561.295,239.127 565.758,243.387 571.000,229.000" stroke-width="2.132" stroke="black" fill="none" stroke-linecap="round"></path><path d="M 571.000,229.000 C 588.117,213.778 584.295,215.127 608.000,210.000" stroke-width="1.639" stroke="black" fill="none" stroke-linecap="round"></path><path d="M 608.000,210.000 C 639.500,210.000 638.117,204.278 671.000,210.000" stroke-width="1.254" stroke="black" fill="none" stroke-linecap="round"></path><path d="M 671.000,210.000 C 694.488,206.905 694.000,210.000 717.000,210.000" stroke-width="1.386" stroke="black" fill="none" stroke-linecap="round"></path><path d="M 717.000,210.000 C 734.854,213.498 734.488,212.405 751.000,221.000" stroke-width="1.616" stroke="black" fill="none" stroke-linecap="round"></path><path d="M 751.000,221.000 C 783.905,237.826 784.354,236.498 816.000,256.000" stroke-width="1.131" stroke="black" fill="none" stroke-linecap="round"></path><path d="M 816.000,256.000 C 825.110,261.845 825.405,261.326 834.000,268.000" stroke-width="1.792" stroke="black" fill="none" stroke-linecap="round"></path><path d="M 834.000,268.000 C 839.306,269.959 838.110,270.845 842.000,274.000" stroke-width="2.705" stroke="black" fill="none" stroke-linecap="round"></path><path d="M 842.000,274.000 C 851.253,283.053 847.306,281.959 850.000,292.000" stroke-width="2.574" stroke="black" fill="none" stroke-linecap="round"></path><path d="M 850.000,292.000 C 843.767,308.714 847.753,308.053 835.000,324.000" stroke-width="1.938" stroke="black" fill="none" stroke-linecap="round"></path><path d="M 835.000,324.000 C 826.022,344.669 824.267,342.714 811.000,360.000" stroke-width="1.624" stroke="black" fill="none" stroke-linecap="round"></path><path d="M 811.000,360.000 C 775.134,392.324 777.522,394.169 738.000,423.000" stroke-width="1.125" stroke="black" fill="none" stroke-linecap="round"></path><path d="M 738.000,423.000 C 728.837,430.098 729.134,430.324 719.000,436.000" stroke-width="1.645" stroke="black" fill="none" stroke-linecap="round"></path><path d="M 719.000,436.000 C 713.770,439.746 713.837,439.098 708.000,441.000" stroke-width="2.562" stroke="black" fill="none" stroke-linecap="round"></path><path d="M 708.000,441.000 C 700.648,443.746 702.270,442.246 696.000,441.000" stroke-width="2.986" stroke="black" fill="none" stroke-linecap="round"></path><path d="M 696.000,441.000 C 688.887,435.219 689.648,437.246 686.000,428.000" stroke-width="2.899" stroke="black" fill="none" stroke-linecap="round"></path><path d="M 686.000,428.000 C 685.345,421.894 683.887,422.719 686.000,416.000" stroke-width="3.167" stroke="black" fill="none" stroke-linecap="round"></path><path d="M 686.000,416.000 C 685.679,412.048 686.345,412.894 688.000,410.000" stroke-width="4.507" stroke="black" fill="none" stroke-linecap="round"></path><path d="M 688.000,410.000 C 703.192,396.757 702.679,397.048 720.000,386.000" stroke-width="1.992" stroke="black" fill="none" stroke-linecap="round"></path><path d="M 720.000,386.000 C 740.611,372.177 740.692,372.757 763.000,362.000" stroke-width="1.573" stroke="black" fill="none" stroke-linecap="round"></path><path d="M 763.000,362.000 C 828.588,330.878 828.611,332.177 896.000,306.000" stroke-width="1.125" stroke="black" fill="none" stroke-linecap="round"></path><path d="M 896.000,306.000 C 913.499,302.994 912.588,299.878 931.000,300.000" stroke-width="1.226" stroke="black" fill="none" stroke-linecap="round"></path><path d="M 931.000,300.000 C 951.717,297.395 951.499,296.494 972.000,293.000" stroke-width="1.444" stroke="black" fill="none" stroke-linecap="round"></path><path d="M 972.000,293.000 C 988.161,287.000 981.717,290.895 991.000,287.000" stroke-width="2.358" stroke="black" fill="none" stroke-linecap="round"></path><path d="M 991.000,287.000 C 986.271,290.553 992.661,287.000 981.000,293.000" stroke-width="3.504" stroke="black" fill="none" stroke-linecap="round"></path><path d="M 981.000,293.000 C 971.871,296.198 972.271,297.053 963.000,300.000" stroke-width="2.845" stroke="black" fill="none" stroke-linecap="round"></path><path d="M 963.000,300.000 C 954.506,304.013 954.371,303.698 946.000,308.000" stroke-width="2.660" stroke="black" fill="none" stroke-linecap="round"></path><path d="M 946.000,308.000 C 938.545,311.605 938.506,311.513 931.000,315.000" stroke-width="2.732" stroke="black" fill="none" stroke-linecap="round"></path><path d="M 931.000,315.000 C 924.282,317.991 928.545,316.105 926.000,317.000" stroke-width="3.654" stroke="black" fill="none" stroke-linecap="round"></path><path d="M 926.000,317.000 C 940.779,306.361 937.282,310.491 957.000,300.000" stroke-width="3.395" stroke="black" fill="none" stroke-linecap="round"></path><path d="M 957.000,300.000 C 966.958,297.941 966.279,296.361 977.000,297.000" stroke-width="2.771" stroke="black" fill="none" stroke-linecap="round"></path><path d="M 977.000,297.000 C 983.000,297.000 982.958,296.441 989.000,297.000" stroke-width="3.067" stroke="black" fill="none" stroke-linecap="round"></path></svg>