<svg xmlns="http://www.w3.org/2000/svg" xmlns:xlink="http://www.w3.org/1999/xlink" viewBox="0 0 692 576" width="692" height="576"><path d="M 370.000,324.000 C 360.130,328.364 360.000,328.000 350.000,332.000" stroke-width="3.455" stroke="black" fill="none" stroke-linecap="round"></path><path d="M 350.000,332.000 C 340.758,337.835 340.630,335.364 331.000,338.000" stroke-width="2.800" stroke="black" fill="none" stroke-linecap="round"></path><path d="M 331.000,338.000 C 310.664,336.863 311.258,338.335 291.000,333.000" stroke-width="1.899" stroke="black" fill="none" stroke-linecap="round"></path><path d="M 291.000,333.000 C 283.178,329.436 282.664,331.363 275.000,327.000" stroke-width="2.408" stroke="black" fill="none" stroke-linecap="round"></path><path d="M 275.000,327.000 C 259.242,323.690 259.678,322.436 244.000,319.000" stroke-width="2.069" stroke="black" fill="none" stroke-linecap="round"></path><path d="M 244.000,319.000 C 238.892,318.269 239.742,317.690 236.000,315.000" stroke-width="2.950" stroke="black" fill="none" stroke-linecap="round"></path><path d="M 236.000,315.000 C 227.512,304.397 227.392,305.269 221.000,293.000" stroke-width="2.308" stroke="black" fill="none" stroke-linecap="round"></path><path d="M 221.000,293.000 C 219.788,289.972 219.512,290.397 220.000,287.000" stroke-width="3.345" stroke="black" fill="none" stroke-linecap="round"></path><path d="M 220.000,287.000 C 218.877,281.511 220.288,282.972 222.000,279.000" stroke-width="3.643" stroke="black" fill="none" stroke-linecap="round"></path><path d="M 222.000,279.000 C 244.202,256.963 244.377,261.011 271.000,246.000" stroke-width="1.564" stroke="black" fill="none" stroke-linecap="round"></path><path d="M 271.000,246.000 C 301.315,238.384 299.202,234.463 332.000,234.000" stroke-width="1.250" stroke="black" fill="none" stroke-linecap="round"></path><path d="M 332.000,234.000 C 347.185,231.209 346.815,231.884 362.000,233.000" stroke-width="1.712" stroke="black" fill="none" stroke-linecap="round"></path><path d="M 362.000,233.000 C 393.175,236.866 392.685,236.709 423.000,245.000" stroke-width="1.325" stroke="black" fill="none" stroke-linecap="round"></path><path d="M 423.000,245.000 C 436.833,250.417 437.175,248.866 450.000,257.000" stroke-width="1.722" stroke="black" fill="none" stroke-linecap="round"></path><path d="M 450.000,257.000 C 454.447,258.650 453.833,258.917 457.000,262.000" stroke-width="2.736" stroke="black" fill="none" stroke-linecap="round"></path><path d="M 457.000,262.000 C 464.238,269.442 462.447,269.150 466.000,278.000" stroke-width="2.653" stroke="black" fill="none" stroke-linecap="round"></path><path d="M 466.000,278.000 C 468.894,289.224 467.738,286.442 464.000,296.000" stroke-width="2.757" stroke="black" fill="none" stroke-linecap="round"></path><path d="M 464.000,296.000 C 452.267,305.375 455.894,307.224 440.000,314.000" stroke-width="2.143" stroke="black" fill="none" stroke-linecap="round"></path><path d="M 440.000,314.000 C 420.907,329.465 420.267,327.875 400.000,341.000" stroke-width="1.619" stroke="black" fill="none" stroke-linecap="round"></path><path d="M 400.000,341.000 C 390.953,345.337 391.907,345.465 382.000,346.000" stroke-width="2.240" stroke="black" fill="none" stroke-linecap="round"></path><path d="M 382.000,346.000 C 376.276,346.103 377.453,346.337 373.000,343.000" stroke-width="3.010" stroke="black" fill="none" stroke-linecap="round"></path><path d="M 373.000,343.000 C 364.846,336.613 366.776,337.103 363.000,328.000" stroke-width="2.868" stroke="black" fill="none" stroke-linecap="round"></path><path d="M 363.000,328.000 C 358.829,300.353 357.346,301.613 358.000,273.000" stroke-width="1.518" stroke="black" fill="none" stroke-linecap="round"></path><path d="M 358.000,273.000 C 358.134,266.776 357.829,267.353 361.000,262.000" stroke-width="2.466" stroke="black" fill="none" stroke-linecap="round"></path><path d="M 361.000,262.000 C 365.015,251.833 365.634,254.276 373.000,248.000" stroke-width="2.624" stroke="black" fill="none" stroke-linecap="round"></path><path d="M 373.000,248.000 C 392.458,237.701 390.015,239.833 411.000,238.000" stroke-width="1.837" stroke="black" fill="none" stroke-linecap="round"></path><path d="M 411.000,238.000 C 423.295,242.970 423.458,238.201 435.000,249.000" stroke-width="2.028" stroke="black" fill="none" stroke-linecap="round"></path><path d="M 435.000,249.000 C 440.373,251.146 439.795,251.470 444.000,255.000" stroke-width="2.845" stroke="black" fill="none" stroke-linecap="round"></path><path d="M 444.000,255.000 C 450.808,260.042 448.373,259.646 451.000,266.000" stroke-width="3.018" stroke="black" fill="none" stroke-linecap="round"></path><path d="M 451.000,266.000 C 450.514,277.610 451.308,275.542 445.000,286.000" stroke-width="2.716" stroke="black" fill="none" stroke-linecap="round"></path><path d="M 445.000,286.000 C 436.184,293.164 439.014,295.110 428.000,301.000" stroke-width="2.495" stroke="black" fill="none" stroke-linecap="round"></path><path d="M 428.000,301.000 C 413.801,316.994 412.684,315.664 398.000,331.000" stroke-width="1.740" stroke="black" fill="none" stroke-linecap="round"></path><path d="M 398.000,331.000 C 390.861,335.306 391.801,336.494 384.000,340.000" stroke-width="2.388" stroke="black" fill="none" stroke-linecap="round"></path></svg>