<svg xmlns="http://www.w3.org/2000/svg" xmlns:xlink="http://www.w3.org/1999/xlink" viewBox="0 0 692 576" width="692" height="576"><path d="M 389.000,278.000 C 383.082,280.719 383.000,280.500 377.000,283.000" stroke-width="4.759" stroke="black" fill="none" stroke-linecap="round"></path><path d="M 377.000,283.000 C 371.091,285.320 371.082,285.219 365.000,287.000" stroke-width="3.570" stroke="black" fill="none" stroke-linecap="round"></path><path d="M 365.000,287.000 C 356.621,290.042 356.591,289.320 348.000,291.000" stroke-width="2.904" stroke="black" fill="none" stroke-linecap="round"></path><path d="M 348.000,291.000 C 338.472,291.512 338.621,292.042 329.000,291.000" stroke-width="2.663" stroke="black" fill="none" stroke-linecap="round"></path><path d="M 329.000,291.000 C 319.957,290.280 319.972,290.512 311.000,289.000" stroke-width="2.705" stroke="black" fill="none" stroke-linecap="round"></path><path d="M 311.000,289.000 C 305.711,288.795 305.957,288.280 301.000,287.000" stroke-width="3.178" stroke="black" fill="none" stroke-linecap="round"></path><path d="M 301.000,287.000 C 294.551,285.096 295.211,284.795 290.000,281.000" stroke-width="3.220" stroke="black" fill="none" stroke-linecap="round"></path><path d="M 290.000,281.000 C 283.141,275.852 284.551,276.096 281.000,269.000" stroke-width="3.054" stroke="black" fill="none" stroke-linecap="round"></path><path d="M 281.000,269.000 C 278.753,258.667 278.141,259.852 280.000,249.000" stroke-width="2.643" stroke="black" fill="none" stroke-linecap="round"></path><path d="M 280.000,249.000 C 280.768,242.100 280.753,243.167 285.000,238.000" stroke-width="3.064" stroke="black" fill="none" stroke-linecap="round"></path><path d="M 285.000,238.000 C 297.275,225.616 296.768,226.600 312.000,218.000" stroke-width="2.067" stroke="black" fill="none" stroke-linecap="round"></path><path d="M 312.000,218.000 C 327.086,210.971 326.275,210.616 343.000,208.000" stroke-width="2.021" stroke="black" fill="none" stroke-linecap="round"></path><path d="M 343.000,208.000 C 365.415,201.792 364.586,203.971 387.000,204.000" stroke-width="1.677" stroke="black" fill="none" stroke-linecap="round"></path><path d="M 387.000,204.000 C 409.357,209.649 409.415,206.292 431.000,217.000" stroke-width="1.564" stroke="black" fill="none" stroke-linecap="round"></path><path d="M 431.000,217.000 C 436.226,218.623 435.857,218.649 440.000,222.000" stroke-width="2.523" stroke="black" fill="none" stroke-linecap="round"></path><path d="M 440.000,222.000 C 447.455,226.874 445.726,227.123 450.000,234.000" stroke-width="2.741" stroke="black" fill="none" stroke-linecap="round"></path><path d="M 450.000,234.000 C 456.017,249.257 454.955,247.874 455.000,264.000" stroke-width="2.190" stroke="black" fill="none" stroke-linecap="round"></path><path d="M 455.000,264.000 C 451.787,278.598 454.017,278.257 446.000,292.000" stroke-width="2.098" stroke="black" fill="none" stroke-linecap="round"></path><path d="M 446.000,292.000 C 443.016,302.122 442.287,300.598 436.000,308.000" stroke-width="2.414" stroke="black" fill="none" stroke-linecap="round"></path><path d="M 436.000,308.000 C 423.020,316.705 424.516,317.622 409.000,323.000" stroke-width="2.106" stroke="black" fill="none" stroke-linecap="round"></path><path d="M 409.000,323.000 C 398.175,327.282 398.520,327.705 387.000,330.000" stroke-width="2.240" stroke="black" fill="none" stroke-linecap="round"></path><path d="M 387.000,330.000 C 379.404,332.494 379.675,331.782 372.000,332.000" stroke-width="2.709" stroke="black" fill="none" stroke-linecap="round"></path><path d="M 372.000,332.000 C 364.259,330.662 364.404,331.494 357.000,328.000" stroke-width="2.867" stroke="black" fill="none" stroke-linecap="round"></path><path d="M 357.000,328.000 C 347.704,326.476 349.259,325.162 342.000,321.000" stroke-width="2.855" stroke="black" fill="none" stroke-linecap="round"></path><path d="M 342.000,321.000 C 335.213,313.056 335.204,314.476 332.000,304.000" stroke-width="2.611" stroke="black" fill="none" stroke-linecap="round"></path><path d="M 332.000,304.000 C 328.459,295.929 329.713,297.556 331.000,290.000" stroke-width="2.923" stroke="black" fill="none" stroke-linecap="round"></path><path d="M 331.000,290.000 C 336.809,282.199 334.459,281.929 344.000,276.000" stroke-width="2.725" stroke="black" fill="none" stroke-linecap="round"></path><path d="M 344.000,276.000 C 351.155,268.580 351.309,269.699 360.000,265.000" stroke-width="2.594" stroke="black" fill="none" stroke-linecap="round"></path><path d="M 360.000,265.000 C 373.128,259.314 372.155,260.080 386.000,259.000" stroke-width="2.297" stroke="black" fill="none" stroke-linecap="round"></path><path d="M 386.000,259.000 C 394.167,260.421 393.628,258.814 401.000,264.000" stroke-width="2.645" stroke="black" fill="none" stroke-linecap="round"></path><path d="M 401.000,264.000 C 404.918,266.404 404.667,265.921 407.000,270.000" stroke-width="3.372" stroke="black" fill="none" stroke-linecap="round"></path><path d="M 407.000,270.000 C 412.465,276.342 410.418,275.904 412.000,283.000" stroke-width="3.108" stroke="black" fill="none" stroke-linecap="round"></path><path d="M 412.000,283.000 C 412.839,301.147 410.965,297.842 404.000,313.000" stroke-width="2.162" stroke="black" fill="none" stroke-linecap="round"></path><path d="M 404.000,313.000 C 386.017,327.522 390.839,330.647 368.000,342.000" stroke-width="1.662" stroke="black" fill="none" stroke-linecap="round"></path><path d="M 368.000,342.000 C 359.452,352.847 358.017,350.022 348.000,358.000" stroke-width="2.031" stroke="black" fill="none" stroke-linecap="round"></path><path d="M 348.000,358.000 C 328.214,366.473 329.452,366.347 308.000,369.000" stroke-width="1.737" stroke="black" fill="none" stroke-linecap="round"></path><path d="M 308.000,369.000 C 295.621,368.827 296.214,370.473 284.000,366.000" stroke-width="2.109" stroke="black" fill="none" stroke-linecap="round"></path><path d="M 284.000,366.000 C 276.720,364.118 277.121,364.327 271.000,360.000" stroke-width="2.734" stroke="black" fill="none" stroke-linecap="round"></path><path d="M 271.000,360.000 C 264.275,354.594 264.220,355.118 259.000,348.000" stroke-width="2.667" stroke="black" fill="none" stroke-linecap="round"></path><path d="M 259.000,348.000 C 250.343,340.028 252.275,339.594 247.000,330.000" stroke-width="2.530" stroke="black" fill="none" stroke-linecap="round"></path><path d="M 247.000,330.000 C 241.780,313.512 241.843,314.528 242.000,297.000" stroke-width="1.990" stroke="black" fill="none" stroke-linecap="round"></path><path d="M 242.000,297.000 C 244.081,275.770 242.280,276.012 248.000,255.000" stroke-width="1.707" stroke="black" fill="none" stroke-linecap="round"></path><path d="M 248.000,255.000 C 249.568,249.306 249.081,249.270 252.000,244.000" stroke-width="2.592" stroke="black" fill="none" stroke-linecap="round"></path><path d="M 252.000,244.000 C 254.814,237.017 255.068,237.306 259.000,231.000" stroke-width="2.817" stroke="black" fill="none" stroke-linecap="round"></path><path d="M 259.000,231.000 C 263.117,225.557 262.814,225.517 268.000,221.000" stroke-width="3.035" stroke="black" fill="none" stroke-linecap="round"></path><path d="M 268.000,221.000 C 270.778,217.879 270.617,218.557 274.000,217.000" stroke-width="3.622" stroke="black" fill="none" stroke-linecap="round"></path><path d="M 274.000,217.000 C 277.005,216.670 276.278,216.379 279.000,218.000" stroke-width="4.050" stroke="black" fill="none" stroke-linecap="round"></path><path d="M 279.000,218.000 C 281.509,220.204 281.505,219.670 283.000,223.000" stroke-width="4.075" stroke="black" fill="none" stroke-linecap="round"></path><path d="M 283.000,223.000 C 285.753,227.803 285.509,227.704 287.000,233.000" stroke-width="3.611" stroke="black" fill="none" stroke-linecap="round"></path><path d="M 287.000,233.000 C 288.133,240.485 288.753,240.303 289.000,248.000" stroke-width="3.142" stroke="black" fill="none" stroke-linecap="round"></path><path d="M 289.000,248.000 C 289.676,253.492 289.633,253.485 290.000,259.000" stroke-width="3.270" stroke="black" fill="none" stroke-linecap="round"></path></svg>