<svg xmlns="http://www.w3.org/2000/svg" xmlns:xlink="http://www.w3.org/1999/xlink" viewBox="0 0 1460 576" width="1460" height="576"><path d="M 661.000,322.000 C 653.517,330.788 652.500,329.000 644.000,336.000" stroke-width="3.796" stroke="black" fill="none" stroke-linecap="round"></path><path d="M 644.000,336.000 C 631.543,344.125 632.517,342.288 619.000,345.000" stroke-width="2.513" stroke="black" fill="none" stroke-linecap="round"></path><path d="M 619.000,345.000 C 608.885,343.870 610.043,345.625 601.000,339.000" stroke-width="2.613" stroke="black" fill="none" stroke-linecap="round"></path><path d="M 601.000,339.000 C 589.198,333.864 591.885,333.370 585.000,324.000" stroke-width="2.440" stroke="black" fill="none" stroke-linecap="round"></path><path d="M 585.000,324.000 C 568.443,285.125 569.198,286.864 561.000,245.000" stroke-width="1.174" stroke="black" fill="none" stroke-linecap="round"></path><path d="M 561.000,245.000 C 553.646,218.380 556.943,223.125 562.000,200.000" stroke-width="1.802" stroke="black" fill="none" stroke-linecap="round"></path><path d="M 562.000,200.000 C 574.536,185.561 568.646,185.380 591.000,179.000" stroke-width="1.903" stroke="black" fill="none" stroke-linecap="round"></path><path d="M 591.000,179.000 C 641.880,155.275 641.036,159.061 695.000,147.000" stroke-width="1.125" stroke="black" fill="none" stroke-linecap="round"></path><path d="M 695.000,147.000 C 743.217,141.344 741.380,139.775 790.000,148.000" stroke-width="1.125" stroke="black" fill="none" stroke-linecap="round"></path><path d="M 790.000,148.000 C 865.833,163.872 866.217,158.844 941.000,182.000" stroke-width="1.125" stroke="black" fill="none" stroke-linecap="round"></path><path d="M 941.000,182.000 C 950.799,184.875 950.833,184.372 960.000,189.000" stroke-width="1.722" stroke="black" fill="none" stroke-linecap="round"></path><path d="M 960.000,189.000 C 966.515,190.597 965.299,191.375 970.000,195.000" stroke-width="2.604" stroke="black" fill="none" stroke-linecap="round"></path><path d="M 970.000,195.000 C 979.433,203.916 976.015,202.597 979.000,213.000" stroke-width="2.584" stroke="black" fill="none" stroke-linecap="round"></path><path d="M 979.000,213.000 C 974.493,225.541 978.433,224.916 968.000,237.000" stroke-width="2.305" stroke="black" fill="none" stroke-linecap="round"></path><path d="M 968.000,237.000 C 960.769,258.902 957.493,255.541 945.000,273.000" stroke-width="1.642" stroke="black" fill="none" stroke-linecap="round"></path><path d="M 945.000,273.000 C 881.322,322.934 885.269,326.402 817.000,372.000" stroke-width="1.125" stroke="black" fill="none" stroke-linecap="round"></path><path d="M 817.000,372.000 C 803.993,383.714 803.322,382.434 789.000,392.000" stroke-width="1.555" stroke="black" fill="none" stroke-linecap="round"></path><path d="M 789.000,392.000 C 766.170,407.707 765.993,404.714 741.000,414.000" stroke-width="1.421" stroke="black" fill="none" stroke-linecap="round"></path><path d="M 741.000,414.000 C 714.262,418.579 716.170,420.207 689.000,417.000" stroke-width="1.395" stroke="black" fill="none" stroke-linecap="round"></path><path d="M 689.000,417.000 C 682.138,414.545 682.262,416.579 677.000,410.000" stroke-width="2.234" stroke="black" fill="none" stroke-linecap="round"></path><path d="M 677.000,410.000 C 666.681,403.571 669.138,403.045 663.000,394.000" stroke-width="2.358" stroke="black" fill="none" stroke-linecap="round"></path><path d="M 663.000,394.000 C 652.120,374.266 656.681,377.571 657.000,358.000" stroke-width="1.867" stroke="black" fill="none" stroke-linecap="round"></path><path d="M 657.000,358.000 C 667.999,331.798 664.120,334.266 687.000,314.000" stroke-width="2.083" stroke="black" fill="none" stroke-linecap="round"></path><path d="M 687.000,314.000 C 709.933,294.427 707.499,294.798 736.000,284.000" stroke-width="1.398" stroke="black" fill="none" stroke-linecap="round"></path><path d="M 736.000,284.000 C 754.168,280.000 752.433,277.427 772.000,280.000" stroke-width="1.611" stroke="black" fill="none" stroke-linecap="round"></path><path d="M 772.000,280.000 C 780.084,279.972 779.168,280.000 786.000,284.000" stroke-width="2.431" stroke="black" fill="none" stroke-linecap="round"></path><path d="M 786.000,284.000 C 805.384,296.176 803.584,295.972 819.000,312.000" stroke-width="2.433" stroke="black" fill="none" stroke-linecap="round"></path><path d="M 819.000,312.000 C 824.122,319.710 823.884,317.676 823.000,327.000" stroke-width="2.767" stroke="black" fill="none" stroke-linecap="round"></path><path d="M 823.000,327.000 C 820.348,340.826 821.122,339.210 813.000,351.000" stroke-width="2.298" stroke="black" fill="none" stroke-linecap="round"></path><path d="M 813.000,351.000 C 805.563,357.898 807.348,358.826 797.000,363.000" stroke-width="2.543" stroke="black" fill="none" stroke-linecap="round"></path><path d="M 797.000,363.000 C 781.825,372.337 782.063,371.898 766.000,379.000" stroke-width="2.645" stroke="black" fill="none" stroke-linecap="round"></path><path d="M 766.000,379.000 C 759.496,381.605 762.825,380.337 759.000,379.000" stroke-width="3.459" stroke="black" fill="none" stroke-linecap="round"></path><path d="M 759.000,379.000 C 756.887,366.815 757.496,371.105 762.000,358.000" stroke-width="3.489" stroke="black" fill="none" stroke-linecap="round"></path><path d="M 762.000,358.000 C 773.220,341.270 771.387,341.815 788.000,329.000" stroke-width="1.948" stroke="black" fill="none" stroke-linecap="round"></path><path d="M 788.000,329.000 C 801.138,320.546 799.720,319.270 815.000,314.000" stroke-width="1.928" stroke="black" fill="none" stroke-linecap="round"></path><path d="M 815.000,314.000 C 819.493,312.966 819.138,312.046 824.000,312.000" stroke-width="2.843" stroke="black" fill="none" stroke-linecap="round"></path><path d="M 824.000,312.000 C 830.402,309.542 826.493,311.466 829.000,311.000" stroke-width="3.770" stroke="black" fill="none" stroke-linecap="round"></path><path d="M 829.000,311.000 C 814.625,325.305 817.902,322.542 799.000,338.000" stroke-width="3.262" stroke="black" fill="none" stroke-linecap="round"></path><path d="M 799.000,338.000 C 790.319,344.623 790.625,344.805 781.000,350.000" stroke-width="2.600" stroke="black" fill="none" stroke-linecap="round"></path><path d="M 781.000,350.000 C 771.327,354.554 777.319,352.123 773.000,353.000" stroke-width="3.345" stroke="black" fill="none" stroke-linecap="round"></path><path d="M 773.000,353.000 C 783.615,344.385 778.327,348.054 795.000,337.000" stroke-width="3.779" stroke="black" fill="none" stroke-linecap="round"></path></svg>