<svg xmlns="http://www.w3.org/2000/svg" xmlns:xlink="http://www.w3.org/1999/xlink" viewBox="0 0 453 236" width="453" height="236"><path d="M 139.500,169.000 C 136.280,165.945 136.000,167.000 132.500,165.000" stroke-width="4.622" stroke="black" fill="none" stroke-linecap="round"></path><path d="M 132.500,165.000 C 127.984,165.264 128.280,163.945 123.500,165.000" stroke-width="4.742" stroke="black" fill="none" stroke-linecap="round"></path><path d="M 123.500,165.000 C 119.357,165.028 119.484,164.764 115.500,164.000" stroke-width="4.639" stroke="black" fill="none" stroke-linecap="round"></path><path d="M 115.500,164.000 C 111.488,163.173 111.857,163.028 108.500,161.000" stroke-width="4.591" stroke="black" fill="none" stroke-linecap="round"></path><path d="M 108.500,161.000 C 103.570,158.045 105.988,159.173 104.500,156.000" stroke-width="5.139" stroke="black" fill="none" stroke-linecap="round"></path><path d="M 104.500,156.000 C 109.181,153.239 106.070,152.545 113.500,150.000" stroke-width="4.496" stroke="black" fill="none" stroke-linecap="round"></path><path d="M 113.500,150.000 C 116.721,146.598 117.181,147.239 120.500,144.000" stroke-width="3.866" stroke="black" fill="none" stroke-linecap="round"></path><path d="M 120.500,144.000 C 125.192,141.800 124.721,141.098 129.500,139.000" stroke-width="3.545" stroke="black" fill="none" stroke-linecap="round"></path><path d="M 129.500,139.000 C 134.884,134.829 135.192,135.300 140.500,131.000" stroke-width="3.240" stroke="black" fill="none" stroke-linecap="round"></path><path d="M 140.500,131.000 C 145.832,127.204 145.884,127.329 151.500,124.000" stroke-width="3.200" stroke="black" fill="none" stroke-linecap="round"></path><path d="M 151.500,124.000 C 157.668,121.296 157.332,120.704 163.500,118.000" stroke-width="3.035" stroke="black" fill="none" stroke-linecap="round"></path><path d="M 163.500,118.000 C 168.847,114.230 169.168,114.796 174.500,111.000" stroke-width="3.080" stroke="black" fill="none" stroke-linecap="round"></path><path d="M 174.500,111.000 C 179.449,108.392 179.347,108.230 184.500,106.000" stroke-width="3.238" stroke="black" fill="none" stroke-linecap="round"></path><path d="M 184.500,106.000 C 189.170,104.309 188.949,103.892 193.500,102.000" stroke-width="3.458" stroke="black" fill="none" stroke-linecap="round"></path><path d="M 193.500,102.000 C 196.431,99.889 196.670,100.309 199.500,98.000" stroke-width="3.741" stroke="black" fill="none" stroke-linecap="round"></path><path d="M 199.500,98.000 C 205.001,93.700 202.931,95.889 206.500,94.000" stroke-width="4.255" stroke="black" fill="none" stroke-linecap="round"></path><path d="M 206.500,94.000 C 206.181,96.982 207.501,94.200 204.500,99.000" stroke-width="4.773" stroke="black" fill="none" stroke-linecap="round"></path><path d="M 204.500,99.000 C 200.356,102.347 201.181,102.982 196.500,106.000" stroke-width="3.772" stroke="black" fill="none" stroke-linecap="round"></path><path d="M 196.500,106.000 C 190.875,111.380 190.856,111.347 185.500,117.000" stroke-width="3.210" stroke="black" fill="none" stroke-linecap="round"></path><path d="M 185.500,117.000 C 180.365,123.380 179.875,122.880 174.500,129.000" stroke-width="2.967" stroke="black" fill="none" stroke-linecap="round"></path><path d="M 174.500,129.000 C 167.761,134.240 168.365,134.880 161.500,140.000" stroke-width="2.793" stroke="black" fill="none" stroke-linecap="round"></path><path d="M 161.500,140.000 C 155.730,146.249 155.261,145.740 149.500,152.000" stroke-width="2.748" stroke="black" fill="none" stroke-linecap="round"></path><path d="M 149.500,152.000 C 142.518,158.021 142.730,158.249 135.500,164.000" stroke-width="2.713" stroke="black" fill="none" stroke-linecap="round"></path><path d="M 135.500,164.000 C 129.041,169.549 129.018,169.521 122.500,175.000" stroke-width="2.721" stroke="black" fill="none" stroke-linecap="round"></path><path d="M 122.500,175.000 C 117.237,179.828 117.041,179.549 111.500,184.000" stroke-width="2.952" stroke="black" fill="none" stroke-linecap="round"></path><path d="M 111.500,184.000 C 105.966,187.447 106.237,187.828 100.500,191.000" stroke-width="3.054" stroke="black" fill="none" stroke-linecap="round"></path><path d="M 100.500,191.000 C 96.269,194.502 95.966,193.947 91.500,197.000" stroke-width="3.313" stroke="black" fill="none" stroke-linecap="round"></path><path d="M 91.500,197.000 C 85.460,199.409 85.769,200.002 79.500,202.000" stroke-width="3.224" stroke="black" fill="none" stroke-linecap="round"></path><path d="M 79.500,202.000 C 74.232,205.362 73.960,204.409 68.500,207.000" stroke-width="3.211" stroke="black" fill="none" stroke-linecap="round"></path><path d="M 68.500,207.000 C 63.429,207.130 63.732,208.362 58.500,208.000" stroke-width="3.910" stroke="black" fill="none" stroke-linecap="round"></path><path d="M 58.500,208.000 C 55.041,209.183 54.929,208.630 51.500,210.000" stroke-width="3.823" stroke="black" fill="none" stroke-linecap="round"></path><path d="M 51.500,210.000 C 48.522,210.768 48.541,210.683 45.500,211.000" stroke-width="3.996" stroke="black" fill="none" stroke-linecap="round"></path><path d="M 45.500,211.000 C 39.521,212.532 42.022,211.268 38.500,211.000" stroke-width="4.427" stroke="black" fill="none" stroke-linecap="round"></path><path d="M 38.500,211.000 C 39.143,207.143 37.521,209.532 41.500,205.000" stroke-width="4.886" stroke="black" fill="none" stroke-linecap="round"></path><path d="M 41.500,205.000 C 45.417,202.815 44.643,202.143 49.500,201.000" stroke-width="3.979" stroke="black" fill="none" stroke-linecap="round"></path><path d="M 49.500,201.000 C 54.459,198.891 54.417,198.815 59.500,197.000" stroke-width="3.588" stroke="black" fill="none" stroke-linecap="round"></path><path d="M 59.500,197.000 C 66.541,194.609 66.459,194.391 73.500,192.000" stroke-width="3.217" stroke="black" fill="none" stroke-linecap="round"></path><path d="M 73.500,192.000 C 78.529,190.071 78.541,190.109 83.500,188.000" stroke-width="3.372" stroke="black" fill="none" stroke-linecap="round"></path><path d="M 83.500,188.000 C 90.541,185.093 90.529,185.071 97.500,182.000" stroke-width="3.078" stroke="black" fill="none" stroke-linecap="round"></path><path d="M 97.500,182.000 C 103.937,178.854 104.041,179.093 110.500,176.000" stroke-width="3.116" stroke="black" fill="none" stroke-linecap="round"></path><path d="M 110.500,176.000 C 115.500,174.000 115.437,173.854 120.500,172.000" stroke-width="3.284" stroke="black" fill="none" stroke-linecap="round"></path><path d="M 120.500,172.000 C 125.521,170.050 125.500,170.000 130.500,168.000" stroke-width="3.394" stroke="black" fill="none" stroke-linecap="round"></path><path d="M 130.500,168.000 C 133.921,166.278 134.021,166.550 137.500,165.000" stroke-width="3.723" stroke="black" fill="none" stroke-linecap="round"></path><path d="M 137.500,165.000 C 140.959,163.817 140.921,163.778 144.500,163.000" stroke-width="3.871" stroke="black" fill="none" stroke-linecap="round"></path><path d="M 144.500,163.000 C 147.528,162.637 147.459,162.317 150.500,162.000" stroke-width="4.012" stroke="black" fill="none" stroke-linecap="round"></path><path d="M 150.500,162.000 C 154.568,161.210 154.528,161.137 158.500,160.000" stroke-width="4.376" stroke="black" fill="none" stroke-linecap="round"></path><path d="M 158.500,160.000 C 164.246,158.186 161.068,159.210 163.500,158.000" stroke-width="4.845" stroke="black" fill="none" stroke-linecap="round"></path><path d="M 163.500,158.000 C 158.663,157.531 162.246,157.686 154.500,159.000" stroke-width="4.945" stroke="black" fill="none" stroke-linecap="round"></path><path d="M 154.500,159.000 C 150.467,161.450 150.163,160.531 146.500,164.000" stroke-width="3.934" stroke="black" fill="none" stroke-linecap="round"></path><path d="M 146.500,164.000 C 143.239,165.682 143.467,165.950 140.500,168.000" stroke-width="3.945" stroke="black" fill="none" stroke-linecap="round"></path><path d="M 140.500,168.000 C 136.415,171.114 136.739,171.182 133.500,175.000" stroke-width="4.224" stroke="black" fill="none" stroke-linecap="round"></path><path d="M 133.500,175.000 C 130.195,178.881 131.915,177.114 131.500,180.000" stroke-width="4.794" stroke="black" fill="none" stroke-linecap="round"></path><path d="M 131.500,180.000 C 135.988,180.718 133.695,181.881 140.500,181.000" stroke-width="4.521" stroke="black" fill="none" stroke-linecap="round"></path><path d="M 140.500,181.000 C 144.069,181.490 143.988,181.218 147.500,181.000" stroke-width="4.078" stroke="black" fill="none" stroke-linecap="round"></path><path d="M 147.500,181.000 C 150.970,179.882 151.069,180.490 154.500,179.000" stroke-width="3.979" stroke="black" fill="none" stroke-linecap="round"></path><path d="M 154.500,179.000 C 159.232,178.600 158.970,177.882 163.500,177.000" stroke-width="3.683" stroke="black" fill="none" stroke-linecap="round"></path><path d="M 163.500,177.000 C 166.900,174.800 167.232,175.600 170.500,173.000" stroke-width="3.723" stroke="black" fill="none" stroke-linecap="round"></path><path d="M 170.500,173.000 C 174.333,172.036 173.900,171.300 177.500,170.000" stroke-width="3.835" stroke="black" fill="none" stroke-linecap="round"></path><path d="M 177.500,170.000 C 182.090,167.615 181.333,167.536 184.500,164.000" stroke-width="4.211" stroke="black" fill="none" stroke-linecap="round"></path><path d="M 184.500,164.000 C 186.689,160.140 186.090,161.615 185.500,158.000" stroke-width="4.588" stroke="black" fill="none" stroke-linecap="round"></path><path d="M 185.500,158.000 C 182.699,155.178 184.189,155.640 179.500,155.000" stroke-width="4.834" stroke="black" fill="none" stroke-linecap="round"></path><path d="M 179.500,155.000 C 172.961,154.952 173.699,154.678 167.500,157.000" stroke-width="4.277" stroke="black" fill="none" stroke-linecap="round"></path><path d="M 167.500,157.000 C 165.050,158.675 164.961,157.952 163.500,161.000" stroke-width="4.191" stroke="black" fill="none" stroke-linecap="round"></path><path d="M 163.500,161.000 C 160.988,164.834 161.050,164.675 159.500,169.000" stroke-width="4.371" stroke="black" fill="none" stroke-linecap="round"></path><path d="M 159.500,169.000 C 157.014,173.302 158.488,171.834 158.500,175.000" stroke-width="4.629" stroke="black" fill="none" stroke-linecap="round"></path><path d="M 158.500,175.000 C 162.626,177.456 160.514,177.302 166.500,177.000" stroke-width="4.871" stroke="black" fill="none" stroke-linecap="round"></path><path d="M 166.500,177.000 C 171.100,175.200 171.126,176.456 175.500,173.000" stroke-width="3.808" stroke="black" fill="none" stroke-linecap="round"></path><path d="M 175.500,173.000 C 180.031,170.554 180.100,170.700 184.500,168.000" stroke-width="3.589" stroke="black" fill="none" stroke-linecap="round"></path><path d="M 184.500,168.000 C 190.730,164.847 190.531,164.554 196.500,161.000" stroke-width="3.164" stroke="black" fill="none" stroke-linecap="round"></path><path d="M 196.500,161.000 C 202.338,156.266 202.730,156.847 208.500,152.000" stroke-width="3.149" stroke="black" fill="none" stroke-linecap="round"></path><path d="M 208.500,152.000 C 215.653,147.722 215.338,147.266 222.500,143.000" stroke-width="2.987" stroke="black" fill="none" stroke-linecap="round"></path><path d="M 222.500,143.000 C 230.325,137.894 230.153,137.722 237.500,132.000" stroke-width="2.706" stroke="black" fill="none" stroke-linecap="round"></path><path d="M 237.500,132.000 C 244.115,126.119 244.325,126.394 250.500,120.000" stroke-width="2.741" stroke="black" fill="none" stroke-linecap="round"></path><path d="M 250.500,120.000 C 255.863,114.355 256.115,114.619 261.500,109.000" stroke-width="2.875" stroke="black" fill="none" stroke-linecap="round"></path><path d="M 261.500,109.000 C 266.391,105.366 265.863,104.855 270.500,101.000" stroke-width="3.155" stroke="black" fill="none" stroke-linecap="round"></path><path d="M 270.500,101.000 C 273.939,96.451 274.391,96.866 277.500,92.000" stroke-width="3.245" stroke="black" fill="none" stroke-linecap="round"></path><path d="M 277.500,92.000 C 280.210,89.149 279.939,88.951 282.500,86.000" stroke-width="3.649" stroke="black" fill="none" stroke-linecap="round"></path><path d="M 282.500,86.000 C 286.886,81.866 284.210,83.649 285.500,81.000" stroke-width="4.010" stroke="black" fill="none" stroke-linecap="round"></path><path d="M 285.500,81.000 C 279.269,78.775 282.886,79.366 274.500,81.000" stroke-width="4.552" stroke="black" fill="none" stroke-linecap="round"></path><path d="M 274.500,81.000 C 264.811,87.758 264.269,85.775 255.500,95.000" stroke-width="2.754" stroke="black" fill="none" stroke-linecap="round"></path><path d="M 255.500,95.000 C 246.895,101.877 246.811,101.758 238.500,109.000" stroke-width="2.534" stroke="black" fill="none" stroke-linecap="round"></path><path d="M 238.500,109.000 C 230.267,115.751 230.395,115.877 222.500,123.000" stroke-width="2.450" stroke="black" fill="none" stroke-linecap="round"></path><path d="M 222.500,123.000 C 215.500,130.000 215.267,129.751 208.500,137.000" stroke-width="2.552" stroke="black" fill="none" stroke-linecap="round"></path><path d="M 208.500,137.000 C 203.353,141.862 203.500,142.000 198.500,147.000" stroke-width="2.841" stroke="black" fill="none" stroke-linecap="round"></path><path d="M 198.500,147.000 C 195.244,151.256 194.853,150.862 191.500,155.000" stroke-width="3.248" stroke="black" fill="none" stroke-linecap="round"></path><path d="M 191.500,155.000 C 188.401,156.556 189.244,157.256 186.500,159.000" stroke-width="3.793" stroke="black" fill="none" stroke-linecap="round"></path><path d="M 186.500,159.000 C 183.104,162.953 184.901,161.056 184.500,164.000" stroke-width="4.467" stroke="black" fill="none" stroke-linecap="round"></path><path d="M 184.500,164.000 C 189.673,165.724 187.104,165.953 194.500,165.000" stroke-width="4.617" stroke="black" fill="none" stroke-linecap="round"></path><path d="M 194.500,165.000 C 199.696,163.402 199.673,164.224 204.500,161.000" stroke-width="3.660" stroke="black" fill="none" stroke-linecap="round"></path><path d="M 204.500,161.000 C 210.469,157.446 210.696,157.902 216.500,154.000" stroke-width="3.246" stroke="black" fill="none" stroke-linecap="round"></path><path d="M 216.500,154.000 C 221.064,151.609 220.969,151.446 225.500,149.000" stroke-width="3.368" stroke="black" fill="none" stroke-linecap="round"></path><path d="M 225.500,149.000 C 229.409,146.338 229.564,146.609 233.500,144.000" stroke-width="3.485" stroke="black" fill="none" stroke-linecap="round"></path><path d="M 233.500,144.000 C 236.449,142.387 236.409,142.338 239.500,141.000" stroke-width="3.807" stroke="black" fill="none" stroke-linecap="round"></path><path d="M 239.500,141.000 C 244.891,137.566 241.949,139.887 244.500,139.000" stroke-width="4.079" stroke="black" fill="none" stroke-linecap="round"></path><path d="M 244.500,139.000 C 241.244,146.070 243.391,143.066 236.500,152.000" stroke-width="4.224" stroke="black" fill="none" stroke-linecap="round"></path><path d="M 236.500,152.000 C 228.550,160.548 229.244,161.070 220.500,169.000" stroke-width="3.560" stroke="black" fill="none" stroke-linecap="round"></path><path d="M 220.500,169.000 C 215.008,173.249 218.550,171.048 216.500,173.000" stroke-width="4.128" stroke="black" fill="none" stroke-linecap="round"></path><path d="M 216.500,173.000 C 224.778,170.585 221.008,172.249 232.500,167.000" stroke-width="4.378" stroke="black" fill="none" stroke-linecap="round"></path><path d="M 232.500,167.000 C 238.405,163.325 238.778,164.085 244.500,160.000" stroke-width="3.322" stroke="black" fill="none" stroke-linecap="round"></path><path d="M 244.500,160.000 C 249.500,157.500 249.405,157.325 254.500,155.000" stroke-width="3.314" stroke="black" fill="none" stroke-linecap="round"></path><path d="M 254.500,155.000 C 257.375,153.136 257.500,153.500 260.500,152.000" stroke-width="3.743" stroke="black" fill="none" stroke-linecap="round"></path><path d="M 260.500,152.000 C 265.500,150.013 262.875,151.136 265.500,151.000" stroke-width="4.468" stroke="black" fill="none" stroke-linecap="round"></path><path d="M 265.500,151.000 C 263.248,154.252 265.500,152.513 260.500,157.000" stroke-width="4.485" stroke="black" fill="none" stroke-linecap="round"></path><path d="M 260.500,157.000 C 257.978,158.973 258.248,159.252 255.500,161.000" stroke-width="4.147" stroke="black" fill="none" stroke-linecap="round"></path><path d="M 255.500,161.000 C 249.254,165.754 252.478,163.473 249.500,166.000" stroke-width="4.453" stroke="black" fill="none" stroke-linecap="round"></path><path d="M 249.500,166.000 C 253.044,164.074 249.754,166.254 256.500,162.000" stroke-width="4.720" stroke="black" fill="none" stroke-linecap="round"></path><path d="M 256.500,162.000 C 260.540,159.562 260.544,159.574 264.500,157.000" stroke-width="3.826" stroke="black" fill="none" stroke-linecap="round"></path><path d="M 264.500,157.000 C 272.750,150.250 269.040,154.062 273.500,151.000" stroke-width="4.104" stroke="black" fill="none" stroke-linecap="round"></path><path d="M 273.500,151.000 C 270.641,155.603 274.250,151.750 267.500,160.000" stroke-width="4.601" stroke="black" fill="none" stroke-linecap="round"></path><path d="M 267.500,160.000 C 265.638,162.624 265.641,162.603 263.500,165.000" stroke-width="4.228" stroke="black" fill="none" stroke-linecap="round"></path><path d="M 263.500,165.000 C 258.500,168.013 261.138,167.624 258.500,170.000" stroke-width="4.486" stroke="black" fill="none" stroke-linecap="round"></path><path d="M 258.500,170.000 C 261.000,172.000 258.500,171.513 263.500,172.000" stroke-width="4.967" stroke="black" fill="none" stroke-linecap="round"></path><path d="M 263.500,172.000 C 266.099,171.200 266.000,172.000 268.500,170.000" stroke-width="4.411" stroke="black" fill="none" stroke-linecap="round"></path><path d="M 268.500,170.000 C 271.076,168.616 271.099,168.700 273.500,167.000" stroke-width="4.205" stroke="black" fill="none" stroke-linecap="round"></path><path d="M 273.500,167.000 C 277.375,164.917 277.076,164.616 280.500,162.000" stroke-width="3.807" stroke="black" fill="none" stroke-linecap="round"></path><path d="M 280.500,162.000 C 284.582,157.571 284.875,157.917 288.500,153.000" stroke-width="3.685" stroke="black" fill="none" stroke-linecap="round"></path><path d="M 288.500,153.000 C 293.436,146.945 293.582,147.071 298.500,141.000" stroke-width="3.123" stroke="black" fill="none" stroke-linecap="round"></path><path d="M 298.500,141.000 C 305.148,133.623 304.936,133.445 311.500,126.000" stroke-width="3.005" stroke="black" fill="none" stroke-linecap="round"></path><path d="M 311.500,126.000 C 317.500,118.500 317.648,118.623 323.500,111.000" stroke-width="2.800" stroke="black" fill="none" stroke-linecap="round"></path><path d="M 323.500,111.000 C 329.604,103.581 329.500,103.500 335.500,96.000" stroke-width="2.848" stroke="black" fill="none" stroke-linecap="round"></path><path d="M 335.500,96.000 C 340.089,90.065 340.104,90.081 344.500,84.000" stroke-width="2.945" stroke="black" fill="none" stroke-linecap="round"></path><path d="M 344.500,84.000 C 348.421,79.234 348.089,79.065 351.500,74.000" stroke-width="3.113" stroke="black" fill="none" stroke-linecap="round"></path><path d="M 351.500,74.000 C 353.134,70.551 353.421,70.734 354.500,67.000" stroke-width="3.657" stroke="black" fill="none" stroke-linecap="round"></path><path d="M 354.500,67.000 C 357.865,60.829 355.634,64.051 356.500,61.000" stroke-width="3.911" stroke="black" fill="none" stroke-linecap="round"></path><path d="M 356.500,61.000 C 350.976,63.897 353.865,61.329 346.500,68.000" stroke-width="4.068" stroke="black" fill="none" stroke-linecap="round"></path><path d="M 346.500,68.000 C 339.376,75.388 338.976,74.897 332.500,83.000" stroke-width="2.795" stroke="black" fill="none" stroke-linecap="round"></path><path d="M 332.500,83.000 C 325.441,90.949 325.376,90.888 318.500,99.000" stroke-width="2.695" stroke="black" fill="none" stroke-linecap="round"></path><path d="M 318.500,99.000 C 312.557,105.173 312.941,105.449 307.500,112.000" stroke-width="2.775" stroke="black" fill="none" stroke-linecap="round"></path><path d="M 307.500,112.000 C 302.779,118.869 302.557,118.673 298.500,126.000" stroke-width="2.877" stroke="black" fill="none" stroke-linecap="round"></path><path d="M 298.500,126.000 C 295.608,131.562 295.279,131.369 292.500,137.000" stroke-width="3.066" stroke="black" fill="none" stroke-linecap="round"></path><path d="M 292.500,137.000 C 289.421,141.954 289.608,142.062 286.500,147.000" stroke-width="3.250" stroke="black" fill="none" stroke-linecap="round"></path><path d="M 286.500,147.000 C 283.798,151.404 283.921,151.454 281.500,156.000" stroke-width="3.423" stroke="black" fill="none" stroke-linecap="round"></path><path d="M 281.500,156.000 C 280.420,158.471 280.298,158.404 279.500,161.000" stroke-width="4.123" stroke="black" fill="none" stroke-linecap="round"></path><path d="M 279.500,161.000 C 276.100,166.400 278.420,163.971 277.500,167.000" stroke-width="4.538" stroke="black" fill="none" stroke-linecap="round"></path><path d="M 277.500,167.000 C 282.084,165.717 279.600,167.900 286.500,164.000" stroke-width="4.733" stroke="black" fill="none" stroke-linecap="round"></path><path d="M 286.500,164.000 C 290.813,161.426 291.084,162.217 295.500,160.000" stroke-width="3.908" stroke="black" fill="none" stroke-linecap="round"></path><path d="M 295.500,160.000 C 302.492,158.460 302.313,157.926 309.500,157.000" stroke-width="3.268" stroke="black" fill="none" stroke-linecap="round"></path><path d="M 309.500,157.000 C 314.451,155.505 314.492,155.960 319.500,155.000" stroke-width="3.614" stroke="black" fill="none" stroke-linecap="round"></path><path d="M 319.500,155.000 C 324.500,155.000 324.451,154.505 329.500,155.000" stroke-width="3.506" stroke="black" fill="none" stroke-linecap="round"></path><path d="M 329.500,155.000 C 333.029,154.711 333.000,155.000 336.500,155.000" stroke-width="3.781" stroke="black" fill="none" stroke-linecap="round"></path><path d="M 336.500,155.000 C 340.254,154.219 339.029,155.211 341.500,156.000" stroke-width="4.148" stroke="black" fill="none" stroke-linecap="round"></path><path d="M 341.500,156.000 C 345.127,161.340 343.754,159.219 343.500,165.000" stroke-width="4.338" stroke="black" fill="none" stroke-linecap="round"></path><path d="M 343.500,165.000 C 339.180,170.519 341.127,170.340 333.500,174.000" stroke-width="3.424" stroke="black" fill="none" stroke-linecap="round"></path><path d="M 333.500,174.000 C 323.281,179.688 323.680,180.019 312.500,184.000" stroke-width="2.545" stroke="black" fill="none" stroke-linecap="round"></path><path d="M 312.500,184.000 C 298.255,189.930 298.281,189.688 283.500,194.000" stroke-width="2.079" stroke="black" fill="none" stroke-linecap="round"></path><path d="M 283.500,194.000 C 269.046,197.241 269.255,197.930 254.500,200.000" stroke-width="2.060" stroke="black" fill="none" stroke-linecap="round"></path><path d="M 254.500,200.000 C 240.097,203.325 240.046,202.741 225.500,205.000" stroke-width="2.060" stroke="black" fill="none" stroke-linecap="round"></path><path d="M 225.500,205.000 C 209.513,206.428 209.597,206.825 193.500,207.000" stroke-width="2.033" stroke="black" fill="none" stroke-linecap="round"></path><path d="M 193.500,207.000 C 181.338,208.421 181.513,207.428 169.500,207.000" stroke-width="2.180" stroke="black" fill="none" stroke-linecap="round"></path><path d="M 169.500,207.000 C 156.257,204.800 156.338,205.421 143.500,201.000" stroke-width="2.186" stroke="black" fill="none" stroke-linecap="round"></path><path d="M 143.500,201.000 C 132.910,197.220 132.757,197.800 122.500,193.000" stroke-width="2.291" stroke="black" fill="none" stroke-linecap="round"></path><path d="M 122.500,193.000 C 114.360,189.785 114.410,189.720 106.500,186.000" stroke-width="2.556" stroke="black" fill="none" stroke-linecap="round"></path><path d="M 106.500,186.000 C 100.568,183.577 100.860,183.285 95.500,180.000" stroke-width="2.948" stroke="black" fill="none" stroke-linecap="round"></path><path d="M 95.500,180.000 C 91.653,177.498 92.068,177.577 89.500,174.000" stroke-width="3.468" stroke="black" fill="none" stroke-linecap="round"></path><path d="M 89.500,174.000 C 87.117,170.451 87.653,170.998 87.500,167.000" stroke-width="3.784" stroke="black" fill="none" stroke-linecap="round"></path><path d="M 87.500,167.000 C 87.949,160.438 88.117,161.451 91.500,156.000" stroke-width="3.455" stroke="black" fill="none" stroke-linecap="round"></path><path d="M 91.500,156.000 C 98.871,148.131 97.949,147.938 107.500,142.000" stroke-width="2.655" stroke="black" fill="none" stroke-linecap="round"></path><path d="M 107.500,142.000 C 118.132,134.791 117.871,134.631 129.500,129.000" stroke-width="2.356" stroke="black" fill="none" stroke-linecap="round"></path><path d="M 129.500,129.000 C 144.636,121.043 144.632,121.291 160.500,115.000" stroke-width="1.997" stroke="black" fill="none" stroke-linecap="round"></path><path d="M 160.500,115.000 C 176.452,109.840 176.136,109.043 192.500,105.000" stroke-width="1.868" stroke="black" fill="none" stroke-linecap="round"></path><path d="M 192.500,105.000 C 207.829,99.791 207.952,100.340 223.500,96.000" stroke-width="1.865" stroke="black" fill="none" stroke-linecap="round"></path><path d="M 223.500,96.000 C 238.899,92.269 238.829,92.291 254.500,90.000" stroke-width="1.884" stroke="black" fill="none" stroke-linecap="round"></path><path d="M 254.500,90.000 C 266.479,88.501 266.399,88.269 278.500,88.000" stroke-width="2.174" stroke="black" fill="none" stroke-linecap="round"></path><path d="M 278.500,88.000 C 290.591,87.084 290.479,87.501 302.500,88.000" stroke-width="2.227" stroke="black" fill="none" stroke-linecap="round"></path><path d="M 302.500,88.000 C 310.354,88.526 310.091,88.584 317.500,91.000" stroke-width="2.644" stroke="black" fill="none" stroke-linecap="round"></path><path d="M 317.500,91.000 C 323.723,93.247 323.354,93.026 328.500,97.000" stroke-width="3.081" stroke="black" fill="none" stroke-linecap="round"></path><path d="M 328.500,97.000 C 331.810,99.368 330.723,98.747 331.500,102.000" stroke-width="3.781" stroke="black" fill="none" stroke-linecap="round"></path><path d="M 331.500,102.000 C 331.388,110.229 330.810,107.868 326.500,114.000" stroke-width="3.280" stroke="black" fill="none" stroke-linecap="round"></path><path d="M 326.500,114.000 C 312.003,122.749 313.888,123.729 296.500,129.000" stroke-width="2.097" stroke="black" fill="none" stroke-linecap="round"></path><path d="M 296.500,129.000 C 280.743,135.006 281.003,135.249 264.500,139.000" stroke-width="2.003" stroke="black" fill="none" stroke-linecap="round"></path><path d="M 264.500,139.000 C 250.038,141.744 250.243,142.506 235.500,144.000" stroke-width="2.042" stroke="black" fill="none" stroke-linecap="round"></path><path d="M 235.500,144.000 C 221.060,146.880 221.038,146.244 206.500,148.000" stroke-width="2.004" stroke="black" fill="none" stroke-linecap="round"></path><path d="M 206.500,148.000 C 195.000,148.000 195.060,148.880 183.500,148.000" stroke-width="2.260" stroke="black" fill="none" stroke-linecap="round"></path><path d="M 183.500,148.000 C 175.500,148.000 175.500,148.000 167.500,148.000" stroke-width="2.671" stroke="black" fill="none" stroke-linecap="round"></path><path d="M 360.500,187.000 C 363.111,183.485 363.500,184.000 366.500,181.000" stroke-width="5.140" stroke="black" fill="none" stroke-linecap="round"></path><path d="M 366.500,181.000 C 371.046,178.579 370.611,177.985 375.500,176.000" stroke-width="3.873" stroke="black" fill="none" stroke-linecap="round"></path><path d="M 375.500,176.000 C 380.343,172.701 380.546,173.079 385.500,170.000" stroke-width="3.540" stroke="black" fill="none" stroke-linecap="round"></path><path d="M 385.500,170.000 C 390.935,167.343 390.843,167.201 396.500,165.000" stroke-width="3.360" stroke="black" fill="none" stroke-linecap="round"></path><path d="M 396.500,165.000 C 400.478,163.437 400.435,163.343 404.500,162.000" stroke-width="3.619" stroke="black" fill="none" stroke-linecap="round"></path><path d="M 404.500,162.000 C 407.500,161.000 407.478,160.937 410.500,160.000" stroke-width="3.943" stroke="black" fill="none" stroke-linecap="round"></path><path d="M 410.500,160.000 C 413.421,158.513 413.500,159.000 416.500,158.000" stroke-width="4.051" stroke="black" fill="none" stroke-linecap="round"></path><path d="M 416.500,158.000 C 422.731,158.000 419.421,157.513 422.500,158.000" stroke-width="4.125" stroke="black" fill="none" stroke-linecap="round"></path><path d="M 422.500,158.000 C 419.000,158.000 422.231,158.000 415.500,158.000" stroke-width="4.758" stroke="black" fill="none" stroke-linecap="round"></path><path d="M 415.500,158.000 C 408.000,158.000 408.000,158.000 400.500,158.000" stroke-width="3.364" stroke="black" fill="none" stroke-linecap="round"></path><path d="M 400.500,158.000 C 380.435,157.035 380.500,158.000 360.500,158.000" stroke-width="2.777" stroke="black" fill="none" stroke-linecap="round"></path><path d="M 360.500,158.000 C 349.508,159.564 349.435,158.535 338.500,161.000" stroke-width="2.532" stroke="black" fill="none" stroke-linecap="round"></path><path d="M 338.500,161.000 C 326.515,162.635 326.508,162.564 314.500,164.000" stroke-width="2.320" stroke="black" fill="none" stroke-linecap="round"></path><path d="M 314.500,164.000 C 304.512,165.142 304.515,165.135 294.500,166.000" stroke-width="2.438" stroke="black" fill="none" stroke-linecap="round"></path><path d="M 294.500,166.000 C 286.962,166.171 287.012,166.642 279.500,167.000" stroke-width="2.744" stroke="black" fill="none" stroke-linecap="round"></path></svg>