<svg xmlns="http://www.w3.org/2000/svg" xmlns:xlink="http://www.w3.org/1999/xlink" viewBox="0 0 1460 576" width="1460" height="576"><path d="M 783.000,487.000 C 774.205,479.814 774.500,479.500 766.000,472.000" stroke-width="3.760" stroke="black" fill="none" stroke-linecap="round"></path><path d="M 766.000,472.000 C 753.314,459.676 753.205,459.814 741.000,447.000" stroke-width="2.160" stroke="black" fill="none" stroke-linecap="round"></path><path d="M 741.000,447.000 C 736.063,442.332 736.314,442.176 732.000,437.000" stroke-width="2.717" stroke="black" fill="none" stroke-linecap="round"></path><path d="M 732.000,437.000 C 726.553,432.212 728.063,431.832 725.000,426.000" stroke-width="2.974" stroke="black" fill="none" stroke-linecap="round"></path><path d="M 725.000,426.000 C 716.705,406.711 720.553,408.212 720.000,389.000" stroke-width="2.005" stroke="black" fill="none" stroke-linecap="round"></path><path d="M 720.000,389.000 C 727.687,361.927 724.705,363.711 741.000,340.000" stroke-width="2.105" stroke="black" fill="none" stroke-linecap="round"></path><path d="M 741.000,340.000 C 746.856,334.276 744.687,333.927 754.000,333.000" stroke-width="2.666" stroke="black" fill="none" stroke-linecap="round"></path><path d="M 754.000,333.000 C 776.182,327.224 774.856,329.276 797.000,330.000" stroke-width="1.748" stroke="black" fill="none" stroke-linecap="round"></path><path d="M 797.000,330.000 C 813.607,335.227 813.682,332.224 829.000,343.000" stroke-width="1.822" stroke="black" fill="none" stroke-linecap="round"></path><path d="M 829.000,343.000 C 863.528,361.950 864.107,360.727 898.000,381.000" stroke-width="1.679" stroke="black" fill="none" stroke-linecap="round"></path><path d="M 898.000,381.000 C 901.452,383.090 901.528,382.950 905.000,385.000" stroke-width="2.787" stroke="black" fill="none" stroke-linecap="round"></path><path d="M 905.000,385.000 C 909.806,385.134 907.952,386.590 911.000,388.000" stroke-width="3.518" stroke="black" fill="none" stroke-linecap="round"></path></svg>