<svg xmlns="http://www.w3.org/2000/svg" xmlns:xlink="http://www.w3.org/1999/xlink" viewBox="0 0 1460 576" width="1460" height="576"><path d="M 676.000,240.000 C 666.346,239.752 666.500,239.000 657.000,238.000" stroke-width="3.762" stroke="black" fill="none" stroke-linecap="round"></path><path d="M 657.000,238.000 C 649.561,237.559 650.346,236.752 644.000,234.000" stroke-width="3.226" stroke="black" fill="none" stroke-linecap="round"></path><path d="M 644.000,234.000 C 637.779,228.207 637.061,229.559 632.000,222.000" stroke-width="2.987" stroke="black" fill="none" stroke-linecap="round"></path><path d="M 632.000,222.000 C 618.561,214.812 624.279,213.707 617.000,205.000" stroke-width="3.194" stroke="black" fill="none" stroke-linecap="round"></path><path d="M 617.000,205.000 C 613.419,184.170 615.061,192.812 625.000,178.000" stroke-width="2.286" stroke="black" fill="none" stroke-linecap="round"></path><path d="M 625.000,178.000 C 681.520,154.995 674.419,151.670 739.000,140.000" stroke-width="1.438" stroke="black" fill="none" stroke-linecap="round"></path><path d="M 739.000,140.000 C 751.332,139.294 750.520,136.995 763.000,142.000" stroke-width="1.963" stroke="black" fill="none" stroke-linecap="round"></path><path d="M 763.000,142.000 C 788.663,143.695 785.832,147.294 808.000,156.000" stroke-width="1.553" stroke="black" fill="none" stroke-linecap="round"></path><path d="M 808.000,156.000 C 832.789,174.629 832.663,171.695 851.000,198.000" stroke-width="1.860" stroke="black" fill="none" stroke-linecap="round"></path><path d="M 851.000,198.000 C 865.776,214.712 862.789,213.129 868.000,233.000" stroke-width="1.753" stroke="black" fill="none" stroke-linecap="round"></path><path d="M 868.000,233.000 C 867.347,254.302 870.276,251.712 860.000,272.000" stroke-width="1.652" stroke="black" fill="none" stroke-linecap="round"></path><path d="M 860.000,272.000 C 853.000,279.000 856.347,280.802 846.000,286.000" stroke-width="2.218" stroke="black" fill="none" stroke-linecap="round"></path><path d="M 846.000,286.000 C 839.141,294.249 838.500,293.500 831.000,301.000" stroke-width="2.410" stroke="black" fill="none" stroke-linecap="round"></path><path d="M 831.000,301.000 C 818.242,310.896 818.641,311.249 805.000,320.000" stroke-width="2.063" stroke="black" fill="none" stroke-linecap="round"></path><path d="M 805.000,320.000 C 799.972,324.782 802.242,321.896 799.000,323.000" stroke-width="3.105" stroke="black" fill="none" stroke-linecap="round"></path><path d="M 799.000,323.000 C 796.950,315.151 796.972,319.282 799.000,309.000" stroke-width="4.048" stroke="black" fill="none" stroke-linecap="round"></path><path d="M 799.000,309.000 C 802.500,305.500 800.450,304.651 806.000,302.000" stroke-width="3.629" stroke="black" fill="none" stroke-linecap="round"></path><path d="M 806.000,302.000 C 809.563,297.344 808.000,300.000 810.000,298.000" stroke-width="3.982" stroke="black" fill="none" stroke-linecap="round"></path><path d="M 810.000,298.000 C 810.009,302.064 810.563,298.844 808.000,305.000" stroke-width="4.597" stroke="black" fill="none" stroke-linecap="round"></path><path d="M 808.000,305.000 C 803.330,312.026 803.509,311.564 797.000,317.000" stroke-width="3.238" stroke="black" fill="none" stroke-linecap="round"></path><path d="M 797.000,317.000 C 789.013,323.169 789.330,323.026 780.000,327.000" stroke-width="2.699" stroke="black" fill="none" stroke-linecap="round"></path><path d="M 780.000,327.000 C 768.740,331.752 769.013,331.669 757.000,334.000" stroke-width="2.430" stroke="black" fill="none" stroke-linecap="round"></path><path d="M 757.000,334.000 C 745.012,335.293 745.240,336.252 733.000,336.000" stroke-width="2.952" stroke="black" fill="none" stroke-linecap="round"></path><path d="M 733.000,336.000 C 728.000,336.000 728.012,336.293 723.000,336.000" stroke-width="3.341" stroke="black" fill="none" stroke-linecap="round"></path></svg>