<svg xmlns="http://www.w3.org/2000/svg" xmlns:xlink="http://www.w3.org/1999/xlink" viewBox="0 0 692 576" width="692" height="576"><path d="M 307.000,347.000 C 300.922,344.183 301.500,343.500 296.000,340.000" stroke-width="5.175" stroke="black" fill="none" stroke-linecap="round"></path><path d="M 296.000,340.000 C 291.599,334.906 290.922,335.683 287.000,330.000" stroke-width="3.484" stroke="black" fill="none" stroke-linecap="round"></path><path d="M 287.000,330.000 C 281.894,327.872 284.099,326.906 281.000,324.000" stroke-width="3.616" stroke="black" fill="none" stroke-linecap="round"></path><path d="M 281.000,324.000 C 279.196,313.695 278.894,314.872 281.000,304.000" stroke-width="2.893" stroke="black" fill="none" stroke-linecap="round"></path><path d="M 281.000,304.000 C 281.095,289.456 283.196,292.195 289.000,281.000" stroke-width="2.461" stroke="black" fill="none" stroke-linecap="round"></path><path d="M 289.000,281.000 C 305.274,266.643 302.595,266.456 324.000,258.000" stroke-width="1.808" stroke="black" fill="none" stroke-linecap="round"></path><path d="M 324.000,258.000 C 338.897,251.809 337.774,251.643 354.000,251.000" stroke-width="1.939" stroke="black" fill="none" stroke-linecap="round"></path><path d="M 354.000,251.000 C 367.399,251.456 366.897,250.309 380.000,255.000" stroke-width="2.120" stroke="black" fill="none" stroke-linecap="round"></path><path d="M 380.000,255.000 C 400.525,259.727 399.399,260.456 418.000,269.000" stroke-width="1.661" stroke="black" fill="none" stroke-linecap="round"></path><path d="M 418.000,269.000 C 429.859,273.552 425.025,272.727 429.000,281.000" stroke-width="2.395" stroke="black" fill="none" stroke-linecap="round"></path><path d="M 429.000,281.000 C 423.182,316.771 425.359,312.552 409.000,347.000" stroke-width="2.354" stroke="black" fill="none" stroke-linecap="round"></path><path d="M 409.000,347.000 C 400.553,355.257 404.182,357.271 391.000,362.000" stroke-width="2.362" stroke="black" fill="none" stroke-linecap="round"></path><path d="M 391.000,362.000 C 374.938,373.684 375.053,373.257 358.000,383.000" stroke-width="1.800" stroke="black" fill="none" stroke-linecap="round"></path><path d="M 358.000,383.000 C 354.343,384.627 354.938,384.684 351.000,384.000" stroke-width="2.941" stroke="black" fill="none" stroke-linecap="round"></path><path d="M 351.000,384.000 C 344.404,383.846 346.343,383.127 342.000,380.000" stroke-width="3.395" stroke="black" fill="none" stroke-linecap="round"></path><path d="M 342.000,380.000 C 336.000,370.159 336.904,371.846 336.000,360.000" stroke-width="2.735" stroke="black" fill="none" stroke-linecap="round"></path><path d="M 336.000,360.000 C 337.063,343.165 336.000,344.159 342.000,328.000" stroke-width="2.117" stroke="black" fill="none" stroke-linecap="round"></path><path d="M 342.000,328.000 C 345.075,321.607 344.063,321.665 350.000,317.000" stroke-width="2.638" stroke="black" fill="none" stroke-linecap="round"></path><path d="M 350.000,317.000 C 360.372,306.015 360.575,307.107 373.000,299.000" stroke-width="2.149" stroke="black" fill="none" stroke-linecap="round"></path><path d="M 373.000,299.000 C 388.146,291.385 387.372,291.015 404.000,287.000" stroke-width="1.914" stroke="black" fill="none" stroke-linecap="round"></path><path d="M 404.000,287.000 C 412.297,285.037 411.646,284.885 420.000,286.000" stroke-width="2.509" stroke="black" fill="none" stroke-linecap="round"></path><path d="M 420.000,286.000 C 424.172,287.703 424.297,286.537 428.000,290.000" stroke-width="3.231" stroke="black" fill="none" stroke-linecap="round"></path><path d="M 428.000,290.000 C 433.947,294.083 434.172,293.703 440.000,298.000" stroke-width="3.035" stroke="black" fill="none" stroke-linecap="round"></path><path d="M 440.000,298.000 C 442.500,299.500 442.447,299.583 445.000,301.000" stroke-width="3.794" stroke="black" fill="none" stroke-linecap="round"></path><path d="M 445.000,301.000 C 448.658,301.541 447.500,302.500 450.000,304.000" stroke-width="4.018" stroke="black" fill="none" stroke-linecap="round"></path><path d="M 450.000,304.000 C 455.608,313.258 454.658,312.541 457.000,323.000" stroke-width="2.879" stroke="black" fill="none" stroke-linecap="round"></path><path d="M 457.000,323.000 C 457.508,331.476 458.108,330.758 455.000,339.000" stroke-width="2.885" stroke="black" fill="none" stroke-linecap="round"></path><path d="M 455.000,339.000 C 450.796,347.670 452.008,347.976 446.000,356.000" stroke-width="2.645" stroke="black" fill="none" stroke-linecap="round"></path><path d="M 446.000,356.000 C 442.491,367.456 441.296,364.170 436.000,372.000" stroke-width="2.600" stroke="black" fill="none" stroke-linecap="round"></path><path d="M 436.000,372.000 C 426.917,374.515 432.491,374.456 426.000,370.000" stroke-width="3.608" stroke="black" fill="none" stroke-linecap="round"></path><path d="M 426.000,370.000 C 423.407,338.949 420.417,342.515 423.000,308.000" stroke-width="1.448" stroke="black" fill="none" stroke-linecap="round"></path><path d="M 423.000,308.000 C 423.651,300.936 422.907,300.949 425.000,294.000" stroke-width="2.298" stroke="black" fill="none" stroke-linecap="round"></path><path d="M 425.000,294.000 C 426.551,282.661 427.151,282.936 430.000,272.000" stroke-width="2.380" stroke="black" fill="none" stroke-linecap="round"></path></svg>