<svg xmlns="http://www.w3.org/2000/svg" xmlns:xlink="http://www.w3.org/1999/xlink" viewBox="0 0 692 576" width="692" height="576"><path d="M 405.000,229.000 C 404.802,247.661 402.500,247.000 400.000,265.000" stroke-width="2.788" stroke="black" fill="none" stroke-linecap="round"></path><path d="M 400.000,265.000 C 395.543,281.027 395.802,280.161 387.000,294.000" stroke-width="2.842" stroke="black" fill="none" stroke-linecap="round"></path><path d="M 387.000,294.000 C 381.414,303.494 382.043,301.527 373.000,306.000" stroke-width="2.678" stroke="black" fill="none" stroke-linecap="round"></path><path d="M 373.000,306.000 C 355.894,309.478 357.914,310.494 340.000,308.000" stroke-width="2.150" stroke="black" fill="none" stroke-linecap="round"></path><path d="M 340.000,308.000 C 334.480,305.666 334.394,307.478 330.000,302.000" stroke-width="2.772" stroke="black" fill="none" stroke-linecap="round"></path><path d="M 330.000,302.000 C 323.832,296.156 323.480,296.666 318.000,290.000" stroke-width="2.802" stroke="black" fill="none" stroke-linecap="round"></path><path d="M 318.000,290.000 C 312.603,287.340 314.832,286.656 312.000,283.000" stroke-width="3.344" stroke="black" fill="none" stroke-linecap="round"></path><path d="M 312.000,283.000 C 309.726,267.693 310.103,269.340 313.000,254.000" stroke-width="2.344" stroke="black" fill="none" stroke-linecap="round"></path><path d="M 313.000,254.000 C 315.246,242.428 315.226,244.693 323.000,237.000" stroke-width="2.520" stroke="black" fill="none" stroke-linecap="round"></path><path d="M 323.000,237.000 C 342.362,224.659 340.246,224.928 363.000,219.000" stroke-width="1.710" stroke="black" fill="none" stroke-linecap="round"></path><path d="M 363.000,219.000 C 374.064,218.975 373.362,216.159 385.000,220.000" stroke-width="2.123" stroke="black" fill="none" stroke-linecap="round"></path><path d="M 385.000,220.000 C 390.090,220.661 390.064,220.475 395.000,222.000" stroke-width="2.898" stroke="black" fill="none" stroke-linecap="round"></path><path d="M 395.000,222.000 C 401.357,223.344 401.090,223.661 407.000,226.000" stroke-width="3.170" stroke="black" fill="none" stroke-linecap="round"></path><path d="M 407.000,226.000 C 411.876,227.148 409.857,227.344 412.000,230.000" stroke-width="3.719" stroke="black" fill="none" stroke-linecap="round"></path><path d="M 412.000,230.000 C 413.677,241.858 412.376,238.648 408.000,249.000" stroke-width="2.808" stroke="black" fill="none" stroke-linecap="round"></path><path d="M 408.000,249.000 C 395.376,260.544 398.177,261.358 381.000,269.000" stroke-width="2.421" stroke="black" fill="none" stroke-linecap="round"></path><path d="M 381.000,269.000 C 369.339,275.181 369.876,275.544 357.000,279.000" stroke-width="2.279" stroke="black" fill="none" stroke-linecap="round"></path><path d="M 357.000,279.000 C 340.127,281.718 348.339,281.681 339.000,282.000" stroke-width="2.783" stroke="black" fill="none" stroke-linecap="round"></path><path d="M 339.000,282.000 C 346.633,278.616 338.127,282.218 353.000,280.000" stroke-width="3.901" stroke="black" fill="none" stroke-linecap="round"></path><path d="M 353.000,280.000 C 358.394,282.718 358.133,281.116 362.000,287.000" stroke-width="3.511" stroke="black" fill="none" stroke-linecap="round"></path><path d="M 362.000,287.000 C 365.722,292.880 366.394,292.218 369.000,299.000" stroke-width="3.145" stroke="black" fill="none" stroke-linecap="round"></path></svg>