<svg xmlns="http://www.w3.org/2000/svg" xmlns:xlink="http://www.w3.org/1999/xlink" viewBox="0 0 1460 576" width="1460" height="576"><path d="M 664.000,323.000 C 661.383,321.668 661.500,321.500 659.000,320.000" stroke-width="5.052" stroke="black" fill="none" stroke-linecap="round"></path><path d="M 659.000,320.000 C 656.533,317.958 656.383,318.168 654.000,316.000" stroke-width="4.335" stroke="black" fill="none" stroke-linecap="round"></path><path d="M 654.000,316.000 C 645.719,309.188 645.533,309.458 637.000,303.000" stroke-width="2.777" stroke="black" fill="none" stroke-linecap="round"></path><path d="M 637.000,303.000 C 630.204,298.116 630.219,298.188 623.000,294.000" stroke-width="2.699" stroke="black" fill="none" stroke-linecap="round"></path><path d="M 623.000,294.000 C 619.404,292.702 619.704,292.116 616.000,291.000" stroke-width="3.432" stroke="black" fill="none" stroke-linecap="round"></path><path d="M 616.000,291.000 C 606.071,286.669 606.404,286.202 597.000,281.000" stroke-width="2.710" stroke="black" fill="none" stroke-linecap="round"></path><path d="M 597.000,281.000 C 590.541,275.946 590.071,276.669 584.000,271.000" stroke-width="2.815" stroke="black" fill="none" stroke-linecap="round"></path><path d="M 584.000,271.000 C 570.132,260.313 570.041,260.446 556.000,250.000" stroke-width="2.052" stroke="black" fill="none" stroke-linecap="round"></path><path d="M 556.000,250.000 C 551.268,247.283 551.632,246.813 547.000,244.000" stroke-width="3.198" stroke="black" fill="none" stroke-linecap="round"></path><path d="M 547.000,244.000 C 542.405,241.785 544.768,242.283 543.000,240.000" stroke-width="4.162" stroke="black" fill="none" stroke-linecap="round"></path><path d="M 543.000,240.000 C 545.928,235.950 543.905,237.285 550.000,235.000" stroke-width="4.178" stroke="black" fill="none" stroke-linecap="round"></path><path d="M 550.000,235.000 C 561.475,233.189 560.928,232.450 573.000,233.000" stroke-width="2.661" stroke="black" fill="none" stroke-linecap="round"></path><path d="M 573.000,233.000 C 592.209,236.364 591.975,232.689 611.000,234.000" stroke-width="1.940" stroke="black" fill="none" stroke-linecap="round"></path><path d="M 611.000,234.000 C 671.375,222.572 671.709,226.364 732.000,213.000" stroke-width="1.322" stroke="black" fill="none" stroke-linecap="round"></path><path d="M 732.000,213.000 C 747.586,212.141 747.375,210.572 763.000,210.000" stroke-width="1.800" stroke="black" fill="none" stroke-linecap="round"></path><path d="M 763.000,210.000 C 783.517,206.598 783.586,207.141 804.000,203.000" stroke-width="1.572" stroke="black" fill="none" stroke-linecap="round"></path><path d="M 804.000,203.000 C 820.368,198.944 820.517,200.098 837.000,197.000" stroke-width="1.783" stroke="black" fill="none" stroke-linecap="round"></path><path d="M 837.000,197.000 C 858.993,195.295 858.868,194.444 881.000,194.000" stroke-width="2.179" stroke="black" fill="none" stroke-linecap="round"></path><path d="M 881.000,194.000 C 888.146,191.813 884.493,193.795 888.000,194.000" stroke-width="3.220" stroke="black" fill="none" stroke-linecap="round"></path><path d="M 888.000,194.000 C 887.096,204.853 887.646,199.313 880.000,209.000" stroke-width="3.847" stroke="black" fill="none" stroke-linecap="round"></path><path d="M 880.000,209.000 C 845.500,224.000 848.596,227.353 811.000,239.000" stroke-width="1.270" stroke="black" fill="none" stroke-linecap="round"></path><path d="M 811.000,239.000 C 786.505,246.455 788.000,249.000 765.000,259.000" stroke-width="1.374" stroke="black" fill="none" stroke-linecap="round"></path><path d="M 765.000,259.000 C 745.437,272.800 744.505,270.955 727.000,288.000" stroke-width="1.485" stroke="black" fill="none" stroke-linecap="round"></path><path d="M 727.000,288.000 C 680.353,327.333 679.937,326.800 634.000,367.000" stroke-width="1.225" stroke="black" fill="none" stroke-linecap="round"></path><path d="M 634.000,367.000 C 628.112,371.632 628.353,371.833 623.000,377.000" stroke-width="2.091" stroke="black" fill="none" stroke-linecap="round"></path><path d="M 623.000,377.000 C 609.529,390.076 618.112,382.132 614.000,388.000" stroke-width="2.642" stroke="black" fill="none" stroke-linecap="round"></path><path d="M 614.000,388.000 C 646.043,368.621 637.529,377.076 679.000,351.000" stroke-width="2.668" stroke="black" fill="none" stroke-linecap="round"></path><path d="M 679.000,351.000 C 696.496,341.196 696.543,341.621 715.000,334.000" stroke-width="1.830" stroke="black" fill="none" stroke-linecap="round"></path><path d="M 715.000,334.000 C 732.766,326.507 732.496,327.196 751.000,323.000" stroke-width="1.823" stroke="black" fill="none" stroke-linecap="round"></path><path d="M 751.000,323.000 C 760.416,320.708 758.766,321.507 767.000,324.000" stroke-width="2.461" stroke="black" fill="none" stroke-linecap="round"></path><path d="M 767.000,324.000 C 775.584,329.154 773.416,327.208 777.000,336.000" stroke-width="3.256" stroke="black" fill="none" stroke-linecap="round"></path><path d="M 777.000,336.000 C 777.316,345.681 778.584,343.654 773.000,353.000" stroke-width="2.903" stroke="black" fill="none" stroke-linecap="round"></path><path d="M 773.000,353.000 C 764.236,364.764 765.816,365.181 754.000,375.000" stroke-width="2.270" stroke="black" fill="none" stroke-linecap="round"></path><path d="M 754.000,375.000 C 746.847,381.542 747.236,381.764 739.000,387.000" stroke-width="2.463" stroke="black" fill="none" stroke-linecap="round"></path><path d="M 739.000,387.000 C 730.318,393.182 735.347,389.542 731.000,391.000" stroke-width="3.584" stroke="black" fill="none" stroke-linecap="round"></path><path d="M 731.000,391.000 C 734.708,378.216 732.818,385.182 744.000,371.000" stroke-width="2.540" stroke="black" fill="none" stroke-linecap="round"></path><path d="M 744.000,371.000 C 783.678,343.021 781.708,341.716 825.000,318.000" stroke-width="1.125" stroke="black" fill="none" stroke-linecap="round"></path><path d="M 825.000,318.000 C 838.468,310.046 838.178,310.021 853.000,305.000" stroke-width="1.539" stroke="black" fill="none" stroke-linecap="round"></path><path d="M 853.000,305.000 C 878.843,293.000 874.468,297.546 897.000,293.000" stroke-width="2.056" stroke="black" fill="none" stroke-linecap="round"></path><path d="M 897.000,293.000 C 899.985,299.335 901.843,293.000 899.000,305.000" stroke-width="3.326" stroke="black" fill="none" stroke-linecap="round"></path><path d="M 899.000,305.000 C 896.581,310.884 897.985,310.835 893.000,316.000" stroke-width="3.264" stroke="black" fill="none" stroke-linecap="round"></path><path d="M 893.000,316.000 C 885.561,325.549 886.081,325.884 878.000,335.000" stroke-width="2.471" stroke="black" fill="none" stroke-linecap="round"></path><path d="M 878.000,335.000 C 873.312,340.361 873.561,340.549 869.000,346.000" stroke-width="2.858" stroke="black" fill="none" stroke-linecap="round"></path><path d="M 869.000,346.000 C 863.556,352.321 866.812,348.861 865.000,352.000" stroke-width="3.897" stroke="black" fill="none" stroke-linecap="round"></path><path d="M 865.000,352.000 C 871.839,348.481 868.056,351.321 878.000,344.000" stroke-width="3.193" stroke="black" fill="none" stroke-linecap="round"></path><path d="M 908.000,289.000 C 906.148,292.796 905.500,292.000 903.000,295.000" stroke-width="5.257" stroke="black" fill="none" stroke-linecap="round"></path><path d="M 903.000,295.000 C 895.835,299.748 896.148,299.796 888.000,303.000" stroke-width="3.268" stroke="black" fill="none" stroke-linecap="round"></path><path d="M 888.000,303.000 C 869.265,310.825 869.335,310.748 850.000,317.000" stroke-width="2.015" stroke="black" fill="none" stroke-linecap="round"></path><path d="M 850.000,317.000 C 830.435,325.370 830.265,323.325 810.000,328.000" stroke-width="1.619" stroke="black" fill="none" stroke-linecap="round"></path><path d="M 810.000,328.000 C 779.287,331.577 779.935,331.870 749.000,330.000" stroke-width="1.275" stroke="black" fill="none" stroke-linecap="round"></path><path d="M 749.000,330.000 C 730.959,327.899 731.287,329.077 714.000,323.000" stroke-width="1.569" stroke="black" fill="none" stroke-linecap="round"></path><path d="M 714.000,323.000 C 705.861,322.212 708.459,321.399 704.000,317.000" stroke-width="2.494" stroke="black" fill="none" stroke-linecap="round"></path><path d="M 704.000,317.000 C 697.388,291.983 695.861,294.212 694.000,267.000" stroke-width="1.921" stroke="black" fill="none" stroke-linecap="round"></path><path d="M 694.000,267.000 C 693.521,261.777 693.388,262.483 696.000,258.000" stroke-width="2.932" stroke="black" fill="none" stroke-linecap="round"></path><path d="M 696.000,258.000 C 702.639,242.814 704.021,245.777 715.000,235.000" stroke-width="2.109" stroke="black" fill="none" stroke-linecap="round"></path><path d="M 715.000,235.000 C 747.859,213.137 746.139,215.314 783.000,203.000" stroke-width="1.846" stroke="black" fill="none" stroke-linecap="round"></path><path d="M 783.000,203.000 C 801.590,201.580 799.859,198.137 819.000,205.000" stroke-width="1.815" stroke="black" fill="none" stroke-linecap="round"></path><path d="M 819.000,205.000 C 830.735,207.572 829.590,207.080 839.000,214.000" stroke-width="2.172" stroke="black" fill="none" stroke-linecap="round"></path><path d="M 839.000,214.000 C 846.841,219.484 844.235,218.072 846.000,226.000" stroke-width="2.746" stroke="black" fill="none" stroke-linecap="round"></path><path d="M 846.000,226.000 C 847.721,257.121 842.841,250.484 831.000,276.000" stroke-width="2.290" stroke="black" fill="none" stroke-linecap="round"></path><path d="M 831.000,276.000 C 778.053,323.351 785.721,327.121 722.000,366.000" stroke-width="1.125" stroke="black" fill="none" stroke-linecap="round"></path><path d="M 722.000,366.000 C 708.209,375.272 709.053,375.851 693.000,381.000" stroke-width="1.332" stroke="black" fill="none" stroke-linecap="round"></path><path d="M 693.000,381.000 C 669.468,391.876 669.709,389.772 645.000,395.000" stroke-width="1.397" stroke="black" fill="none" stroke-linecap="round"></path><path d="M 645.000,395.000 C 621.211,396.507 622.468,397.876 599.000,393.000" stroke-width="1.950" stroke="black" fill="none" stroke-linecap="round"></path><path d="M 599.000,393.000 C 592.287,390.764 592.711,392.007 588.000,386.000" stroke-width="2.676" stroke="black" fill="none" stroke-linecap="round"></path><path d="M 588.000,386.000 C 579.336,374.878 578.787,375.764 572.000,363.000" stroke-width="2.200" stroke="black" fill="none" stroke-linecap="round"></path><path d="M 572.000,363.000 C 567.451,357.868 568.836,357.878 567.000,352.000" stroke-width="2.863" stroke="black" fill="none" stroke-linecap="round"></path><path d="M 567.000,352.000 C 564.954,336.759 565.951,338.368 569.000,324.000" stroke-width="2.984" stroke="black" fill="none" stroke-linecap="round"></path><path d="M 569.000,324.000 C 573.884,316.838 571.454,316.259 580.000,311.000" stroke-width="2.918" stroke="black" fill="none" stroke-linecap="round"></path><path d="M 580.000,311.000 C 592.276,303.213 584.884,306.338 591.000,303.000" stroke-width="3.003" stroke="black" fill="none" stroke-linecap="round"></path><path d="M 591.000,303.000 C 582.433,306.346 589.276,302.713 574.000,310.000" stroke-width="3.897" stroke="black" fill="none" stroke-linecap="round"></path><path d="M 574.000,310.000 C 567.453,312.902 567.433,312.846 561.000,316.000" stroke-width="3.197" stroke="black" fill="none" stroke-linecap="round"></path><path d="M 561.000,316.000 C 555.217,319.567 554.953,318.902 549.000,322.000" stroke-width="3.160" stroke="black" fill="none" stroke-linecap="round"></path><path d="M 549.000,322.000 C 543.586,323.926 543.717,324.067 538.000,325.000" stroke-width="3.302" stroke="black" fill="none" stroke-linecap="round"></path><path d="M 538.000,325.000 C 530.531,326.335 530.586,326.426 523.000,327.000" stroke-width="3.067" stroke="black" fill="none" stroke-linecap="round"></path><path d="M 523.000,327.000 C 513.505,327.683 513.531,327.835 504.000,328.000" stroke-width="3.290" stroke="black" fill="none" stroke-linecap="round"></path><path d="M 504.000,328.000 C 497.723,330.024 498.505,328.183 493.000,328.000" stroke-width="3.320" stroke="black" fill="none" stroke-linecap="round"></path><path d="M 493.000,328.000 C 485.154,325.001 487.223,325.524 483.000,319.000" stroke-width="3.192" stroke="black" fill="none" stroke-linecap="round"></path><path d="M 483.000,319.000 C 477.690,303.667 478.154,305.501 479.000,289.000" stroke-width="2.273" stroke="black" fill="none" stroke-linecap="round"></path><path d="M 479.000,289.000 C 482.548,275.462 480.190,275.667 488.000,263.000" stroke-width="2.776" stroke="black" fill="none" stroke-linecap="round"></path></svg>