<svg xmlns="http://www.w3.org/2000/svg" xmlns:xlink="http://www.w3.org/1999/xlink" viewBox="0 0 692 576" width="692" height="576"><path d="M 345.000,208.000 C 344.994,210.681 344.500,210.500 344.000,213.000" stroke-width="5.175" stroke="black" fill="none" stroke-linecap="round"></path><path d="M 344.000,213.000 C 341.904,217.805 341.994,217.681 339.000,222.000" stroke-width="3.879" stroke="black" fill="none" stroke-linecap="round"></path><path d="M 339.000,222.000 C 337.100,224.110 337.404,224.305 335.000,226.000" stroke-width="4.021" stroke="black" fill="none" stroke-linecap="round"></path><path d="M 335.000,226.000 C 332.353,229.059 332.100,228.610 329.000,231.000" stroke-width="3.903" stroke="black" fill="none" stroke-linecap="round"></path><path d="M 329.000,231.000 C 322.841,235.349 322.853,234.559 316.000,237.000" stroke-width="3.198" stroke="black" fill="none" stroke-linecap="round"></path><path d="M 316.000,237.000 C 307.995,238.000 308.341,238.849 300.000,238.000" stroke-width="2.916" stroke="black" fill="none" stroke-linecap="round"></path><path d="M 300.000,238.000 C 293.850,238.170 293.995,238.000 288.000,237.000" stroke-width="3.115" stroke="black" fill="none" stroke-linecap="round"></path><path d="M 288.000,237.000 C 282.380,237.173 283.850,236.170 280.000,234.000" stroke-width="3.530" stroke="black" fill="none" stroke-linecap="round"></path><path d="M 280.000,234.000 C 273.622,225.395 274.880,227.173 273.000,217.000" stroke-width="2.838" stroke="black" fill="none" stroke-linecap="round"></path><path d="M 273.000,217.000 C 273.547,209.969 272.622,211.895 278.000,207.000" stroke-width="3.205" stroke="black" fill="none" stroke-linecap="round"></path><path d="M 278.000,207.000 C 292.868,197.528 291.547,197.969 309.000,193.000" stroke-width="2.072" stroke="black" fill="none" stroke-linecap="round"></path><path d="M 309.000,193.000 C 322.091,189.953 321.368,189.528 335.000,191.000" stroke-width="2.173" stroke="black" fill="none" stroke-linecap="round"></path><path d="M 335.000,191.000 C 360.530,191.510 359.091,192.953 383.000,199.000" stroke-width="1.860" stroke="black" fill="none" stroke-linecap="round"></path><path d="M 383.000,199.000 C 392.869,205.083 393.530,202.510 401.000,213.000" stroke-width="2.159" stroke="black" fill="none" stroke-linecap="round"></path><path d="M 401.000,213.000 C 416.234,222.760 411.869,223.583 421.000,236.000" stroke-width="2.537" stroke="black" fill="none" stroke-linecap="round"></path><path d="M 421.000,236.000 C 423.621,251.159 425.234,247.760 419.000,263.000" stroke-width="2.268" stroke="black" fill="none" stroke-linecap="round"></path><path d="M 419.000,263.000 C 412.068,270.068 415.621,271.659 405.000,277.000" stroke-width="2.490" stroke="black" fill="none" stroke-linecap="round"></path><path d="M 405.000,277.000 C 387.312,297.450 386.068,295.568 367.000,314.000" stroke-width="1.521" stroke="black" fill="none" stroke-linecap="round"></path><path d="M 367.000,314.000 C 359.283,318.853 360.312,319.450 351.000,321.000" stroke-width="2.225" stroke="black" fill="none" stroke-linecap="round"></path><path d="M 351.000,321.000 C 344.976,322.731 345.783,322.353 340.000,321.000" stroke-width="2.943" stroke="black" fill="none" stroke-linecap="round"></path><path d="M 340.000,321.000 C 332.189,318.306 333.476,318.731 328.000,313.000" stroke-width="2.954" stroke="black" fill="none" stroke-linecap="round"></path><path d="M 328.000,313.000 C 324.201,307.061 324.689,308.806 325.000,302.000" stroke-width="3.280" stroke="black" fill="none" stroke-linecap="round"></path><path d="M 325.000,302.000 C 326.514,295.847 325.701,297.561 331.000,294.000" stroke-width="3.459" stroke="black" fill="none" stroke-linecap="round"></path><path d="M 331.000,294.000 C 353.315,285.694 352.014,285.347 376.000,281.000" stroke-width="1.805" stroke="black" fill="none" stroke-linecap="round"></path><path d="M 376.000,281.000 C 382.622,280.819 382.315,279.694 389.000,282.000" stroke-width="2.551" stroke="black" fill="none" stroke-linecap="round"></path><path d="M 389.000,282.000 C 396.862,282.459 396.122,283.319 403.000,286.000" stroke-width="2.814" stroke="black" fill="none" stroke-linecap="round"></path><path d="M 403.000,286.000 C 410.878,290.405 409.862,289.959 415.000,297.000" stroke-width="2.796" stroke="black" fill="none" stroke-linecap="round"></path><path d="M 415.000,297.000 C 417.404,303.447 418.378,302.405 418.000,310.000" stroke-width="3.087" stroke="black" fill="none" stroke-linecap="round"></path><path d="M 418.000,310.000 C 417.921,314.579 418.404,314.447 417.000,319.000" stroke-width="3.424" stroke="black" fill="none" stroke-linecap="round"></path><path d="M 417.000,319.000 C 414.882,326.472 415.421,326.579 413.000,334.000" stroke-width="3.005" stroke="black" fill="none" stroke-linecap="round"></path></svg>