<svg xmlns="http://www.w3.org/2000/svg" xmlns:xlink="http://www.w3.org/1999/xlink" viewBox="0 0 692 576" width="692" height="576"><path d="M 352.000,240.000 C 346.131,242.721 346.000,241.500 340.000,243.000" stroke-width="4.835" stroke="black" fill="none" stroke-linecap="round"></path><path d="M 340.000,243.000 C 323.893,243.382 324.131,243.721 308.000,242.000" stroke-width="2.296" stroke="black" fill="none" stroke-linecap="round"></path><path d="M 308.000,242.000 C 301.068,240.071 300.893,241.382 294.000,239.000" stroke-width="2.779" stroke="black" fill="none" stroke-linecap="round"></path><path d="M 294.000,239.000 C 284.494,238.055 284.568,237.571 275.000,237.000" stroke-width="2.743" stroke="black" fill="none" stroke-linecap="round"></path><path d="M 275.000,237.000 C 271.013,236.287 270.994,236.555 267.000,236.000" stroke-width="3.326" stroke="black" fill="none" stroke-linecap="round"></path><path d="M 267.000,236.000 C 260.584,238.328 264.013,235.787 261.000,236.000" stroke-width="4.215" stroke="black" fill="none" stroke-linecap="round"></path><path d="M 261.000,236.000 C 263.029,219.082 263.084,224.328 272.000,208.000" stroke-width="2.478" stroke="black" fill="none" stroke-linecap="round"></path><path d="M 272.000,208.000 C 282.305,197.724 280.029,198.082 295.000,194.000" stroke-width="2.198" stroke="black" fill="none" stroke-linecap="round"></path><path d="M 295.000,194.000 C 320.895,187.800 319.805,186.724 347.000,186.000" stroke-width="1.548" stroke="black" fill="none" stroke-linecap="round"></path><path d="M 347.000,186.000 C 365.211,183.803 364.395,184.800 382.000,188.000" stroke-width="1.692" stroke="black" fill="none" stroke-linecap="round"></path><path d="M 382.000,188.000 C 405.637,194.995 405.211,193.803 427.000,206.000" stroke-width="1.473" stroke="black" fill="none" stroke-linecap="round"></path><path d="M 427.000,206.000 C 438.042,213.415 438.637,211.995 448.000,222.000" stroke-width="1.918" stroke="black" fill="none" stroke-linecap="round"></path><path d="M 448.000,222.000 C 453.968,225.529 452.542,225.915 456.000,231.000" stroke-width="2.710" stroke="black" fill="none" stroke-linecap="round"></path><path d="M 456.000,231.000 C 462.277,244.871 460.468,243.029 461.000,257.000" stroke-width="2.331" stroke="black" fill="none" stroke-linecap="round"></path><path d="M 461.000,257.000 C 457.561,264.074 460.277,263.871 452.000,269.000" stroke-width="2.755" stroke="black" fill="none" stroke-linecap="round"></path><path d="M 452.000,269.000 C 440.046,280.275 440.061,279.574 426.000,288.000" stroke-width="2.067" stroke="black" fill="none" stroke-linecap="round"></path><path d="M 426.000,288.000 C 399.360,301.635 400.046,302.275 372.000,313.000" stroke-width="1.365" stroke="black" fill="none" stroke-linecap="round"></path><path d="M 372.000,313.000 C 366.569,314.889 366.860,315.135 361.000,315.000" stroke-width="2.373" stroke="black" fill="none" stroke-linecap="round"></path><path d="M 361.000,315.000 C 338.581,318.044 341.569,315.389 322.000,314.000" stroke-width="2.513" stroke="black" fill="none" stroke-linecap="round"></path><path d="M 322.000,314.000 C 318.909,309.183 318.081,313.044 320.000,305.000" stroke-width="3.589" stroke="black" fill="none" stroke-linecap="round"></path><path d="M 320.000,305.000 C 322.970,297.253 321.909,297.683 328.000,291.000" stroke-width="3.067" stroke="black" fill="none" stroke-linecap="round"></path><path d="M 328.000,291.000 C 340.975,273.102 341.470,274.253 357.000,259.000" stroke-width="1.792" stroke="black" fill="none" stroke-linecap="round"></path><path d="M 357.000,259.000 C 366.928,251.306 365.975,251.102 378.000,247.000" stroke-width="2.132" stroke="black" fill="none" stroke-linecap="round"></path><path d="M 378.000,247.000 C 385.572,244.725 384.928,244.306 393.000,245.000" stroke-width="2.660" stroke="black" fill="none" stroke-linecap="round"></path><path d="M 393.000,245.000 C 400.237,244.666 399.072,245.225 405.000,248.000" stroke-width="2.999" stroke="black" fill="none" stroke-linecap="round"></path><path d="M 405.000,248.000 C 410.020,253.040 410.237,251.666 413.000,259.000" stroke-width="3.140" stroke="black" fill="none" stroke-linecap="round"></path><path d="M 413.000,259.000 C 416.108,263.692 415.020,263.040 415.000,268.000" stroke-width="3.428" stroke="black" fill="none" stroke-linecap="round"></path><path d="M 415.000,268.000 C 410.620,281.623 411.608,281.192 404.000,294.000" stroke-width="2.456" stroke="black" fill="none" stroke-linecap="round"></path><path d="M 404.000,294.000 C 399.539,304.215 399.120,303.123 392.000,311.000" stroke-width="2.507" stroke="black" fill="none" stroke-linecap="round"></path><path d="M 392.000,311.000 C 383.406,317.056 384.539,317.715 374.000,321.000" stroke-width="2.410" stroke="black" fill="none" stroke-linecap="round"></path><path d="M 374.000,321.000 C 367.610,323.464 367.906,323.556 361.000,324.000" stroke-width="2.835" stroke="black" fill="none" stroke-linecap="round"></path><path d="M 361.000,324.000 C 348.959,324.412 349.110,324.964 337.000,324.000" stroke-width="2.463" stroke="black" fill="none" stroke-linecap="round"></path><path d="M 337.000,324.000 C 334.432,323.730 334.459,323.912 332.000,323.000" stroke-width="3.553" stroke="black" fill="none" stroke-linecap="round"></path><path d="M 332.000,323.000 C 326.235,322.378 329.432,322.230 327.000,321.000" stroke-width="3.988" stroke="black" fill="none" stroke-linecap="round"></path><path d="M 327.000,321.000 C 331.676,316.819 328.735,317.878 337.000,314.000" stroke-width="4.497" stroke="black" fill="none" stroke-linecap="round"></path></svg>