<svg xmlns="http://www.w3.org/2000/svg" xmlns:xlink="http://www.w3.org/1999/xlink" viewBox="0 0 1460 576" width="1460" height="576"><path d="M 760.000,317.000 C 755.172,319.670 755.000,318.500 750.000,320.000" stroke-width="4.630" stroke="black" fill="none" stroke-linecap="round"></path><path d="M 750.000,320.000 C 731.400,321.464 731.672,321.170 713.000,320.000" stroke-width="2.173" stroke="black" fill="none" stroke-linecap="round"></path><path d="M 713.000,320.000 C 687.615,315.175 687.400,317.964 662.000,313.000" stroke-width="1.564" stroke="black" fill="none" stroke-linecap="round"></path><path d="M 662.000,313.000 C 634.506,311.267 634.615,310.675 607.000,311.000" stroke-width="1.478" stroke="black" fill="none" stroke-linecap="round"></path><path d="M 607.000,311.000 C 582.935,310.803 583.006,310.767 559.000,312.000" stroke-width="1.922" stroke="black" fill="none" stroke-linecap="round"></path><path d="M 559.000,312.000 C 553.027,313.214 552.935,312.303 547.000,314.000" stroke-width="2.706" stroke="black" fill="none" stroke-linecap="round"></path><path d="M 547.000,314.000 C 540.143,316.776 541.527,314.714 536.000,315.000" stroke-width="3.163" stroke="black" fill="none" stroke-linecap="round"></path><path d="M 536.000,315.000 C 530.475,310.666 533.143,313.776 533.000,308.000" stroke-width="4.032" stroke="black" fill="none" stroke-linecap="round"></path><path d="M 533.000,308.000 C 573.833,256.789 574.975,263.666 625.000,221.000" stroke-width="1.125" stroke="black" fill="none" stroke-linecap="round"></path><path d="M 625.000,221.000 C 669.599,198.062 665.333,192.789 716.000,180.000" stroke-width="1.125" stroke="black" fill="none" stroke-linecap="round"></path><path d="M 716.000,180.000 C 744.812,170.191 744.099,169.062 774.000,163.000" stroke-width="1.396" stroke="black" fill="none" stroke-linecap="round"></path><path d="M 774.000,163.000 C 781.837,160.063 779.312,161.691 785.000,163.000" stroke-width="2.382" stroke="black" fill="none" stroke-linecap="round"></path><path d="M 785.000,163.000 C 792.331,171.398 788.837,166.563 788.000,176.000" stroke-width="3.308" stroke="black" fill="none" stroke-linecap="round"></path><path d="M 788.000,176.000 C 750.460,218.352 752.331,213.898 705.000,248.000" stroke-width="1.125" stroke="black" fill="none" stroke-linecap="round"></path><path d="M 705.000,248.000 C 666.212,265.025 669.960,270.852 627.000,281.000" stroke-width="1.125" stroke="black" fill="none" stroke-linecap="round"></path><path d="M 627.000,281.000 C 599.175,294.419 598.712,292.525 570.000,303.000" stroke-width="1.125" stroke="black" fill="none" stroke-linecap="round"></path><path d="M 570.000,303.000 C 545.271,310.569 548.175,309.419 525.000,311.000" stroke-width="1.766" stroke="black" fill="none" stroke-linecap="round"></path><path d="M 525.000,311.000 C 520.383,306.043 521.771,311.069 523.000,304.000" stroke-width="3.108" stroke="black" fill="none" stroke-linecap="round"></path><path d="M 523.000,304.000 C 542.402,285.360 540.883,290.043 566.000,279.000" stroke-width="1.709" stroke="black" fill="none" stroke-linecap="round"></path><path d="M 566.000,279.000 C 614.739,265.734 612.902,266.360 664.000,266.000" stroke-width="1.125" stroke="black" fill="none" stroke-linecap="round"></path><path d="M 664.000,266.000 C 800.874,271.277 800.239,266.734 937.000,281.000" stroke-width="1.125" stroke="black" fill="none" stroke-linecap="round"></path><path d="M 937.000,281.000 C 947.533,283.888 947.874,281.777 958.000,287.000" stroke-width="1.364" stroke="black" fill="none" stroke-linecap="round"></path><path d="M 958.000,287.000 C 966.615,288.483 966.033,289.388 974.000,292.000" stroke-width="2.106" stroke="black" fill="none" stroke-linecap="round"></path><path d="M 974.000,292.000 C 978.654,293.882 977.115,293.483 979.000,297.000" stroke-width="3.524" stroke="black" fill="none" stroke-linecap="round"></path><path d="M 979.000,297.000 C 978.994,304.242 979.654,302.882 976.000,310.000" stroke-width="3.191" stroke="black" fill="none" stroke-linecap="round"></path><path d="M 976.000,310.000 C 970.455,315.607 972.494,316.742 966.000,322.000" stroke-width="3.005" stroke="black" fill="none" stroke-linecap="round"></path><path d="M 966.000,322.000 C 959.675,332.617 958.955,332.107 953.000,343.000" stroke-width="2.330" stroke="black" fill="none" stroke-linecap="round"></path><path d="M 953.000,343.000 C 946.117,350.579 950.675,346.617 948.000,350.000" stroke-width="3.513" stroke="black" fill="none" stroke-linecap="round"></path><path d="M 948.000,350.000 C 957.071,344.613 952.617,348.579 966.000,339.000" stroke-width="3.827" stroke="black" fill="none" stroke-linecap="round"></path><path d="M 966.000,339.000 C 973.694,331.755 974.571,333.613 983.000,328.000" stroke-width="2.775" stroke="black" fill="none" stroke-linecap="round"></path><path d="M 983.000,328.000 C 1002.948,321.793 1002.194,320.255 1023.000,316.000" stroke-width="1.794" stroke="black" fill="none" stroke-linecap="round"></path><path d="M 1023.000,316.000 C 1029.236,314.629 1025.448,315.293 1028.000,315.000" stroke-width="3.040" stroke="black" fill="none" stroke-linecap="round"></path><path d="M 1028.000,315.000 C 1020.541,317.163 1024.236,316.129 1013.000,319.000" stroke-width="3.994" stroke="black" fill="none" stroke-linecap="round"></path><path d="M 1013.000,319.000 C 981.880,328.766 981.541,326.663 950.000,334.000" stroke-width="1.422" stroke="black" fill="none" stroke-linecap="round"></path><path d="M 950.000,334.000 C 914.583,339.486 914.880,339.766 879.000,341.000" stroke-width="1.166" stroke="black" fill="none" stroke-linecap="round"></path><path d="M 879.000,341.000 C 843.940,341.807 844.083,342.486 809.000,340.000" stroke-width="1.125" stroke="black" fill="none" stroke-linecap="round"></path><path d="M 809.000,340.000 C 756.920,336.807 756.940,337.307 705.000,332.000" stroke-width="1.125" stroke="black" fill="none" stroke-linecap="round"></path><path d="M 705.000,332.000 C 676.018,328.335 675.920,329.307 647.000,325.000" stroke-width="1.396" stroke="black" fill="none" stroke-linecap="round"></path><path d="M 647.000,325.000 C 632.476,323.703 632.518,323.335 618.000,322.000" stroke-width="1.849" stroke="black" fill="none" stroke-linecap="round"></path><path d="M 618.000,322.000 C 606.972,320.688 606.976,320.703 596.000,319.000" stroke-width="2.123" stroke="black" fill="none" stroke-linecap="round"></path><path d="M 596.000,319.000 C 580.770,317.323 580.972,316.688 566.000,314.000" stroke-width="2.652" stroke="black" fill="none" stroke-linecap="round"></path><path d="M 566.000,314.000 C 561.040,311.890 560.770,312.823 556.000,310.000" stroke-width="3.161" stroke="black" fill="none" stroke-linecap="round"></path></svg>