<svg xmlns="http://www.w3.org/2000/svg" xmlns:xlink="http://www.w3.org/1999/xlink" viewBox="0 0 1460 576" width="1460" height="576"><path d="M 445.000,345.000 C 441.494,344.538 441.500,344.500 438.000,344.000" stroke-width="5.297" stroke="black" fill="none" stroke-linecap="round"></path><path d="M 438.000,344.000 C 434.959,343.683 434.994,343.538 432.000,343.000" stroke-width="4.433" stroke="black" fill="none" stroke-linecap="round"></path><path d="M 432.000,343.000 C 428.438,342.190 428.459,342.183 425.000,341.000" stroke-width="4.075" stroke="black" fill="none" stroke-linecap="round"></path><path d="M 425.000,341.000 C 415.342,337.866 415.438,337.690 406.000,334.000" stroke-width="2.888" stroke="black" fill="none" stroke-linecap="round"></path><path d="M 406.000,334.000 C 400.881,331.712 400.842,331.866 396.000,329.000" stroke-width="3.172" stroke="black" fill="none" stroke-linecap="round"></path><path d="M 396.000,329.000 C 391.849,326.717 391.881,326.712 388.000,324.000" stroke-width="3.364" stroke="black" fill="none" stroke-linecap="round"></path><path d="M 388.000,324.000 C 383.885,319.828 383.349,320.717 379.000,317.000" stroke-width="3.366" stroke="black" fill="none" stroke-linecap="round"></path><path d="M 379.000,317.000 C 374.090,314.697 374.385,314.328 369.000,313.000" stroke-width="3.420" stroke="black" fill="none" stroke-linecap="round"></path><path d="M 369.000,313.000 C 363.439,312.747 366.590,312.197 364.000,312.000" stroke-width="3.971" stroke="black" fill="none" stroke-linecap="round"></path><path d="M 364.000,312.000 C 367.862,309.993 364.939,310.747 372.000,309.000" stroke-width="4.864" stroke="black" fill="none" stroke-linecap="round"></path><path d="M 372.000,309.000 C 380.527,307.640 380.362,306.993 389.000,306.000" stroke-width="3.121" stroke="black" fill="none" stroke-linecap="round"></path><path d="M 389.000,306.000 C 396.221,305.169 396.027,304.640 403.000,303.000" stroke-width="3.073" stroke="black" fill="none" stroke-linecap="round"></path><path d="M 403.000,303.000 C 408.990,301.340 408.721,301.169 414.000,298.000" stroke-width="3.103" stroke="black" fill="none" stroke-linecap="round"></path><path d="M 414.000,298.000 C 432.415,284.381 432.990,285.340 451.000,271.000" stroke-width="1.732" stroke="black" fill="none" stroke-linecap="round"></path><path d="M 451.000,271.000 C 457.883,266.990 457.415,266.381 464.000,262.000" stroke-width="2.419" stroke="black" fill="none" stroke-linecap="round"></path><path d="M 464.000,262.000 C 476.359,250.835 476.883,251.490 489.000,240.000" stroke-width="2.032" stroke="black" fill="none" stroke-linecap="round"></path><path d="M 489.000,240.000 C 497.435,232.918 497.359,232.835 506.000,226.000" stroke-width="2.255" stroke="black" fill="none" stroke-linecap="round"></path><path d="M 506.000,226.000 C 510.526,222.532 510.435,222.418 515.000,219.000" stroke-width="2.889" stroke="black" fill="none" stroke-linecap="round"></path><path d="M 515.000,219.000 C 520.031,215.038 520.026,215.032 525.000,211.000" stroke-width="3.050" stroke="black" fill="none" stroke-linecap="round"></path><path d="M 525.000,211.000 C 528.019,208.522 528.031,208.538 531.000,206.000" stroke-width="3.527" stroke="black" fill="none" stroke-linecap="round"></path><path d="M 531.000,206.000 C 536.842,200.000 534.519,203.022 538.000,200.000" stroke-width="3.610" stroke="black" fill="none" stroke-linecap="round"></path><path d="M 538.000,200.000 C 537.106,203.473 538.842,200.000 535.000,206.000" stroke-width="4.655" stroke="black" fill="none" stroke-linecap="round"></path><path d="M 535.000,206.000 C 531.161,208.663 532.106,209.473 528.000,212.000" stroke-width="3.837" stroke="black" fill="none" stroke-linecap="round"></path><path d="M 528.000,212.000 C 522.185,218.259 522.161,218.163 517.000,225.000" stroke-width="3.055" stroke="black" fill="none" stroke-linecap="round"></path><path d="M 517.000,225.000 C 512.825,231.756 512.185,231.259 508.000,238.000" stroke-width="2.955" stroke="black" fill="none" stroke-linecap="round"></path><path d="M 508.000,238.000 C 503.242,241.947 504.325,242.756 500.000,247.000" stroke-width="3.129" stroke="black" fill="none" stroke-linecap="round"></path><path d="M 500.000,247.000 C 486.326,268.658 486.242,268.447 474.000,291.000" stroke-width="1.619" stroke="black" fill="none" stroke-linecap="round"></path><path d="M 474.000,291.000 C 471.361,298.169 470.326,297.658 468.000,305.000" stroke-width="2.335" stroke="black" fill="none" stroke-linecap="round"></path><path d="M 468.000,305.000 C 456.684,330.216 455.861,329.669 443.000,354.000" stroke-width="1.525" stroke="black" fill="none" stroke-linecap="round"></path><path d="M 443.000,354.000 C 433.902,365.620 435.684,366.716 426.000,378.000" stroke-width="1.864" stroke="black" fill="none" stroke-linecap="round"></path><path d="M 426.000,378.000 C 420.734,390.481 418.902,389.120 413.000,401.000" stroke-width="1.982" stroke="black" fill="none" stroke-linecap="round"></path><path d="M 413.000,401.000 C 407.531,407.227 408.234,407.481 401.000,412.000" stroke-width="2.532" stroke="black" fill="none" stroke-linecap="round"></path><path d="M 401.000,412.000 C 393.445,415.212 394.531,416.727 387.000,420.000" stroke-width="2.715" stroke="black" fill="none" stroke-linecap="round"></path><path d="M 387.000,420.000 C 376.942,429.583 375.945,428.212 366.000,438.000" stroke-width="2.286" stroke="black" fill="none" stroke-linecap="round"></path><path d="M 366.000,438.000 C 357.134,444.215 357.442,444.583 348.000,450.000" stroke-width="2.415" stroke="black" fill="none" stroke-linecap="round"></path><path d="M 348.000,450.000 C 341.904,453.345 342.134,453.715 336.000,457.000" stroke-width="2.803" stroke="black" fill="none" stroke-linecap="round"></path><path d="M 336.000,457.000 C 331.795,460.603 331.404,459.845 327.000,463.000" stroke-width="3.169" stroke="black" fill="none" stroke-linecap="round"></path><path d="M 327.000,463.000 C 322.384,464.207 322.795,465.103 318.000,466.000" stroke-width="3.465" stroke="black" fill="none" stroke-linecap="round"></path><path d="M 318.000,466.000 C 311.637,469.419 311.384,468.707 305.000,472.000" stroke-width="3.032" stroke="black" fill="none" stroke-linecap="round"></path><path d="M 305.000,472.000 C 302.529,472.789 302.637,472.919 300.000,473.000" stroke-width="3.802" stroke="black" fill="none" stroke-linecap="round"></path><path d="M 300.000,473.000 C 296.482,473.249 296.529,473.289 293.000,473.000" stroke-width="3.879" stroke="black" fill="none" stroke-linecap="round"></path><path d="M 293.000,473.000 C 289.370,472.963 289.482,472.749 286.000,472.000" stroke-width="3.944" stroke="black" fill="none" stroke-linecap="round"></path><path d="M 286.000,472.000 C 282.398,470.699 282.370,470.963 279.000,469.000" stroke-width="3.850" stroke="black" fill="none" stroke-linecap="round"></path><path d="M 279.000,469.000 C 274.927,468.472 276.398,467.699 274.000,466.000" stroke-width="4.457" stroke="black" fill="none" stroke-linecap="round"></path><path d="M 274.000,466.000 C 270.973,458.912 271.927,460.472 273.000,453.000" stroke-width="4.460" stroke="black" fill="none" stroke-linecap="round"></path><path d="M 273.000,453.000 C 278.585,441.240 276.973,441.412 286.000,431.000" stroke-width="2.640" stroke="black" fill="none" stroke-linecap="round"></path><path d="M 286.000,431.000 C 289.573,426.900 289.085,426.740 294.000,424.000" stroke-width="3.166" stroke="black" fill="none" stroke-linecap="round"></path><path d="M 294.000,424.000 C 304.262,417.522 304.073,417.400 315.000,412.000" stroke-width="2.524" stroke="black" fill="none" stroke-linecap="round"></path><path d="M 315.000,412.000 C 321.887,408.716 321.762,408.522 329.000,406.000" stroke-width="2.818" stroke="black" fill="none" stroke-linecap="round"></path><path d="M 329.000,406.000 C 349.631,398.834 349.387,398.216 370.000,391.000" stroke-width="1.753" stroke="black" fill="none" stroke-linecap="round"></path><path d="M 370.000,391.000 C 381.753,385.309 382.131,386.334 394.000,381.000" stroke-width="2.058" stroke="black" fill="none" stroke-linecap="round"></path><path d="M 394.000,381.000 C 409.099,376.807 408.753,375.809 424.000,372.000" stroke-width="1.946" stroke="black" fill="none" stroke-linecap="round"></path><path d="M 424.000,372.000 C 439.989,366.467 440.099,366.807 456.000,361.000" stroke-width="1.900" stroke="black" fill="none" stroke-linecap="round"></path><path d="M 456.000,361.000 C 460.430,359.219 460.489,359.467 465.000,358.000" stroke-width="2.843" stroke="black" fill="none" stroke-linecap="round"></path><path d="M 465.000,358.000 C 468.070,357.781 467.930,357.219 471.000,357.000" stroke-width="3.606" stroke="black" fill="none" stroke-linecap="round"></path><path d="M 471.000,357.000 C 475.458,355.362 475.570,355.781 480.000,354.000" stroke-width="3.609" stroke="black" fill="none" stroke-linecap="round"></path><path d="M 480.000,354.000 C 485.649,352.889 485.458,352.362 491.000,351.000" stroke-width="3.436" stroke="black" fill="none" stroke-linecap="round"></path><path d="M 491.000,351.000 C 494.186,349.791 494.149,349.889 497.000,348.000" stroke-width="3.874" stroke="black" fill="none" stroke-linecap="round"></path><path d="M 497.000,348.000 C 502.252,344.503 499.686,346.291 502.000,344.000" stroke-width="3.973" stroke="black" fill="none" stroke-linecap="round"></path><path d="M 502.000,344.000 C 498.920,344.797 501.752,343.503 496.000,346.000" stroke-width="4.879" stroke="black" fill="none" stroke-linecap="round"></path><path d="M 496.000,346.000 C 490.402,348.299 490.420,348.297 485.000,351.000" stroke-width="3.645" stroke="black" fill="none" stroke-linecap="round"></path><path d="M 485.000,351.000 C 475.756,356.627 475.402,355.799 466.000,361.000" stroke-width="2.676" stroke="black" fill="none" stroke-linecap="round"></path><path d="M 466.000,361.000 C 460.871,362.174 461.256,363.127 456.000,364.000" stroke-width="3.147" stroke="black" fill="none" stroke-linecap="round"></path><path d="M 456.000,364.000 C 453.000,365.500 452.871,365.174 450.000,367.000" stroke-width="3.719" stroke="black" fill="none" stroke-linecap="round"></path><path d="M 450.000,367.000 C 445.822,367.450 447.000,368.500 444.000,370.000" stroke-width="4.380" stroke="black" fill="none" stroke-linecap="round"></path><path d="M 444.000,370.000 C 440.935,375.389 440.822,374.450 440.000,381.000" stroke-width="3.589" stroke="black" fill="none" stroke-linecap="round"></path><path d="M 440.000,381.000 C 438.521,386.347 439.435,384.389 441.000,388.000" stroke-width="4.230" stroke="black" fill="none" stroke-linecap="round"></path><path d="M 441.000,388.000 C 448.083,391.000 446.021,391.347 455.000,391.000" stroke-width="3.260" stroke="black" fill="none" stroke-linecap="round"></path><path d="M 455.000,391.000 C 459.795,390.103 459.583,391.000 464.000,388.000" stroke-width="3.498" stroke="black" fill="none" stroke-linecap="round"></path><path d="M 464.000,388.000 C 468.554,385.078 468.795,385.603 473.000,382.000" stroke-width="3.397" stroke="black" fill="none" stroke-linecap="round"></path><path d="M 473.000,382.000 C 481.602,376.137 481.554,376.078 490.000,370.000" stroke-width="2.739" stroke="black" fill="none" stroke-linecap="round"></path><path d="M 490.000,370.000 C 494.866,366.891 494.602,366.637 499.000,363.000" stroke-width="3.044" stroke="black" fill="none" stroke-linecap="round"></path><path d="M 499.000,363.000 C 503.176,358.644 503.366,358.891 507.000,354.000" stroke-width="3.158" stroke="black" fill="none" stroke-linecap="round"></path><path d="M 507.000,354.000 C 514.519,347.953 510.176,350.144 513.000,346.000" stroke-width="3.364" stroke="black" fill="none" stroke-linecap="round"></path><path d="M 513.000,346.000 C 506.191,343.923 511.019,343.453 500.000,345.000" stroke-width="4.411" stroke="black" fill="none" stroke-linecap="round"></path><path d="M 500.000,345.000 C 494.473,346.769 494.691,345.923 490.000,350.000" stroke-width="3.579" stroke="black" fill="none" stroke-linecap="round"></path><path d="M 490.000,350.000 C 485.453,353.606 485.473,353.269 482.000,358.000" stroke-width="3.964" stroke="black" fill="none" stroke-linecap="round"></path><path d="M 482.000,358.000 C 479.792,360.833 479.953,360.606 479.000,364.000" stroke-width="4.436" stroke="black" fill="none" stroke-linecap="round"></path><path d="M 479.000,364.000 C 478.292,367.167 478.292,366.833 479.000,370.000" stroke-width="4.658" stroke="black" fill="none" stroke-linecap="round"></path><path d="M 479.000,370.000 C 479.581,374.021 479.792,373.167 482.000,376.000" stroke-width="4.652" stroke="black" fill="none" stroke-linecap="round"></path><path d="M 482.000,376.000 C 485.949,379.000 485.081,378.521 490.000,379.000" stroke-width="3.849" stroke="black" fill="none" stroke-linecap="round"></path><path d="M 490.000,379.000 C 495.186,377.969 494.949,379.000 500.000,376.000" stroke-width="3.587" stroke="black" fill="none" stroke-linecap="round"></path><path d="M 500.000,376.000 C 506.198,373.347 506.186,373.469 512.000,370.000" stroke-width="3.265" stroke="black" fill="none" stroke-linecap="round"></path><path d="M 512.000,370.000 C 518.810,365.175 519.198,365.847 526.000,361.000" stroke-width="2.892" stroke="black" fill="none" stroke-linecap="round"></path><path d="M 526.000,361.000 C 534.799,356.979 534.310,356.175 543.000,352.000" stroke-width="2.710" stroke="black" fill="none" stroke-linecap="round"></path><path d="M 543.000,352.000 C 548.123,347.396 548.799,348.479 554.000,344.000" stroke-width="2.988" stroke="black" fill="none" stroke-linecap="round"></path><path d="M 554.000,344.000 C 570.947,334.897 570.623,334.396 588.000,326.000" stroke-width="1.838" stroke="black" fill="none" stroke-linecap="round"></path><path d="M 588.000,326.000 C 594.182,323.325 593.947,322.897 600.000,320.000" stroke-width="2.592" stroke="black" fill="none" stroke-linecap="round"></path><path d="M 600.000,320.000 C 608.547,315.714 608.182,315.325 616.000,310.000" stroke-width="2.584" stroke="black" fill="none" stroke-linecap="round"></path><path d="M 616.000,310.000 C 623.251,303.749 623.547,304.214 630.000,297.000" stroke-width="2.629" stroke="black" fill="none" stroke-linecap="round"></path><path d="M 630.000,297.000 C 636.029,291.420 635.751,291.249 641.000,285.000" stroke-width="2.795" stroke="black" fill="none" stroke-linecap="round"></path><path d="M 641.000,285.000 C 647.102,275.197 648.029,275.920 654.000,266.000" stroke-width="2.434" stroke="black" fill="none" stroke-linecap="round"></path><path d="M 654.000,266.000 C 659.327,259.341 659.102,259.197 665.000,253.000" stroke-width="2.571" stroke="black" fill="none" stroke-linecap="round"></path><path d="M 665.000,253.000 C 668.150,250.135 667.827,249.841 671.000,247.000" stroke-width="3.661" stroke="black" fill="none" stroke-linecap="round"></path><path d="M 671.000,247.000 C 676.171,242.976 673.150,244.635 675.000,242.000" stroke-width="3.903" stroke="black" fill="none" stroke-linecap="round"></path><path d="M 675.000,242.000 C 669.857,241.117 673.171,240.476 665.000,242.000" stroke-width="4.652" stroke="black" fill="none" stroke-linecap="round"></path><path d="M 665.000,242.000 C 658.324,242.768 658.857,243.117 653.000,246.000" stroke-width="3.480" stroke="black" fill="none" stroke-linecap="round"></path><path d="M 653.000,246.000 C 644.918,252.402 644.324,251.268 637.000,259.000" stroke-width="2.766" stroke="black" fill="none" stroke-linecap="round"></path><path d="M 637.000,259.000 C 630.059,265.070 629.918,264.902 623.000,271.000" stroke-width="2.718" stroke="black" fill="none" stroke-linecap="round"></path><path d="M 623.000,271.000 C 617.549,275.561 617.559,275.570 612.000,280.000" stroke-width="2.896" stroke="black" fill="none" stroke-linecap="round"></path><path d="M 612.000,280.000 C 592.220,295.172 592.549,295.561 573.000,311.000" stroke-width="1.625" stroke="black" fill="none" stroke-linecap="round"></path><path d="M 573.000,311.000 C 567.345,316.924 566.720,316.172 561.000,322.000" stroke-width="2.295" stroke="black" fill="none" stroke-linecap="round"></path><path d="M 561.000,322.000 C 551.438,327.840 552.345,328.924 543.000,335.000" stroke-width="2.337" stroke="black" fill="none" stroke-linecap="round"></path><path d="M 543.000,335.000 C 535.115,342.174 534.938,341.840 528.000,350.000" stroke-width="2.394" stroke="black" fill="none" stroke-linecap="round"></path><path d="M 528.000,350.000 C 525.384,353.424 525.115,353.174 523.000,357.000" stroke-width="3.158" stroke="black" fill="none" stroke-linecap="round"></path><path d="M 523.000,357.000 C 521.469,359.482 521.384,359.424 520.000,362.000" stroke-width="3.815" stroke="black" fill="none" stroke-linecap="round"></path><path d="M 520.000,362.000 C 517.531,365.325 517.969,365.482 516.000,369.000" stroke-width="3.704" stroke="black" fill="none" stroke-linecap="round"></path><path d="M 516.000,369.000 C 513.884,373.330 515.031,371.325 515.000,374.000" stroke-width="4.439" stroke="black" fill="none" stroke-linecap="round"></path><path d="M 515.000,374.000 C 518.089,373.226 516.384,374.830 521.000,372.000" stroke-width="4.840" stroke="black" fill="none" stroke-linecap="round"></path><path d="M 521.000,372.000 C 527.389,368.735 527.589,369.226 534.000,366.000" stroke-width="3.358" stroke="black" fill="none" stroke-linecap="round"></path><path d="M 534.000,366.000 C 541.792,362.239 541.889,362.735 550.000,360.000" stroke-width="2.884" stroke="black" fill="none" stroke-linecap="round"></path><path d="M 550.000,360.000 C 558.474,358.332 558.292,357.739 567.000,357.000" stroke-width="2.818" stroke="black" fill="none" stroke-linecap="round"></path><path d="M 567.000,357.000 C 574.616,356.566 574.474,355.832 582.000,355.000" stroke-width="2.869" stroke="black" fill="none" stroke-linecap="round"></path><path d="M 582.000,355.000 C 591.019,352.566 591.116,353.066 600.000,350.000" stroke-width="2.792" stroke="black" fill="none" stroke-linecap="round"></path><path d="M 600.000,350.000 C 605.052,348.649 605.019,348.566 610.000,347.000" stroke-width="3.243" stroke="black" fill="none" stroke-linecap="round"></path><path d="M 610.000,347.000 C 613.390,344.080 612.552,346.149 615.000,345.000" stroke-width="3.864" stroke="black" fill="none" stroke-linecap="round"></path><path d="M 615.000,345.000 C 617.571,348.146 616.890,346.080 617.000,351.000" stroke-width="4.626" stroke="black" fill="none" stroke-linecap="round"></path><path d="M 617.000,351.000 C 614.554,355.531 616.071,355.646 612.000,360.000" stroke-width="3.712" stroke="black" fill="none" stroke-linecap="round"></path><path d="M 612.000,360.000 C 608.302,363.140 610.554,362.531 609.000,365.000" stroke-width="4.033" stroke="black" fill="none" stroke-linecap="round"></path><path d="M 609.000,365.000 C 612.152,368.949 609.802,367.140 615.000,368.000" stroke-width="4.793" stroke="black" fill="none" stroke-linecap="round"></path><path d="M 615.000,368.000 C 622.410,362.858 622.652,365.449 630.000,358.000" stroke-width="3.135" stroke="black" fill="none" stroke-linecap="round"></path><path d="M 630.000,358.000 C 634.869,354.736 634.910,354.858 640.000,352.000" stroke-width="3.217" stroke="black" fill="none" stroke-linecap="round"></path><path d="M 640.000,352.000 C 642.471,350.920 642.369,350.736 645.000,350.000" stroke-width="3.852" stroke="black" fill="none" stroke-linecap="round"></path><path d="M 645.000,350.000 C 651.171,346.635 647.971,348.920 651.000,348.000" stroke-width="4.407" stroke="black" fill="none" stroke-linecap="round"></path><path d="M 651.000,348.000 C 647.964,353.426 650.671,350.635 644.000,358.000" stroke-width="4.814" stroke="black" fill="none" stroke-linecap="round"></path><path d="M 644.000,358.000 C 637.738,361.425 641.464,360.926 638.000,363.000" stroke-width="4.625" stroke="black" fill="none" stroke-linecap="round"></path><path d="M 638.000,363.000 C 641.484,363.730 638.238,364.425 645.000,364.000" stroke-width="5.199" stroke="black" fill="none" stroke-linecap="round"></path><path d="M 645.000,364.000 C 648.092,364.612 647.984,364.230 651.000,364.000" stroke-width="4.423" stroke="black" fill="none" stroke-linecap="round"></path><path d="M 651.000,364.000 C 658.150,363.079 657.592,362.612 664.000,360.000" stroke-width="4.079" stroke="black" fill="none" stroke-linecap="round"></path><path d="M 664.000,360.000 C 667.184,357.168 667.650,358.079 670.000,354.000" stroke-width="3.845" stroke="black" fill="none" stroke-linecap="round"></path><path d="M 670.000,354.000 C 674.789,347.813 675.184,348.168 680.000,342.000" stroke-width="3.087" stroke="black" fill="none" stroke-linecap="round"></path><path d="M 680.000,342.000 C 688.317,333.780 687.789,333.313 696.000,325.000" stroke-width="2.480" stroke="black" fill="none" stroke-linecap="round"></path><path d="M 696.000,325.000 C 705.898,313.807 705.817,313.780 715.000,302.000" stroke-width="2.029" stroke="black" fill="none" stroke-linecap="round"></path><path d="M 715.000,302.000 C 724.091,289.564 724.398,289.807 733.000,277.000" stroke-width="2.009" stroke="black" fill="none" stroke-linecap="round"></path><path d="M 733.000,277.000 C 743.676,262.117 743.591,262.064 754.000,247.000" stroke-width="1.846" stroke="black" fill="none" stroke-linecap="round"></path><path d="M 754.000,247.000 C 757.097,241.204 757.676,241.617 761.000,236.000" stroke-width="2.575" stroke="black" fill="none" stroke-linecap="round"></path><path d="M 761.000,236.000 C 766.943,229.827 766.097,229.204 772.000,223.000" stroke-width="2.678" stroke="black" fill="none" stroke-linecap="round"></path><path d="M 772.000,223.000 C 776.306,215.861 776.943,216.327 781.000,209.000" stroke-width="2.733" stroke="black" fill="none" stroke-linecap="round"></path><path d="M 781.000,209.000 C 783.119,206.587 782.806,206.361 785.000,204.000" stroke-width="3.521" stroke="black" fill="none" stroke-linecap="round"></path><path d="M 785.000,204.000 C 790.824,196.927 787.119,201.087 789.000,198.000" stroke-width="4.236" stroke="black" fill="none" stroke-linecap="round"></path><path d="M 789.000,198.000 C 777.958,205.415 782.324,201.927 768.000,214.000" stroke-width="4.458" stroke="black" fill="none" stroke-linecap="round"></path><path d="M 768.000,214.000 C 764.076,218.569 763.458,217.915 760.000,223.000" stroke-width="3.504" stroke="black" fill="none" stroke-linecap="round"></path><path d="M 760.000,223.000 C 751.944,230.537 752.576,231.069 745.000,239.000" stroke-width="2.627" stroke="black" fill="none" stroke-linecap="round"></path><path d="M 745.000,239.000 C 736.429,250.449 735.944,250.037 728.000,262.000" stroke-width="2.232" stroke="black" fill="none" stroke-linecap="round"></path><path d="M 728.000,262.000 C 722.769,268.846 722.929,268.949 718.000,276.000" stroke-width="2.547" stroke="black" fill="none" stroke-linecap="round"></path><path d="M 718.000,276.000 C 712.768,283.866 712.769,283.846 708.000,292.000" stroke-width="2.571" stroke="black" fill="none" stroke-linecap="round"></path><path d="M 708.000,292.000 C 704.717,298.627 704.268,298.366 701.000,305.000" stroke-width="2.863" stroke="black" fill="none" stroke-linecap="round"></path><path d="M 701.000,305.000 C 696.712,310.125 697.717,310.627 694.000,316.000" stroke-width="3.080" stroke="black" fill="none" stroke-linecap="round"></path><path d="M 694.000,316.000 C 691.773,323.606 690.712,323.125 689.000,331.000" stroke-width="2.900" stroke="black" fill="none" stroke-linecap="round"></path><path d="M 689.000,331.000 C 687.481,335.782 687.273,335.606 685.000,340.000" stroke-width="3.284" stroke="black" fill="none" stroke-linecap="round"></path><path d="M 685.000,340.000 C 679.316,344.526 682.481,344.282 679.000,348.000" stroke-width="3.962" stroke="black" fill="none" stroke-linecap="round"></path><path d="M 679.000,348.000 C 681.258,350.608 678.816,350.026 684.000,351.000" stroke-width="4.880" stroke="black" fill="none" stroke-linecap="round"></path><path d="M 684.000,351.000 C 688.525,350.671 688.258,351.608 693.000,350.000" stroke-width="3.965" stroke="black" fill="none" stroke-linecap="round"></path><path d="M 693.000,350.000 C 698.647,349.487 698.525,349.171 704.000,348.000" stroke-width="3.547" stroke="black" fill="none" stroke-linecap="round"></path><path d="M 704.000,348.000 C 707.345,345.914 707.647,346.987 711.000,345.000" stroke-width="3.777" stroke="black" fill="none" stroke-linecap="round"></path><path d="M 711.000,345.000 C 718.292,341.049 715.345,343.914 720.000,344.000" stroke-width="4.182" stroke="black" fill="none" stroke-linecap="round"></path><path d="M 720.000,344.000 C 723.441,354.488 723.792,350.549 722.000,364.000" stroke-width="4.045" stroke="black" fill="none" stroke-linecap="round"></path><path d="M 722.000,364.000 C 720.254,372.046 720.941,370.988 715.000,377.000" stroke-width="3.326" stroke="black" fill="none" stroke-linecap="round"></path><path d="M 715.000,377.000 C 701.720,388.138 702.754,388.546 687.000,397.000" stroke-width="2.073" stroke="black" fill="none" stroke-linecap="round"></path><path d="M 687.000,397.000 C 653.747,420.967 652.720,417.638 617.000,436.000" stroke-width="1.169" stroke="black" fill="none" stroke-linecap="round"></path><path d="M 617.000,436.000 C 586.253,444.941 587.747,447.967 555.000,451.000" stroke-width="1.216" stroke="black" fill="none" stroke-linecap="round"></path><path d="M 555.000,451.000 C 537.069,453.987 537.253,454.441 519.000,455.000" stroke-width="1.532" stroke="black" fill="none" stroke-linecap="round"></path><path d="M 519.000,455.000 C 483.501,457.192 483.569,456.987 448.000,457.000" stroke-width="1.190" stroke="black" fill="none" stroke-linecap="round"></path><path d="M 448.000,457.000 C 390.899,456.766 391.001,456.692 334.000,454.000" stroke-width="1.125" stroke="black" fill="none" stroke-linecap="round"></path><path d="M 334.000,454.000 C 318.209,454.669 318.899,453.266 304.000,450.000" stroke-width="1.353" stroke="black" fill="none" stroke-linecap="round"></path><path d="M 304.000,450.000 C 282.791,442.121 283.209,443.169 264.000,431.000" stroke-width="1.533" stroke="black" fill="none" stroke-linecap="round"></path><path d="M 264.000,431.000 C 258.024,426.931 258.291,427.621 255.000,421.000" stroke-width="2.389" stroke="black" fill="none" stroke-linecap="round"></path><path d="M 255.000,421.000 C 244.406,400.819 245.024,401.431 238.000,380.000" stroke-width="1.617" stroke="black" fill="none" stroke-linecap="round"></path><path d="M 238.000,380.000 C 236.638,373.906 236.406,374.819 239.000,369.000" stroke-width="2.559" stroke="black" fill="none" stroke-linecap="round"></path><path d="M 239.000,369.000 C 247.599,343.914 249.638,346.906 264.000,326.000" stroke-width="1.591" stroke="black" fill="none" stroke-linecap="round"></path><path d="M 264.000,326.000 C 283.813,311.727 280.099,308.414 304.000,298.000" stroke-width="1.492" stroke="black" fill="none" stroke-linecap="round"></path><path d="M 304.000,298.000 C 354.824,251.848 358.813,260.727 414.000,224.000" stroke-width="1.125" stroke="black" fill="none" stroke-linecap="round"></path><path d="M 414.000,224.000 C 468.871,205.862 465.324,199.848 525.000,194.000" stroke-width="1.125" stroke="black" fill="none" stroke-linecap="round"></path><path d="M 525.000,194.000 C 566.355,186.990 565.871,185.362 608.000,183.000" stroke-width="1.125" stroke="black" fill="none" stroke-linecap="round"></path><path d="M 608.000,183.000 C 650.007,177.763 649.855,178.990 692.000,178.000" stroke-width="1.125" stroke="black" fill="none" stroke-linecap="round"></path><path d="M 692.000,178.000 C 738.568,180.244 738.507,178.263 785.000,184.000" stroke-width="1.125" stroke="black" fill="none" stroke-linecap="round"></path><path d="M 785.000,184.000 C 806.547,186.161 806.568,185.744 828.000,189.000" stroke-width="1.255" stroke="black" fill="none" stroke-linecap="round"></path><path d="M 828.000,189.000 C 840.723,190.194 840.547,190.661 853.000,193.000" stroke-width="1.822" stroke="black" fill="none" stroke-linecap="round"></path><path d="M 853.000,193.000 C 858.704,193.932 858.223,194.194 863.000,197.000" stroke-width="2.718" stroke="black" fill="none" stroke-linecap="round"></path><path d="M 863.000,197.000 C 869.720,201.723 869.204,201.432 874.000,208.000" stroke-width="2.810" stroke="black" fill="none" stroke-linecap="round"></path><path d="M 874.000,208.000 C 877.089,213.308 877.220,212.723 878.000,219.000" stroke-width="3.204" stroke="black" fill="none" stroke-linecap="round"></path><path d="M 878.000,219.000 C 880.810,226.795 879.089,225.808 878.000,233.000" stroke-width="3.058" stroke="black" fill="none" stroke-linecap="round"></path><path d="M 878.000,233.000 C 868.968,255.194 868.810,253.295 854.000,272.000" stroke-width="1.728" stroke="black" fill="none" stroke-linecap="round"></path><path d="M 854.000,272.000 C 838.190,285.493 840.468,287.194 821.000,297.000" stroke-width="1.664" stroke="black" fill="none" stroke-linecap="round"></path><path d="M 821.000,297.000 C 779.726,331.011 777.690,325.993 733.000,353.000" stroke-width="1.125" stroke="black" fill="none" stroke-linecap="round"></path><path d="M 733.000,353.000 C 692.551,367.544 694.726,371.011 651.000,377.000" stroke-width="1.125" stroke="black" fill="none" stroke-linecap="round"></path><path d="M 651.000,377.000 C 619.583,384.124 620.051,384.044 588.000,386.000" stroke-width="1.125" stroke="black" fill="none" stroke-linecap="round"></path><path d="M 588.000,386.000 C 568.754,385.861 569.083,387.124 550.000,383.000" stroke-width="1.454" stroke="black" fill="none" stroke-linecap="round"></path><path d="M 550.000,383.000 C 538.943,381.170 539.254,381.361 529.000,377.000" stroke-width="2.038" stroke="black" fill="none" stroke-linecap="round"></path><path d="M 529.000,377.000 C 522.999,374.443 523.443,374.670 519.000,370.000" stroke-width="2.809" stroke="black" fill="none" stroke-linecap="round"></path><path d="M 519.000,370.000 C 512.381,363.905 513.999,364.443 511.000,357.000" stroke-width="2.915" stroke="black" fill="none" stroke-linecap="round"></path><path d="M 511.000,357.000 C 511.135,350.157 509.881,351.405 514.000,345.000" stroke-width="3.091" stroke="black" fill="none" stroke-linecap="round"></path><path d="M 514.000,345.000 C 517.105,341.380 516.135,341.157 521.000,339.000" stroke-width="3.460" stroke="black" fill="none" stroke-linecap="round"></path><path d="M 521.000,339.000 C 526.207,335.448 526.105,335.880 532.000,334.000" stroke-width="3.277" stroke="black" fill="none" stroke-linecap="round"></path><path d="M 532.000,334.000 C 540.481,332.681 540.207,331.948 549.000,332.000" stroke-width="2.864" stroke="black" fill="none" stroke-linecap="round"></path><path d="M 549.000,332.000 C 553.000,332.000 552.981,331.681 557.000,332.000" stroke-width="3.475" stroke="black" fill="none" stroke-linecap="round"></path><path d="M 726.000,361.000 C 730.004,361.148 730.000,361.000 734.000,361.000" stroke-width="4.484" stroke="black" fill="none" stroke-linecap="round"></path><path d="M 734.000,361.000 C 743.561,361.073 743.504,360.648 753.000,360.000" stroke-width="2.947" stroke="black" fill="none" stroke-linecap="round"></path><path d="M 753.000,360.000 C 765.565,358.346 765.561,358.573 778.000,356.000" stroke-width="2.430" stroke="black" fill="none" stroke-linecap="round"></path><path d="M 778.000,356.000 C 792.101,353.414 792.065,353.346 806.000,350.000" stroke-width="2.186" stroke="black" fill="none" stroke-linecap="round"></path><path d="M 806.000,350.000 C 820.478,345.919 820.601,346.414 835.000,342.000" stroke-width="2.017" stroke="black" fill="none" stroke-linecap="round"></path><path d="M 835.000,342.000 C 851.990,337.462 851.978,337.419 869.000,333.000" stroke-width="1.829" stroke="black" fill="none" stroke-linecap="round"></path><path d="M 869.000,333.000 C 882.539,329.638 882.490,329.462 896.000,326.000" stroke-width="1.979" stroke="black" fill="none" stroke-linecap="round"></path><path d="M 896.000,326.000 C 900.882,323.698 901.039,324.638 906.000,323.000" stroke-width="2.799" stroke="black" fill="none" stroke-linecap="round"></path><path d="M 906.000,323.000 C 912.000,323.000 911.882,322.198 918.000,323.000" stroke-width="3.130" stroke="black" fill="none" stroke-linecap="round"></path><path d="M 918.000,323.000 C 923.546,320.547 921.000,323.000 924.000,323.000" stroke-width="3.746" stroke="black" fill="none" stroke-linecap="round"></path><path d="M 924.000,323.000 C 927.999,338.336 926.046,334.047 923.000,350.000" stroke-width="3.264" stroke="black" fill="none" stroke-linecap="round"></path><path d="M 923.000,350.000 C 914.299,362.509 917.499,362.836 903.000,372.000" stroke-width="2.370" stroke="black" fill="none" stroke-linecap="round"></path><path d="M 903.000,372.000 C 888.316,382.575 889.299,383.509 873.000,392.000" stroke-width="1.942" stroke="black" fill="none" stroke-linecap="round"></path><path d="M 873.000,392.000 C 868.129,396.000 868.816,394.575 864.000,396.000" stroke-width="2.849" stroke="black" fill="none" stroke-linecap="round"></path><path d="M 864.000,396.000 C 860.431,394.585 861.629,396.000 860.000,392.000" stroke-width="3.653" stroke="black" fill="none" stroke-linecap="round"></path><path d="M 860.000,392.000 C 856.261,382.533 858.931,385.585 861.000,378.000" stroke-width="3.233" stroke="black" fill="none" stroke-linecap="round"></path><path d="M 861.000,378.000 C 881.056,357.928 879.261,360.533 906.000,348.000" stroke-width="1.568" stroke="black" fill="none" stroke-linecap="round"></path><path d="M 906.000,348.000 C 983.137,319.246 981.556,317.928 1062.000,298.000" stroke-width="1.125" stroke="black" fill="none" stroke-linecap="round"></path><path d="M 1062.000,298.000 C 1093.421,292.790 1092.637,289.746 1125.000,289.000" stroke-width="1.149" stroke="black" fill="none" stroke-linecap="round"></path><path d="M 1125.000,289.000 C 1143.480,287.010 1143.421,286.790 1162.000,286.000" stroke-width="1.483" stroke="black" fill="none" stroke-linecap="round"></path><path d="M 1162.000,286.000 C 1171.091,285.010 1170.980,285.510 1180.000,286.000" stroke-width="2.143" stroke="black" fill="none" stroke-linecap="round"></path><path d="M 1180.000,286.000 C 1198.117,285.315 1193.591,287.510 1207.000,291.000" stroke-width="2.740" stroke="black" fill="none" stroke-linecap="round"></path><path d="M 1207.000,291.000 C 1208.121,297.987 1210.617,293.315 1205.000,302.000" stroke-width="3.843" stroke="black" fill="none" stroke-linecap="round"></path><path d="M 1205.000,302.000 C 1192.279,307.317 1201.121,306.987 1193.000,309.000" stroke-width="3.220" stroke="black" fill="none" stroke-linecap="round"></path><path d="M 1193.000,309.000 C 1200.512,308.652 1193.779,310.817 1208.000,309.000" stroke-width="4.434" stroke="black" fill="none" stroke-linecap="round"></path><path d="M 1208.000,309.000 C 1222.053,309.467 1222.012,309.652 1236.000,311.000" stroke-width="2.515" stroke="black" fill="none" stroke-linecap="round"></path><path d="M 1236.000,311.000 C 1267.488,315.098 1267.553,314.467 1299.000,319.000" stroke-width="1.356" stroke="black" fill="none" stroke-linecap="round"></path><path d="M 1299.000,319.000 C 1319.948,322.086 1319.988,321.598 1341.000,324.000" stroke-width="1.526" stroke="black" fill="none" stroke-linecap="round"></path><path d="M 1341.000,324.000 C 1358.496,325.079 1358.448,325.586 1376.000,326.000" stroke-width="1.731" stroke="black" fill="none" stroke-linecap="round"></path><path d="M 1376.000,326.000 C 1387.003,327.000 1386.996,326.579 1398.000,327.000" stroke-width="2.132" stroke="black" fill="none" stroke-linecap="round"></path><path d="M 1398.000,327.000 C 1418.027,323.550 1406.503,327.000 1415.000,326.000" stroke-width="2.998" stroke="black" fill="none" stroke-linecap="round"></path><path d="M 1415.000,326.000 C 1396.657,337.233 1407.527,332.050 1377.000,344.000" stroke-width="3.305" stroke="black" fill="none" stroke-linecap="round"></path><path d="M 1377.000,344.000 C 1365.547,345.964 1366.157,347.733 1354.000,347.000" stroke-width="2.528" stroke="black" fill="none" stroke-linecap="round"></path><path d="M 1354.000,347.000 C 1326.545,350.094 1326.547,349.464 1299.000,351.000" stroke-width="1.546" stroke="black" fill="none" stroke-linecap="round"></path><path d="M 1299.000,351.000 C 1250.495,352.416 1250.545,352.594 1202.000,352.000" stroke-width="1.125" stroke="black" fill="none" stroke-linecap="round"></path><path d="M 1202.000,352.000 C 1133.901,352.218 1133.995,351.416 1066.000,349.000" stroke-width="1.125" stroke="black" fill="none" stroke-linecap="round"></path><path d="M 1066.000,349.000 C 1028.414,346.246 1028.401,347.218 991.000,342.000" stroke-width="1.125" stroke="black" fill="none" stroke-linecap="round"></path><path d="M 991.000,342.000 C 958.099,332.809 957.914,338.246 925.000,333.000" stroke-width="1.131" stroke="black" fill="none" stroke-linecap="round"></path><path d="M 925.000,333.000 C 871.481,337.840 871.599,333.309 818.000,343.000" stroke-width="1.238" stroke="black" fill="none" stroke-linecap="round"></path><path d="M 818.000,343.000 C 814.519,343.765 814.481,343.340 811.000,344.000" stroke-width="2.406" stroke="black" fill="none" stroke-linecap="round"></path><path d="M 811.000,344.000 C 802.430,345.331 807.019,344.265 803.000,344.000" stroke-width="3.580" stroke="black" fill="none" stroke-linecap="round"></path><path d="M 803.000,344.000 C 808.276,340.030 803.930,341.831 814.000,337.000" stroke-width="4.187" stroke="black" fill="none" stroke-linecap="round"></path><path d="M 814.000,337.000 C 816.955,335.830 816.776,335.530 820.000,335.000" stroke-width="4.125" stroke="black" fill="none" stroke-linecap="round"></path><path d="M 820.000,335.000 C 822.571,333.626 822.455,334.330 825.000,334.000" stroke-width="4.265" stroke="black" fill="none" stroke-linecap="round"></path></svg>