<svg xmlns="http://www.w3.org/2000/svg" xmlns:xlink="http://www.w3.org/1999/xlink" viewBox="0 0 453 236" width="453" height="236"><path d="M 142.500,155.000 C 138.277,155.944 138.500,155.000 134.500,155.000" stroke-width="5.096" stroke="black" fill="none" stroke-linecap="round"></path><path d="M 134.500,155.000 C 130.500,153.000 130.277,153.944 126.500,151.000" stroke-width="4.686" stroke="black" fill="none" stroke-linecap="round"></path><path d="M 126.500,151.000 C 123.500,149.500 123.500,149.500 120.500,148.000" stroke-width="4.209" stroke="black" fill="none" stroke-linecap="round"></path><path d="M 120.500,148.000 C 117.629,146.174 117.500,146.500 114.500,145.000" stroke-width="4.131" stroke="black" fill="none" stroke-linecap="round"></path><path d="M 114.500,145.000 C 109.555,143.264 109.629,143.174 104.500,142.000" stroke-width="4.250" stroke="black" fill="none" stroke-linecap="round"></path><path d="M 104.500,142.000 C 98.108,142.176 101.555,141.264 98.500,141.000" stroke-width="4.771" stroke="black" fill="none" stroke-linecap="round"></path><path d="M 98.500,141.000 C 102.500,138.500 99.108,139.176 106.500,136.000" stroke-width="4.905" stroke="black" fill="none" stroke-linecap="round"></path><path d="M 106.500,136.000 C 110.436,133.391 110.500,133.500 114.500,131.000" stroke-width="3.927" stroke="black" fill="none" stroke-linecap="round"></path><path d="M 114.500,131.000 C 119.046,128.579 118.936,128.391 123.500,126.000" stroke-width="3.620" stroke="black" fill="none" stroke-linecap="round"></path><path d="M 123.500,126.000 C 128.464,122.938 128.546,123.079 133.500,120.000" stroke-width="3.289" stroke="black" fill="none" stroke-linecap="round"></path><path d="M 133.500,120.000 C 140.720,116.340 140.464,115.938 147.500,112.000" stroke-width="3.057" stroke="black" fill="none" stroke-linecap="round"></path><path d="M 147.500,112.000 C 152.847,107.769 153.220,108.340 158.500,104.000" stroke-width="3.045" stroke="black" fill="none" stroke-linecap="round"></path><path d="M 158.500,104.000 C 163.614,101.176 163.347,100.769 168.500,98.000" stroke-width="3.243" stroke="black" fill="none" stroke-linecap="round"></path><path d="M 168.500,98.000 C 173.621,94.659 173.614,94.676 178.500,91.000" stroke-width="3.265" stroke="black" fill="none" stroke-linecap="round"></path><path d="M 178.500,91.000 C 181.351,88.290 181.621,88.659 184.500,86.000" stroke-width="3.557" stroke="black" fill="none" stroke-linecap="round"></path><path d="M 184.500,86.000 C 189.887,82.419 186.851,84.290 189.500,83.000" stroke-width="3.935" stroke="black" fill="none" stroke-linecap="round"></path><path d="M 189.500,83.000 C 186.026,86.031 188.887,83.919 182.500,89.000" stroke-width="4.602" stroke="black" fill="none" stroke-linecap="round"></path><path d="M 182.500,89.000 C 176.500,94.000 176.526,94.031 170.500,99.000" stroke-width="3.360" stroke="black" fill="none" stroke-linecap="round"></path><path d="M 170.500,99.000 C 164.225,103.699 164.500,104.000 158.500,109.000" stroke-width="2.983" stroke="black" fill="none" stroke-linecap="round"></path><path d="M 158.500,109.000 C 151.000,116.500 150.725,116.199 143.500,124.000" stroke-width="2.564" stroke="black" fill="none" stroke-linecap="round"></path><path d="M 143.500,124.000 C 135.500,132.000 135.500,132.000 127.500,140.000" stroke-width="2.396" stroke="black" fill="none" stroke-linecap="round"></path><path d="M 127.500,140.000 C 120.619,148.207 120.000,147.500 112.500,155.000" stroke-width="2.412" stroke="black" fill="none" stroke-linecap="round"></path><path d="M 112.500,155.000 C 95.781,168.400 96.119,168.707 78.500,181.000" stroke-width="2.408" stroke="black" fill="none" stroke-linecap="round"></path><path d="M 78.500,181.000 C 71.611,185.683 71.781,185.900 64.500,190.000" stroke-width="2.696" stroke="black" fill="none" stroke-linecap="round"></path><path d="M 64.500,190.000 C 57.519,194.033 57.611,194.183 50.500,198.000" stroke-width="2.930" stroke="black" fill="none" stroke-linecap="round"></path><path d="M 50.500,198.000 C 46.143,200.801 46.019,200.533 41.500,203.000" stroke-width="3.258" stroke="black" fill="none" stroke-linecap="round"></path><path d="M 41.500,203.000 C 35.080,207.895 36.643,205.301 31.500,207.000" stroke-width="3.907" stroke="black" fill="none" stroke-linecap="round"></path><path d="M 31.500,207.000 C 28.618,203.089 29.080,206.395 29.500,200.000" stroke-width="4.551" stroke="black" fill="none" stroke-linecap="round"></path><path d="M 29.500,200.000 C 32.147,196.130 30.618,196.089 35.500,193.000" stroke-width="3.878" stroke="black" fill="none" stroke-linecap="round"></path><path d="M 35.500,193.000 C 39.966,189.455 39.647,189.130 44.500,186.000" stroke-width="3.443" stroke="black" fill="none" stroke-linecap="round"></path><path d="M 44.500,186.000 C 50.270,181.153 50.466,181.455 56.500,177.000" stroke-width="3.046" stroke="black" fill="none" stroke-linecap="round"></path><path d="M 56.500,177.000 C 62.440,173.393 62.270,173.153 68.500,170.000" stroke-width="3.186" stroke="black" fill="none" stroke-linecap="round"></path><path d="M 68.500,170.000 C 74.900,166.300 74.940,166.393 81.500,163.000" stroke-width="3.061" stroke="black" fill="none" stroke-linecap="round"></path><path d="M 81.500,163.000 C 88.100,160.200 87.900,159.800 94.500,157.000" stroke-width="2.996" stroke="black" fill="none" stroke-linecap="round"></path><path d="M 94.500,157.000 C 100.815,153.104 101.100,153.700 107.500,150.000" stroke-width="2.946" stroke="black" fill="none" stroke-linecap="round"></path><path d="M 107.500,150.000 C 115.185,147.396 114.815,146.604 122.500,144.000" stroke-width="2.842" stroke="black" fill="none" stroke-linecap="round"></path><path d="M 122.500,144.000 C 128.853,140.191 129.185,140.896 135.500,137.000" stroke-width="3.011" stroke="black" fill="none" stroke-linecap="round"></path><path d="M 135.500,137.000 C 141.641,134.790 141.353,134.191 147.500,132.000" stroke-width="3.075" stroke="black" fill="none" stroke-linecap="round"></path><path d="M 147.500,132.000 C 151.959,129.422 152.141,129.790 156.500,127.000" stroke-width="3.310" stroke="black" fill="none" stroke-linecap="round"></path><path d="M 156.500,127.000 C 162.500,124.257 159.459,125.422 162.500,124.000" stroke-width="3.825" stroke="black" fill="none" stroke-linecap="round"></path><path d="M 162.500,124.000 C 159.545,125.170 162.500,123.757 156.500,126.000" stroke-width="4.745" stroke="black" fill="none" stroke-linecap="round"></path><path d="M 156.500,126.000 C 153.929,126.253 154.045,126.670 151.500,127.000" stroke-width="4.399" stroke="black" fill="none" stroke-linecap="round"></path><path d="M 151.500,127.000 C 147.421,128.319 147.429,128.253 143.500,130.000" stroke-width="3.860" stroke="black" fill="none" stroke-linecap="round"></path><path d="M 143.500,130.000 C 140.442,131.395 140.421,131.319 137.500,133.000" stroke-width="4.063" stroke="black" fill="none" stroke-linecap="round"></path><path d="M 137.500,133.000 C 134.883,134.332 134.942,134.395 132.500,136.000" stroke-width="4.105" stroke="black" fill="none" stroke-linecap="round"></path><path d="M 132.500,136.000 C 129.634,137.653 129.883,137.832 127.500,140.000" stroke-width="4.043" stroke="black" fill="none" stroke-linecap="round"></path><path d="M 127.500,140.000 C 123.364,143.254 124.634,143.153 122.500,147.000" stroke-width="4.309" stroke="black" fill="none" stroke-linecap="round"></path><path d="M 122.500,147.000 C 122.447,151.460 121.864,149.754 124.500,153.000" stroke-width="4.759" stroke="black" fill="none" stroke-linecap="round"></path><path d="M 124.500,153.000 C 127.513,153.213 126.447,154.460 130.500,153.000" stroke-width="4.367" stroke="black" fill="none" stroke-linecap="round"></path><path d="M 130.500,153.000 C 134.616,152.971 134.513,152.713 138.500,152.000" stroke-width="3.909" stroke="black" fill="none" stroke-linecap="round"></path><path d="M 138.500,152.000 C 142.641,150.801 142.616,150.971 146.500,149.000" stroke-width="3.971" stroke="black" fill="none" stroke-linecap="round"></path><path d="M 146.500,149.000 C 150.044,147.074 150.141,147.301 153.500,145.000" stroke-width="3.807" stroke="black" fill="none" stroke-linecap="round"></path><path d="M 153.500,145.000 C 160.545,142.228 157.544,142.574 161.500,140.000" stroke-width="4.206" stroke="black" fill="none" stroke-linecap="round"></path><path d="M 161.500,140.000 C 158.635,137.224 162.045,138.728 156.500,138.000" stroke-width="4.893" stroke="black" fill="none" stroke-linecap="round"></path><path d="M 156.500,138.000 C 153.167,140.740 153.135,139.224 150.500,144.000" stroke-width="4.683" stroke="black" fill="none" stroke-linecap="round"></path><path d="M 150.500,144.000 C 146.980,147.180 148.667,146.240 147.500,149.000" stroke-width="4.765" stroke="black" fill="none" stroke-linecap="round"></path><path d="M 147.500,149.000 C 149.917,150.765 147.980,150.680 152.500,151.000" stroke-width="5.045" stroke="black" fill="none" stroke-linecap="round"></path><path d="M 152.500,151.000 C 155.715,151.114 155.417,151.265 158.500,150.000" stroke-width="4.325" stroke="black" fill="none" stroke-linecap="round"></path><path d="M 158.500,150.000 C 163.137,147.727 163.215,148.114 167.500,145.000" stroke-width="3.715" stroke="black" fill="none" stroke-linecap="round"></path><path d="M 167.500,145.000 C 179.345,137.968 179.137,137.727 190.500,130.000" stroke-width="3.239" stroke="black" fill="none" stroke-linecap="round"></path><path d="M 190.500,130.000 C 196.479,124.974 196.845,125.468 202.500,120.000" stroke-width="3.076" stroke="black" fill="none" stroke-linecap="round"></path><path d="M 202.500,120.000 C 208.124,115.643 207.979,115.474 213.500,111.000" stroke-width="3.174" stroke="black" fill="none" stroke-linecap="round"></path><path d="M 213.500,111.000 C 219.119,106.125 219.124,106.143 224.500,101.000" stroke-width="2.989" stroke="black" fill="none" stroke-linecap="round"></path><path d="M 224.500,101.000 C 229.500,96.000 229.619,96.125 234.500,91.000" stroke-width="2.987" stroke="black" fill="none" stroke-linecap="round"></path><path d="M 234.500,91.000 C 238.134,87.624 238.000,87.500 241.500,84.000" stroke-width="3.363" stroke="black" fill="none" stroke-linecap="round"></path><path d="M 241.500,84.000 C 244.500,80.500 244.634,80.624 247.500,77.000" stroke-width="3.557" stroke="black" fill="none" stroke-linecap="round"></path><path d="M 247.500,77.000 C 251.036,73.833 250.500,73.500 253.500,70.000" stroke-width="3.565" stroke="black" fill="none" stroke-linecap="round"></path><path d="M 253.500,70.000 C 258.981,62.114 255.536,66.833 256.500,63.000" stroke-width="4.198" stroke="black" fill="none" stroke-linecap="round"></path><path d="M 256.500,63.000 C 240.394,70.577 244.981,67.114 225.500,80.000" stroke-width="3.904" stroke="black" fill="none" stroke-linecap="round"></path><path d="M 225.500,80.000 C 216.275,86.729 215.894,86.077 207.500,94.000" stroke-width="2.641" stroke="black" fill="none" stroke-linecap="round"></path><path d="M 207.500,94.000 C 198.649,101.142 198.775,101.229 190.500,109.000" stroke-width="2.475" stroke="black" fill="none" stroke-linecap="round"></path><path d="M 190.500,109.000 C 185.000,115.000 184.649,114.642 179.500,121.000" stroke-width="2.686" stroke="black" fill="none" stroke-linecap="round"></path><path d="M 179.500,121.000 C 173.927,126.935 174.000,127.000 168.500,133.000" stroke-width="2.815" stroke="black" fill="none" stroke-linecap="round"></path><path d="M 168.500,133.000 C 165.105,136.238 165.427,136.435 162.500,140.000" stroke-width="3.303" stroke="black" fill="none" stroke-linecap="round"></path><path d="M 162.500,140.000 C 160.549,142.853 160.605,142.738 159.500,146.000" stroke-width="3.739" stroke="black" fill="none" stroke-linecap="round"></path><path d="M 159.500,146.000 C 156.893,150.995 158.549,148.853 158.500,152.000" stroke-width="4.380" stroke="black" fill="none" stroke-linecap="round"></path><path d="M 158.500,152.000 C 163.516,152.771 160.893,153.495 167.500,151.000" stroke-width="4.631" stroke="black" fill="none" stroke-linecap="round"></path><path d="M 167.500,151.000 C 171.972,147.463 172.516,148.771 176.500,144.000" stroke-width="3.598" stroke="black" fill="none" stroke-linecap="round"></path><path d="M 176.500,144.000 C 180.417,140.882 180.472,140.963 184.500,138.000" stroke-width="3.501" stroke="black" fill="none" stroke-linecap="round"></path><path d="M 184.500,138.000 C 189.000,135.000 188.917,134.882 193.500,132.000" stroke-width="3.398" stroke="black" fill="none" stroke-linecap="round"></path><path d="M 193.500,132.000 C 196.339,129.702 196.500,130.000 199.500,128.000" stroke-width="3.766" stroke="black" fill="none" stroke-linecap="round"></path><path d="M 199.500,128.000 C 207.042,123.916 202.839,126.202 206.500,125.000" stroke-width="4.295" stroke="black" fill="none" stroke-linecap="round"></path><path d="M 206.500,125.000 C 201.245,129.255 205.542,126.916 196.500,134.000" stroke-width="4.364" stroke="black" fill="none" stroke-linecap="round"></path><path d="M 196.500,134.000 C 193.652,136.772 193.745,136.755 191.500,140.000" stroke-width="4.045" stroke="black" fill="none" stroke-linecap="round"></path><path d="M 191.500,140.000 C 189.887,142.949 189.652,142.772 188.500,146.000" stroke-width="4.037" stroke="black" fill="none" stroke-linecap="round"></path><path d="M 188.500,146.000 C 185.025,150.344 187.387,148.449 186.500,151.000" stroke-width="4.565" stroke="black" fill="none" stroke-linecap="round"></path><path d="M 186.500,151.000 C 192.514,151.837 189.525,152.344 197.500,150.000" stroke-width="4.379" stroke="black" fill="none" stroke-linecap="round"></path><path d="M 197.500,150.000 C 201.417,146.882 202.014,148.337 205.500,144.000" stroke-width="3.694" stroke="black" fill="none" stroke-linecap="round"></path><path d="M 205.500,144.000 C 210.044,141.064 209.917,140.882 214.500,138.000" stroke-width="3.566" stroke="black" fill="none" stroke-linecap="round"></path><path d="M 214.500,138.000 C 220.595,133.302 218.044,135.564 221.500,133.000" stroke-width="4.166" stroke="black" fill="none" stroke-linecap="round"></path><path d="M 221.500,133.000 C 219.500,135.000 222.095,132.802 217.500,137.000" stroke-width="4.824" stroke="black" fill="none" stroke-linecap="round"></path><path d="M 217.500,137.000 C 215.376,138.889 215.500,139.000 213.500,141.000" stroke-width="4.430" stroke="black" fill="none" stroke-linecap="round"></path><path d="M 213.500,141.000 C 211.130,143.284 211.376,143.389 209.500,146.000" stroke-width="4.133" stroke="black" fill="none" stroke-linecap="round"></path><path d="M 209.500,146.000 C 206.007,150.851 208.130,148.284 207.500,151.000" stroke-width="4.614" stroke="black" fill="none" stroke-linecap="round"></path><path d="M 207.500,151.000 C 213.500,149.000 211.007,151.351 219.500,147.000" stroke-width="4.526" stroke="black" fill="none" stroke-linecap="round"></path><path d="M 219.500,147.000 C 222.500,146.000 222.500,146.000 225.500,145.000" stroke-width="4.219" stroke="black" fill="none" stroke-linecap="round"></path><path d="M 225.500,145.000 C 231.500,142.329 228.500,144.000 231.500,143.000" stroke-width="4.572" stroke="black" fill="none" stroke-linecap="round"></path><path d="M 231.500,143.000 C 224.036,148.732 231.500,143.829 225.500,148.000" stroke-width="4.773" stroke="black" fill="none" stroke-linecap="round"></path><path d="M 225.500,148.000 C 233.946,143.604 229.036,146.232 241.500,138.000" stroke-width="4.498" stroke="black" fill="none" stroke-linecap="round"></path><path d="M 241.500,138.000 C 249.124,131.638 249.446,132.104 256.500,125.000" stroke-width="3.045" stroke="black" fill="none" stroke-linecap="round"></path><path d="M 256.500,125.000 C 264.000,118.000 264.124,118.138 271.500,111.000" stroke-width="2.680" stroke="black" fill="none" stroke-linecap="round"></path><path d="M 271.500,111.000 C 279.250,104.250 279.000,104.000 286.500,97.000" stroke-width="2.587" stroke="black" fill="none" stroke-linecap="round"></path><path d="M 286.500,97.000 C 293.509,89.509 293.750,89.750 300.500,82.000" stroke-width="2.560" stroke="black" fill="none" stroke-linecap="round"></path><path d="M 300.500,82.000 C 307.045,75.041 307.009,75.009 313.500,68.000" stroke-width="2.563" stroke="black" fill="none" stroke-linecap="round"></path><path d="M 313.500,68.000 C 317.891,62.897 318.045,63.041 322.500,58.000" stroke-width="2.889" stroke="black" fill="none" stroke-linecap="round"></path><path d="M 322.500,58.000 C 326.520,54.875 325.891,54.397 329.500,51.000" stroke-width="3.276" stroke="black" fill="none" stroke-linecap="round"></path><path d="M 329.500,51.000 C 334.636,44.680 331.520,48.375 332.500,45.000" stroke-width="4.169" stroke="black" fill="none" stroke-linecap="round"></path><path d="M 332.500,45.000 C 320.495,48.502 324.636,46.180 309.500,54.000" stroke-width="3.454" stroke="black" fill="none" stroke-linecap="round"></path><path d="M 309.500,54.000 C 299.682,59.548 299.495,59.002 290.500,66.000" stroke-width="2.590" stroke="black" fill="none" stroke-linecap="round"></path><path d="M 290.500,66.000 C 281.033,72.471 281.182,72.548 272.500,80.000" stroke-width="2.394" stroke="black" fill="none" stroke-linecap="round"></path><path d="M 272.500,80.000 C 263.666,87.341 264.033,87.471 256.500,96.000" stroke-width="2.407" stroke="black" fill="none" stroke-linecap="round"></path><path d="M 256.500,96.000 C 252.004,102.243 251.666,101.841 248.500,109.000" stroke-width="2.719" stroke="black" fill="none" stroke-linecap="round"></path><path d="M 248.500,109.000 C 244.992,115.836 245.004,115.743 242.500,123.000" stroke-width="2.831" stroke="black" fill="none" stroke-linecap="round"></path><path d="M 242.500,123.000 C 241.404,127.481 240.992,127.336 240.500,132.000" stroke-width="3.310" stroke="black" fill="none" stroke-linecap="round"></path><path d="M 240.500,132.000 C 240.000,135.000 239.904,134.981 239.500,138.000" stroke-width="3.811" stroke="black" fill="none" stroke-linecap="round"></path><path d="M 239.500,138.000 C 237.241,142.490 239.000,141.000 238.500,144.000" stroke-width="4.436" stroke="black" fill="none" stroke-linecap="round"></path><path d="M 238.500,144.000 C 241.636,144.661 239.741,145.490 244.500,144.000" stroke-width="4.904" stroke="black" fill="none" stroke-linecap="round"></path><path d="M 244.500,144.000 C 247.845,141.914 248.136,143.161 251.500,141.000" stroke-width="4.246" stroke="black" fill="none" stroke-linecap="round"></path><path d="M 251.500,141.000 C 256.065,140.832 255.845,139.914 260.500,140.000" stroke-width="3.766" stroke="black" fill="none" stroke-linecap="round"></path><path d="M 260.500,140.000 C 263.937,138.548 264.065,139.332 267.500,138.000" stroke-width="4.010" stroke="black" fill="none" stroke-linecap="round"></path><path d="M 267.500,138.000 C 270.500,138.000 270.437,137.548 273.500,138.000" stroke-width="4.066" stroke="black" fill="none" stroke-linecap="round"></path><path d="M 273.500,138.000 C 279.500,136.394 276.500,138.000 279.500,138.000" stroke-width="4.528" stroke="black" fill="none" stroke-linecap="round"></path><path d="M 279.500,138.000 C 277.645,143.797 279.500,140.894 273.500,147.000" stroke-width="4.342" stroke="black" fill="none" stroke-linecap="round"></path><path d="M 273.500,147.000 C 265.700,151.454 266.645,152.297 257.500,155.000" stroke-width="3.006" stroke="black" fill="none" stroke-linecap="round"></path><path d="M 257.500,155.000 C 247.210,159.668 247.200,159.454 236.500,163.000" stroke-width="2.572" stroke="black" fill="none" stroke-linecap="round"></path><path d="M 236.500,163.000 C 224.625,166.618 224.710,166.668 212.500,169.000" stroke-width="2.307" stroke="black" fill="none" stroke-linecap="round"></path><path d="M 212.500,169.000 C 196.585,172.391 196.625,172.118 180.500,174.000" stroke-width="2.143" stroke="black" fill="none" stroke-linecap="round"></path><path d="M 180.500,174.000 C 166.504,174.750 166.585,175.391 152.500,175.000" stroke-width="2.130" stroke="black" fill="none" stroke-linecap="round"></path><path d="M 152.500,175.000 C 138.345,176.384 138.504,175.250 124.500,175.000" stroke-width="2.070" stroke="black" fill="none" stroke-linecap="round"></path><path d="M 124.500,175.000 C 113.212,173.396 113.345,173.884 102.500,170.000" stroke-width="2.301" stroke="black" fill="none" stroke-linecap="round"></path><path d="M 102.500,170.000 C 92.607,166.711 92.712,166.896 83.500,162.000" stroke-width="2.517" stroke="black" fill="none" stroke-linecap="round"></path><path d="M 83.500,162.000 C 77.730,159.230 78.107,159.211 73.500,155.000" stroke-width="2.953" stroke="black" fill="none" stroke-linecap="round"></path><path d="M 73.500,155.000 C 69.551,151.415 70.230,151.730 68.500,147.000" stroke-width="3.340" stroke="black" fill="none" stroke-linecap="round"></path><path d="M 68.500,147.000 C 65.902,139.568 67.051,140.915 68.500,134.000" stroke-width="3.232" stroke="black" fill="none" stroke-linecap="round"></path><path d="M 68.500,134.000 C 74.550,124.532 72.902,124.568 82.500,117.000" stroke-width="2.642" stroke="black" fill="none" stroke-linecap="round"></path><path d="M 82.500,117.000 C 93.646,106.157 93.550,106.532 106.500,98.000" stroke-width="2.164" stroke="black" fill="none" stroke-linecap="round"></path><path d="M 106.500,98.000 C 119.912,89.471 119.646,89.657 134.500,84.000" stroke-width="2.086" stroke="black" fill="none" stroke-linecap="round"></path><path d="M 134.500,84.000 C 152.299,78.102 151.912,77.471 170.500,74.000" stroke-width="1.846" stroke="black" fill="none" stroke-linecap="round"></path><path d="M 170.500,74.000 C 187.879,69.788 187.799,70.102 205.500,68.000" stroke-width="1.828" stroke="black" fill="none" stroke-linecap="round"></path><path d="M 205.500,68.000 C 222.497,67.266 222.379,66.288 239.500,67.000" stroke-width="1.860" stroke="black" fill="none" stroke-linecap="round"></path><path d="M 239.500,67.000 C 254.610,65.832 254.497,66.766 269.500,67.000" stroke-width="1.979" stroke="black" fill="none" stroke-linecap="round"></path><path d="M 269.500,67.000 C 280.153,68.413 280.110,67.832 290.500,71.000" stroke-width="2.312" stroke="black" fill="none" stroke-linecap="round"></path><path d="M 290.500,71.000 C 298.297,72.868 298.153,72.913 305.500,76.000" stroke-width="2.651" stroke="black" fill="none" stroke-linecap="round"></path><path d="M 305.500,76.000 C 313.844,77.565 309.797,77.868 313.500,81.000" stroke-width="3.302" stroke="black" fill="none" stroke-linecap="round"></path><path d="M 313.500,81.000 C 310.564,90.981 312.844,87.565 303.500,96.000" stroke-width="3.579" stroke="black" fill="none" stroke-linecap="round"></path><path d="M 303.500,96.000 C 289.862,103.048 291.564,104.481 275.500,108.000" stroke-width="2.319" stroke="black" fill="none" stroke-linecap="round"></path><path d="M 275.500,108.000 C 260.544,112.175 260.862,113.048 245.500,116.000" stroke-width="2.019" stroke="black" fill="none" stroke-linecap="round"></path><path d="M 245.500,116.000 C 231.074,119.842 231.044,119.675 216.500,123.000" stroke-width="2.135" stroke="black" fill="none" stroke-linecap="round"></path><path d="M 216.500,123.000 C 201.087,126.602 201.074,126.342 185.500,129.000" stroke-width="2.069" stroke="black" fill="none" stroke-linecap="round"></path><path d="M 185.500,129.000 C 175.019,130.399 175.087,130.602 164.500,131.000" stroke-width="2.359" stroke="black" fill="none" stroke-linecap="round"></path><path d="M 164.500,131.000 C 157.500,131.000 157.519,131.399 150.500,131.000" stroke-width="2.824" stroke="black" fill="none" stroke-linecap="round"></path><path d="M 150.500,131.000 C 144.992,132.741 147.000,131.000 143.500,131.000" stroke-width="3.547" stroke="black" fill="none" stroke-linecap="round"></path><path d="M 299.500,147.000 C 305.491,146.273 305.500,146.500 311.500,146.000" stroke-width="4.942" stroke="black" fill="none" stroke-linecap="round"></path><path d="M 311.500,146.000 C 316.500,146.000 316.491,145.773 321.500,146.000" stroke-width="3.933" stroke="black" fill="none" stroke-linecap="round"></path><path d="M 321.500,146.000 C 329.033,146.498 329.000,146.000 336.500,146.000" stroke-width="3.401" stroke="black" fill="none" stroke-linecap="round"></path><path d="M 336.500,146.000 C 344.033,145.204 344.033,145.498 351.500,144.000" stroke-width="3.027" stroke="black" fill="none" stroke-linecap="round"></path><path d="M 351.500,144.000 C 359.436,141.977 359.533,142.704 367.500,141.000" stroke-width="2.856" stroke="black" fill="none" stroke-linecap="round"></path><path d="M 367.500,141.000 C 376.025,140.770 375.936,139.977 384.500,140.000" stroke-width="2.824" stroke="black" fill="none" stroke-linecap="round"></path><path d="M 384.500,140.000 C 392.488,138.890 392.525,139.270 400.500,138.000" stroke-width="2.868" stroke="black" fill="none" stroke-linecap="round"></path><path d="M 400.500,138.000 C 405.990,137.276 405.988,137.390 411.500,137.000" stroke-width="3.175" stroke="black" fill="none" stroke-linecap="round"></path><path d="M 411.500,137.000 C 416.167,137.812 415.990,136.776 420.500,137.000" stroke-width="3.511" stroke="black" fill="none" stroke-linecap="round"></path><path d="M 420.500,137.000 C 427.500,135.500 424.167,136.312 427.500,134.000" stroke-width="4.191" stroke="black" fill="none" stroke-linecap="round"></path><path d="M 427.500,134.000 C 424.164,131.862 427.500,132.500 420.500,131.000" stroke-width="4.466" stroke="black" fill="none" stroke-linecap="round"></path><path d="M 420.500,131.000 C 415.516,130.186 415.664,129.862 410.500,130.000" stroke-width="3.771" stroke="black" fill="none" stroke-linecap="round"></path><path d="M 410.500,130.000 C 401.998,129.856 402.016,129.686 393.500,130.000" stroke-width="2.974" stroke="black" fill="none" stroke-linecap="round"></path><path d="M 393.500,130.000 C 372.439,129.711 372.498,130.356 351.500,131.000" stroke-width="2.209" stroke="black" fill="none" stroke-linecap="round"></path><path d="M 351.500,131.000 C 339.906,131.972 339.939,131.711 328.500,134.000" stroke-width="2.269" stroke="black" fill="none" stroke-linecap="round"></path><path d="M 328.500,134.000 C 317.329,135.906 317.406,135.972 306.500,139.000" stroke-width="2.314" stroke="black" fill="none" stroke-linecap="round"></path><path d="M 306.500,139.000 C 296.390,142.218 296.329,141.906 286.500,146.000" stroke-width="2.444" stroke="black" fill="none" stroke-linecap="round"></path><path d="M 286.500,146.000 C 279.296,148.602 279.390,148.718 272.500,152.000" stroke-width="2.735" stroke="black" fill="none" stroke-linecap="round"></path><path d="M 272.500,152.000 C 267.733,155.537 267.296,154.602 262.500,158.000" stroke-width="3.078" stroke="black" fill="none" stroke-linecap="round"></path><path d="M 262.500,158.000 C 259.029,159.118 259.233,159.537 255.500,160.000" stroke-width="3.590" stroke="black" fill="none" stroke-linecap="round"></path></svg>