<svg xmlns="http://www.w3.org/2000/svg" xmlns:xlink="http://www.w3.org/1999/xlink" viewBox="0 0 453 236" width="453" height="236"><path d="M 45.500,167.000 C 48.314,166.513 48.000,166.000 50.500,165.000" stroke-width="5.141" stroke="black" fill="none" stroke-linecap="round"></path><path d="M 50.500,165.000 C 54.751,161.749 54.814,162.013 58.500,158.000" stroke-width="4.533" stroke="black" fill="none" stroke-linecap="round"></path><path d="M 58.500,158.000 C 61.902,154.779 61.751,154.749 64.500,151.000" stroke-width="3.812" stroke="black" fill="none" stroke-linecap="round"></path><path d="M 64.500,151.000 C 67.112,146.559 67.402,146.779 69.500,142.000" stroke-width="3.531" stroke="black" fill="none" stroke-linecap="round"></path><path d="M 69.500,142.000 C 72.307,135.895 72.612,136.059 75.500,130.000" stroke-width="3.309" stroke="black" fill="none" stroke-linecap="round"></path><path d="M 75.500,130.000 C 79.000,124.000 78.807,123.895 82.500,118.000" stroke-width="3.157" stroke="black" fill="none" stroke-linecap="round"></path><path d="M 82.500,118.000 C 86.000,112.000 86.000,112.000 89.500,106.000" stroke-width="3.114" stroke="black" fill="none" stroke-linecap="round"></path><path d="M 89.500,106.000 C 92.721,99.815 93.000,100.000 96.500,94.000" stroke-width="3.101" stroke="black" fill="none" stroke-linecap="round"></path><path d="M 96.500,94.000 C 99.861,90.223 99.221,89.815 102.500,86.000" stroke-width="3.345" stroke="black" fill="none" stroke-linecap="round"></path><path d="M 102.500,86.000 C 104.743,82.101 104.861,82.223 106.500,78.000" stroke-width="3.525" stroke="black" fill="none" stroke-linecap="round"></path><path d="M 106.500,78.000 C 107.987,75.079 107.743,75.101 108.500,72.000" stroke-width="3.865" stroke="black" fill="none" stroke-linecap="round"></path><path d="M 108.500,72.000 C 110.281,66.000 108.987,69.079 108.500,66.000" stroke-width="4.488" stroke="black" fill="none" stroke-linecap="round"></path><path d="M 108.500,66.000 C 102.055,67.924 104.781,66.000 97.500,72.000" stroke-width="4.495" stroke="black" fill="none" stroke-linecap="round"></path><path d="M 97.500,72.000 C 93.431,77.451 92.555,76.424 89.500,83.000" stroke-width="3.506" stroke="black" fill="none" stroke-linecap="round"></path><path d="M 89.500,83.000 C 85.347,89.768 84.931,89.451 80.500,96.000" stroke-width="3.132" stroke="black" fill="none" stroke-linecap="round"></path><path d="M 80.500,96.000 C 74.216,102.780 74.847,103.268 68.500,110.000" stroke-width="2.815" stroke="black" fill="none" stroke-linecap="round"></path><path d="M 68.500,110.000 C 65.000,115.000 64.716,114.780 61.500,120.000" stroke-width="3.121" stroke="black" fill="none" stroke-linecap="round"></path><path d="M 61.500,120.000 C 58.020,125.014 58.000,125.000 54.500,130.000" stroke-width="3.328" stroke="black" fill="none" stroke-linecap="round"></path><path d="M 54.500,130.000 C 51.396,133.209 52.020,133.514 49.500,137.000" stroke-width="3.649" stroke="black" fill="none" stroke-linecap="round"></path><path d="M 49.500,137.000 C 47.921,140.419 47.896,140.209 47.500,144.000" stroke-width="3.891" stroke="black" fill="none" stroke-linecap="round"></path><path d="M 47.500,144.000 C 45.278,151.222 46.921,148.919 47.500,154.000" stroke-width="4.199" stroke="black" fill="none" stroke-linecap="round"></path><path d="M 47.500,154.000 C 51.723,154.944 49.278,156.222 55.500,154.000" stroke-width="4.625" stroke="black" fill="none" stroke-linecap="round"></path><path d="M 55.500,154.000 C 59.338,151.561 59.723,152.944 63.500,150.000" stroke-width="4.484" stroke="black" fill="none" stroke-linecap="round"></path><path d="M 63.500,150.000 C 67.568,149.210 67.338,148.561 71.500,148.000" stroke-width="4.495" stroke="black" fill="none" stroke-linecap="round"></path><path d="M 71.500,148.000 C 74.000,147.000 74.068,147.210 76.500,146.000" stroke-width="4.881" stroke="black" fill="none" stroke-linecap="round"></path><path d="M 76.500,146.000 C 79.099,145.200 79.000,145.000 81.500,144.000" stroke-width="5.361" stroke="black" fill="none" stroke-linecap="round"></path><path d="M 81.500,144.000 C 83.935,142.381 84.099,142.700 86.500,141.000" stroke-width="5.138" stroke="black" fill="none" stroke-linecap="round"></path><path d="M 86.500,141.000 C 90.763,139.402 90.435,138.881 94.500,137.000" stroke-width="4.618" stroke="black" fill="none" stroke-linecap="round"></path><path d="M 94.500,137.000 C 97.624,134.636 97.763,134.902 100.500,132.000" stroke-width="3.997" stroke="black" fill="none" stroke-linecap="round"></path><path d="M 100.500,132.000 C 103.287,128.754 103.624,129.136 106.500,126.000" stroke-width="3.823" stroke="black" fill="none" stroke-linecap="round"></path><path d="M 106.500,126.000 C 110.865,123.393 110.287,122.754 114.500,120.000" stroke-width="3.562" stroke="black" fill="none" stroke-linecap="round"></path><path d="M 114.500,120.000 C 118.000,116.000 118.365,116.393 121.500,112.000" stroke-width="3.432" stroke="black" fill="none" stroke-linecap="round"></path><path d="M 121.500,112.000 C 125.151,108.122 125.000,108.000 128.500,104.000" stroke-width="3.395" stroke="black" fill="none" stroke-linecap="round"></path><path d="M 128.500,104.000 C 131.618,100.083 131.651,100.122 134.500,96.000" stroke-width="3.496" stroke="black" fill="none" stroke-linecap="round"></path><path d="M 134.500,96.000 C 137.306,91.355 137.618,91.583 140.500,87.000" stroke-width="3.455" stroke="black" fill="none" stroke-linecap="round"></path><path d="M 140.500,87.000 C 143.348,84.228 142.806,83.855 145.500,81.000" stroke-width="3.725" stroke="black" fill="none" stroke-linecap="round"></path><path d="M 145.500,81.000 C 147.113,78.051 147.348,78.228 148.500,75.000" stroke-width="4.053" stroke="black" fill="none" stroke-linecap="round"></path><path d="M 148.500,75.000 C 150.500,72.500 149.613,72.551 150.500,70.000" stroke-width="4.161" stroke="black" fill="none" stroke-linecap="round"></path><path d="M 150.500,70.000 C 150.298,66.027 150.500,67.500 148.500,65.000" stroke-width="4.845" stroke="black" fill="none" stroke-linecap="round"></path><path d="M 148.500,65.000 C 145.695,64.818 146.798,64.027 143.500,66.000" stroke-width="4.512" stroke="black" fill="none" stroke-linecap="round"></path><path d="M 143.500,66.000 C 139.500,69.000 139.195,68.318 135.500,72.000" stroke-width="3.786" stroke="black" fill="none" stroke-linecap="round"></path><path d="M 135.500,72.000 C 131.378,74.849 131.500,75.000 127.500,78.000" stroke-width="3.665" stroke="black" fill="none" stroke-linecap="round"></path><path d="M 127.500,78.000 C 123.247,81.253 123.378,81.349 119.500,85.000" stroke-width="3.520" stroke="black" fill="none" stroke-linecap="round"></path><path d="M 119.500,85.000 C 117.146,88.133 116.747,87.753 114.500,91.000" stroke-width="3.747" stroke="black" fill="none" stroke-linecap="round"></path><path d="M 114.500,91.000 C 110.710,94.255 111.146,94.633 107.500,98.000" stroke-width="3.611" stroke="black" fill="none" stroke-linecap="round"></path><path d="M 107.500,98.000 C 104.885,101.422 104.710,101.255 102.500,105.000" stroke-width="3.936" stroke="black" fill="none" stroke-linecap="round"></path><path d="M 102.500,105.000 C 96.957,113.473 96.885,113.422 91.500,122.000" stroke-width="2.792" stroke="black" fill="none" stroke-linecap="round"></path><path d="M 91.500,122.000 C 89.115,126.077 88.957,125.973 86.500,130.000" stroke-width="3.323" stroke="black" fill="none" stroke-linecap="round"></path><path d="M 86.500,130.000 C 83.885,133.423 84.115,133.577 81.500,137.000" stroke-width="3.601" stroke="black" fill="none" stroke-linecap="round"></path><path d="M 81.500,137.000 C 78.595,140.809 78.885,140.923 76.500,145.000" stroke-width="4.127" stroke="black" fill="none" stroke-linecap="round"></path><path d="M 76.500,145.000 C 75.330,147.955 75.095,147.809 74.500,151.000" stroke-width="4.579" stroke="black" fill="none" stroke-linecap="round"></path><path d="M 74.500,151.000 C 72.567,155.533 73.830,153.455 73.500,156.000" stroke-width="5.011" stroke="black" fill="none" stroke-linecap="round"></path><path d="M 73.500,156.000 C 76.154,154.721 74.567,156.533 78.500,153.000" stroke-width="5.285" stroke="black" fill="none" stroke-linecap="round"></path><path d="M 78.500,153.000 C 83.382,148.839 83.654,149.221 88.500,145.000" stroke-width="4.384" stroke="black" fill="none" stroke-linecap="round"></path><path d="M 88.500,145.000 C 91.431,142.889 91.382,142.839 94.500,141.000" stroke-width="4.071" stroke="black" fill="none" stroke-linecap="round"></path><path d="M 94.500,141.000 C 97.903,138.799 97.931,138.889 101.500,137.000" stroke-width="3.939" stroke="black" fill="none" stroke-linecap="round"></path><path d="M 101.500,137.000 C 104.138,136.272 103.903,135.799 106.500,135.000" stroke-width="4.124" stroke="black" fill="none" stroke-linecap="round"></path><path d="M 106.500,135.000 C 112.807,129.436 110.638,132.772 114.500,130.000" stroke-width="4.276" stroke="black" fill="none" stroke-linecap="round"></path><path d="M 114.500,130.000 C 114.254,133.882 115.807,130.436 112.500,137.000" stroke-width="4.908" stroke="black" fill="none" stroke-linecap="round"></path><path d="M 112.500,137.000 C 108.808,141.369 109.754,141.882 105.500,146.000" stroke-width="3.646" stroke="black" fill="none" stroke-linecap="round"></path><path d="M 105.500,146.000 C 103.642,148.335 103.808,148.369 102.500,151.000" stroke-width="4.010" stroke="black" fill="none" stroke-linecap="round"></path><path d="M 102.500,151.000 C 101.095,155.535 100.642,155.335 99.500,160.000" stroke-width="4.274" stroke="black" fill="none" stroke-linecap="round"></path><path d="M 99.500,160.000 C 96.580,163.390 98.595,162.535 97.500,165.000" stroke-width="4.639" stroke="black" fill="none" stroke-linecap="round"></path><path d="M 97.500,165.000 C 100.421,166.487 98.580,166.890 103.500,167.000" stroke-width="5.147" stroke="black" fill="none" stroke-linecap="round"></path><path d="M 103.500,167.000 C 106.521,167.248 106.421,167.487 109.500,167.000" stroke-width="5.256" stroke="black" fill="none" stroke-linecap="round"></path><path d="M 109.500,167.000 C 112.583,166.796 112.521,166.748 115.500,166.000" stroke-width="5.361" stroke="black" fill="none" stroke-linecap="round"></path><path d="M 115.500,166.000 C 118.149,165.283 118.083,165.296 120.500,164.000" stroke-width="5.011" stroke="black" fill="none" stroke-linecap="round"></path><path d="M 120.500,164.000 C 123.723,162.272 123.649,162.283 126.500,160.000" stroke-width="4.728" stroke="black" fill="none" stroke-linecap="round"></path><path d="M 126.500,160.000 C 128.777,157.228 129.223,157.772 131.500,155.000" stroke-width="4.661" stroke="black" fill="none" stroke-linecap="round"></path><path d="M 131.500,155.000 C 135.000,153.500 134.277,152.728 137.500,151.000" stroke-width="4.629" stroke="black" fill="none" stroke-linecap="round"></path><path d="M 137.500,151.000 C 140.621,148.222 140.000,148.500 141.500,145.000" stroke-width="4.818" stroke="black" fill="none" stroke-linecap="round"></path><path d="M 141.500,145.000 C 142.308,140.904 142.121,142.722 140.500,140.000" stroke-width="5.145" stroke="black" fill="none" stroke-linecap="round"></path><path d="M 140.500,140.000 C 135.590,138.831 137.308,138.404 131.500,140.000" stroke-width="4.636" stroke="black" fill="none" stroke-linecap="round"></path><path d="M 131.500,140.000 C 129.060,142.080 128.590,140.831 126.500,144.000" stroke-width="4.284" stroke="black" fill="none" stroke-linecap="round"></path><path d="M 126.500,144.000 C 122.653,146.134 123.060,146.580 119.500,149.000" stroke-width="4.426" stroke="black" fill="none" stroke-linecap="round"></path><path d="M 119.500,149.000 C 116.003,151.233 117.153,151.134 115.500,154.000" stroke-width="4.622" stroke="black" fill="none" stroke-linecap="round"></path><path d="M 115.500,154.000 C 115.375,158.348 115.003,156.733 117.500,160.000" stroke-width="4.968" stroke="black" fill="none" stroke-linecap="round"></path><path d="M 117.500,160.000 C 121.014,160.419 119.875,161.848 124.500,161.000" stroke-width="4.931" stroke="black" fill="none" stroke-linecap="round"></path><path d="M 124.500,161.000 C 127.000,161.500 127.014,161.419 129.500,162.000" stroke-width="4.890" stroke="black" fill="none" stroke-linecap="round"></path><path d="M 129.500,162.000 C 131.973,162.770 132.000,162.500 134.500,163.000" stroke-width="4.863" stroke="black" fill="none" stroke-linecap="round"></path><path d="M 134.500,163.000 C 137.527,163.270 137.473,163.270 140.500,163.000" stroke-width="4.981" stroke="black" fill="none" stroke-linecap="round"></path><path d="M 140.500,163.000 C 143.068,162.730 143.027,162.770 145.500,162.000" stroke-width="5.151" stroke="black" fill="none" stroke-linecap="round"></path><path d="M 145.500,162.000 C 147.932,160.770 148.068,161.230 150.500,160.000" stroke-width="5.106" stroke="black" fill="none" stroke-linecap="round"></path><path d="M 150.500,160.000 C 153.068,159.730 152.932,159.270 155.500,159.000" stroke-width="5.235" stroke="black" fill="none" stroke-linecap="round"></path><path d="M 155.500,159.000 C 158.149,158.283 158.068,158.230 160.500,157.000" stroke-width="5.485" stroke="black" fill="none" stroke-linecap="round"></path><path d="M 160.500,157.000 C 163.698,155.242 163.649,155.283 166.500,153.000" stroke-width="5.268" stroke="black" fill="none" stroke-linecap="round"></path><path d="M 166.500,153.000 C 168.195,150.537 168.698,151.242 170.500,149.000" stroke-width="5.211" stroke="black" fill="none" stroke-linecap="round"></path><path d="M 170.500,149.000 C 173.000,148.000 172.695,147.537 175.500,147.000" stroke-width="5.375" stroke="black" fill="none" stroke-linecap="round"></path><path d="M 175.500,147.000 C 177.932,145.770 178.000,146.000 180.500,145.000" stroke-width="5.260" stroke="black" fill="none" stroke-linecap="round"></path><path d="M 180.500,145.000 C 183.125,144.864 182.932,144.270 185.500,144.000" stroke-width="5.329" stroke="black" fill="none" stroke-linecap="round"></path><path d="M 185.500,144.000 C 188.375,142.136 188.625,142.864 191.500,141.000" stroke-width="5.323" stroke="black" fill="none" stroke-linecap="round"></path><path d="M 191.500,141.000 C 197.081,140.387 193.875,140.136 196.500,140.000" stroke-width="5.306" stroke="black" fill="none" stroke-linecap="round"></path><path d="M 196.500,140.000 C 192.490,139.000 195.581,139.387 188.500,139.000" stroke-width="5.418" stroke="black" fill="none" stroke-linecap="round"></path><path d="M 188.500,139.000 C 185.245,138.856 185.490,139.000 182.500,140.000" stroke-width="4.932" stroke="black" fill="none" stroke-linecap="round"></path><path d="M 182.500,140.000 C 179.008,141.492 179.245,141.356 176.500,144.000" stroke-width="4.707" stroke="black" fill="none" stroke-linecap="round"></path><path d="M 176.500,144.000 C 173.747,147.348 173.508,146.992 171.500,151.000" stroke-width="4.781" stroke="black" fill="none" stroke-linecap="round"></path><path d="M 171.500,151.000 C 169.636,153.875 169.747,153.848 168.500,157.000" stroke-width="4.905" stroke="black" fill="none" stroke-linecap="round"></path><path d="M 168.500,157.000 C 167.500,159.500 167.636,159.375 167.500,162.000" stroke-width="5.043" stroke="black" fill="none" stroke-linecap="round"></path><path d="M 167.500,162.000 C 166.757,166.225 167.500,164.500 168.500,167.000" stroke-width="5.280" stroke="black" fill="none" stroke-linecap="round"></path><path d="M 168.500,167.000 C 172.944,167.524 171.257,168.225 176.500,166.000" stroke-width="4.763" stroke="black" fill="none" stroke-linecap="round"></path><path d="M 176.500,166.000 C 179.330,163.265 179.944,164.524 182.500,161.000" stroke-width="4.629" stroke="black" fill="none" stroke-linecap="round"></path><path d="M 182.500,161.000 C 187.100,159.138 186.330,158.265 190.500,156.000" stroke-width="4.489" stroke="black" fill="none" stroke-linecap="round"></path><path d="M 190.500,156.000 C 193.116,152.576 193.600,153.138 195.500,149.000" stroke-width="4.450" stroke="black" fill="none" stroke-linecap="round"></path><path d="M 195.500,149.000 C 197.761,143.754 197.116,146.576 198.500,144.000" stroke-width="4.690" stroke="black" fill="none" stroke-linecap="round"></path><path d="M 198.500,144.000 C 199.261,147.211 199.261,144.254 198.500,150.000" stroke-width="5.193" stroke="black" fill="none" stroke-linecap="round"></path><path d="M 198.500,150.000 C 196.699,152.362 197.761,152.711 195.500,155.000" stroke-width="4.494" stroke="black" fill="none" stroke-linecap="round"></path><path d="M 195.500,155.000 C 194.713,158.088 194.199,157.862 193.500,161.000" stroke-width="4.160" stroke="black" fill="none" stroke-linecap="round"></path><path d="M 193.500,161.000 C 192.090,164.048 192.213,164.088 190.500,167.000" stroke-width="4.071" stroke="black" fill="none" stroke-linecap="round"></path><path d="M 190.500,167.000 C 188.420,170.456 188.590,170.548 186.500,174.000" stroke-width="3.834" stroke="black" fill="none" stroke-linecap="round"></path><path d="M 186.500,174.000 C 182.337,182.708 181.920,182.456 177.500,191.000" stroke-width="3.604" stroke="black" fill="none" stroke-linecap="round"></path><path d="M 177.500,191.000 C 175.000,194.500 175.337,194.708 172.500,198.000" stroke-width="3.695" stroke="black" fill="none" stroke-linecap="round"></path><path d="M 172.500,198.000 C 170.516,201.984 170.000,201.500 167.500,205.000" stroke-width="4.233" stroke="black" fill="none" stroke-linecap="round"></path><path d="M 167.500,205.000 C 162.360,210.093 162.516,209.984 156.500,214.000" stroke-width="3.270" stroke="black" fill="none" stroke-linecap="round"></path><path d="M 156.500,214.000 C 153.079,215.722 153.360,216.093 149.500,217.000" stroke-width="3.631" stroke="black" fill="none" stroke-linecap="round"></path><path d="M 149.500,217.000 C 146.029,218.118 146.079,218.222 142.500,219.000" stroke-width="3.885" stroke="black" fill="none" stroke-linecap="round"></path><path d="M 142.500,219.000 C 140.008,219.544 140.029,219.618 137.500,220.000" stroke-width="4.144" stroke="black" fill="none" stroke-linecap="round"></path><path d="M 137.500,220.000 C 134.527,220.822 134.508,220.544 131.500,221.000" stroke-width="4.143" stroke="black" fill="none" stroke-linecap="round"></path><path d="M 131.500,221.000 C 125.978,221.304 126.027,221.322 120.500,221.000" stroke-width="4.238" stroke="black" fill="none" stroke-linecap="round"></path><path d="M 120.500,221.000 C 115.875,221.848 116.978,220.804 113.500,220.000" stroke-width="4.507" stroke="black" fill="none" stroke-linecap="round"></path><path d="M 113.500,220.000 C 110.797,216.813 111.375,218.348 111.500,214.000" stroke-width="4.654" stroke="black" fill="none" stroke-linecap="round"></path><path d="M 111.500,214.000 C 113.731,208.307 112.797,208.813 117.500,204.000" stroke-width="4.269" stroke="black" fill="none" stroke-linecap="round"></path><path d="M 117.500,204.000 C 121.622,201.151 120.731,200.307 125.500,198.000" stroke-width="3.670" stroke="black" fill="none" stroke-linecap="round"></path><path d="M 125.500,198.000 C 129.287,194.222 129.622,194.651 133.500,191.000" stroke-width="3.521" stroke="black" fill="none" stroke-linecap="round"></path><path d="M 133.500,191.000 C 137.929,187.887 137.787,187.722 142.500,185.000" stroke-width="3.611" stroke="black" fill="none" stroke-linecap="round"></path><path d="M 142.500,185.000 C 147.500,182.000 147.429,181.887 152.500,179.000" stroke-width="3.414" stroke="black" fill="none" stroke-linecap="round"></path><path d="M 152.500,179.000 C 157.301,175.599 157.500,176.000 162.500,173.000" stroke-width="3.300" stroke="black" fill="none" stroke-linecap="round"></path><path d="M 162.500,173.000 C 167.639,171.288 167.301,170.599 172.500,169.000" stroke-width="3.399" stroke="black" fill="none" stroke-linecap="round"></path><path d="M 172.500,169.000 C 175.903,166.799 176.139,167.288 179.500,165.000" stroke-width="3.680" stroke="black" fill="none" stroke-linecap="round"></path><path d="M 179.500,165.000 C 181.932,163.770 181.903,163.799 184.500,163.000" stroke-width="4.075" stroke="black" fill="none" stroke-linecap="round"></path><path d="M 184.500,163.000 C 186.973,162.230 186.932,162.270 189.500,162.000" stroke-width="4.286" stroke="black" fill="none" stroke-linecap="round"></path><path d="M 189.500,162.000 C 193.392,160.682 192.473,161.730 195.500,162.000" stroke-width="4.607" stroke="black" fill="none" stroke-linecap="round"></path><path d="M 195.500,162.000 C 197.243,164.432 197.392,163.182 197.500,167.000" stroke-width="5.240" stroke="black" fill="none" stroke-linecap="round"></path><path d="M 197.500,167.000 C 197.000,169.500 197.743,169.432 196.500,172.000" stroke-width="5.235" stroke="black" fill="none" stroke-linecap="round"></path><path d="M 196.500,172.000 C 194.464,175.136 196.000,174.500 195.500,177.000" stroke-width="5.136" stroke="black" fill="none" stroke-linecap="round"></path><path d="M 195.500,177.000 C 198.225,179.908 196.964,179.636 201.500,181.000" stroke-width="5.247" stroke="black" fill="none" stroke-linecap="round"></path><path d="M 201.500,181.000 C 205.015,182.243 204.225,181.908 207.500,181.000" stroke-width="4.927" stroke="black" fill="none" stroke-linecap="round"></path><path d="M 207.500,181.000 C 210.650,178.135 211.015,179.243 213.500,175.000" stroke-width="4.580" stroke="black" fill="none" stroke-linecap="round"></path><path d="M 213.500,175.000 C 215.376,172.389 215.650,172.635 217.500,170.000" stroke-width="4.686" stroke="black" fill="none" stroke-linecap="round"></path><path d="M 217.500,170.000 C 219.777,168.216 219.376,167.889 221.500,166.000" stroke-width="4.807" stroke="black" fill="none" stroke-linecap="round"></path><path d="M 221.500,166.000 C 224.011,160.755 223.277,163.716 224.500,161.000" stroke-width="4.973" stroke="black" fill="none" stroke-linecap="round"></path><path d="M 224.500,161.000 C 224.296,164.083 225.011,161.255 223.500,167.000" stroke-width="5.290" stroke="black" fill="none" stroke-linecap="round"></path><path d="M 223.500,167.000 C 221.973,169.399 222.796,169.583 221.500,172.000" stroke-width="5.147" stroke="black" fill="none" stroke-linecap="round"></path><path d="M 221.500,172.000 C 220.040,176.053 220.973,174.899 221.500,178.000" stroke-width="5.213" stroke="black" fill="none" stroke-linecap="round"></path><path d="M 221.500,178.000 C 224.421,179.487 223.040,180.053 227.500,180.000" stroke-width="5.147" stroke="black" fill="none" stroke-linecap="round"></path><path d="M 227.500,180.000 C 230.500,180.000 230.421,180.487 233.500,180.000" stroke-width="5.216" stroke="black" fill="none" stroke-linecap="round"></path><path d="M 233.500,180.000 C 236.527,180.270 236.500,180.000 239.500,180.000" stroke-width="5.407" stroke="black" fill="none" stroke-linecap="round"></path><path d="M 239.500,180.000 C 242.283,180.108 242.027,179.770 244.500,179.000" stroke-width="5.519" stroke="black" fill="none" stroke-linecap="round"></path><path d="M 244.500,179.000 C 247.124,177.138 247.283,177.608 249.500,175.000" stroke-width="5.501" stroke="black" fill="none" stroke-linecap="round"></path><path d="M 249.500,175.000 C 251.876,172.362 252.124,172.638 254.500,170.000" stroke-width="5.278" stroke="black" fill="none" stroke-linecap="round"></path><path d="M 254.500,170.000 C 256.717,167.392 256.876,167.862 259.500,166.000" stroke-width="5.177" stroke="black" fill="none" stroke-linecap="round"></path><path d="M 259.500,166.000 C 263.000,164.000 261.717,164.892 264.500,165.000" stroke-width="5.259" stroke="black" fill="none" stroke-linecap="round"></path><path d="M 264.500,165.000 C 265.270,167.473 266.000,166.000 265.500,170.000" stroke-width="5.385" stroke="black" fill="none" stroke-linecap="round"></path><path d="M 265.500,170.000 C 264.084,173.875 265.770,172.973 265.500,176.000" stroke-width="5.126" stroke="black" fill="none" stroke-linecap="round"></path><path d="M 265.500,176.000 C 268.383,178.760 267.084,178.375 271.500,179.000" stroke-width="5.285" stroke="black" fill="none" stroke-linecap="round"></path><path d="M 271.500,179.000 C 275.135,178.346 274.883,179.260 278.500,177.000" stroke-width="4.862" stroke="black" fill="none" stroke-linecap="round"></path><path d="M 278.500,177.000 C 282.677,175.294 282.635,175.346 286.500,173.000" stroke-width="4.548" stroke="black" fill="none" stroke-linecap="round"></path><path d="M 286.500,173.000 C 289.887,170.323 290.177,170.794 293.500,168.000" stroke-width="4.487" stroke="black" fill="none" stroke-linecap="round"></path><path d="M 293.500,168.000 C 297.156,166.229 296.887,165.823 300.500,164.000" stroke-width="4.491" stroke="black" fill="none" stroke-linecap="round"></path><path d="M 300.500,164.000 C 302.784,161.630 303.156,162.229 305.500,160.000" stroke-width="4.627" stroke="black" fill="none" stroke-linecap="round"></path><path d="M 305.500,160.000 C 310.138,156.733 307.784,158.630 310.500,158.000" stroke-width="4.920" stroke="black" fill="none" stroke-linecap="round"></path><path d="M 310.500,158.000 C 309.598,162.804 311.138,160.233 307.500,167.000" stroke-width="5.175" stroke="black" fill="none" stroke-linecap="round"></path><path d="M 307.500,167.000 C 305.043,170.532 305.598,170.804 302.500,174.000" stroke-width="4.011" stroke="black" fill="none" stroke-linecap="round"></path><path d="M 302.500,174.000 C 299.766,178.231 299.543,178.032 296.500,182.000" stroke-width="3.670" stroke="black" fill="none" stroke-linecap="round"></path><path d="M 296.500,182.000 C 292.875,185.383 293.266,185.731 289.500,189.000" stroke-width="3.531" stroke="black" fill="none" stroke-linecap="round"></path><path d="M 289.500,189.000 C 286.250,193.250 285.875,192.883 282.500,197.000" stroke-width="4.008" stroke="black" fill="none" stroke-linecap="round"></path><path d="M 282.500,197.000 C 278.523,200.526 278.750,200.750 274.500,204.000" stroke-width="3.767" stroke="black" fill="none" stroke-linecap="round"></path><path d="M 274.500,204.000 C 267.525,210.029 267.523,210.026 260.500,216.000" stroke-width="2.949" stroke="black" fill="none" stroke-linecap="round"></path><path d="M 260.500,216.000 C 257.593,218.621 257.525,218.529 254.500,221.000" stroke-width="3.529" stroke="black" fill="none" stroke-linecap="round"></path><path d="M 254.500,221.000 C 251.152,223.753 251.093,223.621 247.500,226.000" stroke-width="3.671" stroke="black" fill="none" stroke-linecap="round"></path><path d="M 247.500,226.000 C 244.551,227.613 244.652,227.753 241.500,229.000" stroke-width="3.871" stroke="black" fill="none" stroke-linecap="round"></path><path d="M 241.500,229.000 C 239.051,230.150 239.051,230.113 236.500,231.000" stroke-width="4.101" stroke="black" fill="none" stroke-linecap="round"></path><path d="M 236.500,231.000 C 230.298,233.798 233.051,232.150 229.500,233.000" stroke-width="4.460" stroke="black" fill="none" stroke-linecap="round"></path><path d="M 229.500,233.000 C 231.162,230.158 228.798,232.298 233.500,228.000" stroke-width="4.903" stroke="black" fill="none" stroke-linecap="round"></path><path d="M 233.500,228.000 C 237.881,224.336 237.662,224.158 242.500,221.000" stroke-width="3.716" stroke="black" fill="none" stroke-linecap="round"></path><path d="M 242.500,221.000 C 246.938,217.903 246.881,217.836 251.500,215.000" stroke-width="3.457" stroke="black" fill="none" stroke-linecap="round"></path><path d="M 251.500,215.000 C 258.000,211.000 257.938,210.903 264.500,207.000" stroke-width="3.096" stroke="black" fill="none" stroke-linecap="round"></path><path d="M 264.500,207.000 C 270.976,202.961 271.000,203.000 277.500,199.000" stroke-width="3.112" stroke="black" fill="none" stroke-linecap="round"></path><path d="M 277.500,199.000 C 285.268,194.899 284.976,194.461 292.500,190.000" stroke-width="2.866" stroke="black" fill="none" stroke-linecap="round"></path><path d="M 292.500,190.000 C 300.533,184.044 300.768,184.399 308.500,178.000" stroke-width="2.663" stroke="black" fill="none" stroke-linecap="round"></path><path d="M 308.500,178.000 C 315.000,173.000 315.033,173.044 321.500,168.000" stroke-width="2.742" stroke="black" fill="none" stroke-linecap="round"></path><path d="M 321.500,168.000 C 328.011,163.014 328.000,163.000 334.500,158.000" stroke-width="2.880" stroke="black" fill="none" stroke-linecap="round"></path><path d="M 334.500,158.000 C 338.737,154.082 339.011,154.514 343.500,151.000" stroke-width="3.204" stroke="black" fill="none" stroke-linecap="round"></path><path d="M 343.500,151.000 C 347.443,148.873 347.237,148.582 351.500,147.000" stroke-width="3.527" stroke="black" fill="none" stroke-linecap="round"></path><path d="M 351.500,147.000 C 355.561,144.061 353.943,145.873 356.500,145.000" stroke-width="3.978" stroke="black" fill="none" stroke-linecap="round"></path><path d="M 34.500,97.000 C 38.477,97.799 38.500,97.500 42.500,98.000" stroke-width="5.022" stroke="black" fill="none" stroke-linecap="round"></path><path d="M 42.500,98.000 C 58.497,98.704 58.477,98.799 74.500,99.000" stroke-width="3.318" stroke="black" fill="none" stroke-linecap="round"></path><path d="M 74.500,99.000 C 85.500,99.000 85.497,99.204 96.500,99.000" stroke-width="2.660" stroke="black" fill="none" stroke-linecap="round"></path><path d="M 96.500,99.000 C 109.020,99.499 109.000,99.000 121.500,99.000" stroke-width="2.380" stroke="black" fill="none" stroke-linecap="round"></path><path d="M 121.500,99.000 C 134.012,98.135 134.020,98.499 146.500,97.000" stroke-width="2.304" stroke="black" fill="none" stroke-linecap="round"></path><path d="M 330.500,183.000 C 329.068,180.375 330.000,180.500 329.500,178.000" stroke-width="5.359" stroke="black" fill="none" stroke-linecap="round"></path><path d="M 329.500,178.000 C 330.895,174.942 330.068,174.875 332.500,172.000" stroke-width="4.879" stroke="black" fill="none" stroke-linecap="round"></path><path d="M 332.500,172.000 C 333.935,169.459 333.895,169.442 335.500,167.000" stroke-width="4.324" stroke="black" fill="none" stroke-linecap="round"></path><path d="M 335.500,167.000 C 337.448,163.964 337.435,163.959 339.500,161.000" stroke-width="4.001" stroke="black" fill="none" stroke-linecap="round"></path><path d="M 339.500,161.000 C 342.044,157.531 341.948,157.464 344.500,154.000" stroke-width="4.331" stroke="black" fill="none" stroke-linecap="round"></path><path d="M 344.500,154.000 C 349.890,145.921 350.044,146.031 355.500,138.000" stroke-width="2.978" stroke="black" fill="none" stroke-linecap="round"></path><path d="M 355.500,138.000 C 358.618,134.083 358.390,133.921 361.500,130.000" stroke-width="3.301" stroke="black" fill="none" stroke-linecap="round"></path><path d="M 361.500,130.000 C 364.576,125.549 364.618,125.583 367.500,121.000" stroke-width="3.395" stroke="black" fill="none" stroke-linecap="round"></path><path d="M 367.500,121.000 C 373.192,111.276 373.576,111.549 379.500,102.000" stroke-width="3.389" stroke="black" fill="none" stroke-linecap="round"></path><path d="M 379.500,102.000 C 382.000,99.000 381.692,98.776 384.500,96.000" stroke-width="3.654" stroke="black" fill="none" stroke-linecap="round"></path><path d="M 384.500,96.000 C 386.556,92.491 387.000,93.000 389.500,90.000" stroke-width="3.792" stroke="black" fill="none" stroke-linecap="round"></path><path d="M 389.500,90.000 C 395.204,83.980 393.056,86.991 397.500,85.000" stroke-width="4.218" stroke="black" fill="none" stroke-linecap="round"></path><path d="M 397.500,85.000 C 399.436,89.788 399.704,85.980 398.500,94.000" stroke-width="4.697" stroke="black" fill="none" stroke-linecap="round"></path><path d="M 398.500,94.000 C 396.079,98.546 397.436,98.788 393.500,103.000" stroke-width="3.726" stroke="black" fill="none" stroke-linecap="round"></path><path d="M 393.500,103.000 C 390.500,108.000 390.579,108.046 387.500,113.000" stroke-width="3.502" stroke="black" fill="none" stroke-linecap="round"></path><path d="M 387.500,113.000 C 384.613,118.071 384.500,118.000 381.500,123.000" stroke-width="3.384" stroke="black" fill="none" stroke-linecap="round"></path><path d="M 381.500,123.000 C 378.365,127.416 378.613,127.571 375.500,132.000" stroke-width="3.421" stroke="black" fill="none" stroke-linecap="round"></path><path d="M 375.500,132.000 C 373.531,135.518 373.365,135.416 371.500,139.000" stroke-width="3.688" stroke="black" fill="none" stroke-linecap="round"></path><path d="M 371.500,139.000 C 370.000,141.500 370.031,141.518 368.500,144.000" stroke-width="4.025" stroke="black" fill="none" stroke-linecap="round"></path><path d="M 368.500,144.000 C 364.859,149.000 367.000,146.500 365.500,149.000" stroke-width="4.684" stroke="black" fill="none" stroke-linecap="round"></path><path d="M 365.500,149.000 C 368.519,146.522 366.359,149.000 371.500,144.000" stroke-width="4.898" stroke="black" fill="none" stroke-linecap="round"></path><path d="M 371.500,144.000 C 374.902,140.878 375.019,141.022 378.500,138.000" stroke-width="4.577" stroke="black" fill="none" stroke-linecap="round"></path><path d="M 378.500,138.000 C 382.668,135.193 382.402,134.878 386.500,132.000" stroke-width="4.392" stroke="black" fill="none" stroke-linecap="round"></path><path d="M 386.500,132.000 C 388.693,130.168 388.668,130.193 390.500,128.000" stroke-width="4.271" stroke="black" fill="none" stroke-linecap="round"></path><path d="M 390.500,128.000 C 393.595,124.067 393.693,124.168 396.500,120.000" stroke-width="4.281" stroke="black" fill="none" stroke-linecap="round"></path><path d="M 396.500,120.000 C 400.002,113.751 398.595,117.067 400.500,114.000" stroke-width="4.510" stroke="black" fill="none" stroke-linecap="round"></path><path d="M 400.500,114.000 C 399.801,117.617 401.002,114.251 398.500,121.000" stroke-width="5.094" stroke="black" fill="none" stroke-linecap="round"></path><path d="M 398.500,121.000 C 397.000,124.000 397.301,124.117 395.500,127.000" stroke-width="4.999" stroke="black" fill="none" stroke-linecap="round"></path><path d="M 395.500,127.000 C 394.105,130.058 394.000,130.000 392.500,133.000" stroke-width="4.282" stroke="black" fill="none" stroke-linecap="round"></path><path d="M 392.500,133.000 C 390.800,135.401 391.105,135.558 389.500,138.000" stroke-width="4.619" stroke="black" fill="none" stroke-linecap="round"></path><path d="M 389.500,138.000 C 388.270,140.432 388.300,140.401 387.500,143.000" stroke-width="4.924" stroke="black" fill="none" stroke-linecap="round"></path><path d="M 387.500,143.000 C 385.710,148.197 386.770,145.432 386.500,148.000" stroke-width="5.211" stroke="black" fill="none" stroke-linecap="round"></path><path d="M 386.500,148.000 C 389.159,145.121 387.710,147.697 391.500,142.000" stroke-width="5.169" stroke="black" fill="none" stroke-linecap="round"></path><path d="M 391.500,142.000 C 394.701,136.749 395.159,137.121 398.500,132.000" stroke-width="4.474" stroke="black" fill="none" stroke-linecap="round"></path><path d="M 398.500,132.000 C 401.124,129.613 400.701,129.249 403.500,127.000" stroke-width="4.111" stroke="black" fill="none" stroke-linecap="round"></path><path d="M 403.500,127.000 C 405.890,123.900 406.124,124.113 408.500,121.000" stroke-width="3.928" stroke="black" fill="none" stroke-linecap="round"></path><path d="M 408.500,121.000 C 410.389,118.876 410.390,118.900 412.500,117.000" stroke-width="4.128" stroke="black" fill="none" stroke-linecap="round"></path><path d="M 412.500,117.000 C 415.022,115.027 414.889,114.876 417.500,113.000" stroke-width="4.050" stroke="black" fill="none" stroke-linecap="round"></path><path d="M 417.500,113.000 C 420.600,108.290 420.522,110.527 423.500,108.000" stroke-width="4.386" stroke="black" fill="none" stroke-linecap="round"></path><path d="M 423.500,108.000 C 427.313,109.572 425.600,107.790 427.500,112.000" stroke-width="4.965" stroke="black" fill="none" stroke-linecap="round"></path><path d="M 427.500,112.000 C 426.529,116.739 427.813,116.072 424.500,121.000" stroke-width="3.932" stroke="black" fill="none" stroke-linecap="round"></path><path d="M 424.500,121.000 C 420.946,126.969 421.529,127.239 417.500,133.000" stroke-width="3.238" stroke="black" fill="none" stroke-linecap="round"></path><path d="M 417.500,133.000 C 412.934,140.964 412.946,140.969 408.500,149.000" stroke-width="2.845" stroke="black" fill="none" stroke-linecap="round"></path><path d="M 408.500,149.000 C 404.270,155.228 404.934,155.464 401.500,162.000" stroke-width="2.959" stroke="black" fill="none" stroke-linecap="round"></path><path d="M 401.500,162.000 C 399.980,166.443 399.770,166.228 399.500,171.000" stroke-width="3.361" stroke="black" fill="none" stroke-linecap="round"></path><path d="M 399.500,171.000 C 399.500,176.000 398.980,175.943 399.500,181.000" stroke-width="3.624" stroke="black" fill="none" stroke-linecap="round"></path><path d="M 399.500,181.000 C 398.863,184.603 399.500,184.500 399.500,188.000" stroke-width="3.912" stroke="black" fill="none" stroke-linecap="round"></path><path d="M 399.500,188.000 C 400.023,193.284 400.363,192.603 402.500,197.000" stroke-width="4.221" stroke="black" fill="none" stroke-linecap="round"></path><path d="M 402.500,197.000 C 404.773,199.318 404.023,199.284 407.500,200.000" stroke-width="4.611" stroke="black" fill="none" stroke-linecap="round"></path><path d="M 407.500,200.000 C 411.029,200.289 410.773,200.818 414.500,200.000" stroke-width="5.047" stroke="black" fill="none" stroke-linecap="round"></path><path d="M 414.500,200.000 C 417.267,200.116 417.029,199.789 419.500,199.000" stroke-width="5.172" stroke="black" fill="none" stroke-linecap="round"></path><path d="M 419.500,199.000 C 423.182,196.715 423.267,197.116 426.500,194.000" stroke-width="4.654" stroke="black" fill="none" stroke-linecap="round"></path><path d="M 426.500,194.000 C 428.284,191.723 428.682,192.215 430.500,190.000" stroke-width="4.342" stroke="black" fill="none" stroke-linecap="round"></path><path d="M 430.500,190.000 C 433.076,188.616 432.784,188.223 435.500,187.000" stroke-width="4.186" stroke="black" fill="none" stroke-linecap="round"></path></svg>