<svg xmlns="http://www.w3.org/2000/svg" xmlns:xlink="http://www.w3.org/1999/xlink" viewBox="0 0 453 236" width="453" height="236"><path d="M 90.500,89.000 C 87.149,92.247 87.500,92.500 84.500,96.000" stroke-width="3.933" stroke="black" fill="none" stroke-linecap="round"></path><path d="M 84.500,96.000 C 81.794,101.209 81.149,100.747 78.500,106.000" stroke-width="3.495" stroke="black" fill="none" stroke-linecap="round"></path><path d="M 78.500,106.000 C 75.714,108.802 76.294,109.209 73.500,112.000" stroke-width="3.739" stroke="black" fill="none" stroke-linecap="round"></path><path d="M 73.500,112.000 C 71.385,115.439 71.214,115.302 69.500,119.000" stroke-width="3.740" stroke="black" fill="none" stroke-linecap="round"></path><path d="M 69.500,119.000 C 66.892,123.949 66.885,123.939 64.500,129.000" stroke-width="3.547" stroke="black" fill="none" stroke-linecap="round"></path><path d="M 64.500,129.000 C 62.474,133.489 62.392,133.449 60.500,138.000" stroke-width="3.501" stroke="black" fill="none" stroke-linecap="round"></path><path d="M 60.500,138.000 C 59.062,141.528 58.974,141.489 57.500,145.000" stroke-width="4.171" stroke="black" fill="none" stroke-linecap="round"></path><path d="M 57.500,145.000 C 54.407,151.460 54.562,151.528 51.500,158.000" stroke-width="3.320" stroke="black" fill="none" stroke-linecap="round"></path><path d="M 51.500,158.000 C 50.870,160.716 50.407,160.460 49.500,163.000" stroke-width="3.896" stroke="black" fill="none" stroke-linecap="round"></path><path d="M 84.500,86.000 C 83.041,89.943 83.500,90.000 82.500,94.000" stroke-width="5.146" stroke="black" fill="none" stroke-linecap="round"></path><path d="M 82.500,94.000 C 82.251,97.518 82.041,97.443 82.500,101.000" stroke-width="4.274" stroke="black" fill="none" stroke-linecap="round"></path><path d="M 82.500,101.000 C 82.734,104.555 82.751,104.518 83.500,108.000" stroke-width="4.228" stroke="black" fill="none" stroke-linecap="round"></path><path d="M 83.500,108.000 C 85.238,113.446 84.734,113.555 86.500,119.000" stroke-width="3.647" stroke="black" fill="none" stroke-linecap="round"></path><path d="M 86.500,119.000 C 87.032,124.617 87.738,124.446 88.500,130.000" stroke-width="3.405" stroke="black" fill="none" stroke-linecap="round"></path><path d="M 88.500,130.000 C 91.750,141.090 91.532,141.117 95.500,152.000" stroke-width="2.550" stroke="black" fill="none" stroke-linecap="round"></path><path d="M 95.500,152.000 C 97.710,156.928 97.250,157.090 99.500,162.000" stroke-width="3.116" stroke="black" fill="none" stroke-linecap="round"></path><path d="M 99.500,162.000 C 100.199,165.617 100.710,165.428 101.500,169.000" stroke-width="3.606" stroke="black" fill="none" stroke-linecap="round"></path><path d="M 101.500,169.000 C 103.301,171.883 102.699,172.117 104.500,175.000" stroke-width="3.975" stroke="black" fill="none" stroke-linecap="round"></path><path d="M 112.500,133.000 C 106.583,130.829 106.500,131.500 100.500,130.000" stroke-width="4.259" stroke="black" fill="none" stroke-linecap="round"></path><path d="M 100.500,130.000 C 95.500,130.000 95.583,129.329 90.500,130.000" stroke-width="3.730" stroke="black" fill="none" stroke-linecap="round"></path><path d="M 90.500,130.000 C 85.000,130.000 85.000,130.000 79.500,130.000" stroke-width="3.443" stroke="black" fill="none" stroke-linecap="round"></path><path d="M 79.500,130.000 C 73.989,129.751 74.000,130.000 68.500,130.000" stroke-width="3.424" stroke="black" fill="none" stroke-linecap="round"></path><path d="M 68.500,130.000 C 63.000,130.500 62.989,130.251 57.500,131.000" stroke-width="3.356" stroke="black" fill="none" stroke-linecap="round"></path><path d="M 57.500,131.000 C 52.011,131.749 52.000,131.500 46.500,132.000" stroke-width="3.336" stroke="black" fill="none" stroke-linecap="round"></path><path d="M 46.500,132.000 C 41.000,132.000 41.011,132.249 35.500,132.000" stroke-width="3.334" stroke="black" fill="none" stroke-linecap="round"></path><path d="M 35.500,132.000 C 31.043,130.587 32.000,132.000 28.500,132.000" stroke-width="4.152" stroke="black" fill="none" stroke-linecap="round"></path><path d="M 107.500,84.000 C 104.681,81.734 104.500,82.500 101.500,81.000" stroke-width="3.696" stroke="black" fill="none" stroke-linecap="round"></path><path d="M 101.500,81.000 C 98.000,81.000 98.181,80.234 94.500,81.000" stroke-width="3.937" stroke="black" fill="none" stroke-linecap="round"></path><path d="M 94.500,81.000 C 90.848,80.212 91.000,81.000 87.500,81.000" stroke-width="4.015" stroke="black" fill="none" stroke-linecap="round"></path><path d="M 87.500,81.000 C 82.097,82.283 82.348,82.212 77.500,85.000" stroke-width="3.757" stroke="black" fill="none" stroke-linecap="round"></path><path d="M 77.500,85.000 C 71.186,89.126 71.097,88.783 65.500,94.000" stroke-width="3.184" stroke="black" fill="none" stroke-linecap="round"></path><path d="M 65.500,94.000 C 57.248,101.252 57.186,101.126 49.500,109.000" stroke-width="2.637" stroke="black" fill="none" stroke-linecap="round"></path><path d="M 49.500,109.000 C 43.765,113.979 44.248,114.252 39.500,120.000" stroke-width="2.933" stroke="black" fill="none" stroke-linecap="round"></path><path d="M 39.500,120.000 C 35.061,126.171 35.265,125.979 32.500,133.000" stroke-width="2.928" stroke="black" fill="none" stroke-linecap="round"></path><path d="M 32.500,133.000 C 30.030,138.519 30.561,138.171 30.500,144.000" stroke-width="3.287" stroke="black" fill="none" stroke-linecap="round"></path><path d="M 30.500,144.000 C 28.296,159.866 31.530,156.019 35.500,168.000" stroke-width="2.531" stroke="black" fill="none" stroke-linecap="round"></path><path d="M 35.500,168.000 C 48.096,175.490 43.796,177.366 61.500,179.000" stroke-width="2.887" stroke="black" fill="none" stroke-linecap="round"></path><path d="M 61.500,179.000 C 69.621,179.985 69.096,180.990 77.500,179.000" stroke-width="2.835" stroke="black" fill="none" stroke-linecap="round"></path><path d="M 77.500,179.000 C 86.618,179.246 85.621,177.985 93.500,175.000" stroke-width="2.789" stroke="black" fill="none" stroke-linecap="round"></path><path d="M 93.500,175.000 C 110.639,163.861 110.118,164.746 124.500,150.000" stroke-width="2.647" stroke="black" fill="none" stroke-linecap="round"></path><path d="M 124.500,150.000 C 128.939,143.829 129.639,144.861 131.500,137.000" stroke-width="2.891" stroke="black" fill="none" stroke-linecap="round"></path><path d="M 131.500,137.000 C 132.996,131.545 133.439,131.829 133.500,126.000" stroke-width="3.225" stroke="black" fill="none" stroke-linecap="round"></path><path d="M 133.500,126.000 C 134.344,120.347 133.996,120.545 133.500,115.000" stroke-width="3.576" stroke="black" fill="none" stroke-linecap="round"></path><path d="M 133.500,115.000 C 133.114,110.089 132.844,110.847 130.500,107.000" stroke-width="3.639" stroke="black" fill="none" stroke-linecap="round"></path><path d="M 130.500,107.000 C 126.787,103.715 127.614,103.589 122.500,102.000" stroke-width="3.624" stroke="black" fill="none" stroke-linecap="round"></path><path d="M 122.500,102.000 C 119.019,101.235 119.287,100.715 115.500,101.000" stroke-width="3.861" stroke="black" fill="none" stroke-linecap="round"></path><path d="M 115.500,101.000 C 111.114,99.795 111.519,100.735 107.500,101.000" stroke-width="3.836" stroke="black" fill="none" stroke-linecap="round"></path><path d="M 107.500,101.000 C 103.492,103.008 103.614,102.295 100.500,106.000" stroke-width="3.765" stroke="black" fill="none" stroke-linecap="round"></path><path d="M 100.500,106.000 C 98.098,108.804 97.992,108.508 96.500,112.000" stroke-width="3.843" stroke="black" fill="none" stroke-linecap="round"></path><path d="M 96.500,112.000 C 95.013,114.921 95.098,114.804 94.500,118.000" stroke-width="4.019" stroke="black" fill="none" stroke-linecap="round"></path><path d="M 94.500,118.000 C 94.500,121.000 94.013,120.921 94.500,124.000" stroke-width="4.157" stroke="black" fill="none" stroke-linecap="round"></path><path d="M 94.500,124.000 C 93.347,127.364 94.500,127.000 94.500,130.000" stroke-width="4.110" stroke="black" fill="none" stroke-linecap="round"></path><path d="M 94.500,130.000 C 97.414,135.600 96.847,135.364 101.500,140.000" stroke-width="4.130" stroke="black" fill="none" stroke-linecap="round"></path><path d="M 101.500,140.000 C 104.431,142.111 103.914,142.600 107.500,144.000" stroke-width="4.002" stroke="black" fill="none" stroke-linecap="round"></path><path d="M 107.500,144.000 C 111.044,145.926 110.931,146.111 114.500,148.000" stroke-width="3.919" stroke="black" fill="none" stroke-linecap="round"></path><path d="M 114.500,148.000 C 118.244,151.176 118.544,150.426 122.500,153.000" stroke-width="4.246" stroke="black" fill="none" stroke-linecap="round"></path><path d="M 122.500,153.000 C 125.479,153.748 125.244,154.176 128.500,154.000" stroke-width="4.770" stroke="black" fill="none" stroke-linecap="round"></path><path d="M 128.500,154.000 C 131.513,153.787 131.479,154.248 134.500,154.000" stroke-width="4.792" stroke="black" fill="none" stroke-linecap="round"></path><path d="M 134.500,154.000 C 139.743,153.162 138.513,154.287 142.500,155.000" stroke-width="4.618" stroke="black" fill="none" stroke-linecap="round"></path><path d="M 142.500,155.000 C 143.113,157.482 144.243,156.162 143.500,160.000" stroke-width="4.451" stroke="black" fill="none" stroke-linecap="round"></path><path d="M 143.500,160.000 C 142.249,165.299 144.113,163.982 144.500,168.000" stroke-width="4.518" stroke="black" fill="none" stroke-linecap="round"></path><path d="M 144.500,168.000 C 148.833,171.509 147.249,171.299 153.500,172.000" stroke-width="4.654" stroke="black" fill="none" stroke-linecap="round"></path><path d="M 153.500,172.000 C 158.667,171.526 158.333,172.509 163.500,170.000" stroke-width="3.728" stroke="black" fill="none" stroke-linecap="round"></path><path d="M 163.500,170.000 C 167.933,167.827 168.167,168.526 172.500,166.000" stroke-width="3.610" stroke="black" fill="none" stroke-linecap="round"></path><path d="M 172.500,166.000 C 175.529,165.080 175.433,164.827 178.500,164.000" stroke-width="3.895" stroke="black" fill="none" stroke-linecap="round"></path><path d="M 178.500,164.000 C 180.917,162.704 181.029,163.080 183.500,162.000" stroke-width="4.151" stroke="black" fill="none" stroke-linecap="round"></path><path d="M 183.500,162.000 C 188.094,159.393 186.417,161.204 189.500,161.000" stroke-width="4.553" stroke="black" fill="none" stroke-linecap="round"></path><path d="M 189.500,161.000 C 188.395,167.293 191.594,163.393 190.500,170.000" stroke-width="4.839" stroke="black" fill="none" stroke-linecap="round"></path><path d="M 190.500,170.000 C 194.117,171.489 191.895,171.793 196.500,170.000" stroke-width="4.767" stroke="black" fill="none" stroke-linecap="round"></path><path d="M 196.500,170.000 C 201.500,165.000 202.117,166.489 206.500,160.000" stroke-width="3.507" stroke="black" fill="none" stroke-linecap="round"></path><path d="M 206.500,160.000 C 211.729,154.194 212.000,154.500 217.500,149.000" stroke-width="3.021" stroke="black" fill="none" stroke-linecap="round"></path><path d="M 217.500,149.000 C 221.778,145.148 221.729,145.194 226.500,142.000" stroke-width="3.351" stroke="black" fill="none" stroke-linecap="round"></path><path d="M 226.500,142.000 C 229.375,139.568 229.278,140.148 232.500,139.000" stroke-width="3.757" stroke="black" fill="none" stroke-linecap="round"></path><path d="M 232.500,139.000 C 237.102,138.012 234.875,138.568 237.500,140.000" stroke-width="4.485" stroke="black" fill="none" stroke-linecap="round"></path><path d="M 237.500,140.000 C 237.367,147.232 238.602,145.512 235.500,154.000" stroke-width="3.392" stroke="black" fill="none" stroke-linecap="round"></path><path d="M 235.500,154.000 C 232.047,161.360 233.367,161.732 229.500,169.000" stroke-width="2.954" stroke="black" fill="none" stroke-linecap="round"></path><path d="M 229.500,169.000 C 228.466,173.493 228.047,173.360 227.500,178.000" stroke-width="3.407" stroke="black" fill="none" stroke-linecap="round"></path><path d="M 227.500,178.000 C 224.983,182.848 226.966,180.493 226.500,183.000" stroke-width="4.326" stroke="black" fill="none" stroke-linecap="round"></path><path d="M 226.500,183.000 C 232.611,182.078 229.983,183.348 237.500,179.000" stroke-width="3.511" stroke="black" fill="none" stroke-linecap="round"></path><path d="M 237.500,179.000 C 245.559,172.572 246.111,173.578 253.500,166.000" stroke-width="2.701" stroke="black" fill="none" stroke-linecap="round"></path><path d="M 253.500,166.000 C 259.732,160.144 260.059,160.572 266.500,155.000" stroke-width="2.776" stroke="black" fill="none" stroke-linecap="round"></path><path d="M 266.500,155.000 C 272.328,150.703 272.232,150.644 278.500,147.000" stroke-width="2.958" stroke="black" fill="none" stroke-linecap="round"></path><path d="M 278.500,147.000 C 282.277,144.056 282.328,144.703 286.500,143.000" stroke-width="3.385" stroke="black" fill="none" stroke-linecap="round"></path><path d="M 286.500,143.000 C 292.610,140.690 290.277,142.056 294.500,143.000" stroke-width="4.111" stroke="black" fill="none" stroke-linecap="round"></path><path d="M 294.500,143.000 C 295.176,148.492 297.110,146.190 295.500,154.000" stroke-width="4.183" stroke="black" fill="none" stroke-linecap="round"></path><path d="M 295.500,154.000 C 295.500,157.000 295.676,156.992 295.500,160.000" stroke-width="4.118" stroke="black" fill="none" stroke-linecap="round"></path><path d="M 295.500,160.000 C 292.959,166.366 295.500,164.000 295.500,168.000" stroke-width="4.414" stroke="black" fill="none" stroke-linecap="round"></path><path d="M 295.500,168.000 C 302.710,169.849 299.959,170.866 309.500,169.000" stroke-width="4.049" stroke="black" fill="none" stroke-linecap="round"></path><path d="M 309.500,169.000 C 314.485,166.962 314.710,168.349 319.500,165.000" stroke-width="3.542" stroke="black" fill="none" stroke-linecap="round"></path><path d="M 319.500,165.000 C 325.861,162.021 325.985,162.462 332.500,160.000" stroke-width="3.381" stroke="black" fill="none" stroke-linecap="round"></path><path d="M 332.500,160.000 C 337.456,158.560 337.361,158.521 342.500,158.000" stroke-width="3.525" stroke="black" fill="none" stroke-linecap="round"></path><path d="M 342.500,158.000 C 346.500,158.000 346.456,157.560 350.500,158.000" stroke-width="3.730" stroke="black" fill="none" stroke-linecap="round"></path><path d="M 350.500,158.000 C 354.500,158.000 354.500,158.000 358.500,158.000" stroke-width="3.687" stroke="black" fill="none" stroke-linecap="round"></path><path d="M 358.500,158.000 C 361.636,157.339 361.500,158.000 364.500,158.000" stroke-width="4.044" stroke="black" fill="none" stroke-linecap="round"></path><path d="M 364.500,158.000 C 368.100,159.300 368.136,158.839 371.500,161.000" stroke-width="3.878" stroke="black" fill="none" stroke-linecap="round"></path><path d="M 371.500,161.000 C 374.747,163.675 375.100,162.800 378.500,165.000" stroke-width="3.834" stroke="black" fill="none" stroke-linecap="round"></path><path d="M 378.500,165.000 C 383.474,166.162 383.247,166.675 388.500,167.000" stroke-width="3.606" stroke="black" fill="none" stroke-linecap="round"></path><path d="M 388.500,167.000 C 392.484,167.749 392.474,167.662 396.500,168.000" stroke-width="3.699" stroke="black" fill="none" stroke-linecap="round"></path><path d="M 396.500,168.000 C 400.500,168.000 400.484,168.249 404.500,168.000" stroke-width="3.735" stroke="black" fill="none" stroke-linecap="round"></path><path d="M 404.500,168.000 C 408.500,168.000 408.500,168.000 412.500,168.000" stroke-width="3.745" stroke="black" fill="none" stroke-linecap="round"></path><path d="M 412.500,168.000 C 416.014,168.232 416.000,168.000 419.500,168.000" stroke-width="3.861" stroke="black" fill="none" stroke-linecap="round"></path><path d="M 419.500,168.000 C 423.728,168.161 423.514,167.732 427.500,167.000" stroke-width="3.829" stroke="black" fill="none" stroke-linecap="round"></path><path d="M 427.500,167.000 C 430.117,165.668 430.228,166.161 432.500,164.000" stroke-width="4.074" stroke="black" fill="none" stroke-linecap="round"></path><path d="M 432.500,164.000 C 438.715,160.868 435.117,162.168 437.500,160.000" stroke-width="4.500" stroke="black" fill="none" stroke-linecap="round"></path><path d="M 437.500,160.000 C 431.499,158.829 435.215,158.368 425.500,159.000" stroke-width="4.228" stroke="black" fill="none" stroke-linecap="round"></path><path d="M 425.500,159.000 C 413.952,159.594 413.999,159.329 402.500,161.000" stroke-width="2.744" stroke="black" fill="none" stroke-linecap="round"></path><path d="M 402.500,161.000 C 385.510,163.570 385.452,163.094 368.500,166.000" stroke-width="2.234" stroke="black" fill="none" stroke-linecap="round"></path><path d="M 368.500,166.000 C 350.592,169.643 350.510,168.570 332.500,171.000" stroke-width="1.906" stroke="black" fill="none" stroke-linecap="round"></path><path d="M 332.500,171.000 C 310.503,171.758 310.592,172.643 288.500,172.000" stroke-width="1.602" stroke="black" fill="none" stroke-linecap="round"></path><path d="M 288.500,172.000 C 264.961,172.967 265.003,172.258 241.500,172.000" stroke-width="1.477" stroke="black" fill="none" stroke-linecap="round"></path><path d="M 241.500,172.000 C 216.487,170.149 216.461,170.967 191.500,168.000" stroke-width="1.439" stroke="black" fill="none" stroke-linecap="round"></path><path d="M 191.500,168.000 C 170.040,165.330 169.987,166.149 148.500,164.000" stroke-width="1.541" stroke="black" fill="none" stroke-linecap="round"></path><path d="M 148.500,164.000 C 129.498,163.000 129.540,162.830 110.500,163.000" stroke-width="1.627" stroke="black" fill="none" stroke-linecap="round"></path><path d="M 110.500,163.000 C 95.461,161.269 95.998,163.000 81.500,164.000" stroke-width="1.918" stroke="black" fill="none" stroke-linecap="round"></path></svg>