<svg xmlns="http://www.w3.org/2000/svg" xmlns:xlink="http://www.w3.org/1999/xlink" viewBox="0 0 453 236" width="453" height="236"><path d="M 230.500,63.000 C 231.410,58.248 230.500,58.500 230.500,54.000" stroke-width="5.344" stroke="black" fill="none" stroke-linecap="round"></path><path d="M 230.500,54.000 C 229.526,51.026 229.910,51.248 227.500,49.000" stroke-width="5.241" stroke="black" fill="none" stroke-linecap="round"></path><path d="M 227.500,49.000 C 223.652,45.768 224.026,45.526 219.500,43.000" stroke-width="4.885" stroke="black" fill="none" stroke-linecap="round"></path><path d="M 219.500,43.000 C 216.143,40.681 216.152,40.768 212.500,39.000" stroke-width="4.643" stroke="black" fill="none" stroke-linecap="round"></path><path d="M 212.500,39.000 C 209.538,37.868 209.643,37.681 206.500,37.000" stroke-width="4.712" stroke="black" fill="none" stroke-linecap="round"></path><path d="M 206.500,37.000 C 202.567,35.452 202.538,35.868 198.500,35.000" stroke-width="4.649" stroke="black" fill="none" stroke-linecap="round"></path><path d="M 198.500,35.000 C 193.500,35.000 193.567,34.452 188.500,35.000" stroke-width="3.874" stroke="black" fill="none" stroke-linecap="round"></path><path d="M 188.500,35.000 C 183.860,34.231 184.000,35.000 179.500,35.000" stroke-width="4.259" stroke="black" fill="none" stroke-linecap="round"></path><path d="M 179.500,35.000 C 175.487,36.467 175.360,35.731 171.500,38.000" stroke-width="4.487" stroke="black" fill="none" stroke-linecap="round"></path><path d="M 171.500,38.000 C 168.528,38.341 168.987,38.967 166.500,40.000" stroke-width="4.334" stroke="black" fill="none" stroke-linecap="round"></path><path d="M 166.500,40.000 C 163.025,43.212 163.028,42.841 160.500,47.000" stroke-width="4.397" stroke="black" fill="none" stroke-linecap="round"></path><path d="M 160.500,47.000 C 159.500,49.500 159.025,49.212 158.500,52.000" stroke-width="4.309" stroke="black" fill="none" stroke-linecap="round"></path><path d="M 158.500,52.000 C 156.009,56.869 156.500,57.000 154.500,62.000" stroke-width="4.360" stroke="black" fill="none" stroke-linecap="round"></path><path d="M 154.500,62.000 C 154.081,65.514 153.509,65.369 153.500,69.000" stroke-width="4.130" stroke="black" fill="none" stroke-linecap="round"></path><path d="M 153.500,69.000 C 152.816,71.473 153.081,71.514 152.500,74.000" stroke-width="4.304" stroke="black" fill="none" stroke-linecap="round"></path><path d="M 152.500,74.000 C 151.776,79.490 151.816,79.473 151.500,85.000" stroke-width="3.571" stroke="black" fill="none" stroke-linecap="round"></path><path d="M 151.500,85.000 C 150.497,89.737 151.276,89.490 151.500,94.000" stroke-width="4.174" stroke="black" fill="none" stroke-linecap="round"></path><path d="M 151.500,94.000 C 153.381,98.065 152.497,98.237 155.500,102.000" stroke-width="4.347" stroke="black" fill="none" stroke-linecap="round"></path><path d="M 155.500,102.000 C 157.000,104.500 156.881,104.565 158.500,107.000" stroke-width="4.235" stroke="black" fill="none" stroke-linecap="round"></path><path d="M 158.500,107.000 C 159.843,109.606 160.000,109.500 161.500,112.000" stroke-width="4.156" stroke="black" fill="none" stroke-linecap="round"></path><path d="M 161.500,112.000 C 164.234,116.231 164.343,116.106 167.500,120.000" stroke-width="4.267" stroke="black" fill="none" stroke-linecap="round"></path><path d="M 167.500,120.000 C 171.000,123.500 170.734,123.731 174.500,127.000" stroke-width="4.309" stroke="black" fill="none" stroke-linecap="round"></path><path d="M 174.500,127.000 C 176.500,129.000 176.500,129.000 178.500,131.000" stroke-width="4.201" stroke="black" fill="none" stroke-linecap="round"></path><path d="M 178.500,131.000 C 180.582,132.922 180.500,133.000 182.500,135.000" stroke-width="4.169" stroke="black" fill="none" stroke-linecap="round"></path><path d="M 182.500,135.000 C 186.349,139.642 186.582,139.422 190.500,144.000" stroke-width="4.135" stroke="black" fill="none" stroke-linecap="round"></path><path d="M 190.500,144.000 C 196.837,149.708 196.349,150.142 202.500,156.000" stroke-width="4.180" stroke="black" fill="none" stroke-linecap="round"></path><path d="M 202.500,156.000 C 205.543,159.968 205.837,159.708 208.500,164.000" stroke-width="4.275" stroke="black" fill="none" stroke-linecap="round"></path><path d="M 208.500,164.000 C 211.052,167.464 211.043,167.468 213.500,171.000" stroke-width="4.423" stroke="black" fill="none" stroke-linecap="round"></path><path d="M 213.500,171.000 C 215.687,173.892 215.552,173.964 217.500,177.000" stroke-width="4.573" stroke="black" fill="none" stroke-linecap="round"></path><path d="M 217.500,177.000 C 219.213,179.912 219.187,179.892 220.500,183.000" stroke-width="4.660" stroke="black" fill="none" stroke-linecap="round"></path><path d="M 220.500,183.000 C 221.500,186.000 221.713,185.912 222.500,189.000" stroke-width="4.718" stroke="black" fill="none" stroke-linecap="round"></path><path d="M 222.500,189.000 C 223.670,191.955 223.500,192.000 224.500,195.000" stroke-width="4.922" stroke="black" fill="none" stroke-linecap="round"></path><path d="M 224.500,195.000 C 224.698,200.401 225.170,197.455 225.500,200.000" stroke-width="5.042" stroke="black" fill="none" stroke-linecap="round"></path><path d="M 225.500,200.000 C 227.086,196.535 226.698,199.401 228.500,193.000" stroke-width="5.339" stroke="black" fill="none" stroke-linecap="round"></path><path d="M 228.500,193.000 C 230.247,189.071 230.086,189.035 231.500,185.000" stroke-width="4.698" stroke="black" fill="none" stroke-linecap="round"></path><path d="M 231.500,185.000 C 232.044,182.508 232.247,182.571 232.500,180.000" stroke-width="4.387" stroke="black" fill="none" stroke-linecap="round"></path><path d="M 232.500,180.000 C 232.479,176.808 233.044,177.008 233.500,174.000" stroke-width="4.635" stroke="black" fill="none" stroke-linecap="round"></path><path d="M 233.500,174.000 C 234.500,171.000 234.479,171.308 236.500,169.000" stroke-width="4.750" stroke="black" fill="none" stroke-linecap="round"></path><path d="M 236.500,169.000 C 239.000,167.500 238.500,167.000 241.500,166.000" stroke-width="4.786" stroke="black" fill="none" stroke-linecap="round"></path><path d="M 241.500,166.000 C 244.017,164.528 244.000,164.500 246.500,163.000" stroke-width="4.782" stroke="black" fill="none" stroke-linecap="round"></path><path d="M 246.500,163.000 C 250.533,160.550 250.517,160.528 254.500,158.000" stroke-width="4.489" stroke="black" fill="none" stroke-linecap="round"></path><path d="M 254.500,158.000 C 257.459,155.935 257.533,156.050 260.500,154.000" stroke-width="4.097" stroke="black" fill="none" stroke-linecap="round"></path><path d="M 260.500,154.000 C 263.240,152.808 262.959,152.435 265.500,151.000" stroke-width="4.115" stroke="black" fill="none" stroke-linecap="round"></path><path d="M 265.500,151.000 C 267.876,148.362 268.240,148.808 270.500,146.000" stroke-width="4.104" stroke="black" fill="none" stroke-linecap="round"></path><path d="M 270.500,146.000 C 273.022,144.027 272.876,143.862 275.500,142.000" stroke-width="4.091" stroke="black" fill="none" stroke-linecap="round"></path><path d="M 275.500,142.000 C 278.478,139.473 278.522,139.527 281.500,137.000" stroke-width="3.868" stroke="black" fill="none" stroke-linecap="round"></path><path d="M 281.500,137.000 C 284.135,135.150 283.978,134.973 286.500,133.000" stroke-width="3.971" stroke="black" fill="none" stroke-linecap="round"></path><path d="M 286.500,133.000 C 289.500,130.000 289.635,130.150 292.500,127.000" stroke-width="3.815" stroke="black" fill="none" stroke-linecap="round"></path><path d="M 292.500,127.000 C 295.124,124.613 295.000,124.500 297.500,122.000" stroke-width="3.924" stroke="black" fill="none" stroke-linecap="round"></path><path d="M 297.500,122.000 C 300.286,119.198 300.124,119.113 302.500,116.000" stroke-width="3.875" stroke="black" fill="none" stroke-linecap="round"></path><path d="M 302.500,116.000 C 304.271,112.344 304.786,112.698 306.500,109.000" stroke-width="3.833" stroke="black" fill="none" stroke-linecap="round"></path><path d="M 306.500,109.000 C 308.791,106.686 308.271,106.344 310.500,104.000" stroke-width="3.960" stroke="black" fill="none" stroke-linecap="round"></path><path d="M 310.500,104.000 C 312.000,101.000 312.291,101.186 313.500,98.000" stroke-width="3.962" stroke="black" fill="none" stroke-linecap="round"></path><path d="M 313.500,98.000 C 315.213,95.088 315.000,95.000 316.500,92.000" stroke-width="4.012" stroke="black" fill="none" stroke-linecap="round"></path><path d="M 316.500,92.000 C 317.735,89.058 317.713,89.088 318.500,86.000" stroke-width="4.026" stroke="black" fill="none" stroke-linecap="round"></path><path d="M 318.500,86.000 C 319.000,83.000 319.235,83.058 319.500,80.000" stroke-width="4.060" stroke="black" fill="none" stroke-linecap="round"></path><path d="M 319.500,80.000 C 320.248,77.021 320.000,77.000 320.500,74.000" stroke-width="4.071" stroke="black" fill="none" stroke-linecap="round"></path><path d="M 320.500,74.000 C 320.500,71.000 320.748,71.021 320.500,68.000" stroke-width="4.131" stroke="black" fill="none" stroke-linecap="round"></path><path d="M 320.500,68.000 C 321.398,62.788 320.500,63.000 320.500,58.000" stroke-width="4.280" stroke="black" fill="none" stroke-linecap="round"></path><path d="M 320.500,58.000 C 319.291,54.814 319.898,54.788 317.500,52.000" stroke-width="4.053" stroke="black" fill="none" stroke-linecap="round"></path><path d="M 317.500,52.000 C 315.852,49.116 315.791,49.314 313.500,47.000" stroke-width="4.076" stroke="black" fill="none" stroke-linecap="round"></path><path d="M 313.500,47.000 C 310.500,45.000 310.852,44.616 307.500,43.000" stroke-width="4.218" stroke="black" fill="none" stroke-linecap="round"></path><path d="M 307.500,43.000 C 304.661,40.702 304.500,41.000 301.500,39.000" stroke-width="3.974" stroke="black" fill="none" stroke-linecap="round"></path><path d="M 301.500,39.000 C 298.085,37.265 298.161,37.202 294.500,36.000" stroke-width="3.858" stroke="black" fill="none" stroke-linecap="round"></path><path d="M 294.500,36.000 C 289.595,34.019 289.585,34.265 284.500,33.000" stroke-width="3.589" stroke="black" fill="none" stroke-linecap="round"></path><path d="M 284.500,33.000 C 279.513,32.239 279.595,32.019 274.500,32.000" stroke-width="3.494" stroke="black" fill="none" stroke-linecap="round"></path><path d="M 274.500,32.000 C 268.955,31.504 269.013,31.739 263.500,32.000" stroke-width="3.380" stroke="black" fill="none" stroke-linecap="round"></path><path d="M 263.500,32.000 C 257.222,31.425 257.955,32.504 252.500,34.000" stroke-width="3.332" stroke="black" fill="none" stroke-linecap="round"></path><path d="M 252.500,34.000 C 247.039,39.044 246.222,37.425 241.500,44.000" stroke-width="3.093" stroke="black" fill="none" stroke-linecap="round"></path><path d="M 241.500,44.000 C 237.119,47.140 237.539,47.544 233.500,51.000" stroke-width="3.342" stroke="black" fill="none" stroke-linecap="round"></path><path d="M 233.500,51.000 C 229.582,55.237 229.619,55.140 226.500,60.000" stroke-width="3.301" stroke="black" fill="none" stroke-linecap="round"></path><path d="M 226.500,60.000 C 224.500,64.000 224.082,63.737 222.500,68.000" stroke-width="3.510" stroke="black" fill="none" stroke-linecap="round"></path><path d="M 222.500,68.000 C 220.715,72.125 220.500,72.000 218.500,76.000" stroke-width="3.578" stroke="black" fill="none" stroke-linecap="round"></path><path d="M 218.500,76.000 C 216.435,78.959 216.715,79.125 214.500,82.000" stroke-width="3.783" stroke="black" fill="none" stroke-linecap="round"></path></svg>