<svg xmlns="http://www.w3.org/2000/svg" xmlns:xlink="http://www.w3.org/1999/xlink" viewBox="0 0 453 236" width="453" height="236"><path d="M 120.500,159.000 C 117.579,157.319 117.500,157.500 114.500,156.000" stroke-width="4.864" stroke="black" fill="none" stroke-linecap="round"></path><path d="M 114.500,156.000 C 110.522,154.437 110.579,154.319 106.500,153.000" stroke-width="4.841" stroke="black" fill="none" stroke-linecap="round"></path><path d="M 106.500,153.000 C 103.471,152.080 103.522,151.937 100.500,151.000" stroke-width="4.801" stroke="black" fill="none" stroke-linecap="round"></path><path d="M 100.500,151.000 C 97.901,150.200 97.971,150.080 95.500,149.000" stroke-width="4.839" stroke="black" fill="none" stroke-linecap="round"></path><path d="M 95.500,149.000 C 89.725,146.969 92.901,147.700 90.500,146.000" stroke-width="5.159" stroke="black" fill="none" stroke-linecap="round"></path><path d="M 90.500,146.000 C 95.052,145.186 91.725,144.469 99.500,144.000" stroke-width="5.197" stroke="black" fill="none" stroke-linecap="round"></path><path d="M 99.500,144.000 C 102.462,142.868 102.552,143.186 105.500,142.000" stroke-width="4.377" stroke="black" fill="none" stroke-linecap="round"></path><path d="M 105.500,142.000 C 109.626,141.367 109.462,140.868 113.500,140.000" stroke-width="3.889" stroke="black" fill="none" stroke-linecap="round"></path><path d="M 113.500,140.000 C 118.170,138.309 118.126,138.367 122.500,136.000" stroke-width="3.758" stroke="black" fill="none" stroke-linecap="round"></path><path d="M 122.500,136.000 C 125.500,134.000 125.670,134.309 128.500,132.000" stroke-width="3.890" stroke="black" fill="none" stroke-linecap="round"></path><path d="M 128.500,132.000 C 133.119,129.164 133.000,129.000 137.500,126.000" stroke-width="3.500" stroke="black" fill="none" stroke-linecap="round"></path><path d="M 137.500,126.000 C 142.218,122.747 142.119,122.664 146.500,119.000" stroke-width="3.346" stroke="black" fill="none" stroke-linecap="round"></path><path d="M 146.500,119.000 C 149.891,115.384 150.218,115.747 153.500,112.000" stroke-width="3.435" stroke="black" fill="none" stroke-linecap="round"></path><path d="M 153.500,112.000 C 157.985,107.983 157.891,107.884 162.500,104.000" stroke-width="3.334" stroke="black" fill="none" stroke-linecap="round"></path><path d="M 162.500,104.000 C 166.378,100.349 166.485,100.483 170.500,97.000" stroke-width="3.422" stroke="black" fill="none" stroke-linecap="round"></path><path d="M 170.500,97.000 C 174.692,94.222 174.378,93.849 178.500,91.000" stroke-width="3.505" stroke="black" fill="none" stroke-linecap="round"></path><path d="M 178.500,91.000 C 180.696,88.103 181.192,88.722 183.500,86.000" stroke-width="3.773" stroke="black" fill="none" stroke-linecap="round"></path><path d="M 183.500,86.000 C 187.018,84.031 186.696,83.603 190.500,82.000" stroke-width="3.750" stroke="black" fill="none" stroke-linecap="round"></path><path d="M 190.500,82.000 C 193.149,80.710 193.018,80.531 195.500,79.000" stroke-width="4.047" stroke="black" fill="none" stroke-linecap="round"></path><path d="M 195.500,79.000 C 201.274,73.321 198.649,76.710 201.500,74.000" stroke-width="4.385" stroke="black" fill="none" stroke-linecap="round"></path><path d="M 201.500,74.000 C 199.321,78.238 201.774,74.821 196.500,82.000" stroke-width="4.831" stroke="black" fill="none" stroke-linecap="round"></path><path d="M 196.500,82.000 C 192.758,85.811 193.321,86.238 189.500,90.000" stroke-width="3.714" stroke="black" fill="none" stroke-linecap="round"></path><path d="M 189.500,90.000 C 186.276,95.218 185.758,94.811 182.500,100.000" stroke-width="3.395" stroke="black" fill="none" stroke-linecap="round"></path><path d="M 182.500,100.000 C 178.418,104.429 178.776,104.718 174.500,109.000" stroke-width="3.263" stroke="black" fill="none" stroke-linecap="round"></path><path d="M 174.500,109.000 C 169.311,114.853 169.418,114.929 164.500,121.000" stroke-width="3.189" stroke="black" fill="none" stroke-linecap="round"></path><path d="M 164.500,121.000 C 160.912,126.852 160.311,126.353 156.500,132.000" stroke-width="3.144" stroke="black" fill="none" stroke-linecap="round"></path><path d="M 156.500,132.000 C 151.500,137.000 151.912,137.352 146.500,142.000" stroke-width="3.032" stroke="black" fill="none" stroke-linecap="round"></path><path d="M 146.500,142.000 C 142.500,146.000 142.500,146.000 138.500,150.000" stroke-width="3.211" stroke="black" fill="none" stroke-linecap="round"></path><path d="M 138.500,150.000 C 134.625,154.133 134.500,154.000 130.500,158.000" stroke-width="3.269" stroke="black" fill="none" stroke-linecap="round"></path><path d="M 130.500,158.000 C 126.622,161.651 126.625,161.633 122.500,165.000" stroke-width="3.346" stroke="black" fill="none" stroke-linecap="round"></path><path d="M 122.500,165.000 C 118.287,167.754 118.622,168.151 114.500,171.000" stroke-width="3.481" stroke="black" fill="none" stroke-linecap="round"></path><path d="M 114.500,171.000 C 111.815,174.396 111.287,173.754 108.500,177.000" stroke-width="3.615" stroke="black" fill="none" stroke-linecap="round"></path><path d="M 108.500,177.000 C 104.544,179.574 104.815,179.896 100.500,182.000" stroke-width="3.617" stroke="black" fill="none" stroke-linecap="round"></path><path d="M 100.500,182.000 C 97.000,184.000 97.044,184.074 93.500,186.000" stroke-width="3.702" stroke="black" fill="none" stroke-linecap="round"></path><path d="M 93.500,186.000 C 90.056,188.104 90.000,188.000 86.500,190.000" stroke-width="3.781" stroke="black" fill="none" stroke-linecap="round"></path><path d="M 86.500,190.000 C 82.375,191.785 82.556,192.104 78.500,194.000" stroke-width="3.658" stroke="black" fill="none" stroke-linecap="round"></path><path d="M 78.500,194.000 C 75.735,196.507 75.375,195.785 72.500,198.000" stroke-width="3.809" stroke="black" fill="none" stroke-linecap="round"></path><path d="M 72.500,198.000 C 69.000,199.000 69.235,199.507 65.500,200.000" stroke-width="3.899" stroke="black" fill="none" stroke-linecap="round"></path><path d="M 65.500,200.000 C 62.051,201.239 62.000,201.000 58.500,202.000" stroke-width="3.973" stroke="black" fill="none" stroke-linecap="round"></path><path d="M 58.500,202.000 C 55.004,202.533 55.051,202.739 51.500,203.000" stroke-width="3.922" stroke="black" fill="none" stroke-linecap="round"></path><path d="M 51.500,203.000 C 47.482,203.387 47.504,203.533 43.500,204.000" stroke-width="3.793" stroke="black" fill="none" stroke-linecap="round"></path><path d="M 43.500,204.000 C 41.027,204.770 40.982,204.387 38.500,205.000" stroke-width="4.112" stroke="black" fill="none" stroke-linecap="round"></path><path d="M 38.500,205.000 C 35.473,204.730 35.527,205.270 32.500,205.000" stroke-width="4.376" stroke="black" fill="none" stroke-linecap="round"></path><path d="M 32.500,205.000 C 30.029,205.789 29.973,205.230 27.500,206.000" stroke-width="4.342" stroke="black" fill="none" stroke-linecap="round"></path><path d="M 27.500,206.000 C 22.133,207.867 24.029,206.289 20.500,206.000" stroke-width="4.563" stroke="black" fill="none" stroke-linecap="round"></path><path d="M 20.500,206.000 C 19.111,201.333 18.633,203.867 20.500,198.000" stroke-width="4.823" stroke="black" fill="none" stroke-linecap="round"></path><path d="M 20.500,198.000 C 22.913,195.881 21.611,195.333 25.500,194.000" stroke-width="4.229" stroke="black" fill="none" stroke-linecap="round"></path><path d="M 25.500,194.000 C 28.351,191.717 28.413,191.881 31.500,190.000" stroke-width="4.030" stroke="black" fill="none" stroke-linecap="round"></path><path d="M 31.500,190.000 C 33.948,188.851 33.851,188.717 36.500,188.000" stroke-width="4.196" stroke="black" fill="none" stroke-linecap="round"></path><path d="M 36.500,188.000 C 41.422,186.129 41.448,186.351 46.500,185.000" stroke-width="3.672" stroke="black" fill="none" stroke-linecap="round"></path><path d="M 46.500,185.000 C 50.494,184.445 50.422,184.129 54.500,184.000" stroke-width="3.719" stroke="black" fill="none" stroke-linecap="round"></path><path d="M 54.500,184.000 C 59.500,183.500 59.494,183.445 64.500,183.000" stroke-width="3.588" stroke="black" fill="none" stroke-linecap="round"></path><path d="M 64.500,183.000 C 69.537,182.745 69.500,182.500 74.500,182.000" stroke-width="3.696" stroke="black" fill="none" stroke-linecap="round"></path><path d="M 74.500,182.000 C 79.578,181.295 79.537,181.245 84.500,180.000" stroke-width="3.568" stroke="black" fill="none" stroke-linecap="round"></path><path d="M 84.500,180.000 C 89.084,178.717 89.078,178.795 93.500,177.000" stroke-width="3.542" stroke="black" fill="none" stroke-linecap="round"></path><path d="M 93.500,177.000 C 98.045,175.096 98.084,175.217 102.500,173.000" stroke-width="3.500" stroke="black" fill="none" stroke-linecap="round"></path><path d="M 102.500,173.000 C 106.455,170.904 106.545,171.096 110.500,169.000" stroke-width="3.575" stroke="black" fill="none" stroke-linecap="round"></path><path d="M 110.500,169.000 C 115.170,167.309 114.955,166.904 119.500,165.000" stroke-width="3.566" stroke="black" fill="none" stroke-linecap="round"></path><path d="M 119.500,165.000 C 122.339,162.702 122.670,163.309 125.500,161.000" stroke-width="3.778" stroke="black" fill="none" stroke-linecap="round"></path><path d="M 125.500,161.000 C 129.102,159.699 128.839,159.202 132.500,158.000" stroke-width="3.852" stroke="black" fill="none" stroke-linecap="round"></path><path d="M 132.500,158.000 C 134.862,156.199 135.102,156.699 137.500,155.000" stroke-width="4.038" stroke="black" fill="none" stroke-linecap="round"></path><path d="M 137.500,155.000 C 140.478,153.930 140.362,153.699 143.500,153.000" stroke-width="4.081" stroke="black" fill="none" stroke-linecap="round"></path><path d="M 143.500,153.000 C 150.228,151.817 146.978,151.930 150.500,151.000" stroke-width="4.452" stroke="black" fill="none" stroke-linecap="round"></path><path d="M 150.500,151.000 C 147.492,150.000 150.728,150.317 144.500,150.000" stroke-width="5.067" stroke="black" fill="none" stroke-linecap="round"></path><path d="M 144.500,150.000 C 141.695,149.818 141.992,150.000 139.500,151.000" stroke-width="4.478" stroke="black" fill="none" stroke-linecap="round"></path><path d="M 139.500,151.000 C 135.332,153.807 135.195,153.318 131.500,157.000" stroke-width="4.385" stroke="black" fill="none" stroke-linecap="round"></path><path d="M 131.500,157.000 C 129.101,158.713 129.332,158.807 127.500,161.000" stroke-width="4.269" stroke="black" fill="none" stroke-linecap="round"></path><path d="M 127.500,161.000 C 125.636,163.875 125.601,163.713 124.500,167.000" stroke-width="4.545" stroke="black" fill="none" stroke-linecap="round"></path><path d="M 124.500,167.000 C 122.192,170.505 123.636,169.375 123.500,172.000" stroke-width="4.769" stroke="black" fill="none" stroke-linecap="round"></path><path d="M 123.500,172.000 C 127.353,174.309 125.692,174.505 131.500,175.000" stroke-width="4.794" stroke="black" fill="none" stroke-linecap="round"></path><path d="M 131.500,175.000 C 136.928,176.219 136.353,175.809 141.500,175.000" stroke-width="4.493" stroke="black" fill="none" stroke-linecap="round"></path><path d="M 141.500,175.000 C 144.000,173.000 144.428,174.219 146.500,171.000" stroke-width="4.149" stroke="black" fill="none" stroke-linecap="round"></path><path d="M 146.500,171.000 C 149.353,169.342 149.000,169.000 151.500,167.000" stroke-width="4.056" stroke="black" fill="none" stroke-linecap="round"></path><path d="M 151.500,167.000 C 154.900,163.225 154.853,163.342 157.500,159.000" stroke-width="4.235" stroke="black" fill="none" stroke-linecap="round"></path><path d="M 157.500,159.000 C 160.446,155.182 158.900,156.725 159.500,154.000" stroke-width="4.786" stroke="black" fill="none" stroke-linecap="round"></path><path d="M 159.500,154.000 C 156.364,153.339 158.446,152.682 153.500,154.000" stroke-width="4.917" stroke="black" fill="none" stroke-linecap="round"></path><path d="M 153.500,154.000 C 149.189,154.503 149.864,154.839 146.500,157.000" stroke-width="4.688" stroke="black" fill="none" stroke-linecap="round"></path><path d="M 146.500,157.000 C 141.847,161.636 142.189,161.003 139.500,167.000" stroke-width="4.570" stroke="black" fill="none" stroke-linecap="round"></path><path d="M 139.500,167.000 C 138.000,171.500 138.347,169.636 139.500,173.000" stroke-width="4.877" stroke="black" fill="none" stroke-linecap="round"></path><path d="M 139.500,173.000 C 142.521,173.248 141.000,174.500 145.500,173.000" stroke-width="4.985" stroke="black" fill="none" stroke-linecap="round"></path><path d="M 145.500,173.000 C 148.756,173.176 148.521,172.748 151.500,172.000" stroke-width="4.364" stroke="black" fill="none" stroke-linecap="round"></path><path d="M 151.500,172.000 C 155.436,169.391 155.756,170.176 159.500,167.000" stroke-width="3.813" stroke="black" fill="none" stroke-linecap="round"></path><path d="M 159.500,167.000 C 164.352,164.996 163.936,164.391 168.500,162.000" stroke-width="3.531" stroke="black" fill="none" stroke-linecap="round"></path><path d="M 168.500,162.000 C 172.782,157.724 173.352,158.496 177.500,154.000" stroke-width="3.300" stroke="black" fill="none" stroke-linecap="round"></path><path d="M 177.500,154.000 C 182.766,150.832 182.282,150.224 187.500,147.000" stroke-width="3.223" stroke="black" fill="none" stroke-linecap="round"></path><path d="M 187.500,147.000 C 193.113,142.118 193.266,142.332 198.500,137.000" stroke-width="3.122" stroke="black" fill="none" stroke-linecap="round"></path><path d="M 198.500,137.000 C 203.141,132.632 203.113,132.618 207.500,128.000" stroke-width="3.188" stroke="black" fill="none" stroke-linecap="round"></path><path d="M 207.500,128.000 C 211.242,124.189 211.141,124.132 214.500,120.000" stroke-width="3.374" stroke="black" fill="none" stroke-linecap="round"></path><path d="M 214.500,120.000 C 218.000,115.000 218.242,115.189 221.500,110.000" stroke-width="3.244" stroke="black" fill="none" stroke-linecap="round"></path><path d="M 221.500,110.000 C 224.881,104.912 225.000,105.000 228.500,100.000" stroke-width="3.206" stroke="black" fill="none" stroke-linecap="round"></path><path d="M 228.500,100.000 C 231.906,95.423 231.881,95.412 235.500,91.000" stroke-width="3.261" stroke="black" fill="none" stroke-linecap="round"></path><path d="M 235.500,91.000 C 238.655,87.621 238.406,87.423 241.500,84.000" stroke-width="3.522" stroke="black" fill="none" stroke-linecap="round"></path><path d="M 241.500,84.000 C 244.052,80.536 244.155,80.621 246.500,77.000" stroke-width="3.716" stroke="black" fill="none" stroke-linecap="round"></path><path d="M 246.500,77.000 C 248.448,73.964 248.552,74.036 250.500,71.000" stroke-width="3.828" stroke="black" fill="none" stroke-linecap="round"></path><path d="M 250.500,71.000 C 256.049,65.647 252.948,67.464 255.500,64.000" stroke-width="4.251" stroke="black" fill="none" stroke-linecap="round"></path><path d="M 255.500,64.000 C 251.437,63.212 255.049,62.647 248.500,65.000" stroke-width="4.795" stroke="black" fill="none" stroke-linecap="round"></path><path d="M 248.500,65.000 C 240.248,71.221 239.937,70.212 232.500,78.000" stroke-width="3.842" stroke="black" fill="none" stroke-linecap="round"></path><path d="M 232.500,78.000 C 228.600,82.105 228.248,81.721 224.500,86.000" stroke-width="3.504" stroke="black" fill="none" stroke-linecap="round"></path><path d="M 224.500,86.000 C 218.481,91.479 218.600,91.605 212.500,97.000" stroke-width="2.970" stroke="black" fill="none" stroke-linecap="round"></path><path d="M 212.500,97.000 C 205.519,103.521 205.481,103.479 198.500,110.000" stroke-width="2.797" stroke="black" fill="none" stroke-linecap="round"></path><path d="M 198.500,110.000 C 192.248,115.252 192.519,115.521 186.500,121.000" stroke-width="2.850" stroke="black" fill="none" stroke-linecap="round"></path><path d="M 186.500,121.000 C 182.352,125.377 182.248,125.252 178.500,130.000" stroke-width="3.146" stroke="black" fill="none" stroke-linecap="round"></path><path d="M 178.500,130.000 C 174.869,134.406 174.852,134.377 171.500,139.000" stroke-width="3.242" stroke="black" fill="none" stroke-linecap="round"></path><path d="M 171.500,139.000 C 169.285,141.875 169.369,141.906 167.500,145.000" stroke-width="3.707" stroke="black" fill="none" stroke-linecap="round"></path><path d="M 167.500,145.000 C 165.373,148.943 165.285,148.875 163.500,153.000" stroke-width="3.637" stroke="black" fill="none" stroke-linecap="round"></path><path d="M 163.500,153.000 C 162.270,155.432 162.373,155.443 161.500,158.000" stroke-width="4.059" stroke="black" fill="none" stroke-linecap="round"></path><path d="M 161.500,158.000 C 160.730,160.473 160.770,160.432 160.500,163.000" stroke-width="4.202" stroke="black" fill="none" stroke-linecap="round"></path><path d="M 160.500,163.000 C 158.786,167.714 160.230,165.973 160.500,169.000" stroke-width="4.562" stroke="black" fill="none" stroke-linecap="round"></path><path d="M 160.500,169.000 C 164.890,170.111 162.786,170.714 168.500,169.000" stroke-width="5.001" stroke="black" fill="none" stroke-linecap="round"></path><path d="M 168.500,169.000 C 171.143,167.160 171.390,168.111 173.500,165.000" stroke-width="4.323" stroke="black" fill="none" stroke-linecap="round"></path><path d="M 173.500,165.000 C 176.769,161.234 177.143,161.660 180.500,158.000" stroke-width="3.692" stroke="black" fill="none" stroke-linecap="round"></path><path d="M 180.500,158.000 C 184.432,154.906 184.269,154.734 188.500,152.000" stroke-width="3.586" stroke="black" fill="none" stroke-linecap="round"></path><path d="M 188.500,152.000 C 194.683,146.895 194.932,147.406 201.500,143.000" stroke-width="3.760" stroke="black" fill="none" stroke-linecap="round"></path><path d="M 201.500,143.000 C 207.973,138.728 205.183,140.895 209.500,140.000" stroke-width="4.229" stroke="black" fill="none" stroke-linecap="round"></path><path d="M 209.500,140.000 C 209.100,144.266 210.973,141.228 207.500,148.000" stroke-width="4.604" stroke="black" fill="none" stroke-linecap="round"></path><path d="M 207.500,148.000 C 205.450,150.967 206.100,151.266 203.500,154.000" stroke-width="4.176" stroke="black" fill="none" stroke-linecap="round"></path><path d="M 203.500,154.000 C 197.299,159.597 200.950,157.967 198.500,162.000" stroke-width="4.292" stroke="black" fill="none" stroke-linecap="round"></path><path d="M 198.500,162.000 C 203.956,165.010 199.799,164.597 208.500,164.000" stroke-width="4.701" stroke="black" fill="none" stroke-linecap="round"></path><path d="M 208.500,164.000 C 212.468,160.957 212.956,163.010 216.500,158.000" stroke-width="3.759" stroke="black" fill="none" stroke-linecap="round"></path><path d="M 216.500,158.000 C 219.924,155.384 219.968,155.457 223.500,153.000" stroke-width="3.742" stroke="black" fill="none" stroke-linecap="round"></path><path d="M 223.500,153.000 C 225.942,151.395 225.924,151.384 228.500,150.000" stroke-width="4.044" stroke="black" fill="none" stroke-linecap="round"></path><path d="M 228.500,150.000 C 234.693,146.033 231.442,148.395 234.500,147.000" stroke-width="4.508" stroke="black" fill="none" stroke-linecap="round"></path><path d="M 234.500,147.000 C 230.729,150.802 234.193,148.533 227.500,155.000" stroke-width="4.563" stroke="black" fill="none" stroke-linecap="round"></path><path d="M 227.500,155.000 C 226.000,157.500 225.729,157.302 224.500,160.000" stroke-width="4.246" stroke="black" fill="none" stroke-linecap="round"></path><path d="M 224.500,160.000 C 220.170,164.834 223.000,162.500 221.500,165.000" stroke-width="4.606" stroke="black" fill="none" stroke-linecap="round"></path><path d="M 221.500,165.000 C 227.240,163.475 224.170,165.334 232.500,161.000" stroke-width="4.584" stroke="black" fill="none" stroke-linecap="round"></path><path d="M 232.500,161.000 C 237.671,156.724 235.740,159.475 238.500,157.000" stroke-width="4.607" stroke="black" fill="none" stroke-linecap="round"></path><path d="M 238.500,157.000 C 237.157,159.606 239.171,157.224 235.500,162.000" stroke-width="4.893" stroke="black" fill="none" stroke-linecap="round"></path><path d="M 235.500,162.000 C 232.055,165.742 232.657,166.106 229.500,170.000" stroke-width="3.862" stroke="black" fill="none" stroke-linecap="round"></path><path d="M 229.500,170.000 C 227.472,173.357 227.555,173.242 226.500,177.000" stroke-width="3.878" stroke="black" fill="none" stroke-linecap="round"></path><path d="M 226.500,177.000 C 223.290,183.393 225.472,180.857 225.500,185.000" stroke-width="4.339" stroke="black" fill="none" stroke-linecap="round"></path><path d="M 225.500,185.000 C 231.967,186.456 228.790,187.393 237.500,185.000" stroke-width="4.487" stroke="black" fill="none" stroke-linecap="round"></path><path d="M 237.500,185.000 C 240.956,182.436 241.467,183.956 244.500,180.000" stroke-width="3.873" stroke="black" fill="none" stroke-linecap="round"></path><path d="M 244.500,180.000 C 249.181,177.239 248.956,176.936 253.500,174.000" stroke-width="3.614" stroke="black" fill="none" stroke-linecap="round"></path><path d="M 253.500,174.000 C 257.016,171.019 257.181,171.239 260.500,168.000" stroke-width="3.582" stroke="black" fill="none" stroke-linecap="round"></path><path d="M 260.500,168.000 C 264.399,164.377 264.516,164.519 268.500,161.000" stroke-width="3.438" stroke="black" fill="none" stroke-linecap="round"></path><path d="M 268.500,161.000 C 273.142,157.670 272.899,157.377 277.500,154.000" stroke-width="3.329" stroke="black" fill="none" stroke-linecap="round"></path><path d="M 277.500,154.000 C 282.500,149.500 282.642,149.670 287.500,145.000" stroke-width="3.133" stroke="black" fill="none" stroke-linecap="round"></path><path d="M 287.500,145.000 C 292.512,140.513 292.500,140.500 297.500,136.000" stroke-width="3.138" stroke="black" fill="none" stroke-linecap="round"></path><path d="M 297.500,136.000 C 303.251,131.249 303.012,131.013 308.500,126.000" stroke-width="3.041" stroke="black" fill="none" stroke-linecap="round"></path><path d="M 308.500,126.000 C 313.015,121.013 313.251,121.249 317.500,116.000" stroke-width="3.110" stroke="black" fill="none" stroke-linecap="round"></path><path d="M 317.500,116.000 C 321.648,111.623 321.515,111.513 325.500,107.000" stroke-width="3.236" stroke="black" fill="none" stroke-linecap="round"></path><path d="M 325.500,107.000 C 329.347,102.729 329.148,102.623 332.500,98.000" stroke-width="3.270" stroke="black" fill="none" stroke-linecap="round"></path><path d="M 332.500,98.000 C 335.078,93.541 335.347,93.729 337.500,89.000" stroke-width="3.375" stroke="black" fill="none" stroke-linecap="round"></path><path d="M 337.500,89.000 C 339.113,86.051 339.078,86.041 340.500,83.000" stroke-width="3.810" stroke="black" fill="none" stroke-linecap="round"></path><path d="M 340.500,83.000 C 342.027,80.601 341.613,80.551 342.500,78.000" stroke-width="4.122" stroke="black" fill="none" stroke-linecap="round"></path><path d="M 342.500,78.000 C 344.148,71.835 343.027,75.101 342.500,72.000" stroke-width="4.534" stroke="black" fill="none" stroke-linecap="round"></path><path d="M 342.500,72.000 C 337.219,75.166 339.148,72.335 332.500,79.000" stroke-width="4.673" stroke="black" fill="none" stroke-linecap="round"></path><path d="M 332.500,79.000 C 329.138,81.703 329.219,81.666 326.500,85.000" stroke-width="4.095" stroke="black" fill="none" stroke-linecap="round"></path><path d="M 326.500,85.000 C 323.778,89.713 323.138,89.203 320.500,94.000" stroke-width="3.612" stroke="black" fill="none" stroke-linecap="round"></path><path d="M 320.500,94.000 C 316.758,97.811 317.278,98.213 313.500,102.000" stroke-width="3.446" stroke="black" fill="none" stroke-linecap="round"></path><path d="M 313.500,102.000 C 309.946,106.963 309.758,106.811 306.500,112.000" stroke-width="3.263" stroke="black" fill="none" stroke-linecap="round"></path><path d="M 306.500,112.000 C 303.664,116.619 303.446,116.463 300.500,121.000" stroke-width="3.435" stroke="black" fill="none" stroke-linecap="round"></path><path d="M 300.500,121.000 C 296.963,125.472 297.164,125.619 293.500,130.000" stroke-width="3.387" stroke="black" fill="none" stroke-linecap="round"></path><path d="M 293.500,130.000 C 290.405,133.933 290.463,133.972 287.500,138.000" stroke-width="3.439" stroke="black" fill="none" stroke-linecap="round"></path><path d="M 287.500,138.000 C 285.660,141.120 285.405,140.933 283.500,144.000" stroke-width="3.824" stroke="black" fill="none" stroke-linecap="round"></path><path d="M 283.500,144.000 C 280.973,146.978 281.160,147.120 278.500,150.000" stroke-width="3.793" stroke="black" fill="none" stroke-linecap="round"></path><path d="M 278.500,150.000 C 276.624,152.611 276.473,152.478 274.500,155.000" stroke-width="3.993" stroke="black" fill="none" stroke-linecap="round"></path><path d="M 274.500,155.000 C 272.037,156.695 272.624,157.111 270.500,159.000" stroke-width="4.106" stroke="black" fill="none" stroke-linecap="round"></path><path d="M 270.500,159.000 C 267.780,162.079 269.037,161.195 268.500,164.000" stroke-width="4.604" stroke="black" fill="none" stroke-linecap="round"></path><path d="M 268.500,164.000 C 270.748,166.410 269.280,166.079 273.500,167.000" stroke-width="4.981" stroke="black" fill="none" stroke-linecap="round"></path><path d="M 273.500,167.000 C 278.000,167.000 277.748,167.910 282.500,167.000" stroke-width="4.574" stroke="black" fill="none" stroke-linecap="round"></path><path d="M 282.500,167.000 C 287.599,166.387 287.500,167.000 292.500,167.000" stroke-width="4.433" stroke="black" fill="none" stroke-linecap="round"></path><path d="M 292.500,167.000 C 297.076,166.864 295.599,167.387 298.500,169.000" stroke-width="4.645" stroke="black" fill="none" stroke-linecap="round"></path><path d="M 298.500,169.000 C 300.147,173.324 300.076,171.364 298.500,176.000" stroke-width="4.659" stroke="black" fill="none" stroke-linecap="round"></path><path d="M 298.500,176.000 C 294.818,179.533 296.147,179.824 290.500,182.000" stroke-width="3.751" stroke="black" fill="none" stroke-linecap="round"></path><path d="M 290.500,182.000 C 284.078,185.181 284.318,185.533 277.500,188.000" stroke-width="3.167" stroke="black" fill="none" stroke-linecap="round"></path><path d="M 277.500,188.000 C 270.062,191.164 270.078,191.181 262.500,194.000" stroke-width="2.900" stroke="black" fill="none" stroke-linecap="round"></path><path d="M 262.500,194.000 C 254.180,197.654 254.062,197.164 245.500,200.000" stroke-width="2.837" stroke="black" fill="none" stroke-linecap="round"></path><path d="M 245.500,200.000 C 235.577,202.525 235.680,202.654 225.500,204.000" stroke-width="2.572" stroke="black" fill="none" stroke-linecap="round"></path><path d="M 225.500,204.000 C 215.024,205.499 215.077,205.525 204.500,206.000" stroke-width="2.468" stroke="black" fill="none" stroke-linecap="round"></path><path d="M 204.500,206.000 C 193.927,207.009 194.024,206.499 183.500,206.000" stroke-width="2.443" stroke="black" fill="none" stroke-linecap="round"></path><path d="M 183.500,206.000 C 162.833,203.791 162.927,204.009 142.500,200.000" stroke-width="2.507" stroke="black" fill="none" stroke-linecap="round"></path><path d="M 142.500,200.000 C 132.946,198.801 133.333,198.291 124.500,195.000" stroke-width="2.568" stroke="black" fill="none" stroke-linecap="round"></path><path d="M 124.500,195.000 C 112.313,189.782 112.946,189.801 102.500,182.000" stroke-width="3.011" stroke="black" fill="none" stroke-linecap="round"></path><path d="M 102.500,182.000 C 97.585,177.559 97.813,178.282 95.500,172.000" stroke-width="3.135" stroke="black" fill="none" stroke-linecap="round"></path><path d="M 95.500,172.000 C 94.003,165.035 93.085,165.559 93.500,158.000" stroke-width="3.029" stroke="black" fill="none" stroke-linecap="round"></path><path d="M 93.500,158.000 C 91.641,150.506 93.003,151.035 93.500,144.000" stroke-width="3.122" stroke="black" fill="none" stroke-linecap="round"></path><path d="M 93.500,144.000 C 96.507,136.241 95.641,136.506 101.500,130.000" stroke-width="2.954" stroke="black" fill="none" stroke-linecap="round"></path><path d="M 101.500,130.000 C 108.655,120.933 108.507,121.241 117.500,114.000" stroke-width="2.615" stroke="black" fill="none" stroke-linecap="round"></path><path d="M 117.500,114.000 C 127.490,106.505 127.155,106.433 138.500,101.000" stroke-width="2.319" stroke="black" fill="none" stroke-linecap="round"></path><path d="M 138.500,101.000 C 152.597,93.706 152.490,94.005 167.500,89.000" stroke-width="2.008" stroke="black" fill="none" stroke-linecap="round"></path><path d="M 167.500,89.000 C 181.357,84.985 181.097,84.706 195.500,83.000" stroke-width="2.014" stroke="black" fill="none" stroke-linecap="round"></path><path d="M 195.500,83.000 C 209.983,81.509 209.857,80.985 224.500,81.000" stroke-width="2.002" stroke="black" fill="none" stroke-linecap="round"></path><path d="M 224.500,81.000 C 238.610,79.760 238.483,80.509 252.500,81.000" stroke-width="2.087" stroke="black" fill="none" stroke-linecap="round"></path><path d="M 252.500,81.000 C 266.681,82.748 266.610,82.260 280.500,86.000" stroke-width="2.151" stroke="black" fill="none" stroke-linecap="round"></path><path d="M 280.500,86.000 C 292.318,88.680 292.181,88.748 303.500,93.000" stroke-width="2.218" stroke="black" fill="none" stroke-linecap="round"></path><path d="M 303.500,93.000 C 314.236,97.566 314.318,97.180 324.500,103.000" stroke-width="2.326" stroke="black" fill="none" stroke-linecap="round"></path><path d="M 324.500,103.000 C 331.266,106.636 331.236,106.566 337.500,111.000" stroke-width="2.687" stroke="black" fill="none" stroke-linecap="round"></path><path d="M 337.500,111.000 C 345.769,113.987 341.266,113.636 344.500,117.000" stroke-width="3.294" stroke="black" fill="none" stroke-linecap="round"></path><path d="M 344.500,117.000 C 338.367,126.227 341.769,123.487 329.500,130.000" stroke-width="3.495" stroke="black" fill="none" stroke-linecap="round"></path><path d="M 329.500,130.000 C 313.557,133.789 314.867,136.227 297.500,137.000" stroke-width="2.222" stroke="black" fill="none" stroke-linecap="round"></path><path d="M 297.500,137.000 C 283.575,140.068 283.557,139.789 269.500,142.000" stroke-width="2.138" stroke="black" fill="none" stroke-linecap="round"></path><path d="M 269.500,142.000 C 258.018,143.295 258.075,143.568 246.500,144.000" stroke-width="2.251" stroke="black" fill="none" stroke-linecap="round"></path><path d="M 246.500,144.000 C 233.505,144.745 233.518,144.795 220.500,145.000" stroke-width="2.173" stroke="black" fill="none" stroke-linecap="round"></path><path d="M 220.500,145.000 C 207.916,145.908 208.005,145.245 195.500,145.000" stroke-width="2.245" stroke="black" fill="none" stroke-linecap="round"></path><path d="M 195.500,145.000 C 187.279,144.259 187.416,144.408 179.500,142.000" stroke-width="2.651" stroke="black" fill="none" stroke-linecap="round"></path><path d="M 179.500,142.000 C 171.902,139.218 171.779,139.759 164.500,136.000" stroke-width="2.753" stroke="black" fill="none" stroke-linecap="round"></path><path d="M 164.500,136.000 C 160.130,134.513 160.402,134.218 156.500,132.000" stroke-width="3.300" stroke="black" fill="none" stroke-linecap="round"></path><path d="M 313.500,168.000 C 315.789,165.739 316.000,166.500 318.500,165.000" stroke-width="4.971" stroke="black" fill="none" stroke-linecap="round"></path><path d="M 318.500,165.000 C 321.500,165.000 321.289,164.239 324.500,165.000" stroke-width="4.372" stroke="black" fill="none" stroke-linecap="round"></path><path d="M 324.500,165.000 C 329.500,165.000 329.500,165.000 334.500,165.000" stroke-width="3.756" stroke="black" fill="none" stroke-linecap="round"></path><path d="M 334.500,165.000 C 339.500,165.000 339.500,165.000 344.500,165.000" stroke-width="3.657" stroke="black" fill="none" stroke-linecap="round"></path><path d="M 344.500,165.000 C 353.035,165.529 353.000,165.000 361.500,165.000" stroke-width="2.952" stroke="black" fill="none" stroke-linecap="round"></path><path d="M 361.500,165.000 C 369.072,164.376 369.035,164.529 376.500,163.000" stroke-width="3.024" stroke="black" fill="none" stroke-linecap="round"></path><path d="M 376.500,163.000 C 382.428,161.124 382.572,161.876 388.500,160.000" stroke-width="3.126" stroke="black" fill="none" stroke-linecap="round"></path><path d="M 388.500,160.000 C 395.977,158.654 395.928,158.624 403.500,158.000" stroke-width="3.020" stroke="black" fill="none" stroke-linecap="round"></path><path d="M 403.500,158.000 C 407.500,158.000 407.477,157.654 411.500,158.000" stroke-width="3.496" stroke="black" fill="none" stroke-linecap="round"></path><path d="M 411.500,158.000 C 417.500,156.394 414.500,158.000 417.500,158.000" stroke-width="3.972" stroke="black" fill="none" stroke-linecap="round"></path><path d="M 417.500,158.000 C 411.825,163.102 417.500,160.894 411.500,167.000" stroke-width="4.638" stroke="black" fill="none" stroke-linecap="round"></path><path d="M 411.500,167.000 C 413.895,170.434 411.325,169.102 416.500,170.000" stroke-width="4.943" stroke="black" fill="none" stroke-linecap="round"></path><path d="M 416.500,170.000 C 422.972,166.938 422.895,168.934 429.500,164.000" stroke-width="3.373" stroke="black" fill="none" stroke-linecap="round"></path><path d="M 429.500,164.000 C 437.702,160.828 432.972,162.438 436.500,161.000" stroke-width="3.715" stroke="black" fill="none" stroke-linecap="round"></path><path d="M 436.500,161.000 C 429.425,162.766 434.202,161.328 422.500,165.000" stroke-width="4.328" stroke="black" fill="none" stroke-linecap="round"></path><path d="M 422.500,165.000 C 414.230,169.005 413.925,167.766 405.500,171.000" stroke-width="3.141" stroke="black" fill="none" stroke-linecap="round"></path><path d="M 405.500,171.000 C 396.528,172.498 396.730,173.005 387.500,173.000" stroke-width="2.837" stroke="black" fill="none" stroke-linecap="round"></path><path d="M 387.500,173.000 C 378.372,174.044 378.528,173.498 369.500,173.000" stroke-width="2.701" stroke="black" fill="none" stroke-linecap="round"></path><path d="M 369.500,173.000 C 361.298,171.599 361.372,172.044 353.500,169.000" stroke-width="2.749" stroke="black" fill="none" stroke-linecap="round"></path><path d="M 353.500,169.000 C 346.751,165.175 346.298,166.599 339.500,163.000" stroke-width="2.841" stroke="black" fill="none" stroke-linecap="round"></path><path d="M 339.500,163.000 C 331.575,160.692 331.751,160.675 323.500,160.000" stroke-width="2.863" stroke="black" fill="none" stroke-linecap="round"></path><path d="M 323.500,160.000 C 313.897,159.011 314.075,159.192 304.500,160.000" stroke-width="2.715" stroke="black" fill="none" stroke-linecap="round"></path><path d="M 304.500,160.000 C 294.892,161.585 294.897,161.011 285.500,164.000" stroke-width="2.652" stroke="black" fill="none" stroke-linecap="round"></path><path d="M 285.500,164.000 C 277.336,166.061 277.392,166.085 269.500,169.000" stroke-width="2.776" stroke="black" fill="none" stroke-linecap="round"></path><path d="M 269.500,169.000 C 261.680,173.001 261.336,172.061 253.500,176.000" stroke-width="2.775" stroke="black" fill="none" stroke-linecap="round"></path><path d="M 253.500,176.000 C 246.489,177.962 246.680,178.501 239.500,180.000" stroke-width="2.949" stroke="black" fill="none" stroke-linecap="round"></path><path d="M 239.500,180.000 C 234.422,181.277 234.489,181.462 229.500,183.000" stroke-width="3.305" stroke="black" fill="none" stroke-linecap="round"></path><path d="M 229.500,183.000 C 224.298,184.601 224.422,184.777 219.500,187.000" stroke-width="3.345" stroke="black" fill="none" stroke-linecap="round"></path></svg>