<svg xmlns="http://www.w3.org/2000/svg" xmlns:xlink="http://www.w3.org/1999/xlink" viewBox="0 0 453 236" width="453" height="236"><path d="M 129.500,160.000 C 126.386,159.888 126.500,159.500 123.500,159.000" stroke-width="5.184" stroke="black" fill="none" stroke-linecap="round"></path><path d="M 123.500,159.000 C 119.730,157.974 119.886,157.888 116.500,156.000" stroke-width="4.140" stroke="black" fill="none" stroke-linecap="round"></path><path d="M 116.500,156.000 C 111.151,151.767 110.730,152.474 105.500,148.000" stroke-width="4.029" stroke="black" fill="none" stroke-linecap="round"></path><path d="M 105.500,148.000 C 102.013,145.976 102.151,145.767 98.500,144.000" stroke-width="3.927" stroke="black" fill="none" stroke-linecap="round"></path><path d="M 98.500,144.000 C 93.969,141.554 94.013,141.476 89.500,139.000" stroke-width="4.173" stroke="black" fill="none" stroke-linecap="round"></path><path d="M 89.500,139.000 C 84.260,137.199 86.969,137.554 84.500,136.000" stroke-width="4.607" stroke="black" fill="none" stroke-linecap="round"></path><path d="M 84.500,136.000 C 87.462,134.868 84.760,134.699 90.500,134.000" stroke-width="5.024" stroke="black" fill="none" stroke-linecap="round"></path><path d="M 90.500,134.000 C 94.626,133.367 94.462,132.868 98.500,132.000" stroke-width="4.027" stroke="black" fill="none" stroke-linecap="round"></path><path d="M 98.500,132.000 C 103.009,130.021 103.126,130.367 107.500,128.000" stroke-width="3.690" stroke="black" fill="none" stroke-linecap="round"></path><path d="M 107.500,128.000 C 113.209,125.886 113.009,125.521 118.500,123.000" stroke-width="3.336" stroke="black" fill="none" stroke-linecap="round"></path><path d="M 118.500,123.000 C 123.891,119.315 124.209,119.886 129.500,116.000" stroke-width="3.228" stroke="black" fill="none" stroke-linecap="round"></path><path d="M 129.500,116.000 C 135.264,113.403 134.891,112.815 140.500,110.000" stroke-width="3.235" stroke="black" fill="none" stroke-linecap="round"></path><path d="M 140.500,110.000 C 144.771,106.153 145.264,106.903 149.500,103.000" stroke-width="3.512" stroke="black" fill="none" stroke-linecap="round"></path><path d="M 149.500,103.000 C 154.089,100.646 153.771,100.153 158.500,98.000" stroke-width="3.506" stroke="black" fill="none" stroke-linecap="round"></path><path d="M 158.500,98.000 C 161.351,95.717 161.589,96.146 164.500,94.000" stroke-width="3.805" stroke="black" fill="none" stroke-linecap="round"></path><path d="M 164.500,94.000 C 166.906,92.648 166.851,92.717 169.500,92.000" stroke-width="4.079" stroke="black" fill="none" stroke-linecap="round"></path><path d="M 169.500,92.000 C 175.185,89.246 172.906,91.148 176.500,91.000" stroke-width="4.451" stroke="black" fill="none" stroke-linecap="round"></path><path d="M 176.500,91.000 C 177.204,95.954 178.185,93.246 175.500,100.000" stroke-width="4.684" stroke="black" fill="none" stroke-linecap="round"></path><path d="M 175.500,100.000 C 171.985,104.990 173.204,105.454 168.500,110.000" stroke-width="3.599" stroke="black" fill="none" stroke-linecap="round"></path><path d="M 168.500,110.000 C 164.279,116.712 163.985,116.490 159.500,123.000" stroke-width="3.091" stroke="black" fill="none" stroke-linecap="round"></path><path d="M 159.500,123.000 C 154.642,129.124 154.779,129.212 149.500,135.000" stroke-width="2.977" stroke="black" fill="none" stroke-linecap="round"></path><path d="M 149.500,135.000 C 144.250,141.250 144.142,141.124 138.500,147.000" stroke-width="2.842" stroke="black" fill="none" stroke-linecap="round"></path><path d="M 138.500,147.000 C 132.021,153.023 132.250,153.250 125.500,159.000" stroke-width="2.782" stroke="black" fill="none" stroke-linecap="round"></path><path d="M 125.500,159.000 C 120.124,164.143 120.021,164.023 114.500,169.000" stroke-width="2.984" stroke="black" fill="none" stroke-linecap="round"></path><path d="M 114.500,169.000 C 109.299,173.941 109.124,173.643 103.500,178.000" stroke-width="3.094" stroke="black" fill="none" stroke-linecap="round"></path><path d="M 103.500,178.000 C 99.054,180.603 99.299,180.941 94.500,183.000" stroke-width="3.370" stroke="black" fill="none" stroke-linecap="round"></path><path d="M 94.500,183.000 C 89.446,185.397 89.554,185.603 84.500,188.000" stroke-width="3.386" stroke="black" fill="none" stroke-linecap="round"></path><path d="M 84.500,188.000 C 80.098,190.701 79.946,190.397 75.500,193.000" stroke-width="3.686" stroke="black" fill="none" stroke-linecap="round"></path><path d="M 75.500,193.000 C 71.956,194.405 72.098,194.701 68.500,196.000" stroke-width="3.717" stroke="black" fill="none" stroke-linecap="round"></path><path d="M 68.500,196.000 C 65.647,197.951 65.456,197.405 62.500,199.000" stroke-width="3.933" stroke="black" fill="none" stroke-linecap="round"></path><path d="M 62.500,199.000 C 59.524,199.784 59.647,199.951 56.500,200.000" stroke-width="4.032" stroke="black" fill="none" stroke-linecap="round"></path><path d="M 56.500,200.000 C 50.051,202.216 52.524,200.284 48.500,200.000" stroke-width="4.366" stroke="black" fill="none" stroke-linecap="round"></path><path d="M 48.500,200.000 C 46.637,193.579 46.551,197.216 49.500,190.000" stroke-width="4.594" stroke="black" fill="none" stroke-linecap="round"></path><path d="M 49.500,190.000 C 56.740,184.527 54.637,183.579 64.500,180.000" stroke-width="3.910" stroke="black" fill="none" stroke-linecap="round"></path><path d="M 64.500,180.000 C 69.051,178.108 68.740,177.527 73.500,176.000" stroke-width="3.714" stroke="black" fill="none" stroke-linecap="round"></path><path d="M 73.500,176.000 C 78.312,173.030 78.551,173.608 83.500,171.000" stroke-width="3.484" stroke="black" fill="none" stroke-linecap="round"></path><path d="M 83.500,171.000 C 89.937,168.767 89.812,168.530 96.500,167.000" stroke-width="3.224" stroke="black" fill="none" stroke-linecap="round"></path><path d="M 96.500,167.000 C 102.988,165.447 102.937,165.267 109.500,164.000" stroke-width="3.113" stroke="black" fill="none" stroke-linecap="round"></path><path d="M 109.500,164.000 C 116.512,162.553 116.488,162.447 123.500,161.000" stroke-width="3.227" stroke="black" fill="none" stroke-linecap="round"></path><path d="M 123.500,161.000 C 130.063,159.733 130.012,159.553 136.500,158.000" stroke-width="3.113" stroke="black" fill="none" stroke-linecap="round"></path><path d="M 136.500,158.000 C 143.020,156.062 143.063,156.233 149.500,154.000" stroke-width="3.121" stroke="black" fill="none" stroke-linecap="round"></path><path d="M 149.500,154.000 C 154.062,152.664 154.020,152.562 158.500,151.000" stroke-width="3.397" stroke="black" fill="none" stroke-linecap="round"></path><path d="M 158.500,151.000 C 161.921,149.278 162.062,149.664 165.500,148.000" stroke-width="3.677" stroke="black" fill="none" stroke-linecap="round"></path><path d="M 165.500,148.000 C 172.226,146.548 168.921,146.778 172.500,146.000" stroke-width="4.325" stroke="black" fill="none" stroke-linecap="round"></path><path d="M 172.500,146.000 C 169.437,145.548 172.726,145.548 166.500,146.000" stroke-width="4.883" stroke="black" fill="none" stroke-linecap="round"></path><path d="M 166.500,146.000 C 162.992,146.973 162.937,146.548 159.500,148.000" stroke-width="4.124" stroke="black" fill="none" stroke-linecap="round"></path><path d="M 159.500,148.000 C 154.388,149.199 154.492,149.473 149.500,151.000" stroke-width="3.592" stroke="black" fill="none" stroke-linecap="round"></path><path d="M 149.500,151.000 C 144.830,152.691 144.888,152.699 140.500,155.000" stroke-width="3.514" stroke="black" fill="none" stroke-linecap="round"></path><path d="M 140.500,155.000 C 137.302,156.758 137.330,156.691 134.500,159.000" stroke-width="3.761" stroke="black" fill="none" stroke-linecap="round"></path><path d="M 134.500,159.000 C 132.223,160.784 132.302,160.758 130.500,163.000" stroke-width="4.071" stroke="black" fill="none" stroke-linecap="round"></path><path d="M 130.500,163.000 C 128.479,165.308 128.723,165.284 127.500,168.000" stroke-width="4.057" stroke="black" fill="none" stroke-linecap="round"></path><path d="M 127.500,168.000 C 124.803,172.680 126.479,170.808 126.500,174.000" stroke-width="4.557" stroke="black" fill="none" stroke-linecap="round"></path><path d="M 126.500,174.000 C 131.488,174.736 129.303,176.180 136.500,175.000" stroke-width="4.383" stroke="black" fill="none" stroke-linecap="round"></path><path d="M 136.500,175.000 C 141.014,175.249 140.988,175.236 145.500,175.000" stroke-width="3.864" stroke="black" fill="none" stroke-linecap="round"></path><path d="M 145.500,175.000 C 150.189,175.198 150.014,174.749 154.500,174.000" stroke-width="3.670" stroke="black" fill="none" stroke-linecap="round"></path><path d="M 154.500,174.000 C 159.170,172.309 159.189,172.698 163.500,170.000" stroke-width="3.536" stroke="black" fill="none" stroke-linecap="round"></path><path d="M 163.500,170.000 C 166.647,168.194 166.670,168.309 169.500,166.000" stroke-width="3.816" stroke="black" fill="none" stroke-linecap="round"></path><path d="M 169.500,166.000 C 174.380,163.635 173.147,163.194 176.500,160.000" stroke-width="4.186" stroke="black" fill="none" stroke-linecap="round"></path><path d="M 176.500,160.000 C 178.115,155.385 177.880,157.635 176.500,154.000" stroke-width="4.738" stroke="black" fill="none" stroke-linecap="round"></path><path d="M 176.500,154.000 C 172.702,153.015 174.615,152.385 169.500,154.000" stroke-width="4.865" stroke="black" fill="none" stroke-linecap="round"></path><path d="M 169.500,154.000 C 165.267,155.223 166.202,155.015 163.500,158.000" stroke-width="4.670" stroke="black" fill="none" stroke-linecap="round"></path><path d="M 163.500,158.000 C 160.746,163.685 161.767,160.723 162.500,165.000" stroke-width="4.848" stroke="black" fill="none" stroke-linecap="round"></path><path d="M 162.500,165.000 C 167.669,166.171 164.746,166.685 171.500,164.000" stroke-width="5.006" stroke="black" fill="none" stroke-linecap="round"></path><path d="M 171.500,164.000 C 182.631,156.722 182.669,157.671 192.500,148.000" stroke-width="2.566" stroke="black" fill="none" stroke-linecap="round"></path><path d="M 192.500,148.000 C 203.673,137.165 204.131,137.722 214.500,126.000" stroke-width="3.054" stroke="black" fill="none" stroke-linecap="round"></path><path d="M 214.500,126.000 C 219.717,120.680 219.673,120.665 224.500,115.000" stroke-width="3.017" stroke="black" fill="none" stroke-linecap="round"></path><path d="M 224.500,115.000 C 227.618,111.083 227.717,111.180 230.500,107.000" stroke-width="3.315" stroke="black" fill="none" stroke-linecap="round"></path><path d="M 230.500,107.000 C 233.500,102.500 233.618,102.583 236.500,98.000" stroke-width="3.452" stroke="black" fill="none" stroke-linecap="round"></path><path d="M 236.500,98.000 C 239.382,93.417 239.500,93.500 242.500,89.000" stroke-width="3.442" stroke="black" fill="none" stroke-linecap="round"></path><path d="M 242.500,89.000 C 245.618,85.083 245.382,84.917 248.500,81.000" stroke-width="3.729" stroke="black" fill="none" stroke-linecap="round"></path><path d="M 248.500,81.000 C 256.250,72.194 251.618,76.583 254.500,72.000" stroke-width="3.460" stroke="black" fill="none" stroke-linecap="round"></path><path d="M 254.500,72.000 C 246.494,75.254 251.750,71.694 239.500,80.000" stroke-width="3.918" stroke="black" fill="none" stroke-linecap="round"></path><path d="M 239.500,80.000 C 232.891,85.376 232.494,84.754 226.500,91.000" stroke-width="3.071" stroke="black" fill="none" stroke-linecap="round"></path><path d="M 226.500,91.000 C 219.979,96.022 220.391,96.376 214.500,102.000" stroke-width="2.930" stroke="black" fill="none" stroke-linecap="round"></path><path d="M 214.500,102.000 C 209.162,108.267 208.979,108.022 204.500,115.000" stroke-width="2.939" stroke="black" fill="none" stroke-linecap="round"></path><path d="M 204.500,115.000 C 200.252,121.362 200.162,121.267 196.500,128.000" stroke-width="2.897" stroke="black" fill="none" stroke-linecap="round"></path><path d="M 196.500,128.000 C 193.735,132.890 193.752,132.862 191.500,138.000" stroke-width="3.175" stroke="black" fill="none" stroke-linecap="round"></path><path d="M 191.500,138.000 C 190.330,140.955 190.235,140.890 189.500,144.000" stroke-width="4.119" stroke="black" fill="none" stroke-linecap="round"></path><path d="M 189.500,144.000 C 187.264,148.382 188.830,146.455 188.500,149.000" stroke-width="4.642" stroke="black" fill="none" stroke-linecap="round"></path><path d="M 188.500,149.000 C 192.282,148.609 190.264,149.882 195.500,147.000" stroke-width="4.818" stroke="black" fill="none" stroke-linecap="round"></path><path d="M 195.500,147.000 C 199.938,143.903 200.282,144.609 204.500,141.000" stroke-width="3.761" stroke="black" fill="none" stroke-linecap="round"></path><path d="M 204.500,141.000 C 210.862,136.752 210.938,136.903 217.500,133.000" stroke-width="3.097" stroke="black" fill="none" stroke-linecap="round"></path><path d="M 217.500,133.000 C 222.444,130.379 222.362,130.252 227.500,128.000" stroke-width="3.299" stroke="black" fill="none" stroke-linecap="round"></path><path d="M 227.500,128.000 C 230.886,126.112 230.944,126.379 234.500,125.000" stroke-width="3.688" stroke="black" fill="none" stroke-linecap="round"></path><path d="M 234.500,125.000 C 240.797,122.368 237.386,124.112 240.500,124.000" stroke-width="4.385" stroke="black" fill="none" stroke-linecap="round"></path><path d="M 240.500,124.000 C 236.562,130.042 239.797,127.868 232.500,136.000" stroke-width="4.071" stroke="black" fill="none" stroke-linecap="round"></path><path d="M 232.500,136.000 C 228.812,140.881 229.062,141.042 225.500,146.000" stroke-width="3.478" stroke="black" fill="none" stroke-linecap="round"></path><path d="M 225.500,146.000 C 223.299,149.403 223.312,149.381 221.500,153.000" stroke-width="3.658" stroke="black" fill="none" stroke-linecap="round"></path><path d="M 221.500,153.000 C 218.025,157.017 220.299,155.403 219.500,158.000" stroke-width="4.027" stroke="black" fill="none" stroke-linecap="round"></path><path d="M 219.500,158.000 C 225.514,160.312 222.525,160.017 230.500,159.000" stroke-width="4.557" stroke="black" fill="none" stroke-linecap="round"></path><path d="M 230.500,159.000 C 234.468,155.957 235.014,157.812 238.500,153.000" stroke-width="3.730" stroke="black" fill="none" stroke-linecap="round"></path><path d="M 238.500,153.000 C 241.887,150.323 241.968,150.457 245.500,148.000" stroke-width="3.734" stroke="black" fill="none" stroke-linecap="round"></path><path d="M 245.500,148.000 C 252.081,142.743 248.887,145.823 252.500,144.000" stroke-width="4.283" stroke="black" fill="none" stroke-linecap="round"></path><path d="M 252.500,144.000 C 249.879,148.944 253.081,145.743 247.500,154.000" stroke-width="4.639" stroke="black" fill="none" stroke-linecap="round"></path><path d="M 247.500,154.000 C 243.901,158.604 245.879,157.444 244.500,161.000" stroke-width="4.591" stroke="black" fill="none" stroke-linecap="round"></path><path d="M 244.500,161.000 C 247.058,162.431 244.901,162.604 249.500,162.000" stroke-width="4.797" stroke="black" fill="none" stroke-linecap="round"></path><path d="M 249.500,162.000 C 255.711,160.481 255.558,160.931 261.500,158.000" stroke-width="3.504" stroke="black" fill="none" stroke-linecap="round"></path><path d="M 261.500,158.000 C 265.900,155.300 266.211,155.981 270.500,153.000" stroke-width="3.504" stroke="black" fill="none" stroke-linecap="round"></path><path d="M 270.500,153.000 C 274.900,150.725 274.900,150.800 279.500,149.000" stroke-width="3.488" stroke="black" fill="none" stroke-linecap="round"></path><path d="M 279.500,149.000 C 286.703,145.984 282.900,147.725 286.500,147.000" stroke-width="4.257" stroke="black" fill="none" stroke-linecap="round"></path><path d="M 286.500,147.000 C 282.393,150.385 286.203,148.484 278.500,154.000" stroke-width="4.277" stroke="black" fill="none" stroke-linecap="round"></path><path d="M 278.500,154.000 C 275.350,156.865 275.393,156.885 272.500,160.000" stroke-width="3.837" stroke="black" fill="none" stroke-linecap="round"></path><path d="M 272.500,160.000 C 269.892,162.217 270.350,162.365 268.500,165.000" stroke-width="3.962" stroke="black" fill="none" stroke-linecap="round"></path><path d="M 268.500,165.000 C 266.360,169.088 267.392,167.217 267.500,170.000" stroke-width="4.545" stroke="black" fill="none" stroke-linecap="round"></path><path d="M 267.500,170.000 C 270.924,170.449 268.860,171.088 273.500,169.000" stroke-width="4.957" stroke="black" fill="none" stroke-linecap="round"></path><path d="M 273.500,169.000 C 278.380,164.840 278.924,165.949 283.500,161.000" stroke-width="4.287" stroke="black" fill="none" stroke-linecap="round"></path><path d="M 283.500,161.000 C 288.593,157.627 288.380,157.340 293.500,154.000" stroke-width="3.524" stroke="black" fill="none" stroke-linecap="round"></path><path d="M 293.500,154.000 C 300.122,149.151 300.093,149.127 306.500,144.000" stroke-width="3.034" stroke="black" fill="none" stroke-linecap="round"></path><path d="M 306.500,144.000 C 313.239,138.760 313.122,138.651 319.500,133.000" stroke-width="2.811" stroke="black" fill="none" stroke-linecap="round"></path><path d="M 319.500,133.000 C 325.772,127.249 325.739,127.260 331.500,121.000" stroke-width="2.754" stroke="black" fill="none" stroke-linecap="round"></path><path d="M 331.500,121.000 C 336.779,115.212 336.772,115.249 341.500,109.000" stroke-width="2.818" stroke="black" fill="none" stroke-linecap="round"></path><path d="M 341.500,109.000 C 346.055,102.537 346.279,102.712 350.500,96.000" stroke-width="2.990" stroke="black" fill="none" stroke-linecap="round"></path><path d="M 350.500,96.000 C 354.630,90.082 354.555,90.037 358.500,84.000" stroke-width="3.027" stroke="black" fill="none" stroke-linecap="round"></path><path d="M 358.500,84.000 C 361.579,79.046 361.630,79.082 364.500,74.000" stroke-width="3.237" stroke="black" fill="none" stroke-linecap="round"></path><path d="M 364.500,74.000 C 367.078,69.541 367.079,69.546 369.500,65.000" stroke-width="3.305" stroke="black" fill="none" stroke-linecap="round"></path><path d="M 369.500,65.000 C 374.032,59.170 371.078,62.041 372.500,59.000" stroke-width="3.783" stroke="black" fill="none" stroke-linecap="round"></path><path d="M 372.500,59.000 C 365.843,60.438 369.532,58.670 360.500,64.000" stroke-width="4.374" stroke="black" fill="none" stroke-linecap="round"></path><path d="M 360.500,64.000 C 352.500,70.000 352.343,69.438 345.500,77.000" stroke-width="2.878" stroke="black" fill="none" stroke-linecap="round"></path><path d="M 345.500,77.000 C 338.436,84.086 338.500,84.000 332.500,92.000" stroke-width="2.674" stroke="black" fill="none" stroke-linecap="round"></path><path d="M 332.500,92.000 C 328.500,98.500 327.936,98.086 324.500,105.000" stroke-width="2.870" stroke="black" fill="none" stroke-linecap="round"></path><path d="M 324.500,105.000 C 320.147,111.314 320.500,111.500 316.500,118.000" stroke-width="2.935" stroke="black" fill="none" stroke-linecap="round"></path><path d="M 316.500,118.000 C 314.582,122.539 314.147,122.314 312.500,127.000" stroke-width="3.347" stroke="black" fill="none" stroke-linecap="round"></path><path d="M 312.500,127.000 C 310.887,129.949 311.082,130.039 309.500,133.000" stroke-width="3.800" stroke="black" fill="none" stroke-linecap="round"></path><path d="M 309.500,133.000 C 306.852,135.838 308.387,135.449 307.500,138.000" stroke-width="4.077" stroke="black" fill="none" stroke-linecap="round"></path><path d="M 307.500,138.000 C 309.557,142.547 308.352,140.838 312.500,143.000" stroke-width="4.727" stroke="black" fill="none" stroke-linecap="round"></path><path d="M 312.500,143.000 C 316.491,141.477 316.057,143.547 320.500,140.000" stroke-width="3.993" stroke="black" fill="none" stroke-linecap="round"></path><path d="M 320.500,140.000 C 325.950,137.850 325.991,137.977 331.500,136.000" stroke-width="3.506" stroke="black" fill="none" stroke-linecap="round"></path><path d="M 331.500,136.000 C 336.432,134.192 336.450,134.350 341.500,133.000" stroke-width="3.592" stroke="black" fill="none" stroke-linecap="round"></path><path d="M 341.500,133.000 C 344.984,132.270 344.932,132.192 348.500,132.000" stroke-width="3.933" stroke="black" fill="none" stroke-linecap="round"></path><path d="M 348.500,132.000 C 351.511,131.801 351.484,131.770 354.500,132.000" stroke-width="4.042" stroke="black" fill="none" stroke-linecap="round"></path><path d="M 354.500,132.000 C 360.301,131.081 359.011,132.301 363.500,133.000" stroke-width="4.295" stroke="black" fill="none" stroke-linecap="round"></path><path d="M 363.500,133.000 C 364.500,135.478 365.301,134.081 364.500,138.000" stroke-width="4.318" stroke="black" fill="none" stroke-linecap="round"></path><path d="M 364.500,138.000 C 366.229,143.816 364.500,142.478 363.500,147.000" stroke-width="3.783" stroke="black" fill="none" stroke-linecap="round"></path><path d="M 363.500,147.000 C 355.740,154.380 357.229,154.316 346.500,159.000" stroke-width="2.808" stroke="black" fill="none" stroke-linecap="round"></path><path d="M 346.500,159.000 C 331.348,166.124 331.740,166.380 315.500,171.000" stroke-width="2.042" stroke="black" fill="none" stroke-linecap="round"></path><path d="M 315.500,171.000 C 298.682,176.055 298.848,176.124 281.500,179.000" stroke-width="1.897" stroke="black" fill="none" stroke-linecap="round"></path><path d="M 281.500,179.000 C 263.556,182.011 263.682,182.055 245.500,183.000" stroke-width="1.826" stroke="black" fill="none" stroke-linecap="round"></path><path d="M 245.500,183.000 C 227.000,183.000 227.056,184.011 208.500,183.000" stroke-width="1.787" stroke="black" fill="none" stroke-linecap="round"></path><path d="M 208.500,183.000 C 190.302,184.833 190.500,183.000 172.500,183.000" stroke-width="1.747" stroke="black" fill="none" stroke-linecap="round"></path><path d="M 172.500,183.000 C 156.250,180.389 156.302,181.333 140.500,176.000" stroke-width="1.866" stroke="black" fill="none" stroke-linecap="round"></path><path d="M 140.500,176.000 C 125.893,171.287 125.750,171.889 111.500,166.000" stroke-width="1.962" stroke="black" fill="none" stroke-linecap="round"></path><path d="M 111.500,166.000 C 101.290,162.450 101.393,162.287 91.500,158.000" stroke-width="2.299" stroke="black" fill="none" stroke-linecap="round"></path><path d="M 91.500,158.000 C 84.445,155.246 84.790,154.950 78.500,151.000" stroke-width="2.649" stroke="black" fill="none" stroke-linecap="round"></path><path d="M 78.500,151.000 C 73.787,147.483 73.945,147.746 70.500,143.000" stroke-width="3.120" stroke="black" fill="none" stroke-linecap="round"></path><path d="M 70.500,143.000 C 67.957,139.655 68.287,139.983 67.500,136.000" stroke-width="3.574" stroke="black" fill="none" stroke-linecap="round"></path><path d="M 67.500,136.000 C 65.797,130.180 66.957,131.655 68.500,127.000" stroke-width="3.586" stroke="black" fill="none" stroke-linecap="round"></path><path d="M 68.500,127.000 C 75.838,120.235 74.297,120.180 84.500,116.000" stroke-width="2.983" stroke="black" fill="none" stroke-linecap="round"></path><path d="M 84.500,116.000 C 98.883,110.172 98.338,109.235 113.500,105.000" stroke-width="2.145" stroke="black" fill="none" stroke-linecap="round"></path><path d="M 113.500,105.000 C 131.256,98.146 131.383,98.672 149.500,93.000" stroke-width="1.787" stroke="black" fill="none" stroke-linecap="round"></path><path d="M 149.500,93.000 C 170.398,87.522 170.256,87.146 191.500,83.000" stroke-width="1.644" stroke="black" fill="none" stroke-linecap="round"></path><path d="M 191.500,83.000 C 212.419,78.514 212.398,78.522 233.500,75.000" stroke-width="1.564" stroke="black" fill="none" stroke-linecap="round"></path><path d="M 233.500,75.000 C 254.454,71.631 254.419,71.514 275.500,69.000" stroke-width="1.683" stroke="black" fill="none" stroke-linecap="round"></path><path d="M 275.500,69.000 C 294.455,66.137 294.454,66.631 313.500,65.000" stroke-width="1.764" stroke="black" fill="none" stroke-linecap="round"></path><path d="M 313.500,65.000 C 328.007,64.704 327.955,64.137 342.500,65.000" stroke-width="1.973" stroke="black" fill="none" stroke-linecap="round"></path><path d="M 342.500,65.000 C 353.054,63.638 352.507,65.204 362.500,66.000" stroke-width="2.364" stroke="black" fill="none" stroke-linecap="round"></path><path d="M 362.500,66.000 C 369.234,68.721 369.054,67.638 374.500,73.000" stroke-width="2.832" stroke="black" fill="none" stroke-linecap="round"></path><path d="M 374.500,73.000 C 377.610,75.664 377.234,75.221 378.500,79.000" stroke-width="3.532" stroke="black" fill="none" stroke-linecap="round"></path><path d="M 378.500,79.000 C 381.260,84.977 379.610,83.164 378.500,88.000" stroke-width="3.633" stroke="black" fill="none" stroke-linecap="round"></path><path d="M 378.500,88.000 C 368.575,96.037 370.760,96.477 357.500,102.000" stroke-width="2.552" stroke="black" fill="none" stroke-linecap="round"></path><path d="M 357.500,102.000 C 342.542,110.574 342.575,110.037 326.500,116.000" stroke-width="2.037" stroke="black" fill="none" stroke-linecap="round"></path><path d="M 326.500,116.000 C 308.177,121.408 308.542,122.074 289.500,125.000" stroke-width="1.817" stroke="black" fill="none" stroke-linecap="round"></path><path d="M 289.500,125.000 C 269.079,128.713 269.177,128.908 248.500,131.000" stroke-width="1.687" stroke="black" fill="none" stroke-linecap="round"></path><path d="M 248.500,131.000 C 228.525,133.177 228.579,133.213 208.500,134.000" stroke-width="1.725" stroke="black" fill="none" stroke-linecap="round"></path><path d="M 208.500,134.000 C 191.992,134.311 192.025,134.677 175.500,134.000" stroke-width="1.802" stroke="black" fill="none" stroke-linecap="round"></path><path d="M 175.500,134.000 C 165.306,134.532 165.492,133.811 155.500,133.000" stroke-width="2.188" stroke="black" fill="none" stroke-linecap="round"></path><path d="M 155.500,133.000 C 148.410,132.156 149.306,132.032 143.500,129.000" stroke-width="2.824" stroke="black" fill="none" stroke-linecap="round"></path><path d="M 143.500,129.000 C 140.303,125.994 141.410,127.656 141.500,124.000" stroke-width="3.702" stroke="black" fill="none" stroke-linecap="round"></path><path d="M 141.500,124.000 C 146.105,117.608 144.803,118.494 152.500,114.000" stroke-width="3.244" stroke="black" fill="none" stroke-linecap="round"></path><path d="M 152.500,114.000 C 166.161,107.031 165.605,106.608 180.500,102.000" stroke-width="2.273" stroke="black" fill="none" stroke-linecap="round"></path></svg>