<svg xmlns="http://www.w3.org/2000/svg" xmlns:xlink="http://www.w3.org/1999/xlink" viewBox="0 0 453 236" width="453" height="236"><path d="M 64.500,80.000 C 66.700,83.400 66.500,83.500 68.500,87.000" stroke-width="5.010" stroke="black" fill="none" stroke-linecap="round"></path><path d="M 68.500,87.000 C 70.050,90.479 70.200,90.400 71.500,94.000" stroke-width="4.165" stroke="black" fill="none" stroke-linecap="round"></path><path d="M 71.500,94.000 C 74.288,98.848 73.550,98.979 75.500,104.000" stroke-width="3.632" stroke="black" fill="none" stroke-linecap="round"></path><path d="M 75.500,104.000 C 75.211,107.529 76.288,107.348 75.500,111.000" stroke-width="3.872" stroke="black" fill="none" stroke-linecap="round"></path><path d="M 75.500,111.000 C 75.882,113.529 75.711,113.529 76.500,116.000" stroke-width="4.180" stroke="black" fill="none" stroke-linecap="round"></path><path d="M 76.500,116.000 C 76.812,119.905 77.382,119.529 78.500,123.000" stroke-width="4.517" stroke="black" fill="none" stroke-linecap="round"></path><path d="M 117.500,99.000 C 114.784,100.206 115.000,100.500 112.500,102.000" stroke-width="5.249" stroke="black" fill="none" stroke-linecap="round"></path><path d="M 112.500,102.000 C 107.875,105.868 107.784,105.706 103.500,110.000" stroke-width="3.839" stroke="black" fill="none" stroke-linecap="round"></path><path d="M 103.500,110.000 C 98.882,114.387 98.875,114.368 94.500,119.000" stroke-width="3.316" stroke="black" fill="none" stroke-linecap="round"></path><path d="M 94.500,119.000 C 89.487,124.488 89.382,124.387 84.500,130.000" stroke-width="3.089" stroke="black" fill="none" stroke-linecap="round"></path><path d="M 84.500,130.000 C 80.117,135.111 79.987,134.988 75.500,140.000" stroke-width="3.066" stroke="black" fill="none" stroke-linecap="round"></path><path d="M 75.500,140.000 C 71.367,143.875 71.617,144.111 67.500,148.000" stroke-width="3.223" stroke="black" fill="none" stroke-linecap="round"></path><path d="M 67.500,148.000 C 64.115,152.107 63.867,151.875 60.500,156.000" stroke-width="3.331" stroke="black" fill="none" stroke-linecap="round"></path><path d="M 60.500,156.000 C 57.500,159.000 57.615,159.107 54.500,162.000" stroke-width="3.565" stroke="black" fill="none" stroke-linecap="round"></path><path d="M 54.500,162.000 C 52.149,163.732 52.500,164.000 50.500,166.000" stroke-width="4.000" stroke="black" fill="none" stroke-linecap="round"></path><path d="M 50.500,166.000 C 47.647,169.273 48.149,169.232 46.500,173.000" stroke-width="4.351" stroke="black" fill="none" stroke-linecap="round"></path><path d="M 128.500,137.000 C 124.528,135.288 124.500,136.000 120.500,135.000" stroke-width="4.717" stroke="black" fill="none" stroke-linecap="round"></path><path d="M 120.500,135.000 C 116.974,134.478 117.528,134.788 114.500,136.000" stroke-width="4.300" stroke="black" fill="none" stroke-linecap="round"></path><path d="M 114.500,136.000 C 111.231,139.766 110.474,138.478 107.500,143.000" stroke-width="3.687" stroke="black" fill="none" stroke-linecap="round"></path><path d="M 107.500,143.000 C 103.150,145.631 103.731,146.266 99.500,149.000" stroke-width="3.526" stroke="black" fill="none" stroke-linecap="round"></path><path d="M 99.500,149.000 C 96.973,151.978 96.650,151.631 94.500,155.000" stroke-width="4.185" stroke="black" fill="none" stroke-linecap="round"></path><path d="M 94.500,155.000 C 92.130,157.284 92.473,157.478 90.500,160.000" stroke-width="4.115" stroke="black" fill="none" stroke-linecap="round"></path><path d="M 90.500,160.000 C 88.902,162.385 89.130,162.284 88.500,165.000" stroke-width="4.180" stroke="black" fill="none" stroke-linecap="round"></path><path d="M 88.500,165.000 C 87.006,170.012 87.902,168.885 88.500,173.000" stroke-width="4.435" stroke="black" fill="none" stroke-linecap="round"></path><path d="M 88.500,173.000 C 90.885,174.598 89.506,175.012 93.500,175.000" stroke-width="4.319" stroke="black" fill="none" stroke-linecap="round"></path><path d="M 93.500,175.000 C 97.500,175.000 97.385,175.598 101.500,175.000" stroke-width="3.904" stroke="black" fill="none" stroke-linecap="round"></path><path d="M 101.500,175.000 C 106.410,176.169 106.000,175.000 110.500,175.000" stroke-width="3.743" stroke="black" fill="none" stroke-linecap="round"></path><path d="M 110.500,175.000 C 114.293,173.817 113.410,174.169 115.500,171.000" stroke-width="3.977" stroke="black" fill="none" stroke-linecap="round"></path><path d="M 115.500,171.000 C 118.548,162.569 118.793,163.317 119.500,154.000" stroke-width="2.979" stroke="black" fill="none" stroke-linecap="round"></path><path d="M 119.500,154.000 C 120.599,147.898 120.048,149.069 118.500,144.000" stroke-width="3.818" stroke="black" fill="none" stroke-linecap="round"></path><path d="M 151.500,139.000 C 148.046,135.840 149.000,138.000 146.500,137.000" stroke-width="5.207" stroke="black" fill="none" stroke-linecap="round"></path><path d="M 146.500,137.000 C 144.668,140.911 144.046,138.840 143.500,145.000" stroke-width="4.667" stroke="black" fill="none" stroke-linecap="round"></path><path d="M 143.500,145.000 C 142.962,147.994 142.668,147.911 142.500,151.000" stroke-width="4.237" stroke="black" fill="none" stroke-linecap="round"></path><path d="M 142.500,151.000 C 141.720,154.480 141.962,154.494 141.500,158.000" stroke-width="3.996" stroke="black" fill="none" stroke-linecap="round"></path><path d="M 141.500,158.000 C 139.983,163.359 141.220,162.480 141.500,167.000" stroke-width="4.497" stroke="black" fill="none" stroke-linecap="round"></path><path d="M 141.500,167.000 C 143.738,169.448 142.483,169.359 146.500,170.000" stroke-width="4.276" stroke="black" fill="none" stroke-linecap="round"></path><path d="M 146.500,170.000 C 152.137,171.697 151.238,170.948 156.500,170.000" stroke-width="4.305" stroke="black" fill="none" stroke-linecap="round"></path><path d="M 156.500,170.000 C 161.386,167.153 161.137,168.197 164.500,163.000" stroke-width="4.331" stroke="black" fill="none" stroke-linecap="round"></path><path d="M 164.500,163.000 C 166.301,154.550 167.386,159.153 168.500,154.000" stroke-width="4.332" stroke="black" fill="none" stroke-linecap="round"></path><path d="M 168.500,154.000 C 171.429,157.253 170.301,153.550 172.500,161.000" stroke-width="4.901" stroke="black" fill="none" stroke-linecap="round"></path><path d="M 172.500,161.000 C 172.768,164.522 173.429,164.253 172.500,168.000" stroke-width="4.273" stroke="black" fill="none" stroke-linecap="round"></path><path d="M 172.500,168.000 C 171.732,170.978 172.268,171.022 171.500,174.000" stroke-width="4.133" stroke="black" fill="none" stroke-linecap="round"></path><path d="M 171.500,174.000 C 169.538,179.256 171.232,177.478 171.500,181.000" stroke-width="4.491" stroke="black" fill="none" stroke-linecap="round"></path><path d="M 272.500,134.000 C 270.537,137.370 271.000,137.500 269.500,141.000" stroke-width="4.340" stroke="black" fill="none" stroke-linecap="round"></path><path d="M 269.500,141.000 C 269.352,144.594 268.537,144.370 268.500,148.000" stroke-width="4.076" stroke="black" fill="none" stroke-linecap="round"></path><path d="M 268.500,148.000 C 267.270,150.432 267.852,150.594 266.500,153.000" stroke-width="4.211" stroke="black" fill="none" stroke-linecap="round"></path><path d="M 266.500,153.000 C 265.956,155.492 265.770,155.432 265.500,158.000" stroke-width="4.292" stroke="black" fill="none" stroke-linecap="round"></path><path d="M 265.500,158.000 C 263.358,164.190 264.956,160.992 264.500,164.000" stroke-width="4.774" stroke="black" fill="none" stroke-linecap="round"></path><path d="M 264.500,164.000 C 268.266,160.731 266.358,163.690 271.500,157.000" stroke-width="4.719" stroke="black" fill="none" stroke-linecap="round"></path><path d="M 271.500,157.000 C 274.790,153.188 274.766,153.231 277.500,149.000" stroke-width="3.828" stroke="black" fill="none" stroke-linecap="round"></path><path d="M 277.500,149.000 C 279.726,144.316 280.290,144.688 282.500,140.000" stroke-width="3.535" stroke="black" fill="none" stroke-linecap="round"></path><path d="M 282.500,140.000 C 284.148,137.116 284.226,137.316 286.500,135.000" stroke-width="3.903" stroke="black" fill="none" stroke-linecap="round"></path><path d="M 286.500,135.000 C 290.843,129.757 289.148,132.616 292.500,131.000" stroke-width="4.377" stroke="black" fill="none" stroke-linecap="round"></path><path d="M 292.500,131.000 C 294.500,136.040 294.843,132.757 294.500,141.000" stroke-width="4.712" stroke="black" fill="none" stroke-linecap="round"></path><path d="M 294.500,141.000 C 293.570,144.522 294.500,144.540 292.500,148.000" stroke-width="4.142" stroke="black" fill="none" stroke-linecap="round"></path><path d="M 292.500,148.000 C 291.330,150.955 291.570,151.022 290.500,154.000" stroke-width="4.064" stroke="black" fill="none" stroke-linecap="round"></path><path d="M 290.500,154.000 C 288.229,158.818 289.830,156.455 289.500,159.000" stroke-width="4.621" stroke="black" fill="none" stroke-linecap="round"></path><path d="M 289.500,159.000 C 293.807,157.462 291.729,159.318 297.500,155.000" stroke-width="4.502" stroke="black" fill="none" stroke-linecap="round"></path><path d="M 297.500,155.000 C 300.981,151.978 301.307,152.462 304.500,149.000" stroke-width="3.868" stroke="black" fill="none" stroke-linecap="round"></path><path d="M 304.500,149.000 C 307.157,145.910 307.481,146.478 310.500,144.000" stroke-width="3.858" stroke="black" fill="none" stroke-linecap="round"></path><path d="M 310.500,144.000 C 316.914,139.017 314.157,141.910 318.500,141.000" stroke-width="4.283" stroke="black" fill="none" stroke-linecap="round"></path><path d="M 318.500,141.000 C 319.141,147.590 320.914,144.017 318.500,154.000" stroke-width="4.421" stroke="black" fill="none" stroke-linecap="round"></path><path d="M 318.500,154.000 C 317.570,157.522 318.141,157.590 316.500,161.000" stroke-width="4.072" stroke="black" fill="none" stroke-linecap="round"></path><path d="M 316.500,161.000 C 315.265,163.942 315.570,164.022 314.500,167.000" stroke-width="4.091" stroke="black" fill="none" stroke-linecap="round"></path><path d="M 314.500,167.000 C 313.500,170.000 313.765,169.942 313.500,173.000" stroke-width="4.170" stroke="black" fill="none" stroke-linecap="round"></path><path d="M 351.500,156.000 C 355.150,159.447 355.000,157.500 358.500,159.000" stroke-width="5.180" stroke="black" fill="none" stroke-linecap="round"></path><path d="M 358.500,159.000 C 362.785,156.858 362.650,158.447 366.500,154.000" stroke-width="4.611" stroke="black" fill="none" stroke-linecap="round"></path><path d="M 366.500,154.000 C 369.563,151.906 369.285,151.858 371.500,149.000" stroke-width="4.145" stroke="black" fill="none" stroke-linecap="round"></path><path d="M 371.500,149.000 C 375.043,144.246 374.563,144.406 376.500,139.000" stroke-width="4.184" stroke="black" fill="none" stroke-linecap="round"></path><path d="M 376.500,139.000 C 378.816,132.684 377.543,135.246 376.500,131.000" stroke-width="4.436" stroke="black" fill="none" stroke-linecap="round"></path><path d="M 376.500,131.000 C 370.542,129.487 373.316,128.684 365.500,131.000" stroke-width="4.282" stroke="black" fill="none" stroke-linecap="round"></path><path d="M 365.500,131.000 C 360.177,133.139 360.542,132.487 356.500,137.000" stroke-width="3.713" stroke="black" fill="none" stroke-linecap="round"></path><path d="M 356.500,137.000 C 349.659,144.061 350.177,143.639 345.500,152.000" stroke-width="3.685" stroke="black" fill="none" stroke-linecap="round"></path><path d="M 345.500,152.000 C 345.500,155.000 344.159,154.561 345.500,158.000" stroke-width="4.004" stroke="black" fill="none" stroke-linecap="round"></path><path d="M 345.500,158.000 C 344.556,162.223 345.500,162.000 345.500,166.000" stroke-width="3.877" stroke="black" fill="none" stroke-linecap="round"></path><path d="M 345.500,166.000 C 346.758,170.573 346.556,170.223 349.500,174.000" stroke-width="3.793" stroke="black" fill="none" stroke-linecap="round"></path><path d="M 349.500,174.000 C 353.329,177.723 352.758,178.073 357.500,181.000" stroke-width="3.554" stroke="black" fill="none" stroke-linecap="round"></path><path d="M 357.500,181.000 C 360.195,183.820 360.329,183.223 363.500,185.000" stroke-width="3.822" stroke="black" fill="none" stroke-linecap="round"></path><path d="M 363.500,185.000 C 367.483,185.777 367.195,186.320 371.500,186.000" stroke-width="3.764" stroke="black" fill="none" stroke-linecap="round"></path><path d="M 371.500,186.000 C 377.137,187.697 376.483,186.277 381.500,186.000" stroke-width="3.547" stroke="black" fill="none" stroke-linecap="round"></path><path d="M 381.500,186.000 C 385.893,182.865 386.137,184.197 389.500,179.000" stroke-width="3.428" stroke="black" fill="none" stroke-linecap="round"></path><path d="M 389.500,179.000 C 392.618,175.083 392.893,175.365 395.500,171.000" stroke-width="3.451" stroke="black" fill="none" stroke-linecap="round"></path><path d="M 250.500,42.000 C 245.507,43.133 247.000,44.000 243.500,46.000" stroke-width="5.343" stroke="black" fill="none" stroke-linecap="round"></path><path d="M 243.500,46.000 C 243.921,49.052 242.007,48.133 243.500,52.000" stroke-width="4.400" stroke="black" fill="none" stroke-linecap="round"></path><path d="M 243.500,52.000 C 242.801,56.097 242.921,56.052 241.500,60.000" stroke-width="3.895" stroke="black" fill="none" stroke-linecap="round"></path><path d="M 241.500,60.000 C 239.200,64.900 239.801,65.097 237.500,70.000" stroke-width="3.506" stroke="black" fill="none" stroke-linecap="round"></path><path d="M 237.500,70.000 C 235.617,75.416 235.700,75.400 234.500,81.000" stroke-width="3.407" stroke="black" fill="none" stroke-linecap="round"></path><path d="M 234.500,81.000 C 232.350,92.977 232.117,92.916 230.500,105.000" stroke-width="3.316" stroke="black" fill="none" stroke-linecap="round"></path><path d="M 230.500,105.000 C 229.609,112.516 229.350,112.477 228.500,120.000" stroke-width="3.070" stroke="black" fill="none" stroke-linecap="round"></path><path d="M 228.500,120.000 C 227.542,126.007 227.609,126.016 226.500,132.000" stroke-width="3.213" stroke="black" fill="none" stroke-linecap="round"></path><path d="M 226.500,132.000 C 225.793,137.570 225.542,137.507 224.500,143.000" stroke-width="3.281" stroke="black" fill="none" stroke-linecap="round"></path><path d="M 224.500,143.000 C 223.000,148.000 223.293,148.070 221.500,153.000" stroke-width="3.366" stroke="black" fill="none" stroke-linecap="round"></path><path d="M 221.500,153.000 C 219.555,157.899 220.000,158.000 218.500,163.000" stroke-width="3.500" stroke="black" fill="none" stroke-linecap="round"></path><path d="M 218.500,163.000 C 216.962,172.494 216.555,172.399 215.500,182.000" stroke-width="3.480" stroke="black" fill="none" stroke-linecap="round"></path><path d="M 215.500,182.000 C 214.967,185.496 214.962,185.494 214.500,189.000" stroke-width="3.811" stroke="black" fill="none" stroke-linecap="round"></path><path d="M 214.500,189.000 C 214.000,193.000 213.967,192.996 213.500,197.000" stroke-width="3.907" stroke="black" fill="none" stroke-linecap="round"></path><path d="M 213.500,197.000 C 212.971,200.997 213.000,201.000 212.500,205.000" stroke-width="3.842" stroke="black" fill="none" stroke-linecap="round"></path><path d="M 212.500,205.000 C 212.140,209.522 211.971,209.497 211.500,214.000" stroke-width="4.243" stroke="black" fill="none" stroke-linecap="round"></path><path d="M 211.500,214.000 C 210.257,216.568 211.140,216.522 210.500,219.000" stroke-width="4.677" stroke="black" fill="none" stroke-linecap="round"></path></svg>