<svg xmlns="http://www.w3.org/2000/svg" xmlns:xlink="http://www.w3.org/1999/xlink" viewBox="0 0 453 236" width="453" height="236"><path d="M 49.500,93.000 C 49.113,97.016 49.000,97.000 48.500,101.000" stroke-width="5.134" stroke="black" fill="none" stroke-linecap="round"></path><path d="M 48.500,101.000 C 47.104,110.019 47.113,110.016 45.500,119.000" stroke-width="4.121" stroke="black" fill="none" stroke-linecap="round"></path><path d="M 45.500,119.000 C 43.981,123.949 44.604,124.019 43.500,129.000" stroke-width="3.616" stroke="black" fill="none" stroke-linecap="round"></path><path d="M 43.500,129.000 C 43.500,134.500 42.981,134.449 43.500,140.000" stroke-width="3.413" stroke="black" fill="none" stroke-linecap="round"></path><path d="M 43.500,140.000 C 43.500,145.500 43.500,145.500 43.500,151.000" stroke-width="3.357" stroke="black" fill="none" stroke-linecap="round"></path><path d="M 43.500,151.000 C 43.500,155.000 43.500,155.000 43.500,159.000" stroke-width="3.623" stroke="black" fill="none" stroke-linecap="round"></path><path d="M 43.500,159.000 C 43.500,162.000 43.500,162.000 43.500,165.000" stroke-width="3.938" stroke="black" fill="none" stroke-linecap="round"></path><path d="M 74.500,140.000 C 71.345,136.699 71.000,138.000 67.500,136.000" stroke-width="5.226" stroke="black" fill="none" stroke-linecap="round"></path><path d="M 67.500,136.000 C 60.000,136.000 60.345,134.699 52.500,136.000" stroke-width="4.593" stroke="black" fill="none" stroke-linecap="round"></path><path d="M 52.500,136.000 C 44.500,136.000 44.500,136.000 36.500,136.000" stroke-width="3.258" stroke="black" fill="none" stroke-linecap="round"></path><path d="M 36.500,136.000 C 32.000,136.000 32.000,136.000 27.500,136.000" stroke-width="3.490" stroke="black" fill="none" stroke-linecap="round"></path><path d="M 27.500,136.000 C 24.500,136.000 24.500,136.000 21.500,136.000" stroke-width="3.890" stroke="black" fill="none" stroke-linecap="round"></path><path d="M 21.500,136.000 C 14.259,137.518 17.500,136.000 13.500,136.000" stroke-width="4.315" stroke="black" fill="none" stroke-linecap="round"></path><path d="M 74.500,99.000 C 75.022,103.564 74.500,103.500 74.500,108.000" stroke-width="4.843" stroke="black" fill="none" stroke-linecap="round"></path><path d="M 74.500,108.000 C 73.585,112.023 74.022,112.064 72.500,116.000" stroke-width="3.992" stroke="black" fill="none" stroke-linecap="round"></path><path d="M 72.500,116.000 C 70.207,122.929 70.585,123.023 68.500,130.000" stroke-width="3.266" stroke="black" fill="none" stroke-linecap="round"></path><path d="M 68.500,130.000 C 67.293,137.571 66.707,137.429 65.500,145.000" stroke-width="3.105" stroke="black" fill="none" stroke-linecap="round"></path><path d="M 65.500,145.000 C 63.197,151.929 63.793,152.071 61.500,159.000" stroke-width="3.052" stroke="black" fill="none" stroke-linecap="round"></path><path d="M 61.500,159.000 C 60.372,164.480 60.197,164.429 59.500,170.000" stroke-width="3.283" stroke="black" fill="none" stroke-linecap="round"></path><path d="M 59.500,170.000 C 58.787,173.987 58.872,173.980 58.500,178.000" stroke-width="3.590" stroke="black" fill="none" stroke-linecap="round"></path><path d="M 58.500,178.000 C 57.471,183.485 58.287,180.987 58.500,184.000" stroke-width="4.349" stroke="black" fill="none" stroke-linecap="round"></path><path d="M 58.500,184.000 C 60.416,181.910 59.471,184.485 62.500,180.000" stroke-width="4.489" stroke="black" fill="none" stroke-linecap="round"></path><path d="M 62.500,180.000 C 66.378,176.349 66.416,176.410 70.500,173.000" stroke-width="3.716" stroke="black" fill="none" stroke-linecap="round"></path><path d="M 70.500,173.000 C 74.447,169.927 74.378,169.849 78.500,167.000" stroke-width="3.592" stroke="black" fill="none" stroke-linecap="round"></path><path d="M 78.500,167.000 C 83.381,163.312 83.447,163.427 88.500,160.000" stroke-width="3.473" stroke="black" fill="none" stroke-linecap="round"></path><path d="M 88.500,160.000 C 91.900,157.800 91.881,157.812 95.500,156.000" stroke-width="3.656" stroke="black" fill="none" stroke-linecap="round"></path><path d="M 95.500,156.000 C 100.868,151.368 98.900,154.300 102.500,153.000" stroke-width="4.235" stroke="black" fill="none" stroke-linecap="round"></path><path d="M 102.500,153.000 C 104.124,158.596 104.868,155.368 103.500,164.000" stroke-width="4.489" stroke="black" fill="none" stroke-linecap="round"></path><path d="M 103.500,164.000 C 101.296,171.456 102.624,171.596 99.500,179.000" stroke-width="4.031" stroke="black" fill="none" stroke-linecap="round"></path><path d="M 99.500,179.000 C 98.702,181.975 98.796,181.956 98.500,185.000" stroke-width="4.108" stroke="black" fill="none" stroke-linecap="round"></path><path d="M 122.500,156.000 C 127.369,158.491 127.500,158.000 132.500,160.000" stroke-width="4.988" stroke="black" fill="none" stroke-linecap="round"></path><path d="M 132.500,160.000 C 135.982,160.749 135.869,160.991 139.500,161.000" stroke-width="4.231" stroke="black" fill="none" stroke-linecap="round"></path><path d="M 139.500,161.000 C 143.088,161.602 142.982,161.249 146.500,161.000" stroke-width="4.055" stroke="black" fill="none" stroke-linecap="round"></path><path d="M 146.500,161.000 C 151.924,160.288 151.588,160.102 156.500,158.000" stroke-width="3.576" stroke="black" fill="none" stroke-linecap="round"></path><path d="M 156.500,158.000 C 160.079,155.959 159.924,156.288 162.500,153.000" stroke-width="3.766" stroke="black" fill="none" stroke-linecap="round"></path><path d="M 162.500,153.000 C 164.113,150.051 164.579,150.459 165.500,147.000" stroke-width="3.949" stroke="black" fill="none" stroke-linecap="round"></path><path d="M 165.500,147.000 C 167.693,144.513 166.613,144.551 167.500,142.000" stroke-width="4.127" stroke="black" fill="none" stroke-linecap="round"></path><path d="M 167.500,142.000 C 167.340,136.066 167.193,138.013 164.500,134.000" stroke-width="4.360" stroke="black" fill="none" stroke-linecap="round"></path><path d="M 164.500,134.000 C 160.235,132.879 161.840,132.066 156.500,134.000" stroke-width="3.971" stroke="black" fill="none" stroke-linecap="round"></path><path d="M 156.500,134.000 C 149.743,136.006 150.235,135.879 144.500,140.000" stroke-width="3.286" stroke="black" fill="none" stroke-linecap="round"></path><path d="M 144.500,140.000 C 139.615,144.710 139.243,144.006 135.500,150.000" stroke-width="3.182" stroke="black" fill="none" stroke-linecap="round"></path><path d="M 135.500,150.000 C 132.838,153.909 132.615,153.710 130.500,158.000" stroke-width="3.424" stroke="black" fill="none" stroke-linecap="round"></path><path d="M 130.500,158.000 C 128.184,160.807 128.838,160.909 127.500,164.000" stroke-width="3.829" stroke="black" fill="none" stroke-linecap="round"></path><path d="M 127.500,164.000 C 125.267,169.564 126.684,167.807 127.500,172.000" stroke-width="4.309" stroke="black" fill="none" stroke-linecap="round"></path><path d="M 127.500,172.000 C 132.838,174.921 130.767,175.564 138.500,176.000" stroke-width="4.198" stroke="black" fill="none" stroke-linecap="round"></path><path d="M 138.500,176.000 C 143.515,175.738 143.338,176.921 148.500,176.000" stroke-width="3.654" stroke="black" fill="none" stroke-linecap="round"></path><path d="M 148.500,176.000 C 153.003,176.471 153.015,176.238 157.500,177.000" stroke-width="3.610" stroke="black" fill="none" stroke-linecap="round"></path><path d="M 157.500,177.000 C 161.484,177.749 161.503,177.471 165.500,178.000" stroke-width="3.752" stroke="black" fill="none" stroke-linecap="round"></path><path d="M 165.500,178.000 C 169.632,178.725 169.484,178.249 173.500,178.000" stroke-width="3.750" stroke="black" fill="none" stroke-linecap="round"></path><path d="M 256.500,84.000 C 256.694,87.509 256.500,87.500 256.500,91.000" stroke-width="5.050" stroke="black" fill="none" stroke-linecap="round"></path><path d="M 256.500,91.000 C 256.110,96.512 256.194,96.509 255.500,102.000" stroke-width="3.778" stroke="black" fill="none" stroke-linecap="round"></path><path d="M 255.500,102.000 C 254.983,110.090 254.610,110.012 253.500,118.000" stroke-width="3.107" stroke="black" fill="none" stroke-linecap="round"></path><path d="M 253.500,118.000 C 251.226,125.943 251.983,126.090 249.500,134.000" stroke-width="2.926" stroke="black" fill="none" stroke-linecap="round"></path><path d="M 249.500,134.000 C 248.500,140.000 248.226,139.943 247.500,146.000" stroke-width="3.215" stroke="black" fill="none" stroke-linecap="round"></path><path d="M 247.500,146.000 C 246.360,151.981 246.500,152.000 245.500,158.000" stroke-width="3.259" stroke="black" fill="none" stroke-linecap="round"></path><path d="M 245.500,158.000 C 244.801,162.489 244.860,162.481 244.500,167.000" stroke-width="3.536" stroke="black" fill="none" stroke-linecap="round"></path><path d="M 244.500,167.000 C 244.270,170.016 244.301,169.989 244.500,173.000" stroke-width="3.907" stroke="black" fill="none" stroke-linecap="round"></path><path d="M 244.500,173.000 C 243.619,177.850 244.770,176.516 245.500,180.000" stroke-width="4.403" stroke="black" fill="none" stroke-linecap="round"></path><path d="M 245.500,180.000 C 248.541,181.228 247.119,181.850 251.500,181.000" stroke-width="4.901" stroke="black" fill="none" stroke-linecap="round"></path><path d="M 251.500,181.000 C 254.971,179.882 255.041,180.728 258.500,179.000" stroke-width="4.727" stroke="black" fill="none" stroke-linecap="round"></path><path d="M 258.500,179.000 C 261.000,178.500 260.971,178.382 263.500,178.000" stroke-width="4.481" stroke="black" fill="none" stroke-linecap="round"></path><path d="M 263.500,178.000 C 266.019,177.584 266.000,177.500 268.500,177.000" stroke-width="4.567" stroke="black" fill="none" stroke-linecap="round"></path><path d="M 268.500,177.000 C 274.545,175.654 274.519,175.584 280.500,174.000" stroke-width="3.563" stroke="black" fill="none" stroke-linecap="round"></path><path d="M 280.500,174.000 C 283.423,172.659 283.545,173.154 286.500,172.000" stroke-width="3.878" stroke="black" fill="none" stroke-linecap="round"></path><path d="M 286.500,172.000 C 290.487,171.287 290.423,171.159 294.500,171.000" stroke-width="4.307" stroke="black" fill="none" stroke-linecap="round"></path><path d="M 294.500,171.000 C 298.081,169.791 297.487,170.787 300.500,171.000" stroke-width="4.777" stroke="black" fill="none" stroke-linecap="round"></path><path d="M 322.500,162.000 C 329.449,158.746 327.500,158.000 332.500,154.000" stroke-width="4.872" stroke="black" fill="none" stroke-linecap="round"></path><path d="M 332.500,154.000 C 333.488,149.590 333.949,151.746 331.500,148.000" stroke-width="4.801" stroke="black" fill="none" stroke-linecap="round"></path><path d="M 331.500,148.000 C 327.054,146.506 328.488,145.590 322.500,146.000" stroke-width="4.489" stroke="black" fill="none" stroke-linecap="round"></path><path d="M 322.500,146.000 C 317.936,145.478 318.054,145.506 313.500,146.000" stroke-width="3.889" stroke="black" fill="none" stroke-linecap="round"></path><path d="M 313.500,146.000 C 309.234,146.400 309.436,146.478 305.500,148.000" stroke-width="3.763" stroke="black" fill="none" stroke-linecap="round"></path><path d="M 305.500,148.000 C 301.883,149.401 302.234,149.400 299.500,152.000" stroke-width="3.842" stroke="black" fill="none" stroke-linecap="round"></path><path d="M 299.500,152.000 C 295.853,155.671 296.383,155.401 294.500,160.000" stroke-width="4.236" stroke="black" fill="none" stroke-linecap="round"></path><path d="M 294.500,160.000 C 292.028,166.289 293.353,163.671 294.500,168.000" stroke-width="4.436" stroke="black" fill="none" stroke-linecap="round"></path><path d="M 294.500,168.000 C 301.408,170.160 298.528,170.789 307.500,169.000" stroke-width="4.170" stroke="black" fill="none" stroke-linecap="round"></path><path d="M 307.500,169.000 C 311.986,167.075 311.908,168.160 315.500,164.000" stroke-width="3.767" stroke="black" fill="none" stroke-linecap="round"></path><path d="M 315.500,164.000 C 319.709,159.666 319.986,160.075 323.500,155.000" stroke-width="3.422" stroke="black" fill="none" stroke-linecap="round"></path><path d="M 323.500,155.000 C 326.177,151.613 326.209,151.666 328.500,148.000" stroke-width="3.584" stroke="black" fill="none" stroke-linecap="round"></path><path d="M 328.500,148.000 C 331.696,139.995 330.677,144.613 332.500,141.000" stroke-width="4.208" stroke="black" fill="none" stroke-linecap="round"></path><path d="M 332.500,141.000 C 332.500,147.000 333.696,142.495 332.500,153.000" stroke-width="4.444" stroke="black" fill="none" stroke-linecap="round"></path><path d="M 332.500,153.000 C 332.083,157.038 332.500,157.000 332.500,161.000" stroke-width="4.044" stroke="black" fill="none" stroke-linecap="round"></path><path d="M 332.500,161.000 C 332.857,166.742 333.083,166.538 334.500,172.000" stroke-width="4.175" stroke="black" fill="none" stroke-linecap="round"></path><path d="M 334.500,172.000 C 335.332,175.265 335.357,174.742 337.500,177.000" stroke-width="4.184" stroke="black" fill="none" stroke-linecap="round"></path><path d="M 337.500,177.000 C 340.842,179.268 340.332,179.265 344.500,180.000" stroke-width="4.430" stroke="black" fill="none" stroke-linecap="round"></path><path d="M 391.500,143.000 C 389.014,143.581 389.000,143.500 386.500,144.000" stroke-width="3.282" stroke="black" fill="none" stroke-linecap="round"></path><path d="M 386.500,144.000 C 382.870,144.037 383.014,144.581 379.500,145.000" stroke-width="3.777" stroke="black" fill="none" stroke-linecap="round"></path><path d="M 379.500,145.000 C 375.709,146.025 375.870,146.037 372.500,148.000" stroke-width="3.852" stroke="black" fill="none" stroke-linecap="round"></path><path d="M 372.500,148.000 C 369.649,150.710 369.209,150.025 366.500,153.000" stroke-width="3.801" stroke="black" fill="none" stroke-linecap="round"></path><path d="M 366.500,153.000 C 363.760,154.192 364.149,154.710 361.500,156.000" stroke-width="4.021" stroke="black" fill="none" stroke-linecap="round"></path><path d="M 361.500,156.000 C 355.491,159.385 358.760,158.192 356.500,161.000" stroke-width="4.430" stroke="black" fill="none" stroke-linecap="round"></path><path d="M 356.500,161.000 C 361.398,163.194 357.991,163.385 366.500,164.000" stroke-width="4.584" stroke="black" fill="none" stroke-linecap="round"></path><path d="M 366.500,164.000 C 371.000,164.000 370.898,164.694 375.500,164.000" stroke-width="3.910" stroke="black" fill="none" stroke-linecap="round"></path><path d="M 375.500,164.000 C 379.530,163.695 379.500,164.000 383.500,164.000" stroke-width="3.797" stroke="black" fill="none" stroke-linecap="round"></path><path d="M 383.500,164.000 C 387.058,163.352 386.030,164.195 388.500,165.000" stroke-width="4.113" stroke="black" fill="none" stroke-linecap="round"></path><path d="M 388.500,165.000 C 392.154,169.611 390.558,167.352 390.500,172.000" stroke-width="4.632" stroke="black" fill="none" stroke-linecap="round"></path><path d="M 390.500,172.000 C 385.054,175.102 387.654,176.111 379.500,178.000" stroke-width="3.488" stroke="black" fill="none" stroke-linecap="round"></path><path d="M 379.500,178.000 C 373.602,181.226 373.554,181.102 367.500,184.000" stroke-width="3.177" stroke="black" fill="none" stroke-linecap="round"></path><path d="M 367.500,184.000 C 362.572,186.210 362.602,186.226 357.500,188.000" stroke-width="3.409" stroke="black" fill="none" stroke-linecap="round"></path><path d="M 357.500,188.000 C 354.029,189.118 354.072,189.210 350.500,190.000" stroke-width="3.716" stroke="black" fill="none" stroke-linecap="round"></path><path d="M 350.500,190.000 C 344.916,192.655 348.029,190.618 345.500,191.000" stroke-width="4.124" stroke="black" fill="none" stroke-linecap="round"></path><path d="M 427.500,101.000 C 426.735,104.481 427.000,104.500 426.500,108.000" stroke-width="4.552" stroke="black" fill="none" stroke-linecap="round"></path><path d="M 426.500,108.000 C 426.500,112.000 426.235,111.981 426.500,116.000" stroke-width="4.071" stroke="black" fill="none" stroke-linecap="round"></path><path d="M 426.500,116.000 C 426.500,121.500 426.500,121.500 426.500,127.000" stroke-width="3.525" stroke="black" fill="none" stroke-linecap="round"></path><path d="M 426.500,127.000 C 427.485,135.121 426.500,135.000 426.500,143.000" stroke-width="3.061" stroke="black" fill="none" stroke-linecap="round"></path><path d="M 426.500,143.000 C 424.764,151.077 425.485,151.121 422.500,159.000" stroke-width="2.914" stroke="black" fill="none" stroke-linecap="round"></path><path d="M 422.500,159.000 C 420.316,164.946 420.764,165.077 418.500,171.000" stroke-width="3.125" stroke="black" fill="none" stroke-linecap="round"></path><path d="M 418.500,171.000 C 417.710,175.068 417.316,174.946 416.500,179.000" stroke-width="3.514" stroke="black" fill="none" stroke-linecap="round"></path><path d="M 433.500,143.000 C 426.984,139.776 427.000,141.500 420.500,140.000" stroke-width="5.024" stroke="black" fill="none" stroke-linecap="round"></path><path d="M 420.500,140.000 C 412.565,142.302 412.484,140.276 404.500,144.000" stroke-width="3.280" stroke="black" fill="none" stroke-linecap="round"></path><path d="M 404.500,144.000 C 393.539,146.257 393.565,146.302 382.500,148.000" stroke-width="2.634" stroke="black" fill="none" stroke-linecap="round"></path><path d="M 382.500,148.000 C 374.523,149.248 374.539,149.257 366.500,150.000" stroke-width="2.806" stroke="black" fill="none" stroke-linecap="round"></path><path d="M 366.500,150.000 C 358.506,150.692 358.523,150.748 350.500,151.000" stroke-width="2.868" stroke="black" fill="none" stroke-linecap="round"></path></svg>