<svg xmlns="http://www.w3.org/2000/svg" xmlns:xlink="http://www.w3.org/1999/xlink" viewBox="0 0 1460 576" width="1460" height="576"><path d="M 781.000,312.000 C 756.376,321.208 756.000,319.500 731.000,327.000" stroke-width="2.752" stroke="black" fill="none" stroke-linecap="round"></path><path d="M 731.000,327.000 C 710.085,331.556 710.376,331.708 689.000,333.000" stroke-width="1.838" stroke="black" fill="none" stroke-linecap="round"></path><path d="M 689.000,333.000 C 673.327,333.971 673.585,334.056 658.000,332.000" stroke-width="1.992" stroke="black" fill="none" stroke-linecap="round"></path><path d="M 658.000,332.000 C 638.348,328.528 638.327,329.471 619.000,324.000" stroke-width="2.299" stroke="black" fill="none" stroke-linecap="round"></path><path d="M 619.000,324.000 C 614.935,322.657 614.848,323.028 611.000,321.000" stroke-width="3.150" stroke="black" fill="none" stroke-linecap="round"></path><path d="M 611.000,321.000 C 605.446,318.614 605.435,318.657 600.000,316.000" stroke-width="3.245" stroke="black" fill="none" stroke-linecap="round"></path><path d="M 600.000,316.000 C 591.950,313.550 592.946,312.614 586.000,309.000" stroke-width="3.624" stroke="black" fill="none" stroke-linecap="round"></path><path d="M 586.000,309.000 C 580.788,305.212 583.450,307.050 583.000,303.000" stroke-width="3.943" stroke="black" fill="none" stroke-linecap="round"></path><path d="M 583.000,303.000 C 606.320,277.675 604.788,281.212 634.000,261.000" stroke-width="2.186" stroke="black" fill="none" stroke-linecap="round"></path><path d="M 634.000,261.000 C 649.688,254.269 647.820,252.675 666.000,253.000" stroke-width="1.988" stroke="black" fill="none" stroke-linecap="round"></path><path d="M 666.000,253.000 C 695.379,250.392 694.688,250.769 724.000,254.000" stroke-width="1.429" stroke="black" fill="none" stroke-linecap="round"></path><path d="M 724.000,254.000 C 755.427,258.471 754.879,257.892 785.000,268.000" stroke-width="1.218" stroke="black" fill="none" stroke-linecap="round"></path><path d="M 785.000,268.000 C 800.190,274.401 800.427,272.971 814.000,283.000" stroke-width="1.601" stroke="black" fill="none" stroke-linecap="round"></path><path d="M 814.000,283.000 C 825.780,292.317 826.690,290.901 838.000,301.000" stroke-width="1.882" stroke="black" fill="none" stroke-linecap="round"></path><path d="M 838.000,301.000 C 844.895,305.675 844.780,305.817 852.000,310.000" stroke-width="2.465" stroke="black" fill="none" stroke-linecap="round"></path><path d="M 852.000,310.000 C 856.190,313.327 856.395,312.675 861.000,315.000" stroke-width="3.110" stroke="black" fill="none" stroke-linecap="round"></path><path d="M 861.000,315.000 C 867.927,317.512 867.690,317.327 875.000,318.000" stroke-width="4.233" stroke="black" fill="none" stroke-linecap="round"></path><path d="M 875.000,318.000 C 882.519,317.712 882.427,318.512 890.000,317.000" stroke-width="3.342" stroke="black" fill="none" stroke-linecap="round"></path><path d="M 890.000,317.000 C 903.463,314.829 903.519,315.712 917.000,314.000" stroke-width="2.350" stroke="black" fill="none" stroke-linecap="round"></path><path d="M 917.000,314.000 C 928.055,313.088 927.963,313.329 939.000,314.000" stroke-width="2.420" stroke="black" fill="none" stroke-linecap="round"></path><path d="M 939.000,314.000 C 963.970,317.497 964.055,316.088 989.000,320.000" stroke-width="2.282" stroke="black" fill="none" stroke-linecap="round"></path><path d="M 989.000,320.000 C 994.007,320.208 993.970,320.497 999.000,320.000" stroke-width="3.038" stroke="black" fill="none" stroke-linecap="round"></path><path d="M 999.000,320.000 C 1006.018,319.665 1006.007,319.708 1013.000,319.000" stroke-width="3.009" stroke="black" fill="none" stroke-linecap="round"></path><path d="M 1013.000,319.000 C 1016.611,318.942 1016.518,318.665 1020.000,318.000" stroke-width="3.624" stroke="black" fill="none" stroke-linecap="round"></path><path d="M 1020.000,318.000 C 1025.428,315.741 1025.611,316.442 1031.000,314.000" stroke-width="3.353" stroke="black" fill="none" stroke-linecap="round"></path><path d="M 1031.000,314.000 C 1033.545,313.670 1033.428,313.241 1036.000,313.000" stroke-width="4.013" stroke="black" fill="none" stroke-linecap="round"></path><path d="M 1036.000,313.000 C 1038.955,311.830 1039.045,312.170 1042.000,311.000" stroke-width="4.820" stroke="black" fill="none" stroke-linecap="round"></path><path d="M 1042.000,311.000 C 1048.125,310.281 1044.455,310.330 1047.000,310.000" stroke-width="4.464" stroke="black" fill="none" stroke-linecap="round"></path><path d="M 1047.000,310.000 C 1040.498,309.520 1044.125,309.281 1034.000,309.000" stroke-width="4.996" stroke="black" fill="none" stroke-linecap="round"></path><path d="M 1034.000,309.000 C 1028.000,308.500 1027.998,308.520 1022.000,308.000" stroke-width="3.595" stroke="black" fill="none" stroke-linecap="round"></path><path d="M 1022.000,308.000 C 1015.996,307.000 1016.000,307.500 1010.000,307.000" stroke-width="3.316" stroke="black" fill="none" stroke-linecap="round"></path><path d="M 1010.000,307.000 C 1004.984,307.377 1004.996,307.000 1000.000,308.000" stroke-width="3.412" stroke="black" fill="none" stroke-linecap="round"></path><path d="M 1000.000,308.000 C 994.272,308.456 996.984,308.377 994.000,309.000" stroke-width="4.250" stroke="black" fill="none" stroke-linecap="round"></path><path d="M 994.000,309.000 C 996.490,309.552 993.772,309.456 999.000,310.000" stroke-width="4.836" stroke="black" fill="none" stroke-linecap="round"></path><path d="M 999.000,310.000 C 1010.548,311.754 1010.490,312.052 1022.000,314.000" stroke-width="2.717" stroke="black" fill="none" stroke-linecap="round"></path><path d="M 1022.000,314.000 C 1035.934,317.363 1036.048,316.754 1050.000,320.000" stroke-width="2.250" stroke="black" fill="none" stroke-linecap="round"></path><path d="M 1050.000,320.000 C 1059.952,321.904 1059.934,321.863 1070.000,323.000" stroke-width="2.464" stroke="black" fill="none" stroke-linecap="round"></path><path d="M 1070.000,323.000 C 1087.484,324.882 1087.452,324.904 1105.000,326.000" stroke-width="1.987" stroke="black" fill="none" stroke-linecap="round"></path><path d="M 1105.000,326.000 C 1111.042,326.559 1110.984,326.382 1117.000,326.000" stroke-width="2.753" stroke="black" fill="none" stroke-linecap="round"></path><path d="M 1117.000,326.000 C 1127.036,324.708 1127.042,325.059 1137.000,323.000" stroke-width="3.093" stroke="black" fill="none" stroke-linecap="round"></path><path d="M 1137.000,323.000 C 1144.500,321.500 1144.536,321.708 1152.000,320.000" stroke-width="2.999" stroke="black" fill="none" stroke-linecap="round"></path><path d="M 1152.000,320.000 C 1154.473,318.837 1154.500,319.500 1157.000,319.000" stroke-width="3.786" stroke="black" fill="none" stroke-linecap="round"></path><path d="M 1157.000,319.000 C 1170.027,320.326 1169.973,319.837 1183.000,322.000" stroke-width="4.630" stroke="black" fill="none" stroke-linecap="round"></path><path d="M 1183.000,322.000 C 1185.507,322.466 1185.527,322.326 1188.000,323.000" stroke-width="4.369" stroke="black" fill="none" stroke-linecap="round"></path><path d="M 1188.000,323.000 C 1213.649,327.874 1213.507,328.466 1239.000,334.000" stroke-width="1.670" stroke="black" fill="none" stroke-linecap="round"></path><path d="M 1239.000,334.000 C 1273.457,343.172 1273.649,342.374 1308.000,352.000" stroke-width="1.164" stroke="black" fill="none" stroke-linecap="round"></path><path d="M 1308.000,352.000 C 1318.421,354.884 1318.457,354.672 1329.000,357.000" stroke-width="1.852" stroke="black" fill="none" stroke-linecap="round"></path><path d="M 1329.000,357.000 C 1343.459,359.980 1343.421,359.884 1358.000,362.000" stroke-width="2.130" stroke="black" fill="none" stroke-linecap="round"></path><path d="M 1358.000,362.000 C 1361.500,362.000 1361.459,362.480 1365.000,362.000" stroke-width="3.188" stroke="black" fill="none" stroke-linecap="round"></path></svg>