<svg xmlns="http://www.w3.org/2000/svg" xmlns:xlink="http://www.w3.org/1999/xlink" viewBox="0 0 1460 576" width="1460" height="576"><path d="M 748.000,307.000 C 742.772,310.446 742.500,309.500 737.000,312.000" stroke-width="3.756" stroke="black" fill="none" stroke-linecap="round"></path><path d="M 737.000,312.000 C 729.532,314.235 729.772,313.946 722.000,314.000" stroke-width="3.174" stroke="black" fill="none" stroke-linecap="round"></path><path d="M 722.000,314.000 C 697.244,313.031 697.532,313.235 673.000,310.000" stroke-width="1.849" stroke="black" fill="none" stroke-linecap="round"></path><path d="M 673.000,310.000 C 669.420,308.673 669.244,309.531 666.000,307.000" stroke-width="2.946" stroke="black" fill="none" stroke-linecap="round"></path><path d="M 666.000,307.000 C 644.225,299.513 645.920,297.173 626.000,287.000" stroke-width="1.806" stroke="black" fill="none" stroke-linecap="round"></path><path d="M 626.000,287.000 C 611.783,274.582 610.725,276.513 599.000,261.000" stroke-width="2.315" stroke="black" fill="none" stroke-linecap="round"></path><path d="M 599.000,261.000 C 595.994,257.238 595.783,257.582 594.000,253.000" stroke-width="3.095" stroke="black" fill="none" stroke-linecap="round"></path><path d="M 594.000,253.000 C 589.793,248.138 591.994,248.738 591.000,244.000" stroke-width="3.439" stroke="black" fill="none" stroke-linecap="round"></path><path d="M 591.000,244.000 C 593.113,232.816 593.293,236.138 601.000,229.000" stroke-width="2.910" stroke="black" fill="none" stroke-linecap="round"></path><path d="M 601.000,229.000 C 641.730,207.863 639.613,210.316 684.000,199.000" stroke-width="1.816" stroke="black" fill="none" stroke-linecap="round"></path><path d="M 684.000,199.000 C 704.944,198.802 703.730,194.863 725.000,203.000" stroke-width="1.639" stroke="black" fill="none" stroke-linecap="round"></path><path d="M 725.000,203.000 C 748.433,207.987 747.944,207.802 770.000,217.000" stroke-width="1.533" stroke="black" fill="none" stroke-linecap="round"></path><path d="M 770.000,217.000 C 780.944,224.090 781.933,221.987 792.000,231.000" stroke-width="1.957" stroke="black" fill="none" stroke-linecap="round"></path><path d="M 792.000,231.000 C 798.017,233.017 796.944,234.090 802.000,237.000" stroke-width="2.714" stroke="black" fill="none" stroke-linecap="round"></path><path d="M 802.000,237.000 C 806.815,241.179 805.517,240.517 807.000,246.000" stroke-width="3.174" stroke="black" fill="none" stroke-linecap="round"></path><path d="M 807.000,246.000 C 807.888,256.192 807.315,254.179 803.000,263.000" stroke-width="2.944" stroke="black" fill="none" stroke-linecap="round"></path><path d="M 803.000,263.000 C 792.062,275.455 793.888,275.692 779.000,285.000" stroke-width="2.085" stroke="black" fill="none" stroke-linecap="round"></path><path d="M 779.000,285.000 C 765.439,293.928 766.062,294.455 751.000,301.000" stroke-width="1.926" stroke="black" fill="none" stroke-linecap="round"></path><path d="M 751.000,301.000 C 740.671,306.424 740.939,305.928 730.000,309.000" stroke-width="2.198" stroke="black" fill="none" stroke-linecap="round"></path><path d="M 730.000,309.000 C 723.667,310.833 726.171,309.924 722.000,308.000" stroke-width="3.158" stroke="black" fill="none" stroke-linecap="round"></path><path d="M 722.000,308.000 C 716.214,297.949 718.667,302.333 720.000,292.000" stroke-width="3.591" stroke="black" fill="none" stroke-linecap="round"></path><path d="M 720.000,292.000 C 730.079,280.835 726.714,281.449 743.000,275.000" stroke-width="2.323" stroke="black" fill="none" stroke-linecap="round"></path><path d="M 743.000,275.000 C 776.919,256.719 776.579,259.835 813.000,250.000" stroke-width="1.202" stroke="black" fill="none" stroke-linecap="round"></path><path d="M 813.000,250.000 C 850.580,247.307 849.419,243.219 888.000,248.000" stroke-width="1.125" stroke="black" fill="none" stroke-linecap="round"></path><path d="M 888.000,248.000 C 904.587,249.502 904.580,248.307 921.000,252.000" stroke-width="1.551" stroke="black" fill="none" stroke-linecap="round"></path><path d="M 921.000,252.000 C 927.530,253.382 927.587,253.002 934.000,255.000" stroke-width="2.407" stroke="black" fill="none" stroke-linecap="round"></path><path d="M 934.000,255.000 C 939.877,255.759 939.530,256.382 945.000,258.000" stroke-width="2.960" stroke="black" fill="none" stroke-linecap="round"></path><path d="M 945.000,258.000 C 947.136,260.625 947.877,259.259 950.000,262.000" stroke-width="4.251" stroke="black" fill="none" stroke-linecap="round"></path><path d="M 950.000,262.000 C 959.705,266.912 959.636,266.625 970.000,270.000" stroke-width="2.835" stroke="black" fill="none" stroke-linecap="round"></path><path d="M 970.000,270.000 C 989.671,277.459 989.705,275.912 1010.000,280.000" stroke-width="1.815" stroke="black" fill="none" stroke-linecap="round"></path><path d="M 1010.000,280.000 C 1034.241,283.089 1033.671,282.959 1058.000,281.000" stroke-width="1.508" stroke="black" fill="none" stroke-linecap="round"></path><path d="M 1058.000,281.000 C 1079.496,276.480 1079.741,279.089 1101.000,272.000" stroke-width="2.065" stroke="black" fill="none" stroke-linecap="round"></path><path d="M 1101.000,272.000 C 1106.372,270.256 1103.496,271.480 1106.000,271.000" stroke-width="3.279" stroke="black" fill="none" stroke-linecap="round"></path><path d="M 1106.000,271.000 C 1102.577,273.615 1105.372,272.256 1099.000,276.000" stroke-width="4.213" stroke="black" fill="none" stroke-linecap="round"></path><path d="M 1099.000,276.000 C 1095.017,278.528 1095.077,278.615 1091.000,281.000" stroke-width="3.778" stroke="black" fill="none" stroke-linecap="round"></path><path d="M 1091.000,281.000 C 1088.558,282.605 1088.517,282.528 1086.000,284.000" stroke-width="4.013" stroke="black" fill="none" stroke-linecap="round"></path><path d="M 1086.000,284.000 C 1083.217,286.196 1083.058,285.605 1080.000,287.000" stroke-width="4.027" stroke="black" fill="none" stroke-linecap="round"></path><path d="M 1080.000,287.000 C 1073.026,288.247 1073.217,288.696 1066.000,289.000" stroke-width="4.858" stroke="black" fill="none" stroke-linecap="round"></path><path d="M 1066.000,289.000 C 1058.976,289.244 1059.026,289.747 1052.000,290.000" stroke-width="3.461" stroke="black" fill="none" stroke-linecap="round"></path><path d="M 1052.000,290.000 C 1017.462,293.692 1017.476,293.744 983.000,298.000" stroke-width="1.390" stroke="black" fill="none" stroke-linecap="round"></path><path d="M 983.000,298.000 C 937.663,305.697 937.462,303.692 892.000,310.000" stroke-width="1.125" stroke="black" fill="none" stroke-linecap="round"></path><path d="M 892.000,310.000 C 842.047,315.118 842.163,314.697 792.000,316.000" stroke-width="1.125" stroke="black" fill="none" stroke-linecap="round"></path><path d="M 792.000,316.000 C 728.387,317.018 728.547,317.118 665.000,314.000" stroke-width="1.125" stroke="black" fill="none" stroke-linecap="round"></path><path d="M 665.000,314.000 C 623.553,309.364 623.387,312.018 582.000,306.000" stroke-width="1.125" stroke="black" fill="none" stroke-linecap="round"></path><path d="M 582.000,306.000 C 518.542,298.444 518.553,300.864 455.000,297.000" stroke-width="1.125" stroke="black" fill="none" stroke-linecap="round"></path><path d="M 455.000,297.000 C 408.311,297.632 408.542,295.944 362.000,301.000" stroke-width="1.125" stroke="black" fill="none" stroke-linecap="round"></path><path d="M 362.000,301.000 C 353.573,303.378 353.311,301.632 345.000,305.000" stroke-width="1.545" stroke="black" fill="none" stroke-linecap="round"></path><path d="M 345.000,305.000 C 335.026,306.843 335.073,306.878 325.000,308.000" stroke-width="2.448" stroke="black" fill="none" stroke-linecap="round"></path></svg>