<svg xmlns="http://www.w3.org/2000/svg" xmlns:xlink="http://www.w3.org/1999/xlink" viewBox="0 0 453 236" width="453" height="236"><path d="M 55.500,69.000 C 59.500,70.000 59.500,69.500 63.500,70.000" stroke-width="4.944" stroke="black" fill="none" stroke-linecap="round"></path><path d="M 63.500,70.000 C 67.492,69.422 67.500,70.000 71.500,69.000" stroke-width="4.334" stroke="black" fill="none" stroke-linecap="round"></path><path d="M 71.500,69.000 C 76.998,68.478 76.992,68.422 82.500,68.000" stroke-width="3.577" stroke="black" fill="none" stroke-linecap="round"></path><path d="M 82.500,68.000 C 88.491,67.273 88.498,67.478 94.500,67.000" stroke-width="3.373" stroke="black" fill="none" stroke-linecap="round"></path><path d="M 94.500,67.000 C 99.500,67.000 99.491,66.773 104.500,67.000" stroke-width="3.435" stroke="black" fill="none" stroke-linecap="round"></path><path d="M 104.500,67.000 C 109.500,67.000 109.500,67.000 114.500,67.000" stroke-width="3.509" stroke="black" fill="none" stroke-linecap="round"></path><path d="M 114.500,67.000 C 119.581,67.579 119.500,67.000 124.500,67.000" stroke-width="3.532" stroke="black" fill="none" stroke-linecap="round"></path><path d="M 124.500,67.000 C 128.022,66.070 128.081,66.579 131.500,65.000" stroke-width="3.807" stroke="black" fill="none" stroke-linecap="round"></path><path d="M 131.500,65.000 C 134.815,64.566 134.522,64.070 137.500,63.000" stroke-width="4.049" stroke="black" fill="none" stroke-linecap="round"></path><path d="M 94.500,49.000 C 97.307,53.376 96.000,53.500 97.500,58.000" stroke-width="5.189" stroke="black" fill="none" stroke-linecap="round"></path><path d="M 97.500,58.000 C 97.512,65.757 97.807,65.376 95.500,73.000" stroke-width="3.413" stroke="black" fill="none" stroke-linecap="round"></path><path d="M 95.500,73.000 C 91.631,83.552 92.512,83.757 87.500,94.000" stroke-width="2.654" stroke="black" fill="none" stroke-linecap="round"></path><path d="M 87.500,94.000 C 83.507,105.236 83.131,105.052 78.500,116.000" stroke-width="2.368" stroke="black" fill="none" stroke-linecap="round"></path><path d="M 78.500,116.000 C 72.440,126.249 73.507,126.736 67.500,137.000" stroke-width="2.296" stroke="black" fill="none" stroke-linecap="round"></path><path d="M 67.500,137.000 C 64.467,144.988 63.940,144.749 61.500,153.000" stroke-width="2.577" stroke="black" fill="none" stroke-linecap="round"></path><path d="M 61.500,153.000 C 59.034,158.374 59.467,158.488 57.500,164.000" stroke-width="3.108" stroke="black" fill="none" stroke-linecap="round"></path><path d="M 57.500,164.000 C 56.115,169.465 56.034,169.374 55.500,175.000" stroke-width="3.247" stroke="black" fill="none" stroke-linecap="round"></path><path d="M 55.500,175.000 C 55.500,178.500 55.115,178.465 55.500,182.000" stroke-width="3.730" stroke="black" fill="none" stroke-linecap="round"></path><path d="M 55.500,182.000 C 54.082,188.527 55.500,185.500 55.500,189.000" stroke-width="4.324" stroke="black" fill="none" stroke-linecap="round"></path><path d="M 110.500,148.000 C 113.984,147.270 114.000,147.500 117.500,147.000" stroke-width="5.203" stroke="black" fill="none" stroke-linecap="round"></path><path d="M 117.500,147.000 C 120.500,147.000 120.484,146.770 123.500,147.000" stroke-width="4.473" stroke="black" fill="none" stroke-linecap="round"></path><path d="M 123.500,147.000 C 127.357,148.179 127.000,147.000 130.500,147.000" stroke-width="4.359" stroke="black" fill="none" stroke-linecap="round"></path><path d="M 130.500,147.000 C 136.213,144.885 135.357,145.179 139.500,141.000" stroke-width="3.670" stroke="black" fill="none" stroke-linecap="round"></path><path d="M 139.500,141.000 C 142.722,136.444 141.713,138.385 141.500,134.000" stroke-width="4.265" stroke="black" fill="none" stroke-linecap="round"></path><path d="M 141.500,134.000 C 138.147,131.782 140.222,131.444 134.500,131.000" stroke-width="4.474" stroke="black" fill="none" stroke-linecap="round"></path><path d="M 134.500,131.000 C 130.931,130.510 131.147,130.282 127.500,131.000" stroke-width="4.066" stroke="black" fill="none" stroke-linecap="round"></path><path d="M 127.500,131.000 C 123.228,130.857 123.931,131.510 120.500,133.000" stroke-width="3.924" stroke="black" fill="none" stroke-linecap="round"></path><path d="M 120.500,133.000 C 116.264,137.163 116.228,136.357 113.500,142.000" stroke-width="4.100" stroke="black" fill="none" stroke-linecap="round"></path><path d="M 113.500,142.000 C 112.669,144.467 112.264,144.163 112.500,147.000" stroke-width="4.256" stroke="black" fill="none" stroke-linecap="round"></path><path d="M 112.500,147.000 C 110.976,152.733 112.169,151.967 112.500,157.000" stroke-width="4.299" stroke="black" fill="none" stroke-linecap="round"></path><path d="M 112.500,157.000 C 114.784,159.370 113.476,159.733 117.500,161.000" stroke-width="4.594" stroke="black" fill="none" stroke-linecap="round"></path><path d="M 117.500,161.000 C 120.000,162.000 119.784,162.370 122.500,163.000" stroke-width="4.317" stroke="black" fill="none" stroke-linecap="round"></path><path d="M 122.500,163.000 C 125.000,164.000 125.000,164.000 127.500,165.000" stroke-width="4.285" stroke="black" fill="none" stroke-linecap="round"></path><path d="M 127.500,165.000 C 129.897,166.399 130.000,166.000 132.500,167.000" stroke-width="4.276" stroke="black" fill="none" stroke-linecap="round"></path><path d="M 132.500,167.000 C 136.487,167.713 136.397,167.899 140.500,168.000" stroke-width="3.943" stroke="black" fill="none" stroke-linecap="round"></path><path d="M 140.500,168.000 C 143.513,168.213 143.487,168.213 146.500,168.000" stroke-width="4.091" stroke="black" fill="none" stroke-linecap="round"></path><path d="M 206.500,123.000 C 202.482,123.387 202.500,123.500 198.500,124.000" stroke-width="4.986" stroke="black" fill="none" stroke-linecap="round"></path><path d="M 198.500,124.000 C 195.955,124.330 195.982,124.387 193.500,125.000" stroke-width="4.506" stroke="black" fill="none" stroke-linecap="round"></path><path d="M 193.500,125.000 C 190.362,125.699 190.455,125.830 187.500,127.000" stroke-width="4.214" stroke="black" fill="none" stroke-linecap="round"></path><path d="M 187.500,127.000 C 185.168,128.888 184.862,128.199 182.500,130.000" stroke-width="4.196" stroke="black" fill="none" stroke-linecap="round"></path><path d="M 182.500,130.000 C 178.949,130.850 179.168,131.388 175.500,132.000" stroke-width="4.061" stroke="black" fill="none" stroke-linecap="round"></path><path d="M 175.500,132.000 C 172.745,132.572 172.949,132.850 170.500,134.000" stroke-width="4.206" stroke="black" fill="none" stroke-linecap="round"></path><path d="M 170.500,134.000 C 166.197,135.890 167.245,136.072 164.500,139.000" stroke-width="4.457" stroke="black" fill="none" stroke-linecap="round"></path><path d="M 164.500,139.000 C 163.007,142.867 163.197,141.390 164.500,145.000" stroke-width="4.679" stroke="black" fill="none" stroke-linecap="round"></path><path d="M 164.500,145.000 C 167.861,147.288 166.507,147.867 171.500,149.000" stroke-width="4.093" stroke="black" fill="none" stroke-linecap="round"></path><path d="M 171.500,149.000 C 176.468,151.083 176.361,151.288 181.500,153.000" stroke-width="3.616" stroke="black" fill="none" stroke-linecap="round"></path><path d="M 181.500,153.000 C 186.951,155.150 186.968,155.083 192.500,157.000" stroke-width="3.412" stroke="black" fill="none" stroke-linecap="round"></path><path d="M 192.500,157.000 C 195.983,158.062 195.951,158.150 199.500,159.000" stroke-width="3.807" stroke="black" fill="none" stroke-linecap="round"></path><path d="M 199.500,159.000 C 203.766,159.400 203.483,160.062 207.500,161.000" stroke-width="3.740" stroke="black" fill="none" stroke-linecap="round"></path><path d="M 207.500,161.000 C 214.541,162.769 210.766,162.400 213.500,165.000" stroke-width="4.368" stroke="black" fill="none" stroke-linecap="round"></path><path d="M 213.500,165.000 C 207.612,171.555 211.041,170.269 200.500,176.000" stroke-width="3.915" stroke="black" fill="none" stroke-linecap="round"></path><path d="M 200.500,176.000 C 195.118,178.395 195.612,179.055 189.500,180.000" stroke-width="3.487" stroke="black" fill="none" stroke-linecap="round"></path><path d="M 189.500,180.000 C 181.059,182.511 181.118,182.395 172.500,184.000" stroke-width="3.619" stroke="black" fill="none" stroke-linecap="round"></path><path d="M 172.500,184.000 C 169.500,184.000 169.559,184.511 166.500,184.000" stroke-width="3.937" stroke="black" fill="none" stroke-linecap="round"></path><path d="M 166.500,184.000 C 160.283,185.306 163.000,184.000 159.500,184.000" stroke-width="4.420" stroke="black" fill="none" stroke-linecap="round"></path><path d="M 159.500,184.000 C 160.985,180.761 158.783,182.806 163.500,179.000" stroke-width="4.802" stroke="black" fill="none" stroke-linecap="round"></path><path d="M 254.500,87.000 C 253.720,90.480 254.000,90.500 253.500,94.000" stroke-width="5.153" stroke="black" fill="none" stroke-linecap="round"></path><path d="M 253.500,94.000 C 253.673,98.505 253.220,98.480 253.500,103.000" stroke-width="4.023" stroke="black" fill="none" stroke-linecap="round"></path><path d="M 253.500,103.000 C 253.608,111.576 253.173,111.505 252.500,120.000" stroke-width="3.017" stroke="black" fill="none" stroke-linecap="round"></path><path d="M 252.500,120.000 C 251.088,130.648 251.108,130.576 248.500,141.000" stroke-width="2.629" stroke="black" fill="none" stroke-linecap="round"></path><path d="M 248.500,141.000 C 245.558,150.519 246.088,150.648 242.500,160.000" stroke-width="2.541" stroke="black" fill="none" stroke-linecap="round"></path><path d="M 242.500,160.000 C 240.500,166.000 240.558,166.019 238.500,172.000" stroke-width="2.984" stroke="black" fill="none" stroke-linecap="round"></path><path d="M 238.500,172.000 C 237.000,176.500 237.000,176.500 235.500,181.000" stroke-width="3.397" stroke="black" fill="none" stroke-linecap="round"></path><path d="M 235.500,181.000 C 234.265,183.942 234.500,184.000 233.500,187.000" stroke-width="3.817" stroke="black" fill="none" stroke-linecap="round"></path><path d="M 233.500,187.000 C 231.356,192.542 232.765,189.942 232.500,193.000" stroke-width="4.425" stroke="black" fill="none" stroke-linecap="round"></path><path d="M 232.500,193.000 C 235.986,191.514 233.856,193.542 238.500,189.000" stroke-width="4.540" stroke="black" fill="none" stroke-linecap="round"></path><path d="M 238.500,189.000 C 241.470,184.977 241.986,185.514 244.500,181.000" stroke-width="3.792" stroke="black" fill="none" stroke-linecap="round"></path><path d="M 278.500,143.000 C 273.441,140.753 273.500,142.000 268.500,141.000" stroke-width="5.091" stroke="black" fill="none" stroke-linecap="round"></path><path d="M 268.500,141.000 C 263.570,142.793 263.441,141.253 258.500,144.000" stroke-width="3.849" stroke="black" fill="none" stroke-linecap="round"></path><path d="M 258.500,144.000 C 253.033,145.245 253.070,145.293 247.500,146.000" stroke-width="3.456" stroke="black" fill="none" stroke-linecap="round"></path><path d="M 247.500,146.000 C 242.010,146.710 242.033,146.745 236.500,147.000" stroke-width="3.477" stroke="black" fill="none" stroke-linecap="round"></path><path d="M 236.500,147.000 C 232.500,147.000 232.510,147.210 228.500,147.000" stroke-width="3.713" stroke="black" fill="none" stroke-linecap="round"></path><path d="M 228.500,147.000 C 225.000,147.000 225.000,147.000 221.500,147.000" stroke-width="3.899" stroke="black" fill="none" stroke-linecap="round"></path><path d="M 221.500,147.000 C 214.270,146.541 218.000,147.000 214.500,147.000" stroke-width="4.446" stroke="black" fill="none" stroke-linecap="round"></path><path d="M 348.500,67.000 C 352.491,68.038 352.500,68.000 356.500,69.000" stroke-width="5.073" stroke="black" fill="none" stroke-linecap="round"></path><path d="M 356.500,69.000 C 364.977,71.106 364.991,71.038 373.500,73.000" stroke-width="4.009" stroke="black" fill="none" stroke-linecap="round"></path><path d="M 373.500,73.000 C 378.474,74.162 378.477,74.106 383.500,75.000" stroke-width="3.707" stroke="black" fill="none" stroke-linecap="round"></path><path d="M 383.500,75.000 C 387.484,75.764 387.474,75.662 391.500,76.000" stroke-width="3.730" stroke="black" fill="none" stroke-linecap="round"></path><path d="M 391.500,76.000 C 396.025,75.702 395.984,76.264 400.500,76.000" stroke-width="3.744" stroke="black" fill="none" stroke-linecap="round"></path><path d="M 400.500,76.000 C 403.808,75.757 403.525,76.202 406.500,77.000" stroke-width="4.014" stroke="black" fill="none" stroke-linecap="round"></path><path d="M 406.500,77.000 C 410.732,78.925 410.308,78.757 413.500,82.000" stroke-width="4.335" stroke="black" fill="none" stroke-linecap="round"></path><path d="M 386.500,75.000 C 386.907,78.540 386.500,78.500 386.500,82.000" stroke-width="5.276" stroke="black" fill="none" stroke-linecap="round"></path><path d="M 386.500,82.000 C 386.048,87.163 385.907,87.040 384.500,92.000" stroke-width="3.907" stroke="black" fill="none" stroke-linecap="round"></path><path d="M 384.500,92.000 C 381.500,99.500 382.048,99.663 378.500,107.000" stroke-width="3.196" stroke="black" fill="none" stroke-linecap="round"></path><path d="M 378.500,107.000 C 375.050,114.351 375.500,114.500 372.500,122.000" stroke-width="2.971" stroke="black" fill="none" stroke-linecap="round"></path><path d="M 372.500,122.000 C 370.321,129.457 370.050,129.351 368.500,137.000" stroke-width="2.949" stroke="black" fill="none" stroke-linecap="round"></path><path d="M 368.500,137.000 C 366.510,143.930 366.821,143.957 365.500,151.000" stroke-width="3.021" stroke="black" fill="none" stroke-linecap="round"></path><path d="M 365.500,151.000 C 365.083,158.007 364.510,157.930 364.500,165.000" stroke-width="3.063" stroke="black" fill="none" stroke-linecap="round"></path><path d="M 364.500,165.000 C 363.795,169.990 364.083,170.007 363.500,175.000" stroke-width="3.379" stroke="black" fill="none" stroke-linecap="round"></path><path d="M 363.500,175.000 C 363.500,178.500 363.295,178.490 363.500,182.000" stroke-width="3.736" stroke="black" fill="none" stroke-linecap="round"></path><circle r="1.5" cx="319.5" cy="157" fill="black"></circle><circle r="1.5" cx="385.5" cy="171" fill="black"></circle></svg>