<svg xmlns="http://www.w3.org/2000/svg" xmlns:xlink="http://www.w3.org/1999/xlink" viewBox="0 0 453 236" width="453" height="236"><path d="M 172.500,168.000 C 168.239,164.580 168.000,165.500 163.500,163.000" stroke-width="4.237" stroke="black" fill="none" stroke-linecap="round"></path><path d="M 163.500,163.000 C 160.500,163.000 160.739,162.080 157.500,163.000" stroke-width="4.224" stroke="black" fill="none" stroke-linecap="round"></path><path d="M 157.500,163.000 C 154.000,163.000 154.000,163.000 150.500,163.000" stroke-width="4.053" stroke="black" fill="none" stroke-linecap="round"></path><path d="M 150.500,163.000 C 146.500,163.000 146.500,163.000 142.500,163.000" stroke-width="3.836" stroke="black" fill="none" stroke-linecap="round"></path><path d="M 142.500,163.000 C 138.456,163.440 138.500,163.000 134.500,163.000" stroke-width="3.775" stroke="black" fill="none" stroke-linecap="round"></path><path d="M 134.500,163.000 C 129.227,162.742 129.456,162.440 124.500,161.000" stroke-width="3.590" stroke="black" fill="none" stroke-linecap="round"></path><path d="M 124.500,161.000 C 120.000,158.500 119.727,159.242 115.500,156.000" stroke-width="3.471" stroke="black" fill="none" stroke-linecap="round"></path><path d="M 115.500,156.000 C 111.041,153.422 111.000,153.500 106.500,151.000" stroke-width="3.437" stroke="black" fill="none" stroke-linecap="round"></path><path d="M 106.500,151.000 C 103.500,149.500 103.541,149.422 100.500,148.000" stroke-width="3.789" stroke="black" fill="none" stroke-linecap="round"></path><path d="M 100.500,148.000 C 93.311,145.679 97.500,146.500 94.500,145.000" stroke-width="4.368" stroke="black" fill="none" stroke-linecap="round"></path><path d="M 94.500,145.000 C 101.075,144.989 96.811,143.679 107.500,144.000" stroke-width="4.593" stroke="black" fill="none" stroke-linecap="round"></path><path d="M 107.500,144.000 C 114.093,142.831 114.075,142.989 120.500,141.000" stroke-width="3.479" stroke="black" fill="none" stroke-linecap="round"></path><path d="M 120.500,141.000 C 128.121,138.821 128.093,138.831 135.500,136.000" stroke-width="3.125" stroke="black" fill="none" stroke-linecap="round"></path><path d="M 135.500,136.000 C 145.193,132.409 145.121,132.321 154.500,128.000" stroke-width="2.693" stroke="black" fill="none" stroke-linecap="round"></path><path d="M 154.500,128.000 C 163.951,122.904 164.193,123.409 173.500,118.000" stroke-width="2.544" stroke="black" fill="none" stroke-linecap="round"></path><path d="M 173.500,118.000 C 182.686,113.834 182.451,113.404 191.500,109.000" stroke-width="2.566" stroke="black" fill="none" stroke-linecap="round"></path><path d="M 191.500,109.000 C 197.892,104.812 198.186,105.334 204.500,101.000" stroke-width="2.832" stroke="black" fill="none" stroke-linecap="round"></path><path d="M 204.500,101.000 C 210.849,97.167 210.892,97.312 217.500,94.000" stroke-width="2.897" stroke="black" fill="none" stroke-linecap="round"></path><path d="M 217.500,94.000 C 221.429,92.253 221.349,92.167 225.500,91.000" stroke-width="3.557" stroke="black" fill="none" stroke-linecap="round"></path><path d="M 225.500,91.000 C 231.007,88.605 227.929,90.253 230.500,90.000" stroke-width="4.025" stroke="black" fill="none" stroke-linecap="round"></path><path d="M 230.500,90.000 C 226.483,96.419 229.007,94.105 221.500,102.000" stroke-width="4.245" stroke="black" fill="none" stroke-linecap="round"></path><path d="M 221.500,102.000 C 213.735,110.249 213.983,110.419 205.500,118.000" stroke-width="2.695" stroke="black" fill="none" stroke-linecap="round"></path><path d="M 205.500,118.000 C 196.123,125.610 196.735,126.249 187.500,134.000" stroke-width="2.364" stroke="black" fill="none" stroke-linecap="round"></path><path d="M 187.500,134.000 C 178.125,144.122 177.623,143.610 168.500,154.000" stroke-width="2.146" stroke="black" fill="none" stroke-linecap="round"></path><path d="M 168.500,154.000 C 159.125,163.628 159.125,163.622 149.500,173.000" stroke-width="2.113" stroke="black" fill="none" stroke-linecap="round"></path><path d="M 149.500,173.000 C 140.135,182.147 140.125,182.128 130.500,191.000" stroke-width="2.413" stroke="black" fill="none" stroke-linecap="round"></path><path d="M 130.500,191.000 C 121.787,199.352 121.635,199.147 112.500,207.000" stroke-width="2.293" stroke="black" fill="none" stroke-linecap="round"></path><path d="M 112.500,207.000 C 104.879,213.613 104.787,213.352 96.500,219.000" stroke-width="2.541" stroke="black" fill="none" stroke-linecap="round"></path><path d="M 96.500,219.000 C 90.793,222.902 90.879,222.613 84.500,225.000" stroke-width="2.883" stroke="black" fill="none" stroke-linecap="round"></path><path d="M 84.500,225.000 C 78.535,226.425 78.793,226.902 72.500,227.000" stroke-width="3.149" stroke="black" fill="none" stroke-linecap="round"></path><path d="M 72.500,227.000 C 68.000,227.000 68.035,227.425 63.500,227.000" stroke-width="3.501" stroke="black" fill="none" stroke-linecap="round"></path><path d="M 63.500,227.000 C 59.891,227.565 60.000,227.000 56.500,227.000" stroke-width="3.780" stroke="black" fill="none" stroke-linecap="round"></path><path d="M 56.500,227.000 C 50.785,226.572 53.891,226.565 51.500,225.000" stroke-width="4.474" stroke="black" fill="none" stroke-linecap="round"></path><path d="M 51.500,225.000 C 56.042,219.866 53.285,221.072 61.500,216.000" stroke-width="4.154" stroke="black" fill="none" stroke-linecap="round"></path><path d="M 61.500,216.000 C 68.389,211.793 68.042,211.366 75.500,208.000" stroke-width="3.105" stroke="black" fill="none" stroke-linecap="round"></path><path d="M 75.500,208.000 C 83.232,203.352 83.389,203.793 91.500,200.000" stroke-width="2.901" stroke="black" fill="none" stroke-linecap="round"></path><path d="M 91.500,200.000 C 101.831,195.862 101.732,195.852 112.500,193.000" stroke-width="2.565" stroke="black" fill="none" stroke-linecap="round"></path><path d="M 112.500,193.000 C 122.554,191.238 122.331,190.362 132.500,189.000" stroke-width="2.559" stroke="black" fill="none" stroke-linecap="round"></path><path d="M 132.500,189.000 C 142.500,186.500 142.554,186.738 152.500,184.000" stroke-width="2.603" stroke="black" fill="none" stroke-linecap="round"></path><path d="M 152.500,184.000 C 162.782,182.364 162.500,181.500 172.500,179.000" stroke-width="2.807" stroke="black" fill="none" stroke-linecap="round"></path><path d="M 172.500,179.000 C 188.892,173.260 188.782,173.364 204.500,166.000" stroke-width="2.241" stroke="black" fill="none" stroke-linecap="round"></path><path d="M 204.500,166.000 C 210.184,162.752 210.392,163.260 215.500,159.000" stroke-width="2.827" stroke="black" fill="none" stroke-linecap="round"></path><path d="M 215.500,159.000 C 219.079,156.959 218.684,156.752 221.500,154.000" stroke-width="3.433" stroke="black" fill="none" stroke-linecap="round"></path><path d="M 221.500,154.000 C 226.202,149.021 223.579,151.459 224.500,148.000" stroke-width="4.217" stroke="black" fill="none" stroke-linecap="round"></path><path d="M 224.500,148.000 C 217.750,146.750 221.202,146.021 211.500,148.000" stroke-width="4.088" stroke="black" fill="none" stroke-linecap="round"></path><path d="M 211.500,148.000 C 205.356,150.199 205.250,149.250 199.500,153.000" stroke-width="3.345" stroke="black" fill="none" stroke-linecap="round"></path><path d="M 199.500,153.000 C 194.000,156.000 193.856,155.699 188.500,159.000" stroke-width="3.270" stroke="black" fill="none" stroke-linecap="round"></path><path d="M 188.500,159.000 C 182.976,161.958 183.000,162.000 177.500,165.000" stroke-width="3.248" stroke="black" fill="none" stroke-linecap="round"></path><path d="M 177.500,165.000 C 173.696,166.603 173.976,166.958 170.500,169.000" stroke-width="3.625" stroke="black" fill="none" stroke-linecap="round"></path><path d="M 170.500,169.000 C 167.311,171.057 167.696,171.103 165.500,174.000" stroke-width="3.814" stroke="black" fill="none" stroke-linecap="round"></path><path d="M 165.500,174.000 C 160.429,180.117 163.311,177.557 162.500,182.000" stroke-width="4.249" stroke="black" fill="none" stroke-linecap="round"></path><path d="M 162.500,182.000 C 169.505,184.000 165.929,185.117 176.500,184.000" stroke-width="3.999" stroke="black" fill="none" stroke-linecap="round"></path><path d="M 176.500,184.000 C 183.538,184.385 183.005,184.000 189.500,182.000" stroke-width="3.314" stroke="black" fill="none" stroke-linecap="round"></path><path d="M 189.500,182.000 C 195.743,178.318 196.038,179.385 201.500,174.000" stroke-width="3.120" stroke="black" fill="none" stroke-linecap="round"></path><path d="M 201.500,174.000 C 205.355,170.316 205.743,170.818 209.500,167.000" stroke-width="3.836" stroke="black" fill="none" stroke-linecap="round"></path><path d="M 209.500,167.000 C 213.182,164.715 212.855,164.316 216.500,162.000" stroke-width="3.710" stroke="black" fill="none" stroke-linecap="round"></path><path d="M 216.500,162.000 C 220.710,157.580 218.682,160.215 220.500,158.000" stroke-width="4.011" stroke="black" fill="none" stroke-linecap="round"></path><path d="M 220.500,158.000 C 217.525,160.709 220.210,158.580 215.500,164.000" stroke-width="4.688" stroke="black" fill="none" stroke-linecap="round"></path><path d="M 215.500,164.000 C 210.482,169.655 213.525,167.209 212.500,171.000" stroke-width="4.605" stroke="black" fill="none" stroke-linecap="round"></path><path d="M 212.500,171.000 C 220.209,173.006 216.482,173.655 227.500,172.000" stroke-width="4.419" stroke="black" fill="none" stroke-linecap="round"></path><path d="M 227.500,172.000 C 234.583,169.707 234.709,171.006 241.500,167.000" stroke-width="3.247" stroke="black" fill="none" stroke-linecap="round"></path><path d="M 241.500,167.000 C 246.045,165.096 246.083,165.207 250.500,163.000" stroke-width="3.408" stroke="black" fill="none" stroke-linecap="round"></path><path d="M 250.500,163.000 C 254.360,160.592 254.545,161.096 258.500,159.000" stroke-width="3.767" stroke="black" fill="none" stroke-linecap="round"></path><path d="M 258.500,159.000 C 263.306,156.838 260.860,158.092 263.500,158.000" stroke-width="4.103" stroke="black" fill="none" stroke-linecap="round"></path><path d="M 263.500,158.000 C 258.034,163.115 263.806,159.838 259.500,165.000" stroke-width="4.695" stroke="black" fill="none" stroke-linecap="round"></path><path d="M 259.500,165.000 C 265.277,168.119 261.534,167.615 270.500,167.000" stroke-width="4.775" stroke="black" fill="none" stroke-linecap="round"></path><path d="M 270.500,167.000 C 279.246,163.461 279.277,165.119 287.500,159.000" stroke-width="3.079" stroke="black" fill="none" stroke-linecap="round"></path><path d="M 287.500,159.000 C 297.847,153.516 297.746,153.461 307.500,147.000" stroke-width="2.547" stroke="black" fill="none" stroke-linecap="round"></path><path d="M 307.500,147.000 C 317.823,139.895 317.847,140.016 327.500,132.000" stroke-width="2.649" stroke="black" fill="none" stroke-linecap="round"></path><path d="M 327.500,132.000 C 336.603,124.112 336.823,124.395 345.500,116.000" stroke-width="2.353" stroke="black" fill="none" stroke-linecap="round"></path><path d="M 345.500,116.000 C 353.492,108.491 353.603,108.612 361.500,101.000" stroke-width="2.478" stroke="black" fill="none" stroke-linecap="round"></path><path d="M 361.500,101.000 C 369.106,94.110 368.992,93.991 376.500,87.000" stroke-width="2.469" stroke="black" fill="none" stroke-linecap="round"></path><path d="M 376.500,87.000 C 382.306,81.771 382.106,81.610 387.500,76.000" stroke-width="2.829" stroke="black" fill="none" stroke-linecap="round"></path><path d="M 387.500,76.000 C 390.824,71.345 391.306,71.771 394.500,67.000" stroke-width="3.185" stroke="black" fill="none" stroke-linecap="round"></path><path d="M 394.500,67.000 C 399.167,63.667 396.324,64.845 398.500,63.000" stroke-width="3.846" stroke="black" fill="none" stroke-linecap="round"></path><path d="M 398.500,63.000 C 394.570,62.398 397.667,62.167 391.500,64.000" stroke-width="4.544" stroke="black" fill="none" stroke-linecap="round"></path><path d="M 391.500,64.000 C 383.399,69.358 383.070,68.398 375.500,75.000" stroke-width="3.080" stroke="black" fill="none" stroke-linecap="round"></path><path d="M 375.500,75.000 C 365.812,81.757 365.899,81.858 356.500,89.000" stroke-width="2.467" stroke="black" fill="none" stroke-linecap="round"></path><path d="M 356.500,89.000 C 343.524,99.530 343.312,99.257 330.500,110.000" stroke-width="2.038" stroke="black" fill="none" stroke-linecap="round"></path><path d="M 330.500,110.000 C 317.633,119.570 318.024,120.030 305.500,130.000" stroke-width="2.209" stroke="black" fill="none" stroke-linecap="round"></path><path d="M 305.500,130.000 C 289.148,144.154 289.133,144.070 273.500,159.000" stroke-width="1.735" stroke="black" fill="none" stroke-linecap="round"></path><path d="M 273.500,159.000 C 269.487,162.686 269.648,162.654 266.500,167.000" stroke-width="2.665" stroke="black" fill="none" stroke-linecap="round"></path><path d="M 266.500,167.000 C 262.892,171.123 264.987,169.186 264.500,172.000" stroke-width="3.618" stroke="black" fill="none" stroke-linecap="round"></path><path d="M 264.500,172.000 C 271.365,174.363 268.392,174.123 277.500,173.000" stroke-width="4.158" stroke="black" fill="none" stroke-linecap="round"></path><path d="M 277.500,173.000 C 284.726,169.900 284.865,171.363 291.500,166.000" stroke-width="3.141" stroke="black" fill="none" stroke-linecap="round"></path><path d="M 291.500,166.000 C 300.972,159.955 301.226,160.400 310.500,154.000" stroke-width="2.533" stroke="black" fill="none" stroke-linecap="round"></path><path d="M 310.500,154.000 C 316.749,149.510 316.972,149.955 323.500,146.000" stroke-width="2.820" stroke="black" fill="none" stroke-linecap="round"></path><path d="M 323.500,146.000 C 329.410,143.244 329.249,143.010 335.500,141.000" stroke-width="3.068" stroke="black" fill="none" stroke-linecap="round"></path><path d="M 335.500,141.000 C 340.832,137.571 338.910,139.744 342.500,139.000" stroke-width="3.705" stroke="black" fill="none" stroke-linecap="round"></path><path d="M 342.500,139.000 C 344.477,143.870 344.332,140.571 342.500,147.000" stroke-width="4.446" stroke="black" fill="none" stroke-linecap="round"></path><path d="M 342.500,147.000 C 336.550,152.555 338.477,153.370 330.500,158.000" stroke-width="3.139" stroke="black" fill="none" stroke-linecap="round"></path><path d="M 330.500,158.000 C 326.383,161.375 326.550,161.555 322.500,165.000" stroke-width="3.304" stroke="black" fill="none" stroke-linecap="round"></path><path d="M 322.500,165.000 C 319.000,168.500 318.883,168.375 315.500,172.000" stroke-width="3.422" stroke="black" fill="none" stroke-linecap="round"></path><path d="M 315.500,172.000 C 308.772,176.544 312.500,175.000 309.500,178.000" stroke-width="4.080" stroke="black" fill="none" stroke-linecap="round"></path><path d="M 309.500,178.000 C 314.207,179.073 310.272,179.544 318.500,178.000" stroke-width="4.312" stroke="black" fill="none" stroke-linecap="round"></path><path d="M 318.500,178.000 C 326.000,175.000 326.207,176.073 333.500,172.000" stroke-width="3.128" stroke="black" fill="none" stroke-linecap="round"></path><path d="M 333.500,172.000 C 340.851,168.550 341.000,169.000 348.500,166.000" stroke-width="2.890" stroke="black" fill="none" stroke-linecap="round"></path><path d="M 348.500,166.000 C 355.956,163.811 355.851,163.550 363.500,162.000" stroke-width="2.865" stroke="black" fill="none" stroke-linecap="round"></path><path d="M 363.500,162.000 C 368.480,160.886 368.456,160.811 373.500,160.000" stroke-width="3.292" stroke="black" fill="none" stroke-linecap="round"></path><path d="M 373.500,160.000 C 380.500,157.602 376.980,159.386 380.500,159.000" stroke-width="3.740" stroke="black" fill="none" stroke-linecap="round"></path><path d="M 380.500,159.000 C 377.369,163.407 380.500,161.102 373.500,167.000" stroke-width="4.451" stroke="black" fill="none" stroke-linecap="round"></path><path d="M 373.500,167.000 C 365.168,171.049 370.369,169.907 366.500,172.000" stroke-width="4.478" stroke="black" fill="none" stroke-linecap="round"></path><path d="M 366.500,172.000 C 373.611,172.827 368.668,173.549 380.500,172.000" stroke-width="4.419" stroke="black" fill="none" stroke-linecap="round"></path><path d="M 380.500,172.000 C 385.957,170.320 386.111,171.327 391.500,169.000" stroke-width="3.626" stroke="black" fill="none" stroke-linecap="round"></path><path d="M 391.500,169.000 C 396.562,168.234 396.457,167.820 401.500,167.000" stroke-width="3.490" stroke="black" fill="none" stroke-linecap="round"></path><path d="M 401.500,167.000 C 408.593,164.532 404.562,166.234 407.500,165.000" stroke-width="3.935" stroke="black" fill="none" stroke-linecap="round"></path><path d="M 407.500,165.000 C 400.982,167.454 405.093,166.032 394.500,170.000" stroke-width="4.513" stroke="black" fill="none" stroke-linecap="round"></path><path d="M 394.500,170.000 C 387.107,173.301 386.982,172.954 379.500,176.000" stroke-width="3.234" stroke="black" fill="none" stroke-linecap="round"></path><path d="M 379.500,176.000 C 371.611,178.920 371.607,178.801 363.500,181.000" stroke-width="2.942" stroke="black" fill="none" stroke-linecap="round"></path><path d="M 363.500,181.000 C 352.012,183.554 352.111,183.920 340.500,186.000" stroke-width="3.173" stroke="black" fill="none" stroke-linecap="round"></path><path d="M 340.500,186.000 C 311.983,191.919 312.012,192.054 283.500,198.000" stroke-width="1.549" stroke="black" fill="none" stroke-linecap="round"></path><path d="M 283.500,198.000 C 267.522,201.601 267.483,201.419 251.500,205.000" stroke-width="2.283" stroke="black" fill="none" stroke-linecap="round"></path><path d="M 251.500,205.000 C 234.545,208.729 234.522,208.601 217.500,212.000" stroke-width="1.961" stroke="black" fill="none" stroke-linecap="round"></path><path d="M 217.500,212.000 C 185.139,219.233 185.045,218.229 152.500,224.000" stroke-width="1.362" stroke="black" fill="none" stroke-linecap="round"></path><path d="M 152.500,224.000 C 140.505,224.733 140.639,225.733 128.500,225.000" stroke-width="1.958" stroke="black" fill="none" stroke-linecap="round"></path><path d="M 128.500,225.000 C 117.896,225.917 118.005,225.233 107.500,225.000" stroke-width="2.267" stroke="black" fill="none" stroke-linecap="round"></path><path d="M 107.500,225.000 C 100.863,223.937 100.896,224.417 94.500,222.000" stroke-width="2.865" stroke="black" fill="none" stroke-linecap="round"></path><path d="M 94.500,222.000 C 89.204,220.509 89.363,220.437 84.500,218.000" stroke-width="3.196" stroke="black" fill="none" stroke-linecap="round"></path><path d="M 84.500,218.000 C 81.594,216.355 81.704,216.509 79.500,214.000" stroke-width="3.730" stroke="black" fill="none" stroke-linecap="round"></path><path d="M 79.500,214.000 C 77.479,211.692 77.594,211.855 76.500,209.000" stroke-width="3.996" stroke="black" fill="none" stroke-linecap="round"></path><path d="M 76.500,209.000 C 75.132,205.945 75.479,206.192 75.500,203.000" stroke-width="4.098" stroke="black" fill="none" stroke-linecap="round"></path><path d="M 75.500,203.000 C 75.849,197.419 76.132,197.945 78.500,193.000" stroke-width="3.808" stroke="black" fill="none" stroke-linecap="round"></path><path d="M 78.500,193.000 C 85.021,182.115 84.849,182.419 93.500,173.000" stroke-width="2.589" stroke="black" fill="none" stroke-linecap="round"></path><path d="M 93.500,173.000 C 105.159,160.430 105.021,160.615 118.500,150.000" stroke-width="1.982" stroke="black" fill="none" stroke-linecap="round"></path><path d="M 118.500,150.000 C 133.037,139.231 132.659,138.930 148.500,130.000" stroke-width="1.798" stroke="black" fill="none" stroke-linecap="round"></path><path d="M 148.500,130.000 C 166.746,119.499 166.537,119.231 185.500,110.000" stroke-width="1.617" stroke="black" fill="none" stroke-linecap="round"></path><path d="M 185.500,110.000 C 205.028,99.340 205.246,99.999 225.500,91.000" stroke-width="1.528" stroke="black" fill="none" stroke-linecap="round"></path><path d="M 225.500,91.000 C 245.692,82.908 245.528,82.840 266.500,77.000" stroke-width="1.568" stroke="black" fill="none" stroke-linecap="round"></path><path d="M 266.500,77.000 C 286.371,71.808 286.192,71.408 306.500,68.000" stroke-width="1.624" stroke="black" fill="none" stroke-linecap="round"></path><path d="M 306.500,68.000 C 323.421,64.423 323.371,64.808 340.500,63.000" stroke-width="1.735" stroke="black" fill="none" stroke-linecap="round"></path><path d="M 340.500,63.000 C 353.579,62.099 353.421,61.923 366.500,63.000" stroke-width="2.050" stroke="black" fill="none" stroke-linecap="round"></path><path d="M 366.500,63.000 C 375.764,62.906 375.079,63.599 383.500,66.000" stroke-width="2.469" stroke="black" fill="none" stroke-linecap="round"></path><path d="M 383.500,66.000 C 389.534,68.577 388.264,67.906 391.500,73.000" stroke-width="3.089" stroke="black" fill="none" stroke-linecap="round"></path><path d="M 391.500,73.000 C 394.672,80.035 393.534,77.577 391.500,84.000" stroke-width="3.406" stroke="black" fill="none" stroke-linecap="round"></path><path d="M 391.500,84.000 C 380.511,95.108 382.672,95.035 367.500,103.000" stroke-width="2.219" stroke="black" fill="none" stroke-linecap="round"></path><path d="M 367.500,103.000 C 349.412,112.962 350.011,113.608 330.500,121.000" stroke-width="1.783" stroke="black" fill="none" stroke-linecap="round"></path><path d="M 330.500,121.000 C 309.249,129.750 309.412,129.962 287.500,137.000" stroke-width="1.540" stroke="black" fill="none" stroke-linecap="round"></path><path d="M 287.500,137.000 C 267.191,143.762 267.249,143.750 246.500,149.000" stroke-width="1.747" stroke="black" fill="none" stroke-linecap="round"></path><path d="M 246.500,149.000 C 227.673,154.424 227.691,153.762 208.500,157.000" stroke-width="1.723" stroke="black" fill="none" stroke-linecap="round"></path><path d="M 208.500,157.000 C 194.003,157.685 194.173,158.924 179.500,158.000" stroke-width="1.957" stroke="black" fill="none" stroke-linecap="round"></path><path d="M 179.500,158.000 C 170.683,159.461 171.003,158.185 162.500,158.000" stroke-width="2.439" stroke="black" fill="none" stroke-linecap="round"></path><path d="M 162.500,158.000 C 156.608,156.065 156.683,156.961 151.500,153.000" stroke-width="2.977" stroke="black" fill="none" stroke-linecap="round"></path><path d="M 151.500,153.000 C 146.270,150.948 149.108,151.565 147.500,149.000" stroke-width="3.751" stroke="black" fill="none" stroke-linecap="round"></path><path d="M 147.500,149.000 C 154.362,139.815 152.270,141.448 163.500,134.000" stroke-width="3.512" stroke="black" fill="none" stroke-linecap="round"></path><path d="M 163.500,134.000 C 177.407,127.292 176.362,125.815 191.500,121.000" stroke-width="2.362" stroke="black" fill="none" stroke-linecap="round"></path><path d="M 191.500,121.000 C 205.612,115.250 205.407,114.792 219.500,109.000" stroke-width="2.268" stroke="black" fill="none" stroke-linecap="round"></path></svg>