<svg xmlns="http://www.w3.org/2000/svg" xmlns:xlink="http://www.w3.org/1999/xlink" viewBox="0 0 1460 576" width="1460" height="576"><path d="M 767.000,339.000 C 756.101,341.852 756.000,341.000 745.000,343.000" stroke-width="3.953" stroke="black" fill="none" stroke-linecap="round"></path><path d="M 745.000,343.000 C 727.001,344.011 727.101,344.852 709.000,345.000" stroke-width="2.154" stroke="black" fill="none" stroke-linecap="round"></path><path d="M 709.000,345.000 C 681.498,346.472 681.501,346.511 654.000,348.000" stroke-width="1.499" stroke="black" fill="none" stroke-linecap="round"></path><path d="M 654.000,348.000 C 645.508,348.782 645.498,348.472 637.000,349.000" stroke-width="2.188" stroke="black" fill="none" stroke-linecap="round"></path><path d="M 637.000,349.000 C 626.000,349.000 626.008,349.282 615.000,349.000" stroke-width="2.311" stroke="black" fill="none" stroke-linecap="round"></path><path d="M 615.000,349.000 C 610.939,349.584 611.000,349.000 607.000,349.000" stroke-width="3.527" stroke="black" fill="none" stroke-linecap="round"></path><path d="M 607.000,349.000 C 597.566,346.594 597.439,347.584 588.000,345.000" stroke-width="4.392" stroke="black" fill="none" stroke-linecap="round"></path><path d="M 588.000,345.000 C 579.503,343.972 579.566,343.594 571.000,343.000" stroke-width="3.144" stroke="black" fill="none" stroke-linecap="round"></path><path d="M 571.000,343.000 C 561.911,342.550 562.003,341.972 553.000,341.000" stroke-width="2.837" stroke="black" fill="none" stroke-linecap="round"></path><path d="M 553.000,341.000 C 538.296,340.102 538.911,338.550 525.000,335.000" stroke-width="2.208" stroke="black" fill="none" stroke-linecap="round"></path><path d="M 525.000,335.000 C 496.474,320.308 495.296,323.602 467.000,308.000" stroke-width="1.994" stroke="black" fill="none" stroke-linecap="round"></path><path d="M 467.000,308.000 C 450.174,303.249 450.974,301.308 434.000,297.000" stroke-width="1.888" stroke="black" fill="none" stroke-linecap="round"></path><path d="M 434.000,297.000 C 428.446,294.097 428.174,294.749 423.000,291.000" stroke-width="2.666" stroke="black" fill="none" stroke-linecap="round"></path><path d="M 423.000,291.000 C 403.894,276.906 402.946,279.597 383.000,268.000" stroke-width="2.433" stroke="black" fill="none" stroke-linecap="round"></path><path d="M 383.000,268.000 C 372.542,265.904 373.394,263.906 362.000,265.000" stroke-width="2.536" stroke="black" fill="none" stroke-linecap="round"></path><path d="M 362.000,265.000 C 354.848,263.767 355.042,264.404 348.000,265.000" stroke-width="2.844" stroke="black" fill="none" stroke-linecap="round"></path><path d="M 348.000,265.000 C 329.568,268.393 329.848,268.267 312.000,274.000" stroke-width="2.704" stroke="black" fill="none" stroke-linecap="round"></path><path d="M 312.000,274.000 C 306.670,277.354 306.068,275.893 301.000,280.000" stroke-width="3.105" stroke="black" fill="none" stroke-linecap="round"></path><path d="M 301.000,280.000 C 291.588,284.233 291.670,284.354 282.000,288.000" stroke-width="2.688" stroke="black" fill="none" stroke-linecap="round"></path><path d="M 282.000,288.000 C 277.584,289.854 277.588,289.733 273.000,291.000" stroke-width="3.228" stroke="black" fill="none" stroke-linecap="round"></path><path d="M 273.000,291.000 C 264.750,293.875 269.584,291.854 266.000,292.000" stroke-width="4.097" stroke="black" fill="none" stroke-linecap="round"></path><path d="M 266.000,292.000 C 274.662,281.337 270.750,284.875 285.000,273.000" stroke-width="3.780" stroke="black" fill="none" stroke-linecap="round"></path><path d="M 285.000,273.000 C 290.720,269.243 290.162,268.837 297.000,267.000" stroke-width="3.245" stroke="black" fill="none" stroke-linecap="round"></path><path d="M 297.000,267.000 C 304.896,264.351 304.720,264.243 313.000,263.000" stroke-width="2.962" stroke="black" fill="none" stroke-linecap="round"></path><path d="M 313.000,263.000 C 320.007,262.000 319.896,261.851 327.000,262.000" stroke-width="2.986" stroke="black" fill="none" stroke-linecap="round"></path><path d="M 327.000,262.000 C 334.160,260.160 332.007,262.000 337.000,263.000" stroke-width="3.350" stroke="black" fill="none" stroke-linecap="round"></path><path d="M 337.000,263.000 C 340.056,268.985 340.160,266.160 339.000,274.000" stroke-width="4.145" stroke="black" fill="none" stroke-linecap="round"></path><path d="M 339.000,274.000 C 336.393,278.365 338.056,278.485 333.000,282.000" stroke-width="3.642" stroke="black" fill="none" stroke-linecap="round"></path><path d="M 333.000,282.000 C 329.370,286.087 329.393,285.865 325.000,289.000" stroke-width="3.454" stroke="black" fill="none" stroke-linecap="round"></path><path d="M 325.000,289.000 C 318.000,290.500 321.870,291.087 318.000,292.000" stroke-width="3.745" stroke="black" fill="none" stroke-linecap="round"></path><path d="M 318.000,292.000 C 321.239,294.929 318.000,293.500 325.000,295.000" stroke-width="4.585" stroke="black" fill="none" stroke-linecap="round"></path><path d="M 325.000,295.000 C 348.023,294.368 347.739,295.429 371.000,293.000" stroke-width="1.898" stroke="black" fill="none" stroke-linecap="round"></path><path d="M 371.000,293.000 C 389.981,291.204 390.023,291.868 409.000,290.000" stroke-width="1.727" stroke="black" fill="none" stroke-linecap="round"></path><path d="M 409.000,290.000 C 429.606,290.147 429.481,288.704 450.000,288.000" stroke-width="1.620" stroke="black" fill="none" stroke-linecap="round"></path><path d="M 450.000,288.000 C 487.218,286.044 486.606,284.147 523.000,278.000" stroke-width="1.133" stroke="black" fill="none" stroke-linecap="round"></path><path d="M 523.000,278.000 C 550.982,268.448 551.718,271.544 579.000,259.000" stroke-width="1.178" stroke="black" fill="none" stroke-linecap="round"></path><path d="M 579.000,259.000 C 593.840,253.422 593.982,253.948 609.000,249.000" stroke-width="1.600" stroke="black" fill="none" stroke-linecap="round"></path><path d="M 609.000,249.000 C 618.007,247.031 617.840,246.422 627.000,245.000" stroke-width="2.237" stroke="black" fill="none" stroke-linecap="round"></path><path d="M 627.000,245.000 C 633.431,242.896 633.507,243.531 640.000,242.000" stroke-width="2.807" stroke="black" fill="none" stroke-linecap="round"></path><path d="M 640.000,242.000 C 644.500,242.000 644.431,241.396 649.000,242.000" stroke-width="3.319" stroke="black" fill="none" stroke-linecap="round"></path><path d="M 649.000,242.000 C 653.000,242.000 653.000,242.000 657.000,242.000" stroke-width="3.658" stroke="black" fill="none" stroke-linecap="round"></path><path d="M 657.000,242.000 C 660.167,241.292 660.000,242.000 663.000,242.000" stroke-width="3.994" stroke="black" fill="none" stroke-linecap="round"></path><path d="M 663.000,242.000 C 666.893,242.658 666.167,242.792 669.000,245.000" stroke-width="4.624" stroke="black" fill="none" stroke-linecap="round"></path><path d="M 669.000,245.000 C 670.664,248.438 671.393,247.658 672.000,252.000" stroke-width="4.080" stroke="black" fill="none" stroke-linecap="round"></path><path d="M 672.000,252.000 C 673.585,256.474 673.664,256.438 675.000,261.000" stroke-width="3.740" stroke="black" fill="none" stroke-linecap="round"></path><path d="M 675.000,261.000 C 675.153,264.998 676.085,264.474 677.000,268.000" stroke-width="3.773" stroke="black" fill="none" stroke-linecap="round"></path><path d="M 677.000,268.000 C 679.303,272.152 679.153,271.498 683.000,274.000" stroke-width="3.808" stroke="black" fill="none" stroke-linecap="round"></path><path d="M 683.000,274.000 C 690.737,278.388 690.303,277.652 699.000,279.000" stroke-width="2.997" stroke="black" fill="none" stroke-linecap="round"></path><path d="M 699.000,279.000 C 718.005,278.644 717.737,280.388 737.000,278.000" stroke-width="1.922" stroke="black" fill="none" stroke-linecap="round"></path><path d="M 737.000,278.000 C 747.553,278.092 747.505,277.644 758.000,277.000" stroke-width="2.348" stroke="black" fill="none" stroke-linecap="round"></path><path d="M 758.000,277.000 C 780.897,272.414 781.053,274.592 804.000,271.000" stroke-width="1.631" stroke="black" fill="none" stroke-linecap="round"></path><path d="M 804.000,271.000 C 830.119,269.620 829.897,269.414 856.000,271.000" stroke-width="1.451" stroke="black" fill="none" stroke-linecap="round"></path><path d="M 856.000,271.000 C 867.446,273.382 867.619,271.620 879.000,275.000" stroke-width="1.992" stroke="black" fill="none" stroke-linecap="round"></path><path d="M 879.000,275.000 C 892.556,276.124 892.446,276.882 906.000,278.000" stroke-width="2.056" stroke="black" fill="none" stroke-linecap="round"></path><path d="M 906.000,278.000 C 913.992,279.544 914.056,279.124 922.000,281.000" stroke-width="2.567" stroke="black" fill="none" stroke-linecap="round"></path><path d="M 922.000,281.000 C 925.114,281.112 924.992,281.544 928.000,282.000" stroke-width="3.499" stroke="black" fill="none" stroke-linecap="round"></path><path d="M 928.000,282.000 C 931.956,282.826 931.614,283.112 935.000,285.000" stroke-width="4.458" stroke="black" fill="none" stroke-linecap="round"></path><path d="M 935.000,285.000 C 937.450,291.035 938.956,287.826 942.000,292.000" stroke-width="3.721" stroke="black" fill="none" stroke-linecap="round"></path><path d="M 942.000,292.000 C 955.018,291.423 953.950,294.535 968.000,292.000" stroke-width="4.544" stroke="black" fill="none" stroke-linecap="round"></path><path d="M 968.000,292.000 C 1000.300,291.435 1000.018,293.423 1032.000,296.000" stroke-width="2.313" stroke="black" fill="none" stroke-linecap="round"></path><path d="M 1032.000,296.000 C 1125.089,311.516 1125.300,309.435 1218.000,328.000" stroke-width="1.125" stroke="black" fill="none" stroke-linecap="round"></path><path d="M 1218.000,328.000 C 1248.858,334.909 1249.089,333.516 1280.000,340.000" stroke-width="1.125" stroke="black" fill="none" stroke-linecap="round"></path><path d="M 1280.000,340.000 C 1300.924,343.775 1300.858,343.409 1322.000,345.000" stroke-width="1.275" stroke="black" fill="none" stroke-linecap="round"></path><path d="M 1322.000,345.000 C 1344.016,345.393 1343.924,346.275 1366.000,345.000" stroke-width="1.425" stroke="black" fill="none" stroke-linecap="round"></path><path d="M 1366.000,345.000 C 1372.079,344.935 1372.016,344.893 1378.000,344.000" stroke-width="2.333" stroke="black" fill="none" stroke-linecap="round"></path><path d="M 1378.000,344.000 C 1385.625,342.000 1381.579,343.435 1385.000,342.000" stroke-width="3.229" stroke="black" fill="none" stroke-linecap="round"></path><path d="M 1385.000,342.000 C 1380.080,343.909 1384.125,342.000 1375.000,344.000" stroke-width="4.476" stroke="black" fill="none" stroke-linecap="round"></path><path d="M 1375.000,344.000 C 1351.973,344.121 1352.080,344.409 1329.000,343.000" stroke-width="1.820" stroke="black" fill="none" stroke-linecap="round"></path><path d="M 1329.000,343.000 C 1290.527,339.993 1290.473,341.121 1252.000,338.000" stroke-width="1.125" stroke="black" fill="none" stroke-linecap="round"></path><path d="M 1252.000,338.000 C 1203.528,334.628 1203.527,335.493 1155.000,334.000" stroke-width="1.125" stroke="black" fill="none" stroke-linecap="round"></path><path d="M 1155.000,334.000 C 1048.744,328.631 1049.028,332.628 943.000,334.000" stroke-width="1.125" stroke="black" fill="none" stroke-linecap="round"></path><path d="M 943.000,334.000 C 822.426,344.779 822.244,340.131 702.000,357.000" stroke-width="1.125" stroke="black" fill="none" stroke-linecap="round"></path><path d="M 702.000,357.000 C 620.512,366.115 620.426,365.279 539.000,375.000" stroke-width="1.125" stroke="black" fill="none" stroke-linecap="round"></path><path d="M 539.000,375.000 C 515.055,378.218 515.012,377.615 491.000,380.000" stroke-width="1.125" stroke="black" fill="none" stroke-linecap="round"></path><path d="M 491.000,380.000 C 461.004,381.657 461.055,382.218 431.000,383.000" stroke-width="1.512" stroke="black" fill="none" stroke-linecap="round"></path><path d="M 431.000,383.000 C 427.482,383.249 427.504,383.157 424.000,383.000" stroke-width="2.674" stroke="black" fill="none" stroke-linecap="round"></path><path d="M 424.000,383.000 C 420.504,382.467 420.482,382.749 417.000,382.000" stroke-width="3.467" stroke="black" fill="none" stroke-linecap="round"></path><path d="M 417.000,382.000 C 407.797,383.285 413.004,381.467 409.000,381.000" stroke-width="4.158" stroke="black" fill="none" stroke-linecap="round"></path><path d="M 409.000,381.000 C 417.138,370.938 412.797,373.785 427.000,363.000" stroke-width="4.857" stroke="black" fill="none" stroke-linecap="round"></path><path d="M 427.000,363.000 C 437.648,353.867 437.638,354.438 450.000,348.000" stroke-width="2.501" stroke="black" fill="none" stroke-linecap="round"></path><path d="M 450.000,348.000 C 478.562,336.652 477.648,334.867 507.000,325.000" stroke-width="1.440" stroke="black" fill="none" stroke-linecap="round"></path><path d="M 507.000,325.000 C 549.758,304.801 550.562,307.152 594.000,289.000" stroke-width="1.125" stroke="black" fill="none" stroke-linecap="round"></path><path d="M 594.000,289.000 C 620.479,281.919 619.758,279.801 647.000,275.000" stroke-width="1.215" stroke="black" fill="none" stroke-linecap="round"></path><path d="M 647.000,275.000 C 667.185,272.056 666.479,269.919 686.000,265.000" stroke-width="1.539" stroke="black" fill="none" stroke-linecap="round"></path><path d="M 686.000,265.000 C 746.420,239.801 747.185,242.056 807.000,215.000" stroke-width="1.125" stroke="black" fill="none" stroke-linecap="round"></path><path d="M 807.000,215.000 C 820.784,208.839 820.920,209.301 835.000,204.000" stroke-width="1.552" stroke="black" fill="none" stroke-linecap="round"></path><path d="M 835.000,204.000 C 844.419,201.129 844.284,200.839 854.000,199.000" stroke-width="2.125" stroke="black" fill="none" stroke-linecap="round"></path><path d="M 854.000,199.000 C 862.500,196.000 862.419,197.129 871.000,196.000" stroke-width="2.551" stroke="black" fill="none" stroke-linecap="round"></path><path d="M 871.000,196.000 C 879.777,196.757 879.500,196.000 888.000,199.000" stroke-width="3.256" stroke="black" fill="none" stroke-linecap="round"></path><path d="M 888.000,199.000 C 890.500,200.500 890.777,199.757 893.000,202.000" stroke-width="3.857" stroke="black" fill="none" stroke-linecap="round"></path><path d="M 893.000,202.000 C 897.026,202.497 895.500,203.500 898.000,205.000" stroke-width="4.460" stroke="black" fill="none" stroke-linecap="round"></path><path d="M 898.000,205.000 C 900.913,212.698 900.526,211.497 900.000,220.000" stroke-width="4.582" stroke="black" fill="none" stroke-linecap="round"></path><path d="M 900.000,220.000 C 899.318,229.961 898.913,228.698 894.000,237.000" stroke-width="3.029" stroke="black" fill="none" stroke-linecap="round"></path><path d="M 894.000,237.000 C 881.502,252.777 882.318,252.461 866.000,265.000" stroke-width="1.948" stroke="black" fill="none" stroke-linecap="round"></path><path d="M 866.000,265.000 C 827.004,290.720 829.502,293.777 790.000,319.000" stroke-width="1.125" stroke="black" fill="none" stroke-linecap="round"></path><path d="M 790.000,319.000 C 768.671,342.142 765.504,337.720 743.000,359.000" stroke-width="1.125" stroke="black" fill="none" stroke-linecap="round"></path><path d="M 743.000,359.000 C 698.707,381.764 701.671,386.142 656.000,407.000" stroke-width="1.243" stroke="black" fill="none" stroke-linecap="round"></path><path d="M 656.000,407.000 C 644.807,416.001 643.707,414.264 633.000,424.000" stroke-width="1.775" stroke="black" fill="none" stroke-linecap="round"></path><path d="M 633.000,424.000 C 624.365,429.747 629.307,426.501 625.000,428.000" stroke-width="2.754" stroke="black" fill="none" stroke-linecap="round"></path><path d="M 625.000,428.000 C 629.068,417.977 626.365,424.247 637.000,413.000" stroke-width="3.544" stroke="black" fill="none" stroke-linecap="round"></path><path d="M 637.000,413.000 C 655.801,401.644 654.568,401.977 676.000,396.000" stroke-width="1.921" stroke="black" fill="none" stroke-linecap="round"></path><path d="M 676.000,396.000 C 690.486,394.581 689.801,392.144 705.000,394.000" stroke-width="1.974" stroke="black" fill="none" stroke-linecap="round"></path><path d="M 705.000,394.000 C 715.511,393.700 715.486,393.581 726.000,394.000" stroke-width="2.325" stroke="black" fill="none" stroke-linecap="round"></path><path d="M 726.000,394.000 C 732.992,394.720 733.011,394.200 740.000,395.000" stroke-width="3.280" stroke="black" fill="none" stroke-linecap="round"></path><path d="M 740.000,395.000 C 745.603,395.635 745.492,395.220 751.000,395.000" stroke-width="4.375" stroke="black" fill="none" stroke-linecap="round"></path><path d="M 751.000,395.000 C 753.955,393.830 754.103,394.635 757.000,393.000" stroke-width="4.179" stroke="black" fill="none" stroke-linecap="round"></path><path d="M 757.000,393.000 C 759.625,392.864 759.455,392.330 762.000,392.000" stroke-width="4.281" stroke="black" fill="none" stroke-linecap="round"></path><path d="M 762.000,392.000 C 765.473,391.106 765.125,390.864 768.000,389.000" stroke-width="4.054" stroke="black" fill="none" stroke-linecap="round"></path><path d="M 768.000,389.000 C 771.121,385.599 771.473,386.106 774.000,382.000" stroke-width="3.637" stroke="black" fill="none" stroke-linecap="round"></path><path d="M 774.000,382.000 C 780.593,372.641 781.121,373.099 788.000,364.000" stroke-width="2.675" stroke="black" fill="none" stroke-linecap="round"></path><path d="M 788.000,364.000 C 792.837,358.818 792.593,358.641 798.000,354.000" stroke-width="3.314" stroke="black" fill="none" stroke-linecap="round"></path></svg>