<svg xmlns="http://www.w3.org/2000/svg" xmlns:xlink="http://www.w3.org/1999/xlink" viewBox="0 0 453 236" width="453" height="236"><path d="M 136.500,130.000 C 133.102,127.801 133.000,128.000 129.500,126.000" stroke-width="5.355" stroke="black" fill="none" stroke-linecap="round"></path><path d="M 129.500,126.000 C 123.729,123.941 124.102,123.301 118.500,121.000" stroke-width="4.545" stroke="black" fill="none" stroke-linecap="round"></path><path d="M 118.500,121.000 C 116.216,118.630 115.729,119.441 113.500,117.000" stroke-width="4.675" stroke="black" fill="none" stroke-linecap="round"></path><path d="M 113.500,117.000 C 108.296,116.428 111.216,115.630 108.500,115.000" stroke-width="4.800" stroke="black" fill="none" stroke-linecap="round"></path><path d="M 108.500,115.000 C 111.265,112.157 108.796,112.928 114.500,110.000" stroke-width="5.145" stroke="black" fill="none" stroke-linecap="round"></path><path d="M 114.500,110.000 C 118.981,107.465 118.765,107.157 123.500,105.000" stroke-width="3.729" stroke="black" fill="none" stroke-linecap="round"></path><path d="M 123.500,105.000 C 130.127,101.717 129.981,101.465 136.500,98.000" stroke-width="3.128" stroke="black" fill="none" stroke-linecap="round"></path><path d="M 136.500,98.000 C 142.044,94.567 142.127,94.717 147.500,91.000" stroke-width="3.108" stroke="black" fill="none" stroke-linecap="round"></path><path d="M 147.500,91.000 C 154.848,85.737 155.044,86.067 162.500,81.000" stroke-width="3.461" stroke="black" fill="none" stroke-linecap="round"></path><path d="M 162.500,81.000 C 165.541,79.578 165.348,79.237 168.500,78.000" stroke-width="3.843" stroke="black" fill="none" stroke-linecap="round"></path><path d="M 168.500,78.000 C 175.557,72.167 173.041,75.578 177.500,73.000" stroke-width="4.144" stroke="black" fill="none" stroke-linecap="round"></path><path d="M 177.500,73.000 C 177.308,77.384 179.057,73.667 175.500,81.000" stroke-width="4.790" stroke="black" fill="none" stroke-linecap="round"></path><path d="M 175.500,81.000 C 172.382,84.917 173.308,85.384 169.500,89.000" stroke-width="3.842" stroke="black" fill="none" stroke-linecap="round"></path><path d="M 169.500,89.000 C 166.741,93.678 166.382,93.417 163.500,98.000" stroke-width="3.488" stroke="black" fill="none" stroke-linecap="round"></path><path d="M 163.500,98.000 C 159.306,103.777 159.241,103.678 154.500,109.000" stroke-width="3.115" stroke="black" fill="none" stroke-linecap="round"></path><path d="M 154.500,109.000 C 148.181,116.856 147.806,116.277 140.500,123.000" stroke-width="2.669" stroke="black" fill="none" stroke-linecap="round"></path><path d="M 140.500,123.000 C 132.405,127.853 133.181,128.856 124.500,133.000" stroke-width="2.607" stroke="black" fill="none" stroke-linecap="round"></path><path d="M 124.500,133.000 C 110.820,141.750 110.905,141.853 97.500,151.000" stroke-width="2.791" stroke="black" fill="none" stroke-linecap="round"></path><path d="M 97.500,151.000 C 93.080,154.607 92.820,154.250 88.500,158.000" stroke-width="3.171" stroke="black" fill="none" stroke-linecap="round"></path><path d="M 88.500,158.000 C 79.509,164.513 79.580,164.607 70.500,171.000" stroke-width="3.274" stroke="black" fill="none" stroke-linecap="round"></path><path d="M 70.500,171.000 C 67.152,173.753 67.009,173.513 63.500,176.000" stroke-width="3.584" stroke="black" fill="none" stroke-linecap="round"></path><path d="M 63.500,176.000 C 60.588,177.713 60.652,177.753 57.500,179.000" stroke-width="3.841" stroke="black" fill="none" stroke-linecap="round"></path><path d="M 57.500,179.000 C 54.579,180.487 54.588,180.213 51.500,181.000" stroke-width="4.061" stroke="black" fill="none" stroke-linecap="round"></path><path d="M 51.500,181.000 C 48.484,181.230 48.579,181.487 45.500,181.000" stroke-width="4.208" stroke="black" fill="none" stroke-linecap="round"></path><path d="M 45.500,181.000 C 40.824,181.743 41.984,180.730 38.500,180.000" stroke-width="4.496" stroke="black" fill="none" stroke-linecap="round"></path><path d="M 38.500,180.000 C 36.662,177.095 36.824,178.743 37.500,175.000" stroke-width="4.753" stroke="black" fill="none" stroke-linecap="round"></path><path d="M 37.500,175.000 C 39.594,171.937 38.662,172.095 42.500,170.000" stroke-width="4.123" stroke="black" fill="none" stroke-linecap="round"></path><path d="M 42.500,170.000 C 47.719,167.868 47.094,166.937 52.500,165.000" stroke-width="3.519" stroke="black" fill="none" stroke-linecap="round"></path><path d="M 52.500,165.000 C 57.390,161.333 57.719,161.868 62.500,158.000" stroke-width="3.400" stroke="black" fill="none" stroke-linecap="round"></path><path d="M 62.500,158.000 C 69.000,154.000 68.890,153.833 75.500,150.000" stroke-width="3.018" stroke="black" fill="none" stroke-linecap="round"></path><path d="M 75.500,150.000 C 81.784,145.598 82.000,146.000 88.500,142.000" stroke-width="2.919" stroke="black" fill="none" stroke-linecap="round"></path><path d="M 88.500,142.000 C 95.825,138.070 95.784,138.098 103.500,135.000" stroke-width="2.927" stroke="black" fill="none" stroke-linecap="round"></path><path d="M 103.500,135.000 C 113.500,131.500 113.325,131.070 123.500,128.000" stroke-width="2.617" stroke="black" fill="none" stroke-linecap="round"></path><path d="M 123.500,128.000 C 133.478,124.436 133.500,124.500 143.500,121.000" stroke-width="2.476" stroke="black" fill="none" stroke-linecap="round"></path><path d="M 143.500,121.000 C 151.027,118.577 150.978,118.436 158.500,116.000" stroke-width="2.767" stroke="black" fill="none" stroke-linecap="round"></path><path d="M 158.500,116.000 C 165.383,113.076 165.527,113.577 172.500,111.000" stroke-width="2.927" stroke="black" fill="none" stroke-linecap="round"></path><path d="M 172.500,111.000 C 177.489,109.940 177.383,109.576 182.500,109.000" stroke-width="3.265" stroke="black" fill="none" stroke-linecap="round"></path><path d="M 182.500,109.000 C 185.508,108.544 185.489,108.440 188.500,108.000" stroke-width="3.834" stroke="black" fill="none" stroke-linecap="round"></path><path d="M 188.500,108.000 C 194.699,107.000 191.008,107.544 193.500,107.000" stroke-width="4.517" stroke="black" fill="none" stroke-linecap="round"></path><path d="M 193.500,107.000 C 186.362,106.807 190.199,107.000 179.500,108.000" stroke-width="4.386" stroke="black" fill="none" stroke-linecap="round"></path><path d="M 179.500,108.000 C 174.809,109.061 174.862,108.807 170.500,111.000" stroke-width="3.750" stroke="black" fill="none" stroke-linecap="round"></path><path d="M 170.500,111.000 C 164.938,113.892 164.809,113.561 159.500,117.000" stroke-width="3.436" stroke="black" fill="none" stroke-linecap="round"></path><path d="M 159.500,117.000 C 154.304,119.713 154.438,119.892 149.500,123.000" stroke-width="3.306" stroke="black" fill="none" stroke-linecap="round"></path><path d="M 149.500,123.000 C 145.131,126.692 144.804,126.213 140.500,130.000" stroke-width="3.537" stroke="black" fill="none" stroke-linecap="round"></path><path d="M 140.500,130.000 C 137.883,131.332 138.131,131.692 135.500,133.000" stroke-width="3.969" stroke="black" fill="none" stroke-linecap="round"></path><path d="M 135.500,133.000 C 129.590,135.361 132.883,134.832 130.500,137.000" stroke-width="4.475" stroke="black" fill="none" stroke-linecap="round"></path><path d="M 130.500,137.000 C 135.172,140.890 132.090,139.861 140.500,142.000" stroke-width="4.536" stroke="black" fill="none" stroke-linecap="round"></path><path d="M 140.500,142.000 C 147.508,142.241 147.172,143.390 154.500,142.000" stroke-width="3.412" stroke="black" fill="none" stroke-linecap="round"></path><path d="M 154.500,142.000 C 162.297,142.739 162.008,141.741 169.500,141.000" stroke-width="3.037" stroke="black" fill="none" stroke-linecap="round"></path><path d="M 169.500,141.000 C 176.923,138.717 176.797,139.239 183.500,135.000" stroke-width="2.987" stroke="black" fill="none" stroke-linecap="round"></path><path d="M 183.500,135.000 C 188.049,131.561 188.423,132.217 192.500,128.000" stroke-width="3.293" stroke="black" fill="none" stroke-linecap="round"></path><path d="M 192.500,128.000 C 196.430,126.105 195.549,125.561 198.500,123.000" stroke-width="3.619" stroke="black" fill="none" stroke-linecap="round"></path><path d="M 198.500,123.000 C 202.065,117.565 200.430,120.105 200.500,116.000" stroke-width="4.259" stroke="black" fill="none" stroke-linecap="round"></path><path d="M 200.500,116.000 C 195.698,114.834 198.565,114.065 191.500,116.000" stroke-width="4.593" stroke="black" fill="none" stroke-linecap="round"></path><path d="M 191.500,116.000 C 186.954,118.421 186.698,117.334 182.500,121.000" stroke-width="3.772" stroke="black" fill="none" stroke-linecap="round"></path><path d="M 182.500,121.000 C 177.443,123.910 177.454,123.921 172.500,127.000" stroke-width="3.456" stroke="black" fill="none" stroke-linecap="round"></path><path d="M 172.500,127.000 C 169.302,128.758 169.443,128.910 166.500,131.000" stroke-width="3.787" stroke="black" fill="none" stroke-linecap="round"></path><path d="M 166.500,131.000 C 162.244,133.463 164.302,132.758 162.500,135.000" stroke-width="4.457" stroke="black" fill="none" stroke-linecap="round"></path><path d="M 162.500,135.000 C 164.899,136.527 162.744,136.463 167.500,137.000" stroke-width="4.953" stroke="black" fill="none" stroke-linecap="round"></path><path d="M 167.500,137.000 C 170.500,137.000 170.399,137.527 173.500,137.000" stroke-width="4.368" stroke="black" fill="none" stroke-linecap="round"></path><path d="M 173.500,137.000 C 177.152,137.788 177.000,137.000 180.500,137.000" stroke-width="4.039" stroke="black" fill="none" stroke-linecap="round"></path><path d="M 180.500,137.000 C 185.903,135.717 185.652,135.788 190.500,133.000" stroke-width="3.540" stroke="black" fill="none" stroke-linecap="round"></path><path d="M 190.500,133.000 C 196.855,128.909 196.903,129.217 202.500,124.000" stroke-width="3.135" stroke="black" fill="none" stroke-linecap="round"></path><path d="M 202.500,124.000 C 207.885,118.381 208.355,118.909 213.500,113.000" stroke-width="2.931" stroke="black" fill="none" stroke-linecap="round"></path><path d="M 213.500,113.000 C 219.694,106.633 219.885,106.881 226.500,101.000" stroke-width="2.744" stroke="black" fill="none" stroke-linecap="round"></path><path d="M 226.500,101.000 C 234.500,95.000 234.194,94.633 242.500,89.000" stroke-width="2.630" stroke="black" fill="none" stroke-linecap="round"></path><path d="M 242.500,89.000 C 248.622,84.654 248.500,84.500 254.500,80.000" stroke-width="2.816" stroke="black" fill="none" stroke-linecap="round"></path><path d="M 254.500,80.000 C 260.873,75.392 260.622,75.154 266.500,70.000" stroke-width="2.837" stroke="black" fill="none" stroke-linecap="round"></path><path d="M 266.500,70.000 C 273.133,63.900 272.873,63.892 278.500,57.000" stroke-width="3.368" stroke="black" fill="none" stroke-linecap="round"></path><path d="M 278.500,57.000 C 281.185,54.056 280.133,54.900 280.500,52.000" stroke-width="3.988" stroke="black" fill="none" stroke-linecap="round"></path><path d="M 280.500,52.000 C 278.184,47.808 279.685,49.556 275.500,48.000" stroke-width="4.631" stroke="black" fill="none" stroke-linecap="round"></path><path d="M 275.500,48.000 C 270.374,49.707 271.184,48.308 266.500,53.000" stroke-width="3.948" stroke="black" fill="none" stroke-linecap="round"></path><path d="M 266.500,53.000 C 261.000,59.000 260.374,58.207 255.500,65.000" stroke-width="3.058" stroke="black" fill="none" stroke-linecap="round"></path><path d="M 255.500,65.000 C 250.038,71.036 250.000,71.000 244.500,77.000" stroke-width="2.926" stroke="black" fill="none" stroke-linecap="round"></path><path d="M 244.500,77.000 C 237.250,85.250 237.038,85.036 229.500,93.000" stroke-width="2.515" stroke="black" fill="none" stroke-linecap="round"></path><path d="M 229.500,93.000 C 222.000,100.000 222.250,100.250 214.500,107.000" stroke-width="2.539" stroke="black" fill="none" stroke-linecap="round"></path><path d="M 214.500,107.000 C 206.581,113.611 207.000,114.000 199.500,121.000" stroke-width="2.486" stroke="black" fill="none" stroke-linecap="round"></path><path d="M 199.500,121.000 C 195.339,125.882 195.081,125.611 191.500,131.000" stroke-width="2.951" stroke="black" fill="none" stroke-linecap="round"></path><path d="M 191.500,131.000 C 186.443,136.577 189.339,133.882 187.500,137.000" stroke-width="3.544" stroke="black" fill="none" stroke-linecap="round"></path><path d="M 187.500,137.000 C 192.373,135.626 188.943,137.577 196.500,133.000" stroke-width="4.392" stroke="black" fill="none" stroke-linecap="round"></path><path d="M 196.500,133.000 C 202.888,127.849 203.373,128.626 209.500,123.000" stroke-width="3.197" stroke="black" fill="none" stroke-linecap="round"></path><path d="M 209.500,123.000 C 217.847,116.768 217.888,116.849 226.500,111.000" stroke-width="2.698" stroke="black" fill="none" stroke-linecap="round"></path><path d="M 226.500,111.000 C 232.814,106.647 232.847,106.768 239.500,103.000" stroke-width="2.822" stroke="black" fill="none" stroke-linecap="round"></path><path d="M 239.500,103.000 C 243.888,100.647 243.814,100.647 248.500,99.000" stroke-width="3.302" stroke="black" fill="none" stroke-linecap="round"></path><path d="M 248.500,99.000 C 253.781,96.594 250.888,98.147 253.500,98.000" stroke-width="3.922" stroke="black" fill="none" stroke-linecap="round"></path><path d="M 253.500,98.000 C 250.604,103.984 252.781,101.594 246.500,109.000" stroke-width="3.998" stroke="black" fill="none" stroke-linecap="round"></path><path d="M 246.500,109.000 C 240.480,114.086 241.604,114.984 235.500,120.000" stroke-width="3.120" stroke="black" fill="none" stroke-linecap="round"></path><path d="M 235.500,120.000 C 232.728,123.862 232.480,123.586 230.500,128.000" stroke-width="3.453" stroke="black" fill="none" stroke-linecap="round"></path><path d="M 230.500,128.000 C 226.783,132.340 229.228,130.362 228.500,133.000" stroke-width="3.988" stroke="black" fill="none" stroke-linecap="round"></path><path d="M 228.500,133.000 C 236.682,135.098 233.283,134.840 243.500,133.000" stroke-width="4.206" stroke="black" fill="none" stroke-linecap="round"></path><path d="M 243.500,133.000 C 249.092,129.120 249.682,131.098 254.500,125.000" stroke-width="3.386" stroke="black" fill="none" stroke-linecap="round"></path><path d="M 254.500,125.000 C 259.668,121.188 259.592,121.120 264.500,117.000" stroke-width="3.198" stroke="black" fill="none" stroke-linecap="round"></path><path d="M 264.500,117.000 C 270.020,110.310 267.168,114.688 269.500,112.000" stroke-width="3.660" stroke="black" fill="none" stroke-linecap="round"></path><path d="M 269.500,112.000 C 265.266,121.149 268.020,116.810 260.500,130.000" stroke-width="4.102" stroke="black" fill="none" stroke-linecap="round"></path><path d="M 260.500,130.000 C 257.595,133.809 258.266,134.149 255.500,138.000" stroke-width="4.327" stroke="black" fill="none" stroke-linecap="round"></path><path d="M 255.500,138.000 C 252.529,141.816 254.095,140.809 253.500,144.000" stroke-width="4.610" stroke="black" fill="none" stroke-linecap="round"></path><path d="M 253.500,144.000 C 256.383,146.760 254.529,146.316 259.500,147.000" stroke-width="5.150" stroke="black" fill="none" stroke-linecap="round"></path><path d="M 259.500,147.000 C 263.534,146.907 262.883,147.260 266.500,145.000" stroke-width="4.291" stroke="black" fill="none" stroke-linecap="round"></path><path d="M 266.500,145.000 C 269.912,141.409 270.534,142.407 273.500,138.000" stroke-width="3.748" stroke="black" fill="none" stroke-linecap="round"></path><path d="M 273.500,138.000 C 279.914,131.905 279.912,131.909 286.500,126.000" stroke-width="2.994" stroke="black" fill="none" stroke-linecap="round"></path><path d="M 286.500,126.000 C 294.741,119.258 294.414,118.905 302.500,112.000" stroke-width="2.630" stroke="black" fill="none" stroke-linecap="round"></path><path d="M 302.500,112.000 C 310.310,104.790 310.241,104.758 317.500,97.000" stroke-width="2.596" stroke="black" fill="none" stroke-linecap="round"></path><path d="M 317.500,97.000 C 328.738,85.495 328.310,85.290 338.500,73.000" stroke-width="2.228" stroke="black" fill="none" stroke-linecap="round"></path><path d="M 338.500,73.000 C 340.627,69.057 341.238,69.495 342.500,65.000" stroke-width="3.081" stroke="black" fill="none" stroke-linecap="round"></path><path d="M 342.500,65.000 C 344.243,62.568 343.627,62.557 344.500,60.000" stroke-width="3.828" stroke="black" fill="none" stroke-linecap="round"></path><path d="M 344.500,60.000 C 344.987,54.554 344.743,57.568 343.500,55.000" stroke-width="4.640" stroke="black" fill="none" stroke-linecap="round"></path><path d="M 343.500,55.000 C 338.556,58.575 339.987,56.054 334.500,63.000" stroke-width="3.607" stroke="black" fill="none" stroke-linecap="round"></path><path d="M 334.500,63.000 C 328.283,71.247 327.556,70.575 321.500,79.000" stroke-width="2.718" stroke="black" fill="none" stroke-linecap="round"></path><path d="M 321.500,79.000 C 313.626,86.686 314.283,87.247 306.500,95.000" stroke-width="2.467" stroke="black" fill="none" stroke-linecap="round"></path><path d="M 306.500,95.000 C 302.045,101.034 301.626,100.686 297.500,107.000" stroke-width="2.757" stroke="black" fill="none" stroke-linecap="round"></path><path d="M 297.500,107.000 C 293.722,111.314 294.045,111.534 290.500,116.000" stroke-width="3.157" stroke="black" fill="none" stroke-linecap="round"></path><path d="M 290.500,116.000 C 288.635,119.584 288.222,119.314 286.500,123.000" stroke-width="4.067" stroke="black" fill="none" stroke-linecap="round"></path><path d="M 286.500,123.000 C 278.994,131.354 283.635,127.584 280.500,132.000" stroke-width="3.605" stroke="black" fill="none" stroke-linecap="round"></path><path d="M 280.500,132.000 C 286.948,128.883 282.494,132.854 293.500,126.000" stroke-width="4.276" stroke="black" fill="none" stroke-linecap="round"></path><path d="M 293.500,126.000 C 299.430,123.312 299.448,123.383 305.500,121.000" stroke-width="3.451" stroke="black" fill="none" stroke-linecap="round"></path><path d="M 305.500,121.000 C 309.930,119.219 309.930,119.312 314.500,118.000" stroke-width="3.561" stroke="black" fill="none" stroke-linecap="round"></path><path d="M 314.500,118.000 C 321.096,115.211 317.430,117.219 320.500,117.000" stroke-width="3.949" stroke="black" fill="none" stroke-linecap="round"></path><path d="M 320.500,117.000 C 317.125,127.316 318.596,122.711 309.500,133.000" stroke-width="4.079" stroke="black" fill="none" stroke-linecap="round"></path><path d="M 309.500,133.000 C 287.907,146.310 289.625,147.816 265.500,158.000" stroke-width="1.950" stroke="black" fill="none" stroke-linecap="round"></path><path d="M 265.500,158.000 C 253.264,164.213 253.407,164.310 240.500,169.000" stroke-width="2.091" stroke="black" fill="none" stroke-linecap="round"></path><path d="M 240.500,169.000 C 229.240,173.752 229.264,173.213 217.500,176.000" stroke-width="2.198" stroke="black" fill="none" stroke-linecap="round"></path><path d="M 217.500,176.000 C 205.492,178.000 205.740,178.252 193.500,178.000" stroke-width="2.231" stroke="black" fill="none" stroke-linecap="round"></path><path d="M 193.500,178.000 C 182.994,178.748 183.492,178.000 173.500,176.000" stroke-width="2.463" stroke="black" fill="none" stroke-linecap="round"></path><path d="M 173.500,176.000 C 163.942,172.372 163.994,173.248 155.500,167.000" stroke-width="2.483" stroke="black" fill="none" stroke-linecap="round"></path><path d="M 155.500,167.000 C 147.828,161.201 147.442,161.872 140.500,155.000" stroke-width="2.534" stroke="black" fill="none" stroke-linecap="round"></path><path d="M 140.500,155.000 C 134.227,150.613 134.828,150.201 129.500,145.000" stroke-width="2.790" stroke="black" fill="none" stroke-linecap="round"></path><path d="M 129.500,145.000 C 125.883,140.840 126.227,141.113 124.500,136.000" stroke-width="3.693" stroke="black" fill="none" stroke-linecap="round"></path><path d="M 124.500,136.000 C 122.821,129.885 122.883,130.340 123.500,124.000" stroke-width="3.403" stroke="black" fill="none" stroke-linecap="round"></path><path d="M 123.500,124.000 C 123.585,115.873 124.321,116.885 127.500,110.000" stroke-width="3.133" stroke="black" fill="none" stroke-linecap="round"></path><path d="M 127.500,110.000 C 134.857,101.241 133.585,100.873 143.500,94.000" stroke-width="2.592" stroke="black" fill="none" stroke-linecap="round"></path><path d="M 143.500,94.000 C 153.330,85.352 153.357,85.741 164.500,79.000" stroke-width="2.268" stroke="black" fill="none" stroke-linecap="round"></path><path d="M 164.500,79.000 C 178.605,69.017 178.830,70.852 194.500,65.000" stroke-width="2.059" stroke="black" fill="none" stroke-linecap="round"></path><path d="M 194.500,65.000 C 224.890,58.995 224.105,57.517 255.500,56.000" stroke-width="1.386" stroke="black" fill="none" stroke-linecap="round"></path><path d="M 255.500,56.000 C 271.212,54.216 270.890,54.495 286.500,56.000" stroke-width="1.761" stroke="black" fill="none" stroke-linecap="round"></path><path d="M 286.500,56.000 C 301.175,58.907 301.212,57.716 315.500,63.000" stroke-width="2.040" stroke="black" fill="none" stroke-linecap="round"></path><path d="M 315.500,63.000 C 325.776,65.875 325.675,65.907 335.500,70.000" stroke-width="2.292" stroke="black" fill="none" stroke-linecap="round"></path><path d="M 335.500,70.000 C 342.614,72.749 342.276,72.875 348.500,77.000" stroke-width="2.701" stroke="black" fill="none" stroke-linecap="round"></path><path d="M 348.500,77.000 C 353.254,79.802 351.614,79.249 353.500,83.000" stroke-width="3.376" stroke="black" fill="none" stroke-linecap="round"></path><path d="M 353.500,83.000 C 353.026,88.548 353.754,86.302 349.500,90.000" stroke-width="3.672" stroke="black" fill="none" stroke-linecap="round"></path><path d="M 349.500,90.000 C 334.487,93.444 336.026,95.548 319.500,97.000" stroke-width="2.317" stroke="black" fill="none" stroke-linecap="round"></path><path d="M 319.500,97.000 C 305.046,100.706 304.987,100.444 290.500,104.000" stroke-width="2.117" stroke="black" fill="none" stroke-linecap="round"></path><path d="M 290.500,104.000 C 278.489,106.449 278.546,106.706 266.500,109.000" stroke-width="2.244" stroke="black" fill="none" stroke-linecap="round"></path><path d="M 266.500,109.000 C 255.000,111.500 254.989,111.449 243.500,114.000" stroke-width="2.323" stroke="black" fill="none" stroke-linecap="round"></path><path d="M 243.500,114.000 C 221.026,118.474 232.000,116.500 220.500,119.000" stroke-width="2.944" stroke="black" fill="none" stroke-linecap="round"></path><path d="M 220.500,119.000 C 230.945,116.720 220.026,119.474 241.500,116.000" stroke-width="3.763" stroke="black" fill="none" stroke-linecap="round"></path><path d="M 241.500,116.000 C 253.005,116.235 252.945,115.220 264.500,116.000" stroke-width="2.684" stroke="black" fill="none" stroke-linecap="round"></path><path d="M 264.500,116.000 C 277.500,115.510 277.505,115.735 290.500,115.000" stroke-width="2.280" stroke="black" fill="none" stroke-linecap="round"></path><path d="M 290.500,115.000 C 303.021,114.814 303.000,114.510 315.500,114.000" stroke-width="2.277" stroke="black" fill="none" stroke-linecap="round"></path><path d="M 315.500,114.000 C 325.982,112.619 326.021,113.314 336.500,112.000" stroke-width="2.435" stroke="black" fill="none" stroke-linecap="round"></path><path d="M 336.500,112.000 C 343.000,112.000 342.982,111.619 349.500,112.000" stroke-width="2.867" stroke="black" fill="none" stroke-linecap="round"></path><path d="M 349.500,112.000 C 357.485,111.015 353.000,112.000 356.500,112.000" stroke-width="3.527" stroke="black" fill="none" stroke-linecap="round"></path><path d="M 356.500,112.000 C 350.042,115.093 354.485,114.015 343.500,118.000" stroke-width="3.746" stroke="black" fill="none" stroke-linecap="round"></path><path d="M 343.500,118.000 C 327.343,124.665 327.542,125.093 311.500,132.000" stroke-width="2.173" stroke="black" fill="none" stroke-linecap="round"></path><path d="M 311.500,132.000 C 300.284,137.118 300.343,137.165 289.500,143.000" stroke-width="2.406" stroke="black" fill="none" stroke-linecap="round"></path><path d="M 289.500,143.000 C 277.061,149.589 283.784,146.118 278.500,150.000" stroke-width="2.902" stroke="black" fill="none" stroke-linecap="round"></path><path d="M 278.500,150.000 C 287.488,147.458 280.561,150.589 296.500,145.000" stroke-width="3.578" stroke="black" fill="none" stroke-linecap="round"></path><path d="M 296.500,145.000 C 309.335,140.724 309.488,141.458 322.500,138.000" stroke-width="2.773" stroke="black" fill="none" stroke-linecap="round"></path></svg>