<svg xmlns="http://www.w3.org/2000/svg" xmlns:xlink="http://www.w3.org/1999/xlink" viewBox="0 0 749 330" width="749" height="330"><path d="M 96.500,220.000 C 93.752,214.632 94.500,214.500 92.500,209.000" stroke-width="4.449" stroke="black" fill="none" stroke-linecap="round"></path><path d="M 92.500,209.000 C 92.907,205.460 91.752,205.632 92.500,202.000" stroke-width="4.248" stroke="black" fill="none" stroke-linecap="round"></path><path d="M 92.500,202.000 C 91.287,197.036 91.907,196.960 90.500,192.000" stroke-width="3.644" stroke="black" fill="none" stroke-linecap="round"></path><path d="M 90.500,192.000 C 88.912,181.011 88.787,181.036 87.500,170.000" stroke-width="2.708" stroke="black" fill="none" stroke-linecap="round"></path><path d="M 87.500,170.000 C 85.961,161.532 86.412,161.511 85.500,153.000" stroke-width="2.774" stroke="black" fill="none" stroke-linecap="round"></path><path d="M 85.500,153.000 C 85.844,142.981 84.961,143.032 85.500,133.000" stroke-width="2.638" stroke="black" fill="none" stroke-linecap="round"></path><path d="M 85.500,133.000 C 84.661,128.519 85.344,128.481 84.500,124.000" stroke-width="3.241" stroke="black" fill="none" stroke-linecap="round"></path><path d="M 84.500,124.000 C 84.500,114.500 84.161,114.519 84.500,105.000" stroke-width="2.741" stroke="black" fill="none" stroke-linecap="round"></path><path d="M 84.500,105.000 C 84.233,97.490 84.500,97.500 84.500,90.000" stroke-width="2.910" stroke="black" fill="none" stroke-linecap="round"></path><path d="M 84.500,90.000 C 84.076,83.266 84.733,83.490 85.500,77.000" stroke-width="3.040" stroke="black" fill="none" stroke-linecap="round"></path><path d="M 85.500,77.000 C 87.191,72.330 86.576,72.266 89.500,68.000" stroke-width="3.387" stroke="black" fill="none" stroke-linecap="round"></path><path d="M 89.500,68.000 C 90.788,63.899 91.191,64.830 93.500,62.000" stroke-width="3.762" stroke="black" fill="none" stroke-linecap="round"></path><path d="M 93.500,62.000 C 97.802,59.514 95.788,60.399 99.500,61.000" stroke-width="4.389" stroke="black" fill="none" stroke-linecap="round"></path><path d="M 99.500,61.000 C 101.029,64.920 101.802,63.014 101.500,69.000" stroke-width="3.892" stroke="black" fill="none" stroke-linecap="round"></path><path d="M 101.500,69.000 C 102.140,77.996 102.529,77.920 102.500,87.000" stroke-width="3.188" stroke="black" fill="none" stroke-linecap="round"></path><path d="M 102.500,87.000 C 102.500,90.500 102.640,90.496 102.500,94.000" stroke-width="3.746" stroke="black" fill="none" stroke-linecap="round"></path><path d="M 102.500,94.000 C 102.500,101.500 102.500,101.500 102.500,109.000" stroke-width="3.181" stroke="black" fill="none" stroke-linecap="round"></path><path d="M 102.500,109.000 C 102.500,117.500 102.500,117.500 102.500,126.000" stroke-width="2.849" stroke="black" fill="none" stroke-linecap="round"></path><path d="M 102.500,126.000 C 102.500,135.000 102.500,135.000 102.500,144.000" stroke-width="2.766" stroke="black" fill="none" stroke-linecap="round"></path><path d="M 102.500,144.000 C 102.762,154.507 102.500,154.500 102.500,165.000" stroke-width="2.524" stroke="black" fill="none" stroke-linecap="round"></path><path d="M 102.500,165.000 C 102.290,174.525 102.262,174.507 101.500,184.000" stroke-width="2.614" stroke="black" fill="none" stroke-linecap="round"></path><path d="M 101.500,184.000 C 101.121,192.624 100.790,192.525 99.500,201.000" stroke-width="2.686" stroke="black" fill="none" stroke-linecap="round"></path><path d="M 99.500,201.000 C 97.640,208.043 98.121,208.124 95.500,215.000" stroke-width="2.918" stroke="black" fill="none" stroke-linecap="round"></path><path d="M 95.500,215.000 C 93.981,221.211 93.640,221.043 91.500,227.000" stroke-width="3.071" stroke="black" fill="none" stroke-linecap="round"></path><path d="M 91.500,227.000 C 89.224,231.642 89.481,231.711 86.500,236.000" stroke-width="3.361" stroke="black" fill="none" stroke-linecap="round"></path><path d="M 86.500,236.000 C 84.597,240.161 84.224,239.642 81.500,243.000" stroke-width="3.564" stroke="black" fill="none" stroke-linecap="round"></path><path d="M 81.500,243.000 C 77.402,247.290 78.597,245.661 74.500,247.000" stroke-width="4.184" stroke="black" fill="none" stroke-linecap="round"></path><path d="M 74.500,247.000 C 71.892,244.742 72.402,246.790 71.500,242.000" stroke-width="4.740" stroke="black" fill="none" stroke-linecap="round"></path><path d="M 71.500,242.000 C 71.414,237.345 70.892,237.742 72.500,233.000" stroke-width="4.507" stroke="black" fill="none" stroke-linecap="round"></path><path d="M 72.500,233.000 C 73.622,229.287 73.414,229.345 75.500,226.000" stroke-width="4.053" stroke="black" fill="none" stroke-linecap="round"></path><path d="M 75.500,226.000 C 77.604,222.137 77.622,222.287 80.500,219.000" stroke-width="3.825" stroke="black" fill="none" stroke-linecap="round"></path><path d="M 80.500,219.000 C 83.747,215.649 83.604,215.637 87.500,213.000" stroke-width="3.642" stroke="black" fill="none" stroke-linecap="round"></path><path d="M 87.500,213.000 C 92.480,209.966 92.247,209.649 97.500,207.000" stroke-width="3.531" stroke="black" fill="none" stroke-linecap="round"></path><path d="M 97.500,207.000 C 103.633,203.706 103.480,203.466 109.500,200.000" stroke-width="3.842" stroke="black" fill="none" stroke-linecap="round"></path><path d="M 109.500,200.000 C 113.000,197.500 113.133,197.706 116.500,195.000" stroke-width="3.767" stroke="black" fill="none" stroke-linecap="round"></path><path d="M 116.500,195.000 C 120.500,193.000 120.000,192.500 123.500,190.000" stroke-width="3.690" stroke="black" fill="none" stroke-linecap="round"></path><path d="M 123.500,190.000 C 125.957,186.468 126.500,187.000 128.500,183.000" stroke-width="3.721" stroke="black" fill="none" stroke-linecap="round"></path><path d="M 128.500,183.000 C 132.009,179.302 131.457,178.968 134.500,175.000" stroke-width="3.536" stroke="black" fill="none" stroke-linecap="round"></path><path d="M 134.500,175.000 C 137.442,169.660 137.509,169.802 139.500,164.000" stroke-width="3.297" stroke="black" fill="none" stroke-linecap="round"></path><path d="M 139.500,164.000 C 140.785,158.431 141.442,158.660 142.500,153.000" stroke-width="3.346" stroke="black" fill="none" stroke-linecap="round"></path><path d="M 142.500,153.000 C 144.619,149.112 143.785,148.931 145.500,145.000" stroke-width="3.615" stroke="black" fill="none" stroke-linecap="round"></path><path d="M 145.500,145.000 C 146.208,139.000 146.119,142.112 145.500,139.000" stroke-width="3.935" stroke="black" fill="none" stroke-linecap="round"></path><path d="M 145.500,139.000 C 143.492,141.826 144.708,139.000 142.500,145.000" stroke-width="4.665" stroke="black" fill="none" stroke-linecap="round"></path><path d="M 142.500,145.000 C 141.454,149.991 140.992,149.826 140.500,155.000" stroke-width="3.796" stroke="black" fill="none" stroke-linecap="round"></path><path d="M 140.500,155.000 C 139.083,160.462 139.454,160.491 138.500,166.000" stroke-width="3.443" stroke="black" fill="none" stroke-linecap="round"></path><path d="M 138.500,166.000 C 138.500,170.000 138.083,169.962 138.500,174.000" stroke-width="3.747" stroke="black" fill="none" stroke-linecap="round"></path><path d="M 138.500,174.000 C 137.571,177.747 138.500,177.500 138.500,181.000" stroke-width="3.910" stroke="black" fill="none" stroke-linecap="round"></path><path d="M 138.500,181.000 C 139.439,186.116 139.571,184.747 142.500,188.000" stroke-width="4.318" stroke="black" fill="none" stroke-linecap="round"></path><path d="M 142.500,188.000 C 146.988,188.718 145.939,190.116 151.500,189.000" stroke-width="4.385" stroke="black" fill="none" stroke-linecap="round"></path><path d="M 151.500,189.000 C 155.085,189.525 154.988,189.218 158.500,189.000" stroke-width="4.044" stroke="black" fill="none" stroke-linecap="round"></path><path d="M 158.500,189.000 C 161.588,188.213 161.585,188.525 164.500,187.000" stroke-width="4.083" stroke="black" fill="none" stroke-linecap="round"></path><path d="M 164.500,187.000 C 167.728,185.848 167.588,185.713 170.500,184.000" stroke-width="4.093" stroke="black" fill="none" stroke-linecap="round"></path><path d="M 170.500,184.000 C 173.750,181.750 173.728,181.848 176.500,179.000" stroke-width="3.869" stroke="black" fill="none" stroke-linecap="round"></path><path d="M 176.500,179.000 C 179.159,176.121 179.250,176.250 181.500,173.000" stroke-width="3.859" stroke="black" fill="none" stroke-linecap="round"></path><path d="M 181.500,173.000 C 184.841,167.879 185.159,168.121 188.500,163.000" stroke-width="3.595" stroke="black" fill="none" stroke-linecap="round"></path><path d="M 188.500,163.000 C 190.408,158.968 190.841,159.879 193.500,157.000" stroke-width="4.229" stroke="black" fill="none" stroke-linecap="round"></path><path d="M 193.500,157.000 C 197.378,154.939 195.908,155.468 199.500,156.000" stroke-width="4.595" stroke="black" fill="none" stroke-linecap="round"></path><path d="M 199.500,156.000 C 201.065,158.391 201.378,156.939 201.500,161.000" stroke-width="4.800" stroke="black" fill="none" stroke-linecap="round"></path><path d="M 201.500,161.000 C 201.732,164.514 202.065,164.391 201.500,168.000" stroke-width="4.198" stroke="black" fill="none" stroke-linecap="round"></path><path d="M 201.500,168.000 C 201.951,172.372 201.232,172.014 200.500,176.000" stroke-width="3.923" stroke="black" fill="none" stroke-linecap="round"></path><path d="M 200.500,176.000 C 198.269,179.728 198.951,179.872 195.500,183.000" stroke-width="3.734" stroke="black" fill="none" stroke-linecap="round"></path><path d="M 195.500,183.000 C 192.624,186.136 192.769,186.228 189.500,189.000" stroke-width="3.693" stroke="black" fill="none" stroke-linecap="round"></path><path d="M 189.500,189.000 C 186.728,191.848 186.624,191.636 183.500,194.000" stroke-width="3.804" stroke="black" fill="none" stroke-linecap="round"></path><path d="M 183.500,194.000 C 180.551,195.613 180.728,195.848 177.500,197.000" stroke-width="3.914" stroke="black" fill="none" stroke-linecap="round"></path><path d="M 177.500,197.000 C 172.065,198.565 175.051,198.113 172.500,199.000" stroke-width="4.517" stroke="black" fill="none" stroke-linecap="round"></path><path d="M 172.500,199.000 C 176.000,199.000 173.065,199.565 179.500,199.000" stroke-width="4.793" stroke="black" fill="none" stroke-linecap="round"></path><path d="M 179.500,199.000 C 183.829,200.147 183.500,199.000 187.500,199.000" stroke-width="4.072" stroke="black" fill="none" stroke-linecap="round"></path><path d="M 187.500,199.000 C 191.500,196.500 191.829,197.647 195.500,194.000" stroke-width="3.743" stroke="black" fill="none" stroke-linecap="round"></path><path d="M 195.500,194.000 C 199.540,191.562 199.500,191.500 203.500,189.000" stroke-width="3.654" stroke="black" fill="none" stroke-linecap="round"></path><path d="M 203.500,189.000 C 208.213,186.278 208.040,186.062 212.500,183.000" stroke-width="3.440" stroke="black" fill="none" stroke-linecap="round"></path><path d="M 212.500,183.000 C 216.607,179.615 216.713,179.778 220.500,176.000" stroke-width="3.398" stroke="black" fill="none" stroke-linecap="round"></path><path d="M 220.500,176.000 C 224.066,173.408 223.607,173.115 226.500,170.000" stroke-width="3.638" stroke="black" fill="none" stroke-linecap="round"></path><path d="M 226.500,170.000 C 228.381,165.935 229.066,166.408 230.500,162.000" stroke-width="3.671" stroke="black" fill="none" stroke-linecap="round"></path><path d="M 230.500,162.000 C 232.661,156.370 231.881,159.435 233.500,157.000" stroke-width="4.019" stroke="black" fill="none" stroke-linecap="round"></path><path d="M 233.500,157.000 C 234.213,160.987 234.661,157.870 234.500,165.000" stroke-width="4.710" stroke="black" fill="none" stroke-linecap="round"></path><path d="M 234.500,165.000 C 234.500,168.000 234.713,167.987 234.500,171.000" stroke-width="4.355" stroke="black" fill="none" stroke-linecap="round"></path><path d="M 234.500,171.000 C 234.500,174.500 234.500,174.500 234.500,178.000" stroke-width="4.036" stroke="black" fill="none" stroke-linecap="round"></path><path d="M 234.500,178.000 C 234.500,181.000 234.500,181.000 234.500,184.000" stroke-width="4.120" stroke="black" fill="none" stroke-linecap="round"></path><path d="M 234.500,184.000 C 234.699,187.011 234.500,187.000 234.500,190.000" stroke-width="4.146" stroke="black" fill="none" stroke-linecap="round"></path><path d="M 234.500,190.000 C 234.823,194.768 234.199,194.511 233.500,199.000" stroke-width="4.349" stroke="black" fill="none" stroke-linecap="round"></path><path d="M 233.500,199.000 C 228.334,203.901 232.323,202.768 229.500,206.000" stroke-width="4.486" stroke="black" fill="none" stroke-linecap="round"></path><path d="M 229.500,206.000 C 234.248,208.709 230.834,208.401 238.500,208.000" stroke-width="4.820" stroke="black" fill="none" stroke-linecap="round"></path><path d="M 238.500,208.000 C 243.318,205.952 243.248,207.209 247.500,203.000" stroke-width="3.749" stroke="black" fill="none" stroke-linecap="round"></path><path d="M 247.500,203.000 C 251.881,199.860 251.818,199.952 255.500,196.000" stroke-width="3.482" stroke="black" fill="none" stroke-linecap="round"></path><path d="M 255.500,196.000 C 258.753,191.282 259.381,191.860 262.500,187.000" stroke-width="3.401" stroke="black" fill="none" stroke-linecap="round"></path><path d="M 262.500,187.000 C 266.266,183.731 265.753,183.282 269.500,180.000" stroke-width="3.507" stroke="black" fill="none" stroke-linecap="round"></path><path d="M 269.500,180.000 C 272.378,175.902 272.766,176.231 275.500,172.000" stroke-width="3.583" stroke="black" fill="none" stroke-linecap="round"></path><path d="M 275.500,172.000 C 278.549,168.541 278.378,168.402 281.500,165.000" stroke-width="3.573" stroke="black" fill="none" stroke-linecap="round"></path><path d="M 281.500,165.000 C 282.995,161.670 283.549,162.541 285.500,160.000" stroke-width="3.917" stroke="black" fill="none" stroke-linecap="round"></path><path d="M 285.500,160.000 C 289.656,157.480 287.495,158.670 290.500,159.000" stroke-width="4.690" stroke="black" fill="none" stroke-linecap="round"></path><path d="M 290.500,159.000 C 290.831,164.033 292.156,161.980 290.500,169.000" stroke-width="4.677" stroke="black" fill="none" stroke-linecap="round"></path><path d="M 290.500,169.000 C 290.170,171.545 290.331,171.533 289.500,174.000" stroke-width="4.381" stroke="black" fill="none" stroke-linecap="round"></path><path d="M 289.500,174.000 C 288.801,177.138 288.670,177.045 287.500,180.000" stroke-width="4.180" stroke="black" fill="none" stroke-linecap="round"></path><path d="M 287.500,180.000 C 286.000,182.500 286.301,182.638 284.500,185.000" stroke-width="4.186" stroke="black" fill="none" stroke-linecap="round"></path><path d="M 284.500,185.000 C 282.283,187.258 283.000,187.500 281.500,190.000" stroke-width="4.188" stroke="black" fill="none" stroke-linecap="round"></path><path d="M 281.500,190.000 C 278.913,195.561 280.283,194.258 280.500,199.000" stroke-width="4.362" stroke="black" fill="none" stroke-linecap="round"></path><path d="M 280.500,199.000 C 283.690,202.398 281.913,202.061 287.500,203.000" stroke-width="4.507" stroke="black" fill="none" stroke-linecap="round"></path><path d="M 287.500,203.000 C 293.893,203.682 293.190,203.898 299.500,202.000" stroke-width="4.230" stroke="black" fill="none" stroke-linecap="round"></path><path d="M 299.500,202.000 C 303.974,200.056 303.893,200.682 307.500,197.000" stroke-width="3.721" stroke="black" fill="none" stroke-linecap="round"></path><path d="M 307.500,197.000 C 310.750,192.750 311.474,193.556 314.500,189.000" stroke-width="3.535" stroke="black" fill="none" stroke-linecap="round"></path><path d="M 314.500,189.000 C 318.484,185.481 318.250,185.250 322.500,182.000" stroke-width="3.425" stroke="black" fill="none" stroke-linecap="round"></path><path d="M 322.500,182.000 C 325.825,178.757 325.984,178.981 329.500,176.000" stroke-width="3.577" stroke="black" fill="none" stroke-linecap="round"></path><path d="M 329.500,176.000 C 333.032,172.266 331.825,174.257 334.500,173.000" stroke-width="3.984" stroke="black" fill="none" stroke-linecap="round"></path><path d="M 334.500,173.000 C 336.793,176.575 336.032,173.766 335.500,179.000" stroke-width="4.678" stroke="black" fill="none" stroke-linecap="round"></path><path d="M 335.500,179.000 C 330.615,183.199 332.793,184.075 326.500,188.000" stroke-width="4.252" stroke="black" fill="none" stroke-linecap="round"></path><path d="M 326.500,188.000 C 322.761,191.768 324.615,190.199 323.500,193.000" stroke-width="4.622" stroke="black" fill="none" stroke-linecap="round"></path><path d="M 323.500,193.000 C 326.640,193.753 324.261,194.268 329.500,193.000" stroke-width="4.237" stroke="black" fill="none" stroke-linecap="round"></path><path d="M 329.500,193.000 C 336.294,191.103 336.140,191.253 342.500,188.000" stroke-width="3.365" stroke="black" fill="none" stroke-linecap="round"></path><path d="M 342.500,188.000 C 350.927,184.660 350.294,184.103 357.500,179.000" stroke-width="2.989" stroke="black" fill="none" stroke-linecap="round"></path><path d="M 357.500,179.000 C 369.575,168.765 368.927,169.160 378.500,157.000" stroke-width="2.235" stroke="black" fill="none" stroke-linecap="round"></path><path d="M 378.500,157.000 C 380.944,152.407 380.575,154.265 379.500,150.000" stroke-width="3.221" stroke="black" fill="none" stroke-linecap="round"></path><path d="M 379.500,150.000 C 376.229,147.497 377.944,147.407 372.500,147.000" stroke-width="3.659" stroke="black" fill="none" stroke-linecap="round"></path><path d="M 372.500,147.000 C 361.006,146.213 361.229,145.497 349.500,146.000" stroke-width="2.594" stroke="black" fill="none" stroke-linecap="round"></path><path d="M 349.500,146.000 C 334.000,146.000 334.006,145.713 318.500,146.000" stroke-width="2.078" stroke="black" fill="none" stroke-linecap="round"></path><path d="M 318.500,146.000 C 299.494,145.624 299.500,146.000 280.500,146.000" stroke-width="1.828" stroke="black" fill="none" stroke-linecap="round"></path><path d="M 280.500,146.000 C 248.963,146.465 248.994,146.624 217.500,148.000" stroke-width="1.550" stroke="black" fill="none" stroke-linecap="round"></path><path d="M 217.500,148.000 C 208.032,149.480 207.963,148.465 198.500,150.000" stroke-width="2.143" stroke="black" fill="none" stroke-linecap="round"></path><path d="M 198.500,150.000 C 180.503,150.690 180.532,150.980 162.500,151.000" stroke-width="1.894" stroke="black" fill="none" stroke-linecap="round"></path><path d="M 162.500,151.000 C 151.301,152.385 151.503,151.190 140.500,151.000" stroke-width="2.253" stroke="black" fill="none" stroke-linecap="round"></path><path d="M 140.500,151.000 C 129.389,151.006 131.801,149.885 123.500,146.000" stroke-width="2.529" stroke="black" fill="none" stroke-linecap="round"></path><path d="M 123.500,146.000 C 118.239,139.228 119.389,142.506 120.500,134.000" stroke-width="2.947" stroke="black" fill="none" stroke-linecap="round"></path><path d="M 120.500,134.000 C 126.955,117.432 126.239,120.728 139.500,109.000" stroke-width="2.193" stroke="black" fill="none" stroke-linecap="round"></path><path d="M 139.500,109.000 C 159.534,96.553 157.455,96.932 181.500,93.000" stroke-width="1.637" stroke="black" fill="none" stroke-linecap="round"></path><path d="M 181.500,93.000 C 228.587,87.769 227.534,85.553 275.500,87.000" stroke-width="1.125" stroke="black" fill="none" stroke-linecap="round"></path><path d="M 441.500,81.000 C 437.813,86.218 438.500,86.500 435.500,92.000" stroke-width="4.613" stroke="black" fill="none" stroke-linecap="round"></path><path d="M 435.500,92.000 C 433.538,99.011 432.813,98.718 431.500,106.000" stroke-width="4.145" stroke="black" fill="none" stroke-linecap="round"></path><path d="M 431.500,106.000 C 429.398,110.912 430.038,111.011 428.500,116.000" stroke-width="3.718" stroke="black" fill="none" stroke-linecap="round"></path><path d="M 428.500,116.000 C 426.366,121.448 427.898,119.412 428.500,123.000" stroke-width="3.900" stroke="black" fill="none" stroke-linecap="round"></path><path d="M 428.500,123.000 C 434.811,125.918 431.866,125.448 439.500,124.000" stroke-width="4.136" stroke="black" fill="none" stroke-linecap="round"></path><path d="M 439.500,124.000 C 445.508,119.468 445.811,121.418 450.500,114.000" stroke-width="3.199" stroke="black" fill="none" stroke-linecap="round"></path><path d="M 450.500,114.000 C 455.903,107.775 456.008,107.968 460.500,101.000" stroke-width="2.892" stroke="black" fill="none" stroke-linecap="round"></path><path d="M 460.500,101.000 C 465.823,93.879 465.403,93.775 469.500,86.000" stroke-width="2.745" stroke="black" fill="none" stroke-linecap="round"></path><path d="M 469.500,86.000 C 472.256,78.574 472.823,78.879 474.500,71.000" stroke-width="2.862" stroke="black" fill="none" stroke-linecap="round"></path><path d="M 474.500,71.000 C 476.632,65.078 476.256,65.074 477.500,59.000" stroke-width="3.072" stroke="black" fill="none" stroke-linecap="round"></path><path d="M 477.500,59.000 C 478.900,53.920 478.132,54.578 477.500,50.000" stroke-width="3.517" stroke="black" fill="none" stroke-linecap="round"></path><path d="M 477.500,50.000 C 475.456,46.725 476.400,46.920 472.500,45.000" stroke-width="3.824" stroke="black" fill="none" stroke-linecap="round"></path><path d="M 472.500,45.000 C 469.084,43.398 469.456,43.225 465.500,43.000" stroke-width="3.903" stroke="black" fill="none" stroke-linecap="round"></path><path d="M 465.500,43.000 C 459.642,41.598 460.084,42.398 454.500,43.000" stroke-width="3.548" stroke="black" fill="none" stroke-linecap="round"></path><path d="M 454.500,43.000 C 448.384,45.177 448.642,44.598 443.500,49.000" stroke-width="3.325" stroke="black" fill="none" stroke-linecap="round"></path><path d="M 443.500,49.000 C 436.496,54.256 436.884,54.177 431.500,61.000" stroke-width="3.012" stroke="black" fill="none" stroke-linecap="round"></path><path d="M 431.500,61.000 C 426.839,68.210 426.496,67.756 423.500,76.000" stroke-width="2.870" stroke="black" fill="none" stroke-linecap="round"></path><path d="M 423.500,76.000 C 419.563,85.867 419.339,85.710 416.500,96.000" stroke-width="2.603" stroke="black" fill="none" stroke-linecap="round"></path><path d="M 416.500,96.000 C 412.778,107.359 413.063,107.367 410.500,119.000" stroke-width="2.475" stroke="black" fill="none" stroke-linecap="round"></path><path d="M 410.500,119.000 C 408.871,130.485 408.278,130.359 407.500,142.000" stroke-width="2.407" stroke="black" fill="none" stroke-linecap="round"></path><path d="M 407.500,142.000 C 406.392,151.490 406.371,151.485 405.500,161.000" stroke-width="2.571" stroke="black" fill="none" stroke-linecap="round"></path><path d="M 405.500,161.000 C 404.741,167.490 404.892,167.490 404.500,174.000" stroke-width="2.919" stroke="black" fill="none" stroke-linecap="round"></path><path d="M 404.500,174.000 C 403.944,181.050 404.241,180.990 404.500,188.000" stroke-width="3.033" stroke="black" fill="none" stroke-linecap="round"></path><path d="M 404.500,188.000 C 404.757,193.771 404.944,193.550 406.500,199.000" stroke-width="3.277" stroke="black" fill="none" stroke-linecap="round"></path><path d="M 406.500,199.000 C 407.154,204.996 407.757,202.771 410.500,206.000" stroke-width="3.680" stroke="black" fill="none" stroke-linecap="round"></path><path d="M 410.500,206.000 C 420.522,208.826 417.154,207.996 426.500,205.000" stroke-width="3.157" stroke="black" fill="none" stroke-linecap="round"></path><path d="M 426.500,205.000 C 431.030,197.518 433.022,200.826 435.500,190.000" stroke-width="2.813" stroke="black" fill="none" stroke-linecap="round"></path><path d="M 435.500,190.000 C 442.793,179.414 442.030,179.018 448.500,168.000" stroke-width="2.391" stroke="black" fill="none" stroke-linecap="round"></path><path d="M 448.500,168.000 C 459.233,145.101 459.793,145.414 469.500,122.000" stroke-width="1.771" stroke="black" fill="none" stroke-linecap="round"></path><path d="M 469.500,122.000 C 472.596,113.316 473.233,113.601 476.500,105.000" stroke-width="2.289" stroke="black" fill="none" stroke-linecap="round"></path><path d="M 476.500,105.000 C 483.867,88.648 484.096,88.816 492.500,73.000" stroke-width="1.874" stroke="black" fill="none" stroke-linecap="round"></path><path d="M 492.500,73.000 C 500.221,59.819 499.867,59.648 508.500,47.000" stroke-width="1.968" stroke="black" fill="none" stroke-linecap="round"></path><path d="M 508.500,47.000 C 515.255,35.383 515.721,35.819 523.500,25.000" stroke-width="2.120" stroke="black" fill="none" stroke-linecap="round"></path><path d="M 523.500,25.000 C 529.060,18.423 528.755,18.383 535.500,13.000" stroke-width="2.513" stroke="black" fill="none" stroke-linecap="round"></path><path d="M 535.500,13.000 C 541.041,7.176 538.560,10.423 542.500,9.000" stroke-width="3.302" stroke="black" fill="none" stroke-linecap="round"></path><path d="M 542.500,9.000 C 544.949,16.296 545.041,12.176 543.500,23.000" stroke-width="3.728" stroke="black" fill="none" stroke-linecap="round"></path><path d="M 543.500,23.000 C 539.338,34.642 540.949,34.796 534.500,46.000" stroke-width="2.593" stroke="black" fill="none" stroke-linecap="round"></path><path d="M 534.500,46.000 C 527.450,61.478 527.838,61.642 520.500,77.000" stroke-width="2.044" stroke="black" fill="none" stroke-linecap="round"></path><path d="M 520.500,77.000 C 512.318,94.921 512.450,94.978 504.500,113.000" stroke-width="1.731" stroke="black" fill="none" stroke-linecap="round"></path><path d="M 504.500,113.000 C 496.109,131.845 496.318,131.921 488.500,151.000" stroke-width="1.668" stroke="black" fill="none" stroke-linecap="round"></path><path d="M 488.500,151.000 C 482.430,168.676 481.609,168.345 475.500,186.000" stroke-width="1.731" stroke="black" fill="none" stroke-linecap="round"></path><path d="M 475.500,186.000 C 471.396,196.207 471.430,196.176 466.500,206.000" stroke-width="2.182" stroke="black" fill="none" stroke-linecap="round"></path><path d="M 466.500,206.000 C 459.961,218.694 463.896,211.207 460.500,216.000" stroke-width="2.879" stroke="black" fill="none" stroke-linecap="round"></path><path d="M 460.500,216.000 C 463.252,199.908 461.961,208.694 470.500,186.000" stroke-width="3.237" stroke="black" fill="none" stroke-linecap="round"></path><path d="M 470.500,186.000 C 483.445,165.113 481.752,164.408 497.500,145.000" stroke-width="1.735" stroke="black" fill="none" stroke-linecap="round"></path><path d="M 497.500,145.000 C 510.835,121.964 512.445,123.613 528.500,103.000" stroke-width="1.422" stroke="black" fill="none" stroke-linecap="round"></path><path d="M 528.500,103.000 C 546.099,85.622 544.835,85.464 565.500,72.000" stroke-width="1.494" stroke="black" fill="none" stroke-linecap="round"></path><path d="M 565.500,72.000 C 572.975,67.980 569.599,69.122 575.500,70.000" stroke-width="2.501" stroke="black" fill="none" stroke-linecap="round"></path><path d="M 575.500,70.000 C 577.269,75.400 577.975,71.980 575.500,80.000" stroke-width="3.104" stroke="black" fill="none" stroke-linecap="round"></path><path d="M 575.500,80.000 C 565.993,101.248 567.269,101.400 555.500,122.000" stroke-width="1.716" stroke="black" fill="none" stroke-linecap="round"></path><path d="M 555.500,122.000 C 541.687,144.905 543.493,145.748 530.500,169.000" stroke-width="1.451" stroke="black" fill="none" stroke-linecap="round"></path><path d="M 530.500,169.000 C 521.397,187.064 522.187,186.905 516.500,206.000" stroke-width="1.565" stroke="black" fill="none" stroke-linecap="round"></path><path d="M 516.500,206.000 C 510.945,219.329 513.897,216.064 515.500,227.000" stroke-width="2.085" stroke="black" fill="none" stroke-linecap="round"></path><path d="M 515.500,227.000 C 524.544,236.748 520.445,235.329 535.500,238.000" stroke-width="2.297" stroke="black" fill="none" stroke-linecap="round"></path><path d="M 535.500,238.000 C 561.473,240.955 559.544,240.748 585.500,235.000" stroke-width="1.608" stroke="black" fill="none" stroke-linecap="round"></path><path d="M 585.500,235.000 C 619.799,223.776 619.973,226.455 652.500,209.000" stroke-width="1.195" stroke="black" fill="none" stroke-linecap="round"></path><path d="M 652.500,209.000 C 687.169,192.677 687.299,193.276 720.500,174.000" stroke-width="1.125" stroke="black" fill="none" stroke-linecap="round"></path><path d="M 720.500,174.000 C 747.487,161.913 745.169,160.177 768.500,144.000" stroke-width="1.220" stroke="black" fill="none" stroke-linecap="round"></path><path d="M 768.500,144.000 C 784.987,129.206 777.987,135.913 781.500,122.000" stroke-width="1.794" stroke="black" fill="none" stroke-linecap="round"></path><path d="M 781.500,122.000 C 768.011,113.949 777.487,113.706 753.500,113.000" stroke-width="1.973" stroke="black" fill="none" stroke-linecap="round"></path><path d="M 753.500,113.000 C 713.642,110.296 714.511,110.449 674.500,115.000" stroke-width="1.125" stroke="black" fill="none" stroke-linecap="round"></path><path d="M 674.500,115.000 C 597.382,127.366 597.142,124.296 520.500,141.000" stroke-width="1.125" stroke="black" fill="none" stroke-linecap="round"></path><path d="M 520.500,141.000 C 495.853,145.350 495.882,145.366 471.500,151.000" stroke-width="1.125" stroke="black" fill="none" stroke-linecap="round"></path><path d="M 471.500,151.000 C 433.730,161.659 433.353,159.850 395.500,170.000" stroke-width="1.125" stroke="black" fill="none" stroke-linecap="round"></path><path d="M 395.500,170.000 C 372.297,175.000 378.730,173.659 361.500,175.000" stroke-width="1.547" stroke="black" fill="none" stroke-linecap="round"></path><path d="M 361.500,175.000 C 364.692,171.991 358.797,175.000 368.500,170.000" stroke-width="2.595" stroke="black" fill="none" stroke-linecap="round"></path><path d="M 368.500,170.000 C 407.296,145.248 408.692,148.991 449.500,129.000" stroke-width="1.152" stroke="black" fill="none" stroke-linecap="round"></path><path d="M 449.500,129.000 C 507.518,103.508 507.296,106.748 568.500,93.000" stroke-width="1.125" stroke="black" fill="none" stroke-linecap="round"></path><path d="M 568.500,93.000 C 716.095,81.624 670.018,75.508 774.500,73.000" stroke-width="1.125" stroke="black" fill="none" stroke-linecap="round"></path></svg>