<svg xmlns="http://www.w3.org/2000/svg" xmlns:xlink="http://www.w3.org/1999/xlink" viewBox="0 0 453 236" width="453" height="236"><path d="M 132.500,160.000 C 128.176,157.169 128.000,158.000 123.500,156.000" stroke-width="4.878" stroke="black" fill="none" stroke-linecap="round"></path><path d="M 123.500,156.000 C 119.891,156.565 120.176,155.169 116.500,156.000" stroke-width="4.216" stroke="black" fill="none" stroke-linecap="round"></path><path d="M 116.500,156.000 C 113.862,155.272 113.891,155.565 111.500,154.000" stroke-width="4.295" stroke="black" fill="none" stroke-linecap="round"></path><path d="M 111.500,154.000 C 107.638,151.228 107.362,151.772 103.500,149.000" stroke-width="4.350" stroke="black" fill="none" stroke-linecap="round"></path><path d="M 103.500,149.000 C 98.500,148.200 101.138,147.728 98.500,147.000" stroke-width="4.665" stroke="black" fill="none" stroke-linecap="round"></path><path d="M 98.500,147.000 C 100.919,145.352 98.500,145.700 103.500,144.000" stroke-width="5.128" stroke="black" fill="none" stroke-linecap="round"></path><path d="M 103.500,144.000 C 111.977,140.737 111.419,139.852 119.500,136.000" stroke-width="3.994" stroke="black" fill="none" stroke-linecap="round"></path><path d="M 119.500,136.000 C 124.905,131.379 125.477,132.237 130.500,127.000" stroke-width="3.294" stroke="black" fill="none" stroke-linecap="round"></path><path d="M 130.500,127.000 C 136.415,122.381 136.405,122.379 142.500,118.000" stroke-width="3.074" stroke="black" fill="none" stroke-linecap="round"></path><path d="M 142.500,118.000 C 149.085,113.619 148.915,113.381 155.500,109.000" stroke-width="2.960" stroke="black" fill="none" stroke-linecap="round"></path><path d="M 155.500,109.000 C 161.399,104.358 161.585,104.619 167.500,100.000" stroke-width="2.920" stroke="black" fill="none" stroke-linecap="round"></path><path d="M 167.500,100.000 C 172.044,97.064 171.899,96.858 176.500,94.000" stroke-width="3.264" stroke="black" fill="none" stroke-linecap="round"></path><path d="M 176.500,94.000 C 179.848,91.247 180.044,91.564 183.500,89.000" stroke-width="3.530" stroke="black" fill="none" stroke-linecap="round"></path><path d="M 183.500,89.000 C 189.244,85.744 186.348,87.247 189.500,86.000" stroke-width="4.274" stroke="black" fill="none" stroke-linecap="round"></path><path d="M 189.500,86.000 C 186.757,87.743 189.744,86.244 184.500,90.000" stroke-width="4.571" stroke="black" fill="none" stroke-linecap="round"></path><path d="M 184.500,90.000 C 180.045,95.041 179.757,94.743 175.500,100.000" stroke-width="3.532" stroke="black" fill="none" stroke-linecap="round"></path><path d="M 175.500,100.000 C 168.753,106.785 169.045,107.041 162.500,114.000" stroke-width="2.863" stroke="black" fill="none" stroke-linecap="round"></path><path d="M 162.500,114.000 C 156.413,122.372 155.753,121.785 149.500,130.000" stroke-width="2.631" stroke="black" fill="none" stroke-linecap="round"></path><path d="M 149.500,130.000 C 141.625,138.129 141.913,138.372 133.500,146.000" stroke-width="2.475" stroke="black" fill="none" stroke-linecap="round"></path><path d="M 133.500,146.000 C 125.869,153.939 125.625,153.629 117.500,161.000" stroke-width="2.402" stroke="black" fill="none" stroke-linecap="round"></path><path d="M 117.500,161.000 C 109.467,166.956 109.869,167.439 101.500,173.000" stroke-width="2.527" stroke="black" fill="none" stroke-linecap="round"></path><path d="M 101.500,173.000 C 95.468,178.770 94.967,177.956 88.500,183.000" stroke-width="2.753" stroke="black" fill="none" stroke-linecap="round"></path><path d="M 88.500,183.000 C 81.062,186.639 81.468,187.270 73.500,190.000" stroke-width="2.761" stroke="black" fill="none" stroke-linecap="round"></path><path d="M 73.500,190.000 C 67.551,192.632 67.562,192.639 61.500,195.000" stroke-width="3.545" stroke="black" fill="none" stroke-linecap="round"></path><path d="M 61.500,195.000 C 56.049,197.150 56.051,197.132 50.500,199.000" stroke-width="3.393" stroke="black" fill="none" stroke-linecap="round"></path><path d="M 50.500,199.000 C 47.071,200.370 47.049,200.150 43.500,201.000" stroke-width="3.757" stroke="black" fill="none" stroke-linecap="round"></path><path d="M 43.500,201.000 C 37.183,203.534 38.571,201.870 33.500,202.000" stroke-width="3.702" stroke="black" fill="none" stroke-linecap="round"></path><path d="M 33.500,202.000 C 31.033,198.804 31.183,201.034 31.500,196.000" stroke-width="4.527" stroke="black" fill="none" stroke-linecap="round"></path><path d="M 31.500,196.000 C 32.900,192.414 32.033,192.804 35.500,190.000" stroke-width="4.107" stroke="black" fill="none" stroke-linecap="round"></path><path d="M 35.500,190.000 C 40.295,186.168 39.900,185.914 45.500,183.000" stroke-width="3.420" stroke="black" fill="none" stroke-linecap="round"></path><path d="M 45.500,183.000 C 51.746,178.927 51.795,179.168 58.500,176.000" stroke-width="3.122" stroke="black" fill="none" stroke-linecap="round"></path><path d="M 58.500,176.000 C 66.927,172.774 66.746,172.427 75.500,170.000" stroke-width="2.702" stroke="black" fill="none" stroke-linecap="round"></path><path d="M 75.500,170.000 C 83.938,167.266 83.927,167.274 92.500,165.000" stroke-width="2.679" stroke="black" fill="none" stroke-linecap="round"></path><path d="M 92.500,165.000 C 100.951,162.760 100.938,162.766 109.500,161.000" stroke-width="2.745" stroke="black" fill="none" stroke-linecap="round"></path><path d="M 109.500,161.000 C 118.149,160.088 117.951,159.260 126.500,158.000" stroke-width="2.777" stroke="black" fill="none" stroke-linecap="round"></path><path d="M 126.500,158.000 C 134.027,155.577 134.149,156.088 141.500,153.000" stroke-width="2.813" stroke="black" fill="none" stroke-linecap="round"></path><path d="M 141.500,153.000 C 148.515,150.540 148.527,150.577 155.500,148.000" stroke-width="2.995" stroke="black" fill="none" stroke-linecap="round"></path><path d="M 155.500,148.000 C 159.579,146.681 159.515,146.540 163.500,145.000" stroke-width="3.436" stroke="black" fill="none" stroke-linecap="round"></path><path d="M 163.500,145.000 C 167.093,144.140 166.579,143.681 169.500,142.000" stroke-width="3.833" stroke="black" fill="none" stroke-linecap="round"></path><path d="M 169.500,142.000 C 173.886,137.866 171.593,140.140 172.500,137.000" stroke-width="4.610" stroke="black" fill="none" stroke-linecap="round"></path><path d="M 172.500,137.000 C 166.869,136.195 169.886,135.366 161.500,137.000" stroke-width="4.329" stroke="black" fill="none" stroke-linecap="round"></path><path d="M 161.500,137.000 C 157.047,138.663 156.869,137.695 152.500,140.000" stroke-width="3.738" stroke="black" fill="none" stroke-linecap="round"></path><path d="M 152.500,140.000 C 148.338,140.561 148.547,141.163 144.500,142.000" stroke-width="3.720" stroke="black" fill="none" stroke-linecap="round"></path><path d="M 144.500,142.000 C 140.444,143.896 140.338,143.561 136.500,146.000" stroke-width="3.641" stroke="black" fill="none" stroke-linecap="round"></path><path d="M 136.500,146.000 C 132.982,147.969 132.944,147.896 129.500,150.000" stroke-width="3.761" stroke="black" fill="none" stroke-linecap="round"></path><path d="M 129.500,150.000 C 126.645,151.094 126.982,151.469 124.500,153.000" stroke-width="4.050" stroke="black" fill="none" stroke-linecap="round"></path><path d="M 124.500,153.000 C 119.787,156.574 122.145,155.094 120.500,158.000" stroke-width="4.544" stroke="black" fill="none" stroke-linecap="round"></path><path d="M 120.500,158.000 C 123.982,158.749 121.287,159.574 127.500,159.000" stroke-width="4.806" stroke="black" fill="none" stroke-linecap="round"></path><path d="M 127.500,159.000 C 131.014,159.232 130.982,159.249 134.500,159.000" stroke-width="4.200" stroke="black" fill="none" stroke-linecap="round"></path><path d="M 134.500,159.000 C 138.643,159.028 138.514,158.732 142.500,158.000" stroke-width="3.923" stroke="black" fill="none" stroke-linecap="round"></path><path d="M 142.500,158.000 C 145.985,156.464 146.143,157.028 149.500,155.000" stroke-width="3.896" stroke="black" fill="none" stroke-linecap="round"></path><path d="M 149.500,155.000 C 152.051,154.113 151.985,153.964 154.500,153.000" stroke-width="4.152" stroke="black" fill="none" stroke-linecap="round"></path><path d="M 154.500,153.000 C 160.500,149.759 157.551,151.613 160.500,150.000" stroke-width="4.520" stroke="black" fill="none" stroke-linecap="round"></path><path d="M 160.500,150.000 C 156.152,151.167 160.500,150.259 154.500,154.000" stroke-width="4.991" stroke="black" fill="none" stroke-linecap="round"></path><path d="M 154.500,154.000 C 151.539,159.603 152.652,157.167 153.500,162.000" stroke-width="4.652" stroke="black" fill="none" stroke-linecap="round"></path><path d="M 153.500,162.000 C 158.737,165.828 156.039,165.103 163.500,165.000" stroke-width="4.664" stroke="black" fill="none" stroke-linecap="round"></path><path d="M 163.500,165.000 C 170.480,162.214 170.237,163.828 176.500,158.000" stroke-width="3.294" stroke="black" fill="none" stroke-linecap="round"></path><path d="M 176.500,158.000 C 185.402,151.450 185.480,151.714 193.500,144.000" stroke-width="2.585" stroke="black" fill="none" stroke-linecap="round"></path><path d="M 193.500,144.000 C 209.927,127.923 210.402,128.450 226.500,112.000" stroke-width="2.447" stroke="black" fill="none" stroke-linecap="round"></path><path d="M 226.500,112.000 C 235.751,103.749 235.427,103.423 244.500,95.000" stroke-width="2.275" stroke="black" fill="none" stroke-linecap="round"></path><path d="M 244.500,95.000 C 251.252,87.248 251.751,87.749 258.500,80.000" stroke-width="2.460" stroke="black" fill="none" stroke-linecap="round"></path><path d="M 258.500,80.000 C 264.098,75.102 263.752,74.748 269.500,70.000" stroke-width="2.762" stroke="black" fill="none" stroke-linecap="round"></path><path d="M 269.500,70.000 C 273.000,66.500 273.098,66.602 276.500,63.000" stroke-width="3.225" stroke="black" fill="none" stroke-linecap="round"></path><path d="M 276.500,63.000 C 281.783,58.184 278.500,61.000 280.500,59.000" stroke-width="4.254" stroke="black" fill="none" stroke-linecap="round"></path><path d="M 280.500,59.000 C 272.711,64.141 276.283,61.684 265.500,70.000" stroke-width="3.802" stroke="black" fill="none" stroke-linecap="round"></path><path d="M 265.500,70.000 C 256.751,77.235 256.711,77.141 248.500,85.000" stroke-width="2.777" stroke="black" fill="none" stroke-linecap="round"></path><path d="M 248.500,85.000 C 240.129,93.633 239.751,93.235 231.500,102.000" stroke-width="2.384" stroke="black" fill="none" stroke-linecap="round"></path><path d="M 231.500,102.000 C 223.092,109.116 223.629,109.633 215.500,117.000" stroke-width="2.434" stroke="black" fill="none" stroke-linecap="round"></path><path d="M 215.500,117.000 C 210.378,122.903 210.092,122.616 205.500,129.000" stroke-width="2.762" stroke="black" fill="none" stroke-linecap="round"></path><path d="M 205.500,129.000 C 201.818,132.695 202.378,132.903 199.500,137.000" stroke-width="3.265" stroke="black" fill="none" stroke-linecap="round"></path><path d="M 199.500,137.000 C 196.934,141.530 198.318,139.195 198.500,142.000" stroke-width="4.256" stroke="black" fill="none" stroke-linecap="round"></path><path d="M 198.500,142.000 C 204.292,141.909 201.934,143.030 209.500,140.000" stroke-width="3.613" stroke="black" fill="none" stroke-linecap="round"></path><path d="M 209.500,140.000 C 219.266,135.992 219.292,136.409 228.500,131.000" stroke-width="2.767" stroke="black" fill="none" stroke-linecap="round"></path><path d="M 228.500,131.000 C 237.456,125.426 237.766,125.992 246.500,120.000" stroke-width="2.695" stroke="black" fill="none" stroke-linecap="round"></path><path d="M 246.500,120.000 C 254.760,114.520 254.956,114.926 263.500,110.000" stroke-width="2.740" stroke="black" fill="none" stroke-linecap="round"></path><path d="M 263.500,110.000 C 269.410,107.244 269.260,107.020 275.500,105.000" stroke-width="3.039" stroke="black" fill="none" stroke-linecap="round"></path><path d="M 275.500,105.000 C 283.261,101.096 278.910,103.744 282.500,103.000" stroke-width="3.656" stroke="black" fill="none" stroke-linecap="round"></path><path d="M 282.500,103.000 C 276.261,111.712 280.261,108.596 269.500,120.000" stroke-width="3.880" stroke="black" fill="none" stroke-linecap="round"></path><path d="M 269.500,120.000 C 260.225,130.292 260.761,130.712 251.500,141.000" stroke-width="2.474" stroke="black" fill="none" stroke-linecap="round"></path><path d="M 251.500,141.000 C 248.964,143.778 249.225,143.792 247.500,147.000" stroke-width="3.350" stroke="black" fill="none" stroke-linecap="round"></path><path d="M 247.500,147.000 C 244.677,152.000 246.464,149.278 246.500,152.000" stroke-width="4.277" stroke="black" fill="none" stroke-linecap="round"></path><path d="M 246.500,152.000 C 255.796,150.294 253.177,152.000 264.500,147.000" stroke-width="3.018" stroke="black" fill="none" stroke-linecap="round"></path><path d="M 264.500,147.000 C 274.000,142.500 274.296,143.294 283.500,138.000" stroke-width="2.582" stroke="black" fill="none" stroke-linecap="round"></path><path d="M 283.500,138.000 C 292.876,133.211 293.000,133.500 302.500,129.000" stroke-width="2.591" stroke="black" fill="none" stroke-linecap="round"></path><path d="M 302.500,129.000 C 308.957,126.379 308.876,126.211 315.500,124.000" stroke-width="2.869" stroke="black" fill="none" stroke-linecap="round"></path><path d="M 315.500,124.000 C 320.992,120.362 319.957,122.379 324.500,121.000" stroke-width="3.302" stroke="black" fill="none" stroke-linecap="round"></path><path d="M 324.500,121.000 C 327.427,123.837 326.492,121.362 326.500,126.000" stroke-width="4.362" stroke="black" fill="none" stroke-linecap="round"></path><path d="M 326.500,126.000 C 322.094,130.208 324.427,130.837 318.500,135.000" stroke-width="3.554" stroke="black" fill="none" stroke-linecap="round"></path><path d="M 318.500,135.000 C 315.346,138.194 316.094,138.208 314.500,142.000" stroke-width="3.682" stroke="black" fill="none" stroke-linecap="round"></path><path d="M 314.500,142.000 C 310.236,151.878 313.346,147.194 314.500,153.000" stroke-width="4.287" stroke="black" fill="none" stroke-linecap="round"></path><path d="M 314.500,153.000 C 333.654,153.824 329.236,156.878 352.500,152.000" stroke-width="2.116" stroke="black" fill="none" stroke-linecap="round"></path><path d="M 352.500,152.000 C 364.481,149.404 364.654,150.824 376.500,147.000" stroke-width="2.244" stroke="black" fill="none" stroke-linecap="round"></path><path d="M 376.500,147.000 C 386.936,144.509 386.981,144.904 397.500,143.000" stroke-width="2.412" stroke="black" fill="none" stroke-linecap="round"></path><path d="M 397.500,143.000 C 404.495,142.350 404.436,142.009 411.500,142.000" stroke-width="3.314" stroke="black" fill="none" stroke-linecap="round"></path><path d="M 411.500,142.000 C 417.500,141.513 414.495,141.850 417.500,142.000" stroke-width="3.863" stroke="black" fill="none" stroke-linecap="round"></path><path d="M 417.500,142.000 C 414.489,142.969 417.500,142.513 411.500,144.000" stroke-width="4.425" stroke="black" fill="none" stroke-linecap="round"></path><path d="M 411.500,144.000 C 400.089,148.275 399.989,147.969 388.500,152.000" stroke-width="2.699" stroke="black" fill="none" stroke-linecap="round"></path><path d="M 388.500,152.000 C 372.219,157.881 372.089,157.275 355.500,162.000" stroke-width="2.049" stroke="black" fill="none" stroke-linecap="round"></path><path d="M 355.500,162.000 C 337.648,166.450 337.719,166.381 319.500,169.000" stroke-width="1.907" stroke="black" fill="none" stroke-linecap="round"></path><path d="M 319.500,169.000 C 277.096,175.368 277.148,174.950 234.500,179.000" stroke-width="1.125" stroke="black" fill="none" stroke-linecap="round"></path><path d="M 234.500,179.000 C 212.502,179.621 212.596,180.868 190.500,180.000" stroke-width="1.368" stroke="black" fill="none" stroke-linecap="round"></path><path d="M 190.500,180.000 C 154.493,181.000 154.502,180.621 118.500,181.000" stroke-width="1.603" stroke="black" fill="none" stroke-linecap="round"></path><path d="M 118.500,181.000 C 105.629,182.471 105.993,181.000 93.500,180.000" stroke-width="2.497" stroke="black" fill="none" stroke-linecap="round"></path><path d="M 93.500,180.000 C 77.956,176.536 78.629,176.971 64.500,170.000" stroke-width="2.070" stroke="black" fill="none" stroke-linecap="round"></path><path d="M 64.500,170.000 C 57.990,167.081 60.456,168.036 58.500,163.000" stroke-width="3.309" stroke="black" fill="none" stroke-linecap="round"></path><path d="M 58.500,163.000 C 60.375,148.037 59.990,151.081 68.500,138.000" stroke-width="2.492" stroke="black" fill="none" stroke-linecap="round"></path><path d="M 68.500,138.000 C 79.519,127.609 77.375,127.037 92.500,121.000" stroke-width="2.112" stroke="black" fill="none" stroke-linecap="round"></path><path d="M 92.500,121.000 C 107.540,113.470 107.019,113.609 123.500,110.000" stroke-width="1.914" stroke="black" fill="none" stroke-linecap="round"></path><path d="M 123.500,110.000 C 142.446,106.977 142.040,105.970 161.500,106.000" stroke-width="1.729" stroke="black" fill="none" stroke-linecap="round"></path><path d="M 161.500,106.000 C 181.503,105.762 181.446,104.977 201.500,106.000" stroke-width="1.642" stroke="black" fill="none" stroke-linecap="round"></path><path d="M 201.500,106.000 C 223.546,105.724 223.503,106.262 245.500,107.000" stroke-width="1.540" stroke="black" fill="none" stroke-linecap="round"></path><path d="M 245.500,107.000 C 266.486,109.161 266.546,108.224 287.500,111.000" stroke-width="2.069" stroke="black" fill="none" stroke-linecap="round"></path><path d="M 287.500,111.000 C 306.521,112.275 306.486,112.661 325.500,114.000" stroke-width="1.823" stroke="black" fill="none" stroke-linecap="round"></path><path d="M 325.500,114.000 C 339.578,115.011 339.521,115.275 353.500,117.000" stroke-width="2.112" stroke="black" fill="none" stroke-linecap="round"></path><path d="M 353.500,117.000 C 371.216,116.646 360.578,118.011 367.500,120.000" stroke-width="2.647" stroke="black" fill="none" stroke-linecap="round"></path><path d="M 367.500,120.000 C 341.050,139.117 350.716,135.146 312.500,154.000" stroke-width="2.224" stroke="black" fill="none" stroke-linecap="round"></path><path d="M 312.500,154.000 C 293.168,161.976 294.050,163.617 273.500,169.000" stroke-width="1.769" stroke="black" fill="none" stroke-linecap="round"></path></svg>