<svg xmlns="http://www.w3.org/2000/svg" xmlns:xlink="http://www.w3.org/1999/xlink" viewBox="0 0 453 236" width="453" height="236"><path d="M 147.500,157.000 C 144.094,155.198 144.000,155.500 140.500,154.000" stroke-width="4.917" stroke="black" fill="none" stroke-linecap="round"></path><path d="M 140.500,154.000 C 137.833,153.933 138.094,153.198 135.500,153.000" stroke-width="4.604" stroke="black" fill="none" stroke-linecap="round"></path><path d="M 135.500,153.000 C 133.102,151.301 132.833,151.933 130.500,150.000" stroke-width="4.305" stroke="black" fill="none" stroke-linecap="round"></path><path d="M 130.500,150.000 C 127.000,148.500 127.102,148.301 123.500,147.000" stroke-width="3.947" stroke="black" fill="none" stroke-linecap="round"></path><path d="M 123.500,147.000 C 120.015,145.464 120.000,145.500 116.500,144.000" stroke-width="3.851" stroke="black" fill="none" stroke-linecap="round"></path><path d="M 116.500,144.000 C 113.810,143.347 114.015,142.964 111.500,142.000" stroke-width="4.094" stroke="black" fill="none" stroke-linecap="round"></path><path d="M 111.500,142.000 C 103.544,139.294 107.810,139.847 104.500,137.000" stroke-width="4.363" stroke="black" fill="none" stroke-linecap="round"></path><path d="M 104.500,137.000 C 110.220,132.855 106.044,133.294 116.500,130.000" stroke-width="4.667" stroke="black" fill="none" stroke-linecap="round"></path><path d="M 116.500,130.000 C 121.686,128.969 121.220,127.855 126.500,127.000" stroke-width="3.771" stroke="black" fill="none" stroke-linecap="round"></path><path d="M 126.500,127.000 C 132.367,123.699 132.686,124.469 138.500,121.000" stroke-width="3.243" stroke="black" fill="none" stroke-linecap="round"></path><path d="M 138.500,121.000 C 145.189,118.913 144.867,118.199 151.500,116.000" stroke-width="3.074" stroke="black" fill="none" stroke-linecap="round"></path><path d="M 151.500,116.000 C 157.851,112.180 158.189,112.913 164.500,109.000" stroke-width="2.969" stroke="black" fill="none" stroke-linecap="round"></path><path d="M 164.500,109.000 C 169.583,107.185 169.351,106.680 174.500,105.000" stroke-width="3.286" stroke="black" fill="none" stroke-linecap="round"></path><path d="M 174.500,105.000 C 178.334,102.488 178.583,103.185 182.500,101.000" stroke-width="3.556" stroke="black" fill="none" stroke-linecap="round"></path><path d="M 182.500,101.000 C 188.042,98.856 185.334,99.988 188.500,100.000" stroke-width="3.904" stroke="black" fill="none" stroke-linecap="round"></path><path d="M 188.500,100.000 C 187.027,103.473 189.042,101.356 184.500,106.000" stroke-width="4.554" stroke="black" fill="none" stroke-linecap="round"></path><path d="M 184.500,106.000 C 178.361,110.842 179.027,111.473 172.500,116.000" stroke-width="3.207" stroke="black" fill="none" stroke-linecap="round"></path><path d="M 172.500,116.000 C 165.863,121.857 165.861,121.842 159.500,128.000" stroke-width="2.812" stroke="black" fill="none" stroke-linecap="round"></path><path d="M 159.500,128.000 C 151.629,136.133 151.363,135.857 143.500,144.000" stroke-width="2.456" stroke="black" fill="none" stroke-linecap="round"></path><path d="M 143.500,144.000 C 136.375,151.437 136.129,151.133 128.500,158.000" stroke-width="2.520" stroke="black" fill="none" stroke-linecap="round"></path><path d="M 128.500,158.000 C 112.211,171.285 112.375,171.437 95.500,184.000" stroke-width="2.517" stroke="black" fill="none" stroke-linecap="round"></path><path d="M 95.500,184.000 C 89.154,188.742 89.211,188.785 82.500,193.000" stroke-width="2.783" stroke="black" fill="none" stroke-linecap="round"></path><path d="M 82.500,193.000 C 76.583,196.654 76.654,196.742 70.500,200.000" stroke-width="2.994" stroke="black" fill="none" stroke-linecap="round"></path><path d="M 70.500,200.000 C 66.500,202.000 66.583,202.154 62.500,204.000" stroke-width="3.491" stroke="black" fill="none" stroke-linecap="round"></path><path d="M 62.500,204.000 C 57.056,208.482 59.500,205.500 56.500,207.000" stroke-width="3.809" stroke="black" fill="none" stroke-linecap="round"></path><path d="M 56.500,207.000 C 56.739,200.768 55.556,204.482 59.500,196.000" stroke-width="4.539" stroke="black" fill="none" stroke-linecap="round"></path><path d="M 59.500,196.000 C 63.382,191.875 62.239,191.268 67.500,188.000" stroke-width="3.658" stroke="black" fill="none" stroke-linecap="round"></path><path d="M 67.500,188.000 C 71.824,183.785 71.882,183.875 76.500,180.000" stroke-width="3.332" stroke="black" fill="none" stroke-linecap="round"></path><path d="M 76.500,180.000 C 82.270,175.153 82.324,175.285 88.500,171.000" stroke-width="3.020" stroke="black" fill="none" stroke-linecap="round"></path><path d="M 88.500,171.000 C 94.258,167.005 94.270,167.153 100.500,164.000" stroke-width="3.014" stroke="black" fill="none" stroke-linecap="round"></path><path d="M 100.500,164.000 C 108.016,161.040 107.758,160.505 115.500,158.000" stroke-width="2.860" stroke="black" fill="none" stroke-linecap="round"></path><path d="M 115.500,158.000 C 123.844,154.055 124.016,154.540 132.500,151.000" stroke-width="3.348" stroke="black" fill="none" stroke-linecap="round"></path><path d="M 132.500,151.000 C 141.003,148.510 140.844,148.055 149.500,146.000" stroke-width="2.909" stroke="black" fill="none" stroke-linecap="round"></path><path d="M 149.500,146.000 C 162.992,141.973 163.003,142.010 176.500,138.000" stroke-width="2.306" stroke="black" fill="none" stroke-linecap="round"></path><path d="M 176.500,138.000 C 180.051,137.150 179.992,136.973 183.500,136.000" stroke-width="3.280" stroke="black" fill="none" stroke-linecap="round"></path><path d="M 183.500,136.000 C 189.819,134.132 186.051,135.150 188.500,134.000" stroke-width="3.879" stroke="black" fill="none" stroke-linecap="round"></path><path d="M 188.500,134.000 C 180.801,133.673 184.819,133.632 173.500,135.000" stroke-width="4.535" stroke="black" fill="none" stroke-linecap="round"></path><path d="M 173.500,135.000 C 169.944,136.379 169.801,135.673 166.500,138.000" stroke-width="4.003" stroke="black" fill="none" stroke-linecap="round"></path><path d="M 166.500,138.000 C 161.363,140.264 161.444,140.379 156.500,143.000" stroke-width="3.492" stroke="black" fill="none" stroke-linecap="round"></path><path d="M 156.500,143.000 C 153.302,144.758 153.363,144.764 150.500,147.000" stroke-width="3.800" stroke="black" fill="none" stroke-linecap="round"></path><path d="M 150.500,147.000 C 147.992,148.656 148.302,148.758 146.500,151.000" stroke-width="4.159" stroke="black" fill="none" stroke-linecap="round"></path><path d="M 146.500,151.000 C 142.730,155.175 144.492,154.156 143.500,158.000" stroke-width="4.455" stroke="black" fill="none" stroke-linecap="round"></path><path d="M 143.500,158.000 C 146.202,160.985 144.230,160.675 149.500,162.000" stroke-width="4.567" stroke="black" fill="none" stroke-linecap="round"></path><path d="M 149.500,162.000 C 153.000,162.000 152.702,162.985 156.500,162.000" stroke-width="4.089" stroke="black" fill="none" stroke-linecap="round"></path><path d="M 156.500,162.000 C 161.675,162.852 161.500,162.000 166.500,162.000" stroke-width="3.628" stroke="black" fill="none" stroke-linecap="round"></path><path d="M 166.500,162.000 C 170.161,160.798 170.175,161.352 173.500,159.000" stroke-width="3.804" stroke="black" fill="none" stroke-linecap="round"></path><path d="M 173.500,159.000 C 177.100,157.600 176.661,157.298 179.500,155.000" stroke-width="3.905" stroke="black" fill="none" stroke-linecap="round"></path><path d="M 179.500,155.000 C 185.500,149.471 183.100,151.100 185.500,146.000" stroke-width="4.372" stroke="black" fill="none" stroke-linecap="round"></path><path d="M 185.500,146.000 C 182.538,144.000 185.500,143.971 179.500,144.000" stroke-width="4.782" stroke="black" fill="none" stroke-linecap="round"></path><path d="M 179.500,144.000 C 174.330,143.736 175.538,144.000 171.500,146.000" stroke-width="4.561" stroke="black" fill="none" stroke-linecap="round"></path><path d="M 171.500,146.000 C 169.240,149.138 169.330,147.736 169.500,152.000" stroke-width="4.687" stroke="black" fill="none" stroke-linecap="round"></path><path d="M 169.500,152.000 C 170.150,156.217 169.740,154.638 172.500,157.000" stroke-width="4.927" stroke="black" fill="none" stroke-linecap="round"></path><path d="M 172.500,157.000 C 177.569,157.685 176.150,158.217 181.500,156.000" stroke-width="4.577" stroke="black" fill="none" stroke-linecap="round"></path><path d="M 181.500,156.000 C 183.887,153.376 184.569,154.685 186.500,151.000" stroke-width="4.137" stroke="black" fill="none" stroke-linecap="round"></path><path d="M 186.500,151.000 C 189.750,148.750 189.387,148.376 192.500,146.000" stroke-width="3.935" stroke="black" fill="none" stroke-linecap="round"></path><path d="M 192.500,146.000 C 194.959,142.965 195.250,143.250 197.500,140.000" stroke-width="3.878" stroke="black" fill="none" stroke-linecap="round"></path><path d="M 197.500,140.000 C 201.098,136.082 200.959,135.965 204.500,132.000" stroke-width="3.632" stroke="black" fill="none" stroke-linecap="round"></path><path d="M 204.500,132.000 C 208.252,126.778 208.598,127.082 212.500,122.000" stroke-width="3.261" stroke="black" fill="none" stroke-linecap="round"></path><path d="M 212.500,122.000 C 216.625,118.118 216.252,117.778 220.500,114.000" stroke-width="3.442" stroke="black" fill="none" stroke-linecap="round"></path><path d="M 220.500,114.000 C 224.134,109.109 224.625,109.618 228.500,105.000" stroke-width="3.336" stroke="black" fill="none" stroke-linecap="round"></path><path d="M 228.500,105.000 C 233.353,101.870 232.634,101.109 237.500,98.000" stroke-width="3.300" stroke="black" fill="none" stroke-linecap="round"></path><path d="M 237.500,98.000 C 240.401,94.409 240.853,94.870 243.500,91.000" stroke-width="3.535" stroke="black" fill="none" stroke-linecap="round"></path><path d="M 243.500,91.000 C 245.899,89.287 245.401,88.909 247.500,87.000" stroke-width="3.948" stroke="black" fill="none" stroke-linecap="round"></path><path d="M 247.500,87.000 C 252.099,81.711 249.399,84.287 250.500,81.000" stroke-width="4.430" stroke="black" fill="none" stroke-linecap="round"></path><path d="M 250.500,81.000 C 244.044,80.782 247.599,79.711 238.500,83.000" stroke-width="4.290" stroke="black" fill="none" stroke-linecap="round"></path><path d="M 238.500,83.000 C 231.767,86.662 231.544,85.782 225.500,91.000" stroke-width="3.267" stroke="black" fill="none" stroke-linecap="round"></path><path d="M 225.500,91.000 C 218.659,95.611 218.767,95.662 212.500,101.000" stroke-width="2.973" stroke="black" fill="none" stroke-linecap="round"></path><path d="M 212.500,101.000 C 206.739,106.262 206.659,106.111 201.500,112.000" stroke-width="2.948" stroke="black" fill="none" stroke-linecap="round"></path><path d="M 201.500,112.000 C 196.052,117.678 196.239,117.762 191.500,124.000" stroke-width="2.936" stroke="black" fill="none" stroke-linecap="round"></path><path d="M 191.500,124.000 C 187.018,130.257 187.052,130.178 183.500,137.000" stroke-width="2.896" stroke="black" fill="none" stroke-linecap="round"></path><path d="M 183.500,137.000 C 181.589,142.038 181.018,141.757 179.500,147.000" stroke-width="3.259" stroke="black" fill="none" stroke-linecap="round"></path><path d="M 179.500,147.000 C 177.327,151.433 177.589,151.538 175.500,156.000" stroke-width="3.465" stroke="black" fill="none" stroke-linecap="round"></path><path d="M 175.500,156.000 C 174.265,158.942 174.327,158.933 173.500,162.000" stroke-width="3.886" stroke="black" fill="none" stroke-linecap="round"></path><path d="M 173.500,162.000 C 170.714,167.675 172.765,164.942 172.500,168.000" stroke-width="4.062" stroke="black" fill="none" stroke-linecap="round"></path><path d="M 172.500,168.000 C 179.034,166.981 176.214,168.675 184.500,164.000" stroke-width="4.375" stroke="black" fill="none" stroke-linecap="round"></path><path d="M 184.500,164.000 C 189.604,160.123 190.034,160.981 194.500,156.000" stroke-width="3.487" stroke="black" fill="none" stroke-linecap="round"></path><path d="M 194.500,156.000 C 198.699,151.601 199.104,152.123 203.500,148.000" stroke-width="3.349" stroke="black" fill="none" stroke-linecap="round"></path><path d="M 203.500,148.000 C 208.912,144.353 208.699,144.101 214.500,141.000" stroke-width="3.433" stroke="black" fill="none" stroke-linecap="round"></path><path d="M 214.500,141.000 C 218.902,138.299 218.912,138.353 223.500,136.000" stroke-width="3.426" stroke="black" fill="none" stroke-linecap="round"></path><path d="M 223.500,136.000 C 226.985,134.464 226.902,134.299 230.500,133.000" stroke-width="3.735" stroke="black" fill="none" stroke-linecap="round"></path><path d="M 230.500,133.000 C 236.370,129.881 232.985,131.964 235.500,131.000" stroke-width="4.466" stroke="black" fill="none" stroke-linecap="round"></path><path d="M 235.500,131.000 C 229.400,136.395 232.870,134.381 223.500,142.000" stroke-width="3.952" stroke="black" fill="none" stroke-linecap="round"></path><path d="M 223.500,142.000 C 219.500,146.000 219.400,145.895 215.500,150.000" stroke-width="3.531" stroke="black" fill="none" stroke-linecap="round"></path><path d="M 215.500,150.000 C 211.872,152.574 212.500,153.000 209.500,156.000" stroke-width="3.683" stroke="black" fill="none" stroke-linecap="round"></path><path d="M 209.500,156.000 C 205.143,161.869 207.372,159.074 206.500,163.000" stroke-width="4.278" stroke="black" fill="none" stroke-linecap="round"></path><path d="M 206.500,163.000 C 211.637,163.236 208.143,164.369 215.500,161.000" stroke-width="3.755" stroke="black" fill="none" stroke-linecap="round"></path><path d="M 215.500,161.000 C 220.279,156.227 221.137,157.736 225.500,152.000" stroke-width="3.363" stroke="black" fill="none" stroke-linecap="round"></path><path d="M 225.500,152.000 C 231.025,148.034 230.779,147.727 236.500,144.000" stroke-width="3.131" stroke="black" fill="none" stroke-linecap="round"></path><path d="M 236.500,144.000 C 240.537,141.048 240.525,141.034 244.500,138.000" stroke-width="3.355" stroke="black" fill="none" stroke-linecap="round"></path><path d="M 244.500,138.000 C 250.194,133.306 247.037,136.048 249.500,134.000" stroke-width="4.202" stroke="black" fill="none" stroke-linecap="round"></path><path d="M 249.500,134.000 C 244.744,137.756 248.194,135.306 240.500,142.000" stroke-width="4.416" stroke="black" fill="none" stroke-linecap="round"></path><path d="M 240.500,142.000 C 238.099,144.260 238.244,144.256 236.500,147.000" stroke-width="4.226" stroke="black" fill="none" stroke-linecap="round"></path><path d="M 236.500,147.000 C 232.901,151.604 234.599,150.260 233.500,154.000" stroke-width="4.443" stroke="black" fill="none" stroke-linecap="round"></path><path d="M 233.500,154.000 C 236.007,155.178 233.901,155.604 238.500,155.000" stroke-width="4.771" stroke="black" fill="none" stroke-linecap="round"></path><path d="M 238.500,155.000 C 243.119,154.369 243.007,154.678 247.500,153.000" stroke-width="3.924" stroke="black" fill="none" stroke-linecap="round"></path><path d="M 247.500,153.000 C 251.102,151.699 251.119,151.869 254.500,150.000" stroke-width="3.897" stroke="black" fill="none" stroke-linecap="round"></path><path d="M 254.500,150.000 C 256.901,148.300 257.102,148.699 259.500,147.000" stroke-width="4.137" stroke="black" fill="none" stroke-linecap="round"></path><path d="M 259.500,147.000 C 265.425,144.075 261.901,145.800 264.500,145.000" stroke-width="4.615" stroke="black" fill="none" stroke-linecap="round"></path><path d="M 264.500,145.000 C 258.352,149.318 261.925,147.575 252.500,154.000" stroke-width="4.036" stroke="black" fill="none" stroke-linecap="round"></path><path d="M 252.500,154.000 C 248.075,157.127 248.352,157.318 244.500,161.000" stroke-width="3.553" stroke="black" fill="none" stroke-linecap="round"></path><path d="M 244.500,161.000 C 242.552,164.036 242.075,163.627 240.500,167.000" stroke-width="3.774" stroke="black" fill="none" stroke-linecap="round"></path><path d="M 240.500,167.000 C 234.187,172.249 238.052,170.536 235.500,174.000" stroke-width="4.213" stroke="black" fill="none" stroke-linecap="round"></path><path d="M 235.500,174.000 C 241.737,177.256 237.187,176.249 246.500,175.000" stroke-width="4.626" stroke="black" fill="none" stroke-linecap="round"></path><path d="M 246.500,175.000 C 260.549,166.176 260.737,168.256 273.500,156.000" stroke-width="2.320" stroke="black" fill="none" stroke-linecap="round"></path><path d="M 273.500,156.000 C 281.075,149.079 281.549,149.676 288.500,142.000" stroke-width="2.419" stroke="black" fill="none" stroke-linecap="round"></path><path d="M 288.500,142.000 C 302.927,128.904 302.575,128.579 316.500,115.000" stroke-width="2.531" stroke="black" fill="none" stroke-linecap="round"></path><path d="M 316.500,115.000 C 323.000,107.500 323.427,107.904 329.500,100.000" stroke-width="2.575" stroke="black" fill="none" stroke-linecap="round"></path><path d="M 329.500,100.000 C 336.064,92.555 336.000,92.500 342.500,85.000" stroke-width="2.589" stroke="black" fill="none" stroke-linecap="round"></path><path d="M 342.500,85.000 C 347.622,79.097 347.564,79.055 352.500,73.000" stroke-width="2.764" stroke="black" fill="none" stroke-linecap="round"></path><path d="M 352.500,73.000 C 355.595,69.067 355.622,69.097 358.500,65.000" stroke-width="3.266" stroke="black" fill="none" stroke-linecap="round"></path><path d="M 358.500,65.000 C 363.018,61.331 360.595,62.067 362.500,59.000" stroke-width="3.671" stroke="black" fill="none" stroke-linecap="round"></path><path d="M 362.500,59.000 C 359.281,55.073 362.018,56.831 356.500,56.000" stroke-width="4.487" stroke="black" fill="none" stroke-linecap="round"></path><path d="M 356.500,56.000 C 350.255,60.204 350.281,58.073 344.500,65.000" stroke-width="3.321" stroke="black" fill="none" stroke-linecap="round"></path><path d="M 344.500,65.000 C 338.251,70.249 338.255,70.204 332.500,76.000" stroke-width="2.929" stroke="black" fill="none" stroke-linecap="round"></path><path d="M 332.500,76.000 C 324.630,83.682 324.751,83.749 317.500,92.000" stroke-width="2.581" stroke="black" fill="none" stroke-linecap="round"></path><path d="M 317.500,92.000 C 309.798,101.347 309.630,101.182 302.500,111.000" stroke-width="2.331" stroke="black" fill="none" stroke-linecap="round"></path><path d="M 302.500,111.000 C 294.484,121.988 294.298,121.847 286.500,133.000" stroke-width="2.152" stroke="black" fill="none" stroke-linecap="round"></path><path d="M 286.500,133.000 C 279.925,141.947 279.984,141.988 273.500,151.000" stroke-width="2.291" stroke="black" fill="none" stroke-linecap="round"></path><path d="M 273.500,151.000 C 268.884,157.424 268.925,157.447 264.500,164.000" stroke-width="2.643" stroke="black" fill="none" stroke-linecap="round"></path><path d="M 264.500,164.000 C 261.838,167.909 261.884,167.924 259.500,172.000" stroke-width="3.257" stroke="black" fill="none" stroke-linecap="round"></path><path d="M 259.500,172.000 C 255.000,178.000 257.838,174.909 256.500,178.000" stroke-width="4.135" stroke="black" fill="none" stroke-linecap="round"></path><path d="M 256.500,178.000 C 262.730,175.410 259.500,178.000 268.500,172.000" stroke-width="4.063" stroke="black" fill="none" stroke-linecap="round"></path><path d="M 268.500,172.000 C 284.328,161.703 284.730,162.410 300.500,152.000" stroke-width="2.936" stroke="black" fill="none" stroke-linecap="round"></path><path d="M 300.500,152.000 C 306.956,148.414 306.828,148.203 313.500,145.000" stroke-width="3.563" stroke="black" fill="none" stroke-linecap="round"></path><path d="M 313.500,145.000 C 318.250,141.750 318.456,142.414 323.500,140.000" stroke-width="3.443" stroke="black" fill="none" stroke-linecap="round"></path><path d="M 323.500,140.000 C 334.319,135.287 328.750,138.250 334.500,138.000" stroke-width="3.350" stroke="black" fill="none" stroke-linecap="round"></path><path d="M 334.500,138.000 C 330.252,147.056 334.819,142.787 324.500,155.000" stroke-width="3.815" stroke="black" fill="none" stroke-linecap="round"></path><path d="M 324.500,155.000 C 318.643,160.714 319.752,161.556 313.500,167.000" stroke-width="3.033" stroke="black" fill="none" stroke-linecap="round"></path><path d="M 313.500,167.000 C 309.884,171.925 309.643,171.714 306.500,177.000" stroke-width="3.198" stroke="black" fill="none" stroke-linecap="round"></path><path d="M 306.500,177.000 C 301.460,181.806 304.884,179.425 303.500,182.000" stroke-width="3.832" stroke="black" fill="none" stroke-linecap="round"></path><path d="M 303.500,182.000 C 315.995,182.251 311.960,182.806 327.500,179.000" stroke-width="3.821" stroke="black" fill="none" stroke-linecap="round"></path><path d="M 327.500,179.000 C 338.500,174.000 338.995,175.751 349.500,169.000" stroke-width="2.558" stroke="black" fill="none" stroke-linecap="round"></path><path d="M 349.500,169.000 C 360.704,164.398 360.500,164.000 371.500,159.000" stroke-width="2.389" stroke="black" fill="none" stroke-linecap="round"></path><path d="M 371.500,159.000 C 378.500,155.000 378.704,155.398 385.500,151.000" stroke-width="2.717" stroke="black" fill="none" stroke-linecap="round"></path><path d="M 385.500,151.000 C 393.731,146.824 389.000,149.000 392.500,147.000" stroke-width="3.565" stroke="black" fill="none" stroke-linecap="round"></path><path d="M 392.500,147.000 C 385.042,148.608 390.231,147.324 378.500,152.000" stroke-width="4.072" stroke="black" fill="none" stroke-linecap="round"></path><path d="M 378.500,152.000 C 371.817,156.262 371.542,155.608 365.500,161.000" stroke-width="3.114" stroke="black" fill="none" stroke-linecap="round"></path><path d="M 365.500,161.000 C 361.169,163.441 361.817,163.762 358.500,167.000" stroke-width="3.419" stroke="black" fill="none" stroke-linecap="round"></path><path d="M 358.500,167.000 C 354.774,171.965 356.669,169.441 356.500,173.000" stroke-width="4.249" stroke="black" fill="none" stroke-linecap="round"></path><path d="M 356.500,173.000 C 362.520,173.386 359.774,174.965 368.500,173.000" stroke-width="3.468" stroke="black" fill="none" stroke-linecap="round"></path><path d="M 368.500,173.000 C 378.121,172.655 378.020,172.386 387.500,171.000" stroke-width="2.781" stroke="black" fill="none" stroke-linecap="round"></path><path d="M 387.500,171.000 C 394.956,168.811 395.121,169.655 402.500,167.000" stroke-width="2.891" stroke="black" fill="none" stroke-linecap="round"></path><path d="M 402.500,167.000 C 407.480,165.886 407.456,165.811 412.500,165.000" stroke-width="3.302" stroke="black" fill="none" stroke-linecap="round"></path><path d="M 412.500,165.000 C 421.044,163.860 415.980,164.386 419.500,164.000" stroke-width="3.744" stroke="black" fill="none" stroke-linecap="round"></path><path d="M 419.500,164.000 C 410.481,164.849 415.544,164.360 401.500,166.000" stroke-width="4.189" stroke="black" fill="none" stroke-linecap="round"></path><path d="M 401.500,166.000 C 391.057,168.296 390.981,167.349 380.500,169.000" stroke-width="2.846" stroke="black" fill="none" stroke-linecap="round"></path><path d="M 380.500,169.000 C 368.500,169.000 368.557,169.796 356.500,169.000" stroke-width="2.466" stroke="black" fill="none" stroke-linecap="round"></path><path d="M 356.500,169.000 C 339.000,169.000 339.000,169.000 321.500,169.000" stroke-width="1.929" stroke="black" fill="none" stroke-linecap="round"></path><path d="M 321.500,169.000 C 301.500,169.000 301.500,169.000 281.500,169.000" stroke-width="1.692" stroke="black" fill="none" stroke-linecap="round"></path><path d="M 281.500,169.000 C 257.981,168.303 258.000,169.000 234.500,169.000" stroke-width="1.499" stroke="black" fill="none" stroke-linecap="round"></path><path d="M 234.500,169.000 C 207.374,169.263 207.481,169.803 180.500,172.000" stroke-width="1.684" stroke="black" fill="none" stroke-linecap="round"></path><path d="M 180.500,172.000 C 153.354,175.187 153.374,174.763 126.500,180.000" stroke-width="1.375" stroke="black" fill="none" stroke-linecap="round"></path><path d="M 126.500,180.000 C 100.434,185.206 100.354,184.687 74.500,191.000" stroke-width="1.367" stroke="black" fill="none" stroke-linecap="round"></path><path d="M 121.500,32.000 C 125.936,30.415 126.000,31.000 130.500,30.000" stroke-width="3.276" stroke="black" fill="none" stroke-linecap="round"></path><path d="M 130.500,30.000 C 137.000,30.000 136.936,29.415 143.500,30.000" stroke-width="3.153" stroke="black" fill="none" stroke-linecap="round"></path><path d="M 143.500,30.000 C 148.500,30.000 148.500,30.000 153.500,30.000" stroke-width="3.415" stroke="black" fill="none" stroke-linecap="round"></path><path d="M 153.500,30.000 C 158.000,30.000 158.000,30.000 162.500,30.000" stroke-width="3.643" stroke="black" fill="none" stroke-linecap="round"></path><path d="M 162.500,30.000 C 166.553,28.540 165.500,30.000 168.500,30.000" stroke-width="3.989" stroke="black" fill="none" stroke-linecap="round"></path><path d="M 138.500,28.000 C 141.564,30.629 140.500,31.000 142.500,34.000" stroke-width="4.965" stroke="black" fill="none" stroke-linecap="round"></path><path d="M 142.500,34.000 C 143.269,39.989 144.064,39.629 143.500,46.000" stroke-width="3.663" stroke="black" fill="none" stroke-linecap="round"></path><path d="M 143.500,46.000 C 143.500,53.000 143.769,52.989 143.500,60.000" stroke-width="3.238" stroke="black" fill="none" stroke-linecap="round"></path><path d="M 143.500,60.000 C 144.048,65.067 143.500,65.000 143.500,70.000" stroke-width="3.391" stroke="black" fill="none" stroke-linecap="round"></path><path d="M 143.500,70.000 C 142.632,74.038 143.048,74.067 141.500,78.000" stroke-width="3.659" stroke="black" fill="none" stroke-linecap="round"></path><path d="M 141.500,78.000 C 140.713,81.088 140.632,81.038 139.500,84.000" stroke-width="3.957" stroke="black" fill="none" stroke-linecap="round"></path><path d="M 167.500,64.000 C 171.960,65.243 172.000,65.000 176.500,66.000" stroke-width="5.079" stroke="black" fill="none" stroke-linecap="round"></path><path d="M 176.500,66.000 C 180.984,66.785 180.960,66.743 185.500,67.000" stroke-width="4.003" stroke="black" fill="none" stroke-linecap="round"></path><path d="M 185.500,67.000 C 191.603,67.769 191.484,67.285 197.500,67.000" stroke-width="3.482" stroke="black" fill="none" stroke-linecap="round"></path><path d="M 197.500,67.000 C 203.368,66.309 203.103,66.269 208.500,64.000" stroke-width="3.341" stroke="black" fill="none" stroke-linecap="round"></path><path d="M 208.500,64.000 C 213.602,61.574 213.368,61.809 217.500,58.000" stroke-width="3.352" stroke="black" fill="none" stroke-linecap="round"></path><path d="M 217.500,58.000 C 221.893,54.548 219.602,56.074 220.500,53.000" stroke-width="3.856" stroke="black" fill="none" stroke-linecap="round"></path><path d="M 220.500,53.000 C 214.516,48.273 217.393,49.548 208.500,48.000" stroke-width="4.251" stroke="black" fill="none" stroke-linecap="round"></path><path d="M 208.500,48.000 C 203.301,49.599 203.516,47.773 198.500,52.000" stroke-width="3.651" stroke="black" fill="none" stroke-linecap="round"></path><path d="M 198.500,52.000 C 193.291,54.706 193.301,54.599 188.500,58.000" stroke-width="3.425" stroke="black" fill="none" stroke-linecap="round"></path><path d="M 188.500,58.000 C 185.400,60.390 185.291,60.206 182.500,63.000" stroke-width="3.715" stroke="black" fill="none" stroke-linecap="round"></path><path d="M 182.500,63.000 C 179.916,64.639 180.400,64.890 178.500,67.000" stroke-width="4.013" stroke="black" fill="none" stroke-linecap="round"></path><path d="M 178.500,67.000 C 174.646,71.764 176.916,69.639 176.500,73.000" stroke-width="4.483" stroke="black" fill="none" stroke-linecap="round"></path><path d="M 176.500,73.000 C 183.460,74.560 180.646,75.764 190.500,75.000" stroke-width="4.087" stroke="black" fill="none" stroke-linecap="round"></path><path d="M 190.500,75.000 C 199.500,75.000 199.460,75.560 208.500,75.000" stroke-width="3.763" stroke="black" fill="none" stroke-linecap="round"></path><path d="M 208.500,75.000 C 212.551,75.465 212.500,75.000 216.500,75.000" stroke-width="3.898" stroke="black" fill="none" stroke-linecap="round"></path><path d="M 216.500,75.000 C 221.440,74.895 221.051,74.465 225.500,73.000" stroke-width="3.661" stroke="black" fill="none" stroke-linecap="round"></path><path d="M 225.500,73.000 C 228.747,70.753 228.940,71.395 231.500,68.000" stroke-width="3.744" stroke="black" fill="none" stroke-linecap="round"></path><path d="M 269.500,39.000 C 266.392,40.313 266.500,40.500 263.500,42.000" stroke-width="5.210" stroke="black" fill="none" stroke-linecap="round"></path><path d="M 263.500,42.000 C 260.380,43.840 260.392,43.813 257.500,46.000" stroke-width="4.259" stroke="black" fill="none" stroke-linecap="round"></path><path d="M 257.500,46.000 C 254.649,48.710 254.380,48.340 251.500,51.000" stroke-width="4.018" stroke="black" fill="none" stroke-linecap="round"></path><path d="M 251.500,51.000 C 248.520,51.980 249.149,52.710 246.500,54.000" stroke-width="4.280" stroke="black" fill="none" stroke-linecap="round"></path><path d="M 246.500,54.000 C 241.205,58.938 243.520,56.980 241.500,61.000" stroke-width="4.459" stroke="black" fill="none" stroke-linecap="round"></path><path d="M 241.500,61.000 C 244.500,61.000 241.705,62.438 247.500,61.000" stroke-width="4.244" stroke="black" fill="none" stroke-linecap="round"></path><path d="M 247.500,61.000 C 252.500,61.000 252.500,61.000 257.500,61.000" stroke-width="3.664" stroke="black" fill="none" stroke-linecap="round"></path><path d="M 257.500,61.000 C 263.000,61.000 263.000,61.000 268.500,61.000" stroke-width="3.486" stroke="black" fill="none" stroke-linecap="round"></path><path d="M 268.500,61.000 C 273.565,59.131 271.500,61.000 274.500,61.000" stroke-width="3.931" stroke="black" fill="none" stroke-linecap="round"></path><path d="M 274.500,61.000 C 276.169,67.304 276.065,64.131 273.500,71.000" stroke-width="4.457" stroke="black" fill="none" stroke-linecap="round"></path><path d="M 273.500,71.000 C 267.696,75.338 269.669,76.304 261.500,79.000" stroke-width="3.363" stroke="black" fill="none" stroke-linecap="round"></path><path d="M 261.500,79.000 C 256.546,81.597 256.696,81.838 251.500,84.000" stroke-width="3.327" stroke="black" fill="none" stroke-linecap="round"></path><path d="M 251.500,84.000 C 246.080,86.703 246.046,86.597 240.500,89.000" stroke-width="3.300" stroke="black" fill="none" stroke-linecap="round"></path><path d="M 240.500,89.000 C 233.116,92.038 237.580,90.203 234.500,91.000" stroke-width="3.780" stroke="black" fill="none" stroke-linecap="round"></path><path d="M 321.500,18.000 C 318.599,21.802 319.000,22.000 316.500,26.000" stroke-width="5.050" stroke="black" fill="none" stroke-linecap="round"></path><path d="M 316.500,26.000 C 314.977,29.991 314.599,29.802 313.500,34.000" stroke-width="4.059" stroke="black" fill="none" stroke-linecap="round"></path><path d="M 313.500,34.000 C 312.005,39.740 311.477,39.491 309.500,45.000" stroke-width="3.455" stroke="black" fill="none" stroke-linecap="round"></path><path d="M 309.500,45.000 C 306.099,49.801 307.005,50.240 303.500,55.000" stroke-width="3.312" stroke="black" fill="none" stroke-linecap="round"></path><path d="M 303.500,55.000 C 301.277,59.922 301.099,59.801 299.500,65.000" stroke-width="3.454" stroke="black" fill="none" stroke-linecap="round"></path><path d="M 299.500,65.000 C 297.349,69.904 297.777,69.922 296.500,75.000" stroke-width="3.528" stroke="black" fill="none" stroke-linecap="round"></path><path d="M 296.500,75.000 C 295.902,79.115 295.849,78.904 296.500,83.000" stroke-width="3.731" stroke="black" fill="none" stroke-linecap="round"></path><path d="M 347.500,55.000 C 342.541,53.240 342.500,54.000 337.500,53.000" stroke-width="4.755" stroke="black" fill="none" stroke-linecap="round"></path><path d="M 337.500,53.000 C 331.985,53.367 332.041,52.740 326.500,54.000" stroke-width="3.789" stroke="black" fill="none" stroke-linecap="round"></path><path d="M 326.500,54.000 C 319.004,55.032 318.985,54.867 311.500,56.000" stroke-width="3.181" stroke="black" fill="none" stroke-linecap="round"></path><path d="M 311.500,56.000 C 303.521,57.224 303.504,57.032 295.500,58.000" stroke-width="3.028" stroke="black" fill="none" stroke-linecap="round"></path><path d="M 295.500,58.000 C 288.007,58.700 288.021,58.724 280.500,59.000" stroke-width="3.054" stroke="black" fill="none" stroke-linecap="round"></path><path d="M 280.500,59.000 C 275.500,59.000 275.507,59.200 270.500,59.000" stroke-width="3.328" stroke="black" fill="none" stroke-linecap="round"></path></svg>