<svg xmlns="http://www.w3.org/2000/svg" xmlns:xlink="http://www.w3.org/1999/xlink" viewBox="0 0 453 236" width="453" height="236"><path d="M 267.500,85.000 C 261.370,85.478 261.500,86.000 255.500,87.000" stroke-width="2.325" stroke="black" fill="none" stroke-linecap="round"></path><path d="M 255.500,87.000 C 247.710,88.819 247.870,88.978 240.500,92.000" stroke-width="2.708" stroke="black" fill="none" stroke-linecap="round"></path><path d="M 240.500,92.000 C 231.010,97.019 230.710,96.319 221.500,102.000" stroke-width="2.549" stroke="black" fill="none" stroke-linecap="round"></path><path d="M 221.500,102.000 C 209.945,107.896 210.010,108.019 198.500,114.000" stroke-width="2.314" stroke="black" fill="none" stroke-linecap="round"></path><path d="M 198.500,114.000 C 187.427,119.870 187.445,119.896 176.500,126.000" stroke-width="2.286" stroke="black" fill="none" stroke-linecap="round"></path><path d="M 176.500,126.000 C 166.658,131.000 166.927,131.370 157.500,137.000" stroke-width="2.401" stroke="black" fill="none" stroke-linecap="round"></path><path d="M 157.500,137.000 C 151.978,140.522 152.158,140.500 147.500,145.000" stroke-width="2.914" stroke="black" fill="none" stroke-linecap="round"></path><path d="M 147.500,145.000 C 144.592,147.725 144.978,147.522 143.500,151.000" stroke-width="3.528" stroke="black" fill="none" stroke-linecap="round"></path><path d="M 143.500,151.000 C 141.675,155.175 142.592,153.725 143.500,157.000" stroke-width="3.946" stroke="black" fill="none" stroke-linecap="round"></path><path d="M 143.500,157.000 C 148.663,160.703 147.175,160.675 154.500,162.000" stroke-width="3.396" stroke="black" fill="none" stroke-linecap="round"></path><path d="M 154.500,162.000 C 166.954,164.276 166.663,164.703 179.500,165.000" stroke-width="2.447" stroke="black" fill="none" stroke-linecap="round"></path><path d="M 179.500,165.000 C 193.000,165.000 192.954,165.776 206.500,165.000" stroke-width="2.249" stroke="black" fill="none" stroke-linecap="round"></path><path d="M 206.500,165.000 C 223.552,165.862 223.500,165.000 240.500,165.000" stroke-width="1.973" stroke="black" fill="none" stroke-linecap="round"></path><path d="M 240.500,165.000 C 253.106,164.110 253.052,164.362 265.500,162.000" stroke-width="2.170" stroke="black" fill="none" stroke-linecap="round"></path><path d="M 265.500,162.000 C 276.922,160.627 276.606,160.110 287.500,157.000" stroke-width="2.337" stroke="black" fill="none" stroke-linecap="round"></path><path d="M 287.500,157.000 C 294.614,154.251 294.422,154.627 300.500,150.000" stroke-width="2.720" stroke="black" fill="none" stroke-linecap="round"></path><path d="M 300.500,150.000 C 304.265,147.458 303.614,147.751 305.500,144.000" stroke-width="3.384" stroke="black" fill="none" stroke-linecap="round"></path><path d="M 305.500,144.000 C 307.882,138.680 306.765,140.458 305.500,136.000" stroke-width="3.681" stroke="black" fill="none" stroke-linecap="round"></path><path d="M 305.500,136.000 C 298.102,129.656 299.882,129.680 289.500,126.000" stroke-width="2.835" stroke="black" fill="none" stroke-linecap="round"></path><path d="M 289.500,126.000 C 277.777,120.563 278.102,121.156 265.500,119.000" stroke-width="2.355" stroke="black" fill="none" stroke-linecap="round"></path><path d="M 265.500,119.000 C 249.960,118.227 250.277,117.063 234.500,119.000" stroke-width="2.089" stroke="black" fill="none" stroke-linecap="round"></path><path d="M 234.500,119.000 C 219.667,119.003 219.960,119.727 205.500,122.000" stroke-width="2.021" stroke="black" fill="none" stroke-linecap="round"></path><path d="M 205.500,122.000 C 193.908,125.755 193.667,124.503 182.500,130.000" stroke-width="2.266" stroke="black" fill="none" stroke-linecap="round"></path><path d="M 182.500,130.000 C 172.478,133.946 172.408,133.755 162.500,138.000" stroke-width="2.356" stroke="black" fill="none" stroke-linecap="round"></path><path d="M 162.500,138.000 C 156.437,140.362 156.478,140.446 150.500,143.000" stroke-width="2.883" stroke="black" fill="none" stroke-linecap="round"></path><path d="M 150.500,143.000 C 142.806,145.739 147.437,144.362 144.500,146.000" stroke-width="3.602" stroke="black" fill="none" stroke-linecap="round"></path><path d="M 144.500,146.000 C 154.076,146.149 149.306,146.739 163.500,145.000" stroke-width="3.905" stroke="black" fill="none" stroke-linecap="round"></path><path d="M 163.500,145.000 C 174.473,142.838 174.576,143.649 185.500,141.000" stroke-width="2.740" stroke="black" fill="none" stroke-linecap="round"></path><path d="M 185.500,141.000 C 195.527,139.662 195.473,139.338 205.500,138.000" stroke-width="2.556" stroke="black" fill="none" stroke-linecap="round"></path><path d="M 205.500,138.000 C 213.475,136.338 213.527,136.662 221.500,135.000" stroke-width="2.770" stroke="black" fill="none" stroke-linecap="round"></path><path d="M 221.500,135.000 C 230.722,134.349 225.475,134.338 229.500,134.000" stroke-width="3.428" stroke="black" fill="none" stroke-linecap="round"></path><path d="M 229.500,134.000 C 222.003,132.773 227.222,133.349 214.500,133.000" stroke-width="3.914" stroke="black" fill="none" stroke-linecap="round"></path><path d="M 214.500,133.000 C 189.017,135.078 189.003,133.773 163.500,136.000" stroke-width="2.540" stroke="black" fill="none" stroke-linecap="round"></path><path d="M 163.500,136.000 C 147.478,136.561 147.517,136.578 131.500,136.000" stroke-width="2.097" stroke="black" fill="none" stroke-linecap="round"></path><path d="M 131.500,136.000 C 118.862,135.971 118.978,135.561 106.500,134.000" stroke-width="2.217" stroke="black" fill="none" stroke-linecap="round"></path><path d="M 106.500,134.000 C 84.490,129.550 84.362,130.471 62.500,125.000" stroke-width="2.358" stroke="black" fill="none" stroke-linecap="round"></path><path d="M 62.500,125.000 C 55.508,123.460 55.490,123.550 48.500,122.000" stroke-width="2.805" stroke="black" fill="none" stroke-linecap="round"></path><path d="M 48.500,122.000 C 43.511,120.940 43.508,120.960 38.500,120.000" stroke-width="3.267" stroke="black" fill="none" stroke-linecap="round"></path><path d="M 38.500,120.000 C 32.068,119.216 35.511,119.440 32.500,119.000" stroke-width="3.794" stroke="black" fill="none" stroke-linecap="round"></path><path d="M 32.500,119.000 C 36.546,118.506 33.068,118.716 40.500,119.000" stroke-width="4.579" stroke="black" fill="none" stroke-linecap="round"></path><path d="M 40.500,119.000 C 48.463,120.731 48.546,120.006 56.500,122.000" stroke-width="3.235" stroke="black" fill="none" stroke-linecap="round"></path><path d="M 56.500,122.000 C 67.465,123.826 67.463,123.731 78.500,125.000" stroke-width="2.634" stroke="black" fill="none" stroke-linecap="round"></path><path d="M 78.500,125.000 C 91.010,125.885 90.965,126.326 103.500,127.000" stroke-width="2.370" stroke="black" fill="none" stroke-linecap="round"></path><path d="M 103.500,127.000 C 118.975,128.824 119.010,128.385 134.500,130.000" stroke-width="2.144" stroke="black" fill="none" stroke-linecap="round"></path><path d="M 134.500,130.000 C 151.986,131.500 151.975,131.324 169.500,132.000" stroke-width="1.919" stroke="black" fill="none" stroke-linecap="round"></path><path d="M 169.500,132.000 C 187.000,132.000 186.986,132.500 204.500,132.000" stroke-width="1.808" stroke="black" fill="none" stroke-linecap="round"></path><path d="M 204.500,132.000 C 223.000,132.000 223.000,132.000 241.500,132.000" stroke-width="1.831" stroke="black" fill="none" stroke-linecap="round"></path><path d="M 241.500,132.000 C 259.566,133.055 259.500,132.000 277.500,132.000" stroke-width="1.812" stroke="black" fill="none" stroke-linecap="round"></path><path d="M 277.500,132.000 C 293.548,130.320 293.566,131.055 309.500,128.000" stroke-width="1.849" stroke="black" fill="none" stroke-linecap="round"></path><path d="M 309.500,128.000 C 320.979,125.868 321.048,126.320 332.500,124.000" stroke-width="2.136" stroke="black" fill="none" stroke-linecap="round"></path><path d="M 332.500,124.000 C 339.476,122.669 339.479,122.868 346.500,122.000" stroke-width="2.714" stroke="black" fill="none" stroke-linecap="round"></path><path d="M 346.500,122.000 C 351.615,120.385 349.976,121.669 353.500,122.000" stroke-width="3.494" stroke="black" fill="none" stroke-linecap="round"></path><path d="M 353.500,122.000 C 354.818,125.892 355.115,123.385 353.500,128.000" stroke-width="4.528" stroke="black" fill="none" stroke-linecap="round"></path></svg>