<svg xmlns="http://www.w3.org/2000/svg" xmlns:xlink="http://www.w3.org/1999/xlink" viewBox="0 0 1460 592" width="1460" height="592"><path d="M 670.000,337.000 C 666.996,338.261 667.000,337.500 664.000,338.000" stroke-width="5.058" stroke="black" fill="none" stroke-linecap="round"></path><path d="M 664.000,338.000 C 655.057,337.686 655.496,337.261 647.000,335.000" stroke-width="4.018" stroke="black" fill="none" stroke-linecap="round"></path><path d="M 647.000,335.000 C 642.000,332.000 641.557,333.186 637.000,329.000" stroke-width="3.515" stroke="black" fill="none" stroke-linecap="round"></path><path d="M 637.000,329.000 C 626.466,323.718 627.000,323.000 617.000,317.000" stroke-width="2.758" stroke="black" fill="none" stroke-linecap="round"></path><path d="M 617.000,317.000 C 610.652,312.686 610.966,312.718 606.000,307.000" stroke-width="3.457" stroke="black" fill="none" stroke-linecap="round"></path><path d="M 606.000,307.000 C 602.726,300.855 601.652,301.686 599.000,295.000" stroke-width="3.132" stroke="black" fill="none" stroke-linecap="round"></path><path d="M 599.000,295.000 C 595.573,289.947 595.726,289.855 592.000,285.000" stroke-width="3.230" stroke="black" fill="none" stroke-linecap="round"></path><path d="M 592.000,285.000 C 587.984,281.509 589.073,280.947 586.000,277.000" stroke-width="3.491" stroke="black" fill="none" stroke-linecap="round"></path><path d="M 586.000,277.000 C 581.608,268.519 582.484,269.009 581.000,260.000" stroke-width="3.580" stroke="black" fill="none" stroke-linecap="round"></path><path d="M 581.000,260.000 C 581.759,254.123 580.608,254.519 584.000,249.000" stroke-width="3.980" stroke="black" fill="none" stroke-linecap="round"></path><path d="M 584.000,249.000 C 585.390,244.186 585.259,246.123 588.000,244.000" stroke-width="4.465" stroke="black" fill="none" stroke-linecap="round"></path><path d="M 588.000,244.000 C 593.149,245.680 592.390,243.686 598.000,248.000" stroke-width="4.842" stroke="black" fill="none" stroke-linecap="round"></path><path d="M 598.000,248.000 C 604.182,252.273 604.649,251.180 611.000,255.000" stroke-width="3.320" stroke="black" fill="none" stroke-linecap="round"></path><path d="M 611.000,255.000 C 619.277,258.886 619.182,258.273 628.000,260.000" stroke-width="2.836" stroke="black" fill="none" stroke-linecap="round"></path><path d="M 628.000,260.000 C 642.997,260.706 642.777,261.886 658.000,261.000" stroke-width="2.157" stroke="black" fill="none" stroke-linecap="round"></path><path d="M 658.000,261.000 C 668.567,262.000 668.497,261.206 679.000,261.000" stroke-width="2.396" stroke="black" fill="none" stroke-linecap="round"></path><path d="M 679.000,261.000 C 705.001,257.506 705.067,258.500 731.000,254.000" stroke-width="1.520" stroke="black" fill="none" stroke-linecap="round"></path><path d="M 731.000,254.000 C 749.431,250.812 749.501,251.506 768.000,249.000" stroke-width="1.634" stroke="black" fill="none" stroke-linecap="round"></path><path d="M 768.000,249.000 C 790.485,247.055 790.431,246.812 813.000,246.000" stroke-width="1.811" stroke="black" fill="none" stroke-linecap="round"></path><path d="M 813.000,246.000 C 822.500,246.000 822.485,245.555 832.000,246.000" stroke-width="2.284" stroke="black" fill="none" stroke-linecap="round"></path><path d="M 832.000,246.000 C 837.000,246.000 837.000,246.000 842.000,246.000" stroke-width="3.039" stroke="black" fill="none" stroke-linecap="round"></path><path d="M 842.000,246.000 C 847.594,243.956 846.500,246.000 851.000,246.000" stroke-width="3.890" stroke="black" fill="none" stroke-linecap="round"></path><path d="M 851.000,246.000 C 855.638,250.004 855.094,248.456 857.000,255.000" stroke-width="4.406" stroke="black" fill="none" stroke-linecap="round"></path><path d="M 857.000,255.000 C 858.719,261.887 858.638,261.004 857.000,268.000" stroke-width="3.405" stroke="black" fill="none" stroke-linecap="round"></path><path d="M 857.000,268.000 C 852.938,277.742 854.219,277.887 848.000,287.000" stroke-width="2.659" stroke="black" fill="none" stroke-linecap="round"></path><path d="M 848.000,287.000 C 844.455,292.472 844.938,292.742 841.000,298.000" stroke-width="3.006" stroke="black" fill="none" stroke-linecap="round"></path><path d="M 841.000,298.000 C 836.764,303.309 839.455,300.472 838.000,303.000" stroke-width="4.183" stroke="black" fill="none" stroke-linecap="round"></path><path d="M 838.000,303.000 C 843.182,298.909 840.764,302.309 849.000,296.000" stroke-width="4.187" stroke="black" fill="none" stroke-linecap="round"></path><path d="M 849.000,296.000 C 862.924,287.267 863.182,288.909 878.000,283.000" stroke-width="2.332" stroke="black" fill="none" stroke-linecap="round"></path><path d="M 878.000,283.000 C 890.029,281.000 889.424,279.767 902.000,281.000" stroke-width="2.329" stroke="black" fill="none" stroke-linecap="round"></path><path d="M 902.000,281.000 C 909.047,281.736 909.029,281.000 916.000,283.000" stroke-width="2.753" stroke="black" fill="none" stroke-linecap="round"></path><path d="M 916.000,283.000 C 925.771,284.308 925.547,284.736 935.000,287.000" stroke-width="2.601" stroke="black" fill="none" stroke-linecap="round"></path><path d="M 935.000,287.000 C 939.454,287.635 937.771,287.808 940.000,290.000" stroke-width="3.776" stroke="black" fill="none" stroke-linecap="round"></path><path d="M 940.000,290.000 C 940.660,296.010 940.954,294.135 938.000,300.000" stroke-width="4.126" stroke="black" fill="none" stroke-linecap="round"></path><path d="M 938.000,300.000 C 932.918,303.901 934.660,305.010 928.000,308.000" stroke-width="3.438" stroke="black" fill="none" stroke-linecap="round"></path><path d="M 928.000,308.000 C 920.867,313.856 920.918,313.901 914.000,320.000" stroke-width="2.884" stroke="black" fill="none" stroke-linecap="round"></path><path d="M 914.000,320.000 C 907.500,324.500 911.367,322.356 909.000,325.000" stroke-width="3.932" stroke="black" fill="none" stroke-linecap="round"></path><path d="M 909.000,325.000 C 916.047,324.264 912.000,326.000 923.000,323.000" stroke-width="4.238" stroke="black" fill="none" stroke-linecap="round"></path><path d="M 923.000,323.000 C 932.417,320.491 932.547,321.264 942.000,319.000" stroke-width="2.964" stroke="black" fill="none" stroke-linecap="round"></path><path d="M 942.000,319.000 C 954.964,316.869 954.917,316.991 968.000,316.000" stroke-width="2.258" stroke="black" fill="none" stroke-linecap="round"></path><path d="M 968.000,316.000 C 977.500,316.000 977.464,315.369 987.000,316.000" stroke-width="2.523" stroke="black" fill="none" stroke-linecap="round"></path><path d="M 987.000,316.000 C 996.000,316.000 996.000,316.000 1005.000,316.000" stroke-width="3.213" stroke="black" fill="none" stroke-linecap="round"></path><path d="M 1005.000,316.000 C 1008.000,316.000 1008.000,316.000 1011.000,316.000" stroke-width="3.857" stroke="black" fill="none" stroke-linecap="round"></path><path d="M 1011.000,316.000 C 1016.065,316.617 1016.000,316.000 1021.000,316.000" stroke-width="3.571" stroke="black" fill="none" stroke-linecap="round"></path><path d="M 1021.000,316.000 C 1027.968,314.339 1028.065,315.117 1035.000,313.000" stroke-width="3.192" stroke="black" fill="none" stroke-linecap="round"></path><path d="M 1035.000,313.000 C 1048.947,309.899 1048.968,310.339 1063.000,308.000" stroke-width="4.323" stroke="black" fill="none" stroke-linecap="round"></path><path d="M 1063.000,308.000 C 1067.501,308.087 1067.447,307.399 1072.000,308.000" stroke-width="3.850" stroke="black" fill="none" stroke-linecap="round"></path><path d="M 1072.000,308.000 C 1119.507,306.000 1119.501,307.087 1167.000,306.000" stroke-width="1.125" stroke="black" fill="none" stroke-linecap="round"></path><path d="M 1167.000,306.000 C 1194.992,307.451 1195.007,306.000 1223.000,308.000" stroke-width="1.187" stroke="black" fill="none" stroke-linecap="round"></path><path d="M 1223.000,308.000 C 1246.026,308.647 1245.992,308.451 1269.000,308.000" stroke-width="1.401" stroke="black" fill="none" stroke-linecap="round"></path><path d="M 1269.000,308.000 C 1281.591,307.654 1281.526,307.647 1294.000,306.000" stroke-width="1.915" stroke="black" fill="none" stroke-linecap="round"></path><path d="M 1294.000,306.000 C 1308.938,301.638 1304.091,304.654 1314.000,302.000" stroke-width="2.666" stroke="black" fill="none" stroke-linecap="round"></path><path d="M 1314.000,302.000 C 1311.780,306.527 1315.938,302.138 1308.000,307.000" stroke-width="4.072" stroke="black" fill="none" stroke-linecap="round"></path><path d="M 1308.000,307.000 C 1283.008,308.383 1283.780,310.027 1258.000,309.000" stroke-width="1.772" stroke="black" fill="none" stroke-linecap="round"></path><path d="M 1258.000,309.000 C 1242.495,309.337 1242.508,309.383 1227.000,309.000" stroke-width="1.968" stroke="black" fill="none" stroke-linecap="round"></path><path d="M 1227.000,309.000 C 1173.441,308.659 1173.495,307.837 1120.000,306.000" stroke-width="1.125" stroke="black" fill="none" stroke-linecap="round"></path><path d="M 1120.000,306.000 C 1072.984,302.699 1072.941,303.659 1026.000,299.000" stroke-width="1.125" stroke="black" fill="none" stroke-linecap="round"></path><path d="M 1026.000,299.000 C 1009.537,296.689 1009.484,297.699 993.000,296.000" stroke-width="1.389" stroke="black" fill="none" stroke-linecap="round"></path><path d="M 993.000,296.000 C 973.500,296.000 973.537,295.189 954.000,296.000" stroke-width="1.598" stroke="black" fill="none" stroke-linecap="round"></path><path d="M 954.000,296.000 C 943.000,296.000 943.000,296.000 932.000,296.000" stroke-width="2.021" stroke="black" fill="none" stroke-linecap="round"></path><path d="M 932.000,296.000 C 925.993,295.778 926.000,296.000 920.000,296.000" stroke-width="2.731" stroke="black" fill="none" stroke-linecap="round"></path><path d="M 920.000,296.000 C 912.475,296.252 912.493,296.278 905.000,297.000" stroke-width="2.904" stroke="black" fill="none" stroke-linecap="round"></path><path d="M 905.000,297.000 C 897.519,298.284 897.475,297.752 890.000,299.000" stroke-width="2.895" stroke="black" fill="none" stroke-linecap="round"></path><path d="M 890.000,299.000 C 887.000,299.000 887.019,299.284 884.000,299.000" stroke-width="3.740" stroke="black" fill="none" stroke-linecap="round"></path><path d="M 884.000,299.000 C 880.500,299.000 880.500,299.000 877.000,299.000" stroke-width="3.992" stroke="black" fill="none" stroke-linecap="round"></path><path d="M 447.000,120.000 C 450.027,120.270 450.000,120.000 453.000,120.000" stroke-width="5.037" stroke="black" fill="none" stroke-linecap="round"></path><path d="M 453.000,120.000 C 455.465,119.149 455.527,119.770 458.000,119.000" stroke-width="4.471" stroke="black" fill="none" stroke-linecap="round"></path><path d="M 458.000,119.000 C 464.024,118.588 463.965,118.649 470.000,119.000" stroke-width="3.579" stroke="black" fill="none" stroke-linecap="round"></path><path d="M 470.000,119.000 C 478.570,119.595 478.524,119.588 487.000,121.000" stroke-width="2.929" stroke="black" fill="none" stroke-linecap="round"></path><path d="M 487.000,121.000 C 493.500,122.500 493.570,122.095 500.000,124.000" stroke-width="3.025" stroke="black" fill="none" stroke-linecap="round"></path><path d="M 500.000,124.000 C 506.475,125.626 506.500,125.500 513.000,127.000" stroke-width="3.689" stroke="black" fill="none" stroke-linecap="round"></path><path d="M 513.000,127.000 C 516.008,127.456 515.975,127.626 519.000,128.000" stroke-width="3.995" stroke="black" fill="none" stroke-linecap="round"></path><path d="M 480.000,105.000 C 479.560,108.011 479.500,108.000 479.000,111.000" stroke-width="5.044" stroke="black" fill="none" stroke-linecap="round"></path><path d="M 479.000,111.000 C 477.838,115.974 478.060,116.011 477.000,121.000" stroke-width="3.799" stroke="black" fill="none" stroke-linecap="round"></path><path d="M 477.000,121.000 C 476.349,124.986 476.338,124.974 476.000,129.000" stroke-width="3.758" stroke="black" fill="none" stroke-linecap="round"></path><path d="M 476.000,129.000 C 475.268,136.492 475.349,136.486 475.000,144.000" stroke-width="3.181" stroke="black" fill="none" stroke-linecap="round"></path><path d="M 475.000,144.000 C 475.000,150.500 474.768,150.492 475.000,157.000" stroke-width="3.126" stroke="black" fill="none" stroke-linecap="round"></path><path d="M 475.000,157.000 C 475.000,160.500 475.000,160.500 475.000,164.000" stroke-width="4.052" stroke="black" fill="none" stroke-linecap="round"></path><path d="M 475.000,164.000 C 474.635,167.530 475.000,167.500 475.000,171.000" stroke-width="4.632" stroke="black" fill="none" stroke-linecap="round"></path><path d="M 475.000,171.000 C 476.425,176.965 475.635,177.030 477.000,183.000" stroke-width="4.254" stroke="black" fill="none" stroke-linecap="round"></path><path d="M 477.000,183.000 C 477.000,187.500 477.425,187.465 477.000,192.000" stroke-width="3.888" stroke="black" fill="none" stroke-linecap="round"></path><path d="M 508.000,181.000 C 511.005,180.529 511.000,180.500 514.000,180.000" stroke-width="5.240" stroke="black" fill="none" stroke-linecap="round"></path><path d="M 514.000,180.000 C 519.475,178.829 519.505,179.029 525.000,178.000" stroke-width="3.722" stroke="black" fill="none" stroke-linecap="round"></path><path d="M 525.000,178.000 C 529.508,177.562 529.475,177.329 534.000,177.000" stroke-width="3.630" stroke="black" fill="none" stroke-linecap="round"></path><path d="M 534.000,177.000 C 541.477,175.778 541.508,176.062 549.000,175.000" stroke-width="3.079" stroke="black" fill="none" stroke-linecap="round"></path><path d="M 549.000,175.000 C 555.995,174.350 555.977,174.278 563.000,174.000" stroke-width="3.080" stroke="black" fill="none" stroke-linecap="round"></path><path d="M 563.000,174.000 C 567.122,175.878 565.995,173.850 569.000,174.000" stroke-width="4.224" stroke="black" fill="none" stroke-linecap="round"></path><path d="M 569.000,174.000 C 573.295,167.762 573.622,169.378 576.000,161.000" stroke-width="4.306" stroke="black" fill="none" stroke-linecap="round"></path><path d="M 576.000,161.000 C 577.231,157.462 577.295,157.762 577.000,154.000" stroke-width="4.529" stroke="black" fill="none" stroke-linecap="round"></path><path d="M 577.000,154.000 C 577.050,149.222 576.731,149.962 575.000,146.000" stroke-width="4.528" stroke="black" fill="none" stroke-linecap="round"></path><path d="M 575.000,146.000 C 572.805,143.401 573.550,143.722 570.000,143.000" stroke-width="4.285" stroke="black" fill="none" stroke-linecap="round"></path><path d="M 570.000,143.000 C 561.647,141.670 562.305,141.901 554.000,143.000" stroke-width="3.209" stroke="black" fill="none" stroke-linecap="round"></path><path d="M 554.000,143.000 C 550.350,144.766 550.147,143.670 547.000,147.000" stroke-width="3.563" stroke="black" fill="none" stroke-linecap="round"></path><path d="M 547.000,147.000 C 540.000,152.000 539.850,151.766 533.000,157.000" stroke-width="3.053" stroke="black" fill="none" stroke-linecap="round"></path><path d="M 533.000,157.000 C 529.500,159.500 529.500,159.500 526.000,162.000" stroke-width="3.453" stroke="black" fill="none" stroke-linecap="round"></path><path d="M 526.000,162.000 C 522.440,164.420 522.500,164.500 519.000,167.000" stroke-width="4.118" stroke="black" fill="none" stroke-linecap="round"></path><path d="M 519.000,167.000 C 515.742,168.387 516.440,168.920 514.000,171.000" stroke-width="4.501" stroke="black" fill="none" stroke-linecap="round"></path><path d="M 514.000,171.000 C 509.316,177.721 509.742,177.387 507.000,185.000" stroke-width="3.998" stroke="black" fill="none" stroke-linecap="round"></path><path d="M 507.000,185.000 C 505.673,189.550 505.816,188.721 507.000,193.000" stroke-width="4.354" stroke="black" fill="none" stroke-linecap="round"></path><path d="M 507.000,193.000 C 509.196,195.897 508.173,196.050 512.000,198.000" stroke-width="4.080" stroke="black" fill="none" stroke-linecap="round"></path><path d="M 512.000,198.000 C 515.285,200.480 515.196,200.397 519.000,202.000" stroke-width="3.891" stroke="black" fill="none" stroke-linecap="round"></path><path d="M 519.000,202.000 C 526.302,205.717 526.285,204.980 534.000,207.000" stroke-width="3.829" stroke="black" fill="none" stroke-linecap="round"></path><path d="M 534.000,207.000 C 541.500,207.000 541.302,208.217 549.000,207.000" stroke-width="3.199" stroke="black" fill="none" stroke-linecap="round"></path><path d="M 549.000,207.000 C 553.520,207.280 553.500,207.000 558.000,207.000" stroke-width="3.520" stroke="black" fill="none" stroke-linecap="round"></path><path d="M 558.000,207.000 C 561.604,206.906 561.520,206.780 565.000,206.000" stroke-width="3.825" stroke="black" fill="none" stroke-linecap="round"></path><path d="M 565.000,206.000 C 569.141,204.801 569.104,204.906 573.000,203.000" stroke-width="4.254" stroke="black" fill="none" stroke-linecap="round"></path><path d="M 573.000,203.000 C 576.518,201.031 576.641,201.301 580.000,199.000" stroke-width="3.881" stroke="black" fill="none" stroke-linecap="round"></path><path d="M 580.000,199.000 C 582.548,197.576 582.518,197.531 585.000,196.000" stroke-width="4.047" stroke="black" fill="none" stroke-linecap="round"></path><path d="M 585.000,196.000 C 589.327,192.670 589.548,193.076 594.000,190.000" stroke-width="4.199" stroke="black" fill="none" stroke-linecap="round"></path><path d="M 663.000,138.000 C 660.000,138.000 660.000,138.000 657.000,138.000" stroke-width="5.288" stroke="black" fill="none" stroke-linecap="round"></path><path d="M 657.000,138.000 C 652.000,138.000 652.000,138.000 647.000,138.000" stroke-width="4.491" stroke="black" fill="none" stroke-linecap="round"></path><path d="M 647.000,138.000 C 642.381,137.270 642.500,138.000 638.000,138.000" stroke-width="4.420" stroke="black" fill="none" stroke-linecap="round"></path><path d="M 638.000,138.000 C 633.438,139.336 633.381,138.770 629.000,141.000" stroke-width="3.758" stroke="black" fill="none" stroke-linecap="round"></path><path d="M 629.000,141.000 C 625.305,142.141 625.438,142.336 622.000,144.000" stroke-width="3.846" stroke="black" fill="none" stroke-linecap="round"></path><path d="M 622.000,144.000 C 615.969,145.951 617.305,146.641 613.000,150.000" stroke-width="4.111" stroke="black" fill="none" stroke-linecap="round"></path><path d="M 613.000,150.000 C 610.467,154.732 610.469,153.451 611.000,159.000" stroke-width="4.326" stroke="black" fill="none" stroke-linecap="round"></path><path d="M 611.000,159.000 C 612.492,162.935 611.467,162.732 615.000,166.000" stroke-width="3.899" stroke="black" fill="none" stroke-linecap="round"></path><path d="M 615.000,166.000 C 617.314,168.291 616.992,168.435 620.000,170.000" stroke-width="3.981" stroke="black" fill="none" stroke-linecap="round"></path><path d="M 620.000,170.000 C 622.872,171.808 622.814,171.791 626.000,173.000" stroke-width="3.969" stroke="black" fill="none" stroke-linecap="round"></path><path d="M 626.000,173.000 C 633.391,175.901 633.372,175.808 641.000,178.000" stroke-width="3.167" stroke="black" fill="none" stroke-linecap="round"></path><path d="M 641.000,178.000 C 648.064,179.266 647.891,179.901 655.000,181.000" stroke-width="3.507" stroke="black" fill="none" stroke-linecap="round"></path><path d="M 655.000,181.000 C 658.438,181.292 658.064,181.766 661.000,183.000" stroke-width="3.902" stroke="black" fill="none" stroke-linecap="round"></path><path d="M 661.000,183.000 C 664.628,185.574 664.438,185.292 667.000,189.000" stroke-width="4.303" stroke="black" fill="none" stroke-linecap="round"></path><path d="M 667.000,189.000 C 669.268,192.342 669.128,192.074 670.000,196.000" stroke-width="4.469" stroke="black" fill="none" stroke-linecap="round"></path><path d="M 670.000,196.000 C 671.856,200.907 670.768,199.842 670.000,204.000" stroke-width="4.528" stroke="black" fill="none" stroke-linecap="round"></path><path d="M 670.000,204.000 C 666.060,208.571 667.356,208.407 661.000,211.000" stroke-width="4.279" stroke="black" fill="none" stroke-linecap="round"></path><path d="M 661.000,211.000 C 653.088,213.890 653.560,214.571 645.000,216.000" stroke-width="3.152" stroke="black" fill="none" stroke-linecap="round"></path><path d="M 645.000,216.000 C 641.516,216.730 641.588,216.890 638.000,217.000" stroke-width="3.685" stroke="black" fill="none" stroke-linecap="round"></path><path d="M 638.000,217.000 C 635.000,217.000 635.016,217.230 632.000,217.000" stroke-width="3.960" stroke="black" fill="none" stroke-linecap="round"></path><path d="M 738.000,90.000 C 736.343,92.930 736.500,93.000 735.000,96.000" stroke-width="5.464" stroke="black" fill="none" stroke-linecap="round"></path><path d="M 735.000,96.000 C 732.768,100.918 732.843,100.930 731.000,106.000" stroke-width="3.801" stroke="black" fill="none" stroke-linecap="round"></path><path d="M 731.000,106.000 C 729.150,112.551 728.768,112.418 727.000,119.000" stroke-width="3.234" stroke="black" fill="none" stroke-linecap="round"></path><path d="M 727.000,119.000 C 725.190,122.902 725.650,123.051 724.000,127.000" stroke-width="3.575" stroke="black" fill="none" stroke-linecap="round"></path><path d="M 724.000,127.000 C 721.310,138.598 720.690,138.402 718.000,150.000" stroke-width="2.543" stroke="black" fill="none" stroke-linecap="round"></path><path d="M 718.000,150.000 C 716.437,153.978 716.810,154.098 715.000,158.000" stroke-width="3.238" stroke="black" fill="none" stroke-linecap="round"></path><path d="M 715.000,158.000 C 713.830,160.955 713.937,160.978 713.000,164.000" stroke-width="3.796" stroke="black" fill="none" stroke-linecap="round"></path><path d="M 713.000,164.000 C 712.500,166.500 712.330,166.455 712.000,169.000" stroke-width="4.153" stroke="black" fill="none" stroke-linecap="round"></path><path d="M 712.000,169.000 C 711.803,171.590 711.500,171.500 711.000,174.000" stroke-width="4.764" stroke="black" fill="none" stroke-linecap="round"></path><path d="M 711.000,174.000 C 708.861,178.949 709.303,179.090 707.000,184.000" stroke-width="5.152" stroke="black" fill="none" stroke-linecap="round"></path><path d="M 707.000,184.000 C 705.301,188.447 705.361,188.449 704.000,193.000" stroke-width="3.899" stroke="black" fill="none" stroke-linecap="round"></path><path d="M 704.000,193.000 C 704.036,195.722 703.301,195.447 703.000,198.000" stroke-width="4.189" stroke="black" fill="none" stroke-linecap="round"></path><path d="M 703.000,198.000 C 700.935,200.959 701.536,201.222 699.000,204.000" stroke-width="4.019" stroke="black" fill="none" stroke-linecap="round"></path><path d="M 699.000,204.000 C 697.565,206.541 697.435,206.459 696.000,209.000" stroke-width="4.091" stroke="black" fill="none" stroke-linecap="round"></path><path d="M 696.000,209.000 C 693.717,211.851 694.065,212.041 692.000,215.000" stroke-width="4.329" stroke="black" fill="none" stroke-linecap="round"></path><path d="M 692.000,215.000 C 690.435,217.391 690.717,217.351 690.000,220.000" stroke-width="4.329" stroke="black" fill="none" stroke-linecap="round"></path><path d="M 771.000,162.000 C 768.594,160.648 768.500,161.000 766.000,160.000" stroke-width="5.162" stroke="black" fill="none" stroke-linecap="round"></path><path d="M 766.000,160.000 C 762.480,159.614 762.594,159.148 759.000,159.000" stroke-width="4.268" stroke="black" fill="none" stroke-linecap="round"></path><path d="M 759.000,159.000 C 754.068,157.422 753.980,158.114 749.000,157.000" stroke-width="3.649" stroke="black" fill="none" stroke-linecap="round"></path><path d="M 749.000,157.000 C 735.905,155.061 736.068,155.922 723.000,156.000" stroke-width="2.518" stroke="black" fill="none" stroke-linecap="round"></path><path d="M 723.000,156.000 C 708.335,157.815 708.405,157.061 694.000,161.000" stroke-width="2.117" stroke="black" fill="none" stroke-linecap="round"></path><path d="M 694.000,161.000 C 686.141,164.062 685.835,162.815 678.000,166.000" stroke-width="2.571" stroke="black" fill="none" stroke-linecap="round"></path><path d="M 678.000,166.000 C 665.078,169.323 665.141,169.062 652.000,171.000" stroke-width="2.237" stroke="black" fill="none" stroke-linecap="round"></path><path d="M 652.000,171.000 C 645.500,171.000 645.578,171.823 639.000,171.000" stroke-width="2.827" stroke="black" fill="none" stroke-linecap="round"></path></svg>