<svg xmlns="http://www.w3.org/2000/svg" xmlns:xlink="http://www.w3.org/1999/xlink" viewBox="0 0 453 236" width="453" height="236"><path d="M 142.500,152.000 C 140.240,149.632 140.000,150.500 137.500,149.000" stroke-width="4.836" stroke="black" fill="none" stroke-linecap="round"></path><path d="M 137.500,149.000 C 133.470,149.305 133.740,148.132 129.500,149.000" stroke-width="4.136" stroke="black" fill="none" stroke-linecap="round"></path><path d="M 129.500,149.000 C 127.000,148.500 126.970,148.805 124.500,148.000" stroke-width="4.268" stroke="black" fill="none" stroke-linecap="round"></path><path d="M 124.500,148.000 C 122.006,147.470 122.000,147.500 119.500,147.000" stroke-width="4.266" stroke="black" fill="none" stroke-linecap="round"></path><path d="M 119.500,147.000 C 113.929,146.277 114.006,145.970 108.500,145.000" stroke-width="4.221" stroke="black" fill="none" stroke-linecap="round"></path><path d="M 108.500,145.000 C 102.288,144.483 105.429,144.277 102.500,143.000" stroke-width="4.573" stroke="black" fill="none" stroke-linecap="round"></path><path d="M 102.500,143.000 C 105.787,140.122 102.788,140.983 109.500,138.000" stroke-width="5.053" stroke="black" fill="none" stroke-linecap="round"></path><path d="M 109.500,138.000 C 113.051,136.610 112.787,136.122 116.500,135.000" stroke-width="4.174" stroke="black" fill="none" stroke-linecap="round"></path><path d="M 116.500,135.000 C 120.653,133.263 120.551,133.110 124.500,131.000" stroke-width="3.761" stroke="black" fill="none" stroke-linecap="round"></path><path d="M 124.500,131.000 C 128.929,127.887 129.153,128.263 133.500,125.000" stroke-width="3.468" stroke="black" fill="none" stroke-linecap="round"></path><path d="M 133.500,125.000 C 138.571,122.113 138.429,121.887 143.500,119.000" stroke-width="3.315" stroke="black" fill="none" stroke-linecap="round"></path><path d="M 143.500,119.000 C 147.916,115.865 148.071,116.113 152.500,113.000" stroke-width="3.344" stroke="black" fill="none" stroke-linecap="round"></path><path d="M 152.500,113.000 C 156.113,111.177 155.916,110.865 159.500,109.000" stroke-width="3.661" stroke="black" fill="none" stroke-linecap="round"></path><path d="M 159.500,109.000 C 163.032,106.543 163.113,106.677 166.500,104.000" stroke-width="3.659" stroke="black" fill="none" stroke-linecap="round"></path><path d="M 166.500,104.000 C 174.720,97.340 170.532,101.043 174.500,98.000" stroke-width="4.132" stroke="black" fill="none" stroke-linecap="round"></path><path d="M 174.500,98.000 C 170.000,102.500 174.220,98.840 165.500,107.000" stroke-width="4.509" stroke="black" fill="none" stroke-linecap="round"></path><path d="M 165.500,107.000 C 160.651,111.194 161.000,111.500 156.500,116.000" stroke-width="3.519" stroke="black" fill="none" stroke-linecap="round"></path><path d="M 156.500,116.000 C 151.289,122.349 151.151,122.194 146.500,129.000" stroke-width="3.033" stroke="black" fill="none" stroke-linecap="round"></path><path d="M 146.500,129.000 C 142.555,135.037 142.289,134.849 138.500,141.000" stroke-width="3.040" stroke="black" fill="none" stroke-linecap="round"></path><path d="M 138.500,141.000 C 134.582,147.965 134.055,147.537 129.500,154.000" stroke-width="3.580" stroke="black" fill="none" stroke-linecap="round"></path><path d="M 129.500,154.000 C 118.488,167.012 118.582,166.965 106.500,179.000" stroke-width="2.189" stroke="black" fill="none" stroke-linecap="round"></path><path d="M 106.500,179.000 C 100.597,184.122 100.988,184.512 94.500,189.000" stroke-width="2.611" stroke="black" fill="none" stroke-linecap="round"></path><path d="M 94.500,189.000 C 90.532,192.043 90.597,192.122 86.500,195.000" stroke-width="3.153" stroke="black" fill="none" stroke-linecap="round"></path><path d="M 86.500,195.000 C 83.177,197.794 83.032,197.543 79.500,200.000" stroke-width="3.491" stroke="black" fill="none" stroke-linecap="round"></path><path d="M 79.500,200.000 C 75.435,201.881 75.677,202.294 71.500,204.000" stroke-width="3.625" stroke="black" fill="none" stroke-linecap="round"></path><path d="M 71.500,204.000 C 69.167,205.933 68.935,205.381 66.500,207.000" stroke-width="4.040" stroke="black" fill="none" stroke-linecap="round"></path><path d="M 66.500,207.000 C 64.014,207.581 64.167,207.933 61.500,208.000" stroke-width="4.237" stroke="black" fill="none" stroke-linecap="round"></path><path d="M 61.500,208.000 C 57.055,210.135 58.014,208.581 54.500,209.000" stroke-width="4.489" stroke="black" fill="none" stroke-linecap="round"></path><path d="M 54.500,209.000 C 51.684,206.041 52.555,208.135 52.500,204.000" stroke-width="5.014" stroke="black" fill="none" stroke-linecap="round"></path><path d="M 52.500,204.000 C 55.430,201.412 53.684,201.041 58.500,199.000" stroke-width="4.142" stroke="black" fill="none" stroke-linecap="round"></path><path d="M 58.500,199.000 C 62.260,195.625 62.430,195.912 66.500,193.000" stroke-width="3.703" stroke="black" fill="none" stroke-linecap="round"></path><path d="M 66.500,193.000 C 73.047,189.585 72.760,189.125 79.500,186.000" stroke-width="3.189" stroke="black" fill="none" stroke-linecap="round"></path><path d="M 79.500,186.000 C 86.629,182.211 86.547,182.085 93.500,178.000" stroke-width="3.030" stroke="black" fill="none" stroke-linecap="round"></path><path d="M 93.500,178.000 C 101.782,172.128 102.129,172.711 110.500,167.000" stroke-width="2.691" stroke="black" fill="none" stroke-linecap="round"></path><path d="M 110.500,167.000 C 119.068,162.624 118.782,162.128 127.500,158.000" stroke-width="2.654" stroke="black" fill="none" stroke-linecap="round"></path><path d="M 127.500,158.000 C 134.453,153.915 134.568,154.124 141.500,150.000" stroke-width="2.813" stroke="black" fill="none" stroke-linecap="round"></path><path d="M 141.500,150.000 C 147.803,146.044 147.953,146.415 154.500,143.000" stroke-width="2.828" stroke="black" fill="none" stroke-linecap="round"></path><path d="M 154.500,143.000 C 158.974,141.415 158.803,141.044 163.500,140.000" stroke-width="3.377" stroke="black" fill="none" stroke-linecap="round"></path><path d="M 163.500,140.000 C 166.949,138.761 166.974,138.915 170.500,138.000" stroke-width="3.705" stroke="black" fill="none" stroke-linecap="round"></path><path d="M 170.500,138.000 C 177.230,137.270 173.949,137.261 177.500,137.000" stroke-width="4.323" stroke="black" fill="none" stroke-linecap="round"></path><path d="M 177.500,137.000 C 174.420,136.453 177.730,136.770 171.500,137.000" stroke-width="4.992" stroke="black" fill="none" stroke-linecap="round"></path><path d="M 171.500,137.000 C 166.283,137.986 166.420,137.953 161.500,140.000" stroke-width="4.466" stroke="black" fill="none" stroke-linecap="round"></path><path d="M 161.500,140.000 C 156.314,141.731 156.783,141.986 152.500,145.000" stroke-width="4.382" stroke="black" fill="none" stroke-linecap="round"></path><path d="M 152.500,145.000 C 148.756,148.233 149.314,147.731 147.500,152.000" stroke-width="4.438" stroke="black" fill="none" stroke-linecap="round"></path><path d="M 147.500,152.000 C 146.562,156.254 146.756,154.233 148.500,157.000" stroke-width="4.896" stroke="black" fill="none" stroke-linecap="round"></path><path d="M 148.500,157.000 C 154.500,157.000 153.062,158.754 160.500,157.000" stroke-width="4.330" stroke="black" fill="none" stroke-linecap="round"></path><path d="M 160.500,157.000 C 164.227,157.818 164.000,157.000 167.500,157.000" stroke-width="4.082" stroke="black" fill="none" stroke-linecap="round"></path><path d="M 167.500,157.000 C 170.076,155.616 170.227,156.318 172.500,154.000" stroke-width="4.110" stroke="black" fill="none" stroke-linecap="round"></path><path d="M 172.500,154.000 C 176.989,152.139 176.076,151.616 179.500,149.000" stroke-width="4.350" stroke="black" fill="none" stroke-linecap="round"></path><path d="M 179.500,149.000 C 181.862,144.973 180.989,147.139 180.500,144.000" stroke-width="4.858" stroke="black" fill="none" stroke-linecap="round"></path><path d="M 180.500,144.000 C 176.500,144.000 178.362,142.473 172.500,144.000" stroke-width="4.622" stroke="black" fill="none" stroke-linecap="round"></path><path d="M 172.500,144.000 C 168.625,142.584 169.500,144.000 166.500,144.000" stroke-width="4.717" stroke="black" fill="none" stroke-linecap="round"></path><path d="M 166.500,144.000 C 164.292,146.833 164.125,145.584 163.500,150.000" stroke-width="4.687" stroke="black" fill="none" stroke-linecap="round"></path><path d="M 163.500,150.000 C 161.815,154.315 162.792,152.833 163.500,156.000" stroke-width="4.924" stroke="black" fill="none" stroke-linecap="round"></path><path d="M 163.500,156.000 C 167.640,158.276 165.815,158.315 171.500,158.000" stroke-width="4.971" stroke="black" fill="none" stroke-linecap="round"></path><path d="M 171.500,158.000 C 174.591,156.662 174.640,157.776 177.500,155.000" stroke-width="4.220" stroke="black" fill="none" stroke-linecap="round"></path><path d="M 177.500,155.000 C 181.617,152.670 181.591,152.662 185.500,150.000" stroke-width="3.719" stroke="black" fill="none" stroke-linecap="round"></path><path d="M 185.500,150.000 C 189.731,147.266 189.617,147.170 193.500,144.000" stroke-width="3.535" stroke="black" fill="none" stroke-linecap="round"></path><path d="M 193.500,144.000 C 196.883,140.375 197.231,140.766 200.500,137.000" stroke-width="3.493" stroke="black" fill="none" stroke-linecap="round"></path><path d="M 200.500,137.000 C 204.750,133.750 204.383,133.375 208.500,130.000" stroke-width="3.572" stroke="black" fill="none" stroke-linecap="round"></path><path d="M 208.500,130.000 C 211.640,125.619 212.250,126.250 215.500,122.000" stroke-width="3.435" stroke="black" fill="none" stroke-linecap="round"></path><path d="M 215.500,122.000 C 220.312,118.853 219.640,118.119 224.500,115.000" stroke-width="3.387" stroke="black" fill="none" stroke-linecap="round"></path><path d="M 224.500,115.000 C 232.684,107.171 232.812,107.353 240.500,99.000" stroke-width="3.380" stroke="black" fill="none" stroke-linecap="round"></path><path d="M 240.500,99.000 C 243.549,95.541 243.684,95.671 246.500,92.000" stroke-width="3.510" stroke="black" fill="none" stroke-linecap="round"></path><path d="M 246.500,92.000 C 248.870,89.716 248.549,89.541 250.500,87.000" stroke-width="3.850" stroke="black" fill="none" stroke-linecap="round"></path><path d="M 250.500,87.000 C 253.767,82.362 251.870,84.716 252.500,82.000" stroke-width="4.478" stroke="black" fill="none" stroke-linecap="round"></path><path d="M 252.500,82.000 C 247.415,82.553 250.267,81.362 243.500,85.000" stroke-width="4.670" stroke="black" fill="none" stroke-linecap="round"></path><path d="M 243.500,85.000 C 239.884,88.391 239.415,87.553 236.500,92.000" stroke-width="3.889" stroke="black" fill="none" stroke-linecap="round"></path><path d="M 236.500,92.000 C 232.539,96.535 232.384,96.391 228.500,101.000" stroke-width="3.387" stroke="black" fill="none" stroke-linecap="round"></path><path d="M 228.500,101.000 C 223.251,107.249 223.039,107.035 217.500,113.000" stroke-width="3.010" stroke="black" fill="none" stroke-linecap="round"></path><path d="M 217.500,113.000 C 210.028,120.030 210.251,120.249 202.500,127.000" stroke-width="2.733" stroke="black" fill="none" stroke-linecap="round"></path><path d="M 202.500,127.000 C 196.087,132.119 196.528,132.530 190.500,138.000" stroke-width="2.830" stroke="black" fill="none" stroke-linecap="round"></path><path d="M 190.500,138.000 C 186.869,142.406 186.587,142.119 183.500,147.000" stroke-width="3.133" stroke="black" fill="none" stroke-linecap="round"></path><path d="M 183.500,147.000 C 181.435,149.959 181.369,149.906 179.500,153.000" stroke-width="3.620" stroke="black" fill="none" stroke-linecap="round"></path><path d="M 179.500,153.000 C 177.567,155.333 177.935,155.459 176.500,158.000" stroke-width="3.958" stroke="black" fill="none" stroke-linecap="round"></path><path d="M 176.500,158.000 C 174.835,160.783 175.567,160.333 175.500,163.000" stroke-width="4.168" stroke="black" fill="none" stroke-linecap="round"></path><path d="M 175.500,163.000 C 176.919,166.709 176.335,165.783 179.500,168.000" stroke-width="4.723" stroke="black" fill="none" stroke-linecap="round"></path><path d="M 179.500,168.000 C 182.739,168.920 181.919,169.209 185.500,168.000" stroke-width="4.262" stroke="black" fill="none" stroke-linecap="round"></path><path d="M 185.500,168.000 C 190.188,165.790 190.239,166.420 194.500,163.000" stroke-width="3.638" stroke="black" fill="none" stroke-linecap="round"></path><path d="M 194.500,163.000 C 198.713,160.246 198.688,160.290 202.500,157.000" stroke-width="3.570" stroke="black" fill="none" stroke-linecap="round"></path><path d="M 202.500,157.000 C 205.203,153.638 205.713,154.246 208.500,151.000" stroke-width="3.643" stroke="black" fill="none" stroke-linecap="round"></path><path d="M 208.500,151.000 C 214.300,145.000 212.703,147.638 217.500,145.000" stroke-width="4.187" stroke="black" fill="none" stroke-linecap="round"></path><path d="M 217.500,145.000 C 219.425,148.457 219.300,145.000 218.500,151.000" stroke-width="4.826" stroke="black" fill="none" stroke-linecap="round"></path><path d="M 218.500,151.000 C 215.756,153.293 217.425,153.957 213.500,156.000" stroke-width="4.195" stroke="black" fill="none" stroke-linecap="round"></path><path d="M 213.500,156.000 C 207.356,160.941 210.756,159.293 208.500,163.000" stroke-width="4.359" stroke="black" fill="none" stroke-linecap="round"></path><path d="M 208.500,163.000 C 213.890,165.971 209.856,165.441 218.500,165.000" stroke-width="4.574" stroke="black" fill="none" stroke-linecap="round"></path><path d="M 218.500,165.000 C 223.145,162.194 223.390,163.971 227.500,159.000" stroke-width="3.714" stroke="black" fill="none" stroke-linecap="round"></path><path d="M 227.500,159.000 C 230.351,156.290 230.645,156.694 233.500,154.000" stroke-width="3.811" stroke="black" fill="none" stroke-linecap="round"></path><path d="M 233.500,154.000 C 236.216,152.777 235.851,152.290 238.500,151.000" stroke-width="4.068" stroke="black" fill="none" stroke-linecap="round"></path><path d="M 238.500,151.000 C 243.329,146.503 240.716,149.277 242.500,147.000" stroke-width="4.555" stroke="black" fill="none" stroke-linecap="round"></path><path d="M 242.500,147.000 C 237.470,150.030 240.829,148.003 233.500,154.000" stroke-width="4.373" stroke="black" fill="none" stroke-linecap="round"></path><path d="M 233.500,154.000 C 231.800,156.401 231.470,156.030 230.500,159.000" stroke-width="4.285" stroke="black" fill="none" stroke-linecap="round"></path><path d="M 230.500,159.000 C 227.139,163.660 229.300,161.401 228.500,164.000" stroke-width="4.669" stroke="black" fill="none" stroke-linecap="round"></path><path d="M 228.500,164.000 C 233.629,162.826 231.139,164.660 238.500,161.000" stroke-width="4.658" stroke="black" fill="none" stroke-linecap="round"></path><path d="M 238.500,161.000 C 241.608,159.687 241.629,159.826 244.500,158.000" stroke-width="4.203" stroke="black" fill="none" stroke-linecap="round"></path><path d="M 244.500,158.000 C 250.272,153.316 247.608,156.187 250.500,154.000" stroke-width="4.500" stroke="black" fill="none" stroke-linecap="round"></path><path d="M 250.500,154.000 C 248.080,157.560 250.772,154.816 245.500,161.000" stroke-width="4.696" stroke="black" fill="none" stroke-linecap="round"></path><path d="M 245.500,161.000 C 243.169,163.288 243.580,163.560 241.500,166.000" stroke-width="4.252" stroke="black" fill="none" stroke-linecap="round"></path><path d="M 241.500,166.000 C 235.153,174.000 239.169,169.788 237.500,174.000" stroke-width="4.352" stroke="black" fill="none" stroke-linecap="round"></path><path d="M 237.500,174.000 C 248.500,171.516 243.153,174.000 257.500,166.000" stroke-width="4.274" stroke="black" fill="none" stroke-linecap="round"></path><path d="M 257.500,166.000 C 263.119,160.615 264.000,162.016 268.500,155.000" stroke-width="3.309" stroke="black" fill="none" stroke-linecap="round"></path><path d="M 268.500,155.000 C 274.640,148.624 274.619,148.615 280.500,142.000" stroke-width="2.835" stroke="black" fill="none" stroke-linecap="round"></path><path d="M 280.500,142.000 C 285.860,135.376 286.140,135.624 291.500,129.000" stroke-width="2.818" stroke="black" fill="none" stroke-linecap="round"></path><path d="M 291.500,129.000 C 298.178,123.033 297.360,122.376 303.500,116.000" stroke-width="3.462" stroke="black" fill="none" stroke-linecap="round"></path><path d="M 303.500,116.000 C 311.332,103.881 312.178,104.533 319.500,92.000" stroke-width="2.296" stroke="black" fill="none" stroke-linecap="round"></path><path d="M 319.500,92.000 C 322.595,88.067 322.332,87.881 325.500,84.000" stroke-width="3.046" stroke="black" fill="none" stroke-linecap="round"></path><path d="M 325.500,84.000 C 327.783,81.149 327.595,81.067 329.500,78.000" stroke-width="3.627" stroke="black" fill="none" stroke-linecap="round"></path><path d="M 329.500,78.000 C 332.250,74.750 330.783,75.649 331.500,73.000" stroke-width="4.055" stroke="black" fill="none" stroke-linecap="round"></path><path d="M 331.500,73.000 C 328.644,70.000 330.750,71.250 326.500,71.000" stroke-width="4.795" stroke="black" fill="none" stroke-linecap="round"></path><path d="M 326.500,71.000 C 321.120,75.137 321.144,73.500 316.500,80.000" stroke-width="3.429" stroke="black" fill="none" stroke-linecap="round"></path><path d="M 316.500,80.000 C 311.760,85.319 311.620,85.137 307.500,91.000" stroke-width="3.101" stroke="black" fill="none" stroke-linecap="round"></path><path d="M 307.500,91.000 C 302.825,97.386 302.760,97.319 298.500,104.000" stroke-width="2.906" stroke="black" fill="none" stroke-linecap="round"></path><path d="M 298.500,104.000 C 294.500,110.500 294.325,110.386 290.500,117.000" stroke-width="2.887" stroke="black" fill="none" stroke-linecap="round"></path><path d="M 290.500,117.000 C 286.390,123.435 286.500,123.500 282.500,130.000" stroke-width="2.940" stroke="black" fill="none" stroke-linecap="round"></path><path d="M 282.500,130.000 C 278.610,137.065 278.390,136.935 274.500,144.000" stroke-width="2.903" stroke="black" fill="none" stroke-linecap="round"></path><path d="M 274.500,144.000 C 270.864,150.766 270.610,150.565 266.500,157.000" stroke-width="2.886" stroke="black" fill="none" stroke-linecap="round"></path><path d="M 266.500,157.000 C 263.257,160.325 263.864,160.766 260.500,164.000" stroke-width="3.380" stroke="black" fill="none" stroke-linecap="round"></path><path d="M 260.500,164.000 C 256.761,167.768 258.757,166.325 257.500,169.000" stroke-width="3.868" stroke="black" fill="none" stroke-linecap="round"></path><path d="M 257.500,169.000 C 260.638,169.716 258.261,170.268 263.500,169.000" stroke-width="4.742" stroke="black" fill="none" stroke-linecap="round"></path><path d="M 263.500,169.000 C 268.593,167.208 268.638,167.716 273.500,165.000" stroke-width="3.814" stroke="black" fill="none" stroke-linecap="round"></path><path d="M 273.500,165.000 C 278.370,162.198 278.593,162.708 283.500,160.000" stroke-width="3.448" stroke="black" fill="none" stroke-linecap="round"></path><path d="M 283.500,160.000 C 288.928,157.773 288.870,157.698 294.500,156.000" stroke-width="3.306" stroke="black" fill="none" stroke-linecap="round"></path><path d="M 294.500,156.000 C 299.935,154.172 299.928,154.273 305.500,153.000" stroke-width="3.291" stroke="black" fill="none" stroke-linecap="round"></path><path d="M 305.500,153.000 C 309.484,152.236 309.435,152.172 313.500,152.000" stroke-width="3.641" stroke="black" fill="none" stroke-linecap="round"></path><path d="M 313.500,152.000 C 318.014,151.751 317.984,151.736 322.500,152.000" stroke-width="3.667" stroke="black" fill="none" stroke-linecap="round"></path><path d="M 322.500,152.000 C 330.501,150.202 327.014,152.251 331.500,153.000" stroke-width="4.177" stroke="black" fill="none" stroke-linecap="round"></path><path d="M 331.500,153.000 C 331.438,160.818 333.001,157.202 327.500,166.000" stroke-width="4.064" stroke="black" fill="none" stroke-linecap="round"></path><path d="M 327.500,166.000 C 320.527,172.806 321.938,173.318 312.500,178.000" stroke-width="2.876" stroke="black" fill="none" stroke-linecap="round"></path><path d="M 312.500,178.000 C 303.272,183.603 303.527,183.806 293.500,188.000" stroke-width="2.527" stroke="black" fill="none" stroke-linecap="round"></path><path d="M 293.500,188.000 C 283.327,193.236 283.272,192.603 272.500,196.000" stroke-width="2.453" stroke="black" fill="none" stroke-linecap="round"></path><path d="M 272.500,196.000 C 259.553,198.425 259.827,199.236 246.500,200.000" stroke-width="2.216" stroke="black" fill="none" stroke-linecap="round"></path><path d="M 246.500,200.000 C 230.536,202.260 230.553,201.925 214.500,203.000" stroke-width="2.126" stroke="black" fill="none" stroke-linecap="round"></path><path d="M 214.500,203.000 C 198.000,203.000 198.036,203.760 181.500,203.000" stroke-width="1.972" stroke="black" fill="none" stroke-linecap="round"></path><path d="M 181.500,203.000 C 165.885,204.304 166.000,203.000 150.500,203.000" stroke-width="1.932" stroke="black" fill="none" stroke-linecap="round"></path><path d="M 150.500,203.000 C 136.227,201.505 136.385,201.804 122.500,198.000" stroke-width="1.996" stroke="black" fill="none" stroke-linecap="round"></path><path d="M 122.500,198.000 C 112.693,195.152 112.727,195.505 103.500,191.000" stroke-width="2.314" stroke="black" fill="none" stroke-linecap="round"></path><path d="M 103.500,191.000 C 96.557,188.525 97.193,188.152 91.500,184.000" stroke-width="2.761" stroke="black" fill="none" stroke-linecap="round"></path><path d="M 91.500,184.000 C 86.015,179.626 87.057,180.025 84.500,174.000" stroke-width="3.101" stroke="black" fill="none" stroke-linecap="round"></path><path d="M 84.500,174.000 C 83.778,165.937 82.515,166.626 84.500,158.000" stroke-width="2.893" stroke="black" fill="none" stroke-linecap="round"></path><path d="M 84.500,158.000 C 84.072,148.713 85.278,149.437 87.500,141.000" stroke-width="2.821" stroke="black" fill="none" stroke-linecap="round"></path><path d="M 87.500,141.000 C 92.818,130.425 92.072,130.713 100.500,122.000" stroke-width="2.564" stroke="black" fill="none" stroke-linecap="round"></path><path d="M 100.500,122.000 C 108.736,113.368 108.318,113.425 118.500,107.000" stroke-width="2.422" stroke="black" fill="none" stroke-linecap="round"></path><path d="M 118.500,107.000 C 131.789,97.695 131.736,98.368 146.500,92.000" stroke-width="2.080" stroke="black" fill="none" stroke-linecap="round"></path><path d="M 146.500,92.000 C 163.343,86.785 162.789,85.695 180.500,83.000" stroke-width="1.844" stroke="black" fill="none" stroke-linecap="round"></path><path d="M 180.500,83.000 C 197.379,78.957 197.343,79.285 214.500,77.000" stroke-width="1.852" stroke="black" fill="none" stroke-linecap="round"></path><path d="M 214.500,77.000 C 232.487,75.538 232.379,74.957 250.500,75.000" stroke-width="1.817" stroke="black" fill="none" stroke-linecap="round"></path><path d="M 250.500,75.000 C 266.030,74.393 265.987,74.538 281.500,75.000" stroke-width="1.884" stroke="black" fill="none" stroke-linecap="round"></path><path d="M 281.500,75.000 C 291.628,75.355 291.530,75.393 301.500,77.000" stroke-width="2.273" stroke="black" fill="none" stroke-linecap="round"></path><path d="M 301.500,77.000 C 312.906,76.806 306.628,77.855 311.500,80.000" stroke-width="2.962" stroke="black" fill="none" stroke-linecap="round"></path><path d="M 311.500,80.000 C 302.558,93.011 307.406,89.306 290.500,102.000" stroke-width="2.967" stroke="black" fill="none" stroke-linecap="round"></path><path d="M 290.500,102.000 C 274.032,112.615 275.058,113.511 256.500,121.000" stroke-width="1.958" stroke="black" fill="none" stroke-linecap="round"></path><path d="M 256.500,121.000 C 239.390,129.205 239.532,129.115 221.500,135.000" stroke-width="1.752" stroke="black" fill="none" stroke-linecap="round"></path><path d="M 221.500,135.000 C 203.671,140.425 203.890,140.705 185.500,144.000" stroke-width="1.711" stroke="black" fill="none" stroke-linecap="round"></path><path d="M 185.500,144.000 C 173.037,146.125 173.171,146.425 160.500,147.000" stroke-width="2.066" stroke="black" fill="none" stroke-linecap="round"></path><path d="M 160.500,147.000 C 151.226,148.293 151.537,147.625 142.500,147.000" stroke-width="2.537" stroke="black" fill="none" stroke-linecap="round"></path><path d="M 310.500,136.000 C 314.341,138.376 314.500,137.500 318.500,139.000" stroke-width="4.938" stroke="black" fill="none" stroke-linecap="round"></path><path d="M 318.500,139.000 C 324.500,139.000 324.341,139.876 330.500,139.000" stroke-width="3.662" stroke="black" fill="none" stroke-linecap="round"></path><path d="M 330.500,139.000 C 340.000,139.000 340.000,139.000 349.500,139.000" stroke-width="2.961" stroke="black" fill="none" stroke-linecap="round"></path><path d="M 349.500,139.000 C 360.027,139.524 360.000,139.000 370.500,139.000" stroke-width="2.855" stroke="black" fill="none" stroke-linecap="round"></path><path d="M 370.500,139.000 C 380.068,138.429 380.027,138.524 389.500,137.000" stroke-width="2.645" stroke="black" fill="none" stroke-linecap="round"></path><path d="M 389.500,137.000 C 396.463,135.280 396.568,135.929 403.500,134.000" stroke-width="2.969" stroke="black" fill="none" stroke-linecap="round"></path><path d="M 403.500,134.000 C 407.487,133.287 407.463,133.280 411.500,133.000" stroke-width="3.470" stroke="black" fill="none" stroke-linecap="round"></path><path d="M 411.500,133.000 C 418.382,133.000 414.487,132.787 417.500,133.000" stroke-width="3.924" stroke="black" fill="none" stroke-linecap="round"></path><path d="M 417.500,133.000 C 411.999,133.090 415.882,133.000 406.500,133.000" stroke-width="4.702" stroke="black" fill="none" stroke-linecap="round"></path><path d="M 406.500,133.000 C 381.368,130.195 381.499,132.590 356.500,132.000" stroke-width="2.654" stroke="black" fill="none" stroke-linecap="round"></path><path d="M 356.500,132.000 C 319.358,136.113 319.368,134.695 282.500,142.000" stroke-width="1.988" stroke="black" fill="none" stroke-linecap="round"></path><path d="M 282.500,142.000 C 247.577,148.977 247.358,147.613 212.500,155.000" stroke-width="1.892" stroke="black" fill="none" stroke-linecap="round"></path><path d="M 212.500,155.000 C 197.976,156.844 198.077,157.477 183.500,159.000" stroke-width="1.958" stroke="black" fill="none" stroke-linecap="round"></path><path d="M 183.500,159.000 C 174.547,160.903 174.476,160.344 165.500,162.000" stroke-width="2.383" stroke="black" fill="none" stroke-linecap="round"></path></svg>