<svg xmlns="http://www.w3.org/2000/svg" xmlns:xlink="http://www.w3.org/1999/xlink" viewBox="0 0 453 236" width="453" height="236"><path d="M 159.500,45.000 C 156.598,51.547 156.500,51.500 153.500,58.000" stroke-width="4.142" stroke="black" fill="none" stroke-linecap="round"></path><path d="M 153.500,58.000 C 150.547,64.024 150.598,64.047 147.500,70.000" stroke-width="3.512" stroke="black" fill="none" stroke-linecap="round"></path><path d="M 147.500,70.000 C 137.433,89.466 137.547,89.524 127.500,109.000" stroke-width="1.950" stroke="black" fill="none" stroke-linecap="round"></path><path d="M 127.500,109.000 C 122.729,119.123 122.433,118.966 117.500,129.000" stroke-width="2.262" stroke="black" fill="none" stroke-linecap="round"></path><path d="M 117.500,129.000 C 113.216,135.855 113.729,136.123 109.500,143.000" stroke-width="2.666" stroke="black" fill="none" stroke-linecap="round"></path><path d="M 109.500,143.000 C 106.954,148.479 106.716,148.355 104.500,154.000" stroke-width="3.073" stroke="black" fill="none" stroke-linecap="round"></path><path d="M 104.500,154.000 C 103.199,157.602 102.954,157.479 101.500,161.000" stroke-width="3.555" stroke="black" fill="none" stroke-linecap="round"></path><path d="M 91.500,77.000 C 93.654,80.358 94.000,80.000 96.500,83.000" stroke-width="4.616" stroke="black" fill="none" stroke-linecap="round"></path><path d="M 96.500,83.000 C 100.551,87.250 100.654,86.858 105.500,90.000" stroke-width="3.728" stroke="black" fill="none" stroke-linecap="round"></path><path d="M 105.500,90.000 C 114.216,94.824 114.051,94.750 123.500,98.000" stroke-width="2.932" stroke="black" fill="none" stroke-linecap="round"></path><path d="M 123.500,98.000 C 133.339,101.614 133.216,101.324 143.500,103.000" stroke-width="2.648" stroke="black" fill="none" stroke-linecap="round"></path><path d="M 143.500,103.000 C 155.493,103.812 155.339,104.614 167.500,104.000" stroke-width="2.719" stroke="black" fill="none" stroke-linecap="round"></path><path d="M 167.500,104.000 C 187.500,104.000 187.493,104.312 207.500,104.000" stroke-width="1.765" stroke="black" fill="none" stroke-linecap="round"></path><path d="M 207.500,104.000 C 216.010,103.726 216.000,104.000 224.500,104.000" stroke-width="2.774" stroke="black" fill="none" stroke-linecap="round"></path><path d="M 224.500,104.000 C 231.734,103.647 231.510,104.226 238.500,105.000" stroke-width="3.034" stroke="black" fill="none" stroke-linecap="round"></path><path d="M 238.500,105.000 C 242.093,105.860 241.734,105.647 244.500,108.000" stroke-width="3.801" stroke="black" fill="none" stroke-linecap="round"></path><path d="M 238.500,47.000 C 234.914,53.958 235.000,54.000 231.500,61.000" stroke-width="4.439" stroke="black" fill="none" stroke-linecap="round"></path><path d="M 231.500,61.000 C 227.290,70.648 226.914,70.458 222.500,80.000" stroke-width="3.033" stroke="black" fill="none" stroke-linecap="round"></path><path d="M 222.500,80.000 C 216.665,91.093 216.790,91.148 210.500,102.000" stroke-width="2.581" stroke="black" fill="none" stroke-linecap="round"></path><path d="M 210.500,102.000 C 203.420,113.954 203.665,114.093 196.500,126.000" stroke-width="2.366" stroke="black" fill="none" stroke-linecap="round"></path><path d="M 196.500,126.000 C 189.616,137.300 189.920,137.454 183.500,149.000" stroke-width="2.305" stroke="black" fill="none" stroke-linecap="round"></path><path d="M 183.500,149.000 C 178.466,159.484 178.116,159.300 173.500,170.000" stroke-width="2.296" stroke="black" fill="none" stroke-linecap="round"></path><path d="M 173.500,170.000 C 169.798,177.415 169.966,177.484 166.500,185.000" stroke-width="2.658" stroke="black" fill="none" stroke-linecap="round"></path><path d="M 166.500,185.000 C 165.033,189.013 164.798,188.915 163.500,193.000" stroke-width="3.292" stroke="black" fill="none" stroke-linecap="round"></path><path d="M 283.500,114.000 C 280.923,120.973 281.000,121.000 278.500,128.000" stroke-width="4.782" stroke="black" fill="none" stroke-linecap="round"></path><path d="M 278.500,128.000 C 276.505,135.703 275.923,135.473 273.500,143.000" stroke-width="3.439" stroke="black" fill="none" stroke-linecap="round"></path><path d="M 273.500,143.000 C 269.200,152.601 269.505,152.703 264.500,162.000" stroke-width="2.801" stroke="black" fill="none" stroke-linecap="round"></path><path d="M 264.500,162.000 C 261.161,168.593 261.200,168.601 257.500,175.000" stroke-width="2.997" stroke="black" fill="none" stroke-linecap="round"></path><path d="M 257.500,175.000 C 255.313,179.249 255.161,179.093 252.500,183.000" stroke-width="3.406" stroke="black" fill="none" stroke-linecap="round"></path><path d="M 252.500,183.000 C 249.705,187.482 250.813,185.249 248.500,187.000" stroke-width="4.299" stroke="black" fill="none" stroke-linecap="round"></path><circle r="1.5" cx="301.5" cy="74" fill="black"></circle></svg>