<svg xmlns="http://www.w3.org/2000/svg" xmlns:xlink="http://www.w3.org/1999/xlink" viewBox="0 0 1460 592" width="1460" height="592"><path d="M 817.000,304.000 C 814.626,302.578 814.500,303.000 812.000,302.000" stroke-width="5.325" stroke="black" fill="none" stroke-linecap="round"></path><path d="M 812.000,302.000 C 789.631,296.684 789.626,297.078 767.000,293.000" stroke-width="1.860" stroke="black" fill="none" stroke-linecap="round"></path><path d="M 767.000,293.000 C 746.387,291.247 746.631,289.684 726.000,288.000" stroke-width="1.647" stroke="black" fill="none" stroke-linecap="round"></path><path d="M 726.000,288.000 C 689.998,281.510 689.887,282.247 654.000,275.000" stroke-width="1.187" stroke="black" fill="none" stroke-linecap="round"></path><path d="M 654.000,275.000 C 642.982,273.092 642.998,273.010 632.000,271.000" stroke-width="1.815" stroke="black" fill="none" stroke-linecap="round"></path><path d="M 632.000,271.000 C 622.073,268.259 621.982,269.092 612.000,267.000" stroke-width="2.230" stroke="black" fill="none" stroke-linecap="round"></path><path d="M 612.000,267.000 C 605.973,267.332 606.073,266.259 600.000,267.000" stroke-width="2.883" stroke="black" fill="none" stroke-linecap="round"></path><path d="M 600.000,267.000 C 592.601,268.126 596.973,266.832 594.000,266.000" stroke-width="3.977" stroke="black" fill="none" stroke-linecap="round"></path><path d="M 594.000,266.000 C 607.047,244.958 605.101,249.126 625.000,229.000" stroke-width="1.808" stroke="black" fill="none" stroke-linecap="round"></path><path d="M 625.000,229.000 C 666.045,192.094 665.547,192.958 711.000,162.000" stroke-width="1.125" stroke="black" fill="none" stroke-linecap="round"></path><path d="M 711.000,162.000 C 728.331,154.551 726.545,151.594 746.000,148.000" stroke-width="1.368" stroke="black" fill="none" stroke-linecap="round"></path><path d="M 746.000,148.000 C 772.594,136.879 772.831,138.051 800.000,129.000" stroke-width="1.268" stroke="black" fill="none" stroke-linecap="round"></path><path d="M 800.000,129.000 C 812.981,126.116 812.594,125.379 826.000,125.000" stroke-width="1.806" stroke="black" fill="none" stroke-linecap="round"></path><path d="M 826.000,125.000 C 830.837,124.531 830.481,124.616 835.000,126.000" stroke-width="2.735" stroke="black" fill="none" stroke-linecap="round"></path><path d="M 835.000,126.000 C 841.498,126.815 839.337,127.531 843.000,131.000" stroke-width="3.340" stroke="black" fill="none" stroke-linecap="round"></path><path d="M 843.000,131.000 C 848.297,148.119 848.498,146.315 849.000,165.000" stroke-width="2.071" stroke="black" fill="none" stroke-linecap="round"></path><path d="M 849.000,165.000 C 849.642,173.499 849.297,172.119 845.000,179.000" stroke-width="2.661" stroke="black" fill="none" stroke-linecap="round"></path><path d="M 845.000,179.000 C 809.607,224.222 809.142,221.499 768.000,261.000" stroke-width="1.541" stroke="black" fill="none" stroke-linecap="round"></path><path d="M 768.000,261.000 C 751.519,272.798 753.607,273.722 733.000,278.000" stroke-width="1.608" stroke="black" fill="none" stroke-linecap="round"></path><path d="M 733.000,278.000 C 705.245,284.688 707.019,285.298 679.000,286.000" stroke-width="1.935" stroke="black" fill="none" stroke-linecap="round"></path><path d="M 679.000,286.000 C 671.160,283.759 675.245,286.188 673.000,281.000" stroke-width="2.970" stroke="black" fill="none" stroke-linecap="round"></path><path d="M 673.000,281.000 C 686.068,262.622 683.160,265.759 703.000,250.000" stroke-width="2.609" stroke="black" fill="none" stroke-linecap="round"></path><path d="M 703.000,250.000 C 714.930,242.614 713.568,242.122 728.000,240.000" stroke-width="2.291" stroke="black" fill="none" stroke-linecap="round"></path><path d="M 728.000,240.000 C 750.842,235.285 749.930,235.614 773.000,236.000" stroke-width="1.648" stroke="black" fill="none" stroke-linecap="round"></path><path d="M 773.000,236.000 C 781.645,238.658 781.842,236.285 790.000,242.000" stroke-width="2.239" stroke="black" fill="none" stroke-linecap="round"></path><path d="M 790.000,242.000 C 797.413,242.676 794.145,243.658 798.000,246.000" stroke-width="3.087" stroke="black" fill="none" stroke-linecap="round"></path><path d="M 798.000,246.000 C 797.133,253.719 798.913,251.176 793.000,259.000" stroke-width="3.902" stroke="black" fill="none" stroke-linecap="round"></path><path d="M 793.000,259.000 C 786.904,264.628 788.133,265.219 780.000,269.000" stroke-width="3.111" stroke="black" fill="none" stroke-linecap="round"></path><path d="M 780.000,269.000 C 771.526,273.551 771.904,274.128 763.000,278.000" stroke-width="2.765" stroke="black" fill="none" stroke-linecap="round"></path></svg>