<svg xmlns="http://www.w3.org/2000/svg" xmlns:xlink="http://www.w3.org/1999/xlink" viewBox="0 0 1460 592" width="1460" height="592"><path d="M 624.000,224.000 C 629.078,223.212 629.000,224.000 634.000,224.000" stroke-width="3.835" stroke="black" fill="none" stroke-linecap="round"></path><path d="M 634.000,224.000 C 654.745,225.887 654.078,227.212 674.000,232.000" stroke-width="2.063" stroke="black" fill="none" stroke-linecap="round"></path><path d="M 674.000,232.000 C 685.730,237.604 686.245,235.887 697.000,244.000" stroke-width="2.120" stroke="black" fill="none" stroke-linecap="round"></path><path d="M 697.000,244.000 C 704.258,248.146 704.230,248.104 711.000,253.000" stroke-width="2.529" stroke="black" fill="none" stroke-linecap="round"></path><path d="M 711.000,253.000 C 720.091,255.893 716.758,257.146 722.000,262.000" stroke-width="3.389" stroke="black" fill="none" stroke-linecap="round"></path><path d="M 722.000,262.000 C 724.017,274.607 725.091,271.893 721.000,285.000" stroke-width="2.621" stroke="black" fill="none" stroke-linecap="round"></path><path d="M 721.000,285.000 C 717.141,289.155 719.517,290.107 713.000,293.000" stroke-width="3.108" stroke="black" fill="none" stroke-linecap="round"></path><path d="M 713.000,293.000 C 703.854,298.309 710.141,295.655 707.000,298.000" stroke-width="3.979" stroke="black" fill="none" stroke-linecap="round"></path><path d="M 707.000,298.000 C 740.686,293.379 734.354,295.309 774.000,287.000" stroke-width="2.266" stroke="black" fill="none" stroke-linecap="round"></path><path d="M 774.000,287.000 C 787.315,282.578 787.686,284.379 801.000,280.000" stroke-width="2.048" stroke="black" fill="none" stroke-linecap="round"></path><path d="M 801.000,280.000 C 821.949,275.276 821.815,276.078 843.000,274.000" stroke-width="1.720" stroke="black" fill="none" stroke-linecap="round"></path><path d="M 843.000,274.000 C 855.334,273.210 854.949,273.276 867.000,276.000" stroke-width="2.057" stroke="black" fill="none" stroke-linecap="round"></path><path d="M 867.000,276.000 C 901.179,285.454 901.334,284.210 935.000,296.000" stroke-width="1.915" stroke="black" fill="none" stroke-linecap="round"></path><path d="M 935.000,296.000 C 947.524,300.436 947.679,299.954 960.000,305.000" stroke-width="2.102" stroke="black" fill="none" stroke-linecap="round"></path><path d="M 960.000,305.000 C 967.847,308.622 968.024,307.936 976.000,311.000" stroke-width="2.550" stroke="black" fill="none" stroke-linecap="round"></path><path d="M 976.000,311.000 C 980.004,312.000 979.847,312.122 984.000,312.000" stroke-width="3.281" stroke="black" fill="none" stroke-linecap="round"></path><path d="M 984.000,312.000 C 987.938,312.531 987.504,312.000 991.000,311.000" stroke-width="3.692" stroke="black" fill="none" stroke-linecap="round"></path><path d="M 991.000,311.000 C 995.549,307.561 995.938,308.531 1000.000,304.000" stroke-width="3.397" stroke="black" fill="none" stroke-linecap="round"></path></svg>