<svg xmlns="http://www.w3.org/2000/svg" xmlns:xlink="http://www.w3.org/1999/xlink" viewBox="0 0 453 236" width="453" height="236"><path d="M 142.500,153.000 C 139.357,152.319 139.500,152.000 136.500,151.000" stroke-width="5.121" stroke="black" fill="none" stroke-linecap="round"></path><path d="M 136.500,151.000 C 133.141,148.699 132.857,149.319 129.500,147.000" stroke-width="4.999" stroke="black" fill="none" stroke-linecap="round"></path><path d="M 129.500,147.000 C 125.408,145.710 125.641,145.199 121.500,144.000" stroke-width="4.049" stroke="black" fill="none" stroke-linecap="round"></path><path d="M 121.500,144.000 C 117.557,141.873 117.408,142.210 113.500,140.000" stroke-width="4.324" stroke="black" fill="none" stroke-linecap="round"></path><path d="M 113.500,140.000 C 107.813,139.202 111.057,138.873 108.500,138.000" stroke-width="4.910" stroke="black" fill="none" stroke-linecap="round"></path><path d="M 108.500,138.000 C 113.013,135.524 109.813,135.702 117.500,133.000" stroke-width="4.941" stroke="black" fill="none" stroke-linecap="round"></path><path d="M 117.500,133.000 C 121.084,131.135 121.013,131.024 124.500,129.000" stroke-width="4.034" stroke="black" fill="none" stroke-linecap="round"></path><path d="M 124.500,129.000 C 129.000,126.000 129.084,126.135 133.500,123.000" stroke-width="3.597" stroke="black" fill="none" stroke-linecap="round"></path><path d="M 133.500,123.000 C 139.708,119.281 139.500,119.000 145.500,115.000" stroke-width="3.191" stroke="black" fill="none" stroke-linecap="round"></path><path d="M 145.500,115.000 C 151.000,110.500 151.208,110.781 156.500,106.000" stroke-width="3.157" stroke="black" fill="none" stroke-linecap="round"></path><path d="M 156.500,106.000 C 161.905,101.379 162.000,101.500 167.500,97.000" stroke-width="3.091" stroke="black" fill="none" stroke-linecap="round"></path><path d="M 167.500,97.000 C 173.311,92.220 173.405,92.379 179.500,88.000" stroke-width="3.018" stroke="black" fill="none" stroke-linecap="round"></path><path d="M 179.500,88.000 C 184.474,84.956 184.311,84.720 189.500,82.000" stroke-width="3.179" stroke="black" fill="none" stroke-linecap="round"></path><path d="M 189.500,82.000 C 192.903,79.799 192.974,79.956 196.500,78.000" stroke-width="3.552" stroke="black" fill="none" stroke-linecap="round"></path><path d="M 196.500,78.000 C 201.500,75.038 198.903,76.799 201.500,76.000" stroke-width="4.027" stroke="black" fill="none" stroke-linecap="round"></path><path d="M 201.500,76.000 C 199.337,79.785 201.500,77.538 196.500,83.000" stroke-width="4.658" stroke="black" fill="none" stroke-linecap="round"></path><path d="M 196.500,83.000 C 191.252,87.773 191.837,88.285 186.500,93.000" stroke-width="3.420" stroke="black" fill="none" stroke-linecap="round"></path><path d="M 186.500,93.000 C 181.700,99.176 181.252,98.773 176.500,105.000" stroke-width="3.124" stroke="black" fill="none" stroke-linecap="round"></path><path d="M 176.500,105.000 C 168.863,112.876 169.200,113.176 161.500,121.000" stroke-width="2.557" stroke="black" fill="none" stroke-linecap="round"></path><path d="M 161.500,121.000 C 155.113,129.632 154.363,128.876 147.500,137.000" stroke-width="2.516" stroke="black" fill="none" stroke-linecap="round"></path><path d="M 147.500,137.000 C 139.000,144.000 139.613,144.632 130.500,151.000" stroke-width="2.410" stroke="black" fill="none" stroke-linecap="round"></path><path d="M 130.500,151.000 C 122.386,158.537 122.000,158.000 113.500,165.000" stroke-width="2.438" stroke="black" fill="none" stroke-linecap="round"></path><path d="M 113.500,165.000 C 105.699,170.354 105.886,170.537 97.500,175.000" stroke-width="2.646" stroke="black" fill="none" stroke-linecap="round"></path><path d="M 97.500,175.000 C 90.551,178.605 90.699,178.854 83.500,182.000" stroke-width="2.838" stroke="black" fill="none" stroke-linecap="round"></path><path d="M 83.500,182.000 C 77.076,185.182 77.051,185.105 70.500,188.000" stroke-width="2.928" stroke="black" fill="none" stroke-linecap="round"></path><path d="M 70.500,188.000 C 66.550,189.650 66.576,189.682 62.500,191.000" stroke-width="3.455" stroke="black" fill="none" stroke-linecap="round"></path><path d="M 62.500,191.000 C 59.029,192.118 59.050,192.150 55.500,193.000" stroke-width="3.780" stroke="black" fill="none" stroke-linecap="round"></path><path d="M 55.500,193.000 C 51.662,195.356 53.029,193.618 50.500,194.000" stroke-width="4.147" stroke="black" fill="none" stroke-linecap="round"></path><path d="M 50.500,194.000 C 48.920,189.772 48.662,191.856 49.500,186.000" stroke-width="4.717" stroke="black" fill="none" stroke-linecap="round"></path><path d="M 49.500,186.000 C 50.729,183.302 49.920,183.272 52.500,181.000" stroke-width="4.379" stroke="black" fill="none" stroke-linecap="round"></path><path d="M 52.500,181.000 C 55.535,176.470 55.729,176.802 59.500,173.000" stroke-width="3.693" stroke="black" fill="none" stroke-linecap="round"></path><path d="M 59.500,173.000 C 63.929,169.887 63.535,169.470 68.500,167.000" stroke-width="3.511" stroke="black" fill="none" stroke-linecap="round"></path><path d="M 68.500,167.000 C 73.260,163.495 73.429,163.887 78.500,161.000" stroke-width="3.387" stroke="black" fill="none" stroke-linecap="round"></path><path d="M 78.500,161.000 C 83.970,158.914 83.760,158.495 89.500,157.000" stroke-width="3.289" stroke="black" fill="none" stroke-linecap="round"></path><path d="M 89.500,157.000 C 97.000,154.500 96.970,154.414 104.500,152.000" stroke-width="3.017" stroke="black" fill="none" stroke-linecap="round"></path><path d="M 104.500,152.000 C 111.891,149.099 112.000,149.500 119.500,147.000" stroke-width="3.103" stroke="black" fill="none" stroke-linecap="round"></path><path d="M 119.500,147.000 C 126.577,145.795 126.391,145.099 133.500,144.000" stroke-width="3.008" stroke="black" fill="none" stroke-linecap="round"></path><path d="M 133.500,144.000 C 139.994,141.980 140.077,142.295 146.500,140.000" stroke-width="3.281" stroke="black" fill="none" stroke-linecap="round"></path><path d="M 146.500,140.000 C 151.523,138.572 151.494,138.480 156.500,137.000" stroke-width="3.421" stroke="black" fill="none" stroke-linecap="round"></path><path d="M 156.500,137.000 C 161.035,135.595 161.023,135.572 165.500,134.000" stroke-width="3.497" stroke="black" fill="none" stroke-linecap="round"></path><path d="M 165.500,134.000 C 168.051,133.113 168.035,133.095 170.500,132.000" stroke-width="4.041" stroke="black" fill="none" stroke-linecap="round"></path><path d="M 272.500,140.000 C 270.476,136.783 270.000,138.000 267.500,136.000" stroke-width="4.095" stroke="black" fill="none" stroke-linecap="round"></path><path d="M 267.500,136.000 C 260.507,135.292 260.976,134.283 253.500,135.000" stroke-width="3.990" stroke="black" fill="none" stroke-linecap="round"></path><path d="M 253.500,135.000 C 248.485,135.262 248.507,134.792 243.500,135.000" stroke-width="4.233" stroke="black" fill="none" stroke-linecap="round"></path><path d="M 243.500,135.000 C 238.986,134.598 238.985,134.762 234.500,134.000" stroke-width="4.358" stroke="black" fill="none" stroke-linecap="round"></path><path d="M 234.500,134.000 C 228.084,133.832 231.486,133.598 228.500,133.000" stroke-width="4.946" stroke="black" fill="none" stroke-linecap="round"></path><path d="M 228.500,133.000 C 232.513,131.533 229.084,131.832 236.500,130.000" stroke-width="5.208" stroke="black" fill="none" stroke-linecap="round"></path><path d="M 236.500,130.000 C 239.138,129.272 239.013,129.033 241.500,128.000" stroke-width="4.466" stroke="black" fill="none" stroke-linecap="round"></path><path d="M 241.500,128.000 C 245.456,125.427 245.638,125.772 249.500,123.000" stroke-width="3.774" stroke="black" fill="none" stroke-linecap="round"></path><path d="M 249.500,123.000 C 255.500,119.500 255.456,119.427 261.500,116.000" stroke-width="3.272" stroke="black" fill="none" stroke-linecap="round"></path><path d="M 261.500,116.000 C 267.483,112.471 267.500,112.500 273.500,109.000" stroke-width="3.146" stroke="black" fill="none" stroke-linecap="round"></path><path d="M 273.500,109.000 C 280.565,105.110 280.483,104.971 287.500,101.000" stroke-width="2.828" stroke="black" fill="none" stroke-linecap="round"></path><path d="M 287.500,101.000 C 294.062,97.097 294.065,97.110 300.500,93.000" stroke-width="2.922" stroke="black" fill="none" stroke-linecap="round"></path><path d="M 300.500,93.000 C 305.000,90.000 305.062,90.097 309.500,87.000" stroke-width="3.213" stroke="black" fill="none" stroke-linecap="round"></path><path d="M 309.500,87.000 C 312.698,85.242 312.500,85.000 315.500,83.000" stroke-width="3.695" stroke="black" fill="none" stroke-linecap="round"></path><path d="M 315.500,83.000 C 320.212,78.004 317.698,81.242 319.500,79.000" stroke-width="4.006" stroke="black" fill="none" stroke-linecap="round"></path><path d="M 319.500,79.000 C 314.760,84.319 317.712,81.504 310.500,90.000" stroke-width="4.696" stroke="black" fill="none" stroke-linecap="round"></path><path d="M 310.500,90.000 C 306.547,96.943 305.760,96.319 301.500,103.000" stroke-width="3.360" stroke="black" fill="none" stroke-linecap="round"></path><path d="M 301.500,103.000 C 293.750,111.750 294.047,111.943 285.500,120.000" stroke-width="2.600" stroke="black" fill="none" stroke-linecap="round"></path><path d="M 285.500,120.000 C 276.937,129.015 276.750,128.750 267.500,137.000" stroke-width="2.313" stroke="black" fill="none" stroke-linecap="round"></path><path d="M 267.500,137.000 C 257.184,145.254 257.437,145.515 246.500,153.000" stroke-width="2.341" stroke="black" fill="none" stroke-linecap="round"></path><path d="M 246.500,153.000 C 237.186,159.791 237.184,159.754 227.500,166.000" stroke-width="2.375" stroke="black" fill="none" stroke-linecap="round"></path><path d="M 227.500,166.000 C 217.653,172.272 217.686,172.291 207.500,178.000" stroke-width="2.372" stroke="black" fill="none" stroke-linecap="round"></path><path d="M 207.500,178.000 C 198.211,183.442 198.153,183.272 188.500,188.000" stroke-width="2.451" stroke="black" fill="none" stroke-linecap="round"></path><path d="M 188.500,188.000 C 173.577,194.689 173.711,194.942 158.500,201.000" stroke-width="2.057" stroke="black" fill="none" stroke-linecap="round"></path><path d="M 158.500,201.000 C 152.119,203.894 152.077,203.689 145.500,206.000" stroke-width="2.834" stroke="black" fill="none" stroke-linecap="round"></path><path d="M 145.500,206.000 C 141.043,207.394 141.119,207.394 136.500,208.000" stroke-width="3.311" stroke="black" fill="none" stroke-linecap="round"></path><path d="M 136.500,208.000 C 133.473,207.730 133.543,208.394 130.500,208.000" stroke-width="3.898" stroke="black" fill="none" stroke-linecap="round"></path><path d="M 130.500,208.000 C 124.784,210.312 127.973,208.230 125.500,209.000" stroke-width="4.532" stroke="black" fill="none" stroke-linecap="round"></path><path d="M 125.500,209.000 C 130.155,201.935 127.784,204.812 136.500,197.000" stroke-width="3.938" stroke="black" fill="none" stroke-linecap="round"></path><path d="M 136.500,197.000 C 144.434,192.379 143.655,191.435 152.500,188.000" stroke-width="2.985" stroke="black" fill="none" stroke-linecap="round"></path><path d="M 152.500,188.000 C 162.048,183.089 161.934,182.879 171.500,178.000" stroke-width="2.551" stroke="black" fill="none" stroke-linecap="round"></path><path d="M 171.500,178.000 C 181.300,172.100 181.548,172.589 191.500,167.000" stroke-width="2.444" stroke="black" fill="none" stroke-linecap="round"></path><path d="M 191.500,167.000 C 201.500,162.500 201.300,162.100 211.500,158.000" stroke-width="2.394" stroke="black" fill="none" stroke-linecap="round"></path><path d="M 211.500,158.000 C 221.361,153.160 221.500,153.500 231.500,149.000" stroke-width="2.379" stroke="black" fill="none" stroke-linecap="round"></path><path d="M 231.500,149.000 C 240.877,145.113 240.861,145.160 250.500,142.000" stroke-width="2.451" stroke="black" fill="none" stroke-linecap="round"></path><path d="M 250.500,142.000 C 258.000,140.000 257.877,139.613 265.500,138.000" stroke-width="2.720" stroke="black" fill="none" stroke-linecap="round"></path><path d="M 265.500,138.000 C 272.943,135.744 273.000,136.000 280.500,134.000" stroke-width="2.871" stroke="black" fill="none" stroke-linecap="round"></path><path d="M 280.500,134.000 C 286.070,133.293 285.943,132.744 291.500,132.000" stroke-width="3.218" stroke="black" fill="none" stroke-linecap="round"></path><path d="M 291.500,132.000 C 296.629,130.826 296.570,130.793 301.500,129.000" stroke-width="3.400" stroke="black" fill="none" stroke-linecap="round"></path><path d="M 301.500,129.000 C 304.449,127.387 304.629,127.826 307.500,126.000" stroke-width="3.820" stroke="black" fill="none" stroke-linecap="round"></path><path d="M 307.500,126.000 C 313.562,123.848 309.949,124.887 312.500,124.000" stroke-width="4.491" stroke="black" fill="none" stroke-linecap="round"></path></svg>