<svg xmlns="http://www.w3.org/2000/svg" xmlns:xlink="http://www.w3.org/1999/xlink" viewBox="0 0 751 330" width="751" height="330"><path d="M 86.500,102.000 C 89.333,99.792 89.500,100.500 92.500,99.000" stroke-width="4.924" stroke="black" fill="none" stroke-linecap="round"></path><path d="M 92.500,99.000 C 95.500,99.000 95.333,98.292 98.500,99.000" stroke-width="4.361" stroke="black" fill="none" stroke-linecap="round"></path><path d="M 98.500,99.000 C 103.000,99.000 103.000,99.000 107.500,99.000" stroke-width="3.859" stroke="black" fill="none" stroke-linecap="round"></path><path d="M 107.500,99.000 C 112.500,99.000 112.500,99.000 117.500,99.000" stroke-width="3.631" stroke="black" fill="none" stroke-linecap="round"></path><path d="M 117.500,99.000 C 123.000,99.000 123.000,99.000 128.500,99.000" stroke-width="3.477" stroke="black" fill="none" stroke-linecap="round"></path><path d="M 128.500,99.000 C 133.000,99.000 133.000,99.000 137.500,99.000" stroke-width="3.562" stroke="black" fill="none" stroke-linecap="round"></path><path d="M 137.500,99.000 C 141.000,99.000 141.000,99.000 144.500,99.000" stroke-width="3.801" stroke="black" fill="none" stroke-linecap="round"></path><path d="M 144.500,99.000 C 150.500,98.092 147.500,99.000 150.500,99.000" stroke-width="4.044" stroke="black" fill="none" stroke-linecap="round"></path><path d="M 150.500,99.000 C 147.704,101.398 150.500,100.092 144.500,103.000" stroke-width="4.712" stroke="black" fill="none" stroke-linecap="round"></path><path d="M 144.500,103.000 C 140.465,104.414 140.704,104.898 136.500,106.000" stroke-width="4.046" stroke="black" fill="none" stroke-linecap="round"></path><path d="M 119.500,107.000 C 123.132,112.255 122.000,112.500 124.500,118.000" stroke-width="5.121" stroke="black" fill="none" stroke-linecap="round"></path><path d="M 124.500,118.000 C 124.500,123.000 125.632,122.755 124.500,128.000" stroke-width="3.903" stroke="black" fill="none" stroke-linecap="round"></path><path d="M 124.500,128.000 C 125.269,134.595 124.500,134.500 124.500,141.000" stroke-width="3.373" stroke="black" fill="none" stroke-linecap="round"></path><path d="M 124.500,141.000 C 123.517,147.174 123.769,147.095 121.500,153.000" stroke-width="3.230" stroke="black" fill="none" stroke-linecap="round"></path><path d="M 121.500,153.000 C 118.672,160.080 119.017,160.174 115.500,167.000" stroke-width="3.041" stroke="black" fill="none" stroke-linecap="round"></path><path d="M 115.500,167.000 C 113.326,172.196 113.172,172.080 110.500,177.000" stroke-width="3.329" stroke="black" fill="none" stroke-linecap="round"></path><path d="M 110.500,177.000 C 108.244,180.707 108.326,180.696 105.500,184.000" stroke-width="3.553" stroke="black" fill="none" stroke-linecap="round"></path><path d="M 105.500,184.000 C 103.403,187.152 103.244,186.707 100.500,189.000" stroke-width="3.837" stroke="black" fill="none" stroke-linecap="round"></path><path d="M 100.500,189.000 C 97.599,190.613 97.903,190.652 94.500,191.000" stroke-width="4.017" stroke="black" fill="none" stroke-linecap="round"></path><path d="M 94.500,191.000 C 89.283,192.087 89.599,191.613 84.500,191.000" stroke-width="3.611" stroke="black" fill="none" stroke-linecap="round"></path><path d="M 84.500,191.000 C 78.120,189.177 78.283,189.587 72.500,186.000" stroke-width="3.304" stroke="black" fill="none" stroke-linecap="round"></path><path d="M 72.500,186.000 C 66.804,182.243 66.620,182.677 61.500,178.000" stroke-width="3.176" stroke="black" fill="none" stroke-linecap="round"></path><path d="M 61.500,178.000 C 57.070,173.917 56.804,174.243 52.500,170.000" stroke-width="3.257" stroke="black" fill="none" stroke-linecap="round"></path><path d="M 52.500,170.000 C 49.401,168.444 50.070,167.917 47.500,166.000" stroke-width="3.796" stroke="black" fill="none" stroke-linecap="round"></path><path d="M 47.500,166.000 C 45.260,163.401 45.901,163.944 45.500,161.000" stroke-width="4.492" stroke="black" fill="none" stroke-linecap="round"></path><path d="M 124.500,180.000 C 127.921,178.565 128.000,179.000 131.500,178.000" stroke-width="5.041" stroke="black" fill="none" stroke-linecap="round"></path><path d="M 131.500,178.000 C 137.608,178.071 137.421,177.065 143.500,177.000" stroke-width="4.410" stroke="black" fill="none" stroke-linecap="round"></path><path d="M 143.500,177.000 C 148.717,176.014 148.608,176.071 153.500,174.000" stroke-width="3.654" stroke="black" fill="none" stroke-linecap="round"></path><path d="M 153.500,174.000 C 158.235,171.843 158.217,172.014 162.500,169.000" stroke-width="3.547" stroke="black" fill="none" stroke-linecap="round"></path><path d="M 162.500,169.000 C 165.900,166.860 165.735,166.843 168.500,164.000" stroke-width="3.802" stroke="black" fill="none" stroke-linecap="round"></path><path d="M 168.500,164.000 C 173.608,159.552 170.900,161.360 172.500,158.000" stroke-width="4.353" stroke="black" fill="none" stroke-linecap="round"></path><path d="M 172.500,158.000 C 167.997,157.000 171.108,156.052 163.500,157.000" stroke-width="4.415" stroke="black" fill="none" stroke-linecap="round"></path><path d="M 163.500,157.000 C 158.999,156.367 159.497,157.000 155.500,158.000" stroke-width="4.030" stroke="black" fill="none" stroke-linecap="round"></path><path d="M 155.500,158.000 C 151.394,160.527 151.499,159.867 148.500,164.000" stroke-width="3.754" stroke="black" fill="none" stroke-linecap="round"></path><path d="M 148.500,164.000 C 146.787,166.912 146.394,166.527 145.500,170.000" stroke-width="3.988" stroke="black" fill="none" stroke-linecap="round"></path><path d="M 145.500,170.000 C 143.672,172.901 144.287,172.912 143.500,176.000" stroke-width="4.109" stroke="black" fill="none" stroke-linecap="round"></path><path d="M 143.500,176.000 C 142.610,182.645 143.172,181.901 144.500,188.000" stroke-width="4.183" stroke="black" fill="none" stroke-linecap="round"></path><path d="M 144.500,188.000 C 146.557,191.189 145.610,191.145 149.500,193.000" stroke-width="3.981" stroke="black" fill="none" stroke-linecap="round"></path><path d="M 149.500,193.000 C 153.373,195.029 153.057,195.189 157.500,196.000" stroke-width="3.756" stroke="black" fill="none" stroke-linecap="round"></path><path d="M 157.500,196.000 C 161.985,196.762 161.873,197.029 166.500,197.000" stroke-width="3.695" stroke="black" fill="none" stroke-linecap="round"></path><path d="M 166.500,197.000 C 171.517,197.277 171.485,197.262 176.500,197.000" stroke-width="3.586" stroke="black" fill="none" stroke-linecap="round"></path><path d="M 176.500,197.000 C 180.974,197.469 180.517,196.777 184.500,196.000" stroke-width="3.693" stroke="black" fill="none" stroke-linecap="round"></path><path d="M 225.500,155.000 C 217.542,156.951 217.500,156.500 209.500,158.000" stroke-width="4.468" stroke="black" fill="none" stroke-linecap="round"></path><path d="M 209.500,158.000 C 205.891,157.435 206.042,158.451 202.500,158.000" stroke-width="4.118" stroke="black" fill="none" stroke-linecap="round"></path><path d="M 202.500,158.000 C 199.541,158.368 199.891,158.435 197.500,160.000" stroke-width="4.224" stroke="black" fill="none" stroke-linecap="round"></path><path d="M 197.500,160.000 C 193.624,162.627 194.541,162.368 192.500,166.000" stroke-width="4.446" stroke="black" fill="none" stroke-linecap="round"></path><path d="M 192.500,166.000 C 191.565,170.495 191.624,168.627 193.500,172.000" stroke-width="4.654" stroke="black" fill="none" stroke-linecap="round"></path><path d="M 193.500,172.000 C 197.535,172.300 196.065,173.995 201.500,173.000" stroke-width="3.974" stroke="black" fill="none" stroke-linecap="round"></path><path d="M 201.500,173.000 C 205.940,174.544 206.035,173.800 210.500,175.000" stroke-width="3.739" stroke="black" fill="none" stroke-linecap="round"></path><path d="M 210.500,175.000 C 216.018,174.711 215.940,175.544 221.500,175.000" stroke-width="3.614" stroke="black" fill="none" stroke-linecap="round"></path><path d="M 221.500,175.000 C 225.877,174.607 225.518,175.211 229.500,176.000" stroke-width="3.701" stroke="black" fill="none" stroke-linecap="round"></path><path d="M 229.500,176.000 C 233.745,177.485 232.377,177.107 234.500,180.000" stroke-width="4.340" stroke="black" fill="none" stroke-linecap="round"></path><path d="M 234.500,180.000 C 234.548,183.782 235.245,182.485 232.500,186.000" stroke-width="4.214" stroke="black" fill="none" stroke-linecap="round"></path><path d="M 232.500,186.000 C 227.740,189.903 228.548,190.282 222.500,193.000" stroke-width="3.442" stroke="black" fill="none" stroke-linecap="round"></path><path d="M 222.500,193.000 C 216.677,196.426 216.740,196.403 210.500,199.000" stroke-width="3.285" stroke="black" fill="none" stroke-linecap="round"></path><path d="M 210.500,199.000 C 204.590,201.339 204.677,201.426 198.500,203.000" stroke-width="3.118" stroke="black" fill="none" stroke-linecap="round"></path><path d="M 198.500,203.000 C 193.537,204.370 193.590,204.339 188.500,205.000" stroke-width="3.334" stroke="black" fill="none" stroke-linecap="round"></path><path d="M 188.500,205.000 C 183.474,206.460 185.537,205.370 182.500,205.000" stroke-width="3.871" stroke="black" fill="none" stroke-linecap="round"></path><path d="M 182.500,205.000 C 182.280,200.850 181.474,203.460 184.500,199.000" stroke-width="4.600" stroke="black" fill="none" stroke-linecap="round"></path><path d="M 282.500,153.000 C 277.511,153.722 277.500,153.500 272.500,154.000" stroke-width="3.744" stroke="black" fill="none" stroke-linecap="round"></path><path d="M 272.500,154.000 C 268.489,153.778 268.511,154.222 264.500,154.000" stroke-width="3.848" stroke="black" fill="none" stroke-linecap="round"></path><path d="M 264.500,154.000 C 259.455,154.218 259.489,154.278 254.500,155.000" stroke-width="3.623" stroke="black" fill="none" stroke-linecap="round"></path><path d="M 254.500,155.000 C 250.000,156.000 249.955,155.718 245.500,157.000" stroke-width="3.640" stroke="black" fill="none" stroke-linecap="round"></path><path d="M 245.500,157.000 C 241.007,158.034 241.000,158.000 236.500,159.000" stroke-width="3.590" stroke="black" fill="none" stroke-linecap="round"></path><path d="M 236.500,159.000 C 230.632,158.988 234.007,159.534 231.500,160.000" stroke-width="4.076" stroke="black" fill="none" stroke-linecap="round"></path><path d="M 231.500,160.000 C 236.687,163.886 233.632,162.488 242.500,166.000" stroke-width="4.511" stroke="black" fill="none" stroke-linecap="round"></path><path d="M 242.500,166.000 C 248.000,167.000 247.687,167.886 253.500,168.000" stroke-width="3.666" stroke="black" fill="none" stroke-linecap="round"></path><path d="M 253.500,168.000 C 259.271,168.257 259.000,169.000 264.500,170.000" stroke-width="3.410" stroke="black" fill="none" stroke-linecap="round"></path><path d="M 264.500,170.000 C 268.435,171.492 268.271,171.257 271.500,174.000" stroke-width="3.684" stroke="black" fill="none" stroke-linecap="round"></path><path d="M 271.500,174.000 C 274.997,176.233 273.935,175.992 275.500,179.000" stroke-width="4.347" stroke="black" fill="none" stroke-linecap="round"></path><path d="M 275.500,179.000 C 275.668,183.013 275.997,181.733 273.500,185.000" stroke-width="4.121" stroke="black" fill="none" stroke-linecap="round"></path><path d="M 273.500,185.000 C 268.630,187.802 269.668,188.513 263.500,190.000" stroke-width="3.583" stroke="black" fill="none" stroke-linecap="round"></path><path d="M 263.500,190.000 C 258.111,192.397 258.130,192.302 252.500,194.000" stroke-width="3.459" stroke="black" fill="none" stroke-linecap="round"></path><path d="M 252.500,194.000 C 247.546,195.469 247.611,195.397 242.500,196.000" stroke-width="3.499" stroke="black" fill="none" stroke-linecap="round"></path><path d="M 242.500,196.000 C 237.968,196.319 238.046,196.469 233.500,196.000" stroke-width="3.569" stroke="black" fill="none" stroke-linecap="round"></path><path d="M 233.500,196.000 C 227.632,196.012 230.968,195.819 228.500,195.000" stroke-width="4.412" stroke="black" fill="none" stroke-linecap="round"></path><path d="M 228.500,195.000 C 233.856,191.699 230.632,192.512 239.500,189.000" stroke-width="4.220" stroke="black" fill="none" stroke-linecap="round"></path><path d="M 239.500,189.000 C 245.745,186.984 245.356,186.199 251.500,184.000" stroke-width="3.371" stroke="black" fill="none" stroke-linecap="round"></path><path d="M 251.500,184.000 C 264.684,175.605 259.245,179.984 266.500,175.000" stroke-width="2.711" stroke="black" fill="none" stroke-linecap="round"></path><path d="M 306.500,164.000 C 300.634,171.642 302.000,172.000 297.500,180.000" stroke-width="4.493" stroke="black" fill="none" stroke-linecap="round"></path><path d="M 297.500,180.000 C 297.500,184.000 296.134,183.642 297.500,188.000" stroke-width="4.056" stroke="black" fill="none" stroke-linecap="round"></path><path d="M 297.500,188.000 C 296.935,194.435 297.500,191.500 297.500,195.000" stroke-width="4.052" stroke="black" fill="none" stroke-linecap="round"></path><circle r="1.5" cx="313.5" cy="121" fill="black"></circle><path d="M 369.500,173.000 C 366.549,165.039 365.500,167.000 361.500,161.000" stroke-width="4.594" stroke="black" fill="none" stroke-linecap="round"></path><path d="M 361.500,161.000 C 358.000,161.000 359.049,159.039 354.500,161.000" stroke-width="4.150" stroke="black" fill="none" stroke-linecap="round"></path><path d="M 354.500,161.000 C 349.847,160.131 350.000,161.000 345.500,161.000" stroke-width="3.808" stroke="black" fill="none" stroke-linecap="round"></path><path d="M 345.500,161.000 C 339.697,162.401 339.847,162.131 334.500,165.000" stroke-width="3.398" stroke="black" fill="none" stroke-linecap="round"></path><path d="M 334.500,165.000 C 329.583,167.545 329.697,167.401 325.500,171.000" stroke-width="3.426" stroke="black" fill="none" stroke-linecap="round"></path><path d="M 325.500,171.000 C 322.269,173.179 323.083,173.045 321.500,176.000" stroke-width="3.970" stroke="black" fill="none" stroke-linecap="round"></path><path d="M 321.500,176.000 C 320.445,180.506 320.769,178.679 322.500,182.000" stroke-width="4.471" stroke="black" fill="none" stroke-linecap="round"></path><path d="M 322.500,182.000 C 327.559,182.765 325.945,184.506 332.500,184.000" stroke-width="3.692" stroke="black" fill="none" stroke-linecap="round"></path><path d="M 332.500,184.000 C 337.420,185.845 337.559,185.265 342.500,187.000" stroke-width="3.485" stroke="black" fill="none" stroke-linecap="round"></path><path d="M 342.500,187.000 C 348.580,187.655 348.420,188.345 354.500,189.000" stroke-width="3.338" stroke="black" fill="none" stroke-linecap="round"></path><path d="M 354.500,189.000 C 359.432,190.808 359.580,190.155 364.500,192.000" stroke-width="3.439" stroke="black" fill="none" stroke-linecap="round"></path><path d="M 406.500,166.000 C 402.506,165.000 402.500,165.500 398.500,165.000" stroke-width="5.169" stroke="black" fill="none" stroke-linecap="round"></path><path d="M 398.500,165.000 C 393.081,164.473 393.506,165.000 388.500,166.000" stroke-width="4.561" stroke="black" fill="none" stroke-linecap="round"></path><path d="M 388.500,166.000 C 384.526,167.436 385.581,166.973 383.500,170.000" stroke-width="4.695" stroke="black" fill="none" stroke-linecap="round"></path><path d="M 383.500,170.000 C 382.909,173.878 382.526,172.436 384.500,176.000" stroke-width="4.733" stroke="black" fill="none" stroke-linecap="round"></path><path d="M 384.500,176.000 C 386.917,177.296 385.909,177.878 389.500,178.000" stroke-width="4.443" stroke="black" fill="none" stroke-linecap="round"></path><path d="M 389.500,178.000 C 392.479,178.748 392.417,178.796 395.500,179.000" stroke-width="4.229" stroke="black" fill="none" stroke-linecap="round"></path><path d="M 395.500,179.000 C 398.521,179.248 398.479,179.248 401.500,179.000" stroke-width="4.179" stroke="black" fill="none" stroke-linecap="round"></path><path d="M 401.500,179.000 C 404.755,179.144 404.521,178.748 407.500,178.000" stroke-width="4.236" stroke="black" fill="none" stroke-linecap="round"></path><path d="M 407.500,178.000 C 411.139,176.597 410.755,176.644 413.500,174.000" stroke-width="4.080" stroke="black" fill="none" stroke-linecap="round"></path><path d="M 413.500,174.000 C 416.075,170.705 416.139,171.097 417.500,167.000" stroke-width="3.836" stroke="black" fill="none" stroke-linecap="round"></path><path d="M 417.500,167.000 C 418.248,161.000 418.575,164.205 418.500,161.000" stroke-width="4.046" stroke="black" fill="none" stroke-linecap="round"></path><path d="M 418.500,161.000 C 418.324,164.008 418.748,161.000 418.500,167.000" stroke-width="4.690" stroke="black" fill="none" stroke-linecap="round"></path><path d="M 418.500,167.000 C 418.009,172.782 418.824,172.508 419.500,178.000" stroke-width="3.714" stroke="black" fill="none" stroke-linecap="round"></path><path d="M 419.500,178.000 C 421.764,183.137 421.009,183.282 424.500,188.000" stroke-width="3.423" stroke="black" fill="none" stroke-linecap="round"></path><path d="M 424.500,188.000 C 426.116,191.352 426.264,191.137 428.500,194.000" stroke-width="3.775" stroke="black" fill="none" stroke-linecap="round"></path><path d="M 428.500,194.000 C 430.634,197.045 430.616,196.352 433.500,198.000" stroke-width="4.029" stroke="black" fill="none" stroke-linecap="round"></path><path d="M 433.500,198.000 C 437.057,198.459 436.634,199.045 440.500,198.000" stroke-width="3.947" stroke="black" fill="none" stroke-linecap="round"></path><path d="M 440.500,198.000 C 445.270,198.280 444.557,197.459 448.500,196.000" stroke-width="3.884" stroke="black" fill="none" stroke-linecap="round"></path><path d="M 448.500,196.000 C 453.050,191.044 453.770,192.280 457.500,186.000" stroke-width="3.331" stroke="black" fill="none" stroke-linecap="round"></path><path d="M 608.500,115.000 C 608.500,108.000 608.500,108.000 608.500,101.000" stroke-width="3.309" stroke="black" fill="none" stroke-linecap="round"></path><path d="M 608.500,101.000 C 608.500,97.000 608.500,97.000 608.500,93.000" stroke-width="3.654" stroke="black" fill="none" stroke-linecap="round"></path><path d="M 608.500,93.000 C 610.315,87.310 608.500,88.000 608.500,83.000" stroke-width="3.575" stroke="black" fill="none" stroke-linecap="round"></path><path d="M 608.500,83.000 C 605.397,77.265 606.315,77.810 600.500,74.000" stroke-width="3.372" stroke="black" fill="none" stroke-linecap="round"></path><path d="M 600.500,74.000 C 592.916,68.511 593.397,69.265 584.500,67.000" stroke-width="2.993" stroke="black" fill="none" stroke-linecap="round"></path><path d="M 584.500,67.000 C 572.300,64.035 573.416,65.011 561.500,67.000" stroke-width="2.544" stroke="black" fill="none" stroke-linecap="round"></path><path d="M 561.500,67.000 C 546.956,73.084 546.800,71.035 533.500,81.000" stroke-width="2.058" stroke="black" fill="none" stroke-linecap="round"></path><path d="M 533.500,81.000 C 521.311,88.155 521.456,88.084 510.500,97.000" stroke-width="2.049" stroke="black" fill="none" stroke-linecap="round"></path><path d="M 510.500,97.000 C 499.336,106.387 499.311,106.155 489.500,117.000" stroke-width="2.070" stroke="black" fill="none" stroke-linecap="round"></path><path d="M 489.500,117.000 C 480.387,127.059 480.336,126.887 472.500,138.000" stroke-width="2.141" stroke="black" fill="none" stroke-linecap="round"></path><path d="M 472.500,138.000 C 464.766,148.606 464.887,148.559 458.500,160.000" stroke-width="2.195" stroke="black" fill="none" stroke-linecap="round"></path><path d="M 458.500,160.000 C 452.986,168.679 453.766,168.606 450.500,178.000" stroke-width="2.467" stroke="black" fill="none" stroke-linecap="round"></path><path d="M 450.500,178.000 C 448.683,184.550 448.986,183.679 450.500,190.000" stroke-width="2.947" stroke="black" fill="none" stroke-linecap="round"></path><path d="M 450.500,190.000 C 452.693,198.596 452.683,196.550 458.500,202.000" stroke-width="3.014" stroke="black" fill="none" stroke-linecap="round"></path><path d="M 458.500,202.000 C 468.850,205.580 467.193,207.096 479.500,207.000" stroke-width="2.552" stroke="black" fill="none" stroke-linecap="round"></path><path d="M 479.500,207.000 C 491.499,208.000 491.350,208.580 503.500,208.000" stroke-width="2.332" stroke="black" fill="none" stroke-linecap="round"></path><path d="M 503.500,208.000 C 516.884,209.474 516.499,208.000 529.500,207.000" stroke-width="2.361" stroke="black" fill="none" stroke-linecap="round"></path><path d="M 529.500,207.000 C 542.415,203.426 542.384,204.474 554.500,198.000" stroke-width="2.183" stroke="black" fill="none" stroke-linecap="round"></path><path d="M 554.500,198.000 C 567.344,192.703 566.915,192.426 578.500,185.000" stroke-width="2.166" stroke="black" fill="none" stroke-linecap="round"></path><path d="M 578.500,185.000 C 588.472,177.858 588.344,178.203 596.500,169.000" stroke-width="2.221" stroke="black" fill="none" stroke-linecap="round"></path><path d="M 596.500,169.000 C 603.332,161.613 602.972,161.858 607.500,153.000" stroke-width="2.436" stroke="black" fill="none" stroke-linecap="round"></path><path d="M 607.500,153.000 C 610.284,145.603 610.832,146.113 611.500,138.000" stroke-width="2.715" stroke="black" fill="none" stroke-linecap="round"></path><path d="M 611.500,138.000 C 613.994,130.743 612.284,133.103 611.500,128.000" stroke-width="3.198" stroke="black" fill="none" stroke-linecap="round"></path><path d="M 611.500,128.000 C 606.455,126.739 608.994,125.243 601.500,127.000" stroke-width="3.427" stroke="black" fill="none" stroke-linecap="round"></path></svg>