<svg xmlns="http://www.w3.org/2000/svg" xmlns:xlink="http://www.w3.org/1999/xlink" viewBox="0 0 1460 592" width="1460" height="592"><path d="M 716.000,331.000 C 707.956,333.887 708.000,334.000 700.000,337.000" stroke-width="4.773" stroke="black" fill="none" stroke-linecap="round"></path><path d="M 700.000,337.000 C 685.541,345.240 684.956,342.887 670.000,349.000" stroke-width="2.359" stroke="black" fill="none" stroke-linecap="round"></path><path d="M 670.000,349.000 C 653.829,352.344 654.541,352.740 638.000,352.000" stroke-width="1.994" stroke="black" fill="none" stroke-linecap="round"></path><path d="M 638.000,352.000 C 630.136,351.468 630.829,351.844 624.000,348.000" stroke-width="2.663" stroke="black" fill="none" stroke-linecap="round"></path><path d="M 624.000,348.000 C 616.442,344.767 618.636,344.968 615.000,339.000" stroke-width="3.028" stroke="black" fill="none" stroke-linecap="round"></path><path d="M 615.000,339.000 C 612.689,324.875 611.942,326.767 615.000,312.000" stroke-width="2.374" stroke="black" fill="none" stroke-linecap="round"></path><path d="M 615.000,312.000 C 616.742,304.344 616.189,305.375 622.000,300.000" stroke-width="2.883" stroke="black" fill="none" stroke-linecap="round"></path><path d="M 622.000,300.000 C 638.859,279.377 639.742,285.344 661.000,274.000" stroke-width="1.686" stroke="black" fill="none" stroke-linecap="round"></path><path d="M 661.000,274.000 C 711.825,264.260 708.859,262.377 762.000,266.000" stroke-width="1.125" stroke="black" fill="none" stroke-linecap="round"></path><path d="M 762.000,266.000 C 798.158,272.319 798.325,267.260 834.000,280.000" stroke-width="1.125" stroke="black" fill="none" stroke-linecap="round"></path><path d="M 834.000,280.000 C 846.902,283.918 847.158,282.819 860.000,287.000" stroke-width="1.603" stroke="black" fill="none" stroke-linecap="round"></path><path d="M 860.000,287.000 C 881.664,285.329 872.402,289.918 885.000,292.000" stroke-width="1.911" stroke="black" fill="none" stroke-linecap="round"></path><path d="M 885.000,292.000 C 882.548,306.276 888.164,298.329 873.000,313.000" stroke-width="2.917" stroke="black" fill="none" stroke-linecap="round"></path><path d="M 873.000,313.000 C 844.027,328.911 847.048,331.276 814.000,342.000" stroke-width="1.411" stroke="black" fill="none" stroke-linecap="round"></path><path d="M 814.000,342.000 C 804.455,344.341 805.027,345.911 795.000,347.000" stroke-width="2.042" stroke="black" fill="none" stroke-linecap="round"></path><path d="M 795.000,347.000 C 783.088,351.816 788.455,348.841 782.000,351.000" stroke-width="2.696" stroke="black" fill="none" stroke-linecap="round"></path><path d="M 782.000,351.000 C 785.644,345.547 781.088,350.316 791.000,344.000" stroke-width="3.786" stroke="black" fill="none" stroke-linecap="round"></path><path d="M 791.000,344.000 C 808.947,338.874 808.144,339.047 827.000,338.000" stroke-width="2.193" stroke="black" fill="none" stroke-linecap="round"></path><path d="M 827.000,338.000 C 840.160,338.622 839.947,337.374 853.000,341.000" stroke-width="2.208" stroke="black" fill="none" stroke-linecap="round"></path><path d="M 853.000,341.000 C 867.404,343.372 867.160,343.622 881.000,348.000" stroke-width="2.063" stroke="black" fill="none" stroke-linecap="round"></path><path d="M 881.000,348.000 C 890.802,352.017 890.904,351.372 900.000,357.000" stroke-width="2.307" stroke="black" fill="none" stroke-linecap="round"></path></svg>