<svg xmlns="http://www.w3.org/2000/svg" xmlns:xlink="http://www.w3.org/1999/xlink" viewBox="0 0 1460 592" width="1460" height="592"><path d="M 730.000,297.000 C 732.978,295.930 733.000,296.000 736.000,295.000" stroke-width="4.880" stroke="black" fill="none" stroke-linecap="round"></path><path d="M 736.000,295.000 C 739.439,293.737 739.478,293.930 743.000,293.000" stroke-width="4.123" stroke="black" fill="none" stroke-linecap="round"></path><path d="M 743.000,293.000 C 753.947,290.646 753.939,290.737 765.000,289.000" stroke-width="2.695" stroke="black" fill="none" stroke-linecap="round"></path><path d="M 765.000,289.000 C 777.467,286.940 777.447,287.146 790.000,286.000" stroke-width="2.380" stroke="black" fill="none" stroke-linecap="round"></path><path d="M 790.000,286.000 C 797.520,285.675 797.467,285.440 805.000,286.000" stroke-width="2.724" stroke="black" fill="none" stroke-linecap="round"></path><path d="M 805.000,286.000 C 814.433,287.318 809.020,286.175 813.000,287.000" stroke-width="3.317" stroke="black" fill="none" stroke-linecap="round"></path><path d="M 813.000,287.000 C 804.555,285.122 809.933,286.318 796.000,284.000" stroke-width="3.878" stroke="black" fill="none" stroke-linecap="round"></path><path d="M 796.000,284.000 C 774.004,281.463 774.055,281.122 752.000,279.000" stroke-width="1.901" stroke="black" fill="none" stroke-linecap="round"></path><path d="M 752.000,279.000 C 706.867,275.021 707.004,273.963 662.000,269.000" stroke-width="1.125" stroke="black" fill="none" stroke-linecap="round"></path><path d="M 662.000,269.000 C 591.455,258.787 591.367,259.521 521.000,248.000" stroke-width="1.125" stroke="black" fill="none" stroke-linecap="round"></path><path d="M 521.000,248.000 C 486.887,243.051 486.955,242.787 453.000,237.000" stroke-width="1.125" stroke="black" fill="none" stroke-linecap="round"></path><path d="M 453.000,237.000 C 444.913,235.297 444.887,235.551 437.000,233.000" stroke-width="1.753" stroke="black" fill="none" stroke-linecap="round"></path><path d="M 437.000,233.000 C 428.762,231.559 429.413,230.797 422.000,228.000" stroke-width="2.389" stroke="black" fill="none" stroke-linecap="round"></path><path d="M 422.000,228.000 C 418.696,225.957 419.262,226.559 418.000,223.000" stroke-width="3.368" stroke="black" fill="none" stroke-linecap="round"></path><path d="M 418.000,223.000 C 414.265,215.085 416.696,217.457 418.000,211.000" stroke-width="3.318" stroke="black" fill="none" stroke-linecap="round"></path><path d="M 418.000,211.000 C 432.023,194.768 430.265,197.585 450.000,188.000" stroke-width="1.987" stroke="black" fill="none" stroke-linecap="round"></path><path d="M 450.000,188.000 C 476.298,180.292 474.523,178.768 503.000,179.000" stroke-width="1.495" stroke="black" fill="none" stroke-linecap="round"></path><path d="M 503.000,179.000 C 539.130,176.259 538.298,177.292 574.000,182.000" stroke-width="1.183" stroke="black" fill="none" stroke-linecap="round"></path><path d="M 574.000,182.000 C 622.679,189.054 621.130,189.759 667.000,206.000" stroke-width="1.125" stroke="black" fill="none" stroke-linecap="round"></path><path d="M 667.000,206.000 C 688.216,220.468 690.679,215.054 710.000,234.000" stroke-width="1.173" stroke="black" fill="none" stroke-linecap="round"></path><path d="M 710.000,234.000 C 721.910,239.845 721.216,240.968 733.000,247.000" stroke-width="1.743" stroke="black" fill="none" stroke-linecap="round"></path><path d="M 733.000,247.000 C 752.635,260.311 752.910,259.845 772.000,274.000" stroke-width="1.503" stroke="black" fill="none" stroke-linecap="round"></path><path d="M 772.000,274.000 C 781.015,281.793 781.635,280.811 791.000,288.000" stroke-width="2.013" stroke="black" fill="none" stroke-linecap="round"></path><path d="M 791.000,288.000 C 800.348,291.928 799.515,293.293 809.000,297.000" stroke-width="2.325" stroke="black" fill="none" stroke-linecap="round"></path><path d="M 809.000,297.000 C 814.703,300.762 814.848,300.428 820.000,305.000" stroke-width="2.833" stroke="black" fill="none" stroke-linecap="round"></path></svg>