<svg xmlns="http://www.w3.org/2000/svg" xmlns:xlink="http://www.w3.org/1999/xlink" viewBox="0 0 453 236" width="453" height="236"><path d="M 131.500,150.000 C 126.021,147.454 126.000,147.500 120.500,145.000" stroke-width="4.718" stroke="black" fill="none" stroke-linecap="round"></path><path d="M 120.500,145.000 C 116.839,143.798 117.021,143.454 113.500,142.000" stroke-width="4.649" stroke="black" fill="none" stroke-linecap="round"></path><path d="M 113.500,142.000 C 110.735,139.493 110.339,140.298 107.500,138.000" stroke-width="4.643" stroke="black" fill="none" stroke-linecap="round"></path><path d="M 107.500,138.000 C 103.832,137.388 104.235,136.493 100.500,136.000" stroke-width="4.619" stroke="black" fill="none" stroke-linecap="round"></path><path d="M 100.500,136.000 C 95.267,134.395 97.832,134.888 95.500,133.000" stroke-width="4.924" stroke="black" fill="none" stroke-linecap="round"></path><path d="M 95.500,133.000 C 98.608,131.687 95.767,131.395 101.500,130.000" stroke-width="5.196" stroke="black" fill="none" stroke-linecap="round"></path><path d="M 101.500,130.000 C 104.330,127.691 104.608,128.187 107.500,126.000" stroke-width="4.256" stroke="black" fill="none" stroke-linecap="round"></path><path d="M 107.500,126.000 C 112.099,124.200 111.830,123.691 116.500,122.000" stroke-width="3.683" stroke="black" fill="none" stroke-linecap="round"></path><path d="M 116.500,122.000 C 121.951,118.907 122.099,119.200 127.500,116.000" stroke-width="3.296" stroke="black" fill="none" stroke-linecap="round"></path><path d="M 127.500,116.000 C 132.549,113.593 132.451,113.407 137.500,111.000" stroke-width="3.416" stroke="black" fill="none" stroke-linecap="round"></path><path d="M 137.500,111.000 C 143.181,108.292 143.049,108.093 148.500,105.000" stroke-width="3.229" stroke="black" fill="none" stroke-linecap="round"></path><path d="M 148.500,105.000 C 153.281,101.132 153.681,101.792 158.500,98.000" stroke-width="3.260" stroke="black" fill="none" stroke-linecap="round"></path><path d="M 158.500,98.000 C 163.561,95.615 163.281,95.132 168.500,93.000" stroke-width="3.296" stroke="black" fill="none" stroke-linecap="round"></path><path d="M 168.500,93.000 C 172.113,91.177 172.061,91.115 175.500,89.000" stroke-width="3.595" stroke="black" fill="none" stroke-linecap="round"></path><path d="M 175.500,89.000 C 182.500,82.967 179.113,86.677 182.500,84.000" stroke-width="4.161" stroke="black" fill="none" stroke-linecap="round"></path><path d="M 182.500,84.000 C 179.089,89.065 182.500,85.467 175.500,94.000" stroke-width="4.507" stroke="black" fill="none" stroke-linecap="round"></path><path d="M 175.500,94.000 C 170.925,99.945 171.089,100.065 166.500,106.000" stroke-width="3.324" stroke="black" fill="none" stroke-linecap="round"></path><path d="M 166.500,106.000 C 161.625,113.092 161.425,112.945 156.500,120.000" stroke-width="2.936" stroke="black" fill="none" stroke-linecap="round"></path><path d="M 156.500,120.000 C 149.920,128.440 150.125,128.592 143.500,137.000" stroke-width="2.544" stroke="black" fill="none" stroke-linecap="round"></path><path d="M 143.500,137.000 C 138.666,145.094 137.920,144.440 132.500,152.000" stroke-width="2.696" stroke="black" fill="none" stroke-linecap="round"></path><path d="M 132.500,152.000 C 125.519,158.521 126.166,159.094 118.500,165.000" stroke-width="2.602" stroke="black" fill="none" stroke-linecap="round"></path><path d="M 118.500,165.000 C 112.863,170.963 112.519,170.521 106.500,176.000" stroke-width="2.786" stroke="black" fill="none" stroke-linecap="round"></path><path d="M 106.500,176.000 C 100.696,180.338 100.863,180.463 94.500,184.000" stroke-width="2.961" stroke="black" fill="none" stroke-linecap="round"></path><path d="M 94.500,184.000 C 89.601,186.733 89.696,186.838 84.500,189.000" stroke-width="3.714" stroke="black" fill="none" stroke-linecap="round"></path><path d="M 84.500,189.000 C 80.500,190.500 80.601,190.733 76.500,192.000" stroke-width="3.681" stroke="black" fill="none" stroke-linecap="round"></path><path d="M 76.500,192.000 C 72.550,193.650 72.500,193.500 68.500,195.000" stroke-width="3.671" stroke="black" fill="none" stroke-linecap="round"></path><path d="M 68.500,195.000 C 65.041,196.183 65.050,196.150 61.500,197.000" stroke-width="3.854" stroke="black" fill="none" stroke-linecap="round"></path><path d="M 61.500,197.000 C 58.500,197.500 58.541,197.683 55.500,198.000" stroke-width="4.052" stroke="black" fill="none" stroke-linecap="round"></path><path d="M 55.500,198.000 C 52.510,198.570 52.500,198.500 49.500,199.000" stroke-width="4.068" stroke="black" fill="none" stroke-linecap="round"></path><path d="M 49.500,199.000 C 45.482,199.387 45.510,199.570 41.500,200.000" stroke-width="4.375" stroke="black" fill="none" stroke-linecap="round"></path><path d="M 41.500,200.000 C 36.722,201.887 38.982,200.387 36.500,201.000" stroke-width="4.698" stroke="black" fill="none" stroke-linecap="round"></path><path d="M 36.500,201.000 C 38.083,198.045 36.222,199.887 40.500,196.000" stroke-width="5.004" stroke="black" fill="none" stroke-linecap="round"></path><path d="M 40.500,196.000 C 44.938,192.903 44.583,192.545 49.500,190.000" stroke-width="3.858" stroke="black" fill="none" stroke-linecap="round"></path><path d="M 49.500,190.000 C 55.835,185.703 55.938,185.903 62.500,182.000" stroke-width="3.116" stroke="black" fill="none" stroke-linecap="round"></path><path d="M 62.500,182.000 C 69.604,178.694 69.335,178.203 76.500,175.000" stroke-width="2.920" stroke="black" fill="none" stroke-linecap="round"></path><path d="M 76.500,175.000 C 83.345,170.701 83.604,171.194 90.500,167.000" stroke-width="2.836" stroke="black" fill="none" stroke-linecap="round"></path><path d="M 90.500,167.000 C 98.000,163.500 97.845,163.201 105.500,160.000" stroke-width="2.786" stroke="black" fill="none" stroke-linecap="round"></path><path d="M 105.500,160.000 C 112.897,156.258 113.000,156.500 120.500,153.000" stroke-width="2.830" stroke="black" fill="none" stroke-linecap="round"></path><path d="M 120.500,153.000 C 126.979,150.445 126.897,150.258 133.500,148.000" stroke-width="2.952" stroke="black" fill="none" stroke-linecap="round"></path><path d="M 133.500,148.000 C 138.950,145.850 138.979,145.945 144.500,144.000" stroke-width="3.153" stroke="black" fill="none" stroke-linecap="round"></path><path d="M 144.500,144.000 C 149.518,142.557 149.450,142.350 154.500,141.000" stroke-width="3.378" stroke="black" fill="none" stroke-linecap="round"></path><path d="M 154.500,141.000 C 157.551,140.134 157.518,140.057 160.500,139.000" stroke-width="3.853" stroke="black" fill="none" stroke-linecap="round"></path><path d="M 160.500,139.000 C 167.744,136.732 164.051,137.634 167.500,136.000" stroke-width="4.329" stroke="black" fill="none" stroke-linecap="round"></path><path d="M 167.500,136.000 C 163.476,135.716 167.244,135.232 159.500,136.000" stroke-width="4.813" stroke="black" fill="none" stroke-linecap="round"></path><path d="M 159.500,136.000 C 156.459,136.317 156.476,136.216 153.500,137.000" stroke-width="4.370" stroke="black" fill="none" stroke-linecap="round"></path><path d="M 153.500,137.000 C 149.814,137.550 149.959,137.817 146.500,139.000" stroke-width="4.005" stroke="black" fill="none" stroke-linecap="round"></path><path d="M 146.500,139.000 C 141.808,141.200 141.814,141.050 137.500,144.000" stroke-width="4.198" stroke="black" fill="none" stroke-linecap="round"></path><path d="M 137.500,144.000 C 131.401,147.406 131.808,147.700 126.500,152.000" stroke-width="3.384" stroke="black" fill="none" stroke-linecap="round"></path><path d="M 126.500,152.000 C 122.423,155.310 123.401,154.906 121.500,159.000" stroke-width="4.104" stroke="black" fill="none" stroke-linecap="round"></path><path d="M 121.500,159.000 C 121.555,162.703 120.923,161.310 123.500,164.000" stroke-width="4.590" stroke="black" fill="none" stroke-linecap="round"></path><path d="M 123.500,164.000 C 126.982,164.749 126.055,165.703 130.500,165.000" stroke-width="4.140" stroke="black" fill="none" stroke-linecap="round"></path><path d="M 130.500,165.000 C 134.000,165.000 133.982,165.249 137.500,165.000" stroke-width="4.119" stroke="black" fill="none" stroke-linecap="round"></path><path d="M 137.500,165.000 C 143.500,165.000 143.500,165.000 149.500,165.000" stroke-width="3.507" stroke="black" fill="none" stroke-linecap="round"></path><path d="M 149.500,165.000 C 154.662,165.921 154.500,165.000 159.500,165.000" stroke-width="3.475" stroke="black" fill="none" stroke-linecap="round"></path><path d="M 159.500,165.000 C 165.130,163.302 165.162,163.921 170.500,161.000" stroke-width="3.373" stroke="black" fill="none" stroke-linecap="round"></path><path d="M 170.500,161.000 C 175.749,158.903 175.630,158.802 180.500,156.000" stroke-width="3.330" stroke="black" fill="none" stroke-linecap="round"></path><path d="M 180.500,156.000 C 185.014,153.486 184.749,153.403 188.500,150.000" stroke-width="3.475" stroke="black" fill="none" stroke-linecap="round"></path><path d="M 188.500,150.000 C 191.100,147.266 191.014,147.486 192.500,144.000" stroke-width="3.747" stroke="black" fill="none" stroke-linecap="round"></path><path d="M 192.500,144.000 C 195.973,138.701 194.100,140.266 194.500,136.000" stroke-width="4.245" stroke="black" fill="none" stroke-linecap="round"></path><path d="M 194.500,136.000 C 190.622,133.824 192.973,133.201 186.500,133.000" stroke-width="4.399" stroke="black" fill="none" stroke-linecap="round"></path><path d="M 186.500,133.000 C 182.931,132.510 183.122,132.324 179.500,133.000" stroke-width="3.988" stroke="black" fill="none" stroke-linecap="round"></path><path d="M 179.500,133.000 C 175.514,133.116 175.931,133.510 172.500,135.000" stroke-width="3.902" stroke="black" fill="none" stroke-linecap="round"></path><path d="M 172.500,135.000 C 167.274,138.418 167.514,138.116 163.500,143.000" stroke-width="4.116" stroke="black" fill="none" stroke-linecap="round"></path><path d="M 163.500,143.000 C 160.386,147.285 160.274,146.918 158.500,152.000" stroke-width="4.234" stroke="black" fill="none" stroke-linecap="round"></path><path d="M 158.500,152.000 C 156.113,156.381 157.386,154.785 157.500,158.000" stroke-width="4.610" stroke="black" fill="none" stroke-linecap="round"></path><path d="M 157.500,158.000 C 161.243,159.814 159.113,159.881 164.500,159.000" stroke-width="4.820" stroke="black" fill="none" stroke-linecap="round"></path><path d="M 164.500,159.000 C 169.126,156.707 169.243,157.814 173.500,154.000" stroke-width="3.675" stroke="black" fill="none" stroke-linecap="round"></path><path d="M 173.500,154.000 C 179.618,150.167 179.626,150.207 185.500,146.000" stroke-width="3.270" stroke="black" fill="none" stroke-linecap="round"></path><path d="M 185.500,146.000 C 191.500,141.500 191.618,141.667 197.500,137.000" stroke-width="3.004" stroke="black" fill="none" stroke-linecap="round"></path><path d="M 197.500,137.000 C 205.594,131.121 205.500,131.000 213.500,125.000" stroke-width="2.758" stroke="black" fill="none" stroke-linecap="round"></path><path d="M 213.500,125.000 C 221.102,119.123 221.094,119.121 228.500,113.000" stroke-width="2.675" stroke="black" fill="none" stroke-linecap="round"></path><path d="M 228.500,113.000 C 235.596,107.108 235.602,107.123 242.500,101.000" stroke-width="2.691" stroke="black" fill="none" stroke-linecap="round"></path><path d="M 242.500,101.000 C 248.750,95.750 248.596,95.608 254.500,90.000" stroke-width="2.758" stroke="black" fill="none" stroke-linecap="round"></path><path d="M 254.500,90.000 C 260.818,83.765 260.750,83.750 266.500,77.000" stroke-width="2.757" stroke="black" fill="none" stroke-linecap="round"></path><path d="M 266.500,77.000 C 270.785,70.824 271.318,71.265 275.500,65.000" stroke-width="2.915" stroke="black" fill="none" stroke-linecap="round"></path><path d="M 275.500,65.000 C 279.709,60.666 279.285,60.324 283.500,56.000" stroke-width="3.169" stroke="black" fill="none" stroke-linecap="round"></path><path d="M 283.500,56.000 C 286.116,52.576 286.209,52.666 288.500,49.000" stroke-width="3.496" stroke="black" fill="none" stroke-linecap="round"></path><path d="M 288.500,49.000 C 293.063,43.740 290.116,46.576 291.500,44.000" stroke-width="3.912" stroke="black" fill="none" stroke-linecap="round"></path><path d="M 291.500,44.000 C 283.167,46.269 287.063,44.740 276.500,51.000" stroke-width="4.313" stroke="black" fill="none" stroke-linecap="round"></path><path d="M 276.500,51.000 C 268.375,58.371 267.667,57.269 260.500,66.000" stroke-width="2.743" stroke="black" fill="none" stroke-linecap="round"></path><path d="M 260.500,66.000 C 252.127,73.658 252.375,73.871 244.500,82.000" stroke-width="2.440" stroke="black" fill="none" stroke-linecap="round"></path><path d="M 244.500,82.000 C 236.377,91.399 236.127,91.158 228.500,101.000" stroke-width="2.330" stroke="black" fill="none" stroke-linecap="round"></path><path d="M 228.500,101.000 C 220.224,110.793 220.377,110.899 212.500,121.000" stroke-width="2.210" stroke="black" fill="none" stroke-linecap="round"></path><path d="M 212.500,121.000 C 206.268,129.347 206.224,129.293 200.500,138.000" stroke-width="2.424" stroke="black" fill="none" stroke-linecap="round"></path><path d="M 200.500,138.000 C 196.468,144.481 196.268,144.347 192.500,151.000" stroke-width="2.725" stroke="black" fill="none" stroke-linecap="round"></path><path d="M 192.500,151.000 C 189.357,155.921 189.468,155.981 186.500,161.000" stroke-width="3.075" stroke="black" fill="none" stroke-linecap="round"></path><path d="M 186.500,161.000 C 184.636,163.875 184.857,163.921 183.500,167.000" stroke-width="3.688" stroke="black" fill="none" stroke-linecap="round"></path><path d="M 183.500,167.000 C 181.077,172.593 182.636,169.375 182.500,172.000" stroke-width="4.444" stroke="black" fill="none" stroke-linecap="round"></path><path d="M 182.500,172.000 C 189.325,167.370 187.077,170.093 195.500,162.000" stroke-width="3.996" stroke="black" fill="none" stroke-linecap="round"></path><path d="M 195.500,162.000 C 200.175,156.630 200.825,157.370 205.500,152.000" stroke-width="3.300" stroke="black" fill="none" stroke-linecap="round"></path><path d="M 205.500,152.000 C 211.732,146.602 211.675,146.630 218.500,142.000" stroke-width="3.042" stroke="black" fill="none" stroke-linecap="round"></path><path d="M 218.500,142.000 C 224.356,138.218 224.232,138.102 230.500,135.000" stroke-width="3.079" stroke="black" fill="none" stroke-linecap="round"></path><path d="M 230.500,135.000 C 234.974,132.940 234.856,132.718 239.500,131.000" stroke-width="3.449" stroke="black" fill="none" stroke-linecap="round"></path><path d="M 239.500,131.000 C 244.358,127.440 241.974,129.940 244.500,129.000" stroke-width="3.986" stroke="black" fill="none" stroke-linecap="round"></path><path d="M 244.500,129.000 C 243.679,136.132 244.858,132.940 240.500,142.000" stroke-width="4.294" stroke="black" fill="none" stroke-linecap="round"></path><path d="M 240.500,142.000 C 235.755,147.327 237.179,148.132 231.500,153.000" stroke-width="3.280" stroke="black" fill="none" stroke-linecap="round"></path><path d="M 231.500,153.000 C 226.844,157.724 229.755,155.327 228.500,158.000" stroke-width="3.867" stroke="black" fill="none" stroke-linecap="round"></path><path d="M 228.500,158.000 C 236.761,158.110 232.844,158.724 243.500,155.000" stroke-width="4.398" stroke="black" fill="none" stroke-linecap="round"></path><path d="M 243.500,155.000 C 248.774,150.199 249.761,152.110 254.500,146.000" stroke-width="3.370" stroke="black" fill="none" stroke-linecap="round"></path><path d="M 254.500,146.000 C 263.981,139.473 263.774,139.199 273.500,133.000" stroke-width="2.548" stroke="black" fill="none" stroke-linecap="round"></path><path d="M 273.500,133.000 C 280.341,128.159 276.481,130.973 279.500,129.000" stroke-width="3.723" stroke="black" fill="none" stroke-linecap="round"></path><path d="M 279.500,129.000 C 273.935,133.423 277.841,130.659 268.500,138.000" stroke-width="3.913" stroke="black" fill="none" stroke-linecap="round"></path><path d="M 268.500,138.000 C 264.075,141.127 264.435,141.423 260.500,145.000" stroke-width="3.524" stroke="black" fill="none" stroke-linecap="round"></path><path d="M 260.500,145.000 C 255.552,149.578 258.075,147.627 256.500,151.000" stroke-width="3.811" stroke="black" fill="none" stroke-linecap="round"></path><path d="M 256.500,151.000 C 260.746,152.043 257.552,152.578 264.500,151.000" stroke-width="4.587" stroke="black" fill="none" stroke-linecap="round"></path><path d="M 264.500,151.000 C 269.561,148.615 269.746,149.543 274.500,146.000" stroke-width="3.743" stroke="black" fill="none" stroke-linecap="round"></path><path d="M 274.500,146.000 C 277.903,143.799 278.061,144.115 281.500,142.000" stroke-width="3.741" stroke="black" fill="none" stroke-linecap="round"></path><path d="M 281.500,142.000 C 287.221,138.679 283.903,140.799 286.500,140.000" stroke-width="4.097" stroke="black" fill="none" stroke-linecap="round"></path><path d="M 286.500,140.000 C 281.041,146.535 284.221,144.179 275.500,153.000" stroke-width="4.370" stroke="black" fill="none" stroke-linecap="round"></path><path d="M 275.500,153.000 C 271.777,156.829 272.041,157.035 268.500,161.000" stroke-width="3.751" stroke="black" fill="none" stroke-linecap="round"></path><path d="M 268.500,161.000 C 265.817,163.708 266.277,163.829 264.500,167.000" stroke-width="3.839" stroke="black" fill="none" stroke-linecap="round"></path><path d="M 264.500,167.000 C 260.386,175.616 262.817,171.208 262.500,176.000" stroke-width="4.451" stroke="black" fill="none" stroke-linecap="round"></path><path d="M 262.500,176.000 C 269.684,173.420 265.886,176.616 275.500,169.000" stroke-width="4.375" stroke="black" fill="none" stroke-linecap="round"></path><path d="M 275.500,169.000 C 281.611,163.107 282.184,163.920 287.500,157.000" stroke-width="2.996" stroke="black" fill="none" stroke-linecap="round"></path><path d="M 287.500,157.000 C 295.248,149.219 295.111,149.107 302.500,141.000" stroke-width="2.531" stroke="black" fill="none" stroke-linecap="round"></path><path d="M 302.500,141.000 C 309.856,131.876 310.248,132.219 317.500,123.000" stroke-width="2.352" stroke="black" fill="none" stroke-linecap="round"></path><path d="M 317.500,123.000 C 325.624,114.107 325.356,113.876 333.500,105.000" stroke-width="2.276" stroke="black" fill="none" stroke-linecap="round"></path><path d="M 333.500,105.000 C 341.418,95.429 341.624,95.607 349.500,86.000" stroke-width="2.387" stroke="black" fill="none" stroke-linecap="round"></path><path d="M 349.500,86.000 C 356.792,78.233 356.418,77.929 363.500,70.000" stroke-width="2.465" stroke="black" fill="none" stroke-linecap="round"></path><path d="M 363.500,70.000 C 367.518,64.513 367.792,64.733 371.500,59.000" stroke-width="2.841" stroke="black" fill="none" stroke-linecap="round"></path><path d="M 371.500,59.000 C 374.347,55.690 374.018,55.513 376.500,52.000" stroke-width="3.413" stroke="black" fill="none" stroke-linecap="round"></path><path d="M 376.500,52.000 C 379.707,48.006 377.847,49.690 378.500,47.000" stroke-width="4.309" stroke="black" fill="none" stroke-linecap="round"></path><path d="M 378.500,47.000 C 374.040,45.442 376.707,45.506 370.500,47.000" stroke-width="3.902" stroke="black" fill="none" stroke-linecap="round"></path><path d="M 370.500,47.000 C 361.421,51.759 361.540,50.942 353.500,58.000" stroke-width="2.787" stroke="black" fill="none" stroke-linecap="round"></path><path d="M 353.500,58.000 C 345.126,65.136 344.921,64.759 337.500,73.000" stroke-width="2.483" stroke="black" fill="none" stroke-linecap="round"></path><path d="M 337.500,73.000 C 329.076,81.656 329.126,81.636 321.500,91.000" stroke-width="2.531" stroke="black" fill="none" stroke-linecap="round"></path><path d="M 321.500,91.000 C 314.440,100.457 314.076,100.156 307.500,110.000" stroke-width="2.344" stroke="black" fill="none" stroke-linecap="round"></path><path d="M 307.500,110.000 C 301.666,116.561 302.440,116.957 297.500,124.000" stroke-width="2.643" stroke="black" fill="none" stroke-linecap="round"></path><path d="M 297.500,124.000 C 295.433,129.477 294.666,129.061 293.500,135.000" stroke-width="3.040" stroke="black" fill="none" stroke-linecap="round"></path><path d="M 293.500,135.000 C 291.314,139.389 291.933,139.477 290.500,144.000" stroke-width="3.368" stroke="black" fill="none" stroke-linecap="round"></path><path d="M 290.500,144.000 C 290.008,148.061 289.814,147.889 290.500,152.000" stroke-width="3.675" stroke="black" fill="none" stroke-linecap="round"></path><path d="M 290.500,152.000 C 289.962,157.970 291.008,156.061 292.500,160.000" stroke-width="4.199" stroke="black" fill="none" stroke-linecap="round"></path><path d="M 292.500,160.000 C 296.611,160.741 294.962,161.970 300.500,160.000" stroke-width="3.930" stroke="black" fill="none" stroke-linecap="round"></path><path d="M 300.500,160.000 C 307.277,158.667 307.111,158.741 313.500,156.000" stroke-width="3.262" stroke="black" fill="none" stroke-linecap="round"></path><path d="M 313.500,156.000 C 320.764,151.468 321.277,152.667 328.500,148.000" stroke-width="2.934" stroke="black" fill="none" stroke-linecap="round"></path><path d="M 328.500,148.000 C 335.340,144.790 335.264,144.968 342.500,143.000" stroke-width="2.921" stroke="black" fill="none" stroke-linecap="round"></path><path d="M 342.500,143.000 C 347.488,142.264 347.340,141.790 352.500,142.000" stroke-width="3.413" stroke="black" fill="none" stroke-linecap="round"></path><path d="M 352.500,142.000 C 357.064,141.478 356.988,141.764 361.500,142.000" stroke-width="3.542" stroke="black" fill="none" stroke-linecap="round"></path><path d="M 361.500,142.000 C 368.397,141.352 365.564,142.478 369.500,144.000" stroke-width="4.162" stroke="black" fill="none" stroke-linecap="round"></path><path d="M 369.500,144.000 C 370.001,150.499 370.897,147.352 366.500,154.000" stroke-width="3.601" stroke="black" fill="none" stroke-linecap="round"></path><path d="M 366.500,154.000 C 356.952,161.299 358.501,161.999 346.500,167.000" stroke-width="2.543" stroke="black" fill="none" stroke-linecap="round"></path><path d="M 346.500,167.000 C 329.613,177.088 329.452,176.299 311.500,184.000" stroke-width="1.897" stroke="black" fill="none" stroke-linecap="round"></path><path d="M 311.500,184.000 C 291.294,191.297 291.613,191.588 270.500,196.000" stroke-width="1.626" stroke="black" fill="none" stroke-linecap="round"></path><path d="M 270.500,196.000 C 249.188,201.676 249.294,200.797 227.500,203.000" stroke-width="1.593" stroke="black" fill="none" stroke-linecap="round"></path><path d="M 227.500,203.000 C 183.369,205.438 183.688,205.676 139.500,204.000" stroke-width="1.551" stroke="black" fill="none" stroke-linecap="round"></path><path d="M 139.500,204.000 C 122.331,202.306 122.369,203.438 105.500,199.000" stroke-width="1.709" stroke="black" fill="none" stroke-linecap="round"></path><path d="M 105.500,199.000 C 93.500,198.000 94.331,196.806 83.500,193.000" stroke-width="2.095" stroke="black" fill="none" stroke-linecap="round"></path><path d="M 83.500,193.000 C 70.908,187.589 73.500,188.000 65.500,179.000" stroke-width="2.848" stroke="black" fill="none" stroke-linecap="round"></path><path d="M 65.500,179.000 C 63.935,171.722 62.408,174.089 66.500,166.000" stroke-width="3.075" stroke="black" fill="none" stroke-linecap="round"></path><path d="M 66.500,166.000 C 71.686,157.254 70.435,157.222 78.500,150.000" stroke-width="2.649" stroke="black" fill="none" stroke-linecap="round"></path><path d="M 78.500,150.000 C 87.086,140.226 87.186,140.754 97.500,133.000" stroke-width="2.357" stroke="black" fill="none" stroke-linecap="round"></path><path d="M 97.500,133.000 C 111.789,122.903 111.586,123.226 127.500,116.000" stroke-width="2.040" stroke="black" fill="none" stroke-linecap="round"></path><path d="M 127.500,116.000 C 145.322,109.404 144.789,108.403 163.500,104.000" stroke-width="1.821" stroke="black" fill="none" stroke-linecap="round"></path><path d="M 163.500,104.000 C 182.201,97.216 182.322,98.404 201.500,94.000" stroke-width="1.734" stroke="black" fill="none" stroke-linecap="round"></path><path d="M 201.500,94.000 C 221.474,91.812 221.201,90.716 241.500,91.000" stroke-width="1.641" stroke="black" fill="none" stroke-linecap="round"></path><path d="M 241.500,91.000 C 258.500,91.000 258.474,90.312 275.500,91.000" stroke-width="1.798" stroke="black" fill="none" stroke-linecap="round"></path><path d="M 275.500,91.000 C 287.108,90.051 287.000,91.000 298.500,91.000" stroke-width="2.127" stroke="black" fill="none" stroke-linecap="round"></path><path d="M 298.500,91.000 C 310.401,90.043 305.108,91.551 311.500,94.000" stroke-width="2.754" stroke="black" fill="none" stroke-linecap="round"></path><path d="M 311.500,94.000 C 310.028,104.068 312.901,99.043 303.500,109.000" stroke-width="3.361" stroke="black" fill="none" stroke-linecap="round"></path><path d="M 303.500,109.000 C 285.232,118.981 287.528,121.068 266.500,128.000" stroke-width="1.930" stroke="black" fill="none" stroke-linecap="round"></path><path d="M 266.500,128.000 C 244.694,138.451 244.732,138.481 222.500,148.000" stroke-width="1.525" stroke="black" fill="none" stroke-linecap="round"></path><path d="M 222.500,148.000 C 201.454,156.389 201.694,156.951 180.500,165.000" stroke-width="1.532" stroke="black" fill="none" stroke-linecap="round"></path><path d="M 180.500,165.000 C 165.157,171.911 164.954,171.389 149.500,178.000" stroke-width="1.809" stroke="black" fill="none" stroke-linecap="round"></path><path d="M 149.500,178.000 C 138.187,182.754 138.157,182.411 126.500,186.000" stroke-width="2.134" stroke="black" fill="none" stroke-linecap="round"></path></svg>