<svg xmlns="http://www.w3.org/2000/svg" xmlns:xlink="http://www.w3.org/1999/xlink" viewBox="0 0 492 236" width="492" height="236"><path d="M 95.000,103.000 C 91.494,102.538 91.500,102.500 88.000,102.000" stroke-width="5.456" stroke="black" fill="none" stroke-linecap="round"></path><path d="M 88.000,102.000 C 84.917,101.796 84.994,101.538 82.000,101.000" stroke-width="5.140" stroke="black" fill="none" stroke-linecap="round"></path><path d="M 82.000,101.000 C 79.401,100.200 79.417,100.296 77.000,99.000" stroke-width="4.989" stroke="black" fill="none" stroke-linecap="round"></path><path d="M 77.000,99.000 C 72.500,98.000 74.401,97.700 72.000,96.000" stroke-width="5.122" stroke="black" fill="none" stroke-linecap="round"></path><path d="M 72.000,96.000 C 73.063,93.131 71.500,94.000 75.000,91.000" stroke-width="5.344" stroke="black" fill="none" stroke-linecap="round"></path><path d="M 75.000,91.000 C 78.481,87.978 78.063,87.631 82.000,85.000" stroke-width="4.666" stroke="black" fill="none" stroke-linecap="round"></path><path d="M 82.000,85.000 C 84.879,82.341 84.981,82.478 88.000,80.000" stroke-width="4.066" stroke="black" fill="none" stroke-linecap="round"></path><path d="M 88.000,80.000 C 93.217,76.758 92.879,76.341 98.000,73.000" stroke-width="4.117" stroke="black" fill="none" stroke-linecap="round"></path><path d="M 98.000,73.000 C 99.889,70.876 100.217,71.258 102.000,69.000" stroke-width="4.189" stroke="black" fill="none" stroke-linecap="round"></path><path d="M 102.000,69.000 C 104.611,67.124 104.389,66.876 107.000,65.000" stroke-width="4.161" stroke="black" fill="none" stroke-linecap="round"></path><path d="M 107.000,65.000 C 108.889,62.876 109.111,63.124 111.000,61.000" stroke-width="4.244" stroke="black" fill="none" stroke-linecap="round"></path><path d="M 111.000,61.000 C 113.643,59.160 113.389,58.876 116.000,57.000" stroke-width="4.177" stroke="black" fill="none" stroke-linecap="round"></path><path d="M 116.000,57.000 C 119.500,53.500 119.643,53.660 123.000,50.000" stroke-width="4.301" stroke="black" fill="none" stroke-linecap="round"></path><path d="M 123.000,50.000 C 126.000,47.000 126.000,47.000 129.000,44.000" stroke-width="4.421" stroke="black" fill="none" stroke-linecap="round"></path><path d="M 129.000,44.000 C 133.152,38.787 131.000,42.000 133.000,40.000" stroke-width="4.852" stroke="black" fill="none" stroke-linecap="round"></path><path d="M 133.000,40.000 C 131.002,46.269 132.652,42.787 128.000,52.000" stroke-width="4.849" stroke="black" fill="none" stroke-linecap="round"></path><path d="M 128.000,52.000 C 125.142,56.601 125.502,56.769 122.000,61.000" stroke-width="3.766" stroke="black" fill="none" stroke-linecap="round"></path><path d="M 122.000,61.000 C 117.585,67.066 117.642,67.101 113.000,73.000" stroke-width="3.186" stroke="black" fill="none" stroke-linecap="round"></path><path d="M 113.000,73.000 C 108.968,77.974 109.085,78.066 105.000,83.000" stroke-width="3.142" stroke="black" fill="none" stroke-linecap="round"></path><path d="M 105.000,83.000 C 101.623,87.601 101.468,87.474 98.000,92.000" stroke-width="3.479" stroke="black" fill="none" stroke-linecap="round"></path><path d="M 98.000,92.000 C 94.747,96.253 94.623,96.101 91.000,100.000" stroke-width="3.466" stroke="black" fill="none" stroke-linecap="round"></path><path d="M 91.000,100.000 C 87.876,102.364 88.247,102.753 85.000,105.000" stroke-width="3.729" stroke="black" fill="none" stroke-linecap="round"></path><path d="M 85.000,105.000 C 82.228,108.269 81.876,107.864 79.000,111.000" stroke-width="3.745" stroke="black" fill="none" stroke-linecap="round"></path><path d="M 79.000,111.000 C 75.379,113.345 75.728,113.769 72.000,116.000" stroke-width="3.738" stroke="black" fill="none" stroke-linecap="round"></path><path d="M 72.000,116.000 C 68.734,119.333 68.379,118.845 65.000,122.000" stroke-width="3.674" stroke="black" fill="none" stroke-linecap="round"></path><path d="M 65.000,122.000 C 61.548,124.090 61.734,124.333 58.000,126.000" stroke-width="3.772" stroke="black" fill="none" stroke-linecap="round"></path><path d="M 58.000,126.000 C 54.892,127.313 55.048,127.590 52.000,129.000" stroke-width="3.951" stroke="black" fill="none" stroke-linecap="round"></path><path d="M 52.000,129.000 C 49.255,131.644 48.892,130.813 46.000,133.000" stroke-width="3.899" stroke="black" fill="none" stroke-linecap="round"></path><path d="M 46.000,133.000 C 42.992,133.456 43.255,134.144 40.000,134.000" stroke-width="4.067" stroke="black" fill="none" stroke-linecap="round"></path><path d="M 40.000,134.000 C 37.500,134.500 37.492,134.456 35.000,135.000" stroke-width="4.246" stroke="black" fill="none" stroke-linecap="round"></path><path d="M 35.000,135.000 C 32.529,135.789 32.500,135.500 30.000,136.000" stroke-width="4.260" stroke="black" fill="none" stroke-linecap="round"></path><path d="M 30.000,136.000 C 26.500,136.000 26.529,136.289 23.000,136.000" stroke-width="4.550" stroke="black" fill="none" stroke-linecap="round"></path><path d="M 23.000,136.000 C 18.738,137.490 20.000,136.000 17.000,136.000" stroke-width="4.864" stroke="black" fill="none" stroke-linecap="round"></path><path d="M 17.000,136.000 C 15.735,132.917 15.238,134.490 16.000,130.000" stroke-width="4.767" stroke="black" fill="none" stroke-linecap="round"></path><path d="M 16.000,130.000 C 16.415,127.114 16.235,127.417 18.000,125.000" stroke-width="4.409" stroke="black" fill="none" stroke-linecap="round"></path><path d="M 18.000,125.000 C 21.269,121.234 20.915,121.114 25.000,118.000" stroke-width="3.711" stroke="black" fill="none" stroke-linecap="round"></path><path d="M 25.000,118.000 C 28.751,114.597 28.769,114.734 33.000,112.000" stroke-width="3.469" stroke="black" fill="none" stroke-linecap="round"></path><path d="M 33.000,112.000 C 37.907,109.292 37.751,109.097 43.000,107.000" stroke-width="3.357" stroke="black" fill="none" stroke-linecap="round"></path><path d="M 43.000,107.000 C 47.882,104.616 47.907,104.792 53.000,103.000" stroke-width="3.417" stroke="black" fill="none" stroke-linecap="round"></path><path d="M 53.000,103.000 C 57.460,101.757 57.382,101.616 62.000,101.000" stroke-width="3.522" stroke="black" fill="none" stroke-linecap="round"></path><path d="M 62.000,101.000 C 66.508,100.562 66.460,100.257 71.000,100.000" stroke-width="3.624" stroke="black" fill="none" stroke-linecap="round"></path><path d="M 71.000,100.000 C 74.480,99.220 74.508,99.562 78.000,99.000" stroke-width="3.861" stroke="black" fill="none" stroke-linecap="round"></path><path d="M 78.000,99.000 C 82.500,99.000 82.480,98.720 87.000,99.000" stroke-width="3.675" stroke="black" fill="none" stroke-linecap="round"></path><path d="M 87.000,99.000 C 91.000,99.000 91.000,99.000 95.000,99.000" stroke-width="3.779" stroke="black" fill="none" stroke-linecap="round"></path><path d="M 95.000,99.000 C 98.514,99.232 98.500,99.000 102.000,99.000" stroke-width="3.920" stroke="black" fill="none" stroke-linecap="round"></path><path d="M 102.000,99.000 C 106.059,98.788 106.014,98.732 110.000,98.000" stroke-width="3.895" stroke="black" fill="none" stroke-linecap="round"></path><path d="M 110.000,98.000 C 113.522,97.070 113.559,97.288 117.000,96.000" stroke-width="3.875" stroke="black" fill="none" stroke-linecap="round"></path><path d="M 117.000,96.000 C 120.029,95.080 120.022,95.070 123.000,94.000" stroke-width="4.030" stroke="black" fill="none" stroke-linecap="round"></path><path d="M 123.000,94.000 C 125.500,93.000 125.529,93.080 128.000,92.000" stroke-width="4.153" stroke="black" fill="none" stroke-linecap="round"></path><path d="M 128.000,92.000 C 133.236,90.473 130.500,91.000 133.000,90.000" stroke-width="4.621" stroke="black" fill="none" stroke-linecap="round"></path><path d="M 133.000,90.000 C 129.133,88.507 132.736,89.473 127.000,90.000" stroke-width="5.238" stroke="black" fill="none" stroke-linecap="round"></path><path d="M 127.000,90.000 C 124.425,93.295 124.133,92.007 123.000,97.000" stroke-width="5.090" stroke="black" fill="none" stroke-linecap="round"></path><path d="M 123.000,97.000 C 120.495,101.495 121.925,99.795 122.000,103.000" stroke-width="5.021" stroke="black" fill="none" stroke-linecap="round"></path><path d="M 122.000,103.000 C 125.983,103.777 123.995,104.995 130.000,104.000" stroke-width="5.021" stroke="black" fill="none" stroke-linecap="round"></path><path d="M 130.000,104.000 C 135.000,104.000 134.983,104.277 140.000,104.000" stroke-width="4.483" stroke="black" fill="none" stroke-linecap="round"></path><path d="M 140.000,104.000 C 145.252,105.606 144.500,104.000 149.000,104.000" stroke-width="4.438" stroke="black" fill="none" stroke-linecap="round"></path><path d="M 149.000,104.000 C 152.586,101.393 152.252,102.606 154.000,98.000" stroke-width="4.720" stroke="black" fill="none" stroke-linecap="round"></path><path d="M 154.000,98.000 C 155.460,93.947 155.086,95.393 154.000,92.000" stroke-width="4.942" stroke="black" fill="none" stroke-linecap="round"></path><path d="M 154.000,92.000 C 151.085,90.475 152.460,89.947 148.000,90.000" stroke-width="4.801" stroke="black" fill="none" stroke-linecap="round"></path><path d="M 148.000,90.000 C 144.500,90.000 144.585,89.475 141.000,90.000" stroke-width="4.688" stroke="black" fill="none" stroke-linecap="round"></path><path d="M 141.000,90.000 C 136.364,88.424 137.500,90.000 134.000,90.000" stroke-width="4.881" stroke="black" fill="none" stroke-linecap="round"></path><path d="M 134.000,90.000 C 132.277,92.955 131.864,91.424 132.000,96.000" stroke-width="5.188" stroke="black" fill="none" stroke-linecap="round"></path><path d="M 132.000,96.000 C 131.489,99.273 131.777,98.455 133.000,101.000" stroke-width="4.963" stroke="black" fill="none" stroke-linecap="round"></path><path d="M 133.000,101.000 C 135.833,103.208 134.989,103.273 139.000,104.000" stroke-width="5.227" stroke="black" fill="none" stroke-linecap="round"></path><path d="M 139.000,104.000 C 142.000,104.000 141.833,104.708 145.000,104.000" stroke-width="5.314" stroke="black" fill="none" stroke-linecap="round"></path><path d="M 145.000,104.000 C 148.227,104.853 148.000,104.000 151.000,104.000" stroke-width="5.433" stroke="black" fill="none" stroke-linecap="round"></path><path d="M 151.000,104.000 C 154.500,102.000 154.727,102.853 158.000,100.000" stroke-width="5.155" stroke="black" fill="none" stroke-linecap="round"></path><path d="M 158.000,100.000 C 161.359,97.699 161.500,98.000 165.000,96.000" stroke-width="4.694" stroke="black" fill="none" stroke-linecap="round"></path><path d="M 165.000,96.000 C 168.978,94.437 168.859,94.199 173.000,93.000" stroke-width="4.553" stroke="black" fill="none" stroke-linecap="round"></path><path d="M 173.000,93.000 C 175.921,91.513 175.978,91.937 179.000,91.000" stroke-width="4.669" stroke="black" fill="none" stroke-linecap="round"></path><path d="M 179.000,91.000 C 183.500,89.500 181.921,90.513 185.000,91.000" stroke-width="4.918" stroke="black" fill="none" stroke-linecap="round"></path><path d="M 185.000,91.000 C 186.303,94.610 186.500,92.500 185.000,97.000" stroke-width="5.131" stroke="black" fill="none" stroke-linecap="round"></path><path d="M 185.000,97.000 C 181.576,99.137 183.303,100.110 179.000,102.000" stroke-width="4.728" stroke="black" fill="none" stroke-linecap="round"></path><path d="M 179.000,102.000 C 175.161,106.790 177.076,104.137 176.000,107.000" stroke-width="4.941" stroke="black" fill="none" stroke-linecap="round"></path><path d="M 176.000,107.000 C 179.487,104.976 177.161,107.290 183.000,103.000" stroke-width="5.163" stroke="black" fill="none" stroke-linecap="round"></path><path d="M 183.000,103.000 C 187.642,100.724 187.487,100.476 192.000,98.000" stroke-width="4.493" stroke="black" fill="none" stroke-linecap="round"></path><path d="M 192.000,98.000 C 195.310,95.153 195.642,95.724 199.000,93.000" stroke-width="4.471" stroke="black" fill="none" stroke-linecap="round"></path><path d="M 199.000,93.000 C 202.250,90.250 201.310,91.653 204.000,91.000" stroke-width="4.879" stroke="black" fill="none" stroke-linecap="round"></path><path d="M 204.000,91.000 C 205.000,93.500 205.750,91.750 206.000,96.000" stroke-width="5.273" stroke="black" fill="none" stroke-linecap="round"></path><path d="M 206.000,96.000 C 206.537,98.805 207.000,98.500 208.000,101.000" stroke-width="5.287" stroke="black" fill="none" stroke-linecap="round"></path><path d="M 208.000,101.000 C 209.639,104.528 209.537,103.305 212.000,105.000" stroke-width="5.449" stroke="black" fill="none" stroke-linecap="round"></path><path d="M 212.000,105.000 C 215.315,104.566 214.639,105.528 218.000,103.000" stroke-width="5.113" stroke="black" fill="none" stroke-linecap="round"></path><path d="M 218.000,103.000 C 221.100,100.610 221.315,101.066 224.000,98.000" stroke-width="4.946" stroke="black" fill="none" stroke-linecap="round"></path><path d="M 224.000,98.000 C 225.784,95.723 226.100,96.110 228.000,94.000" stroke-width="4.886" stroke="black" fill="none" stroke-linecap="round"></path><path d="M 228.000,94.000 C 230.442,92.395 230.284,92.223 233.000,91.000" stroke-width="4.827" stroke="black" fill="none" stroke-linecap="round"></path><path d="M 233.000,91.000 C 237.164,87.213 235.942,89.395 239.000,88.000" stroke-width="4.927" stroke="black" fill="none" stroke-linecap="round"></path><path d="M 239.000,88.000 C 240.265,91.083 240.664,88.713 240.000,94.000" stroke-width="5.262" stroke="black" fill="none" stroke-linecap="round"></path><path d="M 240.000,94.000 C 237.145,98.786 239.765,96.583 238.000,99.000" stroke-width="5.132" stroke="black" fill="none" stroke-linecap="round"></path><path d="M 238.000,99.000 C 240.875,96.785 239.145,99.286 244.000,95.000" stroke-width="5.249" stroke="black" fill="none" stroke-linecap="round"></path><path d="M 244.000,95.000 C 247.865,92.654 247.875,92.785 252.000,91.000" stroke-width="4.622" stroke="black" fill="none" stroke-linecap="round"></path><path d="M 252.000,91.000 C 255.459,89.817 255.365,89.654 259.000,89.000" stroke-width="4.630" stroke="black" fill="none" stroke-linecap="round"></path><path d="M 259.000,89.000 C 262.702,86.979 261.959,88.317 265.000,88.000" stroke-width="4.680" stroke="black" fill="none" stroke-linecap="round"></path><path d="M 265.000,88.000 C 267.318,90.273 267.202,88.979 268.000,93.000" stroke-width="5.174" stroke="black" fill="none" stroke-linecap="round"></path><path d="M 268.000,93.000 C 266.894,96.958 268.818,96.273 268.000,100.000" stroke-width="5.190" stroke="black" fill="none" stroke-linecap="round"></path><path d="M 268.000,100.000 C 269.574,103.029 268.894,102.458 272.000,104.000" stroke-width="5.408" stroke="black" fill="none" stroke-linecap="round"></path><path d="M 272.000,104.000 C 275.426,105.029 274.574,105.029 278.000,104.000" stroke-width="5.496" stroke="black" fill="none" stroke-linecap="round"></path><path d="M 278.000,104.000 C 280.000,102.000 280.426,103.029 282.000,100.000" stroke-width="5.486" stroke="black" fill="none" stroke-linecap="round"></path><path d="M 282.000,100.000 C 284.500,97.500 284.500,97.500 287.000,95.000" stroke-width="5.206" stroke="black" fill="none" stroke-linecap="round"></path><path d="M 287.000,95.000 C 289.500,92.500 289.500,92.500 292.000,90.000" stroke-width="5.008" stroke="black" fill="none" stroke-linecap="round"></path><path d="M 292.000,90.000 C 293.889,87.876 294.000,88.000 296.000,86.000" stroke-width="4.904" stroke="black" fill="none" stroke-linecap="round"></path><path d="M 296.000,86.000 C 298.383,83.832 298.389,83.876 301.000,82.000" stroke-width="4.954" stroke="black" fill="none" stroke-linecap="round"></path><path d="M 301.000,82.000 C 304.864,78.091 303.383,80.332 306.000,79.000" stroke-width="5.098" stroke="black" fill="none" stroke-linecap="round"></path><path d="M 306.000,79.000 C 306.289,82.529 307.364,80.091 306.000,86.000" stroke-width="5.317" stroke="black" fill="none" stroke-linecap="round"></path><path d="M 306.000,86.000 C 305.230,88.473 305.789,88.529 305.000,91.000" stroke-width="5.012" stroke="black" fill="none" stroke-linecap="round"></path><path d="M 305.000,91.000 C 303.350,95.144 304.730,93.973 305.000,97.000" stroke-width="5.004" stroke="black" fill="none" stroke-linecap="round"></path><path d="M 305.000,97.000 C 309.198,100.475 307.350,99.644 313.000,100.000" stroke-width="5.225" stroke="black" fill="none" stroke-linecap="round"></path><path d="M 313.000,100.000 C 316.862,97.228 317.198,99.475 321.000,95.000" stroke-width="4.599" stroke="black" fill="none" stroke-linecap="round"></path><path d="M 321.000,95.000 C 323.526,94.060 323.362,93.728 326.000,93.000" stroke-width="4.365" stroke="black" fill="none" stroke-linecap="round"></path><path d="M 326.000,93.000 C 330.600,91.200 330.526,91.060 335.000,89.000" stroke-width="4.342" stroke="black" fill="none" stroke-linecap="round"></path><path d="M 335.000,89.000 C 339.564,86.609 339.600,86.700 344.000,84.000" stroke-width="4.364" stroke="black" fill="none" stroke-linecap="round"></path><path d="M 344.000,84.000 C 348.285,81.858 348.064,81.609 352.000,79.000" stroke-width="4.350" stroke="black" fill="none" stroke-linecap="round"></path><path d="M 352.000,79.000 C 357.000,73.357 354.785,76.858 357.000,74.000" stroke-width="4.544" stroke="black" fill="none" stroke-linecap="round"></path><path d="M 357.000,74.000 C 354.821,78.238 357.000,74.857 352.000,82.000" stroke-width="5.046" stroke="black" fill="none" stroke-linecap="round"></path><path d="M 352.000,82.000 C 348.751,86.249 348.821,86.238 345.000,90.000" stroke-width="3.751" stroke="black" fill="none" stroke-linecap="round"></path><path d="M 345.000,90.000 C 340.250,93.750 340.751,94.249 336.000,98.000" stroke-width="3.418" stroke="black" fill="none" stroke-linecap="round"></path><path d="M 336.000,98.000 C 332.125,102.618 331.750,102.250 328.000,107.000" stroke-width="3.269" stroke="black" fill="none" stroke-linecap="round"></path><path d="M 328.000,107.000 C 323.889,110.895 324.125,111.118 320.000,115.000" stroke-width="3.344" stroke="black" fill="none" stroke-linecap="round"></path><path d="M 320.000,115.000 C 315.249,120.751 314.889,120.395 310.000,126.000" stroke-width="3.096" stroke="black" fill="none" stroke-linecap="round"></path><path d="M 310.000,126.000 C 305.309,130.898 305.249,130.751 300.000,135.000" stroke-width="3.068" stroke="black" fill="none" stroke-linecap="round"></path><path d="M 300.000,135.000 C 294.000,139.000 294.309,139.398 288.000,143.000" stroke-width="3.051" stroke="black" fill="none" stroke-linecap="round"></path><path d="M 288.000,143.000 C 282.239,147.435 282.000,147.000 276.000,151.000" stroke-width="3.045" stroke="black" fill="none" stroke-linecap="round"></path><path d="M 276.000,151.000 C 271.667,153.526 271.739,153.435 267.000,155.000" stroke-width="3.338" stroke="black" fill="none" stroke-linecap="round"></path><path d="M 267.000,155.000 C 262.020,156.114 262.167,156.526 257.000,157.000" stroke-width="3.461" stroke="black" fill="none" stroke-linecap="round"></path><path d="M 257.000,157.000 C 253.516,157.730 253.520,157.614 250.000,158.000" stroke-width="3.804" stroke="black" fill="none" stroke-linecap="round"></path><path d="M 250.000,158.000 C 247.000,158.000 247.016,158.230 244.000,158.000" stroke-width="4.045" stroke="black" fill="none" stroke-linecap="round"></path><path d="M 244.000,158.000 C 239.286,159.714 241.000,158.000 238.000,158.000" stroke-width="4.534" stroke="black" fill="none" stroke-linecap="round"></path><path d="M 238.000,158.000 C 236.374,153.252 236.286,155.714 238.000,150.000" stroke-width="4.689" stroke="black" fill="none" stroke-linecap="round"></path><path d="M 238.000,150.000 C 241.364,146.828 239.874,146.252 245.000,144.000" stroke-width="4.481" stroke="black" fill="none" stroke-linecap="round"></path><path d="M 245.000,144.000 C 250.101,139.352 250.364,139.828 256.000,136.000" stroke-width="3.437" stroke="black" fill="none" stroke-linecap="round"></path><path d="M 256.000,136.000 C 272.263,127.005 272.101,126.852 289.000,119.000" stroke-width="1.998" stroke="black" fill="none" stroke-linecap="round"></path><path d="M 289.000,119.000 C 307.261,111.515 306.763,110.505 325.000,103.000" stroke-width="2.363" stroke="black" fill="none" stroke-linecap="round"></path><path d="M 325.000,103.000 C 331.855,98.716 332.261,99.515 339.000,95.000" stroke-width="3.203" stroke="black" fill="none" stroke-linecap="round"></path><path d="M 339.000,95.000 C 344.328,91.985 344.355,92.216 350.000,90.000" stroke-width="3.262" stroke="black" fill="none" stroke-linecap="round"></path><path d="M 350.000,90.000 C 354.481,88.904 354.328,88.485 359.000,88.000" stroke-width="3.471" stroke="black" fill="none" stroke-linecap="round"></path><path d="M 359.000,88.000 C 361.978,87.232 361.981,87.404 365.000,87.000" stroke-width="3.915" stroke="black" fill="none" stroke-linecap="round"></path><path d="M 427.000,79.000 C 431.079,77.681 431.000,77.500 435.000,76.000" stroke-width="5.055" stroke="black" fill="none" stroke-linecap="round"></path><path d="M 435.000,76.000 C 437.961,74.418 438.079,74.681 441.000,73.000" stroke-width="4.294" stroke="black" fill="none" stroke-linecap="round"></path><path d="M 441.000,73.000 C 445.782,71.481 445.461,70.918 450.000,69.000" stroke-width="3.811" stroke="black" fill="none" stroke-linecap="round"></path><path d="M 450.000,69.000 C 453.883,65.830 454.282,66.481 458.000,63.000" stroke-width="3.559" stroke="black" fill="none" stroke-linecap="round"></path><path d="M 458.000,63.000 C 462.238,60.821 461.883,60.330 466.000,58.000" stroke-width="3.545" stroke="black" fill="none" stroke-linecap="round"></path><path d="M 466.000,58.000 C 469.965,54.459 470.238,54.821 474.000,51.000" stroke-width="3.428" stroke="black" fill="none" stroke-linecap="round"></path><path d="M 474.000,51.000 C 477.509,48.944 476.965,48.459 480.000,46.000" stroke-width="3.667" stroke="black" fill="none" stroke-linecap="round"></path><path d="M 480.000,46.000 C 485.809,40.426 483.009,42.444 485.000,38.000" stroke-width="4.153" stroke="black" fill="none" stroke-linecap="round"></path><path d="M 485.000,38.000 C 481.006,36.852 484.309,35.926 477.000,37.000" stroke-width="4.404" stroke="black" fill="none" stroke-linecap="round"></path><path d="M 477.000,37.000 C 467.182,36.651 467.506,37.352 458.000,39.000" stroke-width="3.008" stroke="black" fill="none" stroke-linecap="round"></path><path d="M 458.000,39.000 C 445.882,43.205 445.682,42.151 434.000,48.000" stroke-width="2.428" stroke="black" fill="none" stroke-linecap="round"></path><path d="M 434.000,48.000 C 417.113,54.204 417.382,54.705 401.000,62.000" stroke-width="1.898" stroke="black" fill="none" stroke-linecap="round"></path><path d="M 401.000,62.000 C 386.215,69.531 386.113,69.204 372.000,78.000" stroke-width="1.852" stroke="black" fill="none" stroke-linecap="round"></path><path d="M 372.000,78.000 C 361.524,82.476 362.715,83.531 354.000,90.000" stroke-width="2.293" stroke="black" fill="none" stroke-linecap="round"></path><path d="M 354.000,90.000 C 344.900,99.987 345.024,98.976 339.000,111.000" stroke-width="2.836" stroke="black" fill="none" stroke-linecap="round"></path><path d="M 339.000,111.000 C 337.644,115.062 337.400,113.987 339.000,118.000" stroke-width="3.553" stroke="black" fill="none" stroke-linecap="round"></path><path d="M 339.000,118.000 C 341.127,122.853 340.644,121.562 345.000,124.000" stroke-width="3.638" stroke="black" fill="none" stroke-linecap="round"></path><path d="M 345.000,124.000 C 355.474,125.542 354.627,126.853 366.000,126.000" stroke-width="2.768" stroke="black" fill="none" stroke-linecap="round"></path><path d="M 366.000,126.000 C 378.890,128.337 378.474,126.542 391.000,126.000" stroke-width="2.465" stroke="black" fill="none" stroke-linecap="round"></path><path d="M 391.000,126.000 C 407.272,121.188 407.390,122.837 423.000,115.000" stroke-width="2.025" stroke="black" fill="none" stroke-linecap="round"></path><path d="M 423.000,115.000 C 437.565,108.640 437.772,109.188 452.000,102.000" stroke-width="1.979" stroke="black" fill="none" stroke-linecap="round"></path><path d="M 452.000,102.000 C 462.601,97.199 462.565,97.140 473.000,92.000" stroke-width="2.189" stroke="black" fill="none" stroke-linecap="round"></path><path d="M 473.000,92.000 C 479.787,88.924 479.601,88.699 486.000,85.000" stroke-width="2.657" stroke="black" fill="none" stroke-linecap="round"></path></svg>