<svg xmlns="http://www.w3.org/2000/svg" xmlns:xlink="http://www.w3.org/1999/xlink" viewBox="0 0 453 236" width="453" height="236"><path d="M 131.500,160.000 C 125.817,159.595 126.000,159.000 120.500,158.000" stroke-width="5.135" stroke="black" fill="none" stroke-linecap="round"></path><path d="M 120.500,158.000 C 116.011,155.974 115.817,156.595 111.500,154.000" stroke-width="4.610" stroke="black" fill="none" stroke-linecap="round"></path><path d="M 111.500,154.000 C 104.500,153.174 108.011,152.474 104.500,151.000" stroke-width="4.600" stroke="black" fill="none" stroke-linecap="round"></path><path d="M 104.500,151.000 C 107.578,146.941 104.500,148.174 111.500,144.000" stroke-width="5.074" stroke="black" fill="none" stroke-linecap="round"></path><path d="M 111.500,144.000 C 116.046,141.579 115.578,140.941 120.500,139.000" stroke-width="3.793" stroke="black" fill="none" stroke-linecap="round"></path><path d="M 120.500,139.000 C 125.689,136.280 125.546,136.079 130.500,133.000" stroke-width="3.461" stroke="black" fill="none" stroke-linecap="round"></path><path d="M 130.500,133.000 C 136.311,128.220 136.689,128.780 142.500,124.000" stroke-width="3.051" stroke="black" fill="none" stroke-linecap="round"></path><path d="M 142.500,124.000 C 147.571,121.113 147.311,120.720 152.500,118.000" stroke-width="3.190" stroke="black" fill="none" stroke-linecap="round"></path><path d="M 152.500,118.000 C 156.847,114.737 157.071,115.113 161.500,112.000" stroke-width="3.359" stroke="black" fill="none" stroke-linecap="round"></path><path d="M 161.500,112.000 C 165.500,110.000 165.347,109.737 169.500,108.000" stroke-width="3.581" stroke="black" fill="none" stroke-linecap="round"></path><path d="M 169.500,108.000 C 176.023,102.769 173.500,106.000 177.500,104.000" stroke-width="4.133" stroke="black" fill="none" stroke-linecap="round"></path><path d="M 177.500,104.000 C 177.341,108.859 179.023,105.269 175.500,113.000" stroke-width="4.546" stroke="black" fill="none" stroke-linecap="round"></path><path d="M 175.500,113.000 C 172.802,117.727 173.341,117.859 169.500,122.000" stroke-width="3.642" stroke="black" fill="none" stroke-linecap="round"></path><path d="M 169.500,122.000 C 164.169,128.650 164.302,128.727 158.500,135.000" stroke-width="2.948" stroke="black" fill="none" stroke-linecap="round"></path><path d="M 158.500,135.000 C 151.874,142.890 151.669,142.650 144.500,150.000" stroke-width="2.657" stroke="black" fill="none" stroke-linecap="round"></path><path d="M 144.500,150.000 C 137.733,156.290 137.874,156.390 130.500,162.000" stroke-width="2.792" stroke="black" fill="none" stroke-linecap="round"></path><path d="M 130.500,162.000 C 118.803,171.456 118.733,171.290 106.500,180.000" stroke-width="2.869" stroke="black" fill="none" stroke-linecap="round"></path><path d="M 106.500,180.000 C 100.696,183.902 100.803,183.956 94.500,187.000" stroke-width="2.967" stroke="black" fill="none" stroke-linecap="round"></path><path d="M 94.500,187.000 C 89.551,189.139 89.696,189.402 84.500,191.000" stroke-width="3.285" stroke="black" fill="none" stroke-linecap="round"></path><path d="M 84.500,191.000 C 79.972,192.422 80.051,192.639 75.500,194.000" stroke-width="3.975" stroke="black" fill="none" stroke-linecap="round"></path><path d="M 75.500,194.000 C 71.500,195.500 71.472,195.422 67.500,197.000" stroke-width="3.810" stroke="black" fill="none" stroke-linecap="round"></path><path d="M 67.500,197.000 C 63.481,198.452 63.500,198.500 59.500,200.000" stroke-width="3.763" stroke="black" fill="none" stroke-linecap="round"></path><path d="M 59.500,200.000 C 54.500,202.000 54.481,201.952 49.500,204.000" stroke-width="3.589" stroke="black" fill="none" stroke-linecap="round"></path><path d="M 49.500,204.000 C 44.744,206.488 47.000,205.000 44.500,206.000" stroke-width="4.391" stroke="black" fill="none" stroke-linecap="round"></path><path d="M 44.500,206.000 C 46.268,203.717 44.244,205.488 48.500,202.000" stroke-width="4.916" stroke="black" fill="none" stroke-linecap="round"></path><path d="M 48.500,202.000 C 53.000,199.000 52.768,198.717 57.500,196.000" stroke-width="3.779" stroke="black" fill="none" stroke-linecap="round"></path><path d="M 57.500,196.000 C 63.323,191.706 63.500,192.000 69.500,188.000" stroke-width="3.164" stroke="black" fill="none" stroke-linecap="round"></path><path d="M 69.500,188.000 C 75.900,184.300 75.823,184.206 82.500,181.000" stroke-width="3.112" stroke="black" fill="none" stroke-linecap="round"></path><path d="M 82.500,181.000 C 89.993,177.485 89.900,177.300 97.500,174.000" stroke-width="2.924" stroke="black" fill="none" stroke-linecap="round"></path><path d="M 97.500,174.000 C 103.959,170.907 103.993,170.985 110.500,168.000" stroke-width="2.955" stroke="black" fill="none" stroke-linecap="round"></path><path d="M 110.500,168.000 C 117.342,164.556 117.459,164.907 124.500,162.000" stroke-width="2.963" stroke="black" fill="none" stroke-linecap="round"></path><path d="M 124.500,162.000 C 131.571,160.217 131.342,159.556 138.500,158.000" stroke-width="2.950" stroke="black" fill="none" stroke-linecap="round"></path><path d="M 138.500,158.000 C 144.115,156.267 144.071,156.217 149.500,154.000" stroke-width="3.153" stroke="black" fill="none" stroke-linecap="round"></path><path d="M 149.500,154.000 C 153.399,151.757 153.615,152.267 157.500,150.000" stroke-width="3.553" stroke="black" fill="none" stroke-linecap="round"></path><path d="M 157.500,150.000 C 160.500,149.000 160.399,148.757 163.500,148.000" stroke-width="3.875" stroke="black" fill="none" stroke-linecap="round"></path><path d="M 163.500,148.000 C 169.940,146.220 166.500,147.000 169.500,146.000" stroke-width="4.444" stroke="black" fill="none" stroke-linecap="round"></path><path d="M 169.500,146.000 C 164.999,145.367 168.940,145.720 161.500,147.000" stroke-width="5.033" stroke="black" fill="none" stroke-linecap="round"></path><path d="M 161.500,147.000 C 158.041,150.049 157.499,148.867 154.500,153.000" stroke-width="3.976" stroke="black" fill="none" stroke-linecap="round"></path><path d="M 154.500,153.000 C 152.000,155.000 152.041,155.049 149.500,157.000" stroke-width="4.005" stroke="black" fill="none" stroke-linecap="round"></path><path d="M 149.500,157.000 C 146.522,158.574 147.000,159.000 144.500,161.000" stroke-width="4.214" stroke="black" fill="none" stroke-linecap="round"></path><path d="M 144.500,161.000 C 138.961,165.765 141.522,164.574 139.500,169.000" stroke-width="4.345" stroke="black" fill="none" stroke-linecap="round"></path><path d="M 139.500,169.000 C 142.792,172.506 139.961,171.765 146.500,173.000" stroke-width="4.792" stroke="black" fill="none" stroke-linecap="round"></path><path d="M 146.500,173.000 C 150.708,172.517 150.292,173.506 154.500,171.000" stroke-width="4.042" stroke="black" fill="none" stroke-linecap="round"></path><path d="M 154.500,171.000 C 158.234,169.333 158.208,169.517 161.500,167.000" stroke-width="3.881" stroke="black" fill="none" stroke-linecap="round"></path><path d="M 161.500,167.000 C 164.825,163.757 165.234,164.333 168.500,161.000" stroke-width="3.714" stroke="black" fill="none" stroke-linecap="round"></path><path d="M 168.500,161.000 C 171.216,159.777 170.825,159.257 173.500,158.000" stroke-width="3.991" stroke="black" fill="none" stroke-linecap="round"></path><path d="M 173.500,158.000 C 177.735,155.876 175.716,156.277 177.500,154.000" stroke-width="4.149" stroke="black" fill="none" stroke-linecap="round"></path><path d="M 177.500,154.000 C 175.366,150.955 177.235,151.876 172.500,150.000" stroke-width="4.832" stroke="black" fill="none" stroke-linecap="round"></path><path d="M 172.500,150.000 C 168.978,149.732 169.366,148.955 165.500,150.000" stroke-width="4.678" stroke="black" fill="none" stroke-linecap="round"></path><path d="M 165.500,150.000 C 161.321,149.179 162.478,150.232 159.500,151.000" stroke-width="4.728" stroke="black" fill="none" stroke-linecap="round"></path><path d="M 159.500,151.000 C 158.048,154.437 157.321,153.179 157.500,158.000" stroke-width="4.678" stroke="black" fill="none" stroke-linecap="round"></path><path d="M 157.500,158.000 C 156.040,162.053 157.048,160.937 157.500,164.000" stroke-width="4.928" stroke="black" fill="none" stroke-linecap="round"></path><path d="M 157.500,164.000 C 160.421,165.487 159.040,166.053 163.500,166.000" stroke-width="4.973" stroke="black" fill="none" stroke-linecap="round"></path><path d="M 163.500,166.000 C 166.500,166.000 166.421,166.487 169.500,166.000" stroke-width="4.373" stroke="black" fill="none" stroke-linecap="round"></path><path d="M 169.500,166.000 C 173.014,166.232 173.000,166.000 176.500,166.000" stroke-width="4.040" stroke="black" fill="none" stroke-linecap="round"></path><path d="M 176.500,166.000 C 180.750,166.250 180.514,165.732 184.500,165.000" stroke-width="3.880" stroke="black" fill="none" stroke-linecap="round"></path><path d="M 184.500,165.000 C 188.000,163.000 188.250,163.750 191.500,161.000" stroke-width="3.781" stroke="black" fill="none" stroke-linecap="round"></path><path d="M 191.500,161.000 C 194.944,158.896 195.000,159.000 198.500,157.000" stroke-width="3.805" stroke="black" fill="none" stroke-linecap="round"></path><path d="M 198.500,157.000 C 202.677,155.294 202.444,154.896 206.500,153.000" stroke-width="3.721" stroke="black" fill="none" stroke-linecap="round"></path><path d="M 206.500,153.000 C 210.032,150.543 210.177,150.794 213.500,148.000" stroke-width="3.677" stroke="black" fill="none" stroke-linecap="round"></path><path d="M 213.500,148.000 C 217.692,145.222 217.532,145.043 221.500,142.000" stroke-width="3.523" stroke="black" fill="none" stroke-linecap="round"></path><path d="M 221.500,142.000 C 223.903,139.397 224.192,139.722 226.500,137.000" stroke-width="3.779" stroke="black" fill="none" stroke-linecap="round"></path><path d="M 226.500,137.000 C 231.056,133.974 230.403,133.397 234.500,130.000" stroke-width="3.551" stroke="black" fill="none" stroke-linecap="round"></path><path d="M 234.500,130.000 C 236.765,125.830 237.556,126.474 239.500,122.000" stroke-width="3.542" stroke="black" fill="none" stroke-linecap="round"></path><path d="M 239.500,122.000 C 242.027,119.022 241.765,118.830 244.500,116.000" stroke-width="3.842" stroke="black" fill="none" stroke-linecap="round"></path><path d="M 244.500,116.000 C 246.668,113.617 246.527,113.522 248.500,111.000" stroke-width="4.010" stroke="black" fill="none" stroke-linecap="round"></path><path d="M 248.500,111.000 C 249.832,108.383 250.168,108.617 251.500,106.000" stroke-width="4.133" stroke="black" fill="none" stroke-linecap="round"></path><path d="M 251.500,106.000 C 255.500,100.557 253.332,103.383 255.500,101.000" stroke-width="4.550" stroke="black" fill="none" stroke-linecap="round"></path><path d="M 255.500,101.000 C 253.786,104.698 255.500,101.557 251.500,108.000" stroke-width="5.230" stroke="black" fill="none" stroke-linecap="round"></path><path d="M 251.500,108.000 C 248.790,110.851 249.286,111.198 246.500,114.000" stroke-width="4.753" stroke="black" fill="none" stroke-linecap="round"></path><path d="M 246.500,114.000 C 244.800,116.401 244.790,116.351 243.500,119.000" stroke-width="4.801" stroke="black" fill="none" stroke-linecap="round"></path><path d="M 243.500,119.000 C 241.277,121.551 242.300,121.401 241.500,124.000" stroke-width="5.082" stroke="black" fill="none" stroke-linecap="round"></path><path d="M 241.500,124.000 C 242.601,127.287 241.777,127.051 244.500,130.000" stroke-width="5.160" stroke="black" fill="none" stroke-linecap="round"></path><path d="M 244.500,130.000 C 247.188,131.595 246.101,132.287 248.500,134.000" stroke-width="4.904" stroke="black" fill="none" stroke-linecap="round"></path><path d="M 248.500,134.000 C 249.990,137.431 250.188,137.095 250.500,141.000" stroke-width="4.711" stroke="black" fill="none" stroke-linecap="round"></path><path d="M 250.500,141.000 C 251.318,144.727 250.990,144.431 250.500,148.000" stroke-width="4.644" stroke="black" fill="none" stroke-linecap="round"></path><path d="M 250.500,148.000 C 249.634,151.400 249.818,150.727 247.500,153.000" stroke-width="4.739" stroke="black" fill="none" stroke-linecap="round"></path><path d="M 247.500,153.000 C 245.027,153.770 245.634,154.400 242.500,154.000" stroke-width="4.443" stroke="black" fill="none" stroke-linecap="round"></path><path d="M 242.500,154.000 C 239.500,154.000 239.527,154.270 236.500,154.000" stroke-width="4.190" stroke="black" fill="none" stroke-linecap="round"></path><path d="M 236.500,154.000 C 230.000,154.000 230.000,154.000 223.500,154.000" stroke-width="4.081" stroke="black" fill="none" stroke-linecap="round"></path><path d="M 223.500,154.000 C 220.500,154.000 220.500,154.000 217.500,154.000" stroke-width="4.134" stroke="black" fill="none" stroke-linecap="round"></path><path d="M 217.500,154.000 C 214.500,154.000 214.500,154.000 211.500,154.000" stroke-width="4.104" stroke="black" fill="none" stroke-linecap="round"></path><path d="M 211.500,154.000 C 202.330,152.893 206.500,154.000 201.500,154.000" stroke-width="4.524" stroke="black" fill="none" stroke-linecap="round"></path><path d="M 201.500,154.000 C 204.825,156.469 200.830,154.893 208.500,158.000" stroke-width="5.043" stroke="black" fill="none" stroke-linecap="round"></path><path d="M 208.500,158.000 C 211.016,158.427 210.825,158.969 213.500,159.000" stroke-width="4.520" stroke="black" fill="none" stroke-linecap="round"></path><path d="M 213.500,159.000 C 217.414,160.697 217.516,159.927 221.500,161.000" stroke-width="3.922" stroke="black" fill="none" stroke-linecap="round"></path><path d="M 221.500,161.000 C 231.142,161.968 230.914,161.697 240.500,161.000" stroke-width="3.776" stroke="black" fill="none" stroke-linecap="round"></path><path d="M 240.500,161.000 C 245.550,159.650 245.642,160.468 250.500,158.000" stroke-width="3.567" stroke="black" fill="none" stroke-linecap="round"></path><path d="M 250.500,158.000 C 256.240,156.505 256.050,156.150 261.500,154.000" stroke-width="3.338" stroke="black" fill="none" stroke-linecap="round"></path><path d="M 261.500,154.000 C 266.571,151.113 266.740,151.505 271.500,148.000" stroke-width="3.337" stroke="black" fill="none" stroke-linecap="round"></path><path d="M 271.500,148.000 C 276.000,145.000 276.071,145.113 280.500,142.000" stroke-width="3.407" stroke="black" fill="none" stroke-linecap="round"></path><path d="M 280.500,142.000 C 283.392,139.813 283.500,140.000 286.500,138.000" stroke-width="3.769" stroke="black" fill="none" stroke-linecap="round"></path><path d="M 286.500,138.000 C 289.686,136.791 289.392,136.313 292.500,135.000" stroke-width="3.950" stroke="black" fill="none" stroke-linecap="round"></path><path d="M 292.500,135.000 C 295.041,133.049 295.186,133.291 297.500,131.000" stroke-width="3.997" stroke="black" fill="none" stroke-linecap="round"></path><path d="M 297.500,131.000 C 301.659,128.472 301.041,128.049 304.500,125.000" stroke-width="4.287" stroke="black" fill="none" stroke-linecap="round"></path><path d="M 304.500,125.000 C 307.439,120.939 306.159,122.972 306.500,120.000" stroke-width="4.806" stroke="black" fill="none" stroke-linecap="round"></path><path d="M 306.500,120.000 C 303.192,119.757 305.439,118.939 300.500,121.000" stroke-width="5.219" stroke="black" fill="none" stroke-linecap="round"></path><path d="M 300.500,121.000 C 296.818,123.285 296.692,122.757 293.500,126.000" stroke-width="4.665" stroke="black" fill="none" stroke-linecap="round"></path><path d="M 293.500,126.000 C 291.578,128.082 291.318,127.785 289.500,130.000" stroke-width="4.345" stroke="black" fill="none" stroke-linecap="round"></path><path d="M 289.500,130.000 C 285.070,134.083 285.078,134.082 280.500,138.000" stroke-width="4.274" stroke="black" fill="none" stroke-linecap="round"></path><path d="M 280.500,138.000 C 277.978,139.973 278.070,140.083 275.500,142.000" stroke-width="4.141" stroke="black" fill="none" stroke-linecap="round"></path><path d="M 275.500,142.000 C 271.197,143.890 272.478,144.473 269.500,147.000" stroke-width="4.451" stroke="black" fill="none" stroke-linecap="round"></path><path d="M 269.500,147.000 C 267.726,151.423 268.197,149.390 269.500,153.000" stroke-width="4.926" stroke="black" fill="none" stroke-linecap="round"></path><path d="M 269.500,153.000 C 274.013,153.944 272.226,155.423 278.500,155.000" stroke-width="4.585" stroke="black" fill="none" stroke-linecap="round"></path><path d="M 278.500,155.000 C 282.941,155.221 282.513,155.944 286.500,157.000" stroke-width="4.525" stroke="black" fill="none" stroke-linecap="round"></path><path d="M 286.500,157.000 C 290.746,159.277 288.941,158.221 290.500,161.000" stroke-width="5.003" stroke="black" fill="none" stroke-linecap="round"></path><path d="M 290.500,161.000 C 288.280,163.509 290.246,162.777 285.500,164.000" stroke-width="4.860" stroke="black" fill="none" stroke-linecap="round"></path><path d="M 285.500,164.000 C 279.478,164.315 279.780,165.009 273.500,164.000" stroke-width="4.641" stroke="black" fill="none" stroke-linecap="round"></path><path d="M 273.500,164.000 C 270.016,163.270 269.978,163.815 266.500,163.000" stroke-width="4.635" stroke="black" fill="none" stroke-linecap="round"></path><path d="M 266.500,163.000 C 260.270,162.770 263.516,162.770 260.500,163.000" stroke-width="4.892" stroke="black" fill="none" stroke-linecap="round"></path><path d="M 260.500,163.000 C 264.014,163.419 260.770,163.270 267.500,164.000" stroke-width="5.259" stroke="black" fill="none" stroke-linecap="round"></path><path d="M 267.500,164.000 C 270.000,164.500 270.014,164.419 272.500,165.000" stroke-width="4.570" stroke="black" fill="none" stroke-linecap="round"></path><path d="M 272.500,165.000 C 274.973,165.770 275.000,165.500 277.500,166.000" stroke-width="4.353" stroke="black" fill="none" stroke-linecap="round"></path><path d="M 277.500,166.000 C 280.521,165.752 280.473,166.270 283.500,166.000" stroke-width="4.214" stroke="black" fill="none" stroke-linecap="round"></path><path d="M 283.500,166.000 C 286.473,166.822 286.521,166.252 289.500,167.000" stroke-width="4.164" stroke="black" fill="none" stroke-linecap="round"></path><path d="M 289.500,167.000 C 295.335,168.291 294.973,167.322 300.500,167.000" stroke-width="4.244" stroke="black" fill="none" stroke-linecap="round"></path><path d="M 300.500,167.000 C 305.013,164.524 305.335,165.791 309.500,162.000" stroke-width="4.295" stroke="black" fill="none" stroke-linecap="round"></path><path d="M 309.500,162.000 C 313.304,160.397 313.013,160.024 316.500,158.000" stroke-width="4.451" stroke="black" fill="none" stroke-linecap="round"></path><path d="M 316.500,158.000 C 318.662,154.987 319.304,155.897 321.500,153.000" stroke-width="4.576" stroke="black" fill="none" stroke-linecap="round"></path><path d="M 321.500,153.000 C 324.216,152.370 323.662,151.487 326.500,151.000" stroke-width="5.107" stroke="black" fill="none" stroke-linecap="round"></path><path d="M 326.500,151.000 C 328.883,148.832 329.216,149.370 331.500,147.000" stroke-width="5.030" stroke="black" fill="none" stroke-linecap="round"></path><path d="M 331.500,147.000 C 336.262,143.523 333.883,145.332 336.500,144.000" stroke-width="5.042" stroke="black" fill="none" stroke-linecap="round"></path><path d="M 336.500,144.000 C 334.452,146.463 336.762,144.523 332.500,149.000" stroke-width="5.373" stroke="black" fill="none" stroke-linecap="round"></path><path d="M 332.500,149.000 C 329.268,152.848 329.452,152.963 326.500,157.000" stroke-width="4.611" stroke="black" fill="none" stroke-linecap="round"></path><path d="M 326.500,157.000 C 322.500,160.768 324.268,160.348 322.500,164.000" stroke-width="4.566" stroke="black" fill="none" stroke-linecap="round"></path><path d="M 322.500,164.000 C 324.074,167.029 322.500,166.268 326.500,168.000" stroke-width="5.131" stroke="black" fill="none" stroke-linecap="round"></path><path d="M 326.500,168.000 C 329.516,168.230 329.074,169.029 332.500,168.000" stroke-width="4.848" stroke="black" fill="none" stroke-linecap="round"></path><path d="M 332.500,168.000 C 336.130,167.963 336.016,167.730 339.500,167.000" stroke-width="4.713" stroke="black" fill="none" stroke-linecap="round"></path><path d="M 339.500,167.000 C 343.102,165.699 343.130,165.963 346.500,164.000" stroke-width="4.593" stroke="black" fill="none" stroke-linecap="round"></path><path d="M 346.500,164.000 C 348.942,162.395 349.102,162.699 351.500,161.000" stroke-width="4.799" stroke="black" fill="none" stroke-linecap="round"></path><path d="M 351.500,161.000 C 354.787,159.899 354.442,159.395 357.500,158.000" stroke-width="4.902" stroke="black" fill="none" stroke-linecap="round"></path><path d="M 357.500,158.000 C 359.624,156.111 359.787,156.399 361.500,154.000" stroke-width="5.014" stroke="black" fill="none" stroke-linecap="round"></path><path d="M 361.500,154.000 C 363.145,151.094 363.624,151.611 365.500,149.000" stroke-width="4.995" stroke="black" fill="none" stroke-linecap="round"></path><path d="M 365.500,149.000 C 371.275,146.194 367.645,147.094 370.500,146.000" stroke-width="5.119" stroke="black" fill="none" stroke-linecap="round"></path><path d="M 370.500,146.000 C 365.708,146.317 369.275,145.694 361.500,148.000" stroke-width="5.240" stroke="black" fill="none" stroke-linecap="round"></path><path d="M 361.500,148.000 C 357.550,149.364 358.208,149.317 355.500,152.000" stroke-width="4.806" stroke="black" fill="none" stroke-linecap="round"></path><path d="M 355.500,152.000 C 353.338,155.257 354.050,153.864 354.500,157.000" stroke-width="5.004" stroke="black" fill="none" stroke-linecap="round"></path><path d="M 354.500,157.000 C 357.773,159.853 356.338,159.757 361.500,161.000" stroke-width="4.891" stroke="black" fill="none" stroke-linecap="round"></path><path d="M 361.500,161.000 C 364.500,161.000 364.273,161.853 367.500,161.000" stroke-width="4.302" stroke="black" fill="none" stroke-linecap="round"></path><path d="M 367.500,161.000 C 371.000,161.000 371.000,161.000 374.500,161.000" stroke-width="4.075" stroke="black" fill="none" stroke-linecap="round"></path><path d="M 374.500,161.000 C 379.869,159.714 379.500,161.000 384.500,161.000" stroke-width="4.220" stroke="black" fill="none" stroke-linecap="round"></path><path d="M 384.500,161.000 C 390.204,162.428 388.869,162.214 392.500,166.000" stroke-width="4.327" stroke="black" fill="none" stroke-linecap="round"></path></svg>