<svg xmlns="http://www.w3.org/2000/svg" xmlns:xlink="http://www.w3.org/1999/xlink" viewBox="0 0 1460 592" width="1460" height="592"><path d="M 692.000,280.000 C 692.285,277.001 693.000,277.500 694.000,275.000" stroke-width="5.181" stroke="black" fill="none" stroke-linecap="round"></path><path d="M 694.000,275.000 C 698.548,269.894 698.285,270.001 704.000,266.000" stroke-width="3.632" stroke="black" fill="none" stroke-linecap="round"></path><path d="M 704.000,266.000 C 712.390,259.119 712.548,259.894 722.000,255.000" stroke-width="2.695" stroke="black" fill="none" stroke-linecap="round"></path><path d="M 722.000,255.000 C 733.832,250.562 733.390,250.119 746.000,248.000" stroke-width="2.324" stroke="black" fill="none" stroke-linecap="round"></path><path d="M 746.000,248.000 C 753.014,246.782 752.832,246.562 760.000,247.000" stroke-width="2.853" stroke="black" fill="none" stroke-linecap="round"></path><path d="M 760.000,247.000 C 769.102,247.466 769.014,247.282 778.000,249.000" stroke-width="2.699" stroke="black" fill="none" stroke-linecap="round"></path><path d="M 778.000,249.000 C 783.665,250.019 783.602,249.966 789.000,252.000" stroke-width="3.084" stroke="black" fill="none" stroke-linecap="round"></path><path d="M 789.000,252.000 C 802.336,255.083 801.165,256.519 813.000,262.000" stroke-width="2.427" stroke="black" fill="none" stroke-linecap="round"></path><path d="M 813.000,262.000 C 820.776,268.164 820.836,267.083 826.000,276.000" stroke-width="2.578" stroke="black" fill="none" stroke-linecap="round"></path><path d="M 826.000,276.000 C 831.700,283.681 830.776,283.164 833.000,292.000" stroke-width="2.713" stroke="black" fill="none" stroke-linecap="round"></path><path d="M 833.000,292.000 C 833.882,300.685 834.200,299.681 831.000,308.000" stroke-width="2.774" stroke="black" fill="none" stroke-linecap="round"></path><path d="M 831.000,308.000 C 827.647,318.809 827.382,317.185 820.000,325.000" stroke-width="2.626" stroke="black" fill="none" stroke-linecap="round"></path><path d="M 820.000,325.000 C 804.973,334.740 806.647,335.809 789.000,342.000" stroke-width="1.947" stroke="black" fill="none" stroke-linecap="round"></path><path d="M 789.000,342.000 C 782.536,343.693 782.973,344.740 776.000,345.000" stroke-width="2.658" stroke="black" fill="none" stroke-linecap="round"></path><path d="M 776.000,345.000 C 772.500,346.000 772.536,345.693 769.000,346.000" stroke-width="3.459" stroke="black" fill="none" stroke-linecap="round"></path><path d="M 769.000,346.000 C 764.886,346.574 765.500,346.000 762.000,345.000" stroke-width="3.757" stroke="black" fill="none" stroke-linecap="round"></path><path d="M 762.000,345.000 C 758.504,343.025 759.386,343.574 758.000,340.000" stroke-width="3.981" stroke="black" fill="none" stroke-linecap="round"></path><path d="M 758.000,340.000 C 756.030,330.003 756.504,331.025 758.000,321.000" stroke-width="2.877" stroke="black" fill="none" stroke-linecap="round"></path><path d="M 758.000,321.000 C 759.951,313.049 759.530,314.003 765.000,308.000" stroke-width="2.969" stroke="black" fill="none" stroke-linecap="round"></path><path d="M 765.000,308.000 C 772.682,302.325 771.451,301.549 781.000,298.000" stroke-width="2.750" stroke="black" fill="none" stroke-linecap="round"></path><path d="M 781.000,298.000 C 785.453,296.337 785.182,295.825 790.000,295.000" stroke-width="3.301" stroke="black" fill="none" stroke-linecap="round"></path><path d="M 790.000,295.000 C 800.049,292.397 793.953,293.837 798.000,293.000" stroke-width="3.578" stroke="black" fill="none" stroke-linecap="round"></path><path d="M 798.000,293.000 C 785.810,298.134 791.549,294.897 773.000,300.000" stroke-width="4.053" stroke="black" fill="none" stroke-linecap="round"></path><path d="M 773.000,300.000 C 734.110,305.942 734.310,305.634 695.000,308.000" stroke-width="1.295" stroke="black" fill="none" stroke-linecap="round"></path><path d="M 695.000,308.000 C 648.493,309.287 648.610,310.442 602.000,309.000" stroke-width="1.125" stroke="black" fill="none" stroke-linecap="round"></path><path d="M 602.000,309.000 C 567.506,307.590 567.493,308.787 533.000,307.000" stroke-width="1.125" stroke="black" fill="none" stroke-linecap="round"></path><path d="M 533.000,307.000 C 509.000,307.000 509.006,306.590 485.000,307.000" stroke-width="1.272" stroke="black" fill="none" stroke-linecap="round"></path><path d="M 485.000,307.000 C 478.500,307.000 478.500,307.000 472.000,307.000" stroke-width="2.196" stroke="black" fill="none" stroke-linecap="round"></path><path d="M 472.000,307.000 C 465.500,307.000 465.500,307.000 459.000,307.000" stroke-width="2.761" stroke="black" fill="none" stroke-linecap="round"></path><path d="M 459.000,307.000 C 454.500,307.000 454.500,307.000 450.000,307.000" stroke-width="3.345" stroke="black" fill="none" stroke-linecap="round"></path></svg>