<svg xmlns="http://www.w3.org/2000/svg" xmlns:xlink="http://www.w3.org/1999/xlink" viewBox="0 0 1460 592" width="1460" height="592"><path d="M 731.000,167.000 C 711.018,185.554 710.000,184.000 689.000,201.000" stroke-width="2.743" stroke="black" fill="none" stroke-linecap="round"></path><path d="M 689.000,201.000 C 676.966,208.618 677.518,209.054 664.000,214.000" stroke-width="2.272" stroke="black" fill="none" stroke-linecap="round"></path><path d="M 664.000,214.000 C 650.208,219.372 650.466,219.618 636.000,223.000" stroke-width="2.120" stroke="black" fill="none" stroke-linecap="round"></path><path d="M 636.000,223.000 C 626.486,224.419 626.708,225.372 617.000,226.000" stroke-width="2.406" stroke="black" fill="none" stroke-linecap="round"></path><path d="M 617.000,226.000 C 611.429,226.723 611.486,226.919 606.000,228.000" stroke-width="3.064" stroke="black" fill="none" stroke-linecap="round"></path><path d="M 606.000,228.000 C 602.685,228.434 602.929,228.723 600.000,230.000" stroke-width="3.682" stroke="black" fill="none" stroke-linecap="round"></path><path d="M 600.000,230.000 C 594.238,232.145 596.685,231.934 594.000,235.000" stroke-width="4.264" stroke="black" fill="none" stroke-linecap="round"></path><path d="M 594.000,235.000 C 595.187,240.252 593.738,238.145 599.000,242.000" stroke-width="3.879" stroke="black" fill="none" stroke-linecap="round"></path><path d="M 599.000,242.000 C 620.187,250.768 619.187,251.252 642.000,257.000" stroke-width="1.869" stroke="black" fill="none" stroke-linecap="round"></path><path d="M 642.000,257.000 C 651.987,258.595 651.687,259.768 662.000,260.000" stroke-width="2.209" stroke="black" fill="none" stroke-linecap="round"></path><path d="M 662.000,260.000 C 680.703,261.530 680.487,262.595 699.000,265.000" stroke-width="1.874" stroke="black" fill="none" stroke-linecap="round"></path><path d="M 699.000,265.000 C 709.621,267.634 709.703,267.030 720.000,271.000" stroke-width="2.201" stroke="black" fill="none" stroke-linecap="round"></path><path d="M 720.000,271.000 C 728.345,273.326 728.121,273.634 736.000,277.000" stroke-width="2.592" stroke="black" fill="none" stroke-linecap="round"></path><path d="M 736.000,277.000 C 740.677,279.758 740.845,279.326 745.000,283.000" stroke-width="3.131" stroke="black" fill="none" stroke-linecap="round"></path><path d="M 745.000,283.000 C 751.825,290.146 752.677,288.758 760.000,295.000" stroke-width="2.771" stroke="black" fill="none" stroke-linecap="round"></path><path d="M 760.000,295.000 C 768.466,298.586 767.825,299.646 777.000,302.000" stroke-width="2.662" stroke="black" fill="none" stroke-linecap="round"></path><path d="M 777.000,302.000 C 783.424,304.713 783.466,304.586 790.000,307.000" stroke-width="2.949" stroke="black" fill="none" stroke-linecap="round"></path><path d="M 790.000,307.000 C 806.437,312.700 806.424,312.713 823.000,318.000" stroke-width="2.080" stroke="black" fill="none" stroke-linecap="round"></path><path d="M 823.000,318.000 C 831.305,321.488 831.437,320.700 840.000,323.000" stroke-width="2.460" stroke="black" fill="none" stroke-linecap="round"></path><path d="M 840.000,323.000 C 854.509,326.000 854.305,325.488 869.000,326.000" stroke-width="2.175" stroke="black" fill="none" stroke-linecap="round"></path><path d="M 869.000,326.000 C 882.107,325.149 882.009,326.000 895.000,323.000" stroke-width="2.203" stroke="black" fill="none" stroke-linecap="round"></path><path d="M 895.000,323.000 C 908.945,319.480 909.107,320.649 923.000,317.000" stroke-width="2.126" stroke="black" fill="none" stroke-linecap="round"></path></svg>