<svg xmlns="http://www.w3.org/2000/svg" xmlns:xlink="http://www.w3.org/1999/xlink" viewBox="0 0 1460 592" width="1460" height="592"><path d="M 819.000,303.000 C 807.430,302.857 807.500,303.500 796.000,304.000" stroke-width="4.332" stroke="black" fill="none" stroke-linecap="round"></path><path d="M 796.000,304.000 C 787.564,305.966 787.430,304.857 779.000,307.000" stroke-width="3.049" stroke="black" fill="none" stroke-linecap="round"></path><path d="M 779.000,307.000 C 758.514,309.163 758.564,309.466 738.000,311.000" stroke-width="1.841" stroke="black" fill="none" stroke-linecap="round"></path><path d="M 738.000,311.000 C 725.019,312.783 725.014,312.163 712.000,313.000" stroke-width="2.091" stroke="black" fill="none" stroke-linecap="round"></path><path d="M 712.000,313.000 C 694.853,313.743 695.019,313.283 678.000,312.000" stroke-width="2.548" stroke="black" fill="none" stroke-linecap="round"></path><path d="M 678.000,312.000 C 664.511,312.256 665.853,310.743 654.000,307.000" stroke-width="2.429" stroke="black" fill="none" stroke-linecap="round"></path><path d="M 654.000,307.000 C 644.181,301.684 645.511,302.756 640.000,293.000" stroke-width="2.545" stroke="black" fill="none" stroke-linecap="round"></path><path d="M 640.000,293.000 C 631.488,273.228 631.181,274.684 628.000,253.000" stroke-width="1.763" stroke="black" fill="none" stroke-linecap="round"></path><path d="M 628.000,253.000 C 626.674,243.079 626.488,244.228 630.000,235.000" stroke-width="2.341" stroke="black" fill="none" stroke-linecap="round"></path><path d="M 630.000,235.000 C 633.488,223.990 633.674,226.079 642.000,219.000" stroke-width="2.506" stroke="black" fill="none" stroke-linecap="round"></path><path d="M 642.000,219.000 C 692.387,186.829 691.488,189.990 746.000,167.000" stroke-width="1.377" stroke="black" fill="none" stroke-linecap="round"></path><path d="M 746.000,167.000 C 767.157,163.563 765.387,159.829 788.000,165.000" stroke-width="1.580" stroke="black" fill="none" stroke-linecap="round"></path><path d="M 788.000,165.000 C 811.872,166.209 810.657,166.563 833.000,173.000" stroke-width="2.055" stroke="black" fill="none" stroke-linecap="round"></path><path d="M 833.000,173.000 C 839.178,177.417 839.872,175.209 844.000,183.000" stroke-width="2.590" stroke="black" fill="none" stroke-linecap="round"></path><path d="M 844.000,183.000 C 849.982,188.190 848.678,188.417 852.000,195.000" stroke-width="2.891" stroke="black" fill="none" stroke-linecap="round"></path><path d="M 852.000,195.000 C 861.474,216.366 857.982,215.190 860.000,237.000" stroke-width="1.848" stroke="black" fill="none" stroke-linecap="round"></path><path d="M 860.000,237.000 C 857.488,261.193 858.474,258.366 846.000,279.000" stroke-width="2.204" stroke="black" fill="none" stroke-linecap="round"></path><path d="M 846.000,279.000 C 834.236,291.193 837.488,292.193 820.000,299.000" stroke-width="2.052" stroke="black" fill="none" stroke-linecap="round"></path><path d="M 820.000,299.000 C 802.225,306.796 803.236,308.193 784.000,313.000" stroke-width="1.807" stroke="black" fill="none" stroke-linecap="round"></path><path d="M 784.000,313.000 C 778.520,314.709 778.725,314.796 773.000,315.000" stroke-width="2.686" stroke="black" fill="none" stroke-linecap="round"></path><path d="M 773.000,315.000 C 765.452,316.864 769.020,315.209 765.000,314.000" stroke-width="3.776" stroke="black" fill="none" stroke-linecap="round"></path><path d="M 765.000,314.000 C 764.018,302.803 763.952,307.364 770.000,296.000" stroke-width="2.936" stroke="black" fill="none" stroke-linecap="round"></path><path d="M 770.000,296.000 C 790.730,272.025 789.518,273.803 816.000,256.000" stroke-width="1.486" stroke="black" fill="none" stroke-linecap="round"></path><path d="M 816.000,256.000 C 833.611,248.179 831.730,246.025 852.000,244.000" stroke-width="1.609" stroke="black" fill="none" stroke-linecap="round"></path><path d="M 852.000,244.000 C 875.741,234.741 866.611,240.679 882.000,241.000" stroke-width="2.271" stroke="black" fill="none" stroke-linecap="round"></path><path d="M 882.000,241.000 C 882.028,256.231 887.741,246.741 876.000,268.000" stroke-width="3.086" stroke="black" fill="none" stroke-linecap="round"></path><path d="M 876.000,268.000 C 869.346,276.158 871.528,276.731 861.000,282.000" stroke-width="2.689" stroke="black" fill="none" stroke-linecap="round"></path><path d="M 861.000,282.000 C 848.506,289.011 849.346,290.158 836.000,296.000" stroke-width="2.179" stroke="black" fill="none" stroke-linecap="round"></path><path d="M 836.000,296.000 C 831.541,298.578 831.506,298.511 827.000,301.000" stroke-width="2.963" stroke="black" fill="none" stroke-linecap="round"></path></svg>