<svg xmlns="http://www.w3.org/2000/svg" xmlns:xlink="http://www.w3.org/1999/xlink" viewBox="0 0 1460 592" width="1460" height="592"><path d="M 730.000,349.000 C 724.886,347.255 725.000,347.000 720.000,345.000" stroke-width="5.241" stroke="black" fill="none" stroke-linecap="round"></path><path d="M 720.000,345.000 C 712.355,340.133 711.886,341.255 704.000,337.000" stroke-width="3.029" stroke="black" fill="none" stroke-linecap="round"></path><path d="M 704.000,337.000 C 684.445,328.617 684.355,329.633 664.000,324.000" stroke-width="1.882" stroke="black" fill="none" stroke-linecap="round"></path><path d="M 664.000,324.000 C 637.471,320.180 637.945,318.117 611.000,316.000" stroke-width="1.479" stroke="black" fill="none" stroke-linecap="round"></path><path d="M 611.000,316.000 C 599.461,314.204 599.471,314.180 588.000,312.000" stroke-width="1.965" stroke="black" fill="none" stroke-linecap="round"></path><path d="M 588.000,312.000 C 572.421,311.237 573.461,309.204 559.000,306.000" stroke-width="2.123" stroke="black" fill="none" stroke-linecap="round"></path><path d="M 559.000,306.000 C 552.974,301.031 551.921,303.237 547.000,296.000" stroke-width="3.063" stroke="black" fill="none" stroke-linecap="round"></path><path d="M 547.000,296.000 C 543.086,293.367 543.474,293.031 540.000,290.000" stroke-width="3.450" stroke="black" fill="none" stroke-linecap="round"></path><path d="M 540.000,290.000 C 537.608,287.216 537.586,287.367 536.000,284.000" stroke-width="3.738" stroke="black" fill="none" stroke-linecap="round"></path><path d="M 536.000,284.000 C 530.980,275.270 531.608,275.216 528.000,266.000" stroke-width="2.866" stroke="black" fill="none" stroke-linecap="round"></path><path d="M 528.000,266.000 C 525.610,260.566 526.480,261.270 527.000,256.000" stroke-width="3.254" stroke="black" fill="none" stroke-linecap="round"></path><path d="M 527.000,256.000 C 528.427,246.177 529.110,249.066 535.000,243.000" stroke-width="3.045" stroke="black" fill="none" stroke-linecap="round"></path><path d="M 535.000,243.000 C 560.863,234.088 558.427,231.677 587.000,227.000" stroke-width="1.610" stroke="black" fill="none" stroke-linecap="round"></path><path d="M 587.000,227.000 C 590.511,226.742 590.363,226.088 594.000,227.000" stroke-width="2.762" stroke="black" fill="none" stroke-linecap="round"></path><path d="M 594.000,227.000 C 617.597,228.214 617.511,228.742 641.000,231.000" stroke-width="1.729" stroke="black" fill="none" stroke-linecap="round"></path><path d="M 641.000,231.000 C 659.526,233.856 659.597,233.214 678.000,237.000" stroke-width="1.795" stroke="black" fill="none" stroke-linecap="round"></path><path d="M 678.000,237.000 C 683.194,237.398 683.026,237.856 688.000,239.000" stroke-width="2.731" stroke="black" fill="none" stroke-linecap="round"></path><path d="M 688.000,239.000 C 695.552,239.402 693.694,240.898 699.000,244.000" stroke-width="3.046" stroke="black" fill="none" stroke-linecap="round"></path><path d="M 699.000,244.000 C 708.690,257.391 707.552,255.402 712.000,271.000" stroke-width="2.643" stroke="black" fill="none" stroke-linecap="round"></path><path d="M 712.000,271.000 C 710.082,276.034 713.190,275.891 708.000,281.000" stroke-width="3.157" stroke="black" fill="none" stroke-linecap="round"></path><path d="M 708.000,281.000 C 704.077,291.846 703.582,291.534 699.000,302.000" stroke-width="2.518" stroke="black" fill="none" stroke-linecap="round"></path><path d="M 699.000,302.000 C 692.875,307.835 697.577,304.846 695.000,307.000" stroke-width="3.735" stroke="black" fill="none" stroke-linecap="round"></path><path d="M 695.000,307.000 C 710.217,296.754 706.875,302.335 727.000,291.000" stroke-width="3.361" stroke="black" fill="none" stroke-linecap="round"></path><path d="M 727.000,291.000 C 745.890,285.940 745.217,284.754 765.000,283.000" stroke-width="1.939" stroke="black" fill="none" stroke-linecap="round"></path><path d="M 765.000,283.000 C 772.039,283.516 771.890,281.940 779.000,283.000" stroke-width="2.620" stroke="black" fill="none" stroke-linecap="round"></path><path d="M 779.000,283.000 C 785.471,281.768 785.539,282.516 792.000,281.000" stroke-width="2.983" stroke="black" fill="none" stroke-linecap="round"></path><path d="M 792.000,281.000 C 802.489,279.779 802.471,279.768 813.000,279.000" stroke-width="3.283" stroke="black" fill="none" stroke-linecap="round"></path><path d="M 813.000,279.000 C 816.000,279.000 815.989,278.779 819.000,279.000" stroke-width="4.206" stroke="black" fill="none" stroke-linecap="round"></path><path d="M 502.000,349.000 C 492.196,347.378 492.500,346.500 483.000,344.000" stroke-width="5.038" stroke="black" fill="none" stroke-linecap="round"></path><path d="M 483.000,344.000 C 467.734,338.032 467.696,338.378 453.000,331.000" stroke-width="2.282" stroke="black" fill="none" stroke-linecap="round"></path><path d="M 453.000,331.000 C 446.091,326.833 445.734,327.532 439.000,323.000" stroke-width="2.674" stroke="black" fill="none" stroke-linecap="round"></path><path d="M 439.000,323.000 C 427.659,316.653 427.591,316.833 416.000,311.000" stroke-width="2.344" stroke="black" fill="none" stroke-linecap="round"></path><path d="M 416.000,311.000 C 411.000,309.000 411.159,308.653 406.000,307.000" stroke-width="2.975" stroke="black" fill="none" stroke-linecap="round"></path><path d="M 406.000,307.000 C 403.583,305.704 403.500,306.000 401.000,305.000" stroke-width="3.743" stroke="black" fill="none" stroke-linecap="round"></path><path d="M 401.000,305.000 C 393.655,305.101 398.083,304.204 395.000,304.000" stroke-width="4.381" stroke="black" fill="none" stroke-linecap="round"></path><path d="M 395.000,304.000 C 403.767,300.490 399.155,300.601 412.000,296.000" stroke-width="4.880" stroke="black" fill="none" stroke-linecap="round"></path><path d="M 412.000,296.000 C 419.823,290.698 420.267,291.490 428.000,286.000" stroke-width="3.086" stroke="black" fill="none" stroke-linecap="round"></path><path d="M 428.000,286.000 C 443.115,276.716 443.323,277.198 459.000,269.000" stroke-width="2.014" stroke="black" fill="none" stroke-linecap="round"></path><path d="M 459.000,269.000 C 479.347,261.970 478.115,259.716 498.000,252.000" stroke-width="1.710" stroke="black" fill="none" stroke-linecap="round"></path><path d="M 498.000,252.000 C 507.610,245.145 508.347,246.470 517.000,238.000" stroke-width="2.068" stroke="black" fill="none" stroke-linecap="round"></path><path d="M 517.000,238.000 C 530.083,226.897 530.610,227.645 544.000,217.000" stroke-width="1.924" stroke="black" fill="none" stroke-linecap="round"></path><path d="M 544.000,217.000 C 553.949,212.671 552.583,210.897 562.000,206.000" stroke-width="2.300" stroke="black" fill="none" stroke-linecap="round"></path><path d="M 562.000,206.000 C 569.855,196.260 571.449,198.171 579.000,188.000" stroke-width="2.293" stroke="black" fill="none" stroke-linecap="round"></path><path d="M 579.000,188.000 C 585.805,182.677 585.355,182.260 593.000,178.000" stroke-width="2.570" stroke="black" fill="none" stroke-linecap="round"></path><path d="M 593.000,178.000 C 598.041,174.041 595.805,176.177 599.000,175.000" stroke-width="3.409" stroke="black" fill="none" stroke-linecap="round"></path><path d="M 599.000,175.000 C 598.924,178.977 600.041,176.041 597.000,182.000" stroke-width="4.573" stroke="black" fill="none" stroke-linecap="round"></path><path d="M 597.000,182.000 C 591.192,189.661 591.924,189.977 585.000,197.000" stroke-width="3.024" stroke="black" fill="none" stroke-linecap="round"></path><path d="M 585.000,197.000 C 577.222,205.266 577.692,205.661 570.000,214.000" stroke-width="2.500" stroke="black" fill="none" stroke-linecap="round"></path><path d="M 570.000,214.000 C 553.992,230.230 555.722,231.266 542.000,249.000" stroke-width="1.747" stroke="black" fill="none" stroke-linecap="round"></path><path d="M 542.000,249.000 C 534.476,268.346 530.992,266.230 524.000,286.000" stroke-width="1.623" stroke="black" fill="none" stroke-linecap="round"></path><path d="M 524.000,286.000 C 506.643,313.470 507.476,313.846 488.000,340.000" stroke-width="1.729" stroke="black" fill="none" stroke-linecap="round"></path><path d="M 488.000,340.000 C 480.512,350.450 480.643,350.470 472.000,360.000" stroke-width="2.011" stroke="black" fill="none" stroke-linecap="round"></path><path d="M 472.000,360.000 C 461.121,374.994 460.012,373.450 447.000,386.000" stroke-width="1.805" stroke="black" fill="none" stroke-linecap="round"></path><path d="M 447.000,386.000 C 425.504,399.507 427.121,401.494 404.000,413.000" stroke-width="2.074" stroke="black" fill="none" stroke-linecap="round"></path><path d="M 404.000,413.000 C 399.960,415.438 400.004,415.507 396.000,418.000" stroke-width="2.991" stroke="black" fill="none" stroke-linecap="round"></path><path d="M 396.000,418.000 C 391.273,420.698 391.460,420.938 387.000,424.000" stroke-width="3.290" stroke="black" fill="none" stroke-linecap="round"></path><path d="M 387.000,424.000 C 380.699,429.758 380.273,429.198 374.000,435.000" stroke-width="2.873" stroke="black" fill="none" stroke-linecap="round"></path><path d="M 374.000,435.000 C 369.219,438.868 369.199,438.758 364.000,442.000" stroke-width="3.142" stroke="black" fill="none" stroke-linecap="round"></path><path d="M 364.000,442.000 C 359.000,444.500 359.219,444.868 354.000,447.000" stroke-width="3.259" stroke="black" fill="none" stroke-linecap="round"></path><path d="M 354.000,447.000 C 351.178,448.996 351.000,448.500 348.000,450.000" stroke-width="3.722" stroke="black" fill="none" stroke-linecap="round"></path><path d="M 348.000,450.000 C 341.553,451.965 341.678,451.996 335.000,453.000" stroke-width="3.939" stroke="black" fill="none" stroke-linecap="round"></path><path d="M 335.000,453.000 C 332.000,453.000 332.053,453.465 329.000,453.000" stroke-width="4.089" stroke="black" fill="none" stroke-linecap="round"></path><path d="M 329.000,453.000 C 323.470,455.206 325.500,453.000 322.000,453.000" stroke-width="4.646" stroke="black" fill="none" stroke-linecap="round"></path><path d="M 322.000,453.000 C 319.592,446.633 319.470,449.206 321.000,441.000" stroke-width="4.266" stroke="black" fill="none" stroke-linecap="round"></path><path d="M 321.000,441.000 C 324.219,432.471 323.092,432.633 329.000,425.000" stroke-width="3.070" stroke="black" fill="none" stroke-linecap="round"></path><path d="M 329.000,425.000 C 332.262,419.685 332.219,419.971 337.000,416.000" stroke-width="3.223" stroke="black" fill="none" stroke-linecap="round"></path><path d="M 337.000,416.000 C 363.224,393.783 363.762,395.185 392.000,376.000" stroke-width="2.075" stroke="black" fill="none" stroke-linecap="round"></path><path d="M 392.000,376.000 C 409.653,369.654 407.724,366.283 426.000,361.000" stroke-width="1.848" stroke="black" fill="none" stroke-linecap="round"></path><path d="M 426.000,361.000 C 434.201,354.544 435.153,356.154 443.000,349.000" stroke-width="2.277" stroke="black" fill="none" stroke-linecap="round"></path><path d="M 443.000,349.000 C 470.271,330.349 470.701,331.544 499.000,315.000" stroke-width="2.016" stroke="black" fill="none" stroke-linecap="round"></path><path d="M 499.000,315.000 C 507.514,312.546 506.771,310.849 516.000,310.000" stroke-width="2.482" stroke="black" fill="none" stroke-linecap="round"></path><path d="M 516.000,310.000 C 522.505,308.016 522.514,308.046 529.000,306.000" stroke-width="2.848" stroke="black" fill="none" stroke-linecap="round"></path><path d="M 529.000,306.000 C 537.013,303.541 537.005,303.516 545.000,301.000" stroke-width="3.413" stroke="black" fill="none" stroke-linecap="round"></path><path d="M 545.000,301.000 C 550.730,299.000 548.013,300.041 551.000,299.000" stroke-width="4.258" stroke="black" fill="none" stroke-linecap="round"></path><path d="M 551.000,299.000 C 548.551,300.150 551.230,299.000 546.000,301.000" stroke-width="4.987" stroke="black" fill="none" stroke-linecap="round"></path><path d="M 546.000,301.000 C 542.479,301.930 542.551,302.150 539.000,303.000" stroke-width="4.146" stroke="black" fill="none" stroke-linecap="round"></path><path d="M 539.000,303.000 C 522.890,307.703 522.979,307.930 507.000,313.000" stroke-width="2.185" stroke="black" fill="none" stroke-linecap="round"></path><path d="M 507.000,313.000 C 502.850,313.577 503.390,314.203 500.000,316.000" stroke-width="3.150" stroke="black" fill="none" stroke-linecap="round"></path><path d="M 500.000,316.000 C 493.025,322.636 492.850,322.077 487.000,330.000" stroke-width="2.715" stroke="black" fill="none" stroke-linecap="round"></path><path d="M 487.000,330.000 C 484.099,333.802 484.025,333.636 482.000,338.000" stroke-width="3.244" stroke="black" fill="none" stroke-linecap="round"></path><path d="M 482.000,338.000 C 478.309,342.314 480.099,341.802 479.000,346.000" stroke-width="3.997" stroke="black" fill="none" stroke-linecap="round"></path><path d="M 479.000,346.000 C 480.591,352.677 479.809,350.314 485.000,354.000" stroke-width="4.236" stroke="black" fill="none" stroke-linecap="round"></path><path d="M 485.000,354.000 C 496.997,354.657 495.591,357.177 509.000,355.000" stroke-width="2.617" stroke="black" fill="none" stroke-linecap="round"></path><path d="M 509.000,355.000 C 514.510,355.239 514.497,355.157 520.000,355.000" stroke-width="3.129" stroke="black" fill="none" stroke-linecap="round"></path><path d="M 520.000,355.000 C 526.060,354.938 526.010,354.739 532.000,354.000" stroke-width="3.185" stroke="black" fill="none" stroke-linecap="round"></path><path d="M 532.000,354.000 C 545.546,352.774 545.060,351.938 558.000,349.000" stroke-width="3.169" stroke="black" fill="none" stroke-linecap="round"></path><path d="M 558.000,349.000 C 561.990,347.010 562.046,347.774 565.000,344.000" stroke-width="3.545" stroke="black" fill="none" stroke-linecap="round"></path><path d="M 565.000,344.000 C 569.023,339.838 568.990,340.010 572.000,335.000" stroke-width="3.359" stroke="black" fill="none" stroke-linecap="round"></path><path d="M 572.000,335.000 C 576.845,326.655 577.023,326.838 581.000,318.000" stroke-width="3.519" stroke="black" fill="none" stroke-linecap="round"></path><path d="M 581.000,318.000 C 585.205,313.414 582.845,314.155 584.000,310.000" stroke-width="3.621" stroke="black" fill="none" stroke-linecap="round"></path><path d="M 584.000,310.000 C 580.544,302.493 582.205,304.914 575.000,301.000" stroke-width="4.196" stroke="black" fill="none" stroke-linecap="round"></path><path d="M 575.000,301.000 C 566.315,301.218 567.544,298.993 558.000,303.000" stroke-width="3.113" stroke="black" fill="none" stroke-linecap="round"></path><path d="M 558.000,303.000 C 552.491,304.977 552.315,304.218 547.000,307.000" stroke-width="3.263" stroke="black" fill="none" stroke-linecap="round"></path><path d="M 547.000,307.000 C 542.528,307.717 542.991,308.477 539.000,310.000" stroke-width="3.535" stroke="black" fill="none" stroke-linecap="round"></path><path d="M 539.000,310.000 C 533.853,313.504 534.028,313.217 530.000,318.000" stroke-width="3.947" stroke="black" fill="none" stroke-linecap="round"></path><path d="M 530.000,318.000 C 528.136,320.875 527.853,320.504 527.000,324.000" stroke-width="4.007" stroke="black" fill="none" stroke-linecap="round"></path><path d="M 527.000,324.000 C 526.230,326.473 526.136,326.375 526.000,329.000" stroke-width="4.711" stroke="black" fill="none" stroke-linecap="round"></path><path d="M 526.000,329.000 C 523.628,333.729 525.730,331.973 526.000,335.000" stroke-width="4.760" stroke="black" fill="none" stroke-linecap="round"></path><path d="M 526.000,335.000 C 539.948,341.838 537.628,341.229 554.000,344.000" stroke-width="3.313" stroke="black" fill="none" stroke-linecap="round"></path><path d="M 554.000,344.000 C 559.698,343.052 559.448,344.838 565.000,341.000" stroke-width="3.351" stroke="black" fill="none" stroke-linecap="round"></path><path d="M 565.000,341.000 C 575.626,337.624 575.198,337.052 585.000,332.000" stroke-width="2.670" stroke="black" fill="none" stroke-linecap="round"></path><path d="M 585.000,332.000 C 606.352,320.050 605.626,319.624 625.000,305.000" stroke-width="2.388" stroke="black" fill="none" stroke-linecap="round"></path><path d="M 625.000,305.000 C 632.997,295.003 634.852,297.050 642.000,286.000" stroke-width="2.290" stroke="black" fill="none" stroke-linecap="round"></path><path d="M 642.000,286.000 C 654.490,274.489 653.997,274.003 667.000,263.000" stroke-width="1.984" stroke="black" fill="none" stroke-linecap="round"></path><path d="M 667.000,263.000 C 680.400,253.290 678.990,251.989 691.000,241.000" stroke-width="1.891" stroke="black" fill="none" stroke-linecap="round"></path><path d="M 691.000,241.000 C 713.642,212.107 714.900,213.290 736.000,183.000" stroke-width="1.812" stroke="black" fill="none" stroke-linecap="round"></path><path d="M 736.000,183.000 C 740.572,177.848 740.142,177.607 744.000,172.000" stroke-width="2.567" stroke="black" fill="none" stroke-linecap="round"></path><path d="M 744.000,172.000 C 748.788,163.126 749.072,163.348 753.000,154.000" stroke-width="2.573" stroke="black" fill="none" stroke-linecap="round"></path><path d="M 753.000,154.000 C 754.217,149.863 754.788,150.126 756.000,146.000" stroke-width="3.294" stroke="black" fill="none" stroke-linecap="round"></path><path d="M 756.000,146.000 C 760.371,142.200 757.217,143.363 759.000,141.000" stroke-width="3.909" stroke="black" fill="none" stroke-linecap="round"></path><path d="M 759.000,141.000 C 752.722,137.283 756.371,138.700 748.000,139.000" stroke-width="4.588" stroke="black" fill="none" stroke-linecap="round"></path><path d="M 748.000,139.000 C 742.624,144.143 741.722,141.283 737.000,149.000" stroke-width="3.274" stroke="black" fill="none" stroke-linecap="round"></path><path d="M 737.000,149.000 C 731.195,153.163 731.624,153.643 726.000,158.000" stroke-width="3.062" stroke="black" fill="none" stroke-linecap="round"></path><path d="M 726.000,158.000 C 717.256,167.268 716.695,166.663 708.000,176.000" stroke-width="2.446" stroke="black" fill="none" stroke-linecap="round"></path><path d="M 708.000,176.000 C 689.916,191.429 690.756,192.268 673.000,208.000" stroke-width="1.624" stroke="black" fill="none" stroke-linecap="round"></path><path d="M 673.000,208.000 C 665.884,215.901 665.416,215.429 659.000,224.000" stroke-width="2.151" stroke="black" fill="none" stroke-linecap="round"></path><path d="M 659.000,224.000 C 649.164,236.142 648.884,235.901 639.000,248.000" stroke-width="2.030" stroke="black" fill="none" stroke-linecap="round"></path><path d="M 639.000,248.000 C 633.305,252.973 634.164,253.642 629.000,259.000" stroke-width="2.624" stroke="black" fill="none" stroke-linecap="round"></path><path d="M 629.000,259.000 C 621.326,270.896 620.805,270.473 614.000,283.000" stroke-width="2.179" stroke="black" fill="none" stroke-linecap="round"></path><path d="M 614.000,283.000 C 609.884,289.938 609.826,289.896 606.000,297.000" stroke-width="2.580" stroke="black" fill="none" stroke-linecap="round"></path><path d="M 606.000,297.000 C 604.053,299.841 604.384,299.938 603.000,303.000" stroke-width="3.451" stroke="black" fill="none" stroke-linecap="round"></path><path d="M 603.000,303.000 C 601.480,307.443 601.553,307.341 601.000,312.000" stroke-width="3.586" stroke="black" fill="none" stroke-linecap="round"></path><path d="M 601.000,312.000 C 599.723,317.529 600.480,316.943 601.000,322.000" stroke-width="4.049" stroke="black" fill="none" stroke-linecap="round"></path><path d="M 601.000,322.000 C 602.611,326.398 601.723,324.529 605.000,326.000" stroke-width="4.791" stroke="black" fill="none" stroke-linecap="round"></path><path d="M 605.000,326.000 C 612.000,322.500 611.611,324.898 619.000,319.000" stroke-width="3.387" stroke="black" fill="none" stroke-linecap="round"></path><path d="M 619.000,319.000 C 626.840,314.627 627.000,315.000 635.000,311.000" stroke-width="2.970" stroke="black" fill="none" stroke-linecap="round"></path><path d="M 635.000,311.000 C 640.464,308.898 640.340,308.627 646.000,307.000" stroke-width="3.214" stroke="black" fill="none" stroke-linecap="round"></path><path d="M 646.000,307.000 C 658.079,303.222 657.964,302.898 670.000,299.000" stroke-width="2.338" stroke="black" fill="none" stroke-linecap="round"></path><path d="M 670.000,299.000 C 682.316,295.155 682.079,294.722 694.000,290.000" stroke-width="2.785" stroke="black" fill="none" stroke-linecap="round"></path><path d="M 694.000,290.000 C 700.205,283.187 699.316,287.655 704.000,284.000" stroke-width="3.149" stroke="black" fill="none" stroke-linecap="round"></path><path d="M 704.000,284.000 C 708.225,288.509 707.205,284.687 708.000,293.000" stroke-width="4.232" stroke="black" fill="none" stroke-linecap="round"></path><path d="M 708.000,293.000 C 705.614,298.554 707.725,298.509 703.000,304.000" stroke-width="3.524" stroke="black" fill="none" stroke-linecap="round"></path><path d="M 703.000,304.000 C 699.643,311.078 699.614,311.054 696.000,318.000" stroke-width="3.018" stroke="black" fill="none" stroke-linecap="round"></path><path d="M 696.000,318.000 C 692.096,321.644 694.643,320.578 693.000,323.000" stroke-width="3.715" stroke="black" fill="none" stroke-linecap="round"></path><path d="M 693.000,323.000 C 696.675,324.917 694.096,324.644 700.000,324.000" stroke-width="4.576" stroke="black" fill="none" stroke-linecap="round"></path><path d="M 700.000,324.000 C 711.018,319.544 711.175,320.917 722.000,315.000" stroke-width="2.668" stroke="black" fill="none" stroke-linecap="round"></path><path d="M 722.000,315.000 C 725.511,313.526 725.518,313.544 729.000,312.000" stroke-width="3.377" stroke="black" fill="none" stroke-linecap="round"></path><path d="M 729.000,312.000 C 733.489,309.974 733.511,310.026 738.000,308.000" stroke-width="3.450" stroke="black" fill="none" stroke-linecap="round"></path><path d="M 738.000,308.000 C 741.870,304.165 741.489,306.474 745.000,305.000" stroke-width="3.695" stroke="black" fill="none" stroke-linecap="round"></path><path d="M 745.000,305.000 C 748.640,309.017 749.370,306.165 753.000,312.000" stroke-width="4.748" stroke="black" fill="none" stroke-linecap="round"></path><path d="M 753.000,312.000 C 758.451,315.093 758.140,315.517 764.000,318.000" stroke-width="3.508" stroke="black" fill="none" stroke-linecap="round"></path><path d="M 764.000,318.000 C 768.752,321.116 768.951,320.593 774.000,323.000" stroke-width="3.427" stroke="black" fill="none" stroke-linecap="round"></path><path d="M 774.000,323.000 C 788.444,327.719 788.252,328.116 803.000,332.000" stroke-width="3.030" stroke="black" fill="none" stroke-linecap="round"></path><path d="M 803.000,332.000 C 805.473,332.770 805.444,332.719 808.000,333.000" stroke-width="3.865" stroke="black" fill="none" stroke-linecap="round"></path><path d="M 808.000,333.000 C 811.000,333.000 810.973,333.270 814.000,333.000" stroke-width="4.020" stroke="black" fill="none" stroke-linecap="round"></path><path d="M 814.000,333.000 C 818.848,334.473 818.500,333.000 823.000,333.000" stroke-width="4.908" stroke="black" fill="none" stroke-linecap="round"></path><path d="M 823.000,333.000 C 834.553,328.410 834.348,328.973 845.000,322.000" stroke-width="2.653" stroke="black" fill="none" stroke-linecap="round"></path><path d="M 845.000,322.000 C 856.269,314.347 856.553,314.910 867.000,306.000" stroke-width="2.290" stroke="black" fill="none" stroke-linecap="round"></path><path d="M 867.000,306.000 C 879.713,297.741 878.769,296.847 890.000,287.000" stroke-width="2.051" stroke="black" fill="none" stroke-linecap="round"></path><path d="M 890.000,287.000 C 914.781,262.743 913.713,262.241 935.000,235.000" stroke-width="1.292" stroke="black" fill="none" stroke-linecap="round"></path><path d="M 935.000,235.000 C 976.547,172.178 979.281,174.243 1019.000,110.000" stroke-width="1.125" stroke="black" fill="none" stroke-linecap="round"></path><path d="M 1019.000,110.000 C 1027.006,100.325 1026.047,99.678 1034.000,90.000" stroke-width="1.614" stroke="black" fill="none" stroke-linecap="round"></path><path d="M 1034.000,90.000 C 1036.981,84.489 1037.506,84.825 1040.000,79.000" stroke-width="2.452" stroke="black" fill="none" stroke-linecap="round"></path><path d="M 1040.000,79.000 C 1047.426,72.252 1042.481,74.489 1045.000,70.000" stroke-width="3.515" stroke="black" fill="none" stroke-linecap="round"></path><path d="M 1045.000,70.000 C 1034.958,64.880 1040.426,65.752 1026.000,66.000" stroke-width="3.874" stroke="black" fill="none" stroke-linecap="round"></path><path d="M 1026.000,66.000 C 1019.141,69.497 1018.958,66.880 1013.000,74.000" stroke-width="3.189" stroke="black" fill="none" stroke-linecap="round"></path><path d="M 1013.000,74.000 C 1004.264,80.728 1004.141,80.497 996.000,88.000" stroke-width="2.565" stroke="black" fill="none" stroke-linecap="round"></path><path d="M 996.000,88.000 C 978.192,102.009 979.264,102.728 963.000,118.000" stroke-width="2.442" stroke="black" fill="none" stroke-linecap="round"></path><path d="M 963.000,118.000 C 960.500,123.000 959.192,122.009 958.000,128.000" stroke-width="3.081" stroke="black" fill="none" stroke-linecap="round"></path><path d="M 958.000,128.000 C 948.823,145.913 949.000,146.000 940.000,164.000" stroke-width="1.870" stroke="black" fill="none" stroke-linecap="round"></path><path d="M 940.000,164.000 C 929.963,187.569 928.823,186.913 918.000,210.000" stroke-width="2.096" stroke="black" fill="none" stroke-linecap="round"></path><path d="M 918.000,210.000 C 913.241,217.186 913.963,217.569 908.000,224.000" stroke-width="2.630" stroke="black" fill="none" stroke-linecap="round"></path><path d="M 908.000,224.000 C 903.058,230.049 903.241,230.186 898.000,236.000" stroke-width="2.778" stroke="black" fill="none" stroke-linecap="round"></path><path d="M 898.000,236.000 C 894.128,239.735 894.558,240.049 891.000,244.000" stroke-width="3.223" stroke="black" fill="none" stroke-linecap="round"></path><path d="M 891.000,244.000 C 889.031,247.518 888.628,247.235 887.000,251.000" stroke-width="3.568" stroke="black" fill="none" stroke-linecap="round"></path><path d="M 887.000,251.000 C 884.533,253.333 885.531,253.518 884.000,256.000" stroke-width="4.478" stroke="black" fill="none" stroke-linecap="round"></path><path d="M 884.000,256.000 C 885.466,258.551 883.533,258.333 885.000,261.000" stroke-width="5.133" stroke="black" fill="none" stroke-linecap="round"></path><path d="M 885.000,261.000 C 883.281,269.345 883.466,269.051 880.000,277.000" stroke-width="4.094" stroke="black" fill="none" stroke-linecap="round"></path><path d="M 880.000,277.000 C 876.966,283.335 877.281,283.345 873.000,289.000" stroke-width="3.340" stroke="black" fill="none" stroke-linecap="round"></path><path d="M 873.000,289.000 C 869.365,292.888 869.966,293.335 866.000,297.000" stroke-width="3.368" stroke="black" fill="none" stroke-linecap="round"></path><path d="M 866.000,297.000 C 859.711,303.517 860.365,303.888 855.000,311.000" stroke-width="2.908" stroke="black" fill="none" stroke-linecap="round"></path><path d="M 855.000,311.000 C 851.774,317.411 851.211,317.017 849.000,324.000" stroke-width="3.460" stroke="black" fill="none" stroke-linecap="round"></path><path d="M 849.000,324.000 C 847.830,326.955 847.774,326.911 847.000,330.000" stroke-width="4.268" stroke="black" fill="none" stroke-linecap="round"></path><path d="M 847.000,330.000 C 844.818,335.169 846.330,332.455 846.000,335.000" stroke-width="4.821" stroke="black" fill="none" stroke-linecap="round"></path><path d="M 846.000,335.000 C 850.370,332.403 848.318,334.669 854.000,329.000" stroke-width="5.120" stroke="black" fill="none" stroke-linecap="round"></path><path d="M 854.000,329.000 C 858.176,324.644 858.370,324.903 862.000,320.000" stroke-width="3.688" stroke="black" fill="none" stroke-linecap="round"></path><path d="M 862.000,320.000 C 864.922,315.940 865.176,316.144 868.000,312.000" stroke-width="3.584" stroke="black" fill="none" stroke-linecap="round"></path><path d="M 868.000,312.000 C 876.555,299.060 877.422,299.940 887.000,288.000" stroke-width="2.241" stroke="black" fill="none" stroke-linecap="round"></path><path d="M 887.000,288.000 C 893.568,280.392 893.555,281.060 902.000,276.000" stroke-width="2.453" stroke="black" fill="none" stroke-linecap="round"></path><path d="M 902.000,276.000 C 918.355,268.975 917.568,267.892 935.000,263.000" stroke-width="2.280" stroke="black" fill="none" stroke-linecap="round"></path><path d="M 935.000,263.000 C 937.979,262.252 937.855,261.975 941.000,262.000" stroke-width="3.355" stroke="black" fill="none" stroke-linecap="round"></path><path d="M 941.000,262.000 C 946.587,259.628 943.979,261.752 947.000,262.000" stroke-width="4.365" stroke="black" fill="none" stroke-linecap="round"></path><path d="M 947.000,262.000 C 946.825,273.687 948.587,271.128 945.000,285.000" stroke-width="3.601" stroke="black" fill="none" stroke-linecap="round"></path><path d="M 945.000,285.000 C 943.814,289.145 944.325,289.187 942.000,293.000" stroke-width="3.700" stroke="black" fill="none" stroke-linecap="round"></path><path d="M 942.000,293.000 C 938.986,297.265 939.814,297.645 937.000,302.000" stroke-width="3.501" stroke="black" fill="none" stroke-linecap="round"></path><path d="M 937.000,302.000 C 932.880,312.958 932.486,312.765 929.000,324.000" stroke-width="2.550" stroke="black" fill="none" stroke-linecap="round"></path><path d="M 929.000,324.000 C 926.427,331.476 926.380,331.458 924.000,339.000" stroke-width="3.334" stroke="black" fill="none" stroke-linecap="round"></path><path d="M 924.000,339.000 C 921.650,347.050 921.427,346.976 919.000,355.000" stroke-width="2.966" stroke="black" fill="none" stroke-linecap="round"></path><path d="M 919.000,355.000 C 916.609,362.041 916.650,362.050 914.000,369.000" stroke-width="2.931" stroke="black" fill="none" stroke-linecap="round"></path><path d="M 914.000,369.000 C 912.748,374.387 912.109,374.041 910.000,379.000" stroke-width="3.272" stroke="black" fill="none" stroke-linecap="round"></path><path d="M 910.000,379.000 C 900.138,399.456 898.748,397.887 886.000,416.000" stroke-width="2.615" stroke="black" fill="none" stroke-linecap="round"></path><path d="M 886.000,416.000 C 875.157,425.955 876.638,426.956 863.000,434.000" stroke-width="2.267" stroke="black" fill="none" stroke-linecap="round"></path><path d="M 863.000,434.000 C 841.632,450.009 841.157,448.455 818.000,461.000" stroke-width="1.504" stroke="black" fill="none" stroke-linecap="round"></path><path d="M 818.000,461.000 C 798.209,471.691 798.632,470.009 777.000,474.000" stroke-width="1.519" stroke="black" fill="none" stroke-linecap="round"></path><path d="M 777.000,474.000 C 723.994,476.165 724.709,479.691 671.000,477.000" stroke-width="1.385" stroke="black" fill="none" stroke-linecap="round"></path><path d="M 671.000,477.000 C 660.443,477.160 660.494,477.165 650.000,476.000" stroke-width="2.056" stroke="black" fill="none" stroke-linecap="round"></path><path d="M 650.000,476.000 C 605.947,472.505 606.443,471.160 563.000,465.000" stroke-width="1.664" stroke="black" fill="none" stroke-linecap="round"></path><path d="M 563.000,465.000 C 554.537,462.355 554.447,463.505 547.000,458.000" stroke-width="2.312" stroke="black" fill="none" stroke-linecap="round"></path><path d="M 547.000,458.000 C 526.331,453.819 532.037,449.355 518.000,439.000" stroke-width="1.909" stroke="black" fill="none" stroke-linecap="round"></path><path d="M 518.000,439.000 C 473.085,349.154 469.831,353.319 434.000,257.000" stroke-width="1.125" stroke="black" fill="none" stroke-linecap="round"></path><path d="M 434.000,257.000 C 415.759,220.472 418.585,220.654 409.000,182.000" stroke-width="1.125" stroke="black" fill="none" stroke-linecap="round"></path><path d="M 409.000,182.000 C 396.428,141.714 402.759,146.472 408.000,109.000" stroke-width="1.125" stroke="black" fill="none" stroke-linecap="round"></path><path d="M 408.000,109.000 C 417.700,38.536 422.428,68.214 461.000,35.000" stroke-width="1.223" stroke="black" fill="none" stroke-linecap="round"></path><path d="M 461.000,35.000 C 914.542,28.173 791.200,8.036 1155.000,48.000" stroke-width="1.264" stroke="black" fill="none" stroke-linecap="round"></path><path d="M 1155.000,48.000 C 1093.380,66.489 1199.542,51.673 1031.000,82.000" stroke-width="1.125" stroke="black" fill="none" stroke-linecap="round"></path><path d="M 1031.000,82.000 C 908.644,114.254 908.380,112.489 785.000,140.000" stroke-width="1.125" stroke="black" fill="none" stroke-linecap="round"></path><path d="M 785.000,140.000 C 713.699,152.968 714.144,154.754 642.000,163.000" stroke-width="1.125" stroke="black" fill="none" stroke-linecap="round"></path><path d="M 642.000,163.000 C 591.850,167.441 592.199,169.968 542.000,174.000" stroke-width="1.125" stroke="black" fill="none" stroke-linecap="round"></path><path d="M 542.000,174.000 C 516.051,179.092 515.850,177.441 490.000,183.000" stroke-width="1.300" stroke="black" fill="none" stroke-linecap="round"></path><path d="M 941.000,295.000 C 973.965,291.559 974.000,292.000 1007.000,289.000" stroke-width="3.901" stroke="black" fill="none" stroke-linecap="round"></path><path d="M 1007.000,289.000 C 1044.954,285.093 1044.965,286.059 1083.000,284.000" stroke-width="1.260" stroke="black" fill="none" stroke-linecap="round"></path><path d="M 1083.000,284.000 C 1132.000,284.000 1131.954,282.593 1181.000,284.000" stroke-width="1.125" stroke="black" fill="none" stroke-linecap="round"></path><path d="M 1181.000,284.000 C 1203.516,283.606 1203.500,284.000 1226.000,284.000" stroke-width="1.232" stroke="black" fill="none" stroke-linecap="round"></path><path d="M 1226.000,284.000 C 1232.029,284.254 1232.016,284.106 1238.000,285.000" stroke-width="2.192" stroke="black" fill="none" stroke-linecap="round"></path><path d="M 1238.000,285.000 C 1248.238,285.747 1248.029,286.254 1258.000,288.000" stroke-width="2.389" stroke="black" fill="none" stroke-linecap="round"></path><path d="M 1258.000,288.000 C 1262.136,288.515 1261.238,288.747 1264.000,291.000" stroke-width="3.642" stroke="black" fill="none" stroke-linecap="round"></path><path d="M 1264.000,291.000 C 1266.081,295.406 1266.636,294.515 1267.000,300.000" stroke-width="3.564" stroke="black" fill="none" stroke-linecap="round"></path><path d="M 1267.000,300.000 C 1265.557,303.655 1267.581,302.906 1267.000,306.000" stroke-width="4.337" stroke="black" fill="none" stroke-linecap="round"></path><path d="M 1267.000,306.000 C 1270.157,311.148 1269.557,310.155 1275.000,313.000" stroke-width="3.684" stroke="black" fill="none" stroke-linecap="round"></path><path d="M 1275.000,313.000 C 1287.846,317.356 1287.157,317.648 1301.000,319.000" stroke-width="2.419" stroke="black" fill="none" stroke-linecap="round"></path><path d="M 1301.000,319.000 C 1312.036,318.423 1311.846,320.356 1323.000,319.000" stroke-width="2.383" stroke="black" fill="none" stroke-linecap="round"></path><path d="M 1323.000,319.000 C 1332.790,317.732 1331.036,319.423 1339.000,321.000" stroke-width="2.715" stroke="black" fill="none" stroke-linecap="round"></path><path d="M 1339.000,321.000 C 1339.595,325.633 1342.290,322.732 1342.000,329.000" stroke-width="3.962" stroke="black" fill="none" stroke-linecap="round"></path><path d="M 1342.000,329.000 C 1344.757,334.184 1344.595,332.633 1349.000,335.000" stroke-width="4.257" stroke="black" fill="none" stroke-linecap="round"></path><path d="M 1349.000,335.000 C 1358.910,336.053 1357.757,336.684 1368.000,334.000" stroke-width="2.916" stroke="black" fill="none" stroke-linecap="round"></path><path d="M 1368.000,334.000 C 1373.935,330.854 1374.410,332.553 1380.000,328.000" stroke-width="3.072" stroke="black" fill="none" stroke-linecap="round"></path><path d="M 1380.000,328.000 C 1386.500,325.400 1382.435,326.854 1385.000,326.000" stroke-width="4.145" stroke="black" fill="none" stroke-linecap="round"></path><path d="M 1385.000,326.000 C 1374.781,329.529 1379.000,328.400 1365.000,334.000" stroke-width="3.958" stroke="black" fill="none" stroke-linecap="round"></path><path d="M 1365.000,334.000 C 1357.414,337.848 1357.281,337.529 1350.000,342.000" stroke-width="3.147" stroke="black" fill="none" stroke-linecap="round"></path><path d="M 1350.000,342.000 C 1345.503,346.255 1344.914,344.848 1340.000,348.000" stroke-width="3.277" stroke="black" fill="none" stroke-linecap="round"></path><path d="M 1340.000,348.000 C 1324.620,352.341 1325.003,352.755 1309.000,355.000" stroke-width="2.085" stroke="black" fill="none" stroke-linecap="round"></path><path d="M 1309.000,355.000 C 1301.011,355.862 1301.120,356.341 1293.000,356.000" stroke-width="2.593" stroke="black" fill="none" stroke-linecap="round"></path><path d="M 1293.000,356.000 C 1272.000,356.000 1272.011,356.362 1251.000,356.000" stroke-width="1.764" stroke="black" fill="none" stroke-linecap="round"></path><path d="M 1251.000,356.000 C 1182.500,356.000 1182.500,356.000 1114.000,356.000" stroke-width="1.256" stroke="black" fill="none" stroke-linecap="round"></path><path d="M 1114.000,356.000 C 1074.500,356.000 1074.500,356.000 1035.000,356.000" stroke-width="1.125" stroke="black" fill="none" stroke-linecap="round"></path><path d="M 1035.000,356.000 C 998.500,356.000 998.500,356.000 962.000,356.000" stroke-width="1.125" stroke="black" fill="none" stroke-linecap="round"></path><path d="M 962.000,356.000 C 944.988,356.465 945.000,356.000 928.000,356.000" stroke-width="1.525" stroke="black" fill="none" stroke-linecap="round"></path><path d="M 928.000,356.000 C 908.504,354.848 908.488,355.465 889.000,354.000" stroke-width="2.114" stroke="black" fill="none" stroke-linecap="round"></path><path d="M 889.000,354.000 C 885.471,353.711 885.504,353.848 882.000,354.000" stroke-width="3.177" stroke="black" fill="none" stroke-linecap="round"></path><path d="M 882.000,354.000 C 879.406,354.198 879.471,354.211 877.000,355.000" stroke-width="3.868" stroke="black" fill="none" stroke-linecap="round"></path></svg>