<svg xmlns="http://www.w3.org/2000/svg" xmlns:xlink="http://www.w3.org/1999/xlink" viewBox="0 0 1460 592" width="1460" height="592"><path d="M 812.000,305.000 C 807.492,304.750 807.500,305.000 803.000,305.000" stroke-width="5.200" stroke="black" fill="none" stroke-linecap="round"></path><path d="M 803.000,305.000 C 780.517,306.804 780.492,306.250 758.000,308.000" stroke-width="1.876" stroke="black" fill="none" stroke-linecap="round"></path><path d="M 758.000,308.000 C 724.010,309.948 724.017,309.804 690.000,311.000" stroke-width="1.229" stroke="black" fill="none" stroke-linecap="round"></path><path d="M 690.000,311.000 C 675.500,311.000 675.510,311.448 661.000,311.000" stroke-width="1.722" stroke="black" fill="none" stroke-linecap="round"></path><path d="M 661.000,311.000 C 637.957,311.998 638.000,311.000 615.000,311.000" stroke-width="1.574" stroke="black" fill="none" stroke-linecap="round"></path><path d="M 615.000,311.000 C 591.981,309.189 591.957,309.998 569.000,307.000" stroke-width="1.531" stroke="black" fill="none" stroke-linecap="round"></path><path d="M 569.000,307.000 C 560.485,306.116 560.481,306.189 552.000,305.000" stroke-width="2.205" stroke="black" fill="none" stroke-linecap="round"></path><path d="M 552.000,305.000 C 541.526,303.128 541.485,303.616 531.000,302.000" stroke-width="2.405" stroke="black" fill="none" stroke-linecap="round"></path><path d="M 531.000,302.000 C 527.491,302.194 527.526,301.628 524.000,302.000" stroke-width="3.329" stroke="black" fill="none" stroke-linecap="round"></path><path d="M 524.000,302.000 C 518.512,301.240 518.491,301.694 513.000,301.000" stroke-width="3.385" stroke="black" fill="none" stroke-linecap="round"></path><path d="M 513.000,301.000 C 507.000,301.000 507.012,300.740 501.000,301.000" stroke-width="3.264" stroke="black" fill="none" stroke-linecap="round"></path><path d="M 501.000,301.000 C 491.156,301.527 497.000,301.000 493.000,301.000" stroke-width="4.232" stroke="black" fill="none" stroke-linecap="round"></path><path d="M 493.000,301.000 C 503.856,297.497 498.156,299.527 515.000,297.000" stroke-width="3.576" stroke="black" fill="none" stroke-linecap="round"></path><path d="M 515.000,297.000 C 559.999,296.259 559.856,294.997 605.000,296.000" stroke-width="1.153" stroke="black" fill="none" stroke-linecap="round"></path><path d="M 605.000,296.000 C 647.015,295.148 646.999,295.759 689.000,296.000" stroke-width="1.125" stroke="black" fill="none" stroke-linecap="round"></path><path d="M 689.000,296.000 C 745.495,298.144 745.515,297.148 802.000,300.000" stroke-width="1.125" stroke="black" fill="none" stroke-linecap="round"></path><path d="M 802.000,300.000 C 882.499,302.528 882.495,302.644 963.000,305.000" stroke-width="1.125" stroke="black" fill="none" stroke-linecap="round"></path><path d="M 963.000,305.000 C 996.497,306.111 996.499,306.028 1030.000,307.000" stroke-width="1.125" stroke="black" fill="none" stroke-linecap="round"></path><path d="M 1030.000,307.000 C 1053.094,308.727 1052.997,307.611 1076.000,308.000" stroke-width="1.231" stroke="black" fill="none" stroke-linecap="round"></path><path d="M 1076.000,308.000 C 1084.560,306.758 1084.594,307.727 1093.000,305.000" stroke-width="1.990" stroke="black" fill="none" stroke-linecap="round"></path></svg>