<svg xmlns="http://www.w3.org/2000/svg" xmlns:xlink="http://www.w3.org/1999/xlink" viewBox="0 0 751 330" width="751" height="330"><path d="M 85.500,104.000 C 91.500,104.000 91.500,104.000 97.500,104.000" stroke-width="4.802" stroke="black" fill="none" stroke-linecap="round"></path><path d="M 97.500,104.000 C 102.500,104.000 102.500,104.000 107.500,104.000" stroke-width="3.962" stroke="black" fill="none" stroke-linecap="round"></path><path d="M 107.500,104.000 C 113.512,104.260 113.500,104.000 119.500,104.000" stroke-width="3.472" stroke="black" fill="none" stroke-linecap="round"></path><path d="M 119.500,104.000 C 125.033,103.745 125.012,103.760 130.500,103.000" stroke-width="3.370" stroke="black" fill="none" stroke-linecap="round"></path><path d="M 130.500,103.000 C 136.049,102.211 136.033,102.245 141.500,101.000" stroke-width="3.386" stroke="black" fill="none" stroke-linecap="round"></path><path d="M 141.500,101.000 C 144.959,99.817 145.049,100.211 148.500,99.000" stroke-width="3.755" stroke="black" fill="none" stroke-linecap="round"></path><path d="M 148.500,99.000 C 154.304,96.628 151.459,98.317 154.500,98.000" stroke-width="3.974" stroke="black" fill="none" stroke-linecap="round"></path><path d="M 154.500,98.000 C 153.040,103.471 154.804,100.128 149.500,106.000" stroke-width="4.634" stroke="black" fill="none" stroke-linecap="round"></path><path d="M 149.500,106.000 C 141.390,108.000 146.040,108.471 140.500,108.000" stroke-width="3.158" stroke="black" fill="none" stroke-linecap="round"></path><path d="M 130.500,106.000 C 124.555,102.890 127.000,105.500 123.500,105.000" stroke-width="5.315" stroke="black" fill="none" stroke-linecap="round"></path><path d="M 123.500,105.000 C 124.000,111.500 121.555,108.890 124.500,118.000" stroke-width="4.426" stroke="black" fill="none" stroke-linecap="round"></path><path d="M 124.500,118.000 C 125.250,124.490 125.000,124.500 125.500,131.000" stroke-width="3.406" stroke="black" fill="none" stroke-linecap="round"></path><path d="M 125.500,131.000 C 125.500,137.500 125.750,137.490 125.500,144.000" stroke-width="3.188" stroke="black" fill="none" stroke-linecap="round"></path><path d="M 125.500,144.000 C 125.500,150.000 125.500,150.000 125.500,156.000" stroke-width="3.206" stroke="black" fill="none" stroke-linecap="round"></path><path d="M 125.500,156.000 C 125.500,163.000 125.500,163.000 125.500,170.000" stroke-width="3.120" stroke="black" fill="none" stroke-linecap="round"></path><path d="M 125.500,170.000 C 127.293,178.380 125.500,178.000 125.500,186.000" stroke-width="2.961" stroke="black" fill="none" stroke-linecap="round"></path><path d="M 125.500,186.000 C 122.437,195.577 123.293,195.380 117.500,204.000" stroke-width="2.639" stroke="black" fill="none" stroke-linecap="round"></path><path d="M 117.500,204.000 C 113.233,209.711 113.937,210.077 108.500,215.000" stroke-width="2.922" stroke="black" fill="none" stroke-linecap="round"></path><path d="M 108.500,215.000 C 105.127,220.108 104.733,219.211 100.500,223.000" stroke-width="3.227" stroke="black" fill="none" stroke-linecap="round"></path><path d="M 100.500,223.000 C 96.567,224.548 97.127,225.108 92.500,225.000" stroke-width="3.552" stroke="black" fill="none" stroke-linecap="round"></path><path d="M 92.500,225.000 C 87.443,225.520 87.567,225.548 82.500,225.000" stroke-width="3.597" stroke="black" fill="none" stroke-linecap="round"></path><path d="M 82.500,225.000 C 77.317,225.245 77.943,224.520 73.500,223.000" stroke-width="3.682" stroke="black" fill="none" stroke-linecap="round"></path><path d="M 73.500,223.000 C 69.044,219.362 68.817,220.245 65.500,215.000" stroke-width="3.463" stroke="black" fill="none" stroke-linecap="round"></path><path d="M 65.500,215.000 C 62.599,211.198 62.544,211.362 60.500,207.000" stroke-width="3.570" stroke="black" fill="none" stroke-linecap="round"></path><path d="M 60.500,207.000 C 58.668,203.089 58.599,203.198 57.500,199.000" stroke-width="3.690" stroke="black" fill="none" stroke-linecap="round"></path><path d="M 57.500,199.000 C 56.962,196.006 56.668,196.089 56.500,193.000" stroke-width="3.996" stroke="black" fill="none" stroke-linecap="round"></path><path d="M 56.500,193.000 C 55.216,189.406 55.962,189.506 55.500,186.000" stroke-width="4.436" stroke="black" fill="none" stroke-linecap="round"></path><path d="M 157.500,205.000 C 161.360,202.592 161.500,203.000 165.500,201.000" stroke-width="4.864" stroke="black" fill="none" stroke-linecap="round"></path><path d="M 165.500,201.000 C 168.029,200.618 167.860,200.092 170.500,200.000" stroke-width="4.475" stroke="black" fill="none" stroke-linecap="round"></path><path d="M 170.500,200.000 C 174.178,199.424 174.029,199.118 177.500,198.000" stroke-width="4.085" stroke="black" fill="none" stroke-linecap="round"></path><path d="M 177.500,198.000 C 181.234,196.333 181.178,196.424 184.500,194.000" stroke-width="3.893" stroke="black" fill="none" stroke-linecap="round"></path><path d="M 184.500,194.000 C 188.414,191.367 188.234,191.333 191.500,188.000" stroke-width="3.660" stroke="black" fill="none" stroke-linecap="round"></path><path d="M 191.500,188.000 C 193.687,185.108 193.914,185.367 195.500,182.000" stroke-width="3.943" stroke="black" fill="none" stroke-linecap="round"></path><path d="M 195.500,182.000 C 199.308,178.625 197.187,179.108 198.500,176.000" stroke-width="3.957" stroke="black" fill="none" stroke-linecap="round"></path><path d="M 198.500,176.000 C 195.763,170.658 197.308,172.125 191.500,169.000" stroke-width="4.247" stroke="black" fill="none" stroke-linecap="round"></path><path d="M 191.500,169.000 C 185.829,168.031 186.763,167.158 180.500,169.000" stroke-width="3.563" stroke="black" fill="none" stroke-linecap="round"></path><path d="M 180.500,169.000 C 174.687,170.406 174.829,170.031 169.500,173.000" stroke-width="3.337" stroke="black" fill="none" stroke-linecap="round"></path><path d="M 169.500,173.000 C 165.480,175.020 165.687,174.906 162.500,178.000" stroke-width="3.556" stroke="black" fill="none" stroke-linecap="round"></path><path d="M 162.500,178.000 C 160.283,180.258 160.480,180.020 159.500,183.000" stroke-width="3.976" stroke="black" fill="none" stroke-linecap="round"></path><path d="M 159.500,183.000 C 158.500,187.495 158.283,187.258 158.500,192.000" stroke-width="4.233" stroke="black" fill="none" stroke-linecap="round"></path><path d="M 158.500,192.000 C 157.014,198.856 158.500,197.495 159.500,203.000" stroke-width="4.220" stroke="black" fill="none" stroke-linecap="round"></path><path d="M 159.500,203.000 C 163.311,205.604 161.514,206.356 167.500,207.000" stroke-width="4.381" stroke="black" fill="none" stroke-linecap="round"></path><path d="M 167.500,207.000 C 170.982,207.749 170.811,208.104 174.500,208.000" stroke-width="4.034" stroke="black" fill="none" stroke-linecap="round"></path><path d="M 174.500,208.000 C 178.000,208.000 177.982,208.249 181.500,208.000" stroke-width="3.999" stroke="black" fill="none" stroke-linecap="round"></path><path d="M 181.500,208.000 C 185.000,208.000 185.000,208.000 188.500,208.000" stroke-width="3.989" stroke="black" fill="none" stroke-linecap="round"></path><path d="M 188.500,208.000 C 192.000,208.000 192.000,208.000 195.500,208.000" stroke-width="3.935" stroke="black" fill="none" stroke-linecap="round"></path><path d="M 195.500,208.000 C 198.500,208.000 198.500,208.000 201.500,208.000" stroke-width="4.088" stroke="black" fill="none" stroke-linecap="round"></path><path d="M 201.500,208.000 C 205.530,208.305 205.500,208.000 209.500,208.000" stroke-width="4.386" stroke="black" fill="none" stroke-linecap="round"></path><path d="M 209.500,208.000 C 213.527,208.752 212.030,207.805 214.500,207.000" stroke-width="4.728" stroke="black" fill="none" stroke-linecap="round"></path><path d="M 225.500,172.000 C 227.898,174.788 227.000,175.000 228.500,178.000" stroke-width="5.267" stroke="black" fill="none" stroke-linecap="round"></path><path d="M 228.500,178.000 C 228.500,183.000 229.398,182.788 228.500,188.000" stroke-width="3.928" stroke="black" fill="none" stroke-linecap="round"></path><path d="M 228.500,188.000 C 229.048,193.067 228.500,193.000 228.500,198.000" stroke-width="3.704" stroke="black" fill="none" stroke-linecap="round"></path><path d="M 228.500,198.000 C 227.363,201.972 228.048,202.067 226.500,206.000" stroke-width="3.762" stroke="black" fill="none" stroke-linecap="round"></path><path d="M 226.500,206.000 C 223.914,211.824 225.863,208.972 225.500,212.000" stroke-width="4.416" stroke="black" fill="none" stroke-linecap="round"></path><path d="M 225.500,212.000 C 231.208,210.434 228.414,212.324 235.500,207.000" stroke-width="4.385" stroke="black" fill="none" stroke-linecap="round"></path><path d="M 235.500,207.000 C 240.643,201.624 241.208,202.434 245.500,196.000" stroke-width="3.383" stroke="black" fill="none" stroke-linecap="round"></path><path d="M 245.500,196.000 C 250.029,190.523 250.143,190.624 254.500,185.000" stroke-width="3.089" stroke="black" fill="none" stroke-linecap="round"></path><path d="M 254.500,185.000 C 258.430,179.942 258.529,180.023 262.500,175.000" stroke-width="3.114" stroke="black" fill="none" stroke-linecap="round"></path><path d="M 262.500,175.000 C 265.254,171.246 265.430,171.442 268.500,168.000" stroke-width="3.515" stroke="black" fill="none" stroke-linecap="round"></path><path d="M 268.500,168.000 C 271.673,163.315 270.754,165.746 273.500,164.000" stroke-width="3.896" stroke="black" fill="none" stroke-linecap="round"></path><path d="M 273.500,164.000 C 276.697,167.452 275.673,164.815 276.500,171.000" stroke-width="4.592" stroke="black" fill="none" stroke-linecap="round"></path><path d="M 276.500,171.000 C 274.500,176.500 276.197,176.452 272.500,182.000" stroke-width="3.694" stroke="black" fill="none" stroke-linecap="round"></path><path d="M 272.500,182.000 C 270.422,187.473 270.500,187.500 268.500,193.000" stroke-width="3.432" stroke="black" fill="none" stroke-linecap="round"></path><path d="M 268.500,193.000 C 266.161,198.910 266.422,198.973 264.500,205.000" stroke-width="3.285" stroke="black" fill="none" stroke-linecap="round"></path><path d="M 264.500,205.000 C 263.060,209.956 263.161,209.910 262.500,215.000" stroke-width="3.389" stroke="black" fill="none" stroke-linecap="round"></path><path d="M 262.500,215.000 C 260.997,223.000 262.060,218.956 262.500,223.000" stroke-width="3.683" stroke="black" fill="none" stroke-linecap="round"></path><path d="M 262.500,223.000 C 268.092,215.000 264.497,223.000 269.500,215.000" stroke-width="4.273" stroke="black" fill="none" stroke-linecap="round"></path><path d="M 298.500,174.000 C 298.687,177.009 298.500,177.000 298.500,180.000" stroke-width="5.298" stroke="black" fill="none" stroke-linecap="round"></path><path d="M 298.500,180.000 C 298.562,185.113 298.187,185.009 297.500,190.000" stroke-width="3.991" stroke="black" fill="none" stroke-linecap="round"></path><path d="M 297.500,190.000 C 295.650,196.551 296.062,196.613 293.500,203.000" stroke-width="3.343" stroke="black" fill="none" stroke-linecap="round"></path><path d="M 293.500,203.000 C 289.262,211.707 292.150,207.051 290.500,211.000" stroke-width="3.563" stroke="black" fill="none" stroke-linecap="round"></path><path d="M 290.500,211.000 C 296.196,205.455 292.762,209.707 300.500,199.000" stroke-width="4.270" stroke="black" fill="none" stroke-linecap="round"></path><path d="M 300.500,199.000 C 303.057,192.738 304.196,193.455 306.500,187.000" stroke-width="3.414" stroke="black" fill="none" stroke-linecap="round"></path><path d="M 306.500,187.000 C 310.675,180.244 310.557,180.238 315.500,174.000" stroke-width="3.109" stroke="black" fill="none" stroke-linecap="round"></path><path d="M 315.500,174.000 C 319.134,169.109 319.175,169.244 323.500,165.000" stroke-width="3.235" stroke="black" fill="none" stroke-linecap="round"></path><path d="M 323.500,165.000 C 327.746,161.056 327.634,161.109 332.500,158.000" stroke-width="3.471" stroke="black" fill="none" stroke-linecap="round"></path><path d="M 332.500,158.000 C 337.781,154.130 334.746,156.556 337.500,156.000" stroke-width="3.995" stroke="black" fill="none" stroke-linecap="round"></path><path d="M 337.500,156.000 C 334.099,167.269 336.281,164.130 329.500,178.000" stroke-width="3.929" stroke="black" fill="none" stroke-linecap="round"></path><path d="M 329.500,178.000 C 325.221,184.198 326.599,184.769 322.500,191.000" stroke-width="3.168" stroke="black" fill="none" stroke-linecap="round"></path><path d="M 322.500,191.000 C 320.711,196.946 320.221,196.698 319.500,203.000" stroke-width="3.171" stroke="black" fill="none" stroke-linecap="round"></path><path d="M 319.500,203.000 C 318.500,207.018 318.711,206.946 318.500,211.000" stroke-width="3.549" stroke="black" fill="none" stroke-linecap="round"></path><path d="M 318.500,211.000 C 317.892,214.851 318.500,213.518 319.500,216.000" stroke-width="4.371" stroke="black" fill="none" stroke-linecap="round"></path><path d="M 319.500,216.000 C 322.938,214.817 321.392,217.351 325.500,216.000" stroke-width="4.650" stroke="black" fill="none" stroke-linecap="round"></path><path d="M 366.500,159.000 C 367.397,163.795 368.000,163.500 369.500,168.000" stroke-width="5.019" stroke="black" fill="none" stroke-linecap="round"></path><path d="M 369.500,168.000 C 373.096,172.192 371.897,172.795 375.500,177.000" stroke-width="3.797" stroke="black" fill="none" stroke-linecap="round"></path><path d="M 375.500,177.000 C 378.223,183.423 378.596,183.192 380.500,190.000" stroke-width="3.274" stroke="black" fill="none" stroke-linecap="round"></path><path d="M 380.500,190.000 C 382.087,196.666 382.723,196.423 384.500,203.000" stroke-width="3.168" stroke="black" fill="none" stroke-linecap="round"></path><path d="M 384.500,203.000 C 386.098,207.263 386.087,207.166 388.500,211.000" stroke-width="3.464" stroke="black" fill="none" stroke-linecap="round"></path><path d="M 388.500,211.000 C 390.541,214.632 390.598,214.263 393.500,217.000" stroke-width="3.773" stroke="black" fill="none" stroke-linecap="round"></path><path d="M 393.500,217.000 C 397.012,220.063 395.541,218.632 398.500,219.000" stroke-width="4.109" stroke="black" fill="none" stroke-linecap="round"></path><path d="M 398.500,219.000 C 399.870,215.571 400.512,217.563 400.500,212.000" stroke-width="4.446" stroke="black" fill="none" stroke-linecap="round"></path><path d="M 429.500,157.000 C 429.644,163.891 428.000,163.000 426.500,169.000" stroke-width="5.006" stroke="black" fill="none" stroke-linecap="round"></path><path d="M 426.500,169.000 C 420.138,176.133 421.644,176.891 413.500,183.000" stroke-width="3.084" stroke="black" fill="none" stroke-linecap="round"></path><path d="M 413.500,183.000 C 405.735,191.249 405.638,191.133 397.500,199.000" stroke-width="2.582" stroke="black" fill="none" stroke-linecap="round"></path><path d="M 397.500,199.000 C 387.998,206.502 388.735,207.249 379.500,215.000" stroke-width="2.456" stroke="black" fill="none" stroke-linecap="round"></path><path d="M 379.500,215.000 C 372.243,222.791 371.998,222.502 365.500,231.000" stroke-width="2.427" stroke="black" fill="none" stroke-linecap="round"></path><path d="M 365.500,231.000 C 360.858,236.899 360.743,236.791 356.500,243.000" stroke-width="2.795" stroke="black" fill="none" stroke-linecap="round"></path><path d="M 356.500,243.000 C 352.891,247.218 353.358,247.399 350.500,252.000" stroke-width="3.165" stroke="black" fill="none" stroke-linecap="round"></path><path d="M 350.500,252.000 C 349.010,259.000 348.891,255.218 348.500,259.000" stroke-width="4.054" stroke="black" fill="none" stroke-linecap="round"></path><path d="M 348.500,259.000 C 347.136,254.728 348.010,259.000 348.500,252.000" stroke-width="4.632" stroke="black" fill="none" stroke-linecap="round"></path><path d="M 650.500,107.000 C 637.874,97.829 637.500,98.500 624.500,90.000" stroke-width="3.644" stroke="black" fill="none" stroke-linecap="round"></path><path d="M 624.500,90.000 C 617.413,85.082 617.374,85.829 609.500,83.000" stroke-width="3.049" stroke="black" fill="none" stroke-linecap="round"></path><path d="M 609.500,83.000 C 598.029,80.245 598.413,80.082 586.500,80.000" stroke-width="2.547" stroke="black" fill="none" stroke-linecap="round"></path><path d="M 586.500,80.000 C 573.870,78.631 574.529,79.745 562.500,82.000" stroke-width="2.262" stroke="black" fill="none" stroke-linecap="round"></path><path d="M 562.500,82.000 C 546.860,87.863 546.870,86.631 532.500,96.000" stroke-width="2.002" stroke="black" fill="none" stroke-linecap="round"></path><path d="M 532.500,96.000 C 516.828,105.122 516.860,104.863 502.500,116.000" stroke-width="1.959" stroke="black" fill="none" stroke-linecap="round"></path><path d="M 502.500,116.000 C 489.897,125.895 489.828,125.622 478.500,137.000" stroke-width="1.903" stroke="black" fill="none" stroke-linecap="round"></path><path d="M 478.500,137.000 C 469.113,144.458 470.397,144.895 463.500,154.000" stroke-width="2.232" stroke="black" fill="none" stroke-linecap="round"></path><path d="M 463.500,154.000 C 459.942,162.348 459.113,161.458 458.500,171.000" stroke-width="2.521" stroke="black" fill="none" stroke-linecap="round"></path><path d="M 458.500,171.000 C 456.289,178.349 457.442,177.348 458.500,184.000" stroke-width="2.953" stroke="black" fill="none" stroke-linecap="round"></path><path d="M 458.500,184.000 C 462.347,189.784 460.789,189.849 467.500,194.000" stroke-width="3.024" stroke="black" fill="none" stroke-linecap="round"></path><path d="M 467.500,194.000 C 473.623,198.791 473.347,198.784 480.500,202.000" stroke-width="2.921" stroke="black" fill="none" stroke-linecap="round"></path><path d="M 480.500,202.000 C 488.803,205.764 488.623,205.791 497.500,208.000" stroke-width="2.785" stroke="black" fill="none" stroke-linecap="round"></path><path d="M 497.500,208.000 C 506.432,210.320 506.303,210.264 515.500,211.000" stroke-width="2.734" stroke="black" fill="none" stroke-linecap="round"></path><path d="M 515.500,211.000 C 526.500,211.000 526.432,211.820 537.500,211.000" stroke-width="2.467" stroke="black" fill="none" stroke-linecap="round"></path><path d="M 537.500,211.000 C 549.000,211.000 549.000,211.000 560.500,211.000" stroke-width="2.413" stroke="black" fill="none" stroke-linecap="round"></path><path d="M 560.500,211.000 C 570.381,212.824 570.000,211.000 579.500,211.000" stroke-width="2.522" stroke="black" fill="none" stroke-linecap="round"></path><path d="M 579.500,211.000 C 588.270,208.627 587.881,209.324 595.500,204.000" stroke-width="2.746" stroke="black" fill="none" stroke-linecap="round"></path><path d="M 595.500,204.000 C 601.162,200.158 600.770,200.627 604.500,195.000" stroke-width="3.059" stroke="black" fill="none" stroke-linecap="round"></path><path d="M 604.500,195.000 C 606.760,190.899 606.662,191.658 606.500,187.000" stroke-width="3.489" stroke="black" fill="none" stroke-linecap="round"></path></svg>