<svg xmlns="http://www.w3.org/2000/svg" xmlns:xlink="http://www.w3.org/1999/xlink" viewBox="0 0 751 330" width="751" height="330"><path d="M 208.500,153.000 C 201.760,148.640 201.500,149.500 194.500,146.000" stroke-width="5.038" stroke="black" fill="none" stroke-linecap="round"></path><path d="M 194.500,146.000 C 190.250,146.250 190.760,144.640 186.500,145.000" stroke-width="4.753" stroke="black" fill="none" stroke-linecap="round"></path><path d="M 186.500,145.000 C 183.048,142.910 182.750,143.750 179.500,141.000" stroke-width="3.996" stroke="black" fill="none" stroke-linecap="round"></path><path d="M 179.500,141.000 C 176.452,139.590 176.548,139.410 173.500,138.000" stroke-width="4.022" stroke="black" fill="none" stroke-linecap="round"></path><path d="M 173.500,138.000 C 169.844,136.229 169.952,136.090 166.500,134.000" stroke-width="3.925" stroke="black" fill="none" stroke-linecap="round"></path><path d="M 166.500,134.000 C 160.712,131.576 163.844,132.229 161.500,130.000" stroke-width="4.700" stroke="black" fill="none" stroke-linecap="round"></path><path d="M 161.500,130.000 C 165.962,127.911 162.712,127.576 170.500,126.000" stroke-width="5.050" stroke="black" fill="none" stroke-linecap="round"></path><path d="M 170.500,126.000 C 175.750,124.488 175.462,123.911 180.500,122.000" stroke-width="3.871" stroke="black" fill="none" stroke-linecap="round"></path><path d="M 180.500,122.000 C 185.911,118.353 186.250,118.988 191.500,115.000" stroke-width="3.363" stroke="black" fill="none" stroke-linecap="round"></path><path d="M 191.500,115.000 C 198.638,111.223 198.411,110.853 205.500,107.000" stroke-width="3.132" stroke="black" fill="none" stroke-linecap="round"></path><path d="M 205.500,107.000 C 211.283,102.626 211.638,103.223 217.500,99.000" stroke-width="3.008" stroke="black" fill="none" stroke-linecap="round"></path><path d="M 217.500,99.000 C 223.554,96.102 223.283,95.626 229.500,93.000" stroke-width="3.155" stroke="black" fill="none" stroke-linecap="round"></path><path d="M 229.500,93.000 C 234.900,89.800 235.054,90.102 240.500,87.000" stroke-width="3.213" stroke="black" fill="none" stroke-linecap="round"></path><path d="M 240.500,87.000 C 245.935,84.343 245.900,84.300 251.500,82.000" stroke-width="3.207" stroke="black" fill="none" stroke-linecap="round"></path><path d="M 251.500,82.000 C 255.450,80.350 255.435,80.343 259.500,79.000" stroke-width="3.565" stroke="black" fill="none" stroke-linecap="round"></path><path d="M 259.500,79.000 C 267.138,75.565 262.950,77.850 266.500,77.000" stroke-width="3.939" stroke="black" fill="none" stroke-linecap="round"></path><path d="M 266.500,77.000 C 261.229,82.749 265.138,80.065 255.500,88.000" stroke-width="4.349" stroke="black" fill="none" stroke-linecap="round"></path><path d="M 255.500,88.000 C 248.627,93.109 249.229,93.749 242.500,99.000" stroke-width="3.214" stroke="black" fill="none" stroke-linecap="round"></path><path d="M 242.500,99.000 C 236.000,106.000 235.627,105.609 229.500,113.000" stroke-width="2.796" stroke="black" fill="none" stroke-linecap="round"></path><path d="M 229.500,113.000 C 222.914,119.922 223.000,120.000 216.500,127.000" stroke-width="2.629" stroke="black" fill="none" stroke-linecap="round"></path><path d="M 216.500,127.000 C 208.886,136.374 208.414,135.922 200.500,145.000" stroke-width="2.469" stroke="black" fill="none" stroke-linecap="round"></path><path d="M 200.500,145.000 C 191.156,154.172 191.386,154.374 181.500,163.000" stroke-width="2.285" stroke="black" fill="none" stroke-linecap="round"></path><path d="M 181.500,163.000 C 173.744,170.301 173.656,170.172 165.500,177.000" stroke-width="2.431" stroke="black" fill="none" stroke-linecap="round"></path><path d="M 165.500,177.000 C 157.768,183.399 157.744,183.301 149.500,189.000" stroke-width="2.536" stroke="black" fill="none" stroke-linecap="round"></path><path d="M 149.500,189.000 C 142.256,193.997 142.268,193.899 134.500,198.000" stroke-width="2.640" stroke="black" fill="none" stroke-linecap="round"></path><path d="M 134.500,198.000 C 126.587,201.715 126.756,201.997 118.500,205.000" stroke-width="2.674" stroke="black" fill="none" stroke-linecap="round"></path><path d="M 118.500,205.000 C 110.413,207.785 110.587,208.215 102.500,211.000" stroke-width="2.706" stroke="black" fill="none" stroke-linecap="round"></path><path d="M 102.500,211.000 C 94.229,213.992 94.413,214.285 86.500,218.000" stroke-width="2.694" stroke="black" fill="none" stroke-linecap="round"></path><path d="M 86.500,218.000 C 81.197,221.867 80.729,220.992 75.500,225.000" stroke-width="3.019" stroke="black" fill="none" stroke-linecap="round"></path><path d="M 75.500,225.000 C 71.067,227.173 71.197,227.367 66.500,229.000" stroke-width="3.329" stroke="black" fill="none" stroke-linecap="round"></path><path d="M 66.500,229.000 C 62.128,232.424 63.567,230.173 60.500,231.000" stroke-width="3.833" stroke="black" fill="none" stroke-linecap="round"></path><path d="M 60.500,231.000 C 57.500,226.000 58.128,228.924 58.500,222.000" stroke-width="4.549" stroke="black" fill="none" stroke-linecap="round"></path><path d="M 58.500,222.000 C 61.248,218.252 59.500,218.000 64.500,215.000" stroke-width="3.878" stroke="black" fill="none" stroke-linecap="round"></path><path d="M 64.500,215.000 C 68.744,210.675 68.748,210.752 73.500,207.000" stroke-width="3.384" stroke="black" fill="none" stroke-linecap="round"></path><path d="M 73.500,207.000 C 79.697,201.988 79.744,202.175 86.500,198.000" stroke-width="2.976" stroke="black" fill="none" stroke-linecap="round"></path><path d="M 86.500,198.000 C 94.409,193.807 94.197,193.488 102.500,190.000" stroke-width="2.920" stroke="black" fill="none" stroke-linecap="round"></path><path d="M 102.500,190.000 C 111.543,186.095 111.409,185.807 120.500,182.000" stroke-width="2.629" stroke="black" fill="none" stroke-linecap="round"></path><path d="M 120.500,182.000 C 128.957,177.905 129.043,178.095 137.500,174.000" stroke-width="2.714" stroke="black" fill="none" stroke-linecap="round"></path><path d="M 137.500,174.000 C 146.585,170.179 146.457,169.905 155.500,166.000" stroke-width="2.576" stroke="black" fill="none" stroke-linecap="round"></path><path d="M 155.500,166.000 C 162.220,161.761 162.585,162.679 169.500,159.000" stroke-width="2.758" stroke="black" fill="none" stroke-linecap="round"></path><path d="M 169.500,159.000 C 176.957,156.821 176.720,156.261 184.500,155.000" stroke-width="2.936" stroke="black" fill="none" stroke-linecap="round"></path><path d="M 184.500,155.000 C 191.525,153.610 191.457,153.321 198.500,152.000" stroke-width="2.959" stroke="black" fill="none" stroke-linecap="round"></path><path d="M 198.500,152.000 C 204.535,150.627 204.525,150.610 210.500,149.000" stroke-width="3.105" stroke="black" fill="none" stroke-linecap="round"></path><path d="M 210.500,149.000 C 215.585,147.735 215.535,147.627 220.500,146.000" stroke-width="3.308" stroke="black" fill="none" stroke-linecap="round"></path><path d="M 220.500,146.000 C 224.240,144.901 224.085,144.735 227.500,143.000" stroke-width="3.692" stroke="black" fill="none" stroke-linecap="round"></path><path d="M 227.500,143.000 C 232.975,139.713 230.240,141.401 232.500,139.000" stroke-width="4.336" stroke="black" fill="none" stroke-linecap="round"></path><path d="M 232.500,139.000 C 228.793,138.838 231.975,138.213 225.500,140.000" stroke-width="4.921" stroke="black" fill="none" stroke-linecap="round"></path><path d="M 225.500,140.000 C 220.381,142.288 220.293,141.838 215.500,145.000" stroke-width="4.418" stroke="black" fill="none" stroke-linecap="round"></path><path d="M 215.500,145.000 C 211.330,147.265 211.381,147.288 207.500,150.000" stroke-width="3.826" stroke="black" fill="none" stroke-linecap="round"></path><path d="M 207.500,150.000 C 204.250,152.250 204.330,152.265 201.500,155.000" stroke-width="3.846" stroke="black" fill="none" stroke-linecap="round"></path><path d="M 201.500,155.000 C 198.311,157.636 198.750,157.750 196.500,161.000" stroke-width="3.799" stroke="black" fill="none" stroke-linecap="round"></path><path d="M 196.500,161.000 C 193.314,165.390 194.811,164.136 194.500,168.000" stroke-width="4.347" stroke="black" fill="none" stroke-linecap="round"></path><path d="M 194.500,168.000 C 197.753,170.929 195.814,170.890 201.500,172.000" stroke-width="4.674" stroke="black" fill="none" stroke-linecap="round"></path><path d="M 201.500,172.000 C 205.176,172.831 204.753,172.929 208.500,172.000" stroke-width="4.219" stroke="black" fill="none" stroke-linecap="round"></path><path d="M 208.500,172.000 C 213.051,170.108 213.176,170.831 217.500,168.000" stroke-width="3.793" stroke="black" fill="none" stroke-linecap="round"></path><path d="M 217.500,168.000 C 222.671,165.795 222.551,165.608 227.500,163.000" stroke-width="3.504" stroke="black" fill="none" stroke-linecap="round"></path><path d="M 227.500,163.000 C 231.847,159.737 232.171,160.295 236.500,157.000" stroke-width="3.457" stroke="black" fill="none" stroke-linecap="round"></path><path d="M 236.500,157.000 C 240.712,155.331 240.347,154.737 244.500,153.000" stroke-width="3.662" stroke="black" fill="none" stroke-linecap="round"></path><path d="M 244.500,153.000 C 250.464,150.157 247.212,151.331 249.500,149.000" stroke-width="4.338" stroke="black" fill="none" stroke-linecap="round"></path><path d="M 249.500,149.000 C 244.532,147.265 247.964,147.157 239.500,147.000" stroke-width="4.587" stroke="black" fill="none" stroke-linecap="round"></path><path d="M 239.500,147.000 C 233.779,145.541 235.032,146.765 230.500,148.000" stroke-width="4.504" stroke="black" fill="none" stroke-linecap="round"></path><path d="M 230.500,148.000 C 222.423,156.577 225.779,151.541 223.500,159.000" stroke-width="4.188" stroke="black" fill="none" stroke-linecap="round"></path><path d="M 223.500,159.000 C 229.382,159.047 224.423,161.077 234.500,157.000" stroke-width="4.762" stroke="black" fill="none" stroke-linecap="round"></path><path d="M 234.500,157.000 C 241.629,153.211 241.882,154.047 248.500,149.000" stroke-width="3.196" stroke="black" fill="none" stroke-linecap="round"></path><path d="M 248.500,149.000 C 257.153,143.724 257.129,143.711 265.500,138.000" stroke-width="2.728" stroke="black" fill="none" stroke-linecap="round"></path><path d="M 265.500,138.000 C 274.620,131.660 274.653,131.724 283.500,125.000" stroke-width="2.456" stroke="black" fill="none" stroke-linecap="round"></path><path d="M 283.500,125.000 C 292.572,118.090 292.620,118.160 301.500,111.000" stroke-width="2.359" stroke="black" fill="none" stroke-linecap="round"></path><path d="M 301.500,111.000 C 309.603,104.623 309.572,104.590 317.500,98.000" stroke-width="2.484" stroke="black" fill="none" stroke-linecap="round"></path><path d="M 317.500,98.000 C 324.945,91.436 325.103,91.623 332.500,85.000" stroke-width="2.561" stroke="black" fill="none" stroke-linecap="round"></path><path d="M 332.500,85.000 C 338.714,80.235 338.445,79.936 344.500,75.000" stroke-width="2.809" stroke="black" fill="none" stroke-linecap="round"></path><path d="M 344.500,75.000 C 349.176,70.657 349.214,70.735 353.500,66.000" stroke-width="3.083" stroke="black" fill="none" stroke-linecap="round"></path><path d="M 353.500,66.000 C 357.750,63.250 355.676,63.657 357.500,61.000" stroke-width="3.682" stroke="black" fill="none" stroke-linecap="round"></path><path d="M 357.500,61.000 C 355.461,57.312 357.250,58.750 352.500,57.000" stroke-width="4.508" stroke="black" fill="none" stroke-linecap="round"></path><path d="M 352.500,57.000 C 344.827,56.208 345.961,56.312 338.500,59.000" stroke-width="3.395" stroke="black" fill="none" stroke-linecap="round"></path><path d="M 338.500,59.000 C 328.144,65.008 327.827,63.708 318.500,72.000" stroke-width="2.510" stroke="black" fill="none" stroke-linecap="round"></path><path d="M 318.500,72.000 C 308.377,79.851 308.144,79.508 298.500,88.000" stroke-width="2.318" stroke="black" fill="none" stroke-linecap="round"></path><path d="M 298.500,88.000 C 288.178,96.151 288.377,96.351 278.500,105.000" stroke-width="2.397" stroke="black" fill="none" stroke-linecap="round"></path><path d="M 278.500,105.000 C 270.711,112.234 270.678,112.151 263.500,120.000" stroke-width="2.412" stroke="black" fill="none" stroke-linecap="round"></path><path d="M 263.500,120.000 C 257.782,126.329 257.711,126.234 252.500,133.000" stroke-width="2.677" stroke="black" fill="none" stroke-linecap="round"></path><path d="M 252.500,133.000 C 248.200,138.308 248.282,138.329 244.500,144.000" stroke-width="2.976" stroke="black" fill="none" stroke-linecap="round"></path><path d="M 244.500,144.000 C 241.506,148.319 241.700,148.308 239.500,153.000" stroke-width="3.219" stroke="black" fill="none" stroke-linecap="round"></path><path d="M 239.500,153.000 C 237.229,156.366 238.506,155.319 238.500,158.000" stroke-width="3.922" stroke="black" fill="none" stroke-linecap="round"></path><path d="M 238.500,158.000 C 242.455,162.000 240.729,160.866 246.500,162.000" stroke-width="4.471" stroke="black" fill="none" stroke-linecap="round"></path><path d="M 246.500,162.000 C 251.197,160.367 250.955,162.000 255.500,158.000" stroke-width="3.729" stroke="black" fill="none" stroke-linecap="round"></path><path d="M 255.500,158.000 C 260.957,154.431 261.197,154.867 266.500,151.000" stroke-width="3.389" stroke="black" fill="none" stroke-linecap="round"></path><path d="M 266.500,151.000 C 271.709,148.294 271.457,147.931 276.500,145.000" stroke-width="3.293" stroke="black" fill="none" stroke-linecap="round"></path><path d="M 276.500,145.000 C 279.245,142.072 279.709,142.794 282.500,140.000" stroke-width="3.667" stroke="black" fill="none" stroke-linecap="round"></path><path d="M 282.500,140.000 C 287.500,137.184 284.745,138.572 287.500,138.000" stroke-width="4.528" stroke="black" fill="none" stroke-linecap="round"></path><path d="M 287.500,138.000 C 285.162,141.148 287.500,139.184 282.500,144.000" stroke-width="4.179" stroke="black" fill="none" stroke-linecap="round"></path><path d="M 282.500,144.000 C 277.859,148.368 278.162,148.648 273.500,153.000" stroke-width="3.387" stroke="black" fill="none" stroke-linecap="round"></path><path d="M 273.500,153.000 C 269.487,156.686 269.859,156.868 266.500,161.000" stroke-width="3.438" stroke="black" fill="none" stroke-linecap="round"></path><path d="M 266.500,161.000 C 263.100,165.125 264.987,163.186 264.500,166.000" stroke-width="4.049" stroke="black" fill="none" stroke-linecap="round"></path><path d="M 264.500,166.000 C 269.856,167.413 267.100,167.625 274.500,166.000" stroke-width="4.455" stroke="black" fill="none" stroke-linecap="round"></path><path d="M 274.500,166.000 C 281.000,162.500 281.356,163.913 287.500,159.000" stroke-width="3.335" stroke="black" fill="none" stroke-linecap="round"></path><path d="M 287.500,159.000 C 294.000,155.500 294.000,155.500 300.500,152.000" stroke-width="3.101" stroke="black" fill="none" stroke-linecap="round"></path><path d="M 300.500,152.000 C 307.151,148.752 307.000,148.500 313.500,145.000" stroke-width="3.037" stroke="black" fill="none" stroke-linecap="round"></path><path d="M 313.500,145.000 C 321.574,139.926 318.151,142.252 322.500,139.000" stroke-width="3.254" stroke="black" fill="none" stroke-linecap="round"></path><path d="M 322.500,139.000 C 319.250,140.109 323.074,138.426 316.500,142.000" stroke-width="4.365" stroke="black" fill="none" stroke-linecap="round"></path><path d="M 316.500,142.000 C 311.469,145.962 311.250,145.609 306.500,150.000" stroke-width="3.485" stroke="black" fill="none" stroke-linecap="round"></path><path d="M 306.500,150.000 C 299.472,153.561 303.469,152.462 300.500,155.000" stroke-width="3.686" stroke="black" fill="none" stroke-linecap="round"></path><path d="M 300.500,155.000 C 306.273,157.909 301.972,157.061 311.500,157.000" stroke-width="4.407" stroke="black" fill="none" stroke-linecap="round"></path><path d="M 311.500,157.000 C 317.605,154.193 317.773,155.909 323.500,151.000" stroke-width="3.505" stroke="black" fill="none" stroke-linecap="round"></path><path d="M 323.500,151.000 C 329.790,147.907 329.605,147.693 335.500,144.000" stroke-width="3.144" stroke="black" fill="none" stroke-linecap="round"></path><path d="M 335.500,144.000 C 342.240,138.000 339.290,141.407 342.500,138.000" stroke-width="3.430" stroke="black" fill="none" stroke-linecap="round"></path><path d="M 342.500,138.000 C 339.624,141.136 342.740,138.000 336.500,144.000" stroke-width="4.392" stroke="black" fill="none" stroke-linecap="round"></path><path d="M 336.500,144.000 C 333.376,146.364 333.624,146.636 330.500,149.000" stroke-width="4.001" stroke="black" fill="none" stroke-linecap="round"></path><path d="M 330.500,149.000 C 327.350,151.865 327.376,151.864 324.500,155.000" stroke-width="3.768" stroke="black" fill="none" stroke-linecap="round"></path><path d="M 324.500,155.000 C 319.332,159.222 322.350,157.365 320.500,160.000" stroke-width="3.985" stroke="black" fill="none" stroke-linecap="round"></path><path d="M 320.500,160.000 C 326.103,160.979 322.332,161.222 330.500,159.000" stroke-width="4.782" stroke="black" fill="none" stroke-linecap="round"></path><path d="M 330.500,159.000 C 335.582,155.099 336.103,156.479 340.500,151.000" stroke-width="3.627" stroke="black" fill="none" stroke-linecap="round"></path><path d="M 340.500,151.000 C 347.765,145.286 347.582,145.099 354.500,139.000" stroke-width="2.852" stroke="black" fill="none" stroke-linecap="round"></path><path d="M 354.500,139.000 C 362.625,131.121 362.765,131.286 370.500,123.000" stroke-width="2.530" stroke="black" fill="none" stroke-linecap="round"></path><path d="M 370.500,123.000 C 378.637,114.624 378.625,114.621 386.500,106.000" stroke-width="2.473" stroke="black" fill="none" stroke-linecap="round"></path><path d="M 386.500,106.000 C 394.192,97.661 394.137,97.624 401.500,89.000" stroke-width="2.429" stroke="black" fill="none" stroke-linecap="round"></path><path d="M 401.500,89.000 C 407.741,81.679 407.692,81.661 413.500,74.000" stroke-width="2.573" stroke="black" fill="none" stroke-linecap="round"></path><path d="M 413.500,74.000 C 417.931,67.451 418.241,67.679 422.500,61.000" stroke-width="2.747" stroke="black" fill="none" stroke-linecap="round"></path><path d="M 422.500,61.000 C 426.518,55.513 426.431,55.451 430.500,50.000" stroke-width="2.946" stroke="black" fill="none" stroke-linecap="round"></path><path d="M 430.500,50.000 C 435.500,45.511 433.018,46.513 435.500,43.000" stroke-width="3.457" stroke="black" fill="none" stroke-linecap="round"></path><path d="M 435.500,43.000 C 432.656,40.985 435.500,41.511 430.500,42.000" stroke-width="4.525" stroke="black" fill="none" stroke-linecap="round"></path><path d="M 430.500,42.000 C 424.500,46.500 424.156,44.985 418.500,51.000" stroke-width="3.327" stroke="black" fill="none" stroke-linecap="round"></path><path d="M 418.500,51.000 C 410.038,56.467 410.500,57.000 402.500,63.000" stroke-width="2.770" stroke="black" fill="none" stroke-linecap="round"></path><path d="M 402.500,63.000 C 395.500,70.000 395.038,69.467 388.500,77.000" stroke-width="2.586" stroke="black" fill="none" stroke-linecap="round"></path><path d="M 388.500,77.000 C 382.611,82.159 383.000,82.500 377.500,88.000" stroke-width="2.873" stroke="black" fill="none" stroke-linecap="round"></path><path d="M 377.500,88.000 C 372.289,94.349 372.111,94.159 367.500,101.000" stroke-width="2.806" stroke="black" fill="none" stroke-linecap="round"></path><path d="M 367.500,101.000 C 363.737,107.174 363.289,106.849 359.500,113.000" stroke-width="2.968" stroke="black" fill="none" stroke-linecap="round"></path><path d="M 359.500,113.000 C 355.164,117.766 355.737,118.174 351.500,123.000" stroke-width="3.132" stroke="black" fill="none" stroke-linecap="round"></path><path d="M 351.500,123.000 C 348.097,127.806 348.164,127.766 345.500,133.000" stroke-width="3.272" stroke="black" fill="none" stroke-linecap="round"></path><path d="M 345.500,133.000 C 343.937,136.978 343.597,136.806 342.500,141.000" stroke-width="3.539" stroke="black" fill="none" stroke-linecap="round"></path><path d="M 342.500,141.000 C 341.500,144.000 341.437,143.978 340.500,147.000" stroke-width="3.870" stroke="black" fill="none" stroke-linecap="round"></path><path d="M 340.500,147.000 C 337.100,151.200 339.500,150.000 338.500,153.000" stroke-width="4.414" stroke="black" fill="none" stroke-linecap="round"></path><path d="M 338.500,153.000 C 342.895,155.488 340.600,155.700 347.500,156.000" stroke-width="4.971" stroke="black" fill="none" stroke-linecap="round"></path><path d="M 347.500,156.000 C 352.127,156.029 351.895,156.488 356.500,155.000" stroke-width="3.983" stroke="black" fill="none" stroke-linecap="round"></path><path d="M 356.500,155.000 C 360.384,153.029 360.627,154.029 364.500,152.000" stroke-width="3.812" stroke="black" fill="none" stroke-linecap="round"></path><path d="M 364.500,152.000 C 368.510,151.570 368.384,151.029 372.500,151.000" stroke-width="3.762" stroke="black" fill="none" stroke-linecap="round"></path><path d="M 372.500,151.000 C 375.476,150.216 375.510,150.570 378.500,150.000" stroke-width="4.021" stroke="black" fill="none" stroke-linecap="round"></path><path d="M 378.500,150.000 C 387.594,148.086 382.476,149.716 386.500,150.000" stroke-width="4.362" stroke="black" fill="none" stroke-linecap="round"></path><path d="M 386.500,150.000 C 379.232,158.037 383.594,155.086 370.500,164.000" stroke-width="4.045" stroke="black" fill="none" stroke-linecap="round"></path><path d="M 370.500,164.000 C 358.384,171.788 358.732,172.037 345.500,178.000" stroke-width="2.521" stroke="black" fill="none" stroke-linecap="round"></path><path d="M 345.500,178.000 C 330.253,185.183 330.384,185.288 314.500,191.000" stroke-width="1.981" stroke="black" fill="none" stroke-linecap="round"></path><path d="M 314.500,191.000 C 297.752,197.447 297.753,197.183 280.500,202.000" stroke-width="1.860" stroke="black" fill="none" stroke-linecap="round"></path><path d="M 280.500,202.000 C 261.582,206.438 261.752,206.947 242.500,210.000" stroke-width="1.804" stroke="black" fill="none" stroke-linecap="round"></path><path d="M 242.500,210.000 C 224.113,214.190 224.082,213.438 205.500,216.000" stroke-width="1.770" stroke="black" fill="none" stroke-linecap="round"></path><path d="M 205.500,216.000 C 188.003,216.731 188.113,217.690 170.500,217.000" stroke-width="1.766" stroke="black" fill="none" stroke-linecap="round"></path><path d="M 170.500,217.000 C 155.298,218.644 155.503,217.231 140.500,217.000" stroke-width="1.895" stroke="black" fill="none" stroke-linecap="round"></path><path d="M 140.500,217.000 C 128.227,214.818 128.298,215.644 116.500,211.000" stroke-width="2.156" stroke="black" fill="none" stroke-linecap="round"></path><path d="M 116.500,211.000 C 106.437,207.994 106.727,207.818 97.500,203.000" stroke-width="2.413" stroke="black" fill="none" stroke-linecap="round"></path><path d="M 97.500,203.000 C 89.302,198.236 89.437,198.494 82.500,192.000" stroke-width="2.541" stroke="black" fill="none" stroke-linecap="round"></path><path d="M 82.500,192.000 C 75.995,187.351 77.302,187.236 73.500,181.000" stroke-width="2.833" stroke="black" fill="none" stroke-linecap="round"></path><path d="M 73.500,181.000 C 70.528,172.356 70.495,173.351 71.500,164.000" stroke-width="2.868" stroke="black" fill="none" stroke-linecap="round"></path><path d="M 71.500,164.000 C 71.948,149.358 73.028,150.856 78.500,138.000" stroke-width="2.281" stroke="black" fill="none" stroke-linecap="round"></path><path d="M 78.500,138.000 C 88.346,123.077 86.948,123.358 101.500,112.000" stroke-width="1.960" stroke="black" fill="none" stroke-linecap="round"></path><path d="M 101.500,112.000 C 117.826,99.792 116.846,99.077 135.500,90.000" stroke-width="1.742" stroke="black" fill="none" stroke-linecap="round"></path><path d="M 135.500,90.000 C 154.859,78.829 154.826,79.292 175.500,71.000" stroke-width="1.560" stroke="black" fill="none" stroke-linecap="round"></path><path d="M 175.500,71.000 C 198.604,62.139 198.359,62.329 222.500,57.000" stroke-width="1.432" stroke="black" fill="none" stroke-linecap="round"></path><path d="M 222.500,57.000 C 245.439,53.427 245.104,52.139 268.500,51.000" stroke-width="1.528" stroke="black" fill="none" stroke-linecap="round"></path><path d="M 268.500,51.000 C 292.970,48.502 292.939,48.427 317.500,47.000" stroke-width="1.422" stroke="black" fill="none" stroke-linecap="round"></path><path d="M 317.500,47.000 C 341.990,45.533 341.970,45.502 366.500,45.000" stroke-width="1.395" stroke="black" fill="none" stroke-linecap="round"></path><path d="M 366.500,45.000 C 388.129,43.397 387.990,44.533 409.500,45.000" stroke-width="1.528" stroke="black" fill="none" stroke-linecap="round"></path><path d="M 409.500,45.000 C 428.321,46.780 428.129,46.397 446.500,51.000" stroke-width="1.633" stroke="black" fill="none" stroke-linecap="round"></path><path d="M 446.500,51.000 C 457.314,52.884 456.321,53.280 465.500,58.000" stroke-width="2.191" stroke="black" fill="none" stroke-linecap="round"></path><path d="M 465.500,58.000 C 472.191,62.477 469.314,60.384 470.500,66.000" stroke-width="3.062" stroke="black" fill="none" stroke-linecap="round"></path><path d="M 470.500,66.000 C 463.493,76.553 466.191,74.977 453.500,83.000" stroke-width="2.443" stroke="black" fill="none" stroke-linecap="round"></path><path d="M 453.500,83.000 C 431.489,95.572 432.493,96.553 408.500,106.000" stroke-width="1.620" stroke="black" fill="none" stroke-linecap="round"></path><path d="M 408.500,106.000 C 382.819,117.365 382.989,117.572 356.500,127.000" stroke-width="1.389" stroke="black" fill="none" stroke-linecap="round"></path><path d="M 356.500,127.000 C 326.953,138.671 326.819,137.865 296.500,147.000" stroke-width="1.201" stroke="black" fill="none" stroke-linecap="round"></path><path d="M 296.500,147.000 C 268.222,154.437 268.453,154.671 239.500,159.000" stroke-width="1.209" stroke="black" fill="none" stroke-linecap="round"></path><path d="M 239.500,159.000 C 214.556,162.623 214.722,162.937 189.500,164.000" stroke-width="1.351" stroke="black" fill="none" stroke-linecap="round"></path><path d="M 189.500,164.000 C 168.994,164.301 169.056,165.123 148.500,164.000" stroke-width="1.503" stroke="black" fill="none" stroke-linecap="round"></path><path d="M 148.500,164.000 C 134.984,163.729 134.994,163.801 121.500,163.000" stroke-width="1.916" stroke="black" fill="none" stroke-linecap="round"></path><path d="M 121.500,163.000 C 114.485,163.990 116.484,162.729 111.500,162.000" stroke-width="2.820" stroke="black" fill="none" stroke-linecap="round"></path><path d="M 379.500,159.000 C 383.927,157.152 384.000,158.000 388.500,157.000" stroke-width="5.095" stroke="black" fill="none" stroke-linecap="round"></path><path d="M 388.500,157.000 C 398.993,157.776 398.927,156.652 409.500,158.000" stroke-width="3.042" stroke="black" fill="none" stroke-linecap="round"></path><path d="M 409.500,158.000 C 422.505,158.245 422.493,158.276 435.500,158.000" stroke-width="2.419" stroke="black" fill="none" stroke-linecap="round"></path><path d="M 435.500,158.000 C 449.123,158.544 449.005,157.745 462.500,157.000" stroke-width="2.351" stroke="black" fill="none" stroke-linecap="round"></path><path d="M 462.500,157.000 C 474.936,154.094 475.123,155.544 487.500,152.000" stroke-width="2.279" stroke="black" fill="none" stroke-linecap="round"></path><path d="M 487.500,152.000 C 495.991,150.912 495.936,150.594 504.500,150.000" stroke-width="2.569" stroke="black" fill="none" stroke-linecap="round"></path><path d="M 504.500,150.000 C 513.601,148.050 509.991,149.412 515.500,149.000" stroke-width="3.057" stroke="black" fill="none" stroke-linecap="round"></path><path d="M 515.500,149.000 C 513.271,151.441 516.601,149.550 510.500,153.000" stroke-width="3.711" stroke="black" fill="none" stroke-linecap="round"></path><path d="M 510.500,153.000 C 504.935,155.365 505.271,155.941 499.500,158.000" stroke-width="3.404" stroke="black" fill="none" stroke-linecap="round"></path><path d="M 499.500,158.000 C 488.558,163.620 488.435,163.365 477.500,169.000" stroke-width="2.547" stroke="black" fill="none" stroke-linecap="round"></path><path d="M 477.500,169.000 C 469.966,172.429 470.058,172.620 462.500,176.000" stroke-width="2.752" stroke="black" fill="none" stroke-linecap="round"></path><path d="M 462.500,176.000 C 454.500,178.685 458.466,177.929 454.500,180.000" stroke-width="3.345" stroke="black" fill="none" stroke-linecap="round"></path><path d="M 454.500,180.000 C 458.580,181.535 454.500,181.185 462.500,181.000" stroke-width="3.661" stroke="black" fill="none" stroke-linecap="round"></path><path d="M 462.500,181.000 C 469.510,179.034 469.580,180.035 476.500,177.000" stroke-width="3.195" stroke="black" fill="none" stroke-linecap="round"></path><path d="M 476.500,177.000 C 496.856,170.458 497.010,171.034 517.500,165.000" stroke-width="2.007" stroke="black" fill="none" stroke-linecap="round"></path><path d="M 517.500,165.000 C 540.304,158.489 540.356,158.958 563.500,154.000" stroke-width="1.613" stroke="black" fill="none" stroke-linecap="round"></path><path d="M 563.500,154.000 C 586.932,149.946 586.804,149.489 610.500,147.000" stroke-width="1.519" stroke="black" fill="none" stroke-linecap="round"></path><path d="M 610.500,147.000 C 630.959,144.351 630.932,144.446 651.500,143.000" stroke-width="1.604" stroke="black" fill="none" stroke-linecap="round"></path><path d="M 651.500,143.000 C 668.997,142.302 668.959,141.851 686.500,142.000" stroke-width="1.713" stroke="black" fill="none" stroke-linecap="round"></path><path d="M 686.500,142.000 C 698.009,141.705 697.997,141.802 709.500,142.000" stroke-width="2.137" stroke="black" fill="none" stroke-linecap="round"></path><path d="M 709.500,142.000 C 717.591,141.968 717.509,142.205 725.500,143.000" stroke-width="2.567" stroke="black" fill="none" stroke-linecap="round"></path><path d="M 725.500,143.000 C 732.500,143.778 729.091,143.468 732.500,145.000" stroke-width="3.395" stroke="black" fill="none" stroke-linecap="round"></path><path d="M 732.500,145.000 C 729.200,147.260 732.500,146.278 725.500,148.000" stroke-width="3.676" stroke="black" fill="none" stroke-linecap="round"></path><path d="M 725.500,148.000 C 716.523,149.288 716.700,149.760 707.500,150.000" stroke-width="3.019" stroke="black" fill="none" stroke-linecap="round"></path><path d="M 707.500,150.000 C 697.506,150.743 697.523,150.788 687.500,151.000" stroke-width="2.635" stroke="black" fill="none" stroke-linecap="round"></path><path d="M 687.500,151.000 C 678.000,151.000 678.006,151.243 668.500,151.000" stroke-width="2.650" stroke="black" fill="none" stroke-linecap="round"></path><path d="M 668.500,151.000 C 658.448,151.728 658.500,151.000 648.500,151.000" stroke-width="2.604" stroke="black" fill="none" stroke-linecap="round"></path><path d="M 648.500,151.000 C 637.986,149.596 637.948,150.228 627.500,148.000" stroke-width="2.471" stroke="black" fill="none" stroke-linecap="round"></path><path d="M 627.500,148.000 C 615.042,145.701 614.986,146.096 602.500,144.000" stroke-width="2.319" stroke="black" fill="none" stroke-linecap="round"></path><path d="M 602.500,144.000 C 585.567,140.864 585.542,141.701 568.500,140.000" stroke-width="1.923" stroke="black" fill="none" stroke-linecap="round"></path><path d="M 568.500,140.000 C 545.981,139.312 546.067,138.864 523.500,140.000" stroke-width="1.640" stroke="black" fill="none" stroke-linecap="round"></path><path d="M 523.500,140.000 C 496.870,140.224 496.981,140.812 470.500,143.000" stroke-width="1.437" stroke="black" fill="none" stroke-linecap="round"></path><path d="M 470.500,143.000 C 439.995,147.464 439.870,146.224 409.500,152.000" stroke-width="1.230" stroke="black" fill="none" stroke-linecap="round"></path><path d="M 409.500,152.000 C 379.393,155.883 379.495,156.464 349.500,161.000" stroke-width="1.231" stroke="black" fill="none" stroke-linecap="round"></path><path d="M 349.500,161.000 C 323.908,165.576 323.893,165.383 298.500,171.000" stroke-width="1.336" stroke="black" fill="none" stroke-linecap="round"></path><path d="M 298.500,171.000 C 279.693,176.752 279.408,175.076 260.500,180.000" stroke-width="1.532" stroke="black" fill="none" stroke-linecap="round"></path></svg>