<svg xmlns="http://www.w3.org/2000/svg" xmlns:xlink="http://www.w3.org/1999/xlink" viewBox="0 0 453 236" width="453" height="236"><path d="M 129.500,159.000 C 125.962,158.692 126.000,158.500 122.500,158.000" stroke-width="5.006" stroke="black" fill="none" stroke-linecap="round"></path><path d="M 122.500,158.000 C 118.405,157.302 118.462,157.192 114.500,156.000" stroke-width="4.714" stroke="black" fill="none" stroke-linecap="round"></path><path d="M 114.500,156.000 C 108.008,153.479 107.905,153.802 101.500,151.000" stroke-width="4.257" stroke="black" fill="none" stroke-linecap="round"></path><path d="M 101.500,151.000 C 97.363,149.783 97.508,149.479 93.500,148.000" stroke-width="4.403" stroke="black" fill="none" stroke-linecap="round"></path><path d="M 93.500,148.000 C 88.500,146.668 90.863,146.783 88.500,145.000" stroke-width="4.660" stroke="black" fill="none" stroke-linecap="round"></path><path d="M 88.500,145.000 C 90.814,142.709 88.500,143.168 93.500,141.000" stroke-width="5.136" stroke="black" fill="none" stroke-linecap="round"></path><path d="M 93.500,141.000 C 96.548,139.590 96.314,139.209 99.500,138.000" stroke-width="4.255" stroke="black" fill="none" stroke-linecap="round"></path><path d="M 99.500,138.000 C 103.084,136.135 103.048,136.090 106.500,134.000" stroke-width="3.937" stroke="black" fill="none" stroke-linecap="round"></path><path d="M 106.500,134.000 C 110.960,130.938 111.084,131.135 115.500,128.000" stroke-width="3.512" stroke="black" fill="none" stroke-linecap="round"></path><path d="M 115.500,128.000 C 119.738,125.821 119.460,125.438 123.500,123.000" stroke-width="3.635" stroke="black" fill="none" stroke-linecap="round"></path><path d="M 123.500,123.000 C 127.287,119.222 127.738,119.821 131.500,116.000" stroke-width="3.511" stroke="black" fill="none" stroke-linecap="round"></path><path d="M 131.500,116.000 C 136.083,113.118 135.787,112.722 140.500,110.000" stroke-width="3.401" stroke="black" fill="none" stroke-linecap="round"></path><path d="M 140.500,110.000 C 144.570,107.088 144.583,107.118 148.500,104.000" stroke-width="3.498" stroke="black" fill="none" stroke-linecap="round"></path><path d="M 148.500,104.000 C 151.500,101.500 151.570,101.588 154.500,99.000" stroke-width="3.740" stroke="black" fill="none" stroke-linecap="round"></path><path d="M 154.500,99.000 C 157.355,96.306 157.500,96.500 160.500,94.000" stroke-width="3.711" stroke="black" fill="none" stroke-linecap="round"></path><path d="M 160.500,94.000 C 167.081,87.698 164.855,90.806 169.500,88.000" stroke-width="4.084" stroke="black" fill="none" stroke-linecap="round"></path><path d="M 169.500,88.000 C 169.785,91.787 171.081,88.198 168.500,95.000" stroke-width="4.838" stroke="black" fill="none" stroke-linecap="round"></path><path d="M 168.500,95.000 C 166.062,99.040 166.785,99.287 163.500,103.000" stroke-width="3.973" stroke="black" fill="none" stroke-linecap="round"></path><path d="M 163.500,103.000 C 160.500,107.500 160.562,107.540 157.500,112.000" stroke-width="3.583" stroke="black" fill="none" stroke-linecap="round"></path><path d="M 157.500,112.000 C 154.812,116.741 154.500,116.500 151.500,121.000" stroke-width="3.421" stroke="black" fill="none" stroke-linecap="round"></path><path d="M 151.500,121.000 C 147.224,125.282 147.812,125.741 143.500,130.000" stroke-width="3.330" stroke="black" fill="none" stroke-linecap="round"></path><path d="M 143.500,130.000 C 140.276,135.218 139.724,134.782 136.500,140.000" stroke-width="3.231" stroke="black" fill="none" stroke-linecap="round"></path><path d="M 136.500,140.000 C 132.632,144.625 132.776,144.718 128.500,149.000" stroke-width="3.216" stroke="black" fill="none" stroke-linecap="round"></path><path d="M 128.500,149.000 C 124.125,153.632 124.132,153.625 119.500,158.000" stroke-width="3.216" stroke="black" fill="none" stroke-linecap="round"></path><path d="M 119.500,158.000 C 115.290,162.367 115.125,162.132 110.500,166.000" stroke-width="3.212" stroke="black" fill="none" stroke-linecap="round"></path><path d="M 110.500,166.000 C 100.558,173.085 100.790,173.367 90.500,180.000" stroke-width="3.282" stroke="black" fill="none" stroke-linecap="round"></path><path d="M 90.500,180.000 C 84.257,183.682 84.558,184.085 78.500,188.000" stroke-width="3.049" stroke="black" fill="none" stroke-linecap="round"></path><path d="M 78.500,188.000 C 74.689,191.742 74.257,191.182 70.500,195.000" stroke-width="3.534" stroke="black" fill="none" stroke-linecap="round"></path><path d="M 70.500,195.000 C 65.537,198.554 65.689,198.742 60.500,202.000" stroke-width="3.286" stroke="black" fill="none" stroke-linecap="round"></path><path d="M 60.500,202.000 C 56.084,205.135 56.037,205.054 51.500,208.000" stroke-width="3.442" stroke="black" fill="none" stroke-linecap="round"></path><path d="M 51.500,208.000 C 48.000,210.000 48.084,210.135 44.500,212.000" stroke-width="3.695" stroke="black" fill="none" stroke-linecap="round"></path><path d="M 44.500,212.000 C 41.171,214.369 41.000,214.000 37.500,216.000" stroke-width="4.141" stroke="black" fill="none" stroke-linecap="round"></path><path d="M 37.500,216.000 C 32.111,218.442 32.171,218.369 26.500,220.000" stroke-width="3.473" stroke="black" fill="none" stroke-linecap="round"></path><path d="M 26.500,220.000 C 21.907,222.444 23.111,220.942 19.500,221.000" stroke-width="4.225" stroke="black" fill="none" stroke-linecap="round"></path><path d="M 19.500,221.000 C 17.282,217.647 16.907,219.444 16.500,214.000" stroke-width="4.761" stroke="black" fill="none" stroke-linecap="round"></path><path d="M 16.500,214.000 C 15.455,210.134 15.782,210.647 16.500,207.000" stroke-width="4.134" stroke="black" fill="none" stroke-linecap="round"></path><path d="M 16.500,207.000 C 18.548,204.537 17.455,204.134 20.500,202.000" stroke-width="4.100" stroke="black" fill="none" stroke-linecap="round"></path><path d="M 20.500,202.000 C 23.118,197.642 23.548,198.037 26.500,194.000" stroke-width="3.631" stroke="black" fill="none" stroke-linecap="round"></path><path d="M 26.500,194.000 C 30.016,191.019 29.618,190.642 33.500,188.000" stroke-width="3.642" stroke="black" fill="none" stroke-linecap="round"></path><path d="M 33.500,188.000 C 37.262,184.179 37.516,184.519 41.500,181.000" stroke-width="3.454" stroke="black" fill="none" stroke-linecap="round"></path><path d="M 41.500,181.000 C 45.298,178.101 45.262,178.179 49.500,176.000" stroke-width="3.567" stroke="black" fill="none" stroke-linecap="round"></path><path d="M 49.500,176.000 C 54.400,173.700 54.298,173.601 59.500,172.000" stroke-width="3.533" stroke="black" fill="none" stroke-linecap="round"></path><path d="M 59.500,172.000 C 65.000,170.500 64.900,170.200 70.500,169.000" stroke-width="3.355" stroke="black" fill="none" stroke-linecap="round"></path><path d="M 70.500,169.000 C 75.907,166.973 76.000,167.500 81.500,166.000" stroke-width="3.363" stroke="black" fill="none" stroke-linecap="round"></path><path d="M 81.500,166.000 C 87.531,165.746 87.407,164.973 93.500,165.000" stroke-width="3.254" stroke="black" fill="none" stroke-linecap="round"></path><path d="M 93.500,165.000 C 99.528,164.148 99.531,164.246 105.500,163.000" stroke-width="3.271" stroke="black" fill="none" stroke-linecap="round"></path><path d="M 105.500,163.000 C 112.652,161.997 112.528,161.648 119.500,160.000" stroke-width="3.116" stroke="black" fill="none" stroke-linecap="round"></path><path d="M 119.500,160.000 C 124.500,158.000 124.652,158.497 129.500,156.000" stroke-width="3.284" stroke="black" fill="none" stroke-linecap="round"></path><path d="M 129.500,156.000 C 134.481,153.952 134.500,154.000 139.500,152.000" stroke-width="3.445" stroke="black" fill="none" stroke-linecap="round"></path><path d="M 139.500,152.000 C 143.478,150.437 143.481,150.452 147.500,149.000" stroke-width="3.597" stroke="black" fill="none" stroke-linecap="round"></path><path d="M 147.500,149.000 C 150.588,148.213 150.478,147.937 153.500,147.000" stroke-width="3.935" stroke="black" fill="none" stroke-linecap="round"></path><path d="M 153.500,147.000 C 156.608,145.687 156.588,145.713 159.500,144.000" stroke-width="3.955" stroke="black" fill="none" stroke-linecap="round"></path><path d="M 159.500,144.000 C 166.167,140.890 162.608,142.187 165.500,140.000" stroke-width="4.426" stroke="black" fill="none" stroke-linecap="round"></path><path d="M 165.500,140.000 C 160.720,138.945 164.667,138.890 156.500,140.000" stroke-width="4.982" stroke="black" fill="none" stroke-linecap="round"></path><path d="M 156.500,140.000 C 153.013,142.024 152.720,140.945 149.500,144.000" stroke-width="4.104" stroke="black" fill="none" stroke-linecap="round"></path><path d="M 149.500,144.000 C 144.650,146.036 145.013,146.524 140.500,149.000" stroke-width="3.664" stroke="black" fill="none" stroke-linecap="round"></path><path d="M 140.500,149.000 C 138.124,151.638 137.650,151.036 135.500,154.000" stroke-width="3.875" stroke="black" fill="none" stroke-linecap="round"></path><path d="M 135.500,154.000 C 132.889,155.876 133.124,156.138 130.500,158.000" stroke-width="3.973" stroke="black" fill="none" stroke-linecap="round"></path><path d="M 130.500,158.000 C 128.101,159.713 128.389,159.876 126.500,162.000" stroke-width="4.143" stroke="black" fill="none" stroke-linecap="round"></path><path d="M 126.500,162.000 C 123.500,165.000 124.601,164.713 123.500,168.000" stroke-width="4.486" stroke="black" fill="none" stroke-linecap="round"></path><path d="M 123.500,168.000 C 123.855,172.678 123.500,171.000 126.500,174.000" stroke-width="4.791" stroke="black" fill="none" stroke-linecap="round"></path><path d="M 126.500,174.000 C 131.988,174.760 130.855,176.178 137.500,175.000" stroke-width="4.372" stroke="black" fill="none" stroke-linecap="round"></path><path d="M 137.500,175.000 C 143.978,176.578 143.488,175.260 149.500,175.000" stroke-width="4.196" stroke="black" fill="none" stroke-linecap="round"></path><path d="M 149.500,175.000 C 154.232,172.283 154.478,173.578 158.500,169.000" stroke-width="4.487" stroke="black" fill="none" stroke-linecap="round"></path><path d="M 158.500,169.000 C 161.123,167.411 160.732,167.283 162.500,165.000" stroke-width="4.379" stroke="black" fill="none" stroke-linecap="round"></path><path d="M 162.500,165.000 C 168.000,158.500 165.123,160.411 166.500,155.000" stroke-width="4.303" stroke="black" fill="none" stroke-linecap="round"></path><path d="M 166.500,155.000 C 161.204,151.000 165.000,151.500 156.500,151.000" stroke-width="4.870" stroke="black" fill="none" stroke-linecap="round"></path><path d="M 156.500,151.000 C 153.401,152.556 153.704,151.000 151.500,155.000" stroke-width="4.758" stroke="black" fill="none" stroke-linecap="round"></path><path d="M 151.500,155.000 C 150.270,157.432 149.901,157.056 149.500,160.000" stroke-width="4.826" stroke="black" fill="none" stroke-linecap="round"></path><path d="M 149.500,160.000 C 147.384,163.438 148.770,162.432 148.500,165.000" stroke-width="4.858" stroke="black" fill="none" stroke-linecap="round"></path><path d="M 148.500,165.000 C 151.421,166.487 149.884,166.938 154.500,167.000" stroke-width="5.088" stroke="black" fill="none" stroke-linecap="round"></path><path d="M 154.500,167.000 C 157.612,167.619 157.421,167.487 160.500,167.000" stroke-width="4.447" stroke="black" fill="none" stroke-linecap="round"></path><path d="M 160.500,167.000 C 164.749,165.986 164.612,166.119 168.500,164.000" stroke-width="3.870" stroke="black" fill="none" stroke-linecap="round"></path><path d="M 168.500,164.000 C 172.904,160.845 173.249,161.486 177.500,158.000" stroke-width="4.098" stroke="black" fill="none" stroke-linecap="round"></path><path d="M 177.500,158.000 C 183.991,155.179 183.404,154.345 189.500,151.000" stroke-width="3.465" stroke="black" fill="none" stroke-linecap="round"></path><path d="M 189.500,151.000 C 198.174,143.685 198.491,144.179 206.500,136.000" stroke-width="2.653" stroke="black" fill="none" stroke-linecap="round"></path><path d="M 206.500,136.000 C 211.280,131.747 211.174,131.685 215.500,127.000" stroke-width="2.971" stroke="black" fill="none" stroke-linecap="round"></path><path d="M 215.500,127.000 C 218.877,122.399 219.280,122.747 222.500,118.000" stroke-width="3.238" stroke="black" fill="none" stroke-linecap="round"></path><path d="M 222.500,118.000 C 226.123,114.101 225.877,113.899 229.500,110.000" stroke-width="3.336" stroke="black" fill="none" stroke-linecap="round"></path><path d="M 229.500,110.000 C 232.877,105.399 233.123,105.601 236.500,101.000" stroke-width="3.300" stroke="black" fill="none" stroke-linecap="round"></path><path d="M 236.500,101.000 C 240.223,97.171 239.877,96.899 243.500,93.000" stroke-width="3.915" stroke="black" fill="none" stroke-linecap="round"></path><path d="M 243.500,93.000 C 245.306,89.853 245.723,90.171 247.500,87.000" stroke-width="3.889" stroke="black" fill="none" stroke-linecap="round"></path><path d="M 247.500,87.000 C 250.895,83.762 250.306,83.353 253.500,80.000" stroke-width="3.659" stroke="black" fill="none" stroke-linecap="round"></path><path d="M 253.500,80.000 C 254.747,76.848 255.395,77.262 256.500,74.000" stroke-width="3.955" stroke="black" fill="none" stroke-linecap="round"></path><path d="M 256.500,74.000 C 262.465,68.207 258.747,70.348 261.500,67.000" stroke-width="4.315" stroke="black" fill="none" stroke-linecap="round"></path><path d="M 261.500,67.000 C 256.577,67.081 260.465,65.707 252.500,69.000" stroke-width="4.731" stroke="black" fill="none" stroke-linecap="round"></path><path d="M 252.500,69.000 C 248.228,71.686 248.077,71.081 244.500,75.000" stroke-width="3.891" stroke="black" fill="none" stroke-linecap="round"></path><path d="M 244.500,75.000 C 239.392,79.896 239.228,79.686 234.500,85.000" stroke-width="3.278" stroke="black" fill="none" stroke-linecap="round"></path><path d="M 234.500,85.000 C 228.250,92.250 227.892,91.896 221.500,99.000" stroke-width="2.743" stroke="black" fill="none" stroke-linecap="round"></path><path d="M 221.500,99.000 C 214.154,105.156 214.750,105.750 207.500,112.000" stroke-width="2.835" stroke="black" fill="none" stroke-linecap="round"></path><path d="M 207.500,112.000 C 196.748,123.288 196.654,123.156 186.500,135.000" stroke-width="2.182" stroke="black" fill="none" stroke-linecap="round"></path><path d="M 186.500,135.000 C 182.963,139.472 182.748,139.288 179.500,144.000" stroke-width="2.852" stroke="black" fill="none" stroke-linecap="round"></path><path d="M 179.500,144.000 C 176.268,147.848 176.463,147.972 173.500,152.000" stroke-width="3.253" stroke="black" fill="none" stroke-linecap="round"></path><path d="M 173.500,152.000 C 171.223,155.364 171.268,155.348 169.500,159.000" stroke-width="3.579" stroke="black" fill="none" stroke-linecap="round"></path><path d="M 169.500,159.000 C 166.048,164.810 166.723,164.864 164.500,171.000" stroke-width="3.887" stroke="black" fill="none" stroke-linecap="round"></path><path d="M 164.500,171.000 C 162.508,177.257 163.548,174.810 164.500,179.000" stroke-width="4.506" stroke="black" fill="none" stroke-linecap="round"></path><path d="M 164.500,179.000 C 168.750,179.250 166.508,180.757 172.500,178.000" stroke-width="4.934" stroke="black" fill="none" stroke-linecap="round"></path><path d="M 172.500,178.000 C 176.113,176.177 176.250,176.750 179.500,174.000" stroke-width="4.094" stroke="black" fill="none" stroke-linecap="round"></path><path d="M 179.500,174.000 C 182.887,171.323 183.113,171.677 186.500,169.000" stroke-width="3.836" stroke="black" fill="none" stroke-linecap="round"></path><path d="M 186.500,169.000 C 190.113,167.177 189.887,166.823 193.500,165.000" stroke-width="3.710" stroke="black" fill="none" stroke-linecap="round"></path><path d="M 193.500,165.000 C 197.000,162.500 197.113,162.677 200.500,160.000" stroke-width="3.822" stroke="black" fill="none" stroke-linecap="round"></path><path d="M 200.500,160.000 C 204.093,157.621 204.000,157.500 207.500,155.000" stroke-width="3.706" stroke="black" fill="none" stroke-linecap="round"></path><path d="M 207.500,155.000 C 210.478,152.473 210.593,152.621 213.500,150.000" stroke-width="3.855" stroke="black" fill="none" stroke-linecap="round"></path><path d="M 213.500,150.000 C 216.000,148.000 215.978,147.973 218.500,146.000" stroke-width="3.967" stroke="black" fill="none" stroke-linecap="round"></path><path d="M 218.500,146.000 C 220.913,143.881 221.000,144.000 223.500,142.000" stroke-width="4.002" stroke="black" fill="none" stroke-linecap="round"></path><path d="M 223.500,142.000 C 228.238,137.243 226.413,139.881 229.500,138.000" stroke-width="4.429" stroke="black" fill="none" stroke-linecap="round"></path><path d="M 229.500,138.000 C 229.526,141.664 230.738,138.743 228.500,145.000" stroke-width="4.851" stroke="black" fill="none" stroke-linecap="round"></path><path d="M 228.500,145.000 C 227.105,148.058 227.526,148.164 225.500,151.000" stroke-width="4.298" stroke="black" fill="none" stroke-linecap="round"></path><path d="M 225.500,151.000 C 224.168,153.617 224.105,153.558 222.500,156.000" stroke-width="4.174" stroke="black" fill="none" stroke-linecap="round"></path><path d="M 222.500,156.000 C 219.831,158.149 220.668,158.617 218.500,161.000" stroke-width="4.063" stroke="black" fill="none" stroke-linecap="round"></path><path d="M 218.500,161.000 C 214.613,169.226 216.331,165.649 215.500,171.000" stroke-width="4.479" stroke="black" fill="none" stroke-linecap="round"></path><path d="M 215.500,171.000 C 218.587,169.119 216.113,172.226 221.500,167.000" stroke-width="4.867" stroke="black" fill="none" stroke-linecap="round"></path><path d="M 221.500,167.000 C 223.940,164.920 224.087,165.119 226.500,163.000" stroke-width="4.341" stroke="black" fill="none" stroke-linecap="round"></path><path d="M 226.500,163.000 C 229.964,160.448 229.940,160.420 233.500,158.000" stroke-width="3.839" stroke="black" fill="none" stroke-linecap="round"></path><path d="M 233.500,158.000 C 236.351,155.717 236.464,155.948 239.500,154.000" stroke-width="3.961" stroke="black" fill="none" stroke-linecap="round"></path><path d="M 239.500,154.000 C 241.971,152.920 241.851,152.717 244.500,152.000" stroke-width="4.212" stroke="black" fill="none" stroke-linecap="round"></path><path d="M 244.500,152.000 C 247.588,151.213 247.471,150.920 250.500,150.000" stroke-width="4.177" stroke="black" fill="none" stroke-linecap="round"></path><path d="M 250.500,150.000 C 256.046,146.092 253.588,148.713 256.500,147.000" stroke-width="4.513" stroke="black" fill="none" stroke-linecap="round"></path><path d="M 256.500,147.000 C 254.300,150.400 257.046,148.092 252.500,154.000" stroke-width="4.923" stroke="black" fill="none" stroke-linecap="round"></path><path d="M 252.500,154.000 C 248.192,160.346 250.800,157.400 249.500,161.000" stroke-width="4.651" stroke="black" fill="none" stroke-linecap="round"></path><path d="M 249.500,161.000 C 254.230,159.402 251.192,161.846 258.500,157.000" stroke-width="4.917" stroke="black" fill="none" stroke-linecap="round"></path><path d="M 258.500,157.000 C 261.964,154.448 262.230,154.902 265.500,152.000" stroke-width="4.083" stroke="black" fill="none" stroke-linecap="round"></path><path d="M 265.500,152.000 C 268.392,149.813 268.464,149.948 271.500,148.000" stroke-width="3.937" stroke="black" fill="none" stroke-linecap="round"></path><path d="M 271.500,148.000 C 274.548,146.590 274.392,146.313 277.500,145.000" stroke-width="4.004" stroke="black" fill="none" stroke-linecap="round"></path><path d="M 277.500,145.000 C 283.264,140.011 281.048,143.090 284.500,141.000" stroke-width="4.315" stroke="black" fill="none" stroke-linecap="round"></path><path d="M 284.500,141.000 C 284.189,145.341 285.764,142.011 282.500,149.000" stroke-width="4.906" stroke="black" fill="none" stroke-linecap="round"></path><path d="M 282.500,149.000 C 280.420,151.440 281.189,151.841 278.500,154.000" stroke-width="4.302" stroke="black" fill="none" stroke-linecap="round"></path><path d="M 278.500,154.000 C 275.884,157.424 275.920,157.440 273.500,161.000" stroke-width="4.413" stroke="black" fill="none" stroke-linecap="round"></path><path d="M 273.500,161.000 C 270.000,164.000 271.884,163.424 270.500,166.000" stroke-width="4.839" stroke="black" fill="none" stroke-linecap="round"></path><path d="M 270.500,166.000 C 272.844,169.295 271.000,168.000 275.500,169.000" stroke-width="5.242" stroke="black" fill="none" stroke-linecap="round"></path><path d="M 275.500,169.000 C 282.308,167.096 281.844,168.295 288.500,164.000" stroke-width="4.270" stroke="black" fill="none" stroke-linecap="round"></path><path d="M 288.500,164.000 C 293.070,161.101 293.308,161.596 297.500,158.000" stroke-width="3.586" stroke="black" fill="none" stroke-linecap="round"></path><path d="M 297.500,158.000 C 303.221,154.273 303.070,154.101 308.500,150.000" stroke-width="3.186" stroke="black" fill="none" stroke-linecap="round"></path><path d="M 308.500,150.000 C 313.625,145.631 313.721,145.773 318.500,141.000" stroke-width="3.154" stroke="black" fill="none" stroke-linecap="round"></path><path d="M 318.500,141.000 C 323.762,136.237 323.625,136.131 328.500,131.000" stroke-width="3.034" stroke="black" fill="none" stroke-linecap="round"></path><path d="M 328.500,131.000 C 333.241,125.678 333.262,125.737 337.500,120.000" stroke-width="3.055" stroke="black" fill="none" stroke-linecap="round"></path><path d="M 337.500,120.000 C 340.295,115.350 340.741,115.678 343.500,111.000" stroke-width="3.260" stroke="black" fill="none" stroke-linecap="round"></path><path d="M 343.500,111.000 C 347.836,106.234 347.295,105.850 351.500,101.000" stroke-width="3.164" stroke="black" fill="none" stroke-linecap="round"></path><path d="M 351.500,101.000 C 354.579,96.046 354.836,96.234 357.500,91.000" stroke-width="3.226" stroke="black" fill="none" stroke-linecap="round"></path><path d="M 357.500,91.000 C 360.200,86.600 360.079,86.546 362.500,82.000" stroke-width="3.415" stroke="black" fill="none" stroke-linecap="round"></path><path d="M 362.500,82.000 C 364.589,77.538 364.700,77.600 366.500,73.000" stroke-width="3.462" stroke="black" fill="none" stroke-linecap="round"></path><path d="M 366.500,73.000 C 368.450,67.979 368.589,68.038 370.500,63.000" stroke-width="3.391" stroke="black" fill="none" stroke-linecap="round"></path><path d="M 370.500,63.000 C 372.134,59.551 371.950,59.479 373.500,56.000" stroke-width="3.675" stroke="black" fill="none" stroke-linecap="round"></path><path d="M 373.500,56.000 C 374.420,52.971 374.634,53.051 375.500,50.000" stroke-width="3.917" stroke="black" fill="none" stroke-linecap="round"></path><path d="M 375.500,50.000 C 378.270,46.027 376.420,47.471 377.500,45.000" stroke-width="4.530" stroke="black" fill="none" stroke-linecap="round"></path><path d="M 377.500,45.000 C 374.348,44.416 376.770,44.027 372.500,46.000" stroke-width="4.917" stroke="black" fill="none" stroke-linecap="round"></path><path d="M 372.500,46.000 C 367.760,51.319 367.348,50.416 363.500,57.000" stroke-width="3.378" stroke="black" fill="none" stroke-linecap="round"></path><path d="M 363.500,57.000 C 358.885,63.423 358.760,63.319 354.500,70.000" stroke-width="3.040" stroke="black" fill="none" stroke-linecap="round"></path><path d="M 354.500,70.000 C 349.623,76.785 349.885,76.923 345.500,84.000" stroke-width="2.836" stroke="black" fill="none" stroke-linecap="round"></path><path d="M 345.500,84.000 C 342.480,91.284 341.623,90.785 338.500,98.000" stroke-width="2.900" stroke="black" fill="none" stroke-linecap="round"></path><path d="M 338.500,98.000 C 334.163,104.619 334.480,104.784 329.500,111.000" stroke-width="2.850" stroke="black" fill="none" stroke-linecap="round"></path><path d="M 329.500,111.000 C 324.500,117.500 324.663,117.619 319.500,124.000" stroke-width="2.966" stroke="black" fill="none" stroke-linecap="round"></path><path d="M 319.500,124.000 C 314.745,130.705 314.500,130.500 309.500,137.000" stroke-width="2.832" stroke="black" fill="none" stroke-linecap="round"></path><path d="M 309.500,137.000 C 304.283,142.320 304.745,142.705 299.500,148.000" stroke-width="2.948" stroke="black" fill="none" stroke-linecap="round"></path><path d="M 299.500,148.000 C 296.268,151.848 296.283,151.820 293.500,156.000" stroke-width="3.386" stroke="black" fill="none" stroke-linecap="round"></path><path d="M 293.500,156.000 C 291.410,159.452 291.268,159.348 289.500,163.000" stroke-width="3.720" stroke="black" fill="none" stroke-linecap="round"></path><path d="M 289.500,163.000 C 285.526,167.783 287.910,165.952 286.500,169.000" stroke-width="4.355" stroke="black" fill="none" stroke-linecap="round"></path><path d="M 286.500,169.000 C 290.157,169.045 287.526,170.283 293.500,168.000" stroke-width="4.891" stroke="black" fill="none" stroke-linecap="round"></path><path d="M 293.500,168.000 C 298.100,166.200 298.157,166.545 302.500,164.000" stroke-width="3.811" stroke="black" fill="none" stroke-linecap="round"></path><path d="M 302.500,164.000 C 307.000,161.500 307.100,161.700 311.500,159.000" stroke-width="3.590" stroke="black" fill="none" stroke-linecap="round"></path><path d="M 311.500,159.000 C 315.820,156.106 316.000,156.500 320.500,154.000" stroke-width="3.529" stroke="black" fill="none" stroke-linecap="round"></path><path d="M 320.500,154.000 C 326.032,152.083 325.820,151.606 331.500,150.000" stroke-width="3.388" stroke="black" fill="none" stroke-linecap="round"></path><path d="M 331.500,150.000 C 336.353,147.430 336.532,148.083 341.500,146.000" stroke-width="3.613" stroke="black" fill="none" stroke-linecap="round"></path><path d="M 341.500,146.000 C 345.487,145.287 345.353,144.930 349.500,145.000" stroke-width="3.752" stroke="black" fill="none" stroke-linecap="round"></path><path d="M 349.500,145.000 C 352.527,144.730 352.487,144.787 355.500,145.000" stroke-width="4.027" stroke="black" fill="none" stroke-linecap="round"></path><path d="M 355.500,145.000 C 359.490,144.149 358.027,145.230 360.500,146.000" stroke-width="4.191" stroke="black" fill="none" stroke-linecap="round"></path><path d="M 360.500,146.000 C 363.265,151.808 362.490,149.649 361.500,156.000" stroke-width="4.275" stroke="black" fill="none" stroke-linecap="round"></path><path d="M 361.500,156.000 C 357.214,160.735 359.265,161.308 352.500,165.000" stroke-width="3.475" stroke="black" fill="none" stroke-linecap="round"></path><path d="M 352.500,165.000 C 346.970,170.686 346.714,170.235 340.500,175.000" stroke-width="3.010" stroke="black" fill="none" stroke-linecap="round"></path><path d="M 340.500,175.000 C 331.701,180.400 331.970,180.686 322.500,185.000" stroke-width="2.602" stroke="black" fill="none" stroke-linecap="round"></path><path d="M 322.500,185.000 C 312.688,189.972 312.701,189.900 302.500,194.000" stroke-width="2.498" stroke="black" fill="none" stroke-linecap="round"></path><path d="M 302.500,194.000 C 291.174,198.595 291.188,198.472 279.500,202.000" stroke-width="2.365" stroke="black" fill="none" stroke-linecap="round"></path><path d="M 279.500,202.000 C 267.104,205.529 267.174,205.595 254.500,208.000" stroke-width="2.216" stroke="black" fill="none" stroke-linecap="round"></path><path d="M 254.500,208.000 C 241.555,210.451 241.604,210.529 228.500,212.000" stroke-width="2.153" stroke="black" fill="none" stroke-linecap="round"></path><path d="M 228.500,212.000 C 211.988,213.378 212.055,213.951 195.500,215.000" stroke-width="1.918" stroke="black" fill="none" stroke-linecap="round"></path><path d="M 195.500,215.000 C 181.537,217.190 181.488,216.378 167.500,218.000" stroke-width="2.053" stroke="black" fill="none" stroke-linecap="round"></path><path d="M 167.500,218.000 C 155.500,218.000 155.537,218.690 143.500,218.000" stroke-width="2.187" stroke="black" fill="none" stroke-linecap="round"></path><path d="M 143.500,218.000 C 131.355,219.289 131.500,218.000 119.500,218.000" stroke-width="2.287" stroke="black" fill="none" stroke-linecap="round"></path><path d="M 119.500,218.000 C 108.311,216.130 108.355,216.789 97.500,213.000" stroke-width="2.377" stroke="black" fill="none" stroke-linecap="round"></path><path d="M 97.500,213.000 C 89.159,210.697 89.311,210.630 81.500,207.000" stroke-width="2.661" stroke="black" fill="none" stroke-linecap="round"></path><path d="M 81.500,207.000 C 74.690,203.421 74.659,203.697 68.500,199.000" stroke-width="2.866" stroke="black" fill="none" stroke-linecap="round"></path><path d="M 68.500,199.000 C 63.275,196.288 64.190,195.921 60.500,192.000" stroke-width="3.258" stroke="black" fill="none" stroke-linecap="round"></path><path d="M 60.500,192.000 C 58.168,187.122 57.775,187.788 57.500,182.000" stroke-width="3.359" stroke="black" fill="none" stroke-linecap="round"></path><path d="M 57.500,182.000 C 56.588,175.381 56.668,175.622 57.500,169.000" stroke-width="3.176" stroke="black" fill="none" stroke-linecap="round"></path><path d="M 57.500,169.000 C 58.491,161.093 58.588,161.381 61.500,154.000" stroke-width="2.944" stroke="black" fill="none" stroke-linecap="round"></path><path d="M 61.500,154.000 C 65.967,144.661 65.491,144.593 71.500,136.000" stroke-width="2.587" stroke="black" fill="none" stroke-linecap="round"></path><path d="M 71.500,136.000 C 77.052,126.146 77.467,126.661 84.500,118.000" stroke-width="2.482" stroke="black" fill="none" stroke-linecap="round"></path><path d="M 84.500,118.000 C 93.284,108.551 93.052,108.646 103.500,101.000" stroke-width="2.372" stroke="black" fill="none" stroke-linecap="round"></path><path d="M 103.500,101.000 C 116.378,91.304 116.284,91.551 130.500,84.000" stroke-width="2.004" stroke="black" fill="none" stroke-linecap="round"></path><path d="M 130.500,84.000 C 145.679,76.598 145.378,76.304 161.500,71.000" stroke-width="1.867" stroke="black" fill="none" stroke-linecap="round"></path><path d="M 161.500,71.000 C 178.278,65.052 178.179,65.098 195.500,61.000" stroke-width="1.886" stroke="black" fill="none" stroke-linecap="round"></path><path d="M 195.500,61.000 C 212.406,57.296 212.278,57.052 229.500,55.000" stroke-width="1.865" stroke="black" fill="none" stroke-linecap="round"></path><path d="M 229.500,55.000 C 245.969,52.813 245.906,52.796 262.500,52.000" stroke-width="1.841" stroke="black" fill="none" stroke-linecap="round"></path><path d="M 262.500,52.000 C 276.500,52.000 276.469,51.313 290.500,52.000" stroke-width="2.079" stroke="black" fill="none" stroke-linecap="round"></path><path d="M 290.500,52.000 C 301.165,50.819 301.000,52.000 311.500,52.000" stroke-width="2.367" stroke="black" fill="none" stroke-linecap="round"></path><path d="M 311.500,52.000 C 318.742,53.426 318.665,52.819 325.500,56.000" stroke-width="2.795" stroke="black" fill="none" stroke-linecap="round"></path><path d="M 325.500,56.000 C 332.081,57.067 329.242,57.426 332.500,60.000" stroke-width="3.396" stroke="black" fill="none" stroke-linecap="round"></path><path d="M 332.500,60.000 C 331.771,66.925 333.081,64.067 327.500,70.000" stroke-width="3.922" stroke="black" fill="none" stroke-linecap="round"></path><path d="M 327.500,70.000 C 317.687,74.536 319.271,75.925 307.500,78.000" stroke-width="2.714" stroke="black" fill="none" stroke-linecap="round"></path><path d="M 307.500,78.000 C 292.624,82.967 292.687,83.036 277.500,87.000" stroke-width="2.154" stroke="black" fill="none" stroke-linecap="round"></path><path d="M 277.500,87.000 C 262.513,90.555 262.624,90.967 247.500,94.000" stroke-width="1.987" stroke="black" fill="none" stroke-linecap="round"></path><path d="M 247.500,94.000 C 232.085,97.934 232.013,97.555 216.500,101.000" stroke-width="1.913" stroke="black" fill="none" stroke-linecap="round"></path><path d="M 216.500,101.000 C 201.492,103.454 201.585,103.934 186.500,106.000" stroke-width="1.931" stroke="black" fill="none" stroke-linecap="round"></path><path d="M 186.500,106.000 C 175.061,108.459 174.992,107.954 163.500,110.000" stroke-width="2.168" stroke="black" fill="none" stroke-linecap="round"></path><path d="M 163.500,110.000 C 152.519,111.420 152.561,111.459 141.500,112.000" stroke-width="2.355" stroke="black" fill="none" stroke-linecap="round"></path><path d="M 141.500,112.000 C 133.500,112.000 133.519,112.420 125.500,112.000" stroke-width="3.184" stroke="black" fill="none" stroke-linecap="round"></path><path d="M 363.500,158.000 C 354.260,156.177 359.500,157.000 355.500,156.000" stroke-width="4.691" stroke="black" fill="none" stroke-linecap="round"></path><path d="M 355.500,156.000 C 363.014,157.333 357.760,155.677 370.500,157.000" stroke-width="4.759" stroke="black" fill="none" stroke-linecap="round"></path><path d="M 370.500,157.000 C 385.564,155.948 385.514,156.333 400.500,154.000" stroke-width="2.370" stroke="black" fill="none" stroke-linecap="round"></path><path d="M 400.500,154.000 C 408.429,151.961 408.564,152.948 416.500,151.000" stroke-width="2.648" stroke="black" fill="none" stroke-linecap="round"></path><path d="M 416.500,151.000 C 429.492,149.788 429.429,149.461 442.500,149.000" stroke-width="2.976" stroke="black" fill="none" stroke-linecap="round"></path><path d="M 442.500,149.000 C 446.000,149.000 445.992,148.788 449.500,149.000" stroke-width="3.617" stroke="black" fill="none" stroke-linecap="round"></path><path d="M 449.500,149.000 C 458.098,148.004 453.500,149.000 457.500,149.000" stroke-width="4.225" stroke="black" fill="none" stroke-linecap="round"></path><path d="M 457.500,149.000 C 452.087,151.714 456.598,150.504 446.500,154.000" stroke-width="4.422" stroke="black" fill="none" stroke-linecap="round"></path><path d="M 446.500,154.000 C 441.135,156.483 441.087,156.214 435.500,158.000" stroke-width="3.660" stroke="black" fill="none" stroke-linecap="round"></path><path d="M 435.500,158.000 C 427.991,159.458 428.135,159.983 420.500,161.000" stroke-width="3.073" stroke="black" fill="none" stroke-linecap="round"></path><path d="M 420.500,161.000 C 411.081,163.526 410.991,162.958 401.500,165.000" stroke-width="2.966" stroke="black" fill="none" stroke-linecap="round"></path><path d="M 401.500,165.000 C 391.502,166.024 391.581,166.526 381.500,167.000" stroke-width="2.618" stroke="black" fill="none" stroke-linecap="round"></path><path d="M 381.500,167.000 C 370.966,167.724 371.002,168.024 360.500,169.000" stroke-width="2.481" stroke="black" fill="none" stroke-linecap="round"></path><path d="M 360.500,169.000 C 350.473,170.338 350.466,170.224 340.500,172.000" stroke-width="2.483" stroke="black" fill="none" stroke-linecap="round"></path><path d="M 340.500,172.000 C 332.512,173.569 332.473,173.338 324.500,175.000" stroke-width="2.744" stroke="black" fill="none" stroke-linecap="round"></path><path d="M 324.500,175.000 C 318.533,176.397 318.512,176.069 312.500,177.000" stroke-width="3.098" stroke="black" fill="none" stroke-linecap="round"></path><path d="M 312.500,177.000 C 308.307,177.816 308.533,177.397 304.500,177.000" stroke-width="3.573" stroke="black" fill="none" stroke-linecap="round"></path></svg>