<svg xmlns="http://www.w3.org/2000/svg" xmlns:xlink="http://www.w3.org/1999/xlink" viewBox="0 0 453 236" width="453" height="236"><path d="M 86.500,163.000 C 83.101,161.200 83.000,161.500 79.500,160.000" stroke-width="5.083" stroke="black" fill="none" stroke-linecap="round"></path><path d="M 79.500,160.000 C 75.429,159.228 75.601,158.700 71.500,158.000" stroke-width="4.718" stroke="black" fill="none" stroke-linecap="round"></path><path d="M 71.500,158.000 C 67.604,156.094 67.429,156.728 63.500,155.000" stroke-width="4.560" stroke="black" fill="none" stroke-linecap="round"></path><path d="M 63.500,155.000 C 56.274,154.906 60.104,154.094 56.500,154.000" stroke-width="4.610" stroke="black" fill="none" stroke-linecap="round"></path><path d="M 56.500,154.000 C 60.704,152.898 56.774,152.906 64.500,151.000" stroke-width="5.063" stroke="black" fill="none" stroke-linecap="round"></path><path d="M 64.500,151.000 C 67.647,149.194 67.704,149.398 70.500,147.000" stroke-width="4.229" stroke="black" fill="none" stroke-linecap="round"></path><path d="M 70.500,147.000 C 74.104,144.113 74.147,144.194 77.500,141.000" stroke-width="3.804" stroke="black" fill="none" stroke-linecap="round"></path><path d="M 77.500,141.000 C 79.896,138.387 80.104,138.613 82.500,136.000" stroke-width="3.871" stroke="black" fill="none" stroke-linecap="round"></path><path d="M 82.500,136.000 C 86.252,133.248 85.896,132.887 89.500,130.000" stroke-width="3.712" stroke="black" fill="none" stroke-linecap="round"></path><path d="M 89.500,130.000 C 91.637,126.576 92.252,127.248 94.500,124.000" stroke-width="3.759" stroke="black" fill="none" stroke-linecap="round"></path><path d="M 94.500,124.000 C 97.117,122.668 96.637,122.076 99.500,121.000" stroke-width="4.006" stroke="black" fill="none" stroke-linecap="round"></path><path d="M 99.500,121.000 C 104.159,115.636 102.117,119.168 104.500,117.000" stroke-width="4.460" stroke="black" fill="none" stroke-linecap="round"></path><path d="M 104.500,117.000 C 103.769,123.327 105.159,119.636 101.500,129.000" stroke-width="4.665" stroke="black" fill="none" stroke-linecap="round"></path><path d="M 101.500,129.000 C 99.116,133.077 99.769,133.327 96.500,137.000" stroke-width="3.815" stroke="black" fill="none" stroke-linecap="round"></path><path d="M 96.500,137.000 C 92.938,141.958 93.116,142.077 89.500,147.000" stroke-width="3.631" stroke="black" fill="none" stroke-linecap="round"></path><path d="M 89.500,147.000 C 85.983,153.396 85.438,152.958 81.500,159.000" stroke-width="3.132" stroke="black" fill="none" stroke-linecap="round"></path><path d="M 81.500,159.000 C 77.500,163.000 77.983,163.396 73.500,167.000" stroke-width="3.245" stroke="black" fill="none" stroke-linecap="round"></path><path d="M 73.500,167.000 C 69.000,171.500 69.000,171.500 64.500,176.000" stroke-width="3.225" stroke="black" fill="none" stroke-linecap="round"></path><path d="M 64.500,176.000 C 60.500,180.000 60.500,180.000 56.500,184.000" stroke-width="3.274" stroke="black" fill="none" stroke-linecap="round"></path><path d="M 56.500,184.000 C 53.000,187.500 53.000,187.500 49.500,191.000" stroke-width="3.412" stroke="black" fill="none" stroke-linecap="round"></path><path d="M 49.500,191.000 C 46.744,194.297 46.500,194.000 43.500,197.000" stroke-width="3.592" stroke="black" fill="none" stroke-linecap="round"></path><path d="M 43.500,197.000 C 40.608,199.187 40.744,199.297 37.500,201.000" stroke-width="3.787" stroke="black" fill="none" stroke-linecap="round"></path><path d="M 37.500,201.000 C 34.588,202.713 34.608,202.687 31.500,204.000" stroke-width="3.909" stroke="black" fill="none" stroke-linecap="round"></path><path d="M 31.500,204.000 C 28.545,205.170 28.588,205.213 25.500,206.000" stroke-width="4.041" stroke="black" fill="none" stroke-linecap="round"></path><path d="M 25.500,206.000 C 23.033,206.831 23.045,206.670 20.500,207.000" stroke-width="4.237" stroke="black" fill="none" stroke-linecap="round"></path><path d="M 20.500,207.000 C 15.375,207.650 15.533,207.331 10.500,207.000" stroke-width="4.293" stroke="black" fill="none" stroke-linecap="round"></path><path d="M 10.500,207.000 C 6.301,207.002 7.875,206.650 5.500,205.000" stroke-width="4.807" stroke="black" fill="none" stroke-linecap="round"></path><path d="M 5.500,205.000 C 4.652,200.167 4.301,202.002 6.500,197.000" stroke-width="4.603" stroke="black" fill="none" stroke-linecap="round"></path><path d="M 6.500,197.000 C 9.443,194.910 8.152,194.167 12.500,193.000" stroke-width="4.070" stroke="black" fill="none" stroke-linecap="round"></path><path d="M 12.500,193.000 C 17.395,189.808 17.443,189.910 22.500,187.000" stroke-width="3.527" stroke="black" fill="none" stroke-linecap="round"></path><path d="M 22.500,187.000 C 27.454,184.403 27.395,184.308 32.500,182.000" stroke-width="3.537" stroke="black" fill="none" stroke-linecap="round"></path><path d="M 32.500,182.000 C 38.099,179.700 37.954,179.403 43.500,177.000" stroke-width="3.298" stroke="black" fill="none" stroke-linecap="round"></path><path d="M 43.500,177.000 C 50.019,173.535 50.099,173.700 56.500,170.000" stroke-width="3.254" stroke="black" fill="none" stroke-linecap="round"></path><path d="M 56.500,170.000 C 60.989,167.481 61.019,167.535 65.500,165.000" stroke-width="3.425" stroke="black" fill="none" stroke-linecap="round"></path><path d="M 65.500,165.000 C 71.024,162.042 70.989,161.981 76.500,159.000" stroke-width="3.292" stroke="black" fill="none" stroke-linecap="round"></path><path d="M 76.500,159.000 C 79.903,156.799 80.024,157.042 83.500,155.000" stroke-width="3.593" stroke="black" fill="none" stroke-linecap="round"></path><path d="M 83.500,155.000 C 85.971,153.920 85.903,153.799 88.500,153.000" stroke-width="4.043" stroke="black" fill="none" stroke-linecap="round"></path><path d="M 88.500,153.000 C 91.442,151.765 91.471,151.920 94.500,151.000" stroke-width="4.126" stroke="black" fill="none" stroke-linecap="round"></path><path d="M 94.500,151.000 C 100.731,150.000 97.442,150.265 100.500,150.000" stroke-width="4.529" stroke="black" fill="none" stroke-linecap="round"></path><path d="M 100.500,150.000 C 96.556,149.611 100.231,150.000 93.500,151.000" stroke-width="5.067" stroke="black" fill="none" stroke-linecap="round"></path><path d="M 93.500,151.000 C 90.815,152.633 91.056,152.111 89.500,155.000" stroke-width="5.238" stroke="black" fill="none" stroke-linecap="round"></path><path d="M 89.500,155.000 C 88.500,157.492 88.315,157.133 88.500,160.000" stroke-width="5.363" stroke="black" fill="none" stroke-linecap="round"></path><path d="M 88.500,160.000 C 87.738,164.490 88.500,162.992 89.500,166.000" stroke-width="5.280" stroke="black" fill="none" stroke-linecap="round"></path><path d="M 89.500,166.000 C 92.500,166.000 91.238,167.490 95.500,166.000" stroke-width="4.870" stroke="black" fill="none" stroke-linecap="round"></path><path d="M 95.500,166.000 C 99.366,167.045 99.000,166.000 102.500,166.000" stroke-width="4.923" stroke="black" fill="none" stroke-linecap="round"></path><path d="M 102.500,166.000 C 105.739,164.515 105.366,165.045 107.500,162.000" stroke-width="4.252" stroke="black" fill="none" stroke-linecap="round"></path><path d="M 107.500,162.000 C 110.310,158.160 109.239,159.515 109.500,156.000" stroke-width="4.837" stroke="black" fill="none" stroke-linecap="round"></path><path d="M 109.500,156.000 C 106.421,153.280 108.810,154.160 104.500,154.000" stroke-width="5.143" stroke="black" fill="none" stroke-linecap="round"></path><path d="M 104.500,154.000 C 100.980,157.180 102.421,154.780 101.500,159.000" stroke-width="5.372" stroke="black" fill="none" stroke-linecap="round"></path><path d="M 101.500,159.000 C 104.000,160.000 101.980,160.680 106.500,161.000" stroke-width="5.413" stroke="black" fill="none" stroke-linecap="round"></path><path d="M 106.500,161.000 C 109.149,163.428 109.000,162.000 111.500,163.000" stroke-width="5.538" stroke="black" fill="none" stroke-linecap="round"></path><path d="M 111.500,163.000 C 114.698,161.242 114.649,162.428 117.500,159.000" stroke-width="5.087" stroke="black" fill="none" stroke-linecap="round"></path><path d="M 117.500,159.000 C 119.213,156.601 119.698,157.242 121.500,155.000" stroke-width="4.899" stroke="black" fill="none" stroke-linecap="round"></path><path d="M 121.500,155.000 C 125.916,151.208 124.213,153.101 127.500,152.000" stroke-width="4.933" stroke="black" fill="none" stroke-linecap="round"></path><path d="M 127.500,152.000 C 128.261,155.211 128.916,152.708 127.500,158.000" stroke-width="5.240" stroke="black" fill="none" stroke-linecap="round"></path><path d="M 127.500,158.000 C 123.802,162.535 126.761,160.711 124.500,163.000" stroke-width="5.194" stroke="black" fill="none" stroke-linecap="round"></path><path d="M 124.500,163.000 C 127.608,161.687 125.302,163.535 130.500,160.000" stroke-width="5.282" stroke="black" fill="none" stroke-linecap="round"></path><path d="M 130.500,160.000 C 133.459,157.935 133.608,158.187 136.500,156.000" stroke-width="4.816" stroke="black" fill="none" stroke-linecap="round"></path><path d="M 136.500,156.000 C 139.900,152.467 138.959,154.435 141.500,153.000" stroke-width="4.962" stroke="black" fill="none" stroke-linecap="round"></path><path d="M 141.500,153.000 C 141.000,157.000 142.900,153.467 142.500,158.000" stroke-width="5.193" stroke="black" fill="none" stroke-linecap="round"></path><path d="M 142.500,158.000 C 145.283,158.108 144.000,159.000 147.500,157.000" stroke-width="5.348" stroke="black" fill="none" stroke-linecap="round"></path><path d="M 147.500,157.000 C 150.830,152.722 150.283,155.608 152.500,153.000" stroke-width="5.090" stroke="black" fill="none" stroke-linecap="round"></path><path d="M 152.500,153.000 C 153.500,155.500 153.830,153.222 153.500,158.000" stroke-width="5.341" stroke="black" fill="none" stroke-linecap="round"></path><path d="M 153.500,158.000 C 151.527,161.298 153.500,160.500 152.500,163.000" stroke-width="5.186" stroke="black" fill="none" stroke-linecap="round"></path><path d="M 152.500,163.000 C 155.190,165.577 153.527,164.798 157.500,165.000" stroke-width="5.291" stroke="black" fill="none" stroke-linecap="round"></path><path d="M 157.500,165.000 C 161.093,162.621 161.190,164.077 164.500,160.000" stroke-width="4.723" stroke="black" fill="none" stroke-linecap="round"></path><path d="M 164.500,160.000 C 168.290,154.724 167.593,157.621 170.500,155.000" stroke-width="4.618" stroke="black" fill="none" stroke-linecap="round"></path><path d="M 170.500,155.000 C 171.987,157.921 172.290,155.224 172.500,161.000" stroke-width="5.149" stroke="black" fill="none" stroke-linecap="round"></path><path d="M 172.500,161.000 C 172.230,164.027 172.987,163.921 172.500,167.000" stroke-width="5.159" stroke="black" fill="none" stroke-linecap="round"></path><path d="M 172.500,167.000 C 171.989,171.568 172.730,169.527 173.500,172.000" stroke-width="5.442" stroke="black" fill="none" stroke-linecap="round"></path><path d="M 173.500,172.000 C 176.652,170.753 175.489,172.568 179.500,169.000" stroke-width="5.104" stroke="black" fill="none" stroke-linecap="round"></path><path d="M 179.500,169.000 C 183.121,166.655 183.152,166.753 186.500,164.000" stroke-width="4.637" stroke="black" fill="none" stroke-linecap="round"></path><path d="M 186.500,164.000 C 190.252,161.248 190.121,161.155 193.500,158.000" stroke-width="4.487" stroke="black" fill="none" stroke-linecap="round"></path><path d="M 193.500,158.000 C 195.890,154.900 196.252,155.248 198.500,152.000" stroke-width="4.548" stroke="black" fill="none" stroke-linecap="round"></path><path d="M 198.500,152.000 C 202.746,148.246 200.390,149.900 202.500,148.000" stroke-width="4.708" stroke="black" fill="none" stroke-linecap="round"></path><path d="M 202.500,148.000 C 199.784,149.223 202.246,147.746 197.500,151.000" stroke-width="5.214" stroke="black" fill="none" stroke-linecap="round"></path><path d="M 197.500,151.000 C 195.376,152.889 195.284,152.723 193.500,155.000" stroke-width="4.934" stroke="black" fill="none" stroke-linecap="round"></path><path d="M 193.500,155.000 C 189.012,158.047 191.376,157.389 189.500,160.000" stroke-width="4.970" stroke="black" fill="none" stroke-linecap="round"></path><path d="M 189.500,160.000 C 192.558,163.000 190.012,162.047 195.500,163.000" stroke-width="5.269" stroke="black" fill="none" stroke-linecap="round"></path><path d="M 195.500,163.000 C 198.017,161.528 198.058,163.000 200.500,160.000" stroke-width="4.901" stroke="black" fill="none" stroke-linecap="round"></path><path d="M 200.500,160.000 C 204.500,157.500 204.517,157.528 208.500,155.000" stroke-width="4.520" stroke="black" fill="none" stroke-linecap="round"></path><path d="M 208.500,155.000 C 212.456,152.426 212.500,152.500 216.500,150.000" stroke-width="4.396" stroke="black" fill="none" stroke-linecap="round"></path><path d="M 216.500,150.000 C 220.156,148.229 219.956,147.926 223.500,146.000" stroke-width="4.482" stroke="black" fill="none" stroke-linecap="round"></path><path d="M 223.500,146.000 C 227.798,141.298 226.156,144.229 228.500,142.000" stroke-width="4.670" stroke="black" fill="none" stroke-linecap="round"></path><path d="M 228.500,142.000 C 228.189,145.864 229.298,142.798 226.500,149.000" stroke-width="5.135" stroke="black" fill="none" stroke-linecap="round"></path><path d="M 226.500,149.000 C 223.765,151.830 224.689,152.364 221.500,155.000" stroke-width="4.166" stroke="black" fill="none" stroke-linecap="round"></path><path d="M 221.500,155.000 C 219.170,159.117 218.765,158.830 216.500,163.000" stroke-width="3.706" stroke="black" fill="none" stroke-linecap="round"></path><path d="M 216.500,163.000 C 213.651,167.122 213.670,167.117 210.500,171.000" stroke-width="3.692" stroke="black" fill="none" stroke-linecap="round"></path><path d="M 210.500,171.000 C 207.000,175.000 207.151,175.122 203.500,179.000" stroke-width="3.468" stroke="black" fill="none" stroke-linecap="round"></path><path d="M 203.500,179.000 C 200.365,183.393 200.000,183.000 196.500,187.000" stroke-width="3.406" stroke="black" fill="none" stroke-linecap="round"></path><path d="M 196.500,187.000 C 192.583,190.118 192.865,190.393 188.500,193.000" stroke-width="3.445" stroke="black" fill="none" stroke-linecap="round"></path><path d="M 188.500,193.000 C 184.104,196.167 184.083,196.118 179.500,199.000" stroke-width="3.963" stroke="black" fill="none" stroke-linecap="round"></path><path d="M 179.500,199.000 C 171.278,204.611 171.104,204.167 162.500,209.000" stroke-width="2.903" stroke="black" fill="none" stroke-linecap="round"></path><path d="M 162.500,209.000 C 157.916,210.283 158.278,211.111 153.500,212.000" stroke-width="3.263" stroke="black" fill="none" stroke-linecap="round"></path><path d="M 153.500,212.000 C 149.052,214.126 148.916,213.783 144.500,216.000" stroke-width="3.466" stroke="black" fill="none" stroke-linecap="round"></path><path d="M 144.500,216.000 C 140.500,217.500 140.552,217.626 136.500,219.000" stroke-width="3.604" stroke="black" fill="none" stroke-linecap="round"></path><path d="M 136.500,219.000 C 132.522,220.563 132.500,220.500 128.500,222.000" stroke-width="3.749" stroke="black" fill="none" stroke-linecap="round"></path><path d="M 128.500,222.000 C 125.545,223.170 125.522,223.063 122.500,224.000" stroke-width="4.029" stroke="black" fill="none" stroke-linecap="round"></path><path d="M 122.500,224.000 C 120.027,224.770 120.045,224.670 117.500,225.000" stroke-width="4.192" stroke="black" fill="none" stroke-linecap="round"></path><path d="M 117.500,225.000 C 111.717,226.303 114.527,225.270 111.500,225.000" stroke-width="4.625" stroke="black" fill="none" stroke-linecap="round"></path><path d="M 111.500,225.000 C 113.565,221.516 111.217,223.303 116.500,219.000" stroke-width="4.901" stroke="black" fill="none" stroke-linecap="round"></path><path d="M 116.500,219.000 C 120.970,215.954 120.565,215.516 125.500,213.000" stroke-width="3.776" stroke="black" fill="none" stroke-linecap="round"></path><path d="M 125.500,213.000 C 132.295,208.148 132.470,208.454 139.500,204.000" stroke-width="3.000" stroke="black" fill="none" stroke-linecap="round"></path><path d="M 139.500,204.000 C 149.048,199.089 148.795,198.648 158.500,194.000" stroke-width="2.555" stroke="black" fill="none" stroke-linecap="round"></path><path d="M 158.500,194.000 C 168.626,188.717 168.548,188.589 178.500,183.000" stroke-width="2.384" stroke="black" fill="none" stroke-linecap="round"></path><path d="M 178.500,183.000 C 187.648,177.728 187.626,177.717 196.500,172.000" stroke-width="2.413" stroke="black" fill="none" stroke-linecap="round"></path><path d="M 196.500,172.000 C 204.154,165.892 204.648,166.728 212.500,161.000" stroke-width="2.558" stroke="black" fill="none" stroke-linecap="round"></path><path d="M 212.500,161.000 C 218.937,157.854 218.654,157.392 225.500,155.000" stroke-width="2.832" stroke="black" fill="none" stroke-linecap="round"></path><path d="M 225.500,155.000 C 230.387,152.598 230.437,152.854 235.500,151.000" stroke-width="3.234" stroke="black" fill="none" stroke-linecap="round"></path><path d="M 235.500,151.000 C 238.508,150.544 238.387,150.098 241.500,150.000" stroke-width="3.780" stroke="black" fill="none" stroke-linecap="round"></path><path d="M 269.500,140.000 C 276.244,137.452 276.000,137.000 282.500,134.000" stroke-width="4.874" stroke="black" fill="none" stroke-linecap="round"></path><path d="M 282.500,134.000 C 290.370,128.782 290.744,129.452 298.500,124.000" stroke-width="3.921" stroke="black" fill="none" stroke-linecap="round"></path><path d="M 298.500,124.000 C 316.192,114.311 315.870,113.782 333.500,104.000" stroke-width="2.016" stroke="black" fill="none" stroke-linecap="round"></path><path d="M 333.500,104.000 C 339.304,99.662 339.692,100.311 345.500,96.000" stroke-width="3.052" stroke="black" fill="none" stroke-linecap="round"></path><path d="M 345.500,96.000 C 350.731,93.861 350.304,93.162 355.500,91.000" stroke-width="3.229" stroke="black" fill="none" stroke-linecap="round"></path><path d="M 355.500,91.000 C 362.667,86.161 358.231,89.361 360.500,87.000" stroke-width="3.743" stroke="black" fill="none" stroke-linecap="round"></path><path d="M 360.500,87.000 C 342.216,94.419 347.167,92.161 324.500,103.000" stroke-width="3.304" stroke="black" fill="none" stroke-linecap="round"></path><path d="M 324.500,103.000 C 310.432,110.377 310.216,109.919 296.500,118.000" stroke-width="2.362" stroke="black" fill="none" stroke-linecap="round"></path><path d="M 296.500,118.000 C 283.830,124.714 283.932,124.877 271.500,132.000" stroke-width="2.168" stroke="black" fill="none" stroke-linecap="round"></path><path d="M 271.500,132.000 C 261.591,137.434 261.830,137.714 252.500,144.000" stroke-width="2.285" stroke="black" fill="none" stroke-linecap="round"></path><path d="M 252.500,144.000 C 243.227,150.273 243.591,150.434 235.500,158.000" stroke-width="2.398" stroke="black" fill="none" stroke-linecap="round"></path><path d="M 235.500,158.000 C 230.740,163.109 230.727,162.773 227.500,169.000" stroke-width="2.865" stroke="black" fill="none" stroke-linecap="round"></path><path d="M 227.500,169.000 C 225.270,173.381 225.240,173.109 224.500,178.000" stroke-width="3.301" stroke="black" fill="none" stroke-linecap="round"></path><path d="M 224.500,178.000 C 222.378,183.605 223.770,182.381 224.500,187.000" stroke-width="3.505" stroke="black" fill="none" stroke-linecap="round"></path><path d="M 224.500,187.000 C 228.657,192.876 227.378,191.605 234.500,194.000" stroke-width="3.279" stroke="black" fill="none" stroke-linecap="round"></path><path d="M 234.500,194.000 C 255.765,198.420 254.657,197.876 276.500,197.000" stroke-width="2.702" stroke="black" fill="none" stroke-linecap="round"></path><path d="M 276.500,197.000 C 292.445,194.269 292.265,195.920 307.500,189.000" stroke-width="2.064" stroke="black" fill="none" stroke-linecap="round"></path><path d="M 307.500,189.000 C 322.246,183.002 322.445,183.769 336.500,176.000" stroke-width="2.092" stroke="black" fill="none" stroke-linecap="round"></path><path d="M 336.500,176.000 C 350.751,168.932 350.746,169.002 364.500,161.000" stroke-width="1.999" stroke="black" fill="none" stroke-linecap="round"></path><path d="M 364.500,161.000 C 376.638,153.710 376.751,153.932 388.500,146.000" stroke-width="2.076" stroke="black" fill="none" stroke-linecap="round"></path><path d="M 388.500,146.000 C 396.518,140.526 396.638,140.710 404.500,135.000" stroke-width="2.381" stroke="black" fill="none" stroke-linecap="round"></path><path d="M 404.500,135.000 C 412.131,132.060 409.518,131.526 414.500,128.000" stroke-width="2.943" stroke="black" fill="none" stroke-linecap="round"></path></svg>