<svg xmlns="http://www.w3.org/2000/svg" xmlns:xlink="http://www.w3.org/1999/xlink" viewBox="0 0 1460 592" width="1460" height="592"><path d="M 579.000,357.000 C 574.028,355.397 574.000,355.500 569.000,354.000" stroke-width="5.340" stroke="black" fill="none" stroke-linecap="round"></path><path d="M 569.000,354.000 C 565.040,352.808 565.028,352.897 561.000,352.000" stroke-width="4.744" stroke="black" fill="none" stroke-linecap="round"></path><path d="M 561.000,352.000 C 555.000,351.000 555.040,350.808 549.000,350.000" stroke-width="3.542" stroke="black" fill="none" stroke-linecap="round"></path><path d="M 549.000,350.000 C 546.000,349.500 546.000,349.500 543.000,349.000" stroke-width="3.981" stroke="black" fill="none" stroke-linecap="round"></path><path d="M 543.000,349.000 C 539.992,348.544 540.000,348.500 537.000,348.000" stroke-width="4.093" stroke="black" fill="none" stroke-linecap="round"></path><path d="M 537.000,348.000 C 534.518,347.387 534.492,347.544 532.000,347.000" stroke-width="4.212" stroke="black" fill="none" stroke-linecap="round"></path><path d="M 532.000,347.000 C 527.982,346.613 528.018,346.387 524.000,346.000" stroke-width="4.385" stroke="black" fill="none" stroke-linecap="round"></path><path d="M 524.000,346.000 C 521.500,345.500 521.482,345.613 519.000,345.000" stroke-width="4.344" stroke="black" fill="none" stroke-linecap="round"></path><path d="M 519.000,345.000 C 514.040,343.593 514.000,344.000 509.000,343.000" stroke-width="4.311" stroke="black" fill="none" stroke-linecap="round"></path><path d="M 509.000,343.000 C 505.353,343.718 505.540,342.593 502.000,343.000" stroke-width="4.729" stroke="black" fill="none" stroke-linecap="round"></path><path d="M 502.000,343.000 C 498.515,341.464 498.353,342.218 495.000,340.000" stroke-width="5.198" stroke="black" fill="none" stroke-linecap="round"></path><path d="M 495.000,340.000 C 492.354,339.295 492.515,338.964 490.000,338.000" stroke-width="4.463" stroke="black" fill="none" stroke-linecap="round"></path><path d="M 490.000,338.000 C 482.524,333.459 482.354,333.795 475.000,329.000" stroke-width="3.851" stroke="black" fill="none" stroke-linecap="round"></path><path d="M 475.000,329.000 C 469.242,325.005 469.024,325.459 463.000,322.000" stroke-width="3.222" stroke="black" fill="none" stroke-linecap="round"></path><path d="M 463.000,322.000 C 455.522,318.943 455.742,318.505 448.000,316.000" stroke-width="2.914" stroke="black" fill="none" stroke-linecap="round"></path><path d="M 448.000,316.000 C 444.051,314.350 444.022,314.443 440.000,313.000" stroke-width="3.449" stroke="black" fill="none" stroke-linecap="round"></path><path d="M 440.000,313.000 C 435.028,311.397 435.051,311.350 430.000,310.000" stroke-width="3.526" stroke="black" fill="none" stroke-linecap="round"></path><path d="M 430.000,310.000 C 426.013,308.944 426.028,308.897 422.000,308.000" stroke-width="3.654" stroke="black" fill="none" stroke-linecap="round"></path><path d="M 139.000,350.000 C 133.347,350.844 133.500,350.000 128.000,350.000" stroke-width="5.012" stroke="black" fill="none" stroke-linecap="round"></path><path d="M 128.000,350.000 C 123.935,348.657 123.847,349.344 120.000,347.000" stroke-width="4.109" stroke="black" fill="none" stroke-linecap="round"></path><path d="M 120.000,347.000 C 114.258,344.944 114.435,344.657 109.000,342.000" stroke-width="3.498" stroke="black" fill="none" stroke-linecap="round"></path><path d="M 109.000,342.000 C 101.672,337.932 101.758,337.944 95.000,333.000" stroke-width="2.944" stroke="black" fill="none" stroke-linecap="round"></path><path d="M 95.000,333.000 C 84.572,328.061 90.172,329.432 86.000,325.000" stroke-width="3.829" stroke="black" fill="none" stroke-linecap="round"></path><path d="M 86.000,325.000 C 93.897,321.241 88.072,320.561 102.000,318.000" stroke-width="4.646" stroke="black" fill="none" stroke-linecap="round"></path><path d="M 102.000,318.000 C 109.373,316.314 108.897,315.241 116.000,313.000" stroke-width="3.202" stroke="black" fill="none" stroke-linecap="round"></path><path d="M 116.000,313.000 C 132.355,306.155 131.373,305.314 146.000,296.000" stroke-width="2.125" stroke="black" fill="none" stroke-linecap="round"></path><path d="M 146.000,296.000 C 152.096,288.114 153.855,290.155 159.000,281.000" stroke-width="2.434" stroke="black" fill="none" stroke-linecap="round"></path><path d="M 159.000,281.000 C 170.165,272.540 168.596,271.114 179.000,262.000" stroke-width="2.224" stroke="black" fill="none" stroke-linecap="round"></path><path d="M 179.000,262.000 C 197.468,237.476 198.665,238.540 216.000,213.000" stroke-width="1.770" stroke="black" fill="none" stroke-linecap="round"></path><path d="M 216.000,213.000 C 223.133,201.576 223.968,202.476 232.000,192.000" stroke-width="2.099" stroke="black" fill="none" stroke-linecap="round"></path><path d="M 232.000,192.000 C 236.500,189.000 235.633,188.076 241.000,186.000" stroke-width="2.845" stroke="black" fill="none" stroke-linecap="round"></path><path d="M 241.000,186.000 C 243.759,183.535 244.000,184.000 247.000,182.000" stroke-width="3.538" stroke="black" fill="none" stroke-linecap="round"></path><path d="M 247.000,182.000 C 253.367,178.990 253.259,179.035 260.000,177.000" stroke-width="3.149" stroke="black" fill="none" stroke-linecap="round"></path><path d="M 260.000,177.000 C 268.025,174.334 263.367,175.990 267.000,176.000" stroke-width="4.059" stroke="black" fill="none" stroke-linecap="round"></path><path d="M 267.000,176.000 C 258.679,182.293 264.025,180.834 252.000,190.000" stroke-width="4.327" stroke="black" fill="none" stroke-linecap="round"></path><path d="M 252.000,190.000 C 247.213,198.593 245.679,197.293 241.000,206.000" stroke-width="2.900" stroke="black" fill="none" stroke-linecap="round"></path><path d="M 241.000,206.000 C 231.809,212.220 234.213,214.093 226.000,221.000" stroke-width="2.545" stroke="black" fill="none" stroke-linecap="round"></path><path d="M 226.000,221.000 C 210.323,245.191 210.309,244.720 198.000,271.000" stroke-width="1.453" stroke="black" fill="none" stroke-linecap="round"></path><path d="M 198.000,271.000 C 186.335,301.901 183.823,300.691 173.000,332.000" stroke-width="1.185" stroke="black" fill="none" stroke-linecap="round"></path><path d="M 173.000,332.000 C 166.681,340.430 168.835,341.401 163.000,350.000" stroke-width="1.860" stroke="black" fill="none" stroke-linecap="round"></path><path d="M 163.000,350.000 C 155.897,373.638 154.181,372.930 148.000,397.000" stroke-width="1.494" stroke="black" fill="none" stroke-linecap="round"></path><path d="M 148.000,397.000 C 143.535,409.013 143.897,409.138 139.000,421.000" stroke-width="1.950" stroke="black" fill="none" stroke-linecap="round"></path><path d="M 139.000,421.000 C 138.282,428.862 136.535,427.513 134.000,434.000" stroke-width="2.586" stroke="black" fill="none" stroke-linecap="round"></path><path d="M 134.000,434.000 C 126.440,439.420 128.282,440.862 119.000,445.000" stroke-width="2.597" stroke="black" fill="none" stroke-linecap="round"></path><path d="M 119.000,445.000 C 114.511,448.514 114.440,448.420 110.000,452.000" stroke-width="3.043" stroke="black" fill="none" stroke-linecap="round"></path><path d="M 110.000,452.000 C 103.751,457.359 103.511,457.014 97.000,462.000" stroke-width="2.915" stroke="black" fill="none" stroke-linecap="round"></path><path d="M 97.000,462.000 C 87.343,467.772 87.751,468.359 78.000,474.000" stroke-width="2.487" stroke="black" fill="none" stroke-linecap="round"></path><path d="M 78.000,474.000 C 74.314,477.573 73.843,476.772 70.000,480.000" stroke-width="3.097" stroke="black" fill="none" stroke-linecap="round"></path><path d="M 70.000,480.000 C 65.965,481.414 66.314,482.073 62.000,483.000" stroke-width="3.567" stroke="black" fill="none" stroke-linecap="round"></path><path d="M 62.000,483.000 C 58.614,484.888 58.465,484.414 55.000,486.000" stroke-width="3.734" stroke="black" fill="none" stroke-linecap="round"></path><path d="M 55.000,486.000 C 50.292,489.067 52.114,486.888 49.000,487.000" stroke-width="4.378" stroke="black" fill="none" stroke-linecap="round"></path><path d="M 49.000,487.000 C 46.076,478.607 45.292,481.067 45.000,470.000" stroke-width="3.893" stroke="black" fill="none" stroke-linecap="round"></path><path d="M 45.000,470.000 C 43.615,462.200 44.076,462.607 45.000,455.000" stroke-width="3.212" stroke="black" fill="none" stroke-linecap="round"></path><path d="M 45.000,455.000 C 46.968,449.198 46.115,449.200 50.000,444.000" stroke-width="3.265" stroke="black" fill="none" stroke-linecap="round"></path><path d="M 50.000,444.000 C 53.612,436.724 53.968,437.198 59.000,431.000" stroke-width="2.878" stroke="black" fill="none" stroke-linecap="round"></path><path d="M 59.000,431.000 C 69.755,419.490 69.612,419.724 82.000,410.000" stroke-width="2.190" stroke="black" fill="none" stroke-linecap="round"></path><path d="M 82.000,410.000 C 90.362,404.751 89.755,403.990 99.000,400.000" stroke-width="2.410" stroke="black" fill="none" stroke-linecap="round"></path><path d="M 99.000,400.000 C 110.450,393.903 110.362,393.751 122.000,388.000" stroke-width="2.219" stroke="black" fill="none" stroke-linecap="round"></path><path d="M 122.000,388.000 C 132.789,382.016 132.950,382.403 144.000,377.000" stroke-width="2.218" stroke="black" fill="none" stroke-linecap="round"></path><path d="M 144.000,377.000 C 151.838,373.448 151.789,373.516 160.000,371.000" stroke-width="2.547" stroke="black" fill="none" stroke-linecap="round"></path><path d="M 160.000,371.000 C 167.025,369.610 166.838,368.948 174.000,368.000" stroke-width="2.828" stroke="black" fill="none" stroke-linecap="round"></path><path d="M 174.000,368.000 C 180.120,366.871 180.025,366.610 186.000,365.000" stroke-width="3.115" stroke="black" fill="none" stroke-linecap="round"></path><path d="M 186.000,365.000 C 191.677,364.026 191.120,363.371 196.000,361.000" stroke-width="3.338" stroke="black" fill="none" stroke-linecap="round"></path><path d="M 196.000,361.000 C 201.515,356.430 201.677,357.026 206.000,351.000" stroke-width="3.083" stroke="black" fill="none" stroke-linecap="round"></path><path d="M 206.000,351.000 C 210.617,344.575 211.015,344.930 215.000,338.000" stroke-width="2.901" stroke="black" fill="none" stroke-linecap="round"></path><path d="M 215.000,338.000 C 218.867,334.735 216.617,335.575 218.000,333.000" stroke-width="4.013" stroke="black" fill="none" stroke-linecap="round"></path><path d="M 218.000,333.000 C 214.643,330.486 216.867,330.735 211.000,330.000" stroke-width="4.836" stroke="black" fill="none" stroke-linecap="round"></path><path d="M 211.000,330.000 C 206.438,329.190 207.143,329.486 203.000,331.000" stroke-width="4.013" stroke="black" fill="none" stroke-linecap="round"></path><path d="M 203.000,331.000 C 197.156,335.148 196.938,334.190 192.000,340.000" stroke-width="3.228" stroke="black" fill="none" stroke-linecap="round"></path><path d="M 192.000,340.000 C 188.718,343.293 188.656,343.148 186.000,347.000" stroke-width="3.459" stroke="black" fill="none" stroke-linecap="round"></path><path d="M 186.000,347.000 C 179.406,351.813 183.218,350.793 181.000,355.000" stroke-width="4.070" stroke="black" fill="none" stroke-linecap="round"></path><path d="M 181.000,355.000 C 187.450,361.717 183.906,360.813 195.000,365.000" stroke-width="4.135" stroke="black" fill="none" stroke-linecap="round"></path><path d="M 195.000,365.000 C 199.520,365.280 198.950,366.717 204.000,365.000" stroke-width="3.804" stroke="black" fill="none" stroke-linecap="round"></path><path d="M 204.000,365.000 C 207.594,364.852 207.520,364.780 211.000,364.000" stroke-width="3.965" stroke="black" fill="none" stroke-linecap="round"></path><path d="M 211.000,364.000 C 213.755,363.428 213.594,363.352 216.000,362.000" stroke-width="4.175" stroke="black" fill="none" stroke-linecap="round"></path><path d="M 216.000,362.000 C 219.627,360.020 219.255,359.928 222.000,357.000" stroke-width="4.412" stroke="black" fill="none" stroke-linecap="round"></path><path d="M 222.000,357.000 C 224.476,352.487 225.127,353.020 227.000,348.000" stroke-width="4.324" stroke="black" fill="none" stroke-linecap="round"></path><path d="M 227.000,348.000 C 229.469,344.675 228.976,344.487 231.000,341.000" stroke-width="4.441" stroke="black" fill="none" stroke-linecap="round"></path><path d="M 231.000,341.000 C 230.884,338.233 231.969,338.675 232.000,336.000" stroke-width="4.879" stroke="black" fill="none" stroke-linecap="round"></path><path d="M 232.000,336.000 C 234.117,332.145 233.884,332.233 237.000,329.000" stroke-width="5.311" stroke="black" fill="none" stroke-linecap="round"></path><path d="M 237.000,329.000 C 239.772,326.152 239.617,326.145 243.000,324.000" stroke-width="4.200" stroke="black" fill="none" stroke-linecap="round"></path><path d="M 243.000,324.000 C 245.875,322.136 245.772,322.152 249.000,321.000" stroke-width="4.470" stroke="black" fill="none" stroke-linecap="round"></path><path d="M 249.000,321.000 C 251.490,319.731 251.375,320.136 254.000,320.000" stroke-width="4.890" stroke="black" fill="none" stroke-linecap="round"></path><path d="M 254.000,320.000 C 265.427,322.843 265.490,321.231 277.000,324.000" stroke-width="4.931" stroke="black" fill="none" stroke-linecap="round"></path><path d="M 277.000,324.000 C 285.525,323.647 285.427,324.843 294.000,324.000" stroke-width="3.229" stroke="black" fill="none" stroke-linecap="round"></path><path d="M 294.000,324.000 C 297.504,324.476 297.525,324.147 301.000,325.000" stroke-width="3.716" stroke="black" fill="none" stroke-linecap="round"></path><path d="M 301.000,325.000 C 310.973,324.646 307.504,325.976 314.000,327.000" stroke-width="3.252" stroke="black" fill="none" stroke-linecap="round"></path><path d="M 314.000,327.000 C 312.887,330.797 315.473,328.146 310.000,332.000" stroke-width="4.360" stroke="black" fill="none" stroke-linecap="round"></path><path d="M 310.000,332.000 C 294.129,337.484 294.887,338.297 278.000,342.000" stroke-width="2.121" stroke="black" fill="none" stroke-linecap="round"></path><path d="M 278.000,342.000 C 268.978,343.905 269.129,344.484 260.000,346.000" stroke-width="2.495" stroke="black" fill="none" stroke-linecap="round"></path><path d="M 260.000,346.000 C 248.553,348.171 253.978,347.405 248.000,349.000" stroke-width="3.432" stroke="black" fill="none" stroke-linecap="round"></path><path d="M 248.000,349.000 C 253.003,349.135 247.553,349.671 258.000,349.000" stroke-width="4.434" stroke="black" fill="none" stroke-linecap="round"></path><path d="M 258.000,349.000 C 271.579,347.627 271.503,348.635 285.000,348.000" stroke-width="2.402" stroke="black" fill="none" stroke-linecap="round"></path><path d="M 285.000,348.000 C 289.450,349.318 289.579,348.127 294.000,350.000" stroke-width="3.115" stroke="black" fill="none" stroke-linecap="round"></path><path d="M 294.000,350.000 C 299.533,350.255 299.450,350.818 305.000,351.000" stroke-width="3.261" stroke="black" fill="none" stroke-linecap="round"></path><path d="M 305.000,351.000 C 310.469,352.349 310.533,351.755 316.000,353.000" stroke-width="3.352" stroke="black" fill="none" stroke-linecap="round"></path><path d="M 316.000,353.000 C 319.000,353.000 318.969,353.349 322.000,353.000" stroke-width="4.446" stroke="black" fill="none" stroke-linecap="round"></path><path d="M 322.000,353.000 C 325.500,353.000 325.500,353.000 329.000,353.000" stroke-width="4.545" stroke="black" fill="none" stroke-linecap="round"></path><path d="M 329.000,353.000 C 334.026,351.540 332.000,353.000 335.000,353.000" stroke-width="4.854" stroke="black" fill="none" stroke-linecap="round"></path><path d="M 335.000,353.000 C 335.042,356.958 336.026,354.540 333.000,359.000" stroke-width="5.128" stroke="black" fill="none" stroke-linecap="round"></path><path d="M 333.000,359.000 C 329.675,361.352 330.542,361.458 326.000,362.000" stroke-width="4.190" stroke="black" fill="none" stroke-linecap="round"></path><path d="M 326.000,362.000 C 314.961,363.732 321.175,362.852 316.000,362.000" stroke-width="4.256" stroke="black" fill="none" stroke-linecap="round"></path><path d="M 316.000,362.000 C 323.427,355.764 317.961,358.732 332.000,352.000" stroke-width="4.134" stroke="black" fill="none" stroke-linecap="round"></path><path d="M 332.000,352.000 C 344.263,346.729 343.927,346.764 357.000,344.000" stroke-width="2.493" stroke="black" fill="none" stroke-linecap="round"></path><path d="M 357.000,344.000 C 365.496,343.432 365.263,342.229 374.000,343.000" stroke-width="2.651" stroke="black" fill="none" stroke-linecap="round"></path><path d="M 374.000,343.000 C 395.009,342.145 394.996,341.932 416.000,341.000" stroke-width="1.833" stroke="black" fill="none" stroke-linecap="round"></path><path d="M 416.000,341.000 C 422.508,340.590 422.509,340.645 429.000,340.000" stroke-width="2.568" stroke="black" fill="none" stroke-linecap="round"></path><path d="M 429.000,340.000 C 437.735,339.265 433.508,339.590 438.000,339.000" stroke-width="3.208" stroke="black" fill="none" stroke-linecap="round"></path><path d="M 438.000,339.000 C 433.642,337.634 438.235,338.765 430.000,339.000" stroke-width="4.282" stroke="black" fill="none" stroke-linecap="round"></path><path d="M 430.000,339.000 C 421.950,343.414 421.642,342.134 414.000,348.000" stroke-width="2.965" stroke="black" fill="none" stroke-linecap="round"></path><path d="M 414.000,348.000 C 408.943,350.910 408.950,350.914 404.000,354.000" stroke-width="3.161" stroke="black" fill="none" stroke-linecap="round"></path><path d="M 404.000,354.000 C 397.172,356.757 400.943,355.910 398.000,358.000" stroke-width="4.069" stroke="black" fill="none" stroke-linecap="round"></path><path d="M 398.000,358.000 C 402.949,359.519 399.172,359.757 408.000,360.000" stroke-width="4.483" stroke="black" fill="none" stroke-linecap="round"></path><path d="M 408.000,360.000 C 413.510,360.239 413.449,360.519 419.000,360.000" stroke-width="3.611" stroke="black" fill="none" stroke-linecap="round"></path><path d="M 419.000,360.000 C 425.099,359.983 425.010,359.739 431.000,359.000" stroke-width="3.320" stroke="black" fill="none" stroke-linecap="round"></path><path d="M 565.000,311.000 C 571.418,308.693 571.500,309.000 578.000,307.000" stroke-width="3.015" stroke="black" fill="none" stroke-linecap="round"></path><path d="M 578.000,307.000 C 589.041,304.666 588.918,304.193 600.000,302.000" stroke-width="2.570" stroke="black" fill="none" stroke-linecap="round"></path><path d="M 600.000,302.000 C 607.437,299.729 607.541,300.166 615.000,298.000" stroke-width="2.763" stroke="black" fill="none" stroke-linecap="round"></path><path d="M 615.000,298.000 C 625.157,296.590 624.937,295.729 635.000,294.000" stroke-width="2.553" stroke="black" fill="none" stroke-linecap="round"></path><path d="M 635.000,294.000 C 644.038,291.109 644.157,291.590 653.000,288.000" stroke-width="2.680" stroke="black" fill="none" stroke-linecap="round"></path><path d="M 653.000,288.000 C 668.837,283.263 668.538,282.609 684.000,277.000" stroke-width="2.539" stroke="black" fill="none" stroke-linecap="round"></path><path d="M 684.000,277.000 C 691.627,273.213 691.837,273.763 699.000,269.000" stroke-width="2.777" stroke="black" fill="none" stroke-linecap="round"></path><path d="M 699.000,269.000 C 702.768,267.678 702.127,267.213 705.000,265.000" stroke-width="3.465" stroke="black" fill="none" stroke-linecap="round"></path><path d="M 705.000,265.000 C 709.232,260.951 707.768,261.678 709.000,257.000" stroke-width="4.435" stroke="black" fill="none" stroke-linecap="round"></path><path d="M 709.000,257.000 C 707.631,251.440 708.732,252.451 704.000,248.000" stroke-width="3.604" stroke="black" fill="none" stroke-linecap="round"></path><path d="M 704.000,248.000 C 697.778,241.593 698.131,242.440 690.000,239.000" stroke-width="3.035" stroke="black" fill="none" stroke-linecap="round"></path><path d="M 690.000,239.000 C 673.215,232.511 673.778,233.593 656.000,232.000" stroke-width="2.095" stroke="black" fill="none" stroke-linecap="round"></path><path d="M 656.000,232.000 C 621.992,230.694 622.715,231.011 589.000,236.000" stroke-width="1.266" stroke="black" fill="none" stroke-linecap="round"></path><path d="M 589.000,236.000 C 548.822,240.735 550.492,242.194 513.000,255.000" stroke-width="1.125" stroke="black" fill="none" stroke-linecap="round"></path><path d="M 513.000,255.000 C 494.385,267.838 492.322,263.235 476.000,281.000" stroke-width="1.359" stroke="black" fill="none" stroke-linecap="round"></path><path d="M 476.000,281.000 C 449.114,297.905 450.385,299.338 425.000,318.000" stroke-width="1.240" stroke="black" fill="none" stroke-linecap="round"></path><path d="M 425.000,318.000 C 411.183,331.718 410.114,330.405 398.000,346.000" stroke-width="1.495" stroke="black" fill="none" stroke-linecap="round"></path><path d="M 398.000,346.000 C 391.705,350.623 393.183,351.218 389.000,357.000" stroke-width="2.295" stroke="black" fill="none" stroke-linecap="round"></path><path d="M 389.000,357.000 C 385.908,367.934 384.705,367.123 384.000,379.000" stroke-width="2.322" stroke="black" fill="none" stroke-linecap="round"></path><path d="M 384.000,379.000 C 381.355,384.157 383.408,382.434 384.000,386.000" stroke-width="3.280" stroke="black" fill="none" stroke-linecap="round"></path><path d="M 384.000,386.000 C 399.277,398.748 397.855,395.657 417.000,402.000" stroke-width="2.065" stroke="black" fill="none" stroke-linecap="round"></path><path d="M 417.000,402.000 C 454.988,405.753 453.777,408.748 493.000,406.000" stroke-width="1.161" stroke="black" fill="none" stroke-linecap="round"></path><path d="M 493.000,406.000 C 532.111,406.065 531.988,406.253 571.000,403.000" stroke-width="1.125" stroke="black" fill="none" stroke-linecap="round"></path><path d="M 571.000,403.000 C 633.759,398.338 633.611,398.065 696.000,390.000" stroke-width="1.125" stroke="black" fill="none" stroke-linecap="round"></path><path d="M 696.000,390.000 C 738.703,385.324 738.259,384.338 780.000,375.000" stroke-width="1.125" stroke="black" fill="none" stroke-linecap="round"></path><path d="M 780.000,375.000 C 822.637,363.226 822.703,364.324 864.000,348.000" stroke-width="1.125" stroke="black" fill="none" stroke-linecap="round"></path><path d="M 790.000,317.000 C 785.082,323.070 785.000,323.000 780.000,329.000" stroke-width="4.045" stroke="black" fill="none" stroke-linecap="round"></path><path d="M 780.000,329.000 C 773.164,337.154 773.082,337.070 766.000,345.000" stroke-width="2.823" stroke="black" fill="none" stroke-linecap="round"></path><path d="M 766.000,345.000 C 762.340,348.357 762.664,348.654 759.000,352.000" stroke-width="3.298" stroke="black" fill="none" stroke-linecap="round"></path><path d="M 759.000,352.000 C 757.250,354.750 756.840,354.357 755.000,357.000" stroke-width="3.771" stroke="black" fill="none" stroke-linecap="round"></path><path d="M 755.000,357.000 C 748.033,362.311 752.750,359.250 750.000,361.000" stroke-width="4.383" stroke="black" fill="none" stroke-linecap="round"></path><path d="M 750.000,361.000 C 767.035,348.228 763.033,352.311 785.000,337.000" stroke-width="2.833" stroke="black" fill="none" stroke-linecap="round"></path><path d="M 785.000,337.000 C 795.451,331.403 795.035,330.728 806.000,326.000" stroke-width="2.476" stroke="black" fill="none" stroke-linecap="round"></path><path d="M 806.000,326.000 C 815.718,320.341 815.951,320.903 826.000,316.000" stroke-width="2.443" stroke="black" fill="none" stroke-linecap="round"></path><path d="M 826.000,316.000 C 838.408,311.197 838.218,310.841 851.000,307.000" stroke-width="2.264" stroke="black" fill="none" stroke-linecap="round"></path><path d="M 851.000,307.000 C 854.948,305.579 854.908,305.697 859.000,305.000" stroke-width="3.151" stroke="black" fill="none" stroke-linecap="round"></path><path d="M 859.000,305.000 C 863.262,303.510 861.948,304.579 865.000,305.000" stroke-width="4.116" stroke="black" fill="none" stroke-linecap="round"></path><path d="M 865.000,305.000 C 866.143,307.990 866.762,306.510 866.000,311.000" stroke-width="4.135" stroke="black" fill="none" stroke-linecap="round"></path><path d="M 866.000,311.000 C 863.297,318.973 865.643,318.490 864.000,326.000" stroke-width="3.315" stroke="black" fill="none" stroke-linecap="round"></path><path d="M 864.000,326.000 C 865.337,332.008 864.297,328.973 868.000,331.000" stroke-width="4.325" stroke="black" fill="none" stroke-linecap="round"></path><path d="M 868.000,331.000 C 884.575,321.628 883.837,325.008 901.000,312.000" stroke-width="2.116" stroke="black" fill="none" stroke-linecap="round"></path><path d="M 901.000,312.000 C 912.776,302.819 913.575,304.628 926.000,297.000" stroke-width="2.085" stroke="black" fill="none" stroke-linecap="round"></path><path d="M 926.000,297.000 C 938.410,292.843 937.776,291.819 951.000,290.000" stroke-width="2.127" stroke="black" fill="none" stroke-linecap="round"></path><path d="M 951.000,290.000 C 955.459,287.867 953.910,289.343 957.000,290.000" stroke-width="3.232" stroke="black" fill="none" stroke-linecap="round"></path><path d="M 957.000,290.000 C 962.184,298.922 961.959,296.867 964.000,308.000" stroke-width="3.447" stroke="black" fill="none" stroke-linecap="round"></path><path d="M 964.000,308.000 C 962.882,311.471 964.684,311.422 962.000,315.000" stroke-width="3.777" stroke="black" fill="none" stroke-linecap="round"></path><path d="M 962.000,315.000 C 961.000,317.492 961.382,317.471 961.000,320.000" stroke-width="4.146" stroke="black" fill="none" stroke-linecap="round"></path><path d="M 961.000,320.000 C 959.310,325.655 961.000,322.992 962.000,326.000" stroke-width="4.551" stroke="black" fill="none" stroke-linecap="round"></path><path d="M 962.000,326.000 C 981.133,326.930 978.810,328.155 1000.000,325.000" stroke-width="2.207" stroke="black" fill="none" stroke-linecap="round"></path><path d="M 1000.000,325.000 C 1025.065,321.364 1025.133,322.430 1050.000,317.000" stroke-width="1.529" stroke="black" fill="none" stroke-linecap="round"></path><path d="M 1050.000,317.000 C 1064.841,312.795 1065.065,314.364 1080.000,311.000" stroke-width="1.790" stroke="black" fill="none" stroke-linecap="round"></path><path d="M 1080.000,311.000 C 1102.984,308.583 1102.841,308.295 1126.000,308.000" stroke-width="1.589" stroke="black" fill="none" stroke-linecap="round"></path><path d="M 1126.000,308.000 C 1142.518,308.162 1142.484,307.583 1159.000,309.000" stroke-width="1.754" stroke="black" fill="none" stroke-linecap="round"></path><path d="M 1159.000,309.000 C 1171.990,310.147 1172.018,309.662 1185.000,311.000" stroke-width="2.102" stroke="black" fill="none" stroke-linecap="round"></path><path d="M 1185.000,311.000 C 1202.491,312.204 1202.490,312.147 1220.000,313.000" stroke-width="1.852" stroke="black" fill="none" stroke-linecap="round"></path><path d="M 1220.000,313.000 C 1235.497,313.663 1235.491,313.704 1251.000,314.000" stroke-width="1.895" stroke="black" fill="none" stroke-linecap="round"></path><path d="M 1251.000,314.000 C 1258.500,314.000 1258.497,314.163 1266.000,314.000" stroke-width="2.588" stroke="black" fill="none" stroke-linecap="round"></path><path d="M 1266.000,314.000 C 1279.000,314.000 1279.000,314.000 1292.000,314.000" stroke-width="2.259" stroke="black" fill="none" stroke-linecap="round"></path><path d="M 1292.000,314.000 C 1295.043,314.394 1295.000,314.000 1298.000,314.000" stroke-width="3.321" stroke="black" fill="none" stroke-linecap="round"></path><path d="M 1298.000,314.000 C 1302.737,313.668 1302.543,313.394 1307.000,312.000" stroke-width="3.490" stroke="black" fill="none" stroke-linecap="round"></path><path d="M 1307.000,312.000 C 1314.347,309.050 1314.237,309.168 1321.000,305.000" stroke-width="3.077" stroke="black" fill="none" stroke-linecap="round"></path><path d="M 1321.000,305.000 C 1325.406,301.369 1325.847,302.050 1330.000,298.000" stroke-width="3.274" stroke="black" fill="none" stroke-linecap="round"></path><path d="M 1330.000,298.000 C 1332.636,295.121 1332.906,295.869 1336.000,294.000" stroke-width="3.674" stroke="black" fill="none" stroke-linecap="round"></path><path d="M 1336.000,294.000 C 1343.472,291.269 1343.136,291.621 1351.000,291.000" stroke-width="3.076" stroke="black" fill="none" stroke-linecap="round"></path><path d="M 1351.000,291.000 C 1357.709,291.344 1357.472,290.769 1364.000,293.000" stroke-width="3.196" stroke="black" fill="none" stroke-linecap="round"></path><path d="M 1364.000,293.000 C 1367.000,294.500 1367.209,293.844 1370.000,296.000" stroke-width="3.697" stroke="black" fill="none" stroke-linecap="round"></path><path d="M 1370.000,296.000 C 1373.750,296.750 1373.000,297.500 1376.000,299.000" stroke-width="3.879" stroke="black" fill="none" stroke-linecap="round"></path><path d="M 1376.000,299.000 C 1380.760,303.240 1378.250,301.250 1379.000,305.000" stroke-width="4.584" stroke="black" fill="none" stroke-linecap="round"></path><path d="M 1379.000,305.000 C 1371.820,309.659 1374.760,309.240 1364.000,311.000" stroke-width="3.245" stroke="black" fill="none" stroke-linecap="round"></path><path d="M 1364.000,311.000 C 1353.969,311.674 1354.320,312.659 1344.000,311.000" stroke-width="2.753" stroke="black" fill="none" stroke-linecap="round"></path></svg>