<svg xmlns="http://www.w3.org/2000/svg" xmlns:xlink="http://www.w3.org/1999/xlink" viewBox="0 0 1460 592" width="1460" height="592"><path d="M 276.000,345.000 C 273.125,342.785 273.000,343.000 270.000,341.000" stroke-width="5.152" stroke="black" fill="none" stroke-linecap="round"></path><path d="M 270.000,341.000 C 265.957,339.083 266.125,338.785 262.000,337.000" stroke-width="4.090" stroke="black" fill="none" stroke-linecap="round"></path><path d="M 262.000,337.000 C 256.910,332.970 256.457,334.083 251.000,331.000" stroke-width="3.387" stroke="black" fill="none" stroke-linecap="round"></path><path d="M 251.000,331.000 C 233.896,326.827 234.410,325.470 217.000,322.000" stroke-width="2.125" stroke="black" fill="none" stroke-linecap="round"></path><path d="M 217.000,322.000 C 213.103,320.140 212.896,320.827 209.000,319.000" stroke-width="3.110" stroke="black" fill="none" stroke-linecap="round"></path><path d="M 209.000,319.000 C 203.986,318.068 204.103,317.640 199.000,317.000" stroke-width="3.331" stroke="black" fill="none" stroke-linecap="round"></path><path d="M 199.000,317.000 C 189.799,315.566 189.986,315.068 181.000,313.000" stroke-width="2.861" stroke="black" fill="none" stroke-linecap="round"></path><path d="M 181.000,313.000 C 178.125,311.136 177.799,312.066 175.000,310.000" stroke-width="3.592" stroke="black" fill="none" stroke-linecap="round"></path><path d="M 175.000,310.000 C 168.587,310.413 172.625,309.136 170.000,309.000" stroke-width="4.402" stroke="black" fill="none" stroke-linecap="round"></path><path d="M 170.000,309.000 C 182.181,297.637 179.087,299.913 196.000,289.000" stroke-width="4.678" stroke="black" fill="none" stroke-linecap="round"></path><path d="M 196.000,289.000 C 207.155,284.320 206.181,282.637 218.000,279.000" stroke-width="2.656" stroke="black" fill="none" stroke-linecap="round"></path><path d="M 218.000,279.000 C 233.924,271.748 233.655,271.320 249.000,263.000" stroke-width="1.966" stroke="black" fill="none" stroke-linecap="round"></path><path d="M 249.000,263.000 C 273.725,247.019 274.424,248.248 299.000,232.000" stroke-width="1.413" stroke="black" fill="none" stroke-linecap="round"></path><path d="M 299.000,232.000 C 308.512,227.023 308.225,226.519 318.000,222.000" stroke-width="2.025" stroke="black" fill="none" stroke-linecap="round"></path><path d="M 318.000,222.000 C 342.690,209.331 342.512,209.023 367.000,196.000" stroke-width="1.989" stroke="black" fill="none" stroke-linecap="round"></path><path d="M 367.000,196.000 C 373.329,191.669 373.690,192.331 380.000,188.000" stroke-width="2.584" stroke="black" fill="none" stroke-linecap="round"></path><path d="M 380.000,188.000 C 387.393,182.905 383.329,186.169 387.000,185.000" stroke-width="3.336" stroke="black" fill="none" stroke-linecap="round"></path><path d="M 387.000,185.000 C 383.029,195.258 385.893,190.905 377.000,204.000" stroke-width="4.358" stroke="black" fill="none" stroke-linecap="round"></path><path d="M 377.000,204.000 C 371.398,208.477 373.029,209.758 367.000,214.000" stroke-width="3.436" stroke="black" fill="none" stroke-linecap="round"></path><path d="M 367.000,214.000 C 351.082,236.477 349.898,235.477 334.000,258.000" stroke-width="1.564" stroke="black" fill="none" stroke-linecap="round"></path><path d="M 334.000,258.000 C 323.786,266.336 326.082,267.977 317.000,277.000" stroke-width="1.943" stroke="black" fill="none" stroke-linecap="round"></path><path d="M 317.000,277.000 C 309.592,295.945 306.286,293.836 299.000,313.000" stroke-width="1.690" stroke="black" fill="none" stroke-linecap="round"></path><path d="M 299.000,313.000 C 276.557,341.330 280.092,343.445 258.000,372.000" stroke-width="1.252" stroke="black" fill="none" stroke-linecap="round"></path><path d="M 258.000,372.000 C 244.181,403.122 240.557,400.830 227.000,432.000" stroke-width="1.371" stroke="black" fill="none" stroke-linecap="round"></path><path d="M 227.000,432.000 C 218.924,441.437 220.681,442.622 211.000,451.000" stroke-width="1.864" stroke="black" fill="none" stroke-linecap="round"></path><path d="M 211.000,451.000 C 206.078,460.853 204.424,458.937 198.000,467.000" stroke-width="2.337" stroke="black" fill="none" stroke-linecap="round"></path><path d="M 198.000,467.000 C 182.212,478.624 183.078,478.353 165.000,486.000" stroke-width="2.523" stroke="black" fill="none" stroke-linecap="round"></path><path d="M 165.000,486.000 C 156.876,486.379 157.712,489.124 149.000,488.000" stroke-width="2.767" stroke="black" fill="none" stroke-linecap="round"></path><path d="M 149.000,488.000 C 139.814,489.970 139.876,489.879 131.000,493.000" stroke-width="2.644" stroke="black" fill="none" stroke-linecap="round"></path><path d="M 131.000,493.000 C 123.866,495.731 123.814,495.470 117.000,499.000" stroke-width="3.386" stroke="black" fill="none" stroke-linecap="round"></path><path d="M 117.000,499.000 C 113.708,502.506 113.366,500.731 110.000,503.000" stroke-width="3.720" stroke="black" fill="none" stroke-linecap="round"></path><path d="M 110.000,503.000 C 104.637,503.637 106.208,503.506 102.000,501.000" stroke-width="4.217" stroke="black" fill="none" stroke-linecap="round"></path><path d="M 102.000,501.000 C 98.039,495.817 98.137,497.137 97.000,490.000" stroke-width="3.453" stroke="black" fill="none" stroke-linecap="round"></path><path d="M 97.000,490.000 C 96.102,481.380 95.539,481.817 97.000,473.000" stroke-width="3.041" stroke="black" fill="none" stroke-linecap="round"></path><path d="M 97.000,473.000 C 96.900,466.700 97.602,467.380 100.000,462.000" stroke-width="3.207" stroke="black" fill="none" stroke-linecap="round"></path><path d="M 100.000,462.000 C 111.826,441.575 112.400,443.200 128.000,426.000" stroke-width="2.598" stroke="black" fill="none" stroke-linecap="round"></path><path d="M 128.000,426.000 C 140.520,417.095 138.826,415.575 154.000,410.000" stroke-width="2.158" stroke="black" fill="none" stroke-linecap="round"></path><path d="M 154.000,410.000 C 169.387,402.735 169.020,402.095 185.000,396.000" stroke-width="1.894" stroke="black" fill="none" stroke-linecap="round"></path><path d="M 185.000,396.000 C 194.871,391.653 194.887,391.735 205.000,388.000" stroke-width="2.316" stroke="black" fill="none" stroke-linecap="round"></path><path d="M 205.000,388.000 C 225.332,380.414 225.371,380.653 246.000,374.000" stroke-width="2.367" stroke="black" fill="none" stroke-linecap="round"></path><path d="M 246.000,374.000 C 254.488,371.946 254.332,371.414 263.000,370.000" stroke-width="2.638" stroke="black" fill="none" stroke-linecap="round"></path><path d="M 263.000,370.000 C 272.222,368.764 271.988,367.946 281.000,366.000" stroke-width="2.680" stroke="black" fill="none" stroke-linecap="round"></path><path d="M 281.000,366.000 C 299.371,360.281 299.222,360.264 317.000,353.000" stroke-width="2.627" stroke="black" fill="none" stroke-linecap="round"></path><path d="M 317.000,353.000 C 322.331,350.424 322.371,350.781 327.000,347.000" stroke-width="3.132" stroke="black" fill="none" stroke-linecap="round"></path><path d="M 327.000,347.000 C 329.277,344.228 329.831,344.924 332.000,342.000" stroke-width="3.677" stroke="black" fill="none" stroke-linecap="round"></path><path d="M 332.000,342.000 C 335.067,340.095 334.777,339.728 338.000,338.000" stroke-width="3.761" stroke="black" fill="none" stroke-linecap="round"></path><path d="M 338.000,338.000 C 342.168,335.193 342.067,335.095 346.000,332.000" stroke-width="3.546" stroke="black" fill="none" stroke-linecap="round"></path><path d="M 346.000,332.000 C 347.695,329.537 348.168,330.193 350.000,328.000" stroke-width="3.993" stroke="black" fill="none" stroke-linecap="round"></path><path d="M 350.000,328.000 C 355.593,326.790 352.195,326.537 355.000,326.000" stroke-width="4.184" stroke="black" fill="none" stroke-linecap="round"></path><path d="M 355.000,326.000 C 350.796,323.137 354.093,324.790 347.000,324.000" stroke-width="4.876" stroke="black" fill="none" stroke-linecap="round"></path><path d="M 347.000,324.000 C 339.887,327.292 339.796,325.637 333.000,331.000" stroke-width="3.327" stroke="black" fill="none" stroke-linecap="round"></path><path d="M 333.000,331.000 C 326.732,334.102 326.887,334.292 321.000,338.000" stroke-width="3.162" stroke="black" fill="none" stroke-linecap="round"></path><path d="M 321.000,338.000 C 314.289,342.759 314.232,342.602 308.000,348.000" stroke-width="2.946" stroke="black" fill="none" stroke-linecap="round"></path><path d="M 308.000,348.000 C 305.500,350.500 305.289,350.259 303.000,353.000" stroke-width="3.597" stroke="black" fill="none" stroke-linecap="round"></path><path d="M 303.000,353.000 C 299.186,355.564 300.000,356.000 297.000,359.000" stroke-width="4.169" stroke="black" fill="none" stroke-linecap="round"></path><path d="M 297.000,359.000 C 294.818,362.143 295.686,361.064 296.000,364.000" stroke-width="4.661" stroke="black" fill="none" stroke-linecap="round"></path><path d="M 296.000,364.000 C 299.417,368.750 298.318,367.643 304.000,370.000" stroke-width="3.751" stroke="black" fill="none" stroke-linecap="round"></path><path d="M 304.000,370.000 C 311.071,370.717 310.417,371.750 318.000,370.000" stroke-width="3.192" stroke="black" fill="none" stroke-linecap="round"></path><path d="M 318.000,370.000 C 325.777,369.408 325.571,369.217 333.000,367.000" stroke-width="3.085" stroke="black" fill="none" stroke-linecap="round"></path><path d="M 333.000,367.000 C 345.444,362.778 345.277,362.908 357.000,357.000" stroke-width="3.156" stroke="black" fill="none" stroke-linecap="round"></path><path d="M 357.000,357.000 C 361.708,354.591 361.444,354.778 365.000,351.000" stroke-width="3.364" stroke="black" fill="none" stroke-linecap="round"></path><path d="M 365.000,351.000 C 366.595,348.044 367.208,348.591 368.000,345.000" stroke-width="3.762" stroke="black" fill="none" stroke-linecap="round"></path><path d="M 368.000,345.000 C 372.736,340.257 369.595,341.544 371.000,338.000" stroke-width="4.309" stroke="black" fill="none" stroke-linecap="round"></path><path d="M 371.000,338.000 C 364.616,332.902 367.736,333.757 358.000,332.000" stroke-width="4.340" stroke="black" fill="none" stroke-linecap="round"></path><path d="M 358.000,332.000 C 353.003,332.598 353.616,331.402 349.000,335.000" stroke-width="3.802" stroke="black" fill="none" stroke-linecap="round"></path><path d="M 349.000,335.000 C 343.156,339.148 343.003,338.598 338.000,344.000" stroke-width="3.916" stroke="black" fill="none" stroke-linecap="round"></path><path d="M 338.000,344.000 C 334.951,347.459 334.656,347.148 332.000,351.000" stroke-width="4.240" stroke="black" fill="none" stroke-linecap="round"></path><path d="M 332.000,351.000 C 328.244,353.314 329.951,353.459 328.000,356.000" stroke-width="4.574" stroke="black" fill="none" stroke-linecap="round"></path><path d="M 328.000,356.000 C 328.251,361.192 327.744,358.814 331.000,362.000" stroke-width="4.837" stroke="black" fill="none" stroke-linecap="round"></path><path d="M 331.000,362.000 C 338.049,361.897 336.751,363.692 345.000,361.000" stroke-width="3.383" stroke="black" fill="none" stroke-linecap="round"></path><path d="M 345.000,361.000 C 353.687,360.155 353.549,359.897 362.000,358.000" stroke-width="2.879" stroke="black" fill="none" stroke-linecap="round"></path><path d="M 362.000,358.000 C 367.250,356.488 367.187,356.655 372.000,354.000" stroke-width="3.252" stroke="black" fill="none" stroke-linecap="round"></path><path d="M 372.000,354.000 C 377.500,350.500 377.750,350.988 383.000,347.000" stroke-width="3.204" stroke="black" fill="none" stroke-linecap="round"></path><path d="M 383.000,347.000 C 388.527,343.541 388.500,343.500 394.000,340.000" stroke-width="3.189" stroke="black" fill="none" stroke-linecap="round"></path><path d="M 394.000,340.000 C 397.244,338.297 397.027,338.041 400.000,336.000" stroke-width="3.642" stroke="black" fill="none" stroke-linecap="round"></path><path d="M 400.000,336.000 C 402.740,332.667 403.244,333.297 406.000,330.000" stroke-width="3.665" stroke="black" fill="none" stroke-linecap="round"></path><path d="M 406.000,330.000 C 408.541,328.565 408.240,328.167 411.000,327.000" stroke-width="4.055" stroke="black" fill="none" stroke-linecap="round"></path><path d="M 411.000,327.000 C 413.854,324.748 414.041,325.065 417.000,323.000" stroke-width="3.981" stroke="black" fill="none" stroke-linecap="round"></path><path d="M 417.000,323.000 C 423.000,320.000 422.854,319.748 429.000,317.000" stroke-width="3.288" stroke="black" fill="none" stroke-linecap="round"></path><path d="M 429.000,317.000 C 433.125,315.215 433.000,315.000 437.000,313.000" stroke-width="3.603" stroke="black" fill="none" stroke-linecap="round"></path><path d="M 437.000,313.000 C 440.275,311.336 440.125,311.215 443.000,309.000" stroke-width="3.839" stroke="black" fill="none" stroke-linecap="round"></path><path d="M 443.000,309.000 C 447.000,305.000 447.275,305.336 451.000,301.000" stroke-width="3.504" stroke="black" fill="none" stroke-linecap="round"></path><path d="M 451.000,301.000 C 454.114,296.915 454.500,297.500 458.000,294.000" stroke-width="4.042" stroke="black" fill="none" stroke-linecap="round"></path><path d="M 458.000,294.000 C 460.597,293.201 460.114,292.415 463.000,292.000" stroke-width="4.990" stroke="black" fill="none" stroke-linecap="round"></path><path d="M 463.000,292.000 C 469.443,288.000 466.597,290.201 470.000,288.000" stroke-width="4.652" stroke="black" fill="none" stroke-linecap="round"></path><path d="M 470.000,288.000 C 467.740,290.401 470.443,288.000 465.000,292.000" stroke-width="5.166" stroke="black" fill="none" stroke-linecap="round"></path><path d="M 465.000,292.000 C 461.156,292.992 461.740,293.901 458.000,295.000" stroke-width="4.070" stroke="black" fill="none" stroke-linecap="round"></path><path d="M 458.000,295.000 C 456.000,297.000 455.656,296.492 454.000,299.000" stroke-width="4.569" stroke="black" fill="none" stroke-linecap="round"></path><path d="M 454.000,299.000 C 451.205,300.591 452.000,301.000 450.000,303.000" stroke-width="4.757" stroke="black" fill="none" stroke-linecap="round"></path><path d="M 450.000,303.000 C 448.427,306.136 448.705,305.591 449.000,309.000" stroke-width="4.736" stroke="black" fill="none" stroke-linecap="round"></path><path d="M 449.000,309.000 C 449.898,314.616 449.927,313.636 453.000,318.000" stroke-width="4.676" stroke="black" fill="none" stroke-linecap="round"></path><path d="M 453.000,318.000 C 456.336,320.138 455.398,320.616 460.000,321.000" stroke-width="4.035" stroke="black" fill="none" stroke-linecap="round"></path><path d="M 460.000,321.000 C 464.988,321.736 464.836,322.138 470.000,322.000" stroke-width="3.611" stroke="black" fill="none" stroke-linecap="round"></path><path d="M 470.000,322.000 C 474.620,321.374 474.488,322.236 479.000,322.000" stroke-width="4.141" stroke="black" fill="none" stroke-linecap="round"></path><path d="M 479.000,322.000 C 482.881,321.949 481.620,322.374 484.000,324.000" stroke-width="4.755" stroke="black" fill="none" stroke-linecap="round"></path><path d="M 484.000,324.000 C 485.294,328.584 485.881,327.449 485.000,333.000" stroke-width="4.489" stroke="black" fill="none" stroke-linecap="round"></path><path d="M 485.000,333.000 C 484.243,336.101 484.794,336.084 483.000,339.000" stroke-width="4.209" stroke="black" fill="none" stroke-linecap="round"></path><path d="M 483.000,339.000 C 480.873,342.943 481.243,343.101 479.000,347.000" stroke-width="3.829" stroke="black" fill="none" stroke-linecap="round"></path><path d="M 479.000,347.000 C 478.907,350.212 477.873,349.443 477.000,352.000" stroke-width="4.087" stroke="black" fill="none" stroke-linecap="round"></path><path d="M 477.000,352.000 C 470.509,358.587 470.907,357.712 463.000,362.000" stroke-width="3.806" stroke="black" fill="none" stroke-linecap="round"></path><path d="M 463.000,362.000 C 458.981,362.265 459.509,363.587 455.000,362.000" stroke-width="3.709" stroke="black" fill="none" stroke-linecap="round"></path><path d="M 455.000,362.000 C 451.267,362.245 451.481,361.765 448.000,361.000" stroke-width="3.841" stroke="black" fill="none" stroke-linecap="round"></path><path d="M 448.000,361.000 C 441.160,357.113 440.767,358.245 434.000,354.000" stroke-width="3.153" stroke="black" fill="none" stroke-linecap="round"></path><path d="M 434.000,354.000 C 429.578,352.205 429.660,352.113 425.000,351.000" stroke-width="3.460" stroke="black" fill="none" stroke-linecap="round"></path><path d="M 425.000,351.000 C 420.037,349.630 420.078,349.705 415.000,349.000" stroke-width="3.443" stroke="black" fill="none" stroke-linecap="round"></path><path d="M 415.000,349.000 C 411.937,349.452 412.037,348.630 409.000,349.000" stroke-width="4.270" stroke="black" fill="none" stroke-linecap="round"></path><path d="M 409.000,349.000 C 405.529,347.882 405.437,348.452 402.000,347.000" stroke-width="4.518" stroke="black" fill="none" stroke-linecap="round"></path><path d="M 402.000,347.000 C 397.000,346.500 399.529,346.382 397.000,346.000" stroke-width="4.913" stroke="black" fill="none" stroke-linecap="round"></path><path d="M 397.000,346.000 C 399.481,344.806 397.000,345.500 402.000,345.000" stroke-width="5.242" stroke="black" fill="none" stroke-linecap="round"></path><path d="M 402.000,345.000 C 412.635,345.927 412.481,345.806 423.000,348.000" stroke-width="2.885" stroke="black" fill="none" stroke-linecap="round"></path><path d="M 423.000,348.000 C 427.551,349.361 427.635,348.927 432.000,351.000" stroke-width="3.357" stroke="black" fill="none" stroke-linecap="round"></path><path d="M 432.000,351.000 C 436.816,353.618 437.051,352.861 442.000,355.000" stroke-width="3.360" stroke="black" fill="none" stroke-linecap="round"></path><path d="M 442.000,355.000 C 451.918,358.183 451.816,357.618 462.000,359.000" stroke-width="2.755" stroke="black" fill="none" stroke-linecap="round"></path><path d="M 462.000,359.000 C 470.914,360.185 470.418,359.683 479.000,358.000" stroke-width="3.290" stroke="black" fill="none" stroke-linecap="round"></path><path d="M 479.000,358.000 C 489.006,353.513 489.414,355.185 499.000,349.000" stroke-width="2.658" stroke="black" fill="none" stroke-linecap="round"></path><path d="M 499.000,349.000 C 505.358,347.764 504.506,346.513 510.000,344.000" stroke-width="3.019" stroke="black" fill="none" stroke-linecap="round"></path><path d="M 510.000,344.000 C 522.890,331.382 523.858,332.764 536.000,319.000" stroke-width="2.810" stroke="black" fill="none" stroke-linecap="round"></path><path d="M 536.000,319.000 C 541.000,314.500 540.890,314.382 546.000,310.000" stroke-width="2.978" stroke="black" fill="none" stroke-linecap="round"></path><path d="M 546.000,310.000 C 551.399,305.871 551.000,305.500 556.000,301.000" stroke-width="3.192" stroke="black" fill="none" stroke-linecap="round"></path><path d="M 556.000,301.000 C 559.059,296.099 559.899,296.871 563.000,292.000" stroke-width="3.256" stroke="black" fill="none" stroke-linecap="round"></path><path d="M 563.000,292.000 C 571.878,283.362 571.559,283.099 581.000,275.000" stroke-width="3.255" stroke="black" fill="none" stroke-linecap="round"></path><path d="M 581.000,275.000 C 584.035,272.541 583.878,272.362 587.000,270.000" stroke-width="3.653" stroke="black" fill="none" stroke-linecap="round"></path><path d="M 587.000,270.000 C 596.369,263.000 591.035,266.541 595.000,263.000" stroke-width="4.012" stroke="black" fill="none" stroke-linecap="round"></path><path d="M 595.000,263.000 C 587.169,265.948 592.869,263.000 580.000,270.000" stroke-width="4.780" stroke="black" fill="none" stroke-linecap="round"></path><path d="M 580.000,270.000 C 575.902,272.878 575.669,272.448 572.000,276.000" stroke-width="3.774" stroke="black" fill="none" stroke-linecap="round"></path><path d="M 572.000,276.000 C 568.658,279.203 568.402,278.878 565.000,282.000" stroke-width="3.628" stroke="black" fill="none" stroke-linecap="round"></path><path d="M 565.000,282.000 C 559.757,285.194 560.158,285.703 555.000,289.000" stroke-width="3.310" stroke="black" fill="none" stroke-linecap="round"></path><path d="M 555.000,289.000 C 549.916,293.412 549.757,293.194 545.000,298.000" stroke-width="3.740" stroke="black" fill="none" stroke-linecap="round"></path><path d="M 545.000,298.000 C 542.053,300.178 542.416,300.412 540.000,303.000" stroke-width="3.851" stroke="black" fill="none" stroke-linecap="round"></path><path d="M 540.000,303.000 C 535.889,306.592 538.053,305.678 537.000,309.000" stroke-width="4.378" stroke="black" fill="none" stroke-linecap="round"></path><path d="M 537.000,309.000 C 540.984,313.771 538.889,313.092 546.000,316.000" stroke-width="4.843" stroke="black" fill="none" stroke-linecap="round"></path><path d="M 546.000,316.000 C 550.487,316.735 549.984,317.771 555.000,317.000" stroke-width="3.894" stroke="black" fill="none" stroke-linecap="round"></path><path d="M 555.000,317.000 C 559.044,316.560 558.987,317.235 563.000,317.000" stroke-width="3.845" stroke="black" fill="none" stroke-linecap="round"></path><path d="M 563.000,317.000 C 567.989,318.060 568.044,317.560 573.000,319.000" stroke-width="3.484" stroke="black" fill="none" stroke-linecap="round"></path><path d="M 573.000,319.000 C 576.166,318.988 575.989,319.560 579.000,320.000" stroke-width="3.920" stroke="black" fill="none" stroke-linecap="round"></path><path d="M 579.000,320.000 C 583.857,321.143 583.166,321.488 587.000,324.000" stroke-width="4.200" stroke="black" fill="none" stroke-linecap="round"></path><path d="M 587.000,324.000 C 588.613,326.949 589.357,326.143 590.000,330.000" stroke-width="4.537" stroke="black" fill="none" stroke-linecap="round"></path><path d="M 590.000,330.000 C 592.181,332.465 591.113,332.449 592.000,335.000" stroke-width="4.302" stroke="black" fill="none" stroke-linecap="round"></path><path d="M 592.000,335.000 C 591.644,340.254 591.681,339.465 589.000,344.000" stroke-width="4.369" stroke="black" fill="none" stroke-linecap="round"></path><path d="M 589.000,344.000 C 584.901,348.631 585.644,348.754 580.000,352.000" stroke-width="3.487" stroke="black" fill="none" stroke-linecap="round"></path><path d="M 580.000,352.000 C 576.620,353.848 576.901,354.131 573.000,355.000" stroke-width="3.756" stroke="black" fill="none" stroke-linecap="round"></path><path d="M 573.000,355.000 C 565.658,358.043 565.620,357.348 558.000,359.000" stroke-width="3.209" stroke="black" fill="none" stroke-linecap="round"></path><path d="M 558.000,359.000 C 545.479,360.000 545.658,360.543 533.000,360.000" stroke-width="3.172" stroke="black" fill="none" stroke-linecap="round"></path><path d="M 533.000,360.000 C 528.935,359.828 528.979,360.000 525.000,359.000" stroke-width="3.550" stroke="black" fill="none" stroke-linecap="round"></path><path d="M 525.000,359.000 C 519.493,357.526 519.435,357.828 514.000,356.000" stroke-width="3.420" stroke="black" fill="none" stroke-linecap="round"></path><path d="M 514.000,356.000 C 505.757,355.243 510.493,355.026 507.000,354.000" stroke-width="4.187" stroke="black" fill="none" stroke-linecap="round"></path><path d="M 507.000,354.000 C 514.178,349.647 509.757,351.243 522.000,348.000" stroke-width="4.801" stroke="black" fill="none" stroke-linecap="round"></path><path d="M 522.000,348.000 C 533.504,347.045 533.178,345.647 545.000,346.000" stroke-width="2.729" stroke="black" fill="none" stroke-linecap="round"></path><path d="M 545.000,346.000 C 549.986,345.313 550.004,345.545 555.000,345.000" stroke-width="3.247" stroke="black" fill="none" stroke-linecap="round"></path><path d="M 555.000,345.000 C 565.996,344.333 565.986,344.313 577.000,344.000" stroke-width="2.577" stroke="black" fill="none" stroke-linecap="round"></path><path d="M 577.000,344.000 C 582.545,344.496 582.496,343.833 588.000,344.000" stroke-width="3.063" stroke="black" fill="none" stroke-linecap="round"></path><path d="M 588.000,344.000 C 593.467,342.755 593.545,343.496 599.000,342.000" stroke-width="3.233" stroke="black" fill="none" stroke-linecap="round"></path><path d="M 599.000,342.000 C 604.602,342.028 604.467,341.255 610.000,341.000" stroke-width="3.406" stroke="black" fill="none" stroke-linecap="round"></path><path d="M 610.000,341.000 C 615.284,340.162 615.102,340.028 620.000,338.000" stroke-width="3.461" stroke="black" fill="none" stroke-linecap="round"></path><path d="M 620.000,338.000 C 627.703,334.866 627.284,334.662 634.000,330.000" stroke-width="3.157" stroke="black" fill="none" stroke-linecap="round"></path><path d="M 634.000,330.000 C 638.000,325.500 638.703,326.366 642.000,321.000" stroke-width="3.194" stroke="black" fill="none" stroke-linecap="round"></path><path d="M 642.000,321.000 C 645.746,316.254 646.000,316.500 650.000,312.000" stroke-width="3.262" stroke="black" fill="none" stroke-linecap="round"></path><path d="M 650.000,312.000 C 659.628,304.042 658.746,303.254 668.000,295.000" stroke-width="3.257" stroke="black" fill="none" stroke-linecap="round"></path><path d="M 668.000,295.000 C 671.616,290.075 672.128,290.542 675.000,285.000" stroke-width="3.269" stroke="black" fill="none" stroke-linecap="round"></path><path d="M 675.000,285.000 C 676.435,282.459 676.616,282.575 678.000,280.000" stroke-width="3.823" stroke="black" fill="none" stroke-linecap="round"></path><path d="M 678.000,280.000 C 680.065,277.041 679.935,276.959 682.000,274.000" stroke-width="4.346" stroke="black" fill="none" stroke-linecap="round"></path><path d="M 682.000,274.000 C 683.332,271.383 683.565,271.541 685.000,269.000" stroke-width="5.064" stroke="black" fill="none" stroke-linecap="round"></path><path d="M 685.000,269.000 C 687.168,266.617 686.832,266.383 689.000,264.000" stroke-width="4.811" stroke="black" fill="none" stroke-linecap="round"></path><path d="M 689.000,264.000 C 693.200,259.000 690.668,261.617 692.000,259.000" stroke-width="4.790" stroke="black" fill="none" stroke-linecap="round"></path><path d="M 692.000,259.000 C 686.415,260.762 689.700,259.000 682.000,264.000" stroke-width="5.070" stroke="black" fill="none" stroke-linecap="round"></path><path d="M 682.000,264.000 C 679.214,266.802 678.915,266.262 677.000,270.000" stroke-width="4.153" stroke="black" fill="none" stroke-linecap="round"></path><path d="M 677.000,270.000 C 675.188,273.619 674.714,273.302 673.000,277.000" stroke-width="3.855" stroke="black" fill="none" stroke-linecap="round"></path><path d="M 673.000,277.000 C 669.384,281.925 669.688,282.119 666.000,287.000" stroke-width="4.050" stroke="black" fill="none" stroke-linecap="round"></path><path d="M 666.000,287.000 C 664.721,289.654 664.384,289.425 663.000,292.000" stroke-width="4.100" stroke="black" fill="none" stroke-linecap="round"></path><path d="M 663.000,292.000 C 658.931,296.946 659.221,297.154 655.000,302.000" stroke-width="3.432" stroke="black" fill="none" stroke-linecap="round"></path><path d="M 655.000,302.000 C 651.593,305.741 651.931,305.946 649.000,310.000" stroke-width="3.453" stroke="black" fill="none" stroke-linecap="round"></path><path d="M 649.000,310.000 C 644.944,317.471 644.593,317.241 641.000,325.000" stroke-width="3.656" stroke="black" fill="none" stroke-linecap="round"></path><path d="M 641.000,325.000 C 638.792,327.833 639.444,327.971 638.000,331.000" stroke-width="4.328" stroke="black" fill="none" stroke-linecap="round"></path><path d="M 638.000,331.000 C 636.175,335.175 637.292,333.833 638.000,337.000" stroke-width="4.798" stroke="black" fill="none" stroke-linecap="round"></path><path d="M 638.000,337.000 C 643.306,340.102 641.675,340.675 649.000,342.000" stroke-width="3.631" stroke="black" fill="none" stroke-linecap="round"></path><path d="M 649.000,342.000 C 653.974,343.162 653.806,343.602 659.000,344.000" stroke-width="3.492" stroke="black" fill="none" stroke-linecap="round"></path><path d="M 659.000,344.000 C 663.095,344.081 662.974,344.662 667.000,345.000" stroke-width="3.662" stroke="black" fill="none" stroke-linecap="round"></path><path d="M 667.000,345.000 C 671.430,346.781 671.595,346.081 676.000,348.000" stroke-width="3.626" stroke="black" fill="none" stroke-linecap="round"></path><path d="M 676.000,348.000 C 679.019,348.404 678.930,348.781 682.000,349.000" stroke-width="3.973" stroke="black" fill="none" stroke-linecap="round"></path><path d="M 682.000,349.000 C 686.449,350.465 686.519,349.904 691.000,351.000" stroke-width="4.241" stroke="black" fill="none" stroke-linecap="round"></path><path d="M 691.000,351.000 C 695.240,351.868 694.949,351.465 699.000,351.000" stroke-width="4.455" stroke="black" fill="none" stroke-linecap="round"></path><path d="M 699.000,351.000 C 701.740,349.808 701.740,350.368 704.000,348.000" stroke-width="4.265" stroke="black" fill="none" stroke-linecap="round"></path><path d="M 704.000,348.000 C 707.154,345.953 706.740,345.808 709.000,343.000" stroke-width="4.003" stroke="black" fill="none" stroke-linecap="round"></path><path d="M 709.000,343.000 C 711.546,337.521 712.154,337.953 714.000,332.000" stroke-width="3.474" stroke="black" fill="none" stroke-linecap="round"></path><path d="M 714.000,332.000 C 714.870,328.114 715.546,328.521 717.000,325.000" stroke-width="4.722" stroke="black" fill="none" stroke-linecap="round"></path><path d="M 717.000,325.000 C 721.527,318.473 721.370,318.614 727.000,313.000" stroke-width="3.308" stroke="black" fill="none" stroke-linecap="round"></path><path d="M 727.000,313.000 C 730.223,311.272 729.527,310.473 733.000,309.000" stroke-width="3.732" stroke="black" fill="none" stroke-linecap="round"></path><path d="M 733.000,309.000 C 735.500,306.500 735.723,306.772 738.000,304.000" stroke-width="3.849" stroke="black" fill="none" stroke-linecap="round"></path><path d="M 738.000,304.000 C 743.500,298.500 743.500,298.500 749.000,293.000" stroke-width="3.831" stroke="black" fill="none" stroke-linecap="round"></path><path d="M 749.000,293.000 C 752.859,288.845 753.000,289.000 757.000,285.000" stroke-width="4.096" stroke="black" fill="none" stroke-linecap="round"></path><path d="M 757.000,285.000 C 760.100,282.610 759.859,282.345 763.000,280.000" stroke-width="4.419" stroke="black" fill="none" stroke-linecap="round"></path><path d="M 763.000,280.000 C 764.656,277.492 765.100,278.110 767.000,276.000" stroke-width="4.680" stroke="black" fill="none" stroke-linecap="round"></path><path d="M 767.000,276.000 C 770.500,274.500 770.156,273.992 774.000,273.000" stroke-width="4.819" stroke="black" fill="none" stroke-linecap="round"></path><path d="M 774.000,273.000 C 777.521,271.546 777.500,271.500 781.000,270.000" stroke-width="5.216" stroke="black" fill="none" stroke-linecap="round"></path><path d="M 781.000,270.000 C 786.479,267.454 786.521,267.546 792.000,265.000" stroke-width="4.368" stroke="black" fill="none" stroke-linecap="round"></path><path d="M 792.000,265.000 C 795.370,263.037 795.479,263.454 799.000,262.000" stroke-width="4.508" stroke="black" fill="none" stroke-linecap="round"></path><path d="M 799.000,262.000 C 802.568,261.808 802.370,261.037 806.000,261.000" stroke-width="4.594" stroke="black" fill="none" stroke-linecap="round"></path><path d="M 806.000,261.000 C 810.992,259.473 811.068,259.808 816.000,258.000" stroke-width="4.365" stroke="black" fill="none" stroke-linecap="round"></path><path d="M 816.000,258.000 C 819.437,256.548 819.492,256.973 823.000,256.000" stroke-width="4.515" stroke="black" fill="none" stroke-linecap="round"></path><path d="M 823.000,256.000 C 826.000,256.000 825.937,255.548 829.000,256.000" stroke-width="4.209" stroke="black" fill="none" stroke-linecap="round"></path><path d="M 829.000,256.000 C 832.000,256.000 832.000,256.000 835.000,256.000" stroke-width="4.565" stroke="black" fill="none" stroke-linecap="round"></path><path d="M 835.000,256.000 C 838.000,256.000 838.000,256.000 841.000,256.000" stroke-width="4.700" stroke="black" fill="none" stroke-linecap="round"></path><path d="M 841.000,256.000 C 844.557,255.541 844.500,256.000 848.000,256.000" stroke-width="4.877" stroke="black" fill="none" stroke-linecap="round"></path><path d="M 848.000,256.000 C 854.874,256.030 852.057,256.541 856.000,258.000" stroke-width="4.587" stroke="black" fill="none" stroke-linecap="round"></path><path d="M 856.000,258.000 C 854.667,261.889 856.874,259.530 852.000,263.000" stroke-width="5.185" stroke="black" fill="none" stroke-linecap="round"></path><path d="M 852.000,263.000 C 848.000,263.000 848.667,264.389 844.000,263.000" stroke-width="4.090" stroke="black" fill="none" stroke-linecap="round"></path><path d="M 844.000,263.000 C 841.000,263.000 841.000,263.000 838.000,263.000" stroke-width="4.537" stroke="black" fill="none" stroke-linecap="round"></path><path d="M 838.000,263.000 C 835.000,263.000 835.000,263.000 832.000,263.000" stroke-width="4.859" stroke="black" fill="none" stroke-linecap="round"></path><path d="M 832.000,263.000 C 828.973,262.730 829.000,263.000 826.000,263.000" stroke-width="5.281" stroke="black" fill="none" stroke-linecap="round"></path><path d="M 826.000,263.000 C 823.514,263.581 823.473,263.230 821.000,264.000" stroke-width="5.149" stroke="black" fill="none" stroke-linecap="round"></path><path d="M 821.000,264.000 C 817.516,264.730 817.514,264.581 814.000,265.000" stroke-width="4.776" stroke="black" fill="none" stroke-linecap="round"></path><path d="M 814.000,265.000 C 811.000,265.000 811.016,265.230 808.000,265.000" stroke-width="5.234" stroke="black" fill="none" stroke-linecap="round"></path><path d="M 808.000,265.000 C 804.478,264.732 804.500,265.000 801.000,265.000" stroke-width="5.011" stroke="black" fill="none" stroke-linecap="round"></path><path d="M 801.000,265.000 C 797.917,265.204 797.978,265.232 795.000,266.000" stroke-width="5.329" stroke="black" fill="none" stroke-linecap="round"></path><path d="M 795.000,266.000 C 792.401,266.800 792.417,266.704 790.000,268.000" stroke-width="5.158" stroke="black" fill="none" stroke-linecap="round"></path><path d="M 790.000,268.000 C 787.638,269.801 787.401,269.300 785.000,271.000" stroke-width="5.073" stroke="black" fill="none" stroke-linecap="round"></path><path d="M 785.000,271.000 C 781.971,271.920 782.138,272.301 779.000,273.000" stroke-width="4.804" stroke="black" fill="none" stroke-linecap="round"></path><path d="M 779.000,273.000 C 776.449,273.887 776.471,273.920 774.000,275.000" stroke-width="5.310" stroke="black" fill="none" stroke-linecap="round"></path><path d="M 774.000,275.000 C 770.649,276.013 770.949,276.387 768.000,278.000" stroke-width="4.290" stroke="black" fill="none" stroke-linecap="round"></path><path d="M 768.000,278.000 C 765.135,281.150 764.649,280.513 762.000,284.000" stroke-width="4.436" stroke="black" fill="none" stroke-linecap="round"></path><path d="M 762.000,284.000 C 758.953,285.558 759.635,286.150 757.000,288.000" stroke-width="4.640" stroke="black" fill="none" stroke-linecap="round"></path><path d="M 757.000,288.000 C 754.684,290.807 754.953,290.558 754.000,294.000" stroke-width="4.647" stroke="black" fill="none" stroke-linecap="round"></path><path d="M 754.000,294.000 C 754.000,298.000 753.184,297.807 754.000,302.000" stroke-width="4.796" stroke="black" fill="none" stroke-linecap="round"></path><path d="M 754.000,302.000 C 753.730,305.027 754.000,305.000 754.000,308.000" stroke-width="4.952" stroke="black" fill="none" stroke-linecap="round"></path><path d="M 754.000,308.000 C 754.330,310.545 754.230,310.527 755.000,313.000" stroke-width="4.896" stroke="black" fill="none" stroke-linecap="round"></path><path d="M 755.000,313.000 C 755.347,316.355 755.830,316.045 757.000,319.000" stroke-width="4.310" stroke="black" fill="none" stroke-linecap="round"></path><path d="M 757.000,319.000 C 760.812,324.168 760.347,324.355 765.000,329.000" stroke-width="4.151" stroke="black" fill="none" stroke-linecap="round"></path><path d="M 765.000,329.000 C 767.260,331.808 767.312,331.668 770.000,334.000" stroke-width="4.024" stroke="black" fill="none" stroke-linecap="round"></path><path d="M 770.000,334.000 C 772.482,335.531 772.260,335.808 775.000,337.000" stroke-width="4.093" stroke="black" fill="none" stroke-linecap="round"></path><path d="M 775.000,337.000 C 778.452,339.090 778.482,339.031 782.000,341.000" stroke-width="3.839" stroke="black" fill="none" stroke-linecap="round"></path><path d="M 782.000,341.000 C 785.062,342.384 784.952,342.590 788.000,344.000" stroke-width="3.925" stroke="black" fill="none" stroke-linecap="round"></path><path d="M 788.000,344.000 C 795.023,347.961 795.062,347.884 802.000,352.000" stroke-width="3.848" stroke="black" fill="none" stroke-linecap="round"></path><path d="M 802.000,352.000 C 804.366,353.771 804.523,353.461 807.000,355.000" stroke-width="4.120" stroke="black" fill="none" stroke-linecap="round"></path><path d="M 807.000,355.000 C 811.839,357.642 811.866,357.271 817.000,359.000" stroke-width="4.182" stroke="black" fill="none" stroke-linecap="round"></path><path d="M 817.000,359.000 C 821.493,360.000 821.339,360.142 826.000,360.000" stroke-width="4.360" stroke="black" fill="none" stroke-linecap="round"></path><path d="M 826.000,360.000 C 832.065,359.890 831.993,360.000 838.000,359.000" stroke-width="3.486" stroke="black" fill="none" stroke-linecap="round"></path><path d="M 838.000,359.000 C 842.038,358.132 842.065,358.390 846.000,357.000" stroke-width="3.692" stroke="black" fill="none" stroke-linecap="round"></path><path d="M 846.000,357.000 C 849.067,356.173 849.038,356.132 852.000,355.000" stroke-width="3.968" stroke="black" fill="none" stroke-linecap="round"></path><path d="M 852.000,355.000 C 856.545,353.096 856.567,353.173 861.000,351.000" stroke-width="4.216" stroke="black" fill="none" stroke-linecap="round"></path><path d="M 861.000,351.000 C 865.000,349.000 865.045,349.096 869.000,347.000" stroke-width="4.361" stroke="black" fill="none" stroke-linecap="round"></path><path d="M 869.000,347.000 C 872.091,345.662 872.000,345.500 875.000,344.000" stroke-width="4.591" stroke="black" fill="none" stroke-linecap="round"></path><path d="M 875.000,344.000 C 879.249,341.813 879.091,341.662 883.000,339.000" stroke-width="4.689" stroke="black" fill="none" stroke-linecap="round"></path><path d="M 883.000,339.000 C 884.784,336.723 885.249,337.313 887.000,335.000" stroke-width="5.027" stroke="black" fill="none" stroke-linecap="round"></path><path d="M 887.000,335.000 C 889.541,333.565 889.284,333.223 892.000,332.000" stroke-width="5.364" stroke="black" fill="none" stroke-linecap="round"></path><path d="M 892.000,332.000 C 894.911,329.854 895.041,330.065 898.000,328.000" stroke-width="4.289" stroke="black" fill="none" stroke-linecap="round"></path><path d="M 898.000,328.000 C 902.611,325.682 902.411,325.354 907.000,323.000" stroke-width="3.643" stroke="black" fill="none" stroke-linecap="round"></path><path d="M 907.000,323.000 C 911.500,320.000 911.611,320.182 916.000,317.000" stroke-width="3.372" stroke="black" fill="none" stroke-linecap="round"></path><path d="M 916.000,317.000 C 921.101,314.621 920.500,314.000 925.000,311.000" stroke-width="4.019" stroke="black" fill="none" stroke-linecap="round"></path><path d="M 925.000,311.000 C 927.345,307.379 928.101,308.121 930.000,304.000" stroke-width="4.319" stroke="black" fill="none" stroke-linecap="round"></path><path d="M 930.000,304.000 C 932.981,300.484 932.845,300.379 936.000,297.000" stroke-width="4.373" stroke="black" fill="none" stroke-linecap="round"></path><path d="M 936.000,297.000 C 939.127,292.575 939.481,292.984 943.000,289.000" stroke-width="4.332" stroke="black" fill="none" stroke-linecap="round"></path><path d="M 943.000,289.000 C 946.087,287.119 945.627,286.575 949.000,285.000" stroke-width="4.003" stroke="black" fill="none" stroke-linecap="round"></path><path d="M 949.000,285.000 C 951.522,283.027 951.587,283.119 954.000,281.000" stroke-width="4.474" stroke="black" fill="none" stroke-linecap="round"></path><path d="M 954.000,281.000 C 957.248,278.752 957.022,278.527 960.000,276.000" stroke-width="4.544" stroke="black" fill="none" stroke-linecap="round"></path><path d="M 960.000,276.000 C 963.333,272.734 963.248,272.752 966.000,269.000" stroke-width="4.440" stroke="black" fill="none" stroke-linecap="round"></path><path d="M 966.000,269.000 C 970.230,261.770 968.333,265.734 970.000,262.000" stroke-width="4.715" stroke="black" fill="none" stroke-linecap="round"></path><path d="M 970.000,262.000 C 967.896,266.315 969.730,262.270 965.000,270.000" stroke-width="5.232" stroke="black" fill="none" stroke-linecap="round"></path><path d="M 965.000,270.000 C 962.000,273.000 962.396,273.315 959.000,276.000" stroke-width="4.678" stroke="black" fill="none" stroke-linecap="round"></path><path d="M 959.000,276.000 C 956.500,278.500 956.500,278.500 954.000,281.000" stroke-width="4.105" stroke="black" fill="none" stroke-linecap="round"></path><path d="M 954.000,281.000 C 949.818,284.008 950.500,284.500 947.000,288.000" stroke-width="4.278" stroke="black" fill="none" stroke-linecap="round"></path><path d="M 947.000,288.000 C 944.629,293.071 943.818,292.508 942.000,298.000" stroke-width="3.552" stroke="black" fill="none" stroke-linecap="round"></path><path d="M 942.000,298.000 C 940.036,300.308 940.629,300.571 939.000,303.000" stroke-width="4.013" stroke="black" fill="none" stroke-linecap="round"></path><path d="M 939.000,303.000 C 937.508,306.939 937.536,306.808 937.000,311.000" stroke-width="3.903" stroke="black" fill="none" stroke-linecap="round"></path><path d="M 937.000,311.000 C 937.000,315.000 936.508,314.939 937.000,319.000" stroke-width="4.303" stroke="black" fill="none" stroke-linecap="round"></path><path d="M 937.000,319.000 C 937.000,322.000 937.000,322.000 937.000,325.000" stroke-width="4.152" stroke="black" fill="none" stroke-linecap="round"></path><path d="M 937.000,325.000 C 936.513,328.079 937.000,328.000 937.000,331.000" stroke-width="4.573" stroke="black" fill="none" stroke-linecap="round"></path><path d="M 937.000,331.000 C 937.735,334.110 937.513,334.079 939.000,337.000" stroke-width="4.180" stroke="black" fill="none" stroke-linecap="round"></path><path d="M 939.000,337.000 C 940.534,342.792 941.235,342.110 944.000,347.000" stroke-width="4.195" stroke="black" fill="none" stroke-linecap="round"></path><path d="M 944.000,347.000 C 948.440,350.580 947.534,351.292 953.000,354.000" stroke-width="3.579" stroke="black" fill="none" stroke-linecap="round"></path><path d="M 953.000,354.000 C 956.209,357.104 956.440,356.580 960.000,359.000" stroke-width="4.171" stroke="black" fill="none" stroke-linecap="round"></path><path d="M 960.000,359.000 C 963.824,361.934 963.209,360.604 967.000,361.000" stroke-width="4.484" stroke="black" fill="none" stroke-linecap="round"></path><path d="M 967.000,361.000 C 972.600,358.106 972.324,359.434 977.000,354.000" stroke-width="4.213" stroke="black" fill="none" stroke-linecap="round"></path><path d="M 977.000,354.000 C 979.753,350.652 980.100,351.106 982.000,347.000" stroke-width="3.867" stroke="black" fill="none" stroke-linecap="round"></path><path d="M 982.000,347.000 C 983.410,343.952 983.753,344.152 985.000,341.000" stroke-width="3.982" stroke="black" fill="none" stroke-linecap="round"></path><path d="M 985.000,341.000 C 987.104,337.556 986.910,337.452 989.000,334.000" stroke-width="3.750" stroke="black" fill="none" stroke-linecap="round"></path><path d="M 989.000,334.000 C 991.210,330.092 991.104,330.056 993.000,326.000" stroke-width="3.755" stroke="black" fill="none" stroke-linecap="round"></path><path d="M 993.000,326.000 C 994.650,322.051 994.710,322.092 996.000,318.000" stroke-width="3.693" stroke="black" fill="none" stroke-linecap="round"></path><path d="M 996.000,318.000 C 998.234,313.108 997.650,313.051 999.000,308.000" stroke-width="3.486" stroke="black" fill="none" stroke-linecap="round"></path><path d="M 999.000,308.000 C 999.593,302.941 999.734,303.108 999.000,298.000" stroke-width="4.047" stroke="black" fill="none" stroke-linecap="round"></path><path d="M 999.000,298.000 C 998.054,290.335 998.093,290.441 996.000,283.000" stroke-width="3.220" stroke="black" fill="none" stroke-linecap="round"></path><path d="M 996.000,283.000 C 993.861,278.051 994.554,277.835 992.000,273.000" stroke-width="3.318" stroke="black" fill="none" stroke-linecap="round"></path><path d="M 992.000,273.000 C 988.008,263.405 990.361,268.551 989.000,264.000" stroke-width="3.464" stroke="black" fill="none" stroke-linecap="round"></path><path d="M 989.000,264.000 C 993.675,269.720 990.508,264.905 997.000,276.000" stroke-width="4.583" stroke="black" fill="none" stroke-linecap="round"></path><path d="M 997.000,276.000 C 997.330,278.545 998.175,278.220 998.000,281.000" stroke-width="4.401" stroke="black" fill="none" stroke-linecap="round"></path><path d="M 998.000,281.000 C 999.351,283.915 998.830,284.045 1000.000,287.000" stroke-width="4.136" stroke="black" fill="none" stroke-linecap="round"></path><path d="M 1000.000,287.000 C 1000.824,293.533 1001.351,293.415 1002.000,300.000" stroke-width="3.410" stroke="black" fill="none" stroke-linecap="round"></path><path d="M 1002.000,300.000 C 1002.828,304.545 1002.824,304.533 1004.000,309.000" stroke-width="3.573" stroke="black" fill="none" stroke-linecap="round"></path><path d="M 1004.000,309.000 C 1005.265,314.085 1005.328,314.045 1007.000,319.000" stroke-width="4.036" stroke="black" fill="none" stroke-linecap="round"></path><path d="M 1007.000,319.000 C 1007.308,323.722 1008.265,322.585 1010.000,326.000" stroke-width="4.763" stroke="black" fill="none" stroke-linecap="round"></path><path d="M 1010.000,326.000 C 1014.827,328.707 1013.808,329.222 1020.000,330.000" stroke-width="4.361" stroke="black" fill="none" stroke-linecap="round"></path><path d="M 1020.000,330.000 C 1024.991,330.687 1024.827,331.207 1030.000,331.000" stroke-width="3.748" stroke="black" fill="none" stroke-linecap="round"></path><path d="M 1030.000,331.000 C 1033.000,331.000 1032.991,331.187 1036.000,331.000" stroke-width="3.982" stroke="black" fill="none" stroke-linecap="round"></path><path d="M 1036.000,331.000 C 1040.500,331.000 1040.500,331.000 1045.000,331.000" stroke-width="4.297" stroke="black" fill="none" stroke-linecap="round"></path><path d="M 1045.000,331.000 C 1048.500,331.000 1048.500,331.000 1052.000,331.000" stroke-width="4.548" stroke="black" fill="none" stroke-linecap="round"></path><path d="M 1052.000,331.000 C 1055.000,331.000 1055.000,331.000 1058.000,331.000" stroke-width="4.877" stroke="black" fill="none" stroke-linecap="round"></path><path d="M 1058.000,331.000 C 1061.500,331.000 1061.500,331.000 1065.000,331.000" stroke-width="5.307" stroke="black" fill="none" stroke-linecap="round"></path><path d="M 1065.000,331.000 C 1072.500,331.000 1072.500,331.000 1080.000,331.000" stroke-width="3.439" stroke="black" fill="none" stroke-linecap="round"></path><path d="M 1080.000,331.000 C 1085.531,331.438 1085.500,331.000 1091.000,331.000" stroke-width="3.422" stroke="black" fill="none" stroke-linecap="round"></path><path d="M 1091.000,331.000 C 1097.982,329.842 1098.031,330.438 1105.000,329.000" stroke-width="3.168" stroke="black" fill="none" stroke-linecap="round"></path><path d="M 1105.000,329.000 C 1110.513,328.610 1110.482,328.342 1116.000,328.000" stroke-width="3.278" stroke="black" fill="none" stroke-linecap="round"></path><path d="M 1116.000,328.000 C 1119.604,327.906 1119.513,327.610 1123.000,327.000" stroke-width="3.691" stroke="black" fill="none" stroke-linecap="round"></path><path d="M 1123.000,327.000 C 1127.079,325.681 1127.104,325.906 1131.000,324.000" stroke-width="4.166" stroke="black" fill="none" stroke-linecap="round"></path><path d="M 1131.000,324.000 C 1134.228,322.848 1134.079,322.681 1137.000,321.000" stroke-width="4.699" stroke="black" fill="none" stroke-linecap="round"></path><path d="M 1137.000,321.000 C 1140.113,318.624 1140.228,318.848 1143.000,316.000" stroke-width="4.814" stroke="black" fill="none" stroke-linecap="round"></path><path d="M 1143.000,316.000 C 1145.396,313.387 1145.613,313.624 1148.000,311.000" stroke-width="5.300" stroke="black" fill="none" stroke-linecap="round"></path><path d="M 1311.000,156.000 C 1314.505,156.159 1314.500,156.000 1318.000,156.000" stroke-width="5.328" stroke="black" fill="none" stroke-linecap="round"></path><path d="M 1318.000,156.000 C 1325.672,156.418 1325.505,155.659 1333.000,155.000" stroke-width="4.241" stroke="black" fill="none" stroke-linecap="round"></path><path d="M 1333.000,155.000 C 1341.175,152.934 1341.172,153.418 1349.000,150.000" stroke-width="3.146" stroke="black" fill="none" stroke-linecap="round"></path><path d="M 1349.000,150.000 C 1353.263,148.402 1353.175,148.434 1357.000,146.000" stroke-width="3.401" stroke="black" fill="none" stroke-linecap="round"></path><path d="M 1357.000,146.000 C 1360.100,143.610 1360.263,143.902 1363.000,141.000" stroke-width="3.706" stroke="black" fill="none" stroke-linecap="round"></path><path d="M 1363.000,141.000 C 1365.799,139.511 1365.100,139.110 1367.000,137.000" stroke-width="4.052" stroke="black" fill="none" stroke-linecap="round"></path><path d="M 1367.000,137.000 C 1371.603,127.586 1371.299,128.011 1374.000,118.000" stroke-width="3.751" stroke="black" fill="none" stroke-linecap="round"></path><path d="M 1374.000,118.000 C 1374.108,115.217 1374.603,115.586 1373.000,113.000" stroke-width="4.097" stroke="black" fill="none" stroke-linecap="round"></path><path d="M 1373.000,113.000 C 1371.752,109.442 1371.608,110.217 1369.000,108.000" stroke-width="4.041" stroke="black" fill="none" stroke-linecap="round"></path><path d="M 1369.000,108.000 C 1360.747,103.891 1361.252,103.942 1352.000,102.000" stroke-width="3.024" stroke="black" fill="none" stroke-linecap="round"></path><path d="M 1352.000,102.000 C 1341.956,99.325 1342.247,99.891 1332.000,100.000" stroke-width="2.632" stroke="black" fill="none" stroke-linecap="round"></path><path d="M 1332.000,100.000 C 1311.595,99.860 1312.456,101.325 1293.000,106.000" stroke-width="1.897" stroke="black" fill="none" stroke-linecap="round"></path><path d="M 1293.000,106.000 C 1259.676,120.922 1258.595,117.360 1226.000,135.000" stroke-width="1.792" stroke="black" fill="none" stroke-linecap="round"></path><path d="M 1226.000,135.000 C 1196.966,143.368 1198.676,146.422 1171.000,157.000" stroke-width="1.378" stroke="black" fill="none" stroke-linecap="round"></path><path d="M 1171.000,157.000 C 1158.648,167.191 1156.966,164.368 1146.000,177.000" stroke-width="1.735" stroke="black" fill="none" stroke-linecap="round"></path><path d="M 1146.000,177.000 C 1132.552,184.448 1134.148,186.191 1122.000,195.000" stroke-width="1.934" stroke="black" fill="none" stroke-linecap="round"></path><path d="M 1122.000,195.000 C 1102.917,216.930 1101.552,215.448 1084.000,239.000" stroke-width="1.978" stroke="black" fill="none" stroke-linecap="round"></path><path d="M 1084.000,239.000 C 1077.227,244.036 1078.917,244.930 1074.000,251.000" stroke-width="2.561" stroke="black" fill="none" stroke-linecap="round"></path><path d="M 1074.000,251.000 C 1068.498,265.308 1067.727,264.536 1065.000,280.000" stroke-width="2.156" stroke="black" fill="none" stroke-linecap="round"></path><path d="M 1065.000,280.000 C 1062.269,286.805 1063.498,286.308 1064.000,293.000" stroke-width="2.740" stroke="black" fill="none" stroke-linecap="round"></path><path d="M 1064.000,293.000 C 1071.386,322.052 1071.769,320.805 1084.000,348.000" stroke-width="2.231" stroke="black" fill="none" stroke-linecap="round"></path><path d="M 1084.000,348.000 C 1089.173,360.015 1088.886,358.052 1099.000,365.000" stroke-width="2.354" stroke="black" fill="none" stroke-linecap="round"></path><path d="M 1099.000,365.000 C 1125.469,381.612 1123.673,377.515 1153.000,383.000" stroke-width="1.496" stroke="black" fill="none" stroke-linecap="round"></path><path d="M 1153.000,383.000 C 1187.703,382.129 1184.969,384.612 1218.000,371.000" stroke-width="1.192" stroke="black" fill="none" stroke-linecap="round"></path><path d="M 1218.000,371.000 C 1233.485,357.390 1236.703,364.129 1251.000,347.000" stroke-width="1.482" stroke="black" fill="none" stroke-linecap="round"></path><path d="M 1251.000,347.000 C 1295.427,327.032 1292.485,322.390 1336.000,301.000" stroke-width="1.125" stroke="black" fill="none" stroke-linecap="round"></path><path d="M 1336.000,301.000 C 1385.179,273.838 1381.927,271.532 1424.000,236.000" stroke-width="1.125" stroke="black" fill="none" stroke-linecap="round"></path></svg>