<svg xmlns="http://www.w3.org/2000/svg" xmlns:xlink="http://www.w3.org/1999/xlink" viewBox="0 0 1460 583" width="1460" height="583"><path d="M 652.000,358.000 C 647.943,354.285 647.500,355.500 643.000,353.000" stroke-width="4.863" stroke="black" fill="none" stroke-linecap="round"></path><path d="M 643.000,353.000 C 622.590,348.309 622.943,347.785 602.000,345.000" stroke-width="2.033" stroke="black" fill="none" stroke-linecap="round"></path><path d="M 602.000,345.000 C 594.467,344.800 594.590,343.809 587.000,344.000" stroke-width="2.617" stroke="black" fill="none" stroke-linecap="round"></path><path d="M 587.000,344.000 C 580.036,344.195 580.467,343.300 574.000,342.000" stroke-width="2.982" stroke="black" fill="none" stroke-linecap="round"></path><path d="M 574.000,342.000 C 563.917,340.211 569.036,340.195 565.000,336.000" stroke-width="3.744" stroke="black" fill="none" stroke-linecap="round"></path><path d="M 565.000,336.000 C 569.204,315.859 568.417,322.711 583.000,307.000" stroke-width="2.270" stroke="black" fill="none" stroke-linecap="round"></path><path d="M 583.000,307.000 C 620.048,285.367 616.704,285.359 660.000,275.000" stroke-width="1.125" stroke="black" fill="none" stroke-linecap="round"></path><path d="M 660.000,275.000 C 700.446,265.434 699.048,264.867 741.000,266.000" stroke-width="1.125" stroke="black" fill="none" stroke-linecap="round"></path><path d="M 741.000,266.000 C 808.665,269.329 807.946,266.934 875.000,278.000" stroke-width="1.125" stroke="black" fill="none" stroke-linecap="round"></path><path d="M 875.000,278.000 C 885.451,280.586 885.165,279.329 894.000,286.000" stroke-width="1.864" stroke="black" fill="none" stroke-linecap="round"></path><path d="M 894.000,286.000 C 900.581,290.721 900.451,290.086 905.000,297.000" stroke-width="2.461" stroke="black" fill="none" stroke-linecap="round"></path><path d="M 905.000,297.000 C 913.175,304.603 910.081,304.221 913.000,313.000" stroke-width="2.650" stroke="black" fill="none" stroke-linecap="round"></path><path d="M 913.000,313.000 C 909.746,329.557 912.675,328.603 904.000,345.000" stroke-width="1.948" stroke="black" fill="none" stroke-linecap="round"></path><path d="M 904.000,345.000 C 901.048,350.940 901.746,351.057 897.000,356.000" stroke-width="2.674" stroke="black" fill="none" stroke-linecap="round"></path><path d="M 897.000,356.000 C 888.000,363.894 893.048,360.940 888.000,365.000" stroke-width="3.495" stroke="black" fill="none" stroke-linecap="round"></path><path d="M 888.000,365.000 C 893.001,363.199 888.000,365.894 897.000,360.000" stroke-width="4.014" stroke="black" fill="none" stroke-linecap="round"></path><path d="M 897.000,360.000 C 905.513,347.401 908.001,351.199 918.000,341.000" stroke-width="2.532" stroke="black" fill="none" stroke-linecap="round"></path><path d="M 918.000,341.000 C 965.361,314.192 965.013,316.901 1016.000,299.000" stroke-width="1.125" stroke="black" fill="none" stroke-linecap="round"></path><path d="M 1016.000,299.000 C 1056.945,292.241 1055.361,287.192 1098.000,287.000" stroke-width="1.334" stroke="black" fill="none" stroke-linecap="round"></path><path d="M 1098.000,287.000 C 1104.000,287.000 1103.945,286.241 1110.000,287.000" stroke-width="2.259" stroke="black" fill="none" stroke-linecap="round"></path></svg>