<svg xmlns="http://www.w3.org/2000/svg" xmlns:xlink="http://www.w3.org/1999/xlink" viewBox="0 0 1460 583" width="1460" height="583"><path d="M 597.000,326.000 C 616.432,323.036 616.500,324.000 636.000,322.000" stroke-width="4.161" stroke="black" fill="none" stroke-linecap="round"></path><path d="M 636.000,322.000 C 701.487,317.893 701.432,318.536 767.000,317.000" stroke-width="1.125" stroke="black" fill="none" stroke-linecap="round"></path><path d="M 767.000,317.000 C 811.522,317.387 811.487,316.393 856.000,319.000" stroke-width="1.125" stroke="black" fill="none" stroke-linecap="round"></path><path d="M 856.000,319.000 C 908.129,320.119 908.022,320.887 960.000,324.000" stroke-width="1.125" stroke="black" fill="none" stroke-linecap="round"></path><path d="M 960.000,324.000 C 981.495,327.034 981.629,325.619 1003.000,330.000" stroke-width="1.238" stroke="black" fill="none" stroke-linecap="round"></path><path d="M 1003.000,330.000 C 1012.005,329.179 1010.495,331.034 1018.000,332.000" stroke-width="2.064" stroke="black" fill="none" stroke-linecap="round"></path><path d="M 1018.000,332.000 C 1022.292,336.211 1020.505,333.179 1020.000,338.000" stroke-width="3.406" stroke="black" fill="none" stroke-linecap="round"></path><path d="M 1020.000,338.000 C 999.198,352.543 1001.792,352.211 977.000,364.000" stroke-width="1.723" stroke="black" fill="none" stroke-linecap="round"></path><path d="M 977.000,364.000 C 967.576,367.264 968.198,368.543 958.000,370.000" stroke-width="2.292" stroke="black" fill="none" stroke-linecap="round"></path><path d="M 958.000,370.000 C 937.743,376.000 946.576,373.264 935.000,376.000" stroke-width="2.272" stroke="black" fill="none" stroke-linecap="round"></path><path d="M 935.000,376.000 C 941.746,372.245 933.243,376.000 949.000,370.000" stroke-width="3.388" stroke="black" fill="none" stroke-linecap="round"></path><path d="M 949.000,370.000 C 962.982,366.427 962.746,365.745 977.000,363.000" stroke-width="2.357" stroke="black" fill="none" stroke-linecap="round"></path><path d="M 977.000,363.000 C 985.373,360.176 985.482,360.927 994.000,359.000" stroke-width="2.635" stroke="black" fill="none" stroke-linecap="round"></path><path d="M 994.000,359.000 C 1007.492,357.795 1007.373,357.176 1021.000,357.000" stroke-width="2.228" stroke="black" fill="none" stroke-linecap="round"></path><path d="M 1021.000,357.000 C 1028.601,355.196 1024.492,356.795 1028.000,357.000" stroke-width="3.222" stroke="black" fill="none" stroke-linecap="round"></path><path d="M 1028.000,357.000 C 1023.834,364.728 1026.601,361.196 1017.000,369.000" stroke-width="4.036" stroke="black" fill="none" stroke-linecap="round"></path><path d="M 1017.000,369.000 C 992.478,389.251 991.834,384.728 964.000,397.000" stroke-width="1.504" stroke="black" fill="none" stroke-linecap="round"></path><path d="M 964.000,397.000 C 917.157,407.564 918.978,409.251 870.000,409.000" stroke-width="1.125" stroke="black" fill="none" stroke-linecap="round"></path><path d="M 870.000,409.000 C 817.899,409.886 818.657,410.564 767.000,403.000" stroke-width="1.125" stroke="black" fill="none" stroke-linecap="round"></path><path d="M 767.000,403.000 C 733.233,395.321 732.899,398.386 700.000,386.000" stroke-width="1.125" stroke="black" fill="none" stroke-linecap="round"></path><path d="M 700.000,386.000 C 692.481,383.048 692.233,383.821 685.000,380.000" stroke-width="1.857" stroke="black" fill="none" stroke-linecap="round"></path><path d="M 685.000,380.000 C 678.146,378.538 678.981,377.548 673.000,375.000" stroke-width="2.624" stroke="black" fill="none" stroke-linecap="round"></path><path d="M 673.000,375.000 C 667.004,371.575 670.146,373.038 669.000,369.000" stroke-width="3.748" stroke="black" fill="none" stroke-linecap="round"></path><path d="M 669.000,369.000 C 681.425,342.525 682.504,351.575 704.000,335.000" stroke-width="1.846" stroke="black" fill="none" stroke-linecap="round"></path><path d="M 704.000,335.000 C 798.239,307.958 793.925,305.025 894.000,294.000" stroke-width="1.125" stroke="black" fill="none" stroke-linecap="round"></path><path d="M 894.000,294.000 C 946.505,292.000 945.739,286.458 999.000,292.000" stroke-width="1.125" stroke="black" fill="none" stroke-linecap="round"></path><path d="M 999.000,292.000 C 1032.510,294.252 1032.505,292.000 1066.000,294.000" stroke-width="1.125" stroke="black" fill="none" stroke-linecap="round"></path><path d="M 1066.000,294.000 C 1098.987,292.110 1099.010,293.752 1132.000,291.000" stroke-width="1.125" stroke="black" fill="none" stroke-linecap="round"></path><path d="M 1132.000,291.000 C 1158.499,290.402 1158.487,290.110 1185.000,290.000" stroke-width="1.253" stroke="black" fill="none" stroke-linecap="round"></path><path d="M 1185.000,290.000 C 1191.500,290.000 1191.499,289.902 1198.000,290.000" stroke-width="2.151" stroke="black" fill="none" stroke-linecap="round"></path><path d="M 1198.000,290.000 C 1205.112,289.311 1205.000,290.000 1212.000,290.000" stroke-width="2.729" stroke="black" fill="none" stroke-linecap="round"></path><path d="M 1212.000,290.000 C 1216.901,289.802 1215.112,290.311 1218.000,292.000" stroke-width="3.873" stroke="black" fill="none" stroke-linecap="round"></path></svg>