<svg xmlns="http://www.w3.org/2000/svg" xmlns:xlink="http://www.w3.org/1999/xlink" viewBox="0 0 453 236" width="453" height="236"><path d="M 126.500,153.000 C 123.522,153.768 123.500,153.500 120.500,154.000" stroke-width="4.237" stroke="black" fill="none" stroke-linecap="round"></path><path d="M 120.500,154.000 C 116.971,154.289 117.022,154.268 113.500,154.000" stroke-width="4.188" stroke="black" fill="none" stroke-linecap="round"></path><path d="M 113.500,154.000 C 110.888,153.853 110.971,153.789 108.500,153.000" stroke-width="4.242" stroke="black" fill="none" stroke-linecap="round"></path><path d="M 108.500,153.000 C 103.899,151.199 103.888,151.353 99.500,149.000" stroke-width="4.305" stroke="black" fill="none" stroke-linecap="round"></path><path d="M 99.500,149.000 C 96.048,146.910 95.899,147.199 92.500,145.000" stroke-width="4.471" stroke="black" fill="none" stroke-linecap="round"></path><path d="M 92.500,145.000 C 86.266,143.405 89.548,143.410 86.500,142.000" stroke-width="4.810" stroke="black" fill="none" stroke-linecap="round"></path><path d="M 86.500,142.000 C 90.100,140.700 86.766,140.405 93.500,139.000" stroke-width="5.121" stroke="black" fill="none" stroke-linecap="round"></path><path d="M 93.500,139.000 C 97.152,137.232 97.100,137.200 100.500,135.000" stroke-width="4.131" stroke="black" fill="none" stroke-linecap="round"></path><path d="M 100.500,135.000 C 104.315,131.721 104.652,132.232 108.500,129.000" stroke-width="3.700" stroke="black" fill="none" stroke-linecap="round"></path><path d="M 108.500,129.000 C 114.689,125.790 114.315,125.221 120.500,122.000" stroke-width="3.373" stroke="black" fill="none" stroke-linecap="round"></path><path d="M 120.500,122.000 C 125.918,117.883 126.189,118.290 131.500,114.000" stroke-width="3.065" stroke="black" fill="none" stroke-linecap="round"></path><path d="M 131.500,114.000 C 137.500,110.000 137.418,109.883 143.500,106.000" stroke-width="3.050" stroke="black" fill="none" stroke-linecap="round"></path><path d="M 143.500,106.000 C 148.044,103.064 148.000,103.000 152.500,100.000" stroke-width="3.258" stroke="black" fill="none" stroke-linecap="round"></path><path d="M 152.500,100.000 C 155.848,97.247 156.044,97.564 159.500,95.000" stroke-width="3.528" stroke="black" fill="none" stroke-linecap="round"></path><path d="M 159.500,95.000 C 162.353,93.049 162.348,93.247 165.500,92.000" stroke-width="3.867" stroke="black" fill="none" stroke-linecap="round"></path><path d="M 165.500,92.000 C 171.652,89.325 168.353,91.049 171.500,91.000" stroke-width="4.459" stroke="black" fill="none" stroke-linecap="round"></path><path d="M 171.500,91.000 C 168.501,97.351 171.152,94.825 164.500,103.000" stroke-width="4.147" stroke="black" fill="none" stroke-linecap="round"></path><path d="M 164.500,103.000 C 159.700,109.176 160.001,109.351 154.500,115.000" stroke-width="3.142" stroke="black" fill="none" stroke-linecap="round"></path><path d="M 154.500,115.000 C 147.125,123.121 147.200,123.176 139.500,131.000" stroke-width="2.561" stroke="black" fill="none" stroke-linecap="round"></path><path d="M 139.500,131.000 C 132.000,138.500 132.125,138.621 124.500,146.000" stroke-width="2.459" stroke="black" fill="none" stroke-linecap="round"></path><path d="M 124.500,146.000 C 116.500,154.000 116.500,154.000 108.500,162.000" stroke-width="2.628" stroke="black" fill="none" stroke-linecap="round"></path><path d="M 108.500,162.000 C 100.749,170.266 100.500,170.000 92.500,178.000" stroke-width="2.412" stroke="black" fill="none" stroke-linecap="round"></path><path d="M 92.500,178.000 C 84.791,185.367 84.749,185.266 76.500,192.000" stroke-width="2.472" stroke="black" fill="none" stroke-linecap="round"></path><path d="M 76.500,192.000 C 69.535,197.050 69.791,197.367 62.500,202.000" stroke-width="2.634" stroke="black" fill="none" stroke-linecap="round"></path><path d="M 62.500,202.000 C 56.118,206.684 56.035,206.550 49.500,211.000" stroke-width="2.877" stroke="black" fill="none" stroke-linecap="round"></path><path d="M 49.500,211.000 C 44.593,214.170 44.618,214.184 39.500,217.000" stroke-width="3.184" stroke="black" fill="none" stroke-linecap="round"></path><path d="M 39.500,217.000 C 35.635,219.346 35.593,219.170 31.500,221.000" stroke-width="3.519" stroke="black" fill="none" stroke-linecap="round"></path><path d="M 31.500,221.000 C 28.029,222.118 28.135,222.346 24.500,223.000" stroke-width="3.755" stroke="black" fill="none" stroke-linecap="round"></path><path d="M 24.500,223.000 C 21.932,224.243 22.029,223.618 19.500,224.000" stroke-width="4.138" stroke="black" fill="none" stroke-linecap="round"></path><path d="M 19.500,224.000 C 15.138,223.913 16.932,223.743 14.500,222.000" stroke-width="4.766" stroke="black" fill="none" stroke-linecap="round"></path><path d="M 14.500,222.000 C 14.325,217.718 13.638,219.413 16.500,215.000" stroke-width="4.098" stroke="black" fill="none" stroke-linecap="round"></path><path d="M 16.500,215.000 C 21.326,210.763 20.325,210.218 26.500,207.000" stroke-width="3.432" stroke="black" fill="none" stroke-linecap="round"></path><path d="M 26.500,207.000 C 32.362,202.777 32.326,202.763 38.500,199.000" stroke-width="3.210" stroke="black" fill="none" stroke-linecap="round"></path><path d="M 38.500,199.000 C 45.258,194.511 45.362,194.777 52.500,191.000" stroke-width="2.977" stroke="black" fill="none" stroke-linecap="round"></path><path d="M 52.500,191.000 C 62.242,187.489 61.758,186.511 71.500,183.000" stroke-width="2.659" stroke="black" fill="none" stroke-linecap="round"></path><path d="M 71.500,183.000 C 78.299,178.600 78.742,179.489 85.500,175.000" stroke-width="2.867" stroke="black" fill="none" stroke-linecap="round"></path><path d="M 85.500,175.000 C 93.542,171.594 93.299,171.100 101.500,168.000" stroke-width="2.912" stroke="black" fill="none" stroke-linecap="round"></path><path d="M 101.500,168.000 C 108.993,164.485 109.042,164.594 116.500,161.000" stroke-width="2.868" stroke="black" fill="none" stroke-linecap="round"></path><path d="M 116.500,161.000 C 122.942,157.869 122.993,157.985 129.500,155.000" stroke-width="2.995" stroke="black" fill="none" stroke-linecap="round"></path><path d="M 129.500,155.000 C 138.985,150.964 138.942,150.869 148.500,147.000" stroke-width="2.663" stroke="black" fill="none" stroke-linecap="round"></path><path d="M 148.500,147.000 C 154.101,145.601 150.985,145.964 153.500,145.000" stroke-width="3.616" stroke="black" fill="none" stroke-linecap="round"></path><path d="M 153.500,145.000 C 149.423,143.720 152.601,144.101 145.500,144.000" stroke-width="4.565" stroke="black" fill="none" stroke-linecap="round"></path><path d="M 145.500,144.000 C 142.412,144.787 142.423,144.220 139.500,146.000" stroke-width="4.178" stroke="black" fill="none" stroke-linecap="round"></path><path d="M 139.500,146.000 C 136.337,147.227 136.412,147.287 133.500,149.000" stroke-width="4.025" stroke="black" fill="none" stroke-linecap="round"></path><path d="M 133.500,149.000 C 128.529,152.543 128.337,152.227 123.500,156.000" stroke-width="4.082" stroke="black" fill="none" stroke-linecap="round"></path><path d="M 123.500,156.000 C 120.127,157.575 120.529,158.043 117.500,160.000" stroke-width="3.937" stroke="black" fill="none" stroke-linecap="round"></path><path d="M 117.500,160.000 C 113.203,163.607 113.627,163.575 110.500,168.000" stroke-width="4.154" stroke="black" fill="none" stroke-linecap="round"></path><path d="M 110.500,168.000 C 108.163,171.663 109.203,170.107 109.500,173.000" stroke-width="4.644" stroke="black" fill="none" stroke-linecap="round"></path><path d="M 109.500,173.000 C 113.443,174.459 111.663,175.163 117.500,175.000" stroke-width="4.781" stroke="black" fill="none" stroke-linecap="round"></path><path d="M 117.500,175.000 C 121.147,175.718 120.943,175.459 124.500,175.000" stroke-width="4.138" stroke="black" fill="none" stroke-linecap="round"></path><path d="M 124.500,175.000 C 128.102,173.699 128.147,174.218 131.500,172.000" stroke-width="3.904" stroke="black" fill="none" stroke-linecap="round"></path><path d="M 131.500,172.000 C 134.117,170.668 134.102,170.699 136.500,169.000" stroke-width="4.054" stroke="black" fill="none" stroke-linecap="round"></path><path d="M 136.500,169.000 C 139.124,167.138 139.117,167.168 141.500,165.000" stroke-width="4.120" stroke="black" fill="none" stroke-linecap="round"></path><path d="M 141.500,165.000 C 145.338,162.905 144.124,162.638 146.500,160.000" stroke-width="4.482" stroke="black" fill="none" stroke-linecap="round"></path><path d="M 146.500,160.000 C 147.108,156.149 147.338,157.905 145.500,155.000" stroke-width="4.894" stroke="black" fill="none" stroke-linecap="round"></path><path d="M 145.500,155.000 C 141.845,153.557 143.608,153.649 139.500,155.000" stroke-width="4.799" stroke="black" fill="none" stroke-linecap="round"></path><path d="M 139.500,155.000 C 135.321,158.611 135.345,157.557 132.500,163.000" stroke-width="4.427" stroke="black" fill="none" stroke-linecap="round"></path><path d="M 132.500,163.000 C 129.401,166.802 130.821,165.611 130.500,169.000" stroke-width="4.628" stroke="black" fill="none" stroke-linecap="round"></path><path d="M 130.500,169.000 C 133.952,172.727 131.901,171.802 137.500,173.000" stroke-width="4.880" stroke="black" fill="none" stroke-linecap="round"></path><path d="M 137.500,173.000 C 140.541,171.578 140.452,173.227 143.500,170.000" stroke-width="4.350" stroke="black" fill="none" stroke-linecap="round"></path><path d="M 143.500,170.000 C 148.299,167.941 148.041,167.578 152.500,165.000" stroke-width="3.657" stroke="black" fill="none" stroke-linecap="round"></path><path d="M 152.500,165.000 C 158.124,160.643 158.299,160.941 163.500,156.000" stroke-width="3.154" stroke="black" fill="none" stroke-linecap="round"></path><path d="M 163.500,156.000 C 169.249,151.251 169.124,151.143 174.500,146.000" stroke-width="3.650" stroke="black" fill="none" stroke-linecap="round"></path><path d="M 174.500,146.000 C 180.000,140.000 180.249,140.251 185.500,134.000" stroke-width="3.001" stroke="black" fill="none" stroke-linecap="round"></path><path d="M 185.500,134.000 C 190.832,127.839 191.000,128.000 196.500,122.000" stroke-width="2.968" stroke="black" fill="none" stroke-linecap="round"></path><path d="M 196.500,122.000 C 207.500,111.000 207.332,110.839 218.500,100.000" stroke-width="2.206" stroke="black" fill="none" stroke-linecap="round"></path><path d="M 218.500,100.000 C 222.500,96.000 222.500,96.000 226.500,92.000" stroke-width="3.285" stroke="black" fill="none" stroke-linecap="round"></path><path d="M 226.500,92.000 C 229.272,89.723 229.000,89.500 231.500,87.000" stroke-width="3.738" stroke="black" fill="none" stroke-linecap="round"></path><path d="M 231.500,87.000 C 237.224,80.713 233.772,84.223 235.500,81.000" stroke-width="4.327" stroke="black" fill="none" stroke-linecap="round"></path><path d="M 235.500,81.000 C 226.974,84.178 231.224,81.713 219.500,89.000" stroke-width="3.857" stroke="black" fill="none" stroke-linecap="round"></path><path d="M 219.500,89.000 C 211.877,94.852 211.474,94.178 204.500,101.000" stroke-width="2.985" stroke="black" fill="none" stroke-linecap="round"></path><path d="M 204.500,101.000 C 196.647,107.139 196.877,107.352 189.500,114.000" stroke-width="2.636" stroke="black" fill="none" stroke-linecap="round"></path><path d="M 189.500,114.000 C 184.500,119.500 184.147,119.139 179.500,125.000" stroke-width="2.881" stroke="black" fill="none" stroke-linecap="round"></path><path d="M 179.500,125.000 C 174.088,130.188 174.500,130.500 169.500,136.000" stroke-width="2.905" stroke="black" fill="none" stroke-linecap="round"></path><path d="M 169.500,136.000 C 166.599,139.802 166.588,139.688 164.500,144.000" stroke-width="3.370" stroke="black" fill="none" stroke-linecap="round"></path><path d="M 164.500,144.000 C 162.772,147.929 162.599,147.802 161.500,152.000" stroke-width="3.623" stroke="black" fill="none" stroke-linecap="round"></path><path d="M 161.500,152.000 C 159.952,155.933 160.272,155.929 159.500,160.000" stroke-width="3.737" stroke="black" fill="none" stroke-linecap="round"></path><path d="M 159.500,160.000 C 157.006,167.756 158.952,164.933 159.500,170.000" stroke-width="4.179" stroke="black" fill="none" stroke-linecap="round"></path><path d="M 159.500,170.000 C 164.664,170.138 162.006,172.256 169.500,169.000" stroke-width="4.741" stroke="black" fill="none" stroke-linecap="round"></path><path d="M 169.500,169.000 C 173.056,167.621 173.164,168.138 176.500,166.000" stroke-width="4.049" stroke="black" fill="none" stroke-linecap="round"></path><path d="M 176.500,166.000 C 181.561,163.615 181.556,163.621 186.500,161.000" stroke-width="3.625" stroke="black" fill="none" stroke-linecap="round"></path><path d="M 186.500,161.000 C 190.018,159.031 190.061,159.115 193.500,157.000" stroke-width="3.756" stroke="black" fill="none" stroke-linecap="round"></path><path d="M 193.500,157.000 C 196.000,155.500 196.018,155.531 198.500,154.000" stroke-width="4.049" stroke="black" fill="none" stroke-linecap="round"></path><path d="M 198.500,154.000 C 202.919,149.838 201.000,152.500 203.500,151.000" stroke-width="4.100" stroke="black" fill="none" stroke-linecap="round"></path><path d="M 203.500,151.000 C 203.031,155.712 204.419,152.838 201.500,160.000" stroke-width="4.614" stroke="black" fill="none" stroke-linecap="round"></path><path d="M 201.500,160.000 C 198.000,163.000 200.531,162.712 198.500,165.000" stroke-width="4.308" stroke="black" fill="none" stroke-linecap="round"></path><path d="M 198.500,165.000 C 201.048,168.525 199.000,167.000 203.500,168.000" stroke-width="4.880" stroke="black" fill="none" stroke-linecap="round"></path><path d="M 203.500,168.000 C 208.044,165.064 208.048,167.025 212.500,162.000" stroke-width="3.836" stroke="black" fill="none" stroke-linecap="round"></path><path d="M 212.500,162.000 C 216.000,159.500 216.044,159.564 219.500,157.000" stroke-width="3.710" stroke="black" fill="none" stroke-linecap="round"></path><path d="M 219.500,157.000 C 222.964,154.448 223.000,154.500 226.500,152.000" stroke-width="3.822" stroke="black" fill="none" stroke-linecap="round"></path><path d="M 226.500,152.000 C 232.283,147.134 229.464,149.948 232.500,148.000" stroke-width="4.345" stroke="black" fill="none" stroke-linecap="round"></path><path d="M 232.500,148.000 C 230.313,152.249 232.783,149.134 227.500,156.000" stroke-width="4.577" stroke="black" fill="none" stroke-linecap="round"></path><path d="M 227.500,156.000 C 225.223,157.784 225.813,158.249 223.500,160.000" stroke-width="4.274" stroke="black" fill="none" stroke-linecap="round"></path><path d="M 223.500,160.000 C 219.446,163.946 221.723,162.284 220.500,165.000" stroke-width="4.214" stroke="black" fill="none" stroke-linecap="round"></path><path d="M 220.500,165.000 C 224.818,166.052 221.946,166.446 228.500,165.000" stroke-width="4.746" stroke="black" fill="none" stroke-linecap="round"></path><path d="M 228.500,165.000 C 231.500,163.000 231.818,164.052 234.500,161.000" stroke-width="4.159" stroke="black" fill="none" stroke-linecap="round"></path><path d="M 234.500,161.000 C 241.042,156.096 237.500,159.000 240.500,157.000" stroke-width="4.469" stroke="black" fill="none" stroke-linecap="round"></path><path d="M 240.500,157.000 C 236.000,161.500 239.542,158.596 231.500,166.000" stroke-width="4.453" stroke="black" fill="none" stroke-linecap="round"></path><path d="M 231.500,166.000 C 227.409,168.455 228.500,169.000 225.500,172.000" stroke-width="4.468" stroke="black" fill="none" stroke-linecap="round"></path><path d="M 225.500,172.000 C 222.455,179.409 223.909,174.955 224.500,179.000" stroke-width="4.598" stroke="black" fill="none" stroke-linecap="round"></path><path d="M 224.500,179.000 C 232.977,174.642 229.955,177.909 240.500,169.000" stroke-width="3.051" stroke="black" fill="none" stroke-linecap="round"></path><path d="M 240.500,169.000 C 248.749,162.266 248.977,162.642 256.500,155.000" stroke-width="2.704" stroke="black" fill="none" stroke-linecap="round"></path><path d="M 256.500,155.000 C 264.382,146.879 264.749,147.266 272.500,139.000" stroke-width="2.431" stroke="black" fill="none" stroke-linecap="round"></path><path d="M 272.500,139.000 C 281.628,130.632 281.382,130.379 290.500,122.000" stroke-width="2.439" stroke="black" fill="none" stroke-linecap="round"></path><path d="M 290.500,122.000 C 300.128,112.625 300.128,112.632 309.500,103.000" stroke-width="2.252" stroke="black" fill="none" stroke-linecap="round"></path><path d="M 309.500,103.000 C 318.507,93.507 318.628,93.625 327.500,84.000" stroke-width="2.168" stroke="black" fill="none" stroke-linecap="round"></path><path d="M 327.500,84.000 C 336.205,75.183 336.007,75.007 344.500,66.000" stroke-width="2.442" stroke="black" fill="none" stroke-linecap="round"></path><path d="M 344.500,66.000 C 350.145,59.615 350.205,59.683 355.500,53.000" stroke-width="2.688" stroke="black" fill="none" stroke-linecap="round"></path><path d="M 355.500,53.000 C 363.387,45.755 358.645,49.115 361.500,45.000" stroke-width="3.234" stroke="black" fill="none" stroke-linecap="round"></path><path d="M 361.500,45.000 C 352.745,45.377 358.387,43.755 345.500,49.000" stroke-width="3.872" stroke="black" fill="none" stroke-linecap="round"></path><path d="M 345.500,49.000 C 336.112,55.018 335.745,53.877 327.500,62.000" stroke-width="2.669" stroke="black" fill="none" stroke-linecap="round"></path><path d="M 327.500,62.000 C 317.499,70.001 317.612,70.018 308.500,79.000" stroke-width="2.361" stroke="black" fill="none" stroke-linecap="round"></path><path d="M 308.500,79.000 C 300.178,87.734 299.999,87.501 292.500,97.000" stroke-width="2.338" stroke="black" fill="none" stroke-linecap="round"></path><path d="M 292.500,97.000 C 285.488,105.160 285.678,105.234 279.500,114.000" stroke-width="2.442" stroke="black" fill="none" stroke-linecap="round"></path><path d="M 279.500,114.000 C 275.208,120.849 274.988,120.660 271.500,128.000" stroke-width="2.683" stroke="black" fill="none" stroke-linecap="round"></path><path d="M 271.500,128.000 C 268.102,134.349 268.208,134.349 265.500,141.000" stroke-width="2.877" stroke="black" fill="none" stroke-linecap="round"></path><path d="M 265.500,141.000 C 264.326,146.129 263.602,145.849 262.500,151.000" stroke-width="3.277" stroke="black" fill="none" stroke-linecap="round"></path><path d="M 262.500,151.000 C 260.787,153.912 261.326,154.129 259.500,157.000" stroke-width="3.729" stroke="black" fill="none" stroke-linecap="round"></path><path d="M 259.500,157.000 C 256.338,163.498 258.287,159.912 257.500,163.000" stroke-width="4.372" stroke="black" fill="none" stroke-linecap="round"></path><path d="M 257.500,163.000 C 261.666,158.109 259.838,161.998 266.500,154.000" stroke-width="4.449" stroke="black" fill="none" stroke-linecap="round"></path><path d="M 266.500,154.000 C 271.558,149.200 271.666,149.609 277.500,146.000" stroke-width="3.498" stroke="black" fill="none" stroke-linecap="round"></path><path d="M 277.500,146.000 C 284.949,142.864 284.558,142.200 292.500,140.000" stroke-width="2.977" stroke="black" fill="none" stroke-linecap="round"></path><path d="M 292.500,140.000 C 299.328,136.721 299.449,137.364 306.500,135.000" stroke-width="2.994" stroke="black" fill="none" stroke-linecap="round"></path><path d="M 306.500,135.000 C 311.990,134.290 311.828,133.721 317.500,134.000" stroke-width="3.220" stroke="black" fill="none" stroke-linecap="round"></path><path d="M 317.500,134.000 C 322.319,132.554 321.490,133.790 325.500,134.000" stroke-width="3.574" stroke="black" fill="none" stroke-linecap="round"></path><path d="M 325.500,134.000 C 329.857,137.026 327.819,135.054 328.500,139.000" stroke-width="4.353" stroke="black" fill="none" stroke-linecap="round"></path><path d="M 328.500,139.000 C 322.250,145.811 324.357,145.026 314.500,150.000" stroke-width="3.089" stroke="black" fill="none" stroke-linecap="round"></path><path d="M 314.500,150.000 C 303.148,154.913 303.750,155.811 291.500,159.000" stroke-width="2.417" stroke="black" fill="none" stroke-linecap="round"></path><path d="M 291.500,159.000 C 274.526,164.583 274.648,164.913 257.500,170.000" stroke-width="2.018" stroke="black" fill="none" stroke-linecap="round"></path><path d="M 257.500,170.000 C 241.798,176.275 241.526,175.083 225.500,180.000" stroke-width="1.928" stroke="black" fill="none" stroke-linecap="round"></path><path d="M 225.500,180.000 C 206.610,184.407 206.798,184.275 187.500,186.000" stroke-width="1.726" stroke="black" fill="none" stroke-linecap="round"></path><path d="M 187.500,186.000 C 170.500,186.000 170.610,187.407 153.500,186.000" stroke-width="1.777" stroke="black" fill="none" stroke-linecap="round"></path><path d="M 153.500,186.000 C 136.633,188.264 137.000,186.000 120.500,186.000" stroke-width="1.818" stroke="black" fill="none" stroke-linecap="round"></path><path d="M 120.500,186.000 C 107.520,183.785 108.133,184.264 96.500,178.000" stroke-width="2.057" stroke="black" fill="none" stroke-linecap="round"></path><path d="M 96.500,178.000 C 86.826,172.764 87.520,173.285 80.500,165.000" stroke-width="2.322" stroke="black" fill="none" stroke-linecap="round"></path><path d="M 80.500,165.000 C 75.522,158.359 75.826,159.264 74.500,151.000" stroke-width="2.687" stroke="black" fill="none" stroke-linecap="round"></path><path d="M 74.500,151.000 C 72.260,139.184 73.022,140.359 75.500,129.000" stroke-width="2.517" stroke="black" fill="none" stroke-linecap="round"></path><path d="M 75.500,129.000 C 80.251,116.552 79.260,117.184 88.500,107.000" stroke-width="2.260" stroke="black" fill="none" stroke-linecap="round"></path><path d="M 88.500,107.000 C 99.735,94.095 99.251,94.552 113.500,85.000" stroke-width="1.937" stroke="black" fill="none" stroke-linecap="round"></path><path d="M 113.500,85.000 C 128.364,75.763 127.735,75.595 144.500,70.000" stroke-width="1.882" stroke="black" fill="none" stroke-linecap="round"></path><path d="M 144.500,70.000 C 163.724,63.339 163.364,63.263 183.500,60.000" stroke-width="1.728" stroke="black" fill="none" stroke-linecap="round"></path><path d="M 183.500,60.000 C 202.470,57.741 202.224,56.839 221.500,57.000" stroke-width="1.733" stroke="black" fill="none" stroke-linecap="round"></path><path d="M 221.500,57.000 C 241.015,56.473 240.970,56.241 260.500,57.000" stroke-width="1.664" stroke="black" fill="none" stroke-linecap="round"></path><path d="M 260.500,57.000 C 278.223,56.532 278.015,57.473 295.500,59.000" stroke-width="1.732" stroke="black" fill="none" stroke-linecap="round"></path><path d="M 295.500,59.000 C 309.755,61.724 309.723,61.032 323.500,66.000" stroke-width="2.011" stroke="black" fill="none" stroke-linecap="round"></path><path d="M 323.500,66.000 C 332.325,68.913 332.255,68.724 340.500,73.000" stroke-width="2.400" stroke="black" fill="none" stroke-linecap="round"></path><path d="M 340.500,73.000 C 346.765,74.813 344.325,74.913 347.500,78.000" stroke-width="3.201" stroke="black" fill="none" stroke-linecap="round"></path><path d="M 347.500,78.000 C 347.186,83.769 348.265,81.313 343.500,86.000" stroke-width="3.475" stroke="black" fill="none" stroke-linecap="round"></path><path d="M 343.500,86.000 C 326.897,94.565 328.186,95.269 309.500,101.000" stroke-width="2.001" stroke="black" fill="none" stroke-linecap="round"></path><path d="M 309.500,101.000 C 290.188,107.699 290.397,108.065 270.500,113.000" stroke-width="1.690" stroke="black" fill="none" stroke-linecap="round"></path><path d="M 270.500,113.000 C 251.173,118.497 251.188,118.199 231.500,122.000" stroke-width="1.631" stroke="black" fill="none" stroke-linecap="round"></path><path d="M 231.500,122.000 C 214.542,124.531 214.673,124.997 197.500,126.000" stroke-width="1.877" stroke="black" fill="none" stroke-linecap="round"></path><path d="M 197.500,126.000 C 185.504,126.692 185.542,127.031 173.500,127.000" stroke-width="2.123" stroke="black" fill="none" stroke-linecap="round"></path><path d="M 173.500,127.000 C 166.000,127.000 166.004,127.192 158.500,127.000" stroke-width="2.707" stroke="black" fill="none" stroke-linecap="round"></path><path d="M 323.500,148.000 C 330.777,144.423 331.000,145.500 338.500,143.000" stroke-width="4.749" stroke="black" fill="none" stroke-linecap="round"></path><path d="M 338.500,143.000 C 350.000,142.000 349.777,140.923 361.500,141.000" stroke-width="2.880" stroke="black" fill="none" stroke-linecap="round"></path><path d="M 361.500,141.000 C 373.027,140.247 373.000,140.000 384.500,139.000" stroke-width="2.515" stroke="black" fill="none" stroke-linecap="round"></path><path d="M 384.500,139.000 C 395.961,137.110 396.027,137.747 407.500,136.000" stroke-width="2.708" stroke="black" fill="none" stroke-linecap="round"></path><path d="M 407.500,136.000 C 421.993,134.784 421.961,134.610 436.500,134.000" stroke-width="2.168" stroke="black" fill="none" stroke-linecap="round"></path><path d="M 436.500,134.000 C 440.985,132.828 440.493,133.784 444.500,134.000" stroke-width="3.076" stroke="black" fill="none" stroke-linecap="round"></path><path d="M 444.500,134.000 C 448.698,135.818 446.985,134.828 448.500,138.000" stroke-width="4.110" stroke="black" fill="none" stroke-linecap="round"></path><path d="M 448.500,138.000 C 446.764,142.436 448.198,141.318 443.500,145.000" stroke-width="3.840" stroke="black" fill="none" stroke-linecap="round"></path><path d="M 443.500,145.000 C 439.100,147.275 439.764,147.936 434.500,149.000" stroke-width="3.695" stroke="black" fill="none" stroke-linecap="round"></path><path d="M 434.500,149.000 C 431.087,150.622 431.100,150.275 427.500,151.000" stroke-width="3.813" stroke="black" fill="none" stroke-linecap="round"></path><path d="M 427.500,151.000 C 421.430,151.760 421.587,151.622 415.500,151.000" stroke-width="4.003" stroke="black" fill="none" stroke-linecap="round"></path><path d="M 415.500,151.000 C 402.085,147.865 401.930,149.260 388.500,146.000" stroke-width="3.367" stroke="black" fill="none" stroke-linecap="round"></path><path d="M 388.500,146.000 C 376.524,144.422 376.585,144.365 364.500,144.000" stroke-width="2.565" stroke="black" fill="none" stroke-linecap="round"></path><path d="M 364.500,144.000 C 348.000,144.000 348.024,143.422 331.500,144.000" stroke-width="2.008" stroke="black" fill="none" stroke-linecap="round"></path><path d="M 331.500,144.000 C 314.338,142.046 314.500,144.000 297.500,144.000" stroke-width="1.858" stroke="black" fill="none" stroke-linecap="round"></path><path d="M 297.500,144.000 C 258.422,150.073 258.338,148.546 219.500,157.000" stroke-width="1.738" stroke="black" fill="none" stroke-linecap="round"></path><path d="M 219.500,157.000 C 199.489,160.948 199.422,160.573 179.500,165.000" stroke-width="1.628" stroke="black" fill="none" stroke-linecap="round"></path><path d="M 179.500,165.000 C 162.498,168.492 162.489,168.448 145.500,172.000" stroke-width="1.728" stroke="black" fill="none" stroke-linecap="round"></path><path d="M 145.500,172.000 C 131.008,175.039 130.998,174.992 116.500,178.000" stroke-width="2.479" stroke="black" fill="none" stroke-linecap="round"></path></svg>