<svg xmlns="http://www.w3.org/2000/svg" xmlns:xlink="http://www.w3.org/1999/xlink" viewBox="0 0 453 236" width="453" height="236"><path d="M 94.500,157.000 C 91.238,155.895 91.500,155.500 88.500,154.000" stroke-width="5.223" stroke="black" fill="none" stroke-linecap="round"></path><path d="M 88.500,154.000 C 84.563,151.369 84.738,151.395 81.500,148.000" stroke-width="4.765" stroke="black" fill="none" stroke-linecap="round"></path><path d="M 81.500,148.000 C 78.246,145.284 79.563,145.869 78.500,143.000" stroke-width="5.213" stroke="black" fill="none" stroke-linecap="round"></path><path d="M 78.500,143.000 C 80.400,140.890 78.746,140.784 82.500,139.000" stroke-width="4.918" stroke="black" fill="none" stroke-linecap="round"></path><path d="M 82.500,139.000 C 85.430,136.412 85.400,136.390 88.500,134.000" stroke-width="4.122" stroke="black" fill="none" stroke-linecap="round"></path><path d="M 88.500,134.000 C 92.528,131.037 92.430,130.912 96.500,128.000" stroke-width="3.636" stroke="black" fill="none" stroke-linecap="round"></path><path d="M 96.500,128.000 C 100.835,124.266 101.028,124.537 105.500,121.000" stroke-width="3.383" stroke="black" fill="none" stroke-linecap="round"></path><path d="M 105.500,121.000 C 111.077,117.615 110.835,117.266 116.500,114.000" stroke-width="3.241" stroke="black" fill="none" stroke-linecap="round"></path><path d="M 116.500,114.000 C 121.463,110.446 121.577,110.615 126.500,107.000" stroke-width="3.206" stroke="black" fill="none" stroke-linecap="round"></path><path d="M 126.500,107.000 C 131.044,104.064 130.963,103.946 135.500,101.000" stroke-width="3.365" stroke="black" fill="none" stroke-linecap="round"></path><path d="M 135.500,101.000 C 138.964,98.448 139.044,98.564 142.500,96.000" stroke-width="3.565" stroke="black" fill="none" stroke-linecap="round"></path><path d="M 142.500,96.000 C 145.459,93.935 145.464,93.948 148.500,92.000" stroke-width="3.826" stroke="black" fill="none" stroke-linecap="round"></path><path d="M 148.500,92.000 C 153.142,87.746 150.959,90.435 153.500,89.000" stroke-width="4.029" stroke="black" fill="none" stroke-linecap="round"></path><path d="M 153.500,89.000 C 152.571,94.237 154.142,91.246 150.500,99.000" stroke-width="4.725" stroke="black" fill="none" stroke-linecap="round"></path><path d="M 150.500,99.000 C 147.468,105.799 147.571,105.737 143.500,112.000" stroke-width="3.303" stroke="black" fill="none" stroke-linecap="round"></path><path d="M 143.500,112.000 C 139.271,118.224 139.468,118.299 134.500,124.000" stroke-width="3.288" stroke="black" fill="none" stroke-linecap="round"></path><path d="M 134.500,124.000 C 129.500,129.500 129.771,129.724 124.500,135.000" stroke-width="3.018" stroke="black" fill="none" stroke-linecap="round"></path><path d="M 124.500,135.000 C 119.749,140.751 119.500,140.500 114.500,146.000" stroke-width="3.006" stroke="black" fill="none" stroke-linecap="round"></path><path d="M 114.500,146.000 C 109.500,150.500 109.749,150.751 104.500,155.000" stroke-width="3.041" stroke="black" fill="none" stroke-linecap="round"></path><path d="M 104.500,155.000 C 99.500,159.500 99.500,159.500 94.500,164.000" stroke-width="3.051" stroke="black" fill="none" stroke-linecap="round"></path><path d="M 94.500,164.000 C 89.606,168.623 89.500,168.500 84.500,173.000" stroke-width="3.167" stroke="black" fill="none" stroke-linecap="round"></path><path d="M 84.500,173.000 C 78.913,177.399 79.106,177.623 73.500,182.000" stroke-width="3.094" stroke="black" fill="none" stroke-linecap="round"></path><path d="M 73.500,182.000 C 69.196,186.243 68.913,185.899 64.500,190.000" stroke-width="3.174" stroke="black" fill="none" stroke-linecap="round"></path><path d="M 64.500,190.000 C 59.070,194.101 59.196,194.243 53.500,198.000" stroke-width="3.139" stroke="black" fill="none" stroke-linecap="round"></path><path d="M 53.500,198.000 C 49.153,201.263 49.070,201.101 44.500,204.000" stroke-width="3.288" stroke="black" fill="none" stroke-linecap="round"></path><path d="M 44.500,204.000 C 40.545,206.096 40.653,206.263 36.500,208.000" stroke-width="3.557" stroke="black" fill="none" stroke-linecap="round"></path><path d="M 36.500,208.000 C 32.100,210.275 32.045,210.096 27.500,212.000" stroke-width="3.504" stroke="black" fill="none" stroke-linecap="round"></path><path d="M 27.500,212.000 C 24.029,213.118 24.100,213.275 20.500,214.000" stroke-width="3.797" stroke="black" fill="none" stroke-linecap="round"></path><path d="M 20.500,214.000 C 18.008,214.544 18.029,214.618 15.500,215.000" stroke-width="4.113" stroke="black" fill="none" stroke-linecap="round"></path><path d="M 15.500,215.000 C 11.258,217.563 12.508,215.544 9.500,216.000" stroke-width="4.087" stroke="black" fill="none" stroke-linecap="round"></path><path d="M 9.500,216.000 C 4.422,210.601 6.758,213.563 6.500,207.000" stroke-width="4.703" stroke="black" fill="none" stroke-linecap="round"></path><path d="M 6.500,207.000 C 15.405,198.395 11.922,197.601 24.500,190.000" stroke-width="2.707" stroke="black" fill="none" stroke-linecap="round"></path><path d="M 24.500,190.000 C 28.105,185.930 28.405,186.395 32.500,183.000" stroke-width="3.280" stroke="black" fill="none" stroke-linecap="round"></path><path d="M 32.500,183.000 C 38.733,178.863 38.605,178.930 45.500,176.000" stroke-width="3.023" stroke="black" fill="none" stroke-linecap="round"></path><path d="M 45.500,176.000 C 51.923,173.705 51.733,173.363 58.500,172.000" stroke-width="3.035" stroke="black" fill="none" stroke-linecap="round"></path><path d="M 58.500,172.000 C 65.577,170.795 65.423,170.205 72.500,169.000" stroke-width="2.988" stroke="black" fill="none" stroke-linecap="round"></path><path d="M 72.500,169.000 C 79.000,167.000 79.077,167.295 85.500,165.000" stroke-width="3.025" stroke="black" fill="none" stroke-linecap="round"></path><path d="M 85.500,165.000 C 91.972,162.904 92.000,163.000 98.500,161.000" stroke-width="3.148" stroke="black" fill="none" stroke-linecap="round"></path><path d="M 98.500,161.000 C 104.072,159.727 103.972,159.404 109.500,158.000" stroke-width="3.298" stroke="black" fill="none" stroke-linecap="round"></path><path d="M 109.500,158.000 C 115.009,156.023 115.072,156.227 120.500,154.000" stroke-width="3.263" stroke="black" fill="none" stroke-linecap="round"></path><path d="M 120.500,154.000 C 124.478,152.437 124.509,152.523 128.500,151.000" stroke-width="3.585" stroke="black" fill="none" stroke-linecap="round"></path><path d="M 128.500,151.000 C 131.529,150.080 131.478,149.937 134.500,149.000" stroke-width="3.931" stroke="black" fill="none" stroke-linecap="round"></path><path d="M 134.500,149.000 C 137.305,148.463 137.029,148.080 139.500,147.000" stroke-width="4.121" stroke="black" fill="none" stroke-linecap="round"></path><path d="M 139.500,147.000 C 144.297,143.199 141.805,145.463 143.500,143.000" stroke-width="4.810" stroke="black" fill="none" stroke-linecap="round"></path><path d="M 143.500,143.000 C 139.306,144.097 142.297,142.699 135.500,146.000" stroke-width="4.928" stroke="black" fill="none" stroke-linecap="round"></path><path d="M 135.500,146.000 C 130.443,148.910 130.306,148.597 125.500,152.000" stroke-width="4.409" stroke="black" fill="none" stroke-linecap="round"></path><path d="M 125.500,152.000 C 122.239,153.682 122.443,153.910 119.500,156.000" stroke-width="4.023" stroke="black" fill="none" stroke-linecap="round"></path><path d="M 119.500,156.000 C 115.682,159.239 115.739,159.182 112.500,163.000" stroke-width="4.251" stroke="black" fill="none" stroke-linecap="round"></path><path d="M 112.500,163.000 C 107.967,166.869 110.182,165.739 108.500,169.000" stroke-width="4.688" stroke="black" fill="none" stroke-linecap="round"></path><path d="M 108.500,169.000 C 111.394,170.655 108.967,170.869 114.500,171.000" stroke-width="5.004" stroke="black" fill="none" stroke-linecap="round"></path><path d="M 114.500,171.000 C 120.606,171.655 120.394,171.655 126.500,171.000" stroke-width="4.380" stroke="black" fill="none" stroke-linecap="round"></path><path d="M 126.500,171.000 C 129.767,170.491 129.606,170.655 132.500,169.000" stroke-width="4.180" stroke="black" fill="none" stroke-linecap="round"></path><path d="M 132.500,169.000 C 135.111,167.124 135.267,167.491 137.500,165.000" stroke-width="4.065" stroke="black" fill="none" stroke-linecap="round"></path><path d="M 137.500,165.000 C 139.624,163.111 139.611,163.124 141.500,161.000" stroke-width="4.173" stroke="black" fill="none" stroke-linecap="round"></path><path d="M 141.500,161.000 C 146.185,157.827 143.624,158.611 145.500,156.000" stroke-width="4.550" stroke="black" fill="none" stroke-linecap="round"></path><path d="M 145.500,156.000 C 142.147,153.782 144.685,153.827 138.500,153.000" stroke-width="4.930" stroke="black" fill="none" stroke-linecap="round"></path><path d="M 138.500,153.000 C 134.695,151.935 135.147,152.282 131.500,153.000" stroke-width="4.949" stroke="black" fill="none" stroke-linecap="round"></path><path d="M 131.500,153.000 C 126.421,154.754 127.195,154.435 123.500,158.000" stroke-width="4.554" stroke="black" fill="none" stroke-linecap="round"></path><path d="M 123.500,158.000 C 121.384,161.438 121.921,159.754 122.500,163.000" stroke-width="5.005" stroke="black" fill="none" stroke-linecap="round"></path><path d="M 122.500,163.000 C 125.421,164.487 123.884,164.938 128.500,165.000" stroke-width="5.005" stroke="black" fill="none" stroke-linecap="round"></path><path d="M 128.500,165.000 C 131.661,165.757 131.421,165.487 134.500,165.000" stroke-width="4.328" stroke="black" fill="none" stroke-linecap="round"></path><path d="M 134.500,165.000 C 139.100,163.200 139.161,163.757 143.500,161.000" stroke-width="3.761" stroke="black" fill="none" stroke-linecap="round"></path><path d="M 143.500,161.000 C 147.981,158.465 148.100,158.700 152.500,156.000" stroke-width="3.681" stroke="black" fill="none" stroke-linecap="round"></path><path d="M 152.500,156.000 C 159.177,152.794 158.981,152.465 165.500,149.000" stroke-width="3.185" stroke="black" fill="none" stroke-linecap="round"></path><path d="M 165.500,149.000 C 171.537,145.055 171.677,145.294 177.500,141.000" stroke-width="3.023" stroke="black" fill="none" stroke-linecap="round"></path><path d="M 177.500,141.000 C 184.451,137.041 184.037,136.555 190.500,132.000" stroke-width="2.946" stroke="black" fill="none" stroke-linecap="round"></path><path d="M 190.500,132.000 C 196.000,126.500 196.451,127.041 201.500,121.000" stroke-width="2.880" stroke="black" fill="none" stroke-linecap="round"></path><path d="M 201.500,121.000 C 207.261,115.738 207.000,115.500 212.500,110.000" stroke-width="2.860" stroke="black" fill="none" stroke-linecap="round"></path><path d="M 212.500,110.000 C 217.526,104.021 217.761,104.238 222.500,98.000" stroke-width="2.910" stroke="black" fill="none" stroke-linecap="round"></path><path d="M 222.500,98.000 C 227.157,92.621 227.026,92.521 231.500,87.000" stroke-width="2.958" stroke="black" fill="none" stroke-linecap="round"></path><path d="M 231.500,87.000 C 235.662,81.609 235.657,81.621 239.500,76.000" stroke-width="3.015" stroke="black" fill="none" stroke-linecap="round"></path><path d="M 239.500,76.000 C 241.642,71.715 242.162,72.109 244.500,68.000" stroke-width="3.363" stroke="black" fill="none" stroke-linecap="round"></path><path d="M 244.500,68.000 C 247.447,65.822 246.642,65.215 249.500,63.000" stroke-width="3.722" stroke="black" fill="none" stroke-linecap="round"></path><path d="M 249.500,63.000 C 253.743,57.621 251.447,60.322 252.500,57.000" stroke-width="4.327" stroke="black" fill="none" stroke-linecap="round"></path><path d="M 252.500,57.000 C 247.429,57.519 250.743,56.121 243.500,60.000" stroke-width="4.600" stroke="black" fill="none" stroke-linecap="round"></path><path d="M 243.500,60.000 C 238.254,64.246 237.929,63.519 233.500,69.000" stroke-width="4.257" stroke="black" fill="none" stroke-linecap="round"></path><path d="M 233.500,69.000 C 223.389,80.406 222.754,79.746 212.500,91.000" stroke-width="2.395" stroke="black" fill="none" stroke-linecap="round"></path><path d="M 212.500,91.000 C 204.388,97.876 204.889,98.406 196.500,105.000" stroke-width="2.521" stroke="black" fill="none" stroke-linecap="round"></path><path d="M 196.500,105.000 C 189.000,112.000 188.888,111.876 181.500,119.000" stroke-width="2.540" stroke="black" fill="none" stroke-linecap="round"></path><path d="M 181.500,119.000 C 173.900,125.896 174.000,126.000 166.500,133.000" stroke-width="2.487" stroke="black" fill="none" stroke-linecap="round"></path><path d="M 166.500,133.000 C 161.206,137.740 161.400,137.896 156.500,143.000" stroke-width="2.917" stroke="black" fill="none" stroke-linecap="round"></path><path d="M 156.500,143.000 C 152.920,147.440 152.706,147.240 149.500,152.000" stroke-width="3.165" stroke="black" fill="none" stroke-linecap="round"></path><path d="M 149.500,152.000 C 146.517,155.254 146.920,155.440 144.500,159.000" stroke-width="3.543" stroke="black" fill="none" stroke-linecap="round"></path><path d="M 144.500,159.000 C 143.580,162.029 143.017,161.754 142.500,165.000" stroke-width="3.871" stroke="black" fill="none" stroke-linecap="round"></path><path d="M 142.500,165.000 C 139.293,168.994 141.580,167.529 140.500,170.000" stroke-width="4.143" stroke="black" fill="none" stroke-linecap="round"></path><path d="M 140.500,170.000 C 144.765,170.996 142.293,171.494 148.500,170.000" stroke-width="4.899" stroke="black" fill="none" stroke-linecap="round"></path><path d="M 148.500,170.000 C 151.987,167.976 152.265,168.996 155.500,166.000" stroke-width="4.087" stroke="black" fill="none" stroke-linecap="round"></path><path d="M 155.500,166.000 C 159.959,163.422 159.987,163.476 164.500,161.000" stroke-width="3.660" stroke="black" fill="none" stroke-linecap="round"></path><path d="M 164.500,161.000 C 167.500,159.500 167.459,159.422 170.500,158.000" stroke-width="3.914" stroke="black" fill="none" stroke-linecap="round"></path><path d="M 170.500,158.000 C 173.500,156.500 173.500,156.500 176.500,155.000" stroke-width="3.997" stroke="black" fill="none" stroke-linecap="round"></path><path d="M 176.500,155.000 C 179.500,153.500 179.500,153.500 182.500,152.000" stroke-width="4.022" stroke="black" fill="none" stroke-linecap="round"></path><path d="M 182.500,152.000 C 188.677,147.759 185.500,150.500 188.500,149.000" stroke-width="4.473" stroke="black" fill="none" stroke-linecap="round"></path><path d="M 188.500,149.000 C 185.159,154.121 188.177,151.259 181.500,159.000" stroke-width="4.563" stroke="black" fill="none" stroke-linecap="round"></path><path d="M 181.500,159.000 C 178.912,161.930 179.159,162.121 176.500,165.000" stroke-width="4.043" stroke="black" fill="none" stroke-linecap="round"></path><path d="M 176.500,165.000 C 169.368,172.321 173.412,168.930 170.500,173.000" stroke-width="4.251" stroke="black" fill="none" stroke-linecap="round"></path><path d="M 170.500,173.000 C 176.491,171.256 171.868,173.821 181.500,168.000" stroke-width="4.605" stroke="black" fill="none" stroke-linecap="round"></path><path d="M 181.500,168.000 C 186.125,164.132 186.491,164.756 190.500,160.000" stroke-width="3.531" stroke="black" fill="none" stroke-linecap="round"></path><path d="M 190.500,160.000 C 194.868,155.359 195.125,155.632 199.500,151.000" stroke-width="3.242" stroke="black" fill="none" stroke-linecap="round"></path><path d="M 199.500,151.000 C 203.500,147.500 203.368,147.359 207.500,144.000" stroke-width="3.941" stroke="black" fill="none" stroke-linecap="round"></path><path d="M 207.500,144.000 C 213.135,137.676 211.500,140.500 215.500,137.000" stroke-width="3.531" stroke="black" fill="none" stroke-linecap="round"></path><path d="M 215.500,137.000 C 215.433,139.667 216.635,136.676 214.500,142.000" stroke-width="4.566" stroke="black" fill="none" stroke-linecap="round"></path><path d="M 214.500,142.000 C 213.065,144.541 213.433,144.667 211.500,147.000" stroke-width="4.295" stroke="black" fill="none" stroke-linecap="round"></path><path d="M 211.500,147.000 C 209.217,149.851 209.565,150.041 207.500,153.000" stroke-width="4.096" stroke="black" fill="none" stroke-linecap="round"></path><path d="M 207.500,153.000 C 206.700,155.599 206.217,155.351 205.500,158.000" stroke-width="4.217" stroke="black" fill="none" stroke-linecap="round"></path><path d="M 205.500,158.000 C 201.661,162.790 204.200,160.599 202.500,163.000" stroke-width="4.596" stroke="black" fill="none" stroke-linecap="round"></path><path d="M 202.500,163.000 C 206.198,161.286 203.661,163.290 209.500,159.000" stroke-width="4.728" stroke="black" fill="none" stroke-linecap="round"></path><path d="M 209.500,159.000 C 212.600,156.610 212.698,156.786 215.500,154.000" stroke-width="4.183" stroke="black" fill="none" stroke-linecap="round"></path><path d="M 215.500,154.000 C 217.302,151.758 217.600,152.110 219.500,150.000" stroke-width="4.164" stroke="black" fill="none" stroke-linecap="round"></path><path d="M 219.500,150.000 C 225.028,145.292 222.302,147.758 225.500,146.000" stroke-width="4.516" stroke="black" fill="none" stroke-linecap="round"></path><path d="M 225.500,146.000 C 223.611,149.569 226.028,146.792 221.500,153.000" stroke-width="4.836" stroke="black" fill="none" stroke-linecap="round"></path><path d="M 221.500,153.000 C 219.285,155.875 219.611,156.069 217.500,159.000" stroke-width="4.231" stroke="black" fill="none" stroke-linecap="round"></path><path d="M 217.500,159.000 C 215.373,162.943 215.285,162.875 213.500,167.000" stroke-width="4.345" stroke="black" fill="none" stroke-linecap="round"></path><path d="M 213.500,167.000 C 209.849,172.000 212.373,169.443 211.500,172.000" stroke-width="4.840" stroke="black" fill="none" stroke-linecap="round"></path><path d="M 211.500,172.000 C 219.572,170.592 216.349,172.000 226.500,167.000" stroke-width="4.975" stroke="black" fill="none" stroke-linecap="round"></path><path d="M 226.500,167.000 C 232.529,162.538 233.072,163.592 238.500,158.000" stroke-width="3.395" stroke="black" fill="none" stroke-linecap="round"></path><path d="M 238.500,158.000 C 245.122,153.151 245.029,153.038 251.500,148.000" stroke-width="2.938" stroke="black" fill="none" stroke-linecap="round"></path><path d="M 251.500,148.000 C 258.369,142.886 258.122,142.651 264.500,137.000" stroke-width="2.785" stroke="black" fill="none" stroke-linecap="round"></path><path d="M 264.500,137.000 C 270.658,130.639 270.869,130.886 276.500,124.000" stroke-width="2.922" stroke="black" fill="none" stroke-linecap="round"></path><path d="M 276.500,124.000 C 281.622,118.098 281.658,118.139 286.500,112.000" stroke-width="2.929" stroke="black" fill="none" stroke-linecap="round"></path><path d="M 286.500,112.000 C 291.898,105.768 291.622,105.598 296.500,99.000" stroke-width="2.821" stroke="black" fill="none" stroke-linecap="round"></path><path d="M 296.500,99.000 C 300.054,93.031 300.398,93.268 303.500,87.000" stroke-width="2.951" stroke="black" fill="none" stroke-linecap="round"></path><path d="M 303.500,87.000 C 306.000,82.500 306.054,82.531 308.500,78.000" stroke-width="3.317" stroke="black" fill="none" stroke-linecap="round"></path><path d="M 308.500,78.000 C 311.450,73.686 311.000,73.500 313.500,69.000" stroke-width="3.445" stroke="black" fill="none" stroke-linecap="round"></path><path d="M 313.500,69.000 C 314.618,65.529 314.950,65.686 315.500,62.000" stroke-width="3.729" stroke="black" fill="none" stroke-linecap="round"></path><path d="M 315.500,62.000 C 316.044,59.508 316.118,59.529 316.500,57.000" stroke-width="4.129" stroke="black" fill="none" stroke-linecap="round"></path><path d="M 316.500,57.000 C 318.571,49.929 317.044,54.008 317.500,51.000" stroke-width="4.544" stroke="black" fill="none" stroke-linecap="round"></path><path d="M 317.500,51.000 C 313.234,58.162 314.571,53.929 308.500,65.000" stroke-width="4.498" stroke="black" fill="none" stroke-linecap="round"></path><path d="M 308.500,65.000 C 304.073,71.056 304.234,71.162 299.500,77.000" stroke-width="3.323" stroke="black" fill="none" stroke-linecap="round"></path><path d="M 299.500,77.000 C 294.197,84.163 294.073,84.056 288.500,91.000" stroke-width="2.898" stroke="black" fill="none" stroke-linecap="round"></path><path d="M 288.500,91.000 C 281.167,98.733 281.697,99.163 274.500,107.000" stroke-width="2.607" stroke="black" fill="none" stroke-linecap="round"></path><path d="M 274.500,107.000 C 269.036,114.527 268.667,114.233 263.500,122.000" stroke-width="2.603" stroke="black" fill="none" stroke-linecap="round"></path><path d="M 263.500,122.000 C 259.038,128.029 259.036,128.027 254.500,134.000" stroke-width="2.861" stroke="black" fill="none" stroke-linecap="round"></path><path d="M 254.500,134.000 C 249.420,140.440 249.538,140.529 244.500,147.000" stroke-width="2.802" stroke="black" fill="none" stroke-linecap="round"></path><path d="M 244.500,147.000 C 240.399,152.430 240.420,152.440 236.500,158.000" stroke-width="3.021" stroke="black" fill="none" stroke-linecap="round"></path><path d="M 236.500,158.000 C 233.500,162.500 233.399,162.430 230.500,167.000" stroke-width="3.248" stroke="black" fill="none" stroke-linecap="round"></path><path d="M 230.500,167.000 C 227.564,171.544 227.500,171.500 224.500,176.000" stroke-width="3.323" stroke="black" fill="none" stroke-linecap="round"></path><path d="M 224.500,176.000 C 222.121,179.593 222.064,179.544 219.500,183.000" stroke-width="3.647" stroke="black" fill="none" stroke-linecap="round"></path><path d="M 219.500,183.000 C 212.732,188.679 217.121,186.093 214.500,189.000" stroke-width="4.279" stroke="black" fill="none" stroke-linecap="round"></path><path d="M 214.500,189.000 C 222.804,187.822 218.232,189.679 230.500,185.000" stroke-width="4.441" stroke="black" fill="none" stroke-linecap="round"></path><path d="M 230.500,185.000 C 237.365,181.199 237.804,182.322 244.500,178.000" stroke-width="3.262" stroke="black" fill="none" stroke-linecap="round"></path><path d="M 244.500,178.000 C 251.893,174.699 251.865,174.699 259.500,172.000" stroke-width="2.988" stroke="black" fill="none" stroke-linecap="round"></path><path d="M 259.500,172.000 C 267.453,169.336 267.393,169.199 275.500,167.000" stroke-width="2.877" stroke="black" fill="none" stroke-linecap="round"></path><path d="M 275.500,167.000 C 282.912,164.518 282.953,164.836 290.500,163.000" stroke-width="2.921" stroke="black" fill="none" stroke-linecap="round"></path><path d="M 290.500,163.000 C 295.491,162.313 295.412,162.018 300.500,162.000" stroke-width="3.325" stroke="black" fill="none" stroke-linecap="round"></path><path d="M 300.500,162.000 C 305.620,160.064 303.491,161.813 306.500,162.000" stroke-width="3.867" stroke="black" fill="none" stroke-linecap="round"></path><path d="M 306.500,162.000 C 308.711,169.113 308.120,165.564 305.500,173.000" stroke-width="4.346" stroke="black" fill="none" stroke-linecap="round"></path><path d="M 305.500,173.000 C 296.707,179.334 299.211,180.613 287.500,185.000" stroke-width="2.842" stroke="black" fill="none" stroke-linecap="round"></path><path d="M 287.500,185.000 C 277.343,191.704 277.207,191.334 266.500,197.000" stroke-width="2.457" stroke="black" fill="none" stroke-linecap="round"></path><path d="M 266.500,197.000 C 255.728,202.172 255.843,202.204 244.500,206.000" stroke-width="2.378" stroke="black" fill="none" stroke-linecap="round"></path><path d="M 244.500,206.000 C 233.686,210.055 233.728,209.672 222.500,212.000" stroke-width="2.395" stroke="black" fill="none" stroke-linecap="round"></path><path d="M 222.500,212.000 C 210.520,213.477 210.686,214.055 198.500,214.000" stroke-width="2.347" stroke="black" fill="none" stroke-linecap="round"></path><path d="M 198.500,214.000 C 187.500,214.000 187.520,214.477 176.500,214.000" stroke-width="2.362" stroke="black" fill="none" stroke-linecap="round"></path><path d="M 176.500,214.000 C 165.411,214.992 165.500,214.000 154.500,214.000" stroke-width="2.367" stroke="black" fill="none" stroke-linecap="round"></path><path d="M 154.500,214.000 C 143.359,212.586 143.411,212.992 132.500,210.000" stroke-width="2.410" stroke="black" fill="none" stroke-linecap="round"></path><path d="M 132.500,210.000 C 122.370,207.377 122.359,207.586 112.500,204.000" stroke-width="2.431" stroke="black" fill="none" stroke-linecap="round"></path><path d="M 112.500,204.000 C 103.284,200.967 103.370,200.877 94.500,197.000" stroke-width="2.569" stroke="black" fill="none" stroke-linecap="round"></path><path d="M 94.500,197.000 C 87.701,193.968 87.784,193.967 81.500,190.000" stroke-width="2.809" stroke="black" fill="none" stroke-linecap="round"></path><path d="M 81.500,190.000 C 74.582,186.350 75.201,185.968 69.500,181.000" stroke-width="2.874" stroke="black" fill="none" stroke-linecap="round"></path><path d="M 69.500,181.000 C 64.971,175.931 65.082,176.350 62.500,170.000" stroke-width="3.084" stroke="black" fill="none" stroke-linecap="round"></path><path d="M 62.500,170.000 C 59.726,163.565 59.971,163.931 59.500,157.000" stroke-width="3.131" stroke="black" fill="none" stroke-linecap="round"></path><path d="M 59.500,157.000 C 58.167,148.058 59.226,149.065 61.500,141.000" stroke-width="2.893" stroke="black" fill="none" stroke-linecap="round"></path><path d="M 61.500,141.000 C 67.856,129.891 66.667,130.058 76.500,121.000" stroke-width="2.366" stroke="black" fill="none" stroke-linecap="round"></path><path d="M 76.500,121.000 C 85.759,111.874 85.356,111.891 96.500,105.000" stroke-width="2.387" stroke="black" fill="none" stroke-linecap="round"></path><path d="M 96.500,105.000 C 110.930,95.673 110.759,95.874 126.500,89.000" stroke-width="1.943" stroke="black" fill="none" stroke-linecap="round"></path><path d="M 126.500,89.000 C 142.807,82.838 142.430,82.173 159.500,78.000" stroke-width="1.820" stroke="black" fill="none" stroke-linecap="round"></path><path d="M 159.500,78.000 C 177.342,72.731 177.307,72.838 195.500,69.000" stroke-width="1.730" stroke="black" fill="none" stroke-linecap="round"></path><path d="M 195.500,69.000 C 213.885,64.785 213.842,65.231 232.500,63.000" stroke-width="1.748" stroke="black" fill="none" stroke-linecap="round"></path><path d="M 232.500,63.000 C 250.497,62.273 250.385,61.285 268.500,62.000" stroke-width="1.787" stroke="black" fill="none" stroke-linecap="round"></path><path d="M 268.500,62.000 C 283.528,61.413 283.497,61.773 298.500,62.000" stroke-width="1.902" stroke="black" fill="none" stroke-linecap="round"></path><path d="M 298.500,62.000 C 309.327,61.775 309.028,62.413 319.500,64.000" stroke-width="2.291" stroke="black" fill="none" stroke-linecap="round"></path><path d="M 319.500,64.000 C 329.656,64.780 325.327,65.275 330.500,69.000" stroke-width="2.862" stroke="black" fill="none" stroke-linecap="round"></path><path d="M 330.500,69.000 C 329.558,78.925 331.656,74.780 323.500,84.000" stroke-width="3.428" stroke="black" fill="none" stroke-linecap="round"></path><path d="M 323.500,84.000 C 308.954,92.997 311.058,94.425 293.500,100.000" stroke-width="2.099" stroke="black" fill="none" stroke-linecap="round"></path><path d="M 293.500,100.000 C 276.531,106.582 276.954,107.497 259.500,113.000" stroke-width="1.817" stroke="black" fill="none" stroke-linecap="round"></path><path d="M 259.500,113.000 C 242.391,120.853 242.031,119.582 224.500,126.000" stroke-width="1.777" stroke="black" fill="none" stroke-linecap="round"></path><path d="M 224.500,126.000 C 205.655,131.032 205.891,131.353 186.500,134.000" stroke-width="1.680" stroke="black" fill="none" stroke-linecap="round"></path><path d="M 186.500,134.000 C 170.028,136.115 170.155,136.532 153.500,137.000" stroke-width="1.783" stroke="black" fill="none" stroke-linecap="round"></path><path d="M 153.500,137.000 C 142.000,137.000 142.028,137.615 130.500,137.000" stroke-width="2.169" stroke="black" fill="none" stroke-linecap="round"></path><path d="M 130.500,137.000 C 123.122,138.874 124.000,137.000 117.500,137.000" stroke-width="2.748" stroke="black" fill="none" stroke-linecap="round"></path><path d="M 319.500,162.000 C 322.980,161.220 323.000,161.500 326.500,161.000" stroke-width="5.044" stroke="black" fill="none" stroke-linecap="round"></path><path d="M 326.500,161.000 C 331.000,161.000 330.980,160.720 335.500,161.000" stroke-width="4.063" stroke="black" fill="none" stroke-linecap="round"></path><path d="M 335.500,161.000 C 343.030,161.482 343.000,161.000 350.500,161.000" stroke-width="3.246" stroke="black" fill="none" stroke-linecap="round"></path><path d="M 350.500,161.000 C 358.655,160.716 358.530,160.482 366.500,159.000" stroke-width="3.201" stroke="black" fill="none" stroke-linecap="round"></path><path d="M 366.500,159.000 C 374.680,156.966 374.655,157.216 382.500,154.000" stroke-width="2.869" stroke="black" fill="none" stroke-linecap="round"></path><path d="M 382.500,154.000 C 389.037,151.078 389.180,151.466 395.500,148.000" stroke-width="2.996" stroke="black" fill="none" stroke-linecap="round"></path><path d="M 395.500,148.000 C 399.360,145.592 399.537,146.078 403.500,144.000" stroke-width="3.448" stroke="black" fill="none" stroke-linecap="round"></path><path d="M 403.500,144.000 C 407.000,142.000 405.860,143.092 408.500,143.000" stroke-width="4.019" stroke="black" fill="none" stroke-linecap="round"></path><path d="M 408.500,143.000 C 409.967,145.667 410.000,144.000 409.500,148.000" stroke-width="4.593" stroke="black" fill="none" stroke-linecap="round"></path><path d="M 409.500,148.000 C 408.000,150.500 408.967,150.667 406.500,153.000" stroke-width="4.302" stroke="black" fill="none" stroke-linecap="round"></path><path d="M 406.500,153.000 C 402.513,156.224 405.000,155.500 403.500,158.000" stroke-width="4.222" stroke="black" fill="none" stroke-linecap="round"></path><path d="M 403.500,158.000 C 407.197,161.283 405.013,160.724 411.500,162.000" stroke-width="4.601" stroke="black" fill="none" stroke-linecap="round"></path><path d="M 411.500,162.000 C 419.576,162.767 419.197,163.283 427.500,162.000" stroke-width="3.260" stroke="black" fill="none" stroke-linecap="round"></path><path d="M 427.500,162.000 C 434.956,160.207 435.076,161.267 442.500,159.000" stroke-width="2.981" stroke="black" fill="none" stroke-linecap="round"></path><path d="M 442.500,159.000 C 454.631,157.574 447.456,158.207 452.500,158.000" stroke-width="3.348" stroke="black" fill="none" stroke-linecap="round"></path><path d="M 452.500,158.000 C 439.979,159.876 447.131,159.074 427.500,162.000" stroke-width="3.830" stroke="black" fill="none" stroke-linecap="round"></path><path d="M 427.500,162.000 C 416.549,164.319 416.479,163.876 405.500,166.000" stroke-width="2.655" stroke="black" fill="none" stroke-linecap="round"></path><path d="M 405.500,166.000 C 393.546,168.231 393.549,167.819 381.500,169.000" stroke-width="2.350" stroke="black" fill="none" stroke-linecap="round"></path><path d="M 381.500,169.000 C 369.986,169.466 370.046,169.731 358.500,169.000" stroke-width="2.378" stroke="black" fill="none" stroke-linecap="round"></path><path d="M 358.500,169.000 C 332.995,167.574 332.986,167.966 307.500,166.000" stroke-width="2.285" stroke="black" fill="none" stroke-linecap="round"></path><path d="M 307.500,166.000 C 292.516,164.518 292.495,165.074 277.500,164.000" stroke-width="2.102" stroke="black" fill="none" stroke-linecap="round"></path><path d="M 277.500,164.000 C 263.460,163.252 263.516,163.518 249.500,164.000" stroke-width="2.062" stroke="black" fill="none" stroke-linecap="round"></path><path d="M 249.500,164.000 C 235.072,163.562 235.460,164.752 221.500,167.000" stroke-width="2.045" stroke="black" fill="none" stroke-linecap="round"></path><path d="M 221.500,167.000 C 198.401,176.779 197.572,173.062 174.500,183.000" stroke-width="2.182" stroke="black" fill="none" stroke-linecap="round"></path><path d="M 174.500,183.000 C 161.516,184.780 161.901,186.279 148.500,186.000" stroke-width="2.773" stroke="black" fill="none" stroke-linecap="round"></path></svg>