<svg xmlns="http://www.w3.org/2000/svg" xmlns:xlink="http://www.w3.org/1999/xlink" viewBox="0 0 453 236" width="453" height="236"><path d="M 121.500,157.000 C 118.000,156.500 118.000,156.500 114.500,156.000" stroke-width="4.592" stroke="black" fill="none" stroke-linecap="round"></path><path d="M 114.500,156.000 C 110.788,156.096 111.000,155.500 107.500,155.000" stroke-width="4.668" stroke="black" fill="none" stroke-linecap="round"></path><path d="M 107.500,155.000 C 104.959,153.565 104.788,154.096 102.500,152.000" stroke-width="4.322" stroke="black" fill="none" stroke-linecap="round"></path><path d="M 102.500,152.000 C 99.302,150.242 99.459,150.065 96.500,148.000" stroke-width="4.001" stroke="black" fill="none" stroke-linecap="round"></path><path d="M 96.500,148.000 C 94.749,145.687 94.302,146.242 92.500,144.000" stroke-width="4.152" stroke="black" fill="none" stroke-linecap="round"></path><path d="M 92.500,144.000 C 83.646,140.922 88.749,141.187 84.500,139.000" stroke-width="4.325" stroke="black" fill="none" stroke-linecap="round"></path><path d="M 84.500,139.000 C 90.642,137.343 85.646,136.422 96.500,135.000" stroke-width="4.845" stroke="black" fill="none" stroke-linecap="round"></path><path d="M 96.500,135.000 C 100.635,133.238 100.642,133.343 104.500,131.000" stroke-width="4.029" stroke="black" fill="none" stroke-linecap="round"></path><path d="M 104.500,131.000 C 109.932,127.389 110.135,127.738 115.500,124.000" stroke-width="3.257" stroke="black" fill="none" stroke-linecap="round"></path><path d="M 115.500,124.000 C 121.776,120.903 121.432,120.389 127.500,117.000" stroke-width="3.251" stroke="black" fill="none" stroke-linecap="round"></path><path d="M 127.500,117.000 C 132.380,112.840 132.776,113.403 137.500,109.000" stroke-width="3.221" stroke="black" fill="none" stroke-linecap="round"></path><path d="M 137.500,109.000 C 142.500,105.500 142.380,105.340 147.500,102.000" stroke-width="3.200" stroke="black" fill="none" stroke-linecap="round"></path><path d="M 147.500,102.000 C 152.381,98.312 152.500,98.500 157.500,95.000" stroke-width="3.193" stroke="black" fill="none" stroke-linecap="round"></path><path d="M 157.500,95.000 C 161.018,93.031 160.881,92.812 164.500,91.000" stroke-width="3.605" stroke="black" fill="none" stroke-linecap="round"></path><path d="M 164.500,91.000 C 169.066,87.133 167.018,89.531 169.500,88.000" stroke-width="3.994" stroke="black" fill="none" stroke-linecap="round"></path><path d="M 169.500,88.000 C 168.757,91.991 170.066,89.133 166.500,95.000" stroke-width="4.533" stroke="black" fill="none" stroke-linecap="round"></path><path d="M 166.500,95.000 C 160.536,101.533 161.257,101.991 154.500,108.000" stroke-width="3.195" stroke="black" fill="none" stroke-linecap="round"></path><path d="M 154.500,108.000 C 146.629,116.625 146.536,116.533 138.500,125.000" stroke-width="2.633" stroke="black" fill="none" stroke-linecap="round"></path><path d="M 138.500,125.000 C 129.875,133.379 130.129,133.625 121.500,142.000" stroke-width="2.413" stroke="black" fill="none" stroke-linecap="round"></path><path d="M 121.500,142.000 C 113.250,151.250 112.875,150.879 104.500,160.000" stroke-width="2.326" stroke="black" fill="none" stroke-linecap="round"></path><path d="M 104.500,160.000 C 96.147,168.163 96.250,168.250 87.500,176.000" stroke-width="2.357" stroke="black" fill="none" stroke-linecap="round"></path><path d="M 87.500,176.000 C 80.346,182.965 80.147,182.663 72.500,189.000" stroke-width="2.462" stroke="black" fill="none" stroke-linecap="round"></path><path d="M 72.500,189.000 C 67.250,192.988 67.346,192.965 61.500,196.000" stroke-width="2.876" stroke="black" fill="none" stroke-linecap="round"></path><path d="M 61.500,196.000 C 56.519,198.048 56.750,198.488 51.500,200.000" stroke-width="3.200" stroke="black" fill="none" stroke-linecap="round"></path><path d="M 51.500,200.000 C 47.589,201.832 47.519,201.548 43.500,203.000" stroke-width="3.562" stroke="black" fill="none" stroke-linecap="round"></path><path d="M 43.500,203.000 C 40.522,203.768 40.589,203.832 37.500,204.000" stroke-width="3.907" stroke="black" fill="none" stroke-linecap="round"></path><path d="M 37.500,204.000 C 31.518,206.035 34.022,204.268 30.500,204.000" stroke-width="4.408" stroke="black" fill="none" stroke-linecap="round"></path><path d="M 30.500,204.000 C 29.612,197.952 29.018,201.035 32.500,194.000" stroke-width="4.567" stroke="black" fill="none" stroke-linecap="round"></path><path d="M 32.500,194.000 C 40.430,185.256 39.112,184.952 49.500,178.000" stroke-width="3.629" stroke="black" fill="none" stroke-linecap="round"></path><path d="M 49.500,178.000 C 55.835,173.703 55.430,173.256 62.500,170.000" stroke-width="3.198" stroke="black" fill="none" stroke-linecap="round"></path><path d="M 62.500,170.000 C 69.453,166.402 69.335,166.203 76.500,163.000" stroke-width="2.941" stroke="black" fill="none" stroke-linecap="round"></path><path d="M 76.500,163.000 C 83.873,159.198 83.953,159.402 91.500,156.000" stroke-width="2.877" stroke="black" fill="none" stroke-linecap="round"></path><path d="M 91.500,156.000 C 99.533,153.084 99.373,152.698 107.500,150.000" stroke-width="2.826" stroke="black" fill="none" stroke-linecap="round"></path><path d="M 107.500,150.000 C 114.928,146.804 115.033,147.084 122.500,144.000" stroke-width="2.807" stroke="black" fill="none" stroke-linecap="round"></path><path d="M 122.500,144.000 C 128.481,141.942 128.428,141.804 134.500,140.000" stroke-width="3.033" stroke="black" fill="none" stroke-linecap="round"></path><path d="M 134.500,140.000 C 144.052,137.149 143.981,136.942 153.500,134.000" stroke-width="3.350" stroke="black" fill="none" stroke-linecap="round"></path><path d="M 153.500,134.000 C 161.500,131.775 157.552,132.649 161.500,131.000" stroke-width="4.062" stroke="black" fill="none" stroke-linecap="round"></path><path d="M 161.500,131.000 C 157.484,130.751 161.500,130.275 153.500,131.000" stroke-width="4.583" stroke="black" fill="none" stroke-linecap="round"></path><path d="M 153.500,131.000 C 149.357,130.972 149.484,131.251 145.500,132.000" stroke-width="4.017" stroke="black" fill="none" stroke-linecap="round"></path><path d="M 145.500,132.000 C 141.902,133.299 141.857,132.972 138.500,135.000" stroke-width="3.924" stroke="black" fill="none" stroke-linecap="round"></path><path d="M 138.500,135.000 C 133.936,137.391 133.902,137.299 129.500,140.000" stroke-width="3.620" stroke="black" fill="none" stroke-linecap="round"></path><path d="M 129.500,140.000 C 125.383,142.330 125.436,142.391 121.500,145.000" stroke-width="3.836" stroke="black" fill="none" stroke-linecap="round"></path><path d="M 121.500,145.000 C 117.532,148.043 117.383,147.830 113.500,151.000" stroke-width="3.566" stroke="black" fill="none" stroke-linecap="round"></path><path d="M 113.500,151.000 C 109.818,153.285 110.032,153.543 106.500,156.000" stroke-width="3.630" stroke="black" fill="none" stroke-linecap="round"></path><path d="M 106.500,156.000 C 104.037,157.695 104.318,157.785 102.500,160.000" stroke-width="4.024" stroke="black" fill="none" stroke-linecap="round"></path><path d="M 102.500,160.000 C 98.902,163.983 101.037,162.195 100.500,165.000" stroke-width="4.572" stroke="black" fill="none" stroke-linecap="round"></path><path d="M 100.500,165.000 C 106.967,166.432 104.402,167.483 113.500,167.000" stroke-width="4.475" stroke="black" fill="none" stroke-linecap="round"></path><path d="M 113.500,167.000 C 118.543,167.472 118.467,167.432 123.500,167.000" stroke-width="3.714" stroke="black" fill="none" stroke-linecap="round"></path><path d="M 123.500,167.000 C 129.313,166.886 129.043,166.472 134.500,165.000" stroke-width="3.484" stroke="black" fill="none" stroke-linecap="round"></path><path d="M 134.500,165.000 C 140.217,162.337 140.313,162.886 145.500,159.000" stroke-width="3.308" stroke="black" fill="none" stroke-linecap="round"></path><path d="M 145.500,159.000 C 149.850,156.369 149.717,156.337 153.500,153.000" stroke-width="3.468" stroke="black" fill="none" stroke-linecap="round"></path><path d="M 153.500,153.000 C 156.590,150.343 156.350,150.369 158.500,147.000" stroke-width="3.681" stroke="black" fill="none" stroke-linecap="round"></path><path d="M 158.500,147.000 C 163.245,140.963 160.590,143.343 161.500,139.000" stroke-width="4.199" stroke="black" fill="none" stroke-linecap="round"></path><path d="M 161.500,139.000 C 155.560,136.876 159.245,136.463 150.500,138.000" stroke-width="4.487" stroke="black" fill="none" stroke-linecap="round"></path><path d="M 150.500,138.000 C 146.772,140.231 146.560,138.876 143.500,143.000" stroke-width="3.873" stroke="black" fill="none" stroke-linecap="round"></path><path d="M 143.500,143.000 C 140.500,146.000 140.272,145.731 137.500,149.000" stroke-width="3.788" stroke="black" fill="none" stroke-linecap="round"></path><path d="M 137.500,149.000 C 135.101,150.713 135.500,151.000 133.500,153.000" stroke-width="4.038" stroke="black" fill="none" stroke-linecap="round"></path><path d="M 133.500,153.000 C 129.219,157.719 131.601,155.713 130.500,159.000" stroke-width="4.464" stroke="black" fill="none" stroke-linecap="round"></path><path d="M 130.500,159.000 C 135.302,160.166 132.219,160.719 139.500,159.000" stroke-width="4.672" stroke="black" fill="none" stroke-linecap="round"></path><path d="M 139.500,159.000 C 144.226,156.849 144.302,157.666 148.500,154.000" stroke-width="3.787" stroke="black" fill="none" stroke-linecap="round"></path><path d="M 148.500,154.000 C 154.415,149.381 154.726,149.849 160.500,145.000" stroke-width="3.122" stroke="black" fill="none" stroke-linecap="round"></path><path d="M 160.500,145.000 C 167.241,140.815 166.915,140.381 173.500,136.000" stroke-width="2.911" stroke="black" fill="none" stroke-linecap="round"></path><path d="M 173.500,136.000 C 180.249,130.770 180.241,130.815 186.500,125.000" stroke-width="2.778" stroke="black" fill="none" stroke-linecap="round"></path><path d="M 186.500,125.000 C 192.870,118.365 193.249,118.770 199.500,112.000" stroke-width="2.834" stroke="black" fill="none" stroke-linecap="round"></path><path d="M 199.500,112.000 C 205.751,106.749 205.370,106.365 211.500,101.000" stroke-width="2.862" stroke="black" fill="none" stroke-linecap="round"></path><path d="M 211.500,101.000 C 216.398,95.402 216.751,95.749 221.500,90.000" stroke-width="2.899" stroke="black" fill="none" stroke-linecap="round"></path><path d="M 221.500,90.000 C 225.146,86.633 224.898,86.402 228.500,83.000" stroke-width="3.280" stroke="black" fill="none" stroke-linecap="round"></path><path d="M 228.500,83.000 C 234.746,78.246 231.146,80.133 233.500,77.000" stroke-width="3.662" stroke="black" fill="none" stroke-linecap="round"></path><path d="M 233.500,77.000 C 227.470,75.115 231.746,75.246 222.500,77.000" stroke-width="4.409" stroke="black" fill="none" stroke-linecap="round"></path><path d="M 222.500,77.000 C 213.231,82.100 212.970,80.615 204.500,88.000" stroke-width="2.883" stroke="black" fill="none" stroke-linecap="round"></path><path d="M 204.500,88.000 C 194.707,94.635 194.731,94.600 185.500,102.000" stroke-width="2.427" stroke="black" fill="none" stroke-linecap="round"></path><path d="M 185.500,102.000 C 176.839,108.379 177.207,108.635 169.500,116.000" stroke-width="2.419" stroke="black" fill="none" stroke-linecap="round"></path><path d="M 169.500,116.000 C 164.162,122.267 163.839,121.879 159.500,129.000" stroke-width="2.713" stroke="black" fill="none" stroke-linecap="round"></path><path d="M 159.500,129.000 C 155.018,135.257 155.162,135.267 151.500,142.000" stroke-width="2.827" stroke="black" fill="none" stroke-linecap="round"></path><path d="M 151.500,142.000 C 149.009,146.869 149.018,146.757 147.500,152.000" stroke-width="3.232" stroke="black" fill="none" stroke-linecap="round"></path><path d="M 147.500,152.000 C 146.770,155.484 146.509,155.369 146.500,159.000" stroke-width="3.673" stroke="black" fill="none" stroke-linecap="round"></path><path d="M 146.500,159.000 C 145.000,163.500 146.270,161.984 146.500,165.000" stroke-width="4.372" stroke="black" fill="none" stroke-linecap="round"></path><path d="M 146.500,165.000 C 149.785,166.056 148.000,166.500 152.500,165.000" stroke-width="4.220" stroke="black" fill="none" stroke-linecap="round"></path><path d="M 152.500,165.000 C 158.975,162.144 158.785,162.556 164.500,158.000" stroke-width="3.364" stroke="black" fill="none" stroke-linecap="round"></path><path d="M 164.500,158.000 C 170.273,152.230 170.975,153.144 176.500,147.000" stroke-width="2.939" stroke="black" fill="none" stroke-linecap="round"></path><path d="M 176.500,147.000 C 182.977,141.970 182.773,141.730 189.500,137.000" stroke-width="2.885" stroke="black" fill="none" stroke-linecap="round"></path><path d="M 189.500,137.000 C 193.570,134.088 193.477,133.970 197.500,131.000" stroke-width="3.315" stroke="black" fill="none" stroke-linecap="round"></path><path d="M 197.500,131.000 C 200.172,127.815 200.570,128.588 203.500,126.000" stroke-width="3.718" stroke="black" fill="none" stroke-linecap="round"></path><path d="M 203.500,126.000 C 209.502,123.887 205.672,124.815 208.500,125.000" stroke-width="4.469" stroke="black" fill="none" stroke-linecap="round"></path><path d="M 208.500,125.000 C 201.527,130.535 205.002,128.887 194.500,136.000" stroke-width="3.895" stroke="black" fill="none" stroke-linecap="round"></path><path d="M 194.500,136.000 C 187.843,140.810 188.027,141.035 181.500,146.000" stroke-width="3.110" stroke="black" fill="none" stroke-linecap="round"></path><path d="M 181.500,146.000 C 177.070,150.083 176.843,149.810 172.500,154.000" stroke-width="3.236" stroke="black" fill="none" stroke-linecap="round"></path><path d="M 172.500,154.000 C 166.040,158.000 170.070,156.083 167.500,158.000" stroke-width="3.787" stroke="black" fill="none" stroke-linecap="round"></path><path d="M 167.500,158.000 C 175.502,157.079 171.040,158.000 182.500,154.000" stroke-width="4.301" stroke="black" fill="none" stroke-linecap="round"></path><path d="M 182.500,154.000 C 187.500,150.500 188.002,151.579 192.500,147.000" stroke-width="3.648" stroke="black" fill="none" stroke-linecap="round"></path><path d="M 192.500,147.000 C 197.337,143.227 197.500,143.500 202.500,140.000" stroke-width="3.378" stroke="black" fill="none" stroke-linecap="round"></path><path d="M 202.500,140.000 C 208.281,136.124 205.337,138.227 208.500,137.000" stroke-width="3.852" stroke="black" fill="none" stroke-linecap="round"></path><path d="M 208.500,137.000 C 206.290,140.745 208.781,138.124 203.500,144.000" stroke-width="4.509" stroke="black" fill="none" stroke-linecap="round"></path><path d="M 203.500,144.000 C 199.840,147.357 200.290,147.745 196.500,151.000" stroke-width="3.796" stroke="black" fill="none" stroke-linecap="round"></path><path d="M 196.500,151.000 C 194.130,153.284 194.340,153.357 192.500,156.000" stroke-width="3.994" stroke="black" fill="none" stroke-linecap="round"></path><path d="M 192.500,156.000 C 189.293,159.994 191.130,158.284 190.500,161.000" stroke-width="4.535" stroke="black" fill="none" stroke-linecap="round"></path><path d="M 190.500,161.000 C 194.716,161.996 192.293,162.494 198.500,161.000" stroke-width="4.530" stroke="black" fill="none" stroke-linecap="round"></path><path d="M 198.500,161.000 C 203.884,158.184 204.216,159.496 209.500,156.000" stroke-width="3.583" stroke="black" fill="none" stroke-linecap="round"></path><path d="M 209.500,156.000 C 212.971,154.882 212.884,154.684 216.500,154.000" stroke-width="3.868" stroke="black" fill="none" stroke-linecap="round"></path><path d="M 216.500,154.000 C 222.072,151.856 218.971,153.382 221.500,153.000" stroke-width="4.138" stroke="black" fill="none" stroke-linecap="round"></path><path d="M 221.500,153.000 C 217.288,157.851 220.072,155.856 212.500,162.000" stroke-width="4.533" stroke="black" fill="none" stroke-linecap="round"></path><path d="M 212.500,162.000 C 205.900,166.400 209.788,164.351 206.500,166.000" stroke-width="4.608" stroke="black" fill="none" stroke-linecap="round"></path><path d="M 206.500,166.000 C 211.236,163.316 207.400,165.400 215.500,160.000" stroke-width="4.406" stroke="black" fill="none" stroke-linecap="round"></path><path d="M 215.500,160.000 C 224.624,152.644 224.736,152.816 233.500,145.000" stroke-width="2.890" stroke="black" fill="none" stroke-linecap="round"></path><path d="M 233.500,145.000 C 242.742,137.257 242.624,137.144 251.500,129.000" stroke-width="2.472" stroke="black" fill="none" stroke-linecap="round"></path><path d="M 251.500,129.000 C 260.121,120.618 260.242,120.757 268.500,112.000" stroke-width="2.480" stroke="black" fill="none" stroke-linecap="round"></path><path d="M 268.500,112.000 C 277.515,102.514 277.621,102.618 286.500,93.000" stroke-width="2.227" stroke="black" fill="none" stroke-linecap="round"></path><path d="M 286.500,93.000 C 294.841,84.794 294.515,84.514 302.500,76.000" stroke-width="2.378" stroke="black" fill="none" stroke-linecap="round"></path><path d="M 302.500,76.000 C 308.161,69.119 308.341,69.294 313.500,62.000" stroke-width="2.570" stroke="black" fill="none" stroke-linecap="round"></path><path d="M 313.500,62.000 C 317.421,57.234 317.161,57.119 320.500,52.000" stroke-width="3.025" stroke="black" fill="none" stroke-linecap="round"></path><path d="M 320.500,52.000 C 324.975,45.000 322.421,48.734 323.500,45.000" stroke-width="3.580" stroke="black" fill="none" stroke-linecap="round"></path><path d="M 323.500,45.000 C 317.247,47.619 320.975,45.000 312.500,52.000" stroke-width="4.166" stroke="black" fill="none" stroke-linecap="round"></path><path d="M 312.500,52.000 C 305.273,60.756 304.247,59.619 297.500,69.000" stroke-width="2.759" stroke="black" fill="none" stroke-linecap="round"></path><path d="M 297.500,69.000 C 288.276,77.785 288.773,78.256 279.500,87.000" stroke-width="2.444" stroke="black" fill="none" stroke-linecap="round"></path><path d="M 279.500,87.000 C 268.277,98.804 268.276,98.785 257.500,111.000" stroke-width="2.172" stroke="black" fill="none" stroke-linecap="round"></path><path d="M 257.500,111.000 C 249.833,120.805 249.277,120.304 241.500,130.000" stroke-width="2.250" stroke="black" fill="none" stroke-linecap="round"></path><path d="M 241.500,130.000 C 234.510,136.089 235.333,136.805 228.500,143.000" stroke-width="2.495" stroke="black" fill="none" stroke-linecap="round"></path><path d="M 228.500,143.000 C 224.622,147.796 224.510,147.589 221.500,153.000" stroke-width="3.119" stroke="black" fill="none" stroke-linecap="round"></path><path d="M 221.500,153.000 C 217.588,157.899 220.122,155.296 219.500,158.000" stroke-width="3.845" stroke="black" fill="none" stroke-linecap="round"></path><path d="M 219.500,158.000 C 230.567,157.566 227.088,158.399 240.500,154.000" stroke-width="3.533" stroke="black" fill="none" stroke-linecap="round"></path><path d="M 240.500,154.000 C 249.462,148.930 250.067,150.566 258.500,144.000" stroke-width="2.777" stroke="black" fill="none" stroke-linecap="round"></path><path d="M 258.500,144.000 C 265.983,139.967 265.962,139.930 273.500,136.000" stroke-width="3.393" stroke="black" fill="none" stroke-linecap="round"></path><path d="M 273.500,136.000 C 283.727,129.389 283.983,130.467 294.500,125.000" stroke-width="2.517" stroke="black" fill="none" stroke-linecap="round"></path><path d="M 294.500,125.000 C 300.016,123.791 297.227,123.889 300.500,125.000" stroke-width="3.774" stroke="black" fill="none" stroke-linecap="round"></path><path d="M 300.500,125.000 C 298.912,127.917 301.016,126.291 296.500,130.000" stroke-width="3.941" stroke="black" fill="none" stroke-linecap="round"></path><path d="M 296.500,130.000 C 287.968,137.688 287.912,137.417 278.500,144.000" stroke-width="2.721" stroke="black" fill="none" stroke-linecap="round"></path><path d="M 278.500,144.000 C 265.320,152.596 265.468,152.688 251.500,160.000" stroke-width="2.214" stroke="black" fill="none" stroke-linecap="round"></path><path d="M 251.500,160.000 C 237.252,167.576 237.320,167.596 222.500,174.000" stroke-width="2.017" stroke="black" fill="none" stroke-linecap="round"></path><path d="M 222.500,174.000 C 206.340,181.560 206.252,181.076 189.500,187.000" stroke-width="1.877" stroke="black" fill="none" stroke-linecap="round"></path><path d="M 189.500,187.000 C 173.727,192.465 173.840,192.060 157.500,195.000" stroke-width="1.849" stroke="black" fill="none" stroke-linecap="round"></path><path d="M 157.500,195.000 C 141.511,196.746 141.727,197.465 125.500,197.000" stroke-width="2.013" stroke="black" fill="none" stroke-linecap="round"></path><path d="M 125.500,197.000 C 109.472,198.879 110.011,197.246 94.500,196.000" stroke-width="1.943" stroke="black" fill="none" stroke-linecap="round"></path><path d="M 94.500,196.000 C 83.311,192.680 83.472,193.879 73.500,187.000" stroke-width="2.190" stroke="black" fill="none" stroke-linecap="round"></path><path d="M 73.500,187.000 C 63.968,181.468 64.311,181.680 56.500,174.000" stroke-width="2.392" stroke="black" fill="none" stroke-linecap="round"></path><path d="M 56.500,174.000 C 50.703,168.610 51.468,168.968 48.500,162.000" stroke-width="2.762" stroke="black" fill="none" stroke-linecap="round"></path><path d="M 48.500,162.000 C 45.873,154.117 46.203,155.110 47.500,147.000" stroke-width="2.967" stroke="black" fill="none" stroke-linecap="round"></path><path d="M 47.500,147.000 C 49.669,135.237 49.873,136.617 56.500,127.000" stroke-width="2.524" stroke="black" fill="none" stroke-linecap="round"></path><path d="M 56.500,127.000 C 68.253,115.462 66.669,114.737 81.500,106.000" stroke-width="2.011" stroke="black" fill="none" stroke-linecap="round"></path><path d="M 81.500,106.000 C 96.330,95.199 96.253,95.462 112.500,87.000" stroke-width="1.797" stroke="black" fill="none" stroke-linecap="round"></path><path d="M 112.500,87.000 C 131.908,76.704 131.830,77.199 152.500,70.000" stroke-width="1.589" stroke="black" fill="none" stroke-linecap="round"></path><path d="M 152.500,70.000 C 175.196,62.471 174.908,62.704 198.500,59.000" stroke-width="1.516" stroke="black" fill="none" stroke-linecap="round"></path><path d="M 198.500,59.000 C 222.478,56.783 222.196,55.471 246.500,56.000" stroke-width="1.436" stroke="black" fill="none" stroke-linecap="round"></path><path d="M 246.500,56.000 C 268.933,53.162 268.478,55.283 290.500,56.000" stroke-width="1.526" stroke="black" fill="none" stroke-linecap="round"></path><path d="M 290.500,56.000 C 307.075,59.704 306.933,58.162 322.500,66.000" stroke-width="1.719" stroke="black" fill="none" stroke-linecap="round"></path><path d="M 322.500,66.000 C 333.163,69.346 331.575,69.704 339.500,76.000" stroke-width="2.255" stroke="black" fill="none" stroke-linecap="round"></path><path d="M 339.500,76.000 C 345.040,82.626 343.163,79.846 342.500,87.000" stroke-width="2.889" stroke="black" fill="none" stroke-linecap="round"></path><path d="M 342.500,87.000 C 333.520,99.187 336.040,98.126 321.500,107.000" stroke-width="2.203" stroke="black" fill="none" stroke-linecap="round"></path><path d="M 321.500,107.000 C 302.669,118.224 303.520,118.687 282.500,126.000" stroke-width="1.836" stroke="black" fill="none" stroke-linecap="round"></path><path d="M 282.500,126.000 C 260.759,133.559 261.169,134.224 238.500,139.000" stroke-width="1.551" stroke="black" fill="none" stroke-linecap="round"></path><path d="M 238.500,139.000 C 215.551,143.783 215.759,144.559 192.500,148.000" stroke-width="1.465" stroke="black" fill="none" stroke-linecap="round"></path><path d="M 192.500,148.000 C 174.595,151.924 174.551,151.283 156.500,154.000" stroke-width="1.720" stroke="black" fill="none" stroke-linecap="round"></path><path d="M 156.500,154.000 C 144.004,154.687 144.095,155.424 131.500,155.000" stroke-width="2.074" stroke="black" fill="none" stroke-linecap="round"></path><path d="M 131.500,155.000 C 123.701,156.080 124.004,155.187 116.500,155.000" stroke-width="2.593" stroke="black" fill="none" stroke-linecap="round"></path><path d="M 300.500,153.000 C 304.306,150.699 304.500,151.500 308.500,150.000" stroke-width="4.022" stroke="black" fill="none" stroke-linecap="round"></path><path d="M 308.500,150.000 C 325.478,147.792 325.306,147.199 342.500,146.000" stroke-width="2.149" stroke="black" fill="none" stroke-linecap="round"></path><path d="M 342.500,146.000 C 363.524,144.208 363.478,143.792 384.500,142.000" stroke-width="2.363" stroke="black" fill="none" stroke-linecap="round"></path><path d="M 384.500,142.000 C 392.103,141.479 392.024,141.208 399.500,140.000" stroke-width="2.809" stroke="black" fill="none" stroke-linecap="round"></path><path d="M 399.500,140.000 C 404.461,138.344 404.603,138.979 409.500,137.000" stroke-width="3.250" stroke="black" fill="none" stroke-linecap="round"></path><path d="M 409.500,137.000 C 415.884,136.115 411.961,136.344 414.500,136.000" stroke-width="3.998" stroke="black" fill="none" stroke-linecap="round"></path><path d="M 414.500,136.000 C 405.927,135.157 409.884,135.615 397.500,136.000" stroke-width="4.300" stroke="black" fill="none" stroke-linecap="round"></path><path d="M 397.500,136.000 C 385.969,137.836 385.927,137.157 374.500,140.000" stroke-width="2.739" stroke="black" fill="none" stroke-linecap="round"></path><path d="M 374.500,140.000 C 359.558,143.328 359.469,142.836 344.500,146.000" stroke-width="2.184" stroke="black" fill="none" stroke-linecap="round"></path><path d="M 344.500,146.000 C 328.573,149.109 328.558,148.828 312.500,151.000" stroke-width="1.947" stroke="black" fill="none" stroke-linecap="round"></path><path d="M 312.500,151.000 C 294.476,152.252 294.573,153.109 276.500,154.000" stroke-width="2.110" stroke="black" fill="none" stroke-linecap="round"></path><path d="M 276.500,154.000 C 258.543,156.517 258.476,155.752 240.500,158.000" stroke-width="1.880" stroke="black" fill="none" stroke-linecap="round"></path><path d="M 240.500,158.000 C 221.955,158.462 222.043,159.517 203.500,160.000" stroke-width="1.748" stroke="black" fill="none" stroke-linecap="round"></path><path d="M 203.500,160.000 C 185.764,160.747 185.955,161.462 168.500,164.000" stroke-width="1.754" stroke="black" fill="none" stroke-linecap="round"></path><path d="M 168.500,164.000 C 151.152,167.449 151.264,167.247 134.500,173.000" stroke-width="1.757" stroke="black" fill="none" stroke-linecap="round"></path><path d="M 134.500,173.000 C 116.709,179.352 116.652,178.949 99.500,187.000" stroke-width="1.700" stroke="black" fill="none" stroke-linecap="round"></path></svg>