<svg xmlns="http://www.w3.org/2000/svg" xmlns:xlink="http://www.w3.org/1999/xlink" viewBox="0 0 1460 583" width="1460" height="583"><path d="M 642.000,333.000 C 639.429,332.747 639.500,332.500 637.000,332.000" stroke-width="5.194" stroke="black" fill="none" stroke-linecap="round"></path><path d="M 637.000,332.000 C 633.163,329.861 632.929,330.747 629.000,329.000" stroke-width="4.086" stroke="black" fill="none" stroke-linecap="round"></path><path d="M 629.000,329.000 C 618.423,327.861 618.663,326.861 608.000,326.000" stroke-width="2.756" stroke="black" fill="none" stroke-linecap="round"></path><path d="M 608.000,326.000 C 604.512,324.958 604.423,325.361 601.000,324.000" stroke-width="3.489" stroke="black" fill="none" stroke-linecap="round"></path><path d="M 601.000,324.000 C 593.488,322.042 593.512,321.958 586.000,320.000" stroke-width="3.086" stroke="black" fill="none" stroke-linecap="round"></path><path d="M 586.000,320.000 C 576.920,317.745 576.988,317.542 568.000,315.000" stroke-width="2.725" stroke="black" fill="none" stroke-linecap="round"></path><path d="M 568.000,315.000 C 563.965,313.586 563.920,313.745 560.000,312.000" stroke-width="3.322" stroke="black" fill="none" stroke-linecap="round"></path><path d="M 560.000,312.000 C 556.456,310.595 556.465,310.586 553.000,309.000" stroke-width="3.650" stroke="black" fill="none" stroke-linecap="round"></path><path d="M 553.000,309.000 C 546.362,306.851 549.956,307.595 547.000,306.000" stroke-width="3.910" stroke="black" fill="none" stroke-linecap="round"></path><path d="M 547.000,306.000 C 551.807,306.573 547.862,304.851 556.000,305.000" stroke-width="4.802" stroke="black" fill="none" stroke-linecap="round"></path><path d="M 556.000,305.000 C 567.601,299.700 567.807,300.573 579.000,294.000" stroke-width="2.596" stroke="black" fill="none" stroke-linecap="round"></path><path d="M 579.000,294.000 C 587.039,288.414 587.601,289.700 596.000,285.000" stroke-width="2.567" stroke="black" fill="none" stroke-linecap="round"></path><path d="M 596.000,285.000 C 620.225,280.071 618.539,276.414 642.000,270.000" stroke-width="1.619" stroke="black" fill="none" stroke-linecap="round"></path><path d="M 642.000,270.000 C 658.733,258.552 660.225,261.571 676.000,248.000" stroke-width="1.650" stroke="black" fill="none" stroke-linecap="round"></path><path d="M 676.000,248.000 C 685.876,242.264 685.733,242.052 696.000,237.000" stroke-width="2.112" stroke="black" fill="none" stroke-linecap="round"></path><path d="M 696.000,237.000 C 710.923,229.335 710.876,229.264 726.000,222.000" stroke-width="1.896" stroke="black" fill="none" stroke-linecap="round"></path><path d="M 726.000,222.000 C 729.485,220.464 729.423,220.335 733.000,219.000" stroke-width="2.925" stroke="black" fill="none" stroke-linecap="round"></path><path d="M 733.000,219.000 C 738.641,215.718 735.485,217.964 738.000,217.000" stroke-width="4.043" stroke="black" fill="none" stroke-linecap="round"></path><path d="M 738.000,217.000 C 732.794,222.837 736.141,220.718 728.000,229.000" stroke-width="4.649" stroke="black" fill="none" stroke-linecap="round"></path><path d="M 728.000,229.000 C 719.725,241.615 718.794,240.837 710.000,253.000" stroke-width="2.447" stroke="black" fill="none" stroke-linecap="round"></path><path d="M 710.000,253.000 C 697.806,264.394 699.225,265.615 687.000,277.000" stroke-width="2.039" stroke="black" fill="none" stroke-linecap="round"></path><path d="M 687.000,277.000 C 671.707,296.669 670.806,295.894 656.000,316.000" stroke-width="1.572" stroke="black" fill="none" stroke-linecap="round"></path><path d="M 656.000,316.000 C 644.638,327.844 645.707,328.669 635.000,341.000" stroke-width="1.651" stroke="black" fill="none" stroke-linecap="round"></path><path d="M 635.000,341.000 C 612.628,370.649 613.138,370.844 593.000,402.000" stroke-width="1.179" stroke="black" fill="none" stroke-linecap="round"></path><path d="M 593.000,402.000 C 579.890,430.477 576.628,428.149 563.000,456.000" stroke-width="1.164" stroke="black" fill="none" stroke-linecap="round"></path><path d="M 563.000,456.000 C 554.702,462.283 557.390,464.477 548.000,470.000" stroke-width="1.878" stroke="black" fill="none" stroke-linecap="round"></path><path d="M 548.000,470.000 C 539.724,482.656 538.202,481.283 530.000,494.000" stroke-width="1.876" stroke="black" fill="none" stroke-linecap="round"></path><path d="M 530.000,494.000 C 524.690,500.637 524.724,500.156 518.000,505.000" stroke-width="2.478" stroke="black" fill="none" stroke-linecap="round"></path><path d="M 518.000,505.000 C 512.625,507.520 513.190,508.137 507.000,509.000" stroke-width="2.919" stroke="black" fill="none" stroke-linecap="round"></path><path d="M 507.000,509.000 C 503.013,509.713 503.125,510.020 499.000,510.000" stroke-width="3.449" stroke="black" fill="none" stroke-linecap="round"></path><path d="M 499.000,510.000 C 496.000,510.000 496.013,510.213 493.000,510.000" stroke-width="3.875" stroke="black" fill="none" stroke-linecap="round"></path><path d="M 493.000,510.000 C 489.282,511.268 490.000,510.000 487.000,510.000" stroke-width="4.440" stroke="black" fill="none" stroke-linecap="round"></path><path d="M 487.000,510.000 C 483.705,507.656 484.782,508.768 484.000,505.000" stroke-width="4.948" stroke="black" fill="none" stroke-linecap="round"></path><path d="M 484.000,505.000 C 484.459,496.904 484.705,498.656 489.000,492.000" stroke-width="3.408" stroke="black" fill="none" stroke-linecap="round"></path><path d="M 489.000,492.000 C 498.818,484.728 496.959,483.404 509.000,478.000" stroke-width="2.485" stroke="black" fill="none" stroke-linecap="round"></path><path d="M 509.000,478.000 C 527.492,467.202 526.818,466.228 545.000,455.000" stroke-width="1.732" stroke="black" fill="none" stroke-linecap="round"></path><path d="M 545.000,455.000 C 559.498,442.784 560.492,444.202 575.000,432.000" stroke-width="1.741" stroke="black" fill="none" stroke-linecap="round"></path><path d="M 575.000,432.000 C 596.389,421.819 593.998,418.784 614.000,407.000" stroke-width="1.573" stroke="black" fill="none" stroke-linecap="round"></path><path d="M 614.000,407.000 C 636.258,385.694 637.389,387.319 657.000,363.000" stroke-width="1.260" stroke="black" fill="none" stroke-linecap="round"></path><path d="M 657.000,363.000 C 678.840,339.097 678.758,339.194 699.000,314.000" stroke-width="1.198" stroke="black" fill="none" stroke-linecap="round"></path><path d="M 699.000,314.000 C 702.051,307.704 703.340,308.597 706.000,302.000" stroke-width="2.098" stroke="black" fill="none" stroke-linecap="round"></path><path d="M 706.000,302.000 C 715.799,288.340 715.551,288.204 726.000,275.000" stroke-width="1.891" stroke="black" fill="none" stroke-linecap="round"></path><path d="M 726.000,275.000 C 728.752,271.248 728.799,271.340 732.000,268.000" stroke-width="2.819" stroke="black" fill="none" stroke-linecap="round"></path><path d="M 732.000,268.000 C 734.830,265.265 734.752,265.248 738.000,263.000" stroke-width="3.429" stroke="black" fill="none" stroke-linecap="round"></path><path d="M 738.000,263.000 C 741.802,260.099 741.830,260.265 746.000,258.000" stroke-width="3.559" stroke="black" fill="none" stroke-linecap="round"></path><path d="M 746.000,258.000 C 749.847,255.656 749.802,256.099 754.000,255.000" stroke-width="3.634" stroke="black" fill="none" stroke-linecap="round"></path><path d="M 754.000,255.000 C 764.757,253.544 759.347,254.156 765.000,255.000" stroke-width="4.024" stroke="black" fill="none" stroke-linecap="round"></path><path d="M 765.000,255.000 C 759.811,257.720 765.257,256.544 755.000,261.000" stroke-width="4.742" stroke="black" fill="none" stroke-linecap="round"></path><path d="M 755.000,261.000 C 749.000,265.500 748.811,265.220 743.000,270.000" stroke-width="3.361" stroke="black" fill="none" stroke-linecap="round"></path><path d="M 743.000,270.000 C 735.085,276.120 735.000,276.000 727.000,282.000" stroke-width="2.777" stroke="black" fill="none" stroke-linecap="round"></path><path d="M 727.000,282.000 C 724.041,284.065 724.085,284.120 721.000,286.000" stroke-width="3.372" stroke="black" fill="none" stroke-linecap="round"></path><path d="M 721.000,286.000 C 718.199,287.115 718.541,287.565 716.000,289.000" stroke-width="3.864" stroke="black" fill="none" stroke-linecap="round"></path><path d="M 716.000,289.000 C 711.054,293.135 711.199,293.115 707.000,298.000" stroke-width="3.387" stroke="black" fill="none" stroke-linecap="round"></path><path d="M 707.000,298.000 C 703.865,302.416 703.554,302.135 701.000,307.000" stroke-width="3.422" stroke="black" fill="none" stroke-linecap="round"></path><path d="M 701.000,307.000 C 698.800,310.400 698.865,310.416 697.000,314.000" stroke-width="3.688" stroke="black" fill="none" stroke-linecap="round"></path><path d="M 697.000,314.000 C 694.556,317.386 695.300,317.400 694.000,321.000" stroke-width="3.773" stroke="black" fill="none" stroke-linecap="round"></path><path d="M 694.000,321.000 C 693.468,324.592 693.556,323.886 695.000,327.000" stroke-width="4.394" stroke="black" fill="none" stroke-linecap="round"></path><path d="M 695.000,327.000 C 697.451,330.648 696.968,330.092 701.000,332.000" stroke-width="4.002" stroke="black" fill="none" stroke-linecap="round"></path><path d="M 701.000,332.000 C 708.434,334.790 707.951,334.648 716.000,335.000" stroke-width="3.211" stroke="black" fill="none" stroke-linecap="round"></path><path d="M 716.000,335.000 C 726.535,334.268 726.434,335.290 737.000,333.000" stroke-width="2.686" stroke="black" fill="none" stroke-linecap="round"></path><path d="M 737.000,333.000 C 743.225,332.824 743.035,332.268 749.000,331.000" stroke-width="3.023" stroke="black" fill="none" stroke-linecap="round"></path><path d="M 749.000,331.000 C 762.504,326.858 762.225,326.824 775.000,321.000" stroke-width="2.339" stroke="black" fill="none" stroke-linecap="round"></path><path d="M 775.000,321.000 C 778.000,318.500 778.504,319.358 781.000,316.000" stroke-width="3.227" stroke="black" fill="none" stroke-linecap="round"></path><path d="M 781.000,316.000 C 787.000,313.850 784.000,313.500 787.000,311.000" stroke-width="3.543" stroke="black" fill="none" stroke-linecap="round"></path><path d="M 787.000,311.000 C 785.178,304.989 787.000,307.350 781.000,303.000" stroke-width="4.387" stroke="black" fill="none" stroke-linecap="round"></path><path d="M 781.000,303.000 C 773.503,301.326 774.678,299.989 766.000,301.000" stroke-width="3.220" stroke="black" fill="none" stroke-linecap="round"></path><path d="M 766.000,301.000 C 761.529,300.235 762.003,300.826 758.000,302.000" stroke-width="3.567" stroke="black" fill="none" stroke-linecap="round"></path><path d="M 758.000,302.000 C 748.841,307.779 748.529,306.735 740.000,314.000" stroke-width="2.726" stroke="black" fill="none" stroke-linecap="round"></path><path d="M 740.000,314.000 C 735.483,317.478 735.341,317.279 731.000,321.000" stroke-width="3.094" stroke="black" fill="none" stroke-linecap="round"></path><path d="M 731.000,321.000 C 727.917,322.508 728.483,322.978 726.000,325.000" stroke-width="3.687" stroke="black" fill="none" stroke-linecap="round"></path><path d="M 726.000,325.000 C 721.833,329.280 722.917,329.008 721.000,334.000" stroke-width="3.557" stroke="black" fill="none" stroke-linecap="round"></path><path d="M 721.000,334.000 C 720.023,340.074 720.333,337.780 723.000,342.000" stroke-width="4.169" stroke="black" fill="none" stroke-linecap="round"></path><path d="M 723.000,342.000 C 730.593,345.000 728.523,345.574 738.000,345.000" stroke-width="3.243" stroke="black" fill="none" stroke-linecap="round"></path><path d="M 738.000,345.000 C 742.553,343.647 742.593,345.000 747.000,342.000" stroke-width="3.439" stroke="black" fill="none" stroke-linecap="round"></path><path d="M 747.000,342.000 C 755.874,338.129 756.053,338.647 765.000,335.000" stroke-width="2.763" stroke="black" fill="none" stroke-linecap="round"></path><path d="M 765.000,335.000 C 773.494,332.481 773.374,332.129 782.000,330.000" stroke-width="2.697" stroke="black" fill="none" stroke-linecap="round"></path><path d="M 782.000,330.000 C 785.451,328.789 785.494,328.981 789.000,328.000" stroke-width="3.460" stroke="black" fill="none" stroke-linecap="round"></path><path d="M 789.000,328.000 C 794.463,326.241 794.451,326.789 800.000,326.000" stroke-width="3.467" stroke="black" fill="none" stroke-linecap="round"></path><path d="M 800.000,326.000 C 806.021,326.336 805.963,325.741 812.000,327.000" stroke-width="3.283" stroke="black" fill="none" stroke-linecap="round"></path><path d="M 812.000,327.000 C 818.174,326.261 815.021,327.336 818.000,328.000" stroke-width="4.330" stroke="black" fill="none" stroke-linecap="round"></path><path d="M 818.000,328.000 C 815.104,333.169 817.674,331.261 811.000,337.000" stroke-width="4.224" stroke="black" fill="none" stroke-linecap="round"></path><path d="M 811.000,337.000 C 800.886,342.282 807.604,340.169 803.000,342.000" stroke-width="3.780" stroke="black" fill="none" stroke-linecap="round"></path><path d="M 803.000,342.000 C 814.352,337.912 808.386,341.282 826.000,335.000" stroke-width="3.793" stroke="black" fill="none" stroke-linecap="round"></path><path d="M 826.000,335.000 C 838.398,331.680 838.352,331.912 851.000,330.000" stroke-width="2.563" stroke="black" fill="none" stroke-linecap="round"></path><path d="M 851.000,330.000 C 860.995,329.378 860.898,328.680 871.000,329.000" stroke-width="2.517" stroke="black" fill="none" stroke-linecap="round"></path><path d="M 871.000,329.000 C 887.498,328.375 887.495,328.378 904.000,328.000" stroke-width="2.061" stroke="black" fill="none" stroke-linecap="round"></path><path d="M 904.000,328.000 C 909.500,328.000 909.498,327.875 915.000,328.000" stroke-width="2.853" stroke="black" fill="none" stroke-linecap="round"></path><path d="M 915.000,328.000 C 919.540,327.554 919.500,328.000 924.000,328.000" stroke-width="3.384" stroke="black" fill="none" stroke-linecap="round"></path><path d="M 924.000,328.000 C 929.647,328.513 929.540,328.554 935.000,330.000" stroke-width="3.391" stroke="black" fill="none" stroke-linecap="round"></path><path d="M 935.000,330.000 C 938.602,331.301 938.647,331.013 942.000,333.000" stroke-width="3.674" stroke="black" fill="none" stroke-linecap="round"></path><path d="M 942.000,333.000 C 944.368,334.761 944.602,334.301 947.000,336.000" stroke-width="4.020" stroke="black" fill="none" stroke-linecap="round"></path><path d="M 947.000,336.000 C 952.783,339.587 952.868,338.761 959.000,341.000" stroke-width="3.331" stroke="black" fill="none" stroke-linecap="round"></path><path d="M 959.000,341.000 C 964.175,341.852 963.783,342.087 969.000,341.000" stroke-width="3.476" stroke="black" fill="none" stroke-linecap="round"></path><path d="M 969.000,341.000 C 972.653,339.809 972.675,340.352 976.000,338.000" stroke-width="3.704" stroke="black" fill="none" stroke-linecap="round"></path><path d="M 976.000,338.000 C 989.701,326.216 991.153,329.809 1006.000,321.000" stroke-width="4.417" stroke="black" fill="none" stroke-linecap="round"></path><path d="M 1006.000,321.000 C 1054.137,311.657 1052.201,306.216 1101.000,298.000" stroke-width="1.783" stroke="black" fill="none" stroke-linecap="round"></path><path d="M 1101.000,298.000 C 1140.868,283.604 1141.637,286.157 1181.000,270.000" stroke-width="1.125" stroke="black" fill="none" stroke-linecap="round"></path><path d="M 1181.000,270.000 C 1199.799,263.261 1199.868,263.604 1219.000,258.000" stroke-width="1.412" stroke="black" fill="none" stroke-linecap="round"></path><path d="M 1219.000,258.000 C 1236.358,252.996 1236.299,253.261 1254.000,250.000" stroke-width="1.667" stroke="black" fill="none" stroke-linecap="round"></path><path d="M 1254.000,250.000 C 1262.995,249.311 1262.858,248.496 1272.000,249.000" stroke-width="2.249" stroke="black" fill="none" stroke-linecap="round"></path><path d="M 1272.000,249.000 C 1277.582,248.253 1277.495,248.811 1283.000,249.000" stroke-width="2.912" stroke="black" fill="none" stroke-linecap="round"></path><path d="M 1283.000,249.000 C 1291.991,251.042 1292.082,250.253 1301.000,253.000" stroke-width="2.696" stroke="black" fill="none" stroke-linecap="round"></path><path d="M 1301.000,253.000 C 1304.136,252.550 1303.491,253.542 1306.000,254.000" stroke-width="3.632" stroke="black" fill="none" stroke-linecap="round"></path><path d="M 1306.000,254.000 C 1310.000,257.000 1308.636,256.050 1310.000,260.000" stroke-width="4.254" stroke="black" fill="none" stroke-linecap="round"></path><path d="M 1310.000,260.000 C 1308.675,263.811 1310.000,263.000 1306.000,266.000" stroke-width="4.697" stroke="black" fill="none" stroke-linecap="round"></path><path d="M 1306.000,266.000 C 1302.664,268.138 1303.175,268.311 1299.000,269.000" stroke-width="4.824" stroke="black" fill="none" stroke-linecap="round"></path><path d="M 1299.000,269.000 C 1293.972,269.290 1294.164,270.138 1289.000,270.000" stroke-width="3.905" stroke="black" fill="none" stroke-linecap="round"></path><path d="M 1289.000,270.000 C 1280.000,271.500 1279.972,271.290 1271.000,273.000" stroke-width="2.914" stroke="black" fill="none" stroke-linecap="round"></path><path d="M 1271.000,273.000 C 1259.055,275.428 1259.000,275.000 1247.000,277.000" stroke-width="2.400" stroke="black" fill="none" stroke-linecap="round"></path><path d="M 1247.000,277.000 C 1236.019,278.281 1236.055,278.428 1225.000,279.000" stroke-width="2.432" stroke="black" fill="none" stroke-linecap="round"></path><path d="M 1225.000,279.000 C 1213.009,279.909 1213.019,279.781 1201.000,280.000" stroke-width="2.301" stroke="black" fill="none" stroke-linecap="round"></path><path d="M 1201.000,280.000 C 1146.997,279.679 1147.009,280.409 1093.000,280.000" stroke-width="1.125" stroke="black" fill="none" stroke-linecap="round"></path><path d="M 1093.000,280.000 C 1063.002,280.776 1062.997,280.179 1033.000,281.000" stroke-width="1.140" stroke="black" fill="none" stroke-linecap="round"></path><path d="M 1033.000,281.000 C 995.993,280.497 996.002,281.276 959.000,281.000" stroke-width="1.125" stroke="black" fill="none" stroke-linecap="round"></path><path d="M 959.000,281.000 C 922.505,282.376 922.493,281.497 886.000,283.000" stroke-width="1.125" stroke="black" fill="none" stroke-linecap="round"></path><path d="M 886.000,283.000 C 864.000,283.000 864.005,283.376 842.000,283.000" stroke-width="1.355" stroke="black" fill="none" stroke-linecap="round"></path><path d="M 842.000,283.000 C 833.473,283.484 833.500,283.000 825.000,283.000" stroke-width="2.126" stroke="black" fill="none" stroke-linecap="round"></path><path d="M 825.000,283.000 C 815.974,282.170 815.973,282.484 807.000,281.000" stroke-width="2.461" stroke="black" fill="none" stroke-linecap="round"></path><path d="M 807.000,281.000 C 804.064,281.314 804.474,280.670 802.000,280.000" stroke-width="3.525" stroke="black" fill="none" stroke-linecap="round"></path><path d="M 802.000,280.000 C 798.850,277.135 798.564,277.814 796.000,274.000" stroke-width="3.681" stroke="black" fill="none" stroke-linecap="round"></path></svg>