<svg xmlns="http://www.w3.org/2000/svg" xmlns:xlink="http://www.w3.org/1999/xlink" viewBox="0 0 453 236" width="453" height="236"><path d="M 105.500,153.000 C 102.929,152.747 103.000,152.500 100.500,152.000" stroke-width="4.922" stroke="black" fill="none" stroke-linecap="round"></path><path d="M 100.500,152.000 C 96.421,150.681 96.429,150.747 92.500,149.000" stroke-width="4.670" stroke="black" fill="none" stroke-linecap="round"></path><path d="M 92.500,149.000 C 89.551,147.387 89.421,147.681 86.500,146.000" stroke-width="4.690" stroke="black" fill="none" stroke-linecap="round"></path><path d="M 86.500,146.000 C 81.700,145.802 84.051,144.887 81.500,144.000" stroke-width="4.818" stroke="black" fill="none" stroke-linecap="round"></path><path d="M 81.500,144.000 C 82.562,139.571 81.200,141.302 85.500,137.000" stroke-width="5.115" stroke="black" fill="none" stroke-linecap="round"></path><path d="M 85.500,137.000 C 91.544,133.574 90.562,132.571 97.500,130.000" stroke-width="3.435" stroke="black" fill="none" stroke-linecap="round"></path><path d="M 97.500,130.000 C 104.081,126.126 104.044,126.074 110.500,122.000" stroke-width="3.026" stroke="black" fill="none" stroke-linecap="round"></path><path d="M 110.500,122.000 C 118.000,117.000 118.081,117.126 125.500,112.000" stroke-width="2.749" stroke="black" fill="none" stroke-linecap="round"></path><path d="M 125.500,112.000 C 132.846,106.751 133.000,107.000 140.500,102.000" stroke-width="2.736" stroke="black" fill="none" stroke-linecap="round"></path><path d="M 140.500,102.000 C 147.355,97.716 147.346,97.751 154.500,94.000" stroke-width="2.840" stroke="black" fill="none" stroke-linecap="round"></path><path d="M 154.500,94.000 C 159.920,91.297 159.855,91.216 165.500,89.000" stroke-width="3.086" stroke="black" fill="none" stroke-linecap="round"></path><path d="M 165.500,89.000 C 171.752,85.111 168.420,87.797 171.500,87.000" stroke-width="3.732" stroke="black" fill="none" stroke-linecap="round"></path><path d="M 171.500,87.000 C 168.803,96.363 170.752,92.611 163.500,104.000" stroke-width="3.960" stroke="black" fill="none" stroke-linecap="round"></path><path d="M 163.500,104.000 C 155.704,114.224 156.303,114.363 146.500,123.000" stroke-width="2.656" stroke="black" fill="none" stroke-linecap="round"></path><path d="M 146.500,123.000 C 133.519,134.023 134.204,134.724 120.500,145.000" stroke-width="2.055" stroke="black" fill="none" stroke-linecap="round"></path><path d="M 120.500,145.000 C 108.017,155.521 108.019,155.523 95.500,166.000" stroke-width="1.963" stroke="black" fill="none" stroke-linecap="round"></path><path d="M 95.500,166.000 C 86.622,173.652 86.517,173.521 77.500,181.000" stroke-width="2.228" stroke="black" fill="none" stroke-linecap="round"></path><path d="M 77.500,181.000 C 68.456,187.944 68.622,188.152 59.500,195.000" stroke-width="2.347" stroke="black" fill="none" stroke-linecap="round"></path><path d="M 59.500,195.000 C 52.244,201.341 51.956,200.944 44.500,207.000" stroke-width="2.490" stroke="black" fill="none" stroke-linecap="round"></path><path d="M 44.500,207.000 C 38.884,210.329 39.244,210.841 33.500,214.000" stroke-width="2.938" stroke="black" fill="none" stroke-linecap="round"></path><path d="M 33.500,214.000 C 25.639,222.000 27.884,217.829 22.500,222.000" stroke-width="3.619" stroke="black" fill="none" stroke-linecap="round"></path><path d="M 22.500,222.000 C 21.385,217.290 20.639,222.000 23.500,214.000" stroke-width="4.489" stroke="black" fill="none" stroke-linecap="round"></path><path d="M 23.500,214.000 C 31.273,203.227 30.385,203.290 40.500,194.000" stroke-width="3.546" stroke="black" fill="none" stroke-linecap="round"></path><path d="M 40.500,194.000 C 46.178,189.004 45.773,188.727 52.500,185.000" stroke-width="3.136" stroke="black" fill="none" stroke-linecap="round"></path><path d="M 52.500,185.000 C 61.452,179.912 61.178,179.504 70.500,175.000" stroke-width="2.697" stroke="black" fill="none" stroke-linecap="round"></path><path d="M 70.500,175.000 C 78.854,170.200 78.952,170.412 87.500,166.000" stroke-width="2.712" stroke="black" fill="none" stroke-linecap="round"></path><path d="M 87.500,166.000 C 96.461,161.909 96.354,161.700 105.500,158.000" stroke-width="2.576" stroke="black" fill="none" stroke-linecap="round"></path><path d="M 105.500,158.000 C 114.969,153.925 114.961,153.909 124.500,150.000" stroke-width="2.492" stroke="black" fill="none" stroke-linecap="round"></path><path d="M 124.500,150.000 C 132.037,147.088 131.969,146.925 139.500,144.000" stroke-width="2.754" stroke="black" fill="none" stroke-linecap="round"></path><path d="M 139.500,144.000 C 146.638,141.282 146.537,141.088 153.500,138.000" stroke-width="2.842" stroke="black" fill="none" stroke-linecap="round"></path><path d="M 153.500,138.000 C 157.959,135.422 158.138,135.782 162.500,133.000" stroke-width="3.225" stroke="black" fill="none" stroke-linecap="round"></path><path d="M 162.500,133.000 C 169.141,130.641 165.459,131.422 168.500,130.000" stroke-width="4.119" stroke="black" fill="none" stroke-linecap="round"></path><path d="M 168.500,130.000 C 163.946,129.506 167.641,129.141 159.500,130.000" stroke-width="4.344" stroke="black" fill="none" stroke-linecap="round"></path><path d="M 159.500,130.000 C 154.987,130.944 154.946,130.506 150.500,132.000" stroke-width="3.831" stroke="black" fill="none" stroke-linecap="round"></path><path d="M 150.500,132.000 C 146.453,132.837 146.487,132.944 142.500,134.000" stroke-width="3.747" stroke="black" fill="none" stroke-linecap="round"></path><path d="M 142.500,134.000 C 137.949,135.361 137.953,135.337 133.500,137.000" stroke-width="3.750" stroke="black" fill="none" stroke-linecap="round"></path><path d="M 133.500,137.000 C 128.240,138.505 128.449,138.861 123.500,141.000" stroke-width="3.470" stroke="black" fill="none" stroke-linecap="round"></path><path d="M 123.500,141.000 C 118.535,143.470 118.740,143.505 114.500,147.000" stroke-width="3.389" stroke="black" fill="none" stroke-linecap="round"></path><path d="M 114.500,147.000 C 110.628,150.735 110.535,150.470 107.500,155.000" stroke-width="3.439" stroke="black" fill="none" stroke-linecap="round"></path><path d="M 107.500,155.000 C 104.925,158.295 105.128,158.235 103.500,162.000" stroke-width="3.645" stroke="black" fill="none" stroke-linecap="round"></path><path d="M 103.500,162.000 C 102.716,164.976 102.425,164.795 102.500,168.000" stroke-width="3.936" stroke="black" fill="none" stroke-linecap="round"></path><path d="M 102.500,168.000 C 100.284,174.006 102.216,171.976 102.500,176.000" stroke-width="4.365" stroke="black" fill="none" stroke-linecap="round"></path><path d="M 102.500,176.000 C 107.702,177.758 105.284,178.506 112.500,177.000" stroke-width="4.328" stroke="black" fill="none" stroke-linecap="round"></path><path d="M 112.500,177.000 C 117.258,175.456 117.202,176.258 121.500,173.000" stroke-width="3.699" stroke="black" fill="none" stroke-linecap="round"></path><path d="M 121.500,173.000 C 126.588,169.619 126.758,169.956 131.500,166.000" stroke-width="3.449" stroke="black" fill="none" stroke-linecap="round"></path><path d="M 131.500,166.000 C 136.200,162.727 136.088,162.619 140.500,159.000" stroke-width="3.391" stroke="black" fill="none" stroke-linecap="round"></path><path d="M 140.500,159.000 C 143.500,156.000 143.700,156.227 146.500,153.000" stroke-width="3.636" stroke="black" fill="none" stroke-linecap="round"></path><path d="M 146.500,153.000 C 148.777,151.216 148.500,151.000 150.500,149.000" stroke-width="3.985" stroke="black" fill="none" stroke-linecap="round"></path><path d="M 150.500,149.000 C 154.754,144.358 152.277,146.716 153.500,144.000" stroke-width="4.536" stroke="black" fill="none" stroke-linecap="round"></path><path d="M 153.500,144.000 C 148.296,145.025 151.254,143.358 143.500,147.000" stroke-width="4.349" stroke="black" fill="none" stroke-linecap="round"></path><path d="M 143.500,147.000 C 139.732,148.649 139.796,148.525 136.500,151.000" stroke-width="3.904" stroke="black" fill="none" stroke-linecap="round"></path><path d="M 136.500,151.000 C 134.390,152.900 134.232,152.649 132.500,155.000" stroke-width="4.077" stroke="black" fill="none" stroke-linecap="round"></path><path d="M 132.500,155.000 C 127.224,158.790 129.890,157.900 127.500,161.000" stroke-width="4.413" stroke="black" fill="none" stroke-linecap="round"></path><path d="M 127.500,161.000 C 130.436,163.153 127.724,162.790 133.500,163.000" stroke-width="4.796" stroke="black" fill="none" stroke-linecap="round"></path><path d="M 133.500,163.000 C 141.026,162.775 140.436,162.653 147.500,160.000" stroke-width="3.270" stroke="black" fill="none" stroke-linecap="round"></path><path d="M 147.500,160.000 C 154.653,155.722 155.026,156.775 161.500,151.000" stroke-width="3.019" stroke="black" fill="none" stroke-linecap="round"></path><path d="M 161.500,151.000 C 169.616,146.195 169.153,145.722 176.500,140.000" stroke-width="2.714" stroke="black" fill="none" stroke-linecap="round"></path><path d="M 176.500,140.000 C 184.303,132.263 184.616,132.695 191.500,124.000" stroke-width="2.466" stroke="black" fill="none" stroke-linecap="round"></path><path d="M 191.500,124.000 C 197.275,116.307 197.803,116.763 203.500,109.000" stroke-width="2.586" stroke="black" fill="none" stroke-linecap="round"></path><path d="M 203.500,109.000 C 209.357,103.286 208.775,102.807 214.500,97.000" stroke-width="2.781" stroke="black" fill="none" stroke-linecap="round"></path><path d="M 214.500,97.000 C 217.841,91.879 218.357,92.286 221.500,87.000" stroke-width="3.056" stroke="black" fill="none" stroke-linecap="round"></path><path d="M 221.500,87.000 C 228.395,81.000 223.841,83.879 226.500,81.000" stroke-width="3.615" stroke="black" fill="none" stroke-linecap="round"></path><path d="M 226.500,81.000 C 216.745,82.543 221.895,81.000 208.500,87.000" stroke-width="4.112" stroke="black" fill="none" stroke-linecap="round"></path><path d="M 208.500,87.000 C 198.732,93.662 198.245,92.543 189.500,101.000" stroke-width="2.625" stroke="black" fill="none" stroke-linecap="round"></path><path d="M 189.500,101.000 C 178.887,108.874 179.232,109.162 169.500,118.000" stroke-width="2.321" stroke="black" fill="none" stroke-linecap="round"></path><path d="M 169.500,118.000 C 160.834,126.493 160.887,126.374 153.500,136.000" stroke-width="2.267" stroke="black" fill="none" stroke-linecap="round"></path><path d="M 153.500,136.000 C 147.838,144.400 147.334,143.993 142.500,153.000" stroke-width="2.414" stroke="black" fill="none" stroke-linecap="round"></path><path d="M 142.500,153.000 C 138.355,158.720 138.838,158.900 135.500,165.000" stroke-width="2.803" stroke="black" fill="none" stroke-linecap="round"></path><path d="M 135.500,165.000 C 134.057,170.018 133.355,169.720 132.500,175.000" stroke-width="3.198" stroke="black" fill="none" stroke-linecap="round"></path><path d="M 132.500,175.000 C 130.500,178.029 131.557,178.018 130.500,181.000" stroke-width="3.739" stroke="black" fill="none" stroke-linecap="round"></path><path d="M 130.500,181.000 C 130.415,185.679 130.500,183.529 132.500,186.000" stroke-width="4.580" stroke="black" fill="none" stroke-linecap="round"></path><path d="M 132.500,186.000 C 138.368,185.309 136.915,186.679 143.500,183.000" stroke-width="4.316" stroke="black" fill="none" stroke-linecap="round"></path><path d="M 143.500,183.000 C 148.037,180.054 148.368,180.809 152.500,177.000" stroke-width="3.661" stroke="black" fill="none" stroke-linecap="round"></path><path d="M 152.500,177.000 C 157.620,173.660 157.537,173.554 162.500,170.000" stroke-width="3.381" stroke="black" fill="none" stroke-linecap="round"></path><path d="M 162.500,170.000 C 167.380,165.840 167.620,166.160 172.500,162.000" stroke-width="3.258" stroke="black" fill="none" stroke-linecap="round"></path><path d="M 172.500,162.000 C 177.553,158.573 177.380,158.340 182.500,155.000" stroke-width="3.269" stroke="black" fill="none" stroke-linecap="round"></path><path d="M 182.500,155.000 C 186.242,151.555 186.553,152.073 190.500,149.000" stroke-width="3.550" stroke="black" fill="none" stroke-linecap="round"></path><path d="M 190.500,149.000 C 194.044,147.595 193.742,147.055 197.500,146.000" stroke-width="3.729" stroke="black" fill="none" stroke-linecap="round"></path><path d="M 197.500,146.000 C 204.277,141.912 200.544,144.595 203.500,143.000" stroke-width="4.358" stroke="black" fill="none" stroke-linecap="round"></path><path d="M 203.500,143.000 C 197.921,147.917 201.777,145.412 192.500,153.000" stroke-width="4.343" stroke="black" fill="none" stroke-linecap="round"></path><path d="M 192.500,153.000 C 189.876,155.387 189.921,155.417 187.500,158.000" stroke-width="4.077" stroke="black" fill="none" stroke-linecap="round"></path><path d="M 187.500,158.000 C 182.219,162.032 184.876,160.887 182.500,164.000" stroke-width="4.429" stroke="black" fill="none" stroke-linecap="round"></path><path d="M 182.500,164.000 C 185.705,165.645 182.719,165.532 188.500,165.000" stroke-width="4.830" stroke="black" fill="none" stroke-linecap="round"></path><path d="M 188.500,165.000 C 192.000,163.000 192.205,164.145 195.500,161.000" stroke-width="4.072" stroke="black" fill="none" stroke-linecap="round"></path><path d="M 195.500,161.000 C 199.018,159.031 199.000,159.000 202.500,157.000" stroke-width="3.889" stroke="black" fill="none" stroke-linecap="round"></path><path d="M 202.500,157.000 C 205.000,155.500 205.018,155.531 207.500,154.000" stroke-width="4.050" stroke="black" fill="none" stroke-linecap="round"></path><path d="M 207.500,154.000 C 212.838,149.985 210.000,152.500 212.500,151.000" stroke-width="4.521" stroke="black" fill="none" stroke-linecap="round"></path><path d="M 212.500,151.000 C 209.342,155.838 211.838,152.985 205.500,160.000" stroke-width="4.512" stroke="black" fill="none" stroke-linecap="round"></path><path d="M 205.500,160.000 C 202.889,161.876 203.342,162.338 200.500,164.000" stroke-width="4.252" stroke="black" fill="none" stroke-linecap="round"></path><path d="M 200.500,164.000 C 195.549,166.859 198.389,165.876 196.500,168.000" stroke-width="4.184" stroke="black" fill="none" stroke-linecap="round"></path><path d="M 196.500,168.000 C 201.186,170.508 198.049,169.859 205.500,170.000" stroke-width="4.694" stroke="black" fill="none" stroke-linecap="round"></path><path d="M 205.500,170.000 C 209.365,167.654 209.686,169.508 213.500,166.000" stroke-width="3.940" stroke="black" fill="none" stroke-linecap="round"></path><path d="M 213.500,166.000 C 219.925,164.000 216.865,164.654 220.500,164.000" stroke-width="4.456" stroke="black" fill="none" stroke-linecap="round"></path><path d="M 220.500,164.000 C 217.827,164.670 220.925,164.000 215.500,166.000" stroke-width="4.617" stroke="black" fill="none" stroke-linecap="round"></path><path d="M 215.500,166.000 C 210.768,168.717 210.827,168.670 206.500,172.000" stroke-width="3.785" stroke="black" fill="none" stroke-linecap="round"></path><path d="M 206.500,172.000 C 201.861,174.508 204.268,173.717 202.500,176.000" stroke-width="4.118" stroke="black" fill="none" stroke-linecap="round"></path><path d="M 202.500,176.000 C 206.233,180.210 203.361,178.008 209.500,179.000" stroke-width="4.616" stroke="black" fill="none" stroke-linecap="round"></path><path d="M 209.500,179.000 C 220.061,173.244 219.733,175.210 229.500,166.000" stroke-width="2.747" stroke="black" fill="none" stroke-linecap="round"></path><path d="M 229.500,166.000 C 241.617,156.630 241.561,156.744 252.500,146.000" stroke-width="2.124" stroke="black" fill="none" stroke-linecap="round"></path><path d="M 252.500,146.000 C 263.545,135.828 263.117,135.630 272.500,124.000" stroke-width="2.069" stroke="black" fill="none" stroke-linecap="round"></path><path d="M 272.500,124.000 C 289.601,100.378 290.045,100.828 305.500,76.000" stroke-width="2.016" stroke="black" fill="none" stroke-linecap="round"></path><path d="M 305.500,76.000 C 311.115,65.262 312.101,65.878 317.500,55.000" stroke-width="2.221" stroke="black" fill="none" stroke-linecap="round"></path><path d="M 317.500,55.000 C 330.150,37.328 325.115,42.762 333.500,31.000" stroke-width="2.739" stroke="black" fill="none" stroke-linecap="round"></path><path d="M 333.500,31.000 C 330.068,34.569 334.650,28.828 326.500,38.000" stroke-width="3.843" stroke="black" fill="none" stroke-linecap="round"></path><path d="M 326.500,38.000 C 303.962,59.461 304.068,59.569 281.500,81.000" stroke-width="2.324" stroke="black" fill="none" stroke-linecap="round"></path><path d="M 281.500,81.000 C 267.380,94.377 267.462,94.461 253.500,108.000" stroke-width="1.967" stroke="black" fill="none" stroke-linecap="round"></path><path d="M 253.500,108.000 C 240.066,120.596 240.380,120.877 227.500,134.000" stroke-width="1.776" stroke="black" fill="none" stroke-linecap="round"></path><path d="M 227.500,134.000 C 217.568,144.665 217.566,144.596 208.500,156.000" stroke-width="1.925" stroke="black" fill="none" stroke-linecap="round"></path><path d="M 208.500,156.000 C 203.114,162.074 203.568,162.165 199.500,169.000" stroke-width="2.525" stroke="black" fill="none" stroke-linecap="round"></path><path d="M 199.500,169.000 C 196.500,174.188 197.114,173.574 196.500,179.000" stroke-width="3.170" stroke="black" fill="none" stroke-linecap="round"></path><path d="M 196.500,179.000 C 197.041,184.224 196.500,181.688 199.500,184.000" stroke-width="4.148" stroke="black" fill="none" stroke-linecap="round"></path><path d="M 199.500,184.000 C 209.597,181.674 208.041,183.224 218.500,177.000" stroke-width="2.899" stroke="black" fill="none" stroke-linecap="round"></path><path d="M 218.500,177.000 C 229.201,170.284 229.597,171.174 239.500,163.000" stroke-width="2.357" stroke="black" fill="none" stroke-linecap="round"></path><path d="M 239.500,163.000 C 249.279,155.183 249.701,155.784 259.500,148.000" stroke-width="2.407" stroke="black" fill="none" stroke-linecap="round"></path><path d="M 259.500,148.000 C 267.732,142.010 267.779,142.183 276.500,137.000" stroke-width="2.460" stroke="black" fill="none" stroke-linecap="round"></path><path d="M 276.500,137.000 C 281.801,133.583 281.732,134.010 287.500,132.000" stroke-width="2.986" stroke="black" fill="none" stroke-linecap="round"></path><path d="M 287.500,132.000 C 293.452,129.729 290.801,131.083 294.500,132.000" stroke-width="3.580" stroke="black" fill="none" stroke-linecap="round"></path><path d="M 294.500,132.000 C 296.927,139.941 296.452,136.229 293.500,145.000" stroke-width="3.907" stroke="black" fill="none" stroke-linecap="round"></path><path d="M 293.500,145.000 C 284.496,155.387 286.427,155.441 273.500,163.000" stroke-width="2.436" stroke="black" fill="none" stroke-linecap="round"></path><path d="M 273.500,163.000 C 258.256,173.747 258.496,173.387 241.500,181.000" stroke-width="1.876" stroke="black" fill="none" stroke-linecap="round"></path><path d="M 241.500,181.000 C 224.285,187.681 224.756,188.247 206.500,192.000" stroke-width="1.755" stroke="black" fill="none" stroke-linecap="round"></path><path d="M 206.500,192.000 C 189.107,195.929 189.285,196.181 171.500,198.000" stroke-width="1.801" stroke="black" fill="none" stroke-linecap="round"></path><path d="M 171.500,198.000 C 155.015,199.484 155.107,199.929 138.500,200.000" stroke-width="1.925" stroke="black" fill="none" stroke-linecap="round"></path><path d="M 138.500,200.000 C 122.902,201.141 123.015,200.484 107.500,200.000" stroke-width="1.918" stroke="black" fill="none" stroke-linecap="round"></path><path d="M 107.500,200.000 C 95.785,198.821 95.902,199.141 84.500,196.000" stroke-width="2.214" stroke="black" fill="none" stroke-linecap="round"></path><path d="M 84.500,196.000 C 75.393,194.093 75.785,193.821 67.500,190.000" stroke-width="2.499" stroke="black" fill="none" stroke-linecap="round"></path><path d="M 67.500,190.000 C 56.056,187.415 61.893,187.093 57.500,182.000" stroke-width="3.626" stroke="black" fill="none" stroke-linecap="round"></path><path d="M 57.500,182.000 C 66.289,152.674 64.056,157.415 83.500,130.000" stroke-width="1.642" stroke="black" fill="none" stroke-linecap="round"></path><path d="M 83.500,130.000 C 98.969,108.787 97.789,111.174 120.500,99.000" stroke-width="1.465" stroke="black" fill="none" stroke-linecap="round"></path><path d="M 120.500,99.000 C 161.942,83.771 159.469,81.287 204.500,75.000" stroke-width="1.625" stroke="black" fill="none" stroke-linecap="round"></path><path d="M 204.500,75.000 C 227.977,72.793 227.442,70.271 251.500,72.000" stroke-width="1.481" stroke="black" fill="none" stroke-linecap="round"></path><path d="M 251.500,72.000 C 272.605,70.607 272.477,71.293 293.500,72.000" stroke-width="1.576" stroke="black" fill="none" stroke-linecap="round"></path><path d="M 293.500,72.000 C 310.179,73.675 310.105,73.107 326.500,77.000" stroke-width="1.741" stroke="black" fill="none" stroke-linecap="round"></path><path d="M 326.500,77.000 C 337.199,79.459 337.179,79.175 347.500,83.000" stroke-width="2.190" stroke="black" fill="none" stroke-linecap="round"></path><path d="M 347.500,83.000 C 359.854,84.783 353.199,84.959 358.500,88.000" stroke-width="2.858" stroke="black" fill="none" stroke-linecap="round"></path><path d="M 358.500,88.000 C 350.081,97.051 355.854,94.283 339.500,102.000" stroke-width="3.141" stroke="black" fill="none" stroke-linecap="round"></path><path d="M 339.500,102.000 C 318.003,109.510 319.081,111.551 296.500,117.000" stroke-width="1.742" stroke="black" fill="none" stroke-linecap="round"></path><path d="M 296.500,117.000 C 273.625,125.379 273.503,125.010 250.500,133.000" stroke-width="1.531" stroke="black" fill="none" stroke-linecap="round"></path><path d="M 250.500,133.000 C 229.649,140.042 229.625,139.879 208.500,146.000" stroke-width="1.510" stroke="black" fill="none" stroke-linecap="round"></path><path d="M 208.500,146.000 C 194.043,149.695 194.149,150.042 179.500,153.000" stroke-width="1.801" stroke="black" fill="none" stroke-linecap="round"></path><path d="M 179.500,153.000 C 168.377,156.705 172.043,154.695 164.500,156.000" stroke-width="2.482" stroke="black" fill="none" stroke-linecap="round"></path><path d="M 322.500,154.000 C 323.252,148.528 324.500,150.500 326.500,147.000" stroke-width="4.554" stroke="black" fill="none" stroke-linecap="round"></path><path d="M 326.500,147.000 C 332.988,146.176 331.752,144.528 339.500,146.000" stroke-width="3.566" stroke="black" fill="none" stroke-linecap="round"></path><path d="M 339.500,146.000 C 351.500,146.000 351.488,145.676 363.500,146.000" stroke-width="2.530" stroke="black" fill="none" stroke-linecap="round"></path><path d="M 363.500,146.000 C 376.500,146.000 376.500,146.000 389.500,146.000" stroke-width="2.308" stroke="black" fill="none" stroke-linecap="round"></path><path d="M 389.500,146.000 C 402.500,146.000 402.500,146.000 415.500,146.000" stroke-width="2.248" stroke="black" fill="none" stroke-linecap="round"></path><path d="M 415.500,146.000 C 424.500,146.000 424.500,146.000 433.500,146.000" stroke-width="2.513" stroke="black" fill="none" stroke-linecap="round"></path><path d="M 433.500,146.000 C 445.018,145.157 438.500,146.000 443.500,146.000" stroke-width="3.154" stroke="black" fill="none" stroke-linecap="round"></path><path d="M 443.500,146.000 C 434.081,148.871 440.518,147.657 424.500,151.000" stroke-width="3.832" stroke="black" fill="none" stroke-linecap="round"></path><path d="M 424.500,151.000 C 416.072,153.323 416.081,152.871 407.500,154.000" stroke-width="3.039" stroke="black" fill="none" stroke-linecap="round"></path><path d="M 407.500,154.000 C 397.000,154.000 397.072,154.823 386.500,154.000" stroke-width="2.653" stroke="black" fill="none" stroke-linecap="round"></path><path d="M 386.500,154.000 C 376.495,154.227 376.500,154.000 366.500,154.000" stroke-width="2.661" stroke="black" fill="none" stroke-linecap="round"></path><path d="M 366.500,154.000 C 354.473,153.887 354.495,153.727 342.500,153.000" stroke-width="2.535" stroke="black" fill="none" stroke-linecap="round"></path><path d="M 342.500,153.000 C 327.540,150.705 327.473,151.887 312.500,150.000" stroke-width="2.095" stroke="black" fill="none" stroke-linecap="round"></path><path d="M 312.500,150.000 C 295.350,148.362 295.540,149.205 278.500,150.000" stroke-width="1.879" stroke="black" fill="none" stroke-linecap="round"></path><path d="M 278.500,150.000 C 259.068,151.894 259.350,151.862 240.500,157.000" stroke-width="1.764" stroke="black" fill="none" stroke-linecap="round"></path><path d="M 240.500,157.000 C 219.106,163.546 219.068,162.894 198.500,172.000" stroke-width="1.610" stroke="black" fill="none" stroke-linecap="round"></path><path d="M 198.500,172.000 C 180.299,180.101 180.106,179.546 162.500,189.000" stroke-width="1.612" stroke="black" fill="none" stroke-linecap="round"></path><path d="M 162.500,189.000 C 148.182,195.969 148.299,196.101 134.500,204.000" stroke-width="1.793" stroke="black" fill="none" stroke-linecap="round"></path></svg>