<svg xmlns="http://www.w3.org/2000/svg" xmlns:xlink="http://www.w3.org/1999/xlink" viewBox="0 0 453 236" width="453" height="236"><path d="M 125.500,167.000 C 121.551,165.350 121.500,165.500 117.500,164.000" stroke-width="4.893" stroke="black" fill="none" stroke-linecap="round"></path><path d="M 117.500,164.000 C 112.568,162.192 112.551,162.350 107.500,161.000" stroke-width="4.615" stroke="black" fill="none" stroke-linecap="round"></path><path d="M 107.500,161.000 C 103.992,160.551 104.068,160.192 100.500,160.000" stroke-width="4.091" stroke="black" fill="none" stroke-linecap="round"></path><path d="M 100.500,160.000 C 94.399,159.405 94.492,159.051 88.500,158.000" stroke-width="3.486" stroke="black" fill="none" stroke-linecap="round"></path><path d="M 88.500,158.000 C 83.572,157.193 83.899,156.905 79.500,155.000" stroke-width="4.095" stroke="black" fill="none" stroke-linecap="round"></path><path d="M 79.500,155.000 C 75.043,152.601 77.072,153.693 75.500,151.000" stroke-width="4.871" stroke="black" fill="none" stroke-linecap="round"></path><path d="M 75.500,151.000 C 78.591,149.662 76.043,149.101 81.500,148.000" stroke-width="4.732" stroke="black" fill="none" stroke-linecap="round"></path><path d="M 81.500,148.000 C 85.540,145.562 85.591,145.662 89.500,143.000" stroke-width="3.893" stroke="black" fill="none" stroke-linecap="round"></path><path d="M 89.500,143.000 C 94.101,140.142 94.040,140.062 98.500,137.000" stroke-width="3.501" stroke="black" fill="none" stroke-linecap="round"></path><path d="M 98.500,137.000 C 104.415,132.381 104.601,132.642 110.500,128.000" stroke-width="3.186" stroke="black" fill="none" stroke-linecap="round"></path><path d="M 110.500,128.000 C 116.846,123.258 116.915,123.381 123.500,119.000" stroke-width="2.991" stroke="black" fill="none" stroke-linecap="round"></path><path d="M 123.500,119.000 C 129.440,115.393 129.346,115.258 135.500,112.000" stroke-width="3.005" stroke="black" fill="none" stroke-linecap="round"></path><path d="M 135.500,112.000 C 142.151,108.752 141.940,108.393 148.500,105.000" stroke-width="3.009" stroke="black" fill="none" stroke-linecap="round"></path><path d="M 148.500,105.000 C 152.751,101.514 153.151,102.252 157.500,99.000" stroke-width="3.297" stroke="black" fill="none" stroke-linecap="round"></path><path d="M 157.500,99.000 C 161.579,97.681 161.251,97.014 165.500,96.000" stroke-width="3.547" stroke="black" fill="none" stroke-linecap="round"></path><path d="M 165.500,96.000 C 168.353,94.049 168.579,94.681 171.500,93.000" stroke-width="3.829" stroke="black" fill="none" stroke-linecap="round"></path><path d="M 171.500,93.000 C 178.492,90.636 174.353,92.049 177.500,92.000" stroke-width="4.443" stroke="black" fill="none" stroke-linecap="round"></path><path d="M 177.500,92.000 C 170.645,98.178 174.492,96.136 163.500,104.000" stroke-width="3.911" stroke="black" fill="none" stroke-linecap="round"></path><path d="M 163.500,104.000 C 156.903,108.878 157.145,109.178 150.500,114.000" stroke-width="3.113" stroke="black" fill="none" stroke-linecap="round"></path><path d="M 150.500,114.000 C 141.895,120.877 141.903,120.878 133.500,128.000" stroke-width="2.618" stroke="black" fill="none" stroke-linecap="round"></path><path d="M 133.500,128.000 C 125.500,135.000 125.395,134.877 117.500,142.000" stroke-width="2.534" stroke="black" fill="none" stroke-linecap="round"></path><path d="M 117.500,142.000 C 109.635,149.159 109.500,149.000 101.500,156.000" stroke-width="2.450" stroke="black" fill="none" stroke-linecap="round"></path><path d="M 101.500,156.000 C 87.851,167.960 87.635,167.659 73.500,179.000" stroke-width="2.635" stroke="black" fill="none" stroke-linecap="round"></path><path d="M 73.500,179.000 C 61.857,188.079 61.851,187.960 49.500,196.000" stroke-width="2.891" stroke="black" fill="none" stroke-linecap="round"></path><path d="M 49.500,196.000 C 42.094,200.203 42.357,200.579 34.500,204.000" stroke-width="3.464" stroke="black" fill="none" stroke-linecap="round"></path><path d="M 34.500,204.000 C 32.101,205.527 32.094,205.203 29.500,206.000" stroke-width="3.954" stroke="black" fill="none" stroke-linecap="round"></path><path d="M 29.500,206.000 C 23.694,207.555 26.601,206.527 23.500,206.000" stroke-width="4.632" stroke="black" fill="none" stroke-linecap="round"></path><path d="M 23.500,206.000 C 25.491,201.556 23.194,203.555 28.500,198.000" stroke-width="4.489" stroke="black" fill="none" stroke-linecap="round"></path><path d="M 28.500,198.000 C 31.188,195.024 30.991,195.056 34.500,193.000" stroke-width="4.025" stroke="black" fill="none" stroke-linecap="round"></path><path d="M 34.500,193.000 C 40.367,189.699 40.188,189.524 46.500,187.000" stroke-width="3.297" stroke="black" fill="none" stroke-linecap="round"></path><path d="M 46.500,187.000 C 52.942,184.342 52.867,184.199 59.500,182.000" stroke-width="3.864" stroke="black" fill="none" stroke-linecap="round"></path><path d="M 59.500,182.000 C 74.089,177.240 73.942,176.842 88.500,172.000" stroke-width="2.269" stroke="black" fill="none" stroke-linecap="round"></path><path d="M 88.500,172.000 C 96.091,169.211 96.089,169.240 103.500,166.000" stroke-width="2.667" stroke="black" fill="none" stroke-linecap="round"></path><path d="M 103.500,166.000 C 111.047,162.598 111.091,162.711 118.500,159.000" stroke-width="2.793" stroke="black" fill="none" stroke-linecap="round"></path><path d="M 118.500,159.000 C 125.553,155.602 125.547,155.598 132.500,152.000" stroke-width="2.940" stroke="black" fill="none" stroke-linecap="round"></path><path d="M 132.500,152.000 C 139.019,148.535 139.053,148.602 145.500,145.000" stroke-width="2.989" stroke="black" fill="none" stroke-linecap="round"></path><path d="M 145.500,145.000 C 149.959,142.422 150.019,142.535 154.500,140.000" stroke-width="3.331" stroke="black" fill="none" stroke-linecap="round"></path><path d="M 154.500,140.000 C 157.412,138.287 157.459,138.422 160.500,137.000" stroke-width="3.794" stroke="black" fill="none" stroke-linecap="round"></path><path d="M 160.500,137.000 C 166.500,135.513 163.412,135.787 166.500,135.000" stroke-width="4.398" stroke="black" fill="none" stroke-linecap="round"></path><path d="M 166.500,135.000 C 163.457,134.606 166.500,134.513 160.500,135.000" stroke-width="4.770" stroke="black" fill="none" stroke-linecap="round"></path><path d="M 160.500,135.000 C 155.694,135.234 155.957,135.606 151.500,137.000" stroke-width="3.983" stroke="black" fill="none" stroke-linecap="round"></path><path d="M 151.500,137.000 C 146.429,139.887 146.194,139.234 141.500,143.000" stroke-width="3.443" stroke="black" fill="none" stroke-linecap="round"></path><path d="M 141.500,143.000 C 137.000,146.000 136.929,145.887 132.500,149.000" stroke-width="3.382" stroke="black" fill="none" stroke-linecap="round"></path><path d="M 132.500,149.000 C 127.733,151.674 128.000,152.000 123.500,155.000" stroke-width="3.421" stroke="black" fill="none" stroke-linecap="round"></path><path d="M 123.500,155.000 C 120.603,157.196 120.733,157.174 118.500,160.000" stroke-width="3.743" stroke="black" fill="none" stroke-linecap="round"></path><path d="M 118.500,160.000 C 113.175,165.013 116.103,163.196 114.500,167.000" stroke-width="4.272" stroke="black" fill="none" stroke-linecap="round"></path><path d="M 114.500,167.000 C 119.451,168.495 116.175,169.513 124.500,169.000" stroke-width="4.555" stroke="black" fill="none" stroke-linecap="round"></path><path d="M 124.500,169.000 C 129.714,170.008 129.451,169.495 134.500,169.000" stroke-width="3.795" stroke="black" fill="none" stroke-linecap="round"></path><path d="M 134.500,169.000 C 139.101,167.199 139.214,168.008 143.500,165.000" stroke-width="3.570" stroke="black" fill="none" stroke-linecap="round"></path><path d="M 143.500,165.000 C 147.044,163.074 147.101,163.199 150.500,161.000" stroke-width="3.738" stroke="black" fill="none" stroke-linecap="round"></path><path d="M 150.500,161.000 C 154.749,158.813 154.544,158.574 158.500,156.000" stroke-width="3.596" stroke="black" fill="none" stroke-linecap="round"></path><path d="M 158.500,156.000 C 162.982,152.723 160.749,154.313 162.500,152.000" stroke-width="3.970" stroke="black" fill="none" stroke-linecap="round"></path><path d="M 162.500,152.000 C 159.179,151.782 161.982,151.223 156.500,153.000" stroke-width="4.782" stroke="black" fill="none" stroke-linecap="round"></path><path d="M 156.500,153.000 C 154.000,155.000 153.679,154.282 151.500,157.000" stroke-width="4.273" stroke="black" fill="none" stroke-linecap="round"></path><path d="M 151.500,157.000 C 148.889,158.876 149.000,159.000 146.500,161.000" stroke-width="4.091" stroke="black" fill="none" stroke-linecap="round"></path><path d="M 146.500,161.000 C 141.122,165.138 144.389,162.876 142.500,165.000" stroke-width="4.550" stroke="black" fill="none" stroke-linecap="round"></path><path d="M 142.500,165.000 C 149.895,163.303 146.122,164.638 156.500,160.000" stroke-width="4.702" stroke="black" fill="none" stroke-linecap="round"></path><path d="M 156.500,160.000 C 163.616,155.671 163.895,156.303 170.500,151.000" stroke-width="4.013" stroke="black" fill="none" stroke-linecap="round"></path><path d="M 170.500,151.000 C 177.862,146.458 177.616,146.171 184.500,141.000" stroke-width="3.076" stroke="black" fill="none" stroke-linecap="round"></path><path d="M 184.500,141.000 C 200.158,127.675 200.362,127.958 215.500,114.000" stroke-width="1.912" stroke="black" fill="none" stroke-linecap="round"></path><path d="M 215.500,114.000 C 222.991,106.991 223.158,107.175 230.500,100.000" stroke-width="2.268" stroke="black" fill="none" stroke-linecap="round"></path><path d="M 230.500,100.000 C 237.604,93.608 237.491,93.491 244.500,87.000" stroke-width="2.522" stroke="black" fill="none" stroke-linecap="round"></path><path d="M 244.500,87.000 C 249.500,82.000 249.604,82.108 254.500,77.000" stroke-width="2.882" stroke="black" fill="none" stroke-linecap="round"></path><path d="M 254.500,77.000 C 258.160,73.643 258.000,73.500 261.500,70.000" stroke-width="3.273" stroke="black" fill="none" stroke-linecap="round"></path><path d="M 261.500,70.000 C 267.145,65.748 263.660,67.643 265.500,65.000" stroke-width="3.761" stroke="black" fill="none" stroke-linecap="round"></path><path d="M 265.500,65.000 C 257.492,62.944 261.645,63.248 250.500,65.000" stroke-width="4.113" stroke="black" fill="none" stroke-linecap="round"></path><path d="M 250.500,65.000 C 240.715,69.521 240.492,67.944 231.500,75.000" stroke-width="2.820" stroke="black" fill="none" stroke-linecap="round"></path><path d="M 231.500,75.000 C 222.263,80.671 222.215,80.521 213.500,87.000" stroke-width="2.506" stroke="black" fill="none" stroke-linecap="round"></path><path d="M 213.500,87.000 C 203.934,93.382 204.263,93.671 195.500,101.000" stroke-width="2.433" stroke="black" fill="none" stroke-linecap="round"></path><path d="M 195.500,101.000 C 188.662,107.718 188.434,107.382 182.500,115.000" stroke-width="3.148" stroke="black" fill="none" stroke-linecap="round"></path><path d="M 182.500,115.000 C 177.720,120.811 177.662,120.718 173.500,127.000" stroke-width="2.972" stroke="black" fill="none" stroke-linecap="round"></path><path d="M 173.500,127.000 C 170.093,131.813 170.220,131.811 167.500,137.000" stroke-width="3.268" stroke="black" fill="none" stroke-linecap="round"></path><path d="M 167.500,137.000 C 163.862,142.090 166.093,139.813 165.500,143.000" stroke-width="3.767" stroke="black" fill="none" stroke-linecap="round"></path><path d="M 165.500,143.000 C 171.579,143.968 168.362,144.590 176.500,142.000" stroke-width="4.329" stroke="black" fill="none" stroke-linecap="round"></path><path d="M 176.500,142.000 C 180.804,138.213 181.579,139.968 185.500,135.000" stroke-width="3.607" stroke="black" fill="none" stroke-linecap="round"></path><path d="M 185.500,135.000 C 190.201,131.375 190.304,131.713 195.500,129.000" stroke-width="3.413" stroke="black" fill="none" stroke-linecap="round"></path><path d="M 195.500,129.000 C 205.053,123.453 204.701,124.875 214.500,122.000" stroke-width="3.464" stroke="black" fill="none" stroke-linecap="round"></path><path d="M 214.500,122.000 C 221.861,122.651 218.053,121.453 221.500,125.000" stroke-width="4.362" stroke="black" fill="none" stroke-linecap="round"></path><path d="M 221.500,125.000 C 217.250,130.250 220.861,129.151 212.500,135.000" stroke-width="3.428" stroke="black" fill="none" stroke-linecap="round"></path><path d="M 212.500,135.000 C 207.247,139.253 207.750,139.750 202.500,144.000" stroke-width="3.221" stroke="black" fill="none" stroke-linecap="round"></path><path d="M 202.500,144.000 C 198.964,147.167 199.247,147.253 196.500,151.000" stroke-width="3.508" stroke="black" fill="none" stroke-linecap="round"></path><path d="M 196.500,151.000 C 192.300,156.800 194.464,154.167 193.500,158.000" stroke-width="4.205" stroke="black" fill="none" stroke-linecap="round"></path><path d="M 193.500,158.000 C 197.817,157.754 194.800,159.300 201.500,156.000" stroke-width="4.425" stroke="black" fill="none" stroke-linecap="round"></path><path d="M 201.500,156.000 C 207.935,151.890 208.317,152.754 214.500,148.000" stroke-width="3.290" stroke="black" fill="none" stroke-linecap="round"></path><path d="M 214.500,148.000 C 221.414,143.838 221.435,143.890 228.500,140.000" stroke-width="2.932" stroke="black" fill="none" stroke-linecap="round"></path><path d="M 228.500,140.000 C 233.399,137.267 233.414,137.338 238.500,135.000" stroke-width="3.188" stroke="black" fill="none" stroke-linecap="round"></path><path d="M 238.500,135.000 C 242.429,133.253 242.399,133.267 246.500,132.000" stroke-width="3.557" stroke="black" fill="none" stroke-linecap="round"></path><path d="M 246.500,132.000 C 250.500,130.000 248.929,131.253 251.500,131.000" stroke-width="4.374" stroke="black" fill="none" stroke-linecap="round"></path><path d="M 251.500,131.000 C 251.930,133.998 252.500,132.000 250.500,136.000" stroke-width="4.341" stroke="black" fill="none" stroke-linecap="round"></path><path d="M 250.500,136.000 C 245.868,140.375 246.930,140.998 241.500,145.000" stroke-width="3.488" stroke="black" fill="none" stroke-linecap="round"></path><path d="M 241.500,145.000 C 237.443,149.451 237.368,149.375 233.500,154.000" stroke-width="3.349" stroke="black" fill="none" stroke-linecap="round"></path><path d="M 233.500,154.000 C 230.973,156.978 230.943,156.951 228.500,160.000" stroke-width="3.639" stroke="black" fill="none" stroke-linecap="round"></path><path d="M 228.500,160.000 C 223.180,165.000 226.473,162.478 224.500,165.000" stroke-width="4.355" stroke="black" fill="none" stroke-linecap="round"></path><path d="M 224.500,165.000 C 230.641,162.790 227.180,165.000 236.500,160.000" stroke-width="4.404" stroke="black" fill="none" stroke-linecap="round"></path><path d="M 236.500,160.000 C 240.854,157.168 241.141,157.790 245.500,155.000" stroke-width="3.597" stroke="black" fill="none" stroke-linecap="round"></path><path d="M 245.500,155.000 C 248.431,153.708 248.354,153.668 251.500,153.000" stroke-width="3.891" stroke="black" fill="none" stroke-linecap="round"></path><path d="M 251.500,153.000 C 257.799,150.598 254.931,152.208 258.500,152.000" stroke-width="4.382" stroke="black" fill="none" stroke-linecap="round"></path><path d="M 258.500,152.000 C 257.088,155.981 259.299,153.598 254.500,159.000" stroke-width="4.478" stroke="black" fill="none" stroke-linecap="round"></path><path d="M 254.500,159.000 C 250.247,162.253 251.088,162.981 246.500,166.000" stroke-width="3.775" stroke="black" fill="none" stroke-linecap="round"></path><path d="M 246.500,166.000 C 244.124,169.113 243.747,168.753 241.500,172.000" stroke-width="3.960" stroke="black" fill="none" stroke-linecap="round"></path><path d="M 241.500,172.000 C 235.646,176.573 239.124,174.613 236.500,177.000" stroke-width="4.392" stroke="black" fill="none" stroke-linecap="round"></path><path d="M 236.500,177.000 C 241.478,176.413 237.646,177.573 245.500,174.000" stroke-width="4.355" stroke="black" fill="none" stroke-linecap="round"></path><path d="M 245.500,174.000 C 253.869,168.439 253.978,168.913 261.500,162.000" stroke-width="2.866" stroke="black" fill="none" stroke-linecap="round"></path><path d="M 261.500,162.000 C 269.635,154.640 269.869,154.939 277.500,147.000" stroke-width="2.502" stroke="black" fill="none" stroke-linecap="round"></path><path d="M 277.500,147.000 C 287.116,137.613 287.135,137.640 296.500,128.000" stroke-width="2.379" stroke="black" fill="none" stroke-linecap="round"></path><path d="M 296.500,128.000 C 307.532,116.530 307.616,116.613 318.500,105.000" stroke-width="2.125" stroke="black" fill="none" stroke-linecap="round"></path><path d="M 318.500,105.000 C 327.263,96.235 327.032,96.030 335.500,87.000" stroke-width="2.182" stroke="black" fill="none" stroke-linecap="round"></path><path d="M 335.500,87.000 C 343.345,77.364 343.763,77.735 351.500,68.000" stroke-width="2.254" stroke="black" fill="none" stroke-linecap="round"></path><path d="M 351.500,68.000 C 357.039,62.035 356.845,61.864 362.500,56.000" stroke-width="2.603" stroke="black" fill="none" stroke-linecap="round"></path><path d="M 362.500,56.000 C 366.583,51.570 366.539,51.535 370.500,47.000" stroke-width="3.000" stroke="black" fill="none" stroke-linecap="round"></path><path d="M 370.500,47.000 C 376.027,42.153 372.583,44.570 374.500,42.000" stroke-width="3.646" stroke="black" fill="none" stroke-linecap="round"></path><path d="M 374.500,42.000 C 366.984,42.863 371.027,41.653 360.500,46.000" stroke-width="4.128" stroke="black" fill="none" stroke-linecap="round"></path><path d="M 360.500,46.000 C 351.549,50.902 351.484,50.363 343.500,57.000" stroke-width="2.896" stroke="black" fill="none" stroke-linecap="round"></path><path d="M 343.500,57.000 C 335.000,63.500 335.049,63.402 327.500,71.000" stroke-width="2.542" stroke="black" fill="none" stroke-linecap="round"></path><path d="M 327.500,71.000 C 319.858,78.523 320.000,78.500 313.500,87.000" stroke-width="2.512" stroke="black" fill="none" stroke-linecap="round"></path><path d="M 313.500,87.000 C 308.048,94.756 307.858,94.523 303.500,103.000" stroke-width="2.560" stroke="black" fill="none" stroke-linecap="round"></path><path d="M 303.500,103.000 C 300.354,109.437 300.048,109.256 297.500,116.000" stroke-width="2.936" stroke="black" fill="none" stroke-linecap="round"></path><path d="M 297.500,116.000 C 295.452,120.981 295.354,120.937 293.500,126.000" stroke-width="3.222" stroke="black" fill="none" stroke-linecap="round"></path><path d="M 293.500,126.000 C 291.937,129.978 291.952,129.981 290.500,134.000" stroke-width="3.570" stroke="black" fill="none" stroke-linecap="round"></path><path d="M 290.500,134.000 C 287.020,138.150 289.437,136.978 288.500,140.000" stroke-width="3.881" stroke="black" fill="none" stroke-linecap="round"></path><path d="M 288.500,140.000 C 293.323,143.550 291.020,143.150 298.500,144.000" stroke-width="4.491" stroke="black" fill="none" stroke-linecap="round"></path><path d="M 298.500,144.000 C 304.981,142.850 304.823,144.550 311.500,142.000" stroke-width="3.544" stroke="black" fill="none" stroke-linecap="round"></path><path d="M 311.500,142.000 C 316.498,141.476 316.481,141.350 321.500,141.000" stroke-width="3.538" stroke="black" fill="none" stroke-linecap="round"></path><path d="M 321.500,141.000 C 326.991,140.306 326.998,140.476 332.500,140.000" stroke-width="3.388" stroke="black" fill="none" stroke-linecap="round"></path><path d="M 332.500,140.000 C 336.428,138.818 335.991,139.806 339.500,140.000" stroke-width="3.898" stroke="black" fill="none" stroke-linecap="round"></path><path d="M 339.500,140.000 C 344.890,141.748 342.928,141.318 345.500,145.000" stroke-width="4.314" stroke="black" fill="none" stroke-linecap="round"></path><path d="M 345.500,145.000 C 345.949,151.824 346.390,149.748 342.500,156.000" stroke-width="3.538" stroke="black" fill="none" stroke-linecap="round"></path><path d="M 342.500,156.000 C 335.149,163.086 336.449,163.324 326.500,168.000" stroke-width="2.741" stroke="black" fill="none" stroke-linecap="round"></path><path d="M 326.500,168.000 C 312.812,175.275 313.149,175.586 298.500,181.000" stroke-width="2.236" stroke="black" fill="none" stroke-linecap="round"></path><path d="M 298.500,181.000 C 282.769,187.454 282.812,187.275 266.500,192.000" stroke-width="1.975" stroke="black" fill="none" stroke-linecap="round"></path><path d="M 266.500,192.000 C 248.660,196.934 248.769,196.954 230.500,200.000" stroke-width="1.977" stroke="black" fill="none" stroke-linecap="round"></path><path d="M 230.500,200.000 C 210.061,203.201 210.160,203.434 189.500,205.000" stroke-width="1.728" stroke="black" fill="none" stroke-linecap="round"></path><path d="M 189.500,205.000 C 170.013,206.500 170.061,206.701 150.500,207.000" stroke-width="1.713" stroke="black" fill="none" stroke-linecap="round"></path><path d="M 150.500,207.000 C 130.932,208.095 131.013,207.500 111.500,207.000" stroke-width="1.605" stroke="black" fill="none" stroke-linecap="round"></path><path d="M 111.500,207.000 C 95.214,206.261 95.432,206.095 79.500,203.000" stroke-width="1.779" stroke="black" fill="none" stroke-linecap="round"></path><path d="M 79.500,203.000 C 68.008,201.186 68.714,200.761 58.500,196.000" stroke-width="2.197" stroke="black" fill="none" stroke-linecap="round"></path><path d="M 58.500,196.000 C 49.349,191.886 51.508,192.186 46.500,185.000" stroke-width="2.580" stroke="black" fill="none" stroke-linecap="round"></path><path d="M 46.500,185.000 C 44.014,175.413 43.349,177.386 46.500,167.000" stroke-width="2.627" stroke="black" fill="none" stroke-linecap="round"></path><path d="M 46.500,167.000 C 50.739,152.297 50.514,153.413 59.500,141.000" stroke-width="2.152" stroke="black" fill="none" stroke-linecap="round"></path><path d="M 59.500,141.000 C 70.923,128.066 69.739,127.797 84.500,118.000" stroke-width="1.894" stroke="black" fill="none" stroke-linecap="round"></path><path d="M 84.500,118.000 C 100.070,106.008 99.923,106.566 117.500,98.000" stroke-width="1.769" stroke="black" fill="none" stroke-linecap="round"></path><path d="M 117.500,98.000 C 137.587,89.413 137.070,89.008 158.500,84.000" stroke-width="1.530" stroke="black" fill="none" stroke-linecap="round"></path><path d="M 158.500,84.000 C 180.363,78.985 180.087,78.413 202.500,76.000" stroke-width="1.670" stroke="black" fill="none" stroke-linecap="round"></path><path d="M 202.500,76.000 C 225.019,71.057 224.863,72.985 247.500,72.000" stroke-width="1.622" stroke="black" fill="none" stroke-linecap="round"></path><path d="M 247.500,72.000 C 297.043,75.015 296.519,74.057 345.500,82.000" stroke-width="1.737" stroke="black" fill="none" stroke-linecap="round"></path><path d="M 345.500,82.000 C 353.052,83.914 352.543,83.015 358.500,88.000" stroke-width="2.487" stroke="black" fill="none" stroke-linecap="round"></path><path d="M 358.500,88.000 C 362.552,91.296 361.052,89.914 361.500,94.000" stroke-width="3.364" stroke="black" fill="none" stroke-linecap="round"></path><path d="M 361.500,94.000 C 358.016,101.980 359.052,100.296 351.500,106.000" stroke-width="3.049" stroke="black" fill="none" stroke-linecap="round"></path><path d="M 351.500,106.000 C 333.603,116.161 334.516,116.480 314.500,123.000" stroke-width="1.853" stroke="black" fill="none" stroke-linecap="round"></path><path d="M 314.500,123.000 C 292.768,130.284 293.103,130.661 270.500,135.000" stroke-width="1.560" stroke="black" fill="none" stroke-linecap="round"></path><path d="M 270.500,135.000 C 250.076,138.685 250.268,139.284 229.500,141.000" stroke-width="1.565" stroke="black" fill="none" stroke-linecap="round"></path><path d="M 229.500,141.000 C 210.024,143.113 210.076,143.185 190.500,144.000" stroke-width="1.612" stroke="black" fill="none" stroke-linecap="round"></path><path d="M 190.500,144.000 C 177.000,144.000 177.024,144.613 163.500,144.000" stroke-width="2.425" stroke="black" fill="none" stroke-linecap="round"></path><path d="M 163.500,144.000 C 154.975,144.353 155.000,144.000 146.500,144.000" stroke-width="2.629" stroke="black" fill="none" stroke-linecap="round"></path><path d="M 333.500,150.000 C 337.430,151.572 337.500,151.000 341.500,152.000" stroke-width="4.945" stroke="black" fill="none" stroke-linecap="round"></path><path d="M 341.500,152.000 C 347.000,152.000 346.930,152.572 352.500,152.000" stroke-width="3.829" stroke="black" fill="none" stroke-linecap="round"></path><path d="M 352.500,152.000 C 360.520,152.431 360.500,152.000 368.500,152.000" stroke-width="3.056" stroke="black" fill="none" stroke-linecap="round"></path><path d="M 368.500,152.000 C 379.145,151.812 379.020,151.431 389.500,150.000" stroke-width="2.714" stroke="black" fill="none" stroke-linecap="round"></path><path d="M 389.500,150.000 C 399.081,147.770 399.145,148.312 408.500,145.000" stroke-width="2.697" stroke="black" fill="none" stroke-linecap="round"></path><path d="M 408.500,145.000 C 416.000,142.500 416.081,142.770 423.500,140.000" stroke-width="2.846" stroke="black" fill="none" stroke-linecap="round"></path><path d="M 423.500,140.000 C 428.165,138.858 428.000,138.500 432.500,137.000" stroke-width="3.385" stroke="black" fill="none" stroke-linecap="round"></path><path d="M 432.500,137.000 C 438.092,133.803 435.165,135.858 437.500,134.000" stroke-width="4.010" stroke="black" fill="none" stroke-linecap="round"></path><path d="M 437.500,134.000 C 433.534,136.071 436.592,134.303 429.500,138.000" stroke-width="4.292" stroke="black" fill="none" stroke-linecap="round"></path><path d="M 429.500,138.000 C 422.094,141.716 422.034,141.571 414.500,145.000" stroke-width="3.239" stroke="black" fill="none" stroke-linecap="round"></path><path d="M 414.500,145.000 C 403.822,150.554 403.594,149.716 392.500,154.000" stroke-width="2.488" stroke="black" fill="none" stroke-linecap="round"></path><path d="M 392.500,154.000 C 380.680,158.009 380.822,157.554 368.500,159.000" stroke-width="3.094" stroke="black" fill="none" stroke-linecap="round"></path><path d="M 368.500,159.000 C 337.505,160.333 337.680,161.509 306.500,161.000" stroke-width="1.480" stroke="black" fill="none" stroke-linecap="round"></path><path d="M 306.500,161.000 C 290.994,160.723 291.005,161.333 275.500,161.000" stroke-width="1.760" stroke="black" fill="none" stroke-linecap="round"></path><path d="M 275.500,161.000 C 262.866,160.454 262.994,161.223 250.500,162.000" stroke-width="2.043" stroke="black" fill="none" stroke-linecap="round"></path></svg>