<svg xmlns="http://www.w3.org/2000/svg" xmlns:xlink="http://www.w3.org/1999/xlink" viewBox="0 0 453 236" width="453" height="236"><path d="M 42.500,169.000 C 48.180,167.394 48.000,167.000 53.500,165.000" stroke-width="4.959" stroke="black" fill="none" stroke-linecap="round"></path><path d="M 53.500,165.000 C 58.162,162.761 58.180,162.894 62.500,160.000" stroke-width="3.842" stroke="black" fill="none" stroke-linecap="round"></path><path d="M 62.500,160.000 C 69.715,156.282 69.162,155.761 75.500,151.000" stroke-width="3.142" stroke="black" fill="none" stroke-linecap="round"></path><path d="M 75.500,151.000 C 80.477,144.980 81.215,145.782 85.500,139.000" stroke-width="2.992" stroke="black" fill="none" stroke-linecap="round"></path><path d="M 85.500,139.000 C 91.277,132.715 90.977,132.480 96.500,126.000" stroke-width="2.862" stroke="black" fill="none" stroke-linecap="round"></path><path d="M 96.500,126.000 C 101.469,118.978 101.777,119.215 106.500,112.000" stroke-width="2.973" stroke="black" fill="none" stroke-linecap="round"></path><path d="M 106.500,112.000 C 116.649,97.218 116.969,97.478 127.500,83.000" stroke-width="2.115" stroke="black" fill="none" stroke-linecap="round"></path><path d="M 127.500,83.000 C 131.557,78.549 131.149,78.218 135.500,74.000" stroke-width="2.861" stroke="black" fill="none" stroke-linecap="round"></path><path d="M 135.500,74.000 C 138.027,71.022 138.057,71.049 140.500,68.000" stroke-width="3.629" stroke="black" fill="none" stroke-linecap="round"></path><path d="M 140.500,68.000 C 142.376,65.389 142.527,65.522 144.500,63.000" stroke-width="3.978" stroke="black" fill="none" stroke-linecap="round"></path><path d="M 144.500,63.000 C 148.811,57.911 146.376,60.889 148.500,59.000" stroke-width="4.101" stroke="black" fill="none" stroke-linecap="round"></path><path d="M 148.500,59.000 C 146.091,64.897 147.811,61.411 142.500,70.000" stroke-width="4.818" stroke="black" fill="none" stroke-linecap="round"></path><path d="M 142.500,70.000 C 135.878,77.904 136.591,78.397 129.500,86.000" stroke-width="2.962" stroke="black" fill="none" stroke-linecap="round"></path><path d="M 129.500,86.000 C 122.773,94.338 122.878,94.404 116.500,103.000" stroke-width="2.615" stroke="black" fill="none" stroke-linecap="round"></path><path d="M 116.500,103.000 C 112.037,108.743 112.273,108.838 108.500,115.000" stroke-width="2.901" stroke="black" fill="none" stroke-linecap="round"></path><path d="M 108.500,115.000 C 105.477,120.317 105.537,120.243 103.500,126.000" stroke-width="3.107" stroke="black" fill="none" stroke-linecap="round"></path><path d="M 103.500,126.000 C 101.241,131.888 101.477,131.817 100.500,138.000" stroke-width="3.262" stroke="black" fill="none" stroke-linecap="round"></path><path d="M 100.500,138.000 C 99.500,148.524 99.241,148.388 99.500,159.000" stroke-width="3.483" stroke="black" fill="none" stroke-linecap="round"></path><path d="M 99.500,159.000 C 99.646,162.584 99.500,162.524 100.500,166.000" stroke-width="3.991" stroke="black" fill="none" stroke-linecap="round"></path><path d="M 100.500,166.000 C 101.218,170.943 101.646,170.584 103.500,175.000" stroke-width="3.717" stroke="black" fill="none" stroke-linecap="round"></path><path d="M 103.500,175.000 C 105.662,180.321 105.718,178.943 109.500,182.000" stroke-width="4.149" stroke="black" fill="none" stroke-linecap="round"></path><path d="M 109.500,182.000 C 114.744,183.189 113.662,183.821 119.500,182.000" stroke-width="3.643" stroke="black" fill="none" stroke-linecap="round"></path><path d="M 119.500,182.000 C 126.696,179.402 126.744,180.189 133.500,176.000" stroke-width="3.074" stroke="black" fill="none" stroke-linecap="round"></path><path d="M 133.500,176.000 C 143.300,170.100 143.696,170.902 153.500,165.000" stroke-width="2.570" stroke="black" fill="none" stroke-linecap="round"></path><path d="M 153.500,165.000 C 164.448,159.883 164.300,159.600 175.500,155.000" stroke-width="2.392" stroke="black" fill="none" stroke-linecap="round"></path><path d="M 175.500,155.000 C 186.012,150.529 185.948,150.383 196.500,146.000" stroke-width="2.339" stroke="black" fill="none" stroke-linecap="round"></path><path d="M 196.500,146.000 C 208.355,141.696 208.012,141.029 219.500,136.000" stroke-width="2.233" stroke="black" fill="none" stroke-linecap="round"></path><path d="M 219.500,136.000 C 231.129,130.369 230.855,130.196 241.500,123.000" stroke-width="2.243" stroke="black" fill="none" stroke-linecap="round"></path><path d="M 241.500,123.000 C 250.713,116.967 250.129,116.869 257.500,109.000" stroke-width="2.361" stroke="black" fill="none" stroke-linecap="round"></path><path d="M 257.500,109.000 C 261.730,102.772 262.213,103.467 264.500,96.000" stroke-width="2.828" stroke="black" fill="none" stroke-linecap="round"></path><path d="M 161.500,84.000 C 159.117,81.832 159.000,82.000 156.500,80.000" stroke-width="4.986" stroke="black" fill="none" stroke-linecap="round"></path><path d="M 156.500,80.000 C 154.240,77.632 154.117,78.332 151.500,77.000" stroke-width="4.446" stroke="black" fill="none" stroke-linecap="round"></path><path d="M 151.500,77.000 C 147.500,77.000 147.740,76.132 143.500,77.000" stroke-width="3.992" stroke="black" fill="none" stroke-linecap="round"></path><path d="M 143.500,77.000 C 135.895,76.027 136.000,77.000 128.500,77.000" stroke-width="3.232" stroke="black" fill="none" stroke-linecap="round"></path><path d="M 128.500,77.000 C 116.407,77.855 116.895,78.527 105.500,82.000" stroke-width="2.567" stroke="black" fill="none" stroke-linecap="round"></path><path d="M 105.500,82.000 C 91.769,88.594 91.407,87.355 78.500,96.000" stroke-width="2.155" stroke="black" fill="none" stroke-linecap="round"></path><path d="M 78.500,96.000 C 70.159,100.529 70.269,100.594 62.500,106.000" stroke-width="2.538" stroke="black" fill="none" stroke-linecap="round"></path><path d="M 62.500,106.000 C 55.196,110.000 56.159,110.529 50.500,116.000" stroke-width="2.852" stroke="black" fill="none" stroke-linecap="round"></path><path d="M 50.500,116.000 C 46.266,122.229 46.196,121.500 44.500,129.000" stroke-width="2.933" stroke="black" fill="none" stroke-linecap="round"></path><path d="M 44.500,129.000 C 43.617,134.143 43.266,133.729 44.500,139.000" stroke-width="3.284" stroke="black" fill="none" stroke-linecap="round"></path><path d="M 44.500,139.000 C 43.566,147.793 45.617,145.143 48.500,151.000" stroke-width="3.480" stroke="black" fill="none" stroke-linecap="round"></path><path d="M 48.500,151.000 C 65.990,160.448 63.566,160.793 84.500,165.000" stroke-width="1.957" stroke="black" fill="none" stroke-linecap="round"></path><path d="M 84.500,165.000 C 96.998,166.000 96.490,167.948 109.500,166.000" stroke-width="2.117" stroke="black" fill="none" stroke-linecap="round"></path><path d="M 109.500,166.000 C 125.377,167.607 124.998,166.000 140.500,165.000" stroke-width="2.081" stroke="black" fill="none" stroke-linecap="round"></path><path d="M 140.500,165.000 C 154.873,162.167 154.377,162.607 167.500,156.000" stroke-width="2.149" stroke="black" fill="none" stroke-linecap="round"></path><path d="M 167.500,156.000 C 177.128,151.391 176.373,151.667 183.500,144.000" stroke-width="2.531" stroke="black" fill="none" stroke-linecap="round"></path><path d="M 183.500,144.000 C 189.158,135.912 189.628,136.891 192.500,127.000" stroke-width="2.547" stroke="black" fill="none" stroke-linecap="round"></path><path d="M 192.500,127.000 C 195.500,119.500 195.158,119.912 195.500,112.000" stroke-width="2.769" stroke="black" fill="none" stroke-linecap="round"></path><path d="M 195.500,112.000 C 196.496,102.594 195.500,104.500 192.500,97.000" stroke-width="2.843" stroke="black" fill="none" stroke-linecap="round"></path><path d="M 169.500,131.000 C 173.011,139.168 174.000,138.000 178.500,145.000" stroke-width="3.415" stroke="black" fill="none" stroke-linecap="round"></path><path d="M 178.500,145.000 C 181.806,147.446 181.011,147.668 185.500,148.000" stroke-width="3.731" stroke="black" fill="none" stroke-linecap="round"></path><path d="M 185.500,148.000 C 192.264,149.408 191.806,148.946 198.500,148.000" stroke-width="3.333" stroke="black" fill="none" stroke-linecap="round"></path><path d="M 198.500,148.000 C 208.010,145.481 207.764,145.908 216.500,141.000" stroke-width="2.810" stroke="black" fill="none" stroke-linecap="round"></path><path d="M 216.500,141.000 C 225.895,135.519 226.010,135.981 234.500,129.000" stroke-width="2.503" stroke="black" fill="none" stroke-linecap="round"></path><path d="M 234.500,129.000 C 241.445,121.669 242.395,123.019 249.500,116.000" stroke-width="2.508" stroke="black" fill="none" stroke-linecap="round"></path><path d="M 249.500,116.000 C 255.254,112.186 254.945,112.169 261.500,110.000" stroke-width="2.922" stroke="black" fill="none" stroke-linecap="round"></path><path d="M 261.500,110.000 C 268.843,106.537 265.254,108.686 269.500,109.000" stroke-width="3.535" stroke="black" fill="none" stroke-linecap="round"></path><path d="M 269.500,109.000 C 269.357,117.966 270.843,114.037 265.500,125.000" stroke-width="3.683" stroke="black" fill="none" stroke-linecap="round"></path><path d="M 265.500,125.000 C 258.910,132.424 260.857,133.466 252.500,140.000" stroke-width="2.776" stroke="black" fill="none" stroke-linecap="round"></path><path d="M 252.500,140.000 C 248.326,145.829 247.910,145.424 243.500,151.000" stroke-width="2.915" stroke="black" fill="none" stroke-linecap="round"></path><path d="M 243.500,151.000 C 236.857,155.767 241.326,153.329 238.500,155.000" stroke-width="3.608" stroke="black" fill="none" stroke-linecap="round"></path><path d="M 238.500,155.000 C 248.397,149.304 244.357,152.267 258.500,144.000" stroke-width="3.766" stroke="black" fill="none" stroke-linecap="round"></path><path d="M 258.500,144.000 C 268.313,138.584 268.397,138.804 278.500,134.000" stroke-width="2.719" stroke="black" fill="none" stroke-linecap="round"></path><path d="M 278.500,134.000 C 288.311,129.396 288.313,129.584 298.500,126.000" stroke-width="2.486" stroke="black" fill="none" stroke-linecap="round"></path><path d="M 298.500,126.000 C 304.947,124.035 304.811,123.896 311.500,123.000" stroke-width="2.964" stroke="black" fill="none" stroke-linecap="round"></path><path d="M 311.500,123.000 C 315.392,121.682 314.447,122.535 317.500,123.000" stroke-width="3.709" stroke="black" fill="none" stroke-linecap="round"></path><path d="M 317.500,123.000 C 317.241,127.049 319.392,124.182 319.500,128.000" stroke-width="4.560" stroke="black" fill="none" stroke-linecap="round"></path><path d="M 319.500,128.000 C 328.019,131.917 326.741,131.049 336.500,131.000" stroke-width="4.319" stroke="black" fill="none" stroke-linecap="round"></path><path d="M 336.500,131.000 C 364.961,125.285 365.019,127.917 393.500,120.000" stroke-width="1.549" stroke="black" fill="none" stroke-linecap="round"></path><path d="M 393.500,120.000 C 405.507,118.041 405.461,117.785 417.500,116.000" stroke-width="2.015" stroke="black" fill="none" stroke-linecap="round"></path><path d="M 417.500,116.000 C 428.943,113.576 429.007,114.041 440.500,112.000" stroke-width="2.198" stroke="black" fill="none" stroke-linecap="round"></path><path d="M 440.500,112.000 C 451.105,111.641 450.943,110.576 461.500,110.000" stroke-width="2.408" stroke="black" fill="none" stroke-linecap="round"></path><path d="M 461.500,110.000 C 469.935,107.658 470.105,108.641 478.500,106.000" stroke-width="2.653" stroke="black" fill="none" stroke-linecap="round"></path><path d="M 478.500,106.000 C 485.474,104.639 485.435,104.658 492.500,104.000" stroke-width="2.878" stroke="black" fill="none" stroke-linecap="round"></path><path d="M 422.500,140.000 C 416.547,138.432 416.500,139.000 410.500,138.000" stroke-width="3.170" stroke="black" fill="none" stroke-linecap="round"></path><path d="M 410.500,138.000 C 402.451,138.663 402.547,137.432 394.500,138.000" stroke-width="2.974" stroke="black" fill="none" stroke-linecap="round"></path><path d="M 394.500,138.000 C 384.521,136.349 384.451,137.163 374.500,135.000" stroke-width="2.678" stroke="black" fill="none" stroke-linecap="round"></path><path d="M 374.500,135.000 C 358.538,132.627 358.521,132.849 342.500,131.000" stroke-width="2.116" stroke="black" fill="none" stroke-linecap="round"></path><path d="M 342.500,131.000 C 324.033,128.678 324.038,129.127 305.500,128.000" stroke-width="1.859" stroke="black" fill="none" stroke-linecap="round"></path><path d="M 305.500,128.000 C 282.937,126.794 283.033,127.178 260.500,128.000" stroke-width="1.573" stroke="black" fill="none" stroke-linecap="round"></path><path d="M 260.500,128.000 C 236.401,129.777 236.437,129.294 212.500,133.000" stroke-width="1.496" stroke="black" fill="none" stroke-linecap="round"></path><path d="M 212.500,133.000 C 192.081,137.101 191.901,135.777 171.500,140.000" stroke-width="1.589" stroke="black" fill="none" stroke-linecap="round"></path><path d="M 171.500,140.000 C 156.412,143.298 156.581,142.101 141.500,143.000" stroke-width="1.826" stroke="black" fill="none" stroke-linecap="round"></path></svg>