<svg xmlns="http://www.w3.org/2000/svg" xmlns:xlink="http://www.w3.org/1999/xlink" viewBox="0 0 453 236" width="453" height="236"><path d="M 153.500,76.000 C 152.750,72.250 152.000,73.000 150.500,70.000" stroke-width="3.155" stroke="black" fill="none" stroke-linecap="round"></path><path d="M 150.500,70.000 C 147.681,67.734 148.250,67.750 144.500,67.000" stroke-width="4.131" stroke="black" fill="none" stroke-linecap="round"></path><path d="M 144.500,67.000 C 141.000,67.000 141.181,66.234 137.500,67.000" stroke-width="3.976" stroke="black" fill="none" stroke-linecap="round"></path><path d="M 137.500,67.000 C 132.898,66.306 133.000,67.000 128.500,67.000" stroke-width="3.705" stroke="black" fill="none" stroke-linecap="round"></path><path d="M 128.500,67.000 C 123.427,68.286 123.398,67.806 118.500,70.000" stroke-width="3.548" stroke="black" fill="none" stroke-linecap="round"></path><path d="M 118.500,70.000 C 111.537,71.595 111.927,72.286 105.500,75.000" stroke-width="3.276" stroke="black" fill="none" stroke-linecap="round"></path><path d="M 105.500,75.000 C 90.899,81.942 92.037,82.595 79.500,92.000" stroke-width="2.185" stroke="black" fill="none" stroke-linecap="round"></path><path d="M 79.500,92.000 C 74.162,97.983 73.899,96.942 71.500,105.000" stroke-width="2.628" stroke="black" fill="none" stroke-linecap="round"></path><path d="M 71.500,105.000 C 69.506,112.954 68.662,112.483 68.500,121.000" stroke-width="3.334" stroke="black" fill="none" stroke-linecap="round"></path><path d="M 68.500,121.000 C 67.504,125.265 68.006,124.954 68.500,129.000" stroke-width="3.615" stroke="black" fill="none" stroke-linecap="round"></path><path d="M 68.500,129.000 C 70.271,132.656 69.504,132.765 72.500,136.000" stroke-width="3.753" stroke="black" fill="none" stroke-linecap="round"></path><path d="M 72.500,136.000 C 74.145,138.906 74.271,138.656 76.500,141.000" stroke-width="3.980" stroke="black" fill="none" stroke-linecap="round"></path><path d="M 76.500,141.000 C 78.808,143.021 78.645,142.906 81.500,144.000" stroke-width="4.124" stroke="black" fill="none" stroke-linecap="round"></path><path d="M 81.500,144.000 C 84.475,144.798 84.308,145.021 87.500,145.000" stroke-width="4.090" stroke="black" fill="none" stroke-linecap="round"></path><path d="M 87.500,145.000 C 92.302,146.166 91.975,145.298 96.500,145.000" stroke-width="4.315" stroke="black" fill="none" stroke-linecap="round"></path><path d="M 96.500,145.000 C 100.857,142.199 101.302,143.666 105.500,140.000" stroke-width="3.772" stroke="black" fill="none" stroke-linecap="round"></path><path d="M 105.500,140.000 C 110.380,137.629 110.357,137.699 115.500,136.000" stroke-width="3.475" stroke="black" fill="none" stroke-linecap="round"></path><path d="M 115.500,136.000 C 121.481,134.416 121.380,134.129 127.500,133.000" stroke-width="3.319" stroke="black" fill="none" stroke-linecap="round"></path><path d="M 127.500,133.000 C 130.068,132.730 129.981,132.416 132.500,132.000" stroke-width="3.966" stroke="black" fill="none" stroke-linecap="round"></path><path d="M 205.500,65.000 C 203.881,67.435 204.000,67.500 202.500,70.000" stroke-width="4.931" stroke="black" fill="none" stroke-linecap="round"></path><path d="M 202.500,70.000 C 200.763,74.153 200.381,73.935 198.500,78.000" stroke-width="4.150" stroke="black" fill="none" stroke-linecap="round"></path><path d="M 198.500,78.000 C 195.318,82.389 195.763,82.653 192.500,87.000" stroke-width="3.624" stroke="black" fill="none" stroke-linecap="round"></path><path d="M 192.500,87.000 C 189.606,91.320 189.818,91.389 187.500,96.000" stroke-width="3.539" stroke="black" fill="none" stroke-linecap="round"></path><path d="M 187.500,96.000 C 185.583,101.532 185.106,101.320 183.500,107.000" stroke-width="3.391" stroke="black" fill="none" stroke-linecap="round"></path><path d="M 183.500,107.000 C 180.972,111.848 181.583,112.032 179.500,117.000" stroke-width="3.428" stroke="black" fill="none" stroke-linecap="round"></path><path d="M 179.500,117.000 C 178.917,122.615 177.972,122.348 177.500,128.000" stroke-width="3.594" stroke="black" fill="none" stroke-linecap="round"></path><path d="M 177.500,128.000 C 175.772,131.929 176.417,132.115 174.500,136.000" stroke-width="3.746" stroke="black" fill="none" stroke-linecap="round"></path><path d="M 174.500,136.000 C 173.740,140.073 173.272,139.929 172.500,144.000" stroke-width="3.775" stroke="black" fill="none" stroke-linecap="round"></path><path d="M 172.500,144.000 C 170.555,149.521 170.740,149.573 168.500,155.000" stroke-width="3.390" stroke="black" fill="none" stroke-linecap="round"></path><path d="M 168.500,155.000 C 167.204,157.417 167.555,157.521 166.500,160.000" stroke-width="3.924" stroke="black" fill="none" stroke-linecap="round"></path><path d="M 213.500,128.000 C 211.800,130.401 212.000,130.500 210.500,133.000" stroke-width="5.261" stroke="black" fill="none" stroke-linecap="round"></path><path d="M 210.500,133.000 C 209.500,135.500 209.300,135.401 208.500,138.000" stroke-width="4.527" stroke="black" fill="none" stroke-linecap="round"></path><path d="M 208.500,138.000 C 207.290,140.432 207.500,140.500 206.500,143.000" stroke-width="4.345" stroke="black" fill="none" stroke-linecap="round"></path><circle r="1.5" cx="234.5" cy="84" fill="black"></circle><path d="M 236.500,141.000 C 245.965,142.941 246.000,142.500 255.500,144.000" stroke-width="4.393" stroke="black" fill="none" stroke-linecap="round"></path><path d="M 255.500,144.000 C 259.500,144.000 259.465,144.441 263.500,144.000" stroke-width="3.979" stroke="black" fill="none" stroke-linecap="round"></path><path d="M 263.500,144.000 C 267.765,144.996 267.500,144.000 271.500,144.000" stroke-width="3.870" stroke="black" fill="none" stroke-linecap="round"></path><path d="M 271.500,144.000 C 275.333,142.436 275.265,142.996 278.500,140.000" stroke-width="3.832" stroke="black" fill="none" stroke-linecap="round"></path><path d="M 278.500,140.000 C 282.375,137.541 281.833,137.436 284.500,134.000" stroke-width="3.721" stroke="black" fill="none" stroke-linecap="round"></path><path d="M 284.500,134.000 C 286.850,129.553 286.875,130.041 287.500,125.000" stroke-width="4.152" stroke="black" fill="none" stroke-linecap="round"></path><path d="M 287.500,125.000 C 288.248,121.398 287.850,122.553 286.500,120.000" stroke-width="4.231" stroke="black" fill="none" stroke-linecap="round"></path><path d="M 286.500,120.000 C 282.141,117.633 283.248,117.398 277.500,117.000" stroke-width="3.776" stroke="black" fill="none" stroke-linecap="round"></path><path d="M 277.500,117.000 C 271.000,117.000 271.141,116.133 264.500,117.000" stroke-width="3.460" stroke="black" fill="none" stroke-linecap="round"></path><path d="M 264.500,117.000 C 259.206,115.893 259.500,117.000 254.500,117.000" stroke-width="3.517" stroke="black" fill="none" stroke-linecap="round"></path><path d="M 254.500,117.000 C 250.403,118.339 250.706,117.893 247.500,121.000" stroke-width="3.721" stroke="black" fill="none" stroke-linecap="round"></path><path d="M 247.500,121.000 C 244.049,124.128 244.403,123.839 242.500,128.000" stroke-width="3.731" stroke="black" fill="none" stroke-linecap="round"></path><path d="M 242.500,128.000 C 241.751,131.984 241.049,131.628 241.500,136.000" stroke-width="3.737" stroke="black" fill="none" stroke-linecap="round"></path><path d="M 241.500,136.000 C 240.732,140.158 241.251,139.984 241.500,144.000" stroke-width="3.798" stroke="black" fill="none" stroke-linecap="round"></path><path d="M 241.500,144.000 C 242.204,148.078 242.232,147.658 244.500,151.000" stroke-width="3.858" stroke="black" fill="none" stroke-linecap="round"></path><path d="M 244.500,151.000 C 247.950,155.725 247.704,155.078 252.500,158.000" stroke-width="4.127" stroke="black" fill="none" stroke-linecap="round"></path><path d="M 252.500,158.000 C 256.500,158.500 255.950,159.725 260.500,159.000" stroke-width="3.904" stroke="black" fill="none" stroke-linecap="round"></path><path d="M 260.500,159.000 C 264.484,159.749 264.500,159.500 268.500,160.000" stroke-width="3.788" stroke="black" fill="none" stroke-linecap="round"></path><path d="M 268.500,160.000 C 272.573,160.524 272.484,160.249 276.500,160.000" stroke-width="3.814" stroke="black" fill="none" stroke-linecap="round"></path><path d="M 276.500,160.000 C 280.308,159.596 280.073,159.524 283.500,158.000" stroke-width="3.850" stroke="black" fill="none" stroke-linecap="round"></path><path d="M 307.500,122.000 C 309.087,124.905 308.500,125.000 309.500,128.000" stroke-width="5.131" stroke="black" fill="none" stroke-linecap="round"></path><path d="M 309.500,128.000 C 309.819,132.532 310.087,132.405 309.500,137.000" stroke-width="4.633" stroke="black" fill="none" stroke-linecap="round"></path><path d="M 309.500,137.000 C 309.230,139.568 309.319,139.532 308.500,142.000" stroke-width="4.415" stroke="black" fill="none" stroke-linecap="round"></path><path d="M 308.500,142.000 C 307.536,144.515 307.730,144.568 306.500,147.000" stroke-width="4.268" stroke="black" fill="none" stroke-linecap="round"></path><path d="M 306.500,147.000 C 302.383,153.553 305.036,150.515 303.500,154.000" stroke-width="4.680" stroke="black" fill="none" stroke-linecap="round"></path><path d="M 303.500,154.000 C 307.944,152.009 304.883,154.553 311.500,149.000" stroke-width="4.462" stroke="black" fill="none" stroke-linecap="round"></path><path d="M 311.500,149.000 C 313.864,145.876 314.444,146.509 316.500,143.000" stroke-width="4.070" stroke="black" fill="none" stroke-linecap="round"></path><path d="M 316.500,143.000 C 319.029,139.314 319.364,139.876 322.500,137.000" stroke-width="3.786" stroke="black" fill="none" stroke-linecap="round"></path><path d="M 322.500,137.000 C 326.843,133.873 326.529,134.314 331.500,133.000" stroke-width="4.171" stroke="black" fill="none" stroke-linecap="round"></path><path d="M 331.500,133.000 C 336.176,132.257 334.843,132.373 338.500,134.000" stroke-width="4.484" stroke="black" fill="none" stroke-linecap="round"></path><path d="M 338.500,134.000 C 339.289,136.471 340.176,135.257 339.500,139.000" stroke-width="4.373" stroke="black" fill="none" stroke-linecap="round"></path><path d="M 339.500,139.000 C 340.176,142.622 339.789,142.471 339.500,146.000" stroke-width="4.093" stroke="black" fill="none" stroke-linecap="round"></path><path d="M 339.500,146.000 C 337.937,149.978 338.676,150.122 336.500,154.000" stroke-width="3.842" stroke="black" fill="none" stroke-linecap="round"></path><path d="M 336.500,154.000 C 335.208,156.931 335.437,156.978 334.500,160.000" stroke-width="4.417" stroke="black" fill="none" stroke-linecap="round"></path><path d="M 395.500,69.000 C 399.139,64.292 398.500,67.000 401.500,65.000" stroke-width="4.739" stroke="black" fill="none" stroke-linecap="round"></path><path d="M 401.500,65.000 C 404.734,68.172 404.139,65.792 405.500,72.000" stroke-width="4.584" stroke="black" fill="none" stroke-linecap="round"></path><path d="M 405.500,72.000 C 406.124,78.552 406.734,78.172 405.500,85.000" stroke-width="3.436" stroke="black" fill="none" stroke-linecap="round"></path><path d="M 405.500,85.000 C 405.420,94.506 404.624,94.052 402.500,103.000" stroke-width="2.827" stroke="black" fill="none" stroke-linecap="round"></path><path d="M 402.500,103.000 C 398.577,110.045 399.920,110.506 394.500,117.000" stroke-width="2.869" stroke="black" fill="none" stroke-linecap="round"></path><path d="M 394.500,117.000 C 389.047,124.087 390.077,124.545 385.500,132.000" stroke-width="2.739" stroke="black" fill="none" stroke-linecap="round"></path><path d="M 385.500,132.000 C 382.557,138.868 382.547,138.587 381.500,146.000" stroke-width="2.936" stroke="black" fill="none" stroke-linecap="round"></path><path d="M 381.500,146.000 C 381.500,152.500 380.557,152.368 381.500,159.000" stroke-width="3.051" stroke="black" fill="none" stroke-linecap="round"></path><path d="M 381.500,159.000 C 380.590,163.752 381.500,163.500 381.500,168.000" stroke-width="3.416" stroke="black" fill="none" stroke-linecap="round"></path><path d="M 431.500,115.000 C 426.511,115.722 426.500,115.500 421.500,116.000" stroke-width="5.026" stroke="black" fill="none" stroke-linecap="round"></path><path d="M 421.500,116.000 C 417.494,115.818 417.511,116.222 413.500,116.000" stroke-width="4.176" stroke="black" fill="none" stroke-linecap="round"></path><path d="M 413.500,116.000 C 406.509,116.758 406.494,116.318 399.500,117.000" stroke-width="3.344" stroke="black" fill="none" stroke-linecap="round"></path><path d="M 399.500,117.000 C 391.963,116.485 392.009,117.258 384.500,117.000" stroke-width="3.146" stroke="black" fill="none" stroke-linecap="round"></path><path d="M 384.500,117.000 C 377.526,118.247 377.463,117.485 370.500,119.000" stroke-width="3.201" stroke="black" fill="none" stroke-linecap="round"></path><path d="M 370.500,119.000 C 363.495,119.440 363.526,119.747 356.500,120.000" stroke-width="3.055" stroke="black" fill="none" stroke-linecap="round"></path><path d="M 356.500,120.000 C 351.009,120.694 350.995,120.440 345.500,121.000" stroke-width="3.390" stroke="black" fill="none" stroke-linecap="round"></path><path d="M 345.500,121.000 C 341.915,120.475 342.009,121.194 338.500,121.000" stroke-width="3.785" stroke="black" fill="none" stroke-linecap="round"></path></svg>