<svg xmlns="http://www.w3.org/2000/svg" xmlns:xlink="http://www.w3.org/1999/xlink" viewBox="0 0 453 236" width="453" height="236"><path d="M 108.500,158.000 C 105.693,155.684 105.500,156.500 102.500,155.000" stroke-width="3.367" stroke="black" fill="none" stroke-linecap="round"></path><path d="M 102.500,155.000 C 98.182,156.052 98.693,154.184 94.500,155.000" stroke-width="4.290" stroke="black" fill="none" stroke-linecap="round"></path><path d="M 94.500,155.000 C 91.500,153.000 91.182,154.052 88.500,151.000" stroke-width="4.530" stroke="black" fill="none" stroke-linecap="round"></path><path d="M 88.500,151.000 C 82.272,149.052 85.500,149.000 82.500,147.000" stroke-width="4.607" stroke="black" fill="none" stroke-linecap="round"></path><path d="M 82.500,147.000 C 85.923,144.385 82.772,144.552 89.500,142.000" stroke-width="5.032" stroke="black" fill="none" stroke-linecap="round"></path><path d="M 89.500,142.000 C 93.381,139.288 93.423,139.385 97.500,137.000" stroke-width="4.012" stroke="black" fill="none" stroke-linecap="round"></path><path d="M 97.500,137.000 C 102.763,134.932 102.381,134.288 107.500,132.000" stroke-width="3.616" stroke="black" fill="none" stroke-linecap="round"></path><path d="M 107.500,132.000 C 112.847,127.769 113.263,128.432 118.500,124.000" stroke-width="3.193" stroke="black" fill="none" stroke-linecap="round"></path><path d="M 118.500,124.000 C 123.696,121.287 123.347,120.769 128.500,118.000" stroke-width="3.292" stroke="black" fill="none" stroke-linecap="round"></path><path d="M 128.500,118.000 C 132.881,114.336 133.196,114.787 137.500,111.000" stroke-width="3.397" stroke="black" fill="none" stroke-linecap="round"></path><path d="M 137.500,111.000 C 142.000,108.000 141.881,107.836 146.500,105.000" stroke-width="3.368" stroke="black" fill="none" stroke-linecap="round"></path><path d="M 146.500,105.000 C 149.392,102.813 149.500,103.000 152.500,101.000" stroke-width="3.755" stroke="black" fill="none" stroke-linecap="round"></path><path d="M 152.500,101.000 C 155.449,99.387 155.392,99.313 158.500,98.000" stroke-width="3.898" stroke="black" fill="none" stroke-linecap="round"></path><path d="M 158.500,98.000 C 162.362,94.537 160.949,96.887 163.500,96.000" stroke-width="4.153" stroke="black" fill="none" stroke-linecap="round"></path><path d="M 163.500,96.000 C 166.995,102.089 165.862,99.037 165.500,107.000" stroke-width="4.454" stroke="black" fill="none" stroke-linecap="round"></path><path d="M 165.500,107.000 C 161.271,113.224 163.495,113.589 156.500,119.000" stroke-width="3.316" stroke="black" fill="none" stroke-linecap="round"></path><path d="M 156.500,119.000 C 151.850,124.856 151.771,124.724 146.500,130.000" stroke-width="3.148" stroke="black" fill="none" stroke-linecap="round"></path><path d="M 146.500,130.000 C 138.623,137.146 138.850,137.356 130.500,144.000" stroke-width="2.664" stroke="black" fill="none" stroke-linecap="round"></path><path d="M 130.500,144.000 C 122.768,150.858 122.623,150.646 114.500,157.000" stroke-width="2.688" stroke="black" fill="none" stroke-linecap="round"></path><path d="M 114.500,157.000 C 104.964,163.448 105.268,163.858 95.500,170.000" stroke-width="2.409" stroke="black" fill="none" stroke-linecap="round"></path><path d="M 95.500,170.000 C 85.574,177.108 85.464,176.948 75.500,184.000" stroke-width="2.338" stroke="black" fill="none" stroke-linecap="round"></path><path d="M 75.500,184.000 C 66.358,189.799 66.574,190.108 57.500,196.000" stroke-width="2.625" stroke="black" fill="none" stroke-linecap="round"></path><path d="M 57.500,196.000 C 51.689,200.780 51.358,200.299 45.500,205.000" stroke-width="2.814" stroke="black" fill="none" stroke-linecap="round"></path><path d="M 45.500,205.000 C 40.642,208.278 40.689,208.280 35.500,211.000" stroke-width="3.108" stroke="black" fill="none" stroke-linecap="round"></path><path d="M 35.500,211.000 C 32.015,212.536 32.142,212.778 28.500,214.000" stroke-width="3.655" stroke="black" fill="none" stroke-linecap="round"></path><path d="M 28.500,214.000 C 25.250,216.750 26.015,215.036 23.500,216.000" stroke-width="4.066" stroke="black" fill="none" stroke-linecap="round"></path><path d="M 23.500,216.000 C 20.659,213.186 21.750,215.250 21.500,211.000" stroke-width="4.784" stroke="black" fill="none" stroke-linecap="round"></path><path d="M 21.500,211.000 C 24.853,206.862 23.159,206.686 28.500,203.000" stroke-width="3.706" stroke="black" fill="none" stroke-linecap="round"></path><path d="M 28.500,203.000 C 33.054,197.456 33.353,197.862 38.500,193.000" stroke-width="3.237" stroke="black" fill="none" stroke-linecap="round"></path><path d="M 38.500,193.000 C 44.283,188.626 44.054,188.456 50.500,185.000" stroke-width="3.099" stroke="black" fill="none" stroke-linecap="round"></path><path d="M 50.500,185.000 C 56.453,181.902 56.283,181.626 62.500,179.000" stroke-width="3.130" stroke="black" fill="none" stroke-linecap="round"></path><path d="M 62.500,179.000 C 68.807,175.479 68.953,175.902 75.500,173.000" stroke-width="3.015" stroke="black" fill="none" stroke-linecap="round"></path><path d="M 75.500,173.000 C 82.500,171.000 82.307,170.479 89.500,169.000" stroke-width="2.966" stroke="black" fill="none" stroke-linecap="round"></path><path d="M 89.500,169.000 C 96.573,167.227 96.500,167.000 103.500,165.000" stroke-width="3.206" stroke="black" fill="none" stroke-linecap="round"></path><path d="M 103.500,165.000 C 110.651,162.854 110.573,162.727 117.500,160.000" stroke-width="2.997" stroke="black" fill="none" stroke-linecap="round"></path><path d="M 117.500,160.000 C 122.407,157.292 122.651,157.854 127.500,155.000" stroke-width="3.210" stroke="black" fill="none" stroke-linecap="round"></path><path d="M 127.500,155.000 C 132.570,153.157 132.407,152.792 137.500,151.000" stroke-width="3.315" stroke="black" fill="none" stroke-linecap="round"></path><path d="M 137.500,151.000 C 140.548,149.590 140.570,149.657 143.500,148.000" stroke-width="3.787" stroke="black" fill="none" stroke-linecap="round"></path><path d="M 143.500,148.000 C 151.346,144.846 147.048,146.090 150.500,144.000" stroke-width="4.272" stroke="black" fill="none" stroke-linecap="round"></path><path d="M 150.500,144.000 C 144.471,142.538 149.346,142.846 139.500,144.000" stroke-width="4.722" stroke="black" fill="none" stroke-linecap="round"></path><path d="M 139.500,144.000 C 136.500,146.500 135.971,145.038 133.500,149.000" stroke-width="4.133" stroke="black" fill="none" stroke-linecap="round"></path><path d="M 133.500,149.000 C 130.593,151.621 130.500,151.500 127.500,154.000" stroke-width="3.879" stroke="black" fill="none" stroke-linecap="round"></path><path d="M 127.500,154.000 C 123.940,156.420 124.093,156.621 120.500,159.000" stroke-width="3.722" stroke="black" fill="none" stroke-linecap="round"></path><path d="M 120.500,159.000 C 117.865,160.850 117.940,160.920 115.500,163.000" stroke-width="3.969" stroke="black" fill="none" stroke-linecap="round"></path><path d="M 115.500,163.000 C 110.724,165.635 112.365,165.850 109.500,169.000" stroke-width="4.328" stroke="black" fill="none" stroke-linecap="round"></path><path d="M 109.500,169.000 C 109.370,173.017 108.724,171.135 111.500,174.000" stroke-width="4.904" stroke="black" fill="none" stroke-linecap="round"></path><path d="M 111.500,174.000 C 116.992,174.676 115.870,176.017 122.500,175.000" stroke-width="4.447" stroke="black" fill="none" stroke-linecap="round"></path><path d="M 122.500,175.000 C 125.527,175.270 125.492,175.176 128.500,175.000" stroke-width="4.285" stroke="black" fill="none" stroke-linecap="round"></path><path d="M 128.500,175.000 C 131.167,174.933 131.027,174.770 133.500,174.000" stroke-width="4.271" stroke="black" fill="none" stroke-linecap="round"></path><path d="M 133.500,174.000 C 136.117,172.668 136.167,172.933 138.500,171.000" stroke-width="4.166" stroke="black" fill="none" stroke-linecap="round"></path><path d="M 138.500,171.000 C 141.248,169.252 141.117,169.168 143.500,167.000" stroke-width="4.110" stroke="black" fill="none" stroke-linecap="round"></path><path d="M 143.500,167.000 C 148.760,163.600 146.248,164.252 148.500,161.000" stroke-width="4.456" stroke="black" fill="none" stroke-linecap="round"></path><path d="M 148.500,161.000 C 145.755,157.814 148.260,158.600 142.500,157.000" stroke-width="4.930" stroke="black" fill="none" stroke-linecap="round"></path><path d="M 142.500,157.000 C 135.904,157.404 139.755,156.314 136.500,158.000" stroke-width="4.802" stroke="black" fill="none" stroke-linecap="round"></path><path d="M 136.500,158.000 C 141.359,160.920 137.404,158.904 145.500,160.000" stroke-width="5.083" stroke="black" fill="none" stroke-linecap="round"></path><path d="M 145.500,160.000 C 150.000,157.000 150.359,158.920 154.500,154.000" stroke-width="3.872" stroke="black" fill="none" stroke-linecap="round"></path><path d="M 154.500,154.000 C 160.651,150.211 160.500,150.000 166.500,146.000" stroke-width="3.184" stroke="black" fill="none" stroke-linecap="round"></path><path d="M 166.500,146.000 C 173.027,141.035 173.151,141.211 179.500,136.000" stroke-width="2.952" stroke="black" fill="none" stroke-linecap="round"></path><path d="M 179.500,136.000 C 186.729,130.768 186.527,130.535 193.500,125.000" stroke-width="2.806" stroke="black" fill="none" stroke-linecap="round"></path><path d="M 193.500,125.000 C 200.000,119.000 200.229,119.268 206.500,113.000" stroke-width="2.710" stroke="black" fill="none" stroke-linecap="round"></path><path d="M 206.500,113.000 C 212.876,106.860 213.000,107.000 219.500,101.000" stroke-width="2.742" stroke="black" fill="none" stroke-linecap="round"></path><path d="M 219.500,101.000 C 225.980,95.477 225.876,95.360 232.500,90.000" stroke-width="2.730" stroke="black" fill="none" stroke-linecap="round"></path><path d="M 232.500,90.000 C 238.700,85.220 238.480,84.977 244.500,80.000" stroke-width="2.810" stroke="black" fill="none" stroke-linecap="round"></path><path d="M 244.500,80.000 C 248.836,76.275 248.700,76.220 252.500,72.000" stroke-width="3.185" stroke="black" fill="none" stroke-linecap="round"></path><path d="M 252.500,72.000 C 254.902,69.196 254.836,69.275 256.500,66.000" stroke-width="3.640" stroke="black" fill="none" stroke-linecap="round"></path><path d="M 256.500,66.000 C 260.382,60.289 257.902,63.196 258.500,60.000" stroke-width="4.334" stroke="black" fill="none" stroke-linecap="round"></path><path d="M 258.500,60.000 C 250.559,60.975 253.882,59.289 243.500,64.000" stroke-width="3.965" stroke="black" fill="none" stroke-linecap="round"></path><path d="M 243.500,64.000 C 236.810,67.718 236.559,66.975 230.500,72.000" stroke-width="3.136" stroke="black" fill="none" stroke-linecap="round"></path><path d="M 230.500,72.000 C 222.711,77.141 222.810,77.218 215.500,83.000" stroke-width="2.807" stroke="black" fill="none" stroke-linecap="round"></path><path d="M 215.500,83.000 C 206.500,90.000 206.711,90.141 198.500,98.000" stroke-width="2.453" stroke="black" fill="none" stroke-linecap="round"></path><path d="M 198.500,98.000 C 190.729,106.275 190.500,106.000 183.500,115.000" stroke-width="2.364" stroke="black" fill="none" stroke-linecap="round"></path><path d="M 183.500,115.000 C 176.340,123.880 176.229,123.775 169.500,133.000" stroke-width="2.391" stroke="black" fill="none" stroke-linecap="round"></path><path d="M 169.500,133.000 C 164.129,139.767 164.340,139.880 159.500,147.000" stroke-width="2.606" stroke="black" fill="none" stroke-linecap="round"></path><path d="M 159.500,147.000 C 156.300,152.400 156.129,152.267 153.500,158.000" stroke-width="2.967" stroke="black" fill="none" stroke-linecap="round"></path><path d="M 153.500,158.000 C 150.081,164.363 150.300,164.400 147.500,171.000" stroke-width="3.577" stroke="black" fill="none" stroke-linecap="round"></path><path d="M 147.500,171.000 C 144.864,175.864 146.581,173.363 146.500,176.000" stroke-width="4.395" stroke="black" fill="none" stroke-linecap="round"></path><path d="M 146.500,176.000 C 153.309,174.692 150.864,176.364 159.500,172.000" stroke-width="4.124" stroke="black" fill="none" stroke-linecap="round"></path><path d="M 159.500,172.000 C 164.500,169.000 164.809,169.692 169.500,166.000" stroke-width="3.539" stroke="black" fill="none" stroke-linecap="round"></path><path d="M 169.500,166.000 C 179.404,159.825 179.500,160.000 189.500,154.000" stroke-width="3.395" stroke="black" fill="none" stroke-linecap="round"></path><path d="M 189.500,154.000 C 192.456,152.405 192.404,152.325 195.500,151.000" stroke-width="3.818" stroke="black" fill="none" stroke-linecap="round"></path><path d="M 195.500,151.000 C 202.500,146.655 198.956,149.405 202.500,148.000" stroke-width="4.331" stroke="black" fill="none" stroke-linecap="round"></path><path d="M 202.500,148.000 C 199.299,153.251 202.500,150.155 195.500,158.000" stroke-width="4.474" stroke="black" fill="none" stroke-linecap="round"></path><path d="M 195.500,158.000 C 193.000,160.500 193.299,160.751 190.500,163.000" stroke-width="4.111" stroke="black" fill="none" stroke-linecap="round"></path><path d="M 190.500,163.000 C 188.500,165.000 188.500,165.000 186.500,167.000" stroke-width="4.142" stroke="black" fill="none" stroke-linecap="round"></path><path d="M 186.500,167.000 C 181.549,170.620 184.500,169.000 182.500,171.000" stroke-width="4.152" stroke="black" fill="none" stroke-linecap="round"></path><path d="M 182.500,171.000 C 187.642,171.170 184.049,171.620 191.500,169.000" stroke-width="4.671" stroke="black" fill="none" stroke-linecap="round"></path><path d="M 191.500,169.000 C 194.769,165.234 195.642,166.670 198.500,162.000" stroke-width="3.889" stroke="black" fill="none" stroke-linecap="round"></path><path d="M 198.500,162.000 C 202.310,158.693 202.269,158.734 206.500,156.000" stroke-width="3.580" stroke="black" fill="none" stroke-linecap="round"></path><path d="M 206.500,156.000 C 209.686,154.791 209.310,154.193 212.500,153.000" stroke-width="3.886" stroke="black" fill="none" stroke-linecap="round"></path><path d="M 212.500,153.000 C 217.715,148.570 215.186,151.291 217.500,149.000" stroke-width="4.602" stroke="black" fill="none" stroke-linecap="round"></path><path d="M 217.500,149.000 C 214.635,152.150 217.215,149.570 211.500,155.000" stroke-width="4.725" stroke="black" fill="none" stroke-linecap="round"></path><path d="M 211.500,155.000 C 205.672,157.964 209.135,157.150 206.500,159.000" stroke-width="4.715" stroke="black" fill="none" stroke-linecap="round"></path><path d="M 206.500,159.000 C 211.040,160.248 207.672,160.464 215.500,160.000" stroke-width="4.892" stroke="black" fill="none" stroke-linecap="round"></path><path d="M 215.500,160.000 C 223.955,155.638 220.040,159.748 224.500,158.000" stroke-width="4.556" stroke="black" fill="none" stroke-linecap="round"></path><path d="M 224.500,158.000 C 221.160,165.399 225.455,162.138 218.500,173.000" stroke-width="4.766" stroke="black" fill="none" stroke-linecap="round"></path><path d="M 218.500,173.000 C 216.338,176.257 217.660,175.399 217.500,178.000" stroke-width="4.492" stroke="black" fill="none" stroke-linecap="round"></path><path d="M 217.500,178.000 C 221.266,183.021 219.338,180.757 224.500,182.000" stroke-width="4.733" stroke="black" fill="none" stroke-linecap="round"></path><path d="M 224.500,182.000 C 230.665,177.187 230.766,180.021 236.500,172.000" stroke-width="3.309" stroke="black" fill="none" stroke-linecap="round"></path><path d="M 236.500,172.000 C 244.369,165.361 244.165,165.187 251.500,158.000" stroke-width="2.737" stroke="black" fill="none" stroke-linecap="round"></path><path d="M 251.500,158.000 C 259.364,148.876 259.869,149.361 267.500,140.000" stroke-width="2.373" stroke="black" fill="none" stroke-linecap="round"></path><path d="M 267.500,140.000 C 276.248,131.222 275.864,130.876 284.500,122.000" stroke-width="2.255" stroke="black" fill="none" stroke-linecap="round"></path><path d="M 284.500,122.000 C 292.915,111.926 293.248,112.222 301.500,102.000" stroke-width="2.224" stroke="black" fill="none" stroke-linecap="round"></path><path d="M 301.500,102.000 C 308.933,93.440 308.915,93.426 316.500,85.000" stroke-width="2.351" stroke="black" fill="none" stroke-linecap="round"></path><path d="M 316.500,85.000 C 322.207,79.175 321.933,78.940 327.500,73.000" stroke-width="2.641" stroke="black" fill="none" stroke-linecap="round"></path><path d="M 327.500,73.000 C 330.797,68.321 331.207,68.675 334.500,64.000" stroke-width="3.061" stroke="black" fill="none" stroke-linecap="round"></path><path d="M 334.500,64.000 C 337.757,61.905 336.797,61.321 339.500,59.000" stroke-width="3.647" stroke="black" fill="none" stroke-linecap="round"></path><path d="M 339.500,59.000 C 342.080,54.144 340.757,56.905 340.500,54.000" stroke-width="4.426" stroke="black" fill="none" stroke-linecap="round"></path><path d="M 340.500,54.000 C 333.747,54.721 336.580,53.644 328.500,58.000" stroke-width="4.192" stroke="black" fill="none" stroke-linecap="round"></path><path d="M 328.500,58.000 C 322.252,63.248 321.747,62.221 316.500,69.000" stroke-width="3.173" stroke="black" fill="none" stroke-linecap="round"></path><path d="M 316.500,69.000 C 308.088,77.147 308.252,77.248 300.500,86.000" stroke-width="2.496" stroke="black" fill="none" stroke-linecap="round"></path><path d="M 300.500,86.000 C 293.556,95.044 293.088,94.647 286.500,104.000" stroke-width="2.370" stroke="black" fill="none" stroke-linecap="round"></path><path d="M 286.500,104.000 C 280.303,111.351 280.556,111.544 274.500,119.000" stroke-width="2.497" stroke="black" fill="none" stroke-linecap="round"></path><path d="M 274.500,119.000 C 269.329,125.884 269.303,125.851 264.500,133.000" stroke-width="2.699" stroke="black" fill="none" stroke-linecap="round"></path><path d="M 264.500,133.000 C 259.934,139.958 259.829,139.884 255.500,147.000" stroke-width="2.798" stroke="black" fill="none" stroke-linecap="round"></path><path d="M 255.500,147.000 C 251.382,153.431 251.434,153.458 247.500,160.000" stroke-width="2.912" stroke="black" fill="none" stroke-linecap="round"></path><path d="M 247.500,160.000 C 245.404,164.805 244.882,164.431 242.500,169.000" stroke-width="3.252" stroke="black" fill="none" stroke-linecap="round"></path><path d="M 242.500,169.000 C 237.539,172.423 240.904,171.305 238.500,173.000" stroke-width="3.836" stroke="black" fill="none" stroke-linecap="round"></path><path d="M 238.500,173.000 C 243.161,173.142 240.039,173.923 247.500,172.000" stroke-width="4.617" stroke="black" fill="none" stroke-linecap="round"></path><path d="M 247.500,172.000 C 252.441,169.840 252.661,170.642 257.500,168.000" stroke-width="3.661" stroke="black" fill="none" stroke-linecap="round"></path><path d="M 257.500,168.000 C 263.524,166.069 263.441,165.840 269.500,164.000" stroke-width="3.598" stroke="black" fill="none" stroke-linecap="round"></path><path d="M 269.500,164.000 C 276.451,161.350 276.524,161.569 283.500,159.000" stroke-width="3.158" stroke="black" fill="none" stroke-linecap="round"></path><path d="M 283.500,159.000 C 288.413,157.071 288.451,157.350 293.500,156.000" stroke-width="3.516" stroke="black" fill="none" stroke-linecap="round"></path><path d="M 293.500,156.000 C 297.987,155.265 297.913,155.071 302.500,155.000" stroke-width="3.622" stroke="black" fill="none" stroke-linecap="round"></path><path d="M 302.500,155.000 C 310.500,152.679 306.487,154.765 310.500,155.000" stroke-width="4.228" stroke="black" fill="none" stroke-linecap="round"></path><path d="M 310.500,155.000 C 308.140,163.569 310.500,159.679 302.500,169.000" stroke-width="3.957" stroke="black" fill="none" stroke-linecap="round"></path><path d="M 302.500,169.000 C 293.378,175.700 294.640,176.569 283.500,181.000" stroke-width="2.812" stroke="black" fill="none" stroke-linecap="round"></path><path d="M 283.500,181.000 C 272.829,186.902 272.878,186.700 261.500,191.000" stroke-width="2.451" stroke="black" fill="none" stroke-linecap="round"></path><path d="M 261.500,191.000 C 249.247,195.951 249.329,195.402 236.500,198.000" stroke-width="2.228" stroke="black" fill="none" stroke-linecap="round"></path><path d="M 236.500,198.000 C 221.016,199.499 221.247,200.451 205.500,200.000" stroke-width="2.056" stroke="black" fill="none" stroke-linecap="round"></path><path d="M 205.500,200.000 C 189.998,200.187 190.016,200.499 174.500,200.000" stroke-width="2.159" stroke="black" fill="none" stroke-linecap="round"></path><path d="M 174.500,200.000 C 148.368,200.772 148.498,199.687 122.500,199.000" stroke-width="1.605" stroke="black" fill="none" stroke-linecap="round"></path><path d="M 122.500,199.000 C 111.719,197.920 111.868,198.272 101.500,195.000" stroke-width="2.138" stroke="black" fill="none" stroke-linecap="round"></path><path d="M 101.500,195.000 C 93.424,193.443 94.219,192.920 87.500,189.000" stroke-width="2.609" stroke="black" fill="none" stroke-linecap="round"></path><path d="M 87.500,189.000 C 80.124,183.997 81.424,184.443 77.500,177.000" stroke-width="2.827" stroke="black" fill="none" stroke-linecap="round"></path><path d="M 77.500,177.000 C 75.500,167.006 74.124,167.997 75.500,157.000" stroke-width="2.648" stroke="black" fill="none" stroke-linecap="round"></path><path d="M 75.500,157.000 C 74.293,144.854 75.500,145.506 77.500,134.000" stroke-width="2.517" stroke="black" fill="none" stroke-linecap="round"></path><path d="M 77.500,134.000 C 81.508,122.403 80.793,122.854 88.500,113.000" stroke-width="2.336" stroke="black" fill="none" stroke-linecap="round"></path><path d="M 88.500,113.000 C 96.106,102.005 96.008,102.903 106.500,95.000" stroke-width="2.277" stroke="black" fill="none" stroke-linecap="round"></path><path d="M 106.500,95.000 C 120.055,87.297 119.106,86.505 134.500,82.000" stroke-width="2.074" stroke="black" fill="none" stroke-linecap="round"></path><path d="M 134.500,82.000 C 150.323,76.733 150.055,76.297 166.500,73.000" stroke-width="1.951" stroke="black" fill="none" stroke-linecap="round"></path><path d="M 166.500,73.000 C 182.931,69.549 182.823,69.233 199.500,67.000" stroke-width="1.855" stroke="black" fill="none" stroke-linecap="round"></path><path d="M 199.500,67.000 C 215.418,63.677 215.431,64.549 231.500,63.000" stroke-width="1.964" stroke="black" fill="none" stroke-linecap="round"></path><path d="M 231.500,63.000 C 263.008,62.638 262.918,61.677 294.500,63.000" stroke-width="1.943" stroke="black" fill="none" stroke-linecap="round"></path><path d="M 294.500,63.000 C 306.588,62.705 306.508,63.138 318.500,64.000" stroke-width="2.199" stroke="black" fill="none" stroke-linecap="round"></path><path d="M 318.500,64.000 C 329.619,65.513 329.588,65.205 340.500,68.000" stroke-width="2.300" stroke="black" fill="none" stroke-linecap="round"></path><path d="M 340.500,68.000 C 347.138,69.656 347.119,69.513 353.500,72.000" stroke-width="2.821" stroke="black" fill="none" stroke-linecap="round"></path><path d="M 353.500,72.000 C 360.784,73.015 356.638,73.156 359.500,75.000" stroke-width="3.534" stroke="black" fill="none" stroke-linecap="round"></path><path d="M 359.500,75.000 C 351.974,83.586 355.284,81.515 342.500,89.000" stroke-width="3.449" stroke="black" fill="none" stroke-linecap="round"></path><path d="M 342.500,89.000 C 326.800,96.791 327.474,97.586 310.500,103.000" stroke-width="2.141" stroke="black" fill="none" stroke-linecap="round"></path><path d="M 310.500,103.000 C 295.127,108.432 295.300,108.791 279.500,113.000" stroke-width="1.931" stroke="black" fill="none" stroke-linecap="round"></path><path d="M 279.500,113.000 C 262.637,118.105 262.627,117.932 245.500,122.000" stroke-width="1.861" stroke="black" fill="none" stroke-linecap="round"></path><path d="M 245.500,122.000 C 229.599,125.741 229.637,125.605 213.500,128.000" stroke-width="1.909" stroke="black" fill="none" stroke-linecap="round"></path><path d="M 213.500,128.000 C 201.006,129.085 201.099,129.741 188.500,130.000" stroke-width="2.098" stroke="black" fill="none" stroke-linecap="round"></path><path d="M 188.500,130.000 C 180.491,130.385 180.506,130.585 172.500,131.000" stroke-width="2.550" stroke="black" fill="none" stroke-linecap="round"></path><path d="M 393.500,135.000 C 394.792,128.663 395.500,129.000 397.500,123.000" stroke-width="2.983" stroke="black" fill="none" stroke-linecap="round"></path><path d="M 397.500,123.000 C 400.633,117.232 400.292,117.163 404.500,112.000" stroke-width="3.121" stroke="black" fill="none" stroke-linecap="round"></path><path d="M 404.500,112.000 C 409.654,106.122 409.133,105.732 414.500,100.000" stroke-width="3.043" stroke="black" fill="none" stroke-linecap="round"></path><path d="M 414.500,100.000 C 418.729,93.776 419.154,94.122 423.500,88.000" stroke-width="3.005" stroke="black" fill="none" stroke-linecap="round"></path><path d="M 423.500,88.000 C 428.912,82.812 428.229,82.276 433.500,77.000" stroke-width="3.002" stroke="black" fill="none" stroke-linecap="round"></path><path d="M 433.500,77.000 C 436.272,73.138 436.412,73.312 438.500,69.000" stroke-width="3.358" stroke="black" fill="none" stroke-linecap="round"></path><path d="M 438.500,69.000 C 442.653,64.574 439.772,66.638 440.500,64.000" stroke-width="4.070" stroke="black" fill="none" stroke-linecap="round"></path><path d="M 440.500,64.000 C 424.050,59.304 427.653,60.574 408.500,61.000" stroke-width="3.131" stroke="black" fill="none" stroke-linecap="round"></path><path d="M 408.500,61.000 C 396.312,64.217 396.550,62.304 385.500,70.000" stroke-width="2.493" stroke="black" fill="none" stroke-linecap="round"></path><path d="M 385.500,70.000 C 374.069,75.431 374.812,75.717 365.500,84.000" stroke-width="2.361" stroke="black" fill="none" stroke-linecap="round"></path><path d="M 365.500,84.000 C 347.378,102.455 347.569,101.931 332.500,123.000" stroke-width="2.281" stroke="black" fill="none" stroke-linecap="round"></path><path d="M 332.500,123.000 C 326.973,132.160 326.378,131.455 323.500,142.000" stroke-width="2.384" stroke="black" fill="none" stroke-linecap="round"></path><path d="M 323.500,142.000 C 320.125,149.500 320.973,149.160 320.500,157.000" stroke-width="3.265" stroke="black" fill="none" stroke-linecap="round"></path><path d="M 320.500,157.000 C 320.136,171.608 321.125,169.500 325.500,182.000" stroke-width="2.482" stroke="black" fill="none" stroke-linecap="round"></path><path d="M 325.500,182.000 C 330.534,186.653 328.136,187.108 336.500,188.000" stroke-width="2.967" stroke="black" fill="none" stroke-linecap="round"></path><path d="M 336.500,188.000 C 346.513,189.232 346.034,190.153 356.500,189.000" stroke-width="2.687" stroke="black" fill="none" stroke-linecap="round"></path><path d="M 356.500,189.000 C 368.774,190.498 368.013,188.732 379.500,187.000" stroke-width="2.469" stroke="black" fill="none" stroke-linecap="round"></path><path d="M 379.500,187.000 C 391.414,181.144 391.774,182.998 402.500,174.000" stroke-width="2.276" stroke="black" fill="none" stroke-linecap="round"></path><path d="M 402.500,174.000 C 414.120,166.752 413.914,166.644 424.500,158.000" stroke-width="2.138" stroke="black" fill="none" stroke-linecap="round"></path><path d="M 424.500,158.000 C 439.308,144.798 439.620,145.252 453.500,131.000" stroke-width="2.465" stroke="black" fill="none" stroke-linecap="round"></path></svg>