<svg xmlns="http://www.w3.org/2000/svg" xmlns:xlink="http://www.w3.org/1999/xlink" viewBox="0 0 453 236" width="453" height="236"><path d="M 39.500,168.000 C 42.040,163.966 42.500,164.500 45.500,161.000" stroke-width="5.079" stroke="black" fill="none" stroke-linecap="round"></path><path d="M 45.500,161.000 C 49.710,158.793 49.040,157.966 53.500,156.000" stroke-width="4.020" stroke="black" fill="none" stroke-linecap="round"></path><path d="M 53.500,156.000 C 59.041,151.549 59.210,151.793 64.500,147.000" stroke-width="3.299" stroke="black" fill="none" stroke-linecap="round"></path><path d="M 64.500,147.000 C 71.497,142.003 71.041,141.549 77.500,136.000" stroke-width="2.941" stroke="black" fill="none" stroke-linecap="round"></path><path d="M 77.500,136.000 C 83.982,128.484 84.497,129.003 90.500,121.000" stroke-width="2.857" stroke="black" fill="none" stroke-linecap="round"></path><path d="M 90.500,121.000 C 97.351,112.864 97.482,112.984 104.500,105.000" stroke-width="2.597" stroke="black" fill="none" stroke-linecap="round"></path><path d="M 104.500,105.000 C 112.500,96.500 112.351,96.364 120.500,88.000" stroke-width="2.372" stroke="black" fill="none" stroke-linecap="round"></path><path d="M 120.500,88.000 C 128.379,79.383 128.500,79.500 136.500,71.000" stroke-width="2.476" stroke="black" fill="none" stroke-linecap="round"></path><path d="M 136.500,71.000 C 144.134,63.629 143.879,63.383 151.500,56.000" stroke-width="2.436" stroke="black" fill="none" stroke-linecap="round"></path><path d="M 151.500,56.000 C 158.021,49.019 158.134,49.129 164.500,42.000" stroke-width="2.581" stroke="black" fill="none" stroke-linecap="round"></path><path d="M 164.500,42.000 C 170.427,36.341 170.021,36.019 175.500,30.000" stroke-width="2.779" stroke="black" fill="none" stroke-linecap="round"></path><path d="M 175.500,30.000 C 180.512,23.803 180.427,23.841 184.500,17.000" stroke-width="2.872" stroke="black" fill="none" stroke-linecap="round"></path><path d="M 184.500,17.000 C 188.998,9.171 189.012,9.303 192.500,1.000" stroke-width="2.717" stroke="black" fill="none" stroke-linecap="round"></path><path d="M 192.500,1.000 C 195.040,-4.257 193.498,-1.329 193.500,-4.000" stroke-width="3.936" stroke="black" fill="none" stroke-linecap="round"></path><path d="M 193.500,-4.000 C 186.343,-1.383 189.040,-3.257 180.500,3.000" stroke-width="3.901" stroke="black" fill="none" stroke-linecap="round"></path><path d="M 180.500,3.000 C 175.000,8.500 174.343,7.617 169.500,14.000" stroke-width="3.237" stroke="black" fill="none" stroke-linecap="round"></path><path d="M 169.500,14.000 C 162.384,20.887 162.500,21.000 155.500,28.000" stroke-width="2.884" stroke="black" fill="none" stroke-linecap="round"></path><path d="M 155.500,28.000 C 147.434,36.439 147.384,36.387 139.500,45.000" stroke-width="2.439" stroke="black" fill="none" stroke-linecap="round"></path><path d="M 139.500,45.000 C 128.421,56.929 128.434,56.939 117.500,69.000" stroke-width="2.058" stroke="black" fill="none" stroke-linecap="round"></path><path d="M 117.500,69.000 C 109.044,77.635 109.421,77.929 101.500,87.000" stroke-width="2.240" stroke="black" fill="none" stroke-linecap="round"></path><path d="M 101.500,87.000 C 94.467,95.661 94.544,95.635 88.500,105.000" stroke-width="2.320" stroke="black" fill="none" stroke-linecap="round"></path><path d="M 88.500,105.000 C 83.212,113.853 82.967,113.661 78.500,123.000" stroke-width="2.416" stroke="black" fill="none" stroke-linecap="round"></path><path d="M 78.500,123.000 C 74.481,130.299 74.712,130.353 71.500,138.000" stroke-width="2.650" stroke="black" fill="none" stroke-linecap="round"></path><path d="M 71.500,138.000 C 69.231,146.080 68.481,145.799 66.500,154.000" stroke-width="2.717" stroke="black" fill="none" stroke-linecap="round"></path><path d="M 66.500,154.000 C 63.786,160.427 64.231,160.580 61.500,167.000" stroke-width="2.969" stroke="black" fill="none" stroke-linecap="round"></path><path d="M 61.500,167.000 C 59.453,171.920 59.786,171.927 58.500,177.000" stroke-width="3.261" stroke="black" fill="none" stroke-linecap="round"></path><path d="M 58.500,177.000 C 58.252,180.021 57.953,179.920 58.500,183.000" stroke-width="3.841" stroke="black" fill="none" stroke-linecap="round"></path><path d="M 58.500,183.000 C 57.304,189.129 58.752,186.021 59.500,189.000" stroke-width="4.580" stroke="black" fill="none" stroke-linecap="round"></path><path d="M 59.500,189.000 C 67.640,185.785 65.804,188.629 75.500,182.000" stroke-width="4.516" stroke="black" fill="none" stroke-linecap="round"></path><path d="M 75.500,182.000 C 81.041,179.071 81.140,179.285 86.500,176.000" stroke-width="3.539" stroke="black" fill="none" stroke-linecap="round"></path><path d="M 86.500,176.000 C 89.076,174.616 89.041,174.571 91.500,173.000" stroke-width="3.970" stroke="black" fill="none" stroke-linecap="round"></path><path d="M 91.500,173.000 C 95.500,171.000 95.076,170.616 98.500,168.000" stroke-width="4.283" stroke="black" fill="none" stroke-linecap="round"></path><path d="M 98.500,168.000 C 101.052,164.536 101.500,165.000 103.500,161.000" stroke-width="4.407" stroke="black" fill="none" stroke-linecap="round"></path><path d="M 103.500,161.000 C 105.381,157.913 105.552,158.036 107.500,155.000" stroke-width="4.551" stroke="black" fill="none" stroke-linecap="round"></path><path d="M 107.500,155.000 C 109.870,152.716 109.381,152.413 111.500,150.000" stroke-width="4.646" stroke="black" fill="none" stroke-linecap="round"></path><path d="M 111.500,150.000 C 114.701,146.201 112.870,147.716 113.500,145.000" stroke-width="5.025" stroke="black" fill="none" stroke-linecap="round"></path><path d="M 113.500,145.000 C 109.293,143.289 111.701,143.201 105.500,144.000" stroke-width="5.027" stroke="black" fill="none" stroke-linecap="round"></path><path d="M 105.500,144.000 C 101.323,145.706 101.293,144.789 97.500,148.000" stroke-width="4.611" stroke="black" fill="none" stroke-linecap="round"></path><path d="M 97.500,148.000 C 93.480,150.020 93.823,150.206 90.500,153.000" stroke-width="4.544" stroke="black" fill="none" stroke-linecap="round"></path><path d="M 90.500,153.000 C 88.404,155.288 88.480,155.020 87.500,158.000" stroke-width="4.735" stroke="black" fill="none" stroke-linecap="round"></path><path d="M 87.500,158.000 C 85.404,162.260 86.404,161.288 86.500,165.000" stroke-width="4.868" stroke="black" fill="none" stroke-linecap="round"></path><path d="M 86.500,165.000 C 88.788,167.096 87.404,167.260 91.500,168.000" stroke-width="4.993" stroke="black" fill="none" stroke-linecap="round"></path><path d="M 91.500,168.000 C 94.980,168.780 94.788,169.096 98.500,169.000" stroke-width="4.735" stroke="black" fill="none" stroke-linecap="round"></path><path d="M 98.500,169.000 C 103.203,169.955 102.980,169.280 107.500,169.000" stroke-width="4.530" stroke="black" fill="none" stroke-linecap="round"></path><path d="M 107.500,169.000 C 112.368,167.583 112.203,167.955 116.500,165.000" stroke-width="4.431" stroke="black" fill="none" stroke-linecap="round"></path><path d="M 116.500,165.000 C 120.104,162.113 120.368,162.583 123.500,159.000" stroke-width="4.427" stroke="black" fill="none" stroke-linecap="round"></path><path d="M 123.500,159.000 C 128.500,154.548 126.104,156.613 128.500,154.000" stroke-width="4.551" stroke="black" fill="none" stroke-linecap="round"></path><path d="M 128.500,154.000 C 122.870,156.161 128.500,153.548 123.500,157.000" stroke-width="5.173" stroke="black" fill="none" stroke-linecap="round"></path><path d="M 123.500,157.000 C 127.707,158.711 124.370,158.161 131.500,158.000" stroke-width="5.041" stroke="black" fill="none" stroke-linecap="round"></path><path d="M 131.500,158.000 C 135.653,156.263 135.707,157.211 139.500,154.000" stroke-width="4.069" stroke="black" fill="none" stroke-linecap="round"></path><path d="M 139.500,154.000 C 144.037,151.054 144.153,151.263 148.500,148.000" stroke-width="3.605" stroke="black" fill="none" stroke-linecap="round"></path><path d="M 148.500,148.000 C 153.705,144.768 153.537,144.554 158.500,141.000" stroke-width="3.367" stroke="black" fill="none" stroke-linecap="round"></path><path d="M 158.500,141.000 C 167.690,133.708 167.705,133.768 176.500,126.000" stroke-width="3.341" stroke="black" fill="none" stroke-linecap="round"></path><path d="M 176.500,126.000 C 179.500,123.000 179.690,123.208 182.500,120.000" stroke-width="3.568" stroke="black" fill="none" stroke-linecap="round"></path><path d="M 182.500,120.000 C 184.904,118.305 184.500,118.000 186.500,116.000" stroke-width="4.001" stroke="black" fill="none" stroke-linecap="round"></path><path d="M 186.500,116.000 C 193.104,109.521 189.404,111.805 191.500,107.000" stroke-width="4.197" stroke="black" fill="none" stroke-linecap="round"></path><path d="M 191.500,107.000 C 185.335,104.470 189.604,104.021 179.500,105.000" stroke-width="4.433" stroke="black" fill="none" stroke-linecap="round"></path><path d="M 179.500,105.000 C 174.430,106.843 174.335,105.470 169.500,109.000" stroke-width="3.625" stroke="black" fill="none" stroke-linecap="round"></path><path d="M 169.500,109.000 C 166.143,109.979 166.430,110.343 163.500,112.000" stroke-width="3.901" stroke="black" fill="none" stroke-linecap="round"></path><path d="M 163.500,112.000 C 156.681,116.211 157.643,116.479 152.500,122.000" stroke-width="3.910" stroke="black" fill="none" stroke-linecap="round"></path><path d="M 152.500,122.000 C 150.500,126.068 150.181,125.211 150.500,130.000" stroke-width="4.305" stroke="black" fill="none" stroke-linecap="round"></path><path d="M 150.500,130.000 C 150.636,133.343 150.500,132.568 152.500,135.000" stroke-width="4.504" stroke="black" fill="none" stroke-linecap="round"></path><path d="M 152.500,135.000 C 155.921,136.722 155.136,137.343 159.500,138.000" stroke-width="3.995" stroke="black" fill="none" stroke-linecap="round"></path><path d="M 159.500,138.000 C 163.051,138.850 162.921,139.222 166.500,140.000" stroke-width="3.904" stroke="black" fill="none" stroke-linecap="round"></path><path d="M 166.500,140.000 C 169.000,141.000 169.051,140.850 171.500,142.000" stroke-width="4.154" stroke="black" fill="none" stroke-linecap="round"></path><path d="M 171.500,142.000 C 174.579,142.320 174.000,143.000 176.500,144.000" stroke-width="4.236" stroke="black" fill="none" stroke-linecap="round"></path><path d="M 176.500,144.000 C 178.910,146.248 178.579,145.820 179.500,149.000" stroke-width="4.203" stroke="black" fill="none" stroke-linecap="round"></path><path d="M 179.500,149.000 C 180.079,153.561 180.410,153.248 179.500,158.000" stroke-width="3.925" stroke="black" fill="none" stroke-linecap="round"></path><path d="M 179.500,158.000 C 179.707,165.787 178.579,165.061 176.500,172.000" stroke-width="3.203" stroke="black" fill="none" stroke-linecap="round"></path><path d="M 176.500,172.000 C 170.661,181.098 171.707,181.287 163.500,189.000" stroke-width="2.668" stroke="black" fill="none" stroke-linecap="round"></path><path d="M 163.500,189.000 C 156.038,197.170 156.161,197.098 147.500,204.000" stroke-width="2.516" stroke="black" fill="none" stroke-linecap="round"></path><path d="M 147.500,204.000 C 138.538,211.479 138.538,211.170 128.500,217.000" stroke-width="2.366" stroke="black" fill="none" stroke-linecap="round"></path><path d="M 128.500,217.000 C 118.312,222.486 118.538,222.479 107.500,226.000" stroke-width="2.331" stroke="black" fill="none" stroke-linecap="round"></path><path d="M 107.500,226.000 C 98.084,228.802 98.312,228.986 88.500,230.000" stroke-width="2.474" stroke="black" fill="none" stroke-linecap="round"></path><path d="M 88.500,230.000 C 82.000,230.000 82.084,230.802 75.500,230.000" stroke-width="2.980" stroke="black" fill="none" stroke-linecap="round"></path><path d="M 75.500,230.000 C 69.550,231.403 70.000,230.000 64.500,230.000" stroke-width="3.219" stroke="black" fill="none" stroke-linecap="round"></path><path d="M 64.500,230.000 C 60.009,228.261 60.550,228.903 57.500,225.000" stroke-width="3.609" stroke="black" fill="none" stroke-linecap="round"></path><path d="M 57.500,225.000 C 55.044,221.173 55.009,221.761 54.500,217.000" stroke-width="3.649" stroke="black" fill="none" stroke-linecap="round"></path><path d="M 54.500,217.000 C 52.286,208.865 53.544,209.673 54.500,202.000" stroke-width="3.160" stroke="black" fill="none" stroke-linecap="round"></path><path d="M 54.500,202.000 C 58.858,193.523 57.286,193.365 64.500,186.000" stroke-width="2.797" stroke="black" fill="none" stroke-linecap="round"></path><path d="M 64.500,186.000 C 70.776,177.226 70.858,177.523 78.500,170.000" stroke-width="2.582" stroke="black" fill="none" stroke-linecap="round"></path><path d="M 78.500,170.000 C 86.363,162.433 86.276,162.726 95.500,157.000" stroke-width="2.573" stroke="black" fill="none" stroke-linecap="round"></path><path d="M 95.500,157.000 C 105.283,151.930 104.863,151.433 115.500,148.000" stroke-width="2.430" stroke="black" fill="none" stroke-linecap="round"></path><path d="M 115.500,148.000 C 124.813,144.180 124.783,144.430 134.500,142.000" stroke-width="2.593" stroke="black" fill="none" stroke-linecap="round"></path><path d="M 134.500,142.000 C 144.955,140.029 144.813,139.680 155.500,139.000" stroke-width="2.687" stroke="black" fill="none" stroke-linecap="round"></path><path d="M 155.500,139.000 C 165.499,138.488 165.455,138.029 175.500,138.000" stroke-width="2.723" stroke="black" fill="none" stroke-linecap="round"></path><path d="M 175.500,138.000 C 195.057,133.151 185.999,137.488 196.500,137.000" stroke-width="2.574" stroke="black" fill="none" stroke-linecap="round"></path><path d="M 196.500,137.000 C 189.625,146.176 198.057,141.151 181.500,154.000" stroke-width="3.524" stroke="black" fill="none" stroke-linecap="round"></path><path d="M 181.500,154.000 C 175.726,158.849 176.125,159.176 169.500,163.000" stroke-width="3.065" stroke="black" fill="none" stroke-linecap="round"></path><path d="M 169.500,163.000 C 165.098,165.701 165.226,165.849 160.500,168.000" stroke-width="3.564" stroke="black" fill="none" stroke-linecap="round"></path><path d="M 160.500,168.000 C 157.136,170.161 157.098,169.701 153.500,171.000" stroke-width="3.783" stroke="black" fill="none" stroke-linecap="round"></path><path d="M 153.500,171.000 C 150.333,171.708 150.636,171.661 147.500,171.000" stroke-width="4.038" stroke="black" fill="none" stroke-linecap="round"></path><path d="M 147.500,171.000 C 141.743,169.947 144.333,170.208 141.500,168.000" stroke-width="4.478" stroke="black" fill="none" stroke-linecap="round"></path><path d="M 215.500,161.000 C 217.965,160.149 218.000,160.500 220.500,160.000" stroke-width="4.649" stroke="black" fill="none" stroke-linecap="round"></path><path d="M 220.500,160.000 C 226.500,160.000 226.465,159.649 232.500,160.000" stroke-width="3.737" stroke="black" fill="none" stroke-linecap="round"></path><path d="M 232.500,160.000 C 239.511,160.325 239.500,160.000 246.500,160.000" stroke-width="3.476" stroke="black" fill="none" stroke-linecap="round"></path><path d="M 246.500,160.000 C 261.017,159.174 261.011,159.325 275.500,158.000" stroke-width="2.361" stroke="black" fill="none" stroke-linecap="round"></path><path d="M 275.500,158.000 C 281.492,155.243 279.517,157.674 283.500,157.000" stroke-width="3.183" stroke="black" fill="none" stroke-linecap="round"></path><path d="M 283.500,157.000 C 282.632,161.240 285.492,158.743 283.500,165.000" stroke-width="4.329" stroke="black" fill="none" stroke-linecap="round"></path><path d="M 283.500,165.000 C 284.075,170.331 284.132,167.740 286.500,170.000" stroke-width="4.687" stroke="black" fill="none" stroke-linecap="round"></path><path d="M 286.500,170.000 C 296.153,166.332 295.075,168.831 305.500,162.000" stroke-width="2.947" stroke="black" fill="none" stroke-linecap="round"></path><path d="M 305.500,162.000 C 316.162,155.683 316.653,156.832 327.500,151.000" stroke-width="2.461" stroke="black" fill="none" stroke-linecap="round"></path><path d="M 327.500,151.000 C 339.342,146.436 339.162,146.183 351.500,143.000" stroke-width="2.257" stroke="black" fill="none" stroke-linecap="round"></path><path d="M 351.500,143.000 C 362.409,139.901 362.342,139.936 373.500,138.000" stroke-width="2.419" stroke="black" fill="none" stroke-linecap="round"></path><path d="M 373.500,138.000 C 379.994,137.342 379.909,136.901 386.500,137.000" stroke-width="2.858" stroke="black" fill="none" stroke-linecap="round"></path><path d="M 386.500,137.000 C 391.802,135.079 389.494,136.842 392.500,137.000" stroke-width="3.659" stroke="black" fill="none" stroke-linecap="round"></path><path d="M 392.500,137.000 C 391.711,142.549 393.802,140.579 390.500,148.000" stroke-width="4.258" stroke="black" fill="none" stroke-linecap="round"></path><path d="M 390.500,148.000 C 389.382,151.471 389.711,151.549 388.500,155.000" stroke-width="4.029" stroke="black" fill="none" stroke-linecap="round"></path><path d="M 388.500,155.000 C 387.730,157.473 387.882,157.471 387.500,160.000" stroke-width="4.192" stroke="black" fill="none" stroke-linecap="round"></path><path d="M 387.500,160.000 C 385.625,164.875 387.230,162.973 387.500,166.000" stroke-width="4.211" stroke="black" fill="none" stroke-linecap="round"></path><path d="M 387.500,166.000 C 392.552,166.600 390.625,167.875 397.500,166.000" stroke-width="3.657" stroke="black" fill="none" stroke-linecap="round"></path><path d="M 397.500,166.000 C 409.324,165.158 409.052,164.600 420.500,162.000" stroke-width="2.650" stroke="black" fill="none" stroke-linecap="round"></path><path d="M 420.500,162.000 C 431.801,156.900 432.324,158.658 443.500,153.000" stroke-width="2.390" stroke="black" fill="none" stroke-linecap="round"></path><path d="M 443.500,153.000 C 454.384,149.358 454.301,149.400 465.500,147.000" stroke-width="2.340" stroke="black" fill="none" stroke-linecap="round"></path><path d="M 465.500,147.000 C 470.992,146.324 470.884,145.858 476.500,146.000" stroke-width="2.954" stroke="black" fill="none" stroke-linecap="round"></path><path d="M 476.500,146.000 C 482.500,144.500 479.492,145.824 482.500,146.000" stroke-width="3.705" stroke="black" fill="none" stroke-linecap="round"></path><path d="M 482.500,146.000 C 480.277,150.931 482.500,148.500 476.500,154.000" stroke-width="4.332" stroke="black" fill="none" stroke-linecap="round"></path><path d="M 476.500,154.000 C 471.651,156.854 472.277,157.431 466.500,159.000" stroke-width="3.629" stroke="black" fill="none" stroke-linecap="round"></path><path d="M 466.500,159.000 C 459.660,162.091 459.651,161.854 452.500,164.000" stroke-width="3.165" stroke="black" fill="none" stroke-linecap="round"></path><path d="M 452.500,164.000 C 444.575,166.150 444.660,166.091 436.500,167.000" stroke-width="2.955" stroke="black" fill="none" stroke-linecap="round"></path><path d="M 436.500,167.000 C 425.507,167.800 425.575,168.150 414.500,168.000" stroke-width="2.583" stroke="black" fill="none" stroke-linecap="round"></path><path d="M 414.500,168.000 C 398.000,168.000 398.007,168.300 381.500,168.000" stroke-width="2.011" stroke="black" fill="none" stroke-linecap="round"></path><path d="M 381.500,168.000 C 362.500,168.000 362.500,168.000 343.500,168.000" stroke-width="1.757" stroke="black" fill="none" stroke-linecap="round"></path><path d="M 343.500,168.000 C 321.000,168.000 321.000,168.000 298.500,168.000" stroke-width="1.695" stroke="black" fill="none" stroke-linecap="round"></path><path d="M 298.500,168.000 C 275.500,168.000 275.500,168.000 252.500,168.000" stroke-width="1.567" stroke="black" fill="none" stroke-linecap="round"></path><path d="M 252.500,168.000 C 232.500,168.000 232.500,168.000 212.500,168.000" stroke-width="1.643" stroke="black" fill="none" stroke-linecap="round"></path><path d="M 212.500,168.000 C 196.491,167.680 196.500,168.000 180.500,168.000" stroke-width="1.747" stroke="black" fill="none" stroke-linecap="round"></path></svg>