<svg xmlns="http://www.w3.org/2000/svg" xmlns:xlink="http://www.w3.org/1999/xlink" viewBox="0 0 453 236" width="453" height="236"><path d="M 81.500,70.000 C 80.894,74.619 80.500,74.500 79.500,79.000" stroke-width="5.070" stroke="black" fill="none" stroke-linecap="round"></path><path d="M 79.500,79.000 C 77.325,85.643 77.394,85.619 74.500,92.000" stroke-width="3.639" stroke="black" fill="none" stroke-linecap="round"></path><path d="M 74.500,92.000 C 71.000,99.000 71.325,99.143 67.500,106.000" stroke-width="3.111" stroke="black" fill="none" stroke-linecap="round"></path><path d="M 67.500,106.000 C 64.095,113.049 64.000,113.000 60.500,120.000" stroke-width="2.981" stroke="black" fill="none" stroke-linecap="round"></path><path d="M 60.500,120.000 C 56.300,127.400 56.595,127.549 52.500,135.000" stroke-width="2.861" stroke="black" fill="none" stroke-linecap="round"></path><path d="M 52.500,135.000 C 48.750,141.250 49.300,141.400 46.500,148.000" stroke-width="3.046" stroke="black" fill="none" stroke-linecap="round"></path><path d="M 46.500,148.000 C 42.809,155.781 44.250,154.750 43.500,162.000" stroke-width="3.051" stroke="black" fill="none" stroke-linecap="round"></path><path d="M 43.500,162.000 C 45.717,165.165 43.809,164.781 48.500,166.000" stroke-width="4.050" stroke="black" fill="none" stroke-linecap="round"></path><path d="M 112.500,129.000 C 108.557,127.541 108.500,128.000 104.500,127.000" stroke-width="4.570" stroke="black" fill="none" stroke-linecap="round"></path><path d="M 104.500,127.000 C 101.000,127.000 101.057,126.541 97.500,127.000" stroke-width="4.238" stroke="black" fill="none" stroke-linecap="round"></path><path d="M 97.500,127.000 C 92.856,125.322 93.500,127.000 89.500,127.000" stroke-width="3.884" stroke="black" fill="none" stroke-linecap="round"></path><path d="M 89.500,127.000 C 83.975,131.027 83.856,129.822 79.500,136.000" stroke-width="3.332" stroke="black" fill="none" stroke-linecap="round"></path><path d="M 79.500,136.000 C 74.980,141.200 74.975,141.027 71.500,147.000" stroke-width="3.122" stroke="black" fill="none" stroke-linecap="round"></path><path d="M 71.500,147.000 C 68.604,151.310 68.980,151.200 67.500,156.000" stroke-width="3.508" stroke="black" fill="none" stroke-linecap="round"></path><path d="M 67.500,156.000 C 67.008,160.061 66.604,159.810 67.500,164.000" stroke-width="3.770" stroke="black" fill="none" stroke-linecap="round"></path><path d="M 67.500,164.000 C 66.942,169.442 68.008,168.061 69.500,172.000" stroke-width="3.875" stroke="black" fill="none" stroke-linecap="round"></path><path d="M 69.500,172.000 C 73.869,174.305 72.442,174.942 78.500,175.000" stroke-width="3.788" stroke="black" fill="none" stroke-linecap="round"></path><path d="M 78.500,175.000 C 84.474,176.675 83.869,175.805 89.500,175.000" stroke-width="3.519" stroke="black" fill="none" stroke-linecap="round"></path><path d="M 89.500,175.000 C 97.089,172.194 96.474,172.675 102.500,167.000" stroke-width="3.111" stroke="black" fill="none" stroke-linecap="round"></path><path d="M 102.500,167.000 C 108.884,159.237 109.589,160.194 114.500,151.000" stroke-width="2.842" stroke="black" fill="none" stroke-linecap="round"></path><path d="M 114.500,151.000 C 116.708,148.167 116.384,148.237 117.500,145.000" stroke-width="3.583" stroke="black" fill="none" stroke-linecap="round"></path><path d="M 117.500,145.000 C 119.157,141.025 118.208,142.167 117.500,139.000" stroke-width="3.924" stroke="black" fill="none" stroke-linecap="round"></path><path d="M 117.500,139.000 C 113.239,135.580 114.657,135.525 108.500,134.000" stroke-width="4.171" stroke="black" fill="none" stroke-linecap="round"></path><path d="M 108.500,134.000 C 105.473,134.270 105.739,133.080 102.500,134.000" stroke-width="4.115" stroke="black" fill="none" stroke-linecap="round"></path><path d="M 158.500,147.000 C 156.975,144.085 157.500,144.000 156.500,141.000" stroke-width="4.749" stroke="black" fill="none" stroke-linecap="round"></path><path d="M 156.500,141.000 C 158.535,135.832 155.975,137.585 156.500,134.000" stroke-width="4.690" stroke="black" fill="none" stroke-linecap="round"></path><path d="M 156.500,134.000 C 151.544,132.560 153.535,131.332 146.500,132.000" stroke-width="4.430" stroke="black" fill="none" stroke-linecap="round"></path><path d="M 146.500,132.000 C 142.114,130.725 142.544,131.560 138.500,132.000" stroke-width="3.988" stroke="black" fill="none" stroke-linecap="round"></path><path d="M 138.500,132.000 C 133.400,134.400 133.614,133.725 129.500,138.000" stroke-width="3.644" stroke="black" fill="none" stroke-linecap="round"></path><path d="M 129.500,138.000 C 127.217,140.851 126.900,140.400 125.500,144.000" stroke-width="3.853" stroke="black" fill="none" stroke-linecap="round"></path><path d="M 125.500,144.000 C 123.500,146.432 124.217,146.351 123.500,149.000" stroke-width="4.209" stroke="black" fill="none" stroke-linecap="round"></path><path d="M 123.500,149.000 C 122.870,155.087 123.500,152.932 125.500,157.000" stroke-width="4.390" stroke="black" fill="none" stroke-linecap="round"></path><path d="M 125.500,157.000 C 130.054,157.494 128.370,159.087 134.500,157.000" stroke-width="3.973" stroke="black" fill="none" stroke-linecap="round"></path><path d="M 134.500,157.000 C 139.299,156.730 139.054,156.494 143.500,155.000" stroke-width="3.681" stroke="black" fill="none" stroke-linecap="round"></path><path d="M 143.500,155.000 C 147.628,152.681 147.799,153.230 151.500,150.000" stroke-width="3.580" stroke="black" fill="none" stroke-linecap="round"></path><path d="M 151.500,150.000 C 153.760,147.599 154.128,148.181 156.500,146.000" stroke-width="3.875" stroke="black" fill="none" stroke-linecap="round"></path><path d="M 156.500,146.000 C 162.207,141.153 159.760,144.099 163.500,143.000" stroke-width="4.368" stroke="black" fill="none" stroke-linecap="round"></path><path d="M 163.500,143.000 C 164.561,149.636 165.707,146.153 163.500,156.000" stroke-width="3.399" stroke="black" fill="none" stroke-linecap="round"></path><path d="M 163.500,156.000 C 161.241,167.778 161.561,167.636 157.500,179.000" stroke-width="3.307" stroke="black" fill="none" stroke-linecap="round"></path><path d="M 157.500,179.000 C 155.563,184.406 155.741,184.278 152.500,189.000" stroke-width="3.886" stroke="black" fill="none" stroke-linecap="round"></path><path d="M 152.500,189.000 C 150.304,191.897 150.563,191.906 147.500,194.000" stroke-width="3.897" stroke="black" fill="none" stroke-linecap="round"></path><path d="M 147.500,194.000 C 144.048,196.090 144.304,196.397 140.500,198.000" stroke-width="3.888" stroke="black" fill="none" stroke-linecap="round"></path><path d="M 140.500,198.000 C 137.607,199.757 137.548,199.590 134.500,201.000" stroke-width="3.941" stroke="black" fill="none" stroke-linecap="round"></path><path d="M 134.500,201.000 C 130.014,202.544 130.107,202.757 125.500,204.000" stroke-width="3.852" stroke="black" fill="none" stroke-linecap="round"></path><path d="M 125.500,204.000 C 114.661,208.294 114.514,207.544 103.500,211.000" stroke-width="2.693" stroke="black" fill="none" stroke-linecap="round"></path><path d="M 103.500,211.000 C 98.010,211.724 98.161,212.294 92.500,212.000" stroke-width="3.108" stroke="black" fill="none" stroke-linecap="round"></path><path d="M 92.500,212.000 C 87.587,213.362 88.010,212.224 83.500,212.000" stroke-width="3.486" stroke="black" fill="none" stroke-linecap="round"></path><path d="M 83.500,212.000 C 78.250,209.750 78.587,210.362 74.500,206.000" stroke-width="3.394" stroke="black" fill="none" stroke-linecap="round"></path><path d="M 74.500,206.000 C 71.024,201.733 70.750,202.250 68.500,197.000" stroke-width="3.424" stroke="black" fill="none" stroke-linecap="round"></path><path d="M 258.500,68.000 C 255.138,69.426 256.000,70.000 253.500,72.000" stroke-width="5.126" stroke="black" fill="none" stroke-linecap="round"></path><path d="M 253.500,72.000 C 252.546,75.514 251.638,74.926 251.500,79.000" stroke-width="4.233" stroke="black" fill="none" stroke-linecap="round"></path><path d="M 251.500,79.000 C 250.174,85.761 249.546,85.514 247.500,92.000" stroke-width="4.055" stroke="black" fill="none" stroke-linecap="round"></path><path d="M 247.500,92.000 C 239.254,110.128 239.674,110.261 230.500,128.000" stroke-width="2.111" stroke="black" fill="none" stroke-linecap="round"></path><path d="M 230.500,128.000 C 227.000,134.500 227.254,134.628 223.500,141.000" stroke-width="2.622" stroke="black" fill="none" stroke-linecap="round"></path><path d="M 223.500,141.000 C 219.568,147.306 220.000,147.500 216.500,154.000" stroke-width="2.933" stroke="black" fill="none" stroke-linecap="round"></path><path d="M 216.500,154.000 C 214.103,159.389 214.068,159.306 212.500,165.000" stroke-width="3.250" stroke="black" fill="none" stroke-linecap="round"></path><path d="M 212.500,165.000 C 211.093,169.960 211.103,169.889 210.500,175.000" stroke-width="3.378" stroke="black" fill="none" stroke-linecap="round"></path><path d="M 210.500,175.000 C 210.789,178.529 210.093,178.460 210.500,182.000" stroke-width="3.781" stroke="black" fill="none" stroke-linecap="round"></path><path d="M 210.500,182.000 C 209.500,187.581 210.289,184.529 209.500,187.000" stroke-width="4.108" stroke="black" fill="none" stroke-linecap="round"></path><path d="M 224.500,145.000 C 227.401,146.613 227.500,146.000 230.500,147.000" stroke-width="5.089" stroke="black" fill="none" stroke-linecap="round"></path><path d="M 230.500,147.000 C 235.500,147.000 235.401,147.613 240.500,147.000" stroke-width="3.897" stroke="black" fill="none" stroke-linecap="round"></path><path d="M 240.500,147.000 C 247.202,148.166 247.000,147.000 253.500,147.000" stroke-width="3.433" stroke="black" fill="none" stroke-linecap="round"></path><path d="M 253.500,147.000 C 260.784,145.118 260.702,145.666 267.500,142.000" stroke-width="3.119" stroke="black" fill="none" stroke-linecap="round"></path><path d="M 267.500,142.000 C 274.638,138.223 274.784,138.618 281.500,134.000" stroke-width="2.890" stroke="black" fill="none" stroke-linecap="round"></path><path d="M 281.500,134.000 C 287.455,129.930 287.638,130.223 293.500,126.000" stroke-width="3.187" stroke="black" fill="none" stroke-linecap="round"></path><path d="M 293.500,126.000 C 297.362,123.228 297.455,123.430 301.500,121.000" stroke-width="3.477" stroke="black" fill="none" stroke-linecap="round"></path><path d="M 239.500,149.000 C 242.897,153.097 243.000,153.000 246.500,157.000" stroke-width="4.995" stroke="black" fill="none" stroke-linecap="round"></path><path d="M 246.500,157.000 C 248.887,159.624 248.897,159.597 251.500,162.000" stroke-width="4.175" stroke="black" fill="none" stroke-linecap="round"></path><path d="M 251.500,162.000 C 254.519,164.478 254.387,164.624 257.500,167.000" stroke-width="3.945" stroke="black" fill="none" stroke-linecap="round"></path><path d="M 257.500,167.000 C 261.396,169.637 261.019,169.978 264.500,173.000" stroke-width="3.732" stroke="black" fill="none" stroke-linecap="round"></path><path d="M 264.500,173.000 C 266.920,176.560 267.396,176.137 269.500,180.000" stroke-width="3.734" stroke="black" fill="none" stroke-linecap="round"></path><path d="M 269.500,180.000 C 271.376,182.611 271.420,182.560 273.500,185.000" stroke-width="3.974" stroke="black" fill="none" stroke-linecap="round"></path><path d="M 273.500,185.000 C 275.091,187.795 275.376,187.111 277.500,189.000" stroke-width="4.099" stroke="black" fill="none" stroke-linecap="round"></path><path d="M 277.500,189.000 C 282.094,191.607 280.091,190.295 283.500,190.000" stroke-width="4.519" stroke="black" fill="none" stroke-linecap="round"></path><path d="M 299.500,161.000 C 306.075,158.798 305.500,158.000 311.500,155.000" stroke-width="5.109" stroke="black" fill="none" stroke-linecap="round"></path><path d="M 311.500,155.000 C 315.633,151.125 316.075,151.798 319.500,147.000" stroke-width="3.826" stroke="black" fill="none" stroke-linecap="round"></path><path d="M 319.500,147.000 C 324.263,143.474 323.133,143.125 326.500,139.000" stroke-width="4.293" stroke="black" fill="none" stroke-linecap="round"></path><path d="M 326.500,139.000 C 328.670,133.542 327.763,136.474 326.500,133.000" stroke-width="4.150" stroke="black" fill="none" stroke-linecap="round"></path><path d="M 326.500,133.000 C 317.625,132.212 320.670,131.542 310.500,135.000" stroke-width="3.883" stroke="black" fill="none" stroke-linecap="round"></path><path d="M 310.500,135.000 C 306.521,138.116 306.125,136.712 303.500,142.000" stroke-width="3.647" stroke="black" fill="none" stroke-linecap="round"></path><path d="M 303.500,142.000 C 298.801,147.018 299.521,147.116 296.500,153.000" stroke-width="3.246" stroke="black" fill="none" stroke-linecap="round"></path><path d="M 296.500,153.000 C 294.407,160.441 293.801,160.018 293.500,168.000" stroke-width="2.977" stroke="black" fill="none" stroke-linecap="round"></path><path d="M 293.500,168.000 C 293.500,173.000 292.907,172.941 293.500,178.000" stroke-width="3.351" stroke="black" fill="none" stroke-linecap="round"></path><path d="M 293.500,178.000 C 291.409,182.606 293.500,181.000 293.500,184.000" stroke-width="3.837" stroke="black" fill="none" stroke-linecap="round"></path><path d="M 293.500,184.000 C 300.885,187.212 298.909,187.606 308.500,188.000" stroke-width="3.802" stroke="black" fill="none" stroke-linecap="round"></path><path d="M 308.500,188.000 C 315.615,188.187 315.385,188.712 322.500,187.000" stroke-width="3.200" stroke="black" fill="none" stroke-linecap="round"></path><path d="M 322.500,187.000 C 329.943,184.744 330.115,185.687 337.500,183.000" stroke-width="2.950" stroke="black" fill="none" stroke-linecap="round"></path><path d="M 337.500,183.000 C 343.019,182.096 342.943,181.744 348.500,181.000" stroke-width="3.727" stroke="black" fill="none" stroke-linecap="round"></path><path d="M 348.500,181.000 C 353.081,180.263 353.019,180.096 357.500,179.000" stroke-width="3.615" stroke="black" fill="none" stroke-linecap="round"></path><path d="M 357.500,179.000 C 360.579,178.680 360.081,178.263 362.500,177.000" stroke-width="4.150" stroke="black" fill="none" stroke-linecap="round"></path><path d="M 345.500,169.000 C 352.167,167.436 352.000,167.000 358.500,165.000" stroke-width="5.020" stroke="black" fill="none" stroke-linecap="round"></path><path d="M 358.500,165.000 C 365.376,162.618 365.167,162.436 371.500,159.000" stroke-width="3.460" stroke="black" fill="none" stroke-linecap="round"></path><path d="M 371.500,159.000 C 376.360,155.881 376.376,156.118 380.500,152.000" stroke-width="3.545" stroke="black" fill="none" stroke-linecap="round"></path><path d="M 380.500,152.000 C 384.513,148.314 384.360,148.381 387.500,144.000" stroke-width="3.486" stroke="black" fill="none" stroke-linecap="round"></path><path d="M 387.500,144.000 C 391.274,140.380 389.013,141.814 389.500,139.000" stroke-width="3.962" stroke="black" fill="none" stroke-linecap="round"></path><path d="M 389.500,139.000 C 379.176,129.731 382.274,133.380 369.500,130.000" stroke-width="3.623" stroke="black" fill="none" stroke-linecap="round"></path><path d="M 369.500,130.000 C 360.899,134.245 361.176,130.231 353.500,140.000" stroke-width="2.825" stroke="black" fill="none" stroke-linecap="round"></path><path d="M 353.500,140.000 C 347.396,145.016 347.399,144.745 342.500,151.000" stroke-width="2.844" stroke="black" fill="none" stroke-linecap="round"></path><path d="M 342.500,151.000 C 338.167,156.132 338.396,156.016 335.500,162.000" stroke-width="3.583" stroke="black" fill="none" stroke-linecap="round"></path><path d="M 335.500,162.000 C 332.500,167.470 333.167,167.132 332.500,173.000" stroke-width="3.429" stroke="black" fill="none" stroke-linecap="round"></path><path d="M 332.500,173.000 C 331.608,181.849 332.500,179.470 335.500,186.000" stroke-width="3.168" stroke="black" fill="none" stroke-linecap="round"></path><path d="M 335.500,186.000 C 341.399,188.322 339.108,189.849 347.500,189.000" stroke-width="3.782" stroke="black" fill="none" stroke-linecap="round"></path><path d="M 347.500,189.000 C 355.074,189.743 354.899,189.822 362.500,189.000" stroke-width="3.189" stroke="black" fill="none" stroke-linecap="round"></path><path d="M 362.500,189.000 C 370.278,188.311 370.074,188.243 377.500,186.000" stroke-width="2.963" stroke="black" fill="none" stroke-linecap="round"></path><path d="M 377.500,186.000 C 382.696,183.826 382.778,184.311 387.500,181.000" stroke-width="3.252" stroke="black" fill="none" stroke-linecap="round"></path><path d="M 387.500,181.000 C 391.060,178.580 391.196,178.826 394.500,176.000" stroke-width="3.621" stroke="black" fill="none" stroke-linecap="round"></path><path d="M 412.500,133.000 C 410.195,137.369 411.000,137.500 409.500,142.000" stroke-width="4.481" stroke="black" fill="none" stroke-linecap="round"></path><path d="M 409.500,142.000 C 410.526,147.666 408.695,147.369 409.500,153.000" stroke-width="3.739" stroke="black" fill="none" stroke-linecap="round"></path><path d="M 409.500,153.000 C 406.939,160.480 408.026,160.666 404.500,168.000" stroke-width="3.121" stroke="black" fill="none" stroke-linecap="round"></path><path d="M 404.500,168.000 C 401.224,179.076 400.939,178.980 397.500,190.000" stroke-width="2.499" stroke="black" fill="none" stroke-linecap="round"></path><path d="M 397.500,190.000 C 394.310,201.367 393.724,201.076 389.500,212.000" stroke-width="2.405" stroke="black" fill="none" stroke-linecap="round"></path><path d="M 389.500,212.000 C 384.719,222.508 384.810,222.367 378.500,232.000" stroke-width="2.556" stroke="black" fill="none" stroke-linecap="round"></path><path d="M 378.500,232.000 C 374.991,237.200 375.219,237.008 370.500,241.000" stroke-width="3.076" stroke="black" fill="none" stroke-linecap="round"></path><path d="M 370.500,241.000 C 366.375,244.859 368.491,242.700 365.500,243.000" stroke-width="3.826" stroke="black" fill="none" stroke-linecap="round"></path><path d="M 365.500,243.000 C 360.637,233.159 362.375,236.359 362.500,224.000" stroke-width="3.659" stroke="black" fill="none" stroke-linecap="round"></path><path d="M 362.500,224.000 C 367.592,202.449 366.637,203.659 377.500,184.000" stroke-width="1.926" stroke="black" fill="none" stroke-linecap="round"></path><path d="M 377.500,184.000 C 384.024,176.445 382.092,175.449 391.500,170.000" stroke-width="2.303" stroke="black" fill="none" stroke-linecap="round"></path><path d="M 391.500,170.000 C 398.733,164.089 398.524,163.945 406.500,159.000" stroke-width="2.609" stroke="black" fill="none" stroke-linecap="round"></path><path d="M 406.500,159.000 C 413.306,154.597 413.233,154.589 420.500,151.000" stroke-width="2.679" stroke="black" fill="none" stroke-linecap="round"></path><path d="M 420.500,151.000 C 425.481,148.952 425.306,148.597 430.500,147.000" stroke-width="3.625" stroke="black" fill="none" stroke-linecap="round"></path><path d="M 430.500,147.000 C 434.535,145.586 434.481,145.452 438.500,144.000" stroke-width="3.654" stroke="black" fill="none" stroke-linecap="round"></path><path d="M 438.500,144.000 C 445.945,139.218 442.035,142.586 445.500,141.000" stroke-width="4.266" stroke="black" fill="none" stroke-linecap="round"></path><path d="M 445.500,141.000 C 440.865,148.769 444.445,145.218 435.500,156.000" stroke-width="3.915" stroke="black" fill="none" stroke-linecap="round"></path><path d="M 435.500,156.000 C 429.485,164.457 429.365,164.269 422.500,172.000" stroke-width="2.767" stroke="black" fill="none" stroke-linecap="round"></path><path d="M 422.500,172.000 C 416.727,177.770 416.985,177.957 410.500,183.000" stroke-width="2.841" stroke="black" fill="none" stroke-linecap="round"></path><path d="M 410.500,183.000 C 404.636,189.432 404.227,188.270 397.500,193.000" stroke-width="2.856" stroke="black" fill="none" stroke-linecap="round"></path><path d="M 397.500,193.000 C 392.047,194.518 392.636,195.432 386.500,195.000" stroke-width="3.160" stroke="black" fill="none" stroke-linecap="round"></path><path d="M 386.500,195.000 C 380.229,196.146 380.547,195.518 374.500,195.000" stroke-width="3.198" stroke="black" fill="none" stroke-linecap="round"></path><path d="M 374.500,195.000 C 369.805,193.833 370.229,194.146 366.500,191.000" stroke-width="3.474" stroke="black" fill="none" stroke-linecap="round"></path><path d="M 366.500,191.000 C 362.818,187.305 362.805,187.833 360.500,183.000" stroke-width="3.465" stroke="black" fill="none" stroke-linecap="round"></path></svg>