<svg xmlns="http://www.w3.org/2000/svg" xmlns:xlink="http://www.w3.org/1999/xlink" viewBox="0 0 453 236" width="453" height="236"><path d="M 88.500,79.000 C 85.786,84.413 86.000,84.500 83.500,90.000" stroke-width="4.898" stroke="black" fill="none" stroke-linecap="round"></path><path d="M 83.500,90.000 C 81.947,95.699 81.286,95.413 79.500,101.000" stroke-width="3.685" stroke="black" fill="none" stroke-linecap="round"></path><path d="M 79.500,101.000 C 75.192,108.352 75.947,108.699 71.500,116.000" stroke-width="2.958" stroke="black" fill="none" stroke-linecap="round"></path><path d="M 71.500,116.000 C 68.327,122.932 68.192,122.852 65.500,130.000" stroke-width="3.020" stroke="black" fill="none" stroke-linecap="round"></path><path d="M 65.500,130.000 C 63.523,135.509 63.327,135.432 61.500,141.000" stroke-width="3.176" stroke="black" fill="none" stroke-linecap="round"></path><path d="M 61.500,141.000 C 59.471,144.873 60.023,145.009 58.500,149.000" stroke-width="3.504" stroke="black" fill="none" stroke-linecap="round"></path><path d="M 58.500,149.000 C 57.500,158.450 57.471,153.373 57.500,158.000" stroke-width="4.323" stroke="black" fill="none" stroke-linecap="round"></path><path d="M 57.500,158.000 C 57.079,152.279 57.500,157.450 58.500,147.000" stroke-width="4.757" stroke="black" fill="none" stroke-linecap="round"></path><path d="M 75.500,76.000 C 79.897,73.863 80.000,74.500 84.500,73.000" stroke-width="4.841" stroke="black" fill="none" stroke-linecap="round"></path><path d="M 84.500,73.000 C 88.000,73.000 87.897,72.363 91.500,73.000" stroke-width="4.208" stroke="black" fill="none" stroke-linecap="round"></path><path d="M 91.500,73.000 C 96.500,73.000 96.500,73.000 101.500,73.000" stroke-width="3.656" stroke="black" fill="none" stroke-linecap="round"></path><path d="M 101.500,73.000 C 107.013,72.739 107.000,73.000 112.500,73.000" stroke-width="3.484" stroke="black" fill="none" stroke-linecap="round"></path><path d="M 112.500,73.000 C 117.590,73.079 117.513,73.239 122.500,74.000" stroke-width="3.464" stroke="black" fill="none" stroke-linecap="round"></path><path d="M 122.500,74.000 C 126.015,74.261 125.590,74.579 128.500,76.000" stroke-width="3.886" stroke="black" fill="none" stroke-linecap="round"></path><path d="M 128.500,76.000 C 131.997,78.233 131.015,77.761 132.500,81.000" stroke-width="4.429" stroke="black" fill="none" stroke-linecap="round"></path><path d="M 132.500,81.000 C 132.529,84.786 132.997,83.733 130.500,87.000" stroke-width="4.193" stroke="black" fill="none" stroke-linecap="round"></path><path d="M 130.500,87.000 C 126.487,91.070 127.029,90.786 121.500,93.000" stroke-width="4.125" stroke="black" fill="none" stroke-linecap="round"></path><path d="M 121.500,93.000 C 110.572,96.316 110.987,97.070 99.500,99.000" stroke-width="2.818" stroke="black" fill="none" stroke-linecap="round"></path><path d="M 99.500,99.000 C 94.035,100.385 94.072,100.316 88.500,101.000" stroke-width="3.146" stroke="black" fill="none" stroke-linecap="round"></path><path d="M 88.500,101.000 C 85.000,101.000 85.035,101.385 81.500,101.000" stroke-width="3.646" stroke="black" fill="none" stroke-linecap="round"></path><path d="M 81.500,101.000 C 78.500,101.000 78.500,101.000 75.500,101.000" stroke-width="3.947" stroke="black" fill="none" stroke-linecap="round"></path><path d="M 152.500,63.000 C 154.259,68.684 153.000,68.500 153.500,74.000" stroke-width="4.800" stroke="black" fill="none" stroke-linecap="round"></path><path d="M 153.500,74.000 C 152.054,79.285 152.759,79.184 149.500,84.000" stroke-width="3.826" stroke="black" fill="none" stroke-linecap="round"></path><path d="M 149.500,84.000 C 145.011,91.007 145.554,91.285 140.500,98.000" stroke-width="3.080" stroke="black" fill="none" stroke-linecap="round"></path><path d="M 140.500,98.000 C 134.975,106.484 135.011,106.507 129.500,115.000" stroke-width="2.702" stroke="black" fill="none" stroke-linecap="round"></path><path d="M 129.500,115.000 C 125.633,120.303 125.975,120.484 122.500,126.000" stroke-width="3.117" stroke="black" fill="none" stroke-linecap="round"></path><path d="M 122.500,126.000 C 120.474,130.489 120.133,130.303 118.500,135.000" stroke-width="3.463" stroke="black" fill="none" stroke-linecap="round"></path><path d="M 118.500,135.000 C 116.698,138.406 116.974,138.489 115.500,142.000" stroke-width="3.699" stroke="black" fill="none" stroke-linecap="round"></path><path d="M 115.500,142.000 C 114.730,144.473 114.698,144.406 114.500,147.000" stroke-width="4.153" stroke="black" fill="none" stroke-linecap="round"></path><path d="M 114.500,147.000 C 112.894,153.000 114.230,149.973 114.500,153.000" stroke-width="4.560" stroke="black" fill="none" stroke-linecap="round"></path><path d="M 114.500,153.000 C 119.000,150.000 117.394,153.000 123.500,147.000" stroke-width="4.351" stroke="black" fill="none" stroke-linecap="round"></path><path d="M 123.500,147.000 C 126.240,144.505 126.500,145.000 129.500,143.000" stroke-width="4.008" stroke="black" fill="none" stroke-linecap="round"></path><path d="M 129.500,143.000 C 139.313,138.274 139.240,138.505 149.500,135.000" stroke-width="3.680" stroke="black" fill="none" stroke-linecap="round"></path><path d="M 149.500,135.000 C 153.487,134.287 153.313,133.774 157.500,134.000" stroke-width="3.774" stroke="black" fill="none" stroke-linecap="round"></path><path d="M 157.500,134.000 C 161.110,132.697 160.487,133.787 163.500,134.000" stroke-width="3.990" stroke="black" fill="none" stroke-linecap="round"></path><path d="M 163.500,134.000 C 169.185,136.918 166.610,135.697 168.500,140.000" stroke-width="4.565" stroke="black" fill="none" stroke-linecap="round"></path><path d="M 168.500,140.000 C 163.651,145.774 167.185,145.918 159.500,152.000" stroke-width="3.259" stroke="black" fill="none" stroke-linecap="round"></path><path d="M 159.500,152.000 C 156.686,156.355 156.651,156.274 154.500,161.000" stroke-width="3.372" stroke="black" fill="none" stroke-linecap="round"></path><path d="M 154.500,161.000 C 152.529,164.884 152.686,164.855 151.500,169.000" stroke-width="3.624" stroke="black" fill="none" stroke-linecap="round"></path><path d="M 151.500,169.000 C 150.200,176.101 150.529,172.884 150.500,177.000" stroke-width="4.239" stroke="black" fill="none" stroke-linecap="round"></path><path d="M 192.500,140.000 C 191.619,145.551 193.000,144.500 193.500,149.000" stroke-width="4.902" stroke="black" fill="none" stroke-linecap="round"></path><path d="M 193.500,149.000 C 195.875,150.650 194.619,151.051 198.500,151.000" stroke-width="4.395" stroke="black" fill="none" stroke-linecap="round"></path><path d="M 198.500,151.000 C 204.233,152.524 203.375,151.650 208.500,151.000" stroke-width="4.381" stroke="black" fill="none" stroke-linecap="round"></path><path d="M 208.500,151.000 C 210.870,148.716 211.233,150.024 212.500,146.000" stroke-width="4.216" stroke="black" fill="none" stroke-linecap="round"></path><path d="M 212.500,146.000 C 214.126,143.620 213.870,143.716 214.500,141.000" stroke-width="4.295" stroke="black" fill="none" stroke-linecap="round"></path><path d="M 214.500,141.000 C 216.064,135.441 215.126,136.620 214.500,132.000" stroke-width="4.436" stroke="black" fill="none" stroke-linecap="round"></path><path d="M 214.500,132.000 C 212.085,129.754 213.564,129.941 209.500,130.000" stroke-width="4.361" stroke="black" fill="none" stroke-linecap="round"></path><path d="M 209.500,130.000 C 200.046,129.810 201.585,130.754 193.500,134.000" stroke-width="3.185" stroke="black" fill="none" stroke-linecap="round"></path><path d="M 193.500,134.000 C 188.572,139.735 187.546,137.810 184.500,146.000" stroke-width="2.982" stroke="black" fill="none" stroke-linecap="round"></path><path d="M 184.500,146.000 C 181.896,149.811 182.072,149.735 180.500,154.000" stroke-width="3.394" stroke="black" fill="none" stroke-linecap="round"></path><path d="M 180.500,154.000 C 179.770,157.484 179.396,157.311 179.500,161.000" stroke-width="4.189" stroke="black" fill="none" stroke-linecap="round"></path><path d="M 179.500,161.000 C 177.894,164.859 179.270,163.984 179.500,167.000" stroke-width="4.167" stroke="black" fill="none" stroke-linecap="round"></path><path d="M 179.500,167.000 C 183.587,171.362 182.394,170.859 188.500,173.000" stroke-width="3.628" stroke="black" fill="none" stroke-linecap="round"></path><path d="M 188.500,173.000 C 193.140,173.769 192.587,174.362 197.500,173.000" stroke-width="3.608" stroke="black" fill="none" stroke-linecap="round"></path><path d="M 197.500,173.000 C 201.763,171.993 201.640,172.269 205.500,170.000" stroke-width="3.702" stroke="black" fill="none" stroke-linecap="round"></path><path d="M 205.500,170.000 C 209.494,168.006 209.263,167.993 212.500,165.000" stroke-width="3.725" stroke="black" fill="none" stroke-linecap="round"></path><path d="M 212.500,165.000 C 216.562,161.429 215.994,161.506 218.500,157.000" stroke-width="4.120" stroke="black" fill="none" stroke-linecap="round"></path><path d="M 218.500,157.000 C 221.043,151.828 220.062,153.429 219.500,149.000" stroke-width="4.393" stroke="black" fill="none" stroke-linecap="round"></path><path d="M 219.500,149.000 C 216.079,147.278 218.043,146.328 212.500,146.000" stroke-width="3.969" stroke="black" fill="none" stroke-linecap="round"></path><path d="M 212.500,146.000 C 209.069,144.510 209.079,144.778 205.500,144.000" stroke-width="3.947" stroke="black" fill="none" stroke-linecap="round"></path><path d="M 279.500,72.000 C 275.801,78.399 276.000,78.500 272.500,85.000" stroke-width="4.959" stroke="black" fill="none" stroke-linecap="round"></path><path d="M 272.500,85.000 C 267.889,95.698 267.301,95.399 262.500,106.000" stroke-width="2.733" stroke="black" fill="none" stroke-linecap="round"></path><path d="M 262.500,106.000 C 250.311,127.901 250.889,128.198 238.500,150.000" stroke-width="2.394" stroke="black" fill="none" stroke-linecap="round"></path><path d="M 238.500,150.000 C 234.261,156.720 234.811,156.901 231.500,164.000" stroke-width="3.291" stroke="black" fill="none" stroke-linecap="round"></path><path d="M 231.500,164.000 C 226.753,178.751 228.761,171.220 227.500,179.000" stroke-width="3.037" stroke="black" fill="none" stroke-linecap="round"></path><path d="M 227.500,179.000 C 230.623,171.785 228.253,179.251 234.500,165.000" stroke-width="3.836" stroke="black" fill="none" stroke-linecap="round"></path><path d="M 286.500,134.000 C 293.228,129.456 289.500,131.000 292.500,128.000" stroke-width="5.068" stroke="black" fill="none" stroke-linecap="round"></path><path d="M 292.500,128.000 C 288.000,128.000 291.728,126.456 283.500,128.000" stroke-width="4.008" stroke="black" fill="none" stroke-linecap="round"></path><path d="M 283.500,128.000 C 269.500,128.000 269.500,128.000 255.500,128.000" stroke-width="3.280" stroke="black" fill="none" stroke-linecap="round"></path><path d="M 255.500,128.000 C 249.969,128.438 250.000,128.000 244.500,128.000" stroke-width="3.425" stroke="black" fill="none" stroke-linecap="round"></path><path d="M 244.500,128.000 C 237.482,127.102 237.469,127.438 230.500,126.000" stroke-width="3.745" stroke="black" fill="none" stroke-linecap="round"></path><path d="M 300.500,134.000 C 297.527,134.822 297.500,134.500 294.500,135.000" stroke-width="4.833" stroke="black" fill="none" stroke-linecap="round"></path><path d="M 294.500,135.000 C 288.978,134.696 289.027,135.322 283.500,135.000" stroke-width="4.410" stroke="black" fill="none" stroke-linecap="round"></path><path d="M 283.500,135.000 C 279.870,135.037 279.978,135.196 276.500,136.000" stroke-width="4.094" stroke="black" fill="none" stroke-linecap="round"></path><path d="M 276.500,136.000 C 272.318,136.652 272.870,137.037 269.500,139.000" stroke-width="3.994" stroke="black" fill="none" stroke-linecap="round"></path><path d="M 269.500,139.000 C 265.973,142.171 266.318,141.652 264.500,146.000" stroke-width="4.328" stroke="black" fill="none" stroke-linecap="round"></path><path d="M 264.500,146.000 C 263.973,149.101 263.473,148.671 264.500,152.000" stroke-width="4.159" stroke="black" fill="none" stroke-linecap="round"></path><path d="M 264.500,152.000 C 264.587,155.512 264.973,154.601 266.500,157.000" stroke-width="4.237" stroke="black" fill="none" stroke-linecap="round"></path><path d="M 266.500,157.000 C 269.919,158.579 269.087,159.012 273.500,159.000" stroke-width="4.157" stroke="black" fill="none" stroke-linecap="round"></path><path d="M 273.500,159.000 C 278.526,159.311 278.419,159.579 283.500,159.000" stroke-width="3.763" stroke="black" fill="none" stroke-linecap="round"></path><path d="M 283.500,159.000 C 286.995,159.461 286.526,158.811 289.500,158.000" stroke-width="3.976" stroke="black" fill="none" stroke-linecap="round"></path><path d="M 289.500,158.000 C 293.127,155.452 292.995,155.961 295.500,152.000" stroke-width="3.868" stroke="black" fill="none" stroke-linecap="round"></path><path d="M 295.500,152.000 C 299.933,142.567 298.627,147.452 300.500,142.000" stroke-width="3.580" stroke="black" fill="none" stroke-linecap="round"></path><path d="M 300.500,142.000 C 298.156,145.847 300.933,141.567 297.500,150.000" stroke-width="4.562" stroke="black" fill="none" stroke-linecap="round"></path><path d="M 297.500,150.000 C 295.405,156.548 296.656,155.347 297.500,161.000" stroke-width="3.626" stroke="black" fill="none" stroke-linecap="round"></path><path d="M 297.500,161.000 C 301.186,164.573 299.405,165.048 305.500,167.000" stroke-width="4.102" stroke="black" fill="none" stroke-linecap="round"></path><path d="M 355.500,138.000 C 348.953,136.719 349.000,137.500 342.500,137.000" stroke-width="5.068" stroke="black" fill="none" stroke-linecap="round"></path><path d="M 342.500,137.000 C 337.520,138.114 337.453,137.219 332.500,139.000" stroke-width="3.872" stroke="black" fill="none" stroke-linecap="round"></path><path d="M 332.500,139.000 C 328.986,139.419 329.020,139.614 325.500,140.000" stroke-width="3.987" stroke="black" fill="none" stroke-linecap="round"></path><path d="M 325.500,140.000 C 321.984,139.219 322.986,140.419 320.500,141.000" stroke-width="4.178" stroke="black" fill="none" stroke-linecap="round"></path><path d="M 320.500,141.000 C 316.538,146.466 316.984,145.219 315.500,152.000" stroke-width="4.492" stroke="black" fill="none" stroke-linecap="round"></path><path d="M 315.500,152.000 C 315.698,155.198 315.038,154.466 317.500,157.000" stroke-width="4.335" stroke="black" fill="none" stroke-linecap="round"></path><path d="M 317.500,157.000 C 320.732,159.823 320.198,159.698 324.500,161.000" stroke-width="3.901" stroke="black" fill="none" stroke-linecap="round"></path><path d="M 324.500,161.000 C 328.988,161.718 328.732,162.323 333.500,162.000" stroke-width="3.736" stroke="black" fill="none" stroke-linecap="round"></path><path d="M 333.500,162.000 C 337.664,163.418 336.988,162.218 340.500,162.000" stroke-width="3.907" stroke="black" fill="none" stroke-linecap="round"></path><path d="M 340.500,162.000 C 343.210,159.149 343.664,160.418 345.500,156.000" stroke-width="3.870" stroke="black" fill="none" stroke-linecap="round"></path><path d="M 345.500,156.000 C 346.935,153.459 347.210,153.649 348.500,151.000" stroke-width="4.127" stroke="black" fill="none" stroke-linecap="round"></path><path d="M 348.500,151.000 C 351.564,143.876 350.435,147.959 352.500,145.000" stroke-width="4.489" stroke="black" fill="none" stroke-linecap="round"></path><path d="M 352.500,145.000 C 353.500,151.004 354.064,146.876 353.500,157.000" stroke-width="4.673" stroke="black" fill="none" stroke-linecap="round"></path><path d="M 353.500,157.000 C 354.590,162.631 353.500,162.004 352.500,167.000" stroke-width="3.874" stroke="black" fill="none" stroke-linecap="round"></path><path d="M 352.500,167.000 C 348.043,173.995 349.090,174.131 342.500,180.000" stroke-width="3.106" stroke="black" fill="none" stroke-linecap="round"></path><path d="M 342.500,180.000 C 335.822,186.898 336.043,186.995 328.500,193.000" stroke-width="2.771" stroke="black" fill="none" stroke-linecap="round"></path><path d="M 328.500,193.000 C 323.537,196.554 323.822,196.898 318.500,200.000" stroke-width="3.278" stroke="black" fill="none" stroke-linecap="round"></path><path d="M 318.500,200.000 C 314.133,203.220 314.037,203.054 309.500,206.000" stroke-width="3.388" stroke="black" fill="none" stroke-linecap="round"></path><path d="M 309.500,206.000 C 304.186,209.512 304.133,209.220 298.500,212.000" stroke-width="3.221" stroke="black" fill="none" stroke-linecap="round"></path><path d="M 298.500,212.000 C 295.743,213.801 296.186,213.012 293.500,213.000" stroke-width="3.984" stroke="black" fill="none" stroke-linecap="round"></path><path d="M 293.500,213.000 C 288.250,210.750 288.743,211.301 284.500,207.000" stroke-width="4.158" stroke="black" fill="none" stroke-linecap="round"></path><path d="M 284.500,207.000 C 281.141,202.695 280.750,203.250 278.500,198.000" stroke-width="3.562" stroke="black" fill="none" stroke-linecap="round"></path><path d="M 278.500,198.000 C 276.472,194.643 276.641,194.695 275.500,191.000" stroke-width="3.782" stroke="black" fill="none" stroke-linecap="round"></path><path d="M 275.500,191.000 C 274.723,187.017 274.472,187.143 274.500,183.000" stroke-width="3.753" stroke="black" fill="none" stroke-linecap="round"></path><path d="M 375.500,137.000 C 374.382,140.470 374.500,140.500 373.500,144.000" stroke-width="4.732" stroke="black" fill="none" stroke-linecap="round"></path><path d="M 373.500,144.000 C 373.266,148.806 372.382,148.470 371.500,153.000" stroke-width="3.853" stroke="black" fill="none" stroke-linecap="round"></path><path d="M 371.500,153.000 C 368.500,158.000 369.266,158.306 365.500,163.000" stroke-width="3.476" stroke="black" fill="none" stroke-linecap="round"></path><path d="M 365.500,163.000 C 362.330,167.907 362.500,168.000 359.500,173.000" stroke-width="3.432" stroke="black" fill="none" stroke-linecap="round"></path><path d="M 359.500,173.000 C 357.373,176.943 357.330,176.907 355.500,181.000" stroke-width="3.776" stroke="black" fill="none" stroke-linecap="round"></path><path d="M 355.500,181.000 C 352.578,186.184 354.373,183.443 353.500,186.000" stroke-width="4.110" stroke="black" fill="none" stroke-linecap="round"></path><path d="M 353.500,186.000 C 357.745,183.603 355.078,185.684 360.500,180.000" stroke-width="4.528" stroke="black" fill="none" stroke-linecap="round"></path><path d="M 360.500,180.000 C 363.481,174.489 364.245,175.103 366.500,169.000" stroke-width="3.541" stroke="black" fill="none" stroke-linecap="round"></path><path d="M 366.500,169.000 C 368.854,164.411 368.981,164.489 371.500,160.000" stroke-width="3.567" stroke="black" fill="none" stroke-linecap="round"></path><path d="M 371.500,160.000 C 372.753,156.113 373.354,156.911 375.500,154.000" stroke-width="3.910" stroke="black" fill="none" stroke-linecap="round"></path><path d="M 375.500,154.000 C 379.824,151.169 379.253,151.113 384.500,150.000" stroke-width="3.600" stroke="black" fill="none" stroke-linecap="round"></path><path d="M 384.500,150.000 C 389.558,148.058 387.824,149.169 391.500,150.000" stroke-width="4.284" stroke="black" fill="none" stroke-linecap="round"></path><path d="M 391.500,150.000 C 391.730,154.869 394.058,152.558 393.500,159.000" stroke-width="4.714" stroke="black" fill="none" stroke-linecap="round"></path><path d="M 420.500,154.000 C 416.516,152.927 416.500,153.000 412.500,152.000" stroke-width="5.043" stroke="black" fill="none" stroke-linecap="round"></path><path d="M 412.500,152.000 C 410.032,151.181 410.016,151.427 407.500,151.000" stroke-width="4.562" stroke="black" fill="none" stroke-linecap="round"></path><path d="M 407.500,151.000 C 403.000,151.000 403.032,150.681 398.500,151.000" stroke-width="3.905" stroke="black" fill="none" stroke-linecap="round"></path><path d="M 398.500,151.000 C 394.542,149.894 395.000,151.000 391.500,151.000" stroke-width="3.911" stroke="black" fill="none" stroke-linecap="round"></path><path d="M 391.500,151.000 C 389.101,152.713 389.042,151.894 387.500,155.000" stroke-width="4.079" stroke="black" fill="none" stroke-linecap="round"></path><path d="M 387.500,155.000 C 385.408,157.821 385.601,157.713 384.500,161.000" stroke-width="4.493" stroke="black" fill="none" stroke-linecap="round"></path><path d="M 384.500,161.000 C 382.301,166.002 383.408,164.821 383.500,169.000" stroke-width="4.049" stroke="black" fill="none" stroke-linecap="round"></path><path d="M 383.500,169.000 C 385.891,170.565 384.301,171.002 388.500,171.000" stroke-width="4.203" stroke="black" fill="none" stroke-linecap="round"></path><path d="M 388.500,171.000 C 392.000,171.000 391.891,171.565 395.500,171.000" stroke-width="3.996" stroke="black" fill="none" stroke-linecap="round"></path><path d="M 395.500,171.000 C 399.227,171.818 399.000,171.000 402.500,171.000" stroke-width="3.937" stroke="black" fill="none" stroke-linecap="round"></path><path d="M 402.500,171.000 C 405.149,169.710 405.227,170.318 407.500,168.000" stroke-width="4.065" stroke="black" fill="none" stroke-linecap="round"></path><path d="M 407.500,168.000 C 412.123,161.623 410.649,165.710 413.500,163.000" stroke-width="4.374" stroke="black" fill="none" stroke-linecap="round"></path><path d="M 413.500,163.000 C 412.175,170.681 415.623,165.123 414.500,175.000" stroke-width="4.811" stroke="black" fill="none" stroke-linecap="round"></path><path d="M 414.500,175.000 C 417.705,176.645 415.675,177.181 420.500,176.000" stroke-width="4.936" stroke="black" fill="none" stroke-linecap="round"></path><path d="M 107.500,183.000 C 109.661,176.280 109.000,179.500 110.500,176.000" stroke-width="5.136" stroke="black" fill="none" stroke-linecap="round"></path><path d="M 110.500,176.000 C 110.699,179.011 111.161,175.780 110.500,182.000" stroke-width="4.458" stroke="black" fill="none" stroke-linecap="round"></path><path d="M 110.500,182.000 C 110.205,186.532 110.199,186.511 109.500,191.000" stroke-width="3.814" stroke="black" fill="none" stroke-linecap="round"></path><path d="M 109.500,191.000 C 108.734,196.062 108.705,196.032 107.500,201.000" stroke-width="3.541" stroke="black" fill="none" stroke-linecap="round"></path><path d="M 117.500,165.000 C 120.949,163.254 121.000,164.000 124.500,163.000" stroke-width="5.198" stroke="black" fill="none" stroke-linecap="round"></path><path d="M 124.500,163.000 C 128.028,163.349 127.949,162.754 131.500,164.000" stroke-width="4.275" stroke="black" fill="none" stroke-linecap="round"></path><path d="M 131.500,164.000 C 136.013,164.944 136.028,164.849 140.500,166.000" stroke-width="3.921" stroke="black" fill="none" stroke-linecap="round"></path><path d="M 140.500,166.000 C 144.472,167.137 144.513,166.944 148.500,168.000" stroke-width="3.772" stroke="black" fill="none" stroke-linecap="round"></path><path d="M 148.500,168.000 C 151.909,167.705 151.472,168.637 154.500,169.000" stroke-width="4.024" stroke="black" fill="none" stroke-linecap="round"></path><path d="M 154.500,169.000 C 159.720,171.115 156.909,170.205 158.500,173.000" stroke-width="4.564" stroke="black" fill="none" stroke-linecap="round"></path><path d="M 158.500,173.000 C 151.581,180.406 154.220,179.615 143.500,186.000" stroke-width="2.902" stroke="black" fill="none" stroke-linecap="round"></path><path d="M 143.500,186.000 C 138.183,189.023 138.581,189.406 132.500,191.000" stroke-width="3.108" stroke="black" fill="none" stroke-linecap="round"></path><path d="M 132.500,191.000 C 125.989,194.343 126.683,193.023 120.500,194.000" stroke-width="3.756" stroke="black" fill="none" stroke-linecap="round"></path><path d="M 176.500,158.000 C 174.041,162.864 174.500,163.000 172.500,168.000" stroke-width="4.786" stroke="black" fill="none" stroke-linecap="round"></path><path d="M 172.500,168.000 C 171.785,173.072 171.041,172.864 170.500,178.000" stroke-width="3.881" stroke="black" fill="none" stroke-linecap="round"></path><path d="M 170.500,178.000 C 168.480,184.494 168.785,184.572 166.500,191.000" stroke-width="3.319" stroke="black" fill="none" stroke-linecap="round"></path><path d="M 166.500,191.000 C 165.057,196.018 164.980,195.994 163.500,201.000" stroke-width="3.433" stroke="black" fill="none" stroke-linecap="round"></path><path d="M 163.500,201.000 C 162.265,203.942 162.557,204.018 161.500,207.000" stroke-width="3.981" stroke="black" fill="none" stroke-linecap="round"></path><path d="M 161.500,207.000 C 159.439,211.939 160.765,209.942 160.500,213.000" stroke-width="4.503" stroke="black" fill="none" stroke-linecap="round"></path><path d="M 160.500,213.000 C 163.365,212.553 161.439,213.939 165.500,211.000" stroke-width="4.418" stroke="black" fill="none" stroke-linecap="round"></path><path d="M 165.500,211.000 C 168.167,207.564 168.865,208.553 171.500,205.000" stroke-width="3.930" stroke="black" fill="none" stroke-linecap="round"></path><path d="M 171.500,205.000 C 174.825,202.531 174.667,202.564 178.500,201.000" stroke-width="3.985" stroke="black" fill="none" stroke-linecap="round"></path><path d="M 178.500,201.000 C 180.992,200.456 180.825,200.031 183.500,200.000" stroke-width="4.177" stroke="black" fill="none" stroke-linecap="round"></path><path d="M 183.500,200.000 C 187.476,197.583 186.492,199.456 189.500,199.000" stroke-width="4.153" stroke="black" fill="none" stroke-linecap="round"></path><path d="M 189.500,199.000 C 193.214,203.000 192.476,201.083 193.500,207.000" stroke-width="4.694" stroke="black" fill="none" stroke-linecap="round"></path><path d="M 193.500,207.000 C 191.549,209.853 193.714,210.000 190.500,213.000" stroke-width="4.211" stroke="black" fill="none" stroke-linecap="round"></path><path d="M 219.500,193.000 C 224.362,195.716 224.500,195.000 229.500,197.000" stroke-width="4.847" stroke="black" fill="none" stroke-linecap="round"></path><path d="M 229.500,197.000 C 232.500,197.000 232.362,197.716 235.500,197.000" stroke-width="4.292" stroke="black" fill="none" stroke-linecap="round"></path><path d="M 235.500,197.000 C 239.829,198.147 239.500,197.000 243.500,197.000" stroke-width="4.096" stroke="black" fill="none" stroke-linecap="round"></path><path d="M 243.500,197.000 C 248.764,195.344 247.829,195.647 251.500,192.000" stroke-width="4.325" stroke="black" fill="none" stroke-linecap="round"></path><path d="M 251.500,192.000 C 254.012,187.296 253.264,189.844 252.500,186.000" stroke-width="4.642" stroke="black" fill="none" stroke-linecap="round"></path><path d="M 252.500,186.000 C 248.500,186.000 250.512,184.296 244.500,186.000" stroke-width="3.979" stroke="black" fill="none" stroke-linecap="round"></path><path d="M 244.500,186.000 C 239.286,184.992 239.500,186.000 234.500,186.000" stroke-width="3.663" stroke="black" fill="none" stroke-linecap="round"></path><path d="M 234.500,186.000 C 229.683,187.490 229.786,186.992 225.500,190.000" stroke-width="3.591" stroke="black" fill="none" stroke-linecap="round"></path><path d="M 225.500,190.000 C 221.711,191.904 222.183,191.990 219.500,195.000" stroke-width="3.721" stroke="black" fill="none" stroke-linecap="round"></path><path d="M 219.500,195.000 C 216.743,199.339 216.711,198.904 215.500,204.000" stroke-width="4.109" stroke="black" fill="none" stroke-linecap="round"></path><path d="M 215.500,204.000 C 214.232,207.718 214.743,206.839 215.500,210.000" stroke-width="4.143" stroke="black" fill="none" stroke-linecap="round"></path><path d="M 215.500,210.000 C 217.808,211.964 216.732,212.218 220.500,213.000" stroke-width="4.175" stroke="black" fill="none" stroke-linecap="round"></path><path d="M 220.500,213.000 C 224.444,214.324 224.308,214.464 228.500,215.000" stroke-width="3.840" stroke="black" fill="none" stroke-linecap="round"></path><path d="M 228.500,215.000 C 233.490,215.705 233.444,215.824 238.500,216.000" stroke-width="3.621" stroke="black" fill="none" stroke-linecap="round"></path><path d="M 238.500,216.000 C 242.000,216.000 241.990,216.205 245.500,216.000" stroke-width="3.868" stroke="black" fill="none" stroke-linecap="round"></path><path d="M 245.500,216.000 C 249.298,216.985 249.000,216.000 252.500,216.000" stroke-width="3.899" stroke="black" fill="none" stroke-linecap="round"></path><path d="M 252.500,216.000 C 255.852,214.384 255.798,214.985 258.500,212.000" stroke-width="3.934" stroke="black" fill="none" stroke-linecap="round"></path><path d="M 277.500,180.000 C 276.010,183.431 276.500,183.500 275.500,187.000" stroke-width="4.640" stroke="black" fill="none" stroke-linecap="round"></path><path d="M 275.500,187.000 C 275.500,190.500 275.010,190.431 275.500,194.000" stroke-width="4.161" stroke="black" fill="none" stroke-linecap="round"></path><path d="M 275.500,194.000 C 275.500,197.500 275.500,197.500 275.500,201.000" stroke-width="4.083" stroke="black" fill="none" stroke-linecap="round"></path><path d="M 275.500,201.000 C 275.730,204.016 275.500,204.000 275.500,207.000" stroke-width="4.177" stroke="black" fill="none" stroke-linecap="round"></path><path d="M 275.500,207.000 C 273.500,213.500 275.230,210.516 274.500,214.000" stroke-width="4.517" stroke="black" fill="none" stroke-linecap="round"></path><path d="M 274.500,214.000 C 277.138,211.624 275.500,214.500 279.500,209.000" stroke-width="4.841" stroke="black" fill="none" stroke-linecap="round"></path><path d="M 279.500,209.000 C 281.350,206.365 281.638,206.624 283.500,204.000" stroke-width="4.286" stroke="black" fill="none" stroke-linecap="round"></path><path d="M 283.500,204.000 C 286.300,200.773 286.350,200.865 289.500,198.000" stroke-width="3.840" stroke="black" fill="none" stroke-linecap="round"></path><path d="M 289.500,198.000 C 293.746,194.056 293.800,194.273 298.500,191.000" stroke-width="4.050" stroke="black" fill="none" stroke-linecap="round"></path><path d="M 298.500,191.000 C 300.917,189.704 300.746,189.556 303.500,189.000" stroke-width="4.160" stroke="black" fill="none" stroke-linecap="round"></path><path d="M 303.500,189.000 C 307.378,186.939 306.417,188.204 309.500,188.000" stroke-width="4.570" stroke="black" fill="none" stroke-linecap="round"></path><path d="M 309.500,188.000 C 310.809,190.408 311.378,188.939 311.500,193.000" stroke-width="4.357" stroke="black" fill="none" stroke-linecap="round"></path><path d="M 311.500,193.000 C 312.266,198.062 312.809,197.908 313.500,203.000" stroke-width="3.732" stroke="black" fill="none" stroke-linecap="round"></path><circle r="1.5" cx="335.5" cy="214" fill="black"></circle><path d="M 340.500,210.000 C 344.421,211.645 344.500,211.000 348.500,212.000" stroke-width="4.945" stroke="black" fill="none" stroke-linecap="round"></path><path d="M 348.500,212.000 C 356.000,212.000 355.921,212.645 363.500,212.000" stroke-width="3.391" stroke="black" fill="none" stroke-linecap="round"></path><path d="M 363.500,212.000 C 375.500,212.000 375.500,212.000 387.500,212.000" stroke-width="2.573" stroke="black" fill="none" stroke-linecap="round"></path><path d="M 387.500,212.000 C 399.550,212.763 399.500,212.000 411.500,212.000" stroke-width="2.338" stroke="black" fill="none" stroke-linecap="round"></path><path d="M 411.500,212.000 C 423.280,211.683 423.050,211.263 434.500,209.000" stroke-width="2.367" stroke="black" fill="none" stroke-linecap="round"></path></svg>