<svg xmlns="http://www.w3.org/2000/svg" xmlns:xlink="http://www.w3.org/1999/xlink" viewBox="0 0 453 236" width="453" height="236"><path d="M 41.500,171.000 C 45.640,170.379 45.500,170.000 49.500,169.000" stroke-width="4.866" stroke="black" fill="none" stroke-linecap="round"></path><path d="M 49.500,169.000 C 52.500,167.500 52.640,167.879 55.500,166.000" stroke-width="4.347" stroke="black" fill="none" stroke-linecap="round"></path><path d="M 55.500,166.000 C 60.877,164.082 60.500,163.500 65.500,161.000" stroke-width="3.632" stroke="black" fill="none" stroke-linecap="round"></path><path d="M 65.500,161.000 C 71.373,156.894 71.377,157.082 76.500,152.000" stroke-width="3.149" stroke="black" fill="none" stroke-linecap="round"></path><path d="M 76.500,152.000 C 82.395,146.320 82.373,146.394 87.500,140.000" stroke-width="3.010" stroke="black" fill="none" stroke-linecap="round"></path><path d="M 87.500,140.000 C 92.500,133.000 92.895,133.320 97.500,126.000" stroke-width="2.794" stroke="black" fill="none" stroke-linecap="round"></path><path d="M 97.500,126.000 C 102.655,119.107 102.500,119.000 107.500,112.000" stroke-width="2.996" stroke="black" fill="none" stroke-linecap="round"></path><path d="M 107.500,112.000 C 117.420,96.946 117.655,97.107 127.500,82.000" stroke-width="2.282" stroke="black" fill="none" stroke-linecap="round"></path><path d="M 127.500,82.000 C 131.985,75.490 131.920,75.446 136.500,69.000" stroke-width="2.639" stroke="black" fill="none" stroke-linecap="round"></path><path d="M 136.500,69.000 C 140.245,64.153 139.985,63.990 143.500,59.000" stroke-width="3.054" stroke="black" fill="none" stroke-linecap="round"></path><path d="M 143.500,59.000 C 146.654,54.748 146.245,54.653 148.500,50.000" stroke-width="3.246" stroke="black" fill="none" stroke-linecap="round"></path><path d="M 148.500,50.000 C 149.521,45.505 150.154,45.748 150.500,41.000" stroke-width="3.465" stroke="black" fill="none" stroke-linecap="round"></path><path d="M 150.500,41.000 C 152.443,34.047 152.021,34.005 153.500,27.000" stroke-width="3.796" stroke="black" fill="none" stroke-linecap="round"></path><path d="M 153.500,27.000 C 154.768,21.761 153.943,24.047 153.500,21.000" stroke-width="3.998" stroke="black" fill="none" stroke-linecap="round"></path><path d="M 153.500,21.000 C 150.681,22.092 152.268,20.261 148.500,24.000" stroke-width="4.758" stroke="black" fill="none" stroke-linecap="round"></path><path d="M 148.500,24.000 C 142.751,29.271 142.681,29.092 137.500,35.000" stroke-width="3.242" stroke="black" fill="none" stroke-linecap="round"></path><path d="M 137.500,35.000 C 132.124,41.609 131.751,41.271 126.500,48.000" stroke-width="2.862" stroke="black" fill="none" stroke-linecap="round"></path><path d="M 126.500,48.000 C 120.754,53.791 121.124,54.109 115.500,60.000" stroke-width="2.810" stroke="black" fill="none" stroke-linecap="round"></path><path d="M 115.500,60.000 C 109.647,66.748 109.754,66.791 104.500,74.000" stroke-width="2.924" stroke="black" fill="none" stroke-linecap="round"></path><path d="M 104.500,74.000 C 98.819,82.388 98.647,82.248 93.500,91.000" stroke-width="2.601" stroke="black" fill="none" stroke-linecap="round"></path><path d="M 93.500,91.000 C 88.261,99.370 88.319,99.388 83.500,108.000" stroke-width="2.603" stroke="black" fill="none" stroke-linecap="round"></path><path d="M 83.500,108.000 C 80.602,114.054 80.261,113.870 77.500,120.000" stroke-width="2.959" stroke="black" fill="none" stroke-linecap="round"></path><path d="M 77.500,120.000 C 73.856,125.241 74.602,125.554 71.500,131.000" stroke-width="3.149" stroke="black" fill="none" stroke-linecap="round"></path><path d="M 71.500,131.000 C 69.951,136.487 69.356,136.241 68.500,142.000" stroke-width="3.243" stroke="black" fill="none" stroke-linecap="round"></path><path d="M 68.500,142.000 C 67.126,145.933 67.451,145.987 66.500,150.000" stroke-width="3.557" stroke="black" fill="none" stroke-linecap="round"></path><path d="M 66.500,150.000 C 65.623,159.017 65.126,158.933 64.500,168.000" stroke-width="3.925" stroke="black" fill="none" stroke-linecap="round"></path><path d="M 64.500,168.000 C 63.500,171.000 64.123,171.017 63.500,174.000" stroke-width="4.482" stroke="black" fill="none" stroke-linecap="round"></path><path d="M 63.500,174.000 C 62.868,178.096 63.500,177.000 64.500,180.000" stroke-width="4.934" stroke="black" fill="none" stroke-linecap="round"></path><path d="M 64.500,180.000 C 66.973,180.770 65.868,181.596 69.500,181.000" stroke-width="4.876" stroke="black" fill="none" stroke-linecap="round"></path><path d="M 69.500,181.000 C 72.543,181.394 72.473,181.270 75.500,181.000" stroke-width="4.350" stroke="black" fill="none" stroke-linecap="round"></path><path d="M 75.500,181.000 C 80.159,180.447 80.043,180.394 84.500,179.000" stroke-width="4.383" stroke="black" fill="none" stroke-linecap="round"></path><path d="M 84.500,179.000 C 87.608,177.687 87.659,177.947 90.500,176.000" stroke-width="4.080" stroke="black" fill="none" stroke-linecap="round"></path><path d="M 90.500,176.000 C 93.459,173.935 93.608,174.187 96.500,172.000" stroke-width="3.936" stroke="black" fill="none" stroke-linecap="round"></path><path d="M 96.500,172.000 C 99.154,170.721 98.959,170.435 101.500,169.000" stroke-width="4.491" stroke="black" fill="none" stroke-linecap="round"></path><path d="M 101.500,169.000 C 106.582,165.098 106.654,165.221 111.500,161.000" stroke-width="3.438" stroke="black" fill="none" stroke-linecap="round"></path><path d="M 111.500,161.000 C 116.242,158.073 115.582,157.598 119.500,154.000" stroke-width="4.217" stroke="black" fill="none" stroke-linecap="round"></path><path d="M 119.500,154.000 C 122.104,150.189 122.242,150.573 123.500,146.000" stroke-width="3.831" stroke="black" fill="none" stroke-linecap="round"></path><path d="M 123.500,146.000 C 124.500,142.486 124.604,142.689 124.500,139.000" stroke-width="4.374" stroke="black" fill="none" stroke-linecap="round"></path><path d="M 124.500,139.000 C 125.252,134.973 124.500,136.486 123.500,134.000" stroke-width="5.059" stroke="black" fill="none" stroke-linecap="round"></path><path d="M 123.500,134.000 C 119.182,132.948 120.752,132.473 115.500,134.000" stroke-width="5.080" stroke="black" fill="none" stroke-linecap="round"></path><path d="M 115.500,134.000 C 112.302,135.758 112.182,134.948 109.500,138.000" stroke-width="4.764" stroke="black" fill="none" stroke-linecap="round"></path><path d="M 109.500,138.000 C 107.149,139.732 107.302,139.758 105.500,142.000" stroke-width="4.370" stroke="black" fill="none" stroke-linecap="round"></path><path d="M 105.500,142.000 C 103.531,145.518 103.149,145.232 101.500,149.000" stroke-width="4.474" stroke="black" fill="none" stroke-linecap="round"></path><path d="M 101.500,149.000 C 99.479,151.308 100.031,151.518 98.500,154.000" stroke-width="4.698" stroke="black" fill="none" stroke-linecap="round"></path><path d="M 98.500,154.000 C 97.500,156.994 97.479,156.808 97.500,160.000" stroke-width="4.943" stroke="black" fill="none" stroke-linecap="round"></path><path d="M 97.500,160.000 C 96.797,164.445 97.500,163.494 98.500,167.000" stroke-width="4.924" stroke="black" fill="none" stroke-linecap="round"></path><path d="M 98.500,167.000 C 101.000,168.000 99.797,168.945 103.500,169.000" stroke-width="5.024" stroke="black" fill="none" stroke-linecap="round"></path><path d="M 103.500,169.000 C 105.880,170.626 106.000,170.000 108.500,171.000" stroke-width="5.055" stroke="black" fill="none" stroke-linecap="round"></path><path d="M 108.500,171.000 C 113.000,171.000 112.880,171.626 117.500,171.000" stroke-width="5.064" stroke="black" fill="none" stroke-linecap="round"></path><path d="M 117.500,171.000 C 121.000,171.000 121.000,171.000 124.500,171.000" stroke-width="5.160" stroke="black" fill="none" stroke-linecap="round"></path><path d="M 124.500,171.000 C 127.926,172.029 127.500,171.000 130.500,171.000" stroke-width="5.214" stroke="black" fill="none" stroke-linecap="round"></path><path d="M 130.500,171.000 C 132.899,169.287 132.926,170.029 134.500,167.000" stroke-width="5.359" stroke="black" fill="none" stroke-linecap="round"></path><path d="M 134.500,167.000 C 136.301,164.117 136.399,164.287 137.500,161.000" stroke-width="5.330" stroke="black" fill="none" stroke-linecap="round"></path><path d="M 137.500,161.000 C 138.739,157.551 138.801,157.617 139.500,154.000" stroke-width="5.029" stroke="black" fill="none" stroke-linecap="round"></path><path d="M 139.500,154.000 C 140.230,150.516 140.239,150.551 140.500,147.000" stroke-width="4.745" stroke="black" fill="none" stroke-linecap="round"></path><path d="M 140.500,147.000 C 141.261,143.789 140.730,144.016 140.500,141.000" stroke-width="4.739" stroke="black" fill="none" stroke-linecap="round"></path><path d="M 140.500,141.000 C 139.500,138.000 139.761,138.289 137.500,136.000" stroke-width="4.958" stroke="black" fill="none" stroke-linecap="round"></path><path d="M 137.500,136.000 C 135.000,134.500 135.500,134.000 132.500,133.000" stroke-width="4.832" stroke="black" fill="none" stroke-linecap="round"></path><path d="M 132.500,133.000 C 130.167,131.067 130.000,131.500 127.500,130.000" stroke-width="4.811" stroke="black" fill="none" stroke-linecap="round"></path><path d="M 127.500,130.000 C 124.366,128.067 125.167,129.067 122.500,129.000" stroke-width="5.270" stroke="black" fill="none" stroke-linecap="round"></path><path d="M 122.500,129.000 C 120.239,131.289 120.366,130.067 119.500,134.000" stroke-width="5.432" stroke="black" fill="none" stroke-linecap="round"></path><path d="M 119.500,134.000 C 118.232,137.718 118.739,136.789 119.500,140.000" stroke-width="5.376" stroke="black" fill="none" stroke-linecap="round"></path><path d="M 119.500,140.000 C 121.808,142.021 120.732,142.218 124.500,143.000" stroke-width="5.119" stroke="black" fill="none" stroke-linecap="round"></path><path d="M 124.500,143.000 C 127.476,143.784 127.308,144.021 130.500,144.000" stroke-width="4.900" stroke="black" fill="none" stroke-linecap="round"></path><path d="M 130.500,144.000 C 134.538,144.417 134.476,144.284 138.500,144.000" stroke-width="4.633" stroke="black" fill="none" stroke-linecap="round"></path><path d="M 138.500,144.000 C 144.147,143.487 144.038,143.417 149.500,142.000" stroke-width="4.346" stroke="black" fill="none" stroke-linecap="round"></path><path d="M 149.500,142.000 C 152.949,140.366 153.147,140.987 156.500,139.000" stroke-width="4.518" stroke="black" fill="none" stroke-linecap="round"></path><path d="M 156.500,139.000 C 159.767,138.491 159.449,137.866 162.500,137.000" stroke-width="4.658" stroke="black" fill="none" stroke-linecap="round"></path><path d="M 162.500,137.000 C 165.111,135.124 165.267,135.491 167.500,133.000" stroke-width="5.283" stroke="black" fill="none" stroke-linecap="round"></path><path d="M 167.500,133.000 C 169.500,131.000 169.611,131.124 171.500,129.000" stroke-width="5.127" stroke="black" fill="none" stroke-linecap="round"></path><path d="M 171.500,129.000 C 173.500,127.000 173.500,127.000 175.500,125.000" stroke-width="4.938" stroke="black" fill="none" stroke-linecap="round"></path><path d="M 175.500,125.000 C 177.284,122.723 177.500,123.000 179.500,121.000" stroke-width="5.106" stroke="black" fill="none" stroke-linecap="round"></path><path d="M 179.500,121.000 C 182.000,119.500 181.784,119.223 184.500,118.000" stroke-width="5.376" stroke="black" fill="none" stroke-linecap="round"></path><path d="M 184.500,118.000 C 186.833,116.067 187.000,116.500 189.500,115.000" stroke-width="5.297" stroke="black" fill="none" stroke-linecap="round"></path><path d="M 189.500,115.000 C 192.000,114.500 191.833,114.067 194.500,114.000" stroke-width="5.248" stroke="black" fill="none" stroke-linecap="round"></path><path d="M 194.500,114.000 C 196.973,113.230 197.000,113.500 199.500,113.000" stroke-width="5.153" stroke="black" fill="none" stroke-linecap="round"></path><path d="M 199.500,113.000 C 202.500,113.000 202.473,112.730 205.500,113.000" stroke-width="5.155" stroke="black" fill="none" stroke-linecap="round"></path><path d="M 205.500,113.000 C 212.733,113.000 209.000,113.000 212.500,113.000" stroke-width="5.111" stroke="black" fill="none" stroke-linecap="round"></path><path d="M 212.500,113.000 C 208.481,112.735 212.233,113.000 204.500,113.000" stroke-width="5.241" stroke="black" fill="none" stroke-linecap="round"></path><path d="M 204.500,113.000 C 200.906,113.148 200.981,113.235 197.500,114.000" stroke-width="4.225" stroke="black" fill="none" stroke-linecap="round"></path><path d="M 197.500,114.000 C 194.985,114.964 194.906,114.648 192.500,116.000" stroke-width="4.213" stroke="black" fill="none" stroke-linecap="round"></path><path d="M 192.500,116.000 C 188.898,117.301 188.985,117.464 185.500,119.000" stroke-width="4.027" stroke="black" fill="none" stroke-linecap="round"></path><path d="M 185.500,119.000 C 182.883,120.332 182.898,120.301 180.500,122.000" stroke-width="4.512" stroke="black" fill="none" stroke-linecap="round"></path><path d="M 180.500,122.000 C 178.000,124.000 177.883,123.832 175.500,126.000" stroke-width="4.154" stroke="black" fill="none" stroke-linecap="round"></path><path d="M 175.500,126.000 C 172.857,127.840 173.000,128.000 170.500,130.000" stroke-width="4.228" stroke="black" fill="none" stroke-linecap="round"></path><path d="M 170.500,130.000 C 166.854,133.367 166.857,133.340 163.500,137.000" stroke-width="3.671" stroke="black" fill="none" stroke-linecap="round"></path><path d="M 163.500,137.000 C 160.202,139.595 160.854,139.867 158.500,143.000" stroke-width="4.228" stroke="black" fill="none" stroke-linecap="round"></path><path d="M 158.500,143.000 C 156.978,146.936 156.702,146.595 156.500,151.000" stroke-width="4.396" stroke="black" fill="none" stroke-linecap="round"></path><path d="M 156.500,151.000 C 156.500,155.500 155.978,155.436 156.500,160.000" stroke-width="4.485" stroke="black" fill="none" stroke-linecap="round"></path><path d="M 156.500,160.000 C 156.730,163.016 156.500,163.000 156.500,166.000" stroke-width="4.202" stroke="black" fill="none" stroke-linecap="round"></path><path d="M 156.500,166.000 C 155.500,169.506 156.230,169.516 155.500,173.000" stroke-width="4.494" stroke="black" fill="none" stroke-linecap="round"></path><path d="M 155.500,173.000 C 154.640,177.605 155.500,176.006 156.500,179.000" stroke-width="4.934" stroke="black" fill="none" stroke-linecap="round"></path><path d="M 156.500,179.000 C 160.085,179.525 158.640,180.605 163.500,179.000" stroke-width="4.742" stroke="black" fill="none" stroke-linecap="round"></path><path d="M 163.500,179.000 C 166.855,178.628 166.585,178.525 169.500,177.000" stroke-width="4.221" stroke="black" fill="none" stroke-linecap="round"></path><path d="M 169.500,177.000 C 173.250,174.250 173.355,174.628 176.500,171.000" stroke-width="3.802" stroke="black" fill="none" stroke-linecap="round"></path><path d="M 176.500,171.000 C 179.481,167.484 179.750,167.750 182.500,164.000" stroke-width="3.636" stroke="black" fill="none" stroke-linecap="round"></path><path d="M 182.500,164.000 C 186.278,160.213 185.981,159.984 189.500,156.000" stroke-width="3.566" stroke="black" fill="none" stroke-linecap="round"></path><path d="M 189.500,156.000 C 192.562,151.540 192.778,151.713 195.500,147.000" stroke-width="3.416" stroke="black" fill="none" stroke-linecap="round"></path><path d="M 195.500,147.000 C 197.765,142.830 198.062,143.040 200.500,139.000" stroke-width="3.604" stroke="black" fill="none" stroke-linecap="round"></path><path d="M 200.500,139.000 C 203.475,136.291 202.765,135.830 205.500,133.000" stroke-width="3.821" stroke="black" fill="none" stroke-linecap="round"></path><path d="M 205.500,133.000 C 207.134,129.551 207.475,129.791 208.500,126.000" stroke-width="3.814" stroke="black" fill="none" stroke-linecap="round"></path><path d="M 208.500,126.000 C 209.500,123.000 209.634,123.051 210.500,120.000" stroke-width="3.964" stroke="black" fill="none" stroke-linecap="round"></path><path d="M 210.500,120.000 C 211.841,117.077 211.500,117.000 212.500,114.000" stroke-width="4.058" stroke="black" fill="none" stroke-linecap="round"></path><path d="M 212.500,114.000 C 213.213,106.573 213.341,110.077 213.500,106.000" stroke-width="4.371" stroke="black" fill="none" stroke-linecap="round"></path><path d="M 213.500,106.000 C 213.871,109.031 213.713,105.573 213.500,112.000" stroke-width="5.089" stroke="black" fill="none" stroke-linecap="round"></path><path d="M 213.500,112.000 C 212.632,121.166 212.371,121.031 210.500,130.000" stroke-width="3.155" stroke="black" fill="none" stroke-linecap="round"></path><path d="M 210.500,130.000 C 208.853,135.652 209.132,135.666 206.500,141.000" stroke-width="3.276" stroke="black" fill="none" stroke-linecap="round"></path><path d="M 206.500,141.000 C 203.319,148.181 203.353,148.152 199.500,155.000" stroke-width="2.961" stroke="black" fill="none" stroke-linecap="round"></path><path d="M 199.500,155.000 C 195.889,160.432 196.319,160.681 192.500,166.000" stroke-width="3.113" stroke="black" fill="none" stroke-linecap="round"></path><path d="M 192.500,166.000 C 189.155,172.096 188.889,171.932 185.500,178.000" stroke-width="3.101" stroke="black" fill="none" stroke-linecap="round"></path><path d="M 185.500,178.000 C 182.387,182.429 182.655,182.596 179.500,187.000" stroke-width="3.275" stroke="black" fill="none" stroke-linecap="round"></path><path d="M 179.500,187.000 C 176.392,191.938 176.387,191.929 173.500,197.000" stroke-width="3.260" stroke="black" fill="none" stroke-linecap="round"></path><path d="M 173.500,197.000 C 170.856,202.726 170.392,202.438 167.500,208.000" stroke-width="3.185" stroke="black" fill="none" stroke-linecap="round"></path><path d="M 167.500,208.000 C 163.689,213.647 163.856,213.726 159.500,219.000" stroke-width="3.143" stroke="black" fill="none" stroke-linecap="round"></path><path d="M 159.500,219.000 C 155.113,225.682 154.689,225.147 149.500,231.000" stroke-width="2.929" stroke="black" fill="none" stroke-linecap="round"></path><path d="M 149.500,231.000 C 145.359,234.841 145.613,234.682 140.500,237.000" stroke-width="3.268" stroke="black" fill="none" stroke-linecap="round"></path><path d="M 140.500,237.000 C 136.019,238.096 136.359,238.841 131.500,239.000" stroke-width="3.524" stroke="black" fill="none" stroke-linecap="round"></path><path d="M 131.500,239.000 C 126.020,240.128 126.019,240.096 120.500,241.000" stroke-width="3.432" stroke="black" fill="none" stroke-linecap="round"></path><path d="M 120.500,241.000 C 116.516,241.749 116.520,241.628 112.500,242.000" stroke-width="3.642" stroke="black" fill="none" stroke-linecap="round"></path><path d="M 112.500,242.000 C 108.500,242.000 108.516,242.249 104.500,242.000" stroke-width="3.717" stroke="black" fill="none" stroke-linecap="round"></path><path d="M 104.500,242.000 C 101.457,242.394 101.500,242.000 98.500,242.000" stroke-width="3.971" stroke="black" fill="none" stroke-linecap="round"></path><path d="M 98.500,242.000 C 92.111,242.849 93.957,241.394 89.500,240.000" stroke-width="4.278" stroke="black" fill="none" stroke-linecap="round"></path><path d="M 89.500,240.000 C 87.765,235.032 86.611,236.849 87.500,230.000" stroke-width="4.332" stroke="black" fill="none" stroke-linecap="round"></path><path d="M 87.500,230.000 C 86.970,225.152 87.265,225.532 88.500,221.000" stroke-width="3.846" stroke="black" fill="none" stroke-linecap="round"></path><path d="M 88.500,221.000 C 90.983,215.616 90.470,215.652 94.500,211.000" stroke-width="3.533" stroke="black" fill="none" stroke-linecap="round"></path><path d="M 94.500,211.000 C 99.132,205.112 98.983,205.116 104.500,200.000" stroke-width="3.077" stroke="black" fill="none" stroke-linecap="round"></path><path d="M 104.500,200.000 C 109.584,194.858 109.632,195.112 115.500,191.000" stroke-width="3.008" stroke="black" fill="none" stroke-linecap="round"></path><path d="M 115.500,191.000 C 121.449,187.894 121.084,187.358 127.500,185.000" stroke-width="3.044" stroke="black" fill="none" stroke-linecap="round"></path><path d="M 127.500,185.000 C 132.882,182.199 132.949,182.394 138.500,180.000" stroke-width="3.262" stroke="black" fill="none" stroke-linecap="round"></path><path d="M 138.500,180.000 C 144.396,177.592 144.382,177.699 150.500,176.000" stroke-width="3.236" stroke="black" fill="none" stroke-linecap="round"></path><path d="M 150.500,176.000 C 156.070,175.293 155.896,174.592 161.500,174.000" stroke-width="3.288" stroke="black" fill="none" stroke-linecap="round"></path><path d="M 161.500,174.000 C 166.500,172.500 166.570,172.793 171.500,171.000" stroke-width="3.423" stroke="black" fill="none" stroke-linecap="round"></path><path d="M 171.500,171.000 C 176.551,169.650 176.500,169.500 181.500,168.000" stroke-width="3.466" stroke="black" fill="none" stroke-linecap="round"></path><path d="M 181.500,168.000 C 185.500,166.500 185.551,166.650 189.500,165.000" stroke-width="3.604" stroke="black" fill="none" stroke-linecap="round"></path><path d="M 189.500,165.000 C 193.429,163.272 193.500,163.500 197.500,162.000" stroke-width="3.648" stroke="black" fill="none" stroke-linecap="round"></path><path d="M 197.500,162.000 C 201.462,160.808 201.429,160.772 205.500,160.000" stroke-width="3.745" stroke="black" fill="none" stroke-linecap="round"></path><path d="M 205.500,160.000 C 209.006,159.538 208.962,159.308 212.500,159.000" stroke-width="3.853" stroke="black" fill="none" stroke-linecap="round"></path><path d="M 212.500,159.000 C 215.614,158.888 215.506,158.538 218.500,158.000" stroke-width="4.051" stroke="black" fill="none" stroke-linecap="round"></path><path d="M 218.500,158.000 C 221.985,156.464 222.114,156.888 225.500,155.000" stroke-width="4.401" stroke="black" fill="none" stroke-linecap="round"></path><path d="M 225.500,155.000 C 228.000,154.000 227.985,153.964 230.500,153.000" stroke-width="4.697" stroke="black" fill="none" stroke-linecap="round"></path><path d="M 230.500,153.000 C 233.216,152.370 233.000,152.000 235.500,151.000" stroke-width="5.042" stroke="black" fill="none" stroke-linecap="round"></path><path d="M 235.500,151.000 C 237.610,147.889 238.216,149.370 240.500,147.000" stroke-width="5.167" stroke="black" fill="none" stroke-linecap="round"></path><path d="M 240.500,147.000 C 244.524,147.284 244.110,145.889 248.500,147.000" stroke-width="5.458" stroke="black" fill="none" stroke-linecap="round"></path><path d="M 248.500,147.000 C 251.511,146.560 251.524,146.784 254.500,146.000" stroke-width="4.411" stroke="black" fill="none" stroke-linecap="round"></path><path d="M 255.500,178.000 C 258.062,177.138 258.000,177.000 260.500,176.000" stroke-width="5.383" stroke="black" fill="none" stroke-linecap="round"></path><path d="M 260.500,176.000 C 265.906,174.063 265.562,173.638 270.500,171.000" stroke-width="4.498" stroke="black" fill="none" stroke-linecap="round"></path><path d="M 270.500,171.000 C 272.715,168.142 273.406,169.063 275.500,166.000" stroke-width="4.117" stroke="black" fill="none" stroke-linecap="round"></path><path d="M 275.500,166.000 C 279.617,163.670 279.215,163.142 283.500,161.000" stroke-width="4.273" stroke="black" fill="none" stroke-linecap="round"></path><path d="M 283.500,161.000 C 287.417,157.882 287.617,158.170 291.500,155.000" stroke-width="3.733" stroke="black" fill="none" stroke-linecap="round"></path><path d="M 291.500,155.000 C 296.119,152.164 295.917,151.882 300.500,149.000" stroke-width="3.577" stroke="black" fill="none" stroke-linecap="round"></path><path d="M 300.500,149.000 C 305.101,145.623 305.119,145.664 309.500,142.000" stroke-width="3.367" stroke="black" fill="none" stroke-linecap="round"></path><path d="M 309.500,142.000 C 313.515,138.517 313.601,138.623 317.500,135.000" stroke-width="3.432" stroke="black" fill="none" stroke-linecap="round"></path><path d="M 317.500,135.000 C 322.000,131.000 322.015,131.017 326.500,127.000" stroke-width="3.333" stroke="black" fill="none" stroke-linecap="round"></path><path d="M 326.500,127.000 C 331.251,123.249 331.000,123.000 335.500,119.000" stroke-width="3.359" stroke="black" fill="none" stroke-linecap="round"></path><path d="M 335.500,119.000 C 339.000,115.000 339.251,115.249 342.500,111.000" stroke-width="3.373" stroke="black" fill="none" stroke-linecap="round"></path><path d="M 342.500,111.000 C 346.135,107.112 346.000,107.000 349.500,103.000" stroke-width="3.486" stroke="black" fill="none" stroke-linecap="round"></path><path d="M 349.500,103.000 C 355.106,96.080 355.135,96.112 360.500,89.000" stroke-width="2.934" stroke="black" fill="none" stroke-linecap="round"></path><path d="M 360.500,89.000 C 363.253,85.652 363.106,85.580 365.500,82.000" stroke-width="3.452" stroke="black" fill="none" stroke-linecap="round"></path><path d="M 365.500,82.000 C 366.709,78.814 367.253,79.152 368.500,76.000" stroke-width="3.840" stroke="black" fill="none" stroke-linecap="round"></path><path d="M 368.500,76.000 C 370.668,73.617 370.209,73.314 372.500,71.000" stroke-width="4.009" stroke="black" fill="none" stroke-linecap="round"></path><path d="M 372.500,71.000 C 374.199,68.602 374.168,68.617 375.500,66.000" stroke-width="4.088" stroke="black" fill="none" stroke-linecap="round"></path><path d="M 375.500,66.000 C 379.066,61.832 377.199,62.602 378.500,59.000" stroke-width="4.397" stroke="black" fill="none" stroke-linecap="round"></path><path d="M 378.500,59.000 C 375.883,55.762 378.066,56.832 373.500,56.000" stroke-width="4.967" stroke="black" fill="none" stroke-linecap="round"></path><path d="M 373.500,56.000 C 370.865,57.850 370.883,56.262 368.500,60.000" stroke-width="4.262" stroke="black" fill="none" stroke-linecap="round"></path><path d="M 368.500,60.000 C 365.500,63.000 365.365,62.850 362.500,66.000" stroke-width="3.892" stroke="black" fill="none" stroke-linecap="round"></path><path d="M 362.500,66.000 C 359.000,69.500 359.000,69.500 355.500,73.000" stroke-width="3.590" stroke="black" fill="none" stroke-linecap="round"></path><path d="M 355.500,73.000 C 352.500,76.000 352.500,76.000 349.500,79.000" stroke-width="3.872" stroke="black" fill="none" stroke-linecap="round"></path><path d="M 349.500,79.000 C 346.500,82.000 346.500,82.000 343.500,85.000" stroke-width="3.837" stroke="black" fill="none" stroke-linecap="round"></path><path d="M 343.500,85.000 C 339.866,88.376 340.000,88.500 336.500,92.000" stroke-width="3.689" stroke="black" fill="none" stroke-linecap="round"></path><path d="M 336.500,92.000 C 333.624,95.615 333.366,95.376 330.500,99.000" stroke-width="3.660" stroke="black" fill="none" stroke-linecap="round"></path><path d="M 330.500,99.000 C 327.231,101.772 327.624,102.115 324.500,105.000" stroke-width="3.724" stroke="black" fill="none" stroke-linecap="round"></path><path d="M 324.500,105.000 C 321.823,108.387 321.731,108.272 319.500,112.000" stroke-width="3.678" stroke="black" fill="none" stroke-linecap="round"></path><path d="M 319.500,112.000 C 317.500,115.500 317.323,115.387 315.500,119.000" stroke-width="3.773" stroke="black" fill="none" stroke-linecap="round"></path><path d="M 315.500,119.000 C 313.611,122.569 313.500,122.500 311.500,126.000" stroke-width="3.750" stroke="black" fill="none" stroke-linecap="round"></path><path d="M 311.500,126.000 C 309.389,128.931 309.611,129.069 307.500,132.000" stroke-width="3.888" stroke="black" fill="none" stroke-linecap="round"></path><path d="M 307.500,132.000 C 305.611,135.569 305.389,135.431 303.500,139.000" stroke-width="3.837" stroke="black" fill="none" stroke-linecap="round"></path><path d="M 303.500,139.000 C 301.660,142.120 301.611,142.069 299.500,145.000" stroke-width="3.865" stroke="black" fill="none" stroke-linecap="round"></path><path d="M 299.500,145.000 C 296.790,147.851 297.160,148.120 294.500,151.000" stroke-width="3.805" stroke="black" fill="none" stroke-linecap="round"></path><path d="M 294.500,151.000 C 293.000,153.500 292.790,153.351 291.500,156.000" stroke-width="4.066" stroke="black" fill="none" stroke-linecap="round"></path><path d="M 291.500,156.000 C 290.028,158.517 290.000,158.500 288.500,161.000" stroke-width="4.105" stroke="black" fill="none" stroke-linecap="round"></path><path d="M 288.500,161.000 C 286.235,165.170 286.028,165.017 283.500,169.000" stroke-width="4.270" stroke="black" fill="none" stroke-linecap="round"></path><path d="M 283.500,169.000 C 280.790,171.851 281.235,172.170 278.500,175.000" stroke-width="4.478" stroke="black" fill="none" stroke-linecap="round"></path><path d="M 278.500,175.000 C 274.967,178.933 276.790,177.351 275.500,180.000" stroke-width="4.849" stroke="black" fill="none" stroke-linecap="round"></path><path d="M 275.500,180.000 C 278.405,180.257 275.967,180.933 280.500,179.000" stroke-width="5.359" stroke="black" fill="none" stroke-linecap="round"></path><path d="M 280.500,179.000 C 283.000,176.500 283.405,177.257 285.500,174.000" stroke-width="5.031" stroke="black" fill="none" stroke-linecap="round"></path><path d="M 285.500,174.000 C 288.393,170.885 288.500,171.000 291.500,168.000" stroke-width="4.628" stroke="black" fill="none" stroke-linecap="round"></path><path d="M 291.500,168.000 C 295.329,164.277 295.393,164.385 299.500,161.000" stroke-width="4.383" stroke="black" fill="none" stroke-linecap="round"></path><path d="M 299.500,161.000 C 302.723,159.272 302.329,158.777 305.500,157.000" stroke-width="4.016" stroke="black" fill="none" stroke-linecap="round"></path><path d="M 305.500,157.000 C 307.793,154.256 308.223,154.772 310.500,152.000" stroke-width="3.986" stroke="black" fill="none" stroke-linecap="round"></path><path d="M 310.500,152.000 C 313.887,149.323 313.793,149.256 317.500,147.000" stroke-width="3.807" stroke="black" fill="none" stroke-linecap="round"></path><path d="M 317.500,147.000 C 321.152,145.232 320.887,144.823 324.500,143.000" stroke-width="3.946" stroke="black" fill="none" stroke-linecap="round"></path><path d="M 324.500,143.000 C 328.348,139.768 328.652,140.232 332.500,137.000" stroke-width="3.654" stroke="black" fill="none" stroke-linecap="round"></path><path d="M 332.500,137.000 C 336.000,135.000 335.848,134.768 339.500,133.000" stroke-width="3.714" stroke="black" fill="none" stroke-linecap="round"></path><path d="M 339.500,133.000 C 343.000,131.000 343.000,131.000 346.500,129.000" stroke-width="3.732" stroke="black" fill="none" stroke-linecap="round"></path><path d="M 346.500,129.000 C 349.903,126.799 350.000,127.000 353.500,125.000" stroke-width="3.738" stroke="black" fill="none" stroke-linecap="round"></path><path d="M 353.500,125.000 C 356.051,124.113 355.903,123.799 358.500,123.000" stroke-width="4.055" stroke="black" fill="none" stroke-linecap="round"></path><path d="M 358.500,123.000 C 361.500,121.500 361.551,121.613 364.500,120.000" stroke-width="4.040" stroke="black" fill="none" stroke-linecap="round"></path><path d="M 364.500,120.000 C 371.372,116.477 367.500,118.500 370.500,117.000" stroke-width="4.464" stroke="black" fill="none" stroke-linecap="round"></path><path d="M 370.500,117.000 C 364.989,119.981 368.872,117.977 359.500,123.000" stroke-width="4.825" stroke="black" fill="none" stroke-linecap="round"></path><path d="M 359.500,123.000 C 355.054,125.603 354.989,125.481 350.500,128.000" stroke-width="3.750" stroke="black" fill="none" stroke-linecap="round"></path><path d="M 350.500,128.000 C 345.630,130.802 345.554,130.603 340.500,133.000" stroke-width="3.736" stroke="black" fill="none" stroke-linecap="round"></path><path d="M 340.500,133.000 C 334.806,134.568 335.130,135.302 329.500,137.000" stroke-width="3.443" stroke="black" fill="none" stroke-linecap="round"></path><path d="M 329.500,137.000 C 323.000,140.500 322.806,140.068 316.500,144.000" stroke-width="3.064" stroke="black" fill="none" stroke-linecap="round"></path><path d="M 316.500,144.000 C 309.656,146.999 310.000,147.500 303.500,151.000" stroke-width="3.026" stroke="black" fill="none" stroke-linecap="round"></path><path d="M 303.500,151.000 C 300.147,154.194 299.656,153.499 296.500,157.000" stroke-width="3.387" stroke="black" fill="none" stroke-linecap="round"></path><path d="M 296.500,157.000 C 293.541,159.065 293.647,159.194 290.500,161.000" stroke-width="3.716" stroke="black" fill="none" stroke-linecap="round"></path><path d="M 290.500,161.000 C 288.000,162.500 288.041,162.565 285.500,164.000" stroke-width="4.034" stroke="black" fill="none" stroke-linecap="round"></path><path d="M 285.500,164.000 C 281.280,164.921 283.000,165.500 280.500,167.000" stroke-width="4.555" stroke="black" fill="none" stroke-linecap="round"></path><path d="M 280.500,167.000 C 280.660,170.390 279.780,168.921 282.500,172.000" stroke-width="5.238" stroke="black" fill="none" stroke-linecap="round"></path><path d="M 282.500,172.000 C 285.415,173.525 284.660,173.890 288.500,174.000" stroke-width="5.224" stroke="black" fill="none" stroke-linecap="round"></path><path d="M 288.500,174.000 C 292.000,174.000 291.915,174.525 295.500,174.000" stroke-width="4.782" stroke="black" fill="none" stroke-linecap="round"></path><path d="M 295.500,174.000 C 299.000,174.000 299.000,174.000 302.500,174.000" stroke-width="4.139" stroke="black" fill="none" stroke-linecap="round"></path><path d="M 302.500,174.000 C 305.521,174.298 305.500,174.000 308.500,174.000" stroke-width="4.233" stroke="black" fill="none" stroke-linecap="round"></path><path d="M 308.500,174.000 C 315.717,173.696 315.521,173.298 322.500,172.000" stroke-width="4.022" stroke="black" fill="none" stroke-linecap="round"></path><path d="M 322.500,172.000 C 325.412,170.287 325.717,171.196 328.500,169.000" stroke-width="3.981" stroke="black" fill="none" stroke-linecap="round"></path><path d="M 328.500,169.000 C 331.529,168.080 331.412,167.787 334.500,167.000" stroke-width="4.063" stroke="black" fill="none" stroke-linecap="round"></path><path d="M 334.500,167.000 C 337.190,166.347 337.029,166.080 339.500,165.000" stroke-width="4.314" stroke="black" fill="none" stroke-linecap="round"></path><path d="M 339.500,165.000 C 343.060,162.580 343.190,162.847 346.500,160.000" stroke-width="4.453" stroke="black" fill="none" stroke-linecap="round"></path><path d="M 346.500,160.000 C 349.111,158.124 349.060,158.080 351.500,156.000" stroke-width="4.630" stroke="black" fill="none" stroke-linecap="round"></path><path d="M 351.500,156.000 C 355.763,153.315 353.611,154.124 355.500,152.000" stroke-width="5.087" stroke="black" fill="none" stroke-linecap="round"></path><path d="M 355.500,152.000 C 352.781,150.298 355.263,150.815 350.500,151.000" stroke-width="5.382" stroke="black" fill="none" stroke-linecap="round"></path><path d="M 350.500,151.000 C 346.383,153.330 346.281,152.298 342.500,156.000" stroke-width="4.635" stroke="black" fill="none" stroke-linecap="round"></path><path d="M 342.500,156.000 C 338.308,158.778 338.383,158.830 334.500,162.000" stroke-width="4.450" stroke="black" fill="none" stroke-linecap="round"></path><path d="M 334.500,162.000 C 331.225,164.044 331.808,164.278 329.500,167.000" stroke-width="4.576" stroke="black" fill="none" stroke-linecap="round"></path><path d="M 329.500,167.000 C 326.354,171.250 327.725,170.044 327.500,174.000" stroke-width="4.805" stroke="black" fill="none" stroke-linecap="round"></path><path d="M 327.500,174.000 C 330.628,177.451 328.854,177.250 334.500,179.000" stroke-width="4.791" stroke="black" fill="none" stroke-linecap="round"></path><path d="M 334.500,179.000 C 338.486,179.732 338.128,180.451 342.500,180.000" stroke-width="4.598" stroke="black" fill="none" stroke-linecap="round"></path><path d="M 342.500,180.000 C 346.018,180.249 345.986,180.232 349.500,180.000" stroke-width="4.151" stroke="black" fill="none" stroke-linecap="round"></path><path d="M 349.500,180.000 C 353.130,179.963 353.018,179.749 356.500,179.000" stroke-width="4.024" stroke="black" fill="none" stroke-linecap="round"></path><path d="M 356.500,179.000 C 360.000,177.500 360.130,177.963 363.500,176.000" stroke-width="3.873" stroke="black" fill="none" stroke-linecap="round"></path><path d="M 363.500,176.000 C 366.985,174.464 367.000,174.500 370.500,173.000" stroke-width="3.829" stroke="black" fill="none" stroke-linecap="round"></path><path d="M 370.500,173.000 C 373.149,172.283 372.985,171.964 375.500,171.000" stroke-width="4.201" stroke="black" fill="none" stroke-linecap="round"></path><path d="M 375.500,171.000 C 378.392,168.813 378.649,169.283 381.500,167.000" stroke-width="4.515" stroke="black" fill="none" stroke-linecap="round"></path><path d="M 381.500,167.000 C 384.558,165.605 384.392,165.313 387.500,164.000" stroke-width="5.174" stroke="black" fill="none" stroke-linecap="round"></path><path d="M 387.500,164.000 C 390.000,162.500 390.058,162.605 392.500,161.000" stroke-width="4.390" stroke="black" fill="none" stroke-linecap="round"></path><path d="M 392.500,161.000 C 395.000,159.500 395.000,159.500 397.500,158.000" stroke-width="4.247" stroke="black" fill="none" stroke-linecap="round"></path><path d="M 397.500,158.000 C 402.000,154.500 400.000,156.500 402.500,155.000" stroke-width="4.621" stroke="black" fill="none" stroke-linecap="round"></path><path d="M 402.500,155.000 C 401.116,157.576 403.000,155.500 399.500,160.000" stroke-width="4.839" stroke="black" fill="none" stroke-linecap="round"></path><path d="M 399.500,160.000 C 393.050,165.964 397.116,163.576 394.500,167.000" stroke-width="4.569" stroke="black" fill="none" stroke-linecap="round"></path><path d="M 394.500,167.000 C 400.898,167.101 396.550,168.464 406.500,165.000" stroke-width="4.701" stroke="black" fill="none" stroke-linecap="round"></path><path d="M 406.500,165.000 C 412.596,161.655 412.898,162.601 418.500,158.000" stroke-width="3.449" stroke="black" fill="none" stroke-linecap="round"></path><path d="M 418.500,158.000 C 422.960,154.938 423.096,155.155 427.500,152.000" stroke-width="3.441" stroke="black" fill="none" stroke-linecap="round"></path><path d="M 427.500,152.000 C 431.267,148.976 431.460,149.438 435.500,147.000" stroke-width="3.509" stroke="black" fill="none" stroke-linecap="round"></path><path d="M 435.500,147.000 C 438.971,145.882 438.767,145.476 442.500,145.000" stroke-width="3.799" stroke="black" fill="none" stroke-linecap="round"></path><path d="M 442.500,145.000 C 444.971,144.211 444.971,144.382 447.500,144.000" stroke-width="4.114" stroke="black" fill="none" stroke-linecap="round"></path><path d="M 447.500,144.000 C 451.247,144.929 450.971,143.711 454.500,144.000" stroke-width="4.905" stroke="black" fill="none" stroke-linecap="round"></path><path d="M 454.500,144.000 C 463.604,139.876 458.247,142.929 461.500,140.000" stroke-width="4.629" stroke="black" fill="none" stroke-linecap="round"></path><path d="M 461.500,140.000 C 449.500,142.500 455.104,140.376 437.500,145.000" stroke-width="4.433" stroke="black" fill="none" stroke-linecap="round"></path><path d="M 437.500,145.000 C 425.605,148.153 425.500,147.500 413.500,150.000" stroke-width="2.691" stroke="black" fill="none" stroke-linecap="round"></path><path d="M 413.500,150.000 C 395.993,151.942 396.105,152.653 378.500,154.000" stroke-width="2.712" stroke="black" fill="none" stroke-linecap="round"></path><path d="M 378.500,154.000 C 362.056,156.746 361.993,155.942 345.500,158.000" stroke-width="2.151" stroke="black" fill="none" stroke-linecap="round"></path><path d="M 345.500,158.000 C 329.004,158.738 329.056,159.246 312.500,159.000" stroke-width="1.978" stroke="black" fill="none" stroke-linecap="round"></path><path d="M 312.500,159.000 C 297.463,158.191 297.504,159.238 282.500,159.000" stroke-width="1.963" stroke="black" fill="none" stroke-linecap="round"></path><path d="M 282.500,159.000 C 260.423,160.442 260.463,160.191 238.500,163.000" stroke-width="1.611" stroke="black" fill="none" stroke-linecap="round"></path></svg>