<svg xmlns="http://www.w3.org/2000/svg" xmlns:xlink="http://www.w3.org/1999/xlink" viewBox="0 0 1460 583" width="1460" height="583"><path d="M 476.000,359.000 C 470.625,356.480 470.500,357.000 465.000,355.000" stroke-width="5.043" stroke="black" fill="none" stroke-linecap="round"></path><path d="M 465.000,355.000 C 460.893,355.005 461.125,353.980 457.000,354.000" stroke-width="4.357" stroke="black" fill="none" stroke-linecap="round"></path><path d="M 457.000,354.000 C 444.902,351.940 445.393,351.005 434.000,347.000" stroke-width="3.037" stroke="black" fill="none" stroke-linecap="round"></path><path d="M 434.000,347.000 C 413.658,335.685 412.902,337.440 393.000,325.000" stroke-width="2.199" stroke="black" fill="none" stroke-linecap="round"></path><path d="M 393.000,325.000 C 384.649,320.604 384.658,320.685 376.000,317.000" stroke-width="2.973" stroke="black" fill="none" stroke-linecap="round"></path><path d="M 376.000,317.000 C 366.494,315.470 372.649,315.604 369.000,315.000" stroke-width="3.942" stroke="black" fill="none" stroke-linecap="round"></path><path d="M 369.000,315.000 C 388.705,314.168 382.494,312.470 408.000,311.000" stroke-width="4.034" stroke="black" fill="none" stroke-linecap="round"></path><path d="M 408.000,311.000 C 422.823,309.590 422.205,308.668 436.000,304.000" stroke-width="2.362" stroke="black" fill="none" stroke-linecap="round"></path><path d="M 436.000,304.000 C 454.789,293.098 455.823,295.590 474.000,283.000" stroke-width="2.012" stroke="black" fill="none" stroke-linecap="round"></path><path d="M 474.000,283.000 C 494.945,274.615 493.789,272.598 514.000,263.000" stroke-width="1.664" stroke="black" fill="none" stroke-linecap="round"></path><path d="M 514.000,263.000 C 546.784,241.372 547.445,242.615 579.000,219.000" stroke-width="1.137" stroke="black" fill="none" stroke-linecap="round"></path><path d="M 579.000,219.000 C 582.146,215.517 582.784,216.372 586.000,213.000" stroke-width="2.194" stroke="black" fill="none" stroke-linecap="round"></path><path d="M 586.000,213.000 C 606.870,199.766 606.646,199.517 628.000,187.000" stroke-width="1.933" stroke="black" fill="none" stroke-linecap="round"></path><path d="M 628.000,187.000 C 634.802,183.038 630.870,185.266 634.000,184.000" stroke-width="3.252" stroke="black" fill="none" stroke-linecap="round"></path><path d="M 634.000,184.000 C 628.978,189.264 632.302,186.038 623.000,193.000" stroke-width="4.188" stroke="black" fill="none" stroke-linecap="round"></path><path d="M 623.000,193.000 C 615.666,194.803 616.978,196.764 610.000,199.000" stroke-width="3.323" stroke="black" fill="none" stroke-linecap="round"></path><path d="M 610.000,199.000 C 603.153,206.158 602.166,204.803 596.000,213.000" stroke-width="2.781" stroke="black" fill="none" stroke-linecap="round"></path><path d="M 596.000,213.000 C 578.949,227.021 580.153,228.158 564.000,243.000" stroke-width="1.744" stroke="black" fill="none" stroke-linecap="round"></path><path d="M 564.000,243.000 C 550.861,258.888 549.949,258.021 538.000,275.000" stroke-width="1.849" stroke="black" fill="none" stroke-linecap="round"></path><path d="M 538.000,275.000 C 506.102,316.503 505.361,315.888 473.000,357.000" stroke-width="1.125" stroke="black" fill="none" stroke-linecap="round"></path><path d="M 473.000,357.000 C 457.225,372.554 459.102,374.003 444.000,390.000" stroke-width="1.636" stroke="black" fill="none" stroke-linecap="round"></path><path d="M 444.000,390.000 C 436.680,405.796 433.725,403.554 426.000,419.000" stroke-width="1.839" stroke="black" fill="none" stroke-linecap="round"></path><path d="M 426.000,419.000 C 408.617,439.892 409.180,439.796 389.000,458.000" stroke-width="1.929" stroke="black" fill="none" stroke-linecap="round"></path><path d="M 389.000,458.000 C 382.057,463.919 382.617,463.892 374.000,467.000" stroke-width="2.535" stroke="black" fill="none" stroke-linecap="round"></path><path d="M 374.000,467.000 C 364.555,469.353 365.057,470.419 355.000,471.000" stroke-width="2.703" stroke="black" fill="none" stroke-linecap="round"></path><path d="M 355.000,471.000 C 349.581,472.916 350.055,471.853 345.000,472.000" stroke-width="3.626" stroke="black" fill="none" stroke-linecap="round"></path><path d="M 345.000,472.000 C 341.194,470.628 342.081,471.416 340.000,468.000" stroke-width="4.631" stroke="black" fill="none" stroke-linecap="round"></path><path d="M 340.000,468.000 C 339.122,464.293 338.694,465.128 340.000,461.000" stroke-width="4.159" stroke="black" fill="none" stroke-linecap="round"></path><path d="M 340.000,461.000 C 341.317,456.508 341.122,456.793 344.000,453.000" stroke-width="3.816" stroke="black" fill="none" stroke-linecap="round"></path><path d="M 344.000,453.000 C 347.899,447.741 347.817,448.008 353.000,444.000" stroke-width="3.240" stroke="black" fill="none" stroke-linecap="round"></path><path d="M 353.000,444.000 C 364.101,438.354 362.899,436.741 374.000,431.000" stroke-width="2.514" stroke="black" fill="none" stroke-linecap="round"></path><path d="M 374.000,431.000 C 398.307,411.253 399.101,412.354 423.000,392.000" stroke-width="2.084" stroke="black" fill="none" stroke-linecap="round"></path><path d="M 423.000,392.000 C 456.125,363.460 457.307,365.253 492.000,339.000" stroke-width="1.494" stroke="black" fill="none" stroke-linecap="round"></path><path d="M 492.000,339.000 C 523.542,320.571 522.125,318.460 555.000,302.000" stroke-width="1.244" stroke="black" fill="none" stroke-linecap="round"></path><path d="M 555.000,302.000 C 565.277,296.430 565.042,296.071 575.000,290.000" stroke-width="1.898" stroke="black" fill="none" stroke-linecap="round"></path><path d="M 575.000,290.000 C 595.722,275.059 596.277,275.930 617.000,261.000" stroke-width="1.524" stroke="black" fill="none" stroke-linecap="round"></path><path d="M 617.000,261.000 C 623.916,256.846 623.722,256.559 631.000,253.000" stroke-width="2.311" stroke="black" fill="none" stroke-linecap="round"></path><path d="M 631.000,253.000 C 641.216,246.622 641.416,247.346 652.000,242.000" stroke-width="2.337" stroke="black" fill="none" stroke-linecap="round"></path><path d="M 652.000,242.000 C 656.114,239.950 655.216,240.622 659.000,241.000" stroke-width="3.489" stroke="black" fill="none" stroke-linecap="round"></path><path d="M 659.000,241.000 C 664.999,244.601 661.614,241.950 663.000,246.000" stroke-width="4.490" stroke="black" fill="none" stroke-linecap="round"></path><path d="M 663.000,246.000 C 650.987,250.465 654.999,251.601 639.000,255.000" stroke-width="2.639" stroke="black" fill="none" stroke-linecap="round"></path><path d="M 639.000,255.000 C 632.453,257.384 632.487,257.465 626.000,260.000" stroke-width="2.941" stroke="black" fill="none" stroke-linecap="round"></path><path d="M 626.000,260.000 C 612.661,262.784 613.953,264.884 602.000,270.000" stroke-width="2.333" stroke="black" fill="none" stroke-linecap="round"></path><path d="M 602.000,270.000 C 580.466,285.976 580.161,284.784 561.000,304.000" stroke-width="2.006" stroke="black" fill="none" stroke-linecap="round"></path><path d="M 561.000,304.000 C 554.350,311.886 553.466,310.976 548.000,320.000" stroke-width="2.683" stroke="black" fill="none" stroke-linecap="round"></path><path d="M 548.000,320.000 C 540.131,326.795 545.350,323.386 543.000,327.000" stroke-width="3.418" stroke="black" fill="none" stroke-linecap="round"></path><path d="M 543.000,327.000 C 560.401,327.485 554.131,327.795 576.000,322.000" stroke-width="3.347" stroke="black" fill="none" stroke-linecap="round"></path><path d="M 576.000,322.000 C 604.824,308.092 605.901,311.485 634.000,295.000" stroke-width="1.405" stroke="black" fill="none" stroke-linecap="round"></path><path d="M 634.000,295.000 C 643.820,290.499 643.824,290.592 654.000,287.000" stroke-width="1.978" stroke="black" fill="none" stroke-linecap="round"></path><path d="M 654.000,287.000 C 676.476,281.071 675.820,279.499 698.000,273.000" stroke-width="1.628" stroke="black" fill="none" stroke-linecap="round"></path><path d="M 698.000,273.000 C 703.864,269.230 704.476,270.571 710.000,266.000" stroke-width="2.437" stroke="black" fill="none" stroke-linecap="round"></path><path d="M 710.000,266.000 C 714.602,261.692 713.364,264.230 717.000,263.000" stroke-width="3.260" stroke="black" fill="none" stroke-linecap="round"></path><path d="M 717.000,263.000 C 722.123,267.423 720.102,264.692 721.000,272.000" stroke-width="4.195" stroke="black" fill="none" stroke-linecap="round"></path><path d="M 721.000,272.000 C 712.635,294.054 715.623,293.923 704.000,316.000" stroke-width="1.777" stroke="black" fill="none" stroke-linecap="round"></path><path d="M 704.000,316.000 C 693.065,329.479 700.635,324.554 697.000,333.000" stroke-width="2.453" stroke="black" fill="none" stroke-linecap="round"></path><path d="M 697.000,333.000 C 710.252,334.555 702.565,337.979 723.000,333.000" stroke-width="3.071" stroke="black" fill="none" stroke-linecap="round"></path><path d="M 723.000,333.000 C 730.514,330.540 730.752,332.055 738.000,328.000" stroke-width="3.070" stroke="black" fill="none" stroke-linecap="round"></path><path d="M 738.000,328.000 C 757.979,317.234 758.514,321.040 779.000,314.000" stroke-width="1.917" stroke="black" fill="none" stroke-linecap="round"></path><path d="M 779.000,314.000 C 797.688,314.010 796.979,311.234 816.000,316.000" stroke-width="2.377" stroke="black" fill="none" stroke-linecap="round"></path><path d="M 816.000,316.000 C 820.665,317.142 820.688,316.510 825.000,319.000" stroke-width="3.082" stroke="black" fill="none" stroke-linecap="round"></path><path d="M 825.000,319.000 C 829.566,319.832 827.665,320.142 830.000,322.000" stroke-width="3.744" stroke="black" fill="none" stroke-linecap="round"></path><path d="M 830.000,322.000 C 824.486,328.886 830.566,324.832 827.000,329.000" stroke-width="4.563" stroke="black" fill="none" stroke-linecap="round"></path><path d="M 827.000,329.000 C 839.451,325.745 835.486,329.386 852.000,323.000" stroke-width="4.852" stroke="black" fill="none" stroke-linecap="round"></path><path d="M 852.000,323.000 C 855.485,322.375 855.451,322.245 859.000,322.000" stroke-width="4.252" stroke="black" fill="none" stroke-linecap="round"></path><path d="M 859.000,322.000 C 958.400,305.204 958.485,311.375 1058.000,301.000" stroke-width="1.125" stroke="black" fill="none" stroke-linecap="round"></path><path d="M 1058.000,301.000 C 1112.471,305.456 1112.400,298.704 1167.000,309.000" stroke-width="1.125" stroke="black" fill="none" stroke-linecap="round"></path><path d="M 1167.000,309.000 C 1212.470,313.803 1212.471,311.956 1258.000,314.000" stroke-width="1.125" stroke="black" fill="none" stroke-linecap="round"></path><path d="M 1258.000,314.000 C 1328.017,312.302 1327.970,314.303 1398.000,310.000" stroke-width="1.125" stroke="black" fill="none" stroke-linecap="round"></path><path d="M 1398.000,310.000 C 1404.044,309.812 1404.017,309.802 1410.000,309.000" stroke-width="1.737" stroke="black" fill="none" stroke-linecap="round"></path><path d="M 1410.000,309.000 C 1417.666,305.541 1415.044,308.312 1420.000,307.000" stroke-width="2.720" stroke="black" fill="none" stroke-linecap="round"></path><path d="M 1420.000,307.000 C 1421.213,313.029 1421.666,308.041 1418.000,314.000" stroke-width="4.110" stroke="black" fill="none" stroke-linecap="round"></path><path d="M 1418.000,314.000 C 1397.600,319.809 1399.713,319.529 1377.000,320.000" stroke-width="2.865" stroke="black" fill="none" stroke-linecap="round"></path><path d="M 1377.000,320.000 C 1343.367,318.732 1343.600,320.309 1310.000,315.000" stroke-width="1.330" stroke="black" fill="none" stroke-linecap="round"></path><path d="M 1310.000,315.000 C 1267.492,309.053 1267.367,310.232 1225.000,303.000" stroke-width="1.125" stroke="black" fill="none" stroke-linecap="round"></path><path d="M 1225.000,303.000 C 1092.240,281.249 1091.992,284.053 959.000,265.000" stroke-width="1.125" stroke="black" fill="none" stroke-linecap="round"></path><path d="M 959.000,265.000 C 927.990,262.302 928.240,261.249 897.000,263.000" stroke-width="1.125" stroke="black" fill="none" stroke-linecap="round"></path><path d="M 897.000,263.000 C 816.573,262.224 816.990,264.802 737.000,270.000" stroke-width="1.125" stroke="black" fill="none" stroke-linecap="round"></path><path d="M 737.000,270.000 C 663.114,279.639 663.073,277.224 590.000,293.000" stroke-width="1.125" stroke="black" fill="none" stroke-linecap="round"></path><path d="M 590.000,293.000 C 565.056,299.736 564.614,297.639 540.000,306.000" stroke-width="1.237" stroke="black" fill="none" stroke-linecap="round"></path><path d="M 540.000,306.000 C 533.043,307.742 533.056,307.736 526.000,309.000" stroke-width="2.170" stroke="black" fill="none" stroke-linecap="round"></path><path d="M 526.000,309.000 C 519.011,310.695 519.043,310.242 512.000,311.000" stroke-width="2.731" stroke="black" fill="none" stroke-linecap="round"></path><path d="M 512.000,311.000 C 506.270,312.264 507.511,311.195 503.000,310.000" stroke-width="3.739" stroke="black" fill="none" stroke-linecap="round"></path></svg>