<svg xmlns="http://www.w3.org/2000/svg" xmlns:xlink="http://www.w3.org/1999/xlink" viewBox="0 0 1460 590" width="1460" height="590"><path d="M 950.000,300.000 C 965.470,295.882 965.500,296.000 981.000,292.000" stroke-width="4.752" stroke="black" fill="none" stroke-linecap="round"></path><path d="M 981.000,292.000 C 1005.062,282.855 1005.470,285.882 1030.000,280.000" stroke-width="1.724" stroke="black" fill="none" stroke-linecap="round"></path><path d="M 1030.000,280.000 C 1071.016,277.363 1070.562,275.355 1112.000,277.000" stroke-width="1.125" stroke="black" fill="none" stroke-linecap="round"></path><path d="M 1112.000,277.000 C 1127.523,277.737 1127.516,276.863 1143.000,279.000" stroke-width="1.609" stroke="black" fill="none" stroke-linecap="round"></path><path d="M 1143.000,279.000 C 1152.826,283.960 1152.023,279.737 1161.000,281.000" stroke-width="2.213" stroke="black" fill="none" stroke-linecap="round"></path><path d="M 1161.000,281.000 C 1179.685,266.313 1181.826,273.460 1201.000,258.000" stroke-width="3.554" stroke="black" fill="none" stroke-linecap="round"></path><path d="M 1201.000,258.000 C 1230.504,247.161 1229.685,246.813 1261.000,242.000" stroke-width="1.445" stroke="black" fill="none" stroke-linecap="round"></path><path d="M 1261.000,242.000 C 1295.983,236.254 1295.504,236.161 1331.000,236.000" stroke-width="1.182" stroke="black" fill="none" stroke-linecap="round"></path><path d="M 1331.000,236.000 C 1365.122,237.574 1364.983,235.754 1399.000,241.000" stroke-width="1.574" stroke="black" fill="none" stroke-linecap="round"></path><path d="M 1399.000,241.000 C 1409.504,242.981 1409.622,242.074 1420.000,245.000" stroke-width="2.077" stroke="black" fill="none" stroke-linecap="round"></path><path d="M 1420.000,245.000 C 1423.946,244.314 1422.504,245.481 1425.000,246.000" stroke-width="3.288" stroke="black" fill="none" stroke-linecap="round"></path><path d="M 1425.000,246.000 C 1426.792,250.242 1426.446,248.314 1425.000,253.000" stroke-width="4.498" stroke="black" fill="none" stroke-linecap="round"></path><path d="M 1425.000,253.000 C 1419.849,261.683 1420.292,260.242 1412.000,266.000" stroke-width="2.993" stroke="black" fill="none" stroke-linecap="round"></path><path d="M 1412.000,266.000 C 1398.922,272.379 1399.849,272.683 1385.000,275.000" stroke-width="2.242" stroke="black" fill="none" stroke-linecap="round"></path><path d="M 1385.000,275.000 C 1356.111,280.000 1356.422,280.379 1327.000,282.000" stroke-width="1.458" stroke="black" fill="none" stroke-linecap="round"></path><path d="M 1327.000,282.000 C 1290.469,282.342 1290.611,284.500 1254.000,284.000" stroke-width="1.125" stroke="black" fill="none" stroke-linecap="round"></path><path d="M 1254.000,284.000 C 1224.270,284.423 1224.469,285.342 1195.000,288.000" stroke-width="1.246" stroke="black" fill="none" stroke-linecap="round"></path><path d="M 1195.000,288.000 C 1179.065,290.140 1179.270,289.923 1164.000,295.000" stroke-width="1.744" stroke="black" fill="none" stroke-linecap="round"></path><path d="M 1164.000,295.000 C 1148.100,300.660 1148.065,300.140 1133.000,308.000" stroke-width="1.792" stroke="black" fill="none" stroke-linecap="round"></path><path d="M 1133.000,308.000 C 1112.753,319.624 1112.100,318.160 1092.000,330.000" stroke-width="2.140" stroke="black" fill="none" stroke-linecap="round"></path><path d="M 1092.000,330.000 C 1088.579,331.435 1088.753,331.624 1085.000,332.000" stroke-width="3.145" stroke="black" fill="none" stroke-linecap="round"></path><path d="M 1085.000,332.000 C 1079.008,333.000 1079.079,332.935 1073.000,333.000" stroke-width="3.190" stroke="black" fill="none" stroke-linecap="round"></path><path d="M 1073.000,333.000 C 1063.494,332.593 1063.508,333.000 1054.000,332.000" stroke-width="2.795" stroke="black" fill="none" stroke-linecap="round"></path><path d="M 1054.000,332.000 C 1047.484,330.667 1047.494,331.593 1041.000,331.000" stroke-width="3.559" stroke="black" fill="none" stroke-linecap="round"></path><path d="M 1041.000,331.000 C 1028.010,332.594 1027.984,331.667 1015.000,334.000" stroke-width="3.342" stroke="black" fill="none" stroke-linecap="round"></path><path d="M 1015.000,334.000 C 1009.512,334.770 1009.510,334.594 1004.000,335.000" stroke-width="3.332" stroke="black" fill="none" stroke-linecap="round"></path><path d="M 1004.000,335.000 C 997.490,335.250 997.512,335.270 991.000,335.000" stroke-width="3.169" stroke="black" fill="none" stroke-linecap="round"></path><path d="M 991.000,335.000 C 984.511,334.203 984.490,334.750 978.000,334.000" stroke-width="3.179" stroke="black" fill="none" stroke-linecap="round"></path><path d="M 978.000,334.000 C 968.487,333.694 968.511,333.703 959.000,334.000" stroke-width="2.728" stroke="black" fill="none" stroke-linecap="round"></path><path d="M 959.000,334.000 C 952.916,333.956 952.987,334.194 947.000,335.000" stroke-width="3.148" stroke="black" fill="none" stroke-linecap="round"></path><path d="M 947.000,335.000 C 936.117,338.888 935.916,336.956 925.000,340.000" stroke-width="3.252" stroke="black" fill="none" stroke-linecap="round"></path><path d="M 925.000,340.000 C 915.926,340.082 916.117,340.888 907.000,339.000" stroke-width="2.930" stroke="black" fill="none" stroke-linecap="round"></path><path d="M 907.000,339.000 C 899.239,338.413 899.426,338.082 892.000,336.000" stroke-width="2.892" stroke="black" fill="none" stroke-linecap="round"></path><path d="M 892.000,336.000 C 867.970,327.079 867.739,327.913 844.000,318.000" stroke-width="2.372" stroke="black" fill="none" stroke-linecap="round"></path><path d="M 844.000,318.000 C 835.190,313.914 834.970,314.579 826.000,311.000" stroke-width="2.549" stroke="black" fill="none" stroke-linecap="round"></path><path d="M 826.000,311.000 C 814.588,307.575 814.690,307.414 803.000,305.000" stroke-width="2.342" stroke="black" fill="none" stroke-linecap="round"></path><path d="M 803.000,305.000 C 796.554,303.401 796.588,303.575 790.000,303.000" stroke-width="2.867" stroke="black" fill="none" stroke-linecap="round"></path><path d="M 790.000,303.000 C 771.994,302.643 772.054,301.901 754.000,302.000" stroke-width="2.740" stroke="black" fill="none" stroke-linecap="round"></path><path d="M 754.000,302.000 C 743.843,302.514 743.994,301.643 734.000,301.000" stroke-width="2.686" stroke="black" fill="none" stroke-linecap="round"></path><path d="M 734.000,301.000 C 724.539,298.346 724.343,299.514 715.000,296.000" stroke-width="2.571" stroke="black" fill="none" stroke-linecap="round"></path><path d="M 715.000,296.000 C 692.126,293.225 694.039,290.846 673.000,286.000" stroke-width="1.733" stroke="black" fill="none" stroke-linecap="round"></path><path d="M 673.000,286.000 C 670.273,282.551 669.626,284.725 670.000,279.000" stroke-width="3.335" stroke="black" fill="none" stroke-linecap="round"></path><path d="M 670.000,279.000 C 670.737,275.897 669.773,276.051 672.000,273.000" stroke-width="3.836" stroke="black" fill="none" stroke-linecap="round"></path><path d="M 672.000,273.000 C 680.448,256.849 679.237,256.397 687.000,240.000" stroke-width="2.064" stroke="black" fill="none" stroke-linecap="round"></path><path d="M 687.000,240.000 C 690.030,229.509 690.948,229.849 693.000,219.000" stroke-width="2.327" stroke="black" fill="none" stroke-linecap="round"></path><path d="M 693.000,219.000 C 697.305,206.667 696.530,206.509 700.000,194.000" stroke-width="2.133" stroke="black" fill="none" stroke-linecap="round"></path><path d="M 700.000,194.000 C 702.434,183.036 702.305,183.167 703.000,172.000" stroke-width="2.284" stroke="black" fill="none" stroke-linecap="round"></path><path d="M 703.000,172.000 C 703.490,163.194 703.434,163.536 702.000,155.000" stroke-width="2.965" stroke="black" fill="none" stroke-linecap="round"></path><path d="M 702.000,155.000 C 701.299,151.660 701.490,152.194 699.000,150.000" stroke-width="3.760" stroke="black" fill="none" stroke-linecap="round"></path><path d="M 699.000,150.000 C 692.273,143.529 692.299,145.160 684.000,142.000" stroke-width="3.043" stroke="black" fill="none" stroke-linecap="round"></path><path d="M 684.000,142.000 C 645.571,135.328 646.273,135.029 607.000,133.000" stroke-width="1.906" stroke="black" fill="none" stroke-linecap="round"></path><path d="M 607.000,133.000 C 586.981,131.251 587.571,131.828 568.000,135.000" stroke-width="1.762" stroke="black" fill="none" stroke-linecap="round"></path><path d="M 568.000,135.000 C 546.394,140.843 546.481,139.251 526.000,149.000" stroke-width="1.616" stroke="black" fill="none" stroke-linecap="round"></path><path d="M 526.000,149.000 C 520.077,150.559 521.394,150.843 518.000,155.000" stroke-width="2.662" stroke="black" fill="none" stroke-linecap="round"></path><path d="M 518.000,155.000 C 501.154,182.958 505.577,181.559 497.000,211.000" stroke-width="2.096" stroke="black" fill="none" stroke-linecap="round"></path><path d="M 497.000,211.000 C 498.793,224.993 495.154,223.458 506.000,236.000" stroke-width="2.216" stroke="black" fill="none" stroke-linecap="round"></path><path d="M 506.000,236.000 C 527.042,267.509 526.293,266.993 552.000,295.000" stroke-width="1.785" stroke="black" fill="none" stroke-linecap="round"></path><path d="M 552.000,295.000 C 562.415,305.589 561.542,305.509 575.000,312.000" stroke-width="2.040" stroke="black" fill="none" stroke-linecap="round"></path><path d="M 575.000,312.000 C 589.484,320.988 588.915,319.089 605.000,322.000" stroke-width="1.988" stroke="black" fill="none" stroke-linecap="round"></path><path d="M 605.000,322.000 C 637.230,324.159 635.484,323.988 667.000,318.000" stroke-width="1.962" stroke="black" fill="none" stroke-linecap="round"></path><path d="M 667.000,318.000 C 680.704,312.541 680.730,315.159 692.000,304.000" stroke-width="2.053" stroke="black" fill="none" stroke-linecap="round"></path><path d="M 692.000,304.000 C 701.093,296.298 701.204,297.041 708.000,287.000" stroke-width="2.265" stroke="black" fill="none" stroke-linecap="round"></path><path d="M 708.000,287.000 C 713.644,278.292 714.093,278.798 718.000,269.000" stroke-width="2.398" stroke="black" fill="none" stroke-linecap="round"></path><path d="M 718.000,269.000 C 721.457,262.201 721.144,262.292 723.000,255.000" stroke-width="2.838" stroke="black" fill="none" stroke-linecap="round"></path><path d="M 723.000,255.000 C 724.495,247.930 724.457,248.201 724.000,241.000" stroke-width="2.947" stroke="black" fill="none" stroke-linecap="round"></path><path d="M 724.000,241.000 C 724.739,232.896 723.495,233.930 721.000,227.000" stroke-width="2.962" stroke="black" fill="none" stroke-linecap="round"></path><path d="M 721.000,227.000 C 712.074,209.644 711.739,212.396 698.000,200.000" stroke-width="2.782" stroke="black" fill="none" stroke-linecap="round"></path><path d="M 698.000,200.000 C 682.928,192.655 685.074,191.144 667.000,190.000" stroke-width="2.124" stroke="black" fill="none" stroke-linecap="round"></path><path d="M 667.000,190.000 C 646.270,185.973 646.928,186.655 626.000,188.000" stroke-width="1.766" stroke="black" fill="none" stroke-linecap="round"></path><path d="M 626.000,188.000 C 595.962,192.378 596.270,190.973 567.000,200.000" stroke-width="1.918" stroke="black" fill="none" stroke-linecap="round"></path><path d="M 567.000,200.000 C 557.424,202.432 557.962,202.378 550.000,208.000" stroke-width="2.390" stroke="black" fill="none" stroke-linecap="round"></path><path d="M 550.000,208.000 C 537.842,218.435 537.424,217.432 527.000,230.000" stroke-width="2.010" stroke="black" fill="none" stroke-linecap="round"></path><path d="M 527.000,230.000 C 522.222,234.379 522.842,234.435 520.000,240.000" stroke-width="2.754" stroke="black" fill="none" stroke-linecap="round"></path><path d="M 520.000,240.000 C 514.156,256.375 513.722,255.879 510.000,273.000" stroke-width="2.752" stroke="black" fill="none" stroke-linecap="round"></path><path d="M 510.000,273.000 C 509.366,276.578 509.156,276.375 510.000,280.000" stroke-width="3.512" stroke="black" fill="none" stroke-linecap="round"></path><path d="M 510.000,280.000 C 512.500,290.000 511.866,290.078 515.000,300.000" stroke-width="2.701" stroke="black" fill="none" stroke-linecap="round"></path><path d="M 515.000,300.000 C 513.497,306.653 516.000,304.000 517.000,308.000" stroke-width="3.419" stroke="black" fill="none" stroke-linecap="round"></path><path d="M 517.000,308.000 C 537.171,319.720 532.997,314.153 554.000,315.000" stroke-width="2.788" stroke="black" fill="none" stroke-linecap="round"></path><path d="M 554.000,315.000 C 577.255,300.921 578.171,308.220 599.000,285.000" stroke-width="1.650" stroke="black" fill="none" stroke-linecap="round"></path><path d="M 599.000,285.000 C 605.442,280.268 605.255,280.421 610.000,274.000" stroke-width="2.341" stroke="black" fill="none" stroke-linecap="round"></path><path d="M 610.000,274.000 C 627.416,253.169 625.442,252.768 639.000,230.000" stroke-width="1.509" stroke="black" fill="none" stroke-linecap="round"></path><path d="M 639.000,230.000 C 644.216,218.334 643.916,220.169 643.000,208.000" stroke-width="2.469" stroke="black" fill="none" stroke-linecap="round"></path><path d="M 643.000,208.000 C 640.755,199.837 642.216,201.334 635.000,196.000" stroke-width="2.845" stroke="black" fill="none" stroke-linecap="round"></path><path d="M 635.000,196.000 C 623.081,187.982 624.255,188.837 610.000,186.000" stroke-width="2.342" stroke="black" fill="none" stroke-linecap="round"></path><path d="M 610.000,186.000 C 589.150,183.066 590.081,182.982 569.000,186.000" stroke-width="1.750" stroke="black" fill="none" stroke-linecap="round"></path><path d="M 569.000,186.000 C 537.186,191.132 537.650,190.566 507.000,201.000" stroke-width="1.311" stroke="black" fill="none" stroke-linecap="round"></path><path d="M 507.000,201.000 C 486.193,210.957 485.186,208.132 465.000,220.000" stroke-width="1.405" stroke="black" fill="none" stroke-linecap="round"></path><path d="M 465.000,220.000 C 448.363,226.182 448.693,226.957 432.000,233.000" stroke-width="1.673" stroke="black" fill="none" stroke-linecap="round"></path><path d="M 432.000,233.000 C 424.007,235.796 424.363,236.182 417.000,240.000" stroke-width="2.353" stroke="black" fill="none" stroke-linecap="round"></path><path d="M 417.000,240.000 C 414.036,242.150 414.007,241.796 412.000,245.000" stroke-width="3.293" stroke="black" fill="none" stroke-linecap="round"></path><path d="M 412.000,245.000 C 408.488,249.238 409.036,249.150 407.000,254.000" stroke-width="3.383" stroke="black" fill="none" stroke-linecap="round"></path><path d="M 407.000,254.000 C 405.515,258.030 405.988,257.238 407.000,261.000" stroke-width="3.824" stroke="black" fill="none" stroke-linecap="round"></path><path d="M 407.000,261.000 C 411.617,266.407 410.015,267.030 416.000,272.000" stroke-width="3.258" stroke="black" fill="none" stroke-linecap="round"></path><path d="M 416.000,272.000 C 425.852,285.120 426.117,284.907 436.000,298.000" stroke-width="2.046" stroke="black" fill="none" stroke-linecap="round"></path><path d="M 436.000,298.000 C 438.750,301.750 438.852,301.620 442.000,305.000" stroke-width="2.954" stroke="black" fill="none" stroke-linecap="round"></path><path d="M 442.000,305.000 C 444.964,309.101 445.250,308.250 449.000,311.000" stroke-width="3.407" stroke="black" fill="none" stroke-linecap="round"></path><path d="M 449.000,311.000 C 454.786,314.945 453.464,313.101 459.000,313.000" stroke-width="3.427" stroke="black" fill="none" stroke-linecap="round"></path><path d="M 459.000,313.000 C 468.987,307.535 467.786,308.945 475.000,299.000" stroke-width="2.720" stroke="black" fill="none" stroke-linecap="round"></path><path d="M 475.000,299.000 C 481.993,283.723 484.487,285.535 490.000,269.000" stroke-width="2.082" stroke="black" fill="none" stroke-linecap="round"></path><path d="M 490.000,269.000 C 498.318,255.657 497.493,255.223 506.000,242.000" stroke-width="1.951" stroke="black" fill="none" stroke-linecap="round"></path><path d="M 506.000,242.000 C 509.545,237.618 507.318,239.657 508.000,237.000" stroke-width="3.356" stroke="black" fill="none" stroke-linecap="round"></path><path d="M 508.000,237.000 C 501.810,236.548 504.545,235.618 496.000,238.000" stroke-width="3.857" stroke="black" fill="none" stroke-linecap="round"></path><path d="M 496.000,238.000 C 482.107,242.865 481.810,241.548 468.000,247.000" stroke-width="2.395" stroke="black" fill="none" stroke-linecap="round"></path><path d="M 468.000,247.000 C 453.228,252.508 453.107,251.365 438.000,255.000" stroke-width="2.097" stroke="black" fill="none" stroke-linecap="round"></path><path d="M 438.000,255.000 C 425.493,255.354 425.728,257.008 413.000,256.000" stroke-width="2.219" stroke="black" fill="none" stroke-linecap="round"></path><path d="M 413.000,256.000 C 396.510,257.340 396.493,256.854 380.000,258.000" stroke-width="1.935" stroke="black" fill="none" stroke-linecap="round"></path><path d="M 380.000,258.000 C 371.496,258.202 371.510,258.340 363.000,258.000" stroke-width="2.476" stroke="black" fill="none" stroke-linecap="round"></path><path d="M 363.000,258.000 C 350.384,258.521 350.496,257.702 338.000,257.000" stroke-width="2.332" stroke="black" fill="none" stroke-linecap="round"></path><path d="M 338.000,257.000 C 321.800,254.823 321.884,255.021 306.000,251.000" stroke-width="1.975" stroke="black" fill="none" stroke-linecap="round"></path><path d="M 306.000,251.000 C 290.665,247.403 290.800,247.323 276.000,242.000" stroke-width="1.978" stroke="black" fill="none" stroke-linecap="round"></path><path d="M 276.000,242.000 C 262.850,235.036 262.165,236.903 249.000,230.000" stroke-width="1.977" stroke="black" fill="none" stroke-linecap="round"></path><path d="M 249.000,230.000 C 235.114,225.529 235.350,225.036 221.000,222.000" stroke-width="2.043" stroke="black" fill="none" stroke-linecap="round"></path><path d="M 221.000,222.000 C 210.988,220.056 211.114,219.529 201.000,218.000" stroke-width="2.326" stroke="black" fill="none" stroke-linecap="round"></path><path d="M 201.000,218.000 C 194.061,215.921 193.988,216.556 187.000,215.000" stroke-width="2.838" stroke="black" fill="none" stroke-linecap="round"></path><path d="M 187.000,215.000 C 182.480,215.280 182.561,214.421 178.000,215.000" stroke-width="3.332" stroke="black" fill="none" stroke-linecap="round"></path><path d="M 178.000,215.000 C 170.394,213.596 174.480,214.780 171.000,214.000" stroke-width="4.160" stroke="black" fill="none" stroke-linecap="round"></path><path d="M 171.000,214.000 C 175.877,216.180 171.894,214.596 181.000,217.000" stroke-width="4.750" stroke="black" fill="none" stroke-linecap="round"></path><path d="M 181.000,217.000 C 188.637,216.896 188.377,218.180 196.000,218.000" stroke-width="3.360" stroke="black" fill="none" stroke-linecap="round"></path></svg>