<svg xmlns="http://www.w3.org/2000/svg" xmlns:xlink="http://www.w3.org/1999/xlink" viewBox="0 0 1460 590" width="1460" height="590"><path d="M 418.000,350.000 C 410.154,345.201 410.000,345.500 402.000,341.000" stroke-width="5.126" stroke="black" fill="none" stroke-linecap="round"></path><path d="M 402.000,341.000 C 393.513,336.973 393.654,336.701 385.000,333.000" stroke-width="3.120" stroke="black" fill="none" stroke-linecap="round"></path><path d="M 385.000,333.000 C 378.400,330.200 378.513,329.973 372.000,327.000" stroke-width="3.012" stroke="black" fill="none" stroke-linecap="round"></path><path d="M 372.000,327.000 C 366.387,324.193 366.400,324.200 361.000,321.000" stroke-width="3.219" stroke="black" fill="none" stroke-linecap="round"></path><path d="M 361.000,321.000 C 353.115,315.795 352.887,316.193 345.000,311.000" stroke-width="3.463" stroke="black" fill="none" stroke-linecap="round"></path><path d="M 345.000,311.000 C 342.179,308.908 342.115,309.295 339.000,308.000" stroke-width="3.799" stroke="black" fill="none" stroke-linecap="round"></path><path d="M 339.000,308.000 C 331.546,308.092 335.179,306.908 331.000,307.000" stroke-width="4.277" stroke="black" fill="none" stroke-linecap="round"></path><path d="M 331.000,307.000 C 333.912,305.300 330.546,306.092 337.000,304.000" stroke-width="5.020" stroke="black" fill="none" stroke-linecap="round"></path><path d="M 337.000,304.000 C 343.397,301.201 343.412,301.300 350.000,299.000" stroke-width="3.494" stroke="black" fill="none" stroke-linecap="round"></path><path d="M 350.000,299.000 C 362.463,297.268 361.397,295.201 373.000,292.000" stroke-width="2.517" stroke="black" fill="none" stroke-linecap="round"></path><path d="M 373.000,292.000 C 379.580,286.592 380.463,288.268 386.000,281.000" stroke-width="2.659" stroke="black" fill="none" stroke-linecap="round"></path><path d="M 386.000,281.000 C 394.845,272.820 395.080,273.092 404.000,265.000" stroke-width="2.418" stroke="black" fill="none" stroke-linecap="round"></path><path d="M 404.000,265.000 C 419.514,253.037 418.845,252.320 434.000,240.000" stroke-width="2.175" stroke="black" fill="none" stroke-linecap="round"></path><path d="M 434.000,240.000 C 438.396,233.763 439.514,235.037 444.000,229.000" stroke-width="2.694" stroke="black" fill="none" stroke-linecap="round"></path><path d="M 444.000,229.000 C 448.954,225.921 448.396,225.263 454.000,223.000" stroke-width="3.063" stroke="black" fill="none" stroke-linecap="round"></path><path d="M 454.000,223.000 C 458.688,220.790 458.454,220.421 463.000,218.000" stroke-width="3.358" stroke="black" fill="none" stroke-linecap="round"></path><path d="M 463.000,218.000 C 467.144,215.176 467.188,215.290 471.000,212.000" stroke-width="3.485" stroke="black" fill="none" stroke-linecap="round"></path><path d="M 471.000,212.000 C 475.457,207.951 475.644,208.176 480.000,204.000" stroke-width="3.287" stroke="black" fill="none" stroke-linecap="round"></path><path d="M 480.000,204.000 C 489.356,194.709 486.957,197.951 494.000,192.000" stroke-width="3.452" stroke="black" fill="none" stroke-linecap="round"></path><path d="M 494.000,192.000 C 493.400,194.725 495.356,191.209 492.000,197.000" stroke-width="4.586" stroke="black" fill="none" stroke-linecap="round"></path><path d="M 492.000,197.000 C 488.456,200.656 489.400,201.225 486.000,205.000" stroke-width="3.736" stroke="black" fill="none" stroke-linecap="round"></path><path d="M 486.000,205.000 C 476.178,224.098 475.456,223.656 466.000,243.000" stroke-width="1.926" stroke="black" fill="none" stroke-linecap="round"></path><path d="M 466.000,243.000 C 462.164,250.097 462.178,250.098 458.000,257.000" stroke-width="2.511" stroke="black" fill="none" stroke-linecap="round"></path><path d="M 458.000,257.000 C 441.488,280.710 443.164,281.597 428.000,306.000" stroke-width="2.202" stroke="black" fill="none" stroke-linecap="round"></path><path d="M 428.000,306.000 C 420.649,327.430 417.488,325.710 410.000,347.000" stroke-width="1.699" stroke="black" fill="none" stroke-linecap="round"></path><path d="M 410.000,347.000 C 399.812,360.072 402.149,361.430 391.000,374.000" stroke-width="1.843" stroke="black" fill="none" stroke-linecap="round"></path><path d="M 391.000,374.000 C 385.142,385.081 384.312,384.572 379.000,396.000" stroke-width="2.074" stroke="black" fill="none" stroke-linecap="round"></path><path d="M 379.000,396.000 C 376.160,401.101 376.142,401.081 373.000,406.000" stroke-width="2.779" stroke="black" fill="none" stroke-linecap="round"></path><path d="M 373.000,406.000 C 366.878,417.220 366.160,416.601 359.000,427.000" stroke-width="2.397" stroke="black" fill="none" stroke-linecap="round"></path><path d="M 359.000,427.000 C 351.784,434.814 352.378,435.220 344.000,442.000" stroke-width="3.034" stroke="black" fill="none" stroke-linecap="round"></path><path d="M 344.000,442.000 C 338.846,447.014 338.784,446.814 333.000,451.000" stroke-width="3.055" stroke="black" fill="none" stroke-linecap="round"></path><path d="M 333.000,451.000 C 327.253,453.601 327.846,454.514 322.000,457.000" stroke-width="3.181" stroke="black" fill="none" stroke-linecap="round"></path><path d="M 322.000,457.000 C 310.651,465.233 310.253,464.601 299.000,473.000" stroke-width="3.082" stroke="black" fill="none" stroke-linecap="round"></path><path d="M 299.000,473.000 C 294.093,476.170 294.151,476.233 289.000,479.000" stroke-width="3.256" stroke="black" fill="none" stroke-linecap="round"></path><path d="M 289.000,479.000 C 285.276,481.849 285.093,481.170 281.000,483.000" stroke-width="3.495" stroke="black" fill="none" stroke-linecap="round"></path><path d="M 281.000,483.000 C 272.038,484.957 272.276,485.349 263.000,486.000" stroke-width="3.583" stroke="black" fill="none" stroke-linecap="round"></path><path d="M 263.000,486.000 C 257.833,487.889 259.038,486.457 255.000,486.000" stroke-width="4.226" stroke="black" fill="none" stroke-linecap="round"></path><path d="M 255.000,486.000 C 252.177,482.238 251.833,483.889 251.000,478.000" stroke-width="3.774" stroke="black" fill="none" stroke-linecap="round"></path><path d="M 251.000,478.000 C 249.532,472.919 249.677,473.238 250.000,468.000" stroke-width="3.603" stroke="black" fill="none" stroke-linecap="round"></path><path d="M 250.000,468.000 C 250.324,461.817 250.532,462.419 253.000,457.000" stroke-width="3.374" stroke="black" fill="none" stroke-linecap="round"></path><path d="M 253.000,457.000 C 256.500,453.500 255.324,452.817 260.000,450.000" stroke-width="3.444" stroke="black" fill="none" stroke-linecap="round"></path><path d="M 260.000,450.000 C 271.169,438.135 271.500,438.500 283.000,427.000" stroke-width="3.025" stroke="black" fill="none" stroke-linecap="round"></path><path d="M 283.000,427.000 C 288.080,421.870 288.169,422.135 294.000,418.000" stroke-width="3.052" stroke="black" fill="none" stroke-linecap="round"></path><path d="M 294.000,418.000 C 301.488,413.977 301.080,413.370 309.000,410.000" stroke-width="2.880" stroke="black" fill="none" stroke-linecap="round"></path><path d="M 309.000,410.000 C 319.114,405.924 318.488,404.977 328.000,400.000" stroke-width="2.592" stroke="black" fill="none" stroke-linecap="round"></path><path d="M 328.000,400.000 C 336.083,392.409 337.114,393.924 345.000,386.000" stroke-width="2.430" stroke="black" fill="none" stroke-linecap="round"></path><path d="M 345.000,386.000 C 352.347,381.222 352.083,380.909 360.000,377.000" stroke-width="2.605" stroke="black" fill="none" stroke-linecap="round"></path><path d="M 360.000,377.000 C 366.898,373.278 366.847,373.222 374.000,370.000" stroke-width="2.823" stroke="black" fill="none" stroke-linecap="round"></path><path d="M 374.000,370.000 C 380.078,367.675 379.898,367.278 386.000,365.000" stroke-width="3.069" stroke="black" fill="none" stroke-linecap="round"></path><path d="M 386.000,365.000 C 395.802,360.983 395.578,360.675 405.000,356.000" stroke-width="3.343" stroke="black" fill="none" stroke-linecap="round"></path><path d="M 405.000,356.000 C 407.440,353.920 407.802,354.483 410.000,352.000" stroke-width="3.788" stroke="black" fill="none" stroke-linecap="round"></path><path d="M 410.000,352.000 C 413.306,349.194 413.440,349.420 417.000,347.000" stroke-width="3.751" stroke="black" fill="none" stroke-linecap="round"></path><path d="M 417.000,347.000 C 430.562,341.346 429.306,339.694 442.000,333.000" stroke-width="3.166" stroke="black" fill="none" stroke-linecap="round"></path><path d="M 442.000,333.000 C 448.456,326.848 449.062,327.846 454.000,320.000" stroke-width="2.928" stroke="black" fill="none" stroke-linecap="round"></path><path d="M 454.000,320.000 C 456.772,316.138 456.956,316.348 459.000,312.000" stroke-width="3.379" stroke="black" fill="none" stroke-linecap="round"></path><path d="M 459.000,312.000 C 459.800,309.401 460.272,309.638 461.000,307.000" stroke-width="3.920" stroke="black" fill="none" stroke-linecap="round"></path><path d="M 461.000,307.000 C 465.236,301.691 462.300,304.401 464.000,302.000" stroke-width="4.498" stroke="black" fill="none" stroke-linecap="round"></path><path d="M 464.000,302.000 C 458.335,305.266 461.236,302.691 453.000,309.000" stroke-width="4.942" stroke="black" fill="none" stroke-linecap="round"></path><path d="M 453.000,309.000 C 448.423,312.406 448.335,312.266 444.000,316.000" stroke-width="3.652" stroke="black" fill="none" stroke-linecap="round"></path><path d="M 444.000,316.000 C 440.658,319.203 440.423,318.906 437.000,322.000" stroke-width="3.593" stroke="black" fill="none" stroke-linecap="round"></path><path d="M 437.000,322.000 C 431.250,324.750 432.158,325.703 427.000,329.000" stroke-width="3.364" stroke="black" fill="none" stroke-linecap="round"></path><path d="M 427.000,329.000 C 422.821,333.710 422.750,333.250 420.000,339.000" stroke-width="3.830" stroke="black" fill="none" stroke-linecap="round"></path><path d="M 420.000,339.000 C 419.000,341.500 418.821,341.210 419.000,344.000" stroke-width="4.125" stroke="black" fill="none" stroke-linecap="round"></path><path d="M 419.000,344.000 C 418.661,346.918 419.000,346.500 420.000,349.000" stroke-width="4.302" stroke="black" fill="none" stroke-linecap="round"></path><path d="M 420.000,349.000 C 423.320,354.490 423.161,353.918 428.000,358.000" stroke-width="3.474" stroke="black" fill="none" stroke-linecap="round"></path><path d="M 428.000,358.000 C 432.137,359.217 431.320,360.490 436.000,361.000" stroke-width="3.607" stroke="black" fill="none" stroke-linecap="round"></path><path d="M 436.000,361.000 C 438.277,364.000 438.637,362.217 441.000,364.000" stroke-width="3.995" stroke="black" fill="none" stroke-linecap="round"></path><path d="M 441.000,364.000 C 447.662,363.669 446.777,364.000 453.000,361.000" stroke-width="3.793" stroke="black" fill="none" stroke-linecap="round"></path><path d="M 453.000,361.000 C 456.000,358.000 456.662,359.169 459.000,355.000" stroke-width="3.764" stroke="black" fill="none" stroke-linecap="round"></path><path d="M 459.000,355.000 C 464.192,349.125 464.500,349.500 470.000,344.000" stroke-width="3.076" stroke="black" fill="none" stroke-linecap="round"></path><path d="M 470.000,344.000 C 472.959,341.935 472.692,341.625 476.000,340.000" stroke-width="3.679" stroke="black" fill="none" stroke-linecap="round"></path><path d="M 476.000,340.000 C 482.015,338.015 478.459,338.435 481.000,337.000" stroke-width="4.386" stroke="black" fill="none" stroke-linecap="round"></path><path d="M 481.000,337.000 C 475.467,334.322 479.015,335.015 470.000,334.000" stroke-width="4.884" stroke="black" fill="none" stroke-linecap="round"></path><path d="M 470.000,334.000 C 466.971,334.920 466.967,333.822 464.000,336.000" stroke-width="4.307" stroke="black" fill="none" stroke-linecap="round"></path><path d="M 464.000,336.000 C 461.028,336.341 461.471,336.920 459.000,338.000" stroke-width="4.282" stroke="black" fill="none" stroke-linecap="round"></path><path d="M 459.000,338.000 C 455.254,341.137 455.528,340.841 453.000,345.000" stroke-width="4.589" stroke="black" fill="none" stroke-linecap="round"></path><path d="M 453.000,345.000 C 450.675,348.344 451.754,347.137 452.000,350.000" stroke-width="4.770" stroke="black" fill="none" stroke-linecap="round"></path><path d="M 452.000,350.000 C 456.187,354.312 454.675,353.344 461.000,355.000" stroke-width="3.739" stroke="black" fill="none" stroke-linecap="round"></path><path d="M 461.000,355.000 C 467.456,355.218 466.687,355.812 473.000,353.000" stroke-width="3.463" stroke="black" fill="none" stroke-linecap="round"></path><path d="M 473.000,353.000 C 479.618,349.181 479.956,350.218 486.000,345.000" stroke-width="2.961" stroke="black" fill="none" stroke-linecap="round"></path><path d="M 486.000,345.000 C 493.852,339.272 494.118,339.681 502.000,334.000" stroke-width="2.718" stroke="black" fill="none" stroke-linecap="round"></path><path d="M 502.000,334.000 C 512.350,330.076 510.852,328.272 520.000,323.000" stroke-width="2.507" stroke="black" fill="none" stroke-linecap="round"></path><path d="M 520.000,323.000 C 529.649,308.447 532.350,311.576 542.000,297.000" stroke-width="2.027" stroke="black" fill="none" stroke-linecap="round"></path><path d="M 542.000,297.000 C 552.136,291.796 550.149,289.447 561.000,285.000" stroke-width="2.288" stroke="black" fill="none" stroke-linecap="round"></path><path d="M 561.000,285.000 C 566.500,279.500 567.136,280.296 572.000,274.000" stroke-width="2.656" stroke="black" fill="none" stroke-linecap="round"></path><path d="M 572.000,274.000 C 582.409,262.303 583.000,263.000 594.000,252.000" stroke-width="2.150" stroke="black" fill="none" stroke-linecap="round"></path><path d="M 594.000,252.000 C 601.984,248.016 600.409,246.303 608.000,242.000" stroke-width="2.611" stroke="black" fill="none" stroke-linecap="round"></path><path d="M 608.000,242.000 C 615.083,233.876 615.484,234.516 621.000,225.000" stroke-width="2.464" stroke="black" fill="none" stroke-linecap="round"></path><path d="M 621.000,225.000 C 624.076,218.213 625.083,218.876 628.000,212.000" stroke-width="2.823" stroke="black" fill="none" stroke-linecap="round"></path><path d="M 628.000,212.000 C 630.710,209.149 630.076,208.713 633.000,206.000" stroke-width="3.431" stroke="black" fill="none" stroke-linecap="round"></path><path d="M 633.000,206.000 C 637.036,201.621 634.710,203.649 636.000,201.000" stroke-width="3.928" stroke="black" fill="none" stroke-linecap="round"></path><path d="M 636.000,201.000 C 631.375,200.799 634.536,200.121 628.000,203.000" stroke-width="4.871" stroke="black" fill="none" stroke-linecap="round"></path><path d="M 628.000,203.000 C 620.306,209.287 619.875,208.299 613.000,216.000" stroke-width="3.018" stroke="black" fill="none" stroke-linecap="round"></path><path d="M 613.000,216.000 C 601.743,226.257 601.806,226.287 591.000,237.000" stroke-width="2.240" stroke="black" fill="none" stroke-linecap="round"></path><path d="M 591.000,237.000 C 587.741,240.299 587.743,240.257 585.000,244.000" stroke-width="3.069" stroke="black" fill="none" stroke-linecap="round"></path><path d="M 585.000,244.000 C 578.178,254.131 577.741,253.799 571.000,264.000" stroke-width="2.494" stroke="black" fill="none" stroke-linecap="round"></path><path d="M 571.000,264.000 C 566.090,270.571 566.178,270.631 561.000,277.000" stroke-width="2.686" stroke="black" fill="none" stroke-linecap="round"></path><path d="M 561.000,277.000 C 556.046,282.184 556.590,282.571 552.000,288.000" stroke-width="2.885" stroke="black" fill="none" stroke-linecap="round"></path><path d="M 552.000,288.000 C 548.098,293.804 548.046,293.684 545.000,300.000" stroke-width="3.029" stroke="black" fill="none" stroke-linecap="round"></path><path d="M 545.000,300.000 C 542.790,304.928 542.598,304.804 541.000,310.000" stroke-width="3.255" stroke="black" fill="none" stroke-linecap="round"></path><path d="M 541.000,310.000 C 540.275,313.600 539.790,313.428 539.000,317.000" stroke-width="3.818" stroke="black" fill="none" stroke-linecap="round"></path><path d="M 539.000,317.000 C 536.751,321.403 537.275,321.600 535.000,326.000" stroke-width="3.689" stroke="black" fill="none" stroke-linecap="round"></path><path d="M 535.000,326.000 C 533.000,332.000 532.751,331.903 531.000,338.000" stroke-width="3.288" stroke="black" fill="none" stroke-linecap="round"></path><path d="M 531.000,338.000 C 529.830,340.955 530.000,341.000 529.000,344.000" stroke-width="3.817" stroke="black" fill="none" stroke-linecap="round"></path><path d="M 529.000,344.000 C 526.485,349.138 528.330,346.455 528.000,349.000" stroke-width="4.499" stroke="black" fill="none" stroke-linecap="round"></path><path d="M 528.000,349.000 C 534.096,346.179 531.985,348.638 540.000,343.000" stroke-width="4.796" stroke="black" fill="none" stroke-linecap="round"></path><path d="M 540.000,343.000 C 546.855,338.716 547.096,339.179 554.000,335.000" stroke-width="3.201" stroke="black" fill="none" stroke-linecap="round"></path><path d="M 554.000,335.000 C 559.599,332.701 559.355,332.216 565.000,330.000" stroke-width="3.204" stroke="black" fill="none" stroke-linecap="round"></path><path d="M 565.000,330.000 C 573.500,325.500 573.599,325.701 582.000,321.000" stroke-width="2.786" stroke="black" fill="none" stroke-linecap="round"></path><path d="M 582.000,321.000 C 590.406,316.297 590.500,316.500 599.000,312.000" stroke-width="2.682" stroke="black" fill="none" stroke-linecap="round"></path><path d="M 599.000,312.000 C 603.178,308.521 601.406,310.797 604.000,310.000" stroke-width="3.594" stroke="black" fill="none" stroke-linecap="round"></path><path d="M 604.000,310.000 C 605.346,315.886 605.678,313.021 604.000,321.000" stroke-width="4.367" stroke="black" fill="none" stroke-linecap="round"></path><path d="M 604.000,321.000 C 601.735,325.170 602.846,325.386 599.000,329.000" stroke-width="3.814" stroke="black" fill="none" stroke-linecap="round"></path><path d="M 599.000,329.000 C 592.623,333.623 596.735,332.170 594.000,335.000" stroke-width="3.733" stroke="black" fill="none" stroke-linecap="round"></path><path d="M 594.000,335.000 C 600.181,336.613 596.123,337.123 606.000,336.000" stroke-width="4.237" stroke="black" fill="none" stroke-linecap="round"></path><path d="M 606.000,336.000 C 609.511,334.526 609.681,335.613 613.000,333.000" stroke-width="3.929" stroke="black" fill="none" stroke-linecap="round"></path><path d="M 613.000,333.000 C 617.374,330.633 617.511,331.026 622.000,329.000" stroke-width="3.665" stroke="black" fill="none" stroke-linecap="round"></path><path d="M 622.000,329.000 C 627.122,325.561 625.874,327.633 630.000,327.000" stroke-width="3.698" stroke="black" fill="none" stroke-linecap="round"></path><path d="M 630.000,327.000 C 631.737,331.153 633.122,328.561 634.000,335.000" stroke-width="4.794" stroke="black" fill="none" stroke-linecap="round"></path><path d="M 634.000,335.000 C 637.076,339.452 636.737,339.653 640.000,344.000" stroke-width="3.688" stroke="black" fill="none" stroke-linecap="round"></path><path d="M 640.000,344.000 C 641.063,346.869 641.576,346.452 643.000,349.000" stroke-width="4.025" stroke="black" fill="none" stroke-linecap="round"></path><path d="M 643.000,349.000 C 645.933,353.804 646.063,352.369 650.000,355.000" stroke-width="4.278" stroke="black" fill="none" stroke-linecap="round"></path><path d="M 650.000,355.000 C 655.358,355.547 654.433,356.304 660.000,354.000" stroke-width="4.878" stroke="black" fill="none" stroke-linecap="round"></path><path d="M 660.000,354.000 C 663.975,351.460 664.358,352.547 668.000,349.000" stroke-width="3.922" stroke="black" fill="none" stroke-linecap="round"></path><path d="M 668.000,349.000 C 673.292,346.400 672.975,345.960 678.000,343.000" stroke-width="3.429" stroke="black" fill="none" stroke-linecap="round"></path><path d="M 678.000,343.000 C 681.906,339.388 682.292,339.900 686.000,336.000" stroke-width="3.451" stroke="black" fill="none" stroke-linecap="round"></path><path d="M 686.000,336.000 C 696.029,326.836 696.406,327.388 707.000,319.000" stroke-width="2.444" stroke="black" fill="none" stroke-linecap="round"></path><path d="M 707.000,319.000 C 718.057,313.292 717.029,311.836 728.000,306.000" stroke-width="2.337" stroke="black" fill="none" stroke-linecap="round"></path><path d="M 728.000,306.000 C 748.089,291.160 748.057,291.292 767.000,275.000" stroke-width="1.997" stroke="black" fill="none" stroke-linecap="round"></path><path d="M 767.000,275.000 C 775.351,267.329 775.589,267.660 783.000,259.000" stroke-width="2.319" stroke="black" fill="none" stroke-linecap="round"></path><path d="M 783.000,259.000 C 799.614,244.033 797.851,242.829 812.000,226.000" stroke-width="1.679" stroke="black" fill="none" stroke-linecap="round"></path><path d="M 812.000,226.000 C 831.034,192.671 833.614,194.533 851.000,160.000" stroke-width="1.689" stroke="black" fill="none" stroke-linecap="round"></path><path d="M 851.000,160.000 C 853.500,157.000 853.034,156.671 856.000,154.000" stroke-width="2.808" stroke="black" fill="none" stroke-linecap="round"></path><path d="M 856.000,154.000 C 862.124,147.813 858.500,151.000 861.000,148.000" stroke-width="3.378" stroke="black" fill="none" stroke-linecap="round"></path><path d="M 861.000,148.000 C 854.352,150.300 859.124,148.313 850.000,155.000" stroke-width="4.403" stroke="black" fill="none" stroke-linecap="round"></path><path d="M 850.000,155.000 C 844.217,166.099 841.852,163.800 836.000,175.000" stroke-width="2.693" stroke="black" fill="none" stroke-linecap="round"></path><path d="M 836.000,175.000 C 825.107,184.629 826.217,185.599 814.000,194.000" stroke-width="2.229" stroke="black" fill="none" stroke-linecap="round"></path><path d="M 814.000,194.000 C 808.518,197.482 809.107,198.129 804.000,202.000" stroke-width="2.835" stroke="black" fill="none" stroke-linecap="round"></path><path d="M 804.000,202.000 C 791.661,215.655 791.018,214.982 779.000,229.000" stroke-width="2.710" stroke="black" fill="none" stroke-linecap="round"></path><path d="M 779.000,229.000 C 772.196,234.349 773.161,235.155 767.000,241.000" stroke-width="2.783" stroke="black" fill="none" stroke-linecap="round"></path><path d="M 767.000,241.000 C 761.353,251.729 759.696,250.349 754.000,261.000" stroke-width="2.394" stroke="black" fill="none" stroke-linecap="round"></path><path d="M 754.000,261.000 C 748.531,265.045 749.853,266.229 744.000,270.000" stroke-width="2.822" stroke="black" fill="none" stroke-linecap="round"></path><path d="M 744.000,270.000 C 732.761,282.809 732.531,282.545 722.000,296.000" stroke-width="2.784" stroke="black" fill="none" stroke-linecap="round"></path><path d="M 722.000,296.000 C 717.845,302.300 717.261,301.809 713.000,308.000" stroke-width="2.977" stroke="black" fill="none" stroke-linecap="round"></path><path d="M 713.000,308.000 C 709.261,312.308 709.345,312.300 705.000,316.000" stroke-width="3.193" stroke="black" fill="none" stroke-linecap="round"></path><path d="M 705.000,316.000 C 700.378,317.671 701.761,318.808 698.000,321.000" stroke-width="3.554" stroke="black" fill="none" stroke-linecap="round"></path><path d="M 698.000,321.000 C 695.814,325.389 695.378,324.671 695.000,330.000" stroke-width="4.541" stroke="black" fill="none" stroke-linecap="round"></path><path d="M 695.000,330.000 C 692.620,336.810 694.314,333.889 695.000,338.000" stroke-width="5.003" stroke="black" fill="none" stroke-linecap="round"></path><path d="M 695.000,338.000 C 701.586,338.565 698.620,339.810 707.000,336.000" stroke-width="4.806" stroke="black" fill="none" stroke-linecap="round"></path><path d="M 707.000,336.000 C 719.627,327.229 720.586,329.565 733.000,320.000" stroke-width="2.357" stroke="black" fill="none" stroke-linecap="round"></path><path d="M 733.000,320.000 C 738.362,317.410 738.127,317.229 744.000,316.000" stroke-width="2.964" stroke="black" fill="none" stroke-linecap="round"></path><path d="M 744.000,316.000 C 748.553,314.596 748.362,314.910 753.000,315.000" stroke-width="3.377" stroke="black" fill="none" stroke-linecap="round"></path><path d="M 753.000,315.000 C 760.920,314.613 759.553,315.596 766.000,318.000" stroke-width="3.216" stroke="black" fill="none" stroke-linecap="round"></path><path d="M 766.000,318.000 C 769.102,322.255 769.920,320.613 771.000,327.000" stroke-width="3.358" stroke="black" fill="none" stroke-linecap="round"></path><path d="M 771.000,327.000 C 775.122,332.711 773.102,332.255 774.000,338.000" stroke-width="3.306" stroke="black" fill="none" stroke-linecap="round"></path><path d="M 774.000,338.000 C 770.071,349.629 771.622,349.211 764.000,360.000" stroke-width="2.550" stroke="black" fill="none" stroke-linecap="round"></path><path d="M 764.000,360.000 C 758.889,371.505 758.071,370.129 750.000,379.000" stroke-width="2.411" stroke="black" fill="none" stroke-linecap="round"></path><path d="M 750.000,379.000 C 731.370,390.803 733.389,393.005 713.000,403.000" stroke-width="1.689" stroke="black" fill="none" stroke-linecap="round"></path><path d="M 713.000,403.000 C 673.439,437.689 670.370,431.303 628.000,460.000" stroke-width="1.125" stroke="black" fill="none" stroke-linecap="round"></path><path d="M 628.000,460.000 C 587.254,473.415 589.939,478.689 546.000,485.000" stroke-width="1.125" stroke="black" fill="none" stroke-linecap="round"></path><path d="M 546.000,485.000 C 514.507,495.897 514.254,493.915 482.000,501.000" stroke-width="1.125" stroke="black" fill="none" stroke-linecap="round"></path><path d="M 482.000,501.000 C 428.091,510.718 428.507,509.397 374.000,512.000" stroke-width="1.125" stroke="black" fill="none" stroke-linecap="round"></path><path d="M 374.000,512.000 C 321.715,513.883 322.591,513.218 271.000,506.000" stroke-width="1.125" stroke="black" fill="none" stroke-linecap="round"></path><path d="M 271.000,506.000 C 224.902,497.197 225.215,498.883 181.000,482.000" stroke-width="1.125" stroke="black" fill="none" stroke-linecap="round"></path><path d="M 181.000,482.000 C 132.055,467.482 133.902,465.697 89.000,443.000" stroke-width="1.125" stroke="black" fill="none" stroke-linecap="round"></path><path d="M 89.000,443.000 C 39.046,429.894 55.555,423.982 28.000,395.000" stroke-width="1.125" stroke="black" fill="none" stroke-linecap="round"></path><path d="M 28.000,395.000 C -14.743,272.311 -4.954,290.894 1.000,165.000" stroke-width="1.125" stroke="black" fill="none" stroke-linecap="round"></path><path d="M 1.000,165.000 C 32.364,105.636 9.757,105.311 77.000,61.000" stroke-width="1.125" stroke="black" fill="none" stroke-linecap="round"></path><path d="M 77.000,61.000 C 105.831,24.690 103.864,34.136 144.000,22.000" stroke-width="1.125" stroke="black" fill="none" stroke-linecap="round"></path><path d="M 144.000,22.000 C 451.643,14.466 446.331,0.690 758.000,13.000" stroke-width="1.125" stroke="black" fill="none" stroke-linecap="round"></path><path d="M 758.000,13.000 C 765.793,14.372 765.143,12.966 771.000,19.000" stroke-width="1.548" stroke="black" fill="none" stroke-linecap="round"></path><path d="M 771.000,19.000 C 781.338,26.625 779.293,26.372 785.000,37.000" stroke-width="2.018" stroke="black" fill="none" stroke-linecap="round"></path><path d="M 785.000,37.000 C 789.529,53.606 790.338,52.125 789.000,70.000" stroke-width="1.936" stroke="black" fill="none" stroke-linecap="round"></path><path d="M 789.000,70.000 C 787.933,85.186 788.529,84.606 783.000,99.000" stroke-width="2.015" stroke="black" fill="none" stroke-linecap="round"></path><path d="M 783.000,99.000 C 778.155,114.077 777.933,113.186 769.000,126.000" stroke-width="2.016" stroke="black" fill="none" stroke-linecap="round"></path><path d="M 769.000,126.000 C 756.659,143.322 756.655,142.077 740.000,155.000" stroke-width="1.744" stroke="black" fill="none" stroke-linecap="round"></path><path d="M 740.000,155.000 C 706.860,176.259 708.159,177.322 672.000,194.000" stroke-width="1.125" stroke="black" fill="none" stroke-linecap="round"></path><path d="M 672.000,194.000 C 651.088,209.599 650.860,204.759 628.000,212.000" stroke-width="1.379" stroke="black" fill="none" stroke-linecap="round"></path><path d="M 628.000,212.000 C 586.215,213.403 588.588,216.099 547.000,207.000" stroke-width="1.125" stroke="black" fill="none" stroke-linecap="round"></path><path d="M 547.000,207.000 C 538.423,201.616 537.215,205.403 530.000,196.000" stroke-width="1.771" stroke="black" fill="none" stroke-linecap="round"></path><path d="M 530.000,196.000 C 513.648,186.531 514.423,185.616 499.000,175.000" stroke-width="1.709" stroke="black" fill="none" stroke-linecap="round"></path><path d="M 499.000,175.000 C 491.000,167.000 490.148,168.031 483.000,159.000" stroke-width="2.101" stroke="black" fill="none" stroke-linecap="round"></path><path d="M 811.000,331.000 C 820.537,331.706 820.500,331.000 830.000,331.000" stroke-width="5.103" stroke="black" fill="none" stroke-linecap="round"></path><path d="M 830.000,331.000 C 854.075,329.094 854.037,329.206 878.000,326.000" stroke-width="1.790" stroke="black" fill="none" stroke-linecap="round"></path><path d="M 878.000,326.000 C 912.348,322.852 912.075,321.594 946.000,316.000" stroke-width="1.210" stroke="black" fill="none" stroke-linecap="round"></path><path d="M 946.000,316.000 C 1023.142,300.576 1022.848,300.352 1099.000,281.000" stroke-width="1.125" stroke="black" fill="none" stroke-linecap="round"></path><path d="M 1099.000,281.000 C 1115.578,274.690 1116.142,276.576 1132.000,268.000" stroke-width="1.180" stroke="black" fill="none" stroke-linecap="round"></path><path d="M 1132.000,268.000 C 1142.447,263.367 1142.578,263.690 1153.000,259.000" stroke-width="1.797" stroke="black" fill="none" stroke-linecap="round"></path><path d="M 1153.000,259.000 C 1158.815,254.544 1156.947,257.367 1161.000,256.000" stroke-width="3.090" stroke="black" fill="none" stroke-linecap="round"></path><path d="M 1161.000,256.000 C 1163.354,260.815 1163.315,257.544 1162.000,265.000" stroke-width="3.475" stroke="black" fill="none" stroke-linecap="round"></path><path d="M 1162.000,265.000 C 1157.344,278.350 1157.854,277.815 1150.000,290.000" stroke-width="2.417" stroke="black" fill="none" stroke-linecap="round"></path><path d="M 1150.000,290.000 C 1135.931,301.839 1142.844,301.350 1133.000,311.000" stroke-width="2.828" stroke="black" fill="none" stroke-linecap="round"></path><path d="M 1133.000,311.000 C 1137.640,316.453 1131.931,314.339 1142.000,315.000" stroke-width="3.766" stroke="black" fill="none" stroke-linecap="round"></path><path d="M 1142.000,315.000 C 1158.104,305.166 1158.640,309.453 1175.000,297.000" stroke-width="2.014" stroke="black" fill="none" stroke-linecap="round"></path><path d="M 1175.000,297.000 C 1188.443,291.352 1188.104,290.666 1202.000,286.000" stroke-width="1.999" stroke="black" fill="none" stroke-linecap="round"></path><path d="M 1202.000,286.000 C 1207.298,283.222 1207.443,283.852 1213.000,282.000" stroke-width="2.776" stroke="black" fill="none" stroke-linecap="round"></path><path d="M 1213.000,282.000 C 1228.671,277.786 1228.298,278.722 1244.000,277.000" stroke-width="2.878" stroke="black" fill="none" stroke-linecap="round"></path><path d="M 1244.000,277.000 C 1247.934,278.699 1248.171,276.786 1252.000,280.000" stroke-width="3.388" stroke="black" fill="none" stroke-linecap="round"></path><path d="M 1252.000,280.000 C 1260.505,282.483 1260.434,282.699 1269.000,285.000" stroke-width="2.851" stroke="black" fill="none" stroke-linecap="round"></path><path d="M 1269.000,285.000 C 1273.851,287.264 1274.005,286.483 1279.000,288.000" stroke-width="3.313" stroke="black" fill="none" stroke-linecap="round"></path><path d="M 1279.000,288.000 C 1295.006,290.220 1294.851,290.264 1311.000,291.000" stroke-width="2.941" stroke="black" fill="none" stroke-linecap="round"></path><path d="M 1311.000,291.000 C 1315.508,290.562 1315.506,291.220 1320.000,290.000" stroke-width="3.460" stroke="black" fill="none" stroke-linecap="round"></path><path d="M 1320.000,290.000 C 1323.474,289.207 1323.508,289.562 1327.000,289.000" stroke-width="3.803" stroke="black" fill="none" stroke-linecap="round"></path><path d="M 1327.000,289.000 C 1340.579,287.627 1340.474,288.207 1354.000,288.000" stroke-width="3.243" stroke="black" fill="none" stroke-linecap="round"></path><path d="M 1354.000,288.000 C 1358.748,288.346 1358.579,288.127 1363.000,290.000" stroke-width="3.606" stroke="black" fill="none" stroke-linecap="round"></path><path d="M 1363.000,290.000 C 1368.169,291.808 1367.748,291.846 1372.000,295.000" stroke-width="3.476" stroke="black" fill="none" stroke-linecap="round"></path><path d="M 1372.000,295.000 C 1376.363,298.334 1374.169,296.808 1375.000,300.000" stroke-width="4.433" stroke="black" fill="none" stroke-linecap="round"></path><path d="M 1375.000,300.000 C 1369.411,304.168 1371.863,303.834 1363.000,306.000" stroke-width="4.848" stroke="black" fill="none" stroke-linecap="round"></path><path d="M 1363.000,306.000 C 1344.590,310.459 1344.911,311.168 1326.000,314.000" stroke-width="2.158" stroke="black" fill="none" stroke-linecap="round"></path><path d="M 1326.000,314.000 C 1291.959,319.778 1292.090,320.459 1258.000,326.000" stroke-width="1.196" stroke="black" fill="none" stroke-linecap="round"></path><path d="M 1258.000,326.000 C 1226.683,333.141 1226.459,331.778 1195.000,338.000" stroke-width="1.184" stroke="black" fill="none" stroke-linecap="round"></path><path d="M 1195.000,338.000 C 1145.226,349.827 1145.183,345.641 1095.000,351.000" stroke-width="1.125" stroke="black" fill="none" stroke-linecap="round"></path><path d="M 1095.000,351.000 C 1016.158,350.782 1016.726,352.827 938.000,344.000" stroke-width="1.125" stroke="black" fill="none" stroke-linecap="round"></path><path d="M 938.000,344.000 C 895.408,337.503 895.158,340.282 853.000,330.000" stroke-width="1.125" stroke="black" fill="none" stroke-linecap="round"></path><path d="M 853.000,330.000 C 830.721,323.272 830.408,326.003 808.000,321.000" stroke-width="1.244" stroke="black" fill="none" stroke-linecap="round"></path><path d="M 808.000,321.000 C 785.396,320.155 785.721,318.772 763.000,321.000" stroke-width="1.886" stroke="black" fill="none" stroke-linecap="round"></path><path d="M 763.000,321.000 C 759.016,322.073 758.896,321.155 755.000,323.000" stroke-width="2.936" stroke="black" fill="none" stroke-linecap="round"></path></svg>