<svg xmlns="http://www.w3.org/2000/svg" xmlns:xlink="http://www.w3.org/1999/xlink" viewBox="0 0 1460 590" width="1460" height="590"><path d="M 511.000,296.000 C 515.624,292.420 516.000,293.500 521.000,291.000" stroke-width="4.572" stroke="black" fill="none" stroke-linecap="round"></path><path d="M 521.000,291.000 C 542.278,284.982 542.124,285.420 564.000,282.000" stroke-width="2.498" stroke="black" fill="none" stroke-linecap="round"></path><path d="M 564.000,282.000 C 593.500,279.496 593.278,277.982 623.000,277.000" stroke-width="1.726" stroke="black" fill="none" stroke-linecap="round"></path><path d="M 623.000,277.000 C 658.434,272.967 658.500,273.996 694.000,271.000" stroke-width="1.220" stroke="black" fill="none" stroke-linecap="round"></path><path d="M 694.000,271.000 C 775.990,266.389 775.934,266.467 858.000,264.000" stroke-width="1.125" stroke="black" fill="none" stroke-linecap="round"></path><path d="M 858.000,264.000 C 879.109,263.393 878.990,263.389 900.000,265.000" stroke-width="1.346" stroke="black" fill="none" stroke-linecap="round"></path><path d="M 900.000,265.000 C 911.914,265.649 911.609,265.893 923.000,269.000" stroke-width="1.966" stroke="black" fill="none" stroke-linecap="round"></path><path d="M 923.000,269.000 C 934.960,271.109 933.414,272.149 943.000,278.000" stroke-width="2.493" stroke="black" fill="none" stroke-linecap="round"></path><path d="M 943.000,278.000 C 951.051,288.190 952.460,286.109 958.000,299.000" stroke-width="2.679" stroke="black" fill="none" stroke-linecap="round"></path><path d="M 958.000,299.000 C 959.800,302.399 960.051,302.190 961.000,306.000" stroke-width="3.493" stroke="black" fill="none" stroke-linecap="round"></path><path d="M 961.000,306.000 C 962.752,309.907 962.300,309.899 963.000,314.000" stroke-width="3.891" stroke="black" fill="none" stroke-linecap="round"></path><path d="M 963.000,314.000 C 966.270,327.430 963.752,326.407 963.000,339.000" stroke-width="3.157" stroke="black" fill="none" stroke-linecap="round"></path><path d="M 963.000,339.000 C 957.487,350.244 959.770,350.430 950.000,360.000" stroke-width="2.563" stroke="black" fill="none" stroke-linecap="round"></path><path d="M 950.000,360.000 C 941.406,372.820 940.987,371.744 930.000,382.000" stroke-width="2.292" stroke="black" fill="none" stroke-linecap="round"></path><path d="M 930.000,382.000 C 912.675,393.306 920.906,389.320 909.000,393.000" stroke-width="2.878" stroke="black" fill="none" stroke-linecap="round"></path><path d="M 909.000,393.000 C 913.091,386.645 906.675,392.806 918.000,381.000" stroke-width="3.891" stroke="black" fill="none" stroke-linecap="round"></path></svg>