<svg xmlns="http://www.w3.org/2000/svg" xmlns:xlink="http://www.w3.org/1999/xlink" viewBox="0 0 453 236" width="453" height="236"><path d="M 130.500,38.000 C 124.654,37.360 125.000,38.500 119.500,39.000" stroke-width="4.336" stroke="black" fill="none" stroke-linecap="round"></path><path d="M 119.500,39.000 C 113.887,41.807 113.654,40.860 108.500,45.000" stroke-width="3.781" stroke="black" fill="none" stroke-linecap="round"></path><path d="M 108.500,45.000 C 100.170,49.521 100.387,49.807 92.500,55.000" stroke-width="2.925" stroke="black" fill="none" stroke-linecap="round"></path><path d="M 92.500,55.000 C 73.120,64.894 75.670,67.021 59.500,80.000" stroke-width="1.887" stroke="black" fill="none" stroke-linecap="round"></path><path d="M 59.500,80.000 C 43.850,96.461 45.620,95.394 37.500,116.000" stroke-width="2.284" stroke="black" fill="none" stroke-linecap="round"></path><path d="M 37.500,116.000 C 33.138,138.252 30.850,136.461 33.500,160.000" stroke-width="2.367" stroke="black" fill="none" stroke-linecap="round"></path><path d="M 33.500,160.000 C 33.951,169.429 33.638,168.252 38.500,176.000" stroke-width="2.770" stroke="black" fill="none" stroke-linecap="round"></path><path d="M 38.500,176.000 C 44.120,182.961 42.951,182.429 51.500,186.000" stroke-width="2.835" stroke="black" fill="none" stroke-linecap="round"></path><path d="M 51.500,186.000 C 61.904,189.014 61.120,189.961 72.500,190.000" stroke-width="2.645" stroke="black" fill="none" stroke-linecap="round"></path><path d="M 72.500,190.000 C 83.898,192.243 83.404,191.014 94.500,190.000" stroke-width="2.445" stroke="black" fill="none" stroke-linecap="round"></path><path d="M 94.500,190.000 C 110.122,185.811 109.898,186.743 124.500,179.000" stroke-width="2.079" stroke="black" fill="none" stroke-linecap="round"></path><path d="M 124.500,179.000 C 139.026,172.355 138.622,172.311 151.500,163.000" stroke-width="1.950" stroke="black" fill="none" stroke-linecap="round"></path><path d="M 151.500,163.000 C 163.748,154.293 163.026,154.355 172.500,143.000" stroke-width="1.985" stroke="black" fill="none" stroke-linecap="round"></path><path d="M 172.500,143.000 C 178.684,133.430 179.248,134.293 182.500,123.000" stroke-width="2.225" stroke="black" fill="none" stroke-linecap="round"></path><path d="M 182.500,123.000 C 186.170,112.637 186.184,112.930 187.500,102.000" stroke-width="2.341" stroke="black" fill="none" stroke-linecap="round"></path><path d="M 187.500,102.000 C 187.500,92.500 188.670,92.637 187.500,83.000" stroke-width="2.498" stroke="black" fill="none" stroke-linecap="round"></path><path d="M 187.500,83.000 C 188.941,75.627 187.500,76.000 187.500,69.000" stroke-width="2.829" stroke="black" fill="none" stroke-linecap="round"></path><path d="M 187.500,69.000 C 186.191,63.256 186.441,64.127 182.500,60.000" stroke-width="3.729" stroke="black" fill="none" stroke-linecap="round"></path><path d="M 182.500,60.000 C 176.891,53.278 177.691,55.756 170.500,54.000" stroke-width="3.299" stroke="black" fill="none" stroke-linecap="round"></path><path d="M 170.500,54.000 C 144.642,58.479 145.891,56.778 120.500,67.000" stroke-width="1.685" stroke="black" fill="none" stroke-linecap="round"></path><path d="M 120.500,67.000 C 111.076,71.913 110.642,70.479 102.500,78.000" stroke-width="2.230" stroke="black" fill="none" stroke-linecap="round"></path><path d="M 102.500,78.000 C 95.310,82.884 95.576,82.913 89.500,89.000" stroke-width="2.555" stroke="black" fill="none" stroke-linecap="round"></path><path d="M 89.500,89.000 C 84.987,93.042 85.810,92.884 83.500,98.000" stroke-width="3.068" stroke="black" fill="none" stroke-linecap="round"></path><path d="M 141.500,51.000 C 136.532,49.265 136.500,50.000 131.500,49.000" stroke-width="3.282" stroke="black" fill="none" stroke-linecap="round"></path><path d="M 131.500,49.000 C 126.546,48.296 127.032,48.765 122.500,50.000" stroke-width="3.591" stroke="black" fill="none" stroke-linecap="round"></path><path d="M 122.500,50.000 C 116.991,52.917 117.046,52.296 112.500,57.000" stroke-width="3.363" stroke="black" fill="none" stroke-linecap="round"></path><path d="M 112.500,57.000 C 106.360,63.376 105.991,62.917 100.500,70.000" stroke-width="2.847" stroke="black" fill="none" stroke-linecap="round"></path><path d="M 100.500,70.000 C 94.510,76.145 94.860,76.376 89.500,83.000" stroke-width="2.821" stroke="black" fill="none" stroke-linecap="round"></path><path d="M 89.500,83.000 C 85.597,89.562 85.010,89.145 81.500,96.000" stroke-width="3.023" stroke="black" fill="none" stroke-linecap="round"></path><path d="M 81.500,96.000 C 77.616,100.162 78.597,100.562 75.500,105.000" stroke-width="3.351" stroke="black" fill="none" stroke-linecap="round"></path><path d="M 75.500,105.000 C 74.751,108.482 74.116,108.162 74.500,112.000" stroke-width="3.718" stroke="black" fill="none" stroke-linecap="round"></path><path d="M 74.500,112.000 C 72.873,116.444 74.251,115.482 74.500,119.000" stroke-width="3.900" stroke="black" fill="none" stroke-linecap="round"></path><path d="M 74.500,119.000 C 77.621,122.425 76.373,121.944 81.500,123.000" stroke-width="3.890" stroke="black" fill="none" stroke-linecap="round"></path><path d="M 81.500,123.000 C 91.852,125.247 91.121,124.425 101.500,123.000" stroke-width="2.874" stroke="black" fill="none" stroke-linecap="round"></path><path d="M 101.500,123.000 C 128.922,116.551 128.352,116.747 154.500,106.000" stroke-width="1.511" stroke="black" fill="none" stroke-linecap="round"></path><path d="M 154.500,106.000 C 168.683,98.972 168.922,100.051 181.500,90.000" stroke-width="2.284" stroke="black" fill="none" stroke-linecap="round"></path><path d="M 181.500,90.000 C 193.344,80.888 193.683,81.472 204.500,71.000" stroke-width="2.109" stroke="black" fill="none" stroke-linecap="round"></path><path d="M 204.500,71.000 C 215.365,61.360 215.344,61.388 225.500,51.000" stroke-width="2.088" stroke="black" fill="none" stroke-linecap="round"></path><path d="M 225.500,51.000 C 237.415,37.918 237.865,38.360 249.500,25.000" stroke-width="1.840" stroke="black" fill="none" stroke-linecap="round"></path><path d="M 179.500,141.000 C 174.916,142.283 175.000,142.500 170.500,144.000" stroke-width="3.815" stroke="black" fill="none" stroke-linecap="round"></path><path d="M 170.500,144.000 C 165.404,145.211 165.916,145.783 161.500,148.000" stroke-width="3.576" stroke="black" fill="none" stroke-linecap="round"></path><path d="M 161.500,148.000 C 157.276,150.636 158.404,150.211 156.500,154.000" stroke-width="3.766" stroke="black" fill="none" stroke-linecap="round"></path><path d="M 156.500,154.000 C 155.723,159.856 155.776,157.136 158.500,161.000" stroke-width="4.319" stroke="black" fill="none" stroke-linecap="round"></path><path d="M 158.500,161.000 C 166.020,161.416 164.223,163.356 173.500,161.000" stroke-width="3.293" stroke="black" fill="none" stroke-linecap="round"></path><path d="M 173.500,161.000 C 184.307,161.265 184.020,160.416 194.500,159.000" stroke-width="2.634" stroke="black" fill="none" stroke-linecap="round"></path><path d="M 194.500,159.000 C 202.091,156.211 202.307,157.265 209.500,153.000" stroke-width="2.857" stroke="black" fill="none" stroke-linecap="round"></path><path d="M 209.500,153.000 C 217.175,149.822 217.091,149.711 224.500,146.000" stroke-width="2.852" stroke="black" fill="none" stroke-linecap="round"></path><path d="M 224.500,146.000 C 228.409,143.338 228.675,143.822 232.500,141.000" stroke-width="3.300" stroke="black" fill="none" stroke-linecap="round"></path><path d="M 232.500,141.000 C 239.163,136.410 235.409,139.338 238.500,138.000" stroke-width="3.738" stroke="black" fill="none" stroke-linecap="round"></path><path d="M 238.500,138.000 C 233.359,145.789 236.663,142.410 227.500,153.000" stroke-width="4.180" stroke="black" fill="none" stroke-linecap="round"></path><path d="M 227.500,153.000 C 211.429,166.786 220.359,161.789 212.500,170.000" stroke-width="3.550" stroke="black" fill="none" stroke-linecap="round"></path><path d="M 212.500,170.000 C 222.342,168.434 213.429,172.786 231.500,165.000" stroke-width="3.893" stroke="black" fill="none" stroke-linecap="round"></path><path d="M 231.500,165.000 C 241.867,159.698 242.342,160.934 252.500,155.000" stroke-width="2.690" stroke="black" fill="none" stroke-linecap="round"></path><path d="M 252.500,155.000 C 263.272,149.828 263.367,150.198 274.500,146.000" stroke-width="2.439" stroke="black" fill="none" stroke-linecap="round"></path><path d="M 274.500,146.000 C 285.415,142.639 285.272,142.328 296.500,140.000" stroke-width="2.413" stroke="black" fill="none" stroke-linecap="round"></path><path d="M 296.500,140.000 C 306.469,137.824 306.415,137.639 316.500,136.000" stroke-width="2.662" stroke="black" fill="none" stroke-linecap="round"></path><path d="M 316.500,136.000 C 322.976,134.687 322.969,134.824 329.500,134.000" stroke-width="2.946" stroke="black" fill="none" stroke-linecap="round"></path><path d="M 329.500,134.000 C 335.665,132.352 332.476,133.687 335.500,134.000" stroke-width="3.664" stroke="black" fill="none" stroke-linecap="round"></path><path d="M 335.500,134.000 C 332.658,139.611 335.165,137.352 328.500,144.000" stroke-width="4.004" stroke="black" fill="none" stroke-linecap="round"></path><path d="M 328.500,144.000 C 317.231,150.037 323.658,149.111 317.500,153.000" stroke-width="3.227" stroke="black" fill="none" stroke-linecap="round"></path><path d="M 317.500,153.000 C 323.697,156.261 317.731,155.537 329.500,155.000" stroke-width="4.027" stroke="black" fill="none" stroke-linecap="round"></path><path d="M 329.500,155.000 C 346.450,148.853 346.697,151.261 363.500,143.000" stroke-width="2.160" stroke="black" fill="none" stroke-linecap="round"></path><path d="M 363.500,143.000 C 379.762,136.635 379.950,137.353 396.500,132.000" stroke-width="1.873" stroke="black" fill="none" stroke-linecap="round"></path><path d="M 396.500,132.000 C 412.375,127.688 412.262,127.635 428.500,125.000" stroke-width="1.854" stroke="black" fill="none" stroke-linecap="round"></path><path d="M 428.500,125.000 C 439.482,123.612 439.375,123.188 450.500,123.000" stroke-width="2.183" stroke="black" fill="none" stroke-linecap="round"></path><path d="M 450.500,123.000 C 457.500,123.000 457.482,122.612 464.500,123.000" stroke-width="2.697" stroke="black" fill="none" stroke-linecap="round"></path><path d="M 464.500,123.000 C 468.615,122.402 468.500,123.000 472.500,123.000" stroke-width="3.399" stroke="black" fill="none" stroke-linecap="round"></path><path d="M 472.500,123.000 C 477.714,123.717 475.115,123.402 477.500,125.000" stroke-width="4.291" stroke="black" fill="none" stroke-linecap="round"></path><path d="M 477.500,125.000 C 474.857,128.013 477.214,126.717 471.500,129.000" stroke-width="4.514" stroke="black" fill="none" stroke-linecap="round"></path><path d="M 471.500,129.000 C 466.014,129.803 466.357,130.513 460.500,130.000" stroke-width="3.799" stroke="black" fill="none" stroke-linecap="round"></path><path d="M 460.500,130.000 C 451.996,129.793 452.014,130.303 443.500,130.000" stroke-width="3.050" stroke="black" fill="none" stroke-linecap="round"></path><path d="M 443.500,130.000 C 431.493,130.369 431.496,130.293 419.500,131.000" stroke-width="2.441" stroke="black" fill="none" stroke-linecap="round"></path><path d="M 419.500,131.000 C 402.989,131.839 402.993,131.869 386.500,133.000" stroke-width="2.044" stroke="black" fill="none" stroke-linecap="round"></path><path d="M 386.500,133.000 C 367.522,134.854 367.489,134.339 348.500,136.000" stroke-width="1.870" stroke="black" fill="none" stroke-linecap="round"></path><path d="M 348.500,136.000 C 326.001,137.032 326.022,137.354 303.500,138.000" stroke-width="1.627" stroke="black" fill="none" stroke-linecap="round"></path><path d="M 303.500,138.000 C 279.510,139.495 279.501,139.032 255.500,140.000" stroke-width="1.465" stroke="black" fill="none" stroke-linecap="round"></path><path d="M 255.500,140.000 C 231.997,140.264 232.010,140.495 208.500,140.000" stroke-width="1.570" stroke="black" fill="none" stroke-linecap="round"></path><path d="M 208.500,140.000 C 187.490,139.777 187.497,139.764 166.500,139.000" stroke-width="1.557" stroke="black" fill="none" stroke-linecap="round"></path><path d="M 166.500,139.000 C 147.011,137.566 146.990,138.277 127.500,137.000" stroke-width="1.611" stroke="black" fill="none" stroke-linecap="round"></path><path d="M 127.500,137.000 C 111.976,134.445 112.511,136.566 97.500,137.000" stroke-width="1.838" stroke="black" fill="none" stroke-linecap="round"></path></svg>