<svg xmlns="http://www.w3.org/2000/svg" xmlns:xlink="http://www.w3.org/1999/xlink" viewBox="0 0 1460 590" width="1460" height="590"><path d="M 310.000,160.000 C 308.907,168.100 308.500,168.000 307.000,176.000" stroke-width="4.353" stroke="black" fill="none" stroke-linecap="round"></path><path d="M 307.000,176.000 C 304.649,182.405 305.407,182.600 303.000,189.000" stroke-width="3.414" stroke="black" fill="none" stroke-linecap="round"></path><path d="M 303.000,189.000 C 296.851,216.595 296.149,216.405 290.000,244.000" stroke-width="1.534" stroke="black" fill="none" stroke-linecap="round"></path><path d="M 290.000,244.000 C 287.722,250.424 288.351,250.595 286.000,257.000" stroke-width="2.383" stroke="black" fill="none" stroke-linecap="round"></path><path d="M 286.000,257.000 C 283.090,271.684 282.222,271.424 279.000,286.000" stroke-width="2.009" stroke="black" fill="none" stroke-linecap="round"></path><path d="M 279.000,286.000 C 276.538,292.515 277.090,292.684 274.000,299.000" stroke-width="2.617" stroke="black" fill="none" stroke-linecap="round"></path><path d="M 274.000,299.000 C 271.409,303.835 272.038,304.015 270.000,309.000" stroke-width="3.145" stroke="black" fill="none" stroke-linecap="round"></path><path d="M 270.000,309.000 C 269.291,315.064 268.409,314.835 268.000,321.000" stroke-width="3.180" stroke="black" fill="none" stroke-linecap="round"></path><path d="M 268.000,321.000 C 265.983,326.431 266.791,326.564 265.000,332.000" stroke-width="3.360" stroke="black" fill="none" stroke-linecap="round"></path><path d="M 265.000,332.000 C 264.787,338.427 264.483,334.931 265.000,338.000" stroke-width="4.205" stroke="black" fill="none" stroke-linecap="round"></path><path d="M 314.000,165.000 C 315.399,167.397 315.000,167.500 316.000,170.000" stroke-width="4.936" stroke="black" fill="none" stroke-linecap="round"></path><path d="M 316.000,170.000 C 316.430,174.010 316.899,173.897 317.000,178.000" stroke-width="4.094" stroke="black" fill="none" stroke-linecap="round"></path><path d="M 317.000,178.000 C 318.274,184.466 317.930,184.510 319.000,191.000" stroke-width="3.333" stroke="black" fill="none" stroke-linecap="round"></path><path d="M 319.000,191.000 C 319.993,211.645 321.274,211.466 323.000,232.000" stroke-width="1.870" stroke="black" fill="none" stroke-linecap="round"></path><path d="M 323.000,232.000 C 327.238,255.556 326.493,255.645 332.000,279.000" stroke-width="1.574" stroke="black" fill="none" stroke-linecap="round"></path><path d="M 332.000,279.000 C 334.542,287.398 333.738,287.556 336.000,296.000" stroke-width="2.218" stroke="black" fill="none" stroke-linecap="round"></path><path d="M 336.000,296.000 C 338.132,317.170 339.542,316.898 342.000,338.000" stroke-width="1.754" stroke="black" fill="none" stroke-linecap="round"></path><path d="M 342.000,338.000 C 345.873,351.930 344.632,352.170 349.000,366.000" stroke-width="2.333" stroke="black" fill="none" stroke-linecap="round"></path><path d="M 349.000,366.000 C 349.713,369.987 349.873,369.930 350.000,374.000" stroke-width="3.167" stroke="black" fill="none" stroke-linecap="round"></path><path d="M 395.000,278.000 C 396.168,280.950 396.000,281.000 397.000,284.000" stroke-width="5.271" stroke="black" fill="none" stroke-linecap="round"></path><path d="M 397.000,284.000 C 401.206,297.380 400.668,297.450 404.000,311.000" stroke-width="2.594" stroke="black" fill="none" stroke-linecap="round"></path><path d="M 404.000,311.000 C 404.254,317.029 405.206,316.880 405.000,323.000" stroke-width="2.996" stroke="black" fill="none" stroke-linecap="round"></path><path d="M 405.000,323.000 C 406.776,332.966 406.254,333.029 408.000,343.000" stroke-width="2.619" stroke="black" fill="none" stroke-linecap="round"></path><path d="M 408.000,343.000 C 408.513,353.592 409.276,353.466 410.000,364.000" stroke-width="2.481" stroke="black" fill="none" stroke-linecap="round"></path><path d="M 410.000,364.000 C 411.452,367.437 410.513,367.592 412.000,371.000" stroke-width="3.348" stroke="black" fill="none" stroke-linecap="round"></path><path d="M 412.000,371.000 C 411.184,378.632 412.452,373.937 412.000,377.000" stroke-width="4.199" stroke="black" fill="none" stroke-linecap="round"></path><path d="M 412.000,377.000 C 416.000,366.000 415.184,370.632 420.000,355.000" stroke-width="3.935" stroke="black" fill="none" stroke-linecap="round"></path><path d="M 420.000,355.000 C 421.631,349.329 422.000,349.500 424.000,344.000" stroke-width="3.428" stroke="black" fill="none" stroke-linecap="round"></path><path d="M 424.000,344.000 C 426.070,340.539 425.631,340.329 428.000,337.000" stroke-width="3.690" stroke="black" fill="none" stroke-linecap="round"></path><path d="M 428.000,337.000 C 433.456,322.851 435.070,324.039 442.000,311.000" stroke-width="2.370" stroke="black" fill="none" stroke-linecap="round"></path><path d="M 442.000,311.000 C 450.014,301.863 448.956,301.351 459.000,294.000" stroke-width="2.927" stroke="black" fill="none" stroke-linecap="round"></path><path d="M 459.000,294.000 C 462.452,291.910 462.014,291.363 466.000,290.000" stroke-width="3.537" stroke="black" fill="none" stroke-linecap="round"></path><path d="M 466.000,290.000 C 469.186,286.744 468.952,288.410 472.000,287.000" stroke-width="4.264" stroke="black" fill="none" stroke-linecap="round"></path><path d="M 472.000,287.000 C 476.350,288.028 474.686,287.244 477.000,291.000" stroke-width="4.551" stroke="black" fill="none" stroke-linecap="round"></path><path d="M 477.000,291.000 C 478.589,305.028 479.850,304.028 479.000,319.000" stroke-width="2.526" stroke="black" fill="none" stroke-linecap="round"></path><path d="M 479.000,319.000 C 478.252,321.979 479.089,322.028 478.000,325.000" stroke-width="3.442" stroke="black" fill="none" stroke-linecap="round"></path><path d="M 478.000,325.000 C 476.649,329.108 477.752,327.979 478.000,331.000" stroke-width="4.420" stroke="black" fill="none" stroke-linecap="round"></path><path d="M 478.000,331.000 C 480.482,331.613 479.149,332.608 483.000,332.000" stroke-width="4.929" stroke="black" fill="none" stroke-linecap="round"></path><path d="M 483.000,332.000 C 486.984,332.764 486.982,332.613 491.000,333.000" stroke-width="4.093" stroke="black" fill="none" stroke-linecap="round"></path><path d="M 491.000,333.000 C 496.121,334.862 495.484,333.264 500.000,333.000" stroke-width="3.735" stroke="black" fill="none" stroke-linecap="round"></path><path d="M 500.000,333.000 C 509.564,328.389 508.621,328.862 516.000,321.000" stroke-width="2.848" stroke="black" fill="none" stroke-linecap="round"></path><path d="M 516.000,321.000 C 521.113,311.251 523.064,312.889 527.000,302.000" stroke-width="2.497" stroke="black" fill="none" stroke-linecap="round"></path><path d="M 527.000,302.000 C 532.000,295.000 531.613,294.751 537.000,288.000" stroke-width="2.643" stroke="black" fill="none" stroke-linecap="round"></path><path d="M 537.000,288.000 C 539.457,284.468 539.500,284.500 542.000,281.000" stroke-width="3.323" stroke="black" fill="none" stroke-linecap="round"></path><path d="M 542.000,281.000 C 544.026,273.883 544.957,276.968 548.000,273.000" stroke-width="4.080" stroke="black" fill="none" stroke-linecap="round"></path><path d="M 548.000,273.000 C 554.436,274.218 553.026,271.883 560.000,277.000" stroke-width="4.071" stroke="black" fill="none" stroke-linecap="round"></path><path d="M 560.000,277.000 C 563.464,279.074 563.436,278.718 566.000,282.000" stroke-width="3.917" stroke="black" fill="none" stroke-linecap="round"></path><path d="M 566.000,282.000 C 571.367,286.286 569.964,286.574 573.000,292.000" stroke-width="3.444" stroke="black" fill="none" stroke-linecap="round"></path><path d="M 573.000,292.000 C 576.000,304.581 576.367,303.786 576.000,317.000" stroke-width="2.455" stroke="black" fill="none" stroke-linecap="round"></path><path d="M 576.000,317.000 C 574.374,323.475 576.000,323.581 573.000,330.000" stroke-width="3.367" stroke="black" fill="none" stroke-linecap="round"></path><path d="M 573.000,330.000 C 572.252,332.979 572.374,332.975 572.000,336.000" stroke-width="3.912" stroke="black" fill="none" stroke-linecap="round"></path><path d="M 572.000,336.000 C 571.730,339.027 571.752,338.979 572.000,342.000" stroke-width="4.469" stroke="black" fill="none" stroke-linecap="round"></path><path d="M 572.000,342.000 C 571.421,347.000 572.230,344.527 573.000,347.000" stroke-width="5.026" stroke="black" fill="none" stroke-linecap="round"></path><path d="M 573.000,347.000 C 576.940,344.399 575.921,347.000 581.000,342.000" stroke-width="4.817" stroke="black" fill="none" stroke-linecap="round"></path><path d="M 581.000,342.000 C 587.801,337.600 587.940,337.899 595.000,334.000" stroke-width="3.281" stroke="black" fill="none" stroke-linecap="round"></path><path d="M 595.000,334.000 C 601.932,330.827 601.801,330.600 609.000,328.000" stroke-width="3.055" stroke="black" fill="none" stroke-linecap="round"></path><path d="M 609.000,328.000 C 614.652,326.353 614.432,325.827 620.000,324.000" stroke-width="3.243" stroke="black" fill="none" stroke-linecap="round"></path><path d="M 620.000,324.000 C 627.415,321.171 627.152,320.853 634.000,317.000" stroke-width="3.075" stroke="black" fill="none" stroke-linecap="round"></path><path d="M 634.000,317.000 C 642.243,311.280 642.415,311.671 650.000,305.000" stroke-width="3.183" stroke="black" fill="none" stroke-linecap="round"></path><path d="M 650.000,305.000 C 652.808,302.740 652.743,302.780 655.000,300.000" stroke-width="3.737" stroke="black" fill="none" stroke-linecap="round"></path><path d="M 655.000,300.000 C 659.353,296.353 656.808,297.740 658.000,295.000" stroke-width="4.424" stroke="black" fill="none" stroke-linecap="round"></path><path d="M 658.000,295.000 C 652.125,290.493 655.353,292.353 647.000,292.000" stroke-width="4.648" stroke="black" fill="none" stroke-linecap="round"></path><path d="M 647.000,292.000 C 634.781,297.513 635.125,295.493 624.000,305.000" stroke-width="2.615" stroke="black" fill="none" stroke-linecap="round"></path><path d="M 624.000,305.000 C 617.769,311.359 616.781,310.013 611.000,317.000" stroke-width="2.654" stroke="black" fill="none" stroke-linecap="round"></path><path d="M 611.000,317.000 C 605.122,318.771 608.769,318.859 606.000,320.000" stroke-width="3.569" stroke="black" fill="none" stroke-linecap="round"></path><path d="M 606.000,320.000 C 610.768,324.402 607.622,322.271 616.000,324.000" stroke-width="4.014" stroke="black" fill="none" stroke-linecap="round"></path><path d="M 616.000,324.000 C 637.172,320.703 636.768,322.402 658.000,316.000" stroke-width="1.953" stroke="black" fill="none" stroke-linecap="round"></path><path d="M 658.000,316.000 C 667.972,312.903 668.172,313.703 678.000,310.000" stroke-width="2.270" stroke="black" fill="none" stroke-linecap="round"></path><path d="M 678.000,310.000 C 686.896,307.048 686.972,307.403 696.000,305.000" stroke-width="2.488" stroke="black" fill="none" stroke-linecap="round"></path><path d="M 696.000,305.000 C 706.946,302.579 706.896,302.548 718.000,301.000" stroke-width="2.387" stroke="black" fill="none" stroke-linecap="round"></path><path d="M 718.000,301.000 C 724.492,300.296 724.446,300.079 731.000,300.000" stroke-width="2.845" stroke="black" fill="none" stroke-linecap="round"></path><path d="M 731.000,300.000 C 735.910,298.831 735.492,299.796 740.000,300.000" stroke-width="3.334" stroke="black" fill="none" stroke-linecap="round"></path><path d="M 740.000,300.000 C 741.892,304.290 742.910,300.831 745.000,304.000" stroke-width="4.192" stroke="black" fill="none" stroke-linecap="round"></path><path d="M 745.000,304.000 C 779.766,295.259 779.392,300.790 815.000,293.000" stroke-width="4.165" stroke="black" fill="none" stroke-linecap="round"></path><path d="M 815.000,293.000 C 858.454,288.790 857.766,290.259 901.000,294.000" stroke-width="1.211" stroke="black" fill="none" stroke-linecap="round"></path><path d="M 901.000,294.000 C 982.319,302.225 980.954,303.790 1060.000,323.000" stroke-width="1.125" stroke="black" fill="none" stroke-linecap="round"></path><path d="M 1060.000,323.000 C 1109.033,344.234 1111.319,336.725 1159.000,363.000" stroke-width="1.125" stroke="black" fill="none" stroke-linecap="round"></path><path d="M 1159.000,363.000 C 1219.948,384.650 1219.533,385.734 1281.000,406.000" stroke-width="1.125" stroke="black" fill="none" stroke-linecap="round"></path><path d="M 1281.000,406.000 C 1301.146,415.134 1301.448,413.150 1322.000,420.000" stroke-width="1.271" stroke="black" fill="none" stroke-linecap="round"></path><path d="M 1322.000,420.000 C 1331.720,421.071 1331.146,422.134 1341.000,420.000" stroke-width="1.967" stroke="black" fill="none" stroke-linecap="round"></path><path d="M 1341.000,420.000 C 1344.661,418.798 1344.720,419.571 1348.000,417.000" stroke-width="2.975" stroke="black" fill="none" stroke-linecap="round"></path><path d="M 1348.000,417.000 C 1354.419,415.095 1351.161,415.298 1354.000,413.000" stroke-width="3.634" stroke="black" fill="none" stroke-linecap="round"></path><path d="M 1354.000,413.000 C 1350.500,408.500 1353.419,410.095 1346.000,407.000" stroke-width="4.688" stroke="black" fill="none" stroke-linecap="round"></path><path d="M 1346.000,407.000 C 1341.000,407.000 1341.500,405.500 1336.000,407.000" stroke-width="3.822" stroke="black" fill="none" stroke-linecap="round"></path><path d="M 1336.000,407.000 C 1330.000,407.000 1330.000,407.000 1324.000,407.000" stroke-width="3.439" stroke="black" fill="none" stroke-linecap="round"></path><path d="M 1324.000,407.000 C 1315.976,407.456 1316.000,407.000 1308.000,407.000" stroke-width="2.975" stroke="black" fill="none" stroke-linecap="round"></path><path d="M 1308.000,407.000 C 1298.472,406.184 1298.476,406.456 1289.000,405.000" stroke-width="2.739" stroke="black" fill="none" stroke-linecap="round"></path><path d="M 1289.000,405.000 C 1286.527,404.326 1286.472,404.684 1284.000,404.000" stroke-width="3.619" stroke="black" fill="none" stroke-linecap="round"></path><path d="M 1284.000,404.000 C 1270.983,402.623 1271.027,402.326 1258.000,401.000" stroke-width="2.434" stroke="black" fill="none" stroke-linecap="round"></path><path d="M 1258.000,401.000 C 1255.017,400.377 1254.983,400.623 1252.000,400.000" stroke-width="3.390" stroke="black" fill="none" stroke-linecap="round"></path><path d="M 389.000,159.000 C 378.143,151.571 377.500,153.500 366.000,148.000" stroke-width="3.527" stroke="black" fill="none" stroke-linecap="round"></path><path d="M 366.000,148.000 C 343.699,141.993 344.143,141.571 321.000,139.000" stroke-width="1.765" stroke="black" fill="none" stroke-linecap="round"></path><path d="M 321.000,139.000 C 298.011,135.671 298.199,135.993 275.000,136.000" stroke-width="1.677" stroke="black" fill="none" stroke-linecap="round"></path><path d="M 275.000,136.000 C 227.581,135.398 228.011,136.671 181.000,141.000" stroke-width="1.125" stroke="black" fill="none" stroke-linecap="round"></path><path d="M 181.000,141.000 C 147.726,144.559 148.581,144.898 117.000,155.000" stroke-width="1.125" stroke="black" fill="none" stroke-linecap="round"></path><path d="M 117.000,155.000 C 96.580,164.147 96.226,162.059 78.000,176.000" stroke-width="1.366" stroke="black" fill="none" stroke-linecap="round"></path><path d="M 78.000,176.000 C 65.515,181.787 67.580,182.647 59.000,192.000" stroke-width="1.861" stroke="black" fill="none" stroke-linecap="round"></path><path d="M 59.000,192.000 C 42.420,212.087 47.015,210.787 41.000,234.000" stroke-width="1.613" stroke="black" fill="none" stroke-linecap="round"></path><path d="M 41.000,234.000 C 41.314,269.236 38.920,266.087 52.000,300.000" stroke-width="1.777" stroke="black" fill="none" stroke-linecap="round"></path><path d="M 52.000,300.000 C 60.938,316.692 57.814,316.736 74.000,329.000" stroke-width="1.787" stroke="black" fill="none" stroke-linecap="round"></path><path d="M 74.000,329.000 C 87.690,342.476 86.938,341.192 104.000,349.000" stroke-width="1.746" stroke="black" fill="none" stroke-linecap="round"></path><path d="M 104.000,349.000 C 119.016,353.576 117.690,354.476 134.000,353.000" stroke-width="1.931" stroke="black" fill="none" stroke-linecap="round"></path><path d="M 134.000,353.000 C 159.759,354.246 158.016,352.076 182.000,346.000" stroke-width="2.161" stroke="black" fill="none" stroke-linecap="round"></path><path d="M 182.000,346.000 C 203.103,333.827 204.259,337.746 223.000,320.000" stroke-width="1.670" stroke="black" fill="none" stroke-linecap="round"></path><path d="M 223.000,320.000 C 233.029,313.548 232.603,313.327 241.000,305.000" stroke-width="2.102" stroke="black" fill="none" stroke-linecap="round"></path><path d="M 241.000,305.000 C 268.606,276.963 267.529,276.548 292.000,246.000" stroke-width="1.193" stroke="black" fill="none" stroke-linecap="round"></path><path d="M 292.000,246.000 C 301.645,230.989 302.606,231.963 309.000,215.000" stroke-width="1.576" stroke="black" fill="none" stroke-linecap="round"></path><path d="M 309.000,215.000 C 313.012,205.719 313.145,205.989 315.000,196.000" stroke-width="2.171" stroke="black" fill="none" stroke-linecap="round"></path><path d="M 315.000,196.000 C 316.571,183.508 317.512,183.719 318.000,171.000" stroke-width="2.181" stroke="black" fill="none" stroke-linecap="round"></path><path d="M 318.000,171.000 C 318.687,166.009 318.571,166.008 319.000,161.000" stroke-width="2.980" stroke="black" fill="none" stroke-linecap="round"></path></svg>