<svg xmlns="http://www.w3.org/2000/svg" xmlns:xlink="http://www.w3.org/1999/xlink" viewBox="0 0 1460 590" width="1460" height="590"><path d="M 318.000,229.000 C 318.925,231.531 319.000,231.500 320.000,234.000" stroke-width="5.338" stroke="black" fill="none" stroke-linecap="round"></path><path d="M 320.000,234.000 C 331.810,262.839 332.425,262.531 345.000,291.000" stroke-width="2.408" stroke="black" fill="none" stroke-linecap="round"></path><path d="M 345.000,291.000 C 352.009,301.539 350.310,302.339 357.000,313.000" stroke-width="2.312" stroke="black" fill="none" stroke-linecap="round"></path><path d="M 357.000,313.000 C 364.181,333.128 365.509,332.539 372.000,353.000" stroke-width="1.764" stroke="black" fill="none" stroke-linecap="round"></path><path d="M 372.000,353.000 C 376.582,363.466 376.181,363.628 381.000,374.000" stroke-width="2.066" stroke="black" fill="none" stroke-linecap="round"></path><path d="M 381.000,374.000 C 383.210,378.928 383.082,378.966 385.000,384.000" stroke-width="2.829" stroke="black" fill="none" stroke-linecap="round"></path><path d="M 404.000,226.000 C 399.602,227.895 399.500,227.500 395.000,229.000" stroke-width="3.899" stroke="black" fill="none" stroke-linecap="round"></path><path d="M 395.000,229.000 C 387.043,230.781 387.102,230.895 379.000,232.000" stroke-width="3.185" stroke="black" fill="none" stroke-linecap="round"></path><path d="M 379.000,232.000 C 370.523,233.391 370.543,233.281 362.000,234.000" stroke-width="2.843" stroke="black" fill="none" stroke-linecap="round"></path><path d="M 362.000,234.000 C 356.497,233.847 356.523,234.391 351.000,234.000" stroke-width="3.221" stroke="black" fill="none" stroke-linecap="round"></path><path d="M 351.000,234.000 C 338.503,234.643 338.497,234.347 326.000,235.000" stroke-width="3.176" stroke="black" fill="none" stroke-linecap="round"></path><path d="M 326.000,235.000 C 321.000,235.000 321.003,235.143 316.000,235.000" stroke-width="3.472" stroke="black" fill="none" stroke-linecap="round"></path><path d="M 316.000,235.000 C 311.237,236.115 311.500,235.000 307.000,235.000" stroke-width="3.561" stroke="black" fill="none" stroke-linecap="round"></path><path d="M 384.000,407.000 C 381.603,409.141 381.500,409.000 379.000,411.000" stroke-width="4.673" stroke="black" fill="none" stroke-linecap="round"></path><path d="M 379.000,411.000 C 374.653,414.263 374.603,414.141 370.000,417.000" stroke-width="3.666" stroke="black" fill="none" stroke-linecap="round"></path><path d="M 370.000,417.000 C 366.051,419.110 366.153,419.263 362.000,421.000" stroke-width="3.625" stroke="black" fill="none" stroke-linecap="round"></path><path d="M 362.000,421.000 C 358.658,423.268 358.551,422.610 355.000,424.000" stroke-width="3.803" stroke="black" fill="none" stroke-linecap="round"></path><path d="M 355.000,424.000 C 351.000,424.000 351.158,424.768 347.000,424.000" stroke-width="3.766" stroke="black" fill="none" stroke-linecap="round"></path><path d="M 347.000,424.000 C 336.494,423.744 336.500,424.000 326.000,424.000" stroke-width="3.559" stroke="black" fill="none" stroke-linecap="round"></path><path d="M 326.000,424.000 C 316.005,424.714 315.994,424.244 306.000,425.000" stroke-width="2.744" stroke="black" fill="none" stroke-linecap="round"></path><path d="M 306.000,425.000 C 298.316,426.254 298.505,425.214 291.000,425.000" stroke-width="2.910" stroke="black" fill="none" stroke-linecap="round"></path><path d="M 291.000,425.000 C 279.434,424.622 280.816,423.254 271.000,419.000" stroke-width="2.565" stroke="black" fill="none" stroke-linecap="round"></path><path d="M 271.000,419.000 C 258.748,408.949 258.434,410.622 249.000,397.000" stroke-width="2.841" stroke="black" fill="none" stroke-linecap="round"></path><path d="M 249.000,397.000 C 244.911,388.717 243.248,389.949 240.000,381.000" stroke-width="2.682" stroke="black" fill="none" stroke-linecap="round"></path><path d="M 240.000,381.000 C 236.318,378.428 237.911,377.717 235.000,375.000" stroke-width="3.763" stroke="black" fill="none" stroke-linecap="round"></path><path d="M 235.000,375.000 C 235.000,371.500 233.818,371.928 235.000,368.000" stroke-width="3.915" stroke="black" fill="none" stroke-linecap="round"></path><path d="M 436.000,347.000 C 443.495,348.000 443.500,347.500 451.000,348.000" stroke-width="4.004" stroke="black" fill="none" stroke-linecap="round"></path><path d="M 451.000,348.000 C 462.033,347.914 461.995,348.000 473.000,347.000" stroke-width="2.698" stroke="black" fill="none" stroke-linecap="round"></path><path d="M 473.000,347.000 C 486.324,346.782 486.033,345.914 499.000,344.000" stroke-width="2.400" stroke="black" fill="none" stroke-linecap="round"></path><path d="M 499.000,344.000 C 508.013,343.052 506.824,342.282 514.000,338.000" stroke-width="2.666" stroke="black" fill="none" stroke-linecap="round"></path><path d="M 514.000,338.000 C 525.461,328.964 524.013,329.552 531.000,317.000" stroke-width="2.237" stroke="black" fill="none" stroke-linecap="round"></path><path d="M 531.000,317.000 C 536.574,300.635 537.961,301.964 539.000,284.000" stroke-width="2.612" stroke="black" fill="none" stroke-linecap="round"></path><path d="M 539.000,284.000 C 539.104,276.363 540.074,276.635 538.000,269.000" stroke-width="2.862" stroke="black" fill="none" stroke-linecap="round"></path><path d="M 538.000,269.000 C 538.296,264.998 537.604,266.363 536.000,264.000" stroke-width="3.651" stroke="black" fill="none" stroke-linecap="round"></path><path d="M 536.000,264.000 C 524.686,256.482 526.796,259.998 515.000,259.000" stroke-width="3.501" stroke="black" fill="none" stroke-linecap="round"></path><path d="M 515.000,259.000 C 499.447,266.620 499.686,262.982 486.000,277.000" stroke-width="2.174" stroke="black" fill="none" stroke-linecap="round"></path><path d="M 486.000,277.000 C 470.249,288.454 470.947,288.620 458.000,303.000" stroke-width="1.845" stroke="black" fill="none" stroke-linecap="round"></path><path d="M 458.000,303.000 C 438.992,327.512 438.249,326.454 422.000,353.000" stroke-width="1.899" stroke="black" fill="none" stroke-linecap="round"></path><path d="M 422.000,353.000 C 419.754,356.439 419.992,356.012 420.000,360.000" stroke-width="3.005" stroke="black" fill="none" stroke-linecap="round"></path><path d="M 420.000,360.000 C 420.026,371.912 420.754,370.939 424.000,382.000" stroke-width="2.511" stroke="black" fill="none" stroke-linecap="round"></path><path d="M 424.000,382.000 C 426.783,390.011 426.526,388.412 433.000,393.000" stroke-width="2.874" stroke="black" fill="none" stroke-linecap="round"></path><path d="M 433.000,393.000 C 454.309,400.803 452.783,402.511 476.000,407.000" stroke-width="2.504" stroke="black" fill="none" stroke-linecap="round"></path><path d="M 476.000,407.000 C 482.467,408.432 482.309,408.803 489.000,409.000" stroke-width="2.983" stroke="black" fill="none" stroke-linecap="round"></path><path d="M 489.000,409.000 C 494.083,409.671 493.967,409.432 499.000,409.000" stroke-width="3.303" stroke="black" fill="none" stroke-linecap="round"></path><path d="M 499.000,409.000 C 505.464,408.517 505.083,408.171 511.000,406.000" stroke-width="3.210" stroke="black" fill="none" stroke-linecap="round"></path><path d="M 511.000,406.000 C 517.126,403.428 516.464,403.517 521.000,399.000" stroke-width="3.827" stroke="black" fill="none" stroke-linecap="round"></path><path d="M 521.000,399.000 C 523.275,394.600 524.126,395.428 525.000,390.000" stroke-width="3.579" stroke="black" fill="none" stroke-linecap="round"></path><path d="M 587.000,286.000 C 589.178,292.423 588.500,292.500 590.000,299.000" stroke-width="4.255" stroke="black" fill="none" stroke-linecap="round"></path><path d="M 590.000,299.000 C 590.754,304.575 590.678,304.423 590.000,310.000" stroke-width="3.630" stroke="black" fill="none" stroke-linecap="round"></path><path d="M 590.000,310.000 C 586.829,322.397 588.254,322.575 585.000,335.000" stroke-width="2.467" stroke="black" fill="none" stroke-linecap="round"></path><path d="M 585.000,335.000 C 581.905,353.441 582.329,353.397 581.000,372.000" stroke-width="1.867" stroke="black" fill="none" stroke-linecap="round"></path><path d="M 581.000,372.000 C 581.000,394.500 579.905,394.441 581.000,417.000" stroke-width="1.627" stroke="black" fill="none" stroke-linecap="round"></path><path d="M 581.000,417.000 C 581.000,421.000 581.000,421.000 581.000,425.000" stroke-width="2.665" stroke="black" fill="none" stroke-linecap="round"></path><path d="M 581.000,425.000 C 580.160,435.206 581.000,429.000 581.000,433.000" stroke-width="3.818" stroke="black" fill="none" stroke-linecap="round"></path><path d="M 581.000,433.000 C 586.444,418.796 584.160,424.706 589.000,404.000" stroke-width="2.288" stroke="black" fill="none" stroke-linecap="round"></path><path d="M 589.000,404.000 C 594.159,363.439 595.944,363.796 600.000,323.000" stroke-width="1.125" stroke="black" fill="none" stroke-linecap="round"></path><path d="M 600.000,323.000 C 599.683,317.938 600.659,318.439 602.000,314.000" stroke-width="2.177" stroke="black" fill="none" stroke-linecap="round"></path><path d="M 602.000,314.000 C 613.094,289.582 614.683,292.438 630.000,272.000" stroke-width="2.209" stroke="black" fill="none" stroke-linecap="round"></path><path d="M 630.000,272.000 C 640.857,266.611 638.094,263.582 652.000,262.000" stroke-width="2.288" stroke="black" fill="none" stroke-linecap="round"></path><path d="M 652.000,262.000 C 655.432,260.680 655.357,260.611 659.000,260.000" stroke-width="3.238" stroke="black" fill="none" stroke-linecap="round"></path><path d="M 659.000,260.000 C 668.235,254.625 665.932,258.680 673.000,258.000" stroke-width="3.698" stroke="black" fill="none" stroke-linecap="round"></path><path d="M 673.000,258.000 C 681.048,266.804 680.235,263.125 683.000,277.000" stroke-width="3.490" stroke="black" fill="none" stroke-linecap="round"></path><path d="M 683.000,277.000 C 683.503,291.094 685.548,290.304 682.000,305.000" stroke-width="2.539" stroke="black" fill="none" stroke-linecap="round"></path><path d="M 682.000,305.000 C 677.342,327.912 679.503,328.094 675.000,351.000" stroke-width="1.591" stroke="black" fill="none" stroke-linecap="round"></path><path d="M 675.000,351.000 C 675.295,362.509 673.842,362.412 675.000,374.000" stroke-width="2.033" stroke="black" fill="none" stroke-linecap="round"></path><path d="M 745.000,272.000 C 745.373,279.537 745.000,279.500 745.000,287.000" stroke-width="5.054" stroke="black" fill="none" stroke-linecap="round"></path><path d="M 745.000,287.000 C 744.433,289.488 744.873,289.537 744.000,292.000" stroke-width="4.475" stroke="black" fill="none" stroke-linecap="round"></path><path d="M 744.000,292.000 C 739.159,318.448 739.433,318.488 735.000,345.000" stroke-width="1.709" stroke="black" fill="none" stroke-linecap="round"></path><path d="M 735.000,345.000 C 733.276,360.044 732.659,359.948 731.000,375.000" stroke-width="1.868" stroke="black" fill="none" stroke-linecap="round"></path><path d="M 731.000,375.000 C 729.049,382.958 729.776,383.044 728.000,391.000" stroke-width="2.474" stroke="black" fill="none" stroke-linecap="round"></path><path d="M 728.000,391.000 C 728.268,394.522 727.549,394.458 728.000,398.000" stroke-width="3.332" stroke="black" fill="none" stroke-linecap="round"></path><path d="M 728.000,398.000 C 726.578,405.267 727.768,401.022 727.000,404.000" stroke-width="4.212" stroke="black" fill="none" stroke-linecap="round"></path><path d="M 727.000,404.000 C 729.060,396.516 728.078,400.767 731.000,389.000" stroke-width="3.934" stroke="black" fill="none" stroke-linecap="round"></path><path d="M 731.000,389.000 C 732.606,380.867 733.060,381.016 735.000,373.000" stroke-width="3.040" stroke="black" fill="none" stroke-linecap="round"></path><path d="M 735.000,373.000 C 736.527,369.512 736.106,369.367 738.000,366.000" stroke-width="3.541" stroke="black" fill="none" stroke-linecap="round"></path><path d="M 738.000,366.000 C 743.173,354.067 743.027,354.012 748.000,342.000" stroke-width="2.503" stroke="black" fill="none" stroke-linecap="round"></path><path d="M 748.000,342.000 C 748.957,335.959 750.173,336.567 752.000,331.000" stroke-width="2.982" stroke="black" fill="none" stroke-linecap="round"></path><path d="M 752.000,331.000 C 763.646,314.594 762.457,313.959 775.000,298.000" stroke-width="2.476" stroke="black" fill="none" stroke-linecap="round"></path><path d="M 775.000,298.000 C 776.094,295.145 776.646,295.594 778.000,293.000" stroke-width="3.498" stroke="black" fill="none" stroke-linecap="round"></path><path d="M 778.000,293.000 C 780.161,290.033 780.094,290.645 783.000,289.000" stroke-width="4.253" stroke="black" fill="none" stroke-linecap="round"></path><path d="M 783.000,289.000 C 786.533,287.612 785.661,288.033 789.000,289.000" stroke-width="4.229" stroke="black" fill="none" stroke-linecap="round"></path><path d="M 789.000,289.000 C 796.272,292.181 794.533,292.112 799.000,298.000" stroke-width="3.333" stroke="black" fill="none" stroke-linecap="round"></path><path d="M 799.000,298.000 C 804.572,309.408 803.772,308.181 804.000,321.000" stroke-width="2.516" stroke="black" fill="none" stroke-linecap="round"></path><path d="M 804.000,321.000 C 799.493,349.999 802.572,349.908 795.000,379.000" stroke-width="2.181" stroke="black" fill="none" stroke-linecap="round"></path><path d="M 795.000,379.000 C 793.568,385.467 793.993,385.499 793.000,392.000" stroke-width="2.745" stroke="black" fill="none" stroke-linecap="round"></path><path d="M 793.000,392.000 C 792.350,397.125 792.568,396.967 793.000,402.000" stroke-width="3.699" stroke="black" fill="none" stroke-linecap="round"></path><path d="M 793.000,402.000 C 794.000,404.500 793.350,404.625 795.000,407.000" stroke-width="4.451" stroke="black" fill="none" stroke-linecap="round"></path><path d="M 862.000,314.000 C 865.975,316.540 866.000,316.500 870.000,319.000" stroke-width="5.152" stroke="black" fill="none" stroke-linecap="round"></path><path d="M 870.000,319.000 C 875.374,321.484 874.975,322.040 880.000,325.000" stroke-width="3.658" stroke="black" fill="none" stroke-linecap="round"></path><path d="M 880.000,325.000 C 887.749,331.232 887.874,330.984 895.000,338.000" stroke-width="2.771" stroke="black" fill="none" stroke-linecap="round"></path><path d="M 895.000,338.000 C 902.022,346.051 902.749,345.232 910.000,353.000" stroke-width="2.577" stroke="black" fill="none" stroke-linecap="round"></path><path d="M 910.000,353.000 C 918.676,358.312 917.522,359.551 926.000,365.000" stroke-width="2.523" stroke="black" fill="none" stroke-linecap="round"></path><path d="M 926.000,365.000 C 930.002,369.204 930.176,368.812 933.000,374.000" stroke-width="3.012" stroke="black" fill="none" stroke-linecap="round"></path><path d="M 1017.000,288.000 C 1014.000,291.000 1014.000,291.000 1011.000,294.000" stroke-width="4.337" stroke="black" fill="none" stroke-linecap="round"></path><path d="M 1011.000,294.000 C 1002.751,300.859 1003.500,301.500 996.000,309.000" stroke-width="2.866" stroke="black" fill="none" stroke-linecap="round"></path><path d="M 996.000,309.000 C 987.194,322.569 985.751,321.359 977.000,335.000" stroke-width="2.085" stroke="black" fill="none" stroke-linecap="round"></path><path d="M 977.000,335.000 C 965.386,346.476 966.694,347.569 955.000,359.000" stroke-width="1.974" stroke="black" fill="none" stroke-linecap="round"></path><path d="M 955.000,359.000 C 933.093,388.925 931.386,387.476 909.000,417.000" stroke-width="1.173" stroke="black" fill="none" stroke-linecap="round"></path><path d="M 909.000,417.000 C 869.692,457.043 872.593,459.425 834.000,500.000" stroke-width="1.247" stroke="black" fill="none" stroke-linecap="round"></path><path d="M 834.000,500.000 C 814.953,526.466 813.192,525.043 796.000,553.000" stroke-width="1.226" stroke="black" fill="none" stroke-linecap="round"></path><path d="M 796.000,553.000 C 793.009,558.457 792.453,557.966 789.000,563.000" stroke-width="2.154" stroke="black" fill="none" stroke-linecap="round"></path><path d="M 789.000,563.000 C 785.035,566.541 785.509,566.957 781.000,570.000" stroke-width="2.887" stroke="black" fill="none" stroke-linecap="round"></path></svg>