<svg xmlns="http://www.w3.org/2000/svg" xmlns:xlink="http://www.w3.org/1999/xlink" viewBox="0 0 1460 590" width="1460" height="590"><path d="M 715.000,324.000 C 706.629,326.767 706.500,326.000 698.000,328.000" stroke-width="4.587" stroke="black" fill="none" stroke-linecap="round"></path><path d="M 698.000,328.000 C 678.501,330.010 678.629,330.767 659.000,332.000" stroke-width="2.021" stroke="black" fill="none" stroke-linecap="round"></path><path d="M 659.000,332.000 C 654.012,332.749 654.001,332.510 649.000,333.000" stroke-width="2.849" stroke="black" fill="none" stroke-linecap="round"></path><path d="M 649.000,333.000 C 643.997,332.865 644.012,333.249 639.000,333.000" stroke-width="3.346" stroke="black" fill="none" stroke-linecap="round"></path><path d="M 639.000,333.000 C 625.406,332.632 625.497,333.365 612.000,334.000" stroke-width="3.165" stroke="black" fill="none" stroke-linecap="round"></path><path d="M 612.000,334.000 C 601.037,336.226 600.906,335.132 590.000,338.000" stroke-width="2.611" stroke="black" fill="none" stroke-linecap="round"></path><path d="M 590.000,338.000 C 573.071,341.843 573.037,340.726 556.000,343.000" stroke-width="1.974" stroke="black" fill="none" stroke-linecap="round"></path><path d="M 556.000,343.000 C 543.411,343.418 543.571,343.843 531.000,342.000" stroke-width="2.176" stroke="black" fill="none" stroke-linecap="round"></path><path d="M 531.000,342.000 C 508.567,337.866 508.411,339.418 486.000,335.000" stroke-width="2.304" stroke="black" fill="none" stroke-linecap="round"></path><path d="M 486.000,335.000 C 476.986,333.770 477.067,333.866 468.000,334.000" stroke-width="2.586" stroke="black" fill="none" stroke-linecap="round"></path><path d="M 468.000,334.000 C 457.520,335.299 457.486,334.270 447.000,336.000" stroke-width="2.472" stroke="black" fill="none" stroke-linecap="round"></path><path d="M 447.000,336.000 C 434.942,337.341 435.020,336.799 423.000,337.000" stroke-width="2.973" stroke="black" fill="none" stroke-linecap="round"></path><path d="M 423.000,337.000 C 417.396,336.408 417.442,336.841 412.000,335.000" stroke-width="3.304" stroke="black" fill="none" stroke-linecap="round"></path><path d="M 412.000,335.000 C 405.434,333.989 405.896,333.408 400.000,331.000" stroke-width="3.189" stroke="black" fill="none" stroke-linecap="round"></path><path d="M 400.000,331.000 C 394.795,328.414 395.434,328.489 392.000,324.000" stroke-width="3.374" stroke="black" fill="none" stroke-linecap="round"></path><path d="M 392.000,324.000 C 386.366,312.559 385.295,313.414 381.000,301.000" stroke-width="3.200" stroke="black" fill="none" stroke-linecap="round"></path><path d="M 381.000,301.000 C 380.060,298.474 379.866,298.559 379.000,296.000" stroke-width="3.915" stroke="black" fill="none" stroke-linecap="round"></path><path d="M 379.000,296.000 C 377.198,291.397 377.060,291.474 375.000,287.000" stroke-width="3.601" stroke="black" fill="none" stroke-linecap="round"></path><path d="M 375.000,287.000 C 373.500,284.500 373.698,284.397 372.000,282.000" stroke-width="3.993" stroke="black" fill="none" stroke-linecap="round"></path><path d="M 372.000,282.000 C 367.113,277.564 369.000,277.000 366.000,272.000" stroke-width="4.106" stroke="black" fill="none" stroke-linecap="round"></path><path d="M 366.000,272.000 C 364.313,259.365 363.613,260.064 365.000,247.000" stroke-width="2.627" stroke="black" fill="none" stroke-linecap="round"></path><path d="M 365.000,247.000 C 366.696,241.543 365.313,241.365 368.000,236.000" stroke-width="3.055" stroke="black" fill="none" stroke-linecap="round"></path><path d="M 368.000,236.000 C 369.925,232.543 368.696,233.043 369.000,230.000" stroke-width="4.083" stroke="black" fill="none" stroke-linecap="round"></path><path d="M 369.000,230.000 C 367.105,226.471 367.925,227.043 364.000,225.000" stroke-width="4.655" stroke="black" fill="none" stroke-linecap="round"></path><path d="M 364.000,225.000 C 357.010,221.280 357.605,221.971 350.000,221.000" stroke-width="4.129" stroke="black" fill="none" stroke-linecap="round"></path><path d="M 350.000,221.000 C 344.327,222.003 344.510,220.780 339.000,224.000" stroke-width="3.499" stroke="black" fill="none" stroke-linecap="round"></path><path d="M 339.000,224.000 C 328.587,228.715 328.327,228.003 318.000,233.000" stroke-width="2.578" stroke="black" fill="none" stroke-linecap="round"></path><path d="M 318.000,233.000 C 307.711,237.704 307.587,237.215 297.000,241.000" stroke-width="2.406" stroke="black" fill="none" stroke-linecap="round"></path><path d="M 297.000,241.000 C 288.087,243.788 288.211,243.704 279.000,245.000" stroke-width="2.548" stroke="black" fill="none" stroke-linecap="round"></path><path d="M 279.000,245.000 C 272.980,245.386 273.087,245.788 267.000,245.000" stroke-width="2.980" stroke="black" fill="none" stroke-linecap="round"></path><path d="M 267.000,245.000 C 257.517,243.264 257.480,244.386 248.000,243.000" stroke-width="2.800" stroke="black" fill="none" stroke-linecap="round"></path><path d="M 248.000,243.000 C 239.086,241.815 239.517,242.764 231.000,244.000" stroke-width="2.747" stroke="black" fill="none" stroke-linecap="round"></path><path d="M 231.000,244.000 C 221.010,248.522 220.586,246.815 211.000,253.000" stroke-width="2.537" stroke="black" fill="none" stroke-linecap="round"></path><path d="M 211.000,253.000 C 201.870,256.743 202.010,257.022 193.000,261.000" stroke-width="2.585" stroke="black" fill="none" stroke-linecap="round"></path><path d="M 193.000,261.000 C 189.597,263.201 189.370,262.743 186.000,265.000" stroke-width="3.298" stroke="black" fill="none" stroke-linecap="round"></path><path d="M 186.000,265.000 C 182.027,267.770 183.597,266.201 181.000,267.000" stroke-width="3.887" stroke="black" fill="none" stroke-linecap="round"></path><path d="M 181.000,267.000 C 180.146,262.309 180.027,266.270 182.000,262.000" stroke-width="4.847" stroke="black" fill="none" stroke-linecap="round"></path><path d="M 182.000,262.000 C 187.809,262.775 186.146,261.309 193.000,265.000" stroke-width="4.360" stroke="black" fill="none" stroke-linecap="round"></path><path d="M 193.000,265.000 C 198.328,267.526 198.309,267.275 203.000,271.000" stroke-width="3.589" stroke="black" fill="none" stroke-linecap="round"></path><path d="M 203.000,271.000 C 217.881,282.053 217.828,282.026 232.000,294.000" stroke-width="2.016" stroke="black" fill="none" stroke-linecap="round"></path><path d="M 232.000,294.000 C 242.022,306.510 243.881,304.053 255.000,315.000" stroke-width="1.995" stroke="black" fill="none" stroke-linecap="round"></path><path d="M 255.000,315.000 C 296.151,341.147 295.522,341.510 339.000,364.000" stroke-width="1.559" stroke="black" fill="none" stroke-linecap="round"></path><path d="M 339.000,364.000 C 363.084,381.203 363.651,377.147 390.000,387.000" stroke-width="1.377" stroke="black" fill="none" stroke-linecap="round"></path><path d="M 390.000,387.000 C 430.501,396.496 428.084,395.203 469.000,392.000" stroke-width="1.125" stroke="black" fill="none" stroke-linecap="round"></path><path d="M 469.000,392.000 C 498.763,383.149 499.001,388.496 527.000,371.000" stroke-width="1.158" stroke="black" fill="none" stroke-linecap="round"></path><path d="M 527.000,371.000 C 543.969,366.532 541.763,364.649 555.000,355.000" stroke-width="1.614" stroke="black" fill="none" stroke-linecap="round"></path><path d="M 555.000,355.000 C 599.735,308.116 598.969,309.032 637.000,256.000" stroke-width="1.125" stroke="black" fill="none" stroke-linecap="round"></path><path d="M 637.000,256.000 C 664.404,213.525 666.235,215.116 688.000,169.000" stroke-width="1.125" stroke="black" fill="none" stroke-linecap="round"></path><path d="M 688.000,169.000 C 719.607,103.786 721.904,105.025 752.000,39.000" stroke-width="1.125" stroke="black" fill="none" stroke-linecap="round"></path><path d="M 752.000,39.000 C 763.032,30.398 754.607,33.786 758.000,29.000" stroke-width="1.496" stroke="black" fill="none" stroke-linecap="round"></path><path d="M 758.000,29.000 C 690.414,5.098 700.032,12.898 626.000,4.000" stroke-width="2.219" stroke="black" fill="none" stroke-linecap="round"></path><path d="M 626.000,4.000 C 602.428,12.653 602.414,3.598 582.000,26.000" stroke-width="1.613" stroke="black" fill="none" stroke-linecap="round"></path><path d="M 582.000,26.000 C 566.420,39.409 564.928,37.153 551.000,53.000" stroke-width="1.636" stroke="black" fill="none" stroke-linecap="round"></path><path d="M 551.000,53.000 C 535.108,63.734 536.920,65.409 523.000,78.000" stroke-width="1.667" stroke="black" fill="none" stroke-linecap="round"></path><path d="M 523.000,78.000 C 486.323,124.866 484.608,123.234 450.000,172.000" stroke-width="1.328" stroke="black" fill="none" stroke-linecap="round"></path><path d="M 450.000,172.000 C 443.999,179.175 444.323,179.366 439.000,187.000" stroke-width="2.055" stroke="black" fill="none" stroke-linecap="round"></path><path d="M 439.000,187.000 C 432.685,197.341 432.499,197.175 427.000,208.000" stroke-width="2.235" stroke="black" fill="none" stroke-linecap="round"></path><path d="M 427.000,208.000 C 424.393,212.300 424.685,212.341 423.000,217.000" stroke-width="3.023" stroke="black" fill="none" stroke-linecap="round"></path><path d="M 423.000,217.000 C 418.616,225.983 420.393,225.800 419.000,235.000" stroke-width="2.724" stroke="black" fill="none" stroke-linecap="round"></path><path d="M 419.000,235.000 C 419.157,250.644 419.616,249.483 425.000,264.000" stroke-width="2.216" stroke="black" fill="none" stroke-linecap="round"></path><path d="M 425.000,264.000 C 431.196,286.829 433.157,282.644 447.000,299.000" stroke-width="1.778" stroke="black" fill="none" stroke-linecap="round"></path><path d="M 447.000,299.000 C 478.066,320.606 474.696,320.329 512.000,331.000" stroke-width="1.167" stroke="black" fill="none" stroke-linecap="round"></path><path d="M 512.000,331.000 C 535.050,333.323 533.566,337.606 558.000,333.000" stroke-width="1.429" stroke="black" fill="none" stroke-linecap="round"></path><path d="M 558.000,333.000 C 570.673,332.421 570.550,332.823 583.000,330.000" stroke-width="1.928" stroke="black" fill="none" stroke-linecap="round"></path><path d="M 583.000,330.000 C 600.079,328.629 598.673,326.921 614.000,322.000" stroke-width="1.944" stroke="black" fill="none" stroke-linecap="round"></path><path d="M 614.000,322.000 C 619.963,316.363 621.079,318.629 625.000,310.000" stroke-width="2.467" stroke="black" fill="none" stroke-linecap="round"></path><path d="M 625.000,310.000 C 629.040,304.026 629.463,304.363 633.000,298.000" stroke-width="2.844" stroke="black" fill="none" stroke-linecap="round"></path><path d="M 633.000,298.000 C 641.389,286.962 640.540,286.526 648.000,275.000" stroke-width="2.255" stroke="black" fill="none" stroke-linecap="round"></path><path d="M 648.000,275.000 C 650.820,267.419 651.889,267.962 654.000,260.000" stroke-width="2.610" stroke="black" fill="none" stroke-linecap="round"></path><path d="M 654.000,260.000 C 655.595,257.044 655.320,256.919 657.000,254.000" stroke-width="3.466" stroke="black" fill="none" stroke-linecap="round"></path><path d="M 657.000,254.000 C 661.370,248.827 658.595,250.544 660.000,247.000" stroke-width="3.749" stroke="black" fill="none" stroke-linecap="round"></path><path d="M 660.000,247.000 C 654.438,243.402 658.370,244.827 651.000,246.000" stroke-width="4.599" stroke="black" fill="none" stroke-linecap="round"></path><path d="M 651.000,246.000 C 633.432,263.986 631.938,260.402 615.000,281.000" stroke-width="1.724" stroke="black" fill="none" stroke-linecap="round"></path><path d="M 615.000,281.000 C 606.255,286.745 607.432,287.986 599.000,294.000" stroke-width="2.225" stroke="black" fill="none" stroke-linecap="round"></path><path d="M 599.000,294.000 C 590.906,302.583 590.755,302.245 584.000,312.000" stroke-width="2.321" stroke="black" fill="none" stroke-linecap="round"></path><path d="M 584.000,312.000 C 580.243,317.874 579.906,317.583 577.000,324.000" stroke-width="2.814" stroke="black" fill="none" stroke-linecap="round"></path><path d="M 577.000,324.000 C 573.412,327.412 575.743,326.374 575.000,329.000" stroke-width="3.988" stroke="black" fill="none" stroke-linecap="round"></path><path d="M 575.000,329.000 C 582.363,335.564 580.412,334.412 591.000,338.000" stroke-width="3.719" stroke="black" fill="none" stroke-linecap="round"></path><path d="M 591.000,338.000 C 602.509,340.000 601.863,341.064 614.000,340.000" stroke-width="2.673" stroke="black" fill="none" stroke-linecap="round"></path></svg>