<svg xmlns="http://www.w3.org/2000/svg" xmlns:xlink="http://www.w3.org/1999/xlink" viewBox="0 0 1460 590" width="1460" height="590"><path d="M 417.000,331.000 C 414.162,328.283 414.000,328.500 411.000,326.000" stroke-width="5.349" stroke="black" fill="none" stroke-linecap="round"></path><path d="M 411.000,326.000 C 405.256,321.476 405.162,321.783 399.000,318.000" stroke-width="3.416" stroke="black" fill="none" stroke-linecap="round"></path><path d="M 399.000,318.000 C 395.857,317.319 396.256,316.476 393.000,316.000" stroke-width="3.825" stroke="black" fill="none" stroke-linecap="round"></path><path d="M 393.000,316.000 C 389.314,314.278 389.357,314.319 386.000,312.000" stroke-width="3.867" stroke="black" fill="none" stroke-linecap="round"></path><path d="M 386.000,312.000 C 381.594,308.369 381.314,308.778 377.000,305.000" stroke-width="4.059" stroke="black" fill="none" stroke-linecap="round"></path><path d="M 377.000,305.000 C 374.108,302.813 374.094,302.869 371.000,301.000" stroke-width="3.982" stroke="black" fill="none" stroke-linecap="round"></path><path d="M 371.000,301.000 C 364.536,300.318 368.108,299.313 365.000,298.000" stroke-width="4.619" stroke="black" fill="none" stroke-linecap="round"></path><path d="M 365.000,298.000 C 368.552,291.012 366.036,292.818 374.000,286.000" stroke-width="4.979" stroke="black" fill="none" stroke-linecap="round"></path><path d="M 374.000,286.000 C 381.726,280.056 381.052,279.512 390.000,275.000" stroke-width="2.979" stroke="black" fill="none" stroke-linecap="round"></path><path d="M 390.000,275.000 C 400.721,270.580 399.726,269.056 410.000,264.000" stroke-width="2.549" stroke="black" fill="none" stroke-linecap="round"></path><path d="M 410.000,264.000 C 427.313,249.757 428.221,251.080 445.000,236.000" stroke-width="1.629" stroke="black" fill="none" stroke-linecap="round"></path><path d="M 445.000,236.000 C 455.355,229.980 454.313,228.757 464.000,222.000" stroke-width="2.077" stroke="black" fill="none" stroke-linecap="round"></path><path d="M 464.000,222.000 C 479.605,203.777 481.355,205.980 497.000,188.000" stroke-width="1.727" stroke="black" fill="none" stroke-linecap="round"></path><path d="M 497.000,188.000 C 501.849,185.060 501.105,184.277 507.000,183.000" stroke-width="2.719" stroke="black" fill="none" stroke-linecap="round"></path><path d="M 507.000,183.000 C 510.438,180.884 509.349,182.060 512.000,182.000" stroke-width="3.644" stroke="black" fill="none" stroke-linecap="round"></path><path d="M 512.000,182.000 C 513.525,184.915 513.938,183.384 514.000,188.000" stroke-width="4.686" stroke="black" fill="none" stroke-linecap="round"></path><path d="M 514.000,188.000 C 515.634,192.020 514.525,191.415 514.000,195.000" stroke-width="4.671" stroke="black" fill="none" stroke-linecap="round"></path><path d="M 514.000,195.000 C 504.232,206.248 507.134,207.520 497.000,219.000" stroke-width="4.978" stroke="black" fill="none" stroke-linecap="round"></path><path d="M 497.000,219.000 C 486.846,240.683 485.232,239.748 476.000,262.000" stroke-width="1.796" stroke="black" fill="none" stroke-linecap="round"></path><path d="M 476.000,262.000 C 471.691,268.835 472.346,269.183 468.000,276.000" stroke-width="2.398" stroke="black" fill="none" stroke-linecap="round"></path><path d="M 468.000,276.000 C 454.083,301.586 454.691,301.835 442.000,328.000" stroke-width="1.425" stroke="black" fill="none" stroke-linecap="round"></path><path d="M 442.000,328.000 C 433.106,348.855 432.583,348.586 425.000,370.000" stroke-width="1.543" stroke="black" fill="none" stroke-linecap="round"></path><path d="M 425.000,370.000 C 421.849,378.952 421.606,378.855 419.000,388.000" stroke-width="2.144" stroke="black" fill="none" stroke-linecap="round"></path><path d="M 419.000,388.000 C 415.100,406.758 413.349,405.952 408.000,424.000" stroke-width="2.461" stroke="black" fill="none" stroke-linecap="round"></path><path d="M 408.000,424.000 C 403.185,431.631 404.600,432.258 398.000,439.000" stroke-width="2.587" stroke="black" fill="none" stroke-linecap="round"></path><path d="M 398.000,439.000 C 393.545,445.034 393.685,445.131 389.000,451.000" stroke-width="2.906" stroke="black" fill="none" stroke-linecap="round"></path><path d="M 389.000,451.000 C 385.938,455.898 385.545,455.534 382.000,460.000" stroke-width="3.161" stroke="black" fill="none" stroke-linecap="round"></path><path d="M 382.000,460.000 C 373.603,468.114 373.938,468.398 365.000,476.000" stroke-width="3.253" stroke="black" fill="none" stroke-linecap="round"></path><path d="M 365.000,476.000 C 361.104,478.637 361.603,479.114 358.000,482.000" stroke-width="3.566" stroke="black" fill="none" stroke-linecap="round"></path><path d="M 358.000,482.000 C 355.715,485.682 355.104,485.137 353.000,489.000" stroke-width="3.630" stroke="black" fill="none" stroke-linecap="round"></path><path d="M 353.000,489.000 C 351.100,493.210 351.215,491.182 349.000,493.000" stroke-width="4.378" stroke="black" fill="none" stroke-linecap="round"></path><path d="M 349.000,493.000 C 344.697,491.110 346.100,492.710 343.000,488.000" stroke-width="4.968" stroke="black" fill="none" stroke-linecap="round"></path><path d="M 343.000,488.000 C 342.770,484.984 341.697,485.610 343.000,482.000" stroke-width="4.320" stroke="black" fill="none" stroke-linecap="round"></path><path d="M 343.000,482.000 C 343.192,478.432 343.270,478.484 344.000,475.000" stroke-width="4.119" stroke="black" fill="none" stroke-linecap="round"></path><path d="M 344.000,475.000 C 345.428,469.978 345.192,469.932 347.000,465.000" stroke-width="3.591" stroke="black" fill="none" stroke-linecap="round"></path><path d="M 347.000,465.000 C 351.231,450.909 351.428,450.978 356.000,437.000" stroke-width="3.136" stroke="black" fill="none" stroke-linecap="round"></path><path d="M 356.000,437.000 C 363.023,415.809 363.231,415.909 371.000,395.000" stroke-width="1.830" stroke="black" fill="none" stroke-linecap="round"></path><path d="M 371.000,395.000 C 373.989,385.447 374.523,385.809 379.000,377.000" stroke-width="2.312" stroke="black" fill="none" stroke-linecap="round"></path><path d="M 379.000,377.000 C 390.928,354.937 391.489,355.947 406.000,336.000" stroke-width="2.305" stroke="black" fill="none" stroke-linecap="round"></path><path d="M 406.000,336.000 C 412.030,332.044 410.428,330.437 418.000,328.000" stroke-width="2.776" stroke="black" fill="none" stroke-linecap="round"></path><path d="M 418.000,328.000 C 427.382,321.320 427.530,321.544 437.000,315.000" stroke-width="2.361" stroke="black" fill="none" stroke-linecap="round"></path><path d="M 437.000,315.000 C 444.412,308.779 444.882,309.820 453.000,305.000" stroke-width="2.511" stroke="black" fill="none" stroke-linecap="round"></path><path d="M 453.000,305.000 C 469.979,298.938 469.412,297.779 487.000,293.000" stroke-width="2.660" stroke="black" fill="none" stroke-linecap="round"></path><path d="M 487.000,293.000 C 491.584,291.717 491.479,291.438 496.000,290.000" stroke-width="3.303" stroke="black" fill="none" stroke-linecap="round"></path><path d="M 496.000,290.000 C 500.686,288.353 500.584,288.217 505.000,286.000" stroke-width="3.426" stroke="black" fill="none" stroke-linecap="round"></path><path d="M 505.000,286.000 C 511.656,282.229 511.686,282.353 518.000,278.000" stroke-width="3.089" stroke="black" fill="none" stroke-linecap="round"></path><path d="M 518.000,278.000 C 525.228,271.485 522.156,275.229 526.000,272.000" stroke-width="3.857" stroke="black" fill="none" stroke-linecap="round"></path><path d="M 526.000,272.000 C 523.896,276.315 526.728,272.485 521.000,280.000" stroke-width="4.779" stroke="black" fill="none" stroke-linecap="round"></path><path d="M 521.000,280.000 C 517.799,282.815 518.396,283.315 515.000,286.000" stroke-width="4.011" stroke="black" fill="none" stroke-linecap="round"></path><path d="M 515.000,286.000 C 503.455,299.462 503.299,299.315 492.000,313.000" stroke-width="2.105" stroke="black" fill="none" stroke-linecap="round"></path><path d="M 492.000,313.000 C 486.933,318.946 486.955,318.962 482.000,325.000" stroke-width="2.622" stroke="black" fill="none" stroke-linecap="round"></path><path d="M 482.000,325.000 C 474.898,331.954 475.933,332.446 470.000,340.000" stroke-width="3.213" stroke="black" fill="none" stroke-linecap="round"></path><path d="M 470.000,340.000 C 465.803,345.634 467.898,343.454 468.000,348.000" stroke-width="4.046" stroke="black" fill="none" stroke-linecap="round"></path><path d="M 468.000,348.000 C 475.242,352.338 472.303,352.634 483.000,354.000" stroke-width="3.156" stroke="black" fill="none" stroke-linecap="round"></path><path d="M 483.000,354.000 C 489.568,354.689 489.242,355.338 496.000,354.000" stroke-width="3.178" stroke="black" fill="none" stroke-linecap="round"></path><path d="M 496.000,354.000 C 503.598,352.898 503.568,353.189 511.000,351.000" stroke-width="3.023" stroke="black" fill="none" stroke-linecap="round"></path><path d="M 511.000,351.000 C 523.081,347.746 523.098,347.898 535.000,344.000" stroke-width="2.459" stroke="black" fill="none" stroke-linecap="round"></path><path d="M 535.000,344.000 C 541.008,342.964 540.581,342.246 546.000,340.000" stroke-width="2.911" stroke="black" fill="none" stroke-linecap="round"></path><path d="M 546.000,340.000 C 558.146,333.854 557.008,333.464 567.000,325.000" stroke-width="3.050" stroke="black" fill="none" stroke-linecap="round"></path><path d="M 567.000,325.000 C 570.362,319.732 571.146,320.854 572.000,314.000" stroke-width="3.264" stroke="black" fill="none" stroke-linecap="round"></path><path d="M 572.000,314.000 C 573.275,308.944 573.362,309.232 573.000,304.000" stroke-width="3.449" stroke="black" fill="none" stroke-linecap="round"></path><path d="M 573.000,304.000 C 572.300,299.899 572.775,299.944 571.000,296.000" stroke-width="3.679" stroke="black" fill="none" stroke-linecap="round"></path><path d="M 571.000,296.000 C 570.556,291.301 569.800,292.399 568.000,289.000" stroke-width="3.771" stroke="black" fill="none" stroke-linecap="round"></path><path d="M 568.000,289.000 C 564.153,285.897 565.556,286.801 561.000,287.000" stroke-width="4.494" stroke="black" fill="none" stroke-linecap="round"></path><path d="M 561.000,287.000 C 553.927,290.846 554.153,289.397 548.000,296.000" stroke-width="3.183" stroke="black" fill="none" stroke-linecap="round"></path><path d="M 548.000,296.000 C 542.956,301.461 542.427,300.846 538.000,307.000" stroke-width="3.111" stroke="black" fill="none" stroke-linecap="round"></path><path d="M 538.000,307.000 C 534.481,310.984 534.456,310.961 531.000,315.000" stroke-width="3.348" stroke="black" fill="none" stroke-linecap="round"></path><path d="M 531.000,315.000 C 525.247,318.293 527.981,318.484 525.000,322.000" stroke-width="4.001" stroke="black" fill="none" stroke-linecap="round"></path><path d="M 525.000,322.000 C 526.910,326.601 524.747,325.793 530.000,330.000" stroke-width="4.274" stroke="black" fill="none" stroke-linecap="round"></path><path d="M 530.000,330.000 C 532.366,331.771 531.910,332.101 535.000,333.000" stroke-width="4.214" stroke="black" fill="none" stroke-linecap="round"></path><path d="M 535.000,333.000 C 539.862,335.716 539.866,335.271 545.000,337.000" stroke-width="4.233" stroke="black" fill="none" stroke-linecap="round"></path><path d="M 545.000,337.000 C 548.011,337.199 547.862,337.716 551.000,337.000" stroke-width="4.180" stroke="black" fill="none" stroke-linecap="round"></path><path d="M 551.000,337.000 C 556.116,338.119 555.511,336.699 560.000,336.000" stroke-width="3.750" stroke="black" fill="none" stroke-linecap="round"></path><path d="M 560.000,336.000 C 572.599,328.250 572.616,329.119 584.000,319.000" stroke-width="2.382" stroke="black" fill="none" stroke-linecap="round"></path><path d="M 584.000,319.000 C 597.701,304.933 599.099,306.750 613.000,293.000" stroke-width="1.807" stroke="black" fill="none" stroke-linecap="round"></path><path d="M 613.000,293.000 C 624.419,287.702 622.701,285.433 634.000,280.000" stroke-width="2.168" stroke="black" fill="none" stroke-linecap="round"></path><path d="M 634.000,280.000 C 648.757,265.719 649.919,267.202 664.000,252.000" stroke-width="1.718" stroke="black" fill="none" stroke-linecap="round"></path><path d="M 664.000,252.000 C 669.183,248.215 668.757,247.719 674.000,244.000" stroke-width="2.546" stroke="black" fill="none" stroke-linecap="round"></path><path d="M 674.000,244.000 C 689.052,230.557 689.183,230.715 704.000,217.000" stroke-width="1.860" stroke="black" fill="none" stroke-linecap="round"></path><path d="M 704.000,217.000 C 711.279,211.675 710.552,211.057 717.000,205.000" stroke-width="2.362" stroke="black" fill="none" stroke-linecap="round"></path><path d="M 717.000,205.000 C 723.392,197.488 723.279,197.675 728.000,189.000" stroke-width="2.541" stroke="black" fill="none" stroke-linecap="round"></path><path d="M 728.000,189.000 C 732.174,179.565 732.892,179.988 736.000,170.000" stroke-width="2.482" stroke="black" fill="none" stroke-linecap="round"></path><path d="M 736.000,170.000 C 736.920,166.971 737.174,167.065 738.000,164.000" stroke-width="3.429" stroke="black" fill="none" stroke-linecap="round"></path><path d="M 738.000,164.000 C 741.396,160.047 738.920,161.471 740.000,159.000" stroke-width="3.979" stroke="black" fill="none" stroke-linecap="round"></path><path d="M 740.000,159.000 C 734.488,156.159 737.396,157.047 730.000,158.000" stroke-width="4.588" stroke="black" fill="none" stroke-linecap="round"></path><path d="M 730.000,158.000 C 714.616,165.317 714.988,164.159 701.000,175.000" stroke-width="2.294" stroke="black" fill="none" stroke-linecap="round"></path><path d="M 701.000,175.000 C 693.385,182.949 692.116,181.317 685.000,190.000" stroke-width="2.287" stroke="black" fill="none" stroke-linecap="round"></path><path d="M 685.000,190.000 C 669.790,199.766 671.385,201.449 657.000,212.000" stroke-width="1.878" stroke="black" fill="none" stroke-linecap="round"></path><path d="M 657.000,212.000 C 648.878,223.862 646.790,221.766 639.000,234.000" stroke-width="1.979" stroke="black" fill="none" stroke-linecap="round"></path><path d="M 639.000,234.000 C 627.685,241.252 629.878,243.362 619.000,251.000" stroke-width="2.186" stroke="black" fill="none" stroke-linecap="round"></path><path d="M 619.000,251.000 C 603.548,269.391 603.185,268.752 590.000,289.000" stroke-width="1.635" stroke="black" fill="none" stroke-linecap="round"></path><path d="M 590.000,289.000 C 584.740,297.183 584.548,296.891 581.000,306.000" stroke-width="2.228" stroke="black" fill="none" stroke-linecap="round"></path><path d="M 581.000,306.000 C 578.650,314.051 577.740,313.683 576.000,322.000" stroke-width="2.568" stroke="black" fill="none" stroke-linecap="round"></path><path d="M 576.000,322.000 C 573.584,325.911 574.650,326.051 573.000,330.000" stroke-width="3.250" stroke="black" fill="none" stroke-linecap="round"></path><path d="M 573.000,330.000 C 572.140,334.605 572.584,332.911 574.000,336.000" stroke-width="4.312" stroke="black" fill="none" stroke-linecap="round"></path><path d="M 574.000,336.000 C 577.908,337.435 576.140,337.605 581.000,336.000" stroke-width="4.077" stroke="black" fill="none" stroke-linecap="round"></path><path d="M 581.000,336.000 C 592.124,330.350 591.908,330.935 602.000,323.000" stroke-width="2.563" stroke="black" fill="none" stroke-linecap="round"></path><path d="M 602.000,323.000 C 612.395,312.621 613.624,314.350 624.000,304.000" stroke-width="2.201" stroke="black" fill="none" stroke-linecap="round"></path><path d="M 624.000,304.000 C 630.203,299.769 629.895,299.621 637.000,297.000" stroke-width="2.711" stroke="black" fill="none" stroke-linecap="round"></path><path d="M 637.000,297.000 C 643.901,294.291 643.703,294.269 651.000,293.000" stroke-width="2.871" stroke="black" fill="none" stroke-linecap="round"></path><path d="M 651.000,293.000 C 655.019,292.735 654.901,292.291 659.000,293.000" stroke-width="3.873" stroke="black" fill="none" stroke-linecap="round"></path><path d="M 659.000,293.000 C 662.689,292.896 662.519,293.235 666.000,294.000" stroke-width="4.726" stroke="black" fill="none" stroke-linecap="round"></path><path d="M 666.000,294.000 C 669.654,297.255 670.189,295.396 674.000,298.000" stroke-width="3.946" stroke="black" fill="none" stroke-linecap="round"></path><path d="M 674.000,298.000 C 687.497,299.679 687.154,300.255 701.000,300.000" stroke-width="2.508" stroke="black" fill="none" stroke-linecap="round"></path><path d="M 701.000,300.000 C 708.492,299.259 708.497,300.179 716.000,299.000" stroke-width="2.770" stroke="black" fill="none" stroke-linecap="round"></path><path d="M 716.000,299.000 C 723.000,299.000 722.992,298.759 730.000,299.000" stroke-width="2.983" stroke="black" fill="none" stroke-linecap="round"></path><path d="M 730.000,299.000 C 734.053,297.540 733.000,299.000 736.000,299.000" stroke-width="3.681" stroke="black" fill="none" stroke-linecap="round"></path><path d="M 736.000,299.000 C 738.980,302.158 738.053,300.540 738.000,305.000" stroke-width="4.511" stroke="black" fill="none" stroke-linecap="round"></path><path d="M 738.000,305.000 C 733.044,317.266 733.980,316.658 726.000,328.000" stroke-width="2.546" stroke="black" fill="none" stroke-linecap="round"></path><path d="M 726.000,328.000 C 721.020,332.118 722.544,333.266 717.000,337.000" stroke-width="2.981" stroke="black" fill="none" stroke-linecap="round"></path><path d="M 717.000,337.000 C 709.057,345.327 714.020,340.618 712.000,345.000" stroke-width="3.400" stroke="black" fill="none" stroke-linecap="round"></path><path d="M 712.000,345.000 C 728.449,340.548 722.557,343.827 744.000,334.000" stroke-width="3.349" stroke="black" fill="none" stroke-linecap="round"></path><path d="M 744.000,334.000 C 756.761,327.954 756.949,328.548 769.000,321.000" stroke-width="2.379" stroke="black" fill="none" stroke-linecap="round"></path><path d="M 769.000,321.000 C 778.070,314.191 778.761,315.454 788.000,309.000" stroke-width="2.351" stroke="black" fill="none" stroke-linecap="round"></path><path d="M 788.000,309.000 C 800.111,302.196 800.070,302.691 813.000,298.000" stroke-width="2.153" stroke="black" fill="none" stroke-linecap="round"></path><path d="M 813.000,298.000 C 821.959,295.583 821.611,295.196 831.000,295.000" stroke-width="2.465" stroke="black" fill="none" stroke-linecap="round"></path><path d="M 831.000,295.000 C 837.603,294.990 837.459,294.583 844.000,296.000" stroke-width="2.877" stroke="black" fill="none" stroke-linecap="round"></path><path d="M 844.000,296.000 C 847.022,296.937 847.103,296.490 850.000,298.000" stroke-width="3.598" stroke="black" fill="none" stroke-linecap="round"></path><path d="M 850.000,298.000 C 853.918,299.758 854.022,299.437 858.000,301.000" stroke-width="3.646" stroke="black" fill="none" stroke-linecap="round"></path><path d="M 858.000,301.000 C 865.442,303.282 865.418,303.258 873.000,305.000" stroke-width="3.121" stroke="black" fill="none" stroke-linecap="round"></path><path d="M 1119.000,198.000 C 1120.435,195.459 1120.500,195.500 1122.000,193.000" stroke-width="5.323" stroke="black" fill="none" stroke-linecap="round"></path><path d="M 1122.000,193.000 C 1124.089,190.057 1123.935,189.959 1126.000,187.000" stroke-width="4.281" stroke="black" fill="none" stroke-linecap="round"></path><path d="M 1126.000,187.000 C 1131.804,178.169 1131.589,178.057 1137.000,169.000" stroke-width="2.789" stroke="black" fill="none" stroke-linecap="round"></path><path d="M 1137.000,169.000 C 1140.515,163.213 1140.304,163.169 1143.000,157.000" stroke-width="2.973" stroke="black" fill="none" stroke-linecap="round"></path><path d="M 1143.000,157.000 C 1148.735,148.026 1146.515,148.213 1149.000,139.000" stroke-width="2.745" stroke="black" fill="none" stroke-linecap="round"></path><path d="M 1149.000,139.000 C 1148.465,129.697 1149.235,131.026 1144.000,123.000" stroke-width="2.806" stroke="black" fill="none" stroke-linecap="round"></path><path d="M 1144.000,123.000 C 1139.069,110.784 1139.465,116.197 1131.000,112.000" stroke-width="2.809" stroke="black" fill="none" stroke-linecap="round"></path><path d="M 1131.000,112.000 C 1062.507,122.860 1066.069,121.784 998.000,145.000" stroke-width="1.125" stroke="black" fill="none" stroke-linecap="round"></path><path d="M 998.000,145.000 C 943.271,163.769 944.507,163.360 895.000,193.000" stroke-width="1.125" stroke="black" fill="none" stroke-linecap="round"></path><path d="M 895.000,193.000 C 849.463,217.065 853.271,218.269 818.000,254.000" stroke-width="1.125" stroke="black" fill="none" stroke-linecap="round"></path><path d="M 818.000,254.000 C 772.243,317.033 768.963,311.565 734.000,382.000" stroke-width="1.125" stroke="black" fill="none" stroke-linecap="round"></path><path d="M 734.000,382.000 C 732.871,388.968 730.743,387.533 735.000,395.000" stroke-width="1.858" stroke="black" fill="none" stroke-linecap="round"></path><path d="M 735.000,395.000 C 736.639,409.435 738.871,405.968 746.000,416.000" stroke-width="2.126" stroke="black" fill="none" stroke-linecap="round"></path><path d="M 746.000,416.000 C 778.202,435.879 775.139,436.435 812.000,449.000" stroke-width="1.839" stroke="black" fill="none" stroke-linecap="round"></path><path d="M 812.000,449.000 C 821.875,451.310 820.702,452.379 831.000,449.000" stroke-width="2.344" stroke="black" fill="none" stroke-linecap="round"></path><path d="M 831.000,449.000 C 862.737,442.660 861.375,441.310 891.000,429.000" stroke-width="1.343" stroke="black" fill="none" stroke-linecap="round"></path><path d="M 891.000,429.000 C 920.734,409.566 922.737,413.660 951.000,391.000" stroke-width="1.192" stroke="black" fill="none" stroke-linecap="round"></path><path d="M 951.000,391.000 C 980.478,373.463 980.234,373.066 1010.000,356.000" stroke-width="1.575" stroke="black" fill="none" stroke-linecap="round"></path><path d="M 1010.000,356.000 C 1015.624,351.597 1015.978,352.463 1022.000,349.000" stroke-width="2.364" stroke="black" fill="none" stroke-linecap="round"></path><path d="M 1022.000,349.000 C 1029.456,346.796 1029.124,346.097 1037.000,345.000" stroke-width="2.740" stroke="black" fill="none" stroke-linecap="round"></path><path d="M 1037.000,345.000 C 1040.083,344.796 1039.956,344.296 1043.000,344.000" stroke-width="3.591" stroke="black" fill="none" stroke-linecap="round"></path></svg>