<svg xmlns="http://www.w3.org/2000/svg" xmlns:xlink="http://www.w3.org/1999/xlink" viewBox="0 0 1460 590" width="1460" height="590"><path d="M 506.000,222.000 C 510.396,223.884 510.500,223.500 515.000,225.000" stroke-width="5.178" stroke="black" fill="none" stroke-linecap="round"></path><path d="M 515.000,225.000 C 526.994,227.528 526.896,227.884 539.000,230.000" stroke-width="2.681" stroke="black" fill="none" stroke-linecap="round"></path><path d="M 539.000,230.000 C 543.946,231.541 543.994,231.028 549.000,232.000" stroke-width="3.215" stroke="black" fill="none" stroke-linecap="round"></path><path d="M 549.000,232.000 C 555.027,231.573 554.946,232.541 561.000,232.000" stroke-width="3.325" stroke="black" fill="none" stroke-linecap="round"></path><path d="M 561.000,232.000 C 568.981,233.303 569.027,232.573 577.000,234.000" stroke-width="2.870" stroke="black" fill="none" stroke-linecap="round"></path><path d="M 573.000,232.000 C 572.105,236.478 572.500,236.500 572.000,241.000" stroke-width="5.363" stroke="black" fill="none" stroke-linecap="round"></path><path d="M 572.000,241.000 C 572.258,258.004 571.605,257.978 572.000,275.000" stroke-width="2.330" stroke="black" fill="none" stroke-linecap="round"></path><path d="M 572.000,275.000 C 571.592,291.004 571.758,291.004 571.000,307.000" stroke-width="1.991" stroke="black" fill="none" stroke-linecap="round"></path><path d="M 571.000,307.000 C 570.393,317.996 570.592,318.004 570.000,329.000" stroke-width="2.240" stroke="black" fill="none" stroke-linecap="round"></path><path d="M 570.000,329.000 C 569.395,345.998 569.393,345.996 569.000,363.000" stroke-width="1.971" stroke="black" fill="none" stroke-linecap="round"></path><path d="M 569.000,363.000 C 569.264,367.516 568.895,367.498 569.000,372.000" stroke-width="2.919" stroke="black" fill="none" stroke-linecap="round"></path><path d="M 569.000,372.000 C 568.570,376.010 568.764,376.016 568.000,380.000" stroke-width="3.400" stroke="black" fill="none" stroke-linecap="round"></path><path d="M 568.000,380.000 C 568.664,383.860 567.570,383.010 567.000,386.000" stroke-width="4.231" stroke="black" fill="none" stroke-linecap="round"></path><path d="M 567.000,386.000 C 564.245,388.536 565.164,388.360 561.000,389.000" stroke-width="4.040" stroke="black" fill="none" stroke-linecap="round"></path><path d="M 561.000,389.000 C 553.222,390.444 553.745,390.036 546.000,389.000" stroke-width="3.171" stroke="black" fill="none" stroke-linecap="round"></path><path d="M 546.000,389.000 C 538.365,386.301 538.222,387.444 531.000,383.000" stroke-width="2.901" stroke="black" fill="none" stroke-linecap="round"></path><path d="M 531.000,383.000 C 522.749,381.128 523.865,379.801 517.000,376.000" stroke-width="2.860" stroke="black" fill="none" stroke-linecap="round"></path><path d="M 517.000,376.000 C 505.055,363.342 504.249,364.628 494.000,350.000" stroke-width="2.776" stroke="black" fill="none" stroke-linecap="round"></path><path d="M 494.000,350.000 C 490.617,345.711 490.555,345.842 488.000,341.000" stroke-width="3.208" stroke="black" fill="none" stroke-linecap="round"></path><path d="M 488.000,341.000 C 485.243,336.661 485.617,336.711 484.000,332.000" stroke-width="3.395" stroke="black" fill="none" stroke-linecap="round"></path><path d="M 648.000,316.000 C 645.131,317.063 645.500,317.500 643.000,319.000" stroke-width="4.931" stroke="black" fill="none" stroke-linecap="round"></path><path d="M 643.000,319.000 C 639.906,322.423 639.631,322.063 637.000,326.000" stroke-width="3.891" stroke="black" fill="none" stroke-linecap="round"></path><path d="M 637.000,326.000 C 633.765,330.734 633.406,330.423 630.000,335.000" stroke-width="3.446" stroke="black" fill="none" stroke-linecap="round"></path><path d="M 630.000,335.000 C 626.000,339.000 626.265,339.234 622.000,343.000" stroke-width="3.398" stroke="black" fill="none" stroke-linecap="round"></path><path d="M 622.000,343.000 C 615.678,346.182 619.500,345.500 617.000,348.000" stroke-width="4.335" stroke="black" fill="none" stroke-linecap="round"></path><path d="M 617.000,348.000 C 623.085,353.090 619.678,351.682 630.000,354.000" stroke-width="4.011" stroke="black" fill="none" stroke-linecap="round"></path><path d="M 630.000,354.000 C 642.526,353.780 642.085,355.590 655.000,353.000" stroke-width="2.539" stroke="black" fill="none" stroke-linecap="round"></path><path d="M 655.000,353.000 C 658.838,353.384 658.526,352.780 662.000,352.000" stroke-width="3.360" stroke="black" fill="none" stroke-linecap="round"></path><path d="M 662.000,352.000 C 667.838,350.150 666.838,349.884 671.000,346.000" stroke-width="3.948" stroke="black" fill="none" stroke-linecap="round"></path><path d="M 671.000,346.000 C 675.319,338.775 675.838,339.650 678.000,331.000" stroke-width="3.038" stroke="black" fill="none" stroke-linecap="round"></path><path d="M 678.000,331.000 C 680.412,324.051 680.319,324.275 681.000,317.000" stroke-width="2.989" stroke="black" fill="none" stroke-linecap="round"></path><path d="M 681.000,317.000 C 680.663,311.976 681.412,312.051 680.000,307.000" stroke-width="3.301" stroke="black" fill="none" stroke-linecap="round"></path><path d="M 680.000,307.000 C 680.801,303.081 679.663,304.476 679.000,302.000" stroke-width="4.263" stroke="black" fill="none" stroke-linecap="round"></path><path d="M 679.000,302.000 C 674.435,300.723 675.801,300.081 670.000,301.000" stroke-width="4.714" stroke="black" fill="none" stroke-linecap="round"></path><path d="M 728.000,234.000 C 726.112,236.332 726.500,236.500 725.000,239.000" stroke-width="5.092" stroke="black" fill="none" stroke-linecap="round"></path><path d="M 725.000,239.000 C 723.883,242.469 723.612,242.332 723.000,246.000" stroke-width="4.226" stroke="black" fill="none" stroke-linecap="round"></path><path d="M 723.000,246.000 C 719.518,258.410 719.883,258.469 717.000,271.000" stroke-width="2.529" stroke="black" fill="none" stroke-linecap="round"></path><path d="M 717.000,271.000 C 715.968,278.496 715.518,278.410 715.000,286.000" stroke-width="2.772" stroke="black" fill="none" stroke-linecap="round"></path><path d="M 715.000,286.000 C 712.646,309.606 711.968,309.496 709.000,333.000" stroke-width="1.663" stroke="black" fill="none" stroke-linecap="round"></path><path d="M 709.000,333.000 C 706.000,348.000 706.646,348.106 703.000,363.000" stroke-width="1.842" stroke="black" fill="none" stroke-linecap="round"></path><path d="M 703.000,363.000 C 699.731,372.239 702.000,368.000 701.000,373.000" stroke-width="2.992" stroke="black" fill="none" stroke-linecap="round"></path><path d="M 701.000,373.000 C 704.500,369.500 702.231,373.739 708.000,366.000" stroke-width="4.177" stroke="black" fill="none" stroke-linecap="round"></path><path d="M 708.000,366.000 C 712.899,359.767 713.500,360.500 719.000,355.000" stroke-width="3.152" stroke="black" fill="none" stroke-linecap="round"></path><path d="M 719.000,355.000 C 730.404,348.997 728.899,347.267 740.000,341.000" stroke-width="2.473" stroke="black" fill="none" stroke-linecap="round"></path><path d="M 740.000,341.000 C 744.081,335.109 745.404,336.497 749.000,330.000" stroke-width="2.859" stroke="black" fill="none" stroke-linecap="round"></path><path d="M 749.000,330.000 C 756.857,321.033 757.081,321.609 766.000,314.000" stroke-width="3.150" stroke="black" fill="none" stroke-linecap="round"></path><path d="M 766.000,314.000 C 770.388,310.988 769.857,311.033 775.000,310.000" stroke-width="3.894" stroke="black" fill="none" stroke-linecap="round"></path><path d="M 775.000,310.000 C 778.485,309.210 777.388,309.488 780.000,311.000" stroke-width="4.542" stroke="black" fill="none" stroke-linecap="round"></path><path d="M 780.000,311.000 C 783.999,316.711 783.985,315.710 786.000,323.000" stroke-width="3.392" stroke="black" fill="none" stroke-linecap="round"></path><path d="M 786.000,323.000 C 786.687,327.991 787.499,327.711 787.000,333.000" stroke-width="3.436" stroke="black" fill="none" stroke-linecap="round"></path><path d="M 787.000,333.000 C 787.000,336.000 787.187,335.991 787.000,339.000" stroke-width="3.949" stroke="black" fill="none" stroke-linecap="round"></path><path d="M 787.000,339.000 C 787.000,347.000 787.000,347.000 787.000,355.000" stroke-width="3.835" stroke="black" fill="none" stroke-linecap="round"></path><path d="M 847.000,321.000 C 845.765,323.942 846.000,324.000 845.000,327.000" stroke-width="4.833" stroke="black" fill="none" stroke-linecap="round"></path><path d="M 845.000,327.000 C 844.411,329.987 844.265,329.942 844.000,333.000" stroke-width="4.328" stroke="black" fill="none" stroke-linecap="round"></path><path d="M 844.000,333.000 C 842.668,340.979 842.911,340.987 842.000,349.000" stroke-width="3.133" stroke="black" fill="none" stroke-linecap="round"></path><path d="M 842.000,349.000 C 842.000,353.000 841.668,352.979 842.000,357.000" stroke-width="3.587" stroke="black" fill="none" stroke-linecap="round"></path><path d="M 842.000,357.000 C 840.892,364.232 842.000,360.000 842.000,363.000" stroke-width="4.335" stroke="black" fill="none" stroke-linecap="round"></path><path d="M 842.000,363.000 C 845.587,354.308 845.392,359.232 851.000,347.000" stroke-width="4.265" stroke="black" fill="none" stroke-linecap="round"></path><path d="M 851.000,347.000 C 857.370,342.173 855.587,340.808 862.000,336.000" stroke-width="3.167" stroke="black" fill="none" stroke-linecap="round"></path><path d="M 862.000,336.000 C 866.883,327.428 867.870,328.173 872.000,319.000" stroke-width="2.751" stroke="black" fill="none" stroke-linecap="round"></path><path d="M 872.000,319.000 C 874.513,312.487 875.383,313.428 879.000,308.000" stroke-width="2.986" stroke="black" fill="none" stroke-linecap="round"></path><path d="M 879.000,308.000 C 883.680,304.328 883.013,303.987 889.000,302.000" stroke-width="3.168" stroke="black" fill="none" stroke-linecap="round"></path><path d="M 889.000,302.000 C 899.880,297.587 899.680,297.328 911.000,294.000" stroke-width="3.162" stroke="black" fill="none" stroke-linecap="round"></path><path d="M 911.000,294.000 C 915.460,292.252 915.380,292.587 920.000,292.000" stroke-width="3.533" stroke="black" fill="none" stroke-linecap="round"></path><path d="M 920.000,292.000 C 924.532,292.295 924.460,291.752 929.000,293.000" stroke-width="3.574" stroke="black" fill="none" stroke-linecap="round"></path><path d="M 929.000,293.000 C 936.068,291.451 934.032,293.795 939.000,295.000" stroke-width="3.476" stroke="black" fill="none" stroke-linecap="round"></path><path d="M 939.000,295.000 C 947.731,305.528 945.568,302.951 948.000,316.000" stroke-width="3.397" stroke="black" fill="none" stroke-linecap="round"></path><path d="M 948.000,316.000 C 944.164,325.077 948.231,325.028 940.000,334.000" stroke-width="2.802" stroke="black" fill="none" stroke-linecap="round"></path><path d="M 940.000,334.000 C 937.322,340.187 937.164,340.077 934.000,346.000" stroke-width="2.977" stroke="black" fill="none" stroke-linecap="round"></path><path d="M 934.000,346.000 C 930.191,350.132 931.322,350.687 928.000,355.000" stroke-width="3.285" stroke="black" fill="none" stroke-linecap="round"></path></svg>