<svg xmlns="http://www.w3.org/2000/svg" xmlns:xlink="http://www.w3.org/1999/xlink" viewBox="0 0 453 236" width="453" height="236"><path d="M 131.500,137.000 C 126.081,135.063 126.000,135.500 120.500,134.000" stroke-width="4.761" stroke="black" fill="none" stroke-linecap="round"></path><path d="M 120.500,134.000 C 115.298,134.263 115.581,133.063 110.500,133.000" stroke-width="4.767" stroke="black" fill="none" stroke-linecap="round"></path><path d="M 110.500,133.000 C 106.011,130.974 105.798,131.763 101.500,129.000" stroke-width="3.788" stroke="black" fill="none" stroke-linecap="round"></path><path d="M 101.500,129.000 C 98.015,127.464 98.011,127.474 94.500,126.000" stroke-width="4.304" stroke="black" fill="none" stroke-linecap="round"></path><path d="M 94.500,126.000 C 88.920,124.967 92.015,124.964 89.500,124.000" stroke-width="4.812" stroke="black" fill="none" stroke-linecap="round"></path><path d="M 89.500,124.000 C 93.645,122.814 90.420,122.467 97.500,121.000" stroke-width="5.062" stroke="black" fill="none" stroke-linecap="round"></path><path d="M 97.500,121.000 C 102.088,118.647 102.145,118.814 106.500,116.000" stroke-width="3.860" stroke="black" fill="none" stroke-linecap="round"></path><path d="M 106.500,116.000 C 111.972,112.455 112.088,112.647 117.500,109.000" stroke-width="3.360" stroke="black" fill="none" stroke-linecap="round"></path><path d="M 117.500,109.000 C 123.877,104.785 123.972,104.955 130.500,101.000" stroke-width="3.008" stroke="black" fill="none" stroke-linecap="round"></path><path d="M 130.500,101.000 C 137.900,96.800 137.877,96.785 145.500,93.000" stroke-width="2.868" stroke="black" fill="none" stroke-linecap="round"></path><path d="M 145.500,93.000 C 152.828,89.069 152.900,89.300 160.500,86.000" stroke-width="2.855" stroke="black" fill="none" stroke-linecap="round"></path><path d="M 160.500,86.000 C 168.030,83.586 167.828,83.069 175.500,81.000" stroke-width="2.837" stroke="black" fill="none" stroke-linecap="round"></path><path d="M 175.500,81.000 C 180.977,78.933 181.030,79.086 186.500,77.000" stroke-width="3.113" stroke="black" fill="none" stroke-linecap="round"></path><path d="M 186.500,77.000 C 190.930,75.219 190.977,75.433 195.500,74.000" stroke-width="3.880" stroke="black" fill="none" stroke-linecap="round"></path><path d="M 195.500,74.000 C 198.479,73.252 198.430,73.219 201.500,73.000" stroke-width="4.060" stroke="black" fill="none" stroke-linecap="round"></path><path d="M 201.500,73.000 C 207.283,71.697 204.479,72.752 207.500,73.000" stroke-width="4.539" stroke="black" fill="none" stroke-linecap="round"></path><path d="M 207.500,73.000 C 205.255,76.245 207.783,74.697 202.500,79.000" stroke-width="3.980" stroke="black" fill="none" stroke-linecap="round"></path><path d="M 202.500,79.000 C 197.127,83.141 197.755,83.745 192.500,88.000" stroke-width="3.284" stroke="black" fill="none" stroke-linecap="round"></path><path d="M 192.500,88.000 C 187.700,94.176 187.127,93.641 182.500,100.000" stroke-width="3.195" stroke="black" fill="none" stroke-linecap="round"></path><path d="M 182.500,100.000 C 174.752,107.781 175.200,108.176 167.500,116.000" stroke-width="2.571" stroke="black" fill="none" stroke-linecap="round"></path><path d="M 167.500,116.000 C 160.550,125.514 159.752,124.781 152.500,134.000" stroke-width="2.362" stroke="black" fill="none" stroke-linecap="round"></path><path d="M 152.500,134.000 C 141.858,144.904 142.050,145.014 130.500,155.000" stroke-width="2.049" stroke="black" fill="none" stroke-linecap="round"></path><path d="M 130.500,155.000 C 119.225,164.788 119.358,164.904 107.500,174.000" stroke-width="1.989" stroke="black" fill="none" stroke-linecap="round"></path><path d="M 107.500,174.000 C 98.233,181.341 98.225,181.288 88.500,188.000" stroke-width="2.232" stroke="black" fill="none" stroke-linecap="round"></path><path d="M 88.500,188.000 C 79.133,194.220 79.233,194.341 69.500,200.000" stroke-width="2.362" stroke="black" fill="none" stroke-linecap="round"></path><path d="M 69.500,200.000 C 56.810,208.165 56.633,207.720 43.500,215.000" stroke-width="2.742" stroke="black" fill="none" stroke-linecap="round"></path><path d="M 43.500,215.000 C 37.991,216.977 38.310,217.665 32.500,219.000" stroke-width="3.078" stroke="black" fill="none" stroke-linecap="round"></path><path d="M 32.500,219.000 C 28.603,220.860 28.491,220.477 24.500,222.000" stroke-width="3.950" stroke="black" fill="none" stroke-linecap="round"></path><path d="M 24.500,222.000 C 16.834,225.459 19.603,223.360 14.500,224.000" stroke-width="3.575" stroke="black" fill="none" stroke-linecap="round"></path><path d="M 14.500,224.000 C 14.393,219.809 12.834,222.959 16.500,217.000" stroke-width="4.415" stroke="black" fill="none" stroke-linecap="round"></path><path d="M 16.500,217.000 C 21.113,211.982 20.393,211.809 26.500,208.000" stroke-width="3.438" stroke="black" fill="none" stroke-linecap="round"></path><path d="M 26.500,208.000 C 32.935,203.890 32.613,203.482 39.500,200.000" stroke-width="3.152" stroke="black" fill="none" stroke-linecap="round"></path><path d="M 39.500,200.000 C 46.185,195.325 46.435,195.890 53.500,192.000" stroke-width="2.962" stroke="black" fill="none" stroke-linecap="round"></path><path d="M 53.500,192.000 C 63.000,188.500 62.685,187.825 72.500,185.000" stroke-width="2.734" stroke="black" fill="none" stroke-linecap="round"></path><path d="M 72.500,185.000 C 82.000,181.500 82.000,181.500 91.500,178.000" stroke-width="2.726" stroke="black" fill="none" stroke-linecap="round"></path><path d="M 91.500,178.000 C 101.070,174.680 101.000,174.500 110.500,171.000" stroke-width="2.413" stroke="black" fill="none" stroke-linecap="round"></path><path d="M 110.500,171.000 C 121.591,166.711 121.570,166.680 132.500,162.000" stroke-width="2.365" stroke="black" fill="none" stroke-linecap="round"></path><path d="M 132.500,162.000 C 143.448,156.883 143.591,157.211 154.500,152.000" stroke-width="2.277" stroke="black" fill="none" stroke-linecap="round"></path><path d="M 154.500,152.000 C 165.124,147.767 164.948,147.383 175.500,143.000" stroke-width="2.305" stroke="black" fill="none" stroke-linecap="round"></path><path d="M 175.500,143.000 C 183.561,139.117 183.624,139.267 191.500,135.000" stroke-width="2.540" stroke="black" fill="none" stroke-linecap="round"></path><path d="M 191.500,135.000 C 196.852,131.676 197.061,132.117 202.500,129.000" stroke-width="3.038" stroke="black" fill="none" stroke-linecap="round"></path><path d="M 202.500,129.000 C 206.637,127.783 206.352,127.176 210.500,126.000" stroke-width="3.500" stroke="black" fill="none" stroke-linecap="round"></path><path d="M 210.500,126.000 C 216.736,123.309 213.137,124.783 215.500,123.000" stroke-width="4.319" stroke="black" fill="none" stroke-linecap="round"></path><path d="M 215.500,123.000 C 208.863,122.776 212.736,122.309 202.500,124.000" stroke-width="4.162" stroke="black" fill="none" stroke-linecap="round"></path><path d="M 202.500,124.000 C 196.000,126.000 195.863,125.276 189.500,128.000" stroke-width="3.308" stroke="black" fill="none" stroke-linecap="round"></path><path d="M 189.500,128.000 C 182.833,129.564 183.000,130.000 176.500,132.000" stroke-width="3.116" stroke="black" fill="none" stroke-linecap="round"></path><path d="M 176.500,132.000 C 169.614,134.332 169.833,134.564 163.500,138.000" stroke-width="3.072" stroke="black" fill="none" stroke-linecap="round"></path><path d="M 163.500,138.000 C 154.783,143.717 154.614,143.332 146.500,150.000" stroke-width="2.605" stroke="black" fill="none" stroke-linecap="round"></path><path d="M 146.500,150.000 C 140.160,154.655 140.283,154.717 134.500,160.000" stroke-width="2.825" stroke="black" fill="none" stroke-linecap="round"></path><path d="M 134.500,160.000 C 131.025,163.212 131.160,163.155 128.500,167.000" stroke-width="3.307" stroke="black" fill="none" stroke-linecap="round"></path><path d="M 128.500,167.000 C 126.307,169.487 127.025,169.212 126.500,172.000" stroke-width="3.928" stroke="black" fill="none" stroke-linecap="round"></path><path d="M 126.500,172.000 C 126.440,178.251 126.807,175.987 129.500,180.000" stroke-width="4.291" stroke="black" fill="none" stroke-linecap="round"></path><path d="M 129.500,180.000 C 135.009,180.229 133.440,182.251 140.500,180.000" stroke-width="3.573" stroke="black" fill="none" stroke-linecap="round"></path><path d="M 140.500,180.000 C 147.177,180.317 147.009,179.729 153.500,179.000" stroke-width="3.228" stroke="black" fill="none" stroke-linecap="round"></path><path d="M 153.500,179.000 C 159.240,177.505 159.177,177.817 164.500,175.000" stroke-width="3.401" stroke="black" fill="none" stroke-linecap="round"></path><path d="M 164.500,175.000 C 169.709,172.294 169.740,172.505 174.500,169.000" stroke-width="3.355" stroke="black" fill="none" stroke-linecap="round"></path><path d="M 174.500,169.000 C 177.600,166.610 177.709,166.794 180.500,164.000" stroke-width="3.642" stroke="black" fill="none" stroke-linecap="round"></path><path d="M 180.500,164.000 C 182.624,162.111 182.600,162.110 184.500,160.000" stroke-width="3.987" stroke="black" fill="none" stroke-linecap="round"></path><path d="M 184.500,160.000 C 189.536,156.243 186.624,157.611 188.500,155.000" stroke-width="4.482" stroke="black" fill="none" stroke-linecap="round"></path><path d="M 188.500,155.000 C 183.839,153.315 187.036,153.243 179.500,154.000" stroke-width="4.675" stroke="black" fill="none" stroke-linecap="round"></path><path d="M 179.500,154.000 C 173.975,155.203 174.339,154.815 169.500,158.000" stroke-width="3.671" stroke="black" fill="none" stroke-linecap="round"></path><path d="M 169.500,158.000 C 162.155,162.079 165.975,160.203 163.500,164.000" stroke-width="4.216" stroke="black" fill="none" stroke-linecap="round"></path><path d="M 163.500,164.000 C 170.185,168.677 165.655,167.079 176.500,168.000" stroke-width="4.345" stroke="black" fill="none" stroke-linecap="round"></path><path d="M 176.500,168.000 C 184.100,164.700 184.185,167.177 191.500,161.000" stroke-width="3.247" stroke="black" fill="none" stroke-linecap="round"></path><path d="M 191.500,161.000 C 199.154,157.266 199.100,157.200 206.500,153.000" stroke-width="2.865" stroke="black" fill="none" stroke-linecap="round"></path><path d="M 206.500,153.000 C 214.654,148.231 214.654,148.266 222.500,143.000" stroke-width="2.660" stroke="black" fill="none" stroke-linecap="round"></path><path d="M 222.500,143.000 C 229.396,137.844 229.654,138.231 236.500,133.000" stroke-width="2.695" stroke="black" fill="none" stroke-linecap="round"></path><path d="M 236.500,133.000 C 244.500,128.000 240.396,130.344 244.500,128.000" stroke-width="3.235" stroke="black" fill="none" stroke-linecap="round"></path><path d="M 244.500,128.000 C 240.455,130.430 244.500,128.000 236.500,133.000" stroke-width="4.163" stroke="black" fill="none" stroke-linecap="round"></path><path d="M 236.500,133.000 C 230.387,136.845 230.455,136.930 224.500,141.000" stroke-width="3.310" stroke="black" fill="none" stroke-linecap="round"></path><path d="M 224.500,141.000 C 219.265,143.119 221.887,142.845 219.500,145.000" stroke-width="3.775" stroke="black" fill="none" stroke-linecap="round"></path><path d="M 219.500,145.000 C 222.182,148.052 219.765,147.119 225.500,149.000" stroke-width="4.602" stroke="black" fill="none" stroke-linecap="round"></path><path d="M 225.500,149.000 C 229.530,149.305 229.182,150.052 233.500,149.000" stroke-width="4.530" stroke="black" fill="none" stroke-linecap="round"></path><path d="M 233.500,149.000 C 236.007,148.534 236.030,148.805 238.500,148.000" stroke-width="4.342" stroke="black" fill="none" stroke-linecap="round"></path><path d="M 238.500,148.000 C 243.030,147.118 243.007,147.034 247.500,146.000" stroke-width="3.831" stroke="black" fill="none" stroke-linecap="round"></path><path d="M 247.500,146.000 C 250.937,144.548 251.030,145.118 254.500,144.000" stroke-width="3.993" stroke="black" fill="none" stroke-linecap="round"></path><path d="M 254.500,144.000 C 259.839,142.458 257.437,143.548 260.500,144.000" stroke-width="4.486" stroke="black" fill="none" stroke-linecap="round"></path><path d="M 260.500,144.000 C 259.972,148.219 261.339,145.958 257.500,151.000" stroke-width="4.047" stroke="black" fill="none" stroke-linecap="round"></path><path d="M 257.500,151.000 C 250.859,156.347 251.972,157.219 244.500,162.000" stroke-width="3.021" stroke="black" fill="none" stroke-linecap="round"></path><path d="M 244.500,162.000 C 239.007,166.261 241.859,164.347 239.500,167.000" stroke-width="3.630" stroke="black" fill="none" stroke-linecap="round"></path><path d="M 239.500,167.000 C 243.293,166.668 240.007,167.761 246.500,165.000" stroke-width="4.440" stroke="black" fill="none" stroke-linecap="round"></path><path d="M 246.500,165.000 C 255.435,159.390 255.793,160.168 264.500,154.000" stroke-width="2.808" stroke="black" fill="none" stroke-linecap="round"></path><path d="M 264.500,154.000 C 273.940,148.393 273.935,148.390 283.500,143.000" stroke-width="2.813" stroke="black" fill="none" stroke-linecap="round"></path><path d="M 283.500,143.000 C 293.699,137.839 293.440,137.393 303.500,132.000" stroke-width="2.447" stroke="black" fill="none" stroke-linecap="round"></path><path d="M 303.500,132.000 C 317.154,123.736 317.199,123.839 330.500,115.000" stroke-width="2.019" stroke="black" fill="none" stroke-linecap="round"></path><path d="M 330.500,115.000 C 344.824,105.946 344.654,105.736 358.500,96.000" stroke-width="1.865" stroke="black" fill="none" stroke-linecap="round"></path><path d="M 358.500,96.000 C 372.686,86.277 372.324,85.946 385.500,75.000" stroke-width="1.814" stroke="black" fill="none" stroke-linecap="round"></path><path d="M 385.500,75.000 C 397.000,63.500 397.686,64.277 408.500,52.000" stroke-width="1.842" stroke="black" fill="none" stroke-linecap="round"></path><path d="M 408.500,52.000 C 417.837,43.305 417.500,43.000 426.500,34.000" stroke-width="2.158" stroke="black" fill="none" stroke-linecap="round"></path><path d="M 426.500,34.000 C 431.245,28.673 431.337,28.805 435.500,23.000" stroke-width="2.674" stroke="black" fill="none" stroke-linecap="round"></path><path d="M 435.500,23.000 C 439.972,18.818 437.245,20.673 438.500,18.000" stroke-width="3.546" stroke="black" fill="none" stroke-linecap="round"></path><path d="M 438.500,18.000 C 432.002,16.239 435.472,16.318 426.500,18.000" stroke-width="3.932" stroke="black" fill="none" stroke-linecap="round"></path><path d="M 426.500,18.000 C 419.810,21.718 419.502,20.239 413.500,26.000" stroke-width="3.200" stroke="black" fill="none" stroke-linecap="round"></path><path d="M 413.500,26.000 C 405.595,31.013 405.810,31.218 398.500,37.000" stroke-width="2.822" stroke="black" fill="none" stroke-linecap="round"></path><path d="M 398.500,37.000 C 389.524,44.542 389.595,44.513 381.500,53.000" stroke-width="2.490" stroke="black" fill="none" stroke-linecap="round"></path><path d="M 381.500,53.000 C 371.552,64.546 371.024,64.042 361.500,76.000" stroke-width="2.075" stroke="black" fill="none" stroke-linecap="round"></path><path d="M 361.500,76.000 C 349.945,88.952 350.052,89.046 338.500,102.000" stroke-width="1.911" stroke="black" fill="none" stroke-linecap="round"></path><path d="M 338.500,102.000 C 324.788,117.320 324.945,117.452 311.500,133.000" stroke-width="1.717" stroke="black" fill="none" stroke-linecap="round"></path><path d="M 311.500,133.000 C 300.214,147.183 299.788,146.820 288.500,161.000" stroke-width="1.721" stroke="black" fill="none" stroke-linecap="round"></path><path d="M 288.500,161.000 C 280.361,169.881 280.714,170.183 272.500,179.000" stroke-width="2.057" stroke="black" fill="none" stroke-linecap="round"></path><path d="M 272.500,179.000 C 264.879,184.829 267.861,184.381 263.500,190.000" stroke-width="2.672" stroke="black" fill="none" stroke-linecap="round"></path><path d="M 263.500,190.000 C 265.505,193.728 262.879,192.329 268.500,194.000" stroke-width="3.963" stroke="black" fill="none" stroke-linecap="round"></path><path d="M 268.500,194.000 C 276.985,192.852 276.505,194.728 285.500,192.000" stroke-width="3.073" stroke="black" fill="none" stroke-linecap="round"></path><path d="M 285.500,192.000 C 297.004,191.045 296.985,190.852 308.500,190.000" stroke-width="2.490" stroke="black" fill="none" stroke-linecap="round"></path><path d="M 308.500,190.000 C 319.034,189.276 319.004,189.045 329.500,188.000" stroke-width="2.445" stroke="black" fill="none" stroke-linecap="round"></path><path d="M 329.500,188.000 C 339.551,186.786 339.534,186.776 349.500,185.000" stroke-width="2.530" stroke="black" fill="none" stroke-linecap="round"></path><path d="M 349.500,185.000 C 359.155,183.549 359.051,183.286 368.500,181.000" stroke-width="2.596" stroke="black" fill="none" stroke-linecap="round"></path><path d="M 368.500,181.000 C 375.541,178.609 375.655,179.049 382.500,176.000" stroke-width="2.812" stroke="black" fill="none" stroke-linecap="round"></path><path d="M 382.500,176.000 C 387.634,174.271 387.541,174.109 392.500,172.000" stroke-width="3.226" stroke="black" fill="none" stroke-linecap="round"></path><path d="M 392.500,172.000 C 397.500,169.000 395.134,170.771 397.500,169.000" stroke-width="3.805" stroke="black" fill="none" stroke-linecap="round"></path><path d="M 397.500,169.000 C 394.689,170.085 397.500,169.000 392.500,172.000" stroke-width="4.426" stroke="black" fill="none" stroke-linecap="round"></path><path d="M 392.500,172.000 C 379.558,185.162 378.689,184.085 365.500,197.000" stroke-width="2.090" stroke="black" fill="none" stroke-linecap="round"></path></svg>