<svg xmlns="http://www.w3.org/2000/svg" xmlns:xlink="http://www.w3.org/1999/xlink" viewBox="0 0 492 236" width="492" height="236"><path d="M 114.000,158.000 C 110.175,155.566 110.000,156.000 106.000,154.000" stroke-width="4.461" stroke="black" fill="none" stroke-linecap="round"></path><path d="M 106.000,154.000 C 97.691,152.146 98.175,151.066 90.000,149.000" stroke-width="4.328" stroke="black" fill="none" stroke-linecap="round"></path><path d="M 90.000,149.000 C 87.161,146.702 86.691,147.646 84.000,145.000" stroke-width="4.002" stroke="black" fill="none" stroke-linecap="round"></path><path d="M 84.000,145.000 C 80.515,143.464 80.661,143.202 77.000,142.000" stroke-width="3.967" stroke="black" fill="none" stroke-linecap="round"></path><path d="M 77.000,142.000 C 74.449,141.113 74.515,140.964 72.000,140.000" stroke-width="4.176" stroke="black" fill="none" stroke-linecap="round"></path><path d="M 72.000,140.000 C 64.862,138.300 68.949,138.613 66.000,137.000" stroke-width="4.497" stroke="black" fill="none" stroke-linecap="round"></path><path d="M 66.000,137.000 C 72.443,134.342 68.362,134.300 79.000,132.000" stroke-width="4.608" stroke="black" fill="none" stroke-linecap="round"></path><path d="M 79.000,132.000 C 86.621,129.821 86.443,129.342 94.000,127.000" stroke-width="3.346" stroke="black" fill="none" stroke-linecap="round"></path><path d="M 94.000,127.000 C 103.583,123.185 103.621,123.321 113.000,119.000" stroke-width="2.671" stroke="black" fill="none" stroke-linecap="round"></path><path d="M 113.000,119.000 C 121.440,114.866 121.583,115.185 130.000,111.000" stroke-width="2.672" stroke="black" fill="none" stroke-linecap="round"></path><path d="M 130.000,111.000 C 137.016,108.037 136.940,107.866 144.000,105.000" stroke-width="2.872" stroke="black" fill="none" stroke-linecap="round"></path><path d="M 144.000,105.000 C 149.247,100.423 148.516,103.037 153.000,101.000" stroke-width="3.273" stroke="black" fill="none" stroke-linecap="round"></path><path d="M 153.000,101.000 C 157.980,104.224 155.747,101.423 157.000,107.000" stroke-width="4.252" stroke="black" fill="none" stroke-linecap="round"></path><path d="M 157.000,107.000 C 151.700,112.256 154.980,112.724 147.000,118.000" stroke-width="3.358" stroke="black" fill="none" stroke-linecap="round"></path><path d="M 147.000,118.000 C 142.767,123.349 142.700,123.256 139.000,129.000" stroke-width="3.129" stroke="black" fill="none" stroke-linecap="round"></path><path d="M 139.000,129.000 C 135.467,132.268 136.767,132.349 135.000,136.000" stroke-width="3.622" stroke="black" fill="none" stroke-linecap="round"></path><path d="M 135.000,136.000 C 133.888,143.133 134.467,140.268 137.000,145.000" stroke-width="4.182" stroke="black" fill="none" stroke-linecap="round"></path><path d="M 137.000,145.000 C 143.610,145.940 141.388,147.633 150.000,145.000" stroke-width="3.364" stroke="black" fill="none" stroke-linecap="round"></path><path d="M 150.000,145.000 C 160.708,143.167 160.610,143.440 171.000,140.000" stroke-width="2.621" stroke="black" fill="none" stroke-linecap="round"></path><path d="M 171.000,140.000 C 179.972,136.425 180.208,137.167 189.000,133.000" stroke-width="2.630" stroke="black" fill="none" stroke-linecap="round"></path><path d="M 189.000,133.000 C 194.428,130.741 194.472,130.925 200.000,129.000" stroke-width="3.034" stroke="black" fill="none" stroke-linecap="round"></path><path d="M 200.000,129.000 C 204.530,126.434 202.428,128.241 205.000,128.000" stroke-width="3.837" stroke="black" fill="none" stroke-linecap="round"></path><path d="M 205.000,128.000 C 204.643,133.742 206.030,131.434 203.000,139.000" stroke-width="4.339" stroke="black" fill="none" stroke-linecap="round"></path><path d="M 203.000,139.000 C 198.089,143.213 202.143,141.742 200.000,144.000" stroke-width="4.232" stroke="black" fill="none" stroke-linecap="round"></path><path d="M 200.000,144.000 C 210.175,146.958 206.589,146.713 220.000,146.000" stroke-width="4.076" stroke="black" fill="none" stroke-linecap="round"></path><path d="M 220.000,146.000 C 230.460,142.849 230.675,144.958 241.000,140.000" stroke-width="2.718" stroke="black" fill="none" stroke-linecap="round"></path><path d="M 241.000,140.000 C 248.943,137.726 248.960,137.849 257.000,136.000" stroke-width="2.813" stroke="black" fill="none" stroke-linecap="round"></path><path d="M 257.000,136.000 C 262.967,134.603 262.943,134.726 269.000,134.000" stroke-width="3.123" stroke="black" fill="none" stroke-linecap="round"></path><path d="M 269.000,134.000 C 273.000,134.000 272.967,133.603 277.000,134.000" stroke-width="3.584" stroke="black" fill="none" stroke-linecap="round"></path><path d="M 277.000,134.000 C 282.012,132.506 281.000,134.000 285.000,134.000" stroke-width="4.196" stroke="black" fill="none" stroke-linecap="round"></path><path d="M 285.000,134.000 C 284.737,138.246 287.012,135.006 287.000,139.000" stroke-width="4.611" stroke="black" fill="none" stroke-linecap="round"></path><path d="M 287.000,139.000 C 294.990,139.805 293.737,141.246 303.000,140.000" stroke-width="3.971" stroke="black" fill="none" stroke-linecap="round"></path><path d="M 303.000,140.000 C 315.514,140.446 315.490,140.305 328.000,140.000" stroke-width="2.682" stroke="black" fill="none" stroke-linecap="round"></path><path d="M 328.000,140.000 C 343.492,138.846 343.514,139.446 359.000,138.000" stroke-width="2.217" stroke="black" fill="none" stroke-linecap="round"></path><path d="M 359.000,138.000 C 370.995,137.255 370.992,137.346 383.000,137.000" stroke-width="2.239" stroke="black" fill="none" stroke-linecap="round"></path><path d="M 383.000,137.000 C 394.500,137.000 394.495,136.755 406.000,137.000" stroke-width="2.287" stroke="black" fill="none" stroke-linecap="round"></path><path d="M 406.000,137.000 C 413.500,137.000 413.500,137.000 421.000,137.000" stroke-width="2.783" stroke="black" fill="none" stroke-linecap="round"></path><path d="M 421.000,137.000 C 426.518,136.711 426.500,137.000 432.000,137.000" stroke-width="3.197" stroke="black" fill="none" stroke-linecap="round"></path><path d="M 432.000,137.000 C 436.018,137.387 436.018,137.211 440.000,138.000" stroke-width="3.606" stroke="black" fill="none" stroke-linecap="round"></path><path d="M 440.000,138.000 C 442.500,138.500 442.518,138.387 445.000,139.000" stroke-width="4.044" stroke="black" fill="none" stroke-linecap="round"></path><path d="M 445.000,139.000 C 450.230,139.770 447.500,139.500 450.000,140.000" stroke-width="4.602" stroke="black" fill="none" stroke-linecap="round"></path><path d="M 450.000,140.000 C 447.000,140.000 449.730,140.270 444.000,140.000" stroke-width="4.858" stroke="black" fill="none" stroke-linecap="round"></path><path d="M 444.000,140.000 C 436.485,139.626 436.500,140.000 429.000,140.000" stroke-width="3.378" stroke="black" fill="none" stroke-linecap="round"></path><path d="M 429.000,140.000 C 416.438,140.473 416.485,140.626 404.000,142.000" stroke-width="2.449" stroke="black" fill="none" stroke-linecap="round"></path><path d="M 404.000,142.000 C 388.043,144.812 387.938,143.973 372.000,147.000" stroke-width="2.066" stroke="black" fill="none" stroke-linecap="round"></path><path d="M 372.000,147.000 C 355.062,150.052 355.043,149.312 338.000,151.000" stroke-width="2.025" stroke="black" fill="none" stroke-linecap="round"></path><path d="M 338.000,151.000 C 319.000,151.000 319.062,152.052 300.000,151.000" stroke-width="1.760" stroke="black" fill="none" stroke-linecap="round"></path><path d="M 300.000,151.000 C 280.484,151.655 280.500,151.000 261.000,151.000" stroke-width="1.672" stroke="black" fill="none" stroke-linecap="round"></path><path d="M 261.000,151.000 C 221.010,148.755 220.984,149.655 181.000,147.000" stroke-width="1.675" stroke="black" fill="none" stroke-linecap="round"></path><path d="M 181.000,147.000 C 164.003,146.266 164.010,146.255 147.000,146.000" stroke-width="1.760" stroke="black" fill="none" stroke-linecap="round"></path><path d="M 147.000,146.000 C 132.000,146.000 132.003,145.766 117.000,146.000" stroke-width="1.893" stroke="black" fill="none" stroke-linecap="round"></path><path d="M 117.000,146.000 C 107.500,146.000 107.500,146.000 98.000,146.000" stroke-width="2.414" stroke="black" fill="none" stroke-linecap="round"></path><path d="M 98.000,146.000 C 90.000,146.000 90.000,146.000 82.000,146.000" stroke-width="2.783" stroke="black" fill="none" stroke-linecap="round"></path><path d="M 82.000,146.000 C 75.000,146.000 75.000,146.000 68.000,146.000" stroke-width="2.931" stroke="black" fill="none" stroke-linecap="round"></path><path d="M 68.000,146.000 C 63.500,146.000 63.500,146.000 59.000,146.000" stroke-width="3.369" stroke="black" fill="none" stroke-linecap="round"></path><path d="M 59.000,146.000 C 55.482,145.751 55.500,146.000 52.000,146.000" stroke-width="3.778" stroke="black" fill="none" stroke-linecap="round"></path></svg>