<svg xmlns="http://www.w3.org/2000/svg" xmlns:xlink="http://www.w3.org/1999/xlink" viewBox="0 0 1460 590" width="1460" height="590"><path d="M 685.000,374.000 C 678.027,371.423 678.000,371.500 671.000,369.000" stroke-width="4.101" stroke="black" fill="none" stroke-linecap="round"></path><path d="M 671.000,369.000 C 649.081,361.250 649.027,361.423 627.000,354.000" stroke-width="1.859" stroke="black" fill="none" stroke-linecap="round"></path><path d="M 627.000,354.000 C 615.509,350.471 615.581,350.250 604.000,347.000" stroke-width="2.115" stroke="black" fill="none" stroke-linecap="round"></path><path d="M 604.000,347.000 C 584.032,340.892 584.009,340.971 564.000,335.000" stroke-width="1.748" stroke="black" fill="none" stroke-linecap="round"></path><path d="M 564.000,335.000 C 549.676,331.863 550.032,330.892 536.000,327.000" stroke-width="1.914" stroke="black" fill="none" stroke-linecap="round"></path><path d="M 536.000,327.000 C 526.983,323.790 527.176,323.863 519.000,319.000" stroke-width="2.388" stroke="black" fill="none" stroke-linecap="round"></path><path d="M 519.000,319.000 C 514.491,315.957 514.483,316.290 511.000,312.000" stroke-width="3.005" stroke="black" fill="none" stroke-linecap="round"></path><path d="M 511.000,312.000 C 507.227,307.163 506.991,307.457 504.000,302.000" stroke-width="3.133" stroke="black" fill="none" stroke-linecap="round"></path><path d="M 504.000,302.000 C 501.000,299.201 502.227,299.163 501.000,296.000" stroke-width="3.713" stroke="black" fill="none" stroke-linecap="round"></path><path d="M 501.000,296.000 C 498.917,286.201 501.000,288.701 504.000,281.000" stroke-width="3.152" stroke="black" fill="none" stroke-linecap="round"></path><path d="M 504.000,281.000 C 521.306,258.787 520.417,264.201 544.000,252.000" stroke-width="1.656" stroke="black" fill="none" stroke-linecap="round"></path><path d="M 544.000,252.000 C 577.827,246.573 574.806,242.787 611.000,249.000" stroke-width="1.255" stroke="black" fill="none" stroke-linecap="round"></path><path d="M 611.000,249.000 C 639.944,251.923 639.327,251.073 667.000,261.000" stroke-width="1.278" stroke="black" fill="none" stroke-linecap="round"></path><path d="M 667.000,261.000 C 716.211,281.850 717.444,277.923 766.000,301.000" stroke-width="1.125" stroke="black" fill="none" stroke-linecap="round"></path><path d="M 766.000,301.000 C 774.940,303.735 774.711,304.350 784.000,306.000" stroke-width="1.618" stroke="black" fill="none" stroke-linecap="round"></path><path d="M 784.000,306.000 C 799.100,309.126 798.940,309.735 814.000,313.000" stroke-width="1.868" stroke="black" fill="none" stroke-linecap="round"></path><path d="M 814.000,313.000 C 824.041,315.870 824.100,315.626 834.000,319.000" stroke-width="2.235" stroke="black" fill="none" stroke-linecap="round"></path><path d="M 834.000,319.000 C 841.442,321.700 841.541,321.370 849.000,324.000" stroke-width="2.671" stroke="black" fill="none" stroke-linecap="round"></path><path d="M 849.000,324.000 C 853.341,324.311 852.942,325.200 857.000,326.000" stroke-width="3.365" stroke="black" fill="none" stroke-linecap="round"></path><path d="M 857.000,326.000 C 859.750,327.750 859.841,327.311 862.000,330.000" stroke-width="3.797" stroke="black" fill="none" stroke-linecap="round"></path><path d="M 862.000,330.000 C 868.229,333.260 864.250,332.250 866.000,335.000" stroke-width="4.420" stroke="black" fill="none" stroke-linecap="round"></path><path d="M 866.000,335.000 C 844.554,350.771 847.729,349.260 821.000,362.000" stroke-width="1.735" stroke="black" fill="none" stroke-linecap="round"></path><path d="M 821.000,362.000 C 800.689,369.614 801.554,371.271 780.000,376.000" stroke-width="1.627" stroke="black" fill="none" stroke-linecap="round"></path><path d="M 780.000,376.000 C 760.416,383.968 760.189,382.114 740.000,387.000" stroke-width="1.584" stroke="black" fill="none" stroke-linecap="round"></path><path d="M 740.000,387.000 C 709.452,390.642 709.916,391.468 679.000,391.000" stroke-width="1.313" stroke="black" fill="none" stroke-linecap="round"></path><path d="M 679.000,391.000 C 666.968,389.710 666.952,391.142 655.000,388.000" stroke-width="1.807" stroke="black" fill="none" stroke-linecap="round"></path><path d="M 655.000,388.000 C 648.815,388.407 649.468,387.210 644.000,386.000" stroke-width="2.686" stroke="black" fill="none" stroke-linecap="round"></path><path d="M 644.000,386.000 C 634.694,383.049 638.815,383.407 635.000,378.000" stroke-width="3.552" stroke="black" fill="none" stroke-linecap="round"></path><path d="M 635.000,378.000 C 637.180,362.922 635.694,366.549 646.000,353.000" stroke-width="2.446" stroke="black" fill="none" stroke-linecap="round"></path><path d="M 646.000,353.000 C 661.613,332.451 661.180,335.922 683.000,324.000" stroke-width="1.691" stroke="black" fill="none" stroke-linecap="round"></path><path d="M 683.000,324.000 C 726.031,306.702 723.613,307.951 770.000,304.000" stroke-width="1.125" stroke="black" fill="none" stroke-linecap="round"></path><path d="M 770.000,304.000 C 816.492,305.598 815.531,301.202 862.000,313.000" stroke-width="1.125" stroke="black" fill="none" stroke-linecap="round"></path><path d="M 862.000,313.000 C 899.204,321.251 899.492,319.098 936.000,331.000" stroke-width="1.125" stroke="black" fill="none" stroke-linecap="round"></path><path d="M 936.000,331.000 C 957.466,337.619 957.704,336.751 979.000,344.000" stroke-width="1.321" stroke="black" fill="none" stroke-linecap="round"></path><path d="M 979.000,344.000 C 984.487,345.549 984.466,345.619 990.000,347.000" stroke-width="2.272" stroke="black" fill="none" stroke-linecap="round"></path><path d="M 990.000,347.000 C 993.943,348.459 993.987,348.049 998.000,349.000" stroke-width="3.156" stroke="black" fill="none" stroke-linecap="round"></path><path d="M 998.000,349.000 C 1001.529,349.289 1001.443,349.459 1005.000,349.000" stroke-width="3.694" stroke="black" fill="none" stroke-linecap="round"></path><path d="M 1005.000,349.000 C 1008.144,349.704 1007.529,348.789 1010.000,348.000" stroke-width="4.446" stroke="black" fill="none" stroke-linecap="round"></path><path d="M 1010.000,348.000 C 1031.729,325.721 1032.644,327.204 1054.000,304.000" stroke-width="4.566" stroke="black" fill="none" stroke-linecap="round"></path><path d="M 1054.000,304.000 C 1071.071,284.770 1072.229,286.221 1091.000,269.000" stroke-width="1.706" stroke="black" fill="none" stroke-linecap="round"></path><path d="M 1091.000,269.000 C 1128.545,238.567 1128.571,239.270 1169.000,213.000" stroke-width="1.125" stroke="black" fill="none" stroke-linecap="round"></path><path d="M 1169.000,213.000 C 1192.760,201.983 1191.045,199.067 1216.000,190.000" stroke-width="1.217" stroke="black" fill="none" stroke-linecap="round"></path><path d="M 1216.000,190.000 C 1224.641,185.225 1224.760,185.483 1233.000,180.000" stroke-width="1.907" stroke="black" fill="none" stroke-linecap="round"></path><path d="M 1233.000,180.000 C 1240.769,175.328 1240.641,175.225 1248.000,170.000" stroke-width="2.417" stroke="black" fill="none" stroke-linecap="round"></path><path d="M 1248.000,170.000 C 1251.211,168.367 1250.269,168.328 1252.000,166.000" stroke-width="3.714" stroke="black" fill="none" stroke-linecap="round"></path><path d="M 1252.000,166.000 C 1253.050,162.230 1252.711,163.867 1251.000,161.000" stroke-width="4.123" stroke="black" fill="none" stroke-linecap="round"></path><path d="M 1251.000,161.000 C 1239.712,153.119 1240.550,154.730 1227.000,151.000" stroke-width="2.504" stroke="black" fill="none" stroke-linecap="round"></path><path d="M 1227.000,151.000 C 1188.083,145.850 1188.712,144.619 1149.000,144.000" stroke-width="1.223" stroke="black" fill="none" stroke-linecap="round"></path><path d="M 1149.000,144.000 C 1103.455,144.653 1103.583,141.850 1058.000,143.000" stroke-width="1.125" stroke="black" fill="none" stroke-linecap="round"></path><path d="M 1058.000,143.000 C 1020.937,141.223 1020.955,141.653 984.000,138.000" stroke-width="1.125" stroke="black" fill="none" stroke-linecap="round"></path><path d="M 984.000,138.000 C 946.578,133.077 946.437,134.723 909.000,130.000" stroke-width="1.125" stroke="black" fill="none" stroke-linecap="round"></path><path d="M 909.000,130.000 C 860.942,124.335 861.078,126.077 813.000,124.000" stroke-width="1.125" stroke="black" fill="none" stroke-linecap="round"></path><path d="M 813.000,124.000 C 789.404,125.837 789.442,123.835 766.000,129.000" stroke-width="1.183" stroke="black" fill="none" stroke-linecap="round"></path><path d="M 766.000,129.000 C 752.394,131.024 752.404,130.837 739.000,134.000" stroke-width="1.727" stroke="black" fill="none" stroke-linecap="round"></path><path d="M 739.000,134.000 C 725.332,136.969 725.394,137.024 712.000,141.000" stroke-width="1.991" stroke="black" fill="none" stroke-linecap="round"></path><path d="M 712.000,141.000 C 703.989,143.970 703.832,143.469 696.000,147.000" stroke-width="2.499" stroke="black" fill="none" stroke-linecap="round"></path><path d="M 696.000,147.000 C 689.444,149.364 689.489,149.470 683.000,152.000" stroke-width="2.834" stroke="black" fill="none" stroke-linecap="round"></path><path d="M 683.000,152.000 C 678.584,154.217 678.444,153.864 674.000,156.000" stroke-width="3.307" stroke="black" fill="none" stroke-linecap="round"></path><path d="M 674.000,156.000 C 667.757,159.919 669.584,157.717 665.000,159.000" stroke-width="3.514" stroke="black" fill="none" stroke-linecap="round"></path><path d="M 665.000,159.000 C 663.757,155.485 663.257,158.419 665.000,153.000" stroke-width="4.532" stroke="black" fill="none" stroke-linecap="round"></path><path d="M 665.000,153.000 C 670.445,144.780 666.757,149.485 671.000,147.000" stroke-width="4.472" stroke="black" fill="none" stroke-linecap="round"></path><path d="M 671.000,147.000 C 671.982,158.564 672.445,152.780 669.000,169.000" stroke-width="4.057" stroke="black" fill="none" stroke-linecap="round"></path><path d="M 669.000,169.000 C 663.584,178.813 665.982,179.564 659.000,189.000" stroke-width="2.686" stroke="black" fill="none" stroke-linecap="round"></path><path d="M 659.000,189.000 C 654.312,198.763 654.584,198.813 651.000,209.000" stroke-width="2.539" stroke="black" fill="none" stroke-linecap="round"></path><path d="M 651.000,209.000 C 644.075,233.023 643.312,232.763 637.000,257.000" stroke-width="1.584" stroke="black" fill="none" stroke-linecap="round"></path><path d="M 637.000,257.000 C 633.914,263.301 635.075,263.523 633.000,270.000" stroke-width="2.419" stroke="black" fill="none" stroke-linecap="round"></path><path d="M 633.000,270.000 C 631.775,285.493 630.914,285.301 631.000,301.000" stroke-width="2.101" stroke="black" fill="none" stroke-linecap="round"></path><path d="M 631.000,301.000 C 629.722,305.910 630.775,305.493 631.000,310.000" stroke-width="2.966" stroke="black" fill="none" stroke-linecap="round"></path></svg>