<svg xmlns="http://www.w3.org/2000/svg" xmlns:xlink="http://www.w3.org/1999/xlink" viewBox="0 0 1460 590" width="1460" height="590"><path d="M 717.000,346.000 C 704.707,345.066 705.000,344.000 693.000,342.000" stroke-width="4.658" stroke="black" fill="none" stroke-linecap="round"></path><path d="M 693.000,342.000 C 684.033,338.413 683.707,339.566 675.000,335.000" stroke-width="2.949" stroke="black" fill="none" stroke-linecap="round"></path><path d="M 675.000,335.000 C 661.467,330.087 661.533,329.913 648.000,325.000" stroke-width="2.222" stroke="black" fill="none" stroke-linecap="round"></path><path d="M 648.000,325.000 C 639.147,321.049 638.967,321.587 630.000,318.000" stroke-width="2.495" stroke="black" fill="none" stroke-linecap="round"></path><path d="M 630.000,318.000 C 622.171,316.868 622.647,315.549 615.000,314.000" stroke-width="2.736" stroke="black" fill="none" stroke-linecap="round"></path><path d="M 615.000,314.000 C 604.891,309.206 604.671,309.868 595.000,304.000" stroke-width="3.165" stroke="black" fill="none" stroke-linecap="round"></path><path d="M 595.000,304.000 C 586.000,299.000 585.891,299.206 577.000,294.000" stroke-width="2.636" stroke="black" fill="none" stroke-linecap="round"></path><path d="M 577.000,294.000 C 572.469,291.554 572.500,291.500 568.000,289.000" stroke-width="3.189" stroke="black" fill="none" stroke-linecap="round"></path><path d="M 568.000,289.000 C 565.638,287.199 565.469,287.554 563.000,286.000" stroke-width="3.895" stroke="black" fill="none" stroke-linecap="round"></path><path d="M 563.000,286.000 C 554.808,284.959 560.138,284.699 557.000,284.000" stroke-width="4.438" stroke="black" fill="none" stroke-linecap="round"></path><path d="M 557.000,284.000 C 575.816,277.342 570.808,277.959 595.000,272.000" stroke-width="4.455" stroke="black" fill="none" stroke-linecap="round"></path><path d="M 595.000,272.000 C 615.598,267.369 615.316,266.342 636.000,262.000" stroke-width="1.923" stroke="black" fill="none" stroke-linecap="round"></path><path d="M 636.000,262.000 C 653.355,256.446 653.598,257.369 671.000,252.000" stroke-width="1.774" stroke="black" fill="none" stroke-linecap="round"></path><path d="M 671.000,252.000 C 716.811,240.008 716.855,240.446 763.000,230.000" stroke-width="1.125" stroke="black" fill="none" stroke-linecap="round"></path><path d="M 763.000,230.000 C 776.912,226.927 776.811,227.008 791.000,226.000" stroke-width="1.531" stroke="black" fill="none" stroke-linecap="round"></path><path d="M 791.000,226.000 C 815.064,224.135 814.912,224.427 839.000,225.000" stroke-width="1.441" stroke="black" fill="none" stroke-linecap="round"></path><path d="M 839.000,225.000 C 856.685,226.114 856.564,225.635 874.000,229.000" stroke-width="1.736" stroke="black" fill="none" stroke-linecap="round"></path><path d="M 874.000,229.000 C 880.666,230.587 880.685,230.114 887.000,233.000" stroke-width="2.481" stroke="black" fill="none" stroke-linecap="round"></path><path d="M 887.000,233.000 C 890.917,235.185 891.166,234.587 895.000,237.000" stroke-width="3.175" stroke="black" fill="none" stroke-linecap="round"></path><path d="M 895.000,237.000 C 900.093,238.792 899.917,239.185 905.000,241.000" stroke-width="3.304" stroke="black" fill="none" stroke-linecap="round"></path><path d="M 905.000,241.000 C 909.899,243.733 910.093,243.292 915.000,246.000" stroke-width="3.309" stroke="black" fill="none" stroke-linecap="round"></path><path d="M 915.000,246.000 C 918.978,247.563 918.899,247.733 923.000,249.000" stroke-width="4.059" stroke="black" fill="none" stroke-linecap="round"></path><path d="M 923.000,249.000 C 927.553,248.588 925.978,250.063 929.000,251.000" stroke-width="4.040" stroke="black" fill="none" stroke-linecap="round"></path><path d="M 929.000,251.000 C 934.352,258.356 932.053,256.088 932.000,264.000" stroke-width="4.482" stroke="black" fill="none" stroke-linecap="round"></path><path d="M 932.000,264.000 C 924.281,276.719 926.852,276.356 914.000,287.000" stroke-width="2.468" stroke="black" fill="none" stroke-linecap="round"></path><path d="M 914.000,287.000 C 895.361,302.842 896.781,304.219 877.000,319.000" stroke-width="1.596" stroke="black" fill="none" stroke-linecap="round"></path><path d="M 877.000,319.000 C 858.104,336.117 857.861,335.842 839.000,353.000" stroke-width="1.458" stroke="black" fill="none" stroke-linecap="round"></path><path d="M 839.000,353.000 C 814.830,373.818 815.104,374.117 791.000,395.000" stroke-width="1.730" stroke="black" fill="none" stroke-linecap="round"></path><path d="M 791.000,395.000 C 787.667,397.740 787.830,397.818 785.000,401.000" stroke-width="2.778" stroke="black" fill="none" stroke-linecap="round"></path><path d="M 785.000,401.000 C 783.395,403.442 783.167,403.240 782.000,406.000" stroke-width="3.635" stroke="black" fill="none" stroke-linecap="round"></path><path d="M 782.000,406.000 C 777.168,409.844 780.395,408.942 779.000,412.000" stroke-width="3.859" stroke="black" fill="none" stroke-linecap="round"></path><path d="M 779.000,412.000 C 787.650,423.919 785.668,419.844 799.000,426.000" stroke-width="3.430" stroke="black" fill="none" stroke-linecap="round"></path><path d="M 799.000,426.000 C 819.172,425.663 817.650,429.419 839.000,423.000" stroke-width="1.978" stroke="black" fill="none" stroke-linecap="round"></path><path d="M 839.000,423.000 C 852.427,419.627 852.672,421.163 866.000,417.000" stroke-width="2.090" stroke="black" fill="none" stroke-linecap="round"></path><path d="M 866.000,417.000 C 883.458,413.722 883.427,413.627 901.000,411.000" stroke-width="1.894" stroke="black" fill="none" stroke-linecap="round"></path><path d="M 901.000,411.000 C 912.462,409.073 912.458,409.222 924.000,408.000" stroke-width="2.159" stroke="black" fill="none" stroke-linecap="round"></path><path d="M 924.000,408.000 C 933.996,407.323 933.962,407.073 944.000,407.000" stroke-width="2.439" stroke="black" fill="none" stroke-linecap="round"></path><path d="M 944.000,407.000 C 949.512,407.305 949.496,406.823 955.000,407.000" stroke-width="3.003" stroke="black" fill="none" stroke-linecap="round"></path><path d="M 955.000,407.000 C 967.488,405.695 967.512,406.305 980.000,405.000" stroke-width="2.384" stroke="black" fill="none" stroke-linecap="round"></path><path d="M 980.000,405.000 C 985.500,405.000 985.488,404.695 991.000,405.000" stroke-width="3.023" stroke="black" fill="none" stroke-linecap="round"></path><path d="M 991.000,405.000 C 998.000,405.000 998.000,405.000 1005.000,405.000" stroke-width="3.066" stroke="black" fill="none" stroke-linecap="round"></path><path d="M 1005.000,405.000 C 1015.522,405.361 1015.500,405.000 1026.000,405.000" stroke-width="2.659" stroke="black" fill="none" stroke-linecap="round"></path><path d="M 1026.000,405.000 C 1030.059,404.788 1030.022,404.861 1034.000,404.000" stroke-width="3.334" stroke="black" fill="none" stroke-linecap="round"></path><path d="M 1034.000,404.000 C 1037.500,403.000 1037.559,403.288 1041.000,402.000" stroke-width="3.735" stroke="black" fill="none" stroke-linecap="round"></path><path d="M 1041.000,402.000 C 1044.551,401.150 1044.500,401.000 1048.000,400.000" stroke-width="3.826" stroke="black" fill="none" stroke-linecap="round"></path><path d="M 1048.000,400.000 C 1050.479,398.945 1050.551,399.150 1053.000,398.000" stroke-width="4.199" stroke="black" fill="none" stroke-linecap="round"></path><path d="M 1053.000,398.000 C 1062.604,394.758 1062.479,394.445 1072.000,391.000" stroke-width="4.855" stroke="black" fill="none" stroke-linecap="round"></path><path d="M 1072.000,391.000 C 1080.923,388.954 1080.104,387.758 1088.000,384.000" stroke-width="3.184" stroke="black" fill="none" stroke-linecap="round"></path><path d="M 1088.000,384.000 C 1100.408,373.936 1100.923,374.954 1112.000,363.000" stroke-width="2.143" stroke="black" fill="none" stroke-linecap="round"></path><path d="M 1112.000,363.000 C 1127.047,349.006 1126.908,348.936 1141.000,334.000" stroke-width="1.714" stroke="black" fill="none" stroke-linecap="round"></path><path d="M 1141.000,334.000 C 1152.020,318.980 1153.547,320.506 1165.000,306.000" stroke-width="1.756" stroke="black" fill="none" stroke-linecap="round"></path><path d="M 1165.000,306.000 C 1173.330,296.425 1173.520,297.480 1184.000,291.000" stroke-width="2.068" stroke="black" fill="none" stroke-linecap="round"></path><path d="M 1184.000,291.000 C 1203.867,283.003 1202.830,281.425 1224.000,276.000" stroke-width="2.322" stroke="black" fill="none" stroke-linecap="round"></path><path d="M 1224.000,276.000 C 1231.962,275.178 1226.867,275.003 1230.000,275.000" stroke-width="3.408" stroke="black" fill="none" stroke-linecap="round"></path><path d="M 1230.000,275.000 C 1216.006,274.156 1220.962,274.178 1202.000,274.000" stroke-width="3.791" stroke="black" fill="none" stroke-linecap="round"></path><path d="M 1202.000,274.000 C 1170.969,275.053 1171.006,273.656 1140.000,274.000" stroke-width="1.458" stroke="black" fill="none" stroke-linecap="round"></path><path d="M 1140.000,274.000 C 1097.522,271.061 1097.469,272.553 1055.000,269.000" stroke-width="1.125" stroke="black" fill="none" stroke-linecap="round"></path><path d="M 1055.000,269.000 C 984.025,263.735 984.022,265.561 913.000,263.000" stroke-width="1.125" stroke="black" fill="none" stroke-linecap="round"></path><path d="M 913.000,263.000 C 838.275,257.156 839.025,262.235 765.000,266.000" stroke-width="1.125" stroke="black" fill="none" stroke-linecap="round"></path><path d="M 765.000,266.000 C 633.390,280.977 635.275,281.656 507.000,312.000" stroke-width="1.125" stroke="black" fill="none" stroke-linecap="round"></path><path d="M 507.000,312.000 C 471.002,329.504 468.390,321.477 435.000,347.000" stroke-width="1.125" stroke="black" fill="none" stroke-linecap="round"></path><path d="M 435.000,347.000 C 417.847,356.351 417.502,355.504 400.000,364.000" stroke-width="1.275" stroke="black" fill="none" stroke-linecap="round"></path><path d="M 400.000,364.000 C 389.689,368.259 389.847,368.351 379.000,371.000" stroke-width="1.880" stroke="black" fill="none" stroke-linecap="round"></path><path d="M 379.000,371.000 C 369.924,372.154 370.189,373.259 361.000,374.000" stroke-width="2.850" stroke="black" fill="none" stroke-linecap="round"></path><path d="M 361.000,374.000 C 355.396,375.201 355.424,375.154 350.000,377.000" stroke-width="3.193" stroke="black" fill="none" stroke-linecap="round"></path></svg>