<svg xmlns="http://www.w3.org/2000/svg" xmlns:xlink="http://www.w3.org/1999/xlink" viewBox="0 0 692 590" width="692" height="590"><path d="M 408.000,146.000 C 404.494,145.019 404.500,145.000 401.000,144.000" stroke-width="4.384" stroke="black" fill="none" stroke-linecap="round"></path><path d="M 401.000,144.000 C 392.655,140.731 392.494,141.519 384.000,139.000" stroke-width="3.024" stroke="black" fill="none" stroke-linecap="round"></path><path d="M 384.000,139.000 C 375.021,137.752 375.155,137.231 366.000,137.000" stroke-width="2.743" stroke="black" fill="none" stroke-linecap="round"></path><path d="M 366.000,137.000 C 356.988,135.667 357.021,136.252 348.000,136.000" stroke-width="2.790" stroke="black" fill="none" stroke-linecap="round"></path><path d="M 348.000,136.000 C 330.022,138.017 329.988,136.667 312.000,139.000" stroke-width="1.950" stroke="black" fill="none" stroke-linecap="round"></path><path d="M 312.000,139.000 C 302.482,139.441 302.522,139.517 293.000,139.000" stroke-width="2.441" stroke="black" fill="none" stroke-linecap="round"></path><path d="M 293.000,139.000 C 280.986,138.142 280.982,138.441 269.000,137.000" stroke-width="2.360" stroke="black" fill="none" stroke-linecap="round"></path><path d="M 269.000,137.000 C 259.965,136.237 259.986,136.142 251.000,135.000" stroke-width="2.603" stroke="black" fill="none" stroke-linecap="round"></path><path d="M 251.000,135.000 C 245.520,133.872 245.465,134.237 240.000,133.000" stroke-width="3.062" stroke="black" fill="none" stroke-linecap="round"></path><path d="M 240.000,133.000 C 236.018,132.211 236.020,132.372 232.000,132.000" stroke-width="3.553" stroke="black" fill="none" stroke-linecap="round"></path><path d="M 232.000,132.000 C 226.500,132.000 226.518,131.711 221.000,132.000" stroke-width="3.974" stroke="black" fill="none" stroke-linecap="round"></path><path d="M 221.000,132.000 C 216.308,130.131 218.000,132.000 215.000,132.000" stroke-width="4.654" stroke="black" fill="none" stroke-linecap="round"></path><path d="M 215.000,132.000 C 214.000,136.998 212.808,135.131 214.000,142.000" stroke-width="5.074" stroke="black" fill="none" stroke-linecap="round"></path><path d="M 214.000,142.000 C 214.491,147.501 214.000,147.498 215.000,153.000" stroke-width="3.782" stroke="black" fill="none" stroke-linecap="round"></path><path d="M 215.000,153.000 C 216.875,174.512 216.991,174.501 219.000,196.000" stroke-width="1.853" stroke="black" fill="none" stroke-linecap="round"></path><path d="M 219.000,196.000 C 221.599,219.990 221.375,220.012 224.000,244.000" stroke-width="1.660" stroke="black" fill="none" stroke-linecap="round"></path><path d="M 224.000,244.000 C 224.746,255.027 225.099,254.990 226.000,266.000" stroke-width="2.096" stroke="black" fill="none" stroke-linecap="round"></path><path d="M 226.000,266.000 C 229.366,289.963 228.746,290.027 232.000,314.000" stroke-width="1.609" stroke="black" fill="none" stroke-linecap="round"></path><path d="M 232.000,314.000 C 233.418,326.483 233.366,326.463 234.000,339.000" stroke-width="1.927" stroke="black" fill="none" stroke-linecap="round"></path><path d="M 234.000,339.000 C 234.000,348.000 234.418,347.983 234.000,357.000" stroke-width="2.428" stroke="black" fill="none" stroke-linecap="round"></path><path d="M 234.000,357.000 C 234.000,360.000 234.000,360.000 234.000,363.000" stroke-width="3.393" stroke="black" fill="none" stroke-linecap="round"></path><path d="M 234.000,363.000 C 234.000,366.000 234.000,366.000 234.000,369.000" stroke-width="3.895" stroke="black" fill="none" stroke-linecap="round"></path><path d="M 234.000,369.000 C 233.730,372.027 234.000,372.000 234.000,375.000" stroke-width="4.608" stroke="black" fill="none" stroke-linecap="round"></path><path d="M 234.000,375.000 C 233.044,379.581 234.230,377.527 235.000,380.000" stroke-width="5.197" stroke="black" fill="none" stroke-linecap="round"></path><path d="M 235.000,380.000 C 241.508,379.047 240.044,381.081 248.000,378.000" stroke-width="4.286" stroke="black" fill="none" stroke-linecap="round"></path><path d="M 248.000,378.000 C 256.970,376.290 257.008,376.547 266.000,375.000" stroke-width="2.973" stroke="black" fill="none" stroke-linecap="round"></path><path d="M 266.000,375.000 C 274.485,373.852 274.470,373.790 283.000,373.000" stroke-width="2.852" stroke="black" fill="none" stroke-linecap="round"></path><path d="M 283.000,373.000 C 299.481,371.077 299.485,371.352 316.000,370.000" stroke-width="2.052" stroke="black" fill="none" stroke-linecap="round"></path><path d="M 316.000,370.000 C 322.500,370.000 322.481,369.577 329.000,370.000" stroke-width="2.734" stroke="black" fill="none" stroke-linecap="round"></path><path d="M 329.000,370.000 C 340.500,370.000 340.500,370.000 352.000,370.000" stroke-width="2.484" stroke="black" fill="none" stroke-linecap="round"></path><path d="M 352.000,370.000 C 360.500,370.000 360.500,370.000 369.000,370.000" stroke-width="2.649" stroke="black" fill="none" stroke-linecap="round"></path><path d="M 369.000,370.000 C 375.500,370.000 375.500,370.000 382.000,370.000" stroke-width="2.952" stroke="black" fill="none" stroke-linecap="round"></path><path d="M 382.000,370.000 C 386.000,370.000 386.000,370.000 390.000,370.000" stroke-width="3.513" stroke="black" fill="none" stroke-linecap="round"></path><path d="M 390.000,370.000 C 394.525,370.298 394.500,370.000 399.000,370.000" stroke-width="3.627" stroke="black" fill="none" stroke-linecap="round"></path><path d="M 399.000,370.000 C 403.592,371.252 402.025,369.798 405.000,369.000" stroke-width="4.346" stroke="black" fill="none" stroke-linecap="round"></path><path d="M 405.000,369.000 C 408.538,361.616 408.592,363.252 409.000,354.000" stroke-width="5.005" stroke="black" fill="none" stroke-linecap="round"></path><path d="M 409.000,354.000 C 407.564,345.031 409.538,345.116 407.000,336.000" stroke-width="3.075" stroke="black" fill="none" stroke-linecap="round"></path><path d="M 407.000,336.000 C 406.341,321.003 406.064,321.031 406.000,306.000" stroke-width="2.123" stroke="black" fill="none" stroke-linecap="round"></path><path d="M 406.000,306.000 C 406.000,299.000 405.841,299.003 406.000,292.000" stroke-width="2.669" stroke="black" fill="none" stroke-linecap="round"></path><path d="M 406.000,292.000 C 406.282,278.993 406.000,279.000 406.000,266.000" stroke-width="2.341" stroke="black" fill="none" stroke-linecap="round"></path><path d="M 406.000,266.000 C 405.500,256.000 405.782,255.993 405.000,246.000" stroke-width="2.505" stroke="black" fill="none" stroke-linecap="round"></path><path d="M 405.000,246.000 C 405.239,235.908 404.500,236.000 404.000,226.000" stroke-width="2.500" stroke="black" fill="none" stroke-linecap="round"></path><path d="M 404.000,226.000 C 401.566,216.069 402.739,215.908 400.000,206.000" stroke-width="2.540" stroke="black" fill="none" stroke-linecap="round"></path><path d="M 400.000,206.000 C 398.016,193.529 398.066,193.569 397.000,181.000" stroke-width="2.281" stroke="black" fill="none" stroke-linecap="round"></path><path d="M 397.000,181.000 C 397.000,175.000 396.516,175.029 397.000,169.000" stroke-width="2.863" stroke="black" fill="none" stroke-linecap="round"></path><path d="M 397.000,169.000 C 396.421,164.439 397.000,164.500 397.000,160.000" stroke-width="3.800" stroke="black" fill="none" stroke-linecap="round"></path><path d="M 397.000,160.000 C 398.390,152.975 397.921,152.939 400.000,146.000" stroke-width="4.741" stroke="black" fill="none" stroke-linecap="round"></path><path d="M 400.000,146.000 C 402.042,140.067 401.390,139.975 403.000,134.000" stroke-width="3.522" stroke="black" fill="none" stroke-linecap="round"></path><path d="M 428.000,116.000 C 425.691,118.830 426.000,119.000 424.000,122.000" stroke-width="5.261" stroke="black" fill="none" stroke-linecap="round"></path><path d="M 424.000,122.000 C 421.963,126.484 421.691,126.330 420.000,131.000" stroke-width="3.944" stroke="black" fill="none" stroke-linecap="round"></path><path d="M 420.000,131.000 C 418.055,138.606 416.963,137.984 414.000,145.000" stroke-width="3.135" stroke="black" fill="none" stroke-linecap="round"></path><path d="M 414.000,145.000 C 403.920,158.442 405.055,159.106 394.000,172.000" stroke-width="2.004" stroke="black" fill="none" stroke-linecap="round"></path><path d="M 394.000,172.000 C 389.059,179.043 388.920,178.942 384.000,186.000" stroke-width="2.500" stroke="black" fill="none" stroke-linecap="round"></path><path d="M 384.000,186.000 C 381.290,190.240 381.059,190.043 378.000,194.000" stroke-width="3.103" stroke="black" fill="none" stroke-linecap="round"></path><path d="M 378.000,194.000 C 366.790,205.818 367.290,206.240 356.000,218.000" stroke-width="2.108" stroke="black" fill="none" stroke-linecap="round"></path><path d="M 356.000,218.000 C 351.500,223.500 351.290,223.318 347.000,229.000" stroke-width="2.650" stroke="black" fill="none" stroke-linecap="round"></path><path d="M 347.000,229.000 C 341.521,233.876 342.500,234.500 338.000,240.000" stroke-width="2.872" stroke="black" fill="none" stroke-linecap="round"></path><path d="M 338.000,240.000 C 331.347,254.692 330.021,253.876 324.000,269.000" stroke-width="2.086" stroke="black" fill="none" stroke-linecap="round"></path><path d="M 324.000,269.000 C 320.922,272.728 321.847,273.192 319.000,277.000" stroke-width="2.965" stroke="black" fill="none" stroke-linecap="round"></path><path d="M 319.000,277.000 C 316.617,282.893 316.422,282.728 315.000,289.000" stroke-width="3.142" stroke="black" fill="none" stroke-linecap="round"></path><path d="M 315.000,289.000 C 312.901,300.120 312.117,299.893 310.000,311.000" stroke-width="2.597" stroke="black" fill="none" stroke-linecap="round"></path><path d="M 310.000,311.000 C 308.403,314.966 308.901,315.120 307.000,319.000" stroke-width="3.306" stroke="black" fill="none" stroke-linecap="round"></path><path d="M 307.000,319.000 C 304.419,326.474 304.403,326.466 302.000,334.000" stroke-width="3.022" stroke="black" fill="none" stroke-linecap="round"></path><path d="M 302.000,334.000 C 300.511,340.722 299.919,340.474 298.000,347.000" stroke-width="3.035" stroke="black" fill="none" stroke-linecap="round"></path><path d="M 298.000,347.000 C 296.229,350.656 296.511,350.722 294.000,354.000" stroke-width="3.956" stroke="black" fill="none" stroke-linecap="round"></path><path d="M 294.000,354.000 C 292.150,356.635 292.229,356.656 290.000,359.000" stroke-width="4.046" stroke="black" fill="none" stroke-linecap="round"></path><path d="M 290.000,359.000 C 286.864,361.876 287.150,362.135 284.000,365.000" stroke-width="4.337" stroke="black" fill="none" stroke-linecap="round"></path><path d="M 284.000,365.000 C 281.290,367.851 281.364,367.876 279.000,371.000" stroke-width="3.987" stroke="black" fill="none" stroke-linecap="round"></path><path d="M 279.000,371.000 C 277.565,373.541 277.290,373.351 276.000,376.000" stroke-width="4.482" stroke="black" fill="none" stroke-linecap="round"></path><path d="M 276.000,376.000 C 274.052,379.036 274.065,379.041 272.000,382.000" stroke-width="4.558" stroke="black" fill="none" stroke-linecap="round"></path><path d="M 272.000,382.000 C 269.866,385.847 269.552,385.536 267.000,389.000" stroke-width="4.509" stroke="black" fill="none" stroke-linecap="round"></path><path d="M 267.000,389.000 C 264.389,390.876 264.866,391.347 262.000,393.000" stroke-width="4.664" stroke="black" fill="none" stroke-linecap="round"></path><path d="M 262.000,393.000 C 260.286,395.367 259.889,394.876 258.000,397.000" stroke-width="4.745" stroke="black" fill="none" stroke-linecap="round"></path><path d="M 258.000,397.000 C 252.943,399.910 253.286,400.367 248.000,403.000" stroke-width="4.341" stroke="black" fill="none" stroke-linecap="round"></path><path d="M 248.000,403.000 C 244.880,404.840 244.943,404.910 242.000,407.000" stroke-width="4.059" stroke="black" fill="none" stroke-linecap="round"></path><path d="M 242.000,407.000 C 239.120,409.660 238.880,409.340 236.000,412.000" stroke-width="3.914" stroke="black" fill="none" stroke-linecap="round"></path><path d="M 236.000,412.000 C 233.108,414.187 233.120,414.160 230.000,416.000" stroke-width="3.888" stroke="black" fill="none" stroke-linecap="round"></path><path d="M 201.000,105.000 C 202.209,108.186 202.500,108.000 204.000,111.000" stroke-width="5.395" stroke="black" fill="none" stroke-linecap="round"></path><path d="M 204.000,111.000 C 205.748,113.748 205.709,113.686 208.000,116.000" stroke-width="4.407" stroke="black" fill="none" stroke-linecap="round"></path><path d="M 208.000,116.000 C 211.013,118.485 210.748,118.748 214.000,121.000" stroke-width="3.948" stroke="black" fill="none" stroke-linecap="round"></path><path d="M 214.000,121.000 C 220.855,126.134 220.513,126.485 227.000,132.000" stroke-width="3.004" stroke="black" fill="none" stroke-linecap="round"></path><path d="M 227.000,132.000 C 231.670,136.858 231.855,136.634 236.000,142.000" stroke-width="3.098" stroke="black" fill="none" stroke-linecap="round"></path><path d="M 236.000,142.000 C 238.905,147.083 239.670,146.358 243.000,151.000" stroke-width="3.226" stroke="black" fill="none" stroke-linecap="round"></path><path d="M 243.000,151.000 C 251.035,157.457 250.405,158.083 259.000,164.000" stroke-width="2.647" stroke="black" fill="none" stroke-linecap="round"></path><path d="M 259.000,164.000 C 265.353,168.635 265.035,168.957 271.000,174.000" stroke-width="2.783" stroke="black" fill="none" stroke-linecap="round"></path><path d="M 271.000,174.000 C 274.985,178.513 275.353,178.135 279.000,183.000" stroke-width="3.069" stroke="black" fill="none" stroke-linecap="round"></path><path d="M 279.000,183.000 C 283.401,188.094 283.485,188.013 288.000,193.000" stroke-width="3.118" stroke="black" fill="none" stroke-linecap="round"></path><path d="M 288.000,193.000 C 290.876,196.136 290.901,196.094 294.000,199.000" stroke-width="3.489" stroke="black" fill="none" stroke-linecap="round"></path><path d="M 294.000,199.000 C 297.246,201.246 296.876,201.636 300.000,204.000" stroke-width="3.688" stroke="black" fill="none" stroke-linecap="round"></path><path d="M 300.000,204.000 C 304.406,208.208 304.246,208.246 308.000,213.000" stroke-width="3.402" stroke="black" fill="none" stroke-linecap="round"></path><path d="M 308.000,213.000 C 309.889,216.569 310.406,216.208 312.000,220.000" stroke-width="3.681" stroke="black" fill="none" stroke-linecap="round"></path><path d="M 312.000,220.000 C 314.215,222.875 313.889,223.069 316.000,226.000" stroke-width="3.816" stroke="black" fill="none" stroke-linecap="round"></path><path d="M 316.000,226.000 C 317.669,230.212 318.215,229.875 320.000,234.000" stroke-width="3.668" stroke="black" fill="none" stroke-linecap="round"></path><path d="M 320.000,234.000 C 322.274,236.316 321.669,236.712 324.000,239.000" stroke-width="3.856" stroke="black" fill="none" stroke-linecap="round"></path><path d="M 324.000,239.000 C 326.200,243.692 326.774,243.316 329.000,248.000" stroke-width="3.602" stroke="black" fill="none" stroke-linecap="round"></path><path d="M 329.000,248.000 C 332.871,253.601 332.700,253.692 337.000,259.000" stroke-width="3.190" stroke="black" fill="none" stroke-linecap="round"></path><path d="M 337.000,259.000 C 339.364,262.124 339.371,262.101 342.000,265.000" stroke-width="3.581" stroke="black" fill="none" stroke-linecap="round"></path><path d="M 342.000,265.000 C 344.756,268.297 344.864,268.124 348.000,271.000" stroke-width="3.647" stroke="black" fill="none" stroke-linecap="round"></path><path d="M 348.000,271.000 C 351.171,272.777 350.756,273.297 354.000,275.000" stroke-width="3.854" stroke="black" fill="none" stroke-linecap="round"></path><path d="M 354.000,275.000 C 358.381,278.140 358.171,278.277 362.000,282.000" stroke-width="3.509" stroke="black" fill="none" stroke-linecap="round"></path><path d="M 362.000,282.000 C 365.580,286.440 365.881,286.140 369.000,291.000" stroke-width="3.463" stroke="black" fill="none" stroke-linecap="round"></path><path d="M 369.000,291.000 C 374.203,298.754 374.580,298.440 380.000,306.000" stroke-width="2.811" stroke="black" fill="none" stroke-linecap="round"></path><path d="M 380.000,306.000 C 382.772,308.277 382.203,308.754 385.000,311.000" stroke-width="3.534" stroke="black" fill="none" stroke-linecap="round"></path><path d="M 385.000,311.000 C 386.703,314.244 387.272,313.777 389.000,317.000" stroke-width="3.768" stroke="black" fill="none" stroke-linecap="round"></path><path d="M 389.000,317.000 C 392.553,319.635 391.703,320.244 395.000,323.000" stroke-width="3.703" stroke="black" fill="none" stroke-linecap="round"></path><path d="M 395.000,323.000 C 395.854,325.565 396.553,325.135 397.000,328.000" stroke-width="4.120" stroke="black" fill="none" stroke-linecap="round"></path><path d="M 397.000,328.000 C 400.146,333.935 399.854,334.065 403.000,340.000" stroke-width="4.035" stroke="black" fill="none" stroke-linecap="round"></path><path d="M 403.000,340.000 C 403.964,342.515 404.146,342.435 405.000,345.000" stroke-width="4.198" stroke="black" fill="none" stroke-linecap="round"></path><path d="M 405.000,345.000 C 406.536,348.485 406.464,348.515 408.000,352.000" stroke-width="4.452" stroke="black" fill="none" stroke-linecap="round"></path><path d="M 408.000,352.000 C 408.717,354.649 409.036,354.485 410.000,357.000" stroke-width="4.324" stroke="black" fill="none" stroke-linecap="round"></path><path d="M 410.000,357.000 C 412.644,359.745 411.717,360.149 414.000,363.000" stroke-width="4.722" stroke="black" fill="none" stroke-linecap="round"></path><path d="M 414.000,363.000 C 414.049,366.147 415.144,365.745 415.000,369.000" stroke-width="4.756" stroke="black" fill="none" stroke-linecap="round"></path><path d="M 415.000,369.000 C 416.951,371.853 416.049,372.147 418.000,375.000" stroke-width="4.172" stroke="black" fill="none" stroke-linecap="round"></path><path d="M 418.000,375.000 C 417.988,378.166 418.951,377.853 419.000,381.000" stroke-width="4.195" stroke="black" fill="none" stroke-linecap="round"></path><path d="M 419.000,381.000 C 420.639,385.223 420.488,385.166 423.000,389.000" stroke-width="4.334" stroke="black" fill="none" stroke-linecap="round"></path><path d="M 423.000,389.000 C 425.807,393.168 425.639,393.223 429.000,397.000" stroke-width="4.322" stroke="black" fill="none" stroke-linecap="round"></path><path d="M 429.000,397.000 C 431.277,398.784 430.807,399.168 433.000,401.000" stroke-width="4.204" stroke="black" fill="none" stroke-linecap="round"></path></svg>