<svg xmlns="http://www.w3.org/2000/svg" xmlns:xlink="http://www.w3.org/1999/xlink" viewBox="0 0 1460 590" width="1460" height="590"><path d="M 546.000,359.000 C 543.375,358.864 543.500,358.500 541.000,358.000" stroke-width="5.401" stroke="black" fill="none" stroke-linecap="round"></path><path d="M 541.000,358.000 C 538.000,356.500 537.875,356.864 535.000,355.000" stroke-width="4.307" stroke="black" fill="none" stroke-linecap="round"></path><path d="M 535.000,355.000 C 530.965,353.068 531.000,353.000 527.000,351.000" stroke-width="3.853" stroke="black" fill="none" stroke-linecap="round"></path><path d="M 527.000,351.000 C 519.535,346.932 519.465,347.068 512.000,343.000" stroke-width="3.060" stroke="black" fill="none" stroke-linecap="round"></path><path d="M 512.000,343.000 C 508.186,340.477 508.035,340.932 504.000,339.000" stroke-width="3.424" stroke="black" fill="none" stroke-linecap="round"></path><path d="M 504.000,339.000 C 494.586,338.864 499.686,337.477 495.000,337.000" stroke-width="4.051" stroke="black" fill="none" stroke-linecap="round"></path><path d="M 495.000,337.000 C 500.212,332.894 495.586,334.364 506.000,330.000" stroke-width="4.803" stroke="black" fill="none" stroke-linecap="round"></path><path d="M 506.000,330.000 C 510.837,329.220 510.212,327.894 515.000,327.000" stroke-width="3.960" stroke="black" fill="none" stroke-linecap="round"></path><path d="M 515.000,327.000 C 525.559,320.594 525.837,321.220 536.000,314.000" stroke-width="2.549" stroke="black" fill="none" stroke-linecap="round"></path><path d="M 536.000,314.000 C 544.392,308.329 544.559,308.594 553.000,303.000" stroke-width="2.502" stroke="black" fill="none" stroke-linecap="round"></path><path d="M 553.000,303.000 C 576.652,289.899 575.892,288.829 599.000,275.000" stroke-width="2.265" stroke="black" fill="none" stroke-linecap="round"></path><path d="M 599.000,275.000 C 605.657,268.557 606.652,269.899 613.000,263.000" stroke-width="2.602" stroke="black" fill="none" stroke-linecap="round"></path><path d="M 613.000,263.000 C 624.056,254.229 624.157,254.557 636.000,247.000" stroke-width="2.118" stroke="black" fill="none" stroke-linecap="round"></path><path d="M 636.000,247.000 C 643.820,244.069 643.056,242.729 651.000,240.000" stroke-width="2.582" stroke="black" fill="none" stroke-linecap="round"></path><path d="M 651.000,240.000 C 658.444,234.911 658.820,235.569 666.000,230.000" stroke-width="3.261" stroke="black" fill="none" stroke-linecap="round"></path><path d="M 666.000,230.000 C 670.220,226.480 668.444,228.411 671.000,227.000" stroke-width="3.820" stroke="black" fill="none" stroke-linecap="round"></path><path d="M 671.000,227.000 C 670.283,229.636 671.720,227.480 669.000,232.000" stroke-width="4.766" stroke="black" fill="none" stroke-linecap="round"></path><path d="M 669.000,232.000 C 661.388,247.606 660.783,247.136 652.000,262.000" stroke-width="2.274" stroke="black" fill="none" stroke-linecap="round"></path><path d="M 652.000,262.000 C 644.998,269.623 646.388,270.606 639.000,278.000" stroke-width="2.340" stroke="black" fill="none" stroke-linecap="round"></path><path d="M 639.000,278.000 C 617.089,310.921 615.998,310.123 594.000,343.000" stroke-width="1.153" stroke="black" fill="none" stroke-linecap="round"></path><path d="M 594.000,343.000 C 558.175,387.759 560.589,389.421 526.000,435.000" stroke-width="1.125" stroke="black" fill="none" stroke-linecap="round"></path><path d="M 526.000,435.000 C 497.804,482.037 495.175,480.259 468.000,528.000" stroke-width="1.125" stroke="black" fill="none" stroke-linecap="round"></path><path d="M 468.000,528.000 C 455.714,545.662 456.304,546.037 443.000,563.000" stroke-width="1.330" stroke="black" fill="none" stroke-linecap="round"></path><path d="M 443.000,563.000 C 439.606,568.625 439.214,568.162 435.000,573.000" stroke-width="2.254" stroke="black" fill="none" stroke-linecap="round"></path><path d="M 435.000,573.000 C 429.510,578.474 429.606,578.125 423.000,582.000" stroke-width="2.672" stroke="black" fill="none" stroke-linecap="round"></path><path d="M 423.000,582.000 C 417.147,584.634 417.510,584.974 411.000,586.000" stroke-width="3.037" stroke="black" fill="none" stroke-linecap="round"></path><path d="M 411.000,586.000 C 403.519,587.284 403.647,587.634 396.000,588.000" stroke-width="3.496" stroke="black" fill="none" stroke-linecap="round"></path><path d="M 396.000,588.000 C 389.698,590.217 393.019,588.284 390.000,588.000" stroke-width="3.973" stroke="black" fill="none" stroke-linecap="round"></path><path d="M 390.000,588.000 C 392.245,575.409 391.198,579.217 399.000,566.000" stroke-width="4.529" stroke="black" fill="none" stroke-linecap="round"></path><path d="M 399.000,566.000 C 408.111,557.034 406.245,555.909 418.000,549.000" stroke-width="2.571" stroke="black" fill="none" stroke-linecap="round"></path><path d="M 418.000,549.000 C 440.530,531.538 440.111,531.034 463.000,514.000" stroke-width="1.519" stroke="black" fill="none" stroke-linecap="round"></path><path d="M 463.000,514.000 C 483.122,501.228 481.530,499.538 500.000,485.000" stroke-width="1.501" stroke="black" fill="none" stroke-linecap="round"></path><path d="M 500.000,485.000 C 519.133,460.559 522.122,463.728 541.000,439.000" stroke-width="1.244" stroke="black" fill="none" stroke-linecap="round"></path><path d="M 541.000,439.000 C 556.624,427.723 554.633,425.559 571.000,415.000" stroke-width="1.546" stroke="black" fill="none" stroke-linecap="round"></path><path d="M 571.000,415.000 C 597.530,385.805 600.124,389.223 628.000,362.000" stroke-width="1.385" stroke="black" fill="none" stroke-linecap="round"></path><path d="M 628.000,362.000 C 647.538,351.067 645.530,348.305 667.000,340.000" stroke-width="1.495" stroke="black" fill="none" stroke-linecap="round"></path><path d="M 667.000,340.000 C 672.795,336.102 673.038,336.567 679.000,333.000" stroke-width="2.343" stroke="black" fill="none" stroke-linecap="round"></path><path d="M 679.000,333.000 C 688.940,328.359 688.795,328.102 699.000,324.000" stroke-width="2.421" stroke="black" fill="none" stroke-linecap="round"></path><path d="M 699.000,324.000 C 710.127,319.248 703.940,321.859 709.000,320.000" stroke-width="3.461" stroke="black" fill="none" stroke-linecap="round"></path><path d="M 709.000,320.000 C 700.669,323.455 707.127,321.248 693.000,328.000" stroke-width="4.402" stroke="black" fill="none" stroke-linecap="round"></path><path d="M 693.000,328.000 C 687.847,332.560 687.169,331.455 682.000,336.000" stroke-width="3.351" stroke="black" fill="none" stroke-linecap="round"></path><path d="M 682.000,336.000 C 670.600,342.200 670.847,342.560 659.000,348.000" stroke-width="2.476" stroke="black" fill="none" stroke-linecap="round"></path><path d="M 659.000,348.000 C 648.051,352.220 648.600,353.200 638.000,358.000" stroke-width="2.405" stroke="black" fill="none" stroke-linecap="round"></path><path d="M 638.000,358.000 C 627.033,362.967 628.051,363.720 619.000,371.000" stroke-width="2.394" stroke="black" fill="none" stroke-linecap="round"></path><path d="M 619.000,371.000 C 609.172,382.547 608.533,381.467 601.000,395.000" stroke-width="2.577" stroke="black" fill="none" stroke-linecap="round"></path><path d="M 601.000,395.000 C 596.623,399.558 598.672,398.547 598.000,403.000" stroke-width="3.334" stroke="black" fill="none" stroke-linecap="round"></path><path d="M 598.000,403.000 C 602.205,412.816 600.623,409.558 609.000,415.000" stroke-width="3.626" stroke="black" fill="none" stroke-linecap="round"></path><path d="M 609.000,415.000 C 617.880,414.764 616.205,417.316 626.000,412.000" stroke-width="2.998" stroke="black" fill="none" stroke-linecap="round"></path><path d="M 626.000,412.000 C 640.987,405.471 641.380,406.764 656.000,399.000" stroke-width="2.089" stroke="black" fill="none" stroke-linecap="round"></path><path d="M 656.000,399.000 C 671.456,395.363 669.987,392.971 684.000,387.000" stroke-width="2.036" stroke="black" fill="none" stroke-linecap="round"></path><path d="M 684.000,387.000 C 703.170,371.194 704.456,373.363 722.000,355.000" stroke-width="2.178" stroke="black" fill="none" stroke-linecap="round"></path><path d="M 722.000,355.000 C 728.478,349.890 728.170,349.694 734.000,344.000" stroke-width="2.669" stroke="black" fill="none" stroke-linecap="round"></path><path d="M 734.000,344.000 C 737.210,338.580 735.978,341.890 737.000,339.000" stroke-width="3.853" stroke="black" fill="none" stroke-linecap="round"></path><path d="M 737.000,339.000 C 735.414,342.781 736.710,339.580 733.000,346.000" stroke-width="4.582" stroke="black" fill="none" stroke-linecap="round"></path><path d="M 733.000,346.000 C 723.198,358.677 723.414,358.781 713.000,371.000" stroke-width="2.278" stroke="black" fill="none" stroke-linecap="round"></path><path d="M 713.000,371.000 C 708.765,373.124 711.198,373.177 709.000,375.000" stroke-width="3.332" stroke="black" fill="none" stroke-linecap="round"></path><path d="M 709.000,375.000 C 711.053,379.227 709.265,377.124 714.000,379.000" stroke-width="4.177" stroke="black" fill="none" stroke-linecap="round"></path><path d="M 714.000,379.000 C 724.494,375.979 724.053,378.227 735.000,373.000" stroke-width="2.649" stroke="black" fill="none" stroke-linecap="round"></path><path d="M 735.000,373.000 C 757.762,365.468 757.994,366.479 781.000,360.000" stroke-width="1.641" stroke="black" fill="none" stroke-linecap="round"></path><path d="M 781.000,360.000 C 800.432,355.954 800.262,355.468 820.000,353.000" stroke-width="1.625" stroke="black" fill="none" stroke-linecap="round"></path><path d="M 820.000,353.000 C 826.999,352.483 826.932,351.954 834.000,352.000" stroke-width="2.428" stroke="black" fill="none" stroke-linecap="round"></path><path d="M 834.000,352.000 C 841.519,351.000 841.499,351.483 849.000,351.000" stroke-width="2.793" stroke="black" fill="none" stroke-linecap="round"></path><path d="M 849.000,351.000 C 855.419,349.385 852.519,351.000 856.000,352.000" stroke-width="3.486" stroke="black" fill="none" stroke-linecap="round"></path><path d="M 856.000,352.000 C 849.194,365.194 857.419,358.385 853.000,369.000" stroke-width="3.839" stroke="black" fill="none" stroke-linecap="round"></path><path d="M 853.000,369.000 C 862.630,369.516 857.194,373.194 872.000,368.000" stroke-width="4.613" stroke="black" fill="none" stroke-linecap="round"></path><path d="M 872.000,368.000 C 896.424,362.594 896.630,364.016 921.000,358.000" stroke-width="1.868" stroke="black" fill="none" stroke-linecap="round"></path><path d="M 921.000,358.000 C 949.765,351.192 949.924,352.594 979.000,348.000" stroke-width="1.397" stroke="black" fill="none" stroke-linecap="round"></path><path d="M 979.000,348.000 C 1064.661,341.911 1064.265,338.692 1150.000,333.000" stroke-width="1.125" stroke="black" fill="none" stroke-linecap="round"></path><path d="M 1150.000,333.000 C 1189.574,330.043 1189.161,328.911 1228.000,322.000" stroke-width="1.125" stroke="black" fill="none" stroke-linecap="round"></path><path d="M 1228.000,322.000 C 1253.502,314.005 1254.074,316.543 1279.000,306.000" stroke-width="1.125" stroke="black" fill="none" stroke-linecap="round"></path><path d="M 1279.000,306.000 C 1296.201,298.990 1296.502,300.505 1314.000,295.000" stroke-width="1.468" stroke="black" fill="none" stroke-linecap="round"></path><path d="M 1314.000,295.000 C 1325.798,291.133 1325.201,292.490 1337.000,293.000" stroke-width="2.009" stroke="black" fill="none" stroke-linecap="round"></path><path d="M 1337.000,293.000 C 1359.162,298.137 1358.798,296.633 1380.000,306.000" stroke-width="2.256" stroke="black" fill="none" stroke-linecap="round"></path><path d="M 1380.000,306.000 C 1385.329,309.108 1385.662,308.137 1390.000,313.000" stroke-width="2.926" stroke="black" fill="none" stroke-linecap="round"></path><path d="M 1390.000,313.000 C 1397.449,316.868 1394.329,316.608 1398.000,321.000" stroke-width="3.175" stroke="black" fill="none" stroke-linecap="round"></path><path d="M 1398.000,321.000 C 1396.179,326.825 1398.449,324.368 1392.000,328.000" stroke-width="4.389" stroke="black" fill="none" stroke-linecap="round"></path><path d="M 1392.000,328.000 C 1379.029,329.759 1380.179,331.325 1366.000,330.000" stroke-width="2.606" stroke="black" fill="none" stroke-linecap="round"></path><path d="M 1366.000,330.000 C 1324.989,330.607 1325.029,330.759 1284.000,330.000" stroke-width="1.140" stroke="black" fill="none" stroke-linecap="round"></path><path d="M 1284.000,330.000 C 1257.468,329.591 1257.489,329.607 1231.000,328.000" stroke-width="1.289" stroke="black" fill="none" stroke-linecap="round"></path><path d="M 1231.000,328.000 C 1165.914,324.482 1165.968,324.091 1101.000,319.000" stroke-width="1.125" stroke="black" fill="none" stroke-linecap="round"></path><path d="M 1101.000,319.000 C 1053.421,314.674 1053.414,314.982 1006.000,309.000" stroke-width="1.125" stroke="black" fill="none" stroke-linecap="round"></path><path d="M 1006.000,309.000 C 936.637,298.499 936.421,300.674 867.000,291.000" stroke-width="1.125" stroke="black" fill="none" stroke-linecap="round"></path><path d="M 867.000,291.000 C 838.999,287.783 839.137,287.999 811.000,288.000" stroke-width="1.125" stroke="black" fill="none" stroke-linecap="round"></path><path d="M 811.000,288.000 C 774.504,290.079 774.499,288.283 738.000,292.000" stroke-width="1.125" stroke="black" fill="none" stroke-linecap="round"></path><path d="M 738.000,292.000 C 727.005,292.738 727.004,292.579 716.000,293.000" stroke-width="1.736" stroke="black" fill="none" stroke-linecap="round"></path><path d="M 716.000,293.000 C 705.714,294.821 706.005,293.238 696.000,293.000" stroke-width="2.208" stroke="black" fill="none" stroke-linecap="round"></path><path d="M 696.000,293.000 C 682.124,288.035 681.714,290.321 668.000,284.000" stroke-width="2.301" stroke="black" fill="none" stroke-linecap="round"></path><path d="M 668.000,284.000 C 661.028,282.352 661.124,282.035 654.000,281.000" stroke-width="2.781" stroke="black" fill="none" stroke-linecap="round"></path><path d="M 654.000,281.000 C 648.030,279.635 648.028,279.852 642.000,279.000" stroke-width="3.059" stroke="black" fill="none" stroke-linecap="round"></path></svg>