<svg xmlns="http://www.w3.org/2000/svg" xmlns:xlink="http://www.w3.org/1999/xlink" viewBox="0 0 1460 590" width="1460" height="590"><path d="M 150.000,349.000 C 153.000,347.000 153.000,347.000 156.000,345.000" stroke-width="4.995" stroke="black" fill="none" stroke-linecap="round"></path><path d="M 156.000,345.000 C 160.652,342.214 160.500,342.000 165.000,339.000" stroke-width="4.462" stroke="black" fill="none" stroke-linecap="round"></path><path d="M 165.000,339.000 C 183.732,325.296 183.652,325.214 202.000,311.000" stroke-width="1.882" stroke="black" fill="none" stroke-linecap="round"></path><path d="M 202.000,311.000 C 219.087,299.141 218.232,298.296 234.000,285.000" stroke-width="1.707" stroke="black" fill="none" stroke-linecap="round"></path><path d="M 234.000,285.000 C 246.706,270.222 248.087,271.641 260.000,256.000" stroke-width="1.658" stroke="black" fill="none" stroke-linecap="round"></path><path d="M 260.000,256.000 C 269.432,248.302 268.206,247.222 277.000,239.000" stroke-width="2.077" stroke="black" fill="none" stroke-linecap="round"></path><path d="M 277.000,239.000 C 293.299,218.514 293.432,218.802 308.000,197.000" stroke-width="1.684" stroke="black" fill="none" stroke-linecap="round"></path><path d="M 308.000,197.000 C 313.265,188.132 313.799,188.514 318.000,179.000" stroke-width="2.161" stroke="black" fill="none" stroke-linecap="round"></path><path d="M 318.000,179.000 C 319.519,174.218 320.265,174.632 322.000,170.000" stroke-width="2.982" stroke="black" fill="none" stroke-linecap="round"></path><path d="M 322.000,170.000 C 324.492,165.508 324.519,165.718 328.000,162.000" stroke-width="3.247" stroke="black" fill="none" stroke-linecap="round"></path><path d="M 328.000,162.000 C 335.674,153.709 332.492,157.508 338.000,154.000" stroke-width="3.220" stroke="black" fill="none" stroke-linecap="round"></path><path d="M 338.000,154.000 C 338.318,159.137 339.674,154.209 336.000,163.000" stroke-width="4.484" stroke="black" fill="none" stroke-linecap="round"></path><path d="M 336.000,163.000 C 329.564,171.054 330.818,171.637 323.000,179.000" stroke-width="2.922" stroke="black" fill="none" stroke-linecap="round"></path><path d="M 323.000,179.000 C 319.498,182.140 320.064,182.554 317.000,186.000" stroke-width="3.346" stroke="black" fill="none" stroke-linecap="round"></path><path d="M 317.000,186.000 C 309.125,199.577 308.498,199.140 301.000,213.000" stroke-width="2.253" stroke="black" fill="none" stroke-linecap="round"></path><path d="M 301.000,213.000 C 295.746,217.823 297.625,218.577 294.000,224.000" stroke-width="2.677" stroke="black" fill="none" stroke-linecap="round"></path><path d="M 294.000,224.000 C 289.992,241.470 289.246,240.823 288.000,259.000" stroke-width="2.377" stroke="black" fill="none" stroke-linecap="round"></path><path d="M 288.000,259.000 C 288.699,263.484 287.492,263.470 289.000,268.000" stroke-width="3.155" stroke="black" fill="none" stroke-linecap="round"></path><path d="M 289.000,268.000 C 289.252,278.524 289.699,278.484 290.000,289.000" stroke-width="3.347" stroke="black" fill="none" stroke-linecap="round"></path><path d="M 290.000,289.000 C 289.575,292.911 290.252,292.524 291.000,296.000" stroke-width="4.401" stroke="black" fill="none" stroke-linecap="round"></path><path d="M 291.000,296.000 C 294.524,298.556 292.575,299.411 296.000,302.000" stroke-width="5.032" stroke="black" fill="none" stroke-linecap="round"></path><path d="M 296.000,302.000 C 296.402,306.014 297.524,305.556 297.000,310.000" stroke-width="4.114" stroke="black" fill="none" stroke-linecap="round"></path><path d="M 297.000,310.000 C 297.808,316.040 297.902,316.014 299.000,322.000" stroke-width="3.491" stroke="black" fill="none" stroke-linecap="round"></path><path d="M 299.000,322.000 C 299.868,326.038 299.808,326.040 301.000,330.000" stroke-width="4.141" stroke="black" fill="none" stroke-linecap="round"></path><path d="M 301.000,330.000 C 301.787,333.088 301.868,333.038 303.000,336.000" stroke-width="4.112" stroke="black" fill="none" stroke-linecap="round"></path><path d="M 303.000,336.000 C 304.613,338.949 304.287,339.088 306.000,342.000" stroke-width="4.505" stroke="black" fill="none" stroke-linecap="round"></path><path d="M 306.000,342.000 C 306.025,346.407 307.113,344.449 308.000,347.000" stroke-width="4.718" stroke="black" fill="none" stroke-linecap="round"></path><path d="M 308.000,347.000 C 312.266,346.600 311.025,347.907 316.000,345.000" stroke-width="5.282" stroke="black" fill="none" stroke-linecap="round"></path><path d="M 316.000,345.000 C 319.118,343.161 319.266,343.600 322.000,341.000" stroke-width="4.214" stroke="black" fill="none" stroke-linecap="round"></path><path d="M 322.000,341.000 C 327.031,337.038 327.118,337.161 332.000,333.000" stroke-width="3.387" stroke="black" fill="none" stroke-linecap="round"></path><path d="M 332.000,333.000 C 335.502,330.966 335.031,330.538 338.000,328.000" stroke-width="3.701" stroke="black" fill="none" stroke-linecap="round"></path><path d="M 338.000,328.000 C 342.732,320.773 343.502,321.466 348.000,314.000" stroke-width="3.698" stroke="black" fill="none" stroke-linecap="round"></path><path d="M 348.000,314.000 C 350.242,312.198 349.732,311.773 352.000,310.000" stroke-width="4.007" stroke="black" fill="none" stroke-linecap="round"></path><path d="M 352.000,310.000 C 353.769,306.826 354.242,307.198 356.000,304.000" stroke-width="3.967" stroke="black" fill="none" stroke-linecap="round"></path><path d="M 356.000,304.000 C 361.370,297.381 361.269,297.326 367.000,291.000" stroke-width="3.784" stroke="black" fill="none" stroke-linecap="round"></path><path d="M 367.000,291.000 C 369.000,289.000 368.870,288.881 371.000,287.000" stroke-width="4.079" stroke="black" fill="none" stroke-linecap="round"></path><path d="M 371.000,287.000 C 372.784,284.723 373.000,285.000 375.000,283.000" stroke-width="4.132" stroke="black" fill="none" stroke-linecap="round"></path><path d="M 375.000,283.000 C 377.272,280.839 377.284,281.223 380.000,280.000" stroke-width="4.579" stroke="black" fill="none" stroke-linecap="round"></path><path d="M 380.000,280.000 C 384.429,277.884 383.772,278.839 388.000,279.000" stroke-width="4.556" stroke="black" fill="none" stroke-linecap="round"></path><path d="M 388.000,279.000 C 392.037,281.952 392.429,280.384 396.000,285.000" stroke-width="4.364" stroke="black" fill="none" stroke-linecap="round"></path><path d="M 396.000,285.000 C 399.362,286.426 398.537,286.952 401.000,289.000" stroke-width="4.630" stroke="black" fill="none" stroke-linecap="round"></path><path d="M 401.000,289.000 C 402.553,292.423 402.862,291.926 403.000,296.000" stroke-width="4.823" stroke="black" fill="none" stroke-linecap="round"></path><path d="M 403.000,296.000 C 403.579,300.561 403.553,300.423 403.000,305.000" stroke-width="3.960" stroke="black" fill="none" stroke-linecap="round"></path><path d="M 403.000,305.000 C 401.734,312.064 402.079,312.061 400.000,319.000" stroke-width="3.210" stroke="black" fill="none" stroke-linecap="round"></path><path d="M 400.000,319.000 C 399.000,322.000 399.234,322.064 398.000,325.000" stroke-width="3.744" stroke="black" fill="none" stroke-linecap="round"></path><path d="M 398.000,325.000 C 397.080,328.029 397.000,328.000 396.000,331.000" stroke-width="4.545" stroke="black" fill="none" stroke-linecap="round"></path><path d="M 396.000,331.000 C 393.250,335.250 395.080,333.529 394.000,336.000" stroke-width="4.899" stroke="black" fill="none" stroke-linecap="round"></path><path d="M 394.000,336.000 C 396.838,335.562 394.750,336.750 399.000,334.000" stroke-width="5.222" stroke="black" fill="none" stroke-linecap="round"></path><path d="M 399.000,334.000 C 405.659,328.673 405.838,329.062 412.000,323.000" stroke-width="3.262" stroke="black" fill="none" stroke-linecap="round"></path><path d="M 412.000,323.000 C 415.000,320.000 415.159,320.173 418.000,317.000" stroke-width="3.541" stroke="black" fill="none" stroke-linecap="round"></path><path d="M 418.000,317.000 C 420.376,314.362 420.500,314.500 423.000,312.000" stroke-width="3.832" stroke="black" fill="none" stroke-linecap="round"></path><path d="M 423.000,312.000 C 425.611,310.124 425.376,309.862 428.000,308.000" stroke-width="4.006" stroke="black" fill="none" stroke-linecap="round"></path><path d="M 428.000,308.000 C 430.000,306.000 430.111,306.124 432.000,304.000" stroke-width="4.110" stroke="black" fill="none" stroke-linecap="round"></path><path d="M 432.000,304.000 C 436.008,298.817 436.500,299.500 441.000,295.000" stroke-width="4.120" stroke="black" fill="none" stroke-linecap="round"></path><path d="M 441.000,295.000 C 444.860,292.592 444.508,292.317 449.000,291.000" stroke-width="4.348" stroke="black" fill="none" stroke-linecap="round"></path><path d="M 449.000,291.000 C 451.471,290.211 451.360,290.092 454.000,290.000" stroke-width="4.290" stroke="black" fill="none" stroke-linecap="round"></path><path d="M 454.000,290.000 C 457.928,288.818 457.471,289.711 461.000,290.000" stroke-width="4.546" stroke="black" fill="none" stroke-linecap="round"></path><path d="M 461.000,290.000 C 464.627,291.980 464.428,291.318 467.000,295.000" stroke-width="4.773" stroke="black" fill="none" stroke-linecap="round"></path><path d="M 467.000,295.000 C 469.832,299.354 470.127,298.980 472.000,304.000" stroke-width="4.422" stroke="black" fill="none" stroke-linecap="round"></path><path d="M 472.000,304.000 C 473.316,306.922 473.332,306.854 474.000,310.000" stroke-width="4.141" stroke="black" fill="none" stroke-linecap="round"></path><path d="M 474.000,310.000 C 475.330,315.973 475.316,315.922 476.000,322.000" stroke-width="3.430" stroke="black" fill="none" stroke-linecap="round"></path><path d="M 476.000,322.000 C 476.000,325.000 476.330,324.973 476.000,328.000" stroke-width="3.947" stroke="black" fill="none" stroke-linecap="round"></path><path d="M 476.000,328.000 C 476.000,332.500 476.000,332.500 476.000,337.000" stroke-width="4.266" stroke="black" fill="none" stroke-linecap="round"></path><path d="M 476.000,337.000 C 476.000,342.500 476.000,342.500 476.000,348.000" stroke-width="4.502" stroke="black" fill="none" stroke-linecap="round"></path><path d="M 476.000,348.000 C 474.373,352.444 476.000,351.500 476.000,355.000" stroke-width="4.796" stroke="black" fill="none" stroke-linecap="round"></path><path d="M 476.000,355.000 C 479.253,357.929 477.873,357.944 483.000,359.000" stroke-width="4.848" stroke="black" fill="none" stroke-linecap="round"></path><path d="M 483.000,359.000 C 486.585,359.525 486.253,359.929 490.000,359.000" stroke-width="4.209" stroke="black" fill="none" stroke-linecap="round"></path><path d="M 490.000,359.000 C 492.978,357.930 493.085,358.525 496.000,357.000" stroke-width="4.132" stroke="black" fill="none" stroke-linecap="round"></path><path d="M 496.000,357.000 C 499.579,356.222 499.478,355.930 503.000,355.000" stroke-width="3.995" stroke="black" fill="none" stroke-linecap="round"></path><path d="M 503.000,355.000 C 506.386,353.112 506.579,353.722 510.000,352.000" stroke-width="4.397" stroke="black" fill="none" stroke-linecap="round"></path><path d="M 510.000,352.000 C 513.083,351.796 512.886,351.112 516.000,351.000" stroke-width="4.167" stroke="black" fill="none" stroke-linecap="round"></path><path d="M 516.000,351.000 C 518.417,349.704 518.583,350.296 521.000,349.000" stroke-width="4.196" stroke="black" fill="none" stroke-linecap="round"></path><path d="M 521.000,349.000 C 523.979,348.252 523.917,348.204 527.000,348.000" stroke-width="4.159" stroke="black" fill="none" stroke-linecap="round"></path><path d="M 527.000,348.000 C 530.282,349.019 529.979,347.752 533.000,348.000" stroke-width="4.562" stroke="black" fill="none" stroke-linecap="round"></path><path d="M 533.000,348.000 C 537.870,344.763 538.282,346.019 543.000,342.000" stroke-width="5.121" stroke="black" fill="none" stroke-linecap="round"></path><path d="M 543.000,342.000 C 551.210,338.362 550.870,337.763 559.000,334.000" stroke-width="3.104" stroke="black" fill="none" stroke-linecap="round"></path><path d="M 559.000,334.000 C 563.438,330.903 563.710,331.362 568.000,328.000" stroke-width="3.330" stroke="black" fill="none" stroke-linecap="round"></path><path d="M 568.000,328.000 C 574.456,323.926 574.438,323.903 581.000,320.000" stroke-width="2.931" stroke="black" fill="none" stroke-linecap="round"></path><path d="M 581.000,320.000 C 584.444,317.896 584.456,317.926 588.000,316.000" stroke-width="3.454" stroke="black" fill="none" stroke-linecap="round"></path><path d="M 588.000,316.000 C 592.345,314.513 591.944,313.896 596.000,312.000" stroke-width="4.026" stroke="black" fill="none" stroke-linecap="round"></path><path d="M 596.000,312.000 C 600.407,308.869 600.345,309.013 604.000,305.000" stroke-width="4.183" stroke="black" fill="none" stroke-linecap="round"></path><path d="M 604.000,305.000 C 606.616,301.576 606.907,301.869 609.000,298.000" stroke-width="3.859" stroke="black" fill="none" stroke-linecap="round"></path><path d="M 609.000,298.000 C 610.257,295.325 610.616,295.576 612.000,293.000" stroke-width="4.084" stroke="black" fill="none" stroke-linecap="round"></path><path d="M 612.000,293.000 C 614.642,289.118 614.757,289.325 618.000,286.000" stroke-width="4.298" stroke="black" fill="none" stroke-linecap="round"></path><path d="M 618.000,286.000 C 621.695,282.318 621.642,282.618 626.000,280.000" stroke-width="4.332" stroke="black" fill="none" stroke-linecap="round"></path><path d="M 626.000,280.000 C 629.500,278.000 628.195,278.818 631.000,279.000" stroke-width="4.845" stroke="black" fill="none" stroke-linecap="round"></path><path d="M 631.000,279.000 C 632.890,281.863 632.500,280.000 632.000,284.000" stroke-width="5.238" stroke="black" fill="none" stroke-linecap="round"></path><path d="M 632.000,284.000 C 629.124,287.615 630.390,287.863 626.000,291.000" stroke-width="4.596" stroke="black" fill="none" stroke-linecap="round"></path><path d="M 626.000,291.000 C 623.000,294.000 623.124,294.115 620.000,297.000" stroke-width="3.911" stroke="black" fill="none" stroke-linecap="round"></path><path d="M 620.000,297.000 C 617.000,300.000 617.000,300.000 614.000,303.000" stroke-width="4.289" stroke="black" fill="none" stroke-linecap="round"></path><path d="M 614.000,303.000 C 612.000,305.000 612.000,305.000 610.000,307.000" stroke-width="4.195" stroke="black" fill="none" stroke-linecap="round"></path><path d="M 610.000,307.000 C 607.807,308.832 608.000,309.000 606.000,311.000" stroke-width="4.602" stroke="black" fill="none" stroke-linecap="round"></path><path d="M 606.000,311.000 C 602.315,314.660 602.807,314.832 600.000,319.000" stroke-width="4.352" stroke="black" fill="none" stroke-linecap="round"></path><path d="M 600.000,319.000 C 598.510,322.431 598.315,322.160 598.000,326.000" stroke-width="4.054" stroke="black" fill="none" stroke-linecap="round"></path><path d="M 598.000,326.000 C 597.475,329.585 597.510,329.431 598.000,333.000" stroke-width="3.954" stroke="black" fill="none" stroke-linecap="round"></path><path d="M 598.000,333.000 C 598.416,336.361 598.475,336.085 600.000,339.000" stroke-width="4.635" stroke="black" fill="none" stroke-linecap="round"></path><path d="M 600.000,339.000 C 601.629,341.541 601.416,341.361 604.000,343.000" stroke-width="4.736" stroke="black" fill="none" stroke-linecap="round"></path><path d="M 604.000,343.000 C 608.351,345.450 608.129,345.541 613.000,347.000" stroke-width="3.848" stroke="black" fill="none" stroke-linecap="round"></path><path d="M 613.000,347.000 C 617.465,348.200 617.351,348.450 622.000,349.000" stroke-width="3.705" stroke="black" fill="none" stroke-linecap="round"></path><path d="M 622.000,349.000 C 625.994,349.555 625.965,349.700 630.000,350.000" stroke-width="3.730" stroke="black" fill="none" stroke-linecap="round"></path><path d="M 630.000,350.000 C 635.113,351.514 634.994,350.555 640.000,351.000" stroke-width="4.138" stroke="black" fill="none" stroke-linecap="round"></path><path d="M 640.000,351.000 C 645.041,350.375 644.613,350.514 649.000,348.000" stroke-width="4.317" stroke="black" fill="none" stroke-linecap="round"></path><path d="M 649.000,348.000 C 652.487,345.351 652.541,345.875 655.000,342.000" stroke-width="3.847" stroke="black" fill="none" stroke-linecap="round"></path><path d="M 655.000,342.000 C 656.613,339.051 656.987,339.351 658.000,336.000" stroke-width="3.928" stroke="black" fill="none" stroke-linecap="round"></path><path d="M 658.000,336.000 C 658.887,333.449 659.113,333.551 660.000,331.000" stroke-width="4.162" stroke="black" fill="none" stroke-linecap="round"></path><path d="M 660.000,331.000 C 661.395,327.942 661.387,327.949 663.000,325.000" stroke-width="4.523" stroke="black" fill="none" stroke-linecap="round"></path><path d="M 663.000,325.000 C 664.858,322.665 664.395,322.442 666.000,320.000" stroke-width="4.284" stroke="black" fill="none" stroke-linecap="round"></path><path d="M 666.000,320.000 C 668.459,315.595 667.858,315.665 669.000,311.000" stroke-width="4.343" stroke="black" fill="none" stroke-linecap="round"></path><path d="M 669.000,311.000 C 668.899,306.897 669.459,307.095 668.000,303.000" stroke-width="3.903" stroke="black" fill="none" stroke-linecap="round"></path><path d="M 668.000,303.000 C 667.000,300.500 667.399,300.397 666.000,298.000" stroke-width="4.512" stroke="black" fill="none" stroke-linecap="round"></path><path d="M 666.000,298.000 C 665.330,295.327 665.000,295.500 664.000,293.000" stroke-width="5.078" stroke="black" fill="none" stroke-linecap="round"></path><path d="M 664.000,293.000 C 660.924,288.548 661.330,288.327 658.000,284.000" stroke-width="4.433" stroke="black" fill="none" stroke-linecap="round"></path><path d="M 658.000,284.000 C 655.000,278.566 656.424,281.548 655.000,279.000" stroke-width="4.671" stroke="black" fill="none" stroke-linecap="round"></path><path d="M 655.000,279.000 C 656.888,282.386 655.000,279.566 658.000,286.000" stroke-width="5.176" stroke="black" fill="none" stroke-linecap="round"></path><path d="M 658.000,286.000 C 658.456,289.008 658.888,288.886 659.000,292.000" stroke-width="4.407" stroke="black" fill="none" stroke-linecap="round"></path><path d="M 659.000,292.000 C 659.136,294.625 659.456,294.508 660.000,297.000" stroke-width="4.307" stroke="black" fill="none" stroke-linecap="round"></path><path d="M 660.000,297.000 C 661.247,300.152 661.136,300.125 663.000,303.000" stroke-width="4.558" stroke="black" fill="none" stroke-linecap="round"></path><path d="M 663.000,303.000 C 665.847,306.310 665.247,306.652 668.000,310.000" stroke-width="4.724" stroke="black" fill="none" stroke-linecap="round"></path><path d="M 668.000,310.000 C 668.717,312.649 669.347,312.310 670.000,315.000" stroke-width="5.044" stroke="black" fill="none" stroke-linecap="round"></path><path d="M 670.000,315.000 C 672.065,317.959 671.717,318.149 674.000,321.000" stroke-width="4.167" stroke="black" fill="none" stroke-linecap="round"></path><path d="M 674.000,321.000 C 675.698,323.397 675.565,323.459 677.000,326.000" stroke-width="4.136" stroke="black" fill="none" stroke-linecap="round"></path><path d="M 677.000,326.000 C 677.856,331.594 679.198,330.397 681.000,335.000" stroke-width="4.291" stroke="black" fill="none" stroke-linecap="round"></path><path d="M 681.000,335.000 C 684.778,337.667 683.856,338.094 689.000,339.000" stroke-width="5.071" stroke="black" fill="none" stroke-linecap="round"></path><path d="M 689.000,339.000 C 694.453,340.518 694.278,340.667 700.000,341.000" stroke-width="3.767" stroke="black" fill="none" stroke-linecap="round"></path><path d="M 700.000,341.000 C 706.000,341.000 705.953,341.518 712.000,341.000" stroke-width="3.426" stroke="black" fill="none" stroke-linecap="round"></path><path d="M 712.000,341.000 C 715.007,341.166 715.000,341.000 718.000,341.000" stroke-width="3.866" stroke="black" fill="none" stroke-linecap="round"></path><path d="M 718.000,341.000 C 724.541,341.820 724.007,340.666 730.000,340.000" stroke-width="4.018" stroke="black" fill="none" stroke-linecap="round"></path><path d="M 730.000,340.000 C 732.710,337.056 733.541,338.820 736.000,335.000" stroke-width="3.902" stroke="black" fill="none" stroke-linecap="round"></path><path d="M 736.000,335.000 C 741.061,332.615 740.710,332.056 746.000,330.000" stroke-width="3.531" stroke="black" fill="none" stroke-linecap="round"></path><path d="M 746.000,330.000 C 749.398,327.801 749.561,328.115 753.000,326.000" stroke-width="3.726" stroke="black" fill="none" stroke-linecap="round"></path><path d="M 753.000,326.000 C 758.479,323.454 758.398,323.301 764.000,321.000" stroke-width="3.805" stroke="black" fill="none" stroke-linecap="round"></path><path d="M 764.000,321.000 C 767.833,320.036 767.479,319.454 771.000,318.000" stroke-width="4.310" stroke="black" fill="none" stroke-linecap="round"></path><path d="M 771.000,318.000 C 774.353,314.806 774.833,315.536 778.000,312.000" stroke-width="3.763" stroke="black" fill="none" stroke-linecap="round"></path><path d="M 778.000,312.000 C 781.336,310.410 780.853,309.806 784.000,308.000" stroke-width="3.892" stroke="black" fill="none" stroke-linecap="round"></path><path d="M 784.000,308.000 C 791.885,300.826 791.836,300.910 799.000,293.000" stroke-width="3.552" stroke="black" fill="none" stroke-linecap="round"></path><path d="M 799.000,293.000 C 801.256,289.293 801.885,289.826 804.000,286.000" stroke-width="3.678" stroke="black" fill="none" stroke-linecap="round"></path><path d="M 804.000,286.000 C 806.703,283.679 806.256,283.293 809.000,281.000" stroke-width="3.879" stroke="black" fill="none" stroke-linecap="round"></path><path d="M 809.000,281.000 C 812.537,276.528 812.703,276.679 816.000,272.000" stroke-width="3.443" stroke="black" fill="none" stroke-linecap="round"></path><path d="M 816.000,272.000 C 818.878,267.902 819.037,268.028 822.000,264.000" stroke-width="3.511" stroke="black" fill="none" stroke-linecap="round"></path><path d="M 822.000,264.000 C 825.070,260.558 824.878,260.402 828.000,257.000" stroke-width="3.655" stroke="black" fill="none" stroke-linecap="round"></path><path d="M 828.000,257.000 C 831.962,251.969 832.070,252.058 836.000,247.000" stroke-width="3.330" stroke="black" fill="none" stroke-linecap="round"></path><path d="M 836.000,247.000 C 838.390,243.900 838.462,243.969 841.000,241.000" stroke-width="3.633" stroke="black" fill="none" stroke-linecap="round"></path><path d="M 841.000,241.000 C 843.367,239.286 842.890,238.900 845.000,237.000" stroke-width="3.984" stroke="black" fill="none" stroke-linecap="round"></path><path d="M 845.000,237.000 C 848.399,232.202 848.367,232.286 851.000,227.000" stroke-width="3.443" stroke="black" fill="none" stroke-linecap="round"></path><path d="M 851.000,227.000 C 853.586,221.034 853.899,221.202 856.000,215.000" stroke-width="3.260" stroke="black" fill="none" stroke-linecap="round"></path><path d="M 856.000,215.000 C 857.650,211.050 857.586,211.034 859.000,207.000" stroke-width="3.584" stroke="black" fill="none" stroke-linecap="round"></path><path d="M 859.000,207.000 C 859.476,203.267 860.150,203.550 861.000,200.000" stroke-width="3.825" stroke="black" fill="none" stroke-linecap="round"></path><path d="M 861.000,200.000 C 863.905,196.191 862.976,195.767 866.000,192.000" stroke-width="4.418" stroke="black" fill="none" stroke-linecap="round"></path><path d="M 866.000,192.000 C 866.598,188.804 867.405,189.191 868.000,186.000" stroke-width="5.183" stroke="black" fill="none" stroke-linecap="round"></path><path d="M 868.000,186.000 C 870.187,183.108 869.598,182.804 872.000,180.000" stroke-width="4.253" stroke="black" fill="none" stroke-linecap="round"></path><path d="M 872.000,180.000 C 873.410,176.952 873.687,177.108 875.000,174.000" stroke-width="4.046" stroke="black" fill="none" stroke-linecap="round"></path><path d="M 875.000,174.000 C 877.319,170.643 876.910,170.452 879.000,167.000" stroke-width="3.827" stroke="black" fill="none" stroke-linecap="round"></path><path d="M 879.000,167.000 C 880.000,164.000 880.319,164.143 881.000,161.000" stroke-width="3.968" stroke="black" fill="none" stroke-linecap="round"></path><path d="M 881.000,161.000 C 881.787,157.912 882.000,158.000 883.000,155.000" stroke-width="4.059" stroke="black" fill="none" stroke-linecap="round"></path><path d="M 883.000,155.000 C 884.713,152.088 884.287,151.912 886.000,149.000" stroke-width="4.041" stroke="black" fill="none" stroke-linecap="round"></path><path d="M 886.000,149.000 C 886.699,145.862 887.213,146.088 888.000,143.000" stroke-width="4.125" stroke="black" fill="none" stroke-linecap="round"></path><path d="M 888.000,143.000 C 892.273,139.273 889.199,140.362 891.000,138.000" stroke-width="4.724" stroke="black" fill="none" stroke-linecap="round"></path><path d="M 891.000,138.000 C 885.866,135.714 888.773,135.773 881.000,136.000" stroke-width="5.157" stroke="black" fill="none" stroke-linecap="round"></path><path d="M 881.000,136.000 C 877.099,136.869 877.366,136.214 874.000,139.000" stroke-width="4.250" stroke="black" fill="none" stroke-linecap="round"></path><path d="M 874.000,139.000 C 868.730,142.410 869.099,142.369 865.000,147.000" stroke-width="4.135" stroke="black" fill="none" stroke-linecap="round"></path><path d="M 865.000,147.000 C 863.000,151.000 862.230,150.410 861.000,155.000" stroke-width="3.810" stroke="black" fill="none" stroke-linecap="round"></path><path d="M 861.000,155.000 C 858.914,158.959 859.000,159.000 857.000,163.000" stroke-width="3.722" stroke="black" fill="none" stroke-linecap="round"></path><path d="M 857.000,163.000 C 854.700,168.601 854.414,168.459 852.000,174.000" stroke-width="4.012" stroke="black" fill="none" stroke-linecap="round"></path><path d="M 852.000,174.000 C 849.298,178.404 849.700,178.601 847.000,183.000" stroke-width="3.642" stroke="black" fill="none" stroke-linecap="round"></path><path d="M 847.000,183.000 C 846.200,185.599 845.798,185.404 845.000,188.000" stroke-width="4.021" stroke="black" fill="none" stroke-linecap="round"></path><path d="M 845.000,188.000 C 843.302,190.396 843.700,190.599 842.000,193.000" stroke-width="4.137" stroke="black" fill="none" stroke-linecap="round"></path><path d="M 842.000,193.000 C 839.886,198.709 839.302,198.396 837.000,204.000" stroke-width="4.123" stroke="black" fill="none" stroke-linecap="round"></path><path d="M 837.000,204.000 C 833.689,209.635 833.886,209.709 830.000,215.000" stroke-width="4.059" stroke="black" fill="none" stroke-linecap="round"></path><path d="M 830.000,215.000 C 828.124,217.611 828.189,217.635 826.000,220.000" stroke-width="4.122" stroke="black" fill="none" stroke-linecap="round"></path><path d="M 826.000,220.000 C 823.717,221.768 824.124,222.111 822.000,224.000" stroke-width="4.190" stroke="black" fill="none" stroke-linecap="round"></path><path d="M 822.000,224.000 C 819.326,228.767 818.717,228.268 816.000,233.000" stroke-width="3.569" stroke="black" fill="none" stroke-linecap="round"></path><path d="M 816.000,233.000 C 813.362,235.376 813.826,235.767 811.000,238.000" stroke-width="3.795" stroke="black" fill="none" stroke-linecap="round"></path><path d="M 811.000,238.000 C 808.691,240.294 808.862,240.376 807.000,243.000" stroke-width="3.948" stroke="black" fill="none" stroke-linecap="round"></path><path d="M 807.000,243.000 C 803.432,248.253 803.691,248.294 801.000,254.000" stroke-width="3.357" stroke="black" fill="none" stroke-linecap="round"></path><path d="M 801.000,254.000 C 798.700,261.576 797.932,261.253 796.000,269.000" stroke-width="3.703" stroke="black" fill="none" stroke-linecap="round"></path><path d="M 796.000,269.000 C 794.700,272.600 794.700,272.576 793.000,276.000" stroke-width="3.828" stroke="black" fill="none" stroke-linecap="round"></path><path d="M 793.000,276.000 C 791.286,279.698 791.200,279.600 789.000,283.000" stroke-width="4.305" stroke="black" fill="none" stroke-linecap="round"></path><path d="M 789.000,283.000 C 785.934,285.685 786.786,286.198 784.000,289.000" stroke-width="3.979" stroke="black" fill="none" stroke-linecap="round"></path><path d="M 784.000,289.000 C 783.045,292.015 782.434,291.685 782.000,295.000" stroke-width="4.016" stroke="black" fill="none" stroke-linecap="round"></path><path d="M 782.000,295.000 C 779.569,302.026 779.545,302.015 777.000,309.000" stroke-width="3.918" stroke="black" fill="none" stroke-linecap="round"></path><path d="M 777.000,309.000 C 775.850,311.449 776.069,311.526 775.000,314.000" stroke-width="4.159" stroke="black" fill="none" stroke-linecap="round"></path><path d="M 775.000,314.000 C 774.027,317.508 773.850,317.449 773.000,321.000" stroke-width="4.447" stroke="black" fill="none" stroke-linecap="round"></path><path d="M 773.000,321.000 C 771.500,326.000 771.527,326.008 770.000,331.000" stroke-width="4.324" stroke="black" fill="none" stroke-linecap="round"></path><path d="M 770.000,331.000 C 768.264,335.945 768.500,336.000 767.000,341.000" stroke-width="3.700" stroke="black" fill="none" stroke-linecap="round"></path><path d="M 767.000,341.000 C 766.796,344.083 766.264,343.945 766.000,347.000" stroke-width="3.955" stroke="black" fill="none" stroke-linecap="round"></path><path d="M 766.000,347.000 C 764.473,349.399 765.296,349.583 764.000,352.000" stroke-width="4.210" stroke="black" fill="none" stroke-linecap="round"></path><path d="M 764.000,352.000 C 764.000,355.000 763.473,354.899 764.000,358.000" stroke-width="4.126" stroke="black" fill="none" stroke-linecap="round"></path><path d="M 764.000,358.000 C 762.393,362.852 764.000,361.000 764.000,364.000" stroke-width="4.808" stroke="black" fill="none" stroke-linecap="round"></path><path d="M 764.000,364.000 C 767.482,363.251 765.893,365.352 771.000,363.000" stroke-width="5.313" stroke="black" fill="none" stroke-linecap="round"></path><path d="M 771.000,363.000 C 774.585,363.525 774.482,362.751 778.000,363.000" stroke-width="4.308" stroke="black" fill="none" stroke-linecap="round"></path><path d="M 778.000,363.000 C 781.029,362.080 781.085,362.525 784.000,361.000" stroke-width="4.573" stroke="black" fill="none" stroke-linecap="round"></path><path d="M 784.000,361.000 C 786.649,360.283 786.529,360.080 789.000,359.000" stroke-width="4.312" stroke="black" fill="none" stroke-linecap="round"></path><path d="M 789.000,359.000 C 792.087,357.119 792.149,357.283 795.000,355.000" stroke-width="4.520" stroke="black" fill="none" stroke-linecap="round"></path><path d="M 795.000,355.000 C 797.541,353.049 797.587,353.119 800.000,351.000" stroke-width="4.652" stroke="black" fill="none" stroke-linecap="round"></path><path d="M 800.000,351.000 C 803.591,348.099 803.541,348.049 807.000,345.000" stroke-width="4.491" stroke="black" fill="none" stroke-linecap="round"></path><path d="M 807.000,345.000 C 809.000,343.000 809.091,343.099 811.000,341.000" stroke-width="4.298" stroke="black" fill="none" stroke-linecap="round"></path><path d="M 811.000,341.000 C 813.500,338.500 813.500,338.500 816.000,336.000" stroke-width="3.954" stroke="black" fill="none" stroke-linecap="round"></path><path d="M 816.000,336.000 C 818.000,334.000 818.000,334.000 820.000,332.000" stroke-width="4.137" stroke="black" fill="none" stroke-linecap="round"></path><path d="M 820.000,332.000 C 823.315,328.297 823.500,328.500 827.000,325.000" stroke-width="3.712" stroke="black" fill="none" stroke-linecap="round"></path><path d="M 827.000,325.000 C 833.127,320.139 832.815,319.797 839.000,315.000" stroke-width="3.493" stroke="black" fill="none" stroke-linecap="round"></path><path d="M 839.000,315.000 C 841.000,313.000 841.127,313.139 843.000,311.000" stroke-width="3.972" stroke="black" fill="none" stroke-linecap="round"></path><path d="M 843.000,311.000 C 844.679,308.588 845.000,309.000 847.000,307.000" stroke-width="4.099" stroke="black" fill="none" stroke-linecap="round"></path><path d="M 847.000,307.000 C 854.500,302.500 854.179,302.088 862.000,298.000" stroke-width="3.822" stroke="black" fill="none" stroke-linecap="round"></path><path d="M 862.000,298.000 C 864.776,296.853 864.500,296.500 867.000,295.000" stroke-width="4.071" stroke="black" fill="none" stroke-linecap="round"></path><path d="M 867.000,295.000 C 870.500,291.500 870.776,291.853 874.000,288.000" stroke-width="3.635" stroke="black" fill="none" stroke-linecap="round"></path><path d="M 874.000,288.000 C 876.624,285.613 876.500,285.500 879.000,283.000" stroke-width="3.817" stroke="black" fill="none" stroke-linecap="round"></path><path d="M 879.000,283.000 C 881.145,279.617 881.624,280.113 884.000,277.000" stroke-width="3.843" stroke="black" fill="none" stroke-linecap="round"></path><path d="M 884.000,277.000 C 887.358,274.276 887.145,274.117 891.000,272.000" stroke-width="4.274" stroke="black" fill="none" stroke-linecap="round"></path><path d="M 891.000,272.000 C 895.319,269.006 895.358,269.276 900.000,267.000" stroke-width="4.283" stroke="black" fill="none" stroke-linecap="round"></path><path d="M 900.000,267.000 C 902.470,266.195 902.319,266.006 905.000,266.000" stroke-width="4.353" stroke="black" fill="none" stroke-linecap="round"></path><path d="M 905.000,266.000 C 909.711,264.482 908.970,265.695 913.000,266.000" stroke-width="4.455" stroke="black" fill="none" stroke-linecap="round"></path><path d="M 913.000,266.000 C 916.765,268.542 916.211,267.482 918.000,272.000" stroke-width="4.852" stroke="black" fill="none" stroke-linecap="round"></path><path d="M 918.000,272.000 C 918.000,276.000 919.265,275.542 918.000,280.000" stroke-width="4.620" stroke="black" fill="none" stroke-linecap="round"></path><path d="M 918.000,280.000 C 918.289,283.529 918.000,283.500 918.000,287.000" stroke-width="4.651" stroke="black" fill="none" stroke-linecap="round"></path><path d="M 918.000,287.000 C 917.230,289.473 917.789,289.529 917.000,292.000" stroke-width="4.374" stroke="black" fill="none" stroke-linecap="round"></path><path d="M 917.000,292.000 C 917.000,295.000 916.730,294.973 917.000,298.000" stroke-width="4.902" stroke="black" fill="none" stroke-linecap="round"></path><path d="M 917.000,298.000 C 917.000,302.500 917.000,302.500 917.000,307.000" stroke-width="4.532" stroke="black" fill="none" stroke-linecap="round"></path><path d="M 917.000,307.000 C 916.568,310.547 917.000,310.500 917.000,314.000" stroke-width="4.806" stroke="black" fill="none" stroke-linecap="round"></path><path d="M 917.000,314.000 C 918.034,318.493 917.568,318.547 919.000,323.000" stroke-width="4.776" stroke="black" fill="none" stroke-linecap="round"></path><path d="M 919.000,323.000 C 918.703,325.893 919.534,325.493 920.000,328.000" stroke-width="4.407" stroke="black" fill="none" stroke-linecap="round"></path><path d="M 920.000,328.000 C 922.925,332.865 922.703,332.393 927.000,336.000" stroke-width="4.578" stroke="black" fill="none" stroke-linecap="round"></path><path d="M 927.000,336.000 C 929.921,337.487 929.425,337.865 933.000,338.000" stroke-width="4.181" stroke="black" fill="none" stroke-linecap="round"></path><path d="M 933.000,338.000 C 936.000,338.000 935.921,338.487 939.000,338.000" stroke-width="4.118" stroke="black" fill="none" stroke-linecap="round"></path><path d="M 939.000,338.000 C 942.512,338.218 942.500,338.000 946.000,338.000" stroke-width="4.023" stroke="black" fill="none" stroke-linecap="round"></path><path d="M 946.000,338.000 C 950.848,338.530 950.512,337.718 955.000,337.000" stroke-width="4.308" stroke="black" fill="none" stroke-linecap="round"></path><path d="M 955.000,337.000 C 960.432,334.553 960.348,335.030 965.000,331.000" stroke-width="3.511" stroke="black" fill="none" stroke-linecap="round"></path><path d="M 965.000,331.000 C 968.868,326.857 969.432,327.553 973.000,323.000" stroke-width="3.416" stroke="black" fill="none" stroke-linecap="round"></path><path d="M 973.000,323.000 C 976.624,320.134 976.368,319.857 980.000,317.000" stroke-width="3.522" stroke="black" fill="none" stroke-linecap="round"></path><path d="M 980.000,317.000 C 983.383,313.375 983.624,313.634 987.000,310.000" stroke-width="3.545" stroke="black" fill="none" stroke-linecap="round"></path><path d="M 987.000,310.000 C 991.490,306.948 990.883,306.375 995.000,303.000" stroke-width="4.033" stroke="black" fill="none" stroke-linecap="round"></path><path d="M 995.000,303.000 C 998.920,297.440 999.490,297.948 1003.000,292.000" stroke-width="3.283" stroke="black" fill="none" stroke-linecap="round"></path><path d="M 1003.000,292.000 C 1006.439,287.451 1006.420,287.440 1010.000,283.000" stroke-width="3.341" stroke="black" fill="none" stroke-linecap="round"></path><path d="M 1010.000,283.000 C 1012.364,279.876 1012.439,279.951 1015.000,277.000" stroke-width="3.685" stroke="black" fill="none" stroke-linecap="round"></path><path d="M 1015.000,277.000 C 1018.000,274.000 1017.864,273.876 1021.000,271.000" stroke-width="3.678" stroke="black" fill="none" stroke-linecap="round"></path><path d="M 1021.000,271.000 C 1024.000,268.000 1024.000,268.000 1027.000,265.000" stroke-width="4.202" stroke="black" fill="none" stroke-linecap="round"></path><path d="M 1027.000,265.000 C 1029.196,262.103 1029.500,262.500 1032.000,260.000" stroke-width="4.039" stroke="black" fill="none" stroke-linecap="round"></path><path d="M 1032.000,260.000 C 1035.403,257.799 1035.196,257.603 1039.000,256.000" stroke-width="4.960" stroke="black" fill="none" stroke-linecap="round"></path><path d="M 1039.000,256.000 C 1041.432,254.790 1041.403,254.799 1044.000,254.000" stroke-width="4.409" stroke="black" fill="none" stroke-linecap="round"></path><path d="M 1044.000,254.000 C 1047.948,252.579 1047.932,252.790 1052.000,252.000" stroke-width="3.897" stroke="black" fill="none" stroke-linecap="round"></path><path d="M 1052.000,252.000 C 1055.581,250.791 1054.948,251.579 1058.000,252.000" stroke-width="4.622" stroke="black" fill="none" stroke-linecap="round"></path><path d="M 1058.000,252.000 C 1060.291,254.314 1060.581,253.291 1062.000,257.000" stroke-width="4.945" stroke="black" fill="none" stroke-linecap="round"></path><path d="M 1062.000,257.000 C 1063.801,259.883 1063.791,259.814 1065.000,263.000" stroke-width="4.270" stroke="black" fill="none" stroke-linecap="round"></path><path d="M 1065.000,263.000 C 1066.746,266.449 1066.301,266.383 1067.000,270.000" stroke-width="4.032" stroke="black" fill="none" stroke-linecap="round"></path><path d="M 1067.000,270.000 C 1067.425,273.911 1067.246,273.449 1066.000,277.000" stroke-width="4.418" stroke="black" fill="none" stroke-linecap="round"></path><path d="M 1066.000,277.000 C 1063.283,279.838 1064.425,280.411 1061.000,283.000" stroke-width="4.509" stroke="black" fill="none" stroke-linecap="round"></path><path d="M 1061.000,283.000 C 1056.703,288.828 1056.783,288.838 1053.000,295.000" stroke-width="3.372" stroke="black" fill="none" stroke-linecap="round"></path><path d="M 1053.000,295.000 C 1050.890,298.949 1050.703,298.828 1049.000,303.000" stroke-width="3.586" stroke="black" fill="none" stroke-linecap="round"></path><path d="M 1049.000,303.000 C 1047.700,306.600 1047.390,306.449 1046.000,310.000" stroke-width="3.740" stroke="black" fill="none" stroke-linecap="round"></path><path d="M 1046.000,310.000 C 1044.031,313.518 1044.200,313.600 1042.000,317.000" stroke-width="3.740" stroke="black" fill="none" stroke-linecap="round"></path><path d="M 1042.000,317.000 C 1040.833,319.760 1040.531,319.518 1039.000,322.000" stroke-width="4.043" stroke="black" fill="none" stroke-linecap="round"></path><path d="M 1039.000,322.000 C 1036.168,325.184 1036.333,325.260 1033.000,328.000" stroke-width="3.835" stroke="black" fill="none" stroke-linecap="round"></path><path d="M 1033.000,328.000 C 1026.851,332.837 1027.168,333.184 1021.000,338.000" stroke-width="3.154" stroke="black" fill="none" stroke-linecap="round"></path><path d="M 1021.000,338.000 C 1018.624,340.638 1018.351,340.337 1016.000,343.000" stroke-width="3.642" stroke="black" fill="none" stroke-linecap="round"></path><path d="M 1016.000,343.000 C 1013.116,344.648 1013.624,345.138 1011.000,347.000" stroke-width="3.897" stroke="black" fill="none" stroke-linecap="round"></path><path d="M 1011.000,347.000 C 1009.119,350.087 1008.616,349.648 1007.000,353.000" stroke-width="3.883" stroke="black" fill="none" stroke-linecap="round"></path><path d="M 1007.000,353.000 C 1005.138,355.624 1005.119,355.587 1003.000,358.000" stroke-width="3.976" stroke="black" fill="none" stroke-linecap="round"></path><path d="M 1003.000,358.000 C 1000.649,360.663 1000.638,360.624 998.000,363.000" stroke-width="3.974" stroke="black" fill="none" stroke-linecap="round"></path><path d="M 998.000,363.000 C 992.097,368.122 992.149,368.163 986.000,373.000" stroke-width="3.111" stroke="black" fill="none" stroke-linecap="round"></path><path d="M 986.000,373.000 C 981.787,375.754 982.097,376.122 978.000,379.000" stroke-width="3.348" stroke="black" fill="none" stroke-linecap="round"></path><path d="M 978.000,379.000 C 974.876,381.885 974.787,381.754 972.000,385.000" stroke-width="3.621" stroke="black" fill="none" stroke-linecap="round"></path><path d="M 972.000,385.000 C 969.344,388.852 968.876,388.385 966.000,392.000" stroke-width="3.639" stroke="black" fill="none" stroke-linecap="round"></path><path d="M 966.000,392.000 C 960.549,396.561 960.844,396.852 955.000,401.000" stroke-width="3.150" stroke="black" fill="none" stroke-linecap="round"></path><path d="M 955.000,401.000 C 950.651,404.717 950.549,404.561 946.000,408.000" stroke-width="3.299" stroke="black" fill="none" stroke-linecap="round"></path><path d="M 946.000,408.000 C 941.561,409.948 942.151,410.717 938.000,413.000" stroke-width="3.463" stroke="black" fill="none" stroke-linecap="round"></path><path d="M 938.000,413.000 C 931.871,419.922 931.061,418.948 925.000,426.000" stroke-width="2.893" stroke="black" fill="none" stroke-linecap="round"></path><path d="M 925.000,426.000 C 918.721,431.324 918.871,431.422 912.000,436.000" stroke-width="2.928" stroke="black" fill="none" stroke-linecap="round"></path><path d="M 912.000,436.000 C 907.046,439.079 907.221,439.324 902.000,442.000" stroke-width="3.202" stroke="black" fill="none" stroke-linecap="round"></path><path d="M 902.000,442.000 C 897.598,444.701 897.546,444.579 893.000,447.000" stroke-width="3.353" stroke="black" fill="none" stroke-linecap="round"></path><path d="M 893.000,447.000 C 889.535,448.586 889.598,448.701 886.000,450.000" stroke-width="3.661" stroke="black" fill="none" stroke-linecap="round"></path><path d="M 886.000,450.000 C 881.992,451.479 882.035,451.586 878.000,453.000" stroke-width="3.665" stroke="black" fill="none" stroke-linecap="round"></path><path d="M 878.000,453.000 C 871.465,455.414 871.492,455.479 865.000,458.000" stroke-width="3.305" stroke="black" fill="none" stroke-linecap="round"></path><path d="M 865.000,458.000 C 861.400,459.300 861.465,459.414 858.000,461.000" stroke-width="3.690" stroke="black" fill="none" stroke-linecap="round"></path><path d="M 858.000,461.000 C 854.735,463.539 854.400,462.800 851.000,465.000" stroke-width="3.725" stroke="black" fill="none" stroke-linecap="round"></path><path d="M 851.000,465.000 C 843.011,467.535 843.235,468.039 835.000,470.000" stroke-width="2.982" stroke="black" fill="none" stroke-linecap="round"></path><path d="M 835.000,470.000 C 829.982,471.443 830.011,471.535 825.000,473.000" stroke-width="3.364" stroke="black" fill="none" stroke-linecap="round"></path><path d="M 825.000,473.000 C 822.058,474.235 821.982,473.943 819.000,475.000" stroke-width="3.847" stroke="black" fill="none" stroke-linecap="round"></path><path d="M 819.000,475.000 C 815.972,476.212 816.058,475.735 813.000,476.000" stroke-width="4.049" stroke="black" fill="none" stroke-linecap="round"></path><path d="M 813.000,476.000 C 808.860,475.379 808.972,475.712 805.000,474.000" stroke-width="4.574" stroke="black" fill="none" stroke-linecap="round"></path><path d="M 805.000,474.000 C 800.989,473.273 801.860,472.879 799.000,471.000" stroke-width="4.627" stroke="black" fill="none" stroke-linecap="round"></path><path d="M 799.000,471.000 C 798.000,468.514 797.489,469.273 798.000,466.000" stroke-width="5.243" stroke="black" fill="none" stroke-linecap="round"></path><path d="M 798.000,466.000 C 797.904,462.288 798.000,462.514 799.000,459.000" stroke-width="5.117" stroke="black" fill="none" stroke-linecap="round"></path><path d="M 799.000,459.000 C 800.700,456.599 799.904,456.288 802.000,454.000" stroke-width="4.378" stroke="black" fill="none" stroke-linecap="round"></path><path d="M 802.000,454.000 C 803.080,451.529 803.200,451.599 804.000,449.000" stroke-width="4.689" stroke="black" fill="none" stroke-linecap="round"></path><path d="M 804.000,449.000 C 805.000,446.000 805.080,446.029 806.000,443.000" stroke-width="4.711" stroke="black" fill="none" stroke-linecap="round"></path><path d="M 806.000,443.000 C 806.517,439.754 807.000,440.000 808.000,437.000" stroke-width="4.733" stroke="black" fill="none" stroke-linecap="round"></path><path d="M 808.000,437.000 C 810.379,433.407 810.017,433.254 813.000,430.000" stroke-width="4.759" stroke="black" fill="none" stroke-linecap="round"></path><path d="M 813.000,430.000 C 815.390,426.900 815.379,426.907 818.000,424.000" stroke-width="4.833" stroke="black" fill="none" stroke-linecap="round"></path><path d="M 818.000,424.000 C 819.713,421.601 819.890,421.900 822.000,420.000" stroke-width="4.387" stroke="black" fill="none" stroke-linecap="round"></path><path d="M 822.000,420.000 C 825.108,418.687 824.713,418.101 828.000,417.000" stroke-width="4.585" stroke="black" fill="none" stroke-linecap="round"></path><path d="M 828.000,417.000 C 830.911,414.854 831.108,415.187 834.000,413.000" stroke-width="4.589" stroke="black" fill="none" stroke-linecap="round"></path><path d="M 834.000,413.000 C 838.564,410.609 838.411,410.354 843.000,408.000" stroke-width="4.350" stroke="black" fill="none" stroke-linecap="round"></path><path d="M 843.000,408.000 C 847.207,405.782 847.064,405.609 851.000,403.000" stroke-width="4.387" stroke="black" fill="none" stroke-linecap="round"></path><path d="M 851.000,403.000 C 854.624,400.134 854.707,400.282 858.000,397.000" stroke-width="4.394" stroke="black" fill="none" stroke-linecap="round"></path><path d="M 858.000,397.000 C 861.367,393.354 861.624,393.634 865.000,390.000" stroke-width="3.771" stroke="black" fill="none" stroke-linecap="round"></path><path d="M 865.000,390.000 C 867.978,387.473 867.867,387.354 871.000,385.000" stroke-width="3.777" stroke="black" fill="none" stroke-linecap="round"></path><path d="M 871.000,385.000 C 873.541,383.049 873.478,382.973 876.000,381.000" stroke-width="3.988" stroke="black" fill="none" stroke-linecap="round"></path><path d="M 876.000,381.000 C 879.185,377.543 879.541,378.049 883.000,375.000" stroke-width="4.266" stroke="black" fill="none" stroke-linecap="round"></path><path d="M 883.000,375.000 C 888.401,371.800 888.185,371.543 894.000,369.000" stroke-width="4.132" stroke="black" fill="none" stroke-linecap="round"></path><path d="M 894.000,369.000 C 898.601,367.199 898.401,366.800 903.000,365.000" stroke-width="3.772" stroke="black" fill="none" stroke-linecap="round"></path><path d="M 903.000,365.000 C 906.518,363.031 906.601,363.199 910.000,361.000" stroke-width="3.750" stroke="black" fill="none" stroke-linecap="round"></path><path d="M 910.000,361.000 C 912.442,359.395 912.518,359.531 915.000,358.000" stroke-width="4.046" stroke="black" fill="none" stroke-linecap="round"></path><path d="M 915.000,358.000 C 918.091,356.662 917.942,356.395 921.000,355.000" stroke-width="3.988" stroke="black" fill="none" stroke-linecap="round"></path><path d="M 921.000,355.000 C 924.936,352.391 925.091,352.662 929.000,350.000" stroke-width="4.270" stroke="black" fill="none" stroke-linecap="round"></path><path d="M 929.000,350.000 C 933.451,347.408 933.436,347.391 938.000,345.000" stroke-width="3.639" stroke="black" fill="none" stroke-linecap="round"></path><path d="M 938.000,345.000 C 942.000,343.000 941.951,342.908 946.000,341.000" stroke-width="3.721" stroke="black" fill="none" stroke-linecap="round"></path><path d="M 946.000,341.000 C 948.841,339.053 949.000,339.500 952.000,338.000" stroke-width="3.888" stroke="black" fill="none" stroke-linecap="round"></path><path d="M 952.000,338.000 C 956.686,337.523 956.341,336.553 961.000,336.000" stroke-width="3.659" stroke="black" fill="none" stroke-linecap="round"></path><path d="M 961.000,336.000 C 965.032,334.063 965.186,334.523 969.000,332.000" stroke-width="4.197" stroke="black" fill="none" stroke-linecap="round"></path><path d="M 969.000,332.000 C 977.741,327.894 977.532,327.563 986.000,323.000" stroke-width="2.970" stroke="black" fill="none" stroke-linecap="round"></path><path d="M 986.000,323.000 C 990.881,319.312 991.241,319.894 996.000,316.000" stroke-width="3.121" stroke="black" fill="none" stroke-linecap="round"></path><path d="M 996.000,316.000 C 999.544,314.074 999.381,313.812 1003.000,312.000" stroke-width="3.530" stroke="black" fill="none" stroke-linecap="round"></path><path d="M 1003.000,312.000 C 1006.909,309.338 1007.044,309.574 1011.000,307.000" stroke-width="3.591" stroke="black" fill="none" stroke-linecap="round"></path><path d="M 1011.000,307.000 C 1013.956,305.405 1013.909,305.338 1017.000,304.000" stroke-width="3.844" stroke="black" fill="none" stroke-linecap="round"></path><path d="M 1017.000,304.000 C 1020.443,302.355 1020.456,302.405 1024.000,301.000" stroke-width="3.872" stroke="black" fill="none" stroke-linecap="round"></path><path d="M 1024.000,301.000 C 1031.266,299.030 1030.943,298.355 1038.000,296.000" stroke-width="3.218" stroke="black" fill="none" stroke-linecap="round"></path><path d="M 1038.000,296.000 C 1041.120,294.160 1041.266,294.530 1044.000,292.000" stroke-width="3.697" stroke="black" fill="none" stroke-linecap="round"></path><path d="M 1044.000,292.000 C 1046.737,289.098 1047.120,289.660 1050.000,287.000" stroke-width="3.755" stroke="black" fill="none" stroke-linecap="round"></path><path d="M 1050.000,287.000 C 1054.000,285.000 1053.737,284.598 1058.000,283.000" stroke-width="3.706" stroke="black" fill="none" stroke-linecap="round"></path><path d="M 1058.000,283.000 C 1062.899,280.267 1063.000,280.500 1068.000,278.000" stroke-width="4.060" stroke="black" fill="none" stroke-linecap="round"></path><path d="M 1068.000,278.000 C 1071.888,275.881 1071.899,276.267 1076.000,275.000" stroke-width="3.777" stroke="black" fill="none" stroke-linecap="round"></path><path d="M 1076.000,275.000 C 1079.060,275.490 1078.888,274.381 1082.000,275.000" stroke-width="4.035" stroke="black" fill="none" stroke-linecap="round"></path><path d="M 1082.000,275.000 C 1088.165,273.945 1088.060,273.990 1094.000,272.000" stroke-width="4.097" stroke="black" fill="none" stroke-linecap="round"></path><path d="M 1094.000,272.000 C 1096.875,270.136 1097.165,270.945 1100.000,269.000" stroke-width="4.485" stroke="black" fill="none" stroke-linecap="round"></path><path d="M 1100.000,269.000 C 1102.612,268.853 1102.375,268.136 1105.000,268.000" stroke-width="4.329" stroke="black" fill="none" stroke-linecap="round"></path><path d="M 1105.000,268.000 C 1109.686,266.353 1109.612,266.353 1114.000,264.000" stroke-width="5.081" stroke="black" fill="none" stroke-linecap="round"></path><path d="M 1114.000,264.000 C 1120.379,259.783 1120.686,260.353 1127.000,256.000" stroke-width="3.387" stroke="black" fill="none" stroke-linecap="round"></path><path d="M 1127.000,256.000 C 1130.899,253.757 1130.879,253.783 1135.000,252.000" stroke-width="4.053" stroke="black" fill="none" stroke-linecap="round"></path><path d="M 1135.000,252.000 C 1137.942,250.765 1137.899,250.757 1141.000,250.000" stroke-width="4.038" stroke="black" fill="none" stroke-linecap="round"></path><path d="M 1141.000,250.000 C 1143.979,249.252 1143.942,249.265 1147.000,249.000" stroke-width="4.496" stroke="black" fill="none" stroke-linecap="round"></path><path d="M 1147.000,249.000 C 1150.027,248.730 1149.979,248.752 1153.000,249.000" stroke-width="4.677" stroke="black" fill="none" stroke-linecap="round"></path><path d="M 1153.000,249.000 C 1155.545,249.330 1155.527,249.230 1158.000,250.000" stroke-width="4.812" stroke="black" fill="none" stroke-linecap="round"></path><path d="M 1158.000,250.000 C 1161.664,250.131 1161.045,250.830 1164.000,252.000" stroke-width="4.930" stroke="black" fill="none" stroke-linecap="round"></path><path d="M 1164.000,252.000 C 1166.820,254.695 1166.664,254.131 1168.000,258.000" stroke-width="4.902" stroke="black" fill="none" stroke-linecap="round"></path><path d="M 1168.000,258.000 C 1169.000,261.997 1169.320,261.695 1169.000,266.000" stroke-width="4.087" stroke="black" fill="none" stroke-linecap="round"></path><path d="M 1169.000,266.000 C 1168.941,270.610 1169.000,270.497 1168.000,275.000" stroke-width="4.518" stroke="black" fill="none" stroke-linecap="round"></path><path d="M 1168.000,275.000 C 1167.036,277.515 1167.441,277.610 1166.000,280.000" stroke-width="4.343" stroke="black" fill="none" stroke-linecap="round"></path><path d="M 1166.000,280.000 C 1164.787,283.650 1164.536,283.515 1163.000,287.000" stroke-width="4.012" stroke="black" fill="none" stroke-linecap="round"></path><path d="M 1163.000,287.000 C 1160.813,291.249 1160.787,291.150 1158.000,295.000" stroke-width="4.278" stroke="black" fill="none" stroke-linecap="round"></path><path d="M 1158.000,295.000 C 1153.744,298.488 1156.313,297.249 1154.000,299.000" stroke-width="4.617" stroke="black" fill="none" stroke-linecap="round"></path><path d="M 1154.000,299.000 C 1156.982,298.681 1154.244,299.488 1159.000,297.000" stroke-width="5.146" stroke="black" fill="none" stroke-linecap="round"></path><path d="M 1159.000,297.000 C 1162.341,292.851 1162.982,293.681 1166.000,289.000" stroke-width="3.768" stroke="black" fill="none" stroke-linecap="round"></path><path d="M 1166.000,289.000 C 1171.844,282.832 1171.841,282.851 1178.000,277.000" stroke-width="2.976" stroke="black" fill="none" stroke-linecap="round"></path><path d="M 1178.000,277.000 C 1181.500,274.000 1181.344,273.832 1185.000,271.000" stroke-width="3.367" stroke="black" fill="none" stroke-linecap="round"></path><path d="M 1185.000,271.000 C 1188.516,268.019 1188.500,268.000 1192.000,265.000" stroke-width="3.558" stroke="black" fill="none" stroke-linecap="round"></path><path d="M 1192.000,265.000 C 1195.554,260.808 1196.016,261.519 1200.000,258.000" stroke-width="4.019" stroke="black" fill="none" stroke-linecap="round"></path><path d="M 1200.000,258.000 C 1205.384,255.184 1205.054,254.808 1211.000,253.000" stroke-width="3.478" stroke="black" fill="none" stroke-linecap="round"></path><path d="M 1211.000,253.000 C 1214.471,251.882 1214.384,251.684 1218.000,251.000" stroke-width="3.689" stroke="black" fill="none" stroke-linecap="round"></path><path d="M 1218.000,251.000 C 1220.470,250.195 1220.471,250.382 1223.000,250.000" stroke-width="4.113" stroke="black" fill="none" stroke-linecap="round"></path><path d="M 1223.000,250.000 C 1227.265,249.004 1226.970,249.695 1231.000,250.000" stroke-width="4.395" stroke="black" fill="none" stroke-linecap="round"></path><path d="M 1231.000,250.000 C 1234.952,251.460 1234.765,251.004 1238.000,254.000" stroke-width="4.482" stroke="black" fill="none" stroke-linecap="round"></path><path d="M 1238.000,254.000 C 1241.984,256.373 1240.952,256.460 1243.000,260.000" stroke-width="4.528" stroke="black" fill="none" stroke-linecap="round"></path><path d="M 1243.000,260.000 C 1244.635,269.512 1245.484,268.873 1245.000,279.000" stroke-width="3.025" stroke="black" fill="none" stroke-linecap="round"></path><path d="M 1245.000,279.000 C 1244.792,282.569 1245.135,282.512 1244.000,286.000" stroke-width="3.589" stroke="black" fill="none" stroke-linecap="round"></path><path d="M 1244.000,286.000 C 1242.814,288.948 1243.292,289.069 1242.000,292.000" stroke-width="3.839" stroke="black" fill="none" stroke-linecap="round"></path><path d="M 1242.000,292.000 C 1240.904,296.481 1240.814,296.448 1240.000,301.000" stroke-width="3.703" stroke="black" fill="none" stroke-linecap="round"></path><path d="M 1240.000,301.000 C 1239.735,304.058 1239.404,303.981 1239.000,307.000" stroke-width="4.000" stroke="black" fill="none" stroke-linecap="round"></path><path d="M 1239.000,307.000 C 1237.814,309.948 1238.235,310.058 1237.000,313.000" stroke-width="4.022" stroke="black" fill="none" stroke-linecap="round"></path><path d="M 1237.000,313.000 C 1236.450,317.649 1235.814,317.448 1235.000,322.000" stroke-width="3.752" stroke="black" fill="none" stroke-linecap="round"></path><path d="M 1235.000,322.000 C 1232.725,326.400 1233.450,326.649 1231.000,331.000" stroke-width="4.140" stroke="black" fill="none" stroke-linecap="round"></path><path d="M 1231.000,331.000 C 1229.817,334.459 1229.725,334.400 1229.000,338.000" stroke-width="3.997" stroke="black" fill="none" stroke-linecap="round"></path><path d="M 1229.000,338.000 C 1228.252,340.979 1228.317,340.959 1228.000,344.000" stroke-width="4.481" stroke="black" fill="none" stroke-linecap="round"></path><path d="M 1228.000,344.000 C 1226.511,347.617 1227.752,346.979 1228.000,350.000" stroke-width="4.201" stroke="black" fill="none" stroke-linecap="round"></path><path d="M 1228.000,350.000 C 1231.856,357.246 1231.511,355.617 1238.000,360.000" stroke-width="4.038" stroke="black" fill="none" stroke-linecap="round"></path><path d="M 1238.000,360.000 C 1247.460,362.013 1246.356,363.746 1257.000,363.000" stroke-width="2.871" stroke="black" fill="none" stroke-linecap="round"></path><path d="M 1257.000,363.000 C 1262.175,363.852 1261.960,363.513 1267.000,363.000" stroke-width="3.310" stroke="black" fill="none" stroke-linecap="round"></path><path d="M 1267.000,363.000 C 1270.636,361.770 1270.675,362.352 1274.000,360.000" stroke-width="3.645" stroke="black" fill="none" stroke-linecap="round"></path><path d="M 1274.000,360.000 C 1280.000,356.500 1280.136,356.770 1286.000,353.000" stroke-width="3.242" stroke="black" fill="none" stroke-linecap="round"></path><path d="M 1286.000,353.000 C 1292.020,349.534 1292.000,349.500 1298.000,346.000" stroke-width="3.138" stroke="black" fill="none" stroke-linecap="round"></path><path d="M 1298.000,346.000 C 1303.114,343.176 1303.020,343.034 1308.000,340.000" stroke-width="3.274" stroke="black" fill="none" stroke-linecap="round"></path><path d="M 1308.000,340.000 C 1313.023,336.532 1313.114,336.676 1318.000,333.000" stroke-width="3.215" stroke="black" fill="none" stroke-linecap="round"></path><path d="M 1318.000,333.000 C 1328.477,325.468 1328.523,325.532 1339.000,318.000" stroke-width="2.459" stroke="black" fill="none" stroke-linecap="round"></path><path d="M 1339.000,318.000 C 1343.923,314.385 1343.977,314.468 1349.000,311.000" stroke-width="2.978" stroke="black" fill="none" stroke-linecap="round"></path><path d="M 1349.000,311.000 C 1354.096,306.666 1354.423,307.385 1360.000,304.000" stroke-width="3.062" stroke="black" fill="none" stroke-linecap="round"></path><path d="M 1360.000,304.000 C 1369.826,299.713 1369.596,299.666 1380.000,297.000" stroke-width="2.649" stroke="black" fill="none" stroke-linecap="round"></path><path d="M 1380.000,297.000 C 1384.989,296.278 1384.826,295.713 1390.000,296.000" stroke-width="3.213" stroke="black" fill="none" stroke-linecap="round"></path><path d="M 1390.000,296.000 C 1394.329,297.147 1393.989,295.778 1398.000,296.000" stroke-width="3.571" stroke="black" fill="none" stroke-linecap="round"></path><path d="M 1398.000,296.000 C 1401.791,293.104 1402.329,294.647 1406.000,291.000" stroke-width="4.737" stroke="black" fill="none" stroke-linecap="round"></path><path d="M 1406.000,291.000 C 1413.719,286.588 1413.791,287.104 1422.000,284.000" stroke-width="3.090" stroke="black" fill="none" stroke-linecap="round"></path><path d="M 1422.000,284.000 C 1429.944,281.895 1429.719,281.588 1438.000,281.000" stroke-width="2.872" stroke="black" fill="none" stroke-linecap="round"></path><path d="M 1438.000,281.000 C 1443.502,280.869 1443.444,280.395 1449.000,281.000" stroke-width="3.232" stroke="black" fill="none" stroke-linecap="round"></path><path d="M 417.000,182.000 C 416.854,178.416 416.500,178.500 416.000,175.000" stroke-width="5.238" stroke="black" fill="none" stroke-linecap="round"></path><path d="M 416.000,175.000 C 415.250,170.125 414.854,170.416 413.000,166.000" stroke-width="3.914" stroke="black" fill="none" stroke-linecap="round"></path><path d="M 413.000,166.000 C 409.930,157.941 409.250,159.125 404.000,153.000" stroke-width="3.086" stroke="black" fill="none" stroke-linecap="round"></path><path d="M 404.000,153.000 C 394.147,145.247 394.930,145.441 383.000,141.000" stroke-width="2.508" stroke="black" fill="none" stroke-linecap="round"></path><path d="M 383.000,141.000 C 372.616,138.077 373.147,137.247 362.000,137.000" stroke-width="2.437" stroke="black" fill="none" stroke-linecap="round"></path><path d="M 362.000,137.000 C 338.017,134.231 338.116,134.577 314.000,134.000" stroke-width="1.668" stroke="black" fill="none" stroke-linecap="round"></path><path d="M 314.000,134.000 C 285.060,130.155 286.017,133.731 258.000,136.000" stroke-width="1.807" stroke="black" fill="none" stroke-linecap="round"></path><path d="M 258.000,136.000 C 221.291,144.163 222.560,143.655 189.000,161.000" stroke-width="1.253" stroke="black" fill="none" stroke-linecap="round"></path><path d="M 189.000,161.000 C 152.851,184.107 151.291,180.663 118.000,209.000" stroke-width="1.125" stroke="black" fill="none" stroke-linecap="round"></path><path d="M 118.000,209.000 C 96.957,224.369 96.851,224.107 77.000,241.000" stroke-width="1.210" stroke="black" fill="none" stroke-linecap="round"></path><path d="M 77.000,241.000 C 65.998,248.742 66.957,249.369 58.000,259.000" stroke-width="1.773" stroke="black" fill="none" stroke-linecap="round"></path><path d="M 58.000,259.000 C 43.068,278.789 42.998,278.242 31.000,300.000" stroke-width="1.531" stroke="black" fill="none" stroke-linecap="round"></path><path d="M 31.000,300.000 C 25.704,308.132 26.568,307.789 25.000,317.000" stroke-width="2.211" stroke="black" fill="none" stroke-linecap="round"></path><path d="M 25.000,317.000 C 22.830,340.496 23.204,339.632 26.000,363.000" stroke-width="1.729" stroke="black" fill="none" stroke-linecap="round"></path><path d="M 26.000,363.000 C 28.377,376.676 27.830,375.996 35.000,388.000" stroke-width="2.031" stroke="black" fill="none" stroke-linecap="round"></path><path d="M 35.000,388.000 C 44.456,404.194 43.877,403.176 57.000,416.000" stroke-width="2.382" stroke="black" fill="none" stroke-linecap="round"></path><path d="M 57.000,416.000 C 62.851,419.802 61.456,420.194 69.000,420.000" stroke-width="2.915" stroke="black" fill="none" stroke-linecap="round"></path><path d="M 69.000,420.000 C 80.980,423.416 78.351,420.302 88.000,417.000" stroke-width="2.716" stroke="black" fill="none" stroke-linecap="round"></path><path d="M 88.000,417.000 C 192.564,320.797 191.480,322.416 290.000,218.000" stroke-width="1.125" stroke="black" fill="none" stroke-linecap="round"></path><path d="M 290.000,218.000 C 343.991,154.906 347.064,157.797 397.000,91.000" stroke-width="1.125" stroke="black" fill="none" stroke-linecap="round"></path><path d="M 397.000,91.000 C 441.981,51.077 433.991,46.406 470.000,1.000" stroke-width="1.125" stroke="black" fill="none" stroke-linecap="round"></path></svg>