<svg xmlns="http://www.w3.org/2000/svg" xmlns:xlink="http://www.w3.org/1999/xlink" viewBox="0 0 453 236" width="453" height="236"><path d="M 39.500,169.000 C 42.749,167.317 42.500,167.000 45.500,165.000" stroke-width="4.393" stroke="black" fill="none" stroke-linecap="round"></path><path d="M 45.500,165.000 C 52.115,159.119 52.249,159.317 58.500,153.000" stroke-width="3.240" stroke="black" fill="none" stroke-linecap="round"></path><path d="M 58.500,153.000 C 64.138,147.631 64.115,147.619 69.500,142.000" stroke-width="2.958" stroke="black" fill="none" stroke-linecap="round"></path><path d="M 69.500,142.000 C 73.987,136.988 74.138,137.131 78.500,132.000" stroke-width="3.026" stroke="black" fill="none" stroke-linecap="round"></path><path d="M 78.500,132.000 C 83.745,126.705 83.487,126.488 88.500,121.000" stroke-width="2.948" stroke="black" fill="none" stroke-linecap="round"></path><path d="M 88.500,121.000 C 93.544,114.533 93.745,114.705 98.500,108.000" stroke-width="2.997" stroke="black" fill="none" stroke-linecap="round"></path><path d="M 98.500,108.000 C 104.379,99.906 104.544,100.033 110.500,92.000" stroke-width="2.631" stroke="black" fill="none" stroke-linecap="round"></path><path d="M 110.500,92.000 C 116.788,84.711 116.379,84.406 122.500,77.000" stroke-width="2.578" stroke="black" fill="none" stroke-linecap="round"></path><path d="M 122.500,77.000 C 126.874,71.217 126.788,71.211 130.500,65.000" stroke-width="2.887" stroke="black" fill="none" stroke-linecap="round"></path><path d="M 130.500,65.000 C 133.500,59.000 133.874,59.217 136.500,53.000" stroke-width="3.062" stroke="black" fill="none" stroke-linecap="round"></path><path d="M 136.500,53.000 C 138.610,49.051 138.500,49.000 140.500,45.000" stroke-width="3.425" stroke="black" fill="none" stroke-linecap="round"></path><path d="M 140.500,45.000 C 142.463,41.630 142.110,41.551 143.500,38.000" stroke-width="3.734" stroke="black" fill="none" stroke-linecap="round"></path><path d="M 143.500,38.000 C 144.500,34.486 144.463,34.630 144.500,31.000" stroke-width="3.849" stroke="black" fill="none" stroke-linecap="round"></path><path d="M 144.500,31.000 C 145.121,25.705 144.500,28.486 143.500,26.000" stroke-width="4.644" stroke="black" fill="none" stroke-linecap="round"></path><path d="M 143.500,26.000 C 138.009,28.942 139.621,26.705 133.500,33.000" stroke-width="4.279" stroke="black" fill="none" stroke-linecap="round"></path><path d="M 133.500,33.000 C 128.394,38.407 128.009,37.942 123.500,44.000" stroke-width="3.296" stroke="black" fill="none" stroke-linecap="round"></path><path d="M 123.500,44.000 C 117.817,50.354 117.894,50.407 112.500,57.000" stroke-width="2.874" stroke="black" fill="none" stroke-linecap="round"></path><path d="M 112.500,57.000 C 108.045,63.034 107.817,62.854 103.500,69.000" stroke-width="2.953" stroke="black" fill="none" stroke-linecap="round"></path><path d="M 103.500,69.000 C 99.881,73.412 100.045,73.534 96.500,78.000" stroke-width="3.325" stroke="black" fill="none" stroke-linecap="round"></path><path d="M 96.500,78.000 C 92.824,82.886 92.881,82.912 89.500,88.000" stroke-width="3.289" stroke="black" fill="none" stroke-linecap="round"></path><path d="M 89.500,88.000 C 86.466,92.980 86.324,92.886 83.500,98.000" stroke-width="3.322" stroke="black" fill="none" stroke-linecap="round"></path><path d="M 83.500,98.000 C 79.496,103.758 79.966,103.980 76.500,110.000" stroke-width="3.098" stroke="black" fill="none" stroke-linecap="round"></path><path d="M 76.500,110.000 C 73.619,116.379 73.496,116.258 71.500,123.000" stroke-width="3.094" stroke="black" fill="none" stroke-linecap="round"></path><path d="M 71.500,123.000 C 69.368,128.922 69.619,128.879 68.500,135.000" stroke-width="3.148" stroke="black" fill="none" stroke-linecap="round"></path><path d="M 68.500,135.000 C 68.780,139.520 67.868,139.422 68.500,144.000" stroke-width="3.501" stroke="black" fill="none" stroke-linecap="round"></path><path d="M 68.500,144.000 C 67.735,147.481 68.280,147.520 67.500,151.000" stroke-width="3.772" stroke="black" fill="none" stroke-linecap="round"></path><path d="M 67.500,151.000 C 65.922,155.844 67.235,154.981 67.500,159.000" stroke-width="4.271" stroke="black" fill="none" stroke-linecap="round"></path><path d="M 67.500,159.000 C 70.245,161.644 68.922,161.844 73.500,163.000" stroke-width="4.920" stroke="black" fill="none" stroke-linecap="round"></path><path d="M 73.500,163.000 C 76.500,163.500 76.245,164.144 79.500,164.000" stroke-width="4.815" stroke="black" fill="none" stroke-linecap="round"></path><path d="M 79.500,164.000 C 82.479,164.748 82.500,164.500 85.500,165.000" stroke-width="4.799" stroke="black" fill="none" stroke-linecap="round"></path><path d="M 85.500,165.000 C 88.636,165.661 88.479,165.248 91.500,165.000" stroke-width="4.755" stroke="black" fill="none" stroke-linecap="round"></path><path d="M 91.500,165.000 C 95.150,163.787 95.136,164.161 98.500,162.000" stroke-width="4.624" stroke="black" fill="none" stroke-linecap="round"></path><path d="M 98.500,162.000 C 102.960,160.034 102.650,159.787 106.500,157.000" stroke-width="4.487" stroke="black" fill="none" stroke-linecap="round"></path><path d="M 106.500,157.000 C 110.036,153.833 109.960,154.034 112.500,150.000" stroke-width="4.423" stroke="black" fill="none" stroke-linecap="round"></path><path d="M 112.500,150.000 C 113.702,146.339 114.536,146.833 115.500,143.000" stroke-width="4.543" stroke="black" fill="none" stroke-linecap="round"></path><path d="M 115.500,143.000 C 117.687,140.108 117.202,139.839 119.500,137.000" stroke-width="4.576" stroke="black" fill="none" stroke-linecap="round"></path><path d="M 119.500,137.000 C 121.932,134.125 121.187,134.108 122.500,131.000" stroke-width="4.645" stroke="black" fill="none" stroke-linecap="round"></path><path d="M 122.500,131.000 C 123.108,127.149 122.932,128.625 121.500,126.000" stroke-width="5.137" stroke="black" fill="none" stroke-linecap="round"></path><path d="M 121.500,126.000 C 118.289,125.239 119.608,124.649 115.500,126.000" stroke-width="5.159" stroke="black" fill="none" stroke-linecap="round"></path><path d="M 115.500,126.000 C 112.360,126.907 112.789,126.739 110.500,129.000" stroke-width="5.081" stroke="black" fill="none" stroke-linecap="round"></path><path d="M 110.500,129.000 C 109.187,132.108 108.360,131.407 107.500,135.000" stroke-width="4.790" stroke="black" fill="none" stroke-linecap="round"></path><path d="M 107.500,135.000 C 105.098,137.804 105.687,138.108 103.500,141.000" stroke-width="4.869" stroke="black" fill="none" stroke-linecap="round"></path><path d="M 103.500,141.000 C 101.777,143.955 102.098,143.804 101.500,147.000" stroke-width="5.046" stroke="black" fill="none" stroke-linecap="round"></path><path d="M 101.500,147.000 C 100.892,150.851 101.277,149.455 102.500,152.000" stroke-width="5.279" stroke="black" fill="none" stroke-linecap="round"></path><path d="M 102.500,152.000 C 105.711,152.761 104.392,153.351 108.500,152.000" stroke-width="5.303" stroke="black" fill="none" stroke-linecap="round"></path><path d="M 108.500,152.000 C 111.216,150.777 111.211,151.261 113.500,149.000" stroke-width="5.273" stroke="black" fill="none" stroke-linecap="round"></path><path d="M 113.500,149.000 C 115.963,147.305 115.716,147.277 117.500,145.000" stroke-width="5.204" stroke="black" fill="none" stroke-linecap="round"></path><path d="M 117.500,145.000 C 118.730,142.568 118.963,142.805 119.500,140.000" stroke-width="5.108" stroke="black" fill="none" stroke-linecap="round"></path><path d="M 119.500,140.000 C 120.500,137.500 120.230,137.568 120.500,135.000" stroke-width="5.191" stroke="black" fill="none" stroke-linecap="round"></path><path d="M 120.500,135.000 C 120.230,130.000 120.500,132.500 119.500,130.000" stroke-width="5.303" stroke="black" fill="none" stroke-linecap="round"></path><path d="M 119.500,130.000 C 116.750,133.250 118.730,130.000 117.500,135.000" stroke-width="5.498" stroke="black" fill="none" stroke-linecap="round"></path><path d="M 117.500,135.000 C 119.899,136.527 118.250,136.750 122.500,137.000" stroke-width="5.542" stroke="black" fill="none" stroke-linecap="round"></path><path d="M 122.500,137.000 C 125.500,137.000 125.399,137.527 128.500,137.000" stroke-width="5.494" stroke="black" fill="none" stroke-linecap="round"></path><path d="M 128.500,137.000 C 132.000,137.000 132.000,137.000 135.500,137.000" stroke-width="5.217" stroke="black" fill="none" stroke-linecap="round"></path><path d="M 135.500,137.000 C 138.711,137.761 138.500,137.000 141.500,137.000" stroke-width="5.063" stroke="black" fill="none" stroke-linecap="round"></path><path d="M 141.500,137.000 C 143.808,134.979 144.211,136.261 146.500,134.000" stroke-width="5.052" stroke="black" fill="none" stroke-linecap="round"></path><path d="M 146.500,134.000 C 149.583,133.796 149.308,132.979 152.500,133.000" stroke-width="5.125" stroke="black" fill="none" stroke-linecap="round"></path><path d="M 152.500,133.000 C 154.906,131.648 155.083,132.296 157.500,131.000" stroke-width="5.078" stroke="black" fill="none" stroke-linecap="round"></path><path d="M 157.500,131.000 C 161.069,130.792 160.906,130.148 164.500,130.000" stroke-width="4.972" stroke="black" fill="none" stroke-linecap="round"></path><path d="M 164.500,130.000 C 167.442,128.765 167.569,129.292 170.500,128.000" stroke-width="4.979" stroke="black" fill="none" stroke-linecap="round"></path><path d="M 170.500,128.000 C 176.500,127.252 173.442,127.265 176.500,127.000" stroke-width="4.996" stroke="black" fill="none" stroke-linecap="round"></path><path d="M 176.500,127.000 C 173.421,126.513 176.500,126.752 170.500,127.000" stroke-width="5.304" stroke="black" fill="none" stroke-linecap="round"></path><path d="M 170.500,127.000 C 167.304,127.598 167.421,127.513 164.500,129.000" stroke-width="4.881" stroke="black" fill="none" stroke-linecap="round"></path><path d="M 164.500,129.000 C 161.649,131.283 161.304,130.598 158.500,133.000" stroke-width="4.674" stroke="black" fill="none" stroke-linecap="round"></path><path d="M 158.500,133.000 C 155.775,133.600 156.149,134.283 153.500,135.000" stroke-width="4.428" stroke="black" fill="none" stroke-linecap="round"></path><path d="M 153.500,135.000 C 149.269,137.734 149.275,137.600 145.500,141.000" stroke-width="4.349" stroke="black" fill="none" stroke-linecap="round"></path><path d="M 145.500,141.000 C 141.710,144.255 141.769,144.234 138.500,148.000" stroke-width="4.334" stroke="black" fill="none" stroke-linecap="round"></path><path d="M 138.500,148.000 C 135.384,151.233 135.710,151.255 133.500,155.000" stroke-width="4.459" stroke="black" fill="none" stroke-linecap="round"></path><path d="M 133.500,155.000 C 133.073,157.516 132.384,157.233 132.500,160.000" stroke-width="4.322" stroke="black" fill="none" stroke-linecap="round"></path><path d="M 132.500,160.000 C 130.500,164.068 131.573,164.016 130.500,168.000" stroke-width="4.528" stroke="black" fill="none" stroke-linecap="round"></path><path d="M 130.500,168.000 C 130.736,173.321 130.500,170.568 132.500,173.000" stroke-width="5.059" stroke="black" fill="none" stroke-linecap="round"></path><path d="M 132.500,173.000 C 137.338,169.842 136.236,172.321 141.500,166.000" stroke-width="4.410" stroke="black" fill="none" stroke-linecap="round"></path><path d="M 141.500,166.000 C 143.774,163.684 143.838,163.842 145.500,161.000" stroke-width="4.178" stroke="black" fill="none" stroke-linecap="round"></path><path d="M 145.500,161.000 C 147.946,156.469 148.274,156.684 150.500,152.000" stroke-width="4.295" stroke="black" fill="none" stroke-linecap="round"></path><path d="M 150.500,152.000 C 151.884,149.424 151.946,149.469 153.500,147.000" stroke-width="4.220" stroke="black" fill="none" stroke-linecap="round"></path><path d="M 153.500,147.000 C 155.617,143.145 155.884,143.424 158.500,140.000" stroke-width="4.405" stroke="black" fill="none" stroke-linecap="round"></path><path d="M 158.500,140.000 C 161.600,137.610 161.117,137.145 164.500,135.000" stroke-width="4.504" stroke="black" fill="none" stroke-linecap="round"></path><path d="M 164.500,135.000 C 167.821,129.811 166.600,133.110 168.500,131.000" stroke-width="5.070" stroke="black" fill="none" stroke-linecap="round"></path><path d="M 168.500,131.000 C 168.500,136.500 169.821,133.311 168.500,142.000" stroke-width="5.188" stroke="black" fill="none" stroke-linecap="round"></path><path d="M 168.500,142.000 C 168.811,147.026 168.500,147.000 168.500,152.000" stroke-width="4.569" stroke="black" fill="none" stroke-linecap="round"></path><path d="M 168.500,152.000 C 168.512,155.166 168.311,155.026 167.500,158.000" stroke-width="4.262" stroke="black" fill="none" stroke-linecap="round"></path><path d="M 167.500,158.000 C 165.861,162.223 166.012,162.166 163.500,166.000" stroke-width="3.782" stroke="black" fill="none" stroke-linecap="round"></path><path d="M 163.500,166.000 C 160.382,169.917 160.861,170.223 157.500,174.000" stroke-width="3.552" stroke="black" fill="none" stroke-linecap="round"></path><path d="M 157.500,174.000 C 154.438,178.460 154.382,178.417 151.500,183.000" stroke-width="3.575" stroke="black" fill="none" stroke-linecap="round"></path><path d="M 151.500,183.000 C 149.217,187.151 148.938,186.960 146.500,191.000" stroke-width="3.549" stroke="black" fill="none" stroke-linecap="round"></path><path d="M 146.500,191.000 C 143.061,195.549 143.217,195.651 139.500,200.000" stroke-width="3.420" stroke="black" fill="none" stroke-linecap="round"></path><path d="M 139.500,200.000 C 135.388,205.868 135.061,205.549 130.500,211.000" stroke-width="3.162" stroke="black" fill="none" stroke-linecap="round"></path><path d="M 130.500,211.000 C 125.108,216.124 125.388,216.368 119.500,221.000" stroke-width="2.986" stroke="black" fill="none" stroke-linecap="round"></path><path d="M 119.500,221.000 C 113.798,226.420 113.608,226.124 107.500,231.000" stroke-width="2.947" stroke="black" fill="none" stroke-linecap="round"></path><path d="M 107.500,231.000 C 102.699,234.401 102.798,234.420 97.500,237.000" stroke-width="3.155" stroke="black" fill="none" stroke-linecap="round"></path><path d="M 97.500,237.000 C 92.636,239.459 92.699,239.401 87.500,241.000" stroke-width="3.490" stroke="black" fill="none" stroke-linecap="round"></path><path d="M 87.500,241.000 C 82.546,242.469 82.636,242.459 77.500,243.000" stroke-width="3.508" stroke="black" fill="none" stroke-linecap="round"></path><path d="M 77.500,243.000 C 73.000,243.000 73.046,243.469 68.500,243.000" stroke-width="3.625" stroke="black" fill="none" stroke-linecap="round"></path><path d="M 68.500,243.000 C 64.978,243.268 65.000,243.000 61.500,243.000" stroke-width="3.869" stroke="black" fill="none" stroke-linecap="round"></path><path d="M 61.500,243.000 C 57.198,243.910 58.478,242.768 55.500,242.000" stroke-width="4.011" stroke="black" fill="none" stroke-linecap="round"></path><path d="M 55.500,242.000 C 52.833,237.780 53.198,239.410 53.500,234.000" stroke-width="4.342" stroke="black" fill="none" stroke-linecap="round"></path><path d="M 53.500,234.000 C 54.875,228.424 54.333,229.280 58.500,225.000" stroke-width="3.719" stroke="black" fill="none" stroke-linecap="round"></path><path d="M 58.500,225.000 C 65.255,221.371 63.875,219.924 71.500,217.000" stroke-width="3.088" stroke="black" fill="none" stroke-linecap="round"></path><path d="M 71.500,217.000 C 79.653,209.985 80.255,210.871 88.500,204.000" stroke-width="2.706" stroke="black" fill="none" stroke-linecap="round"></path><path d="M 88.500,204.000 C 96.894,198.809 96.653,198.485 105.500,194.000" stroke-width="2.634" stroke="black" fill="none" stroke-linecap="round"></path><path d="M 105.500,194.000 C 113.900,189.300 113.894,189.309 122.500,185.000" stroke-width="2.578" stroke="black" fill="none" stroke-linecap="round"></path><path d="M 122.500,185.000 C 129.841,181.111 129.900,181.300 137.500,178.000" stroke-width="2.762" stroke="black" fill="none" stroke-linecap="round"></path><path d="M 137.500,178.000 C 146.083,175.218 145.841,174.611 154.500,172.000" stroke-width="2.679" stroke="black" fill="none" stroke-linecap="round"></path><path d="M 154.500,172.000 C 162.930,168.317 163.083,168.718 171.500,165.000" stroke-width="2.695" stroke="black" fill="none" stroke-linecap="round"></path><path d="M 171.500,165.000 C 178.480,162.442 178.430,162.317 185.500,160.000" stroke-width="2.902" stroke="black" fill="none" stroke-linecap="round"></path><path d="M 185.500,160.000 C 190.107,158.757 189.980,158.442 194.500,157.000" stroke-width="3.364" stroke="black" fill="none" stroke-linecap="round"></path><path d="M 212.500,178.000 C 215.000,177.000 215.000,177.000 217.500,176.000" stroke-width="5.470" stroke="black" fill="none" stroke-linecap="round"></path><path d="M 217.500,176.000 C 220.149,175.283 220.000,175.000 222.500,174.000" stroke-width="4.521" stroke="black" fill="none" stroke-linecap="round"></path><path d="M 222.500,174.000 C 225.578,172.110 225.649,172.283 228.500,170.000" stroke-width="4.677" stroke="black" fill="none" stroke-linecap="round"></path><path d="M 228.500,170.000 C 234.752,165.790 234.578,165.610 240.500,161.000" stroke-width="3.276" stroke="black" fill="none" stroke-linecap="round"></path><path d="M 240.500,161.000 C 243.376,157.864 243.752,158.290 246.500,155.000" stroke-width="3.546" stroke="black" fill="none" stroke-linecap="round"></path><path d="M 246.500,155.000 C 249.624,152.636 249.376,152.364 252.500,150.000" stroke-width="3.707" stroke="black" fill="none" stroke-linecap="round"></path><path d="M 252.500,150.000 C 255.500,147.000 255.624,147.136 258.500,144.000" stroke-width="3.685" stroke="black" fill="none" stroke-linecap="round"></path><path d="M 258.500,144.000 C 261.636,141.124 261.500,141.000 264.500,138.000" stroke-width="3.678" stroke="black" fill="none" stroke-linecap="round"></path><path d="M 264.500,138.000 C 267.000,135.000 267.136,135.124 269.500,132.000" stroke-width="3.800" stroke="black" fill="none" stroke-linecap="round"></path><path d="M 269.500,132.000 C 271.876,128.887 272.000,129.000 274.500,126.000" stroke-width="3.786" stroke="black" fill="none" stroke-linecap="round"></path><path d="M 274.500,126.000 C 277.000,123.500 276.876,123.387 279.500,121.000" stroke-width="3.866" stroke="black" fill="none" stroke-linecap="round"></path><path d="M 279.500,121.000 C 282.308,118.740 282.000,118.500 284.500,116.000" stroke-width="3.890" stroke="black" fill="none" stroke-linecap="round"></path><path d="M 284.500,116.000 C 285.832,113.383 286.308,113.740 287.500,111.000" stroke-width="4.050" stroke="black" fill="none" stroke-linecap="round"></path><path d="M 287.500,111.000 C 289.500,108.500 289.332,108.383 291.500,106.000" stroke-width="4.027" stroke="black" fill="none" stroke-linecap="round"></path><path d="M 291.500,106.000 C 293.376,103.389 293.500,103.500 295.500,101.000" stroke-width="4.020" stroke="black" fill="none" stroke-linecap="round"></path><path d="M 295.500,101.000 C 297.777,99.216 297.376,98.889 299.500,97.000" stroke-width="4.114" stroke="black" fill="none" stroke-linecap="round"></path><path d="M 299.500,97.000 C 300.808,94.369 301.277,94.716 302.500,92.000" stroke-width="4.120" stroke="black" fill="none" stroke-linecap="round"></path><path d="M 302.500,92.000 C 306.347,87.729 305.808,87.369 309.500,83.000" stroke-width="4.162" stroke="black" fill="none" stroke-linecap="round"></path><path d="M 309.500,83.000 C 311.891,78.436 312.347,78.729 314.500,74.000" stroke-width="4.249" stroke="black" fill="none" stroke-linecap="round"></path><path d="M 314.500,74.000 C 316.819,69.872 316.891,69.936 319.500,66.000" stroke-width="4.356" stroke="black" fill="none" stroke-linecap="round"></path><path d="M 319.500,66.000 C 321.668,63.617 321.319,63.372 323.500,61.000" stroke-width="4.614" stroke="black" fill="none" stroke-linecap="round"></path><path d="M 323.500,61.000 C 327.020,56.780 325.168,58.617 326.500,56.000" stroke-width="4.909" stroke="black" fill="none" stroke-linecap="round"></path><path d="M 326.500,56.000 C 323.662,56.487 326.020,55.280 321.500,58.000" stroke-width="5.277" stroke="black" fill="none" stroke-linecap="round"></path><path d="M 321.500,58.000 C 319.000,60.500 318.662,59.987 316.500,63.000" stroke-width="4.827" stroke="black" fill="none" stroke-linecap="round"></path><path d="M 316.500,63.000 C 313.000,66.500 313.000,66.500 309.500,70.000" stroke-width="4.466" stroke="black" fill="none" stroke-linecap="round"></path><path d="M 309.500,70.000 C 306.000,73.500 306.000,73.500 302.500,77.000" stroke-width="4.368" stroke="black" fill="none" stroke-linecap="round"></path><path d="M 302.500,77.000 C 299.500,80.000 299.500,80.000 296.500,83.000" stroke-width="4.442" stroke="black" fill="none" stroke-linecap="round"></path><path d="M 296.500,83.000 C 293.231,85.772 293.500,86.000 290.500,89.000" stroke-width="4.465" stroke="black" fill="none" stroke-linecap="round"></path><path d="M 290.500,89.000 C 287.706,92.323 287.731,92.272 285.500,96.000" stroke-width="4.482" stroke="black" fill="none" stroke-linecap="round"></path><path d="M 285.500,96.000 C 283.794,100.177 283.206,99.823 281.500,104.000" stroke-width="4.442" stroke="black" fill="none" stroke-linecap="round"></path><path d="M 281.500,104.000 C 278.507,107.237 279.294,107.677 276.500,111.000" stroke-width="4.456" stroke="black" fill="none" stroke-linecap="round"></path><path d="M 276.500,111.000 C 275.493,115.263 274.507,114.737 273.500,119.000" stroke-width="4.464" stroke="black" fill="none" stroke-linecap="round"></path><path d="M 273.500,119.000 C 270.823,122.387 271.493,122.763 268.500,126.000" stroke-width="4.443" stroke="black" fill="none" stroke-linecap="round"></path><path d="M 268.500,126.000 C 266.611,129.569 266.323,129.387 264.500,133.000" stroke-width="4.515" stroke="black" fill="none" stroke-linecap="round"></path><path d="M 264.500,133.000 C 262.313,135.892 262.611,136.069 260.500,139.000" stroke-width="4.585" stroke="black" fill="none" stroke-linecap="round"></path><path d="M 260.500,139.000 C 259.253,142.152 258.813,141.892 257.500,145.000" stroke-width="4.694" stroke="black" fill="none" stroke-linecap="round"></path><path d="M 257.500,145.000 C 254.747,148.348 255.253,148.652 252.500,152.000" stroke-width="4.529" stroke="black" fill="none" stroke-linecap="round"></path><path d="M 252.500,152.000 C 250.787,154.912 250.747,154.848 249.500,158.000" stroke-width="4.630" stroke="black" fill="none" stroke-linecap="round"></path><path d="M 249.500,158.000 C 248.801,161.138 248.287,160.912 247.500,164.000" stroke-width="4.693" stroke="black" fill="none" stroke-linecap="round"></path><path d="M 247.500,164.000 C 246.000,166.500 246.301,166.638 244.500,169.000" stroke-width="4.922" stroke="black" fill="none" stroke-linecap="round"></path><path d="M 244.500,169.000 C 241.500,174.000 243.000,171.500 241.500,174.000" stroke-width="5.156" stroke="black" fill="none" stroke-linecap="round"></path><path d="M 241.500,174.000 C 243.301,171.638 241.500,174.000 244.500,169.000" stroke-width="5.455" stroke="black" fill="none" stroke-linecap="round"></path><path d="M 244.500,169.000 C 245.199,165.862 245.801,166.138 246.500,163.000" stroke-width="5.299" stroke="black" fill="none" stroke-linecap="round"></path><path d="M 246.500,163.000 C 248.000,160.500 247.699,160.362 249.500,158.000" stroke-width="5.202" stroke="black" fill="none" stroke-linecap="round"></path><path d="M 249.500,158.000 C 250.832,155.383 251.000,155.500 252.500,153.000" stroke-width="5.078" stroke="black" fill="none" stroke-linecap="round"></path><path d="M 252.500,153.000 C 254.376,150.389 254.332,150.383 256.500,148.000" stroke-width="5.014" stroke="black" fill="none" stroke-linecap="round"></path><path d="M 256.500,148.000 C 258.213,145.601 258.376,145.889 260.500,144.000" stroke-width="5.041" stroke="black" fill="none" stroke-linecap="round"></path><path d="M 260.500,144.000 C 263.500,142.500 263.213,142.101 266.500,141.000" stroke-width="4.975" stroke="black" fill="none" stroke-linecap="round"></path><path d="M 266.500,141.000 C 269.375,139.136 269.500,139.500 272.500,138.000" stroke-width="5.085" stroke="black" fill="none" stroke-linecap="round"></path><path d="M 272.500,138.000 C 275.000,137.500 274.875,137.136 277.500,137.000" stroke-width="5.176" stroke="black" fill="none" stroke-linecap="round"></path><path d="M 277.500,137.000 C 280.000,136.000 280.000,136.500 282.500,136.000" stroke-width="5.208" stroke="black" fill="none" stroke-linecap="round"></path><path d="M 282.500,136.000 C 286.770,135.541 285.000,136.000 287.500,137.000" stroke-width="5.407" stroke="black" fill="none" stroke-linecap="round"></path><path d="M 287.500,137.000 C 287.180,140.079 288.270,138.541 285.500,142.000" stroke-width="5.447" stroke="black" fill="none" stroke-linecap="round"></path><path d="M 285.500,142.000 C 283.099,143.700 283.680,144.079 280.500,145.000" stroke-width="5.253" stroke="black" fill="none" stroke-linecap="round"></path><path d="M 280.500,145.000 C 278.068,146.230 278.099,146.200 275.500,147.000" stroke-width="4.954" stroke="black" fill="none" stroke-linecap="round"></path><path d="M 275.500,147.000 C 273.008,147.544 273.068,147.730 270.500,148.000" stroke-width="4.896" stroke="black" fill="none" stroke-linecap="round"></path><path d="M 270.500,148.000 C 267.442,148.265 267.508,148.544 264.500,149.000" stroke-width="4.979" stroke="black" fill="none" stroke-linecap="round"></path><path d="M 264.500,149.000 C 261.362,149.699 261.442,149.765 258.500,151.000" stroke-width="5.011" stroke="black" fill="none" stroke-linecap="round"></path><path d="M 258.500,151.000 C 255.100,151.866 255.862,152.199 253.500,154.000" stroke-width="5.243" stroke="black" fill="none" stroke-linecap="round"></path><path d="M 253.500,154.000 C 252.257,156.568 252.100,155.866 252.500,159.000" stroke-width="5.346" stroke="black" fill="none" stroke-linecap="round"></path><path d="M 252.500,159.000 C 253.037,161.805 252.757,161.568 254.500,164.000" stroke-width="5.417" stroke="black" fill="none" stroke-linecap="round"></path><path d="M 254.500,164.000 C 256.389,166.124 256.037,166.305 258.500,168.000" stroke-width="5.311" stroke="black" fill="none" stroke-linecap="round"></path><path d="M 258.500,168.000 C 260.784,170.370 260.889,170.124 263.500,172.000" stroke-width="5.088" stroke="black" fill="none" stroke-linecap="round"></path><path d="M 263.500,172.000 C 265.917,173.296 265.784,173.370 268.500,174.000" stroke-width="5.166" stroke="black" fill="none" stroke-linecap="round"></path><path d="M 268.500,174.000 C 271.479,174.748 271.417,174.796 274.500,175.000" stroke-width="5.160" stroke="black" fill="none" stroke-linecap="round"></path><path d="M 274.500,175.000 C 277.521,174.752 277.479,175.248 280.500,175.000" stroke-width="5.070" stroke="black" fill="none" stroke-linecap="round"></path><path d="M 280.500,175.000 C 283.479,175.748 283.521,175.252 286.500,176.000" stroke-width="5.126" stroke="black" fill="none" stroke-linecap="round"></path><path d="M 286.500,176.000 C 289.500,176.000 289.479,176.248 292.500,176.000" stroke-width="5.280" stroke="black" fill="none" stroke-linecap="round"></path><path d="M 292.500,176.000 C 295.601,176.527 295.500,176.000 298.500,176.000" stroke-width="5.487" stroke="black" fill="none" stroke-linecap="round"></path><path d="M 298.500,176.000 C 301.000,175.000 301.101,175.527 303.500,174.000" stroke-width="5.560" stroke="black" fill="none" stroke-linecap="round"></path><path d="M 303.500,174.000 C 306.000,173.000 306.000,173.000 308.500,172.000" stroke-width="5.503" stroke="black" fill="none" stroke-linecap="round"></path><path d="M 308.500,172.000 C 311.305,171.463 311.000,171.000 313.500,170.000" stroke-width="5.505" stroke="black" fill="none" stroke-linecap="round"></path><path d="M 313.500,170.000 C 315.500,168.000 315.805,168.463 317.500,166.000" stroke-width="5.405" stroke="black" fill="none" stroke-linecap="round"></path><path d="M 317.500,166.000 C 319.500,164.000 319.500,164.000 321.500,162.000" stroke-width="5.430" stroke="black" fill="none" stroke-linecap="round"></path><path d="M 321.500,162.000 C 324.185,160.367 323.500,160.000 325.500,158.000" stroke-width="5.448" stroke="black" fill="none" stroke-linecap="round"></path><path d="M 325.500,158.000 C 327.433,154.866 326.685,155.867 326.500,153.000" stroke-width="5.455" stroke="black" fill="none" stroke-linecap="round"></path><path d="M 326.500,153.000 C 324.167,150.533 325.433,150.866 321.500,150.000" stroke-width="5.479" stroke="black" fill="none" stroke-linecap="round"></path><path d="M 321.500,150.000 C 318.955,150.330 319.167,149.533 316.500,151.000" stroke-width="5.292" stroke="black" fill="none" stroke-linecap="round"></path><path d="M 316.500,151.000 C 313.139,151.416 313.455,151.830 310.500,153.000" stroke-width="5.079" stroke="black" fill="none" stroke-linecap="round"></path><path d="M 310.500,153.000 C 308.258,154.802 308.139,154.416 306.500,157.000" stroke-width="5.046" stroke="black" fill="none" stroke-linecap="round"></path><path d="M 306.500,157.000 C 303.964,159.778 304.258,159.802 302.500,163.000" stroke-width="5.079" stroke="black" fill="none" stroke-linecap="round"></path><path d="M 302.500,163.000 C 301.500,165.500 301.464,165.278 301.500,168.000" stroke-width="5.115" stroke="black" fill="none" stroke-linecap="round"></path><path d="M 301.500,168.000 C 301.100,171.134 301.500,170.500 302.500,173.000" stroke-width="5.273" stroke="black" fill="none" stroke-linecap="round"></path><path d="M 302.500,173.000 C 304.901,174.700 304.100,175.134 307.500,176.000" stroke-width="5.106" stroke="black" fill="none" stroke-linecap="round"></path><path d="M 307.500,176.000 C 309.932,177.230 309.901,177.200 312.500,178.000" stroke-width="5.072" stroke="black" fill="none" stroke-linecap="round"></path><path d="M 312.500,178.000 C 315.000,178.500 314.932,178.730 317.500,179.000" stroke-width="5.107" stroke="black" fill="none" stroke-linecap="round"></path><path d="M 317.500,179.000 C 319.971,179.789 320.000,179.500 322.500,180.000" stroke-width="4.940" stroke="black" fill="none" stroke-linecap="round"></path><path d="M 322.500,180.000 C 326.247,180.929 325.971,180.289 329.500,180.000" stroke-width="5.041" stroke="black" fill="none" stroke-linecap="round"></path><path d="M 329.500,180.000 C 333.268,178.351 333.247,178.929 336.500,176.000" stroke-width="5.115" stroke="black" fill="none" stroke-linecap="round"></path><path d="M 336.500,176.000 C 338.284,173.723 338.768,174.351 340.500,172.000" stroke-width="5.152" stroke="black" fill="none" stroke-linecap="round"></path><path d="M 340.500,172.000 C 343.500,171.000 342.784,170.223 345.500,169.000" stroke-width="5.168" stroke="black" fill="none" stroke-linecap="round"></path><path d="M 345.500,169.000 C 347.000,166.500 347.500,167.000 348.500,164.000" stroke-width="5.268" stroke="black" fill="none" stroke-linecap="round"></path><path d="M 348.500,164.000 C 352.000,161.000 350.000,161.500 351.500,159.000" stroke-width="5.262" stroke="black" fill="none" stroke-linecap="round"></path><path d="M 351.500,159.000 C 349.211,156.739 351.000,157.000 346.500,156.000" stroke-width="5.393" stroke="black" fill="none" stroke-linecap="round"></path><path d="M 346.500,156.000 C 342.608,154.682 343.711,155.239 340.500,156.000" stroke-width="5.289" stroke="black" fill="none" stroke-linecap="round"></path><path d="M 340.500,156.000 C 339.500,158.500 338.608,157.182 338.500,161.000" stroke-width="5.227" stroke="black" fill="none" stroke-linecap="round"></path><path d="M 338.500,161.000 C 336.973,163.399 337.500,163.500 336.500,166.000" stroke-width="5.217" stroke="black" fill="none" stroke-linecap="round"></path><path d="M 336.500,166.000 C 336.500,169.000 335.973,168.899 336.500,172.000" stroke-width="5.079" stroke="black" fill="none" stroke-linecap="round"></path><path d="M 336.500,172.000 C 335.084,175.875 336.500,175.000 336.500,178.000" stroke-width="5.195" stroke="black" fill="none" stroke-linecap="round"></path><path d="M 336.500,178.000 C 339.333,180.208 338.084,180.375 342.500,181.000" stroke-width="5.342" stroke="black" fill="none" stroke-linecap="round"></path><path d="M 342.500,181.000 C 345.500,181.000 345.333,181.708 348.500,181.000" stroke-width="5.271" stroke="black" fill="none" stroke-linecap="round"></path><path d="M 348.500,181.000 C 351.926,182.029 351.500,181.000 354.500,181.000" stroke-width="5.403" stroke="black" fill="none" stroke-linecap="round"></path><path d="M 354.500,181.000 C 356.389,178.876 356.926,180.029 358.500,177.000" stroke-width="5.395" stroke="black" fill="none" stroke-linecap="round"></path><path d="M 358.500,177.000 C 361.111,175.124 360.889,174.876 363.500,173.000" stroke-width="5.397" stroke="black" fill="none" stroke-linecap="round"></path><path d="M 363.500,173.000 C 365.500,171.000 365.611,171.124 367.500,169.000" stroke-width="5.397" stroke="black" fill="none" stroke-linecap="round"></path><path d="M 367.500,169.000 C 369.500,167.000 369.500,167.000 371.500,165.000" stroke-width="5.432" stroke="black" fill="none" stroke-linecap="round"></path><path d="M 371.500,165.000 C 373.500,163.000 373.500,163.000 375.500,161.000" stroke-width="5.418" stroke="black" fill="none" stroke-linecap="round"></path><path d="M 375.500,161.000 C 379.028,156.528 377.500,159.000 379.500,157.000" stroke-width="5.433" stroke="black" fill="none" stroke-linecap="round"></path><path d="M 379.500,157.000 C 378.713,160.088 380.028,157.528 377.500,163.000" stroke-width="5.534" stroke="black" fill="none" stroke-linecap="round"></path><path d="M 377.500,163.000 C 376.090,166.048 376.213,166.088 374.500,169.000" stroke-width="5.233" stroke="black" fill="none" stroke-linecap="round"></path><path d="M 374.500,169.000 C 372.410,172.452 372.590,172.548 370.500,176.000" stroke-width="4.954" stroke="black" fill="none" stroke-linecap="round"></path><path d="M 370.500,176.000 C 369.090,179.048 368.910,178.952 367.500,182.000" stroke-width="4.772" stroke="black" fill="none" stroke-linecap="round"></path><path d="M 367.500,182.000 C 365.677,185.613 365.590,185.548 363.500,189.000" stroke-width="4.593" stroke="black" fill="none" stroke-linecap="round"></path><path d="M 363.500,189.000 C 360.885,192.423 361.177,192.613 358.500,196.000" stroke-width="4.500" stroke="black" fill="none" stroke-linecap="round"></path><path d="M 358.500,196.000 C 356.115,200.077 355.885,199.923 353.500,204.000" stroke-width="4.390" stroke="black" fill="none" stroke-linecap="round"></path><path d="M 353.500,204.000 C 351.269,207.728 351.115,207.577 348.500,211.000" stroke-width="4.477" stroke="black" fill="none" stroke-linecap="round"></path><path d="M 348.500,211.000 C 345.500,214.000 345.769,214.228 342.500,217.000" stroke-width="4.455" stroke="black" fill="none" stroke-linecap="round"></path><path d="M 342.500,217.000 C 339.728,219.277 340.000,219.500 337.500,222.000" stroke-width="4.560" stroke="black" fill="none" stroke-linecap="round"></path><path d="M 337.500,222.000 C 335.884,225.352 335.228,224.777 333.500,228.000" stroke-width="4.632" stroke="black" fill="none" stroke-linecap="round"></path><path d="M 333.500,228.000 C 330.978,229.973 331.384,230.352 328.500,232.000" stroke-width="4.687" stroke="black" fill="none" stroke-linecap="round"></path><path d="M 328.500,232.000 C 325.649,234.710 325.478,234.473 322.500,237.000" stroke-width="4.570" stroke="black" fill="none" stroke-linecap="round"></path><path d="M 322.500,237.000 C 318.479,240.734 320.149,238.710 317.500,240.000" stroke-width="4.715" stroke="black" fill="none" stroke-linecap="round"></path><path d="M 317.500,240.000 C 317.324,236.744 316.479,239.234 318.500,234.000" stroke-width="5.184" stroke="black" fill="none" stroke-linecap="round"></path><path d="M 318.500,234.000 C 320.938,229.960 320.324,229.744 323.500,226.000" stroke-width="4.590" stroke="black" fill="none" stroke-linecap="round"></path><path d="M 323.500,226.000 C 326.336,221.381 326.438,221.460 329.500,217.000" stroke-width="4.359" stroke="black" fill="none" stroke-linecap="round"></path><path d="M 329.500,217.000 C 332.877,212.399 332.836,212.381 336.500,208.000" stroke-width="4.277" stroke="black" fill="none" stroke-linecap="round"></path><path d="M 336.500,208.000 C 339.875,203.883 339.877,203.899 343.500,200.000" stroke-width="4.283" stroke="black" fill="none" stroke-linecap="round"></path><path d="M 343.500,200.000 C 346.560,195.889 346.875,196.383 350.500,193.000" stroke-width="4.314" stroke="black" fill="none" stroke-linecap="round"></path><path d="M 350.500,193.000 C 354.625,191.215 354.060,190.389 358.500,189.000" stroke-width="4.391" stroke="black" fill="none" stroke-linecap="round"></path><path d="M 358.500,189.000 C 361.723,187.272 361.625,187.215 364.500,185.000" stroke-width="4.563" stroke="black" fill="none" stroke-linecap="round"></path><path d="M 364.500,185.000 C 366.777,182.228 367.223,182.772 369.500,180.000" stroke-width="4.611" stroke="black" fill="none" stroke-linecap="round"></path><path d="M 369.500,180.000 C 372.620,178.160 372.277,177.728 375.500,176.000" stroke-width="4.632" stroke="black" fill="none" stroke-linecap="round"></path><path d="M 375.500,176.000 C 378.380,173.340 378.620,173.660 381.500,171.000" stroke-width="4.554" stroke="black" fill="none" stroke-linecap="round"></path><path d="M 381.500,171.000 C 384.500,169.000 384.380,168.840 387.500,167.000" stroke-width="4.580" stroke="black" fill="none" stroke-linecap="round"></path><path d="M 387.500,167.000 C 390.304,164.598 390.500,165.000 393.500,163.000" stroke-width="4.810" stroke="black" fill="none" stroke-linecap="round"></path><path d="M 393.500,163.000 C 396.529,162.080 396.304,161.598 399.500,161.000" stroke-width="4.937" stroke="black" fill="none" stroke-linecap="round"></path><path d="M 399.500,161.000 C 402.750,158.250 402.029,160.080 404.500,159.000" stroke-width="5.174" stroke="black" fill="none" stroke-linecap="round"></path><path d="M 404.500,159.000 C 406.065,161.391 406.250,159.750 406.500,164.000" stroke-width="5.414" stroke="black" fill="none" stroke-linecap="round"></path><path d="M 406.500,164.000 C 407.065,167.609 407.065,167.391 406.500,171.000" stroke-width="5.301" stroke="black" fill="none" stroke-linecap="round"></path><path d="M 406.500,171.000 C 406.413,174.512 406.065,173.609 404.500,176.000" stroke-width="5.293" stroke="black" fill="none" stroke-linecap="round"></path><path d="M 404.500,176.000 C 401.000,177.000 401.913,178.012 397.500,178.000" stroke-width="5.053" stroke="black" fill="none" stroke-linecap="round"></path><path d="M 397.500,178.000 C 394.051,179.239 394.000,179.000 390.500,180.000" stroke-width="4.769" stroke="black" fill="none" stroke-linecap="round"></path><path d="M 390.500,180.000 C 387.019,180.765 387.051,180.739 383.500,181.000" stroke-width="4.654" stroke="black" fill="none" stroke-linecap="round"></path><path d="M 383.500,181.000 C 379.500,181.000 379.519,181.265 375.500,181.000" stroke-width="4.583" stroke="black" fill="none" stroke-linecap="round"></path><path d="M 375.500,181.000 C 367.450,181.000 372.000,181.000 368.500,181.000" stroke-width="4.640" stroke="black" fill="none" stroke-linecap="round"></path><path d="M 368.500,181.000 C 375.000,181.000 370.450,181.000 381.500,181.000" stroke-width="5.121" stroke="black" fill="none" stroke-linecap="round"></path><path d="M 381.500,181.000 C 386.500,181.000 386.500,181.000 391.500,181.000" stroke-width="4.553" stroke="black" fill="none" stroke-linecap="round"></path><path d="M 391.500,181.000 C 394.500,181.000 394.500,181.000 397.500,181.000" stroke-width="4.314" stroke="black" fill="none" stroke-linecap="round"></path><path d="M 397.500,181.000 C 402.557,181.520 402.500,181.000 407.500,181.000" stroke-width="4.337" stroke="black" fill="none" stroke-linecap="round"></path><path d="M 407.500,181.000 C 412.664,181.065 412.057,180.520 416.500,179.000" stroke-width="4.398" stroke="black" fill="none" stroke-linecap="round"></path><path d="M 416.500,179.000 C 418.668,176.617 419.164,177.565 420.500,174.000" stroke-width="4.613" stroke="black" fill="none" stroke-linecap="round"></path><path d="M 420.500,174.000 C 422.521,171.692 422.168,171.617 423.500,169.000" stroke-width="4.909" stroke="black" fill="none" stroke-linecap="round"></path><path d="M 423.500,169.000 C 425.561,165.122 424.521,166.192 424.500,163.000" stroke-width="4.990" stroke="black" fill="none" stroke-linecap="round"></path><path d="M 424.500,163.000 C 421.695,160.512 423.561,161.122 419.500,161.000" stroke-width="5.268" stroke="black" fill="none" stroke-linecap="round"></path><path d="M 419.500,161.000 C 417.037,162.695 417.195,161.512 415.500,165.000" stroke-width="5.116" stroke="black" fill="none" stroke-linecap="round"></path><path d="M 415.500,165.000 C 413.973,167.399 414.037,167.195 413.500,170.000" stroke-width="5.096" stroke="black" fill="none" stroke-linecap="round"></path><path d="M 413.500,170.000 C 411.919,174.193 412.973,172.899 413.500,176.000" stroke-width="5.197" stroke="black" fill="none" stroke-linecap="round"></path><path d="M 413.500,176.000 C 416.941,177.288 415.419,178.193 420.500,178.000" stroke-width="5.002" stroke="black" fill="none" stroke-linecap="round"></path><path d="M 420.500,178.000 C 424.500,179.000 424.441,178.788 428.500,179.000" stroke-width="4.634" stroke="black" fill="none" stroke-linecap="round"></path><path d="M 428.500,179.000 C 433.156,179.672 432.500,179.000 436.500,178.000" stroke-width="4.770" stroke="black" fill="none" stroke-linecap="round"></path><path d="M 436.500,178.000 C 438.500,175.500 439.156,176.672 440.500,173.000" stroke-width="4.728" stroke="black" fill="none" stroke-linecap="round"></path><path d="M 440.500,173.000 C 441.872,169.194 442.500,170.500 444.500,168.000" stroke-width="5.014" stroke="black" fill="none" stroke-linecap="round"></path><path d="M 444.500,168.000 C 448.000,168.000 447.372,166.694 451.500,168.000" stroke-width="5.277" stroke="black" fill="none" stroke-linecap="round"></path><path d="M 451.500,168.000 C 455.000,168.000 455.000,168.000 458.500,168.000" stroke-width="4.833" stroke="black" fill="none" stroke-linecap="round"></path><path d="M 458.500,168.000 C 464.658,167.026 464.500,168.000 470.500,168.000" stroke-width="4.340" stroke="black" fill="none" stroke-linecap="round"></path></svg>