<svg xmlns="http://www.w3.org/2000/svg" xmlns:xlink="http://www.w3.org/1999/xlink" viewBox="0 0 453 236" width="453" height="236"><path d="M 104.500,161.000 C 101.136,158.839 101.000,159.500 97.500,158.000" stroke-width="3.895" stroke="black" fill="none" stroke-linecap="round"></path><path d="M 97.500,158.000 C 94.500,158.000 94.636,157.339 91.500,158.000" stroke-width="4.522" stroke="black" fill="none" stroke-linecap="round"></path><path d="M 91.500,158.000 C 88.437,158.452 88.500,158.000 85.500,158.000" stroke-width="4.670" stroke="black" fill="none" stroke-linecap="round"></path><path d="M 85.500,158.000 C 81.921,157.222 81.937,157.452 78.500,156.000" stroke-width="4.627" stroke="black" fill="none" stroke-linecap="round"></path><path d="M 78.500,156.000 C 75.114,154.112 74.921,154.722 71.500,153.000" stroke-width="4.622" stroke="black" fill="none" stroke-linecap="round"></path><path d="M 71.500,153.000 C 65.755,153.021 68.614,152.112 65.500,152.000" stroke-width="4.890" stroke="black" fill="none" stroke-linecap="round"></path><path d="M 65.500,152.000 C 68.041,150.565 65.255,151.021 70.500,149.000" stroke-width="5.198" stroke="black" fill="none" stroke-linecap="round"></path><path d="M 70.500,149.000 C 73.620,147.160 73.541,147.065 76.500,145.000" stroke-width="4.197" stroke="black" fill="none" stroke-linecap="round"></path><path d="M 76.500,145.000 C 79.451,142.439 79.620,142.660 82.500,140.000" stroke-width="3.896" stroke="black" fill="none" stroke-linecap="round"></path><path d="M 82.500,140.000 C 87.049,136.561 86.951,136.439 91.500,133.000" stroke-width="3.510" stroke="black" fill="none" stroke-linecap="round"></path><path d="M 91.500,133.000 C 96.792,128.219 97.049,128.561 102.500,124.000" stroke-width="3.445" stroke="black" fill="none" stroke-linecap="round"></path><path d="M 102.500,124.000 C 108.537,120.055 108.292,119.719 114.500,116.000" stroke-width="3.153" stroke="black" fill="none" stroke-linecap="round"></path><path d="M 114.500,116.000 C 120.886,111.325 121.037,111.555 127.500,107.000" stroke-width="2.919" stroke="black" fill="none" stroke-linecap="round"></path><path d="M 127.500,107.000 C 134.000,103.000 133.886,102.825 140.500,99.000" stroke-width="2.950" stroke="black" fill="none" stroke-linecap="round"></path><path d="M 140.500,99.000 C 146.892,94.812 147.000,95.000 153.500,91.000" stroke-width="2.900" stroke="black" fill="none" stroke-linecap="round"></path><path d="M 153.500,91.000 C 160.019,87.535 159.892,87.312 166.500,84.000" stroke-width="3.031" stroke="black" fill="none" stroke-linecap="round"></path><path d="M 166.500,84.000 C 171.111,81.682 171.019,81.535 175.500,79.000" stroke-width="3.295" stroke="black" fill="none" stroke-linecap="round"></path><path d="M 175.500,79.000 C 179.751,75.514 180.111,76.182 184.500,73.000" stroke-width="3.394" stroke="black" fill="none" stroke-linecap="round"></path><path d="M 184.500,73.000 C 188.763,71.993 188.251,71.014 192.500,70.000" stroke-width="3.678" stroke="black" fill="none" stroke-linecap="round"></path><path d="M 192.500,70.000 C 195.923,67.385 196.263,67.993 199.500,65.000" stroke-width="3.718" stroke="black" fill="none" stroke-linecap="round"></path><path d="M 199.500,65.000 C 207.699,58.803 203.423,62.385 207.500,60.000" stroke-width="4.172" stroke="black" fill="none" stroke-linecap="round"></path><path d="M 207.500,60.000 C 203.000,65.500 207.199,61.803 198.500,71.000" stroke-width="4.527" stroke="black" fill="none" stroke-linecap="round"></path><path d="M 198.500,71.000 C 193.719,76.292 194.000,76.500 189.500,82.000" stroke-width="3.393" stroke="black" fill="none" stroke-linecap="round"></path><path d="M 189.500,82.000 C 185.604,88.072 185.219,87.792 181.500,94.000" stroke-width="3.077" stroke="black" fill="none" stroke-linecap="round"></path><path d="M 181.500,94.000 C 176.625,101.092 176.604,101.072 171.500,108.000" stroke-width="2.874" stroke="black" fill="none" stroke-linecap="round"></path><path d="M 171.500,108.000 C 165.122,116.596 165.125,116.592 158.500,125.000" stroke-width="2.710" stroke="black" fill="none" stroke-linecap="round"></path><path d="M 158.500,125.000 C 152.400,133.361 152.122,133.096 145.500,141.000" stroke-width="2.701" stroke="black" fill="none" stroke-linecap="round"></path><path d="M 145.500,141.000 C 138.361,148.900 138.400,148.861 130.500,156.000" stroke-width="2.559" stroke="black" fill="none" stroke-linecap="round"></path><path d="M 130.500,156.000 C 122.621,162.655 122.861,162.900 114.500,169.000" stroke-width="2.487" stroke="black" fill="none" stroke-linecap="round"></path><path d="M 114.500,169.000 C 106.687,175.269 106.621,175.155 98.500,181.000" stroke-width="2.555" stroke="black" fill="none" stroke-linecap="round"></path><path d="M 98.500,181.000 C 91.530,185.548 91.687,185.769 84.500,190.000" stroke-width="2.693" stroke="black" fill="none" stroke-linecap="round"></path><path d="M 84.500,190.000 C 76.699,195.354 76.530,195.048 68.500,200.000" stroke-width="2.614" stroke="black" fill="none" stroke-linecap="round"></path><path d="M 68.500,200.000 C 61.447,203.398 61.699,203.854 54.500,207.000" stroke-width="2.826" stroke="black" fill="none" stroke-linecap="round"></path><path d="M 54.500,207.000 C 48.189,210.913 47.947,210.398 41.500,214.000" stroke-width="2.895" stroke="black" fill="none" stroke-linecap="round"></path><path d="M 41.500,214.000 C 34.944,216.364 35.189,216.913 28.500,219.000" stroke-width="2.973" stroke="black" fill="none" stroke-linecap="round"></path><path d="M 28.500,219.000 C 24.135,221.378 23.944,220.864 19.500,223.000" stroke-width="3.362" stroke="black" fill="none" stroke-linecap="round"></path><path d="M 19.500,223.000 C 14.065,224.828 14.135,224.878 8.500,226.000" stroke-width="3.365" stroke="black" fill="none" stroke-linecap="round"></path><path d="M 8.500,226.000 C 4.490,226.430 4.565,226.828 0.500,227.000" stroke-width="3.668" stroke="black" fill="none" stroke-linecap="round"></path><path d="M 0.500,227.000 C -2.821,228.731 -2.510,227.430 -5.500,228.000" stroke-width="3.988" stroke="black" fill="none" stroke-linecap="round"></path><path d="M -5.500,228.000 C -10.500,226.426 -8.321,227.231 -10.500,224.000" stroke-width="4.638" stroke="black" fill="none" stroke-linecap="round"></path><path d="M -10.500,224.000 C -8.692,219.391 -10.500,220.426 -5.500,216.000" stroke-width="3.873" stroke="black" fill="none" stroke-linecap="round"></path><path d="M -5.500,216.000 C -0.258,211.146 -0.692,210.891 5.500,207.000" stroke-width="3.201" stroke="black" fill="none" stroke-linecap="round"></path><path d="M 5.500,207.000 C 12.270,202.097 12.242,202.146 19.500,198.000" stroke-width="2.941" stroke="black" fill="none" stroke-linecap="round"></path><path d="M 19.500,198.000 C 27.546,194.090 27.270,193.597 35.500,190.000" stroke-width="2.856" stroke="black" fill="none" stroke-linecap="round"></path><path d="M 35.500,190.000 C 44.852,184.694 45.046,185.090 54.500,180.000" stroke-width="2.522" stroke="black" fill="none" stroke-linecap="round"></path><path d="M 54.500,180.000 C 63.411,175.787 63.352,175.694 72.500,172.000" stroke-width="2.521" stroke="black" fill="none" stroke-linecap="round"></path><path d="M 72.500,172.000 C 81.420,168.279 81.411,168.287 90.500,165.000" stroke-width="2.540" stroke="black" fill="none" stroke-linecap="round"></path><path d="M 90.500,165.000 C 99.476,161.927 99.420,161.779 108.500,159.000" stroke-width="2.563" stroke="black" fill="none" stroke-linecap="round"></path><path d="M 108.500,159.000 C 117.933,155.769 117.976,155.927 127.500,153.000" stroke-width="2.522" stroke="black" fill="none" stroke-linecap="round"></path><path d="M 127.500,153.000 C 137.047,150.666 136.933,150.269 146.500,148.000" stroke-width="2.735" stroke="black" fill="none" stroke-linecap="round"></path><path d="M 146.500,148.000 C 156.541,145.130 156.547,145.166 166.500,142.000" stroke-width="2.522" stroke="black" fill="none" stroke-linecap="round"></path><path d="M 166.500,142.000 C 174.213,140.015 174.041,139.630 181.500,137.000" stroke-width="2.729" stroke="black" fill="none" stroke-linecap="round"></path><path d="M 181.500,137.000 C 188.500,133.500 188.713,134.015 195.500,130.000" stroke-width="2.808" stroke="black" fill="none" stroke-linecap="round"></path><path d="M 195.500,130.000 C 199.565,128.119 199.500,128.000 203.500,126.000" stroke-width="3.370" stroke="black" fill="none" stroke-linecap="round"></path><path d="M 203.500,126.000 C 209.396,124.075 206.065,124.619 208.500,123.000" stroke-width="3.940" stroke="black" fill="none" stroke-linecap="round"></path><path d="M 208.500,123.000 C 203.388,119.743 206.896,121.075 198.500,120.000" stroke-width="4.621" stroke="black" fill="none" stroke-linecap="round"></path><path d="M 198.500,120.000 C 194.026,122.060 193.888,120.243 189.500,124.000" stroke-width="3.825" stroke="black" fill="none" stroke-linecap="round"></path><path d="M 189.500,124.000 C 183.565,126.667 183.526,126.560 177.500,129.000" stroke-width="3.524" stroke="black" fill="none" stroke-linecap="round"></path><path d="M 177.500,129.000 C 170.349,131.146 170.565,131.667 163.500,134.000" stroke-width="3.141" stroke="black" fill="none" stroke-linecap="round"></path><path d="M 163.500,134.000 C 158.451,136.407 158.349,136.146 153.500,139.000" stroke-width="3.258" stroke="black" fill="none" stroke-linecap="round"></path><path d="M 153.500,139.000 C 147.867,141.780 147.951,141.907 142.500,145.000" stroke-width="3.244" stroke="black" fill="none" stroke-linecap="round"></path><path d="M 142.500,145.000 C 137.703,147.638 137.867,147.780 133.500,151.000" stroke-width="3.322" stroke="black" fill="none" stroke-linecap="round"></path><path d="M 133.500,151.000 C 130.500,154.000 130.203,153.638 127.500,157.000" stroke-width="3.612" stroke="black" fill="none" stroke-linecap="round"></path><path d="M 127.500,157.000 C 125.037,158.695 125.500,159.000 123.500,161.000" stroke-width="4.017" stroke="black" fill="none" stroke-linecap="round"></path><path d="M 123.500,161.000 C 121.902,163.385 122.037,163.195 121.500,166.000" stroke-width="4.192" stroke="black" fill="none" stroke-linecap="round"></path><path d="M 121.500,166.000 C 119.409,171.677 120.902,169.885 121.500,174.000" stroke-width="4.455" stroke="black" fill="none" stroke-linecap="round"></path><path d="M 121.500,174.000 C 125.949,175.465 123.909,176.677 130.500,176.000" stroke-width="4.414" stroke="black" fill="none" stroke-linecap="round"></path><path d="M 130.500,176.000 C 134.664,176.852 134.449,176.465 138.500,176.000" stroke-width="4.037" stroke="black" fill="none" stroke-linecap="round"></path><path d="M 138.500,176.000 C 143.593,174.208 143.664,174.852 148.500,172.000" stroke-width="3.602" stroke="black" fill="none" stroke-linecap="round"></path><path d="M 148.500,172.000 C 153.500,169.500 153.593,169.708 158.500,167.000" stroke-width="3.453" stroke="black" fill="none" stroke-linecap="round"></path><path d="M 158.500,167.000 C 163.561,164.615 163.500,164.500 168.500,162.000" stroke-width="3.514" stroke="black" fill="none" stroke-linecap="round"></path><path d="M 168.500,162.000 C 172.156,160.229 172.061,160.115 175.500,158.000" stroke-width="3.808" stroke="black" fill="none" stroke-linecap="round"></path><path d="M 175.500,158.000 C 178.508,156.435 178.156,156.229 180.500,154.000" stroke-width="4.040" stroke="black" fill="none" stroke-linecap="round"></path><path d="M 180.500,154.000 C 185.299,149.131 183.008,150.935 184.500,147.000" stroke-width="4.382" stroke="black" fill="none" stroke-linecap="round"></path><path d="M 184.500,147.000 C 181.019,146.235 183.799,145.131 177.500,146.000" stroke-width="4.586" stroke="black" fill="none" stroke-linecap="round"></path><path d="M 177.500,146.000 C 173.481,145.735 173.519,145.735 169.500,146.000" stroke-width="4.025" stroke="black" fill="none" stroke-linecap="round"></path><path d="M 169.500,146.000 C 165.496,145.402 165.981,146.235 162.500,147.000" stroke-width="3.988" stroke="black" fill="none" stroke-linecap="round"></path><path d="M 162.500,147.000 C 157.468,149.845 157.996,149.402 154.500,154.000" stroke-width="3.604" stroke="black" fill="none" stroke-linecap="round"></path><path d="M 154.500,154.000 C 153.010,157.431 152.468,156.845 152.500,161.000" stroke-width="4.237" stroke="black" fill="none" stroke-linecap="round"></path><path d="M 152.500,161.000 C 151.022,165.291 152.010,164.431 152.500,168.000" stroke-width="4.608" stroke="black" fill="none" stroke-linecap="round"></path><path d="M 152.500,168.000 C 155.182,171.052 154.022,170.791 158.500,172.000" stroke-width="4.927" stroke="black" fill="none" stroke-linecap="round"></path><path d="M 158.500,172.000 C 162.664,172.852 162.182,173.052 166.500,172.000" stroke-width="4.100" stroke="black" fill="none" stroke-linecap="round"></path><path d="M 166.500,172.000 C 171.649,170.320 171.664,170.852 176.500,168.000" stroke-width="3.554" stroke="black" fill="none" stroke-linecap="round"></path><path d="M 176.500,168.000 C 183.222,164.863 183.149,164.820 189.500,161.000" stroke-width="3.216" stroke="black" fill="none" stroke-linecap="round"></path><path d="M 189.500,161.000 C 195.955,156.434 196.222,156.863 202.500,152.000" stroke-width="2.999" stroke="black" fill="none" stroke-linecap="round"></path><path d="M 202.500,152.000 C 211.580,146.117 211.455,145.934 220.500,140.000" stroke-width="2.546" stroke="black" fill="none" stroke-linecap="round"></path><path d="M 220.500,140.000 C 229.311,134.397 229.080,134.117 237.500,128.000" stroke-width="2.475" stroke="black" fill="none" stroke-linecap="round"></path><path d="M 237.500,128.000 C 245.124,121.638 245.311,121.897 252.500,115.000" stroke-width="2.558" stroke="black" fill="none" stroke-linecap="round"></path><path d="M 252.500,115.000 C 260.106,108.110 260.124,108.138 267.500,101.000" stroke-width="2.551" stroke="black" fill="none" stroke-linecap="round"></path><path d="M 267.500,101.000 C 273.131,95.625 273.106,95.610 278.500,90.000" stroke-width="2.755" stroke="black" fill="none" stroke-linecap="round"></path><path d="M 278.500,90.000 C 283.544,84.539 283.631,84.625 288.500,79.000" stroke-width="2.866" stroke="black" fill="none" stroke-linecap="round"></path><path d="M 288.500,79.000 C 292.184,75.145 292.044,75.039 295.500,71.000" stroke-width="3.258" stroke="black" fill="none" stroke-linecap="round"></path><path d="M 295.500,71.000 C 297.920,67.440 298.184,67.645 300.500,64.000" stroke-width="3.528" stroke="black" fill="none" stroke-linecap="round"></path><path d="M 300.500,64.000 C 302.901,61.740 302.420,61.440 304.500,59.000" stroke-width="3.901" stroke="black" fill="none" stroke-linecap="round"></path><path d="M 304.500,59.000 C 309.136,53.432 306.401,55.740 307.500,52.000" stroke-width="4.363" stroke="black" fill="none" stroke-linecap="round"></path><path d="M 307.500,52.000 C 301.507,50.164 305.136,49.932 296.500,52.000" stroke-width="4.261" stroke="black" fill="none" stroke-linecap="round"></path><path d="M 296.500,52.000 C 286.846,57.249 286.507,55.664 277.500,63.000" stroke-width="2.735" stroke="black" fill="none" stroke-linecap="round"></path><path d="M 277.500,63.000 C 267.053,68.897 267.346,69.249 257.500,76.000" stroke-width="2.506" stroke="black" fill="none" stroke-linecap="round"></path><path d="M 257.500,76.000 C 247.658,83.627 247.553,83.397 238.500,92.000" stroke-width="2.347" stroke="black" fill="none" stroke-linecap="round"></path><path d="M 238.500,92.000 C 230.367,99.871 230.158,99.627 222.500,108.000" stroke-width="2.335" stroke="black" fill="none" stroke-linecap="round"></path><path d="M 222.500,108.000 C 215.169,115.219 215.367,115.371 208.500,123.000" stroke-width="2.424" stroke="black" fill="none" stroke-linecap="round"></path><path d="M 208.500,123.000 C 203.035,129.197 203.169,129.219 198.500,136.000" stroke-width="2.716" stroke="black" fill="none" stroke-linecap="round"></path><path d="M 198.500,136.000 C 195.061,141.309 195.035,141.197 192.500,147.000" stroke-width="3.061" stroke="black" fill="none" stroke-linecap="round"></path><path d="M 192.500,147.000 C 190.419,151.406 190.561,151.309 189.500,156.000" stroke-width="3.426" stroke="black" fill="none" stroke-linecap="round"></path><path d="M 189.500,156.000 C 188.257,159.515 188.919,158.906 189.500,162.000" stroke-width="3.907" stroke="black" fill="none" stroke-linecap="round"></path><path d="M 189.500,162.000 C 191.828,166.623 191.257,165.515 195.500,168.000" stroke-width="4.322" stroke="black" fill="none" stroke-linecap="round"></path><path d="M 195.500,168.000 C 200.792,169.318 199.828,169.623 205.500,168.000" stroke-width="3.802" stroke="black" fill="none" stroke-linecap="round"></path><path d="M 205.500,168.000 C 213.245,164.957 213.292,165.818 220.500,161.000" stroke-width="3.082" stroke="black" fill="none" stroke-linecap="round"></path><path d="M 220.500,161.000 C 229.591,155.642 229.745,155.957 238.500,150.000" stroke-width="2.931" stroke="black" fill="none" stroke-linecap="round"></path><path d="M 238.500,150.000 C 244.340,145.740 244.591,146.142 250.500,142.000" stroke-width="3.113" stroke="black" fill="none" stroke-linecap="round"></path><path d="M 250.500,142.000 C 265.380,133.280 258.340,137.240 266.500,133.000" stroke-width="2.815" stroke="black" fill="none" stroke-linecap="round"></path><path d="M 266.500,133.000 C 260.311,136.738 267.380,132.780 254.500,141.000" stroke-width="3.703" stroke="black" fill="none" stroke-linecap="round"></path><path d="M 254.500,141.000 C 245.335,147.801 245.311,147.738 236.500,155.000" stroke-width="2.818" stroke="black" fill="none" stroke-linecap="round"></path><path d="M 236.500,155.000 C 231.565,158.622 231.835,158.801 227.500,163.000" stroke-width="3.081" stroke="black" fill="none" stroke-linecap="round"></path><path d="M 227.500,163.000 C 221.500,168.286 225.065,165.622 223.500,169.000" stroke-width="3.598" stroke="black" fill="none" stroke-linecap="round"></path><path d="M 223.500,169.000 C 233.097,170.567 228.500,170.786 241.500,168.000" stroke-width="3.985" stroke="black" fill="none" stroke-linecap="round"></path><path d="M 241.500,168.000 C 250.732,163.374 251.097,165.067 259.500,158.000" stroke-width="2.779" stroke="black" fill="none" stroke-linecap="round"></path><path d="M 259.500,158.000 C 265.805,153.184 266.232,153.874 272.500,149.000" stroke-width="2.814" stroke="black" fill="none" stroke-linecap="round"></path><path d="M 272.500,149.000 C 277.902,145.799 277.805,145.684 283.500,143.000" stroke-width="3.044" stroke="black" fill="none" stroke-linecap="round"></path><path d="M 283.500,143.000 C 291.093,139.407 286.902,141.299 290.500,140.000" stroke-width="3.665" stroke="black" fill="none" stroke-linecap="round"></path><path d="M 290.500,140.000 C 285.143,142.518 289.593,140.907 280.500,146.000" stroke-width="4.374" stroke="black" fill="none" stroke-linecap="round"></path><path d="M 280.500,146.000 C 275.406,150.401 275.143,150.018 270.500,155.000" stroke-width="3.359" stroke="black" fill="none" stroke-linecap="round"></path><path d="M 270.500,155.000 C 266.539,157.505 267.406,157.901 264.500,161.000" stroke-width="3.575" stroke="black" fill="none" stroke-linecap="round"></path><path d="M 264.500,161.000 C 261.228,166.459 263.039,163.505 263.500,167.000" stroke-width="4.336" stroke="black" fill="none" stroke-linecap="round"></path><path d="M 263.500,167.000 C 274.780,167.838 271.728,168.959 285.500,166.000" stroke-width="3.646" stroke="black" fill="none" stroke-linecap="round"></path><path d="M 285.500,166.000 C 291.992,163.479 292.280,164.838 298.500,161.000" stroke-width="3.240" stroke="black" fill="none" stroke-linecap="round"></path><path d="M 298.500,161.000 C 302.637,159.783 302.492,159.479 306.500,158.000" stroke-width="3.527" stroke="black" fill="none" stroke-linecap="round"></path><path d="M 306.500,158.000 C 312.515,155.000 309.137,156.783 311.500,155.000" stroke-width="4.332" stroke="black" fill="none" stroke-linecap="round"></path><path d="M 311.500,155.000 C 305.840,156.058 309.515,155.000 300.500,158.000" stroke-width="4.225" stroke="black" fill="none" stroke-linecap="round"></path><path d="M 300.500,158.000 C 294.757,160.079 294.840,160.058 289.500,163.000" stroke-width="3.522" stroke="black" fill="none" stroke-linecap="round"></path><path d="M 289.500,163.000 C 285.500,165.000 285.757,165.079 282.500,168.000" stroke-width="3.800" stroke="black" fill="none" stroke-linecap="round"></path><path d="M 282.500,168.000 C 275.493,174.164 279.500,171.000 277.500,175.000" stroke-width="4.258" stroke="black" fill="none" stroke-linecap="round"></path><path d="M 277.500,175.000 C 286.891,176.228 281.493,176.664 294.500,173.000" stroke-width="4.195" stroke="black" fill="none" stroke-linecap="round"></path><path d="M 294.500,173.000 C 302.671,167.217 303.391,169.228 310.500,161.000" stroke-width="2.921" stroke="black" fill="none" stroke-linecap="round"></path><path d="M 310.500,161.000 C 319.640,153.662 319.671,153.717 328.500,146.000" stroke-width="2.443" stroke="black" fill="none" stroke-linecap="round"></path><path d="M 328.500,146.000 C 338.125,137.635 338.140,137.662 347.500,129.000" stroke-width="2.244" stroke="black" fill="none" stroke-linecap="round"></path><path d="M 347.500,129.000 C 357.250,120.250 357.125,120.135 366.500,111.000" stroke-width="2.224" stroke="black" fill="none" stroke-linecap="round"></path><path d="M 366.500,111.000 C 374.879,101.882 375.250,102.250 383.500,93.000" stroke-width="2.213" stroke="black" fill="none" stroke-linecap="round"></path><path d="M 383.500,93.000 C 391.638,85.133 391.379,84.882 399.500,77.000" stroke-width="2.294" stroke="black" fill="none" stroke-linecap="round"></path><path d="M 399.500,77.000 C 406.556,70.430 406.138,70.133 412.500,63.000" stroke-width="2.531" stroke="black" fill="none" stroke-linecap="round"></path><path d="M 412.500,63.000 C 416.199,57.612 416.556,57.930 419.500,52.000" stroke-width="3.002" stroke="black" fill="none" stroke-linecap="round"></path><path d="M 419.500,52.000 C 423.035,48.407 421.199,49.112 422.500,46.000" stroke-width="3.616" stroke="black" fill="none" stroke-linecap="round"></path><path d="M 422.500,46.000 C 420.130,42.585 422.035,43.907 417.500,43.000" stroke-width="4.405" stroke="black" fill="none" stroke-linecap="round"></path><path d="M 417.500,43.000 C 409.872,44.945 410.630,44.085 403.500,49.000" stroke-width="3.136" stroke="black" fill="none" stroke-linecap="round"></path><path d="M 403.500,49.000 C 393.273,55.729 393.372,55.445 384.500,64.000" stroke-width="2.517" stroke="black" fill="none" stroke-linecap="round"></path><path d="M 384.500,64.000 C 376.133,72.698 375.773,72.229 368.500,82.000" stroke-width="2.381" stroke="black" fill="none" stroke-linecap="round"></path><path d="M 368.500,82.000 C 359.992,92.150 360.133,92.198 352.500,103.000" stroke-width="2.362" stroke="black" fill="none" stroke-linecap="round"></path><path d="M 352.500,103.000 C 346.284,113.688 345.492,113.150 339.500,124.000" stroke-width="2.314" stroke="black" fill="none" stroke-linecap="round"></path><path d="M 339.500,124.000 C 333.268,132.347 333.784,132.688 327.500,141.000" stroke-width="2.404" stroke="black" fill="none" stroke-linecap="round"></path><path d="M 327.500,141.000 C 323.026,147.268 323.268,147.347 319.500,154.000" stroke-width="2.819" stroke="black" fill="none" stroke-linecap="round"></path><path d="M 319.500,154.000 C 317.753,157.929 317.526,157.768 316.500,162.000" stroke-width="3.408" stroke="black" fill="none" stroke-linecap="round"></path><path d="M 316.500,162.000 C 313.921,166.052 315.753,164.429 315.500,167.000" stroke-width="3.966" stroke="black" fill="none" stroke-linecap="round"></path><path d="M 315.500,167.000 C 321.224,169.091 318.921,169.052 326.500,168.000" stroke-width="4.197" stroke="black" fill="none" stroke-linecap="round"></path><path d="M 326.500,168.000 C 335.518,164.546 335.724,166.091 344.500,161.000" stroke-width="2.889" stroke="black" fill="none" stroke-linecap="round"></path><path d="M 344.500,161.000 C 354.418,156.781 354.518,157.046 364.500,153.000" stroke-width="2.707" stroke="black" fill="none" stroke-linecap="round"></path><path d="M 364.500,153.000 C 374.378,149.093 374.418,149.281 384.500,146.000" stroke-width="2.674" stroke="black" fill="none" stroke-linecap="round"></path><path d="M 384.500,146.000 C 392.387,143.352 392.378,143.593 400.500,142.000" stroke-width="2.852" stroke="black" fill="none" stroke-linecap="round"></path><path d="M 400.500,142.000 C 413.006,137.859 410.387,140.352 420.500,140.000" stroke-width="2.654" stroke="black" fill="none" stroke-linecap="round"></path><path d="M 420.500,140.000 C 424.076,145.424 423.506,140.859 421.500,148.000" stroke-width="3.733" stroke="black" fill="none" stroke-linecap="round"></path><path d="M 421.500,148.000 C 409.123,157.630 411.576,157.924 395.500,165.000" stroke-width="2.240" stroke="black" fill="none" stroke-linecap="round"></path><path d="M 395.500,165.000 C 378.333,173.820 378.623,174.130 360.500,181.000" stroke-width="1.907" stroke="black" fill="none" stroke-linecap="round"></path><path d="M 360.500,181.000 C 339.717,189.172 339.833,189.320 318.500,196.000" stroke-width="1.644" stroke="black" fill="none" stroke-linecap="round"></path><path d="M 318.500,196.000 C 296.180,203.204 296.217,203.172 273.500,209.000" stroke-width="1.490" stroke="black" fill="none" stroke-linecap="round"></path><path d="M 273.500,209.000 C 251.303,215.995 251.180,214.704 228.500,219.000" stroke-width="2.001" stroke="black" fill="none" stroke-linecap="round"></path><path d="M 228.500,219.000 C 186.536,223.844 186.803,224.495 144.500,226.000" stroke-width="1.125" stroke="black" fill="none" stroke-linecap="round"></path><path d="M 144.500,226.000 C 126.484,230.351 128.036,226.844 111.500,225.000" stroke-width="1.950" stroke="black" fill="none" stroke-linecap="round"></path><path d="M 111.500,225.000 C 90.236,215.272 91.484,217.851 74.500,201.000" stroke-width="1.610" stroke="black" fill="none" stroke-linecap="round"></path><path d="M 74.500,201.000 C 68.704,193.733 68.736,195.772 68.500,186.000" stroke-width="2.331" stroke="black" fill="none" stroke-linecap="round"></path><path d="M 68.500,186.000 C 68.506,173.405 68.204,174.733 73.500,163.000" stroke-width="2.350" stroke="black" fill="none" stroke-linecap="round"></path><path d="M 73.500,163.000 C 81.503,148.167 80.506,148.405 92.500,136.000" stroke-width="2.082" stroke="black" fill="none" stroke-linecap="round"></path><path d="M 92.500,136.000 C 105.485,122.140 105.003,122.167 120.500,111.000" stroke-width="1.894" stroke="black" fill="none" stroke-linecap="round"></path><path d="M 120.500,111.000 C 136.733,99.002 136.485,99.140 154.500,90.000" stroke-width="1.788" stroke="black" fill="none" stroke-linecap="round"></path><path d="M 154.500,90.000 C 174.496,80.001 174.233,80.002 195.500,73.000" stroke-width="1.620" stroke="black" fill="none" stroke-linecap="round"></path><path d="M 195.500,73.000 C 218.177,65.218 217.996,65.501 241.500,61.000" stroke-width="1.472" stroke="black" fill="none" stroke-linecap="round"></path><path d="M 241.500,61.000 C 265.439,57.322 265.177,56.718 289.500,56.000" stroke-width="1.467" stroke="black" fill="none" stroke-linecap="round"></path><path d="M 289.500,56.000 C 311.014,55.469 310.939,54.822 332.500,56.000" stroke-width="1.554" stroke="black" fill="none" stroke-linecap="round"></path><path d="M 332.500,56.000 C 351.926,54.904 351.514,56.469 370.500,58.000" stroke-width="1.630" stroke="black" fill="none" stroke-linecap="round"></path><path d="M 370.500,58.000 C 381.981,61.050 381.926,59.904 392.500,66.000" stroke-width="2.038" stroke="black" fill="none" stroke-linecap="round"></path><path d="M 392.500,66.000 C 400.957,68.685 398.981,69.050 404.500,74.000" stroke-width="2.693" stroke="black" fill="none" stroke-linecap="round"></path><path d="M 404.500,74.000 C 407.680,80.702 406.957,77.685 404.500,84.000" stroke-width="3.189" stroke="black" fill="none" stroke-linecap="round"></path><path d="M 404.500,84.000 C 391.993,94.973 394.180,94.702 377.500,102.000" stroke-width="2.193" stroke="black" fill="none" stroke-linecap="round"></path><path d="M 377.500,102.000 C 358.467,110.721 358.993,110.973 338.500,116.000" stroke-width="1.771" stroke="black" fill="none" stroke-linecap="round"></path><path d="M 338.500,116.000 C 314.673,121.793 314.967,122.221 290.500,125.000" stroke-width="1.584" stroke="black" fill="none" stroke-linecap="round"></path><path d="M 290.500,125.000 C 265.536,127.723 265.673,128.293 240.500,129.000" stroke-width="1.420" stroke="black" fill="none" stroke-linecap="round"></path><path d="M 240.500,129.000 C 216.502,129.714 216.536,130.223 192.500,130.000" stroke-width="1.455" stroke="black" fill="none" stroke-linecap="round"></path><path d="M 192.500,130.000 C 174.293,131.750 174.502,130.214 156.500,130.000" stroke-width="1.638" stroke="black" fill="none" stroke-linecap="round"></path><path d="M 156.500,130.000 C 143.337,128.553 143.793,128.750 131.500,124.000" stroke-width="1.970" stroke="black" fill="none" stroke-linecap="round"></path></svg>