<svg xmlns="http://www.w3.org/2000/svg" xmlns:xlink="http://www.w3.org/1999/xlink" viewBox="0 0 1460 590" width="1460" height="590"><path d="M 598.000,345.000 C 593.962,345.417 594.000,345.000 590.000,345.000" stroke-width="4.167" stroke="black" fill="none" stroke-linecap="round"></path><path d="M 590.000,345.000 C 584.399,344.350 584.462,344.417 579.000,343.000" stroke-width="3.593" stroke="black" fill="none" stroke-linecap="round"></path><path d="M 579.000,343.000 C 575.923,342.795 576.399,342.350 574.000,341.000" stroke-width="4.043" stroke="black" fill="none" stroke-linecap="round"></path><path d="M 574.000,341.000 C 563.552,335.054 568.423,335.795 564.000,329.000" stroke-width="3.934" stroke="black" fill="none" stroke-linecap="round"></path><path d="M 564.000,329.000 C 567.245,316.742 564.552,321.554 576.000,314.000" stroke-width="2.777" stroke="black" fill="none" stroke-linecap="round"></path><path d="M 576.000,314.000 C 611.425,306.370 608.745,303.742 647.000,303.000" stroke-width="1.264" stroke="black" fill="none" stroke-linecap="round"></path><path d="M 647.000,303.000 C 658.968,304.618 658.925,301.870 671.000,305.000" stroke-width="1.893" stroke="black" fill="none" stroke-linecap="round"></path><path d="M 671.000,305.000 C 721.999,306.113 721.968,306.618 773.000,307.000" stroke-width="1.498" stroke="black" fill="none" stroke-linecap="round"></path><path d="M 773.000,307.000 C 779.612,306.017 779.499,307.113 786.000,307.000" stroke-width="2.312" stroke="black" fill="none" stroke-linecap="round"></path><path d="M 786.000,307.000 C 801.702,307.851 799.112,309.017 812.000,313.000" stroke-width="2.842" stroke="black" fill="none" stroke-linecap="round"></path><path d="M 812.000,313.000 C 813.909,317.455 814.702,314.351 812.000,320.000" stroke-width="3.912" stroke="black" fill="none" stroke-linecap="round"></path><path d="M 812.000,320.000 C 797.792,330.019 807.909,325.455 800.000,329.000" stroke-width="3.147" stroke="black" fill="none" stroke-linecap="round"></path><path d="M 800.000,329.000 C 812.339,321.175 804.292,327.019 825.000,314.000" stroke-width="4.172" stroke="black" fill="none" stroke-linecap="round"></path><path d="M 825.000,314.000 C 827.408,312.726 827.339,312.675 830.000,312.000" stroke-width="4.241" stroke="black" fill="none" stroke-linecap="round"></path><path d="M 830.000,312.000 C 876.673,294.405 877.408,298.726 925.000,286.000" stroke-width="1.125" stroke="black" fill="none" stroke-linecap="round"></path><path d="M 925.000,286.000 C 980.898,278.939 980.173,276.405 1037.000,276.000" stroke-width="1.125" stroke="black" fill="none" stroke-linecap="round"></path><path d="M 1037.000,276.000 C 1085.999,275.350 1085.898,273.439 1135.000,275.000" stroke-width="1.125" stroke="black" fill="none" stroke-linecap="round"></path><path d="M 1135.000,275.000 C 1156.000,275.000 1155.999,274.850 1177.000,275.000" stroke-width="1.303" stroke="black" fill="none" stroke-linecap="round"></path><path d="M 1177.000,275.000 C 1184.000,275.000 1184.000,275.000 1191.000,275.000" stroke-width="2.215" stroke="black" fill="none" stroke-linecap="round"></path><path d="M 1191.000,275.000 C 1198.442,274.442 1195.000,275.000 1199.000,275.000" stroke-width="3.436" stroke="black" fill="none" stroke-linecap="round"></path><path d="M 1199.000,275.000 C 1196.071,276.269 1199.442,275.442 1193.000,277.000" stroke-width="4.390" stroke="black" fill="none" stroke-linecap="round"></path><path d="M 1193.000,277.000 C 1185.591,279.157 1185.571,278.769 1178.000,280.000" stroke-width="3.208" stroke="black" fill="none" stroke-linecap="round"></path><path d="M 1178.000,280.000 C 1158.521,282.040 1158.591,282.157 1139.000,283.000" stroke-width="1.915" stroke="black" fill="none" stroke-linecap="round"></path><path d="M 1139.000,283.000 C 1127.986,283.503 1128.021,283.540 1117.000,283.000" stroke-width="2.211" stroke="black" fill="none" stroke-linecap="round"></path><path d="M 1117.000,283.000 C 1062.529,278.947 1062.486,280.503 1008.000,277.000" stroke-width="1.125" stroke="black" fill="none" stroke-linecap="round"></path><path d="M 1008.000,277.000 C 978.497,277.268 978.529,275.947 949.000,277.000" stroke-width="1.125" stroke="black" fill="none" stroke-linecap="round"></path><path d="M 949.000,277.000 C 923.503,276.214 923.497,276.768 898.000,276.000" stroke-width="1.338" stroke="black" fill="none" stroke-linecap="round"></path><path d="M 898.000,276.000 C 863.935,274.731 864.003,275.714 830.000,276.000" stroke-width="1.181" stroke="black" fill="none" stroke-linecap="round"></path><path d="M 830.000,276.000 C 810.178,276.312 810.435,276.731 791.000,280.000" stroke-width="1.463" stroke="black" fill="none" stroke-linecap="round"></path><path d="M 791.000,280.000 C 771.258,284.838 771.178,283.812 752.000,291.000" stroke-width="1.551" stroke="black" fill="none" stroke-linecap="round"></path><path d="M 752.000,291.000 C 746.398,293.301 746.258,292.838 741.000,296.000" stroke-width="2.461" stroke="black" fill="none" stroke-linecap="round"></path><path d="M 741.000,296.000 C 737.548,298.090 737.398,297.801 734.000,300.000" stroke-width="3.275" stroke="black" fill="none" stroke-linecap="round"></path><path d="M 734.000,300.000 C 731.079,303.000 731.048,301.590 728.000,303.000" stroke-width="3.771" stroke="black" fill="none" stroke-linecap="round"></path></svg>