<svg xmlns="http://www.w3.org/2000/svg" xmlns:xlink="http://www.w3.org/1999/xlink" viewBox="0 0 692 590" width="692" height="590"><path d="M 217.000,327.000 C 208.123,323.921 208.000,324.500 199.000,322.000" stroke-width="4.991" stroke="black" fill="none" stroke-linecap="round"></path><path d="M 199.000,322.000 C 189.015,320.391 189.123,319.921 179.000,319.000" stroke-width="2.925" stroke="black" fill="none" stroke-linecap="round"></path><path d="M 179.000,319.000 C 170.986,318.101 171.015,317.891 163.000,317.000" stroke-width="2.898" stroke="black" fill="none" stroke-linecap="round"></path><path d="M 163.000,317.000 C 156.510,315.930 156.486,316.101 150.000,315.000" stroke-width="3.084" stroke="black" fill="none" stroke-linecap="round"></path><path d="M 150.000,315.000 C 142.497,314.022 142.510,313.930 135.000,313.000" stroke-width="2.946" stroke="black" fill="none" stroke-linecap="round"></path><path d="M 135.000,313.000 C 130.851,313.663 131.497,312.522 128.000,312.000" stroke-width="3.966" stroke="black" fill="none" stroke-linecap="round"></path><path d="M 128.000,312.000 C 125.152,309.228 124.851,310.163 123.000,306.000" stroke-width="3.887" stroke="black" fill="none" stroke-linecap="round"></path><path d="M 123.000,306.000 C 119.744,302.814 121.152,303.228 120.000,300.000" stroke-width="4.407" stroke="black" fill="none" stroke-linecap="round"></path><path d="M 120.000,300.000 C 121.348,296.591 120.244,297.314 124.000,295.000" stroke-width="4.948" stroke="black" fill="none" stroke-linecap="round"></path><path d="M 124.000,295.000 C 129.500,293.000 128.848,292.091 135.000,291.000" stroke-width="3.622" stroke="black" fill="none" stroke-linecap="round"></path><path d="M 135.000,291.000 C 140.391,288.650 140.500,289.000 146.000,287.000" stroke-width="3.470" stroke="black" fill="none" stroke-linecap="round"></path><path d="M 146.000,287.000 C 157.471,283.882 157.391,283.650 169.000,281.000" stroke-width="2.527" stroke="black" fill="none" stroke-linecap="round"></path><path d="M 169.000,281.000 C 179.514,278.558 179.471,278.382 190.000,276.000" stroke-width="2.548" stroke="black" fill="none" stroke-linecap="round"></path><path d="M 190.000,276.000 C 199.898,273.020 200.014,273.558 210.000,271.000" stroke-width="2.484" stroke="black" fill="none" stroke-linecap="round"></path><path d="M 210.000,271.000 C 230.035,267.686 229.898,267.020 250.000,264.000" stroke-width="1.782" stroke="black" fill="none" stroke-linecap="round"></path><path d="M 250.000,264.000 C 262.457,261.251 262.535,261.686 275.000,259.000" stroke-width="2.132" stroke="black" fill="none" stroke-linecap="round"></path><path d="M 275.000,259.000 C 281.960,257.000 281.957,257.751 289.000,257.000" stroke-width="2.666" stroke="black" fill="none" stroke-linecap="round"></path><path d="M 289.000,257.000 C 305.015,257.830 304.960,257.000 321.000,259.000" stroke-width="2.120" stroke="black" fill="none" stroke-linecap="round"></path><path d="M 321.000,259.000 C 325.655,258.914 325.515,259.330 330.000,260.000" stroke-width="3.010" stroke="black" fill="none" stroke-linecap="round"></path><path d="M 330.000,260.000 C 333.485,261.536 333.655,260.914 337.000,263.000" stroke-width="3.573" stroke="black" fill="none" stroke-linecap="round"></path><path d="M 337.000,263.000 C 341.061,263.122 339.485,264.036 342.000,265.000" stroke-width="3.995" stroke="black" fill="none" stroke-linecap="round"></path><path d="M 342.000,265.000 C 342.794,268.608 343.061,267.122 341.000,271.000" stroke-width="4.802" stroke="black" fill="none" stroke-linecap="round"></path><path d="M 341.000,271.000 C 328.807,286.847 329.294,286.608 315.000,301.000" stroke-width="2.017" stroke="black" fill="none" stroke-linecap="round"></path><path d="M 315.000,301.000 C 307.467,305.914 308.807,307.347 301.000,312.000" stroke-width="2.429" stroke="black" fill="none" stroke-linecap="round"></path><path d="M 301.000,312.000 C 291.456,322.970 290.467,321.914 281.000,333.000" stroke-width="2.173" stroke="black" fill="none" stroke-linecap="round"></path><path d="M 281.000,333.000 C 265.990,345.469 266.956,346.470 252.000,359.000" stroke-width="1.769" stroke="black" fill="none" stroke-linecap="round"></path><path d="M 252.000,359.000 C 236.670,376.223 235.490,374.969 220.000,392.000" stroke-width="1.535" stroke="black" fill="none" stroke-linecap="round"></path><path d="M 220.000,392.000 C 207.859,401.835 208.670,402.723 196.000,412.000" stroke-width="1.776" stroke="black" fill="none" stroke-linecap="round"></path><path d="M 196.000,412.000 C 176.375,428.861 176.359,428.835 157.000,446.000" stroke-width="1.437" stroke="black" fill="none" stroke-linecap="round"></path><path d="M 157.000,446.000 C 151.040,452.720 150.375,451.861 144.000,458.000" stroke-width="2.124" stroke="black" fill="none" stroke-linecap="round"></path><path d="M 144.000,458.000 C 136.801,463.099 137.040,463.220 129.000,467.000" stroke-width="2.540" stroke="black" fill="none" stroke-linecap="round"></path><path d="M 129.000,467.000 C 120.556,470.652 120.801,471.099 112.000,474.000" stroke-width="2.652" stroke="black" fill="none" stroke-linecap="round"></path><path d="M 112.000,474.000 C 109.091,475.558 109.056,475.152 106.000,476.000" stroke-width="3.523" stroke="black" fill="none" stroke-linecap="round"></path><path d="M 106.000,476.000 C 100.689,478.017 102.091,476.558 98.000,476.000" stroke-width="4.154" stroke="black" fill="none" stroke-linecap="round"></path><path d="M 98.000,476.000 C 93.881,471.775 94.689,473.517 94.000,467.000" stroke-width="4.297" stroke="black" fill="none" stroke-linecap="round"></path><path d="M 94.000,467.000 C 93.813,450.264 94.381,451.775 99.000,436.000" stroke-width="2.358" stroke="black" fill="none" stroke-linecap="round"></path><path d="M 99.000,436.000 C 104.344,429.363 101.813,428.264 110.000,423.000" stroke-width="2.603" stroke="black" fill="none" stroke-linecap="round"></path><path d="M 110.000,423.000 C 119.045,409.781 120.344,411.363 131.000,400.000" stroke-width="2.138" stroke="black" fill="none" stroke-linecap="round"></path><path d="M 131.000,400.000 C 147.319,387.548 146.545,387.281 165.000,378.000" stroke-width="1.782" stroke="black" fill="none" stroke-linecap="round"></path><path d="M 165.000,378.000 C 172.982,375.440 172.319,374.048 181.000,373.000" stroke-width="2.407" stroke="black" fill="none" stroke-linecap="round"></path><path d="M 181.000,373.000 C 195.993,368.476 195.982,368.440 211.000,364.000" stroke-width="2.090" stroke="black" fill="none" stroke-linecap="round"></path><path d="M 211.000,364.000 C 224.419,359.704 224.493,359.976 238.000,356.000" stroke-width="2.053" stroke="black" fill="none" stroke-linecap="round"></path><path d="M 238.000,356.000 C 252.000,352.500 251.919,352.204 266.000,349.000" stroke-width="2.075" stroke="black" fill="none" stroke-linecap="round"></path><path d="M 266.000,349.000 C 277.897,345.512 278.000,346.000 290.000,343.000" stroke-width="2.167" stroke="black" fill="none" stroke-linecap="round"></path><path d="M 290.000,343.000 C 304.448,340.147 304.397,340.012 319.000,338.000" stroke-width="2.091" stroke="black" fill="none" stroke-linecap="round"></path><path d="M 319.000,338.000 C 334.968,335.491 334.948,335.647 351.000,334.000" stroke-width="1.928" stroke="black" fill="none" stroke-linecap="round"></path><path d="M 351.000,334.000 C 356.508,334.220 356.468,333.491 362.000,334.000" stroke-width="2.773" stroke="black" fill="none" stroke-linecap="round"></path><path d="M 362.000,334.000 C 368.995,333.350 369.008,333.720 376.000,333.000" stroke-width="2.982" stroke="black" fill="none" stroke-linecap="round"></path><path d="M 376.000,333.000 C 380.804,330.716 378.995,332.850 382.000,333.000" stroke-width="3.680" stroke="black" fill="none" stroke-linecap="round"></path><path d="M 382.000,333.000 C 387.000,343.789 386.304,341.216 387.000,354.000" stroke-width="3.509" stroke="black" fill="none" stroke-linecap="round"></path><path d="M 387.000,354.000 C 384.868,359.219 387.000,359.289 382.000,364.000" stroke-width="3.427" stroke="black" fill="none" stroke-linecap="round"></path><path d="M 382.000,364.000 C 378.384,368.923 378.868,369.219 375.000,374.000" stroke-width="3.319" stroke="black" fill="none" stroke-linecap="round"></path><path d="M 375.000,374.000 C 372.681,378.128 372.384,377.923 370.000,382.000" stroke-width="3.470" stroke="black" fill="none" stroke-linecap="round"></path><path d="M 370.000,382.000 C 365.143,386.572 368.181,384.628 366.000,387.000" stroke-width="4.254" stroke="black" fill="none" stroke-linecap="round"></path><path d="M 366.000,387.000 C 370.075,385.682 367.143,387.572 374.000,384.000" stroke-width="4.659" stroke="black" fill="none" stroke-linecap="round"></path><path d="M 374.000,384.000 C 387.422,377.819 387.575,378.182 401.000,372.000" stroke-width="2.389" stroke="black" fill="none" stroke-linecap="round"></path><path d="M 401.000,372.000 C 419.330,365.181 418.922,364.319 437.000,357.000" stroke-width="1.867" stroke="black" fill="none" stroke-linecap="round"></path><path d="M 437.000,357.000 C 446.421,352.621 446.330,352.681 455.000,347.000" stroke-width="2.246" stroke="black" fill="none" stroke-linecap="round"></path><path d="M 455.000,347.000 C 459.971,341.661 460.921,343.121 466.000,338.000" stroke-width="2.713" stroke="black" fill="none" stroke-linecap="round"></path><path d="M 466.000,338.000 C 474.203,333.121 473.971,333.161 483.000,330.000" stroke-width="2.684" stroke="black" fill="none" stroke-linecap="round"></path><path d="M 483.000,330.000 C 489.953,328.057 489.703,327.621 497.000,327.000" stroke-width="2.932" stroke="black" fill="none" stroke-linecap="round"></path><path d="M 497.000,327.000 C 505.230,325.802 499.953,326.557 503.000,327.000" stroke-width="4.021" stroke="black" fill="none" stroke-linecap="round"></path><path d="M 503.000,327.000 C 461.994,347.918 478.230,340.302 443.000,356.000" stroke-width="3.149" stroke="black" fill="none" stroke-linecap="round"></path><path d="M 443.000,356.000 C 449.120,350.845 438.494,357.918 456.000,347.000" stroke-width="4.380" stroke="black" fill="none" stroke-linecap="round"></path><path d="M 456.000,347.000 C 465.862,340.102 466.120,341.345 477.000,337.000" stroke-width="2.827" stroke="black" fill="none" stroke-linecap="round"></path><path d="M 477.000,337.000 C 505.772,328.771 505.362,329.102 535.000,325.000" stroke-width="1.447" stroke="black" fill="none" stroke-linecap="round"></path><path d="M 535.000,325.000 C 552.500,325.000 552.272,322.771 570.000,325.000" stroke-width="1.701" stroke="black" fill="none" stroke-linecap="round"></path><path d="M 570.000,325.000 C 575.500,325.000 575.500,325.000 581.000,325.000" stroke-width="2.588" stroke="black" fill="none" stroke-linecap="round"></path><path d="M 581.000,325.000 C 586.000,325.000 586.000,325.000 591.000,325.000" stroke-width="3.189" stroke="black" fill="none" stroke-linecap="round"></path><path d="M 591.000,325.000 C 598.024,324.668 598.000,325.000 605.000,325.000" stroke-width="2.988" stroke="black" fill="none" stroke-linecap="round"></path><path d="M 605.000,325.000 C 612.234,325.533 608.524,325.168 612.000,326.000" stroke-width="3.988" stroke="black" fill="none" stroke-linecap="round"></path><path d="M 612.000,326.000 C 607.997,327.174 611.734,326.533 604.000,327.000" stroke-width="4.752" stroke="black" fill="none" stroke-linecap="round"></path><path d="M 604.000,327.000 C 596.484,326.109 596.497,326.674 589.000,325.000" stroke-width="3.276" stroke="black" fill="none" stroke-linecap="round"></path><path d="M 589.000,325.000 C 569.507,321.956 569.484,322.109 550.000,319.000" stroke-width="1.981" stroke="black" fill="none" stroke-linecap="round"></path><path d="M 550.000,319.000 C 519.832,315.424 520.007,314.456 490.000,310.000" stroke-width="1.283" stroke="black" fill="none" stroke-linecap="round"></path><path d="M 490.000,310.000 C 459.606,302.934 459.332,304.424 429.000,297.000" stroke-width="1.186" stroke="black" fill="none" stroke-linecap="round"></path><path d="M 429.000,297.000 C 410.665,292.098 410.606,293.434 392.000,291.000" stroke-width="1.495" stroke="black" fill="none" stroke-linecap="round"></path><path d="M 392.000,291.000 C 350.932,289.235 351.165,288.598 310.000,290.000" stroke-width="1.125" stroke="black" fill="none" stroke-linecap="round"></path><path d="M 310.000,290.000 C 297.455,291.188 297.432,290.235 285.000,293.000" stroke-width="1.673" stroke="black" fill="none" stroke-linecap="round"></path><path d="M 285.000,293.000 C 270.017,295.611 269.955,295.188 255.000,298.000" stroke-width="1.945" stroke="black" fill="none" stroke-linecap="round"></path><path d="M 255.000,298.000 C 248.006,299.045 248.017,299.111 241.000,300.000" stroke-width="2.617" stroke="black" fill="none" stroke-linecap="round"></path><path d="M 241.000,300.000 C 236.897,301.300 237.006,300.545 233.000,301.000" stroke-width="3.354" stroke="black" fill="none" stroke-linecap="round"></path></svg>