<svg xmlns="http://www.w3.org/2000/svg" xmlns:xlink="http://www.w3.org/1999/xlink" viewBox="0 0 1460 590" width="1460" height="590"><path d="M 466.000,165.000 C 461.099,168.059 461.500,168.500 457.000,172.000" stroke-width="5.115" stroke="black" fill="none" stroke-linecap="round"></path><path d="M 457.000,172.000 C 446.966,179.841 448.099,180.559 440.000,190.000" stroke-width="2.745" stroke="black" fill="none" stroke-linecap="round"></path><path d="M 440.000,190.000 C 425.712,216.780 422.966,214.841 409.000,242.000" stroke-width="1.419" stroke="black" fill="none" stroke-linecap="round"></path><path d="M 409.000,242.000 C 364.865,296.401 370.712,299.780 330.000,356.000" stroke-width="1.125" stroke="black" fill="none" stroke-linecap="round"></path><path d="M 330.000,356.000 C 314.303,400.806 306.365,396.401 292.000,442.000" stroke-width="1.125" stroke="black" fill="none" stroke-linecap="round"></path><path d="M 292.000,442.000 C 268.615,477.577 271.803,479.306 245.000,513.000" stroke-width="1.125" stroke="black" fill="none" stroke-linecap="round"></path><path d="M 245.000,513.000 C 237.384,523.924 237.615,524.077 230.000,535.000" stroke-width="1.518" stroke="black" fill="none" stroke-linecap="round"></path><path d="M 230.000,535.000 C 226.715,542.714 227.384,538.924 225.000,543.000" stroke-width="2.529" stroke="black" fill="none" stroke-linecap="round"></path><path d="M 422.000,214.000 C 423.666,233.989 423.500,234.000 425.000,254.000" stroke-width="2.471" stroke="black" fill="none" stroke-linecap="round"></path><path d="M 425.000,254.000 C 425.319,301.847 428.166,301.489 431.000,349.000" stroke-width="1.125" stroke="black" fill="none" stroke-linecap="round"></path><path d="M 431.000,349.000 C 435.219,385.278 435.319,384.847 445.000,420.000" stroke-width="1.125" stroke="black" fill="none" stroke-linecap="round"></path><path d="M 445.000,420.000 C 457.547,455.687 455.219,456.278 471.000,491.000" stroke-width="1.125" stroke="black" fill="none" stroke-linecap="round"></path><path d="M 471.000,491.000 C 474.000,497.500 473.547,497.687 477.000,504.000" stroke-width="1.930" stroke="black" fill="none" stroke-linecap="round"></path><path d="M 477.000,504.000 C 480.062,510.472 480.000,510.500 483.000,517.000" stroke-width="2.599" stroke="black" fill="none" stroke-linecap="round"></path><path d="M 554.000,394.000 C 546.944,393.314 547.000,393.000 540.000,392.000" stroke-width="3.698" stroke="black" fill="none" stroke-linecap="round"></path><path d="M 540.000,392.000 C 528.341,390.119 528.444,389.814 517.000,387.000" stroke-width="2.573" stroke="black" fill="none" stroke-linecap="round"></path><path d="M 517.000,387.000 C 488.777,377.434 488.341,379.119 460.000,370.000" stroke-width="1.421" stroke="black" fill="none" stroke-linecap="round"></path><path d="M 460.000,370.000 C 428.810,360.786 428.777,361.934 397.000,356.000" stroke-width="1.194" stroke="black" fill="none" stroke-linecap="round"></path><path d="M 397.000,356.000 C 371.852,351.895 372.310,352.286 347.000,353.000" stroke-width="1.385" stroke="black" fill="none" stroke-linecap="round"></path><path d="M 347.000,353.000 C 326.894,356.021 326.852,353.895 307.000,360.000" stroke-width="1.522" stroke="black" fill="none" stroke-linecap="round"></path><path d="M 307.000,360.000 C 299.242,361.318 299.394,361.521 292.000,364.000" stroke-width="2.298" stroke="black" fill="none" stroke-linecap="round"></path><path d="M 292.000,364.000 C 286.109,367.251 285.742,366.318 280.000,370.000" stroke-width="2.831" stroke="black" fill="none" stroke-linecap="round"></path><path d="M 519.000,439.000 C 522.191,433.761 522.500,434.000 526.000,429.000" stroke-width="4.192" stroke="black" fill="none" stroke-linecap="round"></path><path d="M 526.000,429.000 C 533.768,418.232 534.191,418.761 543.000,409.000" stroke-width="2.499" stroke="black" fill="none" stroke-linecap="round"></path><path d="M 543.000,409.000 C 548.958,403.089 548.768,403.232 556.000,399.000" stroke-width="2.688" stroke="black" fill="none" stroke-linecap="round"></path><path d="M 556.000,399.000 C 564.590,393.289 564.458,394.089 574.000,391.000" stroke-width="2.630" stroke="black" fill="none" stroke-linecap="round"></path><path d="M 574.000,391.000 C 583.775,389.012 583.090,388.789 593.000,390.000" stroke-width="2.587" stroke="black" fill="none" stroke-linecap="round"></path><path d="M 593.000,390.000 C 600.264,389.949 597.775,390.512 602.000,394.000" stroke-width="3.631" stroke="black" fill="none" stroke-linecap="round"></path><path d="M 602.000,394.000 C 605.942,406.379 606.264,403.949 605.000,418.000" stroke-width="2.530" stroke="black" fill="none" stroke-linecap="round"></path><path d="M 605.000,418.000 C 602.200,424.600 604.442,424.879 599.000,431.000" stroke-width="2.822" stroke="black" fill="none" stroke-linecap="round"></path><path d="M 599.000,431.000 C 594.660,438.347 595.200,438.600 591.000,446.000" stroke-width="2.690" stroke="black" fill="none" stroke-linecap="round"></path><path d="M 591.000,446.000 C 586.457,450.913 589.160,449.847 588.000,454.000" stroke-width="3.306" stroke="black" fill="none" stroke-linecap="round"></path><path d="M 588.000,454.000 C 592.545,461.641 590.457,458.913 599.000,462.000" stroke-width="3.753" stroke="black" fill="none" stroke-linecap="round"></path><path d="M 599.000,462.000 C 621.321,462.798 619.545,463.141 642.000,457.000" stroke-width="1.848" stroke="black" fill="none" stroke-linecap="round"></path><path d="M 642.000,457.000 C 673.813,443.984 674.821,447.798 706.000,432.000" stroke-width="1.266" stroke="black" fill="none" stroke-linecap="round"></path><path d="M 706.000,432.000 C 720.817,426.371 720.813,426.484 736.000,422.000" stroke-width="1.687" stroke="black" fill="none" stroke-linecap="round"></path><path d="M 736.000,422.000 C 753.928,417.170 753.817,416.871 772.000,413.000" stroke-width="1.742" stroke="black" fill="none" stroke-linecap="round"></path><path d="M 772.000,413.000 C 780.078,411.800 779.928,411.170 788.000,410.000" stroke-width="2.405" stroke="black" fill="none" stroke-linecap="round"></path><path d="M 788.000,410.000 C 794.425,407.787 791.078,409.300 794.000,408.000" stroke-width="3.384" stroke="black" fill="none" stroke-linecap="round"></path><path d="M 794.000,408.000 C 790.095,409.796 793.425,408.287 786.000,411.000" stroke-width="4.259" stroke="black" fill="none" stroke-linecap="round"></path><path d="M 786.000,411.000 C 773.014,414.555 773.095,414.796 760.000,418.000" stroke-width="2.551" stroke="black" fill="none" stroke-linecap="round"></path><path d="M 760.000,418.000 C 755.962,418.868 756.014,419.055 752.000,420.000" stroke-width="3.266" stroke="black" fill="none" stroke-linecap="round"></path><path d="M 752.000,420.000 C 745.558,421.558 748.962,420.868 746.000,422.000" stroke-width="4.176" stroke="black" fill="none" stroke-linecap="round"></path><path d="M 746.000,422.000 C 750.000,422.000 746.558,422.558 754.000,422.000" stroke-width="4.991" stroke="black" fill="none" stroke-linecap="round"></path><path d="M 754.000,422.000 C 775.020,422.787 775.000,422.000 796.000,422.000" stroke-width="1.876" stroke="black" fill="none" stroke-linecap="round"></path><path d="M 796.000,422.000 C 855.150,420.886 855.020,419.787 914.000,416.000" stroke-width="1.125" stroke="black" fill="none" stroke-linecap="round"></path><path d="M 914.000,416.000 C 987.654,409.203 987.650,409.886 1061.000,400.000" stroke-width="1.125" stroke="black" fill="none" stroke-linecap="round"></path><path d="M 1061.000,400.000 C 1119.010,391.570 1119.154,392.703 1177.000,383.000" stroke-width="1.125" stroke="black" fill="none" stroke-linecap="round"></path><path d="M 1177.000,383.000 C 1220.719,377.491 1220.510,376.570 1264.000,370.000" stroke-width="1.125" stroke="black" fill="none" stroke-linecap="round"></path><path d="M 1264.000,370.000 C 1272.423,367.144 1272.719,368.491 1281.000,365.000" stroke-width="1.625" stroke="black" fill="none" stroke-linecap="round"></path><path d="M 1281.000,365.000 C 1287.338,362.455 1284.423,364.144 1288.000,364.000" stroke-width="2.794" stroke="black" fill="none" stroke-linecap="round"></path><path d="M 1288.000,364.000 C 1286.133,368.070 1288.838,365.955 1284.000,372.000" stroke-width="3.921" stroke="black" fill="none" stroke-linecap="round"></path><path d="M 1284.000,372.000 C 1276.050,385.292 1276.633,385.570 1269.000,399.000" stroke-width="2.267" stroke="black" fill="none" stroke-linecap="round"></path><path d="M 1269.000,399.000 C 1267.094,402.896 1267.050,402.792 1266.000,407.000" stroke-width="3.094" stroke="black" fill="none" stroke-linecap="round"></path><path d="M 1266.000,407.000 C 1264.000,411.000 1265.094,410.396 1265.000,414.000" stroke-width="3.661" stroke="black" fill="none" stroke-linecap="round"></path><path d="M 1265.000,414.000 C 1266.773,418.413 1266.000,417.000 1270.000,419.000" stroke-width="3.874" stroke="black" fill="none" stroke-linecap="round"></path><path d="M 1270.000,419.000 C 1278.703,419.482 1277.773,420.413 1287.000,418.000" stroke-width="3.062" stroke="black" fill="none" stroke-linecap="round"></path><path d="M 1287.000,418.000 C 1292.704,416.459 1292.703,416.982 1298.000,414.000" stroke-width="3.190" stroke="black" fill="none" stroke-linecap="round"></path><path d="M 1298.000,414.000 C 1306.532,409.560 1306.704,409.959 1315.000,405.000" stroke-width="2.783" stroke="black" fill="none" stroke-linecap="round"></path><path d="M 1315.000,405.000 C 1319.402,402.299 1319.532,402.560 1324.000,400.000" stroke-width="3.202" stroke="black" fill="none" stroke-linecap="round"></path><path d="M 1324.000,400.000 C 1327.415,397.000 1327.402,398.299 1331.000,397.000" stroke-width="4.051" stroke="black" fill="none" stroke-linecap="round"></path><path d="M 1331.000,397.000 C 1336.661,397.521 1335.915,397.000 1341.000,400.000" stroke-width="4.444" stroke="black" fill="none" stroke-linecap="round"></path><path d="M 1341.000,400.000 C 1345.874,403.470 1343.661,401.521 1345.000,405.000" stroke-width="4.628" stroke="black" fill="none" stroke-linecap="round"></path><path d="M 1345.000,405.000 C 1341.074,406.469 1343.874,406.970 1337.000,407.000" stroke-width="4.865" stroke="black" fill="none" stroke-linecap="round"></path><path d="M 1337.000,407.000 C 1329.448,407.069 1329.574,407.969 1322.000,408.000" stroke-width="3.377" stroke="black" fill="none" stroke-linecap="round"></path><path d="M 1322.000,408.000 C 1313.581,410.170 1313.448,409.069 1305.000,411.000" stroke-width="2.877" stroke="black" fill="none" stroke-linecap="round"></path><path d="M 1305.000,411.000 C 1282.534,413.223 1282.581,413.170 1260.000,414.000" stroke-width="1.726" stroke="black" fill="none" stroke-linecap="round"></path><path d="M 1260.000,414.000 C 1166.494,416.303 1166.534,417.223 1073.000,419.000" stroke-width="1.125" stroke="black" fill="none" stroke-linecap="round"></path><path d="M 1073.000,419.000 C 1010.512,422.144 1010.494,420.803 948.000,423.000" stroke-width="1.125" stroke="black" fill="none" stroke-linecap="round"></path><path d="M 948.000,423.000 C 900.985,423.112 901.012,423.644 854.000,422.000" stroke-width="1.125" stroke="black" fill="none" stroke-linecap="round"></path><path d="M 854.000,422.000 C 816.503,420.429 816.485,421.112 779.000,419.000" stroke-width="1.125" stroke="black" fill="none" stroke-linecap="round"></path><path d="M 779.000,419.000 C 764.003,418.341 764.003,418.429 749.000,418.000" stroke-width="1.473" stroke="black" fill="none" stroke-linecap="round"></path><path d="M 749.000,418.000 C 742.000,418.000 742.003,417.841 735.000,418.000" stroke-width="2.323" stroke="black" fill="none" stroke-linecap="round"></path><path d="M 735.000,418.000 C 729.500,418.000 729.500,418.000 724.000,418.000" stroke-width="2.948" stroke="black" fill="none" stroke-linecap="round"></path><path d="M 724.000,418.000 C 717.255,418.766 720.500,418.000 717.000,418.000" stroke-width="3.971" stroke="black" fill="none" stroke-linecap="round"></path><path d="M 717.000,418.000 C 719.893,416.258 716.755,417.266 723.000,415.000" stroke-width="4.733" stroke="black" fill="none" stroke-linecap="round"></path><path d="M 723.000,415.000 C 740.744,407.252 740.893,407.758 759.000,401.000" stroke-width="2.125" stroke="black" fill="none" stroke-linecap="round"></path><path d="M 759.000,401.000 C 777.039,393.428 777.244,394.752 796.000,390.000" stroke-width="1.767" stroke="black" fill="none" stroke-linecap="round"></path><path d="M 796.000,390.000 C 865.864,378.470 865.539,377.428 936.000,369.000" stroke-width="1.125" stroke="black" fill="none" stroke-linecap="round"></path><path d="M 936.000,369.000 C 984.371,362.036 984.364,362.470 1033.000,358.000" stroke-width="1.125" stroke="black" fill="none" stroke-linecap="round"></path><path d="M 1033.000,358.000 C 1104.999,353.487 1104.871,352.036 1177.000,349.000" stroke-width="1.125" stroke="black" fill="none" stroke-linecap="round"></path><path d="M 1177.000,349.000 C 1281.435,340.886 1281.499,342.487 1386.000,336.000" stroke-width="1.125" stroke="black" fill="none" stroke-linecap="round"></path></svg>