<svg xmlns="http://www.w3.org/2000/svg" xmlns:xlink="http://www.w3.org/1999/xlink" viewBox="0 0 1460 590" width="1460" height="590"><path d="M 329.000,340.000 C 322.404,339.446 322.500,339.000 316.000,338.000" stroke-width="5.250" stroke="black" fill="none" stroke-linecap="round"></path><path d="M 316.000,338.000 C 306.775,336.114 306.904,335.946 298.000,333.000" stroke-width="3.059" stroke="black" fill="none" stroke-linecap="round"></path><path d="M 298.000,333.000 C 291.623,329.698 291.275,330.614 285.000,327.000" stroke-width="3.055" stroke="black" fill="none" stroke-linecap="round"></path><path d="M 285.000,327.000 C 277.994,324.518 278.123,324.198 271.000,322.000" stroke-width="3.017" stroke="black" fill="none" stroke-linecap="round"></path><path d="M 271.000,322.000 C 265.479,320.055 265.494,320.018 260.000,318.000" stroke-width="3.230" stroke="black" fill="none" stroke-linecap="round"></path><path d="M 260.000,318.000 C 257.594,316.648 257.479,317.055 255.000,316.000" stroke-width="3.895" stroke="black" fill="none" stroke-linecap="round"></path><path d="M 255.000,316.000 C 247.573,315.854 251.594,315.148 248.000,315.000" stroke-width="4.383" stroke="black" fill="none" stroke-linecap="round"></path><path d="M 248.000,315.000 C 252.405,313.149 248.573,313.854 257.000,312.000" stroke-width="5.027" stroke="black" fill="none" stroke-linecap="round"></path><path d="M 257.000,312.000 C 266.798,310.856 266.405,309.649 276.000,308.000" stroke-width="3.065" stroke="black" fill="none" stroke-linecap="round"></path><path d="M 276.000,308.000 C 281.424,306.177 281.298,306.356 286.000,303.000" stroke-width="3.288" stroke="black" fill="none" stroke-linecap="round"></path><path d="M 286.000,303.000 C 298.803,292.724 299.424,293.677 312.000,283.000" stroke-width="2.194" stroke="black" fill="none" stroke-linecap="round"></path><path d="M 312.000,283.000 C 318.211,279.288 317.803,278.724 324.000,275.000" stroke-width="2.678" stroke="black" fill="none" stroke-linecap="round"></path><path d="M 324.000,275.000 C 331.739,269.280 331.711,269.288 339.000,263.000" stroke-width="2.592" stroke="black" fill="none" stroke-linecap="round"></path><path d="M 339.000,263.000 C 350.078,253.082 350.239,253.280 361.000,243.000" stroke-width="2.121" stroke="black" fill="none" stroke-linecap="round"></path><path d="M 361.000,243.000 C 362.842,240.826 363.078,241.082 365.000,239.000" stroke-width="3.227" stroke="black" fill="none" stroke-linecap="round"></path><path d="M 365.000,239.000 C 375.960,229.951 375.842,229.826 387.000,221.000" stroke-width="2.350" stroke="black" fill="none" stroke-linecap="round"></path><path d="M 387.000,221.000 C 394.693,215.225 394.460,214.951 402.000,209.000" stroke-width="2.491" stroke="black" fill="none" stroke-linecap="round"></path><path d="M 402.000,209.000 C 407.784,203.234 408.193,203.725 414.000,198.000" stroke-width="2.747" stroke="black" fill="none" stroke-linecap="round"></path><path d="M 414.000,198.000 C 417.424,195.384 417.284,195.234 421.000,193.000" stroke-width="3.327" stroke="black" fill="none" stroke-linecap="round"></path><path d="M 421.000,193.000 C 425.762,189.523 423.424,191.384 426.000,190.000" stroke-width="4.226" stroke="black" fill="none" stroke-linecap="round"></path><path d="M 426.000,190.000 C 423.817,192.366 426.262,190.523 422.000,195.000" stroke-width="4.990" stroke="black" fill="none" stroke-linecap="round"></path><path d="M 422.000,195.000 C 414.966,207.792 413.817,206.866 406.000,219.000" stroke-width="2.527" stroke="black" fill="none" stroke-linecap="round"></path><path d="M 406.000,219.000 C 396.783,226.008 398.966,227.792 390.000,235.000" stroke-width="2.386" stroke="black" fill="none" stroke-linecap="round"></path><path d="M 390.000,235.000 C 377.734,256.449 375.283,254.508 363.000,276.000" stroke-width="1.641" stroke="black" fill="none" stroke-linecap="round"></path><path d="M 363.000,276.000 C 349.809,289.445 351.734,290.949 338.000,304.000" stroke-width="1.669" stroke="black" fill="none" stroke-linecap="round"></path><path d="M 338.000,304.000 C 329.312,316.736 328.309,315.945 320.000,329.000" stroke-width="1.888" stroke="black" fill="none" stroke-linecap="round"></path><path d="M 320.000,329.000 C 308.561,343.549 308.812,343.736 297.000,358.000" stroke-width="1.804" stroke="black" fill="none" stroke-linecap="round"></path><path d="M 297.000,358.000 C 290.367,365.896 290.561,366.049 284.000,374.000" stroke-width="2.264" stroke="black" fill="none" stroke-linecap="round"></path><path d="M 284.000,374.000 C 279.228,379.809 279.367,379.896 275.000,386.000" stroke-width="2.677" stroke="black" fill="none" stroke-linecap="round"></path><path d="M 275.000,386.000 C 266.446,401.312 265.228,400.309 256.000,415.000" stroke-width="1.976" stroke="black" fill="none" stroke-linecap="round"></path><path d="M 256.000,415.000 C 251.000,419.500 251.946,420.312 246.000,424.000" stroke-width="2.625" stroke="black" fill="none" stroke-linecap="round"></path><path d="M 246.000,424.000 C 241.070,428.580 241.000,428.500 236.000,433.000" stroke-width="2.912" stroke="black" fill="none" stroke-linecap="round"></path><path d="M 236.000,433.000 C 222.235,446.573 221.570,445.580 207.000,458.000" stroke-width="1.904" stroke="black" fill="none" stroke-linecap="round"></path><path d="M 207.000,458.000 C 199.867,462.955 200.235,463.073 192.000,466.000" stroke-width="2.503" stroke="black" fill="none" stroke-linecap="round"></path><path d="M 192.000,466.000 C 184.085,468.428 184.367,468.955 176.000,470.000" stroke-width="2.684" stroke="black" fill="none" stroke-linecap="round"></path><path d="M 176.000,470.000 C 165.945,471.224 166.085,471.928 156.000,473.000" stroke-width="2.541" stroke="black" fill="none" stroke-linecap="round"></path><path d="M 156.000,473.000 C 152.056,474.324 151.945,473.724 148.000,475.000" stroke-width="3.302" stroke="black" fill="none" stroke-linecap="round"></path><path d="M 148.000,475.000 C 142.944,475.176 143.056,475.824 138.000,476.000" stroke-width="3.462" stroke="black" fill="none" stroke-linecap="round"></path><path d="M 138.000,476.000 C 134.052,477.421 133.944,476.676 130.000,478.000" stroke-width="3.633" stroke="black" fill="none" stroke-linecap="round"></path><path d="M 130.000,478.000 C 126.138,479.555 127.052,478.421 124.000,478.000" stroke-width="4.367" stroke="black" fill="none" stroke-linecap="round"></path><path d="M 124.000,478.000 C 119.775,474.495 120.638,475.555 119.000,470.000" stroke-width="3.752" stroke="black" fill="none" stroke-linecap="round"></path><path d="M 119.000,470.000 C 118.282,459.412 117.275,459.995 119.000,449.000" stroke-width="2.792" stroke="black" fill="none" stroke-linecap="round"></path><path d="M 119.000,449.000 C 119.243,444.709 119.282,444.912 121.000,441.000" stroke-width="3.422" stroke="black" fill="none" stroke-linecap="round"></path><path d="M 121.000,441.000 C 128.688,425.818 128.243,425.709 137.000,411.000" stroke-width="2.098" stroke="black" fill="none" stroke-linecap="round"></path><path d="M 137.000,411.000 C 139.117,404.120 140.188,405.318 144.000,400.000" stroke-width="2.756" stroke="black" fill="none" stroke-linecap="round"></path><path d="M 144.000,400.000 C 155.930,390.957 155.117,390.620 169.000,384.000" stroke-width="2.219" stroke="black" fill="none" stroke-linecap="round"></path><path d="M 169.000,384.000 C 187.070,374.328 186.930,374.457 206.000,367.000" stroke-width="1.793" stroke="black" fill="none" stroke-linecap="round"></path><path d="M 206.000,367.000 C 218.462,363.358 218.070,362.328 231.000,360.000" stroke-width="2.076" stroke="black" fill="none" stroke-linecap="round"></path><path d="M 231.000,360.000 C 246.407,355.598 246.462,355.858 262.000,352.000" stroke-width="1.931" stroke="black" fill="none" stroke-linecap="round"></path><path d="M 262.000,352.000 C 278.896,347.851 278.907,348.098 296.000,345.000" stroke-width="1.819" stroke="black" fill="none" stroke-linecap="round"></path><path d="M 296.000,345.000 C 309.016,343.623 308.896,342.851 322.000,342.000" stroke-width="2.126" stroke="black" fill="none" stroke-linecap="round"></path><path d="M 322.000,342.000 C 329.011,341.075 329.016,341.123 336.000,340.000" stroke-width="2.663" stroke="black" fill="none" stroke-linecap="round"></path><path d="M 336.000,340.000 C 348.485,337.896 348.511,338.075 361.000,336.000" stroke-width="2.367" stroke="black" fill="none" stroke-linecap="round"></path><path d="M 361.000,336.000 C 365.059,335.788 364.985,335.396 369.000,335.000" stroke-width="3.224" stroke="black" fill="none" stroke-linecap="round"></path><path d="M 369.000,335.000 C 372.441,333.712 372.559,334.288 376.000,333.000" stroke-width="3.648" stroke="black" fill="none" stroke-linecap="round"></path><path d="M 376.000,333.000 C 380.228,333.161 379.941,332.212 384.000,332.000" stroke-width="3.712" stroke="black" fill="none" stroke-linecap="round"></path><path d="M 384.000,332.000 C 386.442,330.395 386.728,331.161 389.000,329.000" stroke-width="4.425" stroke="black" fill="none" stroke-linecap="round"></path><path d="M 389.000,329.000 C 392.351,327.987 391.942,327.395 395.000,326.000" stroke-width="4.091" stroke="black" fill="none" stroke-linecap="round"></path><path d="M 395.000,326.000 C 398.297,323.244 398.351,323.487 401.000,320.000" stroke-width="3.848" stroke="black" fill="none" stroke-linecap="round"></path><path d="M 401.000,320.000 C 402.881,316.913 403.297,317.244 405.000,314.000" stroke-width="3.919" stroke="black" fill="none" stroke-linecap="round"></path><path d="M 405.000,314.000 C 410.364,309.341 406.881,311.413 409.000,309.000" stroke-width="3.987" stroke="black" fill="none" stroke-linecap="round"></path><path d="M 409.000,309.000 C 402.234,308.921 406.364,308.341 397.000,312.000" stroke-width="4.609" stroke="black" fill="none" stroke-linecap="round"></path><path d="M 397.000,312.000 C 386.706,321.684 385.234,318.921 375.000,329.000" stroke-width="2.544" stroke="black" fill="none" stroke-linecap="round"></path><path d="M 375.000,329.000 C 365.940,332.874 366.706,334.184 357.000,337.000" stroke-width="2.587" stroke="black" fill="none" stroke-linecap="round"></path><path d="M 357.000,337.000 C 352.823,338.706 352.940,338.874 349.000,341.000" stroke-width="3.269" stroke="black" fill="none" stroke-linecap="round"></path><path d="M 349.000,341.000 C 341.670,342.703 345.323,343.206 342.000,346.000" stroke-width="3.988" stroke="black" fill="none" stroke-linecap="round"></path><path d="M 342.000,346.000 C 344.946,355.551 342.670,352.703 351.000,361.000" stroke-width="3.765" stroke="black" fill="none" stroke-linecap="round"></path><path d="M 351.000,361.000 C 356.436,363.758 354.946,364.551 362.000,364.000" stroke-width="3.477" stroke="black" fill="none" stroke-linecap="round"></path><path d="M 362.000,364.000 C 368.069,363.318 367.936,364.258 374.000,362.000" stroke-width="3.336" stroke="black" fill="none" stroke-linecap="round"></path><path d="M 374.000,362.000 C 381.780,360.739 381.569,360.318 389.000,358.000" stroke-width="2.984" stroke="black" fill="none" stroke-linecap="round"></path><path d="M 389.000,358.000 C 396.258,354.903 396.280,355.239 403.000,351.000" stroke-width="2.945" stroke="black" fill="none" stroke-linecap="round"></path><path d="M 403.000,351.000 C 405.819,349.326 405.758,349.403 408.000,347.000" stroke-width="3.661" stroke="black" fill="none" stroke-linecap="round"></path><path d="M 408.000,347.000 C 413.538,341.321 413.319,341.326 418.000,335.000" stroke-width="3.794" stroke="black" fill="none" stroke-linecap="round"></path><path d="M 418.000,335.000 C 419.000,332.500 419.538,332.821 420.000,330.000" stroke-width="4.075" stroke="black" fill="none" stroke-linecap="round"></path><path d="M 420.000,330.000 C 422.720,326.921 421.000,327.500 422.000,325.000" stroke-width="4.579" stroke="black" fill="none" stroke-linecap="round"></path><path d="M 422.000,325.000 C 419.712,322.969 421.220,322.921 417.000,322.000" stroke-width="4.992" stroke="black" fill="none" stroke-linecap="round"></path><path d="M 417.000,322.000 C 412.533,320.000 412.712,320.469 408.000,320.000" stroke-width="3.968" stroke="black" fill="none" stroke-linecap="round"></path><path d="M 408.000,320.000 C 400.961,319.804 401.533,320.000 395.000,322.000" stroke-width="3.307" stroke="black" fill="none" stroke-linecap="round"></path><path d="M 395.000,322.000 C 391.900,324.390 391.461,323.304 389.000,327.000" stroke-width="3.625" stroke="black" fill="none" stroke-linecap="round"></path><path d="M 389.000,327.000 C 386.785,328.818 386.900,328.890 385.000,331.000" stroke-width="3.981" stroke="black" fill="none" stroke-linecap="round"></path><path d="M 385.000,331.000 C 381.647,334.158 382.285,334.318 380.000,338.000" stroke-width="3.805" stroke="black" fill="none" stroke-linecap="round"></path><path d="M 380.000,338.000 C 379.000,341.492 378.647,341.158 379.000,345.000" stroke-width="3.818" stroke="black" fill="none" stroke-linecap="round"></path><path d="M 379.000,345.000 C 378.089,350.178 379.000,349.492 380.000,354.000" stroke-width="4.216" stroke="black" fill="none" stroke-linecap="round"></path><path d="M 380.000,354.000 C 382.863,358.566 382.089,358.178 387.000,361.000" stroke-width="4.293" stroke="black" fill="none" stroke-linecap="round"></path><path d="M 387.000,361.000 C 391.932,363.404 391.363,363.566 397.000,364.000" stroke-width="3.629" stroke="black" fill="none" stroke-linecap="round"></path><path d="M 397.000,364.000 C 400.611,363.942 400.432,364.404 404.000,363.000" stroke-width="3.815" stroke="black" fill="none" stroke-linecap="round"></path><path d="M 404.000,363.000 C 409.839,361.684 409.611,361.442 415.000,359.000" stroke-width="3.400" stroke="black" fill="none" stroke-linecap="round"></path><path d="M 415.000,359.000 C 422.023,354.535 422.339,355.184 429.000,350.000" stroke-width="2.923" stroke="black" fill="none" stroke-linecap="round"></path><path d="M 429.000,350.000 C 432.120,348.160 432.023,348.035 435.000,346.000" stroke-width="3.573" stroke="black" fill="none" stroke-linecap="round"></path><path d="M 435.000,346.000 C 438.419,343.903 438.120,343.660 441.000,341.000" stroke-width="4.188" stroke="black" fill="none" stroke-linecap="round"></path><path d="M 441.000,341.000 C 445.506,334.043 446.419,334.903 451.000,328.000" stroke-width="4.960" stroke="black" fill="none" stroke-linecap="round"></path><path d="M 451.000,328.000 C 455.866,323.344 455.506,323.043 461.000,319.000" stroke-width="3.453" stroke="black" fill="none" stroke-linecap="round"></path><path d="M 461.000,319.000 C 468.759,312.181 468.866,312.344 477.000,306.000" stroke-width="2.691" stroke="black" fill="none" stroke-linecap="round"></path><path d="M 477.000,306.000 C 486.848,298.768 486.759,298.681 497.000,292.000" stroke-width="2.412" stroke="black" fill="none" stroke-linecap="round"></path><path d="M 497.000,292.000 C 502.945,286.713 503.348,287.768 510.000,284.000" stroke-width="2.773" stroke="black" fill="none" stroke-linecap="round"></path><path d="M 510.000,284.000 C 523.043,279.024 522.445,279.213 536.000,277.000" stroke-width="3.256" stroke="black" fill="none" stroke-linecap="round"></path><path d="M 536.000,277.000 C 540.553,276.588 539.043,276.524 542.000,279.000" stroke-width="4.299" stroke="black" fill="none" stroke-linecap="round"></path><path d="M 542.000,279.000 C 545.000,285.500 545.053,284.088 545.000,292.000" stroke-width="3.356" stroke="black" fill="none" stroke-linecap="round"></path><path d="M 545.000,292.000 C 544.176,298.743 545.000,298.500 542.000,305.000" stroke-width="3.148" stroke="black" fill="none" stroke-linecap="round"></path><path d="M 542.000,305.000 C 539.861,310.231 540.176,310.243 537.000,315.000" stroke-width="3.316" stroke="black" fill="none" stroke-linecap="round"></path><path d="M 537.000,315.000 C 535.027,317.522 535.361,317.731 533.000,320.000" stroke-width="3.820" stroke="black" fill="none" stroke-linecap="round"></path><path d="M 533.000,320.000 C 527.097,325.323 530.527,323.022 528.000,326.000" stroke-width="4.496" stroke="black" fill="none" stroke-linecap="round"></path><path d="M 528.000,326.000 C 532.804,325.098 529.097,326.823 537.000,323.000" stroke-width="4.865" stroke="black" fill="none" stroke-linecap="round"></path><path d="M 537.000,323.000 C 540.513,320.518 540.804,321.098 544.000,318.000" stroke-width="3.952" stroke="black" fill="none" stroke-linecap="round"></path><path d="M 544.000,318.000 C 549.921,314.493 549.513,314.018 555.000,310.000" stroke-width="3.266" stroke="black" fill="none" stroke-linecap="round"></path><path d="M 555.000,310.000 C 562.500,302.500 562.921,302.993 570.000,295.000" stroke-width="2.623" stroke="black" fill="none" stroke-linecap="round"></path><path d="M 570.000,295.000 C 572.876,291.864 573.000,292.000 576.000,289.000" stroke-width="3.281" stroke="black" fill="none" stroke-linecap="round"></path><path d="M 576.000,289.000 C 579.019,286.522 578.876,286.364 582.000,284.000" stroke-width="3.662" stroke="black" fill="none" stroke-linecap="round"></path><path d="M 582.000,284.000 C 585.212,280.525 585.519,281.022 589.000,278.000" stroke-width="3.652" stroke="black" fill="none" stroke-linecap="round"></path><path d="M 589.000,278.000 C 592.283,274.798 591.212,276.525 594.000,276.000" stroke-width="4.407" stroke="black" fill="none" stroke-linecap="round"></path><path d="M 594.000,276.000 C 598.021,280.106 597.283,278.298 599.000,285.000" stroke-width="4.719" stroke="black" fill="none" stroke-linecap="round"></path><path d="M 599.000,285.000 C 599.000,293.000 600.521,292.606 599.000,301.000" stroke-width="3.200" stroke="black" fill="none" stroke-linecap="round"></path><path d="M 599.000,301.000 C 599.000,304.000 599.000,304.000 599.000,307.000" stroke-width="3.776" stroke="black" fill="none" stroke-linecap="round"></path><path d="M 599.000,307.000 C 597.436,311.648 599.000,311.000 599.000,315.000" stroke-width="4.255" stroke="black" fill="none" stroke-linecap="round"></path><path d="M 599.000,315.000 C 602.125,319.020 600.936,319.148 606.000,322.000" stroke-width="4.305" stroke="black" fill="none" stroke-linecap="round"></path><path d="M 606.000,322.000 C 609.969,322.501 608.625,324.020 612.000,325.000" stroke-width="4.557" stroke="black" fill="none" stroke-linecap="round"></path><path d="M 612.000,325.000 C 617.060,331.208 616.469,330.501 619.000,338.000" stroke-width="4.708" stroke="black" fill="none" stroke-linecap="round"></path><path d="M 619.000,338.000 C 618.000,342.018 620.060,341.708 618.000,346.000" stroke-width="4.555" stroke="black" fill="none" stroke-linecap="round"></path><path d="M 618.000,346.000 C 617.199,350.280 618.000,348.518 619.000,351.000" stroke-width="5.131" stroke="black" fill="none" stroke-linecap="round"></path><path d="M 619.000,351.000 C 623.508,350.562 622.199,352.280 628.000,350.000" stroke-width="4.845" stroke="black" fill="none" stroke-linecap="round"></path><path d="M 628.000,350.000 C 631.712,350.096 631.508,349.562 635.000,349.000" stroke-width="4.694" stroke="black" fill="none" stroke-linecap="round"></path><path d="M 635.000,349.000 C 637.442,347.395 637.712,348.096 640.000,346.000" stroke-width="5.273" stroke="black" fill="none" stroke-linecap="round"></path><path d="M 640.000,346.000 C 642.949,344.387 642.942,344.395 646.000,343.000" stroke-width="4.339" stroke="black" fill="none" stroke-linecap="round"></path><path d="M 646.000,343.000 C 648.551,342.113 648.449,341.887 651.000,341.000" stroke-width="4.662" stroke="black" fill="none" stroke-linecap="round"></path><path d="M 651.000,341.000 C 654.000,339.500 654.051,339.613 657.000,338.000" stroke-width="4.150" stroke="black" fill="none" stroke-linecap="round"></path><path d="M 657.000,338.000 C 660.190,336.807 660.000,336.500 663.000,335.000" stroke-width="4.017" stroke="black" fill="none" stroke-linecap="round"></path><path d="M 663.000,335.000 C 667.213,332.246 667.190,332.307 671.000,329.000" stroke-width="3.611" stroke="black" fill="none" stroke-linecap="round"></path><path d="M 671.000,329.000 C 674.000,326.000 674.213,326.246 677.000,323.000" stroke-width="3.709" stroke="black" fill="none" stroke-linecap="round"></path><path d="M 677.000,323.000 C 680.150,320.135 680.000,320.000 683.000,317.000" stroke-width="3.686" stroke="black" fill="none" stroke-linecap="round"></path><path d="M 683.000,317.000 C 685.048,314.537 685.150,314.635 687.000,312.000" stroke-width="3.957" stroke="black" fill="none" stroke-linecap="round"></path><path d="M 687.000,312.000 C 690.043,308.032 690.048,308.037 693.000,304.000" stroke-width="3.657" stroke="black" fill="none" stroke-linecap="round"></path><path d="M 693.000,304.000 C 695.345,300.379 695.543,300.532 698.000,297.000" stroke-width="3.599" stroke="black" fill="none" stroke-linecap="round"></path><path d="M 698.000,297.000 C 700.837,293.349 700.845,293.379 704.000,290.000" stroke-width="3.633" stroke="black" fill="none" stroke-linecap="round"></path><path d="M 704.000,290.000 C 709.205,284.151 709.337,284.349 715.000,279.000" stroke-width="2.975" stroke="black" fill="none" stroke-linecap="round"></path><path d="M 715.000,279.000 C 718.348,276.247 718.205,276.151 722.000,274.000" stroke-width="3.469" stroke="black" fill="none" stroke-linecap="round"></path><path d="M 722.000,274.000 C 725.108,272.687 724.848,272.247 728.000,271.000" stroke-width="3.801" stroke="black" fill="none" stroke-linecap="round"></path><path d="M 728.000,271.000 C 730.892,268.813 731.108,269.187 734.000,267.000" stroke-width="3.904" stroke="black" fill="none" stroke-linecap="round"></path><path d="M 734.000,267.000 C 736.853,265.049 736.892,265.313 740.000,264.000" stroke-width="3.994" stroke="black" fill="none" stroke-linecap="round"></path><path d="M 740.000,264.000 C 742.994,263.462 742.853,263.049 746.000,263.000" stroke-width="4.051" stroke="black" fill="none" stroke-linecap="round"></path><path d="M 746.000,263.000 C 749.506,262.000 749.494,262.462 753.000,262.000" stroke-width="3.996" stroke="black" fill="none" stroke-linecap="round"></path><path d="M 753.000,262.000 C 757.495,261.065 756.006,262.000 759.000,263.000" stroke-width="4.758" stroke="black" fill="none" stroke-linecap="round"></path><path d="M 759.000,263.000 C 760.650,267.103 760.995,265.565 760.000,271.000" stroke-width="4.056" stroke="black" fill="none" stroke-linecap="round"></path><path d="M 760.000,271.000 C 757.968,279.210 758.650,279.103 755.000,287.000" stroke-width="3.042" stroke="black" fill="none" stroke-linecap="round"></path><path d="M 755.000,287.000 C 753.395,289.442 753.968,289.710 752.000,292.000" stroke-width="3.763" stroke="black" fill="none" stroke-linecap="round"></path><path d="M 752.000,292.000 C 750.418,294.961 750.395,294.942 749.000,298.000" stroke-width="3.948" stroke="black" fill="none" stroke-linecap="round"></path><path d="M 749.000,298.000 C 746.545,302.364 746.918,302.461 745.000,307.000" stroke-width="3.610" stroke="black" fill="none" stroke-linecap="round"></path><path d="M 745.000,307.000 C 744.430,309.990 744.045,309.864 744.000,313.000" stroke-width="3.924" stroke="black" fill="none" stroke-linecap="round"></path><path d="M 744.000,313.000 C 743.287,316.987 743.430,316.990 743.000,321.000" stroke-width="4.323" stroke="black" fill="none" stroke-linecap="round"></path><path d="M 743.000,321.000 C 743.000,324.000 742.787,323.987 743.000,327.000" stroke-width="4.605" stroke="black" fill="none" stroke-linecap="round"></path><path d="M 743.000,327.000 C 741.757,330.515 743.000,330.000 743.000,333.000" stroke-width="4.874" stroke="black" fill="none" stroke-linecap="round"></path><path d="M 743.000,333.000 C 745.397,337.456 744.757,336.515 749.000,339.000" stroke-width="4.626" stroke="black" fill="none" stroke-linecap="round"></path><path d="M 749.000,339.000 C 753.010,339.210 752.397,340.456 757.000,339.000" stroke-width="3.976" stroke="black" fill="none" stroke-linecap="round"></path><path d="M 757.000,339.000 C 762.797,339.445 762.510,338.710 768.000,338.000" stroke-width="3.499" stroke="black" fill="none" stroke-linecap="round"></path><path d="M 768.000,338.000 C 771.716,336.318 771.797,336.945 775.000,334.000" stroke-width="3.715" stroke="black" fill="none" stroke-linecap="round"></path><path d="M 775.000,334.000 C 780.052,330.064 780.216,330.318 785.000,326.000" stroke-width="3.345" stroke="black" fill="none" stroke-linecap="round"></path><path d="M 785.000,326.000 C 793.889,318.359 794.052,318.564 803.000,311.000" stroke-width="2.523" stroke="black" fill="none" stroke-linecap="round"></path><path d="M 803.000,311.000 C 807.144,308.176 806.889,307.859 811.000,305.000" stroke-width="3.159" stroke="black" fill="none" stroke-linecap="round"></path><path d="M 811.000,305.000 C 815.360,300.833 815.644,301.176 820.000,297.000" stroke-width="3.251" stroke="black" fill="none" stroke-linecap="round"></path><path d="M 820.000,297.000 C 826.973,291.465 826.860,291.333 834.000,286.000" stroke-width="2.815" stroke="black" fill="none" stroke-linecap="round"></path><path d="M 834.000,286.000 C 840.401,280.862 840.473,280.965 847.000,276.000" stroke-width="2.848" stroke="black" fill="none" stroke-linecap="round"></path><path d="M 847.000,276.000 C 849.931,273.889 849.901,273.862 853.000,272.000" stroke-width="3.539" stroke="black" fill="none" stroke-linecap="round"></path><path d="M 853.000,272.000 C 856.361,269.712 856.431,269.889 860.000,268.000" stroke-width="3.728" stroke="black" fill="none" stroke-linecap="round"></path><path d="M 860.000,268.000 C 865.000,266.000 864.861,265.712 870.000,264.000" stroke-width="3.464" stroke="black" fill="none" stroke-linecap="round"></path><path d="M 870.000,264.000 C 875.651,260.480 872.500,263.000 875.000,262.000" stroke-width="3.992" stroke="black" fill="none" stroke-linecap="round"></path><path d="M 875.000,262.000 C 869.708,270.151 872.651,267.480 864.000,278.000" stroke-width="4.695" stroke="black" fill="none" stroke-linecap="round"></path><path d="M 864.000,278.000 C 858.064,286.994 857.708,286.651 851.000,295.000" stroke-width="2.818" stroke="black" fill="none" stroke-linecap="round"></path><path d="M 851.000,295.000 C 841.964,303.015 843.064,303.994 834.000,312.000" stroke-width="2.393" stroke="black" fill="none" stroke-linecap="round"></path><path d="M 834.000,312.000 C 823.605,326.046 822.464,325.015 812.000,339.000" stroke-width="1.921" stroke="black" fill="none" stroke-linecap="round"></path><path d="M 812.000,339.000 C 801.238,349.250 802.105,350.046 791.000,360.000" stroke-width="1.954" stroke="black" fill="none" stroke-linecap="round"></path><path d="M 791.000,360.000 C 781.997,371.003 781.238,370.250 772.000,381.000" stroke-width="2.007" stroke="black" fill="none" stroke-linecap="round"></path><path d="M 772.000,381.000 C 763.769,388.825 763.997,389.003 755.000,396.000" stroke-width="2.221" stroke="black" fill="none" stroke-linecap="round"></path><path d="M 755.000,396.000 C 741.610,406.645 741.769,406.825 728.000,417.000" stroke-width="1.961" stroke="black" fill="none" stroke-linecap="round"></path><path d="M 728.000,417.000 C 719.141,425.129 718.610,424.145 709.000,431.000" stroke-width="2.169" stroke="black" fill="none" stroke-linecap="round"></path><path d="M 709.000,431.000 C 699.474,434.940 700.141,436.129 690.000,439.000" stroke-width="2.364" stroke="black" fill="none" stroke-linecap="round"></path><path d="M 690.000,439.000 C 674.726,444.944 674.974,445.440 660.000,452.000" stroke-width="2.038" stroke="black" fill="none" stroke-linecap="round"></path><path d="M 660.000,452.000 C 650.909,456.842 650.726,456.444 642.000,462.000" stroke-width="2.316" stroke="black" fill="none" stroke-linecap="round"></path><path d="M 642.000,462.000 C 632.356,468.696 631.909,467.842 622.000,474.000" stroke-width="2.297" stroke="black" fill="none" stroke-linecap="round"></path><path d="M 622.000,474.000 C 611.673,478.997 611.856,479.196 601.000,483.000" stroke-width="2.311" stroke="black" fill="none" stroke-linecap="round"></path><path d="M 601.000,483.000 C 595.332,484.025 595.673,484.997 590.000,486.000" stroke-width="2.916" stroke="black" fill="none" stroke-linecap="round"></path><path d="M 590.000,486.000 C 582.103,489.759 581.832,489.025 574.000,493.000" stroke-width="2.754" stroke="black" fill="none" stroke-linecap="round"></path><path d="M 574.000,493.000 C 566.985,495.460 567.103,495.759 560.000,498.000" stroke-width="2.922" stroke="black" fill="none" stroke-linecap="round"></path><path d="M 560.000,498.000 C 556.140,500.269 555.985,499.460 552.000,501.000" stroke-width="3.452" stroke="black" fill="none" stroke-linecap="round"></path><path d="M 552.000,501.000 C 547.411,501.662 547.640,501.769 543.000,501.000" stroke-width="3.554" stroke="black" fill="none" stroke-linecap="round"></path><path d="M 543.000,501.000 C 537.351,499.889 537.411,500.162 532.000,498.000" stroke-width="3.421" stroke="black" fill="none" stroke-linecap="round"></path><path d="M 532.000,498.000 C 528.191,497.374 528.851,496.889 526.000,495.000" stroke-width="4.198" stroke="black" fill="none" stroke-linecap="round"></path><path d="M 526.000,495.000 C 520.186,490.401 522.191,490.874 520.000,485.000" stroke-width="3.555" stroke="black" fill="none" stroke-linecap="round"></path><path d="M 520.000,485.000 C 521.485,475.080 519.686,475.901 525.000,466.000" stroke-width="2.765" stroke="black" fill="none" stroke-linecap="round"></path><path d="M 525.000,466.000 C 527.579,459.263 527.485,459.580 532.000,454.000" stroke-width="2.988" stroke="black" fill="none" stroke-linecap="round"></path><path d="M 532.000,454.000 C 538.699,447.149 538.079,446.763 546.000,441.000" stroke-width="2.742" stroke="black" fill="none" stroke-linecap="round"></path><path d="M 546.000,441.000 C 557.364,430.522 557.699,431.149 570.000,422.000" stroke-width="2.119" stroke="black" fill="none" stroke-linecap="round"></path><path d="M 570.000,422.000 C 579.289,416.558 578.864,416.022 589.000,412.000" stroke-width="2.363" stroke="black" fill="none" stroke-linecap="round"></path><path d="M 589.000,412.000 C 603.599,404.367 603.789,405.058 619.000,399.000" stroke-width="1.977" stroke="black" fill="none" stroke-linecap="round"></path><path d="M 619.000,399.000 C 637.342,394.981 636.599,392.867 655.000,389.000" stroke-width="1.764" stroke="black" fill="none" stroke-linecap="round"></path><path d="M 655.000,389.000 C 667.963,383.411 668.342,384.481 681.000,378.000" stroke-width="1.945" stroke="black" fill="none" stroke-linecap="round"></path><path d="M 681.000,378.000 C 694.370,372.149 694.463,372.411 708.000,367.000" stroke-width="1.979" stroke="black" fill="none" stroke-linecap="round"></path><path d="M 708.000,367.000 C 716.972,363.912 716.870,363.649 726.000,361.000" stroke-width="2.360" stroke="black" fill="none" stroke-linecap="round"></path><path d="M 726.000,361.000 C 732.354,358.363 732.472,358.912 739.000,357.000" stroke-width="2.799" stroke="black" fill="none" stroke-linecap="round"></path><path d="M 739.000,357.000 C 752.042,355.221 751.854,354.363 765.000,353.000" stroke-width="2.357" stroke="black" fill="none" stroke-linecap="round"></path><path d="M 765.000,353.000 C 769.556,352.212 769.542,352.221 774.000,351.000" stroke-width="3.133" stroke="black" fill="none" stroke-linecap="round"></path><path d="M 774.000,351.000 C 780.480,348.932 780.556,349.212 787.000,347.000" stroke-width="3.127" stroke="black" fill="none" stroke-linecap="round"></path><path d="M 787.000,347.000 C 794.469,346.014 793.980,344.932 801.000,343.000" stroke-width="2.997" stroke="black" fill="none" stroke-linecap="round"></path><path d="M 801.000,343.000 C 807.268,339.356 807.469,340.014 813.000,335.000" stroke-width="3.029" stroke="black" fill="none" stroke-linecap="round"></path><path d="M 813.000,335.000 C 819.116,328.957 819.768,329.856 826.000,324.000" stroke-width="2.810" stroke="black" fill="none" stroke-linecap="round"></path><path d="M 826.000,324.000 C 831.969,320.446 831.616,319.957 838.000,317.000" stroke-width="3.004" stroke="black" fill="none" stroke-linecap="round"></path><path d="M 838.000,317.000 C 842.735,314.843 842.469,314.446 847.000,312.000" stroke-width="3.337" stroke="black" fill="none" stroke-linecap="round"></path><path d="M 847.000,312.000 C 849.930,309.412 850.235,309.843 853.000,307.000" stroke-width="3.683" stroke="black" fill="none" stroke-linecap="round"></path><path d="M 853.000,307.000 C 856.812,303.710 856.930,303.912 861.000,301.000" stroke-width="3.525" stroke="black" fill="none" stroke-linecap="round"></path><path d="M 861.000,301.000 C 865.459,298.422 865.312,298.210 870.000,296.000" stroke-width="3.453" stroke="black" fill="none" stroke-linecap="round"></path><path d="M 870.000,296.000 C 873.000,294.500 872.959,294.422 876.000,293.000" stroke-width="3.840" stroke="black" fill="none" stroke-linecap="round"></path><path d="M 876.000,293.000 C 878.949,291.387 879.000,291.500 882.000,290.000" stroke-width="3.973" stroke="black" fill="none" stroke-linecap="round"></path><path d="M 882.000,290.000 C 884.471,288.920 884.449,288.887 887.000,288.000" stroke-width="4.178" stroke="black" fill="none" stroke-linecap="round"></path><path d="M 887.000,288.000 C 890.138,287.301 889.971,286.920 893.000,286.000" stroke-width="4.123" stroke="black" fill="none" stroke-linecap="round"></path><path d="M 893.000,286.000 C 895.308,284.036 895.638,284.801 898.000,283.000" stroke-width="4.123" stroke="black" fill="none" stroke-linecap="round"></path><path d="M 898.000,283.000 C 902.038,282.132 901.808,281.536 906.000,281.000" stroke-width="3.882" stroke="black" fill="none" stroke-linecap="round"></path><path d="M 906.000,281.000 C 909.097,280.244 909.038,280.132 912.000,279.000" stroke-width="4.927" stroke="black" fill="none" stroke-linecap="round"></path><path d="M 912.000,279.000 C 919.438,275.361 919.597,275.744 927.000,272.000" stroke-width="4.066" stroke="black" fill="none" stroke-linecap="round"></path><path d="M 927.000,272.000 C 933.040,269.591 932.938,269.361 939.000,267.000" stroke-width="3.408" stroke="black" fill="none" stroke-linecap="round"></path><path d="M 939.000,267.000 C 944.651,264.791 944.540,264.591 950.000,262.000" stroke-width="3.323" stroke="black" fill="none" stroke-linecap="round"></path><path d="M 950.000,262.000 C 956.075,258.621 956.151,258.791 962.000,255.000" stroke-width="3.160" stroke="black" fill="none" stroke-linecap="round"></path><path d="M 962.000,255.000 C 965.223,253.272 965.075,253.121 968.000,251.000" stroke-width="3.674" stroke="black" fill="none" stroke-linecap="round"></path><path d="M 968.000,251.000 C 970.500,248.500 970.723,248.772 973.000,246.000" stroke-width="3.830" stroke="black" fill="none" stroke-linecap="round"></path><path d="M 997.000,291.000 C 1000.366,288.731 1000.500,289.000 1004.000,287.000" stroke-width="4.734" stroke="black" fill="none" stroke-linecap="round"></path><path d="M 1004.000,287.000 C 1011.080,284.172 1010.866,283.731 1018.000,281.000" stroke-width="3.265" stroke="black" fill="none" stroke-linecap="round"></path><path d="M 1018.000,281.000 C 1022.793,278.012 1023.080,278.672 1028.000,276.000" stroke-width="3.354" stroke="black" fill="none" stroke-linecap="round"></path><path d="M 1028.000,276.000 C 1045.290,270.684 1044.793,269.512 1062.000,264.000" stroke-width="2.023" stroke="black" fill="none" stroke-linecap="round"></path><path d="M 1062.000,264.000 C 1070.313,260.555 1070.290,260.684 1078.000,256.000" stroke-width="2.477" stroke="black" fill="none" stroke-linecap="round"></path><path d="M 1078.000,256.000 C 1097.944,245.241 1097.313,244.555 1116.000,232.000" stroke-width="1.740" stroke="black" fill="none" stroke-linecap="round"></path><path d="M 1116.000,232.000 C 1128.162,223.067 1127.944,223.241 1138.000,212.000" stroke-width="1.894" stroke="black" fill="none" stroke-linecap="round"></path><path d="M 1138.000,212.000 C 1151.732,195.473 1152.162,196.067 1164.000,178.000" stroke-width="1.677" stroke="black" fill="none" stroke-linecap="round"></path><path d="M 1164.000,178.000 C 1168.426,171.865 1168.232,171.973 1171.000,165.000" stroke-width="2.431" stroke="black" fill="none" stroke-linecap="round"></path><path d="M 1171.000,165.000 C 1174.085,155.576 1174.426,155.865 1176.000,146.000" stroke-width="2.496" stroke="black" fill="none" stroke-linecap="round"></path><path d="M 1176.000,146.000 C 1177.029,142.574 1176.585,143.076 1176.000,140.000" stroke-width="3.751" stroke="black" fill="none" stroke-linecap="round"></path><path d="M 1176.000,140.000 C 1174.643,136.634 1175.029,137.574 1172.000,136.000" stroke-width="4.025" stroke="black" fill="none" stroke-linecap="round"></path><path d="M 1172.000,136.000 C 1160.988,132.098 1162.143,133.634 1151.000,134.000" stroke-width="2.830" stroke="black" fill="none" stroke-linecap="round"></path><path d="M 1151.000,134.000 C 1140.321,138.649 1139.988,136.098 1130.000,144.000" stroke-width="2.495" stroke="black" fill="none" stroke-linecap="round"></path><path d="M 1130.000,144.000 C 1112.828,151.900 1113.321,152.649 1097.000,162.000" stroke-width="1.862" stroke="black" fill="none" stroke-linecap="round"></path><path d="M 1097.000,162.000 C 1060.657,186.012 1060.328,185.400 1025.000,211.000" stroke-width="1.125" stroke="black" fill="none" stroke-linecap="round"></path><path d="M 1025.000,211.000 C 995.232,228.510 997.157,230.512 970.000,251.000" stroke-width="1.125" stroke="black" fill="none" stroke-linecap="round"></path><path d="M 970.000,251.000 C 951.442,271.950 949.232,269.510 933.000,293.000" stroke-width="1.205" stroke="black" fill="none" stroke-linecap="round"></path><path d="M 933.000,293.000 C 901.046,327.780 901.942,328.450 871.000,364.000" stroke-width="1.125" stroke="black" fill="none" stroke-linecap="round"></path><path d="M 871.000,364.000 C 864.925,372.164 864.546,371.780 860.000,381.000" stroke-width="1.690" stroke="black" fill="none" stroke-linecap="round"></path><path d="M 860.000,381.000 C 848.405,402.951 847.925,402.664 837.000,425.000" stroke-width="1.453" stroke="black" fill="none" stroke-linecap="round"></path><path d="M 837.000,425.000 C 832.640,431.740 833.405,431.951 830.000,439.000" stroke-width="2.245" stroke="black" fill="none" stroke-linecap="round"></path><path d="M 830.000,439.000 C 827.884,443.429 828.640,442.740 829.000,447.000" stroke-width="3.154" stroke="black" fill="none" stroke-linecap="round"></path><path d="M 829.000,447.000 C 830.418,453.805 830.384,451.429 835.000,455.000" stroke-width="3.416" stroke="black" fill="none" stroke-linecap="round"></path><path d="M 835.000,455.000 C 855.211,460.666 853.418,459.805 875.000,459.000" stroke-width="1.905" stroke="black" fill="none" stroke-linecap="round"></path><path d="M 875.000,459.000 C 902.613,453.481 902.711,456.666 930.000,447.000" stroke-width="1.441" stroke="black" fill="none" stroke-linecap="round"></path><path d="M 930.000,447.000 C 967.694,436.052 968.113,437.981 1006.000,428.000" stroke-width="1.125" stroke="black" fill="none" stroke-linecap="round"></path><path d="M 1006.000,428.000 C 1046.788,422.366 1046.194,419.552 1087.000,414.000" stroke-width="1.125" stroke="black" fill="none" stroke-linecap="round"></path><path d="M 1087.000,414.000 C 1122.367,409.066 1121.288,406.866 1155.000,397.000" stroke-width="1.125" stroke="black" fill="none" stroke-linecap="round"></path><path d="M 1155.000,397.000 C 1180.526,383.550 1181.867,387.066 1206.000,370.000" stroke-width="1.194" stroke="black" fill="none" stroke-linecap="round"></path><path d="M 1206.000,370.000 C 1227.973,359.266 1227.526,358.550 1249.000,347.000" stroke-width="1.325" stroke="black" fill="none" stroke-linecap="round"></path><path d="M 1249.000,347.000 C 1257.834,341.416 1257.973,341.766 1266.000,335.000" stroke-width="1.987" stroke="black" fill="none" stroke-linecap="round"></path><path d="M 1266.000,335.000 C 1271.488,329.987 1271.834,330.416 1277.000,325.000" stroke-width="2.602" stroke="black" fill="none" stroke-linecap="round"></path></svg>