<svg xmlns="http://www.w3.org/2000/svg" xmlns:xlink="http://www.w3.org/1999/xlink" viewBox="0 0 1460 590" width="1460" height="590"><path d="M 585.000,337.000 C 578.500,336.000 578.500,336.000 572.000,335.000" stroke-width="4.963" stroke="black" fill="none" stroke-linecap="round"></path><path d="M 572.000,335.000 C 565.480,334.117 565.500,334.000 559.000,333.000" stroke-width="3.556" stroke="black" fill="none" stroke-linecap="round"></path><path d="M 559.000,333.000 C 550.969,331.649 550.980,331.617 543.000,330.000" stroke-width="2.981" stroke="black" fill="none" stroke-linecap="round"></path><path d="M 543.000,330.000 C 536.470,328.618 536.469,328.649 530.000,327.000" stroke-width="3.041" stroke="black" fill="none" stroke-linecap="round"></path><path d="M 530.000,327.000 C 524.428,325.727 524.470,325.618 519.000,324.000" stroke-width="3.207" stroke="black" fill="none" stroke-linecap="round"></path><path d="M 519.000,324.000 C 513.452,322.120 513.428,322.227 508.000,320.000" stroke-width="3.293" stroke="black" fill="none" stroke-linecap="round"></path><path d="M 508.000,320.000 C 504.260,318.901 504.452,318.620 501.000,317.000" stroke-width="4.094" stroke="black" fill="none" stroke-linecap="round"></path><path d="M 501.000,317.000 C 496.457,315.512 498.260,315.401 496.000,313.000" stroke-width="4.535" stroke="black" fill="none" stroke-linecap="round"></path><path d="M 496.000,313.000 C 495.994,307.804 495.457,310.012 499.000,306.000" stroke-width="4.763" stroke="black" fill="none" stroke-linecap="round"></path><path d="M 499.000,306.000 C 507.225,301.788 505.994,301.804 516.000,301.000" stroke-width="3.153" stroke="black" fill="none" stroke-linecap="round"></path><path d="M 516.000,301.000 C 546.507,300.184 546.225,298.288 577.000,299.000" stroke-width="2.223" stroke="black" fill="none" stroke-linecap="round"></path><path d="M 577.000,299.000 C 597.989,297.657 598.007,298.184 619.000,297.000" stroke-width="1.763" stroke="black" fill="none" stroke-linecap="round"></path><path d="M 619.000,297.000 C 646.060,295.122 645.989,296.157 673.000,296.000" stroke-width="1.399" stroke="black" fill="none" stroke-linecap="round"></path><path d="M 673.000,296.000 C 692.256,296.817 692.060,296.622 711.000,300.000" stroke-width="2.089" stroke="black" fill="none" stroke-linecap="round"></path><path d="M 711.000,300.000 C 718.936,301.590 718.756,301.317 726.000,305.000" stroke-width="2.606" stroke="black" fill="none" stroke-linecap="round"></path><path d="M 726.000,305.000 C 733.035,309.446 733.436,308.590 740.000,314.000" stroke-width="2.767" stroke="black" fill="none" stroke-linecap="round"></path><path d="M 740.000,314.000 C 745.804,318.328 746.035,317.946 752.000,322.000" stroke-width="2.955" stroke="black" fill="none" stroke-linecap="round"></path><path d="M 752.000,322.000 C 759.190,326.768 759.304,326.328 767.000,330.000" stroke-width="2.792" stroke="black" fill="none" stroke-linecap="round"></path><path d="M 767.000,330.000 C 773.872,332.727 773.690,332.768 781.000,334.000" stroke-width="2.897" stroke="black" fill="none" stroke-linecap="round"></path><path d="M 781.000,334.000 C 788.055,335.463 787.872,335.227 795.000,335.000" stroke-width="2.966" stroke="black" fill="none" stroke-linecap="round"></path><path d="M 795.000,335.000 C 803.353,334.616 803.055,334.463 811.000,332.000" stroke-width="2.901" stroke="black" fill="none" stroke-linecap="round"></path><path d="M 811.000,332.000 C 822.275,327.516 822.353,328.116 833.000,322.000" stroke-width="2.471" stroke="black" fill="none" stroke-linecap="round"></path><path d="M 833.000,322.000 C 839.091,317.199 839.775,318.516 846.000,314.000" stroke-width="2.743" stroke="black" fill="none" stroke-linecap="round"></path><path d="M 846.000,314.000 C 866.119,304.085 866.091,304.699 887.000,297.000" stroke-width="1.790" stroke="black" fill="none" stroke-linecap="round"></path><path d="M 887.000,297.000 C 894.481,295.000 894.119,294.585 902.000,295.000" stroke-width="2.521" stroke="black" fill="none" stroke-linecap="round"></path><path d="M 902.000,295.000 C 912.692,295.050 912.481,295.000 923.000,297.000" stroke-width="2.390" stroke="black" fill="none" stroke-linecap="round"></path><path d="M 923.000,297.000 C 930.950,302.212 931.192,298.550 939.000,302.000" stroke-width="2.683" stroke="black" fill="none" stroke-linecap="round"></path><path d="M 939.000,302.000 C 949.955,298.825 949.950,301.712 961.000,296.000" stroke-width="4.045" stroke="black" fill="none" stroke-linecap="round"></path><path d="M 961.000,296.000 C 971.316,292.417 971.455,293.325 982.000,291.000" stroke-width="2.728" stroke="black" fill="none" stroke-linecap="round"></path><path d="M 982.000,291.000 C 1020.422,285.126 1020.316,285.917 1059.000,283.000" stroke-width="1.195" stroke="black" fill="none" stroke-linecap="round"></path><path d="M 1059.000,283.000 C 1083.999,283.545 1083.922,281.626 1109.000,284.000" stroke-width="1.308" stroke="black" fill="none" stroke-linecap="round"></path><path d="M 1109.000,284.000 C 1166.499,285.142 1166.499,285.045 1224.000,286.000" stroke-width="1.125" stroke="black" fill="none" stroke-linecap="round"></path><path d="M 1224.000,286.000 C 1233.500,286.000 1233.499,286.142 1243.000,286.000" stroke-width="1.585" stroke="black" fill="none" stroke-linecap="round"></path><path d="M 1243.000,286.000 C 1259.000,286.000 1259.000,286.000 1275.000,286.000" stroke-width="1.777" stroke="black" fill="none" stroke-linecap="round"></path><path d="M 1275.000,286.000 C 1292.517,285.620 1292.500,286.000 1310.000,286.000" stroke-width="1.769" stroke="black" fill="none" stroke-linecap="round"></path><path d="M 1310.000,286.000 C 1315.512,286.390 1315.517,286.120 1321.000,287.000" stroke-width="2.632" stroke="black" fill="none" stroke-linecap="round"></path><path d="M 1321.000,287.000 C 1340.189,287.821 1333.512,288.390 1346.000,290.000" stroke-width="2.886" stroke="black" fill="none" stroke-linecap="round"></path><path d="M 1346.000,290.000 C 1341.656,292.463 1348.189,290.821 1337.000,293.000" stroke-width="4.254" stroke="black" fill="none" stroke-linecap="round"></path><path d="M 1337.000,293.000 C 1328.466,293.591 1328.656,293.963 1320.000,293.000" stroke-width="3.056" stroke="black" fill="none" stroke-linecap="round"></path><path d="M 1320.000,293.000 C 1307.026,291.241 1306.966,292.091 1294.000,290.000" stroke-width="2.347" stroke="black" fill="none" stroke-linecap="round"></path><path d="M 1294.000,290.000 C 1264.965,287.861 1265.026,287.241 1236.000,285.000" stroke-width="1.418" stroke="black" fill="none" stroke-linecap="round"></path><path d="M 1236.000,285.000 C 1184.181,276.519 1183.965,279.861 1132.000,274.000" stroke-width="1.125" stroke="black" fill="none" stroke-linecap="round"></path><path d="M 1132.000,274.000 C 1038.959,270.334 1039.181,269.519 946.000,271.000" stroke-width="1.125" stroke="black" fill="none" stroke-linecap="round"></path><path d="M 946.000,271.000 C 899.453,272.804 899.459,271.334 853.000,276.000" stroke-width="1.125" stroke="black" fill="none" stroke-linecap="round"></path><path d="M 853.000,276.000 C 790.538,281.701 790.453,280.304 728.000,286.000" stroke-width="1.125" stroke="black" fill="none" stroke-linecap="round"></path><path d="M 728.000,286.000 C 710.503,286.646 710.538,287.201 693.000,287.000" stroke-width="1.199" stroke="black" fill="none" stroke-linecap="round"></path><path d="M 693.000,287.000 C 661.001,287.573 661.003,287.646 629.000,288.000" stroke-width="1.642" stroke="black" fill="none" stroke-linecap="round"></path><path d="M 629.000,288.000 C 623.466,288.342 623.501,288.073 618.000,288.000" stroke-width="2.547" stroke="black" fill="none" stroke-linecap="round"></path><path d="M 618.000,288.000 C 615.163,288.236 615.466,287.842 613.000,287.000" stroke-width="3.577" stroke="black" fill="none" stroke-linecap="round"></path></svg>