<svg xmlns="http://www.w3.org/2000/svg" xmlns:xlink="http://www.w3.org/1999/xlink" viewBox="0 0 1460 590" width="1460" height="590"><path d="M 486.000,157.000 C 476.583,168.941 477.500,169.500 469.000,182.000" stroke-width="4.460" stroke="black" fill="none" stroke-linecap="round"></path><path d="M 469.000,182.000 C 453.353,217.970 449.583,215.441 432.000,250.000" stroke-width="2.105" stroke="black" fill="none" stroke-linecap="round"></path><path d="M 432.000,250.000 C 412.943,271.044 416.353,273.470 395.000,293.000" stroke-width="1.517" stroke="black" fill="none" stroke-linecap="round"></path><path d="M 395.000,293.000 C 375.377,317.905 374.943,317.544 356.000,343.000" stroke-width="1.226" stroke="black" fill="none" stroke-linecap="round"></path><path d="M 356.000,343.000 C 346.232,358.656 344.877,357.405 334.000,372.000" stroke-width="1.574" stroke="black" fill="none" stroke-linecap="round"></path><path d="M 334.000,372.000 C 322.859,381.348 324.232,382.656 312.000,391.000" stroke-width="1.938" stroke="black" fill="none" stroke-linecap="round"></path><path d="M 312.000,391.000 C 309.613,393.624 309.359,393.348 307.000,396.000" stroke-width="3.114" stroke="black" fill="none" stroke-linecap="round"></path><path d="M 307.000,396.000 C 302.405,401.281 304.113,398.624 301.000,401.000" stroke-width="4.023" stroke="black" fill="none" stroke-linecap="round"></path><path d="M 460.000,199.000 C 462.642,202.770 461.500,203.000 463.000,207.000" stroke-width="4.990" stroke="black" fill="none" stroke-linecap="round"></path><path d="M 463.000,207.000 C 464.420,232.492 465.142,232.270 465.000,258.000" stroke-width="1.792" stroke="black" fill="none" stroke-linecap="round"></path><path d="M 465.000,258.000 C 465.552,276.518 465.420,276.492 465.000,295.000" stroke-width="1.777" stroke="black" fill="none" stroke-linecap="round"></path><path d="M 465.000,295.000 C 462.810,309.997 464.552,310.018 463.000,325.000" stroke-width="1.897" stroke="black" fill="none" stroke-linecap="round"></path><path d="M 463.000,325.000 C 463.341,349.688 463.310,349.497 466.000,374.000" stroke-width="1.505" stroke="black" fill="none" stroke-linecap="round"></path><path d="M 466.000,374.000 C 467.548,381.645 466.841,381.688 470.000,389.000" stroke-width="2.250" stroke="black" fill="none" stroke-linecap="round"></path><path d="M 470.000,389.000 C 474.245,401.111 474.048,401.145 479.000,413.000" stroke-width="2.844" stroke="black" fill="none" stroke-linecap="round"></path><path d="M 539.000,299.000 C 541.975,296.291 541.500,296.000 544.000,293.000" stroke-width="5.016" stroke="black" fill="none" stroke-linecap="round"></path><path d="M 544.000,293.000 C 546.449,289.720 545.975,289.791 547.000,286.000" stroke-width="4.107" stroke="black" fill="none" stroke-linecap="round"></path><path d="M 547.000,286.000 C 548.000,275.992 548.449,276.220 548.000,266.000" stroke-width="2.831" stroke="black" fill="none" stroke-linecap="round"></path><path d="M 548.000,266.000 C 548.564,259.629 548.000,259.992 547.000,254.000" stroke-width="3.139" stroke="black" fill="none" stroke-linecap="round"></path><path d="M 547.000,254.000 C 545.988,249.839 546.064,250.629 543.000,248.000" stroke-width="3.622" stroke="black" fill="none" stroke-linecap="round"></path><path d="M 543.000,248.000 C 532.733,239.768 532.988,241.839 521.000,238.000" stroke-width="2.603" stroke="black" fill="none" stroke-linecap="round"></path><path d="M 521.000,238.000 C 495.403,235.704 496.233,234.268 470.000,237.000" stroke-width="2.216" stroke="black" fill="none" stroke-linecap="round"></path><path d="M 470.000,237.000 C 446.455,239.702 446.403,238.204 423.000,243.000" stroke-width="1.591" stroke="black" fill="none" stroke-linecap="round"></path><path d="M 423.000,243.000 C 414.074,243.106 414.455,244.202 406.000,246.000" stroke-width="2.236" stroke="black" fill="none" stroke-linecap="round"></path><path d="M 406.000,246.000 C 386.820,252.162 387.574,252.606 370.000,262.000" stroke-width="2.483" stroke="black" fill="none" stroke-linecap="round"></path><path d="M 370.000,262.000 C 359.927,268.225 360.320,267.662 353.000,277.000" stroke-width="2.372" stroke="black" fill="none" stroke-linecap="round"></path><path d="M 353.000,277.000 C 342.443,287.563 344.927,287.225 340.000,300.000" stroke-width="2.251" stroke="black" fill="none" stroke-linecap="round"></path><path d="M 340.000,300.000 C 338.639,317.204 336.943,315.563 342.000,333.000" stroke-width="2.615" stroke="black" fill="none" stroke-linecap="round"></path><path d="M 342.000,333.000 C 344.531,341.321 343.639,340.704 350.000,347.000" stroke-width="2.852" stroke="black" fill="none" stroke-linecap="round"></path><path d="M 350.000,347.000 C 358.049,355.631 357.531,354.821 368.000,360.000" stroke-width="2.486" stroke="black" fill="none" stroke-linecap="round"></path><path d="M 368.000,360.000 C 379.391,363.301 378.549,364.631 391.000,365.000" stroke-width="2.396" stroke="black" fill="none" stroke-linecap="round"></path><path d="M 391.000,365.000 C 399.993,366.000 399.891,366.301 409.000,366.000" stroke-width="2.565" stroke="black" fill="none" stroke-linecap="round"></path><path d="M 409.000,366.000 C 427.554,366.318 427.493,366.000 446.000,365.000" stroke-width="2.011" stroke="black" fill="none" stroke-linecap="round"></path><path d="M 446.000,365.000 C 470.094,365.195 469.554,363.318 493.000,360.000" stroke-width="1.666" stroke="black" fill="none" stroke-linecap="round"></path><path d="M 493.000,360.000 C 519.027,353.811 518.594,354.195 543.000,343.000" stroke-width="1.398" stroke="black" fill="none" stroke-linecap="round"></path><path d="M 543.000,343.000 C 568.868,328.254 570.027,330.811 595.000,314.000" stroke-width="1.291" stroke="black" fill="none" stroke-linecap="round"></path><path d="M 595.000,314.000 C 608.730,309.218 607.368,307.254 620.000,301.000" stroke-width="1.736" stroke="black" fill="none" stroke-linecap="round"></path><path d="M 620.000,301.000 C 631.151,289.602 632.730,291.718 643.000,279.000" stroke-width="1.835" stroke="black" fill="none" stroke-linecap="round"></path><path d="M 643.000,279.000 C 650.691,273.213 650.151,272.602 658.000,267.000" stroke-width="2.287" stroke="black" fill="none" stroke-linecap="round"></path><path d="M 566.000,326.000 C 569.889,324.121 570.000,324.500 574.000,323.000" stroke-width="5.263" stroke="black" fill="none" stroke-linecap="round"></path><path d="M 574.000,323.000 C 581.090,321.854 580.889,321.121 588.000,320.000" stroke-width="3.415" stroke="black" fill="none" stroke-linecap="round"></path><path d="M 588.000,320.000 C 601.296,315.175 601.590,316.354 615.000,312.000" stroke-width="2.319" stroke="black" fill="none" stroke-linecap="round"></path><path d="M 615.000,312.000 C 642.488,306.438 642.296,305.675 670.000,301.000" stroke-width="1.449" stroke="black" fill="none" stroke-linecap="round"></path><path d="M 670.000,301.000 C 685.412,297.419 685.488,297.938 701.000,295.000" stroke-width="1.777" stroke="black" fill="none" stroke-linecap="round"></path><path d="M 701.000,295.000 C 714.504,292.307 714.412,292.919 728.000,292.000" stroke-width="1.982" stroke="black" fill="none" stroke-linecap="round"></path><path d="M 728.000,292.000 C 740.759,289.759 736.504,291.807 745.000,294.000" stroke-width="2.770" stroke="black" fill="none" stroke-linecap="round"></path><path d="M 745.000,294.000 C 744.938,300.864 748.259,297.259 743.000,307.000" stroke-width="3.542" stroke="black" fill="none" stroke-linecap="round"></path><path d="M 743.000,307.000 C 736.398,312.913 741.938,310.364 739.000,313.000" stroke-width="3.818" stroke="black" fill="none" stroke-linecap="round"></path><path d="M 739.000,313.000 C 756.069,310.913 751.398,313.413 773.000,308.000" stroke-width="3.486" stroke="black" fill="none" stroke-linecap="round"></path><path d="M 773.000,308.000 C 802.402,301.882 802.569,302.913 832.000,297.000" stroke-width="1.476" stroke="black" fill="none" stroke-linecap="round"></path><path d="M 832.000,297.000 C 850.924,293.547 850.902,293.882 870.000,292.000" stroke-width="1.598" stroke="black" fill="none" stroke-linecap="round"></path><path d="M 870.000,292.000 C 887.998,291.391 887.924,290.547 906.000,291.000" stroke-width="2.252" stroke="black" fill="none" stroke-linecap="round"></path><path d="M 906.000,291.000 C 911.099,290.387 910.998,290.891 916.000,291.000" stroke-width="2.981" stroke="black" fill="none" stroke-linecap="round"></path><path d="M 916.000,291.000 C 920.302,290.498 919.099,291.387 922.000,293.000" stroke-width="3.646" stroke="black" fill="none" stroke-linecap="round"></path><path d="M 922.000,293.000 C 929.761,305.702 929.802,304.498 935.000,319.000" stroke-width="3.194" stroke="black" fill="none" stroke-linecap="round"></path><path d="M 935.000,319.000 C 932.947,324.358 936.261,322.202 935.000,326.000" stroke-width="4.098" stroke="black" fill="none" stroke-linecap="round"></path><path d="M 935.000,326.000 C 940.208,328.027 937.947,328.358 945.000,327.000" stroke-width="3.687" stroke="black" fill="none" stroke-linecap="round"></path><path d="M 945.000,327.000 C 954.218,324.003 954.208,325.027 963.000,320.000" stroke-width="2.880" stroke="black" fill="none" stroke-linecap="round"></path><path d="M 963.000,320.000 C 986.948,303.662 988.218,308.503 1013.000,296.000" stroke-width="1.515" stroke="black" fill="none" stroke-linecap="round"></path><path d="M 1013.000,296.000 C 1030.713,293.535 1029.448,291.162 1048.000,295.000" stroke-width="1.728" stroke="black" fill="none" stroke-linecap="round"></path><path d="M 1048.000,295.000 C 1060.473,296.654 1060.213,296.035 1072.000,301.000" stroke-width="2.039" stroke="black" fill="none" stroke-linecap="round"></path><path d="M 1072.000,301.000 C 1090.320,309.942 1090.973,308.154 1109.000,318.000" stroke-width="1.755" stroke="black" fill="none" stroke-linecap="round"></path><path d="M 1109.000,318.000 C 1115.904,320.817 1115.820,320.942 1123.000,323.000" stroke-width="2.433" stroke="black" fill="none" stroke-linecap="round"></path><path d="M 1123.000,323.000 C 1128.975,326.000 1128.904,324.817 1135.000,326.000" stroke-width="2.956" stroke="black" fill="none" stroke-linecap="round"></path><path d="M 1135.000,326.000 C 1144.166,327.462 1141.975,326.000 1149.000,323.000" stroke-width="3.024" stroke="black" fill="none" stroke-linecap="round"></path><path d="M 1149.000,323.000 C 1158.137,311.406 1157.166,315.462 1161.000,302.000" stroke-width="2.496" stroke="black" fill="none" stroke-linecap="round"></path><path d="M 1161.000,302.000 C 1158.610,300.559 1161.637,299.906 1156.000,300.000" stroke-width="4.051" stroke="black" fill="none" stroke-linecap="round"></path><path d="M 1156.000,300.000 C 1151.387,300.097 1151.610,299.059 1147.000,299.000" stroke-width="3.718" stroke="black" fill="none" stroke-linecap="round"></path><path d="M 1147.000,299.000 C 1114.089,286.753 1113.387,290.597 1080.000,281.000" stroke-width="1.403" stroke="black" fill="none" stroke-linecap="round"></path><path d="M 1080.000,281.000 C 1033.595,273.189 1034.089,273.253 987.000,272.000" stroke-width="1.125" stroke="black" fill="none" stroke-linecap="round"></path><path d="M 987.000,272.000 C 935.026,269.252 935.595,270.689 884.000,276.000" stroke-width="1.125" stroke="black" fill="none" stroke-linecap="round"></path><path d="M 884.000,276.000 C 719.630,300.526 719.526,297.752 556.000,329.000" stroke-width="1.125" stroke="black" fill="none" stroke-linecap="round"></path><path d="M 556.000,329.000 C 505.151,344.418 504.130,338.026 453.000,351.000" stroke-width="1.125" stroke="black" fill="none" stroke-linecap="round"></path><path d="M 453.000,351.000 C 349.986,361.165 350.651,363.918 247.000,368.000" stroke-width="1.125" stroke="black" fill="none" stroke-linecap="round"></path><path d="M 247.000,368.000 C 236.461,368.661 236.986,368.665 227.000,366.000" stroke-width="1.480" stroke="black" fill="none" stroke-linecap="round"></path><path d="M 227.000,366.000 C 220.266,363.279 220.461,364.161 215.000,359.000" stroke-width="2.297" stroke="black" fill="none" stroke-linecap="round"></path></svg>