<svg xmlns="http://www.w3.org/2000/svg" xmlns:xlink="http://www.w3.org/1999/xlink" viewBox="0 0 1460 590" width="1460" height="590"><path d="M 461.000,337.000 C 457.846,337.005 458.000,336.500 455.000,336.000" stroke-width="5.426" stroke="black" fill="none" stroke-linecap="round"></path><path d="M 455.000,336.000 C 449.229,333.941 449.346,334.005 444.000,331.000" stroke-width="4.080" stroke="black" fill="none" stroke-linecap="round"></path><path d="M 444.000,331.000 C 441.587,328.881 441.229,329.441 439.000,327.000" stroke-width="4.326" stroke="black" fill="none" stroke-linecap="round"></path><path d="M 439.000,327.000 C 435.853,325.194 436.087,324.881 433.000,323.000" stroke-width="4.002" stroke="black" fill="none" stroke-linecap="round"></path><path d="M 433.000,323.000 C 429.807,319.538 429.353,320.194 426.000,317.000" stroke-width="4.488" stroke="black" fill="none" stroke-linecap="round"></path><path d="M 426.000,317.000 C 422.101,314.757 422.307,314.538 418.000,313.000" stroke-width="4.683" stroke="black" fill="none" stroke-linecap="round"></path><path d="M 418.000,313.000 C 415.058,311.765 415.101,311.757 412.000,311.000" stroke-width="4.725" stroke="black" fill="none" stroke-linecap="round"></path><path d="M 412.000,311.000 C 406.487,311.462 409.058,310.265 406.000,310.000" stroke-width="4.931" stroke="black" fill="none" stroke-linecap="round"></path><path d="M 406.000,310.000 C 407.556,306.901 405.487,308.462 410.000,305.000" stroke-width="5.293" stroke="black" fill="none" stroke-linecap="round"></path><path d="M 410.000,305.000 C 412.562,304.138 412.056,303.401 415.000,303.000" stroke-width="4.534" stroke="black" fill="none" stroke-linecap="round"></path><path d="M 415.000,303.000 C 419.914,300.312 420.062,300.638 425.000,298.000" stroke-width="4.272" stroke="black" fill="none" stroke-linecap="round"></path><path d="M 425.000,298.000 C 431.245,295.984 430.914,295.312 437.000,293.000" stroke-width="3.450" stroke="black" fill="none" stroke-linecap="round"></path><path d="M 437.000,293.000 C 444.868,289.019 444.745,288.984 452.000,284.000" stroke-width="3.459" stroke="black" fill="none" stroke-linecap="round"></path><path d="M 452.000,284.000 C 457.704,278.547 458.368,279.519 464.000,274.000" stroke-width="3.461" stroke="black" fill="none" stroke-linecap="round"></path><path d="M 464.000,274.000 C 467.091,272.662 466.704,272.047 470.000,271.000" stroke-width="3.798" stroke="black" fill="none" stroke-linecap="round"></path><path d="M 470.000,271.000 C 473.909,268.338 474.091,268.662 478.000,266.000" stroke-width="3.670" stroke="black" fill="none" stroke-linecap="round"></path><path d="M 478.000,266.000 C 481.413,265.094 480.909,264.338 484.000,263.000" stroke-width="3.870" stroke="black" fill="none" stroke-linecap="round"></path><path d="M 484.000,263.000 C 491.572,256.074 491.913,256.594 499.000,249.000" stroke-width="3.609" stroke="black" fill="none" stroke-linecap="round"></path><path d="M 499.000,249.000 C 502.000,246.000 502.072,246.074 505.000,243.000" stroke-width="4.029" stroke="black" fill="none" stroke-linecap="round"></path><path d="M 505.000,243.000 C 507.631,239.527 508.000,240.000 511.000,237.000" stroke-width="3.973" stroke="black" fill="none" stroke-linecap="round"></path><path d="M 511.000,237.000 C 516.000,234.000 515.631,233.527 521.000,231.000" stroke-width="3.440" stroke="black" fill="none" stroke-linecap="round"></path><path d="M 521.000,231.000 C 523.875,229.948 523.500,229.500 526.000,228.000" stroke-width="3.891" stroke="black" fill="none" stroke-linecap="round"></path><path d="M 526.000,228.000 C 529.651,224.122 529.875,224.448 533.000,220.000" stroke-width="3.518" stroke="black" fill="none" stroke-linecap="round"></path><path d="M 533.000,220.000 C 535.878,215.903 536.151,216.122 539.000,212.000" stroke-width="3.718" stroke="black" fill="none" stroke-linecap="round"></path><path d="M 539.000,212.000 C 543.519,205.481 543.878,205.903 549.000,200.000" stroke-width="3.253" stroke="black" fill="none" stroke-linecap="round"></path><path d="M 549.000,200.000 C 552.287,197.122 552.019,196.981 556.000,195.000" stroke-width="3.854" stroke="black" fill="none" stroke-linecap="round"></path><path d="M 556.000,195.000 C 562.139,191.713 559.287,193.122 563.000,192.000" stroke-width="4.504" stroke="black" fill="none" stroke-linecap="round"></path><path d="M 563.000,192.000 C 560.615,193.693 563.639,192.213 559.000,196.000" stroke-width="5.096" stroke="black" fill="none" stroke-linecap="round"></path><path d="M 559.000,196.000 C 554.151,204.101 553.615,203.693 549.000,212.000" stroke-width="3.030" stroke="black" fill="none" stroke-linecap="round"></path><path d="M 549.000,212.000 C 546.294,215.367 546.651,215.601 544.000,219.000" stroke-width="3.534" stroke="black" fill="none" stroke-linecap="round"></path><path d="M 544.000,219.000 C 540.574,225.044 540.294,224.867 537.000,231.000" stroke-width="3.275" stroke="black" fill="none" stroke-linecap="round"></path><path d="M 537.000,231.000 C 530.626,242.930 530.074,242.544 523.000,254.000" stroke-width="2.548" stroke="black" fill="none" stroke-linecap="round"></path><path d="M 523.000,254.000 C 513.222,264.230 515.126,265.430 506.000,276.000" stroke-width="2.504" stroke="black" fill="none" stroke-linecap="round"></path><path d="M 506.000,276.000 C 501.775,287.469 499.722,286.230 496.000,298.000" stroke-width="2.706" stroke="black" fill="none" stroke-linecap="round"></path><path d="M 496.000,298.000 C 492.312,302.363 493.275,302.969 489.000,307.000" stroke-width="3.137" stroke="black" fill="none" stroke-linecap="round"></path><path d="M 489.000,307.000 C 483.147,317.009 482.312,316.363 476.000,326.000" stroke-width="2.752" stroke="black" fill="none" stroke-linecap="round"></path><path d="M 476.000,326.000 C 466.981,335.983 467.647,336.509 458.000,346.000" stroke-width="2.986" stroke="black" fill="none" stroke-linecap="round"></path><path d="M 458.000,346.000 C 453.522,350.136 453.981,350.483 450.000,355.000" stroke-width="3.079" stroke="black" fill="none" stroke-linecap="round"></path><path d="M 450.000,355.000 C 443.780,365.207 443.022,364.636 437.000,375.000" stroke-width="2.522" stroke="black" fill="none" stroke-linecap="round"></path><path d="M 437.000,375.000 C 434.210,377.785 434.780,378.207 432.000,381.000" stroke-width="3.288" stroke="black" fill="none" stroke-linecap="round"></path><path d="M 432.000,381.000 C 424.163,394.538 423.210,393.785 415.000,407.000" stroke-width="2.606" stroke="black" fill="none" stroke-linecap="round"></path><path d="M 415.000,407.000 C 411.234,411.265 411.663,411.538 407.000,415.000" stroke-width="3.405" stroke="black" fill="none" stroke-linecap="round"></path><path d="M 407.000,415.000 C 402.619,418.664 402.734,418.765 398.000,422.000" stroke-width="3.481" stroke="black" fill="none" stroke-linecap="round"></path><path d="M 398.000,422.000 C 393.527,425.040 393.619,425.164 389.000,428.000" stroke-width="3.504" stroke="black" fill="none" stroke-linecap="round"></path><path d="M 389.000,428.000 C 380.152,433.043 380.527,433.540 372.000,439.000" stroke-width="3.258" stroke="black" fill="none" stroke-linecap="round"></path><path d="M 372.000,439.000 C 367.756,443.325 367.152,442.543 363.000,447.000" stroke-width="3.513" stroke="black" fill="none" stroke-linecap="round"></path><path d="M 363.000,447.000 C 356.524,451.536 356.756,451.825 350.000,456.000" stroke-width="3.244" stroke="black" fill="none" stroke-linecap="round"></path><path d="M 350.000,456.000 C 347.297,458.587 347.024,458.036 344.000,460.000" stroke-width="3.708" stroke="black" fill="none" stroke-linecap="round"></path><path d="M 344.000,460.000 C 333.120,464.413 333.297,464.587 322.000,468.000" stroke-width="3.341" stroke="black" fill="none" stroke-linecap="round"></path><path d="M 322.000,468.000 C 317.560,469.544 317.620,469.413 313.000,470.000" stroke-width="3.497" stroke="black" fill="none" stroke-linecap="round"></path><path d="M 313.000,470.000 C 307.487,469.739 307.560,470.544 302.000,470.000" stroke-width="3.381" stroke="black" fill="none" stroke-linecap="round"></path><path d="M 302.000,470.000 C 297.009,470.615 296.987,470.239 292.000,471.000" stroke-width="3.627" stroke="black" fill="none" stroke-linecap="round"></path><path d="M 292.000,471.000 C 284.005,471.652 284.009,471.615 276.000,472.000" stroke-width="3.258" stroke="black" fill="none" stroke-linecap="round"></path><path d="M 276.000,472.000 C 272.496,472.134 272.505,472.152 269.000,472.000" stroke-width="3.978" stroke="black" fill="none" stroke-linecap="round"></path><path d="M 269.000,472.000 C 259.478,471.729 259.496,471.634 250.000,471.000" stroke-width="3.711" stroke="black" fill="none" stroke-linecap="round"></path><path d="M 250.000,471.000 C 246.516,470.270 246.478,470.729 243.000,470.000" stroke-width="3.934" stroke="black" fill="none" stroke-linecap="round"></path><path d="M 243.000,470.000 C 239.963,470.370 240.016,469.770 237.000,470.000" stroke-width="4.129" stroke="black" fill="none" stroke-linecap="round"></path><path d="M 237.000,470.000 C 231.267,470.370 231.963,469.370 227.000,468.000" stroke-width="4.266" stroke="black" fill="none" stroke-linecap="round"></path><path d="M 227.000,468.000 C 221.739,464.732 222.267,465.370 219.000,460.000" stroke-width="4.212" stroke="black" fill="none" stroke-linecap="round"></path><path d="M 219.000,460.000 C 217.715,454.431 216.239,455.232 216.000,449.000" stroke-width="3.517" stroke="black" fill="none" stroke-linecap="round"></path><path d="M 216.000,449.000 C 213.775,445.132 214.715,444.931 213.000,441.000" stroke-width="3.672" stroke="black" fill="none" stroke-linecap="round"></path><path d="M 213.000,441.000 C 212.184,436.807 212.275,437.132 213.000,433.000" stroke-width="4.291" stroke="black" fill="none" stroke-linecap="round"></path><path d="M 213.000,433.000 C 214.183,429.808 213.684,429.807 216.000,427.000" stroke-width="4.056" stroke="black" fill="none" stroke-linecap="round"></path><path d="M 216.000,427.000 C 219.146,420.611 219.683,421.308 224.000,416.000" stroke-width="3.287" stroke="black" fill="none" stroke-linecap="round"></path><path d="M 224.000,416.000 C 229.955,411.930 229.146,411.111 236.000,408.000" stroke-width="3.050" stroke="black" fill="none" stroke-linecap="round"></path><path d="M 236.000,408.000 C 239.857,405.249 239.955,405.430 244.000,403.000" stroke-width="3.514" stroke="black" fill="none" stroke-linecap="round"></path><path d="M 244.000,403.000 C 257.138,395.043 257.357,395.749 271.000,389.000" stroke-width="2.380" stroke="black" fill="none" stroke-linecap="round"></path><path d="M 271.000,389.000 C 277.016,387.561 276.638,386.543 283.000,386.000" stroke-width="3.205" stroke="black" fill="none" stroke-linecap="round"></path><path d="M 283.000,386.000 C 288.519,384.566 288.516,384.561 294.000,383.000" stroke-width="3.416" stroke="black" fill="none" stroke-linecap="round"></path><path d="M 294.000,383.000 C 298.941,381.265 299.019,381.566 304.000,380.000" stroke-width="3.648" stroke="black" fill="none" stroke-linecap="round"></path><path d="M 304.000,380.000 C 309.044,379.189 308.941,378.765 314.000,378.000" stroke-width="3.496" stroke="black" fill="none" stroke-linecap="round"></path><path d="M 314.000,378.000 C 321.690,376.530 321.544,376.189 329.000,374.000" stroke-width="2.950" stroke="black" fill="none" stroke-linecap="round"></path><path d="M 329.000,374.000 C 334.395,371.242 334.690,372.030 340.000,369.000" stroke-width="3.124" stroke="black" fill="none" stroke-linecap="round"></path><path d="M 340.000,369.000 C 346.926,366.264 346.895,366.242 354.000,364.000" stroke-width="3.037" stroke="black" fill="none" stroke-linecap="round"></path><path d="M 354.000,364.000 C 359.510,362.537 359.426,362.264 365.000,361.000" stroke-width="3.261" stroke="black" fill="none" stroke-linecap="round"></path><path d="M 365.000,361.000 C 371.941,358.765 372.010,359.037 379.000,357.000" stroke-width="3.033" stroke="black" fill="none" stroke-linecap="round"></path><path d="M 379.000,357.000 C 385.973,355.360 385.941,355.265 393.000,354.000" stroke-width="2.988" stroke="black" fill="none" stroke-linecap="round"></path><path d="M 393.000,354.000 C 401.473,352.312 401.473,352.360 410.000,351.000" stroke-width="2.847" stroke="black" fill="none" stroke-linecap="round"></path><path d="M 410.000,351.000 C 414.495,350.450 414.473,350.312 419.000,350.000" stroke-width="3.377" stroke="black" fill="none" stroke-linecap="round"></path><path d="M 419.000,350.000 C 424.500,349.500 424.495,349.450 430.000,349.000" stroke-width="3.280" stroke="black" fill="none" stroke-linecap="round"></path><path d="M 430.000,349.000 C 435.490,348.276 435.500,348.500 441.000,348.000" stroke-width="3.313" stroke="black" fill="none" stroke-linecap="round"></path><path d="M 441.000,348.000 C 445.500,348.000 445.490,347.776 450.000,348.000" stroke-width="3.560" stroke="black" fill="none" stroke-linecap="round"></path><path d="M 450.000,348.000 C 454.540,348.446 454.500,348.000 459.000,348.000" stroke-width="3.529" stroke="black" fill="none" stroke-linecap="round"></path><path d="M 459.000,348.000 C 464.481,346.883 464.540,347.446 470.000,346.000" stroke-width="3.374" stroke="black" fill="none" stroke-linecap="round"></path><path d="M 470.000,346.000 C 477.217,345.696 476.981,344.883 484.000,344.000" stroke-width="3.092" stroke="black" fill="none" stroke-linecap="round"></path><path d="M 484.000,344.000 C 487.186,342.791 487.217,343.196 490.000,341.000" stroke-width="3.655" stroke="black" fill="none" stroke-linecap="round"></path><path d="M 490.000,341.000 C 492.473,338.965 492.686,339.291 495.000,337.000" stroke-width="3.901" stroke="black" fill="none" stroke-linecap="round"></path><path d="M 495.000,337.000 C 501.242,331.608 501.473,331.965 508.000,327.000" stroke-width="3.111" stroke="black" fill="none" stroke-linecap="round"></path><path d="M 508.000,327.000 C 512.280,323.943 512.242,324.108 517.000,322.000" stroke-width="3.323" stroke="black" fill="none" stroke-linecap="round"></path><path d="M 517.000,322.000 C 521.101,321.300 520.780,320.443 525.000,320.000" stroke-width="3.586" stroke="black" fill="none" stroke-linecap="round"></path><path d="M 525.000,320.000 C 528.386,318.112 528.601,318.800 532.000,317.000" stroke-width="3.741" stroke="black" fill="none" stroke-linecap="round"></path><path d="M 532.000,317.000 C 535.028,316.637 534.886,316.112 538.000,316.000" stroke-width="3.969" stroke="black" fill="none" stroke-linecap="round"></path><path d="M 538.000,316.000 C 541.939,314.641 542.028,315.137 546.000,314.000" stroke-width="3.840" stroke="black" fill="none" stroke-linecap="round"></path><path d="M 546.000,314.000 C 551.492,313.324 551.439,313.141 557.000,313.000" stroke-width="3.467" stroke="black" fill="none" stroke-linecap="round"></path><path d="M 557.000,313.000 C 564.071,312.388 559.992,312.824 563.000,313.000" stroke-width="4.326" stroke="black" fill="none" stroke-linecap="round"></path><path d="M 563.000,313.000 C 556.126,314.243 560.571,314.388 550.000,317.000" stroke-width="4.807" stroke="black" fill="none" stroke-linecap="round"></path><path d="M 550.000,317.000 C 546.487,319.482 546.126,318.743 543.000,322.000" stroke-width="4.003" stroke="black" fill="none" stroke-linecap="round"></path><path d="M 543.000,322.000 C 537.561,326.087 537.487,325.982 532.000,330.000" stroke-width="3.408" stroke="black" fill="none" stroke-linecap="round"></path><path d="M 532.000,330.000 C 524.021,335.531 524.061,335.587 516.000,341.000" stroke-width="2.751" stroke="black" fill="none" stroke-linecap="round"></path><path d="M 516.000,341.000 C 513.125,343.215 513.021,343.031 510.000,345.000" stroke-width="3.562" stroke="black" fill="none" stroke-linecap="round"></path><path d="M 510.000,345.000 C 505.163,346.080 506.125,347.215 502.000,349.000" stroke-width="4.108" stroke="black" fill="none" stroke-linecap="round"></path><path d="M 502.000,349.000 C 498.435,352.695 498.663,352.080 497.000,357.000" stroke-width="4.291" stroke="black" fill="none" stroke-linecap="round"></path><path d="M 497.000,357.000 C 495.430,361.308 495.935,360.195 497.000,364.000" stroke-width="4.513" stroke="black" fill="none" stroke-linecap="round"></path><path d="M 497.000,364.000 C 499.975,367.873 498.930,367.308 504.000,369.000" stroke-width="3.879" stroke="black" fill="none" stroke-linecap="round"></path><path d="M 504.000,369.000 C 513.010,370.640 512.475,371.373 522.000,371.000" stroke-width="2.918" stroke="black" fill="none" stroke-linecap="round"></path><path d="M 522.000,371.000 C 525.584,370.854 525.510,371.140 529.000,370.000" stroke-width="3.543" stroke="black" fill="none" stroke-linecap="round"></path><path d="M 529.000,370.000 C 533.586,368.727 533.584,368.854 538.000,367.000" stroke-width="3.535" stroke="black" fill="none" stroke-linecap="round"></path><path d="M 538.000,367.000 C 545.070,364.150 545.086,364.227 552.000,361.000" stroke-width="3.117" stroke="black" fill="none" stroke-linecap="round"></path><path d="M 552.000,361.000 C 556.000,359.000 556.070,359.150 560.000,357.000" stroke-width="3.445" stroke="black" fill="none" stroke-linecap="round"></path><path d="M 560.000,357.000 C 563.000,355.500 563.000,355.500 566.000,354.000" stroke-width="3.792" stroke="black" fill="none" stroke-linecap="round"></path><path d="M 566.000,354.000 C 570.000,352.000 570.000,352.000 574.000,350.000" stroke-width="3.815" stroke="black" fill="none" stroke-linecap="round"></path><path d="M 574.000,350.000 C 577.058,348.605 577.000,348.500 580.000,347.000" stroke-width="3.965" stroke="black" fill="none" stroke-linecap="round"></path><path d="M 580.000,347.000 C 582.875,345.948 582.558,345.605 585.000,344.000" stroke-width="4.074" stroke="black" fill="none" stroke-linecap="round"></path><path d="M 585.000,344.000 C 588.723,340.171 588.875,340.448 592.000,336.000" stroke-width="3.625" stroke="black" fill="none" stroke-linecap="round"></path><path d="M 592.000,336.000 C 594.283,333.149 594.223,333.171 596.000,330.000" stroke-width="3.846" stroke="black" fill="none" stroke-linecap="round"></path><path d="M 596.000,330.000 C 597.743,327.568 597.283,327.649 598.000,325.000" stroke-width="4.135" stroke="black" fill="none" stroke-linecap="round"></path><path d="M 598.000,325.000 C 598.604,321.604 598.243,322.568 597.000,320.000" stroke-width="4.225" stroke="black" fill="none" stroke-linecap="round"></path><path d="M 597.000,320.000 C 593.630,318.037 594.604,317.604 590.000,317.000" stroke-width="3.981" stroke="black" fill="none" stroke-linecap="round"></path><path d="M 590.000,317.000 C 586.445,315.617 586.630,316.037 583.000,316.000" stroke-width="3.925" stroke="black" fill="none" stroke-linecap="round"></path><path d="M 583.000,316.000 C 577.272,316.950 577.445,316.617 572.000,319.000" stroke-width="3.453" stroke="black" fill="none" stroke-linecap="round"></path><path d="M 572.000,319.000 C 568.284,320.682 568.272,320.450 565.000,323.000" stroke-width="3.649" stroke="black" fill="none" stroke-linecap="round"></path><path d="M 565.000,323.000 C 559.466,326.534 559.784,326.682 555.000,331.000" stroke-width="3.965" stroke="black" fill="none" stroke-linecap="round"></path><path d="M 555.000,331.000 C 553.710,333.649 552.966,333.034 552.000,336.000" stroke-width="4.119" stroke="black" fill="none" stroke-linecap="round"></path><path d="M 552.000,336.000 C 549.025,338.709 549.710,339.149 547.000,342.000" stroke-width="4.410" stroke="black" fill="none" stroke-linecap="round"></path><path d="M 547.000,342.000 C 542.838,346.094 545.025,345.209 544.000,349.000" stroke-width="4.521" stroke="black" fill="none" stroke-linecap="round"></path><path d="M 544.000,349.000 C 547.822,354.547 545.838,353.594 553.000,357.000" stroke-width="4.258" stroke="black" fill="none" stroke-linecap="round"></path><path d="M 553.000,357.000 C 558.130,358.664 557.322,359.047 563.000,358.000" stroke-width="3.662" stroke="black" fill="none" stroke-linecap="round"></path><path d="M 563.000,358.000 C 569.137,356.345 569.130,357.164 575.000,354.000" stroke-width="3.345" stroke="black" fill="none" stroke-linecap="round"></path><path d="M 575.000,354.000 C 581.600,351.200 581.637,351.345 588.000,348.000" stroke-width="3.135" stroke="black" fill="none" stroke-linecap="round"></path><path d="M 588.000,348.000 C 595.184,345.420 594.600,344.700 601.000,341.000" stroke-width="3.104" stroke="black" fill="none" stroke-linecap="round"></path><path d="M 601.000,341.000 C 606.741,334.714 607.684,335.920 613.000,329.000" stroke-width="2.763" stroke="black" fill="none" stroke-linecap="round"></path><path d="M 613.000,329.000 C 618.084,323.858 618.241,324.214 624.000,320.000" stroke-width="2.967" stroke="black" fill="none" stroke-linecap="round"></path><path d="M 624.000,320.000 C 630.105,317.193 629.584,316.358 636.000,314.000" stroke-width="3.089" stroke="black" fill="none" stroke-linecap="round"></path><path d="M 636.000,314.000 C 642.575,311.246 642.105,310.693 648.000,307.000" stroke-width="3.034" stroke="black" fill="none" stroke-linecap="round"></path><path d="M 648.000,307.000 C 653.271,301.251 654.075,302.246 659.000,296.000" stroke-width="2.966" stroke="black" fill="none" stroke-linecap="round"></path><path d="M 659.000,296.000 C 665.500,290.500 665.271,290.251 672.000,285.000" stroke-width="2.966" stroke="black" fill="none" stroke-linecap="round"></path><path d="M 672.000,285.000 C 678.869,279.886 678.500,279.500 685.000,274.000" stroke-width="2.726" stroke="black" fill="none" stroke-linecap="round"></path><path d="M 685.000,274.000 C 691.268,267.729 691.369,267.886 697.000,261.000" stroke-width="2.747" stroke="black" fill="none" stroke-linecap="round"></path><path d="M 697.000,261.000 C 702.535,254.027 702.768,254.229 708.000,247.000" stroke-width="2.687" stroke="black" fill="none" stroke-linecap="round"></path><path d="M 708.000,247.000 C 713.120,240.589 713.035,240.527 718.000,234.000" stroke-width="2.750" stroke="black" fill="none" stroke-linecap="round"></path><path d="M 718.000,234.000 C 723.594,227.343 723.120,227.089 728.000,220.000" stroke-width="2.837" stroke="black" fill="none" stroke-linecap="round"></path><path d="M 728.000,220.000 C 730.428,214.466 731.094,214.843 733.000,209.000" stroke-width="3.085" stroke="black" fill="none" stroke-linecap="round"></path><path d="M 733.000,209.000 C 734.152,205.772 734.428,205.966 736.000,203.000" stroke-width="3.651" stroke="black" fill="none" stroke-linecap="round"></path><path d="M 736.000,203.000 C 741.283,198.697 738.152,199.772 741.000,197.000" stroke-width="3.791" stroke="black" fill="none" stroke-linecap="round"></path><path d="M 741.000,197.000 C 737.752,196.029 740.783,195.697 735.000,197.000" stroke-width="4.724" stroke="black" fill="none" stroke-linecap="round"></path><path d="M 735.000,197.000 C 729.031,199.341 729.252,199.029 724.000,203.000" stroke-width="3.576" stroke="black" fill="none" stroke-linecap="round"></path><path d="M 724.000,203.000 C 718.395,207.889 718.031,207.341 713.000,213.000" stroke-width="3.214" stroke="black" fill="none" stroke-linecap="round"></path><path d="M 713.000,213.000 C 709.000,217.000 708.895,216.889 705.000,221.000" stroke-width="3.327" stroke="black" fill="none" stroke-linecap="round"></path><path d="M 705.000,221.000 C 689.840,235.844 690.000,236.000 675.000,251.000" stroke-width="1.836" stroke="black" fill="none" stroke-linecap="round"></path><path d="M 675.000,251.000 C 666.386,259.895 666.340,259.844 658.000,269.000" stroke-width="2.179" stroke="black" fill="none" stroke-linecap="round"></path><path d="M 658.000,269.000 C 648.569,278.638 648.886,278.895 640.000,289.000" stroke-width="2.121" stroke="black" fill="none" stroke-linecap="round"></path><path d="M 640.000,289.000 C 626.707,304.472 627.069,304.638 615.000,321.000" stroke-width="1.776" stroke="black" fill="none" stroke-linecap="round"></path><path d="M 615.000,321.000 C 610.101,328.797 609.707,328.472 606.000,337.000" stroke-width="2.338" stroke="black" fill="none" stroke-linecap="round"></path><path d="M 606.000,337.000 C 600.399,348.957 600.101,348.797 595.000,361.000" stroke-width="2.297" stroke="black" fill="none" stroke-linecap="round"></path><path d="M 595.000,361.000 C 591.020,366.566 593.899,363.457 593.000,366.000" stroke-width="3.632" stroke="black" fill="none" stroke-linecap="round"></path><path d="M 593.000,366.000 C 608.523,360.415 605.020,362.566 623.000,353.000" stroke-width="3.759" stroke="black" fill="none" stroke-linecap="round"></path><path d="M 623.000,353.000 C 628.345,348.770 629.023,349.915 634.000,345.000" stroke-width="3.225" stroke="black" fill="none" stroke-linecap="round"></path><path d="M 634.000,345.000 C 641.524,338.989 641.845,339.770 650.000,335.000" stroke-width="2.746" stroke="black" fill="none" stroke-linecap="round"></path><path d="M 650.000,335.000 C 659.036,332.103 658.524,330.989 668.000,329.000" stroke-width="2.623" stroke="black" fill="none" stroke-linecap="round"></path><path d="M 668.000,329.000 C 672.109,327.751 672.036,327.603 676.000,326.000" stroke-width="3.318" stroke="black" fill="none" stroke-linecap="round"></path><path d="M 676.000,326.000 C 682.168,323.296 682.109,323.251 688.000,320.000" stroke-width="3.133" stroke="black" fill="none" stroke-linecap="round"></path><path d="M 688.000,320.000 C 693.472,316.455 693.668,316.796 699.000,313.000" stroke-width="3.222" stroke="black" fill="none" stroke-linecap="round"></path><path d="M 699.000,313.000 C 701.333,311.067 701.472,311.455 704.000,310.000" stroke-width="3.804" stroke="black" fill="none" stroke-linecap="round"></path><path d="M 704.000,310.000 C 708.517,307.190 706.333,309.067 709.000,309.000" stroke-width="4.505" stroke="black" fill="none" stroke-linecap="round"></path><path d="M 709.000,309.000 C 710.909,317.969 710.517,314.690 708.000,325.000" stroke-width="4.315" stroke="black" fill="none" stroke-linecap="round"></path><path d="M 708.000,325.000 C 702.422,331.436 704.909,332.469 697.000,338.000" stroke-width="3.138" stroke="black" fill="none" stroke-linecap="round"></path><path d="M 697.000,338.000 C 692.888,342.915 692.922,342.936 689.000,348.000" stroke-width="3.187" stroke="black" fill="none" stroke-linecap="round"></path><path d="M 689.000,348.000 C 686.580,351.560 686.388,351.415 684.000,355.000" stroke-width="3.503" stroke="black" fill="none" stroke-linecap="round"></path><path d="M 684.000,355.000 C 679.015,358.227 682.080,357.560 680.000,360.000" stroke-width="4.282" stroke="black" fill="none" stroke-linecap="round"></path><path d="M 680.000,360.000 C 684.313,363.796 681.515,362.727 689.000,364.000" stroke-width="4.317" stroke="black" fill="none" stroke-linecap="round"></path><path d="M 689.000,364.000 C 696.742,364.129 695.813,364.296 703.000,361.000" stroke-width="3.414" stroke="black" fill="none" stroke-linecap="round"></path><path d="M 703.000,361.000 C 710.969,354.958 711.742,356.629 719.000,349.000" stroke-width="2.718" stroke="black" fill="none" stroke-linecap="round"></path><path d="M 719.000,349.000 C 726.317,343.225 726.469,343.458 734.000,338.000" stroke-width="2.635" stroke="black" fill="none" stroke-linecap="round"></path><path d="M 734.000,338.000 C 739.000,335.000 738.817,334.725 744.000,332.000" stroke-width="3.090" stroke="black" fill="none" stroke-linecap="round"></path><path d="M 744.000,332.000 C 748.921,328.857 749.000,329.000 754.000,326.000" stroke-width="3.258" stroke="black" fill="none" stroke-linecap="round"></path><path d="M 754.000,326.000 C 756.893,324.243 756.921,324.357 760.000,323.000" stroke-width="3.722" stroke="black" fill="none" stroke-linecap="round"></path><path d="M 760.000,323.000 C 764.397,320.863 764.393,321.243 769.000,320.000" stroke-width="4.171" stroke="black" fill="none" stroke-linecap="round"></path><path d="M 769.000,320.000 C 772.624,320.902 772.397,319.363 776.000,320.000" stroke-width="5.010" stroke="black" fill="none" stroke-linecap="round"></path><path d="M 776.000,320.000 C 845.166,299.176 845.624,301.402 915.000,281.000" stroke-width="1.493" stroke="black" fill="none" stroke-linecap="round"></path><path d="M 915.000,281.000 C 954.708,270.271 954.666,270.676 995.000,263.000" stroke-width="1.125" stroke="black" fill="none" stroke-linecap="round"></path><path d="M 995.000,263.000 C 1021.502,260.015 1021.208,258.271 1048.000,257.000" stroke-width="1.349" stroke="black" fill="none" stroke-linecap="round"></path><path d="M 1048.000,257.000 C 1105.182,251.733 1105.002,250.515 1162.000,244.000" stroke-width="1.125" stroke="black" fill="none" stroke-linecap="round"></path><path d="M 1162.000,244.000 C 1189.757,240.054 1189.682,240.233 1217.000,234.000" stroke-width="1.530" stroke="black" fill="none" stroke-linecap="round"></path><path d="M 1217.000,234.000 C 1229.780,229.069 1230.257,231.054 1243.000,226.000" stroke-width="1.879" stroke="black" fill="none" stroke-linecap="round"></path><path d="M 1243.000,226.000 C 1257.938,222.751 1257.780,222.569 1273.000,221.000" stroke-width="1.921" stroke="black" fill="none" stroke-linecap="round"></path><path d="M 1273.000,221.000 C 1279.556,220.356 1279.438,220.251 1286.000,221.000" stroke-width="2.620" stroke="black" fill="none" stroke-linecap="round"></path></svg>