<svg xmlns="http://www.w3.org/2000/svg" xmlns:xlink="http://www.w3.org/1999/xlink" viewBox="0 0 1844 805" width="1844" height="805"><path d="M 662.000,452.000 C 656.915,450.735 657.000,450.500 652.000,449.000" stroke-width="4.579" stroke="black" fill="none" stroke-linecap="round"></path><path d="M 652.000,449.000 C 648.461,447.586 648.415,447.735 645.000,446.000" stroke-width="4.013" stroke="black" fill="none" stroke-linecap="round"></path><path d="M 645.000,446.000 C 636.355,442.285 636.461,442.086 628.000,438.000" stroke-width="2.896" stroke="black" fill="none" stroke-linecap="round"></path><path d="M 628.000,438.000 C 616.967,432.060 616.855,432.285 606.000,426.000" stroke-width="2.430" stroke="black" fill="none" stroke-linecap="round"></path><path d="M 606.000,426.000 C 598.202,421.101 597.967,421.560 590.000,417.000" stroke-width="2.499" stroke="black" fill="none" stroke-linecap="round"></path><path d="M 590.000,417.000 C 580.177,411.914 580.202,412.101 570.000,408.000" stroke-width="2.469" stroke="black" fill="none" stroke-linecap="round"></path><path d="M 570.000,408.000 C 567.014,407.402 567.177,406.914 564.000,407.000" stroke-width="3.443" stroke="black" fill="none" stroke-linecap="round"></path><path d="M 564.000,407.000 C 553.227,406.887 559.514,406.402 555.000,406.000" stroke-width="4.052" stroke="black" fill="none" stroke-linecap="round"></path><path d="M 555.000,406.000 C 565.369,402.595 559.227,403.887 576.000,401.000" stroke-width="4.535" stroke="black" fill="none" stroke-linecap="round"></path><path d="M 576.000,401.000 C 585.612,401.408 585.369,399.595 595.000,400.000" stroke-width="3.031" stroke="black" fill="none" stroke-linecap="round"></path><path d="M 595.000,400.000 C 616.763,399.481 615.612,396.908 636.000,392.000" stroke-width="1.824" stroke="black" fill="none" stroke-linecap="round"></path><path d="M 636.000,392.000 C 662.418,380.996 661.763,381.981 685.000,365.000" stroke-width="1.381" stroke="black" fill="none" stroke-linecap="round"></path><path d="M 685.000,365.000 C 695.125,351.376 698.418,355.496 708.000,341.000" stroke-width="1.750" stroke="black" fill="none" stroke-linecap="round"></path><path d="M 708.000,341.000 C 731.673,327.887 728.625,324.376 752.000,311.000" stroke-width="1.408" stroke="black" fill="none" stroke-linecap="round"></path><path d="M 752.000,311.000 C 762.795,299.246 764.173,300.887 773.000,287.000" stroke-width="1.752" stroke="black" fill="none" stroke-linecap="round"></path><path d="M 773.000,287.000 C 781.555,274.060 782.795,275.246 792.000,263.000" stroke-width="1.873" stroke="black" fill="none" stroke-linecap="round"></path><path d="M 792.000,263.000 C 799.051,256.299 798.555,256.060 807.000,251.000" stroke-width="2.352" stroke="black" fill="none" stroke-linecap="round"></path><path d="M 807.000,251.000 C 812.823,247.574 812.551,247.299 819.000,245.000" stroke-width="2.855" stroke="black" fill="none" stroke-linecap="round"></path><path d="M 819.000,245.000 C 832.136,237.591 824.823,242.574 831.000,241.000" stroke-width="3.050" stroke="black" fill="none" stroke-linecap="round"></path><path d="M 831.000,241.000 C 820.656,256.608 827.636,251.091 810.000,272.000" stroke-width="3.812" stroke="black" fill="none" stroke-linecap="round"></path><path d="M 810.000,272.000 C 802.856,282.766 802.656,282.608 795.000,293.000" stroke-width="2.551" stroke="black" fill="none" stroke-linecap="round"></path><path d="M 795.000,293.000 C 764.666,332.132 764.856,332.266 734.000,371.000" stroke-width="1.125" stroke="black" fill="none" stroke-linecap="round"></path><path d="M 734.000,371.000 C 720.236,385.578 721.666,386.632 709.000,402.000" stroke-width="1.381" stroke="black" fill="none" stroke-linecap="round"></path><path d="M 709.000,402.000 C 666.029,474.327 661.736,471.078 617.000,542.000" stroke-width="1.125" stroke="black" fill="none" stroke-linecap="round"></path><path d="M 617.000,542.000 C 591.938,569.945 595.029,572.327 567.000,598.000" stroke-width="1.125" stroke="black" fill="none" stroke-linecap="round"></path><path d="M 567.000,598.000 C 527.313,650.554 523.938,646.445 481.000,695.000" stroke-width="1.125" stroke="black" fill="none" stroke-linecap="round"></path><path d="M 481.000,695.000 C 462.233,706.422 465.313,710.054 443.000,717.000" stroke-width="1.125" stroke="black" fill="none" stroke-linecap="round"></path><path d="M 443.000,717.000 C 422.851,730.260 422.233,728.422 401.000,739.000" stroke-width="1.352" stroke="black" fill="none" stroke-linecap="round"></path><path d="M 401.000,739.000 C 384.646,744.226 385.351,745.260 368.000,747.000" stroke-width="1.638" stroke="black" fill="none" stroke-linecap="round"></path><path d="M 368.000,747.000 C 360.500,747.000 360.646,748.226 353.000,747.000" stroke-width="2.432" stroke="black" fill="none" stroke-linecap="round"></path><path d="M 353.000,747.000 C 347.000,747.000 347.000,747.000 341.000,747.000" stroke-width="2.931" stroke="black" fill="none" stroke-linecap="round"></path><path d="M 341.000,747.000 C 335.465,749.016 338.000,747.000 335.000,747.000" stroke-width="4.009" stroke="black" fill="none" stroke-linecap="round"></path><path d="M 335.000,747.000 C 334.554,739.584 333.965,742.516 338.000,734.000" stroke-width="4.031" stroke="black" fill="none" stroke-linecap="round"></path><path d="M 338.000,734.000 C 350.188,716.323 349.054,716.084 364.000,700.000" stroke-width="2.021" stroke="black" fill="none" stroke-linecap="round"></path><path d="M 364.000,700.000 C 381.439,674.998 383.188,677.323 404.000,656.000" stroke-width="1.360" stroke="black" fill="none" stroke-linecap="round"></path><path d="M 404.000,656.000 C 430.181,635.497 428.939,634.998 459.000,620.000" stroke-width="1.168" stroke="black" fill="none" stroke-linecap="round"></path><path d="M 459.000,620.000 C 485.801,612.057 483.181,606.997 510.000,599.000" stroke-width="1.234" stroke="black" fill="none" stroke-linecap="round"></path><path d="M 510.000,599.000 C 553.423,570.974 555.301,574.557 598.000,545.000" stroke-width="1.125" stroke="black" fill="none" stroke-linecap="round"></path><path d="M 598.000,545.000 C 616.878,533.624 616.923,533.974 637.000,525.000" stroke-width="1.278" stroke="black" fill="none" stroke-linecap="round"></path><path d="M 637.000,525.000 C 684.936,508.473 683.378,505.124 731.000,488.000" stroke-width="1.125" stroke="black" fill="none" stroke-linecap="round"></path><path d="M 731.000,488.000 C 751.513,476.524 752.436,478.473 772.000,465.000" stroke-width="1.220" stroke="black" fill="none" stroke-linecap="round"></path><path d="M 772.000,465.000 C 791.256,453.530 791.513,454.024 811.000,443.000" stroke-width="1.432" stroke="black" fill="none" stroke-linecap="round"></path><path d="M 811.000,443.000 C 821.462,437.918 821.256,437.530 832.000,433.000" stroke-width="1.943" stroke="black" fill="none" stroke-linecap="round"></path><path d="M 832.000,433.000 C 843.497,427.402 836.462,430.918 841.000,429.000" stroke-width="2.849" stroke="black" fill="none" stroke-linecap="round"></path><path d="M 841.000,429.000 C 824.193,439.348 830.997,435.402 807.000,449.000" stroke-width="3.754" stroke="black" fill="none" stroke-linecap="round"></path><path d="M 807.000,449.000 C 795.478,454.959 795.693,455.348 784.000,461.000" stroke-width="2.536" stroke="black" fill="none" stroke-linecap="round"></path><path d="M 784.000,461.000 C 767.412,470.964 766.978,469.959 750.000,479.000" stroke-width="1.845" stroke="black" fill="none" stroke-linecap="round"></path><path d="M 750.000,479.000 C 740.931,481.811 741.412,482.964 732.000,485.000" stroke-width="2.348" stroke="black" fill="none" stroke-linecap="round"></path><path d="M 732.000,485.000 C 727.138,487.716 726.931,486.811 722.000,489.000" stroke-width="3.021" stroke="black" fill="none" stroke-linecap="round"></path><path d="M 722.000,489.000 C 714.455,489.357 719.138,489.716 716.000,489.000" stroke-width="4.070" stroke="black" fill="none" stroke-linecap="round"></path><path d="M 716.000,489.000 C 725.536,487.699 720.955,487.857 735.000,486.000" stroke-width="2.875" stroke="black" fill="none" stroke-linecap="round"></path><path d="M 735.000,486.000 C 745.558,485.695 745.036,484.199 755.000,482.000" stroke-width="2.581" stroke="black" fill="none" stroke-linecap="round"></path><path d="M 755.000,482.000 C 779.894,471.233 780.058,472.195 804.000,459.000" stroke-width="1.570" stroke="black" fill="none" stroke-linecap="round"></path><path d="M 804.000,459.000 C 813.113,453.678 813.394,454.233 822.000,448.000" stroke-width="2.128" stroke="black" fill="none" stroke-linecap="round"></path><path d="M 822.000,448.000 C 830.803,441.660 831.113,442.178 840.000,436.000" stroke-width="2.306" stroke="black" fill="none" stroke-linecap="round"></path><path d="M 840.000,436.000 C 844.065,432.303 843.803,433.660 848.000,432.000" stroke-width="3.125" stroke="black" fill="none" stroke-linecap="round"></path><path d="M 848.000,432.000 C 852.079,432.606 850.565,431.803 853.000,435.000" stroke-width="4.293" stroke="black" fill="none" stroke-linecap="round"></path><path d="M 853.000,435.000 C 853.550,440.048 854.579,439.106 853.000,445.000" stroke-width="3.675" stroke="black" fill="none" stroke-linecap="round"></path><path d="M 853.000,445.000 C 851.758,453.560 852.050,453.548 850.000,462.000" stroke-width="3.008" stroke="black" fill="none" stroke-linecap="round"></path><path d="M 850.000,462.000 C 849.150,465.551 849.258,465.560 848.000,469.000" stroke-width="3.604" stroke="black" fill="none" stroke-linecap="round"></path><path d="M 848.000,469.000 C 843.843,473.784 847.150,471.551 846.000,474.000" stroke-width="4.007" stroke="black" fill="none" stroke-linecap="round"></path><path d="M 846.000,474.000 C 862.237,474.446 858.843,475.284 878.000,472.000" stroke-width="3.562" stroke="black" fill="none" stroke-linecap="round"></path><path d="M 878.000,472.000 C 891.165,469.027 891.237,469.946 904.000,465.000" stroke-width="2.464" stroke="black" fill="none" stroke-linecap="round"></path><path d="M 904.000,465.000 C 916.170,459.262 916.665,461.027 929.000,456.000" stroke-width="2.269" stroke="black" fill="none" stroke-linecap="round"></path><path d="M 929.000,456.000 C 945.946,452.380 945.670,451.762 963.000,450.000" stroke-width="1.904" stroke="black" fill="none" stroke-linecap="round"></path><path d="M 963.000,450.000 C 967.836,448.890 967.446,449.380 972.000,450.000" stroke-width="2.841" stroke="black" fill="none" stroke-linecap="round"></path><path d="M 972.000,450.000 C 974.648,453.162 975.336,450.890 978.000,454.000" stroke-width="4.170" stroke="black" fill="none" stroke-linecap="round"></path><path d="M 978.000,454.000 C 983.217,455.087 982.648,455.162 988.000,454.000" stroke-width="3.709" stroke="black" fill="none" stroke-linecap="round"></path><path d="M 988.000,454.000 C 993.893,451.221 994.217,452.587 1000.000,449.000" stroke-width="3.263" stroke="black" fill="none" stroke-linecap="round"></path><path d="M 1000.000,449.000 C 1026.949,439.351 1026.893,439.221 1054.000,430.000" stroke-width="1.447" stroke="black" fill="none" stroke-linecap="round"></path><path d="M 1054.000,430.000 C 1067.089,423.597 1067.449,425.351 1081.000,421.000" stroke-width="1.851" stroke="black" fill="none" stroke-linecap="round"></path><path d="M 1081.000,421.000 C 1105.071,417.259 1104.589,416.597 1129.000,416.000" stroke-width="1.456" stroke="black" fill="none" stroke-linecap="round"></path><path d="M 1129.000,416.000 C 1133.869,416.230 1133.571,415.759 1138.000,418.000" stroke-width="2.513" stroke="black" fill="none" stroke-linecap="round"></path><path d="M 1138.000,418.000 C 1142.740,419.143 1140.869,419.230 1143.000,422.000" stroke-width="3.405" stroke="black" fill="none" stroke-linecap="round"></path><path d="M 1143.000,422.000 C 1144.243,432.362 1143.740,430.143 1140.000,440.000" stroke-width="2.889" stroke="black" fill="none" stroke-linecap="round"></path><path d="M 1140.000,440.000 C 1132.226,449.828 1134.243,450.362 1123.000,458.000" stroke-width="2.376" stroke="black" fill="none" stroke-linecap="round"></path><path d="M 1123.000,458.000 C 1114.124,464.684 1114.726,465.328 1105.000,471.000" stroke-width="2.474" stroke="black" fill="none" stroke-linecap="round"></path><path d="M 1105.000,471.000 C 1094.746,476.751 1101.124,473.684 1097.000,476.000" stroke-width="3.541" stroke="black" fill="none" stroke-linecap="round"></path><path d="M 1097.000,476.000 C 1110.447,471.422 1103.746,473.751 1123.000,465.000" stroke-width="4.488" stroke="black" fill="none" stroke-linecap="round"></path><path d="M 1123.000,465.000 C 1150.831,442.944 1153.447,449.422 1183.000,432.000" stroke-width="1.444" stroke="black" fill="none" stroke-linecap="round"></path><path d="M 1183.000,432.000 C 1249.137,409.815 1247.831,409.944 1317.000,399.000" stroke-width="1.125" stroke="black" fill="none" stroke-linecap="round"></path><path d="M 1317.000,399.000 C 1375.465,394.777 1374.637,389.815 1434.000,392.000" stroke-width="1.125" stroke="black" fill="none" stroke-linecap="round"></path><path d="M 1434.000,392.000 C 1512.473,387.603 1512.465,388.277 1591.000,386.000" stroke-width="1.125" stroke="black" fill="none" stroke-linecap="round"></path><path d="M 1591.000,386.000 C 1659.500,386.000 1659.473,384.603 1728.000,386.000" stroke-width="1.125" stroke="black" fill="none" stroke-linecap="round"></path><path d="M 1728.000,386.000 C 1753.515,386.573 1753.500,386.000 1779.000,386.000" stroke-width="1.125" stroke="black" fill="none" stroke-linecap="round"></path><path d="M 1779.000,386.000 C 1798.043,385.504 1798.015,385.573 1817.000,384.000" stroke-width="1.394" stroke="black" fill="none" stroke-linecap="round"></path><path d="M 1817.000,384.000 C 1836.987,378.180 1829.543,383.004 1842.000,381.000" stroke-width="1.868" stroke="black" fill="none" stroke-linecap="round"></path><path d="M 1842.000,381.000 C 1839.656,390.488 1844.987,382.680 1833.000,393.000" stroke-width="3.344" stroke="black" fill="none" stroke-linecap="round"></path><path d="M 1833.000,393.000 C 1811.179,398.284 1813.156,400.488 1789.000,401.000" stroke-width="1.847" stroke="black" fill="none" stroke-linecap="round"></path><path d="M 1789.000,401.000 C 1737.503,406.036 1737.679,407.284 1686.000,411.000" stroke-width="1.125" stroke="black" fill="none" stroke-linecap="round"></path><path d="M 1686.000,411.000 C 1654.526,414.294 1654.503,414.036 1623.000,417.000" stroke-width="1.125" stroke="black" fill="none" stroke-linecap="round"></path><path d="M 1623.000,417.000 C 1538.064,424.924 1538.026,424.294 1453.000,431.000" stroke-width="1.125" stroke="black" fill="none" stroke-linecap="round"></path><path d="M 1453.000,431.000 C 1391.053,436.385 1391.064,435.424 1329.000,438.000" stroke-width="1.125" stroke="black" fill="none" stroke-linecap="round"></path><path d="M 1329.000,438.000 C 1256.466,436.453 1256.553,439.885 1184.000,438.000" stroke-width="1.125" stroke="black" fill="none" stroke-linecap="round"></path><path d="M 1184.000,438.000 C 1116.028,441.881 1115.966,439.453 1048.000,444.000" stroke-width="1.125" stroke="black" fill="none" stroke-linecap="round"></path><path d="M 1048.000,444.000 C 971.493,445.221 971.528,446.381 895.000,447.000" stroke-width="1.125" stroke="black" fill="none" stroke-linecap="round"></path><path d="M 895.000,447.000 C 821.006,449.310 820.993,448.721 747.000,451.000" stroke-width="1.125" stroke="black" fill="none" stroke-linecap="round"></path><path d="M 747.000,451.000 C 711.501,451.709 711.506,451.810 676.000,452.000" stroke-width="1.125" stroke="black" fill="none" stroke-linecap="round"></path><path d="M 676.000,452.000 C 650.500,452.000 650.501,452.209 625.000,452.000" stroke-width="1.137" stroke="black" fill="none" stroke-linecap="round"></path><path d="M 625.000,452.000 C 615.000,452.000 615.000,452.000 605.000,452.000" stroke-width="1.899" stroke="black" fill="none" stroke-linecap="round"></path><path d="M 605.000,452.000 C 599.500,452.000 599.500,452.000 594.000,452.000" stroke-width="2.789" stroke="black" fill="none" stroke-linecap="round"></path><path d="M 594.000,452.000 C 587.483,450.793 591.000,452.000 588.000,452.000" stroke-width="3.917" stroke="black" fill="none" stroke-linecap="round"></path></svg>