<svg xmlns="http://www.w3.org/2000/svg" xmlns:xlink="http://www.w3.org/1999/xlink" viewBox="0 0 453 236" width="453" height="236"><path d="M 87.500,88.000 C 86.093,93.333 85.500,93.000 83.500,98.000" stroke-width="4.280" stroke="black" fill="none" stroke-linecap="round"></path><path d="M 83.500,98.000 C 80.270,101.845 81.093,102.333 77.500,106.000" stroke-width="3.793" stroke="black" fill="none" stroke-linecap="round"></path><path d="M 77.500,106.000 C 74.569,111.043 74.270,110.845 71.500,116.000" stroke-width="3.398" stroke="black" fill="none" stroke-linecap="round"></path><path d="M 71.500,116.000 C 68.171,121.616 68.069,121.543 64.500,127.000" stroke-width="3.183" stroke="black" fill="none" stroke-linecap="round"></path><path d="M 64.500,127.000 C 60.269,132.347 60.671,132.616 56.500,138.000" stroke-width="3.082" stroke="black" fill="none" stroke-linecap="round"></path><path d="M 56.500,138.000 C 53.308,142.895 53.269,142.847 50.500,148.000" stroke-width="3.200" stroke="black" fill="none" stroke-linecap="round"></path><path d="M 50.500,148.000 C 48.000,153.000 47.808,152.895 45.500,158.000" stroke-width="3.333" stroke="black" fill="none" stroke-linecap="round"></path><path d="M 45.500,158.000 C 44.105,161.058 44.000,161.000 42.500,164.000" stroke-width="3.751" stroke="black" fill="none" stroke-linecap="round"></path><path d="M 83.500,91.000 C 82.500,93.478 83.000,93.500 82.500,96.000" stroke-width="5.203" stroke="black" fill="none" stroke-linecap="round"></path><path d="M 82.500,96.000 C 82.615,100.573 82.500,100.478 83.500,105.000" stroke-width="3.960" stroke="black" fill="none" stroke-linecap="round"></path><path d="M 83.500,105.000 C 85.384,110.421 84.615,110.573 86.500,116.000" stroke-width="3.462" stroke="black" fill="none" stroke-linecap="round"></path><path d="M 86.500,116.000 C 87.116,123.079 87.884,122.921 88.500,130.000" stroke-width="3.178" stroke="black" fill="none" stroke-linecap="round"></path><path d="M 88.500,130.000 C 89.841,135.548 89.616,135.579 91.500,141.000" stroke-width="3.252" stroke="black" fill="none" stroke-linecap="round"></path><path d="M 91.500,141.000 C 93.157,147.142 93.341,147.048 95.500,153.000" stroke-width="3.288" stroke="black" fill="none" stroke-linecap="round"></path><path d="M 95.500,153.000 C 97.169,157.212 97.157,157.142 99.500,161.000" stroke-width="3.557" stroke="black" fill="none" stroke-linecap="round"></path><path d="M 99.500,161.000 C 101.619,163.413 101.169,163.712 103.500,166.000" stroke-width="3.818" stroke="black" fill="none" stroke-linecap="round"></path><path d="M 105.500,137.000 C 99.998,138.000 100.000,137.500 94.500,138.000" stroke-width="4.768" stroke="black" fill="none" stroke-linecap="round"></path><path d="M 94.500,138.000 C 89.429,137.870 89.498,138.000 84.500,137.000" stroke-width="4.482" stroke="black" fill="none" stroke-linecap="round"></path><path d="M 84.500,137.000 C 81.017,135.938 80.929,136.370 77.500,135.000" stroke-width="4.032" stroke="black" fill="none" stroke-linecap="round"></path><path d="M 77.500,135.000 C 73.500,134.000 73.517,133.938 69.500,133.000" stroke-width="3.803" stroke="black" fill="none" stroke-linecap="round"></path><path d="M 69.500,133.000 C 65.561,131.508 65.500,132.000 61.500,131.000" stroke-width="3.739" stroke="black" fill="none" stroke-linecap="round"></path><path d="M 61.500,131.000 C 57.489,130.778 57.561,130.508 53.500,131.000" stroke-width="3.747" stroke="black" fill="none" stroke-linecap="round"></path><path d="M 53.500,131.000 C 47.776,130.168 48.489,131.278 43.500,132.000" stroke-width="4.125" stroke="black" fill="none" stroke-linecap="round"></path><path d="M 113.500,126.000 C 114.222,130.989 114.000,131.000 114.500,136.000" stroke-width="4.834" stroke="black" fill="none" stroke-linecap="round"></path><path d="M 114.500,136.000 C 114.500,140.000 114.722,139.989 114.500,144.000" stroke-width="4.081" stroke="black" fill="none" stroke-linecap="round"></path><path d="M 114.500,144.000 C 114.685,149.005 114.500,149.000 114.500,154.000" stroke-width="3.843" stroke="black" fill="none" stroke-linecap="round"></path><path d="M 114.500,154.000 C 112.010,165.785 114.185,162.505 113.500,171.000" stroke-width="3.184" stroke="black" fill="none" stroke-linecap="round"></path><path d="M 113.500,171.000 C 116.873,170.278 114.010,172.785 118.500,168.000" stroke-width="4.283" stroke="black" fill="none" stroke-linecap="round"></path><path d="M 118.500,168.000 C 121.000,162.500 121.873,163.278 123.500,157.000" stroke-width="3.534" stroke="black" fill="none" stroke-linecap="round"></path><path d="M 123.500,157.000 C 125.903,151.454 126.000,151.500 128.500,146.000" stroke-width="3.601" stroke="black" fill="none" stroke-linecap="round"></path><path d="M 128.500,146.000 C 130.262,140.415 130.903,140.954 133.500,136.000" stroke-width="3.393" stroke="black" fill="none" stroke-linecap="round"></path><path d="M 133.500,136.000 C 136.095,132.702 135.762,132.915 139.500,131.000" stroke-width="3.703" stroke="black" fill="none" stroke-linecap="round"></path><path d="M 139.500,131.000 C 145.192,127.111 143.095,129.202 147.500,129.000" stroke-width="4.227" stroke="black" fill="none" stroke-linecap="round"></path><path d="M 147.500,129.000 C 149.737,134.401 150.692,131.611 150.500,140.000" stroke-width="4.171" stroke="black" fill="none" stroke-linecap="round"></path><path d="M 150.500,140.000 C 151.102,145.584 151.237,145.401 150.500,151.000" stroke-width="3.547" stroke="black" fill="none" stroke-linecap="round"></path><path d="M 150.500,151.000 C 149.500,154.500 150.102,154.584 148.500,158.000" stroke-width="3.764" stroke="black" fill="none" stroke-linecap="round"></path><path d="M 148.500,158.000 C 145.495,164.246 147.500,161.500 146.500,165.000" stroke-width="4.318" stroke="black" fill="none" stroke-linecap="round"></path><path d="M 146.500,165.000 C 149.982,163.518 147.495,165.746 152.500,161.000" stroke-width="4.539" stroke="black" fill="none" stroke-linecap="round"></path><path d="M 152.500,161.000 C 155.939,156.451 156.482,157.018 159.500,152.000" stroke-width="3.650" stroke="black" fill="none" stroke-linecap="round"></path><path d="M 159.500,152.000 C 162.027,149.022 161.939,148.951 164.500,146.000" stroke-width="3.740" stroke="black" fill="none" stroke-linecap="round"></path><path d="M 164.500,146.000 C 166.376,143.389 166.527,143.522 168.500,141.000" stroke-width="3.976" stroke="black" fill="none" stroke-linecap="round"></path><path d="M 168.500,141.000 C 172.343,135.745 170.376,138.889 172.500,137.000" stroke-width="4.533" stroke="black" fill="none" stroke-linecap="round"></path><path d="M 172.500,137.000 C 171.274,143.085 172.843,139.745 169.500,149.000" stroke-width="4.215" stroke="black" fill="none" stroke-linecap="round"></path><path d="M 169.500,149.000 C 168.000,153.000 168.274,153.085 166.500,157.000" stroke-width="3.816" stroke="black" fill="none" stroke-linecap="round"></path><path d="M 166.500,157.000 C 164.668,160.911 165.000,161.000 163.500,165.000" stroke-width="3.765" stroke="black" fill="none" stroke-linecap="round"></path><path d="M 163.500,165.000 C 163.044,168.008 162.668,167.911 162.500,171.000" stroke-width="4.022" stroke="black" fill="none" stroke-linecap="round"></path><path d="M 162.500,171.000 C 160.662,176.000 162.044,173.508 161.500,176.000" stroke-width="4.231" stroke="black" fill="none" stroke-linecap="round"></path><path d="M 161.500,176.000 C 164.308,173.740 162.662,176.000 166.500,171.000" stroke-width="5.073" stroke="black" fill="none" stroke-linecap="round"></path><path d="M 166.500,171.000 C 168.105,168.558 168.308,168.740 169.500,166.000" stroke-width="4.311" stroke="black" fill="none" stroke-linecap="round"></path><path d="M 169.500,166.000 C 170.747,162.848 171.105,163.058 172.500,160.000" stroke-width="4.113" stroke="black" fill="none" stroke-linecap="round"></path><path d="M 172.500,160.000 C 174.879,156.407 174.747,156.348 177.500,153.000" stroke-width="3.893" stroke="black" fill="none" stroke-linecap="round"></path><path d="M 177.500,153.000 C 179.747,149.753 179.879,149.907 182.500,147.000" stroke-width="3.866" stroke="black" fill="none" stroke-linecap="round"></path><path d="M 182.500,147.000 C 186.107,142.703 186.247,143.253 190.500,140.000" stroke-width="4.169" stroke="black" fill="none" stroke-linecap="round"></path><path d="M 190.500,140.000 C 194.333,137.500 192.607,138.703 195.500,139.000" stroke-width="4.650" stroke="black" fill="none" stroke-linecap="round"></path><path d="M 195.500,139.000 C 196.940,143.956 197.833,142.000 197.500,149.000" stroke-width="4.816" stroke="black" fill="none" stroke-linecap="round"></path><path d="M 197.500,149.000 C 198.024,153.073 197.940,152.956 197.500,157.000" stroke-width="4.017" stroke="black" fill="none" stroke-linecap="round"></path><path d="M 197.500,157.000 C 196.289,160.451 197.024,160.573 195.500,164.000" stroke-width="3.910" stroke="black" fill="none" stroke-linecap="round"></path><path d="M 195.500,164.000 C 194.419,169.487 194.289,169.451 193.500,175.000" stroke-width="4.131" stroke="black" fill="none" stroke-linecap="round"></path><path d="M 193.500,175.000 C 192.770,178.484 192.919,178.487 192.500,182.000" stroke-width="4.470" stroke="black" fill="none" stroke-linecap="round"></path><path d="M 244.500,137.000 C 241.390,134.458 241.500,136.000 238.500,135.000" stroke-width="5.024" stroke="black" fill="none" stroke-linecap="round"></path><path d="M 238.500,135.000 C 233.329,137.205 233.390,135.958 228.500,140.000" stroke-width="4.443" stroke="black" fill="none" stroke-linecap="round"></path><path d="M 228.500,140.000 C 223.655,142.579 223.829,142.705 219.500,146.000" stroke-width="3.688" stroke="black" fill="none" stroke-linecap="round"></path><path d="M 219.500,146.000 C 215.775,150.336 215.155,149.579 211.500,154.000" stroke-width="3.404" stroke="black" fill="none" stroke-linecap="round"></path><path d="M 211.500,154.000 C 207.831,155.410 208.775,156.336 205.500,158.000" stroke-width="3.722" stroke="black" fill="none" stroke-linecap="round"></path><path d="M 205.500,158.000 C 203.636,160.875 203.331,160.410 202.500,164.000" stroke-width="3.888" stroke="black" fill="none" stroke-linecap="round"></path><path d="M 202.500,164.000 C 201.150,166.553 201.636,166.375 201.500,169.000" stroke-width="4.145" stroke="black" fill="none" stroke-linecap="round"></path><path d="M 201.500,169.000 C 201.072,175.983 202.150,173.553 204.500,178.000" stroke-width="4.536" stroke="black" fill="none" stroke-linecap="round"></path><path d="M 204.500,178.000 C 211.693,179.648 209.572,180.983 218.500,179.000" stroke-width="3.477" stroke="black" fill="none" stroke-linecap="round"></path><path d="M 218.500,179.000 C 222.426,178.128 222.193,178.648 225.500,176.000" stroke-width="3.753" stroke="black" fill="none" stroke-linecap="round"></path><path d="M 225.500,176.000 C 228.769,173.228 228.926,173.628 231.500,170.000" stroke-width="3.698" stroke="black" fill="none" stroke-linecap="round"></path><path d="M 231.500,170.000 C 234.116,166.576 234.269,166.728 236.500,163.000" stroke-width="3.773" stroke="black" fill="none" stroke-linecap="round"></path><path d="M 236.500,163.000 C 238.200,160.599 238.116,160.576 239.500,158.000" stroke-width="4.055" stroke="black" fill="none" stroke-linecap="round"></path><path d="M 239.500,158.000 C 240.730,155.568 240.700,155.599 241.500,153.000" stroke-width="4.161" stroke="black" fill="none" stroke-linecap="round"></path><path d="M 241.500,153.000 C 242.057,146.966 242.230,150.568 242.500,148.000" stroke-width="4.622" stroke="black" fill="none" stroke-linecap="round"></path><path d="M 242.500,148.000 C 243.114,154.108 243.557,150.466 244.500,160.000" stroke-width="4.956" stroke="black" fill="none" stroke-linecap="round"></path><path d="M 244.500,160.000 C 245.464,162.515 245.114,162.608 246.500,165.000" stroke-width="4.456" stroke="black" fill="none" stroke-linecap="round"></path><path d="M 246.500,165.000 C 247.157,169.364 247.964,168.515 249.500,172.000" stroke-width="4.553" stroke="black" fill="none" stroke-linecap="round"></path><path d="M 249.500,172.000 C 251.971,174.000 251.157,173.864 254.500,174.000" stroke-width="4.927" stroke="black" fill="none" stroke-linecap="round"></path><path d="M 244.500,180.000 C 248.247,180.929 248.000,180.000 251.500,180.000" stroke-width="4.561" stroke="black" fill="none" stroke-linecap="round"></path><path d="M 251.500,180.000 C 255.084,178.135 255.247,178.929 258.500,176.000" stroke-width="4.012" stroke="black" fill="none" stroke-linecap="round"></path><path d="M 258.500,176.000 C 263.266,173.343 263.084,173.135 267.500,170.000" stroke-width="3.529" stroke="black" fill="none" stroke-linecap="round"></path><path d="M 267.500,170.000 C 272.994,165.957 272.766,165.843 277.500,161.000" stroke-width="3.247" stroke="black" fill="none" stroke-linecap="round"></path><path d="M 277.500,161.000 C 282.651,154.612 282.994,154.957 287.500,148.000" stroke-width="2.834" stroke="black" fill="none" stroke-linecap="round"></path><path d="M 287.500,148.000 C 293.551,139.536 293.651,139.612 299.500,131.000" stroke-width="2.613" stroke="black" fill="none" stroke-linecap="round"></path><path d="M 299.500,131.000 C 305.061,123.041 305.051,123.036 310.500,115.000" stroke-width="2.562" stroke="black" fill="none" stroke-linecap="round"></path><path d="M 310.500,115.000 C 316.500,106.000 316.561,106.041 322.500,97.000" stroke-width="2.440" stroke="black" fill="none" stroke-linecap="round"></path><path d="M 322.500,97.000 C 328.197,87.786 328.500,88.000 334.500,79.000" stroke-width="3.062" stroke="black" fill="none" stroke-linecap="round"></path><path d="M 334.500,79.000 C 345.374,65.251 344.697,64.786 355.500,51.000" stroke-width="2.022" stroke="black" fill="none" stroke-linecap="round"></path><path d="M 355.500,51.000 C 358.410,45.943 358.874,46.251 361.500,41.000" stroke-width="2.829" stroke="black" fill="none" stroke-linecap="round"></path><path d="M 361.500,41.000 C 366.808,35.187 363.410,37.943 365.500,35.000" stroke-width="3.530" stroke="black" fill="none" stroke-linecap="round"></path><path d="M 365.500,35.000 C 358.985,36.306 363.308,34.687 354.500,40.000" stroke-width="4.279" stroke="black" fill="none" stroke-linecap="round"></path><path d="M 354.500,40.000 C 351.500,44.500 350.485,43.306 348.500,49.000" stroke-width="3.768" stroke="black" fill="none" stroke-linecap="round"></path><path d="M 348.500,49.000 C 344.277,54.862 344.500,55.000 340.500,61.000" stroke-width="3.162" stroke="black" fill="none" stroke-linecap="round"></path><path d="M 340.500,61.000 C 336.523,68.013 336.277,67.862 332.500,75.000" stroke-width="2.964" stroke="black" fill="none" stroke-linecap="round"></path><path d="M 332.500,75.000 C 327.292,84.682 327.023,84.513 321.500,94.000" stroke-width="2.707" stroke="black" fill="none" stroke-linecap="round"></path><path d="M 321.500,94.000 C 315.500,103.000 315.792,103.182 309.500,112.000" stroke-width="2.478" stroke="black" fill="none" stroke-linecap="round"></path><path d="M 309.500,112.000 C 303.285,120.866 303.500,121.000 297.500,130.000" stroke-width="2.476" stroke="black" fill="none" stroke-linecap="round"></path><path d="M 297.500,130.000 C 293.855,135.919 293.785,135.866 290.500,142.000" stroke-width="2.828" stroke="black" fill="none" stroke-linecap="round"></path><path d="M 290.500,142.000 C 285.452,150.305 285.855,150.419 281.500,159.000" stroke-width="3.275" stroke="black" fill="none" stroke-linecap="round"></path><path d="M 281.500,159.000 C 280.956,161.492 280.452,161.305 280.500,164.000" stroke-width="3.947" stroke="black" fill="none" stroke-linecap="round"></path><path d="M 280.500,164.000 C 278.479,167.702 279.956,166.992 279.500,170.000" stroke-width="4.476" stroke="black" fill="none" stroke-linecap="round"></path><path d="M 279.500,170.000 C 281.833,171.933 280.479,172.202 284.500,173.000" stroke-width="5.118" stroke="black" fill="none" stroke-linecap="round"></path><path d="M 284.500,173.000 C 287.000,173.500 286.833,173.933 289.500,174.000" stroke-width="5.427" stroke="black" fill="none" stroke-linecap="round"></path><path d="M 289.500,174.000 C 291.982,175.000 292.000,174.500 294.500,175.000" stroke-width="5.486" stroke="black" fill="none" stroke-linecap="round"></path><path d="M 294.500,175.000 C 298.750,175.250 298.482,175.000 302.500,174.000" stroke-width="5.020" stroke="black" fill="none" stroke-linecap="round"></path><path d="M 302.500,174.000 C 306.152,172.232 306.250,172.750 309.500,170.000" stroke-width="4.679" stroke="black" fill="none" stroke-linecap="round"></path><path d="M 309.500,170.000 C 313.692,167.222 313.652,167.232 317.500,164.000" stroke-width="4.397" stroke="black" fill="none" stroke-linecap="round"></path><path d="M 317.500,164.000 C 320.000,161.500 320.192,161.722 322.500,159.000" stroke-width="4.038" stroke="black" fill="none" stroke-linecap="round"></path><path d="M 322.500,159.000 C 324.500,157.000 324.500,157.000 326.500,155.000" stroke-width="4.164" stroke="black" fill="none" stroke-linecap="round"></path><path d="M 326.500,155.000 C 328.624,153.111 328.500,153.000 330.500,151.000" stroke-width="4.203" stroke="black" fill="none" stroke-linecap="round"></path><path d="M 330.500,151.000 C 332.250,148.250 332.624,148.611 334.500,146.000" stroke-width="4.165" stroke="black" fill="none" stroke-linecap="round"></path><path d="M 334.500,146.000 C 337.041,144.049 336.750,143.750 339.500,142.000" stroke-width="4.154" stroke="black" fill="none" stroke-linecap="round"></path><path d="M 339.500,142.000 C 342.645,138.372 343.041,139.049 346.500,136.000" stroke-width="4.340" stroke="black" fill="none" stroke-linecap="round"></path><path d="M 346.500,136.000 C 351.534,132.455 349.145,134.372 352.500,134.000" stroke-width="4.584" stroke="black" fill="none" stroke-linecap="round"></path><path d="M 352.500,134.000 C 352.766,139.254 354.034,136.455 351.500,144.000" stroke-width="4.875" stroke="black" fill="none" stroke-linecap="round"></path><path d="M 351.500,144.000 C 350.000,146.500 350.766,146.754 348.500,149.000" stroke-width="4.323" stroke="black" fill="none" stroke-linecap="round"></path><path d="M 348.500,149.000 C 346.642,151.335 347.000,151.500 345.500,154.000" stroke-width="4.228" stroke="black" fill="none" stroke-linecap="round"></path><path d="M 345.500,154.000 C 343.801,158.447 343.642,158.335 342.500,163.000" stroke-width="4.326" stroke="black" fill="none" stroke-linecap="round"></path><path d="M 342.500,163.000 C 340.297,166.396 341.801,165.447 341.500,168.000" stroke-width="4.694" stroke="black" fill="none" stroke-linecap="round"></path><path d="M 341.500,168.000 C 345.000,171.000 343.297,170.396 348.500,171.000" stroke-width="5.092" stroke="black" fill="none" stroke-linecap="round"></path><path d="M 348.500,171.000 C 352.150,169.787 352.000,171.000 355.500,168.000" stroke-width="4.182" stroke="black" fill="none" stroke-linecap="round"></path><path d="M 355.500,168.000 C 359.500,165.500 359.650,165.787 363.500,163.000" stroke-width="3.770" stroke="black" fill="none" stroke-linecap="round"></path><path d="M 363.500,163.000 C 367.738,160.821 367.500,160.500 371.500,158.000" stroke-width="3.605" stroke="black" fill="none" stroke-linecap="round"></path><path d="M 371.500,158.000 C 375.399,154.377 375.738,154.821 379.500,151.000" stroke-width="3.503" stroke="black" fill="none" stroke-linecap="round"></path><path d="M 379.500,151.000 C 384.101,147.623 383.899,147.377 388.500,144.000" stroke-width="3.407" stroke="black" fill="none" stroke-linecap="round"></path><path d="M 388.500,144.000 C 392.235,140.128 392.601,140.623 396.500,137.000" stroke-width="3.388" stroke="black" fill="none" stroke-linecap="round"></path><path d="M 396.500,137.000 C 400.198,135.286 399.735,134.628 403.500,133.000" stroke-width="3.676" stroke="black" fill="none" stroke-linecap="round"></path><path d="M 403.500,133.000 C 406.245,130.072 406.698,130.786 409.500,128.000" stroke-width="3.799" stroke="black" fill="none" stroke-linecap="round"></path><path d="M 409.500,128.000 C 414.954,124.412 411.745,126.572 414.500,126.000" stroke-width="4.118" stroke="black" fill="none" stroke-linecap="round"></path><path d="M 414.500,126.000 C 410.681,134.463 412.954,131.412 405.500,142.000" stroke-width="4.605" stroke="black" fill="none" stroke-linecap="round"></path><path d="M 405.500,142.000 C 399.150,150.125 399.681,150.463 392.500,158.000" stroke-width="2.858" stroke="black" fill="none" stroke-linecap="round"></path><path d="M 392.500,158.000 C 379.987,172.489 380.150,172.625 367.500,187.000" stroke-width="2.706" stroke="black" fill="none" stroke-linecap="round"></path><path d="M 367.500,187.000 C 362.007,194.493 361.487,193.989 355.500,201.000" stroke-width="2.701" stroke="black" fill="none" stroke-linecap="round"></path><path d="M 355.500,201.000 C 345.501,211.199 345.507,210.993 334.500,220.000" stroke-width="2.921" stroke="black" fill="none" stroke-linecap="round"></path><path d="M 334.500,220.000 C 330.101,222.699 330.501,223.199 325.500,225.000" stroke-width="3.306" stroke="black" fill="none" stroke-linecap="round"></path><path d="M 325.500,225.000 C 319.167,228.544 319.101,228.199 312.500,231.000" stroke-width="3.715" stroke="black" fill="none" stroke-linecap="round"></path><path d="M 312.500,231.000 C 309.516,231.623 309.667,232.044 306.500,232.000" stroke-width="4.004" stroke="black" fill="none" stroke-linecap="round"></path><path d="M 306.500,232.000 C 301.489,232.413 301.516,232.623 296.500,233.000" stroke-width="4.235" stroke="black" fill="none" stroke-linecap="round"></path><path d="M 296.500,233.000 C 290.048,234.548 292.989,233.413 289.500,234.000" stroke-width="4.537" stroke="black" fill="none" stroke-linecap="round"></path><path d="M 289.500,234.000 C 292.053,232.583 289.048,233.548 294.500,231.000" stroke-width="4.957" stroke="black" fill="none" stroke-linecap="round"></path><path d="M 294.500,231.000 C 300.435,226.899 300.553,227.083 306.500,223.000" stroke-width="3.442" stroke="black" fill="none" stroke-linecap="round"></path><path d="M 306.500,223.000 C 314.474,217.957 314.435,217.899 322.500,213.000" stroke-width="2.791" stroke="black" fill="none" stroke-linecap="round"></path><path d="M 322.500,213.000 C 331.542,207.568 331.474,207.457 340.500,202.000" stroke-width="2.525" stroke="black" fill="none" stroke-linecap="round"></path><path d="M 340.500,202.000 C 349.846,195.740 350.042,196.068 359.500,190.000" stroke-width="2.561" stroke="black" fill="none" stroke-linecap="round"></path><path d="M 359.500,190.000 C 368.543,185.076 368.346,184.740 377.500,180.000" stroke-width="2.549" stroke="black" fill="none" stroke-linecap="round"></path><path d="M 377.500,180.000 C 383.304,176.098 383.543,176.576 389.500,173.000" stroke-width="2.856" stroke="black" fill="none" stroke-linecap="round"></path><path d="M 389.500,173.000 C 394.634,171.271 394.304,170.598 399.500,169.000" stroke-width="3.243" stroke="black" fill="none" stroke-linecap="round"></path><path d="M 399.500,169.000 C 404.724,165.776 402.134,167.771 404.500,166.000" stroke-width="3.812" stroke="black" fill="none" stroke-linecap="round"></path><path d="M 404.500,166.000 C 401.302,167.758 404.224,166.276 398.500,170.000" stroke-width="4.674" stroke="black" fill="none" stroke-linecap="round"></path><path d="M 398.500,170.000 C 396.376,171.889 396.302,171.758 394.500,174.000" stroke-width="4.245" stroke="black" fill="none" stroke-linecap="round"></path><path d="M 394.500,174.000 C 389.984,179.860 392.376,176.389 390.500,179.000" stroke-width="4.545" stroke="black" fill="none" stroke-linecap="round"></path><path d="M 390.500,179.000 C 393.701,173.749 391.484,177.360 397.500,169.000" stroke-width="4.921" stroke="black" fill="none" stroke-linecap="round"></path><path d="M 397.500,169.000 C 400.000,166.500 399.701,166.249 402.500,164.000" stroke-width="4.216" stroke="black" fill="none" stroke-linecap="round"></path><path d="M 402.500,164.000 C 406.359,159.845 406.500,160.000 410.500,156.000" stroke-width="3.526" stroke="black" fill="none" stroke-linecap="round"></path><path d="M 410.500,156.000 C 413.519,153.522 413.359,153.345 416.500,151.000" stroke-width="3.874" stroke="black" fill="none" stroke-linecap="round"></path><path d="M 416.500,151.000 C 419.902,147.878 420.019,148.022 423.500,145.000" stroke-width="3.655" stroke="black" fill="none" stroke-linecap="round"></path><path d="M 423.500,145.000 C 427.668,139.639 427.402,141.878 431.500,139.000" stroke-width="4.113" stroke="black" fill="none" stroke-linecap="round"></path><path d="M 431.500,139.000 C 434.529,140.574 433.668,138.639 435.500,143.000" stroke-width="4.887" stroke="black" fill="none" stroke-linecap="round"></path><path d="M 435.500,143.000 C 435.730,146.016 436.529,145.574 435.500,149.000" stroke-width="4.352" stroke="black" fill="none" stroke-linecap="round"></path><path d="M 435.500,149.000 C 435.192,152.538 435.230,152.516 434.500,156.000" stroke-width="4.026" stroke="black" fill="none" stroke-linecap="round"></path><path d="M 434.500,156.000 C 434.275,160.314 433.692,160.038 432.500,164.000" stroke-width="4.364" stroke="black" fill="none" stroke-linecap="round"></path><path d="M 432.500,164.000 C 427.307,173.710 427.775,173.814 421.500,183.000" stroke-width="2.826" stroke="black" fill="none" stroke-linecap="round"></path><path d="M 421.500,183.000 C 419.130,185.284 419.807,185.710 417.500,188.000" stroke-width="3.604" stroke="black" fill="none" stroke-linecap="round"></path><path d="M 447.500,91.000 C 443.805,87.318 443.500,88.000 439.500,85.000" stroke-width="4.896" stroke="black" fill="none" stroke-linecap="round"></path><path d="M 439.500,85.000 C 437.036,84.220 437.305,83.818 434.500,84.000" stroke-width="4.483" stroke="black" fill="none" stroke-linecap="round"></path><path d="M 434.500,84.000 C 425.507,83.265 425.536,83.220 416.500,83.000" stroke-width="3.886" stroke="black" fill="none" stroke-linecap="round"></path><path d="M 416.500,83.000 C 408.355,81.878 408.507,82.765 400.500,83.000" stroke-width="3.202" stroke="black" fill="none" stroke-linecap="round"></path><path d="M 400.500,83.000 C 390.473,84.222 390.855,84.378 381.500,88.000" stroke-width="2.696" stroke="black" fill="none" stroke-linecap="round"></path><path d="M 381.500,88.000 C 370.493,91.660 371.473,92.222 362.500,99.000" stroke-width="3.164" stroke="black" fill="none" stroke-linecap="round"></path><path d="M 362.500,99.000 C 345.040,114.760 345.993,114.160 332.500,133.000" stroke-width="1.814" stroke="black" fill="none" stroke-linecap="round"></path><path d="M 332.500,133.000 C 328.386,140.158 328.540,138.760 329.500,147.000" stroke-width="2.947" stroke="black" fill="none" stroke-linecap="round"></path><path d="M 329.500,147.000 C 331.456,163.786 331.886,161.658 339.500,176.000" stroke-width="2.151" stroke="black" fill="none" stroke-linecap="round"></path><path d="M 339.500,176.000 C 346.960,184.331 344.956,184.286 356.500,188.000" stroke-width="2.403" stroke="black" fill="none" stroke-linecap="round"></path><path d="M 356.500,188.000 C 373.839,193.431 372.960,194.331 391.500,196.000" stroke-width="2.653" stroke="black" fill="none" stroke-linecap="round"></path><path d="M 391.500,196.000 C 401.648,197.126 401.339,197.431 411.500,196.000" stroke-width="2.661" stroke="black" fill="none" stroke-linecap="round"></path><path d="M 411.500,196.000 C 419.388,194.943 419.148,195.126 426.500,192.000" stroke-width="2.794" stroke="black" fill="none" stroke-linecap="round"></path><path d="M 426.500,192.000 C 433.916,188.580 433.888,188.943 440.500,184.000" stroke-width="2.858" stroke="black" fill="none" stroke-linecap="round"></path><path d="M 440.500,184.000 C 445.252,180.248 445.416,180.580 449.500,176.000" stroke-width="3.149" stroke="black" fill="none" stroke-linecap="round"></path><path d="M 449.500,176.000 C 453.265,172.911 452.752,172.748 455.500,169.000" stroke-width="3.432" stroke="black" fill="none" stroke-linecap="round"></path></svg>