<svg xmlns="http://www.w3.org/2000/svg" xmlns:xlink="http://www.w3.org/1999/xlink" viewBox="0 0 453 236" width="453" height="236"><path d="M 107.500,161.000 C 104.661,158.702 104.500,159.000 101.500,157.000" stroke-width="5.090" stroke="black" fill="none" stroke-linecap="round"></path><path d="M 101.500,157.000 C 98.114,155.112 98.161,155.202 94.500,154.000" stroke-width="4.968" stroke="black" fill="none" stroke-linecap="round"></path><path d="M 94.500,154.000 C 88.500,154.313 91.614,153.112 88.500,153.000" stroke-width="5.094" stroke="black" fill="none" stroke-linecap="round"></path><path d="M 88.500,153.000 C 91.302,150.214 88.500,151.313 94.500,148.000" stroke-width="5.289" stroke="black" fill="none" stroke-linecap="round"></path><path d="M 94.500,148.000 C 98.069,146.111 97.802,145.714 101.500,144.000" stroke-width="4.163" stroke="black" fill="none" stroke-linecap="round"></path><path d="M 101.500,144.000 C 104.567,142.095 104.569,142.111 107.500,140.000" stroke-width="4.011" stroke="black" fill="none" stroke-linecap="round"></path><path d="M 107.500,140.000 C 111.383,136.830 111.567,137.095 115.500,134.000" stroke-width="3.671" stroke="black" fill="none" stroke-linecap="round"></path><path d="M 115.500,134.000 C 119.840,131.928 119.383,131.330 123.500,129.000" stroke-width="3.633" stroke="black" fill="none" stroke-linecap="round"></path><path d="M 123.500,129.000 C 126.769,125.234 127.340,125.928 130.500,122.000" stroke-width="3.521" stroke="black" fill="none" stroke-linecap="round"></path><path d="M 130.500,122.000 C 134.622,119.151 134.269,118.734 138.500,116.000" stroke-width="3.587" stroke="black" fill="none" stroke-linecap="round"></path><path d="M 138.500,116.000 C 142.465,112.459 142.622,112.651 146.500,109.000" stroke-width="3.439" stroke="black" fill="none" stroke-linecap="round"></path><path d="M 146.500,109.000 C 149.407,106.379 149.465,106.459 152.500,104.000" stroke-width="3.720" stroke="black" fill="none" stroke-linecap="round"></path><path d="M 152.500,104.000 C 155.924,101.384 155.907,101.379 159.500,99.000" stroke-width="3.676" stroke="black" fill="none" stroke-linecap="round"></path><path d="M 159.500,99.000 C 162.000,97.500 161.924,97.384 164.500,96.000" stroke-width="4.020" stroke="black" fill="none" stroke-linecap="round"></path><path d="M 164.500,96.000 C 166.901,94.300 167.000,94.500 169.500,93.000" stroke-width="4.137" stroke="black" fill="none" stroke-linecap="round"></path><path d="M 169.500,93.000 C 174.500,89.700 171.901,91.800 174.500,91.000" stroke-width="4.589" stroke="black" fill="none" stroke-linecap="round"></path><path d="M 174.500,91.000 C 172.423,96.250 174.500,93.700 169.500,101.000" stroke-width="4.826" stroke="black" fill="none" stroke-linecap="round"></path><path d="M 169.500,101.000 C 163.959,108.972 164.423,109.250 158.500,117.000" stroke-width="2.962" stroke="black" fill="none" stroke-linecap="round"></path><path d="M 158.500,117.000 C 155.946,121.865 155.459,121.472 152.500,126.000" stroke-width="3.227" stroke="black" fill="none" stroke-linecap="round"></path><path d="M 152.500,126.000 C 148.125,130.632 148.446,130.865 143.500,135.000" stroke-width="3.220" stroke="black" fill="none" stroke-linecap="round"></path><path d="M 143.500,135.000 C 138.875,138.868 139.125,139.132 134.500,143.000" stroke-width="3.213" stroke="black" fill="none" stroke-linecap="round"></path><path d="M 134.500,143.000 C 130.125,147.632 129.875,147.368 125.500,152.000" stroke-width="3.215" stroke="black" fill="none" stroke-linecap="round"></path><path d="M 125.500,152.000 C 121.123,156.148 121.125,156.132 116.500,160.000" stroke-width="3.269" stroke="black" fill="none" stroke-linecap="round"></path><path d="M 116.500,160.000 C 112.028,163.537 112.123,163.648 107.500,167.000" stroke-width="3.858" stroke="black" fill="none" stroke-linecap="round"></path><path d="M 107.500,167.000 C 103.483,169.978 103.528,170.037 99.500,173.000" stroke-width="3.631" stroke="black" fill="none" stroke-linecap="round"></path><path d="M 99.500,173.000 C 88.976,180.969 88.983,180.978 78.500,189.000" stroke-width="2.693" stroke="black" fill="none" stroke-linecap="round"></path><path d="M 78.500,189.000 C 73.899,192.377 73.976,192.469 69.500,196.000" stroke-width="3.132" stroke="black" fill="none" stroke-linecap="round"></path><path d="M 69.500,196.000 C 65.535,199.541 65.399,199.377 61.500,203.000" stroke-width="3.301" stroke="black" fill="none" stroke-linecap="round"></path><path d="M 61.500,203.000 C 58.601,205.629 58.535,205.541 55.500,208.000" stroke-width="3.622" stroke="black" fill="none" stroke-linecap="round"></path><path d="M 55.500,208.000 C 50.362,212.743 50.101,212.129 44.500,216.000" stroke-width="3.890" stroke="black" fill="none" stroke-linecap="round"></path><path d="M 44.500,216.000 C 41.029,217.118 41.362,217.743 37.500,218.000" stroke-width="4.382" stroke="black" fill="none" stroke-linecap="round"></path><path d="M 37.500,218.000 C 33.662,220.356 35.029,218.618 32.500,219.000" stroke-width="4.858" stroke="black" fill="none" stroke-linecap="round"></path><path d="M 32.500,219.000 C 30.100,214.266 30.662,216.856 31.500,211.000" stroke-width="5.039" stroke="black" fill="none" stroke-linecap="round"></path><path d="M 31.500,211.000 C 35.016,208.019 33.100,207.266 38.500,205.000" stroke-width="3.911" stroke="black" fill="none" stroke-linecap="round"></path><path d="M 38.500,205.000 C 42.311,201.258 42.516,201.519 46.500,198.000" stroke-width="3.585" stroke="black" fill="none" stroke-linecap="round"></path><path d="M 46.500,198.000 C 51.458,194.438 51.311,194.258 56.500,191.000" stroke-width="3.419" stroke="black" fill="none" stroke-linecap="round"></path><path d="M 56.500,191.000 C 62.418,186.870 62.458,186.938 68.500,183.000" stroke-width="3.556" stroke="black" fill="none" stroke-linecap="round"></path><path d="M 68.500,183.000 C 73.454,179.921 73.418,179.870 78.500,177.000" stroke-width="3.399" stroke="black" fill="none" stroke-linecap="round"></path><path d="M 78.500,177.000 C 82.857,174.199 82.954,174.421 87.500,172.000" stroke-width="3.471" stroke="black" fill="none" stroke-linecap="round"></path><path d="M 87.500,172.000 C 92.481,169.952 92.357,169.699 97.500,168.000" stroke-width="3.452" stroke="black" fill="none" stroke-linecap="round"></path><path d="M 97.500,168.000 C 101.412,166.202 101.481,166.452 105.500,165.000" stroke-width="3.698" stroke="black" fill="none" stroke-linecap="round"></path><path d="M 105.500,165.000 C 110.000,164.000 109.912,163.702 114.500,163.000" stroke-width="3.760" stroke="black" fill="none" stroke-linecap="round"></path><path d="M 114.500,163.000 C 119.030,162.118 119.000,162.000 123.500,161.000" stroke-width="3.680" stroke="black" fill="none" stroke-linecap="round"></path><path d="M 123.500,161.000 C 127.018,160.060 127.030,160.118 130.500,159.000" stroke-width="3.902" stroke="black" fill="none" stroke-linecap="round"></path><path d="M 130.500,159.000 C 138.821,157.199 138.518,156.560 146.500,154.000" stroke-width="3.015" stroke="black" fill="none" stroke-linecap="round"></path><path d="M 146.500,154.000 C 154.500,150.353 150.821,152.199 154.500,149.000" stroke-width="3.837" stroke="black" fill="none" stroke-linecap="round"></path><path d="M 154.500,149.000 C 150.368,148.275 154.500,147.853 146.500,149.000" stroke-width="4.706" stroke="black" fill="none" stroke-linecap="round"></path><path d="M 146.500,149.000 C 142.481,150.452 142.368,149.775 138.500,152.000" stroke-width="3.988" stroke="black" fill="none" stroke-linecap="round"></path><path d="M 138.500,152.000 C 133.462,153.911 133.481,153.952 128.500,156.000" stroke-width="3.591" stroke="black" fill="none" stroke-linecap="round"></path><path d="M 128.500,156.000 C 123.830,157.691 123.962,157.911 119.500,160.000" stroke-width="3.514" stroke="black" fill="none" stroke-linecap="round"></path><path d="M 119.500,160.000 C 116.014,161.486 116.330,161.691 113.500,164.000" stroke-width="3.761" stroke="black" fill="none" stroke-linecap="round"></path><path d="M 113.500,164.000 C 109.818,167.695 110.014,167.486 107.500,172.000" stroke-width="4.152" stroke="black" fill="none" stroke-linecap="round"></path><path d="M 107.500,172.000 C 105.338,175.257 106.318,174.195 106.500,177.000" stroke-width="4.631" stroke="black" fill="none" stroke-linecap="round"></path><path d="M 106.500,177.000 C 109.771,179.668 108.338,179.757 113.500,181.000" stroke-width="4.553" stroke="black" fill="none" stroke-linecap="round"></path><path d="M 113.500,181.000 C 116.982,181.749 116.771,182.168 120.500,182.000" stroke-width="4.076" stroke="black" fill="none" stroke-linecap="round"></path><path d="M 120.500,182.000 C 124.000,182.000 123.982,182.249 127.500,182.000" stroke-width="4.471" stroke="black" fill="none" stroke-linecap="round"></path><path d="M 127.500,182.000 C 131.723,182.944 131.500,182.000 135.500,182.000" stroke-width="3.998" stroke="black" fill="none" stroke-linecap="round"></path><path d="M 135.500,182.000 C 139.807,180.462 139.723,180.944 143.500,178.000" stroke-width="3.774" stroke="black" fill="none" stroke-linecap="round"></path><path d="M 143.500,178.000 C 147.104,175.113 147.307,175.462 150.500,172.000" stroke-width="3.736" stroke="black" fill="none" stroke-linecap="round"></path><path d="M 150.500,172.000 C 153.464,169.850 153.104,169.613 155.500,167.000" stroke-width="3.850" stroke="black" fill="none" stroke-linecap="round"></path><path d="M 155.500,167.000 C 158.920,162.739 158.464,162.850 160.500,158.000" stroke-width="3.601" stroke="black" fill="none" stroke-linecap="round"></path><path d="M 160.500,158.000 C 162.081,153.807 161.420,155.239 160.500,152.000" stroke-width="4.365" stroke="black" fill="none" stroke-linecap="round"></path><path d="M 160.500,152.000 C 156.883,149.740 158.581,149.807 153.500,150.000" stroke-width="4.724" stroke="black" fill="none" stroke-linecap="round"></path><path d="M 153.500,150.000 C 150.272,151.152 150.383,150.240 147.500,153.000" stroke-width="4.165" stroke="black" fill="none" stroke-linecap="round"></path><path d="M 147.500,153.000 C 144.131,155.150 144.272,155.152 141.500,158.000" stroke-width="3.942" stroke="black" fill="none" stroke-linecap="round"></path><path d="M 141.500,158.000 C 137.950,161.712 138.131,161.650 135.500,166.000" stroke-width="4.197" stroke="black" fill="none" stroke-linecap="round"></path><path d="M 135.500,166.000 C 132.670,170.062 133.950,168.712 133.500,172.000" stroke-width="4.535" stroke="black" fill="none" stroke-linecap="round"></path><path d="M 133.500,172.000 C 136.145,173.706 134.170,173.562 138.500,173.000" stroke-width="4.906" stroke="black" fill="none" stroke-linecap="round"></path><path d="M 138.500,173.000 C 146.160,169.806 146.145,170.706 153.500,166.000" stroke-width="4.091" stroke="black" fill="none" stroke-linecap="round"></path><path d="M 153.500,166.000 C 160.012,163.222 159.660,162.806 165.500,159.000" stroke-width="4.046" stroke="black" fill="none" stroke-linecap="round"></path><path d="M 165.500,159.000 C 179.328,147.855 179.512,148.222 192.500,136.000" stroke-width="2.253" stroke="black" fill="none" stroke-linecap="round"></path><path d="M 192.500,136.000 C 199.000,129.500 199.328,129.855 205.500,123.000" stroke-width="2.550" stroke="black" fill="none" stroke-linecap="round"></path><path d="M 205.500,123.000 C 211.870,116.365 212.000,116.500 218.500,110.000" stroke-width="2.655" stroke="black" fill="none" stroke-linecap="round"></path><path d="M 218.500,110.000 C 224.500,104.500 224.370,104.365 230.500,99.000" stroke-width="2.804" stroke="black" fill="none" stroke-linecap="round"></path><path d="M 230.500,99.000 C 236.600,93.605 236.500,93.500 242.500,88.000" stroke-width="2.793" stroke="black" fill="none" stroke-linecap="round"></path><path d="M 242.500,88.000 C 246.643,84.132 246.600,84.105 250.500,80.000" stroke-width="3.126" stroke="black" fill="none" stroke-linecap="round"></path><path d="M 250.500,80.000 C 254.128,76.855 253.643,76.632 256.500,73.000" stroke-width="3.423" stroke="black" fill="none" stroke-linecap="round"></path><path d="M 256.500,73.000 C 260.297,66.862 258.128,70.355 258.500,67.000" stroke-width="4.239" stroke="black" fill="none" stroke-linecap="round"></path><path d="M 258.500,67.000 C 250.582,69.803 253.797,67.362 243.500,74.000" stroke-width="3.852" stroke="black" fill="none" stroke-linecap="round"></path><path d="M 243.500,74.000 C 237.354,78.317 237.082,77.803 231.500,83.000" stroke-width="3.863" stroke="black" fill="none" stroke-linecap="round"></path><path d="M 231.500,83.000 C 224.812,88.289 224.854,88.317 218.500,94.000" stroke-width="3.127" stroke="black" fill="none" stroke-linecap="round"></path><path d="M 218.500,94.000 C 203.486,107.014 203.812,107.289 189.500,121.000" stroke-width="1.892" stroke="black" fill="none" stroke-linecap="round"></path><path d="M 189.500,121.000 C 184.133,126.732 183.986,126.514 179.500,133.000" stroke-width="2.595" stroke="black" fill="none" stroke-linecap="round"></path><path d="M 179.500,133.000 C 175.730,138.347 175.633,138.232 172.500,144.000" stroke-width="2.929" stroke="black" fill="none" stroke-linecap="round"></path><path d="M 172.500,144.000 C 169.620,148.852 169.730,148.847 167.500,154.000" stroke-width="3.239" stroke="black" fill="none" stroke-linecap="round"></path><path d="M 167.500,154.000 C 166.570,157.522 166.120,157.352 165.500,161.000" stroke-width="3.654" stroke="black" fill="none" stroke-linecap="round"></path><path d="M 165.500,161.000 C 164.208,163.931 164.570,164.022 163.500,167.000" stroke-width="3.955" stroke="black" fill="none" stroke-linecap="round"></path><path d="M 163.500,167.000 C 161.338,171.676 162.708,170.431 162.500,174.000" stroke-width="4.406" stroke="black" fill="none" stroke-linecap="round"></path><path d="M 162.500,174.000 C 165.222,175.621 163.338,175.676 167.500,175.000" stroke-width="4.960" stroke="black" fill="none" stroke-linecap="round"></path><path d="M 167.500,175.000 C 170.500,173.000 170.722,174.121 173.500,171.000" stroke-width="4.207" stroke="black" fill="none" stroke-linecap="round"></path><path d="M 173.500,171.000 C 177.916,167.865 178.000,168.000 182.500,165.000" stroke-width="3.637" stroke="black" fill="none" stroke-linecap="round"></path><path d="M 182.500,165.000 C 186.018,163.031 185.916,162.865 189.500,161.000" stroke-width="3.760" stroke="black" fill="none" stroke-linecap="round"></path><path d="M 189.500,161.000 C 191.942,159.395 192.018,159.531 194.500,158.000" stroke-width="4.050" stroke="black" fill="none" stroke-linecap="round"></path><path d="M 194.500,158.000 C 197.456,156.405 197.442,156.395 200.500,155.000" stroke-width="4.038" stroke="black" fill="none" stroke-linecap="round"></path><path d="M 200.500,155.000 C 205.676,150.958 203.956,153.405 207.500,152.000" stroke-width="4.397" stroke="black" fill="none" stroke-linecap="round"></path><path d="M 207.500,152.000 C 208.218,155.647 209.176,152.958 207.500,159.000" stroke-width="4.775" stroke="black" fill="none" stroke-linecap="round"></path><path d="M 207.500,159.000 C 203.901,164.203 206.718,162.647 204.500,166.000" stroke-width="4.630" stroke="black" fill="none" stroke-linecap="round"></path><path d="M 204.500,166.000 C 207.363,166.246 204.901,167.203 209.500,165.000" stroke-width="5.029" stroke="black" fill="none" stroke-linecap="round"></path><path d="M 209.500,165.000 C 213.104,162.113 213.363,162.746 216.500,159.000" stroke-width="3.975" stroke="black" fill="none" stroke-linecap="round"></path><path d="M 216.500,159.000 C 218.896,156.387 219.104,156.613 221.500,154.000" stroke-width="3.973" stroke="black" fill="none" stroke-linecap="round"></path><path d="M 221.500,154.000 C 227.342,148.000 224.896,150.887 228.500,148.000" stroke-width="4.279" stroke="black" fill="none" stroke-linecap="round"></path><path d="M 228.500,148.000 C 224.965,151.593 229.342,148.000 225.500,154.000" stroke-width="4.913" stroke="black" fill="none" stroke-linecap="round"></path><path d="M 225.500,154.000 C 228.041,157.224 225.965,156.093 230.500,157.000" stroke-width="5.145" stroke="black" fill="none" stroke-linecap="round"></path><path d="M 230.500,157.000 C 236.028,152.292 233.541,156.724 236.500,153.000" stroke-width="5.000" stroke="black" fill="none" stroke-linecap="round"></path><path d="M 236.500,153.000 C 234.729,156.656 237.028,153.792 232.500,160.000" stroke-width="4.880" stroke="black" fill="none" stroke-linecap="round"></path><path d="M 232.500,160.000 C 229.991,162.204 230.729,162.656 228.500,165.000" stroke-width="4.242" stroke="black" fill="none" stroke-linecap="round"></path><path d="M 228.500,165.000 C 226.197,169.910 225.991,169.704 224.500,175.000" stroke-width="4.283" stroke="black" fill="none" stroke-linecap="round"></path><path d="M 224.500,175.000 C 221.950,180.000 223.697,177.410 223.500,180.000" stroke-width="4.679" stroke="black" fill="none" stroke-linecap="round"></path><path d="M 223.500,180.000 C 230.135,178.499 227.450,180.000 235.500,175.000" stroke-width="4.540" stroke="black" fill="none" stroke-linecap="round"></path><path d="M 235.500,175.000 C 241.125,170.131 241.635,170.999 246.500,165.000" stroke-width="3.341" stroke="black" fill="none" stroke-linecap="round"></path><path d="M 246.500,165.000 C 252.371,159.829 252.125,159.631 257.500,154.000" stroke-width="3.048" stroke="black" fill="none" stroke-linecap="round"></path><path d="M 257.500,154.000 C 262.568,146.617 263.371,147.329 268.500,140.000" stroke-width="2.767" stroke="black" fill="none" stroke-linecap="round"></path><path d="M 268.500,140.000 C 276.278,132.757 275.568,132.117 283.500,125.000" stroke-width="2.514" stroke="black" fill="none" stroke-linecap="round"></path><path d="M 283.500,125.000 C 289.521,118.018 289.778,118.257 295.500,111.000" stroke-width="2.640" stroke="black" fill="none" stroke-linecap="round"></path><path d="M 295.500,111.000 C 300.876,104.391 301.021,104.518 306.500,98.000" stroke-width="2.757" stroke="black" fill="none" stroke-linecap="round"></path><path d="M 306.500,98.000 C 312.161,92.140 311.876,91.891 317.500,86.000" stroke-width="2.779" stroke="black" fill="none" stroke-linecap="round"></path><path d="M 317.500,86.000 C 322.661,80.907 322.161,80.640 326.500,75.000" stroke-width="2.916" stroke="black" fill="none" stroke-linecap="round"></path><path d="M 326.500,75.000 C 328.526,70.511 329.161,70.907 330.500,66.000" stroke-width="3.385" stroke="black" fill="none" stroke-linecap="round"></path><path d="M 330.500,66.000 C 332.300,62.601 332.026,62.511 333.500,59.000" stroke-width="3.672" stroke="black" fill="none" stroke-linecap="round"></path><path d="M 333.500,59.000 C 337.017,53.275 334.800,55.101 335.500,51.000" stroke-width="4.198" stroke="black" fill="none" stroke-linecap="round"></path><path d="M 335.500,51.000 C 331.071,48.884 334.017,48.775 327.500,50.000" stroke-width="4.747" stroke="black" fill="none" stroke-linecap="round"></path><path d="M 327.500,50.000 C 323.135,52.607 323.071,51.384 319.500,56.000" stroke-width="3.894" stroke="black" fill="none" stroke-linecap="round"></path><path d="M 319.500,56.000 C 315.716,59.779 315.635,59.607 312.500,64.000" stroke-width="3.580" stroke="black" fill="none" stroke-linecap="round"></path><path d="M 312.500,64.000 C 307.560,70.233 307.716,70.279 303.500,77.000" stroke-width="3.019" stroke="black" fill="none" stroke-linecap="round"></path><path d="M 303.500,77.000 C 299.000,85.500 298.560,85.233 294.500,94.000" stroke-width="2.743" stroke="black" fill="none" stroke-linecap="round"></path><path d="M 294.500,94.000 C 290.343,102.698 290.000,102.500 285.500,111.000" stroke-width="2.608" stroke="black" fill="none" stroke-linecap="round"></path><path d="M 285.500,111.000 C 279.788,120.694 279.843,120.698 273.500,130.000" stroke-width="2.414" stroke="black" fill="none" stroke-linecap="round"></path><path d="M 273.500,130.000 C 267.198,139.149 267.288,139.194 260.500,148.000" stroke-width="3.072" stroke="black" fill="none" stroke-linecap="round"></path><path d="M 260.500,148.000 C 252.753,157.329 253.198,157.649 245.500,167.000" stroke-width="2.437" stroke="black" fill="none" stroke-linecap="round"></path><path d="M 245.500,167.000 C 242.023,169.855 243.753,169.329 242.500,172.000" stroke-width="3.414" stroke="black" fill="none" stroke-linecap="round"></path><path d="M 242.500,172.000 C 244.760,175.772 243.023,174.355 247.500,176.000" stroke-width="4.453" stroke="black" fill="none" stroke-linecap="round"></path><path d="M 247.500,176.000 C 251.011,174.526 250.760,176.272 254.500,173.000" stroke-width="4.039" stroke="black" fill="none" stroke-linecap="round"></path><path d="M 254.500,173.000 C 259.101,171.199 259.011,171.026 263.500,169.000" stroke-width="3.632" stroke="black" fill="none" stroke-linecap="round"></path><path d="M 263.500,169.000 C 266.859,166.699 267.101,167.199 270.500,165.000" stroke-width="3.888" stroke="black" fill="none" stroke-linecap="round"></path><path d="M 270.500,165.000 C 274.384,163.029 274.359,163.199 278.500,162.000" stroke-width="3.731" stroke="black" fill="none" stroke-linecap="round"></path><path d="M 278.500,162.000 C 282.486,161.268 282.384,161.029 286.500,161.000" stroke-width="3.737" stroke="black" fill="none" stroke-linecap="round"></path><path d="M 286.500,161.000 C 290.000,161.000 289.986,160.768 293.500,161.000" stroke-width="3.859" stroke="black" fill="none" stroke-linecap="round"></path><path d="M 293.500,161.000 C 299.038,159.030 297.500,161.000 301.500,161.000" stroke-width="4.320" stroke="black" fill="none" stroke-linecap="round"></path><path d="M 301.500,161.000 C 304.167,165.220 304.038,163.030 303.500,169.000" stroke-width="4.463" stroke="black" fill="none" stroke-linecap="round"></path><path d="M 303.500,169.000 C 301.971,174.336 302.667,173.720 298.500,178.000" stroke-width="3.680" stroke="black" fill="none" stroke-linecap="round"></path><path d="M 298.500,178.000 C 292.482,183.769 292.971,183.836 285.500,188.000" stroke-width="3.067" stroke="black" fill="none" stroke-linecap="round"></path><path d="M 285.500,188.000 C 275.842,193.863 275.982,193.769 265.500,198.000" stroke-width="2.591" stroke="black" fill="none" stroke-linecap="round"></path><path d="M 265.500,198.000 C 255.651,201.639 255.842,201.863 245.500,204.000" stroke-width="2.544" stroke="black" fill="none" stroke-linecap="round"></path><path d="M 245.500,204.000 C 234.070,206.554 234.151,206.639 222.500,208.000" stroke-width="2.359" stroke="black" fill="none" stroke-linecap="round"></path><path d="M 222.500,208.000 C 210.020,209.499 210.070,209.554 197.500,210.000" stroke-width="2.239" stroke="black" fill="none" stroke-linecap="round"></path><path d="M 197.500,210.000 C 185.000,210.000 185.020,210.499 172.500,210.000" stroke-width="2.265" stroke="black" fill="none" stroke-linecap="round"></path><path d="M 172.500,210.000 C 161.845,211.262 162.000,210.000 151.500,210.000" stroke-width="2.380" stroke="black" fill="none" stroke-linecap="round"></path><path d="M 151.500,210.000 C 141.277,208.163 141.345,208.762 131.500,205.000" stroke-width="2.544" stroke="black" fill="none" stroke-linecap="round"></path><path d="M 131.500,205.000 C 124.355,202.301 124.277,202.663 117.500,199.000" stroke-width="2.826" stroke="black" fill="none" stroke-linecap="round"></path><path d="M 117.500,199.000 C 110.164,196.472 110.855,195.801 104.500,192.000" stroke-width="2.895" stroke="black" fill="none" stroke-linecap="round"></path><path d="M 104.500,192.000 C 100.809,188.362 100.664,188.972 98.500,184.000" stroke-width="3.270" stroke="black" fill="none" stroke-linecap="round"></path><path d="M 98.500,184.000 C 95.921,179.633 96.309,179.862 95.500,175.000" stroke-width="3.448" stroke="black" fill="none" stroke-linecap="round"></path><path d="M 95.500,175.000 C 93.788,167.618 94.921,168.633 96.500,162.000" stroke-width="3.259" stroke="black" fill="none" stroke-linecap="round"></path><path d="M 96.500,162.000 C 102.245,153.255 100.788,153.118 109.500,146.000" stroke-width="2.722" stroke="black" fill="none" stroke-linecap="round"></path><path d="M 109.500,146.000 C 117.794,137.470 117.745,137.755 127.500,131.000" stroke-width="2.462" stroke="black" fill="none" stroke-linecap="round"></path><path d="M 127.500,131.000 C 140.532,122.502 140.294,122.470 154.500,116.000" stroke-width="2.117" stroke="black" fill="none" stroke-linecap="round"></path><path d="M 154.500,116.000 C 170.087,110.215 169.532,109.002 185.500,104.000" stroke-width="1.906" stroke="black" fill="none" stroke-linecap="round"></path><path d="M 185.500,104.000 C 200.495,95.850 201.087,97.715 216.500,91.000" stroke-width="1.894" stroke="black" fill="none" stroke-linecap="round"></path><path d="M 216.500,91.000 C 233.852,86.371 233.495,85.850 251.500,84.000" stroke-width="1.888" stroke="black" fill="none" stroke-linecap="round"></path><path d="M 251.500,84.000 C 267.485,82.525 267.352,81.871 283.500,82.000" stroke-width="1.877" stroke="black" fill="none" stroke-linecap="round"></path><path d="M 283.500,82.000 C 298.071,81.098 297.985,81.525 312.500,82.000" stroke-width="2.014" stroke="black" fill="none" stroke-linecap="round"></path><path d="M 312.500,82.000 C 323.369,80.811 322.071,82.598 331.500,85.000" stroke-width="2.364" stroke="black" fill="none" stroke-linecap="round"></path><path d="M 331.500,85.000 C 344.203,91.217 339.869,89.311 345.500,99.000" stroke-width="3.046" stroke="black" fill="none" stroke-linecap="round"></path><path d="M 345.500,99.000 C 343.078,108.942 346.703,106.217 336.500,115.000" stroke-width="2.799" stroke="black" fill="none" stroke-linecap="round"></path><path d="M 336.500,115.000 C 323.199,126.894 324.078,126.442 307.500,134.000" stroke-width="2.629" stroke="black" fill="none" stroke-linecap="round"></path><path d="M 307.500,134.000 C 274.938,147.530 275.699,148.394 241.500,158.000" stroke-width="1.274" stroke="black" fill="none" stroke-linecap="round"></path><path d="M 241.500,158.000 C 225.123,162.328 225.438,163.030 208.500,165.000" stroke-width="1.607" stroke="black" fill="none" stroke-linecap="round"></path><path d="M 208.500,165.000 C 197.016,166.377 197.123,166.828 185.500,167.000" stroke-width="2.511" stroke="black" fill="none" stroke-linecap="round"></path><path d="M 185.500,167.000 C 178.500,167.000 178.516,167.377 171.500,167.000" stroke-width="2.835" stroke="black" fill="none" stroke-linecap="round"></path><path d="M 334.500,154.000 C 344.822,158.268 345.000,157.000 355.500,160.000" stroke-width="5.012" stroke="black" fill="none" stroke-linecap="round"></path><path d="M 355.500,160.000 C 363.704,161.257 363.322,161.268 371.500,160.000" stroke-width="3.391" stroke="black" fill="none" stroke-linecap="round"></path><path d="M 371.500,160.000 C 378.913,157.203 379.204,158.757 386.500,155.000" stroke-width="3.043" stroke="black" fill="none" stroke-linecap="round"></path><path d="M 386.500,155.000 C 394.518,153.069 394.413,152.703 402.500,151.000" stroke-width="2.846" stroke="black" fill="none" stroke-linecap="round"></path><path d="M 402.500,151.000 C 407.917,148.881 408.018,149.569 413.500,148.000" stroke-width="3.240" stroke="black" fill="none" stroke-linecap="round"></path><path d="M 413.500,148.000 C 417.500,148.000 417.417,147.381 421.500,148.000" stroke-width="3.581" stroke="black" fill="none" stroke-linecap="round"></path><path d="M 421.500,148.000 C 424.711,147.239 424.500,148.000 427.500,148.000" stroke-width="4.356" stroke="black" fill="none" stroke-linecap="round"></path><path d="M 427.500,148.000 C 434.030,150.745 430.211,148.739 432.500,151.000" stroke-width="5.032" stroke="black" fill="none" stroke-linecap="round"></path><path d="M 432.500,151.000 C 424.008,150.243 428.030,151.745 415.500,150.000" stroke-width="4.416" stroke="black" fill="none" stroke-linecap="round"></path><path d="M 415.500,150.000 C 406.481,149.562 406.508,149.743 397.500,150.000" stroke-width="3.009" stroke="black" fill="none" stroke-linecap="round"></path><path d="M 397.500,150.000 C 386.003,151.041 385.981,150.562 374.500,152.000" stroke-width="2.543" stroke="black" fill="none" stroke-linecap="round"></path><path d="M 374.500,152.000 C 362.002,153.019 362.003,153.041 349.500,154.000" stroke-width="2.348" stroke="black" fill="none" stroke-linecap="round"></path><path d="M 349.500,154.000 C 336.491,154.894 336.502,155.019 323.500,156.000" stroke-width="2.198" stroke="black" fill="none" stroke-linecap="round"></path><path d="M 323.500,156.000 C 312.985,156.866 312.991,156.894 302.500,158.000" stroke-width="2.353" stroke="black" fill="none" stroke-linecap="round"></path><path d="M 302.500,158.000 C 294.322,158.262 294.485,158.866 286.500,160.000" stroke-width="2.650" stroke="black" fill="none" stroke-linecap="round"></path><path d="M 286.500,160.000 C 280.598,161.301 280.822,161.262 275.500,164.000" stroke-width="3.042" stroke="black" fill="none" stroke-linecap="round"></path></svg>