<svg xmlns="http://www.w3.org/2000/svg" xmlns:xlink="http://www.w3.org/1999/xlink" viewBox="0 0 1844 805" width="1844" height="805"><path d="M 776.000,465.000 C 772.554,461.936 772.500,462.000 769.000,459.000" stroke-width="5.102" stroke="black" fill="none" stroke-linecap="round"></path><path d="M 769.000,459.000 C 760.803,452.727 761.054,452.436 753.000,446.000" stroke-width="2.993" stroke="black" fill="none" stroke-linecap="round"></path><path d="M 753.000,446.000 C 747.772,438.007 746.303,440.227 740.000,434.000" stroke-width="2.823" stroke="black" fill="none" stroke-linecap="round"></path><path d="M 740.000,434.000 C 715.024,421.556 715.772,421.507 689.000,413.000" stroke-width="1.576" stroke="black" fill="none" stroke-linecap="round"></path><path d="M 689.000,413.000 C 677.954,411.788 678.524,409.556 667.000,410.000" stroke-width="2.051" stroke="black" fill="none" stroke-linecap="round"></path><path d="M 667.000,410.000 C 653.471,407.650 653.454,407.788 640.000,405.000" stroke-width="2.120" stroke="black" fill="none" stroke-linecap="round"></path><path d="M 640.000,405.000 C 622.958,401.686 622.971,401.650 606.000,398.000" stroke-width="1.866" stroke="black" fill="none" stroke-linecap="round"></path><path d="M 606.000,398.000 C 599.730,397.183 599.958,396.686 594.000,395.000" stroke-width="2.661" stroke="black" fill="none" stroke-linecap="round"></path><path d="M 594.000,395.000 C 589.411,392.646 589.230,393.183 585.000,390.000" stroke-width="3.200" stroke="black" fill="none" stroke-linecap="round"></path><path d="M 585.000,390.000 C 578.335,386.665 581.911,388.146 579.000,386.000" stroke-width="3.646" stroke="black" fill="none" stroke-linecap="round"></path><path d="M 579.000,386.000 C 583.532,386.295 579.835,385.165 588.000,387.000" stroke-width="4.542" stroke="black" fill="none" stroke-linecap="round"></path><path d="M 588.000,387.000 C 592.942,388.458 593.032,387.795 598.000,389.000" stroke-width="3.706" stroke="black" fill="none" stroke-linecap="round"></path><path d="M 598.000,389.000 C 607.104,390.593 606.942,389.958 616.000,390.000" stroke-width="2.964" stroke="black" fill="none" stroke-linecap="round"></path><path d="M 616.000,390.000 C 622.321,389.366 622.104,389.593 628.000,387.000" stroke-width="3.214" stroke="black" fill="none" stroke-linecap="round"></path><path d="M 628.000,387.000 C 640.208,381.393 640.321,381.866 652.000,375.000" stroke-width="2.414" stroke="black" fill="none" stroke-linecap="round"></path><path d="M 652.000,375.000 C 681.155,357.821 681.708,358.893 711.000,342.000" stroke-width="1.291" stroke="black" fill="none" stroke-linecap="round"></path><path d="M 711.000,342.000 C 722.754,335.898 722.655,335.821 735.000,331.000" stroke-width="1.779" stroke="black" fill="none" stroke-linecap="round"></path><path d="M 735.000,331.000 C 753.038,324.604 752.754,323.898 771.000,318.000" stroke-width="1.744" stroke="black" fill="none" stroke-linecap="round"></path><path d="M 771.000,318.000 C 787.191,312.467 787.038,312.104 803.000,306.000" stroke-width="1.779" stroke="black" fill="none" stroke-linecap="round"></path><path d="M 803.000,306.000 C 820.076,298.668 820.191,298.967 837.000,291.000" stroke-width="1.769" stroke="black" fill="none" stroke-linecap="round"></path><path d="M 837.000,291.000 C 852.326,284.619 852.076,284.168 867.000,277.000" stroke-width="1.865" stroke="black" fill="none" stroke-linecap="round"></path><path d="M 867.000,277.000 C 878.018,270.530 878.326,271.119 889.000,264.000" stroke-width="2.066" stroke="black" fill="none" stroke-linecap="round"></path><path d="M 889.000,264.000 C 896.426,259.370 896.518,259.530 904.000,255.000" stroke-width="2.514" stroke="black" fill="none" stroke-linecap="round"></path><path d="M 904.000,255.000 C 909.562,252.108 909.426,251.870 915.000,249.000" stroke-width="2.981" stroke="black" fill="none" stroke-linecap="round"></path><path d="M 915.000,249.000 C 920.000,246.000 920.062,246.108 925.000,243.000" stroke-width="3.221" stroke="black" fill="none" stroke-linecap="round"></path><path d="M 925.000,243.000 C 930.790,238.533 927.500,241.500 930.000,240.000" stroke-width="3.803" stroke="black" fill="none" stroke-linecap="round"></path><path d="M 930.000,240.000 C 923.847,247.889 927.290,245.033 918.000,256.000" stroke-width="4.441" stroke="black" fill="none" stroke-linecap="round"></path><path d="M 918.000,256.000 C 910.017,270.776 908.347,269.389 899.000,283.000" stroke-width="2.306" stroke="black" fill="none" stroke-linecap="round"></path><path d="M 899.000,283.000 C 870.362,308.524 873.517,311.276 845.000,337.000" stroke-width="1.179" stroke="black" fill="none" stroke-linecap="round"></path><path d="M 845.000,337.000 C 814.545,373.645 813.362,372.524 785.000,411.000" stroke-width="1.125" stroke="black" fill="none" stroke-linecap="round"></path><path d="M 785.000,411.000 C 771.331,428.875 771.045,428.645 758.000,447.000" stroke-width="1.234" stroke="black" fill="none" stroke-linecap="round"></path><path d="M 758.000,447.000 C 727.323,489.739 726.831,489.375 696.000,532.000" stroke-width="1.125" stroke="black" fill="none" stroke-linecap="round"></path><path d="M 696.000,532.000 C 666.003,576.264 664.323,574.739 632.000,617.000" stroke-width="1.125" stroke="black" fill="none" stroke-linecap="round"></path><path d="M 632.000,617.000 C 612.605,634.152 615.503,636.764 595.000,653.000" stroke-width="1.125" stroke="black" fill="none" stroke-linecap="round"></path><path d="M 595.000,653.000 C 571.590,681.052 570.105,679.652 547.000,708.000" stroke-width="1.125" stroke="black" fill="none" stroke-linecap="round"></path><path d="M 547.000,708.000 C 535.641,721.971 535.090,721.052 522.000,733.000" stroke-width="1.451" stroke="black" fill="none" stroke-linecap="round"></path><path d="M 522.000,733.000 C 511.799,741.315 512.141,740.971 500.000,746.000" stroke-width="1.929" stroke="black" fill="none" stroke-linecap="round"></path><path d="M 500.000,746.000 C 477.296,754.333 477.799,754.815 454.000,760.000" stroke-width="1.582" stroke="black" fill="none" stroke-linecap="round"></path><path d="M 454.000,760.000 C 439.953,761.729 440.296,763.333 426.000,764.000" stroke-width="1.919" stroke="black" fill="none" stroke-linecap="round"></path><path d="M 426.000,764.000 C 418.588,766.385 418.453,765.229 411.000,767.000" stroke-width="2.546" stroke="black" fill="none" stroke-linecap="round"></path><path d="M 411.000,767.000 C 400.000,767.000 400.088,767.885 389.000,767.000" stroke-width="2.479" stroke="black" fill="none" stroke-linecap="round"></path><path d="M 389.000,767.000 C 383.715,769.468 385.000,767.000 381.000,767.000" stroke-width="3.250" stroke="black" fill="none" stroke-linecap="round"></path><path d="M 381.000,767.000 C 369.117,758.221 372.715,759.468 367.000,747.000" stroke-width="3.208" stroke="black" fill="none" stroke-linecap="round"></path><path d="M 367.000,747.000 C 366.678,729.746 364.117,731.721 371.000,714.000" stroke-width="2.099" stroke="black" fill="none" stroke-linecap="round"></path><path d="M 371.000,714.000 C 374.148,703.590 373.678,704.246 381.000,696.000" stroke-width="2.220" stroke="black" fill="none" stroke-linecap="round"></path><path d="M 381.000,696.000 C 406.946,667.180 406.648,667.590 436.000,642.000" stroke-width="1.164" stroke="black" fill="none" stroke-linecap="round"></path><path d="M 436.000,642.000 C 459.137,620.246 459.446,621.680 486.000,605.000" stroke-width="1.194" stroke="black" fill="none" stroke-linecap="round"></path><path d="M 486.000,605.000 C 515.925,590.489 514.637,588.746 547.000,579.000" stroke-width="1.125" stroke="black" fill="none" stroke-linecap="round"></path><path d="M 547.000,579.000 C 599.832,563.583 598.425,559.989 651.000,544.000" stroke-width="1.125" stroke="black" fill="none" stroke-linecap="round"></path><path d="M 651.000,544.000 C 679.962,530.419 680.832,532.583 709.000,517.000" stroke-width="1.125" stroke="black" fill="none" stroke-linecap="round"></path><path d="M 709.000,517.000 C 744.918,497.016 745.962,499.919 783.000,483.000" stroke-width="1.125" stroke="black" fill="none" stroke-linecap="round"></path><path d="M 783.000,483.000 C 817.797,472.646 816.918,470.516 853.000,464.000" stroke-width="1.125" stroke="black" fill="none" stroke-linecap="round"></path><path d="M 853.000,464.000 C 874.969,459.339 874.797,458.646 897.000,455.000" stroke-width="1.296" stroke="black" fill="none" stroke-linecap="round"></path><path d="M 897.000,455.000 C 908.229,453.872 907.969,452.839 919.000,451.000" stroke-width="1.924" stroke="black" fill="none" stroke-linecap="round"></path><path d="M 919.000,451.000 C 930.707,447.517 930.729,447.872 942.000,443.000" stroke-width="2.181" stroke="black" fill="none" stroke-linecap="round"></path><path d="M 942.000,443.000 C 953.504,438.791 953.207,438.517 964.000,433.000" stroke-width="2.278" stroke="black" fill="none" stroke-linecap="round"></path><path d="M 964.000,433.000 C 967.745,430.255 968.004,430.791 971.000,427.000" stroke-width="3.050" stroke="black" fill="none" stroke-linecap="round"></path><path d="M 971.000,427.000 C 978.539,419.897 978.245,419.755 985.000,412.000" stroke-width="2.681" stroke="black" fill="none" stroke-linecap="round"></path><path d="M 985.000,412.000 C 987.201,408.597 987.539,408.897 989.000,405.000" stroke-width="3.344" stroke="black" fill="none" stroke-linecap="round"></path><path d="M 989.000,405.000 C 992.036,401.657 990.201,402.597 991.000,400.000" stroke-width="3.906" stroke="black" fill="none" stroke-linecap="round"></path><path d="M 991.000,400.000 C 987.589,396.367 989.536,397.657 984.000,397.000" stroke-width="4.647" stroke="black" fill="none" stroke-linecap="round"></path><path d="M 984.000,397.000 C 970.537,401.620 970.589,399.367 957.000,406.000" stroke-width="2.437" stroke="black" fill="none" stroke-linecap="round"></path><path d="M 957.000,406.000 C 953.573,407.524 953.537,407.120 950.000,408.000" stroke-width="3.288" stroke="black" fill="none" stroke-linecap="round"></path><path d="M 950.000,408.000 C 943.793,409.494 946.073,408.524 942.000,408.000" stroke-width="4.052" stroke="black" fill="none" stroke-linecap="round"></path><path d="M 942.000,408.000 C 942.447,405.135 940.793,406.994 944.000,403.000" stroke-width="4.595" stroke="black" fill="none" stroke-linecap="round"></path><path d="M 969.000,431.000 C 979.500,428.000 979.500,428.000 990.000,425.000" stroke-width="4.554" stroke="black" fill="none" stroke-linecap="round"></path><path d="M 990.000,425.000 C 1000.487,421.954 1000.500,422.000 1011.000,419.000" stroke-width="2.776" stroke="black" fill="none" stroke-linecap="round"></path><path d="M 1011.000,419.000 C 1060.974,404.906 1060.987,404.954 1111.000,391.000" stroke-width="1.125" stroke="black" fill="none" stroke-linecap="round"></path><path d="M 1111.000,391.000 C 1198.467,361.399 1199.474,366.406 1288.000,342.000" stroke-width="1.125" stroke="black" fill="none" stroke-linecap="round"></path><path d="M 1288.000,342.000 C 1349.293,331.289 1348.467,328.899 1411.000,326.000" stroke-width="1.125" stroke="black" fill="none" stroke-linecap="round"></path><path d="M 1411.000,326.000 C 1454.517,324.000 1454.293,322.289 1498.000,324.000" stroke-width="1.125" stroke="black" fill="none" stroke-linecap="round"></path><path d="M 1498.000,324.000 C 1515.565,324.299 1515.517,324.000 1533.000,326.000" stroke-width="1.273" stroke="black" fill="none" stroke-linecap="round"></path><path d="M 1533.000,326.000 C 1556.755,327.695 1556.565,328.299 1580.000,332.000" stroke-width="1.372" stroke="black" fill="none" stroke-linecap="round"></path><path d="M 1580.000,332.000 C 1597.557,335.264 1597.255,335.195 1614.000,341.000" stroke-width="1.622" stroke="black" fill="none" stroke-linecap="round"></path><path d="M 1614.000,341.000 C 1618.544,343.936 1619.057,342.764 1623.000,347.000" stroke-width="2.541" stroke="black" fill="none" stroke-linecap="round"></path><path d="M 1623.000,347.000 C 1628.876,348.910 1626.544,349.436 1630.000,352.000" stroke-width="3.650" stroke="black" fill="none" stroke-linecap="round"></path></svg>