<svg xmlns="http://www.w3.org/2000/svg" xmlns:xlink="http://www.w3.org/1999/xlink" viewBox="0 0 1692 805" width="1692" height="805"><path d="M 678.000,451.000 C 674.547,449.806 674.500,450.000 671.000,449.000" stroke-width="4.927" stroke="black" fill="none" stroke-linecap="round"></path><path d="M 671.000,449.000 C 663.527,447.351 663.547,447.306 656.000,446.000" stroke-width="3.286" stroke="black" fill="none" stroke-linecap="round"></path><path d="M 656.000,446.000 C 643.835,444.731 644.027,443.851 632.000,442.000" stroke-width="2.539" stroke="black" fill="none" stroke-linecap="round"></path><path d="M 632.000,442.000 C 618.090,437.613 617.835,438.731 604.000,434.000" stroke-width="2.194" stroke="black" fill="none" stroke-linecap="round"></path><path d="M 604.000,434.000 C 598.206,433.822 598.590,432.613 593.000,432.000" stroke-width="2.872" stroke="black" fill="none" stroke-linecap="round"></path><path d="M 593.000,432.000 C 588.153,430.020 588.206,430.322 584.000,427.000" stroke-width="3.287" stroke="black" fill="none" stroke-linecap="round"></path><path d="M 584.000,427.000 C 568.001,420.523 571.653,418.020 560.000,408.000" stroke-width="2.274" stroke="black" fill="none" stroke-linecap="round"></path><path d="M 560.000,408.000 C 546.887,382.032 545.001,384.523 538.000,355.000" stroke-width="1.423" stroke="black" fill="none" stroke-linecap="round"></path><path d="M 538.000,355.000 C 533.754,344.501 534.887,345.532 536.000,335.000" stroke-width="2.073" stroke="black" fill="none" stroke-linecap="round"></path><path d="M 536.000,335.000 C 539.983,314.860 540.254,317.001 551.000,300.000" stroke-width="1.769" stroke="black" fill="none" stroke-linecap="round"></path><path d="M 551.000,300.000 C 562.340,282.708 561.483,285.860 579.000,277.000" stroke-width="1.836" stroke="black" fill="none" stroke-linecap="round"></path><path d="M 579.000,277.000 C 619.690,259.572 616.340,264.208 659.000,263.000" stroke-width="1.133" stroke="black" fill="none" stroke-linecap="round"></path><path d="M 659.000,263.000 C 705.357,276.451 705.690,267.072 751.000,292.000" stroke-width="1.125" stroke="black" fill="none" stroke-linecap="round"></path><path d="M 751.000,292.000 C 795.514,310.055 796.357,307.451 841.000,325.000" stroke-width="1.125" stroke="black" fill="none" stroke-linecap="round"></path><path d="M 841.000,325.000 C 867.167,328.390 865.514,333.055 891.000,338.000" stroke-width="1.129" stroke="black" fill="none" stroke-linecap="round"></path><path d="M 891.000,338.000 C 928.906,355.033 929.167,353.390 965.000,375.000" stroke-width="1.125" stroke="black" fill="none" stroke-linecap="round"></path><path d="M 965.000,375.000 C 975.192,382.257 975.906,381.033 985.000,390.000" stroke-width="1.646" stroke="black" fill="none" stroke-linecap="round"></path><path d="M 985.000,390.000 C 996.305,395.765 994.192,397.257 1003.000,405.000" stroke-width="2.045" stroke="black" fill="none" stroke-linecap="round"></path><path d="M 1003.000,405.000 C 1014.229,417.403 1010.805,415.765 1014.000,430.000" stroke-width="2.123" stroke="black" fill="none" stroke-linecap="round"></path><path d="M 1014.000,430.000 C 1014.680,451.354 1013.729,444.903 1002.000,460.000" stroke-width="1.934" stroke="black" fill="none" stroke-linecap="round"></path><path d="M 1002.000,460.000 C 955.066,490.531 959.680,488.854 904.000,505.000" stroke-width="1.125" stroke="black" fill="none" stroke-linecap="round"></path><path d="M 904.000,505.000 C 862.938,509.808 865.066,516.031 822.000,511.000" stroke-width="1.125" stroke="black" fill="none" stroke-linecap="round"></path><path d="M 822.000,511.000 C 811.337,510.139 811.438,511.308 801.000,508.000" stroke-width="1.676" stroke="black" fill="none" stroke-linecap="round"></path><path d="M 801.000,508.000 C 793.615,508.893 796.837,507.139 793.000,505.000" stroke-width="2.704" stroke="black" fill="none" stroke-linecap="round"></path><path d="M 793.000,505.000 C 779.341,471.839 789.115,480.393 792.000,451.000" stroke-width="1.585" stroke="black" fill="none" stroke-linecap="round"></path><path d="M 792.000,451.000 C 821.131,418.194 811.841,418.339 858.000,398.000" stroke-width="1.125" stroke="black" fill="none" stroke-linecap="round"></path><path d="M 858.000,398.000 C 941.571,342.714 941.631,352.194 1033.000,319.000" stroke-width="1.125" stroke="black" fill="none" stroke-linecap="round"></path><path d="M 1033.000,319.000 C 1119.190,306.598 1115.071,297.714 1205.000,308.000" stroke-width="1.125" stroke="black" fill="none" stroke-linecap="round"></path><path d="M 1205.000,308.000 C 1272.731,313.023 1272.190,309.098 1339.000,324.000" stroke-width="1.125" stroke="black" fill="none" stroke-linecap="round"></path><path d="M 1339.000,324.000 C 1353.471,329.579 1354.231,326.523 1368.000,335.000" stroke-width="1.154" stroke="black" fill="none" stroke-linecap="round"></path><path d="M 1368.000,335.000 C 1387.206,341.570 1386.971,342.079 1406.000,349.000" stroke-width="1.469" stroke="black" fill="none" stroke-linecap="round"></path><path d="M 1406.000,349.000 C 1412.324,350.269 1408.706,350.070 1411.000,352.000" stroke-width="2.674" stroke="black" fill="none" stroke-linecap="round"></path><path d="M 1411.000,352.000 C 1400.892,357.831 1405.824,358.769 1393.000,366.000" stroke-width="3.124" stroke="black" fill="none" stroke-linecap="round"></path><path d="M 1393.000,366.000 C 1372.971,388.065 1372.392,387.331 1354.000,411.000" stroke-width="1.463" stroke="black" fill="none" stroke-linecap="round"></path><path d="M 1354.000,411.000 C 1339.842,428.879 1339.471,428.565 1326.000,447.000" stroke-width="1.507" stroke="black" fill="none" stroke-linecap="round"></path><path d="M 1326.000,447.000 C 1312.067,464.706 1312.342,464.879 1299.000,483.000" stroke-width="1.485" stroke="black" fill="none" stroke-linecap="round"></path><path d="M 1299.000,483.000 C 1294.821,489.400 1294.567,489.206 1291.000,496.000" stroke-width="2.315" stroke="black" fill="none" stroke-linecap="round"></path><path d="M 1291.000,496.000 C 1290.602,500.999 1289.321,498.900 1288.000,502.000" stroke-width="3.299" stroke="black" fill="none" stroke-linecap="round"></path><path d="M 1288.000,502.000 C 1282.924,501.953 1284.102,503.499 1278.000,501.000" stroke-width="4.554" stroke="black" fill="none" stroke-linecap="round"></path><path d="M 1278.000,501.000 C 1267.706,497.201 1267.424,498.953 1257.000,496.000" stroke-width="2.871" stroke="black" fill="none" stroke-linecap="round"></path><path d="M 1257.000,496.000 C 1214.008,492.395 1214.206,491.201 1171.000,489.000" stroke-width="1.162" stroke="black" fill="none" stroke-linecap="round"></path><path d="M 1171.000,489.000 C 1137.860,487.817 1138.008,486.395 1105.000,484.000" stroke-width="1.125" stroke="black" fill="none" stroke-linecap="round"></path><path d="M 1105.000,484.000 C 1038.557,477.473 1038.860,476.317 973.000,466.000" stroke-width="1.125" stroke="black" fill="none" stroke-linecap="round"></path><path d="M 973.000,466.000 C 918.944,454.245 918.557,456.473 865.000,442.000" stroke-width="1.125" stroke="black" fill="none" stroke-linecap="round"></path><path d="M 865.000,442.000 C 837.770,434.004 837.444,435.745 810.000,429.000" stroke-width="1.125" stroke="black" fill="none" stroke-linecap="round"></path><path d="M 810.000,429.000 C 782.038,425.150 782.270,424.004 754.000,422.000" stroke-width="1.175" stroke="black" fill="none" stroke-linecap="round"></path><path d="M 754.000,422.000 C 737.536,419.699 737.538,420.150 721.000,419.000" stroke-width="1.569" stroke="black" fill="none" stroke-linecap="round"></path><path d="M 721.000,419.000 C 702.000,419.000 702.036,418.199 683.000,419.000" stroke-width="1.636" stroke="black" fill="none" stroke-linecap="round"></path><path d="M 683.000,419.000 C 672.500,419.000 672.500,419.000 662.000,419.000" stroke-width="2.123" stroke="black" fill="none" stroke-linecap="round"></path><path d="M 662.000,419.000 C 652.870,420.183 653.000,419.000 644.000,419.000" stroke-width="2.515" stroke="black" fill="none" stroke-linecap="round"></path><path d="M 644.000,419.000 C 630.091,417.151 630.370,417.183 617.000,413.000" stroke-width="2.179" stroke="black" fill="none" stroke-linecap="round"></path><path d="M 617.000,413.000 C 609.237,410.558 609.591,410.651 603.000,406.000" stroke-width="2.605" stroke="black" fill="none" stroke-linecap="round"></path><path d="M 603.000,406.000 C 597.259,399.714 596.237,401.058 591.000,394.000" stroke-width="2.749" stroke="black" fill="none" stroke-linecap="round"></path><path d="M 591.000,394.000 C 585.365,389.649 585.759,389.214 580.000,385.000" stroke-width="2.906" stroke="black" fill="none" stroke-linecap="round"></path></svg>