<svg xmlns="http://www.w3.org/2000/svg" xmlns:xlink="http://www.w3.org/1999/xlink" viewBox="0 0 453 246" width="453" height="246"><path d="M 57.500,83.000 C 62.040,82.743 62.000,82.500 66.500,82.000" stroke-width="4.969" stroke="black" fill="none" stroke-linecap="round"></path><path d="M 66.500,82.000 C 71.064,81.232 71.040,81.243 75.500,80.000" stroke-width="3.963" stroke="black" fill="none" stroke-linecap="round"></path><path d="M 75.500,80.000 C 79.958,78.362 80.064,78.732 84.500,77.000" stroke-width="3.709" stroke="black" fill="none" stroke-linecap="round"></path><path d="M 84.500,77.000 C 90.135,75.878 89.958,75.362 95.500,74.000" stroke-width="3.463" stroke="black" fill="none" stroke-linecap="round"></path><path d="M 95.500,74.000 C 99.989,71.974 100.135,72.378 104.500,70.000" stroke-width="3.531" stroke="black" fill="none" stroke-linecap="round"></path><path d="M 104.500,70.000 C 107.921,68.278 107.989,68.474 111.500,67.000" stroke-width="3.771" stroke="black" fill="none" stroke-linecap="round"></path><path d="M 111.500,67.000 C 115.051,66.150 114.921,65.778 118.500,65.000" stroke-width="3.887" stroke="black" fill="none" stroke-linecap="round"></path><path d="M 118.500,65.000 C 120.932,63.770 121.051,64.150 123.500,63.000" stroke-width="4.149" stroke="black" fill="none" stroke-linecap="round"></path><path d="M 92.500,70.000 C 92.300,73.258 93.000,73.000 93.500,76.000" stroke-width="5.214" stroke="black" fill="none" stroke-linecap="round"></path><path d="M 93.500,76.000 C 96.643,80.921 95.800,81.258 99.500,86.000" stroke-width="4.475" stroke="black" fill="none" stroke-linecap="round"></path><path d="M 99.500,86.000 C 101.447,88.841 101.143,88.921 102.500,92.000" stroke-width="4.104" stroke="black" fill="none" stroke-linecap="round"></path><path d="M 102.500,92.000 C 103.782,96.455 103.947,96.341 104.500,101.000" stroke-width="3.714" stroke="black" fill="none" stroke-linecap="round"></path><path d="M 104.500,101.000 C 105.272,105.986 105.282,105.955 105.500,111.000" stroke-width="3.529" stroke="black" fill="none" stroke-linecap="round"></path><path d="M 105.500,111.000 C 105.500,117.000 105.772,116.986 105.500,123.000" stroke-width="3.364" stroke="black" fill="none" stroke-linecap="round"></path><path d="M 105.500,123.000 C 106.237,128.599 105.500,128.500 105.500,134.000" stroke-width="3.400" stroke="black" fill="none" stroke-linecap="round"></path><path d="M 105.500,134.000 C 104.215,139.569 104.737,139.599 102.500,145.000" stroke-width="3.377" stroke="black" fill="none" stroke-linecap="round"></path><path d="M 102.500,145.000 C 101.501,149.285 101.215,149.069 99.500,153.000" stroke-width="3.575" stroke="black" fill="none" stroke-linecap="round"></path><path d="M 99.500,153.000 C 97.752,155.748 98.001,155.785 95.500,158.000" stroke-width="3.873" stroke="black" fill="none" stroke-linecap="round"></path><path d="M 95.500,158.000 C 92.815,161.066 92.752,160.748 89.500,163.000" stroke-width="3.807" stroke="black" fill="none" stroke-linecap="round"></path><path d="M 89.500,163.000 C 86.591,164.558 86.815,164.566 83.500,165.000" stroke-width="3.962" stroke="black" fill="none" stroke-linecap="round"></path><path d="M 83.500,165.000 C 79.476,164.716 79.591,165.558 75.500,165.000" stroke-width="3.865" stroke="black" fill="none" stroke-linecap="round"></path><path d="M 75.500,165.000 C 72.525,165.798 72.476,165.216 69.500,166.000" stroke-width="4.055" stroke="black" fill="none" stroke-linecap="round"></path><path d="M 69.500,166.000 C 64.420,167.400 65.025,166.298 60.500,166.000" stroke-width="4.340" stroke="black" fill="none" stroke-linecap="round"></path><path d="M 60.500,166.000 C 56.852,163.975 57.420,164.900 55.500,161.000" stroke-width="4.523" stroke="black" fill="none" stroke-linecap="round"></path><path d="M 156.500,126.000 C 153.670,122.000 153.500,124.000 150.500,122.000" stroke-width="5.034" stroke="black" fill="none" stroke-linecap="round"></path><path d="M 150.500,122.000 C 145.742,123.576 146.170,122.000 141.500,126.000" stroke-width="4.544" stroke="black" fill="none" stroke-linecap="round"></path><path d="M 141.500,126.000 C 138.756,127.744 138.742,127.576 136.500,130.000" stroke-width="4.260" stroke="black" fill="none" stroke-linecap="round"></path><path d="M 136.500,130.000 C 132.777,133.829 132.756,133.744 129.500,138.000" stroke-width="3.603" stroke="black" fill="none" stroke-linecap="round"></path><path d="M 129.500,138.000 C 127.098,140.804 127.277,140.829 125.500,144.000" stroke-width="3.839" stroke="black" fill="none" stroke-linecap="round"></path><path d="M 125.500,144.000 C 123.913,146.905 124.098,146.804 123.500,150.000" stroke-width="4.060" stroke="black" fill="none" stroke-linecap="round"></path><path d="M 123.500,150.000 C 120.765,157.047 122.913,154.405 123.500,159.000" stroke-width="4.341" stroke="black" fill="none" stroke-linecap="round"></path><path d="M 123.500,159.000 C 131.005,161.412 127.765,162.047 137.500,160.000" stroke-width="3.375" stroke="black" fill="none" stroke-linecap="round"></path><path d="M 137.500,160.000 C 142.465,157.530 142.505,158.912 146.500,154.000" stroke-width="3.362" stroke="black" fill="none" stroke-linecap="round"></path><path d="M 146.500,154.000 C 150.041,150.035 150.465,150.530 153.500,146.000" stroke-width="3.374" stroke="black" fill="none" stroke-linecap="round"></path><path d="M 153.500,146.000 C 155.890,142.900 156.041,143.035 158.500,140.000" stroke-width="4.147" stroke="black" fill="none" stroke-linecap="round"></path><path d="M 158.500,140.000 C 160.899,138.287 160.390,137.900 162.500,136.000" stroke-width="4.342" stroke="black" fill="none" stroke-linecap="round"></path><path d="M 162.500,136.000 C 164.708,130.000 164.399,133.287 165.500,130.000" stroke-width="4.070" stroke="black" fill="none" stroke-linecap="round"></path><path d="M 165.500,130.000 C 165.500,133.000 166.208,130.000 165.500,136.000" stroke-width="4.664" stroke="black" fill="none" stroke-linecap="round"></path><path d="M 165.500,136.000 C 165.220,140.520 165.500,140.500 165.500,145.000" stroke-width="3.865" stroke="black" fill="none" stroke-linecap="round"></path><path d="M 165.500,145.000 C 166.230,148.484 165.720,148.520 166.500,152.000" stroke-width="3.940" stroke="black" fill="none" stroke-linecap="round"></path><path d="M 166.500,152.000 C 166.252,155.021 166.730,154.984 166.500,158.000" stroke-width="4.044" stroke="black" fill="none" stroke-linecap="round"></path><path d="M 166.500,158.000 C 166.038,161.564 166.752,161.021 167.500,164.000" stroke-width="4.066" stroke="black" fill="none" stroke-linecap="round"></path><path d="M 167.500,164.000 C 170.406,169.197 169.038,166.564 172.500,168.000" stroke-width="4.497" stroke="black" fill="none" stroke-linecap="round"></path><path d="M 232.500,65.000 C 229.817,67.708 230.500,68.000 228.500,71.000" stroke-width="4.791" stroke="black" fill="none" stroke-linecap="round"></path><path d="M 228.500,71.000 C 227.894,75.619 226.817,75.208 226.500,80.000" stroke-width="3.928" stroke="black" fill="none" stroke-linecap="round"></path><path d="M 226.500,80.000 C 224.046,86.518 224.394,86.619 221.500,93.000" stroke-width="3.303" stroke="black" fill="none" stroke-linecap="round"></path><path d="M 221.500,93.000 C 218.205,100.392 218.546,100.518 215.500,108.000" stroke-width="3.621" stroke="black" fill="none" stroke-linecap="round"></path><path d="M 215.500,108.000 C 209.974,122.857 210.205,122.892 205.500,138.000" stroke-width="2.279" stroke="black" fill="none" stroke-linecap="round"></path><path d="M 205.500,138.000 C 203.725,144.955 203.474,144.857 202.500,152.000" stroke-width="3.242" stroke="black" fill="none" stroke-linecap="round"></path><path d="M 202.500,152.000 C 201.782,156.488 201.725,156.455 201.500,161.000" stroke-width="3.479" stroke="black" fill="none" stroke-linecap="round"></path><path d="M 201.500,161.000 C 201.500,164.500 201.282,164.488 201.500,168.000" stroke-width="3.772" stroke="black" fill="none" stroke-linecap="round"></path><path d="M 206.500,133.000 C 202.015,136.029 204.500,135.000 202.500,137.000" stroke-width="5.287" stroke="black" fill="none" stroke-linecap="round"></path><path d="M 202.500,137.000 C 205.582,137.584 203.015,138.029 208.500,137.000" stroke-width="4.442" stroke="black" fill="none" stroke-linecap="round"></path><path d="M 208.500,137.000 C 215.599,135.300 215.582,135.584 222.500,133.000" stroke-width="3.276" stroke="black" fill="none" stroke-linecap="round"></path><path d="M 222.500,133.000 C 230.730,130.509 230.599,130.300 238.500,127.000" stroke-width="2.932" stroke="black" fill="none" stroke-linecap="round"></path><path d="M 238.500,127.000 C 246.173,123.295 246.230,123.509 253.500,119.000" stroke-width="2.904" stroke="black" fill="none" stroke-linecap="round"></path><path d="M 253.500,119.000 C 260.577,114.615 260.673,114.795 267.500,110.000" stroke-width="2.800" stroke="black" fill="none" stroke-linecap="round"></path><path d="M 267.500,110.000 C 274.318,105.881 274.077,105.615 280.500,101.000" stroke-width="2.879" stroke="black" fill="none" stroke-linecap="round"></path><path d="M 208.500,147.000 C 212.500,148.500 212.500,148.500 216.500,150.000" stroke-width="4.978" stroke="black" fill="none" stroke-linecap="round"></path><path d="M 216.500,150.000 C 220.500,151.500 220.500,151.500 224.500,153.000" stroke-width="4.044" stroke="black" fill="none" stroke-linecap="round"></path><path d="M 224.500,153.000 C 228.519,154.452 228.500,154.500 232.500,156.000" stroke-width="3.829" stroke="black" fill="none" stroke-linecap="round"></path><path d="M 232.500,156.000 C 237.441,158.160 237.519,157.952 242.500,160.000" stroke-width="3.490" stroke="black" fill="none" stroke-linecap="round"></path><path d="M 242.500,160.000 C 248.500,162.000 248.441,162.160 254.500,164.000" stroke-width="3.916" stroke="black" fill="none" stroke-linecap="round"></path><path d="M 254.500,164.000 C 257.415,165.525 257.500,165.000 260.500,166.000" stroke-width="3.944" stroke="black" fill="none" stroke-linecap="round"></path><path d="M 260.500,166.000 C 264.633,167.529 263.915,166.525 267.500,166.000" stroke-width="4.422" stroke="black" fill="none" stroke-linecap="round"></path><path d="M 267.500,166.000 C 272.016,162.414 272.133,163.529 275.500,158.000" stroke-width="4.256" stroke="black" fill="none" stroke-linecap="round"></path><path d="M 281.500,135.000 C 284.591,140.992 285.500,139.000 289.500,143.000" stroke-width="4.969" stroke="black" fill="none" stroke-linecap="round"></path><path d="M 289.500,143.000 C 296.491,143.758 295.591,145.492 303.500,144.000" stroke-width="3.478" stroke="black" fill="none" stroke-linecap="round"></path><path d="M 303.500,144.000 C 311.129,144.983 310.991,144.258 318.500,144.000" stroke-width="3.120" stroke="black" fill="none" stroke-linecap="round"></path><path d="M 318.500,144.000 C 326.441,143.025 326.129,142.983 333.500,140.000" stroke-width="2.930" stroke="black" fill="none" stroke-linecap="round"></path><path d="M 333.500,140.000 C 340.502,136.635 340.441,137.025 346.500,132.000" stroke-width="3.009" stroke="black" fill="none" stroke-linecap="round"></path><path d="M 346.500,132.000 C 351.521,127.898 351.502,128.135 355.500,123.000" stroke-width="3.151" stroke="black" fill="none" stroke-linecap="round"></path><path d="M 355.500,123.000 C 358.429,119.747 358.021,119.898 359.500,116.000" stroke-width="3.490" stroke="black" fill="none" stroke-linecap="round"></path><path d="M 359.500,116.000 C 360.545,112.134 360.429,112.747 359.500,109.000" stroke-width="3.776" stroke="black" fill="none" stroke-linecap="round"></path><path d="M 359.500,109.000 C 358.490,104.000 358.545,106.134 355.500,104.000" stroke-width="3.988" stroke="black" fill="none" stroke-linecap="round"></path><path d="M 355.500,104.000 C 336.787,103.571 338.990,104.000 320.500,109.000" stroke-width="3.039" stroke="black" fill="none" stroke-linecap="round"></path><path d="M 320.500,109.000 C 311.481,114.019 311.287,112.071 304.500,121.000" stroke-width="2.706" stroke="black" fill="none" stroke-linecap="round"></path><path d="M 304.500,121.000 C 297.884,126.664 298.981,126.519 295.500,134.000" stroke-width="3.390" stroke="black" fill="none" stroke-linecap="round"></path><path d="M 295.500,134.000 C 291.145,147.876 291.384,146.664 291.500,161.000" stroke-width="2.352" stroke="black" fill="none" stroke-linecap="round"></path><path d="M 291.500,161.000 C 292.554,167.492 291.645,166.376 296.500,171.000" stroke-width="2.995" stroke="black" fill="none" stroke-linecap="round"></path><path d="M 296.500,171.000 C 302.621,175.541 301.554,175.492 309.500,177.000" stroke-width="3.568" stroke="black" fill="none" stroke-linecap="round"></path><path d="M 309.500,177.000 C 319.538,178.463 319.121,179.041 329.500,178.000" stroke-width="2.882" stroke="black" fill="none" stroke-linecap="round"></path><path d="M 329.500,178.000 C 341.449,178.123 341.038,177.463 352.500,175.000" stroke-width="2.445" stroke="black" fill="none" stroke-linecap="round"></path><path d="M 352.500,175.000 C 364.481,170.894 364.449,171.623 375.500,165.000" stroke-width="2.322" stroke="black" fill="none" stroke-linecap="round"></path><path d="M 375.500,165.000 C 385.806,158.924 385.981,159.394 395.500,152.000" stroke-width="2.277" stroke="black" fill="none" stroke-linecap="round"></path><path d="M 395.500,152.000 C 403.054,146.067 403.306,146.424 410.500,140.000" stroke-width="2.520" stroke="black" fill="none" stroke-linecap="round"></path></svg>