<svg xmlns="http://www.w3.org/2000/svg" xmlns:xlink="http://www.w3.org/1999/xlink" viewBox="0 0 453 246" width="453" height="246"><path d="M 104.500,122.000 C 102.228,119.839 102.000,120.500 99.500,119.000" stroke-width="5.167" stroke="black" fill="none" stroke-linecap="round"></path><path d="M 99.500,119.000 C 95.397,118.899 95.728,117.839 91.500,118.000" stroke-width="4.753" stroke="black" fill="none" stroke-linecap="round"></path><path d="M 91.500,118.000 C 89.000,117.000 88.897,117.399 86.500,116.000" stroke-width="4.358" stroke="black" fill="none" stroke-linecap="round"></path><path d="M 86.500,116.000 C 83.904,115.202 84.000,115.000 81.500,114.000" stroke-width="4.297" stroke="black" fill="none" stroke-linecap="round"></path><path d="M 81.500,114.000 C 76.695,111.904 76.904,111.702 72.500,109.000" stroke-width="4.332" stroke="black" fill="none" stroke-linecap="round"></path><path d="M 72.500,109.000 C 67.905,106.785 70.195,107.404 68.500,105.000" stroke-width="4.911" stroke="black" fill="none" stroke-linecap="round"></path><path d="M 68.500,105.000 C 71.858,102.276 69.405,102.285 75.500,100.000" stroke-width="5.084" stroke="black" fill="none" stroke-linecap="round"></path><path d="M 75.500,100.000 C 80.069,97.618 79.858,97.276 84.500,95.000" stroke-width="3.719" stroke="black" fill="none" stroke-linecap="round"></path><path d="M 84.500,95.000 C 91.000,91.000 91.069,91.118 97.500,87.000" stroke-width="3.278" stroke="black" fill="none" stroke-linecap="round"></path><path d="M 97.500,87.000 C 104.042,83.066 104.000,83.000 110.500,79.000" stroke-width="2.988" stroke="black" fill="none" stroke-linecap="round"></path><path d="M 110.500,79.000 C 117.346,74.239 117.542,74.566 124.500,70.000" stroke-width="2.942" stroke="black" fill="none" stroke-linecap="round"></path><path d="M 124.500,70.000 C 131.075,66.632 130.846,66.239 137.500,63.000" stroke-width="2.930" stroke="black" fill="none" stroke-linecap="round"></path><path d="M 137.500,63.000 C 142.421,59.857 142.575,60.132 147.500,57.000" stroke-width="3.149" stroke="black" fill="none" stroke-linecap="round"></path><path d="M 147.500,57.000 C 150.449,55.387 150.421,55.357 153.500,54.000" stroke-width="3.720" stroke="black" fill="none" stroke-linecap="round"></path><path d="M 153.500,54.000 C 156.750,51.250 155.949,52.887 158.500,52.000" stroke-width="4.049" stroke="black" fill="none" stroke-linecap="round"></path><path d="M 158.500,52.000 C 161.351,54.731 160.250,52.750 160.500,57.000" stroke-width="4.795" stroke="black" fill="none" stroke-linecap="round"></path><path d="M 160.500,57.000 C 156.689,62.647 158.351,62.731 152.500,68.000" stroke-width="3.415" stroke="black" fill="none" stroke-linecap="round"></path><path d="M 152.500,68.000 C 147.112,73.711 147.689,74.147 142.500,80.000" stroke-width="3.062" stroke="black" fill="none" stroke-linecap="round"></path><path d="M 142.500,80.000 C 136.901,89.295 136.112,88.711 130.500,98.000" stroke-width="2.801" stroke="black" fill="none" stroke-linecap="round"></path><path d="M 130.500,98.000 C 124.168,106.142 124.401,106.295 117.500,114.000" stroke-width="2.615" stroke="black" fill="none" stroke-linecap="round"></path><path d="M 117.500,114.000 C 109.983,122.485 110.168,122.642 102.500,131.000" stroke-width="2.407" stroke="black" fill="none" stroke-linecap="round"></path><path d="M 102.500,131.000 C 95.874,139.363 95.483,138.985 88.500,147.000" stroke-width="2.471" stroke="black" fill="none" stroke-linecap="round"></path><path d="M 88.500,147.000 C 81.652,153.673 81.874,153.863 74.500,160.000" stroke-width="2.535" stroke="black" fill="none" stroke-linecap="round"></path><path d="M 74.500,160.000 C 68.521,165.026 68.652,165.173 62.500,170.000" stroke-width="2.800" stroke="black" fill="none" stroke-linecap="round"></path><path d="M 62.500,170.000 C 57.049,174.561 57.021,174.526 51.500,179.000" stroke-width="2.980" stroke="black" fill="none" stroke-linecap="round"></path><path d="M 51.500,179.000 C 47.186,182.778 47.049,182.561 42.500,186.000" stroke-width="3.240" stroke="black" fill="none" stroke-linecap="round"></path><path d="M 42.500,186.000 C 39.048,188.090 39.186,188.278 35.500,190.000" stroke-width="3.522" stroke="black" fill="none" stroke-linecap="round"></path><path d="M 35.500,190.000 C 32.551,191.613 32.548,191.590 29.500,193.000" stroke-width="3.865" stroke="black" fill="none" stroke-linecap="round"></path><path d="M 29.500,193.000 C 27.101,194.527 27.051,194.113 24.500,195.000" stroke-width="4.099" stroke="black" fill="none" stroke-linecap="round"></path><path d="M 24.500,195.000 C 20.000,196.500 21.601,195.527 18.500,195.000" stroke-width="4.526" stroke="black" fill="none" stroke-linecap="round"></path><path d="M 18.500,195.000 C 17.580,191.761 17.000,193.500 18.500,189.000" stroke-width="4.687" stroke="black" fill="none" stroke-linecap="round"></path><path d="M 18.500,189.000 C 20.139,183.781 20.080,184.261 23.500,180.000" stroke-width="3.724" stroke="black" fill="none" stroke-linecap="round"></path><path d="M 23.500,180.000 C 29.124,175.643 28.139,174.781 34.500,171.000" stroke-width="3.169" stroke="black" fill="none" stroke-linecap="round"></path><path d="M 34.500,171.000 C 39.685,165.604 40.124,166.143 45.500,161.000" stroke-width="3.656" stroke="black" fill="none" stroke-linecap="round"></path><path d="M 45.500,161.000 C 51.808,156.202 51.685,156.104 58.500,152.000" stroke-width="3.035" stroke="black" fill="none" stroke-linecap="round"></path><path d="M 58.500,152.000 C 73.226,142.485 73.308,142.702 88.500,134.000" stroke-width="2.150" stroke="black" fill="none" stroke-linecap="round"></path><path d="M 88.500,134.000 C 95.823,130.071 95.726,129.985 103.500,127.000" stroke-width="3.045" stroke="black" fill="none" stroke-linecap="round"></path><path d="M 103.500,127.000 C 116.048,122.625 115.823,122.071 128.500,118.000" stroke-width="2.328" stroke="black" fill="none" stroke-linecap="round"></path><path d="M 128.500,118.000 C 133.403,115.699 133.548,116.125 138.500,114.000" stroke-width="3.088" stroke="black" fill="none" stroke-linecap="round"></path><path d="M 138.500,114.000 C 142.601,113.300 142.403,112.699 146.500,112.000" stroke-width="3.500" stroke="black" fill="none" stroke-linecap="round"></path><path d="M 146.500,112.000 C 152.901,110.198 150.101,110.800 153.500,109.000" stroke-width="4.186" stroke="black" fill="none" stroke-linecap="round"></path><path d="M 153.500,109.000 C 151.030,108.000 153.901,108.198 148.500,108.000" stroke-width="4.771" stroke="black" fill="none" stroke-linecap="round"></path><path d="M 148.500,108.000 C 141.691,107.385 142.030,108.000 135.500,109.000" stroke-width="4.254" stroke="black" fill="none" stroke-linecap="round"></path><path d="M 135.500,109.000 C 129.973,110.769 130.191,110.385 125.500,114.000" stroke-width="3.673" stroke="black" fill="none" stroke-linecap="round"></path><path d="M 125.500,114.000 C 121.734,118.265 120.973,117.269 117.500,122.000" stroke-width="3.400" stroke="black" fill="none" stroke-linecap="round"></path><path d="M 117.500,122.000 C 112.899,125.377 113.234,125.765 108.500,129.000" stroke-width="3.377" stroke="black" fill="none" stroke-linecap="round"></path><path d="M 108.500,129.000 C 104.244,132.256 104.399,132.377 100.500,136.000" stroke-width="3.535" stroke="black" fill="none" stroke-linecap="round"></path><path d="M 100.500,136.000 C 98.130,138.284 98.244,138.256 96.500,141.000" stroke-width="3.943" stroke="black" fill="none" stroke-linecap="round"></path><path d="M 96.500,141.000 C 94.973,143.399 95.130,143.284 94.500,146.000" stroke-width="4.125" stroke="black" fill="none" stroke-linecap="round"></path><path d="M 94.500,146.000 C 93.149,150.108 93.973,148.899 94.500,152.000" stroke-width="4.550" stroke="black" fill="none" stroke-linecap="round"></path><path d="M 94.500,152.000 C 96.970,152.805 95.649,153.608 99.500,153.000" stroke-width="4.347" stroke="black" fill="none" stroke-linecap="round"></path><path d="M 99.500,153.000 C 103.500,153.000 103.470,153.305 107.500,153.000" stroke-width="4.111" stroke="black" fill="none" stroke-linecap="round"></path><path d="M 107.500,153.000 C 112.779,154.180 112.500,153.000 117.500,153.000" stroke-width="3.695" stroke="black" fill="none" stroke-linecap="round"></path><path d="M 117.500,153.000 C 122.671,150.795 122.779,151.680 127.500,148.000" stroke-width="3.479" stroke="black" fill="none" stroke-linecap="round"></path><path d="M 127.500,148.000 C 132.181,145.239 132.171,145.295 136.500,142.000" stroke-width="3.503" stroke="black" fill="none" stroke-linecap="round"></path><path d="M 136.500,142.000 C 140.252,139.248 140.181,139.239 143.500,136.000" stroke-width="3.603" stroke="black" fill="none" stroke-linecap="round"></path><path d="M 143.500,136.000 C 146.402,133.263 146.252,133.248 148.500,130.000" stroke-width="3.775" stroke="black" fill="none" stroke-linecap="round"></path><path d="M 148.500,130.000 C 153.523,124.813 150.902,126.263 152.500,122.000" stroke-width="4.208" stroke="black" fill="none" stroke-linecap="round"></path><path d="M 152.500,122.000 C 148.110,118.699 151.523,119.313 144.500,119.000" stroke-width="4.678" stroke="black" fill="none" stroke-linecap="round"></path><path d="M 144.500,119.000 C 142.500,121.000 142.110,119.199 140.500,123.000" stroke-width="4.392" stroke="black" fill="none" stroke-linecap="round"></path><path d="M 140.500,123.000 C 137.692,125.260 138.000,125.500 135.500,128.000" stroke-width="4.262" stroke="black" fill="none" stroke-linecap="round"></path><path d="M 135.500,128.000 C 133.612,130.332 133.692,130.260 132.500,133.000" stroke-width="4.163" stroke="black" fill="none" stroke-linecap="round"></path><path d="M 132.500,133.000 C 129.404,138.081 131.112,136.332 130.500,140.000" stroke-width="4.465" stroke="black" fill="none" stroke-linecap="round"></path><path d="M 130.500,140.000 C 133.864,141.153 131.404,141.581 136.500,140.000" stroke-width="4.910" stroke="black" fill="none" stroke-linecap="round"></path><path d="M 136.500,140.000 C 141.423,136.385 141.864,137.653 146.500,133.000" stroke-width="3.565" stroke="black" fill="none" stroke-linecap="round"></path><path d="M 146.500,133.000 C 153.444,128.410 153.423,128.385 160.500,124.000" stroke-width="3.685" stroke="black" fill="none" stroke-linecap="round"></path><path d="M 160.500,124.000 C 169.944,119.138 169.444,118.410 178.500,113.000" stroke-width="2.843" stroke="black" fill="none" stroke-linecap="round"></path><path d="M 178.500,113.000 C 193.053,102.637 192.944,102.638 206.500,91.000" stroke-width="2.100" stroke="black" fill="none" stroke-linecap="round"></path><path d="M 206.500,91.000 C 218.755,79.745 219.053,80.137 230.500,68.000" stroke-width="2.547" stroke="black" fill="none" stroke-linecap="round"></path><path d="M 230.500,68.000 C 234.394,63.400 234.755,63.745 238.500,59.000" stroke-width="3.072" stroke="black" fill="none" stroke-linecap="round"></path><path d="M 238.500,59.000 C 241.833,56.260 241.394,55.900 244.500,53.000" stroke-width="3.471" stroke="black" fill="none" stroke-linecap="round"></path><path d="M 244.500,53.000 C 249.127,47.750 246.333,50.760 247.500,48.000" stroke-width="3.903" stroke="black" fill="none" stroke-linecap="round"></path><path d="M 247.500,48.000 C 238.834,50.390 242.627,48.750 231.500,55.000" stroke-width="4.260" stroke="black" fill="none" stroke-linecap="round"></path><path d="M 231.500,55.000 C 221.754,62.207 221.334,61.390 212.500,70.000" stroke-width="2.761" stroke="black" fill="none" stroke-linecap="round"></path><path d="M 212.500,70.000 C 202.757,78.243 202.754,78.207 193.500,87.000" stroke-width="2.443" stroke="black" fill="none" stroke-linecap="round"></path><path d="M 193.500,87.000 C 184.218,95.737 184.257,95.743 175.500,105.000" stroke-width="2.556" stroke="black" fill="none" stroke-linecap="round"></path><path d="M 175.500,105.000 C 168.008,112.632 168.218,112.737 161.500,121.000" stroke-width="2.456" stroke="black" fill="none" stroke-linecap="round"></path><path d="M 161.500,121.000 C 157.521,126.261 157.508,126.132 154.500,132.000" stroke-width="2.924" stroke="black" fill="none" stroke-linecap="round"></path><path d="M 154.500,132.000 C 149.957,136.913 152.521,135.761 151.500,140.000" stroke-width="3.997" stroke="black" fill="none" stroke-linecap="round"></path><path d="M 151.500,140.000 C 156.528,147.283 153.957,144.913 162.500,148.000" stroke-width="3.344" stroke="black" fill="none" stroke-linecap="round"></path><path d="M 162.500,148.000 C 170.146,146.689 169.028,148.783 176.500,143.000" stroke-width="3.096" stroke="black" fill="none" stroke-linecap="round"></path><path d="M 176.500,143.000 C 185.311,136.868 185.646,137.689 193.500,130.000" stroke-width="2.579" stroke="black" fill="none" stroke-linecap="round"></path><path d="M 193.500,130.000 C 200.316,123.286 200.811,123.868 207.500,117.000" stroke-width="2.627" stroke="black" fill="none" stroke-linecap="round"></path><path d="M 207.500,117.000 C 212.284,112.682 212.316,112.786 217.500,109.000" stroke-width="3.009" stroke="black" fill="none" stroke-linecap="round"></path><path d="M 217.500,109.000 C 223.750,104.250 220.784,106.682 224.500,105.000" stroke-width="3.486" stroke="black" fill="none" stroke-linecap="round"></path><path d="M 224.500,105.000 C 223.180,109.038 225.250,105.750 220.500,112.000" stroke-width="4.286" stroke="black" fill="none" stroke-linecap="round"></path><path d="M 220.500,112.000 C 212.748,118.752 213.680,119.538 205.500,126.000" stroke-width="2.902" stroke="black" fill="none" stroke-linecap="round"></path><path d="M 205.500,126.000 C 200.770,130.815 200.748,130.752 196.500,136.000" stroke-width="3.064" stroke="black" fill="none" stroke-linecap="round"></path><path d="M 196.500,136.000 C 193.653,139.310 193.770,139.315 191.500,143.000" stroke-width="3.505" stroke="black" fill="none" stroke-linecap="round"></path><path d="M 191.500,143.000 C 188.413,146.913 190.153,145.310 189.500,148.000" stroke-width="4.353" stroke="black" fill="none" stroke-linecap="round"></path><path d="M 189.500,148.000 C 193.391,149.332 190.913,149.413 196.500,148.000" stroke-width="4.035" stroke="black" fill="none" stroke-linecap="round"></path><path d="M 196.500,148.000 C 203.430,143.388 203.891,144.832 210.500,139.000" stroke-width="3.119" stroke="black" fill="none" stroke-linecap="round"></path><path d="M 210.500,139.000 C 217.937,134.391 217.930,134.388 225.500,130.000" stroke-width="2.868" stroke="black" fill="none" stroke-linecap="round"></path><path d="M 225.500,130.000 C 233.476,125.458 233.437,125.391 241.500,121.000" stroke-width="2.752" stroke="black" fill="none" stroke-linecap="round"></path><path d="M 241.500,121.000 C 246.902,117.799 246.976,117.958 252.500,115.000" stroke-width="3.075" stroke="black" fill="none" stroke-linecap="round"></path><path d="M 252.500,115.000 C 258.730,111.230 255.902,113.299 259.500,112.000" stroke-width="3.600" stroke="black" fill="none" stroke-linecap="round"></path><path d="M 259.500,112.000 C 257.914,115.367 260.230,112.730 255.500,118.000" stroke-width="4.450" stroke="black" fill="none" stroke-linecap="round"></path><path d="M 255.500,118.000 C 251.586,120.633 252.414,121.367 248.500,124.000" stroke-width="3.794" stroke="black" fill="none" stroke-linecap="round"></path><path d="M 248.500,124.000 C 246.435,126.959 246.086,126.633 244.500,130.000" stroke-width="3.902" stroke="black" fill="none" stroke-linecap="round"></path><path d="M 244.500,130.000 C 240.591,133.864 242.935,132.459 241.500,135.000" stroke-width="4.627" stroke="black" fill="none" stroke-linecap="round"></path><path d="M 241.500,135.000 C 245.247,135.929 242.591,136.364 248.500,135.000" stroke-width="4.103" stroke="black" fill="none" stroke-linecap="round"></path><path d="M 248.500,135.000 C 256.462,129.350 252.247,133.929 255.500,131.000" stroke-width="4.404" stroke="black" fill="none" stroke-linecap="round"></path><path d="M 255.500,131.000 C 247.459,138.433 252.962,135.350 241.500,147.000" stroke-width="4.448" stroke="black" fill="none" stroke-linecap="round"></path><path d="M 241.500,147.000 C 238.225,152.216 239.459,149.933 239.500,154.000" stroke-width="4.762" stroke="black" fill="none" stroke-linecap="round"></path><path d="M 239.500,154.000 C 243.417,155.413 240.725,155.716 246.500,154.000" stroke-width="4.240" stroke="black" fill="none" stroke-linecap="round"></path><path d="M 246.500,154.000 C 255.269,148.879 255.417,149.913 263.500,143.000" stroke-width="2.835" stroke="black" fill="none" stroke-linecap="round"></path><path d="M 263.500,143.000 C 272.765,136.318 272.769,136.379 281.500,129.000" stroke-width="2.578" stroke="black" fill="none" stroke-linecap="round"></path><path d="M 281.500,129.000 C 291.125,120.635 291.265,120.818 300.500,112.000" stroke-width="2.398" stroke="black" fill="none" stroke-linecap="round"></path><path d="M 300.500,112.000 C 309.844,102.828 310.125,103.135 319.500,94.000" stroke-width="2.207" stroke="black" fill="none" stroke-linecap="round"></path><path d="M 319.500,94.000 C 327.704,87.218 327.344,86.828 335.500,80.000" stroke-width="2.404" stroke="black" fill="none" stroke-linecap="round"></path><path d="M 335.500,80.000 C 341.000,74.500 341.204,74.718 346.500,69.000" stroke-width="2.701" stroke="black" fill="none" stroke-linecap="round"></path><path d="M 346.500,69.000 C 351.000,64.500 351.000,64.500 355.500,60.000" stroke-width="3.042" stroke="black" fill="none" stroke-linecap="round"></path><path d="M 355.500,60.000 C 358.500,57.000 358.500,57.000 361.500,54.000" stroke-width="3.507" stroke="black" fill="none" stroke-linecap="round"></path><path d="M 361.500,54.000 C 366.496,49.288 363.500,52.000 365.500,50.000" stroke-width="3.978" stroke="black" fill="none" stroke-linecap="round"></path><path d="M 365.500,50.000 C 359.397,53.899 362.996,51.788 354.500,59.000" stroke-width="4.516" stroke="black" fill="none" stroke-linecap="round"></path><path d="M 354.500,59.000 C 348.283,67.247 347.397,66.399 341.500,75.000" stroke-width="2.926" stroke="black" fill="none" stroke-linecap="round"></path><path d="M 341.500,75.000 C 334.008,83.008 334.283,83.247 326.500,91.000" stroke-width="2.515" stroke="black" fill="none" stroke-linecap="round"></path><path d="M 326.500,91.000 C 318.492,99.492 318.508,99.508 310.500,108.000" stroke-width="2.412" stroke="black" fill="none" stroke-linecap="round"></path><path d="M 310.500,108.000 C 303.121,116.117 302.992,115.992 295.500,124.000" stroke-width="2.497" stroke="black" fill="none" stroke-linecap="round"></path><path d="M 295.500,124.000 C 288.194,130.723 288.621,131.117 281.500,138.000" stroke-width="2.509" stroke="black" fill="none" stroke-linecap="round"></path><path d="M 281.500,138.000 C 276.861,143.393 276.694,143.223 272.500,149.000" stroke-width="2.820" stroke="black" fill="none" stroke-linecap="round"></path><path d="M 272.500,149.000 C 265.932,155.216 269.861,152.393 267.500,156.000" stroke-width="3.359" stroke="black" fill="none" stroke-linecap="round"></path><path d="M 267.500,156.000 C 274.368,155.491 269.932,157.216 280.500,153.000" stroke-width="4.179" stroke="black" fill="none" stroke-linecap="round"></path><path d="M 280.500,153.000 C 289.852,147.694 290.368,148.991 299.500,143.000" stroke-width="2.830" stroke="black" fill="none" stroke-linecap="round"></path><path d="M 299.500,143.000 C 308.347,138.606 308.352,138.694 317.500,135.000" stroke-width="2.967" stroke="black" fill="none" stroke-linecap="round"></path><path d="M 317.500,135.000 C 324.826,131.733 324.847,132.106 332.500,130.000" stroke-width="3.175" stroke="black" fill="none" stroke-linecap="round"></path><path d="M 332.500,130.000 C 340.476,128.617 340.326,128.233 348.500,128.000" stroke-width="2.904" stroke="black" fill="none" stroke-linecap="round"></path><path d="M 348.500,128.000 C 353.500,128.000 353.476,127.617 358.500,128.000" stroke-width="3.323" stroke="black" fill="none" stroke-linecap="round"></path><path d="M 358.500,128.000 C 363.598,125.908 362.000,128.000 365.500,128.000" stroke-width="3.760" stroke="black" fill="none" stroke-linecap="round"></path><path d="M 365.500,128.000 C 370.414,134.407 368.598,131.408 368.500,139.000" stroke-width="4.045" stroke="black" fill="none" stroke-linecap="round"></path><path d="M 368.500,139.000 C 362.861,146.647 365.414,146.407 355.500,152.000" stroke-width="3.001" stroke="black" fill="none" stroke-linecap="round"></path><path d="M 355.500,152.000 C 346.024,158.712 346.361,158.647 335.500,163.000" stroke-width="2.554" stroke="black" fill="none" stroke-linecap="round"></path><path d="M 335.500,163.000 C 318.752,169.447 319.024,169.712 301.500,174.000" stroke-width="1.924" stroke="black" fill="none" stroke-linecap="round"></path><path d="M 301.500,174.000 C 282.663,179.052 282.752,178.947 263.500,182.000" stroke-width="1.717" stroke="black" fill="none" stroke-linecap="round"></path><path d="M 263.500,182.000 C 243.552,185.045 243.663,185.052 223.500,186.000" stroke-width="1.685" stroke="black" fill="none" stroke-linecap="round"></path><path d="M 223.500,186.000 C 201.497,186.262 201.552,187.045 179.500,186.000" stroke-width="1.601" stroke="black" fill="none" stroke-linecap="round"></path><path d="M 179.500,186.000 C 159.204,187.627 159.497,185.762 139.500,185.000" stroke-width="1.654" stroke="black" fill="none" stroke-linecap="round"></path><path d="M 139.500,185.000 C 121.655,181.514 121.704,182.627 104.500,176.000" stroke-width="1.704" stroke="black" fill="none" stroke-linecap="round"></path><path d="M 104.500,176.000 C 93.255,172.664 93.655,172.514 83.500,167.000" stroke-width="2.181" stroke="black" fill="none" stroke-linecap="round"></path><path d="M 83.500,167.000 C 75.950,163.636 77.755,163.664 73.500,158.000" stroke-width="2.774" stroke="black" fill="none" stroke-linecap="round"></path><path d="M 73.500,158.000 C 70.688,150.093 70.950,152.136 73.500,144.000" stroke-width="2.984" stroke="black" fill="none" stroke-linecap="round"></path><path d="M 73.500,144.000 C 80.441,129.396 79.688,130.593 91.500,119.000" stroke-width="2.220" stroke="black" fill="none" stroke-linecap="round"></path><path d="M 91.500,119.000 C 106.617,106.454 105.441,105.896 123.500,97.000" stroke-width="1.781" stroke="black" fill="none" stroke-linecap="round"></path><path d="M 123.500,97.000 C 144.739,86.397 144.117,85.454 166.500,77.000" stroke-width="1.511" stroke="black" fill="none" stroke-linecap="round"></path><path d="M 166.500,77.000 C 188.549,66.650 188.739,67.397 211.500,59.000" stroke-width="1.520" stroke="black" fill="none" stroke-linecap="round"></path><path d="M 211.500,59.000 C 235.226,51.182 235.049,51.150 259.500,46.000" stroke-width="1.458" stroke="black" fill="none" stroke-linecap="round"></path><path d="M 259.500,46.000 C 279.905,41.017 279.726,41.682 300.500,40.000" stroke-width="1.737" stroke="black" fill="none" stroke-linecap="round"></path><path d="M 300.500,40.000 C 322.435,38.219 320.405,39.017 340.500,42.000" stroke-width="1.694" stroke="black" fill="none" stroke-linecap="round"></path><path d="M 340.500,42.000 C 344.672,45.745 343.935,42.719 343.500,49.000" stroke-width="2.772" stroke="black" fill="none" stroke-linecap="round"></path><path d="M 343.500,49.000 C 339.641,60.245 340.172,58.245 331.500,67.000" stroke-width="2.494" stroke="black" fill="none" stroke-linecap="round"></path><path d="M 331.500,67.000 C 314.661,78.798 316.141,79.745 296.500,88.000" stroke-width="1.779" stroke="black" fill="none" stroke-linecap="round"></path><path d="M 296.500,88.000 C 277.053,98.149 277.161,97.798 256.500,105.000" stroke-width="1.685" stroke="black" fill="none" stroke-linecap="round"></path><path d="M 256.500,105.000 C 234.669,111.305 235.053,112.149 212.500,116.000" stroke-width="1.668" stroke="black" fill="none" stroke-linecap="round"></path><path d="M 212.500,116.000 C 192.077,120.060 192.169,120.305 171.500,123.000" stroke-width="1.593" stroke="black" fill="none" stroke-linecap="round"></path><path d="M 171.500,123.000 C 157.025,124.987 157.077,125.060 142.500,126.000" stroke-width="1.900" stroke="black" fill="none" stroke-linecap="round"></path><path d="M 412.500,113.000 C 408.019,113.839 408.000,113.500 403.500,114.000" stroke-width="5.079" stroke="black" fill="none" stroke-linecap="round"></path><path d="M 403.500,114.000 C 393.923,114.897 394.019,114.339 384.500,114.000" stroke-width="3.176" stroke="black" fill="none" stroke-linecap="round"></path><path d="M 384.500,114.000 C 372.952,112.249 372.923,112.897 361.500,110.000" stroke-width="2.565" stroke="black" fill="none" stroke-linecap="round"></path><path d="M 361.500,110.000 C 345.030,106.354 344.952,106.749 328.500,103.000" stroke-width="2.048" stroke="black" fill="none" stroke-linecap="round"></path><path d="M 328.500,103.000 C 310.558,99.172 310.530,99.354 292.500,96.000" stroke-width="1.798" stroke="black" fill="none" stroke-linecap="round"></path><path d="M 292.500,96.000 C 273.590,92.231 273.558,92.672 254.500,90.000" stroke-width="1.745" stroke="black" fill="none" stroke-linecap="round"></path><path d="M 254.500,90.000 C 234.819,85.136 235.090,87.731 215.500,87.000" stroke-width="2.003" stroke="black" fill="none" stroke-linecap="round"></path><path d="M 215.500,87.000 C 176.522,89.993 177.819,90.636 140.500,101.000" stroke-width="1.153" stroke="black" fill="none" stroke-linecap="round"></path><path d="M 140.500,101.000 C 123.666,109.966 122.522,106.493 107.500,120.000" stroke-width="1.469" stroke="black" fill="none" stroke-linecap="round"></path></svg>