<svg xmlns="http://www.w3.org/2000/svg" xmlns:xlink="http://www.w3.org/1999/xlink" viewBox="0 0 453 246" width="453" height="246"><path d="M 77.500,85.000 C 76.545,90.228 76.000,90.000 74.500,95.000" stroke-width="4.222" stroke="black" fill="none" stroke-linecap="round"></path><path d="M 74.500,95.000 C 71.300,100.400 72.045,100.728 68.500,106.000" stroke-width="3.603" stroke="black" fill="none" stroke-linecap="round"></path><path d="M 68.500,106.000 C 65.792,112.651 65.300,112.400 62.500,119.000" stroke-width="3.134" stroke="black" fill="none" stroke-linecap="round"></path><path d="M 62.500,119.000 C 58.723,126.138 58.792,126.151 54.500,133.000" stroke-width="2.894" stroke="black" fill="none" stroke-linecap="round"></path><path d="M 54.500,133.000 C 50.370,138.918 50.723,139.138 46.500,145.000" stroke-width="2.997" stroke="black" fill="none" stroke-linecap="round"></path><path d="M 46.500,145.000 C 43.099,149.801 43.370,149.918 40.500,155.000" stroke-width="3.172" stroke="black" fill="none" stroke-linecap="round"></path><path d="M 40.500,155.000 C 38.199,159.903 38.099,159.801 36.500,165.000" stroke-width="3.357" stroke="black" fill="none" stroke-linecap="round"></path><path d="M 36.500,165.000 C 35.079,168.948 35.199,168.903 34.500,173.000" stroke-width="3.647" stroke="black" fill="none" stroke-linecap="round"></path><path d="M 75.500,75.000 C 71.827,79.739 74.000,79.500 72.500,84.000" stroke-width="4.769" stroke="black" fill="none" stroke-linecap="round"></path><path d="M 72.500,84.000 C 75.534,88.980 73.327,89.239 78.500,94.000" stroke-width="3.667" stroke="black" fill="none" stroke-linecap="round"></path><path d="M 78.500,94.000 C 82.029,99.983 82.034,99.980 85.500,106.000" stroke-width="3.182" stroke="black" fill="none" stroke-linecap="round"></path><path d="M 85.500,106.000 C 89.799,112.845 89.529,112.983 93.500,120.000" stroke-width="3.600" stroke="black" fill="none" stroke-linecap="round"></path><path d="M 93.500,120.000 C 97.339,127.361 97.299,127.345 100.500,135.000" stroke-width="3.040" stroke="black" fill="none" stroke-linecap="round"></path><path d="M 100.500,135.000 C 102.646,142.151 103.339,141.861 105.500,149.000" stroke-width="3.012" stroke="black" fill="none" stroke-linecap="round"></path><path d="M 105.500,149.000 C 107.771,154.126 107.646,154.151 110.500,159.000" stroke-width="3.269" stroke="black" fill="none" stroke-linecap="round"></path><path d="M 110.500,159.000 C 113.682,168.524 114.771,166.626 119.500,174.000" stroke-width="2.905" stroke="black" fill="none" stroke-linecap="round"></path><path d="M 119.500,174.000 C 124.931,176.926 122.182,176.524 127.500,175.000" stroke-width="3.888" stroke="black" fill="none" stroke-linecap="round"></path><path d="M 127.500,175.000 C 129.991,170.131 130.931,172.426 131.500,165.000" stroke-width="4.128" stroke="black" fill="none" stroke-linecap="round"></path><path d="M 131.500,165.000 C 132.230,161.516 132.491,161.631 132.500,158.000" stroke-width="3.967" stroke="black" fill="none" stroke-linecap="round"></path><path d="M 132.500,158.000 C 132.500,155.000 132.730,155.016 132.500,152.000" stroke-width="4.098" stroke="black" fill="none" stroke-linecap="round"></path><path d="M 132.500,152.000 C 133.586,148.607 132.500,149.000 132.500,146.000" stroke-width="4.093" stroke="black" fill="none" stroke-linecap="round"></path><path d="M 132.500,146.000 C 130.752,141.394 131.086,142.607 127.500,140.000" stroke-width="4.434" stroke="black" fill="none" stroke-linecap="round"></path><path d="M 127.500,140.000 C 123.000,140.000 123.752,138.394 118.500,140.000" stroke-width="4.403" stroke="black" fill="none" stroke-linecap="round"></path><path d="M 118.500,140.000 C 112.000,140.000 112.000,140.000 105.500,140.000" stroke-width="4.139" stroke="black" fill="none" stroke-linecap="round"></path><path d="M 105.500,140.000 C 101.953,140.432 102.000,140.000 98.500,140.000" stroke-width="3.978" stroke="black" fill="none" stroke-linecap="round"></path><path d="M 98.500,140.000 C 94.045,138.718 93.953,139.432 89.500,138.000" stroke-width="3.794" stroke="black" fill="none" stroke-linecap="round"></path><path d="M 89.500,138.000 C 84.496,137.535 84.545,137.218 79.500,137.000" stroke-width="4.142" stroke="black" fill="none" stroke-linecap="round"></path><path d="M 79.500,137.000 C 70.514,135.751 70.496,136.035 61.500,135.000" stroke-width="3.035" stroke="black" fill="none" stroke-linecap="round"></path><path d="M 61.500,135.000 C 58.500,135.000 58.514,134.751 55.500,135.000" stroke-width="3.743" stroke="black" fill="none" stroke-linecap="round"></path><path d="M 55.500,135.000 C 51.625,133.584 52.500,135.000 49.500,135.000" stroke-width="4.100" stroke="black" fill="none" stroke-linecap="round"></path><path d="M 49.500,135.000 C 46.757,137.912 47.125,136.584 46.500,141.000" stroke-width="4.486" stroke="black" fill="none" stroke-linecap="round"></path><path d="M 127.500,74.000 C 122.172,70.985 122.000,71.500 116.500,69.000" stroke-width="2.734" stroke="black" fill="none" stroke-linecap="round"></path><path d="M 116.500,69.000 C 112.057,67.480 112.172,67.485 107.500,67.000" stroke-width="3.357" stroke="black" fill="none" stroke-linecap="round"></path><path d="M 107.500,67.000 C 102.500,67.000 102.557,66.480 97.500,67.000" stroke-width="3.429" stroke="black" fill="none" stroke-linecap="round"></path><path d="M 97.500,67.000 C 92.058,65.481 92.500,67.000 87.500,67.000" stroke-width="3.558" stroke="black" fill="none" stroke-linecap="round"></path><path d="M 87.500,67.000 C 81.392,69.775 81.558,68.981 76.500,74.000" stroke-width="3.287" stroke="black" fill="none" stroke-linecap="round"></path><path d="M 76.500,74.000 C 70.184,79.400 70.392,79.275 65.500,86.000" stroke-width="2.986" stroke="black" fill="none" stroke-linecap="round"></path><path d="M 65.500,86.000 C 59.400,95.199 59.184,94.900 54.500,105.000" stroke-width="2.527" stroke="black" fill="none" stroke-linecap="round"></path><path d="M 54.500,105.000 C 49.506,115.317 49.400,115.199 45.500,126.000" stroke-width="2.437" stroke="black" fill="none" stroke-linecap="round"></path><path d="M 45.500,126.000 C 41.063,135.231 42.006,135.317 39.500,145.000" stroke-width="2.776" stroke="black" fill="none" stroke-linecap="round"></path><path d="M 39.500,145.000 C 35.451,161.317 37.063,160.231 37.500,176.000" stroke-width="2.174" stroke="black" fill="none" stroke-linecap="round"></path><path d="M 37.500,176.000 C 40.008,183.881 38.451,182.817 45.500,188.000" stroke-width="3.172" stroke="black" fill="none" stroke-linecap="round"></path><path d="M 45.500,188.000 C 53.159,194.128 52.008,192.881 61.500,194.000" stroke-width="2.906" stroke="black" fill="none" stroke-linecap="round"></path><path d="M 61.500,194.000 C 87.123,193.725 85.659,193.628 110.500,187.000" stroke-width="1.695" stroke="black" fill="none" stroke-linecap="round"></path><path d="M 110.500,187.000 C 122.875,180.570 123.623,183.225 134.500,173.000" stroke-width="1.981" stroke="black" fill="none" stroke-linecap="round"></path><path d="M 134.500,173.000 C 144.940,166.948 144.375,166.570 153.500,159.000" stroke-width="2.229" stroke="black" fill="none" stroke-linecap="round"></path><path d="M 153.500,159.000 C 159.506,153.587 158.940,153.948 162.500,147.000" stroke-width="2.711" stroke="black" fill="none" stroke-linecap="round"></path><path d="M 162.500,147.000 C 164.193,141.851 164.506,142.587 163.500,137.000" stroke-width="3.323" stroke="black" fill="none" stroke-linecap="round"></path><path d="M 163.500,137.000 C 163.472,129.783 162.693,131.351 159.500,126.000" stroke-width="3.329" stroke="black" fill="none" stroke-linecap="round"></path><path d="M 159.500,126.000 C 151.188,121.103 152.972,119.783 142.500,117.000" stroke-width="2.746" stroke="black" fill="none" stroke-linecap="round"></path><path d="M 142.500,117.000 C 133.229,112.328 133.188,112.603 123.500,109.000" stroke-width="2.538" stroke="black" fill="none" stroke-linecap="round"></path><path d="M 123.500,109.000 C 114.029,106.382 114.229,105.828 104.500,104.000" stroke-width="2.529" stroke="black" fill="none" stroke-linecap="round"></path><path d="M 104.500,104.000 C 98.069,101.896 98.029,102.382 91.500,101.000" stroke-width="2.935" stroke="black" fill="none" stroke-linecap="round"></path><path d="M 91.500,101.000 C 86.526,99.579 87.069,100.396 82.500,101.000" stroke-width="3.418" stroke="black" fill="none" stroke-linecap="round"></path><path d="M 125.500,165.000 C 128.519,164.596 128.500,164.500 131.500,164.000" stroke-width="5.139" stroke="black" fill="none" stroke-linecap="round"></path><path d="M 131.500,164.000 C 136.359,163.911 136.019,163.096 140.500,162.000" stroke-width="4.056" stroke="black" fill="none" stroke-linecap="round"></path><path d="M 140.500,162.000 C 149.233,157.362 149.359,157.911 157.500,152.000" stroke-width="2.842" stroke="black" fill="none" stroke-linecap="round"></path><path d="M 157.500,152.000 C 167.769,145.357 167.733,145.362 177.500,138.000" stroke-width="2.447" stroke="black" fill="none" stroke-linecap="round"></path><path d="M 177.500,138.000 C 187.879,129.345 188.269,129.857 198.500,121.000" stroke-width="2.248" stroke="black" fill="none" stroke-linecap="round"></path><path d="M 198.500,121.000 C 209.048,113.063 208.879,112.845 219.500,105.000" stroke-width="2.159" stroke="black" fill="none" stroke-linecap="round"></path><path d="M 219.500,105.000 C 226.146,98.903 226.548,99.563 233.500,94.000" stroke-width="2.540" stroke="black" fill="none" stroke-linecap="round"></path><path d="M 233.500,94.000 C 240.803,89.180 236.646,91.903 240.500,91.000" stroke-width="3.387" stroke="black" fill="none" stroke-linecap="round"></path><path d="M 240.500,91.000 C 236.573,98.898 239.803,95.180 231.500,106.000" stroke-width="3.585" stroke="black" fill="none" stroke-linecap="round"></path><path d="M 231.500,106.000 C 223.623,116.101 224.073,116.398 215.500,126.000" stroke-width="2.528" stroke="black" fill="none" stroke-linecap="round"></path><path d="M 215.500,126.000 C 207.138,135.223 207.623,135.601 199.500,145.000" stroke-width="2.410" stroke="black" fill="none" stroke-linecap="round"></path><path d="M 199.500,145.000 C 194.652,151.294 194.638,151.223 190.500,158.000" stroke-width="2.689" stroke="black" fill="none" stroke-linecap="round"></path><path d="M 190.500,158.000 C 185.929,162.857 188.152,161.794 186.500,166.000" stroke-width="3.357" stroke="black" fill="none" stroke-linecap="round"></path><path d="M 186.500,166.000 C 189.605,169.965 186.929,168.357 192.500,169.000" stroke-width="4.208" stroke="black" fill="none" stroke-linecap="round"></path><path d="M 192.500,169.000 C 201.622,163.691 201.605,165.965 210.500,158.000" stroke-width="2.928" stroke="black" fill="none" stroke-linecap="round"></path><path d="M 210.500,158.000 C 220.817,150.708 221.122,151.191 231.500,144.000" stroke-width="2.363" stroke="black" fill="none" stroke-linecap="round"></path><path d="M 231.500,144.000 C 242.337,137.201 242.317,137.208 253.500,131.000" stroke-width="2.281" stroke="black" fill="none" stroke-linecap="round"></path><path d="M 253.500,131.000 C 260.333,127.071 260.337,127.201 267.500,124.000" stroke-width="2.746" stroke="black" fill="none" stroke-linecap="round"></path><path d="M 267.500,124.000 C 273.163,120.440 270.833,122.571 274.500,122.000" stroke-width="3.444" stroke="black" fill="none" stroke-linecap="round"></path><path d="M 274.500,122.000 C 275.581,127.135 276.163,123.940 273.500,131.000" stroke-width="4.087" stroke="black" fill="none" stroke-linecap="round"></path><path d="M 273.500,131.000 C 266.339,139.087 268.581,140.135 260.500,148.000" stroke-width="2.745" stroke="black" fill="none" stroke-linecap="round"></path><path d="M 260.500,148.000 C 257.093,153.842 256.839,153.587 254.500,160.000" stroke-width="2.958" stroke="black" fill="none" stroke-linecap="round"></path><path d="M 254.500,160.000 C 250.073,165.722 253.093,163.342 252.500,167.000" stroke-width="3.745" stroke="black" fill="none" stroke-linecap="round"></path><path d="M 252.500,167.000 C 263.280,171.431 259.573,170.722 273.500,170.000" stroke-width="2.779" stroke="black" fill="none" stroke-linecap="round"></path><path d="M 273.500,170.000 C 288.003,165.008 288.280,167.931 302.500,160.000" stroke-width="2.188" stroke="black" fill="none" stroke-linecap="round"></path><path d="M 302.500,160.000 C 315.260,154.586 315.503,155.508 328.500,151.000" stroke-width="2.160" stroke="black" fill="none" stroke-linecap="round"></path><path d="M 328.500,151.000 C 339.398,148.129 339.260,148.086 350.500,147.000" stroke-width="2.342" stroke="black" fill="none" stroke-linecap="round"></path><path d="M 350.500,147.000 C 368.993,145.726 368.898,145.129 387.500,145.000" stroke-width="2.627" stroke="black" fill="none" stroke-linecap="round"></path><path d="M 387.500,145.000 C 394.513,144.721 394.493,144.726 401.500,145.000" stroke-width="2.932" stroke="black" fill="none" stroke-linecap="round"></path><path d="M 401.500,145.000 C 407.102,144.972 407.013,145.221 412.500,146.000" stroke-width="3.198" stroke="black" fill="none" stroke-linecap="round"></path><path d="M 412.500,146.000 C 417.552,147.351 417.602,146.972 422.500,149.000" stroke-width="3.339" stroke="black" fill="none" stroke-linecap="round"></path><path d="M 422.500,149.000 C 426.862,149.087 425.052,149.851 427.500,151.000" stroke-width="3.904" stroke="black" fill="none" stroke-linecap="round"></path><path d="M 427.500,151.000 C 427.783,155.971 428.362,153.587 425.500,158.000" stroke-width="4.542" stroke="black" fill="none" stroke-linecap="round"></path><path d="M 425.500,158.000 C 422.004,158.533 423.283,159.971 418.500,159.000" stroke-width="4.073" stroke="black" fill="none" stroke-linecap="round"></path><path d="M 418.500,159.000 C 414.514,159.732 414.504,159.533 410.500,160.000" stroke-width="3.889" stroke="black" fill="none" stroke-linecap="round"></path><path d="M 410.500,160.000 C 406.999,160.083 407.014,160.232 403.500,160.000" stroke-width="3.955" stroke="black" fill="none" stroke-linecap="round"></path><path d="M 403.500,160.000 C 386.004,159.243 385.999,159.583 368.500,159.000" stroke-width="3.009" stroke="black" fill="none" stroke-linecap="round"></path><path d="M 368.500,159.000 C 350.000,159.000 350.004,158.743 331.500,159.000" stroke-width="2.020" stroke="black" fill="none" stroke-linecap="round"></path><path d="M 331.500,159.000 C 307.491,158.530 307.500,159.000 283.500,159.000" stroke-width="1.602" stroke="black" fill="none" stroke-linecap="round"></path><path d="M 283.500,159.000 C 256.461,159.345 256.491,159.530 229.500,161.000" stroke-width="1.502" stroke="black" fill="none" stroke-linecap="round"></path><path d="M 229.500,161.000 C 199.416,162.732 199.461,162.845 169.500,166.000" stroke-width="1.262" stroke="black" fill="none" stroke-linecap="round"></path><path d="M 169.500,166.000 C 139.642,168.224 139.916,169.232 110.500,174.000" stroke-width="1.212" stroke="black" fill="none" stroke-linecap="round"></path><path d="M 110.500,174.000 C 83.919,179.341 84.142,179.224 58.500,188.000" stroke-width="1.264" stroke="black" fill="none" stroke-linecap="round"></path></svg>