<svg xmlns="http://www.w3.org/2000/svg" xmlns:xlink="http://www.w3.org/1999/xlink" viewBox="0 0 1844 805" width="1844" height="805"><path d="M 541.000,461.000 C 530.758,452.150 530.500,452.500 520.000,444.000" stroke-width="4.538" stroke="black" fill="none" stroke-linecap="round"></path><path d="M 520.000,444.000 C 514.332,439.392 514.258,439.650 508.000,436.000" stroke-width="3.377" stroke="black" fill="none" stroke-linecap="round"></path><path d="M 508.000,436.000 C 500.103,432.241 500.332,431.892 492.000,429.000" stroke-width="2.931" stroke="black" fill="none" stroke-linecap="round"></path><path d="M 492.000,429.000 C 485.020,426.442 485.103,426.241 478.000,424.000" stroke-width="2.980" stroke="black" fill="none" stroke-linecap="round"></path><path d="M 478.000,424.000 C 473.449,422.639 473.520,422.442 469.000,421.000" stroke-width="3.440" stroke="black" fill="none" stroke-linecap="round"></path><path d="M 469.000,421.000 C 464.138,418.284 463.949,419.139 459.000,417.000" stroke-width="3.385" stroke="black" fill="none" stroke-linecap="round"></path><path d="M 459.000,417.000 C 451.850,417.719 456.138,416.284 453.000,417.000" stroke-width="4.306" stroke="black" fill="none" stroke-linecap="round"></path><path d="M 453.000,417.000 C 459.973,414.423 455.850,415.219 467.000,412.000" stroke-width="4.773" stroke="black" fill="none" stroke-linecap="round"></path><path d="M 467.000,412.000 C 474.861,410.342 474.473,409.423 482.000,407.000" stroke-width="3.223" stroke="black" fill="none" stroke-linecap="round"></path><path d="M 482.000,407.000 C 498.164,398.798 498.361,399.342 514.000,390.000" stroke-width="2.071" stroke="black" fill="none" stroke-linecap="round"></path><path d="M 514.000,390.000 C 533.733,378.002 534.164,378.798 554.000,367.000" stroke-width="1.592" stroke="black" fill="none" stroke-linecap="round"></path><path d="M 554.000,367.000 C 568.611,358.595 568.733,359.002 584.000,352.000" stroke-width="1.743" stroke="black" fill="none" stroke-linecap="round"></path><path d="M 584.000,352.000 C 600.445,345.843 600.111,345.095 617.000,340.000" stroke-width="1.755" stroke="black" fill="none" stroke-linecap="round"></path><path d="M 617.000,340.000 C 626.843,338.661 625.945,336.843 635.000,334.000" stroke-width="2.303" stroke="black" fill="none" stroke-linecap="round"></path><path d="M 635.000,334.000 C 650.452,322.932 651.343,324.661 666.000,312.000" stroke-width="1.754" stroke="black" fill="none" stroke-linecap="round"></path><path d="M 666.000,312.000 C 682.327,300.236 682.452,300.432 699.000,289.000" stroke-width="1.644" stroke="black" fill="none" stroke-linecap="round"></path><path d="M 699.000,289.000 C 705.440,284.900 705.327,284.736 712.000,281.000" stroke-width="2.349" stroke="black" fill="none" stroke-linecap="round"></path><path d="M 712.000,281.000 C 723.791,273.613 723.940,273.900 736.000,267.000" stroke-width="2.195" stroke="black" fill="none" stroke-linecap="round"></path><path d="M 736.000,267.000 C 748.081,261.152 747.791,260.613 760.000,255.000" stroke-width="2.067" stroke="black" fill="none" stroke-linecap="round"></path><path d="M 760.000,255.000 C 767.642,251.000 763.581,253.152 767.000,251.000" stroke-width="3.334" stroke="black" fill="none" stroke-linecap="round"></path><path d="M 767.000,251.000 C 761.763,252.523 766.142,251.000 757.000,255.000" stroke-width="4.373" stroke="black" fill="none" stroke-linecap="round"></path><path d="M 757.000,255.000 C 748.544,258.260 749.263,259.023 742.000,264.000" stroke-width="3.039" stroke="black" fill="none" stroke-linecap="round"></path><path d="M 742.000,264.000 C 720.749,284.251 720.044,283.260 700.000,305.000" stroke-width="1.532" stroke="black" fill="none" stroke-linecap="round"></path><path d="M 700.000,305.000 C 686.238,318.753 686.249,318.751 673.000,333.000" stroke-width="1.606" stroke="black" fill="none" stroke-linecap="round"></path><path d="M 673.000,333.000 C 635.033,376.537 633.738,375.253 595.000,418.000" stroke-width="1.125" stroke="black" fill="none" stroke-linecap="round"></path><path d="M 595.000,418.000 C 576.910,432.437 579.033,434.537 561.000,449.000" stroke-width="1.184" stroke="black" fill="none" stroke-linecap="round"></path><path d="M 561.000,449.000 C 541.971,471.927 540.410,470.437 522.000,494.000" stroke-width="1.189" stroke="black" fill="none" stroke-linecap="round"></path><path d="M 522.000,494.000 C 505.176,515.445 503.971,513.927 485.000,533.000" stroke-width="1.258" stroke="black" fill="none" stroke-linecap="round"></path><path d="M 485.000,533.000 C 464.988,546.983 466.676,548.945 445.000,561.000" stroke-width="1.346" stroke="black" fill="none" stroke-linecap="round"></path><path d="M 445.000,561.000 C 426.111,573.477 426.488,573.983 408.000,587.000" stroke-width="1.474" stroke="black" fill="none" stroke-linecap="round"></path><path d="M 408.000,587.000 C 389.696,603.022 388.611,601.477 370.000,617.000" stroke-width="1.419" stroke="black" fill="none" stroke-linecap="round"></path><path d="M 370.000,617.000 C 358.437,624.926 358.696,625.022 346.000,631.000" stroke-width="1.855" stroke="black" fill="none" stroke-linecap="round"></path><path d="M 346.000,631.000 C 336.551,634.644 336.937,635.426 327.000,638.000" stroke-width="2.254" stroke="black" fill="none" stroke-linecap="round"></path><path d="M 327.000,638.000 C 318.119,641.435 318.051,641.144 309.000,644.000" stroke-width="2.468" stroke="black" fill="none" stroke-linecap="round"></path><path d="M 309.000,644.000 C 302.052,645.993 302.119,645.935 295.000,647.000" stroke-width="2.798" stroke="black" fill="none" stroke-linecap="round"></path><path d="M 295.000,647.000 C 291.500,647.000 291.552,647.493 288.000,647.000" stroke-width="3.495" stroke="black" fill="none" stroke-linecap="round"></path><path d="M 288.000,647.000 C 285.000,647.000 285.000,647.000 282.000,647.000" stroke-width="3.934" stroke="black" fill="none" stroke-linecap="round"></path><path d="M 282.000,647.000 C 277.341,649.269 279.000,647.000 276.000,647.000" stroke-width="4.043" stroke="black" fill="none" stroke-linecap="round"></path><path d="M 276.000,647.000 C 269.730,636.198 270.841,638.269 269.000,625.000" stroke-width="3.532" stroke="black" fill="none" stroke-linecap="round"></path><path d="M 269.000,625.000 C 270.191,612.799 268.230,613.198 273.000,601.000" stroke-width="2.509" stroke="black" fill="none" stroke-linecap="round"></path><path d="M 273.000,601.000 C 273.438,590.416 275.191,591.799 279.000,583.000" stroke-width="2.554" stroke="black" fill="none" stroke-linecap="round"></path><path d="M 279.000,583.000 C 293.122,566.994 291.438,566.416 309.000,553.000" stroke-width="1.749" stroke="black" fill="none" stroke-linecap="round"></path><path d="M 309.000,553.000 C 323.770,542.340 322.622,540.994 338.000,531.000" stroke-width="1.727" stroke="black" fill="none" stroke-linecap="round"></path><path d="M 338.000,531.000 C 353.653,513.521 355.770,516.840 373.000,502.000" stroke-width="1.585" stroke="black" fill="none" stroke-linecap="round"></path><path d="M 373.000,502.000 C 399.549,488.784 398.153,487.021 427.000,478.000" stroke-width="1.340" stroke="black" fill="none" stroke-linecap="round"></path><path d="M 427.000,478.000 C 442.000,473.500 441.549,472.284 457.000,469.000" stroke-width="1.644" stroke="black" fill="none" stroke-linecap="round"></path><path d="M 457.000,469.000 C 472.049,464.657 472.000,464.500 487.000,460.000" stroke-width="1.817" stroke="black" fill="none" stroke-linecap="round"></path><path d="M 487.000,460.000 C 502.688,455.522 502.549,455.157 518.000,450.000" stroke-width="1.842" stroke="black" fill="none" stroke-linecap="round"></path><path d="M 518.000,450.000 C 532.819,443.497 533.188,444.522 548.000,438.000" stroke-width="1.909" stroke="black" fill="none" stroke-linecap="round"></path><path d="M 548.000,438.000 C 561.871,433.037 561.819,432.997 576.000,429.000" stroke-width="2.012" stroke="black" fill="none" stroke-linecap="round"></path><path d="M 576.000,429.000 C 586.483,426.427 586.371,426.037 597.000,424.000" stroke-width="2.265" stroke="black" fill="none" stroke-linecap="round"></path><path d="M 597.000,424.000 C 612.465,420.329 612.483,420.427 628.000,417.000" stroke-width="2.246" stroke="black" fill="none" stroke-linecap="round"></path><path d="M 628.000,417.000 C 633.519,416.096 633.465,415.829 639.000,415.000" stroke-width="2.943" stroke="black" fill="none" stroke-linecap="round"></path><path d="M 639.000,415.000 C 645.973,413.360 646.019,413.596 653.000,412.000" stroke-width="2.897" stroke="black" fill="none" stroke-linecap="round"></path><path d="M 653.000,412.000 C 661.649,411.088 661.473,410.360 670.000,409.000" stroke-width="2.822" stroke="black" fill="none" stroke-linecap="round"></path><path d="M 670.000,409.000 C 677.703,407.005 677.649,407.088 685.000,404.000" stroke-width="2.827" stroke="black" fill="none" stroke-linecap="round"></path><path d="M 685.000,404.000 C 694.775,399.967 694.703,400.005 704.000,395.000" stroke-width="2.601" stroke="black" fill="none" stroke-linecap="round"></path><path d="M 704.000,395.000 C 707.464,392.448 707.775,392.967 711.000,390.000" stroke-width="3.261" stroke="black" fill="none" stroke-linecap="round"></path><path d="M 711.000,390.000 C 713.959,387.935 713.964,387.948 717.000,386.000" stroke-width="3.714" stroke="black" fill="none" stroke-linecap="round"></path><path d="M 717.000,386.000 C 722.921,383.552 719.459,384.435 722.000,383.000" stroke-width="4.034" stroke="black" fill="none" stroke-linecap="round"></path><path d="M 722.000,383.000 C 716.994,382.808 720.421,382.052 712.000,383.000" stroke-width="4.628" stroke="black" fill="none" stroke-linecap="round"></path><path d="M 712.000,383.000 C 703.864,382.624 703.994,383.308 696.000,384.000" stroke-width="3.185" stroke="black" fill="none" stroke-linecap="round"></path><path d="M 696.000,384.000 C 683.975,386.903 683.864,386.124 672.000,390.000" stroke-width="2.502" stroke="black" fill="none" stroke-linecap="round"></path><path d="M 672.000,390.000 C 652.996,390.777 654.975,394.403 638.000,399.000" stroke-width="1.993" stroke="black" fill="none" stroke-linecap="round"></path><path d="M 638.000,399.000 C 623.226,410.774 621.996,407.777 610.000,424.000" stroke-width="2.199" stroke="black" fill="none" stroke-linecap="round"></path><path d="M 610.000,424.000 C 604.136,430.749 603.726,430.274 599.000,438.000" stroke-width="2.504" stroke="black" fill="none" stroke-linecap="round"></path><path d="M 599.000,438.000 C 595.435,442.782 595.636,442.749 593.000,448.000" stroke-width="3.034" stroke="black" fill="none" stroke-linecap="round"></path><path d="M 593.000,448.000 C 591.672,450.539 591.935,450.282 592.000,453.000" stroke-width="3.837" stroke="black" fill="none" stroke-linecap="round"></path><path d="M 592.000,453.000 C 590.883,460.742 592.672,458.039 595.000,463.000" stroke-width="4.089" stroke="black" fill="none" stroke-linecap="round"></path><path d="M 595.000,463.000 C 608.819,467.974 606.383,469.242 623.000,470.000" stroke-width="2.368" stroke="black" fill="none" stroke-linecap="round"></path><path d="M 623.000,470.000 C 633.500,470.000 633.319,471.474 644.000,470.000" stroke-width="2.413" stroke="black" fill="none" stroke-linecap="round"></path><path d="M 644.000,470.000 C 652.000,470.000 652.000,470.000 660.000,470.000" stroke-width="2.733" stroke="black" fill="none" stroke-linecap="round"></path><path d="M 660.000,470.000 C 664.158,470.768 664.000,470.000 668.000,470.000" stroke-width="3.627" stroke="black" fill="none" stroke-linecap="round"></path><path d="M 668.000,470.000 C 671.430,468.315 671.658,469.268 675.000,467.000" stroke-width="3.754" stroke="black" fill="none" stroke-linecap="round"></path><path d="M 675.000,467.000 C 681.059,465.160 680.930,464.815 687.000,463.000" stroke-width="3.303" stroke="black" fill="none" stroke-linecap="round"></path><path d="M 687.000,463.000 C 692.143,461.301 692.059,461.160 697.000,459.000" stroke-width="3.344" stroke="black" fill="none" stroke-linecap="round"></path><path d="M 697.000,459.000 C 701.902,457.074 701.643,456.801 706.000,454.000" stroke-width="3.399" stroke="black" fill="none" stroke-linecap="round"></path><path d="M 706.000,454.000 C 714.007,447.993 713.902,448.074 721.000,441.000" stroke-width="2.793" stroke="black" fill="none" stroke-linecap="round"></path><path d="M 721.000,441.000 C 725.741,435.678 726.007,435.993 730.000,430.000" stroke-width="2.859" stroke="black" fill="none" stroke-linecap="round"></path><path d="M 730.000,430.000 C 734.301,425.757 733.241,425.678 736.000,421.000" stroke-width="3.190" stroke="black" fill="none" stroke-linecap="round"></path><path d="M 736.000,421.000 C 737.074,416.461 736.801,418.757 735.000,416.000" stroke-width="4.351" stroke="black" fill="none" stroke-linecap="round"></path><path d="M 735.000,416.000 C 726.149,415.099 728.074,414.461 718.000,417.000" stroke-width="3.069" stroke="black" fill="none" stroke-linecap="round"></path><path d="M 718.000,417.000 C 711.338,419.693 711.149,418.599 705.000,423.000" stroke-width="2.998" stroke="black" fill="none" stroke-linecap="round"></path><path d="M 705.000,423.000 C 699.732,425.620 699.838,425.693 695.000,429.000" stroke-width="3.227" stroke="black" fill="none" stroke-linecap="round"></path><path d="M 695.000,429.000 C 689.305,433.284 689.232,433.120 684.000,438.000" stroke-width="3.111" stroke="black" fill="none" stroke-linecap="round"></path><path d="M 684.000,438.000 C 679.980,441.125 680.305,441.284 677.000,445.000" stroke-width="3.889" stroke="black" fill="none" stroke-linecap="round"></path><path d="M 677.000,445.000 C 674.426,447.808 674.980,447.625 674.000,451.000" stroke-width="4.408" stroke="black" fill="none" stroke-linecap="round"></path><path d="M 674.000,451.000 C 671.781,457.585 673.426,455.308 675.000,460.000" stroke-width="4.412" stroke="black" fill="none" stroke-linecap="round"></path><path d="M 675.000,460.000 C 685.979,467.907 683.781,466.585 698.000,469.000" stroke-width="2.679" stroke="black" fill="none" stroke-linecap="round"></path><path d="M 698.000,469.000 C 720.073,470.001 718.979,470.907 741.000,466.000" stroke-width="1.812" stroke="black" fill="none" stroke-linecap="round"></path><path d="M 741.000,466.000 C 754.372,462.616 754.073,463.501 766.000,456.000" stroke-width="2.053" stroke="black" fill="none" stroke-linecap="round"></path><path d="M 766.000,456.000 C 782.548,444.568 783.372,446.116 799.000,433.000" stroke-width="1.714" stroke="black" fill="none" stroke-linecap="round"></path><path d="M 799.000,433.000 C 814.801,422.399 814.548,422.068 830.000,411.000" stroke-width="1.680" stroke="black" fill="none" stroke-linecap="round"></path><path d="M 830.000,411.000 C 843.072,401.650 842.801,401.399 855.000,391.000" stroke-width="1.812" stroke="black" fill="none" stroke-linecap="round"></path><path d="M 855.000,391.000 C 871.415,376.842 871.072,376.650 886.000,361.000" stroke-width="1.599" stroke="black" fill="none" stroke-linecap="round"></path><path d="M 886.000,361.000 C 899.749,344.697 900.415,345.342 913.000,328.000" stroke-width="1.553" stroke="black" fill="none" stroke-linecap="round"></path><path d="M 913.000,328.000 C 925.020,313.372 924.749,313.197 936.000,298.000" stroke-width="1.635" stroke="black" fill="none" stroke-linecap="round"></path><path d="M 936.000,298.000 C 946.923,281.448 947.520,281.872 958.000,265.000" stroke-width="1.622" stroke="black" fill="none" stroke-linecap="round"></path><path d="M 958.000,265.000 C 963.295,256.845 963.423,256.948 969.000,249.000" stroke-width="2.172" stroke="black" fill="none" stroke-linecap="round"></path><path d="M 969.000,249.000 C 974.635,245.753 971.295,245.845 974.000,243.000" stroke-width="3.128" stroke="black" fill="none" stroke-linecap="round"></path><path d="M 974.000,243.000 C 970.565,237.997 973.135,239.253 966.000,236.000" stroke-width="4.034" stroke="black" fill="none" stroke-linecap="round"></path><path d="M 966.000,236.000 C 962.000,236.000 962.565,234.497 958.000,236.000" stroke-width="3.885" stroke="black" fill="none" stroke-linecap="round"></path><path d="M 958.000,236.000 C 953.360,235.231 953.500,236.000 949.000,236.000" stroke-width="3.681" stroke="black" fill="none" stroke-linecap="round"></path><path d="M 949.000,236.000 C 944.706,236.941 944.860,236.731 941.000,239.000" stroke-width="4.199" stroke="black" fill="none" stroke-linecap="round"></path><path d="M 941.000,239.000 C 935.763,242.190 935.706,241.941 931.000,246.000" stroke-width="4.134" stroke="black" fill="none" stroke-linecap="round"></path><path d="M 931.000,246.000 C 915.927,258.414 915.763,258.190 901.000,271.000" stroke-width="1.997" stroke="black" fill="none" stroke-linecap="round"></path><path d="M 901.000,271.000 C 890.175,279.650 890.427,279.914 880.000,289.000" stroke-width="2.146" stroke="black" fill="none" stroke-linecap="round"></path><path d="M 880.000,289.000 C 871.337,296.402 871.675,296.650 864.000,305.000" stroke-width="2.272" stroke="black" fill="none" stroke-linecap="round"></path><path d="M 864.000,305.000 C 840.552,334.984 839.337,333.902 816.000,364.000" stroke-width="1.278" stroke="black" fill="none" stroke-linecap="round"></path><path d="M 816.000,364.000 C 806.645,373.186 807.552,373.984 798.000,383.000" stroke-width="1.777" stroke="black" fill="none" stroke-linecap="round"></path><path d="M 798.000,383.000 C 787.981,394.107 788.145,394.186 779.000,406.000" stroke-width="1.954" stroke="black" fill="none" stroke-linecap="round"></path><path d="M 779.000,406.000 C 769.267,418.616 769.481,418.607 761.000,432.000" stroke-width="1.909" stroke="black" fill="none" stroke-linecap="round"></path><path d="M 761.000,432.000 C 759.986,436.249 758.767,435.616 758.000,440.000" stroke-width="2.906" stroke="black" fill="none" stroke-linecap="round"></path><path d="M 758.000,440.000 C 752.573,444.416 755.486,444.749 752.000,449.000" stroke-width="3.725" stroke="black" fill="none" stroke-linecap="round"></path><path d="M 752.000,449.000 C 752.558,455.449 751.573,452.416 756.000,456.000" stroke-width="4.480" stroke="black" fill="none" stroke-linecap="round"></path><path d="M 756.000,456.000 C 767.021,456.258 765.058,457.449 777.000,453.000" stroke-width="2.884" stroke="black" fill="none" stroke-linecap="round"></path><path d="M 777.000,453.000 C 791.910,448.000 791.521,448.258 805.000,440.000" stroke-width="2.201" stroke="black" fill="none" stroke-linecap="round"></path><path d="M 805.000,440.000 C 817.545,429.336 818.910,431.500 831.000,420.000" stroke-width="1.996" stroke="black" fill="none" stroke-linecap="round"></path><path d="M 831.000,420.000 C 842.301,412.647 842.045,412.336 854.000,406.000" stroke-width="2.066" stroke="black" fill="none" stroke-linecap="round"></path><path d="M 854.000,406.000 C 864.155,399.715 864.301,400.147 875.000,395.000" stroke-width="2.202" stroke="black" fill="none" stroke-linecap="round"></path><path d="M 875.000,395.000 C 887.473,390.421 887.155,389.715 900.000,386.000" stroke-width="2.079" stroke="black" fill="none" stroke-linecap="round"></path><path d="M 900.000,386.000 C 904.528,384.578 904.473,384.421 909.000,383.000" stroke-width="2.878" stroke="black" fill="none" stroke-linecap="round"></path><path d="M 909.000,383.000 C 912.878,380.824 913.028,381.578 917.000,380.000" stroke-width="3.388" stroke="black" fill="none" stroke-linecap="round"></path><path d="M 917.000,380.000 C 922.168,377.965 920.378,379.324 924.000,380.000" stroke-width="3.739" stroke="black" fill="none" stroke-linecap="round"></path><path d="M 924.000,380.000 C 926.860,385.088 926.668,382.965 926.000,390.000" stroke-width="4.365" stroke="black" fill="none" stroke-linecap="round"></path><path d="M 926.000,390.000 C 922.259,405.274 923.360,405.088 917.000,420.000" stroke-width="2.367" stroke="black" fill="none" stroke-linecap="round"></path><path d="M 917.000,420.000 C 911.513,433.005 912.259,433.274 906.000,446.000" stroke-width="2.124" stroke="black" fill="none" stroke-linecap="round"></path><path d="M 906.000,446.000 C 904.037,449.370 904.513,449.505 903.000,453.000" stroke-width="3.078" stroke="black" fill="none" stroke-linecap="round"></path><path d="M 903.000,453.000 C 899.418,460.602 902.037,456.370 902.000,460.000" stroke-width="4.023" stroke="black" fill="none" stroke-linecap="round"></path><path d="M 902.000,460.000 C 917.690,453.391 914.418,457.102 933.000,446.000" stroke-width="3.525" stroke="black" fill="none" stroke-linecap="round"></path><path d="M 933.000,446.000 C 946.239,438.422 946.690,439.391 960.000,432.000" stroke-width="2.314" stroke="black" fill="none" stroke-linecap="round"></path><path d="M 960.000,432.000 C 968.995,428.486 968.739,427.922 978.000,425.000" stroke-width="2.529" stroke="black" fill="none" stroke-linecap="round"></path><path d="M 978.000,425.000 C 984.367,421.990 984.495,422.486 991.000,420.000" stroke-width="2.898" stroke="black" fill="none" stroke-linecap="round"></path><path d="M 991.000,420.000 C 994.476,419.168 994.367,418.990 998.000,419.000" stroke-width="3.915" stroke="black" fill="none" stroke-linecap="round"></path><path d="M 998.000,419.000 C 1005.054,418.349 1004.976,418.668 1012.000,419.000" stroke-width="4.864" stroke="black" fill="none" stroke-linecap="round"></path><path d="M 1012.000,419.000 C 1020.951,421.095 1021.054,419.849 1030.000,422.000" stroke-width="3.048" stroke="black" fill="none" stroke-linecap="round"></path><path d="M 1030.000,422.000 C 1036.000,422.000 1035.951,422.595 1042.000,422.000" stroke-width="3.163" stroke="black" fill="none" stroke-linecap="round"></path><path d="M 1042.000,422.000 C 1050.596,423.029 1050.500,422.000 1059.000,422.000" stroke-width="2.909" stroke="black" fill="none" stroke-linecap="round"></path><path d="M 1059.000,422.000 C 1075.386,420.286 1075.096,420.029 1091.000,416.000" stroke-width="2.146" stroke="black" fill="none" stroke-linecap="round"></path><path d="M 1091.000,416.000 C 1100.743,412.496 1100.886,413.286 1110.000,408.000" stroke-width="2.355" stroke="black" fill="none" stroke-linecap="round"></path><path d="M 1110.000,408.000 C 1117.876,403.269 1118.243,403.996 1126.000,399.000" stroke-width="2.534" stroke="black" fill="none" stroke-linecap="round"></path><path d="M 1126.000,399.000 C 1148.767,389.902 1147.376,387.769 1169.000,377.000" stroke-width="1.617" stroke="black" fill="none" stroke-linecap="round"></path><path d="M 1169.000,377.000 C 1182.263,366.299 1183.267,367.902 1195.000,355.000" stroke-width="1.739" stroke="black" fill="none" stroke-linecap="round"></path><path d="M 1195.000,355.000 C 1212.079,337.387 1213.263,338.799 1231.000,322.000" stroke-width="1.478" stroke="black" fill="none" stroke-linecap="round"></path><path d="M 1231.000,322.000 C 1260.645,303.820 1257.579,300.387 1286.000,281.000" stroke-width="1.205" stroke="black" fill="none" stroke-linecap="round"></path><path d="M 1286.000,281.000 C 1301.924,259.386 1305.645,263.320 1321.000,241.000" stroke-width="1.312" stroke="black" fill="none" stroke-linecap="round"></path><path d="M 1321.000,241.000 C 1347.117,222.883 1343.424,219.386 1369.000,201.000" stroke-width="1.234" stroke="black" fill="none" stroke-linecap="round"></path><path d="M 1369.000,201.000 C 1376.542,189.527 1378.617,191.383 1384.000,178.000" stroke-width="1.759" stroke="black" fill="none" stroke-linecap="round"></path><path d="M 1384.000,178.000 C 1387.248,172.316 1387.542,172.527 1391.000,167.000" stroke-width="2.522" stroke="black" fill="none" stroke-linecap="round"></path><path d="M 1391.000,167.000 C 1394.313,164.373 1393.248,163.816 1396.000,161.000" stroke-width="3.363" stroke="black" fill="none" stroke-linecap="round"></path><path d="M 1396.000,161.000 C 1396.768,158.022 1397.313,158.373 1397.000,155.000" stroke-width="4.227" stroke="black" fill="none" stroke-linecap="round"></path><path d="M 1397.000,155.000 C 1400.070,148.368 1397.268,151.522 1397.000,148.000" stroke-width="4.508" stroke="black" fill="none" stroke-linecap="round"></path><path d="M 1397.000,148.000 C 1369.593,142.283 1375.070,145.368 1347.000,149.000" stroke-width="2.594" stroke="black" fill="none" stroke-linecap="round"></path><path d="M 1347.000,149.000 C 1334.379,158.863 1332.593,153.283 1323.000,170.000" stroke-width="2.171" stroke="black" fill="none" stroke-linecap="round"></path><path d="M 1323.000,170.000 C 1312.096,183.093 1310.879,181.863 1300.000,195.000" stroke-width="1.956" stroke="black" fill="none" stroke-linecap="round"></path><path d="M 1300.000,195.000 C 1277.475,212.251 1280.096,214.593 1259.000,233.000" stroke-width="1.456" stroke="black" fill="none" stroke-linecap="round"></path><path d="M 1259.000,233.000 C 1247.359,250.762 1244.975,248.751 1235.000,268.000" stroke-width="1.560" stroke="black" fill="none" stroke-linecap="round"></path><path d="M 1235.000,268.000 C 1228.374,277.309 1228.359,277.262 1221.000,286.000" stroke-width="2.024" stroke="black" fill="none" stroke-linecap="round"></path><path d="M 1221.000,286.000 C 1198.923,309.184 1200.374,310.309 1179.000,334.000" stroke-width="1.301" stroke="black" fill="none" stroke-linecap="round"></path><path d="M 1179.000,334.000 C 1171.352,345.407 1170.423,344.684 1164.000,357.000" stroke-width="1.798" stroke="black" fill="none" stroke-linecap="round"></path><path d="M 1164.000,357.000 C 1158.427,365.956 1158.352,365.907 1153.000,375.000" stroke-width="2.196" stroke="black" fill="none" stroke-linecap="round"></path><path d="M 1153.000,375.000 C 1142.545,393.858 1141.927,393.456 1131.000,412.000" stroke-width="1.736" stroke="black" fill="none" stroke-linecap="round"></path><path d="M 1131.000,412.000 C 1125.392,421.816 1125.045,421.358 1118.000,430.000" stroke-width="2.175" stroke="black" fill="none" stroke-linecap="round"></path><path d="M 1118.000,430.000 C 1110.689,436.735 1111.392,437.316 1103.000,443.000" stroke-width="2.399" stroke="black" fill="none" stroke-linecap="round"></path><path d="M 1103.000,443.000 C 1096.918,447.397 1097.189,447.735 1091.000,452.000" stroke-width="2.783" stroke="black" fill="none" stroke-linecap="round"></path><path d="M 1091.000,452.000 C 1082.560,457.102 1087.918,454.397 1085.000,457.000" stroke-width="3.821" stroke="black" fill="none" stroke-linecap="round"></path><path d="M 1085.000,457.000 C 1100.087,454.377 1094.560,456.602 1115.000,451.000" stroke-width="3.583" stroke="black" fill="none" stroke-linecap="round"></path><path d="M 1115.000,451.000 C 1126.866,449.027 1126.587,448.377 1138.000,445.000" stroke-width="2.617" stroke="black" fill="none" stroke-linecap="round"></path><path d="M 1138.000,445.000 C 1150.200,439.900 1150.366,440.527 1162.000,434.000" stroke-width="2.313" stroke="black" fill="none" stroke-linecap="round"></path><path d="M 1162.000,434.000 C 1172.991,427.983 1173.200,428.400 1184.000,422.000" stroke-width="2.285" stroke="black" fill="none" stroke-linecap="round"></path><path d="M 1184.000,422.000 C 1195.802,415.099 1195.991,415.483 1208.000,409.000" stroke-width="2.137" stroke="black" fill="none" stroke-linecap="round"></path><path d="M 1208.000,409.000 C 1217.602,403.219 1217.802,404.099 1228.000,400.000" stroke-width="2.351" stroke="black" fill="none" stroke-linecap="round"></path><path d="M 1228.000,400.000 C 1238.924,396.810 1238.602,396.719 1250.000,396.000" stroke-width="2.348" stroke="black" fill="none" stroke-linecap="round"></path><path d="M 1250.000,396.000 C 1259.647,395.831 1259.424,395.310 1269.000,397.000" stroke-width="2.554" stroke="black" fill="none" stroke-linecap="round"></path><path d="M 1269.000,397.000 C 1272.076,397.290 1271.647,397.331 1274.000,399.000" stroke-width="3.555" stroke="black" fill="none" stroke-linecap="round"></path><path d="M 1274.000,399.000 C 1277.404,401.575 1276.576,401.290 1278.000,405.000" stroke-width="3.775" stroke="black" fill="none" stroke-linecap="round"></path><path d="M 1278.000,405.000 C 1282.005,415.159 1279.404,413.075 1278.000,422.000" stroke-width="3.045" stroke="black" fill="none" stroke-linecap="round"></path><path d="M 1278.000,422.000 C 1268.825,438.134 1270.005,435.659 1254.000,446.000" stroke-width="2.121" stroke="black" fill="none" stroke-linecap="round"></path><path d="M 1254.000,446.000 C 1191.793,471.512 1195.325,477.134 1131.000,500.000" stroke-width="1.125" stroke="black" fill="none" stroke-linecap="round"></path><path d="M 1131.000,500.000 C 1090.482,524.992 1088.293,520.012 1047.000,543.000" stroke-width="1.125" stroke="black" fill="none" stroke-linecap="round"></path><path d="M 1047.000,543.000 C 991.733,569.551 991.482,565.992 933.000,582.000" stroke-width="1.125" stroke="black" fill="none" stroke-linecap="round"></path><path d="M 933.000,582.000 C 806.354,605.268 807.733,608.551 679.000,621.000" stroke-width="1.125" stroke="black" fill="none" stroke-linecap="round"></path><path d="M 679.000,621.000 C 636.012,623.798 636.354,626.268 593.000,624.000" stroke-width="1.125" stroke="black" fill="none" stroke-linecap="round"></path><path d="M 593.000,624.000 C 529.289,626.203 529.512,624.298 466.000,622.000" stroke-width="1.125" stroke="black" fill="none" stroke-linecap="round"></path><path d="M 466.000,622.000 C 399.635,621.406 401.289,617.703 337.000,607.000" stroke-width="1.125" stroke="black" fill="none" stroke-linecap="round"></path><path d="M 337.000,607.000 C 298.621,595.639 299.635,598.406 266.000,576.000" stroke-width="1.125" stroke="black" fill="none" stroke-linecap="round"></path><path d="M 266.000,576.000 C 250.019,563.880 249.621,566.139 239.000,548.000" stroke-width="1.303" stroke="black" fill="none" stroke-linecap="round"></path><path d="M 239.000,548.000 C 215.244,514.285 216.019,514.880 198.000,478.000" stroke-width="1.125" stroke="black" fill="none" stroke-linecap="round"></path><path d="M 198.000,478.000 C 188.545,462.190 191.244,463.785 191.000,447.000" stroke-width="1.532" stroke="black" fill="none" stroke-linecap="round"></path><path d="M 191.000,447.000 C 192.942,406.967 196.545,412.690 214.000,379.000" stroke-width="1.182" stroke="black" fill="none" stroke-linecap="round"></path><path d="M 214.000,379.000 C 260.504,319.614 256.942,321.967 319.000,277.000" stroke-width="1.125" stroke="black" fill="none" stroke-linecap="round"></path><path d="M 319.000,277.000 C 372.646,232.080 371.004,239.114 435.000,218.000" stroke-width="1.125" stroke="black" fill="none" stroke-linecap="round"></path><path d="M 435.000,218.000 C 547.610,202.891 543.146,193.580 660.000,200.000" stroke-width="1.125" stroke="black" fill="none" stroke-linecap="round"></path><path d="M 660.000,200.000 C 703.219,203.557 703.110,198.891 746.000,210.000" stroke-width="1.125" stroke="black" fill="none" stroke-linecap="round"></path><path d="M 746.000,210.000 C 786.171,216.668 786.219,216.057 826.000,225.000" stroke-width="1.125" stroke="black" fill="none" stroke-linecap="round"></path><path d="M 826.000,225.000 C 884.084,237.635 884.171,237.168 942.000,251.000" stroke-width="1.125" stroke="black" fill="none" stroke-linecap="round"></path><path d="M 942.000,251.000 C 995.280,261.074 994.584,263.135 1047.000,276.000" stroke-width="1.125" stroke="black" fill="none" stroke-linecap="round"></path><path d="M 1047.000,276.000 C 1071.135,281.617 1069.780,282.574 1091.000,294.000" stroke-width="1.152" stroke="black" fill="none" stroke-linecap="round"></path><path d="M 1091.000,294.000 C 1108.509,308.132 1109.635,305.617 1124.000,324.000" stroke-width="1.366" stroke="black" fill="none" stroke-linecap="round"></path><path d="M 1124.000,324.000 C 1128.565,329.703 1129.009,329.132 1132.000,336.000" stroke-width="2.224" stroke="black" fill="none" stroke-linecap="round"></path><path d="M 1132.000,336.000 C 1139.081,342.253 1134.565,340.703 1136.000,346.000" stroke-width="2.915" stroke="black" fill="none" stroke-linecap="round"></path><path d="M 1136.000,346.000 C 1118.472,368.667 1120.581,364.753 1095.000,381.000" stroke-width="1.608" stroke="black" fill="none" stroke-linecap="round"></path><path d="M 1095.000,381.000 C 1057.416,398.793 1059.472,399.667 1018.000,408.000" stroke-width="1.143" stroke="black" fill="none" stroke-linecap="round"></path><path d="M 1018.000,408.000 C 987.936,414.294 988.916,414.793 958.000,413.000" stroke-width="1.169" stroke="black" fill="none" stroke-linecap="round"></path><path d="M 958.000,413.000 C 906.706,408.723 906.936,410.794 856.000,401.000" stroke-width="1.125" stroke="black" fill="none" stroke-linecap="round"></path><path d="M 856.000,401.000 C 831.567,395.172 831.206,397.223 807.000,390.000" stroke-width="1.182" stroke="black" fill="none" stroke-linecap="round"></path><path d="M 807.000,390.000 C 793.570,386.740 793.567,387.172 780.000,385.000" stroke-width="1.726" stroke="black" fill="none" stroke-linecap="round"></path><path d="M 1340.000,441.000 C 1352.475,439.074 1352.500,439.500 1365.000,438.000" stroke-width="4.494" stroke="black" fill="none" stroke-linecap="round"></path><path d="M 1365.000,438.000 C 1370.010,438.296 1369.975,437.574 1375.000,438.000" stroke-width="3.782" stroke="black" fill="none" stroke-linecap="round"></path><path d="M 1375.000,438.000 C 1420.486,434.758 1420.510,435.296 1466.000,432.000" stroke-width="1.148" stroke="black" fill="none" stroke-linecap="round"></path><path d="M 1466.000,432.000 C 1502.998,429.962 1502.986,429.758 1540.000,428.000" stroke-width="1.125" stroke="black" fill="none" stroke-linecap="round"></path><path d="M 1540.000,428.000 C 1569.020,426.811 1568.998,426.462 1598.000,425.000" stroke-width="1.193" stroke="black" fill="none" stroke-linecap="round"></path><path d="M 1598.000,425.000 C 1617.003,423.532 1617.020,423.811 1636.000,422.000" stroke-width="1.487" stroke="black" fill="none" stroke-linecap="round"></path><path d="M 1636.000,422.000 C 1647.989,420.728 1648.003,421.032 1660.000,420.000" stroke-width="1.990" stroke="black" fill="none" stroke-linecap="round"></path><path d="M 1660.000,420.000 C 1664.500,420.000 1664.489,419.728 1669.000,420.000" stroke-width="2.815" stroke="black" fill="none" stroke-linecap="round"></path><path d="M 1669.000,420.000 C 1676.602,419.657 1672.000,420.000 1675.000,420.000" stroke-width="3.953" stroke="black" fill="none" stroke-linecap="round"></path><path d="M 1675.000,420.000 C 1665.014,421.603 1669.602,421.157 1655.000,423.000" stroke-width="4.403" stroke="black" fill="none" stroke-linecap="round"></path><path d="M 1655.000,423.000 C 1643.517,424.638 1643.514,424.603 1632.000,426.000" stroke-width="2.681" stroke="black" fill="none" stroke-linecap="round"></path><path d="M 1632.000,426.000 C 1597.076,430.794 1597.017,430.138 1562.000,434.000" stroke-width="1.330" stroke="black" fill="none" stroke-linecap="round"></path><path d="M 1562.000,434.000 C 1503.781,436.466 1504.076,439.294 1446.000,443.000" stroke-width="1.125" stroke="black" fill="none" stroke-linecap="round"></path><path d="M 1446.000,443.000 C 1362.865,458.088 1362.281,452.466 1279.000,466.000" stroke-width="1.125" stroke="black" fill="none" stroke-linecap="round"></path><path d="M 1279.000,466.000 C 1150.575,476.252 1150.865,478.088 1022.000,483.000" stroke-width="1.125" stroke="black" fill="none" stroke-linecap="round"></path><path d="M 1022.000,483.000 C 969.505,484.533 969.575,485.752 917.000,485.000" stroke-width="1.125" stroke="black" fill="none" stroke-linecap="round"></path><path d="M 917.000,485.000 C 856.970,486.205 857.005,485.533 797.000,485.000" stroke-width="1.125" stroke="black" fill="none" stroke-linecap="round"></path><path d="M 797.000,485.000 C 757.421,483.787 757.470,484.205 718.000,481.000" stroke-width="1.125" stroke="black" fill="none" stroke-linecap="round"></path><path d="M 718.000,481.000 C 708.000,479.500 707.921,480.287 698.000,478.000" stroke-width="1.576" stroke="black" fill="none" stroke-linecap="round"></path><path d="M 698.000,478.000 C 688.038,476.147 688.000,476.500 678.000,475.000" stroke-width="2.072" stroke="black" fill="none" stroke-linecap="round"></path><path d="M 678.000,475.000 C 670.505,474.357 670.538,474.147 663.000,474.000" stroke-width="2.590" stroke="black" fill="none" stroke-linecap="round"></path><path d="M 663.000,474.000 C 660.000,474.000 660.005,473.857 657.000,474.000" stroke-width="3.485" stroke="black" fill="none" stroke-linecap="round"></path></svg>