<svg xmlns="http://www.w3.org/2000/svg" xmlns:xlink="http://www.w3.org/1999/xlink" viewBox="0 0 1844 805" width="1844" height="805"><path d="M 880.000,464.000 C 847.114,435.568 844.500,440.500 809.000,417.000" stroke-width="3.189" stroke="black" fill="none" stroke-linecap="round"></path><path d="M 809.000,417.000 C 729.619,375.151 730.114,378.568 646.000,350.000" stroke-width="1.125" stroke="black" fill="none" stroke-linecap="round"></path><path d="M 646.000,350.000 C 599.588,343.777 601.619,336.651 553.000,340.000" stroke-width="1.125" stroke="black" fill="none" stroke-linecap="round"></path><path d="M 553.000,340.000 C 525.504,338.754 525.588,337.777 498.000,338.000" stroke-width="1.125" stroke="black" fill="none" stroke-linecap="round"></path><path d="M 498.000,338.000 C 489.000,338.000 489.004,337.754 480.000,338.000" stroke-width="1.852" stroke="black" fill="none" stroke-linecap="round"></path><path d="M 480.000,338.000 C 476.000,338.000 476.000,338.000 472.000,338.000" stroke-width="2.898" stroke="black" fill="none" stroke-linecap="round"></path><path d="M 472.000,338.000 C 464.420,339.814 469.000,338.000 466.000,338.000" stroke-width="3.678" stroke="black" fill="none" stroke-linecap="round"></path><path d="M 466.000,338.000 C 478.060,313.869 477.920,324.314 499.000,307.000" stroke-width="1.861" stroke="black" fill="none" stroke-linecap="round"></path><path d="M 499.000,307.000 C 576.872,274.893 572.560,282.869 655.000,276.000" stroke-width="1.125" stroke="black" fill="none" stroke-linecap="round"></path><path d="M 655.000,276.000 C 754.207,290.907 753.372,277.393 852.000,312.000" stroke-width="1.125" stroke="black" fill="none" stroke-linecap="round"></path><path d="M 852.000,312.000 C 906.149,328.390 907.207,323.907 961.000,342.000" stroke-width="1.125" stroke="black" fill="none" stroke-linecap="round"></path><path d="M 961.000,342.000 C 1040.354,356.958 1039.149,361.390 1118.000,378.000" stroke-width="1.125" stroke="black" fill="none" stroke-linecap="round"></path><path d="M 1118.000,378.000 C 1170.118,396.939 1171.354,392.458 1223.000,413.000" stroke-width="1.125" stroke="black" fill="none" stroke-linecap="round"></path><path d="M 1223.000,413.000 C 1237.875,416.873 1237.618,417.439 1253.000,419.000" stroke-width="1.244" stroke="black" fill="none" stroke-linecap="round"></path><path d="M 1253.000,419.000 C 1269.987,420.785 1269.875,421.373 1287.000,422.000" stroke-width="1.625" stroke="black" fill="none" stroke-linecap="round"></path><path d="M 1287.000,422.000 C 1296.050,421.125 1290.987,422.285 1295.000,422.000" stroke-width="2.955" stroke="black" fill="none" stroke-linecap="round"></path><path d="M 1295.000,422.000 C 1287.986,424.460 1293.050,423.625 1281.000,427.000" stroke-width="3.546" stroke="black" fill="none" stroke-linecap="round"></path><path d="M 1281.000,427.000 C 1233.908,447.398 1232.986,444.460 1185.000,462.000" stroke-width="1.125" stroke="black" fill="none" stroke-linecap="round"></path><path d="M 1185.000,462.000 C 1093.567,484.564 1094.908,488.898 1003.000,510.000" stroke-width="1.125" stroke="black" fill="none" stroke-linecap="round"></path><path d="M 1003.000,510.000 C 976.667,519.526 976.067,517.564 950.000,528.000" stroke-width="1.125" stroke="black" fill="none" stroke-linecap="round"></path><path d="M 950.000,528.000 C 923.397,537.979 923.167,536.526 896.000,544.000" stroke-width="1.155" stroke="black" fill="none" stroke-linecap="round"></path><path d="M 896.000,544.000 C 877.471,547.682 877.897,547.979 859.000,548.000" stroke-width="1.559" stroke="black" fill="none" stroke-linecap="round"></path><path d="M 859.000,548.000 C 848.347,547.217 848.471,548.182 838.000,545.000" stroke-width="2.075" stroke="black" fill="none" stroke-linecap="round"></path><path d="M 838.000,545.000 C 827.043,543.148 827.347,542.717 817.000,539.000" stroke-width="2.279" stroke="black" fill="none" stroke-linecap="round"></path><path d="M 817.000,539.000 C 804.649,532.195 804.043,533.648 792.000,526.000" stroke-width="2.104" stroke="black" fill="none" stroke-linecap="round"></path><path d="M 792.000,526.000 C 780.314,519.652 780.149,520.195 768.000,515.000" stroke-width="2.224" stroke="black" fill="none" stroke-linecap="round"></path><path d="M 768.000,515.000 C 757.540,511.849 757.814,511.152 747.000,509.000" stroke-width="2.330" stroke="black" fill="none" stroke-linecap="round"></path><path d="M 747.000,509.000 C 739.087,506.294 739.040,506.849 731.000,505.000" stroke-width="2.674" stroke="black" fill="none" stroke-linecap="round"></path><path d="M 731.000,505.000 C 726.500,505.000 726.587,504.294 722.000,505.000" stroke-width="3.306" stroke="black" fill="none" stroke-linecap="round"></path><path d="M 722.000,505.000 C 715.304,503.739 715.500,505.000 709.000,505.000" stroke-width="3.161" stroke="black" fill="none" stroke-linecap="round"></path><path d="M 709.000,505.000 C 697.986,508.456 697.804,507.239 687.000,512.000" stroke-width="2.575" stroke="black" fill="none" stroke-linecap="round"></path><path d="M 687.000,512.000 C 682.393,513.243 682.486,513.456 678.000,515.000" stroke-width="3.177" stroke="black" fill="none" stroke-linecap="round"></path><path d="M 678.000,515.000 C 675.167,517.208 674.893,516.243 672.000,518.000" stroke-width="3.732" stroke="black" fill="none" stroke-linecap="round"></path><path d="M 672.000,518.000 C 665.780,518.661 669.167,518.708 666.000,518.000" stroke-width="4.409" stroke="black" fill="none" stroke-linecap="round"></path></svg>