<svg xmlns="http://www.w3.org/2000/svg" xmlns:xlink="http://www.w3.org/1999/xlink" viewBox="0 0 751 827" width="751" height="827"><path d="M 101.500,147.000 C 96.957,148.379 97.000,148.500 92.500,150.000" stroke-width="4.444" stroke="black" fill="none" stroke-linecap="round"></path><path d="M 92.500,150.000 C 85.682,151.909 85.957,152.379 79.500,155.000" stroke-width="4.230" stroke="black" fill="none" stroke-linecap="round"></path><path d="M 79.500,155.000 C 75.793,157.256 75.682,156.909 72.500,160.000" stroke-width="3.813" stroke="black" fill="none" stroke-linecap="round"></path><path d="M 72.500,160.000 C 69.113,162.043 69.793,162.256 67.500,165.000" stroke-width="3.968" stroke="black" fill="none" stroke-linecap="round"></path><path d="M 67.500,165.000 C 64.803,169.680 66.113,167.543 66.500,171.000" stroke-width="4.498" stroke="black" fill="none" stroke-linecap="round"></path><path d="M 66.500,171.000 C 71.488,171.736 69.303,173.180 76.500,172.000" stroke-width="4.387" stroke="black" fill="none" stroke-linecap="round"></path><path d="M 76.500,172.000 C 81.000,172.000 80.988,172.236 85.500,172.000" stroke-width="3.865" stroke="black" fill="none" stroke-linecap="round"></path><path d="M 85.500,172.000 C 89.524,171.716 89.500,172.000 93.500,172.000" stroke-width="3.837" stroke="black" fill="none" stroke-linecap="round"></path><path d="M 93.500,172.000 C 99.500,170.913 96.524,172.216 99.500,173.000" stroke-width="4.433" stroke="black" fill="none" stroke-linecap="round"></path><path d="M 99.500,173.000 C 98.120,180.720 99.500,177.913 93.500,186.000" stroke-width="4.090" stroke="black" fill="none" stroke-linecap="round"></path><path d="M 93.500,186.000 C 83.003,196.204 84.120,196.720 71.500,205.000" stroke-width="2.436" stroke="black" fill="none" stroke-linecap="round"></path><path d="M 71.500,205.000 C 65.531,208.554 66.003,209.204 59.500,212.000" stroke-width="2.863" stroke="black" fill="none" stroke-linecap="round"></path><path d="M 59.500,212.000 C 55.098,214.701 55.031,214.554 50.500,217.000" stroke-width="3.233" stroke="black" fill="none" stroke-linecap="round"></path><path d="M 50.500,217.000 C 47.094,218.802 47.098,218.701 43.500,220.000" stroke-width="3.617" stroke="black" fill="none" stroke-linecap="round"></path><path d="M 43.500,220.000 C 39.649,222.149 41.094,220.802 38.500,221.000" stroke-width="4.424" stroke="black" fill="none" stroke-linecap="round"></path><path d="M 152.500,141.000 C 158.027,140.684 158.000,140.500 163.500,140.000" stroke-width="4.694" stroke="black" fill="none" stroke-linecap="round"></path><path d="M 163.500,140.000 C 166.045,139.670 166.027,139.684 168.500,139.000" stroke-width="4.431" stroke="black" fill="none" stroke-linecap="round"></path><path d="M 168.500,139.000 C 171.696,138.402 171.545,138.170 174.500,137.000" stroke-width="4.194" stroke="black" fill="none" stroke-linecap="round"></path><path d="M 174.500,137.000 C 177.536,135.052 177.696,135.402 180.500,133.000" stroke-width="3.967" stroke="black" fill="none" stroke-linecap="round"></path><path d="M 180.500,133.000 C 184.494,131.006 184.036,130.552 187.500,128.000" stroke-width="3.900" stroke="black" fill="none" stroke-linecap="round"></path><path d="M 187.500,128.000 C 191.073,124.314 190.994,124.506 193.500,120.000" stroke-width="3.582" stroke="black" fill="none" stroke-linecap="round"></path><path d="M 193.500,120.000 C 195.228,116.071 195.573,116.314 196.500,112.000" stroke-width="3.641" stroke="black" fill="none" stroke-linecap="round"></path><path d="M 196.500,112.000 C 197.921,108.052 197.728,108.071 198.500,104.000" stroke-width="3.690" stroke="black" fill="none" stroke-linecap="round"></path><path d="M 198.500,104.000 C 200.500,99.000 198.921,101.052 198.500,98.000" stroke-width="4.379" stroke="black" fill="none" stroke-linecap="round"></path><path d="M 198.500,98.000 C 192.481,97.701 194.500,96.000 186.500,98.000" stroke-width="4.222" stroke="black" fill="none" stroke-linecap="round"></path><path d="M 186.500,98.000 C 182.071,97.438 182.481,98.201 178.500,99.000" stroke-width="3.873" stroke="black" fill="none" stroke-linecap="round"></path><path d="M 178.500,99.000 C 174.150,101.631 174.071,100.938 170.500,105.000" stroke-width="3.635" stroke="black" fill="none" stroke-linecap="round"></path><path d="M 170.500,105.000 C 167.652,107.772 167.650,107.631 165.500,111.000" stroke-width="3.786" stroke="black" fill="none" stroke-linecap="round"></path><path d="M 165.500,111.000 C 163.636,113.875 163.652,113.772 162.500,117.000" stroke-width="3.908" stroke="black" fill="none" stroke-linecap="round"></path><path d="M 162.500,117.000 C 161.500,119.478 161.636,119.375 161.500,122.000" stroke-width="4.192" stroke="black" fill="none" stroke-linecap="round"></path><path d="M 161.500,122.000 C 160.743,127.192 161.500,126.478 162.500,131.000" stroke-width="4.364" stroke="black" fill="none" stroke-linecap="round"></path><path d="M 162.500,131.000 C 164.715,133.501 163.743,133.692 167.500,135.000" stroke-width="4.115" stroke="black" fill="none" stroke-linecap="round"></path><path d="M 167.500,135.000 C 171.412,136.798 171.215,137.001 175.500,138.000" stroke-width="3.848" stroke="black" fill="none" stroke-linecap="round"></path><path d="M 175.500,138.000 C 179.972,139.151 179.912,139.298 184.500,140.000" stroke-width="3.705" stroke="black" fill="none" stroke-linecap="round"></path><path d="M 184.500,140.000 C 187.982,140.749 187.972,140.651 191.500,141.000" stroke-width="3.840" stroke="black" fill="none" stroke-linecap="round"></path><path d="M 191.500,141.000 C 195.000,141.000 194.982,141.249 198.500,141.000" stroke-width="3.985" stroke="black" fill="none" stroke-linecap="round"></path><path d="M 290.500,56.000 C 283.978,54.000 284.000,55.000 277.500,54.000" stroke-width="4.528" stroke="black" fill="none" stroke-linecap="round"></path><path d="M 277.500,54.000 C 272.250,54.273 272.478,54.000 267.500,56.000" stroke-width="3.828" stroke="black" fill="none" stroke-linecap="round"></path><path d="M 267.500,56.000 C 260.888,58.151 261.250,58.273 255.500,62.000" stroke-width="3.256" stroke="black" fill="none" stroke-linecap="round"></path><path d="M 255.500,62.000 C 250.700,66.240 250.388,65.651 246.500,71.000" stroke-width="3.228" stroke="black" fill="none" stroke-linecap="round"></path><path d="M 246.500,71.000 C 243.055,74.742 243.200,74.740 240.500,79.000" stroke-width="3.388" stroke="black" fill="none" stroke-linecap="round"></path><path d="M 240.500,79.000 C 237.986,82.357 238.555,82.242 237.500,86.000" stroke-width="3.721" stroke="black" fill="none" stroke-linecap="round"></path><path d="M 237.500,86.000 C 236.275,91.528 236.986,89.857 238.500,94.000" stroke-width="4.247" stroke="black" fill="none" stroke-linecap="round"></path><path d="M 238.500,94.000 C 242.436,95.522 240.775,96.528 246.500,96.000" stroke-width="3.915" stroke="black" fill="none" stroke-linecap="round"></path><path d="M 246.500,96.000 C 251.000,96.000 250.936,96.522 255.500,96.000" stroke-width="3.746" stroke="black" fill="none" stroke-linecap="round"></path><path d="M 255.500,96.000 C 260.714,97.008 260.500,96.000 265.500,96.000" stroke-width="3.601" stroke="black" fill="none" stroke-linecap="round"></path><path d="M 265.500,96.000 C 270.451,94.699 270.214,95.008 274.500,92.000" stroke-width="3.573" stroke="black" fill="none" stroke-linecap="round"></path><path d="M 274.500,92.000 C 279.575,88.486 279.451,88.699 283.500,84.000" stroke-width="3.311" stroke="black" fill="none" stroke-linecap="round"></path><path d="M 283.500,84.000 C 286.287,80.150 286.575,80.486 288.500,76.000" stroke-width="3.467" stroke="black" fill="none" stroke-linecap="round"></path><path d="M 288.500,76.000 C 290.768,72.658 290.287,72.650 291.500,69.000" stroke-width="3.749" stroke="black" fill="none" stroke-linecap="round"></path><path d="M 291.500,69.000 C 293.132,63.992 292.268,65.158 291.500,61.000" stroke-width="4.278" stroke="black" fill="none" stroke-linecap="round"></path><path d="M 291.500,61.000 C 288.442,58.000 290.132,58.492 285.500,58.000" stroke-width="4.548" stroke="black" fill="none" stroke-linecap="round"></path><path d="M 285.500,58.000 C 281.274,58.523 282.942,58.000 280.500,61.000" stroke-width="4.873" stroke="black" fill="none" stroke-linecap="round"></path><path d="M 280.500,61.000 C 280.500,67.500 278.774,66.523 280.500,74.000" stroke-width="4.281" stroke="black" fill="none" stroke-linecap="round"></path><path d="M 280.500,74.000 C 280.500,79.500 280.500,79.500 280.500,85.000" stroke-width="3.570" stroke="black" fill="none" stroke-linecap="round"></path><path d="M 280.500,85.000 C 281.166,91.562 280.500,91.500 280.500,98.000" stroke-width="3.293" stroke="black" fill="none" stroke-linecap="round"></path><path d="M 280.500,98.000 C 279.759,106.221 279.666,106.062 277.500,114.000" stroke-width="2.988" stroke="black" fill="none" stroke-linecap="round"></path><path d="M 277.500,114.000 C 274.711,121.591 275.259,121.721 271.500,129.000" stroke-width="2.914" stroke="black" fill="none" stroke-linecap="round"></path><path d="M 271.500,129.000 C 268.529,136.805 268.211,136.591 264.500,144.000" stroke-width="2.926" stroke="black" fill="none" stroke-linecap="round"></path><path d="M 264.500,144.000 C 261.160,149.120 261.529,149.305 257.500,154.000" stroke-width="3.161" stroke="black" fill="none" stroke-linecap="round"></path><path d="M 257.500,154.000 C 253.598,159.082 253.660,159.120 249.500,164.000" stroke-width="3.194" stroke="black" fill="none" stroke-linecap="round"></path><path d="M 249.500,164.000 C 246.360,168.381 246.098,168.082 242.500,172.000" stroke-width="3.322" stroke="black" fill="none" stroke-linecap="round"></path><path d="M 242.500,172.000 C 238.000,175.500 238.360,175.881 233.500,179.000" stroke-width="3.353" stroke="black" fill="none" stroke-linecap="round"></path><path d="M 233.500,179.000 C 229.324,183.014 229.000,182.500 224.500,186.000" stroke-width="3.363" stroke="black" fill="none" stroke-linecap="round"></path><path d="M 224.500,186.000 C 218.500,189.000 218.824,189.514 212.500,192.000" stroke-width="3.206" stroke="black" fill="none" stroke-linecap="round"></path><path d="M 212.500,192.000 C 207.551,194.608 207.500,194.500 202.500,197.000" stroke-width="3.218" stroke="black" fill="none" stroke-linecap="round"></path><path d="M 202.500,197.000 C 198.112,199.353 198.051,199.108 193.500,201.000" stroke-width="3.398" stroke="black" fill="none" stroke-linecap="round"></path><path d="M 372.500,41.000 C 367.707,44.162 367.500,43.500 362.500,46.000" stroke-width="4.197" stroke="black" fill="none" stroke-linecap="round"></path><path d="M 362.500,46.000 C 358.625,45.520 359.207,47.162 355.500,47.000" stroke-width="4.085" stroke="black" fill="none" stroke-linecap="round"></path><path d="M 355.500,47.000 C 349.638,51.223 349.125,50.020 343.500,55.000" stroke-width="3.225" stroke="black" fill="none" stroke-linecap="round"></path><path d="M 343.500,55.000 C 336.144,58.482 336.638,59.223 329.500,63.000" stroke-width="3.040" stroke="black" fill="none" stroke-linecap="round"></path><path d="M 329.500,63.000 C 323.789,67.267 323.644,66.982 318.500,72.000" stroke-width="2.997" stroke="black" fill="none" stroke-linecap="round"></path><path d="M 318.500,72.000 C 314.332,75.849 314.289,75.767 310.500,80.000" stroke-width="3.348" stroke="black" fill="none" stroke-linecap="round"></path><path d="M 310.500,80.000 C 305.437,83.051 308.332,82.349 306.500,85.000" stroke-width="3.833" stroke="black" fill="none" stroke-linecap="round"></path><path d="M 306.500,85.000 C 311.139,88.958 308.437,88.551 316.500,91.000" stroke-width="4.326" stroke="black" fill="none" stroke-linecap="round"></path><path d="M 316.500,91.000 C 322.000,92.000 321.639,92.958 327.500,93.000" stroke-width="3.628" stroke="black" fill="none" stroke-linecap="round"></path><path d="M 327.500,93.000 C 333.271,93.257 333.000,94.000 338.500,95.000" stroke-width="3.460" stroke="black" fill="none" stroke-linecap="round"></path><path d="M 338.500,95.000 C 343.024,96.074 342.271,96.257 345.500,99.000" stroke-width="3.702" stroke="black" fill="none" stroke-linecap="round"></path><path d="M 345.500,99.000 C 348.925,103.400 348.524,102.574 349.500,108.000" stroke-width="4.140" stroke="black" fill="none" stroke-linecap="round"></path><path d="M 349.500,108.000 C 349.407,112.034 349.925,111.400 347.500,115.000" stroke-width="3.997" stroke="black" fill="none" stroke-linecap="round"></path><path d="M 347.500,115.000 C 344.218,118.747 344.907,119.034 340.500,122.000" stroke-width="3.677" stroke="black" fill="none" stroke-linecap="round"></path><path d="M 340.500,122.000 C 336.196,125.787 336.218,125.747 331.500,129.000" stroke-width="3.393" stroke="black" fill="none" stroke-linecap="round"></path><path d="M 331.500,129.000 C 326.546,132.079 326.696,132.287 321.500,135.000" stroke-width="3.353" stroke="black" fill="none" stroke-linecap="round"></path><path d="M 321.500,135.000 C 317.054,137.603 317.046,137.579 312.500,140.000" stroke-width="3.457" stroke="black" fill="none" stroke-linecap="round"></path><path d="M 312.500,140.000 C 307.671,142.932 307.554,142.603 302.500,145.000" stroke-width="3.354" stroke="black" fill="none" stroke-linecap="round"></path><path d="M 302.500,145.000 C 297.508,146.527 297.671,146.932 292.500,148.000" stroke-width="3.444" stroke="black" fill="none" stroke-linecap="round"></path><path d="M 292.500,148.000 C 289.029,149.118 289.008,149.027 285.500,150.000" stroke-width="3.776" stroke="black" fill="none" stroke-linecap="round"></path><path d="M 426.500,56.000 C 426.419,62.568 426.000,62.500 425.500,69.000" stroke-width="4.726" stroke="black" fill="none" stroke-linecap="round"></path><path d="M 425.500,69.000 C 424.444,72.987 424.919,73.068 423.500,77.000" stroke-width="4.028" stroke="black" fill="none" stroke-linecap="round"></path><path d="M 423.500,77.000 C 422.349,81.472 422.444,81.487 421.500,86.000" stroke-width="3.753" stroke="black" fill="none" stroke-linecap="round"></path><path d="M 421.500,86.000 C 418.586,91.086 420.849,89.472 420.500,93.000" stroke-width="3.856" stroke="black" fill="none" stroke-linecap="round"></path><path d="M 420.500,93.000 C 425.948,96.000 423.586,96.086 431.500,96.000" stroke-width="4.077" stroke="black" fill="none" stroke-linecap="round"></path><path d="M 431.500,96.000 C 439.615,95.984 438.948,96.000 446.500,93.000" stroke-width="3.292" stroke="black" fill="none" stroke-linecap="round"></path><path d="M 446.500,93.000 C 454.117,88.168 454.615,89.484 461.500,83.000" stroke-width="2.877" stroke="black" fill="none" stroke-linecap="round"></path><path d="M 461.500,83.000 C 469.301,77.866 469.117,77.668 476.500,72.000" stroke-width="2.678" stroke="black" fill="none" stroke-linecap="round"></path><path d="M 476.500,72.000 C 483.093,67.008 482.801,66.866 488.500,61.000" stroke-width="2.812" stroke="black" fill="none" stroke-linecap="round"></path><path d="M 488.500,61.000 C 491.830,56.673 492.093,57.008 494.500,52.000" stroke-width="3.172" stroke="black" fill="none" stroke-linecap="round"></path><path d="M 494.500,52.000 C 497.446,48.182 495.830,49.673 496.500,47.000" stroke-width="3.833" stroke="black" fill="none" stroke-linecap="round"></path><path d="M 496.500,47.000 C 493.086,45.793 495.446,45.682 490.500,47.000" stroke-width="4.535" stroke="black" fill="none" stroke-linecap="round"></path><path d="M 490.500,47.000 C 485.782,50.253 485.586,49.293 481.500,54.000" stroke-width="3.712" stroke="black" fill="none" stroke-linecap="round"></path><path d="M 481.500,54.000 C 477.753,57.282 477.782,57.253 474.500,61.000" stroke-width="3.601" stroke="black" fill="none" stroke-linecap="round"></path><path d="M 474.500,61.000 C 470.413,65.145 470.753,65.282 467.500,70.000" stroke-width="3.373" stroke="black" fill="none" stroke-linecap="round"></path><path d="M 467.500,70.000 C 465.017,75.508 464.413,75.145 462.500,81.000" stroke-width="3.368" stroke="black" fill="none" stroke-linecap="round"></path><path d="M 462.500,81.000 C 459.034,87.320 459.517,87.508 456.500,94.000" stroke-width="3.141" stroke="black" fill="none" stroke-linecap="round"></path><path d="M 456.500,94.000 C 454.150,102.050 453.534,101.820 451.500,110.000" stroke-width="2.918" stroke="black" fill="none" stroke-linecap="round"></path><path d="M 451.500,110.000 C 448.850,116.950 449.150,117.050 446.500,124.000" stroke-width="2.976" stroke="black" fill="none" stroke-linecap="round"></path><path d="M 446.500,124.000 C 444.231,132.080 443.850,131.950 441.500,140.000" stroke-width="2.874" stroke="black" fill="none" stroke-linecap="round"></path><path d="M 441.500,140.000 C 439.301,146.633 439.231,146.580 436.500,153.000" stroke-width="3.170" stroke="black" fill="none" stroke-linecap="round"></path><path d="M 436.500,153.000 C 434.189,159.466 433.801,159.133 430.500,165.000" stroke-width="3.152" stroke="black" fill="none" stroke-linecap="round"></path><path d="M 430.500,165.000 C 426.751,169.749 427.189,169.966 422.500,174.000" stroke-width="3.192" stroke="black" fill="none" stroke-linecap="round"></path><path d="M 422.500,174.000 C 417.832,178.937 417.751,178.749 412.500,183.000" stroke-width="3.155" stroke="black" fill="none" stroke-linecap="round"></path><path d="M 412.500,183.000 C 407.143,186.745 407.332,186.937 401.500,190.000" stroke-width="3.175" stroke="black" fill="none" stroke-linecap="round"></path><path d="M 401.500,190.000 C 394.100,194.200 394.143,194.245 386.500,198.000" stroke-width="2.912" stroke="black" fill="none" stroke-linecap="round"></path><path d="M 386.500,198.000 C 379.081,201.684 379.100,201.700 371.500,205.000" stroke-width="2.807" stroke="black" fill="none" stroke-linecap="round"></path><path d="M 371.500,205.000 C 362.936,208.352 363.081,208.684 354.500,212.000" stroke-width="2.733" stroke="black" fill="none" stroke-linecap="round"></path><path d="M 354.500,212.000 C 344.185,215.884 344.436,216.352 334.500,221.000" stroke-width="2.533" stroke="black" fill="none" stroke-linecap="round"></path><path d="M 334.500,221.000 C 309.116,236.011 317.685,229.884 301.500,240.000" stroke-width="1.300" stroke="black" fill="none" stroke-linecap="round"></path><path d="M 89.500,235.000 C 93.513,233.533 93.500,233.500 97.500,232.000" stroke-width="4.893" stroke="black" fill="none" stroke-linecap="round"></path><path d="M 97.500,232.000 C 100.216,231.370 100.013,231.033 102.500,230.000" stroke-width="4.393" stroke="black" fill="none" stroke-linecap="round"></path><path d="M 102.500,230.000 C 104.897,227.859 105.216,228.370 107.500,226.000" stroke-width="4.219" stroke="black" fill="none" stroke-linecap="round"></path><path d="M 107.500,226.000 C 112.000,223.000 111.897,222.859 116.500,220.000" stroke-width="3.640" stroke="black" fill="none" stroke-linecap="round"></path><path d="M 116.500,220.000 C 121.000,217.000 121.000,217.000 125.500,214.000" stroke-width="3.437" stroke="black" fill="none" stroke-linecap="round"></path><path d="M 125.500,214.000 C 129.960,210.938 130.000,211.000 134.500,208.000" stroke-width="3.437" stroke="black" fill="none" stroke-linecap="round"></path><path d="M 134.500,208.000 C 138.738,205.821 138.460,205.438 142.500,203.000" stroke-width="3.508" stroke="black" fill="none" stroke-linecap="round"></path><path d="M 142.500,203.000 C 146.287,199.222 146.738,199.821 150.500,196.000" stroke-width="3.417" stroke="black" fill="none" stroke-linecap="round"></path><path d="M 150.500,196.000 C 155.181,193.239 154.787,192.722 159.500,190.000" stroke-width="3.484" stroke="black" fill="none" stroke-linecap="round"></path><path d="M 159.500,190.000 C 163.396,187.363 163.181,187.239 166.500,184.000" stroke-width="3.543" stroke="black" fill="none" stroke-linecap="round"></path><path d="M 166.500,184.000 C 168.879,180.407 169.396,180.863 171.500,177.000" stroke-width="3.623" stroke="black" fill="none" stroke-linecap="round"></path><path d="M 171.500,177.000 C 174.027,174.022 173.879,173.907 176.500,171.000" stroke-width="3.731" stroke="black" fill="none" stroke-linecap="round"></path><path d="M 176.500,171.000 C 178.870,168.716 178.527,168.522 180.500,166.000" stroke-width="3.973" stroke="black" fill="none" stroke-linecap="round"></path><path d="M 180.500,166.000 C 183.446,162.182 181.870,163.716 182.500,161.000" stroke-width="4.552" stroke="black" fill="none" stroke-linecap="round"></path><path d="M 182.500,161.000 C 179.273,160.147 181.446,159.682 176.500,161.000" stroke-width="4.996" stroke="black" fill="none" stroke-linecap="round"></path><path d="M 176.500,161.000 C 172.802,162.714 172.773,162.147 169.500,165.000" stroke-width="4.107" stroke="black" fill="none" stroke-linecap="round"></path><path d="M 169.500,165.000 C 166.387,167.376 166.302,167.214 163.500,170.000" stroke-width="3.927" stroke="black" fill="none" stroke-linecap="round"></path><path d="M 163.500,170.000 C 161.124,172.638 160.887,172.376 158.500,175.000" stroke-width="3.959" stroke="black" fill="none" stroke-linecap="round"></path><path d="M 158.500,175.000 C 155.754,176.746 156.124,177.138 153.500,179.000" stroke-width="4.000" stroke="black" fill="none" stroke-linecap="round"></path><path d="M 153.500,179.000 C 149.718,182.057 150.254,182.246 147.500,186.000" stroke-width="4.306" stroke="black" fill="none" stroke-linecap="round"></path><path d="M 147.500,186.000 C 145.768,190.436 145.218,190.057 144.500,195.000" stroke-width="4.370" stroke="black" fill="none" stroke-linecap="round"></path><path d="M 144.500,195.000 C 143.300,199.465 143.268,199.436 142.500,204.000" stroke-width="4.408" stroke="black" fill="none" stroke-linecap="round"></path><path d="M 142.500,204.000 C 142.113,208.018 141.800,207.965 141.500,212.000" stroke-width="4.522" stroke="black" fill="none" stroke-linecap="round"></path><path d="M 141.500,212.000 C 140.919,214.486 141.113,214.518 140.500,217.000" stroke-width="4.339" stroke="black" fill="none" stroke-linecap="round"></path><path d="M 140.500,217.000 C 140.292,220.569 139.919,220.486 139.500,224.000" stroke-width="4.124" stroke="black" fill="none" stroke-linecap="round"></path><path d="M 139.500,224.000 C 138.801,227.138 138.792,227.069 137.500,230.000" stroke-width="4.107" stroke="black" fill="none" stroke-linecap="round"></path><path d="M 137.500,230.000 C 135.969,232.482 136.301,232.638 134.500,235.000" stroke-width="4.164" stroke="black" fill="none" stroke-linecap="round"></path><path d="M 134.500,235.000 C 132.531,238.518 132.469,238.482 130.500,242.000" stroke-width="4.407" stroke="black" fill="none" stroke-linecap="round"></path><path d="M 130.500,242.000 C 129.180,244.621 129.031,244.518 127.500,247.000" stroke-width="4.676" stroke="black" fill="none" stroke-linecap="round"></path><path d="M 127.500,247.000 C 122.820,252.879 123.180,253.121 118.500,259.000" stroke-width="4.107" stroke="black" fill="none" stroke-linecap="round"></path><path d="M 118.500,259.000 C 117.520,261.980 116.820,261.379 115.500,264.000" stroke-width="4.164" stroke="black" fill="none" stroke-linecap="round"></path><path d="M 115.500,264.000 C 111.492,266.008 112.520,266.980 108.500,269.000" stroke-width="4.368" stroke="black" fill="none" stroke-linecap="round"></path><path d="M 108.500,269.000 C 106.742,272.198 105.992,271.508 104.500,275.000" stroke-width="4.555" stroke="black" fill="none" stroke-linecap="round"></path><path d="M 104.500,275.000 C 102.768,277.351 102.742,277.198 100.500,279.000" stroke-width="4.268" stroke="black" fill="none" stroke-linecap="round"></path><path d="M 100.500,279.000 C 96.982,280.969 97.268,281.351 93.500,283.000" stroke-width="4.459" stroke="black" fill="none" stroke-linecap="round"></path><path d="M 93.500,283.000 C 91.058,284.605 90.982,284.469 88.500,286.000" stroke-width="4.933" stroke="black" fill="none" stroke-linecap="round"></path><path d="M 88.500,286.000 C 84.489,289.568 85.558,287.605 82.500,289.000" stroke-width="4.952" stroke="black" fill="none" stroke-linecap="round"></path><path d="M 82.500,289.000 C 80.879,286.278 80.989,288.568 81.500,284.000" stroke-width="5.284" stroke="black" fill="none" stroke-linecap="round"></path><path d="M 81.500,284.000 C 83.277,280.829 82.379,280.778 85.500,278.000" stroke-width="4.273" stroke="black" fill="none" stroke-linecap="round"></path><path d="M 85.500,278.000 C 89.019,274.016 88.777,273.829 92.500,270.000" stroke-width="3.606" stroke="black" fill="none" stroke-linecap="round"></path><path d="M 92.500,270.000 C 95.366,266.376 95.519,266.516 98.500,263.000" stroke-width="3.635" stroke="black" fill="none" stroke-linecap="round"></path><path d="M 98.500,263.000 C 101.578,258.941 101.866,259.376 105.500,256.000" stroke-width="3.631" stroke="black" fill="none" stroke-linecap="round"></path><path d="M 105.500,256.000 C 110.046,253.579 109.578,252.941 114.500,251.000" stroke-width="3.483" stroke="black" fill="none" stroke-linecap="round"></path><path d="M 114.500,251.000 C 119.395,247.808 119.546,248.079 124.500,245.000" stroke-width="3.319" stroke="black" fill="none" stroke-linecap="round"></path><path d="M 124.500,245.000 C 129.500,242.500 129.395,242.308 134.500,240.000" stroke-width="3.314" stroke="black" fill="none" stroke-linecap="round"></path><path d="M 134.500,240.000 C 140.605,237.193 140.500,237.000 146.500,234.000" stroke-width="3.250" stroke="black" fill="none" stroke-linecap="round"></path><path d="M 146.500,234.000 C 152.645,230.726 152.605,230.693 158.500,227.000" stroke-width="3.079" stroke="black" fill="none" stroke-linecap="round"></path><path d="M 158.500,227.000 C 163.500,223.500 163.645,223.726 168.500,220.000" stroke-width="3.213" stroke="black" fill="none" stroke-linecap="round"></path><path d="M 168.500,220.000 C 173.689,216.742 173.500,216.500 178.500,213.000" stroke-width="3.197" stroke="black" fill="none" stroke-linecap="round"></path><path d="M 178.500,213.000 C 182.617,209.625 182.689,209.742 186.500,206.000" stroke-width="3.377" stroke="black" fill="none" stroke-linecap="round"></path><path d="M 186.500,206.000 C 189.883,202.375 190.117,202.625 193.500,199.000" stroke-width="3.445" stroke="black" fill="none" stroke-linecap="round"></path><path d="M 193.500,199.000 C 197.607,195.615 197.383,195.375 201.500,192.000" stroke-width="3.456" stroke="black" fill="none" stroke-linecap="round"></path><path d="M 201.500,192.000 C 204.365,188.850 204.607,189.115 207.500,186.000" stroke-width="3.658" stroke="black" fill="none" stroke-linecap="round"></path><path d="M 207.500,186.000 C 210.250,184.250 209.865,183.850 212.500,182.000" stroke-width="3.947" stroke="black" fill="none" stroke-linecap="round"></path><path d="M 212.500,182.000 C 214.500,179.500 214.750,179.750 216.500,177.000" stroke-width="3.996" stroke="black" fill="none" stroke-linecap="round"></path><path d="M 216.500,177.000 C 221.357,172.428 218.500,174.500 220.500,172.000" stroke-width="4.471" stroke="black" fill="none" stroke-linecap="round"></path><path d="M 220.500,172.000 C 216.359,173.199 219.357,171.428 212.500,175.000" stroke-width="5.131" stroke="black" fill="none" stroke-linecap="round"></path><path d="M 212.500,175.000 C 208.784,176.682 208.859,176.699 205.500,179.000" stroke-width="4.133" stroke="black" fill="none" stroke-linecap="round"></path><path d="M 205.500,179.000 C 200.436,182.922 200.284,182.682 195.500,187.000" stroke-width="3.371" stroke="black" fill="none" stroke-linecap="round"></path><path d="M 195.500,187.000 C 189.020,192.523 188.936,192.422 182.500,198.000" stroke-width="2.891" stroke="black" fill="none" stroke-linecap="round"></path><path d="M 182.500,198.000 C 176.361,202.842 176.520,203.023 170.500,208.000" stroke-width="2.919" stroke="black" fill="none" stroke-linecap="round"></path><path d="M 170.500,208.000 C 164.010,214.011 163.861,213.842 157.500,220.000" stroke-width="2.741" stroke="black" fill="none" stroke-linecap="round"></path><path d="M 157.500,220.000 C 151.386,225.381 151.510,225.511 145.500,231.000" stroke-width="2.887" stroke="black" fill="none" stroke-linecap="round"></path><path d="M 145.500,231.000 C 140.625,236.131 140.386,235.881 135.500,241.000" stroke-width="2.955" stroke="black" fill="none" stroke-linecap="round"></path><path d="M 135.500,241.000 C 130.406,245.401 130.625,245.631 125.500,250.000" stroke-width="3.025" stroke="black" fill="none" stroke-linecap="round"></path><path d="M 125.500,250.000 C 122.635,253.150 122.406,252.901 119.500,256.000" stroke-width="3.500" stroke="black" fill="none" stroke-linecap="round"></path></svg>