<svg xmlns="http://www.w3.org/2000/svg" xmlns:xlink="http://www.w3.org/1999/xlink" viewBox="0 0 753 829" width="753" height="829"><path d="M 166.500,137.000 C 160.862,132.181 160.500,133.000 154.500,129.000" stroke-width="4.555" stroke="black" fill="none" stroke-linecap="round"></path><path d="M 154.500,129.000 C 150.432,128.210 150.862,127.181 146.500,127.000" stroke-width="4.517" stroke="black" fill="none" stroke-linecap="round"></path><path d="M 146.500,127.000 C 143.695,126.463 143.932,126.210 141.500,125.000" stroke-width="4.296" stroke="black" fill="none" stroke-linecap="round"></path><path d="M 141.500,125.000 C 139.500,123.000 139.195,123.463 137.500,121.000" stroke-width="4.243" stroke="black" fill="none" stroke-linecap="round"></path><path d="M 137.500,121.000 C 135.611,118.876 135.500,119.000 133.500,117.000" stroke-width="4.227" stroke="black" fill="none" stroke-linecap="round"></path><path d="M 133.500,117.000 C 131.117,114.832 131.111,114.876 128.500,113.000" stroke-width="4.078" stroke="black" fill="none" stroke-linecap="round"></path><path d="M 128.500,113.000 C 126.058,111.395 126.117,111.332 123.500,110.000" stroke-width="4.155" stroke="black" fill="none" stroke-linecap="round"></path><path d="M 123.500,110.000 C 120.178,108.947 120.558,108.395 117.500,107.000" stroke-width="4.521" stroke="black" fill="none" stroke-linecap="round"></path><path d="M 117.500,107.000 C 112.500,104.500 114.678,104.947 112.500,102.000" stroke-width="4.790" stroke="black" fill="none" stroke-linecap="round"></path><path d="M 112.500,102.000 C 114.662,98.987 112.500,99.500 117.500,97.000" stroke-width="5.300" stroke="black" fill="none" stroke-linecap="round"></path><path d="M 117.500,97.000 C 120.099,96.200 119.662,95.487 122.500,95.000" stroke-width="4.623" stroke="black" fill="none" stroke-linecap="round"></path><path d="M 122.500,95.000 C 124.942,93.395 125.099,93.700 127.500,92.000" stroke-width="4.395" stroke="black" fill="none" stroke-linecap="round"></path><path d="M 127.500,92.000 C 130.558,90.605 130.442,90.395 133.500,89.000" stroke-width="4.135" stroke="black" fill="none" stroke-linecap="round"></path><path d="M 133.500,89.000 C 135.868,87.239 136.058,87.605 138.500,86.000" stroke-width="4.172" stroke="black" fill="none" stroke-linecap="round"></path><path d="M 138.500,86.000 C 144.395,83.155 144.368,83.239 150.500,81.000" stroke-width="3.362" stroke="black" fill="none" stroke-linecap="round"></path><path d="M 150.500,81.000 C 153.045,80.670 152.895,80.155 155.500,80.000" stroke-width="3.947" stroke="black" fill="none" stroke-linecap="round"></path><path d="M 155.500,80.000 C 158.455,78.830 158.545,79.170 161.500,78.000" stroke-width="4.444" stroke="black" fill="none" stroke-linecap="round"></path><path d="M 161.500,78.000 C 166.000,75.500 163.955,77.330 166.500,77.000" stroke-width="4.924" stroke="black" fill="none" stroke-linecap="round"></path><path d="M 166.500,77.000 C 166.008,82.174 167.500,80.000 164.500,87.000" stroke-width="5.295" stroke="black" fill="none" stroke-linecap="round"></path><path d="M 164.500,87.000 C 163.187,90.108 163.508,90.174 161.500,93.000" stroke-width="4.396" stroke="black" fill="none" stroke-linecap="round"></path><path d="M 161.500,93.000 C 159.552,96.036 159.687,96.108 157.500,99.000" stroke-width="4.020" stroke="black" fill="none" stroke-linecap="round"></path><path d="M 157.500,99.000 C 154.936,102.456 155.052,102.536 152.500,106.000" stroke-width="3.816" stroke="black" fill="none" stroke-linecap="round"></path><path d="M 152.500,106.000 C 149.664,110.619 149.436,110.456 146.500,115.000" stroke-width="3.482" stroke="black" fill="none" stroke-linecap="round"></path><path d="M 146.500,115.000 C 143.148,119.623 143.164,119.619 139.500,124.000" stroke-width="3.341" stroke="black" fill="none" stroke-linecap="round"></path><path d="M 139.500,124.000 C 135.352,128.377 135.648,128.623 131.500,133.000" stroke-width="3.248" stroke="black" fill="none" stroke-linecap="round"></path><path d="M 131.500,133.000 C 128.000,137.500 127.852,137.377 124.500,142.000" stroke-width="3.273" stroke="black" fill="none" stroke-linecap="round"></path><path d="M 124.500,142.000 C 120.963,146.472 121.000,146.500 117.500,151.000" stroke-width="3.338" stroke="black" fill="none" stroke-linecap="round"></path><path d="M 117.500,151.000 C 114.537,155.028 114.463,154.972 111.500,159.000" stroke-width="3.424" stroke="black" fill="none" stroke-linecap="round"></path><path d="M 111.500,159.000 C 107.713,163.304 108.037,163.528 104.500,168.000" stroke-width="3.384" stroke="black" fill="none" stroke-linecap="round"></path><path d="M 104.500,168.000 C 101.421,172.954 101.213,172.804 98.500,178.000" stroke-width="3.350" stroke="black" fill="none" stroke-linecap="round"></path><path d="M 98.500,178.000 C 96.347,182.729 95.921,182.454 93.500,187.000" stroke-width="3.456" stroke="black" fill="none" stroke-linecap="round"></path><path d="M 93.500,187.000 C 89.713,191.304 90.347,191.729 86.500,196.000" stroke-width="3.334" stroke="black" fill="none" stroke-linecap="round"></path><path d="M 86.500,196.000 C 83.900,201.292 83.213,200.804 80.500,206.000" stroke-width="3.336" stroke="black" fill="none" stroke-linecap="round"></path><path d="M 80.500,206.000 C 76.959,209.965 77.400,210.292 73.500,214.000" stroke-width="3.366" stroke="black" fill="none" stroke-linecap="round"></path><path d="M 73.500,214.000 C 71.136,217.124 70.959,216.965 68.500,220.000" stroke-width="3.694" stroke="black" fill="none" stroke-linecap="round"></path><path d="M 68.500,220.000 C 65.364,222.876 65.636,223.124 62.500,226.000" stroke-width="3.734" stroke="black" fill="none" stroke-linecap="round"></path><path d="M 62.500,226.000 C 60.248,229.252 59.864,228.876 57.500,232.000" stroke-width="3.818" stroke="black" fill="none" stroke-linecap="round"></path><path d="M 57.500,232.000 C 55.000,234.000 55.248,234.252 52.500,236.000" stroke-width="3.955" stroke="black" fill="none" stroke-linecap="round"></path><path d="M 52.500,236.000 C 50.000,238.000 50.000,238.000 47.500,240.000" stroke-width="4.046" stroke="black" fill="none" stroke-linecap="round"></path><path d="M 47.500,240.000 C 45.216,242.370 45.000,242.000 42.500,244.000" stroke-width="4.026" stroke="black" fill="none" stroke-linecap="round"></path><path d="M 42.500,244.000 C 38.439,246.939 40.216,245.370 37.500,246.000" stroke-width="4.573" stroke="black" fill="none" stroke-linecap="round"></path><path d="M 37.500,246.000 C 37.300,242.742 36.439,244.939 38.500,240.000" stroke-width="5.087" stroke="black" fill="none" stroke-linecap="round"></path><path d="M 38.500,240.000 C 41.544,235.026 40.800,234.742 44.500,230.000" stroke-width="4.447" stroke="black" fill="none" stroke-linecap="round"></path><path d="M 44.500,230.000 C 46.064,226.167 46.544,226.526 48.500,223.000" stroke-width="3.985" stroke="black" fill="none" stroke-linecap="round"></path><path d="M 48.500,223.000 C 51.769,220.228 51.064,219.667 54.500,217.000" stroke-width="3.819" stroke="black" fill="none" stroke-linecap="round"></path><path d="M 54.500,217.000 C 56.710,213.255 57.269,213.728 59.500,210.000" stroke-width="3.760" stroke="black" fill="none" stroke-linecap="round"></path><path d="M 59.500,210.000 C 63.125,206.617 62.710,206.255 66.500,203.000" stroke-width="3.556" stroke="black" fill="none" stroke-linecap="round"></path><path d="M 66.500,203.000 C 69.750,198.750 70.125,199.117 73.500,195.000" stroke-width="3.431" stroke="black" fill="none" stroke-linecap="round"></path><path d="M 73.500,195.000 C 77.515,191.517 77.250,191.250 81.500,188.000" stroke-width="3.395" stroke="black" fill="none" stroke-linecap="round"></path><path d="M 81.500,188.000 C 86.000,184.000 86.015,184.017 90.500,180.000" stroke-width="3.263" stroke="black" fill="none" stroke-linecap="round"></path><path d="M 90.500,180.000 C 95.013,176.015 95.000,176.000 99.500,172.000" stroke-width="3.284" stroke="black" fill="none" stroke-linecap="round"></path><path d="M 99.500,172.000 C 104.377,167.355 104.513,167.515 109.500,163.000" stroke-width="3.182" stroke="black" fill="none" stroke-linecap="round"></path><path d="M 109.500,163.000 C 114.623,159.145 114.377,158.855 119.500,155.000" stroke-width="3.254" stroke="black" fill="none" stroke-linecap="round"></path><path d="M 119.500,155.000 C 124.257,150.194 124.623,150.645 129.500,146.000" stroke-width="3.113" stroke="black" fill="none" stroke-linecap="round"></path><path d="M 129.500,146.000 C 134.347,142.255 134.257,142.194 139.500,139.000" stroke-width="3.224" stroke="black" fill="none" stroke-linecap="round"></path><path d="M 139.500,139.000 C 143.951,136.408 143.847,136.255 148.500,134.000" stroke-width="3.415" stroke="black" fill="none" stroke-linecap="round"></path><path d="M 148.500,134.000 C 152.449,131.890 152.451,131.908 156.500,130.000" stroke-width="3.548" stroke="black" fill="none" stroke-linecap="round"></path><path d="M 156.500,130.000 C 159.985,128.464 159.949,128.390 163.500,127.000" stroke-width="3.728" stroke="black" fill="none" stroke-linecap="round"></path><path d="M 163.500,127.000 C 165.899,125.473 165.985,125.964 168.500,125.000" stroke-width="4.093" stroke="black" fill="none" stroke-linecap="round"></path><path d="M 168.500,125.000 C 172.218,123.732 171.399,124.473 174.500,125.000" stroke-width="4.538" stroke="black" fill="none" stroke-linecap="round"></path><path d="M 174.500,125.000 C 177.278,127.332 176.718,126.232 177.500,130.000" stroke-width="4.966" stroke="black" fill="none" stroke-linecap="round"></path><path d="M 177.500,130.000 C 177.189,133.864 177.778,133.332 175.500,137.000" stroke-width="4.710" stroke="black" fill="none" stroke-linecap="round"></path><path d="M 175.500,137.000 C 172.790,139.851 173.689,140.364 170.500,143.000" stroke-width="4.614" stroke="black" fill="none" stroke-linecap="round"></path><path d="M 170.500,143.000 C 167.048,145.740 168.790,145.351 167.500,148.000" stroke-width="4.729" stroke="black" fill="none" stroke-linecap="round"></path><path d="M 167.500,148.000 C 169.525,151.648 168.048,150.740 172.500,153.000" stroke-width="4.970" stroke="black" fill="none" stroke-linecap="round"></path><path d="M 172.500,153.000 C 175.579,153.487 175.025,154.148 178.500,153.000" stroke-width="4.372" stroke="black" fill="none" stroke-linecap="round"></path><path d="M 178.500,153.000 C 181.815,152.566 181.579,152.487 184.500,151.000" stroke-width="4.128" stroke="black" fill="none" stroke-linecap="round"></path><path d="M 184.500,151.000 C 187.624,148.636 187.815,149.066 190.500,146.000" stroke-width="3.932" stroke="black" fill="none" stroke-linecap="round"></path><path d="M 190.500,146.000 C 196.773,141.364 193.624,143.136 196.500,140.000" stroke-width="4.314" stroke="black" fill="none" stroke-linecap="round"></path><path d="M 196.500,140.000 C 192.524,139.399 196.273,138.864 189.500,141.000" stroke-width="4.781" stroke="black" fill="none" stroke-linecap="round"></path><path d="M 189.500,141.000 C 184.500,145.000 184.024,143.899 179.500,149.000" stroke-width="3.487" stroke="black" fill="none" stroke-linecap="round"></path><path d="M 179.500,149.000 C 174.332,152.812 174.500,153.000 169.500,157.000" stroke-width="3.287" stroke="black" fill="none" stroke-linecap="round"></path><path d="M 169.500,157.000 C 166.348,159.097 166.832,159.312 164.500,162.000" stroke-width="3.779" stroke="black" fill="none" stroke-linecap="round"></path><path d="M 164.500,162.000 C 160.700,167.018 162.848,164.597 162.500,168.000" stroke-width="4.406" stroke="black" fill="none" stroke-linecap="round"></path><path d="M 162.500,168.000 C 169.349,169.476 166.200,170.018 175.500,168.000" stroke-width="4.188" stroke="black" fill="none" stroke-linecap="round"></path><path d="M 175.500,168.000 C 181.453,164.902 181.849,166.476 187.500,162.000" stroke-width="3.462" stroke="black" fill="none" stroke-linecap="round"></path><path d="M 187.500,162.000 C 194.042,159.088 193.953,158.902 200.500,156.000" stroke-width="3.331" stroke="black" fill="none" stroke-linecap="round"></path><path d="M 200.500,156.000 C 205.454,153.403 205.542,153.588 210.500,151.000" stroke-width="3.374" stroke="black" fill="none" stroke-linecap="round"></path><path d="M 210.500,151.000 C 217.975,144.644 215.954,148.403 221.500,146.000" stroke-width="3.254" stroke="black" fill="none" stroke-linecap="round"></path><path d="M 221.500,146.000 C 223.500,151.024 224.475,147.144 223.500,156.000" stroke-width="4.149" stroke="black" fill="none" stroke-linecap="round"></path><path d="M 223.500,156.000 C 222.079,159.948 223.500,160.024 221.500,164.000" stroke-width="3.833" stroke="black" fill="none" stroke-linecap="round"></path><path d="M 221.500,164.000 C 220.739,167.211 221.079,166.948 221.500,170.000" stroke-width="4.055" stroke="black" fill="none" stroke-linecap="round"></path><path d="M 221.500,170.000 C 222.106,174.079 222.239,172.711 224.500,175.000" stroke-width="4.563" stroke="black" fill="none" stroke-linecap="round"></path><path d="M 224.500,175.000 C 229.526,175.398 228.606,176.579 234.500,175.000" stroke-width="3.732" stroke="black" fill="none" stroke-linecap="round"></path><path d="M 234.500,175.000 C 242.130,174.612 242.026,174.398 249.500,173.000" stroke-width="3.100" stroke="black" fill="none" stroke-linecap="round"></path><path d="M 249.500,173.000 C 258.000,170.500 258.130,171.112 266.500,168.000" stroke-width="2.850" stroke="black" fill="none" stroke-linecap="round"></path><path d="M 266.500,168.000 C 274.954,165.331 275.000,165.500 283.500,163.000" stroke-width="2.782" stroke="black" fill="none" stroke-linecap="round"></path><path d="M 283.500,163.000 C 291.533,161.124 291.454,160.831 299.500,159.000" stroke-width="2.833" stroke="black" fill="none" stroke-linecap="round"></path><path d="M 299.500,159.000 C 306.400,156.479 306.533,157.124 313.500,155.000" stroke-width="2.910" stroke="black" fill="none" stroke-linecap="round"></path><path d="M 313.500,155.000 C 318.489,154.278 318.400,153.979 323.500,154.000" stroke-width="3.271" stroke="black" fill="none" stroke-linecap="round"></path><path d="M 323.500,154.000 C 328.752,152.473 327.489,153.778 331.500,154.000" stroke-width="3.907" stroke="black" fill="none" stroke-linecap="round"></path><path d="M 331.500,154.000 C 332.331,156.467 333.252,154.973 332.500,159.000" stroke-width="4.548" stroke="black" fill="none" stroke-linecap="round"></path><path d="M 332.500,159.000 C 332.500,164.000 332.831,163.967 332.500,169.000" stroke-width="3.853" stroke="black" fill="none" stroke-linecap="round"></path><path d="M 332.500,169.000 C 331.976,173.073 332.500,173.000 332.500,177.000" stroke-width="3.833" stroke="black" fill="none" stroke-linecap="round"></path><path d="M 332.500,177.000 C 332.118,182.332 332.976,180.573 334.500,184.000" stroke-width="4.360" stroke="black" fill="none" stroke-linecap="round"></path><path d="M 334.500,184.000 C 338.712,185.033 337.118,185.832 342.500,184.000" stroke-width="3.971" stroke="black" fill="none" stroke-linecap="round"></path><path d="M 342.500,184.000 C 349.860,181.664 349.712,182.033 356.500,178.000" stroke-width="3.140" stroke="black" fill="none" stroke-linecap="round"></path><path d="M 356.500,178.000 C 364.081,173.117 364.360,173.664 371.500,168.000" stroke-width="2.841" stroke="black" fill="none" stroke-linecap="round"></path><path d="M 371.500,168.000 C 378.308,162.703 378.581,163.117 385.500,158.000" stroke-width="2.809" stroke="black" fill="none" stroke-linecap="round"></path><path d="M 385.500,158.000 C 391.733,154.845 391.308,154.203 397.500,151.000" stroke-width="2.947" stroke="black" fill="none" stroke-linecap="round"></path><path d="M 397.500,151.000 C 401.704,146.998 402.233,147.845 406.500,144.000" stroke-width="3.229" stroke="black" fill="none" stroke-linecap="round"></path><path d="M 406.500,144.000 C 412.909,139.423 409.704,141.998 413.500,141.000" stroke-width="3.616" stroke="black" fill="none" stroke-linecap="round"></path><path d="M 413.500,141.000 C 412.297,146.966 414.409,143.423 409.500,152.000" stroke-width="4.275" stroke="black" fill="none" stroke-linecap="round"></path><path d="M 409.500,152.000 C 406.025,155.212 407.297,155.966 403.500,159.000" stroke-width="3.815" stroke="black" fill="none" stroke-linecap="round"></path><path d="M 403.500,159.000 C 399.783,163.340 402.025,161.212 401.500,164.000" stroke-width="4.124" stroke="black" fill="none" stroke-linecap="round"></path><path d="M 401.500,164.000 C 409.199,165.288 406.283,165.840 416.500,164.000" stroke-width="4.250" stroke="black" fill="none" stroke-linecap="round"></path><path d="M 416.500,164.000 C 425.886,160.579 426.199,162.288 435.500,158.000" stroke-width="3.005" stroke="black" fill="none" stroke-linecap="round"></path><path d="M 435.500,158.000 C 446.426,155.109 446.386,155.079 457.500,153.000" stroke-width="2.502" stroke="black" fill="none" stroke-linecap="round"></path><path d="M 457.500,153.000 C 467.451,151.005 467.426,151.109 477.500,150.000" stroke-width="2.548" stroke="black" fill="none" stroke-linecap="round"></path><path d="M 477.500,150.000 C 487.494,149.278 487.451,149.005 497.500,149.000" stroke-width="2.572" stroke="black" fill="none" stroke-linecap="round"></path><path d="M 497.500,149.000 C 505.500,149.000 505.494,148.778 513.500,149.000" stroke-width="2.792" stroke="black" fill="none" stroke-linecap="round"></path><path d="M 513.500,149.000 C 520.043,148.483 520.000,149.000 526.500,149.000" stroke-width="3.003" stroke="black" fill="none" stroke-linecap="round"></path><path d="M 526.500,149.000 C 532.626,149.531 532.543,149.483 538.500,151.000" stroke-width="3.191" stroke="black" fill="none" stroke-linecap="round"></path><path d="M 538.500,151.000 C 542.472,152.578 542.626,152.031 546.500,154.000" stroke-width="3.559" stroke="black" fill="none" stroke-linecap="round"></path><path d="M 546.500,154.000 C 551.062,155.336 550.972,155.578 555.500,157.000" stroke-width="3.539" stroke="black" fill="none" stroke-linecap="round"></path><path d="M 555.500,157.000 C 558.881,158.869 559.062,158.336 562.500,160.000" stroke-width="3.774" stroke="black" fill="none" stroke-linecap="round"></path><path d="M 562.500,160.000 C 566.955,161.282 566.881,161.369 571.500,162.000" stroke-width="3.684" stroke="black" fill="none" stroke-linecap="round"></path><path d="M 571.500,162.000 C 576.494,162.565 576.455,162.782 581.500,163.000" stroke-width="3.521" stroke="black" fill="none" stroke-linecap="round"></path><path d="M 581.500,163.000 C 587.990,163.750 587.994,163.565 594.500,164.000" stroke-width="3.215" stroke="black" fill="none" stroke-linecap="round"></path><path d="M 594.500,164.000 C 601.000,164.000 600.990,164.250 607.500,164.000" stroke-width="3.136" stroke="black" fill="none" stroke-linecap="round"></path><path d="M 607.500,164.000 C 614.510,164.259 614.500,164.000 621.500,164.000" stroke-width="3.100" stroke="black" fill="none" stroke-linecap="round"></path><path d="M 621.500,164.000 C 628.002,163.520 628.010,163.759 634.500,163.000" stroke-width="3.212" stroke="black" fill="none" stroke-linecap="round"></path><path d="M 634.500,163.000 C 640.507,162.571 640.502,162.520 646.500,162.000" stroke-width="3.268" stroke="black" fill="none" stroke-linecap="round"></path><path d="M 646.500,162.000 C 650.988,161.282 651.007,161.571 655.500,161.000" stroke-width="3.539" stroke="black" fill="none" stroke-linecap="round"></path><path d="M 655.500,161.000 C 659.000,161.000 658.988,160.782 662.500,161.000" stroke-width="3.793" stroke="black" fill="none" stroke-linecap="round"></path><path d="M 662.500,161.000 C 666.500,161.000 666.500,161.000 670.500,161.000" stroke-width="4.311" stroke="black" fill="none" stroke-linecap="round"></path><path d="M 670.500,161.000 C 673.511,160.801 673.500,161.000 676.500,161.000" stroke-width="4.630" stroke="black" fill="none" stroke-linecap="round"></path><path d="M 676.500,161.000 C 680.989,161.699 681.011,161.301 685.500,162.000" stroke-width="4.476" stroke="black" fill="none" stroke-linecap="round"></path><path d="M 685.500,162.000 C 688.500,162.000 688.489,162.199 691.500,162.000" stroke-width="4.199" stroke="black" fill="none" stroke-linecap="round"></path><path d="M 691.500,162.000 C 695.000,162.000 695.000,162.000 698.500,162.000" stroke-width="4.047" stroke="black" fill="none" stroke-linecap="round"></path><path d="M 698.500,162.000 C 702.500,162.000 702.500,162.000 706.500,162.000" stroke-width="3.834" stroke="black" fill="none" stroke-linecap="round"></path><path d="M 706.500,162.000 C 709.500,162.000 709.500,162.000 712.500,162.000" stroke-width="4.055" stroke="black" fill="none" stroke-linecap="round"></path><path d="M 712.500,162.000 C 716.000,162.000 716.000,162.000 719.500,162.000" stroke-width="4.448" stroke="black" fill="none" stroke-linecap="round"></path><path d="M 719.500,162.000 C 724.500,162.000 724.500,162.000 729.500,162.000" stroke-width="4.933" stroke="black" fill="none" stroke-linecap="round"></path><path d="M 729.500,162.000 C 733.500,162.000 733.500,162.000 737.500,162.000" stroke-width="4.642" stroke="black" fill="none" stroke-linecap="round"></path><path d="M 737.500,162.000 C 741.500,162.000 741.500,162.000 745.500,162.000" stroke-width="5.160" stroke="black" fill="none" stroke-linecap="round"></path><path d="M 745.500,162.000 C 748.500,162.000 748.500,162.000 751.500,162.000" stroke-width="5.257" stroke="black" fill="none" stroke-linecap="round"></path><path d="M 751.500,162.000 C 758.380,161.824 754.500,162.000 757.500,162.000" stroke-width="5.274" stroke="black" fill="none" stroke-linecap="round"></path><path d="M 757.500,162.000 C 752.010,162.710 755.880,162.324 746.500,163.000" stroke-width="5.328" stroke="black" fill="none" stroke-linecap="round"></path><path d="M 746.500,163.000 C 742.500,163.000 742.510,163.210 738.500,163.000" stroke-width="4.236" stroke="black" fill="none" stroke-linecap="round"></path><path d="M 738.500,163.000 C 733.500,163.000 733.500,163.000 728.500,163.000" stroke-width="3.662" stroke="black" fill="none" stroke-linecap="round"></path><path d="M 728.500,163.000 C 722.989,162.751 723.000,163.000 717.500,163.000" stroke-width="3.541" stroke="black" fill="none" stroke-linecap="round"></path><path d="M 717.500,163.000 C 712.012,163.770 711.989,163.251 706.500,164.000" stroke-width="3.448" stroke="black" fill="none" stroke-linecap="round"></path><path d="M 706.500,164.000 C 699.991,163.760 700.012,164.270 693.500,164.000" stroke-width="3.261" stroke="black" fill="none" stroke-linecap="round"></path><path d="M 693.500,164.000 C 686.509,164.758 686.491,164.260 679.500,165.000" stroke-width="3.133" stroke="black" fill="none" stroke-linecap="round"></path><path d="M 679.500,165.000 C 671.993,164.766 672.009,165.258 664.500,165.000" stroke-width="3.087" stroke="black" fill="none" stroke-linecap="round"></path><path d="M 664.500,165.000 C 656.000,165.500 655.993,165.266 647.500,166.000" stroke-width="2.824" stroke="black" fill="none" stroke-linecap="round"></path><path d="M 647.500,166.000 C 639.001,166.514 639.000,166.500 630.500,167.000" stroke-width="2.814" stroke="black" fill="none" stroke-linecap="round"></path><path d="M 630.500,167.000 C 621.501,167.513 621.501,167.514 612.500,168.000" stroke-width="2.755" stroke="black" fill="none" stroke-linecap="round"></path><path d="M 612.500,168.000 C 603.001,168.513 603.001,168.513 593.500,169.000" stroke-width="2.684" stroke="black" fill="none" stroke-linecap="round"></path><path d="M 593.500,169.000 C 583.500,169.500 583.501,169.513 573.500,170.000" stroke-width="2.612" stroke="black" fill="none" stroke-linecap="round"></path><path d="M 573.500,170.000 C 563.506,170.750 563.500,170.500 553.500,171.000" stroke-width="2.531" stroke="black" fill="none" stroke-linecap="round"></path><path d="M 553.500,171.000 C 543.500,171.000 543.506,171.250 533.500,171.000" stroke-width="2.568" stroke="black" fill="none" stroke-linecap="round"></path><path d="M 533.500,171.000 C 523.500,171.000 523.500,171.000 513.500,171.000" stroke-width="2.520" stroke="black" fill="none" stroke-linecap="round"></path><path d="M 513.500,171.000 C 503.500,171.000 503.500,171.000 493.500,171.000" stroke-width="2.506" stroke="black" fill="none" stroke-linecap="round"></path><path d="M 493.500,171.000 C 482.994,171.244 483.000,171.000 472.500,171.000" stroke-width="2.454" stroke="black" fill="none" stroke-linecap="round"></path><path d="M 472.500,171.000 C 461.497,170.550 461.494,170.744 450.500,170.000" stroke-width="2.452" stroke="black" fill="none" stroke-linecap="round"></path><path d="M 450.500,170.000 C 441.508,169.220 441.497,169.550 432.500,169.000" stroke-width="2.584" stroke="black" fill="none" stroke-linecap="round"></path><path d="M 432.500,169.000 C 421.000,169.000 421.008,168.720 409.500,169.000" stroke-width="2.445" stroke="black" fill="none" stroke-linecap="round"></path><path d="M 409.500,169.000 C 398.500,169.000 398.500,169.000 387.500,169.000" stroke-width="2.391" stroke="black" fill="none" stroke-linecap="round"></path><path d="M 387.500,169.000 C 379.000,169.000 379.000,169.000 370.500,169.000" stroke-width="2.617" stroke="black" fill="none" stroke-linecap="round"></path><path d="M 370.500,169.000 C 361.000,169.000 361.000,169.000 351.500,169.000" stroke-width="2.585" stroke="black" fill="none" stroke-linecap="round"></path><path d="M 351.500,169.000 C 343.490,168.734 343.500,169.000 335.500,169.000" stroke-width="2.796" stroke="black" fill="none" stroke-linecap="round"></path><path d="M 335.500,169.000 C 328.458,169.165 328.490,169.234 321.500,170.000" stroke-width="2.933" stroke="black" fill="none" stroke-linecap="round"></path><path d="M 321.500,170.000 C 315.787,170.318 315.958,170.665 310.500,172.000" stroke-width="3.241" stroke="black" fill="none" stroke-linecap="round"></path><path d="M 310.500,172.000 C 304.899,174.300 304.787,173.818 299.500,177.000" stroke-width="3.216" stroke="black" fill="none" stroke-linecap="round"></path><path d="M 299.500,177.000 C 294.771,179.153 294.899,179.300 290.500,182.000" stroke-width="3.461" stroke="black" fill="none" stroke-linecap="round"></path><path d="M 290.500,182.000 C 285.143,184.797 285.771,185.153 281.500,189.000" stroke-width="3.449" stroke="black" fill="none" stroke-linecap="round"></path><path d="M 281.500,189.000 C 278.977,192.814 278.643,192.297 277.500,197.000" stroke-width="3.559" stroke="black" fill="none" stroke-linecap="round"></path><path d="M 277.500,197.000 C 276.300,201.465 275.977,201.314 275.500,206.000" stroke-width="3.566" stroke="black" fill="none" stroke-linecap="round"></path><path d="M 275.500,206.000 C 274.736,209.984 274.800,209.965 274.500,214.000" stroke-width="3.783" stroke="black" fill="none" stroke-linecap="round"></path><path d="M 274.500,214.000 C 273.334,218.802 274.236,218.484 274.500,223.000" stroke-width="3.653" stroke="black" fill="none" stroke-linecap="round"></path><path d="M 274.500,223.000 C 276.403,227.950 275.834,227.802 279.500,232.000" stroke-width="3.489" stroke="black" fill="none" stroke-linecap="round"></path><path d="M 279.500,232.000 C 283.266,236.265 282.903,236.450 287.500,240.000" stroke-width="3.351" stroke="black" fill="none" stroke-linecap="round"></path><path d="M 287.500,240.000 C 291.676,244.014 291.766,243.765 296.500,247.000" stroke-width="3.304" stroke="black" fill="none" stroke-linecap="round"></path><path d="M 296.500,247.000 C 302.566,249.877 302.176,250.514 308.500,253.000" stroke-width="3.247" stroke="black" fill="none" stroke-linecap="round"></path><path d="M 308.500,253.000 C 312.084,254.865 312.066,254.877 315.500,257.000" stroke-width="3.625" stroke="black" fill="none" stroke-linecap="round"></path><path d="M 289.500,63.000 C 291.283,70.071 291.500,70.000 293.500,77.000" stroke-width="4.623" stroke="black" fill="none" stroke-linecap="round"></path><path d="M 293.500,77.000 C 295.864,82.392 295.283,82.571 297.500,88.000" stroke-width="3.636" stroke="black" fill="none" stroke-linecap="round"></path><path d="M 297.500,88.000 C 298.943,94.514 299.364,94.392 300.500,101.000" stroke-width="3.342" stroke="black" fill="none" stroke-linecap="round"></path><path d="M 300.500,101.000 C 301.873,107.035 301.943,107.014 303.500,113.000" stroke-width="3.281" stroke="black" fill="none" stroke-linecap="round"></path><path d="M 303.500,113.000 C 305.371,117.922 304.873,118.035 306.500,123.000" stroke-width="3.306" stroke="black" fill="none" stroke-linecap="round"></path><path d="M 306.500,123.000 C 306.712,127.059 307.371,126.922 307.500,131.000" stroke-width="3.647" stroke="black" fill="none" stroke-linecap="round"></path><path d="M 307.500,131.000 C 308.500,134.500 308.212,134.559 309.500,138.000" stroke-width="3.798" stroke="black" fill="none" stroke-linecap="round"></path><path d="M 309.500,138.000 C 310.562,141.483 310.500,141.500 311.500,145.000" stroke-width="3.895" stroke="black" fill="none" stroke-linecap="round"></path><path d="M 311.500,145.000 C 312.036,149.192 312.562,148.983 313.500,153.000" stroke-width="3.765" stroke="black" fill="none" stroke-linecap="round"></path><path d="M 313.500,153.000 C 315.433,155.333 314.536,155.692 316.500,158.000" stroke-width="4.008" stroke="black" fill="none" stroke-linecap="round"></path><path d="M 316.500,158.000 C 316.592,160.640 317.433,160.333 317.500,163.000" stroke-width="4.185" stroke="black" fill="none" stroke-linecap="round"></path><path d="M 317.500,163.000 C 319.396,167.056 319.092,167.140 321.500,171.000" stroke-width="4.369" stroke="black" fill="none" stroke-linecap="round"></path><path d="M 321.500,171.000 C 323.590,174.452 323.396,174.556 325.500,178.000" stroke-width="4.492" stroke="black" fill="none" stroke-linecap="round"></path><path d="M 325.500,178.000 C 327.301,180.883 327.090,180.952 328.500,184.000" stroke-width="4.618" stroke="black" fill="none" stroke-linecap="round"></path><path d="M 328.500,184.000 C 329.076,187.678 329.801,187.383 330.500,191.000" stroke-width="4.611" stroke="black" fill="none" stroke-linecap="round"></path><path d="M 330.500,191.000 C 332.524,194.487 332.076,194.678 334.500,198.000" stroke-width="4.547" stroke="black" fill="none" stroke-linecap="round"></path><path d="M 334.500,198.000 C 336.710,202.688 337.024,202.487 339.500,207.000" stroke-width="4.405" stroke="black" fill="none" stroke-linecap="round"></path><path d="M 339.500,207.000 C 342.452,211.037 342.210,211.188 345.500,215.000" stroke-width="4.321" stroke="black" fill="none" stroke-linecap="round"></path><path d="M 345.500,215.000 C 347.729,217.344 347.452,217.537 349.500,220.000" stroke-width="4.154" stroke="black" fill="none" stroke-linecap="round"></path><path d="M 349.500,220.000 C 351.214,223.698 351.729,223.344 353.500,227.000" stroke-width="3.911" stroke="black" fill="none" stroke-linecap="round"></path><path d="M 353.500,227.000 C 356.121,229.907 355.714,230.198 358.500,233.000" stroke-width="3.871" stroke="black" fill="none" stroke-linecap="round"></path><path d="M 358.500,233.000 C 361.000,236.500 361.121,236.407 363.500,240.000" stroke-width="3.775" stroke="black" fill="none" stroke-linecap="round"></path><path d="M 363.500,240.000 C 365.756,243.707 366.000,243.500 368.500,247.000" stroke-width="3.692" stroke="black" fill="none" stroke-linecap="round"></path><path d="M 368.500,247.000 C 371.124,249.387 370.756,249.707 373.500,252.000" stroke-width="3.884" stroke="black" fill="none" stroke-linecap="round"></path><path d="M 373.500,252.000 C 375.864,255.124 376.124,254.887 378.500,258.000" stroke-width="3.863" stroke="black" fill="none" stroke-linecap="round"></path><path d="M 378.500,258.000 C 381.797,260.756 381.364,261.124 384.500,264.000" stroke-width="3.785" stroke="black" fill="none" stroke-linecap="round"></path><path d="M 384.500,264.000 C 386.258,267.198 386.797,266.756 388.500,270.000" stroke-width="3.849" stroke="black" fill="none" stroke-linecap="round"></path><path d="M 388.500,270.000 C 390.500,272.000 390.258,272.198 392.500,274.000" stroke-width="4.102" stroke="black" fill="none" stroke-linecap="round"></path><path d="M 392.500,274.000 C 395.138,276.376 395.000,276.500 397.500,279.000" stroke-width="3.959" stroke="black" fill="none" stroke-linecap="round"></path><path d="M 397.500,279.000 C 399.074,281.978 399.638,281.376 401.500,284.000" stroke-width="4.000" stroke="black" fill="none" stroke-linecap="round"></path><path d="M 401.500,284.000 C 405.483,286.528 405.074,286.978 409.500,289.000" stroke-width="4.274" stroke="black" fill="none" stroke-linecap="round"></path><path d="M 409.500,289.000 C 412.000,290.500 411.983,290.528 414.500,292.000" stroke-width="4.167" stroke="black" fill="none" stroke-linecap="round"></path><path d="M 414.500,292.000 C 416.898,293.699 417.000,293.500 419.500,295.000" stroke-width="4.136" stroke="black" fill="none" stroke-linecap="round"></path><path d="M 419.500,295.000 C 423.512,295.827 422.898,296.699 426.500,298.000" stroke-width="4.447" stroke="black" fill="none" stroke-linecap="round"></path><path d="M 426.500,298.000 C 427.844,301.672 429.012,299.827 430.500,303.000" stroke-width="4.819" stroke="black" fill="none" stroke-linecap="round"></path><path d="M 451.500,44.000 C 449.500,46.419 450.500,46.500 449.500,49.000" stroke-width="5.207" stroke="black" fill="none" stroke-linecap="round"></path><path d="M 449.500,49.000 C 450.116,53.618 449.500,53.419 451.500,58.000" stroke-width="4.125" stroke="black" fill="none" stroke-linecap="round"></path><path d="M 451.500,58.000 C 453.583,62.968 453.116,63.118 455.500,68.000" stroke-width="3.681" stroke="black" fill="none" stroke-linecap="round"></path><path d="M 455.500,68.000 C 457.328,73.569 457.583,73.468 459.500,79.000" stroke-width="3.429" stroke="black" fill="none" stroke-linecap="round"></path><path d="M 459.500,79.000 C 461.500,83.500 461.328,83.569 463.500,88.000" stroke-width="3.521" stroke="black" fill="none" stroke-linecap="round"></path><path d="M 463.500,88.000 C 465.500,92.500 465.500,92.500 467.500,97.000" stroke-width="3.493" stroke="black" fill="none" stroke-linecap="round"></path><path d="M 467.500,97.000 C 469.589,101.462 469.500,101.500 471.500,106.000" stroke-width="3.541" stroke="black" fill="none" stroke-linecap="round"></path><path d="M 471.500,106.000 C 473.723,110.922 473.589,110.962 475.500,116.000" stroke-width="3.472" stroke="black" fill="none" stroke-linecap="round"></path><path d="M 475.500,116.000 C 476.777,121.078 477.223,120.922 478.500,126.000" stroke-width="3.424" stroke="black" fill="none" stroke-linecap="round"></path><path d="M 478.500,126.000 C 480.639,130.949 480.277,131.078 482.500,136.000" stroke-width="3.380" stroke="black" fill="none" stroke-linecap="round"></path><path d="M 482.500,136.000 C 484.000,140.500 484.139,140.449 485.500,145.000" stroke-width="3.485" stroke="black" fill="none" stroke-linecap="round"></path><path d="M 485.500,145.000 C 487.085,149.474 487.000,149.500 488.500,154.000" stroke-width="3.572" stroke="black" fill="none" stroke-linecap="round"></path><path d="M 488.500,154.000 C 489.199,157.617 489.585,157.474 490.500,161.000" stroke-width="3.773" stroke="black" fill="none" stroke-linecap="round"></path><path d="M 490.500,161.000 C 492.301,163.883 491.699,164.117 493.500,167.000" stroke-width="3.904" stroke="black" fill="none" stroke-linecap="round"></path><path d="M 493.500,167.000 C 494.199,170.617 494.801,170.383 495.500,174.000" stroke-width="3.928" stroke="black" fill="none" stroke-linecap="round"></path><path d="M 495.500,174.000 C 497.213,176.912 496.699,177.117 498.500,180.000" stroke-width="4.001" stroke="black" fill="none" stroke-linecap="round"></path><path d="M 498.500,180.000 C 499.500,183.000 499.713,182.912 500.500,186.000" stroke-width="4.022" stroke="black" fill="none" stroke-linecap="round"></path><path d="M 500.500,186.000 C 501.420,189.029 501.500,189.000 502.500,192.000" stroke-width="4.076" stroke="black" fill="none" stroke-linecap="round"></path><path d="M 502.500,192.000 C 503.387,194.551 503.420,194.529 504.500,197.000" stroke-width="4.211" stroke="black" fill="none" stroke-linecap="round"></path><path d="M 504.500,197.000 C 506.000,200.000 505.887,200.051 507.500,203.000" stroke-width="4.035" stroke="black" fill="none" stroke-linecap="round"></path><path d="M 507.500,203.000 C 508.895,206.058 509.000,206.000 510.500,209.000" stroke-width="3.984" stroke="black" fill="none" stroke-linecap="round"></path><path d="M 510.500,209.000 C 511.935,211.541 511.895,211.558 513.500,214.000" stroke-width="4.125" stroke="black" fill="none" stroke-linecap="round"></path><path d="M 513.500,214.000 C 515.611,216.931 515.435,217.041 517.500,220.000" stroke-width="3.949" stroke="black" fill="none" stroke-linecap="round"></path><path d="M 517.500,220.000 C 519.268,223.652 519.611,223.431 521.500,227.000" stroke-width="3.800" stroke="black" fill="none" stroke-linecap="round"></path><path d="M 521.500,227.000 C 524.618,230.917 524.268,231.152 527.500,235.000" stroke-width="3.557" stroke="black" fill="none" stroke-linecap="round"></path><path d="M 527.500,235.000 C 530.562,239.460 530.618,239.417 533.500,244.000" stroke-width="3.473" stroke="black" fill="none" stroke-linecap="round"></path><path d="M 533.500,244.000 C 535.830,248.117 536.062,247.960 538.500,252.000" stroke-width="3.573" stroke="black" fill="none" stroke-linecap="round"></path><path d="M 538.500,252.000 C 541.618,255.917 541.330,256.117 544.500,260.000" stroke-width="3.551" stroke="black" fill="none" stroke-linecap="round"></path><path d="M 544.500,260.000 C 547.500,264.500 547.618,264.417 550.500,269.000" stroke-width="3.412" stroke="black" fill="none" stroke-linecap="round"></path><path d="M 550.500,269.000 C 553.382,273.583 553.500,273.500 556.500,278.000" stroke-width="3.430" stroke="black" fill="none" stroke-linecap="round"></path><path d="M 556.500,278.000 C 559.412,282.070 559.382,282.083 562.500,286.000" stroke-width="3.452" stroke="black" fill="none" stroke-linecap="round"></path><path d="M 562.500,286.000 C 565.000,289.000 564.912,289.070 567.500,292.000" stroke-width="3.769" stroke="black" fill="none" stroke-linecap="round"></path><path d="M 567.500,292.000 C 569.890,295.100 570.000,295.000 572.500,298.000" stroke-width="3.777" stroke="black" fill="none" stroke-linecap="round"></path><path d="M 674.500,114.000 C 667.681,114.106 669.000,115.500 663.500,117.000" stroke-width="5.010" stroke="black" fill="none" stroke-linecap="round"></path><path d="M 663.500,117.000 C 663.365,120.575 661.181,118.606 661.500,123.000" stroke-width="4.336" stroke="black" fill="none" stroke-linecap="round"></path><path d="M 661.500,123.000 C 657.767,126.856 658.365,127.075 653.500,130.000" stroke-width="3.684" stroke="black" fill="none" stroke-linecap="round"></path><path d="M 653.500,130.000 C 648.191,133.838 648.267,133.856 642.500,137.000" stroke-width="3.254" stroke="black" fill="none" stroke-linecap="round"></path><path d="M 642.500,137.000 C 634.683,141.420 634.691,141.338 626.500,145.000" stroke-width="2.877" stroke="black" fill="none" stroke-linecap="round"></path><path d="M 626.500,145.000 C 618.642,148.456 618.683,148.420 610.500,151.000" stroke-width="2.765" stroke="black" fill="none" stroke-linecap="round"></path><path d="M 610.500,151.000 C 602.471,152.890 602.642,153.456 594.500,155.000" stroke-width="2.769" stroke="black" fill="none" stroke-linecap="round"></path><path d="M 594.500,155.000 C 585.572,157.793 585.471,157.390 576.500,160.000" stroke-width="2.645" stroke="black" fill="none" stroke-linecap="round"></path><path d="M 576.500,160.000 C 566.958,161.817 567.072,162.293 557.500,164.000" stroke-width="2.687" stroke="black" fill="none" stroke-linecap="round"></path><path d="M 557.500,164.000 C 547.468,166.377 547.458,166.317 537.500,169.000" stroke-width="2.641" stroke="black" fill="none" stroke-linecap="round"></path><path d="M 537.500,169.000 C 528.500,171.500 528.468,171.377 519.500,174.000" stroke-width="2.609" stroke="black" fill="none" stroke-linecap="round"></path><path d="M 519.500,174.000 C 510.406,176.201 510.500,176.500 501.500,179.000" stroke-width="2.599" stroke="black" fill="none" stroke-linecap="round"></path><path d="M 501.500,179.000 C 492.949,181.862 492.906,181.701 484.500,185.000" stroke-width="2.631" stroke="black" fill="none" stroke-linecap="round"></path><path d="M 484.500,185.000 C 475.268,187.992 475.449,188.362 466.500,192.000" stroke-width="2.633" stroke="black" fill="none" stroke-linecap="round"></path><path d="M 466.500,192.000 C 457.943,196.395 457.768,195.992 449.500,201.000" stroke-width="2.577" stroke="black" fill="none" stroke-linecap="round"></path><path d="M 449.500,201.000 C 441.454,205.420 441.443,205.395 433.500,210.000" stroke-width="2.607" stroke="black" fill="none" stroke-linecap="round"></path><path d="M 433.500,210.000 C 424.779,214.659 424.954,214.920 416.500,220.000" stroke-width="2.605" stroke="black" fill="none" stroke-linecap="round"></path><path d="M 416.500,220.000 C 409.380,224.840 409.279,224.659 402.500,230.000" stroke-width="2.736" stroke="black" fill="none" stroke-linecap="round"></path><path d="M 402.500,230.000 C 395.451,235.439 395.380,235.340 388.500,241.000" stroke-width="2.619" stroke="black" fill="none" stroke-linecap="round"></path><path d="M 388.500,241.000 C 383.121,245.657 382.951,245.439 377.500,250.000" stroke-width="2.861" stroke="black" fill="none" stroke-linecap="round"></path><path d="M 377.500,250.000 C 371.552,253.510 372.121,254.157 366.500,258.000" stroke-width="3.041" stroke="black" fill="none" stroke-linecap="round"></path><path d="M 366.500,258.000 C 362.729,261.802 362.552,261.510 359.500,266.000" stroke-width="3.323" stroke="black" fill="none" stroke-linecap="round"></path><path d="M 359.500,266.000 C 357.239,268.289 357.729,268.302 356.500,271.000" stroke-width="3.885" stroke="black" fill="none" stroke-linecap="round"></path><path d="M 356.500,271.000 C 355.040,275.053 355.739,273.789 356.500,277.000" stroke-width="4.458" stroke="black" fill="none" stroke-linecap="round"></path><path d="M 356.500,277.000 C 359.410,278.421 358.040,279.053 362.500,279.000" stroke-width="4.151" stroke="black" fill="none" stroke-linecap="round"></path><path d="M 362.500,279.000 C 367.485,279.799 367.410,279.921 372.500,280.000" stroke-width="3.700" stroke="black" fill="none" stroke-linecap="round"></path><path d="M 372.500,280.000 C 380.025,280.453 379.985,280.299 387.500,280.000" stroke-width="3.292" stroke="black" fill="none" stroke-linecap="round"></path><path d="M 387.500,280.000 C 396.647,279.771 396.525,279.453 405.500,278.000" stroke-width="2.806" stroke="black" fill="none" stroke-linecap="round"></path><path d="M 405.500,278.000 C 416.590,275.298 416.647,275.771 427.500,272.000" stroke-width="2.511" stroke="black" fill="none" stroke-linecap="round"></path><path d="M 427.500,272.000 C 437.976,268.426 438.090,268.798 448.500,265.000" stroke-width="2.403" stroke="black" fill="none" stroke-linecap="round"></path><path d="M 448.500,265.000 C 459.389,261.101 459.476,261.426 470.500,258.000" stroke-width="2.391" stroke="black" fill="none" stroke-linecap="round"></path><path d="M 470.500,258.000 C 480.959,255.314 480.889,255.101 491.500,253.000" stroke-width="2.393" stroke="black" fill="none" stroke-linecap="round"></path><path d="M 491.500,253.000 C 501.451,250.716 501.459,250.814 511.500,249.000" stroke-width="2.448" stroke="black" fill="none" stroke-linecap="round"></path><path d="M 511.500,249.000 C 522.005,247.536 521.951,247.216 532.500,246.000" stroke-width="2.486" stroke="black" fill="none" stroke-linecap="round"></path><path d="M 532.500,246.000 C 542.584,244.935 542.505,244.536 552.500,243.000" stroke-width="2.543" stroke="black" fill="none" stroke-linecap="round"></path><path d="M 552.500,243.000 C 563.122,240.927 563.084,240.935 573.500,238.000" stroke-width="2.497" stroke="black" fill="none" stroke-linecap="round"></path><path d="M 573.500,238.000 C 582.551,235.144 582.622,235.427 591.500,232.000" stroke-width="2.550" stroke="black" fill="none" stroke-linecap="round"></path><path d="M 591.500,232.000 C 601.066,228.669 601.051,228.644 610.500,225.000" stroke-width="2.562" stroke="black" fill="none" stroke-linecap="round"></path><path d="M 610.500,225.000 C 618.898,221.226 619.066,221.669 627.500,218.000" stroke-width="2.601" stroke="black" fill="none" stroke-linecap="round"></path><path d="M 627.500,218.000 C 634.827,214.644 634.898,215.226 642.500,213.000" stroke-width="2.813" stroke="black" fill="none" stroke-linecap="round"></path><path d="M 642.500,213.000 C 648.991,212.260 648.827,211.644 655.500,212.000" stroke-width="3.062" stroke="black" fill="none" stroke-linecap="round"></path><path d="M 655.500,212.000 C 661.500,212.000 661.491,211.760 667.500,212.000" stroke-width="3.223" stroke="black" fill="none" stroke-linecap="round"></path><path d="M 667.500,212.000 C 671.562,210.644 671.000,212.000 674.500,212.000" stroke-width="3.677" stroke="black" fill="none" stroke-linecap="round"></path><path d="M 674.500,212.000 C 680.080,214.428 678.062,213.644 680.500,218.000" stroke-width="4.184" stroke="black" fill="none" stroke-linecap="round"></path><path d="M 680.500,218.000 C 678.802,223.630 681.080,222.928 676.500,229.000" stroke-width="4.450" stroke="black" fill="none" stroke-linecap="round"></path><path d="M 676.500,229.000 C 673.769,233.895 674.302,234.130 671.500,239.000" stroke-width="3.654" stroke="black" fill="none" stroke-linecap="round"></path><path d="M 671.500,239.000 C 668.602,247.796 667.769,247.395 664.500,256.000" stroke-width="2.861" stroke="black" fill="none" stroke-linecap="round"></path><path d="M 664.500,256.000 C 658.717,265.348 659.602,265.796 653.500,275.000" stroke-width="2.564" stroke="black" fill="none" stroke-linecap="round"></path><path d="M 653.500,275.000 C 650.306,285.055 648.717,283.848 644.500,293.000" stroke-width="2.628" stroke="black" fill="none" stroke-linecap="round"></path></svg>