<svg xmlns="http://www.w3.org/2000/svg" xmlns:xlink="http://www.w3.org/1999/xlink" viewBox="0 0 724 414" width="724" height="414"><path d="M 161.000,156.000 C 172.911,152.634 173.000,153.500 185.000,151.000" stroke-width="3.738" stroke="black" fill="none" stroke-linecap="round"></path><path d="M 185.000,151.000 C 191.500,151.000 191.411,150.134 198.000,151.000" stroke-width="3.335" stroke="black" fill="none" stroke-linecap="round"></path><path d="M 198.000,151.000 C 205.658,149.951 205.500,151.000 213.000,151.000" stroke-width="3.198" stroke="black" fill="none" stroke-linecap="round"></path><path d="M 213.000,151.000 C 219.609,152.699 219.658,151.951 226.000,155.000" stroke-width="3.147" stroke="black" fill="none" stroke-linecap="round"></path><path d="M 226.000,155.000 C 232.348,156.891 232.109,157.199 238.000,160.000" stroke-width="3.116" stroke="black" fill="none" stroke-linecap="round"></path><path d="M 238.000,160.000 C 241.968,163.043 242.348,162.391 246.000,166.000" stroke-width="3.350" stroke="black" fill="none" stroke-linecap="round"></path><path d="M 246.000,166.000 C 250.000,168.000 249.468,168.543 253.000,171.000" stroke-width="3.560" stroke="black" fill="none" stroke-linecap="round"></path><path d="M 253.000,171.000 C 255.379,174.593 256.000,174.000 258.000,178.000" stroke-width="3.681" stroke="black" fill="none" stroke-linecap="round"></path><path d="M 258.000,178.000 C 260.250,181.250 260.379,181.093 263.000,184.000" stroke-width="3.801" stroke="black" fill="none" stroke-linecap="round"></path><path d="M 263.000,184.000 C 265.613,187.194 265.750,186.750 269.000,189.000" stroke-width="3.786" stroke="black" fill="none" stroke-linecap="round"></path><path d="M 269.000,189.000 C 273.367,191.158 273.113,191.194 278.000,192.000" stroke-width="3.604" stroke="black" fill="none" stroke-linecap="round"></path><path d="M 278.000,192.000 C 284.489,192.790 284.367,193.158 291.000,193.000" stroke-width="3.235" stroke="black" fill="none" stroke-linecap="round"></path><path d="M 291.000,193.000 C 300.075,193.871 299.989,193.290 309.000,193.000" stroke-width="2.927" stroke="black" fill="none" stroke-linecap="round"></path><path d="M 309.000,193.000 C 320.618,191.529 320.575,191.871 332.000,189.000" stroke-width="2.448" stroke="black" fill="none" stroke-linecap="round"></path><path d="M 332.000,189.000 C 343.119,186.385 343.118,186.529 354.000,183.000" stroke-width="2.416" stroke="black" fill="none" stroke-linecap="round"></path><path d="M 354.000,183.000 C 365.450,178.850 365.619,179.385 377.000,175.000" stroke-width="2.283" stroke="black" fill="none" stroke-linecap="round"></path><path d="M 377.000,175.000 C 386.392,171.597 386.450,171.850 396.000,169.000" stroke-width="2.489" stroke="black" fill="none" stroke-linecap="round"></path><path d="M 396.000,169.000 C 404.920,166.464 404.892,166.597 414.000,165.000" stroke-width="2.575" stroke="black" fill="none" stroke-linecap="round"></path><path d="M 414.000,165.000 C 420.492,164.296 420.420,163.964 427.000,164.000" stroke-width="2.973" stroke="black" fill="none" stroke-linecap="round"></path><path d="M 427.000,164.000 C 431.836,162.890 431.492,163.796 436.000,164.000" stroke-width="3.434" stroke="black" fill="none" stroke-linecap="round"></path><path d="M 436.000,164.000 C 440.010,165.263 439.336,164.890 442.000,168.000" stroke-width="3.733" stroke="black" fill="none" stroke-linecap="round"></path><path d="M 442.000,168.000 C 443.183,171.459 444.010,170.763 444.000,175.000" stroke-width="3.874" stroke="black" fill="none" stroke-linecap="round"></path><path d="M 444.000,175.000 C 444.204,178.083 444.683,177.959 445.000,181.000" stroke-width="4.013" stroke="black" fill="none" stroke-linecap="round"></path><path d="M 445.000,181.000 C 445.250,184.250 445.704,183.583 447.000,186.000" stroke-width="4.191" stroke="black" fill="none" stroke-linecap="round"></path><path d="M 447.000,186.000 C 449.383,187.477 448.750,187.750 452.000,188.000" stroke-width="4.247" stroke="black" fill="none" stroke-linecap="round"></path><path d="M 452.000,188.000 C 456.984,188.814 456.883,188.977 462.000,189.000" stroke-width="3.660" stroke="black" fill="none" stroke-linecap="round"></path><path d="M 462.000,189.000 C 470.547,189.667 470.484,189.314 479.000,189.000" stroke-width="3.022" stroke="black" fill="none" stroke-linecap="round"></path><path d="M 479.000,189.000 C 489.581,187.938 489.547,188.167 500.000,186.000" stroke-width="2.639" stroke="black" fill="none" stroke-linecap="round"></path><path d="M 500.000,186.000 C 511.127,183.965 511.081,183.938 522.000,181.000" stroke-width="2.480" stroke="black" fill="none" stroke-linecap="round"></path><path d="M 522.000,181.000 C 532.906,177.170 533.127,177.965 544.000,174.000" stroke-width="2.353" stroke="black" fill="none" stroke-linecap="round"></path><path d="M 544.000,174.000 C 553.900,170.964 553.906,171.170 564.000,169.000" stroke-width="2.482" stroke="black" fill="none" stroke-linecap="round"></path><path d="M 564.000,169.000 C 571.988,167.890 571.900,167.464 580.000,167.000" stroke-width="2.697" stroke="black" fill="none" stroke-linecap="round"></path><path d="M 580.000,167.000 C 591.393,164.033 585.488,166.390 591.000,166.000" stroke-width="3.159" stroke="black" fill="none" stroke-linecap="round"></path><path d="M 591.000,166.000 C 584.796,171.903 590.393,169.033 578.000,177.000" stroke-width="4.044" stroke="black" fill="none" stroke-linecap="round"></path><path d="M 578.000,177.000 C 572.500,180.500 572.796,180.903 567.000,184.000" stroke-width="3.401" stroke="black" fill="none" stroke-linecap="round"></path><path d="M 567.000,184.000 C 561.149,187.062 561.500,187.500 556.000,191.000" stroke-width="3.246" stroke="black" fill="none" stroke-linecap="round"></path><path d="M 556.000,191.000 C 553.244,194.297 552.649,193.562 550.000,197.000" stroke-width="3.584" stroke="black" fill="none" stroke-linecap="round"></path><path d="M 550.000,197.000 C 547.255,200.186 547.244,199.297 544.000,201.000" stroke-width="4.249" stroke="black" fill="none" stroke-linecap="round"></path><path d="M 544.000,201.000 C 541.022,200.232 541.255,201.686 538.000,200.000" stroke-width="4.901" stroke="black" fill="none" stroke-linecap="round"></path><path d="M 538.000,200.000 C 534.500,200.000 534.522,199.732 531.000,200.000" stroke-width="4.749" stroke="black" fill="none" stroke-linecap="round"></path><path d="M 531.000,200.000 C 527.000,200.000 527.000,200.000 523.000,200.000" stroke-width="4.062" stroke="black" fill="none" stroke-linecap="round"></path><path d="M 523.000,200.000 C 517.000,200.000 517.000,200.000 511.000,200.000" stroke-width="3.495" stroke="black" fill="none" stroke-linecap="round"></path><path d="M 511.000,200.000 C 503.000,200.000 503.000,200.000 495.000,200.000" stroke-width="3.054" stroke="black" fill="none" stroke-linecap="round"></path><path d="M 495.000,200.000 C 485.994,200.237 486.000,200.000 477.000,200.000" stroke-width="2.821" stroke="black" fill="none" stroke-linecap="round"></path><path d="M 477.000,200.000 C 466.979,199.768 466.994,199.737 457.000,199.000" stroke-width="2.763" stroke="black" fill="none" stroke-linecap="round"></path><path d="M 457.000,199.000 C 447.441,198.388 447.479,198.268 438.000,197.000" stroke-width="2.682" stroke="black" fill="none" stroke-linecap="round"></path><path d="M 438.000,197.000 C 430.411,195.853 430.441,195.888 423.000,194.000" stroke-width="2.871" stroke="black" fill="none" stroke-linecap="round"></path><path d="M 423.000,194.000 C 416.051,192.881 416.411,192.353 410.000,190.000" stroke-width="2.988" stroke="black" fill="none" stroke-linecap="round"></path><path d="M 410.000,190.000 C 405.167,187.695 405.551,187.881 402.000,184.000" stroke-width="3.304" stroke="black" fill="none" stroke-linecap="round"></path><path d="M 402.000,184.000 C 399.177,180.238 399.167,180.695 398.000,176.000" stroke-width="3.609" stroke="black" fill="none" stroke-linecap="round"></path><path d="M 398.000,176.000 C 397.000,171.006 396.677,171.238 397.000,166.000" stroke-width="3.500" stroke="black" fill="none" stroke-linecap="round"></path><path d="M 397.000,166.000 C 395.398,158.637 397.000,159.506 398.000,153.000" stroke-width="3.210" stroke="black" fill="none" stroke-linecap="round"></path><path d="M 398.000,153.000 C 402.604,145.482 401.398,145.637 409.000,140.000" stroke-width="2.919" stroke="black" fill="none" stroke-linecap="round"></path><path d="M 409.000,140.000 C 416.920,133.313 416.604,133.482 426.000,129.000" stroke-width="2.599" stroke="black" fill="none" stroke-linecap="round"></path><path d="M 426.000,129.000 C 437.201,123.704 436.920,123.813 449.000,121.000" stroke-width="2.392" stroke="black" fill="none" stroke-linecap="round"></path><path d="M 449.000,121.000 C 461.455,118.753 461.201,118.204 474.000,118.000" stroke-width="2.303" stroke="black" fill="none" stroke-linecap="round"></path><path d="M 474.000,118.000 C 486.500,118.000 486.455,117.253 499.000,118.000" stroke-width="2.226" stroke="black" fill="none" stroke-linecap="round"></path><path d="M 499.000,118.000 C 508.675,116.834 508.500,118.000 518.000,118.000" stroke-width="2.511" stroke="black" fill="none" stroke-linecap="round"></path><path d="M 518.000,118.000 C 524.620,119.680 524.675,118.834 531.000,122.000" stroke-width="2.911" stroke="black" fill="none" stroke-linecap="round"></path><path d="M 531.000,122.000 C 537.424,122.487 535.620,123.680 540.000,126.000" stroke-width="3.288" stroke="black" fill="none" stroke-linecap="round"></path><path d="M 540.000,126.000 C 544.165,132.489 542.924,129.987 542.000,137.000" stroke-width="3.878" stroke="black" fill="none" stroke-linecap="round"></path><path d="M 542.000,137.000 C 535.717,144.866 538.165,144.989 528.000,151.000" stroke-width="2.884" stroke="black" fill="none" stroke-linecap="round"></path><path d="M 528.000,151.000 C 515.861,160.086 516.217,160.366 503.000,168.000" stroke-width="2.286" stroke="black" fill="none" stroke-linecap="round"></path><path d="M 503.000,168.000 C 490.082,176.824 489.861,176.086 476.000,183.000" stroke-width="2.131" stroke="black" fill="none" stroke-linecap="round"></path><path d="M 476.000,183.000 C 461.203,188.733 461.582,189.324 446.000,193.000" stroke-width="1.956" stroke="black" fill="none" stroke-linecap="round"></path><path d="M 446.000,193.000 C 432.644,196.979 432.703,196.733 419.000,199.000" stroke-width="2.082" stroke="black" fill="none" stroke-linecap="round"></path><path d="M 419.000,199.000 C 405.516,200.437 405.644,200.979 392.000,201.000" stroke-width="2.087" stroke="black" fill="none" stroke-linecap="round"></path><path d="M 392.000,201.000 C 381.470,201.537 381.516,201.437 371.000,201.000" stroke-width="2.370" stroke="black" fill="none" stroke-linecap="round"></path><path d="M 371.000,201.000 C 361.762,200.978 361.970,200.537 353.000,199.000" stroke-width="2.552" stroke="black" fill="none" stroke-linecap="round"></path><path d="M 353.000,199.000 C 346.426,196.677 346.262,197.478 340.000,194.000" stroke-width="2.907" stroke="black" fill="none" stroke-linecap="round"></path><path d="M 340.000,194.000 C 334.105,192.120 334.426,191.677 329.000,189.000" stroke-width="3.109" stroke="black" fill="none" stroke-linecap="round"></path><path d="M 329.000,189.000 C 323.776,186.946 325.105,186.620 322.000,183.000" stroke-width="3.467" stroke="black" fill="none" stroke-linecap="round"></path><path d="M 322.000,183.000 C 320.000,176.029 319.276,176.946 320.000,169.000" stroke-width="3.116" stroke="black" fill="none" stroke-linecap="round"></path><path d="M 320.000,169.000 C 319.361,156.613 320.000,157.029 322.000,145.000" stroke-width="2.519" stroke="black" fill="none" stroke-linecap="round"></path><path d="M 322.000,145.000 C 324.879,134.338 324.361,134.613 330.000,125.000" stroke-width="2.492" stroke="black" fill="none" stroke-linecap="round"></path><path d="M 330.000,125.000 C 333.523,118.036 333.379,118.838 339.000,114.000" stroke-width="2.814" stroke="black" fill="none" stroke-linecap="round"></path><path d="M 339.000,114.000 C 343.965,111.000 343.023,111.036 349.000,111.000" stroke-width="3.203" stroke="black" fill="none" stroke-linecap="round"></path><path d="M 349.000,111.000 C 357.988,109.118 354.965,111.000 361.000,114.000" stroke-width="3.293" stroke="black" fill="none" stroke-linecap="round"></path><path d="M 361.000,114.000 C 372.896,135.318 372.488,132.618 378.000,158.000" stroke-width="1.783" stroke="black" fill="none" stroke-linecap="round"></path><path d="M 378.000,158.000 C 379.000,176.004 381.896,175.318 379.000,194.000" stroke-width="1.798" stroke="black" fill="none" stroke-linecap="round"></path><path d="M 202.000,92.000 C 193.474,89.326 193.500,90.500 185.000,89.000" stroke-width="4.368" stroke="black" fill="none" stroke-linecap="round"></path><path d="M 185.000,89.000 C 180.095,89.050 180.474,88.826 176.000,91.000" stroke-width="3.776" stroke="black" fill="none" stroke-linecap="round"></path><path d="M 176.000,91.000 C 169.479,94.364 169.595,94.050 164.000,99.000" stroke-width="3.164" stroke="black" fill="none" stroke-linecap="round"></path><path d="M 164.000,99.000 C 157.121,106.125 156.479,105.364 150.000,113.000" stroke-width="2.808" stroke="black" fill="none" stroke-linecap="round"></path><path d="M 150.000,113.000 C 141.960,119.504 142.621,120.125 135.000,127.000" stroke-width="2.558" stroke="black" fill="none" stroke-linecap="round"></path><path d="M 135.000,127.000 C 129.115,133.732 128.960,133.504 124.000,141.000" stroke-width="2.791" stroke="black" fill="none" stroke-linecap="round"></path><path d="M 124.000,141.000 C 118.595,146.992 119.615,147.232 116.000,154.000" stroke-width="2.852" stroke="black" fill="none" stroke-linecap="round"></path><path d="M 116.000,154.000 C 114.503,160.965 113.595,160.492 114.000,168.000" stroke-width="3.001" stroke="black" fill="none" stroke-linecap="round"></path><path d="M 114.000,168.000 C 112.487,175.299 113.503,174.965 114.000,182.000" stroke-width="3.000" stroke="black" fill="none" stroke-linecap="round"></path><path d="M 114.000,182.000 C 115.540,191.948 115.987,190.799 121.000,199.000" stroke-width="2.785" stroke="black" fill="none" stroke-linecap="round"></path><path d="M 121.000,199.000 C 128.702,207.278 127.540,207.448 138.000,213.000" stroke-width="2.479" stroke="black" fill="none" stroke-linecap="round"></path><path d="M 138.000,213.000 C 148.468,220.056 148.202,219.278 160.000,223.000" stroke-width="2.307" stroke="black" fill="none" stroke-linecap="round"></path><path d="M 160.000,223.000 C 172.485,224.750 171.968,226.056 185.000,225.000" stroke-width="2.283" stroke="black" fill="none" stroke-linecap="round"></path><path d="M 185.000,225.000 C 198.113,226.972 197.485,225.250 210.000,224.000" stroke-width="2.278" stroke="black" fill="none" stroke-linecap="round"></path><path d="M 210.000,224.000 C 221.877,219.180 222.113,220.972 233.000,213.000" stroke-width="2.258" stroke="black" fill="none" stroke-linecap="round"></path><path d="M 233.000,213.000 C 244.501,206.682 244.377,206.680 255.000,199.000" stroke-width="2.173" stroke="black" fill="none" stroke-linecap="round"></path><path d="M 255.000,199.000 C 264.956,191.479 265.001,191.682 274.000,183.000" stroke-width="2.251" stroke="black" fill="none" stroke-linecap="round"></path><path d="M 274.000,183.000 C 280.692,176.168 280.956,176.479 287.000,169.000" stroke-width="2.461" stroke="black" fill="none" stroke-linecap="round"></path><path d="M 287.000,169.000 C 291.793,163.710 291.692,163.668 296.000,158.000" stroke-width="2.902" stroke="black" fill="none" stroke-linecap="round"></path><path d="M 296.000,158.000 C 299.382,154.314 298.793,154.210 301.000,150.000" stroke-width="3.320" stroke="black" fill="none" stroke-linecap="round"></path><path d="M 301.000,150.000 C 302.000,146.003 302.382,146.314 302.000,142.000" stroke-width="3.603" stroke="black" fill="none" stroke-linecap="round"></path><path d="M 302.000,142.000 C 303.385,136.486 302.000,137.503 301.000,133.000" stroke-width="3.650" stroke="black" fill="none" stroke-linecap="round"></path><path d="M 301.000,133.000 C 295.580,127.113 296.885,126.986 289.000,123.000" stroke-width="3.048" stroke="black" fill="none" stroke-linecap="round"></path><path d="M 289.000,123.000 C 279.361,117.096 279.580,117.113 269.000,113.000" stroke-width="2.587" stroke="black" fill="none" stroke-linecap="round"></path><path d="M 269.000,113.000 C 257.715,108.492 257.861,108.596 246.000,106.000" stroke-width="2.401" stroke="black" fill="none" stroke-linecap="round"></path><path d="M 246.000,106.000 C 234.047,103.753 234.215,103.492 222.000,103.000" stroke-width="2.286" stroke="black" fill="none" stroke-linecap="round"></path><path d="M 222.000,103.000 C 209.950,102.237 210.047,102.253 198.000,103.000" stroke-width="2.372" stroke="black" fill="none" stroke-linecap="round"></path><path d="M 198.000,103.000 C 185.976,102.787 186.450,103.737 175.000,106.000" stroke-width="2.377" stroke="black" fill="none" stroke-linecap="round"></path><path d="M 175.000,106.000 C 164.982,109.146 165.476,108.787 157.000,115.000" stroke-width="2.456" stroke="black" fill="none" stroke-linecap="round"></path><path d="M 157.000,115.000 C 149.659,120.644 149.982,120.146 145.000,128.000" stroke-width="2.659" stroke="black" fill="none" stroke-linecap="round"></path><path d="M 145.000,128.000 C 139.987,136.201 140.159,135.644 138.000,145.000" stroke-width="2.630" stroke="black" fill="none" stroke-linecap="round"></path><path d="M 138.000,145.000 C 136.396,152.356 136.487,151.701 138.000,159.000" stroke-width="2.932" stroke="black" fill="none" stroke-linecap="round"></path><path d="M 138.000,159.000 C 139.820,167.879 139.896,166.856 145.000,174.000" stroke-width="2.874" stroke="black" fill="none" stroke-linecap="round"></path><path d="M 145.000,174.000 C 151.781,180.890 150.820,180.879 160.000,185.000" stroke-width="2.677" stroke="black" fill="none" stroke-linecap="round"></path><path d="M 160.000,185.000 C 170.261,189.487 169.781,189.890 181.000,192.000" stroke-width="2.621" stroke="black" fill="none" stroke-linecap="round"></path><path d="M 181.000,192.000 C 193.916,195.098 193.761,194.987 207.000,196.000" stroke-width="2.318" stroke="black" fill="none" stroke-linecap="round"></path><path d="M 207.000,196.000 C 223.000,196.000 222.916,197.098 239.000,196.000" stroke-width="1.989" stroke="black" fill="none" stroke-linecap="round"></path><path d="M 239.000,196.000 C 256.018,196.531 256.000,196.000 273.000,196.000" stroke-width="1.853" stroke="black" fill="none" stroke-linecap="round"></path><path d="M 273.000,196.000 C 288.092,195.769 288.018,195.531 303.000,194.000" stroke-width="1.975" stroke="black" fill="none" stroke-linecap="round"></path><path d="M 303.000,194.000 C 317.554,191.778 317.592,192.269 332.000,189.000" stroke-width="2.033" stroke="black" fill="none" stroke-linecap="round"></path><path d="M 332.000,189.000 C 343.473,186.365 343.554,186.778 355.000,184.000" stroke-width="2.198" stroke="black" fill="none" stroke-linecap="round"></path><path d="M 355.000,184.000 C 362.968,182.285 362.973,182.365 371.000,181.000" stroke-width="2.580" stroke="black" fill="none" stroke-linecap="round"></path><path d="M 371.000,181.000 C 375.999,179.077 375.468,180.285 380.000,180.000" stroke-width="3.214" stroke="black" fill="none" stroke-linecap="round"></path><path d="M 380.000,180.000 C 382.124,181.889 382.499,180.577 384.000,184.000" stroke-width="4.182" stroke="black" fill="none" stroke-linecap="round"></path><path d="M 384.000,184.000 C 385.142,188.285 386.124,186.389 388.000,189.000" stroke-width="4.539" stroke="black" fill="none" stroke-linecap="round"></path><path d="M 388.000,189.000 C 396.339,190.824 395.142,190.785 404.000,189.000" stroke-width="3.250" stroke="black" fill="none" stroke-linecap="round"></path><path d="M 404.000,189.000 C 417.100,184.247 417.339,185.824 430.000,179.000" stroke-width="2.377" stroke="black" fill="none" stroke-linecap="round"></path><path d="M 430.000,179.000 C 446.331,171.574 446.600,172.247 463.000,165.000" stroke-width="1.949" stroke="black" fill="none" stroke-linecap="round"></path><path d="M 463.000,165.000 C 481.714,157.090 481.831,157.574 501.000,151.000" stroke-width="1.840" stroke="black" fill="none" stroke-linecap="round"></path><path d="M 501.000,151.000 C 519.814,145.111 519.714,145.090 539.000,141.000" stroke-width="1.686" stroke="black" fill="none" stroke-linecap="round"></path><path d="M 539.000,141.000 C 554.917,137.636 554.814,137.611 571.000,136.000" stroke-width="1.854" stroke="black" fill="none" stroke-linecap="round"></path><path d="M 571.000,136.000 C 584.496,135.307 584.417,134.636 598.000,135.000" stroke-width="2.014" stroke="black" fill="none" stroke-linecap="round"></path><path d="M 598.000,135.000 C 606.607,134.132 606.496,134.807 615.000,135.000" stroke-width="2.514" stroke="black" fill="none" stroke-linecap="round"></path><path d="M 615.000,135.000 C 621.843,135.135 621.107,135.632 627.000,138.000" stroke-width="2.941" stroke="black" fill="none" stroke-linecap="round"></path><path d="M 627.000,138.000 C 631.019,141.038 630.843,140.135 633.000,145.000" stroke-width="3.354" stroke="black" fill="none" stroke-linecap="round"></path><path d="M 633.000,145.000 C 634.000,148.500 634.519,148.038 634.000,152.000" stroke-width="3.764" stroke="black" fill="none" stroke-linecap="round"></path><path d="M 634.000,152.000 C 634.500,156.000 634.000,155.500 633.000,159.000" stroke-width="3.908" stroke="black" fill="none" stroke-linecap="round"></path><path d="M 633.000,159.000 C 630.943,162.189 631.500,162.000 628.000,164.000" stroke-width="3.953" stroke="black" fill="none" stroke-linecap="round"></path><path d="M 628.000,164.000 C 621.963,168.745 624.443,166.189 620.000,167.000" stroke-width="4.318" stroke="black" fill="none" stroke-linecap="round"></path><path d="M 620.000,167.000 C 619.276,161.510 617.463,164.745 619.000,156.000" stroke-width="4.245" stroke="black" fill="none" stroke-linecap="round"></path><path d="M 619.000,156.000 C 620.221,151.150 618.776,151.510 619.000,147.000" stroke-width="3.831" stroke="black" fill="none" stroke-linecap="round"></path><path d="M 619.000,147.000 C 617.724,141.591 617.721,142.650 614.000,139.000" stroke-width="3.622" stroke="black" fill="none" stroke-linecap="round"></path><path d="M 614.000,139.000 C 605.454,133.458 606.224,133.591 596.000,131.000" stroke-width="2.774" stroke="black" fill="none" stroke-linecap="round"></path><path d="M 596.000,131.000 C 580.105,127.445 580.454,126.958 564.000,126.000" stroke-width="2.064" stroke="black" fill="none" stroke-linecap="round"></path><path d="M 564.000,126.000 C 541.012,124.465 541.105,123.945 518.000,124.000" stroke-width="1.648" stroke="black" fill="none" stroke-linecap="round"></path><path d="M 518.000,124.000 C 491.498,123.757 491.512,123.465 465.000,124.000" stroke-width="1.440" stroke="black" fill="none" stroke-linecap="round"></path><path d="M 465.000,124.000 C 437.000,124.504 436.998,124.257 409.000,125.000" stroke-width="1.346" stroke="black" fill="none" stroke-linecap="round"></path><path d="M 409.000,125.000 C 380.500,125.477 380.500,125.504 352.000,126.000" stroke-width="1.265" stroke="black" fill="none" stroke-linecap="round"></path><path d="M 352.000,126.000 C 326.002,126.740 326.000,126.477 300.000,127.000" stroke-width="1.347" stroke="black" fill="none" stroke-linecap="round"></path><path d="M 300.000,127.000 C 275.942,128.114 276.002,127.240 252.000,127.000" stroke-width="1.388" stroke="black" fill="none" stroke-linecap="round"></path><path d="M 252.000,127.000 C 233.029,124.655 232.942,126.114 214.000,123.000" stroke-width="1.612" stroke="black" fill="none" stroke-linecap="round"></path><path d="M 214.000,123.000 C 198.510,121.802 198.529,121.655 183.000,121.000" stroke-width="1.859" stroke="black" fill="none" stroke-linecap="round"></path><path d="M 183.000,121.000 C 169.504,120.294 169.510,120.302 156.000,120.000" stroke-width="2.016" stroke="black" fill="none" stroke-linecap="round"></path><path d="M 156.000,120.000 C 146.489,119.703 146.504,119.794 137.000,120.000" stroke-width="2.425" stroke="black" fill="none" stroke-linecap="round"></path><path d="M 137.000,120.000 C 130.494,120.435 130.489,120.203 124.000,121.000" stroke-width="2.910" stroke="black" fill="none" stroke-linecap="round"></path><path d="M 124.000,121.000 C 119.009,121.687 118.994,121.435 114.000,122.000" stroke-width="3.271" stroke="black" fill="none" stroke-linecap="round"></path><path d="M 114.000,122.000 C 111.000,122.000 111.009,122.187 108.000,122.000" stroke-width="3.882" stroke="black" fill="none" stroke-linecap="round"></path><path d="M 108.000,122.000 C 99.200,122.000 104.000,122.000 100.000,122.000" stroke-width="4.312" stroke="black" fill="none" stroke-linecap="round"></path><path d="M 100.000,122.000 C 106.000,122.000 101.200,122.000 112.000,122.000" stroke-width="4.831" stroke="black" fill="none" stroke-linecap="round"></path><path d="M 112.000,122.000 C 122.000,122.000 122.000,122.000 132.000,122.000" stroke-width="3.079" stroke="black" fill="none" stroke-linecap="round"></path><path d="M 132.000,122.000 C 148.000,122.000 148.000,122.000 164.000,122.000" stroke-width="2.124" stroke="black" fill="none" stroke-linecap="round"></path><path d="M 164.000,122.000 C 185.502,122.229 185.500,122.000 207.000,122.000" stroke-width="1.723" stroke="black" fill="none" stroke-linecap="round"></path><path d="M 207.000,122.000 C 232.576,122.679 232.502,121.729 258.000,121.000" stroke-width="1.581" stroke="black" fill="none" stroke-linecap="round"></path><path d="M 258.000,121.000 C 285.450,117.438 285.576,119.179 313.000,115.000" stroke-width="1.343" stroke="black" fill="none" stroke-linecap="round"></path><path d="M 313.000,115.000 C 341.999,112.983 341.950,112.438 371.000,111.000" stroke-width="1.293" stroke="black" fill="none" stroke-linecap="round"></path><path d="M 371.000,111.000 C 400.504,109.052 400.499,108.983 430.000,107.000" stroke-width="1.225" stroke="black" fill="none" stroke-linecap="round"></path><path d="M 430.000,107.000 C 458.010,105.133 458.004,105.052 486.000,103.000" stroke-width="1.241" stroke="black" fill="none" stroke-linecap="round"></path><path d="M 486.000,103.000 C 510.532,101.330 510.510,101.133 535.000,99.000" stroke-width="1.336" stroke="black" fill="none" stroke-linecap="round"></path><path d="M 535.000,99.000 C 552.487,96.876 552.532,97.330 570.000,95.000" stroke-width="1.605" stroke="black" fill="none" stroke-linecap="round"></path><path d="M 570.000,95.000 C 580.486,93.701 580.487,93.876 591.000,93.000" stroke-width="2.147" stroke="black" fill="none" stroke-linecap="round"></path><path d="M 591.000,93.000 C 600.638,92.575 595.486,92.701 600.000,93.000" stroke-width="2.992" stroke="black" fill="none" stroke-linecap="round"></path><path d="M 600.000,93.000 C 593.975,93.862 599.138,93.575 588.000,95.000" stroke-width="3.835" stroke="black" fill="none" stroke-linecap="round"></path><path d="M 588.000,95.000 C 573.157,99.392 572.975,97.862 558.000,101.000" stroke-width="2.414" stroke="black" fill="none" stroke-linecap="round"></path><path d="M 558.000,101.000 C 540.004,101.766 540.157,102.892 522.000,102.000" stroke-width="1.952" stroke="black" fill="none" stroke-linecap="round"></path><path d="M 522.000,102.000 C 501.489,102.476 501.504,102.266 481.000,102.000" stroke-width="1.729" stroke="black" fill="none" stroke-linecap="round"></path><path d="M 481.000,102.000 C 458.465,101.515 458.489,101.476 436.000,100.000" stroke-width="1.543" stroke="black" fill="none" stroke-linecap="round"></path><path d="M 436.000,100.000 C 413.986,98.145 413.965,98.515 392.000,96.000" stroke-width="1.602" stroke="black" fill="none" stroke-linecap="round"></path><path d="M 392.000,96.000 C 372.994,94.053 372.986,94.145 354.000,92.000" stroke-width="1.691" stroke="black" fill="none" stroke-linecap="round"></path><path d="M 354.000,92.000 C 335.994,90.056 335.994,90.053 318.000,88.000" stroke-width="1.764" stroke="black" fill="none" stroke-linecap="round"></path><path d="M 318.000,88.000 C 301.031,85.675 300.994,86.056 284.000,84.000" stroke-width="1.834" stroke="black" fill="none" stroke-linecap="round"></path><path d="M 284.000,84.000 C 270.518,82.520 270.531,82.675 257.000,82.000" stroke-width="2.057" stroke="black" fill="none" stroke-linecap="round"></path><path d="M 257.000,82.000 C 244.500,82.000 244.518,81.520 232.000,82.000" stroke-width="2.206" stroke="black" fill="none" stroke-linecap="round"></path><path d="M 232.000,82.000 C 221.500,82.000 221.500,82.000 211.000,82.000" stroke-width="2.513" stroke="black" fill="none" stroke-linecap="round"></path><path d="M 211.000,82.000 C 199.500,82.000 199.500,82.000 188.000,82.000" stroke-width="2.426" stroke="black" fill="none" stroke-linecap="round"></path><path d="M 188.000,82.000 C 178.500,82.000 178.500,82.000 169.000,82.000" stroke-width="2.583" stroke="black" fill="none" stroke-linecap="round"></path><path d="M 169.000,82.000 C 160.990,81.734 161.000,82.000 153.000,82.000" stroke-width="2.739" stroke="black" fill="none" stroke-linecap="round"></path><path d="M 153.000,82.000 C 145.838,81.685 145.990,82.234 139.000,83.000" stroke-width="2.970" stroke="black" fill="none" stroke-linecap="round"></path><path d="M 139.000,83.000 C 132.858,84.657 132.838,84.185 127.000,87.000" stroke-width="3.088" stroke="black" fill="none" stroke-linecap="round"></path><path d="M 127.000,87.000 C 123.000,89.000 122.858,88.657 119.000,91.000" stroke-width="3.528" stroke="black" fill="none" stroke-linecap="round"></path><path d="M 119.000,91.000 C 114.944,92.896 115.000,93.000 111.000,95.000" stroke-width="3.584" stroke="black" fill="none" stroke-linecap="round"></path><path d="M 111.000,95.000 C 106.698,96.302 107.444,96.896 104.000,99.000" stroke-width="4.192" stroke="black" fill="none" stroke-linecap="round"></path><path d="M 104.000,99.000 C 102.435,101.391 102.198,100.802 102.000,104.000" stroke-width="4.861" stroke="black" fill="none" stroke-linecap="round"></path><path d="M 102.000,104.000 C 101.834,107.506 101.435,107.391 102.000,111.000" stroke-width="4.212" stroke="black" fill="none" stroke-linecap="round"></path><path d="M 102.000,111.000 C 101.886,118.094 102.334,118.006 103.000,125.000" stroke-width="3.280" stroke="black" fill="none" stroke-linecap="round"></path><path d="M 103.000,125.000 C 104.180,133.776 104.386,133.594 107.000,142.000" stroke-width="2.909" stroke="black" fill="none" stroke-linecap="round"></path><path d="M 107.000,142.000 C 110.234,151.421 110.180,151.276 115.000,160.000" stroke-width="2.690" stroke="black" fill="none" stroke-linecap="round"></path><path d="M 115.000,160.000 C 120.184,169.669 120.234,169.421 127.000,178.000" stroke-width="2.536" stroke="black" fill="none" stroke-linecap="round"></path><path d="M 127.000,178.000 C 134.273,185.741 133.684,186.169 142.000,193.000" stroke-width="2.512" stroke="black" fill="none" stroke-linecap="round"></path><path d="M 142.000,193.000 C 150.346,201.874 150.773,201.241 160.000,209.000" stroke-width="2.319" stroke="black" fill="none" stroke-linecap="round"></path><path d="M 160.000,209.000 C 171.390,217.695 171.346,217.374 184.000,224.000" stroke-width="2.110" stroke="black" fill="none" stroke-linecap="round"></path><path d="M 184.000,224.000 C 199.609,231.697 199.390,231.695 216.000,237.000" stroke-width="1.868" stroke="black" fill="none" stroke-linecap="round"></path><path d="M 216.000,237.000 C 233.771,242.798 233.609,242.697 252.000,246.000" stroke-width="1.846" stroke="black" fill="none" stroke-linecap="round"></path><path d="M 252.000,246.000 C 270.946,249.023 270.771,249.298 290.000,250.000" stroke-width="1.765" stroke="black" fill="none" stroke-linecap="round"></path><path d="M 290.000,250.000 C 310.203,252.005 309.946,251.023 330.000,250.000" stroke-width="1.703" stroke="black" fill="none" stroke-linecap="round"></path><path d="M 330.000,250.000 C 349.881,247.353 349.703,248.005 369.000,242.000" stroke-width="1.639" stroke="black" fill="none" stroke-linecap="round"></path><path d="M 369.000,242.000 C 387.461,236.555 387.381,236.853 405.000,229.000" stroke-width="1.652" stroke="black" fill="none" stroke-linecap="round"></path><path d="M 405.000,229.000 C 419.955,222.262 419.961,222.555 434.000,214.000" stroke-width="1.786" stroke="black" fill="none" stroke-linecap="round"></path><path d="M 434.000,214.000 C 445.551,207.189 445.455,207.262 456.000,199.000" stroke-width="2.052" stroke="black" fill="none" stroke-linecap="round"></path><path d="M 456.000,199.000 C 464.201,192.615 464.051,192.689 471.000,185.000" stroke-width="2.324" stroke="black" fill="none" stroke-linecap="round"></path><path d="M 471.000,185.000 C 477.091,178.540 476.701,178.615 481.000,171.000" stroke-width="2.635" stroke="black" fill="none" stroke-linecap="round"></path><path d="M 481.000,171.000 C 484.014,164.653 484.091,165.040 485.000,158.000" stroke-width="2.960" stroke="black" fill="none" stroke-linecap="round"></path><path d="M 485.000,158.000 C 486.483,150.674 486.014,151.153 485.000,144.000" stroke-width="3.046" stroke="black" fill="none" stroke-linecap="round"></path><path d="M 485.000,144.000 C 484.001,135.601 483.483,137.174 479.000,131.000" stroke-width="2.991" stroke="black" fill="none" stroke-linecap="round"></path><path d="M 479.000,131.000 C 470.140,123.929 471.501,124.101 460.000,121.000" stroke-width="2.618" stroke="black" fill="none" stroke-linecap="round"></path><path d="M 460.000,121.000 C 447.033,118.225 447.640,117.429 434.000,118.000" stroke-width="2.259" stroke="black" fill="none" stroke-linecap="round"></path><path d="M 434.000,118.000 C 417.607,116.979 418.033,117.725 402.000,120.000" stroke-width="2.088" stroke="black" fill="none" stroke-linecap="round"></path><path d="M 402.000,120.000 C 386.625,124.094 386.607,122.979 372.000,130.000" stroke-width="1.945" stroke="black" fill="none" stroke-linecap="round"></path><path d="M 372.000,130.000 C 360.652,134.913 360.625,134.594 350.000,141.000" stroke-width="2.180" stroke="black" fill="none" stroke-linecap="round"></path><path d="M 350.000,141.000 C 343.024,144.980 343.152,144.913 337.000,150.000" stroke-width="2.597" stroke="black" fill="none" stroke-linecap="round"></path><path d="M 337.000,150.000 C 329.720,154.560 334.024,152.480 332.000,156.000" stroke-width="3.366" stroke="black" fill="none" stroke-linecap="round"></path><path d="M 332.000,156.000 C 343.784,160.758 339.220,160.560 356.000,162.000" stroke-width="3.259" stroke="black" fill="none" stroke-linecap="round"></path><path d="M 356.000,162.000 C 373.526,162.699 373.284,163.758 391.000,162.000" stroke-width="2.046" stroke="black" fill="none" stroke-linecap="round"></path><path d="M 391.000,162.000 C 411.161,161.694 411.026,161.199 431.000,159.000" stroke-width="1.771" stroke="black" fill="none" stroke-linecap="round"></path><path d="M 431.000,159.000 C 451.552,155.249 451.661,156.194 472.000,151.000" stroke-width="1.668" stroke="black" fill="none" stroke-linecap="round"></path><path d="M 472.000,151.000 C 489.944,146.726 490.052,147.249 508.000,143.000" stroke-width="1.741" stroke="black" fill="none" stroke-linecap="round"></path><path d="M 508.000,143.000 C 521.430,139.939 521.444,140.226 535.000,138.000" stroke-width="2.009" stroke="black" fill="none" stroke-linecap="round"></path><path d="M 535.000,138.000 C 542.494,137.313 542.430,136.939 550.000,137.000" stroke-width="2.605" stroke="black" fill="none" stroke-linecap="round"></path><path d="M 550.000,137.000 C 557.071,134.429 554.494,136.813 559.000,137.000" stroke-width="3.230" stroke="black" fill="none" stroke-linecap="round"></path><path d="M 559.000,137.000 C 560.635,143.368 561.571,140.429 559.000,149.000" stroke-width="3.219" stroke="black" fill="none" stroke-linecap="round"></path><path d="M 559.000,149.000 C 554.790,158.648 556.135,158.868 550.000,168.000" stroke-width="2.691" stroke="black" fill="none" stroke-linecap="round"></path><path d="M 550.000,168.000 C 544.038,179.021 544.290,179.148 538.000,190.000" stroke-width="2.385" stroke="black" fill="none" stroke-linecap="round"></path><path d="M 538.000,190.000 C 532.061,198.629 533.038,199.021 528.000,208.000" stroke-width="2.494" stroke="black" fill="none" stroke-linecap="round"></path><path d="M 528.000,208.000 C 522.880,215.525 525.561,213.629 525.000,220.000" stroke-width="2.933" stroke="black" fill="none" stroke-linecap="round"></path><path d="M 525.000,220.000 C 530.431,225.606 527.380,225.025 537.000,227.000" stroke-width="3.583" stroke="black" fill="none" stroke-linecap="round"></path><path d="M 537.000,227.000 C 547.582,227.947 546.931,229.106 558.000,227.000" stroke-width="2.763" stroke="black" fill="none" stroke-linecap="round"></path><path d="M 558.000,227.000 C 569.582,225.390 569.582,225.947 581.000,223.000" stroke-width="2.476" stroke="black" fill="none" stroke-linecap="round"></path><path d="M 581.000,223.000 C 591.072,220.758 591.082,220.890 601.000,218.000" stroke-width="2.576" stroke="black" fill="none" stroke-linecap="round"></path><path d="M 601.000,218.000 C 608.873,214.876 609.072,215.758 617.000,213.000" stroke-width="2.632" stroke="black" fill="none" stroke-linecap="round"></path><path d="M 617.000,213.000 C 625.360,209.658 621.873,211.876 627.000,212.000" stroke-width="3.205" stroke="black" fill="none" stroke-linecap="round"></path><path d="M 627.000,212.000 C 625.942,217.660 628.860,214.658 624.000,223.000" stroke-width="4.067" stroke="black" fill="none" stroke-linecap="round"></path><path d="M 624.000,223.000 C 621.080,228.354 621.942,228.660 619.000,234.000" stroke-width="3.423" stroke="black" fill="none" stroke-linecap="round"></path><path d="M 619.000,234.000 C 614.772,239.772 617.580,237.854 617.000,242.000" stroke-width="3.620" stroke="black" fill="none" stroke-linecap="round"></path><path d="M 617.000,242.000 C 624.358,246.782 621.272,246.272 632.000,247.000" stroke-width="3.771" stroke="black" fill="none" stroke-linecap="round"></path><path d="M 632.000,247.000 C 642.537,246.521 641.858,247.282 652.000,243.000" stroke-width="2.758" stroke="black" fill="none" stroke-linecap="round"></path><path d="M 652.000,243.000 C 663.500,237.000 664.037,238.521 675.000,231.000" stroke-width="2.424" stroke="black" fill="none" stroke-linecap="round"></path><path d="M 675.000,231.000 C 686.617,225.209 686.500,225.000 698.000,219.000" stroke-width="2.339" stroke="black" fill="none" stroke-linecap="round"></path></svg>