<svg xmlns="http://www.w3.org/2000/svg" xmlns:xlink="http://www.w3.org/1999/xlink" viewBox="0 0 724 414" width="724" height="414"><path d="M 150.000,169.000 C 145.239,165.481 145.000,166.000 140.000,163.000" stroke-width="5.030" stroke="black" fill="none" stroke-linecap="round"></path><path d="M 140.000,163.000 C 135.393,161.757 135.739,160.981 131.000,160.000" stroke-width="4.548" stroke="black" fill="none" stroke-linecap="round"></path><path d="M 131.000,160.000 C 128.051,158.387 127.893,158.757 125.000,157.000" stroke-width="4.122" stroke="black" fill="none" stroke-linecap="round"></path><path d="M 125.000,157.000 C 122.529,155.920 122.551,155.887 120.000,155.000" stroke-width="4.226" stroke="black" fill="none" stroke-linecap="round"></path><path d="M 120.000,155.000 C 116.971,154.080 117.029,153.920 114.000,153.000" stroke-width="4.088" stroke="black" fill="none" stroke-linecap="round"></path><path d="M 114.000,153.000 C 111.568,151.770 111.471,152.080 109.000,151.000" stroke-width="4.172" stroke="black" fill="none" stroke-linecap="round"></path><path d="M 109.000,151.000 C 106.406,150.802 106.568,150.270 104.000,150.000" stroke-width="4.279" stroke="black" fill="none" stroke-linecap="round"></path><path d="M 104.000,150.000 C 100.398,148.699 100.406,148.802 97.000,147.000" stroke-width="4.479" stroke="black" fill="none" stroke-linecap="round"></path><path d="M 97.000,147.000 C 91.806,145.937 94.398,145.699 92.000,144.000" stroke-width="4.686" stroke="black" fill="none" stroke-linecap="round"></path><path d="M 92.000,144.000 C 94.540,139.966 92.306,140.937 98.000,137.000" stroke-width="5.001" stroke="black" fill="none" stroke-linecap="round"></path><path d="M 98.000,137.000 C 101.907,134.339 101.540,133.966 106.000,132.000" stroke-width="3.945" stroke="black" fill="none" stroke-linecap="round"></path><path d="M 106.000,132.000 C 112.493,128.486 112.407,128.339 119.000,125.000" stroke-width="3.241" stroke="black" fill="none" stroke-linecap="round"></path><path d="M 119.000,125.000 C 126.764,121.435 126.493,120.986 134.000,117.000" stroke-width="2.863" stroke="black" fill="none" stroke-linecap="round"></path><path d="M 134.000,117.000 C 141.923,111.385 142.264,111.935 150.000,106.000" stroke-width="2.693" stroke="black" fill="none" stroke-linecap="round"></path><path d="M 150.000,106.000 C 158.962,101.098 158.423,100.385 167.000,95.000" stroke-width="2.604" stroke="black" fill="none" stroke-linecap="round"></path><path d="M 167.000,95.000 C 172.735,89.176 173.462,90.098 179.000,84.000" stroke-width="2.730" stroke="black" fill="none" stroke-linecap="round"></path><path d="M 179.000,84.000 C 184.766,80.311 184.235,79.676 190.000,76.000" stroke-width="3.045" stroke="black" fill="none" stroke-linecap="round"></path><path d="M 190.000,76.000 C 196.176,68.594 193.266,73.311 196.000,70.000" stroke-width="3.461" stroke="black" fill="none" stroke-linecap="round"></path><path d="M 196.000,70.000 C 193.310,77.534 195.676,72.594 189.000,84.000" stroke-width="4.305" stroke="black" fill="none" stroke-linecap="round"></path><path d="M 189.000,84.000 C 183.289,90.332 184.310,91.034 178.000,97.000" stroke-width="3.062" stroke="black" fill="none" stroke-linecap="round"></path><path d="M 178.000,97.000 C 172.121,105.094 171.789,104.832 166.000,113.000" stroke-width="2.711" stroke="black" fill="none" stroke-linecap="round"></path><path d="M 166.000,113.000 C 159.686,120.267 160.121,120.594 154.000,128.000" stroke-width="2.662" stroke="black" fill="none" stroke-linecap="round"></path><path d="M 154.000,128.000 C 147.858,137.768 147.186,137.267 141.000,147.000" stroke-width="2.403" stroke="black" fill="none" stroke-linecap="round"></path><path d="M 141.000,147.000 C 134.180,154.760 134.858,155.268 128.000,163.000" stroke-width="2.499" stroke="black" fill="none" stroke-linecap="round"></path><path d="M 128.000,163.000 C 122.860,171.275 122.180,170.760 117.000,179.000" stroke-width="2.586" stroke="black" fill="none" stroke-linecap="round"></path><path d="M 117.000,179.000 C 111.866,185.855 111.860,185.775 106.000,192.000" stroke-width="2.739" stroke="black" fill="none" stroke-linecap="round"></path><path d="M 106.000,192.000 C 101.013,196.515 101.366,196.855 96.000,201.000" stroke-width="3.008" stroke="black" fill="none" stroke-linecap="round"></path><path d="M 96.000,201.000 C 91.666,205.209 91.513,205.015 87.000,209.000" stroke-width="3.146" stroke="black" fill="none" stroke-linecap="round"></path><path d="M 87.000,209.000 C 83.713,211.878 83.666,211.709 80.000,214.000" stroke-width="3.536" stroke="black" fill="none" stroke-linecap="round"></path><path d="M 80.000,214.000 C 76.515,215.536 76.713,215.878 73.000,217.000" stroke-width="3.773" stroke="black" fill="none" stroke-linecap="round"></path><path d="M 73.000,217.000 C 70.551,218.150 70.515,218.036 68.000,219.000" stroke-width="4.068" stroke="black" fill="none" stroke-linecap="round"></path><path d="M 68.000,219.000 C 64.383,219.699 64.551,220.150 61.000,221.000" stroke-width="4.463" stroke="black" fill="none" stroke-linecap="round"></path><path d="M 61.000,221.000 C 54.463,224.894 57.883,222.199 55.000,224.000" stroke-width="4.640" stroke="black" fill="none" stroke-linecap="round"></path><path d="M 55.000,224.000 C 59.149,219.528 55.963,222.394 64.000,216.000" stroke-width="4.847" stroke="black" fill="none" stroke-linecap="round"></path><path d="M 64.000,216.000 C 70.733,212.338 70.149,211.528 77.000,208.000" stroke-width="3.426" stroke="black" fill="none" stroke-linecap="round"></path><path d="M 77.000,208.000 C 83.360,202.808 83.733,203.338 90.000,198.000" stroke-width="2.945" stroke="black" fill="none" stroke-linecap="round"></path><path d="M 90.000,198.000 C 98.182,192.749 97.860,192.308 106.000,187.000" stroke-width="2.714" stroke="black" fill="none" stroke-linecap="round"></path><path d="M 106.000,187.000 C 114.943,179.926 115.182,180.249 124.000,173.000" stroke-width="2.547" stroke="black" fill="none" stroke-linecap="round"></path><path d="M 124.000,173.000 C 131.767,166.660 131.943,166.926 140.000,161.000" stroke-width="2.514" stroke="black" fill="none" stroke-linecap="round"></path><path d="M 140.000,161.000 C 147.866,155.768 147.767,155.660 156.000,151.000" stroke-width="2.618" stroke="black" fill="none" stroke-linecap="round"></path><path d="M 156.000,151.000 C 162.351,147.180 162.366,147.268 169.000,144.000" stroke-width="2.826" stroke="black" fill="none" stroke-linecap="round"></path><path d="M 169.000,144.000 C 173.903,141.699 173.851,141.680 179.000,140.000" stroke-width="3.181" stroke="black" fill="none" stroke-linecap="round"></path><path d="M 179.000,140.000 C 183.038,139.132 182.903,138.699 187.000,138.000" stroke-width="3.535" stroke="black" fill="none" stroke-linecap="round"></path><path d="M 187.000,138.000 C 193.903,136.000 190.038,137.132 193.000,136.000" stroke-width="4.289" stroke="black" fill="none" stroke-linecap="round"></path><path d="M 193.000,136.000 C 186.815,135.593 191.403,136.000 182.000,138.000" stroke-width="4.740" stroke="black" fill="none" stroke-linecap="round"></path><path d="M 182.000,138.000 C 177.250,141.750 176.815,140.593 173.000,146.000" stroke-width="3.690" stroke="black" fill="none" stroke-linecap="round"></path><path d="M 173.000,146.000 C 169.125,150.618 168.750,150.250 165.000,155.000" stroke-width="3.340" stroke="black" fill="none" stroke-linecap="round"></path><path d="M 165.000,155.000 C 160.735,158.766 161.125,159.118 157.000,163.000" stroke-width="3.308" stroke="black" fill="none" stroke-linecap="round"></path><path d="M 157.000,163.000 C 153.369,167.406 153.235,167.266 150.000,172.000" stroke-width="3.402" stroke="black" fill="none" stroke-linecap="round"></path><path d="M 150.000,172.000 C 147.092,174.725 147.869,174.906 146.000,178.000" stroke-width="3.721" stroke="black" fill="none" stroke-linecap="round"></path><path d="M 146.000,178.000 C 144.207,182.605 145.092,180.725 146.000,184.000" stroke-width="4.378" stroke="black" fill="none" stroke-linecap="round"></path><path d="M 146.000,184.000 C 150.485,184.774 148.707,186.105 155.000,185.000" stroke-width="3.857" stroke="black" fill="none" stroke-linecap="round"></path><path d="M 155.000,185.000 C 160.786,186.303 160.485,185.274 166.000,185.000" stroke-width="3.537" stroke="black" fill="none" stroke-linecap="round"></path><path d="M 166.000,185.000 C 172.656,182.299 172.786,183.303 179.000,179.000" stroke-width="3.244" stroke="black" fill="none" stroke-linecap="round"></path><path d="M 179.000,179.000 C 185.233,175.845 185.156,175.799 191.000,172.000" stroke-width="3.139" stroke="black" fill="none" stroke-linecap="round"></path><path d="M 191.000,172.000 C 195.517,168.522 195.733,168.845 200.000,165.000" stroke-width="3.295" stroke="black" fill="none" stroke-linecap="round"></path><path d="M 200.000,165.000 C 205.000,162.392 202.517,163.022 205.000,161.000" stroke-width="3.769" stroke="black" fill="none" stroke-linecap="round"></path><path d="M 205.000,161.000 C 202.133,159.289 205.000,159.892 200.000,160.000" stroke-width="4.741" stroke="black" fill="none" stroke-linecap="round"></path><path d="M 200.000,160.000 C 197.876,161.889 197.633,160.789 196.000,164.000" stroke-width="4.364" stroke="black" fill="none" stroke-linecap="round"></path><path d="M 196.000,164.000 C 193.392,166.217 193.876,166.389 192.000,169.000" stroke-width="4.060" stroke="black" fill="none" stroke-linecap="round"></path><path d="M 192.000,169.000 C 191.230,171.473 190.892,171.217 191.000,174.000" stroke-width="4.243" stroke="black" fill="none" stroke-linecap="round"></path><path d="M 191.000,174.000 C 189.393,178.852 190.730,176.973 191.000,180.000" stroke-width="4.632" stroke="black" fill="none" stroke-linecap="round"></path><path d="M 191.000,180.000 C 194.664,180.026 192.893,181.352 198.000,179.000" stroke-width="4.843" stroke="black" fill="none" stroke-linecap="round"></path><path d="M 198.000,179.000 C 200.833,176.792 201.164,178.026 204.000,176.000" stroke-width="4.741" stroke="black" fill="none" stroke-linecap="round"></path><path d="M 204.000,176.000 C 207.019,176.284 206.833,175.292 210.000,176.000" stroke-width="5.143" stroke="black" fill="none" stroke-linecap="round"></path><path d="M 210.000,176.000 C 218.155,176.738 217.519,175.284 225.000,174.000" stroke-width="4.199" stroke="black" fill="none" stroke-linecap="round"></path><path d="M 225.000,174.000 C 232.913,169.537 233.155,170.738 240.000,164.000" stroke-width="3.050" stroke="black" fill="none" stroke-linecap="round"></path><path d="M 240.000,164.000 C 248.877,156.891 248.913,157.037 257.000,149.000" stroke-width="2.505" stroke="black" fill="none" stroke-linecap="round"></path><path d="M 257.000,149.000 C 266.222,139.702 266.377,139.891 275.000,130.000" stroke-width="2.352" stroke="black" fill="none" stroke-linecap="round"></path><path d="M 275.000,130.000 C 285.019,118.516 285.222,118.702 295.000,107.000" stroke-width="2.105" stroke="black" fill="none" stroke-linecap="round"></path><path d="M 295.000,107.000 C 304.646,96.123 304.519,96.016 314.000,85.000" stroke-width="2.084" stroke="black" fill="none" stroke-linecap="round"></path><path d="M 314.000,85.000 C 322.873,73.893 323.146,74.123 332.000,63.000" stroke-width="2.151" stroke="black" fill="none" stroke-linecap="round"></path><path d="M 332.000,63.000 C 338.465,55.469 338.373,55.393 345.000,48.000" stroke-width="2.444" stroke="black" fill="none" stroke-linecap="round"></path><path d="M 345.000,48.000 C 348.621,43.042 348.965,43.469 353.000,39.000" stroke-width="2.982" stroke="black" fill="none" stroke-linecap="round"></path><path d="M 353.000,39.000 C 359.331,34.764 355.121,37.042 358.000,36.000" stroke-width="4.069" stroke="black" fill="none" stroke-linecap="round"></path><path d="M 358.000,36.000 C 348.376,43.857 352.331,41.264 339.000,52.000" stroke-width="2.771" stroke="black" fill="none" stroke-linecap="round"></path><path d="M 339.000,52.000 C 329.375,60.365 329.376,60.357 320.000,69.000" stroke-width="2.385" stroke="black" fill="none" stroke-linecap="round"></path><path d="M 320.000,69.000 C 310.104,77.620 310.375,77.865 301.000,87.000" stroke-width="2.204" stroke="black" fill="none" stroke-linecap="round"></path><path d="M 301.000,87.000 C 293.854,94.877 293.604,94.620 287.000,103.000" stroke-width="2.454" stroke="black" fill="none" stroke-linecap="round"></path><path d="M 287.000,103.000 C 280.135,110.731 280.354,110.877 274.000,119.000" stroke-width="2.457" stroke="black" fill="none" stroke-linecap="round"></path><path d="M 274.000,119.000 C 268.114,126.067 268.635,126.231 264.000,134.000" stroke-width="2.642" stroke="black" fill="none" stroke-linecap="round"></path><path d="M 264.000,134.000 C 261.604,139.906 261.114,139.567 260.000,146.000" stroke-width="2.973" stroke="black" fill="none" stroke-linecap="round"></path><path d="M 260.000,146.000 C 257.292,150.865 259.104,149.406 259.000,153.000" stroke-width="3.609" stroke="black" fill="none" stroke-linecap="round"></path><path d="M 259.000,153.000 C 263.436,155.746 261.292,155.865 268.000,156.000" stroke-width="4.109" stroke="black" fill="none" stroke-linecap="round"></path><path d="M 268.000,156.000 C 272.976,156.012 272.436,156.246 277.000,154.000" stroke-width="3.774" stroke="black" fill="none" stroke-linecap="round"></path><path d="M 277.000,154.000 C 281.203,150.029 281.976,151.512 286.000,147.000" stroke-width="3.418" stroke="black" fill="none" stroke-linecap="round"></path><path d="M 286.000,147.000 C 290.944,144.379 290.703,144.029 296.000,142.000" stroke-width="3.454" stroke="black" fill="none" stroke-linecap="round"></path><path d="M 296.000,142.000 C 299.406,140.198 299.444,140.379 303.000,139.000" stroke-width="3.696" stroke="black" fill="none" stroke-linecap="round"></path><path d="M 303.000,139.000 C 306.833,136.500 305.406,138.198 308.000,138.000" stroke-width="4.116" stroke="black" fill="none" stroke-linecap="round"></path><path d="M 308.000,138.000 C 310.802,143.188 310.333,141.000 310.000,148.000" stroke-width="4.241" stroke="black" fill="none" stroke-linecap="round"></path><path d="M 310.000,148.000 C 307.596,155.323 308.802,155.188 304.000,162.000" stroke-width="3.261" stroke="black" fill="none" stroke-linecap="round"></path><path d="M 304.000,162.000 C 300.071,168.049 300.596,168.323 296.000,174.000" stroke-width="3.105" stroke="black" fill="none" stroke-linecap="round"></path><path d="M 296.000,174.000 C 289.473,180.618 293.571,177.549 291.000,181.000" stroke-width="3.521" stroke="black" fill="none" stroke-linecap="round"></path><path d="M 291.000,181.000 C 297.791,179.104 293.473,181.618 304.000,176.000" stroke-width="4.093" stroke="black" fill="none" stroke-linecap="round"></path><path d="M 304.000,176.000 C 312.544,171.074 312.791,171.604 321.000,166.000" stroke-width="2.848" stroke="black" fill="none" stroke-linecap="round"></path><path d="M 321.000,166.000 C 329.980,160.467 330.044,160.574 339.000,155.000" stroke-width="2.539" stroke="black" fill="none" stroke-linecap="round"></path><path d="M 339.000,155.000 C 346.374,150.271 346.480,150.467 354.000,146.000" stroke-width="2.698" stroke="black" fill="none" stroke-linecap="round"></path><path d="M 354.000,146.000 C 360.223,141.000 358.874,143.271 364.000,141.000" stroke-width="3.196" stroke="black" fill="none" stroke-linecap="round"></path><path d="M 364.000,141.000 C 366.152,143.926 365.723,141.000 365.000,146.000" stroke-width="4.365" stroke="black" fill="none" stroke-linecap="round"></path><path d="M 365.000,146.000 C 359.010,152.145 361.152,152.926 354.000,159.000" stroke-width="3.071" stroke="black" fill="none" stroke-linecap="round"></path><path d="M 354.000,159.000 C 349.882,165.431 349.510,165.145 346.000,172.000" stroke-width="2.995" stroke="black" fill="none" stroke-linecap="round"></path><path d="M 346.000,172.000 C 339.006,180.003 343.382,176.431 341.000,181.000" stroke-width="3.334" stroke="black" fill="none" stroke-linecap="round"></path><path d="M 341.000,181.000 C 349.060,180.239 344.006,182.503 356.000,177.000" stroke-width="3.975" stroke="black" fill="none" stroke-linecap="round"></path><path d="M 356.000,177.000 C 363.461,171.940 364.060,173.239 371.000,167.000" stroke-width="3.081" stroke="black" fill="none" stroke-linecap="round"></path><path d="M 371.000,167.000 C 377.944,162.410 377.961,162.440 385.000,158.000" stroke-width="3.023" stroke="black" fill="none" stroke-linecap="round"></path><path d="M 385.000,158.000 C 395.569,150.484 389.944,154.910 395.000,152.000" stroke-width="3.236" stroke="black" fill="none" stroke-linecap="round"></path><path d="M 395.000,152.000 C 388.467,158.970 394.069,154.484 382.000,166.000" stroke-width="3.778" stroke="black" fill="none" stroke-linecap="round"></path><path d="M 382.000,166.000 C 376.588,171.188 376.967,171.470 372.000,177.000" stroke-width="3.320" stroke="black" fill="none" stroke-linecap="round"></path><path d="M 372.000,177.000 C 366.428,182.999 369.088,180.688 367.000,185.000" stroke-width="3.523" stroke="black" fill="none" stroke-linecap="round"></path><path d="M 367.000,185.000 C 370.944,185.389 367.428,186.499 374.000,184.000" stroke-width="4.511" stroke="black" fill="none" stroke-linecap="round"></path><path d="M 374.000,184.000 C 375.457,181.106 376.444,182.889 378.000,180.000" stroke-width="4.347" stroke="black" fill="none" stroke-linecap="round"></path><path d="M 378.000,180.000 C 388.663,179.084 386.957,176.106 397.000,174.000" stroke-width="4.736" stroke="black" fill="none" stroke-linecap="round"></path><path d="M 397.000,174.000 C 408.625,165.145 409.163,166.584 419.000,155.000" stroke-width="2.572" stroke="black" fill="none" stroke-linecap="round"></path><path d="M 419.000,155.000 C 431.062,142.973 431.125,143.145 442.000,130.000" stroke-width="2.042" stroke="black" fill="none" stroke-linecap="round"></path><path d="M 442.000,130.000 C 452.117,117.088 452.562,117.473 462.000,104.000" stroke-width="1.899" stroke="black" fill="none" stroke-linecap="round"></path><path d="M 462.000,104.000 C 470.376,92.406 470.617,92.588 479.000,81.000" stroke-width="2.034" stroke="black" fill="none" stroke-linecap="round"></path><path d="M 479.000,81.000 C 486.556,72.373 485.876,71.906 493.000,63.000" stroke-width="2.278" stroke="black" fill="none" stroke-linecap="round"></path><path d="M 493.000,63.000 C 496.899,55.940 497.556,56.373 501.000,49.000" stroke-width="2.673" stroke="black" fill="none" stroke-linecap="round"></path><path d="M 501.000,49.000 C 503.574,45.044 503.399,44.940 506.000,41.000" stroke-width="3.225" stroke="black" fill="none" stroke-linecap="round"></path><path d="M 506.000,41.000 C 510.799,36.131 508.074,37.544 510.000,34.000" stroke-width="3.569" stroke="black" fill="none" stroke-linecap="round"></path><path d="M 510.000,34.000 C 505.937,31.468 509.299,32.131 503.000,33.000" stroke-width="4.476" stroke="black" fill="none" stroke-linecap="round"></path><path d="M 503.000,33.000 C 494.572,39.026 494.437,37.468 487.000,46.000" stroke-width="2.842" stroke="black" fill="none" stroke-linecap="round"></path><path d="M 487.000,46.000 C 475.316,56.394 475.572,56.526 465.000,68.000" stroke-width="2.185" stroke="black" fill="none" stroke-linecap="round"></path><path d="M 465.000,68.000 C 455.631,79.230 455.316,78.894 447.000,91.000" stroke-width="2.103" stroke="black" fill="none" stroke-linecap="round"></path><path d="M 447.000,91.000 C 439.762,102.189 439.131,101.730 432.000,113.000" stroke-width="2.216" stroke="black" fill="none" stroke-linecap="round"></path><path d="M 432.000,113.000 C 425.129,121.245 425.762,121.689 419.000,130.000" stroke-width="2.346" stroke="black" fill="none" stroke-linecap="round"></path><path d="M 419.000,130.000 C 414.647,136.314 414.629,136.245 411.000,143.000" stroke-width="2.794" stroke="black" fill="none" stroke-linecap="round"></path><path d="M 411.000,143.000 C 408.647,147.388 408.647,147.314 407.000,152.000" stroke-width="3.291" stroke="black" fill="none" stroke-linecap="round"></path><path d="M 407.000,152.000 C 404.644,155.838 406.147,154.388 406.000,157.000" stroke-width="3.986" stroke="black" fill="none" stroke-linecap="round"></path><path d="M 406.000,157.000 C 409.981,157.799 408.144,158.838 414.000,158.000" stroke-width="4.346" stroke="black" fill="none" stroke-linecap="round"></path><path d="M 414.000,158.000 C 420.334,159.416 419.981,158.299 426.000,158.000" stroke-width="3.555" stroke="black" fill="none" stroke-linecap="round"></path><path d="M 426.000,158.000 C 432.304,155.505 432.334,156.416 438.000,152.000" stroke-width="3.316" stroke="black" fill="none" stroke-linecap="round"></path><path d="M 438.000,152.000 C 445.089,147.120 445.304,147.505 452.000,142.000" stroke-width="2.995" stroke="black" fill="none" stroke-linecap="round"></path><path d="M 452.000,142.000 C 458.381,136.837 458.589,137.120 465.000,132.000" stroke-width="2.901" stroke="black" fill="none" stroke-linecap="round"></path><path d="M 465.000,132.000 C 471.198,126.968 471.381,127.337 478.000,123.000" stroke-width="2.910" stroke="black" fill="none" stroke-linecap="round"></path><path d="M 478.000,123.000 C 483.191,119.076 483.198,119.968 489.000,118.000" stroke-width="3.165" stroke="black" fill="none" stroke-linecap="round"></path><path d="M 489.000,118.000 C 498.037,116.168 496.691,116.576 505.000,118.000" stroke-width="2.910" stroke="black" fill="none" stroke-linecap="round"></path><path d="M 505.000,118.000 C 507.161,120.272 507.537,118.668 508.000,123.000" stroke-width="3.701" stroke="black" fill="none" stroke-linecap="round"></path><path d="M 508.000,123.000 C 509.395,127.054 509.161,126.772 509.000,131.000" stroke-width="3.780" stroke="black" fill="none" stroke-linecap="round"></path><path d="M 509.000,131.000 C 508.795,137.626 508.395,137.054 506.000,143.000" stroke-width="3.397" stroke="black" fill="none" stroke-linecap="round"></path><path d="M 506.000,143.000 C 501.765,150.235 502.295,150.126 496.000,156.000" stroke-width="2.938" stroke="black" fill="none" stroke-linecap="round"></path><path d="M 496.000,156.000 C 487.493,164.184 487.765,164.235 478.000,171.000" stroke-width="2.512" stroke="black" fill="none" stroke-linecap="round"></path><path d="M 478.000,171.000 C 467.883,178.211 467.993,178.184 457.000,184.000" stroke-width="2.294" stroke="black" fill="none" stroke-linecap="round"></path><path d="M 457.000,184.000 C 444.361,190.958 444.383,190.711 431.000,196.000" stroke-width="2.092" stroke="black" fill="none" stroke-linecap="round"></path><path d="M 431.000,196.000 C 417.681,200.766 417.861,200.958 404.000,204.000" stroke-width="2.110" stroke="black" fill="none" stroke-linecap="round"></path><path d="M 404.000,204.000 C 390.092,207.238 390.181,207.266 376.000,209.000" stroke-width="2.106" stroke="black" fill="none" stroke-linecap="round"></path><path d="M 376.000,209.000 C 362.018,210.499 362.092,210.738 348.000,211.000" stroke-width="2.061" stroke="black" fill="none" stroke-linecap="round"></path><path d="M 348.000,211.000 C 333.995,211.254 334.018,211.499 320.000,211.000" stroke-width="2.157" stroke="black" fill="none" stroke-linecap="round"></path><path d="M 320.000,211.000 C 306.323,211.793 306.495,210.754 293.000,210.000" stroke-width="2.111" stroke="black" fill="none" stroke-linecap="round"></path><path d="M 293.000,210.000 C 280.486,207.058 280.323,208.293 268.000,204.000" stroke-width="2.199" stroke="black" fill="none" stroke-linecap="round"></path><path d="M 268.000,204.000 C 256.000,201.000 255.986,201.058 244.000,198.000" stroke-width="2.263" stroke="black" fill="none" stroke-linecap="round"></path><path d="M 244.000,198.000 C 231.866,195.461 232.000,195.000 220.000,192.000" stroke-width="2.225" stroke="black" fill="none" stroke-linecap="round"></path><path d="M 220.000,192.000 C 208.049,187.846 207.866,188.461 196.000,184.000" stroke-width="2.193" stroke="black" fill="none" stroke-linecap="round"></path><path d="M 196.000,184.000 C 184.400,180.800 184.549,180.346 173.000,177.000" stroke-width="2.287" stroke="black" fill="none" stroke-linecap="round"></path><path d="M 173.000,177.000 C 162.072,172.788 161.900,173.300 151.000,169.000" stroke-width="2.342" stroke="black" fill="none" stroke-linecap="round"></path><path d="M 151.000,169.000 C 143.035,166.381 143.072,166.288 135.000,164.000" stroke-width="2.612" stroke="black" fill="none" stroke-linecap="round"></path><path d="M 135.000,164.000 C 129.490,162.537 129.535,162.381 124.000,161.000" stroke-width="3.098" stroke="black" fill="none" stroke-linecap="round"></path><path d="M 124.000,161.000 C 116.788,159.545 116.990,159.037 110.000,157.000" stroke-width="3.050" stroke="black" fill="none" stroke-linecap="round"></path><path d="M 110.000,157.000 C 103.916,155.671 104.788,155.045 100.000,152.000" stroke-width="3.228" stroke="black" fill="none" stroke-linecap="round"></path><path d="M 100.000,152.000 C 96.042,147.361 95.916,148.171 94.000,142.000" stroke-width="3.303" stroke="black" fill="none" stroke-linecap="round"></path><path d="M 94.000,142.000 C 92.755,136.533 92.042,136.861 92.000,131.000" stroke-width="3.366" stroke="black" fill="none" stroke-linecap="round"></path><path d="M 92.000,131.000 C 90.207,125.286 91.255,125.533 91.000,120.000" stroke-width="3.339" stroke="black" fill="none" stroke-linecap="round"></path><path d="M 91.000,120.000 C 91.654,114.346 91.707,115.286 95.000,111.000" stroke-width="3.492" stroke="black" fill="none" stroke-linecap="round"></path><path d="M 95.000,111.000 C 101.337,104.947 100.654,105.346 109.000,102.000" stroke-width="3.010" stroke="black" fill="none" stroke-linecap="round"></path><path d="M 109.000,102.000 C 121.517,99.070 120.837,97.447 134.000,96.000" stroke-width="2.358" stroke="black" fill="none" stroke-linecap="round"></path><path d="M 134.000,96.000 C 151.949,91.287 152.017,91.570 170.000,87.000" stroke-width="1.911" stroke="black" fill="none" stroke-linecap="round"></path><path d="M 170.000,87.000 C 191.965,81.843 191.949,81.787 214.000,77.000" stroke-width="1.635" stroke="black" fill="none" stroke-linecap="round"></path><path d="M 214.000,77.000 C 237.442,71.712 237.465,71.843 261.000,67.000" stroke-width="1.467" stroke="black" fill="none" stroke-linecap="round"></path><path d="M 261.000,67.000 C 284.886,61.768 284.942,62.212 309.000,58.000" stroke-width="1.457" stroke="black" fill="none" stroke-linecap="round"></path><path d="M 309.000,58.000 C 332.913,53.606 332.886,54.268 357.000,52.000" stroke-width="1.504" stroke="black" fill="none" stroke-linecap="round"></path><path d="M 357.000,52.000 C 378.115,50.569 377.913,50.606 399.000,52.000" stroke-width="1.537" stroke="black" fill="none" stroke-linecap="round"></path><path d="M 399.000,52.000 C 415.321,52.315 414.615,53.069 430.000,57.000" stroke-width="1.863" stroke="black" fill="none" stroke-linecap="round"></path><path d="M 430.000,57.000 C 440.599,60.177 438.821,59.815 446.000,67.000" stroke-width="2.361" stroke="black" fill="none" stroke-linecap="round"></path><path d="M 446.000,67.000 C 450.280,74.386 450.099,72.177 449.000,81.000" stroke-width="2.756" stroke="black" fill="none" stroke-linecap="round"></path><path d="M 449.000,81.000 C 446.544,91.269 447.280,89.886 440.000,98.000" stroke-width="2.612" stroke="black" fill="none" stroke-linecap="round"></path><path d="M 440.000,98.000 C 427.830,108.878 429.044,109.269 414.000,117.000" stroke-width="2.105" stroke="black" fill="none" stroke-linecap="round"></path><path d="M 414.000,117.000 C 396.118,127.608 396.330,127.378 377.000,135.000" stroke-width="1.704" stroke="black" fill="none" stroke-linecap="round"></path><path d="M 377.000,135.000 C 358.299,141.979 358.618,142.108 339.000,146.000" stroke-width="1.695" stroke="black" fill="none" stroke-linecap="round"></path><path d="M 339.000,146.000 C 322.045,148.760 322.299,149.479 305.000,150.000" stroke-width="1.858" stroke="black" fill="none" stroke-linecap="round"></path><path d="M 305.000,150.000 C 294.500,150.000 294.545,150.760 284.000,150.000" stroke-width="2.226" stroke="black" fill="none" stroke-linecap="round"></path><path d="M 284.000,150.000 C 277.437,151.359 278.000,150.000 272.000,150.000" stroke-width="2.837" stroke="black" fill="none" stroke-linecap="round"></path></svg>