<svg xmlns="http://www.w3.org/2000/svg" xmlns:xlink="http://www.w3.org/1999/xlink" viewBox="0 0 724 414" width="724" height="414"><path d="M 144.000,150.000 C 138.153,146.943 138.000,147.500 132.000,145.000" stroke-width="4.437" stroke="black" fill="none" stroke-linecap="round"></path><path d="M 132.000,145.000 C 128.494,144.538 128.653,143.943 125.000,144.000" stroke-width="4.604" stroke="black" fill="none" stroke-linecap="round"></path><path d="M 125.000,144.000 C 121.942,143.735 121.994,143.538 119.000,143.000" stroke-width="4.271" stroke="black" fill="none" stroke-linecap="round"></path><path d="M 119.000,143.000 C 115.978,142.063 115.942,142.235 113.000,141.000" stroke-width="4.150" stroke="black" fill="none" stroke-linecap="round"></path><path d="M 113.000,141.000 C 105.747,140.491 108.978,139.563 105.000,138.000" stroke-width="4.403" stroke="black" fill="none" stroke-linecap="round"></path><path d="M 105.000,138.000 C 106.814,133.731 104.247,135.491 110.000,131.000" stroke-width="4.996" stroke="black" fill="none" stroke-linecap="round"></path><path d="M 110.000,131.000 C 114.531,128.554 113.814,127.731 119.000,126.000" stroke-width="3.780" stroke="black" fill="none" stroke-linecap="round"></path><path d="M 119.000,126.000 C 124.983,122.471 125.031,122.554 131.000,119.000" stroke-width="3.273" stroke="black" fill="none" stroke-linecap="round"></path><path d="M 131.000,119.000 C 138.017,115.029 137.983,114.971 145.000,111.000" stroke-width="2.993" stroke="black" fill="none" stroke-linecap="round"></path><path d="M 145.000,111.000 C 151.276,107.903 151.017,107.529 157.000,104.000" stroke-width="3.214" stroke="black" fill="none" stroke-linecap="round"></path><path d="M 157.000,104.000 C 161.946,99.931 162.276,100.403 167.000,96.000" stroke-width="3.210" stroke="black" fill="none" stroke-linecap="round"></path><path d="M 167.000,96.000 C 171.168,93.193 170.946,92.931 175.000,90.000" stroke-width="3.382" stroke="black" fill="none" stroke-linecap="round"></path><path d="M 175.000,90.000 C 178.277,85.518 177.168,88.193 179.000,86.000" stroke-width="3.928" stroke="black" fill="none" stroke-linecap="round"></path><path d="M 179.000,86.000 C 179.330,89.339 179.777,86.518 178.000,92.000" stroke-width="4.694" stroke="black" fill="none" stroke-linecap="round"></path><path d="M 178.000,92.000 C 174.758,97.199 175.330,97.339 171.000,102.000" stroke-width="3.601" stroke="black" fill="none" stroke-linecap="round"></path><path d="M 171.000,102.000 C 165.100,108.199 165.758,108.699 160.000,115.000" stroke-width="2.939" stroke="black" fill="none" stroke-linecap="round"></path><path d="M 160.000,115.000 C 155.055,122.537 154.600,122.199 150.000,130.000" stroke-width="2.727" stroke="black" fill="none" stroke-linecap="round"></path><path d="M 150.000,130.000 C 144.209,137.815 144.555,138.037 139.000,146.000" stroke-width="2.655" stroke="black" fill="none" stroke-linecap="round"></path><path d="M 139.000,146.000 C 134.518,154.854 133.709,154.315 129.000,163.000" stroke-width="2.619" stroke="black" fill="none" stroke-linecap="round"></path><path d="M 129.000,163.000 C 123.427,169.944 124.018,170.354 118.000,177.000" stroke-width="2.708" stroke="black" fill="none" stroke-linecap="round"></path><path d="M 118.000,177.000 C 113.715,183.176 113.427,182.944 109.000,189.000" stroke-width="2.842" stroke="black" fill="none" stroke-linecap="round"></path><path d="M 109.000,189.000 C 105.370,193.903 105.215,193.676 101.000,198.000" stroke-width="3.143" stroke="black" fill="none" stroke-linecap="round"></path><path d="M 101.000,198.000 C 96.787,200.754 97.370,201.403 93.000,204.000" stroke-width="3.359" stroke="black" fill="none" stroke-linecap="round"></path><path d="M 93.000,204.000 C 90.244,207.297 89.787,206.754 87.000,210.000" stroke-width="3.625" stroke="black" fill="none" stroke-linecap="round"></path><path d="M 87.000,210.000 C 84.041,212.065 84.244,212.297 81.000,214.000" stroke-width="3.846" stroke="black" fill="none" stroke-linecap="round"></path><path d="M 81.000,214.000 C 78.638,215.801 78.541,215.565 76.000,217.000" stroke-width="4.036" stroke="black" fill="none" stroke-linecap="round"></path><path d="M 76.000,217.000 C 70.467,219.935 73.138,218.301 70.000,219.000" stroke-width="4.506" stroke="black" fill="none" stroke-linecap="round"></path><path d="M 70.000,219.000 C 71.400,215.414 69.467,217.935 74.000,213.000" stroke-width="5.000" stroke="black" fill="none" stroke-linecap="round"></path><path d="M 74.000,213.000 C 79.020,209.528 78.400,208.914 84.000,206.000" stroke-width="3.652" stroke="black" fill="none" stroke-linecap="round"></path><path d="M 84.000,206.000 C 91.120,201.160 91.020,201.028 98.000,196.000" stroke-width="3.007" stroke="black" fill="none" stroke-linecap="round"></path><path d="M 98.000,196.000 C 105.000,190.500 105.120,190.660 112.000,185.000" stroke-width="2.757" stroke="black" fill="none" stroke-linecap="round"></path><path d="M 112.000,185.000 C 119.075,179.593 119.000,179.500 126.000,174.000" stroke-width="2.806" stroke="black" fill="none" stroke-linecap="round"></path><path d="M 126.000,174.000 C 131.853,168.811 132.075,169.093 138.000,164.000" stroke-width="2.834" stroke="black" fill="none" stroke-linecap="round"></path><path d="M 138.000,164.000 C 143.592,160.120 143.353,159.811 149.000,156.000" stroke-width="3.032" stroke="black" fill="none" stroke-linecap="round"></path><path d="M 149.000,156.000 C 154.031,152.038 154.092,152.120 159.000,148.000" stroke-width="3.096" stroke="black" fill="none" stroke-linecap="round"></path><path d="M 159.000,148.000 C 162.100,145.610 162.031,145.538 165.000,143.000" stroke-width="3.545" stroke="black" fill="none" stroke-linecap="round"></path><path d="M 165.000,143.000 C 169.965,139.772 167.100,141.110 169.000,139.000" stroke-width="3.951" stroke="black" fill="none" stroke-linecap="round"></path><path d="M 169.000,139.000 C 164.405,138.413 167.465,137.772 160.000,139.000" stroke-width="4.708" stroke="black" fill="none" stroke-linecap="round"></path><path d="M 160.000,139.000 C 156.562,139.292 156.905,139.413 154.000,141.000" stroke-width="4.265" stroke="black" fill="none" stroke-linecap="round"></path><path d="M 154.000,141.000 C 150.885,143.893 150.562,143.292 148.000,147.000" stroke-width="3.893" stroke="black" fill="none" stroke-linecap="round"></path><path d="M 148.000,147.000 C 144.517,151.015 144.385,150.893 141.000,155.000" stroke-width="3.636" stroke="black" fill="none" stroke-linecap="round"></path><path d="M 141.000,155.000 C 136.824,159.356 137.017,159.515 133.000,164.000" stroke-width="3.446" stroke="black" fill="none" stroke-linecap="round"></path><path d="M 133.000,164.000 C 129.693,167.810 129.824,167.856 127.000,172.000" stroke-width="3.512" stroke="black" fill="none" stroke-linecap="round"></path><path d="M 127.000,172.000 C 125.500,175.000 125.193,174.810 124.000,178.000" stroke-width="3.862" stroke="black" fill="none" stroke-linecap="round"></path><path d="M 124.000,178.000 C 120.124,181.590 122.500,181.000 121.000,184.000" stroke-width="4.397" stroke="black" fill="none" stroke-linecap="round"></path><path d="M 121.000,184.000 C 124.090,187.778 122.124,187.090 128.000,189.000" stroke-width="4.689" stroke="black" fill="none" stroke-linecap="round"></path><path d="M 128.000,189.000 C 132.635,189.831 132.090,190.278 137.000,189.000" stroke-width="3.990" stroke="black" fill="none" stroke-linecap="round"></path><path d="M 137.000,189.000 C 143.402,187.799 143.135,187.831 149.000,185.000" stroke-width="3.422" stroke="black" fill="none" stroke-linecap="round"></path><path d="M 149.000,185.000 C 154.120,181.660 154.402,182.299 159.000,178.000" stroke-width="3.257" stroke="black" fill="none" stroke-linecap="round"></path><path d="M 159.000,178.000 C 164.206,174.230 164.120,174.160 169.000,170.000" stroke-width="3.223" stroke="black" fill="none" stroke-linecap="round"></path><path d="M 169.000,170.000 C 173.111,166.940 172.706,166.730 176.000,163.000" stroke-width="3.448" stroke="black" fill="none" stroke-linecap="round"></path><path d="M 176.000,163.000 C 180.312,158.121 178.611,159.440 180.000,155.000" stroke-width="3.611" stroke="black" fill="none" stroke-linecap="round"></path><path d="M 180.000,155.000 C 177.609,153.435 179.812,153.121 175.000,153.000" stroke-width="4.526" stroke="black" fill="none" stroke-linecap="round"></path><path d="M 175.000,153.000 C 171.319,152.234 171.609,152.435 168.000,153.000" stroke-width="4.606" stroke="black" fill="none" stroke-linecap="round"></path><path d="M 168.000,153.000 C 164.407,153.860 164.819,153.734 162.000,156.000" stroke-width="4.954" stroke="black" fill="none" stroke-linecap="round"></path><path d="M 162.000,156.000 C 157.951,159.741 159.907,157.860 159.000,161.000" stroke-width="5.201" stroke="black" fill="none" stroke-linecap="round"></path><path d="M 159.000,161.000 C 163.250,162.750 160.451,162.741 167.000,162.000" stroke-width="5.201" stroke="black" fill="none" stroke-linecap="round"></path><path d="M 167.000,162.000 C 170.476,159.958 170.750,161.250 174.000,158.000" stroke-width="4.305" stroke="black" fill="none" stroke-linecap="round"></path><path d="M 174.000,158.000 C 179.913,155.603 179.476,154.958 185.000,152.000" stroke-width="3.430" stroke="black" fill="none" stroke-linecap="round"></path><path d="M 185.000,152.000 C 191.421,146.404 191.913,147.103 198.000,141.000" stroke-width="2.971" stroke="black" fill="none" stroke-linecap="round"></path><path d="M 198.000,141.000 C 205.643,135.171 205.421,134.904 213.000,129.000" stroke-width="2.792" stroke="black" fill="none" stroke-linecap="round"></path><path d="M 213.000,129.000 C 221.233,122.249 221.143,122.171 229.000,115.000" stroke-width="2.517" stroke="black" fill="none" stroke-linecap="round"></path><path d="M 229.000,115.000 C 236.402,108.360 236.233,108.249 243.000,101.000" stroke-width="2.515" stroke="black" fill="none" stroke-linecap="round"></path><path d="M 243.000,101.000 C 248.965,93.472 249.402,93.860 255.000,86.000" stroke-width="2.656" stroke="black" fill="none" stroke-linecap="round"></path><path d="M 255.000,86.000 C 259.696,80.649 259.465,80.472 264.000,75.000" stroke-width="2.874" stroke="black" fill="none" stroke-linecap="round"></path><path d="M 264.000,75.000 C 267.543,70.029 267.696,70.149 271.000,65.000" stroke-width="3.089" stroke="black" fill="none" stroke-linecap="round"></path><path d="M 271.000,65.000 C 273.050,62.033 273.043,62.029 275.000,59.000" stroke-width="3.645" stroke="black" fill="none" stroke-linecap="round"></path><path d="M 275.000,59.000 C 277.772,55.138 277.550,55.033 280.000,51.000" stroke-width="3.626" stroke="black" fill="none" stroke-linecap="round"></path><path d="M 280.000,51.000 C 283.627,45.390 281.272,48.638 282.000,46.000" stroke-width="4.015" stroke="black" fill="none" stroke-linecap="round"></path><path d="M 282.000,46.000 C 272.051,50.329 275.627,48.390 264.000,57.000" stroke-width="4.367" stroke="black" fill="none" stroke-linecap="round"></path><path d="M 264.000,57.000 C 255.500,66.000 254.551,64.829 247.000,75.000" stroke-width="2.745" stroke="black" fill="none" stroke-linecap="round"></path><path d="M 247.000,75.000 C 238.237,83.765 238.500,84.000 230.000,93.000" stroke-width="2.410" stroke="black" fill="none" stroke-linecap="round"></path><path d="M 230.000,93.000 C 221.565,102.166 221.737,102.265 214.000,112.000" stroke-width="2.377" stroke="black" fill="none" stroke-linecap="round"></path><path d="M 214.000,112.000 C 206.892,121.926 206.565,121.666 200.000,132.000" stroke-width="2.329" stroke="black" fill="none" stroke-linecap="round"></path><path d="M 200.000,132.000 C 193.876,140.920 193.892,140.926 188.000,150.000" stroke-width="2.429" stroke="black" fill="none" stroke-linecap="round"></path><path d="M 188.000,150.000 C 182.675,157.818 182.876,157.920 178.000,166.000" stroke-width="2.643" stroke="black" fill="none" stroke-linecap="round"></path><path d="M 178.000,166.000 C 175.000,172.000 174.675,171.818 172.000,178.000" stroke-width="2.975" stroke="black" fill="none" stroke-linecap="round"></path><path d="M 172.000,178.000 C 167.641,184.170 170.500,181.000 169.000,184.000" stroke-width="3.604" stroke="black" fill="none" stroke-linecap="round"></path><path d="M 169.000,184.000 C 174.716,180.805 171.641,183.670 180.000,177.000" stroke-width="4.164" stroke="black" fill="none" stroke-linecap="round"></path><path d="M 180.000,177.000 C 187.123,171.649 187.216,171.805 194.000,166.000" stroke-width="3.060" stroke="black" fill="none" stroke-linecap="round"></path><path d="M 194.000,166.000 C 201.062,160.071 201.123,160.149 208.000,154.000" stroke-width="2.797" stroke="black" fill="none" stroke-linecap="round"></path><path d="M 208.000,154.000 C 212.710,149.115 213.062,149.571 218.000,145.000" stroke-width="3.029" stroke="black" fill="none" stroke-linecap="round"></path><path d="M 218.000,145.000 C 221.983,142.472 221.710,142.115 226.000,140.000" stroke-width="3.544" stroke="black" fill="none" stroke-linecap="round"></path><path d="M 226.000,140.000 C 230.454,135.727 228.483,138.472 231.000,137.000" stroke-width="4.327" stroke="black" fill="none" stroke-linecap="round"></path><path d="M 231.000,137.000 C 230.670,142.230 231.954,139.227 229.000,147.000" stroke-width="4.306" stroke="black" fill="none" stroke-linecap="round"></path><path d="M 229.000,147.000 C 226.603,152.054 227.170,152.230 224.000,157.000" stroke-width="3.624" stroke="black" fill="none" stroke-linecap="round"></path><path d="M 224.000,157.000 C 220.886,161.285 221.603,161.554 219.000,166.000" stroke-width="3.539" stroke="black" fill="none" stroke-linecap="round"></path><path d="M 219.000,166.000 C 216.856,171.542 217.886,168.785 218.000,172.000" stroke-width="4.307" stroke="black" fill="none" stroke-linecap="round"></path><path d="M 218.000,172.000 C 221.191,170.247 219.356,172.542 224.000,168.000" stroke-width="4.051" stroke="black" fill="none" stroke-linecap="round"></path><path d="M 224.000,168.000 C 228.500,164.000 228.691,164.247 233.000,160.000" stroke-width="3.489" stroke="black" fill="none" stroke-linecap="round"></path><path d="M 233.000,160.000 C 237.485,155.983 237.500,156.000 242.000,152.000" stroke-width="3.349" stroke="black" fill="none" stroke-linecap="round"></path><path d="M 242.000,152.000 C 245.802,148.229 245.985,148.483 250.000,145.000" stroke-width="3.427" stroke="black" fill="none" stroke-linecap="round"></path><path d="M 250.000,145.000 C 254.454,140.727 252.302,143.229 255.000,142.000" stroke-width="3.927" stroke="black" fill="none" stroke-linecap="round"></path><path d="M 255.000,142.000 C 254.899,147.389 255.954,144.227 253.000,152.000" stroke-width="4.544" stroke="black" fill="none" stroke-linecap="round"></path><path d="M 253.000,152.000 C 250.153,155.310 251.399,155.889 248.000,159.000" stroke-width="3.885" stroke="black" fill="none" stroke-linecap="round"></path><path d="M 248.000,159.000 C 246.601,161.397 246.653,161.310 246.000,164.000" stroke-width="4.106" stroke="black" fill="none" stroke-linecap="round"></path><path d="M 246.000,164.000 C 246.161,168.228 245.101,167.897 245.000,172.000" stroke-width="4.928" stroke="black" fill="none" stroke-linecap="round"></path><path d="M 245.000,172.000 C 241.280,175.321 244.161,174.728 242.000,177.000" stroke-width="4.513" stroke="black" fill="none" stroke-linecap="round"></path><path d="M 242.000,177.000 C 245.288,179.775 242.780,178.821 248.000,179.000" stroke-width="4.916" stroke="black" fill="none" stroke-linecap="round"></path><path d="M 248.000,179.000 C 252.381,176.418 252.288,177.775 256.000,173.000" stroke-width="3.866" stroke="black" fill="none" stroke-linecap="round"></path><path d="M 256.000,173.000 C 261.222,167.688 261.381,167.918 266.000,162.000" stroke-width="3.148" stroke="black" fill="none" stroke-linecap="round"></path><path d="M 266.000,162.000 C 271.468,154.975 271.722,155.188 277.000,148.000" stroke-width="2.792" stroke="black" fill="none" stroke-linecap="round"></path><path d="M 277.000,148.000 C 282.944,140.454 282.968,140.475 289.000,133.000" stroke-width="2.684" stroke="black" fill="none" stroke-linecap="round"></path><path d="M 289.000,133.000 C 296.316,124.741 295.944,124.454 303.000,116.000" stroke-width="2.516" stroke="black" fill="none" stroke-linecap="round"></path><path d="M 303.000,116.000 C 308.803,107.353 309.316,107.741 315.000,99.000" stroke-width="2.525" stroke="black" fill="none" stroke-linecap="round"></path><path d="M 315.000,99.000 C 320.661,92.119 320.303,91.853 326.000,85.000" stroke-width="2.677" stroke="black" fill="none" stroke-linecap="round"></path><path d="M 326.000,85.000 C 329.453,79.966 329.661,80.119 333.000,75.000" stroke-width="3.017" stroke="black" fill="none" stroke-linecap="round"></path><path d="M 333.000,75.000 C 337.162,69.609 336.953,69.466 341.000,64.000" stroke-width="3.092" stroke="black" fill="none" stroke-linecap="round"></path><path d="M 341.000,64.000 C 346.572,58.572 343.662,60.109 346.000,56.000" stroke-width="3.392" stroke="black" fill="none" stroke-linecap="round"></path><path d="M 346.000,56.000 C 342.070,53.665 345.572,54.072 339.000,55.000" stroke-width="4.394" stroke="black" fill="none" stroke-linecap="round"></path><path d="M 339.000,55.000 C 330.356,59.726 330.570,58.665 323.000,66.000" stroke-width="2.986" stroke="black" fill="none" stroke-linecap="round"></path><path d="M 323.000,66.000 C 313.564,74.607 313.356,74.226 305.000,84.000" stroke-width="2.432" stroke="black" fill="none" stroke-linecap="round"></path><path d="M 305.000,84.000 C 298.004,91.646 298.064,91.607 292.000,100.000" stroke-width="2.450" stroke="black" fill="none" stroke-linecap="round"></path><path d="M 292.000,100.000 C 286.734,107.846 286.504,107.646 282.000,116.000" stroke-width="2.540" stroke="black" fill="none" stroke-linecap="round"></path><path d="M 282.000,116.000 C 278.127,123.571 277.734,123.346 274.000,131.000" stroke-width="2.668" stroke="black" fill="none" stroke-linecap="round"></path><path d="M 274.000,131.000 C 270.209,136.849 270.627,137.071 267.000,143.000" stroke-width="2.954" stroke="black" fill="none" stroke-linecap="round"></path><path d="M 267.000,143.000 C 264.343,148.435 264.209,148.349 262.000,154.000" stroke-width="3.125" stroke="black" fill="none" stroke-linecap="round"></path><path d="M 262.000,154.000 C 259.307,158.013 260.343,157.935 259.000,162.000" stroke-width="3.486" stroke="black" fill="none" stroke-linecap="round"></path><path d="M 259.000,162.000 C 259.202,165.973 258.807,164.513 261.000,167.000" stroke-width="4.541" stroke="black" fill="none" stroke-linecap="round"></path><path d="M 261.000,167.000 C 263.594,166.802 262.702,167.973 266.000,166.000" stroke-width="4.345" stroke="black" fill="none" stroke-linecap="round"></path><path d="M 266.000,166.000 C 269.551,164.610 269.594,164.802 273.000,163.000" stroke-width="4.012" stroke="black" fill="none" stroke-linecap="round"></path><path d="M 273.000,163.000 C 276.955,160.904 277.051,161.110 281.000,159.000" stroke-width="3.831" stroke="black" fill="none" stroke-linecap="round"></path><path d="M 281.000,159.000 C 285.600,157.200 285.455,156.904 290.000,155.000" stroke-width="3.638" stroke="black" fill="none" stroke-linecap="round"></path><path d="M 290.000,155.000 C 294.446,152.397 294.600,152.700 299.000,150.000" stroke-width="3.485" stroke="black" fill="none" stroke-linecap="round"></path><path d="M 299.000,150.000 C 303.793,146.918 303.946,147.397 309.000,145.000" stroke-width="3.474" stroke="black" fill="none" stroke-linecap="round"></path><path d="M 309.000,145.000 C 313.453,143.568 313.293,143.418 318.000,143.000" stroke-width="3.593" stroke="black" fill="none" stroke-linecap="round"></path><path d="M 318.000,143.000 C 321.518,142.751 321.453,142.568 325.000,143.000" stroke-width="3.858" stroke="black" fill="none" stroke-linecap="round"></path><path d="M 325.000,143.000 C 330.107,142.107 328.518,143.251 332.000,144.000" stroke-width="4.384" stroke="black" fill="none" stroke-linecap="round"></path><path d="M 332.000,144.000 C 333.276,147.448 333.607,145.607 332.000,150.000" stroke-width="4.223" stroke="black" fill="none" stroke-linecap="round"></path><path d="M 332.000,150.000 C 328.508,155.492 329.276,155.448 324.000,160.000" stroke-width="3.521" stroke="black" fill="none" stroke-linecap="round"></path><path d="M 324.000,160.000 C 317.506,166.702 317.508,166.492 310.000,172.000" stroke-width="2.902" stroke="black" fill="none" stroke-linecap="round"></path><path d="M 310.000,172.000 C 300.403,178.798 300.506,178.702 290.000,184.000" stroke-width="2.509" stroke="black" fill="none" stroke-linecap="round"></path><path d="M 290.000,184.000 C 278.305,189.898 278.403,189.798 266.000,194.000" stroke-width="2.302" stroke="black" fill="none" stroke-linecap="round"></path><path d="M 266.000,194.000 C 251.284,199.479 251.305,198.898 236.000,202.000" stroke-width="2.075" stroke="black" fill="none" stroke-linecap="round"></path><path d="M 236.000,202.000 C 202.581,207.366 202.784,207.479 169.000,210.000" stroke-width="1.311" stroke="black" fill="none" stroke-linecap="round"></path><path d="M 169.000,210.000 C 151.458,210.818 151.581,211.366 134.000,210.000" stroke-width="1.599" stroke="black" fill="none" stroke-linecap="round"></path><path d="M 134.000,210.000 C 119.208,209.894 119.458,209.318 105.000,207.000" stroke-width="1.903" stroke="black" fill="none" stroke-linecap="round"></path><path d="M 105.000,207.000 C 92.063,204.002 92.208,204.394 80.000,199.000" stroke-width="2.109" stroke="black" fill="none" stroke-linecap="round"></path><path d="M 80.000,199.000 C 70.552,196.006 71.563,195.502 64.000,190.000" stroke-width="2.442" stroke="black" fill="none" stroke-linecap="round"></path><path d="M 64.000,190.000 C 58.287,184.089 58.552,185.006 56.000,177.000" stroke-width="2.785" stroke="black" fill="none" stroke-linecap="round"></path><path d="M 56.000,177.000 C 52.901,167.792 53.287,168.589 54.000,159.000" stroke-width="2.681" stroke="black" fill="none" stroke-linecap="round"></path><path d="M 54.000,159.000 C 55.297,146.833 55.401,147.792 61.000,137.000" stroke-width="2.467" stroke="black" fill="none" stroke-linecap="round"></path><path d="M 61.000,137.000 C 70.387,121.375 69.797,121.833 83.000,109.000" stroke-width="1.973" stroke="black" fill="none" stroke-linecap="round"></path><path d="M 83.000,109.000 C 97.330,95.096 96.887,95.375 114.000,85.000" stroke-width="1.875" stroke="black" fill="none" stroke-linecap="round"></path><path d="M 114.000,85.000 C 133.386,73.889 132.830,73.596 154.000,66.000" stroke-width="1.643" stroke="black" fill="none" stroke-linecap="round"></path><path d="M 154.000,66.000 C 174.187,58.598 173.886,58.389 195.000,54.000" stroke-width="1.564" stroke="black" fill="none" stroke-linecap="round"></path><path d="M 195.000,54.000 C 217.379,49.154 217.187,49.098 240.000,47.000" stroke-width="1.539" stroke="black" fill="none" stroke-linecap="round"></path><path d="M 240.000,47.000 C 259.497,46.257 259.379,45.154 279.000,46.000" stroke-width="1.606" stroke="black" fill="none" stroke-linecap="round"></path><path d="M 279.000,46.000 C 297.754,44.004 297.497,45.757 316.000,46.000" stroke-width="1.669" stroke="black" fill="none" stroke-linecap="round"></path><path d="M 316.000,46.000 C 330.056,48.110 329.754,47.504 343.000,53.000" stroke-width="1.919" stroke="black" fill="none" stroke-linecap="round"></path><path d="M 343.000,53.000 C 353.355,56.531 352.556,56.610 361.000,63.000" stroke-width="2.317" stroke="black" fill="none" stroke-linecap="round"></path><path d="M 361.000,63.000 C 366.896,68.426 366.355,67.531 369.000,75.000" stroke-width="2.782" stroke="black" fill="none" stroke-linecap="round"></path><path d="M 369.000,75.000 C 371.456,82.332 370.896,80.926 369.000,88.000" stroke-width="2.999" stroke="black" fill="none" stroke-linecap="round"></path><path d="M 369.000,88.000 C 363.792,97.840 364.956,97.332 356.000,105.000" stroke-width="2.624" stroke="black" fill="none" stroke-linecap="round"></path><path d="M 356.000,105.000 C 344.631,114.570 345.292,114.840 332.000,122.000" stroke-width="2.202" stroke="black" fill="none" stroke-linecap="round"></path><path d="M 332.000,122.000 C 319.083,130.222 319.131,129.570 305.000,135.000" stroke-width="2.025" stroke="black" fill="none" stroke-linecap="round"></path><path d="M 305.000,135.000 C 290.627,138.910 291.083,139.722 276.000,141.000" stroke-width="2.044" stroke="black" fill="none" stroke-linecap="round"></path><path d="M 276.000,141.000 C 262.516,142.425 262.627,142.910 249.000,143.000" stroke-width="2.075" stroke="black" fill="none" stroke-linecap="round"></path><path d="M 249.000,143.000 C 239.000,143.000 239.016,143.425 229.000,143.000" stroke-width="2.407" stroke="black" fill="none" stroke-linecap="round"></path><path d="M 229.000,143.000 C 217.190,144.215 223.500,143.000 218.000,143.000" stroke-width="3.034" stroke="black" fill="none" stroke-linecap="round"></path><path d="M 218.000,143.000 C 225.299,139.282 219.190,141.215 233.000,137.000" stroke-width="3.947" stroke="black" fill="none" stroke-linecap="round"></path><path d="M 233.000,137.000 C 238.973,135.786 238.799,135.282 245.000,135.000" stroke-width="3.389" stroke="black" fill="none" stroke-linecap="round"></path><path d="M 245.000,135.000 C 250.491,134.306 250.473,134.286 256.000,134.000" stroke-width="3.403" stroke="black" fill="none" stroke-linecap="round"></path><path d="M 256.000,134.000 C 259.529,133.711 259.491,133.806 263.000,134.000" stroke-width="4.198" stroke="black" fill="none" stroke-linecap="round"></path><path d="M 263.000,134.000 C 265.478,134.640 265.529,134.211 268.000,135.000" stroke-width="4.976" stroke="black" fill="none" stroke-linecap="round"></path><path d="M 268.000,135.000 C 272.484,135.699 272.478,135.640 277.000,136.000" stroke-width="3.984" stroke="black" fill="none" stroke-linecap="round"></path><path d="M 277.000,136.000 C 287.492,136.822 287.484,136.699 298.000,137.000" stroke-width="2.898" stroke="black" fill="none" stroke-linecap="round"></path><path d="M 298.000,137.000 C 317.189,138.992 316.992,137.322 336.000,137.000" stroke-width="2.038" stroke="black" fill="none" stroke-linecap="round"></path><path d="M 336.000,137.000 C 359.509,132.547 359.689,134.492 383.000,128.000" stroke-width="1.553" stroke="black" fill="none" stroke-linecap="round"></path><path d="M 383.000,128.000 C 405.925,123.054 406.009,123.547 429.000,119.000" stroke-width="1.558" stroke="black" fill="none" stroke-linecap="round"></path><path d="M 429.000,119.000 C 442.953,116.338 442.925,116.554 457.000,115.000" stroke-width="1.908" stroke="black" fill="none" stroke-linecap="round"></path><path d="M 457.000,115.000 C 472.701,111.598 463.953,114.338 471.000,115.000" stroke-width="2.679" stroke="black" fill="none" stroke-linecap="round"></path><path d="M 471.000,115.000 C 458.577,127.686 466.701,123.598 445.000,139.000" stroke-width="2.704" stroke="black" fill="none" stroke-linecap="round"></path><path d="M 445.000,139.000 C 427.489,151.379 428.577,152.686 411.000,165.000" stroke-width="1.882" stroke="black" fill="none" stroke-linecap="round"></path><path d="M 411.000,165.000 C 386.891,183.434 392.989,179.879 376.000,196.000" stroke-width="1.544" stroke="black" fill="none" stroke-linecap="round"></path><path d="M 376.000,196.000 C 381.024,196.908 373.891,198.434 385.000,195.000" stroke-width="2.749" stroke="black" fill="none" stroke-linecap="round"></path><path d="M 385.000,195.000 C 392.692,189.011 393.524,190.908 401.000,184.000" stroke-width="2.662" stroke="black" fill="none" stroke-linecap="round"></path><path d="M 401.000,184.000 C 423.888,169.302 424.192,170.011 448.000,157.000" stroke-width="1.577" stroke="black" fill="none" stroke-linecap="round"></path><path d="M 448.000,157.000 C 472.932,144.006 472.888,144.302 499.000,134.000" stroke-width="1.426" stroke="black" fill="none" stroke-linecap="round"></path><path d="M 499.000,134.000 C 522.632,124.872 522.432,125.006 547.000,119.000" stroke-width="1.465" stroke="black" fill="none" stroke-linecap="round"></path><path d="M 547.000,119.000 C 564.432,115.541 564.132,114.872 582.000,114.000" stroke-width="1.655" stroke="black" fill="none" stroke-linecap="round"></path><path d="M 582.000,114.000 C 593.043,113.391 592.932,113.041 604.000,114.000" stroke-width="2.142" stroke="black" fill="none" stroke-linecap="round"></path><path d="M 604.000,114.000 C 611.824,113.353 611.043,114.391 618.000,116.000" stroke-width="2.761" stroke="black" fill="none" stroke-linecap="round"></path><path d="M 618.000,116.000 C 621.660,119.357 622.324,117.853 625.000,123.000" stroke-width="3.225" stroke="black" fill="none" stroke-linecap="round"></path><path d="M 625.000,123.000 C 626.645,125.906 627.160,125.357 629.000,128.000" stroke-width="3.783" stroke="black" fill="none" stroke-linecap="round"></path><path d="M 629.000,128.000 C 631.260,130.368 631.145,129.906 634.000,131.000" stroke-width="4.058" stroke="black" fill="none" stroke-linecap="round"></path><path d="M 634.000,131.000 C 638.000,131.000 637.760,131.868 642.000,131.000" stroke-width="3.837" stroke="black" fill="none" stroke-linecap="round"></path><path d="M 642.000,131.000 C 648.500,131.000 648.500,131.000 655.000,131.000" stroke-width="3.358" stroke="black" fill="none" stroke-linecap="round"></path><path d="M 655.000,131.000 C 661.555,131.560 661.500,131.000 668.000,131.000" stroke-width="3.237" stroke="black" fill="none" stroke-linecap="round"></path><path d="M 668.000,131.000 C 673.000,130.000 673.055,130.560 678.000,129.000" stroke-width="3.427" stroke="black" fill="none" stroke-linecap="round"></path><path d="M 678.000,129.000 C 684.722,128.082 680.500,128.500 683.000,128.000" stroke-width="3.974" stroke="black" fill="none" stroke-linecap="round"></path><path d="M 683.000,128.000 C 670.000,128.000 674.222,127.582 657.000,128.000" stroke-width="3.508" stroke="black" fill="none" stroke-linecap="round"></path><path d="M 657.000,128.000 C 637.941,126.886 638.000,128.000 619.000,128.000" stroke-width="1.978" stroke="black" fill="none" stroke-linecap="round"></path><path d="M 619.000,128.000 C 595.513,130.625 595.441,129.386 572.000,133.000" stroke-width="1.659" stroke="black" fill="none" stroke-linecap="round"></path><path d="M 572.000,133.000 C 546.032,135.889 546.013,135.625 520.000,138.000" stroke-width="1.454" stroke="black" fill="none" stroke-linecap="round"></path><path d="M 520.000,138.000 C 490.511,140.170 490.532,140.389 461.000,142.000" stroke-width="1.310" stroke="black" fill="none" stroke-linecap="round"></path><path d="M 461.000,142.000 C 426.024,144.663 426.011,144.170 391.000,146.000" stroke-width="1.125" stroke="black" fill="none" stroke-linecap="round"></path><path d="M 391.000,146.000 C 360.502,146.742 360.524,147.163 330.000,147.000" stroke-width="1.189" stroke="black" fill="none" stroke-linecap="round"></path><path d="M 330.000,147.000 C 301.456,145.926 301.502,147.242 273.000,147.000" stroke-width="1.220" stroke="black" fill="none" stroke-linecap="round"></path><path d="M 273.000,147.000 C 248.333,147.813 248.456,147.926 224.000,151.000" stroke-width="1.369" stroke="black" fill="none" stroke-linecap="round"></path><path d="M 224.000,151.000 C 206.548,154.760 206.333,153.313 189.000,158.000" stroke-width="1.610" stroke="black" fill="none" stroke-linecap="round"></path><path d="M 189.000,158.000 C 174.000,160.500 174.048,160.760 159.000,163.000" stroke-width="1.875" stroke="black" fill="none" stroke-linecap="round"></path></svg>