<svg xmlns="http://www.w3.org/2000/svg" xmlns:xlink="http://www.w3.org/1999/xlink" viewBox="0 0 911 643" width="911" height="643"><path d="M 171.500,326.500 C 180.310,322.414 180.500,323.000 189.500,319.500" stroke-width="4.657" stroke="black" fill="none" stroke-linecap="round"></path><path d="M 189.500,319.500 C 200.781,315.335 200.810,315.914 212.500,313.500" stroke-width="2.831" stroke="black" fill="none" stroke-linecap="round"></path><path d="M 212.500,313.500 C 242.490,309.910 242.281,308.835 272.500,306.500" stroke-width="1.487" stroke="black" fill="none" stroke-linecap="round"></path><path d="M 272.500,306.500 C 286.544,305.351 286.490,304.910 300.500,303.500" stroke-width="1.834" stroke="black" fill="none" stroke-linecap="round"></path><path d="M 300.500,303.500 C 336.037,300.541 335.544,298.851 370.500,293.500" stroke-width="1.241" stroke="black" fill="none" stroke-linecap="round"></path><path d="M 370.500,293.500 C 382.000,289.000 382.537,291.041 393.500,284.500" stroke-width="1.828" stroke="black" fill="none" stroke-linecap="round"></path><path d="M 393.500,284.500 C 404.828,279.485 405.000,280.000 416.500,275.500" stroke-width="2.131" stroke="black" fill="none" stroke-linecap="round"></path><path d="M 416.500,275.500 C 425.671,271.236 425.328,272.485 434.500,270.500" stroke-width="2.436" stroke="black" fill="none" stroke-linecap="round"></path><path d="M 434.500,270.500 C 438.550,270.950 437.671,270.236 440.500,273.500" stroke-width="3.336" stroke="black" fill="none" stroke-linecap="round"></path><path d="M 440.500,273.500 C 449.084,280.233 445.050,279.450 447.500,287.500" stroke-width="2.975" stroke="black" fill="none" stroke-linecap="round"></path><path d="M 447.500,287.500 C 436.376,319.894 440.584,319.233 423.500,351.500" stroke-width="1.321" stroke="black" fill="none" stroke-linecap="round"></path><path d="M 423.500,351.500 C 418.949,359.974 419.876,360.394 414.500,368.500" stroke-width="2.031" stroke="black" fill="none" stroke-linecap="round"></path><path d="M 414.500,368.500 C 413.105,371.558 412.949,371.474 411.500,374.500" stroke-width="3.113" stroke="black" fill="none" stroke-linecap="round"></path><path d="M 411.500,374.500 C 407.725,379.694 410.105,377.058 408.500,379.500" stroke-width="3.757" stroke="black" fill="none" stroke-linecap="round"></path><path d="M 408.500,379.500 C 411.837,376.296 409.725,379.194 415.500,373.500" stroke-width="4.183" stroke="black" fill="none" stroke-linecap="round"></path><path d="M 415.500,373.500 C 430.252,360.816 430.837,361.796 446.500,350.500" stroke-width="2.015" stroke="black" fill="none" stroke-linecap="round"></path><path d="M 446.500,350.500 C 461.506,339.087 461.752,340.816 478.500,333.500" stroke-width="1.857" stroke="black" fill="none" stroke-linecap="round"></path><path d="M 478.500,333.500 C 498.894,328.754 498.006,327.087 519.500,326.500" stroke-width="1.693" stroke="black" fill="none" stroke-linecap="round"></path><path d="M 519.500,326.500 C 531.078,325.786 530.894,325.254 542.500,326.500" stroke-width="2.081" stroke="black" fill="none" stroke-linecap="round"></path><path d="M 542.500,326.500 C 546.953,327.932 547.078,326.786 551.500,328.500" stroke-width="2.939" stroke="black" fill="none" stroke-linecap="round"></path><path d="M 551.500,328.500 C 555.094,329.205 554.953,328.932 558.500,328.500" stroke-width="4.093" stroke="black" fill="none" stroke-linecap="round"></path><path d="M 558.500,328.500 C 569.644,325.954 569.594,326.205 580.500,322.500" stroke-width="2.742" stroke="black" fill="none" stroke-linecap="round"></path><path d="M 580.500,322.500 C 591.378,318.127 591.644,318.954 602.500,314.500" stroke-width="2.404" stroke="black" fill="none" stroke-linecap="round"></path><path d="M 602.500,314.500 C 614.419,310.679 614.378,310.627 626.500,307.500" stroke-width="2.254" stroke="black" fill="none" stroke-linecap="round"></path><path d="M 626.500,307.500 C 633.448,305.507 633.419,305.679 640.500,304.500" stroke-width="2.805" stroke="black" fill="none" stroke-linecap="round"></path><path d="M 640.500,304.500 C 645.764,303.054 643.948,304.007 647.500,304.500" stroke-width="3.879" stroke="black" fill="none" stroke-linecap="round"></path><path d="M 647.500,304.500 C 647.537,307.177 648.764,305.554 646.500,309.500" stroke-width="4.558" stroke="black" fill="none" stroke-linecap="round"></path><path d="M 646.500,309.500 C 635.925,335.888 635.037,335.177 622.500,360.500" stroke-width="1.591" stroke="black" fill="none" stroke-linecap="round"></path><path d="M 622.500,360.500 C 616.680,368.161 617.925,368.888 610.500,375.500" stroke-width="2.204" stroke="black" fill="none" stroke-linecap="round"></path><path d="M 610.500,375.500 C 608.611,377.624 608.680,377.661 606.500,379.500" stroke-width="3.284" stroke="black" fill="none" stroke-linecap="round"></path><path d="M 606.500,379.500 C 600.370,384.630 604.111,381.624 601.500,383.500" stroke-width="3.807" stroke="black" fill="none" stroke-linecap="round"></path><path d="M 601.500,383.500 C 609.002,377.485 604.870,380.130 615.500,370.500" stroke-width="3.603" stroke="black" fill="none" stroke-linecap="round"></path><path d="M 615.500,370.500 C 627.547,354.453 629.002,355.985 641.500,340.500" stroke-width="1.936" stroke="black" fill="none" stroke-linecap="round"></path><path d="M 641.500,340.500 C 648.622,335.658 647.547,334.453 655.500,330.500" stroke-width="2.467" stroke="black" fill="none" stroke-linecap="round"></path></svg>