<svg xmlns="http://www.w3.org/2000/svg" xmlns:xlink="http://www.w3.org/1999/xlink" viewBox="0 0 724 414" width="724" height="414"><path d="M 60.000,211.000 C 63.060,206.889 63.500,207.500 67.000,204.000" stroke-width="5.239" stroke="black" fill="none" stroke-linecap="round"></path><path d="M 67.000,204.000 C 71.307,202.462 70.560,201.389 75.000,200.000" stroke-width="4.703" stroke="black" fill="none" stroke-linecap="round"></path><path d="M 75.000,200.000 C 78.632,197.143 78.807,197.462 82.000,194.000" stroke-width="3.910" stroke="black" fill="none" stroke-linecap="round"></path><path d="M 82.000,194.000 C 85.789,189.767 86.132,190.143 90.000,186.000" stroke-width="3.579" stroke="black" fill="none" stroke-linecap="round"></path><path d="M 90.000,186.000 C 95.379,181.343 95.289,181.267 101.000,177.000" stroke-width="3.202" stroke="black" fill="none" stroke-linecap="round"></path><path d="M 101.000,177.000 C 106.451,172.931 106.379,172.843 112.000,169.000" stroke-width="3.148" stroke="black" fill="none" stroke-linecap="round"></path><path d="M 112.000,169.000 C 118.619,164.663 118.451,164.431 125.000,160.000" stroke-width="2.981" stroke="black" fill="none" stroke-linecap="round"></path><path d="M 125.000,160.000 C 131.527,155.035 131.619,155.163 138.000,150.000" stroke-width="2.836" stroke="black" fill="none" stroke-linecap="round"></path><path d="M 138.000,150.000 C 145.100,144.622 145.027,144.535 152.000,139.000" stroke-width="2.773" stroke="black" fill="none" stroke-linecap="round"></path><path d="M 152.000,139.000 C 158.739,133.760 158.600,133.622 165.000,128.000" stroke-width="2.799" stroke="black" fill="none" stroke-linecap="round"></path><path d="M 165.000,128.000 C 171.000,122.000 171.239,122.260 177.000,116.000" stroke-width="2.750" stroke="black" fill="none" stroke-linecap="round"></path><path d="M 177.000,116.000 C 183.125,110.120 183.000,110.000 189.000,104.000" stroke-width="2.795" stroke="black" fill="none" stroke-linecap="round"></path><path d="M 189.000,104.000 C 195.023,97.521 195.125,97.620 201.000,91.000" stroke-width="2.707" stroke="black" fill="none" stroke-linecap="round"></path><path d="M 201.000,91.000 C 206.106,85.593 206.023,85.521 211.000,80.000" stroke-width="2.958" stroke="black" fill="none" stroke-linecap="round"></path><path d="M 211.000,80.000 C 216.523,73.520 216.606,73.593 222.000,67.000" stroke-width="2.853" stroke="black" fill="none" stroke-linecap="round"></path><path d="M 222.000,67.000 C 227.279,61.212 227.023,61.020 232.000,55.000" stroke-width="2.907" stroke="black" fill="none" stroke-linecap="round"></path><path d="M 232.000,55.000 C 236.555,48.537 236.779,48.712 241.000,42.000" stroke-width="2.912" stroke="black" fill="none" stroke-linecap="round"></path><path d="M 241.000,42.000 C 244.602,35.691 245.055,36.037 249.000,30.000" stroke-width="2.944" stroke="black" fill="none" stroke-linecap="round"></path><path d="M 249.000,30.000 C 253.670,25.142 253.102,24.691 258.000,20.000" stroke-width="3.079" stroke="black" fill="none" stroke-linecap="round"></path><path d="M 258.000,20.000 C 261.580,15.560 261.670,15.642 265.000,11.000" stroke-width="3.275" stroke="black" fill="none" stroke-linecap="round"></path><path d="M 265.000,11.000 C 267.616,7.576 267.580,7.560 270.000,4.000" stroke-width="3.534" stroke="black" fill="none" stroke-linecap="round"></path><path d="M 270.000,4.000 C 271.933,1.667 271.616,1.576 273.000,-1.000" stroke-width="3.926" stroke="black" fill="none" stroke-linecap="round"></path><path d="M 273.000,-1.000 C 275.659,-5.723 273.933,-3.333 274.000,-6.000" stroke-width="4.556" stroke="black" fill="none" stroke-linecap="round"></path><path d="M 274.000,-6.000 C 267.271,-5.171 269.659,-6.723 261.000,-3.000" stroke-width="3.473" stroke="black" fill="none" stroke-linecap="round"></path><path d="M 261.000,-3.000 C 254.344,-0.299 254.271,-0.671 248.000,3.000" stroke-width="3.104" stroke="black" fill="none" stroke-linecap="round"></path><path d="M 248.000,3.000 C 241.684,6.046 241.844,6.201 236.000,10.000" stroke-width="3.098" stroke="black" fill="none" stroke-linecap="round"></path><path d="M 236.000,10.000 C 230.571,14.590 230.184,14.046 225.000,19.000" stroke-width="3.014" stroke="black" fill="none" stroke-linecap="round"></path><path d="M 225.000,19.000 C 218.429,23.910 218.571,24.090 212.000,29.000" stroke-width="2.907" stroke="black" fill="none" stroke-linecap="round"></path><path d="M 212.000,29.000 C 206.394,33.377 206.429,33.410 201.000,38.000" stroke-width="3.015" stroke="black" fill="none" stroke-linecap="round"></path><path d="M 201.000,38.000 C 195.749,42.251 195.894,42.377 191.000,47.000" stroke-width="3.204" stroke="black" fill="none" stroke-linecap="round"></path><path d="M 191.000,47.000 C 186.791,51.334 186.749,51.251 183.000,56.000" stroke-width="3.266" stroke="black" fill="none" stroke-linecap="round"></path><path d="M 183.000,56.000 C 180.153,59.310 180.291,59.334 178.000,63.000" stroke-width="3.531" stroke="black" fill="none" stroke-linecap="round"></path><path d="M 178.000,63.000 C 176.402,65.385 176.653,65.310 176.000,68.000" stroke-width="4.019" stroke="black" fill="none" stroke-linecap="round"></path><path d="M 176.000,68.000 C 173.706,73.915 175.402,71.885 176.000,76.000" stroke-width="4.379" stroke="black" fill="none" stroke-linecap="round"></path><path d="M 176.000,76.000 C 181.457,77.472 179.206,78.915 187.000,78.000" stroke-width="4.276" stroke="black" fill="none" stroke-linecap="round"></path><path d="M 187.000,78.000 C 192.083,78.671 191.957,78.472 197.000,78.000" stroke-width="3.734" stroke="black" fill="none" stroke-linecap="round"></path><path d="M 197.000,78.000 C 203.067,76.730 203.083,77.171 209.000,75.000" stroke-width="3.322" stroke="black" fill="none" stroke-linecap="round"></path><path d="M 209.000,75.000 C 214.977,72.927 215.067,73.230 221.000,71.000" stroke-width="3.254" stroke="black" fill="none" stroke-linecap="round"></path><path d="M 221.000,71.000 C 227.402,68.584 227.477,68.927 234.000,67.000" stroke-width="3.162" stroke="black" fill="none" stroke-linecap="round"></path><path d="M 234.000,67.000 C 239.966,65.724 239.902,65.584 246.000,65.000" stroke-width="3.123" stroke="black" fill="none" stroke-linecap="round"></path><path d="M 246.000,65.000 C 252.622,65.181 252.466,64.224 259.000,64.000" stroke-width="3.106" stroke="black" fill="none" stroke-linecap="round"></path><path d="M 259.000,64.000 C 266.027,62.092 266.122,62.681 273.000,60.000" stroke-width="2.992" stroke="black" fill="none" stroke-linecap="round"></path><path d="M 273.000,60.000 C 281.363,58.341 281.027,57.592 289.000,55.000" stroke-width="2.816" stroke="black" fill="none" stroke-linecap="round"></path><path d="M 289.000,55.000 C 296.952,50.413 297.363,51.341 305.000,46.000" stroke-width="2.737" stroke="black" fill="none" stroke-linecap="round"></path><path d="M 305.000,46.000 C 312.571,42.127 312.452,41.913 320.000,38.000" stroke-width="2.730" stroke="black" fill="none" stroke-linecap="round"></path><path d="M 320.000,38.000 C 325.758,33.996 326.071,34.627 332.000,31.000" stroke-width="2.976" stroke="black" fill="none" stroke-linecap="round"></path><path d="M 332.000,31.000 C 338.479,28.445 338.258,27.996 345.000,26.000" stroke-width="3.426" stroke="black" fill="none" stroke-linecap="round"></path><path d="M 345.000,26.000 C 350.389,23.603 350.479,23.945 356.000,22.000" stroke-width="2.380" stroke="black" fill="none" stroke-linecap="round"></path><path d="M 356.000,22.000 C 361.040,21.167 360.889,20.603 366.000,20.000" stroke-width="3.032" stroke="black" fill="none" stroke-linecap="round"></path><path d="M 366.000,20.000 C 369.551,19.150 369.540,19.167 373.000,18.000" stroke-width="3.614" stroke="black" fill="none" stroke-linecap="round"></path><path d="M 373.000,18.000 C 378.593,16.790 375.551,17.150 378.000,16.000" stroke-width="4.051" stroke="black" fill="none" stroke-linecap="round"></path><path d="M 378.000,16.000 C 374.045,14.253 377.093,14.790 370.000,14.000" stroke-width="4.917" stroke="black" fill="none" stroke-linecap="round"></path><path d="M 370.000,14.000 C 365.935,14.172 366.045,13.753 362.000,15.000" stroke-width="4.030" stroke="black" fill="none" stroke-linecap="round"></path><path d="M 362.000,15.000 C 356.490,16.463 356.435,16.172 351.000,18.000" stroke-width="3.477" stroke="black" fill="none" stroke-linecap="round"></path><path d="M 351.000,18.000 C 344.033,20.124 343.990,19.963 337.000,22.000" stroke-width="3.087" stroke="black" fill="none" stroke-linecap="round"></path><path d="M 337.000,22.000 C 329.070,24.338 329.033,24.124 321.000,26.000" stroke-width="2.921" stroke="black" fill="none" stroke-linecap="round"></path><path d="M 321.000,26.000 C 312.000,27.500 312.070,27.838 303.000,29.000" stroke-width="2.772" stroke="black" fill="none" stroke-linecap="round"></path><path d="M 303.000,29.000 C 293.825,29.794 294.000,30.500 285.000,32.000" stroke-width="2.787" stroke="black" fill="none" stroke-linecap="round"></path><path d="M 285.000,32.000 C 276.026,35.080 275.825,34.294 267.000,38.000" stroke-width="2.753" stroke="black" fill="none" stroke-linecap="round"></path><path d="M 267.000,38.000 C 258.976,40.427 259.026,40.580 251.000,43.000" stroke-width="2.863" stroke="black" fill="none" stroke-linecap="round"></path><path d="M 251.000,43.000 C 243.347,45.114 243.476,45.427 236.000,48.000" stroke-width="2.839" stroke="black" fill="none" stroke-linecap="round"></path><path d="M 236.000,48.000 C 229.603,51.249 229.347,50.614 223.000,54.000" stroke-width="3.039" stroke="black" fill="none" stroke-linecap="round"></path><path d="M 223.000,54.000 C 217.550,56.150 217.603,56.249 212.000,58.000" stroke-width="3.238" stroke="black" fill="none" stroke-linecap="round"></path><path d="M 212.000,58.000 C 206.915,59.265 207.050,59.650 202.000,61.000" stroke-width="3.457" stroke="black" fill="none" stroke-linecap="round"></path><path d="M 202.000,61.000 C 198.339,62.202 198.415,62.265 195.000,64.000" stroke-width="3.746" stroke="black" fill="none" stroke-linecap="round"></path><path d="M 195.000,64.000 C 192.108,66.187 191.839,65.702 189.000,68.000" stroke-width="3.886" stroke="black" fill="none" stroke-linecap="round"></path><path d="M 189.000,68.000 C 185.625,68.980 186.108,69.687 183.000,71.000" stroke-width="3.988" stroke="black" fill="none" stroke-linecap="round"></path><path d="M 183.000,71.000 C 178.640,74.040 179.125,73.980 176.000,78.000" stroke-width="4.239" stroke="black" fill="none" stroke-linecap="round"></path><path d="M 176.000,78.000 C 175.000,80.486 174.640,80.040 175.000,83.000" stroke-width="5.025" stroke="black" fill="none" stroke-linecap="round"></path><path d="M 175.000,83.000 C 175.730,86.484 175.000,86.486 176.000,90.000" stroke-width="5.183" stroke="black" fill="none" stroke-linecap="round"></path><path d="M 176.000,90.000 C 175.092,93.275 176.230,92.984 176.000,96.000" stroke-width="4.879" stroke="black" fill="none" stroke-linecap="round"></path><path d="M 176.000,96.000 C 178.402,98.804 177.092,99.275 180.000,102.000" stroke-width="5.017" stroke="black" fill="none" stroke-linecap="round"></path><path d="M 180.000,102.000 C 180.110,105.840 181.402,104.804 182.000,108.000" stroke-width="5.000" stroke="black" fill="none" stroke-linecap="round"></path><path d="M 182.000,108.000 C 184.551,108.887 183.610,109.840 187.000,110.000" stroke-width="5.143" stroke="black" fill="none" stroke-linecap="round"></path><path d="M 187.000,110.000 C 189.788,112.398 190.051,111.387 193.000,113.000" stroke-width="5.005" stroke="black" fill="none" stroke-linecap="round"></path><path d="M 193.000,113.000 C 198.000,113.000 197.788,113.898 203.000,113.000" stroke-width="4.525" stroke="black" fill="none" stroke-linecap="round"></path><path d="M 203.000,113.000 C 206.514,113.232 206.500,113.000 210.000,113.000" stroke-width="4.133" stroke="black" fill="none" stroke-linecap="round"></path><path d="M 210.000,113.000 C 214.095,112.919 214.014,112.732 218.000,112.000" stroke-width="3.905" stroke="black" fill="none" stroke-linecap="round"></path><path d="M 218.000,112.000 C 222.380,109.924 222.595,110.919 227.000,109.000" stroke-width="3.694" stroke="black" fill="none" stroke-linecap="round"></path><path d="M 227.000,109.000 C 232.523,108.685 232.380,107.924 238.000,108.000" stroke-width="3.490" stroke="black" fill="none" stroke-linecap="round"></path><path d="M 238.000,108.000 C 244.536,107.197 244.523,107.185 251.000,106.000" stroke-width="3.198" stroke="black" fill="none" stroke-linecap="round"></path><path d="M 251.000,106.000 C 258.059,104.735 258.036,104.697 265.000,103.000" stroke-width="3.034" stroke="black" fill="none" stroke-linecap="round"></path><path d="M 265.000,103.000 C 272.009,101.030 272.059,101.235 279.000,99.000" stroke-width="2.971" stroke="black" fill="none" stroke-linecap="round"></path><path d="M 279.000,99.000 C 287.600,96.800 287.509,96.530 296.000,94.000" stroke-width="2.874" stroke="black" fill="none" stroke-linecap="round"></path><path d="M 296.000,94.000 C 303.858,90.544 304.100,91.300 312.000,88.000" stroke-width="2.765" stroke="black" fill="none" stroke-linecap="round"></path><path d="M 312.000,88.000 C 319.948,85.761 319.858,85.544 328.000,84.000" stroke-width="2.827" stroke="black" fill="none" stroke-linecap="round"></path><path d="M 328.000,84.000 C 335.973,82.338 335.948,82.261 344.000,81.000" stroke-width="2.800" stroke="black" fill="none" stroke-linecap="round"></path><path d="M 344.000,81.000 C 351.012,80.075 350.973,79.838 358.000,79.000" stroke-width="3.036" stroke="black" fill="none" stroke-linecap="round"></path><path d="M 358.000,79.000 C 364.027,78.138 364.012,78.075 370.000,77.000" stroke-width="3.146" stroke="black" fill="none" stroke-linecap="round"></path><path d="M 370.000,77.000 C 374.712,76.531 374.527,76.138 379.000,75.000" stroke-width="3.481" stroke="black" fill="none" stroke-linecap="round"></path><path d="M 379.000,75.000 C 384.918,72.734 381.712,74.031 384.000,72.000" stroke-width="4.371" stroke="black" fill="none" stroke-linecap="round"></path><path d="M 384.000,72.000 C 379.013,71.239 382.418,70.734 374.000,71.000" stroke-width="4.606" stroke="black" fill="none" stroke-linecap="round"></path><path d="M 374.000,71.000 C 368.500,71.000 368.513,70.739 363.000,71.000" stroke-width="3.635" stroke="black" fill="none" stroke-linecap="round"></path><path d="M 363.000,71.000 C 354.494,70.764 354.500,71.000 346.000,71.000" stroke-width="3.017" stroke="black" fill="none" stroke-linecap="round"></path><path d="M 346.000,71.000 C 336.359,70.560 336.494,71.264 327.000,72.000" stroke-width="2.754" stroke="black" fill="none" stroke-linecap="round"></path><path d="M 327.000,72.000 C 316.954,74.329 316.859,73.560 307.000,77.000" stroke-width="2.540" stroke="black" fill="none" stroke-linecap="round"></path><path d="M 307.000,77.000 C 296.429,79.772 296.454,79.829 286.000,83.000" stroke-width="2.541" stroke="black" fill="none" stroke-linecap="round"></path><path d="M 286.000,83.000 C 275.277,85.943 275.429,86.272 265.000,90.000" stroke-width="2.472" stroke="black" fill="none" stroke-linecap="round"></path><path d="M 265.000,90.000 C 256.592,94.209 256.277,93.443 248.000,98.000" stroke-width="2.551" stroke="black" fill="none" stroke-linecap="round"></path><path d="M 248.000,98.000 C 239.477,101.445 239.592,101.709 231.000,105.000" stroke-width="2.655" stroke="black" fill="none" stroke-linecap="round"></path><path d="M 231.000,105.000 C 223.912,107.810 223.977,107.945 217.000,111.000" stroke-width="2.810" stroke="black" fill="none" stroke-linecap="round"></path><path d="M 217.000,111.000 C 210.676,113.486 210.912,113.810 205.000,117.000" stroke-width="3.036" stroke="black" fill="none" stroke-linecap="round"></path><path d="M 205.000,117.000 C 200.140,120.119 200.176,119.986 196.000,124.000" stroke-width="3.260" stroke="black" fill="none" stroke-linecap="round"></path><path d="M 196.000,124.000 C 192.349,127.878 192.140,127.619 189.000,132.000" stroke-width="3.449" stroke="black" fill="none" stroke-linecap="round"></path><path d="M 189.000,132.000 C 185.710,135.812 185.849,135.878 183.000,140.000" stroke-width="3.513" stroke="black" fill="none" stroke-linecap="round"></path><path d="M 183.000,140.000 C 180.408,144.451 180.210,144.312 178.000,149.000" stroke-width="3.506" stroke="black" fill="none" stroke-linecap="round"></path><path d="M 178.000,149.000 C 176.215,153.125 175.908,152.951 174.000,157.000" stroke-width="3.723" stroke="black" fill="none" stroke-linecap="round"></path><path d="M 174.000,157.000 C 172.242,160.198 172.215,160.125 170.000,163.000" stroke-width="3.879" stroke="black" fill="none" stroke-linecap="round"></path><path d="M 170.000,163.000 C 167.901,164.909 168.242,165.198 166.000,167.000" stroke-width="4.112" stroke="black" fill="none" stroke-linecap="round"></path><path d="M 166.000,167.000 C 161.817,170.062 162.901,170.409 160.000,174.000" stroke-width="4.326" stroke="black" fill="none" stroke-linecap="round"></path><path d="M 160.000,174.000 C 160.000,177.000 158.817,176.562 160.000,180.000" stroke-width="4.969" stroke="black" fill="none" stroke-linecap="round"></path><path d="M 160.000,180.000 C 160.000,183.500 160.000,183.500 160.000,187.000" stroke-width="5.169" stroke="black" fill="none" stroke-linecap="round"></path><path d="M 160.000,187.000 C 159.730,190.027 160.000,190.000 160.000,193.000" stroke-width="5.160" stroke="black" fill="none" stroke-linecap="round"></path><path d="M 160.000,193.000 C 159.743,195.905 160.230,195.527 161.000,198.000" stroke-width="5.259" stroke="black" fill="none" stroke-linecap="round"></path><path d="M 161.000,198.000 C 163.097,201.152 162.743,200.905 166.000,203.000" stroke-width="5.023" stroke="black" fill="none" stroke-linecap="round"></path><path d="M 166.000,203.000 C 169.000,204.000 168.597,204.652 172.000,205.000" stroke-width="5.100" stroke="black" fill="none" stroke-linecap="round"></path><path d="M 172.000,205.000 C 174.955,206.170 175.000,206.000 178.000,207.000" stroke-width="4.860" stroke="black" fill="none" stroke-linecap="round"></path><path d="M 178.000,207.000 C 180.470,207.805 180.455,207.670 183.000,208.000" stroke-width="4.869" stroke="black" fill="none" stroke-linecap="round"></path><path d="M 183.000,208.000 C 187.000,208.000 186.970,208.305 191.000,208.000" stroke-width="4.855" stroke="black" fill="none" stroke-linecap="round"></path><path d="M 191.000,208.000 C 194.000,208.000 194.000,208.000 197.000,208.000" stroke-width="4.971" stroke="black" fill="none" stroke-linecap="round"></path><path d="M 197.000,208.000 C 200.027,208.270 200.000,208.000 203.000,208.000" stroke-width="5.099" stroke="black" fill="none" stroke-linecap="round"></path><path d="M 203.000,208.000 C 205.500,207.500 205.527,207.770 208.000,207.000" stroke-width="4.938" stroke="black" fill="none" stroke-linecap="round"></path><path d="M 208.000,207.000 C 210.667,206.933 210.500,206.500 213.000,206.000" stroke-width="5.219" stroke="black" fill="none" stroke-linecap="round"></path><path d="M 213.000,206.000 C 215.500,204.500 215.667,204.933 218.000,203.000" stroke-width="5.394" stroke="black" fill="none" stroke-linecap="round"></path><path d="M 218.000,203.000 C 220.500,201.500 220.500,201.500 223.000,200.000" stroke-width="5.400" stroke="black" fill="none" stroke-linecap="round"></path><path d="M 223.000,200.000 C 225.541,198.565 225.500,198.500 228.000,197.000" stroke-width="5.231" stroke="black" fill="none" stroke-linecap="round"></path><path d="M 228.000,197.000 C 231.087,195.119 231.041,195.065 234.000,193.000" stroke-width="5.128" stroke="black" fill="none" stroke-linecap="round"></path><path d="M 234.000,193.000 C 236.750,191.250 236.587,191.119 239.000,189.000" stroke-width="4.829" stroke="black" fill="none" stroke-linecap="round"></path><path d="M 239.000,189.000 C 240.750,186.250 241.250,186.750 243.000,184.000" stroke-width="4.746" stroke="black" fill="none" stroke-linecap="round"></path><path d="M 243.000,184.000 C 245.440,181.920 245.250,181.750 248.000,180.000" stroke-width="4.721" stroke="black" fill="none" stroke-linecap="round"></path><path d="M 248.000,180.000 C 251.593,177.621 251.440,177.420 255.000,175.000" stroke-width="4.556" stroke="black" fill="none" stroke-linecap="round"></path><path d="M 255.000,175.000 C 258.000,172.500 258.093,172.621 261.000,170.000" stroke-width="4.551" stroke="black" fill="none" stroke-linecap="round"></path><path d="M 261.000,170.000 C 263.772,167.152 264.000,167.500 267.000,165.000" stroke-width="4.567" stroke="black" fill="none" stroke-linecap="round"></path><path d="M 267.000,165.000 C 270.287,163.899 269.772,163.152 273.000,162.000" stroke-width="4.642" stroke="black" fill="none" stroke-linecap="round"></path><path d="M 273.000,162.000 C 274.784,159.723 275.287,160.399 277.000,158.000" stroke-width="4.915" stroke="black" fill="none" stroke-linecap="round"></path><path d="M 277.000,158.000 C 279.500,156.500 279.284,156.223 282.000,155.000" stroke-width="5.094" stroke="black" fill="none" stroke-linecap="round"></path><path d="M 282.000,155.000 C 284.401,153.300 284.500,153.500 287.000,152.000" stroke-width="5.209" stroke="black" fill="none" stroke-linecap="round"></path><path d="M 287.000,152.000 C 291.800,148.999 289.401,150.800 292.000,150.000" stroke-width="5.236" stroke="black" fill="none" stroke-linecap="round"></path><path d="M 292.000,150.000 C 290.000,153.500 292.300,151.499 288.000,157.000" stroke-width="5.318" stroke="black" fill="none" stroke-linecap="round"></path><path d="M 288.000,157.000 C 285.576,160.322 286.000,160.500 284.000,164.000" stroke-width="4.733" stroke="black" fill="none" stroke-linecap="round"></path><path d="M 284.000,164.000 C 282.882,167.471 282.576,167.322 282.000,171.000" stroke-width="4.645" stroke="black" fill="none" stroke-linecap="round"></path><path d="M 282.000,171.000 C 279.851,174.851 281.382,173.471 281.000,176.000" stroke-width="4.969" stroke="black" fill="none" stroke-linecap="round"></path><path d="M 281.000,176.000 C 284.167,176.708 282.351,177.351 287.000,176.000" stroke-width="5.090" stroke="black" fill="none" stroke-linecap="round"></path><path d="M 287.000,176.000 C 289.875,174.136 290.167,175.208 293.000,173.000" stroke-width="4.809" stroke="black" fill="none" stroke-linecap="round"></path><path d="M 293.000,173.000 C 298.572,170.856 295.375,172.136 298.000,172.000" stroke-width="5.012" stroke="black" fill="none" stroke-linecap="round"></path><path d="M 298.000,172.000 C 293.500,176.500 296.572,174.856 289.000,181.000" stroke-width="5.097" stroke="black" fill="none" stroke-linecap="round"></path><path d="M 289.000,181.000 C 286.192,183.260 286.500,183.500 284.000,186.000" stroke-width="4.254" stroke="black" fill="none" stroke-linecap="round"></path><path d="M 284.000,186.000 C 282.616,188.576 282.192,188.260 281.000,191.000" stroke-width="4.208" stroke="black" fill="none" stroke-linecap="round"></path><path d="M 281.000,191.000 C 277.884,194.233 278.616,194.576 276.000,198.000" stroke-width="4.383" stroke="black" fill="none" stroke-linecap="round"></path><path d="M 276.000,198.000 C 275.000,200.500 274.884,200.233 275.000,203.000" stroke-width="4.858" stroke="black" fill="none" stroke-linecap="round"></path><path d="M 275.000,203.000 C 274.489,206.273 275.000,205.500 276.000,208.000" stroke-width="5.111" stroke="black" fill="none" stroke-linecap="round"></path><path d="M 276.000,208.000 C 278.833,210.208 277.989,210.273 282.000,211.000" stroke-width="5.112" stroke="black" fill="none" stroke-linecap="round"></path><path d="M 282.000,211.000 C 285.000,211.000 284.833,211.708 288.000,211.000" stroke-width="5.049" stroke="black" fill="none" stroke-linecap="round"></path><path d="M 288.000,211.000 C 292.013,211.235 292.000,211.000 296.000,211.000" stroke-width="4.672" stroke="black" fill="none" stroke-linecap="round"></path><path d="M 296.000,211.000 C 300.565,210.832 300.513,210.735 305.000,210.000" stroke-width="4.735" stroke="black" fill="none" stroke-linecap="round"></path><path d="M 305.000,210.000 C 308.551,209.150 308.565,209.332 312.000,208.000" stroke-width="4.663" stroke="black" fill="none" stroke-linecap="round"></path><path d="M 312.000,208.000 C 314.557,207.127 314.551,207.150 317.000,206.000" stroke-width="4.382" stroke="black" fill="none" stroke-linecap="round"></path><path d="M 317.000,206.000 C 321.065,204.119 321.057,204.127 325.000,202.000" stroke-width="4.392" stroke="black" fill="none" stroke-linecap="round"></path><path d="M 325.000,202.000 C 327.716,200.777 327.565,200.619 330.000,199.000" stroke-width="4.291" stroke="black" fill="none" stroke-linecap="round"></path><path d="M 330.000,199.000 C 331.713,196.601 332.216,197.277 334.000,195.000" stroke-width="4.195" stroke="black" fill="none" stroke-linecap="round"></path><path d="M 334.000,195.000 C 337.287,193.899 336.713,193.101 340.000,192.000" stroke-width="4.127" stroke="black" fill="none" stroke-linecap="round"></path><path d="M 340.000,192.000 C 341.900,189.890 342.287,190.399 344.000,188.000" stroke-width="4.192" stroke="black" fill="none" stroke-linecap="round"></path><path d="M 344.000,188.000 C 347.019,185.522 346.900,185.390 350.000,183.000" stroke-width="3.895" stroke="black" fill="none" stroke-linecap="round"></path><path d="M 350.000,183.000 C 353.379,179.845 353.519,180.022 357.000,177.000" stroke-width="3.718" stroke="black" fill="none" stroke-linecap="round"></path><path d="M 357.000,177.000 C 360.621,174.655 360.379,174.345 364.000,172.000" stroke-width="3.730" stroke="black" fill="none" stroke-linecap="round"></path><path d="M 364.000,172.000 C 367.591,169.099 367.621,169.155 371.000,166.000" stroke-width="3.616" stroke="black" fill="none" stroke-linecap="round"></path><path d="M 371.000,166.000 C 373.124,164.111 373.091,164.099 375.000,162.000" stroke-width="4.019" stroke="black" fill="none" stroke-linecap="round"></path><path d="M 375.000,162.000 C 379.000,157.000 377.124,159.611 379.000,157.000" stroke-width="4.479" stroke="black" fill="none" stroke-linecap="round"></path><path d="M 379.000,157.000 C 377.160,159.643 379.000,157.000 375.000,162.000" stroke-width="5.117" stroke="black" fill="none" stroke-linecap="round"></path><path d="M 375.000,162.000 C 371.633,165.646 371.660,165.643 368.000,169.000" stroke-width="3.913" stroke="black" fill="none" stroke-linecap="round"></path><path d="M 368.000,169.000 C 364.617,171.145 365.133,171.646 362.000,174.000" stroke-width="3.872" stroke="black" fill="none" stroke-linecap="round"></path><path d="M 362.000,174.000 C 359.500,177.500 359.117,177.145 357.000,181.000" stroke-width="3.720" stroke="black" fill="none" stroke-linecap="round"></path><path d="M 357.000,181.000 C 354.744,184.707 354.500,184.500 352.000,188.000" stroke-width="3.780" stroke="black" fill="none" stroke-linecap="round"></path><path d="M 352.000,188.000 C 349.500,190.500 349.744,190.707 347.000,193.000" stroke-width="3.957" stroke="black" fill="none" stroke-linecap="round"></path><path d="M 347.000,193.000 C 344.500,195.500 344.500,195.500 342.000,198.000" stroke-width="3.918" stroke="black" fill="none" stroke-linecap="round"></path><path d="M 342.000,198.000 C 339.376,200.387 339.500,200.500 337.000,203.000" stroke-width="3.956" stroke="black" fill="none" stroke-linecap="round"></path><path d="M 337.000,203.000 C 333.414,205.607 334.376,205.887 332.000,209.000" stroke-width="4.385" stroke="black" fill="none" stroke-linecap="round"></path><path d="M 332.000,209.000 C 330.286,213.714 330.914,211.607 332.000,215.000" stroke-width="4.805" stroke="black" fill="none" stroke-linecap="round"></path><path d="M 332.000,215.000 C 336.495,216.443 334.286,216.714 340.000,215.000" stroke-width="5.073" stroke="black" fill="none" stroke-linecap="round"></path><path d="M 340.000,215.000 C 344.679,211.703 344.995,212.943 349.000,208.000" stroke-width="4.413" stroke="black" fill="none" stroke-linecap="round"></path><path d="M 349.000,208.000 C 351.500,205.500 351.679,205.703 354.000,203.000" stroke-width="4.144" stroke="black" fill="none" stroke-linecap="round"></path><path d="M 354.000,203.000 C 356.500,200.500 356.500,200.500 359.000,198.000" stroke-width="3.971" stroke="black" fill="none" stroke-linecap="round"></path><path d="M 359.000,198.000 C 361.500,195.500 361.500,195.500 364.000,193.000" stroke-width="3.922" stroke="black" fill="none" stroke-linecap="round"></path><path d="M 364.000,193.000 C 366.624,190.613 366.500,190.500 369.000,188.000" stroke-width="4.044" stroke="black" fill="none" stroke-linecap="round"></path><path d="M 369.000,188.000 C 371.710,185.149 371.624,185.113 374.000,182.000" stroke-width="4.182" stroke="black" fill="none" stroke-linecap="round"></path><path d="M 374.000,182.000 C 375.257,179.325 375.710,179.649 377.000,177.000" stroke-width="4.140" stroke="black" fill="none" stroke-linecap="round"></path><path d="M 377.000,177.000 C 381.632,169.088 379.757,173.325 383.000,170.000" stroke-width="4.316" stroke="black" fill="none" stroke-linecap="round"></path><path d="M 383.000,170.000 C 383.289,175.518 384.632,171.088 383.000,181.000" stroke-width="4.937" stroke="black" fill="none" stroke-linecap="round"></path><path d="M 383.000,181.000 C 383.028,185.143 382.789,185.018 382.000,189.000" stroke-width="4.095" stroke="black" fill="none" stroke-linecap="round"></path><path d="M 382.000,189.000 C 380.037,192.370 381.028,192.643 379.000,196.000" stroke-width="3.892" stroke="black" fill="none" stroke-linecap="round"></path><path d="M 379.000,196.000 C 378.739,199.551 378.037,199.370 378.000,203.000" stroke-width="3.948" stroke="black" fill="none" stroke-linecap="round"></path><path d="M 378.000,203.000 C 376.421,206.419 377.239,206.551 376.000,210.000" stroke-width="3.941" stroke="black" fill="none" stroke-linecap="round"></path><path d="M 376.000,210.000 C 376.000,215.000 375.421,214.919 376.000,220.000" stroke-width="4.197" stroke="black" fill="none" stroke-linecap="round"></path><path d="M 376.000,220.000 C 374.500,224.500 376.000,223.000 376.000,226.000" stroke-width="4.736" stroke="black" fill="none" stroke-linecap="round"></path><path d="M 376.000,226.000 C 379.211,226.761 377.500,227.500 382.000,226.000" stroke-width="4.933" stroke="black" fill="none" stroke-linecap="round"></path><path d="M 382.000,226.000 C 384.716,224.777 384.711,225.261 387.000,223.000" stroke-width="4.387" stroke="black" fill="none" stroke-linecap="round"></path><path d="M 387.000,223.000 C 389.000,221.000 389.216,221.277 391.000,219.000" stroke-width="4.269" stroke="black" fill="none" stroke-linecap="round"></path><path d="M 391.000,219.000 C 393.500,216.500 393.500,216.500 396.000,214.000" stroke-width="4.005" stroke="black" fill="none" stroke-linecap="round"></path><path d="M 396.000,214.000 C 398.744,211.707 398.500,211.500 401.000,209.000" stroke-width="4.070" stroke="black" fill="none" stroke-linecap="round"></path><path d="M 401.000,209.000 C 403.210,205.255 403.744,205.707 406.000,202.000" stroke-width="3.830" stroke="black" fill="none" stroke-linecap="round"></path><path d="M 406.000,202.000 C 409.865,198.806 409.210,198.255 413.000,195.000" stroke-width="3.633" stroke="black" fill="none" stroke-linecap="round"></path><path d="M 413.000,195.000 C 416.258,189.811 416.865,190.306 420.000,185.000" stroke-width="3.374" stroke="black" fill="none" stroke-linecap="round"></path><path d="M 420.000,185.000 C 423.519,181.016 423.258,180.811 427.000,177.000" stroke-width="3.434" stroke="black" fill="none" stroke-linecap="round"></path><path d="M 427.000,177.000 C 429.901,173.409 430.019,173.516 433.000,170.000" stroke-width="3.581" stroke="black" fill="none" stroke-linecap="round"></path><path d="M 433.000,170.000 C 434.889,167.876 434.901,167.909 437.000,166.000" stroke-width="3.965" stroke="black" fill="none" stroke-linecap="round"></path><path d="M 437.000,166.000 C 439.134,162.955 439.389,163.876 442.000,162.000" stroke-width="4.487" stroke="black" fill="none" stroke-linecap="round"></path><path d="M 442.000,162.000 C 446.877,160.089 445.134,160.955 449.000,162.000" stroke-width="4.576" stroke="black" fill="none" stroke-linecap="round"></path><path d="M 449.000,162.000 C 451.717,166.474 451.877,164.589 452.000,171.000" stroke-width="4.884" stroke="black" fill="none" stroke-linecap="round"></path><path d="M 452.000,171.000 C 451.380,174.648 452.217,174.474 450.000,178.000" stroke-width="4.181" stroke="black" fill="none" stroke-linecap="round"></path><path d="M 450.000,178.000 C 447.164,182.861 447.880,183.148 445.000,188.000" stroke-width="3.532" stroke="black" fill="none" stroke-linecap="round"></path><path d="M 445.000,188.000 C 443.578,192.528 443.164,192.361 442.000,197.000" stroke-width="3.586" stroke="black" fill="none" stroke-linecap="round"></path><path d="M 442.000,197.000 C 440.422,200.972 440.578,201.028 439.000,205.000" stroke-width="3.743" stroke="black" fill="none" stroke-linecap="round"></path><path d="M 439.000,205.000 C 437.578,209.528 437.422,209.472 436.000,214.000" stroke-width="3.649" stroke="black" fill="none" stroke-linecap="round"></path><path d="M 436.000,214.000 C 434.500,218.000 434.578,218.028 433.000,222.000" stroke-width="3.662" stroke="black" fill="none" stroke-linecap="round"></path><path d="M 433.000,222.000 C 431.253,225.929 431.500,226.000 430.000,230.000" stroke-width="3.665" stroke="black" fill="none" stroke-linecap="round"></path><path d="M 430.000,230.000 C 428.156,235.507 429.253,232.429 429.000,235.000" stroke-width="4.105" stroke="black" fill="none" stroke-linecap="round"></path><path d="M 429.000,235.000 C 432.445,231.258 430.656,234.007 435.000,227.000" stroke-width="4.858" stroke="black" fill="none" stroke-linecap="round"></path><path d="M 435.000,227.000 C 436.300,223.400 436.945,223.758 438.000,220.000" stroke-width="4.133" stroke="black" fill="none" stroke-linecap="round"></path><path d="M 438.000,220.000 C 439.926,216.456 439.800,216.400 442.000,213.000" stroke-width="3.850" stroke="black" fill="none" stroke-linecap="round"></path><path d="M 442.000,213.000 C 444.330,208.883 444.426,208.956 447.000,205.000" stroke-width="3.627" stroke="black" fill="none" stroke-linecap="round"></path><path d="M 447.000,205.000 C 449.963,200.972 449.830,200.883 453.000,197.000" stroke-width="3.619" stroke="black" fill="none" stroke-linecap="round"></path><path d="M 453.000,197.000 C 456.619,192.588 456.463,192.472 460.000,188.000" stroke-width="3.378" stroke="black" fill="none" stroke-linecap="round"></path><path d="M 460.000,188.000 C 463.012,182.558 463.619,183.088 467.000,178.000" stroke-width="3.305" stroke="black" fill="none" stroke-linecap="round"></path><path d="M 467.000,178.000 C 470.604,175.113 470.012,174.558 474.000,172.000" stroke-width="3.585" stroke="black" fill="none" stroke-linecap="round"></path><path d="M 474.000,172.000 C 476.095,168.743 476.604,169.613 479.000,167.000" stroke-width="3.800" stroke="black" fill="none" stroke-linecap="round"></path><path d="M 479.000,167.000 C 483.368,164.421 481.095,165.743 484.000,166.000" stroke-width="4.504" stroke="black" fill="none" stroke-linecap="round"></path><path d="M 484.000,166.000 C 483.904,171.575 485.368,169.421 483.000,177.000" stroke-width="4.876" stroke="black" fill="none" stroke-linecap="round"></path><path d="M 483.000,177.000 C 481.761,180.449 482.404,180.575 481.000,184.000" stroke-width="4.180" stroke="black" fill="none" stroke-linecap="round"></path><path d="M 481.000,184.000 C 480.852,187.594 480.261,187.449 480.000,191.000" stroke-width="4.032" stroke="black" fill="none" stroke-linecap="round"></path><path d="M 480.000,191.000 C 479.113,193.551 479.352,193.594 478.000,196.000" stroke-width="4.154" stroke="black" fill="none" stroke-linecap="round"></path><path d="M 478.000,196.000 C 476.578,199.041 476.613,199.051 475.000,202.000" stroke-width="4.115" stroke="black" fill="none" stroke-linecap="round"></path><path d="M 475.000,202.000 C 472.790,206.688 472.578,206.541 470.000,211.000" stroke-width="3.667" stroke="black" fill="none" stroke-linecap="round"></path><path d="M 470.000,211.000 C 466.315,214.660 467.290,215.188 464.000,219.000" stroke-width="3.521" stroke="black" fill="none" stroke-linecap="round"></path><path d="M 464.000,219.000 C 462.882,222.471 462.315,222.160 462.000,226.000" stroke-width="3.755" stroke="black" fill="none" stroke-linecap="round"></path><path d="M 462.000,226.000 C 460.067,229.134 461.382,228.471 461.000,231.000" stroke-width="4.461" stroke="black" fill="none" stroke-linecap="round"></path><path d="M 461.000,231.000 C 463.273,233.318 462.067,233.134 466.000,234.000" stroke-width="5.090" stroke="black" fill="none" stroke-linecap="round"></path><path d="M 466.000,234.000 C 469.500,234.000 469.273,234.818 473.000,234.000" stroke-width="4.748" stroke="black" fill="none" stroke-linecap="round"></path><path d="M 473.000,234.000 C 477.000,234.000 477.000,234.000 481.000,234.000" stroke-width="4.818" stroke="black" fill="none" stroke-linecap="round"></path><path d="M 481.000,234.000 C 484.027,234.270 484.000,234.000 487.000,234.000" stroke-width="4.959" stroke="black" fill="none" stroke-linecap="round"></path><path d="M 487.000,234.000 C 489.783,234.108 489.527,233.770 492.000,233.000" stroke-width="4.898" stroke="black" fill="none" stroke-linecap="round"></path><path d="M 492.000,233.000 C 494.284,230.630 494.783,231.608 497.000,229.000" stroke-width="5.123" stroke="black" fill="none" stroke-linecap="round"></path><path d="M 497.000,229.000 C 499.599,228.200 499.284,227.630 502.000,227.000" stroke-width="5.092" stroke="black" fill="none" stroke-linecap="round"></path><path d="M 502.000,227.000 C 504.716,225.777 504.599,225.700 507.000,224.000" stroke-width="5.313" stroke="black" fill="none" stroke-linecap="round"></path><path d="M 507.000,224.000 C 509.000,222.000 509.216,222.277 511.000,220.000" stroke-width="5.489" stroke="black" fill="none" stroke-linecap="round"></path><path d="M 511.000,220.000 C 513.000,218.000 513.000,218.000 515.000,216.000" stroke-width="5.424" stroke="black" fill="none" stroke-linecap="round"></path><path d="M 515.000,216.000 C 517.500,213.500 517.500,213.500 520.000,211.000" stroke-width="5.174" stroke="black" fill="none" stroke-linecap="round"></path><path d="M 520.000,211.000 C 522.277,209.216 522.000,209.000 524.000,207.000" stroke-width="4.923" stroke="black" fill="none" stroke-linecap="round"></path><path d="M 524.000,207.000 C 525.290,204.351 525.777,204.716 527.000,202.000" stroke-width="4.822" stroke="black" fill="none" stroke-linecap="round"></path><path d="M 527.000,202.000 C 529.247,198.753 529.290,198.851 532.000,196.000" stroke-width="4.646" stroke="black" fill="none" stroke-linecap="round"></path><path d="M 532.000,196.000 C 536.253,192.747 535.747,192.253 540.000,189.000" stroke-width="4.365" stroke="black" fill="none" stroke-linecap="round"></path><path d="M 540.000,189.000 C 542.500,186.000 542.753,186.247 545.000,183.000" stroke-width="3.994" stroke="black" fill="none" stroke-linecap="round"></path><path d="M 545.000,183.000 C 547.478,179.981 547.500,180.000 550.000,177.000" stroke-width="3.895" stroke="black" fill="none" stroke-linecap="round"></path><path d="M 550.000,177.000 C 552.965,173.469 552.978,173.481 556.000,170.000" stroke-width="3.661" stroke="black" fill="none" stroke-linecap="round"></path><path d="M 556.000,170.000 C 560.276,165.718 559.965,165.469 564.000,161.000" stroke-width="3.506" stroke="black" fill="none" stroke-linecap="round"></path><path d="M 564.000,161.000 C 567.340,155.880 567.776,156.218 571.000,151.000" stroke-width="3.340" stroke="black" fill="none" stroke-linecap="round"></path><path d="M 571.000,151.000 C 575.284,146.203 574.840,145.880 579.000,141.000" stroke-width="3.247" stroke="black" fill="none" stroke-linecap="round"></path><path d="M 579.000,141.000 C 582.447,135.466 582.784,135.703 586.000,130.000" stroke-width="3.202" stroke="black" fill="none" stroke-linecap="round"></path><path d="M 586.000,130.000 C 589.182,125.611 588.947,125.466 592.000,121.000" stroke-width="3.363" stroke="black" fill="none" stroke-linecap="round"></path><path d="M 592.000,121.000 C 594.153,116.271 594.682,116.611 597.000,112.000" stroke-width="3.405" stroke="black" fill="none" stroke-linecap="round"></path><path d="M 597.000,112.000 C 601.172,107.885 600.153,107.271 604.000,103.000" stroke-width="3.378" stroke="black" fill="none" stroke-linecap="round"></path><path d="M 604.000,103.000 C 605.911,97.962 606.672,98.385 608.000,93.000" stroke-width="3.367" stroke="black" fill="none" stroke-linecap="round"></path><path d="M 608.000,93.000 C 610.026,88.511 609.911,88.462 612.000,84.000" stroke-width="3.501" stroke="black" fill="none" stroke-linecap="round"></path><path d="M 612.000,84.000 C 613.634,80.551 613.526,80.511 615.000,77.000" stroke-width="3.712" stroke="black" fill="none" stroke-linecap="round"></path><path d="M 615.000,77.000 C 616.525,74.085 616.134,74.051 617.000,71.000" stroke-width="3.930" stroke="black" fill="none" stroke-linecap="round"></path><path d="M 617.000,71.000 C 618.804,63.399 617.525,67.585 617.000,64.000" stroke-width="4.417" stroke="black" fill="none" stroke-linecap="round"></path><path d="M 617.000,64.000 C 610.886,69.381 612.804,65.399 605.000,75.000" stroke-width="4.812" stroke="black" fill="none" stroke-linecap="round"></path><path d="M 605.000,75.000 C 599.752,79.773 599.886,79.881 595.000,85.000" stroke-width="3.514" stroke="black" fill="none" stroke-linecap="round"></path><path d="M 595.000,85.000 C 590.380,91.364 589.752,90.773 585.000,97.000" stroke-width="3.018" stroke="black" fill="none" stroke-linecap="round"></path><path d="M 585.000,97.000 C 579.093,101.624 579.880,102.364 574.000,107.000" stroke-width="2.946" stroke="black" fill="none" stroke-linecap="round"></path><path d="M 574.000,107.000 C 570.336,111.381 570.093,111.124 567.000,116.000" stroke-width="3.323" stroke="black" fill="none" stroke-linecap="round"></path><path d="M 567.000,116.000 C 564.064,120.544 563.836,120.381 561.000,125.000" stroke-width="3.346" stroke="black" fill="none" stroke-linecap="round"></path><path d="M 561.000,125.000 C 558.323,128.387 558.564,128.544 556.000,132.000" stroke-width="3.559" stroke="black" fill="none" stroke-linecap="round"></path><path d="M 556.000,132.000 C 553.976,135.487 553.823,135.387 552.000,139.000" stroke-width="3.735" stroke="black" fill="none" stroke-linecap="round"></path><path d="M 552.000,139.000 C 549.707,143.626 549.476,143.487 547.000,148.000" stroke-width="3.570" stroke="black" fill="none" stroke-linecap="round"></path><path d="M 547.000,148.000 C 543.104,154.072 543.207,154.126 539.000,160.000" stroke-width="3.184" stroke="black" fill="none" stroke-linecap="round"></path><path d="M 539.000,160.000 C 534.026,167.019 534.104,167.072 529.000,174.000" stroke-width="2.902" stroke="black" fill="none" stroke-linecap="round"></path><path d="M 529.000,174.000 C 524.829,179.384 525.026,179.519 521.000,185.000" stroke-width="2.997" stroke="black" fill="none" stroke-linecap="round"></path><path d="M 521.000,185.000 C 517.615,190.577 517.329,190.384 514.000,196.000" stroke-width="3.125" stroke="black" fill="none" stroke-linecap="round"></path><path d="M 514.000,196.000 C 510.044,200.742 510.615,201.077 507.000,206.000" stroke-width="3.171" stroke="black" fill="none" stroke-linecap="round"></path><path d="M 507.000,206.000 C 505.096,210.545 504.544,210.242 503.000,215.000" stroke-width="3.435" stroke="black" fill="none" stroke-linecap="round"></path><path d="M 503.000,215.000 C 500.654,218.865 501.096,219.045 499.000,223.000" stroke-width="3.554" stroke="black" fill="none" stroke-linecap="round"></path><path d="M 499.000,223.000 C 497.882,226.471 497.654,226.365 497.000,230.000" stroke-width="3.815" stroke="black" fill="none" stroke-linecap="round"></path><path d="M 497.000,230.000 C 496.500,232.500 496.382,232.471 496.000,235.000" stroke-width="4.159" stroke="black" fill="none" stroke-linecap="round"></path><path d="M 496.000,235.000 C 494.289,239.763 495.500,237.500 495.000,240.000" stroke-width="4.646" stroke="black" fill="none" stroke-linecap="round"></path><path d="M 495.000,240.000 C 496.889,237.876 495.789,240.263 499.000,236.000" stroke-width="5.144" stroke="black" fill="none" stroke-linecap="round"></path><path d="M 499.000,236.000 C 501.440,233.920 501.389,233.876 504.000,232.000" stroke-width="4.833" stroke="black" fill="none" stroke-linecap="round"></path><path d="M 504.000,232.000 C 507.560,229.580 507.440,229.420 511.000,227.000" stroke-width="4.809" stroke="black" fill="none" stroke-linecap="round"></path><path d="M 511.000,227.000 C 513.284,224.630 513.560,225.080 516.000,223.000" stroke-width="4.756" stroke="black" fill="none" stroke-linecap="round"></path><path d="M 516.000,223.000 C 518.551,222.113 518.284,221.630 521.000,221.000" stroke-width="4.825" stroke="black" fill="none" stroke-linecap="round"></path><path d="M 521.000,221.000 C 524.186,219.791 524.051,219.613 527.000,218.000" stroke-width="4.910" stroke="black" fill="none" stroke-linecap="round"></path><path d="M 527.000,218.000 C 529.413,215.881 529.686,216.291 532.000,214.000" stroke-width="4.801" stroke="black" fill="none" stroke-linecap="round"></path><path d="M 532.000,214.000 C 535.120,212.160 534.913,211.881 538.000,210.000" stroke-width="4.688" stroke="black" fill="none" stroke-linecap="round"></path><path d="M 538.000,210.000 C 540.830,207.265 541.120,207.660 544.000,205.000" stroke-width="4.625" stroke="black" fill="none" stroke-linecap="round"></path><path d="M 544.000,205.000 C 547.862,202.228 547.830,202.265 552.000,200.000" stroke-width="4.425" stroke="black" fill="none" stroke-linecap="round"></path><path d="M 552.000,200.000 C 554.638,199.272 554.362,198.728 557.000,198.000" stroke-width="4.271" stroke="black" fill="none" stroke-linecap="round"></path><path d="M 557.000,198.000 C 561.000,195.500 561.138,195.772 565.000,193.000" stroke-width="4.322" stroke="black" fill="none" stroke-linecap="round"></path><path d="M 565.000,193.000 C 568.881,190.288 569.000,190.500 573.000,188.000" stroke-width="4.338" stroke="black" fill="none" stroke-linecap="round"></path><path d="M 573.000,188.000 C 578.249,185.903 577.881,185.288 583.000,183.000" stroke-width="4.241" stroke="black" fill="none" stroke-linecap="round"></path><path d="M 583.000,183.000 C 586.848,179.768 587.249,180.403 591.000,177.000" stroke-width="4.315" stroke="black" fill="none" stroke-linecap="round"></path><path d="M 591.000,177.000 C 594.400,174.800 594.348,174.768 598.000,173.000" stroke-width="4.491" stroke="black" fill="none" stroke-linecap="round"></path><path d="M 598.000,173.000 C 601.602,171.699 601.400,171.300 605.000,170.000" stroke-width="4.528" stroke="black" fill="none" stroke-linecap="round"></path><path d="M 605.000,170.000 C 610.214,166.573 607.602,168.699 610.000,167.000" stroke-width="4.716" stroke="black" fill="none" stroke-linecap="round"></path><path d="M 610.000,167.000 C 607.291,169.975 609.714,167.573 604.000,172.000" stroke-width="5.183" stroke="black" fill="none" stroke-linecap="round"></path><path d="M 604.000,172.000 C 600.579,173.722 600.791,173.975 597.000,175.000" stroke-width="4.256" stroke="black" fill="none" stroke-linecap="round"></path><path d="M 597.000,175.000 C 593.478,175.930 593.579,176.222 590.000,177.000" stroke-width="3.975" stroke="black" fill="none" stroke-linecap="round"></path><path d="M 590.000,177.000 C 587.038,178.132 586.978,177.930 584.000,179.000" stroke-width="4.014" stroke="black" fill="none" stroke-linecap="round"></path><path d="M 584.000,179.000 C 580.038,180.192 580.038,180.132 576.000,181.000" stroke-width="3.903" stroke="black" fill="none" stroke-linecap="round"></path><path d="M 576.000,181.000 C 572.500,181.500 572.538,181.692 569.000,182.000" stroke-width="3.952" stroke="black" fill="none" stroke-linecap="round"></path><path d="M 569.000,182.000 C 565.518,182.749 565.500,182.500 562.000,183.000" stroke-width="3.916" stroke="black" fill="none" stroke-linecap="round"></path><path d="M 562.000,183.000 C 558.500,183.000 558.518,183.249 555.000,183.000" stroke-width="3.964" stroke="black" fill="none" stroke-linecap="round"></path><path d="M 555.000,183.000 C 551.500,183.000 551.500,183.000 548.000,183.000" stroke-width="3.928" stroke="black" fill="none" stroke-linecap="round"></path><path d="M 548.000,183.000 C 544.500,183.000 544.500,183.000 541.000,183.000" stroke-width="3.967" stroke="black" fill="none" stroke-linecap="round"></path><path d="M 541.000,183.000 C 536.970,182.695 537.000,183.000 533.000,183.000" stroke-width="3.813" stroke="black" fill="none" stroke-linecap="round"></path><path d="M 533.000,183.000 C 530.455,183.330 530.470,183.195 528.000,184.000" stroke-width="4.159" stroke="black" fill="none" stroke-linecap="round"></path><path d="M 528.000,184.000 C 524.639,184.416 524.955,184.830 522.000,186.000" stroke-width="4.551" stroke="black" fill="none" stroke-linecap="round"></path><path d="M 522.000,186.000 C 518.472,187.639 519.639,187.416 518.000,190.000" stroke-width="5.064" stroke="black" fill="none" stroke-linecap="round"></path><path d="M 518.000,190.000 C 518.093,193.670 517.472,192.639 520.000,196.000" stroke-width="5.293" stroke="black" fill="none" stroke-linecap="round"></path><path d="M 520.000,196.000 C 523.387,198.677 522.593,199.170 527.000,201.000" stroke-width="4.937" stroke="black" fill="none" stroke-linecap="round"></path><path d="M 527.000,201.000 C 530.518,202.969 530.387,203.177 534.000,205.000" stroke-width="4.638" stroke="black" fill="none" stroke-linecap="round"></path><path d="M 534.000,205.000 C 536.397,206.698 536.518,206.469 539.000,208.000" stroke-width="4.314" stroke="black" fill="none" stroke-linecap="round"></path><path d="M 539.000,208.000 C 543.474,210.060 543.397,210.198 548.000,212.000" stroke-width="4.327" stroke="black" fill="none" stroke-linecap="round"></path><path d="M 548.000,212.000 C 550.500,213.000 550.474,213.060 553.000,214.000" stroke-width="4.288" stroke="black" fill="none" stroke-linecap="round"></path><path d="M 553.000,214.000 C 555.449,215.150 555.500,215.000 558.000,216.000" stroke-width="4.232" stroke="black" fill="none" stroke-linecap="round"></path><path d="M 558.000,216.000 C 561.437,217.452 561.449,217.150 565.000,218.000" stroke-width="4.535" stroke="black" fill="none" stroke-linecap="round"></path><path d="M 565.000,218.000 C 568.426,216.971 567.937,218.452 571.000,218.000" stroke-width="4.851" stroke="black" fill="none" stroke-linecap="round"></path><path d="M 571.000,218.000 C 572.526,220.969 573.426,218.971 575.000,222.000" stroke-width="5.199" stroke="black" fill="none" stroke-linecap="round"></path><path d="M 575.000,222.000 C 578.987,222.713 578.526,223.469 583.000,223.000" stroke-width="5.073" stroke="black" fill="none" stroke-linecap="round"></path><path d="M 583.000,223.000 C 586.000,223.000 585.987,223.213 589.000,223.000" stroke-width="5.193" stroke="black" fill="none" stroke-linecap="round"></path><path d="M 589.000,223.000 C 592.000,223.000 592.000,223.000 595.000,223.000" stroke-width="5.172" stroke="black" fill="none" stroke-linecap="round"></path><path d="M 595.000,223.000 C 598.000,223.000 598.000,223.000 601.000,223.000" stroke-width="5.165" stroke="black" fill="none" stroke-linecap="round"></path><path d="M 601.000,223.000 C 604.000,223.000 604.000,223.000 607.000,223.000" stroke-width="5.292" stroke="black" fill="none" stroke-linecap="round"></path><path d="M 607.000,223.000 C 611.000,223.000 611.000,223.000 615.000,223.000" stroke-width="5.182" stroke="black" fill="none" stroke-linecap="round"></path><path d="M 615.000,223.000 C 618.119,223.678 618.000,223.000 621.000,223.000" stroke-width="4.420" stroke="black" fill="none" stroke-linecap="round"></path><path d="M 621.000,223.000 C 626.470,220.914 626.619,221.678 632.000,219.000" stroke-width="3.597" stroke="black" fill="none" stroke-linecap="round"></path><path d="M 632.000,219.000 C 639.476,216.427 639.470,216.414 647.000,214.000" stroke-width="3.023" stroke="black" fill="none" stroke-linecap="round"></path><path d="M 647.000,214.000 C 654.869,210.978 654.976,211.427 663.000,209.000" stroke-width="2.945" stroke="black" fill="none" stroke-linecap="round"></path><path d="M 663.000,209.000 C 673.661,207.585 673.369,206.478 684.000,205.000" stroke-width="2.612" stroke="black" fill="none" stroke-linecap="round"></path><path d="M 689.000,131.000 C 692.465,124.481 692.500,124.500 696.000,118.000" stroke-width="4.555" stroke="black" fill="none" stroke-linecap="round"></path><path d="M 696.000,118.000 C 698.801,113.643 698.465,113.481 701.000,109.000" stroke-width="3.764" stroke="black" fill="none" stroke-linecap="round"></path><path d="M 701.000,109.000 C 703.820,104.193 703.301,104.143 705.000,99.000" stroke-width="3.473" stroke="black" fill="none" stroke-linecap="round"></path><path d="M 705.000,99.000 C 705.727,93.009 706.320,93.193 706.000,87.000" stroke-width="3.284" stroke="black" fill="none" stroke-linecap="round"></path><path d="M 706.000,87.000 C 706.000,82.000 706.227,82.009 706.000,77.000" stroke-width="3.460" stroke="black" fill="none" stroke-linecap="round"></path><path d="M 706.000,77.000 C 707.205,72.614 706.000,73.000 706.000,69.000" stroke-width="3.753" stroke="black" fill="none" stroke-linecap="round"></path><path d="M 706.000,69.000 C 704.101,64.879 704.705,65.114 701.000,62.000" stroke-width="3.686" stroke="black" fill="none" stroke-linecap="round"></path><path d="M 701.000,62.000 C 696.843,58.316 697.101,58.379 692.000,56.000" stroke-width="3.509" stroke="black" fill="none" stroke-linecap="round"></path><path d="M 692.000,56.000 C 685.249,52.243 685.343,52.816 678.000,51.000" stroke-width="3.198" stroke="black" fill="none" stroke-linecap="round"></path><path d="M 678.000,51.000 C 667.507,50.224 667.749,49.243 657.000,50.000" stroke-width="2.619" stroke="black" fill="none" stroke-linecap="round"></path><path d="M 657.000,50.000 C 643.635,47.684 644.007,49.724 631.000,50.000" stroke-width="2.267" stroke="black" fill="none" stroke-linecap="round"></path><path d="M 631.000,50.000 C 613.573,54.420 613.635,53.184 597.000,61.000" stroke-width="1.929" stroke="black" fill="none" stroke-linecap="round"></path><path d="M 597.000,61.000 C 579.507,68.092 579.573,67.920 563.000,77.000" stroke-width="1.802" stroke="black" fill="none" stroke-linecap="round"></path><path d="M 563.000,77.000 C 548.190,85.540 548.007,85.092 534.000,95.000" stroke-width="1.797" stroke="black" fill="none" stroke-linecap="round"></path><path d="M 534.000,95.000 C 522.470,102.362 522.690,102.540 512.000,111.000" stroke-width="2.039" stroke="black" fill="none" stroke-linecap="round"></path><path d="M 512.000,111.000 C 501.545,118.374 502.470,118.862 494.000,128.000" stroke-width="2.208" stroke="black" fill="none" stroke-linecap="round"></path><path d="M 494.000,128.000 C 486.123,137.329 487.045,136.874 483.000,148.000" stroke-width="2.284" stroke="black" fill="none" stroke-linecap="round"></path><path d="M 483.000,148.000 C 480.344,158.827 480.123,157.829 482.000,169.000" stroke-width="2.441" stroke="black" fill="none" stroke-linecap="round"></path><path d="M 482.000,169.000 C 483.609,181.523 483.844,180.327 490.000,191.000" stroke-width="2.388" stroke="black" fill="none" stroke-linecap="round"></path><path d="M 490.000,191.000 C 499.695,202.454 498.109,203.023 511.000,212.000" stroke-width="2.196" stroke="black" fill="none" stroke-linecap="round"></path><path d="M 511.000,212.000 C 522.194,221.969 522.195,221.454 535.000,229.000" stroke-width="2.042" stroke="black" fill="none" stroke-linecap="round"></path><path d="M 535.000,229.000 C 548.078,235.919 547.694,235.969 562.000,240.000" stroke-width="2.063" stroke="black" fill="none" stroke-linecap="round"></path><path d="M 562.000,240.000 C 577.355,244.510 577.078,244.419 593.000,246.000" stroke-width="1.940" stroke="black" fill="none" stroke-linecap="round"></path><path d="M 593.000,246.000 C 609.611,249.126 608.855,247.510 625.000,246.000" stroke-width="1.999" stroke="black" fill="none" stroke-linecap="round"></path><path d="M 625.000,246.000 C 642.124,241.500 641.611,242.626 657.000,233.000" stroke-width="1.841" stroke="black" fill="none" stroke-linecap="round"></path><path d="M 657.000,233.000 C 673.610,222.766 673.624,223.500 688.000,210.000" stroke-width="1.804" stroke="black" fill="none" stroke-linecap="round"></path><path d="M 688.000,210.000 C 714.079,182.921 704.610,195.266 719.000,178.000" stroke-width="1.569" stroke="black" fill="none" stroke-linecap="round"></path><path d="M 720.000,191.000 C 714.745,187.368 714.500,188.500 709.000,186.000" stroke-width="4.555" stroke="black" fill="none" stroke-linecap="round"></path><path d="M 709.000,186.000 C 703.941,186.593 704.245,184.868 699.000,186.000" stroke-width="3.730" stroke="black" fill="none" stroke-linecap="round"></path><path d="M 699.000,186.000 C 691.442,184.751 691.441,185.093 684.000,183.000" stroke-width="3.088" stroke="black" fill="none" stroke-linecap="round"></path><path d="M 684.000,183.000 C 674.556,180.263 674.442,180.751 665.000,178.000" stroke-width="2.798" stroke="black" fill="none" stroke-linecap="round"></path><path d="M 665.000,178.000 C 655.545,175.758 655.556,175.763 646.000,174.000" stroke-width="2.613" stroke="black" fill="none" stroke-linecap="round"></path><path d="M 646.000,174.000 C 636.557,171.775 636.545,172.258 627.000,171.000" stroke-width="2.686" stroke="black" fill="none" stroke-linecap="round"></path><path d="M 627.000,171.000 C 618.000,171.000 618.057,170.275 609.000,171.000" stroke-width="2.718" stroke="black" fill="none" stroke-linecap="round"></path><path d="M 609.000,171.000 C 600.349,169.923 600.500,171.000 592.000,171.000" stroke-width="2.784" stroke="black" fill="none" stroke-linecap="round"></path><path d="M 592.000,171.000 C 584.894,172.702 584.849,171.923 578.000,175.000" stroke-width="2.895" stroke="black" fill="none" stroke-linecap="round"></path></svg>