<svg xmlns="http://www.w3.org/2000/svg" xmlns:xlink="http://www.w3.org/1999/xlink" viewBox="0 0 724 414" width="724" height="414"><path d="M 149.000,145.000 C 140.529,140.936 140.500,141.000 132.000,137.000" stroke-width="3.987" stroke="black" fill="none" stroke-linecap="round"></path><path d="M 132.000,137.000 C 127.400,135.200 127.529,134.936 123.000,133.000" stroke-width="4.278" stroke="black" fill="none" stroke-linecap="round"></path><path d="M 123.000,133.000 C 118.265,130.843 118.400,130.700 114.000,128.000" stroke-width="4.306" stroke="black" fill="none" stroke-linecap="round"></path><path d="M 114.000,128.000 C 108.000,124.934 110.765,125.843 108.000,123.000" stroke-width="4.490" stroke="black" fill="none" stroke-linecap="round"></path><path d="M 108.000,123.000 C 111.051,122.134 108.000,121.434 114.000,121.000" stroke-width="5.058" stroke="black" fill="none" stroke-linecap="round"></path><path d="M 114.000,121.000 C 117.525,119.558 117.551,119.634 121.000,118.000" stroke-width="4.175" stroke="black" fill="none" stroke-linecap="round"></path><path d="M 121.000,118.000 C 132.204,113.398 132.025,113.058 143.000,108.000" stroke-width="3.206" stroke="black" fill="none" stroke-linecap="round"></path><path d="M 143.000,108.000 C 150.045,104.077 150.204,104.398 157.000,100.000" stroke-width="2.976" stroke="black" fill="none" stroke-linecap="round"></path><path d="M 157.000,100.000 C 164.543,95.570 164.545,95.577 172.000,91.000" stroke-width="2.768" stroke="black" fill="none" stroke-linecap="round"></path><path d="M 172.000,91.000 C 179.937,85.895 180.043,86.070 188.000,81.000" stroke-width="2.634" stroke="black" fill="none" stroke-linecap="round"></path><path d="M 188.000,81.000 C 194.000,77.500 193.937,77.395 200.000,74.000" stroke-width="2.887" stroke="black" fill="none" stroke-linecap="round"></path><path d="M 200.000,74.000 C 205.864,70.230 206.000,70.500 212.000,67.000" stroke-width="2.973" stroke="black" fill="none" stroke-linecap="round"></path><path d="M 212.000,67.000 C 215.386,65.112 215.364,65.230 219.000,64.000" stroke-width="3.514" stroke="black" fill="none" stroke-linecap="round"></path><path d="M 219.000,64.000 C 224.804,61.628 221.886,63.112 225.000,63.000" stroke-width="4.296" stroke="black" fill="none" stroke-linecap="round"></path><path d="M 225.000,63.000 C 222.885,67.290 225.304,65.128 220.000,71.000" stroke-width="4.371" stroke="black" fill="none" stroke-linecap="round"></path><path d="M 220.000,71.000 C 215.752,76.248 215.885,76.290 211.000,81.000" stroke-width="3.359" stroke="black" fill="none" stroke-linecap="round"></path><path d="M 211.000,81.000 C 203.492,87.991 203.752,88.248 196.000,95.000" stroke-width="2.748" stroke="black" fill="none" stroke-linecap="round"></path><path d="M 196.000,95.000 C 188.093,102.601 187.992,102.491 180.000,110.000" stroke-width="2.537" stroke="black" fill="none" stroke-linecap="round"></path><path d="M 180.000,110.000 C 170.487,118.486 170.593,118.601 161.000,127.000" stroke-width="2.268" stroke="black" fill="none" stroke-linecap="round"></path><path d="M 161.000,127.000 C 151.124,136.142 150.987,135.986 141.000,145.000" stroke-width="2.204" stroke="black" fill="none" stroke-linecap="round"></path><path d="M 141.000,145.000 C 131.144,153.676 131.124,153.642 121.000,162.000" stroke-width="2.209" stroke="black" fill="none" stroke-linecap="round"></path><path d="M 121.000,162.000 C 111.583,169.608 111.644,169.676 102.000,177.000" stroke-width="2.229" stroke="black" fill="none" stroke-linecap="round"></path><path d="M 102.000,177.000 C 94.031,183.042 94.083,183.108 86.000,189.000" stroke-width="2.517" stroke="black" fill="none" stroke-linecap="round"></path><path d="M 86.000,189.000 C 78.604,194.649 78.531,194.542 71.000,200.000" stroke-width="2.575" stroke="black" fill="none" stroke-linecap="round"></path><path d="M 71.000,200.000 C 65.311,204.581 65.104,204.149 59.000,208.000" stroke-width="2.832" stroke="black" fill="none" stroke-linecap="round"></path><path d="M 59.000,208.000 C 53.034,210.586 53.311,211.081 47.000,213.000" stroke-width="3.072" stroke="black" fill="none" stroke-linecap="round"></path><path d="M 47.000,213.000 C 43.112,215.119 43.034,214.586 39.000,216.000" stroke-width="3.596" stroke="black" fill="none" stroke-linecap="round"></path><path d="M 39.000,216.000 C 35.979,216.248 36.112,216.619 33.000,216.000" stroke-width="3.972" stroke="black" fill="none" stroke-linecap="round"></path><path d="M 33.000,216.000 C 28.395,216.860 29.979,215.748 27.000,215.000" stroke-width="4.486" stroke="black" fill="none" stroke-linecap="round"></path><path d="M 27.000,215.000 C 25.353,210.676 25.395,212.860 27.000,208.000" stroke-width="4.610" stroke="black" fill="none" stroke-linecap="round"></path><path d="M 27.000,208.000 C 30.783,204.663 29.353,204.176 35.000,202.000" stroke-width="3.741" stroke="black" fill="none" stroke-linecap="round"></path><path d="M 35.000,202.000 C 40.360,198.715 40.283,198.663 46.000,196.000" stroke-width="3.310" stroke="black" fill="none" stroke-linecap="round"></path><path d="M 46.000,196.000 C 54.051,192.613 53.860,192.215 62.000,189.000" stroke-width="2.916" stroke="black" fill="none" stroke-linecap="round"></path><path d="M 62.000,189.000 C 70.426,184.836 70.551,185.113 79.000,181.000" stroke-width="2.678" stroke="black" fill="none" stroke-linecap="round"></path><path d="M 79.000,181.000 C 89.540,176.592 89.426,176.336 100.000,172.000" stroke-width="2.414" stroke="black" fill="none" stroke-linecap="round"></path><path d="M 100.000,172.000 C 110.200,167.900 110.040,167.592 120.000,163.000" stroke-width="2.385" stroke="black" fill="none" stroke-linecap="round"></path><path d="M 120.000,163.000 C 129.960,157.427 130.200,157.900 140.000,152.000" stroke-width="2.396" stroke="black" fill="none" stroke-linecap="round"></path><path d="M 140.000,152.000 C 148.400,147.300 148.460,147.427 157.000,143.000" stroke-width="2.561" stroke="black" fill="none" stroke-linecap="round"></path><path d="M 157.000,143.000 C 165.541,139.084 165.400,138.800 174.000,135.000" stroke-width="2.579" stroke="black" fill="none" stroke-linecap="round"></path><path d="M 174.000,135.000 C 180.059,132.112 180.041,132.084 186.000,129.000" stroke-width="2.998" stroke="black" fill="none" stroke-linecap="round"></path><path d="M 186.000,129.000 C 190.531,126.554 190.559,126.612 195.000,124.000" stroke-width="3.283" stroke="black" fill="none" stroke-linecap="round"></path><path d="M 195.000,124.000 C 200.245,121.489 197.531,122.554 200.000,121.000" stroke-width="3.868" stroke="black" fill="none" stroke-linecap="round"></path><path d="M 200.000,121.000 C 196.795,120.925 199.745,120.489 194.000,122.000" stroke-width="4.688" stroke="black" fill="none" stroke-linecap="round"></path><path d="M 194.000,122.000 C 190.513,124.024 190.295,123.425 187.000,126.000" stroke-width="4.041" stroke="black" fill="none" stroke-linecap="round"></path><path d="M 187.000,126.000 C 182.549,128.592 182.513,128.524 178.000,131.000" stroke-width="3.587" stroke="black" fill="none" stroke-linecap="round"></path><path d="M 178.000,131.000 C 174.125,133.302 174.049,133.092 170.000,135.000" stroke-width="3.602" stroke="black" fill="none" stroke-linecap="round"></path><path d="M 170.000,135.000 C 165.325,136.108 165.625,136.802 161.000,138.000" stroke-width="3.659" stroke="black" fill="none" stroke-linecap="round"></path><path d="M 161.000,138.000 C 157.387,139.823 157.325,139.608 154.000,142.000" stroke-width="3.715" stroke="black" fill="none" stroke-linecap="round"></path><path d="M 154.000,142.000 C 149.980,144.020 150.387,144.323 147.000,147.000" stroke-width="3.675" stroke="black" fill="none" stroke-linecap="round"></path><path d="M 147.000,147.000 C 145.300,149.401 144.980,149.020 144.000,152.000" stroke-width="4.020" stroke="black" fill="none" stroke-linecap="round"></path><path d="M 144.000,152.000 C 141.038,155.075 142.800,154.401 142.000,157.000" stroke-width="4.150" stroke="black" fill="none" stroke-linecap="round"></path><path d="M 142.000,157.000 C 145.128,160.451 143.538,160.075 149.000,162.000" stroke-width="4.584" stroke="black" fill="none" stroke-linecap="round"></path><path d="M 149.000,162.000 C 152.984,162.749 152.628,163.451 157.000,163.000" stroke-width="4.071" stroke="black" fill="none" stroke-linecap="round"></path><path d="M 157.000,163.000 C 161.013,163.235 160.984,163.249 165.000,163.000" stroke-width="3.781" stroke="black" fill="none" stroke-linecap="round"></path><path d="M 165.000,163.000 C 169.724,163.258 169.513,162.735 174.000,162.000" stroke-width="3.703" stroke="black" fill="none" stroke-linecap="round"></path><path d="M 174.000,162.000 C 177.908,159.790 178.224,160.758 182.000,158.000" stroke-width="3.741" stroke="black" fill="none" stroke-linecap="round"></path><path d="M 182.000,158.000 C 186.141,156.801 185.908,156.290 190.000,155.000" stroke-width="3.689" stroke="black" fill="none" stroke-linecap="round"></path><path d="M 190.000,155.000 C 193.935,153.508 193.641,153.301 197.000,151.000" stroke-width="3.777" stroke="black" fill="none" stroke-linecap="round"></path><path d="M 197.000,151.000 C 199.608,148.783 199.435,149.008 201.000,146.000" stroke-width="3.942" stroke="black" fill="none" stroke-linecap="round"></path><path d="M 201.000,146.000 C 203.520,141.844 202.108,143.783 202.000,141.000" stroke-width="4.695" stroke="black" fill="none" stroke-linecap="round"></path><path d="M 202.000,141.000 C 197.000,141.000 199.020,139.344 192.000,141.000" stroke-width="4.401" stroke="black" fill="none" stroke-linecap="round"></path><path d="M 192.000,141.000 C 188.202,140.015 188.500,141.000 185.000,141.000" stroke-width="4.598" stroke="black" fill="none" stroke-linecap="round"></path><path d="M 185.000,141.000 C 181.648,142.616 181.702,142.015 179.000,145.000" stroke-width="4.593" stroke="black" fill="none" stroke-linecap="round"></path><path d="M 179.000,145.000 C 174.722,148.330 176.648,147.116 175.000,150.000" stroke-width="4.861" stroke="black" fill="none" stroke-linecap="round"></path><path d="M 175.000,150.000 C 177.473,150.770 175.222,151.330 180.000,151.000" stroke-width="5.035" stroke="black" fill="none" stroke-linecap="round"></path><path d="M 180.000,151.000 C 183.000,151.000 182.973,151.270 186.000,151.000" stroke-width="4.387" stroke="black" fill="none" stroke-linecap="round"></path><path d="M 186.000,151.000 C 189.857,152.179 189.500,151.000 193.000,151.000" stroke-width="4.146" stroke="black" fill="none" stroke-linecap="round"></path><path d="M 193.000,151.000 C 197.301,147.656 197.857,149.179 202.000,145.000" stroke-width="3.623" stroke="black" fill="none" stroke-linecap="round"></path><path d="M 202.000,145.000 C 209.374,142.113 208.801,141.156 216.000,138.000" stroke-width="3.107" stroke="black" fill="none" stroke-linecap="round"></path><path d="M 216.000,138.000 C 223.305,132.213 223.874,133.113 231.000,127.000" stroke-width="2.735" stroke="black" fill="none" stroke-linecap="round"></path><path d="M 231.000,127.000 C 239.319,122.451 238.805,121.713 247.000,117.000" stroke-width="2.686" stroke="black" fill="none" stroke-linecap="round"></path><path d="M 247.000,117.000 C 254.351,110.803 254.819,111.451 262.000,105.000" stroke-width="2.594" stroke="black" fill="none" stroke-linecap="round"></path><path d="M 262.000,105.000 C 269.294,100.365 268.851,99.803 276.000,95.000" stroke-width="2.732" stroke="black" fill="none" stroke-linecap="round"></path><path d="M 276.000,95.000 C 281.376,89.857 281.794,90.365 287.000,85.000" stroke-width="2.858" stroke="black" fill="none" stroke-linecap="round"></path><path d="M 287.000,85.000 C 292.857,80.872 292.376,80.357 298.000,76.000" stroke-width="2.999" stroke="black" fill="none" stroke-linecap="round"></path><path d="M 298.000,76.000 C 302.355,71.766 302.357,71.872 306.000,67.000" stroke-width="3.143" stroke="black" fill="none" stroke-linecap="round"></path><path d="M 306.000,67.000 C 308.528,63.017 308.855,63.266 311.000,59.000" stroke-width="3.410" stroke="black" fill="none" stroke-linecap="round"></path><path d="M 311.000,59.000 C 314.477,56.145 312.528,56.517 314.000,54.000" stroke-width="3.920" stroke="black" fill="none" stroke-linecap="round"></path><path d="M 314.000,54.000 C 311.746,49.677 313.477,51.645 309.000,50.000" stroke-width="4.657" stroke="black" fill="none" stroke-linecap="round"></path><path d="M 309.000,50.000 C 302.860,52.745 303.246,50.677 297.000,56.000" stroke-width="3.483" stroke="black" fill="none" stroke-linecap="round"></path><path d="M 297.000,56.000 C 289.149,59.996 289.360,60.245 282.000,65.000" stroke-width="2.953" stroke="black" fill="none" stroke-linecap="round"></path><path d="M 282.000,65.000 C 274.117,70.572 274.149,70.496 267.000,77.000" stroke-width="2.664" stroke="black" fill="none" stroke-linecap="round"></path><path d="M 267.000,77.000 C 258.867,84.871 258.617,84.572 251.000,93.000" stroke-width="2.483" stroke="black" fill="none" stroke-linecap="round"></path><path d="M 251.000,93.000 C 243.583,100.151 243.867,100.371 237.000,108.000" stroke-width="2.529" stroke="black" fill="none" stroke-linecap="round"></path><path d="M 237.000,108.000 C 230.671,115.776 230.583,115.651 225.000,124.000" stroke-width="2.673" stroke="black" fill="none" stroke-linecap="round"></path><path d="M 225.000,124.000 C 220.396,130.208 220.671,130.276 217.000,137.000" stroke-width="2.870" stroke="black" fill="none" stroke-linecap="round"></path><path d="M 217.000,137.000 C 214.603,142.389 214.396,142.208 213.000,148.000" stroke-width="3.178" stroke="black" fill="none" stroke-linecap="round"></path><path d="M 213.000,148.000 C 211.630,152.963 211.603,152.889 211.000,158.000" stroke-width="3.407" stroke="black" fill="none" stroke-linecap="round"></path><path d="M 211.000,158.000 C 209.175,162.175 210.630,160.963 211.000,164.000" stroke-width="3.972" stroke="black" fill="none" stroke-linecap="round"></path><path d="M 211.000,164.000 C 216.602,168.700 214.675,167.675 222.000,169.000" stroke-width="4.095" stroke="black" fill="none" stroke-linecap="round"></path><path d="M 222.000,169.000 C 225.765,167.372 225.602,169.200 229.000,165.000" stroke-width="3.895" stroke="black" fill="none" stroke-linecap="round"></path><path d="M 229.000,165.000 C 233.028,161.531 233.265,161.872 237.000,158.000" stroke-width="3.519" stroke="black" fill="none" stroke-linecap="round"></path><path d="M 237.000,158.000 C 241.757,153.194 242.028,153.531 247.000,149.000" stroke-width="3.245" stroke="black" fill="none" stroke-linecap="round"></path><path d="M 247.000,149.000 C 251.847,145.255 251.757,145.194 257.000,142.000" stroke-width="3.265" stroke="black" fill="none" stroke-linecap="round"></path><path d="M 257.000,142.000 C 261.354,139.168 261.347,139.255 266.000,137.000" stroke-width="3.428" stroke="black" fill="none" stroke-linecap="round"></path><path d="M 266.000,137.000 C 272.331,133.678 268.854,135.668 272.000,135.000" stroke-width="3.829" stroke="black" fill="none" stroke-linecap="round"></path><path d="M 272.000,135.000 C 267.888,139.915 271.331,137.678 264.000,145.000" stroke-width="4.464" stroke="black" fill="none" stroke-linecap="round"></path><path d="M 264.000,145.000 C 261.580,148.560 261.388,148.415 259.000,152.000" stroke-width="3.927" stroke="black" fill="none" stroke-linecap="round"></path><path d="M 259.000,152.000 C 253.527,156.509 257.080,154.560 255.000,157.000" stroke-width="3.990" stroke="black" fill="none" stroke-linecap="round"></path><path d="M 255.000,157.000 C 261.974,157.260 258.027,158.009 268.000,155.000" stroke-width="4.470" stroke="black" fill="none" stroke-linecap="round"></path><path d="M 268.000,155.000 C 273.577,151.615 273.974,152.760 279.000,148.000" stroke-width="3.413" stroke="black" fill="none" stroke-linecap="round"></path><path d="M 279.000,148.000 C 283.881,144.312 284.077,144.615 289.000,141.000" stroke-width="3.315" stroke="black" fill="none" stroke-linecap="round"></path><path d="M 289.000,141.000 C 295.746,136.746 292.381,138.812 296.000,137.000" stroke-width="3.650" stroke="black" fill="none" stroke-linecap="round"></path><path d="M 296.000,137.000 C 292.600,139.140 296.246,137.246 290.000,142.000" stroke-width="4.554" stroke="black" fill="none" stroke-linecap="round"></path><path d="M 290.000,142.000 C 287.935,144.959 287.600,144.640 286.000,148.000" stroke-width="4.058" stroke="black" fill="none" stroke-linecap="round"></path><path d="M 286.000,148.000 C 284.067,150.333 284.435,150.459 283.000,153.000" stroke-width="4.103" stroke="black" fill="none" stroke-linecap="round"></path><path d="M 283.000,153.000 C 280.644,157.225 282.067,155.333 282.000,158.000" stroke-width="4.636" stroke="black" fill="none" stroke-linecap="round"></path><path d="M 282.000,158.000 C 286.444,158.524 284.144,159.225 290.000,157.000" stroke-width="4.770" stroke="black" fill="none" stroke-linecap="round"></path><path d="M 290.000,157.000 C 295.241,151.494 293.444,155.524 296.000,152.000" stroke-width="4.631" stroke="black" fill="none" stroke-linecap="round"></path><path d="M 296.000,152.000 C 295.174,155.956 296.741,152.494 293.000,159.000" stroke-width="4.804" stroke="black" fill="none" stroke-linecap="round"></path><path d="M 293.000,159.000 C 289.354,162.367 290.174,162.956 286.000,166.000" stroke-width="3.856" stroke="black" fill="none" stroke-linecap="round"></path><path d="M 286.000,166.000 C 280.494,169.722 283.354,168.867 281.000,172.000" stroke-width="3.802" stroke="black" fill="none" stroke-linecap="round"></path><path d="M 281.000,172.000 C 284.704,175.942 281.494,174.222 288.000,175.000" stroke-width="4.558" stroke="black" fill="none" stroke-linecap="round"></path><path d="M 288.000,175.000 C 295.187,170.769 295.204,172.942 302.000,166.000" stroke-width="3.204" stroke="black" fill="none" stroke-linecap="round"></path><path d="M 302.000,166.000 C 310.287,160.352 310.187,160.269 318.000,154.000" stroke-width="2.744" stroke="black" fill="none" stroke-linecap="round"></path><path d="M 318.000,154.000 C 327.162,146.175 327.287,146.352 336.000,138.000" stroke-width="2.375" stroke="black" fill="none" stroke-linecap="round"></path><path d="M 336.000,138.000 C 346.783,127.263 347.162,127.675 358.000,117.000" stroke-width="2.169" stroke="black" fill="none" stroke-linecap="round"></path><path d="M 358.000,117.000 C 370.624,106.138 370.283,105.763 383.000,95.000" stroke-width="1.917" stroke="black" fill="none" stroke-linecap="round"></path><path d="M 383.000,95.000 C 395.722,83.732 395.624,83.638 408.000,72.000" stroke-width="1.888" stroke="black" fill="none" stroke-linecap="round"></path><path d="M 408.000,72.000 C 417.881,61.878 418.222,62.232 428.000,52.000" stroke-width="2.039" stroke="black" fill="none" stroke-linecap="round"></path><path d="M 428.000,52.000 C 439.257,41.743 438.881,41.378 450.000,31.000" stroke-width="2.023" stroke="black" fill="none" stroke-linecap="round"></path><path d="M 450.000,31.000 C 453.395,27.762 453.257,27.743 456.000,24.000" stroke-width="2.940" stroke="black" fill="none" stroke-linecap="round"></path><path d="M 456.000,24.000 C 461.036,18.127 457.895,21.262 459.000,18.000" stroke-width="3.983" stroke="black" fill="none" stroke-linecap="round"></path><path d="M 459.000,18.000 C 448.805,18.955 453.036,17.627 440.000,23.000" stroke-width="3.652" stroke="black" fill="none" stroke-linecap="round"></path><path d="M 440.000,23.000 C 430.814,28.737 430.305,27.455 422.000,35.000" stroke-width="2.740" stroke="black" fill="none" stroke-linecap="round"></path><path d="M 422.000,35.000 C 411.384,41.789 411.814,42.237 402.000,50.000" stroke-width="2.398" stroke="black" fill="none" stroke-linecap="round"></path><path d="M 402.000,50.000 C 391.868,59.872 391.384,59.289 382.000,70.000" stroke-width="2.130" stroke="black" fill="none" stroke-linecap="round"></path><path d="M 382.000,70.000 C 372.212,78.872 372.868,79.372 364.000,89.000" stroke-width="2.189" stroke="black" fill="none" stroke-linecap="round"></path><path d="M 364.000,89.000 C 357.474,97.695 357.212,97.372 352.000,107.000" stroke-width="2.433" stroke="black" fill="none" stroke-linecap="round"></path><path d="M 352.000,107.000 C 347.764,114.892 347.474,114.695 344.000,123.000" stroke-width="2.692" stroke="black" fill="none" stroke-linecap="round"></path><path d="M 344.000,123.000 C 341.560,129.026 341.264,128.892 339.000,135.000" stroke-width="3.021" stroke="black" fill="none" stroke-linecap="round"></path><path d="M 339.000,135.000 C 336.545,139.364 337.060,139.526 335.000,144.000" stroke-width="3.380" stroke="black" fill="none" stroke-linecap="round"></path><path d="M 335.000,144.000 C 332.634,148.179 334.045,146.864 334.000,150.000" stroke-width="3.880" stroke="black" fill="none" stroke-linecap="round"></path><path d="M 334.000,150.000 C 337.733,152.769 335.634,152.179 341.000,152.000" stroke-width="4.562" stroke="black" fill="none" stroke-linecap="round"></path><path d="M 341.000,152.000 C 345.795,148.603 346.233,150.769 351.000,146.000" stroke-width="3.560" stroke="black" fill="none" stroke-linecap="round"></path><path d="M 351.000,146.000 C 358.962,142.410 358.795,142.103 367.000,139.000" stroke-width="2.971" stroke="black" fill="none" stroke-linecap="round"></path><path d="M 367.000,139.000 C 375.388,135.199 375.462,135.410 384.000,132.000" stroke-width="2.714" stroke="black" fill="none" stroke-linecap="round"></path><path d="M 384.000,132.000 C 392.974,128.920 392.888,128.699 402.000,126.000" stroke-width="2.675" stroke="black" fill="none" stroke-linecap="round"></path><path d="M 402.000,126.000 C 409.836,122.633 409.974,123.420 418.000,121.000" stroke-width="2.725" stroke="black" fill="none" stroke-linecap="round"></path><path d="M 418.000,121.000 C 425.023,120.000 424.836,119.633 432.000,120.000" stroke-width="3.016" stroke="black" fill="none" stroke-linecap="round"></path><path d="M 432.000,120.000 C 436.381,119.150 435.023,120.000 438.000,121.000" stroke-width="3.725" stroke="black" fill="none" stroke-linecap="round"></path><path d="M 438.000,121.000 C 440.151,124.833 439.881,123.150 439.000,128.000" stroke-width="3.847" stroke="black" fill="none" stroke-linecap="round"></path><path d="M 439.000,128.000 C 435.914,136.716 436.151,135.833 430.000,143.000" stroke-width="2.954" stroke="black" fill="none" stroke-linecap="round"></path><path d="M 430.000,143.000 C 419.264,153.597 419.914,153.716 407.000,162.000" stroke-width="2.183" stroke="black" fill="none" stroke-linecap="round"></path><path d="M 407.000,162.000 C 391.739,171.436 392.264,172.097 376.000,180.000" stroke-width="1.907" stroke="black" fill="none" stroke-linecap="round"></path><path d="M 376.000,180.000 C 357.735,189.988 357.739,189.936 339.000,199.000" stroke-width="1.757" stroke="black" fill="none" stroke-linecap="round"></path><path d="M 339.000,199.000 C 318.551,209.981 318.235,208.988 297.000,218.000" stroke-width="1.530" stroke="black" fill="none" stroke-linecap="round"></path><path d="M 297.000,218.000 C 275.292,225.740 275.551,225.981 253.000,231.000" stroke-width="1.523" stroke="black" fill="none" stroke-linecap="round"></path><path d="M 253.000,231.000 C 230.672,236.733 230.792,236.240 208.000,239.000" stroke-width="1.569" stroke="black" fill="none" stroke-linecap="round"></path><path d="M 208.000,239.000 C 185.503,239.741 185.672,241.233 163.000,240.000" stroke-width="1.502" stroke="black" fill="none" stroke-linecap="round"></path><path d="M 163.000,240.000 C 141.747,242.277 142.003,240.241 121.000,240.000" stroke-width="1.583" stroke="black" fill="none" stroke-linecap="round"></path><path d="M 121.000,240.000 C 100.474,237.136 100.747,237.777 81.000,231.000" stroke-width="1.580" stroke="black" fill="none" stroke-linecap="round"></path><path d="M 81.000,231.000 C 62.693,226.607 63.974,225.636 48.000,217.000" stroke-width="1.734" stroke="black" fill="none" stroke-linecap="round"></path><path d="M 48.000,217.000 C 35.470,208.646 36.693,209.607 29.000,197.000" stroke-width="1.953" stroke="black" fill="none" stroke-linecap="round"></path><path d="M 29.000,197.000 C 23.678,184.662 22.970,186.146 23.000,172.000" stroke-width="2.145" stroke="black" fill="none" stroke-linecap="round"></path><path d="M 23.000,172.000 C 20.371,154.961 22.178,156.662 26.000,141.000" stroke-width="1.974" stroke="black" fill="none" stroke-linecap="round"></path><path d="M 26.000,141.000 C 34.805,123.415 32.871,123.961 48.000,110.000" stroke-width="1.748" stroke="black" fill="none" stroke-linecap="round"></path><path d="M 48.000,110.000 C 65.823,93.202 64.805,92.915 86.000,80.000" stroke-width="1.631" stroke="black" fill="none" stroke-linecap="round"></path><path d="M 86.000,80.000 C 106.390,65.602 106.323,66.702 129.000,57.000" stroke-width="1.454" stroke="black" fill="none" stroke-linecap="round"></path><path d="M 129.000,57.000 C 153.171,49.020 152.390,48.102 178.000,45.000" stroke-width="1.383" stroke="black" fill="none" stroke-linecap="round"></path><path d="M 178.000,45.000 C 205.945,41.275 205.671,40.520 234.000,40.000" stroke-width="1.328" stroke="black" fill="none" stroke-linecap="round"></path><path d="M 234.000,40.000 C 261.026,39.191 260.945,38.775 288.000,40.000" stroke-width="1.298" stroke="black" fill="none" stroke-linecap="round"></path><path d="M 288.000,40.000 C 311.057,40.890 311.026,40.691 334.000,43.000" stroke-width="1.483" stroke="black" fill="none" stroke-linecap="round"></path><path d="M 334.000,43.000 C 354.592,44.900 354.557,44.890 375.000,48.000" stroke-width="1.590" stroke="black" fill="none" stroke-linecap="round"></path><path d="M 375.000,48.000 C 394.085,51.097 394.092,50.900 413.000,55.000" stroke-width="1.678" stroke="black" fill="none" stroke-linecap="round"></path><path d="M 413.000,55.000 C 425.796,57.146 425.585,57.597 438.000,61.000" stroke-width="1.987" stroke="black" fill="none" stroke-linecap="round"></path><path d="M 438.000,61.000 C 445.798,62.838 444.796,63.146 451.000,67.000" stroke-width="2.586" stroke="black" fill="none" stroke-linecap="round"></path><path d="M 451.000,67.000 C 454.934,71.180 453.298,68.838 453.000,73.000" stroke-width="3.452" stroke="black" fill="none" stroke-linecap="round"></path><path d="M 453.000,73.000 C 443.890,78.879 446.434,79.180 434.000,83.000" stroke-width="2.643" stroke="black" fill="none" stroke-linecap="round"></path><path d="M 434.000,83.000 C 413.679,91.029 413.890,91.379 393.000,98.000" stroke-width="1.794" stroke="black" fill="none" stroke-linecap="round"></path><path d="M 393.000,98.000 C 369.170,106.094 369.179,106.029 345.000,113.000" stroke-width="1.464" stroke="black" fill="none" stroke-linecap="round"></path><path d="M 345.000,113.000 C 320.152,120.157 320.170,120.094 295.000,126.000" stroke-width="1.413" stroke="black" fill="none" stroke-linecap="round"></path><path d="M 295.000,126.000 C 270.675,132.162 270.652,131.657 246.000,136.000" stroke-width="1.423" stroke="black" fill="none" stroke-linecap="round"></path><path d="M 246.000,136.000 C 225.540,138.826 225.675,139.162 205.000,140.000" stroke-width="1.525" stroke="black" fill="none" stroke-linecap="round"></path><path d="M 205.000,140.000 C 190.500,140.000 190.540,140.826 176.000,140.000" stroke-width="1.875" stroke="black" fill="none" stroke-linecap="round"></path><path d="M 176.000,140.000 C 164.178,142.224 168.500,140.000 161.000,140.000" stroke-width="2.536" stroke="black" fill="none" stroke-linecap="round"></path><path d="M 445.000,154.000 C 438.873,153.141 442.500,153.500 440.000,153.000" stroke-width="5.076" stroke="black" fill="none" stroke-linecap="round"></path><path d="M 440.000,153.000 C 446.500,153.000 442.873,152.641 453.000,153.000" stroke-width="3.588" stroke="black" fill="none" stroke-linecap="round"></path><path d="M 453.000,153.000 C 463.500,153.000 463.500,153.000 474.000,153.000" stroke-width="2.693" stroke="black" fill="none" stroke-linecap="round"></path><path d="M 474.000,153.000 C 488.620,154.370 488.500,153.000 503.000,153.000" stroke-width="2.292" stroke="black" fill="none" stroke-linecap="round"></path><path d="M 503.000,153.000 C 520.000,150.000 520.120,151.370 537.000,147.000" stroke-width="1.968" stroke="black" fill="none" stroke-linecap="round"></path><path d="M 537.000,147.000 C 553.938,143.585 554.000,144.000 571.000,141.000" stroke-width="1.888" stroke="black" fill="none" stroke-linecap="round"></path><path d="M 571.000,141.000 C 586.953,138.433 586.938,138.585 603.000,137.000" stroke-width="1.872" stroke="black" fill="none" stroke-linecap="round"></path><path d="M 603.000,137.000 C 615.006,136.615 614.953,135.933 627.000,136.000" stroke-width="2.171" stroke="black" fill="none" stroke-linecap="round"></path><path d="M 627.000,136.000 C 634.494,135.313 634.506,135.615 642.000,135.000" stroke-width="2.635" stroke="black" fill="none" stroke-linecap="round"></path><path d="M 642.000,135.000 C 647.808,133.404 646.494,134.813 651.000,135.000" stroke-width="3.287" stroke="black" fill="none" stroke-linecap="round"></path><path d="M 651.000,135.000 C 652.665,137.783 652.808,135.904 652.000,140.000" stroke-width="4.267" stroke="black" fill="none" stroke-linecap="round"></path><path d="M 652.000,140.000 C 648.228,142.260 651.165,142.783 648.000,145.000" stroke-width="4.089" stroke="black" fill="none" stroke-linecap="round"></path><path d="M 648.000,145.000 C 647.806,151.069 647.728,148.260 651.000,152.000" stroke-width="4.414" stroke="black" fill="none" stroke-linecap="round"></path><path d="M 651.000,152.000 C 661.500,152.000 659.806,154.569 672.000,152.000" stroke-width="2.889" stroke="black" fill="none" stroke-linecap="round"></path><path d="M 672.000,152.000 C 684.505,152.245 684.500,152.000 697.000,152.000" stroke-width="2.366" stroke="black" fill="none" stroke-linecap="round"></path><path d="M 697.000,152.000 C 709.996,151.283 710.005,151.745 723.000,151.000" stroke-width="2.319" stroke="black" fill="none" stroke-linecap="round"></path><path d="M 723.000,151.000 C 733.000,151.000 732.996,150.783 743.000,151.000" stroke-width="2.499" stroke="black" fill="none" stroke-linecap="round"></path><path d="M 743.000,151.000 C 755.705,150.437 748.000,151.000 753.000,151.000" stroke-width="3.103" stroke="black" fill="none" stroke-linecap="round"></path><path d="M 753.000,151.000 C 736.036,153.778 743.705,152.937 719.000,156.000" stroke-width="3.261" stroke="black" fill="none" stroke-linecap="round"></path><path d="M 719.000,156.000 C 701.559,158.860 701.536,158.278 684.000,160.000" stroke-width="2.108" stroke="black" fill="none" stroke-linecap="round"></path><path d="M 684.000,160.000 C 663.001,160.528 663.059,161.360 642.000,161.000" stroke-width="1.741" stroke="black" fill="none" stroke-linecap="round"></path><path d="M 642.000,161.000 C 618.503,161.758 618.501,161.528 595.000,162.000" stroke-width="1.510" stroke="black" fill="none" stroke-linecap="round"></path><path d="M 595.000,162.000 C 569.998,161.762 570.003,162.258 545.000,162.000" stroke-width="1.495" stroke="black" fill="none" stroke-linecap="round"></path><path d="M 545.000,162.000 C 517.423,161.271 517.498,162.262 490.000,163.000" stroke-width="1.374" stroke="black" fill="none" stroke-linecap="round"></path><path d="M 490.000,163.000 C 461.997,165.973 461.923,164.771 434.000,169.000" stroke-width="1.281" stroke="black" fill="none" stroke-linecap="round"></path><path d="M 434.000,169.000 C 406.441,171.537 406.497,171.973 379.000,175.000" stroke-width="1.309" stroke="black" fill="none" stroke-linecap="round"></path><path d="M 379.000,175.000 C 354.823,177.588 354.941,178.037 331.000,182.000" stroke-width="1.368" stroke="black" fill="none" stroke-linecap="round"></path><path d="M 331.000,182.000 C 314.345,185.460 314.323,185.088 298.000,190.000" stroke-width="1.688" stroke="black" fill="none" stroke-linecap="round"></path><path d="M 298.000,190.000 C 286.988,192.523 287.345,192.960 277.000,197.000" stroke-width="2.108" stroke="black" fill="none" stroke-linecap="round"></path><path d="M 277.000,197.000 C 270.579,199.526 272.488,199.023 269.000,203.000" stroke-width="2.942" stroke="black" fill="none" stroke-linecap="round"></path><path d="M 269.000,203.000 C 269.641,207.017 268.079,205.026 272.000,208.000" stroke-width="3.679" stroke="black" fill="none" stroke-linecap="round"></path><path d="M 272.000,208.000 C 276.507,207.805 275.641,209.517 281.000,208.000" stroke-width="3.775" stroke="black" fill="none" stroke-linecap="round"></path></svg>