<svg xmlns="http://www.w3.org/2000/svg" xmlns:xlink="http://www.w3.org/1999/xlink" viewBox="0 0 724 414" width="724" height="414"><path d="M 137.000,107.000 C 133.279,110.650 134.500,111.000 132.000,115.000" stroke-width="4.637" stroke="black" fill="none" stroke-linecap="round"></path><path d="M 132.000,115.000 C 133.067,119.731 130.779,119.150 132.000,124.000" stroke-width="3.921" stroke="black" fill="none" stroke-linecap="round"></path><path d="M 132.000,124.000 C 129.353,129.437 130.567,129.731 127.000,135.000" stroke-width="3.391" stroke="black" fill="none" stroke-linecap="round"></path><path d="M 127.000,135.000 C 123.864,142.449 123.853,142.437 121.000,150.000" stroke-width="3.019" stroke="black" fill="none" stroke-linecap="round"></path><path d="M 121.000,150.000 C 118.581,157.030 118.364,156.949 116.000,164.000" stroke-width="3.062" stroke="black" fill="none" stroke-linecap="round"></path><path d="M 116.000,164.000 C 113.199,170.402 113.581,170.530 111.000,177.000" stroke-width="3.083" stroke="black" fill="none" stroke-linecap="round"></path><path d="M 111.000,177.000 C 109.451,182.487 109.199,182.402 108.000,188.000" stroke-width="3.276" stroke="black" fill="none" stroke-linecap="round"></path><path d="M 108.000,188.000 C 107.132,192.038 106.951,191.987 106.000,196.000" stroke-width="3.775" stroke="black" fill="none" stroke-linecap="round"></path><path d="M 106.000,196.000 C 105.000,199.000 105.132,199.038 104.000,202.000" stroke-width="3.781" stroke="black" fill="none" stroke-linecap="round"></path><path d="M 104.000,202.000 C 101.008,208.661 103.000,205.000 102.000,208.000" stroke-width="4.407" stroke="black" fill="none" stroke-linecap="round"></path><path d="M 102.000,208.000 C 106.480,203.280 104.008,206.661 110.000,198.000" stroke-width="4.591" stroke="black" fill="none" stroke-linecap="round"></path><path d="M 110.000,198.000 C 110.728,195.362 111.480,195.780 112.000,193.000" stroke-width="4.443" stroke="black" fill="none" stroke-linecap="round"></path><path d="M 136.000,109.000 C 130.214,114.026 134.000,112.000 132.000,115.000" stroke-width="5.242" stroke="black" fill="none" stroke-linecap="round"></path><path d="M 132.000,115.000 C 139.500,115.000 135.714,117.026 147.000,115.000" stroke-width="4.227" stroke="black" fill="none" stroke-linecap="round"></path><path d="M 147.000,115.000 C 153.702,116.166 153.500,115.000 160.000,115.000" stroke-width="3.372" stroke="black" fill="none" stroke-linecap="round"></path><path d="M 160.000,115.000 C 166.950,112.350 167.202,113.666 174.000,110.000" stroke-width="3.163" stroke="black" fill="none" stroke-linecap="round"></path><path d="M 174.000,110.000 C 180.387,107.438 180.450,107.850 187.000,106.000" stroke-width="3.136" stroke="black" fill="none" stroke-linecap="round"></path><path d="M 187.000,106.000 C 191.990,105.295 191.887,104.938 197.000,105.000" stroke-width="3.405" stroke="black" fill="none" stroke-linecap="round"></path><path d="M 197.000,105.000 C 201.447,103.468 200.490,104.795 204.000,105.000" stroke-width="3.832" stroke="black" fill="none" stroke-linecap="round"></path><path d="M 114.000,152.000 C 120.000,152.000 120.000,152.000 126.000,152.000" stroke-width="4.963" stroke="black" fill="none" stroke-linecap="round"></path><path d="M 126.000,152.000 C 131.000,152.000 131.000,152.000 136.000,152.000" stroke-width="3.875" stroke="black" fill="none" stroke-linecap="round"></path><path d="M 136.000,152.000 C 141.017,152.277 141.000,152.000 146.000,152.000" stroke-width="3.635" stroke="black" fill="none" stroke-linecap="round"></path><path d="M 146.000,152.000 C 149.987,151.287 150.017,151.777 154.000,151.000" stroke-width="3.708" stroke="black" fill="none" stroke-linecap="round"></path><path d="M 154.000,151.000 C 157.016,150.770 156.987,150.787 160.000,151.000" stroke-width="4.012" stroke="black" fill="none" stroke-linecap="round"></path><path d="M 160.000,151.000 C 164.431,150.023 163.516,151.270 167.000,152.000" stroke-width="4.427" stroke="black" fill="none" stroke-linecap="round"></path><path d="M 177.000,174.000 C 176.251,178.988 176.500,179.000 176.000,184.000" stroke-width="5.052" stroke="black" fill="none" stroke-linecap="round"></path><path d="M 176.000,184.000 C 176.000,189.000 175.751,188.988 176.000,194.000" stroke-width="3.953" stroke="black" fill="none" stroke-linecap="round"></path><path d="M 176.000,194.000 C 176.000,198.500 176.000,198.500 176.000,203.000" stroke-width="3.756" stroke="black" fill="none" stroke-linecap="round"></path><path d="M 176.000,203.000 C 175.615,210.770 176.000,206.500 176.000,210.000" stroke-width="4.335" stroke="black" fill="none" stroke-linecap="round"></path><path d="M 176.000,210.000 C 176.405,204.317 176.615,208.770 178.000,199.000" stroke-width="4.635" stroke="black" fill="none" stroke-linecap="round"></path><path d="M 178.000,199.000 C 179.544,194.242 179.405,194.317 182.000,190.000" stroke-width="3.828" stroke="black" fill="none" stroke-linecap="round"></path><path d="M 182.000,190.000 C 184.877,184.397 185.044,184.742 189.000,180.000" stroke-width="3.358" stroke="black" fill="none" stroke-linecap="round"></path><path d="M 189.000,180.000 C 192.742,176.555 192.377,176.397 197.000,174.000" stroke-width="3.485" stroke="black" fill="none" stroke-linecap="round"></path><path d="M 197.000,174.000 C 200.399,172.200 200.242,172.055 204.000,171.000" stroke-width="3.800" stroke="black" fill="none" stroke-linecap="round"></path><path d="M 204.000,171.000 C 207.936,169.478 207.899,169.700 212.000,169.000" stroke-width="3.738" stroke="black" fill="none" stroke-linecap="round"></path><path d="M 212.000,169.000 C 216.640,168.231 216.436,168.478 221.000,169.000" stroke-width="4.172" stroke="black" fill="none" stroke-linecap="round"></path><path d="M 258.000,190.000 C 250.743,184.871 250.500,185.500 243.000,181.000" stroke-width="4.400" stroke="black" fill="none" stroke-linecap="round"></path><path d="M 243.000,181.000 C 240.514,180.419 240.743,179.871 238.000,180.000" stroke-width="4.424" stroke="black" fill="none" stroke-linecap="round"></path><path d="M 238.000,180.000 C 234.520,179.220 234.514,179.419 231.000,179.000" stroke-width="4.098" stroke="black" fill="none" stroke-linecap="round"></path><path d="M 231.000,179.000 C 226.297,178.141 226.520,178.720 222.000,179.000" stroke-width="3.736" stroke="black" fill="none" stroke-linecap="round"></path><path d="M 222.000,179.000 C 218.143,179.643 218.797,179.641 216.000,182.000" stroke-width="3.892" stroke="black" fill="none" stroke-linecap="round"></path><path d="M 216.000,182.000 C 212.000,186.125 213.143,185.143 212.000,190.000" stroke-width="4.251" stroke="black" fill="none" stroke-linecap="round"></path><path d="M 212.000,190.000 C 213.167,194.348 212.000,193.125 216.000,196.000" stroke-width="4.516" stroke="black" fill="none" stroke-linecap="round"></path><path d="M 216.000,196.000 C 219.983,196.777 219.167,197.848 224.000,197.000" stroke-width="3.944" stroke="black" fill="none" stroke-linecap="round"></path><path d="M 224.000,197.000 C 229.043,197.472 228.983,197.277 234.000,197.000" stroke-width="3.653" stroke="black" fill="none" stroke-linecap="round"></path><path d="M 234.000,197.000 C 239.722,196.667 239.543,196.472 245.000,195.000" stroke-width="3.467" stroke="black" fill="none" stroke-linecap="round"></path><path d="M 245.000,195.000 C 248.899,192.757 249.222,193.667 253.000,191.000" stroke-width="3.617" stroke="black" fill="none" stroke-linecap="round"></path><path d="M 253.000,191.000 C 257.045,187.631 255.899,189.757 259.000,189.000" stroke-width="3.898" stroke="black" fill="none" stroke-linecap="round"></path><path d="M 259.000,189.000 C 261.757,193.339 262.045,191.131 263.000,198.000" stroke-width="4.552" stroke="black" fill="none" stroke-linecap="round"></path><path d="M 263.000,198.000 C 263.000,201.000 263.757,200.839 263.000,204.000" stroke-width="4.313" stroke="black" fill="none" stroke-linecap="round"></path><path d="M 263.000,204.000 C 260.901,209.735 263.000,208.500 263.000,213.000" stroke-width="4.345" stroke="black" fill="none" stroke-linecap="round"></path><path d="M 263.000,213.000 C 267.684,215.226 265.401,216.735 272.000,218.000" stroke-width="4.326" stroke="black" fill="none" stroke-linecap="round"></path><path d="M 272.000,218.000 C 274.440,220.080 274.684,219.726 277.000,222.000" stroke-width="4.155" stroke="black" fill="none" stroke-linecap="round"></path><path d="M 277.000,222.000 C 280.532,224.457 280.440,224.580 284.000,227.000" stroke-width="3.852" stroke="black" fill="none" stroke-linecap="round"></path><path d="M 302.000,196.000 C 302.526,200.497 302.500,200.500 303.000,205.000" stroke-width="5.187" stroke="black" fill="none" stroke-linecap="round"></path><path d="M 303.000,205.000 C 303.413,210.011 303.526,209.997 304.000,215.000" stroke-width="3.839" stroke="black" fill="none" stroke-linecap="round"></path><path d="M 304.000,215.000 C 304.037,222.000 304.413,218.511 305.000,222.000" stroke-width="3.882" stroke="black" fill="none" stroke-linecap="round"></path><path d="M 305.000,222.000 C 306.735,218.585 306.037,222.000 308.000,215.000" stroke-width="4.641" stroke="black" fill="none" stroke-linecap="round"></path><path d="M 308.000,215.000 C 309.115,209.847 309.735,210.085 311.000,205.000" stroke-width="3.766" stroke="black" fill="none" stroke-linecap="round"></path><path d="M 311.000,205.000 C 312.389,200.560 312.615,200.847 315.000,197.000" stroke-width="3.710" stroke="black" fill="none" stroke-linecap="round"></path><path d="M 315.000,197.000 C 318.142,193.031 317.889,193.060 322.000,190.000" stroke-width="3.600" stroke="black" fill="none" stroke-linecap="round"></path><path d="M 322.000,190.000 C 325.322,187.576 325.142,187.531 329.000,186.000" stroke-width="3.697" stroke="black" fill="none" stroke-linecap="round"></path><path d="M 329.000,186.000 C 332.437,184.548 332.322,184.576 336.000,184.000" stroke-width="3.814" stroke="black" fill="none" stroke-linecap="round"></path><path d="M 336.000,184.000 C 340.175,182.175 338.937,183.548 342.000,184.000" stroke-width="4.004" stroke="black" fill="none" stroke-linecap="round"></path><path d="M 342.000,184.000 C 345.632,189.255 345.675,187.675 347.000,195.000" stroke-width="4.083" stroke="black" fill="none" stroke-linecap="round"></path><path d="M 347.000,195.000 C 347.495,200.049 348.132,199.755 347.000,205.000" stroke-width="3.627" stroke="black" fill="none" stroke-linecap="round"></path><path d="M 347.000,205.000 C 346.167,210.040 346.495,210.049 345.000,215.000" stroke-width="3.549" stroke="black" fill="none" stroke-linecap="round"></path><path d="M 345.000,215.000 C 342.347,222.218 344.167,218.540 343.000,222.000" stroke-width="3.813" stroke="black" fill="none" stroke-linecap="round"></path><path d="M 392.000,130.000 C 388.289,135.198 389.500,135.500 387.000,141.000" stroke-width="4.811" stroke="black" fill="none" stroke-linecap="round"></path><path d="M 387.000,141.000 C 386.485,148.999 385.289,148.698 386.000,157.000" stroke-width="3.210" stroke="black" fill="none" stroke-linecap="round"></path><path d="M 386.000,157.000 C 385.688,165.515 385.485,165.499 385.000,174.000" stroke-width="2.854" stroke="black" fill="none" stroke-linecap="round"></path><path d="M 385.000,174.000 C 384.345,184.048 384.188,184.015 383.000,194.000" stroke-width="2.655" stroke="black" fill="none" stroke-linecap="round"></path><path d="M 383.000,194.000 C 381.419,202.487 381.845,202.548 380.000,211.000" stroke-width="2.749" stroke="black" fill="none" stroke-linecap="round"></path><path d="M 380.000,211.000 C 378.815,217.477 378.919,217.487 378.000,224.000" stroke-width="2.977" stroke="black" fill="none" stroke-linecap="round"></path><path d="M 378.000,224.000 C 377.645,229.519 377.315,229.477 377.000,235.000" stroke-width="3.267" stroke="black" fill="none" stroke-linecap="round"></path><path d="M 377.000,235.000 C 376.377,241.754 376.645,238.019 376.000,241.000" stroke-width="3.834" stroke="black" fill="none" stroke-linecap="round"></path><path d="M 376.000,241.000 C 375.000,231.555 375.377,239.754 375.000,231.000" stroke-width="4.361" stroke="black" fill="none" stroke-linecap="round"></path><path d="M 376.000,202.000 C 379.577,198.081 380.000,199.000 384.000,196.000" stroke-width="5.219" stroke="black" fill="none" stroke-linecap="round"></path><path d="M 384.000,196.000 C 388.672,195.515 388.077,194.081 393.000,194.000" stroke-width="4.009" stroke="black" fill="none" stroke-linecap="round"></path><path d="M 393.000,194.000 C 398.651,191.791 398.672,192.015 404.000,189.000" stroke-width="3.410" stroke="black" fill="none" stroke-linecap="round"></path><path d="M 404.000,189.000 C 410.000,185.500 410.151,185.791 416.000,182.000" stroke-width="3.120" stroke="black" fill="none" stroke-linecap="round"></path><path d="M 416.000,182.000 C 421.905,178.325 422.000,178.500 428.000,175.000" stroke-width="3.103" stroke="black" fill="none" stroke-linecap="round"></path><path d="M 428.000,175.000 C 433.231,172.861 432.905,172.325 438.000,170.000" stroke-width="3.301" stroke="black" fill="none" stroke-linecap="round"></path><path d="M 438.000,170.000 C 443.258,167.033 440.731,168.361 443.000,166.000" stroke-width="3.814" stroke="black" fill="none" stroke-linecap="round"></path><path d="M 443.000,166.000 C 439.752,165.029 442.758,165.033 437.000,166.000" stroke-width="4.586" stroke="black" fill="none" stroke-linecap="round"></path><path d="M 437.000,166.000 C 431.438,168.892 431.252,168.029 426.000,172.000" stroke-width="3.551" stroke="black" fill="none" stroke-linecap="round"></path><path d="M 426.000,172.000 C 420.975,174.960 420.938,174.892 416.000,178.000" stroke-width="3.338" stroke="black" fill="none" stroke-linecap="round"></path><path d="M 416.000,178.000 C 411.734,180.145 411.975,180.460 408.000,183.000" stroke-width="3.529" stroke="black" fill="none" stroke-linecap="round"></path><path d="M 408.000,183.000 C 403.570,187.083 403.234,186.645 399.000,191.000" stroke-width="3.416" stroke="black" fill="none" stroke-linecap="round"></path><path d="M 399.000,191.000 C 393.624,192.744 396.570,193.083 394.000,195.000" stroke-width="3.898" stroke="black" fill="none" stroke-linecap="round"></path><path d="M 394.000,195.000 C 397.359,199.132 394.624,198.744 401.000,203.000" stroke-width="4.593" stroke="black" fill="none" stroke-linecap="round"></path><path d="M 401.000,203.000 C 405.500,207.500 405.359,207.632 410.000,212.000" stroke-width="3.463" stroke="black" fill="none" stroke-linecap="round"></path><path d="M 410.000,212.000 C 414.133,215.875 414.000,216.000 418.000,220.000" stroke-width="3.403" stroke="black" fill="none" stroke-linecap="round"></path><path d="M 418.000,220.000 C 421.397,224.097 421.633,223.875 425.000,228.000" stroke-width="3.495" stroke="black" fill="none" stroke-linecap="round"></path><path d="M 425.000,228.000 C 427.162,231.013 427.397,230.597 430.000,233.000" stroke-width="3.770" stroke="black" fill="none" stroke-linecap="round"></path></svg>