<svg xmlns="http://www.w3.org/2000/svg" xmlns:xlink="http://www.w3.org/1999/xlink" viewBox="0 0 724 414" width="724" height="414"><path d="M 123.000,102.000 C 122.318,104.978 122.500,105.000 122.000,108.000" stroke-width="5.207" stroke="black" fill="none" stroke-linecap="round"></path><path d="M 122.000,108.000 C 122.424,114.734 121.318,114.478 121.000,121.000" stroke-width="4.403" stroke="black" fill="none" stroke-linecap="round"></path><path d="M 121.000,121.000 C 119.200,125.600 119.924,125.734 117.000,130.000" stroke-width="3.778" stroke="black" fill="none" stroke-linecap="round"></path><path d="M 117.000,130.000 C 114.106,134.320 114.700,134.600 112.000,139.000" stroke-width="3.522" stroke="black" fill="none" stroke-linecap="round"></path><path d="M 112.000,139.000 C 110.214,144.587 109.606,144.320 108.000,150.000" stroke-width="3.386" stroke="black" fill="none" stroke-linecap="round"></path><path d="M 108.000,150.000 C 105.199,155.382 105.714,155.587 103.000,161.000" stroke-width="3.257" stroke="black" fill="none" stroke-linecap="round"></path><path d="M 103.000,161.000 C 100.770,166.933 100.699,166.882 99.000,173.000" stroke-width="3.175" stroke="black" fill="none" stroke-linecap="round"></path><path d="M 99.000,173.000 C 97.627,179.035 97.270,178.933 96.000,185.000" stroke-width="3.173" stroke="black" fill="none" stroke-linecap="round"></path><path d="M 96.000,185.000 C 94.129,189.922 94.627,190.035 93.000,195.000" stroke-width="3.331" stroke="black" fill="none" stroke-linecap="round"></path><path d="M 93.000,195.000 C 92.841,199.077 92.129,198.922 92.000,203.000" stroke-width="3.656" stroke="black" fill="none" stroke-linecap="round"></path><path d="M 92.000,203.000 C 91.080,206.029 91.341,206.077 90.000,209.000" stroke-width="3.911" stroke="black" fill="none" stroke-linecap="round"></path><path d="M 90.000,209.000 C 88.523,214.872 89.080,211.529 88.000,214.000" stroke-width="4.528" stroke="black" fill="none" stroke-linecap="round"></path><path d="M 101.000,114.000 C 105.389,111.814 105.500,112.500 110.000,111.000" stroke-width="4.481" stroke="black" fill="none" stroke-linecap="round"></path><path d="M 110.000,111.000 C 114.011,111.222 113.889,110.314 118.000,111.000" stroke-width="4.102" stroke="black" fill="none" stroke-linecap="round"></path><path d="M 118.000,111.000 C 123.059,110.859 123.011,110.722 128.000,110.000" stroke-width="3.626" stroke="black" fill="none" stroke-linecap="round"></path><path d="M 128.000,110.000 C 134.471,108.360 134.559,108.859 141.000,107.000" stroke-width="3.280" stroke="black" fill="none" stroke-linecap="round"></path><path d="M 141.000,107.000 C 146.475,105.829 146.471,105.860 152.000,105.000" stroke-width="3.302" stroke="black" fill="none" stroke-linecap="round"></path><path d="M 152.000,105.000 C 156.486,104.251 156.475,104.329 161.000,104.000" stroke-width="3.551" stroke="black" fill="none" stroke-linecap="round"></path><path d="M 161.000,104.000 C 165.500,104.000 165.486,103.751 170.000,104.000" stroke-width="3.585" stroke="black" fill="none" stroke-linecap="round"></path><path d="M 170.000,104.000 C 173.529,103.711 173.500,104.000 177.000,104.000" stroke-width="3.856" stroke="black" fill="none" stroke-linecap="round"></path><path d="M 177.000,104.000 C 180.134,103.600 179.529,104.211 182.000,105.000" stroke-width="4.174" stroke="black" fill="none" stroke-linecap="round"></path><path d="M 182.000,105.000 C 184.021,107.308 184.134,106.600 185.000,110.000" stroke-width="4.226" stroke="black" fill="none" stroke-linecap="round"></path><path d="M 185.000,110.000 C 186.245,113.058 186.021,112.808 186.000,116.000" stroke-width="4.120" stroke="black" fill="none" stroke-linecap="round"></path><path d="M 186.000,116.000 C 186.110,119.890 185.745,119.058 184.000,122.000" stroke-width="4.106" stroke="black" fill="none" stroke-linecap="round"></path><path d="M 184.000,122.000 C 179.167,125.313 180.110,125.890 174.000,128.000" stroke-width="3.470" stroke="black" fill="none" stroke-linecap="round"></path><path d="M 174.000,128.000 C 166.741,132.162 166.667,131.813 159.000,135.000" stroke-width="3.011" stroke="black" fill="none" stroke-linecap="round"></path><path d="M 159.000,135.000 C 151.529,137.118 151.741,137.662 144.000,139.000" stroke-width="2.900" stroke="black" fill="none" stroke-linecap="round"></path><path d="M 144.000,139.000 C 137.570,140.949 137.529,140.618 131.000,142.000" stroke-width="3.072" stroke="black" fill="none" stroke-linecap="round"></path><path d="M 131.000,142.000 C 124.996,142.455 125.070,142.949 119.000,143.000" stroke-width="3.223" stroke="black" fill="none" stroke-linecap="round"></path><path d="M 119.000,143.000 C 114.009,143.687 113.996,143.455 109.000,144.000" stroke-width="3.382" stroke="black" fill="none" stroke-linecap="round"></path><path d="M 109.000,144.000 C 102.153,144.678 106.009,144.187 103.000,144.000" stroke-width="4.241" stroke="black" fill="none" stroke-linecap="round"></path><path d="M 103.000,144.000 C 108.341,141.286 104.653,142.678 114.000,140.000" stroke-width="4.557" stroke="black" fill="none" stroke-linecap="round"></path><path d="M 114.000,140.000 C 119.489,139.251 119.341,138.786 125.000,139.000" stroke-width="3.688" stroke="black" fill="none" stroke-linecap="round"></path><path d="M 125.000,139.000 C 130.511,138.751 130.489,138.751 136.000,139.000" stroke-width="3.493" stroke="black" fill="none" stroke-linecap="round"></path><path d="M 136.000,139.000 C 141.602,138.972 141.511,139.251 147.000,140.000" stroke-width="3.488" stroke="black" fill="none" stroke-linecap="round"></path><path d="M 147.000,140.000 C 152.272,140.899 152.102,140.972 157.000,143.000" stroke-width="3.486" stroke="black" fill="none" stroke-linecap="round"></path><path d="M 157.000,143.000 C 161.315,145.104 161.272,144.899 165.000,148.000" stroke-width="3.627" stroke="black" fill="none" stroke-linecap="round"></path><path d="M 165.000,148.000 C 168.436,150.667 168.315,150.604 171.000,154.000" stroke-width="3.806" stroke="black" fill="none" stroke-linecap="round"></path><path d="M 171.000,154.000 C 176.851,158.437 173.436,157.167 175.000,161.000" stroke-width="4.280" stroke="black" fill="none" stroke-linecap="round"></path><path d="M 175.000,161.000 C 166.648,166.749 170.351,167.437 158.000,172.000" stroke-width="3.722" stroke="black" fill="none" stroke-linecap="round"></path><path d="M 158.000,172.000 C 152.601,175.200 152.648,175.249 147.000,178.000" stroke-width="3.429" stroke="black" fill="none" stroke-linecap="round"></path><path d="M 147.000,178.000 C 139.551,181.615 139.601,181.700 132.000,185.000" stroke-width="2.935" stroke="black" fill="none" stroke-linecap="round"></path><path d="M 132.000,185.000 C 125.102,188.268 125.051,188.115 118.000,191.000" stroke-width="2.898" stroke="black" fill="none" stroke-linecap="round"></path><path d="M 118.000,191.000 C 112.117,193.471 112.102,193.268 106.000,195.000" stroke-width="3.119" stroke="black" fill="none" stroke-linecap="round"></path><path d="M 106.000,195.000 C 100.019,196.140 100.117,196.471 94.000,197.000" stroke-width="3.229" stroke="black" fill="none" stroke-linecap="round"></path><path d="M 94.000,197.000 C 89.512,197.718 89.519,197.640 85.000,198.000" stroke-width="3.475" stroke="black" fill="none" stroke-linecap="round"></path><path d="M 85.000,198.000 C 81.500,198.000 81.512,198.218 78.000,198.000" stroke-width="3.817" stroke="black" fill="none" stroke-linecap="round"></path><path d="M 78.000,198.000 C 73.500,198.000 73.500,198.000 69.000,198.000" stroke-width="4.220" stroke="black" fill="none" stroke-linecap="round"></path><path d="M 69.000,198.000 C 65.319,197.234 65.500,198.000 62.000,198.000" stroke-width="4.506" stroke="black" fill="none" stroke-linecap="round"></path><path d="M 220.000,160.000 C 215.080,157.953 215.000,158.500 210.000,157.000" stroke-width="4.605" stroke="black" fill="none" stroke-linecap="round"></path><path d="M 210.000,157.000 C 206.607,155.914 207.080,156.453 204.000,157.000" stroke-width="4.282" stroke="black" fill="none" stroke-linecap="round"></path><path d="M 204.000,157.000 C 200.981,159.478 200.607,158.414 198.000,162.000" stroke-width="3.918" stroke="black" fill="none" stroke-linecap="round"></path><path d="M 198.000,162.000 C 194.376,164.866 194.481,164.978 191.000,168.000" stroke-width="3.724" stroke="black" fill="none" stroke-linecap="round"></path><path d="M 191.000,168.000 C 187.375,171.383 187.376,171.366 184.000,175.000" stroke-width="3.604" stroke="black" fill="none" stroke-linecap="round"></path><path d="M 184.000,175.000 C 179.987,178.655 180.375,178.883 177.000,183.000" stroke-width="3.503" stroke="black" fill="none" stroke-linecap="round"></path><path d="M 177.000,183.000 C 174.654,186.865 174.487,186.655 173.000,191.000" stroke-width="3.576" stroke="black" fill="none" stroke-linecap="round"></path><path d="M 173.000,191.000 C 171.548,194.437 171.654,194.365 171.000,198.000" stroke-width="3.822" stroke="black" fill="none" stroke-linecap="round"></path><path d="M 171.000,198.000 C 169.914,201.393 170.548,200.937 171.000,204.000" stroke-width="4.051" stroke="black" fill="none" stroke-linecap="round"></path><path d="M 171.000,204.000 C 172.720,208.469 172.414,207.393 176.000,210.000" stroke-width="3.911" stroke="black" fill="none" stroke-linecap="round"></path><path d="M 176.000,210.000 C 180.987,210.761 180.220,211.969 186.000,211.000" stroke-width="3.580" stroke="black" fill="none" stroke-linecap="round"></path><path d="M 186.000,211.000 C 191.858,212.402 191.487,211.261 197.000,211.000" stroke-width="3.463" stroke="black" fill="none" stroke-linecap="round"></path><path d="M 197.000,211.000 C 202.717,208.337 202.858,209.402 208.000,205.000" stroke-width="3.303" stroke="black" fill="none" stroke-linecap="round"></path><path d="M 208.000,205.000 C 212.678,202.599 212.217,202.337 216.000,199.000" stroke-width="3.412" stroke="black" fill="none" stroke-linecap="round"></path><path d="M 216.000,199.000 C 218.750,195.750 218.678,196.099 220.000,192.000" stroke-width="3.685" stroke="black" fill="none" stroke-linecap="round"></path><path d="M 220.000,192.000 C 220.713,188.013 221.250,188.250 221.000,184.000" stroke-width="3.775" stroke="black" fill="none" stroke-linecap="round"></path><path d="M 221.000,184.000 C 222.148,180.525 221.213,181.013 221.000,178.000" stroke-width="3.991" stroke="black" fill="none" stroke-linecap="round"></path><path d="M 221.000,178.000 C 218.956,174.725 219.648,175.025 216.000,173.000" stroke-width="3.978" stroke="black" fill="none" stroke-linecap="round"></path><path d="M 216.000,173.000 C 212.559,171.712 212.956,171.225 209.000,171.000" stroke-width="3.950" stroke="black" fill="none" stroke-linecap="round"></path><path d="M 209.000,171.000 C 205.014,170.268 205.059,170.212 201.000,170.000" stroke-width="3.801" stroke="black" fill="none" stroke-linecap="round"></path><path d="M 201.000,170.000 C 197.273,169.182 197.514,169.768 194.000,170.000" stroke-width="3.972" stroke="black" fill="none" stroke-linecap="round"></path><path d="M 270.000,107.000 C 266.660,109.030 268.000,109.500 266.000,112.000" stroke-width="5.171" stroke="black" fill="none" stroke-linecap="round"></path><path d="M 266.000,112.000 C 266.270,118.512 264.660,118.030 266.000,125.000" stroke-width="4.347" stroke="black" fill="none" stroke-linecap="round"></path><path d="M 266.000,125.000 C 265.808,130.543 265.770,130.512 265.000,136.000" stroke-width="3.706" stroke="black" fill="none" stroke-linecap="round"></path><path d="M 265.000,136.000 C 263.383,143.980 263.808,144.043 262.000,152.000" stroke-width="3.145" stroke="black" fill="none" stroke-linecap="round"></path><path d="M 262.000,152.000 C 261.241,158.546 260.883,158.480 260.000,165.000" stroke-width="3.163" stroke="black" fill="none" stroke-linecap="round"></path><path d="M 260.000,165.000 C 258.308,171.462 258.741,171.546 257.000,178.000" stroke-width="3.210" stroke="black" fill="none" stroke-linecap="round"></path><path d="M 257.000,178.000 C 256.138,184.027 255.808,183.962 255.000,190.000" stroke-width="3.200" stroke="black" fill="none" stroke-linecap="round"></path><path d="M 255.000,190.000 C 254.172,194.545 254.138,194.527 253.000,199.000" stroke-width="3.590" stroke="black" fill="none" stroke-linecap="round"></path><path d="M 253.000,199.000 C 251.473,203.992 251.672,204.045 250.000,209.000" stroke-width="3.516" stroke="black" fill="none" stroke-linecap="round"></path><path d="M 250.000,209.000 C 249.388,212.668 248.973,212.492 248.000,216.000" stroke-width="3.845" stroke="black" fill="none" stroke-linecap="round"></path><path d="M 248.000,216.000 C 246.067,221.000 246.888,218.668 245.000,221.000" stroke-width="4.079" stroke="black" fill="none" stroke-linecap="round"></path><path d="M 245.000,221.000 C 244.211,218.529 244.067,221.000 244.000,216.000" stroke-width="4.777" stroke="black" fill="none" stroke-linecap="round"></path><path d="M 244.000,216.000 C 244.000,212.500 243.711,212.529 244.000,209.000" stroke-width="4.138" stroke="black" fill="none" stroke-linecap="round"></path><path d="M 244.000,209.000 C 242.955,205.134 244.000,205.500 244.000,202.000" stroke-width="3.978" stroke="black" fill="none" stroke-linecap="round"></path><path d="M 244.000,202.000 C 245.862,199.376 244.955,199.134 248.000,197.000" stroke-width="4.053" stroke="black" fill="none" stroke-linecap="round"></path><path d="M 248.000,197.000 C 250.500,194.500 250.362,194.376 253.000,192.000" stroke-width="3.996" stroke="black" fill="none" stroke-linecap="round"></path><path d="M 253.000,192.000 C 255.885,188.876 256.000,189.000 259.000,186.000" stroke-width="3.766" stroke="black" fill="none" stroke-linecap="round"></path><path d="M 259.000,186.000 C 262.293,182.718 262.385,182.876 266.000,180.000" stroke-width="3.682" stroke="black" fill="none" stroke-linecap="round"></path><path d="M 266.000,180.000 C 269.956,177.426 269.793,177.218 274.000,175.000" stroke-width="3.580" stroke="black" fill="none" stroke-linecap="round"></path><path d="M 274.000,175.000 C 277.271,172.332 277.456,172.926 281.000,171.000" stroke-width="3.742" stroke="black" fill="none" stroke-linecap="round"></path><path d="M 281.000,171.000 C 284.689,169.338 284.271,169.832 288.000,170.000" stroke-width="3.852" stroke="black" fill="none" stroke-linecap="round"></path><path d="M 288.000,170.000 C 293.764,170.770 292.189,170.838 296.000,174.000" stroke-width="4.236" stroke="black" fill="none" stroke-linecap="round"></path><path d="M 296.000,174.000 C 296.762,178.485 298.264,177.270 297.000,183.000" stroke-width="3.764" stroke="black" fill="none" stroke-linecap="round"></path><path d="M 297.000,183.000 C 298.286,188.369 297.262,187.985 297.000,193.000" stroke-width="3.605" stroke="black" fill="none" stroke-linecap="round"></path><path d="M 297.000,193.000 C 295.056,197.474 295.786,197.369 292.000,201.000" stroke-width="3.614" stroke="black" fill="none" stroke-linecap="round"></path><path d="M 292.000,201.000 C 288.345,205.013 288.556,204.974 284.000,208.000" stroke-width="3.505" stroke="black" fill="none" stroke-linecap="round"></path><path d="M 284.000,208.000 C 280.224,210.758 280.345,210.513 276.000,212.000" stroke-width="3.577" stroke="black" fill="none" stroke-linecap="round"></path><path d="M 276.000,212.000 C 271.497,213.000 271.724,213.258 267.000,213.000" stroke-width="3.642" stroke="black" fill="none" stroke-linecap="round"></path><path d="M 267.000,213.000 C 262.450,213.725 262.997,213.000 259.000,212.000" stroke-width="3.762" stroke="black" fill="none" stroke-linecap="round"></path><path d="M 259.000,212.000 C 255.057,208.432 254.450,209.725 251.000,205.000" stroke-width="3.546" stroke="black" fill="none" stroke-linecap="round"></path><path d="M 450.000,138.000 C 448.500,135.000 448.500,135.000 447.000,132.000" stroke-width="5.294" stroke="black" fill="none" stroke-linecap="round"></path><path d="M 447.000,132.000 C 446.316,128.059 445.500,129.000 444.000,126.000" stroke-width="4.895" stroke="black" fill="none" stroke-linecap="round"></path><path d="M 444.000,126.000 C 441.077,124.659 441.816,124.059 438.000,124.000" stroke-width="4.257" stroke="black" fill="none" stroke-linecap="round"></path><path d="M 438.000,124.000 C 434.018,123.211 434.077,123.159 430.000,123.000" stroke-width="3.989" stroke="black" fill="none" stroke-linecap="round"></path><path d="M 430.000,123.000 C 424.349,122.070 424.518,122.711 419.000,123.000" stroke-width="3.506" stroke="black" fill="none" stroke-linecap="round"></path><path d="M 419.000,123.000 C 412.664,124.281 412.849,124.070 407.000,127.000" stroke-width="3.305" stroke="black" fill="none" stroke-linecap="round"></path><path d="M 407.000,127.000 C 400.305,130.713 400.164,130.281 394.000,135.000" stroke-width="3.058" stroke="black" fill="none" stroke-linecap="round"></path><path d="M 394.000,135.000 C 387.535,138.992 387.805,139.213 382.000,144.000" stroke-width="3.009" stroke="black" fill="none" stroke-linecap="round"></path><path d="M 382.000,144.000 C 377.194,148.757 377.035,148.492 373.000,154.000" stroke-width="3.100" stroke="black" fill="none" stroke-linecap="round"></path><path d="M 373.000,154.000 C 369.044,158.742 369.194,158.757 366.000,164.000" stroke-width="3.220" stroke="black" fill="none" stroke-linecap="round"></path><path d="M 366.000,164.000 C 363.550,168.351 363.544,168.242 362.000,173.000" stroke-width="3.452" stroke="black" fill="none" stroke-linecap="round"></path><path d="M 362.000,173.000 C 360.480,177.443 360.550,177.351 360.000,182.000" stroke-width="3.586" stroke="black" fill="none" stroke-linecap="round"></path><path d="M 360.000,182.000 C 359.452,187.067 359.480,186.943 360.000,192.000" stroke-width="3.555" stroke="black" fill="none" stroke-linecap="round"></path><path d="M 360.000,192.000 C 359.946,196.662 360.452,196.067 362.000,200.000" stroke-width="3.715" stroke="black" fill="none" stroke-linecap="round"></path><path d="M 362.000,200.000 C 364.657,203.090 363.946,203.162 368.000,205.000" stroke-width="3.811" stroke="black" fill="none" stroke-linecap="round"></path><path d="M 368.000,205.000 C 371.853,207.309 371.657,207.090 376.000,208.000" stroke-width="3.901" stroke="black" fill="none" stroke-linecap="round"></path><path d="M 376.000,208.000 C 381.000,208.000 380.853,208.809 386.000,208.000" stroke-width="3.642" stroke="black" fill="none" stroke-linecap="round"></path><path d="M 386.000,208.000 C 390.640,208.769 390.500,208.000 395.000,208.000" stroke-width="3.613" stroke="black" fill="none" stroke-linecap="round"></path><path d="M 395.000,208.000 C 399.035,206.586 399.140,207.269 403.000,205.000" stroke-width="3.703" stroke="black" fill="none" stroke-linecap="round"></path><path d="M 403.000,205.000 C 406.661,203.798 406.535,203.586 410.000,202.000" stroke-width="3.778" stroke="black" fill="none" stroke-linecap="round"></path><path d="M 470.000,195.000 C 466.565,189.997 466.000,191.500 462.000,188.000" stroke-width="5.091" stroke="black" fill="none" stroke-linecap="round"></path><path d="M 462.000,188.000 C 457.984,187.751 458.565,186.497 454.000,188.000" stroke-width="4.721" stroke="black" fill="none" stroke-linecap="round"></path><path d="M 454.000,188.000 C 449.679,187.569 449.984,188.251 446.000,189.000" stroke-width="4.048" stroke="black" fill="none" stroke-linecap="round"></path><path d="M 446.000,189.000 C 440.674,191.556 440.679,191.069 436.000,195.000" stroke-width="3.522" stroke="black" fill="none" stroke-linecap="round"></path><path d="M 436.000,195.000 C 431.382,198.875 431.174,198.556 427.000,203.000" stroke-width="3.414" stroke="black" fill="none" stroke-linecap="round"></path><path d="M 427.000,203.000 C 422.664,206.725 422.882,206.875 419.000,211.000" stroke-width="3.388" stroke="black" fill="none" stroke-linecap="round"></path><path d="M 419.000,211.000 C 416.598,213.804 416.664,213.725 415.000,217.000" stroke-width="3.717" stroke="black" fill="none" stroke-linecap="round"></path><path d="M 415.000,217.000 C 411.698,221.264 413.598,219.804 413.000,223.000" stroke-width="4.393" stroke="black" fill="none" stroke-linecap="round"></path><path d="M 413.000,223.000 C 416.939,224.492 414.698,225.264 421.000,225.000" stroke-width="4.468" stroke="black" fill="none" stroke-linecap="round"></path><path d="M 421.000,225.000 C 425.329,226.147 424.939,225.492 429.000,225.000" stroke-width="3.997" stroke="black" fill="none" stroke-linecap="round"></path><path d="M 429.000,225.000 C 433.340,222.928 433.329,223.647 437.000,220.000" stroke-width="3.778" stroke="black" fill="none" stroke-linecap="round"></path><path d="M 437.000,220.000 C 441.049,216.934 440.840,216.928 444.000,213.000" stroke-width="3.722" stroke="black" fill="none" stroke-linecap="round"></path><path d="M 444.000,213.000 C 448.465,206.717 448.549,206.934 452.000,200.000" stroke-width="3.089" stroke="black" fill="none" stroke-linecap="round"></path><path d="M 452.000,200.000 C 453.235,194.000 453.465,197.217 454.000,194.000" stroke-width="4.097" stroke="black" fill="none" stroke-linecap="round"></path><path d="M 454.000,194.000 C 454.440,197.011 454.735,194.000 455.000,200.000" stroke-width="4.889" stroke="black" fill="none" stroke-linecap="round"></path><path d="M 455.000,200.000 C 455.691,205.092 455.940,205.011 457.000,210.000" stroke-width="4.482" stroke="black" fill="none" stroke-linecap="round"></path><path d="M 457.000,210.000 C 457.887,212.551 457.691,212.592 459.000,215.000" stroke-width="4.287" stroke="black" fill="none" stroke-linecap="round"></path><path d="M 459.000,215.000 C 459.953,218.442 460.387,218.051 462.000,221.000" stroke-width="4.581" stroke="black" fill="none" stroke-linecap="round"></path><path d="M 496.000,185.000 C 496.000,188.000 496.000,188.000 496.000,191.000" stroke-width="5.341" stroke="black" fill="none" stroke-linecap="round"></path><path d="M 496.000,191.000 C 496.000,195.000 496.000,195.000 496.000,199.000" stroke-width="4.783" stroke="black" fill="none" stroke-linecap="round"></path><path d="M 496.000,199.000 C 496.000,202.000 496.000,202.000 496.000,205.000" stroke-width="4.277" stroke="black" fill="none" stroke-linecap="round"></path><path d="M 496.000,205.000 C 496.284,209.024 496.000,209.000 496.000,213.000" stroke-width="4.002" stroke="black" fill="none" stroke-linecap="round"></path><path d="M 496.000,213.000 C 495.796,216.083 495.784,216.024 495.000,219.000" stroke-width="4.099" stroke="black" fill="none" stroke-linecap="round"></path><path d="M 495.000,219.000 C 494.370,221.716 494.296,221.583 493.000,224.000" stroke-width="4.258" stroke="black" fill="none" stroke-linecap="round"></path><path d="M 493.000,224.000 C 489.955,229.478 491.370,226.716 489.000,229.000" stroke-width="4.565" stroke="black" fill="none" stroke-linecap="round"></path><path d="M 489.000,229.000 C 489.194,225.491 487.955,228.478 489.000,222.000" stroke-width="4.854" stroke="black" fill="none" stroke-linecap="round"></path><path d="M 489.000,222.000 C 488.276,216.510 488.694,216.491 488.000,211.000" stroke-width="4.412" stroke="black" fill="none" stroke-linecap="round"></path><path d="M 488.000,211.000 C 487.141,206.297 487.776,206.510 488.000,202.000" stroke-width="4.397" stroke="black" fill="none" stroke-linecap="round"></path><path d="M 488.000,202.000 C 488.894,198.527 488.641,198.797 491.000,196.000" stroke-width="4.588" stroke="black" fill="none" stroke-linecap="round"></path><path d="M 491.000,196.000 C 494.459,192.951 493.894,192.527 498.000,190.000" stroke-width="4.473" stroke="black" fill="none" stroke-linecap="round"></path><path d="M 498.000,190.000 C 500.179,186.769 500.459,187.951 503.000,186.000" stroke-width="4.820" stroke="black" fill="none" stroke-linecap="round"></path><path d="M 503.000,186.000 C 507.096,185.368 505.679,185.269 509.000,187.000" stroke-width="5.255" stroke="black" fill="none" stroke-linecap="round"></path><path d="M 509.000,187.000 C 509.500,189.500 510.596,188.368 510.000,192.000" stroke-width="5.326" stroke="black" fill="none" stroke-linecap="round"></path><path d="M 574.000,118.000 C 572.387,120.901 573.000,121.000 572.000,124.000" stroke-width="5.286" stroke="black" fill="none" stroke-linecap="round"></path><path d="M 572.000,124.000 C 572.249,129.012 571.387,128.901 572.000,134.000" stroke-width="4.591" stroke="black" fill="none" stroke-linecap="round"></path><path d="M 572.000,134.000 C 572.107,139.130 571.749,139.012 571.000,144.000" stroke-width="3.857" stroke="black" fill="none" stroke-linecap="round"></path><path d="M 571.000,144.000 C 568.917,149.974 569.607,150.130 567.000,156.000" stroke-width="3.392" stroke="black" fill="none" stroke-linecap="round"></path><path d="M 567.000,156.000 C 565.500,161.000 565.417,160.974 564.000,166.000" stroke-width="3.456" stroke="black" fill="none" stroke-linecap="round"></path><path d="M 564.000,166.000 C 562.650,171.051 562.500,171.000 561.000,176.000" stroke-width="3.476" stroke="black" fill="none" stroke-linecap="round"></path><path d="M 561.000,176.000 C 559.272,179.929 559.650,180.051 558.000,184.000" stroke-width="3.659" stroke="black" fill="none" stroke-linecap="round"></path><path d="M 558.000,184.000 C 557.132,188.038 556.772,187.929 556.000,192.000" stroke-width="3.840" stroke="black" fill="none" stroke-linecap="round"></path><path d="M 556.000,192.000 C 554.830,194.955 555.132,195.038 554.000,198.000" stroke-width="4.018" stroke="black" fill="none" stroke-linecap="round"></path><path d="M 554.000,198.000 C 553.573,200.516 553.330,200.455 553.000,203.000" stroke-width="4.230" stroke="black" fill="none" stroke-linecap="round"></path><path d="M 553.000,203.000 C 552.464,207.192 552.073,207.016 551.000,211.000" stroke-width="4.433" stroke="black" fill="none" stroke-linecap="round"></path><path d="M 605.000,170.000 C 599.500,170.000 599.500,170.000 594.000,170.000" stroke-width="4.771" stroke="black" fill="none" stroke-linecap="round"></path><path d="M 594.000,170.000 C 590.500,170.000 590.500,170.000 587.000,170.000" stroke-width="4.136" stroke="black" fill="none" stroke-linecap="round"></path><path d="M 587.000,170.000 C 581.500,170.000 581.500,170.000 576.000,170.000" stroke-width="3.539" stroke="black" fill="none" stroke-linecap="round"></path><path d="M 576.000,170.000 C 570.500,170.000 570.500,170.000 565.000,170.000" stroke-width="3.452" stroke="black" fill="none" stroke-linecap="round"></path><path d="M 565.000,170.000 C 559.000,170.000 559.000,170.000 553.000,170.000" stroke-width="3.342" stroke="black" fill="none" stroke-linecap="round"></path><path d="M 553.000,170.000 C 547.000,170.000 547.000,170.000 541.000,170.000" stroke-width="3.311" stroke="black" fill="none" stroke-linecap="round"></path><path d="M 541.000,170.000 C 534.500,170.000 534.500,170.000 528.000,170.000" stroke-width="3.163" stroke="black" fill="none" stroke-linecap="round"></path><path d="M 528.000,170.000 C 522.933,169.452 523.000,170.000 518.000,170.000" stroke-width="3.419" stroke="black" fill="none" stroke-linecap="round"></path><path d="M 518.000,170.000 C 514.028,171.137 513.933,170.452 510.000,172.000" stroke-width="3.669" stroke="black" fill="none" stroke-linecap="round"></path><path d="M 591.000,204.000 C 595.540,204.446 595.500,204.000 600.000,204.000" stroke-width="5.264" stroke="black" fill="none" stroke-linecap="round"></path><path d="M 600.000,204.000 C 605.647,203.487 605.540,203.446 611.000,202.000" stroke-width="4.497" stroke="black" fill="none" stroke-linecap="round"></path><path d="M 611.000,202.000 C 614.661,200.798 614.647,200.987 618.000,199.000" stroke-width="4.050" stroke="black" fill="none" stroke-linecap="round"></path><path d="M 618.000,199.000 C 621.352,197.384 621.161,197.298 624.000,195.000" stroke-width="3.928" stroke="black" fill="none" stroke-linecap="round"></path><path d="M 624.000,195.000 C 626.370,192.716 626.352,192.884 628.000,190.000" stroke-width="3.990" stroke="black" fill="none" stroke-linecap="round"></path><path d="M 628.000,190.000 C 629.814,187.610 629.370,187.716 630.000,185.000" stroke-width="4.222" stroke="black" fill="none" stroke-linecap="round"></path><path d="M 630.000,185.000 C 631.173,179.259 630.314,180.610 629.000,176.000" stroke-width="4.354" stroke="black" fill="none" stroke-linecap="round"></path><path d="M 629.000,176.000 C 625.667,173.688 627.173,173.259 622.000,173.000" stroke-width="3.959" stroke="black" fill="none" stroke-linecap="round"></path><path d="M 622.000,173.000 C 617.381,172.270 617.667,172.188 613.000,173.000" stroke-width="3.758" stroke="black" fill="none" stroke-linecap="round"></path><path d="M 613.000,173.000 C 608.087,173.729 608.381,173.770 604.000,176.000" stroke-width="3.706" stroke="black" fill="none" stroke-linecap="round"></path><path d="M 604.000,176.000 C 598.849,178.895 599.087,178.729 595.000,183.000" stroke-width="3.400" stroke="black" fill="none" stroke-linecap="round"></path><path d="M 595.000,183.000 C 591.737,187.347 591.349,186.895 589.000,192.000" stroke-width="3.426" stroke="black" fill="none" stroke-linecap="round"></path><path d="M 589.000,192.000 C 586.873,195.943 586.737,195.847 585.000,200.000" stroke-width="3.604" stroke="black" fill="none" stroke-linecap="round"></path><path d="M 585.000,200.000 C 583.350,202.375 583.873,202.443 583.000,205.000" stroke-width="4.007" stroke="black" fill="none" stroke-linecap="round"></path><path d="M 583.000,205.000 C 581.421,210.894 582.350,209.875 583.000,215.000" stroke-width="4.219" stroke="black" fill="none" stroke-linecap="round"></path><path d="M 583.000,215.000 C 585.288,217.031 583.921,217.394 588.000,218.000" stroke-width="4.198" stroke="black" fill="none" stroke-linecap="round"></path><path d="M 588.000,218.000 C 592.460,219.243 592.288,219.531 597.000,220.000" stroke-width="3.737" stroke="black" fill="none" stroke-linecap="round"></path><path d="M 597.000,220.000 C 601.485,220.762 601.460,220.743 606.000,221.000" stroke-width="3.787" stroke="black" fill="none" stroke-linecap="round"></path><path d="M 606.000,221.000 C 611.000,221.000 610.985,221.262 616.000,221.000" stroke-width="3.553" stroke="black" fill="none" stroke-linecap="round"></path><path d="M 616.000,221.000 C 620.525,221.298 620.500,221.000 625.000,221.000" stroke-width="3.640" stroke="black" fill="none" stroke-linecap="round"></path><path d="M 625.000,221.000 C 628.147,220.951 628.025,220.798 631.000,220.000" stroke-width="3.934" stroke="black" fill="none" stroke-linecap="round"></path><path d="M 631.000,220.000 C 635.296,219.434 634.147,218.951 637.000,217.000" stroke-width="4.439" stroke="black" fill="none" stroke-linecap="round"></path><path d="M 660.000,182.000 C 660.472,187.043 660.000,187.000 660.000,192.000" stroke-width="5.250" stroke="black" fill="none" stroke-linecap="round"></path><path d="M 660.000,192.000 C 659.487,197.647 659.472,197.543 658.000,203.000" stroke-width="4.469" stroke="black" fill="none" stroke-linecap="round"></path><path d="M 658.000,203.000 C 656.464,206.485 656.987,206.647 655.000,210.000" stroke-width="4.043" stroke="black" fill="none" stroke-linecap="round"></path><path d="M 655.000,210.000 C 653.257,215.000 653.964,212.485 653.000,215.000" stroke-width="4.158" stroke="black" fill="none" stroke-linecap="round"></path><path d="M 653.000,215.000 C 653.092,212.360 652.757,215.000 654.000,210.000" stroke-width="4.929" stroke="black" fill="none" stroke-linecap="round"></path><path d="M 654.000,210.000 C 655.706,205.823 655.592,205.860 658.000,202.000" stroke-width="3.987" stroke="black" fill="none" stroke-linecap="round"></path><path d="M 658.000,202.000 C 660.231,198.272 660.206,198.323 663.000,195.000" stroke-width="3.751" stroke="black" fill="none" stroke-linecap="round"></path><path d="M 663.000,195.000 C 665.876,191.864 665.731,191.772 669.000,189.000" stroke-width="3.698" stroke="black" fill="none" stroke-linecap="round"></path><path d="M 669.000,189.000 C 671.851,186.290 671.876,186.364 675.000,184.000" stroke-width="3.853" stroke="black" fill="none" stroke-linecap="round"></path><path d="M 675.000,184.000 C 677.332,182.112 677.351,182.290 680.000,181.000" stroke-width="4.082" stroke="black" fill="none" stroke-linecap="round"></path><path d="M 680.000,181.000 C 684.224,178.167 683.332,179.612 687.000,179.000" stroke-width="4.420" stroke="black" fill="none" stroke-linecap="round"></path><path d="M 687.000,179.000 C 689.448,181.238 689.224,179.667 690.000,184.000" stroke-width="4.974" stroke="black" fill="none" stroke-linecap="round"></path><path d="M 690.000,184.000 C 690.613,189.099 690.948,188.738 690.000,194.000" stroke-width="4.517" stroke="black" fill="none" stroke-linecap="round"></path></svg>