<svg xmlns="http://www.w3.org/2000/svg" xmlns:xlink="http://www.w3.org/1999/xlink" viewBox="0 0 724 414" width="724" height="414"><path d="M 152.000,74.000 C 151.253,76.467 151.500,76.500 151.000,79.000" stroke-width="5.104" stroke="black" fill="none" stroke-linecap="round"></path><path d="M 151.000,79.000 C 151.557,86.733 150.253,86.467 150.000,94.000" stroke-width="4.225" stroke="black" fill="none" stroke-linecap="round"></path><path d="M 150.000,94.000 C 147.662,100.567 148.557,100.733 145.000,107.000" stroke-width="3.362" stroke="black" fill="none" stroke-linecap="round"></path><path d="M 145.000,107.000 C 141.997,115.256 141.662,115.067 138.000,123.000" stroke-width="2.861" stroke="black" fill="none" stroke-linecap="round"></path><path d="M 138.000,123.000 C 133.098,130.286 133.997,130.756 129.000,138.000" stroke-width="2.855" stroke="black" fill="none" stroke-linecap="round"></path><path d="M 129.000,138.000 C 124.866,146.440 124.598,146.286 121.000,155.000" stroke-width="2.782" stroke="black" fill="none" stroke-linecap="round"></path><path d="M 121.000,155.000 C 117.967,161.986 117.866,161.940 115.000,169.000" stroke-width="2.851" stroke="black" fill="none" stroke-linecap="round"></path><path d="M 115.000,169.000 C 112.218,174.899 112.467,174.986 110.000,181.000" stroke-width="3.129" stroke="black" fill="none" stroke-linecap="round"></path><path d="M 110.000,181.000 C 108.264,185.945 108.218,185.899 107.000,191.000" stroke-width="3.370" stroke="black" fill="none" stroke-linecap="round"></path><path d="M 107.000,191.000 C 106.252,193.979 106.264,193.945 106.000,197.000" stroke-width="3.948" stroke="black" fill="none" stroke-linecap="round"></path><path d="M 106.000,197.000 C 105.197,203.401 105.752,199.979 106.000,203.000" stroke-width="4.483" stroke="black" fill="none" stroke-linecap="round"></path><path d="M 106.000,203.000 C 109.449,195.276 107.197,202.401 110.000,195.000" stroke-width="4.133" stroke="black" fill="none" stroke-linecap="round"></path><path d="M 124.000,82.000 C 127.969,80.411 128.000,80.500 132.000,79.000" stroke-width="5.024" stroke="black" fill="none" stroke-linecap="round"></path><path d="M 132.000,79.000 C 138.119,77.310 137.969,76.911 144.000,75.000" stroke-width="3.613" stroke="black" fill="none" stroke-linecap="round"></path><path d="M 144.000,75.000 C 151.927,71.324 152.119,71.810 160.000,68.000" stroke-width="2.982" stroke="black" fill="none" stroke-linecap="round"></path><path d="M 160.000,68.000 C 168.949,64.362 168.927,64.324 178.000,61.000" stroke-width="2.729" stroke="black" fill="none" stroke-linecap="round"></path><path d="M 178.000,61.000 C 186.302,57.175 186.449,57.862 195.000,55.000" stroke-width="2.670" stroke="black" fill="none" stroke-linecap="round"></path><path d="M 195.000,55.000 C 202.475,53.627 202.302,53.175 210.000,53.000" stroke-width="2.821" stroke="black" fill="none" stroke-linecap="round"></path><path d="M 210.000,53.000 C 217.202,50.124 214.475,52.627 219.000,53.000" stroke-width="3.371" stroke="black" fill="none" stroke-linecap="round"></path><path d="M 219.000,53.000 C 222.570,61.933 222.202,58.124 220.000,69.000" stroke-width="3.675" stroke="black" fill="none" stroke-linecap="round"></path><path d="M 220.000,69.000 C 213.822,77.766 216.570,78.433 207.000,86.000" stroke-width="2.684" stroke="black" fill="none" stroke-linecap="round"></path><path d="M 207.000,86.000 C 199.378,95.368 199.322,95.266 191.000,104.000" stroke-width="2.424" stroke="black" fill="none" stroke-linecap="round"></path><path d="M 191.000,104.000 C 183.237,113.002 182.878,112.368 174.000,120.000" stroke-width="2.386" stroke="black" fill="none" stroke-linecap="round"></path><path d="M 174.000,120.000 C 166.365,125.375 166.737,125.502 158.000,129.000" stroke-width="2.600" stroke="black" fill="none" stroke-linecap="round"></path><path d="M 158.000,129.000 C 151.115,131.632 151.365,131.875 144.000,133.000" stroke-width="2.832" stroke="black" fill="none" stroke-linecap="round"></path><path d="M 144.000,133.000 C 138.008,133.684 138.115,134.132 132.000,134.000" stroke-width="3.140" stroke="black" fill="none" stroke-linecap="round"></path><path d="M 132.000,134.000 C 125.739,135.478 128.508,134.184 125.000,134.000" stroke-width="3.687" stroke="black" fill="none" stroke-linecap="round"></path><path d="M 125.000,134.000 C 125.987,129.586 124.239,132.478 129.000,128.000" stroke-width="4.462" stroke="black" fill="none" stroke-linecap="round"></path><path d="M 129.000,128.000 C 136.447,125.777 135.487,124.586 144.000,124.000" stroke-width="3.409" stroke="black" fill="none" stroke-linecap="round"></path><path d="M 144.000,124.000 C 153.428,121.552 153.447,121.777 163.000,120.000" stroke-width="2.820" stroke="black" fill="none" stroke-linecap="round"></path><path d="M 163.000,120.000 C 171.979,118.752 171.928,118.552 181.000,118.000" stroke-width="2.752" stroke="black" fill="none" stroke-linecap="round"></path><path d="M 181.000,118.000 C 190.004,117.000 189.979,117.252 199.000,117.000" stroke-width="2.736" stroke="black" fill="none" stroke-linecap="round"></path><path d="M 199.000,117.000 C 206.396,116.151 206.004,117.000 213.000,118.000" stroke-width="2.913" stroke="black" fill="none" stroke-linecap="round"></path><path d="M 213.000,118.000 C 219.273,120.107 218.896,119.651 224.000,124.000" stroke-width="3.078" stroke="black" fill="none" stroke-linecap="round"></path><path d="M 224.000,124.000 C 228.163,127.539 227.773,127.107 230.000,132.000" stroke-width="3.337" stroke="black" fill="none" stroke-linecap="round"></path><path d="M 230.000,132.000 C 231.000,136.495 231.663,136.039 231.000,141.000" stroke-width="3.511" stroke="black" fill="none" stroke-linecap="round"></path><path d="M 231.000,141.000 C 232.558,147.524 231.000,146.495 230.000,152.000" stroke-width="3.381" stroke="black" fill="none" stroke-linecap="round"></path><path d="M 230.000,152.000 C 225.103,157.859 226.558,158.024 219.000,162.000" stroke-width="3.165" stroke="black" fill="none" stroke-linecap="round"></path><path d="M 219.000,162.000 C 210.834,167.280 211.103,167.359 202.000,171.000" stroke-width="2.711" stroke="black" fill="none" stroke-linecap="round"></path><path d="M 202.000,171.000 C 191.648,175.029 191.834,175.280 181.000,178.000" stroke-width="2.455" stroke="black" fill="none" stroke-linecap="round"></path><path d="M 181.000,178.000 C 170.012,180.553 170.148,181.029 159.000,183.000" stroke-width="2.429" stroke="black" fill="none" stroke-linecap="round"></path><path d="M 159.000,183.000 C 147.556,185.799 147.512,185.553 136.000,188.000" stroke-width="2.379" stroke="black" fill="none" stroke-linecap="round"></path><path d="M 136.000,188.000 C 126.391,189.008 126.556,189.799 117.000,191.000" stroke-width="2.555" stroke="black" fill="none" stroke-linecap="round"></path><path d="M 117.000,191.000 C 109.860,192.614 109.891,192.508 103.000,195.000" stroke-width="2.870" stroke="black" fill="none" stroke-linecap="round"></path><path d="M 103.000,195.000 C 93.789,200.057 98.360,196.614 94.000,199.000" stroke-width="3.273" stroke="black" fill="none" stroke-linecap="round"></path><path d="M 94.000,199.000 C 103.162,190.279 94.289,197.557 104.000,190.000" stroke-width="4.082" stroke="black" fill="none" stroke-linecap="round"></path><path d="M 327.000,138.000 C 323.132,135.775 323.000,136.500 319.000,135.000" stroke-width="4.860" stroke="black" fill="none" stroke-linecap="round"></path><path d="M 319.000,135.000 C 315.000,135.000 315.132,134.275 311.000,135.000" stroke-width="4.141" stroke="black" fill="none" stroke-linecap="round"></path><path d="M 311.000,135.000 C 304.896,134.158 305.000,135.000 299.000,135.000" stroke-width="3.446" stroke="black" fill="none" stroke-linecap="round"></path><path d="M 299.000,135.000 C 290.657,136.072 290.896,136.158 283.000,139.000" stroke-width="3.010" stroke="black" fill="none" stroke-linecap="round"></path><path d="M 283.000,139.000 C 273.249,142.412 273.657,142.572 265.000,148.000" stroke-width="2.753" stroke="black" fill="none" stroke-linecap="round"></path><path d="M 265.000,148.000 C 257.668,153.302 257.749,152.912 252.000,160.000" stroke-width="2.695" stroke="black" fill="none" stroke-linecap="round"></path><path d="M 252.000,160.000 C 245.471,166.339 246.668,166.302 243.000,174.000" stroke-width="2.738" stroke="black" fill="none" stroke-linecap="round"></path><path d="M 243.000,174.000 C 241.708,182.542 240.471,181.839 242.000,191.000" stroke-width="2.729" stroke="black" fill="none" stroke-linecap="round"></path><path d="M 242.000,191.000 C 240.797,198.424 242.208,197.042 244.000,203.000" stroke-width="3.092" stroke="black" fill="none" stroke-linecap="round"></path><path d="M 244.000,203.000 C 249.351,208.937 247.797,208.424 256.000,211.000" stroke-width="3.058" stroke="black" fill="none" stroke-linecap="round"></path><path d="M 256.000,211.000 C 264.558,212.497 263.851,213.437 273.000,212.000" stroke-width="2.880" stroke="black" fill="none" stroke-linecap="round"></path><path d="M 273.000,212.000 C 282.234,212.294 281.558,211.497 290.000,209.000" stroke-width="2.756" stroke="black" fill="none" stroke-linecap="round"></path><path d="M 290.000,209.000 C 298.830,204.428 298.734,205.294 306.000,198.000" stroke-width="2.664" stroke="black" fill="none" stroke-linecap="round"></path><path d="M 306.000,198.000 C 313.477,191.153 313.330,191.428 319.000,183.000" stroke-width="2.615" stroke="black" fill="none" stroke-linecap="round"></path><path d="M 319.000,183.000 C 323.850,175.306 323.977,175.653 327.000,167.000" stroke-width="2.702" stroke="black" fill="none" stroke-linecap="round"></path><path d="M 327.000,167.000 C 329.143,160.573 329.350,160.806 330.000,154.000" stroke-width="2.948" stroke="black" fill="none" stroke-linecap="round"></path><path d="M 330.000,154.000 C 330.331,148.967 330.643,149.073 330.000,144.000" stroke-width="3.340" stroke="black" fill="none" stroke-linecap="round"></path><path d="M 330.000,144.000 C 330.608,140.149 329.831,141.467 329.000,139.000" stroke-width="3.938" stroke="black" fill="none" stroke-linecap="round"></path><path d="M 329.000,139.000 C 325.602,137.776 327.108,137.649 323.000,139.000" stroke-width="4.130" stroke="black" fill="none" stroke-linecap="round"></path><path d="M 323.000,139.000 C 316.424,142.055 317.102,141.776 312.000,147.000" stroke-width="3.302" stroke="black" fill="none" stroke-linecap="round"></path><path d="M 312.000,147.000 C 308.304,152.239 307.924,151.555 306.000,158.000" stroke-width="3.197" stroke="black" fill="none" stroke-linecap="round"></path><path d="M 306.000,158.000 C 305.118,162.530 304.304,162.239 304.000,167.000" stroke-width="3.499" stroke="black" fill="none" stroke-linecap="round"></path><path d="M 424.000,52.000 C 428.632,52.492 427.000,53.500 430.000,55.000" stroke-width="5.047" stroke="black" fill="none" stroke-linecap="round"></path><path d="M 430.000,55.000 C 430.494,59.046 431.632,57.992 430.000,63.000" stroke-width="4.402" stroke="black" fill="none" stroke-linecap="round"></path><path d="M 430.000,63.000 C 430.017,71.558 428.994,71.046 427.000,79.000" stroke-width="3.208" stroke="black" fill="none" stroke-linecap="round"></path><path d="M 427.000,79.000 C 421.093,89.554 422.517,90.058 415.000,100.000" stroke-width="2.531" stroke="black" fill="none" stroke-linecap="round"></path><path d="M 415.000,100.000 C 406.956,113.474 407.093,113.554 399.000,127.000" stroke-width="2.116" stroke="black" fill="none" stroke-linecap="round"></path><path d="M 399.000,127.000 C 391.950,138.971 391.956,138.974 385.000,151.000" stroke-width="2.073" stroke="black" fill="none" stroke-linecap="round"></path><path d="M 385.000,151.000 C 378.511,161.253 378.950,161.471 373.000,172.000" stroke-width="2.241" stroke="black" fill="none" stroke-linecap="round"></path><path d="M 373.000,172.000 C 368.549,180.831 368.511,180.753 365.000,190.000" stroke-width="2.484" stroke="black" fill="none" stroke-linecap="round"></path><path d="M 365.000,190.000 C 362.868,196.463 362.549,196.331 361.000,203.000" stroke-width="2.901" stroke="black" fill="none" stroke-linecap="round"></path><path d="M 361.000,203.000 C 356.956,211.584 359.868,206.963 359.000,211.000" stroke-width="3.469" stroke="black" fill="none" stroke-linecap="round"></path><path d="M 359.000,211.000 C 367.420,205.497 363.956,209.584 375.000,199.000" stroke-width="3.836" stroke="black" fill="none" stroke-linecap="round"></path><path d="M 375.000,199.000 C 384.009,189.413 384.920,190.497 394.000,181.000" stroke-width="2.537" stroke="black" fill="none" stroke-linecap="round"></path><path d="M 394.000,181.000 C 403.120,173.409 403.009,173.413 413.000,167.000" stroke-width="2.407" stroke="black" fill="none" stroke-linecap="round"></path><path d="M 413.000,167.000 C 421.669,161.266 421.620,161.409 431.000,157.000" stroke-width="2.555" stroke="black" fill="none" stroke-linecap="round"></path><path d="M 431.000,157.000 C 439.400,153.669 439.169,153.266 448.000,151.000" stroke-width="2.675" stroke="black" fill="none" stroke-linecap="round"></path><path d="M 448.000,151.000 C 453.933,148.958 453.900,149.169 460.000,148.000" stroke-width="3.005" stroke="black" fill="none" stroke-linecap="round"></path><path d="M 460.000,148.000 C 465.669,145.671 463.433,147.458 467.000,148.000" stroke-width="3.667" stroke="black" fill="none" stroke-linecap="round"></path><path d="M 467.000,148.000 C 470.376,155.861 469.669,152.671 468.000,162.000" stroke-width="3.858" stroke="black" fill="none" stroke-linecap="round"></path><path d="M 468.000,162.000 C 462.293,171.237 464.376,171.361 455.000,179.000" stroke-width="2.787" stroke="black" fill="none" stroke-linecap="round"></path><path d="M 455.000,179.000 C 446.323,187.395 446.793,187.737 437.000,195.000" stroke-width="2.449" stroke="black" fill="none" stroke-linecap="round"></path><path d="M 437.000,195.000 C 427.687,203.697 427.323,202.895 417.000,210.000" stroke-width="2.435" stroke="black" fill="none" stroke-linecap="round"></path><path d="M 417.000,210.000 C 407.829,215.155 408.187,215.197 398.000,218.000" stroke-width="2.509" stroke="black" fill="none" stroke-linecap="round"></path><path d="M 398.000,218.000 C 388.550,220.132 388.829,220.655 379.000,221.000" stroke-width="2.541" stroke="black" fill="none" stroke-linecap="round"></path><path d="M 379.000,221.000 C 371.144,223.363 372.050,221.632 365.000,221.000" stroke-width="2.898" stroke="black" fill="none" stroke-linecap="round"></path><path d="M 365.000,221.000 C 357.573,217.002 358.144,218.363 353.000,211.000" stroke-width="2.921" stroke="black" fill="none" stroke-linecap="round"></path><path d="M 353.000,211.000 C 350.131,205.653 349.573,206.502 349.000,200.000" stroke-width="3.292" stroke="black" fill="none" stroke-linecap="round"></path><path d="M 349.000,200.000 C 347.456,194.860 348.131,195.653 349.000,191.000" stroke-width="3.553" stroke="black" fill="none" stroke-linecap="round"></path><path d="M 349.000,191.000 C 351.283,186.859 350.456,187.360 355.000,185.000" stroke-width="3.638" stroke="black" fill="none" stroke-linecap="round"></path><path d="M 355.000,185.000 C 370.724,179.425 364.283,180.359 375.000,178.000" stroke-width="2.000" stroke="black" fill="none" stroke-linecap="round"></path><path d="M 668.000,85.000 C 664.966,76.339 663.500,78.500 659.000,72.000" stroke-width="3.850" stroke="black" fill="none" stroke-linecap="round"></path><path d="M 659.000,72.000 C 652.590,69.706 653.966,68.339 646.000,69.000" stroke-width="3.981" stroke="black" fill="none" stroke-linecap="round"></path><path d="M 646.000,69.000 C 638.316,67.746 638.590,68.206 631.000,69.000" stroke-width="3.295" stroke="black" fill="none" stroke-linecap="round"></path><path d="M 631.000,69.000 C 620.615,71.029 620.816,70.746 611.000,75.000" stroke-width="2.715" stroke="black" fill="none" stroke-linecap="round"></path><path d="M 611.000,75.000 C 597.364,80.444 597.615,80.529 585.000,88.000" stroke-width="2.233" stroke="black" fill="none" stroke-linecap="round"></path><path d="M 585.000,88.000 C 570.224,97.064 570.364,96.944 557.000,108.000" stroke-width="1.958" stroke="black" fill="none" stroke-linecap="round"></path><path d="M 557.000,108.000 C 544.019,118.637 544.224,118.564 533.000,131.000" stroke-width="2.019" stroke="black" fill="none" stroke-linecap="round"></path><path d="M 533.000,131.000 C 523.317,141.805 523.519,141.637 516.000,154.000" stroke-width="2.073" stroke="black" fill="none" stroke-linecap="round"></path><path d="M 516.000,154.000 C 508.284,164.370 509.817,164.305 506.000,176.000" stroke-width="2.339" stroke="black" fill="none" stroke-linecap="round"></path><path d="M 506.000,176.000 C 501.002,195.006 502.784,192.370 505.000,210.000" stroke-width="2.050" stroke="black" fill="none" stroke-linecap="round"></path><path d="M 505.000,210.000 C 510.671,216.904 507.002,217.506 518.000,221.000" stroke-width="2.480" stroke="black" fill="none" stroke-linecap="round"></path><path d="M 518.000,221.000 C 528.102,226.957 527.671,226.404 539.000,229.000" stroke-width="2.439" stroke="black" fill="none" stroke-linecap="round"></path><path d="M 539.000,229.000 C 552.499,230.000 552.102,231.457 566.000,230.000" stroke-width="2.185" stroke="black" fill="none" stroke-linecap="round"></path><path d="M 566.000,230.000 C 581.413,231.652 580.999,230.000 596.000,229.000" stroke-width="2.077" stroke="black" fill="none" stroke-linecap="round"></path><path d="M 596.000,229.000 C 608.897,225.379 608.913,226.652 621.000,220.000" stroke-width="2.103" stroke="black" fill="none" stroke-linecap="round"></path><path d="M 621.000,220.000 C 631.823,215.596 631.397,215.379 641.000,209.000" stroke-width="2.303" stroke="black" fill="none" stroke-linecap="round"></path><path d="M 641.000,209.000 C 648.035,203.717 647.823,204.096 653.000,197.000" stroke-width="2.639" stroke="black" fill="none" stroke-linecap="round"></path><path d="M 653.000,197.000 C 656.567,191.731 656.535,192.217 658.000,186.000" stroke-width="3.062" stroke="black" fill="none" stroke-linecap="round"></path><path d="M 658.000,186.000 C 659.055,181.220 659.067,181.731 658.000,177.000" stroke-width="3.420" stroke="black" fill="none" stroke-linecap="round"></path><path d="M 658.000,177.000 C 656.661,172.903 657.055,173.220 654.000,170.000" stroke-width="3.812" stroke="black" fill="none" stroke-linecap="round"></path></svg>