<svg xmlns="http://www.w3.org/2000/svg" xmlns:xlink="http://www.w3.org/1999/xlink" viewBox="0 0 724 414" width="724" height="414"><path d="M 110.000,192.000 C 105.981,190.548 106.000,190.500 102.000,189.000" stroke-width="5.263" stroke="black" fill="none" stroke-linecap="round"></path><path d="M 102.000,189.000 C 96.798,187.399 96.981,187.048 92.000,185.000" stroke-width="4.594" stroke="black" fill="none" stroke-linecap="round"></path><path d="M 92.000,185.000 C 87.967,182.550 87.798,182.899 84.000,180.000" stroke-width="4.459" stroke="black" fill="none" stroke-linecap="round"></path><path d="M 84.000,180.000 C 81.161,177.702 80.967,178.050 78.000,176.000" stroke-width="4.568" stroke="black" fill="none" stroke-linecap="round"></path><path d="M 78.000,176.000 C 70.587,174.859 74.661,174.202 71.000,173.000" stroke-width="4.783" stroke="black" fill="none" stroke-linecap="round"></path><path d="M 71.000,173.000 C 75.416,169.865 71.587,170.359 80.000,167.000" stroke-width="5.118" stroke="black" fill="none" stroke-linecap="round"></path><path d="M 80.000,167.000 C 83.734,165.333 83.416,164.865 87.000,163.000" stroke-width="4.069" stroke="black" fill="none" stroke-linecap="round"></path><path d="M 87.000,163.000 C 90.516,160.019 90.734,160.333 94.000,157.000" stroke-width="3.705" stroke="black" fill="none" stroke-linecap="round"></path><path d="M 94.000,157.000 C 98.107,153.615 98.016,153.519 102.000,150.000" stroke-width="3.531" stroke="black" fill="none" stroke-linecap="round"></path><path d="M 102.000,150.000 C 104.772,146.731 105.107,147.115 108.000,144.000" stroke-width="3.774" stroke="black" fill="none" stroke-linecap="round"></path><path d="M 108.000,144.000 C 111.500,141.500 111.272,141.231 115.000,139.000" stroke-width="3.692" stroke="black" fill="none" stroke-linecap="round"></path><path d="M 115.000,139.000 C 118.621,136.655 118.500,136.500 122.000,134.000" stroke-width="3.668" stroke="black" fill="none" stroke-linecap="round"></path><path d="M 122.000,134.000 C 125.481,130.978 125.621,131.155 129.000,128.000" stroke-width="3.598" stroke="black" fill="none" stroke-linecap="round"></path><path d="M 129.000,128.000 C 132.400,125.860 131.981,125.478 135.000,123.000" stroke-width="3.774" stroke="black" fill="none" stroke-linecap="round"></path><path d="M 135.000,123.000 C 137.050,120.033 137.400,120.360 139.000,117.000" stroke-width="3.846" stroke="black" fill="none" stroke-linecap="round"></path><path d="M 139.000,117.000 C 140.910,112.399 141.550,113.033 144.000,109.000" stroke-width="4.201" stroke="black" fill="none" stroke-linecap="round"></path><path d="M 144.000,109.000 C 148.594,104.986 145.910,106.899 149.000,106.000" stroke-width="4.754" stroke="black" fill="none" stroke-linecap="round"></path><path d="M 149.000,106.000 C 147.901,110.198 149.594,107.486 146.000,114.000" stroke-width="4.904" stroke="black" fill="none" stroke-linecap="round"></path><path d="M 146.000,114.000 C 143.391,117.936 143.901,118.198 141.000,122.000" stroke-width="3.927" stroke="black" fill="none" stroke-linecap="round"></path><path d="M 141.000,122.000 C 138.579,126.546 138.391,126.436 136.000,131.000" stroke-width="3.620" stroke="black" fill="none" stroke-linecap="round"></path><path d="M 136.000,131.000 C 132.892,135.938 133.079,136.046 130.000,141.000" stroke-width="3.356" stroke="black" fill="none" stroke-linecap="round"></path><path d="M 130.000,141.000 C 127.185,146.609 126.892,146.438 124.000,152.000" stroke-width="3.427" stroke="black" fill="none" stroke-linecap="round"></path><path d="M 124.000,152.000 C 120.500,157.500 120.685,157.609 117.000,163.000" stroke-width="3.191" stroke="black" fill="none" stroke-linecap="round"></path><path d="M 117.000,163.000 C 113.500,168.500 113.500,168.500 110.000,174.000" stroke-width="3.240" stroke="black" fill="none" stroke-linecap="round"></path><path d="M 110.000,174.000 C 106.431,179.457 106.500,179.500 103.000,185.000" stroke-width="3.140" stroke="black" fill="none" stroke-linecap="round"></path><path d="M 103.000,185.000 C 100.113,190.071 99.931,189.957 97.000,195.000" stroke-width="3.275" stroke="black" fill="none" stroke-linecap="round"></path><path d="M 97.000,195.000 C 93.938,199.460 94.113,199.571 91.000,204.000" stroke-width="3.438" stroke="black" fill="none" stroke-linecap="round"></path><path d="M 91.000,204.000 C 88.426,207.956 88.438,207.960 86.000,212.000" stroke-width="3.508" stroke="black" fill="none" stroke-linecap="round"></path><path d="M 86.000,212.000 C 84.286,215.698 83.926,215.456 82.000,219.000" stroke-width="3.667" stroke="black" fill="none" stroke-linecap="round"></path><path d="M 82.000,219.000 C 79.636,222.124 79.786,222.198 77.000,225.000" stroke-width="3.745" stroke="black" fill="none" stroke-linecap="round"></path><path d="M 77.000,225.000 C 74.124,228.136 74.136,228.124 71.000,231.000" stroke-width="3.750" stroke="black" fill="none" stroke-linecap="round"></path><path d="M 71.000,231.000 C 68.093,233.621 68.124,233.636 65.000,236.000" stroke-width="3.822" stroke="black" fill="none" stroke-linecap="round"></path><path d="M 65.000,236.000 C 61.440,238.420 61.593,238.621 58.000,241.000" stroke-width="3.706" stroke="black" fill="none" stroke-linecap="round"></path><path d="M 58.000,241.000 C 55.587,243.119 55.440,242.920 53.000,245.000" stroke-width="3.919" stroke="black" fill="none" stroke-linecap="round"></path><path d="M 53.000,245.000 C 50.041,247.065 50.087,247.119 47.000,249.000" stroke-width="3.890" stroke="black" fill="none" stroke-linecap="round"></path><path d="M 47.000,249.000 C 44.500,250.500 44.541,250.565 42.000,252.000" stroke-width="4.094" stroke="black" fill="none" stroke-linecap="round"></path><path d="M 42.000,252.000 C 39.667,253.933 39.500,253.500 37.000,255.000" stroke-width="4.160" stroke="black" fill="none" stroke-linecap="round"></path><path d="M 37.000,255.000 C 34.455,255.330 34.667,255.933 32.000,256.000" stroke-width="4.233" stroke="black" fill="none" stroke-linecap="round"></path><path d="M 32.000,256.000 C 29.045,257.170 28.955,256.830 26.000,258.000" stroke-width="4.139" stroke="black" fill="none" stroke-linecap="round"></path><path d="M 26.000,258.000 C 23.529,258.789 23.545,258.670 21.000,259.000" stroke-width="4.269" stroke="black" fill="none" stroke-linecap="round"></path><path d="M 21.000,259.000 C 17.500,259.000 17.529,259.289 14.000,259.000" stroke-width="4.522" stroke="black" fill="none" stroke-linecap="round"></path><path d="M 14.000,259.000 C 8.633,260.867 10.500,259.000 7.000,259.000" stroke-width="4.795" stroke="black" fill="none" stroke-linecap="round"></path><path d="M 7.000,259.000 C 6.695,254.970 5.133,256.867 7.000,251.000" stroke-width="4.623" stroke="black" fill="none" stroke-linecap="round"></path><path d="M 7.000,251.000 C 7.092,248.360 7.195,248.470 8.000,246.000" stroke-width="4.412" stroke="black" fill="none" stroke-linecap="round"></path><path d="M 8.000,246.000 C 9.598,241.737 9.592,241.860 12.000,238.000" stroke-width="3.877" stroke="black" fill="none" stroke-linecap="round"></path><path d="M 12.000,238.000 C 14.364,234.876 14.098,234.737 17.000,232.000" stroke-width="3.809" stroke="black" fill="none" stroke-linecap="round"></path><path d="M 17.000,232.000 C 19.893,228.885 19.864,228.876 23.000,226.000" stroke-width="3.819" stroke="black" fill="none" stroke-linecap="round"></path><path d="M 23.000,226.000 C 27.117,222.625 26.893,222.385 31.000,219.000" stroke-width="3.500" stroke="black" fill="none" stroke-linecap="round"></path><path d="M 31.000,219.000 C 34.160,215.072 34.617,215.625 38.000,212.000" stroke-width="3.483" stroke="black" fill="none" stroke-linecap="round"></path><path d="M 38.000,212.000 C 41.936,209.391 41.660,209.072 46.000,207.000" stroke-width="3.576" stroke="black" fill="none" stroke-linecap="round"></path><path d="M 46.000,207.000 C 50.355,204.186 50.436,204.391 55.000,202.000" stroke-width="3.578" stroke="black" fill="none" stroke-linecap="round"></path><path d="M 55.000,202.000 C 58.929,200.272 58.855,200.186 63.000,199.000" stroke-width="3.640" stroke="black" fill="none" stroke-linecap="round"></path><path d="M 63.000,199.000 C 66.949,197.715 66.929,197.772 71.000,197.000" stroke-width="3.690" stroke="black" fill="none" stroke-linecap="round"></path><path d="M 71.000,197.000 C 75.540,196.743 75.449,196.215 80.000,196.000" stroke-width="3.726" stroke="black" fill="none" stroke-linecap="round"></path><path d="M 80.000,196.000 C 84.489,194.950 84.540,195.243 89.000,194.000" stroke-width="3.671" stroke="black" fill="none" stroke-linecap="round"></path><path d="M 89.000,194.000 C 94.167,193.526 93.989,192.950 99.000,192.000" stroke-width="3.503" stroke="black" fill="none" stroke-linecap="round"></path><path d="M 99.000,192.000 C 103.659,190.298 103.667,190.526 108.000,188.000" stroke-width="3.488" stroke="black" fill="none" stroke-linecap="round"></path><path d="M 108.000,188.000 C 111.956,185.426 112.159,185.798 116.000,183.000" stroke-width="3.523" stroke="black" fill="none" stroke-linecap="round"></path><path d="M 116.000,183.000 C 119.452,180.910 119.456,180.926 123.000,179.000" stroke-width="3.723" stroke="black" fill="none" stroke-linecap="round"></path><path d="M 123.000,179.000 C 125.836,176.974 125.952,177.410 129.000,176.000" stroke-width="3.888" stroke="black" fill="none" stroke-linecap="round"></path><path d="M 129.000,176.000 C 135.731,175.000 132.336,174.974 136.000,175.000" stroke-width="4.381" stroke="black" fill="none" stroke-linecap="round"></path><path d="M 136.000,175.000 C 132.591,174.705 136.231,175.000 130.000,176.000" stroke-width="5.092" stroke="black" fill="none" stroke-linecap="round"></path><path d="M 130.000,176.000 C 128.000,178.000 127.591,177.205 126.000,180.000" stroke-width="4.398" stroke="black" fill="none" stroke-linecap="round"></path><path d="M 126.000,180.000 C 124.000,182.000 124.000,182.000 122.000,184.000" stroke-width="4.272" stroke="black" fill="none" stroke-linecap="round"></path><path d="M 122.000,184.000 C 120.100,186.110 120.000,186.000 118.000,188.000" stroke-width="4.190" stroke="black" fill="none" stroke-linecap="round"></path><path d="M 118.000,188.000 C 114.368,190.041 115.100,190.610 112.000,193.000" stroke-width="4.468" stroke="black" fill="none" stroke-linecap="round"></path><path d="M 112.000,193.000 C 109.315,195.944 110.368,195.041 110.000,198.000" stroke-width="4.953" stroke="black" fill="none" stroke-linecap="round"></path><path d="M 110.000,198.000 C 112.134,201.045 110.815,200.444 115.000,202.000" stroke-width="4.984" stroke="black" fill="none" stroke-linecap="round"></path><path d="M 115.000,202.000 C 118.500,202.000 118.134,203.045 122.000,202.000" stroke-width="4.720" stroke="black" fill="none" stroke-linecap="round"></path><path d="M 122.000,202.000 C 126.532,202.319 126.500,202.000 131.000,202.000" stroke-width="4.506" stroke="black" fill="none" stroke-linecap="round"></path><path d="M 131.000,202.000 C 133.500,201.500 133.532,201.819 136.000,201.000" stroke-width="4.379" stroke="black" fill="none" stroke-linecap="round"></path><path d="M 136.000,201.000 C 138.500,200.500 138.500,200.500 141.000,200.000" stroke-width="4.299" stroke="black" fill="none" stroke-linecap="round"></path><path d="M 141.000,200.000 C 143.571,199.747 143.500,199.500 146.000,199.000" stroke-width="4.358" stroke="black" fill="none" stroke-linecap="round"></path><path d="M 146.000,199.000 C 150.390,198.106 150.071,197.747 154.000,196.000" stroke-width="4.434" stroke="black" fill="none" stroke-linecap="round"></path><path d="M 154.000,196.000 C 156.685,194.367 156.390,194.606 158.000,192.000" stroke-width="4.671" stroke="black" fill="none" stroke-linecap="round"></path><path d="M 158.000,192.000 C 159.000,189.500 159.185,189.867 159.000,187.000" stroke-width="4.972" stroke="black" fill="none" stroke-linecap="round"></path><path d="M 159.000,187.000 C 159.400,183.866 159.000,184.500 158.000,182.000" stroke-width="4.902" stroke="black" fill="none" stroke-linecap="round"></path><path d="M 158.000,182.000 C 155.712,179.904 156.400,179.866 153.000,179.000" stroke-width="4.831" stroke="black" fill="none" stroke-linecap="round"></path><path d="M 153.000,179.000 C 149.519,178.235 149.712,177.904 146.000,178.000" stroke-width="4.690" stroke="black" fill="none" stroke-linecap="round"></path><path d="M 146.000,178.000 C 141.970,177.695 142.019,177.735 138.000,178.000" stroke-width="4.594" stroke="black" fill="none" stroke-linecap="round"></path><path d="M 138.000,178.000 C 134.702,177.541 135.470,178.195 133.000,179.000" stroke-width="4.933" stroke="black" fill="none" stroke-linecap="round"></path><path d="M 133.000,179.000 C 131.000,181.500 131.202,180.541 131.000,184.000" stroke-width="5.040" stroke="black" fill="none" stroke-linecap="round"></path><path d="M 131.000,184.000 C 131.320,187.079 131.000,186.500 133.000,189.000" stroke-width="5.291" stroke="black" fill="none" stroke-linecap="round"></path><path d="M 133.000,189.000 C 135.541,190.435 134.820,191.079 138.000,192.000" stroke-width="5.266" stroke="black" fill="none" stroke-linecap="round"></path><path d="M 138.000,192.000 C 140.959,194.065 141.041,193.935 144.000,196.000" stroke-width="5.133" stroke="black" fill="none" stroke-linecap="round"></path><path d="M 144.000,196.000 C 146.273,198.318 146.459,197.565 149.000,199.000" stroke-width="5.162" stroke="black" fill="none" stroke-linecap="round"></path><path d="M 149.000,199.000 C 152.569,199.490 152.273,199.818 156.000,199.000" stroke-width="5.180" stroke="black" fill="none" stroke-linecap="round"></path><path d="M 156.000,199.000 C 159.735,198.507 159.569,198.490 163.000,197.000" stroke-width="4.785" stroke="black" fill="none" stroke-linecap="round"></path><path d="M 163.000,197.000 C 166.000,195.000 166.235,195.507 169.000,193.000" stroke-width="4.683" stroke="black" fill="none" stroke-linecap="round"></path><path d="M 169.000,193.000 C 172.036,191.052 172.000,191.000 175.000,189.000" stroke-width="4.636" stroke="black" fill="none" stroke-linecap="round"></path><path d="M 175.000,189.000 C 178.500,186.500 178.536,186.552 182.000,184.000" stroke-width="4.532" stroke="black" fill="none" stroke-linecap="round"></path><path d="M 182.000,184.000 C 185.593,181.621 185.500,181.500 189.000,179.000" stroke-width="4.462" stroke="black" fill="none" stroke-linecap="round"></path><path d="M 189.000,179.000 C 192.000,176.500 192.093,176.621 195.000,174.000" stroke-width="4.540" stroke="black" fill="none" stroke-linecap="round"></path><path d="M 195.000,174.000 C 198.100,171.610 198.000,171.500 201.000,169.000" stroke-width="4.564" stroke="black" fill="none" stroke-linecap="round"></path><path d="M 201.000,169.000 C 203.000,167.000 203.100,167.110 205.000,165.000" stroke-width="4.728" stroke="black" fill="none" stroke-linecap="round"></path><path d="M 205.000,165.000 C 209.888,160.260 207.000,163.000 209.000,161.000" stroke-width="5.112" stroke="black" fill="none" stroke-linecap="round"></path><path d="M 209.000,161.000 C 203.743,165.257 206.888,162.760 199.000,170.000" stroke-width="5.232" stroke="black" fill="none" stroke-linecap="round"></path><path d="M 199.000,170.000 C 197.000,172.500 196.743,172.257 195.000,175.000" stroke-width="4.318" stroke="black" fill="none" stroke-linecap="round"></path><path d="M 195.000,175.000 C 192.881,177.413 193.000,177.500 191.000,180.000" stroke-width="4.103" stroke="black" fill="none" stroke-linecap="round"></path><path d="M 191.000,180.000 C 187.000,183.198 188.881,182.913 187.000,186.000" stroke-width="4.465" stroke="black" fill="none" stroke-linecap="round"></path><path d="M 187.000,186.000 C 188.515,189.172 187.000,188.198 191.000,190.000" stroke-width="5.033" stroke="black" fill="none" stroke-linecap="round"></path><path d="M 191.000,190.000 C 195.000,190.000 194.515,191.172 199.000,190.000" stroke-width="4.668" stroke="black" fill="none" stroke-linecap="round"></path><path d="M 199.000,190.000 C 203.550,188.673 203.000,190.000 207.000,190.000" stroke-width="4.569" stroke="black" fill="none" stroke-linecap="round"></path><path d="M 207.000,190.000 C 210.013,192.162 210.050,191.173 212.000,195.000" stroke-width="4.920" stroke="black" fill="none" stroke-linecap="round"></path><path d="M 212.000,195.000 C 215.063,198.512 213.513,197.162 214.000,200.000" stroke-width="5.117" stroke="black" fill="none" stroke-linecap="round"></path><path d="M 214.000,200.000 C 210.529,201.118 212.563,202.012 207.000,202.000" stroke-width="4.961" stroke="black" fill="none" stroke-linecap="round"></path><path d="M 207.000,202.000 C 204.533,202.831 204.529,202.618 202.000,203.000" stroke-width="4.542" stroke="black" fill="none" stroke-linecap="round"></path><path d="M 202.000,203.000 C 196.988,203.249 197.033,203.331 192.000,203.000" stroke-width="4.424" stroke="black" fill="none" stroke-linecap="round"></path><path d="M 192.000,203.000 C 186.864,203.081 186.988,202.749 182.000,202.000" stroke-width="4.345" stroke="black" fill="none" stroke-linecap="round"></path><path d="M 182.000,202.000 C 177.987,200.533 177.864,201.081 174.000,199.000" stroke-width="4.449" stroke="black" fill="none" stroke-linecap="round"></path><path d="M 174.000,199.000 C 168.565,197.435 171.487,198.033 169.000,197.000" stroke-width="4.878" stroke="black" fill="none" stroke-linecap="round"></path><path d="M 169.000,197.000 C 172.500,197.000 169.565,196.435 176.000,197.000" stroke-width="5.228" stroke="black" fill="none" stroke-linecap="round"></path><path d="M 176.000,197.000 C 180.500,197.000 180.500,197.000 185.000,197.000" stroke-width="4.612" stroke="black" fill="none" stroke-linecap="round"></path><path d="M 185.000,197.000 C 189.500,197.000 189.500,197.000 194.000,197.000" stroke-width="4.496" stroke="black" fill="none" stroke-linecap="round"></path><path d="M 194.000,197.000 C 198.500,197.000 198.500,197.000 203.000,197.000" stroke-width="4.442" stroke="black" fill="none" stroke-linecap="round"></path><path d="M 203.000,197.000 C 206.027,197.270 206.000,197.000 209.000,197.000" stroke-width="4.190" stroke="black" fill="none" stroke-linecap="round"></path><path d="M 209.000,197.000 C 211.482,196.387 211.527,196.770 214.000,196.000" stroke-width="4.243" stroke="black" fill="none" stroke-linecap="round"></path><path d="M 214.000,196.000 C 218.116,195.971 217.982,195.387 222.000,195.000" stroke-width="4.468" stroke="black" fill="none" stroke-linecap="round"></path><path d="M 222.000,195.000 C 226.390,194.106 226.116,193.971 230.000,192.000" stroke-width="4.487" stroke="black" fill="none" stroke-linecap="round"></path><path d="M 230.000,192.000 C 231.889,189.876 232.390,190.606 234.000,188.000" stroke-width="4.297" stroke="black" fill="none" stroke-linecap="round"></path><path d="M 234.000,188.000 C 236.624,186.138 236.389,185.876 239.000,184.000" stroke-width="4.147" stroke="black" fill="none" stroke-linecap="round"></path><path d="M 239.000,184.000 C 241.293,181.256 241.624,181.638 244.000,179.000" stroke-width="4.070" stroke="black" fill="none" stroke-linecap="round"></path><path d="M 244.000,179.000 C 247.387,176.323 247.293,176.256 251.000,174.000" stroke-width="3.830" stroke="black" fill="none" stroke-linecap="round"></path><path d="M 251.000,174.000 C 254.613,172.177 254.387,171.823 258.000,170.000" stroke-width="3.767" stroke="black" fill="none" stroke-linecap="round"></path><path d="M 258.000,170.000 C 261.532,167.543 261.613,167.677 265.000,165.000" stroke-width="3.690" stroke="black" fill="none" stroke-linecap="round"></path><path d="M 265.000,165.000 C 269.070,162.088 269.032,162.043 273.000,159.000" stroke-width="3.585" stroke="black" fill="none" stroke-linecap="round"></path><path d="M 273.000,159.000 C 276.248,156.752 276.070,156.588 279.000,154.000" stroke-width="3.719" stroke="black" fill="none" stroke-linecap="round"></path><path d="M 279.000,154.000 C 282.194,150.647 282.248,150.752 285.000,147.000" stroke-width="3.613" stroke="black" fill="none" stroke-linecap="round"></path><path d="M 285.000,147.000 C 286.703,143.756 287.194,144.147 289.000,141.000" stroke-width="3.842" stroke="black" fill="none" stroke-linecap="round"></path><path d="M 289.000,141.000 C 292.000,138.000 291.703,137.756 295.000,135.000" stroke-width="3.724" stroke="black" fill="none" stroke-linecap="round"></path><path d="M 295.000,135.000 C 298.000,132.000 298.000,132.000 301.000,129.000" stroke-width="3.690" stroke="black" fill="none" stroke-linecap="round"></path><path d="M 301.000,129.000 C 304.000,126.000 304.000,126.000 307.000,123.000" stroke-width="3.733" stroke="black" fill="none" stroke-linecap="round"></path><path d="M 307.000,123.000 C 310.150,120.135 310.000,120.000 313.000,117.000" stroke-width="3.693" stroke="black" fill="none" stroke-linecap="round"></path><path d="M 313.000,117.000 C 315.168,114.617 315.150,114.635 317.000,112.000" stroke-width="3.960" stroke="black" fill="none" stroke-linecap="round"></path><path d="M 317.000,112.000 C 318.605,109.558 318.668,109.617 320.000,107.000" stroke-width="4.158" stroke="black" fill="none" stroke-linecap="round"></path><path d="M 320.000,107.000 C 321.500,104.000 321.605,104.058 323.000,101.000" stroke-width="4.020" stroke="black" fill="none" stroke-linecap="round"></path><path d="M 323.000,101.000 C 326.967,94.807 324.500,98.000 326.000,95.000" stroke-width="4.472" stroke="black" fill="none" stroke-linecap="round"></path><path d="M 326.000,95.000 C 322.035,98.541 324.467,95.307 318.000,102.000" stroke-width="4.928" stroke="black" fill="none" stroke-linecap="round"></path><path d="M 318.000,102.000 C 314.876,104.364 315.035,104.541 312.000,107.000" stroke-width="4.064" stroke="black" fill="none" stroke-linecap="round"></path><path d="M 312.000,107.000 C 309.124,110.136 308.876,109.864 306.000,113.000" stroke-width="3.784" stroke="black" fill="none" stroke-linecap="round"></path><path d="M 306.000,113.000 C 303.000,115.500 303.124,115.636 300.000,118.000" stroke-width="3.923" stroke="black" fill="none" stroke-linecap="round"></path><path d="M 300.000,118.000 C 296.876,120.364 297.000,120.500 294.000,123.000" stroke-width="3.822" stroke="black" fill="none" stroke-linecap="round"></path><path d="M 294.000,123.000 C 291.000,126.000 290.876,125.864 288.000,129.000" stroke-width="3.773" stroke="black" fill="none" stroke-linecap="round"></path><path d="M 288.000,129.000 C 284.366,132.376 284.500,132.500 281.000,136.000" stroke-width="3.618" stroke="black" fill="none" stroke-linecap="round"></path><path d="M 281.000,136.000 C 278.134,139.624 277.866,139.376 275.000,143.000" stroke-width="3.583" stroke="black" fill="none" stroke-linecap="round"></path><path d="M 275.000,143.000 C 271.366,146.376 271.634,146.624 268.000,150.000" stroke-width="3.563" stroke="black" fill="none" stroke-linecap="round"></path><path d="M 268.000,150.000 C 264.951,153.459 264.866,153.376 262.000,157.000" stroke-width="3.622" stroke="black" fill="none" stroke-linecap="round"></path><path d="M 262.000,157.000 C 260.124,159.611 259.951,159.459 258.000,162.000" stroke-width="3.935" stroke="black" fill="none" stroke-linecap="round"></path><path d="M 258.000,162.000 C 255.824,163.845 256.124,164.111 254.000,166.000" stroke-width="4.087" stroke="black" fill="none" stroke-linecap="round"></path><path d="M 254.000,166.000 C 250.082,170.237 250.324,170.345 247.000,175.000" stroke-width="4.195" stroke="black" fill="none" stroke-linecap="round"></path><path d="M 247.000,175.000 C 245.000,179.000 244.582,178.737 243.000,183.000" stroke-width="4.373" stroke="black" fill="none" stroke-linecap="round"></path><path d="M 243.000,183.000 C 241.500,186.000 241.500,186.000 240.000,189.000" stroke-width="4.563" stroke="black" fill="none" stroke-linecap="round"></path><path d="M 240.000,189.000 C 238.791,192.186 238.500,192.000 237.000,195.000" stroke-width="4.817" stroke="black" fill="none" stroke-linecap="round"></path><path d="M 237.000,195.000 C 232.728,199.185 235.291,197.686 233.000,200.000" stroke-width="4.935" stroke="black" fill="none" stroke-linecap="round"></path><path d="M 233.000,200.000 C 235.805,199.463 233.228,200.685 238.000,198.000" stroke-width="5.284" stroke="black" fill="none" stroke-linecap="round"></path><path d="M 238.000,198.000 C 239.889,195.876 240.305,196.463 242.000,194.000" stroke-width="4.440" stroke="black" fill="none" stroke-linecap="round"></path><path d="M 242.000,194.000 C 244.440,191.920 244.389,191.876 247.000,190.000" stroke-width="4.186" stroke="black" fill="none" stroke-linecap="round"></path><path d="M 247.000,190.000 C 250.532,187.543 250.440,187.420 254.000,185.000" stroke-width="3.802" stroke="black" fill="none" stroke-linecap="round"></path><path d="M 254.000,185.000 C 257.848,181.768 258.032,182.043 262.000,179.000" stroke-width="3.670" stroke="black" fill="none" stroke-linecap="round"></path><path d="M 262.000,179.000 C 265.444,176.896 265.348,176.768 269.000,175.000" stroke-width="3.771" stroke="black" fill="none" stroke-linecap="round"></path><path d="M 269.000,175.000 C 273.065,173.119 272.944,172.896 277.000,171.000" stroke-width="3.655" stroke="black" fill="none" stroke-linecap="round"></path><path d="M 277.000,171.000 C 279.716,167.746 279.565,169.619 282.000,168.000" stroke-width="3.970" stroke="black" fill="none" stroke-linecap="round"></path><path d="M 282.000,168.000 C 285.211,169.633 284.216,168.246 286.000,172.000" stroke-width="4.886" stroke="black" fill="none" stroke-linecap="round"></path><path d="M 286.000,172.000 C 285.730,174.568 286.711,174.133 285.000,177.000" stroke-width="4.862" stroke="black" fill="none" stroke-linecap="round"></path><path d="M 285.000,177.000 C 284.036,179.515 284.230,179.568 283.000,182.000" stroke-width="4.844" stroke="black" fill="none" stroke-linecap="round"></path><path d="M 283.000,182.000 C 281.901,185.740 281.536,185.515 280.000,189.000" stroke-width="4.667" stroke="black" fill="none" stroke-linecap="round"></path><path d="M 280.000,189.000 C 277.630,191.284 278.401,191.740 276.000,194.000" stroke-width="4.698" stroke="black" fill="none" stroke-linecap="round"></path><path d="M 276.000,194.000 C 274.000,196.500 274.630,196.284 274.000,199.000" stroke-width="5.043" stroke="black" fill="none" stroke-linecap="round"></path><path d="M 274.000,199.000 C 274.320,202.079 274.000,201.500 276.000,204.000" stroke-width="5.347" stroke="black" fill="none" stroke-linecap="round"></path><path d="M 276.000,204.000 C 278.289,206.261 277.820,206.079 281.000,207.000" stroke-width="5.307" stroke="black" fill="none" stroke-linecap="round"></path><path d="M 281.000,207.000 C 284.000,207.000 283.789,207.761 287.000,207.000" stroke-width="5.369" stroke="black" fill="none" stroke-linecap="round"></path><path d="M 287.000,207.000 C 290.101,207.527 290.000,207.000 293.000,207.000" stroke-width="5.366" stroke="black" fill="none" stroke-linecap="round"></path><path d="M 293.000,207.000 C 295.599,206.200 295.601,206.527 298.000,205.000" stroke-width="5.490" stroke="black" fill="none" stroke-linecap="round"></path><path d="M 298.000,205.000 C 300.716,203.777 300.599,203.700 303.000,202.000" stroke-width="5.539" stroke="black" fill="none" stroke-linecap="round"></path><path d="M 303.000,202.000 C 305.110,200.100 305.216,200.277 307.000,198.000" stroke-width="5.584" stroke="black" fill="none" stroke-linecap="round"></path><path d="M 307.000,198.000 C 309.527,195.022 309.610,195.100 312.000,192.000" stroke-width="5.274" stroke="black" fill="none" stroke-linecap="round"></path><path d="M 312.000,192.000 C 313.973,189.478 314.027,189.522 316.000,187.000" stroke-width="4.884" stroke="black" fill="none" stroke-linecap="round"></path><path d="M 316.000,187.000 C 318.561,184.049 318.473,183.978 321.000,181.000" stroke-width="4.644" stroke="black" fill="none" stroke-linecap="round"></path><path d="M 321.000,181.000 C 324.324,176.345 324.561,176.549 328.000,172.000" stroke-width="4.310" stroke="black" fill="none" stroke-linecap="round"></path><path d="M 328.000,172.000 C 330.000,170.000 329.824,169.845 332.000,168.000" stroke-width="4.201" stroke="black" fill="none" stroke-linecap="round"></path><path d="M 332.000,168.000 C 334.500,165.500 334.500,165.500 337.000,163.000" stroke-width="4.086" stroke="black" fill="none" stroke-linecap="round"></path><path d="M 337.000,163.000 C 340.000,160.000 340.000,160.000 343.000,157.000" stroke-width="3.790" stroke="black" fill="none" stroke-linecap="round"></path><path d="M 343.000,157.000 C 346.124,154.115 346.000,154.000 349.000,151.000" stroke-width="3.763" stroke="black" fill="none" stroke-linecap="round"></path><path d="M 349.000,151.000 C 351.642,147.118 352.124,147.615 355.000,144.000" stroke-width="3.733" stroke="black" fill="none" stroke-linecap="round"></path><path d="M 355.000,144.000 C 359.098,141.122 358.642,140.618 363.000,138.000" stroke-width="3.597" stroke="black" fill="none" stroke-linecap="round"></path><path d="M 363.000,138.000 C 366.615,135.124 366.598,135.122 370.000,132.000" stroke-width="3.682" stroke="black" fill="none" stroke-linecap="round"></path><path d="M 370.000,132.000 C 372.787,128.754 373.115,129.124 376.000,126.000" stroke-width="3.824" stroke="black" fill="none" stroke-linecap="round"></path><path d="M 376.000,126.000 C 379.968,122.957 379.787,122.754 384.000,120.000" stroke-width="3.622" stroke="black" fill="none" stroke-linecap="round"></path><path d="M 384.000,120.000 C 387.532,117.543 387.468,117.457 391.000,115.000" stroke-width="3.700" stroke="black" fill="none" stroke-linecap="round"></path><path d="M 391.000,115.000 C 394.968,111.957 395.032,112.043 399.000,109.000" stroke-width="3.588" stroke="black" fill="none" stroke-linecap="round"></path><path d="M 399.000,109.000 C 402.500,106.500 402.468,106.457 406.000,104.000" stroke-width="3.637" stroke="black" fill="none" stroke-linecap="round"></path><path d="M 406.000,104.000 C 409.464,101.448 409.500,101.500 413.000,99.000" stroke-width="3.705" stroke="black" fill="none" stroke-linecap="round"></path><path d="M 413.000,99.000 C 416.147,97.194 415.964,96.948 419.000,95.000" stroke-width="3.824" stroke="black" fill="none" stroke-linecap="round"></path><path d="M 419.000,95.000 C 422.353,91.806 422.647,92.194 426.000,89.000" stroke-width="3.642" stroke="black" fill="none" stroke-linecap="round"></path><path d="M 426.000,89.000 C 429.087,87.119 428.853,86.806 432.000,85.000" stroke-width="3.852" stroke="black" fill="none" stroke-linecap="round"></path><path d="M 432.000,85.000 C 434.342,82.772 434.587,83.119 437.000,81.000" stroke-width="4.013" stroke="black" fill="none" stroke-linecap="round"></path><path d="M 437.000,81.000 C 441.869,77.736 441.842,77.772 447.000,75.000" stroke-width="4.134" stroke="black" fill="none" stroke-linecap="round"></path><path d="M 447.000,75.000 C 449.551,74.113 449.369,73.736 452.000,73.000" stroke-width="4.186" stroke="black" fill="none" stroke-linecap="round"></path><path d="M 452.000,73.000 C 454.912,71.287 455.051,71.613 458.000,70.000" stroke-width="4.532" stroke="black" fill="none" stroke-linecap="round"></path><path d="M 458.000,70.000 C 460.942,68.765 460.912,68.787 464.000,68.000" stroke-width="4.845" stroke="black" fill="none" stroke-linecap="round"></path><path d="M 464.000,68.000 C 467.000,67.500 466.942,67.265 470.000,67.000" stroke-width="4.963" stroke="black" fill="none" stroke-linecap="round"></path><path d="M 470.000,67.000 C 475.728,66.000 473.000,66.500 476.000,66.000" stroke-width="5.194" stroke="black" fill="none" stroke-linecap="round"></path><path d="M 476.000,66.000 C 473.432,66.270 476.228,66.000 471.000,67.000" stroke-width="5.408" stroke="black" fill="none" stroke-linecap="round"></path><path d="M 471.000,67.000 C 468.351,67.717 468.432,67.770 466.000,69.000" stroke-width="5.165" stroke="black" fill="none" stroke-linecap="round"></path><path d="M 466.000,69.000 C 463.041,71.065 462.851,70.717 460.000,73.000" stroke-width="4.988" stroke="black" fill="none" stroke-linecap="round"></path><path d="M 460.000,73.000 C 457.565,74.619 457.541,74.565 455.000,76.000" stroke-width="5.023" stroke="black" fill="none" stroke-linecap="round"></path><path d="M 455.000,76.000 C 450.701,77.533 451.065,78.119 447.000,80.000" stroke-width="4.610" stroke="black" fill="none" stroke-linecap="round"></path><path d="M 447.000,80.000 C 442.085,84.112 441.701,83.533 437.000,88.000" stroke-width="4.205" stroke="black" fill="none" stroke-linecap="round"></path><path d="M 437.000,88.000 C 433.500,90.500 433.585,90.612 430.000,93.000" stroke-width="3.865" stroke="black" fill="none" stroke-linecap="round"></path><path d="M 430.000,93.000 C 426.379,95.345 426.500,95.500 423.000,98.000" stroke-width="3.773" stroke="black" fill="none" stroke-linecap="round"></path><path d="M 423.000,98.000 C 419.519,101.022 419.379,100.845 416.000,104.000" stroke-width="3.684" stroke="black" fill="none" stroke-linecap="round"></path><path d="M 416.000,104.000 C 412.750,106.250 413.019,106.522 410.000,109.000" stroke-width="3.848" stroke="black" fill="none" stroke-linecap="round"></path><path d="M 410.000,109.000 C 407.624,112.113 407.250,111.750 405.000,115.000" stroke-width="3.800" stroke="black" fill="none" stroke-linecap="round"></path><path d="M 405.000,115.000 C 402.362,117.376 402.624,117.613 400.000,120.000" stroke-width="3.919" stroke="black" fill="none" stroke-linecap="round"></path><path d="M 400.000,120.000 C 398.124,122.611 397.862,122.376 396.000,125.000" stroke-width="4.034" stroke="black" fill="none" stroke-linecap="round"></path><path d="M 396.000,125.000 C 393.723,126.784 394.124,127.111 392.000,129.000" stroke-width="4.119" stroke="black" fill="none" stroke-linecap="round"></path><path d="M 392.000,129.000 C 390.657,131.606 390.223,131.284 389.000,134.000" stroke-width="4.121" stroke="black" fill="none" stroke-linecap="round"></path><path d="M 389.000,134.000 C 385.843,137.894 386.157,138.106 383.000,142.000" stroke-width="4.276" stroke="black" fill="none" stroke-linecap="round"></path><path d="M 383.000,142.000 C 381.301,144.398 381.343,144.394 380.000,147.000" stroke-width="4.214" stroke="black" fill="none" stroke-linecap="round"></path><path d="M 380.000,147.000 C 378.610,150.551 378.301,150.398 377.000,154.000" stroke-width="4.457" stroke="black" fill="none" stroke-linecap="round"></path><path d="M 377.000,154.000 C 374.904,157.955 375.110,158.051 373.000,162.000" stroke-width="4.435" stroke="black" fill="none" stroke-linecap="round"></path><path d="M 373.000,162.000 C 370.725,166.400 370.904,166.455 369.000,171.000" stroke-width="4.383" stroke="black" fill="none" stroke-linecap="round"></path><path d="M 369.000,171.000 C 367.476,174.427 367.725,174.400 367.000,178.000" stroke-width="4.521" stroke="black" fill="none" stroke-linecap="round"></path><path d="M 367.000,178.000 C 366.695,182.030 366.476,181.927 367.000,186.000" stroke-width="4.746" stroke="black" fill="none" stroke-linecap="round"></path><path d="M 367.000,186.000 C 366.489,189.273 367.195,188.530 368.000,191.000" stroke-width="4.820" stroke="black" fill="none" stroke-linecap="round"></path><path d="M 368.000,191.000 C 370.860,192.879 369.989,193.273 374.000,194.000" stroke-width="4.917" stroke="black" fill="none" stroke-linecap="round"></path><path d="M 374.000,194.000 C 377.933,195.548 377.860,195.379 382.000,196.000" stroke-width="4.637" stroke="black" fill="none" stroke-linecap="round"></path><path d="M 382.000,196.000 C 387.000,196.000 386.933,196.548 392.000,196.000" stroke-width="4.408" stroke="black" fill="none" stroke-linecap="round"></path><path d="M 392.000,196.000 C 395.512,196.218 395.500,196.000 399.000,196.000" stroke-width="4.103" stroke="black" fill="none" stroke-linecap="round"></path><path d="M 399.000,196.000 C 403.532,195.705 403.512,195.718 408.000,195.000" stroke-width="3.731" stroke="black" fill="none" stroke-linecap="round"></path><path d="M 408.000,195.000 C 413.059,194.235 413.032,194.205 418.000,193.000" stroke-width="3.578" stroke="black" fill="none" stroke-linecap="round"></path><path d="M 418.000,193.000 C 423.112,191.801 423.059,191.735 428.000,190.000" stroke-width="3.454" stroke="black" fill="none" stroke-linecap="round"></path><path d="M 428.000,190.000 C 432.545,188.096 432.612,188.301 437.000,186.000" stroke-width="3.529" stroke="black" fill="none" stroke-linecap="round"></path><path d="M 437.000,186.000 C 441.049,184.092 441.045,184.096 445.000,182.000" stroke-width="3.584" stroke="black" fill="none" stroke-linecap="round"></path><path d="M 445.000,182.000 C 449.564,179.609 449.549,179.592 454.000,177.000" stroke-width="3.469" stroke="black" fill="none" stroke-linecap="round"></path><path d="M 454.000,177.000 C 458.315,174.896 458.064,174.609 462.000,172.000" stroke-width="3.621" stroke="black" fill="none" stroke-linecap="round"></path><path d="M 462.000,172.000 C 465.000,169.000 465.315,169.396 468.000,166.000" stroke-width="3.712" stroke="black" fill="none" stroke-linecap="round"></path><path d="M 468.000,166.000 C 471.436,163.333 471.000,163.000 474.000,160.000" stroke-width="3.740" stroke="black" fill="none" stroke-linecap="round"></path><path d="M 474.000,160.000 C 476.301,156.641 476.436,156.833 478.000,153.000" stroke-width="3.793" stroke="black" fill="none" stroke-linecap="round"></path><path d="M 478.000,153.000 C 479.414,148.965 479.801,149.141 481.000,145.000" stroke-width="3.704" stroke="black" fill="none" stroke-linecap="round"></path><path d="M 481.000,145.000 C 482.722,141.579 482.414,141.465 484.000,138.000" stroke-width="3.829" stroke="black" fill="none" stroke-linecap="round"></path><path d="M 484.000,138.000 C 485.062,134.517 485.222,134.579 486.000,131.000" stroke-width="3.855" stroke="black" fill="none" stroke-linecap="round"></path><path d="M 486.000,131.000 C 486.633,126.874 487.062,127.017 488.000,123.000" stroke-width="3.857" stroke="black" fill="none" stroke-linecap="round"></path><path d="M 488.000,123.000 C 490.367,118.626 489.633,118.374 492.000,114.000" stroke-width="3.699" stroke="black" fill="none" stroke-linecap="round"></path><path d="M 492.000,114.000 C 493.000,110.000 493.367,110.126 494.000,106.000" stroke-width="3.708" stroke="black" fill="none" stroke-linecap="round"></path><path d="M 494.000,106.000 C 495.242,102.045 495.000,102.000 496.000,98.000" stroke-width="3.711" stroke="black" fill="none" stroke-linecap="round"></path><path d="M 496.000,98.000 C 496.732,94.014 496.742,94.045 497.000,90.000" stroke-width="3.783" stroke="black" fill="none" stroke-linecap="round"></path><path d="M 497.000,90.000 C 496.732,86.478 497.232,86.514 497.000,83.000" stroke-width="3.873" stroke="black" fill="none" stroke-linecap="round"></path><path d="M 497.000,83.000 C 497.265,79.942 497.232,79.978 498.000,77.000" stroke-width="4.058" stroke="black" fill="none" stroke-linecap="round"></path><path d="M 498.000,77.000 C 499.170,74.045 498.765,73.942 500.000,71.000" stroke-width="4.039" stroke="black" fill="none" stroke-linecap="round"></path><path d="M 500.000,71.000 C 500.544,68.508 500.670,68.545 501.000,66.000" stroke-width="4.237" stroke="black" fill="none" stroke-linecap="round"></path><path d="M 501.000,66.000 C 501.768,59.768 501.544,63.008 502.000,60.000" stroke-width="4.583" stroke="black" fill="none" stroke-linecap="round"></path><path d="M 502.000,60.000 C 502.000,63.500 502.268,60.268 502.000,67.000" stroke-width="5.053" stroke="black" fill="none" stroke-linecap="round"></path><path d="M 502.000,67.000 C 502.000,72.000 502.000,72.000 502.000,77.000" stroke-width="4.559" stroke="black" fill="none" stroke-linecap="round"></path><path d="M 502.000,77.000 C 502.579,81.561 502.000,81.500 502.000,86.000" stroke-width="3.842" stroke="black" fill="none" stroke-linecap="round"></path><path d="M 502.000,86.000 C 501.052,93.162 501.079,93.061 499.000,100.000" stroke-width="3.375" stroke="black" fill="none" stroke-linecap="round"></path><path d="M 499.000,100.000 C 496.528,108.238 496.552,108.162 493.000,116.000" stroke-width="2.955" stroke="black" fill="none" stroke-linecap="round"></path><path d="M 493.000,116.000 C 488.393,124.445 489.028,124.738 484.000,133.000" stroke-width="2.726" stroke="black" fill="none" stroke-linecap="round"></path><path d="M 484.000,133.000 C 479.000,143.000 478.893,142.945 474.000,153.000" stroke-width="2.449" stroke="black" fill="none" stroke-linecap="round"></path><path d="M 474.000,153.000 C 469.402,161.952 469.500,162.000 465.000,171.000" stroke-width="2.536" stroke="black" fill="none" stroke-linecap="round"></path><path d="M 465.000,171.000 C 460.292,180.407 460.402,180.452 456.000,190.000" stroke-width="2.521" stroke="black" fill="none" stroke-linecap="round"></path><path d="M 456.000,190.000 C 452.598,199.803 451.792,199.407 448.000,209.000" stroke-width="2.536" stroke="black" fill="none" stroke-linecap="round"></path><path d="M 448.000,209.000 C 444.004,216.851 444.098,216.803 439.000,224.000" stroke-width="2.697" stroke="black" fill="none" stroke-linecap="round"></path><path d="M 439.000,224.000 C 433.859,232.386 433.504,231.851 427.000,239.000" stroke-width="2.714" stroke="black" fill="none" stroke-linecap="round"></path><path d="M 427.000,239.000 C 419.532,245.881 419.859,245.886 411.000,251.000" stroke-width="2.622" stroke="black" fill="none" stroke-linecap="round"></path><path d="M 411.000,251.000 C 401.551,255.612 402.032,256.381 392.000,260.000" stroke-width="2.603" stroke="black" fill="none" stroke-linecap="round"></path><path d="M 392.000,260.000 C 383.169,264.434 383.051,264.112 374.000,268.000" stroke-width="2.545" stroke="black" fill="none" stroke-linecap="round"></path><path d="M 374.000,268.000 C 365.053,271.171 365.169,271.434 356.000,274.000" stroke-width="2.623" stroke="black" fill="none" stroke-linecap="round"></path><path d="M 356.000,274.000 C 349.059,276.235 349.053,276.171 342.000,278.000" stroke-width="2.840" stroke="black" fill="none" stroke-linecap="round"></path><path d="M 342.000,278.000 C 335.070,279.990 335.059,279.735 328.000,281.000" stroke-width="2.986" stroke="black" fill="none" stroke-linecap="round"></path><path d="M 328.000,281.000 C 320.997,281.462 321.070,281.990 314.000,282.000" stroke-width="3.052" stroke="black" fill="none" stroke-linecap="round"></path><path d="M 314.000,282.000 C 307.923,283.677 307.997,282.462 302.000,283.000" stroke-width="3.217" stroke="black" fill="none" stroke-linecap="round"></path><path d="M 302.000,283.000 C 290.280,281.173 290.423,281.677 279.000,278.000" stroke-width="2.495" stroke="black" fill="none" stroke-linecap="round"></path><path d="M 279.000,278.000 C 273.769,276.827 274.280,276.673 270.000,274.000" stroke-width="3.197" stroke="black" fill="none" stroke-linecap="round"></path><path d="M 270.000,274.000 C 267.552,271.762 267.769,272.327 267.000,269.000" stroke-width="3.793" stroke="black" fill="none" stroke-linecap="round"></path><path d="M 267.000,269.000 C 264.539,262.868 266.052,264.262 267.000,259.000" stroke-width="4.145" stroke="black" fill="none" stroke-linecap="round"></path><path d="M 267.000,259.000 C 273.707,252.626 271.539,251.868 281.000,247.000" stroke-width="3.014" stroke="black" fill="none" stroke-linecap="round"></path><path d="M 281.000,247.000 C 291.075,238.828 291.207,239.126 302.000,232.000" stroke-width="2.422" stroke="black" fill="none" stroke-linecap="round"></path><path d="M 302.000,232.000 C 315.244,223.999 315.075,223.828 329.000,217.000" stroke-width="2.047" stroke="black" fill="none" stroke-linecap="round"></path><path d="M 329.000,217.000 C 343.714,209.309 343.744,209.499 359.000,203.000" stroke-width="1.948" stroke="black" fill="none" stroke-linecap="round"></path><path d="M 359.000,203.000 C 375.603,197.269 375.214,196.309 392.000,191.000" stroke-width="1.867" stroke="black" fill="none" stroke-linecap="round"></path><path d="M 392.000,191.000 C 409.356,183.616 409.603,184.269 427.000,177.000" stroke-width="1.729" stroke="black" fill="none" stroke-linecap="round"></path><path d="M 427.000,177.000 C 445.424,170.276 445.356,170.116 464.000,164.000" stroke-width="1.757" stroke="black" fill="none" stroke-linecap="round"></path><path d="M 464.000,164.000 C 482.338,157.443 482.424,157.776 501.000,152.000" stroke-width="1.724" stroke="black" fill="none" stroke-linecap="round"></path><path d="M 501.000,152.000 C 518.471,147.382 518.338,146.943 536.000,143.000" stroke-width="1.726" stroke="black" fill="none" stroke-linecap="round"></path><path d="M 536.000,143.000 C 550.358,138.711 550.471,139.382 565.000,136.000" stroke-width="1.886" stroke="black" fill="none" stroke-linecap="round"></path><path d="M 565.000,136.000 C 577.549,134.822 577.358,133.711 590.000,133.000" stroke-width="2.137" stroke="black" fill="none" stroke-linecap="round"></path><path d="M 590.000,133.000 C 597.997,131.482 598.049,131.822 606.000,130.000" stroke-width="2.604" stroke="black" fill="none" stroke-linecap="round"></path><path d="M 606.000,130.000 C 615.381,128.971 611.497,128.982 617.000,128.000" stroke-width="3.062" stroke="black" fill="none" stroke-linecap="round"></path><path d="M 617.000,128.000 C 614.006,127.000 617.881,127.471 611.000,127.000" stroke-width="4.251" stroke="black" fill="none" stroke-linecap="round"></path></svg>