<svg xmlns="http://www.w3.org/2000/svg" xmlns:xlink="http://www.w3.org/1999/xlink" viewBox="0 0 724 414" width="724" height="414"><path d="M 182.000,196.000 C 176.831,191.777 176.500,192.500 171.000,189.000" stroke-width="3.732" stroke="black" fill="none" stroke-linecap="round"></path><path d="M 171.000,189.000 C 165.949,187.650 166.331,186.777 161.000,186.000" stroke-width="4.133" stroke="black" fill="none" stroke-linecap="round"></path><path d="M 161.000,186.000 C 157.028,184.422 156.949,184.650 153.000,183.000" stroke-width="3.795" stroke="black" fill="none" stroke-linecap="round"></path><path d="M 153.000,183.000 C 148.477,181.567 148.528,181.422 144.000,180.000" stroke-width="3.607" stroke="black" fill="none" stroke-linecap="round"></path><path d="M 144.000,180.000 C 138.320,178.394 138.477,178.067 133.000,176.000" stroke-width="3.348" stroke="black" fill="none" stroke-linecap="round"></path><path d="M 133.000,176.000 C 128.436,173.609 128.320,173.894 124.000,171.000" stroke-width="3.506" stroke="black" fill="none" stroke-linecap="round"></path><path d="M 124.000,171.000 C 120.044,168.426 119.936,168.609 116.000,166.000" stroke-width="3.583" stroke="black" fill="none" stroke-linecap="round"></path><path d="M 116.000,166.000 C 112.482,164.031 112.544,163.926 109.000,162.000" stroke-width="3.789" stroke="black" fill="none" stroke-linecap="round"></path><path d="M 109.000,162.000 C 106.000,161.000 106.482,160.531 104.000,159.000" stroke-width="4.100" stroke="black" fill="none" stroke-linecap="round"></path><path d="M 104.000,159.000 C 99.884,155.673 102.000,157.000 101.000,154.000" stroke-width="4.539" stroke="black" fill="none" stroke-linecap="round"></path><path d="M 101.000,154.000 C 105.374,151.633 102.884,151.173 110.000,150.000" stroke-width="4.661" stroke="black" fill="none" stroke-linecap="round"></path><path d="M 110.000,150.000 C 113.944,148.676 113.874,148.633 118.000,148.000" stroke-width="4.068" stroke="black" fill="none" stroke-linecap="round"></path><path d="M 118.000,148.000 C 123.088,147.982 122.944,147.176 128.000,147.000" stroke-width="3.680" stroke="black" fill="none" stroke-linecap="round"></path><path d="M 128.000,147.000 C 135.528,145.101 135.588,145.482 143.000,143.000" stroke-width="3.129" stroke="black" fill="none" stroke-linecap="round"></path><path d="M 143.000,143.000 C 151.767,141.202 151.528,140.601 160.000,138.000" stroke-width="2.857" stroke="black" fill="none" stroke-linecap="round"></path><path d="M 160.000,138.000 C 169.550,133.604 169.767,134.202 179.000,129.000" stroke-width="2.668" stroke="black" fill="none" stroke-linecap="round"></path><path d="M 179.000,129.000 C 189.238,124.424 189.050,124.104 199.000,119.000" stroke-width="2.496" stroke="black" fill="none" stroke-linecap="round"></path><path d="M 199.000,119.000 C 206.912,113.853 207.238,114.424 215.000,109.000" stroke-width="2.555" stroke="black" fill="none" stroke-linecap="round"></path><path d="M 215.000,109.000 C 222.170,105.269 221.912,104.853 229.000,101.000" stroke-width="2.830" stroke="black" fill="none" stroke-linecap="round"></path><path d="M 229.000,101.000 C 233.923,97.384 234.170,97.769 239.000,94.000" stroke-width="3.127" stroke="black" fill="none" stroke-linecap="round"></path><path d="M 239.000,94.000 C 242.983,91.472 242.923,91.384 247.000,89.000" stroke-width="3.455" stroke="black" fill="none" stroke-linecap="round"></path><path d="M 247.000,89.000 C 251.790,85.161 249.483,87.472 252.000,86.000" stroke-width="4.274" stroke="black" fill="none" stroke-linecap="round"></path><path d="M 252.000,86.000 C 250.410,89.787 252.290,87.161 248.000,93.000" stroke-width="4.041" stroke="black" fill="none" stroke-linecap="round"></path><path d="M 248.000,93.000 C 242.705,99.683 242.910,99.787 237.000,106.000" stroke-width="3.020" stroke="black" fill="none" stroke-linecap="round"></path><path d="M 237.000,106.000 C 228.500,115.000 228.705,115.183 220.000,124.000" stroke-width="2.532" stroke="black" fill="none" stroke-linecap="round"></path><path d="M 220.000,124.000 C 211.629,133.125 211.500,133.000 203.000,142.000" stroke-width="2.415" stroke="black" fill="none" stroke-linecap="round"></path><path d="M 203.000,142.000 C 194.559,151.636 194.129,151.125 185.000,160.000" stroke-width="2.299" stroke="black" fill="none" stroke-linecap="round"></path><path d="M 185.000,160.000 C 174.207,168.782 174.559,169.136 163.000,177.000" stroke-width="2.059" stroke="black" fill="none" stroke-linecap="round"></path><path d="M 163.000,177.000 C 151.574,185.109 151.707,185.282 140.000,193.000" stroke-width="2.104" stroke="black" fill="none" stroke-linecap="round"></path><path d="M 140.000,193.000 C 129.539,200.060 129.574,200.109 119.000,207.000" stroke-width="2.214" stroke="black" fill="none" stroke-linecap="round"></path><path d="M 119.000,207.000 C 109.006,213.510 109.039,213.560 99.000,220.000" stroke-width="2.245" stroke="black" fill="none" stroke-linecap="round"></path><path d="M 99.000,220.000 C 90.507,225.511 90.506,225.510 82.000,231.000" stroke-width="2.461" stroke="black" fill="none" stroke-linecap="round"></path><path d="M 82.000,231.000 C 75.009,235.514 75.007,235.511 68.000,240.000" stroke-width="2.716" stroke="black" fill="none" stroke-linecap="round"></path><path d="M 68.000,240.000 C 62.819,244.243 62.509,243.514 57.000,247.000" stroke-width="2.973" stroke="black" fill="none" stroke-linecap="round"></path><path d="M 57.000,247.000 C 53.016,248.691 53.319,248.743 49.000,249.000" stroke-width="3.500" stroke="black" fill="none" stroke-linecap="round"></path><path d="M 49.000,249.000 C 45.054,249.686 46.516,249.191 44.000,248.000" stroke-width="4.360" stroke="black" fill="none" stroke-linecap="round"></path><path d="M 44.000,248.000 C 43.475,244.415 42.554,245.686 44.000,241.000" stroke-width="4.037" stroke="black" fill="none" stroke-linecap="round"></path><path d="M 44.000,241.000 C 44.135,237.425 44.475,237.915 46.000,235.000" stroke-width="4.033" stroke="black" fill="none" stroke-linecap="round"></path><path d="M 46.000,235.000 C 50.015,231.517 49.135,230.925 54.000,228.000" stroke-width="3.552" stroke="black" fill="none" stroke-linecap="round"></path><path d="M 54.000,228.000 C 58.000,223.261 58.515,224.017 63.000,220.000" stroke-width="3.367" stroke="black" fill="none" stroke-linecap="round"></path><path d="M 63.000,220.000 C 70.097,216.682 69.500,215.761 77.000,213.000" stroke-width="2.982" stroke="black" fill="none" stroke-linecap="round"></path><path d="M 77.000,213.000 C 84.798,208.101 85.097,208.682 93.000,204.000" stroke-width="2.782" stroke="black" fill="none" stroke-linecap="round"></path><path d="M 93.000,204.000 C 102.960,199.408 102.798,199.101 113.000,195.000" stroke-width="2.546" stroke="black" fill="none" stroke-linecap="round"></path><path d="M 113.000,195.000 C 123.552,190.617 123.460,190.408 134.000,186.000" stroke-width="2.442" stroke="black" fill="none" stroke-linecap="round"></path><path d="M 134.000,186.000 C 144.909,180.789 145.052,181.117 156.000,176.000" stroke-width="2.357" stroke="black" fill="none" stroke-linecap="round"></path><path d="M 156.000,176.000 C 166.848,171.080 166.909,171.289 178.000,167.000" stroke-width="2.291" stroke="black" fill="none" stroke-linecap="round"></path><path d="M 178.000,167.000 C 187.496,163.987 187.348,163.580 197.000,161.000" stroke-width="2.492" stroke="black" fill="none" stroke-linecap="round"></path><path d="M 197.000,161.000 C 204.926,158.227 204.996,158.487 213.000,156.000" stroke-width="2.721" stroke="black" fill="none" stroke-linecap="round"></path><path d="M 213.000,156.000 C 219.495,154.478 219.426,154.227 226.000,153.000" stroke-width="3.009" stroke="black" fill="none" stroke-linecap="round"></path><path d="M 226.000,153.000 C 233.737,152.263 230.495,151.978 235.000,151.000" stroke-width="3.380" stroke="black" fill="none" stroke-linecap="round"></path><path d="M 235.000,151.000 C 232.636,149.293 235.737,150.263 230.000,149.000" stroke-width="4.477" stroke="black" fill="none" stroke-linecap="round"></path><path d="M 230.000,149.000 C 223.432,148.311 223.636,148.293 217.000,149.000" stroke-width="3.489" stroke="black" fill="none" stroke-linecap="round"></path><path d="M 217.000,149.000 C 209.295,149.811 209.432,149.811 202.000,152.000" stroke-width="3.036" stroke="black" fill="none" stroke-linecap="round"></path><path d="M 202.000,152.000 C 194.397,154.764 194.295,154.311 187.000,158.000" stroke-width="2.928" stroke="black" fill="none" stroke-linecap="round"></path><path d="M 187.000,158.000 C 178.182,161.428 178.397,161.764 170.000,166.000" stroke-width="2.857" stroke="black" fill="none" stroke-linecap="round"></path><path d="M 170.000,166.000 C 161.287,171.199 161.182,170.928 153.000,177.000" stroke-width="2.585" stroke="black" fill="none" stroke-linecap="round"></path><path d="M 153.000,177.000 C 146.214,181.674 146.287,181.699 140.000,187.000" stroke-width="2.773" stroke="black" fill="none" stroke-linecap="round"></path><path d="M 140.000,187.000 C 135.388,190.596 135.714,190.674 132.000,195.000" stroke-width="3.119" stroke="black" fill="none" stroke-linecap="round"></path><path d="M 132.000,195.000 C 129.145,198.076 130.388,197.096 130.000,200.000" stroke-width="3.845" stroke="black" fill="none" stroke-linecap="round"></path><path d="M 130.000,200.000 C 132.622,203.249 131.145,202.576 136.000,204.000" stroke-width="4.370" stroke="black" fill="none" stroke-linecap="round"></path><path d="M 136.000,204.000 C 142.000,204.000 141.622,205.249 148.000,204.000" stroke-width="3.491" stroke="black" fill="none" stroke-linecap="round"></path><path d="M 148.000,204.000 C 156.026,204.469 156.000,204.000 164.000,204.000" stroke-width="2.987" stroke="black" fill="none" stroke-linecap="round"></path><path d="M 164.000,204.000 C 173.126,203.679 173.026,203.469 182.000,202.000" stroke-width="2.856" stroke="black" fill="none" stroke-linecap="round"></path><path d="M 182.000,202.000 C 191.671,200.018 191.626,200.179 201.000,197.000" stroke-width="2.616" stroke="black" fill="none" stroke-linecap="round"></path><path d="M 201.000,197.000 C 208.801,194.599 208.671,194.518 216.000,191.000" stroke-width="2.741" stroke="black" fill="none" stroke-linecap="round"></path><path d="M 216.000,191.000 C 223.105,187.716 222.801,187.599 229.000,183.000" stroke-width="2.836" stroke="black" fill="none" stroke-linecap="round"></path><path d="M 229.000,183.000 C 232.934,179.292 233.105,179.716 236.000,175.000" stroke-width="3.246" stroke="black" fill="none" stroke-linecap="round"></path><path d="M 236.000,175.000 C 238.208,172.167 237.934,172.292 239.000,169.000" stroke-width="3.760" stroke="black" fill="none" stroke-linecap="round"></path><path d="M 239.000,169.000 C 240.606,165.007 239.708,166.167 239.000,163.000" stroke-width="4.030" stroke="black" fill="none" stroke-linecap="round"></path><path d="M 239.000,163.000 C 235.223,160.056 236.606,160.007 231.000,159.000" stroke-width="4.317" stroke="black" fill="none" stroke-linecap="round"></path><path d="M 231.000,159.000 C 227.000,159.000 227.223,158.056 223.000,159.000" stroke-width="3.904" stroke="black" fill="none" stroke-linecap="round"></path><path d="M 223.000,159.000 C 217.943,158.480 218.000,159.000 213.000,159.000" stroke-width="3.643" stroke="black" fill="none" stroke-linecap="round"></path><path d="M 213.000,159.000 C 208.252,159.346 208.443,159.480 204.000,161.000" stroke-width="3.591" stroke="black" fill="none" stroke-linecap="round"></path><path d="M 204.000,161.000 C 199.182,163.048 199.252,162.846 195.000,166.000" stroke-width="3.471" stroke="black" fill="none" stroke-linecap="round"></path><path d="M 195.000,166.000 C 190.747,169.253 190.682,169.048 187.000,173.000" stroke-width="3.407" stroke="black" fill="none" stroke-linecap="round"></path><path d="M 187.000,173.000 C 184.214,175.802 184.247,175.753 182.000,179.000" stroke-width="4.065" stroke="black" fill="none" stroke-linecap="round"></path><path d="M 182.000,179.000 C 179.425,182.295 179.714,182.302 178.000,186.000" stroke-width="3.887" stroke="black" fill="none" stroke-linecap="round"></path><path d="M 178.000,186.000 C 177.232,188.978 176.925,188.795 177.000,192.000" stroke-width="4.063" stroke="black" fill="none" stroke-linecap="round"></path><path d="M 177.000,192.000 C 175.554,196.686 176.732,195.478 177.000,199.000" stroke-width="4.481" stroke="black" fill="none" stroke-linecap="round"></path><path d="M 177.000,199.000 C 179.482,199.613 178.054,200.686 182.000,200.000" stroke-width="4.412" stroke="black" fill="none" stroke-linecap="round"></path><path d="M 182.000,200.000 C 185.980,201.000 185.982,200.613 190.000,201.000" stroke-width="3.977" stroke="black" fill="none" stroke-linecap="round"></path><path d="M 190.000,201.000 C 201.328,202.019 200.980,201.000 212.000,200.000" stroke-width="2.769" stroke="black" fill="none" stroke-linecap="round"></path><path d="M 212.000,200.000 C 219.691,197.411 219.828,198.519 227.000,194.000" stroke-width="2.790" stroke="black" fill="none" stroke-linecap="round"></path><path d="M 227.000,194.000 C 234.720,190.368 234.691,190.411 242.000,186.000" stroke-width="2.806" stroke="black" fill="none" stroke-linecap="round"></path><path d="M 242.000,186.000 C 249.669,181.236 249.720,181.368 257.000,176.000" stroke-width="2.752" stroke="black" fill="none" stroke-linecap="round"></path><path d="M 257.000,176.000 C 263.411,170.880 263.669,171.236 270.000,166.000" stroke-width="2.883" stroke="black" fill="none" stroke-linecap="round"></path><path d="M 270.000,166.000 C 277.333,161.417 276.911,160.880 284.000,156.000" stroke-width="2.821" stroke="black" fill="none" stroke-linecap="round"></path><path d="M 284.000,156.000 C 293.000,148.000 293.333,148.417 302.000,140.000" stroke-width="2.392" stroke="black" fill="none" stroke-linecap="round"></path><path d="M 302.000,140.000 C 311.227,132.241 311.000,132.000 320.000,124.000" stroke-width="2.347" stroke="black" fill="none" stroke-linecap="round"></path><path d="M 320.000,124.000 C 327.768,116.749 327.727,116.741 335.000,109.000" stroke-width="2.396" stroke="black" fill="none" stroke-linecap="round"></path><path d="M 335.000,109.000 C 341.590,101.576 341.768,101.749 348.000,94.000" stroke-width="2.532" stroke="black" fill="none" stroke-linecap="round"></path><path d="M 348.000,94.000 C 352.793,88.710 352.590,88.576 357.000,83.000" stroke-width="2.882" stroke="black" fill="none" stroke-linecap="round"></path><path d="M 357.000,83.000 C 360.176,79.256 359.793,79.210 362.000,75.000" stroke-width="3.312" stroke="black" fill="none" stroke-linecap="round"></path><path d="M 362.000,75.000 C 364.909,69.795 363.176,72.256 363.000,69.000" stroke-width="4.291" stroke="black" fill="none" stroke-linecap="round"></path><path d="M 363.000,69.000 C 355.875,67.740 358.909,67.295 350.000,70.000" stroke-width="4.106" stroke="black" fill="none" stroke-linecap="round"></path><path d="M 350.000,70.000 C 343.350,74.296 342.875,72.740 337.000,79.000" stroke-width="3.120" stroke="black" fill="none" stroke-linecap="round"></path><path d="M 337.000,79.000 C 329.595,84.043 329.850,84.296 323.000,90.000" stroke-width="2.850" stroke="black" fill="none" stroke-linecap="round"></path><path d="M 323.000,90.000 C 314.375,98.379 314.095,98.043 306.000,107.000" stroke-width="2.400" stroke="black" fill="none" stroke-linecap="round"></path><path d="M 306.000,107.000 C 296.961,115.546 297.375,115.879 289.000,125.000" stroke-width="2.322" stroke="black" fill="none" stroke-linecap="round"></path><path d="M 289.000,125.000 C 281.709,135.164 280.961,134.546 274.000,145.000" stroke-width="2.290" stroke="black" fill="none" stroke-linecap="round"></path><path d="M 274.000,145.000 C 266.878,153.403 267.209,153.664 260.000,162.000" stroke-width="2.400" stroke="black" fill="none" stroke-linecap="round"></path><path d="M 260.000,162.000 C 254.460,168.162 254.878,168.403 250.000,175.000" stroke-width="2.652" stroke="black" fill="none" stroke-linecap="round"></path><path d="M 250.000,175.000 C 247.362,179.938 246.960,179.662 245.000,185.000" stroke-width="3.176" stroke="black" fill="none" stroke-linecap="round"></path><path d="M 245.000,185.000 C 241.840,188.454 243.862,187.438 243.000,190.000" stroke-width="3.871" stroke="black" fill="none" stroke-linecap="round"></path><path d="M 243.000,190.000 C 246.836,192.405 244.840,192.454 251.000,193.000" stroke-width="4.288" stroke="black" fill="none" stroke-linecap="round"></path><path d="M 251.000,193.000 C 257.966,194.886 257.336,193.905 264.000,193.000" stroke-width="3.453" stroke="black" fill="none" stroke-linecap="round"></path><path d="M 264.000,193.000 C 273.831,188.550 273.966,189.886 283.000,183.000" stroke-width="2.780" stroke="black" fill="none" stroke-linecap="round"></path><path d="M 283.000,183.000 C 292.500,176.500 292.831,177.050 302.000,170.000" stroke-width="2.494" stroke="black" fill="none" stroke-linecap="round"></path><path d="M 302.000,170.000 C 311.423,163.385 311.500,163.500 321.000,157.000" stroke-width="2.420" stroke="black" fill="none" stroke-linecap="round"></path><path d="M 321.000,157.000 C 332.274,149.106 332.423,149.385 344.000,142.000" stroke-width="2.225" stroke="black" fill="none" stroke-linecap="round"></path><path d="M 344.000,142.000 C 354.527,135.066 348.774,139.106 354.000,137.000" stroke-width="3.008" stroke="black" fill="none" stroke-linecap="round"></path><path d="M 354.000,137.000 C 348.260,145.740 353.027,140.566 341.000,153.000" stroke-width="3.668" stroke="black" fill="none" stroke-linecap="round"></path><path d="M 341.000,153.000 C 330.289,161.766 331.260,162.740 320.000,171.000" stroke-width="2.373" stroke="black" fill="none" stroke-linecap="round"></path><path d="M 320.000,171.000 C 311.060,179.565 310.789,179.266 302.000,188.000" stroke-width="2.255" stroke="black" fill="none" stroke-linecap="round"></path><path d="M 302.000,188.000 C 296.572,193.083 296.560,193.065 291.000,198.000" stroke-width="2.730" stroke="black" fill="none" stroke-linecap="round"></path><path d="M 291.000,198.000 C 283.115,203.628 288.072,200.583 285.000,203.000" stroke-width="3.389" stroke="black" fill="none" stroke-linecap="round"></path><path d="M 285.000,203.000 C 296.045,198.925 290.615,201.128 306.000,193.000" stroke-width="3.692" stroke="black" fill="none" stroke-linecap="round"></path><path d="M 306.000,193.000 C 316.500,185.500 317.045,186.425 327.000,178.000" stroke-width="2.534" stroke="black" fill="none" stroke-linecap="round"></path><path d="M 327.000,178.000 C 337.500,170.500 337.500,170.500 348.000,163.000" stroke-width="2.255" stroke="black" fill="none" stroke-linecap="round"></path><path d="M 348.000,163.000 C 354.980,157.972 355.000,158.000 362.000,153.000" stroke-width="2.656" stroke="black" fill="none" stroke-linecap="round"></path><path d="M 362.000,153.000 C 372.220,145.121 366.980,149.472 372.000,146.000" stroke-width="3.009" stroke="black" fill="none" stroke-linecap="round"></path><path d="M 372.000,146.000 C 366.500,151.500 371.720,147.121 361.000,157.000" stroke-width="3.952" stroke="black" fill="none" stroke-linecap="round"></path><path d="M 361.000,157.000 C 355.533,161.617 356.000,162.000 351.000,167.000" stroke-width="3.291" stroke="black" fill="none" stroke-linecap="round"></path><path d="M 351.000,167.000 C 347.670,171.327 347.533,171.117 345.000,176.000" stroke-width="3.336" stroke="black" fill="none" stroke-linecap="round"></path><path d="M 345.000,176.000 C 342.230,179.459 343.670,178.327 343.000,181.000" stroke-width="3.940" stroke="black" fill="none" stroke-linecap="round"></path><path d="M 343.000,181.000 C 345.546,182.409 343.730,182.459 348.000,182.000" stroke-width="4.537" stroke="black" fill="none" stroke-linecap="round"></path><path d="M 348.000,182.000 C 354.876,180.843 354.546,180.909 361.000,178.000" stroke-width="3.447" stroke="black" fill="none" stroke-linecap="round"></path><path d="M 361.000,178.000 C 368.455,173.423 368.876,174.343 376.000,169.000" stroke-width="2.945" stroke="black" fill="none" stroke-linecap="round"></path><path d="M 376.000,169.000 C 382.904,164.821 382.955,164.923 390.000,161.000" stroke-width="2.960" stroke="black" fill="none" stroke-linecap="round"></path><path d="M 390.000,161.000 C 395.883,157.718 395.904,157.821 402.000,155.000" stroke-width="3.087" stroke="black" fill="none" stroke-linecap="round"></path><path d="M 402.000,155.000 C 407.272,152.029 404.883,153.718 408.000,153.000" stroke-width="3.732" stroke="black" fill="none" stroke-linecap="round"></path><path d="M 408.000,153.000 C 406.934,156.292 408.772,154.029 405.000,159.000" stroke-width="4.507" stroke="black" fill="none" stroke-linecap="round"></path><path d="M 405.000,159.000 C 401.179,162.762 401.934,163.292 398.000,167.000" stroke-width="3.720" stroke="black" fill="none" stroke-linecap="round"></path><path d="M 398.000,167.000 C 395.338,170.909 395.179,170.762 393.000,175.000" stroke-width="3.591" stroke="black" fill="none" stroke-linecap="round"></path><path d="M 393.000,175.000 C 391.049,177.853 391.338,177.909 390.000,181.000" stroke-width="3.890" stroke="black" fill="none" stroke-linecap="round"></path><path d="M 390.000,181.000 C 387.514,186.151 389.049,183.853 389.000,187.000" stroke-width="4.440" stroke="black" fill="none" stroke-linecap="round"></path><path d="M 389.000,187.000 C 393.272,186.657 391.014,188.151 397.000,185.000" stroke-width="4.823" stroke="black" fill="none" stroke-linecap="round"></path><path d="M 397.000,185.000 C 402.251,182.364 402.272,182.657 407.000,179.000" stroke-width="3.742" stroke="black" fill="none" stroke-linecap="round"></path><path d="M 407.000,179.000 C 413.938,173.420 414.251,173.864 421.000,168.000" stroke-width="2.985" stroke="black" fill="none" stroke-linecap="round"></path><path d="M 421.000,168.000 C 435.475,156.967 435.438,156.920 450.000,146.000" stroke-width="2.417" stroke="black" fill="none" stroke-linecap="round"></path><path d="M 450.000,146.000 C 460.248,138.802 459.975,138.467 470.000,131.000" stroke-width="2.257" stroke="black" fill="none" stroke-linecap="round"></path><path d="M 470.000,131.000 C 474.866,126.344 475.248,126.802 480.000,122.000" stroke-width="2.854" stroke="black" fill="none" stroke-linecap="round"></path><path d="M 480.000,122.000 C 488.321,115.856 487.866,115.344 496.000,109.000" stroke-width="2.565" stroke="black" fill="none" stroke-linecap="round"></path><path d="M 496.000,109.000 C 502.301,103.269 502.321,103.356 508.000,97.000" stroke-width="2.788" stroke="black" fill="none" stroke-linecap="round"></path><path d="M 508.000,97.000 C 512.257,92.182 512.301,92.269 516.000,87.000" stroke-width="3.069" stroke="black" fill="none" stroke-linecap="round"></path><path d="M 516.000,87.000 C 519.176,83.256 518.757,83.182 521.000,79.000" stroke-width="3.434" stroke="black" fill="none" stroke-linecap="round"></path><path d="M 521.000,79.000 C 523.189,75.140 522.176,76.256 522.000,73.000" stroke-width="3.901" stroke="black" fill="none" stroke-linecap="round"></path><path d="M 522.000,73.000 C 518.931,69.349 520.689,70.640 516.000,70.000" stroke-width="4.489" stroke="black" fill="none" stroke-linecap="round"></path><path d="M 516.000,70.000 C 509.679,73.025 509.931,71.349 504.000,77.000" stroke-width="3.413" stroke="black" fill="none" stroke-linecap="round"></path><path d="M 504.000,77.000 C 494.833,83.794 494.679,83.525 486.000,91.000" stroke-width="2.566" stroke="black" fill="none" stroke-linecap="round"></path><path d="M 486.000,91.000 C 475.636,99.105 475.833,99.294 466.000,108.000" stroke-width="2.307" stroke="black" fill="none" stroke-linecap="round"></path><path d="M 466.000,108.000 C 456.368,117.372 456.136,117.105 447.000,127.000" stroke-width="2.271" stroke="black" fill="none" stroke-linecap="round"></path><path d="M 447.000,127.000 C 438.484,135.985 438.368,135.872 430.000,145.000" stroke-width="2.227" stroke="black" fill="none" stroke-linecap="round"></path><path d="M 430.000,145.000 C 422.616,153.112 422.484,152.985 415.000,161.000" stroke-width="2.383" stroke="black" fill="none" stroke-linecap="round"></path><path d="M 415.000,161.000 C 407.851,166.979 408.616,167.612 402.000,174.000" stroke-width="2.542" stroke="black" fill="none" stroke-linecap="round"></path><path d="M 402.000,174.000 C 398.481,179.488 397.851,178.979 395.000,185.000" stroke-width="2.908" stroke="black" fill="none" stroke-linecap="round"></path><path d="M 395.000,185.000 C 392.228,188.862 392.481,188.988 390.000,193.000" stroke-width="3.323" stroke="black" fill="none" stroke-linecap="round"></path><path d="M 390.000,193.000 C 387.315,195.944 388.728,195.362 388.000,198.000" stroke-width="3.935" stroke="black" fill="none" stroke-linecap="round"></path><path d="M 388.000,198.000 C 390.098,202.000 388.815,200.444 393.000,202.000" stroke-width="4.616" stroke="black" fill="none" stroke-linecap="round"></path><path d="M 393.000,202.000 C 400.232,200.632 399.598,202.000 407.000,198.000" stroke-width="3.378" stroke="black" fill="none" stroke-linecap="round"></path><path d="M 407.000,198.000 C 418.149,193.305 418.232,193.632 429.000,188.000" stroke-width="2.563" stroke="black" fill="none" stroke-linecap="round"></path><path d="M 429.000,188.000 C 440.217,181.379 440.649,182.305 452.000,176.000" stroke-width="2.376" stroke="black" fill="none" stroke-linecap="round"></path><path d="M 452.000,176.000 C 463.377,171.151 463.217,170.879 475.000,167.000" stroke-width="2.258" stroke="black" fill="none" stroke-linecap="round"></path><path d="M 475.000,167.000 C 484.338,163.273 484.377,163.651 494.000,161.000" stroke-width="2.426" stroke="black" fill="none" stroke-linecap="round"></path><path d="M 494.000,161.000 C 501.475,159.627 501.338,159.273 509.000,159.000" stroke-width="2.786" stroke="black" fill="none" stroke-linecap="round"></path><path d="M 509.000,159.000 C 516.737,156.473 513.475,158.627 518.000,159.000" stroke-width="3.356" stroke="black" fill="none" stroke-linecap="round"></path><path d="M 518.000,159.000 C 518.597,166.324 519.737,162.473 515.000,171.000" stroke-width="3.879" stroke="black" fill="none" stroke-linecap="round"></path><path d="M 515.000,171.000 C 506.928,178.590 508.597,179.324 498.000,185.000" stroke-width="2.680" stroke="black" fill="none" stroke-linecap="round"></path><path d="M 498.000,185.000 C 487.335,192.584 487.428,192.590 476.000,199.000" stroke-width="2.277" stroke="black" fill="none" stroke-linecap="round"></path><path d="M 476.000,199.000 C 460.982,208.115 460.835,207.584 445.000,215.000" stroke-width="1.896" stroke="black" fill="none" stroke-linecap="round"></path><path d="M 445.000,215.000 C 428.327,222.148 428.482,222.115 411.000,227.000" stroke-width="1.829" stroke="black" fill="none" stroke-linecap="round"></path><path d="M 411.000,227.000 C 390.652,232.356 390.827,232.648 370.000,236.000" stroke-width="1.626" stroke="black" fill="none" stroke-linecap="round"></path><path d="M 370.000,236.000 C 348.100,240.262 348.152,239.856 326.000,242.000" stroke-width="1.577" stroke="black" fill="none" stroke-linecap="round"></path><path d="M 326.000,242.000 C 303.503,242.729 303.600,243.762 281.000,243.000" stroke-width="1.552" stroke="black" fill="none" stroke-linecap="round"></path><path d="M 281.000,243.000 C 261.892,244.453 262.003,243.229 243.000,243.000" stroke-width="1.631" stroke="black" fill="none" stroke-linecap="round"></path><path d="M 243.000,243.000 C 222.624,241.570 222.892,241.453 203.000,237.000" stroke-width="1.701" stroke="black" fill="none" stroke-linecap="round"></path><path d="M 203.000,237.000 C 185.783,233.046 186.124,233.070 170.000,226.000" stroke-width="1.750" stroke="black" fill="none" stroke-linecap="round"></path><path d="M 170.000,226.000 C 157.821,219.918 157.783,220.546 147.000,212.000" stroke-width="1.979" stroke="black" fill="none" stroke-linecap="round"></path><path d="M 147.000,212.000 C 136.697,205.071 137.321,204.918 129.000,196.000" stroke-width="2.158" stroke="black" fill="none" stroke-linecap="round"></path><path d="M 129.000,196.000 C 122.951,187.955 122.697,188.571 119.000,179.000" stroke-width="2.452" stroke="black" fill="none" stroke-linecap="round"></path><path d="M 119.000,179.000 C 114.404,170.680 115.451,170.955 114.000,162.000" stroke-width="2.656" stroke="black" fill="none" stroke-linecap="round"></path><path d="M 114.000,162.000 C 112.324,147.689 113.404,149.180 117.000,136.000" stroke-width="2.720" stroke="black" fill="none" stroke-linecap="round"></path><path d="M 117.000,136.000 C 123.809,125.821 121.324,125.189 132.000,117.000" stroke-width="2.427" stroke="black" fill="none" stroke-linecap="round"></path><path d="M 132.000,117.000 C 137.145,112.006 136.809,111.821 143.000,108.000" stroke-width="2.789" stroke="black" fill="none" stroke-linecap="round"></path><path d="M 143.000,108.000 C 155.753,98.007 156.145,99.006 170.000,91.000" stroke-width="2.083" stroke="black" fill="none" stroke-linecap="round"></path><path d="M 170.000,91.000 C 186.689,83.540 186.253,83.007 204.000,78.000" stroke-width="1.923" stroke="black" fill="none" stroke-linecap="round"></path><path d="M 204.000,78.000 C 224.264,71.391 224.189,71.540 245.000,67.000" stroke-width="1.638" stroke="black" fill="none" stroke-linecap="round"></path><path d="M 245.000,67.000 C 266.896,62.601 266.764,62.391 289.000,60.000" stroke-width="1.578" stroke="black" fill="none" stroke-linecap="round"></path><path d="M 289.000,60.000 C 309.472,57.742 309.396,57.601 330.000,57.000" stroke-width="1.625" stroke="black" fill="none" stroke-linecap="round"></path><path d="M 330.000,57.000 C 351.000,57.000 350.972,56.242 372.000,57.000" stroke-width="1.622" stroke="black" fill="none" stroke-linecap="round"></path><path d="M 372.000,57.000 C 390.545,56.148 390.500,57.000 409.000,57.000" stroke-width="1.675" stroke="black" fill="none" stroke-linecap="round"></path><path d="M 409.000,57.000 C 423.158,57.644 423.045,57.648 437.000,60.000" stroke-width="1.962" stroke="black" fill="none" stroke-linecap="round"></path><path d="M 437.000,60.000 C 446.814,61.719 446.658,61.644 456.000,65.000" stroke-width="2.325" stroke="black" fill="none" stroke-linecap="round"></path><path d="M 456.000,65.000 C 461.389,66.717 460.814,66.719 465.000,70.000" stroke-width="2.998" stroke="black" fill="none" stroke-linecap="round"></path><path d="M 465.000,70.000 C 468.237,73.077 466.889,71.717 467.000,75.000" stroke-width="3.789" stroke="black" fill="none" stroke-linecap="round"></path><path d="M 467.000,75.000 C 462.189,80.611 463.737,80.077 456.000,84.000" stroke-width="3.250" stroke="black" fill="none" stroke-linecap="round"></path><path d="M 456.000,84.000 C 440.859,91.917 441.189,92.111 425.000,98.000" stroke-width="2.078" stroke="black" fill="none" stroke-linecap="round"></path><path d="M 425.000,98.000 C 404.289,106.020 404.359,105.917 383.000,112.000" stroke-width="1.687" stroke="black" fill="none" stroke-linecap="round"></path><path d="M 383.000,112.000 C 359.753,119.000 359.789,118.520 336.000,123.000" stroke-width="1.525" stroke="black" fill="none" stroke-linecap="round"></path><path d="M 336.000,123.000 C 312.060,126.648 312.253,127.000 288.000,128.000" stroke-width="1.483" stroke="black" fill="none" stroke-linecap="round"></path><path d="M 288.000,128.000 C 267.430,129.119 267.560,129.148 247.000,128.000" stroke-width="1.595" stroke="black" fill="none" stroke-linecap="round"></path><path d="M 247.000,128.000 C 230.830,126.849 230.930,127.119 215.000,124.000" stroke-width="1.775" stroke="black" fill="none" stroke-linecap="round"></path><path d="M 215.000,124.000 C 205.638,122.322 205.830,122.349 197.000,119.000" stroke-width="2.324" stroke="black" fill="none" stroke-linecap="round"></path><path d="M 197.000,119.000 C 190.693,117.387 192.638,117.322 189.000,114.000" stroke-width="3.059" stroke="black" fill="none" stroke-linecap="round"></path><path d="M 189.000,114.000 C 188.222,108.968 187.693,111.387 191.000,107.000" stroke-width="3.583" stroke="black" fill="none" stroke-linecap="round"></path><path d="M 191.000,107.000 C 210.174,98.256 200.222,100.468 213.000,97.000" stroke-width="2.180" stroke="black" fill="none" stroke-linecap="round"></path><path d="M 518.000,190.000 C 522.488,189.282 522.500,189.500 527.000,189.000" stroke-width="4.450" stroke="black" fill="none" stroke-linecap="round"></path><path d="M 527.000,189.000 C 530.500,189.000 530.488,188.782 534.000,189.000" stroke-width="4.113" stroke="black" fill="none" stroke-linecap="round"></path><path d="M 534.000,189.000 C 544.091,190.032 544.000,189.000 554.000,189.000" stroke-width="2.833" stroke="black" fill="none" stroke-linecap="round"></path><path d="M 554.000,189.000 C 567.979,186.376 568.091,187.532 582.000,184.000" stroke-width="2.280" stroke="black" fill="none" stroke-linecap="round"></path><path d="M 582.000,184.000 C 597.571,181.877 597.479,181.376 613.000,179.000" stroke-width="2.114" stroke="black" fill="none" stroke-linecap="round"></path><path d="M 613.000,179.000 C 626.928,175.606 627.071,176.377 641.000,173.000" stroke-width="2.101" stroke="black" fill="none" stroke-linecap="round"></path><path d="M 641.000,173.000 C 654.028,171.162 653.928,170.606 667.000,169.000" stroke-width="2.175" stroke="black" fill="none" stroke-linecap="round"></path><path d="M 667.000,169.000 C 674.968,167.285 675.028,167.662 683.000,166.000" stroke-width="2.667" stroke="black" fill="none" stroke-linecap="round"></path><path d="M 683.000,166.000 C 692.000,164.752 687.468,165.285 692.000,165.000" stroke-width="3.298" stroke="black" fill="none" stroke-linecap="round"></path><path d="M 692.000,165.000 C 687.208,165.317 692.000,165.252 683.000,167.000" stroke-width="4.029" stroke="black" fill="none" stroke-linecap="round"></path><path d="M 683.000,167.000 C 679.648,168.616 679.708,168.317 677.000,171.000" stroke-width="3.973" stroke="black" fill="none" stroke-linecap="round"></path><path d="M 677.000,171.000 C 675.824,175.215 674.648,173.116 673.000,176.000" stroke-width="4.632" stroke="black" fill="none" stroke-linecap="round"></path><path d="M 673.000,176.000 C 666.000,176.000 666.824,177.715 659.000,176.000" stroke-width="4.159" stroke="black" fill="none" stroke-linecap="round"></path><path d="M 659.000,176.000 C 648.000,176.000 648.000,176.000 637.000,176.000" stroke-width="2.796" stroke="black" fill="none" stroke-linecap="round"></path><path d="M 637.000,176.000 C 622.000,176.000 622.000,176.000 607.000,176.000" stroke-width="2.150" stroke="black" fill="none" stroke-linecap="round"></path><path d="M 607.000,176.000 C 590.500,176.000 590.500,176.000 574.000,176.000" stroke-width="1.978" stroke="black" fill="none" stroke-linecap="round"></path><path d="M 574.000,176.000 C 555.997,175.753 556.000,176.000 538.000,176.000" stroke-width="1.853" stroke="black" fill="none" stroke-linecap="round"></path><path d="M 538.000,176.000 C 519.484,176.160 519.497,176.253 501.000,177.000" stroke-width="1.742" stroke="black" fill="none" stroke-linecap="round"></path><path d="M 501.000,177.000 C 486.509,178.163 486.484,177.660 472.000,179.000" stroke-width="1.963" stroke="black" fill="none" stroke-linecap="round"></path><path d="M 472.000,179.000 C 460.496,179.425 460.509,179.663 449.000,180.000" stroke-width="2.243" stroke="black" fill="none" stroke-linecap="round"></path><path d="M 449.000,180.000 C 440.320,179.566 440.496,180.425 432.000,181.000" stroke-width="2.612" stroke="black" fill="none" stroke-linecap="round"></path><path d="M 432.000,181.000 C 425.969,182.911 425.820,182.066 420.000,185.000" stroke-width="3.013" stroke="black" fill="none" stroke-linecap="round"></path></svg>