<svg xmlns="http://www.w3.org/2000/svg" xmlns:xlink="http://www.w3.org/1999/xlink" viewBox="0 0 724 414" width="724" height="414"><path d="M 145.000,174.000 C 139.801,166.710 139.000,168.500 133.000,163.000" stroke-width="4.301" stroke="black" fill="none" stroke-linecap="round"></path><path d="M 133.000,163.000 C 127.864,163.081 128.801,160.710 123.000,162.000" stroke-width="4.349" stroke="black" fill="none" stroke-linecap="round"></path><path d="M 123.000,162.000 C 118.965,160.586 118.864,161.081 115.000,159.000" stroke-width="3.848" stroke="black" fill="none" stroke-linecap="round"></path><path d="M 115.000,159.000 C 111.339,157.798 111.465,157.586 108.000,156.000" stroke-width="3.822" stroke="black" fill="none" stroke-linecap="round"></path><path d="M 108.000,156.000 C 105.149,153.717 104.839,154.298 102.000,152.000" stroke-width="3.861" stroke="black" fill="none" stroke-linecap="round"></path><path d="M 102.000,152.000 C 96.806,151.553 99.649,150.717 97.000,150.000" stroke-width="4.140" stroke="black" fill="none" stroke-linecap="round"></path><path d="M 97.000,150.000 C 99.635,146.447 97.306,147.553 103.000,144.000" stroke-width="4.859" stroke="black" fill="none" stroke-linecap="round"></path><path d="M 103.000,144.000 C 105.551,143.113 105.135,142.447 108.000,142.000" stroke-width="4.433" stroke="black" fill="none" stroke-linecap="round"></path><path d="M 108.000,142.000 C 111.041,140.578 111.051,140.613 114.000,139.000" stroke-width="4.093" stroke="black" fill="none" stroke-linecap="round"></path><path d="M 114.000,139.000 C 118.692,136.800 118.541,136.578 123.000,134.000" stroke-width="3.907" stroke="black" fill="none" stroke-linecap="round"></path><path d="M 123.000,134.000 C 128.379,129.823 128.692,130.300 134.000,126.000" stroke-width="3.184" stroke="black" fill="none" stroke-linecap="round"></path><path d="M 134.000,126.000 C 141.294,121.901 140.879,121.323 148.000,117.000" stroke-width="2.937" stroke="black" fill="none" stroke-linecap="round"></path><path d="M 148.000,117.000 C 153.706,111.599 154.294,112.401 160.000,107.000" stroke-width="2.933" stroke="black" fill="none" stroke-linecap="round"></path><path d="M 160.000,107.000 C 167.162,102.734 166.706,102.099 174.000,98.000" stroke-width="2.808" stroke="black" fill="none" stroke-linecap="round"></path><path d="M 174.000,98.000 C 179.734,93.086 180.162,93.734 186.000,89.000" stroke-width="2.932" stroke="black" fill="none" stroke-linecap="round"></path><path d="M 186.000,89.000 C 191.457,85.917 191.234,85.586 197.000,83.000" stroke-width="3.084" stroke="black" fill="none" stroke-linecap="round"></path><path d="M 197.000,83.000 C 200.860,80.592 200.957,80.917 205.000,79.000" stroke-width="3.433" stroke="black" fill="none" stroke-linecap="round"></path><path d="M 205.000,79.000 C 209.626,76.692 207.360,78.092 210.000,78.000" stroke-width="4.420" stroke="black" fill="none" stroke-linecap="round"></path><path d="M 210.000,78.000 C 209.253,82.433 210.626,80.192 207.000,86.000" stroke-width="4.074" stroke="black" fill="none" stroke-linecap="round"></path><path d="M 207.000,86.000 C 202.796,91.768 203.253,91.933 198.000,97.000" stroke-width="3.310" stroke="black" fill="none" stroke-linecap="round"></path><path d="M 198.000,97.000 C 191.384,103.388 191.796,103.768 185.000,110.000" stroke-width="2.793" stroke="black" fill="none" stroke-linecap="round"></path><path d="M 185.000,110.000 C 177.508,118.008 177.384,117.888 170.000,126.000" stroke-width="2.663" stroke="black" fill="none" stroke-linecap="round"></path><path d="M 170.000,126.000 C 162.008,134.507 162.008,134.508 154.000,143.000" stroke-width="2.389" stroke="black" fill="none" stroke-linecap="round"></path><path d="M 154.000,143.000 C 145.500,152.000 145.508,152.007 137.000,161.000" stroke-width="2.259" stroke="black" fill="none" stroke-linecap="round"></path><path d="M 137.000,161.000 C 128.629,170.125 128.500,170.000 120.000,179.000" stroke-width="2.281" stroke="black" fill="none" stroke-linecap="round"></path><path d="M 120.000,179.000 C 111.243,188.257 111.129,188.125 102.000,197.000" stroke-width="2.203" stroke="black" fill="none" stroke-linecap="round"></path><path d="M 102.000,197.000 C 92.500,205.500 92.743,205.757 83.000,214.000" stroke-width="2.236" stroke="black" fill="none" stroke-linecap="round"></path><path d="M 83.000,214.000 C 73.829,222.906 73.500,222.500 64.000,231.000" stroke-width="2.189" stroke="black" fill="none" stroke-linecap="round"></path><path d="M 64.000,231.000 C 56.567,236.595 56.829,236.906 49.000,242.000" stroke-width="2.563" stroke="black" fill="none" stroke-linecap="round"></path><path d="M 49.000,242.000 C 42.895,247.265 42.567,246.595 36.000,251.000" stroke-width="2.799" stroke="black" fill="none" stroke-linecap="round"></path><path d="M 36.000,251.000 C 30.573,253.240 30.895,253.765 25.000,255.000" stroke-width="3.152" stroke="black" fill="none" stroke-linecap="round"></path><path d="M 25.000,255.000 C 21.016,256.073 21.073,256.240 17.000,257.000" stroke-width="3.524" stroke="black" fill="none" stroke-linecap="round"></path><path d="M 17.000,257.000 C 13.337,259.337 14.516,257.573 12.000,258.000" stroke-width="4.050" stroke="black" fill="none" stroke-linecap="round"></path><path d="M 12.000,258.000 C 9.069,253.725 9.837,255.837 10.000,250.000" stroke-width="4.565" stroke="black" fill="none" stroke-linecap="round"></path><path d="M 10.000,250.000 C 12.626,243.295 11.569,243.725 17.000,238.000" stroke-width="3.426" stroke="black" fill="none" stroke-linecap="round"></path><path d="M 17.000,238.000 C 22.904,232.392 22.126,231.795 29.000,227.000" stroke-width="3.020" stroke="black" fill="none" stroke-linecap="round"></path><path d="M 29.000,227.000 C 35.805,220.756 35.904,220.892 43.000,215.000" stroke-width="2.787" stroke="black" fill="none" stroke-linecap="round"></path><path d="M 43.000,215.000 C 50.624,208.420 50.805,208.756 59.000,203.000" stroke-width="2.580" stroke="black" fill="none" stroke-linecap="round"></path><path d="M 59.000,203.000 C 67.846,197.701 67.624,197.420 77.000,193.000" stroke-width="2.494" stroke="black" fill="none" stroke-linecap="round"></path><path d="M 77.000,193.000 C 86.407,188.292 86.346,188.201 96.000,184.000" stroke-width="2.509" stroke="black" fill="none" stroke-linecap="round"></path><path d="M 96.000,184.000 C 105.415,179.784 105.407,179.792 115.000,176.000" stroke-width="2.473" stroke="black" fill="none" stroke-linecap="round"></path><path d="M 115.000,176.000 C 124.449,172.356 124.415,172.284 134.000,169.000" stroke-width="2.480" stroke="black" fill="none" stroke-linecap="round"></path><path d="M 134.000,169.000 C 143.000,166.000 142.949,165.856 152.000,163.000" stroke-width="2.602" stroke="black" fill="none" stroke-linecap="round"></path><path d="M 152.000,163.000 C 159.591,160.744 159.500,160.500 167.000,158.000" stroke-width="2.757" stroke="black" fill="none" stroke-linecap="round"></path><path d="M 167.000,158.000 C 173.141,155.790 173.091,155.744 179.000,153.000" stroke-width="2.991" stroke="black" fill="none" stroke-linecap="round"></path><path d="M 179.000,153.000 C 183.354,150.168 183.641,150.790 188.000,148.000" stroke-width="3.280" stroke="black" fill="none" stroke-linecap="round"></path><path d="M 188.000,148.000 C 193.730,147.080 190.854,146.668 194.000,146.000" stroke-width="3.814" stroke="black" fill="none" stroke-linecap="round"></path><path d="M 194.000,146.000 C 191.603,144.200 194.230,145.080 189.000,144.000" stroke-width="4.693" stroke="black" fill="none" stroke-linecap="round"></path><path d="M 189.000,144.000 C 184.884,144.029 185.103,143.700 181.000,145.000" stroke-width="4.042" stroke="black" fill="none" stroke-linecap="round"></path><path d="M 181.000,145.000 C 176.686,145.927 176.884,146.029 173.000,148.000" stroke-width="3.828" stroke="black" fill="none" stroke-linecap="round"></path><path d="M 173.000,148.000 C 169.152,151.232 168.686,150.427 165.000,154.000" stroke-width="3.564" stroke="black" fill="none" stroke-linecap="round"></path><path d="M 165.000,154.000 C 161.431,155.889 161.652,156.232 158.000,158.000" stroke-width="3.783" stroke="black" fill="none" stroke-linecap="round"></path><path d="M 158.000,158.000 C 154.913,159.881 154.931,159.889 152.000,162.000" stroke-width="3.898" stroke="black" fill="none" stroke-linecap="round"></path><path d="M 152.000,162.000 C 149.094,163.645 149.413,163.881 147.000,166.000" stroke-width="4.070" stroke="black" fill="none" stroke-linecap="round"></path><path d="M 147.000,166.000 C 145.036,168.308 145.094,168.145 144.000,171.000" stroke-width="4.194" stroke="black" fill="none" stroke-linecap="round"></path><path d="M 144.000,171.000 C 141.467,175.266 142.536,174.808 142.000,179.000" stroke-width="4.404" stroke="black" fill="none" stroke-linecap="round"></path><path d="M 142.000,179.000 C 143.288,183.101 142.467,182.266 146.000,185.000" stroke-width="4.598" stroke="black" fill="none" stroke-linecap="round"></path><path d="M 146.000,185.000 C 148.975,185.798 148.288,186.601 152.000,186.000" stroke-width="4.219" stroke="black" fill="none" stroke-linecap="round"></path><path d="M 152.000,186.000 C 156.968,187.485 156.475,186.298 161.000,186.000" stroke-width="3.825" stroke="black" fill="none" stroke-linecap="round"></path><path d="M 161.000,186.000 C 166.149,182.696 166.468,183.985 171.000,179.000" stroke-width="3.288" stroke="black" fill="none" stroke-linecap="round"></path><path d="M 171.000,179.000 C 176.737,174.762 176.649,174.696 182.000,170.000" stroke-width="3.065" stroke="black" fill="none" stroke-linecap="round"></path><path d="M 182.000,170.000 C 187.147,165.138 187.237,165.262 192.000,160.000" stroke-width="3.069" stroke="black" fill="none" stroke-linecap="round"></path><path d="M 192.000,160.000 C 195.771,156.198 195.647,156.138 199.000,152.000" stroke-width="3.333" stroke="black" fill="none" stroke-linecap="round"></path><path d="M 199.000,152.000 C 203.273,148.273 200.771,149.698 202.000,147.000" stroke-width="3.849" stroke="black" fill="none" stroke-linecap="round"></path><path d="M 202.000,147.000 C 196.938,145.000 199.773,144.773 192.000,145.000" stroke-width="4.545" stroke="black" fill="none" stroke-linecap="round"></path><path d="M 192.000,145.000 C 188.733,145.509 188.938,145.000 186.000,147.000" stroke-width="4.224" stroke="black" fill="none" stroke-linecap="round"></path><path d="M 186.000,147.000 C 183.094,148.645 183.233,148.509 181.000,151.000" stroke-width="4.126" stroke="black" fill="none" stroke-linecap="round"></path><path d="M 181.000,151.000 C 179.395,153.442 179.094,153.145 178.000,156.000" stroke-width="4.211" stroke="black" fill="none" stroke-linecap="round"></path><path d="M 178.000,156.000 C 175.792,158.833 176.395,158.942 175.000,162.000" stroke-width="4.525" stroke="black" fill="none" stroke-linecap="round"></path><path d="M 175.000,162.000 C 173.079,166.603 174.292,164.833 175.000,168.000" stroke-width="5.012" stroke="black" fill="none" stroke-linecap="round"></path><path d="M 175.000,168.000 C 180.794,170.781 178.579,170.603 186.000,170.000" stroke-width="4.714" stroke="black" fill="none" stroke-linecap="round"></path><path d="M 186.000,170.000 C 190.758,167.892 190.794,169.281 195.000,165.000" stroke-width="3.796" stroke="black" fill="none" stroke-linecap="round"></path><path d="M 195.000,165.000 C 201.645,160.178 201.758,160.392 208.000,155.000" stroke-width="3.091" stroke="black" fill="none" stroke-linecap="round"></path><path d="M 208.000,155.000 C 214.782,148.725 215.145,149.178 222.000,143.000" stroke-width="2.974" stroke="black" fill="none" stroke-linecap="round"></path><path d="M 222.000,143.000 C 229.718,137.775 229.282,137.225 237.000,132.000" stroke-width="2.766" stroke="black" fill="none" stroke-linecap="round"></path><path d="M 237.000,132.000 C 244.000,126.000 244.218,126.275 251.000,120.000" stroke-width="2.657" stroke="black" fill="none" stroke-linecap="round"></path><path d="M 251.000,120.000 C 257.877,113.851 258.000,114.000 265.000,108.000" stroke-width="2.686" stroke="black" fill="none" stroke-linecap="round"></path><path d="M 265.000,108.000 C 272.329,102.871 271.877,102.351 279.000,97.000" stroke-width="2.729" stroke="black" fill="none" stroke-linecap="round"></path><path d="M 279.000,97.000 C 284.631,91.625 284.829,91.871 290.000,86.000" stroke-width="2.871" stroke="black" fill="none" stroke-linecap="round"></path><path d="M 290.000,86.000 C 295.953,81.166 295.131,80.625 300.000,75.000" stroke-width="2.902" stroke="black" fill="none" stroke-linecap="round"></path><path d="M 300.000,75.000 C 306.177,64.758 306.453,65.166 311.000,54.000" stroke-width="2.492" stroke="black" fill="none" stroke-linecap="round"></path><path d="M 311.000,54.000 C 313.844,49.377 312.677,50.258 313.000,46.000" stroke-width="3.313" stroke="black" fill="none" stroke-linecap="round"></path><path d="M 313.000,46.000 C 310.851,42.713 312.344,43.377 308.000,42.000" stroke-width="4.376" stroke="black" fill="none" stroke-linecap="round"></path><path d="M 308.000,42.000 C 304.162,41.616 304.851,41.213 301.000,43.000" stroke-width="4.032" stroke="black" fill="none" stroke-linecap="round"></path><path d="M 301.000,43.000 C 296.135,45.554 296.162,45.116 292.000,49.000" stroke-width="3.597" stroke="black" fill="none" stroke-linecap="round"></path><path d="M 292.000,49.000 C 287.388,53.393 287.135,53.054 283.000,58.000" stroke-width="3.322" stroke="black" fill="none" stroke-linecap="round"></path><path d="M 283.000,58.000 C 277.521,64.019 277.388,63.893 272.000,70.000" stroke-width="3.055" stroke="black" fill="none" stroke-linecap="round"></path><path d="M 272.000,70.000 C 265.402,76.912 265.521,77.019 259.000,84.000" stroke-width="2.759" stroke="black" fill="none" stroke-linecap="round"></path><path d="M 259.000,84.000 C 251.308,92.339 251.402,92.412 244.000,101.000" stroke-width="2.505" stroke="black" fill="none" stroke-linecap="round"></path><path d="M 244.000,101.000 C 238.067,108.554 237.808,108.339 232.000,116.000" stroke-width="2.599" stroke="black" fill="none" stroke-linecap="round"></path><path d="M 232.000,116.000 C 226.846,121.878 227.067,122.054 222.000,128.000" stroke-width="2.767" stroke="black" fill="none" stroke-linecap="round"></path><path d="M 222.000,128.000 C 217.086,133.734 217.346,133.878 213.000,140.000" stroke-width="2.971" stroke="black" fill="none" stroke-linecap="round"></path><path d="M 213.000,140.000 C 210.138,145.580 209.586,145.234 207.000,151.000" stroke-width="3.252" stroke="black" fill="none" stroke-linecap="round"></path><path d="M 207.000,151.000 C 204.338,154.909 204.638,155.080 202.000,159.000" stroke-width="3.500" stroke="black" fill="none" stroke-linecap="round"></path><path d="M 202.000,159.000 C 199.908,161.821 200.338,161.909 199.000,165.000" stroke-width="3.812" stroke="black" fill="none" stroke-linecap="round"></path><path d="M 199.000,165.000 C 196.343,172.793 197.908,168.821 198.000,173.000" stroke-width="3.814" stroke="black" fill="none" stroke-linecap="round"></path><path d="M 198.000,173.000 C 202.381,169.336 200.343,173.293 207.000,166.000" stroke-width="4.509" stroke="black" fill="none" stroke-linecap="round"></path><path d="M 207.000,166.000 C 211.500,163.000 211.381,162.836 216.000,160.000" stroke-width="3.702" stroke="black" fill="none" stroke-linecap="round"></path><path d="M 216.000,160.000 C 219.078,158.110 219.000,158.000 222.000,156.000" stroke-width="3.916" stroke="black" fill="none" stroke-linecap="round"></path><path d="M 222.000,156.000 C 227.701,151.032 228.078,151.610 234.000,147.000" stroke-width="3.217" stroke="black" fill="none" stroke-linecap="round"></path><path d="M 234.000,147.000 C 240.575,143.632 240.201,143.032 247.000,140.000" stroke-width="3.181" stroke="black" fill="none" stroke-linecap="round"></path><path d="M 247.000,140.000 C 251.907,136.830 252.075,137.132 257.000,134.000" stroke-width="3.288" stroke="black" fill="none" stroke-linecap="round"></path><path d="M 257.000,134.000 C 260.860,131.592 260.907,131.830 265.000,130.000" stroke-width="3.557" stroke="black" fill="none" stroke-linecap="round"></path><path d="M 265.000,130.000 C 270.000,127.516 267.360,129.092 270.000,129.000" stroke-width="4.129" stroke="black" fill="none" stroke-linecap="round"></path><path d="M 270.000,129.000 C 268.058,134.825 270.000,132.516 265.000,140.000" stroke-width="4.166" stroke="black" fill="none" stroke-linecap="round"></path><path d="M 265.000,140.000 C 261.273,145.721 261.558,145.825 257.000,151.000" stroke-width="3.378" stroke="black" fill="none" stroke-linecap="round"></path><path d="M 257.000,151.000 C 252.232,155.792 252.773,156.221 248.000,161.000" stroke-width="3.208" stroke="black" fill="none" stroke-linecap="round"></path><path d="M 248.000,161.000 C 242.903,166.122 245.732,163.792 244.000,167.000" stroke-width="3.693" stroke="black" fill="none" stroke-linecap="round"></path><path d="M 244.000,167.000 C 248.960,167.020 245.403,168.122 253.000,165.000" stroke-width="4.483" stroke="black" fill="none" stroke-linecap="round"></path><path d="M 253.000,165.000 C 258.531,161.042 258.960,162.020 264.000,157.000" stroke-width="3.437" stroke="black" fill="none" stroke-linecap="round"></path><path d="M 264.000,157.000 C 269.969,152.458 270.031,152.542 276.000,148.000" stroke-width="3.110" stroke="black" fill="none" stroke-linecap="round"></path><path d="M 276.000,148.000 C 281.237,143.568 281.469,143.958 287.000,140.000" stroke-width="3.061" stroke="black" fill="none" stroke-linecap="round"></path><path d="M 287.000,140.000 C 292.137,137.736 291.737,137.068 297.000,135.000" stroke-width="3.286" stroke="black" fill="none" stroke-linecap="round"></path><path d="M 297.000,135.000 C 302.171,130.724 300.137,133.236 303.000,131.000" stroke-width="3.679" stroke="black" fill="none" stroke-linecap="round"></path><path d="M 303.000,131.000 C 301.853,133.776 303.671,131.224 300.000,136.000" stroke-width="4.609" stroke="black" fill="none" stroke-linecap="round"></path><path d="M 300.000,136.000 C 296.210,139.255 296.853,139.776 293.000,143.000" stroke-width="3.876" stroke="black" fill="none" stroke-linecap="round"></path><path d="M 293.000,143.000 C 290.448,146.464 290.210,146.255 288.000,150.000" stroke-width="3.721" stroke="black" fill="none" stroke-linecap="round"></path><path d="M 288.000,150.000 C 282.465,155.829 285.948,152.964 284.000,156.000" stroke-width="4.305" stroke="black" fill="none" stroke-linecap="round"></path><path d="M 284.000,156.000 C 290.871,154.198 286.965,156.329 297.000,151.000" stroke-width="4.371" stroke="black" fill="none" stroke-linecap="round"></path><path d="M 297.000,151.000 C 302.088,147.619 302.371,148.198 307.000,144.000" stroke-width="3.604" stroke="black" fill="none" stroke-linecap="round"></path><path d="M 307.000,144.000 C 311.314,140.222 311.588,140.619 316.000,137.000" stroke-width="3.374" stroke="black" fill="none" stroke-linecap="round"></path><path d="M 316.000,137.000 C 320.550,132.694 319.314,134.722 323.000,133.000" stroke-width="3.671" stroke="black" fill="none" stroke-linecap="round"></path><path d="M 323.000,133.000 C 324.844,135.805 324.550,133.194 324.000,138.000" stroke-width="4.675" stroke="black" fill="none" stroke-linecap="round"></path><path d="M 324.000,138.000 C 320.882,141.917 322.344,142.305 318.000,146.000" stroke-width="3.819" stroke="black" fill="none" stroke-linecap="round"></path><path d="M 318.000,146.000 C 314.938,150.460 314.882,150.417 312.000,155.000" stroke-width="3.483" stroke="black" fill="none" stroke-linecap="round"></path><path d="M 312.000,155.000 C 309.310,158.893 309.438,158.960 307.000,163.000" stroke-width="3.576" stroke="black" fill="none" stroke-linecap="round"></path><path d="M 307.000,163.000 C 305.119,167.065 304.810,166.893 303.000,171.000" stroke-width="3.746" stroke="black" fill="none" stroke-linecap="round"></path><path d="M 303.000,171.000 C 300.979,173.308 301.619,173.565 300.000,176.000" stroke-width="4.045" stroke="black" fill="none" stroke-linecap="round"></path><path d="M 300.000,176.000 C 297.224,181.112 298.979,178.808 299.000,182.000" stroke-width="4.541" stroke="black" fill="none" stroke-linecap="round"></path><path d="M 299.000,182.000 C 304.846,182.640 302.224,183.612 310.000,181.000" stroke-width="4.771" stroke="black" fill="none" stroke-linecap="round"></path><path d="M 310.000,181.000 C 315.837,178.511 315.846,179.140 321.000,175.000" stroke-width="3.511" stroke="black" fill="none" stroke-linecap="round"></path><path d="M 321.000,175.000 C 327.961,169.450 328.337,170.011 335.000,164.000" stroke-width="3.003" stroke="black" fill="none" stroke-linecap="round"></path><path d="M 335.000,164.000 C 343.528,157.536 343.461,157.450 352.000,151.000" stroke-width="2.625" stroke="black" fill="none" stroke-linecap="round"></path><path d="M 352.000,151.000 C 361.284,144.340 361.028,144.036 370.000,137.000" stroke-width="2.523" stroke="black" fill="none" stroke-linecap="round"></path><path d="M 370.000,137.000 C 380.243,128.256 380.284,128.340 390.000,119.000" stroke-width="2.209" stroke="black" fill="none" stroke-linecap="round"></path><path d="M 390.000,119.000 C 399.756,109.743 399.743,109.756 409.000,100.000" stroke-width="2.340" stroke="black" fill="none" stroke-linecap="round"></path><path d="M 409.000,100.000 C 418.314,90.265 418.256,90.243 427.000,80.000" stroke-width="2.224" stroke="black" fill="none" stroke-linecap="round"></path><path d="M 427.000,80.000 C 434.509,70.507 434.814,70.765 442.000,61.000" stroke-width="2.291" stroke="black" fill="none" stroke-linecap="round"></path><path d="M 442.000,61.000 C 447.614,54.086 447.509,54.007 453.000,47.000" stroke-width="2.642" stroke="black" fill="none" stroke-linecap="round"></path><path d="M 453.000,47.000 C 457.047,41.534 457.114,41.586 461.000,36.000" stroke-width="2.962" stroke="black" fill="none" stroke-linecap="round"></path><path d="M 461.000,36.000 C 464.773,31.163 464.547,31.034 468.000,26.000" stroke-width="3.119" stroke="black" fill="none" stroke-linecap="round"></path><path d="M 468.000,26.000 C 471.974,21.704 469.773,23.163 471.000,20.000" stroke-width="3.707" stroke="black" fill="none" stroke-linecap="round"></path><path d="M 471.000,20.000 C 467.238,18.029 469.974,18.204 464.000,19.000" stroke-width="3.841" stroke="black" fill="none" stroke-linecap="round"></path><path d="M 464.000,19.000 C 457.158,21.959 457.238,21.029 451.000,26.000" stroke-width="3.219" stroke="black" fill="none" stroke-linecap="round"></path><path d="M 451.000,26.000 C 441.112,32.524 441.158,32.459 432.000,40.000" stroke-width="2.561" stroke="black" fill="none" stroke-linecap="round"></path><path d="M 432.000,40.000 C 421.763,48.751 421.612,48.524 412.000,58.000" stroke-width="2.280" stroke="black" fill="none" stroke-linecap="round"></path><path d="M 412.000,58.000 C 402.592,66.627 402.763,66.751 394.000,76.000" stroke-width="2.261" stroke="black" fill="none" stroke-linecap="round"></path><path d="M 394.000,76.000 C 385.728,84.468 386.092,84.627 379.000,94.000" stroke-width="2.276" stroke="black" fill="none" stroke-linecap="round"></path><path d="M 379.000,94.000 C 374.207,101.849 373.728,101.468 370.000,110.000" stroke-width="2.560" stroke="black" fill="none" stroke-linecap="round"></path><path d="M 370.000,110.000 C 366.361,117.438 366.207,117.349 363.000,125.000" stroke-width="2.756" stroke="black" fill="none" stroke-linecap="round"></path><path d="M 363.000,125.000 C 360.142,130.881 360.361,130.938 358.000,137.000" stroke-width="3.045" stroke="black" fill="none" stroke-linecap="round"></path><path d="M 358.000,137.000 C 357.379,141.140 356.642,140.881 356.000,145.000" stroke-width="3.529" stroke="black" fill="none" stroke-linecap="round"></path><path d="M 356.000,145.000 C 354.791,148.186 354.879,148.140 353.000,151.000" stroke-width="3.822" stroke="black" fill="none" stroke-linecap="round"></path><path d="M 353.000,151.000 C 348.115,154.672 351.291,153.686 349.000,156.000" stroke-width="4.418" stroke="black" fill="none" stroke-linecap="round"></path><path d="M 349.000,156.000 C 352.986,157.000 350.115,157.672 357.000,157.000" stroke-width="4.756" stroke="black" fill="none" stroke-linecap="round"></path><path d="M 357.000,157.000 C 364.598,157.156 364.486,157.000 372.000,156.000" stroke-width="3.361" stroke="black" fill="none" stroke-linecap="round"></path><path d="M 372.000,156.000 C 380.471,153.866 380.598,154.656 389.000,152.000" stroke-width="2.928" stroke="black" fill="none" stroke-linecap="round"></path><path d="M 389.000,152.000 C 396.489,150.444 396.471,150.366 404.000,149.000" stroke-width="2.951" stroke="black" fill="none" stroke-linecap="round"></path><path d="M 404.000,149.000 C 409.465,147.615 409.489,147.944 415.000,147.000" stroke-width="3.247" stroke="black" fill="none" stroke-linecap="round"></path><path d="M 415.000,147.000 C 423.259,145.490 418.465,146.615 422.000,147.000" stroke-width="3.730" stroke="black" fill="none" stroke-linecap="round"></path><path d="M 422.000,147.000 C 413.824,153.509 418.259,151.490 405.000,159.000" stroke-width="3.752" stroke="black" fill="none" stroke-linecap="round"></path><path d="M 405.000,159.000 C 391.403,167.799 391.324,167.509 377.000,175.000" stroke-width="2.197" stroke="black" fill="none" stroke-linecap="round"></path><path d="M 377.000,175.000 C 360.227,183.061 360.403,183.299 343.000,190.000" stroke-width="1.818" stroke="black" fill="none" stroke-linecap="round"></path><path d="M 343.000,190.000 C 324.088,197.249 324.227,197.561 305.000,204.000" stroke-width="1.756" stroke="black" fill="none" stroke-linecap="round"></path><path d="M 305.000,204.000 C 283.379,212.897 283.088,211.749 261.000,219.000" stroke-width="1.622" stroke="black" fill="none" stroke-linecap="round"></path><path d="M 261.000,219.000 C 239.200,224.973 239.379,224.897 217.000,228.000" stroke-width="1.518" stroke="black" fill="none" stroke-linecap="round"></path><path d="M 217.000,228.000 C 195.025,230.223 195.200,230.973 173.000,231.000" stroke-width="1.504" stroke="black" fill="none" stroke-linecap="round"></path><path d="M 173.000,231.000 C 152.471,231.768 152.525,231.723 132.000,231.000" stroke-width="1.646" stroke="black" fill="none" stroke-linecap="round"></path><path d="M 132.000,231.000 C 112.122,231.425 112.471,230.268 93.000,228.000" stroke-width="1.686" stroke="black" fill="none" stroke-linecap="round"></path><path d="M 93.000,228.000 C 78.114,225.284 78.622,225.425 65.000,219.000" stroke-width="1.932" stroke="black" fill="none" stroke-linecap="round"></path><path d="M 65.000,219.000 C 52.590,213.946 54.114,213.784 45.000,205.000" stroke-width="2.129" stroke="black" fill="none" stroke-linecap="round"></path><path d="M 45.000,205.000 C 37.543,195.953 38.590,197.446 37.000,186.000" stroke-width="2.402" stroke="black" fill="none" stroke-linecap="round"></path><path d="M 37.000,186.000 C 35.797,166.625 36.043,168.453 42.000,150.000" stroke-width="2.242" stroke="black" fill="none" stroke-linecap="round"></path><path d="M 42.000,150.000 C 50.622,133.304 48.297,133.125 62.000,119.000" stroke-width="1.834" stroke="black" fill="none" stroke-linecap="round"></path><path d="M 62.000,119.000 C 69.033,111.895 68.122,111.304 77.000,106.000" stroke-width="2.308" stroke="black" fill="none" stroke-linecap="round"></path><path d="M 77.000,106.000 C 93.596,92.413 94.033,93.395 112.000,82.000" stroke-width="1.770" stroke="black" fill="none" stroke-linecap="round"></path><path d="M 112.000,82.000 C 131.767,70.407 131.596,70.913 153.000,63.000" stroke-width="1.601" stroke="black" fill="none" stroke-linecap="round"></path><path d="M 153.000,63.000 C 175.190,55.471 174.767,55.407 198.000,52.000" stroke-width="1.536" stroke="black" fill="none" stroke-linecap="round"></path><path d="M 198.000,52.000 C 221.476,49.751 221.190,48.471 245.000,49.000" stroke-width="1.458" stroke="black" fill="none" stroke-linecap="round"></path><path d="M 245.000,49.000 C 268.500,49.000 268.476,48.251 292.000,49.000" stroke-width="1.483" stroke="black" fill="none" stroke-linecap="round"></path><path d="M 292.000,49.000 C 315.174,47.098 315.000,49.000 338.000,49.000" stroke-width="1.551" stroke="black" fill="none" stroke-linecap="round"></path><path d="M 338.000,49.000 C 357.082,52.105 357.174,50.598 376.000,56.000" stroke-width="1.709" stroke="black" fill="none" stroke-linecap="round"></path><path d="M 376.000,56.000 C 391.288,58.586 391.082,59.105 406.000,63.000" stroke-width="1.903" stroke="black" fill="none" stroke-linecap="round"></path><path d="M 406.000,63.000 C 416.751,65.862 416.288,66.086 426.000,71.000" stroke-width="2.274" stroke="black" fill="none" stroke-linecap="round"></path><path d="M 426.000,71.000 C 431.559,73.966 430.251,73.362 433.000,78.000" stroke-width="3.113" stroke="black" fill="none" stroke-linecap="round"></path><path d="M 433.000,78.000 C 433.830,83.019 434.059,80.966 431.000,85.000" stroke-width="3.648" stroke="black" fill="none" stroke-linecap="round"></path><path d="M 431.000,85.000 C 417.640,93.562 418.830,93.519 403.000,99.000" stroke-width="2.294" stroke="black" fill="none" stroke-linecap="round"></path><path d="M 403.000,99.000 C 364.918,113.116 365.140,113.062 326.000,124.000" stroke-width="1.227" stroke="black" fill="none" stroke-linecap="round"></path><path d="M 326.000,124.000 C 305.639,128.942 305.918,129.616 285.000,132.000" stroke-width="1.482" stroke="black" fill="none" stroke-linecap="round"></path><path d="M 285.000,132.000 C 265.038,134.569 265.139,134.942 245.000,136.000" stroke-width="1.653" stroke="black" fill="none" stroke-linecap="round"></path><path d="M 245.000,136.000 C 229.885,137.893 230.038,137.069 215.000,137.000" stroke-width="1.903" stroke="black" fill="none" stroke-linecap="round"></path><path d="M 215.000,137.000 C 204.214,136.686 204.885,136.393 195.000,133.000" stroke-width="2.216" stroke="black" fill="none" stroke-linecap="round"></path><path d="M 195.000,133.000 C 187.808,130.054 189.214,130.686 185.000,125.000" stroke-width="2.782" stroke="black" fill="none" stroke-linecap="round"></path><path d="M 185.000,125.000 C 182.958,119.083 182.808,121.054 185.000,115.000" stroke-width="3.274" stroke="black" fill="none" stroke-linecap="round"></path><path d="M 439.000,148.000 C 445.199,151.960 445.500,151.000 452.000,154.000" stroke-width="4.853" stroke="black" fill="none" stroke-linecap="round"></path><path d="M 452.000,154.000 C 460.426,156.183 460.199,156.460 469.000,157.000" stroke-width="3.199" stroke="black" fill="none" stroke-linecap="round"></path><path d="M 469.000,157.000 C 481.495,157.755 481.426,158.183 494.000,158.000" stroke-width="2.556" stroke="black" fill="none" stroke-linecap="round"></path><path d="M 494.000,158.000 C 507.091,159.132 506.995,158.255 520.000,158.000" stroke-width="2.252" stroke="black" fill="none" stroke-linecap="round"></path><path d="M 520.000,158.000 C 535.521,155.624 535.591,156.632 551.000,153.000" stroke-width="1.993" stroke="black" fill="none" stroke-linecap="round"></path><path d="M 551.000,153.000 C 564.973,150.338 565.021,150.624 579.000,148.000" stroke-width="2.015" stroke="black" fill="none" stroke-linecap="round"></path><path d="M 579.000,148.000 C 591.952,145.553 591.973,145.838 605.000,144.000" stroke-width="2.092" stroke="black" fill="none" stroke-linecap="round"></path><path d="M 605.000,144.000 C 612.995,143.334 612.952,143.053 621.000,143.000" stroke-width="2.548" stroke="black" fill="none" stroke-linecap="round"></path><path d="M 621.000,143.000 C 628.794,141.144 624.995,142.834 629.000,143.000" stroke-width="3.285" stroke="black" fill="none" stroke-linecap="round"></path><path d="M 629.000,143.000 C 626.332,148.422 629.294,145.644 622.000,152.000" stroke-width="3.864" stroke="black" fill="none" stroke-linecap="round"></path><path d="M 622.000,152.000 C 614.199,157.354 614.832,157.922 606.000,162.000" stroke-width="2.940" stroke="black" fill="none" stroke-linecap="round"></path><path d="M 606.000,162.000 C 599.000,165.500 599.199,165.854 592.000,169.000" stroke-width="2.932" stroke="black" fill="none" stroke-linecap="round"></path><path d="M 592.000,169.000 C 583.752,172.255 588.000,171.000 584.000,173.000" stroke-width="3.465" stroke="black" fill="none" stroke-linecap="round"></path><path d="M 584.000,173.000 C 588.604,173.034 584.252,173.755 593.000,172.000" stroke-width="4.193" stroke="black" fill="none" stroke-linecap="round"></path><path d="M 593.000,172.000 C 605.437,168.257 605.604,169.034 618.000,165.000" stroke-width="2.590" stroke="black" fill="none" stroke-linecap="round"></path><path d="M 618.000,165.000 C 632.401,161.021 632.437,161.257 647.000,158.000" stroke-width="2.240" stroke="black" fill="none" stroke-linecap="round"></path><path d="M 647.000,158.000 C 661.420,154.856 661.401,155.021 676.000,153.000" stroke-width="2.165" stroke="black" fill="none" stroke-linecap="round"></path><path d="M 676.000,153.000 C 688.994,151.907 688.920,151.356 702.000,151.000" stroke-width="2.203" stroke="black" fill="none" stroke-linecap="round"></path><path d="M 702.000,151.000 C 710.495,150.315 710.494,150.407 719.000,150.000" stroke-width="2.596" stroke="black" fill="none" stroke-linecap="round"></path><path d="M 719.000,150.000 C 728.444,150.000 723.995,149.815 729.000,150.000" stroke-width="3.193" stroke="black" fill="none" stroke-linecap="round"></path><path d="M 729.000,150.000 C 724.974,149.592 729.444,150.000 721.000,150.000" stroke-width="4.037" stroke="black" fill="none" stroke-linecap="round"></path><path d="M 721.000,150.000 C 705.488,151.907 705.474,151.592 690.000,154.000" stroke-width="2.339" stroke="black" fill="none" stroke-linecap="round"></path><path d="M 690.000,154.000 C 668.525,157.192 668.488,156.907 647.000,160.000" stroke-width="1.753" stroke="black" fill="none" stroke-linecap="round"></path><path d="M 647.000,160.000 C 622.541,163.379 622.525,163.192 598.000,166.000" stroke-width="1.570" stroke="black" fill="none" stroke-linecap="round"></path><path d="M 598.000,166.000 C 571.051,169.197 571.041,168.879 544.000,171.000" stroke-width="1.491" stroke="black" fill="none" stroke-linecap="round"></path><path d="M 544.000,171.000 C 488.520,174.540 488.551,174.697 433.000,177.000" stroke-width="1.125" stroke="black" fill="none" stroke-linecap="round"></path><path d="M 433.000,177.000 C 409.498,177.405 409.520,178.040 386.000,178.000" stroke-width="1.202" stroke="black" fill="none" stroke-linecap="round"></path><path d="M 386.000,178.000 C 369.996,178.408 369.998,178.405 354.000,179.000" stroke-width="1.605" stroke="black" fill="none" stroke-linecap="round"></path><path d="M 354.000,179.000 C 342.926,178.943 342.996,179.408 332.000,180.000" stroke-width="2.116" stroke="black" fill="none" stroke-linecap="round"></path><path d="M 332.000,180.000 C 324.737,179.685 327.426,180.443 323.000,182.000" stroke-width="3.062" stroke="black" fill="none" stroke-linecap="round"></path><path d="M 323.000,182.000 C 323.236,186.771 321.737,183.685 326.000,188.000" stroke-width="4.024" stroke="black" fill="none" stroke-linecap="round"></path><path d="M 326.000,188.000 C 333.488,189.099 332.236,190.771 341.000,190.000" stroke-width="3.158" stroke="black" fill="none" stroke-linecap="round"></path></svg>