<svg xmlns="http://www.w3.org/2000/svg" xmlns:xlink="http://www.w3.org/1999/xlink" viewBox="0 0 724 414" width="724" height="414"><path d="M 136.000,148.000 C 131.665,144.266 131.500,144.500 127.000,141.000" stroke-width="4.761" stroke="black" fill="none" stroke-linecap="round"></path><path d="M 127.000,141.000 C 121.272,137.808 121.665,137.266 116.000,134.000" stroke-width="4.323" stroke="black" fill="none" stroke-linecap="round"></path><path d="M 116.000,134.000 C 112.500,131.000 112.272,131.308 109.000,128.000" stroke-width="3.934" stroke="black" fill="none" stroke-linecap="round"></path><path d="M 109.000,128.000 C 105.500,125.000 105.500,125.000 102.000,122.000" stroke-width="3.671" stroke="black" fill="none" stroke-linecap="round"></path><path d="M 102.000,122.000 C 98.396,119.113 98.500,119.000 95.000,116.000" stroke-width="3.599" stroke="black" fill="none" stroke-linecap="round"></path><path d="M 95.000,116.000 C 92.740,113.192 92.396,113.613 90.000,111.000" stroke-width="3.853" stroke="black" fill="none" stroke-linecap="round"></path><path d="M 90.000,111.000 C 87.284,109.777 87.740,109.192 85.000,108.000" stroke-width="4.082" stroke="black" fill="none" stroke-linecap="round"></path><path d="M 85.000,108.000 C 80.049,105.141 82.784,106.277 81.000,104.000" stroke-width="4.703" stroke="black" fill="none" stroke-linecap="round"></path><path d="M 81.000,104.000 C 85.748,103.654 82.549,102.141 90.000,102.000" stroke-width="5.073" stroke="black" fill="none" stroke-linecap="round"></path><path d="M 90.000,102.000 C 94.766,99.897 94.748,100.154 99.000,97.000" stroke-width="3.984" stroke="black" fill="none" stroke-linecap="round"></path><path d="M 99.000,97.000 C 103.754,92.650 104.266,93.397 109.000,89.000" stroke-width="3.407" stroke="black" fill="none" stroke-linecap="round"></path><path d="M 109.000,89.000 C 115.500,85.000 115.254,84.650 122.000,81.000" stroke-width="3.084" stroke="black" fill="none" stroke-linecap="round"></path><path d="M 122.000,81.000 C 128.500,77.000 128.500,77.000 135.000,73.000" stroke-width="2.999" stroke="black" fill="none" stroke-linecap="round"></path><path d="M 135.000,73.000 C 141.481,68.968 141.500,69.000 148.000,65.000" stroke-width="2.914" stroke="black" fill="none" stroke-linecap="round"></path><path d="M 148.000,65.000 C 152.954,61.921 152.981,61.968 158.000,59.000" stroke-width="3.144" stroke="black" fill="none" stroke-linecap="round"></path><path d="M 158.000,59.000 C 162.459,56.422 162.454,56.421 167.000,54.000" stroke-width="3.436" stroke="black" fill="none" stroke-linecap="round"></path><path d="M 167.000,54.000 C 172.444,49.518 169.959,52.422 173.000,51.000" stroke-width="4.232" stroke="black" fill="none" stroke-linecap="round"></path><path d="M 173.000,51.000 C 172.743,57.148 173.944,53.518 170.000,62.000" stroke-width="4.434" stroke="black" fill="none" stroke-linecap="round"></path><path d="M 170.000,62.000 C 164.793,67.838 166.243,68.648 160.000,74.000" stroke-width="3.263" stroke="black" fill="none" stroke-linecap="round"></path><path d="M 160.000,74.000 C 154.649,81.613 154.293,81.338 149.000,89.000" stroke-width="2.770" stroke="black" fill="none" stroke-linecap="round"></path><path d="M 149.000,89.000 C 141.414,98.433 141.649,98.613 134.000,108.000" stroke-width="2.439" stroke="black" fill="none" stroke-linecap="round"></path><path d="M 134.000,108.000 C 125.920,118.440 125.914,118.433 118.000,129.000" stroke-width="2.326" stroke="black" fill="none" stroke-linecap="round"></path><path d="M 118.000,129.000 C 110.017,140.922 109.420,140.440 101.000,152.000" stroke-width="2.101" stroke="black" fill="none" stroke-linecap="round"></path><path d="M 101.000,152.000 C 92.125,162.115 92.517,162.422 83.000,172.000" stroke-width="2.099" stroke="black" fill="none" stroke-linecap="round"></path><path d="M 83.000,172.000 C 74.249,181.751 74.125,181.615 65.000,191.000" stroke-width="2.230" stroke="black" fill="none" stroke-linecap="round"></path><path d="M 65.000,191.000 C 57.379,197.875 57.749,198.251 50.000,205.000" stroke-width="2.389" stroke="black" fill="none" stroke-linecap="round"></path><path d="M 50.000,205.000 C 43.410,212.479 42.879,211.875 36.000,219.000" stroke-width="2.475" stroke="black" fill="none" stroke-linecap="round"></path><path d="M 36.000,219.000 C 30.513,223.018 30.910,223.479 25.000,227.000" stroke-width="2.944" stroke="black" fill="none" stroke-linecap="round"></path><path d="M 25.000,227.000 C 21.690,229.847 21.513,229.518 18.000,232.000" stroke-width="3.456" stroke="black" fill="none" stroke-linecap="round"></path><path d="M 18.000,232.000 C 15.601,233.527 15.690,233.347 13.000,234.000" stroke-width="3.989" stroke="black" fill="none" stroke-linecap="round"></path><path d="M 13.000,234.000 C 7.619,235.650 10.101,234.527 7.000,234.000" stroke-width="4.673" stroke="black" fill="none" stroke-linecap="round"></path><path d="M 7.000,234.000 C 7.684,229.474 6.119,231.650 10.000,226.000" stroke-width="4.773" stroke="black" fill="none" stroke-linecap="round"></path><path d="M 10.000,226.000 C 13.500,222.500 12.684,221.974 17.000,219.000" stroke-width="3.850" stroke="black" fill="none" stroke-linecap="round"></path><path d="M 17.000,219.000 C 22.398,213.395 22.500,213.500 28.000,208.000" stroke-width="3.162" stroke="black" fill="none" stroke-linecap="round"></path><path d="M 28.000,208.000 C 35.571,199.984 35.898,200.395 44.000,193.000" stroke-width="2.633" stroke="black" fill="none" stroke-linecap="round"></path><path d="M 44.000,193.000 C 53.415,185.882 53.071,185.484 63.000,179.000" stroke-width="2.432" stroke="black" fill="none" stroke-linecap="round"></path><path d="M 63.000,179.000 C 72.702,171.530 72.915,171.882 83.000,165.000" stroke-width="2.345" stroke="black" fill="none" stroke-linecap="round"></path><path d="M 83.000,165.000 C 93.453,158.917 93.202,158.530 104.000,153.000" stroke-width="2.329" stroke="black" fill="none" stroke-linecap="round"></path><path d="M 104.000,153.000 C 113.960,147.427 113.953,147.417 124.000,142.000" stroke-width="2.379" stroke="black" fill="none" stroke-linecap="round"></path><path d="M 124.000,142.000 C 132.568,137.624 132.460,137.427 141.000,133.000" stroke-width="2.607" stroke="black" fill="none" stroke-linecap="round"></path><path d="M 141.000,133.000 C 147.966,128.939 148.068,129.124 155.000,125.000" stroke-width="2.797" stroke="black" fill="none" stroke-linecap="round"></path><path d="M 155.000,125.000 C 160.307,121.530 160.466,121.939 166.000,119.000" stroke-width="3.141" stroke="black" fill="none" stroke-linecap="round"></path><path d="M 166.000,119.000 C 173.441,117.882 169.307,117.530 173.000,117.000" stroke-width="3.660" stroke="black" fill="none" stroke-linecap="round"></path><path d="M 173.000,117.000 C 168.500,115.000 172.441,115.882 164.000,115.000" stroke-width="4.497" stroke="black" fill="none" stroke-linecap="round"></path><path d="M 164.000,115.000 C 159.351,115.550 159.500,115.000 155.000,117.000" stroke-width="3.866" stroke="black" fill="none" stroke-linecap="round"></path><path d="M 155.000,117.000 C 150.350,118.711 150.351,118.550 146.000,121.000" stroke-width="3.589" stroke="black" fill="none" stroke-linecap="round"></path><path d="M 146.000,121.000 C 140.674,123.556 140.850,123.711 136.000,127.000" stroke-width="3.408" stroke="black" fill="none" stroke-linecap="round"></path><path d="M 136.000,127.000 C 131.515,131.017 131.174,130.556 127.000,135.000" stroke-width="3.327" stroke="black" fill="none" stroke-linecap="round"></path><path d="M 127.000,135.000 C 122.593,138.131 123.015,138.517 119.000,142.000" stroke-width="3.419" stroke="black" fill="none" stroke-linecap="round"></path><path d="M 119.000,142.000 C 116.017,145.254 116.093,145.131 114.000,149.000" stroke-width="3.583" stroke="black" fill="none" stroke-linecap="round"></path><path d="M 114.000,149.000 C 112.708,151.931 112.517,151.754 112.000,155.000" stroke-width="3.930" stroke="black" fill="none" stroke-linecap="round"></path><path d="M 112.000,155.000 C 108.902,160.427 111.208,158.431 111.000,162.000" stroke-width="4.397" stroke="black" fill="none" stroke-linecap="round"></path><path d="M 111.000,162.000 C 117.481,163.717 114.902,164.927 124.000,164.000" stroke-width="4.127" stroke="black" fill="none" stroke-linecap="round"></path><path d="M 124.000,164.000 C 129.266,164.420 128.981,164.217 134.000,163.000" stroke-width="3.751" stroke="black" fill="none" stroke-linecap="round"></path><path d="M 134.000,163.000 C 139.249,160.903 139.266,161.420 144.000,158.000" stroke-width="3.493" stroke="black" fill="none" stroke-linecap="round"></path><path d="M 144.000,158.000 C 148.098,155.122 148.249,155.403 152.000,152.000" stroke-width="3.527" stroke="black" fill="none" stroke-linecap="round"></path><path d="M 152.000,152.000 C 155.591,149.099 155.598,149.122 159.000,146.000" stroke-width="3.556" stroke="black" fill="none" stroke-linecap="round"></path><path d="M 159.000,146.000 C 163.000,144.000 161.091,144.099 163.000,142.000" stroke-width="3.956" stroke="black" fill="none" stroke-linecap="round"></path><path d="M 163.000,142.000 C 161.111,138.000 163.000,140.000 159.000,138.000" stroke-width="4.823" stroke="black" fill="none" stroke-linecap="round"></path><path d="M 159.000,138.000 C 155.773,139.439 156.611,138.000 154.000,142.000" stroke-width="4.760" stroke="black" fill="none" stroke-linecap="round"></path><path d="M 154.000,142.000 C 148.911,148.006 151.273,145.939 150.000,151.000" stroke-width="4.452" stroke="black" fill="none" stroke-linecap="round"></path><path d="M 150.000,151.000 C 154.272,153.828 150.911,153.506 158.000,153.000" stroke-width="4.929" stroke="black" fill="none" stroke-linecap="round"></path><path d="M 158.000,153.000 C 163.221,150.324 163.272,151.828 168.000,147.000" stroke-width="3.695" stroke="black" fill="none" stroke-linecap="round"></path><path d="M 168.000,147.000 C 174.527,142.035 174.721,142.324 181.000,137.000" stroke-width="3.070" stroke="black" fill="none" stroke-linecap="round"></path><path d="M 181.000,137.000 C 188.144,131.674 188.027,131.535 195.000,126.000" stroke-width="2.896" stroke="black" fill="none" stroke-linecap="round"></path><path d="M 195.000,126.000 C 202.611,119.624 202.644,119.674 210.000,113.000" stroke-width="2.679" stroke="black" fill="none" stroke-linecap="round"></path><path d="M 210.000,113.000 C 217.000,106.500 217.111,106.624 224.000,100.000" stroke-width="2.657" stroke="black" fill="none" stroke-linecap="round"></path><path d="M 224.000,100.000 C 231.110,93.614 231.000,93.500 238.000,87.000" stroke-width="2.759" stroke="black" fill="none" stroke-linecap="round"></path><path d="M 238.000,87.000 C 243.909,81.855 243.610,81.614 249.000,76.000" stroke-width="2.881" stroke="black" fill="none" stroke-linecap="round"></path><path d="M 249.000,76.000 C 253.318,69.852 253.909,70.355 258.000,64.000" stroke-width="2.955" stroke="black" fill="none" stroke-linecap="round"></path><path d="M 258.000,64.000 C 261.934,60.292 261.318,59.852 265.000,56.000" stroke-width="3.339" stroke="black" fill="none" stroke-linecap="round"></path><path d="M 265.000,56.000 C 269.851,50.771 266.934,53.292 268.000,50.000" stroke-width="3.753" stroke="black" fill="none" stroke-linecap="round"></path><path d="M 268.000,50.000 C 259.711,48.274 263.851,48.271 253.000,51.000" stroke-width="4.148" stroke="black" fill="none" stroke-linecap="round"></path><path d="M 253.000,51.000 C 244.136,56.539 243.711,54.774 236.000,63.000" stroke-width="2.936" stroke="black" fill="none" stroke-linecap="round"></path><path d="M 236.000,63.000 C 227.251,70.235 227.136,70.039 219.000,78.000" stroke-width="2.547" stroke="black" fill="none" stroke-linecap="round"></path><path d="M 219.000,78.000 C 210.251,86.264 210.251,86.235 202.000,95.000" stroke-width="2.391" stroke="black" fill="none" stroke-linecap="round"></path><path d="M 202.000,95.000 C 193.155,104.214 193.251,104.264 185.000,114.000" stroke-width="2.231" stroke="black" fill="none" stroke-linecap="round"></path><path d="M 185.000,114.000 C 178.467,122.475 178.155,122.214 172.000,131.000" stroke-width="2.351" stroke="black" fill="none" stroke-linecap="round"></path><path d="M 172.000,131.000 C 167.086,136.734 167.467,136.975 163.000,143.000" stroke-width="2.712" stroke="black" fill="none" stroke-linecap="round"></path><path d="M 163.000,143.000 C 159.488,148.314 159.586,148.234 157.000,154.000" stroke-width="3.007" stroke="black" fill="none" stroke-linecap="round"></path><path d="M 157.000,154.000 C 154.884,157.438 155.988,156.314 156.000,159.000" stroke-width="3.824" stroke="black" fill="none" stroke-linecap="round"></path><path d="M 156.000,159.000 C 158.985,161.317 157.384,160.938 162.000,161.000" stroke-width="4.424" stroke="black" fill="none" stroke-linecap="round"></path><path d="M 162.000,161.000 C 168.926,159.932 168.485,160.317 175.000,157.000" stroke-width="3.355" stroke="black" fill="none" stroke-linecap="round"></path><path d="M 175.000,157.000 C 182.974,151.957 183.426,152.932 191.000,147.000" stroke-width="2.841" stroke="black" fill="none" stroke-linecap="round"></path><path d="M 191.000,147.000 C 200.232,141.846 199.974,141.457 209.000,136.000" stroke-width="2.601" stroke="black" fill="none" stroke-linecap="round"></path><path d="M 209.000,136.000 C 216.357,130.291 216.732,130.846 224.000,125.000" stroke-width="2.601" stroke="black" fill="none" stroke-linecap="round"></path><path d="M 224.000,125.000 C 229.439,121.399 229.357,121.291 235.000,118.000" stroke-width="2.931" stroke="black" fill="none" stroke-linecap="round"></path><path d="M 235.000,118.000 C 241.164,113.721 238.439,115.899 242.000,114.000" stroke-width="3.454" stroke="black" fill="none" stroke-linecap="round"></path><path d="M 242.000,114.000 C 240.176,116.657 242.664,114.221 238.000,119.000" stroke-width="4.453" stroke="black" fill="none" stroke-linecap="round"></path><path d="M 238.000,119.000 C 233.375,123.382 233.676,123.657 229.000,128.000" stroke-width="3.509" stroke="black" fill="none" stroke-linecap="round"></path><path d="M 229.000,128.000 C 224.450,132.956 224.375,132.882 220.000,138.000" stroke-width="3.242" stroke="black" fill="none" stroke-linecap="round"></path><path d="M 220.000,138.000 C 216.605,141.238 216.950,141.456 214.000,145.000" stroke-width="3.464" stroke="black" fill="none" stroke-linecap="round"></path><path d="M 214.000,145.000 C 209.631,150.413 212.105,147.738 211.000,151.000" stroke-width="4.257" stroke="black" fill="none" stroke-linecap="round"></path><path d="M 211.000,151.000 C 216.331,150.223 213.131,151.913 221.000,148.000" stroke-width="4.268" stroke="black" fill="none" stroke-linecap="round"></path><path d="M 221.000,148.000 C 226.540,144.561 226.831,145.223 232.000,141.000" stroke-width="3.446" stroke="black" fill="none" stroke-linecap="round"></path><path d="M 232.000,141.000 C 237.874,136.793 238.040,137.061 244.000,133.000" stroke-width="3.020" stroke="black" fill="none" stroke-linecap="round"></path><path d="M 244.000,133.000 C 248.531,130.554 248.374,130.293 253.000,128.000" stroke-width="3.343" stroke="black" fill="none" stroke-linecap="round"></path><path d="M 253.000,128.000 C 258.323,123.869 255.531,126.554 258.000,125.000" stroke-width="3.893" stroke="black" fill="none" stroke-linecap="round"></path><path d="M 258.000,125.000 C 254.988,130.442 257.323,127.369 251.000,135.000" stroke-width="4.383" stroke="black" fill="none" stroke-linecap="round"></path><path d="M 251.000,135.000 C 247.086,137.633 247.988,138.442 244.000,141.000" stroke-width="3.948" stroke="black" fill="none" stroke-linecap="round"></path><path d="M 244.000,141.000 C 239.239,145.478 241.586,143.633 240.000,147.000" stroke-width="4.409" stroke="black" fill="none" stroke-linecap="round"></path><path d="M 240.000,147.000 C 243.518,147.249 240.739,148.478 247.000,147.000" stroke-width="4.739" stroke="black" fill="none" stroke-linecap="round"></path><path d="M 247.000,147.000 C 250.514,146.581 250.518,146.749 254.000,146.000" stroke-width="4.175" stroke="black" fill="none" stroke-linecap="round"></path><path d="M 254.000,146.000 C 259.160,143.718 256.514,145.581 259.000,145.000" stroke-width="4.760" stroke="black" fill="none" stroke-linecap="round"></path><path d="M 259.000,145.000 C 256.326,149.767 258.660,147.718 253.000,154.000" stroke-width="4.467" stroke="black" fill="none" stroke-linecap="round"></path><path d="M 253.000,154.000 C 248.278,156.500 250.826,156.767 248.000,159.000" stroke-width="4.158" stroke="black" fill="none" stroke-linecap="round"></path><path d="M 248.000,159.000 C 249.580,163.382 247.778,161.000 252.000,163.000" stroke-width="4.740" stroke="black" fill="none" stroke-linecap="round"></path><path d="M 252.000,163.000 C 260.060,160.416 259.080,161.882 267.000,156.000" stroke-width="3.237" stroke="black" fill="none" stroke-linecap="round"></path><path d="M 267.000,156.000 C 276.075,149.094 276.560,149.916 285.000,142.000" stroke-width="2.604" stroke="black" fill="none" stroke-linecap="round"></path><path d="M 285.000,142.000 C 295.747,133.788 295.575,133.594 306.000,125.000" stroke-width="2.286" stroke="black" fill="none" stroke-linecap="round"></path><path d="M 306.000,125.000 C 316.744,115.756 316.747,115.788 327.000,106.000" stroke-width="2.215" stroke="black" fill="none" stroke-linecap="round"></path><path d="M 327.000,106.000 C 337.000,96.000 337.244,96.256 347.000,86.000" stroke-width="2.142" stroke="black" fill="none" stroke-linecap="round"></path><path d="M 347.000,86.000 C 356.141,77.136 356.000,77.000 365.000,68.000" stroke-width="2.218" stroke="black" fill="none" stroke-linecap="round"></path><path d="M 365.000,68.000 C 371.890,60.394 372.141,60.636 379.000,53.000" stroke-width="2.440" stroke="black" fill="none" stroke-linecap="round"></path><path d="M 379.000,53.000 C 384.500,47.500 384.390,47.394 390.000,42.000" stroke-width="2.714" stroke="black" fill="none" stroke-linecap="round"></path><path d="M 390.000,42.000 C 394.612,38.404 394.000,38.000 398.000,34.000" stroke-width="3.096" stroke="black" fill="none" stroke-linecap="round"></path><path d="M 398.000,34.000 C 401.658,28.482 399.612,31.904 400.000,29.000" stroke-width="4.200" stroke="black" fill="none" stroke-linecap="round"></path><path d="M 400.000,29.000 C 390.400,33.102 393.658,30.982 382.000,39.000" stroke-width="3.656" stroke="black" fill="none" stroke-linecap="round"></path><path d="M 382.000,39.000 C 366.924,49.854 366.900,49.602 353.000,62.000" stroke-width="2.094" stroke="black" fill="none" stroke-linecap="round"></path><path d="M 353.000,62.000 C 344.000,71.000 343.424,70.354 335.000,80.000" stroke-width="2.147" stroke="black" fill="none" stroke-linecap="round"></path><path d="M 335.000,80.000 C 329.625,84.664 330.000,85.000 325.000,90.000" stroke-width="2.720" stroke="black" fill="none" stroke-linecap="round"></path><path d="M 325.000,90.000 C 316.899,99.921 316.625,99.664 309.000,110.000" stroke-width="2.368" stroke="black" fill="none" stroke-linecap="round"></path><path d="M 309.000,110.000 C 302.375,118.408 302.399,118.421 296.000,127.000" stroke-width="2.452" stroke="black" fill="none" stroke-linecap="round"></path><path d="M 296.000,127.000 C 290.768,133.848 290.875,133.908 286.000,141.000" stroke-width="2.683" stroke="black" fill="none" stroke-linecap="round"></path><path d="M 286.000,141.000 C 282.179,145.708 282.768,145.848 280.000,151.000" stroke-width="3.109" stroke="black" fill="none" stroke-linecap="round"></path><path d="M 280.000,151.000 C 279.270,154.484 278.679,154.208 279.000,158.000" stroke-width="3.667" stroke="black" fill="none" stroke-linecap="round"></path><path d="M 279.000,158.000 C 277.226,162.423 278.770,160.984 279.000,164.000" stroke-width="4.382" stroke="black" fill="none" stroke-linecap="round"></path><path d="M 279.000,164.000 C 283.449,165.465 281.726,166.423 288.000,166.000" stroke-width="4.412" stroke="black" fill="none" stroke-linecap="round"></path><path d="M 288.000,166.000 C 296.556,164.519 291.949,166.465 296.000,166.000" stroke-width="4.510" stroke="black" fill="none" stroke-linecap="round"></path><path d="M 296.000,166.000 C 290.963,170.820 295.056,168.519 285.000,174.000" stroke-width="4.498" stroke="black" fill="none" stroke-linecap="round"></path><path d="M 285.000,174.000 C 275.584,178.211 275.963,178.820 266.000,182.000" stroke-width="2.997" stroke="black" fill="none" stroke-linecap="round"></path><path d="M 266.000,182.000 C 254.259,187.344 254.084,186.711 242.000,191.000" stroke-width="2.359" stroke="black" fill="none" stroke-linecap="round"></path><path d="M 242.000,191.000 C 225.650,195.769 225.759,195.844 209.000,199.000" stroke-width="1.939" stroke="black" fill="none" stroke-linecap="round"></path><path d="M 209.000,199.000 C 192.074,202.216 192.150,202.269 175.000,204.000" stroke-width="1.983" stroke="black" fill="none" stroke-linecap="round"></path><path d="M 175.000,204.000 C 158.514,205.476 158.574,205.716 142.000,206.000" stroke-width="1.932" stroke="black" fill="none" stroke-linecap="round"></path><path d="M 142.000,206.000 C 126.769,207.814 127.014,206.476 112.000,206.000" stroke-width="2.053" stroke="black" fill="none" stroke-linecap="round"></path><path d="M 112.000,206.000 C 97.720,204.343 98.269,204.314 85.000,199.000" stroke-width="2.106" stroke="black" fill="none" stroke-linecap="round"></path><path d="M 85.000,199.000 C 72.747,192.991 72.720,193.843 62.000,185.000" stroke-width="2.100" stroke="black" fill="none" stroke-linecap="round"></path><path d="M 62.000,185.000 C 52.519,178.604 53.247,178.491 46.000,170.000" stroke-width="2.337" stroke="black" fill="none" stroke-linecap="round"></path><path d="M 46.000,170.000 C 39.821,161.490 40.019,162.104 37.000,152.000" stroke-width="2.443" stroke="black" fill="none" stroke-linecap="round"></path><path d="M 37.000,152.000 C 34.528,142.439 34.321,142.990 35.000,133.000" stroke-width="2.583" stroke="black" fill="none" stroke-linecap="round"></path><path d="M 35.000,133.000 C 34.271,121.252 35.528,122.439 39.000,112.000" stroke-width="2.458" stroke="black" fill="none" stroke-linecap="round"></path><path d="M 39.000,112.000 C 47.139,98.620 45.771,98.752 58.000,88.000" stroke-width="2.064" stroke="black" fill="none" stroke-linecap="round"></path><path d="M 58.000,88.000 C 69.677,75.765 69.639,76.620 84.000,68.000" stroke-width="1.905" stroke="black" fill="none" stroke-linecap="round"></path><path d="M 84.000,68.000 C 111.737,53.228 111.177,53.265 141.000,43.000" stroke-width="1.654" stroke="black" fill="none" stroke-linecap="round"></path><path d="M 141.000,43.000 C 163.889,36.952 163.237,35.228 187.000,32.000" stroke-width="1.534" stroke="black" fill="none" stroke-linecap="round"></path><path d="M 187.000,32.000 C 198.898,29.023 198.889,29.452 211.000,28.000" stroke-width="2.048" stroke="black" fill="none" stroke-linecap="round"></path><path d="M 211.000,28.000 C 234.489,26.500 234.398,26.023 258.000,26.000" stroke-width="1.677" stroke="black" fill="none" stroke-linecap="round"></path><path d="M 258.000,26.000 C 281.533,25.172 281.489,25.500 305.000,26.000" stroke-width="1.545" stroke="black" fill="none" stroke-linecap="round"></path><path d="M 305.000,26.000 C 324.131,26.539 324.033,26.672 343.000,29.000" stroke-width="1.673" stroke="black" fill="none" stroke-linecap="round"></path><path d="M 343.000,29.000 C 358.715,31.179 358.631,31.039 374.000,35.000" stroke-width="1.870" stroke="black" fill="none" stroke-linecap="round"></path><path d="M 374.000,35.000 C 385.009,37.488 384.715,37.679 395.000,42.000" stroke-width="2.188" stroke="black" fill="none" stroke-linecap="round"></path><path d="M 395.000,42.000 C 402.252,44.328 400.509,44.488 405.000,49.000" stroke-width="2.850" stroke="black" fill="none" stroke-linecap="round"></path><path d="M 405.000,49.000 C 408.045,55.575 407.252,52.828 405.000,59.000" stroke-width="3.346" stroke="black" fill="none" stroke-linecap="round"></path><path d="M 405.000,59.000 C 393.457,68.214 396.045,69.075 381.000,76.000" stroke-width="2.396" stroke="black" fill="none" stroke-linecap="round"></path><path d="M 381.000,76.000 C 361.600,88.700 361.457,88.214 341.000,99.000" stroke-width="1.702" stroke="black" fill="none" stroke-linecap="round"></path><path d="M 341.000,99.000 C 320.052,108.123 320.600,109.200 299.000,117.000" stroke-width="1.574" stroke="black" fill="none" stroke-linecap="round"></path><path d="M 299.000,117.000 C 279.302,128.190 278.552,125.623 258.000,134.000" stroke-width="1.515" stroke="black" fill="none" stroke-linecap="round"></path><path d="M 258.000,134.000 C 223.645,142.051 224.302,143.190 189.000,147.000" stroke-width="1.195" stroke="black" fill="none" stroke-linecap="round"></path><path d="M 189.000,147.000 C 177.868,147.988 178.145,148.551 167.000,147.000" stroke-width="1.864" stroke="black" fill="none" stroke-linecap="round"></path><path d="M 167.000,147.000 C 159.913,146.934 161.368,146.488 156.000,144.000" stroke-width="2.711" stroke="black" fill="none" stroke-linecap="round"></path><path d="M 156.000,144.000 C 154.524,140.853 153.913,142.434 155.000,138.000" stroke-width="3.541" stroke="black" fill="none" stroke-linecap="round"></path><path d="M 155.000,138.000 C 155.766,134.406 155.524,134.853 158.000,132.000" stroke-width="3.986" stroke="black" fill="none" stroke-linecap="round"></path><path d="M 332.000,145.000 C 336.872,142.855 337.000,143.500 342.000,142.000" stroke-width="4.824" stroke="black" fill="none" stroke-linecap="round"></path><path d="M 342.000,142.000 C 352.048,141.357 351.872,140.355 362.000,140.000" stroke-width="2.996" stroke="black" fill="none" stroke-linecap="round"></path><path d="M 362.000,140.000 C 373.988,137.922 374.048,138.357 386.000,136.000" stroke-width="2.483" stroke="black" fill="none" stroke-linecap="round"></path><path d="M 386.000,136.000 C 398.967,133.754 398.988,133.922 412.000,132.000" stroke-width="2.223" stroke="black" fill="none" stroke-linecap="round"></path><path d="M 412.000,132.000 C 424.975,130.212 424.967,130.254 438.000,129.000" stroke-width="2.160" stroke="black" fill="none" stroke-linecap="round"></path><path d="M 438.000,129.000 C 446.508,128.000 446.475,128.212 455.000,128.000" stroke-width="2.708" stroke="black" fill="none" stroke-linecap="round"></path><path d="M 455.000,128.000 C 462.858,126.120 460.508,128.000 466.000,129.000" stroke-width="3.209" stroke="black" fill="none" stroke-linecap="round"></path><path d="M 466.000,129.000 C 468.941,134.670 468.858,131.620 467.000,139.000" stroke-width="3.377" stroke="black" fill="none" stroke-linecap="round"></path><path d="M 467.000,139.000 C 460.808,149.216 462.441,149.170 453.000,158.000" stroke-width="2.520" stroke="black" fill="none" stroke-linecap="round"></path><path d="M 453.000,158.000 C 443.916,166.414 444.808,167.216 435.000,175.000" stroke-width="2.293" stroke="black" fill="none" stroke-linecap="round"></path><path d="M 435.000,175.000 C 423.761,183.067 430.416,179.414 426.000,184.000" stroke-width="2.823" stroke="black" fill="none" stroke-linecap="round"></path><path d="M 426.000,184.000 C 437.046,183.714 429.761,185.567 447.000,180.000" stroke-width="3.237" stroke="black" fill="none" stroke-linecap="round"></path><path d="M 447.000,180.000 C 469.732,168.871 470.546,171.214 493.000,159.000" stroke-width="1.703" stroke="black" fill="none" stroke-linecap="round"></path><path d="M 493.000,159.000 C 519.157,147.533 519.232,147.871 546.000,138.000" stroke-width="1.344" stroke="black" fill="none" stroke-linecap="round"></path><path d="M 546.000,138.000 C 572.692,128.320 572.657,128.533 600.000,121.000" stroke-width="1.353" stroke="black" fill="none" stroke-linecap="round"></path><path d="M 600.000,121.000 C 621.344,115.465 621.192,115.320 643.000,112.000" stroke-width="1.498" stroke="black" fill="none" stroke-linecap="round"></path><path d="M 643.000,112.000 C 658.972,109.907 658.844,109.465 675.000,109.000" stroke-width="1.828" stroke="black" fill="none" stroke-linecap="round"></path><path d="M 675.000,109.000 C 685.500,109.000 685.472,108.407 696.000,109.000" stroke-width="2.213" stroke="black" fill="none" stroke-linecap="round"></path><path d="M 696.000,109.000 C 702.106,108.345 702.000,109.000 708.000,109.000" stroke-width="2.830" stroke="black" fill="none" stroke-linecap="round"></path><path d="M 708.000,109.000 C 714.703,109.593 711.106,109.345 714.000,111.000" stroke-width="3.613" stroke="black" fill="none" stroke-linecap="round"></path><path d="M 714.000,111.000 C 709.446,115.078 712.703,113.593 704.000,117.000" stroke-width="3.998" stroke="black" fill="none" stroke-linecap="round"></path><path d="M 704.000,117.000 C 692.126,120.614 692.446,121.078 680.000,123.000" stroke-width="2.552" stroke="black" fill="none" stroke-linecap="round"></path><path d="M 680.000,123.000 C 661.516,126.100 661.626,126.614 643.000,129.000" stroke-width="1.874" stroke="black" fill="none" stroke-linecap="round"></path><path d="M 643.000,129.000 C 620.002,132.515 620.016,132.600 597.000,136.000" stroke-width="1.600" stroke="black" fill="none" stroke-linecap="round"></path><path d="M 597.000,136.000 C 570.419,139.518 570.502,140.015 544.000,144.000" stroke-width="1.372" stroke="black" fill="none" stroke-linecap="round"></path><path d="M 544.000,144.000 C 514.658,150.551 514.419,149.018 485.000,155.000" stroke-width="1.319" stroke="black" fill="none" stroke-linecap="round"></path><path d="M 485.000,155.000 C 454.535,158.841 454.658,159.551 424.000,162.000" stroke-width="1.248" stroke="black" fill="none" stroke-linecap="round"></path><path d="M 424.000,162.000 C 396.536,165.013 396.535,164.841 369.000,167.000" stroke-width="1.259" stroke="black" fill="none" stroke-linecap="round"></path><path d="M 369.000,167.000 C 348.005,168.137 348.036,168.513 327.000,169.000" stroke-width="1.491" stroke="black" fill="none" stroke-linecap="round"></path><path d="M 327.000,169.000 C 311.496,169.404 311.505,169.637 296.000,170.000" stroke-width="1.764" stroke="black" fill="none" stroke-linecap="round"></path><path d="M 296.000,170.000 C 285.504,170.672 285.496,170.404 275.000,171.000" stroke-width="2.230" stroke="black" fill="none" stroke-linecap="round"></path></svg>