<svg xmlns="http://www.w3.org/2000/svg" xmlns:xlink="http://www.w3.org/1999/xlink" viewBox="0 0 724 414" width="724" height="414"><path d="M 150.000,95.000 C 147.022,95.768 147.000,95.500 144.000,96.000" stroke-width="4.926" stroke="black" fill="none" stroke-linecap="round"></path><path d="M 144.000,96.000 C 140.488,95.782 140.522,96.268 137.000,96.000" stroke-width="4.325" stroke="black" fill="none" stroke-linecap="round"></path><path d="M 137.000,96.000 C 132.438,96.155 132.488,96.282 128.000,97.000" stroke-width="3.785" stroke="black" fill="none" stroke-linecap="round"></path><path d="M 128.000,97.000 C 122.000,98.500 121.938,98.155 116.000,100.000" stroke-width="3.334" stroke="black" fill="none" stroke-linecap="round"></path><path d="M 116.000,100.000 C 109.909,101.202 110.000,101.500 104.000,103.000" stroke-width="3.279" stroke="black" fill="none" stroke-linecap="round"></path><path d="M 104.000,103.000 C 98.260,104.508 98.409,104.702 93.000,107.000" stroke-width="3.315" stroke="black" fill="none" stroke-linecap="round"></path><path d="M 93.000,107.000 C 88.872,109.319 88.760,109.008 85.000,112.000" stroke-width="3.521" stroke="black" fill="none" stroke-linecap="round"></path><path d="M 85.000,112.000 C 81.901,113.556 82.372,113.819 80.000,116.000" stroke-width="3.806" stroke="black" fill="none" stroke-linecap="round"></path><path d="M 80.000,116.000 C 77.368,118.631 78.401,118.056 78.000,121.000" stroke-width="4.120" stroke="black" fill="none" stroke-linecap="round"></path><path d="M 78.000,121.000 C 79.841,127.361 79.368,126.131 84.000,131.000" stroke-width="4.229" stroke="black" fill="none" stroke-linecap="round"></path><path d="M 84.000,131.000 C 88.915,133.240 87.841,134.361 94.000,135.000" stroke-width="3.647" stroke="black" fill="none" stroke-linecap="round"></path><path d="M 94.000,135.000 C 102.164,137.061 101.915,137.740 110.000,140.000" stroke-width="3.036" stroke="black" fill="none" stroke-linecap="round"></path><path d="M 110.000,140.000 C 117.948,143.623 118.164,143.061 126.000,147.000" stroke-width="2.907" stroke="black" fill="none" stroke-linecap="round"></path><path d="M 126.000,147.000 C 133.678,149.621 133.448,150.123 141.000,153.000" stroke-width="2.830" stroke="black" fill="none" stroke-linecap="round"></path><path d="M 141.000,153.000 C 146.457,156.083 146.678,155.621 152.000,159.000" stroke-width="3.104" stroke="black" fill="none" stroke-linecap="round"></path><path d="M 152.000,159.000 C 157.071,160.071 155.957,161.083 160.000,163.000" stroke-width="3.490" stroke="black" fill="none" stroke-linecap="round"></path><path d="M 160.000,163.000 C 163.059,166.670 162.071,165.071 162.000,169.000" stroke-width="4.282" stroke="black" fill="none" stroke-linecap="round"></path><path d="M 162.000,169.000 C 158.724,171.872 160.559,172.170 155.000,174.000" stroke-width="3.825" stroke="black" fill="none" stroke-linecap="round"></path><path d="M 155.000,174.000 C 148.294,178.265 148.224,177.872 141.000,181.000" stroke-width="3.081" stroke="black" fill="none" stroke-linecap="round"></path><path d="M 141.000,181.000 C 132.032,183.623 132.294,184.265 123.000,186.000" stroke-width="2.789" stroke="black" fill="none" stroke-linecap="round"></path><path d="M 123.000,186.000 C 113.088,188.931 113.032,188.623 103.000,191.000" stroke-width="2.611" stroke="black" fill="none" stroke-linecap="round"></path><path d="M 103.000,191.000 C 93.550,192.968 93.588,192.931 84.000,194.000" stroke-width="2.686" stroke="black" fill="none" stroke-linecap="round"></path><path d="M 84.000,194.000 C 74.993,194.400 75.050,194.968 66.000,195.000" stroke-width="2.717" stroke="black" fill="none" stroke-linecap="round"></path><path d="M 66.000,195.000 C 60.009,195.714 59.993,195.400 54.000,196.000" stroke-width="3.044" stroke="black" fill="none" stroke-linecap="round"></path><path d="M 54.000,196.000 C 45.000,196.000 49.509,196.214 45.000,196.000" stroke-width="3.506" stroke="black" fill="none" stroke-linecap="round"></path><path d="M 221.000,83.000 C 223.000,88.988 222.000,89.000 223.000,95.000" stroke-width="4.713" stroke="black" fill="none" stroke-linecap="round"></path><path d="M 223.000,95.000 C 222.957,102.261 223.000,101.988 221.000,109.000" stroke-width="3.429" stroke="black" fill="none" stroke-linecap="round"></path><path d="M 221.000,109.000 C 217.648,117.564 218.457,117.761 214.000,126.000" stroke-width="2.886" stroke="black" fill="none" stroke-linecap="round"></path><path d="M 214.000,126.000 C 209.693,136.092 209.648,136.064 205.000,146.000" stroke-width="2.506" stroke="black" fill="none" stroke-linecap="round"></path><path d="M 205.000,146.000 C 200.396,154.950 200.693,155.092 196.000,164.000" stroke-width="2.555" stroke="black" fill="none" stroke-linecap="round"></path><path d="M 196.000,164.000 C 191.764,172.397 191.896,172.450 188.000,181.000" stroke-width="2.636" stroke="black" fill="none" stroke-linecap="round"></path><path d="M 188.000,181.000 C 184.804,188.428 184.764,188.397 182.000,196.000" stroke-width="2.748" stroke="black" fill="none" stroke-linecap="round"></path><path d="M 182.000,196.000 C 179.904,201.970 179.804,201.928 178.000,208.000" stroke-width="3.065" stroke="black" fill="none" stroke-linecap="round"></path><path d="M 178.000,208.000 C 175.118,212.648 176.904,211.470 176.000,215.000" stroke-width="3.585" stroke="black" fill="none" stroke-linecap="round"></path><path d="M 246.000,146.000 C 242.488,145.782 242.500,146.000 239.000,146.000" stroke-width="5.011" stroke="black" fill="none" stroke-linecap="round"></path><path d="M 239.000,146.000 C 234.455,146.225 234.488,146.282 230.000,147.000" stroke-width="3.926" stroke="black" fill="none" stroke-linecap="round"></path><path d="M 230.000,147.000 C 223.019,148.596 222.955,148.225 216.000,150.000" stroke-width="3.271" stroke="black" fill="none" stroke-linecap="round"></path><path d="M 216.000,150.000 C 208.064,152.023 208.019,151.596 200.000,153.000" stroke-width="2.982" stroke="black" fill="none" stroke-linecap="round"></path><path d="M 200.000,153.000 C 191.507,153.726 191.564,154.023 183.000,154.000" stroke-width="2.860" stroke="black" fill="none" stroke-linecap="round"></path><path d="M 183.000,154.000 C 176.000,154.000 176.007,154.226 169.000,154.000" stroke-width="3.014" stroke="black" fill="none" stroke-linecap="round"></path><path d="M 169.000,154.000 C 163.416,154.602 163.500,154.000 158.000,154.000" stroke-width="3.230" stroke="black" fill="none" stroke-linecap="round"></path><path d="M 158.000,154.000 C 151.588,152.294 154.416,153.602 151.000,152.000" stroke-width="3.774" stroke="black" fill="none" stroke-linecap="round"></path><path d="M 241.000,198.000 C 240.803,194.051 242.000,195.000 243.000,192.000" stroke-width="5.303" stroke="black" fill="none" stroke-linecap="round"></path><path d="M 243.000,192.000 C 249.653,188.231 248.303,187.051 256.000,184.000" stroke-width="3.416" stroke="black" fill="none" stroke-linecap="round"></path><path d="M 256.000,184.000 C 263.089,179.120 263.153,179.231 270.000,174.000" stroke-width="2.957" stroke="black" fill="none" stroke-linecap="round"></path><path d="M 270.000,174.000 C 276.542,169.054 276.589,169.120 283.000,164.000" stroke-width="2.947" stroke="black" fill="none" stroke-linecap="round"></path><path d="M 283.000,164.000 C 287.818,159.743 288.042,160.054 293.000,156.000" stroke-width="3.125" stroke="black" fill="none" stroke-linecap="round"></path><path d="M 293.000,156.000 C 301.249,152.994 296.818,153.243 301.000,151.000" stroke-width="3.454" stroke="black" fill="none" stroke-linecap="round"></path><path d="M 301.000,151.000 C 296.647,148.372 300.749,148.994 292.000,148.000" stroke-width="4.257" stroke="black" fill="none" stroke-linecap="round"></path><path d="M 292.000,148.000 C 283.783,147.443 284.147,147.372 276.000,149.000" stroke-width="3.202" stroke="black" fill="none" stroke-linecap="round"></path><path d="M 276.000,149.000 C 268.659,150.804 268.783,150.443 262.000,154.000" stroke-width="3.059" stroke="black" fill="none" stroke-linecap="round"></path><path d="M 262.000,154.000 C 255.793,156.712 256.159,156.804 251.000,161.000" stroke-width="3.198" stroke="black" fill="none" stroke-linecap="round"></path><path d="M 251.000,161.000 C 245.669,165.394 246.293,165.212 243.000,171.000" stroke-width="3.205" stroke="black" fill="none" stroke-linecap="round"></path><path d="M 243.000,171.000 C 241.462,176.452 240.669,175.894 241.000,182.000" stroke-width="3.386" stroke="black" fill="none" stroke-linecap="round"></path><path d="M 241.000,182.000 C 239.195,189.069 240.462,188.452 241.000,195.000" stroke-width="3.301" stroke="black" fill="none" stroke-linecap="round"></path><path d="M 241.000,195.000 C 243.645,200.874 242.695,200.569 248.000,205.000" stroke-width="3.282" stroke="black" fill="none" stroke-linecap="round"></path><path d="M 248.000,205.000 C 253.507,210.143 253.145,209.874 260.000,213.000" stroke-width="3.111" stroke="black" fill="none" stroke-linecap="round"></path><path d="M 260.000,213.000 C 266.392,215.304 266.007,215.643 273.000,216.000" stroke-width="3.080" stroke="black" fill="none" stroke-linecap="round"></path><path d="M 273.000,216.000 C 285.635,217.687 285.392,217.304 298.000,217.000" stroke-width="2.469" stroke="black" fill="none" stroke-linecap="round"></path><path d="M 298.000,217.000 C 303.635,215.878 303.635,216.687 309.000,214.000" stroke-width="3.036" stroke="black" fill="none" stroke-linecap="round"></path><path d="M 309.000,214.000 C 313.925,212.619 313.635,212.378 318.000,210.000" stroke-width="3.386" stroke="black" fill="none" stroke-linecap="round"></path><path d="M 340.000,161.000 C 342.038,165.985 342.000,166.000 344.000,171.000" stroke-width="5.032" stroke="black" fill="none" stroke-linecap="round"></path><path d="M 344.000,171.000 C 346.800,177.400 346.538,177.485 349.000,184.000" stroke-width="3.338" stroke="black" fill="none" stroke-linecap="round"></path><path d="M 349.000,184.000 C 351.174,190.955 351.300,190.900 353.000,198.000" stroke-width="3.116" stroke="black" fill="none" stroke-linecap="round"></path><path d="M 353.000,198.000 C 354.522,204.495 354.674,204.455 356.000,211.000" stroke-width="3.141" stroke="black" fill="none" stroke-linecap="round"></path><path d="M 356.000,211.000 C 356.737,215.581 357.022,215.495 358.000,220.000" stroke-width="3.525" stroke="black" fill="none" stroke-linecap="round"></path><path d="M 358.000,220.000 C 358.290,224.786 358.737,222.581 360.000,225.000" stroke-width="4.373" stroke="black" fill="none" stroke-linecap="round"></path><path d="M 360.000,225.000 C 363.685,223.671 362.290,225.286 366.000,221.000" stroke-width="4.540" stroke="black" fill="none" stroke-linecap="round"></path><path d="M 366.000,221.000 C 369.439,215.460 370.185,216.171 373.000,210.000" stroke-width="3.497" stroke="black" fill="none" stroke-linecap="round"></path><path d="M 373.000,210.000 C 377.000,204.000 376.939,203.960 381.000,198.000" stroke-width="3.166" stroke="black" fill="none" stroke-linecap="round"></path><path d="M 381.000,198.000 C 385.688,190.269 386.000,190.500 391.000,183.000" stroke-width="2.848" stroke="black" fill="none" stroke-linecap="round"></path><path d="M 391.000,183.000 C 395.238,177.263 395.188,177.269 400.000,172.000" stroke-width="2.996" stroke="black" fill="none" stroke-linecap="round"></path><path d="M 400.000,172.000 C 405.000,167.000 404.738,166.763 410.000,162.000" stroke-width="3.048" stroke="black" fill="none" stroke-linecap="round"></path><path d="M 410.000,162.000 C 415.111,156.296 413.000,159.000 416.000,156.000" stroke-width="3.462" stroke="black" fill="none" stroke-linecap="round"></path><path d="M 416.000,156.000 C 414.710,158.649 416.611,155.796 413.000,161.000" stroke-width="4.453" stroke="black" fill="none" stroke-linecap="round"></path><path d="M 437.000,200.000 C 440.430,198.315 440.500,198.500 444.000,197.000" stroke-width="5.063" stroke="black" fill="none" stroke-linecap="round"></path><path d="M 444.000,197.000 C 450.119,195.310 449.930,194.815 456.000,193.000" stroke-width="3.619" stroke="black" fill="none" stroke-linecap="round"></path><path d="M 456.000,193.000 C 464.444,190.282 464.119,189.810 472.000,186.000" stroke-width="2.984" stroke="black" fill="none" stroke-linecap="round"></path><path d="M 472.000,186.000 C 479.186,181.241 479.444,181.782 486.000,176.000" stroke-width="2.849" stroke="black" fill="none" stroke-linecap="round"></path><path d="M 486.000,176.000 C 492.214,171.235 492.186,171.241 498.000,166.000" stroke-width="2.847" stroke="black" fill="none" stroke-linecap="round"></path><path d="M 498.000,166.000 C 503.021,161.898 502.714,161.735 507.000,157.000" stroke-width="3.096" stroke="black" fill="none" stroke-linecap="round"></path><path d="M 507.000,157.000 C 510.710,153.482 509.521,153.898 511.000,150.000" stroke-width="3.567" stroke="black" fill="none" stroke-linecap="round"></path><path d="M 511.000,150.000 C 510.499,145.735 511.210,147.482 508.000,145.000" stroke-width="4.350" stroke="black" fill="none" stroke-linecap="round"></path><path d="M 508.000,145.000 C 500.408,142.749 501.999,143.235 494.000,145.000" stroke-width="3.380" stroke="black" fill="none" stroke-linecap="round"></path><path d="M 494.000,145.000 C 482.419,151.361 481.908,149.249 471.000,158.000" stroke-width="2.313" stroke="black" fill="none" stroke-linecap="round"></path><path d="M 471.000,158.000 C 460.596,163.420 460.919,163.861 451.000,170.000" stroke-width="2.353" stroke="black" fill="none" stroke-linecap="round"></path><path d="M 451.000,170.000 C 442.733,175.267 443.096,175.420 436.000,182.000" stroke-width="2.548" stroke="black" fill="none" stroke-linecap="round"></path><path d="M 436.000,182.000 C 430.744,186.963 431.233,186.767 428.000,193.000" stroke-width="2.874" stroke="black" fill="none" stroke-linecap="round"></path><path d="M 428.000,193.000 C 425.752,198.554 425.744,197.963 426.000,204.000" stroke-width="3.219" stroke="black" fill="none" stroke-linecap="round"></path><path d="M 426.000,204.000 C 425.150,211.517 426.252,209.554 429.000,215.000" stroke-width="3.321" stroke="black" fill="none" stroke-linecap="round"></path><path d="M 429.000,215.000 C 437.552,220.750 435.650,221.017 447.000,223.000" stroke-width="2.718" stroke="black" fill="none" stroke-linecap="round"></path><path d="M 447.000,223.000 C 458.978,224.529 458.552,225.750 471.000,225.000" stroke-width="2.432" stroke="black" fill="none" stroke-linecap="round"></path><path d="M 471.000,225.000 C 484.587,226.052 484.478,225.529 498.000,225.000" stroke-width="2.184" stroke="black" fill="none" stroke-linecap="round"></path><path d="M 498.000,225.000 C 510.266,224.002 510.087,224.052 522.000,221.000" stroke-width="2.273" stroke="black" fill="none" stroke-linecap="round"></path><path d="M 522.000,221.000 C 531.627,217.808 531.766,218.502 541.000,214.000" stroke-width="2.523" stroke="black" fill="none" stroke-linecap="round"></path><path d="M 541.000,214.000 C 547.734,211.418 547.627,211.308 554.000,208.000" stroke-width="2.819" stroke="black" fill="none" stroke-linecap="round"></path><path d="M 554.000,208.000 C 558.645,205.194 558.734,205.418 563.000,202.000" stroke-width="3.175" stroke="black" fill="none" stroke-linecap="round"></path><path d="M 669.000,74.000 C 663.989,77.875 665.000,78.500 661.000,83.000" stroke-width="4.840" stroke="black" fill="none" stroke-linecap="round"></path><path d="M 661.000,83.000 C 658.035,90.514 656.989,89.875 655.000,98.000" stroke-width="3.204" stroke="black" fill="none" stroke-linecap="round"></path><path d="M 655.000,98.000 C 650.369,108.948 650.535,109.014 646.000,120.000" stroke-width="2.615" stroke="black" fill="none" stroke-linecap="round"></path><path d="M 646.000,120.000 C 642.302,130.625 641.869,130.448 638.000,141.000" stroke-width="2.477" stroke="black" fill="none" stroke-linecap="round"></path><path d="M 638.000,141.000 C 633.578,151.036 633.802,151.125 629.000,161.000" stroke-width="2.463" stroke="black" fill="none" stroke-linecap="round"></path><path d="M 629.000,161.000 C 624.733,169.386 625.078,169.536 621.000,178.000" stroke-width="2.658" stroke="black" fill="none" stroke-linecap="round"></path><path d="M 621.000,178.000 C 618.106,184.381 618.233,184.386 616.000,191.000" stroke-width="2.893" stroke="black" fill="none" stroke-linecap="round"></path><path d="M 616.000,191.000 C 614.000,200.647 614.606,195.381 614.000,200.000" stroke-width="3.383" stroke="black" fill="none" stroke-linecap="round"></path><path d="M 660.000,80.000 C 663.686,76.078 664.000,77.500 668.000,75.000" stroke-width="4.905" stroke="black" fill="none" stroke-linecap="round"></path><path d="M 668.000,75.000 C 672.314,74.618 671.686,74.078 676.000,76.000" stroke-width="4.285" stroke="black" fill="none" stroke-linecap="round"></path><path d="M 676.000,76.000 C 680.117,78.330 680.314,77.618 684.000,81.000" stroke-width="3.795" stroke="black" fill="none" stroke-linecap="round"></path><path d="M 684.000,81.000 C 688.514,83.514 688.117,83.830 692.000,87.000" stroke-width="3.614" stroke="black" fill="none" stroke-linecap="round"></path><path d="M 692.000,87.000 C 694.187,89.892 694.514,89.514 696.000,93.000" stroke-width="3.794" stroke="black" fill="none" stroke-linecap="round"></path><path d="M 696.000,93.000 C 697.864,95.875 697.687,95.892 699.000,99.000" stroke-width="3.959" stroke="black" fill="none" stroke-linecap="round"></path><path d="M 699.000,99.000 C 700.350,101.553 699.864,101.375 700.000,104.000" stroke-width="4.169" stroke="black" fill="none" stroke-linecap="round"></path><path d="M 700.000,104.000 C 699.984,109.787 699.350,108.553 697.000,113.000" stroke-width="4.286" stroke="black" fill="none" stroke-linecap="round"></path><path d="M 697.000,113.000 C 692.178,115.929 693.484,116.787 687.000,118.000" stroke-width="3.620" stroke="black" fill="none" stroke-linecap="round"></path><path d="M 687.000,118.000 C 679.603,120.862 679.678,120.929 672.000,123.000" stroke-width="3.095" stroke="black" fill="none" stroke-linecap="round"></path><path d="M 672.000,123.000 C 663.565,125.342 663.603,125.362 655.000,127.000" stroke-width="2.864" stroke="black" fill="none" stroke-linecap="round"></path><path d="M 655.000,127.000 C 647.981,127.883 648.065,128.342 641.000,129.000" stroke-width="3.005" stroke="black" fill="none" stroke-linecap="round"></path><path d="M 641.000,129.000 C 635.505,130.029 635.481,129.883 630.000,131.000" stroke-width="3.213" stroke="black" fill="none" stroke-linecap="round"></path></svg>