<svg xmlns="http://www.w3.org/2000/svg" xmlns:xlink="http://www.w3.org/1999/xlink" viewBox="0 0 724 414" width="724" height="414"><path d="M 156.000,171.000 C 151.918,166.161 151.500,167.000 147.000,163.000" stroke-width="4.877" stroke="black" fill="none" stroke-linecap="round"></path><path d="M 147.000,163.000 C 144.432,162.730 144.918,161.661 142.000,162.000" stroke-width="4.887" stroke="black" fill="none" stroke-linecap="round"></path><path d="M 142.000,162.000 C 139.500,161.000 139.432,161.230 137.000,160.000" stroke-width="4.483" stroke="black" fill="none" stroke-linecap="round"></path><path d="M 137.000,160.000 C 134.401,159.200 134.500,159.000 132.000,158.000" stroke-width="4.287" stroke="black" fill="none" stroke-linecap="round"></path><path d="M 132.000,158.000 C 129.565,156.381 129.401,156.700 127.000,155.000" stroke-width="4.299" stroke="black" fill="none" stroke-linecap="round"></path><path d="M 127.000,155.000 C 122.788,153.331 123.065,152.881 119.000,151.000" stroke-width="4.406" stroke="black" fill="none" stroke-linecap="round"></path><path d="M 119.000,151.000 C 113.344,148.311 116.288,149.331 114.000,147.000" stroke-width="4.789" stroke="black" fill="none" stroke-linecap="round"></path><path d="M 114.000,147.000 C 118.341,146.689 114.844,145.311 122.000,145.000" stroke-width="5.132" stroke="black" fill="none" stroke-linecap="round"></path><path d="M 122.000,145.000 C 124.344,142.771 124.841,143.689 127.000,141.000" stroke-width="4.352" stroke="black" fill="none" stroke-linecap="round"></path><path d="M 127.000,141.000 C 130.613,139.177 130.344,138.771 134.000,137.000" stroke-width="4.014" stroke="black" fill="none" stroke-linecap="round"></path><path d="M 134.000,137.000 C 137.645,134.684 137.613,134.677 141.000,132.000" stroke-width="3.758" stroke="black" fill="none" stroke-linecap="round"></path><path d="M 141.000,132.000 C 144.984,128.481 145.145,128.684 149.000,125.000" stroke-width="3.545" stroke="black" fill="none" stroke-linecap="round"></path><path d="M 149.000,125.000 C 152.615,122.124 152.484,121.981 156.000,119.000" stroke-width="3.562" stroke="black" fill="none" stroke-linecap="round"></path><path d="M 156.000,119.000 C 159.000,116.000 159.115,116.124 162.000,113.000" stroke-width="3.741" stroke="black" fill="none" stroke-linecap="round"></path><path d="M 162.000,113.000 C 164.293,110.256 164.500,110.500 167.000,108.000" stroke-width="3.900" stroke="black" fill="none" stroke-linecap="round"></path><path d="M 167.000,108.000 C 172.646,102.458 170.293,105.256 174.000,103.000" stroke-width="4.277" stroke="black" fill="none" stroke-linecap="round"></path><path d="M 174.000,103.000 C 173.380,106.648 175.146,103.458 172.000,110.000" stroke-width="4.904" stroke="black" fill="none" stroke-linecap="round"></path><path d="M 172.000,110.000 C 169.770,115.153 169.880,115.148 167.000,120.000" stroke-width="3.669" stroke="black" fill="none" stroke-linecap="round"></path><path d="M 167.000,120.000 C 163.389,125.432 163.770,125.653 160.000,131.000" stroke-width="3.315" stroke="black" fill="none" stroke-linecap="round"></path><path d="M 160.000,131.000 C 156.574,137.044 156.389,136.932 153.000,143.000" stroke-width="3.158" stroke="black" fill="none" stroke-linecap="round"></path><path d="M 153.000,143.000 C 149.175,149.614 149.074,149.544 145.000,156.000" stroke-width="3.020" stroke="black" fill="none" stroke-linecap="round"></path><path d="M 145.000,156.000 C 140.500,162.500 140.675,162.614 136.000,169.000" stroke-width="3.002" stroke="black" fill="none" stroke-linecap="round"></path><path d="M 136.000,169.000 C 131.384,175.423 131.500,175.500 127.000,182.000" stroke-width="2.940" stroke="black" fill="none" stroke-linecap="round"></path><path d="M 127.000,182.000 C 123.784,187.703 123.384,187.423 120.000,193.000" stroke-width="3.158" stroke="black" fill="none" stroke-linecap="round"></path><path d="M 120.000,193.000 C 115.968,197.974 116.284,198.203 112.000,203.000" stroke-width="3.343" stroke="black" fill="none" stroke-linecap="round"></path><path d="M 112.000,203.000 C 108.747,207.718 108.468,207.474 105.000,212.000" stroke-width="3.360" stroke="black" fill="none" stroke-linecap="round"></path><path d="M 105.000,212.000 C 101.617,215.625 101.747,215.718 98.000,219.000" stroke-width="3.440" stroke="black" fill="none" stroke-linecap="round"></path><path d="M 98.000,219.000 C 94.016,222.519 94.117,222.625 90.000,226.000" stroke-width="3.454" stroke="black" fill="none" stroke-linecap="round"></path><path d="M 90.000,226.000 C 86.469,228.965 86.516,229.019 83.000,232.000" stroke-width="3.534" stroke="black" fill="none" stroke-linecap="round"></path><path d="M 83.000,232.000 C 78.515,236.017 78.469,235.965 74.000,240.000" stroke-width="3.361" stroke="black" fill="none" stroke-linecap="round"></path><path d="M 74.000,240.000 C 70.049,243.558 70.015,243.517 66.000,247.000" stroke-width="3.482" stroke="black" fill="none" stroke-linecap="round"></path><path d="M 66.000,247.000 C 60.190,252.267 60.049,252.058 54.000,257.000" stroke-width="3.196" stroke="black" fill="none" stroke-linecap="round"></path><path d="M 54.000,257.000 C 51.599,258.700 51.690,258.767 49.000,260.000" stroke-width="3.793" stroke="black" fill="none" stroke-linecap="round"></path><path d="M 49.000,260.000 C 45.448,263.267 46.599,261.200 44.000,262.000" stroke-width="4.455" stroke="black" fill="none" stroke-linecap="round"></path><path d="M 44.000,262.000 C 41.283,257.526 41.448,259.767 41.000,253.000" stroke-width="4.854" stroke="black" fill="none" stroke-linecap="round"></path><path d="M 41.000,253.000 C 41.654,249.365 40.783,249.526 43.000,246.000" stroke-width="4.175" stroke="black" fill="none" stroke-linecap="round"></path><path d="M 43.000,246.000 C 44.810,241.893 44.654,241.865 47.000,238.000" stroke-width="3.761" stroke="black" fill="none" stroke-linecap="round"></path><path d="M 47.000,238.000 C 49.283,233.849 49.310,233.893 52.000,230.000" stroke-width="3.659" stroke="black" fill="none" stroke-linecap="round"></path><path d="M 52.000,230.000 C 55.500,225.500 55.283,225.349 59.000,221.000" stroke-width="3.557" stroke="black" fill="none" stroke-linecap="round"></path><path d="M 59.000,221.000 C 62.101,216.129 62.500,216.500 66.000,212.000" stroke-width="3.422" stroke="black" fill="none" stroke-linecap="round"></path><path d="M 66.000,212.000 C 70.757,207.194 70.601,207.129 76.000,203.000" stroke-width="3.157" stroke="black" fill="none" stroke-linecap="round"></path><path d="M 76.000,203.000 C 80.855,199.274 80.757,199.194 86.000,196.000" stroke-width="3.181" stroke="black" fill="none" stroke-linecap="round"></path><path d="M 86.000,196.000 C 92.000,192.500 91.855,192.274 98.000,189.000" stroke-width="3.060" stroke="black" fill="none" stroke-linecap="round"></path><path d="M 98.000,189.000 C 103.801,185.100 104.000,185.500 110.000,182.000" stroke-width="3.025" stroke="black" fill="none" stroke-linecap="round"></path><path d="M 110.000,182.000 C 115.965,179.414 115.801,179.100 122.000,177.000" stroke-width="3.080" stroke="black" fill="none" stroke-linecap="round"></path><path d="M 122.000,177.000 C 128.590,174.712 128.465,174.414 135.000,172.000" stroke-width="3.143" stroke="black" fill="none" stroke-linecap="round"></path><path d="M 135.000,172.000 C 141.448,168.883 141.590,169.212 148.000,166.000" stroke-width="3.019" stroke="black" fill="none" stroke-linecap="round"></path><path d="M 148.000,166.000 C 154.000,163.500 153.948,163.383 160.000,161.000" stroke-width="3.135" stroke="black" fill="none" stroke-linecap="round"></path><path d="M 160.000,161.000 C 166.202,158.899 166.000,158.500 172.000,156.000" stroke-width="3.226" stroke="black" fill="none" stroke-linecap="round"></path><path d="M 172.000,156.000 C 176.954,152.921 177.202,153.399 182.000,150.000" stroke-width="3.245" stroke="black" fill="none" stroke-linecap="round"></path><path d="M 182.000,150.000 C 186.642,147.724 186.454,147.421 191.000,145.000" stroke-width="3.367" stroke="black" fill="none" stroke-linecap="round"></path><path d="M 191.000,145.000 C 194.682,142.715 194.642,142.724 198.000,140.000" stroke-width="3.566" stroke="black" fill="none" stroke-linecap="round"></path><path d="M 198.000,140.000 C 203.270,136.317 200.182,138.215 202.000,136.000" stroke-width="4.350" stroke="black" fill="none" stroke-linecap="round"></path><path d="M 202.000,136.000 C 195.763,136.271 199.270,135.317 190.000,138.000" stroke-width="4.802" stroke="black" fill="none" stroke-linecap="round"></path><path d="M 190.000,138.000 C 185.893,139.810 185.763,139.271 182.000,142.000" stroke-width="3.899" stroke="black" fill="none" stroke-linecap="round"></path><path d="M 182.000,142.000 C 177.540,143.966 177.893,144.310 174.000,147.000" stroke-width="3.639" stroke="black" fill="none" stroke-linecap="round"></path><path d="M 174.000,147.000 C 170.978,150.481 170.540,149.966 168.000,154.000" stroke-width="3.645" stroke="black" fill="none" stroke-linecap="round"></path><path d="M 168.000,154.000 C 165.473,156.978 165.478,156.981 163.000,160.000" stroke-width="3.789" stroke="black" fill="none" stroke-linecap="round"></path><path d="M 163.000,160.000 C 160.392,162.217 160.973,162.478 159.000,165.000" stroke-width="3.992" stroke="black" fill="none" stroke-linecap="round"></path><path d="M 159.000,165.000 C 158.195,167.470 157.892,167.217 158.000,170.000" stroke-width="4.180" stroke="black" fill="none" stroke-linecap="round"></path><path d="M 158.000,170.000 C 156.611,174.667 157.695,173.970 158.000,178.000" stroke-width="4.399" stroke="black" fill="none" stroke-linecap="round"></path><path d="M 158.000,178.000 C 160.161,180.967 159.111,180.667 163.000,182.000" stroke-width="4.802" stroke="black" fill="none" stroke-linecap="round"></path><path d="M 163.000,182.000 C 166.167,182.708 165.661,182.967 169.000,182.000" stroke-width="4.332" stroke="black" fill="none" stroke-linecap="round"></path><path d="M 169.000,182.000 C 172.048,180.590 172.167,181.208 175.000,179.000" stroke-width="4.119" stroke="black" fill="none" stroke-linecap="round"></path><path d="M 175.000,179.000 C 178.698,177.286 178.548,177.090 182.000,175.000" stroke-width="3.846" stroke="black" fill="none" stroke-linecap="round"></path><path d="M 182.000,175.000 C 185.113,172.624 185.198,172.786 188.000,170.000" stroke-width="3.900" stroke="black" fill="none" stroke-linecap="round"></path><path d="M 188.000,170.000 C 190.808,167.740 190.613,167.624 193.000,165.000" stroke-width="3.901" stroke="black" fill="none" stroke-linecap="round"></path><path d="M 193.000,165.000 C 194.933,162.667 194.808,162.740 196.000,160.000" stroke-width="4.098" stroke="black" fill="none" stroke-linecap="round"></path><path d="M 196.000,160.000 C 196.581,157.514 196.933,157.667 197.000,155.000" stroke-width="4.256" stroke="black" fill="none" stroke-linecap="round"></path><path d="M 197.000,155.000 C 199.162,150.324 197.581,151.514 198.000,148.000" stroke-width="4.513" stroke="black" fill="none" stroke-linecap="round"></path><path d="M 198.000,148.000 C 195.530,147.195 197.162,146.324 193.000,147.000" stroke-width="4.905" stroke="black" fill="none" stroke-linecap="round"></path><path d="M 193.000,147.000 C 188.397,145.544 189.030,146.695 185.000,147.000" stroke-width="4.654" stroke="black" fill="none" stroke-linecap="round"></path><path d="M 185.000,147.000 C 181.242,149.512 181.397,148.544 179.000,153.000" stroke-width="4.527" stroke="black" fill="none" stroke-linecap="round"></path><path d="M 179.000,153.000 C 177.350,156.950 176.742,156.512 176.000,161.000" stroke-width="4.486" stroke="black" fill="none" stroke-linecap="round"></path><path d="M 176.000,161.000 C 172.654,165.532 174.850,164.450 174.000,168.000" stroke-width="4.571" stroke="black" fill="none" stroke-linecap="round"></path><path d="M 174.000,168.000 C 177.908,171.744 175.654,171.032 182.000,172.000" stroke-width="4.914" stroke="black" fill="none" stroke-linecap="round"></path><path d="M 182.000,172.000 C 186.314,171.073 185.908,172.244 190.000,169.000" stroke-width="4.089" stroke="black" fill="none" stroke-linecap="round"></path><path d="M 190.000,169.000 C 193.876,165.821 194.314,166.573 198.000,163.000" stroke-width="3.690" stroke="black" fill="none" stroke-linecap="round"></path><path d="M 198.000,163.000 C 203.616,159.671 203.376,159.321 209.000,156.000" stroke-width="3.256" stroke="black" fill="none" stroke-linecap="round"></path><path d="M 209.000,156.000 C 214.621,152.157 214.616,152.171 220.000,148.000" stroke-width="3.163" stroke="black" fill="none" stroke-linecap="round"></path><path d="M 220.000,148.000 C 225.624,143.643 225.621,143.657 231.000,139.000" stroke-width="3.032" stroke="black" fill="none" stroke-linecap="round"></path><path d="M 231.000,139.000 C 236.488,133.987 236.624,134.143 242.000,129.000" stroke-width="2.950" stroke="black" fill="none" stroke-linecap="round"></path><path d="M 242.000,129.000 C 247.111,124.617 246.988,124.487 252.000,120.000" stroke-width="3.133" stroke="black" fill="none" stroke-linecap="round"></path><path d="M 252.000,120.000 C 255.882,115.875 256.111,116.117 260.000,112.000" stroke-width="3.245" stroke="black" fill="none" stroke-linecap="round"></path><path d="M 260.000,112.000 C 264.618,108.125 264.382,107.875 269.000,104.000" stroke-width="3.220" stroke="black" fill="none" stroke-linecap="round"></path><path d="M 269.000,104.000 C 273.421,100.345 273.118,100.125 277.000,96.000" stroke-width="3.329" stroke="black" fill="none" stroke-linecap="round"></path><path d="M 277.000,96.000 C 280.062,91.540 280.421,91.845 283.000,87.000" stroke-width="3.404" stroke="black" fill="none" stroke-linecap="round"></path><path d="M 283.000,87.000 C 286.024,83.233 285.562,83.040 288.000,79.000" stroke-width="3.497" stroke="black" fill="none" stroke-linecap="round"></path><path d="M 288.000,79.000 C 288.850,75.449 289.524,75.733 290.000,72.000" stroke-width="3.795" stroke="black" fill="none" stroke-linecap="round"></path><path d="M 290.000,72.000 C 291.743,69.568 290.850,69.449 292.000,67.000" stroke-width="4.075" stroke="black" fill="none" stroke-linecap="round"></path><path d="M 292.000,67.000 C 292.748,62.350 292.243,64.568 291.000,62.000" stroke-width="4.745" stroke="black" fill="none" stroke-linecap="round"></path><path d="M 291.000,62.000 C 286.087,62.729 287.748,61.350 282.000,65.000" stroke-width="4.517" stroke="black" fill="none" stroke-linecap="round"></path><path d="M 282.000,65.000 C 277.341,68.311 277.087,67.729 273.000,72.000" stroke-width="3.577" stroke="black" fill="none" stroke-linecap="round"></path><path d="M 273.000,72.000 C 267.251,76.749 267.341,76.811 262.000,82.000" stroke-width="3.153" stroke="black" fill="none" stroke-linecap="round"></path><path d="M 262.000,82.000 C 256.630,88.125 256.251,87.749 251.000,94.000" stroke-width="2.889" stroke="black" fill="none" stroke-linecap="round"></path><path d="M 251.000,94.000 C 244.728,99.751 245.130,100.125 239.000,106.000" stroke-width="3.124" stroke="black" fill="none" stroke-linecap="round"></path><path d="M 239.000,106.000 C 233.811,111.853 233.728,111.751 229.000,118.000" stroke-width="2.987" stroke="black" fill="none" stroke-linecap="round"></path><path d="M 229.000,118.000 C 224.769,123.347 224.811,123.353 221.000,129.000" stroke-width="3.082" stroke="black" fill="none" stroke-linecap="round"></path><path d="M 221.000,129.000 C 217.711,133.850 217.769,133.847 215.000,139.000" stroke-width="3.307" stroke="black" fill="none" stroke-linecap="round"></path><path d="M 215.000,139.000 C 212.633,143.374 212.711,143.350 211.000,148.000" stroke-width="3.427" stroke="black" fill="none" stroke-linecap="round"></path><path d="M 211.000,148.000 C 209.863,151.972 209.633,151.874 209.000,156.000" stroke-width="3.672" stroke="black" fill="none" stroke-linecap="round"></path><path d="M 209.000,156.000 C 208.000,159.008 208.363,158.972 208.000,162.000" stroke-width="3.989" stroke="black" fill="none" stroke-linecap="round"></path><path d="M 208.000,162.000 C 207.511,167.000 208.000,164.508 209.000,167.000" stroke-width="4.803" stroke="black" fill="none" stroke-linecap="round"></path><path d="M 209.000,167.000 C 212.621,164.655 211.511,167.000 216.000,162.000" stroke-width="4.579" stroke="black" fill="none" stroke-linecap="round"></path><path d="M 216.000,162.000 C 219.293,158.718 219.621,159.155 223.000,156.000" stroke-width="3.942" stroke="black" fill="none" stroke-linecap="round"></path><path d="M 223.000,156.000 C 227.000,153.500 226.793,153.218 231.000,151.000" stroke-width="3.651" stroke="black" fill="none" stroke-linecap="round"></path><path d="M 231.000,151.000 C 234.762,147.994 235.000,148.500 239.000,146.000" stroke-width="3.571" stroke="black" fill="none" stroke-linecap="round"></path><path d="M 239.000,146.000 C 243.500,144.500 243.262,143.994 248.000,143.000" stroke-width="3.649" stroke="black" fill="none" stroke-linecap="round"></path><path d="M 248.000,143.000 C 251.840,140.190 251.000,142.000 254.000,141.000" stroke-width="3.953" stroke="black" fill="none" stroke-linecap="round"></path><path d="M 254.000,141.000 C 256.207,143.515 255.840,141.690 256.000,146.000" stroke-width="4.751" stroke="black" fill="none" stroke-linecap="round"></path><path d="M 256.000,146.000 C 254.610,149.551 255.707,149.515 253.000,153.000" stroke-width="4.109" stroke="black" fill="none" stroke-linecap="round"></path><path d="M 253.000,153.000 C 251.000,157.000 251.110,157.051 249.000,161.000" stroke-width="3.745" stroke="black" fill="none" stroke-linecap="round"></path><path d="M 249.000,161.000 C 246.568,163.875 247.500,164.000 246.000,167.000" stroke-width="3.895" stroke="black" fill="none" stroke-linecap="round"></path><path d="M 246.000,167.000 C 245.489,171.568 245.568,169.375 247.000,172.000" stroke-width="4.670" stroke="black" fill="none" stroke-linecap="round"></path><path d="M 247.000,172.000 C 250.262,170.895 248.989,172.568 253.000,169.000" stroke-width="4.254" stroke="black" fill="none" stroke-linecap="round"></path><path d="M 253.000,169.000 C 256.749,166.251 256.762,166.395 260.000,163.000" stroke-width="3.750" stroke="black" fill="none" stroke-linecap="round"></path><path d="M 260.000,163.000 C 263.367,158.875 263.749,159.251 267.000,155.000" stroke-width="3.483" stroke="black" fill="none" stroke-linecap="round"></path><path d="M 267.000,155.000 C 270.753,150.716 270.867,150.875 275.000,147.000" stroke-width="3.463" stroke="black" fill="none" stroke-linecap="round"></path><path d="M 275.000,147.000 C 278.894,143.843 278.753,143.716 283.000,141.000" stroke-width="3.518" stroke="black" fill="none" stroke-linecap="round"></path><path d="M 283.000,141.000 C 287.217,136.825 285.394,139.343 288.000,138.000" stroke-width="3.920" stroke="black" fill="none" stroke-linecap="round"></path><path d="M 288.000,138.000 C 287.640,142.522 289.217,139.825 287.000,147.000" stroke-width="4.709" stroke="black" fill="none" stroke-linecap="round"></path><path d="M 287.000,147.000 C 284.743,151.162 286.640,149.522 286.000,152.000" stroke-width="4.822" stroke="black" fill="none" stroke-linecap="round"></path><path d="M 286.000,152.000 C 289.962,152.519 287.743,153.162 293.000,151.000" stroke-width="4.705" stroke="black" fill="none" stroke-linecap="round"></path><path d="M 293.000,151.000 C 296.293,147.718 296.962,149.019 300.000,145.000" stroke-width="3.911" stroke="black" fill="none" stroke-linecap="round"></path><path d="M 300.000,145.000 C 304.128,142.681 303.793,142.218 308.000,140.000" stroke-width="3.643" stroke="black" fill="none" stroke-linecap="round"></path><path d="M 308.000,140.000 C 310.284,137.630 310.628,138.181 313.000,136.000" stroke-width="3.983" stroke="black" fill="none" stroke-linecap="round"></path><path d="M 313.000,136.000 C 318.000,133.352 315.284,134.630 318.000,134.000" stroke-width="4.181" stroke="black" fill="none" stroke-linecap="round"></path><path d="M 318.000,134.000 C 315.278,136.308 318.000,134.852 313.000,139.000" stroke-width="4.768" stroke="black" fill="none" stroke-linecap="round"></path><path d="M 313.000,139.000 C 309.768,142.848 309.778,142.808 307.000,147.000" stroke-width="3.899" stroke="black" fill="none" stroke-linecap="round"></path><path d="M 307.000,147.000 C 304.799,150.403 304.768,150.348 303.000,154.000" stroke-width="3.786" stroke="black" fill="none" stroke-linecap="round"></path><path d="M 303.000,154.000 C 301.770,156.432 301.799,156.403 301.000,159.000" stroke-width="4.072" stroke="black" fill="none" stroke-linecap="round"></path><path d="M 301.000,159.000 C 299.757,161.568 300.270,161.432 300.000,164.000" stroke-width="4.613" stroke="black" fill="none" stroke-linecap="round"></path><path d="M 300.000,164.000 C 299.988,167.994 300.257,166.568 302.000,169.000" stroke-width="5.009" stroke="black" fill="none" stroke-linecap="round"></path><path d="M 302.000,169.000 C 306.386,170.205 304.988,170.494 310.000,169.000" stroke-width="4.700" stroke="black" fill="none" stroke-linecap="round"></path><path d="M 310.000,169.000 C 313.560,166.580 313.886,167.705 317.000,164.000" stroke-width="3.919" stroke="black" fill="none" stroke-linecap="round"></path><path d="M 317.000,164.000 C 321.659,160.689 321.560,160.580 326.000,157.000" stroke-width="3.452" stroke="black" fill="none" stroke-linecap="round"></path><path d="M 326.000,157.000 C 331.647,152.154 331.659,152.189 337.000,147.000" stroke-width="3.183" stroke="black" fill="none" stroke-linecap="round"></path><path d="M 337.000,147.000 C 345.309,139.282 345.147,139.154 353.000,131.000" stroke-width="2.976" stroke="black" fill="none" stroke-linecap="round"></path><path d="M 353.000,131.000 C 358.000,125.000 358.309,125.282 363.000,119.000" stroke-width="2.945" stroke="black" fill="none" stroke-linecap="round"></path><path d="M 363.000,119.000 C 365.581,116.065 365.500,116.000 368.000,113.000" stroke-width="3.527" stroke="black" fill="none" stroke-linecap="round"></path><path d="M 368.000,113.000 C 373.338,106.733 373.081,106.565 378.000,100.000" stroke-width="3.034" stroke="black" fill="none" stroke-linecap="round"></path><path d="M 378.000,100.000 C 381.955,93.472 382.338,93.733 386.000,87.000" stroke-width="2.985" stroke="black" fill="none" stroke-linecap="round"></path><path d="M 386.000,87.000 C 389.796,81.668 389.455,81.472 393.000,76.000" stroke-width="3.121" stroke="black" fill="none" stroke-linecap="round"></path><path d="M 393.000,76.000 C 395.678,69.813 396.296,70.168 399.000,64.000" stroke-width="3.192" stroke="black" fill="none" stroke-linecap="round"></path><path d="M 399.000,64.000 C 402.359,59.695 401.678,59.313 405.000,55.000" stroke-width="3.360" stroke="black" fill="none" stroke-linecap="round"></path><path d="M 405.000,55.000 C 406.536,51.515 406.859,51.695 408.000,48.000" stroke-width="3.711" stroke="black" fill="none" stroke-linecap="round"></path><path d="M 408.000,48.000 C 410.770,44.027 409.036,45.515 410.000,43.000" stroke-width="4.433" stroke="black" fill="none" stroke-linecap="round"></path><path d="M 410.000,43.000 C 407.281,42.947 409.270,42.027 405.000,44.000" stroke-width="4.731" stroke="black" fill="none" stroke-linecap="round"></path><path d="M 405.000,44.000 C 400.618,46.020 400.781,45.947 397.000,49.000" stroke-width="3.828" stroke="black" fill="none" stroke-linecap="round"></path><path d="M 397.000,49.000 C 392.252,53.276 392.118,53.020 388.000,58.000" stroke-width="3.379" stroke="black" fill="none" stroke-linecap="round"></path><path d="M 388.000,58.000 C 383.034,63.172 383.252,63.276 379.000,69.000" stroke-width="3.152" stroke="black" fill="none" stroke-linecap="round"></path><path d="M 379.000,69.000 C 374.739,76.654 374.034,76.172 370.000,84.000" stroke-width="2.936" stroke="black" fill="none" stroke-linecap="round"></path><path d="M 370.000,84.000 C 364.331,91.888 364.739,92.154 359.000,100.000" stroke-width="2.712" stroke="black" fill="none" stroke-linecap="round"></path><path d="M 359.000,100.000 C 353.349,109.741 352.831,109.388 347.000,119.000" stroke-width="2.616" stroke="black" fill="none" stroke-linecap="round"></path><path d="M 347.000,119.000 C 340.952,126.965 341.349,127.241 335.000,135.000" stroke-width="2.534" stroke="black" fill="none" stroke-linecap="round"></path><path d="M 335.000,135.000 C 330.899,140.430 330.952,140.465 327.000,146.000" stroke-width="2.968" stroke="black" fill="none" stroke-linecap="round"></path><path d="M 327.000,146.000 C 323.379,150.243 323.899,150.430 321.000,155.000" stroke-width="3.282" stroke="black" fill="none" stroke-linecap="round"></path><path d="M 321.000,155.000 C 318.736,158.946 319.879,157.243 320.000,160.000" stroke-width="4.254" stroke="black" fill="none" stroke-linecap="round"></path><path d="M 320.000,160.000 C 323.762,161.012 321.736,161.446 327.000,160.000" stroke-width="4.062" stroke="black" fill="none" stroke-linecap="round"></path><path d="M 327.000,160.000 C 331.729,157.847 331.762,158.512 336.000,155.000" stroke-width="3.654" stroke="black" fill="none" stroke-linecap="round"></path><path d="M 336.000,155.000 C 340.472,151.463 340.729,151.847 345.000,148.000" stroke-width="3.387" stroke="black" fill="none" stroke-linecap="round"></path><path d="M 345.000,148.000 C 349.070,145.088 348.972,144.963 353.000,142.000" stroke-width="3.494" stroke="black" fill="none" stroke-linecap="round"></path><path d="M 353.000,142.000 C 355.880,139.340 356.070,139.588 359.000,137.000" stroke-width="3.689" stroke="black" fill="none" stroke-linecap="round"></path><path d="M 359.000,137.000 C 362.087,135.119 361.880,134.840 365.000,133.000" stroke-width="3.868" stroke="black" fill="none" stroke-linecap="round"></path><path d="M 365.000,133.000 C 367.233,130.509 367.587,131.119 370.000,129.000" stroke-width="4.060" stroke="black" fill="none" stroke-linecap="round"></path><path d="M 370.000,129.000 C 373.000,127.000 372.733,127.509 376.000,127.000" stroke-width="4.486" stroke="black" fill="none" stroke-linecap="round"></path><path d="M 376.000,127.000 C 380.140,126.908 379.000,127.000 382.000,129.000" stroke-width="4.829" stroke="black" fill="none" stroke-linecap="round"></path><path d="M 382.000,129.000 C 383.524,132.427 384.140,131.408 384.000,136.000" stroke-width="4.690" stroke="black" fill="none" stroke-linecap="round"></path><path d="M 384.000,136.000 C 384.524,140.073 384.524,139.927 384.000,144.000" stroke-width="4.575" stroke="black" fill="none" stroke-linecap="round"></path><path d="M 384.000,144.000 C 383.685,147.840 383.524,147.573 382.000,151.000" stroke-width="4.110" stroke="black" fill="none" stroke-linecap="round"></path><path d="M 382.000,151.000 C 379.284,155.247 379.685,155.340 376.000,159.000" stroke-width="3.695" stroke="black" fill="none" stroke-linecap="round"></path><path d="M 376.000,159.000 C 372.222,163.248 372.284,163.247 368.000,167.000" stroke-width="3.406" stroke="black" fill="none" stroke-linecap="round"></path><path d="M 368.000,167.000 C 363.120,171.160 363.222,171.248 358.000,175.000" stroke-width="3.321" stroke="black" fill="none" stroke-linecap="round"></path><path d="M 358.000,175.000 C 353.077,178.615 353.120,178.660 348.000,182.000" stroke-width="3.229" stroke="black" fill="none" stroke-linecap="round"></path><path d="M 348.000,182.000 C 341.215,186.877 341.077,186.615 334.000,191.000" stroke-width="2.883" stroke="black" fill="none" stroke-linecap="round"></path><path d="M 334.000,191.000 C 327.047,194.598 327.215,194.877 320.000,198.000" stroke-width="2.915" stroke="black" fill="none" stroke-linecap="round"></path><path d="M 320.000,198.000 C 312.542,201.594 312.547,201.598 305.000,205.000" stroke-width="2.869" stroke="black" fill="none" stroke-linecap="round"></path><path d="M 305.000,205.000 C 297.038,208.590 297.042,208.594 289.000,212.000" stroke-width="2.802" stroke="black" fill="none" stroke-linecap="round"></path><path d="M 289.000,212.000 C 280.680,216.024 280.538,215.590 272.000,219.000" stroke-width="2.732" stroke="black" fill="none" stroke-linecap="round"></path><path d="M 272.000,219.000 C 263.123,222.079 263.180,222.024 254.000,224.000" stroke-width="2.635" stroke="black" fill="none" stroke-linecap="round"></path><path d="M 254.000,224.000 C 244.056,226.246 244.123,226.079 234.000,227.000" stroke-width="2.528" stroke="black" fill="none" stroke-linecap="round"></path><path d="M 234.000,227.000 C 224.000,227.000 224.056,227.746 214.000,227.000" stroke-width="2.622" stroke="black" fill="none" stroke-linecap="round"></path><path d="M 214.000,227.000 C 204.341,228.229 204.500,227.000 195.000,227.000" stroke-width="2.646" stroke="black" fill="none" stroke-linecap="round"></path><path d="M 195.000,227.000 C 185.238,225.246 185.341,225.729 176.000,222.000" stroke-width="2.560" stroke="black" fill="none" stroke-linecap="round"></path><path d="M 176.000,222.000 C 166.799,218.400 166.738,218.746 158.000,214.000" stroke-width="2.533" stroke="black" fill="none" stroke-linecap="round"></path><path d="M 158.000,214.000 C 149.743,209.904 149.799,209.900 142.000,205.000" stroke-width="2.593" stroke="black" fill="none" stroke-linecap="round"></path><path d="M 142.000,205.000 C 134.706,200.365 134.743,200.404 128.000,195.000" stroke-width="2.732" stroke="black" fill="none" stroke-linecap="round"></path><path d="M 128.000,195.000 C 121.515,190.770 122.206,190.365 117.000,185.000" stroke-width="2.915" stroke="black" fill="none" stroke-linecap="round"></path><path d="M 117.000,185.000 C 112.151,178.931 112.515,179.270 110.000,172.000" stroke-width="2.922" stroke="black" fill="none" stroke-linecap="round"></path><path d="M 110.000,172.000 C 108.459,164.034 107.651,164.431 108.000,156.000" stroke-width="2.953" stroke="black" fill="none" stroke-linecap="round"></path><path d="M 108.000,156.000 C 104.259,145.295 107.459,146.534 108.000,137.000" stroke-width="2.675" stroke="black" fill="none" stroke-linecap="round"></path><path d="M 108.000,137.000 C 117.957,119.609 115.759,119.795 131.000,105.000" stroke-width="2.311" stroke="black" fill="none" stroke-linecap="round"></path><path d="M 131.000,105.000 C 143.991,92.341 142.957,91.609 158.000,81.000" stroke-width="1.868" stroke="black" fill="none" stroke-linecap="round"></path><path d="M 158.000,81.000 C 165.134,75.370 164.991,75.341 173.000,71.000" stroke-width="2.481" stroke="black" fill="none" stroke-linecap="round"></path><path d="M 173.000,71.000 C 187.547,62.419 187.634,62.870 203.000,56.000" stroke-width="1.975" stroke="black" fill="none" stroke-linecap="round"></path><path d="M 203.000,56.000 C 220.185,48.835 220.047,48.919 238.000,44.000" stroke-width="1.828" stroke="black" fill="none" stroke-linecap="round"></path><path d="M 238.000,44.000 C 255.349,39.336 255.185,39.335 273.000,37.000" stroke-width="1.819" stroke="black" fill="none" stroke-linecap="round"></path><path d="M 273.000,37.000 C 289.487,35.560 289.349,34.836 306.000,35.000" stroke-width="1.882" stroke="black" fill="none" stroke-linecap="round"></path><path d="M 306.000,35.000 C 319.184,33.576 318.987,34.560 332.000,35.000" stroke-width="2.157" stroke="black" fill="none" stroke-linecap="round"></path><path d="M 332.000,35.000 C 342.136,36.159 341.684,36.076 351.000,40.000" stroke-width="2.455" stroke="black" fill="none" stroke-linecap="round"></path><path d="M 351.000,40.000 C 358.126,42.934 357.136,42.659 362.000,48.000" stroke-width="2.888" stroke="black" fill="none" stroke-linecap="round"></path><path d="M 362.000,48.000 C 365.581,53.136 364.626,51.434 364.000,57.000" stroke-width="3.381" stroke="black" fill="none" stroke-linecap="round"></path><path d="M 364.000,57.000 C 359.624,64.808 361.081,64.136 353.000,70.000" stroke-width="3.080" stroke="black" fill="none" stroke-linecap="round"></path><path d="M 353.000,70.000 C 340.683,79.395 341.124,79.308 327.000,86.000" stroke-width="2.245" stroke="black" fill="none" stroke-linecap="round"></path><path d="M 327.000,86.000 C 311.337,93.123 311.683,93.395 295.000,98.000" stroke-width="1.909" stroke="black" fill="none" stroke-linecap="round"></path><path d="M 295.000,98.000 C 277.691,103.220 277.837,103.123 260.000,106.000" stroke-width="1.837" stroke="black" fill="none" stroke-linecap="round"></path><path d="M 260.000,106.000 C 242.529,108.178 242.691,108.720 225.000,109.000" stroke-width="1.835" stroke="black" fill="none" stroke-linecap="round"></path><path d="M 225.000,109.000 C 210.368,110.330 210.529,109.678 196.000,109.000" stroke-width="1.999" stroke="black" fill="none" stroke-linecap="round"></path><path d="M 196.000,109.000 C 180.654,111.093 183.368,107.830 171.000,104.000" stroke-width="2.169" stroke="black" fill="none" stroke-linecap="round"></path><path d="M 171.000,104.000 C 153.276,80.014 156.154,93.093 147.000,73.000" stroke-width="1.242" stroke="black" fill="none" stroke-linecap="round"></path><path d="M 404.000,156.000 C 411.806,157.489 411.500,156.000 419.000,156.000" stroke-width="5.192" stroke="black" fill="none" stroke-linecap="round"></path><path d="M 419.000,156.000 C 426.095,153.206 426.306,154.489 433.000,150.000" stroke-width="3.478" stroke="black" fill="none" stroke-linecap="round"></path><path d="M 433.000,150.000 C 439.949,146.395 440.095,146.706 447.000,143.000" stroke-width="3.008" stroke="black" fill="none" stroke-linecap="round"></path><path d="M 447.000,143.000 C 453.384,139.707 453.449,139.895 460.000,137.000" stroke-width="3.094" stroke="black" fill="none" stroke-linecap="round"></path><path d="M 460.000,137.000 C 466.767,133.362 464.384,135.207 469.000,134.000" stroke-width="3.438" stroke="black" fill="none" stroke-linecap="round"></path><path d="M 469.000,134.000 C 468.616,136.887 470.267,134.362 467.000,139.000" stroke-width="4.448" stroke="black" fill="none" stroke-linecap="round"></path><path d="M 467.000,139.000 C 461.461,144.965 462.116,145.387 456.000,151.000" stroke-width="3.215" stroke="black" fill="none" stroke-linecap="round"></path><path d="M 456.000,151.000 C 451.917,155.430 451.961,155.465 448.000,160.000" stroke-width="3.269" stroke="black" fill="none" stroke-linecap="round"></path><path d="M 448.000,160.000 C 442.843,163.650 445.917,162.430 444.000,165.000" stroke-width="3.759" stroke="black" fill="none" stroke-linecap="round"></path><path d="M 444.000,165.000 C 449.014,167.356 445.843,167.150 454.000,167.000" stroke-width="4.139" stroke="black" fill="none" stroke-linecap="round"></path><path d="M 454.000,167.000 C 463.188,165.644 463.014,166.356 472.000,163.000" stroke-width="2.938" stroke="black" fill="none" stroke-linecap="round"></path><path d="M 472.000,163.000 C 482.977,158.937 483.188,159.644 494.000,155.000" stroke-width="2.513" stroke="black" fill="none" stroke-linecap="round"></path><path d="M 494.000,155.000 C 503.925,151.268 503.977,151.437 514.000,148.000" stroke-width="2.507" stroke="black" fill="none" stroke-linecap="round"></path><path d="M 514.000,148.000 C 522.367,144.786 522.425,145.268 531.000,143.000" stroke-width="2.675" stroke="black" fill="none" stroke-linecap="round"></path><path d="M 531.000,143.000 C 536.993,142.334 536.867,141.786 543.000,142.000" stroke-width="3.126" stroke="black" fill="none" stroke-linecap="round"></path><path d="M 543.000,142.000 C 547.507,140.293 545.993,141.834 549.000,142.000" stroke-width="3.783" stroke="black" fill="none" stroke-linecap="round"></path><path d="M 549.000,142.000 C 549.732,145.986 551.007,144.293 550.000,150.000" stroke-width="4.303" stroke="black" fill="none" stroke-linecap="round"></path><path d="M 550.000,150.000 C 550.289,153.529 550.232,153.486 550.000,157.000" stroke-width="4.075" stroke="black" fill="none" stroke-linecap="round"></path><path d="M 550.000,157.000 C 547.144,161.126 549.789,159.529 549.000,162.000" stroke-width="4.248" stroke="black" fill="none" stroke-linecap="round"></path><path d="M 549.000,162.000 C 557.945,164.789 555.644,165.126 567.000,165.000" stroke-width="2.967" stroke="black" fill="none" stroke-linecap="round"></path><path d="M 567.000,165.000 C 579.703,165.170 579.445,165.289 592.000,163.000" stroke-width="2.621" stroke="black" fill="none" stroke-linecap="round"></path><path d="M 592.000,163.000 C 604.987,159.452 605.203,160.670 618.000,156.000" stroke-width="2.293" stroke="black" fill="none" stroke-linecap="round"></path><path d="M 618.000,156.000 C 629.521,153.080 629.487,152.952 641.000,150.000" stroke-width="2.272" stroke="black" fill="none" stroke-linecap="round"></path><path d="M 641.000,150.000 C 649.916,147.120 650.021,147.580 659.000,145.000" stroke-width="2.489" stroke="black" fill="none" stroke-linecap="round"></path><path d="M 659.000,145.000 C 664.981,143.860 664.916,143.620 671.000,143.000" stroke-width="2.994" stroke="black" fill="none" stroke-linecap="round"></path><path d="M 671.000,143.000 C 675.489,142.301 675.481,142.360 680.000,142.000" stroke-width="3.389" stroke="black" fill="none" stroke-linecap="round"></path><path d="M 680.000,142.000 C 683.000,142.000 682.989,141.801 686.000,142.000" stroke-width="3.852" stroke="black" fill="none" stroke-linecap="round"></path><path d="M 686.000,142.000 C 689.000,142.000 689.000,142.000 692.000,142.000" stroke-width="4.016" stroke="black" fill="none" stroke-linecap="round"></path><path d="M 692.000,142.000 C 699.200,142.000 695.000,142.000 698.000,142.000" stroke-width="4.509" stroke="black" fill="none" stroke-linecap="round"></path><path d="M 698.000,142.000 C 690.971,141.535 695.200,142.000 684.000,142.000" stroke-width="4.625" stroke="black" fill="none" stroke-linecap="round"></path><path d="M 684.000,142.000 C 675.954,142.710 675.971,142.535 668.000,144.000" stroke-width="3.177" stroke="black" fill="none" stroke-linecap="round"></path><path d="M 668.000,144.000 C 657.530,146.169 657.454,145.710 647.000,148.000" stroke-width="2.597" stroke="black" fill="none" stroke-linecap="round"></path><path d="M 647.000,148.000 C 634.504,150.026 634.530,150.169 622.000,152.000" stroke-width="2.289" stroke="black" fill="none" stroke-linecap="round"></path><path d="M 622.000,152.000 C 606.021,154.644 606.004,154.526 590.000,157.000" stroke-width="2.030" stroke="black" fill="none" stroke-linecap="round"></path><path d="M 590.000,157.000 C 572.017,159.629 572.021,159.644 554.000,162.000" stroke-width="1.858" stroke="black" fill="none" stroke-linecap="round"></path><path d="M 554.000,162.000 C 533.929,164.022 534.017,164.629 514.000,167.000" stroke-width="1.721" stroke="black" fill="none" stroke-linecap="round"></path><path d="M 514.000,167.000 C 490.528,171.170 490.429,170.522 467.000,175.000" stroke-width="1.544" stroke="black" fill="none" stroke-linecap="round"></path><path d="M 467.000,175.000 C 447.404,177.472 447.528,178.170 428.000,181.000" stroke-width="1.598" stroke="black" fill="none" stroke-linecap="round"></path><path d="M 428.000,181.000 C 408.994,184.971 408.904,184.472 390.000,189.000" stroke-width="1.677" stroke="black" fill="none" stroke-linecap="round"></path><path d="M 390.000,189.000 C 376.028,192.137 375.994,191.971 362.000,195.000" stroke-width="1.901" stroke="black" fill="none" stroke-linecap="round"></path><path d="M 362.000,195.000 C 351.525,197.143 351.528,197.137 341.000,199.000" stroke-width="2.229" stroke="black" fill="none" stroke-linecap="round"></path><path d="M 341.000,199.000 C 334.486,199.919 334.525,200.143 328.000,201.000" stroke-width="2.815" stroke="black" fill="none" stroke-linecap="round"></path><circle r="1.5" cx="371" cy="280" fill="black"></circle></svg>