<svg xmlns="http://www.w3.org/2000/svg" xmlns:xlink="http://www.w3.org/1999/xlink" viewBox="0 0 724 414" width="724" height="414"><path d="M 161.000,101.000 C 164.978,99.437 165.000,99.500 169.000,98.000" stroke-width="4.804" stroke="black" fill="none" stroke-linecap="round"></path><path d="M 169.000,98.000 C 172.051,97.134 171.978,96.937 175.000,96.000" stroke-width="4.288" stroke="black" fill="none" stroke-linecap="round"></path><path d="M 175.000,96.000 C 178.598,94.701 178.551,94.634 182.000,93.000" stroke-width="3.998" stroke="black" fill="none" stroke-linecap="round"></path><path d="M 182.000,93.000 C 186.729,90.847 186.598,90.701 191.000,88.000" stroke-width="3.638" stroke="black" fill="none" stroke-linecap="round"></path><path d="M 191.000,88.000 C 195.623,84.648 195.729,84.847 200.000,81.000" stroke-width="3.444" stroke="black" fill="none" stroke-linecap="round"></path><path d="M 200.000,81.000 C 204.749,77.251 204.623,77.148 209.000,73.000" stroke-width="3.337" stroke="black" fill="none" stroke-linecap="round"></path><path d="M 209.000,73.000 C 213.515,68.013 213.749,68.251 218.000,63.000" stroke-width="3.135" stroke="black" fill="none" stroke-linecap="round"></path><path d="M 218.000,63.000 C 222.176,58.644 222.015,58.513 226.000,54.000" stroke-width="3.244" stroke="black" fill="none" stroke-linecap="round"></path><path d="M 226.000,54.000 C 228.912,49.930 229.176,50.144 232.000,46.000" stroke-width="3.447" stroke="black" fill="none" stroke-linecap="round"></path><path d="M 232.000,46.000 C 234.710,43.149 234.412,42.930 237.000,40.000" stroke-width="3.722" stroke="black" fill="none" stroke-linecap="round"></path><path d="M 237.000,40.000 C 238.531,37.518 238.710,37.649 240.000,35.000" stroke-width="3.994" stroke="black" fill="none" stroke-linecap="round"></path><path d="M 240.000,35.000 C 243.400,28.600 242.031,31.518 244.000,28.000" stroke-width="4.365" stroke="black" fill="none" stroke-linecap="round"></path><path d="M 244.000,28.000 C 243.370,30.716 244.400,27.600 242.000,33.000" stroke-width="5.119" stroke="black" fill="none" stroke-linecap="round"></path><path d="M 242.000,33.000 C 240.027,35.522 240.370,35.716 238.000,38.000" stroke-width="5.248" stroke="black" fill="none" stroke-linecap="round"></path><path d="M 238.000,38.000 C 235.753,41.247 235.527,41.022 233.000,44.000" stroke-width="4.738" stroke="black" fill="none" stroke-linecap="round"></path><path d="M 233.000,44.000 C 228.747,47.253 229.253,47.747 225.000,51.000" stroke-width="4.412" stroke="black" fill="none" stroke-linecap="round"></path><path d="M 225.000,51.000 C 222.624,54.113 222.247,53.753 220.000,57.000" stroke-width="4.058" stroke="black" fill="none" stroke-linecap="round"></path><path d="M 220.000,57.000 C 217.387,59.396 217.624,59.613 215.000,62.000" stroke-width="3.947" stroke="black" fill="none" stroke-linecap="round"></path><path d="M 215.000,62.000 C 212.019,65.516 211.887,65.396 209.000,69.000" stroke-width="3.674" stroke="black" fill="none" stroke-linecap="round"></path><path d="M 209.000,69.000 C 205.222,72.787 205.519,73.016 202.000,77.000" stroke-width="3.522" stroke="black" fill="none" stroke-linecap="round"></path><path d="M 202.000,77.000 C 199.205,81.650 198.722,81.287 196.000,86.000" stroke-width="3.463" stroke="black" fill="none" stroke-linecap="round"></path><path d="M 196.000,86.000 C 192.145,91.123 192.205,91.150 188.000,96.000" stroke-width="3.281" stroke="black" fill="none" stroke-linecap="round"></path><path d="M 188.000,96.000 C 183.377,100.894 183.645,101.123 179.000,106.000" stroke-width="3.181" stroke="black" fill="none" stroke-linecap="round"></path><path d="M 179.000,106.000 C 174.880,111.863 174.377,111.394 170.000,117.000" stroke-width="3.037" stroke="black" fill="none" stroke-linecap="round"></path><path d="M 170.000,117.000 C 165.000,121.500 165.380,121.863 160.000,126.000" stroke-width="3.050" stroke="black" fill="none" stroke-linecap="round"></path><path d="M 160.000,126.000 C 154.875,130.369 155.000,130.500 150.000,135.000" stroke-width="3.112" stroke="black" fill="none" stroke-linecap="round"></path><path d="M 150.000,135.000 C 145.237,140.262 144.875,139.869 140.000,145.000" stroke-width="3.083" stroke="black" fill="none" stroke-linecap="round"></path><path d="M 140.000,145.000 C 134.394,149.377 134.737,149.762 129.000,154.000" stroke-width="3.069" stroke="black" fill="none" stroke-linecap="round"></path><path d="M 129.000,154.000 C 124.000,158.500 123.894,158.377 119.000,163.000" stroke-width="3.060" stroke="black" fill="none" stroke-linecap="round"></path><path d="M 119.000,163.000 C 114.142,167.670 114.000,167.500 109.000,172.000" stroke-width="3.170" stroke="black" fill="none" stroke-linecap="round"></path><path d="M 109.000,172.000 C 104.763,175.918 104.642,175.670 100.000,179.000" stroke-width="3.249" stroke="black" fill="none" stroke-linecap="round"></path><path d="M 100.000,179.000 C 95.935,180.881 96.263,181.418 92.000,183.000" stroke-width="3.543" stroke="black" fill="none" stroke-linecap="round"></path><path d="M 92.000,183.000 C 89.459,184.435 89.435,184.381 87.000,186.000" stroke-width="3.971" stroke="black" fill="none" stroke-linecap="round"></path><path d="M 87.000,186.000 C 84.041,188.065 83.959,187.935 81.000,190.000" stroke-width="4.402" stroke="black" fill="none" stroke-linecap="round"></path><path d="M 81.000,190.000 C 78.500,191.500 78.541,191.565 76.000,193.000" stroke-width="4.908" stroke="black" fill="none" stroke-linecap="round"></path><path d="M 76.000,193.000 C 73.500,194.500 73.500,194.500 71.000,196.000" stroke-width="5.096" stroke="black" fill="none" stroke-linecap="round"></path><path d="M 71.000,196.000 C 66.000,198.740 68.500,197.500 66.000,199.000" stroke-width="5.146" stroke="black" fill="none" stroke-linecap="round"></path><path d="M 66.000,199.000 C 69.459,198.798 66.000,199.240 71.000,197.000" stroke-width="5.416" stroke="black" fill="none" stroke-linecap="round"></path><path d="M 71.000,197.000 C 72.191,194.484 72.459,195.298 72.000,192.000" stroke-width="5.533" stroke="black" fill="none" stroke-linecap="round"></path><path d="M 72.000,192.000 C 70.927,188.016 71.691,187.984 70.000,184.000" stroke-width="4.745" stroke="black" fill="none" stroke-linecap="round"></path><path d="M 70.000,184.000 C 69.419,181.514 69.427,181.516 69.000,179.000" stroke-width="4.486" stroke="black" fill="none" stroke-linecap="round"></path><path d="M 69.000,179.000 C 68.000,175.511 68.419,175.514 68.000,172.000" stroke-width="4.114" stroke="black" fill="none" stroke-linecap="round"></path><path d="M 68.000,172.000 C 67.231,166.599 68.000,167.011 69.000,162.000" stroke-width="3.629" stroke="black" fill="none" stroke-linecap="round"></path><path d="M 69.000,162.000 C 73.120,153.764 72.231,153.599 78.000,146.000" stroke-width="2.858" stroke="black" fill="none" stroke-linecap="round"></path><path d="M 78.000,146.000 C 83.663,135.805 84.120,136.264 91.000,127.000" stroke-width="2.574" stroke="black" fill="none" stroke-linecap="round"></path><path d="M 91.000,127.000 C 98.931,117.844 98.663,117.805 108.000,110.000" stroke-width="2.336" stroke="black" fill="none" stroke-linecap="round"></path><path d="M 108.000,110.000 C 117.581,101.862 117.431,101.844 128.000,95.000" stroke-width="2.236" stroke="black" fill="none" stroke-linecap="round"></path><path d="M 128.000,95.000 C 137.933,87.589 138.081,88.362 149.000,83.000" stroke-width="2.295" stroke="black" fill="none" stroke-linecap="round"></path><path d="M 149.000,83.000 C 158.861,79.370 158.433,79.089 169.000,78.000" stroke-width="2.407" stroke="black" fill="none" stroke-linecap="round"></path><path d="M 169.000,78.000 C 177.512,77.707 177.361,76.870 186.000,78.000" stroke-width="2.677" stroke="black" fill="none" stroke-linecap="round"></path><path d="M 186.000,78.000 C 192.488,77.016 192.012,78.207 198.000,79.000" stroke-width="3.080" stroke="black" fill="none" stroke-linecap="round"></path><path d="M 198.000,79.000 C 205.607,81.876 204.988,81.516 211.000,87.000" stroke-width="2.936" stroke="black" fill="none" stroke-linecap="round"></path><path d="M 211.000,87.000 C 215.834,92.045 215.607,91.376 218.000,98.000" stroke-width="3.049" stroke="black" fill="none" stroke-linecap="round"></path><path d="M 218.000,98.000 C 218.760,103.488 219.834,103.045 219.000,109.000" stroke-width="3.293" stroke="black" fill="none" stroke-linecap="round"></path><path d="M 219.000,109.000 C 220.200,115.240 219.260,114.988 219.000,121.000" stroke-width="3.350" stroke="black" fill="none" stroke-linecap="round"></path><path d="M 219.000,121.000 C 217.600,127.705 217.700,127.240 214.000,133.000" stroke-width="3.291" stroke="black" fill="none" stroke-linecap="round"></path><path d="M 214.000,133.000 C 208.366,139.879 209.100,140.205 202.000,146.000" stroke-width="2.831" stroke="black" fill="none" stroke-linecap="round"></path><path d="M 202.000,146.000 C 195.586,152.861 195.366,152.379 188.000,158.000" stroke-width="2.675" stroke="black" fill="none" stroke-linecap="round"></path><path d="M 188.000,158.000 C 179.732,163.008 180.086,163.361 171.000,167.000" stroke-width="2.650" stroke="black" fill="none" stroke-linecap="round"></path><path d="M 171.000,167.000 C 162.020,170.551 162.232,171.008 153.000,174.000" stroke-width="2.638" stroke="black" fill="none" stroke-linecap="round"></path><path d="M 153.000,174.000 C 145.099,177.300 145.020,177.051 137.000,180.000" stroke-width="2.632" stroke="black" fill="none" stroke-linecap="round"></path><path d="M 137.000,180.000 C 129.980,181.932 130.099,182.300 123.000,184.000" stroke-width="2.898" stroke="black" fill="none" stroke-linecap="round"></path><path d="M 123.000,184.000 C 116.630,186.674 116.480,185.932 110.000,188.000" stroke-width="3.053" stroke="black" fill="none" stroke-linecap="round"></path><path d="M 110.000,188.000 C 104.010,188.739 104.130,189.174 98.000,189.000" stroke-width="3.161" stroke="black" fill="none" stroke-linecap="round"></path><path d="M 98.000,189.000 C 92.500,189.000 92.510,189.239 87.000,189.000" stroke-width="3.335" stroke="black" fill="none" stroke-linecap="round"></path><path d="M 87.000,189.000 C 82.976,189.284 83.000,189.000 79.000,189.000" stroke-width="3.663" stroke="black" fill="none" stroke-linecap="round"></path><path d="M 79.000,189.000 C 75.992,188.000 75.976,188.784 73.000,188.000" stroke-width="3.986" stroke="black" fill="none" stroke-linecap="round"></path><path d="M 252.000,55.000 C 245.889,49.625 245.500,51.000 239.000,47.000" stroke-width="4.565" stroke="black" fill="none" stroke-linecap="round"></path><path d="M 239.000,47.000 C 235.000,47.000 235.389,45.625 231.000,47.000" stroke-width="4.020" stroke="black" fill="none" stroke-linecap="round"></path><path d="M 231.000,47.000 C 225.438,46.373 225.500,47.000 220.000,47.000" stroke-width="3.577" stroke="black" fill="none" stroke-linecap="round"></path><path d="M 220.000,47.000 C 212.344,47.934 212.438,47.873 205.000,50.000" stroke-width="3.122" stroke="black" fill="none" stroke-linecap="round"></path><path d="M 205.000,50.000 C 196.324,52.572 196.344,52.434 188.000,56.000" stroke-width="2.772" stroke="black" fill="none" stroke-linecap="round"></path><path d="M 188.000,56.000 C 179.450,59.896 179.324,59.572 171.000,64.000" stroke-width="2.640" stroke="black" fill="none" stroke-linecap="round"></path><path d="M 171.000,64.000 C 161.481,67.669 161.950,68.396 153.000,73.000" stroke-width="2.534" stroke="black" fill="none" stroke-linecap="round"></path><path d="M 153.000,73.000 C 143.925,78.867 143.981,78.669 136.000,86.000" stroke-width="2.503" stroke="black" fill="none" stroke-linecap="round"></path><path d="M 136.000,86.000 C 128.826,92.475 128.925,92.367 123.000,100.000" stroke-width="2.603" stroke="black" fill="none" stroke-linecap="round"></path><path d="M 123.000,100.000 C 116.610,108.052 116.826,107.975 112.000,117.000" stroke-width="2.518" stroke="black" fill="none" stroke-linecap="round"></path><path d="M 112.000,117.000 C 108.121,124.780 108.110,124.552 106.000,133.000" stroke-width="2.712" stroke="black" fill="none" stroke-linecap="round"></path><path d="M 106.000,133.000 C 104.519,140.468 104.121,140.280 104.000,148.000" stroke-width="2.835" stroke="black" fill="none" stroke-linecap="round"></path><path d="M 104.000,148.000 C 103.204,155.098 103.519,154.968 104.000,162.000" stroke-width="3.005" stroke="black" fill="none" stroke-linecap="round"></path><path d="M 104.000,162.000 C 104.043,168.825 104.704,168.098 107.000,174.000" stroke-width="3.176" stroke="black" fill="none" stroke-linecap="round"></path><path d="M 107.000,174.000 C 111.166,178.891 110.043,179.325 116.000,183.000" stroke-width="3.204" stroke="black" fill="none" stroke-linecap="round"></path><path d="M 116.000,183.000 C 121.120,187.677 121.166,187.391 127.000,191.000" stroke-width="3.148" stroke="black" fill="none" stroke-linecap="round"></path><path d="M 127.000,191.000 C 132.751,194.438 132.620,194.177 139.000,196.000" stroke-width="3.176" stroke="black" fill="none" stroke-linecap="round"></path><path d="M 139.000,196.000 C 146.969,197.498 146.751,197.938 155.000,198.000" stroke-width="2.904" stroke="black" fill="none" stroke-linecap="round"></path><path d="M 155.000,198.000 C 163.007,198.242 162.969,198.498 171.000,198.000" stroke-width="2.900" stroke="black" fill="none" stroke-linecap="round"></path><path d="M 171.000,198.000 C 179.825,198.923 179.507,197.742 188.000,197.000" stroke-width="2.775" stroke="black" fill="none" stroke-linecap="round"></path><path d="M 188.000,197.000 C 196.799,194.101 196.825,194.923 205.000,190.000" stroke-width="2.724" stroke="black" fill="none" stroke-linecap="round"></path><path d="M 205.000,190.000 C 213.567,185.111 213.799,185.601 222.000,180.000" stroke-width="2.577" stroke="black" fill="none" stroke-linecap="round"></path><path d="M 222.000,180.000 C 230.065,175.101 230.067,175.111 238.000,170.000" stroke-width="2.639" stroke="black" fill="none" stroke-linecap="round"></path><path d="M 238.000,170.000 C 243.804,165.662 244.065,166.101 250.000,162.000" stroke-width="3.007" stroke="black" fill="none" stroke-linecap="round"></path><path d="M 250.000,162.000 C 255.137,159.736 254.804,159.162 260.000,157.000" stroke-width="3.267" stroke="black" fill="none" stroke-linecap="round"></path><path d="M 260.000,157.000 C 263.198,155.242 263.137,155.236 266.000,153.000" stroke-width="3.717" stroke="black" fill="none" stroke-linecap="round"></path><path d="M 266.000,153.000 C 270.457,150.601 268.198,151.242 270.000,149.000" stroke-width="4.567" stroke="black" fill="none" stroke-linecap="round"></path><path d="M 270.000,149.000 C 267.167,146.792 269.457,147.101 264.000,146.000" stroke-width="4.936" stroke="black" fill="none" stroke-linecap="round"></path><path d="M 264.000,146.000 C 261.000,146.000 261.167,145.292 258.000,146.000" stroke-width="4.312" stroke="black" fill="none" stroke-linecap="round"></path><path d="M 258.000,146.000 C 253.000,146.000 253.000,146.000 248.000,146.000" stroke-width="3.679" stroke="black" fill="none" stroke-linecap="round"></path><path d="M 248.000,146.000 C 242.000,146.000 242.000,146.000 236.000,146.000" stroke-width="3.403" stroke="black" fill="none" stroke-linecap="round"></path><path d="M 236.000,146.000 C 228.000,146.000 228.000,146.000 220.000,146.000" stroke-width="2.967" stroke="black" fill="none" stroke-linecap="round"></path><path d="M 220.000,146.000 C 211.000,146.000 211.000,146.000 202.000,146.000" stroke-width="2.799" stroke="black" fill="none" stroke-linecap="round"></path><path d="M 202.000,146.000 C 191.992,145.730 192.000,146.000 182.000,146.000" stroke-width="2.583" stroke="black" fill="none" stroke-linecap="round"></path><path d="M 182.000,146.000 C 173.472,146.206 173.492,146.230 165.000,147.000" stroke-width="2.681" stroke="black" fill="none" stroke-linecap="round"></path><path d="M 165.000,147.000 C 157.476,147.850 157.472,147.706 150.000,149.000" stroke-width="2.824" stroke="black" fill="none" stroke-linecap="round"></path><path d="M 150.000,149.000 C 144.513,150.081 144.476,149.850 139.000,151.000" stroke-width="3.148" stroke="black" fill="none" stroke-linecap="round"></path><path d="M 211.000,191.000 C 213.819,193.266 214.000,192.500 217.000,194.000" stroke-width="5.343" stroke="black" fill="none" stroke-linecap="round"></path><path d="M 217.000,194.000 C 220.588,194.602 220.319,194.766 224.000,194.000" stroke-width="4.313" stroke="black" fill="none" stroke-linecap="round"></path><path d="M 224.000,194.000 C 229.390,193.305 229.088,193.102 234.000,191.000" stroke-width="3.757" stroke="black" fill="none" stroke-linecap="round"></path><path d="M 234.000,191.000 C 239.034,187.547 239.390,188.305 244.000,184.000" stroke-width="3.405" stroke="black" fill="none" stroke-linecap="round"></path><path d="M 244.000,184.000 C 249.451,179.931 249.534,180.047 255.000,176.000" stroke-width="3.204" stroke="black" fill="none" stroke-linecap="round"></path><path d="M 255.000,176.000 C 261.423,171.385 261.451,171.431 268.000,167.000" stroke-width="3.109" stroke="black" fill="none" stroke-linecap="round"></path><path d="M 268.000,167.000 C 275.258,162.854 274.923,162.385 282.000,158.000" stroke-width="2.917" stroke="black" fill="none" stroke-linecap="round"></path><path d="M 282.000,158.000 C 287.351,153.304 287.758,153.854 293.000,149.000" stroke-width="3.018" stroke="black" fill="none" stroke-linecap="round"></path><path d="M 293.000,149.000 C 298.121,145.659 297.851,145.304 303.000,142.000" stroke-width="3.193" stroke="black" fill="none" stroke-linecap="round"></path><path d="M 303.000,142.000 C 308.738,137.000 306.121,139.659 309.000,137.000" stroke-width="3.582" stroke="black" fill="none" stroke-linecap="round"></path><path d="M 309.000,137.000 C 306.500,139.500 309.238,137.000 304.000,142.000" stroke-width="4.526" stroke="black" fill="none" stroke-linecap="round"></path><path d="M 304.000,142.000 C 300.375,145.383 300.500,145.500 297.000,149.000" stroke-width="3.799" stroke="black" fill="none" stroke-linecap="round"></path><path d="M 297.000,149.000 C 293.481,152.984 293.375,152.883 290.000,157.000" stroke-width="3.556" stroke="black" fill="none" stroke-linecap="round"></path><path d="M 290.000,157.000 C 286.605,160.238 286.981,160.484 284.000,164.000" stroke-width="3.619" stroke="black" fill="none" stroke-linecap="round"></path><path d="M 284.000,164.000 C 282.605,167.058 282.105,166.738 281.000,170.000" stroke-width="3.900" stroke="black" fill="none" stroke-linecap="round"></path><path d="M 281.000,170.000 C 276.614,174.134 279.605,172.558 278.000,175.000" stroke-width="4.477" stroke="black" fill="none" stroke-linecap="round"></path><path d="M 278.000,175.000 C 283.806,176.154 280.614,176.634 289.000,175.000" stroke-width="4.763" stroke="black" fill="none" stroke-linecap="round"></path><path d="M 289.000,175.000 C 292.698,173.286 292.806,174.154 296.000,171.000" stroke-width="4.112" stroke="black" fill="none" stroke-linecap="round"></path><path d="M 296.000,171.000 C 299.100,168.610 299.198,168.786 302.000,166.000" stroke-width="3.874" stroke="black" fill="none" stroke-linecap="round"></path><path d="M 302.000,166.000 C 306.198,161.405 304.100,164.110 306.000,162.000" stroke-width="4.527" stroke="black" fill="none" stroke-linecap="round"></path><path d="M 306.000,162.000 C 303.384,165.424 305.698,162.905 301.000,169.000" stroke-width="4.854" stroke="black" fill="none" stroke-linecap="round"></path><path d="M 301.000,169.000 C 299.067,171.333 299.384,171.424 298.000,174.000" stroke-width="4.802" stroke="black" fill="none" stroke-linecap="round"></path><path d="M 298.000,174.000 C 297.000,176.500 297.067,176.333 297.000,179.000" stroke-width="4.864" stroke="black" fill="none" stroke-linecap="round"></path><path d="M 297.000,179.000 C 296.404,182.632 297.000,181.500 298.000,184.000" stroke-width="5.023" stroke="black" fill="none" stroke-linecap="round"></path><path d="M 298.000,184.000 C 301.008,185.000 299.904,185.632 304.000,185.000" stroke-width="5.177" stroke="black" fill="none" stroke-linecap="round"></path><path d="M 304.000,185.000 C 306.568,184.730 306.508,185.000 309.000,184.000" stroke-width="5.126" stroke="black" fill="none" stroke-linecap="round"></path><path d="M 309.000,184.000 C 311.649,183.283 311.568,183.230 314.000,182.000" stroke-width="5.092" stroke="black" fill="none" stroke-linecap="round"></path><path d="M 314.000,182.000 C 316.851,179.717 317.149,180.283 320.000,178.000" stroke-width="5.083" stroke="black" fill="none" stroke-linecap="round"></path><path d="M 320.000,178.000 C 322.599,177.200 322.351,176.717 325.000,176.000" stroke-width="5.363" stroke="black" fill="none" stroke-linecap="round"></path><path d="M 325.000,176.000 C 327.401,174.300 327.599,174.700 330.000,173.000" stroke-width="5.234" stroke="black" fill="none" stroke-linecap="round"></path><path d="M 330.000,173.000 C 332.805,172.463 332.401,171.800 335.000,171.000" stroke-width="5.419" stroke="black" fill="none" stroke-linecap="round"></path><path d="M 335.000,171.000 C 336.784,168.723 337.305,169.463 339.000,167.000" stroke-width="5.350" stroke="black" fill="none" stroke-linecap="round"></path><path d="M 339.000,167.000 C 341.541,165.565 341.284,165.223 344.000,164.000" stroke-width="5.127" stroke="black" fill="none" stroke-linecap="round"></path><path d="M 344.000,164.000 C 347.036,162.052 347.041,162.065 350.000,160.000" stroke-width="4.978" stroke="black" fill="none" stroke-linecap="round"></path><path d="M 350.000,160.000 C 353.500,157.500 353.536,157.552 357.000,155.000" stroke-width="4.605" stroke="black" fill="none" stroke-linecap="round"></path><path d="M 357.000,155.000 C 360.728,152.769 360.500,152.500 364.000,150.000" stroke-width="4.523" stroke="black" fill="none" stroke-linecap="round"></path><path d="M 364.000,150.000 C 367.297,147.244 367.228,147.269 370.000,144.000" stroke-width="4.729" stroke="black" fill="none" stroke-linecap="round"></path><path d="M 370.000,144.000 C 371.881,140.913 372.297,141.244 374.000,138.000" stroke-width="4.631" stroke="black" fill="none" stroke-linecap="round"></path><path d="M 374.000,138.000 C 376.291,135.686 375.881,135.413 378.000,133.000" stroke-width="4.702" stroke="black" fill="none" stroke-linecap="round"></path><path d="M 378.000,133.000 C 379.864,130.125 379.791,130.186 381.000,127.000" stroke-width="4.730" stroke="black" fill="none" stroke-linecap="round"></path><path d="M 381.000,127.000 C 383.203,123.604 381.864,124.625 382.000,122.000" stroke-width="4.866" stroke="black" fill="none" stroke-linecap="round"></path><path d="M 382.000,122.000 C 378.636,119.839 380.203,119.604 375.000,119.000" stroke-width="5.097" stroke="black" fill="none" stroke-linecap="round"></path><path d="M 375.000,119.000 C 371.562,117.817 372.136,118.339 369.000,119.000" stroke-width="4.856" stroke="black" fill="none" stroke-linecap="round"></path><path d="M 369.000,119.000 C 365.252,121.748 365.062,120.817 362.000,125.000" stroke-width="4.546" stroke="black" fill="none" stroke-linecap="round"></path><path d="M 362.000,125.000 C 357.917,129.430 357.752,129.248 354.000,134.000" stroke-width="3.994" stroke="black" fill="none" stroke-linecap="round"></path><path d="M 354.000,134.000 C 351.920,136.439 351.917,136.430 350.000,139.000" stroke-width="4.058" stroke="black" fill="none" stroke-linecap="round"></path><path d="M 350.000,139.000 C 346.080,144.561 345.920,144.439 342.000,150.000" stroke-width="4.053" stroke="black" fill="none" stroke-linecap="round"></path><path d="M 342.000,150.000 C 339.832,152.383 340.080,152.561 338.000,155.000" stroke-width="4.028" stroke="black" fill="none" stroke-linecap="round"></path><path d="M 338.000,155.000 C 336.300,157.401 336.332,157.383 335.000,160.000" stroke-width="4.094" stroke="black" fill="none" stroke-linecap="round"></path><path d="M 335.000,160.000 C 333.850,162.449 333.800,162.401 333.000,165.000" stroke-width="4.256" stroke="black" fill="none" stroke-linecap="round"></path><path d="M 333.000,165.000 C 331.882,168.471 331.850,168.449 331.000,172.000" stroke-width="4.077" stroke="black" fill="none" stroke-linecap="round"></path><path d="M 331.000,172.000 C 330.419,174.486 330.382,174.471 330.000,177.000" stroke-width="4.249" stroke="black" fill="none" stroke-linecap="round"></path><path d="M 330.000,177.000 C 329.270,180.484 329.419,180.486 329.000,184.000" stroke-width="4.526" stroke="black" fill="none" stroke-linecap="round"></path><path d="M 329.000,184.000 C 327.791,187.581 328.770,186.984 329.000,190.000" stroke-width="4.869" stroke="black" fill="none" stroke-linecap="round"></path><path d="M 329.000,190.000 C 331.217,192.608 330.291,192.581 334.000,194.000" stroke-width="5.061" stroke="black" fill="none" stroke-linecap="round"></path><path d="M 334.000,194.000 C 336.492,194.544 336.217,195.108 339.000,195.000" stroke-width="4.941" stroke="black" fill="none" stroke-linecap="round"></path><path d="M 339.000,195.000 C 341.979,195.748 341.992,195.544 345.000,196.000" stroke-width="4.985" stroke="black" fill="none" stroke-linecap="round"></path><path d="M 345.000,196.000 C 348.000,196.000 347.979,196.248 351.000,196.000" stroke-width="5.011" stroke="black" fill="none" stroke-linecap="round"></path><path d="M 351.000,196.000 C 354.000,196.000 354.000,196.000 357.000,196.000" stroke-width="5.116" stroke="black" fill="none" stroke-linecap="round"></path><path d="M 357.000,196.000 C 360.000,196.000 360.000,196.000 363.000,196.000" stroke-width="5.149" stroke="black" fill="none" stroke-linecap="round"></path><path d="M 363.000,196.000 C 366.000,196.000 366.000,196.000 369.000,196.000" stroke-width="5.216" stroke="black" fill="none" stroke-linecap="round"></path><path d="M 369.000,196.000 C 372.500,196.000 372.500,196.000 376.000,196.000" stroke-width="5.196" stroke="black" fill="none" stroke-linecap="round"></path><path d="M 376.000,196.000 C 379.079,196.487 379.000,196.000 382.000,196.000" stroke-width="5.173" stroke="black" fill="none" stroke-linecap="round"></path><path d="M 382.000,196.000 C 385.029,195.080 385.079,195.487 388.000,194.000" stroke-width="5.150" stroke="black" fill="none" stroke-linecap="round"></path><path d="M 388.000,194.000 C 390.500,193.000 390.529,193.080 393.000,192.000" stroke-width="4.926" stroke="black" fill="none" stroke-linecap="round"></path><path d="M 393.000,192.000 C 395.805,191.463 395.500,191.000 398.000,190.000" stroke-width="5.031" stroke="black" fill="none" stroke-linecap="round"></path><path d="M 398.000,190.000 C 399.889,187.876 400.305,188.463 402.000,186.000" stroke-width="5.135" stroke="black" fill="none" stroke-linecap="round"></path><path d="M 402.000,186.000 C 404.413,183.881 404.389,183.876 407.000,182.000" stroke-width="5.139" stroke="black" fill="none" stroke-linecap="round"></path><path d="M 407.000,182.000 C 409.959,179.935 409.913,179.881 413.000,178.000" stroke-width="4.972" stroke="black" fill="none" stroke-linecap="round"></path><path d="M 413.000,178.000 C 415.541,176.565 415.459,176.435 418.000,175.000" stroke-width="4.851" stroke="black" fill="none" stroke-linecap="round"></path><path d="M 418.000,175.000 C 421.198,173.242 421.041,173.065 424.000,171.000" stroke-width="4.684" stroke="black" fill="none" stroke-linecap="round"></path><path d="M 424.000,171.000 C 425.909,168.901 426.198,169.242 428.000,167.000" stroke-width="4.394" stroke="black" fill="none" stroke-linecap="round"></path><path d="M 428.000,167.000 C 431.500,164.000 431.409,163.901 435.000,161.000" stroke-width="4.396" stroke="black" fill="none" stroke-linecap="round"></path><path d="M 435.000,161.000 C 438.266,157.667 438.500,158.000 442.000,155.000" stroke-width="4.396" stroke="black" fill="none" stroke-linecap="round"></path><path d="M 442.000,155.000 C 449.613,150.591 445.266,152.667 449.000,151.000" stroke-width="4.464" stroke="black" fill="none" stroke-linecap="round"></path><path d="M 449.000,151.000 C 443.631,153.527 448.113,151.591 439.000,157.000" stroke-width="4.970" stroke="black" fill="none" stroke-linecap="round"></path><path d="M 439.000,157.000 C 435.731,159.772 435.631,159.527 433.000,163.000" stroke-width="3.987" stroke="black" fill="none" stroke-linecap="round"></path><path d="M 433.000,163.000 C 430.790,166.745 430.231,166.272 428.000,170.000" stroke-width="3.751" stroke="black" fill="none" stroke-linecap="round"></path><path d="M 428.000,170.000 C 424.182,173.239 424.790,173.745 421.000,177.000" stroke-width="3.612" stroke="black" fill="none" stroke-linecap="round"></path><path d="M 421.000,177.000 C 418.889,179.931 418.682,179.739 417.000,183.000" stroke-width="3.886" stroke="black" fill="none" stroke-linecap="round"></path><path d="M 417.000,183.000 C 414.425,186.295 414.889,186.431 413.000,190.000" stroke-width="4.309" stroke="black" fill="none" stroke-linecap="round"></path><path d="M 413.000,190.000 C 410.774,194.039 411.925,192.795 412.000,196.000" stroke-width="4.861" stroke="black" fill="none" stroke-linecap="round"></path><path d="M 412.000,196.000 C 414.901,197.613 413.274,198.039 418.000,198.000" stroke-width="4.793" stroke="black" fill="none" stroke-linecap="round"></path><path d="M 418.000,198.000 C 423.212,198.898 422.901,198.613 428.000,198.000" stroke-width="4.426" stroke="black" fill="none" stroke-linecap="round"></path><path d="M 428.000,198.000 C 431.262,196.895 431.212,197.398 434.000,195.000" stroke-width="4.191" stroke="black" fill="none" stroke-linecap="round"></path><path d="M 434.000,195.000 C 437.247,191.649 437.762,192.395 441.000,189.000" stroke-width="3.735" stroke="black" fill="none" stroke-linecap="round"></path><path d="M 441.000,189.000 C 445.895,185.808 445.747,185.649 451.000,183.000" stroke-width="3.384" stroke="black" fill="none" stroke-linecap="round"></path><path d="M 451.000,183.000 C 456.049,180.593 455.895,180.308 461.000,178.000" stroke-width="3.493" stroke="black" fill="none" stroke-linecap="round"></path><path d="M 461.000,178.000 C 466.633,175.220 466.549,175.093 472.000,172.000" stroke-width="3.249" stroke="black" fill="none" stroke-linecap="round"></path><path d="M 472.000,172.000 C 476.500,169.000 476.633,169.220 481.000,166.000" stroke-width="3.323" stroke="black" fill="none" stroke-linecap="round"></path><path d="M 481.000,166.000 C 485.583,163.118 485.500,163.000 490.000,160.000" stroke-width="3.454" stroke="black" fill="none" stroke-linecap="round"></path><path d="M 490.000,160.000 C 494.213,157.246 494.083,157.118 498.000,154.000" stroke-width="3.459" stroke="black" fill="none" stroke-linecap="round"></path><path d="M 498.000,154.000 C 501.136,151.124 501.213,151.246 504.000,148.000" stroke-width="3.608" stroke="black" fill="none" stroke-linecap="round"></path><path d="M 504.000,148.000 C 506.376,144.887 506.636,145.124 509.000,142.000" stroke-width="3.727" stroke="black" fill="none" stroke-linecap="round"></path><path d="M 509.000,142.000 C 514.000,136.357 511.376,139.387 514.000,137.000" stroke-width="4.318" stroke="black" fill="none" stroke-linecap="round"></path><path d="M 514.000,137.000 C 511.101,140.798 514.000,137.857 509.000,145.000" stroke-width="4.947" stroke="black" fill="none" stroke-linecap="round"></path><path d="M 509.000,145.000 C 507.301,150.143 506.601,149.798 505.000,155.000" stroke-width="3.719" stroke="black" fill="none" stroke-linecap="round"></path><path d="M 505.000,155.000 C 502.481,159.489 502.801,159.643 500.000,164.000" stroke-width="3.565" stroke="black" fill="none" stroke-linecap="round"></path><path d="M 500.000,164.000 C 497.185,169.609 496.981,169.489 494.000,175.000" stroke-width="3.330" stroke="black" fill="none" stroke-linecap="round"></path><path d="M 494.000,175.000 C 490.867,180.768 490.685,180.609 487.000,186.000" stroke-width="3.282" stroke="black" fill="none" stroke-linecap="round"></path><path d="M 487.000,186.000 C 482.023,192.020 482.367,192.268 477.000,198.000" stroke-width="2.964" stroke="black" fill="none" stroke-linecap="round"></path><path d="M 477.000,198.000 C 471.736,204.717 471.523,204.520 466.000,211.000" stroke-width="2.855" stroke="black" fill="none" stroke-linecap="round"></path><path d="M 466.000,211.000 C 461.000,216.000 461.236,216.217 456.000,221.000" stroke-width="3.055" stroke="black" fill="none" stroke-linecap="round"></path><path d="M 456.000,221.000 C 448.805,228.845 448.500,228.500 441.000,236.000" stroke-width="2.580" stroke="black" fill="none" stroke-linecap="round"></path><path d="M 441.000,236.000 C 436.594,239.631 436.805,239.845 432.000,243.000" stroke-width="3.085" stroke="black" fill="none" stroke-linecap="round"></path><path d="M 432.000,243.000 C 429.117,245.195 429.094,245.131 426.000,247.000" stroke-width="3.682" stroke="black" fill="none" stroke-linecap="round"></path><path d="M 426.000,247.000 C 419.549,250.594 419.617,250.695 413.000,254.000" stroke-width="3.247" stroke="black" fill="none" stroke-linecap="round"></path><path d="M 413.000,254.000 C 407.142,257.330 407.049,257.094 401.000,260.000" stroke-width="3.282" stroke="black" fill="none" stroke-linecap="round"></path><path d="M 401.000,260.000 C 395.550,262.150 395.642,262.330 390.000,264.000" stroke-width="3.258" stroke="black" fill="none" stroke-linecap="round"></path><path d="M 390.000,264.000 C 383.609,266.475 383.550,266.150 377.000,268.000" stroke-width="3.164" stroke="black" fill="none" stroke-linecap="round"></path><path d="M 377.000,268.000 C 370.531,269.274 370.609,269.475 364.000,270.000" stroke-width="3.169" stroke="black" fill="none" stroke-linecap="round"></path><path d="M 364.000,270.000 C 357.000,270.500 357.031,270.774 350.000,271.000" stroke-width="3.046" stroke="black" fill="none" stroke-linecap="round"></path><path d="M 350.000,271.000 C 343.008,271.730 343.000,271.500 336.000,272.000" stroke-width="3.071" stroke="black" fill="none" stroke-linecap="round"></path><path d="M 336.000,272.000 C 330.000,272.000 330.008,272.230 324.000,272.000" stroke-width="3.226" stroke="black" fill="none" stroke-linecap="round"></path><path d="M 324.000,272.000 C 319.484,273.394 320.000,272.000 316.000,272.000" stroke-width="3.623" stroke="black" fill="none" stroke-linecap="round"></path><path d="M 316.000,272.000 C 310.771,269.795 311.984,270.394 309.000,266.000" stroke-width="3.640" stroke="black" fill="none" stroke-linecap="round"></path><path d="M 309.000,266.000 C 307.571,261.084 307.271,262.295 309.000,257.000" stroke-width="3.612" stroke="black" fill="none" stroke-linecap="round"></path><path d="M 309.000,257.000 C 311.664,250.770 311.071,251.084 316.000,246.000" stroke-width="3.301" stroke="black" fill="none" stroke-linecap="round"></path><path d="M 316.000,246.000 C 321.867,239.539 321.664,239.770 329.000,235.000" stroke-width="2.875" stroke="black" fill="none" stroke-linecap="round"></path><path d="M 329.000,235.000 C 338.907,229.806 338.367,229.039 349.000,225.000" stroke-width="2.608" stroke="black" fill="none" stroke-linecap="round"></path><path d="M 349.000,225.000 C 359.709,219.234 359.907,219.806 371.000,215.000" stroke-width="2.340" stroke="black" fill="none" stroke-linecap="round"></path><path d="M 371.000,215.000 C 383.899,210.639 383.709,210.234 397.000,207.000" stroke-width="2.213" stroke="black" fill="none" stroke-linecap="round"></path><path d="M 397.000,207.000 C 410.888,202.971 410.899,203.139 425.000,200.000" stroke-width="2.064" stroke="black" fill="none" stroke-linecap="round"></path><path d="M 425.000,200.000 C 439.417,196.823 439.388,196.971 454.000,195.000" stroke-width="2.061" stroke="black" fill="none" stroke-linecap="round"></path><path d="M 454.000,195.000 C 467.529,194.295 467.417,193.323 481.000,193.000" stroke-width="2.187" stroke="black" fill="none" stroke-linecap="round"></path><path d="M 481.000,193.000 C 493.512,191.594 493.529,191.795 506.000,190.000" stroke-width="2.186" stroke="black" fill="none" stroke-linecap="round"></path><path d="M 506.000,190.000 C 517.074,188.912 517.012,188.594 528.000,187.000" stroke-width="2.302" stroke="black" fill="none" stroke-linecap="round"></path><path d="M 528.000,187.000 C 537.202,185.639 537.074,185.412 546.000,183.000" stroke-width="2.566" stroke="black" fill="none" stroke-linecap="round"></path><path d="M 546.000,183.000 C 552.211,180.894 552.202,181.139 558.000,178.000" stroke-width="2.920" stroke="black" fill="none" stroke-linecap="round"></path><path d="M 558.000,178.000 C 563.005,176.737 561.211,176.394 564.000,174.000" stroke-width="3.572" stroke="black" fill="none" stroke-linecap="round"></path><path d="M 519.000,220.000 C 521.681,219.994 521.500,219.500 524.000,219.000" stroke-width="5.359" stroke="black" fill="none" stroke-linecap="round"></path><path d="M 524.000,219.000 C 528.735,216.843 528.681,216.994 533.000,214.000" stroke-width="4.585" stroke="black" fill="none" stroke-linecap="round"></path><path d="M 533.000,214.000 C 535.830,211.265 536.235,211.843 539.000,209.000" stroke-width="4.048" stroke="black" fill="none" stroke-linecap="round"></path><path d="M 539.000,209.000 C 542.871,206.271 542.830,206.265 547.000,204.000" stroke-width="3.677" stroke="black" fill="none" stroke-linecap="round"></path><path d="M 547.000,204.000 C 553.115,201.210 552.871,200.771 559.000,198.000" stroke-width="3.287" stroke="black" fill="none" stroke-linecap="round"></path><path d="M 559.000,198.000 C 564.114,195.176 564.115,195.210 569.000,192.000" stroke-width="3.264" stroke="black" fill="none" stroke-linecap="round"></path><path d="M 569.000,192.000 C 574.000,188.500 574.114,188.676 579.000,185.000" stroke-width="3.212" stroke="black" fill="none" stroke-linecap="round"></path><path d="M 579.000,185.000 C 584.189,181.742 584.000,181.500 589.000,178.000" stroke-width="3.197" stroke="black" fill="none" stroke-linecap="round"></path><path d="M 589.000,178.000 C 593.250,174.750 593.189,174.742 597.000,171.000" stroke-width="3.323" stroke="black" fill="none" stroke-linecap="round"></path><path d="M 597.000,171.000 C 600.367,166.875 600.750,167.250 604.000,163.000" stroke-width="3.362" stroke="black" fill="none" stroke-linecap="round"></path><path d="M 604.000,163.000 C 608.265,159.234 607.867,158.875 612.000,155.000" stroke-width="3.373" stroke="black" fill="none" stroke-linecap="round"></path><path d="M 612.000,155.000 C 615.101,150.129 615.765,150.734 619.000,146.000" stroke-width="3.422" stroke="black" fill="none" stroke-linecap="round"></path><path d="M 619.000,146.000 C 624.380,141.863 623.601,141.129 629.000,137.000" stroke-width="3.220" stroke="black" fill="none" stroke-linecap="round"></path><path d="M 629.000,137.000 C 633.238,131.263 633.880,131.863 638.000,126.000" stroke-width="3.047" stroke="black" fill="none" stroke-linecap="round"></path><path d="M 638.000,126.000 C 643.131,121.125 642.738,120.763 648.000,116.000" stroke-width="3.004" stroke="black" fill="none" stroke-linecap="round"></path><path d="M 648.000,116.000 C 652.670,111.142 652.631,111.125 657.000,106.000" stroke-width="3.098" stroke="black" fill="none" stroke-linecap="round"></path><path d="M 657.000,106.000 C 660.352,101.377 660.670,101.642 664.000,97.000" stroke-width="3.226" stroke="black" fill="none" stroke-linecap="round"></path><path d="M 664.000,97.000 C 668.035,92.531 667.852,92.377 672.000,88.000" stroke-width="3.326" stroke="black" fill="none" stroke-linecap="round"></path><path d="M 672.000,88.000 C 675.000,84.500 675.035,84.531 678.000,81.000" stroke-width="3.544" stroke="black" fill="none" stroke-linecap="round"></path><path d="M 678.000,81.000 C 681.194,77.647 681.000,77.500 684.000,74.000" stroke-width="3.561" stroke="black" fill="none" stroke-linecap="round"></path><path d="M 684.000,74.000 C 686.111,71.069 686.194,71.147 688.000,68.000" stroke-width="3.777" stroke="black" fill="none" stroke-linecap="round"></path><path d="M 688.000,68.000 C 690.201,64.597 690.111,64.569 692.000,61.000" stroke-width="3.804" stroke="black" fill="none" stroke-linecap="round"></path><path d="M 692.000,61.000 C 693.296,58.583 693.201,58.597 694.000,56.000" stroke-width="4.120" stroke="black" fill="none" stroke-linecap="round"></path><path d="M 694.000,56.000 C 696.486,51.698 694.796,53.083 695.000,50.000" stroke-width="4.541" stroke="black" fill="none" stroke-linecap="round"></path><path d="M 695.000,50.000 C 691.024,48.000 692.986,47.698 687.000,48.000" stroke-width="4.902" stroke="black" fill="none" stroke-linecap="round"></path><path d="M 687.000,48.000 C 681.367,47.817 682.024,48.000 677.000,50.000" stroke-width="4.485" stroke="black" fill="none" stroke-linecap="round"></path><path d="M 677.000,50.000 C 673.885,52.893 673.367,51.817 671.000,56.000" stroke-width="3.886" stroke="black" fill="none" stroke-linecap="round"></path><path d="M 671.000,56.000 C 667.258,59.811 667.385,59.893 664.000,64.000" stroke-width="3.578" stroke="black" fill="none" stroke-linecap="round"></path><path d="M 664.000,64.000 C 660.385,68.923 660.258,68.811 657.000,74.000" stroke-width="3.360" stroke="black" fill="none" stroke-linecap="round"></path><path d="M 657.000,74.000 C 653.671,79.616 653.385,79.423 650.000,85.000" stroke-width="3.173" stroke="black" fill="none" stroke-linecap="round"></path><path d="M 650.000,85.000 C 645.769,90.347 646.171,90.616 642.000,96.000" stroke-width="3.079" stroke="black" fill="none" stroke-linecap="round"></path><path d="M 642.000,96.000 C 639.230,101.155 638.769,100.847 636.000,106.000" stroke-width="3.255" stroke="black" fill="none" stroke-linecap="round"></path><path d="M 636.000,106.000 C 632.957,109.968 633.230,110.155 630.000,114.000" stroke-width="3.450" stroke="black" fill="none" stroke-linecap="round"></path><path d="M 630.000,114.000 C 627.621,117.593 627.457,117.468 625.000,121.000" stroke-width="3.645" stroke="black" fill="none" stroke-linecap="round"></path><path d="M 625.000,121.000 C 622.290,123.851 622.621,124.093 620.000,127.000" stroke-width="3.835" stroke="black" fill="none" stroke-linecap="round"></path><path d="M 620.000,127.000 C 618.668,129.617 618.290,129.351 617.000,132.000" stroke-width="4.076" stroke="black" fill="none" stroke-linecap="round"></path><path d="M 617.000,132.000 C 614.630,134.284 615.168,134.617 613.000,137.000" stroke-width="4.083" stroke="black" fill="none" stroke-linecap="round"></path><path d="M 613.000,137.000 C 612.428,139.755 611.630,139.284 611.000,142.000" stroke-width="4.253" stroke="black" fill="none" stroke-linecap="round"></path><path d="M 611.000,142.000 C 608.340,144.880 608.928,145.255 606.000,148.000" stroke-width="4.473" stroke="black" fill="none" stroke-linecap="round"></path><path d="M 606.000,148.000 C 604.160,151.120 603.840,150.880 602.000,154.000" stroke-width="4.589" stroke="black" fill="none" stroke-linecap="round"></path><path d="M 602.000,154.000 C 597.000,158.487 599.660,157.120 597.000,160.000" stroke-width="4.596" stroke="black" fill="none" stroke-linecap="round"></path><path d="M 597.000,160.000 C 600.143,160.520 597.000,160.987 602.000,159.000" stroke-width="5.177" stroke="black" fill="none" stroke-linecap="round"></path><path d="M 602.000,159.000 C 605.095,155.067 605.643,156.020 608.000,151.000" stroke-width="4.543" stroke="black" fill="none" stroke-linecap="round"></path><path d="M 608.000,151.000 C 609.703,147.756 610.095,148.067 612.000,145.000" stroke-width="4.207" stroke="black" fill="none" stroke-linecap="round"></path><path d="M 612.000,145.000 C 614.685,141.604 614.703,141.756 618.000,139.000" stroke-width="3.820" stroke="black" fill="none" stroke-linecap="round"></path><path d="M 618.000,139.000 C 622.151,136.717 621.685,136.104 626.000,134.000" stroke-width="3.676" stroke="black" fill="none" stroke-linecap="round"></path><path d="M 626.000,134.000 C 630.601,130.623 630.651,130.717 635.000,127.000" stroke-width="3.393" stroke="black" fill="none" stroke-linecap="round"></path><path d="M 635.000,127.000 C 638.878,123.349 639.101,123.623 643.000,120.000" stroke-width="3.440" stroke="black" fill="none" stroke-linecap="round"></path><path d="M 643.000,120.000 C 647.192,117.222 646.878,116.849 651.000,114.000" stroke-width="3.455" stroke="black" fill="none" stroke-linecap="round"></path><path d="M 651.000,114.000 C 653.500,111.500 653.692,111.722 656.000,109.000" stroke-width="3.756" stroke="black" fill="none" stroke-linecap="round"></path><path d="M 656.000,109.000 C 658.376,106.362 658.500,106.500 661.000,104.000" stroke-width="3.905" stroke="black" fill="none" stroke-linecap="round"></path><path d="M 661.000,104.000 C 663.500,102.000 663.376,101.862 666.000,100.000" stroke-width="3.983" stroke="black" fill="none" stroke-linecap="round"></path><path d="M 666.000,100.000 C 668.611,98.124 668.500,98.000 671.000,96.000" stroke-width="4.055" stroke="black" fill="none" stroke-linecap="round"></path><path d="M 671.000,96.000 C 672.713,93.601 673.111,94.124 675.000,92.000" stroke-width="4.125" stroke="black" fill="none" stroke-linecap="round"></path><path d="M 675.000,92.000 C 677.819,89.734 677.713,90.101 681.000,89.000" stroke-width="4.510" stroke="black" fill="none" stroke-linecap="round"></path><path d="M 681.000,89.000 C 684.529,89.289 684.319,88.234 688.000,89.000" stroke-width="4.907" stroke="black" fill="none" stroke-linecap="round"></path><path d="M 688.000,89.000 C 690.568,87.757 690.529,88.789 693.000,88.000" stroke-width="5.178" stroke="black" fill="none" stroke-linecap="round"></path><path d="M 693.000,88.000 C 696.591,88.122 695.568,88.257 698.000,90.000" stroke-width="5.251" stroke="black" fill="none" stroke-linecap="round"></path><path d="M 698.000,90.000 C 698.798,92.975 699.591,92.122 699.000,96.000" stroke-width="5.180" stroke="black" fill="none" stroke-linecap="round"></path><path d="M 699.000,96.000 C 699.000,100.500 699.298,100.475 699.000,105.000" stroke-width="4.645" stroke="black" fill="none" stroke-linecap="round"></path><path d="M 699.000,105.000 C 700.122,108.859 699.000,108.500 699.000,112.000" stroke-width="4.675" stroke="black" fill="none" stroke-linecap="round"></path><path d="M 699.000,112.000 C 696.866,115.847 697.622,115.859 694.000,119.000" stroke-width="4.543" stroke="black" fill="none" stroke-linecap="round"></path><path d="M 694.000,119.000 C 691.376,120.862 691.866,121.347 689.000,123.000" stroke-width="4.213" stroke="black" fill="none" stroke-linecap="round"></path><path d="M 689.000,123.000 C 686.624,125.638 686.376,125.362 684.000,128.000" stroke-width="4.042" stroke="black" fill="none" stroke-linecap="round"></path><path d="M 684.000,128.000 C 681.587,130.119 681.624,130.138 679.000,132.000" stroke-width="4.073" stroke="black" fill="none" stroke-linecap="round"></path><path d="M 679.000,132.000 C 676.108,134.187 676.087,134.119 673.000,136.000" stroke-width="3.934" stroke="black" fill="none" stroke-linecap="round"></path><path d="M 673.000,136.000 C 670.147,137.951 670.108,137.687 667.000,139.000" stroke-width="4.003" stroke="black" fill="none" stroke-linecap="round"></path><path d="M 667.000,139.000 C 663.992,139.456 664.147,139.951 661.000,140.000" stroke-width="4.054" stroke="black" fill="none" stroke-linecap="round"></path><path d="M 661.000,140.000 C 658.508,140.544 658.492,140.456 656.000,141.000" stroke-width="4.200" stroke="black" fill="none" stroke-linecap="round"></path><path d="M 656.000,141.000 C 653.021,141.748 653.008,141.544 650.000,142.000" stroke-width="4.112" stroke="black" fill="none" stroke-linecap="round"></path><path d="M 650.000,142.000 C 647.000,142.000 647.021,142.248 644.000,142.000" stroke-width="4.097" stroke="black" fill="none" stroke-linecap="round"></path><path d="M 644.000,142.000 C 641.000,142.000 641.000,142.000 638.000,142.000" stroke-width="4.139" stroke="black" fill="none" stroke-linecap="round"></path><path d="M 638.000,142.000 C 632.974,141.689 633.000,142.000 628.000,142.000" stroke-width="4.282" stroke="black" fill="none" stroke-linecap="round"></path><path d="M 628.000,142.000 C 624.992,142.456 624.974,142.189 622.000,143.000" stroke-width="4.613" stroke="black" fill="none" stroke-linecap="round"></path><path d="M 622.000,143.000 C 619.529,143.789 619.492,143.456 617.000,144.000" stroke-width="5.075" stroke="black" fill="none" stroke-linecap="round"></path><path d="M 617.000,144.000 C 613.500,144.000 613.529,144.289 610.000,144.000" stroke-width="5.395" stroke="black" fill="none" stroke-linecap="round"></path><path d="M 610.000,144.000 C 606.485,144.279 606.500,144.000 603.000,144.000" stroke-width="4.264" stroke="black" fill="none" stroke-linecap="round"></path><path d="M 603.000,144.000 C 593.913,143.485 593.985,143.279 585.000,142.000" stroke-width="2.979" stroke="black" fill="none" stroke-linecap="round"></path><path d="M 585.000,142.000 C 578.988,140.545 578.913,140.985 573.000,139.000" stroke-width="3.219" stroke="black" fill="none" stroke-linecap="round"></path></svg>