<svg xmlns="http://www.w3.org/2000/svg" xmlns:xlink="http://www.w3.org/1999/xlink" viewBox="0 0 724 414" width="724" height="414"><path d="M 158.000,165.000 C 153.037,163.630 153.000,164.000 148.000,163.000" stroke-width="4.855" stroke="black" fill="none" stroke-linecap="round"></path><path d="M 148.000,163.000 C 145.000,163.000 145.037,162.630 142.000,163.000" stroke-width="4.845" stroke="black" fill="none" stroke-linecap="round"></path><path d="M 142.000,163.000 C 138.973,163.270 139.000,163.000 136.000,163.000" stroke-width="4.342" stroke="black" fill="none" stroke-linecap="round"></path><path d="M 136.000,163.000 C 133.281,163.053 133.473,162.770 131.000,162.000" stroke-width="4.332" stroke="black" fill="none" stroke-linecap="round"></path><path d="M 131.000,162.000 C 124.250,159.813 126.781,160.053 123.000,157.000" stroke-width="4.401" stroke="black" fill="none" stroke-linecap="round"></path><path d="M 123.000,157.000 C 124.713,154.601 122.250,155.313 127.000,153.000" stroke-width="5.070" stroke="black" fill="none" stroke-linecap="round"></path><path d="M 127.000,153.000 C 130.129,151.723 129.713,151.101 133.000,150.000" stroke-width="4.297" stroke="black" fill="none" stroke-linecap="round"></path><path d="M 133.000,150.000 C 137.500,147.000 137.629,147.223 142.000,144.000" stroke-width="3.592" stroke="black" fill="none" stroke-linecap="round"></path><path d="M 142.000,144.000 C 146.650,141.205 146.500,141.000 151.000,138.000" stroke-width="3.483" stroke="black" fill="none" stroke-linecap="round"></path><path d="M 151.000,138.000 C 155.934,133.915 156.150,134.205 161.000,130.000" stroke-width="3.343" stroke="black" fill="none" stroke-linecap="round"></path><path d="M 161.000,130.000 C 167.066,125.585 166.934,125.415 173.000,121.000" stroke-width="3.023" stroke="black" fill="none" stroke-linecap="round"></path><path d="M 173.000,121.000 C 177.908,116.880 178.066,117.085 183.000,113.000" stroke-width="3.093" stroke="black" fill="none" stroke-linecap="round"></path><path d="M 183.000,113.000 C 188.237,108.568 188.408,108.880 194.000,105.000" stroke-width="3.115" stroke="black" fill="none" stroke-linecap="round"></path><path d="M 194.000,105.000 C 199.119,102.712 198.737,102.068 204.000,100.000" stroke-width="3.250" stroke="black" fill="none" stroke-linecap="round"></path><path d="M 204.000,100.000 C 207.809,97.095 208.119,97.712 212.000,95.000" stroke-width="3.499" stroke="black" fill="none" stroke-linecap="round"></path><path d="M 212.000,95.000 C 216.762,91.556 214.809,93.595 218.000,93.000" stroke-width="3.899" stroke="black" fill="none" stroke-linecap="round"></path><path d="M 218.000,93.000 C 219.166,97.802 219.762,95.056 218.000,102.000" stroke-width="4.682" stroke="black" fill="none" stroke-linecap="round"></path><path d="M 218.000,102.000 C 215.707,106.626 216.666,106.802 213.000,111.000" stroke-width="3.790" stroke="black" fill="none" stroke-linecap="round"></path><path d="M 213.000,111.000 C 209.055,117.037 209.207,117.126 205.000,123.000" stroke-width="3.297" stroke="black" fill="none" stroke-linecap="round"></path><path d="M 205.000,123.000 C 200.550,129.535 200.555,129.537 196.000,136.000" stroke-width="2.955" stroke="black" fill="none" stroke-linecap="round"></path><path d="M 196.000,136.000 C 191.559,143.474 191.050,143.035 186.000,150.000" stroke-width="2.899" stroke="black" fill="none" stroke-linecap="round"></path><path d="M 186.000,150.000 C 179.620,156.625 180.059,156.974 173.000,163.000" stroke-width="2.871" stroke="black" fill="none" stroke-linecap="round"></path><path d="M 173.000,163.000 C 165.991,169.491 166.120,169.625 159.000,176.000" stroke-width="2.712" stroke="black" fill="none" stroke-linecap="round"></path><path d="M 159.000,176.000 C 151.624,183.138 151.491,182.991 144.000,190.000" stroke-width="2.595" stroke="black" fill="none" stroke-linecap="round"></path><path d="M 144.000,190.000 C 136.251,196.232 136.624,196.638 129.000,203.000" stroke-width="2.702" stroke="black" fill="none" stroke-linecap="round"></path><path d="M 129.000,203.000 C 121.500,210.500 121.251,210.232 114.000,218.000" stroke-width="2.617" stroke="black" fill="none" stroke-linecap="round"></path><path d="M 114.000,218.000 C 107.620,224.625 107.500,224.500 101.000,231.000" stroke-width="2.676" stroke="black" fill="none" stroke-linecap="round"></path><path d="M 101.000,231.000 C 94.400,237.977 94.120,237.625 87.000,244.000" stroke-width="2.596" stroke="black" fill="none" stroke-linecap="round"></path><path d="M 87.000,244.000 C 72.683,255.257 72.900,255.477 58.000,266.000" stroke-width="1.975" stroke="black" fill="none" stroke-linecap="round"></path><path d="M 58.000,266.000 C 52.217,270.374 52.183,270.257 46.000,274.000" stroke-width="2.574" stroke="black" fill="none" stroke-linecap="round"></path><path d="M 46.000,274.000 C 40.102,277.226 40.217,277.374 34.000,280.000" stroke-width="2.896" stroke="black" fill="none" stroke-linecap="round"></path><path d="M 34.000,280.000 C 29.097,282.301 29.102,282.226 24.000,284.000" stroke-width="3.258" stroke="black" fill="none" stroke-linecap="round"></path><path d="M 24.000,284.000 C 20.052,285.421 20.097,285.301 16.000,286.000" stroke-width="3.656" stroke="black" fill="none" stroke-linecap="round"></path><path d="M 16.000,286.000 C 12.789,286.761 13.052,286.421 10.000,286.000" stroke-width="3.950" stroke="black" fill="none" stroke-linecap="round"></path><path d="M 10.000,286.000 C 5.983,285.359 7.289,285.261 5.000,283.000" stroke-width="4.483" stroke="black" fill="none" stroke-linecap="round"></path><path d="M 5.000,283.000 C 4.531,278.454 3.483,279.359 5.000,274.000" stroke-width="3.887" stroke="black" fill="none" stroke-linecap="round"></path><path d="M 5.000,274.000 C 4.929,268.556 5.531,268.954 7.000,264.000" stroke-width="3.620" stroke="black" fill="none" stroke-linecap="round"></path><path d="M 7.000,264.000 C 10.406,257.513 9.929,257.556 15.000,252.000" stroke-width="3.130" stroke="black" fill="none" stroke-linecap="round"></path><path d="M 15.000,252.000 C 20.437,245.301 20.406,245.513 27.000,240.000" stroke-width="2.962" stroke="black" fill="none" stroke-linecap="round"></path><path d="M 27.000,240.000 C 34.039,235.560 33.437,234.801 41.000,231.000" stroke-width="2.987" stroke="black" fill="none" stroke-linecap="round"></path><path d="M 41.000,231.000 C 48.165,225.407 48.539,226.060 56.000,221.000" stroke-width="2.739" stroke="black" fill="none" stroke-linecap="round"></path><path d="M 56.000,221.000 C 64.430,216.846 64.165,216.407 73.000,213.000" stroke-width="2.692" stroke="black" fill="none" stroke-linecap="round"></path><path d="M 73.000,213.000 C 103.348,199.136 103.430,199.346 134.000,186.000" stroke-width="2.585" stroke="black" fill="none" stroke-linecap="round"></path><path d="M 134.000,186.000 C 145.361,181.089 145.348,181.136 157.000,177.000" stroke-width="2.713" stroke="black" fill="none" stroke-linecap="round"></path><path d="M 157.000,177.000 C 164.234,175.602 163.861,174.589 171.000,173.000" stroke-width="2.927" stroke="black" fill="none" stroke-linecap="round"></path><path d="M 171.000,173.000 C 176.905,169.793 177.234,170.602 183.000,167.000" stroke-width="3.076" stroke="black" fill="none" stroke-linecap="round"></path><path d="M 183.000,167.000 C 189.141,164.790 188.905,164.293 195.000,162.000" stroke-width="3.153" stroke="black" fill="none" stroke-linecap="round"></path><path d="M 195.000,162.000 C 199.642,159.724 199.641,159.790 204.000,157.000" stroke-width="3.439" stroke="black" fill="none" stroke-linecap="round"></path><path d="M 204.000,157.000 C 210.712,154.017 207.642,154.724 211.000,152.000" stroke-width="3.590" stroke="black" fill="none" stroke-linecap="round"></path><path d="M 211.000,152.000 C 208.058,150.255 211.212,150.517 205.000,150.000" stroke-width="4.657" stroke="black" fill="none" stroke-linecap="round"></path><path d="M 205.000,150.000 C 201.808,149.979 202.058,149.755 199.000,151.000" stroke-width="4.330" stroke="black" fill="none" stroke-linecap="round"></path><path d="M 199.000,151.000 C 196.558,152.605 196.308,151.979 194.000,154.000" stroke-width="4.230" stroke="black" fill="none" stroke-linecap="round"></path><path d="M 194.000,154.000 C 190.678,155.053 191.058,155.605 188.000,157.000" stroke-width="4.040" stroke="black" fill="none" stroke-linecap="round"></path><path d="M 188.000,157.000 C 185.500,159.500 185.178,159.053 183.000,162.000" stroke-width="3.942" stroke="black" fill="none" stroke-linecap="round"></path><path d="M 183.000,162.000 C 180.387,164.396 180.500,164.500 178.000,167.000" stroke-width="3.963" stroke="black" fill="none" stroke-linecap="round"></path><path d="M 178.000,167.000 C 174.978,170.481 174.887,170.396 172.000,174.000" stroke-width="3.679" stroke="black" fill="none" stroke-linecap="round"></path><path d="M 172.000,174.000 C 169.340,176.880 169.478,176.981 167.000,180.000" stroke-width="3.800" stroke="black" fill="none" stroke-linecap="round"></path><path d="M 167.000,180.000 C 164.935,182.959 164.840,182.880 163.000,186.000" stroke-width="3.903" stroke="black" fill="none" stroke-linecap="round"></path><path d="M 163.000,186.000 C 161.067,188.333 161.435,188.459 160.000,191.000" stroke-width="4.054" stroke="black" fill="none" stroke-linecap="round"></path><path d="M 160.000,191.000 C 159.211,193.471 159.067,193.333 159.000,196.000" stroke-width="4.241" stroke="black" fill="none" stroke-linecap="round"></path><path d="M 159.000,196.000 C 157.424,200.636 158.711,199.471 159.000,203.000" stroke-width="4.529" stroke="black" fill="none" stroke-linecap="round"></path><path d="M 159.000,203.000 C 161.915,204.525 160.424,205.136 165.000,205.000" stroke-width="4.661" stroke="black" fill="none" stroke-linecap="round"></path><path d="M 165.000,205.000 C 168.747,205.929 168.415,205.525 172.000,205.000" stroke-width="4.111" stroke="black" fill="none" stroke-linecap="round"></path><path d="M 172.000,205.000 C 175.652,203.232 175.747,203.929 179.000,201.000" stroke-width="3.900" stroke="black" fill="none" stroke-linecap="round"></path><path d="M 179.000,201.000 C 183.000,198.000 183.152,198.232 187.000,195.000" stroke-width="3.697" stroke="black" fill="none" stroke-linecap="round"></path><path d="M 187.000,195.000 C 191.213,192.246 191.000,192.000 195.000,189.000" stroke-width="3.529" stroke="black" fill="none" stroke-linecap="round"></path><path d="M 195.000,189.000 C 198.000,186.000 198.213,186.246 201.000,183.000" stroke-width="3.630" stroke="black" fill="none" stroke-linecap="round"></path><path d="M 201.000,183.000 C 204.333,180.260 204.000,180.000 207.000,177.000" stroke-width="3.715" stroke="black" fill="none" stroke-linecap="round"></path><path d="M 207.000,177.000 C 209.096,174.712 208.833,174.760 210.000,172.000" stroke-width="3.991" stroke="black" fill="none" stroke-linecap="round"></path><path d="M 210.000,172.000 C 212.500,167.000 211.096,168.712 211.000,165.000" stroke-width="4.419" stroke="black" fill="none" stroke-linecap="round"></path><path d="M 211.000,165.000 C 207.516,164.270 209.500,163.000 204.000,164.000" stroke-width="4.771" stroke="black" fill="none" stroke-linecap="round"></path><path d="M 204.000,164.000 C 200.671,162.973 201.016,163.770 198.000,164.000" stroke-width="4.763" stroke="black" fill="none" stroke-linecap="round"></path><path d="M 198.000,164.000 C 193.992,166.008 194.171,165.473 191.000,169.000" stroke-width="4.568" stroke="black" fill="none" stroke-linecap="round"></path><path d="M 191.000,169.000 C 188.889,171.931 188.492,171.508 187.000,175.000" stroke-width="4.062" stroke="black" fill="none" stroke-linecap="round"></path><path d="M 187.000,175.000 C 184.800,178.400 184.889,178.431 183.000,182.000" stroke-width="3.886" stroke="black" fill="none" stroke-linecap="round"></path><path d="M 183.000,182.000 C 181.366,185.449 181.300,185.400 180.000,189.000" stroke-width="3.833" stroke="black" fill="none" stroke-linecap="round"></path><path d="M 180.000,189.000 C 176.698,193.264 178.866,191.949 178.000,195.000" stroke-width="4.428" stroke="black" fill="none" stroke-linecap="round"></path><path d="M 178.000,195.000 C 182.000,197.000 179.698,197.264 186.000,197.000" stroke-width="4.813" stroke="black" fill="none" stroke-linecap="round"></path><path d="M 186.000,197.000 C 190.229,196.588 190.000,197.000 194.000,195.000" stroke-width="4.046" stroke="black" fill="none" stroke-linecap="round"></path><path d="M 194.000,195.000 C 199.534,192.061 199.729,192.588 205.000,189.000" stroke-width="3.445" stroke="black" fill="none" stroke-linecap="round"></path><path d="M 205.000,189.000 C 212.111,185.183 212.034,185.061 219.000,181.000" stroke-width="2.968" stroke="black" fill="none" stroke-linecap="round"></path><path d="M 219.000,181.000 C 226.077,176.615 226.111,176.683 233.000,172.000" stroke-width="2.936" stroke="black" fill="none" stroke-linecap="round"></path><path d="M 233.000,172.000 C 241.240,166.820 241.077,166.615 249.000,161.000" stroke-width="2.712" stroke="black" fill="none" stroke-linecap="round"></path><path d="M 249.000,161.000 C 256.879,154.345 257.240,154.820 265.000,148.000" stroke-width="2.591" stroke="black" fill="none" stroke-linecap="round"></path><path d="M 265.000,148.000 C 273.121,142.155 272.879,141.845 281.000,136.000" stroke-width="2.527" stroke="black" fill="none" stroke-linecap="round"></path><path d="M 281.000,136.000 C 289.335,129.872 289.121,129.655 297.000,123.000" stroke-width="2.478" stroke="black" fill="none" stroke-linecap="round"></path><path d="M 297.000,123.000 C 303.500,116.500 303.835,116.872 310.000,110.000" stroke-width="2.574" stroke="black" fill="none" stroke-linecap="round"></path><path d="M 310.000,110.000 C 315.789,104.759 315.500,104.500 321.000,99.000" stroke-width="2.818" stroke="black" fill="none" stroke-linecap="round"></path><path d="M 321.000,99.000 C 325.257,94.182 325.289,94.259 329.000,89.000" stroke-width="3.080" stroke="black" fill="none" stroke-linecap="round"></path><path d="M 329.000,89.000 C 331.787,85.150 331.757,85.182 334.000,81.000" stroke-width="3.438" stroke="black" fill="none" stroke-linecap="round"></path><path d="M 334.000,81.000 C 335.963,77.630 335.787,77.650 337.000,74.000" stroke-width="3.691" stroke="black" fill="none" stroke-linecap="round"></path><path d="M 337.000,74.000 C 340.110,68.407 337.963,70.630 338.000,67.000" stroke-width="4.288" stroke="black" fill="none" stroke-linecap="round"></path><path d="M 338.000,67.000 C 331.259,64.999 334.110,64.407 325.000,66.000" stroke-width="4.130" stroke="black" fill="none" stroke-linecap="round"></path><path d="M 325.000,66.000 C 318.689,67.919 318.759,66.999 313.000,71.000" stroke-width="3.422" stroke="black" fill="none" stroke-linecap="round"></path><path d="M 313.000,71.000 C 306.732,74.644 306.689,74.419 301.000,79.000" stroke-width="3.084" stroke="black" fill="none" stroke-linecap="round"></path><path d="M 301.000,79.000 C 294.362,84.345 294.232,84.144 288.000,90.000" stroke-width="2.887" stroke="black" fill="none" stroke-linecap="round"></path><path d="M 288.000,90.000 C 280.751,96.249 280.862,96.345 274.000,103.000" stroke-width="2.716" stroke="black" fill="none" stroke-linecap="round"></path><path d="M 274.000,103.000 C 265.266,111.789 265.251,111.749 257.000,121.000" stroke-width="2.403" stroke="black" fill="none" stroke-linecap="round"></path><path d="M 257.000,121.000 C 247.908,131.422 247.766,131.289 239.000,142.000" stroke-width="2.214" stroke="black" fill="none" stroke-linecap="round"></path><path d="M 239.000,142.000 C 231.737,150.298 231.908,150.422 225.000,159.000" stroke-width="2.319" stroke="black" fill="none" stroke-linecap="round"></path><path d="M 225.000,159.000 C 219.835,165.889 219.737,165.798 215.000,173.000" stroke-width="2.633" stroke="black" fill="none" stroke-linecap="round"></path><path d="M 215.000,173.000 C 211.553,178.534 211.335,178.389 208.000,184.000" stroke-width="2.943" stroke="black" fill="none" stroke-linecap="round"></path><path d="M 208.000,184.000 C 204.524,188.267 205.053,188.534 202.000,193.000" stroke-width="3.273" stroke="black" fill="none" stroke-linecap="round"></path><path d="M 202.000,193.000 C 198.394,197.394 200.524,195.767 200.000,199.000" stroke-width="3.811" stroke="black" fill="none" stroke-linecap="round"></path><path d="M 200.000,199.000 C 205.627,202.467 202.894,201.894 211.000,202.000" stroke-width="4.308" stroke="black" fill="none" stroke-linecap="round"></path><path d="M 211.000,202.000 C 217.251,199.990 217.127,201.467 223.000,197.000" stroke-width="3.522" stroke="black" fill="none" stroke-linecap="round"></path><path d="M 223.000,197.000 C 229.542,193.066 229.751,193.490 236.000,189.000" stroke-width="3.045" stroke="black" fill="none" stroke-linecap="round"></path><path d="M 236.000,189.000 C 243.035,184.554 243.042,184.566 250.000,180.000" stroke-width="2.900" stroke="black" fill="none" stroke-linecap="round"></path><path d="M 250.000,180.000 C 256.000,176.000 256.035,176.054 262.000,172.000" stroke-width="3.053" stroke="black" fill="none" stroke-linecap="round"></path><path d="M 262.000,172.000 C 267.955,167.930 268.000,168.000 274.000,164.000" stroke-width="2.986" stroke="black" fill="none" stroke-linecap="round"></path><path d="M 274.000,164.000 C 282.000,157.940 277.955,161.430 282.000,159.000" stroke-width="3.352" stroke="black" fill="none" stroke-linecap="round"></path><path d="M 282.000,159.000 C 278.098,164.082 282.000,160.440 274.000,169.000" stroke-width="4.289" stroke="black" fill="none" stroke-linecap="round"></path><path d="M 274.000,169.000 C 270.481,172.984 270.598,173.082 267.000,177.000" stroke-width="3.733" stroke="black" fill="none" stroke-linecap="round"></path><path d="M 267.000,177.000 C 263.525,180.212 263.981,180.484 261.000,184.000" stroke-width="3.672" stroke="black" fill="none" stroke-linecap="round"></path><path d="M 261.000,184.000 C 257.667,188.833 259.525,186.212 259.000,189.000" stroke-width="4.072" stroke="black" fill="none" stroke-linecap="round"></path><path d="M 259.000,189.000 C 264.403,187.717 261.667,189.333 269.000,185.000" stroke-width="4.446" stroke="black" fill="none" stroke-linecap="round"></path><path d="M 269.000,185.000 C 275.122,180.654 275.403,181.217 281.000,176.000" stroke-width="3.161" stroke="black" fill="none" stroke-linecap="round"></path><path d="M 281.000,176.000 C 286.853,170.811 287.122,171.154 293.000,166.000" stroke-width="2.997" stroke="black" fill="none" stroke-linecap="round"></path><path d="M 293.000,166.000 C 298.430,161.899 298.353,161.811 304.000,158.000" stroke-width="3.027" stroke="black" fill="none" stroke-linecap="round"></path><path d="M 304.000,158.000 C 308.500,155.000 308.430,154.899 313.000,152.000" stroke-width="3.352" stroke="black" fill="none" stroke-linecap="round"></path><path d="M 313.000,152.000 C 319.186,146.886 316.000,150.000 319.000,148.000" stroke-width="3.749" stroke="black" fill="none" stroke-linecap="round"></path><path d="M 319.000,148.000 C 315.892,153.329 318.686,149.886 312.000,158.000" stroke-width="4.445" stroke="black" fill="none" stroke-linecap="round"></path><path d="M 312.000,158.000 C 307.857,161.868 308.392,162.329 304.000,166.000" stroke-width="3.640" stroke="black" fill="none" stroke-linecap="round"></path><path d="M 304.000,166.000 C 300.757,169.325 300.857,169.368 298.000,173.000" stroke-width="3.645" stroke="black" fill="none" stroke-linecap="round"></path><path d="M 298.000,173.000 C 294.111,177.333 296.257,175.325 295.000,178.000" stroke-width="4.009" stroke="black" fill="none" stroke-linecap="round"></path><path d="M 295.000,178.000 C 298.862,177.743 296.111,178.833 302.000,176.000" stroke-width="4.592" stroke="black" fill="none" stroke-linecap="round"></path><path d="M 302.000,176.000 C 307.531,172.042 307.862,172.743 313.000,168.000" stroke-width="3.383" stroke="black" fill="none" stroke-linecap="round"></path><path d="M 313.000,168.000 C 319.034,163.545 319.031,163.542 325.000,159.000" stroke-width="3.097" stroke="black" fill="none" stroke-linecap="round"></path><path d="M 325.000,159.000 C 329.549,155.561 329.534,155.545 334.000,152.000" stroke-width="3.332" stroke="black" fill="none" stroke-linecap="round"></path><path d="M 334.000,152.000 C 339.241,146.494 337.049,149.561 340.000,147.000" stroke-width="3.633" stroke="black" fill="none" stroke-linecap="round"></path><path d="M 340.000,147.000 C 338.921,150.734 340.741,147.494 337.000,154.000" stroke-width="4.345" stroke="black" fill="none" stroke-linecap="round"></path><path d="M 337.000,154.000 C 333.385,158.923 333.921,159.234 330.000,164.000" stroke-width="3.467" stroke="black" fill="none" stroke-linecap="round"></path><path d="M 330.000,164.000 C 326.315,169.391 326.385,169.423 323.000,175.000" stroke-width="3.201" stroke="black" fill="none" stroke-linecap="round"></path><path d="M 323.000,175.000 C 320.019,180.511 319.815,180.391 317.000,186.000" stroke-width="3.281" stroke="black" fill="none" stroke-linecap="round"></path><path d="M 317.000,186.000 C 314.299,190.402 314.519,190.511 312.000,195.000" stroke-width="3.484" stroke="black" fill="none" stroke-linecap="round"></path><path d="M 312.000,195.000 C 310.198,198.406 310.299,198.402 309.000,202.000" stroke-width="3.707" stroke="black" fill="none" stroke-linecap="round"></path><path d="M 309.000,202.000 C 306.523,206.672 308.198,204.406 308.000,207.000" stroke-width="4.474" stroke="black" fill="none" stroke-linecap="round"></path><path d="M 308.000,207.000 C 313.381,206.310 311.023,207.672 318.000,204.000" stroke-width="4.331" stroke="black" fill="none" stroke-linecap="round"></path><path d="M 318.000,204.000 C 324.268,200.356 324.381,200.810 330.000,196.000" stroke-width="3.269" stroke="black" fill="none" stroke-linecap="round"></path><path d="M 330.000,196.000 C 336.400,190.378 336.768,190.856 343.000,185.000" stroke-width="2.934" stroke="black" fill="none" stroke-linecap="round"></path><path d="M 343.000,185.000 C 350.263,179.807 349.900,179.378 357.000,174.000" stroke-width="2.738" stroke="black" fill="none" stroke-linecap="round"></path><path d="M 357.000,174.000 C 364.516,167.017 364.763,167.307 372.000,160.000" stroke-width="2.603" stroke="black" fill="none" stroke-linecap="round"></path><path d="M 372.000,160.000 C 380.621,152.125 380.516,152.017 389.000,144.000" stroke-width="2.435" stroke="black" fill="none" stroke-linecap="round"></path><path d="M 389.000,144.000 C 397.266,136.249 397.121,136.125 405.000,128.000" stroke-width="2.361" stroke="black" fill="none" stroke-linecap="round"></path><path d="M 405.000,128.000 C 411.983,119.985 412.266,120.249 419.000,112.000" stroke-width="2.399" stroke="black" fill="none" stroke-linecap="round"></path><path d="M 419.000,112.000 C 426.771,103.725 426.483,103.485 434.000,95.000" stroke-width="2.348" stroke="black" fill="none" stroke-linecap="round"></path><path d="M 434.000,95.000 C 441.074,86.057 441.271,86.225 448.000,77.000" stroke-width="2.386" stroke="black" fill="none" stroke-linecap="round"></path><path d="M 448.000,77.000 C 453.956,68.967 454.074,69.057 460.000,61.000" stroke-width="2.574" stroke="black" fill="none" stroke-linecap="round"></path><path d="M 460.000,61.000 C 464.910,54.429 464.956,54.467 470.000,48.000" stroke-width="2.713" stroke="black" fill="none" stroke-linecap="round"></path><path d="M 470.000,48.000 C 474.793,42.710 474.410,42.429 479.000,37.000" stroke-width="2.894" stroke="black" fill="none" stroke-linecap="round"></path><path d="M 479.000,37.000 C 481.662,33.091 481.793,33.210 484.000,29.000" stroke-width="3.317" stroke="black" fill="none" stroke-linecap="round"></path><path d="M 484.000,29.000 C 487.750,23.750 485.662,26.091 487.000,23.000" stroke-width="4.189" stroke="black" fill="none" stroke-linecap="round"></path><path d="M 487.000,23.000 C 483.685,24.022 486.250,22.250 481.000,26.000" stroke-width="4.631" stroke="black" fill="none" stroke-linecap="round"></path><path d="M 481.000,26.000 C 474.559,31.572 474.185,31.022 468.000,37.000" stroke-width="3.186" stroke="black" fill="none" stroke-linecap="round"></path><path d="M 468.000,37.000 C 459.738,43.200 460.059,43.572 452.000,50.000" stroke-width="2.639" stroke="black" fill="none" stroke-linecap="round"></path><path d="M 452.000,50.000 C 443.493,57.992 443.238,57.700 435.000,66.000" stroke-width="2.503" stroke="black" fill="none" stroke-linecap="round"></path><path d="M 435.000,66.000 C 425.750,74.250 425.993,74.492 417.000,83.000" stroke-width="2.407" stroke="black" fill="none" stroke-linecap="round"></path><path d="M 417.000,83.000 C 408.540,91.113 408.750,91.250 401.000,100.000" stroke-width="2.381" stroke="black" fill="none" stroke-linecap="round"></path><path d="M 401.000,100.000 C 394.958,107.969 394.540,107.613 389.000,116.000" stroke-width="2.622" stroke="black" fill="none" stroke-linecap="round"></path><path d="M 389.000,116.000 C 383.152,123.272 383.458,123.469 378.000,131.000" stroke-width="2.666" stroke="black" fill="none" stroke-linecap="round"></path><path d="M 378.000,131.000 C 373.985,136.759 374.152,136.772 371.000,143.000" stroke-width="2.953" stroke="black" fill="none" stroke-linecap="round"></path><path d="M 371.000,143.000 C 368.760,148.427 368.485,148.259 367.000,154.000" stroke-width="3.154" stroke="black" fill="none" stroke-linecap="round"></path><path d="M 367.000,154.000 C 364.392,158.146 365.760,157.927 365.000,162.000" stroke-width="3.572" stroke="black" fill="none" stroke-linecap="round"></path><path d="M 365.000,162.000 C 366.484,168.781 365.892,167.646 370.000,173.000" stroke-width="3.958" stroke="black" fill="none" stroke-linecap="round"></path><path d="M 370.000,173.000 C 372.478,174.000 371.484,174.781 375.000,174.000" stroke-width="4.209" stroke="black" fill="none" stroke-linecap="round"></path><path d="M 375.000,174.000 C 379.661,174.142 379.478,174.000 384.000,173.000" stroke-width="3.757" stroke="black" fill="none" stroke-linecap="round"></path><path d="M 384.000,173.000 C 388.918,170.768 389.161,171.642 394.000,169.000" stroke-width="3.587" stroke="black" fill="none" stroke-linecap="round"></path><path d="M 394.000,169.000 C 400.414,166.647 400.418,166.768 407.000,165.000" stroke-width="3.251" stroke="black" fill="none" stroke-linecap="round"></path><path d="M 407.000,165.000 C 412.457,163.528 412.414,163.647 418.000,163.000" stroke-width="3.293" stroke="black" fill="none" stroke-linecap="round"></path><path d="M 418.000,163.000 C 423.000,163.000 422.957,162.528 428.000,163.000" stroke-width="3.463" stroke="black" fill="none" stroke-linecap="round"></path><path d="M 428.000,163.000 C 432.993,160.993 431.500,163.000 435.000,163.000" stroke-width="3.766" stroke="black" fill="none" stroke-linecap="round"></path><path d="M 435.000,163.000 C 439.402,168.593 437.993,165.993 438.000,173.000" stroke-width="4.107" stroke="black" fill="none" stroke-linecap="round"></path><path d="M 438.000,173.000 C 433.844,179.910 435.902,179.593 428.000,185.000" stroke-width="3.135" stroke="black" fill="none" stroke-linecap="round"></path><path d="M 428.000,185.000 C 417.825,192.996 418.344,193.410 407.000,200.000" stroke-width="2.445" stroke="black" fill="none" stroke-linecap="round"></path><path d="M 407.000,200.000 C 392.327,209.595 392.325,209.496 377.000,218.000" stroke-width="2.045" stroke="black" fill="none" stroke-linecap="round"></path><path d="M 377.000,218.000 C 361.313,226.696 361.327,226.595 345.000,234.000" stroke-width="1.876" stroke="black" fill="none" stroke-linecap="round"></path><path d="M 345.000,234.000 C 327.891,242.197 327.813,241.696 310.000,248.000" stroke-width="1.785" stroke="black" fill="none" stroke-linecap="round"></path><path d="M 310.000,248.000 C 290.665,253.768 290.891,254.197 271.000,258.000" stroke-width="1.651" stroke="black" fill="none" stroke-linecap="round"></path><path d="M 271.000,258.000 C 251.151,263.237 251.165,262.268 231.000,265.000" stroke-width="1.608" stroke="black" fill="none" stroke-linecap="round"></path><path d="M 231.000,265.000 C 210.969,265.778 211.151,266.737 191.000,265.000" stroke-width="1.656" stroke="black" fill="none" stroke-linecap="round"></path><path d="M 191.000,265.000 C 172.003,265.762 172.469,264.278 154.000,262.000" stroke-width="1.683" stroke="black" fill="none" stroke-linecap="round"></path><path d="M 154.000,262.000 C 138.107,258.192 138.503,258.762 124.000,251.000" stroke-width="1.863" stroke="black" fill="none" stroke-linecap="round"></path><path d="M 124.000,251.000 C 111.976,244.976 112.607,245.192 103.000,236.000" stroke-width="2.108" stroke="black" fill="none" stroke-linecap="round"></path><path d="M 103.000,236.000 C 94.701,227.870 95.476,228.476 91.000,218.000" stroke-width="2.352" stroke="black" fill="none" stroke-linecap="round"></path><path d="M 91.000,218.000 C 88.000,207.008 87.201,207.870 88.000,196.000" stroke-width="2.412" stroke="black" fill="none" stroke-linecap="round"></path><path d="M 88.000,196.000 C 86.313,182.713 88.000,184.008 91.000,172.000" stroke-width="2.289" stroke="black" fill="none" stroke-linecap="round"></path><path d="M 91.000,172.000 C 98.287,158.247 96.813,158.713 109.000,148.000" stroke-width="2.105" stroke="black" fill="none" stroke-linecap="round"></path><path d="M 109.000,148.000 C 121.882,135.908 121.287,136.247 137.000,128.000" stroke-width="1.927" stroke="black" fill="none" stroke-linecap="round"></path><path d="M 137.000,128.000 C 155.080,119.606 154.382,118.908 174.000,114.000" stroke-width="1.755" stroke="black" fill="none" stroke-linecap="round"></path><path d="M 174.000,114.000 C 195.759,107.460 195.580,107.606 218.000,104.000" stroke-width="1.547" stroke="black" fill="none" stroke-linecap="round"></path><path d="M 218.000,104.000 C 240.976,101.679 240.759,100.460 264.000,100.000" stroke-width="1.524" stroke="black" fill="none" stroke-linecap="round"></path><path d="M 264.000,100.000 C 288.978,97.751 288.976,98.179 314.000,97.000" stroke-width="1.453" stroke="black" fill="none" stroke-linecap="round"></path><path d="M 314.000,97.000 C 339.003,96.728 338.978,96.251 364.000,97.000" stroke-width="1.389" stroke="black" fill="none" stroke-linecap="round"></path><path d="M 364.000,97.000 C 385.130,96.127 385.003,97.228 406.000,98.000" stroke-width="1.543" stroke="black" fill="none" stroke-linecap="round"></path><path d="M 406.000,98.000 C 424.306,99.801 424.130,99.627 442.000,104.000" stroke-width="1.659" stroke="black" fill="none" stroke-linecap="round"></path><path d="M 442.000,104.000 C 454.009,106.976 453.806,106.801 465.000,112.000" stroke-width="2.068" stroke="black" fill="none" stroke-linecap="round"></path><path d="M 465.000,112.000 C 472.730,114.815 471.509,114.976 477.000,120.000" stroke-width="2.666" stroke="black" fill="none" stroke-linecap="round"></path><path d="M 477.000,120.000 C 480.760,125.304 479.730,123.315 479.000,129.000" stroke-width="3.240" stroke="black" fill="none" stroke-linecap="round"></path><path d="M 479.000,129.000 C 474.017,136.375 475.760,135.804 467.000,141.000" stroke-width="2.930" stroke="black" fill="none" stroke-linecap="round"></path><path d="M 467.000,141.000 C 451.465,150.497 452.017,150.875 435.000,158.000" stroke-width="1.966" stroke="black" fill="none" stroke-linecap="round"></path><path d="M 435.000,158.000 C 411.819,168.384 411.965,168.497 388.000,177.000" stroke-width="1.594" stroke="black" fill="none" stroke-linecap="round"></path><path d="M 388.000,177.000 C 364.840,185.839 364.819,185.384 341.000,192.000" stroke-width="1.436" stroke="black" fill="none" stroke-linecap="round"></path><path d="M 341.000,192.000 C 320.170,197.418 320.340,197.339 299.000,200.000" stroke-width="1.547" stroke="black" fill="none" stroke-linecap="round"></path><path d="M 299.000,200.000 C 279.011,201.459 279.170,202.418 259.000,202.000" stroke-width="1.588" stroke="black" fill="none" stroke-linecap="round"></path><path d="M 259.000,202.000 C 241.479,204.648 242.011,202.459 225.000,202.000" stroke-width="1.778" stroke="black" fill="none" stroke-linecap="round"></path><path d="M 225.000,202.000 C 212.434,199.575 213.479,200.148 203.000,193.000" stroke-width="2.141" stroke="black" fill="none" stroke-linecap="round"></path><path d="M 203.000,193.000 C 195.861,186.723 195.934,188.075 192.000,179.000" stroke-width="2.481" stroke="black" fill="none" stroke-linecap="round"></path><path d="M 192.000,179.000 C 189.372,172.651 189.361,173.723 190.000,167.000" stroke-width="2.941" stroke="black" fill="none" stroke-linecap="round"></path><path d="M 190.000,167.000 C 191.753,163.809 190.372,163.651 194.000,161.000" stroke-width="3.619" stroke="black" fill="none" stroke-linecap="round"></path><path d="M 473.000,173.000 C 462.527,169.946 468.000,171.000 463.000,169.000" stroke-width="4.913" stroke="black" fill="none" stroke-linecap="round"></path><path d="M 463.000,169.000 C 469.000,169.000 463.527,167.946 475.000,169.000" stroke-width="3.586" stroke="black" fill="none" stroke-linecap="round"></path><path d="M 475.000,169.000 C 485.500,169.000 485.500,169.000 496.000,169.000" stroke-width="2.692" stroke="black" fill="none" stroke-linecap="round"></path><path d="M 496.000,169.000 C 508.500,169.000 508.500,169.000 521.000,169.000" stroke-width="2.447" stroke="black" fill="none" stroke-linecap="round"></path><path d="M 521.000,169.000 C 534.573,169.995 534.500,169.000 548.000,169.000" stroke-width="2.188" stroke="black" fill="none" stroke-linecap="round"></path><path d="M 548.000,169.000 C 561.512,167.075 561.573,167.995 575.000,165.000" stroke-width="2.221" stroke="black" fill="none" stroke-linecap="round"></path><path d="M 575.000,165.000 C 587.457,162.672 587.512,163.075 600.000,161.000" stroke-width="2.191" stroke="black" fill="none" stroke-linecap="round"></path><path d="M 600.000,161.000 C 610.012,160.110 609.957,159.672 620.000,159.000" stroke-width="2.394" stroke="black" fill="none" stroke-linecap="round"></path><path d="M 620.000,159.000 C 627.988,157.890 628.012,158.110 636.000,157.000" stroke-width="2.719" stroke="black" fill="none" stroke-linecap="round"></path><path d="M 636.000,157.000 C 641.513,156.610 641.488,156.390 647.000,156.000" stroke-width="3.168" stroke="black" fill="none" stroke-linecap="round"></path><path d="M 647.000,156.000 C 650.481,155.235 650.513,155.610 654.000,155.000" stroke-width="3.691" stroke="black" fill="none" stroke-linecap="round"></path><path d="M 654.000,155.000 C 658.038,155.417 657.981,154.735 662.000,155.000" stroke-width="3.732" stroke="black" fill="none" stroke-linecap="round"></path><path d="M 662.000,155.000 C 667.476,153.850 667.538,154.417 673.000,153.000" stroke-width="3.488" stroke="black" fill="none" stroke-linecap="round"></path><path d="M 673.000,153.000 C 680.630,152.612 680.476,151.850 688.000,151.000" stroke-width="3.047" stroke="black" fill="none" stroke-linecap="round"></path><path d="M 688.000,151.000 C 696.472,148.399 696.630,149.112 705.000,146.000" stroke-width="2.836" stroke="black" fill="none" stroke-linecap="round"></path><path d="M 705.000,146.000 C 712.505,144.018 712.472,143.899 720.000,142.000" stroke-width="2.908" stroke="black" fill="none" stroke-linecap="round"></path><path d="M 720.000,142.000 C 731.673,139.673 725.505,140.518 731.000,139.000" stroke-width="3.215" stroke="black" fill="none" stroke-linecap="round"></path><path d="M 731.000,139.000 C 723.853,137.808 730.173,138.173 717.000,139.000" stroke-width="4.035" stroke="black" fill="none" stroke-linecap="round"></path><path d="M 717.000,139.000 C 701.013,143.055 700.853,141.808 685.000,147.000" stroke-width="2.271" stroke="black" fill="none" stroke-linecap="round"></path><path d="M 685.000,147.000 C 666.593,151.919 666.513,151.555 648.000,156.000" stroke-width="1.868" stroke="black" fill="none" stroke-linecap="round"></path><path d="M 648.000,156.000 C 625.535,160.685 625.593,160.919 603.000,165.000" stroke-width="1.610" stroke="black" fill="none" stroke-linecap="round"></path><path d="M 603.000,165.000 C 578.617,170.270 578.535,169.685 554.000,174.000" stroke-width="1.526" stroke="black" fill="none" stroke-linecap="round"></path><path d="M 554.000,174.000 C 529.077,177.953 529.117,177.770 504.000,180.000" stroke-width="1.494" stroke="black" fill="none" stroke-linecap="round"></path><path d="M 504.000,180.000 C 480.009,181.454 480.077,181.953 456.000,182.000" stroke-width="1.431" stroke="black" fill="none" stroke-linecap="round"></path><path d="M 456.000,182.000 C 435.959,182.843 436.009,182.454 416.000,182.000" stroke-width="1.595" stroke="black" fill="none" stroke-linecap="round"></path><path d="M 416.000,182.000 C 400.531,179.863 400.459,181.343 385.000,179.000" stroke-width="1.895" stroke="black" fill="none" stroke-linecap="round"></path><path d="M 385.000,179.000 C 373.460,178.397 373.531,178.363 362.000,179.000" stroke-width="2.263" stroke="black" fill="none" stroke-linecap="round"></path><path d="M 362.000,179.000 C 353.587,177.942 354.460,179.397 347.000,181.000" stroke-width="2.765" stroke="black" fill="none" stroke-linecap="round"></path><path d="M 347.000,181.000 C 335.897,190.735 339.587,184.442 334.000,192.000" stroke-width="1.125" stroke="black" fill="none" stroke-linecap="round"></path></svg>