<svg xmlns="http://www.w3.org/2000/svg" xmlns:xlink="http://www.w3.org/1999/xlink" viewBox="0 0 724 340" width="724" height="340"><path d="M 71.000,210.000 C 73.492,205.508 74.000,206.000 77.000,202.000" stroke-width="4.750" stroke="black" fill="none" stroke-linecap="round"></path><path d="M 77.000,202.000 C 82.222,198.248 81.492,197.508 87.000,194.000" stroke-width="4.265" stroke="black" fill="none" stroke-linecap="round"></path><path d="M 87.000,194.000 C 91.117,190.111 91.222,190.248 95.000,186.000" stroke-width="3.602" stroke="black" fill="none" stroke-linecap="round"></path><path d="M 95.000,186.000 C 99.863,181.287 99.617,181.111 104.000,176.000" stroke-width="3.266" stroke="black" fill="none" stroke-linecap="round"></path><path d="M 104.000,176.000 C 108.435,169.454 108.863,169.787 113.000,163.000" stroke-width="3.071" stroke="black" fill="none" stroke-linecap="round"></path><path d="M 113.000,163.000 C 123.312,149.209 122.935,148.954 133.000,135.000" stroke-width="2.174" stroke="black" fill="none" stroke-linecap="round"></path><path d="M 133.000,135.000 C 137.831,126.889 138.312,127.209 143.000,119.000" stroke-width="2.496" stroke="black" fill="none" stroke-linecap="round"></path><path d="M 143.000,119.000 C 147.742,112.654 147.331,112.389 152.000,106.000" stroke-width="2.775" stroke="black" fill="none" stroke-linecap="round"></path><path d="M 152.000,106.000 C 155.466,99.980 155.742,100.154 159.000,94.000" stroke-width="2.992" stroke="black" fill="none" stroke-linecap="round"></path><path d="M 159.000,94.000 C 162.278,89.142 161.966,88.980 165.000,84.000" stroke-width="3.225" stroke="black" fill="none" stroke-linecap="round"></path><path d="M 165.000,84.000 C 166.405,80.456 166.778,80.642 168.000,77.000" stroke-width="3.614" stroke="black" fill="none" stroke-linecap="round"></path><path d="M 168.000,77.000 C 169.313,73.892 169.405,73.956 171.000,71.000" stroke-width="3.898" stroke="black" fill="none" stroke-linecap="round"></path><path d="M 171.000,71.000 C 175.575,63.564 172.813,67.892 175.000,65.000" stroke-width="4.374" stroke="black" fill="none" stroke-linecap="round"></path><path d="M 175.000,65.000 C 171.298,73.163 173.575,68.564 167.000,81.000" stroke-width="4.614" stroke="black" fill="none" stroke-linecap="round"></path><path d="M 167.000,81.000 C 162.459,88.476 162.798,88.663 158.000,96.000" stroke-width="3.150" stroke="black" fill="none" stroke-linecap="round"></path><path d="M 158.000,96.000 C 153.806,101.686 154.459,101.976 151.000,108.000" stroke-width="3.111" stroke="black" fill="none" stroke-linecap="round"></path><path d="M 151.000,108.000 C 148.033,115.376 147.806,115.186 146.000,123.000" stroke-width="2.971" stroke="black" fill="none" stroke-linecap="round"></path><path d="M 146.000,123.000 C 144.409,130.483 144.033,130.376 143.000,138.000" stroke-width="2.904" stroke="black" fill="none" stroke-linecap="round"></path><path d="M 143.000,138.000 C 141.591,146.517 141.409,146.483 140.000,155.000" stroke-width="2.824" stroke="black" fill="none" stroke-linecap="round"></path><path d="M 140.000,155.000 C 138.344,162.472 138.591,162.517 137.000,170.000" stroke-width="2.918" stroke="black" fill="none" stroke-linecap="round"></path><path d="M 137.000,170.000 C 135.815,176.477 135.844,176.472 135.000,183.000" stroke-width="3.143" stroke="black" fill="none" stroke-linecap="round"></path><path d="M 135.000,183.000 C 134.578,188.508 134.315,188.477 134.000,194.000" stroke-width="3.325" stroke="black" fill="none" stroke-linecap="round"></path><path d="M 134.000,194.000 C 133.251,197.984 133.578,198.008 133.000,202.000" stroke-width="3.654" stroke="black" fill="none" stroke-linecap="round"></path><path d="M 133.000,202.000 C 133.000,206.000 132.751,205.984 133.000,210.000" stroke-width="3.772" stroke="black" fill="none" stroke-linecap="round"></path><path d="M 133.000,210.000 C 132.239,213.211 133.000,213.000 133.000,216.000" stroke-width="4.034" stroke="black" fill="none" stroke-linecap="round"></path><path d="M 133.000,216.000 C 134.076,218.863 133.739,218.711 136.000,221.000" stroke-width="4.254" stroke="black" fill="none" stroke-linecap="round"></path><path d="M 136.000,221.000 C 138.709,223.975 138.576,223.863 142.000,226.000" stroke-width="3.966" stroke="black" fill="none" stroke-linecap="round"></path><path d="M 142.000,226.000 C 145.500,227.500 145.209,227.975 149.000,229.000" stroke-width="3.856" stroke="black" fill="none" stroke-linecap="round"></path><path d="M 149.000,229.000 C 152.370,230.963 152.500,230.500 156.000,232.000" stroke-width="3.876" stroke="black" fill="none" stroke-linecap="round"></path><path d="M 156.000,232.000 C 159.528,232.349 159.370,232.963 163.000,233.000" stroke-width="3.893" stroke="black" fill="none" stroke-linecap="round"></path><path d="M 163.000,233.000 C 167.457,234.394 167.528,233.849 172.000,235.000" stroke-width="4.251" stroke="black" fill="none" stroke-linecap="round"></path><path d="M 172.000,235.000 C 175.282,236.019 174.957,235.394 178.000,235.000" stroke-width="4.185" stroke="black" fill="none" stroke-linecap="round"></path><path d="M 178.000,235.000 C 183.532,232.630 183.282,233.019 188.000,229.000" stroke-width="3.858" stroke="black" fill="none" stroke-linecap="round"></path><path d="M 160.000,171.000 C 151.126,167.573 151.000,168.500 142.000,166.000" stroke-width="4.213" stroke="black" fill="none" stroke-linecap="round"></path><path d="M 142.000,166.000 C 136.500,166.000 136.626,165.073 131.000,166.000" stroke-width="3.621" stroke="black" fill="none" stroke-linecap="round"></path><path d="M 131.000,166.000 C 122.000,166.000 122.000,166.000 113.000,166.000" stroke-width="2.879" stroke="black" fill="none" stroke-linecap="round"></path><path d="M 113.000,166.000 C 102.500,166.000 102.500,166.000 92.000,166.000" stroke-width="2.551" stroke="black" fill="none" stroke-linecap="round"></path><path d="M 92.000,166.000 C 81.973,165.489 82.000,166.000 72.000,166.000" stroke-width="2.515" stroke="black" fill="none" stroke-linecap="round"></path><path d="M 72.000,166.000 C 62.338,166.184 62.473,166.489 53.000,168.000" stroke-width="2.549" stroke="black" fill="none" stroke-linecap="round"></path><path d="M 53.000,168.000 C 44.506,170.519 44.338,169.684 36.000,173.000" stroke-width="2.632" stroke="black" fill="none" stroke-linecap="round"></path><path d="M 36.000,173.000 C 32.267,173.476 32.506,174.019 29.000,175.000" stroke-width="3.495" stroke="black" fill="none" stroke-linecap="round"></path><path d="M 202.000,166.000 C 198.539,167.922 199.500,168.500 197.000,171.000" stroke-width="5.109" stroke="black" fill="none" stroke-linecap="round"></path><path d="M 197.000,171.000 C 195.073,177.523 194.039,176.922 193.000,184.000" stroke-width="4.293" stroke="black" fill="none" stroke-linecap="round"></path><path d="M 193.000,184.000 C 191.160,190.059 191.073,190.023 189.000,196.000" stroke-width="3.549" stroke="black" fill="none" stroke-linecap="round"></path><path d="M 189.000,196.000 C 186.616,200.882 187.160,201.059 185.000,206.000" stroke-width="3.474" stroke="black" fill="none" stroke-linecap="round"></path><path d="M 185.000,206.000 C 184.263,210.581 183.616,210.382 183.000,215.000" stroke-width="3.594" stroke="black" fill="none" stroke-linecap="round"></path><path d="M 183.000,215.000 C 181.235,220.235 182.263,217.581 181.000,220.000" stroke-width="4.381" stroke="black" fill="none" stroke-linecap="round"></path><path d="M 181.000,220.000 C 180.740,216.700 180.735,219.735 182.000,214.000" stroke-width="4.792" stroke="black" fill="none" stroke-linecap="round"></path><path d="M 182.000,214.000 C 185.053,209.534 184.240,209.200 188.000,205.000" stroke-width="3.819" stroke="black" fill="none" stroke-linecap="round"></path><path d="M 188.000,205.000 C 191.384,199.423 191.553,199.534 195.000,194.000" stroke-width="3.411" stroke="black" fill="none" stroke-linecap="round"></path><path d="M 195.000,194.000 C 199.260,187.319 199.384,187.423 204.000,181.000" stroke-width="3.048" stroke="black" fill="none" stroke-linecap="round"></path><path d="M 204.000,181.000 C 208.399,175.413 208.260,175.319 213.000,170.000" stroke-width="2.999" stroke="black" fill="none" stroke-linecap="round"></path><path d="M 213.000,170.000 C 216.756,165.244 216.899,165.413 221.000,161.000" stroke-width="3.250" stroke="black" fill="none" stroke-linecap="round"></path><path d="M 221.000,161.000 C 224.286,156.143 223.256,158.744 226.000,157.000" stroke-width="3.926" stroke="black" fill="none" stroke-linecap="round"></path><path d="M 226.000,157.000 C 229.584,161.109 228.286,158.143 229.000,165.000" stroke-width="4.272" stroke="black" fill="none" stroke-linecap="round"></path><path d="M 229.000,165.000 C 225.902,170.953 228.084,171.109 223.000,177.000" stroke-width="3.479" stroke="black" fill="none" stroke-linecap="round"></path><path d="M 223.000,177.000 C 220.199,183.601 219.902,183.453 217.000,190.000" stroke-width="3.170" stroke="black" fill="none" stroke-linecap="round"></path><path d="M 217.000,190.000 C 214.298,194.404 214.699,194.601 212.000,199.000" stroke-width="3.343" stroke="black" fill="none" stroke-linecap="round"></path><path d="M 212.000,199.000 C 208.837,204.166 210.798,201.404 210.000,204.000" stroke-width="3.943" stroke="black" fill="none" stroke-linecap="round"></path><path d="M 210.000,204.000 C 214.808,201.393 212.337,203.666 219.000,198.000" stroke-width="4.386" stroke="black" fill="none" stroke-linecap="round"></path><path d="M 219.000,198.000 C 225.107,192.612 225.308,192.893 231.000,187.000" stroke-width="3.205" stroke="black" fill="none" stroke-linecap="round"></path><path d="M 231.000,187.000 C 235.226,182.177 235.607,182.612 240.000,178.000" stroke-width="3.318" stroke="black" fill="none" stroke-linecap="round"></path><path d="M 240.000,178.000 C 245.070,172.449 243.226,175.177 247.000,173.000" stroke-width="3.549" stroke="black" fill="none" stroke-linecap="round"></path><path d="M 247.000,173.000 C 248.125,176.812 248.570,173.449 247.000,180.000" stroke-width="4.497" stroke="black" fill="none" stroke-linecap="round"></path><path d="M 247.000,180.000 C 243.597,184.806 245.125,185.312 241.000,190.000" stroke-width="3.616" stroke="black" fill="none" stroke-linecap="round"></path><path d="M 241.000,190.000 C 236.943,195.092 239.097,193.806 238.000,198.000" stroke-width="3.704" stroke="black" fill="none" stroke-linecap="round"></path><path d="M 238.000,198.000 C 241.717,201.864 238.943,200.592 245.000,201.000" stroke-width="4.515" stroke="black" fill="none" stroke-linecap="round"></path><path d="M 245.000,201.000 C 251.239,197.321 251.217,199.364 257.000,193.000" stroke-width="3.441" stroke="black" fill="none" stroke-linecap="round"></path><path d="M 257.000,193.000 C 262.955,187.946 263.239,188.321 269.000,183.000" stroke-width="3.068" stroke="black" fill="none" stroke-linecap="round"></path><path d="M 269.000,183.000 C 273.846,178.779 273.955,178.946 279.000,175.000" stroke-width="3.165" stroke="black" fill="none" stroke-linecap="round"></path><path d="M 279.000,175.000 C 283.220,171.480 281.346,173.279 284.000,172.000" stroke-width="3.818" stroke="black" fill="none" stroke-linecap="round"></path><path d="M 284.000,172.000 C 283.418,174.731 284.720,172.480 282.000,177.000" stroke-width="4.626" stroke="black" fill="none" stroke-linecap="round"></path><path d="M 282.000,177.000 C 277.829,182.384 278.418,182.731 274.000,188.000" stroke-width="3.529" stroke="black" fill="none" stroke-linecap="round"></path><path d="M 274.000,188.000 C 270.114,193.291 270.329,193.384 267.000,199.000" stroke-width="3.280" stroke="black" fill="none" stroke-linecap="round"></path><path d="M 267.000,199.000 C 263.799,204.302 264.114,204.291 262.000,210.000" stroke-width="3.286" stroke="black" fill="none" stroke-linecap="round"></path><path d="M 262.000,210.000 C 261.251,213.984 260.799,213.802 261.000,218.000" stroke-width="3.639" stroke="black" fill="none" stroke-linecap="round"></path><path d="M 261.000,218.000 C 259.325,224.325 260.751,221.984 261.000,226.000" stroke-width="4.234" stroke="black" fill="none" stroke-linecap="round"></path><path d="M 261.000,226.000 C 265.110,226.233 262.325,227.325 267.000,224.000" stroke-width="4.563" stroke="black" fill="none" stroke-linecap="round"></path><path d="M 334.000,186.000 C 327.856,180.330 327.500,181.000 321.000,176.000" stroke-width="4.417" stroke="black" fill="none" stroke-linecap="round"></path><path d="M 321.000,176.000 C 318.085,174.475 318.356,174.330 315.000,174.000" stroke-width="4.190" stroke="black" fill="none" stroke-linecap="round"></path><path d="M 315.000,174.000 C 311.500,174.000 311.585,173.475 308.000,174.000" stroke-width="4.091" stroke="black" fill="none" stroke-linecap="round"></path><path d="M 308.000,174.000 C 304.226,172.925 304.500,174.000 301.000,174.000" stroke-width="4.016" stroke="black" fill="none" stroke-linecap="round"></path><path d="M 301.000,174.000 C 294.933,176.242 295.226,175.925 290.000,180.000" stroke-width="3.371" stroke="black" fill="none" stroke-linecap="round"></path><path d="M 290.000,180.000 C 284.562,184.633 284.433,184.242 280.000,190.000" stroke-width="3.092" stroke="black" fill="none" stroke-linecap="round"></path><path d="M 280.000,190.000 C 275.808,194.640 276.062,194.633 273.000,200.000" stroke-width="3.217" stroke="black" fill="none" stroke-linecap="round"></path><path d="M 273.000,200.000 C 270.410,205.362 270.308,205.140 269.000,211.000" stroke-width="3.239" stroke="black" fill="none" stroke-linecap="round"></path><path d="M 269.000,211.000 C 268.000,215.522 267.910,215.362 268.000,220.000" stroke-width="3.478" stroke="black" fill="none" stroke-linecap="round"></path><path d="M 268.000,220.000 C 267.257,223.838 268.000,222.522 269.000,225.000" stroke-width="3.994" stroke="black" fill="none" stroke-linecap="round"></path><path d="M 269.000,225.000 C 272.997,226.000 271.757,226.838 277.000,226.000" stroke-width="3.813" stroke="black" fill="none" stroke-linecap="round"></path><path d="M 277.000,226.000 C 282.087,226.956 281.497,226.000 286.000,225.000" stroke-width="3.712" stroke="black" fill="none" stroke-linecap="round"></path><path d="M 286.000,225.000 C 292.857,220.406 293.087,221.456 299.000,215.000" stroke-width="3.074" stroke="black" fill="none" stroke-linecap="round"></path><path d="M 299.000,215.000 C 304.864,208.857 305.357,209.406 311.000,203.000" stroke-width="2.888" stroke="black" fill="none" stroke-linecap="round"></path><path d="M 311.000,203.000 C 316.565,198.989 315.864,198.357 321.000,194.000" stroke-width="3.060" stroke="black" fill="none" stroke-linecap="round"></path><path d="M 321.000,194.000 C 324.330,189.673 324.565,189.989 327.000,185.000" stroke-width="3.261" stroke="black" fill="none" stroke-linecap="round"></path><path d="M 327.000,185.000 C 329.000,180.000 328.330,182.673 329.000,180.000" stroke-width="4.335" stroke="black" fill="none" stroke-linecap="round"></path><path d="M 329.000,180.000 C 327.650,182.399 329.000,180.000 327.000,185.000" stroke-width="4.402" stroke="black" fill="none" stroke-linecap="round"></path><path d="M 327.000,185.000 C 325.504,190.455 325.650,190.399 325.000,196.000" stroke-width="3.577" stroke="black" fill="none" stroke-linecap="round"></path><path d="M 325.000,196.000 C 325.000,201.500 324.504,201.455 325.000,207.000" stroke-width="3.462" stroke="black" fill="none" stroke-linecap="round"></path><path d="M 325.000,207.000 C 322.809,213.079 325.000,211.500 325.000,216.000" stroke-width="3.659" stroke="black" fill="none" stroke-linecap="round"></path><path d="M 325.000,216.000 C 329.416,218.427 327.309,219.079 334.000,219.000" stroke-width="4.129" stroke="black" fill="none" stroke-linecap="round"></path><path d="M 334.000,219.000 C 337.911,219.425 337.416,219.427 341.000,218.000" stroke-width="3.967" stroke="black" fill="none" stroke-linecap="round"></path><path d="M 341.000,218.000 C 344.000,215.500 344.411,216.425 347.000,213.000" stroke-width="3.834" stroke="black" fill="none" stroke-linecap="round"></path><path d="M 347.000,213.000 C 349.907,210.379 350.000,210.500 353.000,208.000" stroke-width="3.939" stroke="black" fill="none" stroke-linecap="round"></path><path d="M 435.000,65.000 C 431.811,67.636 432.500,68.000 430.000,71.000" stroke-width="4.505" stroke="black" fill="none" stroke-linecap="round"></path><path d="M 430.000,71.000 C 429.461,74.679 428.311,74.136 428.000,78.000" stroke-width="4.143" stroke="black" fill="none" stroke-linecap="round"></path><path d="M 428.000,78.000 C 423.500,87.000 423.961,87.179 419.000,96.000" stroke-width="2.830" stroke="black" fill="none" stroke-linecap="round"></path><path d="M 419.000,96.000 C 412.389,110.208 412.000,110.000 405.000,124.000" stroke-width="2.238" stroke="black" fill="none" stroke-linecap="round"></path><path d="M 405.000,124.000 C 397.294,138.177 397.389,138.208 389.000,152.000" stroke-width="2.022" stroke="black" fill="none" stroke-linecap="round"></path><path d="M 389.000,152.000 C 381.367,162.650 382.294,163.177 375.000,174.000" stroke-width="2.207" stroke="black" fill="none" stroke-linecap="round"></path><path d="M 375.000,174.000 C 370.476,183.489 369.867,183.150 366.000,193.000" stroke-width="2.414" stroke="black" fill="none" stroke-linecap="round"></path><path d="M 366.000,193.000 C 362.222,200.385 362.476,200.489 359.000,208.000" stroke-width="2.703" stroke="black" fill="none" stroke-linecap="round"></path><path d="M 359.000,208.000 C 356.741,213.428 356.722,213.385 355.000,219.000" stroke-width="3.114" stroke="black" fill="none" stroke-linecap="round"></path><path d="M 355.000,219.000 C 353.067,223.533 354.241,221.428 354.000,224.000" stroke-width="3.934" stroke="black" fill="none" stroke-linecap="round"></path><path d="M 354.000,224.000 C 356.333,222.067 355.067,224.533 359.000,221.000" stroke-width="4.731" stroke="black" fill="none" stroke-linecap="round"></path><path d="M 359.000,221.000 C 361.486,220.419 361.333,220.067 364.000,220.000" stroke-width="5.149" stroke="black" fill="none" stroke-linecap="round"></path><path d="M 364.000,220.000 C 367.944,220.389 367.486,219.419 371.000,219.000" stroke-width="4.992" stroke="black" fill="none" stroke-linecap="round"></path><path d="M 371.000,219.000 C 373.110,217.100 373.444,217.889 375.000,215.000" stroke-width="5.292" stroke="black" fill="none" stroke-linecap="round"></path><path d="M 375.000,215.000 C 377.561,212.049 377.610,212.100 380.000,209.000" stroke-width="4.397" stroke="black" fill="none" stroke-linecap="round"></path><path d="M 380.000,209.000 C 383.664,204.619 383.561,204.549 387.000,200.000" stroke-width="3.554" stroke="black" fill="none" stroke-linecap="round"></path><path d="M 387.000,200.000 C 390.502,195.769 390.164,195.619 393.000,191.000" stroke-width="3.575" stroke="black" fill="none" stroke-linecap="round"></path><path d="M 393.000,191.000 C 395.515,185.006 396.002,185.269 398.000,179.000" stroke-width="3.295" stroke="black" fill="none" stroke-linecap="round"></path><path d="M 398.000,179.000 C 401.586,170.535 401.515,170.506 405.000,162.000" stroke-width="2.856" stroke="black" fill="none" stroke-linecap="round"></path><path d="M 405.000,162.000 C 408.534,153.013 408.586,153.035 412.000,144.000" stroke-width="2.697" stroke="black" fill="none" stroke-linecap="round"></path><path d="M 412.000,144.000 C 415.643,133.348 416.034,133.513 420.000,123.000" stroke-width="2.436" stroke="black" fill="none" stroke-linecap="round"></path><path d="M 420.000,123.000 C 424.209,114.592 423.643,114.348 428.000,106.000" stroke-width="2.597" stroke="black" fill="none" stroke-linecap="round"></path><path d="M 428.000,106.000 C 431.485,97.494 431.709,97.592 435.000,89.000" stroke-width="2.670" stroke="black" fill="none" stroke-linecap="round"></path><path d="M 435.000,89.000 C 438.148,83.172 437.485,82.994 440.000,77.000" stroke-width="3.012" stroke="black" fill="none" stroke-linecap="round"></path><path d="M 440.000,77.000 C 442.161,72.192 441.148,73.172 441.000,69.000" stroke-width="3.487" stroke="black" fill="none" stroke-linecap="round"></path><path d="M 441.000,69.000 C 438.531,65.277 440.161,66.692 436.000,66.000" stroke-width="4.314" stroke="black" fill="none" stroke-linecap="round"></path><path d="M 436.000,66.000 C 427.330,69.550 428.031,68.277 420.000,75.000" stroke-width="2.969" stroke="black" fill="none" stroke-linecap="round"></path><path d="M 420.000,75.000 C 407.514,84.038 407.830,84.050 397.000,95.000" stroke-width="2.162" stroke="black" fill="none" stroke-linecap="round"></path><path d="M 397.000,95.000 C 383.240,108.287 384.014,108.538 373.000,124.000" stroke-width="1.856" stroke="black" fill="none" stroke-linecap="round"></path><path d="M 373.000,124.000 C 353.538,153.060 354.240,152.787 339.000,184.000" stroke-width="1.398" stroke="black" fill="none" stroke-linecap="round"></path><path d="M 339.000,184.000 C 335.488,195.391 334.038,194.560 334.000,207.000" stroke-width="1.915" stroke="black" fill="none" stroke-linecap="round"></path><path d="M 334.000,207.000 C 333.366,215.070 332.988,214.891 334.000,223.000" stroke-width="2.511" stroke="black" fill="none" stroke-linecap="round"></path><path d="M 334.000,223.000 C 333.250,229.250 334.366,227.570 336.000,232.000" stroke-width="3.168" stroke="black" fill="none" stroke-linecap="round"></path><path d="M 336.000,232.000 C 340.505,234.204 338.750,234.750 345.000,234.000" stroke-width="3.438" stroke="black" fill="none" stroke-linecap="round"></path><path d="M 345.000,234.000 C 352.094,233.851 351.505,233.704 358.000,231.000" stroke-width="3.170" stroke="black" fill="none" stroke-linecap="round"></path><path d="M 358.000,231.000 C 366.061,225.587 366.594,226.851 374.000,220.000" stroke-width="2.768" stroke="black" fill="none" stroke-linecap="round"></path><path d="M 379.000,177.000 C 375.924,181.452 376.000,181.500 373.000,186.000" stroke-width="5.320" stroke="black" fill="none" stroke-linecap="round"></path><path d="M 373.000,186.000 C 371.067,188.333 371.424,188.452 370.000,191.000" stroke-width="4.961" stroke="black" fill="none" stroke-linecap="round"></path><path d="M 370.000,191.000 C 369.230,193.473 369.067,193.333 369.000,196.000" stroke-width="4.500" stroke="black" fill="none" stroke-linecap="round"></path><path d="M 369.000,196.000 C 369.000,199.000 368.730,198.973 369.000,202.000" stroke-width="4.255" stroke="black" fill="none" stroke-linecap="round"></path><path d="M 369.000,202.000 C 367.795,206.386 369.000,206.000 369.000,210.000" stroke-width="3.996" stroke="black" fill="none" stroke-linecap="round"></path><path d="M 369.000,210.000 C 371.104,213.863 370.295,213.886 374.000,217.000" stroke-width="3.810" stroke="black" fill="none" stroke-linecap="round"></path><path d="M 374.000,217.000 C 377.107,220.664 377.104,220.363 381.000,223.000" stroke-width="3.746" stroke="black" fill="none" stroke-linecap="round"></path><path d="M 381.000,223.000 C 384.860,226.143 384.607,225.164 389.000,226.000" stroke-width="3.881" stroke="black" fill="none" stroke-linecap="round"></path><path d="M 389.000,226.000 C 400.466,226.045 399.360,225.643 410.000,222.000" stroke-width="2.717" stroke="black" fill="none" stroke-linecap="round"></path><path d="M 410.000,222.000 C 416.369,217.386 416.966,219.045 422.000,212.000" stroke-width="2.864" stroke="black" fill="none" stroke-linecap="round"></path><path d="M 422.000,212.000 C 427.796,206.245 427.869,206.386 433.000,200.000" stroke-width="2.871" stroke="black" fill="none" stroke-linecap="round"></path><path d="M 433.000,200.000 C 437.720,194.152 437.796,194.245 442.000,188.000" stroke-width="2.893" stroke="black" fill="none" stroke-linecap="round"></path><path d="M 442.000,188.000 C 445.459,182.473 445.720,182.652 449.000,177.000" stroke-width="3.035" stroke="black" fill="none" stroke-linecap="round"></path><path d="M 449.000,177.000 C 452.408,170.013 450.959,173.973 453.000,171.000" stroke-width="3.622" stroke="black" fill="none" stroke-linecap="round"></path><path d="M 453.000,171.000 C 453.076,176.620 453.908,172.513 452.000,182.000" stroke-width="4.582" stroke="black" fill="none" stroke-linecap="round"></path><path d="M 452.000,182.000 C 450.918,186.684 451.076,186.620 449.000,191.000" stroke-width="3.855" stroke="black" fill="none" stroke-linecap="round"></path><path d="M 449.000,191.000 C 446.199,195.357 446.918,195.684 444.000,200.000" stroke-width="3.602" stroke="black" fill="none" stroke-linecap="round"></path><path d="M 444.000,200.000 C 442.089,205.038 441.699,204.857 440.000,210.000" stroke-width="3.490" stroke="black" fill="none" stroke-linecap="round"></path><path d="M 440.000,210.000 C 437.974,214.489 438.089,214.538 436.000,219.000" stroke-width="3.484" stroke="black" fill="none" stroke-linecap="round"></path><path d="M 436.000,219.000 C 431.550,225.379 434.474,222.489 433.000,226.000" stroke-width="3.755" stroke="black" fill="none" stroke-linecap="round"></path><path d="M 433.000,226.000 C 438.432,224.741 435.050,226.879 443.000,222.000" stroke-width="4.397" stroke="black" fill="none" stroke-linecap="round"></path><path d="M 443.000,222.000 C 447.734,217.603 448.432,218.741 453.000,214.000" stroke-width="3.556" stroke="black" fill="none" stroke-linecap="round"></path><path d="M 453.000,214.000 C 457.354,211.168 457.234,211.103 462.000,209.000" stroke-width="3.462" stroke="black" fill="none" stroke-linecap="round"></path><path d="M 462.000,209.000 C 468.187,205.881 464.854,207.668 468.000,207.000" stroke-width="3.842" stroke="black" fill="none" stroke-linecap="round"></path><path d="M 468.000,207.000 C 465.028,211.569 467.687,208.881 461.000,215.000" stroke-width="4.445" stroke="black" fill="none" stroke-linecap="round"></path><path d="M 461.000,215.000 C 451.388,223.074 451.528,223.069 441.000,230.000" stroke-width="2.588" stroke="black" fill="none" stroke-linecap="round"></path><path d="M 441.000,230.000 C 427.478,239.405 427.388,239.074 413.000,247.000" stroke-width="2.020" stroke="black" fill="none" stroke-linecap="round"></path><path d="M 413.000,247.000 C 396.615,254.765 396.978,255.405 380.000,262.000" stroke-width="1.858" stroke="black" fill="none" stroke-linecap="round"></path><path d="M 380.000,262.000 C 365.713,268.580 365.615,268.265 351.000,274.000" stroke-width="1.939" stroke="black" fill="none" stroke-linecap="round"></path><path d="M 351.000,274.000 C 337.180,279.182 337.213,279.080 323.000,283.000" stroke-width="1.969" stroke="black" fill="none" stroke-linecap="round"></path><path d="M 323.000,283.000 C 311.047,285.759 311.180,286.182 299.000,288.000" stroke-width="2.192" stroke="black" fill="none" stroke-linecap="round"></path><path d="M 299.000,288.000 C 289.529,289.730 289.547,289.759 280.000,291.000" stroke-width="2.433" stroke="black" fill="none" stroke-linecap="round"></path><path d="M 280.000,291.000 C 273.748,293.266 274.529,291.730 269.000,292.000" stroke-width="2.997" stroke="black" fill="none" stroke-linecap="round"></path><path d="M 269.000,292.000 C 263.811,289.378 266.248,291.266 265.000,287.000" stroke-width="4.021" stroke="black" fill="none" stroke-linecap="round"></path><path d="M 265.000,287.000 C 271.645,279.139 268.811,279.378 279.000,272.000" stroke-width="2.788" stroke="black" fill="none" stroke-linecap="round"></path><path d="M 279.000,272.000 C 288.272,262.046 288.645,262.639 299.000,254.000" stroke-width="2.392" stroke="black" fill="none" stroke-linecap="round"></path><path d="M 299.000,254.000 C 312.247,243.506 312.272,244.046 327.000,236.000" stroke-width="2.026" stroke="black" fill="none" stroke-linecap="round"></path><path d="M 327.000,236.000 C 341.218,229.588 340.747,229.006 356.000,225.000" stroke-width="2.002" stroke="black" fill="none" stroke-linecap="round"></path><path d="M 356.000,225.000 C 370.474,221.389 370.218,220.588 385.000,218.000" stroke-width="2.030" stroke="black" fill="none" stroke-linecap="round"></path><path d="M 385.000,218.000 C 400.573,214.797 400.474,214.389 416.000,211.000" stroke-width="1.981" stroke="black" fill="none" stroke-linecap="round"></path><path d="M 416.000,211.000 C 433.127,206.932 433.073,206.797 450.000,202.000" stroke-width="1.875" stroke="black" fill="none" stroke-linecap="round"></path><path d="M 450.000,202.000 C 465.940,198.077 465.627,197.432 481.000,192.000" stroke-width="1.912" stroke="black" fill="none" stroke-linecap="round"></path><path d="M 481.000,192.000 C 494.421,186.226 494.440,186.577 507.000,179.000" stroke-width="2.024" stroke="black" fill="none" stroke-linecap="round"></path><path d="M 507.000,179.000 C 517.407,171.854 517.921,172.726 528.000,165.000" stroke-width="2.186" stroke="black" fill="none" stroke-linecap="round"></path><path d="M 528.000,165.000 C 534.400,160.821 534.407,160.854 541.000,157.000" stroke-width="2.678" stroke="black" fill="none" stroke-linecap="round"></path><path d="M 541.000,157.000 C 547.401,153.398 543.900,155.321 547.000,154.000" stroke-width="3.464" stroke="black" fill="none" stroke-linecap="round"></path><path d="M 547.000,154.000 C 543.053,157.073 546.401,154.898 539.000,160.000" stroke-width="3.462" stroke="black" fill="none" stroke-linecap="round"></path><path d="M 539.000,160.000 C 533.966,163.453 534.053,163.573 529.000,167.000" stroke-width="3.384" stroke="black" fill="none" stroke-linecap="round"></path><path d="M 529.000,167.000 C 516.596,176.136 516.466,175.953 504.000,185.000" stroke-width="2.280" stroke="black" fill="none" stroke-linecap="round"></path><path d="M 504.000,185.000 C 489.508,195.011 489.596,195.136 475.000,205.000" stroke-width="1.946" stroke="black" fill="none" stroke-linecap="round"></path><path d="M 475.000,205.000 C 459.380,216.600 459.008,216.011 443.000,227.000" stroke-width="1.828" stroke="black" fill="none" stroke-linecap="round"></path><path d="M 443.000,227.000 C 428.239,237.750 427.880,236.600 412.000,245.000" stroke-width="1.815" stroke="black" fill="none" stroke-linecap="round"></path><path d="M 412.000,245.000 C 391.402,250.645 400.239,250.250 387.000,252.000" stroke-width="1.207" stroke="black" fill="none" stroke-linecap="round"></path><path d="M 519.000,202.000 C 510.928,202.443 512.000,204.000 505.000,206.000" stroke-width="3.591" stroke="black" fill="none" stroke-linecap="round"></path><path d="M 505.000,206.000 C 500.765,209.588 500.928,208.443 499.000,214.000" stroke-width="3.556" stroke="black" fill="none" stroke-linecap="round"></path><path d="M 499.000,214.000 C 496.565,219.935 497.765,217.088 499.000,221.000" stroke-width="4.252" stroke="black" fill="none" stroke-linecap="round"></path><path d="M 499.000,221.000 C 507.102,221.987 504.565,223.435 515.000,221.000" stroke-width="3.204" stroke="black" fill="none" stroke-linecap="round"></path><path d="M 515.000,221.000 C 527.504,219.988 527.102,219.487 539.000,216.000" stroke-width="2.515" stroke="black" fill="none" stroke-linecap="round"></path><path d="M 539.000,216.000 C 552.011,210.887 552.004,211.488 564.000,204.000" stroke-width="2.239" stroke="black" fill="none" stroke-linecap="round"></path><path d="M 564.000,204.000 C 575.150,196.709 575.511,197.387 586.000,189.000" stroke-width="2.206" stroke="black" fill="none" stroke-linecap="round"></path><path d="M 586.000,189.000 C 594.129,183.160 594.150,183.209 602.000,177.000" stroke-width="2.458" stroke="black" fill="none" stroke-linecap="round"></path><path d="M 602.000,177.000 C 608.369,172.263 605.629,174.160 609.000,171.000" stroke-width="3.143" stroke="black" fill="none" stroke-linecap="round"></path><path d="M 609.000,171.000 C 606.190,171.467 609.369,170.263 604.000,173.000" stroke-width="4.192" stroke="black" fill="none" stroke-linecap="round"></path><path d="M 604.000,173.000 C 596.288,178.753 596.190,178.467 589.000,185.000" stroke-width="2.971" stroke="black" fill="none" stroke-linecap="round"></path><path d="M 589.000,185.000 C 582.091,190.619 582.288,190.753 576.000,197.000" stroke-width="2.817" stroke="black" fill="none" stroke-linecap="round"></path><path d="M 576.000,197.000 C 571.219,201.636 571.591,201.619 568.000,207.000" stroke-width="3.080" stroke="black" fill="none" stroke-linecap="round"></path><path d="M 568.000,207.000 C 565.282,212.404 566.719,209.136 567.000,212.000" stroke-width="4.167" stroke="black" fill="none" stroke-linecap="round"></path><path d="M 567.000,212.000 C 576.179,207.831 573.782,210.404 585.000,203.000" stroke-width="2.909" stroke="black" fill="none" stroke-linecap="round"></path><path d="M 585.000,203.000 C 596.688,195.402 597.179,196.331 609.000,189.000" stroke-width="2.320" stroke="black" fill="none" stroke-linecap="round"></path><path d="M 609.000,189.000 C 621.653,182.072 621.688,182.402 635.000,177.000" stroke-width="2.158" stroke="black" fill="none" stroke-linecap="round"></path><path d="M 635.000,177.000 C 646.832,172.562 646.653,172.572 659.000,170.000" stroke-width="2.240" stroke="black" fill="none" stroke-linecap="round"></path><path d="M 659.000,170.000 C 670.113,165.632 665.832,168.562 673.000,169.000" stroke-width="2.769" stroke="black" fill="none" stroke-linecap="round"></path><path d="M 673.000,169.000 C 675.234,178.098 676.113,172.632 671.000,184.000" stroke-width="3.470" stroke="black" fill="none" stroke-linecap="round"></path><path d="M 671.000,184.000 C 655.178,199.189 658.734,201.098 640.000,215.000" stroke-width="1.812" stroke="black" fill="none" stroke-linecap="round"></path><path d="M 640.000,215.000 C 610.204,247.023 619.178,236.689 599.000,259.000" stroke-width="1.155" stroke="black" fill="none" stroke-linecap="round"></path></svg>