<svg xmlns="http://www.w3.org/2000/svg" xmlns:xlink="http://www.w3.org/1999/xlink" viewBox="0 0 724 340" width="724" height="340"><path d="M 165.000,101.000 C 162.462,94.879 161.500,97.000 158.000,93.000" stroke-width="4.883" stroke="black" fill="none" stroke-linecap="round"></path><path d="M 158.000,93.000 C 152.000,93.000 152.962,90.879 146.000,93.000" stroke-width="4.376" stroke="black" fill="none" stroke-linecap="round"></path><path d="M 146.000,93.000 C 140.000,93.000 140.000,93.000 134.000,93.000" stroke-width="3.561" stroke="black" fill="none" stroke-linecap="round"></path><path d="M 134.000,93.000 C 127.490,92.750 127.500,93.000 121.000,93.000" stroke-width="3.291" stroke="black" fill="none" stroke-linecap="round"></path><path d="M 121.000,93.000 C 114.228,92.517 114.490,93.250 108.000,94.000" stroke-width="3.215" stroke="black" fill="none" stroke-linecap="round"></path><path d="M 108.000,94.000 C 102.971,95.029 103.728,95.017 100.000,98.000" stroke-width="3.577" stroke="black" fill="none" stroke-linecap="round"></path><path d="M 100.000,98.000 C 97.688,101.333 97.471,100.529 97.000,105.000" stroke-width="3.787" stroke="black" fill="none" stroke-linecap="round"></path><path d="M 97.000,105.000 C 95.933,109.731 96.188,109.333 97.000,114.000" stroke-width="3.710" stroke="black" fill="none" stroke-linecap="round"></path><path d="M 97.000,114.000 C 98.379,120.314 98.433,119.731 102.000,125.000" stroke-width="3.404" stroke="black" fill="none" stroke-linecap="round"></path><path d="M 102.000,125.000 C 107.291,131.471 106.879,131.314 114.000,136.000" stroke-width="3.236" stroke="black" fill="none" stroke-linecap="round"></path><path d="M 114.000,136.000 C 127.676,144.671 127.291,144.971 142.000,152.000" stroke-width="2.137" stroke="black" fill="none" stroke-linecap="round"></path><path d="M 142.000,152.000 C 149.500,155.000 149.176,155.671 157.000,158.000" stroke-width="2.561" stroke="black" fill="none" stroke-linecap="round"></path><path d="M 157.000,158.000 C 164.742,160.505 164.500,161.000 172.000,164.000" stroke-width="2.779" stroke="black" fill="none" stroke-linecap="round"></path><path d="M 172.000,164.000 C 178.666,166.682 178.242,167.005 184.000,171.000" stroke-width="3.045" stroke="black" fill="none" stroke-linecap="round"></path><path d="M 184.000,171.000 C 190.138,175.276 189.166,175.182 193.000,181.000" stroke-width="3.052" stroke="black" fill="none" stroke-linecap="round"></path><path d="M 193.000,181.000 C 194.237,186.030 195.138,185.276 194.000,191.000" stroke-width="3.375" stroke="black" fill="none" stroke-linecap="round"></path><path d="M 194.000,191.000 C 195.086,197.757 193.737,196.530 192.000,202.000" stroke-width="3.330" stroke="black" fill="none" stroke-linecap="round"></path><path d="M 192.000,202.000 C 185.482,208.261 187.086,208.757 178.000,213.000" stroke-width="2.962" stroke="black" fill="none" stroke-linecap="round"></path><path d="M 178.000,213.000 C 170.183,217.420 170.482,217.761 162.000,221.000" stroke-width="2.741" stroke="black" fill="none" stroke-linecap="round"></path><path d="M 162.000,221.000 C 154.193,224.740 154.183,224.420 146.000,227.000" stroke-width="2.841" stroke="black" fill="none" stroke-linecap="round"></path><path d="M 146.000,227.000 C 139.528,228.247 139.693,228.740 133.000,229.000" stroke-width="2.948" stroke="black" fill="none" stroke-linecap="round"></path><path d="M 133.000,229.000 C 126.466,230.259 126.528,229.747 120.000,230.000" stroke-width="3.161" stroke="black" fill="none" stroke-linecap="round"></path><path d="M 120.000,230.000 C 113.558,230.117 113.966,229.759 108.000,228.000" stroke-width="3.295" stroke="black" fill="none" stroke-linecap="round"></path><path d="M 108.000,228.000 C 103.287,225.278 103.058,226.117 99.000,222.000" stroke-width="3.338" stroke="black" fill="none" stroke-linecap="round"></path><path d="M 99.000,222.000 C 94.258,219.073 94.787,218.778 91.000,215.000" stroke-width="3.367" stroke="black" fill="none" stroke-linecap="round"></path><path d="M 91.000,215.000 C 88.122,211.207 88.258,211.573 87.000,207.000" stroke-width="3.532" stroke="black" fill="none" stroke-linecap="round"></path><path d="M 277.000,178.000 C 272.082,172.211 271.500,174.000 266.000,170.000" stroke-width="4.565" stroke="black" fill="none" stroke-linecap="round"></path><path d="M 266.000,170.000 C 260.475,169.594 261.082,168.211 255.000,170.000" stroke-width="3.627" stroke="black" fill="none" stroke-linecap="round"></path><path d="M 255.000,170.000 C 246.945,170.676 246.975,170.594 239.000,172.000" stroke-width="3.075" stroke="black" fill="none" stroke-linecap="round"></path><path d="M 239.000,172.000 C 231.848,173.003 231.945,173.176 225.000,175.000" stroke-width="3.000" stroke="black" fill="none" stroke-linecap="round"></path><path d="M 225.000,175.000 C 219.310,176.037 219.848,176.503 215.000,179.000" stroke-width="3.297" stroke="black" fill="none" stroke-linecap="round"></path><path d="M 215.000,179.000 C 211.111,182.041 211.310,181.537 209.000,186.000" stroke-width="3.535" stroke="black" fill="none" stroke-linecap="round"></path><path d="M 209.000,186.000 C 207.238,189.949 207.111,189.541 207.000,194.000" stroke-width="3.708" stroke="black" fill="none" stroke-linecap="round"></path><path d="M 207.000,194.000 C 205.787,199.379 206.738,198.449 208.000,203.000" stroke-width="3.626" stroke="black" fill="none" stroke-linecap="round"></path><path d="M 208.000,203.000 C 212.429,208.367 211.287,208.379 218.000,212.000" stroke-width="3.272" stroke="black" fill="none" stroke-linecap="round"></path><path d="M 218.000,212.000 C 224.224,215.915 223.929,215.867 231.000,218.000" stroke-width="3.116" stroke="black" fill="none" stroke-linecap="round"></path><path d="M 231.000,218.000 C 237.465,219.455 237.224,219.915 244.000,220.000" stroke-width="3.096" stroke="black" fill="none" stroke-linecap="round"></path><path d="M 244.000,220.000 C 249.653,220.844 249.465,220.455 255.000,220.000" stroke-width="3.362" stroke="black" fill="none" stroke-linecap="round"></path><path d="M 255.000,220.000 C 259.633,219.405 259.153,219.344 263.000,217.000" stroke-width="3.620" stroke="black" fill="none" stroke-linecap="round"></path><path d="M 263.000,217.000 C 266.155,213.621 266.633,214.405 269.000,210.000" stroke-width="3.584" stroke="black" fill="none" stroke-linecap="round"></path><path d="M 269.000,210.000 C 272.353,206.842 271.655,206.621 274.000,203.000" stroke-width="3.636" stroke="black" fill="none" stroke-linecap="round"></path><path d="M 274.000,203.000 C 274.730,199.516 275.353,199.842 275.000,196.000" stroke-width="3.865" stroke="black" fill="none" stroke-linecap="round"></path><path d="M 275.000,196.000 C 275.000,193.000 275.230,193.016 275.000,190.000" stroke-width="4.065" stroke="black" fill="none" stroke-linecap="round"></path><path d="M 305.000,171.000 C 305.000,175.500 305.000,175.500 305.000,180.000" stroke-width="5.074" stroke="black" fill="none" stroke-linecap="round"></path><path d="M 305.000,180.000 C 305.000,187.000 305.000,187.000 305.000,194.000" stroke-width="3.419" stroke="black" fill="none" stroke-linecap="round"></path><path d="M 305.000,194.000 C 304.730,200.512 305.000,200.500 305.000,207.000" stroke-width="3.192" stroke="black" fill="none" stroke-linecap="round"></path><path d="M 305.000,207.000 C 304.555,212.797 305.230,212.512 306.000,218.000" stroke-width="3.439" stroke="black" fill="none" stroke-linecap="round"></path><path d="M 306.000,218.000 C 307.070,222.869 307.055,221.797 310.000,225.000" stroke-width="3.645" stroke="black" fill="none" stroke-linecap="round"></path><path d="M 310.000,225.000 C 313.480,225.780 312.570,226.869 317.000,226.000" stroke-width="3.912" stroke="black" fill="none" stroke-linecap="round"></path><path d="M 317.000,226.000 C 322.030,227.544 321.480,226.280 326.000,226.000" stroke-width="3.797" stroke="black" fill="none" stroke-linecap="round"></path><path d="M 326.000,226.000 C 331.124,223.104 331.030,224.044 335.000,219.000" stroke-width="3.423" stroke="black" fill="none" stroke-linecap="round"></path><path d="M 335.000,219.000 C 339.171,213.616 339.624,214.104 343.000,208.000" stroke-width="3.209" stroke="black" fill="none" stroke-linecap="round"></path><path d="M 343.000,208.000 C 346.770,202.653 346.671,202.616 350.000,197.000" stroke-width="3.191" stroke="black" fill="none" stroke-linecap="round"></path><path d="M 350.000,197.000 C 352.621,192.056 352.770,192.153 355.000,187.000" stroke-width="3.274" stroke="black" fill="none" stroke-linecap="round"></path><path d="M 355.000,187.000 C 356.802,183.594 356.621,183.556 358.000,180.000" stroke-width="3.679" stroke="black" fill="none" stroke-linecap="round"></path><path d="M 358.000,180.000 C 359.000,175.000 358.802,177.594 359.000,175.000" stroke-width="4.071" stroke="black" fill="none" stroke-linecap="round"></path><path d="M 359.000,175.000 C 358.337,177.476 359.000,175.000 358.000,180.000" stroke-width="4.731" stroke="black" fill="none" stroke-linecap="round"></path><path d="M 358.000,180.000 C 357.239,184.987 357.337,184.976 357.000,190.000" stroke-width="3.886" stroke="black" fill="none" stroke-linecap="round"></path><path d="M 357.000,190.000 C 357.000,195.500 356.739,195.487 357.000,201.000" stroke-width="3.482" stroke="black" fill="none" stroke-linecap="round"></path><path d="M 357.000,201.000 C 357.000,205.500 357.000,205.500 357.000,210.000" stroke-width="3.564" stroke="black" fill="none" stroke-linecap="round"></path><path d="M 357.000,210.000 C 357.000,213.500 357.000,213.500 357.000,217.000" stroke-width="3.891" stroke="black" fill="none" stroke-linecap="round"></path><path d="M 357.000,217.000 C 355.971,220.426 357.000,220.000 357.000,223.000" stroke-width="4.074" stroke="black" fill="none" stroke-linecap="round"></path><path d="M 357.000,223.000 C 358.591,225.795 357.971,225.426 361.000,227.000" stroke-width="4.131" stroke="black" fill="none" stroke-linecap="round"></path><path d="M 361.000,227.000 C 364.409,228.777 363.591,228.295 367.000,228.000" stroke-width="4.573" stroke="black" fill="none" stroke-linecap="round"></path><path d="M 423.000,96.000 C 418.930,100.176 420.000,100.500 417.000,105.000" stroke-width="4.317" stroke="black" fill="none" stroke-linecap="round"></path><path d="M 417.000,105.000 C 417.284,108.019 415.930,107.676 417.000,111.000" stroke-width="4.204" stroke="black" fill="none" stroke-linecap="round"></path><path d="M 417.000,111.000 C 416.133,118.520 416.284,118.519 415.000,126.000" stroke-width="3.190" stroke="black" fill="none" stroke-linecap="round"></path><path d="M 415.000,126.000 C 413.221,134.962 413.633,135.020 412.000,144.000" stroke-width="2.901" stroke="black" fill="none" stroke-linecap="round"></path><path d="M 412.000,144.000 C 411.655,153.621 410.721,153.462 410.000,163.000" stroke-width="2.778" stroke="black" fill="none" stroke-linecap="round"></path><path d="M 410.000,163.000 C 408.064,170.518 408.655,170.621 406.000,178.000" stroke-width="2.890" stroke="black" fill="none" stroke-linecap="round"></path><path d="M 406.000,178.000 C 404.217,185.071 404.064,185.018 402.000,192.000" stroke-width="2.986" stroke="black" fill="none" stroke-linecap="round"></path><path d="M 402.000,192.000 C 399.558,197.389 400.217,197.571 398.000,203.000" stroke-width="3.270" stroke="black" fill="none" stroke-linecap="round"></path><path d="M 398.000,203.000 C 395.865,208.581 397.058,206.389 397.000,210.000" stroke-width="3.732" stroke="black" fill="none" stroke-linecap="round"></path><path d="M 450.000,146.000 C 444.214,144.697 444.500,146.000 439.000,146.000" stroke-width="4.887" stroke="black" fill="none" stroke-linecap="round"></path><path d="M 439.000,146.000 C 432.640,149.344 432.214,147.697 426.000,152.000" stroke-width="3.365" stroke="black" fill="none" stroke-linecap="round"></path><path d="M 426.000,152.000 C 417.617,155.389 417.640,155.344 409.000,158.000" stroke-width="2.894" stroke="black" fill="none" stroke-linecap="round"></path><path d="M 409.000,158.000 C 401.041,160.184 401.117,160.389 393.000,162.000" stroke-width="2.806" stroke="black" fill="none" stroke-linecap="round"></path><path d="M 393.000,162.000 C 385.565,164.159 385.541,163.684 378.000,165.000" stroke-width="2.966" stroke="black" fill="none" stroke-linecap="round"></path><path d="M 378.000,165.000 C 371.981,164.701 372.065,165.659 366.000,165.000" stroke-width="3.136" stroke="black" fill="none" stroke-linecap="round"></path><path d="M 366.000,165.000 C 361.897,165.101 361.981,165.201 358.000,166.000" stroke-width="3.582" stroke="black" fill="none" stroke-linecap="round"></path><path d="M 459.000,95.000 C 455.868,101.841 457.000,102.000 455.000,109.000" stroke-width="4.505" stroke="black" fill="none" stroke-linecap="round"></path><path d="M 455.000,109.000 C 455.919,118.583 453.868,118.341 455.000,128.000" stroke-width="3.029" stroke="black" fill="none" stroke-linecap="round"></path><path d="M 455.000,128.000 C 454.421,139.474 453.919,139.083 451.000,150.000" stroke-width="2.645" stroke="black" fill="none" stroke-linecap="round"></path><path d="M 451.000,150.000 C 446.614,159.059 447.921,159.474 442.000,168.000" stroke-width="2.536" stroke="black" fill="none" stroke-linecap="round"></path><path d="M 442.000,168.000 C 438.535,174.519 438.614,174.559 435.000,181.000" stroke-width="2.850" stroke="black" fill="none" stroke-linecap="round"></path><path d="M 435.000,181.000 C 431.580,185.261 432.535,185.519 430.000,190.000" stroke-width="3.228" stroke="black" fill="none" stroke-linecap="round"></path><path d="M 430.000,190.000 C 428.000,195.000 429.080,192.761 430.000,196.000" stroke-width="3.787" stroke="black" fill="none" stroke-linecap="round"></path><path d="M 430.000,196.000 C 436.863,198.233 434.000,198.000 442.000,196.000" stroke-width="4.293" stroke="black" fill="none" stroke-linecap="round"></path><path d="M 442.000,196.000 C 447.500,191.000 448.363,193.233 453.000,186.000" stroke-width="3.299" stroke="black" fill="none" stroke-linecap="round"></path><path d="M 453.000,186.000 C 458.376,180.857 458.500,181.000 464.000,176.000" stroke-width="3.021" stroke="black" fill="none" stroke-linecap="round"></path><path d="M 464.000,176.000 C 469.093,170.839 469.376,171.357 475.000,167.000" stroke-width="3.051" stroke="black" fill="none" stroke-linecap="round"></path><path d="M 475.000,167.000 C 479.311,164.302 479.093,164.339 484.000,163.000" stroke-width="3.438" stroke="black" fill="none" stroke-linecap="round"></path><path d="M 484.000,163.000 C 488.584,161.706 488.311,161.802 493.000,162.000" stroke-width="3.544" stroke="black" fill="none" stroke-linecap="round"></path><path d="M 493.000,162.000 C 497.675,161.792 496.084,162.206 499.000,164.000" stroke-width="4.293" stroke="black" fill="none" stroke-linecap="round"></path><path d="M 499.000,164.000 C 500.427,168.432 500.675,166.792 499.000,172.000" stroke-width="3.954" stroke="black" fill="none" stroke-linecap="round"></path><path d="M 499.000,172.000 C 495.000,178.000 496.427,178.432 491.000,184.000" stroke-width="3.269" stroke="black" fill="none" stroke-linecap="round"></path><path d="M 491.000,184.000 C 486.537,189.743 487.000,190.000 483.000,196.000" stroke-width="3.045" stroke="black" fill="none" stroke-linecap="round"></path><path d="M 483.000,196.000 C 479.443,201.228 480.037,201.243 478.000,207.000" stroke-width="3.211" stroke="black" fill="none" stroke-linecap="round"></path><path d="M 478.000,207.000 C 477.283,213.492 476.443,213.228 477.000,220.000" stroke-width="3.192" stroke="black" fill="none" stroke-linecap="round"></path><path d="M 477.000,220.000 C 476.707,225.021 476.783,224.992 477.000,230.000" stroke-width="3.429" stroke="black" fill="none" stroke-linecap="round"></path><path d="M 216.000,236.000 C 216.103,241.069 216.500,241.000 217.000,246.000" stroke-width="5.105" stroke="black" fill="none" stroke-linecap="round"></path><path d="M 217.000,246.000 C 218.630,251.971 218.103,252.069 220.000,258.000" stroke-width="3.579" stroke="black" fill="none" stroke-linecap="round"></path><path d="M 220.000,258.000 C 221.060,262.989 221.130,262.971 222.000,268.000" stroke-width="3.535" stroke="black" fill="none" stroke-linecap="round"></path><path d="M 222.000,268.000 C 221.250,272.250 222.560,270.989 223.000,274.000" stroke-width="3.939" stroke="black" fill="none" stroke-linecap="round"></path><path d="M 223.000,274.000 C 226.552,276.224 224.750,275.750 229.000,275.000" stroke-width="4.512" stroke="black" fill="none" stroke-linecap="round"></path><path d="M 229.000,275.000 C 233.220,271.200 233.552,272.724 237.000,267.000" stroke-width="3.585" stroke="black" fill="none" stroke-linecap="round"></path><path d="M 237.000,267.000 C 241.876,260.892 242.220,261.200 247.000,255.000" stroke-width="3.101" stroke="black" fill="none" stroke-linecap="round"></path><path d="M 247.000,255.000 C 251.628,249.104 251.876,249.392 257.000,244.000" stroke-width="2.969" stroke="black" fill="none" stroke-linecap="round"></path><path d="M 257.000,244.000 C 261.645,239.347 261.628,239.604 267.000,236.000" stroke-width="3.076" stroke="black" fill="none" stroke-linecap="round"></path><path d="M 267.000,236.000 C 271.140,232.838 269.645,234.347 273.000,234.000" stroke-width="3.688" stroke="black" fill="none" stroke-linecap="round"></path><path d="M 273.000,234.000 C 275.000,237.437 275.140,235.338 275.000,241.000" stroke-width="4.302" stroke="black" fill="none" stroke-linecap="round"></path><path d="M 275.000,241.000 C 274.241,247.546 275.000,247.437 273.000,254.000" stroke-width="3.443" stroke="black" fill="none" stroke-linecap="round"></path><path d="M 273.000,254.000 C 270.857,260.427 271.741,260.546 270.000,267.000" stroke-width="3.171" stroke="black" fill="none" stroke-linecap="round"></path><path d="M 270.000,267.000 C 269.689,272.026 269.357,271.927 270.000,277.000" stroke-width="3.369" stroke="black" fill="none" stroke-linecap="round"></path><path d="M 270.000,277.000 C 269.409,280.878 270.189,280.026 271.000,283.000" stroke-width="3.834" stroke="black" fill="none" stroke-linecap="round"></path><path d="M 271.000,283.000 C 273.385,284.598 272.409,284.878 276.000,285.000" stroke-width="4.089" stroke="black" fill="none" stroke-linecap="round"></path><path d="M 276.000,285.000 C 280.719,286.737 279.885,285.598 284.000,285.000" stroke-width="3.846" stroke="black" fill="none" stroke-linecap="round"></path><path d="M 284.000,285.000 C 288.849,280.806 289.219,282.237 293.000,276.000" stroke-width="3.317" stroke="black" fill="none" stroke-linecap="round"></path><path d="M 293.000,276.000 C 298.403,269.775 298.349,269.806 303.000,263.000" stroke-width="2.986" stroke="black" fill="none" stroke-linecap="round"></path><path d="M 303.000,263.000 C 306.820,254.993 307.903,255.775 312.000,248.000" stroke-width="2.833" stroke="black" fill="none" stroke-linecap="round"></path><path d="M 312.000,248.000 C 317.251,241.749 316.820,241.493 323.000,236.000" stroke-width="2.802" stroke="black" fill="none" stroke-linecap="round"></path><path d="M 323.000,236.000 C 328.092,230.431 328.251,230.749 334.000,226.000" stroke-width="2.938" stroke="black" fill="none" stroke-linecap="round"></path><path d="M 345.000,262.000 C 353.494,262.696 353.500,262.500 362.000,263.000" stroke-width="4.506" stroke="black" fill="none" stroke-linecap="round"></path><path d="M 362.000,263.000 C 367.599,263.737 367.494,263.196 373.000,263.000" stroke-width="3.683" stroke="black" fill="none" stroke-linecap="round"></path><path d="M 373.000,263.000 C 378.939,262.397 378.599,262.237 384.000,260.000" stroke-width="3.395" stroke="black" fill="none" stroke-linecap="round"></path><path d="M 384.000,260.000 C 388.358,257.382 388.439,257.897 392.000,254.000" stroke-width="3.496" stroke="black" fill="none" stroke-linecap="round"></path><path d="M 392.000,254.000 C 395.194,250.647 395.358,250.882 398.000,247.000" stroke-width="3.547" stroke="black" fill="none" stroke-linecap="round"></path><path d="M 398.000,247.000 C 400.402,244.196 400.194,244.147 402.000,241.000" stroke-width="3.863" stroke="black" fill="none" stroke-linecap="round"></path><path d="M 402.000,241.000 C 405.204,237.207 403.402,238.196 404.000,235.000" stroke-width="3.979" stroke="black" fill="none" stroke-linecap="round"></path><path d="M 404.000,235.000 C 400.446,230.741 402.204,231.707 396.000,230.000" stroke-width="4.248" stroke="black" fill="none" stroke-linecap="round"></path><path d="M 396.000,230.000 C 387.341,228.409 388.446,228.741 380.000,231.000" stroke-width="3.269" stroke="black" fill="none" stroke-linecap="round"></path><path d="M 380.000,231.000 C 370.768,236.154 370.341,234.409 362.000,242.000" stroke-width="2.630" stroke="black" fill="none" stroke-linecap="round"></path><path d="M 362.000,242.000 C 353.811,246.781 354.268,247.154 347.000,253.000" stroke-width="2.724" stroke="black" fill="none" stroke-linecap="round"></path><path d="M 347.000,253.000 C 342.042,257.525 342.311,257.281 339.000,263.000" stroke-width="3.046" stroke="black" fill="none" stroke-linecap="round"></path><path d="M 339.000,263.000 C 337.288,266.972 337.042,266.525 337.000,271.000" stroke-width="3.483" stroke="black" fill="none" stroke-linecap="round"></path><path d="M 337.000,271.000 C 335.833,275.667 336.788,273.972 338.000,277.000" stroke-width="3.920" stroke="black" fill="none" stroke-linecap="round"></path><path d="M 338.000,277.000 C 343.953,278.568 342.333,279.667 350.000,279.000" stroke-width="3.383" stroke="black" fill="none" stroke-linecap="round"></path><path d="M 350.000,279.000 C 358.063,279.722 357.953,279.568 366.000,279.000" stroke-width="3.028" stroke="black" fill="none" stroke-linecap="round"></path><path d="M 366.000,279.000 C 374.469,277.293 374.563,278.222 383.000,276.000" stroke-width="2.858" stroke="black" fill="none" stroke-linecap="round"></path><path d="M 383.000,276.000 C 390.970,274.518 390.969,274.793 399.000,274.000" stroke-width="2.878" stroke="black" fill="none" stroke-linecap="round"></path><path d="M 399.000,274.000 C 406.581,273.233 406.470,273.518 414.000,274.000" stroke-width="2.896" stroke="black" fill="none" stroke-linecap="round"></path><path d="M 414.000,274.000 C 421.190,274.957 421.081,274.733 428.000,277.000" stroke-width="3.004" stroke="black" fill="none" stroke-linecap="round"></path><path d="M 428.000,277.000 C 430.853,278.951 431.190,277.957 434.000,280.000" stroke-width="3.694" stroke="black" fill="none" stroke-linecap="round"></path><path d="M 495.000,237.000 C 491.107,231.403 490.500,233.000 486.000,229.000" stroke-width="3.831" stroke="black" fill="none" stroke-linecap="round"></path><path d="M 486.000,229.000 C 482.000,229.000 482.607,227.403 478.000,229.000" stroke-width="3.875" stroke="black" fill="none" stroke-linecap="round"></path><path d="M 478.000,229.000 C 473.237,227.885 473.500,229.000 469.000,229.000" stroke-width="3.678" stroke="black" fill="none" stroke-linecap="round"></path><path d="M 469.000,229.000 C 463.951,231.407 463.737,230.385 459.000,234.000" stroke-width="3.474" stroke="black" fill="none" stroke-linecap="round"></path><path d="M 459.000,234.000 C 453.140,236.483 453.451,236.907 448.000,240.000" stroke-width="3.306" stroke="black" fill="none" stroke-linecap="round"></path><path d="M 448.000,240.000 C 443.412,243.019 443.640,242.983 440.000,247.000" stroke-width="3.413" stroke="black" fill="none" stroke-linecap="round"></path><path d="M 440.000,247.000 C 435.770,250.544 437.412,250.019 436.000,254.000" stroke-width="3.685" stroke="black" fill="none" stroke-linecap="round"></path><path d="M 436.000,254.000 C 437.124,260.154 436.270,258.044 441.000,262.000" stroke-width="4.142" stroke="black" fill="none" stroke-linecap="round"></path><path d="M 441.000,262.000 C 448.969,263.498 447.624,265.154 457.000,264.000" stroke-width="3.103" stroke="black" fill="none" stroke-linecap="round"></path><path d="M 457.000,264.000 C 465.000,264.000 464.969,264.498 473.000,264.000" stroke-width="2.956" stroke="black" fill="none" stroke-linecap="round"></path><path d="M 473.000,264.000 C 480.015,263.709 480.000,264.000 487.000,264.000" stroke-width="2.923" stroke="black" fill="none" stroke-linecap="round"></path><path d="M 487.000,264.000 C 493.093,263.047 492.015,264.209 497.000,265.000" stroke-width="3.276" stroke="black" fill="none" stroke-linecap="round"></path><path d="M 497.000,265.000 C 500.224,268.163 499.093,266.047 499.000,270.000" stroke-width="4.232" stroke="black" fill="none" stroke-linecap="round"></path><path d="M 499.000,270.000 C 494.077,273.615 496.224,274.163 489.000,277.000" stroke-width="3.445" stroke="black" fill="none" stroke-linecap="round"></path><path d="M 489.000,277.000 C 482.257,281.968 482.077,281.615 475.000,286.000" stroke-width="3.000" stroke="black" fill="none" stroke-linecap="round"></path><path d="M 475.000,286.000 C 468.729,289.671 468.757,289.468 462.000,292.000" stroke-width="3.092" stroke="black" fill="none" stroke-linecap="round"></path><path d="M 462.000,292.000 C 455.569,294.104 455.729,294.171 449.000,295.000" stroke-width="3.133" stroke="black" fill="none" stroke-linecap="round"></path><path d="M 449.000,295.000 C 442.240,296.960 444.569,295.604 440.000,295.000" stroke-width="3.446" stroke="black" fill="none" stroke-linecap="round"></path><path d="M 440.000,295.000 C 439.267,290.723 438.240,293.460 441.000,288.000" stroke-width="4.358" stroke="black" fill="none" stroke-linecap="round"></path><path d="M 576.000,148.000 C 575.937,153.568 575.500,153.500 575.000,159.000" stroke-width="4.858" stroke="black" fill="none" stroke-linecap="round"></path><path d="M 575.000,159.000 C 573.778,168.237 573.437,168.068 571.000,177.000" stroke-width="3.114" stroke="black" fill="none" stroke-linecap="round"></path><path d="M 571.000,177.000 C 568.276,189.539 567.278,188.737 562.000,200.000" stroke-width="2.422" stroke="black" fill="none" stroke-linecap="round"></path><path d="M 562.000,200.000 C 553.203,211.173 554.776,212.039 544.000,222.000" stroke-width="2.191" stroke="black" fill="none" stroke-linecap="round"></path><path d="M 544.000,222.000 C 535.242,230.430 536.203,231.173 528.000,240.000" stroke-width="2.229" stroke="black" fill="none" stroke-linecap="round"></path><path d="M 528.000,240.000 C 520.868,248.977 521.242,248.930 516.000,259.000" stroke-width="2.413" stroke="black" fill="none" stroke-linecap="round"></path><path d="M 516.000,259.000 C 513.100,266.901 512.368,266.477 511.000,275.000" stroke-width="2.637" stroke="black" fill="none" stroke-linecap="round"></path><path d="M 590.000,199.000 C 603.731,189.807 597.000,194.000 604.000,189.000" stroke-width="4.394" stroke="black" fill="none" stroke-linecap="round"></path><path d="M 604.000,189.000 C 597.564,192.624 604.231,188.307 591.000,196.000" stroke-width="4.053" stroke="black" fill="none" stroke-linecap="round"></path><path d="M 591.000,196.000 C 580.050,201.603 580.064,201.624 569.000,207.000" stroke-width="2.566" stroke="black" fill="none" stroke-linecap="round"></path><path d="M 569.000,207.000 C 558.505,212.010 558.550,212.103 548.000,217.000" stroke-width="2.429" stroke="black" fill="none" stroke-linecap="round"></path><path d="M 548.000,217.000 C 538.779,222.261 538.505,221.510 529.000,226.000" stroke-width="2.489" stroke="black" fill="none" stroke-linecap="round"></path><path d="M 529.000,226.000 C 521.588,228.482 521.779,228.761 514.000,230.000" stroke-width="2.788" stroke="black" fill="none" stroke-linecap="round"></path><path d="M 514.000,230.000 C 508.994,230.445 509.088,230.982 504.000,231.000" stroke-width="3.224" stroke="black" fill="none" stroke-linecap="round"></path></svg>