<svg xmlns="http://www.w3.org/2000/svg" xmlns:xlink="http://www.w3.org/1999/xlink" viewBox="0 0 724 340" width="724" height="340"><path d="M 151.000,150.000 C 146.938,145.469 146.500,146.500 142.000,143.000" stroke-width="5.049" stroke="black" fill="none" stroke-linecap="round"></path><path d="M 142.000,143.000 C 138.336,143.026 138.938,141.469 135.000,142.000" stroke-width="4.816" stroke="black" fill="none" stroke-linecap="round"></path><path d="M 135.000,142.000 C 132.051,140.387 131.836,141.026 129.000,139.000" stroke-width="4.240" stroke="black" fill="none" stroke-linecap="round"></path><path d="M 129.000,139.000 C 126.529,137.920 126.551,137.887 124.000,137.000" stroke-width="4.262" stroke="black" fill="none" stroke-linecap="round"></path><path d="M 124.000,137.000 C 121.022,135.930 121.029,135.920 118.000,135.000" stroke-width="4.270" stroke="black" fill="none" stroke-linecap="round"></path><path d="M 118.000,135.000 C 111.268,134.070 114.522,133.930 111.000,133.000" stroke-width="3.979" stroke="black" fill="none" stroke-linecap="round"></path><path d="M 111.000,133.000 C 114.143,132.319 110.768,132.070 117.000,131.000" stroke-width="4.861" stroke="black" fill="none" stroke-linecap="round"></path><path d="M 117.000,131.000 C 120.487,128.976 120.643,129.319 124.000,127.000" stroke-width="4.018" stroke="black" fill="none" stroke-linecap="round"></path><path d="M 124.000,127.000 C 128.588,124.647 128.487,124.476 133.000,122.000" stroke-width="3.700" stroke="black" fill="none" stroke-linecap="round"></path><path d="M 133.000,122.000 C 138.500,118.500 138.588,118.647 144.000,115.000" stroke-width="3.258" stroke="black" fill="none" stroke-linecap="round"></path><path d="M 144.000,115.000 C 149.540,111.561 149.500,111.500 155.000,108.000" stroke-width="3.312" stroke="black" fill="none" stroke-linecap="round"></path><path d="M 155.000,108.000 C 161.000,104.000 161.040,104.061 167.000,100.000" stroke-width="3.177" stroke="black" fill="none" stroke-linecap="round"></path><path d="M 167.000,100.000 C 172.888,95.820 173.000,96.000 179.000,92.000" stroke-width="3.082" stroke="black" fill="none" stroke-linecap="round"></path><path d="M 179.000,92.000 C 184.953,88.418 184.888,88.320 191.000,85.000" stroke-width="3.091" stroke="black" fill="none" stroke-linecap="round"></path><path d="M 191.000,85.000 C 196.402,81.799 196.453,81.918 202.000,79.000" stroke-width="3.193" stroke="black" fill="none" stroke-linecap="round"></path><path d="M 202.000,79.000 C 205.406,77.198 205.402,77.299 209.000,76.000" stroke-width="3.648" stroke="black" fill="none" stroke-linecap="round"></path><path d="M 209.000,76.000 C 214.000,74.162 211.406,75.198 214.000,75.000" stroke-width="4.516" stroke="black" fill="none" stroke-linecap="round"></path><path d="M 214.000,75.000 C 211.312,77.332 214.000,76.162 209.000,80.000" stroke-width="4.644" stroke="black" fill="none" stroke-linecap="round"></path><path d="M 209.000,80.000 C 204.946,84.958 204.812,84.832 201.000,90.000" stroke-width="3.464" stroke="black" fill="none" stroke-linecap="round"></path><path d="M 201.000,90.000 C 196.147,96.618 195.946,96.458 191.000,103.000" stroke-width="3.020" stroke="black" fill="none" stroke-linecap="round"></path><path d="M 191.000,103.000 C 183.524,112.020 183.647,112.118 176.000,121.000" stroke-width="2.463" stroke="black" fill="none" stroke-linecap="round"></path><path d="M 176.000,121.000 C 167.976,130.480 168.024,130.520 160.000,140.000" stroke-width="2.392" stroke="black" fill="none" stroke-linecap="round"></path><path d="M 160.000,140.000 C 152.748,149.219 152.476,148.980 145.000,158.000" stroke-width="2.314" stroke="black" fill="none" stroke-linecap="round"></path><path d="M 145.000,158.000 C 137.750,166.250 137.748,166.219 130.000,174.000" stroke-width="2.412" stroke="black" fill="none" stroke-linecap="round"></path><path d="M 130.000,174.000 C 122.637,181.153 122.750,181.250 115.000,188.000" stroke-width="2.448" stroke="black" fill="none" stroke-linecap="round"></path><path d="M 115.000,188.000 C 108.082,194.098 108.137,194.153 101.000,200.000" stroke-width="2.671" stroke="black" fill="none" stroke-linecap="round"></path><path d="M 101.000,200.000 C 93.121,206.655 93.082,206.598 85.000,213.000" stroke-width="2.518" stroke="black" fill="none" stroke-linecap="round"></path><path d="M 85.000,213.000 C 77.152,219.215 77.121,219.155 69.000,225.000" stroke-width="2.619" stroke="black" fill="none" stroke-linecap="round"></path><path d="M 69.000,225.000 C 61.590,230.142 61.652,230.215 54.000,235.000" stroke-width="2.801" stroke="black" fill="none" stroke-linecap="round"></path><path d="M 54.000,235.000 C 49.026,238.044 49.090,238.142 44.000,241.000" stroke-width="3.103" stroke="black" fill="none" stroke-linecap="round"></path><path d="M 44.000,241.000 C 40.675,243.469 40.526,243.044 37.000,245.000" stroke-width="3.523" stroke="black" fill="none" stroke-linecap="round"></path><path d="M 37.000,245.000 C 34.500,246.000 34.675,245.969 32.000,246.000" stroke-width="4.084" stroke="black" fill="none" stroke-linecap="round"></path><path d="M 32.000,246.000 C 28.054,246.686 29.500,246.000 27.000,245.000" stroke-width="4.749" stroke="black" fill="none" stroke-linecap="round"></path><path d="M 27.000,245.000 C 25.878,241.141 25.554,242.686 27.000,238.000" stroke-width="4.186" stroke="black" fill="none" stroke-linecap="round"></path><path d="M 27.000,238.000 C 29.083,234.125 28.378,234.141 32.000,231.000" stroke-width="3.860" stroke="black" fill="none" stroke-linecap="round"></path><path d="M 32.000,231.000 C 36.444,226.935 36.083,226.625 41.000,223.000" stroke-width="3.445" stroke="black" fill="none" stroke-linecap="round"></path><path d="M 41.000,223.000 C 47.309,217.257 47.444,217.435 54.000,212.000" stroke-width="2.834" stroke="black" fill="none" stroke-linecap="round"></path><path d="M 54.000,212.000 C 61.134,205.916 61.309,206.257 69.000,201.000" stroke-width="2.729" stroke="black" fill="none" stroke-linecap="round"></path><path d="M 69.000,201.000 C 77.606,196.691 77.134,195.916 86.000,192.000" stroke-width="2.604" stroke="black" fill="none" stroke-linecap="round"></path><path d="M 86.000,192.000 C 94.294,186.609 94.606,187.191 103.000,182.000" stroke-width="2.660" stroke="black" fill="none" stroke-linecap="round"></path><path d="M 103.000,182.000 C 111.408,177.791 111.294,177.609 120.000,174.000" stroke-width="2.824" stroke="black" fill="none" stroke-linecap="round"></path><path d="M 120.000,174.000 C 128.388,170.199 128.408,170.291 137.000,167.000" stroke-width="2.676" stroke="black" fill="none" stroke-linecap="round"></path><path d="M 137.000,167.000 C 146.148,164.385 145.888,163.699 155.000,161.000" stroke-width="2.664" stroke="black" fill="none" stroke-linecap="round"></path><path d="M 155.000,161.000 C 163.203,157.899 163.148,157.885 171.000,154.000" stroke-width="2.740" stroke="black" fill="none" stroke-linecap="round"></path><path d="M 171.000,154.000 C 177.020,150.534 177.203,150.899 183.000,147.000" stroke-width="2.980" stroke="black" fill="none" stroke-linecap="round"></path><path d="M 183.000,147.000 C 188.057,144.090 188.020,144.034 193.000,141.000" stroke-width="3.271" stroke="black" fill="none" stroke-linecap="round"></path><path d="M 193.000,141.000 C 199.474,137.948 196.057,139.090 199.000,137.000" stroke-width="3.718" stroke="black" fill="none" stroke-linecap="round"></path><path d="M 199.000,137.000 C 194.857,136.188 198.474,135.948 191.000,137.000" stroke-width="4.649" stroke="black" fill="none" stroke-linecap="round"></path><path d="M 191.000,137.000 C 185.329,138.631 185.357,138.188 180.000,141.000" stroke-width="4.290" stroke="black" fill="none" stroke-linecap="round"></path><path d="M 180.000,141.000 C 176.344,142.771 176.329,142.631 173.000,145.000" stroke-width="3.946" stroke="black" fill="none" stroke-linecap="round"></path><path d="M 173.000,145.000 C 170.365,146.850 170.344,146.771 168.000,149.000" stroke-width="4.043" stroke="black" fill="none" stroke-linecap="round"></path><path d="M 168.000,149.000 C 164.885,151.893 164.865,151.850 162.000,155.000" stroke-width="3.886" stroke="black" fill="none" stroke-linecap="round"></path><path d="M 162.000,155.000 C 158.100,158.708 158.385,158.893 155.000,163.000" stroke-width="3.578" stroke="black" fill="none" stroke-linecap="round"></path><path d="M 155.000,163.000 C 151.042,167.639 151.600,167.708 149.000,173.000" stroke-width="3.561" stroke="black" fill="none" stroke-linecap="round"></path><path d="M 149.000,173.000 C 145.750,179.625 147.042,178.139 147.000,184.000" stroke-width="3.547" stroke="black" fill="none" stroke-linecap="round"></path><path d="M 147.000,184.000 C 149.821,186.546 147.750,186.625 153.000,187.000" stroke-width="4.253" stroke="black" fill="none" stroke-linecap="round"></path><path d="M 153.000,187.000 C 157.550,187.725 156.821,187.546 161.000,186.000" stroke-width="3.937" stroke="black" fill="none" stroke-linecap="round"></path><path d="M 161.000,186.000 C 164.787,182.222 165.550,183.725 169.000,179.000" stroke-width="3.748" stroke="black" fill="none" stroke-linecap="round"></path><path d="M 169.000,179.000 C 173.619,176.164 173.287,175.722 178.000,173.000" stroke-width="3.632" stroke="black" fill="none" stroke-linecap="round"></path><path d="M 178.000,173.000 C 182.700,169.727 182.619,169.664 187.000,166.000" stroke-width="3.550" stroke="black" fill="none" stroke-linecap="round"></path><path d="M 187.000,166.000 C 190.000,163.000 190.200,163.227 193.000,160.000" stroke-width="3.689" stroke="black" fill="none" stroke-linecap="round"></path><path d="M 193.000,160.000 C 197.965,156.772 195.000,158.000 197.000,156.000" stroke-width="4.416" stroke="black" fill="none" stroke-linecap="round"></path><path d="M 197.000,156.000 C 192.500,156.000 195.465,154.772 188.000,156.000" stroke-width="4.552" stroke="black" fill="none" stroke-linecap="round"></path><path d="M 188.000,156.000 C 184.789,155.239 185.000,156.000 182.000,156.000" stroke-width="4.354" stroke="black" fill="none" stroke-linecap="round"></path><path d="M 182.000,156.000 C 178.450,156.722 179.289,156.739 177.000,159.000" stroke-width="4.671" stroke="black" fill="none" stroke-linecap="round"></path><path d="M 177.000,159.000 C 175.863,162.972 174.950,162.222 175.000,167.000" stroke-width="4.587" stroke="black" fill="none" stroke-linecap="round"></path><path d="M 175.000,167.000 C 172.303,171.680 174.363,169.972 174.000,173.000" stroke-width="4.742" stroke="black" fill="none" stroke-linecap="round"></path><path d="M 174.000,173.000 C 179.056,174.275 176.803,175.180 184.000,174.000" stroke-width="4.433" stroke="black" fill="none" stroke-linecap="round"></path><path d="M 184.000,174.000 C 188.180,173.486 188.056,173.775 192.000,172.000" stroke-width="3.961" stroke="black" fill="none" stroke-linecap="round"></path><path d="M 192.000,172.000 C 197.153,169.770 197.180,169.986 202.000,167.000" stroke-width="3.483" stroke="black" fill="none" stroke-linecap="round"></path><path d="M 202.000,167.000 C 207.652,163.720 207.653,163.770 213.000,160.000" stroke-width="3.268" stroke="black" fill="none" stroke-linecap="round"></path><path d="M 213.000,160.000 C 219.146,155.683 219.152,155.720 225.000,151.000" stroke-width="3.067" stroke="black" fill="none" stroke-linecap="round"></path><path d="M 225.000,151.000 C 231.624,145.640 231.646,145.683 238.000,140.000" stroke-width="2.941" stroke="black" fill="none" stroke-linecap="round"></path><path d="M 238.000,140.000 C 244.879,134.366 244.624,134.140 251.000,128.000" stroke-width="2.747" stroke="black" fill="none" stroke-linecap="round"></path><path d="M 251.000,128.000 C 256.876,120.890 257.379,121.366 263.000,114.000" stroke-width="2.652" stroke="black" fill="none" stroke-linecap="round"></path><path d="M 263.000,114.000 C 268.750,107.250 268.876,107.390 275.000,101.000" stroke-width="2.876" stroke="black" fill="none" stroke-linecap="round"></path><path d="M 275.000,101.000 C 281.000,95.500 280.750,95.250 287.000,90.000" stroke-width="2.874" stroke="black" fill="none" stroke-linecap="round"></path><path d="M 287.000,90.000 C 293.114,84.619 293.000,84.500 299.000,79.000" stroke-width="2.874" stroke="black" fill="none" stroke-linecap="round"></path><path d="M 299.000,79.000 C 304.544,74.446 304.114,74.119 309.000,69.000" stroke-width="3.009" stroke="black" fill="none" stroke-linecap="round"></path><path d="M 309.000,69.000 C 313.207,63.126 313.544,63.446 317.000,57.000" stroke-width="3.139" stroke="black" fill="none" stroke-linecap="round"></path><path d="M 317.000,57.000 C 319.701,52.598 319.707,52.626 322.000,48.000" stroke-width="3.385" stroke="black" fill="none" stroke-linecap="round"></path><path d="M 322.000,48.000 C 326.450,43.278 323.701,44.598 325.000,41.000" stroke-width="3.720" stroke="black" fill="none" stroke-linecap="round"></path><path d="M 325.000,41.000 C 319.687,36.297 322.950,37.778 315.000,37.000" stroke-width="4.322" stroke="black" fill="none" stroke-linecap="round"></path><path d="M 315.000,37.000 C 309.907,40.373 309.687,37.797 305.000,44.000" stroke-width="3.531" stroke="black" fill="none" stroke-linecap="round"></path><path d="M 305.000,44.000 C 298.027,48.462 298.407,48.873 292.000,54.000" stroke-width="3.035" stroke="black" fill="none" stroke-linecap="round"></path><path d="M 292.000,54.000 C 279.691,65.710 279.527,65.462 268.000,78.000" stroke-width="2.052" stroke="black" fill="none" stroke-linecap="round"></path><path d="M 268.000,78.000 C 260.278,86.313 260.191,86.210 253.000,95.000" stroke-width="2.290" stroke="black" fill="none" stroke-linecap="round"></path><path d="M 253.000,95.000 C 244.844,104.879 244.778,104.813 237.000,115.000" stroke-width="2.312" stroke="black" fill="none" stroke-linecap="round"></path><path d="M 237.000,115.000 C 229.500,125.000 229.344,124.879 222.000,135.000" stroke-width="2.229" stroke="black" fill="none" stroke-linecap="round"></path><path d="M 222.000,135.000 C 216.138,143.108 216.000,143.000 210.000,151.000" stroke-width="2.466" stroke="black" fill="none" stroke-linecap="round"></path><path d="M 210.000,151.000 C 205.361,156.393 205.638,156.608 201.000,162.000" stroke-width="2.856" stroke="black" fill="none" stroke-linecap="round"></path><path d="M 201.000,162.000 C 195.719,166.191 198.361,165.393 196.000,169.000" stroke-width="3.419" stroke="black" fill="none" stroke-linecap="round"></path><path d="M 196.000,169.000 C 198.912,172.325 196.219,171.191 202.000,172.000" stroke-width="4.423" stroke="black" fill="none" stroke-linecap="round"></path><path d="M 202.000,172.000 C 208.743,170.013 208.412,171.325 215.000,167.000" stroke-width="3.585" stroke="black" fill="none" stroke-linecap="round"></path><path d="M 215.000,167.000 C 222.111,163.183 222.243,163.513 229.000,159.000" stroke-width="2.998" stroke="black" fill="none" stroke-linecap="round"></path><path d="M 229.000,159.000 C 236.023,154.535 236.111,154.683 243.000,150.000" stroke-width="2.825" stroke="black" fill="none" stroke-linecap="round"></path><path d="M 243.000,150.000 C 255.856,141.262 256.023,141.535 269.000,133.000" stroke-width="2.411" stroke="black" fill="none" stroke-linecap="round"></path><path d="M 269.000,133.000 C 273.531,130.554 273.356,130.262 278.000,128.000" stroke-width="3.162" stroke="black" fill="none" stroke-linecap="round"></path><path d="M 278.000,128.000 C 283.730,123.978 280.531,126.554 283.000,125.000" stroke-width="4.234" stroke="black" fill="none" stroke-linecap="round"></path><path d="M 283.000,125.000 C 277.853,129.862 281.230,127.478 273.000,135.000" stroke-width="3.530" stroke="black" fill="none" stroke-linecap="round"></path><path d="M 273.000,135.000 C 269.128,138.735 269.353,138.862 266.000,143.000" stroke-width="3.481" stroke="black" fill="none" stroke-linecap="round"></path><path d="M 266.000,143.000 C 263.531,146.325 263.628,146.235 262.000,150.000" stroke-width="3.709" stroke="black" fill="none" stroke-linecap="round"></path><path d="M 262.000,150.000 C 260.027,153.298 261.031,152.325 261.000,155.000" stroke-width="4.082" stroke="black" fill="none" stroke-linecap="round"></path><path d="M 261.000,155.000 C 263.626,157.698 262.027,156.798 266.000,157.000" stroke-width="4.732" stroke="black" fill="none" stroke-linecap="round"></path><path d="M 266.000,157.000 C 272.230,153.847 272.126,155.198 278.000,150.000" stroke-width="3.454" stroke="black" fill="none" stroke-linecap="round"></path><path d="M 278.000,150.000 C 283.935,145.411 284.230,145.847 290.000,141.000" stroke-width="3.114" stroke="black" fill="none" stroke-linecap="round"></path><path d="M 290.000,141.000 C 294.881,137.312 294.935,137.411 300.000,134.000" stroke-width="3.325" stroke="black" fill="none" stroke-linecap="round"></path><path d="M 300.000,134.000 C 305.839,129.710 303.381,131.812 307.000,130.000" stroke-width="3.654" stroke="black" fill="none" stroke-linecap="round"></path><path d="M 307.000,130.000 C 305.743,132.675 307.839,130.210 304.000,135.000" stroke-width="4.586" stroke="black" fill="none" stroke-linecap="round"></path><path d="M 304.000,135.000 C 301.124,138.615 301.243,138.675 298.000,142.000" stroke-width="3.886" stroke="black" fill="none" stroke-linecap="round"></path><path d="M 298.000,142.000 C 294.667,144.740 295.124,145.115 292.000,148.000" stroke-width="3.842" stroke="black" fill="none" stroke-linecap="round"></path><path d="M 292.000,148.000 C 287.629,152.486 290.167,150.240 289.000,153.000" stroke-width="4.479" stroke="black" fill="none" stroke-linecap="round"></path><path d="M 289.000,153.000 C 294.913,152.908 291.629,153.986 300.000,151.000" stroke-width="4.561" stroke="black" fill="none" stroke-linecap="round"></path><path d="M 300.000,151.000 C 302.314,148.709 302.913,149.908 305.000,147.000" stroke-width="4.218" stroke="black" fill="none" stroke-linecap="round"></path><path d="M 305.000,147.000 C 311.330,142.679 307.814,145.209 311.000,144.000" stroke-width="4.609" stroke="black" fill="none" stroke-linecap="round"></path><path d="M 311.000,144.000 C 307.172,149.636 310.330,146.679 303.000,155.000" stroke-width="4.332" stroke="black" fill="none" stroke-linecap="round"></path><path d="M 303.000,155.000 C 299.605,158.238 300.172,158.636 297.000,162.000" stroke-width="3.829" stroke="black" fill="none" stroke-linecap="round"></path><path d="M 297.000,162.000 C 293.445,165.781 295.105,164.738 294.000,168.000" stroke-width="3.970" stroke="black" fill="none" stroke-linecap="round"></path><path d="M 294.000,168.000 C 296.397,169.800 294.445,169.781 299.000,170.000" stroke-width="4.680" stroke="black" fill="none" stroke-linecap="round"></path><path d="M 299.000,170.000 C 303.410,170.632 302.897,170.300 307.000,169.000" stroke-width="4.143" stroke="black" fill="none" stroke-linecap="round"></path><path d="M 307.000,169.000 C 314.482,165.121 314.410,165.632 321.000,160.000" stroke-width="3.065" stroke="black" fill="none" stroke-linecap="round"></path><path d="M 321.000,160.000 C 328.031,153.533 328.482,154.121 335.000,147.000" stroke-width="2.761" stroke="black" fill="none" stroke-linecap="round"></path><path d="M 335.000,147.000 C 344.378,138.868 344.031,138.533 353.000,130.000" stroke-width="2.583" stroke="black" fill="none" stroke-linecap="round"></path><path d="M 353.000,130.000 C 361.769,120.728 361.878,120.868 370.000,111.000" stroke-width="2.278" stroke="black" fill="none" stroke-linecap="round"></path><path d="M 370.000,111.000 C 377.778,100.813 378.269,101.228 386.000,91.000" stroke-width="2.254" stroke="black" fill="none" stroke-linecap="round"></path><path d="M 386.000,91.000 C 393.555,82.548 393.278,82.313 401.000,74.000" stroke-width="2.361" stroke="black" fill="none" stroke-linecap="round"></path><path d="M 401.000,74.000 C 407.099,67.082 407.055,67.048 413.000,60.000" stroke-width="2.588" stroke="black" fill="none" stroke-linecap="round"></path><path d="M 413.000,60.000 C 417.391,55.250 417.099,55.082 421.000,50.000" stroke-width="2.993" stroke="black" fill="none" stroke-linecap="round"></path><path d="M 421.000,50.000 C 425.582,44.527 422.891,47.250 424.000,44.000" stroke-width="3.612" stroke="black" fill="none" stroke-linecap="round"></path><path d="M 424.000,44.000 C 417.049,43.755 421.082,43.027 412.000,47.000" stroke-width="4.304" stroke="black" fill="none" stroke-linecap="round"></path><path d="M 412.000,47.000 C 403.611,54.126 403.049,52.755 396.000,62.000" stroke-width="2.960" stroke="black" fill="none" stroke-linecap="round"></path><path d="M 396.000,62.000 C 389.256,69.301 389.111,69.126 383.000,77.000" stroke-width="2.863" stroke="black" fill="none" stroke-linecap="round"></path><path d="M 383.000,77.000 C 376.043,85.187 376.256,85.301 370.000,94.000" stroke-width="2.759" stroke="black" fill="none" stroke-linecap="round"></path><path d="M 370.000,94.000 C 364.467,102.980 364.043,102.687 359.000,112.000" stroke-width="2.517" stroke="black" fill="none" stroke-linecap="round"></path><path d="M 359.000,112.000 C 354.245,119.360 354.467,119.480 350.000,127.000" stroke-width="2.691" stroke="black" fill="none" stroke-linecap="round"></path><path d="M 350.000,127.000 C 347.000,133.000 346.745,132.860 344.000,139.000" stroke-width="2.939" stroke="black" fill="none" stroke-linecap="round"></path><path d="M 344.000,139.000 C 341.736,144.137 341.500,144.000 339.000,149.000" stroke-width="3.336" stroke="black" fill="none" stroke-linecap="round"></path><path d="M 339.000,149.000 C 336.717,151.851 337.236,152.137 335.000,155.000" stroke-width="3.743" stroke="black" fill="none" stroke-linecap="round"></path><path d="M 335.000,155.000 C 331.919,159.135 333.717,157.351 333.000,160.000" stroke-width="4.458" stroke="black" fill="none" stroke-linecap="round"></path><path d="M 333.000,160.000 C 336.504,159.524 334.419,161.135 340.000,159.000" stroke-width="4.595" stroke="black" fill="none" stroke-linecap="round"></path><path d="M 340.000,159.000 C 346.486,157.899 346.504,158.024 353.000,157.000" stroke-width="3.496" stroke="black" fill="none" stroke-linecap="round"></path><path d="M 353.000,157.000 C 361.012,156.089 360.986,155.899 369.000,155.000" stroke-width="3.270" stroke="black" fill="none" stroke-linecap="round"></path><path d="M 369.000,155.000 C 383.024,153.150 383.012,153.089 397.000,151.000" stroke-width="2.363" stroke="black" fill="none" stroke-linecap="round"></path><path d="M 397.000,151.000 C 402.487,149.919 402.524,150.150 408.000,149.000" stroke-width="2.955" stroke="black" fill="none" stroke-linecap="round"></path><path d="M 408.000,149.000 C 414.593,146.371 411.487,148.419 415.000,148.000" stroke-width="3.601" stroke="black" fill="none" stroke-linecap="round"></path><path d="M 415.000,148.000 C 413.863,153.781 415.593,150.371 410.000,157.000" stroke-width="4.358" stroke="black" fill="none" stroke-linecap="round"></path><path d="M 410.000,157.000 C 397.961,165.825 398.863,166.281 385.000,173.000" stroke-width="2.436" stroke="black" fill="none" stroke-linecap="round"></path><path d="M 385.000,173.000 C 369.710,180.966 369.961,181.325 354.000,188.000" stroke-width="2.113" stroke="black" fill="none" stroke-linecap="round"></path><path d="M 354.000,188.000 C 336.283,196.264 336.210,195.966 318.000,203.000" stroke-width="1.812" stroke="black" fill="none" stroke-linecap="round"></path><path d="M 318.000,203.000 C 298.464,211.373 298.283,210.264 278.000,216.000" stroke-width="1.673" stroke="black" fill="none" stroke-linecap="round"></path><path d="M 278.000,216.000 C 240.648,223.932 240.964,224.373 203.000,229.000" stroke-width="1.286" stroke="black" fill="none" stroke-linecap="round"></path><path d="M 203.000,229.000 C 188.364,231.084 188.648,230.932 174.000,230.000" stroke-width="1.754" stroke="black" fill="none" stroke-linecap="round"></path><path d="M 174.000,230.000 C 161.227,229.381 161.864,229.084 150.000,225.000" stroke-width="2.057" stroke="black" fill="none" stroke-linecap="round"></path><path d="M 150.000,225.000 C 140.142,220.877 140.727,221.381 133.000,214.000" stroke-width="2.338" stroke="black" fill="none" stroke-linecap="round"></path><path d="M 133.000,214.000 C 125.765,207.294 126.642,207.877 123.000,199.000" stroke-width="2.650" stroke="black" fill="none" stroke-linecap="round"></path><path d="M 123.000,199.000 C 120.321,188.414 119.765,189.294 121.000,178.000" stroke-width="2.489" stroke="black" fill="none" stroke-linecap="round"></path><path d="M 121.000,178.000 C 120.624,164.309 121.821,165.414 126.000,153.000" stroke-width="2.317" stroke="black" fill="none" stroke-linecap="round"></path><path d="M 126.000,153.000 C 135.608,132.750 135.124,133.809 150.000,117.000" stroke-width="2.169" stroke="black" fill="none" stroke-linecap="round"></path><path d="M 150.000,117.000 C 164.043,105.304 162.108,103.750 179.000,95.000" stroke-width="2.090" stroke="black" fill="none" stroke-linecap="round"></path><path d="M 179.000,95.000 C 186.508,89.361 186.543,89.804 195.000,86.000" stroke-width="2.485" stroke="black" fill="none" stroke-linecap="round"></path><path d="M 195.000,86.000 C 210.695,79.650 210.508,79.861 227.000,76.000" stroke-width="2.038" stroke="black" fill="none" stroke-linecap="round"></path><path d="M 227.000,76.000 C 244.385,72.142 244.195,72.150 262.000,71.000" stroke-width="2.034" stroke="black" fill="none" stroke-linecap="round"></path><path d="M 262.000,71.000 C 298.496,69.676 298.385,68.642 335.000,69.000" stroke-width="1.191" stroke="black" fill="none" stroke-linecap="round"></path><path d="M 335.000,69.000 C 352.666,67.375 352.496,68.676 370.000,69.000" stroke-width="1.542" stroke="black" fill="none" stroke-linecap="round"></path><path d="M 370.000,69.000 C 384.786,71.020 384.666,70.375 399.000,75.000" stroke-width="1.949" stroke="black" fill="none" stroke-linecap="round"></path><path d="M 399.000,75.000 C 410.033,78.016 409.786,78.020 420.000,83.000" stroke-width="2.258" stroke="black" fill="none" stroke-linecap="round"></path><path d="M 420.000,83.000 C 426.953,86.020 426.033,86.016 431.000,91.000" stroke-width="2.802" stroke="black" fill="none" stroke-linecap="round"></path><path d="M 431.000,91.000 C 434.658,95.684 433.453,94.020 433.000,99.000" stroke-width="3.426" stroke="black" fill="none" stroke-linecap="round"></path><path d="M 433.000,99.000 C 427.850,107.826 429.158,106.684 420.000,113.000" stroke-width="2.773" stroke="black" fill="none" stroke-linecap="round"></path><path d="M 420.000,113.000 C 405.114,122.162 405.850,122.326 389.000,128.000" stroke-width="2.063" stroke="black" fill="none" stroke-linecap="round"></path><path d="M 389.000,128.000 C 370.244,134.251 370.614,134.662 351.000,138.000" stroke-width="1.794" stroke="black" fill="none" stroke-linecap="round"></path><path d="M 351.000,138.000 C 331.575,141.475 331.744,141.751 312.000,143.000" stroke-width="1.864" stroke="black" fill="none" stroke-linecap="round"></path><path d="M 312.000,143.000 C 293.003,143.743 293.075,144.475 274.000,144.000" stroke-width="1.774" stroke="black" fill="none" stroke-linecap="round"></path><path d="M 274.000,144.000 C 255.953,144.855 256.003,144.243 238.000,144.000" stroke-width="1.795" stroke="black" fill="none" stroke-linecap="round"></path><path d="M 238.000,144.000 C 224.169,143.822 224.453,143.355 211.000,141.000" stroke-width="1.989" stroke="black" fill="none" stroke-linecap="round"></path><path d="M 211.000,141.000 C 202.087,139.704 203.169,139.322 196.000,135.000" stroke-width="2.541" stroke="black" fill="none" stroke-linecap="round"></path><path d="M 196.000,135.000 C 191.525,129.892 191.087,131.204 189.000,124.000" stroke-width="2.959" stroke="black" fill="none" stroke-linecap="round"></path><path d="M 414.000,162.000 C 422.475,160.237 422.500,161.000 431.000,160.000" stroke-width="4.482" stroke="black" fill="none" stroke-linecap="round"></path><path d="M 431.000,160.000 C 440.493,160.756 440.475,159.737 450.000,161.000" stroke-width="3.097" stroke="black" fill="none" stroke-linecap="round"></path><path d="M 450.000,161.000 C 460.060,161.765 459.993,161.256 470.000,161.000" stroke-width="2.653" stroke="black" fill="none" stroke-linecap="round"></path><path d="M 470.000,161.000 C 479.933,160.850 479.560,160.265 489.000,158.000" stroke-width="2.643" stroke="black" fill="none" stroke-linecap="round"></path><path d="M 489.000,158.000 C 497.061,154.117 497.433,155.350 505.000,150.000" stroke-width="2.711" stroke="black" fill="none" stroke-linecap="round"></path><path d="M 505.000,150.000 C 510.351,146.658 510.561,147.117 516.000,144.000" stroke-width="3.060" stroke="black" fill="none" stroke-linecap="round"></path><path d="M 516.000,144.000 C 522.703,141.297 518.851,142.658 522.000,142.000" stroke-width="3.720" stroke="black" fill="none" stroke-linecap="round"></path><path d="M 522.000,142.000 C 516.918,144.870 520.703,143.297 512.000,148.000" stroke-width="4.173" stroke="black" fill="none" stroke-linecap="round"></path><path d="M 512.000,148.000 C 506.196,152.338 505.918,151.870 500.000,156.000" stroke-width="3.312" stroke="black" fill="none" stroke-linecap="round"></path><path d="M 500.000,156.000 C 489.519,160.037 495.196,158.838 490.000,161.000" stroke-width="3.369" stroke="black" fill="none" stroke-linecap="round"></path><path d="M 490.000,161.000 C 496.140,161.286 490.519,162.037 502.000,160.000" stroke-width="4.117" stroke="black" fill="none" stroke-linecap="round"></path><path d="M 502.000,160.000 C 516.504,156.014 516.640,156.786 531.000,152.000" stroke-width="2.601" stroke="black" fill="none" stroke-linecap="round"></path><path d="M 531.000,152.000 C 548.762,145.891 549.004,147.014 567.000,142.000" stroke-width="1.885" stroke="black" fill="none" stroke-linecap="round"></path><path d="M 567.000,142.000 C 586.426,138.381 586.262,137.891 606.000,136.000" stroke-width="1.747" stroke="black" fill="none" stroke-linecap="round"></path><path d="M 606.000,136.000 C 623.477,134.168 623.426,133.881 641.000,133.000" stroke-width="1.983" stroke="black" fill="none" stroke-linecap="round"></path><path d="M 641.000,133.000 C 668.490,131.146 668.477,131.168 696.000,130.000" stroke-width="1.420" stroke="black" fill="none" stroke-linecap="round"></path><path d="M 696.000,130.000 C 704.500,130.000 704.490,129.646 713.000,130.000" stroke-width="2.137" stroke="black" fill="none" stroke-linecap="round"></path><path d="M 713.000,130.000 C 719.000,130.000 719.000,130.000 725.000,130.000" stroke-width="2.912" stroke="black" fill="none" stroke-linecap="round"></path><path d="M 725.000,130.000 C 733.000,129.275 729.000,130.000 733.000,130.000" stroke-width="3.452" stroke="black" fill="none" stroke-linecap="round"></path><path d="M 733.000,130.000 C 729.198,132.475 733.000,130.775 725.000,133.000" stroke-width="4.283" stroke="black" fill="none" stroke-linecap="round"></path><path d="M 725.000,133.000 C 713.003,133.579 713.198,134.475 701.000,134.000" stroke-width="2.842" stroke="black" fill="none" stroke-linecap="round"></path><path d="M 701.000,134.000 C 684.501,134.522 684.503,134.579 668.000,135.000" stroke-width="2.120" stroke="black" fill="none" stroke-linecap="round"></path><path d="M 668.000,135.000 C 649.963,134.877 650.001,135.522 632.000,136.000" stroke-width="1.831" stroke="black" fill="none" stroke-linecap="round"></path><path d="M 632.000,136.000 C 610.020,138.248 609.963,137.377 588.000,140.000" stroke-width="1.635" stroke="black" fill="none" stroke-linecap="round"></path><path d="M 588.000,140.000 C 566.002,141.533 566.020,141.748 544.000,143.000" stroke-width="1.632" stroke="black" fill="none" stroke-linecap="round"></path><path d="M 544.000,143.000 C 521.009,144.662 521.002,144.533 498.000,146.000" stroke-width="1.595" stroke="black" fill="none" stroke-linecap="round"></path><path d="M 498.000,146.000 C 478.009,147.250 478.009,147.162 458.000,148.000" stroke-width="1.602" stroke="black" fill="none" stroke-linecap="round"></path><path d="M 458.000,148.000 C 437.905,147.386 438.009,148.750 418.000,149.000" stroke-width="1.822" stroke="black" fill="none" stroke-linecap="round"></path><path d="M 418.000,149.000 C 400.936,151.130 400.905,150.386 384.000,154.000" stroke-width="1.850" stroke="black" fill="none" stroke-linecap="round"></path><path d="M 384.000,154.000 C 371.368,155.983 371.436,156.130 359.000,159.000" stroke-width="2.062" stroke="black" fill="none" stroke-linecap="round"></path><path d="M 359.000,159.000 C 350.820,161.034 350.868,160.983 343.000,164.000" stroke-width="2.547" stroke="black" fill="none" stroke-linecap="round"></path></svg>