<svg xmlns="http://www.w3.org/2000/svg" xmlns:xlink="http://www.w3.org/1999/xlink" viewBox="0 0 724 340" width="724" height="340"><path d="M 213.000,184.000 C 206.598,181.199 206.500,181.500 200.000,179.000" stroke-width="4.544" stroke="black" fill="none" stroke-linecap="round"></path><path d="M 200.000,179.000 C 194.324,177.961 194.598,177.199 189.000,176.000" stroke-width="4.259" stroke="black" fill="none" stroke-linecap="round"></path><path d="M 189.000,176.000 C 184.944,174.104 184.824,174.461 181.000,172.000" stroke-width="3.781" stroke="black" fill="none" stroke-linecap="round"></path><path d="M 181.000,172.000 C 177.500,170.000 177.444,170.104 174.000,168.000" stroke-width="3.753" stroke="black" fill="none" stroke-linecap="round"></path><path d="M 174.000,168.000 C 170.597,165.799 170.500,166.000 167.000,164.000" stroke-width="3.796" stroke="black" fill="none" stroke-linecap="round"></path><path d="M 167.000,164.000 C 164.500,163.000 164.597,162.799 162.000,162.000" stroke-width="4.076" stroke="black" fill="none" stroke-linecap="round"></path><path d="M 162.000,162.000 C 156.335,161.330 159.500,161.000 157.000,160.000" stroke-width="4.580" stroke="black" fill="none" stroke-linecap="round"></path><path d="M 157.000,160.000 C 161.845,157.421 158.335,157.330 166.000,154.000" stroke-width="5.002" stroke="black" fill="none" stroke-linecap="round"></path><path d="M 166.000,154.000 C 169.800,149.780 170.345,150.421 174.000,146.000" stroke-width="3.742" stroke="black" fill="none" stroke-linecap="round"></path><path d="M 174.000,146.000 C 180.020,141.023 179.800,140.780 186.000,136.000" stroke-width="3.135" stroke="black" fill="none" stroke-linecap="round"></path><path d="M 186.000,136.000 C 192.309,130.257 192.520,130.523 199.000,125.000" stroke-width="2.960" stroke="black" fill="none" stroke-linecap="round"></path><path d="M 199.000,125.000 C 206.500,119.500 206.309,119.257 214.000,114.000" stroke-width="2.763" stroke="black" fill="none" stroke-linecap="round"></path><path d="M 214.000,114.000 C 221.467,108.455 221.500,108.500 229.000,103.000" stroke-width="2.648" stroke="black" fill="none" stroke-linecap="round"></path><path d="M 229.000,103.000 C 235.889,97.835 235.967,97.955 243.000,93.000" stroke-width="2.691" stroke="black" fill="none" stroke-linecap="round"></path><path d="M 243.000,93.000 C 248.439,89.399 248.389,89.335 254.000,86.000" stroke-width="3.067" stroke="black" fill="none" stroke-linecap="round"></path><path d="M 254.000,86.000 C 257.357,83.681 257.439,83.899 261.000,82.000" stroke-width="3.509" stroke="black" fill="none" stroke-linecap="round"></path><path d="M 261.000,82.000 C 265.062,79.170 263.857,80.681 267.000,80.000" stroke-width="4.290" stroke="black" fill="none" stroke-linecap="round"></path><path d="M 267.000,80.000 C 268.409,82.546 268.562,80.670 268.000,85.000" stroke-width="4.747" stroke="black" fill="none" stroke-linecap="round"></path><path d="M 268.000,85.000 C 267.088,92.017 266.909,91.546 264.000,98.000" stroke-width="3.550" stroke="black" fill="none" stroke-linecap="round"></path><path d="M 264.000,98.000 C 258.410,107.300 259.088,107.517 252.000,116.000" stroke-width="2.723" stroke="black" fill="none" stroke-linecap="round"></path><path d="M 252.000,116.000 C 244.174,126.144 244.410,126.300 236.000,136.000" stroke-width="2.485" stroke="black" fill="none" stroke-linecap="round"></path><path d="M 236.000,136.000 C 227.631,147.116 227.174,146.644 218.000,157.000" stroke-width="2.234" stroke="black" fill="none" stroke-linecap="round"></path><path d="M 218.000,157.000 C 208.134,166.153 208.631,166.616 198.000,175.000" stroke-width="2.299" stroke="black" fill="none" stroke-linecap="round"></path><path d="M 198.000,175.000 C 176.366,193.347 176.634,193.653 155.000,212.000" stroke-width="1.596" stroke="black" fill="none" stroke-linecap="round"></path><path d="M 155.000,212.000 C 145.284,221.340 144.866,220.847 135.000,230.000" stroke-width="1.917" stroke="black" fill="none" stroke-linecap="round"></path><path d="M 135.000,230.000 C 126.087,237.116 126.284,237.340 117.000,244.000" stroke-width="2.233" stroke="black" fill="none" stroke-linecap="round"></path><path d="M 117.000,244.000 C 109.805,249.983 109.587,249.616 102.000,255.000" stroke-width="2.532" stroke="black" fill="none" stroke-linecap="round"></path><path d="M 102.000,255.000 C 95.694,258.932 95.805,258.983 89.000,262.000" stroke-width="2.795" stroke="black" fill="none" stroke-linecap="round"></path><path d="M 89.000,262.000 C 83.638,264.590 83.694,264.432 78.000,266.000" stroke-width="3.242" stroke="black" fill="none" stroke-linecap="round"></path><path d="M 78.000,266.000 C 73.478,266.360 73.638,267.090 69.000,267.000" stroke-width="3.479" stroke="black" fill="none" stroke-linecap="round"></path><path d="M 69.000,267.000 C 64.720,269.441 66.478,267.360 64.000,268.000" stroke-width="3.995" stroke="black" fill="none" stroke-linecap="round"></path><path d="M 64.000,268.000 C 62.854,262.648 62.720,265.441 65.000,259.000" stroke-width="4.503" stroke="black" fill="none" stroke-linecap="round"></path><path d="M 65.000,259.000 C 69.647,255.155 67.854,254.148 74.000,251.000" stroke-width="3.903" stroke="black" fill="none" stroke-linecap="round"></path><path d="M 74.000,251.000 C 79.964,243.863 80.647,244.655 87.000,238.000" stroke-width="2.977" stroke="black" fill="none" stroke-linecap="round"></path><path d="M 87.000,238.000 C 95.566,232.091 94.964,231.363 104.000,226.000" stroke-width="2.649" stroke="black" fill="none" stroke-linecap="round"></path><path d="M 104.000,226.000 C 113.022,218.236 113.566,219.091 123.000,212.000" stroke-width="2.436" stroke="black" fill="none" stroke-linecap="round"></path><path d="M 123.000,212.000 C 133.264,205.993 133.022,205.736 144.000,201.000" stroke-width="2.375" stroke="black" fill="none" stroke-linecap="round"></path><path d="M 144.000,201.000 C 154.814,195.977 154.764,195.993 166.000,192.000" stroke-width="2.354" stroke="black" fill="none" stroke-linecap="round"></path><path d="M 166.000,192.000 C 177.546,188.644 177.314,187.977 189.000,185.000" stroke-width="2.392" stroke="black" fill="none" stroke-linecap="round"></path><path d="M 189.000,185.000 C 199.621,181.824 199.546,181.644 210.000,178.000" stroke-width="2.369" stroke="black" fill="none" stroke-linecap="round"></path><path d="M 210.000,178.000 C 218.523,174.555 218.621,174.824 227.000,171.000" stroke-width="2.538" stroke="black" fill="none" stroke-linecap="round"></path><path d="M 227.000,171.000 C 233.986,167.967 234.023,168.055 241.000,165.000" stroke-width="2.824" stroke="black" fill="none" stroke-linecap="round"></path><path d="M 241.000,165.000 C 247.132,162.761 246.986,162.467 253.000,160.000" stroke-width="3.119" stroke="black" fill="none" stroke-linecap="round"></path><path d="M 253.000,160.000 C 258.775,157.969 255.632,158.761 258.000,157.000" stroke-width="3.798" stroke="black" fill="none" stroke-linecap="round"></path><path d="M 258.000,157.000 C 253.553,155.217 256.775,155.469 249.000,155.000" stroke-width="4.466" stroke="black" fill="none" stroke-linecap="round"></path><path d="M 249.000,155.000 C 242.930,155.051 243.053,154.717 237.000,156.000" stroke-width="3.574" stroke="black" fill="none" stroke-linecap="round"></path><path d="M 237.000,156.000 C 230.124,156.551 230.430,157.051 224.000,159.000" stroke-width="3.268" stroke="black" fill="none" stroke-linecap="round"></path><path d="M 224.000,159.000 C 217.724,162.097 217.624,161.551 212.000,166.000" stroke-width="3.083" stroke="black" fill="none" stroke-linecap="round"></path><path d="M 212.000,166.000 C 206.794,169.770 206.724,169.597 202.000,174.000" stroke-width="3.170" stroke="black" fill="none" stroke-linecap="round"></path><path d="M 202.000,174.000 C 197.980,177.125 198.294,177.270 195.000,181.000" stroke-width="3.430" stroke="black" fill="none" stroke-linecap="round"></path><path d="M 195.000,181.000 C 191.307,184.459 192.980,183.625 192.000,187.000" stroke-width="3.787" stroke="black" fill="none" stroke-linecap="round"></path><path d="M 192.000,187.000 C 194.492,190.904 192.807,189.959 198.000,192.000" stroke-width="4.482" stroke="black" fill="none" stroke-linecap="round"></path><path d="M 198.000,192.000 C 203.043,192.472 202.492,193.404 208.000,192.000" stroke-width="3.780" stroke="black" fill="none" stroke-linecap="round"></path><path d="M 208.000,192.000 C 213.652,191.528 213.543,191.472 219.000,190.000" stroke-width="3.439" stroke="black" fill="none" stroke-linecap="round"></path><path d="M 219.000,190.000 C 223.981,187.952 224.152,188.528 229.000,186.000" stroke-width="3.442" stroke="black" fill="none" stroke-linecap="round"></path><path d="M 229.000,186.000 C 232.911,184.168 232.981,184.452 237.000,183.000" stroke-width="3.648" stroke="black" fill="none" stroke-linecap="round"></path><path d="M 237.000,183.000 C 242.482,181.223 239.911,182.168 243.000,182.000" stroke-width="3.937" stroke="black" fill="none" stroke-linecap="round"></path><path d="M 243.000,182.000 C 240.537,183.695 243.482,182.723 239.000,186.000" stroke-width="4.815" stroke="black" fill="none" stroke-linecap="round"></path><path d="M 239.000,186.000 C 237.704,188.417 237.537,188.195 237.000,191.000" stroke-width="4.421" stroke="black" fill="none" stroke-linecap="round"></path><path d="M 237.000,191.000 C 234.495,195.495 236.204,193.917 236.000,197.000" stroke-width="4.661" stroke="black" fill="none" stroke-linecap="round"></path><path d="M 236.000,197.000 C 239.987,197.713 237.995,198.995 244.000,198.000" stroke-width="4.580" stroke="black" fill="none" stroke-linecap="round"></path><path d="M 244.000,198.000 C 247.079,198.487 246.987,198.213 250.000,198.000" stroke-width="4.276" stroke="black" fill="none" stroke-linecap="round"></path><path d="M 250.000,198.000 C 253.196,197.402 253.079,197.487 256.000,196.000" stroke-width="4.196" stroke="black" fill="none" stroke-linecap="round"></path><path d="M 256.000,196.000 C 259.244,194.297 259.196,194.402 262.000,192.000" stroke-width="3.968" stroke="black" fill="none" stroke-linecap="round"></path><path d="M 262.000,192.000 C 265.150,189.135 265.244,189.297 268.000,186.000" stroke-width="3.759" stroke="black" fill="none" stroke-linecap="round"></path><path d="M 268.000,186.000 C 270.168,183.617 270.150,183.635 272.000,181.000" stroke-width="3.982" stroke="black" fill="none" stroke-linecap="round"></path><path d="M 272.000,181.000 C 273.094,178.145 273.668,178.617 275.000,176.000" stroke-width="4.124" stroke="black" fill="none" stroke-linecap="round"></path><path d="M 275.000,176.000 C 277.179,173.410 277.094,173.645 280.000,172.000" stroke-width="4.856" stroke="black" fill="none" stroke-linecap="round"></path><path d="M 280.000,172.000 C 284.702,170.970 284.179,169.910 289.000,169.000" stroke-width="3.911" stroke="black" fill="none" stroke-linecap="round"></path><path d="M 289.000,169.000 C 296.917,165.648 296.702,165.470 304.000,161.000" stroke-width="3.000" stroke="black" fill="none" stroke-linecap="round"></path><path d="M 304.000,161.000 C 312.646,154.683 312.917,155.148 321.000,148.000" stroke-width="2.624" stroke="black" fill="none" stroke-linecap="round"></path><path d="M 321.000,148.000 C 330.382,140.919 330.146,140.683 339.000,133.000" stroke-width="2.495" stroke="black" fill="none" stroke-linecap="round"></path><path d="M 339.000,133.000 C 348.884,123.855 348.882,123.919 358.000,114.000" stroke-width="2.266" stroke="black" fill="none" stroke-linecap="round"></path><path d="M 358.000,114.000 C 367.174,103.644 367.384,103.855 376.000,93.000" stroke-width="2.177" stroke="black" fill="none" stroke-linecap="round"></path><path d="M 376.000,93.000 C 384.224,83.169 384.174,83.144 392.000,73.000" stroke-width="2.224" stroke="black" fill="none" stroke-linecap="round"></path><path d="M 392.000,73.000 C 397.088,66.061 397.224,66.169 402.000,59.000" stroke-width="2.643" stroke="black" fill="none" stroke-linecap="round"></path><path d="M 402.000,59.000 C 409.980,50.000 405.088,54.561 408.000,50.000" stroke-width="3.153" stroke="black" fill="none" stroke-linecap="round"></path><path d="M 408.000,50.000 C 398.856,53.545 404.480,50.000 391.000,59.000" stroke-width="3.496" stroke="black" fill="none" stroke-linecap="round"></path><path d="M 391.000,59.000 C 381.360,66.840 380.856,66.045 372.000,75.000" stroke-width="2.550" stroke="black" fill="none" stroke-linecap="round"></path><path d="M 372.000,75.000 C 361.500,83.500 361.860,83.840 352.000,93.000" stroke-width="2.278" stroke="black" fill="none" stroke-linecap="round"></path><path d="M 352.000,93.000 C 342.483,102.578 342.500,102.500 334.000,113.000" stroke-width="2.207" stroke="black" fill="none" stroke-linecap="round"></path><path d="M 334.000,113.000 C 325.163,124.266 324.983,124.078 317.000,136.000" stroke-width="2.129" stroke="black" fill="none" stroke-linecap="round"></path><path d="M 317.000,136.000 C 309.409,147.442 309.163,147.266 302.000,159.000" stroke-width="2.088" stroke="black" fill="none" stroke-linecap="round"></path><path d="M 302.000,159.000 C 296.191,166.619 296.909,166.942 292.000,175.000" stroke-width="2.462" stroke="black" fill="none" stroke-linecap="round"></path><path d="M 292.000,175.000 C 290.000,181.000 289.191,180.619 288.000,187.000" stroke-width="2.901" stroke="black" fill="none" stroke-linecap="round"></path><path d="M 288.000,187.000 C 285.065,192.533 287.000,190.000 286.000,193.000" stroke-width="3.648" stroke="black" fill="none" stroke-linecap="round"></path><path d="M 286.000,193.000 C 289.139,191.188 287.065,193.533 292.000,189.000" stroke-width="4.501" stroke="black" fill="none" stroke-linecap="round"></path><path d="M 292.000,189.000 C 297.451,184.439 297.639,184.688 303.000,180.000" stroke-width="3.315" stroke="black" fill="none" stroke-linecap="round"></path><path d="M 303.000,180.000 C 310.123,174.649 309.951,174.439 317.000,169.000" stroke-width="2.896" stroke="black" fill="none" stroke-linecap="round"></path><path d="M 317.000,169.000 C 323.732,162.653 324.123,163.149 331.000,157.000" stroke-width="2.755" stroke="black" fill="none" stroke-linecap="round"></path><path d="M 331.000,157.000 C 337.382,152.316 337.232,152.153 344.000,148.000" stroke-width="2.865" stroke="black" fill="none" stroke-linecap="round"></path><path d="M 344.000,148.000 C 348.869,144.736 348.882,144.816 354.000,142.000" stroke-width="3.179" stroke="black" fill="none" stroke-linecap="round"></path><path d="M 354.000,142.000 C 358.135,138.919 356.369,140.736 359.000,140.000" stroke-width="3.836" stroke="black" fill="none" stroke-linecap="round"></path><path d="M 359.000,140.000 C 359.295,143.762 360.135,141.419 358.000,147.000" stroke-width="4.390" stroke="black" fill="none" stroke-linecap="round"></path><path d="M 358.000,147.000 C 354.406,153.451 355.295,153.762 351.000,160.000" stroke-width="3.251" stroke="black" fill="none" stroke-linecap="round"></path><path d="M 351.000,160.000 C 347.749,165.891 347.906,165.951 345.000,172.000" stroke-width="3.175" stroke="black" fill="none" stroke-linecap="round"></path><path d="M 345.000,172.000 C 340.557,177.595 343.249,175.891 342.000,180.000" stroke-width="3.553" stroke="black" fill="none" stroke-linecap="round"></path><path d="M 342.000,180.000 C 346.894,183.369 343.557,182.595 351.000,182.000" stroke-width="4.121" stroke="black" fill="none" stroke-linecap="round"></path><path d="M 351.000,182.000 C 360.154,176.738 360.394,178.869 369.000,171.000" stroke-width="2.915" stroke="black" fill="none" stroke-linecap="round"></path><path d="M 369.000,171.000 C 378.382,164.320 378.654,164.738 388.000,158.000" stroke-width="2.526" stroke="black" fill="none" stroke-linecap="round"></path><path d="M 388.000,158.000 C 395.711,152.441 395.882,152.820 404.000,148.000" stroke-width="2.622" stroke="black" fill="none" stroke-linecap="round"></path><path d="M 404.000,148.000 C 409.990,145.475 409.711,144.941 416.000,143.000" stroke-width="2.942" stroke="black" fill="none" stroke-linecap="round"></path><path d="M 416.000,143.000 C 421.528,139.679 418.490,141.975 421.000,141.000" stroke-width="3.847" stroke="black" fill="none" stroke-linecap="round"></path><path d="M 421.000,141.000 C 416.280,146.848 419.528,144.679 412.000,153.000" stroke-width="3.886" stroke="black" fill="none" stroke-linecap="round"></path><path d="M 412.000,153.000 C 408.679,158.624 408.280,158.348 405.000,164.000" stroke-width="3.300" stroke="black" fill="none" stroke-linecap="round"></path><path d="M 405.000,164.000 C 401.318,167.695 402.179,168.124 399.000,172.000" stroke-width="3.561" stroke="black" fill="none" stroke-linecap="round"></path><path d="M 399.000,172.000 C 396.416,176.208 397.818,174.195 398.000,177.000" stroke-width="4.065" stroke="black" fill="none" stroke-linecap="round"></path><path d="M 398.000,177.000 C 403.893,178.571 401.416,178.708 409.000,177.000" stroke-width="4.251" stroke="black" fill="none" stroke-linecap="round"></path><path d="M 409.000,177.000 C 416.593,173.166 416.893,174.571 424.000,169.000" stroke-width="3.056" stroke="black" fill="none" stroke-linecap="round"></path><path d="M 424.000,169.000 C 432.439,163.892 432.593,164.166 441.000,159.000" stroke-width="2.725" stroke="black" fill="none" stroke-linecap="round"></path><path d="M 441.000,159.000 C 446.278,155.356 446.439,155.892 452.000,153.000" stroke-width="3.065" stroke="black" fill="none" stroke-linecap="round"></path><path d="M 452.000,153.000 C 457.595,150.583 454.778,151.856 458.000,152.000" stroke-width="3.747" stroke="black" fill="none" stroke-linecap="round"></path><path d="M 458.000,152.000 C 456.686,156.474 458.595,154.083 454.000,160.000" stroke-width="4.263" stroke="black" fill="none" stroke-linecap="round"></path><path d="M 454.000,160.000 C 447.682,166.235 448.686,166.974 442.000,173.000" stroke-width="3.153" stroke="black" fill="none" stroke-linecap="round"></path><path d="M 442.000,173.000 C 437.072,178.735 437.182,178.735 433.000,185.000" stroke-width="3.093" stroke="black" fill="none" stroke-linecap="round"></path><path d="M 433.000,185.000 C 427.051,191.441 430.572,188.735 429.000,193.000" stroke-width="3.485" stroke="black" fill="none" stroke-linecap="round"></path><path d="M 429.000,193.000 C 436.471,194.896 432.051,195.441 443.000,193.000" stroke-width="4.087" stroke="black" fill="none" stroke-linecap="round"></path><path d="M 443.000,193.000 C 451.489,188.479 451.971,190.396 460.000,184.000" stroke-width="2.953" stroke="black" fill="none" stroke-linecap="round"></path><path d="M 460.000,184.000 C 470.448,178.399 470.489,178.479 481.000,173.000" stroke-width="2.436" stroke="black" fill="none" stroke-linecap="round"></path><path d="M 481.000,173.000 C 492.000,167.500 491.948,167.399 503.000,162.000" stroke-width="2.338" stroke="black" fill="none" stroke-linecap="round"></path><path d="M 503.000,162.000 C 523.243,152.437 523.000,152.000 543.000,142.000" stroke-width="1.931" stroke="black" fill="none" stroke-linecap="round"></path><path d="M 543.000,142.000 C 549.822,138.448 549.743,138.437 556.000,134.000" stroke-width="2.461" stroke="black" fill="none" stroke-linecap="round"></path><path d="M 556.000,134.000 C 562.238,129.261 562.322,129.448 568.000,124.000" stroke-width="2.822" stroke="black" fill="none" stroke-linecap="round"></path><path d="M 568.000,124.000 C 573.990,118.921 573.738,118.761 579.000,113.000" stroke-width="2.902" stroke="black" fill="none" stroke-linecap="round"></path><path d="M 579.000,113.000 C 584.683,105.628 584.990,105.921 590.000,98.000" stroke-width="2.685" stroke="black" fill="none" stroke-linecap="round"></path><path d="M 590.000,98.000 C 596.178,89.113 596.183,89.128 602.000,80.000" stroke-width="2.472" stroke="black" fill="none" stroke-linecap="round"></path><path d="M 602.000,80.000 C 607.035,70.677 607.678,71.113 613.000,62.000" stroke-width="2.499" stroke="black" fill="none" stroke-linecap="round"></path><path d="M 613.000,62.000 C 618.513,55.011 618.035,54.677 624.000,48.000" stroke-width="2.611" stroke="black" fill="none" stroke-linecap="round"></path><path d="M 624.000,48.000 C 632.854,40.236 627.513,43.511 631.000,39.000" stroke-width="3.143" stroke="black" fill="none" stroke-linecap="round"></path><path d="M 631.000,39.000 C 622.304,38.666 628.354,37.236 615.000,42.000" stroke-width="3.828" stroke="black" fill="none" stroke-linecap="round"></path><path d="M 615.000,42.000 C 599.579,50.363 599.304,49.166 585.000,60.000" stroke-width="2.179" stroke="black" fill="none" stroke-linecap="round"></path><path d="M 585.000,60.000 C 569.699,69.542 570.079,69.863 556.000,81.000" stroke-width="1.908" stroke="black" fill="none" stroke-linecap="round"></path><path d="M 556.000,81.000 C 542.485,93.006 542.199,92.542 530.000,106.000" stroke-width="1.832" stroke="black" fill="none" stroke-linecap="round"></path><path d="M 530.000,106.000 C 517.275,118.114 517.985,118.506 507.000,132.000" stroke-width="1.844" stroke="black" fill="none" stroke-linecap="round"></path><path d="M 507.000,132.000 C 499.669,143.821 498.775,143.114 493.000,156.000" stroke-width="2.039" stroke="black" fill="none" stroke-linecap="round"></path><path d="M 493.000,156.000 C 487.409,164.626 488.169,164.821 484.000,174.000" stroke-width="2.387" stroke="black" fill="none" stroke-linecap="round"></path><path d="M 484.000,174.000 C 482.624,181.528 481.409,181.126 481.000,189.000" stroke-width="2.709" stroke="black" fill="none" stroke-linecap="round"></path><path d="M 481.000,189.000 C 476.479,196.860 480.124,193.028 479.000,197.000" stroke-width="3.384" stroke="black" fill="none" stroke-linecap="round"></path><path d="M 479.000,197.000 C 489.707,194.879 485.479,197.360 499.000,190.000" stroke-width="3.952" stroke="black" fill="none" stroke-linecap="round"></path><path d="M 499.000,190.000 C 508.599,182.342 509.707,184.379 519.000,176.000" stroke-width="2.638" stroke="black" fill="none" stroke-linecap="round"></path><path d="M 519.000,176.000 C 529.249,169.940 529.099,169.842 540.000,165.000" stroke-width="2.429" stroke="black" fill="none" stroke-linecap="round"></path><path d="M 540.000,165.000 C 547.879,161.610 547.749,161.440 556.000,159.000" stroke-width="2.681" stroke="black" fill="none" stroke-linecap="round"></path><path d="M 556.000,159.000 C 566.409,156.636 561.879,157.110 568.000,156.000" stroke-width="3.059" stroke="black" fill="none" stroke-linecap="round"></path><path d="M 568.000,156.000 C 564.382,155.993 568.909,155.636 561.000,157.000" stroke-width="4.013" stroke="black" fill="none" stroke-linecap="round"></path><path d="M 561.000,157.000 C 541.060,163.689 540.882,162.993 521.000,170.000" stroke-width="1.972" stroke="black" fill="none" stroke-linecap="round"></path><path d="M 521.000,170.000 C 496.733,178.371 496.560,177.689 472.000,185.000" stroke-width="1.481" stroke="black" fill="none" stroke-linecap="round"></path><path d="M 472.000,185.000 C 448.207,191.643 448.233,191.371 424.000,196.000" stroke-width="1.455" stroke="black" fill="none" stroke-linecap="round"></path><path d="M 424.000,196.000 C 398.118,201.047 398.207,200.643 372.000,203.000" stroke-width="1.354" stroke="black" fill="none" stroke-linecap="round"></path><path d="M 372.000,203.000 C 344.502,203.743 344.618,205.047 317.000,204.000" stroke-width="1.336" stroke="black" fill="none" stroke-linecap="round"></path><path d="M 317.000,204.000 C 290.954,205.059 291.002,204.243 265.000,204.000" stroke-width="1.411" stroke="black" fill="none" stroke-linecap="round"></path><path d="M 265.000,204.000 C 241.999,202.012 241.954,203.059 219.000,200.000" stroke-width="1.436" stroke="black" fill="none" stroke-linecap="round"></path><path d="M 219.000,200.000 C 201.846,199.450 201.999,198.512 185.000,197.000" stroke-width="1.715" stroke="black" fill="none" stroke-linecap="round"></path><path d="M 185.000,197.000 C 173.241,196.620 174.346,195.450 164.000,192.000" stroke-width="2.140" stroke="black" fill="none" stroke-linecap="round"></path><path d="M 164.000,192.000 C 155.515,188.012 158.241,189.120 155.000,182.000" stroke-width="2.708" stroke="black" fill="none" stroke-linecap="round"></path><path d="M 155.000,182.000 C 154.300,167.503 154.015,170.512 161.000,157.000" stroke-width="2.298" stroke="black" fill="none" stroke-linecap="round"></path><path d="M 161.000,157.000 C 174.552,138.176 172.800,138.503 192.000,124.000" stroke-width="1.705" stroke="black" fill="none" stroke-linecap="round"></path><path d="M 192.000,124.000 C 215.362,105.944 214.552,105.676 241.000,92.000" stroke-width="1.372" stroke="black" fill="none" stroke-linecap="round"></path><path d="M 241.000,92.000 C 272.559,74.478 272.362,74.944 306.000,62.000" stroke-width="1.153" stroke="black" fill="none" stroke-linecap="round"></path><path d="M 306.000,62.000 C 340.041,49.991 339.559,49.478 375.000,42.000" stroke-width="1.125" stroke="black" fill="none" stroke-linecap="round"></path><path d="M 375.000,42.000 C 410.276,33.572 410.041,33.991 446.000,30.000" stroke-width="1.125" stroke="black" fill="none" stroke-linecap="round"></path><path d="M 446.000,30.000 C 475.510,28.719 475.276,27.072 505.000,29.000" stroke-width="1.199" stroke="black" fill="none" stroke-linecap="round"></path><path d="M 505.000,29.000 C 528.568,27.163 528.010,29.219 551.000,31.000" stroke-width="1.365" stroke="black" fill="none" stroke-linecap="round"></path><path d="M 551.000,31.000 C 567.212,34.602 566.568,33.663 581.000,42.000" stroke-width="1.687" stroke="black" fill="none" stroke-linecap="round"></path><path d="M 581.000,42.000 C 591.175,46.396 587.712,45.602 592.000,53.000" stroke-width="2.363" stroke="black" fill="none" stroke-linecap="round"></path><path d="M 592.000,53.000 C 592.258,66.269 593.175,62.396 585.000,74.000" stroke-width="2.419" stroke="black" fill="none" stroke-linecap="round"></path><path d="M 585.000,74.000 C 566.492,89.615 569.258,90.769 546.000,102.000" stroke-width="1.608" stroke="black" fill="none" stroke-linecap="round"></path><path d="M 546.000,102.000 C 520.709,117.076 520.992,117.115 494.000,129.000" stroke-width="1.304" stroke="black" fill="none" stroke-linecap="round"></path><path d="M 494.000,129.000 C 464.574,142.318 464.709,142.076 434.000,152.000" stroke-width="1.212" stroke="black" fill="none" stroke-linecap="round"></path><path d="M 434.000,152.000 C 404.297,161.049 404.574,161.318 374.000,167.000" stroke-width="1.172" stroke="black" fill="none" stroke-linecap="round"></path><path d="M 374.000,167.000 C 348.095,171.680 348.297,172.049 322.000,174.000" stroke-width="1.308" stroke="black" fill="none" stroke-linecap="round"></path><path d="M 322.000,174.000 C 302.934,175.642 303.095,175.680 284.000,175.000" stroke-width="1.582" stroke="black" fill="none" stroke-linecap="round"></path><path d="M 284.000,175.000 C 272.410,175.485 273.434,174.642 263.000,172.000" stroke-width="2.131" stroke="black" fill="none" stroke-linecap="round"></path><path d="M 263.000,172.000 C 258.817,168.938 258.910,170.485 257.000,165.000" stroke-width="3.005" stroke="black" fill="none" stroke-linecap="round"></path><path d="M 257.000,165.000 C 255.405,161.233 255.817,162.438 257.000,159.000" stroke-width="3.729" stroke="black" fill="none" stroke-linecap="round"></path></svg>