<svg xmlns="http://www.w3.org/2000/svg" xmlns:xlink="http://www.w3.org/1999/xlink" viewBox="0 0 724 340" width="724" height="340"><path d="M 101.000,197.000 C 103.514,196.565 103.500,196.500 106.000,196.000" stroke-width="4.482" stroke="black" fill="none" stroke-linecap="round"></path><path d="M 106.000,196.000 C 114.926,195.140 114.514,194.065 123.000,192.000" stroke-width="3.998" stroke="black" fill="none" stroke-linecap="round"></path><path d="M 123.000,192.000 C 133.437,188.386 132.926,188.140 142.000,182.000" stroke-width="3.002" stroke="black" fill="none" stroke-linecap="round"></path><path d="M 142.000,182.000 C 162.866,165.899 162.937,166.386 182.000,148.000" stroke-width="1.581" stroke="black" fill="none" stroke-linecap="round"></path><path d="M 182.000,148.000 C 193.050,136.045 193.866,136.899 204.000,124.000" stroke-width="1.810" stroke="black" fill="none" stroke-linecap="round"></path><path d="M 204.000,124.000 C 213.142,114.124 213.050,114.045 222.000,104.000" stroke-width="2.100" stroke="black" fill="none" stroke-linecap="round"></path><path d="M 222.000,104.000 C 230.164,93.691 230.642,94.124 239.000,84.000" stroke-width="2.176" stroke="black" fill="none" stroke-linecap="round"></path><path d="M 239.000,84.000 C 246.160,77.151 245.664,76.691 253.000,70.000" stroke-width="2.456" stroke="black" fill="none" stroke-linecap="round"></path><path d="M 253.000,70.000 C 257.057,65.549 257.160,65.651 261.000,61.000" stroke-width="2.939" stroke="black" fill="none" stroke-linecap="round"></path><path d="M 261.000,61.000 C 265.754,54.754 263.557,58.049 266.000,55.000" stroke-width="3.481" stroke="black" fill="none" stroke-linecap="round"></path><path d="M 266.000,55.000 C 263.910,58.452 266.254,55.254 262.000,62.000" stroke-width="4.684" stroke="black" fill="none" stroke-linecap="round"></path><path d="M 262.000,62.000 C 257.889,65.592 260.410,64.952 259.000,68.000" stroke-width="4.678" stroke="black" fill="none" stroke-linecap="round"></path><path d="M 259.000,68.000 C 262.867,72.991 260.889,72.092 268.000,75.000" stroke-width="4.597" stroke="black" fill="none" stroke-linecap="round"></path><path d="M 268.000,75.000 C 274.984,76.123 274.367,77.491 282.000,77.000" stroke-width="3.479" stroke="black" fill="none" stroke-linecap="round"></path><path d="M 282.000,77.000 C 290.970,78.537 290.984,78.123 300.000,79.000" stroke-width="2.845" stroke="black" fill="none" stroke-linecap="round"></path><path d="M 300.000,79.000 C 310.527,79.524 310.470,79.537 321.000,79.000" stroke-width="2.607" stroke="black" fill="none" stroke-linecap="round"></path><path d="M 321.000,79.000 C 330.559,78.388 330.527,78.524 340.000,77.000" stroke-width="2.691" stroke="black" fill="none" stroke-linecap="round"></path><path d="M 340.000,77.000 C 347.589,75.853 347.559,75.888 355.000,74.000" stroke-width="2.818" stroke="black" fill="none" stroke-linecap="round"></path><path d="M 355.000,74.000 C 361.436,71.727 361.589,72.353 368.000,70.000" stroke-width="3.026" stroke="black" fill="none" stroke-linecap="round"></path><path d="M 368.000,70.000 C 374.596,68.801 370.936,69.227 374.000,69.000" stroke-width="3.691" stroke="black" fill="none" stroke-linecap="round"></path><path d="M 374.000,69.000 C 369.503,70.015 373.096,69.301 365.000,71.000" stroke-width="4.435" stroke="black" fill="none" stroke-linecap="round"></path><path d="M 365.000,71.000 C 353.629,74.339 353.503,73.515 342.000,76.000" stroke-width="2.818" stroke="black" fill="none" stroke-linecap="round"></path><path d="M 342.000,76.000 C 325.500,77.500 325.629,78.339 309.000,79.000" stroke-width="2.174" stroke="black" fill="none" stroke-linecap="round"></path><path d="M 309.000,79.000 C 292.435,79.977 292.500,80.500 276.000,82.000" stroke-width="2.034" stroke="black" fill="none" stroke-linecap="round"></path><path d="M 276.000,82.000 C 259.888,83.934 259.935,83.977 244.000,87.000" stroke-width="1.909" stroke="black" fill="none" stroke-linecap="round"></path><path d="M 244.000,87.000 C 231.394,89.620 231.388,89.434 219.000,93.000" stroke-width="2.129" stroke="black" fill="none" stroke-linecap="round"></path><path d="M 219.000,93.000 C 209.337,95.576 209.394,95.620 200.000,99.000" stroke-width="2.568" stroke="black" fill="none" stroke-linecap="round"></path><path d="M 200.000,99.000 C 194.396,101.302 194.337,101.076 189.000,104.000" stroke-width="2.983" stroke="black" fill="none" stroke-linecap="round"></path><path d="M 189.000,104.000 C 184.000,105.500 186.396,105.302 184.000,107.000" stroke-width="3.699" stroke="black" fill="none" stroke-linecap="round"></path><path d="M 184.000,107.000 C 186.333,108.933 184.000,108.500 189.000,110.000" stroke-width="4.621" stroke="black" fill="none" stroke-linecap="round"></path><path d="M 180.000,178.000 C 173.305,173.926 177.000,175.500 174.000,173.000" stroke-width="5.116" stroke="black" fill="none" stroke-linecap="round"></path><path d="M 174.000,173.000 C 178.482,173.819 174.805,171.926 183.000,174.000" stroke-width="4.070" stroke="black" fill="none" stroke-linecap="round"></path><path d="M 183.000,174.000 C 191.155,175.207 190.982,174.319 199.000,174.000" stroke-width="3.022" stroke="black" fill="none" stroke-linecap="round"></path><path d="M 199.000,174.000 C 211.018,172.347 210.655,172.207 222.000,168.000" stroke-width="2.514" stroke="black" fill="none" stroke-linecap="round"></path><path d="M 222.000,168.000 C 235.043,162.378 235.018,162.847 247.000,155.000" stroke-width="2.222" stroke="black" fill="none" stroke-linecap="round"></path><path d="M 247.000,155.000 C 257.897,146.854 258.543,147.878 269.000,139.000" stroke-width="2.123" stroke="black" fill="none" stroke-linecap="round"></path><path d="M 269.000,139.000 C 278.287,132.152 278.397,132.354 288.000,126.000" stroke-width="2.248" stroke="black" fill="none" stroke-linecap="round"></path><path d="M 288.000,126.000 C 296.724,119.146 293.287,122.652 299.000,120.000" stroke-width="2.903" stroke="black" fill="none" stroke-linecap="round"></path><path d="M 299.000,120.000 C 298.790,125.244 300.724,120.646 296.000,129.000" stroke-width="3.824" stroke="black" fill="none" stroke-linecap="round"></path><path d="M 296.000,129.000 C 284.837,142.317 285.790,142.744 273.000,155.000" stroke-width="2.115" stroke="black" fill="none" stroke-linecap="round"></path><path d="M 273.000,155.000 C 263.192,164.215 263.837,164.817 254.000,174.000" stroke-width="2.104" stroke="black" fill="none" stroke-linecap="round"></path><path d="M 254.000,174.000 C 247.938,180.949 247.692,180.715 242.000,188.000" stroke-width="2.487" stroke="black" fill="none" stroke-linecap="round"></path><path d="M 242.000,188.000 C 237.484,191.709 239.938,190.449 238.000,193.000" stroke-width="3.392" stroke="black" fill="none" stroke-linecap="round"></path><path d="M 238.000,193.000 C 241.321,194.103 238.484,194.209 244.000,193.000" stroke-width="4.098" stroke="black" fill="none" stroke-linecap="round"></path><path d="M 244.000,193.000 C 249.325,189.201 249.821,190.603 255.000,186.000" stroke-width="3.344" stroke="black" fill="none" stroke-linecap="round"></path><path d="M 255.000,186.000 C 268.801,178.100 268.825,178.201 283.000,171.000" stroke-width="2.305" stroke="black" fill="none" stroke-linecap="round"></path><path d="M 283.000,171.000 C 295.600,163.896 295.801,164.600 309.000,159.000" stroke-width="2.154" stroke="black" fill="none" stroke-linecap="round"></path><path d="M 309.000,159.000 C 321.856,154.751 321.600,154.396 335.000,152.000" stroke-width="2.170" stroke="black" fill="none" stroke-linecap="round"></path><path d="M 335.000,152.000 C 343.477,150.609 343.356,150.251 352.000,150.000" stroke-width="2.624" stroke="black" fill="none" stroke-linecap="round"></path><path d="M 352.000,150.000 C 358.863,147.794 357.477,149.609 363.000,150.000" stroke-width="3.132" stroke="black" fill="none" stroke-linecap="round"></path><path d="M 363.000,150.000 C 367.255,154.177 366.363,151.794 367.000,158.000" stroke-width="3.938" stroke="black" fill="none" stroke-linecap="round"></path><path d="M 367.000,158.000 C 364.384,161.424 366.755,161.677 362.000,165.000" stroke-width="3.794" stroke="black" fill="none" stroke-linecap="round"></path><path d="M 362.000,165.000 C 357.986,168.377 360.384,167.424 359.000,170.000" stroke-width="4.062" stroke="black" fill="none" stroke-linecap="round"></path><path d="M 359.000,170.000 C 362.802,172.594 360.486,172.377 367.000,173.000" stroke-width="4.356" stroke="black" fill="none" stroke-linecap="round"></path><path d="M 367.000,173.000 C 378.634,174.311 378.302,174.094 390.000,173.000" stroke-width="2.765" stroke="black" fill="none" stroke-linecap="round"></path><path d="M 390.000,173.000 C 404.511,170.050 404.634,171.311 419.000,167.000" stroke-width="2.224" stroke="black" fill="none" stroke-linecap="round"></path><path d="M 419.000,167.000 C 432.929,163.623 433.011,164.050 447.000,161.000" stroke-width="2.285" stroke="black" fill="none" stroke-linecap="round"></path><path d="M 447.000,161.000 C 462.399,157.440 462.429,158.123 478.000,156.000" stroke-width="2.000" stroke="black" fill="none" stroke-linecap="round"></path><path d="M 478.000,156.000 C 494.995,155.000 494.899,154.440 512.000,155.000" stroke-width="1.855" stroke="black" fill="none" stroke-linecap="round"></path><path d="M 512.000,155.000 C 560.012,155.027 559.995,155.000 608.000,156.000" stroke-width="1.170" stroke="black" fill="none" stroke-linecap="round"></path><path d="M 608.000,156.000 C 634.002,158.000 634.012,156.527 660.000,158.000" stroke-width="1.313" stroke="black" fill="none" stroke-linecap="round"></path><path d="M 660.000,158.000 C 684.165,158.414 684.002,158.000 708.000,156.000" stroke-width="1.376" stroke="black" fill="none" stroke-linecap="round"></path><path d="M 591.000,186.000 C 583.386,185.297 583.500,186.000 576.000,186.000" stroke-width="3.623" stroke="black" fill="none" stroke-linecap="round"></path><path d="M 576.000,186.000 C 573.095,187.410 572.886,186.297 570.000,188.000" stroke-width="3.900" stroke="black" fill="none" stroke-linecap="round"></path><path d="M 570.000,188.000 C 562.494,188.959 562.595,189.410 555.000,190.000" stroke-width="3.204" stroke="black" fill="none" stroke-linecap="round"></path><path d="M 555.000,190.000 C 544.557,192.138 544.494,191.459 534.000,193.000" stroke-width="2.678" stroke="black" fill="none" stroke-linecap="round"></path><path d="M 534.000,193.000 C 520.005,193.778 520.057,194.138 506.000,194.000" stroke-width="2.201" stroke="black" fill="none" stroke-linecap="round"></path><path d="M 506.000,194.000 C 488.497,194.240 488.505,194.278 471.000,194.000" stroke-width="1.934" stroke="black" fill="none" stroke-linecap="round"></path><path d="M 471.000,194.000 C 451.962,194.156 451.997,193.740 433.000,193.000" stroke-width="1.793" stroke="black" fill="none" stroke-linecap="round"></path><path d="M 433.000,193.000 C 411.025,190.694 410.962,191.656 389.000,189.000" stroke-width="1.625" stroke="black" fill="none" stroke-linecap="round"></path><path d="M 389.000,189.000 C 346.034,185.033 346.025,185.694 303.000,183.000" stroke-width="1.125" stroke="black" fill="none" stroke-linecap="round"></path><path d="M 303.000,183.000 C 282.363,181.392 282.534,182.033 262.000,183.000" stroke-width="1.415" stroke="black" fill="none" stroke-linecap="round"></path><path d="M 262.000,183.000 C 244.239,185.050 244.363,184.392 227.000,189.000" stroke-width="1.677" stroke="black" fill="none" stroke-linecap="round"></path></svg>