<svg xmlns="http://www.w3.org/2000/svg" xmlns:xlink="http://www.w3.org/1999/xlink" viewBox="0 0 724 340" width="724" height="340"><path d="M 164.000,180.000 C 161.026,173.439 160.000,175.000 156.000,170.000" stroke-width="5.024" stroke="black" fill="none" stroke-linecap="round"></path><path d="M 156.000,170.000 C 150.044,169.374 151.526,166.939 145.000,167.000" stroke-width="4.605" stroke="black" fill="none" stroke-linecap="round"></path><path d="M 145.000,167.000 C 142.120,164.340 141.544,165.374 139.000,162.000" stroke-width="3.995" stroke="black" fill="none" stroke-linecap="round"></path><path d="M 139.000,162.000 C 135.640,160.400 136.120,159.840 133.000,158.000" stroke-width="3.963" stroke="black" fill="none" stroke-linecap="round"></path><path d="M 133.000,158.000 C 127.482,154.070 130.140,155.400 128.000,152.000" stroke-width="4.388" stroke="black" fill="none" stroke-linecap="round"></path><path d="M 128.000,152.000 C 131.600,151.275 128.482,150.070 135.000,150.000" stroke-width="5.015" stroke="black" fill="none" stroke-linecap="round"></path><path d="M 135.000,150.000 C 139.697,148.367 139.600,148.275 144.000,146.000" stroke-width="3.901" stroke="black" fill="none" stroke-linecap="round"></path><path d="M 144.000,146.000 C 149.577,142.616 149.697,142.867 155.000,139.000" stroke-width="3.369" stroke="black" fill="none" stroke-linecap="round"></path><path d="M 155.000,139.000 C 161.741,134.815 161.577,134.616 168.000,130.000" stroke-width="2.972" stroke="black" fill="none" stroke-linecap="round"></path><path d="M 168.000,130.000 C 174.285,124.223 174.741,124.815 181.000,119.000" stroke-width="2.968" stroke="black" fill="none" stroke-linecap="round"></path><path d="M 181.000,119.000 C 187.847,113.769 187.785,113.723 195.000,109.000" stroke-width="2.903" stroke="black" fill="none" stroke-linecap="round"></path><path d="M 195.000,109.000 C 201.410,104.844 201.347,104.769 208.000,101.000" stroke-width="2.886" stroke="black" fill="none" stroke-linecap="round"></path><path d="M 208.000,101.000 C 213.511,98.019 213.410,97.844 219.000,95.000" stroke-width="3.069" stroke="black" fill="none" stroke-linecap="round"></path><path d="M 219.000,95.000 C 223.285,91.886 223.511,92.519 228.000,90.000" stroke-width="3.308" stroke="black" fill="none" stroke-linecap="round"></path><path d="M 228.000,90.000 C 233.090,87.634 230.785,88.886 234.000,89.000" stroke-width="3.851" stroke="black" fill="none" stroke-linecap="round"></path><path d="M 234.000,89.000 C 234.072,93.131 235.090,90.634 232.000,96.000" stroke-width="4.624" stroke="black" fill="none" stroke-linecap="round"></path><path d="M 232.000,96.000 C 226.146,101.183 227.572,102.131 221.000,107.000" stroke-width="3.495" stroke="black" fill="none" stroke-linecap="round"></path><path d="M 221.000,107.000 C 215.148,114.623 214.646,114.183 209.000,122.000" stroke-width="2.850" stroke="black" fill="none" stroke-linecap="round"></path><path d="M 209.000,122.000 C 202.535,129.531 202.648,129.623 196.000,137.000" stroke-width="2.536" stroke="black" fill="none" stroke-linecap="round"></path><path d="M 196.000,137.000 C 188.500,145.500 188.535,145.531 181.000,154.000" stroke-width="2.386" stroke="black" fill="none" stroke-linecap="round"></path><path d="M 181.000,154.000 C 173.765,162.749 173.500,162.500 166.000,171.000" stroke-width="2.403" stroke="black" fill="none" stroke-linecap="round"></path><path d="M 166.000,171.000 C 157.742,179.757 157.765,179.749 149.000,188.000" stroke-width="2.292" stroke="black" fill="none" stroke-linecap="round"></path><path d="M 149.000,188.000 C 139.909,195.901 140.242,196.257 131.000,204.000" stroke-width="2.317" stroke="black" fill="none" stroke-linecap="round"></path><path d="M 131.000,204.000 C 123.538,211.042 123.409,210.901 116.000,218.000" stroke-width="2.474" stroke="black" fill="none" stroke-linecap="round"></path><path d="M 116.000,218.000 C 110.744,223.300 110.538,223.042 105.000,228.000" stroke-width="2.768" stroke="black" fill="none" stroke-linecap="round"></path><path d="M 105.000,228.000 C 99.763,232.432 99.744,232.300 94.000,236.000" stroke-width="2.953" stroke="black" fill="none" stroke-linecap="round"></path><path d="M 94.000,236.000 C 89.180,238.986 89.263,238.932 84.000,241.000" stroke-width="3.195" stroke="black" fill="none" stroke-linecap="round"></path><path d="M 84.000,241.000 C 80.000,242.000 80.180,242.486 76.000,243.000" stroke-width="3.632" stroke="black" fill="none" stroke-linecap="round"></path><path d="M 76.000,243.000 C 72.028,244.137 72.000,244.000 68.000,245.000" stroke-width="3.687" stroke="black" fill="none" stroke-linecap="round"></path><path d="M 68.000,245.000 C 62.487,246.974 65.028,245.637 62.000,246.000" stroke-width="4.372" stroke="black" fill="none" stroke-linecap="round"></path><path d="M 62.000,246.000 C 63.591,243.064 61.487,244.974 66.000,241.000" stroke-width="4.785" stroke="black" fill="none" stroke-linecap="round"></path><path d="M 66.000,241.000 C 70.958,237.438 70.591,237.064 76.000,234.000" stroke-width="3.683" stroke="black" fill="none" stroke-linecap="round"></path><path d="M 76.000,234.000 C 82.000,230.000 81.958,229.938 88.000,226.000" stroke-width="3.144" stroke="black" fill="none" stroke-linecap="round"></path><path d="M 88.000,226.000 C 95.581,221.117 95.500,221.000 103.000,216.000" stroke-width="2.777" stroke="black" fill="none" stroke-linecap="round"></path><path d="M 103.000,216.000 C 109.810,210.711 110.081,211.117 117.000,206.000" stroke-width="2.790" stroke="black" fill="none" stroke-linecap="round"></path><path d="M 117.000,206.000 C 124.393,201.311 124.310,201.211 132.000,197.000" stroke-width="2.717" stroke="black" fill="none" stroke-linecap="round"></path><path d="M 132.000,197.000 C 139.623,193.215 139.393,192.811 147.000,189.000" stroke-width="2.838" stroke="black" fill="none" stroke-linecap="round"></path><path d="M 147.000,189.000 C 153.347,184.726 153.623,185.215 160.000,181.000" stroke-width="2.866" stroke="black" fill="none" stroke-linecap="round"></path><path d="M 160.000,181.000 C 166.054,178.102 165.847,177.726 172.000,175.000" stroke-width="3.055" stroke="black" fill="none" stroke-linecap="round"></path><path d="M 172.000,175.000 C 177.500,172.000 177.554,172.102 183.000,169.000" stroke-width="3.181" stroke="black" fill="none" stroke-linecap="round"></path><path d="M 183.000,169.000 C 188.664,166.261 188.500,166.000 194.000,163.000" stroke-width="3.162" stroke="black" fill="none" stroke-linecap="round"></path><path d="M 194.000,163.000 C 197.682,160.715 197.664,160.761 201.000,158.000" stroke-width="3.543" stroke="black" fill="none" stroke-linecap="round"></path><path d="M 201.000,158.000 C 205.472,154.472 203.182,156.215 205.000,154.000" stroke-width="3.951" stroke="black" fill="none" stroke-linecap="round"></path><path d="M 205.000,154.000 C 201.809,154.595 204.472,153.472 199.000,156.000" stroke-width="4.718" stroke="black" fill="none" stroke-linecap="round"></path><path d="M 199.000,156.000 C 195.219,159.053 194.809,158.095 191.000,161.000" stroke-width="4.472" stroke="black" fill="none" stroke-linecap="round"></path><path d="M 191.000,161.000 C 188.217,160.892 188.719,162.053 186.000,162.000" stroke-width="4.370" stroke="black" fill="none" stroke-linecap="round"></path><path d="M 186.000,162.000 C 183.537,164.048 183.217,163.392 181.000,166.000" stroke-width="4.167" stroke="black" fill="none" stroke-linecap="round"></path><path d="M 181.000,166.000 C 176.500,168.500 177.037,169.048 173.000,172.000" stroke-width="3.647" stroke="black" fill="none" stroke-linecap="round"></path><path d="M 173.000,172.000 C 169.192,175.616 169.500,175.500 167.000,180.000" stroke-width="3.868" stroke="black" fill="none" stroke-linecap="round"></path><path d="M 167.000,180.000 C 165.000,184.038 165.192,183.616 165.000,188.000" stroke-width="4.307" stroke="black" fill="none" stroke-linecap="round"></path><path d="M 165.000,188.000 C 164.864,192.576 165.000,191.038 167.000,194.000" stroke-width="4.779" stroke="black" fill="none" stroke-linecap="round"></path><path d="M 167.000,194.000 C 170.500,194.000 169.364,195.576 174.000,194.000" stroke-width="4.194" stroke="black" fill="none" stroke-linecap="round"></path><path d="M 174.000,194.000 C 179.695,195.011 179.500,194.000 185.000,194.000" stroke-width="3.617" stroke="black" fill="none" stroke-linecap="round"></path><path d="M 185.000,194.000 C 190.260,192.495 190.195,193.011 195.000,190.000" stroke-width="3.494" stroke="black" fill="none" stroke-linecap="round"></path><path d="M 195.000,190.000 C 199.797,187.362 199.760,187.495 204.000,184.000" stroke-width="3.454" stroke="black" fill="none" stroke-linecap="round"></path><path d="M 204.000,184.000 C 208.091,181.545 207.297,181.362 210.000,178.000" stroke-width="3.658" stroke="black" fill="none" stroke-linecap="round"></path><path d="M 210.000,178.000 C 212.238,173.723 211.591,175.045 211.000,171.000" stroke-width="4.304" stroke="black" fill="none" stroke-linecap="round"></path><path d="M 211.000,171.000 C 208.318,167.948 209.738,168.223 205.000,167.000" stroke-width="4.534" stroke="black" fill="none" stroke-linecap="round"></path><path d="M 205.000,167.000 C 200.435,165.497 201.318,165.948 197.000,167.000" stroke-width="4.548" stroke="black" fill="none" stroke-linecap="round"></path><path d="M 197.000,167.000 C 191.816,169.776 192.435,168.997 189.000,174.000" stroke-width="4.382" stroke="black" fill="none" stroke-linecap="round"></path><path d="M 189.000,174.000 C 184.964,180.371 186.816,177.276 187.000,182.000" stroke-width="4.483" stroke="black" fill="none" stroke-linecap="round"></path><path d="M 187.000,182.000 C 193.000,182.000 189.964,184.371 199.000,182.000" stroke-width="4.508" stroke="black" fill="none" stroke-linecap="round"></path><path d="M 199.000,182.000 C 204.094,182.701 204.000,182.000 209.000,182.000" stroke-width="3.844" stroke="black" fill="none" stroke-linecap="round"></path><path d="M 209.000,182.000 C 214.717,181.067 214.594,181.201 220.000,179.000" stroke-width="3.366" stroke="black" fill="none" stroke-linecap="round"></path><path d="M 220.000,179.000 C 226.168,176.296 226.217,176.567 232.000,173.000" stroke-width="3.207" stroke="black" fill="none" stroke-linecap="round"></path><path d="M 232.000,173.000 C 237.737,169.828 237.668,169.796 243.000,166.000" stroke-width="3.245" stroke="black" fill="none" stroke-linecap="round"></path><path d="M 243.000,166.000 C 248.748,161.774 248.737,161.828 254.000,157.000" stroke-width="3.116" stroke="black" fill="none" stroke-linecap="round"></path><path d="M 254.000,157.000 C 259.625,151.620 259.748,151.774 265.000,146.000" stroke-width="2.989" stroke="black" fill="none" stroke-linecap="round"></path><path d="M 265.000,146.000 C 270.725,140.193 270.625,140.120 276.000,134.000" stroke-width="2.907" stroke="black" fill="none" stroke-linecap="round"></path><path d="M 276.000,134.000 C 282.032,126.525 282.225,126.693 288.000,119.000" stroke-width="2.652" stroke="black" fill="none" stroke-linecap="round"></path><path d="M 288.000,119.000 C 293.661,112.119 293.532,112.025 299.000,105.000" stroke-width="2.718" stroke="black" fill="none" stroke-linecap="round"></path><path d="M 299.000,105.000 C 302.826,100.194 302.661,100.119 306.000,95.000" stroke-width="3.085" stroke="black" fill="none" stroke-linecap="round"></path><path d="M 306.000,95.000 C 308.878,91.207 308.326,91.194 310.000,87.000" stroke-width="3.380" stroke="black" fill="none" stroke-linecap="round"></path><path d="M 310.000,87.000 C 311.605,82.140 310.878,83.707 310.000,80.000" stroke-width="4.173" stroke="black" fill="none" stroke-linecap="round"></path><path d="M 310.000,80.000 C 307.024,79.216 308.605,78.140 304.000,79.000" stroke-width="4.195" stroke="black" fill="none" stroke-linecap="round"></path><path d="M 304.000,79.000 C 299.810,78.104 300.024,78.716 296.000,79.000" stroke-width="3.929" stroke="black" fill="none" stroke-linecap="round"></path><path d="M 296.000,79.000 C 290.877,80.092 291.310,80.104 287.000,83.000" stroke-width="3.605" stroke="black" fill="none" stroke-linecap="round"></path><path d="M 287.000,83.000 C 281.386,88.390 280.877,87.592 276.000,94.000" stroke-width="3.110" stroke="black" fill="none" stroke-linecap="round"></path><path d="M 276.000,94.000 C 268.951,100.561 269.386,100.890 263.000,108.000" stroke-width="2.706" stroke="black" fill="none" stroke-linecap="round"></path><path d="M 263.000,108.000 C 257.325,115.885 256.951,115.561 252.000,124.000" stroke-width="2.650" stroke="black" fill="none" stroke-linecap="round"></path><path d="M 252.000,124.000 C 246.414,131.691 246.825,131.885 242.000,140.000" stroke-width="2.661" stroke="black" fill="none" stroke-linecap="round"></path><path d="M 242.000,140.000 C 238.900,148.201 237.914,147.691 235.000,156.000" stroke-width="2.681" stroke="black" fill="none" stroke-linecap="round"></path><path d="M 235.000,156.000 C 231.029,163.017 231.400,163.201 227.000,170.000" stroke-width="2.764" stroke="black" fill="none" stroke-linecap="round"></path><path d="M 227.000,170.000 C 223.325,175.905 223.529,176.017 220.000,182.000" stroke-width="2.988" stroke="black" fill="none" stroke-linecap="round"></path><path d="M 220.000,182.000 C 217.362,186.938 217.325,186.905 215.000,192.000" stroke-width="3.207" stroke="black" fill="none" stroke-linecap="round"></path><path d="M 215.000,192.000 C 211.349,197.000 213.862,194.438 213.000,197.000" stroke-width="3.885" stroke="black" fill="none" stroke-linecap="round"></path><path d="M 213.000,197.000 C 221.000,195.500 217.849,197.000 228.000,192.000" stroke-width="4.162" stroke="black" fill="none" stroke-linecap="round"></path><path d="M 228.000,192.000 C 234.585,187.619 235.000,188.500 241.000,183.000" stroke-width="3.130" stroke="black" fill="none" stroke-linecap="round"></path><path d="M 241.000,183.000 C 247.095,178.621 247.085,178.619 253.000,174.000" stroke-width="3.029" stroke="black" fill="none" stroke-linecap="round"></path><path d="M 253.000,174.000 C 258.351,169.304 258.595,169.621 264.000,165.000" stroke-width="3.053" stroke="black" fill="none" stroke-linecap="round"></path><path d="M 264.000,165.000 C 269.014,161.520 268.851,161.304 274.000,158.000" stroke-width="3.205" stroke="black" fill="none" stroke-linecap="round"></path><path d="M 274.000,158.000 C 277.621,155.655 277.514,155.520 281.000,153.000" stroke-width="3.603" stroke="black" fill="none" stroke-linecap="round"></path><path d="M 281.000,153.000 C 288.540,145.741 284.621,150.155 288.000,147.000" stroke-width="4.106" stroke="black" fill="none" stroke-linecap="round"></path><path d="M 288.000,147.000 C 282.873,153.407 287.040,149.241 278.000,160.000" stroke-width="4.196" stroke="black" fill="none" stroke-linecap="round"></path><path d="M 278.000,160.000 C 274.227,164.837 274.373,164.907 271.000,170.000" stroke-width="3.438" stroke="black" fill="none" stroke-linecap="round"></path><path d="M 271.000,170.000 C 268.568,172.875 269.227,172.837 268.000,176.000" stroke-width="3.834" stroke="black" fill="none" stroke-linecap="round"></path><path d="M 268.000,176.000 C 267.392,179.851 267.568,178.375 269.000,181.000" stroke-width="4.518" stroke="black" fill="none" stroke-linecap="round"></path><path d="M 269.000,181.000 C 272.112,181.619 270.892,182.351 275.000,181.000" stroke-width="4.210" stroke="black" fill="none" stroke-linecap="round"></path><path d="M 275.000,181.000 C 279.371,180.177 279.112,180.119 283.000,178.000" stroke-width="3.925" stroke="black" fill="none" stroke-linecap="round"></path><path d="M 283.000,178.000 C 289.029,173.538 289.371,174.177 295.000,169.000" stroke-width="3.219" stroke="black" fill="none" stroke-linecap="round"></path><path d="M 295.000,169.000 C 301.571,164.090 301.529,164.038 308.000,159.000" stroke-width="2.961" stroke="black" fill="none" stroke-linecap="round"></path><path d="M 308.000,159.000 C 313.541,154.549 313.571,154.590 319.000,150.000" stroke-width="2.974" stroke="black" fill="none" stroke-linecap="round"></path><path d="M 319.000,150.000 C 325.115,144.295 322.541,147.049 326.000,144.000" stroke-width="3.367" stroke="black" fill="none" stroke-linecap="round"></path><path d="M 326.000,144.000 C 324.000,146.500 326.615,143.795 322.000,149.000" stroke-width="4.428" stroke="black" fill="none" stroke-linecap="round"></path><path d="M 322.000,149.000 C 319.881,151.413 320.000,151.500 318.000,154.000" stroke-width="4.229" stroke="black" fill="none" stroke-linecap="round"></path><path d="M 318.000,154.000 C 312.797,159.599 315.881,156.913 314.000,160.000" stroke-width="4.493" stroke="black" fill="none" stroke-linecap="round"></path><path d="M 314.000,160.000 C 318.960,157.890 315.797,160.599 324.000,156.000" stroke-width="4.728" stroke="black" fill="none" stroke-linecap="round"></path><path d="M 324.000,156.000 C 327.029,155.080 326.960,154.890 330.000,154.000" stroke-width="4.270" stroke="black" fill="none" stroke-linecap="round"></path><path d="M 330.000,154.000 C 334.660,150.639 332.529,153.080 335.000,152.000" stroke-width="4.651" stroke="black" fill="none" stroke-linecap="round"></path><path d="M 335.000,152.000 C 334.528,157.527 335.660,154.639 332.000,162.000" stroke-width="4.402" stroke="black" fill="none" stroke-linecap="round"></path><path d="M 332.000,162.000 C 326.789,168.349 328.028,169.027 322.000,175.000" stroke-width="3.123" stroke="black" fill="none" stroke-linecap="round"></path><path d="M 322.000,175.000 C 317.793,180.874 317.789,180.849 314.000,187.000" stroke-width="3.067" stroke="black" fill="none" stroke-linecap="round"></path><path d="M 314.000,187.000 C 311.168,191.354 311.293,191.374 309.000,196.000" stroke-width="3.360" stroke="black" fill="none" stroke-linecap="round"></path><path d="M 309.000,196.000 C 306.105,199.539 307.668,198.854 307.000,202.000" stroke-width="3.803" stroke="black" fill="none" stroke-linecap="round"></path><path d="M 307.000,202.000 C 309.663,207.000 308.105,205.039 313.000,207.000" stroke-width="4.489" stroke="black" fill="none" stroke-linecap="round"></path><path d="M 313.000,207.000 C 318.881,205.150 318.163,207.000 324.000,202.000" stroke-width="3.506" stroke="black" fill="none" stroke-linecap="round"></path><path d="M 324.000,202.000 C 331.905,196.987 331.881,197.150 339.000,191.000" stroke-width="2.889" stroke="black" fill="none" stroke-linecap="round"></path><path d="M 339.000,191.000 C 347.749,183.251 347.905,183.487 356.000,175.000" stroke-width="2.566" stroke="black" fill="none" stroke-linecap="round"></path><path d="M 356.000,175.000 C 365.366,164.869 365.749,165.251 375.000,155.000" stroke-width="2.369" stroke="black" fill="none" stroke-linecap="round"></path><path d="M 375.000,155.000 C 386.134,144.131 385.866,143.869 397.000,133.000" stroke-width="2.089" stroke="black" fill="none" stroke-linecap="round"></path><path d="M 397.000,133.000 C 406.635,123.125 406.634,123.131 416.000,113.000" stroke-width="2.072" stroke="black" fill="none" stroke-linecap="round"></path><path d="M 416.000,113.000 C 425.541,103.432 425.135,103.125 434.000,93.000" stroke-width="2.090" stroke="black" fill="none" stroke-linecap="round"></path><path d="M 434.000,93.000 C 439.881,84.413 440.541,84.932 446.000,76.000" stroke-width="2.326" stroke="black" fill="none" stroke-linecap="round"></path><path d="M 446.000,76.000 C 452.269,68.187 451.881,67.913 458.000,60.000" stroke-width="2.501" stroke="black" fill="none" stroke-linecap="round"></path><path d="M 458.000,60.000 C 462.566,53.042 462.769,53.187 467.000,46.000" stroke-width="2.675" stroke="black" fill="none" stroke-linecap="round"></path><path d="M 467.000,46.000 C 470.903,39.438 471.066,39.542 475.000,33.000" stroke-width="2.814" stroke="black" fill="none" stroke-linecap="round"></path><path d="M 475.000,33.000 C 478.330,28.673 477.903,28.438 481.000,24.000" stroke-width="3.224" stroke="black" fill="none" stroke-linecap="round"></path><path d="M 481.000,24.000 C 484.160,19.387 482.330,21.673 483.000,19.000" stroke-width="3.855" stroke="black" fill="none" stroke-linecap="round"></path><path d="M 483.000,19.000 C 478.404,19.512 481.160,18.387 475.000,22.000" stroke-width="4.394" stroke="black" fill="none" stroke-linecap="round"></path><path d="M 475.000,22.000 C 466.119,30.139 465.404,29.012 457.000,38.000" stroke-width="2.631" stroke="black" fill="none" stroke-linecap="round"></path><path d="M 457.000,38.000 C 451.100,42.070 451.619,42.639 446.000,47.000" stroke-width="2.970" stroke="black" fill="none" stroke-linecap="round"></path><path d="M 446.000,47.000 C 436.355,56.866 436.100,56.570 427.000,67.000" stroke-width="2.340" stroke="black" fill="none" stroke-linecap="round"></path><path d="M 427.000,67.000 C 417.951,76.061 418.355,76.366 410.000,86.000" stroke-width="2.276" stroke="black" fill="none" stroke-linecap="round"></path><path d="M 410.000,86.000 C 402.154,96.269 401.951,96.061 395.000,107.000" stroke-width="2.301" stroke="black" fill="none" stroke-linecap="round"></path><path d="M 395.000,107.000 C 387.942,117.196 388.154,117.269 382.000,128.000" stroke-width="2.295" stroke="black" fill="none" stroke-linecap="round"></path><path d="M 382.000,128.000 C 377.586,137.542 376.942,137.196 373.000,147.000" stroke-width="2.445" stroke="black" fill="none" stroke-linecap="round"></path><path d="M 373.000,147.000 C 368.897,153.757 369.586,154.042 366.000,161.000" stroke-width="2.860" stroke="black" fill="none" stroke-linecap="round"></path><path d="M 366.000,161.000 C 361.000,170.188 362.897,168.757 361.000,177.000" stroke-width="2.840" stroke="black" fill="none" stroke-linecap="round"></path><path d="M 361.000,177.000 C 363.447,179.365 361.000,179.188 366.000,179.000" stroke-width="4.013" stroke="black" fill="none" stroke-linecap="round"></path><path d="M 366.000,179.000 C 374.123,176.845 373.947,177.865 382.000,174.000" stroke-width="3.034" stroke="black" fill="none" stroke-linecap="round"></path><path d="M 382.000,174.000 C 391.844,169.554 392.123,170.345 402.000,166.000" stroke-width="2.558" stroke="black" fill="none" stroke-linecap="round"></path><path d="M 402.000,166.000 C 411.861,162.401 411.844,162.554 422.000,160.000" stroke-width="2.590" stroke="black" fill="none" stroke-linecap="round"></path><path d="M 422.000,160.000 C 430.948,157.876 430.861,157.901 440.000,157.000" stroke-width="2.675" stroke="black" fill="none" stroke-linecap="round"></path><path d="M 440.000,157.000 C 446.500,157.000 446.448,156.376 453.000,157.000" stroke-width="2.961" stroke="black" fill="none" stroke-linecap="round"></path><path d="M 453.000,157.000 C 458.982,154.965 456.500,157.000 460.000,157.000" stroke-width="3.610" stroke="black" fill="none" stroke-linecap="round"></path><path d="M 460.000,157.000 C 461.286,163.452 461.482,159.965 458.000,167.000" stroke-width="4.084" stroke="black" fill="none" stroke-linecap="round"></path><path d="M 458.000,167.000 C 447.074,176.398 448.786,176.952 435.000,184.000" stroke-width="2.455" stroke="black" fill="none" stroke-linecap="round"></path><path d="M 435.000,184.000 C 419.845,193.199 420.074,193.398 404.000,201.000" stroke-width="1.917" stroke="black" fill="none" stroke-linecap="round"></path><path d="M 404.000,201.000 C 387.242,209.103 387.345,209.199 370.000,216.000" stroke-width="1.754" stroke="black" fill="none" stroke-linecap="round"></path><path d="M 370.000,216.000 C 352.366,223.788 352.242,223.103 334.000,229.000" stroke-width="1.786" stroke="black" fill="none" stroke-linecap="round"></path><path d="M 334.000,229.000 C 315.196,234.507 315.366,234.288 296.000,237.000" stroke-width="1.734" stroke="black" fill="none" stroke-linecap="round"></path><path d="M 296.000,237.000 C 276.513,238.500 276.696,239.507 257.000,239.000" stroke-width="1.714" stroke="black" fill="none" stroke-linecap="round"></path><path d="M 257.000,239.000 C 237.291,241.004 237.513,239.500 218.000,239.000" stroke-width="1.659" stroke="black" fill="none" stroke-linecap="round"></path><path d="M 218.000,239.000 C 198.858,235.580 198.791,237.004 180.000,231.000" stroke-width="1.647" stroke="black" fill="none" stroke-linecap="round"></path><path d="M 180.000,231.000 C 163.322,228.129 163.858,227.080 148.000,222.000" stroke-width="1.769" stroke="black" fill="none" stroke-linecap="round"></path><path d="M 148.000,222.000 C 135.111,217.145 135.822,217.129 125.000,209.000" stroke-width="2.002" stroke="black" fill="none" stroke-linecap="round"></path><path d="M 125.000,209.000 C 115.538,202.199 117.111,202.645 112.000,193.000" stroke-width="2.399" stroke="black" fill="none" stroke-linecap="round"></path><path d="M 112.000,193.000 C 108.868,181.322 108.038,182.699 110.000,170.000" stroke-width="2.331" stroke="black" fill="none" stroke-linecap="round"></path><path d="M 110.000,170.000 C 109.883,154.431 111.368,156.322 117.000,143.000" stroke-width="2.127" stroke="black" fill="none" stroke-linecap="round"></path><path d="M 117.000,143.000 C 128.526,128.134 126.383,127.931 143.000,117.000" stroke-width="1.870" stroke="black" fill="none" stroke-linecap="round"></path><path d="M 143.000,117.000 C 161.557,103.098 161.026,103.134 182.000,93.000" stroke-width="1.613" stroke="black" fill="none" stroke-linecap="round"></path><path d="M 182.000,93.000 C 203.185,81.414 203.057,82.598 226.000,76.000" stroke-width="1.476" stroke="black" fill="none" stroke-linecap="round"></path><path d="M 226.000,76.000 C 262.833,68.245 262.185,67.414 300.000,65.000" stroke-width="1.458" stroke="black" fill="none" stroke-linecap="round"></path><path d="M 300.000,65.000 C 326.000,65.000 325.833,62.745 352.000,65.000" stroke-width="1.407" stroke="black" fill="none" stroke-linecap="round"></path><path d="M 352.000,65.000 C 364.621,63.646 364.500,65.000 377.000,65.000" stroke-width="1.921" stroke="black" fill="none" stroke-linecap="round"></path><path d="M 377.000,65.000 C 396.772,67.408 396.621,67.146 416.000,72.000" stroke-width="1.752" stroke="black" fill="none" stroke-linecap="round"></path><path d="M 416.000,72.000 C 430.532,75.313 430.272,75.408 444.000,81.000" stroke-width="1.957" stroke="black" fill="none" stroke-linecap="round"></path><path d="M 444.000,81.000 C 453.773,84.758 453.032,84.813 461.000,91.000" stroke-width="2.369" stroke="black" fill="none" stroke-linecap="round"></path><path d="M 461.000,91.000 C 465.744,95.400 464.773,94.258 466.000,100.000" stroke-width="3.063" stroke="black" fill="none" stroke-linecap="round"></path><path d="M 466.000,100.000 C 465.898,106.363 466.244,104.400 462.000,109.000" stroke-width="3.396" stroke="black" fill="none" stroke-linecap="round"></path><path d="M 462.000,109.000 C 447.529,117.410 448.898,117.863 432.000,123.000" stroke-width="2.126" stroke="black" fill="none" stroke-linecap="round"></path><path d="M 432.000,123.000 C 409.797,130.796 410.029,130.910 387.000,136.000" stroke-width="1.697" stroke="black" fill="none" stroke-linecap="round"></path><path d="M 387.000,136.000 C 363.634,141.076 363.797,141.296 340.000,144.000" stroke-width="1.488" stroke="black" fill="none" stroke-linecap="round"></path><path d="M 340.000,144.000 C 315.036,146.723 315.134,147.076 290.000,148.000" stroke-width="1.442" stroke="black" fill="none" stroke-linecap="round"></path><path d="M 290.000,148.000 C 265.971,149.551 266.036,149.223 242.000,149.000" stroke-width="1.462" stroke="black" fill="none" stroke-linecap="round"></path><path d="M 242.000,149.000 C 222.102,149.473 222.471,148.551 203.000,146.000" stroke-width="1.578" stroke="black" fill="none" stroke-linecap="round"></path><path d="M 203.000,146.000 C 188.995,142.611 189.102,143.473 176.000,137.000" stroke-width="1.912" stroke="black" fill="none" stroke-linecap="round"></path><path d="M 176.000,137.000 C 163.760,128.465 166.995,133.111 159.000,127.000" stroke-width="2.190" stroke="black" fill="none" stroke-linecap="round"></path><path d="M 460.000,146.000 C 464.984,146.821 465.000,146.500 470.000,147.000" stroke-width="4.765" stroke="black" fill="none" stroke-linecap="round"></path><path d="M 470.000,147.000 C 479.019,147.438 478.984,147.321 488.000,147.000" stroke-width="3.207" stroke="black" fill="none" stroke-linecap="round"></path><path d="M 488.000,147.000 C 499.645,146.892 499.519,146.438 511.000,145.000" stroke-width="2.515" stroke="black" fill="none" stroke-linecap="round"></path><path d="M 511.000,145.000 C 523.579,142.295 523.645,142.892 536.000,139.000" stroke-width="2.373" stroke="black" fill="none" stroke-linecap="round"></path><path d="M 536.000,139.000 C 547.943,135.288 548.079,135.795 560.000,132.000" stroke-width="2.305" stroke="black" fill="none" stroke-linecap="round"></path><path d="M 560.000,132.000 C 569.917,129.076 569.943,129.288 580.000,127.000" stroke-width="2.466" stroke="black" fill="none" stroke-linecap="round"></path><path d="M 580.000,127.000 C 586.979,125.702 586.917,125.576 594.000,125.000" stroke-width="2.860" stroke="black" fill="none" stroke-linecap="round"></path><path d="M 594.000,125.000 C 599.546,123.638 596.979,124.702 600.000,125.000" stroke-width="3.660" stroke="black" fill="none" stroke-linecap="round"></path><path d="M 600.000,125.000 C 598.757,128.736 600.546,126.638 596.000,131.000" stroke-width="3.858" stroke="black" fill="none" stroke-linecap="round"></path><path d="M 596.000,131.000 C 583.980,139.472 584.757,140.236 572.000,148.000" stroke-width="2.533" stroke="black" fill="none" stroke-linecap="round"></path><path d="M 572.000,148.000 C 554.071,159.994 554.480,160.472 537.000,173.000" stroke-width="1.906" stroke="black" fill="none" stroke-linecap="round"></path><path d="M 537.000,173.000 C 529.061,177.887 533.071,175.994 530.000,180.000" stroke-width="2.823" stroke="black" fill="none" stroke-linecap="round"></path><path d="M 530.000,180.000 C 535.548,182.682 531.061,182.387 541.000,182.000" stroke-width="3.647" stroke="black" fill="none" stroke-linecap="round"></path><path d="M 541.000,182.000 C 555.571,178.774 555.548,180.182 570.000,175.000" stroke-width="2.352" stroke="black" fill="none" stroke-linecap="round"></path><path d="M 570.000,175.000 C 587.938,169.766 588.071,170.274 606.000,165.000" stroke-width="1.903" stroke="black" fill="none" stroke-linecap="round"></path><path d="M 606.000,165.000 C 624.000,160.500 623.938,160.266 642.000,156.000" stroke-width="1.857" stroke="black" fill="none" stroke-linecap="round"></path><path d="M 642.000,156.000 C 657.886,151.453 658.000,152.000 674.000,148.000" stroke-width="1.896" stroke="black" fill="none" stroke-linecap="round"></path><path d="M 674.000,148.000 C 685.938,145.436 685.886,145.453 698.000,144.000" stroke-width="2.170" stroke="black" fill="none" stroke-linecap="round"></path><path d="M 698.000,144.000 C 706.995,143.322 706.938,142.936 716.000,143.000" stroke-width="2.482" stroke="black" fill="none" stroke-linecap="round"></path><path d="M 716.000,143.000 C 726.832,142.792 720.995,142.822 726.000,143.000" stroke-width="3.140" stroke="black" fill="none" stroke-linecap="round"></path><path d="M 726.000,143.000 C 719.001,143.512 724.832,143.292 712.000,144.000" stroke-width="3.900" stroke="black" fill="none" stroke-linecap="round"></path><path d="M 712.000,144.000 C 697.504,145.064 697.501,145.012 683.000,146.000" stroke-width="2.415" stroke="black" fill="none" stroke-linecap="round"></path><path d="M 683.000,146.000 C 666.507,147.131 666.504,147.064 650.000,148.000" stroke-width="2.038" stroke="black" fill="none" stroke-linecap="round"></path><path d="M 650.000,148.000 C 628.491,148.832 628.507,149.131 607.000,150.000" stroke-width="1.649" stroke="black" fill="none" stroke-linecap="round"></path><path d="M 607.000,150.000 C 582.445,150.864 582.491,151.332 558.000,153.000" stroke-width="1.549" stroke="black" fill="none" stroke-linecap="round"></path><path d="M 558.000,153.000 C 531.000,156.000 530.945,155.364 504.000,159.000" stroke-width="1.397" stroke="black" fill="none" stroke-linecap="round"></path><path d="M 504.000,159.000 C 476.916,161.377 477.000,162.000 450.000,165.000" stroke-width="1.313" stroke="black" fill="none" stroke-linecap="round"></path><path d="M 450.000,165.000 C 425.023,169.150 424.916,168.377 400.000,173.000" stroke-width="1.422" stroke="black" fill="none" stroke-linecap="round"></path><path d="M 400.000,173.000 C 379.415,175.508 379.523,176.150 359.000,179.000" stroke-width="1.566" stroke="black" fill="none" stroke-linecap="round"></path><path d="M 359.000,179.000 C 341.328,181.817 341.415,182.008 324.000,186.000" stroke-width="1.732" stroke="black" fill="none" stroke-linecap="round"></path><path d="M 324.000,186.000 C 312.462,189.380 312.328,188.817 301.000,193.000" stroke-width="2.111" stroke="black" fill="none" stroke-linecap="round"></path><path d="M 301.000,193.000 C 288.700,197.325 293.462,195.380 286.000,198.000" stroke-width="2.514" stroke="black" fill="none" stroke-linecap="round"></path></svg>