<svg xmlns="http://www.w3.org/2000/svg" xmlns:xlink="http://www.w3.org/1999/xlink" viewBox="0 0 724 340" width="724" height="340"><path d="M 208.000,77.000 C 201.321,88.907 201.500,89.000 195.000,101.000" stroke-width="3.775" stroke="black" fill="none" stroke-linecap="round"></path><path d="M 195.000,101.000 C 190.426,111.234 189.821,110.907 185.000,121.000" stroke-width="2.915" stroke="black" fill="none" stroke-linecap="round"></path><path d="M 185.000,121.000 C 177.957,133.800 177.926,133.734 170.000,146.000" stroke-width="2.202" stroke="black" fill="none" stroke-linecap="round"></path><path d="M 170.000,146.000 C 162.153,156.270 162.957,156.800 155.000,167.000" stroke-width="2.167" stroke="black" fill="none" stroke-linecap="round"></path><path d="M 155.000,167.000 C 149.716,176.140 149.153,175.770 144.000,185.000" stroke-width="2.342" stroke="black" fill="none" stroke-linecap="round"></path><path d="M 144.000,185.000 C 138.735,191.105 139.716,191.640 135.000,198.000" stroke-width="2.663" stroke="black" fill="none" stroke-linecap="round"></path><path d="M 201.000,81.000 C 195.000,73.260 198.000,77.000 195.000,73.000" stroke-width="5.120" stroke="black" fill="none" stroke-linecap="round"></path><path d="M 195.000,73.000 C 197.259,77.449 195.000,72.760 201.000,80.000" stroke-width="4.052" stroke="black" fill="none" stroke-linecap="round"></path><path d="M 201.000,80.000 C 208.487,85.817 208.259,84.949 217.000,88.000" stroke-width="3.036" stroke="black" fill="none" stroke-linecap="round"></path><path d="M 217.000,88.000 C 228.478,89.510 227.987,90.817 240.000,90.000" stroke-width="2.482" stroke="black" fill="none" stroke-linecap="round"></path><path d="M 240.000,90.000 C 252.182,91.477 251.978,90.510 264.000,90.000" stroke-width="2.375" stroke="black" fill="none" stroke-linecap="round"></path><path d="M 264.000,90.000 C 276.082,87.296 276.182,88.477 288.000,84.000" stroke-width="2.257" stroke="black" fill="none" stroke-linecap="round"></path><path d="M 288.000,84.000 C 299.542,80.633 299.582,80.796 311.000,77.000" stroke-width="2.307" stroke="black" fill="none" stroke-linecap="round"></path><path d="M 311.000,77.000 C 319.835,73.212 320.042,74.133 329.000,71.000" stroke-width="2.487" stroke="black" fill="none" stroke-linecap="round"></path><path d="M 149.000,165.000 C 142.314,160.766 146.500,162.500 144.000,160.000" stroke-width="5.089" stroke="black" fill="none" stroke-linecap="round"></path><path d="M 144.000,160.000 C 152.000,160.000 147.814,158.266 160.000,160.000" stroke-width="3.401" stroke="black" fill="none" stroke-linecap="round"></path><path d="M 160.000,160.000 C 173.504,160.245 173.500,160.000 187.000,160.000" stroke-width="2.366" stroke="black" fill="none" stroke-linecap="round"></path><path d="M 187.000,160.000 C 201.014,159.763 201.004,159.745 215.000,159.000" stroke-width="2.191" stroke="black" fill="none" stroke-linecap="round"></path><path d="M 215.000,159.000 C 228.570,158.580 228.514,158.263 242.000,157.000" stroke-width="2.176" stroke="black" fill="none" stroke-linecap="round"></path><path d="M 242.000,157.000 C 254.015,155.084 254.070,155.580 266.000,153.000" stroke-width="2.154" stroke="black" fill="none" stroke-linecap="round"></path></svg>