<svg xmlns="http://www.w3.org/2000/svg" xmlns:xlink="http://www.w3.org/1999/xlink" viewBox="0 0 724 340" width="724" height="340"><path d="M 156.000,143.000 C 162.945,141.176 163.000,141.500 170.000,140.000" stroke-width="5.083" stroke="black" fill="none" stroke-linecap="round"></path><path d="M 170.000,140.000 C 178.311,140.278 177.945,138.676 186.000,138.000" stroke-width="3.524" stroke="black" fill="none" stroke-linecap="round"></path><path d="M 186.000,138.000 C 205.140,131.352 205.311,132.278 224.000,124.000" stroke-width="2.106" stroke="black" fill="none" stroke-linecap="round"></path><path d="M 224.000,124.000 C 234.500,119.500 234.640,119.852 245.000,115.000" stroke-width="2.249" stroke="black" fill="none" stroke-linecap="round"></path><path d="M 245.000,115.000 C 255.487,110.468 255.500,110.500 266.000,106.000" stroke-width="2.405" stroke="black" fill="none" stroke-linecap="round"></path><path d="M 266.000,106.000 C 275.379,101.679 275.487,101.968 285.000,98.000" stroke-width="2.442" stroke="black" fill="none" stroke-linecap="round"></path><path d="M 285.000,98.000 C 292.447,95.324 292.379,95.179 300.000,93.000" stroke-width="2.701" stroke="black" fill="none" stroke-linecap="round"></path><path d="M 300.000,93.000 C 305.431,90.983 305.447,91.324 311.000,90.000" stroke-width="3.135" stroke="black" fill="none" stroke-linecap="round"></path><path d="M 311.000,90.000 C 315.800,88.200 313.931,89.483 317.000,90.000" stroke-width="3.787" stroke="black" fill="none" stroke-linecap="round"></path><path d="M 317.000,90.000 C 317.494,94.554 318.800,92.700 317.000,99.000" stroke-width="4.226" stroke="black" fill="none" stroke-linecap="round"></path><path d="M 317.000,99.000 C 316.068,103.516 316.494,103.554 315.000,108.000" stroke-width="3.743" stroke="black" fill="none" stroke-linecap="round"></path><path d="M 315.000,108.000 C 313.313,113.960 313.568,114.016 312.000,120.000" stroke-width="3.388" stroke="black" fill="none" stroke-linecap="round"></path><path d="M 312.000,120.000 C 310.528,125.457 310.813,125.460 310.000,131.000" stroke-width="3.445" stroke="black" fill="none" stroke-linecap="round"></path><path d="M 310.000,131.000 C 309.707,136.021 309.528,135.957 310.000,141.000" stroke-width="3.512" stroke="black" fill="none" stroke-linecap="round"></path><path d="M 310.000,141.000 C 309.409,145.045 310.207,144.521 311.000,148.000" stroke-width="3.724" stroke="black" fill="none" stroke-linecap="round"></path><path d="M 311.000,148.000 C 313.450,151.971 312.909,151.545 317.000,154.000" stroke-width="3.793" stroke="black" fill="none" stroke-linecap="round"></path><path d="M 317.000,154.000 C 320.929,155.445 320.450,155.971 325.000,156.000" stroke-width="3.736" stroke="black" fill="none" stroke-linecap="round"></path><path d="M 325.000,156.000 C 332.055,157.463 331.929,156.945 339.000,157.000" stroke-width="3.252" stroke="black" fill="none" stroke-linecap="round"></path><path d="M 339.000,157.000 C 347.150,156.078 347.055,156.463 355.000,154.000" stroke-width="2.913" stroke="black" fill="none" stroke-linecap="round"></path><path d="M 355.000,154.000 C 363.881,150.565 364.150,151.578 373.000,148.000" stroke-width="2.667" stroke="black" fill="none" stroke-linecap="round"></path><path d="M 373.000,148.000 C 379.939,145.921 379.881,146.065 387.000,145.000" stroke-width="2.977" stroke="black" fill="none" stroke-linecap="round"></path><path d="M 387.000,145.000 C 391.620,144.374 391.439,144.421 396.000,145.000" stroke-width="3.435" stroke="black" fill="none" stroke-linecap="round"></path><path d="M 396.000,145.000 C 399.250,145.250 398.620,145.374 401.000,147.000" stroke-width="4.309" stroke="black" fill="none" stroke-linecap="round"></path><path d="M 401.000,147.000 C 400.909,150.606 402.750,148.750 403.000,152.000" stroke-width="4.283" stroke="black" fill="none" stroke-linecap="round"></path><path d="M 403.000,152.000 C 409.221,156.003 408.409,155.606 416.000,157.000" stroke-width="4.022" stroke="black" fill="none" stroke-linecap="round"></path><path d="M 416.000,157.000 C 426.517,157.446 426.221,158.503 437.000,157.000" stroke-width="2.971" stroke="black" fill="none" stroke-linecap="round"></path><path d="M 437.000,157.000 C 450.070,156.588 450.017,156.446 463.000,155.000" stroke-width="2.335" stroke="black" fill="none" stroke-linecap="round"></path><path d="M 463.000,155.000 C 478.521,152.624 478.570,153.088 494.000,150.000" stroke-width="2.071" stroke="black" fill="none" stroke-linecap="round"></path><path d="M 494.000,150.000 C 507.915,146.878 508.021,147.624 522.000,145.000" stroke-width="2.094" stroke="black" fill="none" stroke-linecap="round"></path><path d="M 522.000,145.000 C 537.982,143.271 537.915,142.878 554.000,142.000" stroke-width="1.932" stroke="black" fill="none" stroke-linecap="round"></path><path d="M 554.000,142.000 C 569.489,140.789 569.482,140.771 585.000,140.000" stroke-width="1.972" stroke="black" fill="none" stroke-linecap="round"></path><path d="M 585.000,140.000 C 599.001,139.518 598.989,139.289 613.000,139.000" stroke-width="2.022" stroke="black" fill="none" stroke-linecap="round"></path><path d="M 613.000,139.000 C 625.996,138.289 626.001,138.518 639.000,138.000" stroke-width="2.105" stroke="black" fill="none" stroke-linecap="round"></path><path d="M 639.000,138.000 C 648.500,138.000 648.496,137.789 658.000,138.000" stroke-width="2.411" stroke="black" fill="none" stroke-linecap="round"></path><path d="M 658.000,138.000 C 668.217,136.481 663.000,138.000 668.000,138.000" stroke-width="3.145" stroke="black" fill="none" stroke-linecap="round"></path><path d="M 668.000,138.000 C 662.931,142.529 667.717,139.981 657.000,145.000" stroke-width="3.953" stroke="black" fill="none" stroke-linecap="round"></path><path d="M 657.000,145.000 C 650.538,146.692 650.931,147.529 644.000,148.000" stroke-width="3.356" stroke="black" fill="none" stroke-linecap="round"></path><path d="M 644.000,148.000 C 638.043,149.517 638.038,149.192 632.000,150.000" stroke-width="3.301" stroke="black" fill="none" stroke-linecap="round"></path><path d="M 632.000,150.000 C 625.500,150.000 625.543,150.517 619.000,150.000" stroke-width="3.221" stroke="black" fill="none" stroke-linecap="round"></path><path d="M 619.000,150.000 C 610.938,150.774 611.000,150.000 603.000,150.000" stroke-width="2.924" stroke="black" fill="none" stroke-linecap="round"></path><path d="M 603.000,150.000 C 590.538,147.729 590.438,148.774 578.000,146.000" stroke-width="2.425" stroke="black" fill="none" stroke-linecap="round"></path><path d="M 578.000,146.000 C 561.567,143.062 561.538,143.729 545.000,142.000" stroke-width="2.035" stroke="black" fill="none" stroke-linecap="round"></path><path d="M 545.000,142.000 C 522.501,141.000 522.567,140.562 500.000,141.000" stroke-width="1.663" stroke="black" fill="none" stroke-linecap="round"></path><path d="M 500.000,141.000 C 473.149,138.542 473.501,141.000 447.000,142.000" stroke-width="1.394" stroke="black" fill="none" stroke-linecap="round"></path><path d="M 447.000,142.000 C 413.033,149.655 412.649,146.542 379.000,157.000" stroke-width="1.177" stroke="black" fill="none" stroke-linecap="round"></path><path d="M 379.000,157.000 C 343.489,164.449 343.533,164.655 308.000,172.000" stroke-width="1.125" stroke="black" fill="none" stroke-linecap="round"></path><path d="M 308.000,172.000 C 273.199,180.625 272.989,179.449 238.000,187.000" stroke-width="1.125" stroke="black" fill="none" stroke-linecap="round"></path><path d="M 238.000,187.000 C 209.624,192.546 209.699,192.125 181.000,195.000" stroke-width="1.212" stroke="black" fill="none" stroke-linecap="round"></path><path d="M 181.000,195.000 C 156.992,196.000 157.124,197.046 133.000,196.000" stroke-width="1.341" stroke="black" fill="none" stroke-linecap="round"></path><path d="M 133.000,196.000 C 123.226,196.892 123.492,196.000 114.000,195.000" stroke-width="2.052" stroke="black" fill="none" stroke-linecap="round"></path></svg>