<svg xmlns="http://www.w3.org/2000/svg" xmlns:xlink="http://www.w3.org/1999/xlink" viewBox="0 0 798 397" width="798" height="397"><path d="M 224.000,230.000 C 221.478,228.027 221.500,228.000 219.000,226.000" stroke-width="5.386" stroke="black" fill="none" stroke-linecap="round"></path><path d="M 219.000,226.000 C 215.951,223.557 215.978,223.527 213.000,221.000" stroke-width="4.214" stroke="black" fill="none" stroke-linecap="round"></path><path d="M 213.000,221.000 C 208.500,217.000 208.451,217.057 204.000,213.000" stroke-width="3.457" stroke="black" fill="none" stroke-linecap="round"></path><path d="M 204.000,213.000 C 199.556,208.935 199.500,209.000 195.000,205.000" stroke-width="3.340" stroke="black" fill="none" stroke-linecap="round"></path><path d="M 195.000,205.000 C 188.513,199.485 188.556,199.435 182.000,194.000" stroke-width="2.884" stroke="black" fill="none" stroke-linecap="round"></path><path d="M 182.000,194.000 C 179.228,191.152 179.013,191.485 176.000,189.000" stroke-width="3.501" stroke="black" fill="none" stroke-linecap="round"></path><path d="M 176.000,189.000 C 169.628,188.047 173.228,187.152 170.000,186.000" stroke-width="3.857" stroke="black" fill="none" stroke-linecap="round"></path><path d="M 170.000,186.000 C 173.279,180.833 170.628,182.547 178.000,178.000" stroke-width="4.819" stroke="black" fill="none" stroke-linecap="round"></path><path d="M 178.000,178.000 C 184.072,176.196 183.279,174.833 190.000,174.000" stroke-width="3.580" stroke="black" fill="none" stroke-linecap="round"></path><path d="M 190.000,174.000 C 197.801,171.599 197.572,171.196 205.000,168.000" stroke-width="2.995" stroke="black" fill="none" stroke-linecap="round"></path><path d="M 205.000,168.000 C 211.302,163.628 211.801,164.599 218.000,160.000" stroke-width="2.973" stroke="black" fill="none" stroke-linecap="round"></path><path d="M 218.000,160.000 C 223.843,158.094 223.302,157.128 229.000,155.000" stroke-width="3.187" stroke="black" fill="none" stroke-linecap="round"></path><path d="M 229.000,155.000 C 236.019,150.026 236.343,150.594 243.000,145.000" stroke-width="2.838" stroke="black" fill="none" stroke-linecap="round"></path><path d="M 243.000,145.000 C 248.136,140.383 248.519,141.026 254.000,137.000" stroke-width="3.033" stroke="black" fill="none" stroke-linecap="round"></path><path d="M 254.000,137.000 C 261.397,133.258 261.136,132.883 269.000,130.000" stroke-width="2.902" stroke="black" fill="none" stroke-linecap="round"></path><path d="M 269.000,130.000 C 275.556,127.636 275.397,127.258 282.000,125.000" stroke-width="3.032" stroke="black" fill="none" stroke-linecap="round"></path><path d="M 282.000,125.000 C 286.603,123.198 286.556,123.136 291.000,121.000" stroke-width="3.334" stroke="black" fill="none" stroke-linecap="round"></path><path d="M 291.000,121.000 C 295.500,117.500 293.603,119.698 296.000,118.000" stroke-width="4.541" stroke="black" fill="none" stroke-linecap="round"></path><path d="M 296.000,118.000 C 294.721,120.654 296.500,118.500 293.000,123.000" stroke-width="4.878" stroke="black" fill="none" stroke-linecap="round"></path><path d="M 293.000,123.000 C 288.880,127.908 289.221,128.154 285.000,133.000" stroke-width="3.422" stroke="black" fill="none" stroke-linecap="round"></path><path d="M 285.000,133.000 C 281.048,138.535 280.880,138.408 277.000,144.000" stroke-width="3.146" stroke="black" fill="none" stroke-linecap="round"></path><path d="M 277.000,144.000 C 270.643,151.753 271.048,152.035 265.000,160.000" stroke-width="2.664" stroke="black" fill="none" stroke-linecap="round"></path><path d="M 265.000,160.000 C 258.814,171.582 257.643,170.753 251.000,182.000" stroke-width="2.273" stroke="black" fill="none" stroke-linecap="round"></path><path d="M 251.000,182.000 C 231.678,207.593 231.814,207.582 211.000,232.000" stroke-width="1.848" stroke="black" fill="none" stroke-linecap="round"></path><path d="M 211.000,232.000 C 200.366,242.875 201.178,243.593 190.000,254.000" stroke-width="1.911" stroke="black" fill="none" stroke-linecap="round"></path><path d="M 190.000,254.000 C 179.960,264.964 179.866,264.875 170.000,276.000" stroke-width="2.004" stroke="black" fill="none" stroke-linecap="round"></path><path d="M 170.000,276.000 C 162.238,286.290 161.460,285.464 153.000,295.000" stroke-width="2.170" stroke="black" fill="none" stroke-linecap="round"></path><path d="M 153.000,295.000 C 143.812,301.770 144.738,302.790 135.000,309.000" stroke-width="2.328" stroke="black" fill="none" stroke-linecap="round"></path><path d="M 135.000,309.000 C 124.783,318.374 124.312,317.770 114.000,327.000" stroke-width="2.135" stroke="black" fill="none" stroke-linecap="round"></path><path d="M 114.000,327.000 C 109.695,330.359 109.783,330.374 105.000,333.000" stroke-width="2.906" stroke="black" fill="none" stroke-linecap="round"></path></svg>