<svg xmlns="http://www.w3.org/2000/svg" xmlns:xlink="http://www.w3.org/1999/xlink" viewBox="0 0 724 340" width="724" height="340"><path d="M 314.000,73.000 C 308.339,73.521 309.000,74.500 304.000,76.000" stroke-width="3.934" stroke="black" fill="none" stroke-linecap="round"></path><path d="M 304.000,76.000 C 302.014,78.512 301.339,77.521 300.000,81.000" stroke-width="4.157" stroke="black" fill="none" stroke-linecap="round"></path><path d="M 300.000,81.000 C 293.313,88.854 293.514,89.012 287.000,97.000" stroke-width="2.878" stroke="black" fill="none" stroke-linecap="round"></path><path d="M 287.000,97.000 C 278.191,109.148 277.813,108.854 269.000,121.000" stroke-width="2.231" stroke="black" fill="none" stroke-linecap="round"></path><path d="M 269.000,121.000 C 259.194,133.660 259.191,133.648 249.000,146.000" stroke-width="2.027" stroke="black" fill="none" stroke-linecap="round"></path><path d="M 249.000,146.000 C 240.234,156.711 240.194,156.660 231.000,167.000" stroke-width="2.106" stroke="black" fill="none" stroke-linecap="round"></path><path d="M 231.000,167.000 C 222.598,176.095 222.734,176.211 214.000,185.000" stroke-width="2.331" stroke="black" fill="none" stroke-linecap="round"></path><path d="M 214.000,185.000 C 208.500,190.500 208.598,190.595 203.000,196.000" stroke-width="2.673" stroke="black" fill="none" stroke-linecap="round"></path><path d="M 203.000,196.000 C 196.424,204.000 199.000,200.000 195.000,204.000" stroke-width="3.175" stroke="black" fill="none" stroke-linecap="round"></path><path d="M 195.000,204.000 C 196.249,199.891 193.924,204.000 198.000,196.000" stroke-width="4.038" stroke="black" fill="none" stroke-linecap="round"></path><path d="M 297.000,65.000 C 300.972,66.124 301.000,66.000 305.000,67.000" stroke-width="5.185" stroke="black" fill="none" stroke-linecap="round"></path><path d="M 305.000,67.000 C 312.510,68.450 312.472,68.624 320.000,70.000" stroke-width="3.398" stroke="black" fill="none" stroke-linecap="round"></path><path d="M 320.000,70.000 C 326.934,71.953 327.010,71.450 334.000,73.000" stroke-width="3.086" stroke="black" fill="none" stroke-linecap="round"></path><path d="M 334.000,73.000 C 340.493,73.690 340.434,73.953 347.000,74.000" stroke-width="3.153" stroke="black" fill="none" stroke-linecap="round"></path><path d="M 347.000,74.000 C 355.958,71.946 350.993,74.190 355.000,74.000" stroke-width="3.549" stroke="black" fill="none" stroke-linecap="round"></path><path d="M 355.000,74.000 C 348.220,82.378 352.458,79.446 340.000,89.000" stroke-width="3.835" stroke="black" fill="none" stroke-linecap="round"></path><path d="M 340.000,89.000 C 329.710,96.336 330.220,96.878 319.000,103.000" stroke-width="2.651" stroke="black" fill="none" stroke-linecap="round"></path><path d="M 319.000,103.000 C 307.061,110.108 307.210,110.336 295.000,117.000" stroke-width="2.204" stroke="black" fill="none" stroke-linecap="round"></path><path d="M 295.000,117.000 C 286.082,122.156 286.061,122.108 277.000,127.000" stroke-width="2.377" stroke="black" fill="none" stroke-linecap="round"></path><path d="M 277.000,127.000 C 265.000,130.659 271.082,130.156 265.000,133.000" stroke-width="2.817" stroke="black" fill="none" stroke-linecap="round"></path><path d="M 265.000,133.000 C 270.882,135.460 265.000,135.159 277.000,136.000" stroke-width="3.821" stroke="black" fill="none" stroke-linecap="round"></path><path d="M 277.000,136.000 C 288.007,135.732 287.882,136.960 299.000,136.000" stroke-width="2.816" stroke="black" fill="none" stroke-linecap="round"></path><path d="M 299.000,136.000 C 308.607,135.788 308.507,136.232 318.000,137.000" stroke-width="2.639" stroke="black" fill="none" stroke-linecap="round"></path><path d="M 318.000,137.000 C 324.946,137.157 324.107,137.788 330.000,140.000" stroke-width="2.991" stroke="black" fill="none" stroke-linecap="round"></path><path d="M 330.000,140.000 C 335.398,143.902 332.946,141.657 334.000,146.000" stroke-width="3.994" stroke="black" fill="none" stroke-linecap="round"></path><path d="M 334.000,146.000 C 328.141,149.313 331.398,149.902 322.000,152.000" stroke-width="3.290" stroke="black" fill="none" stroke-linecap="round"></path><path d="M 322.000,152.000 C 312.100,156.267 312.141,156.313 302.000,160.000" stroke-width="2.610" stroke="black" fill="none" stroke-linecap="round"></path><path d="M 302.000,160.000 C 288.797,163.982 289.100,164.767 276.000,169.000" stroke-width="2.383" stroke="black" fill="none" stroke-linecap="round"></path><path d="M 276.000,169.000 C 263.313,174.111 263.297,173.982 251.000,180.000" stroke-width="2.221" stroke="black" fill="none" stroke-linecap="round"></path><path d="M 251.000,180.000 C 240.476,185.454 240.313,185.111 230.000,191.000" stroke-width="2.253" stroke="black" fill="none" stroke-linecap="round"></path><path d="M 230.000,191.000 C 223.452,194.416 223.476,194.454 217.000,198.000" stroke-width="2.685" stroke="black" fill="none" stroke-linecap="round"></path><path d="M 217.000,198.000 C 210.940,201.454 214.452,199.416 212.000,201.000" stroke-width="3.552" stroke="black" fill="none" stroke-linecap="round"></path><path d="M 380.000,164.000 C 374.682,162.476 376.000,164.500 372.000,165.000" stroke-width="4.972" stroke="black" fill="none" stroke-linecap="round"></path><path d="M 372.000,165.000 C 367.719,172.639 366.182,170.476 363.000,180.000" stroke-width="3.467" stroke="black" fill="none" stroke-linecap="round"></path><path d="M 363.000,180.000 C 354.941,191.961 355.219,192.139 347.000,204.000" stroke-width="2.369" stroke="black" fill="none" stroke-linecap="round"></path><path d="M 347.000,204.000 C 338.901,215.169 339.441,215.461 332.000,227.000" stroke-width="2.212" stroke="black" fill="none" stroke-linecap="round"></path><path d="M 332.000,227.000 C 329.584,233.907 328.401,233.169 326.000,240.000" stroke-width="2.692" stroke="black" fill="none" stroke-linecap="round"></path><circle r="1.5" cx="421" cy="94" fill="black"></circle><path d="M 506.000,67.000 C 496.801,76.469 497.500,77.000 489.000,87.000" stroke-width="2.618" stroke="black" fill="none" stroke-linecap="round"></path><path d="M 489.000,87.000 C 477.926,104.304 476.801,103.469 466.000,121.000" stroke-width="1.913" stroke="black" fill="none" stroke-linecap="round"></path><path d="M 466.000,121.000 C 452.945,139.355 452.926,139.304 439.000,157.000" stroke-width="1.637" stroke="black" fill="none" stroke-linecap="round"></path><path d="M 439.000,157.000 C 427.104,169.346 428.445,170.355 417.000,183.000" stroke-width="1.747" stroke="black" fill="none" stroke-linecap="round"></path><path d="M 417.000,183.000 C 408.653,194.561 408.604,194.346 402.000,207.000" stroke-width="1.937" stroke="black" fill="none" stroke-linecap="round"></path><path d="M 402.000,207.000 C 397.098,216.318 397.153,216.061 394.000,226.000" stroke-width="2.274" stroke="black" fill="none" stroke-linecap="round"></path><path d="M 566.000,46.000 C 562.768,45.379 563.500,46.500 561.000,47.000" stroke-width="4.946" stroke="black" fill="none" stroke-linecap="round"></path><path d="M 561.000,47.000 C 557.682,52.134 556.768,50.879 554.000,57.000" stroke-width="3.644" stroke="black" fill="none" stroke-linecap="round"></path><path d="M 554.000,57.000 C 543.327,70.368 543.682,70.634 533.000,84.000" stroke-width="2.187" stroke="black" fill="none" stroke-linecap="round"></path><path d="M 533.000,84.000 C 518.898,103.809 518.327,103.368 504.000,123.000" stroke-width="1.620" stroke="black" fill="none" stroke-linecap="round"></path><path d="M 504.000,123.000 C 489.322,141.772 489.398,141.809 474.000,160.000" stroke-width="1.519" stroke="black" fill="none" stroke-linecap="round"></path><path d="M 474.000,160.000 C 459.190,175.369 460.322,176.272 446.000,192.000" stroke-width="1.579" stroke="black" fill="none" stroke-linecap="round"></path><path d="M 446.000,192.000 C 435.470,204.209 436.190,204.369 428.000,218.000" stroke-width="1.832" stroke="black" fill="none" stroke-linecap="round"></path></svg>