<svg xmlns="http://www.w3.org/2000/svg" xmlns:xlink="http://www.w3.org/1999/xlink" viewBox="0 0 724 340" width="724" height="340"><path d="M 189.000,171.000 C 184.151,164.929 183.500,166.500 178.000,162.000" stroke-width="4.548" stroke="black" fill="none" stroke-linecap="round"></path><path d="M 178.000,162.000 C 172.883,161.977 173.651,159.929 168.000,161.000" stroke-width="4.402" stroke="black" fill="none" stroke-linecap="round"></path><path d="M 168.000,161.000 C 165.449,160.113 165.383,160.477 163.000,159.000" stroke-width="4.351" stroke="black" fill="none" stroke-linecap="round"></path><path d="M 163.000,159.000 C 159.892,157.687 159.949,157.613 157.000,156.000" stroke-width="4.072" stroke="black" fill="none" stroke-linecap="round"></path><path d="M 157.000,156.000 C 151.829,154.488 153.892,154.187 151.000,152.000" stroke-width="4.422" stroke="black" fill="none" stroke-linecap="round"></path><path d="M 151.000,152.000 C 151.832,148.735 150.329,149.988 154.000,147.000" stroke-width="5.074" stroke="black" fill="none" stroke-linecap="round"></path><path d="M 154.000,147.000 C 157.598,145.701 156.832,144.735 161.000,144.000" stroke-width="4.178" stroke="black" fill="none" stroke-linecap="round"></path><path d="M 161.000,144.000 C 165.489,141.481 165.598,141.701 170.000,139.000" stroke-width="3.619" stroke="black" fill="none" stroke-linecap="round"></path><path d="M 170.000,139.000 C 175.803,136.465 175.489,135.981 181.000,133.000" stroke-width="3.281" stroke="black" fill="none" stroke-linecap="round"></path><path d="M 181.000,133.000 C 187.381,127.837 187.803,128.465 194.000,123.000" stroke-width="3.037" stroke="black" fill="none" stroke-linecap="round"></path><path d="M 194.000,123.000 C 200.619,118.663 200.381,118.337 207.000,114.000" stroke-width="2.950" stroke="black" fill="none" stroke-linecap="round"></path><path d="M 207.000,114.000 C 213.571,109.090 213.619,109.163 220.000,104.000" stroke-width="2.761" stroke="black" fill="none" stroke-linecap="round"></path><path d="M 220.000,104.000 C 225.477,99.471 225.571,99.590 231.000,95.000" stroke-width="2.910" stroke="black" fill="none" stroke-linecap="round"></path><path d="M 231.000,95.000 C 235.915,90.888 235.977,90.971 241.000,87.000" stroke-width="3.113" stroke="black" fill="none" stroke-linecap="round"></path><path d="M 241.000,87.000 C 244.348,84.247 244.415,84.388 248.000,82.000" stroke-width="3.475" stroke="black" fill="none" stroke-linecap="round"></path><path d="M 248.000,82.000 C 254.000,77.240 250.848,80.247 254.000,79.000" stroke-width="3.848" stroke="black" fill="none" stroke-linecap="round"></path><path d="M 254.000,79.000 C 252.138,87.184 254.000,83.240 248.000,94.000" stroke-width="4.459" stroke="black" fill="none" stroke-linecap="round"></path><path d="M 248.000,94.000 C 242.541,100.535 243.638,101.184 237.000,107.000" stroke-width="3.161" stroke="black" fill="none" stroke-linecap="round"></path><path d="M 237.000,107.000 C 230.421,114.433 230.541,114.535 224.000,122.000" stroke-width="2.742" stroke="black" fill="none" stroke-linecap="round"></path><path d="M 224.000,122.000 C 216.794,131.261 216.421,130.933 209.000,140.000" stroke-width="2.467" stroke="black" fill="none" stroke-linecap="round"></path><path d="M 209.000,140.000 C 200.250,149.750 200.294,149.761 191.000,159.000" stroke-width="2.285" stroke="black" fill="none" stroke-linecap="round"></path><path d="M 191.000,159.000 C 181.724,168.248 181.750,168.250 172.000,177.000" stroke-width="2.177" stroke="black" fill="none" stroke-linecap="round"></path><path d="M 172.000,177.000 C 161.518,186.021 161.724,186.248 151.000,195.000" stroke-width="2.152" stroke="black" fill="none" stroke-linecap="round"></path><path d="M 151.000,195.000 C 141.319,203.912 141.018,203.521 131.000,212.000" stroke-width="2.193" stroke="black" fill="none" stroke-linecap="round"></path><path d="M 131.000,212.000 C 122.353,217.803 122.819,218.412 114.000,224.000" stroke-width="2.418" stroke="black" fill="none" stroke-linecap="round"></path><path d="M 114.000,224.000 C 107.414,230.153 106.853,229.303 100.000,235.000" stroke-width="2.640" stroke="black" fill="none" stroke-linecap="round"></path><path d="M 100.000,235.000 C 94.142,238.330 94.414,238.653 88.000,241.000" stroke-width="2.973" stroke="black" fill="none" stroke-linecap="round"></path><path d="M 88.000,241.000 C 82.625,243.520 82.642,243.330 77.000,245.000" stroke-width="3.161" stroke="black" fill="none" stroke-linecap="round"></path><path d="M 77.000,245.000 C 73.013,245.713 73.125,246.020 69.000,246.000" stroke-width="3.635" stroke="black" fill="none" stroke-linecap="round"></path><path d="M 69.000,246.000 C 66.000,246.000 66.013,246.213 63.000,246.000" stroke-width="3.986" stroke="black" fill="none" stroke-linecap="round"></path><path d="M 63.000,246.000 C 58.206,247.716 59.500,246.000 56.000,246.000" stroke-width="4.452" stroke="black" fill="none" stroke-linecap="round"></path><path d="M 56.000,246.000 C 52.810,242.173 53.706,244.216 54.000,239.000" stroke-width="4.593" stroke="black" fill="none" stroke-linecap="round"></path><path d="M 54.000,239.000 C 58.692,229.810 57.310,230.173 65.000,222.000" stroke-width="3.167" stroke="black" fill="none" stroke-linecap="round"></path><path d="M 65.000,222.000 C 69.799,217.255 69.192,216.810 75.000,213.000" stroke-width="3.088" stroke="black" fill="none" stroke-linecap="round"></path><path d="M 75.000,213.000 C 80.672,207.984 80.799,208.255 87.000,204.000" stroke-width="3.018" stroke="black" fill="none" stroke-linecap="round"></path><path d="M 87.000,204.000 C 94.354,199.699 94.172,199.484 102.000,196.000" stroke-width="2.871" stroke="black" fill="none" stroke-linecap="round"></path><path d="M 102.000,196.000 C 109.962,192.410 109.854,192.199 118.000,189.000" stroke-width="2.803" stroke="black" fill="none" stroke-linecap="round"></path><path d="M 118.000,189.000 C 126.538,185.590 126.462,185.410 135.000,182.000" stroke-width="2.670" stroke="black" fill="none" stroke-linecap="round"></path><path d="M 135.000,182.000 C 142.881,178.198 143.038,178.590 151.000,175.000" stroke-width="2.743" stroke="black" fill="none" stroke-linecap="round"></path><path d="M 151.000,175.000 C 159.425,171.766 159.381,171.698 168.000,169.000" stroke-width="2.734" stroke="black" fill="none" stroke-linecap="round"></path><path d="M 168.000,169.000 C 174.941,166.765 174.925,166.766 182.000,165.000" stroke-width="2.878" stroke="black" fill="none" stroke-linecap="round"></path><path d="M 182.000,165.000 C 188.981,163.404 188.941,163.265 196.000,162.000" stroke-width="2.999" stroke="black" fill="none" stroke-linecap="round"></path><path d="M 196.000,162.000 C 201.533,161.151 201.481,160.904 207.000,160.000" stroke-width="3.264" stroke="black" fill="none" stroke-linecap="round"></path><path d="M 207.000,160.000 C 211.208,159.517 211.033,159.151 215.000,158.000" stroke-width="3.614" stroke="black" fill="none" stroke-linecap="round"></path><path d="M 215.000,158.000 C 219.720,156.850 218.708,156.517 222.000,154.000" stroke-width="4.220" stroke="black" fill="none" stroke-linecap="round"></path><path d="M 222.000,154.000 C 224.456,148.624 223.720,151.850 223.000,148.000" stroke-width="4.760" stroke="black" fill="none" stroke-linecap="round"></path><path d="M 223.000,148.000 C 218.899,149.267 220.956,147.124 215.000,151.000" stroke-width="4.800" stroke="black" fill="none" stroke-linecap="round"></path><path d="M 215.000,151.000 C 210.000,153.500 209.899,153.267 205.000,156.000" stroke-width="4.389" stroke="black" fill="none" stroke-linecap="round"></path><path d="M 205.000,156.000 C 201.952,157.410 202.000,157.500 199.000,159.000" stroke-width="4.134" stroke="black" fill="none" stroke-linecap="round"></path><path d="M 199.000,159.000 C 195.196,160.603 195.452,160.910 192.000,163.000" stroke-width="3.906" stroke="black" fill="none" stroke-linecap="round"></path><path d="M 192.000,163.000 C 188.519,164.962 189.196,165.103 187.000,168.000" stroke-width="3.952" stroke="black" fill="none" stroke-linecap="round"></path><path d="M 187.000,168.000 C 183.517,173.540 185.019,171.962 185.000,177.000" stroke-width="4.253" stroke="black" fill="none" stroke-linecap="round"></path><path d="M 185.000,177.000 C 188.650,180.721 186.517,180.540 193.000,182.000" stroke-width="4.357" stroke="black" fill="none" stroke-linecap="round"></path><path d="M 193.000,182.000 C 197.514,182.249 197.150,183.221 202.000,182.000" stroke-width="3.858" stroke="black" fill="none" stroke-linecap="round"></path><path d="M 202.000,182.000 C 206.788,182.404 206.514,181.749 211.000,181.000" stroke-width="3.725" stroke="black" fill="none" stroke-linecap="round"></path><path d="M 211.000,181.000 C 215.779,178.902 215.788,179.404 220.000,176.000" stroke-width="3.567" stroke="black" fill="none" stroke-linecap="round"></path><path d="M 220.000,176.000 C 223.500,173.000 223.779,173.402 227.000,170.000" stroke-width="3.623" stroke="black" fill="none" stroke-linecap="round"></path><path d="M 227.000,170.000 C 230.914,167.367 230.500,167.000 234.000,164.000" stroke-width="3.640" stroke="black" fill="none" stroke-linecap="round"></path><path d="M 234.000,164.000 C 236.536,161.222 236.414,161.367 238.000,158.000" stroke-width="3.851" stroke="black" fill="none" stroke-linecap="round"></path><path d="M 238.000,158.000 C 238.770,155.527 239.036,155.722 239.000,153.000" stroke-width="4.172" stroke="black" fill="none" stroke-linecap="round"></path><path d="M 239.000,153.000 C 240.714,148.286 239.270,150.027 239.000,147.000" stroke-width="4.581" stroke="black" fill="none" stroke-linecap="round"></path><path d="M 239.000,147.000 C 234.735,146.004 236.714,145.286 231.000,147.000" stroke-width="4.078" stroke="black" fill="none" stroke-linecap="round"></path><path d="M 231.000,147.000 C 227.032,148.434 227.235,148.004 224.000,151.000" stroke-width="3.891" stroke="black" fill="none" stroke-linecap="round"></path><path d="M 224.000,151.000 C 220.538,154.193 220.532,153.934 218.000,158.000" stroke-width="3.818" stroke="black" fill="none" stroke-linecap="round"></path><path d="M 218.000,158.000 C 215.890,161.949 215.538,161.693 214.000,166.000" stroke-width="3.724" stroke="black" fill="none" stroke-linecap="round"></path><path d="M 214.000,166.000 C 212.198,169.406 212.390,169.449 211.000,173.000" stroke-width="3.785" stroke="black" fill="none" stroke-linecap="round"></path><path d="M 211.000,173.000 C 208.364,177.405 210.198,175.406 210.000,178.000" stroke-width="4.497" stroke="black" fill="none" stroke-linecap="round"></path><path d="M 210.000,178.000 C 216.296,178.556 213.864,179.405 222.000,177.000" stroke-width="4.522" stroke="black" fill="none" stroke-linecap="round"></path><path d="M 222.000,177.000 C 227.049,174.593 227.296,175.556 232.000,172.000" stroke-width="3.668" stroke="black" fill="none" stroke-linecap="round"></path><path d="M 232.000,172.000 C 237.491,168.984 237.549,169.093 243.000,166.000" stroke-width="3.293" stroke="black" fill="none" stroke-linecap="round"></path><path d="M 243.000,166.000 C 249.963,163.179 249.491,162.484 256.000,159.000" stroke-width="3.090" stroke="black" fill="none" stroke-linecap="round"></path><path d="M 256.000,159.000 C 262.421,153.404 262.963,154.179 269.000,148.000" stroke-width="2.825" stroke="black" fill="none" stroke-linecap="round"></path><path d="M 269.000,148.000 C 276.894,142.440 276.421,141.904 284.000,136.000" stroke-width="2.694" stroke="black" fill="none" stroke-linecap="round"></path><path d="M 284.000,136.000 C 292.850,127.829 292.894,127.940 301.000,119.000" stroke-width="2.365" stroke="black" fill="none" stroke-linecap="round"></path><path d="M 301.000,119.000 C 316.556,101.549 316.850,101.829 332.000,84.000" stroke-width="1.794" stroke="black" fill="none" stroke-linecap="round"></path><path d="M 332.000,84.000 C 338.590,76.576 338.556,76.549 345.000,69.000" stroke-width="2.242" stroke="black" fill="none" stroke-linecap="round"></path><path d="M 345.000,69.000 C 349.561,63.549 349.590,63.576 354.000,58.000" stroke-width="2.805" stroke="black" fill="none" stroke-linecap="round"></path><path d="M 354.000,58.000 C 357.692,53.631 357.561,53.549 361.000,49.000" stroke-width="3.223" stroke="black" fill="none" stroke-linecap="round"></path><path d="M 361.000,49.000 C 365.285,44.734 362.692,46.631 364.000,44.000" stroke-width="3.804" stroke="black" fill="none" stroke-linecap="round"></path><path d="M 364.000,44.000 C 358.330,42.835 361.785,42.734 354.000,45.000" stroke-width="4.499" stroke="black" fill="none" stroke-linecap="round"></path><path d="M 354.000,45.000 C 346.771,50.232 346.330,48.835 340.000,56.000" stroke-width="3.183" stroke="black" fill="none" stroke-linecap="round"></path><path d="M 340.000,56.000 C 333.251,61.749 333.271,61.732 327.000,68.000" stroke-width="2.807" stroke="black" fill="none" stroke-linecap="round"></path><path d="M 327.000,68.000 C 319.454,75.056 319.751,75.249 313.000,83.000" stroke-width="2.621" stroke="black" fill="none" stroke-linecap="round"></path><path d="M 313.000,83.000 C 307.000,91.500 306.454,91.056 301.000,100.000" stroke-width="2.556" stroke="black" fill="none" stroke-linecap="round"></path><path d="M 301.000,100.000 C 294.949,108.464 295.000,108.500 289.000,117.000" stroke-width="2.537" stroke="black" fill="none" stroke-linecap="round"></path><path d="M 289.000,117.000 C 283.451,124.967 283.449,124.964 278.000,133.000" stroke-width="2.540" stroke="black" fill="none" stroke-linecap="round"></path><path d="M 278.000,133.000 C 273.537,138.743 273.951,138.967 270.000,145.000" stroke-width="2.872" stroke="black" fill="none" stroke-linecap="round"></path><path d="M 270.000,145.000 C 267.297,150.420 267.037,150.243 265.000,156.000" stroke-width="3.097" stroke="black" fill="none" stroke-linecap="round"></path><path d="M 265.000,156.000 C 263.513,158.921 263.797,158.920 263.000,162.000" stroke-width="3.697" stroke="black" fill="none" stroke-linecap="round"></path><path d="M 263.000,162.000 C 261.649,166.649 262.513,164.921 263.000,168.000" stroke-width="4.368" stroke="black" fill="none" stroke-linecap="round"></path><path d="M 263.000,168.000 C 265.805,168.182 264.149,169.149 268.000,167.000" stroke-width="4.870" stroke="black" fill="none" stroke-linecap="round"></path><path d="M 268.000,167.000 C 272.028,164.037 272.305,164.682 276.000,161.000" stroke-width="3.790" stroke="black" fill="none" stroke-linecap="round"></path><path d="M 276.000,161.000 C 280.412,157.381 280.528,157.537 285.000,154.000" stroke-width="3.484" stroke="black" fill="none" stroke-linecap="round"></path><path d="M 285.000,154.000 C 289.806,150.174 289.912,150.381 295.000,147.000" stroke-width="3.334" stroke="black" fill="none" stroke-linecap="round"></path><path d="M 295.000,147.000 C 299.000,145.000 298.806,144.674 303.000,143.000" stroke-width="3.663" stroke="black" fill="none" stroke-linecap="round"></path><path d="M 303.000,143.000 C 307.632,138.860 306.000,141.500 309.000,140.000" stroke-width="3.868" stroke="black" fill="none" stroke-linecap="round"></path><path d="M 309.000,140.000 C 310.443,144.495 310.632,141.360 309.000,148.000" stroke-width="4.602" stroke="black" fill="none" stroke-linecap="round"></path><path d="M 309.000,148.000 C 305.561,152.549 306.943,152.995 302.000,157.000" stroke-width="3.662" stroke="black" fill="none" stroke-linecap="round"></path><path d="M 302.000,157.000 C 295.541,162.635 299.561,160.049 297.000,163.000" stroke-width="3.841" stroke="black" fill="none" stroke-linecap="round"></path><path d="M 297.000,163.000 C 304.056,162.091 299.541,163.635 310.000,159.000" stroke-width="4.436" stroke="black" fill="none" stroke-linecap="round"></path><path d="M 310.000,159.000 C 316.095,154.621 316.556,155.591 322.000,150.000" stroke-width="3.313" stroke="black" fill="none" stroke-linecap="round"></path><path d="M 322.000,150.000 C 327.424,145.402 327.595,145.621 333.000,141.000" stroke-width="3.134" stroke="black" fill="none" stroke-linecap="round"></path><path d="M 333.000,141.000 C 336.810,137.693 336.924,137.902 341.000,135.000" stroke-width="3.457" stroke="black" fill="none" stroke-linecap="round"></path><path d="M 341.000,135.000 C 347.000,130.852 343.810,133.193 347.000,132.000" stroke-width="3.796" stroke="black" fill="none" stroke-linecap="round"></path><path d="M 347.000,132.000 C 344.446,136.865 347.000,133.852 341.000,141.000" stroke-width="4.396" stroke="black" fill="none" stroke-linecap="round"></path><path d="M 341.000,141.000 C 336.349,145.361 336.946,145.865 332.000,150.000" stroke-width="3.498" stroke="black" fill="none" stroke-linecap="round"></path><path d="M 332.000,150.000 C 325.043,155.565 328.849,153.361 326.000,157.000" stroke-width="3.547" stroke="black" fill="none" stroke-linecap="round"></path><path d="M 326.000,157.000 C 331.371,157.620 327.043,158.565 336.000,156.000" stroke-width="4.392" stroke="black" fill="none" stroke-linecap="round"></path><path d="M 336.000,156.000 C 341.108,153.165 341.371,154.120 346.000,150.000" stroke-width="3.596" stroke="black" fill="none" stroke-linecap="round"></path><path d="M 346.000,150.000 C 352.805,143.633 349.608,147.665 353.000,145.000" stroke-width="3.639" stroke="black" fill="none" stroke-linecap="round"></path><path d="M 353.000,145.000 C 350.374,151.217 353.305,147.133 347.000,157.000" stroke-width="4.405" stroke="black" fill="none" stroke-linecap="round"></path><path d="M 347.000,157.000 C 342.870,162.918 343.374,163.217 339.000,169.000" stroke-width="3.282" stroke="black" fill="none" stroke-linecap="round"></path><path d="M 339.000,169.000 C 335.463,173.767 335.870,173.918 333.000,179.000" stroke-width="3.320" stroke="black" fill="none" stroke-linecap="round"></path><path d="M 333.000,179.000 C 329.116,184.870 331.463,182.267 331.000,186.000" stroke-width="3.730" stroke="black" fill="none" stroke-linecap="round"></path><path d="M 331.000,186.000 C 337.838,187.581 334.116,187.870 343.000,185.000" stroke-width="4.269" stroke="black" fill="none" stroke-linecap="round"></path><path d="M 343.000,185.000 C 351.393,178.936 351.838,180.581 359.000,172.000" stroke-width="2.893" stroke="black" fill="none" stroke-linecap="round"></path><path d="M 359.000,172.000 C 368.249,163.237 368.393,163.436 377.000,154.000" stroke-width="2.347" stroke="black" fill="none" stroke-linecap="round"></path><path d="M 377.000,154.000 C 386.107,144.095 386.249,144.237 395.000,134.000" stroke-width="2.167" stroke="black" fill="none" stroke-linecap="round"></path><path d="M 395.000,134.000 C 404.896,123.319 404.607,123.095 414.000,112.000" stroke-width="2.156" stroke="black" fill="none" stroke-linecap="round"></path><path d="M 414.000,112.000 C 423.310,100.220 423.396,100.319 432.000,88.000" stroke-width="2.069" stroke="black" fill="none" stroke-linecap="round"></path><path d="M 432.000,88.000 C 438.727,77.304 439.310,77.720 446.000,67.000" stroke-width="2.253" stroke="black" fill="none" stroke-linecap="round"></path><path d="M 446.000,67.000 C 451.239,60.666 450.727,60.304 456.000,54.000" stroke-width="2.596" stroke="black" fill="none" stroke-linecap="round"></path><path d="M 456.000,54.000 C 458.662,50.091 458.739,50.166 461.000,46.000" stroke-width="3.191" stroke="black" fill="none" stroke-linecap="round"></path><path d="M 461.000,46.000 C 464.535,40.802 462.662,43.091 464.000,40.000" stroke-width="4.103" stroke="black" fill="none" stroke-linecap="round"></path><path d="M 464.000,40.000 C 461.242,41.154 463.535,39.302 459.000,43.000" stroke-width="4.654" stroke="black" fill="none" stroke-linecap="round"></path><path d="M 459.000,43.000 C 452.862,48.355 452.742,48.154 447.000,54.000" stroke-width="3.246" stroke="black" fill="none" stroke-linecap="round"></path><path d="M 447.000,54.000 C 439.500,61.500 439.362,61.355 432.000,69.000" stroke-width="2.751" stroke="black" fill="none" stroke-linecap="round"></path><path d="M 432.000,69.000 C 423.226,77.243 423.500,77.500 415.000,86.000" stroke-width="2.442" stroke="black" fill="none" stroke-linecap="round"></path><path d="M 415.000,86.000 C 407.402,93.549 407.726,93.743 401.000,102.000" stroke-width="2.482" stroke="black" fill="none" stroke-linecap="round"></path><path d="M 401.000,102.000 C 395.365,110.416 394.902,110.049 390.000,119.000" stroke-width="2.541" stroke="black" fill="none" stroke-linecap="round"></path><path d="M 390.000,119.000 C 384.784,126.161 385.365,126.416 381.000,134.000" stroke-width="2.642" stroke="black" fill="none" stroke-linecap="round"></path><path d="M 381.000,134.000 C 377.998,140.866 377.784,140.661 376.000,148.000" stroke-width="2.883" stroke="black" fill="none" stroke-linecap="round"></path><path d="M 376.000,148.000 C 374.919,153.487 374.498,153.366 374.000,159.000" stroke-width="3.222" stroke="black" fill="none" stroke-linecap="round"></path><path d="M 374.000,159.000 C 373.270,162.484 373.419,162.487 373.000,166.000" stroke-width="3.713" stroke="black" fill="none" stroke-linecap="round"></path><path d="M 373.000,166.000 C 371.286,170.714 372.770,168.984 373.000,172.000" stroke-width="4.389" stroke="black" fill="none" stroke-linecap="round"></path><path d="M 373.000,172.000 C 377.044,172.440 375.286,173.714 381.000,172.000" stroke-width="4.741" stroke="black" fill="none" stroke-linecap="round"></path><path d="M 381.000,172.000 C 386.059,171.235 386.044,171.440 391.000,170.000" stroke-width="3.873" stroke="black" fill="none" stroke-linecap="round"></path><path d="M 391.000,170.000 C 395.955,168.328 396.059,168.735 401.000,167.000" stroke-width="3.532" stroke="black" fill="none" stroke-linecap="round"></path><path d="M 401.000,167.000 C 405.453,165.568 405.455,165.828 410.000,165.000" stroke-width="3.661" stroke="black" fill="none" stroke-linecap="round"></path><path d="M 410.000,165.000 C 418.119,163.602 413.453,164.568 417.000,165.000" stroke-width="4.324" stroke="black" fill="none" stroke-linecap="round"></path><path d="M 417.000,165.000 C 409.771,170.451 414.119,168.602 402.000,175.000" stroke-width="3.688" stroke="black" fill="none" stroke-linecap="round"></path><path d="M 402.000,175.000 C 389.325,182.676 389.271,182.451 376.000,189.000" stroke-width="2.370" stroke="black" fill="none" stroke-linecap="round"></path><path d="M 376.000,189.000 C 359.731,196.603 359.825,196.676 343.000,203.000" stroke-width="1.887" stroke="black" fill="none" stroke-linecap="round"></path><path d="M 343.000,203.000 C 325.724,209.758 325.731,209.603 308.000,215.000" stroke-width="1.855" stroke="black" fill="none" stroke-linecap="round"></path><path d="M 308.000,215.000 C 290.158,220.269 290.224,220.258 272.000,224.000" stroke-width="1.793" stroke="black" fill="none" stroke-linecap="round"></path><path d="M 272.000,224.000 C 253.615,228.215 253.658,227.769 235.000,230.000" stroke-width="1.714" stroke="black" fill="none" stroke-linecap="round"></path><path d="M 235.000,230.000 C 216.998,231.000 217.115,231.715 199.000,231.000" stroke-width="1.776" stroke="black" fill="none" stroke-linecap="round"></path><path d="M 199.000,231.000 C 184.157,232.404 184.498,231.000 170.000,230.000" stroke-width="1.927" stroke="black" fill="none" stroke-linecap="round"></path><path d="M 170.000,230.000 C 157.170,227.585 157.657,227.904 146.000,222.000" stroke-width="2.149" stroke="black" fill="none" stroke-linecap="round"></path><path d="M 146.000,222.000 C 136.187,217.476 137.170,217.585 130.000,210.000" stroke-width="2.436" stroke="black" fill="none" stroke-linecap="round"></path><path d="M 130.000,210.000 C 123.975,201.997 124.187,202.976 122.000,193.000" stroke-width="2.540" stroke="black" fill="none" stroke-linecap="round"></path><path d="M 122.000,193.000 C 119.295,180.689 119.475,181.497 121.000,169.000" stroke-width="2.390" stroke="black" fill="none" stroke-linecap="round"></path><path d="M 121.000,169.000 C 122.564,155.573 122.795,156.689 129.000,145.000" stroke-width="2.298" stroke="black" fill="none" stroke-linecap="round"></path><path d="M 129.000,145.000 C 137.775,132.588 136.564,132.573 149.000,123.000" stroke-width="2.057" stroke="black" fill="none" stroke-linecap="round"></path><path d="M 149.000,123.000 C 162.125,111.888 161.775,112.088 177.000,104.000" stroke-width="1.983" stroke="black" fill="none" stroke-linecap="round"></path><path d="M 177.000,104.000 C 195.600,94.876 195.125,94.388 215.000,88.000" stroke-width="1.731" stroke="black" fill="none" stroke-linecap="round"></path><path d="M 215.000,88.000 C 235.226,80.813 235.100,80.876 256.000,76.000" stroke-width="1.587" stroke="black" fill="none" stroke-linecap="round"></path><path d="M 256.000,76.000 C 276.360,71.064 276.226,71.313 297.000,69.000" stroke-width="1.618" stroke="black" fill="none" stroke-linecap="round"></path><path d="M 297.000,69.000 C 316.501,68.000 316.360,67.064 336.000,68.000" stroke-width="1.631" stroke="black" fill="none" stroke-linecap="round"></path><path d="M 336.000,68.000 C 354.174,67.050 354.001,68.000 372.000,69.000" stroke-width="1.748" stroke="black" fill="none" stroke-linecap="round"></path><path d="M 372.000,69.000 C 386.449,70.675 386.174,70.550 400.000,75.000" stroke-width="1.928" stroke="black" fill="none" stroke-linecap="round"></path><path d="M 400.000,75.000 C 410.681,77.976 409.949,78.175 419.000,84.000" stroke-width="2.254" stroke="black" fill="none" stroke-linecap="round"></path><path d="M 419.000,84.000 C 425.778,89.263 425.181,88.476 429.000,96.000" stroke-width="2.638" stroke="black" fill="none" stroke-linecap="round"></path><path d="M 429.000,96.000 C 432.397,102.549 431.278,100.763 430.000,107.000" stroke-width="3.135" stroke="black" fill="none" stroke-linecap="round"></path><path d="M 430.000,107.000 C 423.767,116.282 425.397,115.549 415.000,122.000" stroke-width="2.664" stroke="black" fill="none" stroke-linecap="round"></path><path d="M 415.000,122.000 C 400.165,131.443 400.767,131.282 384.000,137.000" stroke-width="1.980" stroke="black" fill="none" stroke-linecap="round"></path><path d="M 384.000,137.000 C 367.572,140.878 368.165,142.443 351.000,144.000" stroke-width="1.913" stroke="black" fill="none" stroke-linecap="round"></path><path d="M 351.000,144.000 C 333.060,147.420 333.072,147.378 315.000,150.000" stroke-width="1.769" stroke="black" fill="none" stroke-linecap="round"></path><path d="M 315.000,150.000 C 298.049,152.647 298.060,152.420 281.000,154.000" stroke-width="1.836" stroke="black" fill="none" stroke-linecap="round"></path><path d="M 281.000,154.000 C 266.504,154.704 266.549,155.147 252.000,155.000" stroke-width="2.047" stroke="black" fill="none" stroke-linecap="round"></path><path d="M 252.000,155.000 C 241.987,155.312 242.004,155.204 232.000,155.000" stroke-width="2.344" stroke="black" fill="none" stroke-linecap="round"></path><path d="M 232.000,155.000 C 225.004,156.189 225.987,154.812 220.000,154.000" stroke-width="2.890" stroke="black" fill="none" stroke-linecap="round"></path><path d="M 424.000,157.000 C 429.686,161.071 430.000,159.500 436.000,162.000" stroke-width="4.915" stroke="black" fill="none" stroke-linecap="round"></path><path d="M 436.000,162.000 C 447.005,162.239 446.686,163.571 458.000,162.000" stroke-width="2.804" stroke="black" fill="none" stroke-linecap="round"></path><path d="M 458.000,162.000 C 470.277,163.110 470.005,161.739 482.000,161.000" stroke-width="2.516" stroke="black" fill="none" stroke-linecap="round"></path><path d="M 482.000,161.000 C 494.973,156.908 495.277,158.610 508.000,153.000" stroke-width="2.196" stroke="black" fill="none" stroke-linecap="round"></path><path d="M 508.000,153.000 C 519.887,149.028 519.973,149.408 532.000,146.000" stroke-width="2.196" stroke="black" fill="none" stroke-linecap="round"></path><path d="M 532.000,146.000 C 539.941,143.863 539.887,144.028 548.000,143.000" stroke-width="2.676" stroke="black" fill="none" stroke-linecap="round"></path><path d="M 548.000,143.000 C 556.756,140.005 553.941,142.363 560.000,143.000" stroke-width="3.032" stroke="black" fill="none" stroke-linecap="round"></path><path d="M 560.000,143.000 C 563.069,149.941 563.256,146.005 561.000,155.000" stroke-width="3.720" stroke="black" fill="none" stroke-linecap="round"></path><path d="M 561.000,155.000 C 555.706,159.740 558.569,160.941 551.000,165.000" stroke-width="3.240" stroke="black" fill="none" stroke-linecap="round"></path><path d="M 551.000,165.000 C 547.676,169.655 547.206,169.240 544.000,174.000" stroke-width="3.328" stroke="black" fill="none" stroke-linecap="round"></path><path d="M 544.000,174.000 C 539.039,177.039 542.176,176.155 540.000,178.000" stroke-width="3.942" stroke="black" fill="none" stroke-linecap="round"></path><path d="M 540.000,178.000 C 544.532,179.483 541.539,179.539 549.000,179.000" stroke-width="4.241" stroke="black" fill="none" stroke-linecap="round"></path><path d="M 549.000,179.000 C 563.139,177.130 563.032,177.483 577.000,174.000" stroke-width="2.479" stroke="black" fill="none" stroke-linecap="round"></path><path d="M 577.000,174.000 C 593.956,169.325 594.139,170.130 611.000,165.000" stroke-width="1.927" stroke="black" fill="none" stroke-linecap="round"></path><path d="M 611.000,165.000 C 627.430,160.682 627.456,160.825 644.000,157.000" stroke-width="1.942" stroke="black" fill="none" stroke-linecap="round"></path><path d="M 644.000,157.000 C 658.979,153.889 658.930,153.682 674.000,151.000" stroke-width="2.039" stroke="black" fill="none" stroke-linecap="round"></path><path d="M 674.000,151.000 C 684.937,148.495 684.979,148.889 696.000,147.000" stroke-width="2.297" stroke="black" fill="none" stroke-linecap="round"></path><path d="M 696.000,147.000 C 703.494,146.326 703.437,145.995 711.000,146.000" stroke-width="2.633" stroke="black" fill="none" stroke-linecap="round"></path><path d="M 711.000,146.000 C 720.190,145.320 714.994,145.826 719.000,146.000" stroke-width="3.368" stroke="black" fill="none" stroke-linecap="round"></path><path d="M 719.000,146.000 C 711.596,148.442 716.690,147.320 704.000,150.000" stroke-width="3.953" stroke="black" fill="none" stroke-linecap="round"></path><path d="M 704.000,150.000 C 692.067,152.518 692.096,152.442 680.000,154.000" stroke-width="2.642" stroke="black" fill="none" stroke-linecap="round"></path><path d="M 680.000,154.000 C 663.523,155.820 663.567,156.018 647.000,157.000" stroke-width="2.081" stroke="black" fill="none" stroke-linecap="round"></path><path d="M 647.000,157.000 C 628.492,157.872 628.523,158.320 610.000,159.000" stroke-width="1.852" stroke="black" fill="none" stroke-linecap="round"></path><path d="M 610.000,159.000 C 587.513,160.735 587.492,160.372 565.000,162.000" stroke-width="1.622" stroke="black" fill="none" stroke-linecap="round"></path><path d="M 565.000,162.000 C 543.009,163.250 543.013,163.235 521.000,164.000" stroke-width="1.534" stroke="black" fill="none" stroke-linecap="round"></path><path d="M 521.000,164.000 C 499.003,164.741 499.009,164.750 477.000,165.000" stroke-width="1.557" stroke="black" fill="none" stroke-linecap="round"></path><path d="M 477.000,165.000 C 456.500,165.000 456.503,165.241 436.000,165.000" stroke-width="1.620" stroke="black" fill="none" stroke-linecap="round"></path><path d="M 436.000,165.000 C 416.500,165.000 416.500,165.000 397.000,165.000" stroke-width="1.680" stroke="black" fill="none" stroke-linecap="round"></path><path d="M 397.000,165.000 C 379.960,164.205 380.000,165.000 363.000,165.000" stroke-width="1.812" stroke="black" fill="none" stroke-linecap="round"></path><path d="M 363.000,165.000 C 347.761,165.267 347.960,165.705 333.000,168.000" stroke-width="2.006" stroke="black" fill="none" stroke-linecap="round"></path><path d="M 333.000,168.000 C 320.961,171.375 320.761,170.267 309.000,175.000" stroke-width="2.188" stroke="black" fill="none" stroke-linecap="round"></path></svg>