<svg xmlns="http://www.w3.org/2000/svg" xmlns:xlink="http://www.w3.org/1999/xlink" viewBox="0 0 724 340" width="724" height="340"><path d="M 203.000,161.000 C 196.344,157.229 196.500,157.000 190.000,153.000" stroke-width="4.681" stroke="black" fill="none" stroke-linecap="round"></path><path d="M 190.000,153.000 C 186.225,149.600 185.844,150.229 182.000,147.000" stroke-width="4.463" stroke="black" fill="none" stroke-linecap="round"></path><path d="M 182.000,147.000 C 179.401,146.200 179.725,145.600 177.000,145.000" stroke-width="4.282" stroke="black" fill="none" stroke-linecap="round"></path><path d="M 272.000,76.000 C 269.278,66.520 267.500,69.000 263.000,62.000" stroke-width="4.770" stroke="black" fill="none" stroke-linecap="round"></path><path d="M 263.000,62.000 C 255.135,58.904 256.778,57.520 247.000,58.000" stroke-width="4.065" stroke="black" fill="none" stroke-linecap="round"></path><path d="M 247.000,58.000 C 236.955,57.305 237.135,56.904 227.000,58.000" stroke-width="3.212" stroke="black" fill="none" stroke-linecap="round"></path><path d="M 227.000,58.000 C 215.131,58.047 215.455,58.805 204.000,61.000" stroke-width="2.437" stroke="black" fill="none" stroke-linecap="round"></path><path d="M 204.000,61.000 C 189.650,63.586 190.631,64.547 178.000,71.000" stroke-width="2.215" stroke="black" fill="none" stroke-linecap="round"></path><path d="M 178.000,71.000 C 150.663,88.606 151.150,88.086 127.000,110.000" stroke-width="1.421" stroke="black" fill="none" stroke-linecap="round"></path><path d="M 127.000,110.000 C 115.152,122.900 114.163,121.606 105.000,137.000" stroke-width="1.811" stroke="black" fill="none" stroke-linecap="round"></path><path d="M 105.000,137.000 C 96.653,147.886 97.152,147.900 91.000,160.000" stroke-width="1.947" stroke="black" fill="none" stroke-linecap="round"></path><path d="M 91.000,160.000 C 86.361,170.787 86.153,170.386 84.000,182.000" stroke-width="2.183" stroke="black" fill="none" stroke-linecap="round"></path><path d="M 84.000,182.000 C 82.454,190.086 82.361,189.787 83.000,198.000" stroke-width="2.637" stroke="black" fill="none" stroke-linecap="round"></path><path d="M 83.000,198.000 C 82.043,206.383 83.454,204.586 86.000,211.000" stroke-width="2.924" stroke="black" fill="none" stroke-linecap="round"></path><path d="M 86.000,211.000 C 92.967,216.769 91.043,216.883 101.000,219.000" stroke-width="2.783" stroke="black" fill="none" stroke-linecap="round"></path><path d="M 101.000,219.000 C 111.474,220.542 110.967,221.769 122.000,221.000" stroke-width="2.645" stroke="black" fill="none" stroke-linecap="round"></path><path d="M 122.000,221.000 C 134.518,221.480 134.474,221.542 147.000,221.000" stroke-width="2.313" stroke="black" fill="none" stroke-linecap="round"></path><path d="M 147.000,221.000 C 160.679,221.141 160.518,220.480 174.000,219.000" stroke-width="2.211" stroke="black" fill="none" stroke-linecap="round"></path><path d="M 174.000,219.000 C 188.809,216.468 188.679,216.641 203.000,212.000" stroke-width="2.032" stroke="black" fill="none" stroke-linecap="round"></path><path d="M 203.000,212.000 C 215.817,207.667 215.809,207.968 228.000,202.000" stroke-width="2.131" stroke="black" fill="none" stroke-linecap="round"></path><path d="M 228.000,202.000 C 237.870,198.098 237.317,197.667 246.000,192.000" stroke-width="2.351" stroke="black" fill="none" stroke-linecap="round"></path><path d="M 246.000,192.000 C 251.872,187.033 251.870,187.598 256.000,181.000" stroke-width="2.771" stroke="black" fill="none" stroke-linecap="round"></path><path d="M 256.000,181.000 C 258.119,177.112 258.372,177.533 259.000,173.000" stroke-width="3.343" stroke="black" fill="none" stroke-linecap="round"></path><path d="M 259.000,173.000 C 260.825,168.642 259.619,170.112 259.000,167.000" stroke-width="3.874" stroke="black" fill="none" stroke-linecap="round"></path><path d="M 259.000,167.000 C 254.080,164.953 255.825,164.142 249.000,164.000" stroke-width="4.165" stroke="black" fill="none" stroke-linecap="round"></path><path d="M 249.000,164.000 C 246.000,164.000 246.080,163.453 243.000,164.000" stroke-width="4.113" stroke="black" fill="none" stroke-linecap="round"></path><path d="M 243.000,164.000 C 238.500,164.000 238.500,164.000 234.000,164.000" stroke-width="4.342" stroke="black" fill="none" stroke-linecap="round"></path><path d="M 234.000,164.000 C 229.000,164.000 229.000,164.000 224.000,164.000" stroke-width="4.578" stroke="black" fill="none" stroke-linecap="round"></path><path d="M 224.000,164.000 C 220.500,164.000 220.500,164.000 217.000,164.000" stroke-width="4.146" stroke="black" fill="none" stroke-linecap="round"></path><path d="M 217.000,164.000 C 212.000,164.000 212.000,164.000 207.000,164.000" stroke-width="3.642" stroke="black" fill="none" stroke-linecap="round"></path><path d="M 207.000,164.000 C 201.500,164.000 201.500,164.000 196.000,164.000" stroke-width="3.480" stroke="black" fill="none" stroke-linecap="round"></path><path d="M 196.000,164.000 C 190.985,163.738 191.000,164.000 186.000,164.000" stroke-width="3.574" stroke="black" fill="none" stroke-linecap="round"></path><path d="M 186.000,164.000 C 181.416,164.117 181.485,164.238 177.000,165.000" stroke-width="3.587" stroke="black" fill="none" stroke-linecap="round"></path><path d="M 177.000,165.000 C 174.045,166.170 173.916,165.617 171.000,167.000" stroke-width="3.931" stroke="black" fill="none" stroke-linecap="round"></path><path d="M 171.000,167.000 C 165.180,167.344 168.545,167.670 166.000,168.000" stroke-width="4.546" stroke="black" fill="none" stroke-linecap="round"></path><path d="M 166.000,168.000 C 171.112,169.199 167.680,169.344 176.000,171.000" stroke-width="4.609" stroke="black" fill="none" stroke-linecap="round"></path><path d="M 304.000,171.000 C 299.232,169.064 301.000,171.000 298.000,171.000" stroke-width="5.197" stroke="black" fill="none" stroke-linecap="round"></path><path d="M 298.000,171.000 C 297.610,176.512 295.732,174.564 297.000,182.000" stroke-width="3.868" stroke="black" fill="none" stroke-linecap="round"></path><path d="M 297.000,182.000 C 296.483,190.090 296.110,190.012 295.000,198.000" stroke-width="3.125" stroke="black" fill="none" stroke-linecap="round"></path><path d="M 295.000,198.000 C 293.124,206.033 293.483,206.090 291.000,214.000" stroke-width="2.931" stroke="black" fill="none" stroke-linecap="round"></path><path d="M 291.000,214.000 C 289.298,221.106 289.124,221.033 287.000,228.000" stroke-width="3.000" stroke="black" fill="none" stroke-linecap="round"></path><path d="M 287.000,228.000 C 285.037,235.000 285.798,231.606 284.000,235.000" stroke-width="3.569" stroke="black" fill="none" stroke-linecap="round"></path><circle r="1.5" cx="319" cy="127" fill="black"></circle><path d="M 399.000,107.000 C 397.654,117.525 397.500,117.500 396.000,128.000" stroke-width="4.317" stroke="black" fill="none" stroke-linecap="round"></path><path d="M 396.000,128.000 C 394.777,136.557 394.654,136.525 393.000,145.000" stroke-width="3.122" stroke="black" fill="none" stroke-linecap="round"></path><path d="M 393.000,145.000 C 391.265,155.739 390.777,155.557 388.000,166.000" stroke-width="2.704" stroke="black" fill="none" stroke-linecap="round"></path><path d="M 388.000,166.000 C 384.121,177.783 384.265,177.739 379.000,189.000" stroke-width="2.339" stroke="black" fill="none" stroke-linecap="round"></path><path d="M 379.000,189.000 C 373.319,200.679 373.621,200.783 367.000,212.000" stroke-width="2.259" stroke="black" fill="none" stroke-linecap="round"></path><path d="M 367.000,212.000 C 360.912,221.949 361.319,222.179 355.000,232.000" stroke-width="2.280" stroke="black" fill="none" stroke-linecap="round"></path><path d="M 355.000,232.000 C 350.967,238.981 350.912,238.949 347.000,246.000" stroke-width="2.622" stroke="black" fill="none" stroke-linecap="round"></path><path d="M 347.000,246.000 C 343.269,256.058 344.467,250.481 342.000,255.000" stroke-width="3.135" stroke="black" fill="none" stroke-linecap="round"></path><path d="M 342.000,255.000 C 339.836,247.791 340.269,253.558 341.000,241.000" stroke-width="4.055" stroke="black" fill="none" stroke-linecap="round"></path><path d="M 341.000,241.000 C 344.091,230.347 342.836,230.291 348.000,220.000" stroke-width="2.845" stroke="black" fill="none" stroke-linecap="round"></path><path d="M 348.000,220.000 C 352.390,207.708 352.591,207.847 358.000,196.000" stroke-width="2.380" stroke="black" fill="none" stroke-linecap="round"></path><path d="M 358.000,196.000 C 363.948,183.663 363.890,183.708 371.000,172.000" stroke-width="2.161" stroke="black" fill="none" stroke-linecap="round"></path><path d="M 371.000,172.000 C 376.504,161.607 376.948,162.163 384.000,153.000" stroke-width="2.316" stroke="black" fill="none" stroke-linecap="round"></path><path d="M 384.000,153.000 C 390.289,145.745 390.004,146.107 398.000,141.000" stroke-width="2.571" stroke="black" fill="none" stroke-linecap="round"></path><path d="M 398.000,141.000 C 403.852,138.281 403.289,137.745 410.000,137.000" stroke-width="2.996" stroke="black" fill="none" stroke-linecap="round"></path><path d="M 410.000,137.000 C 415.991,136.286 415.852,135.781 422.000,136.000" stroke-width="3.142" stroke="black" fill="none" stroke-linecap="round"></path><path d="M 422.000,136.000 C 427.009,134.772 426.491,135.786 431.000,136.000" stroke-width="3.499" stroke="black" fill="none" stroke-linecap="round"></path><path d="M 431.000,136.000 C 434.728,137.415 433.509,136.772 435.000,140.000" stroke-width="3.975" stroke="black" fill="none" stroke-linecap="round"></path><path d="M 435.000,140.000 C 436.608,148.845 435.728,146.915 433.000,155.000" stroke-width="3.864" stroke="black" fill="none" stroke-linecap="round"></path><path d="M 433.000,155.000 C 425.784,162.328 428.108,163.345 418.000,169.000" stroke-width="2.765" stroke="black" fill="none" stroke-linecap="round"></path><path d="M 418.000,169.000 C 408.452,177.656 408.284,177.328 398.000,185.000" stroke-width="2.378" stroke="black" fill="none" stroke-linecap="round"></path><path d="M 398.000,185.000 C 389.691,190.365 389.952,190.656 381.000,195.000" stroke-width="2.584" stroke="black" fill="none" stroke-linecap="round"></path><path d="M 381.000,195.000 C 374.757,198.943 374.691,198.365 368.000,201.000" stroke-width="2.896" stroke="black" fill="none" stroke-linecap="round"></path><path d="M 368.000,201.000 C 361.698,203.707 363.257,202.443 358.000,202.000" stroke-width="3.211" stroke="black" fill="none" stroke-linecap="round"></path><path d="M 358.000,202.000 C 354.232,198.266 355.198,200.707 355.000,195.000" stroke-width="4.055" stroke="black" fill="none" stroke-linecap="round"></path><path d="M 355.000,195.000 C 357.653,189.091 356.232,189.766 362.000,185.000" stroke-width="3.409" stroke="black" fill="none" stroke-linecap="round"></path><path d="M 477.000,137.000 C 477.187,144.115 476.500,144.000 476.000,151.000" stroke-width="4.469" stroke="black" fill="none" stroke-linecap="round"></path><path d="M 476.000,151.000 C 474.518,158.675 474.687,158.615 472.000,166.000" stroke-width="3.276" stroke="black" fill="none" stroke-linecap="round"></path><path d="M 472.000,166.000 C 469.377,174.975 469.018,174.675 465.000,183.000" stroke-width="2.786" stroke="black" fill="none" stroke-linecap="round"></path><path d="M 465.000,183.000 C 459.749,191.182 460.377,191.475 454.000,199.000" stroke-width="2.672" stroke="black" fill="none" stroke-linecap="round"></path><path d="M 454.000,199.000 C 447.206,208.167 447.249,208.182 440.000,217.000" stroke-width="2.477" stroke="black" fill="none" stroke-linecap="round"></path><path d="M 440.000,217.000 C 431.541,227.035 431.706,227.167 423.000,237.000" stroke-width="2.285" stroke="black" fill="none" stroke-linecap="round"></path><path d="M 423.000,237.000 C 413.276,247.815 413.541,248.035 404.000,259.000" stroke-width="2.075" stroke="black" fill="none" stroke-linecap="round"></path><path d="M 404.000,259.000 C 395.919,268.116 396.276,268.315 389.000,278.000" stroke-width="2.241" stroke="black" fill="none" stroke-linecap="round"></path><path d="M 389.000,278.000 C 385.798,283.405 385.419,283.116 383.000,289.000" stroke-width="2.811" stroke="black" fill="none" stroke-linecap="round"></path><path d="M 383.000,289.000 C 380.370,295.733 381.798,291.405 381.000,294.000" stroke-width="3.696" stroke="black" fill="none" stroke-linecap="round"></path><path d="M 381.000,294.000 C 385.308,280.205 384.370,284.733 391.000,267.000" stroke-width="3.625" stroke="black" fill="none" stroke-linecap="round"></path><path d="M 391.000,267.000 C 398.105,251.296 397.808,251.205 406.000,236.000" stroke-width="2.177" stroke="black" fill="none" stroke-linecap="round"></path><path d="M 406.000,236.000 C 413.912,220.147 414.105,220.296 423.000,205.000" stroke-width="1.919" stroke="black" fill="none" stroke-linecap="round"></path><path d="M 423.000,205.000 C 431.909,190.074 431.912,190.147 442.000,176.000" stroke-width="1.817" stroke="black" fill="none" stroke-linecap="round"></path><path d="M 442.000,176.000 C 450.938,163.500 450.909,163.574 461.000,152.000" stroke-width="1.995" stroke="black" fill="none" stroke-linecap="round"></path><path d="M 461.000,152.000 C 468.464,143.358 468.438,143.500 477.000,136.000" stroke-width="2.218" stroke="black" fill="none" stroke-linecap="round"></path><path d="M 477.000,136.000 C 482.935,129.944 482.964,130.858 490.000,127.000" stroke-width="2.753" stroke="black" fill="none" stroke-linecap="round"></path><path d="M 490.000,127.000 C 495.491,126.306 494.935,124.944 501.000,126.000" stroke-width="3.182" stroke="black" fill="none" stroke-linecap="round"></path><path d="M 501.000,126.000 C 504.928,124.818 504.491,125.806 508.000,126.000" stroke-width="3.661" stroke="black" fill="none" stroke-linecap="round"></path><path d="M 508.000,126.000 C 512.278,127.802 511.428,127.318 514.000,131.000" stroke-width="3.794" stroke="black" fill="none" stroke-linecap="round"></path><path d="M 514.000,131.000 C 515.000,134.988 515.778,134.302 515.000,139.000" stroke-width="3.756" stroke="black" fill="none" stroke-linecap="round"></path><path d="M 515.000,139.000 C 516.504,146.222 515.000,145.488 514.000,152.000" stroke-width="3.271" stroke="black" fill="none" stroke-linecap="round"></path><path d="M 514.000,152.000 C 508.999,161.383 510.004,161.222 502.000,169.000" stroke-width="2.645" stroke="black" fill="none" stroke-linecap="round"></path><path d="M 502.000,169.000 C 491.699,179.933 491.999,179.883 480.000,189.000" stroke-width="2.132" stroke="black" fill="none" stroke-linecap="round"></path><path d="M 480.000,189.000 C 471.344,195.186 471.699,195.433 462.000,200.000" stroke-width="2.330" stroke="black" fill="none" stroke-linecap="round"></path><path d="M 462.000,200.000 C 454.706,203.842 454.844,203.686 447.000,206.000" stroke-width="2.692" stroke="black" fill="none" stroke-linecap="round"></path><path d="M 447.000,206.000 C 440.099,209.435 442.206,207.342 437.000,207.000" stroke-width="3.231" stroke="black" fill="none" stroke-linecap="round"></path><path d="M 437.000,207.000 C 431.352,199.944 433.099,203.935 433.000,195.000" stroke-width="3.774" stroke="black" fill="none" stroke-linecap="round"></path><path d="M 433.000,195.000 C 438.361,190.312 434.852,189.444 444.000,186.000" stroke-width="3.180" stroke="black" fill="none" stroke-linecap="round"></path><path d="M 444.000,186.000 C 446.823,183.682 446.861,183.812 450.000,182.000" stroke-width="3.722" stroke="black" fill="none" stroke-linecap="round"></path><path d="M 543.000,133.000 C 546.801,139.865 546.500,140.000 550.000,147.000" stroke-width="4.524" stroke="black" fill="none" stroke-linecap="round"></path><path d="M 550.000,147.000 C 553.000,154.500 553.301,154.365 556.000,162.000" stroke-width="3.236" stroke="black" fill="none" stroke-linecap="round"></path><path d="M 556.000,162.000 C 558.952,169.519 559.000,169.500 562.000,177.000" stroke-width="2.917" stroke="black" fill="none" stroke-linecap="round"></path><path d="M 562.000,177.000 C 563.877,183.378 564.452,183.019 567.000,189.000" stroke-width="3.101" stroke="black" fill="none" stroke-linecap="round"></path><path d="M 567.000,189.000 C 569.376,192.113 568.877,192.378 572.000,195.000" stroke-width="3.547" stroke="black" fill="none" stroke-linecap="round"></path><path d="M 572.000,195.000 C 574.043,198.925 574.376,197.613 577.000,200.000" stroke-width="4.271" stroke="black" fill="none" stroke-linecap="round"></path><path d="M 638.000,128.000 C 645.451,128.141 642.500,129.000 647.000,130.000" stroke-width="5.185" stroke="black" fill="none" stroke-linecap="round"></path><path d="M 647.000,130.000 C 645.113,132.122 647.951,131.141 643.000,134.000" stroke-width="4.516" stroke="black" fill="none" stroke-linecap="round"></path><path d="M 643.000,134.000 C 636.067,140.079 636.113,140.122 629.000,146.000" stroke-width="2.991" stroke="black" fill="none" stroke-linecap="round"></path><path d="M 629.000,146.000 C 617.975,156.139 617.567,155.579 606.000,165.000" stroke-width="2.257" stroke="black" fill="none" stroke-linecap="round"></path><path d="M 606.000,165.000 C 591.861,173.165 592.975,174.639 579.000,183.000" stroke-width="2.021" stroke="black" fill="none" stroke-linecap="round"></path><path d="M 579.000,183.000 C 566.381,192.866 566.361,192.665 555.000,204.000" stroke-width="1.975" stroke="black" fill="none" stroke-linecap="round"></path><path d="M 555.000,204.000 C 543.543,215.612 543.381,215.366 533.000,228.000" stroke-width="1.943" stroke="black" fill="none" stroke-linecap="round"></path><path d="M 533.000,228.000 C 523.929,239.445 523.543,239.112 515.000,251.000" stroke-width="2.080" stroke="black" fill="none" stroke-linecap="round"></path><path d="M 515.000,251.000 C 507.019,261.514 506.929,261.445 499.000,272.000" stroke-width="2.165" stroke="black" fill="none" stroke-linecap="round"></path><path d="M 499.000,272.000 C 493.970,278.477 494.019,278.514 489.000,285.000" stroke-width="2.610" stroke="black" fill="none" stroke-linecap="round"></path><path d="M 489.000,285.000 C 482.546,293.227 485.970,288.977 483.000,293.000" stroke-width="3.153" stroke="black" fill="none" stroke-linecap="round"></path><path d="M 483.000,293.000 C 487.123,288.604 483.546,292.727 491.000,284.000" stroke-width="4.043" stroke="black" fill="none" stroke-linecap="round"></path><path d="M 491.000,284.000 C 494.962,278.969 495.123,279.104 499.000,274.000" stroke-width="3.420" stroke="black" fill="none" stroke-linecap="round"></path><circle r="1.5" cx="375" cy="286" fill="black"></circle></svg>