<svg xmlns="http://www.w3.org/2000/svg" xmlns:xlink="http://www.w3.org/1999/xlink" viewBox="0 0 1844 805" width="1844" height="805"><path d="M 984.000,354.000 C 966.917,361.637 966.500,359.000 949.000,364.000" stroke-width="2.894" stroke="black" fill="none" stroke-linecap="round"></path><path d="M 949.000,364.000 C 920.953,366.570 921.417,367.637 893.000,366.000" stroke-width="1.567" stroke="black" fill="none" stroke-linecap="round"></path><path d="M 893.000,366.000 C 871.945,364.477 871.953,365.570 851.000,362.000" stroke-width="1.601" stroke="black" fill="none" stroke-linecap="round"></path><path d="M 851.000,362.000 C 825.463,358.752 825.445,358.977 800.000,355.000" stroke-width="1.404" stroke="black" fill="none" stroke-linecap="round"></path><path d="M 800.000,355.000 C 777.802,352.489 777.963,351.752 756.000,348.000" stroke-width="1.505" stroke="black" fill="none" stroke-linecap="round"></path><path d="M 756.000,348.000 C 726.188,343.170 726.802,341.989 698.000,334.000" stroke-width="1.315" stroke="black" fill="none" stroke-linecap="round"></path><path d="M 698.000,334.000 C 684.425,329.065 684.688,329.670 673.000,321.000" stroke-width="1.749" stroke="black" fill="none" stroke-linecap="round"></path><path d="M 673.000,321.000 C 660.197,309.266 658.925,311.065 647.000,298.000" stroke-width="1.818" stroke="black" fill="none" stroke-linecap="round"></path><path d="M 647.000,298.000 C 639.563,291.919 639.697,291.766 632.000,286.000" stroke-width="2.325" stroke="black" fill="none" stroke-linecap="round"></path><path d="M 632.000,286.000 C 626.437,284.198 628.063,282.919 624.000,280.000" stroke-width="3.061" stroke="black" fill="none" stroke-linecap="round"></path><path d="M 624.000,280.000 C 612.678,267.460 617.437,268.698 614.000,255.000" stroke-width="2.384" stroke="black" fill="none" stroke-linecap="round"></path><path d="M 614.000,255.000 C 619.677,232.557 616.178,234.460 631.000,214.000" stroke-width="1.679" stroke="black" fill="none" stroke-linecap="round"></path><path d="M 631.000,214.000 C 638.208,201.036 637.677,203.057 650.000,196.000" stroke-width="2.021" stroke="black" fill="none" stroke-linecap="round"></path><path d="M 650.000,196.000 C 687.865,177.856 686.208,180.536 727.000,173.000" stroke-width="1.161" stroke="black" fill="none" stroke-linecap="round"></path><path d="M 727.000,173.000 C 757.395,173.916 756.365,169.356 787.000,179.000" stroke-width="1.174" stroke="black" fill="none" stroke-linecap="round"></path><path d="M 787.000,179.000 C 807.683,182.198 806.895,182.416 826.000,190.000" stroke-width="1.478" stroke="black" fill="none" stroke-linecap="round"></path><path d="M 826.000,190.000 C 834.376,195.075 834.683,193.698 841.000,202.000" stroke-width="2.097" stroke="black" fill="none" stroke-linecap="round"></path><path d="M 841.000,202.000 C 874.260,226.943 867.376,229.575 892.000,259.000" stroke-width="1.799" stroke="black" fill="none" stroke-linecap="round"></path><path d="M 892.000,259.000 C 904.374,284.696 902.760,278.443 898.000,305.000" stroke-width="1.585" stroke="black" fill="none" stroke-linecap="round"></path><path d="M 898.000,305.000 C 885.518,329.941 890.874,327.696 865.000,345.000" stroke-width="1.442" stroke="black" fill="none" stroke-linecap="round"></path><path d="M 865.000,345.000 C 829.642,373.095 831.018,369.941 789.000,385.000" stroke-width="1.125" stroke="black" fill="none" stroke-linecap="round"></path><path d="M 789.000,385.000 C 728.092,398.328 730.642,402.095 667.000,403.000" stroke-width="1.125" stroke="black" fill="none" stroke-linecap="round"></path><path d="M 667.000,403.000 C 642.598,402.720 643.092,404.828 619.000,398.000" stroke-width="1.125" stroke="black" fill="none" stroke-linecap="round"></path><path d="M 619.000,398.000 C 580.372,388.465 580.098,390.220 542.000,378.000" stroke-width="1.125" stroke="black" fill="none" stroke-linecap="round"></path><path d="M 542.000,378.000 C 514.644,369.398 514.372,370.465 487.000,362.000" stroke-width="1.181" stroke="black" fill="none" stroke-linecap="round"></path><path d="M 487.000,362.000 C 478.991,360.547 479.144,359.898 471.000,359.000" stroke-width="2.037" stroke="black" fill="none" stroke-linecap="round"></path><path d="M 471.000,359.000 C 463.568,356.977 463.491,357.547 456.000,356.000" stroke-width="2.559" stroke="black" fill="none" stroke-linecap="round"></path><path d="M 456.000,356.000 C 435.362,355.000 448.068,354.977 440.000,355.000" stroke-width="3.562" stroke="black" fill="none" stroke-linecap="round"></path><path d="M 440.000,355.000 C 469.998,355.799 457.362,355.000 500.000,356.000" stroke-width="3.776" stroke="black" fill="none" stroke-linecap="round"></path><path d="M 500.000,356.000 C 544.500,356.000 544.498,356.299 589.000,356.000" stroke-width="1.125" stroke="black" fill="none" stroke-linecap="round"></path><path d="M 589.000,356.000 C 622.067,357.885 622.000,356.000 655.000,356.000" stroke-width="1.141" stroke="black" fill="none" stroke-linecap="round"></path><path d="M 655.000,356.000 C 788.015,346.688 788.067,348.385 921.000,337.000" stroke-width="1.125" stroke="black" fill="none" stroke-linecap="round"></path><path d="M 921.000,337.000 C 938.947,334.520 939.015,335.688 957.000,334.000" stroke-width="1.125" stroke="black" fill="none" stroke-linecap="round"></path><path d="M 957.000,334.000 C 1216.702,324.247 1216.447,326.520 1476.000,321.000" stroke-width="1.125" stroke="black" fill="none" stroke-linecap="round"></path><path d="M 1476.000,321.000 C 1496.034,323.805 1496.202,320.747 1516.000,327.000" stroke-width="1.248" stroke="black" fill="none" stroke-linecap="round"></path><path d="M 1516.000,327.000 C 1521.014,327.932 1521.034,327.805 1526.000,329.000" stroke-width="2.275" stroke="black" fill="none" stroke-linecap="round"></path></svg>