<svg xmlns="http://www.w3.org/2000/svg" xmlns:xlink="http://www.w3.org/1999/xlink" viewBox="0 0 1844 805" width="1844" height="805"><path d="M 821.000,438.000 C 808.535,435.917 808.500,436.500 796.000,435.000" stroke-width="4.620" stroke="black" fill="none" stroke-linecap="round"></path><path d="M 796.000,435.000 C 787.919,435.856 788.035,434.417 780.000,435.000" stroke-width="3.263" stroke="black" fill="none" stroke-linecap="round"></path><path d="M 780.000,435.000 C 769.282,433.779 769.419,433.856 759.000,431.000" stroke-width="2.613" stroke="black" fill="none" stroke-linecap="round"></path><path d="M 759.000,431.000 C 750.931,428.172 750.782,428.779 743.000,425.000" stroke-width="2.798" stroke="black" fill="none" stroke-linecap="round"></path><path d="M 743.000,425.000 C 734.923,423.541 735.931,422.172 729.000,419.000" stroke-width="2.856" stroke="black" fill="none" stroke-linecap="round"></path><path d="M 729.000,419.000 C 720.100,411.128 719.923,412.041 713.000,402.000" stroke-width="2.433" stroke="black" fill="none" stroke-linecap="round"></path><path d="M 713.000,402.000 C 708.422,397.278 709.600,397.628 708.000,392.000" stroke-width="3.034" stroke="black" fill="none" stroke-linecap="round"></path><path d="M 708.000,392.000 C 707.072,383.383 707.422,384.778 711.000,377.000" stroke-width="2.982" stroke="black" fill="none" stroke-linecap="round"></path><path d="M 711.000,377.000 C 721.867,354.173 723.072,357.383 740.000,340.000" stroke-width="1.693" stroke="black" fill="none" stroke-linecap="round"></path><path d="M 740.000,340.000 C 767.699,320.817 765.367,320.173 798.000,309.000" stroke-width="1.277" stroke="black" fill="none" stroke-linecap="round"></path><path d="M 798.000,309.000 C 818.938,300.595 817.699,301.317 840.000,301.000" stroke-width="1.487" stroke="black" fill="none" stroke-linecap="round"></path><path d="M 840.000,301.000 C 871.496,304.182 870.938,301.595 902.000,311.000" stroke-width="1.228" stroke="black" fill="none" stroke-linecap="round"></path><path d="M 902.000,311.000 C 913.945,314.614 913.996,313.682 925.000,320.000" stroke-width="1.819" stroke="black" fill="none" stroke-linecap="round"></path><path d="M 925.000,320.000 C 933.656,324.175 933.445,324.114 941.000,330.000" stroke-width="2.339" stroke="black" fill="none" stroke-linecap="round"></path><path d="M 941.000,330.000 C 948.350,335.864 948.156,335.675 954.000,343.000" stroke-width="2.527" stroke="black" fill="none" stroke-linecap="round"></path><path d="M 954.000,343.000 C 959.459,348.048 957.850,347.864 960.000,354.000" stroke-width="2.986" stroke="black" fill="none" stroke-linecap="round"></path><path d="M 960.000,354.000 C 960.055,365.410 960.959,364.548 957.000,376.000" stroke-width="2.581" stroke="black" fill="none" stroke-linecap="round"></path><path d="M 957.000,376.000 C 951.211,391.095 952.555,391.410 945.000,406.000" stroke-width="2.096" stroke="black" fill="none" stroke-linecap="round"></path><path d="M 945.000,406.000 C 943.049,408.853 943.711,409.095 942.000,412.000" stroke-width="3.127" stroke="black" fill="none" stroke-linecap="round"></path><path d="M 942.000,412.000 C 940.679,419.711 941.049,414.853 941.000,418.000" stroke-width="4.121" stroke="black" fill="none" stroke-linecap="round"></path><path d="M 941.000,418.000 C 937.993,403.768 942.179,411.711 945.000,396.000" stroke-width="3.552" stroke="black" fill="none" stroke-linecap="round"></path><path d="M 945.000,396.000 C 964.969,379.495 960.993,378.268 987.000,367.000" stroke-width="1.717" stroke="black" fill="none" stroke-linecap="round"></path><path d="M 987.000,367.000 C 999.107,360.930 998.469,360.495 1012.000,358.000" stroke-width="1.977" stroke="black" fill="none" stroke-linecap="round"></path><path d="M 1012.000,358.000 C 1032.418,353.871 1032.107,353.430 1053.000,352.000" stroke-width="1.726" stroke="black" fill="none" stroke-linecap="round"></path><path d="M 1053.000,352.000 C 1065.547,351.238 1065.418,350.871 1078.000,352.000" stroke-width="2.078" stroke="black" fill="none" stroke-linecap="round"></path><path d="M 1078.000,352.000 C 1090.074,353.059 1090.047,352.738 1102.000,355.000" stroke-width="2.188" stroke="black" fill="none" stroke-linecap="round"></path><path d="M 1102.000,355.000 C 1111.782,356.058 1111.574,356.559 1121.000,359.000" stroke-width="2.527" stroke="black" fill="none" stroke-linecap="round"></path><path d="M 1121.000,359.000 C 1135.893,362.900 1135.282,363.558 1149.000,370.000" stroke-width="2.029" stroke="black" fill="none" stroke-linecap="round"></path><path d="M 1149.000,370.000 C 1159.832,376.596 1159.893,375.900 1169.000,385.000" stroke-width="2.196" stroke="black" fill="none" stroke-linecap="round"></path><path d="M 1169.000,385.000 C 1175.509,395.761 1177.832,393.096 1185.000,403.000" stroke-width="2.287" stroke="black" fill="none" stroke-linecap="round"></path><path d="M 1185.000,403.000 C 1205.737,418.150 1205.009,418.261 1228.000,430.000" stroke-width="1.537" stroke="black" fill="none" stroke-linecap="round"></path><path d="M 1228.000,430.000 C 1237.281,434.210 1236.737,434.650 1247.000,436.000" stroke-width="2.148" stroke="black" fill="none" stroke-linecap="round"></path><path d="M 1247.000,436.000 C 1256.576,437.554 1256.281,437.710 1266.000,437.000" stroke-width="2.479" stroke="black" fill="none" stroke-linecap="round"></path><path d="M 1266.000,437.000 C 1273.864,436.379 1273.576,436.554 1281.000,434.000" stroke-width="2.744" stroke="black" fill="none" stroke-linecap="round"></path></svg>