<svg xmlns="http://www.w3.org/2000/svg" xmlns:xlink="http://www.w3.org/1999/xlink" viewBox="0 0 724 340" width="724" height="340"><path d="M 220.000,174.000 C 215.080,171.953 215.000,172.500 210.000,171.000" stroke-width="5.023" stroke="black" fill="none" stroke-linecap="round"></path><path d="M 210.000,171.000 C 206.921,171.487 207.080,170.453 204.000,171.000" stroke-width="4.432" stroke="black" fill="none" stroke-linecap="round"></path><path d="M 204.000,171.000 C 200.912,170.213 200.921,170.487 198.000,169.000" stroke-width="4.320" stroke="black" fill="none" stroke-linecap="round"></path><path d="M 198.000,169.000 C 194.952,167.590 194.912,167.713 192.000,166.000" stroke-width="4.064" stroke="black" fill="none" stroke-linecap="round"></path><path d="M 192.000,166.000 C 188.548,163.910 188.452,164.090 185.000,162.000" stroke-width="3.887" stroke="black" fill="none" stroke-linecap="round"></path><path d="M 185.000,162.000 C 182.051,160.387 182.048,160.410 179.000,159.000" stroke-width="3.988" stroke="black" fill="none" stroke-linecap="round"></path><path d="M 179.000,159.000 C 173.313,158.202 176.551,157.887 174.000,157.000" stroke-width="4.183" stroke="black" fill="none" stroke-linecap="round"></path><path d="M 174.000,157.000 C 178.316,154.082 175.313,154.702 183.000,152.000" stroke-width="4.889" stroke="black" fill="none" stroke-linecap="round"></path><path d="M 183.000,152.000 C 187.602,150.759 187.316,150.082 192.000,149.000" stroke-width="3.918" stroke="black" fill="none" stroke-linecap="round"></path><path d="M 192.000,149.000 C 197.554,146.614 197.602,146.759 203.000,144.000" stroke-width="3.514" stroke="black" fill="none" stroke-linecap="round"></path><path d="M 203.000,144.000 C 210.297,141.022 210.054,140.614 217.000,137.000" stroke-width="3.255" stroke="black" fill="none" stroke-linecap="round"></path><path d="M 217.000,137.000 C 232.550,127.076 232.797,127.522 248.000,117.000" stroke-width="2.403" stroke="black" fill="none" stroke-linecap="round"></path><path d="M 248.000,117.000 C 255.346,111.751 255.550,112.076 263.000,107.000" stroke-width="2.623" stroke="black" fill="none" stroke-linecap="round"></path><path d="M 263.000,107.000 C 270.220,103.340 269.846,102.751 277.000,99.000" stroke-width="2.802" stroke="black" fill="none" stroke-linecap="round"></path><path d="M 277.000,99.000 C 282.308,94.700 282.720,95.340 288.000,91.000" stroke-width="3.021" stroke="black" fill="none" stroke-linecap="round"></path><path d="M 288.000,91.000 C 292.459,88.422 292.308,88.200 297.000,86.000" stroke-width="3.234" stroke="black" fill="none" stroke-linecap="round"></path><path d="M 297.000,86.000 C 302.685,81.265 299.959,84.422 303.000,83.000" stroke-width="3.755" stroke="black" fill="none" stroke-linecap="round"></path><path d="M 303.000,83.000 C 302.457,90.778 303.685,86.765 299.000,97.000" stroke-width="4.406" stroke="black" fill="none" stroke-linecap="round"></path><path d="M 299.000,97.000 C 293.576,103.566 294.957,104.278 288.000,110.000" stroke-width="3.153" stroke="black" fill="none" stroke-linecap="round"></path><path d="M 288.000,110.000 C 280.516,118.514 280.576,118.566 273.000,127.000" stroke-width="2.594" stroke="black" fill="none" stroke-linecap="round"></path><path d="M 273.000,127.000 C 265.147,136.135 265.016,136.014 257.000,145.000" stroke-width="2.340" stroke="black" fill="none" stroke-linecap="round"></path><path d="M 257.000,145.000 C 248.132,154.628 248.147,154.635 239.000,164.000" stroke-width="2.306" stroke="black" fill="none" stroke-linecap="round"></path><path d="M 239.000,164.000 C 229.125,174.128 229.132,174.128 219.000,184.000" stroke-width="2.166" stroke="black" fill="none" stroke-linecap="round"></path><path d="M 219.000,184.000 C 209.134,193.645 209.125,193.628 199.000,203.000" stroke-width="2.151" stroke="black" fill="none" stroke-linecap="round"></path><path d="M 199.000,203.000 C 189.543,211.548 189.634,211.645 180.000,220.000" stroke-width="2.220" stroke="black" fill="none" stroke-linecap="round"></path><path d="M 180.000,220.000 C 172.477,227.642 172.043,227.048 164.000,234.000" stroke-width="2.353" stroke="black" fill="none" stroke-linecap="round"></path><path d="M 164.000,234.000 C 156.300,239.573 156.477,239.642 148.000,244.000" stroke-width="2.508" stroke="black" fill="none" stroke-linecap="round"></path><path d="M 148.000,244.000 C 141.132,247.359 141.300,247.573 134.000,250.000" stroke-width="2.813" stroke="black" fill="none" stroke-linecap="round"></path><path d="M 134.000,250.000 C 127.528,252.096 127.632,252.359 121.000,254.000" stroke-width="3.024" stroke="black" fill="none" stroke-linecap="round"></path><path d="M 121.000,254.000 C 115.581,255.937 115.528,255.596 110.000,257.000" stroke-width="3.256" stroke="black" fill="none" stroke-linecap="round"></path><path d="M 110.000,257.000 C 104.944,257.176 105.081,257.937 100.000,258.000" stroke-width="3.447" stroke="black" fill="none" stroke-linecap="round"></path><path d="M 100.000,258.000 C 96.057,259.459 95.944,258.676 92.000,260.000" stroke-width="3.573" stroke="black" fill="none" stroke-linecap="round"></path><path d="M 92.000,260.000 C 88.500,260.000 88.557,260.459 85.000,260.000" stroke-width="3.851" stroke="black" fill="none" stroke-linecap="round"></path><path d="M 85.000,260.000 C 78.803,262.007 81.500,260.000 78.000,260.000" stroke-width="4.387" stroke="black" fill="none" stroke-linecap="round"></path><path d="M 78.000,260.000 C 77.922,253.899 76.803,257.007 81.000,250.000" stroke-width="4.548" stroke="black" fill="none" stroke-linecap="round"></path><path d="M 81.000,250.000 C 86.615,244.877 85.422,244.399 93.000,241.000" stroke-width="3.331" stroke="black" fill="none" stroke-linecap="round"></path><path d="M 93.000,241.000 C 101.049,237.096 100.615,236.377 109.000,233.000" stroke-width="2.895" stroke="black" fill="none" stroke-linecap="round"></path><path d="M 109.000,233.000 C 117.400,228.300 117.549,228.596 126.000,224.000" stroke-width="2.648" stroke="black" fill="none" stroke-linecap="round"></path><path d="M 126.000,224.000 C 134.464,219.922 134.400,219.800 143.000,216.000" stroke-width="2.720" stroke="black" fill="none" stroke-linecap="round"></path><path d="M 143.000,216.000 C 153.097,211.704 152.964,211.422 163.000,207.000" stroke-width="2.467" stroke="black" fill="none" stroke-linecap="round"></path><path d="M 163.000,207.000 C 172.907,201.806 173.097,202.204 183.000,197.000" stroke-width="2.441" stroke="black" fill="none" stroke-linecap="round"></path><path d="M 183.000,197.000 C 194.037,192.080 193.907,191.806 205.000,187.000" stroke-width="2.413" stroke="black" fill="none" stroke-linecap="round"></path><path d="M 205.000,187.000 C 214.600,182.700 214.537,182.580 224.000,178.000" stroke-width="2.363" stroke="black" fill="none" stroke-linecap="round"></path><path d="M 224.000,178.000 C 232.350,173.186 232.600,173.700 241.000,169.000" stroke-width="2.494" stroke="black" fill="none" stroke-linecap="round"></path><path d="M 241.000,169.000 C 247.932,165.827 247.850,165.686 255.000,163.000" stroke-width="2.807" stroke="black" fill="none" stroke-linecap="round"></path><path d="M 255.000,163.000 C 260.451,160.850 260.432,160.827 266.000,159.000" stroke-width="3.102" stroke="black" fill="none" stroke-linecap="round"></path><path d="M 266.000,159.000 C 269.471,157.882 269.451,157.850 273.000,157.000" stroke-width="3.644" stroke="black" fill="none" stroke-linecap="round"></path><path d="M 273.000,157.000 C 278.584,156.195 275.471,156.382 278.000,156.000" stroke-width="4.425" stroke="black" fill="none" stroke-linecap="round"></path><path d="M 278.000,156.000 C 274.000,156.000 277.084,155.695 270.000,156.000" stroke-width="4.924" stroke="black" fill="none" stroke-linecap="round"></path><path d="M 270.000,156.000 C 266.921,155.513 267.000,156.000 264.000,156.000" stroke-width="4.408" stroke="black" fill="none" stroke-linecap="round"></path><path d="M 264.000,156.000 C 260.912,156.787 260.921,156.513 258.000,158.000" stroke-width="4.188" stroke="black" fill="none" stroke-linecap="round"></path><path d="M 258.000,158.000 C 254.848,159.247 254.912,159.287 252.000,161.000" stroke-width="4.028" stroke="black" fill="none" stroke-linecap="round"></path><path d="M 252.000,161.000 C 248.131,163.093 248.348,163.247 245.000,166.000" stroke-width="3.818" stroke="black" fill="none" stroke-linecap="round"></path><path d="M 245.000,166.000 C 241.481,169.984 241.131,169.593 238.000,174.000" stroke-width="3.500" stroke="black" fill="none" stroke-linecap="round"></path><path d="M 238.000,174.000 C 234.235,177.089 234.981,177.484 232.000,181.000" stroke-width="3.548" stroke="black" fill="none" stroke-linecap="round"></path><path d="M 232.000,181.000 C 230.882,184.471 230.235,184.089 230.000,188.000" stroke-width="3.813" stroke="black" fill="none" stroke-linecap="round"></path><path d="M 230.000,188.000 C 227.434,191.904 229.382,190.471 229.000,193.000" stroke-width="4.195" stroke="black" fill="none" stroke-linecap="round"></path><path d="M 229.000,193.000 C 234.794,195.781 232.434,195.404 240.000,195.000" stroke-width="4.621" stroke="black" fill="none" stroke-linecap="round"></path><path d="M 240.000,195.000 C 244.489,192.481 244.794,194.281 249.000,190.000" stroke-width="3.777" stroke="black" fill="none" stroke-linecap="round"></path><path d="M 249.000,190.000 C 254.511,187.019 254.489,186.981 260.000,184.000" stroke-width="3.383" stroke="black" fill="none" stroke-linecap="round"></path><path d="M 260.000,184.000 C 264.513,181.524 264.511,181.519 269.000,179.000" stroke-width="3.466" stroke="black" fill="none" stroke-linecap="round"></path><path d="M 269.000,179.000 C 273.550,177.757 272.513,177.024 276.000,175.000" stroke-width="3.704" stroke="black" fill="none" stroke-linecap="round"></path><path d="M 276.000,175.000 C 278.441,170.720 277.550,173.257 277.000,170.000" stroke-width="4.656" stroke="black" fill="none" stroke-linecap="round"></path><path d="M 277.000,170.000 C 271.758,169.121 274.441,168.720 268.000,171.000" stroke-width="4.720" stroke="black" fill="none" stroke-linecap="round"></path><path d="M 268.000,171.000 C 265.214,173.802 264.758,172.621 263.000,177.000" stroke-width="4.599" stroke="black" fill="none" stroke-linecap="round"></path><path d="M 263.000,177.000 C 258.011,181.775 260.714,180.302 259.000,184.000" stroke-width="4.580" stroke="black" fill="none" stroke-linecap="round"></path><path d="M 259.000,184.000 C 262.944,185.775 260.011,186.275 267.000,186.000" stroke-width="4.872" stroke="black" fill="none" stroke-linecap="round"></path><path d="M 267.000,186.000 C 272.257,186.443 271.944,186.275 277.000,185.000" stroke-width="3.852" stroke="black" fill="none" stroke-linecap="round"></path><path d="M 277.000,185.000 C 283.651,182.292 283.757,182.943 290.000,179.000" stroke-width="3.256" stroke="black" fill="none" stroke-linecap="round"></path><path d="M 290.000,179.000 C 297.088,175.147 297.151,175.292 304.000,171.000" stroke-width="2.988" stroke="black" fill="none" stroke-linecap="round"></path><path d="M 304.000,171.000 C 312.386,166.537 312.088,166.147 320.000,161.000" stroke-width="2.691" stroke="black" fill="none" stroke-linecap="round"></path><path d="M 320.000,161.000 C 328.402,153.878 328.886,154.537 337.000,147.000" stroke-width="2.518" stroke="black" fill="none" stroke-linecap="round"></path><path d="M 337.000,147.000 C 346.481,140.545 345.902,139.878 355.000,133.000" stroke-width="2.436" stroke="black" fill="none" stroke-linecap="round"></path><path d="M 355.000,133.000 C 363.592,124.591 363.981,125.045 372.000,116.000" stroke-width="2.361" stroke="black" fill="none" stroke-linecap="round"></path><path d="M 372.000,116.000 C 386.633,101.124 386.592,101.091 401.000,86.000" stroke-width="1.736" stroke="black" fill="none" stroke-linecap="round"></path><path d="M 401.000,86.000 C 405.996,81.338 405.633,81.124 410.000,76.000" stroke-width="2.527" stroke="black" fill="none" stroke-linecap="round"></path><path d="M 410.000,76.000 C 411.713,73.088 411.996,73.338 413.000,70.000" stroke-width="3.386" stroke="black" fill="none" stroke-linecap="round"></path><path d="M 413.000,70.000 C 416.026,65.540 414.213,67.088 415.000,64.000" stroke-width="4.234" stroke="black" fill="none" stroke-linecap="round"></path><path d="M 415.000,64.000 C 411.973,63.670 414.026,62.540 409.000,64.000" stroke-width="4.180" stroke="black" fill="none" stroke-linecap="round"></path><path d="M 409.000,64.000 C 402.551,63.828 402.973,64.670 397.000,66.000" stroke-width="3.505" stroke="black" fill="none" stroke-linecap="round"></path><path d="M 397.000,66.000 C 391.204,69.097 391.051,68.328 386.000,73.000" stroke-width="3.211" stroke="black" fill="none" stroke-linecap="round"></path><path d="M 386.000,73.000 C 379.005,77.995 379.204,78.097 373.000,84.000" stroke-width="2.980" stroke="black" fill="none" stroke-linecap="round"></path><path d="M 373.000,84.000 C 365.161,92.222 365.005,91.995 358.000,101.000" stroke-width="2.491" stroke="black" fill="none" stroke-linecap="round"></path><path d="M 358.000,101.000 C 350.155,111.621 349.661,111.222 342.000,122.000" stroke-width="2.282" stroke="black" fill="none" stroke-linecap="round"></path><path d="M 342.000,122.000 C 333.332,132.369 333.655,132.621 325.000,143.000" stroke-width="2.204" stroke="black" fill="none" stroke-linecap="round"></path><path d="M 325.000,143.000 C 318.751,150.828 318.832,150.869 313.000,159.000" stroke-width="2.457" stroke="black" fill="none" stroke-linecap="round"></path><path d="M 313.000,159.000 C 309.399,164.439 309.251,164.328 306.000,170.000" stroke-width="2.924" stroke="black" fill="none" stroke-linecap="round"></path><path d="M 306.000,170.000 C 303.531,173.325 303.899,173.439 302.000,177.000" stroke-width="3.451" stroke="black" fill="none" stroke-linecap="round"></path><path d="M 302.000,177.000 C 299.250,181.750 301.031,179.325 301.000,182.000" stroke-width="4.337" stroke="black" fill="none" stroke-linecap="round"></path><path d="M 301.000,182.000 C 309.056,181.874 306.250,182.750 316.000,179.000" stroke-width="3.979" stroke="black" fill="none" stroke-linecap="round"></path><path d="M 316.000,179.000 C 323.039,174.560 323.556,175.874 330.000,170.000" stroke-width="3.109" stroke="black" fill="none" stroke-linecap="round"></path><path d="M 330.000,170.000 C 337.590,165.130 337.539,165.060 345.000,160.000" stroke-width="2.894" stroke="black" fill="none" stroke-linecap="round"></path><path d="M 345.000,160.000 C 350.347,155.769 350.590,156.130 356.000,152.000" stroke-width="3.052" stroke="black" fill="none" stroke-linecap="round"></path><path d="M 356.000,152.000 C 360.869,148.736 360.847,148.769 366.000,146.000" stroke-width="3.246" stroke="black" fill="none" stroke-linecap="round"></path><path d="M 366.000,146.000 C 370.638,142.733 368.369,144.736 371.000,144.000" stroke-width="3.865" stroke="black" fill="none" stroke-linecap="round"></path><path d="M 371.000,144.000 C 370.481,149.071 371.638,146.233 368.000,153.000" stroke-width="4.449" stroke="black" fill="none" stroke-linecap="round"></path><path d="M 368.000,153.000 C 363.157,157.734 364.481,158.571 359.000,163.000" stroke-width="3.444" stroke="black" fill="none" stroke-linecap="round"></path><path d="M 359.000,163.000 C 355.777,167.371 355.657,167.234 353.000,172.000" stroke-width="3.440" stroke="black" fill="none" stroke-linecap="round"></path><path d="M 353.000,172.000 C 348.218,177.028 351.277,174.871 350.000,178.000" stroke-width="3.790" stroke="black" fill="none" stroke-linecap="round"></path><path d="M 350.000,178.000 C 357.542,179.914 353.718,180.028 364.000,178.000" stroke-width="4.218" stroke="black" fill="none" stroke-linecap="round"></path><path d="M 364.000,178.000 C 370.733,174.338 371.042,175.914 377.000,170.000" stroke-width="3.182" stroke="black" fill="none" stroke-linecap="round"></path><path d="M 377.000,170.000 C 383.279,164.676 383.733,165.338 390.000,160.000" stroke-width="2.888" stroke="black" fill="none" stroke-linecap="round"></path><path d="M 390.000,160.000 C 395.057,157.090 394.779,156.676 400.000,154.000" stroke-width="3.188" stroke="black" fill="none" stroke-linecap="round"></path><path d="M 400.000,154.000 C 405.067,149.067 403.057,152.090 406.000,150.000" stroke-width="3.641" stroke="black" fill="none" stroke-linecap="round"></path><path d="M 406.000,150.000 C 405.798,154.405 407.067,151.067 404.000,158.000" stroke-width="4.527" stroke="black" fill="none" stroke-linecap="round"></path><path d="M 404.000,158.000 C 401.152,160.772 402.298,161.405 399.000,164.000" stroke-width="3.977" stroke="black" fill="none" stroke-linecap="round"></path><path d="M 399.000,164.000 C 394.737,168.315 397.152,166.772 396.000,170.000" stroke-width="4.016" stroke="black" fill="none" stroke-linecap="round"></path><path d="M 396.000,170.000 C 400.686,172.508 397.737,172.315 405.000,172.000" stroke-width="4.624" stroke="black" fill="none" stroke-linecap="round"></path><path d="M 405.000,172.000 C 409.125,170.215 409.186,171.508 413.000,168.000" stroke-width="3.982" stroke="black" fill="none" stroke-linecap="round"></path><path d="M 413.000,168.000 C 419.194,163.031 416.125,166.215 419.000,164.000" stroke-width="4.436" stroke="black" fill="none" stroke-linecap="round"></path><path d="M 419.000,164.000 C 415.056,168.246 418.694,165.531 412.000,173.000" stroke-width="4.660" stroke="black" fill="none" stroke-linecap="round"></path><path d="M 412.000,173.000 C 410.770,175.432 410.556,175.246 410.000,178.000" stroke-width="4.381" stroke="black" fill="none" stroke-linecap="round"></path><path d="M 410.000,178.000 C 407.434,181.904 409.270,180.432 409.000,183.000" stroke-width="4.300" stroke="black" fill="none" stroke-linecap="round"></path><path d="M 409.000,183.000 C 415.203,186.669 412.434,185.404 420.000,185.000" stroke-width="4.665" stroke="black" fill="none" stroke-linecap="round"></path><path d="M 420.000,185.000 C 426.275,180.301 426.703,182.669 432.000,175.000" stroke-width="3.299" stroke="black" fill="none" stroke-linecap="round"></path><path d="M 432.000,175.000 C 439.386,167.383 439.775,167.801 447.000,160.000" stroke-width="2.698" stroke="black" fill="none" stroke-linecap="round"></path><path d="M 447.000,160.000 C 456.128,151.632 455.886,151.383 465.000,143.000" stroke-width="2.399" stroke="black" fill="none" stroke-linecap="round"></path><path d="M 465.000,143.000 C 474.263,133.250 474.628,133.632 484.000,124.000" stroke-width="2.241" stroke="black" fill="none" stroke-linecap="round"></path><path d="M 484.000,124.000 C 495.001,114.999 494.263,114.250 505.000,105.000" stroke-width="2.148" stroke="black" fill="none" stroke-linecap="round"></path><path d="M 505.000,105.000 C 513.782,94.794 514.501,95.499 523.000,85.000" stroke-width="2.317" stroke="black" fill="none" stroke-linecap="round"></path><path d="M 523.000,85.000 C 530.306,78.277 529.782,77.794 537.000,71.000" stroke-width="2.452" stroke="black" fill="none" stroke-linecap="round"></path><path d="M 537.000,71.000 C 541.326,65.342 541.806,65.777 546.000,60.000" stroke-width="2.798" stroke="black" fill="none" stroke-linecap="round"></path><path d="M 546.000,60.000 C 551.854,55.427 548.326,57.342 551.000,55.000" stroke-width="3.528" stroke="black" fill="none" stroke-linecap="round"></path><path d="M 551.000,55.000 C 546.115,55.714 549.854,54.427 542.000,58.000" stroke-width="4.095" stroke="black" fill="none" stroke-linecap="round"></path><path d="M 542.000,58.000 C 532.672,63.558 532.615,63.214 524.000,70.000" stroke-width="2.733" stroke="black" fill="none" stroke-linecap="round"></path><path d="M 524.000,70.000 C 515.179,76.639 515.172,76.558 507.000,84.000" stroke-width="2.587" stroke="black" fill="none" stroke-linecap="round"></path><path d="M 507.000,84.000 C 495.081,94.603 495.179,94.639 484.000,106.000" stroke-width="2.546" stroke="black" fill="none" stroke-linecap="round"></path><path d="M 484.000,106.000 C 477.870,112.894 477.581,112.603 472.000,120.000" stroke-width="2.651" stroke="black" fill="none" stroke-linecap="round"></path><path d="M 472.000,120.000 C 468.252,124.325 468.370,124.394 465.000,129.000" stroke-width="3.114" stroke="black" fill="none" stroke-linecap="round"></path><path d="M 465.000,129.000 C 460.056,135.758 460.252,135.825 456.000,143.000" stroke-width="2.919" stroke="black" fill="none" stroke-linecap="round"></path><path d="M 456.000,143.000 C 452.670,148.320 453.056,148.258 451.000,154.000" stroke-width="3.168" stroke="black" fill="none" stroke-linecap="round"></path><path d="M 451.000,154.000 C 449.971,157.426 450.170,156.820 451.000,160.000" stroke-width="3.837" stroke="black" fill="none" stroke-linecap="round"></path><path d="M 451.000,160.000 C 452.591,162.795 451.971,162.426 455.000,164.000" stroke-width="4.478" stroke="black" fill="none" stroke-linecap="round"></path><path d="M 455.000,164.000 C 457.978,164.768 457.591,165.295 461.000,165.000" stroke-width="4.283" stroke="black" fill="none" stroke-linecap="round"></path><path d="M 461.000,165.000 C 464.500,165.000 464.478,165.268 468.000,165.000" stroke-width="4.017" stroke="black" fill="none" stroke-linecap="round"></path><path d="M 468.000,165.000 C 473.500,165.000 473.500,165.000 479.000,165.000" stroke-width="3.688" stroke="black" fill="none" stroke-linecap="round"></path><path d="M 479.000,165.000 C 484.000,165.000 484.000,165.000 489.000,165.000" stroke-width="3.526" stroke="black" fill="none" stroke-linecap="round"></path><path d="M 489.000,165.000 C 494.043,164.528 494.000,165.000 499.000,165.000" stroke-width="3.537" stroke="black" fill="none" stroke-linecap="round"></path><path d="M 499.000,165.000 C 507.410,164.122 504.543,165.528 510.000,167.000" stroke-width="3.490" stroke="black" fill="none" stroke-linecap="round"></path><path d="M 510.000,167.000 C 510.571,172.000 511.910,169.122 508.000,175.000" stroke-width="4.156" stroke="black" fill="none" stroke-linecap="round"></path><path d="M 508.000,175.000 C 500.763,182.702 501.571,182.500 492.000,188.000" stroke-width="2.949" stroke="black" fill="none" stroke-linecap="round"></path><path d="M 492.000,188.000 C 478.541,194.586 479.263,195.702 465.000,201.000" stroke-width="2.244" stroke="black" fill="none" stroke-linecap="round"></path><path d="M 465.000,201.000 C 450.403,209.023 450.041,208.086 435.000,215.000" stroke-width="1.939" stroke="black" fill="none" stroke-linecap="round"></path><path d="M 435.000,215.000 C 416.792,222.119 416.903,222.023 398.000,227.000" stroke-width="1.719" stroke="black" fill="none" stroke-linecap="round"></path><path d="M 398.000,227.000 C 378.168,232.227 378.292,232.119 358.000,235.000" stroke-width="1.673" stroke="black" fill="none" stroke-linecap="round"></path><path d="M 358.000,235.000 C 338.025,237.011 338.168,237.727 318.000,238.000" stroke-width="1.624" stroke="black" fill="none" stroke-linecap="round"></path><path d="M 318.000,238.000 C 297.489,239.263 297.525,239.011 277.000,239.000" stroke-width="1.641" stroke="black" fill="none" stroke-linecap="round"></path><path d="M 277.000,239.000 C 258.094,240.193 258.489,238.763 240.000,237.000" stroke-width="1.729" stroke="black" fill="none" stroke-linecap="round"></path><path d="M 240.000,237.000 C 223.305,234.383 224.094,234.193 209.000,227.000" stroke-width="1.814" stroke="black" fill="none" stroke-linecap="round"></path><path d="M 209.000,227.000 C 191.121,218.121 192.305,218.383 178.000,205.000" stroke-width="2.087" stroke="black" fill="none" stroke-linecap="round"></path><path d="M 178.000,205.000 C 171.363,195.404 170.121,197.121 167.000,185.000" stroke-width="2.244" stroke="black" fill="none" stroke-linecap="round"></path><path d="M 167.000,185.000 C 165.555,179.552 164.863,179.904 165.000,174.000" stroke-width="2.941" stroke="black" fill="none" stroke-linecap="round"></path><path d="M 165.000,174.000 C 162.511,164.181 164.055,164.552 164.000,155.000" stroke-width="2.734" stroke="black" fill="none" stroke-linecap="round"></path><path d="M 164.000,155.000 C 165.164,144.295 165.511,145.681 171.000,137.000" stroke-width="2.720" stroke="black" fill="none" stroke-linecap="round"></path><path d="M 171.000,137.000 C 180.598,127.099 179.164,126.795 192.000,120.000" stroke-width="2.248" stroke="black" fill="none" stroke-linecap="round"></path><path d="M 192.000,120.000 C 207.354,110.330 207.098,110.599 224.000,104.000" stroke-width="1.924" stroke="black" fill="none" stroke-linecap="round"></path><path d="M 224.000,104.000 C 243.178,96.918 242.854,96.830 263.000,93.000" stroke-width="1.733" stroke="black" fill="none" stroke-linecap="round"></path><path d="M 263.000,93.000 C 286.429,89.257 286.178,88.418 310.000,87.000" stroke-width="1.600" stroke="black" fill="none" stroke-linecap="round"></path><path d="M 310.000,87.000 C 333.469,84.543 333.429,84.757 357.000,84.000" stroke-width="1.612" stroke="black" fill="none" stroke-linecap="round"></path><path d="M 357.000,84.000 C 398.645,82.186 398.469,83.043 440.000,84.000" stroke-width="1.131" stroke="black" fill="none" stroke-linecap="round"></path><path d="M 440.000,84.000 C 455.950,84.948 455.645,84.686 471.000,89.000" stroke-width="1.614" stroke="black" fill="none" stroke-linecap="round"></path><path d="M 471.000,89.000 C 482.067,92.553 481.950,91.948 492.000,98.000" stroke-width="2.094" stroke="black" fill="none" stroke-linecap="round"></path><path d="M 492.000,98.000 C 499.192,100.946 497.567,101.053 502.000,106.000" stroke-width="2.722" stroke="black" fill="none" stroke-linecap="round"></path><path d="M 502.000,106.000 C 505.234,112.895 504.192,109.946 502.000,116.000" stroke-width="3.248" stroke="black" fill="none" stroke-linecap="round"></path><path d="M 502.000,116.000 C 490.026,124.138 492.734,124.895 477.000,130.000" stroke-width="2.344" stroke="black" fill="none" stroke-linecap="round"></path><path d="M 477.000,130.000 C 459.631,136.878 460.026,137.638 442.000,143.000" stroke-width="1.842" stroke="black" fill="none" stroke-linecap="round"></path><path d="M 442.000,143.000 C 423.779,150.058 423.631,149.378 405.000,155.000" stroke-width="1.748" stroke="black" fill="none" stroke-linecap="round"></path><path d="M 405.000,155.000 C 385.635,159.858 385.779,160.058 366.000,163.000" stroke-width="1.702" stroke="black" fill="none" stroke-linecap="round"></path><path d="M 366.000,163.000 C 348.045,165.817 348.135,165.858 330.000,167.000" stroke-width="1.767" stroke="black" fill="none" stroke-linecap="round"></path><path d="M 330.000,167.000 C 317.500,167.000 317.545,167.817 305.000,167.000" stroke-width="2.141" stroke="black" fill="none" stroke-linecap="round"></path><path d="M 305.000,167.000 C 297.523,168.726 298.500,167.000 292.000,167.000" stroke-width="2.735" stroke="black" fill="none" stroke-linecap="round"></path><path d="M 549.000,175.000 C 543.946,170.284 547.500,172.000 546.000,169.000" stroke-width="5.151" stroke="black" fill="none" stroke-linecap="round"></path><path d="M 546.000,169.000 C 555.472,166.859 551.946,165.284 565.000,165.000" stroke-width="3.973" stroke="black" fill="none" stroke-linecap="round"></path><path d="M 565.000,165.000 C 575.985,162.916 575.972,162.859 587.000,161.000" stroke-width="2.750" stroke="black" fill="none" stroke-linecap="round"></path><path d="M 587.000,161.000 C 598.964,158.755 598.985,158.916 611.000,157.000" stroke-width="2.429" stroke="black" fill="none" stroke-linecap="round"></path><path d="M 611.000,157.000 C 622.965,155.094 622.964,155.255 635.000,154.000" stroke-width="2.353" stroke="black" fill="none" stroke-linecap="round"></path><path d="M 635.000,154.000 C 644.995,153.294 644.965,153.094 655.000,153.000" stroke-width="2.509" stroke="black" fill="none" stroke-linecap="round"></path><path d="M 655.000,153.000 C 662.249,151.826 661.995,152.794 669.000,153.000" stroke-width="2.886" stroke="black" fill="none" stroke-linecap="round"></path><path d="M 669.000,153.000 C 673.871,154.459 673.749,153.826 678.000,157.000" stroke-width="3.279" stroke="black" fill="none" stroke-linecap="round"></path><path d="M 678.000,157.000 C 681.029,158.574 680.371,158.459 682.000,161.000" stroke-width="3.886" stroke="black" fill="none" stroke-linecap="round"></path><path d="M 682.000,161.000 C 684.048,165.897 683.029,163.574 682.000,167.000" stroke-width="4.623" stroke="black" fill="none" stroke-linecap="round"></path><path d="M 682.000,167.000 C 675.512,167.808 677.548,169.397 669.000,168.000" stroke-width="3.578" stroke="black" fill="none" stroke-linecap="round"></path><path d="M 669.000,168.000 C 658.500,168.000 658.512,168.308 648.000,168.000" stroke-width="2.691" stroke="black" fill="none" stroke-linecap="round"></path><path d="M 648.000,168.000 C 633.000,168.000 633.000,168.000 618.000,168.000" stroke-width="2.256" stroke="black" fill="none" stroke-linecap="round"></path><path d="M 618.000,168.000 C 601.999,168.147 602.000,168.000 586.000,168.000" stroke-width="2.034" stroke="black" fill="none" stroke-linecap="round"></path><path d="M 586.000,168.000 C 547.501,167.338 547.499,167.647 509.000,167.000" stroke-width="1.288" stroke="black" fill="none" stroke-linecap="round"></path><path d="M 509.000,167.000 C 490.482,166.448 490.501,166.838 472.000,167.000" stroke-width="1.592" stroke="black" fill="none" stroke-linecap="round"></path><path d="M 472.000,167.000 C 456.864,167.037 456.982,167.448 442.000,169.000" stroke-width="1.876" stroke="black" fill="none" stroke-linecap="round"></path><path d="M 442.000,169.000 C 430.503,171.513 430.364,170.537 419.000,174.000" stroke-width="2.139" stroke="black" fill="none" stroke-linecap="round"></path><path d="M 419.000,174.000 C 411.751,174.868 412.003,175.513 405.000,177.000" stroke-width="2.659" stroke="black" fill="none" stroke-linecap="round"></path></svg>